<?xml version="1.0" encoding="UTF-8" standalone="no"?>
<!-- Generator: Adobe Illustrator 12.0.0, SVG Export Plug-In . SVG Version: 6.00 Build 51448)  -->

<svg
   xmlns:dc="http://purl.org/dc/elements/1.1/"
   xmlns:cc="http://creativecommons.org/ns#"
   xmlns:rdf="http://www.w3.org/1999/02/22-rdf-syntax-ns#"
   xmlns:svg="http://www.w3.org/2000/svg"
   xmlns="http://www.w3.org/2000/svg"
   xmlns:sodipodi="http://sodipodi.sourceforge.net/DTD/sodipodi-0.dtd"
   xmlns:inkscape="http://www.inkscape.org/namespaces/inkscape"
   version="1.1"
   id="Layer_1"
   width="200"
   height="200"
   viewBox="0 0 199.99997 200"
   overflow="visible"
   enable-background="new 0 0 544.038 202.549"
   xml:space="preserve"
   inkscape:version="0.91 r13725"
   sodipodi:docname="comic-sans.svg"
   style="overflow:visible"><metadata
     id="metadata5265"><rdf:RDF><cc:Work
         rdf:about=""><dc:format>image/svg+xml</dc:format><dc:type
           rdf:resource="http://purl.org/dc/dcmitype/StillImage" /><dc:title></dc:title></cc:Work></rdf:RDF></metadata><defs
     id="defs5263" /><sodipodi:namedview
     pagecolor="#ffffff"
     bordercolor="#666666"
     borderopacity="1"
     objecttolerance="10"
     gridtolerance="10"
     guidetolerance="10"
     inkscape:pageopacity="0"
     inkscape:pageshadow="2"
     inkscape:window-width="1916"
     inkscape:window-height="1041"
     id="namedview5261"
     showgrid="false"
     inkscape:zoom="1.4778379"
     inkscape:cx="27.324946"
     inkscape:cy="-16.663298"
     inkscape:window-x="0"
     inkscape:window-y="18"
     inkscape:window-maximized="0"
     inkscape:current-layer="Layer_1"
     fit-margin-top="0"
     fit-margin-left="0"
     fit-margin-right="0"
     fit-margin-bottom="0"
     borderlayer="true" /><path
     d="m 136.28125,151.8229 c -1.1637,0 -3.27527,-1.36077 -6.32531,-4.08236 -2.74971,-2.53385 -4.79559,-4.78621 -6.1376,-6.76638 -5.86546,3.1908 -11.02705,5.60268 -15.48481,7.23562 -4.45774,1.62357 -8.18346,2.44004 -11.167811,2.44004 -14.292942,0 -24.709987,-4.03543 -31.241758,-12.11568 -6.165768,-7.58285 -9.253342,-19.20115 -9.253342,-34.86427 0,-14.799685 5.086524,-27.459693 15.25018,-37.979962 10.163661,-10.520292 22.307498,-15.785117 36.422131,-15.785117 5.31175,0 11.27105,1.379557 17.86853,4.129289 8.30548,3.425416 12.46291,7.564086 12.46291,12.397225 0,1.651697 -0.61002,3.12511 -1.83003,4.401429 -0.61002,2.327404 -1.08863,6.156387 -1.4171,11.477521 -0.32845,5.321133 -0.53492,12.153227 -0.59123,20.477455 -0.0563,7.59226 0.45047,13.5891 1.55786,17.99053 0.61002,2.69342 2.53388,8.08024 5.76222,16.16049 0.42231,1.10739 1.12616,2.73097 2.1022,4.87069 l 0.55368,1.56724 c 0,2.4494 -0.85401,4.46712 -2.56202,6.06253 -1.72679,1.58603 -3.71636,2.38371 -5.9687,2.38371 z M 117.23027,88.034932 c 0,-2.62771 0.16885,-5.490061 0.50675,-8.577647 0.33786,-3.087562 0.83526,-6.381598 1.51096,-9.872728 -2.26171,-1.163702 -4.20436,-2.017716 -5.81853,-2.56202 -1.61417,-0.544328 -2.91866,-0.825848 -3.89467,-0.825848 -9.46919,0 -17.643282,3.875887 -24.512899,11.6089 -6.869622,7.733012 -10.313816,16.657893 -10.313816,26.755841 0,10.03228 1.773714,17.5682 5.311755,22.57964 3.538041,5.02083 8.859181,7.52657 15.944649,7.52657 5.865461,0 10.848741,-1.06987 14.940481,-3.20959 2.19603,-1.1637 5.28361,-3.4911 9.25333,-6.97285 -1.952,-16.22619 -2.92801,-28.370019 -2.92801,-36.450268 z"
     id="path5167"
     inkscape:connector-curvature="0" /></svg>