<?xml version="1.0" encoding="UTF-8" standalone="no"?>
<!-- Created with Inkscape (http://www.inkscape.org/) -->

<svg
   xmlns:dc="http://purl.org/dc/elements/1.1/"
   xmlns:cc="http://creativecommons.org/ns#"
   xmlns:rdf="http://www.w3.org/1999/02/22-rdf-syntax-ns#"
   xmlns:svg="http://www.w3.org/2000/svg"
   xmlns="http://www.w3.org/2000/svg"
   version="1.1"
   width="62"
   height="60"
   viewBox="0 0 62 60"
   id="svg2"
   xml:space="preserve"><metadata
   id="metadata15"><rdf:RDF><cc:Work
       rdf:about=""><dc:format>image/svg+xml</dc:format><dc:type
         rdf:resource="http://purl.org/dc/dcmitype/StillImage" /><dc:title></dc:title></cc:Work></rdf:RDF></metadata><defs
   id="defs13" /><g
   id="text3780"
   style="font-size:36.99787903px;font-style:normal;font-variant:normal;font-weight:normal;font-stretch:normal;text-align:start;line-height:125%;letter-spacing:0px;word-spacing:0px;writing-mode:lr-tb;text-anchor:start;fill:#ffffff;fill-opacity:1;stroke:none;font-family:Serif;-inkscape-font-specification:Serif"><path
     d="m 11.449192,29.594723 4.028577,-5.546068 -2.583348,0 0,-1.932995 7.388737,0 0,1.932995 -2.547217,0 -5.148631,7.09969 5.997703,8.255875 2.511087,0 0,1.914929 -8.870097,0 0,-1.914929 2.438825,0 -4.173101,-5.744788 -4.1911658,5.744788 2.4930212,0 0,1.914929 -7.2984098,0 0,-1.914929 2.5472173,0 5.2931536,-7.29841 -5.8351147,-8.057155 -2.3665636,0 0,-1.932995 8.5810511,0 0,1.932995 -2.2943021,0 4.0285778,5.546068"
     id="path3992" /></g>
<g
   transform="translate(-6,-2)"
   id="g3820"><path
     d="m 6.8085107,50.851064 49.0528313,0"
     id="path3010"
     style="fill:#ffffff;stroke:#ffffff;stroke-width:3.5;stroke-linecap:butt;stroke-linejoin:miter;stroke-miterlimit:4;stroke-opacity:1;stroke-dasharray:none" /><path
     d="m 49.333554,42.68526 8.211183,8.165804 -8.211183,8.165804"
     id="path3805"
     style="fill:none;stroke:#ffffff;stroke-width:3.5;stroke-linecap:round;stroke-linejoin:miter;stroke-miterlimit:4;stroke-opacity:1;stroke-dasharray:none" /></g></svg>
