<?xml version="1.0" encoding="UTF-8" standalone="no"?>
<!-- Created with Inkscape (http://www.inkscape.org/) -->

<svg
   xmlns:dc="http://purl.org/dc/elements/1.1/"
   xmlns:cc="http://creativecommons.org/ns#"
   xmlns:rdf="http://www.w3.org/1999/02/22-rdf-syntax-ns#"
   xmlns:svg="http://www.w3.org/2000/svg"
   xmlns="http://www.w3.org/2000/svg"
   xmlns:xlink="http://www.w3.org/1999/xlink"
   xmlns:sodipodi="http://sodipodi.sourceforge.net/DTD/sodipodi-0.dtd"
   xmlns:inkscape="http://www.inkscape.org/namespaces/inkscape"
   version="1.1"
   width="55"
   height="55"
   viewBox="0 0 55 55"
   id="svg2"
   xml:space="preserve"
   inkscape:version="0.48.1 r9760"
   sodipodi:docname="import-measure.svg"><sodipodi:namedview
     pagecolor="#ffffff"
     bordercolor="#666666"
     borderopacity="1"
     objecttolerance="10"
     gridtolerance="10"
     guidetolerance="10"
     inkscape:pageopacity="0"
     inkscape:pageshadow="2"
     inkscape:window-width="1280"
     inkscape:window-height="742"
     id="namedview5593"
     showgrid="false"
     inkscape:zoom="4.4363636"
     inkscape:cx="27.5"
     inkscape:cy="27.5"
     inkscape:window-x="0"
     inkscape:window-y="26"
     inkscape:window-maximized="1"
     inkscape:current-layer="svg2" /><metadata
     id="metadata25"><rdf:RDF><cc:Work
         rdf:about=""><dc:format>image/svg+xml</dc:format><dc:type
           rdf:resource="http://purl.org/dc/dcmitype/StillImage" /><dc:title></dc:title></cc:Work></rdf:RDF></metadata><defs
     id="defs33"><linearGradient
   inkscape:collect="always"
   id="linearGradient6103"><stop
     style="stop-color:#ffffff;stop-opacity:1;"
     offset="0"
     id="stop6105" /><stop
     style="stop-color:#ffffff;stop-opacity:0;"
     offset="1"
     id="stop6107" /></linearGradient>
	
	
	

  
  

  
   
   
   
   

	

		
		
		
		
		
		
		
		
		
	
	
	
	

  
  

  
   
   
   
   
<linearGradient
   inkscape:collect="always"
   xlink:href="#linearGradient6103"
   id="linearGradient6113"
   x1="-77.199659"
   y1="39.804963"
   x2="-43.648659"
   y2="39.804963"
   gradientUnits="userSpaceOnUse" /></defs><g
     transform="matrix(0.55205508,0,0,0.55205508,44.618464,18.235971)"
     id="g4382"
     style="stroke:#ffffff;stroke-opacity:1;fill:none"><g
       transform="translate(-80.093659,12.220029)"
       id="g4308"
       style="fill:none;stroke:#ffffff;stroke-opacity:1">
			<g
   id="g4310"
   style="fill:none;stroke:#ffffff;stroke-opacity:1">
				<path
   d="m 6.736,49.002 h 24.52 c 2.225,0 3.439,-1.447 3.439,-3.441 v -27.28 c 0,-1.73 -1.732,-3.441 -3.439,-3.441 h -4.389"
   id="path4312"
   style="fill:none;stroke:#ffffff;stroke-width:3.50000000000000000;stroke-linecap:round;stroke-linejoin:round;stroke-opacity:1" />
			</g>
		</g><g
       transform="translate(-80.093659,12.220029)"
       id="g4314"
       style="fill:none;stroke:#ffffff;stroke-opacity:1">
			<g
   id="g4316"
   style="fill:none;stroke:#ffffff;stroke-opacity:1">
				<path
   d="m 26.867,38.592 c 0,1.836 -1.345,3.201 -3.441,4.047 L 6.736,49.002 V 14.84 l 16.69,-8.599 c 2.228,-0.394 3.441,0.84 3.441,2.834 v 29.517 z"
   id="path4318"
   style="fill:none;stroke:#ffffff;stroke-width:3.50000000000000000;stroke-linecap:round;stroke-linejoin:round;stroke-opacity:1" />
			</g>
		</g><path
       d="m -70.669659,54.827029 c 0,0 -1.351,-0.543 -2.702,-0.543 -1.351,0 -2.703,0.543 -2.703,0.543"
       id="path4320"
       style="fill:none;stroke:#ffffff;stroke-width:2.25000000000000000;stroke-linecap:round;stroke-linejoin:round;stroke-opacity:1" /><path
       d="m -70.669659,44.226029 c 0,0 -1.239,-0.543 -2.815,-0.543 -1.577,0 -2.59,0.543 -2.59,0.543"
       id="path4322"
       style="fill:none;stroke:#ffffff;stroke-width:2.25000000000000000;stroke-linecap:round;stroke-linejoin:round;stroke-opacity:1" /><path
       d="m -70.669659,33.898029 c 0,0 -1.125,-0.544 -2.927,-0.544 -1.802,0 -2.478,0.544 -2.478,0.544"
       id="path4324"
       style="fill:none;stroke:#ffffff;stroke-width:2.25000000000000000;stroke-linecap:round;stroke-linejoin:round;stroke-opacity:1" /><line
       style="fill:none;stroke:#ffffff;stroke-width:2.25000000000000000;stroke-linecap:round;stroke-linejoin:round;stroke-opacity:1"
       x1="-66.884659"
       x2="-66.884659"
       y1="58.753029"
       y2="23.725029"
       id="line4326" /></g><g
     transform="matrix(0,-1,-1,0,43.9376,89.386573)"
     id="g4770"
     style="stroke:#ffffff;stroke-opacity:1;fill:none"><g
       transform="translate(34.0803,-1006.42)"
       id="g4772"
       style="stroke:#ffffff;stroke-opacity:1;fill:none"><polyline
         transform="matrix(-0.469241,0.469241,-0.469241,-0.469241,66.2906,1019.03)"
         style="fill:none;stroke:#ffffff;stroke-width:3.50000000000000000;stroke-linecap:round;stroke-linejoin:round;stroke-opacity:1"
         points="51.562,15.306 41.17,16.188 42.053,5.794"
         id="polyline4774" /><path
         d="m 39.363241,1033.1291 -0.05636,9.9115 -8.750608,0.067"
         id="path4776"
         style="fill:none;stroke:#ffffff;stroke-width:2.50000000000000000;stroke-linecap:round;stroke-linejoin:round;stroke-miterlimit:4;stroke-opacity:1;stroke-dasharray:none" /></g></g><g
     transform="matrix(0.68900686,0,0,0.69743646,19.198938,-2.1167038)"
     style="display:block;stroke:#ffffff;stroke-opacity:1;fill:none"
     display="block"
     id="activity-measure"><g
       id="g6214"
       style="stroke:#ffffff;stroke-opacity:1;fill:none"><path
         style="fill:none;stroke:#ffffff;stroke-opacity:1"
         inkscape:connector-curvature="0"
         d="m 48.143,36.983 c 0,3.3 -2.7,6 -6,6 H 12.705 c -3.3,0 -6,-2.7 -6,-6 v -18.77 c 0,-3.3 2.7,-6 6,-6 h 29.438 c 3.3,0 6,2.7 6,6 v 18.77 z"
         id="path6216" /><path
         style="fill:none;stroke:#ffffff;stroke-width:3.50000000000000000;stroke-linejoin:round;stroke-opacity:1"
         inkscape:connector-curvature="0"
         d="m 48.143,36.983 c 0,3.3 -2.7,6 -6,6 H 12.705 c -3.3,0 -6,-2.7 -6,-6 v -18.77 c 0,-3.3 2.7,-6 6,-6 h 29.438 c 3.3,0 6,2.7 6,6 v 18.77 z"
         id="path6218" /></g><path
       style="fill:none;stroke:#ffffff;stroke-width:3.50000000000000000;stroke-linejoin:round;stroke-opacity:1"
       inkscape:connector-curvature="0"
       d="m 8.007,27.598 c 10.118,0 6.243,9.431 11.213,9.431 4.375,0 2.154,-19.154 6.279,-19.154 4.875,0 1.719,19.154 6.719,19.154 4.406,0 1.781,-11.529 5.156,-11.529 3.375,0 2,4.875 4.25,4.875 2.375,0 0.25,-3.375 5.75,-3.375"
       id="path6220" /></g></svg>
