<?xml version="1.0" encoding="UTF-8" standalone="no"?>
<!-- Created with Inkscape (http://www.inkscape.org/) -->

<svg
   xmlns:dc="http://purl.org/dc/elements/1.1/"
   xmlns:cc="http://creativecommons.org/ns#"
   xmlns:rdf="http://www.w3.org/1999/02/22-rdf-syntax-ns#"
   xmlns:svg="http://www.w3.org/2000/svg"
   xmlns="http://www.w3.org/2000/svg"
   xmlns:xlink="http://www.w3.org/1999/xlink"
   xmlns:sodipodi="http://sodipodi.sourceforge.net/DTD/sodipodi-0.dtd"
   xmlns:inkscape="http://www.inkscape.org/namespaces/inkscape"
   version="1.1"
   width="55"
   height="55"
   viewBox="0 0 55 55"
   id="svg2"
   xml:space="preserve"
   inkscape:version="0.48.2 r9819"
   sodipodi:docname="measure_channel2.svg"><sodipodi:namedview
     pagecolor="#ffffff"
     bordercolor="#666666"
     borderopacity="1"
     objecttolerance="10"
     gridtolerance="10"
     guidetolerance="10"
     inkscape:pageopacity="0"
     inkscape:pageshadow="2"
     inkscape:window-width="1280"
     inkscape:window-height="746"
     id="namedview5593"
     showgrid="false"
     inkscape:zoom="4.4363636"
     inkscape:cx="-14.538935"
     inkscape:cy="7.280768"
     inkscape:window-x="0"
     inkscape:window-y="26"
     inkscape:window-maximized="1"
     inkscape:current-layer="svg2"
     showguides="true"
     inkscape:guide-bbox="true" /><metadata
     id="metadata25"><rdf:RDF><cc:Work
         rdf:about=""><dc:format>image/svg+xml</dc:format><dc:type
           rdf:resource="http://purl.org/dc/dcmitype/StillImage" /><dc:title></dc:title></cc:Work></rdf:RDF></metadata><defs
     id="defs33"><linearGradient
   inkscape:collect="always"
   id="linearGradient6103"><stop
     style="stop-color:#ffffff;stop-opacity:1;"
     offset="0"
     id="stop6105" /><stop
     style="stop-color:#ffffff;stop-opacity:0;"
     offset="1"
     id="stop6107" /></linearGradient>
	
	
	

  
  

  
   
   
   
   

	

		
		
		
		
		
		
		
		
		
	
	
	
	

  
  

  
   
   
   
   
<linearGradient
   inkscape:collect="always"
   xlink:href="#linearGradient6103"
   id="linearGradient6113"
   x1="-77.199659"
   y1="39.804963"
   x2="-43.648659"
   y2="39.804963"
   gradientUnits="userSpaceOnUse" /></defs><g
     transform="matrix(0.72645535,0,0,0.71529558,-0.8274669,14.435716)"
     style="fill:none;stroke:#ffffff;stroke-opacity:1;display:block"
     display="block"
     id="activity-measure"><g
       id="g6214"
       style="fill:none;stroke:#ffffff;stroke-opacity:1"><path
         style="fill:none;stroke:#ffffff;stroke-opacity:1"
         inkscape:connector-curvature="0"
         d="m 48.143,36.983 c 0,3.3 -2.7,6 -6,6 H 12.705 c -3.3,0 -6,-2.7 -6,-6 v -18.77 c 0,-3.3 2.7,-6 6,-6 h 29.438 c 3.3,0 6,2.7 6,6 v 18.77 z"
         id="path6216" /><path
         style="fill:none;stroke:#ffffff;stroke-width:3.50000000000000000;stroke-linejoin:round;stroke-opacity:1"
         inkscape:connector-curvature="0"
         d="m 48.143,36.983 c 0,3.3 -2.7,6 -6,6 H 12.705 c -3.3,0 -6,-2.7 -6,-6 v -18.77 c 0,-3.3 2.7,-6 6,-6 h 29.438 c 3.3,0 6,2.7 6,6 v 18.77 z"
         id="path6218" /></g><path
       style="fill:none;stroke:#ffffff;stroke-width:3.50000000000000000;stroke-linejoin:round;stroke-opacity:1"
       inkscape:connector-curvature="0"
       d="m 8.007,27.598 c 10.118,0 6.243,9.431 11.213,9.431 4.375,0 2.154,-19.154 6.279,-19.154 4.875,0 1.719,19.154 6.719,19.154 4.406,0 1.781,-11.529 5.156,-11.529 3.375,0 2,4.875 4.25,4.875 2.375,0 0.25,-3.375 5.75,-3.375"
       id="path6220" /></g><text
     xml:space="preserve"
     style="font-size:44.88426970999999810px;font-style:normal;font-variant:normal;font-weight:500;font-stretch:normal;line-height:125%;letter-spacing:0px;word-spacing:0px;fill:#ffffff;fill-opacity:1;stroke:#ffffff;font-family:gargi;-inkscape-font-specification:gargi Medium;stroke-opacity:1"
     x="32.185669"
     y="40.162285"
     id="text3843"
     sodipodi:linespacing="125%"
     transform="scale(0.98760782,1.0125477)"><tspan
       sodipodi:role="line"
       id="tspan3845"
       x="32.185669"
       y="40.162285">2</tspan></text>
</svg>
