<?xml version="1.0" encoding="UTF-8" standalone="no"?>
<!-- Created with Inkscape (http://www.inkscape.org/) -->

<svg
   xmlns:dc="http://purl.org/dc/elements/1.1/"
   xmlns:cc="http://creativecommons.org/ns#"
   xmlns:rdf="http://www.w3.org/1999/02/22-rdf-syntax-ns#"
   xmlns:svg="http://www.w3.org/2000/svg"
   xmlns="http://www.w3.org/2000/svg"
   version="1.1"
   width="62"
   height="60"
   viewBox="0 0 62 60"
   id="svg2"
   xml:space="preserve"><metadata
     id="metadata15"><rdf:RDF><cc:Work
         rdf:about=""><dc:format>image/svg+xml</dc:format><dc:type
           rdf:resource="http://purl.org/dc/dcmitype/StillImage" /><dc:title></dc:title></cc:Work></rdf:RDF></metadata><defs
     id="defs13" /><g
     transform="matrix(0,-1,1,0,0,0)"
     id="text3780"
     style="font-size:36.99787903px;font-style:normal;font-variant:normal;font-weight:normal;font-stretch:normal;text-align:start;line-height:125%;letter-spacing:0px;word-spacing:0px;writing-mode:lr-tb;text-anchor:start;fill:#ffffff;fill-opacity:1;stroke:none;font-family:Serif;-inkscape-font-specification:Serif"><path
       d="m -47.332874,26.841896 1.264576,-3.19757 -7.171952,-17.5956713 -2.18591,0 0,-1.9329947 8.833966,0 0,1.9329947 -3.071113,0 5.401546,13.2057863 5.401546,-13.2057863 -2.872394,0 0,-1.9329947 7.208082,0 0,1.9329947 -2.149779,0 -8.797835,21.6061833 c -0.602188,1.493398 -1.270606,2.51108 -2.005256,3.053048 -0.734666,0.553996 -1.770413,0.830998 -3.107244,0.831007 -0.566052,-9e-6 -1.150166,-0.04818 -1.752341,-0.144523 -0.590138,-0.09636 -1.186294,-0.234858 -1.788472,-0.415504 l 0,-3.66727 1.698145,0 c 0.07226,0.818959 0.276999,1.403072 0.614223,1.752341 0.34926,0.361301 0.885199,0.541955 1.607818,0.541961 0.662391,-6e-6 1.192308,-0.186682 1.589752,-0.560026 0.409475,-0.361313 0.837022,-1.095971 1.282642,-2.203976"
       id="path4023" /></g><g
     transform="matrix(0,-1,1,0,-7.9999981,62)"
     id="g3820"><path
       d="m 6.8085107,50.851064 49.0528313,0"
       id="path3010"
       style="fill:#ffffff;stroke:#ffffff;stroke-width:3.5;stroke-linecap:butt;stroke-linejoin:miter;stroke-miterlimit:4;stroke-opacity:1;stroke-dasharray:none" /><path
       d="m 49.333554,42.68526 8.211183,8.165804 -8.211183,8.165804"
       id="path3805"
       style="fill:none;stroke:#ffffff;stroke-width:3.5;stroke-linecap:round;stroke-linejoin:miter;stroke-miterlimit:4;stroke-opacity:1;stroke-dasharray:none" /></g></svg>
