<svg width="104" height="59" xmlns="http://www.w3.org/2000/svg">
 <!-- Created with Method Draw - http://github.com/duopixel/Method-Draw/ -->
 <g>
  <title>background</title>
  <rect fill="none" id="canvas_background" height="61" width="106" y="-1" x="-1"/>
  <g display="none" overflow="visible" y="0" x="0" height="100%" width="100%" id="canvasGrid">
   <rect fill="url(#gridpattern)" stroke-width="0" y="0" x="0" height="100%" width="100%"/>
  </g>
 </g>
 <g>
  <title>Layer 1</title>
  <path id="svg_1" d="m51.355396,4.379648c-25.993488,0 -46.500661,25.187555 -46.500661,25.187555s20.507173,25.187439 46.500661,25.187439c19.876225,0 46.500813,-25.187439 46.500813,-25.187439s-26.624588,-25.187555 -46.500813,-25.187555zm0,40.879923c-9.123592,0 -16.56012,-7.04414 -16.56012,-15.692368s7.436527,-15.697368 16.56012,-15.697368s16.555279,7.049016 16.555279,15.697368s-7.431667,15.692368 -16.555279,15.692368zm0,-24.853777c-5.333912,0 -9.665257,4.099897 -9.665257,9.161409c0,5.061291 4.325668,9.161327 9.665257,9.161327c5.339787,0 9.665245,-4.100037 9.665245,-9.161327c0,-5.056374 -4.325459,-9.161409 -9.665245,-9.161409z" stroke-width="3" stroke="#000" fill="#fff"/>
 </g>
</svg>