<svg width="45" height="39" xmlns="http://www.w3.org/2000/svg">
 <!-- Created with Method Draw - http://github.com/duopixel/Method-Draw/ -->
 <g>
  <title>background</title>
  <rect fill="none" id="canvas_background" height="41" width="47" y="-1" x="-1"/>
  <g display="none" overflow="visible" y="0" x="0" height="100%" width="100%" id="canvasGrid">
   <rect fill="url(#gridpattern)" stroke-width="0" y="0" x="0" height="100%" width="100%"/>
  </g>
 </g>
 <g>
  <title>Layer 1</title>
  <path id="svg_1" d="m39.399765,30.413157l-4.790276,-7.836025c-1.444244,-2.361759 -3.806513,-6.228142 -5.250767,-8.590357l-4.789822,-7.835546c-1.445683,-2.363144 -3.807945,-2.363144 -5.251717,0l-4.78885,7.835546c-1.444249,2.362215 -3.807953,6.229498 -5.251725,8.590357l-4.789342,7.836025c-1.444244,2.364035 -0.262145,4.296309 2.62587,4.296309l29.657893,0c2.890896,0 4.071533,-1.932274 2.628727,-4.296309zm-16.088884,1.213076l-2.841095,0l0,-2.576496l2.841095,0l0,2.576496zm-0.136877,-4.47496l-2.564915,0l-0.2549,-11.023876l3.051968,0l-0.232153,11.023876z" stroke-width="1.5" stroke="#000" fill="#fff"/>
 </g>
</svg>