<?xml version="1.0" encoding="UTF-8" standalone="no"?>
<!-- Created with Inkscape (http://www.inkscape.org/) -->

<svg
   xmlns:svg="http://www.w3.org/2000/svg"
   xmlns="http://www.w3.org/2000/svg"
   version="1.0"
   width="44"
   height="44"
   id="svg2">
  <defs
     id="defs5" />
  <path
     d="M 26.896078,11.635294 15.157342,23.955503 -1.8549019,24.366666 -14.175111,12.62793 -14.586274,-4.3843137 -2.8475378,-16.704523 14.164706,-17.115686 26.484915,-5.3769496 26.896078,11.635294 z"
     transform="matrix(1.0676988,0.03262115,-0.03262115,1.0676988,15.546686,17.928289)"
     id="path2386"
     style="fill:#000000;fill-opacity:0;stroke:none" />
  <path
     d="M 26.896078,11.635294 15.157342,23.955503 -1.8549019,24.366666 -14.175111,12.62793 -14.586274,-4.3843137 -2.8475378,-16.704523 14.164706,-17.115686 26.484915,-5.3769496 26.896078,11.635294 z"
     transform="matrix(0.8982409,0.027775,-0.02744374,0.9090831,16.347508,18.533176)"
     id="path3158"
     style="fill:none;stroke:#ffffff;stroke-width:3.31833673;stroke-opacity:1" />
  <path
     d="M 5.0000004,29 -1.0621779,18.5 -7.1243558,8.0000003 5.0000002,8 17.124355,7.9999997 11.062178,18.5 5.0000004,29 z"
     transform="matrix(-0.00257519,-0.78354679,0.82270363,-0.00245262,8.9373438,25.614132)"
     id="path2824"
     style="fill:#ffffff;fill-opacity:1" />
</svg>
