<?xml version="1.0" encoding="UTF-8" standalone="no"?>
<!-- Created with Inkscape (http://www.inkscape.org/) -->

<svg
   xmlns:svg="http://www.w3.org/2000/svg"
   xmlns="http://www.w3.org/2000/svg"
   version="1.0"
   width="44"
   height="44"
   id="svg2">
  <defs
     id="defs5" />
  <path
     d="M 26.896078,11.635294 15.157342,23.955503 -1.8549019,24.366666 -14.175111,12.62793 -14.586274,-4.3843137 -2.8475378,-16.704523 14.164706,-17.115686 26.484915,-5.3769496 26.896078,11.635294 z"
     transform="matrix(1.0676988,0.03262115,-0.03262115,1.0676988,15.546686,17.928289)"
     id="path2386"
     style="fill:#000000;fill-opacity:0;stroke:none" />
  <path
     d="M 26.896078,11.635294 15.157342,23.955503 -1.8549019,24.366666 -14.175111,12.62793 -14.586274,-4.3843137 -2.8475378,-16.704523 14.164706,-17.115686 26.484915,-5.3769496 26.896078,11.635294 z"
     transform="matrix(0.8982409,0.027775,-0.02744374,0.9090831,16.347508,18.533176)"
     id="path3158"
     style="fill:none;stroke:#ffffff;stroke-width:3.31833673;stroke-opacity:1" />
  <path
     d="m 16.987782,36.466398 0,-5.405882 c 0,0 -1.533767,-0.676356 -2.023529,-1.180393 -0.662593,-0.681907 -1.517647,-2.782352 -1.517647,-2.782352 l -0.0184,-11.631373 c 0,0 0.687852,-1.032868 1.171258,-0.977718 0.498837,0.05691 0.976374,0.977718 0.976374,0.977718 l 0,6 c 0,0 0.688624,0.580651 0.906061,0.572549 0.197418,-0.0074 0.656111,-0.572549 0.656111,-0.572549 l 0.08431,-9.75 c 0,0 0.580108,-0.90735 1.030166,-0.891176 0.375782,0.01351 0.927452,0.891176 0.927452,0.891176 l 0.168627,6.75 c 0,0 0.405694,0.699955 0.67451,0.705882 0.161921,0.0036 0.722023,-0.705882 0.722023,-0.705882 L 20.613273,8.4663984 c 0,0 0.829327,-0.9980533 1.180391,-0.9294114 0.344867,0.06743 1.011766,0.9294114 1.011766,0.9294114 l 0.08431,10.2499996 c 0,0 0.449781,0.481964 0.674511,0.455882 0.196236,-0.02277 0.761584,-0.455882 0.761584,-0.455882 l 0,-7.25 c 0,0 0.663398,-0.932951 1.111446,-0.978431 0.450161,-0.04569 1.138554,1.091102 1.138554,1.091102 l 0,13.017647 1.878611,0.308898 c 0,0 1.288603,-2.469107 2.192157,-3.203922 0.765333,-0.622407 2.030021,-1.230804 2.997738,-1.039365 0.386002,0.07636 0.92745,0.852337 0.92745,0.852337 0,0 -2.251119,2.381719 -2.941781,3.653091 -0.51581,0.949505 -0.756638,2.771202 -1.452489,3.59789 -0.54755,0.650503 -1.598008,1.07997 -2.332428,1.508447 -0.783172,0.45692 -2.388385,1.179635 -2.388385,1.179635 l -0.03756,5.012671 -8.431372,0 z"
     id="path3162"
     style="fill:#ffffff;fill-opacity:1;stroke:#ffffff;stroke-width:0.5;stroke-opacity:1" />
</svg>
