<?xml version="1.0" encoding="UTF-8"?>
<!DOCTYPE svg PUBLIC "-//W3C//DTD SVG 1.1//EN"
 "http://www.w3.org/Graphics/SVG/1.1/DTD/svg11.dtd" [
  <!ENTITY fill_color "#FFFFFF">
  <!ENTITY stroke_color "#000000">
]>
<svg
   xmlns:svg="http://www.w3.org/2000/svg"
   xmlns="http://www.w3.org/2000/svg"
   height="55"
   version="1.0"
   width="55"
   id="Icon">
  <path
     d="M 10.805605,38.211574 L 16.010383,38.211574 C 16.896859,38.211574 17.610522,38.950024 17.610522,39.867292 L 17.610522,45.089349 C 17.610522,46.006617 16.896859,46.745068 16.010383,46.745068 L 10.805605,46.745068 C 9.919127,46.745068 9.2054655,46.006617 9.2054655,45.089349 L 9.2054655,39.867292 C 9.2054655,38.950024 9.919127,38.211574 10.805605,38.211574 z "
     style="fill:&stroke_color;;fill-opacity:1;stroke:&stroke_color;;stroke-width:1.15481782;stroke-linecap:round;stroke-linejoin:round;stroke-miterlimit:4;stroke-dasharray:none;stroke-opacity:1" />
  <path
     style="fill:&stroke_color;;fill-opacity:1;stroke:&stroke_color;;stroke-width:1.15481782;stroke-linecap:round;stroke-linejoin:round;stroke-miterlimit:4;stroke-dasharray:none;stroke-opacity:1"
     d="M 31.405605,38.211574 L 36.610383,38.211574 C 37.496859,38.211574 38.210522,38.950024 38.210522,39.867292 L 38.210522,45.089349 C 38.210522,46.006617 37.496859,46.745068 36.610383,46.745068 L 31.405605,46.745068 C 30.519127,46.745068 29.805466,46.006617 29.805466,45.089349 L 29.805466,39.867292 C 29.805466,38.950024 30.519127,38.211574 31.405605,38.211574 z " />
  <path
     style="fill:&fill_color;;fill-opacity:1;stroke:&stroke_color;;stroke-width:1.15481782;stroke-linecap:round;stroke-linejoin:round;stroke-miterlimit:4;stroke-dasharray:none;stroke-opacity:1"
     d="M 21.105605,38.211574 L 26.310383,38.211574 C 27.196859,38.211574 27.910522,38.950024 27.910522,39.867292 L 27.910522,45.089349 C 27.910522,46.006617 27.196859,46.745068 26.310383,46.745068 L 21.105605,46.745068 C 20.219127,46.745068 19.505466,46.006617 19.505466,45.089349 L 19.505466,39.867292 C 19.505466,38.950024 20.219127,38.211574 21.105605,38.211574 z " />
  <path
     style="fill:&stroke_color;;fill-opacity:1;stroke:&stroke_color;;stroke-width:1.15481782;stroke-linecap:round;stroke-linejoin:round;stroke-miterlimit:4;stroke-dasharray:none;stroke-opacity:1"
     d="M 41.705605,38.211574 L 46.910383,38.211574 C 47.796859,38.211574 48.510522,38.950024 48.510522,39.867292 L 48.510522,45.089349 C 48.510522,46.006617 47.796859,46.745068 46.910383,46.745068 L 41.705605,46.745068 C 40.819127,46.745068 40.105466,46.006617 40.105466,45.089349 L 40.105466,39.867292 C 40.105466,38.950024 40.819127,38.211574 41.705605,38.211574 z " />
  <path
     d="M 21.105605,27.911574 L 26.310383,27.911574 C 27.196859,27.911574 27.910522,28.650024 27.910522,29.567292 L 27.910522,34.789349 C 27.910522,35.706617 27.196859,36.445068 26.310383,36.445068 L 21.105605,36.445068 C 20.219127,36.445068 19.505466,35.706617 19.505466,34.789349 L 19.505466,29.567292 C 19.505466,28.650024 20.219127,27.911574 21.105605,27.911574 z "
     style="fill:&fill_color;;fill-opacity:1;stroke:&stroke_color;;stroke-width:1.15481782;stroke-linecap:round;stroke-linejoin:round;stroke-miterlimit:4;stroke-dasharray:none;stroke-opacity:1" />
  <path
     d="M 21.105605,17.611574 L 26.310383,17.611574 C 27.196859,17.611574 27.910522,18.350024 27.910522,19.267292 L 27.910522,24.489349 C 27.910522,25.406617 27.196859,26.145068 26.310383,26.145068 L 21.105605,26.145068 C 20.219127,26.145068 19.505466,25.406617 19.505466,24.489349 L 19.505466,19.267292 C 19.505466,18.350024 20.219127,17.611574 21.105605,17.611574 z "
     style="fill:&fill_color;;fill-opacity:1;stroke:&stroke_color;;stroke-width:1.15481782;stroke-linecap:round;stroke-linejoin:round;stroke-miterlimit:4;stroke-dasharray:none;stroke-opacity:1" />
  <path
     d="M 31.405605,27.911574 L 36.610383,27.911574 C 37.496859,27.911574 38.210522,28.650024 38.210522,29.567292 L 38.210522,34.789349 C 38.210522,35.706617 37.496859,36.445068 36.610383,36.445068 L 31.405605,36.445068 C 30.519127,36.445068 29.805466,35.706617 29.805466,34.789349 L 29.805466,29.567292 C 29.805466,28.650024 30.519127,27.911574 31.405605,27.911574 z "
     style="fill:&fill_color;;fill-opacity:1;stroke:&stroke_color;;stroke-width:1.15481782;stroke-linecap:round;stroke-linejoin:round;stroke-miterlimit:4;stroke-dasharray:none;stroke-opacity:1" />
  <path
     style="fill:&stroke_color;;fill-opacity:1;stroke:&stroke_color;;stroke-width:1.15481782;stroke-linecap:round;stroke-linejoin:round;stroke-miterlimit:4;stroke-dasharray:none;stroke-opacity:1"
     d="M 10.805605,27.911574 L 16.010383,27.911574 C 16.896859,27.911574 17.610522,28.650024 17.610522,29.567292 L 17.610522,34.789349 C 17.610522,35.706617 16.896859,36.445068 16.010383,36.445068 L 10.805605,36.445068 C 9.919127,36.445068 9.2054655,35.706617 9.2054655,34.789349 L 9.2054655,29.567292 C 9.2054655,28.650024 9.919127,27.911574 10.805605,27.911574 z " />
  <path
     style="fill:&stroke_color;;fill-opacity:1;stroke:&stroke_color;;stroke-width:1.15481782;stroke-linecap:round;stroke-linejoin:round;stroke-miterlimit:4;stroke-dasharray:none;stroke-opacity:1"
     d="M 31.405605,17.611574 L 36.610383,17.611574 C 37.496859,17.611574 38.210522,18.350024 38.210522,19.267292 L 38.210522,24.489349 C 38.210522,25.406617 37.496859,26.145068 36.610383,26.145068 L 31.405605,26.145068 C 30.519127,26.145068 29.805466,25.406617 29.805466,24.489349 L 29.805466,19.267292 C 29.805466,18.350024 30.519127,17.611574 31.405605,17.611574 z " />
</svg>
