<?xml version="1.0" encoding="iso-8859-1"?>
<!-- Generator: Adobe Illustrator 19.0.0, SVG Export Plug-In . SVG Version: 6.00 Build 0)  -->
<svg version="1.1" id="Layer_1" xmlns="http://www.w3.org/2000/svg" xmlns:xlink="http://www.w3.org/1999/xlink" x="0px" y="0px"
	 viewBox="0 0 330 330" style="enable-background:new 0 0 330 330;" xml:space="preserve">
<g id="XMLID_85_">
	<path style="fill:#aa0000;stroke:#aa0000;" id="XMLID_86_" d="M165,0C74.019,0,0,74.019,0,165s74.019,165,165,165c90.981,0,165-74.019,165-165S255.982,0,165,0z M165,300
		C90.561,300,30,239.44,30,165S90.561,30,165,30c74.439,0,135,60.561,135,135S239.439,300,165,300z"/>
	<path style="fill:#aa0000;stroke:#aa0000;" id="XMLID_89_" d="M164.999,179.823C164.998,179.823,165,179.823,164.999,179.823c-23.238,0-45.087,9.05-61.518,25.482
		c-5.858,5.857-5.858,15.355,0,21.213c2.929,2.929,6.768,4.394,10.607,4.394s7.678-1.465,10.606-4.394
		c10.766-10.766,25.08-16.694,40.305-16.694c15.225,0,29.539,5.929,40.305,16.694c5.857,5.857,15.355,5.857,21.213,0
		c5.858-5.857,5.858-15.355,0-21.213C210.085,188.873,188.238,179.823,164.999,179.823z"/>
	<path style="fill:#aa0000;stroke:#aa0000;" id="XMLID_90_" d="M115.14,147.14c3.73-3.72,5.86-8.88,5.86-14.14s-2.13-10.42-5.86-14.141C111.42,115.14,106.26,113,101,113
		c-5.27,0-10.42,2.14-14.14,5.859C83.14,122.58,81,127.74,81,133s2.14,10.42,5.86,14.14c3.72,3.72,8.88,5.86,14.14,5.86
		C106.26,153,111.42,150.86,115.14,147.14z"/>
	<path style="fill:#aa0000;stroke:#aa0000;" id="XMLID_91_" d="M229,113c-5.27,0-10.42,2.14-14.14,5.859C211.13,122.58,209,127.74,209,133s2.13,10.42,5.86,14.14
		c3.72,3.72,8.88,5.86,14.14,5.86c5.26,0,10.42-2.141,14.14-5.86c3.73-3.72,5.86-8.88,5.86-14.14s-2.13-10.42-5.86-14.141
		C239.42,115.14,234.26,113,229,113z"/>
</g>
<g>
</g>
<g>
</g>
<g>
</g>
<g>
</g>
<g>
</g>
<g>
</g>
<g>
</g>
<g>
</g>
<g>
</g>
<g>
</g>
<g>
</g>
<g>
</g>
<g>
</g>
<g>
</g>
<g>
</g>
</svg>
