<svg width="230px" height="145px" viewBox="0 0 230 145" version="1.1" xml:space="preserve" xmlns="http://www.w3.org/2000/svg" xmlns:xlink="http://www.w3.org/1999/xlink">
  <!-- Generator: Sketch 48.2 (47327) - http://www.bohemiancoding.com/sketch -->
  <defs/>
  <g>
    <title>pterosaur-e</title>
    <desc>Created with Sketch.</desc>
    <g id="dinosaurs" stroke="none" stroke-width="1" fill="none" fill-rule="evenodd">
      <g id="pterosaur-e" fill-rule="nonzero">
        <g id="scratch_dinos01e" transform="translate(74.000000, 27.000000)">
          <path d="M83.7872917,32.9323308 L64.7448611,32.9323308 C66.9515972,35.3924812 70.6155556,40.5142857 70.6304861,40.5353383 C70.8275694,40.7909774 74.0495833,42.9203008 76.9580556,56.2917293 C79.8665278,69.6631579 70.2094444,75.5699248 69.9914583,75.7022556 C71.3859722,75.7864662 74.8229861,75.7714286 77.5284028,74.4150376 C78.7228472,73.8135338 80.2995139,71.7714286 80.6040972,71.3593985 C81.4999306,70.1714286 82.1419444,68.7639098 82.8138194,67.4496241 C84.2352083,64.6616541 84.7040278,61.275188 85.1250694,58.2075188 C85.9994131,51.7428171 85.9289899,45.1839955 84.9160417,38.7398496 C84.5905556,36.7639098 84.2083333,34.8330827 83.7872917,32.9323308 Z" id="Shape" fill="#828278"/>
          <path d="M68.4595833,38.5112782 L83.7872917,32.9323308 C82.758543,28.3809082 81.3254078,23.9319057 79.5052083,19.6390977 C78.1763889,16.556391 76.9938889,13.6240602 75.2350694,10.7398496 C74.4347917,9.42857143 71.3292361,3.38345865 69.310625,4.12330827 C68.2744444,6.22857143 69.310625,8.84210526 69.2389583,11.0977444 C69.1854078,13.3501365 68.7354953,15.5750947 67.9101389,17.6691729 C67.1845139,19.4736842 66.2797222,21.9458647 64.5985417,23.0827068 C63.8086782,23.5854072 62.9127241,23.8944405 61.9827083,23.9849624 C61.4571528,24.0300752 52.1763194,22.4511278 51.8299306,22.9864662 C54.3352778,24.8842105 59.3459722,27.675188 64.0461111,32.2165414 C64.1775,32.3218045 68.3102778,38.3488722 68.4595833,38.5112782 Z" id="Shape" fill="#64645A"/>
          <path d="M8.519375,59.7834586 C8.519375,59.7834586 10.1527778,46.8390977 26.5763889,44.8120301 L36.4305556,24.6315789 C36.4305556,24.6315789 17.0208333,22.8661654 12.5416667,33.9548872 C10.1527778,39.8466165 5.68854167,45.3654135 6.27083333,51.8646617 C6.78444444,57.6300752 8.519375,59.7834586 8.519375,59.7834586 Z" id="Shape" fill="#3C3C32"/>
          <path d="M76.6086806,60.3278195 C76.6086806,60.3278195 76.2115278,53.1097744 67.6175,47.4857143 C65.4973611,46.0962406 58.6860417,45.0796992 55.4371528,44.6796992 L48.1271528,24.6406015 C48.1271528,24.6406015 60.9913194,26.6195489 67.375625,34.3609023 C70.1586806,37.7323308 77.211875,48.2526316 77.7881944,54.1804511 C78.5347222,61.8526316 76.6086806,60.3278195 76.6086806,60.3278195 Z" id="Shape" fill="#3C3C32"/>
          <path d="M12.0011806,45.9097744 C12.8283333,42 15.130625,37.0857143 17.6449306,32.9323308 L0.647986111,32.9323308 C0.282121875,35.9830211 0.102617354,39.0534618 0.110486111,42.1263158 C0.110486111,47.3203008 0.764444444,52.4090226 1.53486111,57.5338346 C1.84840278,59.6150376 2.59194444,68.3819549 6.14243056,73.0105263 C7.71611111,75.0616541 10.3080556,75.7172932 12.9149306,75.9488722 C12.9567361,75.8586466 10.8246528,70.6676692 10.4065972,68.0932331 C9.48986111,62.4781955 10.0333333,55.1879699 12.0011806,45.9097744 Z" id="Shape" fill="#828278"/>
          <path d="M14.3064583,40.2586466 C15.4620833,38.3759398 20.1771528,29.0315789 21.2879861,27.6511278 C24.590625,23.5548872 27.1079167,22.7308271 27.0750694,22.6075188 C27.0750694,22.5774436 17.7673611,26.2977444 15.3157639,25.4736842 C13.1060417,24.7308271 12.4043056,23.0345865 11.4995139,21.0796992 C11.6488194,19.762406 11.1829861,18.1533835 11.2307639,16.7488722 C11.2785417,15.3443609 11.3890278,13.9308271 10.8604861,12.5383459 C8.45368056,11.6360902 6.49180556,15.5458647 5.51534722,17.206015 C4.12101673,19.5618886 3.03407146,22.0889839 2.28138889,24.724812 C1.53470779,27.4107617 0.988714569,30.1492407 0.647986111,32.9172932 L14.3064583,40.2586466 Z" id="Shape" fill="#64645A"/>
          <path d="M20.1920833,31.5789474 C20.1920833,31.5789474 24.3039583,28.5714286 27.3915972,27.3203008 C30.4792361,26.0691729 32.599375,26.5022556 37.0247917,27.0466165 L37.2039583,20.7909774 C37.2039583,20.7909774 24.7817361,21.0646617 20.4608333,26.4120301 C16.1399306,31.7593985 20.1920833,31.5789474 20.1920833,31.5789474 Z" id="Shape" fill="#C8C8BE"/>
          <path d="M65.5451389,36.4631579 C65.5451389,36.4631579 61.7886111,30.2827068 49.7904167,27.7924812 L47.3179167,20.1503759 C47.3179167,20.1503759 53.3856944,21.7714286 57.1870139,24.1654135 C60.9883333,26.5593985 62.6127778,30.9443609 62.6127778,30.9443609 L65.5451389,36.4631579 Z" id="Shape" fill="#C8C8BE"/>
          <path d="M34.9524306,78.7969925 C34.4388194,76.3909774 31.7483333,58.4511278 31.7483333,58.4511278 C31.7483333,58.4511278 23.9605556,56.6887218 22.8347917,55.9699248 C22.7720833,56.2706767 26.7167361,67.3684211 28.0754167,70.3518797 C29.4340972,73.3353383 30.9570139,76.2827068 32.4351389,79.2481203 C31.900625,79.4616541 31.3959722,79.2240602 30.8525,79.3293233 C30.8943056,79.4857143 30.9241667,79.6030075 30.9540278,79.7172932 C32.0170833,79.8796992 34.1969444,79.9578947 35.1554861,79.443609 C35.0808333,79.1909774 34.9972222,78.9894737 34.9524306,78.7969925 Z" id="Shape" fill="#C8C8BE"/>
          <path d="M58.990625,55.8706767 C58.8084722,55.9819549 53.0034722,56.1714286 50.6713194,56.4721805 C50.6563889,56.8902256 51.1192361,79.3654135 51.5283333,79.675188 C52.8601389,79.5368421 54.3352778,79.5879699 55.6342361,79.3082707 C55.2848611,78.637594 54.4188889,79.1368421 53.8425694,78.9082707 C55.8611806,73.7954887 56.8645139,68.5112782 57.9186111,63.1428571 C57.8917361,62.7368421 59.0503472,56.2676692 58.990625,55.8706767 Z" id="Shape" fill="#C8C8BE"/>
          <path d="M38.5596528,2.94736842 C33.6982639,2.73082707 11.4995139,3.05864662 11.4995139,3.05864662 C11.4995139,3.05864662 11.8817361,3.93383459 14.8051389,4.56240602 C21.1147917,5.87969925 32.68,7.46165414 39.0643056,7.41654135 L38.5596528,2.94736842 Z" id="Shape" fill="#64645A"/>
          <path d="M55.9716667,0.0842105263 C49.6411111,0.276691729 12.3953472,0.144360902 8.55520833,1.25112782 C8.45166644,1.56647519 8.47196893,1.9097871 8.61194444,2.21052632 C8.81798611,2.43007519 9.77055556,3.11278195 10.0572222,3.15488722 C14.2676389,3.67518797 33.59375,3.0075188 34.7881944,4.69774436 C35.5317361,5.75037594 36.9143056,8.30676692 37.2248611,10.712782 C37.3027736,11.4964612 37.2472298,12.2877862 37.060625,13.0526316 C36.9322222,13.5819549 21.5328472,56.4421053 21.5328472,56.4421053 C21.5328472,56.4421053 27.8036806,62.9593985 28.9115278,63.6992481 C32.9847928,66.4726066 37.8195378,67.8885107 42.7342361,67.7473684 C47.6463889,67.6631579 53.5738194,64.4150376 57.1780556,60.9323308 C58.9189583,59.2511278 60.4299306,55.8917293 60.4299306,55.8917293 C60.4299306,55.8917293 48.1629861,19.3112782 47.8464583,13.3052632 C47.6672917,9.90676692 49.0976389,6.86616541 52.2868056,4.80902256 C54.7324306,3.23308271 58.8174306,2.26766917 60.3493056,1.97894737 C62.6486111,1.54586466 66.515625,1.04962406 66.7127083,0.517293233 C63.148671,0.0959159901 59.5577429,-0.0488715347 55.9716667,0.0842105263 Z" id="Shape" fill="#828278"/>
          <path d="M41.6681944,4.70075188 C41.9459028,4.36992481 42.2355556,4.21654135 42.6118056,4.4 C43.0656944,5.13684211 42.9701389,5.70225564 42.2713889,6.30676692 C41.7309028,5.94887218 41.5995139,5.34135338 41.6681944,4.70075188 Z" id="Shape" fill="#000000"/>
          <path d="M12.4192361,1.78345865 C12.6165767,1.61217718 12.8889918,1.55844676 13.1359028,1.64210526 C13.4793056,1.99699248 13.4076389,2.27067669 12.8761111,2.56240602 C12.5438255,2.46456138 12.3439549,2.12379272 12.4192361,1.78345865 Z" id="Shape" fill="#000000"/>
          <path d="M10.1527778,1.82255639 C10.3501183,1.65127492 10.6225335,1.5975445 10.8694444,1.68120301 C11.2158333,2.03609023 11.1411806,2.30977444 10.6126389,2.60150376 C10.2810744,2.50242454 10.0808502,2.16326978 10.1527778,1.82255639 Z" id="Shape" fill="#000000"/>
          <path d="M69.2777778,35.2390977 C65.3719444,30.2736842 62.1499306,26.237594 53.9590278,22.5203008 C54.4696528,23.5849624 53.2483333,24.6496241 54.2307639,27.5067669 C54.7115278,28.9052632 60.2656944,30.5684211 63.3204861,34.3067669 C65.7422222,37.2691729 68.74625,41.8947368 69.3554167,42.8932331 C70.8335417,45.3172932 72.2101389,47.681203 73.15375,50.3669173 C74.6915972,54.7578947 78.1136806,66.2315789 72.6819444,68.7578947 C67.751875,71.0496241 64.0222222,60.6796992 61.8035417,57.6300752 C61.2272222,55.5669173 59.5191667,53.4195489 58.2948611,51.6902256 C56.7436925,49.476408 55.0425368,47.3731561 53.2035417,45.3954887 C51.469937,43.4661784 49.5845571,41.6809342 47.5657639,40.0571429 C45.9711806,38.8180451 43.5136111,36.4932331 41.3188194,37.7323308 C41.7309028,38.6556391 43.5165972,38.1353383 43.7405556,39.3112782 C43.0418056,40.4661654 41.87125,39.0857143 41.0769444,39.9458647 C41.8324306,40.3909774 43.1970833,40.5052632 43.6539583,41.356391 C43.2209722,41.6932331 41.5636806,41.6090226 41.5875694,42.2586466 C43.295625,43.6270677 45.795,43.9428571 47.6523611,45.1909774 C49.3066667,46.3007519 50.5578472,47.756391 51.7672222,49.3293233 C54.3322917,52.6676692 56.0940972,56.7548872 57.8947222,60.5503759 C59.7729861,64.5052632 61.5138889,68.8541353 64.0729861,72.4210526 C65.1822895,74.0235241 66.8346691,75.162599 68.719375,75.6240602 C70.6334722,76.1353383 74.7065278,75.8315789 78.8034722,70.4842105 C81.1923611,67.3593985 79.8874306,56.3488722 76.6445139,47.8165414 C74.3213194,41.7293233 70.0183333,36.1954887 69.2777778,35.2390977 Z" id="Shape" fill="#C8C8BE"/>
          <path d="M29.4639583,23.5157895 C29.2728472,24.4180451 26.1583333,26.5233083 22.7123611,30.2255639 C21.2969444,31.7293233 19.5679861,34.1353383 17.5822222,38.0240602 C15.695,41.7172932 13.5211111,46.9142857 13.1179861,48.6075188 C12.2460417,52.2586466 11.3979861,56.0451128 11.2009028,59.8015038 C11.0784722,62.1142857 10.4752778,67.8345865 13.2523611,69.037594 C16.0951389,70.2736842 17.6061111,64.1774436 18.1704861,62.3879699 C19.1887519,59.0284094 20.4873632,55.7616248 22.0524306,52.6225564 C23.8052778,49.2030075 26.0239583,45.6150376 28.5442361,42.7157895 C29.7011952,41.3496218 31.1032108,40.2150711 32.6770139,39.3714286 C33.7968056,38.8 36.7978472,37.0255639 37.9952778,37.9518797 C38.0609722,38.5533835 36.8545833,38.6345865 36.5022222,38.718797 C36.2007491,38.8822491 35.9769966,39.1606944 35.8811111,39.4917293 L36.0244444,39.8406015 C36.576875,40.1744361 37.7534028,39.687218 38.3775,39.7052632 L38.458125,40.006015 C37.8609028,40.5293233 36.98,40.4781955 36.3499306,41.0586466 C35.8602083,41.7894737 35.8482639,42.0210526 36.3708333,42.5233083 C36.9352083,42.2676692 37.4936111,42.006015 38.0490278,41.7323308 C38.3984028,41.8045113 38.7149306,41.8165414 38.9627778,42.0601504 C39.0254861,43.0766917 36.6575,43.9819549 35.9109722,44.3789474 C34.293422,45.1859974 32.8048049,46.2321545 31.4945139,47.4827068 C29.481875,49.4706767 27.4184722,51.4105263 25.8388194,53.7984962 C24.1665972,56.324812 22.7004167,58.9112782 21.8314583,61.8496241 C20.9625,64.7879699 20.4847222,67.9969925 19.3081944,70.8541353 C18.3108333,73.2601504 16.6625,75.5218045 13.9331944,75.9488722 C10.3498611,76.5082707 8.76423611,72.5052632 8.09833333,69.6691729 C7.28013889,66.1834586 6.97854167,59.0977444 8.30138889,51.7533835 C9.27784722,46.3398496 11.6846528,40.2105263 12.6133333,38.1834586 C15.0350694,32.8962406 18.9289583,28.1022556 20.47875,26.4090226 C22.4376389,24.2586466 29.5445833,23.1308271 29.4639583,23.5157895 Z" id="Shape" fill="#C8C8BE"/>
          <path d="M32.9577143,77.8406015 C32.9577143,77.8406015 30.0641667,78.4090226 29.7984028,78.4932331 C29.7804861,78.562406 29.7595833,78.6285714 29.7327083,78.7218045 C30.1567361,78.9413534 32.4022917,78.7548872 32.8561806,78.8330827 C32.9242053,78.5067127 32.9582321,78.1740847 32.9577143,77.8406015 Z" id="Shape" fill="#C8C8BE"/>
          <path d="M33.8595453,76.7338346 C33.8595453,76.7338346 30.6554181,77.4857143 30.3896531,77.5699248 C30.3687502,77.6360902 30.3179861,77.8977444 30.3179861,77.8977444 C30.3179861,77.8977444 33.3041102,77.6481203 33.755015,77.7263158 C33.8253613,77.4002647 33.8604042,77.0674935 33.8595453,76.7338346 Z" id="Shape" fill="#C8C8BE"/>
          <path d="M52.4361111,79.1488722 C52.4361111,79.1488722 55.3296528,78.5714286 55.5924306,78.4842105 C55.6133333,78.4180451 55.63125,78.3518797 55.658125,78.2586466 C55.2340972,78.0390977 53.1736806,77.9729323 52.7197917,77.8977444 C52.6033009,78.3094333 52.5086073,78.7270644 52.4361111,79.1488722 Z" id="Shape" fill="#C8C8BE"/>
          <path d="M52.2569444,77.7353383 C52.2569444,77.7353383 55.2042361,77.8015038 55.4819444,77.7744361 C55.5147917,77.7142857 55.5476389,77.6541353 55.5924306,77.5669173 C55.2251389,77.2661654 52.9915278,76.9654135 52.5675,76.7909774 C52.4302695,77.093484 52.3261378,77.4101356 52.2569444,77.7353383 Z" id="Shape" fill="#C8C8BE"/>
        </g>
      </g>
    </g>
  </g>
</svg>