<svg version="1.1" width="163" height="183" viewBox="-1 -1 163 183" xmlns="http://www.w3.org/2000/svg" xmlns:xlink="http://www.w3.org/1999/xlink">
  <!-- Exported by Scratch - http://scratch.mit.edu/ -->
  <g id="ID0.2425487800501287" transform="matrix(-1, 0, 0, 1, 196, -2)">
    <g id="dinosaurs">
      <g id="brontosaurus-c">
        <g id="scratch_dinos03c">
          <path id="Shape" fill="#00A08C" stroke="none" stroke-width="1" d="M 151.910 77.940 C 152.015 78.200 152.525 80.590 152.575 80.715 C 151.400 88.090 143.025 87.605 137.150 86.530 C 129.685 85.165 125.220 79.975 122.325 73.270 L 151.910 77.940 Z " transform="matrix(1, 0, 0, 1, 34, 2)"/>
          <path id="Shape" fill="#000000" stroke="none" stroke-width="1" d="M 151.210 77.040 C 151.120 77.655 152.380 80.720 149.380 82.285 C 146.380 83.850 141.160 84.205 138.690 83.285 C 135.775 82.225 130.755 79.350 129.600 76.390 L 138.325 70.345 L 151.210 77.040 Z " transform="matrix(1, 0, 0, 1, 34, 2)"/>
          <path id="Shape" fill="#FFFFFF" stroke="none" stroke-width="1" d="M 151.525 77.605 C 151.525 77.605 151.025 79.685 150.500 80.295 C 149.769 81.120 148.533 81.261 147.635 80.620 C 146.345 79.710 146.550 77.695 146.550 77.695 L 151.525 77.605 Z " transform="matrix(1, 0, 0, 1, 34, 2)"/>
          <path id="Shape" fill="#00A08C" stroke="none" stroke-width="1" d="M 156.615 64.600 C 154.750 62.015 151.565 62.195 149.015 60.735 C 142.015 56.735 137.790 38.405 119.060 39.705 C 112.995 40.125 99.410 43.320 78.525 46.365 C 56.675 49.555 37.080 51.015 37.080 51.015 C 37.080 51.015 27.230 53.340 26.275 61.820 C 25.320 70.300 36 72.450 36 72.450 L 38.565 72.325 L 42.445 70.190 C 47.587 70.805 52.774 70.972 57.945 70.690 C 71.490 69.940 107.330 63.415 110.840 63.765 C 120.305 64.705 121.545 71.425 122.340 73.265 C 125.595 75.155 129.670 79.765 129.670 79.765 C 132.548 77.000 136.563 75.756 140.500 76.410 C 147.070 77.565 150.100 80.105 152.465 79.175 C 157.710 77.105 159.950 69.220 156.615 64.600 Z " transform="matrix(1, 0, 0, 1, 34, 2)"/>
          <path id="Shape" fill="#005A5A" stroke="none" stroke-width="1" d="M 144.610 74.240 C 144.880 72.265 142.860 70.985 142.160 73.700 C 141.425 76.565 144.345 76.210 144.610 74.240 Z " transform="matrix(1, 0, 0, 1, 34, 2)"/>
          <path id="Shape" fill="#005A5A" stroke="none" stroke-width="1" d="M 154.890 74 C 155.160 72.025 153.140 70.745 152.440 73.460 C 151.705 76.310 154.620 75.955 154.890 74 Z " transform="matrix(1, 0, 0, 1, 34, 2)"/>
          <path id="Shape" fill="#000000" stroke="none" stroke-width="1" d="M 160.500 68.715 L 161.285 68.540 C 161.836 67.404 161.768 66.065 161.105 64.990 L 160.535 65.110 C 159.655 65.860 159.630 67.865 160.500 68.715 Z " transform="matrix(1, 0, 0, 1, 34, 2)"/>
          <path id="Shape" fill="#000000" stroke="none" stroke-width="1" d="M 131.360 67.755 L 132.145 67.575 C 132.696 66.440 132.628 65.103 131.965 64.030 L 131.390 64.145 C 130.500 64.895 130.470 66.900 131.360 67.755 Z " transform="matrix(1, 0, 0, 1, 34, 2)"/>
          <path id="Shape" fill="#005A5A" stroke="none" stroke-width="1" d="M 38.560 72.325 L 43.205 72.045 C 43.205 72.045 44.510 55.345 44.510 54.810 C 44.510 54.275 38.560 72.325 38.560 72.325 Z " transform="matrix(1, 0, 0, 1, 34, 2)"/>
          <path id="Shape" fill="#005A5A" stroke="none" stroke-width="1" d="M 137.075 134.300 C 136.905 130.165 135.600 115.515 135.040 111.410 C 134.940 114.640 128.715 122.910 123.205 128.375 C 111.965 133.065 84.880 151.155 47.840 159.875 C 43.265 160.950 36.530 162.140 32.180 159.875 C 29.435 158.430 28.300 156.040 27.490 153.245 C 27.095 151.880 27.025 150.480 25.515 150.300 C 24.105 150.135 22.765 151.510 22.555 152.800 C 21.630 158.545 22.130 165.145 27.645 168.435 C 33.040 171.650 41.085 171.115 47.065 170.590 C 53.270 170.040 59.350 169.195 65.490 168.145 C 67.850 167.745 90.910 163.485 100.100 162.980 C 115.720 162.115 122.395 163.450 130.010 156.915 C 137.625 150.380 137.245 138.425 137.075 134.300 Z " transform="matrix(1, 0, 0, 1, 34, 2)"/>
          <path id="Shape" fill="#008264" stroke="none" stroke-width="1" d="M 54.110 137 C 54.110 137 58.835 172.055 59.705 181.170 C 58.205 181.625 48.145 181.355 46.625 181.220 C 44.575 176.105 37.705 135.390 37.705 135.390 L 54.110 137 Z " transform="matrix(1, 0, 0, 1, 34, 2)"/>
          <path id="Shape" fill="#008264" stroke="none" stroke-width="1" d="M 102.840 137 C 102.840 137 105.475 172.385 106.340 181.500 C 104.840 181.950 95.260 181.350 93.740 181.215 C 91.685 176.095 88 135.600 88 135.600 L 102.840 137 Z " transform="matrix(1, 0, 0, 1, 34, 2)"/>
          <path id="Shape" fill="#00A08C" stroke="none" stroke-width="1" d="M 67 46.105 C 66.950 46.655 66.955 46.705 67 46.105 Z " transform="matrix(1, 0, 0, 1, 34, 2)"/>
          <path id="Shape" fill="#00A08C" stroke="none" stroke-width="1" d="M 124.845 90.525 C 116.710 82.210 106.265 76.820 94.430 76.765 C 91.580 76.765 88.715 77.360 85.895 77.730 C 82.115 78.230 78.260 78.300 74.455 78.580 C 67.655 79.080 63.455 77.580 61.925 70.515 C 61.925 70.515 61.925 70.485 61.925 70.470 C 62.790 57.300 64.330 44.925 64.305 36.245 C 64.275 26.085 62.580 20.635 62.270 19.550 C 60.500 13.310 55.500 7.195 49.970 4.035 C 39.365 -2.030 26.395 -0.105 16.970 7.310 C 7.860 14.445 2.175 26.715 0.625 38 C 0.210 41.045 -0.705 56.200 6.985 64 C 14.850 71.970 31.375 72.555 35.985 72.440 C 36.315 68.780 36.350 65.065 36.750 61.440 C 37.150 57.815 36.295 54.630 37.070 51.005 C 16.070 53.845 22.365 36.750 24.570 31.705 C 26.475 27.375 31.610 22.920 36.320 26.275 C 40.210 29.045 41.945 34.840 42.790 39.275 C 43.460 42.775 42.385 69.355 41.385 73.955 C 39.145 92.820 36 118.885 35.945 121.685 C 35.790 129.555 37.145 141.080 41.990 146.600 C 46.835 152.120 52.225 152.320 55.185 153.330 C 58.655 154.515 92.475 155.205 98.405 154.510 C 98.545 154.390 119.930 155.755 127.470 145.790 C 135.010 135.825 136.030 124.185 136.025 120.095 C 136.035 109.190 132.625 98.500 124.845 90.525 Z " transform="matrix(1, 0, 0, 1, 34, 2)"/>
          <path id="Shape" fill="#00A08C" stroke="none" stroke-width="1" d="M 77.915 137 C 77.915 137 80.550 172.385 81.415 181.500 C 79.915 181.950 70.335 181.350 68.815 181.215 C 66.765 176.100 63.080 135.605 63.080 135.605 L 77.915 137 Z " transform="matrix(1, 0, 0, 1, 34, 2)"/>
          <path id="Shape" fill="#00A08C" stroke="none" stroke-width="1" d="M 125.525 137 C 125.525 137 128.160 172.385 129.025 181.500 C 127.525 181.950 117.945 181.350 116.425 181.215 C 114.370 176.100 110.690 135.605 110.690 135.605 L 125.525 137 Z " transform="matrix(1, 0, 0, 1, 34, 2)"/>
        </g>
      </g>
    </g>
  </g>
</svg>