<svg width="201px" height="201px" viewBox="0 0 201 201" version="1.1" xml:space="preserve" xmlns="http://www.w3.org/2000/svg" xmlns:xlink="http://www.w3.org/1999/xlink">
  <defs/>
  <g>
    <title>llama-a</title>
    <desc>Created with Sketch.</desc>
    <g id="mountain" stroke="none" stroke-width="1" fill="none" fill-rule="evenodd">
      <g id="llama-a">
        <g id="Group-217" transform="translate(95.000000, 100.500000) scale(-1, 1) translate(-95.000000, -100.500000) translate(23.000000, 5.000000)">
          <path d="M93.6092093,189.787534 C95.1824186,189.068059 100.852744,189.935069 102.499535,180.846418 C104.152186,171.726569 110.322605,159.36096 103.756279,147.608237 C97.6060465,136.599686 94.4778605,132.280237 94.6406512,125.510544 C94.8034419,118.7402 109.779535,103.304312 114.446419,115.544484 C119.113302,127.785306 107.283628,133.959662 115.259721,151.561774 L105.980651,189.781685" id="Fill-131" fill="#BB9696"/>
          <path d="M105.980651,189.781815 L106.726233,186.712185 C106.726233,186.712185 106.240465,184.532313 104.95507,184.287938 C103.669023,184.042914 102.714419,185.598201 102.714419,185.598201 C102.714419,185.598201 102.668186,183.276644 101.775442,184.46147 C100.446419,186.225386 99.3570233,188.854362 94.6126512,189.474397 C90.2993488,190.038538 105.980651,189.781815 105.980651,189.781815" id="Fill-133" fill="#5F5579"/>
          <path d="M29.4149767,189.787534 C29.4149767,189.787534 41.212093,188.165953 41.6933023,180.43631 C41.9739535,175.93228 42.8178605,173.849248 40.1506977,161.296458 C38.8444651,155.15005 34.0812093,134.338572 34.0812093,134.338572 L41.7388837,130.932928 L45.3202791,135.644936 C45.3202791,135.644936 47.0028837,185.283504 46.7586977,189.34558 C46.7046512,189.700443 29.4149767,189.787534 29.4149767,189.787534" id="Fill-135" fill="#BB9696"/>
          <path d="M116.345209,122.098075 C116.345209,122.098075 108.530605,140.837569 115.259721,151.562099 L105.980651,189.78201 L93.0661395,189.78201 C93.0661395,189.78201 100.120186,189.3979 101.531256,184.453216 C102.942326,179.509182 106.36093,165.213274 106.36093,165.213274 C106.36093,165.213274 108.314419,156.706962 103.756279,147.607912 C99.1981395,138.508862 94.748093,132.984439 93.4457674,124.318893" id="Stroke-137" stroke="#26214B" stroke-width="0.5"/>
          <path d="M106.725907,186.71238 C106.725907,186.71238 106.710279,184.646896 105.082372,184.306331 C103.754,184.02816 102.778558,185.412516 102.778558,185.412516 C102.778558,185.412516 102.962837,184.112652 102.290186,184.112652 C101.618186,184.112652 101.314744,185.065452 101.314744,185.065452" id="Stroke-139" stroke="#26214B" stroke-width="0.5"/>
          <path d="M102.778884,185.412516 C102.778884,185.412516 101.897209,189.082033 93.9204651,189.78201" id="Stroke-141" stroke="#26214B" stroke-width="0.5"/>
          <path d="M46.7248372,189.528536 L46.7476279,184.6066 C46.7476279,184.6066 46.06,182.541766 44.1065116,182.541766 C42.1530233,182.541766 41.664,184.6066 41.664,184.6066 C41.664,184.6066 42.4382326,182.541766 41.7330233,182.541766 C41.2876279,182.541766 40.6065116,184.979011 38.1021395,186.597342 C35.7924651,188.089586 30.187907,189.769661 30.187907,189.769661 L42.3574884,189.594179" id="Fill-143" fill="#5F5579"/>
          <path d="M45.2597209,136.938301 C45.2597209,136.938301 47.1591628,181.458654 46.7248372,189.528861 L29.4149767,189.787534 C29.4149767,189.787534 40.1591628,188.174403 41.3527442,182.271069 C42.5463256,176.367735 42.2747907,173.822601 41.0812093,166.239842 C39.8876279,158.657084 33.7556279,133.30973 33.7556279,133.30973" id="Stroke-145" stroke="#26214B" stroke-width="0.5"/>
          <path d="M46.7826605,184.36879 C46.7826605,184.36879 45.9517767,182.541831 44.1070326,182.541831 C42.2622884,182.541831 41.8683349,184.106867 41.8683349,184.106867 C41.8683349,184.106867 42.1893581,182.541831 41.732893,182.541831 C41.2764279,182.541831 40.9625674,183.454985 40.9625674,183.454985" id="Stroke-147" stroke="#26214B" stroke-width="0.5"/>
          <path d="M30.5958605,189.769726 C30.5958605,189.769726 40.5254419,188.39382 41.8687907,184.106867" id="Stroke-149" stroke="#26214B" stroke-width="0.5"/>
          <path d="M111.336856,190.01566 C111.336856,190.01566 119.273228,189.899972 120.127553,183.841305 C120.88746,178.452067 127.352856,160.236419 123.140484,152.001778 C119.340949,144.574354 116.880205,143.65535 110.873879,128.289654 C107.9456,120.797886 104.553693,109.396776 106.290344,100.460209 C108.026995,91.5236414 124.298251,74.6871488 130.5696,82.0222832 C136.840949,89.3574175 140.893786,98.0041149 136.859181,112.149888 C132.825228,126.295012 126.368298,139.835048 133.476391,150.776006 L124.278716,190.01566 L111.336856,190.01566" id="Fill-151" fill="#D7C3BC"/>
          <path d="M124.077767,189.934744 L124.973116,186.14369 C124.973116,186.14369 124.484744,184.453216 122.946047,184.461665 C121.324,184.469464 121.101302,185.870068 121.101302,185.870068 C121.101302,185.870068 121.654791,184.470114 120.352465,184.470114 C119.05014,184.470114 119.66614,186.072197 117.603907,187.596938 C115.541674,189.122329 113.550419,189.538285 112.194047,189.826205 C110.837674,190.114775 124.077767,189.934744 124.077767,189.934744" id="Fill-153" fill="#5F5579"/>
          <path d="M49.6010233,138.857291 C49.6010233,138.857291 56.9728372,170.739712 57.4605581,174.097912 C57.9482791,177.455461 57.9443721,186.712445 48.7955349,189.713182 C48.7955349,189.713182 60.0196279,190.042698 62.6242791,189.934809 L60.4266047,140.49252 L49.6010233,138.857291 Z" id="Fill-155" fill="#D7C3BC"/>
          <path d="M62.6242791,189.934744 L62.3911628,185.412516 C62.3911628,185.412516 61.3382326,183.291137 59.4413953,183.513414 C57.5445581,183.735691 57.5510698,184.847725 57.5510698,184.847725 C57.5510698,184.847725 58.4327442,183.45492 56.6746047,183.545911 C55.8613023,183.588156 53.9149767,188.14743 49.3620465,189.381002 C45.0129302,190.559329 62.6242791,189.934744 62.6242791,189.934744" id="Fill-157" fill="#5F5579"/>
          <path d="M143.029535,78.2276543 C141.442,79.8121889 131.593814,87.5301332 131.593814,87.5301332 L108.395488,120.310761 C108.395488,120.310761 86.3757674,144.428444 66.6129767,142.501395 C45.1246047,140.405364 19.9193953,137.561261 12.9050698,111.881791 C8.93102326,100.97528 14.5062791,83.183387 15.806,68.9479229 C16.0241395,66.5561726 21.1806977,32.8136448 21.1806977,32.8136448 L13.4468372,19.5225322 C13.4468372,19.5225322 17.8656279,16.8090654 22.5032093,15.9576543 C22.5032093,15.9576543 12.0240465,12.0158157 13.4468372,1.9418673 L27.8544651,15.2908239 L30.5268372,15.0795959 C30.5268372,15.0795959 21.7914884,7.10037883 24.206,0.0577139756 C24.206,0.0577139756 39.7525116,18.1895213 40.7833023,19.591425 C41.8147442,20.9926787 43.8496279,25.8671699 41.8551163,38.4596054 C40.3515814,55.6802079 36.7747442,74.6036326 44.7449767,74.896752 C51.5411628,75.5876299 95.3318605,74.9682445 118.122558,75.059235 C140.913256,75.4654426 143.029535,78.2276543 143.029535,78.2276543" id="Fill-159" fill="#D7C3BC"/>
          <path d="M24.9814698,15.6224843 C15.9817488,11.4616186 13.4064,2.26767829 13.4064,2.26767829 C13.4064,2.26767829 10.8030512,11.284837 22.5031442,15.9578493 L24.9814698,15.6224843 Z" id="Fill-161" fill="#BB968C"/>
          <path d="M33.8643721,18.1660588 L36.0353488,18.4331809 C36.0353488,18.4331809 24.5306047,4.86324735 24.0969302,0.409912212 C24.0969302,0.409912212 21.003907,8.52821479 33.8643721,18.1660588" id="Fill-163" fill="#BB968C"/>
          <path d="M1.14852093,34.612397 C1.14852093,34.612397 -0.293804651,29.6995598 0.977916279,29.4980809 C4.46945116,28.9449886 14.6419163,25.022648 12.8720558,20.1527064 C12.7554977,19.8329398 14.860707,18.7306548 14.860707,18.7306548 C14.860707,18.7306548 16.1871256,18.1379167 16.4853581,18.6253658 C16.7835907,19.1128149 16.7393116,19.2239533 16.6813581,19.6990537 C16.6813581,19.6990537 45.7954977,13.6403862 30.3108465,34.3842708 C29.8302884,35.0283536 28.9075907,36.1189398 28.6516837,36.7032288 C28.2688,37.5767376 28.468707,35.6776358 28.3261023,35.6776358 C28.1483349,35.6776358 27.2634047,36.7948692 27.0745674,36.8046182 C26.6981953,36.8228163 26.5158698,36.2047308 25.7820093,36.1676847 C23.140893,36.0344486 19.4208,35.2564798 13.8155907,35.9616562 C3.83326512,37.2166752 3.34489302,36.8988583 3.34489302,36.8988583 C3.34489302,36.8988583 1.54182326,36.0851433 1.14852093,34.612397" id="Fill-165" fill="#F0E1DB"/>
          <path d="M13.999414,19.1853474 C17.3639721,17.1816065 16.6626698,19.8424288 16.6626698,19.8424288 C16.6626698,19.8424288 28.9807163,16.4842293 33.6476,21.3587205 C38.3144837,26.2332117 29.3603442,35.2783175 29.3603442,35.2783175 L28.4382977,37.2872578 L28.3295535,35.819711 C28.3295535,35.819711 26.0504837,37.8780461 26.6476,37.1195753 C27.2447163,36.3611045 26.1592279,36.2532157 25.8336465,36.1986214 C21.7098326,35.6032836 11.3993209,35.7657666 6.24406512,36.6860706 C4.14992558,37.0597815 2.01150698,37.6609688 0.978111628,34.0863419 C-0.0552837209,30.5117151 0.978111628,29.4978209 0.978111628,29.4978209 C16.1742977,25.7997069 12.7908558,19.9808643 12.7908558,19.9808643 C20.0942977,14.743711 30.6008093,15.3396988 30.6008093,15.3396988" id="Stroke-167" stroke="#26214B" stroke-width="0.5"/>
          <path d="M35.7561953,18.1660588 C35.7561953,18.1660588 35.5054977,17.9366327 35.0874512,17.5154767 C34.6739628,17.0897711 34.0716372,16.4905336 33.3944279,15.730763 C32.7185209,14.9709923 31.9273581,14.0831849 31.1277302,13.0926883 C30.7370326,12.5902908 30.3105209,12.0885431 29.9178698,11.5464997 C29.5193581,11.0096558 29.1097767,10.4669624 28.722986,9.90737083 C27.9422419,8.79468697 27.2057767,7.64755672 26.5774047,6.5355228 C26.2433581,5.99217951 25.9835442,5.4280384 25.7172186,4.90679281 C25.4411256,4.39139661 25.2464279,3.86755129 25.0367535,3.40219986 C24.8160093,2.94139796 24.694893,2.48254586 24.5633581,2.08933691 C24.4995442,1.89240746 24.4402884,1.70782673 24.3849395,1.53689457 C24.3471721,1.36141289 24.3113581,1.19957978 24.2788,1.05399498 C24.162893,0.471655767 24.0971256,0.138890502 24.0971256,0.138890502 C24.0971256,0.138890502 24.2078233,0.458657123 24.4012186,1.01889864 C24.4474512,1.15798412 24.4995442,1.31201805 24.5561953,1.48035047 C24.6284744,1.64283351 24.706614,1.8183152 24.790614,2.00614559 C24.9644744,2.37790678 25.1298698,2.80751194 25.3714512,3.25206554 C25.6084744,3.69661913 25.8311721,4.19381723 26.1378698,4.68581588 C26.4341488,5.18236404 26.7284744,5.71335862 27.070986,6.24370326 C27.4024279,6.77989729 27.7521023,7.32844003 28.122614,7.8776327 C28.482707,8.43332469 28.8636372,8.98836676 29.2569395,9.53560963 C30.0174977,10.6469936 30.8288465,11.7245811 31.578986,12.7423749 C32.3414977,13.7517195 33.0441023,14.7025703 33.6744279,15.4967874 C34.9240093,17.0982202 35.7561953,18.1660588 35.7561953,18.1660588" id="Fill-169" fill="#26214B"/>
          <path d="M33.7206605,17.9036161 C33.7206605,17.9036161 21.6025209,9.59813311 24.1160093,0.139020488 C24.1160093,0.139020488 38.7600093,17.358973 40.1183349,18.9214099 C41.6251256,20.654129 43.4151721,24.9332824 42.3974047,34.2760571 C41.3802884,43.6188319 38.9117302,64.90411 40.0512651,69.4536351 C41.1908,74.0031602 42.1134977,75.1405415 50.3337767,75.1405415 L118.664847,75.1405415 C118.664847,75.1405415 139.70587,75.3030246 142.92066,78.3089608 L133.76466,85.7019391" id="Stroke-171" stroke="#26214B" stroke-width="0.5"/>
          <path d="M27.7457209,15.3721304 L13.3393953,2.02317381 C13.3393953,2.02317381 10.937907,10.8784995 22.4400465,16.0389608" id="Stroke-173" stroke="#26214B" stroke-width="0.5"/>
          <path d="M24.9814698,15.6224843 C24.9814698,15.6224843 15.7395163,11.0814083 13.3380279,2.0233038" id="Stroke-175" stroke="#26214B" stroke-width="0.5"/>
          <path d="M19.5661395,23.7958361 L26.7699535,23.7958361 C26.7699535,23.7958361 26.3186977,27.2690735 23.1677209,27.4107588 C19.5661395,27.5732418 19.5661395,23.7958361 19.5661395,23.7958361" id="Fill-177" fill="#26214B"/>
          <path d="M1.02642791,33.4870395 C1.02642791,33.4870395 3.68317209,33.7431128 7.22419535,29.4373122 L1.17098605,29.4373122 C1.17098605,29.4373122 -0.194502326,31.6587803 1.02642791,33.4870395" id="Fill-179" fill="#26214B"/>
          <path d="M131.487284,78.0734254 C131.487284,78.0734254 132.024493,78.0792748 132.829981,78.1475176 C133.63547,78.211211 134.702726,78.3756438 135.760214,78.6291174 C136.287656,78.757154 136.818353,78.8949396 137.300214,79.0775706 C137.776214,79.2751499 138.194912,79.5227741 138.534819,79.7586995 C138.864307,80.0167225 139.129981,80.2337999 139.2804,80.4313792 C139.44254,80.6114104 139.523284,80.721249 139.523284,80.721249 L139.480958,80.7706438 C139.480958,80.7706438 139.350074,80.7173494 139.141051,80.6127103 C139.031656,80.5665651 138.9164,80.491173 138.764028,80.4326791 C138.615563,80.3676859 138.450167,80.2955434 138.276958,80.2104023 C137.915563,80.0622178 137.494912,79.8886859 137.043005,79.7041052 C136.593702,79.514325 136.113795,79.2972476 135.614353,79.1282653 C134.61547,78.7851011 133.577516,78.5452761 132.796121,78.3723942 C132.012772,78.2086113 131.482074,78.1384186 131.482074,78.1384186 L131.487284,78.0734254 Z" id="Fill-181" fill="#26214B"/>
          <path d="M129.29853,79.5319381 C129.29853,79.5319381 129.810995,79.6404768 130.568949,79.8530046 C131.329507,80.059683 132.323181,80.4054469 133.295367,80.8227034 C133.781135,81.0313316 134.268205,81.2490589 134.703833,81.4953832 C135.130344,81.7599056 135.498251,82.0575745 135.789972,82.3363954 C136.069972,82.6308147 136.295926,82.8784388 136.413786,83.0903167 C136.544019,83.2872461 136.60653,83.4055338 136.60653,83.4055338 L136.557693,83.4477794 C136.557693,83.4477794 136.43853,83.3795365 136.250344,83.2508499 C136.151367,83.1904062 136.047181,83.1052651 135.907833,83.0266233 C135.776949,82.943432 135.629135,82.8485419 135.468298,82.7452027 C135.300298,82.6503126 135.123181,82.5437237 134.940856,82.426086 C134.748112,82.3214469 134.55146,82.2018594 134.351553,82.0738228 C133.945879,81.8235989 133.520019,81.535029 133.066158,81.2900046 C132.162995,80.7921566 131.210995,80.3768499 130.494065,80.0674822 C129.773879,79.7652638 129.280949,79.5949815 129.280949,79.5949815 L129.29853,79.5319381 Z" id="Fill-183" fill="#26214B"/>
          <path d="M20.5167721,35.8627365 L11.6707256,96.7509807 C11.6707256,96.7509807 6.5428186,129.166347 41.1358419,138.346639 C75.7288651,147.526931 85.496307,141.433817 108.287005,120.798471" id="Stroke-185" stroke="#26214B" stroke-width="0.5"/>
          <path d="M129.042884,80.7461414 C129.042884,80.7461414 138.240558,87.7329121 138.240558,101.381487 C138.240558,115.030063 129.775442,124.860287 130.182419,141.189832 C130.182419,141.189832 130.345209,147.364188 133.275442,150.69509 L124.077767,189.934744 L111.135907,189.934744 C111.135907,189.934744 118.461488,189.853502 119.926605,183.760388 C121.391721,177.667274 123.426605,167.918292 123.426605,167.918292 C123.426605,167.918292 126.194047,156.706962 122.042884,150.207641 C117.362977,142.881605 108.368465,128.434913 105.763814,108.855707" id="Stroke-187" stroke="#26214B" stroke-width="0.5"/>
          <path d="M124.843991,186.944341 C124.884363,186.433494 124.814037,185.907699 124.56334,185.494992 C124.319153,185.077736 123.890688,184.828812 123.422502,184.735222 C123.307247,184.706625 123.186781,184.689726 123.066316,184.678028 C123.010316,184.675428 122.934781,184.662429 122.89506,184.666979 L122.701665,184.668928 C122.5812,184.683877 122.489386,184.686477 122.377386,184.721573 C122.268642,184.74562 122.168363,184.791116 122.07134,184.84181 C121.879247,184.94645 121.720363,185.105033 121.590781,185.290914 C121.463805,185.472895 121.362874,185.702971 121.31534,185.908349 L120.892735,185.80566 C120.966967,185.566485 121.014502,185.281815 120.979991,185.047189 C120.951991,184.804114 120.827619,184.65073 120.577572,184.616284 C120.518967,184.606535 120.46427,184.605885 120.382223,184.606535 C120.304084,184.602635 120.258502,184.619534 120.192084,184.623433 C120.068363,184.65333 119.945293,184.696226 119.836549,184.771618 C119.617107,184.923052 119.472549,185.184325 119.398967,185.463796 C119.396363,185.172626 119.497944,184.867158 119.721293,184.639032 C119.833944,184.526593 119.973944,184.439502 120.127619,184.385558 C120.204456,184.36736 120.298223,184.336813 120.365293,184.332264 C120.428456,184.323165 120.517665,184.311466 120.603619,184.314066 C120.769665,184.318615 120.959805,184.372559 121.105014,184.504496 C121.24827,184.635132 121.32706,184.812564 121.36027,184.977646 C121.424084,185.314961 121.385014,185.617829 121.309479,185.933696 L120.886874,185.831007 C120.950037,185.533988 121.05813,185.284414 121.217665,185.03939 C121.373293,184.798265 121.594688,184.587687 121.857758,184.449901 C121.989293,184.383608 122.12734,184.326414 122.270595,184.295867 C122.405386,184.252972 122.575991,184.249722 122.71013,184.244523 L122.902874,184.253622 C122.992084,184.255572 123.043526,184.26987 123.116456,184.277669 C123.251247,184.297167 123.386037,184.322515 123.518874,184.361511 C124.046316,184.503846 124.56334,184.863258 124.782781,185.382554 C124.999619,185.892101 124.993107,186.451042 124.843991,186.944341" id="Fill-189" fill="#26214B"/>
          <path d="M111.678326,189.934744 C111.678326,189.934744 119.926605,189.934744 121.101302,185.870068" id="Stroke-191" stroke="#26214B" stroke-width="0.5"/>
          <path d="M50.0823628,140.492325 L57.4216186,173.848143 C57.4216186,173.848143 59.9383628,187.497368 47.2406884,189.934614 L62.6244093,189.934614 L60.515293,142.17045" id="Stroke-193" stroke="#26214B" stroke-width="0.5"/>
          <path d="M62.4373302,185.699071 C62.4373302,185.699071 62.3468186,183.649835 59.7773302,183.522448 C57.880493,183.428208 57.7411442,184.112587 57.7411442,184.112587 C57.7411442,184.112587 58.1507256,183.521798 56.8484,183.521798 C56.3606791,183.521798 55.860586,184.111937 55.860586,184.111937" id="Stroke-195" stroke="#26214B" stroke-width="0.5"/>
          <path d="M47.9304651,189.781815 C47.9304651,189.781815 56.8175349,189.469197 57.7408837,184.107257" id="Stroke-197" stroke="#26214B" stroke-width="0.5"/>
          <path d="M66.133786,142.726727 C66.133786,142.726727 66.0810419,142.716978 65.981414,142.699429 C65.8759256,142.680581 65.7378791,142.644185 65.5568558,142.59609 C65.3803907,142.542796 65.165507,142.479102 64.9271814,142.385512 C64.6849488,142.302971 64.425786,142.177534 64.1399256,142.050147 C63.5786233,141.774576 62.9476465,141.408014 62.3199256,140.950462 C62.005414,140.722336 61.6967628,140.466263 61.3842047,140.20629 C61.0911814,139.924219 60.769507,139.663596 60.493414,139.356828 C60.2153674,139.05201 59.9158326,138.76799 59.669693,138.445623 C59.4202977,138.125857 59.1468093,137.835337 58.9345302,137.512971 C58.7131349,137.198404 58.4989023,136.893585 58.2963907,136.605666 C58.113414,136.304747 57.9395535,136.020727 57.7793674,135.758154 C57.4440186,135.242108 57.2428093,134.767657 57.0650419,134.45764 C56.8989953,134.140473 56.8045767,133.959142 56.8045767,133.959142 C56.8045767,133.959142 56.905507,134.137223 57.0832744,134.448541 C57.2708093,134.752709 57.4876465,135.21806 57.8399256,135.720458 C58.0079256,135.976531 58.1909023,136.253402 58.3842977,136.545872 C58.5959256,136.825343 58.8186233,137.120412 59.0491349,137.42523 C59.2698791,137.737847 59.5531349,138.016668 59.809693,138.324086 C60.0636465,138.634104 60.369693,138.905126 60.6536,139.194995 C60.9362047,139.488115 61.2624372,139.733139 61.5587163,139.999611 C61.8732279,140.243986 62.1851349,140.483811 62.4983442,140.696339 C63.1273674,141.121394 63.7511814,141.454809 64.301414,141.701784 C64.5801116,141.814222 64.833414,141.92666 65.0658791,141.996203 C65.2963907,142.077444 65.5008558,142.130739 65.6682047,142.174934 C65.8355535,142.21328 65.9716465,142.243827 66.0556465,142.255526 C66.145507,142.268524 66.193693,142.275674 66.193693,142.275674 L66.133786,142.726727 Z" id="Fill-199" fill="#26214B"/>
          <path d="M73.6349209,142.244997 C73.6349209,142.244997 73.5808744,142.244347 73.4799442,142.243047 C73.3725023,142.241747 73.2305488,142.228099 73.0449674,142.21055 C72.8613395,142.186503 72.639293,142.158556 72.3885953,142.105261 C72.1359442,142.063666 71.8598512,141.981774 71.5577116,141.903133 C70.9579907,141.722451 70.2755721,141.463778 69.5807814,141.114765 C69.2343628,140.941233 68.8866419,140.739104 68.5363163,140.533076 C68.2009674,140.30235 67.8415256,140.098271 67.5178977,139.840248 C67.1942698,139.585474 66.8524093,139.353449 66.5567814,139.075928 C66.2592,138.801656 65.9407814,138.559232 65.679014,138.275861 C65.4087814,138.00094 65.1483163,137.735768 64.9008744,137.484244 C64.6703628,137.217772 64.4528744,136.965598 64.2516651,136.732922 C63.8368744,136.27862 63.5601302,135.843815 63.3348279,135.566294 C63.119293,135.280324 62.9955721,135.117191 62.9955721,135.117191 C62.9955721,135.117191 63.1245023,135.276424 63.3498047,135.554595 C63.5855256,135.824317 63.8759442,136.247423 64.3057116,136.686127 C64.5134326,136.910354 64.739386,137.154078 64.9777116,137.411451 C65.2323163,137.653226 65.5005953,137.90735 65.7779907,138.170572 C66.0469209,138.442894 66.3712,138.67167 66.675293,138.932943 C66.9761302,139.198115 67.3232,139.414542 67.6500837,139.655017 C67.9769674,139.897442 68.3383628,140.085922 68.675014,140.30105 C69.0253395,140.49083 69.3717581,140.676711 69.7155721,140.835294 C70.4058047,141.151811 71.0758512,141.378637 71.659293,141.532671 C71.9523163,141.598314 72.2205953,141.667857 72.4621767,141.699054 C72.7024558,141.741949 72.9127814,141.760147 73.0853395,141.777046 C73.2565953,141.787445 73.3959442,141.795894 73.4805953,141.793294 C73.571107,141.791344 73.6199442,141.790694 73.6199442,141.790694 L73.6349209,142.244997 Z" id="Fill-201" fill="#26214B"/>
          <path d="M79.6206047,140.855052 C79.6206047,140.855052 78.8880465,140.886249 77.826,140.759512 C77.2933488,140.702318 76.6766977,140.597029 76.0242326,140.454044 C75.3743721,140.30001 74.6828372,140.121928 74.0166977,139.871055 C73.678093,139.761216 73.3525116,139.618231 73.0295349,139.484345 C72.7033023,139.358908 72.4011628,139.189926 72.1009767,139.048891 C71.7975349,138.911105 71.5273023,138.734323 71.2609767,138.587439 C70.9933488,138.442504 70.7543721,138.281971 70.5355814,138.131836 C70.0869302,137.845866 69.741814,137.570295 69.5008837,137.376615 C69.258,137.185535 69.1193023,137.076346 69.1193023,137.076346 C69.1193023,137.076346 69.2625581,137.179686 69.5132558,137.361017 C69.7606977,137.544947 70.1162326,137.80557 70.5733488,138.071393 C70.7973488,138.212428 71.0408837,138.361912 71.3130698,138.495798 C71.5833023,138.630984 71.8574419,138.795417 72.1634884,138.918904 C72.4675814,139.047591 72.7710233,139.202274 73.0992093,139.312763 C73.4241395,139.43235 73.7503721,139.561037 74.0889767,139.655277 C74.7551163,139.875604 75.4427442,140.023789 76.086093,140.149876 C76.7320465,140.263614 77.3395814,140.342255 77.8624651,140.377352 C78.9114884,140.458593 79.5952093,140.400749 79.5952093,140.400749 L79.6206047,140.855052 Z" id="Fill-203" fill="#26214B"/>
          <path d="M43.9910605,139.299049 C43.9910605,139.299049 43.9389674,139.286701 43.8406419,139.264603 C43.7351535,139.240555 43.5990605,139.19766 43.421293,139.141116 C43.2467814,139.080022 43.0358047,139.00528 42.8026884,138.901291 C42.5643628,138.807051 42.3117116,138.669265 42.0323628,138.52823 C41.4840837,138.226661 40.8719907,137.830203 40.2657581,137.343404 C39.9636186,137.100329 39.6666884,136.829957 39.3671535,136.555036 C39.0884558,136.259317 38.7791535,135.983745 38.5180372,135.664629 C38.2549674,135.346812 37.9697581,135.048493 37.7392465,134.714428 C37.5054791,134.384262 37.2456651,134.080094 37.0496651,133.747979 C36.8432465,133.423013 36.6446419,133.109096 36.4558047,132.811427 C36.2871535,132.502059 36.1269674,132.209589 35.9798047,131.939868 C35.6698512,131.408873 35.4907814,130.925973 35.3286419,130.606857 C35.1782233,130.281891 35.0922698,130.09666 35.0922698,130.09666 C35.0922698,130.09666 35.185386,130.279291 35.3468744,130.598408 C35.5194326,130.911675 35.7141302,131.386775 36.0423163,131.906071 C36.1979442,132.169294 36.3672465,132.454614 36.5456651,132.756182 C36.7436186,133.045402 36.9519907,133.35087 37.1681767,133.666087 C37.3739442,133.989104 37.6428744,134.280923 37.885107,134.60004 C38.1234326,134.922406 38.4164558,135.207077 38.6860372,135.510595 C38.9543163,135.816713 39.2681767,136.076686 39.5514326,136.357456 C39.8542233,136.616129 40.1537581,136.870903 40.4572,137.097729 C41.0647349,137.552032 41.6716186,137.915344 42.2094791,138.188315 C42.4829674,138.313752 42.7297581,138.437889 42.9596186,138.519131 C43.1862233,138.610771 43.3874326,138.673815 43.5528279,138.726459 C43.7182233,138.771954 43.8523628,138.80965 43.9357116,138.825249 C44.0249209,138.842147 44.0724558,138.851896 44.0724558,138.851896 L43.9910605,139.299049 Z" id="Fill-205" fill="#26214B"/>
          <path d="M35.881414,136.892286 C35.881414,136.892286 35.8143442,136.870188 35.6893209,136.828592 C35.5571349,136.784397 35.3858791,136.711604 35.1625302,136.611515 C34.7203907,136.415235 34.1239256,136.071421 33.4551814,135.597621 C33.1237395,135.357146 32.773414,135.086774 32.4263442,134.772207 C32.0610419,134.478438 31.7348093,134.107326 31.3669023,133.755713 C31.0387163,133.368353 30.6701581,132.991393 30.353693,132.562438 C30.0346233,132.135432 29.693414,131.714926 29.4121116,131.252174 C29.1151814,130.801121 28.8182512,130.350069 28.5727628,129.878218 C28.3162047,129.414166 28.0505302,128.963763 27.8480186,128.500362 C27.637693,128.041509 27.413693,127.606705 27.2385302,127.17905 C27.0685767,126.749444 26.9083907,126.342587 26.7599256,125.967576 C26.4519256,125.221454 26.2865302,124.566972 26.1276465,124.125018 C25.9830884,123.677865 25.8997395,123.422442 25.8997395,123.422442 C25.8997395,123.422442 25.9896,123.675915 26.1465302,124.119169 C26.3171349,124.557223 26.4988093,125.205206 26.8263442,125.941579 C26.9839256,126.31139 27.1545302,126.712398 27.3349023,127.136804 C27.5211349,127.55796 27.7555535,127.984965 27.9769488,128.435368 C28.1898791,128.890971 28.4659721,129.330975 28.7329488,129.785277 C28.9888558,130.246729 29.2955535,130.685434 29.6002977,131.124138 C29.8907163,131.573891 30.2390884,131.980098 30.5633674,132.392805 C30.8869953,132.806812 31.2588093,133.168174 31.5915535,133.539936 C31.961414,133.874651 32.2896,134.230164 32.6542512,134.507035 C33.0006698,134.804704 33.3483907,135.058827 33.6759256,135.283054 C34.3355535,135.725007 34.917693,136.039575 35.3402977,136.213756 C35.5486698,136.300847 35.7205767,136.36844 35.8286698,136.400937 C35.9432744,136.435383 36.0044837,136.454231 36.0044837,136.454231 L35.881414,136.892286 Z" id="Fill-207" fill="#26214B"/>
          <path d="M24.2705302,130.370086 C24.2705302,130.370086 24.2028093,130.320692 24.0764837,130.227751 C23.9449488,130.130911 23.7756465,129.984677 23.5581581,129.792297 C23.3458791,129.597317 23.0932279,129.355542 22.8242977,129.059823 C22.5482047,128.770603 22.2649488,128.42094 21.961507,128.03683 C21.6678326,127.644271 21.3526698,127.217915 21.0609488,126.739565 C20.7438326,126.277464 20.4833674,125.746469 20.1825302,125.216774 C19.9194605,124.667582 19.6381581,124.103441 19.3991814,123.512002 C19.177786,122.912765 18.909507,122.320677 18.7356465,121.695442 C18.5448558,121.076057 18.3351814,120.463171 18.2042977,119.838586 C18.0623442,119.217901 17.8884837,118.614764 17.8031814,118.013576 C17.7048558,117.415639 17.5922047,116.840449 17.5166698,116.290606 C17.457414,115.738814 17.4007628,115.217568 17.3493209,114.735968 C17.2874605,114.255669 17.2601116,113.812415 17.2490419,113.419206 C17.2301581,113.026647 17.2151814,112.684133 17.2021581,112.402062 C17.1754605,111.838571 17.1611349,111.516204 17.1611349,111.516204 C17.1611349,111.516204 17.1826233,111.837921 17.221693,112.401412 C17.2405767,112.682833 17.2640186,113.024697 17.2907163,113.416606 C17.3109023,113.808515 17.3480186,114.249819 17.4196465,114.728819 C17.4821581,115.207169 17.5498791,115.726465 17.6208558,116.275658 C17.7087628,116.821601 17.833786,117.392241 17.9451349,117.984979 C18.0428093,118.581617 18.2290419,119.178255 18.3833674,119.791791 C18.5272744,120.408576 18.7493209,121.013013 18.9511814,121.62265 C19.1367628,122.238135 19.4161116,122.819175 19.6472744,123.406063 C19.8966698,123.985803 20.1870884,124.536295 20.4579721,125.07119 C20.7653209,125.586586 21.0329488,126.102632 21.3546233,126.549135 C21.6509023,127.012537 21.9686698,127.422644 22.2636465,127.798955 C22.5677395,128.167466 22.8516465,128.502181 23.1244837,128.775803 C23.3921116,129.056574 23.6395535,129.28405 23.8479256,129.466681 C24.0569488,129.644112 24.2282047,129.784498 24.341507,129.863789 C24.4613209,129.947631 24.5251349,129.992476 24.5251349,129.992476 L24.2705302,130.370086 Z" id="Fill-209" fill="#26214B"/>
          <path d="M14.7199256,117.467308 C14.7199256,117.467308 14.6105302,117.155991 14.4581581,116.598349 C14.3155535,116.039407 14.0987163,115.239341 13.9469953,114.258593 C13.8545302,113.770494 13.7998326,113.2356 13.7210419,112.672759 C13.6715535,112.106668 13.5940651,111.51003 13.5771349,110.889345 C13.5510884,110.26931 13.5230884,109.627827 13.5400186,108.976595 C13.5328558,108.324063 13.5699721,107.663082 13.6122977,107.001451 C13.6402977,106.33917 13.7503442,105.684038 13.8206698,105.036056 C13.8903442,104.387424 14.0362047,103.760889 14.1364837,103.148653 C14.2315535,102.534467 14.4164837,101.960577 14.545414,101.407485 C14.6723907,100.852443 14.8482047,100.343546 15.0012279,99.871695 C15.1581581,99.4011441 15.2818791,98.9630898 15.441414,98.5926285 C15.5957395,98.2208673 15.7305302,97.8965512 15.8412279,97.629429 C16.0619721,97.0958347 16.1882977,96.7916665 16.1882977,96.7916665 C16.1882977,96.7916665 16.0808558,97.102984 15.8920186,97.648927 C15.7976,97.9212486 15.6829953,98.252064 15.5521116,98.6316244 C15.4179721,99.009235 15.3209488,99.4531387 15.1763907,99.9243395 C15.0409488,100.39814 14.8833674,100.908987 14.7765767,101.464029 C14.6665302,102.017771 14.5069953,102.592311 14.4132279,103.201297 C14.3220651,103.809634 14.1833674,104.432269 14.1221581,105.075702 C14.0589953,105.718485 13.9580651,106.367767 13.9365767,107.024848 C13.8877395,107.67868 13.8428093,108.333812 13.8428093,108.979844 C13.8187163,109.626527 13.8395535,110.26216 13.8590884,110.876996 C13.9053209,112.106668 13.9906233,113.255098 14.1273674,114.231296 C14.3676465,116.191491 14.7199256,117.467308 14.7199256,117.467308" id="Fill-211" fill="#26214B"/>
          <path d="M18.1417209,75.6685464 C18.1417209,75.6685464 18.0095349,76.0331583 17.7783721,76.6707418 C17.6650698,76.9898585 17.5270233,77.377218 17.3681395,77.8217716 C17.2125116,78.268275 17.0432093,78.7726224 16.8133488,79.3055668 C15.9616279,81.4633415 14.8976279,84.3691882 13.9853488,87.3237798 C13.7470233,88.0588531 13.5471163,88.8049752 13.334186,89.5354989 C13.1212558,90.2653727 12.9519535,90.9945966 12.7670233,91.6945735 C12.593814,92.3978001 12.4557674,93.0828286 12.3086047,93.7301611 C12.1783721,94.3800932 12.0787442,94.9988286 11.9745581,95.5675193 C11.8912093,96.1394596 11.8176279,96.6633049 11.7251628,97.1254066 C11.6313953,97.5888083 11.5923256,97.9963157 11.557814,98.3323307 C11.4835814,99.0063103 11.441907,99.3917201 11.441907,99.3917201 C11.441907,99.3917201 11.4432093,99.0037106 11.445814,98.3251814 C11.445814,97.9852669 11.4412558,97.5706102 11.486186,97.0994094 C11.522,96.6275586 11.5402326,96.0887649 11.6535349,95.5168246 C11.7583721,94.9435844 11.8586512,94.3196495 11.9895349,93.6651678 C12.1366977,93.0145858 12.2773488,92.3243578 12.4505581,91.6178815 C12.6367907,90.914655 12.8067442,90.1815315 13.0203256,89.448408 C13.2345581,88.7152845 13.4344651,87.9652628 13.6747442,87.2275898 C14.5896279,84.2632493 15.6568837,81.3496034 16.5105581,79.1866292 C16.7143721,78.6413361 16.929907,78.153237 17.1382791,77.7281814 C17.3414419,77.3018259 17.5185581,76.9287649 17.6644186,76.6226468 C17.9678605,76.0156102 18.1417209,75.6685464 18.1417209,75.6685464" id="Fill-213" fill="#26214B"/>
          <path d="M19.376,24.716465 C19.376,24.716465 19.3864186,25.0453307 19.4645581,25.5171814 C19.5049302,25.7524569 19.5648372,26.0241285 19.6612093,26.3003497 C19.6983256,26.4420349 19.7732093,26.5739711 19.824,26.7169562 C19.9021395,26.8469426 19.9548837,26.9944772 20.0512558,27.1134148 C20.2107907,27.3746875 20.4282791,27.5930647 20.6516279,27.772446 C20.7564651,27.8725355 20.8847442,27.9316794 20.9941395,28.0090213 C21.1035349,28.0896129 21.2246512,28.1312085 21.3327442,28.1799535 C21.4434419,28.2202493 21.5378605,28.2832927 21.6335814,28.3053904 C21.7266977,28.3346373 21.808093,28.3599847 21.875814,28.3807825 C22.011907,28.4269277 22.0893953,28.4535749 22.0893953,28.4535749 C22.0893953,28.4535749 22.008,28.4496753 21.8647442,28.443176 C21.7924651,28.4373266 21.7045581,28.4308273 21.6042791,28.4230281 C21.5013953,28.4230281 21.3933023,28.3827323 21.2715349,28.3521855 C21.1517209,28.3177391 21.0162791,28.289792 20.8866977,28.2202493 C20.7577674,28.155256 20.6053953,28.1084609 20.4823256,28.0038218 C20.2153488,27.8270403 19.964,27.5800661 19.7790698,27.2914962 C19.6748837,27.1537106 19.6182326,26.9905776 19.5374884,26.8436929 C19.4814884,26.6870593 19.4183256,26.5336753 19.3870698,26.3796414 C19.3030698,26.0741733 19.2952558,25.7791041 19.2822326,25.5327798 C19.2809302,25.0342818 19.376,24.716465 19.376,24.716465" id="Fill-215" fill="#26214B"/>
        </g>
      </g>
    </g>
  </g>
</svg>