<svg width="152px" height="136px" viewBox="0 0 152 136" version="1.1" xml:space="preserve" xmlns="http://www.w3.org/2000/svg" xmlns:xlink="http://www.w3.org/1999/xlink">
  <!-- Generator: Sketch 48.2 (47327) - http://www.bohemiancoding.com/sketch -->
  <defs/>
  <g>
    <title>referee-a</title>
    <desc>Created with Sketch.</desc>
    <g id="soccer" stroke="none" stroke-width="1" fill="none" fill-rule="evenodd">
      <g id="referee-a" fill-rule="nonzero">
        <g id="scratch_footie_player_ref01" transform="translate(76.000000, 68.500000) scale(-1, 1) translate(-76.000000, -68.500000) translate(32.000000, 5.000000)">
          <path d="M28.1780513,80.7350709 C25.2627692,88.0308156 19.2246154,104.275106 19.2246154,104.275106 C19.2246154,104.275106 22.5505641,106.481844 24.689641,107.688794 C28.6925128,102.284539 43.5577436,79.6181915 37.2804103,75.9658156 C31.0030769,72.3134397 28.1780513,80.7350709 28.1780513,80.7350709 Z" id="Shape" fill="#828278"/>
          <path d="M19.2291282,101.66305 C19.057641,101.780142 13.150359,119.046738 12.8795897,119.843865 C12.8118974,120.051028 12.7126154,120.249184 12.5997949,120.519397 C12.4391139,120.409337 12.2881386,120.285791 12.1485128,120.150106 C11.7333333,119.636702 11.3226667,119.118794 10.9255385,118.587376 C10.6819331,118.184496 10.2689436,117.913046 9.80184615,117.848794 L9.64389744,118.420745 C9.61420201,118.630662 9.55495034,118.835342 9.46789744,119.028723 C9.22871795,119.407021 8.93538462,119.749291 8.67815385,120.118582 C8.42092308,120.487872 8.22687179,120.731064 8.42092308,121.140887 C8.93538462,121.140887 9.11589744,121.064326 9.29189744,120.528404 C9.51221712,120.06404 9.81843853,119.645379 10.1944615,119.294433 L10.8713846,119.848369 C10.7504589,120.139491 10.6133571,120.423655 10.4607179,120.699539 C10.2769462,120.964689 10.0796255,121.220228 9.86953846,121.465142 L9.77025641,121.366064 C9.52205128,121.98305 9.54912821,122.064113 10.1087179,122.302801 C10.3027692,122.028085 10.4923077,121.726348 10.7134359,121.451631 C10.9345641,121.176915 11.1647179,120.92922 11.4219487,120.654504 L12.0402051,121.140887 C11.5437949,121.99656 10.9255385,122.640567 10.6231795,123.464716 C10.8222446,123.722381 11.187594,123.781505 11.4580513,123.599823 C11.7225642,122.921654 12.092654,122.289387 12.5546667,121.726348 L13.2902564,122.311809 C13.0059487,122.739645 12.7532308,123.104433 12.5185641,123.48273 C12.3245128,123.788972 11.9815385,124.036667 12.1349744,124.559078 L12.7351795,124.67617 C13.0916923,124.108723 13.1864615,123.415177 13.9310769,123.158475 L14.1431795,123.752943 L13.8408205,123.969113 L13.552,124.16727 C13.5249231,124.333901 13.4888205,124.509539 13.4707692,124.685177 C13.4030769,125.279645 13.6557949,125.441773 14.2740513,125.180567 C14.5132308,124.644645 14.5764103,123.951099 15.1766154,123.739433 C15.4518974,123.320603 15.6775385,122.978333 15.8986667,122.636064 C16.3499487,121.910993 16.8012308,121.176915 17.2525128,120.451844 C17.6270769,119.861879 18.0512821,119.30344 18.3897436,118.690957 C18.8861538,117.790248 26.3909744,106.81961 26.6030769,106.531383 C26.3232821,106.26117 19.3374359,101.780142 19.2291282,101.66305 Z" id="Shape" fill="#000000"/>
          <rect id="Rectangle-path" fill="#FFFFFF" transform="translate(22.922112, 104.173583) rotate(32.730000) translate(-22.922112, -104.173583) " x="18.0347273" y="103.155782" width="9.77476923" height="2.03560284"/>
          <rect id="Rectangle-path" fill="#FFFFFF" transform="translate(21.068027, 107.503004) rotate(32.730000) translate(-21.068027, -107.503004) " x="16.1806419" y="106.485203" width="9.77476923" height="2.03560284"/>
          <rect id="Rectangle-path" fill="#FFFFFF" transform="translate(19.480742, 110.786513) rotate(32.730000) translate(-19.480742, -110.786513) " x="14.5933573" y="109.768712" width="9.77476923" height="2.03560284"/>
          <path d="M51.5138462,107.688794 L59.3074872,107.612234 C59.1932599,105.391117 59.2687462,103.164328 59.5331282,100.955993 C59.9302564,98.0421986 61.726359,93.6692553 61.8572308,93.0252482 C61.8572308,93.0252482 63.4322051,90.120461 57.678359,89.2242553 C54.4155897,88.7153546 52.6555897,92.9486879 51.9290256,98.2313475 C51.5795232,101.371068 51.4408205,104.530601 51.5138462,107.688794 Z" id="Shape" fill="#828278"/>
          <path d="M59.5692308,115.376348 C59.3287263,112.566772 59.3816605,109.739853 59.7271795,106.941206 L50.9948718,106.941206 C51.1979487,112.575142 53.1790769,118.236099 55.9589744,123.090922 C54.6051282,123.149468 52.2133333,122.84773 51.0761026,123.698901 L51.3243077,124.207801 C52.6781538,124.541064 51.4687179,126.00922 52.6781538,126.328972 C53.0346667,125.711986 52.4073846,123.379149 54.032,124.207801 C53.9958974,124.797766 53.7251282,125.950674 54.2531282,126.459574 L54.7495385,126.346986 C54.9029744,125.554362 54.5058462,124.766241 54.8939487,124.054681 C55.3136941,123.89172 55.7879884,123.956419 56.1485128,124.225816 L56.0041026,126.28844 L56.8525128,126.500106 L56.8525128,124.653652 C57.326359,124.608617 57.4978462,124.090709 58.0258462,124.203298 C58.0709744,124.95539 57.7144615,126.56766 58.9284103,126.16234 C58.9780513,125.518333 58.5854359,124.811277 59.1314872,124.194291 L59.9889231,124.194291 C60.2596923,124.491525 60.0746667,126.040745 60.0746667,126.238901 L60.5665641,126.603688 L61.0178462,126.337979 C61.0900513,125.549858 59.7497436,117.05617 59.5692308,115.376348 Z" id="Shape" fill="#000000"/>
          <rect id="Rectangle-path" fill="#FFFFFF" x="50.4533333" y="106.450319" width="9.7025641" height="2.03560284"/>
          <rect id="Rectangle-path" fill="#FFFFFF" x="50.9046154" y="110.093688" width="8.80451282" height="2.03560284"/>
          <rect id="Rectangle-path" fill="#FFFFFF" x="51.7214359" y="113.354255" width="8.0734359" height="1.95453901"/>
          <polygon id="Shape" fill="#3C3C32" points="2.94687179 12.6234397 3.13189744 21.342305 6.87302564 19.248156 7.57251282 13.6592553"/>
          <path d="M10.7405128,0.71606383 C10.7405128,0.71606383 3.97128205,0.544929078 0.604717949,0.684539007 C0.509948718,4.20180851 0.302358974,16.361383 0.302358974,16.361383 L10.8307692,16.212766 L10.7405128,0.71606383 Z" id="Shape" fill="#FFC800"/>
          <path d="M11.7333333,62.1489362 C11.5302564,55.9070213 7.8974359,13.9159574 7.98317949,13.2089007 C8.02379487,12.898156 8.02379487,12.5468794 7.59958974,12.3847518 C7.27879523,12.5005773 7.02164182,12.7457604 6.89107692,13.0602837 C6.54358974,14.1006028 6.17805128,15.1364184 6.36758974,16.2668085 C6.38082538,16.4421985 6.38082538,16.6183334 6.36758974,16.7937234 C4.28266667,17.0369149 3.06420513,17.9511348 3.06420513,20.2299291 C3.06420513,22.5087234 3.14092308,62.3606028 3.37107692,71.5298227 C3.37107692,71.5298227 3.59671795,80.8161348 8.59692308,78.5823759 C13.5971282,76.348617 11.7333333,62.1489362 11.7333333,62.1489362 Z" id="Shape" fill="#828278"/>
          <path d="M87.8330256,68.7376241 C86.0730256,56.7446809 77.5753846,42.3333333 64.0820513,43.7969858 C63.3299145,43.881052 62.5777778,43.996643 61.825641,44.1437589 C65.0477949,38.834078 68.5677949,33.655 71.4650256,28.3002837 C74.0057436,23.6075887 81.1585641,11.9298936 81.1585641,11.9298936 L76.4291282,0.671028369 L70.7881026,4.30989362 C70.7881026,4.30989362 49.6410256,37.7892553 43.5035897,47.8501773 C38.6162051,55.8439716 33.9318974,63.4189362 32.7721026,73.0385106 C31.806359,81.032305 33.9995897,88.4226241 40.6514872,93.3044681 C44.0045128,95.7679078 47.5425641,96.3533688 51.5499487,97.3576596 C58.4545641,99.0870213 65.6073846,100.343511 71.9433846,97.3576596 C84.0603077,91.6606738 88,80.6900355 87.8330256,68.7376241 Z" id="Shape" fill="#000000"/>
          <polygon id="Shape" fill="#000000" points="15.7948718 42.9548227 8.70974359 57.8480496 36.7072821 59.0279787 43.5351795 43.2070213"/>
          <path d="M32.4291282,57.2265603 C31.9778462,61.4779078 28.4307692,63.9818794 24.0172308,63.6756383 C21.0207179,63.4684752 18.254359,61.1446454 18.1731282,57.9561348 C18.0964103,54.8892199 21.4043077,52.3086879 24.1526154,51.682695 C27.2213333,50.9891489 31.9101538,51.9574113 32.4291282,57.2265603 Z" id="Shape" fill="#A0640A"/>
          <polygon id="Shape" fill="#828278" points="42.2490256 47.8456738 17.8075897 47.8321631 13.2812308 58.2758865 8.16820513 57.7084397 14.8697436 41.9505319 45.0875897 41.0453191"/>
          <path d="M39.5323077,1.35106383 C35.6512821,7.20567376 29.5364103,16.4289362 25.7230769,22.3646099 C24.9243077,23.5985816 15.1269744,37.4244681 10.8849231,45.6614539 C4.11569231,58.8118085 2.08041026,68.9718085 2.43692308,75.8352128 C2.54071795,77.7987589 3.68697436,86.4455674 7.20697436,90.4762411 C12.5952821,96.6460993 21.1290256,98.3439362 21.1290256,98.3439362 L60.1062564,98.9519149 C60.1062564,98.9519149 45.0785641,95.2049645 40.832,88.6432979 C38.2106745,84.4073518 36.7063219,79.5782183 36.4590769,74.6057447 C36.2108718,65.5356028 40.9448205,56.7401773 45.2455385,49.0886525 C49.758359,41.0318085 73.1437949,4.41347518 76.1448205,1.27450355 L39.5323077,1.35106383 Z M37.0457436,55.6007801 L11.9544615,55.6503191 C11.9544615,55.6503191 15.2488205,47.7420922 16.2732308,46.156844 L41.9963077,46.1838652 L37.0457436,55.6007801 Z" id="Shape" fill="#3C3C32"/>
          <path d="M77.0112821,0.117092199 C76.1087179,0.193652482 39.1848205,0.238687943 38.2642051,0.342269504 C37.6815836,0.359634518 37.1270657,0.5961072 36.7117949,1.00429078 L36.4996923,1.5537234 L36.5809231,2.13468085 C37.0230181,2.5829418 37.646909,2.80376036 38.2732308,2.73365248 C39.1757949,2.61656028 73.9786667,2.61656028 74.8992821,2.6570922 L77.0112821,0.117092199 Z" id="Shape" fill="#000000"/>
          <path d="M74.9128205,2.6570922 L80.1747692,13.7042908 C80.1747692,13.7042908 81.4789744,14.0870922 82.016,13.2809574 C82.3416207,12.7791842 82.515527,12.1944338 82.5169231,11.5966312 L77.0112821,0.117092199 L74.9128205,2.6570922 Z" id="Shape" fill="#000000"/>
          <path d="M77.1692308,75.9928369 C76.0702747,79.4225865 73.9125535,82.4176413 71.0047179,84.5495745 C67.6381538,86.9634752 63.5179487,87.8416667 59.6549744,86.5806738 C56.5668292,85.5315713 54.0271721,83.2938719 52.6014359,80.3657801 C50.6791897,76.4029647 50.4066239,71.8420125 51.8432821,67.6792908 C53.0510776,63.8592698 55.5818539,60.5929443 58.9825641,58.4650355 C62.1415385,56.5465248 65.4268718,55.6278014 68.9107692,56.7717021 C75.9282051,59.0775177 79.8769231,67.845922 77.1692308,75.9928369 Z" id="Shape" fill="#3C3C32"/>
          <path d="M72.7827692,74.5156738 C72.0655716,76.7595417 70.6548344,78.7191637 68.7528205,80.1135816 C66.6395527,81.7216131 63.8791686,82.2145437 61.3382564,81.4376241 C59.3221976,80.7538434 57.6634115,79.2946471 56.7306667,77.3844326 C55.4758209,74.7956638 55.2989695,71.8164184 56.2387692,69.0979078 C57.0281804,66.6014455 58.6823406,64.4669513 60.9050256,63.0766667 C62.9764103,61.8246809 65.1154872,61.2212057 67.3989744,61.9687943 C71.9614359,63.4639716 74.5292308,69.1924823 72.7827692,74.5156738 Z" id="Shape" fill="#828278"/>
          <path d="M65.5577436,112.376986 C65.5577436,112.376986 64.4250256,116.880532 64.4024615,117.718191 C64.3798974,118.555851 64.7634872,118.555851 65.0838974,117.650638 C65.389598,116.943603 65.8020409,116.287481 66.3068718,115.705106 L65.5577436,112.376986 Z" id="Shape" fill="#3C3C32"/>
          <path d="M68.5542564,72.9574468 C68.5542564,72.9574468 69.4026667,68.4539007 64.6957949,68.4539007 C59.9889231,68.4539007 60.6342564,73.2051418 60.6342564,73.2051418 C61.0358974,77.8798227 65.7969231,120.159113 66.225641,120.09156 C66.654359,120.024007 66.6092308,116.939078 67.1282051,116.939078 C67.6471795,116.939078 67.7870769,120.469858 68.3060513,120.514894 C68.8250256,120.559929 68.5768205,116.939078 69.0551795,116.849007 C69.5335385,116.758936 69.7230769,119.776312 69.9577436,119.767305 C70.526359,119.708759 68.5542564,72.9574468 68.5542564,72.9574468 Z" id="Shape" fill="#828278"/>
          <path d="M70.5173333,112.048227 L70.5173333,110.638617 C69.6824615,110.557553 67.2951795,110.535035 66.4557949,110.449468 C66.4151795,110.647624 66.5595897,111.841064 66.528,112.079752 C66.6453333,112.057234 68.9784615,112.057234 70.5173333,112.048227 Z" id="Shape" fill="#F01446"/>
          <path d="M68.2518974,109.301064 C68.9468718,110.773723 69.3169231,112.584149 67.8006154,113.597447 C67.315202,113.950113 66.7089578,114.095166 66.1160722,114.000499 C65.5231866,113.905832 64.9925588,113.579253 64.641641,113.09305 C63.4908718,111.525816 63.7390769,109.864007 65.0342564,109.192979 C66.0764804,108.788352 67.2392977,108.827413 68.2518974,109.301064 Z" id="Shape" fill="#000000"/>
          <path d="M67.3718974,110.314362 C67.7419487,111.097979 67.9405128,112.066241 67.1236923,112.606667 C66.8652934,112.800302 66.5391613,112.880884 66.2200802,112.829936 C65.9009991,112.778988 65.6163427,112.60088 65.4313846,112.336454 C64.817641,111.498794 64.9530256,110.616099 65.6389744,110.255816 C66.1998742,110.035345 66.8272231,110.05654 67.3718974,110.314362 Z" id="Shape" fill="#3C3C32"/>
        </g>
      </g>
    </g>
  </g>
</svg>