<svg width="157px" height="122px" viewBox="0 0 157 122" version="1.1" xml:space="preserve" xmlns="http://www.w3.org/2000/svg" xmlns:xlink="http://www.w3.org/1999/xlink">
  <!-- Generator: Sketch 48.2 (47327) - http://www.bohemiancoding.com/sketch -->
  <defs/>
  <g>
    <title>takeout-e</title>
    <desc>Created with Sketch.</desc>
    <g id="food" stroke="none" stroke-width="1" fill="none" fill-rule="evenodd">
      <g id="takeout-e" fill-rule="nonzero">
        <g id="scratch_fridge_takeout05" transform="translate(81.500000, 57.500000) scale(-1, 1) translate(-81.500000, -57.500000) translate(45.000000, 15.000000)">
          <polygon id="Shape" fill="#828278" points="21.539011 12.9774648 18.4585714 25.5279343 16.0920879 25.408216 21.3625275 9.68122066"/>
          <path d="M60.1167033,85 L56.931978,54.6434272 L42.6608791,54.4798122 C42.6608791,54.4798122 41.0243956,79.6525822 39.5563736,85 L60.1167033,85 Z" id="Shape" fill="#008264"/>
          <path d="M60.4456044,85 C61.7932967,78.507277 68.9368681,44.108216 69.8513736,39.4511737 C70.3647802,36.8293427 70.7538462,34.1835681 71.2471978,31.5617371 C71.7967033,28.6485915 72.9598901,25.4880282 72.9598901,22.5150235 C70.7739011,21.7408451 68.0303846,22.0760563 65.7401099,22.0800469 C64.2801099,22.0800469 51.7698352,21.5892019 51.7698352,21.5892019 L43.2865934,39.2077465 C42.8373626,40.564554 57.2087363,78.1800469 59.8198901,84.9960094 L60.4456044,85 Z" id="Shape" fill="#00A08C"/>
          <path d="M39.7087912,85 C40.2422527,84.0981221 41.2169231,82.45 41.5658791,81.8514085 C42.327967,80.5504695 43.0058242,79.213615 43.6395604,77.8607981 C44.7786813,75.4105634 46.0461538,73.0321596 47.1612088,70.5619718 C49.1265934,66.1723005 51.2403846,61.7586854 52.9009341,57.2492958 C54.7700549,52.157277 56.8076374,47.0812207 58.404011,41.8974178 C59.134011,39.5309859 60.1848901,37.164554 60.6782418,34.7382629 C60.9189011,33.5410798 60.8266484,33.1699531 60.0725824,32.1004695 L51.7618132,21.6051643 L34.2458242,21.3457746 L31.0891758,27.7028169 L39.2715934,85 L39.7087912,85 Z" id="Shape" fill="#78C8C8"/>
          <path d="M57.7341758,35.3248826 C57.7341758,36.4342723 57.0964286,37.3201878 56.3102747,37.3201878 C55.5241209,37.3201878 54.8863736,36.4223005 54.8863736,35.3248826 C54.8652083,34.7069615 55.0934118,34.1063007 55.5201099,33.6568075 C55.7328904,33.4445985 56.0210396,33.3241907 56.3223077,33.3215962 C56.7234066,33.3215962 57.2769231,33.8762911 57.5256044,34.2394366 C57.7742857,34.6025822 57.7341758,34.7701878 57.7341758,35.3248826 Z" id="Shape" fill="#281446"/>
          <path d="M60.0164286,0.466901408 C54.0686265,0.115669173 48.1058187,0.0930209108 42.1554945,0.399061033 C37.7434066,0.61056338 26.1115385,-0.678403756 23.4923626,3.77910798 C22.0484066,6.22535211 21.3464835,9.2741784 20.6846703,12.0037559 C20.0469231,14.6255869 18.8957692,17.3910798 18.5708791,20.0568075 C20.5162088,19.8373239 20.5763736,16.5650235 21.0657143,14.9089202 C21.7716484,12.514554 22.2890659,10.0802817 22.9107692,7.65 C23.4161538,5.65469484 23.9496154,3.12065728 25.9751648,2.22676056 C27.9245055,1.36079812 31.0490659,1.74788732 33.1468132,1.64812207 C41.3212088,1.24906103 51.7898901,1.64812207 59.9562637,1.72394366 C61.3881868,1.72394366 63.2372527,1.8556338 63.6864835,3.66338028 C64.0234066,5.02816901 61.0432418,17.5387324 60.1608242,21.8525822 C59.7597253,23.7241784 59.6634615,25.6396714 59.2743956,27.4953052 C59.0457692,28.592723 58.7248901,29.6741784 58.4721978,30.763615 C58.2917033,31.4938967 58.1954396,33.7326291 57.6940659,34.3352113 C57.5817582,34.4669014 56.7595055,34.6784038 56.1458242,34.9338028 C56.058793,35.2675435 56.0827149,35.6203495 56.214011,35.9394366 L56.4225824,35.9992958 C58.026978,36.4302817 58.7248901,34.9737089 59.134011,33.7884977 C61.4483516,27.0523474 64.7213187,6.25328638 64.7734615,4.86455399 C64.8617033,1.71995305 62.8241209,0.638497653 60.0164286,0.466901408 Z" id="Shape" fill="#828278"/>
          <path d="M4.13934066,37.1126761 C5.34263736,43.3978873 7.38021978,49.6192488 8.95252747,55.7288732 C10.5248352,61.8384977 12.4701648,67.8523474 14.0063736,73.9619718 C14.6681868,76.591784 16.9865385,84.5730047 16.9865385,84.5730047 C16.9865385,84.5730047 20.8571429,84.8723005 22.3251648,84.9960094 L39.3076923,84.9960094 L34.2578571,21.3338028 L0.300824176,21.4255869 C0.300824176,21.4255869 1.66054945,26.8528169 1.97340659,28.1577465 C2.69538462,31.1267606 3.56175824,34.0997653 4.13934066,37.1126761 Z" id="Shape" fill="#00A0B4"/>
        </g>
      </g>
    </g>
  </g>
</svg>