<svg version="1.1" width="120" height="127" viewBox="-1 -1 120 127" xmlns="http://www.w3.org/2000/svg" xmlns:xlink="http://www.w3.org/1999/xlink">
  <!-- Exported by Scratch - http://scratch.mit.edu/ -->
  <g id="ID0.7121486300602555">
    <g id="basketball">
      <g id="casey-c">
        <g id="scratch_bball_player02c">
          <path id="Shape" fill="#006482" stroke="none" stroke-width="1" d="M 42.668 67.197 L 26.755 79.854 C 26.755 79.854 27.122 82.735 30.553 84.268 C 34.043 85.836 50.855 87.381 67.347 86.675 C 83.839 85.969 91.047 80.556 91.047 80.556 L 42.668 67.197 Z "/>
          <path id="Shape" fill="#281446" stroke="none" stroke-width="1" d="M 74.674 83.866 L 43.527 83.866 L 39.534 67.414 L 78.668 67.414 L 74.674 83.866 "/>
          <path id="Shape" fill="#DC785A" stroke="none" stroke-width="1" d="M 69.140 88.449 L 69.539 103.420 L 79.798 103.773 C 79.798 103.773 80.221 89.019 80.353 88.100 L 69.140 88.449 Z "/>
          <path id="Shape" fill="#FAF0E6" stroke="none" stroke-width="1" d="M 68.948 109.716 L 68.944 102.722 L 80.545 102.931 L 80.269 109.439 L 68.948 109.716 "/>
          <path id="Shape" fill="#00A0DC" stroke="none" stroke-width="1" d="M 68.070 108.167 L 68.122 119.564 L 76.787 124.985 L 83.144 124.539 C 83.376 123.600 80.149 123.709 80.149 123.709 L 81.020 108.460 L 68.070 108.167 Z "/>
          <path id="Oval" fill="#006482" stroke="none" stroke-width="1" d="M 72.318 110.475 C 73.022 110.475 73.660 110.762 74.122 111.226 C 74.584 111.690 74.870 112.331 74.870 113.039 C 74.870 113.746 74.584 114.387 74.122 114.851 C 73.660 115.316 73.022 115.603 72.318 115.603 C 71.614 115.603 70.977 115.316 70.515 114.851 C 70.053 114.387 69.767 113.746 69.767 113.039 C 69.767 112.331 70.053 111.690 70.515 111.226 C 70.977 110.762 71.614 110.475 72.318 110.475 Z "/>
          <path id="Shape" fill="#FAF0E6" stroke="none" stroke-width="1" d="M 78.728 110.491 C 78.600 110.776 78.460 111.053 78.328 111.329 L 81.124 111.329 L 81.523 110.491 L 78.728 110.491 Z "/>
          <path id="Shape" fill="#F0E6D2" stroke="none" stroke-width="1" d="M 78.724 112.910 C 78.668 113.051 78.604 113.187 78.536 113.312 L 78.324 113.737 L 81.495 113.737 L 81.495 112.894 L 78.724 112.910 Z "/>
          <path id="Shape" fill="#FAF0E6" stroke="none" stroke-width="1" d="M 81.495 115.968 L 81.495 115.318 L 78.324 115.318 C 78.189 115.599 78.061 115.880 77.925 116.161 L 81.399 116.161 C 81.435 116.113 81.463 116.048 81.495 115.968 Z "/>
          <path id="Shape" fill="#F0E6D2" stroke="none" stroke-width="1" d="M 81.395 117.950 C 81.431 117.886 81.463 117.822 81.495 117.758 L 78.125 117.758 C 78.097 117.818 78.069 117.878 78.045 117.942 C 77.949 118.163 77.849 118.380 77.753 118.601 L 81.088 118.601 C 81.188 118.376 81.287 118.163 81.395 117.950 Z "/>
          <path id="Shape" fill="#FAF0E6" stroke="none" stroke-width="1" d="M 77.869 121.020 L 81.100 121.020 C 81.235 120.743 81.363 120.462 81.499 120.182 L 78.121 120.182 C 78.033 120.458 77.953 120.739 77.869 121.020 Z "/>
          <path id="Shape" fill="#281446" stroke="none" stroke-width="1" d="M 75.433 124.395 C 74.942 118.857 68.141 119.548 68.141 119.548 L 68.141 125.639 L 83.016 125.639 L 83.160 124.523 L 75.433 124.395 Z "/>
          <path id="Shape" fill="#281446" stroke="none" stroke-width="1" d="M 85.968 93.958 L 86.411 73.963 L 65.107 73.991 L 65.166 93.978 L 85.968 93.958 "/>
          <path id="Shape" fill="#DC785A" stroke="none" stroke-width="1" d="M 49.225 88.449 L 48.826 103.420 L 38.567 103.773 C 38.567 103.773 38.144 89.019 38.008 88.100 L 49.225 88.449 Z "/>
          <path id="Shape" fill="#FAF0E6" stroke="none" stroke-width="1" d="M 49.421 109.716 L 49.425 102.722 L 37.820 102.931 L 38.100 109.439 L 49.421 109.716 "/>
          <path id="Shape" fill="#00A0DC" stroke="none" stroke-width="1" d="M 50.315 108.167 L 50.264 119.564 L 41.598 124.985 L 35.241 124.539 C 35.009 123.600 38.236 123.709 38.236 123.709 L 37.369 108.460 L 50.315 108.167 Z "/>
          <path id="Oval" fill="#006482" stroke="none" stroke-width="1" d="M 46.051 110.475 C 46.755 110.475 47.393 110.762 47.854 111.226 C 48.316 111.690 48.602 112.331 48.602 113.039 C 48.602 113.746 48.316 114.387 47.854 114.851 C 47.393 115.316 46.755 115.603 46.051 115.603 C 45.347 115.603 44.709 115.316 44.247 114.851 C 43.785 114.387 43.499 113.746 43.499 113.039 C 43.499 112.331 43.785 111.690 44.247 111.226 C 44.709 110.762 45.347 110.475 46.051 110.475 Z "/>
          <path id="Shape" fill="#FAF0E6" stroke="none" stroke-width="1" d="M 39.637 110.491 C 39.765 110.776 39.905 111.053 40.037 111.329 L 37.241 111.329 L 36.842 110.491 L 39.637 110.491 Z "/>
          <path id="Shape" fill="#F0E6D2" stroke="none" stroke-width="1" d="M 39.645 112.910 C 39.701 113.051 39.761 113.187 39.833 113.312 L 40.041 113.737 L 36.870 113.737 L 36.870 112.894 L 39.645 112.910 Z "/>
          <path id="Shape" fill="#FAF0E6" stroke="none" stroke-width="1" d="M 36.870 115.968 L 36.870 115.318 L 40.045 115.318 C 40.176 115.599 40.308 115.880 40.444 116.161 L 36.974 116.161 L 36.870 115.968 Z "/>
          <path id="Shape" fill="#F0E6D2" stroke="none" stroke-width="1" d="M 36.970 117.950 L 36.870 117.758 L 40.244 117.758 C 40.268 117.818 40.296 117.878 40.320 117.942 C 40.416 118.163 40.516 118.380 40.616 118.601 L 37.277 118.601 C 37.178 118.376 37.078 118.163 36.970 117.950 Z "/>
          <path id="Shape" fill="#FAF0E6" stroke="none" stroke-width="1" d="M 40.488 121.020 L 37.253 121.020 C 37.118 120.743 36.990 120.462 36.854 120.182 L 40.232 120.182 C 40.332 120.458 40.412 120.739 40.488 121.020 Z "/>
          <path id="Shape" fill="#281446" stroke="none" stroke-width="1" d="M 42.936 124.395 C 43.423 118.857 50.224 119.548 50.224 119.548 L 50.224 125.639 L 35.365 125.639 L 35.221 124.523 L 42.936 124.395 Z "/>
          <path id="Shape" fill="#281446" stroke="none" stroke-width="1" d="M 32.633 93.958 L 31.954 73.963 L 53.262 73.991 L 53.199 93.978 L 32.633 93.958 "/>
          <path id="Shape" fill="#DC5050" stroke="none" stroke-width="1" d="M 26.152 86.844 C 27.550 91.739 32.418 96.876 30.609 99.969 C 29.714 100.090 29.011 99.652 28.424 99.219 C 27.318 97.811 26.483 96.595 25.964 94.885 C 25.837 94.825 24.922 93.200 23.353 94.267 C 21.783 95.335 19.387 96.723 15.610 94.512 C 12.144 92.478 9.672 89.119 9.915 84.881 C 10.131 81.162 12.044 77.622 15.853 76.856 C 18.772 76.254 21.328 76.571 23.584 78.012 C 26.711 79.986 24.758 81.952 26.152 86.844 Z "/>
          <path id="Shape" fill="#DC785A" stroke="none" stroke-width="1" d="M 3.518 110.427 C 5.479 111.081 3.518 101.538 7.140 101.233 C 10.762 100.928 9.748 106.394 10.259 108.858 C 10.618 110.579 10.418 113.155 12.655 113.556 C 14.895 111.662 13.118 101.582 16.588 100.740 C 20.058 99.897 19.783 107.397 20.833 109.062 C 23.485 113.336 23.273 100.904 23.201 100.122 C 22.530 93.096 25.769 78.132 31.216 72.835 C 36.662 67.538 46.322 66.210 46.322 66.210 L 39.725 43.976 C 36.271 46.142 20.310 45.143 7.068 66.226 C -4.125 84.055 1.561 109.768 3.518 110.427 Z "/>
          <path id="Shape" fill="#DC5050" stroke="none" stroke-width="1" d="M 94.721 97.554 L 94.262 97.831 C 94.325 99.295 92.968 104.825 90.616 104.403 C 88.567 104.034 90.831 98.031 91.147 96.779 C 91.838 93.998 92.576 91.563 92.281 88.690 C 91.985 85.816 92.333 82.522 94.613 80.584 C 96.893 78.646 105.674 77.827 107.392 85.913 C 109.085 93.898 102.667 101.221 94.721 97.554 Z "/>
          <path id="Shape" fill="#DC785A" stroke="none" stroke-width="1" d="M 94.262 91.450 C 96.414 104.263 94.952 108.653 95.635 110.764 C 96.514 113.488 97.991 112.309 98.830 110.334 C 99.397 109.022 100.623 99.075 103.877 103.059 C 104.852 104.263 105.279 106.197 105.399 107.610 C 105.591 109.813 104.820 112.870 106.333 114.660 C 109.392 115.483 108.917 111.221 109.444 108.793 C 109.728 107.489 109.392 100.266 112.990 100.603 C 116.588 100.940 114.587 110.475 117.842 110.186 C 118.337 110.146 119.743 92.570 117.574 82.097 C 114.723 68.373 107.591 60.552 103.075 57.049 C 90.204 47.081 79.726 45.292 77.210 44.650 L 73.241 66.294 C 75.872 66.648 81.303 68.975 86.762 74.236 C 91.678 78.971 93.243 85.387 94.262 91.450 Z "/>
          <path id="Shape" fill="#DC785A" stroke="none" stroke-width="1" d="M 71.376 44.120 L 68.952 54.786 L 41.650 54.838 L 43.898 43.960 L 71.376 44.120 "/>
          <path id="Shape" fill="#006482" stroke="none" stroke-width="1" d="M 73.017 43.149 L 77.622 43.382 L 88.036 74.316 L 73.017 43.149 "/>
          <path id="Shape" fill="#006482" stroke="none" stroke-width="1" d="M 43.040 42.860 L 37.864 43.037 L 30.153 71.772 L 43.040 42.860 "/>
          <path id="Shape" fill="#00A0DC" stroke="none" stroke-width="1" d="M 91.047 80.556 L 74.491 41.596 L 68.233 41.765 C 68.233 41.765 69.220 51.074 57.555 51.106 C 49.197 51.130 47.888 41.933 47.888 41.933 L 40.871 41.331 L 26.755 79.854 L 91.047 80.556 Z "/>
          <path id="Shape" fill="#DC785A" stroke="none" stroke-width="1" d="M 67.087 32.579 C 66.967 32.387 67.654 27.323 68.417 25.826 C 69.092 24.502 71.061 23.145 72.454 23.960 C 74.179 24.975 73.624 27.491 72.854 28.852 C 71.727 30.862 69.240 31.925 67.087 32.579 Z "/>
          <path id="Shape" fill="#DC785A" stroke="none" stroke-width="1" d="M 48.762 32.579 C 48.886 32.387 48.195 27.323 47.432 25.826 C 46.757 24.502 44.789 23.145 43.395 23.960 C 41.670 24.975 42.225 27.491 42.996 28.852 C 44.138 30.862 46.626 31.925 48.762 32.579 Z "/>
          <path id="Shape" fill="#FFC800" stroke="none" stroke-width="1" d="M 66.201 14.350 C 67.846 16.926 76.911 8.591 78.181 7.444 C 77.286 3.912 74.587 2.014 71.160 1.168 C 69.715 3.198 68.609 5.452 67.886 7.841 C 67.227 9.879 66.257 12.191 66.201 14.350 Z "/>
          <path id="Shape" fill="#006482" stroke="none" stroke-width="1" d="M 61.964 14.598 L 67.071 19.414 C 67.071 19.414 70.130 16.938 67.327 14.197 C 64.524 11.456 61.964 14.598 61.964 14.598 Z "/>
          <path id="Shape" fill="#FFC800" stroke="none" stroke-width="1" d="M 49.485 14.081 C 47.368 16.284 40.097 6.328 39.062 4.952 C 40.628 1.665 43.627 0.329 47.165 0.177 C 48.201 2.451 48.861 4.880 49.117 7.367 C 49.345 9.494 49.848 11.950 49.485 14.081 Z "/>
          <path id="Shape" fill="#006482" stroke="none" stroke-width="1" d="M 53.590 15.156 L 47.644 18.884 C 47.644 18.884 45.124 15.858 48.411 13.708 C 51.697 11.557 53.590 15.156 53.590 15.156 Z "/>
          <path id="Shape" fill="#FFC800" stroke="none" stroke-width="1" d="M 69.675 19.719 L 46.242 19.662 C 46.242 19.662 46.426 13.535 58.522 13.611 C 68.034 13.687 69.675 19.719 69.675 19.719 Z "/>
          <path id="Shape" fill="#DC785A" stroke="none" stroke-width="1" d="M 47.081 22.006 C 46.909 22.347 46.813 25.978 46.642 26.324 C 46.594 27.279 46.174 28.153 46.881 30.489 C 47.536 32.362 48.350 34.176 49.313 35.910 C 50.359 37.391 51.997 39.028 53.706 39.706 C 57.012 41.030 61.213 40.669 63.992 38.695 C 67.307 36.339 68.437 32.274 68.968 28.330 C 69.212 26.512 70.166 23.683 69.883 21.857 L 47.081 22.006 Z "/>
          <path id="Shape" fill="#DC5050" stroke="none" stroke-width="1" d="M 59.899 26.484 C 59.827 28.282 55.471 29.060 55.595 26.175 C 55.718 23.290 55.551 21.384 57.563 21.360 C 59.576 21.336 59.963 24.674 59.899 26.484 Z "/>
          <path id="Shape" fill="#FFC800" stroke="none" stroke-width="1" d="M 65.801 23.310 L 69.200 28.334 L 70.014 23.406 L 65.801 23.310 "/>
          <path id="Shape" fill="#FFC800" stroke="none" stroke-width="1" d="M 49.888 23.310 L 46.494 28.334 L 45.675 23.406 L 49.888 23.310 "/>
          <path id="Shape" fill="#00A0DC" stroke="none" stroke-width="1" d="M 70.801 25.300 C 71.200 23.607 71.600 20.184 70.517 19.032 L 46.007 19.032 C 44.885 19.935 44.657 23.972 44.757 25.585 L 70.801 25.300 Z "/>
          <path id="Shape" fill="#000000" stroke="none" stroke-width="1" d="M 60.550 30.356 C 60.550 30.356 59.935 31.560 57.619 31.472 C 55.303 31.384 54.852 30.396 54.852 30.396 L 60.550 30.356 Z "/>
          <path id="Shape" fill="#000000" stroke="none" stroke-width="1" d="M 64.943 27.748 C 64.256 28.703 63.525 27.122 64.288 26.440 C 64.783 26.484 64.955 26.841 64.943 27.748 Z "/>
          <path id="Shape" fill="#000000" stroke="none" stroke-width="1" d="M 51.370 27.800 C 50.871 27.588 50.910 27.142 50.827 26.741 L 51.477 26.243 C 52.204 26.484 52.053 27.640 51.370 27.800 Z "/>
          <path id="Shape" fill="#006482" stroke="none" stroke-width="1" d="M 71.152 23.808 L 44.533 23.800 L 44.881 20.521 L 71.152 20.417 L 71.152 23.808 "/>
        </g>
      </g>
    </g>
  </g>
</svg>