<svg width="230px" height="145px" viewBox="0 0 230 145" version="1.1" xml:space="preserve" xmlns="http://www.w3.org/2000/svg" xmlns:xlink="http://www.w3.org/1999/xlink">
  <!-- Generator: Sketch 48.2 (47327) - http://www.bohemiancoding.com/sketch -->
  <defs/>
  <g>
    <title>pterosaur-a</title>
    <desc>Created with Sketch.</desc>
    <g id="dinosaurs" stroke="none" stroke-width="1" fill="none" fill-rule="evenodd">
      <g id="pterosaur-a" fill-rule="nonzero">
        <g id="scratch_dinos01a" transform="translate(3.000000, 23.000000)">
          <path d="M121.688378,63.243 C121.655319,63.471 122.761277,67.308 122.731223,67.536 C123.494574,72.078 118.499734,77.157 115.482394,79.836 C115.217926,80.547 116.383989,83.241 116.747633,83.874 L116.985053,83.874 C117.120293,83.337 116.801729,82.842 116.849814,82.302 C118.725133,81.273 120.792793,80.601 122.460745,79.215 C124.128697,77.829 126.448803,75.672 127.680984,73.911 C129.844814,70.815 131.993617,66.006 132.648777,59.331 C132.639761,59.361 121.688378,63.243 121.688378,63.243 Z" id="Shape" fill="#C8C8BE"/>
          <path d="M116.329894,80.643 C116.329894,80.643 117.532021,83.343 117.688298,83.586 L117.925718,83.586 C118.03992,83.121 117.643218,81.09 117.625186,80.631 C117.193518,80.6118691 116.761132,80.6158749 116.329894,80.643 Z" id="Shape" fill="#C8C8BE"/>
          <path d="M117.670266,80.157 C117.670266,80.157 118.27133,83.058 118.355479,83.322 L118.583883,83.388 C118.797261,82.959 118.583883,80.706 118.659016,80.25 C118.333732,80.1836657 118.002238,80.152486 117.670266,80.157 Z" id="Shape" fill="#C8C8BE"/>
          <path d="M113.093165,78.6 C112.510133,77.544 112.008245,76.449 111.416197,75.396 C110.655851,75.291 108.128378,74.373 105.967553,72.783 C103.749628,71.145 101.904362,68.802 101.724043,66.162 C101.369415,60.954 105.029894,57.015 105.029894,57.015 L101.219149,54.69 L93.5105053,59.895 C93.5105053,59.895 92.4676596,64.554 97.4865426,72.063 C99.0312766,74.373 101.730053,76.155 104.320638,77.13 C107.094548,78.174 109.616011,77.823 112.435,78.33 C112.942899,78.93 113.063112,79.746 113.583032,80.274 C113.722318,80.3163816 113.872569,80.2581229 113.946676,80.133 C113.673191,79.635 113.381676,79.122 113.093165,78.6 Z" id="Shape" fill="#C8C8BE"/>
          <path d="M110.679894,77.865 C110.679894,77.865 112.606303,80.121 112.80766,80.313 L113.039069,80.259 C113.021037,79.779 111.752793,77.904 111.593511,77.472 C111.275957,77.5705173 110.969718,77.7022484 110.679894,77.865 Z" id="Shape" fill="#C8C8BE"/>
          <path d="M109.273404,77.619 C109.273404,77.619 111.506356,80.058 111.710718,80.247 C111.77984,80.232 112.032287,80.148 112.032287,80.148 C112.032287,80.148 110.343298,77.658 110.187021,77.226 C109.868983,77.3232046 109.562606,77.4549953 109.273404,77.619 Z" id="Shape" fill="#C8C8BE"/>
          <path d="M206.765957,2.1 C197.80109,1.2 186.146463,1.317 181.821809,1.449 L184.226064,16.371 C184.661835,16.2 186.002207,15.663 186.443989,15.498 C192.713085,13.14 201.617846,10.722 210.429441,9.948 C217.131303,9.348 224.63859,10.269 225.882793,9.708 C225.905347,9.65069218 225.916573,9.5895675 225.915851,9.528 C225.726516,8.922 212.433989,2.664 206.765957,2.1 Z" id="Shape" fill="#64645A"/>
          <path d="M140.648936,20.574 C138.875798,21.561 137.096649,22.551 135.389628,23.49 L119.139867,29.253 L128.477394,63.246 C129.980053,63.582 137.069601,53.46 137.742793,52.353 C138.415984,51.246 144.02992,44.553 150.731782,38.508 C149.893298,36.651 141.469388,22.83 140.648936,20.574 Z" id="Shape" fill="#3C3C32"/>
          <path d="M184.226064,1.5 C183.171197,1.536 182.458936,1.566 182.176436,1.566 C182.73242,2.565 157.791277,10.44 157.045957,11.436 C156.511011,11.637 137.847979,22.569 137.847979,22.569 C137.847979,22.569 150.106676,37.128 150.740798,38.511 C151.492128,37.836 152.49891,36.951 153.271277,36.303 C159.191755,31.332 169.644255,22.332 184.226064,16.374 L184.226064,1.5 Z" id="Shape" fill="#828278"/>
          <path d="M190.744601,1.839 C189.641649,1.506 188.397447,0.831 187.273457,0.567 C185.190771,0.081 183.023936,0.192 180.905186,0.468 C177.025319,0.972 173.307739,2.268 169.713378,3.795 C162.073856,7.029 139.500904,21.27 132.321197,23.469 C127.031835,25.086 121.360798,25.32 118.625957,25.347 L118.625957,30.573 C120.669574,30.972 131.356489,28.578 132.877181,28.044 C141.968271,24.846 148.309495,19.143 152.775399,16.26 C156.803171,13.6781604 161.01027,11.386347 165.364681,9.402 C168.126569,8.13 174.272447,5.106 179.372473,4.065 C181.836835,3.561 185.329016,4.329 185.65359,4.44 C186.573218,4.74 187.498856,5.676 188.412473,5.526 C189.32609,5.376 186.25766,3.654 186.660372,3.159 C186.759548,3.036 187.652128,3.108 188.09992,3.348 C189.443298,4.068 191.333644,5.922 192.208191,5.565 C192.965532,5.265 189.32609,2.925 189.821968,2.565 C190.317846,2.205 192.746144,4.209 193.482447,3.861 C194.21875,3.513 191.48992,2.067 190.744601,1.839 Z" id="Shape" fill="#C8C8BE"/>
          <path d="M48.3856383,1.833 C45.2390691,1.722 29.9089362,1.032 19.2039894,2.1 C13.5359574,2.664 0.243430851,8.922 0.0510904255,9.528 C0.0529066547,9.58959518 0.065098315,9.65044559 0.0871542553,9.708 C1.33135638,10.269 8.83864362,9.36 15.5405053,9.948 C24.3521011,10.722 33.2538564,13.14 39.5229521,15.498 C40.6679787,15.927 42.0864894,16.506 43.1834309,16.974 L48.3856383,1.833 Z" id="Shape" fill="#64645A"/>
          <path d="M106.833085,29.253 L90.5833245,23.49 C87.5780053,21.834 75.6138298,15.57 75.6138298,15.57 C75.6138298,15.57 73.8376862,30.975 71.1629521,35.001 L72.7106915,36.3 C78.601117,41.247 93.5014894,59.901 93.5014894,59.901 L107.704628,48.846 L106.833085,29.253 Z" id="Shape" fill="#3C3C32"/>
          <path d="M68.9330053,11.433 C68.1876862,10.437 43.2465426,2.562 43.8055319,1.563 C43.6823138,1.563 43.4749468,1.563 43.2044681,1.563 L43.2044681,16.989 C55.8658777,22.434 65.2815426,30.075 71.1719681,35.016 C74.7948492,29.6126066 78.0992866,24.0031024 81.068484,18.216 C74.7392819,14.64 69.3777926,11.598 68.9330053,11.433 Z" id="Shape" fill="#828278"/>
          <path d="M107.217766,25.533 C103.524229,25.323 98.0305053,24.807 93.657766,23.469 C86.4810638,21.27 63.9051064,7.029 56.2655851,3.795 C52.6592021,2.274 48.9536436,0.972 45.0767819,0.468 C42.9580319,0.192 40.7911968,0.081 38.7085106,0.567 C37.5845213,0.831 36.3403191,1.506 35.237367,1.839 C34.4890426,2.067 31.7632181,3.519 32.496516,3.867 C33.2298138,4.215 35.661117,2.217 36.1569947,2.571 C36.6528723,2.925 33.0164362,5.253 33.7737766,5.571 C34.6453191,5.928 36.5356649,4.071 37.8820479,3.354 C38.3298404,3.114 39.2194149,3.054 39.3215957,3.165 C39.7213032,3.66 36.6528723,5.382 37.5664894,5.532 C38.4801064,5.682 39.40875,4.761 40.3253723,4.446 C40.6529521,4.335 44.1421277,3.567 46.6064894,4.071 C51.7155319,5.112 57.8553989,8.136 60.6172872,9.408 C64.9716981,11.392347 69.1787971,13.6841604 73.2065691,16.266 C77.6694681,19.149 81.8528723,22.506 86.6373404,24.879 C87.7042287,25.407 92.6479787,28.179 97.8351596,29.577 C100.901206,30.3807006 104.049093,30.8326224 107.217766,30.924 L107.217766,25.533 Z" id="Shape" fill="#C8C8BE"/>
          <path d="M107.737686,6.672 L101.333351,6.531 C101.333351,6.531 104.588112,8.241 103.106489,10.617 L108.963856,10.68 L107.737686,6.672 Z" id="Shape" fill="#000000"/>
          <path d="M100.915612,8.283 C98.8479521,8.661 105.528777,9.393 108.486011,8.922 C111.443245,8.451 102.986277,7.908 100.915612,8.283 Z" id="Shape" fill="#F01446"/>
          <path d="M110.634814,9.927 C105.742154,9.711 83.4006117,10.038 83.4006117,10.038 C83.4006117,10.038 83.7852926,10.911 86.7275,11.538 C93.0777394,12.855 104.71734,14.433 111.142713,14.385 L110.634814,9.927 Z" id="Shape" fill="#64645A"/>
          <path d="M128.15883,3.684 C121.787553,3.876 84.3022074,3.744 80.437367,4.848 C80.3331591,5.162559 80.3535922,5.50501263 80.4944681,5.805 C80.7018351,6.024 81.6605319,6.705 81.9490426,6.747 C86.1865426,7.266 105.636968,6.6 106.839096,8.286 C107.58742,9.336 108.978883,11.886 109.291436,14.286 C109.36985,15.06772 109.313949,15.8570667 109.126144,16.62 C108.996915,17.148 93.498484,59.901 93.498484,59.901 C93.498484,59.901 99.8096543,66.402 100.924628,67.14 C105.024094,69.9064251 109.889938,71.3187895 114.83625,71.178 C119.78,71.094 125.745559,67.854 129.372979,64.38 C131.12508,62.703 132.645771,59.352 132.645771,59.352 C132.645771,59.352 120.29992,22.863 119.981356,16.872 C119.801037,13.482 121.240585,10.449 124.450266,8.397 C126.911622,6.825 131.022899,5.862 132.564628,5.574 C134.878723,5.142 138.770612,4.647 138.968963,4.116 C135.382,3.6956762 131.767973,3.55125064 128.15883,3.684 Z" id="Shape" fill="#828278"/>
          <path d="M113.763351,8.289 C114.042846,7.959 114.334362,7.806 114.713032,7.989 C115.16984,8.724 115.07367,9.288 114.370426,9.891 C113.826463,9.534 113.694229,8.928 113.763351,8.289 Z" id="Shape" fill="#000000"/>
          <path d="M84.32625,5.379 C84.52486,5.20814674 84.7990274,5.15455064 85.0475266,5.238 C85.3931383,5.592 85.3210106,5.865 84.7860638,6.156 C84.4516408,6.05839998 84.2504846,5.71848324 84.32625,5.379 Z" id="Shape" fill="#000000"/>
          <path d="M82.0452128,5.418 C82.2438227,5.24714674 82.5179902,5.19355064 82.7664894,5.277 C83.1151064,5.631 83.0399734,5.904 82.5080319,6.195 C82.1743346,6.09616848 81.9728225,5.7578616 82.0452128,5.418 Z" id="Shape" fill="#000000"/>
        </g>
      </g>
    </g>
  </g>
</svg>