<svg width="114px" height="117px" viewBox="0 0 114 117" version="1.1" xml:space="preserve" xmlns="http://www.w3.org/2000/svg" xmlns:xlink="http://www.w3.org/1999/xlink">
  <!-- Generator: Sketch 48.2 (47327) - http://www.bohemiancoding.com/sketch -->
  <defs/>
  <g>
    <title>strawberry-b</title>
    <desc>Created with Sketch.</desc>
    <g id="food" stroke="none" stroke-width="1" fill="none" fill-rule="evenodd">
      <g id="strawberry-b" fill-rule="nonzero">
        <g id="scratch_fridge_strawberry02" transform="translate(13.000000, 3.000000)">
          <path d="M28.1171548,73.8164234 C27.3499582,69.4806569 19.7663598,68.1237226 19.5012552,67.9671533 C16.1151464,65.939781 14.6490377,64.1934307 12.5804184,60.9094891 C10.5117992,57.6255474 9.45138075,53.9281022 8.30259414,50.3029197 C7.06945607,46.4047445 5.91665272,37.0145985 4.96066946,37.0908759 C4.00468619,37.1671533 5.69171548,40.8565693 4.68351464,41.0693431 C3.67531381,41.2821168 3.33790795,37.3317518 2.55062762,37.2715328 C1.76334728,37.2113139 2.81171548,41.5551095 1.68702929,41.5109489 C1.07246862,41.4868613 0.594476987,38.1908759 0.104435146,38.3916058 C-0.385606695,38.5923358 1.42192469,55.5861314 5.18962343,61.9291971 C8.95732218,68.2722628 12.419749,71.5883212 17.0590795,74.3262774 C20.0475314,76.0846715 23.8031799,76.3817518 26.1569874,76.8153285 C26.1569874,76.8153285 28.8923849,78.1521898 28.1171548,73.8164234 Z" id="Shape" fill="#BE0A3C"/>
          <path d="M7.63179916,40.1058394 C6.98912134,39.8890511 6.51514644,42.289781 6.51514644,42.289781 C5.8041841,42.5226277 4.02075314,43.2452555 4.1492887,44.650365 C4.30995816,46.4007299 6.50711297,48.2635036 7.4148954,46.1839416 C7.4148954,46.1678832 8.27849372,40.3226277 7.63179916,40.1058394 Z" id="Shape" fill="#82001E"/>
          <path d="M95.5983264,25.3722628 C94.65841,24.2361314 92.754477,28.2427007 92.099749,27.2149635 C91.4450209,26.1872263 94.3772385,23.220438 93.7626778,22.5981752 C93.1481172,21.9759124 90.5733891,25.7255474 90.1837657,25.2879562 C90.0351464,25.1193431 90.2922176,24.5894161 90.6577406,23.9229927 C91.2522176,22.8390511 91.8025105,21.6105839 91.4610879,21.3335766 C91.1196653,21.0565693 90.2882008,22.4094891 88.9345607,23.9229927 C84.5161506,28.8850365 58.0820084,60.0142336 61.7051046,65.1248175 C65.3282008,70.2354015 87.6210879,37.6489051 90.3123013,33.7145985 C93.2083682,29.4350365 95.847364,25.6934307 95.5983264,25.3722628 Z" id="Shape" fill="#BE0A3C"/>
          <path d="M86.247364,22.5821168 C87.1109623,22.5821168 86.7494561,25.6693431 86.7494561,25.6693431 C87.5166527,26.2273723 89.4005021,27.8010949 88.6935565,29.4551095 C87.8138912,31.5145985 84.4157322,32.9277372 84.1345607,30.0372263 C84.1385774,30.0372263 85.3837657,22.5941606 86.247364,22.5821168 Z" id="Shape" fill="#82001E"/>
          <path d="M62.3919665,74.3062044 C62.2312971,74.2259124 64.2235983,68.079562 56.700251,66.9313869 C49.1769038,65.7832117 50.4863598,104.094526 51.7676987,108.598905 C52.2697908,110.365328 52.9727197,109.803285 54.2420084,109.89562 C55.5112971,109.987956 56.3066109,110.032117 55.8487029,109.201095 C55.756318,109.032482 54.1456067,109.273358 54.1456067,109.273358 C54.1456067,109.273358 57.0175732,101.448905 58.1261925,97.4624088 C58.6764854,95.4832117 59.2066946,93.479927 59.6525523,91.4726277 C59.8935565,90.4167883 62.6610879,75.3660584 62.3919665,74.3062044 Z" id="Shape" fill="#82001E"/>
          <path d="M23.3774059,92.299635 C22.6945607,93.7609489 21.9996653,95.190146 21.2967364,96.6394161 C20.1519665,98.9919708 19.4088703,102.637226 17.6575732,104.576277 C17.356318,104.363504 16.2195816,103.223358 15.9504603,103.227372 C14.3035983,103.263504 15.8058577,104.158759 16.0830126,104.431752 C16.8395988,105.165305 17.6686022,105.820353 18.5573222,106.386861 C19.7623431,107.157664 19.5414226,106.99708 20.7584937,106.073723 C22.7949791,104.536131 49.2974059,75.4664234 42.9188285,69.0912409 C36.540251,62.7160584 23.8995816,91.1835766 23.3774059,92.299635 Z" id="Shape" fill="#82001E"/>
          <path d="M36.6085356,17.4675182 C35.0259414,13.280292 33.523682,6.08613139 35.7369038,1.91094891 C37.7693724,-1.9189781 41.3241841,0.55 43.0192469,6.62408759 C44.449205,11.7346715 44.1921339,20.1572993 44.2564017,21.9357664 C44.3287029,23.8989051 44.0917155,25.8218978 44.007364,27.7729927 C43.9390795,29.4189781 44.5295397,32.1609489 43.9390795,33.6463504 C40.9707113,28.5036496 38.705272,23.0116788 36.6085356,17.4675182 Z" id="Shape" fill="#82783C"/>
          <path d="M43.9752301,33.570073 C41.6294561,33.6905109 38.7133054,31.3138686 36.9057741,30.0171533 C35.9417573,29.3065693 23.9477824,19.6715328 20.6861925,14.8540146 C19.2120502,12.6861314 17.8262762,10.5262774 18.1837657,7.80437956 C18.6617573,4.15510949 21.1521339,3.32408759 24.3775732,4.91386861 C29.37841,7.37883212 33.5598326,12.8989051 36.1827615,17.6923358 C37.4882008,20.0729927 38.7293724,22.509854 40.0508787,24.8624088 C41.3241841,27.1386861 44.0354812,30.880292 43.9752301,33.570073 Z" id="Shape" fill="#A0AA1E"/>
          <path d="M43.5333891,33.4375912 C43.3807531,31.7474453 44.5094561,29.4872263 44.8950628,27.8412409 C45.2967364,26.0788321 45.69841,24.3445255 46.2687866,22.6222628 C47.3460177,19.0817023 48.6295489,15.6071545 50.1128033,12.2164234 C51.4503766,9.28175182 52.8723013,6.02189781 55.0292887,3.58905109 C56.8649372,1.50145985 60.3554812,-0.702554745 62.8820084,1.81861314 C65.0630962,3.99854015 63.6853556,8.50291971 62.9141423,11.0521898 C61.8577406,14.4525547 59.9738912,17.2627737 57.8410042,20.0729927 C55.832636,22.7226277 46.2366527,32.5423358 43.5333891,33.4375912 Z" id="Shape" fill="#A0AA1E"/>
          <path d="M43.8828452,33.5580292 C44.9914644,32.1087591 46.811046,30.9043796 48.1566527,29.6277372 C49.8999163,27.9737226 51.6793305,26.3638686 53.4507113,24.7459854 C56.0254393,22.3974453 58.7769038,19.9886861 62.3839331,19.5270073 C63.6893724,19.3624088 66.0632636,19.2821168 66.5131381,20.8959854 C66.9148117,22.3813869 64.9586611,24.079562 63.9946444,24.8784672 C62.5641916,26.0176163 61.0328366,27.0240908 59.4195816,27.8854015 C58.5238494,28.3952555 47.8232636,32.4259124 43.8828452,33.5580292 Z" id="Shape" fill="#A0AA1E"/>
          <path d="M43.6257741,33.6343066 C43.352636,28.660219 43.931046,23.7784672 44.0917155,18.8364964 C44.1078007,16.2592078 44.3931986,13.6906479 44.9432636,11.1726277 C45.2244351,10.0244526 46.6543933,5.95364964 48.1164854,8.26605839 C48.96,9.59489051 48.4217573,12.5135036 48.3695397,13.9948905 C48.2932218,16.1386861 48.2691213,18.4872263 47.5380753,20.5386861 C47.0560669,21.8715328 43.8908787,33.650365 43.6257741,33.6343066 Z" id="Shape" fill="#A0AA1E"/>
          <path d="M43.2321339,94.7083942 C39.2718714,94.7276107 35.4000368,93.5385271 32.1338912,91.3 C29.9648536,89.7945255 28.2537238,87.5262774 26.7876151,85.3583942 C24.5984937,82.1186131 22.4495397,78.8105839 20.4291213,75.4583942 C16.7709597,69.4259629 14.09461,62.8511211 12.5000837,55.979562 C11.2468619,50.4153285 10.8532218,40.15 16.6333054,36.7094891 C19.5936402,34.9390511 23.9799163,33.9273723 27.3338912,33.2368613 C30.2379916,32.6386861 33.1019247,31.8879562 36.0863598,31.6310219 C37.7894561,31.4945255 39.5086192,31.3379562 41.1956485,31.6029197 C42.4930544,31.8076642 43.123682,32.5222628 44.0595816,32.530292 C44.2403347,32.530292 45.4172385,31.8759124 45.7425941,31.7956204 C46.4046025,31.6660019 47.0765297,31.5934724 47.7509623,31.5788321 C49.8958996,31.4543796 51.9123013,31.7956204 54.0170711,32.1127737 C59.4517155,32.9156934 65.1835983,34.9872263 69.4373222,38.5642336 C74.743431,43.0244526 73.8798326,49.8492701 72.4097071,55.9875912 C70.8030126,62.7481752 65.0630962,78.1160584 59.5561506,85.5671533 C54.049205,93.0182482 46.4937238,94.7244526 43.2321339,94.7083942 Z" id="Shape" fill="#F01446"/>
          <path d="M16.7056067,41.3985401 C16.7056067,41.3985401 17.28,39.8850365 19.8185774,38.5521898 C23.0248673,36.9843778 26.6238218,36.4004701 30.1616736,36.8740876 C38.3839331,38.1386861 37.3596653,65.2211679 27.5588285,65.2211679 C22.2487029,65.2211679 18.6577406,62.9368613 16.974728,57.7540146 C15.5528033,53.370073 14.5325523,46.6094891 16.7056067,41.3985401 Z" id="Shape" fill="#F00A78"/>
          <ellipse id="Oval" fill="#F04650" cx="37.9742259" cy="75.0368613" rx="1" ry="1.02773723"/>
          <ellipse id="Oval" fill="#F04650" cx="57.1220084" cy="46.6215328" rx="1" ry="1.02773723"/>
          <ellipse id="Oval" fill="#F04650" cx="53.9688703" cy="41.840146" rx="1" ry="1.02773723"/>
          <ellipse id="Oval" fill="#F04650" cx="61.0302929" cy="42.3178832" rx="1" ry="1.02773723"/>
          <ellipse id="Oval" fill="#F04650" cx="49.5745607" cy="37.0386861" rx="1" ry="1.02773723"/>
          <ellipse id="Oval" fill="#F04650" cx="41.3523013" cy="39.6120438" rx="1" ry="1.02773723"/>
          <ellipse id="Oval" fill="#F04650" cx="34.6082008" cy="38.9054745" rx="1" ry="1.02773723"/>
          <ellipse id="Oval" fill="#F04650" cx="26.0646025" cy="38.7127737" rx="1" ry="1.02773723"/>
          <ellipse id="Oval" fill="#F04650" cx="32.1178243" cy="47.1313869" rx="1" ry="1.02773723"/>
          <ellipse id="Oval" fill="#F04650" cx="23.4738075" cy="46.6335766" rx="1" ry="1.02773723"/>
          <ellipse id="Oval" fill="#F04650" cx="48.2972385" cy="77.3572993" rx="1" ry="1.02773723"/>
          <ellipse id="Oval" fill="#F04650" cx="45.1280335" cy="45.5616788" rx="1" ry="1.02773723"/>
          <ellipse id="Oval" fill="#F04650" cx="47.4175732" cy="52.149635" rx="1" ry="1.02773723"/>
          <ellipse id="Oval" fill="#F04650" cx="39.6371548" cy="47.2156934" rx="1" ry="1.02773723"/>
          <ellipse id="Oval" fill="#F04650" cx="31.0132218" cy="81.0266423" rx="1" ry="1.02773723"/>
          <ellipse id="Oval" fill="#F04650" cx="37.9742259" cy="53.5908759" rx="1" ry="1.02773723"/>
          <ellipse id="Oval" fill="#F04650" cx="26.1007531" cy="70.5927007" rx="1" ry="1.02773723"/>
          <ellipse id="Oval" fill="#F04650" cx="32.9733891" cy="60.3474453" rx="1" ry="1.02773723"/>
          <ellipse id="Oval" fill="#F04650" cx="25.6508787" cy="60.0824818" rx="1" ry="1.02773723"/>
          <ellipse id="Oval" fill="#F04650" cx="58.2908787" cy="58.5890511" rx="1" ry="1.02773723"/>
          <ellipse id="Oval" fill="#F04650" cx="64.6413389" cy="47.1313869" rx="1" ry="1.02773723"/>
          <ellipse id="Oval" fill="#F04650" cx="65.2679498" cy="57.2481752" rx="1" ry="1.02773723"/>
          <ellipse id="Oval" fill="#F04650" cx="68.6661088" cy="51.8686131" rx="1" ry="1.02773723"/>
          <ellipse id="Oval" fill="#F04650" cx="68.8629289" cy="42.2416058" rx="1" ry="1.02773723"/>
          <ellipse id="Oval" fill="#F04650" cx="56.9974895" cy="35.8784672" rx="1" ry="1.02773723"/>
          <ellipse id="Oval" fill="#F04650" cx="17.4808368" cy="42.9642336" rx="1" ry="1.02773723"/>
          <ellipse id="Oval" fill="#F04650" cx="15.74159" cy="56.730292" rx="1" ry="1.02773723"/>
          <ellipse id="Oval" fill="#F04650" cx="13.9983264" cy="50.3992701" rx="1" ry="1.02773723"/>
          <ellipse id="Oval" fill="#F04650" cx="44.1921339" cy="56.9711679" rx="1" ry="1.02773723"/>
          <ellipse id="Oval" fill="#F04650" cx="61.6729707" cy="66.1485401" rx="1" ry="1.02773723"/>
          <ellipse id="Oval" fill="#F04650" transform="translate(50.121332, 61.626650) rotate(-68.500000) translate(-50.121332, -61.626650) " cx="50.1213317" cy="61.6266498" rx="1.02828452" ry="1"/>
          <ellipse id="Oval" fill="#F04650" cx="53.3302092" cy="50.3992701" rx="1" ry="1.02773723"/>
          <ellipse id="Oval" fill="#F04650" cx="40.7939749" cy="65.7631387" rx="1" ry="1.02773723"/>
          <ellipse id="Oval" fill="#F04650" cx="60.6888703" cy="52.4467153" rx="1" ry="1.02773723"/>
          <ellipse id="Oval" fill="#F04650" cx="61.9461088" cy="74.8441606" rx="1" ry="1.02773723"/>
          <ellipse id="Oval" fill="#F04650" cx="53.5551464" cy="69.239781" rx="1" ry="1.02773723"/>
          <ellipse id="Oval" fill="#F04650" cx="28.4384937" cy="53.6551095" rx="1" ry="1.02773723"/>
          <ellipse id="Oval" fill="#F04650" cx="21.425272" cy="52.2379562" rx="1" ry="1.02773723"/>
        </g>
      </g>
    </g>
  </g>
</svg>