<svg width="230px" height="145px" viewBox="0 0 230 145" version="1.1" xml:space="preserve" xmlns="http://www.w3.org/2000/svg" xmlns:xlink="http://www.w3.org/1999/xlink">
  <!-- Generator: Sketch 48.2 (47327) - http://www.bohemiancoding.com/sketch -->
  <defs/>
  <g>
    <title>pterosaur-b</title>
    <desc>Created with Sketch.</desc>
    <g id="dinosaurs" stroke="none" stroke-width="1" fill="none" fill-rule="evenodd">
      <g id="pterosaur-b" fill-rule="nonzero">
        <g id="scratch_dinos01b" transform="translate(3.000000, 7.000000)">
          <path d="M122.644069,78.6566265 C122.662101,78.8915663 124.567473,82.4126506 124.588511,82.6445783 C126.310559,86.9337349 122.523856,92.9879518 120.155665,96.2710843 C120.050479,97.0240964 121.7575,99.4186747 122.259388,99.9578313 L122.493803,99.9216867 C122.511835,99.3674699 122.094096,98.9518072 122.024973,98.4156627 C123.635824,97.003012 125.511144,95.9006024 126.833484,94.1837349 C128.155824,92.4668675 129.968032,89.8493976 130.791489,87.8584337 C132.240053,84.3584337 133.300931,79.1807229 132.507527,72.496988 C132.504521,72.496988 122.644069,78.6566265 122.644069,78.6566265 Z" id="Shape" fill="#C8C8BE"/>
          <path d="M121.156436,96.873494 C121.156436,96.873494 122.923564,99.2620482 123.112899,99.4668675 L123.347314,99.4307229 C123.36234,98.9487952 122.535878,97.0421687 122.409654,96.5963855 C121.987179,96.6657472 121.568813,96.7582554 121.156436,96.873494 Z" id="Shape" fill="#C8C8BE"/>
          <path d="M122.358564,96.1084337 C122.358564,96.1084337 123.560691,98.8192771 123.707952,99.0662651 L123.945372,99.0813253 C124.06258,98.6144578 123.374362,96.4487952 123.344309,95.9879518 C123.012418,95.9933164 122.682014,96.0336998 122.358564,96.1084337 Z" id="Shape" fill="#C8C8BE"/>
          <path d="M95.1453989,97.5331325 C95.635266,96.4277108 96.2062766,95.3614458 96.6931383,94.25 C96.3144681,93.5783133 95.5210638,91.003012 95.4910106,88.313253 C95.4579521,85.5481928 96.2152926,82.6536145 98.2138298,80.9096386 C102.159814,77.4698795 107.512287,77.996988 107.512287,77.996988 L107.0675,73.5421687 L98.2528989,70.5301205 C98.2528989,70.5301205 93.9042021,72.5210843 90.9379521,81.0722892 C90.0363564,83.7078313 90.2347074,86.9427711 91.0190957,89.6054217 C91.8605851,92.4518072 93.6637766,94.2560241 94.9620745,96.8192771 C94.7907713,97.5873494 94.2107447,98.1807229 94.1055585,98.9126506 C94.1567168,99.0498511 94.2937504,99.1352249 94.4391489,99.1204819 C94.6675532,98.6204819 94.9049734,98.0753012 95.1453989,97.5331325 Z" id="Shape" fill="#C8C8BE"/>
          <path d="M94.279867,95.1566265 C94.279867,95.1566265 93.639734,98.060241 93.6126862,98.3403614 L93.7930053,98.4909639 C94.1656649,98.189759 94.8959574,96.0361446 95.1453989,95.6475904 C94.8752459,95.4533704 94.5850734,95.2887731 94.279867,95.1566265 Z" id="Shape" fill="#C8C8BE"/>
          <path d="M93.6277128,93.8825301 C93.6277128,93.8825301 93.0266489,97.1445783 92.9996011,97.4246988 C93.0536968,97.4698795 93.2730851,97.6204819 93.2730851,97.6204819 C93.2730851,97.6204819 94.2407979,94.7620482 94.4932447,94.373494 C94.2226888,94.1799067 93.9325853,94.0153486 93.6277128,93.8825301 Z" id="Shape" fill="#C8C8BE"/>
          <path d="M206.765957,18.373494 C197.80109,17.4698795 186.146463,17.5873494 181.821809,17.7198795 L184.226064,32.7018072 C184.661835,32.5301205 186.002207,31.9909639 186.443989,31.8253012 C192.713085,29.4578313 201.617846,27.0301205 210.429441,26.253012 C217.131303,25.6506024 224.63859,26.5753012 225.882793,26.0120482 C225.905347,25.9545102 225.916573,25.8931401 225.915851,25.8313253 C225.726516,25.2228916 212.433989,18.939759 206.765957,18.373494 Z" id="Shape" fill="#64645A"/>
          <path d="M140.648936,36.9216867 C138.875798,37.9126506 137.096649,38.9066265 135.389628,39.8493976 L119.139867,45.6355422 L128.477394,79.7650602 C129.980053,80.1024096 137.069601,69.939759 137.742793,68.8283133 C138.415984,67.7168675 144.02992,60.996988 150.731782,54.9277108 C149.893298,53.063253 141.469388,39.186747 140.648936,36.9216867 Z" id="Shape" fill="#3C3C32"/>
          <path d="M184.226064,17.7710843 C183.171197,17.8072289 182.458936,17.8373494 182.176436,17.8373494 C182.73242,18.8403614 157.791277,26.746988 157.045957,27.746988 C156.511011,27.9487952 137.847979,38.9246988 137.847979,38.9246988 C137.847979,38.9246988 150.106676,53.5421687 150.740798,54.9307229 C151.492128,54.253012 152.49891,53.3644578 153.271277,52.7138554 C159.191755,47.7228916 169.644255,38.686747 184.226064,32.7048193 L184.226064,17.7710843 Z" id="Shape" fill="#828278"/>
          <path d="M190.744601,18.1114458 C189.641649,17.7771084 188.397447,17.0993976 187.273457,16.8343373 C185.190771,16.3463855 183.023936,16.4578313 180.905186,16.7349398 C177.025319,17.2409639 173.307739,18.5421687 169.713378,20.0753012 C162.073856,23.3222892 139.500904,37.6204819 132.321197,39.8283133 C127.031835,41.4518072 121.360798,41.686747 118.625957,41.7138554 L118.625957,46.9608434 C120.669574,47.3614458 131.356489,44.9578313 132.877181,44.4216867 C141.968271,41.2108434 148.309495,35.4849398 152.775399,32.5903614 C156.803171,29.9981531 161.01027,27.6971356 165.364681,25.7048193 C168.126569,24.4277108 174.272447,21.3915663 179.372473,20.3463855 C181.836835,19.8403614 185.329016,20.6114458 185.65359,20.7228916 C186.573218,21.0240964 187.498856,21.9638554 188.412473,21.813253 C189.32609,21.6626506 186.25766,19.9337349 186.660372,19.436747 C186.759548,19.313253 187.652128,19.3855422 188.09992,19.626506 C189.443298,20.3493976 191.333644,22.2108434 192.208191,21.8524096 C192.965532,21.5512048 189.32609,19.2018072 189.821968,18.8403614 C190.317846,18.4789157 192.746144,20.4909639 193.482447,20.1415663 C194.21875,19.7921687 191.48992,18.3403614 190.744601,18.1114458 Z" id="Shape" fill="#C8C8BE"/>
          <path d="M48.3856383,18.1054217 C45.2390691,17.9939759 29.9089362,17.3012048 19.2039894,18.373494 C13.5359574,18.939759 0.243430851,25.2228916 0.0510904255,25.8313253 C0.0529066547,25.8931679 0.065098315,25.9542626 0.0871542553,26.0120482 C1.33135638,26.5753012 8.83864362,25.6626506 15.5405053,26.253012 C24.3521011,27.0301205 33.2538564,29.4578313 39.5229521,31.8253012 C40.6679787,32.2560241 42.0864894,32.8373494 43.1834309,33.3072289 L48.3856383,18.1054217 Z" id="Shape" fill="#64645A"/>
          <path d="M106.833085,45.6355422 L90.5833245,39.8493976 C87.5780053,38.186747 75.6138298,31.8975904 75.6138298,31.8975904 C75.6138298,31.8975904 73.8376862,47.3644578 71.1629521,51.4066265 L72.7106915,52.7108434 C78.601117,57.6777108 93.5014894,76.4066265 93.5014894,76.4066265 L107.704628,65.3072289 L106.833085,45.6355422 Z" id="Shape" fill="#3C3C32"/>
          <path d="M68.9330053,27.7439759 C68.1876862,26.7439759 43.2465426,18.8373494 43.8055319,17.8343373 C43.6823138,17.8343373 43.4749468,17.8343373 43.2044681,17.8343373 L43.2044681,33.3222892 C55.8658777,38.7891566 65.2815426,46.4608434 71.1719681,51.4216867 C74.7948492,45.996593 78.0992866,40.3645606 81.068484,34.5542169 C74.7392819,30.9638554 69.3777926,27.9096386 68.9330053,27.7439759 Z" id="Shape" fill="#828278"/>
          <path d="M107.217766,41.9006024 C103.524229,41.689759 98.0305053,41.1716867 93.657766,39.8283133 C86.4810638,37.6204819 63.9051064,23.3222892 56.2655851,20.0753012 C52.6592021,18.5481928 48.9536436,17.2409639 45.0767819,16.7349398 C42.9580319,16.4578313 40.7911968,16.3463855 38.7085106,16.8343373 C37.5845213,17.0993976 36.3403191,17.7771084 35.237367,18.1114458 C34.4890426,18.3403614 31.7632181,19.7981928 32.496516,20.1475904 C33.2298138,20.496988 35.661117,18.4909639 36.1569947,18.8463855 C36.6528723,19.2018072 33.0164362,21.5391566 33.7737766,21.8584337 C34.6453191,22.2168675 36.5356649,20.3524096 37.8820479,19.6325301 C38.3298404,19.3915663 39.2194149,19.3313253 39.3215957,19.4427711 C39.7213032,19.939759 36.6528723,21.6686747 37.5664894,21.8192771 C38.4801064,21.9698795 39.40875,21.0451807 40.3253723,20.7289157 C40.6529521,20.6174699 44.1421277,19.8463855 46.6064894,20.3524096 C51.7155319,21.3975904 57.8553989,24.4337349 60.6172872,25.7108434 C64.9716981,27.7031597 69.1787971,30.0041772 73.2065691,32.5963855 C77.6694681,35.4909639 81.8528723,38.8614458 86.6373404,41.2439759 C87.7042287,41.7740964 92.6479787,44.5572289 97.8351596,45.9608434 C100.901206,46.7677717 104.049093,47.2215084 107.217766,47.313253 L107.217766,41.9006024 Z" id="Shape" fill="#C8C8BE"/>
          <path d="M112.398936,24.2289157 C110.733989,28.9819277 93.5135106,76.4066265 93.5135106,76.4066265 C93.5135106,76.4066265 99.8246809,82.9337349 100.939654,83.6746988 C105.03912,86.452234 109.904965,87.8702705 114.851277,87.7289157 C119.795027,87.6445783 125.760585,84.3915663 129.388005,80.9036145 C131.140106,79.2198795 132.660798,75.8554217 132.660798,75.8554217 L117.598138,22.9216867 L112.398936,24.2289157 Z" id="Shape" fill="#828278"/>
          <path d="M114.854282,0.177710843 L114.274255,0.177710843 C113.745319,0.376506024 109.55891,16.0271084 109.450718,17.3012048 C108.699388,26.2289157 111.187793,53.6114458 111.63859,57.3313253 C111.674654,57.6174699 112.365878,58.5783133 112.585266,58.7861446 C112.81367,58.8614458 113.748324,59.689759 114.622872,59.689759 C115.49742,59.689759 116.314867,58.873494 116.543271,58.7861446 C116.76266,58.5783133 117.444867,57.6174699 117.489947,57.3313253 C117.94375,53.5903614 120.272872,25.6054217 119.59367,17.0391566 C119.503511,15.873494 115.383218,0.376506024 114.854282,0.177710843 Z" id="Shape" fill="#64645A"/>
          <path d="M114.460585,27.936747 C113.37867,27.8885542 113.312553,33.376506 113.285505,33.8885542 C113.102181,37.4759036 113.70625,48.4819277 113.817447,49.9789157 C113.868636,50.1825863 113.945383,50.3789309 114.045851,50.563253 C114.102952,50.5933735 114.328351,50.9216867 114.541729,50.9216867 C114.755106,50.9216867 114.950452,50.5933735 115.007553,50.563253 C115.108022,50.3789309 115.184768,50.1825863 115.235957,49.9789157 C115.347154,48.4728916 115.912154,37.2259036 115.749867,33.7831325 C115.725824,33.313253 115.539495,27.9849398 114.460585,27.936747 Z" id="Shape" fill="#828278"/>
          <path d="M120.95508,27.5993976 C121.234574,27.2680723 121.52609,27.1144578 121.907766,27.2981928 C122.364574,28.0361446 122.268404,28.6024096 121.56516,29.2078313 C121.018191,28.8493976 120.885957,28.2409639 120.95508,27.5993976 Z" id="Shape" fill="#000000"/>
          <path d="M107.316941,27.5993976 C107.593431,27.2680723 107.887952,27.1144578 108.266622,27.2981928 C108.723431,28.0361446 108.627261,28.6024096 107.924016,29.2078313 C107.377048,28.8493976 107.247819,28.2409639 107.316941,27.5993976 Z" id="Shape" fill="#000000"/>
          <path d="M115.250984,55.4819277 C115.448449,55.3082052 115.723318,55.2531083 115.972261,55.3373494 C116.317872,55.6927711 116.245745,55.9668675 115.710798,56.2590361 C115.378742,56.1598604 115.178544,55.8215158 115.250984,55.4819277 Z" id="Shape" fill="#000000"/>
          <path d="M112.95492,55.5180723 C113.15353,55.3465329 113.427698,55.2927215 113.676197,55.376506 C114.024814,55.7319277 113.949681,56.0060241 113.417739,56.2981928 C113.084042,56.1989643 112.88253,55.8592988 112.95492,55.5180723 Z" id="Shape" fill="#000000"/>
        </g>
      </g>
    </g>
  </g>
</svg>