<svg width="152px" height="136px" viewBox="0 0 152 136" version="1.1" xml:space="preserve" xmlns="http://www.w3.org/2000/svg" xmlns:xlink="http://www.w3.org/1999/xlink">
  <!-- Generator: Sketch 48.2 (47327) - http://www.bohemiancoding.com/sketch -->
  <defs/>
  <g>
    <title>jordyn-d</title>
    <desc>Created with Sketch.</desc>
    <g id="soccer" stroke="none" stroke-width="1" fill="none" fill-rule="evenodd">
      <g id="jordyn-d" fill-rule="nonzero">
        <g id="scratch_footie_player_girl04" transform="translate(36.000000, 8.000000)">
          <path d="M61.2779874,86.8473896 C59.9194969,86.6164659 54.0578616,87.6506024 52.7245283,87.8062249 C52.6842767,88.6395582 55.3157233,98.3232932 55.7081761,99.0512048 L62.163522,99.0512048 C62.0578616,97.8212851 61.3836478,88.0873494 61.2779874,86.8473896 Z" id="Shape" fill="#DCAA78"/>
          <path d="M65.3685535,119.412651 C65.3559893,119.296003 65.3358208,119.180296 65.3081761,119.066265 C65.0767296,113.328313 64.0402516,97.7359438 63.9295597,97.1034137 C60.5384337,96.8131591 57.1276601,96.8366865 53.7408805,97.1736948 C56.1408805,105.245984 62.4654088,120.040161 62.8981132,121.455823 C63.4012579,121.85241 64.8,121.25 65.3333333,121.139558 C65.6301887,120.552209 65.408805,119.97992 65.3685535,119.412651 Z" id="Shape" fill="#000000"/>
          <path d="M71.9496855,121.581325 C71.1396226,121.581325 70.3245283,121.651606 69.5194969,121.581325 C68.5929219,121.433202 67.6591092,121.334334 66.7220126,121.285141 C66.6867925,121.285141 64.8955975,113.358434 64.7949686,113.308233 C64.6943396,113.258032 62.6062893,117.103414 62.6062893,117.103414 C62.6062893,117.103414 62.8930818,121.305221 62.918239,121.460843 C62.9514183,121.594606 62.9951608,121.725537 63.0490566,121.85241 C63.1440882,122.086836 63.2198106,122.3286 63.2754717,122.575301 C63.3408805,122.986948 63.3157233,123.408635 63.4012579,123.815261 C63.4867925,124.221888 63.7031447,124.34739 64.1962264,124.226908 C64.5537973,123.776449 64.5192869,123.13084 64.1157233,122.720884 L64.472956,121.87249 C64.9761006,121.752008 65.2578616,122.073293 65.5446541,122.344378 L65.7157233,123.930723 L66.490566,124.121486 C66.5287645,123.929752 66.5473087,123.734637 66.5459119,123.539157 C66.5068886,123.2609 66.4480393,122.985772 66.3698113,122.715863 C66.271449,122.470963 66.3677926,122.191129 66.5962264,122.058233 L67.8540881,122.208835 C68.5283019,122.836345 68.1157233,123.790161 68.6238994,124.518072 L69.2226415,124.548193 C69.4289308,123.795181 68.6691824,123.11747 69.1622642,122.429719 L70.1081761,122.429719 C70.3562557,122.611233 70.4563247,122.933175 70.354717,123.222892 C70.2238994,123.7249 70.4402516,123.985944 70.9132075,124.191767 L71.3006289,123.970884 L71.3006289,122.575301 C71.8339623,122.48494 72.5081761,122.886546 72.6742138,122.073293 C72.5679331,121.767782 72.2735285,121.567876 71.9496855,121.581325 Z" id="Shape" fill="#000000"/>
          <polygon id="Shape" fill="#F01446" points="63.0188679 110.476908 57.4842767 110.396586 56.236478 107.439759 63.0188679 107.439759"/>
          <path d="M63.481761,100.873494 C65.2125786,100.873494 66.8779874,101.917671 67.2654088,102.51004 C68.310398,104.053533 68.9805281,105.818749 69.2226415,107.665663 C69.7257862,111.004016 68.5081761,116.385542 65.1320755,116.832329 C58.7924528,117.665663 57.7962264,101.907631 63.481761,100.873494 Z" id="Shape" fill="#00A08C"/>
          <path d="M63.8993711,103.870482 C64.7907406,103.874921 65.6428967,104.236722 66.2641509,104.874498 C66.9170548,105.839465 67.3356655,106.942926 67.4867925,108.09739 C67.808805,110.185743 67.0389937,113.549197 64.9308176,113.830321 C60.9459119,114.36747 60.3220126,104.533133 63.8993711,103.870482 Z" id="Shape" fill="#008264"/>
          <rect id="Rectangle-path" fill="#F01446" x="52.8805031" y="96.1746988" width="11.9194969" height="2.76606426"/>
          <path d="M17.5194969,87.0180723 C17.2679245,87.8012048 15.0037736,97.2088353 14.918239,98.062249 L22.0477987,97.3895582 C22.4553459,96.8172691 26.3345912,88.9558233 26.3849057,88.1626506 C24.7849057,88.1676707 19.1194969,86.9879518 17.5194969,87.0180723 Z" id="Shape" fill="#DCAA78"/>
          <path d="M22.6867925,98.0170683 L13.9471698,98.0170683 L10.118239,118.880522 C10.118239,118.880522 8.25157233,119.101406 7.97484277,119.101406 C7.13459119,119.101406 6.29433962,119.101406 5.4591195,119.056225 C5.00815815,119.051732 4.60927186,119.347143 4.48301887,119.779116 L4.59874214,120.155622 L5.49937107,120.261044 L6.4754717,120.100402 L6.30943396,122.48494 C6.74716981,122.821285 6.74716981,122.821285 7.14465409,122.610442 L7.37106918,120.01004 L8.52830189,120.145582 C8.59711863,120.881937 8.59711863,121.623083 8.52830189,122.359438 L9.42389937,122.570281 C9.50943396,122.349398 9.35345912,121.28012 9.64528302,120.205823 L10.9333333,120.085341 C10.9836478,121.014056 10.6062893,121.85241 10.9886792,122.710843 L11.6679245,122.710843 C11.8691824,121.84739 11.3509434,120.863454 12.2867925,120.065261 L13.2930818,120.115462 C13.4641509,120.983936 12.8352201,121.797189 13.4893082,122.580321 L13.9471698,122.725904 L14.3245283,122.429719 C14.3214393,122.341759 14.3096419,122.254319 14.2893082,122.168675 C14.3340811,121.371923 14.4400524,120.579773 14.6062893,119.799197 C14.6062893,119.799197 20.191195,104.533133 22.6867925,98.0170683 Z" id="Shape" fill="#000000"/>
          <polygon id="Shape" fill="#F01446" points="13.9421384 110.476908 19.4767296 110.396586 20.7245283 107.439759 13.9421384 107.439759"/>
          <path d="M17.7811321,105.687751 C17.679093,107.2695 17.3258434,108.825031 16.7345912,110.296185 C15.8289308,112.369478 12.9459119,117.063253 9.87169811,115.170683 C8.86540881,114.322289 7.9245283,113.664659 7.60754717,112.354418 C7.21509434,110.778112 7.40125786,109.221888 7.6327044,107.645582 C7.86415094,106.069277 8.78993711,102.831325 11.3006289,101.415663 C12.4075472,100.793173 15.4616352,100.286145 16.9257862,101.470884 C18.1132075,102.409639 17.8515723,104.96988 17.7811321,105.687751 Z" id="Shape" fill="#00A08C"/>
          <path d="M15.9798742,106.561245 C15.915416,107.594909 15.6861204,108.611698 15.3006289,109.573293 C14.7119497,110.923695 12.8352201,113.975904 10.8377358,112.745984 C10.1786164,112.193775 9.56981132,111.741968 9.36352201,110.913655 C9.16088935,109.902916 9.16088935,108.862144 9.36352201,107.851406 C9.51949686,106.802209 10.118239,104.718876 11.7484277,103.795181 C12.4679245,103.388554 14.4553459,103.057229 15.4062893,103.830321 C16.191195,104.417671 16.0301887,106.094378 15.9798742,106.561245 Z" id="Shape" fill="#008264"/>
          <rect id="Rectangle-path" fill="#F01446" x="12.2465409" y="96.1746988" width="11.9194969" height="2.76606426"/>
          <path d="M50.8176101,16.1746988 C51.7132075,14.6385542 52.6792453,12.6004016 54.8880503,13.1626506 C56.563522,13.5843373 57.3283019,15.7831325 57.0012579,17.3694779 C56.6742138,18.9558233 54.872956,20.4819277 53.2226415,20.4618474 C50.3144654,20.4116466 50.5509434,18.3383534 50.8176101,16.1746988 Z" id="Shape" fill="#DCAA78"/>
          <path d="M52.2314465,9.03614458 L37.9974843,6.70180723 L29.3534591,5.2811245 C27.2301887,4.93473896 27.0993711,4.69879518 26.0830189,6.9126506 C24.2918239,10.8182731 24.9660377,16.4508032 26.1886792,20.5421687 C26.9584906,23.1174699 31.7232704,31.6415663 39.4213836,31.6415663 C47.1194969,31.6415663 52.2012579,22.7961847 52.4377358,20.8584337 C52.969148,16.9299707 52.8995921,12.9437708 52.2314465,9.03614458 Z" id="Shape" fill="#DCAA78"/>
          <path d="M24.2465409,6.25 C24.2465409,6.25 20.2867925,7.55522088 18.6314465,9.87951807 C16.5836478,12.7610442 16.2666667,16.0993976 15.4012579,19.4176707 C14.6113208,22.4598394 13.1069182,25.2309237 10.1232704,26.5261044 C7.13962264,27.8212851 3.45157233,26.9277108 1.90188679,23.8554217 C-0.875471698,18.3634538 1.67044025,8.92068273 6.73207547,5.58232932 C9.51446541,3.74497992 12.9257862,3.6746988 16.1106918,4.07630522 C18.9115647,4.41571027 21.6504777,5.14747912 24.2465409,6.25 Z" id="Shape" fill="#000000"/>
          <path d="M26.0528302,6.52610442 C29.0716981,0.93373494 36.4477987,-0.833333333 42.8981132,0.557228916 C50.9081761,2.27911647 53.6402516,7.87650602 53.0012579,14.6937751 C48.6238994,14.7690763 26.309434,7.22891566 26.0528302,6.52610442 Z" id="Shape" fill="#000000"/>
          <path d="M27.3660377,13.875502 C27.3660377,13.875502 29.4540881,18.2379518 29.5647799,20.1455823 C28.4830189,20.1455823 25.509434,20.8985944 24.1157233,20.5421687 C22.9937107,20.2560241 21.7861635,19.3975904 21.5245283,18.2228916 C21.2880503,17.1586345 20.7144654,14.9297189 21.1672956,13.9759036 C22.872956,10.4066265 27.3660377,13.875502 27.3660377,13.875502 Z" id="Shape" fill="#DCAA78"/>
          <path d="M25.1823899,10.3564257 C23.9255903,9.49652728 23.4676167,7.86127798 24.0955975,6.47590361 C25.1421384,3.96586345 27.6176101,4.96987952 27.6176101,4.96987952 L25.1823899,10.3564257 Z" id="Shape" fill="#F01446"/>
          <path d="M39.2150943,13.5893574 C39.5934997,14.2678891 39.9068403,14.9805572 40.1509434,15.7178715 C40.2918239,16.3253012 40.5584906,17.0381526 39.9396226,17.6204819 C39.5933234,18.0026436 39.0358418,18.1110252 38.5710692,17.8865462 C38.1333333,17.7108434 38.0679245,17.3443775 38.0025157,16.9226908 C37.9682303,15.9808117 38.2094918,15.0493433 38.6968553,14.2419679 C38.8485751,14.0086025 39.0220955,13.790091 39.2150943,13.5893574 Z" id="Shape" fill="#BE8C64"/>
          <path d="M41.1773585,21.0843373 C40.2968553,20.938755 39.4264151,20.7429719 38.5358491,20.6526104 C37.836478,20.5773092 36.8805031,20.2259036 36.2113208,20.2610442 C34.6062893,20.3564257 35.1144654,22.3694779 35.8289308,23.2730924 C37.4238994,25.2811245 42.4603774,24.1767068 43.0540881,21.6767068 C42.4470948,21.4248245 41.8191067,21.2266068 41.1773585,21.0843373 Z" id="Shape" fill="#000000"/>
          <path d="M32.4779874,14.1516064 C32.9257862,14.0261044 33.1672956,14.1516064 33.2427673,14.3875502 C33.3534591,14.7540161 33.318239,16.1044177 32.9559748,16.3554217 L32.4528302,16.1797189 L32.4779874,14.1516064 Z" id="Shape" fill="#000000"/>
          <path d="M46.0578616,16.1997992 C45.554717,16.0843373 45.2628931,15.2459839 45.554717,14.6686747 C45.6352201,14.503012 45.7962264,14.3273092 45.9119497,14.3423695 C46.027673,14.3574297 46.2037736,14.5783133 46.2289308,14.7540161 C46.3587226,15.2400804 46.2975293,15.7572531 46.0578616,16.1997992 Z" id="Shape" fill="#000000"/>
          <path d="M35.4566038,6.02409639 L25.0213836,18.5742972 C25.0213836,18.5742972 19.8591195,2.40461847 35.627673,0.31626506 L35.4566038,6.02409639 Z" id="Shape" fill="#000000"/>
          <polygon id="Shape" fill="#000000" points="30.2742138 4.87951807 28.2867925 20.2811245 34.4855346 6.39558233"/>
          <path d="M16.7647799,73.6144578 L15.2150943,82.5702811 C15.2150943,82.5702811 15.627673,84.7389558 16.4477987,85.8082329 L20.2616352,72.8714859 L16.7647799,73.6144578 Z" id="Shape" fill="#DCAA78"/>
          <path d="M57.0767296,71.7871486 L60.9660377,86.5813253 C60.9660377,86.5813253 61.4691824,76.4206827 64.991195,73.5893574 L64.991195,71.5311245 L57.0767296,71.7871486 Z" id="Shape" fill="#DCAA78"/>
          <path d="M28.7597484,90.6626506 L32.3823899,78.8202811 L45.1773585,78.6797189 L45.1773585,78.5592369 L49.5194969,90.6576305 L63.7283019,90.6576305 C61.927044,82.3092369 59.5522013,70.2660643 58.5509434,67.9869478 L29.8716981,67.3644578 C27.9899371,67.3242972 21.8918239,66.2449799 20.5786164,67.4598394 C19.9899371,68.002008 19.6477987,70.5271084 19.4012579,71.3052209 C18.7572327,73.3500669 18.1014675,75.3915663 17.4339623,77.4297189 C16.0050314,81.8406961 14.5610063,86.2483266 13.1018868,90.6526104 L28.7597484,90.6626506 Z" id="Shape" fill="#F01446"/>
          <path d="M79.4968553,53.935743 C78.6264151,46.9477912 74.0176101,41.8524096 68.3169811,38.6696787 C66.7119497,37.7761044 60.6138365,36.2951807 59.2352201,36.3002008 L58.6616352,44.5431727 C64.9056604,44.5431727 68.6792453,47.0833333 70.6515723,53.6395582 C72.6238994,60.1957831 69.4188679,63.8002008 67.9496855,65.8785141 C66.4805031,67.9568273 62.1132075,69.7088353 60.427673,70.2459839 C58.7421384,70.7831325 55.8238994,70.0251004 54.4402516,71.1947791 C55.3006289,73.1726908 58.5559748,71.7771084 59.8691824,73.7751004 C61.1823899,75.7730924 60.991195,76.2851406 62.0528302,78.4839357 C62.2591195,78.4036145 63.0591195,76.9126506 63.6377358,76.2700803 C64.7245283,75.0200803 66.3194969,75.1957831 67.8238994,74.7289157 C70.7468276,73.8302932 73.3491592,72.1121036 75.3207547,69.7791165 C78.772327,65.6827309 80.1660377,59.2720884 79.4968553,53.935743 Z" id="Shape" fill="#DCAA78"/>
          <path d="M22.309434,72.1435743 C21.5446541,71.3905622 19.3459119,72.2791165 18.3698113,72.2088353 C17.2167311,72.0447063 16.1081975,71.6521341 15.109434,71.0542169 C13.0666667,69.8493976 11.3106918,67.4046185 10.0779874,65.2610442 C7.44150943,60.6777108 7.15471698,54.8092369 11.1798742,49.2369478 C15.2050314,43.6646586 19.0540881,44.6184739 19.3761006,44.4829317 L19.2201258,36.8373494 C16.7044025,37.2038153 14.2490566,37.3393574 11.8389937,38.5341365 C9.79119497,39.5381526 -1.79119497,45.2459839 0.553459119,57.7961847 C1.71069182,63.9959839 4.3572327,69.7690763 9.0163522,73.4889558 C10.445283,74.6285141 13.4591195,75.3313253 14.5509434,76.7419679 C15.9345912,78.5391566 14.3748428,80.496988 15.2150943,82.565261 C16.191195,79.8092369 16.4830189,78.0873494 17.6603774,75.4467871 C18.2792453,74.0562249 18.6666667,73.7198795 20.0301887,73.438755 C20.6289308,73.2931727 23.7685535,73.5742972 22.309434,72.1435743 Z" id="Shape" fill="#DCAA78"/>
          <path d="M60.9459119,45.8232932 C60.5968679,43.2402842 60.4069934,40.638341 60.3773585,38.0321285 C60.3421384,37.5953815 60.3119497,35.6777108 60.281761,35.3062249 L40.0955975,35.3062249 L32.4377358,53.3785141 L36.2264151,63.7048193 L40.0754717,70.0401606 L59.5572327,69.2771084 C58.5056604,64.6736948 55.6226415,53.2128514 53.7358491,45.7379518 L60.9459119,45.8232932 Z" id="Shape" fill="#008264"/>
          <path d="M18.3245283,35.3012048 C18.2490566,36.4056225 18.118239,39.0261044 18.2037736,40.1355422 C18.2806499,41.0604683 18.3075232,41.9888554 18.2842767,42.9166667 C18.2842767,43.5893574 18.163522,44.7640562 18.6012579,45.2911647 C19.0691824,45.3363454 21.6955975,45.3915663 25.4238994,45.4518072 C23.5018868,52.625502 20.5836478,63.5692771 18.681761,70.8534137 L40.0955975,70.0451807 L40.0955975,35.3062249 L18.3245283,35.3012048 Z" id="Shape" fill="#00A08C"/>
          <path d="M49.4238994,41.3504016 C50.5358491,42.3845382 51.2301887,43.7399598 51.2603774,44.1817269 C51.4056786,45.2280834 51.1834517,46.2923626 50.6314465,47.1937751 C49.9770644,48.137864 48.9548809,48.7638145 47.814917,48.9185223 C46.6749532,49.0732301 45.5223374,48.7424279 44.6389937,48.0070281 C40.2515723,44.503012 45.3735849,38.3433735 49.4238994,41.3504016 Z" id="Shape" fill="#00A08C"/>
          <rect id="Rectangle-path" fill="#F01446" x="57.7559748" y="34.3825301" width="4.68427673" height="12.1837349"/>
          <rect id="Rectangle-path" fill="#F01446" x="17.1421384" y="34.3825301" width="4.68427673" height="12.1837349"/>
        </g>
      </g>
    </g>
  </g>
</svg>