<svg width="201px" height="201px" viewBox="0 0 201 201" version="1.1" xml:space="preserve" xmlns="http://www.w3.org/2000/svg" xmlns:xlink="http://www.w3.org/1999/xlink">
  <defs/>
  <g>
    <title>llama-b</title>
    <desc>Created with Sketch.</desc>
    <g id="mountain" stroke="none" stroke-width="1" fill="none" fill-rule="evenodd">
      <g id="llama-b">
        <g id="Group-83" transform="translate(100.500000, 101.000000) scale(-1, 1) translate(-100.500000, -101.000000) translate(9.000000, 11.000000)">
          <path d="M28.6417209,100.731555 L5.11846512,93.4984602 C5.11846512,93.4984602 3.20209302,94.1165457 2.87651163,96.8787574 C2.55093023,99.6409691 0.0673953488,139.862671 0.0673953488,139.862671 C0.0673953488,139.862671 -0.631953488,145.955135 3.52246512,145.955135 C12.2812558,145.955135 18.2393953,148.446974 19.2148372,149.700044 C20.1902791,150.952463 17.0432093,139.1042 17.0432093,139.1042 L7.05827907,139.687189 C6.4207907,136.356287 11.6509302,108.839459 11.7915814,108.002996 C11.8345581,107.744973 14.0914884,108.73677 15.2310233,109.549185 C16.3705581,110.3616 33.4440465,119.118786 33.4440465,119.118786 L28.6417209,100.731555 Z" id="Fill-1" fill="#BB9696"/>
          <path d="M3.52233488,145.9552 C3.52233488,145.9552 1.65935814,143.166991 4.4163814,140.713497 C5.64512558,139.619661 14.7418698,139.278447 16.8750791,139.117263 C17.0430791,139.104265 18.2640093,141.650699 19.4302419,149.722856 C19.4302419,149.722856 17.9651256,148.068779 12.1320093,146.904101 C8.58317209,146.195674 7.25675349,146.364007 3.52233488,145.9552" id="Fill-3" fill="#5F5579"/>
          <path d="M166.024958,179.524391 C166.024958,179.524391 171.667284,171.249454 173.375935,170.030831 C173.615563,169.859899 165.384865,165.934309 164.096865,163.965015 C163.990726,163.802532 167.332493,156.102785 167.990167,154.097095 C168.823656,151.55456 182.038353,124.618122 182.084586,122.449948 C182.145795,119.579848 180.858447,120.016602 178.55854,119.963308 C171.287656,119.796275 162.198726,117.35838 157.260307,106.932818 C152.623377,97.1435398 137.209702,121.367811 149.039377,126.512674 C160.869051,131.657537 168.601609,130.141245 166.973702,134.013541 C165.345795,137.885837 157.693981,161.819589 157.055842,164.10605 C156.148121,167.357661 157.134633,168.177225 158.677237,169.75331 C160.861888,171.984528 166.079656,177.330869 166.024958,179.524391" id="Fill-5" fill="#BB9696"/>
          <path d="M158.403684,169.191509 C158.403684,169.191509 158.210288,164.804467 161.726567,164.443105 C164.755126,164.132437 166.724242,166.166075 168.813172,167.35805 C170.902102,168.550026 173.373916,170.029272 173.259963,170.152759 C166.91894,177.044639 166.484614,179.284955 166.231312,179.524131 C165.942195,179.797752 165.698009,177.884352 163.899498,175.567993 C162.653172,173.962011 159.901358,171.052265 158.403684,169.191509" id="Fill-7" fill="#5F5579"/>
          <path d="M28.003907,100.595719 L6.29869767,93.663543 C6.29869767,93.663543 3.31376744,92.25514 2.77134884,97.6710247 C2.17618605,103.615304 0.0579534884,140.025154 0.0579534884,140.025154 C0.0579534884,140.025154 -0.647906977,145.71271 3.80213953,145.983082 C8.25218605,146.253453 18.1283721,147.33689 19.4847442,150.099102 C19.4847442,150.099102 18.2911628,141.59604 17.0428837,139.1042 L7.05860465,139.862671 C7.05860465,139.862671 7.22074419,133.687665 8.19748837,128.380319 C9.17423256,123.072973 12.1591628,106.066198 12.1591628,105.741232" id="Stroke-9" stroke="#26214B" stroke-width="0.5"/>
          <path d="M32.8335814,118.902358 L11.8348837,107.744973" id="Stroke-11" stroke="#26214B" stroke-width="0.5"/>
          <path d="M3.52233488,145.9552 C3.52233488,145.9552 0.764009302,140.675151 7.0588,139.862736" id="Stroke-13" stroke="#26214B" stroke-width="0.5"/>
          <path d="M159.790595,110.994634 C159.790595,110.994634 164.123433,117.402315 171.096735,118.848414 C178.150781,120.310761 180.972921,119.985795 180.972921,119.985795 C180.972921,119.985795 183.849107,120.03974 180.593293,126.539061 C177.337479,133.038383 164.910688,160.227645 164.096735,163.964755 C163.879898,164.668631 173.375805,170.030572 173.375805,170.030572 C173.375805,170.030572 167.624084,176.042444 166.050223,179.942037 C166.050223,179.942037 166.593293,177.396253 158.182223,169.272101 C155.903153,167.159821 156.8252,165.317913 157.096735,163.91016 C157.36827,162.502407 166.918874,133.742909 166.918874,133.742909 C166.918874,133.742909 166.702037,131.251719 157.802595,128.218486" id="Stroke-15" stroke="#26214B" stroke-width="0.5"/>
          <path d="M165.048865,164.917425 C165.048865,164.917425 161.111935,163.503823 159.511377,165.453619 C157.910819,167.403416 158.253981,169.553391 159.22226,170.293014" id="Stroke-17" stroke="#26214B" stroke-width="0.5"/>
          <path d="M75.652614,14.7577495 C75.652614,14.7577495 76.7491721,0.0328865672 89.3628465,0.601577205 L79.3512186,14.6830073 L75.652614,14.7577495 Z" id="Fill-19" fill="#D7C3BC"/>
          <path d="M64.3640558,35.6298008 C64.3640558,35.6298008 65.5035907,29.8343558 63.4960558,25.9347628 C61.4885209,22.0351699 61.5933581,17.7846136 61.5933581,17.7846136 C61.5933581,17.7846136 66.7173581,15.174486 74.3450791,14.8995647 C81.2168,14.6525905 80.6463814,14.3997669 80.6463814,14.3997669 C80.6463814,14.3997669 92.7404279,-0.251653731 102.508521,2.83552402 C102.508521,2.83552402 88.8477767,13.3572757 84.6718698,16.3352649 C84.6718698,16.3352649 91.1294512,21.669908 89.920893,29.688771 C88.6341953,38.2295294 83.448986,46.4648198 78.1543814,54.4693843 C72.5022884,63.0146923 68.1987535,71.572349 68.1987535,71.572349 C68.1987535,71.572349 72.1441488,73.5949379 80.944614,75.3029596 C98.5260093,78.7151034 128.479498,72.0013042 134.838102,72.5309989 C145.013172,73.3798103 160.871591,81.3284806 162.716335,82.8447723 C162.716335,82.8447723 162.089265,88.9515349 151.443405,87.8609487 C151.443405,87.8609487 157.641172,99.8372486 159.801079,111.370945 C161.961637,122.904641 160.111684,126.390227 160.111684,126.390227 L129.507033,131.548738 C129.507033,131.548738 118.227591,141.20543 89.0776372,141.921006 C67.548893,142.448751 36.1980093,136.668904 28.5318698,113.528719 C20.7869395,90.1532594 38.7850791,68.6099582 44.4736372,62.1964277 C56.4114047,48.7376326 64.3640558,35.6298008 64.3640558,35.6298008" id="Fill-21" fill="#D7C3BC"/>
          <path d="M48.2884744,28.1346532 C48.2884744,28.1346532 57.1169395,26.5039734 59.538614,21.7568689 C60.6957302,19.4899056 57.6385209,19.8538676 61.8385209,17.7571864 C65.0396372,16.1590033 63.7164744,18.4097183 62.8419628,18.7047875 C61.9668,18.9998567 74.5414047,17.4315704 78.3012186,19.7238811 C81.4111721,21.6203832 82.7564744,27.0707142 76.7488465,33.2847156 C71.9953581,38.2008024 73.9162884,34.832854 73.9162884,34.832854 L72.9890326,35.7921539 C72.9890326,35.7921539 60.7797302,34.4922896 54.8450326,35.407394 C49.0321023,36.3043004 47.7968465,36.0287292 47.5936837,35.1350725 C47.3898698,34.2414157 44.9922884,28.7436396 48.2884744,28.1346532" id="Fill-23" fill="#F0E1DB"/>
          <path d="M75.671693,14.6054054 C75.671693,14.6054054 76.3599721,7.3086171 80.3483442,3.72944071 C84.1439721,0.321846404 89.0368093,0.601317232 89.0368093,0.601317232 C89.0368093,0.601317232 78.6182047,4.43981655 76.7825767,14.5131151 L75.671693,14.6054054 Z" id="Fill-25" fill="#BB968C"/>
          <path d="M80.6533488,14.8998897 C80.3277674,14.5950715 91.3773488,0.585783853 102.35986,2.79750299 C102.35986,2.79750299 98.8045116,2.61162239 80.6533488,14.8998897" id="Fill-27" fill="#BB968C"/>
          <path d="M80.7487442,15.2921237 C80.7487442,15.2921237 96.7276279,3.55304912 102.25014,3.03180353" id="Stroke-29" stroke="#26214B" stroke-width="0.5"/>
          <path d="M60.8742791,18.3317265 C60.8742791,18.3317265 63.2210698,16.9720684 63.818186,17.2424402 C64.4153023,17.5128119 62.8414419,18.7047875 62.8414419,18.7047875 C62.8414419,18.7047875 75.4844186,17.3503289 78.7949302,20.0585962 C82.1054419,22.7668635 80.965907,26.6125121 79.8804186,29.103702 C78.7949302,31.594892 73.4775349,36.6318662 73.4775349,36.6318662 L73.965907,34.6281254 C73.965907,34.6281254 73.5875814,35.8538974 72.5001395,35.7109123 C72.5001395,35.7109123 64.0897209,34.3564537 51.5548372,35.7109123 C50.0897209,35.819451 47.9734419,36.739755 47.3763256,34.411048 C46.7792093,32.0823411 46.4536279,29.8075786 46.6164186,29.6450955 C46.7792093,29.4826125 46.3455349,28.3452312 48.950186,28.0202651 C51.5548372,27.6952991 61.334,24.1746166 59.5374419,19.4626084 C59.5374419,19.4626084 63.2757674,14.3716898 80.5856279,14.6966559 C80.5856279,14.6966559 92.0897209,0.0731823609 102.508326,2.83539403 L84.5466512,16.430025 C84.5466512,16.430025 82.8646977,17.675295 84.0582791,18.8126763" id="Stroke-31" stroke="#26214B" stroke-width="0.5"/>
          <path d="M65.6092093,23.1998483 C65.6092093,23.1998483 72.7173023,23.4715199 73.2603721,23.4169256 C73.2603721,23.4169256 72.3376744,27.4244073 69.4347907,27.0454969 C69.1365581,26.9369582 66.5859535,27.369813 65.6092093,23.1998483" id="Fill-33" fill="#26214B"/>
          <path d="M47.267907,28.9952934 L53.5086512,28.9952934 C53.5086512,28.9952934 50.0353488,32.9494806 47.5394419,32.8409419 C46.3653953,32.8428917 46.9716279,32.6505118 46.9716279,32.6505118 C46.9716279,32.6505118 46.3347907,29.8519039 46.6909767,29.3001115 C46.9149767,28.9530478 47.267907,28.9952934 47.267907,28.9952934" id="Fill-35" fill="#26214B"/>
          <path d="M79.3510233,14.6828123 L89.3626512,0.601382225 C89.3626512,0.601382225 77.605907,-1.00330027 75.6524186,14.7575545" id="Stroke-37" stroke="#26214B" stroke-width="0.5"/>
          <path d="M89.3626512,0.601382225 C77.7641395,4.82594125 76.7489767,14.7575545 76.7489767,14.7575545" id="Stroke-39" stroke="#26214B" stroke-width="0.5"/>
          <path d="M84.5469767,16.430155 C84.5469767,16.430155 91.2754419,21.7647981 89.9731163,30.3763992 C88.6707907,38.9880003 80.4928372,51.5804358 76.2986977,57.6735498 C72.1045581,63.7666638 67.4266047,73.4344046 66.7754419,75.3029596" id="Stroke-41" stroke="#26214B" stroke-width="0.5"/>
          <path d="M68.3041116,71.8705379 C68.3041116,71.8705379 79.879838,76.2777278 91.9263553,76.2777278 C103.972873,76.2777278 131.11856,73.028067 131.11856,73.028067 C131.11856,73.028067 134.321631,72.501622 136.254934,72.8610345 C140.64182,73.6779992 160.984155,91.0636844 160.949688,124.535191" id="Stroke-43" stroke="#26214B" stroke-width="0.5"/>
          <path d="M151.279702,88.0725016 C150.969749,88.1277459 160.827702,89.0733972 162.822214,83.1427662 C162.822214,83.1427662 146.168726,73.1676075 133.719795,72.7594501" id="Stroke-45" stroke="#26214B" stroke-width="0.5"/>
          <path d="M156.014633,88.0470893 C156.014633,88.0470893 155.974912,87.9515493 155.905888,87.7845167 C155.817981,87.6434814 155.692958,87.4413525 155.54254,87.1989278 C155.412958,86.948054 155.145981,86.6757324 154.919377,86.3715642 C154.678447,86.0693457 154.421237,85.7476293 154.164028,85.425263 C153.021888,84.217689 151.8804,83.010765 151.8804,83.010765 L154.399098,85.2003864 C154.692121,85.501305 154.985144,85.8022236 155.259284,86.0842942 C155.528214,86.3813132 155.805609,86.6055398 155.997702,86.8921598 C156.198912,87.1644814 156.36626,87.3919577 156.48347,87.5505411 C156.570074,87.7123742 156.618912,87.8046646 156.618912,87.8046646 L156.014633,88.0470893 Z" id="Fill-47" fill="#26214B"/>
          <path d="M160.437916,86.0972928 C160.437916,86.0972928 160.38387,86.008902 160.290102,85.8548681 C160.181358,85.7287813 160.027033,85.5487501 159.841451,85.3323227 C159.674102,85.1041965 159.368056,84.8760703 159.097823,84.610248 C158.813265,84.3489753 158.509172,84.0701544 158.20573,83.7906836 C156.892335,82.7735398 155.578288,81.7550961 155.578288,81.7550961 L158.403033,83.5326605 C158.739033,83.7848342 159.075033,84.0376578 159.390195,84.2742331 C159.7008,84.5264068 160.009451,84.7051381 160.243219,84.9586117 C160.484149,85.1971368 160.684707,85.3966659 160.825358,85.5357514 C160.934753,85.6819862 160.997265,85.7658274 160.997265,85.7658274 L160.437916,86.0972928 Z" id="Fill-49" fill="#26214B"/>
          <path d="M129.612651,131.847057 C129.612651,131.847057 114.473116,141.921006 87.6126512,141.921006 C60.752186,141.921006 31.0428837,133.309405 27.0545116,107.555843 C24.4498605,85.4581495 38.4446512,69.5107642 40.9731163,66.3663924 C42.5723721,64.4198456 63.0325581,40.6914725 64.4156279,35.1280532" id="Stroke-51" stroke="#26214B" stroke-width="0.5"/>
          <path d="M114.447005,138.47461 C114.447005,138.47461 113.088028,138.816475 111.024493,139.081647 C110.506819,139.132992 109.948772,139.218133 109.353609,139.252579 C108.759098,139.301974 108.132028,139.346819 107.481516,139.359168 C106.832307,139.394914 106.159005,139.376716 105.477237,139.368267 C104.794167,139.364368 104.102633,139.288326 103.411749,139.250629 C102.72347,139.161589 102.033237,139.090746 101.361237,138.971809 C100.6964,138.819724 100.027005,138.734583 99.4070977,138.537004 C99.0951907,138.445364 98.7891442,138.355673 98.4889581,138.267932 C98.3391907,138.223737 98.1907256,138.180191 98.0448651,138.136646 C97.9029116,138.080752 97.7629116,138.024207 97.6248651,137.968963 C97.0778884,137.734338 96.5374233,137.566655 96.0822605,137.316431 C95.6251442,137.071407 95.2057953,136.84653 94.8346326,136.647651 C94.4699814,136.437723 94.1847721,136.201798 93.9334233,136.034115 C93.440493,135.685752 93.1591907,135.486222 93.1591907,135.486222 C93.1591907,135.486222 93.4444,135.679902 93.9451442,136.018517 C94.1990977,136.18035 94.488214,136.409126 94.8554698,136.611905 C95.2298884,136.802335 95.652493,137.017463 96.1128651,137.251438 C96.5699814,137.491913 97.1130512,137.647897 97.6606791,137.869524 C97.7993767,137.921518 97.9387256,137.974163 98.0806791,138.028107 C98.2278419,138.068403 98.3756558,138.108699 98.5254233,138.148994 C98.8256093,138.230236 99.1310047,138.313427 99.4429116,138.397269 C100.061516,138.581199 100.729609,138.652042 101.391842,138.788528 C102.060586,138.893817 102.747563,138.949061 103.430633,139.024453 C104.11826,139.046551 104.803935,139.108944 105.481144,139.098545 C106.158353,139.092046 106.824493,139.097245 107.467842,139.048501 C108.111842,139.023153 108.733051,138.966609 109.3204,138.904866 C109.909051,138.85807 110.460586,138.76188 110.9724,138.701437 C113.015749,138.395319 114.333702,138.033956 114.333702,138.033956 L114.447005,138.47461 Z" id="Fill-53" fill="#26214B"/>
          <path d="M92.2725023,142.072126 C92.2725023,142.072126 90.8705488,142.080537 88.8037581,141.84591 C88.2886884,141.772467 87.7267349,141.722422 87.139386,141.614533 C86.5507349,141.520943 85.9314791,141.414353 85.2959442,141.272667 C84.6571535,141.151779 84.0085953,140.973697 83.3476651,140.803414 C82.6854326,140.637031 82.0323163,140.397854 81.3700837,140.197024 C80.7241302,139.946149 80.0697116,139.713473 79.4465488,139.43725 C78.8364093,139.132431 78.2067349,138.890005 77.6519442,138.550089 C77.371293,138.386955 77.0945488,138.226421 76.8249674,138.069786 C76.6895256,137.991794 76.5560372,137.913802 76.4245023,137.83711 C76.3007814,137.748069 76.1777116,137.660327 76.0572465,137.573236 C75.5818977,137.215122 75.0974326,136.923951 74.7152,136.572336 C74.3297116,136.22527 73.9761302,135.908102 73.6635721,135.62603 C73.3601302,135.334859 73.139386,135.037839 72.9355721,134.815561 C72.5396651,134.359956 72.3143628,134.098682 72.3143628,134.098682 C72.3143628,134.098682 72.5455256,134.354757 72.9498977,134.802562 C73.1582698,135.02029 73.3835721,135.312111 73.6928744,135.595483 C74.0106419,135.869756 74.3694326,136.179775 74.7601302,136.517091 C75.1469209,136.858957 75.6365953,137.139729 76.1158512,137.485495 C76.2376186,137.569336 76.3606884,137.653828 76.4857116,137.740269 C76.6185488,137.813062 76.7526884,137.888455 76.8887814,137.963197 C77.1603163,138.113332 77.4383628,138.267367 77.7203163,138.423351 C78.2777116,138.748969 78.9093395,138.976446 79.5188279,139.267617 C80.143293,139.528241 80.7977116,139.745969 81.4423628,139.981896 C82.1052465,140.167127 82.7564093,140.390705 83.4160372,140.54214 C84.0756651,140.697475 84.7209674,140.861258 85.3578047,140.967198 C85.9900837,141.095885 86.6054326,141.188826 87.1908279,141.269418 C87.7742698,141.363658 88.3323163,141.402004 88.8434791,141.464398 C90.9011535,141.653529 92.267293,141.617783 92.267293,141.617783 L92.2725023,142.072126 Z" id="Fill-55" fill="#26214B"/>
          <path d="M27.7679907,91.5220815 C27.7679907,91.5220815 28.0675256,90.4795904 28.6620372,88.9834465 C28.8196186,88.6116853 28.9739442,88.203528 29.1673395,87.7836718 C29.3548744,87.3618658 29.5541302,86.9179621 29.781386,86.4682091 C29.9949674,86.0119567 30.2456651,85.5550544 30.4957116,85.0903529 C30.7398977,84.6217518 31.0348744,84.170049 31.3038047,83.7066474 C31.5948744,83.2549445 31.8918047,82.8077912 32.193293,82.3736365 C32.5182233,81.9563801 32.8132,81.5274248 33.1420372,81.1459147 C33.4793395,80.7728536 33.7762698,80.385494 34.1096651,80.0663773 C34.4443628,79.7485605 34.7425953,79.4300938 35.0479907,79.1681711 C35.3605488,78.9159974 35.6477116,78.6833217 35.9016651,78.4785931 C36.1536651,78.2706148 36.4095721,78.1393285 36.6016651,78.0054425 C36.9962698,77.7526189 37.2215721,77.6083339 37.2215721,77.6083339 C37.2215721,77.6083339 37.0001767,77.7584682 36.6127349,78.0223407 C36.4245488,78.1601263 36.1732,78.297262 35.9270605,78.5110897 C35.6796186,78.7229676 35.4002698,78.9614927 35.0955256,79.2208156 C34.7992465,79.4892376 34.5101302,79.8142037 34.1865023,80.1385198 C33.8641767,80.4641358 33.5789674,80.8579947 33.2546884,81.2362552 C32.9375721,81.6229649 32.6562698,82.0571195 32.345014,82.4795754 C32.0585023,82.9176297 31.7752465,83.3693326 31.4985023,83.8236351 C31.2438977,84.2915863 30.9645488,84.7452389 30.7353395,85.2170897 C30.4983163,85.6850408 30.2632465,86.1438929 30.0626884,86.6014452 C29.8497581,87.0524981 29.6641767,87.4977016 29.4903163,87.9201575 C29.309293,88.3400137 29.1673395,88.748821 29.0214791,89.1199323 C28.4712465,90.6212756 28.2068744,91.6436189 28.2068744,91.6436189 L27.7679907,91.5220815 Z" id="Fill-57" fill="#26214B"/>
          <path d="M65.1748837,23.7145946 C65.1748837,23.7145946 65.1931163,24.0369609 65.2569302,24.5042621 C65.2868837,24.7382377 65.3389767,25.0079596 65.4093023,25.2893802 C65.4392558,25.4317153 65.4861395,25.5734005 65.5317209,25.7170355 C65.5688372,25.8645701 65.639814,26.000406 65.6938605,26.1420912 C65.7589767,26.277927 65.8247442,26.4157126 65.9022326,26.5424494 C65.9927442,26.6581373 66.0533023,26.7972228 66.156186,26.8947126 C66.2512558,26.9974019 66.3326512,27.11114 66.4374884,27.188482 C66.5377674,27.2723232 66.6256744,27.3633137 66.7298605,27.4140084 C66.8294884,27.4712024 66.9180465,27.532946 66.9994419,27.5836407 C67.0873488,27.6219867 67.1635349,27.6551332 67.2266977,27.6824304 C67.3543256,27.7422242 67.4272558,27.7766706 67.4272558,27.7766706 C67.4272558,27.7766706 67.347814,27.7643218 67.2084651,27.7428741 C67.0665116,27.7233761 66.8646512,27.6850301 66.6406512,27.5738917 C66.5208372,27.5342459 66.4133953,27.4517045 66.2916279,27.3756624 C66.164,27.3041699 66.055907,27.197581 65.943907,27.0857927 C65.8227907,26.9818035 65.7374884,26.8420681 65.6372093,26.7101319 C65.5473488,26.5723463 65.4711628,26.4228619 65.3969302,26.2740274 C65.271907,25.9666095 65.1683721,25.6507425 65.1293023,25.3459243 C65.0752558,25.0430559 65.0765581,24.7564358 65.0752558,24.5140111 C65.0889302,24.0272119 65.1748837,23.7145946 65.1748837,23.7145946" id="Fill-59" fill="#26214B"/>
          <path d="M43.1434419,119.118786 L25.9416744,122.152019 C25.9416744,122.152019 22.8369302,122.608272 24.3684651,126.674247 C25.9,130.740223 42.0579535,166.537186 43.1974884,168.486983 C44.3370233,170.436779 46.4266047,170.436779 50.0620465,168.405741 C53.7469767,166.346756 61.5049302,164.058995 63.8725581,164.397609 C64.631814,164.506148 56.3027907,156.571126 56.2077209,156.476236 C56.1133023,156.381996 47.8109767,162.772779 47.8109767,162.772779 L38.9655814,133.25481 L55.4614884,132.036837" id="Fill-61" fill="#D7C3BC"/>
          <path d="M47.685693,169.524079 C47.685693,169.524079 43.6569488,167.02639 47.8107163,162.772584 C49.9061581,160.627158 56.1123907,156.544934 56.1123907,156.544934 L64.469414,164.722381 C64.469414,164.722381 63.0720186,163.226887 50.9766698,168.17872 C50.0429023,168.56088 47.8107163,169.596872 47.685693,169.524079" id="Fill-63" fill="#5F5579"/>
          <path d="M43.2528372,118.902358 L26.3766512,121.935592 C26.3766512,121.935592 22.252186,122.152669 24.5859535,127.731037 C26.9197209,133.309405 42.4929302,167.051932 42.4929302,167.051932 C42.4929302,167.051932 43.904,171.438325 47.8109767,169.597067 C51.7179535,167.755809 61.3226047,163.639139 64.4696744,164.722576 L56.1133023,156.381996 L47.648186,162.772779 L38.9655814,133.25481 L56.276093,132.063485" id="Stroke-65" stroke="#26214B" stroke-width="0.5"/>
          <path d="M42.4884372,117.848753 C42.4884372,117.848753 42.8042512,118.219215 43.3577395,118.868497 C43.9086233,119.517129 44.7128093,120.427684 45.6758791,121.513721 C46.1701116,122.046015 46.6871349,122.636804 47.2575535,123.240591 C47.8182047,123.852827 48.4263907,124.480661 49.0547628,125.129943 C49.667507,125.795474 50.359693,126.422658 51.0212744,127.100538 C51.6913209,127.770618 52.411507,128.407551 53.1102047,129.067882 C53.8362512,129.695067 54.5408093,130.350199 55.2720651,130.947486 C56.0241581,131.516177 56.7052744,132.15961 57.4423907,132.673056 C57.8044372,132.938878 58.1612744,133.200801 58.5102977,133.456874 C58.8528093,133.723996 59.1966233,133.97227 59.5469488,134.188048 C60.2456465,134.623502 60.8759721,135.093403 61.499786,135.454116 C62.1288093,135.804429 62.7011814,136.139794 63.2103907,136.438763 C63.7215535,136.732532 64.1975535,136.924262 64.5752279,137.119892 C65.339693,137.502702 65.7766233,137.721079 65.7766233,137.721079 C65.7766233,137.721079 65.3064837,137.599542 64.4821116,137.361017 C64.0751349,137.22973 63.5561581,137.120542 63.0046233,136.891766 C62.451786,136.665589 61.8260186,136.408216 61.147507,136.112497 C60.4696465,135.816128 59.7800651,135.41122 59.0325302,135.010862 C58.2752279,134.624152 57.5524372,134.100957 56.7729953,133.602459 C56.3809953,133.356135 56.0052744,133.076664 55.6262977,132.790044 C55.2440651,132.508623 54.8605302,132.218104 54.4776465,131.920435 C53.7183907,131.319897 52.9864837,130.663466 52.2343907,130.029132 C51.5311349,129.344104 50.8050884,128.680523 50.1330884,127.987045 C49.4623907,127.292268 48.8099256,126.60139 48.2128093,125.903363 C47.5974605,125.221584 47.0400651,124.530056 46.5210884,123.868425 C45.9851814,123.220443 45.5300186,122.566611 45.0943907,121.977772 C43.3805302,119.595121 42.4884372,117.848753 42.4884372,117.848753" id="Fill-67" fill="#26214B"/>
          <path d="M47.8109767,169.597067 C47.8109767,169.597067 44.0674419,167.701215 47.648186,162.772779" id="Stroke-69" stroke="#26214B" stroke-width="0.5"/>
          <path d="M122.931851,131.691593 C122.931851,131.691593 131.186642,139.862541 152.317526,141.437326 C152.317526,141.437326 130.622735,158.203626 128.680316,160.295108 C125.298828,163.937328 131.1632,168.737077 131.562363,178.732383 L139.813898,169.110138 C138.918549,168.459555 135.837898,163.273097 137.411758,161.377245 C138.985619,159.481393 164.80227,142.570808 171.274177,139.016979 C174.566456,137.209518 174.659572,135.285068 172.48013,133.788275 C165.670921,129.112013 156.58134,123.370512 154.651293,117.801243 C152.882084,112.696676 147.412316,91.4978391 132.977991,95.9388255 C118.543665,100.379812 109.589526,118.224999 122.931851,131.691593" id="Fill-71" fill="#D7C3BC"/>
          <path d="M131.531758,178.991901 C131.531758,178.991901 131.815665,176.164696 128.270735,165.936714 C128.03306,165.251035 127.547293,163.999266 128.775386,163.623605 C129.870642,163.28824 130.295851,163.971319 130.295851,163.971319 C130.5192,163.413027 130.454084,161.988376 132.099572,160.875692 C133.244967,160.101623 137.020409,160.737907 137.020409,161.717354 C137.020409,163.19335 137.212502,166.0706 139.640688,168.999844 C139.732502,169.110333 132.218084,177.450912 131.531758,178.991901" id="Fill-73" fill="#5F5579"/>
          <path d="M153.94986,115.653348 C153.94986,115.653348 154.926605,121.719164 163.554512,127.677093 L172.182419,133.635021 C172.182419,133.635021 174.135907,134.880291 173.810326,136.288694 C173.484744,137.697097 170.782419,139.416167 167.244,141.434207 C163.705581,143.452246 140.057953,158.440331 137.236465,161.473565 C137.236465,161.473565 135.879442,164.506148 139.732372,169.110268 C139.732372,169.110268 133.33014,175.718778 131.484744,179.076327 C131.484744,179.076327 131.647535,174.851768 128.120186,165.752718 C128.120186,165.752718 126.438233,161.852475 129.368465,159.523768 C132.298698,157.195061 157.585302,137.209647 157.585302,137.209647" id="Stroke-75" stroke="#26214B" stroke-width="0.5"/>
          <path d="M117.538791,95.3969121 C117.538791,95.3969121 109.290512,125.510869 126.601023,134.230358 C141.344651,141.656483 149.328558,141.061795 152.236,141.437456" id="Stroke-77" stroke="#26214B" stroke-width="0.5"/>
          <path d="M137.020279,161.636048 C137.020279,161.636048 134.957395,159.956623 132.841116,160.552611 C130.724837,161.148599 130.182419,163.802272 130.182419,163.802272 C130.182419,163.802272 129.154233,163.24008 128.445767,163.802272 C127.737302,164.364463 127.945023,165.247071 127.945023,165.247071" id="Stroke-79" stroke="#26214B" stroke-width="0.5"/>
          <path d="M133.415312,176.277329 C133.415312,176.277329 134.008521,169.408196 130.182288,163.802532" id="Stroke-81" stroke="#26214B" stroke-width="0.5"/>
        </g>
      </g>
    </g>
  </g>
</svg>