<svg width="152px" height="136px" viewBox="0 0 152 136" version="1.1" xml:space="preserve" xmlns="http://www.w3.org/2000/svg" xmlns:xlink="http://www.w3.org/1999/xlink">
  <!-- Generator: Sketch 48.2 (47327) - http://www.bohemiancoding.com/sketch -->
  <defs/>
  <g>
    <title>referee-c</title>
    <desc>Created with Sketch.</desc>
    <g id="soccer" stroke="none" stroke-width="1" fill="none" fill-rule="evenodd">
      <g id="referee-c" fill-rule="nonzero">
        <g id="scratch_footie_player_ref03" transform="translate(89.500000, 67.000000) scale(-1, 1) translate(-89.500000, -67.000000) translate(32.000000, 5.000000)">
          <path d="M48.1782353,63.4736232 C32.4841176,64.7315942 19.7664706,65.8592754 12.2801961,66.4837681 C4.79392157,67.1082609 0.10372549,67.4092754 0.0541176471,68.1685507 C0.0225490196,68.7571014 4.03176471,68.3168116 5.91686275,68.4156522 C5.88529412,68.6402899 6.03862745,69.1210145 6.10176471,69.7230435 C6.3227451,71.8256522 10.3139216,72.23 13.1776471,72.3153623 C19.1080392,72.4905797 33.7062745,72.3647826 49.6529412,71.9873913 C49.6529412,71.9873913 57.1031373,72.3513043 57.3466667,67.2430435 C57.5901961,62.1347826 48.1782353,63.4736232 48.1782353,63.4736232 Z" id="Shape" fill="#828278"/>
          <path d="M5.57862745,66.012029 C4.81196078,65.9671014 5.03745098,66.4613043 5.88078431,66.7533333 C6.46606746,66.947572 7.07100611,67.0771421 7.68470588,67.1397101 C7.68470588,67.1397101 7.27882353,69.6331884 10.2147059,68.9907246 C11.5676471,68.6942029 11.3737255,67.1262319 10.1109804,66.5017391 C8.64980392,65.7918841 5.98901961,66.0434783 5.57862745,66.012029 Z" id="Shape" fill="#3C3C32"/>
          <path d="M45.6121569,82.9362319 C42.6988235,90.2144928 37.8552941,102.807681 37.8552941,102.807681 C37.8552941,102.807681 41.1790196,105.00913 43.3166667,106.213188 C47.3168627,100.821884 54.28,88.6555072 54.28,88.6555072 C54.28,88.6555072 60.2645098,79.7778261 54.7670588,75.6265217 C49.2696078,71.4752174 45.6121569,82.9362319 45.6121569,82.9362319 Z" id="Shape" fill="#828278"/>
          <path d="M37.8598039,100.188406 C37.6884314,100.305217 31.785098,117.530435 31.5145098,118.325652 C31.4468627,118.532319 31.3476471,118.73 31.234902,118.999565 C31.0743284,118.889768 30.9234541,118.766519 30.7839216,118.631159 C30.3690196,118.118986 29.9586275,117.602319 29.5617647,117.072174 C29.3163853,116.684987 28.9121334,116.425272 28.4568627,116.362319 L28.2990196,116.932899 C28.269344,117.142313 28.210132,117.346503 28.1231373,117.53942 C27.8841176,117.916812 27.5909804,118.258261 27.3339216,118.626667 C27.0768627,118.995072 26.8829412,119.237681 27.0768627,119.646522 C27.5909804,119.646522 27.7713725,119.570145 27.9472549,119.035507 C28.1674273,118.572256 28.473444,118.154598 28.8492157,117.804493 L29.5256863,118.357101 C29.4048414,118.647526 29.2678312,118.931009 29.1152941,119.206232 C28.9316452,119.470747 28.7344564,119.725673 28.5245098,119.97 L28.4252941,119.871159 C28.1772549,120.486667 28.2043137,120.567536 28.7635294,120.805652 C28.957451,120.531594 29.1468627,120.23058 29.3678431,119.956522 C29.5888235,119.682464 29.8188235,119.435362 30.0758824,119.161304 L30.6937255,119.646522 C30.1976471,120.500145 29.5798039,121.142609 29.2776471,121.964783 C29.4765791,122.22183 29.8416843,122.280812 30.1119608,122.099565 C30.3762969,121.423022 30.7461393,120.79227 31.2078431,120.23058 L31.9429412,120.814638 C31.6588235,121.241449 31.4062745,121.605362 31.1717647,121.982754 C30.9778431,122.288261 30.635098,122.535362 30.7884314,123.056522 L31.3882353,123.173333 C31.7445098,122.607246 31.8392157,121.915362 32.5833333,121.659275 L32.7952941,122.252319 L32.4931373,122.467971 L32.2045098,122.665652 C32.177451,122.831884 32.1413725,123.007101 32.1233333,123.182319 C32.0556863,123.775362 32.3082353,123.937101 32.9260784,123.676522 C33.165098,123.141884 33.2282353,122.45 33.8280392,122.238841 C34.1031373,121.821014 34.3286275,121.479565 34.5496078,121.138116 C35.0005882,120.414783 35.4515686,119.682464 35.902549,118.95913 C36.2768627,118.37058 36.7007843,117.813478 37.0390196,117.202464 C37.535098,116.303913 45.034902,105.359565 45.2468627,105.072029 C44.9492157,104.788986 37.9635294,100.341159 37.8598039,100.188406 Z" id="Shape" fill="#000000"/>
          <rect id="Rectangle-path" fill="#FFFFFF" transform="translate(41.549388, 102.706926) rotate(32.730000) translate(-41.549388, -102.706926) " x="36.6652699" y="101.691564" width="9.76823529" height="2.03072464"/>
          <rect id="Rectangle-path" fill="#FFFFFF" transform="translate(39.717843, 105.822319) rotate(32.735226) translate(-39.717843, -105.822319) " x="34.840568" y="104.808379" width="9.75455018" height="2.02787963"/>
          <rect id="Rectangle-path" fill="#FFFFFF" transform="translate(38.135804, 109.095020) rotate(32.735226) translate(-38.135804, -109.095020) " x="33.2585288" y="108.08108" width="9.75455018" height="2.02787963"/>
          <path d="M91.034902,82.3297101 C93.9482353,89.607971 98.8413725,102.547101 98.8413725,102.547101 C98.8413725,102.547101 95.5176471,104.748551 93.38,105.952609 C89.3798039,100.561304 83.9545098,91.2208696 83.9545098,91.2208696 C83.9545098,91.2208696 76.5043137,80.3933333 81.88,75.6489855 C87.2556863,70.9046377 91.034902,82.3297101 91.034902,82.3297101 Z" id="Shape" fill="#828278"/>
          <path d="M98.8368627,99.9323188 C99.0082353,100.04913 104.911569,117.274348 105.182157,118.069565 C105.249804,118.276232 105.34902,118.473913 105.461765,118.743478 C105.622338,118.633681 105.773213,118.510432 105.912745,118.375072 C106.327647,117.862899 106.738039,117.346232 107.134902,116.816087 C107.378344,116.414172 107.791058,116.143373 108.257843,116.079275 L108.415686,116.649855 C108.445362,116.859269 108.504574,117.063459 108.591569,117.256377 C108.830588,117.633768 109.123725,117.975217 109.380784,118.343623 C109.637843,118.712029 109.831765,118.954638 109.637843,119.363478 C109.123725,119.363478 108.943333,119.287101 108.767451,118.752464 C108.547279,118.289212 108.241262,117.871554 107.86549,117.521449 L107.18902,118.074058 C107.309865,118.364482 107.446875,118.647966 107.599412,118.923188 C107.783061,119.187703 107.980249,119.44263 108.190196,119.686957 L108.289412,119.588116 C108.537451,120.203623 108.510392,120.284493 107.951176,120.522609 C107.757255,120.248551 107.567843,119.947536 107.346863,119.673478 C107.125882,119.39942 106.895882,119.152319 106.638824,118.878261 L105.980392,119.367971 C106.476471,120.221594 107.094314,120.864058 107.396471,121.686232 C107.197539,121.943279 106.832433,122.002261 106.562157,121.821014 C106.297821,121.144471 105.927978,120.513719 105.466275,119.952029 L104.731176,120.536087 C105.015294,120.962899 105.267843,121.326812 105.502353,121.704203 C105.696275,122.00971 106.03902,122.256812 105.885686,122.777971 L105.285882,122.894783 C104.929608,122.328696 104.834902,121.636812 104.090784,121.380725 L103.878824,121.973768 L104.18098,122.18942 L104.469608,122.387101 C104.496667,122.553333 104.532745,122.728551 104.550784,122.903768 C104.618431,123.496812 104.365882,123.658551 103.748039,123.397971 C103.50902,122.863333 103.445882,122.171449 102.846078,121.96029 C102.57098,121.542464 102.34549,121.201014 102.12451,120.859565 C101.673529,120.136232 101.222549,119.403913 100.771569,118.68058 C100.397255,118.092029 99.9733333,117.534928 99.635098,116.923913 C99.1390196,116.025362 91.6392157,105.081014 91.4272549,104.793478 C91.747451,104.514928 98.7331373,100.071594 98.8368627,99.9323188 Z" id="Shape" fill="#000000"/>
          <rect id="Rectangle-path" fill="#FFFFFF" transform="translate(95.161563, 102.426069) rotate(147.270000) translate(-95.161563, -102.426069) " x="90.2774453" y="101.410706" width="9.76823529" height="2.03072464"/>
          <rect id="Rectangle-path" fill="#FFFFFF" transform="translate(97.015776, 105.749409) rotate(147.270000) translate(-97.015776, -105.749409) " x="92.1316581" y="104.734047" width="9.76823529" height="2.03072464"/>
          <rect id="Rectangle-path" fill="#FFFFFF" transform="translate(98.604454, 109.019711) rotate(147.270000) translate(-98.604454, -109.019711) " x="93.7203364" y="108.004348" width="9.76823529" height="2.03072464"/>
          <path d="M114.833137,68.5728986 C113.074314,56.6086957 104.582353,42.2318841 91.0980392,43.692029 C90.3464052,43.7758937 89.5947712,43.8912077 88.8431373,44.037971 C92.0631373,38.7410145 95.5807843,33.5743478 98.4760784,28.2324638 C101.015098,23.5510145 108.163137,11.9013043 108.163137,11.9013043 L103.436863,0.66942029 L97.7996078,4.29956522 C97.7996078,4.29956522 76.6666667,37.6986957 70.5333333,47.7355072 C65.6492157,55.7101449 60.9680392,63.2669565 59.8090196,72.8634783 C58.8439216,80.8381159 61.0356863,88.2107246 67.6831373,93.0808696 C71.0339216,95.5384058 74.5696078,96.1224638 78.5743137,97.1243478 C85.4743137,98.8495652 92.6223529,100.103043 98.9541176,97.1243478 C111.062941,91.4410145 115,80.4966667 114.833137,68.5728986 Z" id="Shape" fill="#000000"/>
          <polygon id="Shape" fill="#000000" points="42.8431373 42.8518841 35.7627451 57.7094203 63.7415686 58.8865217 70.564902 43.1034783"/>
          <path d="M63.2319608,44.4513043 C62.7809804,48.6924638 59.2362745,51.1904348 54.8256863,50.8849275 C51.8311765,50.6782609 49.0666667,48.36 48.9854902,45.1791304 C48.9088235,42.1195652 52.2145098,39.5452174 54.9609804,38.9207246 C58.0276471,38.2243478 62.7133333,39.1947826 63.2319608,44.4513043 Z" id="Shape" fill="#824600"/>
          <path d="M64.8284314,56.2627536 C64.5037255,59.3537681 61.9196078,61.1688406 58.7041176,60.9486957 C56.5213725,60.795942 54.51,59.1111594 54.4513725,56.7928986 C54.3972549,54.5465217 56.8054902,52.6910145 58.8033333,52.2372464 C61.0356863,51.7295652 64.4496078,52.4304348 64.8284314,56.2627536 Z" id="Shape" fill="#A0640A"/>
          <path d="M50.7262745,52.4169565 C50.6,53.6030435 49.6078431,54.2994203 48.3766667,54.214058 C47.5030839,54.1766834 46.7986827,53.4885148 46.7441176,52.6191304 C46.7441176,51.7655072 47.6460784,51.0466667 48.4127451,50.8714493 C49.2741176,50.6782609 50.5819608,50.9478261 50.7262745,52.4169565 Z" id="Shape" fill="#824600"/>
          <path d="M67.827451,50.2873913 C67.7011765,51.4734783 66.7090196,52.1698551 65.4778431,52.0844928 C64.6042604,52.0471182 63.8998591,51.3589496 63.8452941,50.4895652 C63.8452941,49.635942 64.7472549,48.9171014 65.5139216,48.7418841 C66.3752941,48.5486957 67.6831373,48.8182609 67.827451,50.2873913 Z" id="Shape" fill="#A0640A"/>
          <path d="M46.69,55.9662319 C46.5637255,57.1523188 45.5715686,57.8486957 44.3403922,57.7633333 C43.4635658,57.7255426 42.7579681,57.0323215 42.7078431,56.1594203 C42.7078431,55.3057971 43.6098039,54.5869565 44.3764706,54.4117391 C45.2333333,54.2275362 46.5456863,54.4971014 46.69,55.9662319 Z" id="Shape" fill="#A0640A"/>
          <path d="M45.9458824,49.5056522 C45.7339216,51.5094203 44.0562745,52.6910145 41.9727451,52.5472464 C40.4972387,52.4815462 39.3078968,51.3199331 39.2127451,49.8515942 C39.1766667,48.4049275 40.7370588,47.1918841 42.0358824,46.8953623 C43.4835294,46.5673913 45.6978431,47.0211594 45.9458824,49.5056522 Z" id="Shape" fill="#A0640A"/>
          <polygon id="Shape" fill="#828278" points="69.2796078 47.7310145 44.8545098 47.7175362 40.3311765 58.1362319 35.2215686 57.5701449 41.9186275 41.85 72.1162745 40.9469565"/>
          <path d="M66.5647059,1.34782609 C62.6862745,7.1884058 56.5754902,16.3895652 52.7647059,22.3110145 C51.9664706,23.542029 42.1756863,37.3347826 37.9364706,45.552029 C31.1717647,58.6708696 29.1378431,68.8065217 29.4941176,75.6534783 C29.5978431,77.6123188 30.7433333,86.2384058 34.2609804,90.2594203 C39.6456863,96.4144928 48.1737255,98.1082609 48.1737255,98.1082609 L87.124902,98.7147826 C87.124902,98.7147826 72.1072549,94.9768116 67.8635294,88.4308696 C65.2439561,84.2050747 63.7406091,79.3875139 63.4935294,74.4269565 C63.2454902,65.3785507 67.9762745,56.6042029 72.2741176,48.9710145 C76.7839216,40.9334783 100.153725,4.40289855 103.152745,1.27144928 L66.5647059,1.34782609 Z M64.0798039,55.4675362 L39.0052941,55.5169565 C39.0052941,55.5169565 42.297451,47.6276812 43.3211765,46.0462319 L69.0270588,46.0731884 L64.0798039,55.4675362 Z" id="Shape" fill="#3C3C32"/>
          <path d="M104.018627,0.116811594 C103.116667,0.193188406 66.217451,0.238115942 65.297451,0.341449275 C64.7152189,0.358772676 64.1610717,0.594678665 63.7460784,1.00188406 L63.5341176,1.55 L63.6152941,2.12956522 C64.0570936,2.57675193 64.6805675,2.79704132 65.3064706,2.72710145 C66.2084314,2.61028986 100.988039,2.61028986 101.908039,2.65072464 L104.018627,0.116811594 Z" id="Shape" fill="#000000"/>
          <path d="M101.921569,2.65072464 L107.18,13.6714493 C107.18,13.6714493 108.483333,14.0533333 109.02,13.2491304 C109.345403,12.7485596 109.519193,12.1652106 109.520588,11.5688406 L104.018627,0.116811594 L101.921569,2.65072464 Z" id="Shape" fill="#000000"/>
          <path d="M104.176471,75.8107246 C103.078249,79.2322551 100.92197,82.2201324 98.0160784,84.3469565 C94.6517647,86.7550725 90.5343137,87.6311594 86.6739216,86.3731884 C83.5878407,85.3266 81.0498812,83.0942632 79.625098,80.1731884 C77.7041368,76.2198697 77.4317532,71.6698475 78.867451,67.5171014 C80.0744392,63.706235 82.6035238,60.447737 86.0019608,58.3249275 C89.1588235,56.4110145 92.4419608,55.4944928 95.9235294,56.6356522 C102.936275,58.935942 106.882353,67.6833333 104.176471,75.8107246 Z" id="Shape" fill="#3C3C32"/>
          <path d="M99.7929412,74.3371014 C99.0762229,76.5755921 97.6664288,78.530518 95.7656863,79.9215942 C93.653831,81.5257722 90.8952921,82.0175216 88.3560784,81.2424638 C86.3413673,80.5603217 84.68369,79.1046223 83.7515686,77.1989855 C82.4975616,74.6164205 82.3208285,71.6443147 83.26,68.9323188 C84.0488835,66.4418392 85.701938,64.3124601 87.9231373,62.9255072 C89.9931373,61.6765217 92.1307843,61.0744928 94.4127451,61.8202899 C98.9721569,63.3118841 101.538235,69.0266667 99.7929412,74.3371014 Z" id="Shape" fill="#828278"/>
          <rect id="Rectangle-path" fill="#000000" transform="translate(21.653660, 50.315169) rotate(9.030000) translate(-21.653660, -50.315169) " x="18.1563074" y="49.9512561" width="6.99470588" height="1"/>
          <rect id="Rectangle-path" fill="#000000" transform="translate(24.643383, 55.569855) rotate(-23.700000) translate(-24.643383, -55.569855) " x="21.1460298" y="55.2059422" width="6.99470588" height="1"/>
          <rect id="Rectangle-path" fill="#000000" transform="translate(25.307910, 44.979448) rotate(43.630000) translate(-25.307910, -44.979448) " x="21.8105575" y="44.6155353" width="6.99470588" height="1"/>
          <path d="M21.0878431,75.312029 C21.0878431,75.312029 16.5780392,74.0226087 15.7843137,73.9642029 C14.9905882,73.9057971 14.9319608,74.2966667 15.8294118,74.6426087 C16.5259187,74.9716131 17.1677382,75.4049458 17.732549,75.9275362 L21.0878431,75.312029 Z" id="Shape" fill="#3C3C32"/>
          <path d="M87.0076471,78.43 C87.0076471,78.43 92.8703922,79.1623188 93.84,73.5688406 C94.8096078,67.9753623 87.124902,69.6781159 87.124902,69.6781159 C83.8552941,69.8398551 35.7131373,73.5508696 21.0292157,74.7818841 C14.6478431,75.3165217 10.6566667,75.5681159 10.6296078,76.2150725 C10.602549,76.862029 15.5182353,76.826087 15.5182353,76.826087 C15.6695451,78.1081014 16.6046139,79.1614509 17.8633333,79.4678261 C17.8633333,79.4678261 17.8633333,79.4902899 17.9219608,79.5037681 C19.2045051,79.6570469 20.4951226,79.7335611 21.7868627,79.7328986 C32.9937255,80.0698551 87.0076471,78.43 87.0076471,78.43 Z" id="Shape" fill="#828278"/>
          <path d="M21.2411765,80.2585507 L22.6527451,80.307971 C22.7609804,79.4813043 22.8737255,77.1046377 22.9864706,76.2644928 C22.792549,76.2150725 21.5884314,76.3184058 21.3539216,76.2644928 C21.367451,76.4037681 21.2862745,78.7265217 21.2411765,80.2585507 Z" id="Shape" fill="#F01446"/>
          <path d="M24.0733333,78.102029 C22.5760784,78.7444928 20.7496078,79.0455072 19.7890196,77.482029 C19.4470243,76.9849824 19.3198284,76.3718913 19.4360102,75.7805057 C19.5521921,75.18912 19.9020087,74.6690341 20.4068627,74.3371014 C22.0168627,73.2498551 23.6719608,73.5553623 24.2943137,74.8672464 C24.6735019,75.9294662 24.5934848,77.1007829 24.0733333,78.102029 Z" id="Shape" fill="#000000"/>
          <path d="M23.0901961,77.19 C22.2919608,77.5314493 21.3178431,77.6931884 20.8082353,76.8575362 C20.6229638,76.5936276 20.5533787,76.2660111 20.6154679,75.94996 C20.6775571,75.633909 20.8659824,75.3565969 21.137451,75.1817391 C21.9943137,74.6021739 22.8782353,74.763913 23.2119608,75.4647826 C23.413099,76.0318187 23.3690035,76.6565825 23.0901961,77.19 Z" id="Shape" fill="#3C3C32"/>
        </g>
      </g>
    </g>
  </g>
</svg>