<svg width="157px" height="122px" viewBox="0 0 157 122" version="1.1" xml:space="preserve" xmlns="http://www.w3.org/2000/svg" xmlns:xlink="http://www.w3.org/1999/xlink">
  <!-- Generator: Sketch 48.2 (47327) - http://www.bohemiancoding.com/sketch -->
  <defs/>
  <g>
    <title>takeout-b</title>
    <desc>Created with Sketch.</desc>
    <g id="food" stroke="none" stroke-width="1" fill="none" fill-rule="evenodd">
      <g id="takeout-b" fill-rule="nonzero">
        <g id="scratch_fridge_takeout01" transform="translate(92.500000, 61.500000) scale(-1, 1) translate(-92.500000, -61.500000) translate(45.000000, 4.000000)">
          <path d="M22.2027426,66.0730903 C17.6010549,69.8744792 12.5824895,73.3763889 8.93080169,76.0557292 L8.93080169,79.1822917 C13.4683544,77.3215278 19.9259494,74.0152778 25.9466245,70.3776042 C37.8156118,63.1901042 41.4512658,55.6991319 39.5031646,51.2987847 C37.5550633,46.8984375 28.4198312,60.9380208 22.2027426,66.0730903 Z" id="Shape" fill="#006482"/>
          <path d="M92.4225738,101.926736 C92.4225738,101.926736 88.2537975,106.430903 88.778903,106.810243 C89.3040084,107.189583 90.2259494,105.959722 90.8833333,105.440625 C91.1823973,105.173706 91.5291246,104.965114 91.9054852,104.825694 L92.4225738,101.926736 Z" id="Shape" fill="#008264"/>
          <path d="M92.2421941,108.966493 C91.5968354,109.046354 92.5668776,105.057292 91.3803797,106.430903 C91.1478903,106.698437 91.3803797,109.090278 90.4985232,108.926562 C91.2366627,101.772172 91.0426477,94.5527182 89.921308,87.4479167 C89.4322785,84.3493056 88.2337553,80.2883681 85.1111814,70.8368056 C81.9886076,61.3852431 85.37173,62.2916667 87.3198312,64.3640625 C89.2679325,66.4364583 91.4445148,75.0854167 92.1940928,77.6090278 C92.9638014,80.2486405 93.5003037,82.9502517 93.7974684,85.6829861 C94.1983122,89.1848958 94.5751055,92.6029514 94.6833333,96.1407986 C94.735443,97.8777778 94.7394515,99.6267361 94.6472574,101.367708 C94.5991561,102.282118 94.5390295,107.988194 93.6251055,108.495312 C93.2924051,106.934028 93.9137131,105.784028 93.2964135,105.823958 C92.6791139,105.863889 92.8835443,108.886632 92.2421941,108.966493 Z" id="Shape" fill="#00A08C"/>
          <path d="M66.8767932,92.6029514 C67.5983122,97.0352431 68.7206751,102.785243 69.1656118,104.554167 C69.5424051,106.055556 69.9913502,107.560937 70.3962025,109.05434 C70.8291139,110.651562 71.9995781,112.248785 72.0597046,113.94184 C71.2940928,114.165451 69.5303797,113.710243 69.5303797,113.710243 C69.5303797,113.710243 68.9010549,114.293229 69.3700422,114.508854 C69.9232068,114.772396 71.6348101,114.680556 72.2881857,114.688542 C72.857384,114.688542 74.364557,114.588715 74.364557,114.588715 C74.364557,114.588715 76.5411392,88.1986111 71.085654,87.2961806 C65.6301688,86.39375 66.8767932,92.6029514 66.8767932,92.6029514 Z" id="Shape" fill="#006482"/>
          <path d="M44.2732068,92.6029514 C46.2172996,97.7699653 48.3377637,103.268403 48.9751055,104.813715 C50.1776371,107.724653 52.1818565,110.515799 53.0396624,113.526563 C52.5105485,113.726215 50.1736287,113.374826 50.1415612,113.957813 C50.0814346,115.007986 52.4824895,114.405035 52.9915612,114.397049 C54.0738397,114.397049 55.757384,114.956076 56.1181435,114.129514 C56.3907173,113.498611 52.9514768,99.2913194 51.5485232,92.5989583 C51.5485232,92.5989583 51.9974684,87.9390625 46.5419831,87.1604167 C41.0864979,86.3817708 44.2732068,92.6029514 44.2732068,92.6029514 Z" id="Shape" fill="#006482"/>
          <polygon id="Shape" fill="#828278" points="43.57173 23.7666667 40.4932489 36.3248264 38.12827 36.2050347 43.3953586 20.4684028"/>
          <path d="M78.9421941,65.4581597 L82.2331224,96.8914931 C82.2331224,96.8914931 64.764346,96.6798611 61.3892405,96.4442708 C62.9044304,92.8505208 64.6921941,65.2984375 64.6921941,65.2984375 L78.9421941,65.4581597 Z" id="Shape" fill="#008264"/>
          <path d="M87.7487342,32.8788194 C86.2896624,32.8788194 73.7873418,32.3876736 73.7873418,32.3876736 L65.3094937,50.0170139 C64.8164557,51.5104167 82.2371308,96.8914931 82.2371308,96.8914931 C82.2371308,96.8914931 90.8472574,55.4076389 91.857384,50.2565972 C92.3704641,47.6331597 92.7592827,44.9857639 93.2523207,42.3623264 C93.8014768,39.4473958 94.9639241,36.2848958 94.9639241,33.3100694 C92.7753165,32.5354167 90.0335443,32.8708333 87.7487342,32.8788194 Z" id="Shape" fill="#00A08C"/>
          <path d="M82.0888186,42.8894097 L73.7833333,32.3876736 L56.278481,32.128125 L53.1238397,38.4890625 L61.3732068,96.4442708 C61.3732068,96.4442708 63.0968354,93.5213542 63.5898734,92.6828125 C64.3514768,91.3810764 65.028903,90.0434028 65.6622363,88.6897569 C66.8006329,86.2380208 68.0672996,83.8581597 69.1816456,81.3864583 C71.1457806,76.9940972 73.2582278,72.5777778 74.9177215,68.065625 C76.785654,62.9704861 78.8219409,57.8913194 80.4172996,52.7043403 C81.1468354,50.3364583 82.1970464,47.9685764 82.6900844,45.5407986 C82.9386076,44.3229167 82.8464135,43.9595486 82.0888186,42.8894097 Z" id="Shape" fill="#78C8C8"/>
          <path d="M79.7438819,46.1277778 C79.7438819,47.2378472 79.1065401,48.1243056 78.3208861,48.1243056 C77.5352321,48.1243056 76.8978903,47.2258681 76.8978903,46.1277778 C76.8767385,45.509478 77.1047968,44.9084492 77.5312236,44.4586806 C77.7438688,44.2463415 78.0318348,44.12586 78.3329114,44.1232639 C78.7337553,44.1232639 79.2869198,44.6782986 79.535443,45.0416667 C79.7839662,45.4050347 79.7438819,45.5727431 79.7438819,46.1277778 Z" id="Shape" fill="#281446"/>
          <path d="M82.0246835,11.2484375 C76.080663,10.89699 70.1216464,10.8743279 64.1751055,11.1805556 C59.7658228,11.3921875 48.1413502,10.1024306 45.5238397,14.5626736 C44.0808017,17.0104167 43.3793249,20.0611111 42.7179325,22.7923611 C42.0805907,25.4157986 40.9301688,28.1829861 40.6054852,30.8503472 C42.5495781,30.6307292 42.6097046,27.3564236 43.0987342,25.6993056 C43.8042194,23.3034722 44.321308,20.8677083 44.942616,18.4359375 C45.4476793,16.4394097 45.9808017,13.9038194 48.0050633,13.009375 C49.9531646,12.1428819 53.0757384,12.5302083 55.1721519,12.4303819 C63.3413502,12.0310764 73.8033755,12.4303819 81.964557,12.50625 C83.3955696,12.50625 85.2434599,12.6380208 85.6924051,14.446875 C86.0291139,15.8125 83.0508439,28.3307292 82.1689873,32.6472222 C81.7681435,34.5199653 81.6719409,36.4366319 81.2831224,38.2934028 C81.0546414,39.3914931 80.7339662,40.4736111 80.4814346,41.5637153 C80.3010549,42.2944444 80.2048523,44.5345486 79.7037975,45.1375 C79.5915612,45.2692708 78.7698312,45.4809028 78.1565401,45.7364583 C78.0695642,46.0704035 78.0934709,46.4234257 78.2246835,46.7427083 L78.4331224,46.8026042 C80.0364979,47.2338542 80.7339662,45.7763889 81.142827,44.5904514 C83.4556962,37.8501736 86.7265823,17.0383681 86.778692,15.6487847 C86.8668776,12.5022569 84.8305907,11.4201389 82.0246835,11.2484375 Z" id="Shape" fill="#828278"/>
          <path d="M56.2824895,32.128125 L22.3470464,32.2199653 C22.3470464,32.2199653 23.7059072,37.6505208 24.0185654,38.95625 C24.7400844,41.9430556 25.6219409,44.9019097 26.1831224,47.9206597 C27.385654,54.2097222 29.4219409,60.4348958 30.9932489,66.5482639 C32.564557,72.6616319 34.5086498,78.6791667 36.0438819,84.7925347 C36.7052743,87.4239583 39.0221519,95.4100694 39.0221519,95.4100694 C39.0221519,95.4100694 43.1949367,95.7335069 44.5137131,95.8453125 C47.5721519,96.1088542 50.5864979,96.3045139 53.6529536,96.3803819 C55.2803797,96.4203125 56.9078059,96.4961806 58.5312236,96.4842014 C60.1546414,96.4722222 61.3812236,96.4442708 61.3812236,96.4442708 L56.2824895,32.128125 Z" id="Shape" fill="#00A0B4"/>
          <polygon id="Shape" fill="#828278" points="8.91877637 109.68125 6.54978903 113.478646 6.68206751 114.860243 13.8772152 114.76441 14.12173 113.478646"/>
          <path d="M7.13902954,75.9598958 L7.09493671,76.0038194 C6.75421941,76.3671875 4.11666667,78.5953125 5.42742616,81.8975694 C6.8464135,85.4713542 8.38966245,85.890625 8.38966245,85.890625 L7.13902954,75.9598958 Z" id="Shape" fill="#006482"/>
          <path d="M6.54978903,113.478646 L14.12173,113.478646 C14.12173,113.478646 12.0132911,51.3866319 11.7166667,45.1215278 C11.6044304,42.5819444 11.3478903,40.0543403 11.2236287,37.5067708 C11.1554852,36.1092014 11.4440928,33.1144097 10.8227848,31.4612847 L8.01687764,31.4612847 C7.44767932,32.7909722 7.54388186,34.9791667 7.43565401,36.1371528 C7.17510549,38.9322917 7.18312236,41.7793403 7.00675105,44.5864583 C6.63396624,50.1967014 6.54978903,113.478646 6.54978903,113.478646 Z" id="Shape" fill="#C8C8BE"/>
          <path d="M16.8113924,0.135763889 C16.3063291,5.38263889 16.3624473,22.7564236 15.3523207,24.5572917 C14.8432489,25.4637153 13.9132911,24.6451389 13.9132911,24.6451389 C13.9132911,24.6451389 12.5023207,2.20815972 12.2257384,0.135763889 L11.0672996,0.135763889 C10.7185654,2.3359375 11.0191983,20.2847222 10.8388186,21.9138889 C10.7546414,22.6845486 9.80464135,25.5755208 8.157173,23.8585069 C7.3314346,23 7.35548523,5.30277778 6.85042194,0.135763889 L6.23312236,0.135763889 C5.68797468,5.47447917 6.71413502,24.2977431 4.14873418,24.3336806 C1.58333333,24.3696181 2.42911392,5.36267361 1.8278481,0.135763889 L1.27468354,0.135763889 C0.913924051,3.9171875 0.569198312,14.9779514 0.196413502,20.7998264 C-0.20443038,26.8133681 0.196413502,36.8359375 9.06308017,37.3230903 C17.9297468,37.8102431 18.8396624,27.9993056 18.8396624,23.8425347 C18.8396624,21.4746528 18.2744726,5.19496528 17.556962,0.135763889 L16.8113924,0.135763889 Z" id="Shape" fill="#C8C8BE"/>
          <path d="M9.35970464,34.5039931 C12.5223629,34.5039931 14.3341772,33.3819444 14.4063291,32.3836806 C14.4504219,31.7887153 13.5765823,30.0996528 9.15126582,30.1954861 C4.72594937,30.2913194 4.28902954,31.1138889 4.14472574,31.6529514 C3.84008439,32.7949653 6.19704641,34.5039931 9.35970464,34.5039931 Z" id="Shape" fill="#828278"/>
        </g>
      </g>
    </g>
  </g>
</svg>