<svg width="157px" height="122px" viewBox="0 0 157 122" version="1.1" xml:space="preserve" xmlns="http://www.w3.org/2000/svg" xmlns:xlink="http://www.w3.org/1999/xlink">
  <!-- Generator: Sketch 48.2 (47327) - http://www.bohemiancoding.com/sketch -->
  <defs/>
  <g>
    <title>takeout-c</title>
    <desc>Created with Sketch.</desc>
    <g id="food" stroke="none" stroke-width="1" fill="none" fill-rule="evenodd">
      <g id="takeout-c" fill-rule="nonzero">
        <g id="scratch_fridge_takeout02" transform="translate(95.500000, 66.000000) scale(-1, 1) translate(-95.500000, -66.000000) translate(38.000000, 15.000000)">
          <path d="M101.168056,78.5160938 C101.168056,78.5160938 105.476562,83.2614844 108.275694,79.2053906 C108.433597,78.875584 108.567057,78.5346703 108.675,78.1853906 L101.168056,78.5160938 Z" id="Shape" fill="#00A08C"/>
          <path d="M42.4940972,76.3326563 C43.0690972,74.2089844 43.8397569,71.2167188 44.9578125,67.1446875 C47.2059028,58.9727344 55.2798611,47.6650781 51.6102431,44.9198437 C47.940625,42.1746094 46.9942708,46.9877344 46.503125,47.6172656 C46.1637153,48.0515625 42.4701389,55.9286719 40.96875,63.75 C39.7269097,70.2285938 39.6190972,73.9420313 39.7708333,76.3326563 L42.4940972,76.3326563 Z" id="Shape" fill="#006482"/>
          <path d="M98.1253472,92.0908594 C98.1253472,91.5250781 98.0255208,90.0269531 98.0255208,90.0269531 C98.0255208,90.0269531 93.2338542,91.7322656 89.9875,89.9392969 C87.9909722,88.835625 88.0947917,85.1580469 88.3223958,82.7395312 C88.3223958,82.7395312 88.6098958,76.0457812 83.9300347,76.1453906 C79.2501736,76.245 80.5598958,83.0144531 80.5598958,83.0144531 C80.6197917,85.6321875 80.9592014,89.8197656 82.5564236,92.2821094 C84.6368056,95.4696094 91.0017361,94.3699219 92.4951389,93.9675 C94.0923611,93.5371875 95.6895833,92.37375 97.3826389,92.3139844 C97.60625,93.075 97.1510417,94.828125 97.1510417,94.828125 C97.1510417,94.828125 97.7340278,95.4536719 97.9496528,94.9875 C98.2092014,94.4296875 98.1173611,92.7363281 98.1253472,92.0908594 Z" id="Shape" fill="#006482"/>
          <path d="M67.1072917,74.619375 C64.5597222,68.9257031 59.4645833,78.380625 59.4645833,78.380625 C56.5935764,83.8272656 54.8046875,88.4053125 53.9501736,90.1664062 C52.5845486,92.9953125 51.8418403,96.3421875 50.16875,98.9798438 C49.665625,98.7208594 48.3758681,96.7565625 47.9166667,97.123125 C47.0940972,97.7805469 49.1385417,99.1551563 49.4859375,99.51375 C50.2166667,100.310625 50.9114583,101.932266 51.7659722,101.649375 C52.5286458,101.406328 69.6548611,80.3130469 67.1072917,74.619375 Z" id="Shape" fill="#006482"/>
          <polygon id="Shape" fill="#828278" points="56.9809028 12.9571875 53.9142361 25.4880469 51.5583333 25.3685156 56.8052083 9.66609375"/>
          <path d="M92.215625,54.5580469 L95.4939236,85.9230469 C95.4939236,85.9230469 78.0921875,85.711875 74.7300347,85.4767969 C76.2394097,81.8908594 78.0203125,54.3986719 78.0203125,54.3986719 L92.215625,54.5580469 Z" id="Shape" fill="#008264"/>
          <path d="M100.988368,22.0495312 C99.5348958,22.0495312 87.0805556,21.5594531 87.0805556,21.5594531 L78.6352431,39.1504688 C78.1440972,40.640625 95.4979167,85.9230469 95.4979167,85.9230469 C95.4979167,85.9230469 104.075,44.529375 105.08125,39.3895313 C105.592361,36.7717969 105.979688,34.1301563 106.470833,31.5124219 C107.017882,28.6038281 108.175868,25.4482031 108.175868,22.4798438 C105.99566,21.706875 103.26441,22.0415625 100.988368,22.0495312 Z" id="Shape" fill="#00A08C"/>
          <path d="M95.3501736,32.0383594 L87.0765625,21.5594531 L69.6388889,21.3004687 L66.4963542,27.6475781 L74.7140625,85.4767969 C74.7140625,85.4767969 76.4310764,82.5602344 76.9222222,81.7235156 C77.6809028,80.4246094 78.3557292,79.0898437 78.9866319,77.7391406 C80.1206597,75.2927344 81.3824653,72.9180469 82.4925347,70.4517187 C84.4491319,66.0689062 86.5534722,61.6621875 88.2065972,57.1598437 C90.0673611,52.0757812 92.0958333,47.0076562 93.6850694,41.8319531 C94.4118056,39.4692187 95.4579861,37.1064844 95.9491319,34.6839844 C96.1967014,33.46875 96.1048611,33.1061719 95.3501736,32.0383594 Z" id="Shape" fill="#78C8C8"/>
          <path d="M93.0142361,35.2696875 C93.0142361,36.3773438 92.3793403,37.261875 91.5967014,37.261875 C90.8140625,37.261875 90.1791667,36.3653906 90.1791667,35.2696875 C90.158096,34.6527318 90.3852792,34.0530096 90.8100694,33.6042187 C91.0218986,33.3923413 91.3087594,33.2721217 91.6086806,33.2695313 C92.0079861,33.2695313 92.5590278,33.8233594 92.8065972,34.1859375 C93.0541667,34.5485156 93.0142361,34.7158594 93.0142361,35.2696875 Z" id="Shape" fill="#281446"/>
          <path d="M95.2862847,0.466171875 C89.3650757,0.11548844 83.4289281,0.0928755657 77.5052083,0.3984375 C73.1128472,0.609609375 61.5329861,-0.67734375 58.9255208,3.77320313 C57.4880208,6.215625 56.7892361,9.2596875 56.1303819,11.985 C55.4954861,14.6027344 54.3494792,17.3639062 54.0260417,20.0254688 C55.9626736,19.8063281 56.0225694,16.5391406 56.5097222,14.885625 C57.2125,12.495 57.7276042,10.0645313 58.3465278,7.63804688 C58.8496528,5.64585938 59.3807292,3.11578125 61.3972222,2.22328125 C63.3378472,1.35867188 66.4484375,1.74515625 68.5368056,1.64554688 C76.6746528,1.24710938 87.0965278,1.64554688 95.2263889,1.72125 C96.6519097,1.72125 98.4927083,1.85273438 98.9399306,3.65765625 C99.2753472,5.0203125 96.3085069,17.5113281 95.4300347,21.8184375 C95.0307292,23.6871094 94.9348958,25.5996094 94.5475694,27.4523437 C94.3199653,28.5480469 94.0005208,29.6278125 93.7489583,30.7155469 C93.5692708,31.4446875 93.4734375,33.6799219 92.9743056,34.2815625 C92.8625,34.4130469 92.0439236,34.6242187 91.4329861,34.8792187 C91.346344,35.212438 91.370159,35.5646927 91.5008681,35.8832812 L91.7085069,35.9430469 C93.3057292,36.3733594 94.0005208,34.9190625 94.4078125,33.7357031 C96.7118056,27.0100781 99.9701389,6.24351562 100.022049,4.85695312 C100.109896,1.71726562 98.0814236,0.6375 95.2862847,0.466171875 Z" id="Shape" fill="#828278"/>
          <path d="M69.6428819,21.3004688 L35.8376736,21.3921094 C35.8376736,21.3921094 37.1913194,26.8108594 37.5027778,28.11375 C38.2215278,31.0940625 39.1,34.0464844 39.6590278,37.0586719 C40.8569444,43.3340625 42.8854167,49.5457031 44.4506944,55.6457813 C46.0159722,61.7458594 47.9526042,67.7503125 49.4819444,73.8503906 C50.1407986,76.4760938 52.4487847,84.4448438 52.4487847,84.4448438 C52.4487847,84.4448438 56.6055556,84.7675781 57.9192708,84.8791406 C60.9659722,85.1421094 63.96875,85.3373438 67.0234375,85.4130469 C68.6446181,85.4528906 70.2657986,85.5285937 71.8829861,85.5166406 C73.5001736,85.5046875 74.7220486,85.4767969 74.7220486,85.4767969 L69.6428819,21.3004688 Z" id="Shape" fill="#00A0B4"/>
          <polygon id="Shape" fill="#828278" points="109.5375 76.6514063 113.330903 79.0101563 114.7125 78.8746875 114.62066 71.7227344 113.330903 71.4836719"/>
          <path d="M113.330903,79.0101563 L113.330903,71.4836719 C113.330903,71.4836719 51.2388889,73.5794531 44.9737847,73.8742969 C42.4342014,73.9858594 39.9065972,74.2408594 37.3590278,74.364375 C35.9614583,74.4321094 32.9666667,74.1452344 31.3135417,74.7628125 L31.3135417,77.5757813 C32.6432292,78.1415625 34.8314236,78.0459375 35.9894097,78.1535156 C38.7845486,78.4125 41.6315972,78.4045313 44.4387153,78.5798438 C50.0489583,78.9225 113.330903,79.0101563 113.330903,79.0101563 Z" id="Shape" fill="#C8C8BE"/>
          <path d="M-4.26819074e-15,68.8101563 C5.246875,69.3121875 22.6206597,69.2564062 24.4215278,70.2604688 C25.3279514,70.7664844 24.509375,71.6908594 24.509375,71.6908594 C24.509375,71.6908594 2.06041667,73.0933594 -4.26819074e-15,73.3682813 L-4.26819074e-15,74.5078125 C2.20017361,74.8544531 20.1489583,74.555625 21.778125,74.7349219 C22.5487847,74.8185938 25.4397569,75.7628906 23.7227431,77.4004688 C22.8642361,78.22125 5.16701389,78.1973438 -4.26819074e-15,78.699375 L-4.26819074e-15,79.3169531 C5.33871528,79.8588281 24.1619792,78.8388281 24.1979167,81.3888281 C24.2338542,83.9388281 5.22690972,83.098125 -7.10542736e-15,83.6957813 L-7.10542736e-15,84.245625 C3.78142361,84.6042188 13.1770833,85.3014844 20.6640625,85.3174219 C26.6895833,85.3174219 36.7001736,85.3174219 37.1873264,76.5039844 C37.6744792,67.6905469 27.8635417,66.778125 23.7067708,66.778125 C21.3388889,66.778125 5.05920139,67.3399219 -1.43095412e-15,68.053125 L-4.26819074e-15,68.8101563 Z" id="Shape" fill="#C8C8BE"/>
          <path d="M34.3402778,76.2171094 C34.3402778,73.0734375 33.2182292,71.2725 32.2199653,71.2007813 C31.625,71.1569531 29.9359375,72.0255469 30.0317708,76.4242969 C30.1276042,80.8230469 30.9501736,81.2573438 31.4892361,81.4007813 C32.6512153,81.6996094 34.3402778,79.3607813 34.3402778,76.2171094 Z" id="Shape" fill="#828278"/>
          <path d="M108.391493,78.9902344 L105.169097,80.1377344 C105.169097,80.1377344 105.720139,74.5954687 103.671701,67.1446875 C101.423611,58.9727344 93.6052083,46.951875 97.6821181,44.9198438 C101.759028,42.8878125 106.155382,55.9286719 107.664757,63.75 C109.940799,75.639375 108.391493,78.9902344 108.391493,78.9902344 Z" id="Shape" fill="#00A08C"/>
          <path d="M38.9402778,79.464375 C38.9402778,79.464375 37.2751736,77.6315625 37.3829861,76.595625 C37.3829861,76.595625 37.5546875,76.2848438 37.8342014,76.6633594 C38.2620842,77.0674452 38.7397639,77.415554 39.2557292,77.6992969 L38.9402778,79.464375 Z" id="Shape" fill="#281446"/>
          <path d="M43.7439236,78.9464062 C43.8317708,77.1614062 44.4786458,76.0417969 43.8197917,75.9103125 C43.1609375,75.7788281 43.1689236,77.7630469 42.1506944,77.71125 C41.3920139,77.6714062 42.7017361,75.2767969 41.9270833,75.1453125 C41.1524306,75.0138281 41.2642361,78.8866406 39.9784722,77.4960937 C39.7269097,77.2211719 40.1421875,75.0138281 39.6230903,75.1453125 C39.1039931,75.2767969 39.0321181,77.8148437 38.9043403,79.4404687 C38.9043403,79.4404687 39.5472222,80.1935156 41.2123264,80.3010937 C42.2364651,80.3261926 43.1982357,79.8115378 43.7439236,78.9464062 Z" id="Shape" fill="#006482"/>
        </g>
      </g>
    </g>
  </g>
</svg>