<svg width="189px" height="108px" viewBox="0 0 189 108" version="1.1" xml:space="preserve" xmlns="http://www.w3.org/2000/svg" xmlns:xlink="http://www.w3.org/1999/xlink">
  <defs/>
  <g>
    <title>fox-c</title>
    <desc>Created with Sketch.</desc>
    <g id="mountain" stroke="none" stroke-width="1" fill="none" fill-rule="evenodd">
      <g id="fox-c">
        <g id="Group-63" transform="translate(42.000000, 18.000000)">
          <path d="M2.95658851,69.2369693 C2.95658851,69.2369693 -3.34318161,56.0972175 3.92904828,43.1789255 C10.7045885,31.1422832 35.1451862,27.9089693 39.1473931,16.0135825 C41.9613701,7.64898394 40.3750713,0.476078832 40.3750713,0.476078832 C40.3750713,0.476078832 64.1139678,26.0636701 39.4785195,45.3408526 C28.5208644,54.7439182 8.59769195,48.3592905 2.95658851,69.2369693" id="Fill-1" fill="#D9824C"/>
          <path d="M38.0014805,18.4183372 L39.2231816,18.1394175 L38.5878253,19.4861328 L40.0061701,18.7265854 L39.8579402,20.4024978 L40.9230437,19.3801912 L41.0909977,21.1135635 L42.3796414,19.9913007 L42.4358253,21.7306584 L43.8177103,20.4964686 L44.0609747,22.4339431 L45.0322391,21.3194613 L45.3866759,23.170746 L46.302354,21.6372861 L47.244331,23.1689504 L47.9645609,21.5439139 L49.1037793,23.0330818 L49.4588138,21.4313883 L50.6649747,22.7691255 C50.6649747,22.7691255 50.1126989,11.624308 40.3749517,0.47589927 C41.9941241,12.3976219 38.0014805,18.4183372 38.0014805,18.4183372" id="Fill-3" fill="#F5CEB8"/>
          <path d="M2.95658851,69.2369693 C2.95658851,69.2369693 -3.34318161,56.0972175 3.92904828,43.1789255 C10.7045885,31.1422832 35.1451862,27.9089693 39.1473931,16.0135825 C41.9613701,7.64898394 40.3750713,0.476078832 40.3750713,0.476078832 C40.3750713,0.476078832 64.1139678,26.0636701 39.4785195,45.3408526 C28.5208644,54.7439182 8.59769195,48.3592905 2.95658851,69.2369693 Z" id="Stroke-5" stroke="#80432F" stroke-width="0.5"/>
          <g id="Group-10" transform="translate(61.563218, 65.240876)">
            <path d="M6.30024828,2.9959927 C6.30024828,2.9959927 7.52912184,4.63838686 6.8328,6.03478102 C6.13647816,7.43117518 0.562914943,16.5499343 0.562914943,16.5499343 L42.2376276,16.5499343 C42.2376276,16.5499343 39.2365701,11.200781 37.888754,11.5766642 C35.9276966,12.1231314 34.5183172,12.572635 33.3193287,12.8719051 C31.8890299,13.3704891 15.6064552,10.4376423 15.6064552,10.4376423 L20.7305471,0.551554745" id="Fill-7" fill="#BF6C46"/>
            <path d="M6.30024828,2.9959927 C6.30024828,2.9959927 7.52912184,4.63838686 6.8328,6.03478102 C6.13647816,7.43117518 0.562914943,16.5499343 0.562914943,16.5499343 L42.2376276,16.5499343 C42.2376276,16.5499343 39.2365701,11.200781 37.888754,11.5766642 C35.9276966,12.1231314 34.5183172,12.572635 33.3193287,12.8719051 C31.8890299,13.3704891 15.6064552,10.4376423 15.6064552,10.4376423 L20.7305471,0.551554745" id="Stroke-9" stroke="#80432F" stroke-width="0.5"/>
          </g>
          <path d="M100.72914,81.8150511 C100.72914,81.8150511 100.727945,81.7528029 100.715393,81.6630219 C100.707623,81.5726423 100.683117,81.4367737 100.650841,81.2727737 C100.616772,81.1093723 100.562382,80.9208321 100.499025,80.7203212 C100.417738,80.5269927 100.356772,80.3055328 100.242014,80.1104088 C100.190014,80.009854 100.137416,79.9087007 100.086014,79.8099416 C100.038198,79.7075912 99.9640828,79.6255912 99.9067034,79.5352117 C99.7817839,79.3622336 99.6801747,79.1856642 99.5534621,79.0689489 C99.3173701,78.816365 99.1601747,78.6481752 99.1601747,78.6481752 C99.1601747,78.6481752 99.3358989,78.7984088 99.6000828,79.0240584 C99.7423356,79.1288029 99.8642667,79.2928029 100.011899,79.4556058 C100.081232,79.54 100.167301,79.6178102 100.228267,79.7159708 C100.292818,79.8117372 100.358566,79.9092993 100.423715,80.0068613 C100.566566,80.1977956 100.655623,80.4174599 100.763807,80.6125839 C100.854657,80.8154891 100.934749,81.0088175 100.990933,81.1794015 C101.045922,81.3499854 101.089554,81.4948321 101.111071,81.6037664 C101.137968,81.7132993 101.144543,81.7659708 101.144543,81.7659708 L100.72914,81.8150511 Z" id="Fill-11" fill="#80432F"/>
          <path d="M74.5178529,43.4833431 C74.5178529,43.4833431 74.5871862,45.4740876 78.3485195,45.8284234 C80.1081517,45.9936204 82.6752782,45.8014891 86.4222667,44.8791387 C98.1766575,41.9869927 100.368428,41.1885401 100.368428,41.1885401 C100.368428,41.1885401 104.004244,39.7418686 102.958267,35.9010365 L92.1004276,35.9010365 C92.1004276,35.9010365 88.5638299,32.0111241 86.6213011,30.6147299 L77.2571172,30.6147299 L75.5638299,22.4338832 C75.5638299,22.4338832 65.7513701,47.1739416 61.4682437,52.5105255" id="Stroke-13" stroke="#80432F" stroke-width="0.5"/>
          <polyline id="Stroke-15" stroke="#80432F" stroke-width="0.5" points="79.6479218 30.6147299 84.3434621 23.0324234 84.3434621 30.6147299"/>
          <path d="M13.4286115,52.5111241 C18.4791862,50.206146 36.7640598,56.9888029 49.7413471,55.4637226 C50.6169793,55.3607737 52.8189103,53.434073 53.997577,52.6864964 C55.1182667,51.9754307 62.3438759,50.8627445 62.8584966,49.8835328 C63.8542667,47.9897518 75.5638299,22.4338832 75.5638299,22.4338832 L77.1513241,30.6147299 L86.515508,30.6147299 C88.4580368,32.0111241 91.9946345,35.9010365 91.9946345,35.9010365 L102.852474,35.9010365 C103.898451,39.7418686 100.262634,41.1885401 100.262634,41.1885401 C100.262634,41.1885401 98.1079218,42.140219 86.3164736,44.8791387 C84.3309103,45.3412117 85.1605195,44.9545547 83.701531,45.3412117 C83.7140828,45.3418102 88.7389563,62.2254307 76.7753701,73.4809781 C75.0623586,75.0928467 67.7249793,79.6585109 56.5127034,81.6037664 L8.79642759,81.7905109 C8.79642759,81.7905109 1.39987586,70.3057226 3.0812092,66.8641168 C3.0812092,66.8641168 7.55141609,55.1931825 13.4286115,52.5111241" id="Fill-17" fill="#D9824C"/>
          <polyline id="Fill-19" fill="#D9824C" points="79.6479218 30.6147299 84.3434621 23.0324234 84.3434621 30.6147299"/>
          <polygon id="Fill-21" fill="#F5CEB8" points="73.6677425 33.4905358 75.6132598 23.4811489 77.2569379 30.6145504"/>
          <polyline id="Stroke-23" stroke="#80432F" stroke-width="0.5" points="77.2468966 30.6147299 73.4467126 33.6684818 75.5386667 23.0324234"/>
          <path d="M81.7772322,30.6147299 L84.1273931,23.6686715" id="Stroke-25" stroke="#80432F" stroke-width="0.5"/>
          <path d="M88.9621977,36.6001314 C88.9621977,36.6001314 87.343623,35.0780438 86.7704276,34.6794161 L83.5081747,34.6794161 C83.5081747,34.6794161 84.4919908,36.7988467 88.9621977,36.6001314" id="Fill-27" fill="#232020"/>
          <path d="M103.27726,38.0076584 C103.259926,38.0800818 100.200294,37.7496876 100.200294,35.7044759 L103.088984,35.7044759 C103.088984,35.7044759 103.565352,36.7998044 103.27726,38.0076584" id="Fill-29" fill="#232020"/>
          <path d="M80.2967264,45.8652336 C80.2967264,45.8652336 79.8233471,65.7924307 68.6164506,70.5556131 C57.9193931,75.1021241 43.7180138,77.5339927 43.7180138,77.5339927 L46.7507494,81.7902117 C46.7507494,81.7902117 67.4084966,82.4264599 77.3124046,73.0024453 C87.8104276,63.0122117 83.7287264,45.4576277 83.7287264,45.4576277 L80.2967264,45.8652336 Z" id="Fill-31" fill="#F5CEB8"/>
          <path d="M81.7772322,30.6147299 C81.8268414,30.5399124 84.1554851,23.8805547 84.1554851,23.8805547 L84.3431632,30.6147299 L81.7772322,30.6147299 Z" id="Fill-33" fill="#F5CEB8"/>
          <path d="M74.5178529,43.4833431 C74.5178529,43.4833431 74.5871862,45.4740876 78.3485195,45.8284234 C80.1081517,45.9936204 82.6752782,45.8014891 86.4222667,44.8791387 C98.1766575,41.9869927 100.368428,41.1885401 100.368428,41.1885401 C100.368428,41.1885401 104.004244,39.7418686 102.958267,35.9010365 L92.1004276,35.9010365 C92.1004276,35.9010365 88.5638299,32.0111241 86.6213011,30.6147299 L77.2571172,30.6147299 L75.5638299,22.4338832 C75.5638299,22.4338832 66.0006115,44.2530657 62.7993241,49.9649343 C62.2721517,51.0590657 56.6639218,51.6516204 53.997577,52.6864964 C52.9372552,53.0976934 51.4944046,55.0429489 49.9660828,55.4278102 C42.5121517,57.3030365 15.6693931,50.3815182 13.0173931,52.5111241 C6.92861149,57.4 3.38663448,65.0206131 2.83615172,67.9839854 C2.78176092,72.2886861 8.79642759,81.7905109 8.79642759,81.7905109 L46.7504506,81.7905109 C46.7504506,81.7905109 44.135508,76.9644818 42.6412552,76.9644818 C41.8678299,76.9644818 38.3073241,78.3860146 38.3073241,78.3860146 C38.3073241,78.3860146 27.8481517,79.0593723 24.7849333,77.3762774" id="Stroke-35" stroke="#80432F" stroke-width="0.5"/>
          <polyline id="Stroke-37" stroke="#80432F" stroke-width="0.5" points="79.6479218 30.6147299 84.3434621 23.0324234 84.3434621 30.6147299"/>
          <path d="M89.0190989,36.5802599 C88.2325241,36.0224204 87.4895816,35.4137051 86.7615816,34.7894277 L86.8578115,34.8253401 C86.0604782,34.8337197 85.2637425,34.822946 84.4670069,34.8043912 C83.6696736,34.7750628 82.8729379,34.7481285 82.0762023,34.6792964 C82.8729379,34.6104642 83.6696736,34.5835299 84.4670069,34.5542015 C85.2637425,34.5356467 86.0604782,34.524873 86.8578115,34.5332526 L86.9145931,34.5332526 L86.9540414,34.5697635 C87.6665011,35.2119971 88.3652138,35.8703912 89.0190989,36.5802599" id="Fill-39" fill="#80432F"/>
          <path d="M20.9745885,56.5770073 C20.9745885,56.5770073 36.589531,56.3525547 36.589531,63.2734745 C36.589531,70.1937956 26.0544506,77.8539124 26.0544506,77.8539124" id="Stroke-41" stroke="#80432F" stroke-width="0.5"/>
          <path d="M11.635508,77.0770073 C11.635508,77.0770073 8.31109425,81.7905109 11.2248874,81.7905109" id="Stroke-43" stroke="#80432F" stroke-width="0.5"/>
          <path d="M80.2967264,45.8652336 C80.2967264,45.8652336 79.8233471,65.7924307 68.6164506,70.5556131 C57.9193931,75.1021241 43.7180138,77.5339927 43.7180138,77.5339927 L46.7507494,81.7902117 C46.7507494,81.7902117 67.4084966,82.4264599 77.3124046,73.0024453 C87.8104276,63.0122117 83.7287264,45.4576277 83.7287264,45.4576277 L80.2967264,45.8652336 Z" id="Stroke-45" stroke="#80432F" stroke-width="0.5"/>
          <path d="M43.7996,81.8308526 C43.7978069,81.8206774 43.7798759,81.658473 43.6985885,81.3855387 C43.649577,81.2538599 43.6029563,81.0940496 43.5240598,80.9336409 C43.4481517,80.772035 43.3680598,80.5978599 43.2604736,80.4386482 C43.1654391,80.2704584 43.0548644,80.1118453 42.9377149,79.9729839 C42.8265425,79.8281372 42.7225425,79.6928672 42.6137609,79.5947066 L42.267692,79.2469547 C42.267692,79.2469547 42.423692,79.3666628 42.6579908,79.5468234 C42.7811172,79.6312175 42.903646,79.7527212 43.0363356,79.8844 C43.1750023,80.010692 43.3106805,80.1573343 43.4314161,80.3183416 C43.5653011,80.4691737 43.6734851,80.6391591 43.7762897,80.7989693 C43.8826805,80.9575825 43.9561977,81.1209839 44.0273241,81.2580496 C44.1552322,81.5357723 44.2132092,81.7602248 44.2102207,81.7500496 L43.7996,81.8308526 Z" id="Fill-47" fill="#80432F"/>
          <path d="M83.7017103,45.3409124 C83.7017103,45.3409124 88.3655724,64.507365 75.9806069,74.1324891 C64.4240552,83.1123869 47.7589517,81.675292 38.3081011,81.675292" id="Stroke-49" stroke="#80432F" stroke-width="0.5"/>
          <path d="M10.8317793,81.7905109 L46.7506299,81.7905109 C46.7506299,81.7905109 44.1356874,76.9644818 42.6414345,76.9644818 C41.8674115,76.9644818 38.3075034,78.3866131 38.3075034,78.3866131 C38.3075034,78.3866131 27.848331,79.0599708 24.7851126,77.3762774" id="Stroke-51" stroke="#80432F" stroke-width="0.5"/>
          <path d="M20.9745885,56.5770073 C20.9745885,56.5770073 36.589531,56.3525547 36.589531,63.2734745 C36.589531,70.1937956 26.0544506,77.8539124 26.0544506,77.8539124" id="Stroke-53" stroke="#80432F" stroke-width="0.5"/>
          <path d="M11.635508,77.0770073 C11.635508,77.0770073 8.31109425,81.7905109 11.2248874,81.7905109" id="Stroke-55" stroke="#80432F" stroke-width="0.5"/>
          <g id="Group-60" transform="translate(52.597701, 65.240876)">
            <path d="M5.65849655,2.9959927 C5.65849655,2.9959927 6.94415172,4.63838686 6.29684138,6.03478102 C5.64893333,7.43117518 0.393944828,16.5499343 0.393944828,16.5499343 L42.0686575,16.5499343 C42.0686575,16.5499343 38.8805195,11.200781 37.5458529,11.5766642 C35.6045195,12.1231314 34.2106805,12.572635 33.0218529,12.8719051 C31.6088874,13.3704891 15.2241057,10.4376423 15.2241057,10.4376423 L20.0033241,0.551554745" id="Fill-57" fill="#D9824C"/>
            <path d="M5.65849655,2.9959927 C5.65849655,2.9959927 6.94415172,4.63838686 6.29684138,6.03478102 C5.64893333,7.43117518 0.393944828,16.5499343 0.393944828,16.5499343 L42.0686575,16.5499343 C42.0686575,16.5499343 38.8805195,11.200781 37.5458529,11.5766642 C35.6045195,12.1231314 34.2106805,12.572635 33.0218529,12.8719051 C31.6088874,13.3704891 15.2241057,10.4376423 15.2241057,10.4376423 L20.0033241,0.551554745" id="Stroke-59" stroke="#80432F" stroke-width="0.5"/>
          </g>
          <path d="M91.5952506,81.822054 C91.5952506,81.822054 91.5916644,81.7592073 91.5755264,81.6688277 C91.5653655,81.5766526 91.5354805,81.4401854 91.4966299,81.2743898 C91.4559862,81.1109883 91.3956184,80.920054 91.3238943,80.7189445 C91.2366299,80.5250175 91.1666989,80.3035577 91.0453655,80.1084336 C90.9897793,80.0078788 90.9341931,79.9067255 90.8792046,79.8073679 C90.8266069,79.7062146 90.7506989,79.6230175 90.690331,79.5332365 C90.5600322,79.3608569 90.4518483,79.1848861 90.3215494,79.0681708 C90.0782851,78.8161854 89.9157103,78.6479956 89.9157103,78.6479956 C89.9157103,78.6479956 90.0968138,78.7976307 90.3681701,79.0214847 C90.5134115,79.1262292 90.6413195,79.2896307 90.7937333,79.450638 C90.8660552,79.5356307 90.9539172,79.6134409 91.0190667,79.7104044 C91.0866069,79.8061708 91.1559402,79.9031343 91.2246759,80.0000978 C91.3729057,80.1892365 91.4709287,80.4089007 91.5856874,80.6040248 C91.6849057,80.8057328 91.770377,80.9996599 91.8337333,81.1702438 C91.8946989,81.3408277 91.9437103,81.4856745 91.9694115,81.5958058 C91.9998943,81.7059372 92.0088598,81.7592073 92.0088598,81.7592073 L91.5952506,81.822054 Z" id="Fill-61" fill="#80432F"/>
        </g>
      </g>
    </g>
  </g>
</svg>