<svg width="165px" height="145px" viewBox="0 0 165 145" version="1.1" xml:space="preserve" xmlns="http://www.w3.org/2000/svg" xmlns:xlink="http://www.w3.org/1999/xlink">
  <defs/>
  <g>
    <title>casey-a</title>
    <desc>Created with Sketch.</desc>
    <g id="basketball" stroke="none" stroke-width="1" fill="none" fill-rule="evenodd">
      <g id="casey-a" fill-rule="nonzero">
        <g id="scratch_bball_player02a" transform="translate(5.000000, 21.000000)">
          <path d="M65.3676093,76.948 C64.782108,78.84 60.6074036,79.824 60.2785604,85.416 C59.9497172,91.008 63.6552185,100.688 63.8156298,102.452 C60.4309512,102.548 57.0502828,102.952 53.6736247,102.736 C51.0950129,98.888 49.2342416,94.432 47.7945501,90.048 C47.3935219,88.784 46.8922365,84.232 48.5565039,80.772 C49.976144,77.832 53.5693573,75.856 53.5092031,75.432 L65.3676093,76.948 Z" id="Shape" fill="#DC785A"/>
          <path d="M63.7634961,100 C63.7634961,100 63.0456555,97.792 62.6887404,96.456 C62.3318252,95.12 61.7302828,92.904 61.7302828,92.904 L48.6888432,93.304 C48.9703692,94.6109667 49.3552227,95.893643 49.8397943,97.14 C50.4373265,98.432 51.5521851,100.472 51.5521851,100.472 L63.7634961,100 Z" id="Shape" fill="#FAF0E6"/>
          <path d="M63.6913111,98.224 L68.0504884,109.6 L63.4105913,115.004 L54.6200514,114.56 C54.387455,113.624 57.6277635,113.732 57.6277635,113.732 L50.288946,98.532 L63.6913111,98.224 Z" id="Shape" fill="#00A0DC"/>
          <ellipse id="Oval" fill="#006482" cx="61.6300257" cy="102.94" rx="2.56257069" ry="2.556"/>
          <path d="M53.3888946,100.54 C53.5212339,100.824 53.6575835,101.1 53.7899229,101.376 L50.9827249,101.376 L50.9827249,100.54 L53.3888946,100.54 Z" id="Shape" fill="#FAF0E6"/>
          <path d="M54.9729563,102.952 C55.0291003,103.092 55.0932648,103.228 55.1614396,103.352 L55.3739846,103.776 L52.1898201,103.776 L52.1898201,102.936 L54.9729563,102.952 Z" id="Shape" fill="#F0E6D2"/>
          <path d="M52.9638046,106 L52.9638046,105.352 L56.1439589,105.352 C56.2803085,105.632 56.4139846,105.912 56.5449871,106.192 L53.0560411,106.192 C53.0279692,106.144 52.9958869,106.08 52.9638046,106 Z" id="Shape" fill="#FAF0E6"/>
          <path d="M53.9663753,107.976 C53.9302828,107.912 53.8982005,107.848 53.8661183,107.784 L57.2507969,107.784 C57.2788689,107.844 57.3069409,107.904 57.3310026,107.968 C57.4232391,108.188 57.5275064,108.404 57.6237532,108.624 L54.2751671,108.624 C54.17491,108.4 54.074653,108.188 53.9663753,107.976 Z" id="Shape" fill="#F0E6D2"/>
          <path d="M58.5862211,111.036 L55.3419023,111.036 C55.2055527,110.76 55.0772237,110.48 54.940874,110.2 L58.3335733,110.2 C58.4338303,110.476 58.514036,110.756 58.5862211,111.036 Z" id="Shape" fill="#FAF0E6"/>
          <path d="M62.4441131,114.512 C60.9001542,109.852 68.030437,109.6 68.030437,109.6 L69.1212339,112.8 C69.3480098,113.485819 69.2215733,114.239044 68.7832003,114.813783 C68.3448273,115.388521 67.6507711,115.711021 66.9276093,115.676 L54.7644216,115.676 L54.6200514,114.564 L62.4441131,114.512 Z" id="Shape" fill="#281446"/>
          <path d="M59.6930591,66.984 L43.7120823,79.6 C43.7120823,79.6 44.0810283,82.472 47.5258612,84 C51.0308483,85.564 67.9141388,87.104 84.4766067,86.4 C101.039075,85.696 108.277635,80.3 108.277635,80.3 L59.6930591,66.984 Z" id="Shape" fill="#006482"/>
          <polygon id="Shape" fill="#281446" points="91.8354756 83.6 60.5552699 83.6 56.5449871 67.2 95.8457584 67.2"/>
          <path d="M45.5568123,88 C45.5568123,88 45.6731105,75.74 49.6954242,69.312 L71.0902828,69.34 C68.8645758,77.512 65.8769152,88.36 65.8769152,88.36 L45.5568123,88 Z" id="Shape" fill="#281446"/>
          <path d="M85.0179949,76.948 C85.6034961,78.84 89.7782005,79.824 90.1070437,85.416 C90.4358869,91.008 86.7303856,100.688 86.5699743,102.452 C89.954653,102.548 93.3353213,102.952 96.7119794,102.736 C99.2905913,98.888 101.151362,94.432 102.591054,90.048 C102.992082,88.784 103.493368,84.232 101.8291,80.772 C100.40946,77.832 96.8162468,75.856 96.876401,75.432 L85.0179949,76.948 Z" id="Shape" fill="#DC785A"/>
          <path d="M86.6461697,100 C86.6461697,100 87.3640103,97.792 87.7209254,96.456 C88.0778406,95.12 88.679383,92.904 88.679383,92.904 L101.720823,93.304 C101.439297,94.6109667 101.054443,95.893643 100.569871,97.14 C99.9723393,98.432 98.8574807,100.472 98.8574807,100.472 L86.6461697,100 Z" id="Shape" fill="#FAF0E6"/>
          <path d="M86.7183548,98.224 L82.3591774,109.6 L86.9990746,115.004 L95.7896144,114.56 C96.0222108,113.624 92.7819023,113.732 92.7819023,113.732 L100.12072,98.532 L86.7183548,98.224 Z" id="Shape" fill="#00A0DC"/>
          <ellipse id="Oval" fill="#006482" cx="88.7796401" cy="102.94" rx="2.56257069" ry="2.556"/>
          <path d="M97.0207712,100.54 C96.8884319,100.824 96.7520823,101.1 96.6197429,101.376 L99.4269409,101.376 L99.4269409,100.54 L97.0207712,100.54 Z" id="Shape" fill="#FAF0E6"/>
          <path d="M95.4447301,102.952 C95.3885861,103.092 95.3244216,103.228 95.2562468,103.352 L95.0437018,103.776 L98.2278663,103.776 L98.2278663,102.936 L95.4447301,102.952 Z" id="Shape" fill="#F0E6D2"/>
          <path d="M97.4498715,106 L97.4498715,105.352 L94.2657069,105.352 C94.1293573,105.632 93.9956812,105.912 93.8646787,106.192 L97.3536247,106.192 C97.3816967,106.144 97.4137789,106.08 97.4498715,106 Z" id="Shape" fill="#FAF0E6"/>
          <path d="M96.4432905,107.976 C96.479383,107.912 96.5114653,107.848 96.5435476,107.784 L93.1588689,107.784 C93.1307969,107.844 93.1027249,107.904 93.0786632,107.968 C92.9864267,108.188 92.8821594,108.404 92.7859126,108.624 L96.1344987,108.624 C96.2467866,108.4 96.3350129,108.188 96.4432905,107.976 Z" id="Shape" fill="#F0E6D2"/>
          <path d="M91.8354756,111.036 L95.0797943,111.036 C95.216144,110.76 95.344473,110.48 95.4808226,110.2 L92.0881234,110.2 C91.9758355,110.476 91.8956298,110.756 91.8354756,111.036 Z" id="Shape" fill="#FAF0E6"/>
          <path d="M87.9655527,114.512 C89.5095116,109.852 82.3792288,109.6 82.3792288,109.6 L81.2884319,112.8 C81.0616561,113.485819 81.1880925,114.239044 81.6264655,114.813783 C82.0648385,115.388521 82.7588947,115.711021 83.4820566,115.676 L95.6452442,115.676 L95.7896144,114.564 L87.9655527,114.512 Z" id="Shape" fill="#281446"/>
          <path d="M104.812751,88 C104.812751,88 104.696452,75.74 100.674139,69.312 L79.2792802,69.34 C81.5049871,77.512 84.4926478,88.36 84.4926478,88.36 L104.812751,88 Z" id="Shape" fill="#281446"/>
          <path d="M155.85563,37.496 C155.378406,35.496 147.470129,41.348 144.65491,36.736 C142.782108,33.664 147.570386,31.136 149.387044,29.416 C150.662314,28.216 153.16874,26.728 152.322571,24.616 C149.515373,23.704 141.691311,30.8 139.136761,28.288 C136.582211,25.776 143.09892,22.064 143.9491,20.308 C146.178817,15.804 135.728021,22.508 135.102416,22.984 C129.504062,27.228 86.622108,47.6 86.622108,47.6 L95.316401,65.884 C98.9858098,67.684 156.332853,39.508 155.85563,37.496 Z" id="Shape" fill="#DC785A"/>
          <path d="M120.669409,31.62 C121.872494,26.692 120.208226,19.828 123.328226,18.052 C124.162365,18.396 124.555373,19.12 124.856144,19.792 C125.116812,21.564 125.257172,23.028 124.856144,24.768 C124.93635,24.88 124.924319,26.744 126.821183,26.6 C128.718046,26.456 131.497172,26.46 133.682776,30.256 C135.687918,33.748 136.169152,37.884 133.839177,41.428 C131.797943,44.536 128.373162,46.628 124.66365,45.428 C121.800308,44.48 119.450283,36.544 120.669409,31.62 Z" id="Shape" fill="#DC5050"/>
          <path d="M0.120308483,40.284 C0.601542416,38.284 5.9833419,42.548 8.79455013,37.936 C10.6713625,34.864 5.88308483,32.336 4.06241645,30.616 C2.78714653,29.416 1.20308483,28.516 2.05727506,26.392 C4.86447301,25.48 11.7661697,31.992 14.3167095,29.476 C16.8672494,26.96 10.3585604,23.252 9.50437018,21.496 C7.27866324,16.992 17.7294602,23.696 18.3550643,24.172 C23.9494087,28.428 66.8313625,48.8 66.8313625,48.8 L58.1491003,67.084 C54.4676607,68.884 -0.356915167,42.296 0.120308483,40.284 Z" id="Shape" fill="#DC785A"/>
          <path d="M32.3228792,30.572 C29.611928,26.28 29.0344473,19.236 25.5053985,18.532 C24.8196401,19.124 24.6792802,19.936 24.6030848,20.668 C24.9158869,22.428 25.2647815,23.868 26.2071979,25.38 C26.1670951,25.516 26.7646272,27.276 24.9198972,27.74 C23.0751671,28.204 20.4524422,29.076 19.5621594,33.368 C18.7601028,37.312 19.6142931,41.388 22.946838,44.02 C25.8663239,46.328 29.7643188,47.248 32.916401,44.92 C35.3145501,43.136 35.0378406,34.864 32.3228792,30.572 Z" id="Shape" fill="#DC5050"/>
          <polygon id="Shape" fill="#DC785A" points="88.1901285 43.6 86.0887404 54.612 58.670437 54.664 62.7208226 43.688"/>
          <polygon id="Shape" fill="#006482" points="90.5201028 43.48 94.4942931 41.896 104.824781 64.728 99.7237018 68.94"/>
          <polygon id="Shape" fill="#006482" points="59.9336761 43.48 55.2296144 42.052 46.4871979 64.884 50.4814396 69.212"/>
          <path d="M108.277635,80.3 L91.6510026,41.464 L85.3668895,41.632 C85.3668895,41.632 86.3574293,50.912 74.6433933,50.944 C66.2498715,50.968 64.9344987,41.8 64.9344987,41.8 L57.8884319,41.2 L43.7120823,79.6 L108.277635,80.3 Z" id="Shape" fill="#00A0DC"/>
          <path d="M84.2159383,32.476 C84.0956298,32.284 84.7853985,27.236 85.5513625,25.744 C86.2291003,24.424 88.2061697,23.072 89.6057584,23.884 C91.3382005,24.896 90.7807712,27.404 90.0067866,28.76 C88.8758869,30.764 86.3774807,31.824 84.2159383,32.476 Z" id="Shape" fill="#DC785A"/>
          <path d="M65.8127506,32.476 C65.9370694,32.284 65.2432905,27.236 64.4773265,25.744 C63.7995887,24.424 61.8225193,23.072 60.4229306,23.884 C58.6904884,24.896 59.2479177,27.404 60.0219023,28.76 C61.1688432,30.764 63.6672494,31.824 65.8127506,32.476 Z" id="Shape" fill="#DC785A"/>
          <path d="M82.9125964,14.22 C85.034036,16.416 92.3367609,6.492 93.3794344,5.12 C91.8074036,1.844 88.791671,0.512 85.2425707,0.36 C84.2025649,2.62658816 83.5427838,5.04814074 83.289563,7.528 C83.048946,9.648 82.5476607,12.096 82.9125964,14.22 Z" id="Shape" fill="#FFC800"/>
          <path d="M78.7860154,15.292 L84.7573265,19.008 C84.7573265,19.008 87.2878149,15.988 83.9913625,13.848 C80.69491,11.708 78.7860154,15.292 78.7860154,15.292 Z" id="Shape" fill="#006482"/>
          <path d="M64.4292031,16.276 C63.1860154,19.076 52.9237018,12.224 51.4759897,11.288 C51.8329049,7.688 54.2110026,5.396 57.4914139,4.04 C59.2428424,5.81725977 60.6909652,7.86834854 61.7784062,10.112 C62.7368638,12.024 64.0442159,14.152 64.4292031,16.276 Z" id="Shape" fill="#FFC800"/>
          <path d="M68.6760925,15.876 L64.3369666,21.404 C64.3369666,21.404 60.9242159,19.428 63.2902828,16.292 C65.6563496,13.156 68.6760925,15.876 68.6760925,15.876 Z" id="Shape" fill="#006482"/>
          <path d="M86.8146015,19.656 L63.2822622,19.6 C63.2822622,19.6 63.4667352,13.492 75.6138817,13.568 C85.1663753,13.644 86.8146015,19.656 86.8146015,19.656 Z" id="Shape" fill="#FFC800"/>
          <path d="M64.1244216,21.936 C63.9519794,22.276 63.8557326,25.896 63.6832905,26.24 C63.6351671,27.192 63.2140874,28.064 63.9239075,30.392 C64.5819692,32.2595184 65.399037,34.0674465 66.3661697,35.796 C67.4168638,37.272 69.0610797,38.904 70.7774807,39.58 C74.0979949,40.9 78.3168123,40.54 81.1079692,38.572 C84.4365039,36.224 85.5714139,32.172 86.1047815,28.24 C86.3494087,26.428 87.3078663,23.608 87.0231362,21.788 L64.1244216,21.936 Z" id="Shape" fill="#DC785A"/>
          <path d="M76.9974293,26.4 C76.9252442,28.192 72.5500257,28.968 72.6743445,26.092 C72.7986632,23.216 72.6302314,21.316 74.6514139,21.292 C76.6725964,21.268 77.0615938,24.596 76.9974293,26.4 Z" id="Shape" fill="#DC5050"/>
          <polygon id="Shape" fill="#FFC800" points="82.9246272 23.236 86.3373779 28.244 87.1554756 23.332"/>
          <polygon id="Shape" fill="#FFC800" points="66.9436504 23.236 63.53491 28.244 62.7128021 23.332"/>
          <path d="M87.9455013,25.22 C88.3465296,23.532 88.7475578,20.12 87.6607712,18.972 L63.0456555,18.972 C61.9187661,19.872 61.6901799,23.896 61.790437,25.504 L87.9455013,25.22 Z" id="Shape" fill="#00A0DC"/>
          <path d="M78.4210797,30.708 C78.4210797,30.708 77.8034961,31.908 75.4775321,31.82 C73.1515681,31.732 72.6984062,30.744 72.6984062,30.744 C72.6984062,30.744 72.2612853,29.516 75.7903342,29.58 C79.319383,29.644 78.4210797,30.708 78.4210797,30.708 Z" id="Shape" fill="#000000"/>
          <path d="M82.0624165,27.66 C81.3726478,28.612 80.6387661,27.036 81.4047301,26.356 C81.9020051,26.4 82.0744473,26.756 82.0624165,27.66 Z" id="Shape" fill="#000000"/>
          <path d="M68.4314653,27.712 C67.9301799,27.5 67.9702828,27.056 67.8860668,26.656 L68.5397429,26.16 C69.2696144,26.4 69.1172237,27.552 68.4314653,27.712 Z" id="Shape" fill="#000000"/>
          <polygon id="Shape" fill="#006482" points="88.2984062 23.732 61.5658612 23.724 61.9147558 20.456 88.2984062 20.352"/>
        </g>
      </g>
    </g>
  </g>
</svg>