<svg version="1.1" width="128" height="184" viewBox="-1 -1 128 184" xmlns="http://www.w3.org/2000/svg" xmlns:xlink="http://www.w3.org/1999/xlink">
  <!-- Exported by Scratch - http://scratch.mit.edu/ -->
  <g id="space" transform="matrix(1, 0, 0, 1, -13, -2)">
    <g id="spaceship-c">
      <g id="explorer-animation-3">
        <path id="Shape" fill="#C1B4D8" stroke="none" stroke-width="1" d="M 69.291 4.200 L 58.408 1.400 L 51.020 2.800 L 41.435 7.700 L 33.085 19.200 L 29.753 30.700 L 26.159 46.700 L 25.360 61.500 L 26.358 77.400 L 27.657 96.600 L 31.872 98.800 L 43.731 102.400 L 56.810 104.800 L 63.600 104.800 L 70.789 104.800 L 81.572 102.700 L 94.751 97.900 L 97.547 95.800 L 96.948 74.900 L 94.152 51.845 L 89.901 32.600 L 87.063 24 L 83.169 16.800 L 78.476 11.100 L 69.291 4.200 " transform="matrix(1, 0, 0, 1, 13, 2)"/>
        <path id="Shape" fill="#897AB8" stroke="none" stroke-width="1" d="M 96.548 81.700 L 91.067 85.700 L 82.670 89.400 L 74.643 91.600 L 65.797 91.600 L 52.817 91.600 L 41.634 89.400 L 32.449 86.650 L 26.558 83.800 L 27.956 97.100 L 36.542 100.600 L 49.414 103.900 L 61.553 104.800 L 71.687 104.600 L 83.668 101.900 L 94.851 97.500 L 97.547 95.400 L 96.548 81.700 " transform="matrix(1, 0, 0, 1, 13, 2)"/>
        <path id="Shape" fill="#F7EC1E" stroke="none" stroke-width="1" d="M 68.892 112.800 C 68.892 112.800 63.599 110.500 56.510 112.800 C 49.422 115.100 47.524 126.100 47.624 126.800 C 47.724 127.500 47.621 132.900 47.621 132.900 L 50.620 148.591 L 54.614 162.500 L 60.250 177.200 L 62.053 181.000 L 69.690 163.400 C 69.690 163.400 75.980 141.900 76.080 141.600 C 76.180 141.300 77.478 126.700 77.478 126.700 C 77.478 126.700 75.781 119.800 75.681 119.400 C 75.581 119.000 71.986 114.400 71.986 114.400 L 68.892 112.800 Z " transform="matrix(1, 0, 0, 1, 13, 2)"/>
        <path id="Shape" fill="#FBF5A8" stroke="none" stroke-width="1" d="M 60.803 121.600 C 60.803 121.600 58.507 123.199 57.908 124.300 C 57.309 125.400 55.512 130.500 57.908 137.600 C 60.304 144.700 63.599 152.100 63.599 152.100 L 67.892 140.100 C 67.892 140.100 69.591 130.100 68.892 127.700 C 68.192 125.300 67.692 121.199 60.803 121.600 Z " transform="matrix(1, 0, 0, 1, 13, 2)"/>
        <path id="Shape" fill="#FFFFFF" stroke="none" stroke-width="1" d="M 12.778 165.400 L 8.685 165.865 C 8.685 165.865 5.154 168.073 5.490 169.699 C 5.826 171.326 5.468 172.999 5.468 172.999 L 7.387 174.899 L 10.582 175.300 L 11.880 178.699 L 14.427 180.499 L 18.270 181.000 L 20.866 179.099 L 21.565 176.399 L 20.267 173.800 L 22.463 171.652 L 22.463 166.900 L 21.165 164.200 L 18.170 162.599 L 15.874 163.199 L 13.930 165.100 L 12.778 165.400 Z " transform="matrix(1, 0, 0, 1, 13, 2)"/>
        <path id="Shape" fill="#FFFFFF" stroke="none" stroke-width="1" d="M 123.005 154.999 L 123.005 152.500 L 122.406 150.700 L 120.247 149.800 L 117.813 149.800 L 117.014 152.100 L 117.514 154.999 L 115.717 154.399 L 113.520 154.999 L 112.222 155.999 L 112.222 158.099 L 112.621 159.700 L 113.920 161.587 L 115.916 162.599 L 117.613 162.599 L 118.873 163.999 L 121.607 164.899 L 123.903 164.399 L 125.401 161.999 L 125.401 157.349 C 125.401 157.349 125.201 155.399 123.005 154.999 Z " transform="matrix(1, 0, 0, 1, 13, 2)"/>
        <path id="Shape" fill="#EF463C" stroke="none" stroke-width="1" d="M 67.194 65.900 L 62.501 63.900 L 59.806 65.900 L 58.308 71.100 L 58.308 90.400 L 60.250 110.500 L 63.200 128.100 L 64.698 125.900 L 67.194 99.200 L 68.492 81.700 L 68.892 70.900 L 67.194 65.900 " transform="matrix(1, 0, 0, 1, 13, 2)"/>
        <path id="Shape" fill="#EF463C" stroke="none" stroke-width="1" d="M 24.761 61.000 L 15.875 59.399 L 9.884 61.000 L 3.295 67.800 L 1.098 76.700 L 1.897 87 L 4.493 96.800 L 13.878 118.700 L 22.065 128.100 L 23.064 128.100 L 21.466 121.600 L 20.268 108.500 L 22.864 100.800 L 27.756 97.000 L 24.761 61.000 " transform="matrix(1, 0, 0, 1, 13, 2)"/>
        <path id="Shape" fill="#EF463C" stroke="none" stroke-width="1" d="M 95.749 60.800 L 97.547 95.400 L 103.237 98.100 L 106.132 102.200 L 107.331 108.100 L 106.732 117.900 L 107.830 118.700 L 114.020 104.400 L 118.713 86.800 L 118.713 73.500 L 116.716 67.400 L 111.324 61.200 L 102.938 58.634 C 102.938 58.634 98.545 58.600 95.749 60.800 Z " transform="matrix(1, 0, 0, 1, 13, 2)"/>
        <path id="Shape" fill="#EF463C" stroke="none" stroke-width="1" d="M 71.487 6.100 L 64.798 9.300 L 57.409 10.400 L 51.419 9.600 L 45.428 7.600 L 43.931 6.600 L 51.518 2.200 L 58.707 1.400 L 64.597 1.900 L 70.588 4.600 L 71.487 6.100 " transform="matrix(1, 0, 0, 1, 13, 2)"/>
        <g id="Group">
          <path id="Shape" fill="#32419A" stroke="none" stroke-width="1" d="M 24.309 59.851 C 24.365 58.447 24.480 57.177 24.449 55.912 C 24.411 54.367 24.587 52.849 24.768 51.324 C 24.881 50.369 24.902 49.404 25.010 48.449 C 25.183 46.924 25.454 45.409 25.573 43.882 C 25.696 42.296 26.260 40.826 26.584 39.295 C 26.996 37.349 27.301 35.381 27.748 33.445 C 28.005 32.333 27.948 31.132 28.619 30.121 C 28.733 29.948 28.713 29.687 28.757 29.467 C 29.008 28.219 29.199 26.954 29.528 25.727 C 29.901 24.338 30.313 22.946 30.863 21.620 C 31.570 19.918 32.380 18.253 33.236 16.619 C 34.404 14.390 35.804 12.289 37.553 10.483 C 38.900 9.092 40.255 7.712 41.836 6.532 C 43.635 5.189 45.634 4.185 47.435 2.863 C 47.879 2.537 48.426 2.177 49.109 2.416 C 49.294 2.480 49.579 2.262 49.815 2.167 C 50.725 1.804 51.627 1.425 52.545 1.085 C 52.697 1.028 52.910 1.156 53.096 1.161 C 53.619 1.175 54.160 1.294 54.568 0.777 C 54.685 0.628 54.955 0.576 55.167 0.531 C 55.791 0.399 56.427 0.319 57.046 0.171 C 57.692 0.017 58.259 0.020 58.561 0.685 C 60.412 0.380 62.172 0.528 63.916 0.897 C 64.442 1.009 64.955 1.220 65.447 1.445 C 67.186 2.239 68.939 3.008 70.635 3.890 C 71.473 4.326 72.197 4.985 72.973 5.543 C 73.026 5.580 73.074 5.634 73.132 5.651 C 74.527 6.041 75.192 7.316 76.197 8.178 C 77.164 9.007 78.239 9.721 79.132 10.619 C 80.086 11.579 81.235 12.343 81.894 13.626 C 82.337 14.488 83.157 15.148 83.745 15.944 C 85.133 17.827 86.464 19.771 87.383 21.916 C 88.233 23.902 88.787 26.016 89.468 28.073 C 89.529 28.256 89.528 28.473 89.628 28.626 C 90.597 30.106 90.729 31.852 91.179 33.494 C 91.560 34.883 91.885 36.289 92.228 37.688 C 92.709 39.641 93.224 41.586 93.647 43.551 C 93.923 44.833 94.140 46.139 94.239 47.445 C 94.342 48.794 94.674 50.087 94.901 51.407 C 95.145 52.819 95.234 54.257 95.382 55.684 C 95.489 56.704 95.572 57.726 95.693 58.744 C 95.720 58.975 95.857 59.193 95.965 59.470 C 96.160 59.356 96.288 59.317 96.366 59.231 C 97.523 57.951 99.097 57.529 100.685 57.371 C 103.494 57.092 106.231 57.544 108.852 58.637 C 111.351 59.681 113.151 61.540 114.734 63.658 C 114.816 63.767 114.983 63.901 115.091 63.886 C 115.518 63.829 115.738 64.110 115.986 64.358 C 116.906 65.279 117.487 66.412 117.992 67.591 C 118.217 68.117 118.336 68.712 118.656 69.170 C 119.294 70.086 119.377 71.158 119.627 72.175 C 120.189 74.461 120.324 76.801 120.206 79.145 C 120.131 80.617 119.928 82.082 119.791 83.551 C 119.755 83.934 119.750 84.319 119.733 84.704 C 119.627 87.311 118.965 89.833 118.541 92.392 C 118.369 93.435 118.179 94.479 117.925 95.505 C 117.688 96.466 117.348 97.400 117.068 98.351 C 116.688 99.641 116.374 100.952 115.938 102.223 C 115.275 104.155 114.571 106.077 113.809 107.972 C 113.155 109.598 112.327 111.155 111.700 112.789 C 110.968 114.699 109.980 116.479 109.097 118.312 C 108.559 119.429 107.899 120.501 107.185 121.517 C 106.852 121.991 106.292 122.336 105.775 122.639 C 105.294 122.924 104.543 122.512 104.454 121.940 C 104.397 121.577 104.402 121.171 104.508 120.822 C 104.683 120.245 104.935 119.687 105.202 119.146 C 106.044 117.431 106.579 115.637 106.685 113.720 C 106.730 112.891 106.916 112.059 106.876 111.236 C 106.824 110.123 106.675 109.004 106.461 107.910 C 106.179 106.479 105.899 105.032 105.430 103.657 C 104.535 101.036 102.860 99.001 100.435 97.618 C 100.158 97.460 99.911 97.251 99.635 97.094 C 99.386 96.953 99.115 96.850 98.954 96.777 C 97.819 97.285 96.742 97.735 95.694 98.247 C 94.805 98.681 93.959 99.205 93.076 99.655 C 91.913 100.247 90.758 100.874 89.422 101.009 C 89.334 101.018 89.247 101.081 89.169 101.132 C 87.823 102.003 86.225 102.154 84.758 102.679 C 84.040 102.937 83.327 103.222 82.591 103.415 C 81.821 103.619 81.027 103.728 80.242 103.878 C 79.929 103.939 79.616 104.015 79.300 104.052 C 78.491 104.146 77.694 104.223 77.462 105.239 C 77.438 105.345 77.076 105.478 76.930 105.428 C 76.662 105.335 76.438 105.115 76.092 104.878 C 73.404 104.999 70.601 105.893 67.614 105.256 C 67.503 106.366 67.365 107.377 67.312 108.393 C 67.263 109.376 67.302 110.363 67.302 111.426 C 67.820 111.592 68.414 111.811 69.025 111.971 C 69.890 112.198 70.798 112.299 71.628 112.614 C 72.163 112.817 72.630 113.266 73.056 113.678 C 74.190 114.778 75.149 116.024 75.953 117.386 C 76.402 118.147 76.922 118.877 77.273 119.681 C 77.681 120.614 78.088 121.592 78.236 122.588 C 78.679 125.591 78.872 128.609 78.388 131.642 C 78.218 132.707 78.233 133.804 78.196 134.886 C 78.148 136.256 78.062 137.615 77.765 138.962 C 77.314 141.007 76.928 143.067 76.498 145.117 C 76.420 145.490 76.249 145.843 76.144 146.212 C 75.912 147.035 75.706 147.865 75.470 148.687 C 75.205 149.607 74.946 150.530 74.633 151.435 C 74.279 152.461 73.856 153.462 73.490 154.484 C 73.340 154.903 73.288 155.357 73.143 155.779 C 72.472 157.737 71.658 159.644 71.251 161.695 C 71.112 162.394 70.659 163.027 70.383 163.703 C 69.588 165.654 68.831 167.620 68.016 169.562 C 67.213 171.475 66.352 173.363 65.525 175.265 C 65.198 176.020 64.875 176.778 64.588 177.548 C 64.175 178.657 63.808 179.785 63.393 180.893 C 63.250 181.279 63.053 181.655 62.824 181.996 C 62.459 182.539 61.826 182.580 61.359 182.128 C 61.267 182.039 61.170 181.942 61.117 181.830 C 60.709 180.971 60.267 180.124 59.919 179.242 C 59.085 177.128 58.292 174.997 57.491 172.870 C 57.335 172.453 57.179 172.030 57.088 171.596 C 56.779 170.124 56.261 168.730 55.666 167.351 C 54.703 165.121 53.944 162.816 53.302 160.471 C 52.754 158.467 52.286 156.426 51.532 154.499 C 50.627 152.186 50.223 149.749 49.485 147.397 C 49.020 145.915 48.860 144.335 48.572 142.799 C 48.243 141.042 47.892 139.288 47.612 137.524 C 47.464 136.587 47.471 135.626 47.360 134.681 C 47.291 134.094 47.122 133.520 47.021 132.937 C 46.944 132.496 46.846 132.047 46.857 131.605 C 46.894 130.193 46.935 128.779 47.051 127.373 C 47.221 125.298 47.562 123.254 48.394 121.321 C 48.559 120.938 48.674 120.533 48.837 120.149 C 49.515 118.562 50.197 116.975 50.892 115.396 C 50.992 115.169 51.138 114.937 51.322 114.778 C 53.130 113.223 55.016 111.794 57.407 111.251 C 57.962 111.125 58.530 111.055 59.165 110.945 C 58.992 109.211 58.826 107.535 58.647 105.734 C 58.105 105.734 57.620 105.746 57.136 105.727 C 56.917 105.718 56.700 105.650 56.483 105.599 C 56.302 105.557 56.111 105.431 55.946 105.460 C 54.959 105.630 54.009 105.373 53.050 105.244 C 52.100 105.114 51.156 104.938 50.209 104.788 C 49.461 104.668 48.697 104.617 47.966 104.429 C 45.967 103.915 43.940 103.530 41.981 102.824 C 40.248 102.199 38.419 101.840 36.635 101.350 C 36.306 101.260 35.997 101.101 35.676 100.979 C 34.489 100.527 33.297 100.084 32.113 99.625 C 31.669 99.452 31.237 99.247 30.802 99.051 C 30.252 98.804 29.710 98.540 29.154 98.309 C 28.983 98.238 28.762 98.193 28.590 98.238 C 26.330 98.831 24.319 99.851 23.098 101.943 C 22.638 102.730 22.451 103.676 22.132 104.546 C 21.855 105.300 21.694 106.067 21.665 106.876 C 21.642 107.545 21.504 108.210 21.436 108.878 C 21.394 109.292 21.341 109.715 21.375 110.126 C 21.498 111.656 21.775 113.184 21.767 114.711 C 21.757 116.334 22.253 117.857 22.415 119.442 C 22.672 121.958 23.120 124.451 23.767 126.903 C 23.978 127.702 24.145 128.515 24.284 129.329 C 24.313 129.500 24.179 129.788 24.032 129.877 C 23.844 129.991 23.546 130.036 23.333 129.976 C 22.734 129.808 22.163 129.534 21.562 129.372 C 20.796 129.166 20.566 128.435 20.077 127.960 C 19.899 127.788 19.826 127.499 19.638 127.345 C 18.359 126.295 17.554 124.834 16.423 123.656 C 15.780 122.987 15.206 122.282 14.941 121.343 C 14.817 120.903 14.492 120.478 14.156 120.149 C 13.189 119.198 12.768 117.937 12.135 116.795 C 11.873 116.323 11.550 115.883 11.298 115.406 C 10.204 113.339 9.081 111.286 8.059 109.183 C 7.332 107.689 6.684 106.149 6.121 104.587 C 5.505 102.874 5.031 101.111 4.486 99.373 C 3.739 96.989 2.954 94.616 2.242 92.222 C 1.739 90.533 1.267 88.828 0.904 87.105 C 0.675 86.015 0.784 84.852 0.539 83.768 C 0.186 82.205 0.462 80.644 0.336 79.089 C 0.237 77.873 0.216 76.666 0.332 75.446 C 0.511 73.551 0.856 71.713 1.688 69.983 C 2.007 69.320 2.175 68.577 2.546 67.950 C 3.489 66.355 4.532 64.820 5.486 63.231 C 6.109 62.193 7.107 61.678 8.057 61.025 C 9.052 60.340 10.105 59.859 11.208 59.441 C 12.214 59.060 13.242 58.737 14.261 58.390 C 14.322 58.369 14.387 58.350 14.449 58.352 C 15.493 58.388 16.545 58.364 17.579 58.486 C 18.651 58.611 19.698 58.969 20.770 59.057 C 21.949 59.152 23.125 59.170 24.309 59.851 Z M 26.983 45.973 C 27.327 46.518 27.549 46.922 27.820 47.289 C 28.275 47.908 28.910 48.332 29.489 48.825 C 30.448 49.645 31.576 50.122 32.691 50.492 C 34.608 51.128 36.529 51.781 38.561 52.078 C 41.117 52.451 43.635 53.079 46.247 52.919 C 46.342 52.913 46.438 52.932 46.535 52.940 C 48.512 53.092 50.487 53.312 52.467 53.379 C 55.126 53.468 57.788 53.434 60.449 53.466 C 60.990 53.473 61.530 53.552 62.072 53.573 C 62.934 53.605 63.804 53.684 64.660 53.621 C 66.667 53.474 68.669 53.263 70.671 53.060 C 71.847 52.940 73.020 52.792 74.193 52.649 C 75.046 52.546 75.899 52.437 76.750 52.315 C 77.247 52.244 77.741 52.147 78.235 52.051 C 78.733 51.953 79.231 51.851 79.726 51.739 C 80.409 51.586 81.093 51.441 81.768 51.257 C 82.165 51.149 82.536 50.934 82.935 50.835 C 84.747 50.387 86.458 49.730 87.946 48.564 C 88.221 48.349 88.536 48.140 88.865 48.051 C 89.409 47.903 89.731 47.531 90.029 47.114 C 90.635 46.265 91.174 45.361 91.849 44.573 C 92.151 44.221 92.207 43.973 92.101 43.570 C 91.656 41.873 91.232 40.171 90.804 38.469 C 90.758 38.285 90.668 38.073 90.718 37.912 C 90.860 37.454 90.649 37.110 90.467 36.732 C 90.329 36.447 90.247 36.133 90.163 35.825 C 89.927 34.962 89.713 34.092 89.471 33.230 C 89.220 32.337 89.073 31.384 88.651 30.577 C 88.211 29.734 88.004 28.852 87.744 27.966 C 87.638 27.602 87.478 27.254 87.336 26.901 C 86.958 25.954 86.442 25.039 86.228 24.056 C 85.837 22.263 84.956 20.738 83.912 19.298 C 83.172 18.277 82.243 17.397 81.955 16.091 C 81.892 15.803 81.632 15.539 81.418 15.307 C 79.768 13.525 78.196 11.666 76.302 10.127 C 74.946 9.025 73.582 7.933 72.338 6.932 C 71.718 7.229 71.246 7.478 70.756 7.686 C 69.034 8.417 67.342 9.241 65.570 9.824 C 64.137 10.297 62.613 10.503 61.119 10.770 C 60.146 10.943 59.157 11.018 58.174 11.128 C 57.574 11.195 56.943 11.386 56.374 11.273 C 55.261 11.051 54.137 11.225 52.998 10.817 C 51.486 10.275 49.793 10.259 48.229 9.830 C 47.104 9.520 46.039 8.949 44.993 8.404 C 44.479 8.136 44.071 7.662 43.623 7.289 C 42.720 8.003 41.829 8.605 41.063 9.338 C 40.071 10.288 39.148 11.316 38.256 12.362 C 37.530 13.214 36.886 14.137 36.219 15.037 C 35.180 16.439 34.426 18 33.850 19.634 C 33.481 20.681 32.744 21.536 32.560 22.698 C 32.358 23.972 31.828 25.192 31.485 26.447 C 31.138 27.710 30.826 28.984 30.533 30.260 C 30.391 30.875 30.244 31.509 30.248 32.133 C 30.252 32.770 30.115 33.333 29.844 33.889 C 29.704 34.175 29.538 34.465 29.476 34.771 C 29.169 36.277 28.942 37.800 28.323 39.229 C 28.187 39.542 28.198 39.917 28.131 40.263 C 28.077 40.546 28.035 40.835 27.944 41.107 C 27.393 42.755 27.085 44.448 26.983 45.973 Z M 26.562 49.196 C 26.503 49.627 26.445 49.968 26.412 50.312 C 26.329 51.205 26.266 52.099 26.176 52.992 C 26.048 54.263 25.714 55.518 25.983 56.817 C 26.073 57.250 26.082 57.725 26.012 58.162 C 25.722 59.978 25.831 61.797 25.923 63.613 C 26.052 66.173 26.217 68.730 26.404 71.286 C 26.485 72.402 26.730 73.508 26.778 74.624 C 26.895 77.374 26.878 80.130 27.167 82.873 C 27.206 83.251 27.344 83.379 27.747 83.465 C 28.373 83.598 29.043 83.795 29.550 84.164 C 31.316 85.453 33.381 86.072 35.364 86.854 C 36.784 87.413 38.285 87.779 39.765 88.172 C 41.611 88.662 43.463 89.134 45.330 89.534 C 46.861 89.863 48.410 90.121 49.962 90.319 C 50.893 90.439 51.847 90.383 52.790 90.410 C 54.189 90.449 55.589 90.494 56.989 90.525 C 57.167 90.529 57.348 90.459 57.620 90.404 C 57.524 87.900 57.429 85.432 57.336 82.964 C 57.299 81.980 57.246 80.998 57.235 80.014 C 57.221 78.702 57.221 77.389 57.250 76.078 C 57.293 74.135 57.327 72.191 57.442 70.253 C 57.499 69.302 57.674 68.346 57.902 67.418 C 58.058 66.785 58.183 66.101 58.701 65.607 C 59.274 65.061 59.810 64.475 60.412 63.964 C 60.819 63.618 61.280 63.199 61.768 63.119 C 62.606 62.982 63.521 62.926 64.334 63.122 C 65.678 63.447 66.863 64.139 67.692 65.335 C 68.049 65.850 68.510 66.292 68.909 66.779 C 69.047 66.948 69.199 67.141 69.246 67.346 C 69.451 68.246 69.755 69.150 69.774 70.058 C 69.821 72.248 69.887 74.448 69.485 76.622 C 69.468 76.711 69.498 76.808 69.498 76.901 C 69.505 77.896 69.549 78.892 69.507 79.885 C 69.403 82.376 69.262 84.867 69.133 87.358 C 69.096 88.058 69.044 88.759 69.017 89.460 C 68.999 89.958 69.014 90.457 69.014 91.058 C 69.630 91.019 70.163 90.995 70.694 90.950 C 71.429 90.889 72.161 90.761 72.894 90.755 C 74.226 90.743 75.555 90.732 76.851 90.392 C 77.496 90.223 78.108 89.912 78.759 89.783 C 80.012 89.534 81.188 89.084 82.355 88.589 C 83.264 88.203 84.187 87.850 85.104 87.484 C 85.988 87.131 86.927 86.876 87.744 86.407 C 89.042 85.661 90.419 85.076 91.714 84.310 C 93.359 83.337 94.722 82.160 95.701 80.551 C 95.986 80.083 96.229 79.439 96.151 78.927 C 95.863 77.031 96.295 75.089 95.734 73.221 C 95.716 73.160 95.696 73.091 95.708 73.031 C 96.024 71.428 95.389 69.867 95.521 68.255 C 95.607 67.199 95.369 66.114 95.243 65.046 C 95.154 64.283 95.016 63.526 94.888 62.768 C 94.639 61.290 94.357 59.817 94.135 58.334 C 94.014 57.521 93.999 56.691 93.911 55.872 C 93.771 54.566 93.634 53.258 93.448 51.959 C 93.290 50.854 93.063 49.759 92.872 48.659 C 92.763 48.037 92.665 47.413 92.545 46.684 C 92.289 46.922 92.091 47.047 91.975 47.227 C 91.035 48.672 89.464 49.381 88.167 50.380 C 87.086 51.212 85.853 52.007 84.374 52.115 C 84.188 52.128 83.981 52.192 83.831 52.298 C 82.885 52.966 81.745 53.027 80.680 53.282 C 79.291 53.614 77.855 53.746 76.461 54.058 C 75.617 54.247 74.799 54.383 73.927 54.314 C 73.374 54.270 72.805 54.405 72.246 54.479 C 71.526 54.575 70.811 54.726 70.089 54.787 C 69.152 54.866 68.205 54.836 67.270 54.932 C 65.632 55.099 63.971 55.252 62.350 55.091 C 60.343 54.892 58.354 55.070 56.359 55.021 C 54.984 54.988 53.608 55.028 52.235 54.971 C 50.483 54.898 48.733 54.761 46.981 54.649 C 46.188 54.598 45.394 54.548 44.602 54.481 C 43.463 54.385 42.323 54.291 41.188 54.164 C 40.650 54.105 40.118 53.982 39.587 53.871 C 37.682 53.474 35.768 53.113 33.878 52.654 C 32.794 52.391 31.748 51.968 30.687 51.616 C 30.536 51.565 30.385 51.509 30.243 51.439 C 29.674 51.157 29.106 50.873 28.541 50.582 C 28.349 50.483 28.053 50.400 28.003 50.245 C 27.791 49.592 27.217 49.478 26.562 49.196 Z M 21.728 126.716 C 21.809 126.692 21.890 126.668 21.970 126.644 C 21.942 126.372 21.938 126.095 21.879 125.830 C 21.666 124.862 21.364 123.908 21.222 122.931 C 20.838 120.304 20.444 117.676 20.200 115.034 C 20.000 112.876 19.553 110.734 19.799 108.532 C 19.980 106.912 19.852 105.244 20.454 103.694 C 21.109 102.011 21.515 100.188 22.998 98.934 C 23.600 98.425 23.984 97.672 24.733 97.319 C 25.166 97.115 25.609 96.933 26.050 96.746 C 26.379 96.606 26.572 96.455 26.665 96.016 C 26.937 94.733 26.497 93.537 26.385 92.305 C 26.284 91.198 26.112 90.097 26.031 88.988 C 25.933 87.620 26.094 86.241 25.788 84.876 C 25.613 84.099 25.568 83.288 25.520 82.489 C 25.473 81.695 25.516 80.895 25.483 80.099 C 25.435 78.925 25.349 77.752 25.289 76.578 C 25.263 76.098 25.292 75.614 25.246 75.137 C 25.061 73.226 24.843 71.318 24.667 69.406 C 24.612 68.805 24.681 68.193 24.643 67.589 C 24.542 65.991 24.396 64.396 24.303 62.797 C 24.241 61.747 24.242 61.722 23.167 61.585 C 22.103 61.448 21.039 61.304 19.976 61.162 C 18.648 60.983 17.323 60.768 15.991 60.634 C 15.169 60.552 14.349 60.563 13.520 60.800 C 12.135 61.196 10.808 61.667 9.533 62.370 C 8.216 63.095 7.081 64.025 6.160 65.153 C 5.380 66.106 4.760 67.228 4.249 68.356 C 3.566 69.866 2.961 71.427 2.506 73.019 C 2.140 74.297 1.904 75.649 1.865 76.976 C 1.795 79.405 2.028 81.831 2.212 84.258 C 2.440 87.257 3.260 90.100 4.143 92.938 C 4.638 94.528 5.184 96.101 5.679 97.691 C 6.030 98.819 6.341 99.960 6.657 101.099 C 6.992 102.305 7.577 103.418 7.988 104.584 C 9.017 107.499 10.340 110.255 11.895 112.915 C 13.333 115.374 14.798 117.821 16.143 120.331 C 16.978 121.891 18.313 123.010 19.360 124.378 C 20.026 125.251 20.930 125.943 21.728 126.716 Z M 63.101 155.160 C 62.149 154.700 61.945 153.797 61.615 153.018 C 61.304 152.286 61.158 151.486 60.910 150.726 C 60.279 148.789 59.616 146.863 58.995 144.922 C 58.431 143.160 57.952 141.370 57.354 139.620 C 56.360 136.714 55.842 133.742 55.882 130.670 C 55.912 128.415 56.162 126.197 57.075 124.111 C 57.388 123.395 57.775 122.696 58.230 122.062 C 58.837 121.217 59.752 120.730 60.690 120.265 C 60.272 117.723 59.852 115.183 59.427 112.606 C 59.277 112.606 59.078 112.562 58.907 112.613 C 58.179 112.828 57.472 113.135 56.734 113.288 C 55.855 113.471 55.142 113.884 54.466 114.451 C 53.957 114.879 53.341 115.108 52.901 115.712 C 52.594 116.135 52.244 116.532 52.002 117.013 C 51.859 117.299 51.655 117.553 51.504 117.835 C 50.706 119.323 49.968 120.841 49.511 122.470 C 49.192 123.607 48.947 124.768 48.715 125.928 C 48.624 126.379 48.407 126.769 48.465 127.304 C 48.567 128.246 48.396 129.216 48.362 130.174 C 48.346 130.648 48.338 131.128 48.399 131.596 C 48.548 132.758 48.747 133.915 48.907 135.077 C 48.976 135.577 48.965 136.088 49.047 136.584 C 49.321 138.244 49.608 139.902 49.913 141.556 C 50.121 142.682 50.370 143.800 50.597 144.922 C 50.634 145.106 50.723 145.328 50.657 145.474 C 50.420 145.998 50.604 146.489 50.740 146.968 C 50.888 147.487 51.157 147.972 51.322 148.489 C 51.710 149.706 52.058 150.937 52.442 152.156 C 52.673 152.890 52.957 153.606 53.190 154.339 C 53.499 155.312 53.787 156.293 54.072 157.274 C 54.365 158.282 54.643 159.293 54.928 160.302 C 55.168 161.155 55.387 162.014 55.654 162.857 C 56.012 163.986 56.403 165.104 56.792 166.222 C 56.970 166.735 57.160 167.246 57.377 167.744 C 57.975 169.114 58.611 170.469 59.190 171.847 C 59.649 172.936 60.052 174.050 60.472 175.156 C 60.755 175.900 61.003 176.659 61.309 177.394 C 61.511 177.877 61.789 178.328 62.104 178.928 C 62.446 178.064 62.735 177.402 62.971 176.722 C 63.360 175.603 63.829 174.530 64.422 173.497 C 64.960 172.558 65.388 171.548 65.804 170.545 C 66.488 168.893 67.131 167.224 67.774 165.556 C 68.312 164.157 68.836 162.752 69.348 161.344 C 69.774 160.171 70.182 158.991 70.580 157.809 C 70.977 156.632 71.365 155.452 71.734 154.266 C 72.020 153.349 72.207 152.396 72.558 151.506 C 72.827 150.826 73.104 150.173 73.289 149.449 C 73.736 147.690 74.326 145.966 74.569 144.159 C 74.745 142.854 75.449 141.685 75.521 140.355 C 75.539 140.006 75.560 139.650 75.643 139.314 C 76.122 137.398 76.291 135.443 76.400 133.479 C 76.465 132.311 76.601 131.145 76.625 129.976 C 76.662 128.179 76.679 126.379 76.612 124.583 C 76.569 123.431 76.229 122.335 75.642 121.314 C 75.022 120.234 74.485 119.105 73.885 118.013 C 73.710 117.695 73.397 117.452 73.226 117.133 C 72.872 116.471 72.374 115.934 71.790 115.507 C 70.402 114.488 68.798 113.999 67.059 113.689 C 66.769 116.501 66.486 119.248 66.202 122.000 C 67.320 122.448 67.282 122.492 68.240 123.330 C 68.769 123.793 68.848 124.432 69.166 124.971 C 69.947 126.297 70.215 127.773 70.265 129.280 C 70.302 130.429 70.227 131.584 70.176 132.734 C 70.145 133.413 70.250 134.131 69.698 134.698 C 69.602 134.796 69.585 135.002 69.585 135.158 C 69.583 136.817 69.121 138.398 68.630 139.945 C 68.171 141.394 68.137 142.957 67.324 144.320 C 66.897 145.039 66.745 145.921 66.461 146.726 C 66.046 147.897 65.592 149.056 65.215 150.239 C 64.925 151.149 64.664 152.078 64.512 153.019 C 64.405 153.683 64.355 154.274 63.611 154.555 C 63.405 154.630 63.285 154.931 63.101 155.160 Z M 108.321 115.697 C 108.374 115.716 108.425 115.735 108.477 115.755 C 108.714 115.318 108.983 114.895 109.179 114.442 C 109.570 113.534 109.901 112.600 110.297 111.694 C 110.845 110.440 111.482 109.223 111.988 107.952 C 112.958 105.518 114.066 103.132 114.651 100.556 C 114.828 99.777 115.043 98.999 115.329 98.255 C 115.835 96.938 116.254 95.609 116.490 94.208 C 116.906 91.748 117.416 89.304 117.868 86.849 C 118.018 86.030 118.226 85.199 118.206 84.377 C 118.172 82.899 118.613 81.485 118.608 79.997 C 118.602 78.556 118.632 77.115 118.525 75.676 C 118.484 75.137 118.463 74.592 118.354 74.066 C 118.205 73.349 117.993 72.643 117.781 71.941 C 117.633 71.452 117.456 70.969 117.260 70.497 C 116.929 69.701 116.568 68.918 116.231 68.125 C 116.082 67.772 115.944 67.463 115.510 67.329 C 115.238 67.245 114.982 66.994 114.798 66.757 C 114.489 66.359 114.295 65.866 113.962 65.495 C 112.881 64.287 111.864 62.990 110.626 61.964 C 109.240 60.814 107.483 60.263 105.727 59.911 C 104.310 59.626 102.875 59.455 101.393 59.551 C 100.110 59.635 98.893 59.697 97.751 60.379 C 96.821 60.935 96.300 61.743 96.419 62.806 C 96.570 64.134 96.754 65.458 96.902 66.787 C 96.979 67.484 97.017 68.186 97.057 68.887 C 97.115 69.904 97.123 70.924 97.214 71.937 C 97.408 74.133 97.693 76.322 97.845 78.521 C 97.988 80.596 98.008 82.680 98.084 84.760 C 98.118 85.687 98.161 86.615 98.189 87.542 C 98.212 88.308 98.226 89.074 98.232 89.840 C 98.234 90.223 98.191 90.607 98.203 90.989 C 98.226 91.753 98.305 92.518 98.300 93.281 C 98.294 94.313 98.338 94.466 99.330 94.844 C 101.048 95.500 102.642 96.371 103.894 97.725 C 104.822 98.729 105.717 99.801 106.411 100.972 C 106.920 101.829 107.141 102.880 107.383 103.870 C 107.754 105.394 108.055 106.936 108.342 108.479 C 108.607 109.899 108.787 111.324 108.568 112.781 C 108.424 113.744 108.400 114.724 108.321 115.697 Z M 63.368 126.277 C 63.427 126.282 63.486 126.287 63.546 126.292 C 63.614 126.084 63.709 125.881 63.746 125.668 C 63.925 124.631 64.087 123.592 64.257 122.554 C 64.500 121.069 64.761 119.587 64.981 118.099 C 65.111 117.216 65.215 116.326 65.263 115.435 C 65.318 114.424 65.247 113.406 65.322 112.398 C 65.404 111.284 65.636 110.182 65.721 109.067 C 65.884 106.928 65.957 104.781 66.129 102.643 C 66.268 100.921 66.534 99.210 66.679 97.489 C 66.839 95.578 66.916 93.661 67.049 91.747 C 67.088 91.173 67.233 90.607 67.267 90.032 C 67.371 88.338 67.433 86.641 67.530 84.946 C 67.626 83.252 67.761 81.559 67.845 79.865 C 67.893 78.885 67.877 77.902 67.887 76.920 C 67.896 76.160 67.892 75.400 67.907 74.639 C 67.937 73.078 67.994 71.518 67.995 69.956 C 67.996 69.590 67.879 69.200 67.725 68.862 C 67.152 67.601 66.428 66.495 65.160 65.761 C 63.588 64.851 62.747 64.990 61.534 65.884 C 59.910 67.081 59.063 68.786 59.248 70.889 C 59.265 71.081 59.288 71.282 59.248 71.466 C 58.897 73.079 59.013 74.716 58.980 76.345 C 58.969 76.823 58.985 77.302 58.983 77.780 C 58.978 79.346 58.938 80.912 58.971 82.477 C 59.015 84.560 59.111 86.641 59.194 88.723 C 59.239 89.845 59.299 90.965 59.361 92.087 C 59.422 93.166 59.510 94.245 59.556 95.325 C 59.617 96.722 59.593 98.125 59.704 99.518 C 59.873 101.621 60.118 103.718 60.347 105.816 C 60.586 108.007 60.798 110.203 61.109 112.383 C 61.502 115.139 61.977 117.885 62.429 120.633 C 62.542 121.324 62.725 122.003 62.838 122.695 C 63.031 123.886 63.193 125.083 63.368 126.277 Z M 61.279 122.715 C 60.394 122.424 59.895 122.689 59.456 123.269 C 58.669 124.309 58.283 125.505 57.874 126.721 C 57.404 128.119 57.371 129.523 57.435 130.955 C 57.474 131.850 57.443 132.758 57.587 133.637 C 57.947 135.843 58.549 137.996 59.222 140.124 C 59.519 141.067 59.948 141.969 60.335 142.882 C 60.595 143.495 60.931 144.080 61.158 144.706 C 61.645 146.053 62.084 147.418 62.545 148.776 C 62.595 148.927 62.702 149.075 62.703 149.225 C 62.704 149.696 62.969 149.974 63.381 150.267 C 64.057 148.480 64.736 146.753 65.362 145.006 C 65.694 144.080 65.912 143.114 66.221 142.178 C 66.982 139.870 67.663 137.542 68.026 135.131 C 68.111 134.568 68.170 134.000 68.234 133.433 C 68.276 133.051 68.315 132.668 68.339 132.284 C 68.373 131.747 68.395 131.209 68.415 130.672 C 68.423 130.454 68.415 130.234 68.404 130.016 C 68.379 129.513 68.417 128.993 68.303 128.510 C 68.110 127.701 67.760 126.929 67.581 126.118 C 67.345 125.046 66.656 124.290 65.903 123.275 C 65.804 123.963 65.739 124.430 65.668 124.896 C 65.615 125.242 65.576 125.592 65.492 125.932 C 65.196 127.136 64.823 128.325 64.600 129.542 C 64.487 130.162 64.366 130.655 63.774 130.983 C 63.383 131.200 63.027 131.251 62.800 130.892 C 62.607 130.585 62.451 130.228 62.381 129.874 C 62.188 128.900 62.033 127.919 61.893 126.936 C 61.786 126.181 61.745 125.417 61.638 124.663 C 61.544 124.007 61.399 123.358 61.279 122.715 Z M 44.876 6.385 C 45.229 6.673 45.518 6.908 45.807 7.141 C 46.796 7.933 48.059 8.021 49.199 8.393 C 50.525 8.825 51.930 9.024 53.311 9.272 C 54.098 9.414 54.910 9.559 55.698 9.514 C 57.293 9.421 58.882 9.216 60.469 9.024 C 61.101 8.948 61.717 8.726 62.350 8.666 C 63.579 8.549 64.730 8.207 65.850 7.699 C 66.719 7.306 67.642 7.024 68.488 6.591 C 68.993 6.332 69.692 6.303 69.991 5.570 C 69.637 5.371 69.321 5.154 68.975 5.006 C 67.897 4.544 66.771 4.180 65.732 3.646 C 64.532 3.030 63.287 2.830 61.963 2.762 C 60.756 2.700 59.560 2.447 58.361 2.268 C 58.242 2.250 58.109 2.182 58.025 2.095 C 57.674 1.732 57.275 1.829 56.862 1.934 C 55.752 2.218 54.642 2.501 53.529 2.771 C 52.572 3.002 51.558 3.089 50.662 3.463 C 48.930 4.184 47.261 5.058 45.571 5.882 C 45.350 5.990 45.166 6.173 44.876 6.385 Z M 46.287 91.459 C 45.797 91.384 45.388 91.245 44.993 91.277 C 44.475 91.318 44.050 91.168 43.627 90.923 C 43.492 90.845 43.357 90.742 43.210 90.714 C 41.419 90.377 39.689 89.839 37.988 89.192 C 37.603 89.047 37.176 89.017 36.772 88.919 C 36.362 88.820 35.955 88.703 35.631 88.616 C 35.531 92.393 36.164 95.988 36.749 99.645 C 38.600 100.180 40.440 100.706 42.277 101.245 C 42.857 101.414 43.419 101.644 44.003 101.797 C 44.868 102.025 45.693 102.522 46.596 102.298 C 46.492 98.670 46.390 95.098 46.287 91.459 Z M 58.170 103.768 C 58.170 102.624 58.289 101.551 58.145 100.513 C 57.823 98.183 57.899 95.842 57.801 93.507 C 57.771 92.798 57.703 92.694 56.974 92.657 C 56.278 92.621 55.580 92.607 54.886 92.561 C 54.344 92.526 53.805 92.449 53.263 92.407 C 51.965 92.305 50.648 92.462 49.370 92.082 C 49.017 91.977 48.642 91.946 48.276 91.880 C 47.751 93.230 48.110 94.588 47.987 95.911 C 47.913 96.699 47.917 97.503 47.977 98.293 C 48.064 99.437 48.243 100.574 48.362 101.716 C 48.471 102.756 48.529 102.847 49.522 103.028 C 52.382 103.548 55.261 103.853 58.170 103.768 Z M 86.666 100.225 C 86.666 99.374 86.690 98.513 86.661 97.653 C 86.608 96.113 86.467 94.574 86.470 93.035 C 86.473 91.879 86.137 90.773 86.116 89.626 C 86.108 89.242 85.790 89.074 85.419 89.184 C 84.900 89.338 84.388 89.520 83.882 89.713 C 82.817 90.121 81.759 90.551 80.693 90.955 C 80.491 91.032 80.262 91.060 80.044 91.066 C 79.102 91.090 78.211 91.291 77.349 91.684 C 76.571 92.039 76.437 92.261 76.590 93.058 C 76.724 93.748 76.819 94.447 76.903 95.145 C 77.041 96.283 77.134 97.426 77.287 98.562 C 77.423 99.569 77.623 100.566 77.776 101.571 C 77.832 101.936 77.833 102.309 77.870 102.824 C 78.390 102.728 78.843 102.667 79.285 102.556 C 79.777 102.433 80.256 102.256 80.746 102.121 C 81.084 102.028 81.441 101.996 81.772 101.885 C 83.375 101.352 84.972 100.802 86.666 100.225 Z M 96.297 83.513 C 95.959 83.731 95.720 83.833 95.551 84.004 C 94.959 84.601 94.298 85.074 93.522 85.412 C 92.793 85.729 92.090 86.108 91.386 86.481 C 90.600 86.897 89.829 87.343 89.044 87.762 C 88.523 88.040 87.989 88.295 87.658 88.462 C 87.658 89.283 87.604 89.881 87.670 90.464 C 87.819 91.796 88.045 93.119 88.205 94.450 C 88.342 95.589 88.499 96.733 88.517 97.876 C 88.527 98.499 88.675 98.971 89.125 99.455 C 90.276 98.928 91.415 98.430 92.532 97.886 C 93.365 97.481 94.184 97.042 94.978 96.566 C 95.576 96.209 96.257 95.848 96.406 95.096 C 96.584 94.196 96.764 93.265 96.712 92.360 C 96.648 91.252 96.474 90.170 96.575 89.037 C 96.694 87.670 96.583 86.281 96.537 84.902 C 96.520 84.475 96.392 84.050 96.297 83.513 Z M 67.813 104.185 C 70.531 104.038 73.114 103.718 75.800 103.153 C 75.746 101.616 75.725 100.055 75.626 98.500 C 75.527 96.938 75.314 95.384 75.216 93.823 C 75.112 92.156 75.122 92.138 73.870 92.673 C 73.105 92.593 72.589 92.469 72.085 92.502 C 71.162 92.563 70.248 92.740 69.325 92.825 C 68.830 92.870 68.663 93.121 68.652 93.574 C 68.636 94.214 68.639 94.859 68.567 95.494 C 68.304 97.842 67.999 100.185 67.746 102.534 C 67.690 103.050 67.784 103.582 67.813 104.185 Z M 27.458 84.649 C 27.506 85.190 27.531 85.538 27.568 85.885 C 27.628 86.454 27.745 87.022 27.752 87.591 C 27.772 89.219 27.540 90.867 28.247 92.426 C 28.296 92.536 28.271 92.679 28.283 92.807 C 28.385 93.919 28.480 95.031 28.596 96.141 C 28.618 96.346 28.728 96.541 28.804 96.761 C 29.073 96.690 29.329 96.530 29.480 96.599 C 29.992 96.836 30.469 97.149 30.954 97.443 C 31.165 97.571 31.343 97.774 31.567 97.855 C 32.375 98.143 33.194 98.396 34.013 98.655 C 34.206 98.716 34.410 98.744 34.561 98.777 C 34.542 97.726 34.523 96.744 34.504 95.763 C 34.485 94.719 34.565 93.661 34.423 92.633 C 34.251 91.390 34.146 90.154 34.156 88.900 C 34.162 88.053 34.020 87.876 33.252 87.652 C 31.187 87.049 29.287 86.126 27.458 84.649 Z " transform="matrix(1, 0, 0, 1, 13, 2)"/>
          <path id="Shape" fill="#32419A" stroke="none" stroke-width="1" d="M 21.486 173.882 C 22.693 175.304 22.528 176.822 22.044 178.330 C 21.682 179.457 20.897 180.329 20.019 181.105 C 19.542 181.525 18.983 181.725 18.340 181.716 C 17.407 181.703 16.475 181.698 15.544 181.716 C 12.985 181.767 11.507 180.128 10.817 177.938 C 10.655 177.423 10.579 176.880 10.466 176.357 C 9.629 176.278 8.835 176.210 8.043 176.126 C 6.713 175.987 5.693 175.291 4.898 174.265 C 4.081 173.211 4.081 171.961 4.345 170.754 C 4.875 168.333 6.213 166.406 8.214 164.945 C 8.727 164.570 9.317 164.441 9.942 164.441 C 10.966 164.441 11.991 164.441 13.097 164.441 C 13.700 163.411 14.759 162.649 15.854 162.005 C 16.894 161.395 18.109 161.546 19.234 161.865 C 21.521 162.514 23.674 165.029 23.674 167.705 C 23.674 168.857 23.537 170.012 23.414 171.161 C 23.316 172.076 22.726 172.734 22.114 173.359 C 21.935 173.541 21.722 173.687 21.486 173.882 Z M 14.539 165.023 C 14.697 165.307 14.764 165.448 14.849 165.577 C 15.048 165.874 15.089 166.175 14.860 166.468 C 14.613 166.783 14.295 166.869 13.917 166.717 C 13.769 166.656 13.599 166.632 13.468 166.547 C 12.847 166.148 12.140 166.139 11.444 166.016 C 9.922 165.749 8.762 166.261 7.787 167.408 C 6.808 168.559 6.098 169.838 5.828 171.325 C 5.527 172.980 6.540 174.334 8.199 174.569 C 8.484 174.610 8.772 174.640 9.059 174.673 C 10.121 174.793 10.226 174.706 10.471 173.672 C 10.535 173.401 10.667 173.123 10.841 172.909 C 11.086 172.606 11.483 172.510 11.799 172.705 C 12.036 172.850 12.194 173.168 12.312 173.442 C 12.381 173.599 12.350 173.840 12.279 174.007 C 11.784 175.187 12.001 176.372 12.348 177.506 C 12.913 179.356 13.904 180.190 15.752 180.175 C 16.523 180.169 17.294 180.196 18.063 180.162 C 18.370 180.149 18.738 180.092 18.962 179.910 C 19.771 179.255 20.476 178.466 20.674 177.419 C 20.796 176.779 20.802 176.047 20.611 175.435 C 20.410 174.788 19.693 174.724 19.064 174.707 C 19.004 174.706 18.919 174.677 18.892 174.632 C 18.737 174.374 18.486 174.109 18.485 173.845 C 18.484 173.632 18.762 173.381 18.972 173.219 C 19.105 173.116 19.354 173.179 19.527 173.108 C 20.629 172.659 21.651 172.044 21.870 170.785 C 22.062 169.686 22.129 168.541 22.066 167.427 C 21.963 165.608 20.455 163.841 18.709 163.358 C 17.996 163.162 17.203 163.043 16.550 163.430 C 15.843 163.850 15.247 164.451 14.539 165.023 Z " transform="matrix(1, 0, 0, 1, 13, 2)"/>
          <path id="Shape" fill="#32419A" stroke="none" stroke-width="1" d="M 116.260 153.630 C 116.260 152.943 116.248 152.368 116.263 151.795 C 116.299 150.481 116.997 149.192 118.399 148.796 C 119.496 148.486 120.716 148.476 121.666 149.120 C 123.047 150.057 124.145 151.288 123.992 153.173 C 123.972 153.427 123.989 153.683 123.989 154.016 C 124.819 154.393 125.513 155.011 126.013 155.807 C 126.245 156.176 126.477 156.626 126.481 157.042 C 126.499 158.776 126.440 160.511 126.390 162.245 C 126.336 164.060 124.407 165.707 122.669 165.842 C 120.794 165.986 119.109 165.439 117.728 164.126 C 117.423 163.837 117.135 163.705 116.721 163.691 C 115.076 163.635 113.857 162.857 112.781 161.602 C 111.631 160.260 111.148 158.815 111.281 157.085 C 111.431 155.135 112.722 153.820 114.678 153.709 C 115.155 153.682 115.631 153.661 116.260 153.630 Z M 116.781 162.068 C 116.877 161.821 116.945 161.642 117.017 161.465 C 117.163 161.100 117.427 160.867 117.825 160.918 C 118.268 160.973 118.468 161.303 118.532 161.719 C 118.551 161.845 118.560 161.977 118.549 162.103 C 118.496 162.689 118.794 163.073 119.251 163.378 C 120.098 163.945 121.036 164.247 122.043 164.318 C 123.195 164.399 124.819 163.349 124.852 161.943 C 124.882 160.628 124.907 159.311 124.994 157.999 C 125.068 156.887 124.512 156.211 123.637 155.655 C 123.475 155.785 123.352 155.884 123.229 155.983 C 122.926 156.223 122.595 156.305 122.249 156.103 C 121.901 155.899 121.796 155.549 121.864 155.185 C 121.933 154.811 122.043 154.435 122.200 154.090 C 123.062 152.197 121.296 150.020 119.440 150.206 C 118.665 150.284 117.925 150.743 117.882 151.505 C 117.836 152.360 117.516 153.279 118.194 154.084 C 118.442 154.378 118.265 155.123 117.977 155.423 C 117.692 155.718 117.310 155.780 117.011 155.565 C 116.212 154.990 115.345 155.264 114.504 155.298 C 113.749 155.329 113.250 155.790 113.022 156.485 C 112.632 157.675 112.714 158.834 113.452 159.884 C 113.746 160.303 114.097 160.682 114.432 161.071 C 115.034 161.770 115.795 162.104 116.781 162.068 Z " transform="matrix(1, 0, 0, 1, 13, 2)"/>
          <path id="Shape" fill="#32419A" stroke="none" stroke-width="1" d="M 31.536 54.194 C 32.274 54.178 32.824 54.530 32.949 55.058 C 33.048 55.477 33.130 55.939 33.057 56.353 C 32.944 56.994 32.160 57.204 31.764 56.579 C 31.564 56.261 31.254 56.015 31.030 55.710 C 30.808 55.407 30.487 55.045 30.771 54.682 C 30.980 54.415 31.374 54.292 31.536 54.194 Z " transform="matrix(1, 0, 0, 1, 13, 2)"/>
          <path id="Shape" fill="#32419A" stroke="none" stroke-width="1" d="M 49.186 60.002 C 48.905 59.519 48.663 59.123 48.440 58.718 C 48.186 58.254 48.282 57.695 48.644 57.425 C 49.016 57.148 49.498 57.234 49.904 57.665 C 50.056 57.826 50.202 57.999 50.320 58.185 C 50.675 58.744 50.581 59.216 50.028 59.572 C 49.768 59.739 49.475 59.857 49.186 60.002 Z " transform="matrix(1, 0, 0, 1, 13, 2)"/>
          <path id="Shape" fill="#32419A" stroke="none" stroke-width="1" d="M 88.736 52.883 C 89.114 52.171 89.634 51.742 90.423 51.867 C 90.815 51.929 91.107 52.718 91.062 53.343 C 91.027 53.838 90.725 54.080 90.285 54.172 C 89.602 54.314 89.282 54.044 88.736 52.883 Z " transform="matrix(1, 0, 0, 1, 13, 2)"/>
          <path id="Shape" fill="#32419A" stroke="none" stroke-width="1" d="M 73.595 57.600 C 74.048 57.451 74.455 57.316 74.847 57.187 C 75.666 57.848 75.858 58.337 75.556 58.941 C 75.400 59.254 74.883 59.473 74.484 59.376 C 73.517 59.141 73.785 58.307 73.595 57.600 Z " transform="matrix(1, 0, 0, 1, 13, 2)"/>
        </g>
      </g>
    </g>
  </g>
</svg>