<svg width="165px" height="145px" viewBox="0 0 165 145" version="1.1" xml:space="preserve" xmlns="http://www.w3.org/2000/svg" xmlns:xlink="http://www.w3.org/1999/xlink">
  <defs/>
  <g>
    <title>casey-d</title>
    <desc>Created with Sketch.</desc>
    <g id="basketball" stroke="none" stroke-width="1" fill="none" fill-rule="evenodd">
      <g id="casey-d" fill-rule="nonzero">
        <g id="scratch_bball_player02d" transform="translate(19.000000, 8.000000)">
          <path d="M110.17409,75.9622291 C111.692213,80.7987307 110.434454,87.7439628 113.650952,89.3255108 C114.452073,88.92613 114.808571,88.1832817 115.068936,87.4963467 C115.221148,85.7151084 115.253193,84.2493808 114.748487,82.540031 C114.824594,82.4202167 114.696415,80.5670898 116.599076,80.5950464 C118.501737,80.6230031 121.269608,80.4512693 123.216331,76.5333437 C125.002829,72.9389164 125.219132,68.785356 122.691597,65.3906192 C120.468487,62.4152322 116.923529,60.526161 113.302465,61.9719195 C110.522577,63.0782043 108.555826,64.7436223 107.458291,67.1878328 C105.940168,70.5705882 108.659972,71.1297214 110.17409,75.9622291 Z" id="Shape" fill="#DC5050"/>
          <path d="M37.9210364,89.3694427 C37.7379439,91.5688607 37.2804447,93.7369246 36.5591317,95.8234365 C34.6564706,101.29096 27.6787115,108.687492 26.8655742,110.257059 C29.9619048,111.614954 32.9380672,113.256409 36.142549,114.322755 C39.979916,111.730774 43.3806723,108.304087 46.3648459,104.785542 C47.9670868,102.912446 49.9338375,99.2860681 51.2677031,97.2212693 C51.5561064,96.7739628 52.0207563,96.0670588 52.4693838,95.272291 L37.9210364,89.3694427 Z" id="Shape" fill="#DC785A"/>
          <path d="M27.8429412,108.012539 C27.8429412,108.012539 29.3370308,106.239288 30.1742017,105.140991 C31.0113725,104.042693 32.3973109,102.213529 32.3973109,102.213529 L44.3219888,107.457399 C43.5693884,108.560841 42.7295439,109.602548 41.8104762,110.57257 C40.7690196,111.543065 38.9705042,113.01678 38.9705042,113.01678 L27.8429412,108.012539 Z" id="Shape" fill="#FAF0E6"/>
          <path d="M28.579972,106.395046 L20.2643417,115.269288 L22.5194958,122.006842 L30.8431373,124.890372 C31.4119328,124.111579 28.3716807,123.0013 28.3716807,123.0013 L40.8571429,111.690836 L28.579972,106.395046 Z" id="Shape" fill="#00A0DC"/>
          <ellipse id="Oval" fill="#006482" cx="28.7121569" cy="111.531084" rx="2.55957983" ry="2.55204334"/>
          <path d="M37.2521008,112.39774 C37.0237815,112.613406 36.7914566,112.81709 36.5511204,113.01678 L39.1387395,114.067152 L39.4551821,113.288359 L37.2521008,112.39774 Z" id="Shape" fill="#FAF0E6"/>
          <path d="M34.8487395,114.039195 C34.7445938,114.143034 34.6364426,114.246873 34.5162745,114.350712 L34.1637815,114.662229 L37.1119048,115.860372 L37.4283473,115.06161 L34.8487395,114.039195 Z" id="Shape" fill="#F0E6D2"/>
          <path d="M35.5697479,117.625635 L35.8140896,117.026563 L32.8659664,115.828421 C32.6376471,116.036099 32.4093277,116.227802 32.185014,116.455449 L35.4095238,117.761424 L35.5697479,117.625635 Z" id="Shape" fill="#FAF0E6"/>
          <path d="M33.9034174,119.063406 L34.0716527,118.923622 L30.9352661,117.653591 L30.79507,117.793375 L30.2743417,118.288607 L33.3746779,119.546656 C33.5469188,119.38291 33.7231653,119.219164 33.9034174,119.063406 Z" id="Shape" fill="#F0E6D2"/>
          <path d="M28.4718207,120.161703 L31.4760224,121.379814 C31.7083473,121.17613 31.9286555,120.980433 32.1489636,120.748793 L29.012577,119.474768 C28.8403361,119.698421 28.6480672,119.930062 28.4718207,120.161703 Z" id="Shape" fill="#FAF0E6"/>
          <path d="M23.5929972,121.93096 C26.797479,118.196749 20.2803641,115.277276 20.2803641,115.277276 L16.0744818,120.117771 L30.2703361,125.868854 L30.8231092,124.890372 L23.5929972,121.93096 Z" id="Shape" fill="#281446"/>
          <path d="M45.2032213,70.4747368 L29.2408964,83.0712074 C29.2408964,83.0712074 29.6094118,85.9387616 33.0502241,87.4643963 C36.5511204,89.0259752 53.4147059,90.5635913 69.9578431,89.8606811 C86.5009804,89.1577709 93.7310924,83.7701238 93.7310924,83.7701238 L45.2032213,70.4747368 Z" id="Shape" fill="#006482"/>
          <polygon id="Shape" fill="#281446" points="77.3081232 87.0650155 46.0644258 87.0650155 42.0588235 70.6904025 81.3137255 70.6904025"/>
          <path d="M24.5984034,23.4556347 C22.4313725,10.6994118 23.9054342,6.33417957 23.232493,4.23343653 C22.3512605,1.52164087 20.8651821,2.69182663 20.0280112,4.65678019 C19.4351821,5.96275542 18.2054622,15.8634056 14.9408964,11.901548 C13.9635294,10.7034056 13.53493,8.77439628 13.4107563,7.36857585 C13.2184874,5.19195046 13.9955742,2.1326935 12.477451,0.351455108 C9.40515406,-0.467275542 9.88582633,3.77414861 9.35708683,6.19040248 C9.07268908,7.48839009 9.40515406,14.6772446 5.79610644,14.3417647 C2.18705882,14.0062848 4.20588235,4.5169969 0.92929972,4.79256966 C0.436610644,4.83650155 -0.977366947,22.325387 1.20168067,32.749226 C4.05767507,46.4120433 11.2156863,54.1919814 15.7420168,57.6785759 C28.6520728,67.599195 39.1667787,69.3804334 41.6903081,70.0234365 L45.6638655,48.4808359 C43.0201681,48.1293808 37.572549,45.8089783 32.0968908,40.573096 C27.190028,35.8763777 25.6358543,29.4862848 24.5984034,23.4556347 Z" id="Shape" fill="#DC785A"/>
          <path d="M142.759664,82.8195975 C141.477871,84.4410836 137.988992,74.716161 133.498711,77.7195046 C130.506527,79.7164087 134.656331,83.1830341 135.577619,85.5114241 C136.222521,87.1408978 137.872829,89.529195 136.210504,91.1027554 C133.294426,90.7632817 129.176667,81.0503406 125.795938,82.2564706 C122.41521,83.4626006 126.765294,89.5531579 126.813361,91.5101238 C126.937535,96.5223529 120.288235,86.0745511 119.91972,85.3836223 C116.619104,79.1772446 105.687815,68.5217647 98.2173669,67.1159443 C90.7469188,65.7101238 81.9506162,69.9116099 81.9506162,69.9116099 L75.2652661,47.8018885 C79.3469748,47.7020433 93.1262465,41.2879876 115.79395,51.5241176 C134.960756,60.1826935 144.041457,81.1941176 142.759664,82.8195975 Z" id="Shape" fill="#DC785A"/>
          <path d="M74.5642857,91.9734056 C75.2249647,94.0795638 75.6192299,96.2597497 75.7379272,98.4633437 C76.0383473,104.242384 72.3652101,113.711703 72.204986,115.472972 C75.5857143,115.568824 78.962437,115.972198 82.3391597,115.756533 C84.9147619,111.914489 86.7693557,107.465387 88.2073669,103.088173 C88.972437,100.751796 89.4370868,96.6501548 89.8937255,94.2378947 C89.9898599,93.7147059 90.1540896,92.8879876 90.2942857,91.9734056 L74.5642857,91.9734056 Z" id="Shape" fill="#DC785A"/>
          <path d="M72.26507,113.024768 C72.26507,113.024768 72.9820728,110.820186 73.3385714,109.486254 C73.69507,108.152322 74.2959104,105.939752 74.2959104,105.939752 L87.3221289,106.339133 C87.0429377,107.644589 86.658486,108.925438 86.172521,110.169195 C85.5756863,111.459195 84.4621289,113.496037 84.4621289,113.496037 L72.26507,113.024768 Z" id="Shape" fill="#FAF0E6"/>
          <path d="M72.3371709,111.251517 L67.9830812,122.609907 L72.617563,128.005542 L81.3978431,127.562229 C81.6301681,126.627678 78.3936415,126.735511 78.3936415,126.735511 L85.7238936,111.55904 L72.3371709,111.251517 Z" id="Shape" fill="#00A0DC"/>
          <ellipse id="Oval" fill="#006482" cx="74.400056" cy="115.960217" rx="2.55957983" ry="2.55204334"/>
          <path d="M82.2270028,113.563932 C82.0988235,113.847492 81.9586275,114.123065 81.8264426,114.398638 L84.6303641,114.398638 L85.0309244,113.563932 L82.2270028,113.563932 Z" id="Shape" fill="#FAF0E6"/>
          <path d="M81.0453501,115.972198 C80.9892717,116.111981 80.9251821,116.247771 80.8570868,116.371579 C80.7889916,116.495387 80.7168908,116.655139 80.6447899,116.794923 L83.8292437,116.794923 L83.8292437,115.956223 L81.0453501,115.972198 Z" id="Shape" fill="#F0E6D2"/>
          <path d="M83.0521569,119.01548 L83.0521569,118.368483 L79.8717087,118.368483 C79.7355182,118.64805 79.6073389,118.927616 79.4711485,119.207183 L82.9560224,119.207183 C82.9920728,119.159257 83.0241176,119.095356 83.0521569,119.01548 Z" id="Shape" fill="#FAF0E6"/>
          <path d="M82.0547619,120.988421 C82.0868067,120.92452 82.1188515,120.860619 82.154902,120.796718 L78.7701681,120.796718 C78.7421289,120.856625 78.7180952,120.916533 78.690056,120.980433 C78.5979272,121.200093 78.4977871,121.415759 78.3976471,121.635418 L81.7423249,121.635418 C81.842465,121.411765 81.942605,121.200093 82.0547619,120.988421 Z" id="Shape" fill="#F0E6D2"/>
          <path d="M77.4363025,124.043684 L80.6808403,124.043684 C80.8130252,123.768111 80.9412045,123.488545 81.0814006,123.208978 L77.6966667,123.208978 C77.5885154,123.484551 77.5084034,123.764118 77.4363025,124.043684 Z" id="Shape" fill="#FAF0E6"/>
          <path d="M73.5829132,127.514303 C75.12507,122.861517 68.0031092,122.593932 68.0031092,122.593932 L65.9322129,128.656533 L81.2536415,128.656533 L81.3978431,127.546254 L73.5829132,127.514303 Z" id="Shape" fill="#281446"/>
          <path d="M93.2143697,95.8513932 C93.2143697,95.8513932 93.0982073,83.6103715 89.0805882,77.192322 L67.7107003,77.2202786 C69.9338095,85.3796285 72.9179832,96.2108359 72.9179832,96.2108359 L93.2143697,95.8513932 Z" id="Shape" fill="#281446"/>
          <path d="M54.2919328,97.6286378 C54.2919328,97.6286378 57.8969748,88.4428793 56.6031653,81.0024149 L36.8515406,76.421517 C35.830112,84.8085139 34.2198599,95.4879567 34.2198599,95.4879567 L54.2919328,97.6286378 Z" id="Shape" fill="#281446"/>
          <path d="M24.1377591,17.3810526 L24.5943978,17.1014861 C24.5343137,15.6437461 25.8962185,10.1402786 28.2555182,10.5596285 C30.3103922,10.9270588 28.0352101,16.9057895 27.7227731,18.1478638 C27.0298039,20.9155728 26.2887675,23.3398142 26.5851821,26.1993808 C26.8815966,29.0589474 26.5331092,32.3378638 24.2419048,34.2708669 C21.9507003,36.20387 13.1503922,37.0106192 11.4239776,28.963096 C9.72560224,21.0313932 16.1666106,13.7307121 24.1377591,17.3810526 Z" id="Shape" fill="#DC5050"/>
          <polygon id="Shape" fill="#DC785A" points="73.2464426 47.146904 71.5680952 58.1218885 44.1817927 58.173808 47.2661064 47.4224768"/>
          <polygon id="Shape" fill="#006482" points="75.9942857 47.0071207 79.9638375 45.4255728 90.2862745 68.2222291 85.1871429 72.427709"/>
          <polygon id="Shape" fill="#006482" points="45.4435574 47.0071207 40.744986 45.5813313 32.0127731 68.3779876 36.0023529 72.6992879"/>
          <path d="M93.7310924,83.7701238 L77.1238655,44.9942415 L70.8470868,45.1619814 C70.8470868,45.1619814 71.8364706,54.4276161 60.1361064,54.4595666 C51.752381,54.4835294 50.4385434,45.3297214 50.4385434,45.3297214 L43.4007003,44.7306502 L29.2408964,83.0712074 L93.7310924,83.7701238 Z" id="Shape" fill="#00A0DC"/>
          <path d="M68.4957983,36.0201548 C68.3756303,35.828452 69.0645938,30.7882663 69.8296639,29.2985759 C70.5066106,27.9806192 72.4813725,26.6307121 73.8793277,27.4414551 C75.6097479,28.4518885 75.0529692,30.9560062 74.279888,32.3099071 C73.1503081,34.310805 70.6548179,35.3691641 68.4957983,36.0201548 Z" id="Shape" fill="#DC5050"/>
          <path d="M50.5146499,36.0201548 C50.6388235,35.828452 49.9458543,30.7882663 49.1807843,29.2985759 C48.5038375,27.9806192 46.5290756,26.6307121 45.1311204,27.4414551 C43.4007003,28.4518885 43.957479,30.9560062 44.7305602,32.3099071 C45.8761625,34.310805 48.3716527,35.3691641 50.5146499,36.0201548 Z" id="Shape" fill="#DC785A"/>
          <path d="M64.1737535,16.6382043 C66.7293277,18.3076161 71.6442017,7.05306502 72.3571989,5.4555418 C70.0980392,2.61195046 66.8655182,1.98092879 63.3726331,2.61195046 C62.864603,5.04802013 62.7590679,7.55047101 63.0601961,10.0204644 C63.2885154,12.1571517 63.3485994,14.6492879 64.1737535,16.6382043 Z" id="Shape" fill="#FFC800"/>
          <path d="M60.392465,18.5871827 L67.0297479,20.8956037 C67.0297479,20.8956037 68.8282633,17.3970279 65.1431092,16.0391331 C61.4579552,14.6812384 60.392465,18.5871827 60.392465,18.5871827 Z" id="Shape" fill="#006482"/>
          <path d="M51.1996078,18.7309598 C49.5973669,21.3229412 40.352437,13.1995356 39.042605,12.0812693 C39.8757703,8.55074303 42.5314846,6.61374613 45.9642857,5.69117647 C47.4628285,7.68171149 48.6238364,9.90379738 49.4010924,12.2689783 C50.090056,14.3018266 51.1034734,16.582291 51.1996078,18.7309598 Z" id="Shape" fill="#FFC800"/>
          <path d="M55.4535574,18.8986997 L50.422521,23.7951084 C50.422521,23.7951084 47.3061625,21.3988235 50.070028,18.6031579 C52.8338936,15.8074923 55.4535574,18.8986997 55.4535574,18.8986997 Z" id="Shape" fill="#006482"/>
          <path d="M72.2931092,23.22 L48.7882353,23.1640867 C48.7882353,23.1640867 48.972493,17.0655418 61.1054622,17.1414241 C70.6468067,17.2173065 72.2931092,23.22 72.2931092,23.22 Z" id="Shape" fill="#FFC800"/>
          <path d="M49.6294118,25.4964706 C49.4571709,25.8359443 49.3610364,29.4503406 49.1887955,29.793808 C49.1407283,30.7443344 48.7201401,31.6149845 49.4291317,33.9393808 C50.0864253,35.8040083 50.9025395,37.6091378 51.8685434,39.3350155 C52.9180112,40.8087307 54.5603081,42.4382043 56.2747059,43.1131579 C59.5913445,44.4311146 63.8052381,44.0716718 66.5931373,42.1067183 C69.9177871,39.7623529 71.0513725,35.7166254 71.5841176,31.7907121 C71.8284594,29.981517 72.7857983,27.1658824 72.5014006,25.3486997 L49.6294118,25.4964706 Z" id="Shape" fill="#DC785A"/>
          <path d="M67.8909524,30.2371207 C67.8148459,32.0303406 63.4487395,32.8011455 63.5689076,29.9295975 C63.6890756,27.0580495 63.5288515,25.1609907 65.5476751,25.1370279 C67.5664986,25.113065 67.9630532,28.4439009 67.8909524,30.2371207 Z" id="Shape" fill="#DC5050"/>
          <polygon id="Shape" fill="#FFC800" points="52.4453501 26.7944582 49.0405882 31.7947059 48.2194398 26.8903096"/>
          <path d="M73.4226891,28.775387 C73.8232493,27.09 74.2238095,23.6832817 73.1382913,22.5370588 L48.5519048,22.5370588 C47.4263305,23.4356656 47.1980112,27.4534365 47.2981513,29.0589474 L73.4226891,28.775387 Z" id="Shape" fill="#00A0DC"/>
          <path d="M67.1459104,33.8075851 C67.1459104,33.8075851 66.5290476,35.0057276 64.2057983,34.9178638 C61.882549,34.83 61.429916,33.8475232 61.429916,33.8475232 L67.1459104,33.8075851 Z" id="Shape" fill="#000000"/>
          <path d="M70.4385154,30.5686068 C69.7535574,31.5191331 69.0165266,29.9455728 69.7815966,29.2706192 C70.2822969,29.3305263 70.4545378,29.6660062 70.4385154,30.5686068 Z" id="Shape" fill="#000000"/>
          <path d="M57.9370308,31.2635294 C57.4363305,31.0518576 57.4763866,30.6085449 57.3922689,30.2091641 L58.0451821,29.7139319 C58.7742017,29.9535604 58.6219888,31.1037771 57.9370308,31.2635294 Z" id="Shape" fill="#000000"/>
          <polygon id="Shape" fill="#006482" points="73.7751821 27.2896904 46.9496639 27.17387 47.4223249 24.0187616 73.7751821 23.9149226"/>
        </g>
      </g>
    </g>
  </g>
</svg>