<svg width="165px" height="145px" viewBox="0 0 165 145" version="1.1" xml:space="preserve" xmlns="http://www.w3.org/2000/svg" xmlns:xlink="http://www.w3.org/1999/xlink">
  <!-- Generator: Sketch 48.2 (47327) - http://www.bohemiancoding.com/sketch -->
  <defs/>
  <g>
    <title>dorian-c</title>
    <desc>Created with Sketch.</desc>
    <g id="basketball" stroke="none" stroke-width="1" fill="none" fill-rule="evenodd">
      <g id="dorian-c" fill-rule="nonzero">
        <g id="scratch_bball_player01c" transform="translate(6.000000, 5.000000)">
          <path d="M154.932088,46.8894659 C154.804253,45.5234421 148.636211,46.4888724 148.656186,44.3456973 C148.67616,42.2025223 154.225,42.7433234 153.45,41.9661721 C153.014562,41.5175074 124.790979,41.3813056 100.478351,41.2010386 L100.478351,51.6765579 C119.99317,52.0130564 140.526675,52.2654303 140.854253,52.2694362 C143.682603,52.2694362 153.274227,52.2454006 153.006572,51.5203264 C152.738918,50.7952522 148.472423,50.7912463 148.8,49.0646884 C149.127577,47.3381306 155.059923,48.2594955 154.932088,46.8894659 Z" id="Shape" fill="#E6BE6E"/>
          <path d="M144.481572,41.7578635 C144.765206,41.3372404 145.148711,41.35727 145.512242,41.1609792 C146.926418,40.3597923 148.476418,39.4103858 148.468428,38.7574184 C148.468428,37.9562315 138.249613,39.8350148 139.679768,45.6876855 C140.842268,50.4547478 145.348454,48.2835312 145.076804,43.8329377 C145.036856,43.264095 144.213918,42.1824926 144.481572,41.7578635 Z" id="Shape" fill="#BE965A"/>
          <path d="M57.969201,40.7764095 C33.0134021,40.9686944 2.29304124,41.0968843 1.83762887,41.5775964 C1.07061856,42.3787834 6.6314433,41.7979228 6.6314433,43.9571217 C6.6314433,46.1163205 0.479381443,45.1348665 0.351546392,46.5008902 C0.22371134,47.8669139 6.15206186,46.9335312 6.47963918,48.664095 C6.80721649,50.3946588 2.5367268,50.3906528 2.26907216,51.1197329 C2.00141753,51.8488131 11.5930412,51.8808605 14.4213918,51.8688427 C14.7689433,51.8688427 37.5675258,51.5844214 57.9652062,51.2198813 L57.969201,40.7764095 Z" id="Shape" fill="#E6BE6E"/>
          <path d="M10.8180412,41.35727 C10.5344072,40.9366469 10.1469072,40.9566766 9.78337629,40.7603858 C8.37319588,39.9591988 6.81920103,39.0097923 6.82719072,38.3568249 C6.82719072,37.555638 17.0460052,39.4344214 15.6158505,45.287092 C14.4533505,50.0541543 9.95115979,47.8829377 10.2188144,43.4323442 C10.2587629,42.8635015 11.0976804,41.7818991 10.8180412,41.35727 Z" id="Shape" fill="#BE965A"/>
          <path d="M65.4036082,72.4753709 L58.3247423,76.4813056 C59.0637887,81.6890208 71.8393041,84.8617211 82.6493557,85.5547478 C93.4594072,86.2477745 103.650258,80.5593472 103.650258,80.5593472 L65.4036082,72.4753709 Z" id="Shape" fill="#006482"/>
          <rect id="Rectangle-path" fill="#281446" x="67.5887887" y="70.1078635" width="25.7787371" height="12.0218101"/>
          <polygon id="Shape" fill="#E6BE6E" points="91.5139175 108.116172 97.1826031 101.446291 96.978866 91.9041543 86.3485825 91.4154303 87.1155928 101.822849"/>
          <polygon id="Shape" fill="#FAF0E6" points="97.3703608 123.45089 97.1826031 101.446291 86.9917526 101.726706 87.8027062 122.609644"/>
          <polygon id="Shape" fill="#281446" points="99.871134 96.3307122 100.118814 74.5224036 83.5282216 74.4903561 85.25 96.5830861"/>
          <polygon id="Shape" fill="#00A0DC" points="105.280155 133.774184 98.6726804 132.912908 87.3073454 133.537834 87.5430412 134.839763 105.591753 134.971958"/>
          <path d="M104.09768,132.480267 C102.904454,132.415696 101.716754,132.272508 100.542268,132.051632 L97.7458763,119.485015 L87.2993557,119.485015 L87.2993557,133.537834 L105.27616,133.774184 C105.118489,133.434214 104.984995,133.083487 104.876675,132.724629 C104.628399,132.610368 104.366631,132.528254 104.09768,132.480267 Z" id="Shape" fill="#281446"/>
          <ellipse id="Oval" fill="#00A0DC" cx="92.1650773" cy="125.437834" rx="3.07203608" ry="3.0805638"/>
          <polygon id="Shape" fill="#006482" points="99.1081186 122.481454 96.0520619 122.481454 95.8003866 121.700297 98.968299 121.700297"/>
          <polygon id="Shape" fill="#00A0DC" points="99.4516753 124.30816 96.3996134 124.30816 96.1479381 123.522997 99.3118557 123.522997"/>
          <polygon id="Shape" fill="#006482" points="99.7992268 126.130861 96.7431701 126.130861 96.4914948 125.345697 99.6594072 125.345697"/>
          <polygon id="Shape" fill="#00A0DC" points="100.146778 127.953561 97.0907216 127.953561 96.8390464 127.168398 100.006959 127.168398"/>
          <polygon id="Shape" fill="#006482" points="100.490335 129.776261 97.4382732 129.776261 97.1865979 128.995104 100.35451 128.995104"/>
          <polygon id="Shape" fill="#E6BE6E" points="62.7310567 107.158754 58.8600515 99.2991098 61.3887887 90.0974777 71.8153351 92.2326409 68.5315722 102.131306"/>
          <polygon id="Shape" fill="#FAF0E6" points="53.3112113 120.590653 58.8600515 99.2991098 68.6753866 102.071217 62.7949742 122.12092"/>
          <polygon id="Shape" fill="#00A0DC" points="43.1283505 128.658605 49.7438144 129.447774 60.6137887 132.840801 60.0664948 134.042582 42.5331186 129.744214"/>
          <path d="M44.5904639,127.697181 C45.7618325,127.926254 46.9468004,128.078801 48.1378866,128.153858 L53.9304124,116.652819 L59.778866,118.135015 L64.0573454,119.216617 L60.6257732,132.836795 L43.1443299,128.658605 C43.3774552,128.366885 43.5897116,128.058995 43.7795103,127.73724 C44.0472105,127.690982 44.319526,127.677531 44.5904639,127.697181 Z" id="Shape" fill="#281446"/>
          <ellipse id="Oval" fill="#00A0DC" cx="57.8773196" cy="123.795401" rx="3.07203608" ry="3.0805638"/>
          <polygon id="Shape" fill="#006482" points="51.8650773 119.228635 54.8292526 119.977745 55.2646907 119.276706 52.1926546 118.499555"/>
          <polygon id="Shape" fill="#00A0DC" points="51.0860825 120.911128 54.0462629 121.660237 54.481701 120.963205 51.4096649 120.186053"/>
          <polygon id="Shape" fill="#006482" points="50.3070876 122.59362 53.267268 123.34273 53.7027062 122.645697 50.6306701 121.868546"/>
          <polygon id="Shape" fill="#00A0DC" points="49.5240979 124.276113 52.4882732 125.025223 52.9237113 124.32819 49.8516753 123.551039"/>
          <polygon id="Shape" fill="#006482" points="48.7451031 125.958605 51.7052835 126.707715 52.1407216 126.010682 49.0686856 125.233531"/>
          <polygon id="Shape" fill="#281446" points="57.5018041 93.6827893 62.5832474 72.4753709 78.6744845 76.5093472 71.6195876 97.508457"/>
          <path d="M106.993943,53.6795252 L106.993943,40.2676558 C106.993943,40.2676558 56.1515464,39.7589021 52.879768,39.8350148 L52.879768,52.1412463 C55.5243557,52.3175074 59.7389175,52.3335312 63.7377577,52.2934718 L64.2570876,52.3135015 L58.3247423,76.4692878 C60.8934278,77.44273 64.8363402,76.8698813 67.580799,76.9259644 C71.507732,76.9940653 75.4426546,76.9259644 79.3615979,77.0461424 C87.0157216,77.3025223 95.996134,80.9639466 103.650258,80.5473294 C103.114948,79.2854599 98.1813144,62.6688427 95.428866,53.3550445 L95.8283505,53.3550445 C99.5155928,53.4952522 103.758119,53.6795252 106.993943,53.6795252 Z" id="Shape" fill="#00A0DC"/>
          <path d="M73.1655928,32.0875371 C71.4381758,32.1884973 69.7062362,31.9934181 68.044201,31.5106825 C66.6612532,31.0188964 65.5179866,30.0157612 64.8483247,28.7065282 C64.1572165,27.4847181 63.8096649,25.0250742 66.1106959,23.6630564 C68.4117268,22.3010386 70.9045103,23.9394659 71.7034794,25.2894659 C72.4305412,26.5152819 72.9139175,30.6133531 73.1655928,32.0875371 Z" id="Shape" fill="#BE965A"/>
          <path d="M70.3092784,29.9283383 C70.3092784,29.9283383 68.355799,28.8507418 67.3610825,24.604451 C66.6460052,21.539911 66.4742268,15.5991098 67.6846649,13.0393175 C70.576933,6.92626113 73.5051546,3.70548961 73.5051546,3.70548961 L77.9314433,19.6290801 L70.3092784,29.9283383 Z" id="Shape" fill="#642800"/>
          <path d="M91.0545103,29.9323442 C91.0545103,29.9323442 94.1824742,18.1428783 91.4539948,12.3863501 C88.7255155,6.62982196 85.6654639,5.65237389 85.6654639,5.65237389 L82.6173969,15.0022255 L91.0545103,29.9323442 Z" id="Shape" fill="#642800"/>
          <path d="M89.4126289,32.5922849 C89.8496089,30.4091017 90.1167361,28.1951665 90.2115979,25.9704748 C92.404768,22.5413947 98.1533505,21.2034125 97.598067,26.935905 C97.1865979,31.05 93.6112113,34.0704748 89.4126289,32.5922849 Z" id="Shape" fill="#E6BE6E"/>
          <path d="M86.8798969,16.7007418 L72.6662371,16.6446588 C71.3759021,18.3391691 69.0708763,21.9364985 68.7712629,25.0571217 C68.7712629,25.1933234 68.5076031,30.5212166 70.4610825,34.2186944 C71.5516753,36.2817507 74.0164948,37.4234421 75.9340206,37.8721068 C80.4841495,38.9617211 86.6521907,38.0764095 89.6443299,33.9623145 C90.8068299,32.3599407 90.9306701,30.7816024 91.0385309,29.455638 C91.7975515,20.0296736 88.5697165,17.9265579 86.8798969,16.7007418 Z" id="Shape" fill="#E6BE6E"/>
          <path d="M89.4845361,18.8278932 C87.7108247,19.4207715 71.9951031,20.0857567 70.1534794,19.8133531 C69.7539948,17.2896142 79.7411082,0.21231454 79.7411082,0.21231454 C79.7411082,0.21231454 89.4845361,16.3362018 89.4845361,18.8278932 Z" id="Shape" fill="#642800"/>
          <path d="M78.4188144,26.4992582 C79.3876838,27.6635819 80.0802267,29.033336 80.444201,30.5051929 C78.9501289,31.0139466 76.7529639,31.234273 75.2509021,30.7295252 C75.2349227,29.2433234 75.9699742,26.4391691 78.4188144,26.4992582 Z" id="Shape" fill="#BE965A"/>
          <path d="M76.4853093,33.6498516 C76.5429247,33.8248455 76.6384175,33.984898 76.7649485,34.118546 C77.4801736,34.1077514 78.1953602,34.1425395 78.9061856,34.2227003 L78.9780928,34.1746291 C79.1312298,34.0471138 79.2018716,33.8453799 79.1618557,33.6498516 C78.2989691,33.5977745 77.3681701,33.6218101 76.4853093,33.6498516 Z" id="Shape" fill="#000000"/>
          <path d="M71.3399485,27.368546 C70.3532216,27.368546 70.7407216,25.9744807 70.9844072,25.4537092 C71.1006442,25.3646828 71.2475813,25.3260163 71.3924339,25.3463369 C71.5372865,25.3666575 71.668001,25.4442743 71.7554124,25.5618694 C71.903405,26.196117 71.7499717,26.8633333 71.3399485,27.368546 Z" id="Shape" fill="#000000"/>
          <path d="M83.6161082,27.5608309 C82.641366,27.6930267 82.8171392,26.2669139 82.9969072,25.7181009 C83.0997694,25.6061952 83.2446213,25.5425358 83.3963918,25.5425358 C83.5481622,25.5425358 83.6930141,25.6061952 83.7958763,25.7181009 C84.028337,26.3265054 83.9617428,27.0091361 83.6161082,27.5608309 Z" id="Shape" fill="#000000"/>
          <polygon id="Shape" fill="#642800" points="84.6467784 17.4538576 91.1064433 27.4847181 91.6657216 19.1964392"/>
        </g>
      </g>
    </g>
  </g>
</svg>