<svg version="1.1" width="145" height="181" viewBox="-1 -1 145 181" xmlns="http://www.w3.org/2000/svg" xmlns:xlink="http://www.w3.org/1999/xlink">
  <!-- Exported by Scratch - http://scratch.mit.edu/ -->
  <g id="ID0.029177377000451088">
    <g id="dinosaurs">
      <g id="tyrannosaurus-d">
        <g id="scratch_dinos04d">
          <path id="Shape" fill="#AAA082" stroke="none" stroke-width="1" d="M 37.912 1.771 L 20.284 5.437 L 29.098 7.459 L 37.912 1.771 " transform="matrix(-1, 0, 0, 1, 144.15, 0)"/>
          <path id="Shape" fill="#828C00" stroke="none" stroke-width="1" d="M 122.069 148.968 C 114.310 153.354 101.537 154.285 101.537 154.285 C 101.537 154.285 87.823 115.805 90.335 115.768 C 91.957 115.744 97.908 120.888 109.291 123.442 C 115.568 124.851 127.986 124.735 129.708 124.707 C 132.190 124.670 134.673 124.624 137.131 124.620 C 138.786 124.620 142.349 123.953 143.830 124.756 C 143.437 127.083 136.221 140.973 122.069 148.968 Z " transform="matrix(-1, 0, 0, 1, 144.15, 0)"/>
          <path id="Shape" fill="#828C00" stroke="none" stroke-width="1" d="M 91.701 84.851 C 91.109 84.851 91.403 81.919 91.026 81.919 C 90.650 81.919 90.815 84.769 90.141 84.724 C 89.466 84.678 89.888 82.005 89.259 82.005 C 88.630 82.005 89.222 87.644 89.197 89.267 C 89.160 91.462 89.255 93.666 89.160 95.857 C 89.073 97.818 88.775 99.762 87.770 101.480 C 87.182 102.481 83.512 105.034 79.597 105.351 C 77.242 105.554 74.869 105.311 72.604 104.635 L 69.985 108.605 C 69.985 108.605 75.434 110.125 80.330 109.730 C 83.743 109.458 87.364 108.115 88.134 107.600 C 90.803 105.833 92.338 102.316 92.508 99.445 C 92.669 96.730 92.735 93.995 92.810 91.273 C 92.872 88.851 93.414 82.586 92.810 82.417 C 92.206 82.248 92.276 84.851 91.701 84.851 Z " transform="matrix(-1, 0, 0, 1, 144.15, 0)"/>
          <path id="Shape" fill="#828C00" stroke="none" stroke-width="1" d="M 44.988 139.444 L 36.033 127.087 C 23.412 140.519 8.690 154.874 5.826 157.346 C 4.837 156.658 4.486 155.583 3.799 154.784 L 2.876 155.319 C 3.819 156.476 7.353 161.802 8.570 162.795 C 9.612 162.033 44.988 139.444 44.988 139.444 Z " transform="matrix(-1, 0, 0, 1, 144.15, 0)"/>
          <path id="Shape" fill="#A0AA1E" stroke="none" stroke-width="1" d="M 94.560 117.964 C 93.207 116.666 91.345 115.904 89.901 114.829 C 87.699 113.182 85.101 111.979 82.866 110.344 C 82.142 109.821 80.710 108.614 80.710 108.614 L 78.091 104.643 C 78.091 104.643 76.217 99.548 75.910 97.871 C 74.669 91.141 74.603 71.139 74.561 64.302 L 27.472 77.437 L 24.828 87.183 C 24.828 87.183 24.724 97.208 24.534 102.192 C 24.157 112.057 23.752 121.551 25.250 131.355 C 25.932 135.840 26.669 140.099 29.429 143.827 C 32.326 147.736 35.764 150.961 40.448 152.642 C 49.105 155.743 89.648 154.759 92.512 154.466 C 95.491 154.162 98.611 154.656 101.557 154.285 C 102.012 152.090 101.640 149.445 101.607 147.213 C 101.474 137.879 101.938 125.040 94.560 117.964 Z " transform="matrix(-1, 0, 0, 1, 144.15, 0)"/>
          <path id="Shape" fill="#828C00" stroke="none" stroke-width="1" d="M 24.952 75.448 L 24.823 87.183 L 50.979 75.806 L 24.952 75.448 " transform="matrix(-1, 0, 0, 1, 144.15, 0)"/>
          <path id="Shape" fill="#A0AA1E" stroke="none" stroke-width="1" d="M 14.288 85.263 C 14.880 85.263 14.586 82.330 14.963 82.330 C 15.339 82.330 15.174 85.181 15.848 85.135 C 16.523 85.090 16.101 82.417 16.730 82.417 C 17.359 82.417 16.767 88.056 16.792 89.679 C 16.829 91.874 16.734 94.078 16.829 96.269 C 16.916 98.230 17.210 100.174 18.219 101.892 C 18.807 102.892 22.477 105.446 26.392 105.763 C 30.372 106.089 34.606 104.173 35.665 104.363 C 35.601 105.705 35.617 107.051 35.710 108.391 L 35.383 108.956 C 34.059 109.038 30.550 110.537 25.647 110.142 C 22.237 109.870 18.236 108.037 17.458 107.522 C 14.789 105.759 13.643 102.728 13.473 99.857 C 13.312 97.142 13.246 94.407 13.171 91.685 C 13.105 89.263 12.563 82.998 13.171 82.829 C 13.779 82.660 13.701 85.263 14.288 85.263 Z " transform="matrix(-1, 0, 0, 1, 144.15, 0)"/>
          <path id="Shape" fill="#A0AA1E" stroke="none" stroke-width="1" d="M 59.172 135.103 C 59.172 135.103 69.790 172.508 69.790 178.838 C 69.219 178.937 66.228 178.530 65.793 179.143 C 66.157 180.400 73.527 179.592 75.021 179.349 C 75.480 177.986 77.379 136.232 77.379 136.232 L 59.172 135.103 Z " transform="matrix(-1, 0, 0, 1, 144.15, 0)"/>
          <path id="Shape" fill="#AAA082" stroke="none" stroke-width="1" d="M 25.622 60.351 L 16.188 53.708 C 14.954 55.941 13.607 58.110 12.153 60.207 L 25.622 60.351 Z " transform="matrix(-1, 0, 0, 1, 144.15, 0)"/>
          <path id="Shape" fill="#DCD2B4" stroke="none" stroke-width="1" d="M 27.033 30.275 L 9.741 23.441 C 9.741 23.441 23.628 17.102 26.599 15.961 C 26.743 17.802 27.033 30.275 27.033 30.275 Z " transform="matrix(-1, 0, 0, 1, 144.15, 0)"/>
          <path id="Shape" fill="#AAA082" stroke="none" stroke-width="1" d="M 27.563 36.416 L 27.182 47.393 C 27.182 47.393 13.800 43.352 12 42.426 C 12 42.360 27.563 36.416 27.563 36.416 Z " transform="matrix(-1, 0, 0, 1, 144.15, 0)"/>
          <path id="Shape" fill="#DCD2B4" stroke="none" stroke-width="1" d="M 27.281 29.097 C 27.509 31.280 26.636 37.359 26.636 37.359 L 10.966 33.207 C 10.966 33.207 24.972 29.278 27.281 29.097 Z " transform="matrix(-1, 0, 0, 1, 144.15, 0)"/>
          <path id="Shape" fill="#DCD2B4" stroke="none" stroke-width="1" d="M 30.948 6.178 C 29.876 7.624 29.417 16.665 28.721 17.843 C 25.295 17.106 17.446 14.458 14.239 13.098 C 16.386 11.830 30.931 6.129 30.948 6.178 Z " transform="matrix(-1, 0, 0, 1, 144.15, 0)"/>
          <path id="Shape" fill="#AAA082" stroke="none" stroke-width="1" d="M 27.724 46.462 L 15.815 51.154 L 27.434 57.822 L 27.724 46.462 " transform="matrix(-1, 0, 0, 1, 144.15, 0)"/>
          <path id="Shape" fill="#000000" stroke="none" stroke-width="1" d="M 62.545 25.571 C 59.963 10.524 53.197 2.883 53.197 2.883 C 53.197 2.883 44.508 0.552 42.459 0.638 C 39.505 0.758 32.114 3.390 29.032 6.376 C 28.303 7.045 27.706 7.843 27.269 8.728 C 26.308 10.658 25.682 12.736 25.415 14.874 C 25.117 17.627 24.978 20.396 25.001 23.165 C 25.001 26.049 25.510 38.175 25.577 41.367 C 25.601 42.520 26.057 51.883 26.127 54.264 C 26.127 54.820 26.582 61.814 26.582 61.814 L 62.967 59.816 C 62.967 59.816 64.829 38.879 62.545 25.571 Z " transform="matrix(-1, 0, 0, 1, 144.15, 0)"/>
          <path id="Shape" fill="#FAF0E6" stroke="none" stroke-width="1" d="M 25.903 1.965 C 25.903 1.965 37.597 0.873 42.389 0.511 C 43.594 0.372 44.815 0.513 45.956 0.923 C 47.992 0.853 49.858 3.266 51.927 4.045 C 50.743 4.889 25.903 1.965 25.903 1.965 Z " transform="matrix(-1, 0, 0, 1, 144.15, 0)"/>
          <path id="Shape" fill="#FFFFFF" stroke="none" stroke-width="1" d="M 61.196 29.867 C 59.400 30.139 36.654 25.418 35.814 24.710 C 38.541 21.794 57.004 12.571 59.210 12.143 C 60.257 14.931 62.172 28.454 61.196 29.867 Z " transform="matrix(-1, 0, 0, 1, 144.15, 0)"/>
          <path id="Shape" fill="#FFFFFF" stroke="none" stroke-width="1" d="M 61.746 25.913 C 59.586 27.338 38.110 36.428 36.414 38.389 C 38.748 39.468 62.164 46.705 62.164 46.705 C 62.164 46.705 63.724 24.595 61.746 25.913 Z " transform="matrix(-1, 0, 0, 1, 144.15, 0)"/>
          <path id="Shape" fill="#DCD2B4" stroke="none" stroke-width="1" d="M 61.734 45.165 L 61.535 55.421 C 61.535 55.421 46.560 50.532 46.552 50.478 C 48.323 49.370 61.734 45.165 61.734 45.165 Z " transform="matrix(-1, 0, 0, 1, 144.15, 0)"/>
          <path id="Shape" fill="#FAF0E6" stroke="none" stroke-width="1" d="M 16.332 59.647 C 12.799 59.841 9.277 59.697 5.752 59.898 C 6.306 56.018 8.057 51.389 9.770 47.859 C 11.073 49.716 15.674 57.406 16.332 59.647 Z " transform="matrix(-1, 0, 0, 1, 144.15, 0)"/>
          <path id="Shape" fill="#FAF0E6" stroke="none" stroke-width="1" d="M 24.050 49.939 L 28.382 60.718 L 14.768 60.615 L 24.050 49.939 " transform="matrix(-1, 0, 0, 1, 144.15, 0)"/>
          <path id="Shape" fill="#DCD2B4" stroke="none" stroke-width="1" d="M 25.924 62.506 C 27.120 59.470 30.178 52.847 31.759 49.988 L 31.932 49.988 C 32.760 51.636 39.348 61.043 38.967 61.682 C 37.241 61.896 27.559 63.272 25.924 62.506 Z " transform="matrix(-1, 0, 0, 1, 144.15, 0)"/>
          <path id="Shape" fill="#FAF0E6" stroke="none" stroke-width="1" d="M 45.389 60.961 C 45.174 61.039 37.941 60.426 36.430 60.232 C 36.687 59.165 40.477 51.434 41.011 50.940 C 41.710 52.645 45.732 59.091 45.389 60.961 Z " transform="matrix(-1, 0, 0, 1, 144.15, 0)"/>
          <path id="Shape" fill="#FAF0E6" stroke="none" stroke-width="1" d="M 50.259 59.915 C 48.968 57.139 47.243 54.148 47.243 54.148 C 47.243 54.148 45.588 57.262 44.284 59.915 L 50.259 59.915 Z " transform="matrix(-1, 0, 0, 1, 144.15, 0)"/>
          <path id="Shape" fill="#FAF0E6" stroke="none" stroke-width="1" d="M 54.207 61.373 C 52.916 58.601 51.186 55.606 51.186 55.606 C 51.186 55.606 49.531 58.720 48.232 61.373 L 54.207 61.373 Z " transform="matrix(-1, 0, 0, 1, 144.15, 0)"/>
          <path id="Shape" fill="#DCD2B4" stroke="none" stroke-width="1" d="M 0.703 60.339 C 0.232 58.692 2.247 52.352 3.625 50.346 C 4.233 51.652 6.166 60.586 6.166 60.586 C 6.166 60.586 1.812 60.549 0.703 60.339 Z " transform="matrix(-1, 0, 0, 1, 144.15, 0)"/>
          <path id="Shape" fill="#FFFFFF" stroke="none" stroke-width="1" d="M 50.214 3.505 L 58.527 14.462 C 58.527 14.462 37.039 14.841 34.084 14.684 C 34.854 13.395 50.214 3.505 50.214 3.505 Z " transform="matrix(-1, 0, 0, 1, 144.15, 0)"/>
          <path id="Shape" fill="#A0AA1E" stroke="none" stroke-width="1" d="M 75.128 51.141 C 74.855 39.851 75.054 26.572 69.716 16.311 C 67.142 11.368 64.121 7.060 58.957 4.519 C 56.311 3.147 53.517 2.080 50.628 1.339 C 48.286 0.799 44.735 -0.012 42.372 0.515 C 47.003 2.047 50.152 4.502 52.672 8.683 C 55.469 13.317 56.930 18.766 58.126 23.993 C 59.201 29 59.687 34.115 59.574 39.233 C 59.541 41.804 59.528 44.382 59.392 46.940 C 59.363 47.443 59.214 58.226 59.214 58.226 C 59.214 58.226 0.757 59.379 0.588 59.169 C -0.439 61.435 3.277 66.942 4.585 68.544 C 6.728 71.164 15.120 76.259 16.386 76.708 C 18.097 77.364 19.843 77.926 21.617 78.389 C 24.881 79.142 28.270 79.151 31.606 79.431 C 55.473 81.222 67.783 78.063 74.363 76.523 C 74.735 68.070 75.331 59.635 75.128 51.141 Z " transform="matrix(-1, 0, 0, 1, 144.15, 0)"/>
          <path id="Shape" fill="#000000" stroke="none" stroke-width="1" d="M 65.470 58.152 C 65.884 58.465 69.327 60.277 69.327 60.277 L 68.834 60.730 L 64.668 58.543 L 64.668 58.020 C 65.011 57.905 66.273 56.463 67.916 55.635 C 68.115 55.476 68.399 55.476 68.599 55.635 C 68.512 56.018 65.839 57.839 65.470 58.152 Z " transform="matrix(-1, 0, 0, 1, 144.15, 0)"/>
        </g>
      </g>
    </g>
  </g>
</svg>