<svg width="230px" height="145px" viewBox="0 0 230 145" version="1.1" xml:space="preserve" xmlns="http://www.w3.org/2000/svg" xmlns:xlink="http://www.w3.org/1999/xlink">
  <!-- Generator: Sketch 48.2 (47327) - http://www.bohemiancoding.com/sketch -->
  <defs/>
  <g>
    <title>pterosaur-c</title>
    <desc>Created with Sketch.</desc>
    <g id="dinosaurs" stroke="none" stroke-width="1" fill="none" fill-rule="evenodd">
      <g id="pterosaur-c" fill-rule="nonzero">
        <g id="scratch_dinos01c" transform="translate(69.000000, 7.000000)">
          <path d="M55.473,79.6199332 C55.44,79.848441 56.544,83.6939866 56.514,83.9224944 C57.276,88.4746102 52.29,93.564922 49.278,96.2498886 C49.014,96.9624722 50.178,99.6624722 50.541,100.296882 L50.778,100.296882 C50.913,99.758686 50.595,99.2625835 50.643,98.7213808 C52.515,97.6900891 54.579,97.0165924 56.244,95.6275056 C57.909,94.2384187 60.225,92.0766147 61.455,90.3116927 C63.615,87.2087973 65.76,82.3890869 66.414,75.6992205 C66.405,75.7292873 55.473,79.6199332 55.473,79.6199332 Z" id="Shape" fill="#C8C8BE"/>
          <path d="M50.124,97.058686 C50.124,97.058686 51.324,99.7646993 51.48,100.008241 L51.717,100.008241 C51.831,99.5422049 51.435,97.5066815 51.417,97.0466592 C50.9860956,97.0274858 50.5544751,97.0315005 50.124,97.058686 Z" id="Shape" fill="#C8C8BE"/>
          <path d="M51.462,96.5716036 C51.462,96.5716036 52.062,99.4790646 52.146,99.7436526 L52.374,99.8097996 C52.587,99.3798441 52.374,97.1218263 52.449,96.6648107 C52.1242914,96.5983286 51.7933843,96.5670795 51.462,96.5716036 Z" id="Shape" fill="#C8C8BE"/>
          <path d="M46.893,95.0111359 C46.311,93.952784 45.81,92.8553452 45.219,91.8 C44.46,91.6947661 41.937,90.7747216 39.78,89.1811804 C37.566,87.5395323 35.724,85.191314 35.544,82.5454343 C35.19,77.3258352 38.844,73.3780624 38.844,73.3780624 L35.04,71.0478842 L27.345,76.2644766 C27.345,76.2644766 26.304,80.933853 31.314,88.4595768 C32.856,90.7747216 35.55,92.5606904 38.136,93.5378619 C40.905,94.5841871 43.422,94.2324053 46.236,94.7405345 C46.743,95.3418708 46.863,96.1596882 47.382,96.6888641 C47.5210392,96.7313401 47.6710245,96.6729516 47.745,96.5475501 C47.472,96.048441 47.181,95.5342984 46.893,95.0111359 Z" id="Shape" fill="#C8C8BE"/>
          <path d="M44.484,94.2744989 C44.484,94.2744989 46.407,96.5355234 46.608,96.727951 L46.839,96.6738307 C46.821,96.1927617 45.555,94.3135857 45.396,93.8806236 C45.0790083,93.9793603 44.7733118,94.1113848 44.484,94.2744989 Z" id="Shape" fill="#C8C8BE"/>
          <path d="M43.08,94.027951 C43.08,94.027951 45.309,96.4723831 45.513,96.661804 C45.582,96.6467706 45.834,96.5625835 45.834,96.5625835 C45.834,96.5625835 44.148,94.0670379 43.992,93.6340757 C43.6745246,93.7314968 43.3686898,93.863581 43.08,94.027951 Z" id="Shape" fill="#C8C8BE"/>
          <path d="M16.908,95.4471047 L7.875,87.1216036 L1.665,89.7073497 L0.3,97.3052339 C1.422,103.652339 0.672,103.583185 3.663,112.939978 C6.654,122.296771 12.459,134.452784 13.263,134.287416 C14.067,134.122049 11.775,122.973274 12.714,112.14922 C13.353,104.779844 16.572,96.6858575 16.908,95.4471047 Z" id="Shape" fill="#64645A"/>
          <path d="M41.505,43.4134744 C41.505,43.4134744 21.3,54.6674833 15.234,63.1162584 C13.461,65.5817372 8.856,73.2998886 8.856,73.2998886 L22.917,81.3247216 C23.4292656,80.3563143 24.0824129,79.4696629 24.855,78.6938753 C26.247,77.2356347 27.336,76.27049 27.336,76.27049 C27.336,76.27049 36.243,60.9664811 36.636,59.9021158 C36.837,59.3849666 41.733,43.9576837 41.505,43.4134744 Z" id="Shape" fill="#3C3C32"/>
          <path d="M78.162,76.6342984 C80.118,74.6899777 82.077,72.7476615 84.039,70.8073497 C81.6,67.018931 79.239,63.3778396 79.239,63.3778396 L67.131,50.5783964 L56.514,43.8734967 C56.514,43.8734967 65.904,73.57049 66.3,75.6240535 C68.616,78.0654788 70.725,80.1340757 72.636,82.142539 C74.478,80.298441 76.32,78.4623608 78.162,76.6342984 Z" id="Shape" fill="#3C3C32"/>
          <path d="M95.058,98.1681514 L82.395,98.1681514 C83.961,102.777394 86.895,112.239421 86.454,116.599109 C85.62,125.102004 80.97,134.774499 81.654,134.939866 C82.791,135.192428 88.488,129.380512 89.535,127.155568 C90.8136643,124.478264 91.9033394,121.714352 92.796,118.884187 C93.6517545,116.271092 94.272234,113.586421 94.65,110.862361 C94.95,108.378842 95.778,103.390757 95.379,100.901225 C95.3337493,99.983977 95.2265034,99.0708588 95.058,98.1681514 Z" id="Shape" fill="#64645A"/>
          <path d="M82.395,98.1681514 C82.395,98.1681514 95.262,99.1964365 95.25,99.1513363 C93.69,93.5528953 89.451,79.3072383 89.358,79.168931 C89.358,79.0787305 83.829,68.4952116 83.829,68.4952116 C83.829,68.4952116 76.416,78.3691537 72.639,82.142539 C76.203,85.9309577 79.281,89.8426503 81.534,95.7387528 C81.666,96.0785078 82.041,97.1308463 82.395,98.1681514 Z" id="Shape" fill="#828278"/>
          <path d="M11.121,69.869265 C6.747,77.885078 1.599,88.9556793 0.429,92.7200445 C0.366,93.2642539 0.129,96.6557906 0.129,96.6557906 L16.905,95.453118 C18.201,90.7266147 18.687,89.4848552 20.937,84.6290646 C21.084,84.313363 22.737,81.6223831 22.914,81.3217149 L11.121,69.869265 Z" id="Shape" fill="#828278"/>
          <path d="M41.325,41.3238307 L39.735,48.1069042 C35.5782951,49.5962891 31.6883797,51.7476143 28.215,54.4780624 C22.983,58.5942094 15.972,66.6461024 14.298,69.255902 C9.396,76.8898664 7.44,82.6085746 6.498,84.9928731 C5.75671707,87.0022958 5.15527616,89.060791 4.698,91.1535635 C4.42300529,92.3151176 4.22259429,93.4931459 4.098,94.6804009 C3.999,95.6064588 4.14,96.7399777 3.714,97.5908686 C3.138,96.926392 2.97,95.8830735 2.784,95.0351893 C1.782,94.3767261 1.923,98.342539 1.923,98.7875278 C1.413,98.086971 1.347,97.0767261 1.179,96.2378619 L0.903,96.1085746 C0.465,96.5385301 0.651,97.1639198 0.402,97.6359688 C-0.123,97.5337416 0.039,94.4969933 0.069,93.9076837 C0.111,93.0387528 1.143,86.0512249 3.393,79.7762806 C5.493,73.9523385 8.697,68.9311804 11.244,65.4434298 C14.661,60.7650334 20.844,54.0721604 29.064,47.8693764 C34.074,44.0959911 41.325,41.3238307 41.325,41.3238307 Z" id="Shape" fill="#C8C8BE"/>
          <path d="M55.629,42.0664811 C55.629,42.0664811 67.062,47.7491091 71.445,51.8863029 C76.056,56.236971 81.786,61.4385301 85.179,66.8024499 C88.479,72.0070156 93.471,80.8917595 95.679,94.4849666 C95.898,95.8379733 95.895,101.439421 95.43,101.427394 C94.965,101.415367 95.076,98.0749443 94.629,98.0749443 C94.182,98.0749443 94.029,101.475501 93.429,101.418374 C93.129,101.391314 93.294,100.426169 93.303,99.6985523 C93.303,98.8987751 93.198,98.3184855 93.198,98.077951 L92.937,97.8554566 C92.37,98.002784 91.692,100.528396 91.479,100.519376 C91.266,100.510356 91.698,94.7044543 91.479,92.7320713 C90.63,85.0199332 87.828,78.9765033 84.018,72.6173719 C81.648,68.6635857 78.729,65.3171492 75.564,61.9827394 C74.076,60.4342984 72.48,58.9550111 70.962,57.4276169 C65.64,52.0727171 57.402,48.9698218 57.402,48.9698218 L55.575,42.1927617 L55.629,42.0664811 Z" id="Shape" fill="#C8C8BE"/>
          <path d="M46.2,24.1857461 C44.538,28.9302895 27.348,76.27049 27.348,76.27049 C27.348,76.27049 33.648,82.7859688 34.761,83.5256125 C38.8532104,86.2981989 43.7104427,87.7137088 48.648,87.5726058 C53.583,87.4884187 59.538,84.2412027 63.159,80.7594655 C64.908,79.0787305 66.426,75.7202673 66.426,75.7202673 L51.39,22.8808463 L46.2,24.1857461 Z" id="Shape" fill="#828278"/>
          <path d="M48.651,0.177394209 L48.072,0.177394209 C47.544,0.375835189 43.365,15.9985523 43.257,17.2703786 C42.507,26.1821826 44.991,53.5159243 45.441,57.2291759 C45.477,57.5148107 46.167,58.4739421 46.386,58.6814031 C46.614,58.7565702 47.547,59.5834076 48.42,59.5834076 C49.293,59.5834076 50.109,58.7685969 50.337,58.6814031 C50.556,58.4739421 51.237,57.5148107 51.282,57.2291759 C51.735,53.4948775 54.06,25.5597996 53.382,17.0087973 C53.292,15.8452116 49.179,0.375835189 48.651,0.177394209 Z" id="Shape" fill="#64645A"/>
          <path d="M48.258,27.886971 C47.178,27.8388641 47.112,33.3170379 47.085,33.8281737 C46.902,37.4091314 47.505,48.3955457 47.616,49.8898664 C47.6670986,50.0931741 47.7437094,50.2891688 47.844,50.4731626 C47.901,50.5032294 48.126,50.8309577 48.339,50.8309577 C48.552,50.8309577 48.747,50.5032294 48.804,50.4731626 C48.9042906,50.2891688 48.9809014,50.0931741 49.032,49.8898664 C49.143,48.3865256 49.707,37.1595768 49.545,33.7229399 C49.521,33.2538976 49.335,27.935078 48.258,27.886971 Z" id="Shape" fill="#828278"/>
          <path d="M54.741,27.5502227 C55.02,27.2194878 55.311,27.066147 55.692,27.2495546 C56.148,27.9861915 56.052,28.5514477 55.35,29.1557906 C54.804,28.7979955 54.672,28.1906459 54.741,27.5502227 Z" id="Shape" fill="#000000"/>
          <path d="M41.127,27.5502227 C41.403,27.2194878 41.697,27.066147 42.075,27.2495546 C42.531,27.9861915 42.435,28.5514477 41.733,29.1557906 C41.187,28.7979955 41.058,28.1906459 41.127,27.5502227 Z" id="Shape" fill="#000000"/>
          <path d="M49.047,55.3830735 C49.2441157,55.2096605 49.518498,55.1546618 49.767,55.2387528 C50.112,55.5935412 50.04,55.8671492 49.506,56.1587973 C49.174532,56.0597983 48.9746883,55.7220565 49.047,55.3830735 Z" id="Shape" fill="#000000"/>
          <path d="M46.755,55.4191537 C46.9532584,55.2479199 47.2269406,55.1942044 47.475,55.2778396 C47.823,55.6326281 47.748,55.9062361 47.217,56.1978842 C46.8838933,56.0988326 46.6827379,55.7597722 46.755,55.4191537 Z" id="Shape" fill="#000000"/>
        </g>
      </g>
    </g>
  </g>
</svg>