<svg version="1.1" width="128" height="136" viewBox="-1 -1 128 136" xmlns="http://www.w3.org/2000/svg" xmlns:xlink="http://www.w3.org/1999/xlink">
  <!-- Exported by Scratch - http://scratch.mit.edu/ -->
  <g id="ID0.07999758049845695">
    <g id="dinosaurs">
      <g id="triceratops-d">
        <g id="scratch_dinos02d">
          <path id="Shape" fill="#BE0A3C" stroke="none" stroke-width="1" d="M 26.526 93.284 C 24.037 92.683 21.608 91.867 19.269 90.847 C 15.182 87.556 11.439 84.432 8.534 80.015 C 5.794 75.845 3.445 71.705 1.825 67 L 1.680 67 C -0.779 71.648 0.075 78.192 0.466 83.238 C 0.858 88.166 1.801 93.243 3.649 97.872 C 7.172 106.686 18.200 113.670 27 111.649 L 26.526 93.284 Z "/>
          <path id="Shape" fill="#BE0A3C" stroke="none" stroke-width="1" d="M 74 132.345 L 73.824 133 C 70.265 132.802 64.389 132.705 61.418 132.760 C 59.237 132.798 58.227 129.100 58.227 129.100 L 49 104 L 63.391 104.504 C 63.391 104.504 70.704 124.645 74 132.345 Z "/>
          <path id="Shape" fill="#F01446" stroke="none" stroke-width="1" d="M 22 104.391 C 23.338 109.521 28.374 119.255 29.257 121.382 C 30.072 123.336 31.088 125.090 32.029 126.970 C 32.692 128.296 36.029 133.394 36.867 133.614 C 38.258 133.976 46.990 134.331 49 133.444 C 48.014 125.641 42.069 110.862 41.265 103 L 22 104.391 Z "/>
          <path id="Shape" fill="#BE0A3C" stroke="none" stroke-width="1" d="M 111.734 87.980 C 111.078 84.969 108.922 81.451 105.875 80.100 C 101.738 78.277 88.066 76.737 81 77.038 L 81.887 90.575 C 88.953 89.463 100.074 87.436 101.094 92.505 C 101.265 97.050 97.355 99.764 97.355 99.764 C 97.355 99.764 101.543 104.969 103.734 107 C 108.804 103.208 113.132 94.382 111.734 87.980 Z "/>
          <path id="Shape" fill="#F01446" stroke="none" stroke-width="1" d="M 87.033 53.136 C 82.850 50.767 74.710 45.280 66.657 46.079 C 66.657 46.079 51.424 48.885 46.664 49.391 C 37.908 50.322 34.394 53.760 34.394 53.760 C 32.195 54.570 27.963 58.988 26.586 60.741 C 25.098 62.629 23.737 64.613 22.514 66.681 C 19.784 71.278 17.303 76.187 17.039 81.629 C 16.790 86.724 17.762 92.048 19.146 96.942 C 19.910 99.725 20.644 102.562 21.650 105.277 C 21.883 105.908 23.787 109.273 25.971 113 L 43.827 109.696 C 43.822 109.674 43.816 109.652 43.808 109.631 C 53.290 108.026 68.707 104.619 76.881 103.106 C 85.056 101.592 89.881 91.618 91.200 86.572 C 91.021 86.393 93.388 79.511 93.992 76.028 C 94.424 73.537 94.867 69.316 94.867 69.316 C 94.867 69.316 96.664 58.585 87.033 53.136 Z "/>
          <path id="Shape" fill="#F01446" stroke="none" stroke-width="1" d="M 94.430 101.858 C 93.383 98.936 89.461 94.671 86.350 93.753 C 82.146 92.511 68.882 92.906 62.181 94.202 L 62 106.424 C 68.588 105.928 81.822 101.920 83.494 106.842 C 84.286 111.368 79.550 114.188 79.550 114.188 C 79.550 114.188 85.250 120.285 87.623 122 C 91.970 117.504 96.649 108.080 94.430 101.858 Z "/>
          <path id="Shape" fill="#BE0A3C" stroke="none" stroke-width="1" d="M 48.404 14 C 45.401 12.529 41.361 4.677 46.361 4 C 49.238 4.886 53.891 6.772 56 9.189 C 53.883 10.555 50.602 12.811 48.404 14 Z "/>
          <path id="Shape" fill="#A0640A" stroke="none" stroke-width="1" d="M 33 29.851 C 32.169 31.857 31.757 33.958 30.918 36 C 28.745 34.797 21.360 31.752 23.331 28.279 C 25.041 25.271 31.045 28.311 33 29.851 Z "/>
          <path id="Shape" fill="#BE0A3C" stroke="none" stroke-width="1" d="M 43 18.135 C 41.618 19.801 40.190 22.447 38.679 24 C 36.109 23.141 29.392 16.498 33.084 14.320 C 35.269 13.013 41.990 15.998 43 18.135 Z "/>
          <path id="Shape" fill="#BE0A3C" stroke="none" stroke-width="1" d="M 69 5.882 C 66.568 6.249 63.507 7.520 61.110 8 C 58.642 6.753 56.052 -0.230 60.142 0.006 C 62.639 0.126 67.428 3.891 69 5.882 Z "/>
          <path id="Shape" fill="#A0640A" stroke="none" stroke-width="1" d="M 32 63 C 29.715 62.739 18.921 59.390 22.854 55.542 C 23.964 54.457 29.641 55.126 30.561 56.441 C 31.072 57.181 31.675 61.844 32 63 Z "/>
          <path id="Shape" fill="#BE0A3C" stroke="none" stroke-width="1" d="M 28.595 50 C 26.358 49.088 19.865 46.572 20.002 43.318 C 20.163 39.492 27.251 41.336 29 42.302 C 28.504 44.833 28.368 47.427 28.595 50 Z "/>
          <path id="Shape" fill="#E6781E" stroke="none" stroke-width="1" d="M 102.027 26 C 99.889 23.951 97.086 21.025 95 19.015 C 95.811 16.524 98.610 2.788 98.998 0.157 C 101.235 -1.376 102.540 8.814 102.665 9.877 C 103.110 13.591 103.295 22.391 102.027 26 Z "/>
          <path id="Shape" fill="#C8C8BE" stroke="none" stroke-width="1" d="M 120.319 47.395 C 118.147 43.531 112.825 36.319 112.825 36.319 L 108.639 35 L 85 41.336 L 94.965 69 C 94.965 69 124.127 61.632 126 60.290 C 125.413 55.792 122.510 51.290 120.319 47.395 Z "/>
          <path id="Shape" fill="#F04650" stroke="none" stroke-width="1" d="M 94.715 14.911 C 91.871 12.633 88.811 10.639 85.579 8.957 C 82.183 7.195 78.540 5.958 74.775 5.288 C 73.376 5.018 71.947 4.937 70.526 5.048 C 69.293 5.181 66.468 5.139 65.398 5.882 C 61.325 6.164 57.213 8.012 53.498 9.608 C 50.941 10.680 48.525 12.060 46.303 13.719 C 45.043 14.667 41.483 17.970 41.160 18.290 C 37.296 22.142 31.585 31.540 31.262 32.214 C 28.875 37.167 27.310 43.571 28.304 48.634 C 28.508 53.281 29.645 57.840 31.646 62.040 C 32.613 65.426 35.742 68.166 38.628 69.929 C 41.693 71.808 45.598 73.945 49.314 72.718 C 53.372 71.377 51.442 67.712 52.504 64.764 C 53.483 62.032 56.193 59.194 59.300 60.489 C 65.554 63.099 66.023 74.337 73.636 74.966 C 77.188 75.255 81.227 73.640 84.631 72.790 C 88.034 71.941 95.016 69.994 95.016 69.994 C 95.016 69.994 95.469 58.009 96.432 52.169 C 97.106 48.066 98.469 44.706 100.970 42.028 C 102.530 40.491 104.362 39.257 106.372 38.390 C 108.508 37.545 110.731 36.941 113 36.588 C 113 36.588 107.731 28.588 102.341 22.187 C 99.508 18.812 95.218 15.311 94.715 14.911 Z "/>
          <path id="Shape" fill="#F01446" stroke="none" stroke-width="1" d="M 75.160 16.192 C 75.160 16.192 80.463 20.719 85.008 24.027 C 86.216 24.906 89.030 26.704 91.359 26.955 C 94.431 27.287 96.862 25.733 95.707 23.772 C 94.317 21.424 87.291 16.687 82.970 13.914 C 82.394 13.544 80.959 12.503 79.561 12.226 C 76.092 11.532 71.937 12.322 75.160 16.192 Z "/>
          <path id="Shape" fill="#000000" stroke="none" stroke-width="1" d="M 74.135 50.527 C 73.691 50.831 70 52.566 70 52.566 L 70.528 53 L 75 50.907 L 75 50.401 C 74.632 50.294 73.274 48.908 71.513 48.114 C 71.300 47.962 70.998 47.962 70.785 48.114 C 70.892 48.465 73.758 50.227 74.135 50.527 Z "/>
          <path id="Shape" fill="#000000" stroke="none" stroke-width="1" d="M 116.865 38.527 C 117.309 38.831 121 40.569 121 40.569 L 120.472 41 L 116 38.906 L 116 38.404 C 116.373 38.294 117.726 36.907 119.487 36.113 C 119.700 35.962 120.002 35.962 120.215 36.113 C 120.122 36.468 117.260 38.230 116.865 38.527 Z "/>
          <path id="Shape" fill="#FFC800" stroke="none" stroke-width="1" d="M 102.499 37 C 100.550 36.890 99.688 33.444 100.101 31.879 C 100.690 29.657 102.460 27.427 103.478 25.353 C 104.414 23.463 105.284 20.557 106.785 19 C 108.512 21.347 109.164 24.321 109.515 27.129 C 109.807 29.396 110.443 33.285 109.515 34.494 C 108.900 35.157 108.137 35.674 107.284 36.006 C 105.748 36.592 104.121 36.922 102.472 36.981 "/>
          <path id="Shape" fill="#FFC800" stroke="none" stroke-width="1" d="M 71 40.087 C 71 40.087 60.584 43.548 60.193 41.159 C 59.652 37.849 60.386 33.705 60.722 30.399 C 61.094 26.677 62.566 10.771 64.340 10 C 65.611 10.383 71 40.087 71 40.087 Z "/>
          <path id="Shape" fill="#000000" stroke="none" stroke-width="1" d="M 119.726 54.803 C 119.838 55.578 120.385 57.164 119.522 58.391 C 118.658 59.617 116.387 60.480 113.119 61.167 C 110.822 61.647 107.569 62.225 105.972 61.911 C 103.028 61.351 102.589 59.187 102.090 57.591 C 101.319 55.124 105.611 52.400 111.169 51.248 C 116.726 50.095 119.510 53.253 119.726 54.803 Z "/>
          <path id="Shape" fill="#828278" stroke="none" stroke-width="1" d="M 113.061 44.518 L 113.731 44 C 114.524 44.456 115.769 46.482 114.361 46.938 C 112.953 47.394 112.906 45.190 113.061 44.518 Z "/>
          <path id="Shape" fill="#828278" stroke="none" stroke-width="1" d="M 104.052 46.518 L 104.724 46 C 105.520 46.453 106.774 48.482 105.357 48.938 C 103.940 49.395 103.920 47.188 104.052 46.518 Z "/>
        </g>
      </g>
    </g>
  </g>
</svg>