<svg version="1.1" width="105" height="136" viewBox="-1 -1 105 136" xmlns="http://www.w3.org/2000/svg" xmlns:xlink="http://www.w3.org/1999/xlink">
  <!-- Exported by Scratch - http://scratch.mit.edu/ -->
  <g id="space" transform="matrix(1, 0, 0, 1, -20, -10)">
    <g id="dotory-a">
      <g id="dotory-walk-1">
        <path id="Shape" fill="#FFFFFF" stroke="none" stroke-width="1" d="M 60.410 88.600 L 50.307 88.000 L 34.218 82.125 L 25.502 73.200 L 21.255 58.106 L 27.382 43.575 L 37.257 34.800 L 47.617 31.100 L 58.891 29.500 L 70.557 30.400 L 82.782 33.600 L 95.034 39.500 L 100.812 47.500 L 101.809 52.100 L 102.805 60.478 L 101.211 68.800 L 97.027 76.900 L 91.548 82.100 L 82.483 87.200 L 69.234 89.800 L 60.410 88.600 " transform="matrix(1, 0, 0, 1, 20, 10)"/>
        <path id="Shape" fill="#EF463C" stroke="none" stroke-width="1" d="M 59.695 1.125 L 54.989 2.025 L 50.431 5.325 L 49.534 9.375 L 52.995 14.700 L 58.891 15.975 L 65 13.275 L 65.822 7.125 L 62.908 2.625 L 59.695 1.125 " transform="matrix(1, 0, 0, 1, 20, 10)"/>
        <path id="Shape" fill="#FCB322" stroke="none" stroke-width="1" d="M 92.943 47.550 C 92.420 47.625 78.523 50.700 78.523 50.700 L 67.914 48.750 L 52.995 50.025 L 48.787 51.600 L 28.989 51.600 L 28.989 60.900 L 29.362 66.276 L 32.201 72.450 C 32.201 72.450 34.368 74.475 34.592 74.550 C 34.816 74.625 37.879 72.075 37.879 72.075 L 40.345 69.300 L 41.615 72.525 L 43.034 77.250 L 48.339 84.225 L 54.017 87.600 L 52.032 90.150 L 41.540 91.050 L 31.977 91.050 L 23.983 87.750 L 17.557 89.800 L 14.494 87.675 L 10.908 81.825 L 6.874 75.600 L 4.333 74.025 L 1.793 74.925 L 1.121 77.250 L 1.868 82.350 L 5.678 89.100 L 10.684 94.200 L 13.598 95.850 L 12.701 114.225 L 13.971 122.175 C 13.971 122.175 16.362 129.600 16.511 129.825 C 16.661 130.050 19.052 132.375 19.052 132.375 L 25.776 133.125 L 31.828 130.425 L 35.414 130.200 L 39.224 127.650 L 39.598 123.825 L 38.626 115.650 L 37.805 113.625 L 41.989 113.550 L 51.477 111.900 L 56.259 110.325 L 58.891 123.975 L 61.929 128.700 L 66.270 130.125 L 72.994 129 L 76.057 126.375 L 78.897 126.450 L 82.408 125.175 L 83.080 121.575 L 81.885 116.925 L 80.241 110.025 L 78.374 103.800 L 76.207 98.625 L 76.730 93.600 L 77.925 88.275 L 74.787 88.500 L 76.506 86.250 C 76.506 86.250 83.454 81.900 83.603 81.675 C 83.753 81.450 87.862 73.725 87.862 73.725 L 88.759 68.100 L 92.943 71.025 L 97.799 70.125 L 97.799 61.950 L 95.259 50.550 L 92.943 47.550 Z " transform="matrix(1, 0, 0, 1, 20, 10)"/>
        <path id="Shape" fill="#71CBD2" stroke="none" stroke-width="1" d="M 42.287 77.400 L 35.115 77.400 L 25.328 76.800 L 23.983 80.100 C 23.983 80.100 24.057 85.800 23.983 86.100 C 23.908 86.400 25.178 89.025 25.178 89.025 L 33.845 91.275 L 33.770 93 L 32.799 98.625 L 32.799 104.775 L 34.443 111 L 35.862 112.800 L 41.017 113.775 L 48.937 112.425 L 46.172 107.625 L 44.828 103.425 L 44.753 98.250 L 46.994 91.125 L 54.167 88.350 L 49.460 84.525 C 49.460 84.525 45.799 81.675 45.649 81.450 C 45.500 81.225 44.230 78.150 44.230 78.150 L 42.287 77.400 Z " transform="matrix(1, 0, 0, 1, 20, 10)"/>
        <path id="Shape" fill="#2A3D98" stroke="none" stroke-width="1" d="M 25.593 75.181 C 24.744 73.954 23.736 72.919 23.236 71.679 C 22.388 69.574 21.762 67.363 21.216 65.153 C 19.897 59.821 20.823 54.740 23.161 49.862 C 24.760 46.524 26.463 43.222 29.046 40.538 C 30.754 38.765 32.678 37.191 34.577 35.617 C 39.187 31.796 44.678 30.223 50.475 29.432 C 53.660 28.998 56.832 28.460 60.281 27.928 C 59.835 24.367 59.379 20.728 58.919 17.051 C 57.960 16.914 57.139 16.727 56.313 16.692 C 52.782 16.539 50.902 14.289 49.394 11.429 C 46.976 6.845 50.689 1.896 54.868 0.742 C 56.820 0.203 58.722 0.143 60.680 0.566 C 63.309 1.132 64.931 2.918 65.879 5.241 C 66.469 6.688 66.643 8.330 66.848 9.905 C 67.165 12.337 65.582 14.693 63.243 15.481 C 62.648 15.680 62.053 15.880 61.342 16.118 C 61.627 20.104 61.910 24.086 62.197 28.099 C 64.372 28.297 66.565 28.407 68.731 28.715 C 72.573 29.261 76.401 29.826 80.122 31.071 C 84.500 32.536 88.699 34.378 92.706 36.633 C 94.115 37.426 95.272 38.678 96.521 39.746 C 98.925 41.804 101.169 45.224 102.212 48.229 C 102.462 48.949 102.637 49.672 102.878 50.375 C 104.398 54.807 103.738 59.762 103.117 64.368 C 102.674 67.660 101.524 70.640 100.122 73.524 C 99.241 75.337 97.908 76.988 96.529 78.483 C 93.337 81.943 89.748 84.955 85.440 86.946 C 83.438 87.872 81.371 88.699 79.261 89.324 C 78.371 89.588 78.479 90.134 78.373 90.649 C 77.919 92.847 77.522 95.057 77.107 97.264 C 77.062 97.502 76.945 97.780 77.020 97.979 C 77.570 99.433 78.222 100.847 78.723 102.316 C 79.586 104.852 80.454 107.393 81.154 109.976 C 82.161 113.692 83.168 117.419 83.864 121.199 C 84.131 122.650 83.701 124.301 83.305 125.785 C 82.893 127.330 81.243 127.342 80.032 127.723 C 79.210 127.981 78.238 127.738 77.336 127.779 C 76.950 127.797 76.391 127.838 76.215 128.086 C 74.102 131.062 71.077 131.772 67.701 131.632 C 66.670 131.590 65.617 131.575 64.619 131.347 C 62.190 130.793 60.297 129.527 59.061 127.220 C 57.305 123.946 56.977 120.275 55.945 116.803 C 55.529 115.399 55.341 113.927 55.000 112.240 C 54.208 112.428 53.390 112.582 52.597 112.819 C 48.350 114.089 44.047 114.953 39.390 114.625 C 39.390 115.403 39.201 116.189 39.423 116.833 C 40.408 119.687 40.755 122.634 40.832 125.618 C 40.850 126.337 40.653 127.127 40.338 127.777 C 38.623 131.314 35.843 132.346 32.629 131.307 C 32.390 131.230 31.976 131.397 31.765 131.587 C 29.287 133.816 26.432 134.774 23.096 134.471 C 21.590 134.335 20.163 134.174 18.783 133.445 C 15.483 131.701 14.209 128.740 13.610 125.294 C 13.421 124.207 13.145 123.131 12.836 122.071 C 11.802 118.526 11.488 114.871 11.200 111.218 C 11.034 109.100 10.876 106.954 11.031 104.843 C 11.215 102.317 11.672 99.805 12.152 97.313 C 12.300 96.544 12.210 96.063 11.577 95.743 C 7.960 93.910 5.804 90.706 3.680 87.436 C 1.812 84.558 0.796 81.473 0.323 78.053 C 0.084 76.331 0.491 75.178 1.405 73.959 C 2.700 72.231 4.172 72.100 5.946 73.322 C 7.841 74.627 8.847 76.531 9.765 78.509 C 10.898 80.950 12.259 83.303 13.923 85.420 C 14.742 86.460 15.633 87.521 16.653 88.370 C 17.802 89.330 18.279 88.725 19.506 88.109 C 20.172 87.774 21.932 87.392 22.506 86.796 C 23.165 86.112 22.525 85.193 22.413 84.409 C 22.285 83.516 22.330 82.485 22.419 81.586 C 22.621 79.541 23.400 77.609 24.647 75.981 C 24.866 75.694 25.206 75.502 25.593 75.181 Z M 76.344 87.424 C 76.796 87.680 76.871 87.760 76.933 87.751 C 77.265 87.705 77.600 87.661 77.923 87.574 C 82.898 86.231 87.435 84.032 91.238 80.495 C 92.987 78.869 94.810 77.255 96.232 75.358 C 98.610 72.184 100.151 68.624 100.900 64.619 C 101.760 60.023 101.609 55.589 100.190 51.198 C 99.548 49.214 98.762 47.236 97.736 45.430 C 96.821 43.820 95.738 42.103 94.288 41.039 C 88.844 37.049 82.896 34.056 76.276 32.415 C 70.865 31.075 65.396 30.233 59.872 30.657 C 54.696 31.055 49.507 31.569 44.480 33.212 C 40.827 34.406 37.554 36.113 34.589 38.515 C 29.462 42.668 25.787 47.869 23.955 54.198 C 23.261 56.596 23.173 59.251 23.263 61.773 C 23.337 63.860 24.037 65.933 24.542 67.991 C 24.824 69.145 25.042 70.413 25.684 71.361 C 28.059 74.872 30.479 78.377 34.349 80.485 C 36.007 81.388 37.554 82.519 39.266 83.291 C 41.548 84.320 43.918 85.174 46.297 85.962 C 47.768 86.449 49.325 86.674 51.088 87.070 C 50.840 86.737 50.805 86.635 50.742 86.612 C 47.051 85.282 44.628 82.643 42.996 79.151 C 42.859 78.858 42.378 78.558 42.051 78.552 C 40.428 78.521 38.732 78.361 37.126 78.611 C 36.199 78.755 34.925 79.216 34.291 78.176 C 33.198 76.385 35.669 76.586 36.563 76.576 C 38.210 76.558 39.891 76.363 41.537 76.258 C 41.036 74.496 40.589 72.926 40.078 71.131 C 39.191 72.092 38.542 72.919 37.766 73.601 C 36.912 74.351 36.180 75.364 34.797 75.233 C 33.178 75.081 31.791 74.560 31.005 73.032 C 30.549 72.145 30.171 71.216 29.796 70.291 C 28.723 67.648 27.795 64.956 27.794 62.060 C 27.794 59.208 27.809 56.352 27.957 53.506 C 28.084 51.091 28.801 50.445 31.275 50.356 C 33.641 50.271 36.016 50.236 38.381 50.321 C 41.652 50.437 44.917 50.698 48.185 50.867 C 48.688 50.893 49.301 50.925 49.687 50.678 C 52.577 48.830 55.767 47.880 59.119 47.500 C 63.175 47.040 67.246 47.150 71.199 48.204 C 72.926 48.665 74.957 49.942 76.707 49.645 C 78.842 49.281 81.089 48.973 83.181 48.406 C 84.529 48.040 85.923 47.871 87.287 47.524 C 89.218 47.033 91.876 46.482 93.861 46.900 C 95.332 47.210 96.219 49.253 96.812 50.597 C 98.136 53.596 98.607 56.857 98.752 60.109 C 98.893 63.268 99.203 66.220 98.835 69.368 C 98.651 70.933 97.201 72.122 95.638 72.152 C 93.681 72.191 91.808 71.747 90.078 70.510 C 89.121 79.070 84.204 84.334 76.344 87.424 Z M 62.904 49.622 C 60.158 49.748 57.398 50.385 54.733 50.979 C 52.296 51.523 50.432 53.137 48.605 54.702 C 47.798 55.394 47.130 56.376 46.699 57.359 C 45.322 60.495 43.990 63.658 42.847 66.886 C 42.421 68.092 42.271 69.557 42.506 70.808 C 43.162 74.295 44.685 77.489 46.605 80.446 C 47.384 81.647 48.407 82.862 49.610 83.571 C 51.458 84.658 53.546 85.343 55.555 86.142 C 56.604 86.558 57.679 87.028 58.781 87.169 C 62.773 87.680 66.802 87.847 70.768 87.087 C 75.117 86.254 79.010 84.274 82.460 81.510 C 84.832 79.610 86.121 76.993 86.890 74.065 C 87.940 70.073 87.444 66.796 85.845 63.101 C 84.744 60.557 82.843 57.671 80.581 56.050 C 79.597 55.345 78.730 54.461 77.705 53.825 C 75.963 52.744 74.245 51.379 72.325 50.888 C 69.464 50.156 66.800 49.600 63.854 49.600 C 63.539 49.600 63.221 49.608 62.904 49.622 Z M 54.844 109.600 C 54.849 109.629 54.785 109.351 54.757 109.069 C 54.678 108.257 53.467 103.805 55.290 104.196 C 56.607 104.480 56.700 107.927 56.838 108.835 C 56.969 109.705 57.317 110.560 57.340 111.428 C 57.450 115.505 58.458 119.404 59.656 123.253 C 60.467 125.859 61.489 128.431 64.620 129.050 C 66.544 129.431 68.445 129.580 70.428 128.995 C 73.949 127.957 75.469 125.758 74.829 122.106 C 74.380 119.543 73.965 116.974 73.426 114.430 C 73.089 112.837 72.697 111.257 72.320 109.673 C 72.098 108.739 71.564 107.161 71.729 106.220 C 71.482 106.741 70.509 107.473 69.946 106.790 C 68.647 105.214 71.940 103.222 72.507 102.148 C 73.321 100.607 74.107 99.004 74.569 97.333 C 75.224 94.970 75.577 92.521 76.054 90.130 C 74.374 90.397 72.938 90.676 71.489 90.844 C 70.014 91.015 68.529 91.123 67.044 91.172 C 66.017 91.206 64.977 91.153 63.955 91.034 C 62.386 90.849 60.817 90.332 59.265 90.393 C 56.797 90.489 54.341 90.935 51.882 91.254 C 51.246 91.337 50.612 91.470 49.988 91.624 C 49.078 91.847 47.958 91.864 47.337 92.425 C 46.628 93.067 46.327 94.661 46.004 95.556 C 45.597 96.682 45.581 97.948 45.498 99.142 C 45.220 103.142 46.114 106.120 48.347 109.437 C 48.760 110.052 49.246 110.619 49.634 111.125 C 51.316 110.633 52.978 110.147 54.844 109.600 Z M 20.334 89.801 C 20.052 89.968 19.779 90.157 19.475 90.380 C 17.429 91.884 15.143 94.779 14.391 97.258 C 13.359 100.663 12.935 104.293 13.140 107.900 C 13.293 110.599 13.834 113.278 13.929 115.976 C 14.078 120.172 15.542 124.029 16.738 127.946 C 17.315 129.839 18.670 131.380 20.672 131.884 C 24.479 132.844 27.953 132.340 30.372 128.825 C 30.859 128.117 31.298 127.144 31.238 126.332 C 31.063 123.968 30.618 121.622 30.291 119.269 C 29.982 117.042 29.700 114.811 29.362 112.589 C 29.330 112.380 29.014 112.135 28.779 112.051 C 27.839 111.713 26.851 111.499 25.938 111.103 C 25.495 110.911 25.028 110.480 24.860 110.044 C 24.748 109.753 25.080 109.213 25.341 108.888 C 26.306 107.687 30.729 110.544 31.923 110.921 C 34.443 111.718 33.578 110.173 32.959 108.523 C 32.163 106.400 31.834 103.737 31.930 101.482 C 32.045 98.764 31.454 95.947 32.620 93.305 C 32.733 93.047 32.774 92.697 32.698 92.434 C 32.626 92.185 32.382 91.838 32.168 91.801 C 29.547 91.355 26.979 90.998 24.669 89.501 C 23.096 88.481 22.009 88.814 20.334 89.801 Z M 29.634 60.465 C 29.687 64.517 31.074 68.152 32.888 71.652 C 33.472 72.781 34.377 73.009 35.397 72.291 C 39.846 69.164 41.058 64.411 42.783 59.482 C 43.332 57.914 43.789 56.299 44.520 54.803 C 45.025 53.770 45.871 52.571 44.188 52.325 C 40.194 51.741 36.206 52.012 32.219 52.342 C 31.005 52.442 30.147 53.032 30.046 54.358 C 29.892 56.393 29.770 58.429 29.634 60.465 Z M 80.564 52.292 C 81.396 53.045 82.074 53.788 82.874 54.359 C 85.993 56.588 87.498 59.875 88.501 63.362 C 89.180 65.726 89.818 67.889 92.133 69.213 C 94.019 70.291 96.214 69.763 96.535 67.754 C 96.981 64.972 96.898 62.134 96.247 59.394 C 95.841 57.689 95.858 55.880 95.308 54.164 C 94.868 52.787 94.261 50.647 92.962 49.795 C 91.115 48.584 87.630 50.002 85.684 50.300 C 83.883 50.578 82.176 51.040 80.564 52.292 Z M 57.710 14.947 C 58.920 14.591 60.919 14.021 62.903 13.400 C 63.193 13.309 63.442 13.002 63.653 12.747 C 65.035 11.077 64.949 6.910 63.514 4.970 C 61.665 2.471 59.135 2.222 56.336 2.702 C 53.647 3.164 51.743 4.744 50.865 7.182 C 49.616 10.644 53.139 15.034 57.710 14.947 Z M 50.286 89.309 C 47.410 88.370 44.580 87.520 41.803 86.520 C 38.162 85.209 34.650 83.593 31.504 81.301 C 30.084 80.266 28.767 79.090 27.422 77.955 C 27.115 77.696 26.888 77.341 26.625 77.029 C 26.305 77.402 25.905 77.732 25.680 78.157 C 24.643 80.116 24.646 82.228 24.677 84.395 C 24.707 86.468 25.809 87.923 27.387 88.588 C 29.299 89.395 31.480 89.783 33.568 89.891 C 36.977 90.065 40.406 89.917 43.825 89.804 C 45.986 89.734 48.141 89.479 50.286 89.309 Z M 16.093 90.647 C 15.824 90.411 15.500 90.200 15.270 89.912 C 13.836 88.118 12.341 86.366 11.031 84.484 C 10.083 83.121 9.265 81.634 8.619 80.104 C 7.883 78.360 7.021 76.733 5.667 75.417 C 4.751 74.526 3.527 74.736 3.038 75.911 C 2.709 76.700 2.428 77.629 2.516 78.454 C 2.973 82.795 5.002 86.513 7.666 89.816 C 9.132 91.633 11.120 93.028 12.907 94.644 C 14.031 93.235 15.033 91.976 16.093 90.647 Z M 75.853 101.416 C 75.742 101.416 75.631 101.416 75.520 101.415 C 75.086 102.515 74.506 103.585 74.267 104.728 C 74.103 105.513 74.389 106.402 74.515 107.238 C 74.861 109.543 75.194 111.850 75.600 114.144 C 75.979 116.289 76.528 118.406 76.843 120.559 C 77.042 121.918 76.919 123.322 77.014 124.699 C 77.032 124.952 77.372 125.325 77.629 125.396 C 79.314 125.858 81.140 124.913 81.366 123.193 C 81.572 121.613 81.566 119.904 81.184 118.369 C 80.255 114.642 79.090 110.972 77.946 107.303 C 77.328 105.316 76.556 103.377 75.853 101.416 Z M 31.875 113.261 C 32.213 116.078 32.605 118.679 32.817 121.296 C 33.011 123.689 32.981 126.101 33.131 128.500 C 33.152 128.851 33.641 129.471 33.877 129.454 C 34.634 129.399 35.515 129.295 36.094 128.866 C 37.748 127.637 38.487 125.833 38.356 123.805 C 38.074 119.449 38.265 115.050 33.237 113.532 C 32.834 113.410 32.408 113.363 31.875 113.261 Z M 45.092 108.124 C 44.998 108.035 44.904 107.965 44.810 107.920 C 43.974 107.520 41.981 108.389 41.055 108.572 C 39.822 108.817 38.608 109.142 37.388 109.445 C 36.510 109.662 35.582 109.582 35.924 110.644 C 36.309 111.844 38.470 112.501 39.568 112.500 C 41.582 112.498 43.676 112.735 45.662 112.290 C 46.859 112.022 46.981 111.804 46.553 110.692 C 46.221 109.831 45.772 108.769 45.092 108.124 Z M 33.832 101.375 C 37.200 100.879 40.276 100.425 43.634 99.931 C 43.634 98.996 43.623 98.008 43.638 97.018 C 43.650 96.241 43.355 96.001 42.550 96.129 C 41.197 96.344 39.824 96.437 38.456 96.558 C 36.946 96.692 35.434 96.801 33.832 96.928 C 33.832 98.363 33.832 99.803 33.832 101.375 Z M 34.425 103.330 C 34.263 103.441 34.141 103.584 34.077 103.769 C 33.850 104.426 34.117 107.087 34.764 107.511 C 35.521 108.004 37.600 107.164 38.363 106.928 C 40.091 106.393 41.872 106.183 43.628 105.740 C 44.504 105.519 44.557 105.660 44.466 104.654 C 44.394 103.851 43.933 103.126 43.921 102.313 C 43.922 102.380 37.779 102.837 37.329 102.880 C 36.485 102.962 35.102 102.866 34.425 103.330 Z M 45.307 92.039 C 42.718 91.681 39.840 91.977 37.220 92.006 C 36.570 92.014 35.570 92.119 35.062 92.599 C 34.543 93.091 34.475 93.946 34.212 94.579 C 36.394 94.615 38.432 94.582 40.639 94.395 C 41.599 94.314 42.632 94.453 43.565 94.159 C 43.969 94.032 44.461 93.839 44.764 93.526 C 44.875 93.412 45.599 92.074 45.351 92.044 C 45.336 92.043 45.321 92.041 45.307 92.039 Z " transform="matrix(1, 0, 0, 1, 20, 10)"/>
        <path id="Shape" fill="#2A3D98" stroke="none" stroke-width="1" d="M 66.994 68.245 C 65.534 70.615 63.266 71.925 60.513 72.067 C 58.065 72.193 56.173 70.841 54.770 68.863 C 54.235 68.107 52.570 66.155 53.097 65.302 C 54.458 63.100 56.579 67.775 57.079 68.332 C 58.529 69.947 60.613 69.920 62.344 68.755 C 63.786 67.786 64.859 66.556 65.200 64.643 C 64.747 64.615 64.313 64.607 63.882 64.558 C 63.062 64.462 62.474 63.944 62.601 63.168 C 62.673 62.731 63.313 62.167 63.785 62.060 C 65.097 61.768 66.453 61.621 67.798 61.561 C 68.173 61.544 68.822 61.970 68.898 62.297 C 69.012 62.785 68.905 63.552 68.575 63.865 C 67.920 64.486 68.039 64.961 68.427 65.601 C 70.365 68.792 75.046 68.592 76.896 65.148 C 77.447 64.124 77.660 62.888 77.873 61.721 C 78.023 60.905 78.139 60.374 79.167 60.494 C 80.246 60.620 80.743 61.376 80.665 62.192 C 80.210 66.922 76.760 71.567 70.927 69.954 C 69.593 69.586 68.359 68.850 66.994 68.245 Z " transform="matrix(1, 0, 0, 1, 20, 10)"/>
        <path id="Shape" fill="#2A3D98" stroke="none" stroke-width="1" d="M 70.939 56.692 C 71.563 56.128 72.793 56.531 73.180 57.362 C 73.703 58.486 72.988 60.019 71.643 59.752 C 70.664 59.557 70.461 58.200 70.594 57.380 C 70.643 57.071 70.768 56.845 70.939 56.692 Z " transform="matrix(1, 0, 0, 1, 20, 10)"/>
        <path id="Shape" fill="#2A3D98" stroke="none" stroke-width="1" d="M 58.891 57.964 C 59.026 57.208 59.311 56.456 60.312 56.428 C 61.071 56.407 62.113 57.733 61.902 58.644 C 61.802 59.076 61.125 59.599 60.651 59.668 C 59.783 59.793 58.874 58.825 58.891 57.964 Z " transform="matrix(1, 0, 0, 1, 20, 10)"/>
      </g>
    </g>
  </g>
</svg>