<svg width="157px" height="122px" viewBox="0 0 157 122" version="1.1" xml:space="preserve" xmlns="http://www.w3.org/2000/svg" xmlns:xlink="http://www.w3.org/1999/xlink">
  <!-- Generator: Sketch 48.2 (47327) - http://www.bohemiancoding.com/sketch -->
  <defs/>
  <g>
    <title>takeout-a</title>
    <desc>Created with Sketch.</desc>
    <g id="food" stroke="none" stroke-width="1" fill="none" fill-rule="evenodd">
      <g id="takeout-a" fill-rule="nonzero">
        <g id="scratch_fridge_takeout03" transform="translate(86.500000, 67.000000) scale(-1, 1) translate(-86.500000, -67.000000) translate(45.000000, 15.000000)">
          <path d="M54.9954808,81.6499617 C55.71375,86.0729502 56.8310577,91.8108812 57.2739904,93.576092 C57.6490865,95.0743295 58.0960096,96.5765517 58.4990385,98.0668199 C58.93,99.6606897 60.0951923,101.254559 60.1550481,102.944061 C59.3928846,103.167203 57.6371154,102.71295 57.6371154,102.71295 C57.6371154,102.71295 57.010625,103.294713 57.4775,103.509885 C58.0281731,103.772874 59.7320673,103.681226 60.3825,103.689195 C60.9491346,103.689195 62.4495192,103.589579 62.4495192,103.589579 C62.4495192,103.589579 64.6162981,77.2548659 59.1853846,76.3543295 C53.7544712,75.4537931 54.9954808,81.6499617 54.9954808,81.6499617 Z" id="Shape" fill="#006482"/>
          <path d="M32.4976923,81.6499617 C34.4330288,86.8061303 36.5439423,92.2930268 37.1784135,93.8350958 C38.3755288,96.7399234 40.3707212,99.5252107 41.2246635,102.529655 C40.6979327,102.728889 38.3715385,102.378238 38.3396154,102.96 C38.2797596,104.007969 40.67,103.406284 41.1767788,103.398314 C42.2541827,103.398314 43.9301442,103.956169 44.2892788,103.131341 C44.560625,102.501762 41.136875,88.3242912 39.7402404,81.645977 C39.7402404,81.645977 40.1871635,76.9958621 34.75625,76.2188506 C29.3253365,75.4418391 32.4976923,81.6499617 32.4976923,81.6499617 Z" id="Shape" fill="#006482"/>
          <path d="M79.1173558,91.2769349 C79.1173558,91.2769349 77.0024519,97.0148659 77.6289423,97.1662835 C78.2554327,97.3177011 78.6385096,95.8314176 79.0415385,95.1022222 C79.2148658,94.7420611 79.4544603,94.4176521 79.7478365,94.1459004 L79.1173558,91.2769349 Z" id="Shape" fill="#008264"/>
          <path d="M80.2466346,99.2701916 C79.6041827,99.3498851 80.5698558,95.3691954 79.3887019,96.7399234 C79.1572596,97.0068966 79.3887019,99.3937165 78.5108173,99.2303448 C78.9896635,94.6121073 78.3152885,85.0927203 77.0942308,77.5138697 C75.1389423,65.360613 68.9378846,59.8976245 71.0049038,54.8012261 C73.0719231,49.7048276 75.0591346,53.6058238 75.0591346,53.6058238 C75.0591346,53.6058238 79.4485577,65.4642146 80.2027404,67.9825287 C80.9689821,70.616601 81.503068,73.3125417 81.7988942,76.0395402 C82.1979327,79.5340996 82.5730288,82.9449808 82.6807692,86.4754023 C82.7326442,88.2087356 82.7366346,89.954023 82.6448558,91.691341 C82.5969712,92.6038314 82.5371154,98.297931 81.6273077,98.8039847 C81.2961058,97.245977 81.9146154,96.0983908 81.3000962,96.1382375 C80.6855769,96.1780843 80.8890865,99.1904981 80.2466346,99.2701916 Z" id="Shape" fill="#00A08C"/>
          <path d="M20.1195192,52.5618391 L19.2336538,52.0039847 C15.8976923,49.9478927 14.4651442,48.194636 12.45,44.9072797 C10.4348558,41.6199234 9.43326923,37.9380843 8.34389423,34.3239847 C7.17072115,30.4389272 6.14918269,21.1068199 5.19947115,21.1745594 C4.24975962,21.2422989 5.87384615,24.9201533 4.87225962,25.119387 C3.87067308,25.3186207 3.59134615,21.3857471 2.79326923,21.3180077 C1.99519231,21.2502682 2.99278846,25.5696552 1.87149038,25.5098851 C1.26096154,25.4780077 0.83,22.1986207 0.343173077,22.3938697 C-0.143653846,22.5891188 2.27850962,39.8188506 5.92971154,46.1664368 C9.58091346,52.514023 12.1227885,55.5065134 16.70375,58.2838314 C19.6486538,60.0689655 23.3756731,60.4116475 25.7060577,60.8738697 C25.7060577,60.8738697 31.0970673,60.5710345 29.9797596,56.6939464 C29.3333173,54.4505747 26.5001442,54.2075096 23.914375,53.737318 C22.6137727,53.4711275 21.3426584,53.0773924 20.1195192,52.5618391 Z" id="Shape" fill="#006482"/>
          <path d="M7.80918269,24.1949425 C7.17471154,23.9718008 6.66793269,26.3466667 6.66793269,26.3466667 C5.96163462,26.5658238 4.17793269,27.2631418 4.27370192,28.6577778 C4.409375,30.3950958 6.56817308,32.2878161 7.49793269,30.2237548 C7.50990385,30.2237548 8.44365385,24.4180843 7.80918269,24.1949425 Z" id="Shape" fill="#281446"/>
          <polygon id="Shape" fill="#828278" points="31.799375 12.9581609 28.7347596 25.4899617 26.3764423 25.3704215 31.6198077 9.66681992"/>
          <path d="M67.0105288,54.5621456 L70.2866346,85.9295019 C70.2866346,85.9295019 52.8965385,85.7183142 49.5366346,85.4832184 C51.045,81.8970115 52.8247115,54.4027586 52.8247115,54.4027586 L67.0105288,54.5621456 Z" id="Shape" fill="#008264"/>
          <path d="M75.7734135,22.0511877 C74.3209135,22.0511877 61.8749038,21.5610728 61.8749038,21.5610728 L53.4352404,39.15341 C52.9444231,40.6436782 70.2866346,85.9295019 70.2866346,85.9295019 C70.2866346,85.9295019 78.8579808,44.5327203 79.8635577,39.3924904 C80.3743269,36.7745594 80.7613942,34.1327203 81.2522115,31.5147893 C81.7988942,28.605977 82.9561058,25.4501149 82.9561058,22.4815326 C80.7813462,21.7085057 78.0519231,22.0432184 75.7734135,22.0511877 Z" id="Shape" fill="#00A08C"/>
          <path d="M70.1429808,32.0407663 L61.8749038,21.5610728 L44.4488942,21.302069 L41.3084615,27.6496552 L49.5206731,85.4832184 C49.5206731,85.4832184 51.2365385,82.5664368 51.7273558,81.7296552 C52.4855288,80.4306513 53.1599038,79.0957854 53.7903846,77.7449808 C54.9236538,75.2983908 56.1846154,72.9235249 57.2939423,70.4570115 C59.2492308,66.0738697 61.3521635,61.6668199 63.0041827,57.1641379 C64.8637019,52.0796935 66.8908173,47.0111877 68.4789904,41.8350958 C69.2052404,39.4721839 70.2507212,37.109272 70.7415385,34.68659 C70.9849519,33.4712644 70.8931731,33.108659 70.1429808,32.0407663 Z" id="Shape" fill="#78C8C8"/>
          <path d="M67.8046154,35.2723372 C67.8046154,36.3800766 67.1701442,37.2646743 66.3880288,37.2646743 C65.6059135,37.2646743 64.9714423,36.3681226 64.9714423,35.2723372 C64.9503858,34.6553352 65.1774169,34.0555679 65.6019231,33.6067433 C65.8136105,33.39485 66.1002795,33.2746213 66.4,33.2720307 C66.7990385,33.2720307 67.3497115,33.8259004 67.5971154,34.1885057 C67.8445192,34.5511111 67.8046154,34.7184674 67.8046154,35.2723372 Z" id="Shape" fill="#281446"/>
          <path d="M70.0751442,0.466206897 C64.1578959,0.115497116 58.225719,0.092882543 52.3059615,0.398467433 C47.9165385,0.609655172 36.3444231,-0.677394636 33.7387019,3.77348659 C32.3021635,6.21609195 31.6038462,9.26038314 30.9454327,11.9859004 C30.3109615,14.6038314 29.1657212,17.3652107 28.8425,20.0269732 C30.7778365,19.8078161 30.8376923,16.5403831 31.3245192,14.8867433 C32.0268269,12.4959387 32.5415865,10.0652874 33.1600962,7.63862069 C33.6628846,5.64628352 34.1936058,3.11601533 36.20875,2.22344828 C38.1480769,1.35877395 41.2565865,1.74528736 43.3435577,1.6456705 C51.4759615,1.24720307 61.8908654,1.6456705 70.0152885,1.72137931 C71.4398558,1.72137931 73.2794231,1.85287356 73.7263462,3.65793103 C74.0615385,5.02068966 71.0966827,17.5126437 70.2187981,21.8200766 C69.8197596,23.6888889 69.7239904,25.6015326 69.3369231,27.4544061 C69.1094712,28.5501916 68.7902404,29.6300383 68.5388462,30.7178544 C68.3592788,31.4470498 68.2635096,33.6824521 67.7647115,34.2841379 C67.6529808,34.4156322 66.8349519,34.6268199 66.2244231,34.8818391 C66.1378389,35.2150833 66.161638,35.5673646 66.2922596,35.885977 L66.4997596,35.9457471 C68.0959135,36.376092 68.7902404,34.9216858 69.1972596,33.7382375 C71.4997115,27.0121073 74.7558654,6.24398467 74.8077404,4.85731801 C74.8995192,1.71739464 72.8684135,0.637547893 70.0751442,0.466206897 Z" id="Shape" fill="#828278"/>
          <path d="M44.4488942,21.302069 L10.6662981,21.3937165 C10.6662981,21.3937165 12.0190385,26.8128736 12.3302885,28.1158621 C13.0485577,31.0963985 13.9264423,34.0490421 14.4850962,37.0614559 C15.6822115,43.337318 17.7093269,49.5494253 19.2735577,55.6499617 C20.8377885,61.7504981 22.773125,67.7554023 24.3014423,73.8559387 C24.9598558,76.4818391 27.2662981,84.4511877 27.2662981,84.4511877 C27.2662981,84.4511877 31.4202885,84.7739464 32.733125,84.8855172 C35.7777885,85.1485057 38.7785577,85.3437548 41.8312019,85.4194636 C43.4512981,85.4593103 45.0713942,85.5350192 46.6875,85.5230651 C48.3036058,85.5111111 49.5246635,85.4832184 49.5246635,85.4832184 L44.4488942,21.302069 Z" id="Shape" fill="#00A0B4"/>
        </g>
      </g>
    </g>
  </g>
</svg>