<svg version="1.1" width="136" height="136" viewBox="-1 -1 136 136" xmlns="http://www.w3.org/2000/svg" xmlns:xlink="http://www.w3.org/1999/xlink">
  <!-- Exported by Scratch - http://scratch.mit.edu/ -->
  <g id="ID0.14538028789684176" transform="matrix(1, 0, 0, 1, -54, -5)">
    <g id="dinosaurs">
      <g id="triceratops-c">
        <g id="scratch_dinos02c">
          <path id="Shape" fill="#BE0A3C" stroke="none" stroke-width="1" d="M 65.566 133.646 L 65.388 134.307 C 61.800 134.108 55.875 134.010 52.879 134.065 C 50.680 134.104 49.662 130.371 49.662 130.371 L 40.358 105.038 L 54.936 105.132 C 54.936 105.132 62.242 125.875 65.566 133.646 Z " transform="matrix(1, 0, 0, 1, 54, 5)"/>
          <path id="Shape" fill="#BE0A3C" stroke="none" stroke-width="1" d="M 111.355 133.646 L 111.178 134.307 C 107.589 134.108 101.664 134.010 98.668 134.065 C 96.470 134.104 95.451 130.371 95.451 130.371 L 73.816 85.696 L 88.026 82.565 C 88.026 82.565 108.032 125.875 111.355 133.646 Z " transform="matrix(1, 0, 0, 1, 54, 5)"/>
          <path id="Shape" fill="#BE0A3C" stroke="none" stroke-width="1" d="M 0.896 132.296 C -0.201 130.911 0.162 127.115 0.107 125.429 C 0.045 123.095 0.160 120.760 0.450 118.444 C 1.011 113.783 1.903 109.131 2.818 104.525 C 3.730 99.857 5.187 95.263 6.718 90.763 C 7.449 88.634 8.155 86.490 8.921 84.369 C 9.316 83.230 13.658 73.283 14.842 72.830 C 14.226 77.827 20.578 90.830 20.621 93.201 C 20.657 95.126 11.818 112.336 10.883 113.940 C 9.624 116.131 8.645 118.452 7.445 120.670 C 5.388 124.505 3.809 129.009 0.896 132.296 Z " transform="matrix(1, 0, 0, 1, 54, 5)"/>
          <path id="Shape" fill="#F01446" stroke="none" stroke-width="1" d="M 97.536 80.280 C 107.037 59.623 101.980 42.910 101.980 42.910 L 38.518 51.363 C 33.851 52.382 29.539 54.605 26.017 57.807 C 24.165 59.457 22.408 61.209 20.755 63.055 C 17.112 67.195 13.650 71.691 12.359 77.142 C 11.136 82.264 11.112 87.817 11.570 93.025 C 11.834 95.987 12.024 98.992 12.529 101.923 C 12.770 103.328 17.968 117.724 19.820 122.063 C 20.668 124.047 21.726 125.828 22.705 127.737 C 23.396 129.083 26.870 134.260 27.742 134.483 C 29.191 134.851 38.282 135.211 40.374 134.311 C 39.328 126.235 34.922 118.624 34.204 110.481 C 44.132 110.633 60.426 110.090 69.008 110.090 C 77.589 110.090 88.026 100.957 97.536 80.280 Z " transform="matrix(1, 0, 0, 1, 54, 5)"/>
          <path id="Shape" fill="#F01446" stroke="none" stroke-width="1" d="M 76.875 102.130 C 75.174 102.346 64.875 104.017 63.134 104.294 C 65.282 107.617 72.387 123.108 75.939 130.023 C 76.883 131.858 79.058 134.327 79.058 134.327 C 79.058 134.327 88.232 134.433 91.871 134.112 C 91.705 133.791 78.458 103.613 76.875 102.130 Z " transform="matrix(1, 0, 0, 1, 54, 5)"/>
          <path id="Shape" fill="#BE0A3C" stroke="none" stroke-width="1" d="M 95.921 10.526 C 98.601 8.280 100.622 -0.223 95.321 0.595 C 92.625 2.258 88.374 5.365 86.882 8.217 C 89.400 8.898 93.367 10.057 95.921 10.526 Z " transform="matrix(1, 0, 0, 1, 54, 5)"/>
          <path id="Shape" fill="#A0640A" stroke="none" stroke-width="1" d="M 116.017 22.030 C 117.359 23.697 118.318 25.552 119.676 27.235 C 121.433 25.513 127.693 20.649 124.863 17.930 C 122.408 15.570 117.474 20.054 116.017 22.030 Z " transform="matrix(1, 0, 0, 1, 54, 5)"/>
          <path id="Shape" fill="#BE0A3C" stroke="none" stroke-width="1" d="M 102.632 13.304 C 104.345 14.478 106.370 16.591 108.158 17.648 C 110.282 16.180 114.659 8.257 110.680 7.157 C 108.336 6.503 102.975 11.039 102.632 13.304 Z " transform="matrix(1, 0, 0, 1, 54, 5)"/>
          <path id="Shape" fill="#BE0A3C" stroke="none" stroke-width="1" d="M 72.529 8.757 C 75.213 8.366 78.809 8.644 81.486 8.366 C 83.771 6.445 84.643 -0.908 80.341 0.540 C 77.728 1.428 73.658 6.410 72.529 8.757 Z " transform="matrix(1, 0, 0, 1, 54, 5)"/>
          <path id="Shape" fill="#A0640A" stroke="none" stroke-width="1" d="M 126.316 53.585 C 128.487 52.701 138.158 46.514 133.243 43.951 C 131.862 43.231 126.470 45.446 125.929 46.949 C 125.637 47.790 126.316 52.388 126.316 53.585 Z " transform="matrix(1, 0, 0, 1, 54, 5)"/>
          <path id="Shape" fill="#BE0A3C" stroke="none" stroke-width="1" d="M 125.503 39.741 C 127.425 38.305 133.034 34.239 132.051 31.328 C 130.891 27.896 124.551 31.516 123.095 32.866 C 124.237 35.026 125.049 37.343 125.503 39.741 Z " transform="matrix(1, 0, 0, 1, 54, 5)"/>
          <path id="Shape" fill="#E6781E" stroke="none" stroke-width="1" d="M 46.157 37.487 C 47.736 34.893 49.737 31.253 51.288 28.726 C 49.780 26.542 43.117 14.020 41.992 11.579 C 39.312 10.733 40.851 20.970 41.021 22.050 C 41.593 25.767 43.871 34.353 46.157 37.487 Z " transform="matrix(1, 0, 0, 1, 54, 5)"/>
          <path id="Shape" fill="#C8C8BE" stroke="none" stroke-width="1" d="M 34.228 64.675 C 35.282 60.155 38.518 51.370 38.518 51.370 L 42.351 48.843 L 67.895 48.522 L 65.964 79.282 C 65.964 79.282 54.707 79.251 49.476 79.282 C 46.389 79.306 43.307 79.490 40.232 79.673 C 37.887 79.818 34.575 80.123 32.313 79.282 C 31.579 74.598 33.158 69.230 34.228 64.675 Z " transform="matrix(1, 0, 0, 1, 54, 5)"/>
          <path id="Shape" fill="#F04650" stroke="none" stroke-width="1" d="M 45.047 34.126 C 41.495 41.952 38.518 51.363 38.518 51.363 C 40.876 51.071 43.259 51.039 45.624 51.269 C 47.875 51.558 50.053 52.258 52.046 53.335 C 55.303 55.272 57.616 58.207 59.459 62.065 C 62.084 67.543 65.953 79.282 65.953 79.282 C 65.953 79.282 73.421 79.231 77.100 79.106 C 80.779 78.981 85.224 79.435 88.682 78.147 C 96.099 75.389 93.359 64.154 98.850 59.811 C 101.582 57.651 105.091 59.693 106.843 62.108 C 108.742 64.722 107.866 68.889 112.291 69.065 C 116.345 69.226 119.629 66.009 122.159 63.293 C 124.528 60.730 126.868 57.142 126.868 53.511 C 127.667 48.798 127.502 43.974 126.383 39.326 C 125.933 34.047 122.550 28.174 118.753 23.948 C 118.239 23.373 109.867 15.707 104.913 12.991 C 104.499 12.764 100.011 10.507 98.487 9.927 C 95.797 8.919 92.994 8.238 90.138 7.900 C 85.982 7.376 81.355 6.727 77.214 7.587 C 75.939 7.157 73.133 7.979 71.866 8.213 C 70.418 8.504 69.015 8.987 67.697 9.650 C 64.135 11.376 60.857 13.626 57.975 16.325 C 55.238 18.898 52.762 21.730 50.582 24.781 C 50.199 25.329 46.918 29.997 45.047 34.126 Z " transform="matrix(1, 0, 0, 1, 54, 5)"/>
          <path id="Shape" fill="#F01446" stroke="none" stroke-width="1" d="M 70.922 20.966 C 70.922 20.966 67.007 27.125 63.486 31.821 C 62.550 33.069 60.284 35.734 58.034 36.665 C 55.070 37.910 52.164 37.057 52.725 34.709 C 53.396 31.915 58.970 25.032 62.439 20.939 C 62.901 20.399 64.018 18.916 65.317 18.227 C 68.574 16.505 72.963 16.083 70.922 20.966 Z " transform="matrix(1, 0, 0, 1, 54, 5)"/>
          <path id="Shape" fill="#FFC800" stroke="none" stroke-width="1" d="M 41.313 48.479 C 42.100 48.978 42.993 49.288 43.922 49.387 C 45.585 49.547 47.262 49.426 48.884 49.030 C 50.763 48.381 50.601 44.726 49.749 43.270 C 48.553 41.224 46.184 39.490 44.605 37.706 C 43.153 36.070 41.475 33.429 39.568 32.294 C 38.558 35.108 38.779 38.246 39.229 41.142 C 39.568 43.466 40.074 47.528 41.313 48.479 Z " transform="matrix(1, 0, 0, 1, 54, 5)"/>
          <path id="Shape" fill="#FFC800" stroke="none" stroke-width="1" d="M 80.436 42.531 C 80.436 42.531 92.013 42.887 91.741 40.453 C 91.346 37.080 89.455 33.265 88.188 30.154 C 86.759 26.632 80.807 11.610 78.786 11.371 C 77.593 12.130 80.436 42.531 80.436 42.531 Z " transform="matrix(1, 0, 0, 1, 54, 5)"/>
          <path id="Shape" fill="#000000" stroke="none" stroke-width="1" d="M 40.524 74.845 C 40.583 75.314 41.021 76.316 43.749 76.316 C 46.476 76.316 47.341 75.181 47.416 74.407 C 47.491 73.632 45.928 73.256 43.603 73.256 C 41.278 73.256 40.464 74.371 40.524 74.845 Z " transform="matrix(1, 0, 0, 1, 54, 5)"/>
          <path id="Shape" fill="#000000" stroke="none" stroke-width="1" d="M 82.074 56.101 L 81.284 55.710 C 80.641 56.410 80.045 58.958 81.537 59.110 C 83.029 59.263 82.397 56.806 82.074 56.101 Z " transform="matrix(1, 0, 0, 1, 54, 5)"/>
          <path id="Shape" fill="#000000" stroke="none" stroke-width="1" d="M 34.121 55.209 L 33.332 54.818 C 32.692 55.522 32.096 58.070 33.584 58.218 C 35.132 58.363 34.445 55.917 34.121 55.209 Z " transform="matrix(1, 0, 0, 1, 54, 5)"/>
          <path id="Shape" fill="#828278" stroke="none" stroke-width="1" d="M 41.187 67.406 L 40.397 67.015 C 39.758 67.715 39.162 70.263 40.654 70.415 C 42.146 70.568 41.511 68.110 41.187 67.406 Z " transform="matrix(1, 0, 0, 1, 54, 5)"/>
          <path id="Shape" fill="#828278" stroke="none" stroke-width="1" d="M 48.047 67.222 L 47.258 66.831 C 46.614 67.531 46.018 70.079 47.511 70.231 C 49.003 70.384 48.371 67.927 48.047 67.222 Z " transform="matrix(1, 0, 0, 1, 54, 5)"/>
        </g>
      </g>
    </g>
  </g>
</svg>