<svg width="165px" height="210px" viewBox="0 0 165 210" version="1.1" xml:space="preserve" xmlns="http://www.w3.org/2000/svg" xmlns:xlink="http://www.w3.org/1999/xlink">
  <!-- Generator: Sketch 48.2 (47327) - http://www.bohemiancoding.com/sketch -->
  <defs/>
  <g>
    <title>jamie-d</title>
    <desc>Created with Sketch.</desc>
    <g id="basketball" stroke="none" stroke-width="1" fill="none" fill-rule="evenodd">
      <g id="jamie-d" fill-rule="nonzero">
        <g id="scratch_bball_player03d" transform="translate(28.000000, 11.000000)">
          <path d="M8.8,0.068 C10.768,-0.084 9.42,6.916 11.668,6.136 C13.356,5.552 13.04,0.536 14.312,0.536 C15.584,0.536 15.056,3.048 14.984,5.252 C14.944,6.54 14.424,13.652 14.36,15.808 C14.252,19.584 14.808,73.784 17.04,78.208 C20.308,84.68 27.2,90.644 30.62,91.408 C32.768,91.876 41.744,92.08 41.744,92.08 L41.436,102.708 C41.436,102.708 27.936,103.316 21.836,100.376 C13.152,96.188 5.936,84.252 4.68,76.876 C2.48,63.94 2.94,20.588 3.08,16.048 C3.104,15.152 2.352,2.82 2.896,2.472 C3.78,1.916 5.344,8.696 7.468,6.872 C8.948,5.548 6.828,0.22 8.8,0.068 Z" id="Shape" fill="#A0640A"/>
          <path d="M9.484,19.2 C7.756,16.74 8.18,13.388 9.74,11.388 C11.3,9.388 12.472,11.2 14.488,9.6 C16.504,8 17.156,6.248 18.136,6.58 C18.776,6.796 16.18,17.584 14.608,18.944 C13.036,20.304 11.2,21.672 9.484,19.2 Z" id="Shape" fill="#824600"/>
          <path d="M16.168,17.828 C16.216,20.396 16.364,23.052 15.876,25.592 C15.376,25.992 9.416,25.628 8.58,25.592 C6.64530412,25.5166531 4.71594473,25.3390719 2.8,25.06 C0.96,24.752 0.656,24.08 0.324,22.012 C0.068,20.412 0.724,18.316 1.256,16.812 C1.484,16.652 3.408,16.888 6.704,16.976 C9.87411934,17.0489391 13.0358253,17.3335728 16.168,17.828 Z" id="Shape" fill="#780046"/>
          <path d="M102.8,11.776 C103.032,8.064 103.648,3.204 103.104,2.856 C102.22,2.3 100.656,9.08 98.536,7.256 C97.032,5.956 99.152,0.628 97.184,0.456 C95.216,0.284 96.564,7.3 94.32,6.524 C92.632,5.94 92.944,0.924 91.676,0.924 C90.408,0.924 90.928,3.436 91,5.64 C91.044,6.928 91.56,14.04 91.624,16.196 C91.692,18.596 93.336,45.74 92.972,61.676 C92.764,70.952 92.824,74.224 91.188,77.86 C86.74,87.74 83.216,90.288 79.796,91.032 C78.86,91.236 72.196,92.132 69.984,92.232 L69.984,102.416 C74.436,102.296 82.784,102.36 86.36,100.636 C95.048,96.448 98.424,93.956 102.872,77.484 C107.32,61.012 103.056,20.948 102.936,16.408 C102.782168,14.8690953 102.736723,13.3212792 102.8,11.776 Z" id="Shape" fill="#A0640A"/>
          <path d="M96.984,19.2 C98.708,16.74 98.288,13.388 96.728,11.388 C95.168,9.388 94,11.2 92,9.6 C90,8 89.332,6.248 88.352,6.58 C87.712,6.796 90.308,17.584 91.88,18.944 C93.452,20.304 95.256,21.672 96.984,19.2 Z" id="Shape" fill="#824600"/>
          <path d="M89.832,18.228 C89.78,20.796 89.632,23.452 90.12,25.992 C90.62,26.392 96.58,26.028 97.416,25.992 C99.3520236,25.9166523 101.282714,25.7390715 103.2,25.46 C105.036,25.152 105.34,24.48 105.672,22.412 C105.928,20.812 105.272,18.716 104.74,17.212 C104.512,17.052 102.588,17.288 99.292,17.376 C96.1231892,17.4486163 92.9627922,17.7332525 89.832,18.228 Z" id="Shape" fill="#780046"/>
          <polygon id="Shape" fill="#780046" points="70.912 90.76 35.736 90.76 31.608 104.076 75.112 104.004"/>
          <path d="M57.244,115.912 L37.6,127.912 C37.6,127.912 40.228,129.992 46.992,129.992 C53.756,129.992 52.504,131.32 59.684,130.412 C66.864,129.504 71.6,123.768 71.6,123.768 L57.244,115.912 Z" id="Shape" fill="#780046"/>
          <rect id="Rectangle-path" fill="#FFDC00" x="46.008" y="119.188" width="18.248" height="8.464"/>
          <path d="M69.892,156 C70.2392903,158.840588 70.2835391,161.710054 70.024,164.56 L73.832,166.668 L79.46,164.56 C80.06,162.064 80.724,158.66 80.66,155.448 C80.592,150.648 80.26,145.76 76.772,138.36 C73.284,130.96 63.704,134.884 64.772,137.828 C65.172,138.98 67.092,142.852 68.508,148.196 C69.1114101,150.770126 69.5734348,153.375358 69.892,156 Z" id="Shape" fill="#824600"/>
          <path d="M79.268,139.872 C78.216,135.472 70.284,122.124 70.284,122.124 C70.284,122.124 60.684,120.868 53.624,119.984 L64.156,143.416 C64.156,143.416 74.728,140.448 79.268,139.872 Z" id="Shape" fill="#FFDC00"/>
          <path d="M70.024,164.572 C69.8893499,166.072486 69.6555052,167.562411 69.324,169.032 C68.968,170.568 68.496,172.068 68.08,173.588 C67.196,176.788 64.148,183.352 62.804,186.388 C65.416,186.836 66.968,187.464 69.576,187.02 C71.132,184.62 74.252,179.796 76.432,174.752 C77.2927967,172.710783 77.9753427,170.598905 78.472,168.44 C78.704,167.404 79.084,166.084 79.46,164.56 L70.024,164.572 Z" id="Shape" fill="#FAB414"/>
          <polygon id="Shape" fill="#FFDC00" points="74.208 192.664 67.592 191.808 58.612 192.432 58.848 193.732 74.52 193.864"/>
          <path d="M73.024,191.376 C71.8305728,191.311361 70.6426814,191.168387 69.468,190.948 L75.868,178.4 L64.604,178.4 L58.604,192.432 L74.204,192.668 C74.0445263,192.329212 73.9108142,191.978887 73.804,191.62 C73.5550705,191.506777 73.2930764,191.424819 73.024,191.376 Z" id="Shape" fill="#AA3278"/>
          <polygon id="Shape" fill="#FFDC00" points="72.504 181.392 75.56 181.392 75.812 180.612 72.644 180.612"/>
          <polygon id="Shape" fill="#FAB414" points="71.556 183.212 74.616 183.212 74.868 182.432 71.696 182.432"/>
          <polygon id="Shape" fill="#FFDC00" points="70.608 185.036 73.668 185.036 73.92 184.252 70.748 184.252"/>
          <polygon id="Shape" fill="#FAB414" points="69.664 186.856 72.72 186.856 72.972 186.072 69.8 186.072"/>
          <polygon id="Shape" fill="#FFDC00" points="68.716 188.676 71.776 188.676 72.028 187.896 68.856 187.896"/>
          <circle id="Oval" fill="#FFDC00" cx="66.8" cy="183.288" r="3.076"/>
          <circle id="Oval" fill="#780046" cx="66.8" cy="183.288" r="1.46"/>
          <path d="M40.8,156 C40.4527097,158.840588 40.4084609,161.710054 40.668,164.56 L36.86,166.668 L31.232,164.56 C30.632,162.064 29.8,158.652 30.032,155.448 C31.176,138.36 37.356,132.612 37.356,132.612 C37.356,132.612 46.988,134.884 45.928,137.812 C45.336,139.484 41.88,148.276 40.8,156 Z" id="Shape" fill="#824600"/>
          <path d="M31.436,139.872 C32.488,135.472 40.42,122.124 40.42,122.124 C40.42,122.124 50.02,120.868 57.08,119.984 L46.548,143.416 C46.548,143.416 35.976,140.448 31.436,139.872 Z" id="Shape" fill="#FFDC00"/>
          <path d="M40.68,164.572 C40.8146501,166.072486 41.0484948,167.562411 41.38,169.032 C41.736,170.568 42.208,172.068 42.624,173.588 C43.504,176.788 46.556,183.352 47.9,186.388 C45.288,186.836 43.736,187.464 41.128,187.02 C39.572,184.62 36.452,179.796 34.272,174.752 C33.4093065,172.711488 32.7267064,170.599443 32.232,168.44 C31.996,167.404 31.62,166.084 31.244,164.56 L40.68,164.572 Z" id="Shape" fill="#FAB414"/>
          <polygon id="Shape" fill="#FFDC00" points="36.496 192.664 43.112 191.808 52.092 192.432 51.852 193.732 36.184 193.864"/>
          <path d="M37.68,191.376 C38.8734272,191.311361 40.0613186,191.168387 41.236,190.948 L34.836,178.4 L46.092,178.4 L52.092,192.432 L36.492,192.668 C36.6496906,192.328456 36.7833524,191.978262 36.892,191.62 C37.143472,191.506146 37.4081914,191.424177 37.68,191.376 Z" id="Shape" fill="#AA3278"/>
          <polygon id="Shape" fill="#FFDC00" points="38.2 181.392 35.14 181.392 34.888 180.612 38.06 180.612"/>
          <polygon id="Shape" fill="#FAB414" points="39.148 183.212 36.088 183.212 35.836 182.432 39.008 182.432"/>
          <polygon id="Shape" fill="#FFDC00" points="40.096 185.036 37.036 185.036 36.784 184.252 39.956 184.252"/>
          <polygon id="Shape" fill="#FAB414" points="41.04 186.856 37.984 186.856 37.728 186.072 40.9 186.072"/>
          <polygon id="Shape" fill="#FFDC00" points="41.988 188.676 38.928 188.676 38.676 187.896 41.848 187.896"/>
          <circle id="Oval" fill="#FFDC00" cx="43.904" cy="183.288" r="3.076"/>
          <circle id="Oval" fill="#780046" cx="43.904" cy="183.288" r="1.46"/>
          <path d="M42.188,88.988 L46.16,88.636 C46.16,88.636 45.544,98.344 53.224,98.344 C60.904,98.344 60.64,88.9 60.64,88.9 L64.52,89.076 C64.52,89.076 71.404,122.276 71.584,123.768 C69.068,124.488 37.584,127.916 37.584,127.916 L42.188,88.988 Z" id="Shape" fill="#AA3278"/>
          <path d="M66.576,54.604 C61.776,50.008 53.824,48.104 47.588,50.32 C40.632,52.792 36.528,59.412 37.156,66.72 C37.4,69.556 37.956,72.884 39.792,75.176 C41.528,77.32 46.216,81.176 54.496,80.604 C62.776,80.032 65.992,76.86 66.924,75.684 C70.664,70.968 71.228,59.056 66.576,54.604 Z" id="Shape" fill="#000000"/>
          <path d="M64.46,74.556 C64.46,74.252 63.944,68.936 61.516,65.896 C59.324,63.152 55.26,62.644 53.96,62.584 C48.476,62.336 44.28,66.02 43.84,69.112 C43.176,73.748 44.436,78.512 47.572,82.848 C49.292,85.228 51.788,85.976 54.06,85.972 C60.376,85.964 64.732,80.652 64.46,74.556 Z" id="Shape" fill="#A0640A"/>
          <polygon id="Shape" fill="#000000" points="44.252 73.564 43.96 63.312 41.096 65.988 43.2 72.1"/>
          <polygon id="Shape" fill="#000000" points="64.516 72.1 66.624 65.988 62.192 62.908 63.012 72.56"/>
          <path d="M61.896,78.224 C61.896,78.224 64.696,77.056 66.296,74.828 C67.328,73.388 67.704,70.932 67.06,69.988 C66.224,68.752 64.756,68.368 63.576,69.436 C62.668,70.26 61.72,75 61.604,76.116 C61.62,76.136 61.896,78.224 61.896,78.224 Z" id="Shape" fill="#A0640A"/>
          <path d="M46.824,77.848 C46.824,77.848 43.812,77.668 41.564,76.092 C40.112,75.076 38.944,72.892 39.236,71.78 C39.636,70.336 40.876,69.488 42.34,70.108 C43.472,70.584 45.94,74.74 46.42,75.756 C46.4,75.784 46.824,77.848 46.824,77.848 Z" id="Shape" fill="#A0640A"/>
          <path d="M51.804,78.8 C53.3978374,78.4129253 55.0685687,78.4836367 56.624,79.004 C57.564,81.076 50.876,81.004 51.804,78.8 Z" id="Shape" fill="#000000"/>
          <path d="M55.464,75.92 C54.428,76.344 53.384,76.104 52.352,75.848 C52.004,74.96 53.368,72.616 54.304,72.584 C55.2,73.508 55.812,74.504 55.464,75.92 Z" id="Shape" fill="#824600"/>
          <path d="M48.76,72.536 C48.856,73.188 48.932,73.768 48.556,74.3 C47.608,74.384 47.896,72.7 48.34,72.32 L48.76,72.536 Z" id="Shape" fill="#000000"/>
          <path d="M59.976,72.592 C60.048,73.204 60.376,73.792 59.888,74.388 L59.212,74.244 C59.248,73.62 59.004,73 59.476,72.452 L59.976,72.592 Z" id="Shape" fill="#000000"/>
        </g>
      </g>
    </g>
  </g>
</svg>