<svg version="1.1" width="95" height="113" viewBox="-1 -1 95 113" xmlns="http://www.w3.org/2000/svg" xmlns:xlink="http://www.w3.org/1999/xlink">
  <!-- Exported by Scratch - http://scratch.mit.edu/ -->
  <g id="ID0.05439604306593537" transform="matrix(1, 0, 0, 1, -21, -26)">
    <g id="food">
      <g id="milk-b">
        <g id="scratch_fridge_milk02">
          <path id="Shape" fill="#BE0A3C" stroke="none" stroke-width="1" d="M 73.540 95.378 C 75.472 98.367 80.492 104.610 81.280 105.583 C 83.516 108.344 87.952 110.929 90.880 111.302 C 93.808 111.674 94.140 111.450 94.140 111.450 C 94.249 111.461 94.358 111.423 94.435 111.345 C 94.513 111.267 94.551 111.159 94.540 111.050 C 94.540 110.609 90.096 110.053 87.384 106.579 C 82.524 100.348 76.804 89.215 74.428 86.106 C 74.428 86.106 71.316 84.105 70.672 87.902 C 70.028 91.700 73.540 95.378 73.540 95.378 Z " transform="matrix(1, 0, 0, 1, 21, 26)"/>
          <path id="Shape" fill="#BE0A3C" stroke="none" stroke-width="1" d="M 89 110.493 C 89 110.493 87.980 109.257 87.760 109.293 C 87.760 109.293 85.136 110.841 85.064 111.206 C 85.016 111.450 86.420 111.250 87.616 110.869 L 87.672 110.869 L 89 110.493 Z " transform="matrix(1, 0, 0, 1, 21, 26)"/>
          <path id="Shape" fill="#BE0A3C" stroke="none" stroke-width="1" d="M 17.800 85.681 C 16.668 88.047 14.872 89.283 13.244 89.335 C 11.616 89.387 10.748 88.299 10.088 86.934 C 8.748 84.133 8.888 76.325 8.488 76.401 C 8.088 76.477 8.008 78.002 7.836 78.550 C 6.672 78.274 7.300 75.969 6.552 76.045 C 6.200 76.081 6.632 78.494 5.724 78.574 C 4.816 78.654 5 77.205 4.636 76.477 C 3.224 81.503 4.076 89.647 9.036 92.525 C 13.748 95.262 19.612 92.713 21.688 85.645 C 21.688 85.645 22.580 82.892 20.008 83.132 C 17.436 83.372 17.800 85.681 17.800 85.681 Z " transform="matrix(1, 0, 0, 1, 21, 26)"/>
          <path id="Shape" fill="#82001E" stroke="none" stroke-width="1" d="M 8.600 82.812 C 8.600 82.812 10.072 82.456 10.548 80.563 C 10.656 80.139 10.824 78.262 10.272 78.238 C 9.720 78.214 10.024 79.286 9.648 79.863 C 9.272 80.439 8.600 79.586 7.272 80.011 C 5.944 80.435 5.768 84.213 8.600 82.812 Z " transform="matrix(1, 0, 0, 1, 21, 26)"/>
          <path id="Shape" fill="#82001E" stroke="none" stroke-width="1" d="M 17.620 110.493 C 17.620 110.493 31.580 110.009 30.940 106.311 C 30.300 102.614 25.260 103.110 23.548 103.510 C 16.060 105.247 2.940 108.160 1.652 107.880 C 1.508 107.320 1.812 106.747 1.556 106.231 C 1.284 106.091 1.036 105.963 0.756 106.295 C 0.756 106.491 0.756 110.057 0.696 110.261 C 0.964 110.609 17.620 110.493 17.620 110.493 Z " transform="matrix(1, 0, 0, 1, 21, 26)"/>
          <path id="Shape" fill="#82001E" stroke="none" stroke-width="1" d="M 44.544 12.995 C 44.544 12.995 58.688 27.337 58.832 28.602 C 57.348 28.646 34.376 32.724 34.376 32.724 L 14.480 27.481 L 44.544 12.995 Z " transform="matrix(1, 0, 0, 1, 21, 26)"/>
          <path id="Shape" fill="#BE0A3C" stroke="none" stroke-width="1" d="M 59.228 0.557 L 33.072 0.156 C 33.072 0.489 32.820 5.759 33.224 6.247 C 33.916 7.048 45.252 7.544 48.260 7.752 C 49.660 7.852 59.460 6.327 59.460 6.327 C 59.460 6.327 59.368 1.213 59.228 0.557 Z " transform="matrix(1, 0, 0, 1, 21, 26)"/>
          <path id="Shape" fill="#FFC800" stroke="none" stroke-width="1" d="M 14.480 27.485 L 33.224 6.275 C 33.224 6.275 45.916 9.877 48.224 12.398 C 44.016 15.196 14.480 27.485 14.480 27.485 Z " transform="matrix(1, 0, 0, 1, 21, 26)"/>
          <path id="Shape" fill="#F01446" stroke="none" stroke-width="1" d="M 77.368 28.426 C 76.020 28.610 61.912 30.683 61.912 30.683 L 53.488 28.254 C 53.488 28.254 39 12.618 33.156 6.243 C 35.156 5.539 59.460 6.327 59.460 6.327 C 59.460 6.327 75.072 24.652 77.368 28.426 Z " transform="matrix(1, 0, 0, 1, 21, 26)"/>
          <path id="Shape" fill="#BE0A3C" stroke="none" stroke-width="1" d="M 77.024 110.994 L 54.352 111.494 L 42.976 73.728 L 53.488 28.254 L 77.368 28.426 C 77.368 28.426 77.680 81.079 77.488 90.532 C 77.400 94.418 77.024 110.994 77.024 110.994 Z " transform="matrix(1, 0, 0, 1, 21, 26)"/>
          <path id="Shape" fill="#F01446" stroke="none" stroke-width="1" d="M 53.488 28.254 C 53.488 28.254 19.488 27.389 14.480 27.485 C 14.224 32.160 16.568 86.870 17.080 96.535 C 17.208 98.936 17.216 101.313 17.284 103.702 C 17.320 104.975 17.620 110.505 17.620 110.505 C 17.620 110.505 20.356 110.565 21.544 110.613 C 23.808 110.701 26.068 110.905 28.344 110.966 C 32.924 111.082 37.492 111.146 42.072 111.326 C 44.192 111.410 54.360 111.502 54.360 111.502 L 53.488 28.254 Z " transform="matrix(1, 0, 0, 1, 21, 26)"/>
          <path id="Shape" fill="#FFFFFF" stroke="none" stroke-width="1" d="M 46.328 36.538 C 46.328 36.538 24.828 35.918 21.656 35.986 C 21.492 39.335 23.160 97.571 23.656 98.415 C 24.152 99.260 25.384 98.956 26.136 98.988 C 27.568 99.052 28.996 99.200 30.432 99.240 C 33.328 99.324 36.220 99.368 39.116 99.500 C 40.456 99.560 46.888 99.628 46.888 99.628 L 46.328 36.538 Z " transform="matrix(1, 0, 0, 1, 21, 26)"/>
          <path id="Shape" fill="#82001E" stroke="none" stroke-width="1" d="M 54.352 111.494 L 54.288 106.427 L 35.040 108.961 L 34.980 107.092 C 34.980 107.092 34.704 106.419 34.332 107.128 C 34.216 107.348 34.732 111.722 34.732 111.722 L 54.352 111.494 Z " transform="matrix(1, 0, 0, 1, 21, 26)"/>
        </g>
      </g>
    </g>
  </g>
</svg>