<svg width="157px" height="122px" viewBox="0 0 157 122" version="1.1" xml:space="preserve" xmlns="http://www.w3.org/2000/svg" xmlns:xlink="http://www.w3.org/1999/xlink">
  <!-- Generator: Sketch 48.2 (47327) - http://www.bohemiancoding.com/sketch -->
  <defs/>
  <g>
    <title>takeout-d</title>
    <desc>Created with Sketch.</desc>
    <g id="food" stroke="none" stroke-width="1" fill="none" fill-rule="evenodd">
      <g id="takeout-d" fill-rule="nonzero">
        <g id="scratch_fridge_takeout04" transform="translate(81.000000, 70.500000) scale(-1, 1) translate(-81.000000, -70.500000) translate(37.000000, 22.000000)">
          <path d="M27.6336073,84.6534568 C27.6336073,84.6534568 29.7632877,90.4016049 29.1324201,90.5532922 C28.5015525,90.7049794 28.1278539,89.2160494 27.7260274,88.4855556 C27.5514891,88.1247532 27.3102205,87.7997665 27.0147945,87.5275309 L27.6336073,84.6534568 Z" id="Shape" fill="#281446"/>
          <path d="M28.2644749,71.5444856 C28.2644749,71.5444856 28.7948858,66.5348148 25.8736073,66.427037 C22.9523288,66.3192593 23.8403653,77.8155556 23.8403653,77.8155556 C23.8403653,79.0130864 24.0010959,83.887037 24.0653881,85.0845679 C24.1136073,85.9986831 24.1738813,91.7029218 25.0900457,92.2098765 C25.4235616,90.6490947 24.8007306,89.499465 25.4195434,89.5393827 C26.0383562,89.5793004 25.8494977,92.5811111 26.4964384,92.6609465 C27.143379,92.7407819 26.1709589,88.7530041 27.3603653,90.1261728 C27.5934247,90.3936214 27.3603653,92.7846914 28.2443836,92.6210288 C27.9751598,90.0463374 27.963105,75.9873251 28.2644749,71.5444856 Z" id="Shape" fill="#006482"/>
          <path d="M63.6252055,84.6534568 C63.6252055,84.6534568 61.4955251,90.4016049 62.1263927,90.5532922 C62.7572603,90.7049794 63.1430137,89.2160494 63.5488584,88.4855556 C63.7233968,88.1247532 63.9646653,87.7997665 64.2600913,87.5275309 L63.6252055,84.6534568 Z" id="Shape" fill="#008264"/>
          <path d="M62.8255708,72.8657613 C62.8255708,72.8657613 61.5517808,67.0657202 64.6297717,66.7463786 C67.7077626,66.427037 67.1572603,79.2965021 67.1572603,79.2965021 C67.1572603,80.4940329 67.2577169,83.887037 67.1934247,85.0845679 C67.1452055,85.9986831 67.0849315,91.7029218 66.1687671,92.2098765 C65.8352511,90.6490947 66.4580822,89.499465 65.8392694,89.5393827 C65.2204566,89.5793004 65.4093151,92.5811111 64.7623744,92.6609465 C64.1154338,92.7407819 65.0878539,88.7530041 63.8984475,90.1261728 C63.6653881,90.3936214 63.8984475,92.7846914 63.0144292,92.6210288 C63.2876712,90.0463374 63.1269406,77.3086008 62.8255708,72.8657613 Z" id="Shape" fill="#00A08C"/>
          <path d="M33.1466667,73.9874486 C33.1466667,73.9874486 35.8348858,92.9164198 36.6907763,95.9421811 C36.1603653,96.1417695 33.8177169,95.7904938 33.7855708,96.3732922 C33.7815502,96.5503645 33.8320166,96.7244398 33.9302283,96.8722634 L39.5839269,96.8722634 C39.6556925,96.7676738 39.7201366,96.6583077 39.7768037,96.5449383 C40.0661187,95.8783128 40.616621,74.0034156 40.616621,74.0034156 C40.616621,74.0034156 41.8783562,68.454856 37.0765297,67.7083951 C32.2747032,66.9619342 33.1466667,73.9874486 33.1466667,73.9874486 Z" id="Shape" fill="#006482"/>
          <path d="M58.6023744,73.9874486 C58.6023744,73.9874486 55.9141553,92.9164198 55.0582648,95.9421811 C55.5886758,96.1417695 57.9313242,95.7904938 57.9634703,96.3732922 C57.9674909,96.5503645 57.9170245,96.7244398 57.8188128,96.8722634 L52.1651142,96.8722634 C52.0933486,96.7676738 52.0289045,96.6583077 51.9722374,96.5449383 C51.6829224,95.8783128 51.1324201,74.0034156 51.1324201,74.0034156 C51.1324201,74.0034156 50.5859361,68.3071605 55.3917808,67.8600823 C60.1976256,67.4130041 58.6023744,73.9874486 58.6023744,73.9874486 Z" id="Shape" fill="#006482"/>
          <polygon id="Shape" fill="#281446" points="29.3333333 1.20152263 46.1979909 14.1548148 10.8493151 20.3580247 0.144657534 1.59670782"/>
          <path d="M86.0230137,49.3183128 C85.9989041,49.2744033 85.9707763,49.2304938 85.9426484,49.1865844 C83.3227397,49.0827984 73.2610046,48.9191358 69.0980822,48.9191358 L69.1543379,50.0967078 C69.1543379,50.0967078 82.5592694,50.5637449 86.0069406,50.3641564 C86.0757634,50.3236626 86.1325969,50.2658268 86.1716895,50.1965021 C86.316347,49.9330453 86.1435616,49.5618107 86.0230137,49.3183128 Z" id="Shape" fill="#828278"/>
          <path d="M63.8622831,47.8732922 L67.1612785,79.2965021 C67.1612785,79.2965021 49.6496804,79.0849383 46.2663014,78.8494239 C47.7852055,75.2568313 49.5773516,47.7136214 49.5773516,47.7136214 L63.8622831,47.8732922 Z" id="Shape" fill="#008264"/>
          <polygon id="Shape" fill="#281446" points="79.9192694 15.7355556 64.8427397 13.1927984 70.0946119 31.4591358 87.8874886 32.0938272"/>
          <path d="M72.6863927,15.3044444 C71.2237443,15.3044444 58.6907763,14.8134568 58.6907763,14.8134568 L50.1921461,32.4371193 C49.6978995,33.9300412 67.1612785,79.2965021 67.1612785,79.2965021 C67.1612785,79.2965021 75.7925114,37.8260082 76.8051142,32.6766255 C77.3194521,30.0540329 79.9192694,15.7355556 79.9192694,15.7355556 C79.9192694,15.7355556 74.9808219,15.2964609 72.6863927,15.3044444 Z" id="Shape" fill="#00A08C"/>
          <path d="M67.016621,25.3118107 L58.6907763,14.8134568 L41.1430137,14.5539918 L37.9806393,20.9128807 L46.2502283,78.8494239 C46.2502283,78.8494239 47.9780822,75.9274486 48.4723288,75.089177 C49.2357991,73.7878601 49.9148858,72.4506173 50.5497717,71.0974074 C51.6909589,68.6464609 52.9607306,66.2673663 54.0778082,63.7964609 C56.046758,59.4055144 58.1643836,54.9906173 59.8279452,50.4799177 C61.7004566,45.3864198 63.7417352,40.3088889 65.3410046,35.1235802 C66.0723288,32.7564609 67.1251142,30.3893416 67.6193607,27.9623457 C67.8644749,26.744856 67.7720548,26.3816049 67.016621,25.3118107 Z" id="Shape" fill="#78C8C8"/>
          <polygon id="Shape" fill="#00A0B4" points="60.2739726 0 41.1430137 14.5539918 79.9192694 15.7355556 87.196347 1.99588477"/>
          <path d="M64.6619178,28.5491358 C64.6619178,29.6588477 64.0230137,30.5450206 63.2354338,30.5450206 C62.4478539,30.5450206 61.8089498,29.6468724 61.8089498,28.5491358 C61.7877461,27.9310351 62.0163635,27.3301999 62.4438356,26.8805761 C62.6570021,26.6683055 62.945674,26.5478627 63.2474886,26.5452675 C63.6493151,26.5452675 64.2038356,27.1001235 64.452968,27.4633745 C64.7021005,27.8266255 64.6619178,27.9942798 64.6619178,28.5491358 Z" id="Shape" fill="#281446"/>
          <path d="M85.8703196,50.2962963 C85.9479763,50.3169631 86.0297406,50.3169631 86.1073973,50.2962963 C86.3967123,50.2004938 86.5092237,49.8132922 86.6016438,49.5538272 C86.6016438,49.5059259 86.6217352,49.4540329 86.63379,49.4061317 C84.7974429,47.5459671 80.0478539,42.9234979 80.0478539,42.9234979 C80.0478539,42.9234979 67.426484,30.8643621 64.0913242,28.3934568 C63.9426484,28.2816872 63.7859361,28.1739095 63.6211872,28.0661317 C63.4418444,28.0262475 63.2540934,28.0733699 63.1153424,28.1930905 C62.9765913,28.3128111 62.9033417,28.4908915 62.9179909,28.6728807 C62.9197232,28.7695508 62.9373688,28.8652879 62.9702283,28.9562963 C63.4845662,29.3115638 70.8621005,36.3690123 72.2443836,37.6982716 C75.1094064,40.4486008 83.8049315,47.9012346 85.8703196,50.2962963 Z" id="Shape" fill="#828278"/>
          <path d="M41.1430137,14.5539918 L7.12438356,14.6458025 C7.12438356,14.6458025 8.48657534,20.0746091 8.8,21.3799177 C9.52328767,24.3657613 14.216621,42.8516461 15.7877626,48.9630453 C17.3589041,55.0744444 19.3117808,61.0900412 20.8507763,67.2014403 C21.51379,69.8320165 23.836347,77.8155556 23.836347,77.8155556 C23.836347,77.8155556 28.0193607,78.1388889 29.3413699,78.2506584 C32.4073059,78.5141152 35.4290411,78.7097119 38.5030137,78.7855556 C40.1344292,78.8254733 41.7658447,78.9013169 43.393242,78.8893416 C45.0206393,78.8773663 46.2502283,78.8494239 46.2502283,78.8494239 L41.1430137,14.5539918 Z" id="Shape" fill="#00A0B4"/>
          <polygon id="Shape" fill="#78C8C8" points="24.5596347 30.8444033 0.393789954 30.1937449 7.12438356 14.6458025 41.1430137 14.5539918"/>
        </g>
      </g>
    </g>
  </g>
</svg>