<svg width="230px" height="145px" viewBox="0 0 230 145" version="1.1" xml:space="preserve" xmlns="http://www.w3.org/2000/svg" xmlns:xlink="http://www.w3.org/1999/xlink">
  <!-- Generator: Sketch 48.2 (47327) - http://www.bohemiancoding.com/sketch -->
  <defs/>
  <g>
    <title>triceratops-a</title>
    <desc>Created with Sketch.</desc>
    <g id="dinosaurs" stroke="none" stroke-width="1" fill="none" fill-rule="evenodd">
      <g id="triceratops-a" fill-rule="nonzero">
        <g id="scratch_dinos02a" transform="translate(54.000000, 5.000000)">
          <path d="M104.222222,99.4499871 C103.697222,96.3743328 101.702222,92.7234608 98.7116667,91.2325902 C94.675,89.2095454 81.1416667,87.0730222 74.1027778,87.0808268 L74.41,100.823466 C81.4838889,99.9978136 92.6294444,98.4130299 93.4305556,103.562599 C93.4111111,108.172167 89.4055556,110.754777 89.4055556,110.754777 C89.4055556,110.754777 93.3488889,116.201738 95.445,118.35 C100.675556,114.746084 105.361667,105.996513 104.222222,99.4499871 Z" id="Shape" fill="#BE0A3C"/>
          <path d="M64.5944444,133.646087 L64.4194444,134.307391 C60.8844444,134.107826 55.0472222,134.01 52.0955556,134.064783 C49.9294444,134.103913 48.9261111,130.37087 48.9261111,130.37087 L39.76,105.037826 L54.0555556,105.546522 C54.0555556,105.546522 61.32,125.874783 64.5944444,133.646087 Z" id="Shape" fill="#BE0A3C"/>
          <path d="M0.882777778,132.296087 C-0.198333333,130.91087 0.159444444,127.115217 0.105,125.428696 C0.0445020083,123.095203 0.157595427,120.760426 0.443333333,118.443913 C0.995555556,113.783478 1.87444444,109.13087 2.77666667,104.525217 C3.675,99.8569565 5.11,95.2630435 6.61888889,90.7630435 C7.33833333,88.6343478 8.03444444,86.49 8.78888889,84.3691304 C9.17777778,83.2304348 13.4555556,73.2834783 14.6222222,72.8295652 C14.0155556,77.8265217 20.2727778,90.8295652 20.3155556,93.2008696 C20.3505556,95.126087 11.6433333,112.335652 10.7216667,113.94 C9.48111111,116.131304 8.51666667,118.451739 7.33444444,120.670435 C5.30833333,124.505217 3.75277778,129.00913 0.882777778,132.296087 Z" id="Shape" fill="#BE0A3C"/>
          <path d="M90.16,85.8952174 C91.0583333,83.4573913 92.2911111,79.2704348 92.2911111,79.2704348 C92.2911111,79.2704348 96.11,68.756087 87.5,61.4347826 C83.7588889,58.2534783 76.6461111,51.1826087 68.4444444,50.4782609 C68.4444444,50.4782609 52.6905556,50.4782609 47.8333333,50.0869565 C38.8888889,49.3904348 34.7472222,52.2078261 34.7472222,52.2078261 C32.4138889,52.5991304 27.3583333,56.2930435 25.6316667,57.8073913 C23.7905449,59.4395312 22.0587974,61.1924926 20.4477778,63.0547826 C16.8583333,67.1947826 13.4477778,71.6908696 12.1761111,77.1417391 C10.9705556,82.263913 10.9472222,87.8165217 11.3983333,93.0247826 C11.6588889,95.9869565 11.8455556,98.9921739 12.3433333,101.923043 C12.5805556,103.327826 17.7022222,117.723913 19.5261111,122.063478 C20.3622222,124.047391 21.4044444,125.827826 22.3688889,127.737391 C23.0494444,129.083478 26.4716667,134.260435 27.3311111,134.483478 C28.7583333,134.851304 37.7144444,135.211304 39.7755556,134.311304 C38.745,126.234783 34.405,118.623913 33.6972222,110.48087 C43.4777778,110.633478 59.5311111,110.089565 67.9855556,110.089565 C76.44,110.089565 83.1522222,100.905652 85.3961111,96.0456522 C85.2483333,95.8265217 88.9077778,89.3073913 90.16,85.8952174 Z" id="Shape" fill="#F01446"/>
          <path d="M75.7361111,102.130435 C74.06,102.345652 63.9138889,104.016522 62.1988889,104.294348 C64.3144444,107.616522 71.3144444,123.108261 74.8144444,130.022609 C75.7438889,131.857826 77.8866667,134.326957 77.8866667,134.326957 C77.8866667,134.326957 86.9244444,134.432609 90.51,134.111739 C90.3466667,133.79087 77.2955556,103.613478 75.7361111,102.130435 Z" id="Shape" fill="#F01446"/>
          <path d="M62.7705556,10.526087 C60.13,8.28 58.1388889,-0.223043478 63.3616667,0.594782609 C66.0294444,2.25782609 70.2177778,5.36478261 71.6877778,8.23304348 C69.2222222,8.89826087 65.3022222,10.0565217 62.7705556,10.526087 Z" id="Shape" fill="#BE0A3C"/>
          <path d="M42.9838889,22.0304348 C41.6616667,23.6973913 40.7166667,25.5521739 39.3788889,27.2347826 C37.6483333,25.5130435 31.4805556,20.6491304 34.2688889,17.9295652 C36.6877778,15.57 41.5488889,20.0543478 42.9838889,22.0304348 Z" id="Shape" fill="#A0640A"/>
          <path d="M56.175,13.3043478 C54.4872222,14.4782609 52.4922222,16.5913043 50.7305556,17.6478261 C48.6111111,16.1686957 44.3333333,8.2173913 48.2222222,7.14521739 C50.5555556,6.50347826 55.8327778,11.0386957 56.175,13.3043478 Z" id="Shape" fill="#BE0A3C"/>
          <path d="M85.8277778,8.7573913 C83.1833333,8.36608696 79.6405556,8.64391304 77.0038889,8.36608696 C74.7522222,6.44478261 73.8927778,-0.907826087 78.1316667,0.54 C80.7061111,1.42826087 84.7155556,6.40956522 85.8277778,8.7573913 Z" id="Shape" fill="#BE0A3C"/>
          <path d="M32.83,53.5852174 C30.6911111,52.7008696 21.1633333,46.5143478 26.005,43.9513043 C27.3661111,43.2313043 32.6783333,45.446087 33.2111111,46.9486957 C33.5066667,47.79 32.83,52.3878261 32.83,53.5852174 Z" id="Shape" fill="#A0640A"/>
          <path d="M33.6388889,39.7408696 C31.745,38.3047826 26.2188889,34.2391304 27.1911111,31.3278261 C28.3305556,27.896087 34.58,31.5156522 36.0111111,32.8656522 C34.8856723,35.0262389 34.0861685,37.3433753 33.6388889,39.7408696 Z" id="Shape" fill="#BE0A3C"/>
          <path d="M111.809444,37.4869565 C110.253889,34.8926087 108.282222,31.2534783 106.753889,28.7256522 C108.239444,26.5421739 114.803889,14.0204348 115.912222,11.5786957 C118.552778,10.7334783 117.036111,20.97 116.868889,22.05 C116.305,25.7673913 114.061111,34.3526087 111.809444,37.4869565 Z" id="Shape" fill="#E6781E"/>
          <path d="M123.561667,64.6747826 C122.523333,60.1552174 119.334444,51.3704348 119.334444,51.3704348 L115.562222,48.8426087 L90.3894444,48.5217391 L92.2911111,79.2821739 C92.2911111,79.2821739 103.386111,79.2508696 108.535,79.2821739 C111.576111,79.3056522 114.613333,79.4895652 117.642778,79.6734783 C119.952778,79.8182609 123.215556,80.1234783 125.443889,79.2821739 C126.182778,74.5982609 124.603889,69.2295652 123.561667,64.6747826 Z" id="Shape" fill="#C8C8BE"/>
          <path d="M107.442222,24.7891304 C105.294037,21.7382413 102.854462,18.906065 100.158333,16.3330435 C97.318725,13.6341205 94.089344,11.3833924 90.58,9.6573913 C89.2817046,8.99373325 87.9003558,8.5093642 86.4733333,8.2173913 C85.225,7.99826087 82.46,7.16086957 81.2038889,7.59130435 C77.1244444,6.71869565 72.5666667,7.38 68.4716667,7.90434783 C65.6586224,8.2428189 62.8967779,8.92344368 60.2466667,9.93130435 C58.7455556,10.5104348 54.3238889,12.7682609 53.9155556,12.9952174 C49.035,15.7069565 40.7905556,23.3726087 40.2811111,23.9517391 C36.5555556,28.173913 33.2072222,34.0434783 32.7677778,39.33 C31.6593629,43.9771672 31.4927146,48.8013919 32.2777778,53.5147826 C32.2777778,57.1304348 34.58,60.7186957 36.9172222,63.2973913 C39.4022222,66.0130435 42.6377778,69.2295652 46.6394444,69.0691304 C50.9988889,68.8930435 50.1394444,64.7256522 52.0061111,62.1117391 C53.7327778,59.6973913 57.19,57.6547826 59.8811111,59.8147826 C65.2905556,64.1582609 62.6033333,75.3926087 69.8988889,78.1513043 C73.3055556,79.4386957 77.7272222,78.9886957 81.3088889,79.11 C84.8905556,79.2313043 92.2911111,79.286087 92.2911111,79.286087 C92.2911111,79.286087 96.1022222,67.5782609 98.6883333,62.0686957 C100.504444,58.2104348 102.783333,55.2756522 105.991667,53.3386957 C107.954704,52.2578988 110.100157,51.5533435 112.318889,51.2608696 C114.648489,51.0314751 116.996196,51.0629722 119.318889,51.3547826 C119.318889,51.3547826 116.390556,41.9634783 112.886667,34.1373913 C111.058889,29.9973913 107.827222,25.3291304 107.442222,24.7891304 Z" id="Shape" fill="#F04650"/>
          <path d="M88.9427778,20.966087 C88.9427778,20.966087 92.8005556,27.1252174 96.2694444,31.8208696 C97.1911111,33.0691304 99.4233333,35.733913 101.64,36.6652174 C104.560556,37.9095652 107.422778,37.0565217 106.870556,34.7086957 C106.209444,31.9226087 100.722222,25.0434783 97.3,20.9465217 C96.845,20.4065217 95.7444444,18.9234783 94.465,18.2347826 C91.2566667,16.5052174 86.9322222,16.0826087 88.9427778,20.966087 Z" id="Shape" fill="#F01446"/>
          <path d="M116.581111,48.4786957 C115.805691,48.9775255 114.925715,49.2883008 114.010556,49.3865217 C112.37282,49.546613 110.719964,49.426212 109.122222,49.0304348 C107.271111,48.3808696 107.430556,44.726087 108.270556,43.2704348 C109.460556,41.223913 111.793889,39.4904348 113.357222,37.706087 C114.788333,36.0704348 116.441111,33.4291304 118.323333,32.2943478 C119.315,35.1078261 119.101111,38.246087 118.657778,41.1417391 C118.3,43.466087 117.802222,47.5278261 116.581111,48.4786957 Z" id="Shape" fill="#FFC800"/>
          <path d="M78.0383333,42.5308696 C78.0383333,42.5308696 66.6322222,42.8869565 66.9005556,40.4530435 C67.27,37.08 69.1522222,33.2647826 70.4005556,30.153913 C71.8083333,26.6321739 77.6727778,11.61 79.6638889,11.3713043 C80.8383333,12.1304348 78.0383333,42.5308696 78.0383333,42.5308696 Z" id="Shape" fill="#FFC800"/>
          <path d="M118.910556,75.0013043 C118.809444,75.4708696 118.051111,76.4726087 113.318333,76.4726087 C108.585556,76.4726087 107.096111,75.3378261 106.963889,74.5591304 C106.831667,73.7804348 109.55,73.4126087 113.575,73.4126087 C117.6,73.4126087 119,74.5278261 118.910556,75.0013043 Z" id="Shape" fill="#000000"/>
          <path d="M76.4244444,56.1013043 L77.2022222,55.71 C77.8361111,56.4104348 78.4233333,58.9578261 76.9533333,59.1104348 C75.4833333,59.2630435 76.1055556,56.8056522 76.4244444,56.1013043 Z" id="Shape" fill="#000000"/>
          <path d="M123.165,54.3913043 L123.942778,54 C124.576667,54.7004348 125.163889,57.2478261 123.693889,57.4004348 C122.223889,57.5530435 122.842222,55.1113043 123.165,54.3913043 Z" id="Shape" fill="#000000"/>
          <path d="M116.705556,67.406087 L117.483333,67.0147826 C118.113333,67.7152174 118.700556,70.2626087 117.230556,70.4152174 C115.760556,70.5678261 116.386667,68.1104348 116.705556,67.406087 Z" id="Shape" fill="#828278"/>
          <path d="M109.946667,67.2221739 L110.724444,66.8308696 C111.354444,67.5313043 111.941667,70.0786957 110.471667,70.2313043 C109.001667,70.383913 109.627778,67.9265217 109.946667,67.2221739 Z" id="Shape" fill="#828278"/>
        </g>
      </g>
    </g>
  </g>
</svg>