<svg version="1.1" width="104" height="139" viewBox="-1 -1 104 139" xmlns="http://www.w3.org/2000/svg" xmlns:xlink="http://www.w3.org/1999/xlink">
  <!-- Exported by Scratch - http://scratch.mit.edu/ -->
  <g id="space" transform="matrix(1, 0, 0, 1, -23, -9)">
    <g id="dotory-c">
      <g id="dotory-walk-3">
        <path id="Shape" fill="#FFFFFF" stroke="none" stroke-width="1" d="M 56.607 30.300 L 43.815 31.300 L 36.030 33.900 L 26.948 40.500 L 21.359 47.900 L 17.167 57.100 L 16.667 65.700 L 18.763 73.800 L 24.353 80.700 L 30.940 85.500 L 40.721 89.400 L 49.105 91.900 L 67.848 92.700 L 77.350 91.400 L 88.428 86.000 L 97.211 77.400 L 100.804 65.700 L 100.804 56.400 L 97.211 48.100 L 85.734 37.800 L 71.760 32.700 L 56.607 30.300 " transform="matrix(1, 0, 0, 1, 23, 9)"/>
        <path id="Shape" fill="#FCB322" stroke="none" stroke-width="1" d="M 92.121 50.500 L 82.440 52.000 L 74.356 53.999 L 66.471 50.500 L 58.736 50.500 L 51.629 51 L 44.513 54 L 29.442 52.250 L 26.149 54.600 L 24.951 58.636 L 24.951 70.600 L 26.149 75.200 L 28.145 76.900 L 37.127 70.600 L 37.527 75 L 42.417 82.900 L 47.009 87.100 L 52.798 91.100 L 48.106 92.300 L 38.724 92.701 L 24.951 91.300 L 20.759 89.500 L 18.663 88.800 L 13.973 90.900 L 9.781 87.900 C 9.781 87.900 8.383 85.000 8.483 84.700 C 8.583 84.400 8.478 79.600 8.478 79.600 L 10.380 74.300 L 8.478 73.219 L 5.689 73.219 L 3.094 75.500 L 1.797 79.600 L 1.797 84.500 L 3.892 90.299 L 7.984 95.000 L 9.581 96.800 L 7.685 101.699 L 6.787 108.400 L 6.088 112.900 L 4.192 116.999 L 1.797 122.000 C 1.797 122.000 1.697 124.799 1.797 125.099 C 1.897 125.399 3.394 129.100 3.394 129.100 L 7.286 131.000 L 10.979 130.300 L 15.171 126.700 L 19.063 118.600 L 20.560 116.600 L 23.455 122.500 L 27.447 127.300 L 33.335 129.899 L 37.727 129.100 L 39.523 127.000 L 39.324 123.400 L 37.527 118.600 L 35.631 115.600 L 40.721 114.899 L 48.007 114.299 L 46.937 119.699 L 46.937 126.800 L 47.408 131.900 C 47.408 131.900 49.803 134.800 50.202 135.200 C 50.602 135.599 53.795 136.300 53.795 136.300 L 59.584 134.000 L 62.279 129.400 L 63.177 116.200 L 64.216 112.900 L 67.847 117.299 L 74.954 124.400 L 78.447 125.399 L 83.437 125.399 L 86.631 123.700 L 87.729 120.299 L 86.931 117.299 L 82.041 109.400 L 78.947 106.199 L 75.154 100.499 L 73.856 98.999 L 74.455 92.200 L 72.659 91.000 L 74.555 88.400 L 81.442 82.700 L 85.035 75.400 L 86.333 67.000 L 90.424 71.999 L 94.117 73.700 L 95.714 72.400 L 96.912 66.500 L 93.917 51.800 L 92.121 50.500 Z " transform="matrix(1, 0, 0, 1, 23, 9)"/>
        <path id="Shape" fill="#71CBD2" stroke="none" stroke-width="1" d="M 38.525 79.400 C 38.525 79.400 22.903 78.048 20.759 78.500 C 18.616 78.952 17.566 82.400 17.566 82.400 L 17.566 85.400 L 19.063 88.400 L 23.355 91.300 L 32.437 92.700 L 31.738 94.900 L 30.441 98.900 L 30.141 103.700 L 31.040 108.700 L 35.531 115.300 L 46.210 114.800 L 43.615 110.399 C 43.615 110.399 42.317 103.499 42.417 103.199 C 42.517 102.899 43.715 93.400 43.715 93.400 L 46.210 92.381 L 52.598 91.799 L 48.306 87.800 L 40.222 81.100 L 38.525 79.400 Z " transform="matrix(1, 0, 0, 1, 23, 9)"/>
        <path id="Shape" fill="#2A3D98" stroke="none" stroke-width="1" d="M 62.332 66.290 C 60.944 66.892 60.160 66.842 59.681 65.646 C 59.285 64.659 59.651 64.204 60.542 64.091 C 62.071 63.899 63.615 63.675 65.144 63.727 C 65.773 63.748 66.500 64.351 66.929 64.892 C 67.082 65.086 66.596 65.990 66.202 66.351 C 65.921 66.608 65.304 66.498 64.593 66.580 C 65.128 67.166 65.498 67.856 66.070 68.144 C 67.445 68.834 68.878 69.470 70.357 69.881 C 72.461 70.467 74.461 68.377 74.956 66.293 C 75.125 65.582 75.103 64.618 76.257 64.814 C 77.016 64.942 78.064 66.831 77.675 67.431 C 76.440 69.340 75.383 71.353 72.882 72.096 C 70.613 72.769 68.732 72.082 66.834 71.099 C 66.148 70.743 65.531 70.252 64.786 69.759 C 63.522 71.681 61.714 72.655 59.590 73.082 C 57.554 73.491 55.662 72.932 53.864 72.052 C 52.853 71.558 49.939 69.326 50.842 67.924 C 51.740 66.531 53.472 69.238 54.109 69.707 C 55.267 70.559 56.721 70.832 58.130 70.870 C 59.731 70.912 61.245 70.259 62.113 68.853 C 62.478 68.261 62.266 67.313 62.332 66.290 Z " transform="matrix(1, 0, 0, 1, 23, 9)"/>
        <path id="Shape" fill="#2A3D98" stroke="none" stroke-width="1" d="M 68.679 58.367 C 69.133 58.063 69.690 58.145 70.141 58.998 C 71.507 61.579 67.843 62.515 67.848 60.140 C 67.849 59.420 68.206 58.684 68.679 58.367 Z " transform="matrix(1, 0, 0, 1, 23, 9)"/>
        <path id="Shape" fill="#2A3D98" stroke="none" stroke-width="1" d="M 56.230 61.843 C 54.741 61.502 55.091 59.100 56.373 58.695 C 58.032 58.171 58.700 61.261 56.839 61.810 C 56.612 61.877 56.410 61.884 56.230 61.843 Z " transform="matrix(1, 0, 0, 1, 23, 9)"/>
        <path id="Shape" fill="#EF463C" stroke="none" stroke-width="1" d="M 55.255 1.200 L 51.629 1.800 L 48.206 4.800 L 47.009 8.700 L 47.907 13.700 L 52.199 16.700 L 57.960 16.100 L 62.678 12.800 L 64.216 8.600 L 62.379 4.400 L 59.584 1.700 L 55.255 1.200 " transform="matrix(1, 0, 0, 1, 23, 9)"/>
        <path id="Shape" fill="#2A3D98" stroke="none" stroke-width="1" d="M 75.608 93.104 C 75.495 95.125 75.370 96.879 75.316 98.635 C 75.301 99.106 75.356 99.698 75.625 100.043 C 78.340 103.531 81.120 106.967 83.852 110.441 C 85.447 112.470 86.972 114.551 87.833 117.032 C 88.197 118.082 88.799 119.092 88.945 120.167 C 89.308 122.864 87.590 124.604 85.738 126.136 C 84.032 127.548 81.883 127.504 79.887 127.220 C 77.966 126.947 75.920 126.698 74.376 125.252 C 72.143 123.164 69.476 121.545 67.864 118.780 C 67.025 117.340 65.787 116.133 64.730 114.821 C 64.597 114.824 64.465 114.827 64.332 114.831 C 64.274 115.985 64.174 117.140 64.166 118.294 C 64.150 120.589 64.495 122.936 64.131 125.170 C 63.431 129.473 62.750 133.945 58.305 136.324 C 55.225 137.972 52.114 138.270 49.053 136.242 C 46.731 134.705 45.721 132.357 45.594 129.740 C 45.459 126.965 45.610 124.162 45.849 121.390 C 45.997 119.683 46.543 118.011 46.994 115.942 C 45.079 116.036 43.163 116.095 41.249 116.215 C 39.762 116.308 38.264 115.856 36.788 116.032 C 39.507 120.169 43.316 125.782 38.585 130.123 C 37.956 130.701 36.982 131.075 36.117 131.194 C 31.974 131.767 28.407 130.670 25.729 127.267 C 24.985 126.322 24.124 125.461 23.450 124.469 C 22.489 123.056 21.653 121.558 20.675 119.952 C 20.342 120.472 19.944 121.001 19.641 121.581 C 17.697 125.288 15.516 128.812 11.979 131.235 C 8.584 133.561 3.244 132.608 1.358 128.260 C 0.024 125.183 0.142 122.072 1.953 119.082 C 2.901 117.517 3.602 115.802 4.416 114.157 C 5.669 111.625 5.761 108.889 5.781 106.151 C 5.802 103.301 6.750 100.738 8.080 98.282 C 8.238 97.990 8.502 97.754 8.615 97.617 C 7.603 96.586 6.511 95.620 5.600 94.504 C 4.569 93.241 3.498 91.942 2.803 90.485 C 1.480 87.711 0.380 84.724 0.614 81.649 C 0.867 78.346 1.871 75.144 4.294 72.617 C 5.330 71.537 8.330 71.182 9.916 72.326 C 11.184 73.241 11.498 74.925 10.801 76.806 C 10.234 78.333 9.649 79.877 9.322 81.466 C 8.638 84.784 10.660 88.371 13.800 89.579 C 14.155 89.716 14.688 89.559 15.074 89.389 C 15.457 89.221 15.732 88.822 16.099 88.597 C 17.567 87.694 17.534 87.723 16.790 86.050 C 15.925 84.106 16.082 82.519 17.096 80.695 C 17.301 80.326 19.955 77.235 20.452 77.856 C 18.315 75.188 16.836 72.740 16.100 69.336 C 15.525 66.679 15.555 63.749 15.477 61.036 C 15.395 58.183 16.582 55.400 17.553 52.777 C 18.309 50.731 19.308 48.780 20.425 46.910 C 24.004 40.912 29.038 36.422 35.118 33.118 C 38.336 31.370 41.810 30.410 45.521 30.205 C 49.448 29.987 53.362 29.512 57.485 29.131 C 57.336 28.149 57.111 26.933 56.976 25.708 C 56.731 23.480 56.521 21.250 56.336 19.017 C 56.267 18.180 55.825 18.082 55.102 18.092 C 50.005 18.161 46.970 15.641 46.179 10.496 C 45.774 7.864 46.664 4.923 48.429 2.926 C 52.242 -1.392 60.626 -0.861 63.336 4.409 C 64.886 7.423 65.195 10.638 63.727 13.783 C 63.053 15.226 61.708 16.129 60.161 16.610 C 58.906 17.000 58.338 16.841 58.387 18.302 C 58.437 19.742 59.045 21.118 59.187 22.548 C 59.300 23.689 59.326 24.875 59.474 26.006 C 59.584 26.851 59.424 27.801 59.711 28.616 C 60.101 29.730 60.647 29.560 61.705 29.612 C 64.009 29.728 66.268 30.252 68.543 30.596 C 72.698 31.223 76.857 32.737 80.865 33.983 C 82.065 34.357 83.165 35.229 84.319 35.773 C 85.645 36.399 87.003 36.972 88.230 37.786 C 89.839 38.852 91.024 40.251 92.426 41.508 C 98.898 47.309 103.865 55.426 102.599 64.423 C 102.148 67.628 101.656 70.885 100.390 73.886 C 99.152 76.824 97.545 79.163 95.531 81.623 C 92.264 85.613 87.463 88.927 82.768 91.019 C 80.657 91.960 78.299 92.341 76.050 92.971 C 75.805 93.038 75.563 93.118 75.608 93.104 Z M 30.526 77.918 C 27.326 78.989 26.563 77.741 25.275 75.567 C 24.574 74.384 24.290 72.858 24.152 71.454 C 23.607 65.950 23.980 60.452 24.797 55.004 C 24.982 53.772 25.902 52.573 26.724 51.553 C 27.046 51.154 28.029 51.199 28.712 51.196 C 31.068 51.187 33.427 51.182 35.779 51.302 C 37.115 51.371 38.456 51.553 39.770 51.802 C 40.931 52.021 42.334 51.847 43.422 52.280 C 44.249 52.610 44.279 53.398 45.188 53.022 C 45.943 52.711 46.718 51.698 47.460 51.250 C 49.142 50.233 51.038 49.616 52.961 49.258 C 56.646 48.571 61.140 48.588 64.860 49.073 C 67.954 49.475 71.250 50.588 73.924 52.255 C 74.370 52.532 75.022 52.855 75.450 52.727 C 78.588 51.782 81.656 50.581 84.823 49.760 C 86.870 49.230 89.094 48.811 91.154 49.054 C 93.823 49.367 95.102 51.557 95.554 54.091 C 96.210 57.765 96.635 61.485 97.412 65.131 C 97.924 67.534 97.549 69.817 97.152 72.120 C 96.849 73.874 95.791 74.711 94.058 74.564 C 93.022 74.476 91.862 74.221 91.036 73.641 C 89.478 72.545 88.121 71.160 86.788 69.991 C 86.517 71.796 86.337 73.810 85.882 75.760 C 85.497 77.411 85.106 79.210 84.158 80.545 C 82.590 82.757 81.035 85.049 78.782 86.716 C 76.883 88.121 75.076 89.652 73.087 91.238 C 74.694 90.953 76.238 90.875 77.641 90.389 C 79.958 89.587 82.243 88.637 84.429 87.529 C 86.028 86.718 87.493 85.615 88.934 84.532 C 91.289 82.762 93.411 80.857 95.035 78.363 C 96.507 76.103 98.233 73.672 99.158 71.126 C 100.093 68.554 100.287 65.779 100.181 63.063 C 100.067 60.164 99.344 57.274 98.737 54.413 C 97.787 49.933 95.219 46.408 91.699 43.636 C 90.364 42.584 89.173 41.048 87.732 40.187 C 86.776 39.615 85.640 39.120 84.630 38.616 C 82.448 37.527 80.281 36.196 77.973 35.366 C 75.655 34.533 73.204 33.880 70.814 33.377 C 68.032 32.792 65.604 32.099 62.756 32.099 C 57.266 32.099 51.866 32.131 46.396 32.360 C 42.847 32.509 39.484 33.443 36.347 34.998 C 30.926 37.683 26.451 41.543 23.232 46.714 C 22.120 48.500 21.343 50.470 20.216 52.228 C 17.350 56.699 16.982 63.511 18.148 68.624 C 19.206 73.266 21.847 77.043 25.488 80.136 C 26.764 81.221 27.983 82.329 29.477 83.145 C 31.365 84.178 33.050 85.633 35.007 86.480 C 37.836 87.705 40.811 88.426 43.727 89.395 C 45.910 90.119 47.583 91.088 49.959 90.523 C 48.882 90.087 47.803 89.583 46.835 88.979 C 45.277 88.008 43.874 86.801 42.616 85.468 C 41.519 84.307 40.201 83.110 39.315 81.796 C 39.106 81.485 38.948 80.709 38.723 80.519 C 38.194 80.071 37.133 80.377 36.403 80.401 C 35.242 80.440 34.286 80.308 33.176 80.082 C 32.512 79.946 30.526 80.163 30.224 79.323 C 30.092 78.956 30.396 78.431 30.526 77.918 Z M 38.495 72.892 C 38.702 73.821 39.087 74.723 39.350 75.653 C 39.704 76.902 39.991 78.107 40.721 79.202 C 42.360 81.659 44.375 83.798 46.708 85.637 C 49.615 87.928 53.040 89.582 56.678 90.495 C 58.852 91.040 60.993 91.757 63.363 91.534 C 69.311 90.971 74.220 88.486 78.379 84.242 C 81.397 81.162 83.801 77.785 84.274 73.388 C 84.581 70.540 84.991 67.526 83.486 64.951 C 82.186 62.728 80.381 60.783 78.681 58.818 C 77.754 57.746 76.675 56.747 75.499 55.964 C 71.716 53.447 66.964 51.505 62.412 51.295 C 58.906 51.133 55.325 50.990 51.927 51.947 C 50.760 52.276 49.506 52.649 48.482 53.297 C 46.434 54.592 43.982 55.984 42.774 58.175 C 41.237 60.964 39.738 63.852 39.030 66.983 C 38.722 68.345 38.549 69.803 38.384 71.182 C 38.313 71.769 38.372 72.336 38.495 72.892 Z M 50.085 112.560 C 50.539 113.522 49.724 114.524 49.349 115.321 C 48.685 116.729 48.431 118.518 48.142 120.040 C 47.492 123.463 47.334 126.982 47.915 130.427 C 47.985 130.840 48.166 131.244 48.353 131.623 C 49.650 134.249 51.628 135.403 54.656 134.988 C 58.132 134.513 60.735 132.374 61.319 128.878 C 61.710 126.532 61.910 124.152 62.146 121.783 C 62.230 120.932 62.359 120.014 62.135 119.221 C 61.620 117.400 62.189 115.692 62.428 113.950 C 62.475 113.603 62.776 113.220 63.068 112.991 C 64.488 111.879 65.958 110.830 67.386 109.726 C 69.697 107.939 71.428 105.703 72.295 102.889 C 72.726 101.487 73.086 100.043 73.274 98.592 C 73.488 96.944 73.474 95.267 73.561 93.590 C 68.997 93.782 64.740 93.962 60.484 94.142 C 56.976 94.291 53.464 93.737 49.951 94.293 C 48.766 94.480 47.519 94.244 46.306 94.308 C 44.275 94.417 44.001 95.944 43.656 97.735 C 43.229 99.949 43.238 102.503 43.482 104.738 C 43.746 107.158 44.124 109.652 45.392 111.776 C 45.918 112.656 46.582 113.618 47.711 113.158 C 48.415 112.871 49.166 111.178 49.962 112.347 C 50.011 112.418 50.051 112.489 50.085 112.560 Z M 20.531 115.401 C 19.236 115.075 18.102 114.810 16.979 114.502 C 16.202 114.288 15.756 113.758 16.007 112.941 C 16.254 112.139 16.899 111.953 17.675 112.171 C 19.053 112.558 20.420 112.992 21.813 113.315 C 25.581 114.190 29.389 114.740 33.506 114.695 C 30.863 111.554 29.342 108.108 29.132 104.276 C 28.927 100.551 28.993 96.769 31.469 93.449 C 29.771 93.271 28.314 93.041 26.851 92.981 C 24.116 92.868 21.720 91.939 19.549 90.301 C 19.242 90.069 18.627 89.912 18.329 90.063 C 16.819 90.826 15.052 91.412 13.958 92.599 C 11.443 95.327 9.475 98.514 8.761 102.237 C 8.348 104.389 8.409 106.627 8.099 108.803 C 7.704 111.571 7.069 114.241 5.407 116.641 C 4.056 118.593 3.055 120.810 2.868 123.256 C 2.668 125.861 3.403 128.092 5.843 129.397 C 7.661 130.369 9.636 130.429 11.250 129.142 C 12.852 127.864 14.455 126.409 15.540 124.703 C 17.382 121.808 18.816 118.654 20.531 115.401 Z M 66.215 113.171 C 67.680 115.180 68.909 117.002 70.278 118.712 C 73.459 122.687 77.273 125.399 82.726 124.720 C 84.665 124.479 85.862 123.254 86.657 121.692 C 87.303 120.423 86.936 118.941 86.316 117.743 C 85.637 116.429 84.993 114.755 84.023 113.636 C 82.589 111.982 80.950 110.451 79.703 108.602 C 79.192 107.845 78.373 107.304 77.776 106.596 C 76.683 105.301 75.649 103.955 74.409 102.402 C 73.149 107.152 70.325 110.501 66.215 113.171 Z M 42.434 54.782 C 41.905 54.614 41.500 54.403 41.080 54.367 C 37.309 54.043 33.539 53.693 29.762 53.471 C 27.900 53.361 27.106 54.077 26.783 55.985 C 25.777 61.919 25.532 67.862 26.738 73.808 C 27.158 75.877 28.066 76.395 29.961 75.362 C 32.895 73.763 34.942 71.234 36.615 68.407 C 37.063 67.651 37.237 66.730 37.519 65.879 C 38.342 63.395 39.037 60.860 40.021 58.442 C 40.545 57.156 41.563 56.071 42.434 54.782 Z M 77.951 54.446 C 79.282 55.930 80.499 57.155 81.562 58.501 C 83.138 60.499 84.597 62.589 86.121 64.629 C 87.742 66.799 89.339 68.989 91.042 71.092 C 91.443 71.587 92.208 71.806 92.832 72.094 C 93.913 72.589 94.611 72.116 94.933 71.080 C 95.594 68.953 95.930 66.797 95.285 64.591 C 95.189 64.262 95.162 63.913 95.100 63.575 C 94.502 60.302 93.882 57.032 93.314 53.753 C 92.978 51.811 91.605 51.170 89.674 51.442 C 87.713 51.718 85.756 52.101 83.839 52.596 C 81.885 53.101 79.982 53.800 77.951 54.446 Z M 33.536 128.675 C 33.797 128.688 34.061 128.738 34.317 128.711 C 35.934 128.535 37.741 128.348 38.425 126.706 C 39.057 125.188 39.111 123.391 38.078 121.897 C 36.920 120.221 35.641 118.628 34.383 117.023 C 34.261 116.869 33.916 116.858 33.670 116.837 C 30.369 116.566 27.064 116.345 23.768 116.016 C 22.714 115.910 22.106 116.368 22.064 117.251 C 22.026 118.036 22.230 118.967 22.659 119.613 C 23.980 121.599 25.362 123.562 26.903 125.378 C 28.608 127.386 30.783 128.675 33.536 128.675 Z M 54.798 15.790 C 54.493 14.168 54.761 13.922 56.308 14.297 C 58.173 14.750 60.798 14.094 61.395 12.851 C 62.197 11.180 62.956 9.440 62.265 7.504 C 61.917 6.529 61.778 5.348 61.132 4.636 C 58.016 1.199 51.682 1.868 49.457 5.780 C 48.129 8.116 47.761 10.331 48.956 12.815 C 50.150 15.299 52.254 15.810 54.798 15.790 Z M 43.255 91.948 C 43.266 91.807 43.276 91.664 43.287 91.523 C 43.295 91.413 37.791 89.702 37.268 89.501 C 35.186 88.699 33.143 87.788 31.179 86.728 C 29.211 85.666 27.322 84.456 25.558 83.080 C 24.757 82.454 24.082 81.811 23.407 81.067 C 23.033 80.654 22.159 79.414 21.555 79.388 C 20.847 79.358 19.541 80.704 19.183 81.230 C 18.656 82.007 18.517 83.187 18.441 84.115 C 18.246 86.501 21.374 90.037 24.136 90.368 C 25.987 90.590 27.843 90.775 29.700 90.944 C 31.254 91.087 32.811 91.183 34.368 91.297 C 37.330 91.514 40.293 91.731 43.255 91.948 Z M 12.492 91.145 C 12.358 91.041 12.255 90.970 12.161 90.886 C 10.817 89.699 9.004 88.755 8.234 87.269 C 6.836 84.570 6.415 81.526 7.560 78.496 C 7.937 77.499 8.350 76.513 8.675 75.499 C 9.038 74.364 8.677 73.852 7.487 73.885 C 6.950 73.900 6.313 74.059 5.904 74.383 C 3.436 76.342 2.503 79.075 2.692 82.077 C 2.810 83.942 3.343 85.838 4.009 87.598 C 5.147 90.602 6.535 93.512 9.851 94.763 C 10.713 93.584 11.571 92.408 12.492 91.145 Z M 42.724 94.145 C 39.883 93.922 37.039 93.698 34.195 93.481 C 34.027 93.469 33.764 93.457 33.697 93.552 C 32.803 94.830 31.687 96.013 31.682 97.871 C 34.906 97.647 38.036 97.453 41.161 97.182 C 41.508 97.152 41.971 96.757 42.114 96.418 C 42.407 95.719 42.521 94.945 42.724 94.145 Z M 32.678 109.615 C 33.882 111.423 34.819 112.876 35.818 114.283 C 35.966 114.490 36.413 114.580 36.715 114.565 C 38.965 114.455 41.214 114.307 43.463 114.163 C 43.525 114.159 43.581 114.061 43.678 113.972 C 43.282 113.035 42.932 112.058 42.452 111.149 C 42.265 110.798 41.807 110.416 41.434 110.371 C 39.557 110.142 37.667 110.019 35.781 109.862 C 34.853 109.785 33.924 109.714 32.678 109.615 Z M 41.784 108.176 C 41.641 107.071 41.580 106.256 41.408 105.466 C 41.349 105.195 41.030 104.795 40.802 104.776 C 37.605 104.501 34.403 104.282 30.926 104.030 C 31.147 105.011 31.325 105.579 31.395 106.160 C 31.526 107.251 32.025 107.680 33.187 107.706 C 35.970 107.767 38.749 107.998 41.784 108.176 Z M 41.417 102.295 C 41.417 101.610 41.329 101.033 41.435 100.495 C 41.623 99.540 41.421 99.330 40.383 99.401 C 38.236 99.547 36.067 99.543 33.916 99.430 C 31.541 99.304 30.889 99.917 31.320 102.612 C 32.889 102.612 34.514 102.651 36.137 102.601 C 37.820 102.548 39.501 102.410 41.417 102.295 Z M 31.169 77.957 C 33.349 78.090 35.269 78.206 37.265 78.326 C 37.008 76.465 36.776 74.779 36.553 73.163 C 34.815 74.711 33.079 76.257 31.169 77.957 Z " transform="matrix(1, 0, 0, 1, 23, 9)"/>
      </g>
    </g>
  </g>
</svg>