<svg width="152px" height="136px" viewBox="0 0 152 136" version="1.1" xml:space="preserve" xmlns="http://www.w3.org/2000/svg" xmlns:xlink="http://www.w3.org/1999/xlink">
  <!-- Generator: Sketch 48.2 (47327) - http://www.bohemiancoding.com/sketch -->
  <defs/>
  <g>
    <title>referee-d</title>
    <desc>Created with Sketch.</desc>
    <g id="soccer" stroke="none" stroke-width="1" fill="none" fill-rule="evenodd">
      <g id="referee-d" fill-rule="nonzero">
        <g id="scratch_footie_player_ref04" transform="translate(90.000000, 68.500000) scale(-1, 1) translate(-90.000000, -68.500000) translate(32.000000, 5.000000)">
          <path d="M47.9120623,69.6248227 C32.1730739,70.4129433 19.8418677,71.2415957 12.3357198,71.6469149 C4.82957198,72.052234 0.117354086,72.2098582 0.0541634241,72.9574468 C0.00451361868,73.5429078 4.03066148,73.223156 5.9218677,73.3807801 C5.88575875,73.6059574 6.02116732,74.0923404 6.0663035,74.6958156 C6.22428016,76.8079787 10.2007782,77.3348936 13.0669261,77.5060284 C18.9933074,77.857305 35.1340078,78.0464539 51.0941634,78.1500355 C51.0941634,78.1500355 58.0812451,78.2130851 57.8645914,73.2681915 C57.6479377,68.3232979 47.9120623,69.6248227 47.9120623,69.6248227 Z" id="Shape" fill="#828278"/>
          <path d="M5.65105058,70.9758865 C4.88824903,70.9083333 5.09587549,71.4037234 5.93089494,71.7279787 C6.50548916,71.9422298 7.10181129,72.0932429 7.7092607,72.1783333 C7.7092607,72.1783333 7.2263035,74.6642908 10.1827237,74.1103546 C11.5593774,73.8536525 11.3968872,72.2774113 10.155642,71.6153901 C8.7248249,70.8452837 6.05727626,71.0119149 5.65105058,70.9758865 Z" id="Shape" fill="#3C3C32"/>
          <path d="M83.9171984,92.71 L83.2085603,107.688794 L75.4090272,107.634752 L75.494786,92.0479787 C75.494786,92.0479787 74.7049027,84.3694326 80.0084047,83.5452837 C85.3119066,82.7211348 83.9171984,92.71 83.9171984,92.71 Z" id="Shape" fill="#828278"/>
          <path d="M74.9757198,106.941206 L83.709572,106.941206 L81.0014008,123.090922 C81.0014008,123.090922 84.7477043,122.84773 85.8851362,123.698901 L85.6368872,124.207801 C84.2828016,124.541064 85.4924514,126.00922 84.2828016,126.328972 C83.9262257,125.711986 84.5536187,123.379149 82.928716,124.207801 C82.9648249,124.797766 83.235642,125.950674 82.7075486,126.459574 L82.2110506,126.346986 C82.0575875,125.554362 82.454786,124.766241 82.0666148,124.054681 C81.6467952,123.89172 81.172417,123.956419 80.8118288,124.225816 L80.9562646,126.28844 L80.1077043,126.500106 L80.1077043,124.653652 C79.6337743,124.608617 79.4622568,124.090709 78.9341634,124.203298 C78.8890272,124.95539 79.2456031,126.56766 78.0314397,126.16234 C77.9817899,125.518333 78.3744747,124.811277 77.8283268,124.194291 L76.9707393,124.194291 C76.6999222,124.491525 76.8849805,126.040745 76.8849805,126.238901 L76.3929961,126.603688 L75.9416342,126.337979 C75.8874708,125.549858 75.2781323,109.773936 74.9757198,106.941206 Z" id="Shape" fill="#000000"/>
          <rect id="Rectangle-path" fill="#FFFFFF" transform="translate(79.412607, 107.468121) rotate(-180.000000) translate(-79.412607, -107.468121) " x="74.5604669" y="106.450319" width="9.70428016" height="2.03560284"/>
          <rect id="Rectangle-path" fill="#FFFFFF" transform="translate(79.410350, 111.111489) rotate(-180.000000) translate(-79.410350, -111.111489) " x="75.0073152" y="110.093688" width="8.80607004" height="2.03560284"/>
          <rect id="Rectangle-path" fill="#FFFFFF" transform="translate(78.958988, 114.331525) rotate(-180.000000) translate(-78.958988, -114.331525) " x="74.9215564" y="113.354255" width="8.07486381" height="1.95453901"/>
          <path d="M57.1198444,93.5341489 L58.1805447,107.688794 L65.9755642,107.612234 C65.9755642,107.612234 67.2529183,84.5856028 61.8365759,83.9956383 C56.4202335,83.4056738 57.1198444,93.5341489 57.1198444,93.5341489 Z" id="Shape" fill="#828278"/>
          <path d="M66.4178988,106.941206 L57.6795331,106.941206 L60.3877043,123.090922 C60.3877043,123.090922 56.6414008,122.84773 55.5039689,123.698901 L55.7522179,124.207801 C57.1063035,124.541064 55.8966537,126.00922 57.1063035,126.328972 C57.4628794,125.711986 56.8354864,123.379149 58.4603891,124.207801 C58.4242802,124.797766 58.153463,125.950674 58.6815564,126.459574 L59.1780545,126.346986 C59.3315175,125.554362 58.9343191,124.766241 59.3224903,124.054681 C59.7423099,123.89172 60.2166881,123.956419 60.5772763,124.225816 L60.4328405,126.28844 L61.2814008,126.500106 L61.2814008,124.653652 C61.7553307,124.608617 61.9268482,124.090709 62.4549416,124.203298 C62.5000778,124.95539 62.1435019,126.56766 63.3576654,126.16234 C63.4073152,125.518333 63.0146304,124.811277 63.5607782,124.194291 L64.4183658,124.194291 C64.6891829,124.491525 64.5041245,126.040745 64.5041245,126.238901 L64.9961089,126.603688 L65.4474708,126.337979 C65.5016342,125.549858 66.1109728,109.773936 66.4178988,106.941206 Z" id="Shape" fill="#000000"/>
          <rect id="Rectangle-path" fill="#FFFFFF" x="57.124358" y="106.450319" width="9.70428016" height="2.03560284"/>
          <rect id="Rectangle-path" fill="#FFFFFF" x="57.5757198" y="110.093688" width="8.80607004" height="2.03560284"/>
          <rect id="Rectangle-path" fill="#FFFFFF" x="58.3926848" y="113.354255" width="8.07486381" height="1.95453901"/>
          <path d="M115.832996,68.7376241 C114.072685,56.7446809 105.573541,42.3333333 92.077821,43.7969858 C91.3255512,43.881052 90.5732815,43.996643 89.8210117,44.1437589 C93.0437354,38.834078 96.564358,33.655 99.4621012,28.3002837 C102.003268,23.6075887 109.157354,11.9298936 109.157354,11.9298936 L104.427082,0.671028369 L98.7850584,4.30989362 C98.7850584,4.30989362 77.6342412,37.7892553 71.4957198,47.8501773 C66.6074708,55.8439716 61.9223346,63.4189362 60.7623346,73.0385106 C59.7964202,81.032305 61.9900389,88.4226241 68.6431128,93.3044681 C71.9967315,95.7679078 75.5354086,96.3533688 79.5435019,97.3576596 C86.4493385,99.0870213 93.6034241,100.343511 99.9405447,97.3576596 C112.059611,91.6606738 116,80.6900355 115.832996,68.7376241 Z" id="Shape" fill="#000000"/>
          <polygon id="Shape" fill="#000000" points="43.7821012 42.9548227 36.6957198 57.8480496 64.6982101 59.0279787 71.5273152 43.2070213"/>
          <path d="M60.4192996,57.2265603 C59.9679377,61.4779078 56.4202335,63.9818794 52.0059144,63.6756383 C49.0088716,63.4684752 46.2420233,61.1446454 46.1607782,57.9561348 C46.0840467,54.8892199 49.3925292,52.3086879 52.141323,51.682695 C55.2105837,50.9891489 59.9002335,51.9574113 60.4192996,57.2265603 Z" id="Shape" fill="#A0640A"/>
          <polygon id="Shape" fill="#828278" points="70.2409339 47.8456738 45.7951751 47.8321631 41.2680156 58.2758865 36.1540856 57.7084397 42.8568093 41.9505319 73.08 41.0453191"/>
          <path d="M67.5237354,1.35106383 C63.6420233,7.20567376 57.52607,16.4289362 53.7120623,22.3646099 C52.9131518,23.5985816 43.1140856,37.4244681 38.871284,45.6614539 C32.100856,58.8118085 30.065214,68.9718085 30.4217899,75.8352128 C30.5256031,77.7987589 31.6720623,86.4455674 35.1926848,90.4762411 C40.5819455,96.6460993 49.1171984,98.3439362 49.1171984,98.3439362 L88.101323,98.9519149 C88.101323,98.9519149 73.0709728,95.2049645 68.8236576,88.6432979 C66.2018685,84.4073518 64.6972498,79.5782183 64.4499611,74.6057447 C64.2017121,65.5356028 68.9364981,56.7401773 73.2379767,49.0886525 C77.7515953,41.0318085 101.141167,4.41347518 104.142724,1.27450355 L67.5237354,1.35106383 Z M65.0367315,55.6007801 L39.9410117,55.6503191 C39.9410117,55.6503191 43.2359533,47.7420922 44.2605447,46.156844 L69.9881712,46.1838652 L65.0367315,55.6007801 Z" id="Shape" fill="#3C3C32"/>
          <path d="M105.009339,0.117092199 C104.106615,0.193652482 67.1761868,0.238687943 66.2554086,0.342269504 C65.672684,0.359634518 65.118068,0.5961072 64.7027237,1.00429078 L64.4905837,1.5537234 L64.5718288,2.13468085 C65.014002,2.5829418 65.6380033,2.80376036 66.2644358,2.73365248 C67.1671595,2.61656028 101.976187,2.61656028 102.896965,2.6570922 L105.009339,0.117092199 Z" id="Shape" fill="#000000"/>
          <path d="M102.910506,2.6570922 L108.173385,13.7042908 C108.173385,13.7042908 109.477821,14.0870922 110.014942,13.2809574 C110.34062,12.7791842 110.514557,12.1944338 110.515953,11.5966312 L105.009339,0.117092199 L102.910506,2.6570922 Z" id="Shape" fill="#000000"/>
          <path d="M105.167315,75.9928369 C104.068165,79.4225865 101.910062,82.4176413 99.0017121,84.5495745 C95.6345525,86.9634752 91.5136187,87.8416667 87.6499611,86.5806738 C84.5612698,85.5315713 82.0211635,83.2938719 80.5951751,80.3657801 C78.672589,76.4029647 78.3999749,71.8420125 79.8368872,67.6792908 C81.0448963,63.8592698 83.5761203,60.5929443 86.9774319,58.4650355 C90.136965,56.5465248 93.4228794,55.6278014 96.907393,56.7717021 C103.92607,59.0775177 107.875486,67.845922 105.167315,75.9928369 Z" id="Shape" fill="#3C3C32"/>
          <path d="M100.780078,74.5156738 C100.062753,76.7595417 98.6517667,78.7191637 96.7494163,80.1135816 C94.6357747,81.7216131 91.8749024,82.2145437 89.3335409,81.4376241 C87.3171255,80.7538434 85.658046,79.2946471 84.7251362,77.3844326 C83.4700684,74.7956638 83.2931858,71.8164184 84.2331518,69.0979078 C85.0227025,66.6014455 86.6771553,64.4669513 88.9002335,63.0766667 C90.9719844,61.8246809 93.1114397,61.2212057 95.3953307,61.9687943 C99.9585992,63.4639716 102.526848,69.1924823 100.780078,74.5156738 Z" id="Shape" fill="#828278"/>
          <rect id="Rectangle-path" fill="#000000" transform="translate(22.574701, 50.436036) rotate(9.030000) translate(-22.574701, -50.436036) " x="19.0743893" y="50.0712488" width="7.00062257" height="1"/>
          <rect id="Rectangle-path" fill="#000000" transform="translate(25.566952, 55.703345) rotate(-23.700000) translate(-25.566952, -55.703345) " x="22.0666405" y="55.3385577" width="7.00062257" height="1"/>
          <rect id="Rectangle-path" fill="#000000" transform="translate(26.232042, 45.087498) rotate(43.630000) translate(-26.232042, -45.087498) " x="22.7317304" y="44.7227106" width="7.00062257" height="1"/>
          <path d="M93.5537743,112.376986 C93.5537743,112.376986 92.420856,116.880532 92.3982879,117.718191 C92.3757198,118.555851 92.7593774,118.555851 93.0798444,117.650638 C93.385599,116.943603 93.7981149,116.287481 94.303035,115.705106 L93.5537743,112.376986 Z" id="Shape" fill="#3C3C32"/>
          <path d="M96.5508171,72.9574468 C96.5508171,72.9574468 97.3993774,68.4539007 92.6916732,68.4539007 C87.9839689,68.4539007 88.6294163,73.2051418 88.6294163,73.2051418 C89.0311284,77.8798227 93.7929961,120.159113 94.2217899,120.09156 C94.6505837,120.024007 94.6054475,116.939078 95.1245136,116.939078 C95.6435798,116.939078 95.7835019,120.469858 96.3025681,120.514894 C96.8216342,120.559929 96.5733852,116.939078 97.0518288,116.849007 C97.5302724,116.758936 97.7198444,119.776312 97.9545525,119.767305 C98.5232685,119.708759 96.5508171,72.9574468 96.5508171,72.9574468 Z" id="Shape" fill="#828278"/>
          <path d="M98.5142412,112.048227 L98.5142412,110.638617 C97.6792218,110.557553 95.2915175,110.535035 94.4519844,110.449468 C94.4113619,110.647624 94.5557977,111.841064 94.5242023,112.079752 C94.6415564,112.057234 96.9750973,112.057234 98.5142412,112.048227 Z" id="Shape" fill="#F01446"/>
          <path d="M96.2484047,109.301064 C96.9435019,110.773723 97.3136187,112.584149 95.7970428,113.597447 C95.3115436,113.950113 94.7051922,114.095166 94.1122017,114.000499 C93.5192112,113.905832 92.9884896,113.579253 92.6375097,113.09305 C91.486537,111.525816 91.734786,109.864007 93.0301946,109.192979 C94.0726029,108.788352 95.2356258,108.827413 96.2484047,109.301064 Z" id="Shape" fill="#000000"/>
          <path d="M95.368249,110.314362 C95.7383658,111.097979 95.936965,112.066241 95.12,112.606667 C94.8615554,112.800302 94.5353656,112.880884 94.2162281,112.829936 C93.8970905,112.778988 93.6123838,112.60088 93.427393,112.336454 C92.8135409,111.498794 92.9489494,110.616099 93.6350195,110.255816 C94.1960185,110.035345 94.8234783,110.05654 95.368249,110.314362 Z" id="Shape" fill="#3C3C32"/>
        </g>
      </g>
    </g>
  </g>
</svg>