<svg width="114px" height="117px" viewBox="0 0 114 117" version="1.1" xml:space="preserve" xmlns="http://www.w3.org/2000/svg" xmlns:xlink="http://www.w3.org/1999/xlink">
  <!-- Generator: Sketch 48.2 (47327) - http://www.bohemiancoding.com/sketch -->
  <defs/>
  <g>
    <title>strawberry-d</title>
    <desc>Created with Sketch.</desc>
    <g id="food" stroke="none" stroke-width="1" fill="none" fill-rule="evenodd">
      <g id="strawberry-d" fill-rule="nonzero">
        <g id="scratch_fridge_strawberry04" transform="translate(25.000000, 9.000000)">
          <path d="M42.516,68.0735223 C40.116,66.9753036 36.784,66.2498381 34.46,69.1276518 C30.484,74.0536032 37.808,76.1498381 37.808,76.1498381 C37.808,76.1498381 41.716,76.4424291 41.808,86.6991498 C41.876,92.8515789 39.46,98.7995951 39.46,98.7995951 C39.46,98.7995951 40.784,98.7995951 42.048,98.8957895 C43.312,98.9919838 44.104,99.0320648 43.648,98.2023887 C43.556,98.0340486 41.952,98.2745344 41.952,98.2745344 C41.952,98.2745344 46.288,94.791498 48.292,86.1460324 C49.644,80.314251 47.852,74.9233603 46.54,72.0295142 C45.642659,70.3230328 44.2358322,68.9399823 42.516,68.0735223 Z" id="Shape" fill="#82001E"/>
          <path d="M10.14,90.6551417 C10.14,90.6551417 11.12,87.3564777 11.244,87.5849393 L12.444,92.7954656 C12.444,92.7954656 12.808,94.4267611 12.488,94.7233603 C12.272,94.9237652 11.372,93.5209312 10.82,92.1742105 L10.796,92.1140891 L10.14,90.6551417 Z" id="Shape" fill="#82001E"/>
          <path d="M11.104,95.0359919 C10.996,96.4909312 11.104,97.6212146 10.8,97.6172065 C10.496,97.6131984 10.256,96.6712955 10.12,95.7935223 C10.036,95.2524291 9.948,94.8395951 9.792,94.8075304 C9.392,94.7273684 9.556,97.9899595 8.936,97.9057895 C8.316,97.8216194 8.684,94.8476113 7.864,94.5510121 C7.044,94.254413 7.712,97.3566802 6.664,97.1322267 C6.372,97.0640891 6.232,93.7814575 6.028,90.0659514 C5.776,85.5688664 4.028,53.5121053 8.62,53.5121053 C13.212,53.5121053 11.572,88.6310526 11.104,95.0359919 Z" id="Shape" fill="#BE0A3C"/>
          <path d="M53.008,90.6551417 C53.008,90.6551417 52.028,87.3564777 51.904,87.5849393 L50.704,92.7954656 C50.704,92.7954656 50.34,94.4267611 50.66,94.7233603 C50.876,94.9237652 51.776,93.5209312 52.328,92.1742105 L52.352,92.1140891 L53.008,90.6551417 Z" id="Shape" fill="#82001E"/>
          <path d="M52.044,95.0359919 C52.152,96.4909312 52.044,97.6212146 52.348,97.6172065 C52.652,97.6131984 52.892,96.6712955 53.028,95.7935223 C53.112,95.2524291 53.2,94.8395951 53.356,94.8075304 C53.756,94.7273684 53.592,97.9899595 54.212,97.9057895 C54.832,97.8216194 54.464,94.8476113 55.284,94.5510121 C56.104,94.254413 55.436,97.3566802 56.484,97.1322267 C56.776,97.0640891 56.916,93.7814575 57.12,90.0659514 C57.372,85.5688664 59.12,53.5121053 54.528,53.5121053 C49.936,53.5121053 51.576,88.6310526 52.044,95.0359919 Z" id="Shape" fill="#BE0A3C"/>
          <path d="M20.096,68.0735223 C22.496,66.9753036 25.828,66.2498381 28.152,69.1276518 C32.128,74.0576113 24.8,76.1538462 24.8,76.1538462 C24.8,76.1538462 20.892,76.4464372 20.8,86.7031579 C20.732,92.855587 23.148,98.8036032 23.148,98.8036032 C23.148,98.8036032 21.824,98.8036032 20.56,98.8997976 C19.296,98.9959919 18.504,99.0360729 18.96,98.2063968 C19.052,98.0380567 20.656,98.2785425 20.656,98.2785425 C20.656,98.2785425 16.32,94.7955061 14.316,86.1500405 C12.964,80.3182591 14.756,74.9273684 16.068,72.0335223 C16.9657223,70.3249449 18.3740857,68.9403572 20.096,68.0735223 Z" id="Shape" fill="#82001E"/>
          <path d="M30.372,19.1346559 C29.612,16.5334008 27.512,13.2307287 27.512,13.2307287 L23.356,14.7858704 L19.456,15.4832794 C19.456,15.4832794 25.764,22.9904453 26.172,23.4553846 C27.0558598,24.4737075 28.0954677,25.3449578 29.252,26.0365992 C30.2192212,26.5477815 31.2708747,26.8791254 32.356,27.0145749 C32.356,27.0145749 31.104,21.6437247 30.372,19.1346559 Z" id="Shape" fill="#A0AA1E"/>
          <path d="M32.324,26.854251 C32.324,26.854251 33.672,24.6337652 34.416,23.1187045 C35.216,21.4954251 35.988,19.9122267 36.912,18.3370445 C38.7431234,15.130095 40.7599017,12.0332263 42.952,9.06230769 C44.896,6.5091498 47,3.66340081 49.632,1.76356275 C51.88,0.160323887 55.752,-1.23048583 57.632,1.78761134 C59.268,4.39287449 56.948,8.47712551 55.632,10.765749 C53.836,13.8559919 51.4,16.1606478 48.7,18.4292308 C46.608,20.1887854 38.428,25.5436032 34.04,27.5236032 C33.108,27.9444534 32.324,26.854251 32.324,26.854251 Z" id="Shape" fill="#82783C"/>
          <path d="M32.988,27.0626721 C34.56,26.152834 36.7,25.74 38.424,25.0826721 C40.66,24.2289474 42.912,23.4273279 45.164,22.6176923 C48.432,21.4433198 51.88,20.2809717 55.372,21.2509312 C56.636,21.6036437 58.848,22.4533603 58.644,24.0966802 C58.456,25.6277733 55.996,26.4334008 54.804,26.7981377 C53.0516754,27.2973225 51.2575848,27.6354016 49.444,27.8081781 C48.424,27.9284211 37.044,27.5316194 32.988,27.0626721 Z" id="Shape" fill="#A0AA1E"/>
          <path d="M31.452,88.9476923 C27.5082386,88.9668777 23.6525366,87.7797198 20.4,85.5448178 C18.24,84.0417814 16.536,81.7772065 15.076,79.612834 C12.896,76.3782996 10.756,73.0756275 8.744,69.7288664 C5.10108074,63.7062042 2.43588242,57.14201 0.848,50.2815789 C-0.4,44.7263563 -0.792,34.4776518 4.964,31.0427126 C7.912,29.2751417 12.28,28.2651012 15.62,27.5757085 C18.512,26.978502 21.364,26.2289879 24.336,25.9724696 C26.032,25.8361943 27.744,25.6798785 29.424,25.944413 C30.716,26.1488259 31.344,26.8622672 32.276,26.8702834 C32.456,26.8702834 33.628,26.2169636 33.952,26.1368016 C34.61125,26.007393 35.2803775,25.9349809 35.952,25.9203644 C38.088,25.7961134 40.096,26.1368016 42.192,26.4534413 C47.604,27.2550607 53.312,29.3232389 57.548,32.8944534 C62.832,37.3474494 61.972,44.1612146 60.508,50.2895951 C58.908,57.0392308 53.192,72.3822267 47.708,79.8212551 C42.224,87.2602834 34.7,88.9797571 31.452,88.9476923 Z" id="Shape" fill="#BE0A3C"/>
          <path d="M5.036,35.72417 C5.036,35.72417 5.608,34.2131174 8.136,32.8824291 C11.3289304,31.3171561 14.9128892,30.734194 18.436,31.2070445 C26.624,32.4695951 25.604,59.5082186 15.844,59.5082186 C10.556,59.5082186 6.98,57.2276113 5.304,52.0531579 C3.888,47.6963563 2.872,40.9266802 5.036,35.72417 Z" id="Shape" fill="#F01446"/>
          <path d="M46.08,38.3093927 C46.08,38.3093927 46.252,37.371498 47.576,36.3374089 C49.2611413,35.0923839 51.2766088,34.3755004 53.368,34.277247 C58.244,34.1449798 60.5,49.9088259 54.844,50.9509312 C51.78,51.5080567 49.468,50.5501215 47.952,47.7444534 C46.672,45.3596356 45.372,41.5519433 46.08,38.3093927 Z" id="Shape" fill="#F01446"/>
          <path d="M11.74,63.4802429 C11.74,63.4802429 12.02,62.9151012 13.36,62.3579757 C15.1254522,61.6849016 17.0085775,61.3767746 18.896,61.4521457 C23.344,61.6725911 23.316,71.5204858 18.04,71.8010526 C15.18,71.9533603 13.204,71.2278947 12.2,69.3961943 C11.348,67.8530769 10.668,65.4321862 11.74,63.4802429 Z" id="Shape" fill="#F01446"/>
          <ellipse id="Oval" fill="#F04650" cx="26.216" cy="69.3080162" rx="1" ry="1.02607287"/>
          <ellipse id="Oval" fill="#F04650" cx="45.284" cy="40.9387045" rx="1" ry="1.02607287"/>
          <ellipse id="Oval" fill="#F04650" cx="42.144" cy="36.1650607" rx="1" ry="1.02607287"/>
          <ellipse id="Oval" fill="#F04650" cx="49.176" cy="36.6420243" rx="1" ry="1.02607287"/>
          <ellipse id="Oval" fill="#F04650" cx="37.768" cy="31.3713765" rx="1" ry="1.02607287"/>
          <ellipse id="Oval" fill="#F04650" cx="29.58" cy="33.9405668" rx="1" ry="1.02607287"/>
          <ellipse id="Oval" fill="#F04650" cx="22.864" cy="33.2351417" rx="1" ry="1.02607287"/>
          <ellipse id="Oval" fill="#F04650" cx="14.356" cy="33.042753" rx="1" ry="1.02607287"/>
          <ellipse id="Oval" fill="#F04650" cx="20.384" cy="41.4477328" rx="1" ry="1.02607287"/>
          <ellipse id="Oval" fill="#F04650" cx="11.776" cy="40.9507287" rx="1" ry="1.02607287"/>
          <ellipse id="Oval" fill="#F04650" cx="36.496" cy="71.6246964" rx="1" ry="1.02607287"/>
          <ellipse id="Oval" fill="#F04650" cx="33.34" cy="39.8805668" rx="1" ry="1.02607287"/>
          <ellipse id="Oval" fill="#F04650" cx="35.62" cy="46.4578543" rx="1" ry="1.02607287"/>
          <ellipse id="Oval" fill="#F04650" cx="27.872" cy="41.5319028" rx="1" ry="1.02607287"/>
          <ellipse id="Oval" fill="#F04650" cx="19.284" cy="75.2880972" rx="1" ry="1.02607287"/>
          <ellipse id="Oval" fill="#F04650" cx="26.216" cy="47.8967611" rx="1" ry="1.02607287"/>
          <ellipse id="Oval" fill="#F04650" cx="14.392" cy="64.8710526" rx="1" ry="1.02607287"/>
          <ellipse id="Oval" fill="#F04650" cx="21.236" cy="54.6423887" rx="1" ry="1.02607287"/>
          <ellipse id="Oval" fill="#F04650" cx="13.944" cy="54.3778543" rx="1" ry="1.02607287"/>
          <ellipse id="Oval" fill="#F04650" cx="46.448" cy="52.8868421" rx="1" ry="1.02607287"/>
          <ellipse id="Oval" fill="#F04650" cx="52.772" cy="41.4477328" rx="1" ry="1.02607287"/>
          <ellipse id="Oval" fill="#F04650" cx="53.396" cy="51.5481377" rx="1" ry="1.02607287"/>
          <ellipse id="Oval" fill="#F04650" cx="56.78" cy="46.1772874" rx="1" ry="1.02607287"/>
          <ellipse id="Oval" fill="#F04650" cx="56.976" cy="36.5658704" rx="1" ry="1.02607287"/>
          <ellipse id="Oval" fill="#F04650" cx="45.16" cy="30.2130364" rx="1" ry="1.02607287"/>
          <ellipse id="Oval" fill="#F04650" cx="5.808" cy="37.2873279" rx="1" ry="1.02607287"/>
          <ellipse id="Oval" fill="#F04650" cx="4.076" cy="51.0351012" rx="1" ry="1.02607287"/>
          <ellipse id="Oval" fill="#F04650" cx="2.34" cy="44.7103239" rx="1" ry="1.02607287"/>
          <ellipse id="Oval" fill="#F04650" cx="32.408" cy="51.2715789" rx="1" ry="1.02607287"/>
          <ellipse id="Oval" fill="#F04650" cx="49.816" cy="60.4340891" rx="1" ry="1.02607287"/>
          <ellipse id="Oval" fill="#F04650" transform="translate(38.314386, 55.918793) rotate(-68.500000) translate(-38.314386, -55.918793) " cx="38.3143858" cy="55.9187926" rx="1.024" ry="1"/>
          <ellipse id="Oval" fill="#F04650" cx="41.508" cy="44.7103239" rx="1" ry="1.02607287"/>
          <ellipse id="Oval" fill="#F04650" cx="29.024" cy="60.0493117" rx="1" ry="1.02607287"/>
          <ellipse id="Oval" fill="#F04650" cx="48.836" cy="46.7544534" rx="1" ry="1.02607287"/>
          <ellipse id="Oval" fill="#F04650" cx="50.088" cy="69.1156275" rx="1" ry="1.02607287"/>
          <ellipse id="Oval" fill="#F04650" cx="41.732" cy="63.524332" rx="1" ry="1.02607287"/>
          <ellipse id="Oval" fill="#F04650" cx="16.72" cy="47.9608907" rx="1" ry="1.02607287"/>
          <ellipse id="Oval" fill="#F04650" cx="9.736" cy="46.5460324" rx="1" ry="1.02607287"/>
          <path d="M20.672,13.2267206 C19.6776661,13.1836161 18.6815035,13.2157722 17.692,13.322915 C16.004,18.6536842 14.864,20.3571255 15.808,25.6919028 C16.528,29.7521053 18.7,31.4274899 21.868,29.2991903 C24.224,27.6959514 25.068,24.8902834 25.868,22.0325101 C26.692,19.0865587 27.196,18.3450607 27.496,13.2788259 C25.232,13.2547773 22.948,13.3389474 20.672,13.2267206 Z" id="Shape" fill="#82783C"/>
          <path d="M41.496,47.0911336 C37.536,48.2935628 35.42,45.3075304 32.612,41.5479352 C30.248,38.3855466 31.328,27.7560729 32.324,26.854251 C37.26,30.0607287 47.964,45.1391903 41.496,47.0911336 Z" id="Shape" fill="#82783C"/>
        </g>
      </g>
    </g>
  </g>
</svg>