<svg width="136px" height="109px" viewBox="0 0 136 109" version="1.1" xml:space="preserve" xmlns="http://www.w3.org/2000/svg" xmlns:xlink="http://www.w3.org/1999/xlink">
  <!-- Generator: Sketch 48.2 (47327) - http://www.bohemiancoding.com/sketch -->
  <defs/>
  <g>
    <title>egg-d</title>
    <desc>Created with Sketch.</desc>
    <g id="food" stroke="none" stroke-width="1" fill="none" fill-rule="evenodd">
      <g id="egg-d" fill-rule="nonzero">
        <g id="scratch_fridge_egg04" transform="translate(13.000000, 2.000000)">
          <path d="M15.4050558,32.96 C16.3806691,34.784 16.5211896,43.88 16.0956134,46.204 C15.7798053,48.0427422 14.7878903,49.6983672 13.3133086,50.848 C13.1366543,50.992 10.2901115,52.848 8.05784387,52.872 C5.07078067,52.904 2.40892193,50.872 1.36907063,48.596 C-0.0802973978,45.436 0.104386617,41.824 0.0562081784,38.324 C0.00802973978,34.724 0.200743494,32.98 4.12728625,32.876 C7.86513011,32.776 11.6431227,32.892 15.4050558,32.96 Z" id="Shape" fill="#000000"/>
          <path d="M2.84654275,43.768 C4.31598513,43.9 4.39226766,41.676 4.45249071,40.056 C4.49263941,38.96 4.45249071,36.456 3.36446097,36.352 C0.891301115,36.088 1.37710037,43.636 2.84654275,43.768 Z" id="Shape" fill="#FFFFFF"/>
          <path d="M7.68446097,43.768 C9.15390335,43.9 9.23018587,41.676 9.29040892,40.056 C9.33055762,38.96 9.29040892,36.456 8.20237918,36.352 C5.72520446,36.088 6.21100372,43.636 7.68446097,43.768 Z" id="Shape" fill="#FFFFFF"/>
          <path d="M12.5625279,43.768 C14.0319703,43.9 14.1082528,41.676 14.1684758,40.056 C14.2086245,38.96 14.1684758,36.456 13.0804461,36.352 C10.6032714,36.088 11.0890706,43.636 12.5625279,43.768 Z" id="Shape" fill="#FFFFFF"/>
          <path d="M4.81784387,71.004 C9.52327138,73.804 15.922974,75.1 21.2788104,73.236 C23.7640149,72.372 26.1849814,70.836 28.7344238,70.212 C31.1433457,69.62 31.6933829,67.98 34.0581413,71.012 C36.4228996,74.044 33.3234201,76 32.3478067,76.356 C30.7616784,76.9039485 29.1399331,77.3436326 27.493829,77.672 C24.4433007,78.2980505 21.3274476,78.5505866 18.2154647,78.424 C15.348791,78.3182736 12.5168704,77.762087 9.82438662,76.776 C6.71286245,75.576 5.62081784,74.12 4.81784387,71.004 Z" id="Shape" fill="#DCD2B4"/>
          <path d="M8.31479554,74 L7.58810409,65.008 C7.58810409,65.008 4.10319703,67.204 4.82185874,71.008 C5.54052045,74.812 8.31479554,74 8.31479554,74 Z" id="Shape" fill="#DCD2B4"/>
          <polygon id="Shape" fill="#DCD2B4" points="11.0649814 74.096 9.32654275 68.812 8.8929368 73.664"/>
          <path d="M8.79256506,51.736 C8.76446097,51.336 8.9330855,48.36 7.87315985,48.332 C6.8132342,48.304 6.93769517,50.576 6.93769517,50.576 C6.60446097,58.904 7.49174721,76.204 7.33918216,79.616 C7.29501859,80.576 6.65263941,85.36 7.33918216,86.08 C7.69249071,86.452 9.40684015,86.148 9.74810409,85.728 C10.1495911,85.192 9.82438662,82.772 9.81234201,82.128 C9.75211896,80 8.86081784,52.668 8.79256506,51.736 Z" id="Shape" fill="#3C3C32"/>
          <path d="M95.3652045,87.424 C95.9072119,90.224 98.0792565,89.732 98.0792565,89.732 L99.0910037,85.9 L95.3652045,87.424 Z" id="Shape" fill="#DCD2B4"/>
          <path d="M93.5464684,90.444 C93.1449814,89.536 91.9967286,87.56 91.6795539,86.844 C91.7558364,86.16 98.8782156,84.488 99.3318959,84.328 C100.600595,83.88 101.885353,83.472 103.166097,83.044 L106.470335,81.944 L107.626617,83.852 C104.856357,85.076 96.429145,89.168 93.5464684,90.444 Z" id="Shape" fill="#828278"/>
          <path d="M95.9553903,90.828 L69.674052,93.08 C69.674052,93.08 71.2278067,98.056 75.6642379,101.204 C77.989752,102.849374 80.7734706,103.729089 83.6257249,103.72 C86.9420074,103.756 89.0939777,102.816 91.5149442,100.736 C94.4819331,98.176 95.5820074,94.556 95.9553903,90.828 Z" id="Shape" fill="#828278"/>
          <path d="M95.9112268,91.016 C95.8590335,94.324 90.5834944,98.676 86.8255762,100.184 C81.4817844,102.332 76.4672119,100.084 74.9776952,99.404 C72.5687732,98.296 69.7583643,95.356 69.6017844,92.604 C69.2002974,85.48 74.8692937,81.888 81.3814126,81.6 C85.0349442,81.44 87.9015613,82 91.0171004,83.8 C92.3018587,84.548 95.9553903,87.708 95.9112268,91.016 Z" id="Shape" fill="#000000"/>
          <path d="M95.2487732,74.064 C89.3348699,68.604 78.8600743,67.372 76.6679554,66.44 C76.6679554,66.44 73.7330855,64.84 72.2515985,68.272 C70.7701115,71.704 74.3594052,72.488 74.3594052,72.488 C77.2942751,73.764 86.4361338,73.908 92.8278067,77.448 C94.4337546,78.348 96.1360595,80.496 97.3686245,82.392 L97.6697398,82.864 L98.0712268,89.724 C101.242974,89.168 101.845204,88.004 101.845204,88.004 C101.714733,85.8804537 101.248626,83.7907368 100.464089,81.812 C99.2098252,78.9365931 97.4428258,76.3114958 95.2487732,74.064 Z" id="Shape" fill="#DCD2B4"/>
          <path d="M75.6281041,92.964 C75.6281041,92.964 77.5994052,89.192 83.0435688,89.428 C88.4877323,89.664 90.1418587,92.1 87.8614126,93.12 C85.5809665,94.14 83.0435688,96.108 80.289368,96.028 C77.5351673,95.948 74.0502602,95.56 75.6281041,92.964 Z" id="Shape" fill="#FFFFFF"/>
          <ellipse id="Oval" fill="#FFDC00" cx="79.6389591" cy="93.464" rx="2.73412639" ry="1.696"/>
          <path d="M35.0337546,73.976 C36.5232714,81.664 40.2209665,100.296 40.3253532,101.512 C39.2252788,101.764 38.26171,100.96 37.1415613,101.36 L37.0090706,102.196 C37.3418119,102.55631 37.8315212,102.729917 38.3179182,102.66 C39.1208922,102.66 39.9238662,102.684 40.7509294,102.708 C42.087881,102.744 42.0115985,102.792 43.3485502,102.828 C43.504319,102.811395 43.657797,102.777862 43.8062454,102.728 C43.9266914,102.484 44.7296654,68.772 39.0084758,68.672 C33.2872862,68.572 35.0337546,73.976 35.0337546,73.976 Z" id="Shape" fill="#AAA082"/>
          <path d="M61.8571004,101.032 C62.5034944,99.588 65.5668401,82.06 66.927881,73.972 C66.927881,73.972 67.915539,67.88 62.1943494,67.488 C56.4731599,67.096 58.0670632,102.576 58.3360595,102.796 C58.8379182,103.024 62.3509294,102.488 63.5553903,102.984 C64.0933829,102.896 64.583197,102.788 64.5791822,102.096 C64.3262454,101.908 62.4392565,102.196 61.6443123,101.732 C61.7015581,101.494753 61.7726074,101.261025 61.8571004,101.032 Z" id="Shape" fill="#AAA082"/>
          <path d="M79.3498885,37.976 C76.6599257,25.416 70.6376208,10.352 58.874052,3.732 C55.9391822,2.08 52.1411152,0.072 48.6843123,0.132 C46.6029015,0.262839376 44.5625089,0.768337806 42.6620074,1.624 C41.4936803,2.18 35.2866914,7.392 34.3472119,8.696 C29.127881,15.964 27.0160595,24.24 24.2096654,31.668 C22.0857993,37.268 20.9656506,43.268 19.9739777,49.18 C19.2713755,53.352 18.6129368,58.52 19.4440149,62.692 C21.4795539,72.884 29.5213383,81.492 39.249368,84.396 C40.7428996,84.844 45.7333829,86.908 52.0969517,86.98 C57.3724907,87.04 64.33829,85.228 64.6594796,85.088 C76.5033457,80.016 79.5827509,65.52 80.1528625,61.548 C81.2223001,53.701822 80.9508063,45.7318856 79.3498885,37.976 Z" id="Shape" fill="#F0E6D2"/>
          <path d="M25.8959108,67.232 C28.0599257,72.032 31.5769517,77.52 36.1418587,79.18 C37.2820818,79.58 38.7394796,80.08 39.8756877,79.76 C40.5597796,79.5288864 41.1866214,79.1552652 41.7144981,78.664 C42.5092476,77.5641374 43.1911789,76.3875731 43.7500372,75.152 C44.7457249,71.816 44.6011896,68.352 44.7778439,65.152 C44.8540126,62.7006175 44.7291367,60.2471315 44.404461,57.816 C44.2157621,56.092 43.910632,53.976 43.2,52.384 C41.4936803,48.488 37.9806691,45.736 34.4475836,45.38 C32.9533344,45.1033353 31.4193886,45.1182783 29.930855,45.424 C28.5290841,45.8320687 27.1932669,46.438234 25.9641636,47.224 C22.5595539,50.232 23.0092193,56.272 23.2220074,57.904 C23.6702509,61.1227891 24.5703561,64.2628358 25.8959108,67.232 Z" id="Shape" fill="#FAF0E6"/>
        </g>
      </g>
    </g>
  </g>
</svg>