<svg width="165px" height="137px" viewBox="0 0 165 137" version="1.1" xml:space="preserve" xmlns="http://www.w3.org/2000/svg" xmlns:xlink="http://www.w3.org/1999/xlink">
  <!-- Generator: Sketch 48.2 (47327) - http://www.bohemiancoding.com/sketch -->
  <defs/>
  <g>
    <title>max-b</title>
    <desc>Created with Sketch.</desc>
    <g id="basketball" stroke="none" stroke-width="1" fill="none" fill-rule="evenodd">
      <g id="max-b" fill-rule="nonzero">
        <g id="scratch_bball_player04b" transform="translate(13.000000, 4.000000)">
          <path d="M58.1638418,11.1206962 C51.7778531,19.6655696 45.3557627,35.3517722 65.0672881,43.4181646 C87.8354237,52.7286076 88.0520339,16.7029747 79.5400565,9.15094937 C75.3963842,5.47462025 72.4561017,5.04398734 67.9714689,5.27924051 C63.7555932,5.49455696 59.3070621,9.58955696 58.1638418,11.1206962 Z" id="Shape" fill="#BE0A3C"/>
          <path d="M69.5759887,8.07835443 C61.019887,8.07835443 60.1775141,17.9829114 60.4783616,19.2189873 C61.3287571,22.691962 62.6043503,26.8467722 66.2425989,28.35 C69.2711299,29.6020253 73.3265537,28.7048734 75.5207345,26.296519 C77.4742373,24.1513291 79.7646893,17.9231013 79.0145763,15.0721519 C79.1710169,14.5258861 78.1280791,8.07835443 69.5759887,8.07835443 Z" id="Shape" fill="#A0640A"/>
          <path d="M76.9166667,23.3458861 C80.6511864,23.1106329 82.0872316,21.3203165 81.8866667,18.1902532 C81.6018644,13.7403797 77.3177966,17.5443038 77.3177966,17.5443038 C77.3177966,17.5443038 76.5155367,22.4846203 76.9166667,23.3458861 Z" id="Shape" fill="#A0640A"/>
          <path d="M61.970565,23.3458861 C58.2400565,23.1106329 56.8,21.3203165 57.000565,18.1902532 C57.2853672,13.7403797 61.569435,17.5283544 61.569435,17.5283544 C61.569435,17.5283544 62.3716949,22.4846203 61.970565,23.3458861 Z" id="Shape" fill="#A0640A"/>
          <path d="M69.9650847,20.6823418 C70.0554015,20.6442656 70.1403516,20.5946723 70.2177966,20.5348101 C70.2439584,20.3897715 70.2613718,20.2433076 70.2699435,20.0962025 C70.3501695,18.5570886 70.3581921,17.336962 69.5037853,16.2364557 C68.5049718,16.065 68.2723164,19.390443 68.5210169,20.6903165 C68.9874732,20.8615108 69.5005709,20.8586773 69.9650847,20.6823418 Z" id="Shape" fill="#824600"/>
          <path d="M67.610452,23.5891139 L71.429209,23.4814557 C71.429209,23.4814557 70.7472881,24.7255063 69.6441808,24.6537342 C67.8551412,24.5381013 67.610452,23.5891139 67.610452,23.5891139 Z" id="Shape" fill="#000000"/>
          <path d="M74.6542938,17.2452532 C75.6330508,16.7348734 75.2479661,18.6806962 75.0554237,18.9956962 C74.1649153,18.9358861 74.3173446,17.8194304 74.6542938,17.2452532 Z" id="Shape" fill="#000000"/>
          <path d="M63.3785311,17.0618354 C64.3532768,16.555443 63.9681921,18.5012658 63.779661,18.8162658 C62.8771186,18.7405063 63.029548,17.6360127 63.3785311,17.0618354 Z" id="Shape" fill="#000000"/>
          <path d="M69.6321469,10.2235443 L79.5360452,17.9031646 C79.5360452,17.9031646 80.6030508,11.9221519 76.3671186,9.19879747 C72.1311864,6.47544304 69.6321469,10.2235443 69.6321469,10.2235443 Z" id="Shape" fill="#A0001E"/>
          <path d="M59.6239548,19.1033544 L76.5035028,8.44917722 C76.5035028,8.44917722 67.8471186,2.52 61.529322,8.505 C56.559322,13.2339873 59.6239548,19.1033544 59.6239548,19.1033544 Z" id="Shape" fill="#BE0A3C"/>
          <path d="M66.5875706,53.5021519 L47.0003955,66.2616456 C47.0003955,66.2616456 46.1981356,69.2003165 47.2932203,71.6126582 C48.2719774,73.7498734 51.0036723,75.4524684 53.4625989,74.7108228 C61.7740113,72.2107595 64.0724859,81.2341139 77.7389831,75.0377848 C82.5525424,72.8487342 84.6303955,68.191519 90.8639548,69.7106962 C93.5555367,70.3686076 95.8379661,69.3757595 96.9210169,68.1157595 C97.7881686,67.0289063 98.2171645,65.6600538 98.1244068,64.2759494 L66.5875706,53.5021519 Z" id="Shape" fill="#005A5A"/>
          <rect id="Rectangle-path" fill="#000000" x="57.8389266" y="57.4217089" width="25.8849153" height="11.9660127"/>
          <polygon id="Shape" fill="#A0640A" points="78.6535593 99.2409494 85.5489831 92.6020253 85.5128814 67.1029747 74.4938418 67.5575316 75.4405085 92.9768354"/>
          <polygon id="Shape" fill="#000000" points="87.0291525 72.3862025 87.2016384 61.4170253 72.9815819 61.7838608 73.2383051 72.3862025"/>
          <polygon id="Shape" fill="#FAF0E6" points="75.5367797 97.0957595 76.130452 113.667152 85.7375141 114.504494 85.6412429 97.1794937 80.4425989 95.2217089"/>
          <polygon id="Shape" fill="#F0E6D2" points="85.6412429 97.1794937 85.5489831 92.6020253 75.3161582 92.8811392 75.5247458 97.1794937"/>
          <polygon id="Shape" fill="#00A08C" points="91.8467232 124.779873 85.2120339 123.922595 76.2066667 124.54462 76.2748588 125.736835 92.3080226 125.972089"/>
          <path d="M90.6553672,123.491962 C89.4572265,123.42769 88.2646346,123.285168 87.0853107,123.065316 L85.8819209,110.557025 L75.8135593,110.557025 L76.2146893,124.54462 L91.8587571,124.779873 C91.7004372,124.441481 91.5663928,124.092383 91.4576271,123.73519 C91.2019662,123.619831 90.9322774,123.538067 90.6553672,123.491962 Z" id="Shape" fill="#000000"/>
          <polygon id="Shape" fill="#00A08C" points="78.3246328 117.43519 82.7651412 117.447152 82.3800565 112.706203 78.1441243 112.622468"/>
          <polygon id="Shape" fill="#005A5A" points="87.2537853 113.539557 85.1358192 113.539557 85.1358192 112.762025 87.1133898 112.762025"/>
          <polygon id="Shape" fill="#00A08C" points="87.5987571 115.357785 85.1358192 115.357785 85.1358192 114.576266 87.4583616 114.576266"/>
          <polygon id="Shape" fill="#005A5A" points="87.9477401 117.172025 85.1358192 117.172025 85.1358192 116.390506 87.8073446 116.390506"/>
          <polygon id="Shape" fill="#00A08C" points="88.2967232 118.986266 85.1358192 118.986266 85.1358192 118.204747 88.1563277 118.204747"/>
          <polygon id="Shape" fill="#005A5A" points="88.6457062 120.800506 85.1358192 120.800506 85.1358192 120.022975 88.5053107 120.022975"/>
          <polygon id="Shape" fill="#A0640A" points="63.7676271 99.2409494 56.8722034 92.6020253 56.9083051 67.1029747 67.9273446 67.5575316 66.980678 92.9768354"/>
          <polygon id="Shape" fill="#000000" points="55.3920339 72.3862025 55.219548 61.4170253 69.4436158 61.7838608 69.1828814 72.3862025"/>
          <polygon id="Shape" fill="#FAF0E6" points="66.8844068 97.0957595 66.2907345 113.667152 56.6836723 114.504494 56.7759322 97.1794937 61.9785876 95.2217089"/>
          <polygon id="Shape" fill="#F0E6D2" points="56.7759322 97.1794937 56.8722034 92.6020253 67.1050282 92.8811392 66.8964407 97.1794937"/>
          <polygon id="Shape" fill="#00A08C" points="50.5744633 124.779873 57.2091525 123.922595 66.2145198 124.54462 66.1463277 125.736835 50.1171751 125.972089"/>
          <path d="M51.7457627,123.491962 C52.9439034,123.42769 54.1364954,123.285168 55.3158192,123.065316 L56.519209,110.557025 L66.6036158,110.557025 L66.2024859,124.54462 L50.5584181,124.779873 C50.7167379,124.441481 50.8507823,124.092383 50.959548,123.73519 C51.2101197,123.621137 51.4743335,123.539398 51.7457627,123.491962 Z" id="Shape" fill="#000000"/>
          <polygon id="Shape" fill="#00A08C" points="64.0965537 117.43519 59.6560452 117.447152 60.0411299 112.706203 64.2810734 112.622468"/>
          <polygon id="Shape" fill="#005A5A" points="55.1674011 113.539557 57.2853672 113.539557 57.2853672 112.762025 55.3077966 112.762025"/>
          <polygon id="Shape" fill="#00A08C" points="54.8224294 115.357785 57.2853672 115.357785 57.2853672 114.576266 54.9588136 114.576266"/>
          <polygon id="Shape" fill="#005A5A" points="54.4734463 117.172025 57.2853672 117.172025 57.2853672 116.390506 54.6138418 116.390506"/>
          <polygon id="Shape" fill="#00A08C" points="54.1244633 118.986266 57.2853672 118.986266 57.2853672 118.204747 54.2648588 118.204747"/>
          <polygon id="Shape" fill="#005A5A" points="53.7794915 120.800506 57.2853672 120.800506 57.2853672 120.022975 53.9158757 120.022975"/>
          <path d="M136.223729,9.14696203 C135.622034,7.81518987 141.314068,5.88531646 141.438418,4.81670886 C141.562768,3.74810127 135.698249,6.4714557 135.020339,6.16841772 C134.19,5.79759494 139.075763,3.70822785 138.94339,2.3764557 C138.94339,2.16113924 130.439435,5.67797468 119.424407,10.9851266 C103.022203,18.8840506 79.0667232,30.7224684 79.0667232,30.7224684 L85.039548,40.3718354 C85.039548,40.3718354 141.249887,10.546519 141.59887,9.14696203 C141.947853,7.74740506 136.825424,10.4787342 136.223729,9.14696203 Z" id="Shape" fill="#A0640A"/>
          <path d="M130.242881,0.338924051 C131.141412,1.63481013 128.562147,3.83183544 129.392486,5.19151899 C130.222825,6.55120253 132.665706,5.39088608 132.665706,8.45316456 C132.665706,11.515443 130.956893,12.0896203 128.461864,12.6199367 C124.450565,13.4732278 124.939944,7.99063291 125.653955,6.45550633 C126.179435,5.27924051 128.802825,0.645949367 130.242881,0.338924051 Z" id="Shape" fill="#824600"/>
          <path d="M121.490226,22.0539873 C120.286836,21.0292405 115.721977,12.588038 116.030847,11.0529114 C116.339718,9.51778481 119.777401,8.18601266 121.931469,7.95075949 C122.61339,8.89177215 127.146158,16.9900633 127.362768,18.7405063 C127.579379,20.4909494 122.685593,23.0787342 121.490226,22.0539873 Z" id="Shape" fill="#005A5A"/>
          <polygon id="Shape" fill="#00A08C" points="117.113898 9.2306962 123.933107 22.2294304 126.25565 20.9215823 119.741299 8.02651899"/>
          <path d="M5.40723164,10.3431646 C6.01293785,9.01139241 0.316892655,7.08151899 0.192542373,6.01291139 C0.0681920904,4.9443038 5.93672316,7.66765823 6.61062147,7.36462025 C7.44096045,6.99379747 2.55519774,4.90443038 2.68757062,3.57265823 C2.71163842,3.35734177 11.1915254,6.87417722 22.210565,12.1813291 C38.6087571,20.0802532 62.5642373,31.9186709 62.5642373,31.9186709 L56.599435,41.568038 C56.599435,41.568038 0.401129944,11.7427215 0.0481355932,10.3431646 C-0.304858757,8.94360759 4.81355932,11.6749367 5.40723164,10.3431646 Z" id="Shape" fill="#A0640A"/>
          <path d="M11.3880791,1.53512658 C10.489548,2.83101266 13.0688136,5.02803797 12.2384746,6.37974684 C11.4081356,7.7314557 8.96926554,6.57911392 8.96926554,9.64139241 C8.96926554,12.7036709 10.6740678,13.2778481 13.1731073,13.8081646 C17.1844068,14.6614557 16.6950282,9.17886076 15.9810169,7.64373418 C15.4515254,6.47544304 12.8361582,1.8421519 11.3880791,1.53512658 Z" id="Shape" fill="#824600"/>
          <path d="M20.1407345,23.2501899 C21.3441243,22.225443 25.9089831,13.7842405 25.600113,12.2491139 C25.2912429,10.7139873 21.8575706,9.38221519 19.6994915,9.14696203 C19.0175706,10.0879747 14.4848023,18.1862658 14.2681921,19.9367089 C14.0515819,21.6871519 18.9453672,24.2749367 20.1407345,23.2501899 Z" id="Shape" fill="#005A5A"/>
          <polygon id="Shape" fill="#00A08C" points="24.5170621 10.4268987 17.7018644 23.4256329 15.379322 22.1177848 21.889661 9.22272152"/>
          <path d="M76.4834463,31.2846835 C68.3124294,34.2273418 62.5562147,31.9186709 62.5562147,31.9186709 L61.7980791,37.2896203 L64.1647458,42.349557 L79.3234463,40.3558861 L76.4834463,31.2846835 Z" id="Shape" fill="#A0640A"/>
          <path d="M80.0013559,28.4935443 L75.3602825,30.5350633 C75.3602825,30.5350633 77.9034463,37.9953797 70.679096,38.7011392 C63.4547458,39.4068987 64.7584181,31.6355696 64.7584181,31.6355696 L59.9007345,29.6418987 L47.0124294,66.2496835 C47.0124294,66.2496835 98.0281356,64.2201266 98.1364407,64.2560127 L80.0013559,28.4935443 Z" id="Shape" fill="#00A08C"/>
        </g>
      </g>
    </g>
  </g>
</svg>