<svg version="1.1" width="140" height="136" viewBox="-1 -1 140 136" xmlns="http://www.w3.org/2000/svg" xmlns:xlink="http://www.w3.org/1999/xlink">
  <!-- Exported by Scratch - http://scratch.mit.edu/ -->
  <g id="ID0.18252571765333414">
    <g id="dinosaurs">
      <g id="triceratops-b">
        <g id="scratch_dinos02b">
          <path id="Shape" fill="#BE0A3C" stroke="none" stroke-width="1" d="M 77.348 133.646 L 77.172 134.307 C 73.623 134.108 67.763 134.010 64.799 134.065 C 62.624 134.104 61.617 130.371 61.617 130.371 L 52.414 105.038 L 66.767 105.547 C 66.767 105.547 74.060 125.875 77.348 133.646 Z "/>
          <path id="Shape" fill="#BE0A3C" stroke="none" stroke-width="1" d="M 122.640 133.646 L 122.464 134.307 C 118.915 134.108 113.055 134.010 110.091 134.065 C 107.916 134.104 106.909 130.371 106.909 130.371 L 85.508 85.696 L 99.565 82.565 C 99.565 82.565 119.353 125.875 122.640 133.646 Z "/>
          <path id="Shape" fill="#BE0A3C" stroke="none" stroke-width="1" d="M 26.496 83.673 C 24.018 83.034 21.602 82.177 19.276 81.110 C 15.228 77.686 11.503 74.434 8.641 69.860 C 5.939 65.532 3.604 61.251 2.034 56.379 L 1.894 56.379 C -0.590 61.157 0.219 67.919 0.570 73.127 C 0.918 78.214 1.839 83.461 3.651 88.251 C 7.098 97.372 18.054 104.654 26.847 102.627 L 26.496 83.673 Z "/>
          <path id="Shape" fill="#F01446" stroke="none" stroke-width="1" d="M 103.016 85.895 C 103.918 83.457 105.156 79.270 105.156 79.270 C 105.156 79.270 108.990 68.756 100.346 61.435 C 96.589 58.253 89.448 51.183 81.213 50.478 C 81.213 50.478 65.396 50.478 60.520 50.087 C 51.539 49.390 47.381 52.208 47.381 52.208 C 45.038 52.599 39.962 56.293 38.229 57.807 C 36.380 59.440 34.642 61.192 33.024 63.055 C 29.420 67.195 25.996 71.691 24.719 77.142 C 23.509 82.264 23.486 87.817 23.938 93.025 C 24.200 95.987 24.387 98.992 24.887 101.923 C 25.125 103.328 30.268 117.724 32.099 122.063 C 32.938 124.047 33.985 125.828 34.953 127.737 C 35.636 129.083 39.072 134.260 39.935 134.483 C 41.368 134.851 50.360 135.211 52.430 134.311 C 51.395 126.235 47.037 118.624 46.327 110.481 C 56.147 110.633 72.264 110.090 80.753 110.090 C 89.241 110.090 95.980 100.906 98.233 96.046 C 98.085 95.827 101.759 89.307 103.016 85.895 Z "/>
          <path id="Shape" fill="#F01446" stroke="none" stroke-width="1" d="M 88.534 102.130 C 86.852 102.346 76.665 104.017 74.943 104.294 C 77.067 107.617 84.095 123.108 87.609 130.023 C 88.542 131.858 90.694 134.327 90.694 134.327 C 90.694 134.327 99.768 134.433 103.368 134.112 C 103.204 133.791 90.100 103.613 88.534 102.130 Z "/>
          <path id="Shape" fill="#BE0A3C" stroke="none" stroke-width="1" d="M 75.517 10.526 C 72.866 8.280 70.867 -0.223 76.110 0.595 C 78.789 2.258 82.994 5.365 84.470 8.233 C 81.994 8.898 78.059 10.057 75.517 10.526 Z "/>
          <path id="Shape" fill="#A0640A" stroke="none" stroke-width="1" d="M 55.651 22.030 C 54.323 23.697 53.374 25.552 52.031 27.235 C 50.294 25.513 44.101 20.649 46.901 17.930 C 49.329 15.570 54.210 20.054 55.651 22.030 Z "/>
          <path id="Shape" fill="#BE0A3C" stroke="none" stroke-width="1" d="M 68.895 13.304 C 67.200 14.478 65.197 16.591 63.429 17.648 C 61.301 16.169 57.006 8.217 60.910 7.145 C 63.253 6.503 68.551 11.039 68.895 13.304 Z "/>
          <path id="Shape" fill="#BE0A3C" stroke="none" stroke-width="1" d="M 98.667 8.757 C 96.012 8.366 92.455 8.644 89.807 8.366 C 87.547 6.445 86.684 -0.908 90.940 0.540 C 93.524 1.428 97.550 6.410 98.667 8.757 Z "/>
          <path id="Shape" fill="#A0640A" stroke="none" stroke-width="1" d="M 45.456 53.585 C 43.309 52.701 33.743 46.514 38.604 43.951 C 39.970 43.231 45.304 45.446 45.839 46.949 C 46.136 47.790 45.456 52.388 45.456 53.585 Z "/>
          <path id="Shape" fill="#BE0A3C" stroke="none" stroke-width="1" d="M 46.268 39.741 C 44.367 38.305 38.818 34.239 39.795 31.328 C 40.939 27.896 47.213 31.516 48.650 32.866 C 47.520 35.026 46.717 37.343 46.268 39.741 Z "/>
          <path id="Shape" fill="#E6781E" stroke="none" stroke-width="1" d="M 124.752 37.487 C 123.191 34.893 121.211 31.253 119.677 28.726 C 121.168 26.542 127.759 14.020 128.872 11.579 C 131.523 10.733 130 20.970 129.832 22.050 C 129.266 25.767 127.013 34.353 124.752 37.487 Z "/>
          <path id="Shape" fill="#C8C8BE" stroke="none" stroke-width="1" d="M 136.552 64.675 C 135.509 60.155 132.308 51.370 132.308 51.370 L 128.520 48.843 L 103.247 48.522 L 105.156 79.282 C 105.156 79.282 116.295 79.251 121.465 79.282 C 124.518 79.306 127.568 79.490 130.609 79.673 C 132.929 79.818 136.204 80.123 138.442 79.282 C 139.184 74.598 137.598 69.230 136.552 64.675 Z "/>
          <path id="Shape" fill="#F04650" stroke="none" stroke-width="1" d="M 120.368 24.789 C 118.211 21.738 115.762 18.906 113.055 16.333 C 110.204 13.634 106.961 11.383 103.438 9.657 C 102.134 8.994 100.747 8.509 99.315 8.217 C 98.061 7.998 95.285 7.161 94.024 7.591 C 89.928 6.719 85.352 7.380 81.241 7.904 C 78.416 8.243 75.644 8.923 72.983 9.931 C 71.476 10.510 67.036 12.768 66.626 12.995 C 61.726 15.707 53.449 23.373 52.937 23.952 C 49.197 28.174 45.835 34.043 45.394 39.330 C 44.281 43.977 44.113 48.801 44.902 53.515 C 44.902 57.130 47.213 60.719 49.560 63.297 C 52.055 66.013 55.303 69.230 59.321 69.069 C 63.698 68.893 62.835 64.726 64.709 62.112 C 66.443 59.697 69.914 57.655 72.616 59.815 C 78.047 64.158 75.349 75.393 82.674 78.151 C 86.094 79.439 90.534 78.989 94.130 79.110 C 97.726 79.231 105.156 79.286 105.156 79.286 C 105.156 79.286 108.982 67.578 111.579 62.069 C 113.402 58.210 115.690 55.276 118.911 53.339 C 120.882 52.258 123.036 51.553 125.264 51.261 C 127.603 51.031 129.960 51.063 132.292 51.355 C 132.292 51.355 129.352 41.963 125.834 34.137 C 123.999 29.997 120.754 25.329 120.368 24.789 Z "/>
          <path id="Shape" fill="#F01446" stroke="none" stroke-width="1" d="M 101.794 20.966 C 101.794 20.966 105.667 27.125 109.150 31.821 C 110.076 33.069 112.317 35.734 114.542 36.665 C 117.475 37.910 120.348 37.057 119.794 34.709 C 119.130 31.923 113.621 25.043 110.185 20.947 C 109.728 20.407 108.623 18.923 107.338 18.235 C 104.117 16.505 99.775 16.083 101.794 20.966 Z "/>
          <path id="Shape" fill="#FFC800" stroke="none" stroke-width="1" d="M 129.543 48.479 C 128.765 48.978 127.881 49.288 126.962 49.387 C 125.318 49.547 123.659 49.426 122.054 49.030 C 120.196 48.381 120.356 44.726 121.199 43.270 C 122.394 41.224 124.737 39.490 126.306 37.706 C 127.743 36.070 129.403 33.429 131.293 32.294 C 132.288 35.108 132.073 38.246 131.628 41.142 C 131.269 43.466 130.769 47.528 129.543 48.479 Z "/>
          <path id="Shape" fill="#FFC800" stroke="none" stroke-width="1" d="M 90.846 42.531 C 90.846 42.531 79.394 42.887 79.663 40.453 C 80.034 37.080 81.924 33.265 83.177 30.154 C 84.591 26.632 90.479 11.610 92.478 11.371 C 93.657 12.130 90.846 42.531 90.846 42.531 Z "/>
          <path id="Shape" fill="#000000" stroke="none" stroke-width="1" d="M 131.882 75.001 C 131.781 75.471 131.019 76.473 126.267 76.473 C 121.516 76.473 120.020 75.338 119.888 74.559 C 119.755 73.780 122.484 73.413 126.525 73.413 C 130.566 73.413 131.972 74.528 131.882 75.001 Z "/>
          <path id="Shape" fill="#000000" stroke="none" stroke-width="1" d="M 89.226 56.101 L 90.006 55.710 C 90.643 56.410 91.232 58.958 89.757 59.110 C 88.281 59.263 88.905 56.806 89.226 56.101 Z "/>
          <path id="Shape" fill="#000000" stroke="none" stroke-width="1" d="M 136.154 54.391 L 136.935 54 C 137.571 54.700 138.161 57.248 136.685 57.400 C 135.209 57.553 135.830 55.111 136.154 54.391 Z "/>
          <path id="Shape" fill="#828278" stroke="none" stroke-width="1" d="M 129.668 67.406 L 130.449 67.015 C 131.082 67.715 131.671 70.263 130.195 70.415 C 128.719 70.568 129.348 68.110 129.668 67.406 Z "/>
          <path id="Shape" fill="#828278" stroke="none" stroke-width="1" d="M 122.882 67.222 L 123.663 66.831 C 124.296 67.531 124.885 70.079 123.409 70.231 C 121.933 70.384 122.562 67.927 122.882 67.222 Z "/>
        </g>
      </g>
    </g>
  </g>
</svg>