<svg width="114px" height="117px" viewBox="0 0 114 117" version="1.1" xml:space="preserve" xmlns="http://www.w3.org/2000/svg" xmlns:xlink="http://www.w3.org/1999/xlink">
  <!-- Generator: Sketch 48.2 (47327) - http://www.bohemiancoding.com/sketch -->
  <defs/>
  <g>
    <title>strawberry-e</title>
    <desc>Created with Sketch.</desc>
    <g id="food" stroke="none" stroke-width="1" fill="none" fill-rule="evenodd">
      <g id="strawberry-e" fill-rule="nonzero">
        <g id="scratch_fridge_strawberry05" transform="translate(25.000000, 3.000000)">
          <path d="M24.848,17.7052743 C23.272,13.5244726 21.776,6.34135021 23.98,2.17257384 C26.004,-1.65147679 29.544,0.81371308 31.232,6.87848101 C32.656,11.9812236 32.4,20.3909283 32.464,22.1666667 C32.536,24.1267932 32.3,26.0468354 32.216,27.9949367 C32.148,29.6383966 32.736,32.3761603 32.148,33.8592827 C29.2,28.7084388 26.936,23.2489451 24.848,17.7052743 Z" id="Shape" fill="#82783C"/>
          <path d="M32.184,33.7791139 C29.848,33.8993671 26.944,31.5263713 25.144,30.2316456 C24.184,29.5381857 12.24,19.885865 8.988,15.0877637 C7.52,12.9232068 6.14,10.7666667 6.496,8.04894515 C6.972,4.40527426 9.452,3.57552743 12.664,5.1628692 C17.644,7.62405063 21.808,13.135654 24.42,17.92173 C25.72,20.2987342 26.956,22.7318565 28.272,25.0808017 C29.544,27.3616034 32.244,31.0974684 32.184,33.7791139 Z" id="Shape" fill="#A0AA1E"/>
          <path d="M31.744,33.6508439 C31.592,31.9632911 32.716,29.7065401 33.1,28.0630802 C33.5,26.3033755 33.9,24.57173 34.468,22.8521097 C35.5407426,19.3169816 36.8189258,15.8477649 38.296,12.4622363 C39.624,9.54008439 41.044,6.29725738 43.188,3.85611814 C45.016,1.77172996 48.492,-0.428902954 51.008,2.08839662 C53.18,4.2649789 51.808,8.76244726 51.04,11.3078059 C49.976,14.7229958 48.112,17.5128692 45.984,20.3267932 C44,22.9483122 34.436,32.756962 31.744,33.6508439 Z" id="Shape" fill="#A0AA1E"/>
          <path d="M32.092,33.7670886 C33.196,32.3200422 35.008,31.1175105 36.348,29.842827 C38.084,28.1913502 39.856,26.5839662 41.62,24.9685654 C44.184,22.6236287 46.924,20.2185654 50.516,19.7575949 C51.816,19.5932489 54.18,19.5130802 54.628,21.1244726 C55.028,22.6075949 53.08,24.3031646 52.12,25.1008439 C50.6955075,26.2382452 49.1705332,27.2431754 47.564,28.1031646 C46.672,28.6162447 36,32.6367089 32.092,33.7670886 Z" id="Shape" fill="#A0AA1E"/>
          <path d="M31.836,33.8432489 C31.564,28.8767932 32.14,24.0025316 32.3,19.0681435 C32.3160182,16.4948093 32.600227,13.9301904 33.148,11.4160338 C33.428,10.2696203 34.852,6.20506329 36.308,8.51392405 C37.148,9.8407173 36.612,12.7548523 36.56,14.2339662 C36.484,16.3744726 36.46,18.7194093 35.732,20.7677215 C35.252,22.1025316 32.1,33.8632911 31.836,33.8432489 Z" id="Shape" fill="#A0AA1E"/>
          <path d="M31.444,94.8236287 C27.5033891,94.8423623 23.6507522,93.656586 20.4,91.4244726 C18.24,89.921308 16.536,87.6565401 15.076,85.4919831 C12.896,82.257173 10.756,78.9542194 8.744,75.607173 C5.10108074,69.5839975 2.43588242,63.0192437 0.848,56.1582278 C-0.4,50.6025316 -0.792,40.3529536 4.964,36.9177215 C7.912,35.15 12.28,34.1398734 15.62,33.4504219 C18.512,32.8531646 21.364,32.1035865 24.336,31.8470464 C26.032,31.7107595 27.744,31.5544304 29.424,31.8189873 C30.716,32.0234177 31.344,32.7369198 32.276,32.7449367 C32.456,32.7449367 33.628,32.0915612 33.952,32.0113924 C34.61125,31.8819727 35.2803775,31.8095545 35.952,31.7949367 C38.088,31.6706751 40.096,32.0113924 42.192,32.3280591 C47.604,33.1297468 53.312,35.1981013 57.548,38.7696203 C62.832,43.2229958 61.972,50.0373418 60.508,56.1662447 C58.908,62.9164557 53.192,78.2607595 47.708,85.7004219 C42.224,93.1400844 34.692,94.8396624 31.444,94.8236287 Z" id="Shape" fill="#F01446"/>
          <path d="M5.028,41.5995781 C5.028,41.5995781 5.6,40.0883966 8.128,38.7575949 C11.3209304,37.1921885 14.9048892,36.6091767 18.428,37.0820675 C26.616,38.3447257 25.596,65.385654 15.836,65.385654 C10.548,65.385654 6.972,63.1048523 5.296,57.9299578 C3.88,53.5527426 2.864,46.8025316 5.028,41.5995781 Z" id="Shape" fill="#F00A78"/>
          <ellipse id="Oval" fill="#F04650" cx="26.208" cy="75.1862869" rx="1" ry="1.02616034"/>
          <ellipse id="Oval" fill="#F04650" cx="45.276" cy="46.814557" rx="1" ry="1.02616034"/>
          <ellipse id="Oval" fill="#F04650" cx="42.136" cy="42.0405063" rx="1" ry="1.02616034"/>
          <ellipse id="Oval" fill="#F04650" cx="49.168" cy="42.5175105" rx="1" ry="1.02616034"/>
          <ellipse id="Oval" fill="#F04650" cx="37.76" cy="37.2424051" rx="1" ry="1.02616034"/>
          <ellipse id="Oval" fill="#F04650" cx="29.572" cy="39.8158228" rx="1" ry="1.02616034"/>
          <ellipse id="Oval" fill="#F04650" cx="22.856" cy="39.1103376" rx="1" ry="1.02616034"/>
          <ellipse id="Oval" fill="#F04650" cx="14.348" cy="38.9179325" rx="1" ry="1.02616034"/>
          <ellipse id="Oval" fill="#F04650" cx="20.376" cy="47.3236287" rx="1" ry="1.02616034"/>
          <ellipse id="Oval" fill="#F04650" cx="11.768" cy="46.8265823" rx="1" ry="1.02616034"/>
          <ellipse id="Oval" fill="#F04650" cx="36.488" cy="77.5031646" rx="1" ry="1.02616034"/>
          <ellipse id="Oval" fill="#F04650" cx="33.332" cy="45.7563291" rx="1" ry="1.02616034"/>
          <ellipse id="Oval" fill="#F04650" cx="35.612" cy="52.3341772" rx="1" ry="1.02616034"/>
          <ellipse id="Oval" fill="#F04650" cx="27.86" cy="47.4037975" rx="1" ry="1.02616034"/>
          <ellipse id="Oval" fill="#F04650" cx="19.276" cy="81.1668776" rx="1" ry="1.02616034"/>
          <ellipse id="Oval" fill="#F04650" cx="26.208" cy="53.7732068" rx="1" ry="1.02616034"/>
          <ellipse id="Oval" fill="#F04650" cx="14.384" cy="70.7489451" rx="1" ry="1.02616034"/>
          <ellipse id="Oval" fill="#F04650" cx="21.228" cy="60.5194093" rx="1" ry="1.02616034"/>
          <ellipse id="Oval" fill="#F04650" cx="13.936" cy="60.2508439" rx="1" ry="1.02616034"/>
          <ellipse id="Oval" fill="#F04650" cx="46.44" cy="58.7637131" rx="1" ry="1.02616034"/>
          <ellipse id="Oval" fill="#F04650" cx="52.764" cy="47.3196203" rx="1" ry="1.02616034"/>
          <ellipse id="Oval" fill="#F04650" cx="53.388" cy="57.4248945" rx="1" ry="1.02616034"/>
          <ellipse id="Oval" fill="#F04650" cx="56.772" cy="52.0535865" rx="1" ry="1.02616034"/>
          <ellipse id="Oval" fill="#F04650" cx="56.968" cy="42.4373418" rx="1" ry="1.02616034"/>
          <ellipse id="Oval" fill="#F04650" cx="45.152" cy="36.0879747" rx="1" ry="1.02616034"/>
          <ellipse id="Oval" fill="#F04650" cx="5.8" cy="43.1628692" rx="1" ry="1.02616034"/>
          <ellipse id="Oval" fill="#F04650" cx="4.068" cy="56.9078059" rx="1" ry="1.02616034"/>
          <ellipse id="Oval" fill="#F04650" cx="2.328" cy="50.5824895" rx="1" ry="1.02616034"/>
          <ellipse id="Oval" fill="#F04650" cx="32.4" cy="57.1443038" rx="1" ry="1.02616034"/>
          <ellipse id="Oval" fill="#F04650" cx="49.808" cy="66.3116034" rx="1" ry="1.02616034"/>
          <ellipse id="Oval" fill="#F04650" transform="translate(38.304663, 61.794789) rotate(-68.500000) translate(-38.304663, -61.794789) " cx="38.3046625" cy="61.7947888" rx="1.024" ry="1"/>
          <ellipse id="Oval" fill="#F04650" cx="41.496" cy="50.5824895" rx="1" ry="1.02616034"/>
          <ellipse id="Oval" fill="#F04650" cx="29.016" cy="65.9267932" rx="1" ry="1.02616034"/>
          <ellipse id="Oval" fill="#F04650" cx="48.828" cy="52.6308017" rx="1" ry="1.02616034"/>
          <ellipse id="Oval" fill="#F04650" cx="50.08" cy="74.9938819" rx="1" ry="1.02616034"/>
          <ellipse id="Oval" fill="#F04650" cx="41.724" cy="69.3981013" rx="1" ry="1.02616034"/>
          <ellipse id="Oval" fill="#F04650" cx="16.712" cy="53.8373418" rx="1" ry="1.02616034"/>
          <ellipse id="Oval" fill="#F04650" cx="9.728" cy="52.4223629" rx="1" ry="1.02616034"/>
        </g>
      </g>
    </g>
  </g>
</svg>