<svg width="480px" height="360px" viewBox="0 0 480 360" version="1.1" xml:space="preserve" xmlns="http://www.w3.org/2000/svg" xmlns:xlink="http://www.w3.org/1999/xlink">
  <defs/>
  <g>
    <title>backdrop</title>
    <desc>Created with Sketch.</desc>
    <g id="dinosaurs" stroke="none" stroke-width="1" fill="none" fill-rule="evenodd">
      <g id="backdrop" fill-rule="nonzero">
        <rect id="Rectangle-path" fill="#64BE96" x="-1.19055825" y="-5" width="481.663337" height="283.939047"/>
        <path d="M563.13387,193.568434 L203.63516,196.295665 C219.98084,188.415028 364.423762,131.36158 422.640121,125.511609 C459.386911,121.828075 504.533809,121.828075 505.743944,121.828075 L505.844297,121.893009 C509.386156,121.804463 541.658397,121.503405 563.104354,121.302699 L563.13387,193.568434 Z" id="Shape" fill="#008264"/>
        <path d="M-14.7794914,124.195218 L-14.7794914,184.926297 L214.851047,186.260397 C197.732061,179.944082 73.117648,141.987157 -14.7794914,124.195218 Z" id="Shape" fill="#281446"/>
        <path d="M229.526151,177.712711 C195.400337,169.377535 62.6101323,149.602155 -8.28608287,139.962394 L-11.2376322,221.67899 L246.597912,216.46065 L262.016806,185.817665 C254.992119,184.01722 234.921583,179.029102 229.526151,177.712711 Z" id="Shape" fill="#006482"/>
        <path d="M489.345136,153.102692 C483.312169,153.126304 477.285106,153.195174 471.263945,153.309301 C471.215588,153.276837 471.164186,153.249158 471.110465,153.226657 C466.323051,153.203045 367.741303,155.682346 358.886655,157.040059 C315.794035,160.959716 173.78319,177.647776 141.203988,185.404448 C108.624787,193.16112 33.395697,237.097883 8.36065543,247.652624 L489.345136,244.459047 L489.345136,153.102692 Z" id="Shape" fill="#00A0DC"/>
        <path d="M401.076102,126.078306 C401.076102,126.078306 405.338139,126.078306 403.094961,116.875375 C400.851784,107.672445 380.214551,65.2940992 380.214551,65.2940992 L368.998663,70.4120857 L375.734099,120.464459 L401.076102,126.078306 Z" id="Shape" fill="#FAB414"/>
        <path d="M337.228186,63.251627 C337.228186,63.251627 314.430419,118.894235 320.516514,129.443073 L330.841034,123.604908 L341.614189,88.3634088 L337.228186,63.251627 Z" id="Shape" fill="#FAB414"/>
        <path d="M363.904289,221.029649 L431.376707,205.98265 C431.376707,202.28731 386.761087,79.5559856 384.464782,76.7047889 L363.904289,78.1156295 L363.904289,221.029649 Z" id="Shape" fill="#8C8264"/>
        <path d="M371.873472,71.7402829 L333.887032,80.1935202 C331.968525,85.7129175 292.317412,236.472155 292.18164,237.027046 L400.798656,214.595271 L371.873472,71.7402829 Z" id="Shape" fill="#AAA082"/>
        <path d="M502.101733,25.7551442 C501.298911,17.3491316 501.912833,8.9431191 499.280051,0.861776995 C495.708677,-0.318842742 491.27545,-0.460517111 487.526982,-0.248005558 C482.743598,-0.0234442365 477.95004,-0.165534053 473.188355,-0.673028663 C468.67808,-1.15042287 464.146645,-1.40063688 459.611228,-1.4227222 C454.888749,-1.4227222 450.874642,-0.271617953 446.417803,1.15693193 C438.655228,3.65394267 431.494769,3.26433816 423.389815,3.01050492 C415.509178,2.75076857 408.691099,6.79439117 402.976899,11.8002189 C398.307548,15.8969693 392.274582,21.6997154 385.438793,18.2936274 C382.522663,16.8473682 380.545124,14.1614583 377.487319,12.8391642 C374.299646,11.5286763 370.692853,10.0469986 367.198218,10.9383665 C363.821646,11.7766065 360.386042,14.1319428 358.691853,17.2133604 C357.068501,20.1649097 357.404978,23.0397188 357.2574,26.2569075 C357.109823,29.5803521 356.554931,33.340626 353.036685,34.6452108 C350.085135,35.7254778 346.808915,34.4858271 343.904591,33.9132265 C335.947214,32.3430023 329.99689,36.0206328 329.211778,44.0960718 C328.426666,52.1715108 334.683951,60.9317092 340.427666,65.766347 L377.316129,66.6518118 C377.776571,61.9293329 378.57349,53.9483435 383.762313,51.9649023 C386.222379,51.0456007 388.912932,50.9421179 391.436342,51.6697474 C394.110445,52.5315998 395.049038,54.4146883 396.524813,56.6991875 C399.169401,60.7841318 402.469233,66.3861724 407.905987,66.7757769 C415.060542,67.2893465 414.989705,61.6518873 417.309623,56.852668 C419.629541,52.0534488 425.692023,51.7405846 430.054413,53.7594443 C435.060241,56.0852652 437.970468,60.4063334 444.091982,59.7687988 C450.083627,59.1784889 451.630239,53.5351266 456.577036,51.1561778 C461.67141,48.7004887 467.44464,49.2494769 472.905007,48.7122949 C478.731365,49.2612831 484.711204,50.3061316 490.555272,50.2648099 C493.424178,50.2648099 496.30489,49.9047209 499.161989,50.0641045 C500.448865,50.1408448 504.262267,50.9613755 505.313018,50.0641045 C503.807728,42.0004717 502.880942,33.9014203 502.101733,25.7551442 Z" id="Shape" fill="#AADCDC"/>
        <path d="M333.072405,126.096016 C327.67107,124.366408 330.439623,113.965148 331.496277,110.157649 C333.031083,104.644155 335.817346,98.6466067 332.181037,93.575845 L329.406581,92.5723182 C329.359356,89.8273773 330.616716,87.058824 331.242444,84.426042 C331.832754,82.0648025 332.305002,79.6504352 332.830378,77.2655833 C333.839808,72.6316508 334.601307,67.4251178 336.814969,63.2457239 C344.542126,62.4547087 352.121704,63.5408788 359.837054,63.8006152 C366.602005,64.0249329 373.496825,64.3909251 380.208648,65.2881961 C384.17553,72.3719145 386.961793,79.8747529 389.883827,87.4720409 C390.840129,89.9572455 394.104542,95.7363791 391.654756,98.0976185 C388.909815,100.742207 385.161348,97.0291577 383.638348,94.9099453 C380.881601,91.1378652 374.925375,79.6091135 369.423687,86.7990877 C364.701208,92.9914382 370.893558,102.826001 366.708261,109.738529 C361.082608,115.234314 358.443923,103.705562 357.552555,100.293571 C356.07678,94.6679182 350.964697,93.0032444 346.755788,97.1354135 C342.546878,101.267583 342.505557,108.587425 340.899914,114.142241 C339.666166,118.339344 337.97788,125.499803 333.072405,126.096016 Z" id="Shape" fill="#FAB414"/>
        <path d="M386.040909,212.234032 C385.149541,199.979199 384.26998,190.392567 384.140112,190.298117 C383.160197,190.121024 316.100996,180.050338 315.227338,179.57809 C313.373765,179.359675 311.514288,179.176679 309.648909,179.06452 C309.653054,179.045061 309.653054,179.024948 309.648909,179.005489 C308.539127,178.869718 285.328143,177.789451 283.167609,178.462404 C272.789961,179.908663 238.304059,187.252118 230.086945,191.590896 C226.184997,193.645174 219.82736,202.647399 213.499238,212.251741 L386.040909,212.234032 Z" id="Shape" fill="#005A5A"/>
        <path d="M-16.550421,240.202913 L342.948289,242.930145 C326.602609,235.049508 277.482925,198.2673 256.208157,192.47636 C243.185921,188.928598 182.159687,177.996059 123.943328,172.146088 C87.1965384,168.462555 42.0496396,168.462555 40.8395044,168.462555 L40.7391517,168.527489 C37.1972925,168.438942 4.92505199,168.137884 -16.5209055,167.937179 L-16.550421,240.202913 Z" id="Shape" fill="#008264"/>
        <path d="M121.523057,66.9823854 C116.493617,64.7510141 110.702677,65.0579752 105.342664,64.7274017 C102.520983,64.5503087 99.7229138,64.4853746 96.8953295,64.4322467 C93.9083616,64.3732158 91.2755796,63.552685 88.371255,62.9977938 C86.5412944,61.5102129 85.2544189,60.7310039 85.7916009,58.169059 C86.1812054,56.2859706 87.3027942,55.1879942 88.8435029,54.160855 C92.4148776,51.7996156 95.0771751,50.9023446 96.0393802,46.4100865 C96.7359459,43.1279636 96.0393802,38.9308604 92.7749666,37.3016052 C88.9733711,35.3890012 83.4244583,34.8813347 79.2509675,34.7632727 C70.6560559,34.5212457 62.0965628,33.7479398 53.4780387,34.0962226 C48.9385558,34.2851218 44.404976,34.2319939 39.8654931,34.3677651 C35.3260102,34.5035364 30.4205352,35.495257 25.9400833,34.5035364 C23.9743515,30.0466969 24.1691537,27.1010507 26.5717149,22.7976917 C28.313129,19.6572432 29.5881983,16.5108916 25.5977036,14.5864814 C21.9082669,12.8155518 16.8020865,12.9867417 12.7938825,12.9040983 C12.1268324,12.9040983 -0.163419075,12.8745828 -14.7794914,12.8627766 L-14.7794914,88.8592691 C37.167777,88.4106336 109.185581,87.838033 116.505423,86.5452544 C121.310546,85.6952082 125.560777,83.7294763 127.131001,78.7708735 C128.530035,74.2018751 125.779191,68.8654739 121.523057,66.9823854 Z" id="Shape" fill="#AADCDC"/>
        <path d="M261.438302,190.610981 C256.125513,192.417329 221.497937,206.159743 219.573526,207.393491 C219.573526,207.393491 334.9673,210.085304 337.086512,205.439565 C328.261379,200.356997 289.867626,180.977124 261.438302,190.610981 Z" id="Shape" fill="#00A0B4"/>
        <path d="M317.848313,202.493919 C317.848313,202.493919 329.441999,184.123476 336.608361,180.870868 C343.774723,177.618261 347.092264,179.288838 349.004868,179.436415 C357.511233,180.079853 370.846333,199.766687 371.672767,201.319202 C369.370559,203.343965 317.848313,202.493919 317.848313,202.493919 Z" id="Shape" fill="#F0E6D2"/>
        <path d="M506.464123,164.418932 C505.472402,164.353998 437.693023,162.305623 436.766236,161.945534 C434.900857,161.945534 433.035478,161.980953 431.170099,162.093111 C431.160377,162.074098 431.148492,162.056271 431.13468,162.039984 C430.013091,162.039984 406.843429,163.716464 404.771441,164.637347 C394.641724,167.305548 361.27741,178.686722 353.621091,183.969995 C345.964772,189.253268 328.284992,226.720236 322.405506,233.916113 L514.728461,238.207666 C519.1853,237.995154 506.836018,164.655056 506.464123,164.418932 Z" id="Shape" fill="#005A5A"/>
        <path d="M144.50382,219.90806 C118.837147,197.576638 26.6425521,186.165948 -2.97329405,184.489468 C-15.1100649,183.804708 -26.6801384,183.586294 -37.2112664,183.639422 L-37.2112664,219.90806 L144.50382,219.90806 Z" id="Shape" fill="#281446"/>
        <path d="M-6.16687044,192.381911 C-9.11841978,194.188259 -28.4274556,231.543067 -29.4959164,232.776815 C-29.4959164,232.776815 34.8065375,235.468628 35.9871573,230.822889 C31.0698761,225.740321 9.67704643,182.748054 -6.16687044,192.381911 Z" id="Shape" fill="#00A0B4"/>
        <path d="M501.151334,185.735022 C499.64014,185.705506 498.707451,185.687797 498.489036,185.670088 C493.300212,185.670088 488.111389,185.670088 482.940274,185.752731 L482.839922,185.717312 C479.717182,185.717312 415.337988,186.620486 409.58837,187.116347 C381.442395,188.5508 288.746037,194.660507 267.471269,197.499897 C246.196501,200.339288 197.076817,231.389587 180.731137,235.256117 L501.151334,234.075497 L501.151334,185.735022 Z" id="Shape" fill="#281446"/>
        <path d="M390.999512,192.364201 C367.853462,194.76086 362.11565,239.18758 362.11565,239.18758 L420.869192,235.704752 C419.346192,233.857082 414.145562,189.973446 390.999512,192.364201 Z" id="Shape" fill="#00A08C"/>
        <path d="M448.24186,197.18113 C455.21342,196.466855 453.141432,208.107766 446.270225,206.525735 C439.948007,205.073573 442.633916,197.033553 448.24186,197.18113 Z" id="Shape" fill="#008264"/>
        <path d="M145.229902,194.524736 C151.215644,197.128002 146.859157,202.086605 142.738794,203.916566 C137.809707,206.100712 131.989251,205.333309 126.835846,204.465554 C125.029498,204.164496 121.523057,203.456124 121.847728,200.988629 C122.172398,198.521133 125.507649,197.529413 127.449768,196.803332 C132.744848,194.831697 139.639667,192.488167 145.229902,194.524736 Z" id="Shape" fill="#F0E6D2"/>
        <path d="M484.622657,200.799729 C475.59682,201.336911 462.267623,202.269601 462.24401,202.251892 C458.330256,202.251892 454.640819,203.078326 450.75658,203.14326 C446.564823,203.214089 442.37217,203.072232 438.194786,202.718237 C429.983576,202.027574 389.340742,197.051262 377.676219,196.626239 C366.861742,196.236634 356.088587,196.431436 345.280013,196.396018 C334.18809,196.360599 323.285067,197.098487 312.22266,197.682893 C306.60291,197.978048 300.977257,198.273203 295.387023,198.963866 C292.77195,199.294439 236.910927,199.164571 235.594536,199.087831 C230.370294,198.798579 190.701471,198.166947 184.780663,198.391265 C173.865833,198.798579 162.844748,198.715936 151.994853,199.684044 C141.239407,200.640346 130.419027,200.917791 119.657678,201.897706 C114.427533,202.375857 109.102938,202.682818 103.84918,202.741849 C102.07825,202.741849 84.3689541,203.184581 62.0729504,203.792601 C62.0729504,203.680442 62.0729504,203.574186 62.0375318,203.46793 C57.9466844,203.739473 53.9384804,203.845728 49.8358268,203.780794 C49.8358268,203.898856 49.788602,204.011015 49.7649896,204.129077 C31.6070581,204.636744 11.8966115,205.227053 -4.23065407,205.793751 C-5.93085887,205.613622 -7.64800769,205.675233 -9.33093133,205.976747 L-15.9601112,206.23058 L-15.9601112,384.014203 L484.622657,384.014203 L484.622657,200.799729 Z" id="Shape" fill="#DCD2B4"/>
        <path d="M-111,254.736342 C-111,254.736342 141.652624,244.701074 188.287103,258.278201 C234.921583,271.855328 -14.1891816,296.058033 -14.1891816,296.058033 L-111,254.736342 Z" id="Shape" fill="#AAA082"/>
        <path d="M123.353018,325.910003 C111.115894,327.840316 50.325784,330.331424 39.5290165,329.776533 C43.2243563,322.763651 64.7529572,315.018786 78.1352819,313.247856 C85.6484958,312.232098 93.2845187,312.608296 100.661506,314.357639 C105.017993,315.402487 123.943328,323.12374 123.353018,325.910003 Z" id="Shape" fill="#008264"/>
        <path d="M62.8757718,272.445638 C65.1897865,262.947552 87.8753947,169.643175 87.9344257,158.929051 C87.9757474,151.15467 87.2614725,136.272958 78.082154,134.442997 C62.350396,131.314355 39.7120125,253.555722 36.3118277,272.445638 L62.8757718,272.445638 Z" id="Shape" fill="#E6781E"/>
        <path d="M37.9528891,272.445638 C31.8549882,241.749525 19.6827987,187.228506 10.6038329,189.028951 C3.84478493,190.392567 3.31940915,201.37233 3.34892464,207.110142 C3.34892464,212.747601 11.8848053,249.329104 17.3982995,272.445638 L37.9528891,272.445638 Z" id="Shape" fill="#FFC800"/>
        <path d="M47.2030448,263.372576 C38.7261951,263.136452 31.7664417,263.089227 27.2682805,249.824964 C23.3132044,238.172247 19.3699345,224.68957 17.0618229,211.236408 C14.4821688,196.183506 4.66531565,145.788753 16.530544,132.075855 C22.2093249,125.4939 28.9978884,136.019125 31.6306704,143.043812 C35.6860992,153.864192 38.3129782,167.181582 39.9658458,180.380911 C43.2774842,206.885824 45.9161693,235.692946 47.2030448,263.372576 Z" id="Shape" fill="#A0AA1E"/>
        <path d="M53.4485232,272.445638 C54.6291429,246.348039 59.1981413,144.041436 57.4862427,131.95189 C56.1344331,122.412482 51.8133649,106.468212 42.4805658,106.568565 C28.1832608,106.704336 27.3627301,228.88077 27.179734,272.445638 L53.4485232,272.445638 Z" id="Shape" fill="#FFDC00"/>
        <path d="M41.3471709,272.445638 C40.6565083,256.341985 39.8300745,242.032874 38.9859314,238.857007 C37.5160598,233.349416 34.1453905,222.971768 27.2918929,223.780493 C21.436019,224.471155 20.3734613,247.652624 20.9342556,272.445638 L41.3471709,272.445638 Z" id="Shape" fill="#F00A78"/>
        <path d="M-23.7817169,372.69206 L488.973241,372.69206 C490.555272,327.981991 492.833868,262.25689 492.296686,258.868511 C488.554121,258.868511 442.380083,250.297212 438.194786,249.943026 C429.983576,249.252363 389.340742,244.276051 377.676219,243.851028 C366.861742,243.461424 356.088587,243.656226 345.280013,243.620807 C334.18809,243.585389 323.285067,244.323276 312.22266,244.907683 C306.60291,245.202838 300.977257,245.497993 295.387023,246.188655 C292.77195,246.519229 290.186393,247.115442 287.606739,247.634914 C285.245499,248.113065 -33.9232405,269.47638 -50.7883934,276.560098 L-21.2729,321.423648 L-23.7817169,372.69206 Z" id="Shape" fill="#DCD2B4"/>
        <path d="M328.279089,356.429023 C328.101996,355.980388 327.989837,355.708845 327.836356,355.313338 L322.104447,355.094923 C314.589803,351.098525 322.653436,345.059655 328.597856,341.818854 C336.820873,337.379724 346.755788,336.635933 358.756787,336.016108 C370.315054,335.425798 381.820194,335.833112 389.305323,340.354886 C396.979351,344.971109 399.28156,350.921432 393.207271,356.127965 C391.040834,355.915454 389.075102,356.582504 386.985405,356.127965 C377.682122,357.031139 367.835753,356.529376 358.396698,356.623825 C348.367334,356.753694 338.308453,356.564795 328.279089,356.429023 Z" id="Shape" fill="#00A08C"/>
        <path d="M245.547161,344.463442 C208.357639,360.401809 524.173419,350.366541 524.173419,350.366541 L524.763728,333.247555 C455.107164,327.934766 282.736682,328.525076 245.547161,344.463442 Z" id="Shape" fill="#AAA082"/>
        <path d="M428.041456,343.932163 C395.450449,342.940443 362.587898,340.939292 330.109049,341.08687 C297.925355,341.228544 265.611793,339.994796 233.404487,340.177793 C217.755372,340.272242 201.828812,340.006603 186.179697,339.251006 C180.866908,338.997173 -16.845576,331.52385 -37.783867,330.780059 L-37.783867,382.833584 L483.442038,382.833584 L483.442038,347.149352 C457.645496,345.496484 435.036628,344.144675 428.041456,343.932163 Z" id="Shape" fill="#DCD2B4"/>
        <polygon id="Shape" fill="#AAA082" points="486.983897 333.837865 491.116066 365.124288 292.77195 365.124288"/>
        <path d="M362.965697,331.358563 C355.710788,326.169739 362.965697,320.786113 368.975051,319.516947 C376.182735,318.005754 383.732798,320.697567 390.379687,323.318543 C392.705508,324.239426 397.156444,326.175642 396.046662,329.386928 C394.936879,332.598214 390.143563,332.964206 387.369107,333.383326 C379.7364,334.522624 369.84871,335.685534 362.965697,331.358563 Z" id="Shape" fill="#F0E6D2"/>
        <path d="M459.640744,345.673577 C463.584014,322.568849 466.783493,301.990647 466.553272,297.203234 C466.151862,288.938896 464.534413,273.136301 454.54637,272.191805 C446.010489,271.38308 433.188959,310.089699 426.394492,345.520097 L459.640744,345.673577 Z" id="Shape" fill="#64BE96"/>
        <path d="M474.39849,375.779381 C478.34176,352.674652 481.54124,332.09645 481.311019,327.309037 C480.909608,319.044699 479.292159,303.242104 469.304116,302.297608 C460.768236,301.488884 447.946705,340.195502 441.152239,375.6259 L474.39849,375.779381 Z" id="Shape" fill="#00A0B4"/>
        <path d="M444.357621,361.228242 C446.128551,354.109105 463.105863,284.14558 463.153087,276.111463 C463.153087,270.285104 462.645421,259.122344 455.762408,257.752826 C443.956211,255.391586 426.996608,347.054903 424.440566,361.228242 L444.357621,361.228242 Z" id="Shape" fill="#FAB414"/>
        <path d="M427.53379,369.787736 C422.952985,346.765651 406.754883,286.14673 399.960416,287.49854 C394.877848,288.513873 394.48234,296.754599 394.505953,301.075667 C394.529565,305.396735 405.521135,352.32637 409.653304,369.657867 L427.53379,369.787736 Z" id="Shape" fill="#008264"/>
        <path d="M454.292536,361.228242 C457.739946,346.358337 461.151937,330.886315 461.163743,327.798995 C461.163743,323.495636 460.791848,315.25491 455.70928,314.221868 C450.284332,313.147504 443.371804,339.014882 438.472232,361.210533 L454.292536,361.228242 Z" id="Shape" fill="#281446"/>
        <path d="M432.598649,354.427873 C426.241011,354.25078 421.022672,354.215361 417.6461,344.26864 C414.69455,335.532054 411.743001,325.420046 409.972071,315.343456 C408.035855,304.056732 400.698303,266.270997 409.570661,255.987799 C413.832698,251.052809 418.921169,258.939348 420.892804,264.210816 C423.9329,272.327576 425.904535,282.309716 427.144185,292.209213 C429.664809,312.07314 431.642347,333.672578 432.598649,354.427873 Z" id="Shape" fill="#FFDC00"/>
        <path d="M437.291612,361.228242 C438.188883,341.65947 441.600874,264.948703 440.319902,255.89335 C439.310472,248.738794 436.778043,235.191182 429.788774,235.232504 C419.068746,235.332857 417.734646,328.536882 417.592972,361.20463 L437.291612,361.228242 Z" id="Shape" fill="#E6781E"/>
        <path d="M408.472684,378.004849 C402.658132,350.767952 395.863666,320.042323 393.714938,314.812178 C390.969997,308.12987 385.179057,295.621204 378.414106,297.415746 C371.418934,299.269319 379.051641,341.204932 387.192014,378.004849 L408.472684,378.004849 Z" id="Shape" fill="#E6781E"/>
        <path d="M428.54322,370.437076 C428.023747,358.36524 430.420405,308.360091 418.938878,309.174718 C407.457351,309.989346 411.595424,350.655793 412.014544,369.256457 L428.54322,370.437076 Z" id="Shape" fill="#FFC800"/>
        <path d="M393.886127,378.004849 L413.502124,378.004849 C412.6934,369.610643 411.77842,361.322692 410.76899,353.31809 C409.529339,343.424497 407.557704,333.436454 404.517608,325.325596 C402.545973,320.054129 397.43389,312.161686 393.195465,317.096677 C384.340817,327.379875 391.660659,365.165609 393.596876,376.458237 C393.714938,376.971807 393.791678,377.485376 393.886127,378.004849 Z" id="Shape" fill="#F00A78"/>
        <path d="M54.2867632,361.771328 C48.4249862,358.660395 31.1997442,349.628654 26.9436101,348.672352 C21.9023638,347.538957 16.6958308,346.033666 11.507007,345.891992 C1.52486715,345.626353 -11.0192176,350.295704 -11.1254733,361.771328 L54.2867632,361.771328 Z" id="Shape" fill="#F0E6D2"/>
        <path d="M58.938405,371.94827 C61.8899543,353.259059 85.2190003,348.453937 100.708731,348.052526 C108.341438,347.851821 118.240934,347.733759 124.533638,352.775005 C130.696473,357.733608 131.617356,365.401733 126.635141,371.446506 C104.099417,372.954409 81.4940047,373.121958 58.938405,371.94827 Z" id="Shape" fill="#8C8264"/>
        <path d="M64.1744535,349.079665 C64.5011263,350.282593 64.3084079,351.567383 63.6431746,352.621525 C59.3811374,353.176416 55.0128443,352.74549 50.862966,352.769102 C50.0056745,352.498203 49.383707,351.754145 49.2691293,350.862401 C51.1994426,344.599213 60.5971757,343.991194 64.1744535,349.079665 Z" id="Shape" fill="#F0E6D2"/>
        <path d="M463.1767,204.040531 C463.477758,205.622561 463.524983,207.06882 462.486037,208.66856 C456.948931,209.382835 451.27015,208.827944 445.862911,208.857459 C444.746489,208.502787 443.936351,207.533844 443.785021,206.372255 C446.299741,198.214172 458.530961,197.417254 463.1767,204.040531 Z" id="Shape" fill="#AAA082"/>
      </g>
    </g>
  </g>
</svg>