<svg version="1.1" width="197" height="185" viewBox="-1 -1 197 185" xmlns="http://www.w3.org/2000/svg" xmlns:xlink="http://www.w3.org/1999/xlink">
  <!-- Exported by Scratch - http://scratch.mit.edu/ -->
  <g id="ID0.9878866821527481" transform="matrix(-1, 0, 0, 1, 196.2, 0)">
    <g id="dinosaurs">
      <g id="brontosaurus-a">
        <g id="scratch_dinos03a">
          <path id="Shape" fill="#008264" stroke="none" stroke-width="1" d="M 71.110 137.373 C 71.110 137.373 75.835 172.524 76.705 181.664 C 75.205 182.120 65.145 181.849 63.625 181.714 C 61.575 176.585 54.705 135.759 54.705 135.759 L 71.110 137.373 Z "/>
          <path id="Shape" fill="#008264" stroke="none" stroke-width="1" d="M 119.840 137.373 C 119.840 137.373 122.475 172.855 123.340 181.995 C 121.840 182.446 112.260 181.844 110.740 181.709 C 108.685 176.575 105 135.969 105 135.969 L 119.840 137.373 Z "/>
          <path id="Shape" fill="#005A5A" stroke="none" stroke-width="1" d="M 193.590 89.062 C 187.885 87.904 181.270 88.140 177.770 93.534 C 174.340 98.814 174.555 106.895 174.840 112.912 C 175.140 119.149 175.750 125.270 176.550 131.462 C 176.860 133.844 178.185 147.125 176.550 156.204 C 175.290 163.168 171.430 166.733 169.155 166.733 C 163.915 166.733 158.625 163.695 156.965 159.639 C 155.305 155.583 154.965 151.361 154.750 147.060 C 154.550 142.918 154.250 138.817 154.085 134.681 C 153.920 130.545 152.610 115.845 152.050 111.729 C 151.925 115.704 142.575 127.271 136.640 131.969 C 137.835 142.297 138.030 174.529 148.705 180.240 C 157.560 184.978 173.275 184.792 181.020 178.320 C 188.935 171.707 190.345 161.208 189.790 150.875 C 189.082 138.546 187.650 126.270 185.500 114.110 C 184.700 109.467 183.685 102.694 186.145 98.422 C 187.695 95.730 190.145 94.687 192.955 93.985 C 194.330 93.644 195.740 93.634 195.955 92.125 C 196.195 90.747 194.875 89.323 193.590 89.062 Z "/>
          <path id="Shape" fill="#00A08C" stroke="none" stroke-width="1" d="M 9.940 117.820 C 9.835 118.076 9.325 120.472 9.275 120.598 C 10.450 127.993 18.825 127.506 24.700 126.429 C 32.165 125.065 36.630 119.856 39.525 113.132 L 9.940 117.820 Z "/>
          <path id="Shape" fill="#000000" stroke="none" stroke-width="1" d="M 10.640 116.888 C 10.730 117.504 9.470 120.578 12.470 122.147 C 15.165 123.560 18.325 123.782 21.190 122.759 C 24.105 121.696 26.460 118.928 27.615 115.955 L 10.640 116.888 Z "/>
          <path id="Shape" fill="#FFFFFF" stroke="none" stroke-width="1" d="M 15.685 118.196 C 15.685 118.196 16.185 120.277 16.685 120.894 C 17.418 121.720 18.654 121.858 19.550 121.214 C 20.840 120.307 20.635 118.281 20.635 118.281 L 15.685 118.196 Z "/>
          <path id="Shape" fill="#00A08C" stroke="none" stroke-width="1" d="M 141.845 90.772 C 133.710 82.434 123.265 77.029 111.430 76.974 C 108.580 76.974 105.715 77.571 102.895 77.942 C 99.115 78.443 95.260 78.513 91.455 78.794 C 84.655 79.295 80.455 77.791 78.925 70.707 C 77.780 65.473 78.470 59.346 78.960 54.037 C 79.500 48.111 80.650 43.248 80.770 37.291 C 80.890 31.335 80.935 25.449 79.270 19.603 C 77.500 13.346 72.500 7.215 66.970 4.046 C 56.365 -2.036 43.395 -0.105 33.970 7.330 C 24.860 14.484 19.175 26.788 17.625 38.104 C 16.766 44.348 16.404 50.652 16.545 56.955 C 16.685 62.470 18.315 68.135 19.545 73.470 C 21.045 79.942 21.975 86.560 19.200 92.837 C 17.950 95.680 15.540 98.934 12.810 100.523 C 10.270 102.002 7.075 101.812 5.210 104.404 C 1.875 109.036 4.115 116.938 9.380 119.018 C 11.745 119.946 14.750 120.157 17.250 119.966 C 19 119.826 25.130 119.324 30.660 116.817 C 34.535 115.058 36.270 115.008 39.525 113.107 C 43.410 103.867 42.835 91.549 41.485 81.807 C 39.960 70.827 38.345 59.747 38.535 48.627 C 38.630 43.152 39.375 36.860 41.595 31.801 C 43.500 27.460 48.635 22.992 53.345 26.357 C 57.235 29.134 58.970 34.945 59.815 39.392 C 61 45.599 60.955 51.856 60.270 58.118 C 58.795 71.595 53.040 118.221 52.970 122.027 C 52.815 129.918 54.170 141.474 59.015 147.009 C 63.860 152.545 69.250 152.745 72.210 153.758 C 75.680 154.946 109.500 155.638 115.430 154.941 C 115.570 154.821 136.955 156.189 144.495 146.197 C 152.035 136.205 153.055 124.533 153.050 120.432 C 153.035 109.488 149.625 98.768 141.845 90.772 Z "/>
          <path id="Shape" fill="#00A08C" stroke="none" stroke-width="1" d="M 94.915 137.373 C 94.915 137.373 97.550 172.855 98.415 181.995 C 96.915 182.446 87.335 181.844 85.815 181.709 C 83.765 176.580 80.080 135.974 80.080 135.974 L 94.915 137.373 Z "/>
          <path id="Shape" fill="#00A08C" stroke="none" stroke-width="1" d="M 142.525 137.373 C 142.525 137.373 145.160 172.855 146.025 181.995 C 144.525 182.446 134.945 181.844 133.425 181.709 C 131.370 176.580 127.690 135.974 127.690 135.974 L 142.525 137.373 Z "/>
          <path id="Shape" fill="#005A5A" stroke="none" stroke-width="1" d="M 17.240 114.080 C 16.970 112.105 18.990 110.816 19.690 113.539 C 20.425 116.416 17.500 116.055 17.240 114.080 Z "/>
          <path id="Shape" fill="#005A5A" stroke="none" stroke-width="1" d="M 6.960 113.809 C 6.690 111.834 8.710 110.545 9.410 113.268 C 10.145 116.161 7.230 115.815 6.960 113.809 Z "/>
          <path id="Shape" fill="#000000" stroke="none" stroke-width="1" d="M 1.375 109.327 L 0.590 109.152 C 0.039 108.012 0.107 106.670 0.770 105.592 L 1.340 105.712 C 2.240 106.464 2.265 108.475 1.375 109.327 Z "/>
          <path id="Shape" fill="#000000" stroke="none" stroke-width="1" d="M 35.470 109.147 L 34.685 108.971 C 34.133 107.833 34.199 106.490 34.860 105.411 L 35.435 105.532 C 36.330 106.289 36.360 108.294 35.470 109.147 Z "/>
        </g>
      </g>
    </g>
  </g>
</svg>