<svg width="114px" height="117px" viewBox="0 0 114 117" version="1.1" xml:space="preserve" xmlns="http://www.w3.org/2000/svg" xmlns:xlink="http://www.w3.org/1999/xlink">
  <!-- Generator: Sketch 48.2 (47327) - http://www.bohemiancoding.com/sketch -->
  <defs/>
  <g>
    <title>strawberry-a</title>
    <desc>Created with Sketch.</desc>
    <g id="food" stroke="none" stroke-width="1" fill="none" fill-rule="evenodd">
      <g id="strawberry-a" fill-rule="nonzero">
        <g id="scratch_fridge_strawberry01" transform="translate(13.000000, 3.000000)">
          <path d="M64.9591304,96.4186131 C64.9591304,96.4186131 63.9738043,93.1145985 63.8491304,93.3434307 L62.6426087,98.5624088 C62.6426087,98.5624088 62.2766304,100.19635 62.5983696,100.493431 C62.8155435,100.694161 63.7204348,99.2890511 64.2754348,97.940146 L64.2995652,97.879927 L64.9591304,96.4186131 Z" id="Shape" fill="#82001E"/>
          <path d="M62.6265217,62.9810219 C62.9281522,69.729562 63.5153261,94.3912409 63.9898913,100.806569 C64.0984783,102.263869 63.9898913,103.395985 64.2955435,103.391971 C64.6011957,103.387956 64.8425,102.444526 64.9792391,101.565328 C65.0636957,101.023358 65.1521739,100.609854 65.3090217,100.577737 C65.7111957,100.497445 65.5463043,103.765328 66.1696739,103.681022 C66.7930435,103.596715 66.4230435,100.617883 67.2475,100.320803 C68.0719565,100.023723 67.4003261,103.131022 68.4540217,102.906204 C68.7476087,102.837956 68.8883696,99.55 69.0934783,95.8284672 C69.3468478,91.3240876 69.4554348,70.7010949 69.4956522,62.9850365 C69.4956522,62.9850365 69.7168478,58.1675182 66.0972826,58.0631387 C62.4777174,57.9587591 62.6265217,62.9810219 62.6265217,62.9810219 Z" id="Shape" fill="#BE0A3C"/>
          <path d="M62.4696739,74.3062044 C62.3088043,74.2259124 64.2794565,65.3135036 57.3781522,65.3135036 C50.4768478,65.3135036 50.5411957,104.09854 51.8321739,108.598905 C52.3348913,110.365328 53.0386957,109.803285 54.3095652,109.89562 C55.5804348,109.987956 56.3767391,110.032117 55.9182609,109.201095 C55.8257609,109.032482 54.2130435,109.273358 54.2130435,109.273358 C54.2130435,109.273358 57.088587,101.448905 58.198587,97.4624088 C58.7495652,95.4832117 59.2804348,93.479927 59.7268478,91.4726277 C59.9681522,90.4167883 62.7391304,75.3660584 62.4696739,74.3062044 Z" id="Shape" fill="#82001E"/>
          <path d="M24.6773913,74.7156934 C24.7819565,74.7919708 28.1642391,94.519708 28.4658696,95.7160584 C28.8680435,97.2817518 29.2179348,98.8273723 29.583913,100.39708 C30.1791304,102.94635 31.9004348,106.242336 31.7636957,108.851825 C31.3936957,108.875912 29.7890217,108.707299 29.583913,108.879927 C28.3251087,109.943796 30.0625,109.682847 30.4606522,109.74708 C31.5092724,109.836935 32.5643046,109.820795 33.6096739,109.698905 C35.041413,109.530292 34.7598913,109.550365 35.1258696,108.068978 C35.7371739,105.591971 37.8083696,67.7985401 30.3440217,67.9229927 C22.8796739,68.0474453 24.773913,74.6193431 24.6773913,74.7156934 Z" id="Shape" fill="#82001E"/>
          <path d="M20.4384783,68.5171533 L19.5376087,67.9671533 C16.1472826,65.939781 14.6793478,64.1934307 12.6081522,60.9094891 C10.5369565,57.6255474 9.47521739,53.9281022 8.325,50.3029197 C7.09032609,46.4047445 5.93608696,37.0145985 4.97891304,37.0908759 C4.02173913,37.1671533 5.71086957,40.8565693 4.70141304,41.0693431 C3.69195652,41.2821168 3.35413043,37.3317518 2.56586957,37.2715328 C1.7776087,37.2113139 2.81521739,41.5551095 1.68913043,41.5109489 C1.07380435,41.4868613 0.595217391,38.1908759 0.104565217,38.3916058 C-0.386086957,38.5923358 1.42369565,55.5861314 5.19608696,61.9291971 C8.96847826,68.2722628 12.4352174,71.5883212 17.0803261,74.3262774 C20.0725,76.0846715 23.8328261,76.3817518 26.1895652,76.8153285 C26.1895652,76.8153285 29.893587,76.4941606 29.213913,72.539781 C28.5342391,68.5854015 20.4384783,68.5171533 20.4384783,68.5171533 Z" id="Shape" fill="#BE0A3C"/>
          <path d="M7.64130435,40.1058394 C6.99782609,39.8890511 6.52326087,42.289781 6.52326087,42.289781 C5.81141304,42.5226277 4.02576087,43.2452555 4.15445652,44.650365 C4.31532609,46.4007299 6.51521739,48.2635036 7.42413043,46.1839416 C7.42413043,46.1678832 8.28880435,40.3226277 7.64130435,40.1058394 Z" id="Shape" fill="#82001E"/>
          <path d="M36.6541304,17.4675182 C35.0695652,13.280292 33.5654348,6.08613139 35.781413,1.91094891 C37.816413,-1.9189781 41.3756522,0.55 43.0728261,6.62408759 C44.5045652,11.7346715 44.2471739,20.1572993 44.3115217,21.9357664 C44.383913,23.8989051 44.1466304,25.8218978 44.0621739,27.7729927 C43.9938043,29.4189781 44.585,32.1609489 43.9938043,33.6463504 C41.0217391,28.5036496 38.7534783,23.0116788 36.6541304,17.4675182 Z" id="Shape" fill="#82783C"/>
          <path d="M44.03,33.570073 C41.6813043,33.6905109 38.7615217,31.3138686 36.9517391,30.0171533 C35.9865217,29.3065693 23.9776087,19.6715328 20.7119565,14.8540146 C19.2359783,12.6861314 17.8484783,10.5262774 18.206413,7.80437956 C18.685,4.15510949 21.1784783,3.32408759 24.4079348,4.91386861 C29.415,7.37883212 33.6016304,12.8989051 36.2278261,17.6923358 C37.5348913,20.0729927 38.7776087,22.509854 40.1007609,24.8624088 C41.3756522,27.1386861 44.0903261,30.880292 44.03,33.570073 Z" id="Shape" fill="#A0AA1E"/>
          <path d="M43.5876087,33.4375912 C43.4347826,31.7474453 44.5648913,29.4872263 44.9509783,27.8412409 C45.3531522,26.0788321 45.7553261,24.3445255 46.326413,22.6222628 C47.4049858,19.0817023 48.6901156,15.6071545 50.1752174,12.2164234 C51.5144565,9.28175182 52.9381522,6.02189781 55.0978261,3.58905109 C56.9357609,1.50145985 60.4306522,-0.702554745 62.9603261,1.81861314 C65.1441304,3.99854015 63.7646739,8.50291971 62.9925,11.0521898 C61.9347826,14.4525547 60.048587,17.2627737 57.9130435,20.0729927 C55.9021739,22.7226277 46.2942391,32.5423358 43.5876087,33.4375912 Z" id="Shape" fill="#A0AA1E"/>
          <path d="M43.9375,33.5580292 C45.0475,32.1087591 46.8693478,30.9043796 48.2166304,29.6277372 C49.9620652,27.9737226 51.7436957,26.3638686 53.5172826,24.7459854 C56.0952174,22.3974453 58.8501087,19.9886861 62.4616304,19.5270073 C63.7686957,19.3624088 66.1455435,19.2821168 66.5959783,20.8959854 C66.9981522,22.3813869 65.0395652,24.079562 64.0743478,24.8784672 C62.6421135,26.0176163 61.1088513,27.0240908 59.493587,27.8854015 C58.5967391,28.3952555 47.8828261,32.4259124 43.9375,33.5580292 Z" id="Shape" fill="#A0AA1E"/>
          <path d="M43.6801087,33.6343066 C43.4066304,28.660219 43.9857609,23.7784672 44.1466304,18.8364964 C44.1627357,16.2592078 44.4484891,13.6906479 44.9992391,11.1726277 C45.2807609,10.0244526 46.7125,5.95364964 48.176413,8.26605839 C49.0209783,9.59489051 48.4820652,12.5135036 48.4297826,13.9948905 C48.3533696,16.1386861 48.3292391,18.4872263 47.5972826,20.5386861 C47.1146739,21.8715328 43.9455435,33.650365 43.6801087,33.6343066 Z" id="Shape" fill="#A0AA1E"/>
          <path d="M43.2859783,94.7083942 C39.3207834,94.7276107 35.4441265,93.5385271 32.173913,91.3 C30.0021739,89.7945255 28.288913,87.5262774 26.8209783,85.3583942 C24.6291304,82.1186131 22.4775,78.8105839 20.4545652,75.4583942 C16.7918475,69.4259629 14.1121644,62.8511211 12.5156522,55.979562 C11.2608696,50.4153285 10.8667391,40.15 16.6540217,36.7094891 C19.6180435,34.9390511 24.0097826,33.9273723 27.3679348,33.2368613 C30.2756522,32.6386861 33.1431522,31.8879562 36.1313043,31.6310219 C37.8365217,31.4945255 39.5578261,31.3379562 41.2469565,31.6029197 C42.5459783,31.8076642 43.1773913,32.5222628 44.1144565,32.530292 C44.2954348,32.530292 45.4738043,31.8759124 45.7995652,31.7956204 C46.4623981,31.6660019 47.1351621,31.5934724 47.8104348,31.5788321 C49.9580435,31.4543796 51.9769565,31.7956204 54.0843478,32.1127737 C59.5257609,32.9156934 65.2647826,34.9872263 69.5238043,38.5642336 C74.8365217,43.0244526 73.9718478,49.8492701 72.4998913,55.9875912 C70.8911957,62.7481752 65.1441304,78.1160584 59.6303261,85.5671533 C54.1165217,93.0182482 46.5516304,94.7244526 43.2859783,94.7083942 Z" id="Shape" fill="#F01446"/>
          <path d="M16.726413,41.3985401 C16.726413,41.3985401 17.3015217,39.8850365 19.8432609,38.5521898 C23.0535441,36.9843778 26.656981,36.4004701 30.1992391,36.8740876 C38.4317391,38.1386861 37.4061957,65.2211679 27.5931522,65.2211679 C22.276413,65.2211679 18.6809783,62.9368613 16.9958696,57.7540146 C15.5721739,53.370073 14.5506522,46.6094891 16.726413,41.3985401 Z" id="Shape" fill="#F00A78"/>
          <ellipse id="Oval" fill="#F04650" cx="38.0215217" cy="75.0368613" rx="1" ry="1.02773723"/>
          <ellipse id="Oval" fill="#F04650" cx="57.1931522" cy="46.6215328" rx="1" ry="1.02773723"/>
          <ellipse id="Oval" fill="#F04650" cx="54.036087" cy="41.840146" rx="1" ry="1.02773723"/>
          <ellipse id="Oval" fill="#F04650" cx="61.1063043" cy="42.3178832" rx="1" ry="1.02773723"/>
          <ellipse id="Oval" fill="#F04650" cx="49.6363043" cy="37.0386861" rx="1" ry="1.02773723"/>
          <ellipse id="Oval" fill="#F04650" cx="41.4038043" cy="39.6120438" rx="1" ry="1.02773723"/>
          <ellipse id="Oval" fill="#F04650" cx="34.6513043" cy="38.9054745" rx="1" ry="1.02773723"/>
          <ellipse id="Oval" fill="#F04650" cx="26.0970652" cy="38.7127737" rx="1" ry="1.02773723"/>
          <ellipse id="Oval" fill="#F04650" cx="32.1578261" cy="47.1313869" rx="1" ry="1.02773723"/>
          <ellipse id="Oval" fill="#F04650" cx="23.5030435" cy="46.6335766" rx="1" ry="1.02773723"/>
          <ellipse id="Oval" fill="#F04650" cx="48.3573913" cy="77.3572993" rx="1" ry="1.02773723"/>
          <ellipse id="Oval" fill="#F04650" cx="45.1842391" cy="45.5616788" rx="1" ry="1.02773723"/>
          <ellipse id="Oval" fill="#F04650" cx="47.4766304" cy="52.149635" rx="1" ry="1.02773723"/>
          <ellipse id="Oval" fill="#F04650" cx="39.6865217" cy="47.2156934" rx="1" ry="1.02773723"/>
          <ellipse id="Oval" fill="#F04650" cx="31.0518478" cy="81.0266423" rx="1" ry="1.02773723"/>
          <ellipse id="Oval" fill="#F04650" cx="38.0215217" cy="53.5908759" rx="1" ry="1.02773723"/>
          <ellipse id="Oval" fill="#F04650" cx="26.1332609" cy="70.5927007" rx="1" ry="1.02773723"/>
          <ellipse id="Oval" fill="#F04650" cx="33.0144565" cy="60.3474453" rx="1" ry="1.02773723"/>
          <ellipse id="Oval" fill="#F04650" cx="25.6828261" cy="60.0824818" rx="1" ry="1.02773723"/>
          <ellipse id="Oval" fill="#F04650" cx="58.3634783" cy="58.5890511" rx="1" ry="1.02773723"/>
          <ellipse id="Oval" fill="#F04650" cx="64.7218478" cy="47.1313869" rx="1" ry="1.02773723"/>
          <ellipse id="Oval" fill="#F04650" cx="65.3492391" cy="57.2481752" rx="1" ry="1.02773723"/>
          <ellipse id="Oval" fill="#F04650" cx="68.7516304" cy="51.8686131" rx="1" ry="1.02773723"/>
          <ellipse id="Oval" fill="#F04650" cx="68.9486957" cy="42.2416058" rx="1" ry="1.02773723"/>
          <ellipse id="Oval" fill="#F04650" cx="57.0684783" cy="35.8784672" rx="1" ry="1.02773723"/>
          <ellipse id="Oval" fill="#F04650" cx="17.5026087" cy="42.9642336" rx="1" ry="1.02773723"/>
          <ellipse id="Oval" fill="#F04650" cx="15.7611957" cy="56.730292" rx="1" ry="1.02773723"/>
          <ellipse id="Oval" fill="#F04650" cx="14.0157609" cy="50.3992701" rx="1" ry="1.02773723"/>
          <ellipse id="Oval" fill="#F04650" cx="44.2471739" cy="56.9711679" rx="1" ry="1.02773723"/>
          <ellipse id="Oval" fill="#F04650" cx="61.7497826" cy="66.1485401" rx="1" ry="1.02773723"/>
          <ellipse id="Oval" fill="#F04650" transform="translate(50.183756, 61.626650) rotate(-68.500000) translate(-50.183756, -61.626650) " cx="50.1837564" cy="61.6266498" rx="1.02956522" ry="1"/>
          <ellipse id="Oval" fill="#F04650" cx="53.3966304" cy="50.3992701" rx="1" ry="1.02773723"/>
          <ellipse id="Oval" fill="#F04650" cx="40.8447826" cy="65.7631387" rx="1" ry="1.02773723"/>
          <ellipse id="Oval" fill="#F04650" cx="60.7644565" cy="52.4467153" rx="1" ry="1.02773723"/>
          <ellipse id="Oval" fill="#F04650" cx="62.0232609" cy="74.8441606" rx="1" ry="1.02773723"/>
          <ellipse id="Oval" fill="#F04650" cx="53.6218478" cy="69.239781" rx="1" ry="1.02773723"/>
          <ellipse id="Oval" fill="#F04650" cx="28.473913" cy="53.6551095" rx="1" ry="1.02773723"/>
          <ellipse id="Oval" fill="#F04650" cx="21.4519565" cy="52.2379562" rx="1" ry="1.02773723"/>
        </g>
      </g>
    </g>
  </g>
</svg>