<svg width="201px" height="201px" viewBox="0 0 201 201" version="1.1" xml:space="preserve" xmlns="http://www.w3.org/2000/svg" xmlns:xlink="http://www.w3.org/1999/xlink">
  <defs/>
  <g>
    <title>llama-c</title>
    <desc>Created with Sketch.</desc>
    <g id="mountain" stroke="none" stroke-width="1" fill="none" fill-rule="evenodd">
      <g id="llama-c">
        <g id="Group-130" transform="translate(100.000000, 127.500000) scale(-1, 1) translate(-100.000000, -127.500000) translate(27.000000, 59.000000)">
          <path d="M15.8493023,119.172145 L5.57981395,127.866938 C5.57981395,127.866938 2.82930233,131.600798 6.75190698,134.389657 C9.50046512,136.343353 13.7968372,135.672623 14.8725581,135.672623 C14.976093,135.672623 16.4405581,135.98719 17.3756279,135.99239 C26.1656744,136.037885 66.9525581,135.974841 69.0818605,136.168521 C71.4371163,136.382999 70.703907,135.111082 72.2165581,135.21897 C73.7298605,135.326859 128.720558,135.243668 130.644093,135.243668 C131.172837,135.243668 135.052465,133.02285 135.642419,131.794478 C136.775442,129.434574 135.246512,126.938185 135.463349,125.746859 C135.680186,124.555533 139.000465,104.655911 137.429209,98.6986324 C136.950605,96.882072 136.884186,96.6402973 137.263814,96.51876 C138.074512,96.260087 145.064744,94.6853014 145.335628,88.8950558 C145.34214,88.7592199 124.318698,77.5082444 117.889116,74.8233746 C114.880744,73.5677057 103.105116,74.1500449 91.8725581,74.1500449 C80.64,74.1500449 48.6581395,74.2241372 46.5066977,73.9329676 C44.2106977,73.6216501 40.4984186,73.9063204 40.2333953,67.6006786 C39.9475349,60.7906894 40.8936744,47.2253054 42.8237209,34.4541385 C43.9580465,26.948722 41.0590698,18.2669282 37.9751628,16.1435999 C34.8111628,13.9637274 18.7645581,0.891641927 18.7645581,0.891641927 C18.7645581,0.891641927 17.9929302,4.52606255 21.7514419,9.13213175 C25.2306047,13.3956867 27.6776744,14.5922118 27.6776744,14.5922118 L25.1602791,15.1251562 C24.7454884,15.212897 23.6144186,14.0274208 21.552186,12.9446338 C19.4899535,11.8611969 8.86297674,5.27608426 8.42865116,5.01351167 C8.22548837,4.89132442 6.95376744,9.45319824 12.2242791,13.3001467 C17.108,16.8643746 19.6507907,16.6375483 19.3903256,16.7246392 C15.1812093,18.1278427 10.8659535,21.957243 11.6206512,22.7020653 C13.5975814,24.6531616 9.03944186,30.7261277 0.645302326,33.9094954 C-0.321023256,34.2760571 0.934418605,39.2811847 3.04288372,40.5316541 C4.77953488,41.5611467 7.47925581,38.7846365 20.5754419,36.6847057 C20.8430698,36.6418102 20.5865116,38.7540897 20.5135814,39.3331792 C20.0167442,43.2704682 20.0955349,41.9556555 19.428093,46.9581833 C18.263814,55.6828726 11.7254884,84.8706758 11.2859535,88.3601616 C10.1789767,97.1576433 6.5975814,109.479057 15.8493023,119.172145" id="Fill-84" fill="#D7C3BC"/>
          <path d="M15.8493023,119.172145 L19.2750698,122.678529 C19.2750698,122.678529 14.2546047,127.192308 12.8266047,129.465771 C11.3992558,131.739234 13.6731163,134.83616 15.2814884,135.401601 L9.70297674,135.401601 C9.70297674,135.401601 6.37227907,135.683672 4.70790698,131.463662 C3.85683721,129.139505 5.91972093,127.516624 7.05925581,126.541076 C8.1987907,125.565528 15.6689302,119.324879 15.6689302,119.324879" id="Fill-86" fill="#BB9696"/>
          <path d="M21.2779814,15.8855768 C21.2779814,15.8855768 12.0510047,14.437528 8.4311907,5.2000422 C8.27686512,5.30533121 8.4311907,5.2000422 8.4311907,5.2000422 C8.4311907,5.2000422 6.53109767,13.096068 19.500307,16.5621562 L21.2779814,15.8855768" id="Fill-88" fill="#BB968C"/>
          <path d="M31.5312558,16.2403748 L33.2418605,16.1682323 C33.2418605,16.1682323 20.9498605,7.01913731 18.7606512,0.561411398 C18.6623256,0.481469742 18.3452093,10.7562472 31.5312558,16.2403748" id="Fill-90" fill="#BB968C"/>
          <path d="M3.23491163,40.5201503 C3.42765581,40.542248 4.02672558,40.7443769 5.19751628,40.4018627 C10.3306326,38.8998695 24.4387256,35.3063946 27.0681209,35.3733376 C27.4321209,35.3824366 27.5252372,36.1877026 27.7310047,35.9862236 C28.3164,35.4136334 28.0787256,33.9337379 28.7637488,34.2762521 C28.9884,34.3873905 28.8659814,36.1467569 29.2931442,35.723651 C33.6370512,31.4120011 34.1586326,25.6438532 33.0112837,21.7995045 C31.2056093,15.7531856 21.8881209,18.7220757 17.3221674,20.2130201 C15.5438419,20.7934095 13.9817023,21.2184651 14.3098884,20.9311951 C14.7025395,20.5867311 14.5579814,19.3018152 13.1469116,20.424248 C10.7480279,22.3337487 11.6733302,22.5001313 12.2105395,23.8864366 C12.8916558,25.6438532 6.84105116,31.6492263 0.906353488,33.6958627 C-1.35253023,34.1677134 2.32849302,40.4161612 3.23491163,40.5201503" id="Fill-92" fill="#F0E1DB"/>
          <path d="M25.1868465,15.0188923 L8.25205581,4.78506052 C8.25205581,4.78506052 6.59614884,13.4824526 19.7008,16.6105761" id="Stroke-94" stroke="#26214B" stroke-width="0.5"/>
          <path d="M21.7784,15.922428 C21.7784,15.922428 21.4892837,15.9373764 20.9826791,15.8925311 C20.7326326,15.8613343 20.4233302,15.835337 20.0769116,15.7670942 C19.726586,15.7112 19.3358884,15.624759 18.9158884,15.5025718 C18.4952372,15.3888336 18.0485395,15.2283004 17.5797023,15.0541186 C17.1193302,14.8571891 16.622493,14.6680589 16.1504,14.3885881 C15.6594233,14.1442136 15.1899349,13.8283465 14.7100279,13.5118296 C14.2249116,13.201162 13.7886326,12.808603 13.3224,12.4569897 C12.9030512,12.0507821 12.4771907,11.6504239 12.082586,11.2338174 C11.7146791,10.7938133 11.3376558,10.3733072 11.0010047,9.94435197 C10.6838884,9.5004483 10.3915163,9.06109417 10.1128186,8.64773731 C9.84909767,8.22463148 9.63877209,7.80087571 9.42453953,7.42326513 C9.21030698,7.04500461 9.02407442,6.69404125 8.90100465,6.36192592 C8.76556279,6.03695984 8.6464,5.75293948 8.54937674,5.52026377 C8.36053953,5.05231262 8.25244651,4.7851905 8.25244651,4.7851905 C8.25244651,4.7851905 8.3891907,5.03931398 8.63012093,5.48321764 C8.74667907,5.70549444 8.88928372,5.97586621 9.05272558,6.28588385 C9.20379535,6.60110095 9.4199814,6.93191642 9.64788837,7.29652836 C9.87970233,7.65789064 10.1089116,8.0634483 10.3908651,8.46510638 C10.6871442,8.85701547 11.0016558,9.26777259 11.3129116,9.70192727 C11.650214,10.1159341 12.026586,10.5201919 12.3938419,10.9439476 C12.7851907,11.3436559 13.2090977,11.7251661 13.6219349,12.1144754 C14.0692837,12.463489 14.4873302,12.8540982 14.9535628,13.1647658 C15.4152372,13.4806328 15.8671442,13.7971498 16.3405395,14.0434741 C16.7996093,14.3170955 17.2677953,14.532873 17.7079814,14.7493004 C18.1566326,14.9442801 18.5864,15.1249612 18.9927256,15.2588472 C19.3990512,15.395333 19.7734698,15.5162204 20.1120744,15.6020114 C20.4487256,15.7001512 20.7495628,15.7521457 20.9950512,15.8054402 C21.4899349,15.8970806 21.7784,15.922428 21.7784,15.922428" id="Fill-96" fill="#26214B"/>
          <path d="M18.3045116,24.8519758 C18.3045116,24.8519758 24.6129767,23.8367818 25.7114884,23.5111658 C25.9986512,23.5846081 25.385907,27.5732418 22.3332558,28.0203951 C19.2812558,28.4668985 18.5076744,26.2330817 18.3045116,24.8519758" id="Fill-98" fill="#26214B"/>
          <path d="M0.27544186,34.4162475 L6.4784186,33.1462801 C6.4784186,33.1462801 5.8904186,37.3662896 1.41367442,38.300892 C1.02948837,38.1169612 -0.00911627907,35.0661796 0.27544186,34.4162475" id="Fill-100" fill="#26214B"/>
          <path d="M17.8568372,25.7951574 C17.8568372,25.7951574 17.895907,26.1773175 18.0834419,26.7011628 C18.1654884,26.9663351 18.3106977,27.2562049 18.4852093,27.5473745 C18.5737674,27.6929593 18.6727442,27.8372442 18.788,27.97373 C18.8895814,28.1199647 19.0282791,28.2382524 19.1526512,28.3682388 C19.2815814,28.4930258 19.4306977,28.5983148 19.5674419,28.7127028 C19.7191628,28.8075929 19.8689302,28.9005332 20.0134884,28.9908738 C20.1691163,29.0623664 20.3162791,29.1390583 20.4582326,29.2112008 C20.6034419,29.2748942 20.748,29.3190896 20.8788837,29.3691343 C21.1380465,29.4750733 21.3698605,29.5199186 21.5274419,29.5693134 C21.6876279,29.6174084 21.7781395,29.6453555 21.7781395,29.6453555 C21.7781395,29.6453555 21.6837209,29.640156 21.5176744,29.6317069 C21.3535814,29.6083094 21.1067907,29.6258575 20.8287442,29.5452659 C20.5448372,29.4913216 20.2205581,29.3925319 19.8832558,29.2462972 C19.7211163,29.1624559 19.5550698,29.0688657 19.3890233,28.9707259 C19.2373023,28.8511384 19.0738605,28.7393501 18.9299535,28.6048141 C18.7951628,28.4611791 18.6486512,28.3272931 18.539907,28.16546 C18.4155349,28.0159756 18.3237209,27.848943 18.235814,27.6871099 C18.0658605,27.3614939 17.9649302,27.0326282 17.9069767,26.7492578 C17.8425116,26.4665373 17.8425116,26.2228128 17.8392558,26.0570801 C17.8392558,25.8893976 17.8568372,25.7951574 17.8568372,25.7951574" id="Fill-102" fill="#26214B"/>
          <path d="M12.2710326,21.114216 C12.2710326,21.114216 13.4613581,19.9365389 14.2753116,20.0587262 C15.0892651,20.1802635 13.7732651,21.3585905 13.7732651,21.3585905 C13.7732651,21.3585905 27.5023814,16.4028578 31.0023814,19.0428822 C34.5023814,21.6835566 35.1939163,29.1980722 28.8450791,36.4695132 C28.8450791,36.4695132 29.4148465,34.9662201 28.7636837,34.2759921 C28.1125209,33.5851142 28.6822884,35.3321319 27.5023814,36.1848429 C26.3218233,37.0382038 27.9907535,35.5758564 27.2985674,35.3321319 C27.2985674,35.3321319 11.5078698,38.0943436 4.83345116,40.5315891 C4.18228837,40.6128307 2.71717209,41.1815213 1.57763721,38.6630342 C0.438102326,36.1445471 -0.53864186,34.1135091 1.08926512,33.62606 C2.71717209,33.1386109 15.3334512,26.4917547 11.5078698,22.4628252 C11.5078698,22.4628252 12.4943814,17.3621577 27.9594977,14.437463" id="Stroke-104" stroke="#26214B" stroke-width="0.5"/>
          <path d="M31.5312558,16.2403748 C31.5312558,16.2403748 19.2815814,11.7317954 18.508,0.560761465 L38.0025116,16.0375959 C38.0025116,16.0375959 45.3274419,21.6023151 42.1940465,39.5163951 C39.0606512,57.4298252 40.2405581,67.7474982 40.4033488,68.803638 C40.8917209,71.9317615 41.0141395,74.044041 51.3506977,74.044041 L113.618791,74.044041 C113.618791,74.044041 124.932093,73.3941088 134.414977,88.8702934 C135.714698,91.2158985 136.575535,93.8279758 137.114047,96.5537913 C139.391163,108.082938 135.90093,121.654821 135.473116,125.794239 C135.392372,127.337828 136.775442,128.434913 135.798698,131.481145 C135.053767,132.894098 131.199535,135.137014 131.199535,135.137014 L58.880093,135.137014 C58.880093,135.137014 20.016093,135.94358 10.5716279,110.110076 C7.8855814,102.762593 12.2815814,83.3868157 12.2815814,83.3868157 C12.2815814,83.3868157 18.5490233,56.8208388 20.867814,36.5494548" id="Stroke-106" stroke="#26214B" stroke-width="0.5"/>
          <path d="M35.3161395,17.7027221 C35.3161395,17.7027221 34.0535349,16.899406 32.2504651,15.5624955 C31.3531628,14.8885159 30.31,14.0968985 29.2271163,13.2025919 C28.154,12.2991862 27.0164186,11.3249379 25.921814,10.3006448 C25.3787442,9.78459864 24.8395814,9.26400299 24.3310233,8.72910882 C23.8087907,8.20786323 23.3165116,7.673619 22.8509302,7.14587408 C22.3677674,6.63502741 21.9536279,6.09363392 21.5544651,5.58668684 C21.1416279,5.09143853 20.8108372,4.57604233 20.4885116,4.1145905 C20.1512093,3.66353758 19.914186,3.20143582 19.6934419,2.80107761 C19.5827442,2.60089851 19.4798605,2.41436798 19.3841395,2.24083609 C19.2936279,2.06600434 19.2363256,1.89117259 19.1705581,1.74103826 C18.9289767,1.1333517 18.7909302,0.785637992 18.7909302,0.785637992 C18.7909302,0.785637992 18.9582791,1.11905319 19.2506512,1.7033422 C19.3255349,1.8469772 19.3932558,2.0146597 19.4954884,2.18169227 C19.6016279,2.34677503 19.7168837,2.52485645 19.8393023,2.71528657 C20.086093,3.09549688 20.3504651,3.53160136 20.6988372,3.96835577 C21.0367907,4.41095957 21.3832093,4.90425807 21.8136279,5.37870855 C22.2290698,5.86355794 22.6633953,6.37635441 23.1452558,6.8813517 C23.6127907,7.39804776 24.1076744,7.92059322 24.633814,8.43078996 C25.1456279,8.95463528 25.6893488,9.46353216 26.2343721,9.97047924 C27.3068372,11.0019216 28.4255349,11.9878687 29.4823721,12.9016733 C30.5483256,13.805079 31.5354884,14.6597398 32.4073953,15.3610166 C34.1375349,16.7811183 35.3161395,17.7027221 35.3161395,17.7027221" id="Fill-108" fill="#26214B"/>
          <path d="M120.170791,75.528616 L145.362977,88.7891818 C145.362977,88.7891818 145.900837,94.5313324 137.085395,96.412886" id="Stroke-110" stroke="#26214B" stroke-width="0.5"/>
          <path d="M143.316958,93.3351323 C143.316958,93.3351323 143.236865,93.1947469 143.090353,92.9776696 C142.951656,92.7540929 142.719842,92.4434254 142.447005,92.0677646 C142.307656,91.881884 142.144214,91.6895041 141.977516,91.4802259 C141.810819,91.2728976 141.636307,91.0506208 141.434447,90.8393928 C141.239098,90.6229654 141.035284,90.3987388 140.829516,90.1719125 C140.628307,89.9385868 140.391284,89.7351581 140.171191,89.5135312 C139.94654,89.2958039 139.721888,89.0780767 139.501795,88.8635991 C139.266726,88.6640699 139.036214,88.4671404 138.812865,88.2773602 C138.588214,88.0875801 138.371377,87.9042992 138.165609,87.7301174 C137.965702,87.5487863 137.746912,87.4162001 137.560028,87.2725651 C136.796214,86.7201228 136.287005,86.3516113 136.287005,86.3516113 C136.287005,86.3516113 136.819656,86.6869763 137.618633,87.1900237 C137.815284,87.32131 138.043842,87.4408976 138.256772,87.60923 C138.47426,87.7704132 138.704121,87.9406954 138.941144,88.116827 C139.17947,88.2936085 139.424307,88.4768894 139.673702,88.66277 C139.910726,88.864249 140.151656,89.0696275 140.391935,89.2743562 C140.628307,89.4842843 140.882912,89.6760142 141.101702,89.898291 C141.325702,90.1153684 141.546447,90.3291961 141.760028,90.5352246 C141.978167,90.7380034 142.170912,90.9518311 142.355191,91.15331 C142.53947,91.3554389 142.719191,91.5413195 142.874819,91.7233005 C143.180214,92.0911621 143.438726,92.3940305 143.605423,92.6280061 C143.781237,92.8567822 143.865237,92.9848189 143.865237,92.9848189 L143.316958,93.3351323 Z" id="Fill-112" fill="#26214B"/>
          <path d="M139.668753,95.5695341 C139.668753,95.5695341 139.662893,95.4349981 139.630986,95.2387186 C139.612753,95.0398393 139.533312,94.7311216 139.44866,94.3717091 C139.332753,94.0168461 139.225312,93.5904906 139.029312,93.1602355 C138.936847,92.9425083 138.850893,92.7130822 138.746707,92.4882057 C138.6308,92.2672288 138.514242,92.0430022 138.396381,91.8187756 C138.273312,91.5971487 138.174986,91.3599235 138.029126,91.1558448 C137.893684,90.9452668 137.759544,90.7385883 137.630614,90.5377593 C137.500381,90.3369303 137.375358,90.1426005 137.256195,89.9580198 C137.120753,89.7857878 136.993126,89.6226548 136.874614,89.4718706 C136.399916,88.8667837 136.083451,88.4638258 136.083451,88.4638258 C136.083451,88.4638258 136.431172,88.8414364 136.952753,89.4075273 C137.083637,89.5492125 137.225591,89.7032464 137.376009,89.8663794 C137.510149,90.0418611 137.651451,90.2270917 137.798614,90.4188217 C137.945777,90.6112016 138.097498,90.8100809 138.251823,91.0115598 C138.415916,91.2078393 138.534428,91.4392152 138.678335,91.6549927 C138.81573,91.8746697 138.953777,92.0943468 139.089219,92.3107742 C139.214893,92.533051 139.322335,92.7618271 139.435637,92.9789045 C139.67266,93.4072098 139.821777,93.8433142 139.973498,94.2079262 C140.041219,94.3931569 140.088102,94.5705883 140.137591,94.7246223 C140.188381,94.8767064 140.222242,95.0183916 140.246335,95.139279 C140.302986,95.3823536 140.316009,95.503241 140.316009,95.503241 L139.668753,95.5695341 Z" id="Fill-114" fill="#26214B"/>
          <path d="M105.763814,101.787695 C105.763814,101.787695 105.048837,102.060017 103.827256,102.60011 C102.60307,103.133055 100.884651,103.962368 98.8797209,105.055554 C96.8741395,106.14744 94.6146047,107.567542 92.3576744,109.296361 C91.2305116,110.161421 90.1222326,111.12722 89.0738605,112.18011 C88.0313488,113.23755 87.0350698,114.379481 86.2074419,115.63385 C85.3628837,116.87457 84.6596279,118.210181 84.168,119.596486 C83.6724651,120.981491 83.3866047,122.419141 83.3579535,123.820395 C83.352093,123.990677 83.3312558,124.180458 83.3384186,124.332542 L83.3586047,124.861586 C83.3696744,125.21255 83.3813953,125.560264 83.3931163,125.903428 C83.4113488,126.592356 83.5415814,127.229939 83.6060465,127.872722 C83.8626047,129.129691 84.1810233,130.324266 84.7436279,131.297865 C84.976093,131.813911 85.3322791,132.219468 85.6187907,132.643874 C85.9717209,133.010436 86.2842791,133.388046 86.66,133.652569 C87.3691163,134.229709 88.1062326,134.583272 88.7365581,134.781501 C89.3636279,134.993379 89.8845581,135.07787 90.2394419,135.110367 C90.5949767,135.149363 90.7870698,135.137664 90.7870698,135.137664 C90.7870698,135.137664 90.5962791,135.161711 90.2374884,135.145463 C89.8793488,135.133114 89.3473488,135.091519 88.6994419,134.902388 C88.0482791,134.731456 87.276,134.40714 86.5134884,133.844949 C86.1104186,133.588226 85.7685581,133.215164 85.3811163,132.847953 C85.0626977,132.424197 84.6830698,132.001741 84.423907,131.476596 C83.807907,130.4757 83.4426047,129.254478 83.1391628,127.959813 C83.0512558,127.301432 82.8975814,126.615103 82.8591628,125.928125 C82.8415814,125.584311 82.8233488,125.237247 82.8044651,124.886284 L82.7790698,124.358539 C82.7693023,124.15641 82.7894884,123.990027 82.7933953,123.803497 C82.8096744,122.345049 83.0929302,120.842406 83.5943256,119.398257 C84.091814,117.950208 84.8067907,116.558053 85.6689302,115.269238 C86.5369302,113.983022 87.5696744,112.822893 88.6447442,111.752455 C89.7263256,110.686566 90.8632558,109.716217 92.015814,108.849208 C94.3215814,107.113889 96.6664186,105.784128 98.7084651,104.733837 C100.75507,103.684847 102.533395,102.969272 103.779721,102.483772 C105.030605,102.006072 105.763814,101.787695 105.763814,101.787695" id="Fill-116" fill="#26214B"/>
          <path d="M77.6874977,135.36839 C77.6874977,135.36839 76.8110326,135.246852 75.612893,134.7906 C75.3094512,134.685961 74.9942884,134.536477 74.6563349,134.394141 C74.3301023,134.225159 73.9732651,134.073725 73.6314047,133.865097 C73.2791256,133.674017 72.9268465,133.458239 72.5823814,133.219064 C72.224893,132.998737 71.8980093,132.723816 71.5581023,132.469042 C71.2208,132.210369 70.916707,131.91205 70.6002419,131.639729 C70.2994047,131.349209 70.0213581,131.046991 69.7426605,130.76362 C69.4782884,130.467251 69.2419163,130.163733 69.0081488,129.885562 C68.7665674,129.61324 68.5933581,129.312972 68.4045209,129.058198 C68.2274047,128.796276 68.0463814,128.5675 67.9259163,128.339373 C67.7963349,128.117097 67.6836837,127.923417 67.5899163,127.763534 C67.4043349,127.445067 67.2981953,127.262436 67.2981953,127.262436 C67.2981953,127.262436 67.4108465,127.441167 67.6074977,127.753135 C67.7051721,127.909118 67.824986,128.098899 67.9610791,128.315976 C68.0893581,128.539553 68.276893,128.761829 68.4624744,129.017253 C68.6591256,129.263577 68.8401488,129.556696 69.0901953,129.819269 C69.3317767,130.087691 69.5759628,130.38081 69.8481488,130.665481 C70.1333581,130.936502 70.4192186,131.226372 70.7252651,131.503243 C71.0475907,131.761266 71.356893,132.045936 71.6974512,132.289661 C72.0419163,132.528836 72.3707535,132.788159 72.7295442,132.992888 C73.0759628,133.215164 73.4282419,133.415993 73.7785674,133.591475 C74.1197767,133.783855 74.4740093,133.920341 74.7982884,134.074375 C75.1323349,134.201761 75.4435907,134.338247 75.7424744,134.429238 C76.9321488,134.834795 77.7461023,134.917337 77.7461023,134.917987 L77.6874977,135.36839 Z" id="Fill-118" fill="#26214B"/>
          <path d="M61.746707,135.369625 C61.746707,135.370274 60.5296837,135.277334 58.7585209,134.916622 C57.870986,134.74244 56.8447535,134.493516 55.7592651,134.180899 C55.2161953,134.025565 54.6633581,133.837734 54.1001023,133.653804 C53.546614,133.439976 52.9722884,133.255395 52.4220558,133.012321 C51.8692186,132.771846 51.3092186,132.550869 50.7843814,132.273998 C50.2517302,132.015325 49.7301488,131.755352 49.2482884,131.461582 C48.7566605,131.186011 48.2865209,130.90979 47.8658698,130.608872 C47.4400093,130.317052 47.0239163,130.060329 46.6807535,129.766559 C46.3284744,129.486439 46.0054977,129.229715 45.718986,129.001589 C45.4533116,128.750715 45.2208465,128.531688 45.0300558,128.352307 C44.6497767,127.990945 44.4322884,127.784916 44.4322884,127.784916 C44.4322884,127.784916 44.654986,127.986395 45.0437302,128.338009 C45.2384279,128.51284 45.4748,128.725368 45.7463349,128.969743 C46.0374047,129.19007 46.3655907,129.438344 46.7237302,129.709365 C47.0714512,129.994036 47.4927535,130.23971 47.9231721,130.520481 C48.3490326,130.809701 48.8224279,131.072923 49.3179628,131.336146 C49.8037302,131.616916 50.3285674,131.862591 50.8638233,132.106965 C51.3912651,132.369538 51.9532186,132.575566 52.506707,132.801093 C53.0582419,133.028569 53.6325674,133.199501 54.1860558,133.39838 C54.7493116,133.567363 55.3014977,133.740245 55.8432651,133.88128 C56.9261488,134.1653 57.9478233,134.387577 58.8301488,134.539661 C60.5954512,134.855528 61.7799163,134.916622 61.7799163,134.916622 L61.746707,135.369625 Z" id="Fill-120" fill="#26214B"/>
          <path d="M33.0224186,130.895037 C33.0224186,130.895037 31.9545116,130.305548 30.4952558,129.240959 C29.7607442,128.713864 28.931814,128.061332 28.0748837,127.325609 C27.6464186,126.958398 27.2218605,126.557389 26.7862326,126.157031 C26.372093,125.732626 25.928,125.325768 25.528186,124.875365 C25.1264186,124.427562 24.7090233,123.994057 24.3482791,123.524156 C23.971907,123.066604 23.6053023,122.614251 23.2901395,122.1463 C22.9580465,121.691347 22.6461395,121.244844 22.3889302,120.797041 C22.123907,120.353787 21.8523721,119.948229 21.6628837,119.538122 C21.4590698,119.137114 21.2728372,118.769252 21.1074419,118.443636 C20.9706977,118.104372 20.8515349,117.809303 20.7525581,117.566228 C20.5572093,117.080079 20.4458605,116.801908 20.4458605,116.801908 C20.4458605,116.801908 20.5637209,117.077479 20.7707907,117.558429 C20.8749767,117.799554 21.0006512,118.090723 21.1458605,118.425438 C21.3177674,118.747155 21.5131163,119.108517 21.7253953,119.504326 C21.9233488,119.907934 22.204,120.306342 22.4787907,120.740497 C22.7444651,121.180501 23.0654884,121.616605 23.4060465,122.061159 C23.7303256,122.518061 24.1053953,122.960015 24.4895814,123.405218 C24.8594419,123.862771 25.2846512,124.283277 25.6935814,124.718081 C26.099907,125.155486 26.5511628,125.548695 26.9711628,125.959452 C27.4133023,126.346811 27.8424186,126.734821 28.276093,127.088384 C29.1421395,127.79616 29.9782326,128.422695 30.7173023,128.927692 C32.1915349,129.948735 33.2418605,130.496628 33.2418605,130.496628 L33.0224186,130.895037 Z" id="Fill-122" fill="#26214B"/>
          <path d="M19.4663163,122.844522 L14.1938512,127.581877 C14.1938512,127.581877 11.3046419,130.344089 12.7697581,132.700093 C14.2348744,135.056097 14.2752465,136.071941 21.5604558,136.071941 C29.1302233,136.071941 69.5837116,135.949754 69.7054791,136.071941 C69.8278977,136.193479 71.5372,135.555245 71.5775721,135.143188" id="Stroke-124" stroke="#26214B" stroke-width="0.5"/>
          <path d="M22.6998605,132.903197 C22.6998605,132.903197 22.701814,132.845353 22.7265581,132.737464 C22.7519535,132.631525 22.7968837,132.470342 22.9193023,132.293561 C23.037814,132.116129 23.2331628,131.9192 23.5164186,131.781414 C23.6583721,131.717071 23.8172558,131.661177 23.9885116,131.62933 C24.1675814,131.605282 24.3323256,131.624131 24.5022791,131.619581 L29.5377209,131.619581 L34.5731628,131.619581 C34.9169767,131.599433 35.2314884,131.639729 35.5108372,131.676775 C35.790186,131.709922 36.0330698,131.738519 36.2329767,131.762566 C36.6334419,131.815861 36.8626512,131.847057 36.8626512,131.847057 C36.8626512,131.847057 36.6334419,131.878254 36.2329767,131.931548 C36.0330698,131.955596 35.790186,131.984193 35.5108372,132.017339 C35.2314884,132.054386 34.9169767,132.094681 34.5731628,132.074534 L29.5377209,132.074534 L24.5022791,132.074534 C24.3284186,132.068034 24.1636744,132.086882 24.030186,132.084932 C23.8895349,132.079733 23.758,132.090132 23.6349302,132.11288 C23.3913953,132.164874 23.1934419,132.280562 23.054093,132.407299 C22.7721395,132.666622 22.6998605,132.903197 22.6998605,132.903197" id="Fill-126" fill="#26214B"/>
          <path d="M15.758986,119.090254 L5.60670698,127.785046 C5.60670698,127.785046 3.45005581,129.978567 5.48493953,132.903262 C7.53740465,135.853304 10.2872651,135.584232 12.1593581,135.584232 L16.0695907,135.584232" id="Stroke-128" stroke="#26214B" stroke-width="0.5"/>
        </g>
      </g>
    </g>
  </g>
</svg>