<svg width="152px" height="136px" viewBox="0 0 152 136" version="1.1" xml:space="preserve" xmlns="http://www.w3.org/2000/svg" xmlns:xlink="http://www.w3.org/1999/xlink">
  <!-- Generator: Sketch 48.2 (47327) - http://www.bohemiancoding.com/sketch -->
  <defs/>
  <g>
    <title>goalie-c</title>
    <desc>Created with Sketch.</desc>
    <g id="soccer" stroke="none" stroke-width="1" fill="none" fill-rule="evenodd">
      <g id="goalie-c" fill-rule="nonzero">
        <g id="scratch_footie_player_goalie03" transform="translate(8.000000, 8.000000)">
          <rect id="Rectangle-path" fill="#281446" transform="translate(112.156914, 88.445895) rotate(-56.680000) translate(-112.156914, -88.445895) " x="108.985999" y="87.7931946" width="6.34183007" height="1.3054"/>
          <path d="M123.821699,95.3836667 C123.821699,95.3836667 121.118824,92.0856 118.84549,90.7883333 C117.808105,90.1946 116.742353,90.1986667 116.272288,90.8086667 C115.704967,91.5488 115.332157,92.4353333 116.272288,93.4154 C117.771634,95.0136 123.124706,96.8517333 123.124706,96.8517333 L123.821699,95.3836667 Z" id="Shape" fill="#281446"/>
          <polygon id="Shape" fill="#FFFFFF" points="117.415033 93.4804667 117.694641 93.6634667 117.795948 93.7163333 119.060261 91.7887333 118.687451 91.5406667"/>
          <polygon id="Shape" fill="#FFFFFF" points="118.310588 94.0701333 118.586144 94.2572 118.691503 94.306 119.955817 92.3784 119.583007 92.1303333"/>
          <polygon id="Shape" fill="#FFFFFF" points="119.266928 94.7045333 119.542484 94.8875333 119.647843 94.9404 120.912157 93.0087333 120.535294 92.7647333"/>
          <path d="M108.824183,84.18 L106.846667,87.474 C106.846667,87.474 94.1792157,81.9962 96.2134641,78.4988667 C98.2477124,75.0015333 108.824183,84.18 108.824183,84.18 Z" id="Shape" fill="#281446"/>
          <path d="M117.763529,90.9306667 C115.652288,89.121 111.753987,85.9164667 109.387451,84.0702 L106.996601,87.8115333 C109.602222,89.2552 114.007059,91.4430667 116.478954,92.7362667 L117.763529,90.9306667 Z" id="Shape" fill="#F01446"/>
          <path d="M106.015948,87.7668 L107.300523,88.5191333 L110.047974,84.1678 C109.693637,83.86028 109.318586,83.5776537 108.92549,83.3219333 L106.015948,87.7668 Z" id="Shape" fill="#F04650"/>
          <path d="M108.795817,87.9701333 C109.371242,84.6151333 112.211895,85.5301333 113.455948,86.2133333 C115.076863,87.1120667 116.961176,87.6082 116.077778,90.7476667 C115.623922,92.3743333 113.350588,92.3296 111.620261,91.4268 C109.958824,90.5728 108.828235,88.9258 108.795817,87.9701333 Z" id="Shape" fill="#BE0A3C"/>
          <path d="M102.701176,71.5123333 C102.701176,71.5123333 101.440915,74.2329333 103.280654,74.4281333 C105.120392,74.6233333 105.991634,72.6794667 105.991634,72.6794667 C106.07268,72.4354667 109.152418,61.4188667 108.994379,61.2236667 C108.629673,61.0284667 106.510327,60.9756 106.178039,60.817 C105.857908,60.8902 102.63634,71.3293333 102.701176,71.5123333 Z" id="Shape" fill="#281446"/>
          <path d="M107.713856,41.3946 C105.16902,46.8886667 102.522876,58.9666667 102.522876,58.9666667 L113.93817,62.0451333 C114.829673,60.4794667 115.790065,58.4949333 116.641046,56.8764 C117.938693,54.5120115 119.10879,52.0793482 120.146275,49.5889333 C120.664967,48.2876 122.930196,44.0908 121.499739,42.8423333 C119.449281,41.053 117.42719,48.6292 116.410065,48.3608 C115.392941,48.0924 118.918431,40.87 117.058431,39.7964 C114.120523,38.1006 112.159216,45.9858667 111.016471,46.1078667 C110.145229,45.2132 112.823791,41.2034667 112.507712,39.5361333 C111.745882,35.4816667 108.536471,39.6215333 107.713856,41.3946 Z" id="Shape" fill="#F04650"/>
          <path d="M102.3,42.8667333 C97.8667974,43.1310667 102.660654,56.4778667 103.232026,58.6576 L110.708497,61.732 C112.329412,59.6986667 113.69098,57.6978667 113.622092,55.0423333 C113.51268,51.0692 110.347843,49.9996667 107.069542,49.2636 C106.980392,46.7016 105.331111,42.7 102.3,42.8667333 Z" id="Shape" fill="#F01446"/>
          <path d="M102.563399,57.34 C105.250065,57.9337333 107.713856,59.0195333 110.323529,59.8654 C112.256471,60.4916667 116.18719,60.9552667 113.994902,63.7572 C111.287974,63.7572 108.645882,62.9438667 106.125359,62.0248 C103.827712,61.1952 99.9820915,60.4225333 102.563399,57.34 Z" id="Shape" fill="#BE0A3C"/>
          <path d="M62.7253595,111.536467 C59.2606536,112.504333 56.0715033,112.301 55.5284967,112.484 C55.5284967,113.297333 55.4879739,115.0826 55.4798693,115.932533 C55.5690196,115.932533 61.0922876,115.603133 64.4840523,114.598667 C68.3580392,113.455933 71.9969935,111.064733 71.5147712,109.023267 C71.032549,106.9818 65.8577778,110.662133 62.7253595,111.536467 Z" id="Shape" fill="#281446"/>
          <path d="M55.9904575,107.233933 C50.8643137,107.233933 35.550719,105.607267 33.7028758,106.973667 C31.8550327,108.340067 32.1062745,110.088733 33.9460131,110.8492 C34.9716987,111.170501 36.0457246,111.308156 37.1189542,111.255867 C36.8636601,111.255867 39.9555556,110.3734 38.7398693,111.699133 C37.524183,113.024867 32.7303268,112.1058 32.9694118,115.172067 C35.1616993,116.6686 37.4269281,116.477467 39.9312418,116.144 C40.2513725,116.392067 40.2797386,116.6198 40.0690196,116.920733 C38.496732,117.3274 34.7037908,117.587667 33.7879739,119.250933 C32.1670588,122.162667 39.890719,121.8536 39.890719,121.8536 C39.890719,121.8536 51.0061438,121.9634 55.2205229,119.637267 L55.9904575,107.233933 Z" id="Shape" fill="#F04650"/>
          <path d="M44.9803922,106.0912 C42.865098,105.684533 39.5503268,102.8826 40.7903268,100.767933 C42.2815686,98.2344 45.8475817,100.800467 47.654902,101.987933 C50.7184314,104.021267 55.3542484,106.355533 55.3866667,110.353067 C55.3866667,111.914667 55.9539869,114.391267 55.447451,115.8512 C54.8801307,117.477867 52.8823529,117.0712 51.2371242,116.965467 C48.5909804,116.794667 46.5121569,115.769867 45.0128105,113.529133 C43.0717647,110.654 44.3198693,109.063933 44.9803922,106.0912 Z" id="Shape" fill="#F01446"/>
          <path d="M54.0980392,106.404333 C55.885098,106.440933 57.1534641,106.0912 57.899085,108.096067 C58.5109804,109.743067 58.1462745,117.298933 57.7045752,118.9256 C57.0643137,121.296467 55.8486275,121.101267 53.6522876,120.788133 C53.6709152,120.517344 53.6709152,120.245589 53.6522876,119.9748 C53.5820479,117.635111 53.5725926,115.292711 53.6239216,112.9476 C53.6603922,111.02 53.3443137,108.132667 54.0980392,106.404333 Z" id="Shape" fill="#BE0A3C"/>
          <path d="M78.8048366,113.033 C78.8818301,113.102133 78.950719,113.1672 79.0398693,113.236333 C80.3245875,114.149578 81.7052117,114.918707 83.1569935,115.529933 L85.9935948,111.601533 L85.9328105,111.552733 C85.5099616,111.232118 85.1227604,110.866721 84.7779085,110.462867 C84.6401307,110.2758 83.4649673,108.803667 82.5977778,107.766667 C82.5977778,107.766667 79.274902,100.475133 75.2064052,103.972467 C71.1379085,107.4698 78.8048366,113.033 78.8048366,113.033 Z" id="Shape" fill="#281446"/>
          <path d="M94.9532026,115.839 C92.0315033,115.074467 89.0449673,112.699533 86.8081046,110.8004 C84.5064052,112.553133 83.9715033,113.6674 82.8166013,116.359533 C83.8418301,116.6808 86.6581699,117.4982 88.8950327,117.6202 C91.9504575,117.782867 94.5682353,117.12 95.9176471,116.4612 L96.0270588,116.200933 C95.6409016,116.191873 95.2665264,116.065693 94.9532026,115.839 Z" id="Shape" fill="#F01446"/>
          <rect id="Rectangle-path" fill="#281446" transform="translate(88.624676, 113.775044) rotate(-54.210000) translate(-88.624676, -113.775044) " x="86.8761135" y="113.197578" width="3.49712418" height="1.15493333"/>
          <path d="M87.3551634,110.349 C86.6622222,109.747133 85.855817,109.0192 85.7626144,108.946 L80.4946405,115.940667 C81.0052288,116.148067 81.9534641,116.754 82.5896732,116.9614 L87.3551634,110.349 Z" id="Shape" fill="#F04650"/>
          <path d="M96.0756863,115.538067 L95.4070588,115.330667 L93.9522876,117.457533 C94.4007009,117.42854 94.8509587,117.453112 95.2935948,117.530733 L92.9108497,121.0728 C92.9108497,121.0728 93.3160784,121.324933 93.4335948,121.3778 L93.9279739,120.8532 C94.6371242,120.873533 94.7384314,121.634 95.2773856,121.784467 L95.6258824,121.564867 C95.7596078,121.1582 95.4759477,121.015867 95.2206536,120.885733 C94.8899079,120.764477 94.6061037,120.5409 94.4101961,120.247267 L94.9815686,119.2428 C95.6218301,119.2428 95.6583007,119.987 96.2783007,120.056133 L96.6105882,119.930067 C96.6592157,119.458333 96.6105882,119.377 96.2377778,119.222467 C95.8993075,119.138024 95.6227837,118.893881 95.4962092,118.567733 L96.1607843,117.6446 L97.4818301,118.734467 C97.7857516,118.783267 98.0126797,118.734467 98.0977778,118.372533 C97.7128105,117.9008 96.8820915,117.652733 96.5579085,117.063067 C96.805098,116.847533 96.9631373,116.453067 97.1819608,116.249733 C97.4169935,116.465267 98.1261438,117.2298 98.3287582,117.4128 C98.413067,117.409235 98.4970215,117.399723 98.58,117.384333 C98.6354465,117.364717 98.6884718,117.338793 98.7380392,117.307067 C98.9082353,116.847533 98.8839216,116.762133 98.5354248,116.518133 C98.2517647,116.318867 97.6439216,115.8756 97.3602614,115.6682 L97.3156863,115.635667 C97.3156863,115.6072 96.3188235,115.590933 96.0756863,115.538067 Z" id="Shape" fill="#281446"/>
          <path d="M89.2394771,115.298133 C87.0309804,114.5458 84.9643137,113.561667 84.2024837,116.1562 L84.1741176,116.1562 C84.3969935,118.189533 87.3754248,119.629133 89.3124183,119.409533 C92.1530719,119.092333 91.9139869,116.205 89.2394771,115.298133 Z" id="Shape" fill="#BE0A3C"/>
          <path d="M52.2339869,5.4168 C48.0803922,2.27733333 43.5134641,-1.32573333 38.0915033,1.1956 C32.4588235,3.82266667 32.4183007,8.67826667 35.0928105,13.7494 C37.4715033,18.2227333 40.9726797,22.1918 44.1456209,26.1324 C45.6368627,27.9827333 52.7324183,36.3844667 52.0678431,40.0119333 C49.5756863,41.2319333 39.8542484,31.2564 37.0743791,29.0319333 C31.6564706,24.7578667 24.8607843,17.4866667 17.5018301,21.0165333 C13.9317647,22.7367333 11.1154248,26.7098667 10.6129412,30.6626667 C10.0618301,34.9042 13.5913725,38.5682667 16.4198693,41.3092 C21.2826144,46.0062 27.4420915,49.6662 33.0747712,53.3994 C34.2904575,54.2127333 39.2180392,57.1976667 37.2162092,59.3774 C35.9113725,60.7966667 21.2015686,53.3058667 18.1177778,51.9272667 C15.147451,50.6015333 11.2086275,48.8691333 7.92627451,48.8935333 C-1.39398693,48.9708 -1.42235294,60.1663333 2.91359477,66.0060667 C7.69529412,72.4517333 15.880915,76.2784667 22.644183,80.1702667 C30.294902,84.5826 37.6943791,89.3568667 45.3369935,93.7163333 C49.4581699,96.0628 61.3394771,104.777667 63.325098,105.591 L98.7542484,70.5973333 C97.7411765,68.3484667 95.6623529,66.2012667 94.2481046,64.2004667 C90.9792593,59.5915778 87.7063617,54.9718444 84.4294118,50.3412667 C79.7044444,43.6719333 74.2581699,37.1368 70.1005229,30.0892667 C67.2396078,25.2418 64.5407843,20.5326 61.0882353,16.0552 C58.5150327,12.7042667 55.6298039,7.98286667 52.2339869,5.4168 Z" id="Shape" fill="#F04650"/>
          <path d="M85.8436601,9.11746667 C85.3047059,8.73926667 84.0160784,7.97066667 83.9836601,7.82833333 C73.5611765,1.952 70.003268,14.7904667 71.4215686,22.6838667 C72.1752941,26.9091333 72.2806536,33.001 70.1532026,36.8358667 C67.7988235,41.0733333 63.1184314,43.9972667 60.196732,47.8931333 C53.8751634,56.3233333 54.0129412,66.5998 59.5362092,75.3472 C62.3363399,79.788 66.100915,83.6269333 69.8047059,87.3194667 C71.6768627,89.1860667 73.7840523,92.232 75.9398693,93.6797333 L98.3084967,69.2797333 C98.2801307,59.963 98.2477124,50.7764 97.6601307,41.48 C97.2954248,35.7094 96.1121569,30.0160667 94.8235294,24.4 C93.5186928,18.9181333 90.5362092,12.4074 85.8436601,9.11746667 Z" id="Shape" fill="#F01446"/>
          <path d="M99.4715033,62.4924667 C99.4715033,62.4924667 80.6810458,82.7566667 75.725098,88.1978667 L89.3732026,100.617467 C97.4169935,91.7887333 111.871503,74.5908 111.871503,74.5908 L99.4715033,62.4924667 Z" id="Shape" fill="#BE0A3C"/>
          <path d="M82.3789542,109.8732 C79.8705882,112.451467 77.3460131,115.639733 74.2460131,117.5104 C72.1145098,115.952867 59.252549,104.802067 59.252549,104.802067 C59.252549,104.802067 72.9898039,90.3572667 72.9128105,90.0604 C76.6935948,85.8758 83.8215686,78.1369333 90.0377778,82.2930667 C92.9270588,84.2247333 95.3827451,88.1165333 95.3462745,91.6464 C95.3057516,95.4934667 92.619085,98.393 90.4592157,101.292533 C90.4754248,101.312867 85.0980392,107.063133 82.3789542,109.8732 Z" id="Shape" fill="#281446"/>
          <path d="M87.3713725,100.284 C85.2196078,102.4556 83.2015686,104.7248 81.0822222,106.9208 C79.1371242,108.954133 73.0586928,115.3876 70.7043137,116.892267 C69.1887582,115.810533 60.5330719,107.917133 60.5330719,107.917133 C60.5330719,107.917133 74.8741176,92.7322 74.8335948,92.5166667 C77.7755556,89.2633333 83.3150327,83.2365333 87.7482353,86.0994667 C89.8067974,87.4292667 91.4763399,90.2393333 91.3223529,92.8623333 C91.1521569,95.7293333 89.0652288,97.9863333 87.363268,100.223 L87.3713725,100.284 Z" id="Shape" fill="#F01446"/>
        </g>
      </g>
    </g>
  </g>
</svg>