<svg width="74px" height="146px" viewBox="0 0 74 146" version="1.1" xml:space="preserve" xmlns="http://www.w3.org/2000/svg" xmlns:xlink="http://www.w3.org/1999/xlink">
  <defs/>
  <g>
    <title>trumpet-b</title>
    <desc>Created with Sketch.</desc>
    <g id="music" stroke="none" stroke-width="1" fill="none" fill-rule="evenodd">
      <g id="trumpet-b" fill-rule="nonzero">
        <g id="Group" transform="translate(11.551402, 3.000000)">
          <path d="M8.47850467,0.7030837 C8.68037383,0.502202643 8.8317757,0.401762115 9.08411215,0.401762115 C9.53831776,0.652863436 9.58878505,1.10484581 9.63925234,1.55682819 C9.8411215,3.01321586 10.0429907,4.46960352 10.3457944,5.92599119 C10.3962617,6.17709251 10.3962617,6.4784141 10.3457944,6.77973568 C10.2953271,6.98061674 10.1439252,7.13127753 9.94205607,7.1814978 C9.68971963,7.23171806 9.48785047,7.13127753 9.3364486,6.93039648 C9.28598131,6.82995595 9.23551402,6.72951542 9.18504673,6.57885463 C8.88224299,4.97180617 8.52897196,3.36475771 8.42803738,1.70748899 C8.42803738,1.4061674 8.47850467,1.00440529 8.47850467,0.7030837 Z" id="Shape" fill="#080808"/>
          <path d="M18.8747664,1.90837004 C18.7233645,2.71189427 18.5719626,3.61585903 18.3700935,4.51982379 C18.2691589,5.12246696 18.1682243,5.72511013 18.0672897,6.27753304 C18.0168224,6.52863436 17.9663551,6.72951542 17.8654206,6.98061674 C17.764486,7.23171806 17.5121495,7.28193833 17.2598131,7.28193833 C17.0074766,7.28193833 16.8056075,7.13127753 16.7046729,6.88017621 C16.6037383,6.62907489 16.6542056,6.3277533 16.7046729,6.02643172 C16.9065421,4.82114537 17.1588785,3.56563877 17.3607477,2.36035242 C17.411215,1.90837004 17.764486,1.60704846 17.9158879,1.15506608 C17.9663551,0.954185022 18.2186916,0.903964758 18.4205607,0.954185022 C18.6224299,1.00440529 18.7233645,1.15506608 18.7738318,1.4061674 C18.9252336,1.60704846 18.8747664,1.70748899 18.8747664,1.90837004 Z" id="Shape" fill="#080808"/>
          <path d="M0.555140187,4.67048458 C0.807476636,4.67048458 1.00934579,4.77092511 1.11028037,4.9215859 C1.31214953,5.27312775 1.51401869,5.57444934 1.71588785,5.97621145 C2.17009346,7.030837 2.72523364,7.98502203 3.33084112,8.88898678 C3.4317757,9.03964758 3.53271028,9.24052863 3.63364486,9.39118943 C3.68411215,9.64229075 3.63364486,9.84317181 3.4317757,10.0440529 C3.22990654,10.1947137 2.97757009,10.1444934 2.77570093,9.9938326 C2.62429907,9.89339207 2.4728972,9.74273128 2.37196262,9.54185022 C1.91775701,8.88898678 1.51401869,8.18590308 1.11028037,7.53303965 C0.757009346,6.88017621 0.504672897,6.12687225 0.353271028,5.42378855 C0.302803738,5.22290749 0.353271028,5.02202643 0.403738318,4.87136564 C0.353271028,4.77092511 0.454205607,4.72070485 0.555140187,4.67048458 Z" id="Shape" fill="#090909"/>
        </g>
        <g id="Group" transform="translate(6.000000, 14.048458)">
          <path d="M17.0074766,70.30837 C16.1495327,70.0572687 15.4934579,69.6052863 15.1401869,68.7515419 C14.7364486,67.7471366 14.7364486,66.7929515 15.1401869,65.8387665 C15.2915888,65.4872247 15.4934579,65.1356828 15.9476636,64.985022 C16.4523364,64.8343612 17.0074766,64.985022 17.3607477,65.4370044 C17.5121495,65.6378855 17.6635514,65.8889868 17.8149533,66.1400881 C17.9158879,66.3409692 18.0168224,66.5418502 18.117757,66.7427313 C18.3700935,66.8933921 18.5214953,66.7427313 18.7738318,66.6422907 C18.7738318,65.6378855 18.6728972,64.6334802 18.9252336,63.6290749 C18.5719626,63.0264317 18.2186916,62.4237885 18.0168224,61.7709251 C17.9158879,61.4696035 17.6635514,61.369163 17.3607477,61.4696035 C17.1084112,61.6202643 17.1588785,61.9215859 17.1588785,62.122467 C17.1588785,62.6246696 17.0074766,63.076652 16.7046729,63.4784141 C16.2504673,64.1814978 15.4934579,64.3321586 14.8373832,63.8801762 C13.5757009,63.0264317 13.0205607,60.615859 13.7775701,59.2599119 C14.3327103,58.2555066 15.7457944,58.2555066 16.3514019,59.3101322 C16.553271,59.661674 16.6542056,60.0634361 16.8056075,60.3647577 C17.1084112,60.4651982 17.3102804,60.4651982 17.6130841,60.2140969 C17.7140187,59.6114537 17.5626168,58.9585903 17.8149533,58.3057269 C18.0168224,57.8035242 18.2186916,57.4519824 18.7233645,57.3013216 C19.0766355,57.2008811 19.3794393,57.1004405 19.7327103,57 C19.7327103,56.8493392 19.7831776,56.7488987 19.7831776,56.6986784 C19.2785047,54.9409692 19.1271028,53.1330396 18.7233645,51.3753304 C18.2691589,49.3665198 17.9158879,47.3577093 17.5626168,45.3488987 C17.2093458,43.3903084 16.8560748,41.3814978 16.4523364,39.4229075 C16.3009346,38.7700441 16.1495327,38.1171806 15.9981308,37.4140969 C15.5439252,35.4052863 15.0897196,33.3462555 14.5850467,31.3374449 C13.8785047,28.6255507 13.0205607,25.9638767 11.7084112,23.4528634 C10.2953271,20.8414097 8.73084112,18.2801762 6.96448598,15.9198238 C5.24859813,13.6599119 3.28037383,11.6511013 1.00934579,9.94361233 C0.857943925,9.84317181 0.706542056,9.69251101 0.555140187,9.54185022 C0.0504672897,8.93920705 0.0504672897,8.38678414 0.555140187,7.78414097 C0.908411215,7.33215859 1.36261682,6.98061674 1.81682243,6.67929515 C3.17943925,5.82555066 4.69345794,5.22290749 6.20747664,4.67048458 C9.53831776,3.46519824 12.9196262,2.41057269 16.4018692,1.65726872 C17.9663551,1.30572687 19.5813084,1.05462555 21.1457944,0.903964758 C23.8205607,0.602643172 26.4953271,0.35154185 29.2205607,0.35154185 C30.5327103,0.35154185 31.8953271,0.451982379 33.2074766,0.602643172 C33.7626168,0.7030837 34.317757,0.803524229 34.8224299,1.05462555 C35.5794393,1.45638767 35.7308411,1.80792952 35.5794393,2.71189427 C35.4785047,3.56563877 34.9738318,4.2185022 34.6205607,4.9215859 C32.6018692,8.93920705 31.0373832,13.1577093 30.0785047,17.5770925 C29.5233645,20.0881057 29.0186916,22.5991189 28.7663551,25.1603524 C28.6654206,25.9638767 28.6149533,26.7674009 28.6654206,27.5709251 C28.7158879,28.2237885 28.4635514,28.8264317 28.6149533,29.4792952 C28.8672897,29.6299559 29.0186916,29.4792952 29.1700935,29.3286344 C29.6242991,29.0273128 30.0785047,28.6757709 30.5831776,28.3744493 C33.2579439,26.7171806 35.882243,27.1189427 38.4560748,28.5251101 C39.1121495,28.876652 39.6672897,29.4792952 40.1214953,30.0819383 C41.4336449,31.7894273 42.4429907,33.6475771 43.0485981,35.7066079 C43.1495327,36.0581498 43.2504673,36.4096916 43.4018692,36.8114537 C44.7140187,37.3136564 45.4205607,38.4185022 45.9757009,39.6740088 C46.3794393,40.5277533 46.7831776,41.4317181 46.9850467,42.3859031 C47.4392523,44.645815 47.8934579,46.9559471 48.3476636,49.215859 C48.4485981,49.7180617 48.246729,50.2704846 48.5495327,50.722467 C48.8018692,50.9735683 49.1046729,50.7726872 49.4074766,50.8731278 C49.4579439,50.923348 49.5588785,50.923348 49.6093458,51.0237885 C50.4672897,52.1286344 50.9719626,53.384141 51.0728972,54.7903084 C51.1233645,55.3427313 51.2747664,55.8951542 51.1233645,56.4475771 C51.0224299,56.7488987 51.1738318,57 51.3757009,57.2008811 C52.3850467,58.4563877 52.6373832,59.9629956 52.7383178,61.4696035 C52.3850467,62.5744493 52.8392523,63.5788546 53.2934579,64.5832599 C53.7476636,65.5374449 53.7981308,66.5920705 53.7476636,67.646696 C53.7476636,68.1488987 53.646729,68.6008811 53.2934579,69.0528634 C52.6878505,68.9022026 52.082243,69.1030837 51.4261682,69.3039648 C51.728972,71.2625551 52.0317757,73.2211454 52.1327103,75.1295154 C52.2336449,76.3348018 52.2336449,77.5400881 51.728972,78.6449339 C51.1738318,79.9004405 50.4168224,80.9048458 49.0542056,81.4070485 C47.1364486,85.2740088 44.3102804,87.9859031 39.717757,88.2872247 C40.071028,90.4969163 40.8280374,92.6061674 41.2317757,94.7656388 C42.4429907,95.5189427 42.5943925,95.9207048 41.9383178,97.3268722 C42.5439252,98.2810573 43.3009346,99.2352423 43.6542056,100.490749 C43.4018692,101.294273 42.6953271,101.746256 41.9383178,101.997357 C40.5757009,102.499559 39.1626168,102.851101 37.6990654,102.700441 C36.588785,102.6 36.235514,102.198238 36.235514,101.043172 C36.235514,100.239648 36.4373832,99.4361233 36.6392523,98.6325991 C36.4878505,98.4819383 36.3364486,98.3312775 36.235514,98.1806167 C35.8317757,97.7286344 35.6803738,97.1762115 35.9831776,96.6237885 C36.2859813,96.1215859 36.1850467,95.7198238 36.0841121,95.2176211 C35.5794393,92.9577093 35.0747664,90.6977974 34.5700935,88.4378855 C34.5700935,88.3876652 34.5196262,88.2872247 34.4186916,88.1867841 C34.1663551,88.1365639 33.9140187,88.0361233 33.6616822,87.9356828 C32.046729,87.4837004 30.7345794,86.5797357 29.6747664,85.3744493 C28.917757,84.5207048 28.211215,83.6669604 27.5551402,82.7629956 C26.646729,81.4070485 25.9906542,79.9506608 25.435514,78.4440529 C25.082243,77.4898678 24.728972,76.4854626 24.3252336,75.5312775 C24.1233645,75.5312775 24.0224299,75.4810573 23.9214953,75.4810573 C22.8616822,75.8325991 22.1046729,75.3303965 21.4990654,74.5268722 C21.246729,74.1753304 20.9943925,73.8237885 20.7420561,73.4220264 C20.388785,73.2713656 19.9850467,73.4220264 19.6317757,73.522467 C19.3794393,73.8740088 19.5308411,74.1753304 19.4803738,74.476652 C19.4299065,74.8281938 19.3794393,75.1797357 19.1271028,75.4810573 C18.7738318,75.9330396 18.2691589,76.0837004 17.764486,75.9330396 C16.7551402,75.5814978 16.3009346,74.7779736 16.1495327,73.8740088 C15.9476636,72.6185022 16.0990654,71.4634361 17.1588785,70.6096916 C18.1682243,70.4590308 18.3700935,70.5594714 18.8242991,71.3127753 C19.0261682,71.6643172 19.1775701,72.0660793 19.3794393,72.4678414 C19.7831776,72.4678414 20.1364486,72.3674009 20.4392523,72.1162996 C20.1869159,71.2123348 20.2373832,70.30837 20.5906542,69.4044053 C20.3383178,69.1030837 20.0859813,68.8519824 19.8841121,68.5506608 C19.6317757,68.2493392 19.5308411,67.8475771 19.1775701,67.646696 C18.9252336,67.646696 18.6728972,67.7471366 18.5214953,67.8977974 C18.117757,69.7559471 18.117757,69.7559471 17.0074766,70.30837 Z M48.4990654,67.3453744 C48.4990654,67.6969163 48.2971963,68.0986784 48.7009346,68.3497797 C48.8018692,68.5004405 48.953271,68.5506608 49.1046729,68.5506608 C49.5588785,68.4502203 50.0635514,68.2995595 50.517757,68.1991189 C50.9719626,68.0986784 51.4766355,67.9982379 51.9308411,67.8977974 C52.1831776,67.8475771 52.3345794,67.646696 52.3850467,67.3955947 C52.5364486,65.9894273 52.3850467,64.6334802 51.5271028,63.3779736 C50.3663551,63.6290749 49.2056075,63.8801762 48.0448598,64.1312775 C48.1457944,65.2361233 48.4990654,66.2907489 48.4990654,67.3453744 Z M39.5663551,50.9735683 C39.5158879,51.4255507 39.5158879,51.8273128 39.717757,52.2290749 C39.8186916,52.3797357 39.9196262,52.4801762 40.1719626,52.2792952 C40.1214953,52.0281938 40.071028,51.7268722 40.0205607,51.4255507 C40.1719626,51.0740088 40.4242991,51.1242291 40.7271028,51.3251101 C40.7271028,51.1242291 40.7775701,50.9735683 40.7775701,50.8229075 C40.5757009,49.969163 40.3738318,49.1154185 40.1719626,48.261674 C39.9196262,47.1568282 39.6168224,46.1022026 39.4654206,44.9973568 C39.1121495,42.9885463 38.6579439,41.0299559 38.2542056,39.0211454 C37.6990654,39.5735683 37.5981308,39.8246696 37.3962617,40.5779736 C37.0429907,41.984141 37.0429907,43.4405286 37.2448598,44.8969163 C37.446729,46.554185 37.6990654,48.2114537 38.0018692,49.8687225 C38.153271,50.8229075 38.3551402,51.7268722 38.5570093,52.630837 C39.011215,52.4299559 39.011215,52.4299559 39.011215,52.3295154 C38.9102804,51.7770925 38.8093458,51.2246696 38.8598131,50.6722467 C38.8598131,50.4713656 38.9607477,50.2704846 39.2130841,50.2704846 C39.364486,50.2704846 39.5158879,50.3709251 39.5663551,50.5718062 C39.5158879,50.6722467 39.5158879,50.8229075 39.5663551,50.9735683 Z M37.3457944,66.1903084 C36.6392523,66.1400881 35.9327103,66.3911894 35.1757009,66.4414097 C35.4280374,67.7973568 35.6803738,69.1030837 35.9327103,70.4088106 C35.9831776,70.6599119 36.0841121,70.860793 36.3869159,70.9612335 C38.8093458,70.30837 41.282243,69.9066079 43.8056075,69.5550661 C43.6542056,67.9982379 43.4523364,66.49163 43.0990654,65.0854626 C42.846729,64.9348018 42.6448598,64.985022 42.4429907,65.0352423 C40.7775701,65.2863436 39.1626168,65.6881057 37.4971963,66.0898678 C37.446729,66.0396476 37.3962617,66.1400881 37.3457944,66.1903084 Z M5.70280374,6.42819383 C6.00560748,6.4784141 6.45981308,6.22731278 6.61121495,6.77973568 C6.30841121,7.28193833 5.75327103,7.28193833 5.29906542,7.53303965 C4.79439252,7.78414097 4.28971963,8.03524229 3.78504673,8.28634361 C3.33084112,8.53744493 2.87663551,8.68810573 2.42242991,9.14008811 C2.82616822,9.34096916 3.12897196,9.34096916 3.4317757,9.19030837 C3.73457944,9.03964758 4.08785047,8.83876652 4.39065421,8.68810573 C5.09719626,8.33656388 5.80373832,7.98502203 6.61121495,7.7339207 C6.91401869,7.63348018 7.16635514,7.63348018 7.31775701,7.98502203 C6.66168224,8.63788546 5.70280374,8.83876652 4.99626168,9.39118943 C5.24859813,9.64229075 5.50093458,9.54185022 5.80373832,9.44140969 C6.20747664,9.2907489 6.61121495,9.08986784 7.06542056,8.98942731 C7.51962617,8.88898678 7.67102804,9.03964758 7.82242991,9.64229075 C8.22616822,9.64229075 8.62990654,9.64229075 9.03364486,9.64229075 C12.9700935,9.39118943 16.8560748,8.73832599 20.6915888,7.93480176 C22.1551402,7.63348018 23.5682243,7.23171806 25.0317757,6.88017621 C26.1420561,6.57885463 27.2018692,6.3277533 28.2616822,5.87577093 C28.564486,5.92599119 28.8168224,5.87577093 28.8672897,5.42378855 C28.564486,5.42378855 28.3121495,5.37356828 28.0598131,5.37356828 C27.9084112,5.27312775 27.9588785,5.17268722 28.0093458,5.0722467 C28.1102804,4.87136564 28.3626168,4.87136564 28.564486,4.82114537 C29.0691589,4.82114537 29.6242991,4.82114537 30.128972,4.87136564 C30.5831776,4.9215859 30.9869159,4.87136564 31.2897196,4.46960352 C30.3813084,4.11806167 29.271028,4.72070485 28.4130841,4.06784141 C28.4635514,3.81674009 28.564486,3.71629956 28.7158879,3.6660793 C29.0186916,3.61585903 29.3719626,3.56563877 29.6747664,3.5154185 C30.5831776,3.46519824 31.5420561,3.46519824 32.4504673,3.71629956 C32.8037383,3.81674009 33.1065421,3.71629956 33.3084112,3.31453744 C32.6018692,3.01321586 31.8448598,2.96299559 31.1383178,2.96299559 C30.5831776,2.96299559 30.0280374,2.96299559 29.4224299,2.91277533 C29.1700935,2.91277533 28.9682243,2.76211454 29.0186916,2.41057269 C29.3214953,2.05903084 29.7757009,2.05903084 30.2299065,2.05903084 C30.6841121,2.05903084 31.1383178,2.05903084 31.5420561,2.05903084 C32.046729,2.1092511 32.5009346,2.20969163 32.9551402,2.25991189 C33.4093458,2.31013216 33.7121495,2.71189427 34.2168224,2.66167401 C34.3682243,2.36035242 34.4186916,2.05903084 34.1158879,1.90837004 C33.8635514,1.75770925 33.5102804,1.65726872 33.2074766,1.60704846 C32.5514019,1.50660793 31.8448598,1.45638767 31.188785,1.4061674 C30.0785047,1.35594714 29.0186916,1.50660793 27.9084112,1.55682819 C25.4859813,1.60704846 23.0635514,1.75770925 20.6915888,2.05903084 C18.9757009,2.25991189 17.2598131,2.61145374 15.5943925,2.96299559 C13.7271028,3.41497797 11.8598131,3.91718062 9.99252336,4.46960352 C8.37757009,4.97180617 6.76261682,5.42378855 5.24859813,6.17709251 C3.88598131,6.57885463 2.67476636,7.28193833 1.56448598,8.08546256 C1.36261682,8.23612335 1.16074766,8.38678414 1.21121495,8.63788546 C1.36261682,8.83876652 1.56448598,8.78854626 1.71588785,8.63788546 C2.52336449,7.98502203 3.4317757,7.48281938 4.39065421,7.030837 C4.74392523,6.88017621 5.29906542,6.77973568 5.70280374,6.42819383 Z M3.4317757,10.5964758 C3.68411215,10.8475771 3.88598131,11.0484581 4.08785047,11.2995595 C5.04672897,12.2537445 6.05607477,13.2079295 6.96448598,14.2123348 C7.92336449,15.2669604 8.73084112,16.4220264 9.43738318,17.6273128 C10.6485981,19.6361233 12.011215,21.4942731 12.9700935,23.6537445 C13.5757009,24.9594714 14.1813084,26.2651982 14.5850467,27.6713656 C15.5439252,30.9859031 16.2504673,34.3506608 17.0074766,37.7154185 C17.6130841,40.4273128 18.1682243,43.139207 18.6728972,45.8511013 C19.5308411,50.1198238 20.3383178,54.4387665 21.1962617,58.707489 C21.7514019,61.4193833 22.2560748,64.1312775 23.0130841,66.7929515 C24.0728972,70.5092511 24.9308411,74.3259912 26.3943925,77.9418502 C27,79.4986784 27.6056075,81.0555066 28.564486,82.5118943 C29.5738318,84.0185022 30.8859813,85.1735683 32.2990654,86.2281938 C32.753271,86.5797357 33.3084112,86.7806167 34.0149533,86.830837 C33.9140187,86.2784141 33.9140187,85.876652 33.8130841,85.4246696 C33.5102804,84.0185022 33.2074766,82.6123348 32.9551402,81.2061674 C32.5009346,78.9462555 32.1476636,76.6863436 31.6934579,74.476652 C30.9869159,70.8105727 30.1794393,67.1947137 29.4728972,63.5286344 C28.9682243,60.9171806 28.4130841,58.3559471 27.9084112,55.7444934 C27.353271,52.8819383 26.7981308,50.0193833 26.2934579,47.1066079 C25.9906542,45.1480176 25.6878505,43.2396476 25.5364486,41.2810573 C25.3850467,39.5735683 25.435514,37.815859 25.6878505,36.10837 C25.8897196,34.4511013 26.1925234,32.8440529 27.1009346,31.4378855 C27.353271,31.0361233 27.4037383,30.6343612 27.4037383,30.1823789 C27.3028037,28.0731278 27.3028037,25.9136564 27.6560748,23.8044053 C27.9084112,22.3480176 28.0598131,20.89163 28.3626168,19.4352423 C28.8672897,17.0748899 29.4224299,14.7647577 30.1794393,12.4546256 C30.9869159,9.9938326 31.9962617,7.68370044 33.0056075,5.32334802 C33.0560748,5.17268722 33.2579439,4.97180617 33.0560748,4.77092511 C32.9551402,4.82114537 32.8542056,4.82114537 32.753271,4.87136564 C28.8672897,6.93039648 24.7794393,8.33656388 20.4897196,9.14008811 C17.9663551,9.59207048 15.4429907,10.0942731 12.8691589,10.3955947 C10.0429907,10.7471366 7.26728972,10.8977974 4.4411215,10.5964758 C4.13831776,10.4960352 3.78504673,10.3955947 3.4317757,10.5964758 Z M39.9700935,95.2176211 C39.5158879,93.3594714 39.1121495,91.5515419 38.6579439,89.6933921 C37.9514019,86.6801762 37.2953271,83.6669604 36.7906542,80.6537445 C36.5383178,79.3480176 36.3364486,78.0422907 36.0841121,76.7365639 C35.8317757,75.6317181 35.6803738,74.5268722 35.4785047,73.4220264 C35.0242991,71.1621145 34.6205607,68.8519824 34.0654206,66.5920705 C33.5102804,64.1814978 33.0056075,61.7207048 32.6018692,59.3101322 C32.2990654,57.4519824 32.0971963,55.5938326 31.7943925,53.7356828 C31.5925234,52.1286344 31.3906542,50.5718062 31.0878505,48.9647577 C30.8859813,47.8599119 30.8859813,46.7048458 30.7345794,45.6 C30.4317757,43.1894273 30.2803738,40.8290749 30.3308411,38.4185022 C30.3308411,37.1127753 30.6841121,35.9577093 31.2392523,34.8528634 C31.5925234,34.1497797 32.1476636,33.5471366 32.9046729,33.1453744 C34.5700935,32.2414097 36.8411215,32.8942731 37.8504673,34.6017621 C38.4056075,35.5057269 38.9102804,36.4096916 39.1121495,37.4643172 C39.4654206,38.9709251 39.7682243,40.5277533 40.071028,42.0343612 C40.4242991,43.7418502 40.5757009,45.4493392 41.0299065,47.1066079 C41.6859813,49.4167401 42.1401869,51.7770925 42.5943925,54.1374449 C42.7962617,55.2422907 42.9981308,56.3471366 43.2,57.4519824 C43.4018692,58.6572687 43.553271,59.9127753 43.7551402,61.1180617 C44.1084112,63.3779736 44.5626168,65.5876652 44.8654206,67.8977974 C45.1682243,70.1577093 45.7233645,72.3674009 46.0766355,74.6273128 C46.1775701,75.2299559 46.4299065,75.7823789 46.7327103,76.2845815 C46.8841121,76.5356828 47.0859813,76.7365639 47.388785,76.7365639 C47.7420561,76.6863436 48.0953271,76.4854626 48.246729,76.1339207 C48.2971963,75.9832599 48.2971963,75.8325991 48.2971963,75.6819383 C48.2971963,74.9788546 48.2971963,74.2255507 48.246729,73.522467 C47.8934579,70.2079295 47.4392523,66.9436123 46.7831776,63.6792952 C46.3794393,61.7709251 46.0261682,59.8123348 45.6728972,57.9039648 C45.3196262,55.9955947 44.9663551,54.0370044 44.7140187,52.0784141 C44.3607477,49.5171806 43.9570093,47.0061674 43.6037383,44.4449339 C43.2,41.8334802 42.5943925,39.2722467 41.988785,36.7110132 C41.5345794,34.8026432 40.6261682,33.0449339 39.5663551,31.3876652 C38.153271,29.077533 33.6616822,27.5207048 30.7345794,29.5797357 C28.9682243,30.785022 27.7065421,32.3418502 27.2018692,34.4511013 C26.4953271,37.5647577 26.6971963,40.6784141 27,43.7920705 C27.1514019,45.2986784 27.4542056,46.8052863 27.7065421,48.3118943 C28.3626168,51.877533 29.0691589,55.3929515 29.7252336,58.90837 C29.9271028,60.0132159 30.2803738,61.0678414 30.4317757,62.1726872 C30.7345794,63.8801762 31.0878505,65.5374449 31.4411215,67.2449339 C32.046729,70.1577093 32.6018692,73.0704846 33.2074766,75.9832599 C33.9140187,79.6995595 34.6205607,83.4660793 35.3271028,87.1823789 C35.6803738,89.0907489 36.1345794,91.0493392 36.5383178,92.9577093 C36.7401869,93.9118943 36.8915888,94.9162996 37.2448598,95.8704846 C38.2542056,96.0211454 39.1121495,95.7198238 39.9700935,95.2176211 Z M37.8504673,37.7154185 C37.4971963,36.8114537 37.1943925,35.9577093 36.6897196,35.2044053 C36.0841121,34.3004405 35.1757009,33.8986784 34.1158879,33.8986784 C33.5102804,33.8986784 33.0056075,34.1497797 32.6523364,34.6017621 C32.1476636,35.2044053 31.7439252,35.907489 31.5420561,36.7110132 C31.4411215,37.3136564 31.2897196,37.9665198 31.2897196,38.6193833 C31.2897196,41.0801762 31.5420561,43.4907489 31.7943925,45.9013216 C31.8448598,46.1524229 31.7943925,46.4537445 32.046729,46.6546256 C33.7121495,45.2484581 34.3682243,45.1480176 36.0336449,46.0017621 C36.0336449,45.9515419 36.1345794,45.8511013 36.0841121,45.8008811 C35.8317757,44.6960352 35.7813084,43.5911894 35.882243,42.4361233 C36.0336449,40.7286344 36.1850467,38.9207048 37.8504673,37.7154185 Z M36.3869159,71.9656388 C36.4878505,73.1207048 37.5476636,78.845815 37.9009346,80.0511013 C40.071028,81.1057269 41.5850467,80.6537445 42.8971963,78.5444934 C41.988785,76.5356828 41.4336449,74.4264317 41.2317757,72.2167401 C41.1813084,71.814978 41.0803738,71.4132159 40.8280374,71.0114537 C39.3140187,71.3629956 37.9009346,71.6643172 36.3869159,71.9656388 Z M49.0037383,69.6052863 C49.0037383,69.7559471 48.953271,69.8563877 49.0037383,70.0070485 C49.1551402,71.4132159 49.3065421,72.769163 49.4579439,74.1753304 C49.5084112,74.7779736 49.5084112,75.3806167 49.5084112,75.9832599 C49.5084112,76.2343612 49.4074766,76.5356828 49.3065421,76.7867841 C48.8523364,77.9920705 46.7327103,78.4440529 45.7738318,77.1885463 C45.3700935,76.5859031 45.0168224,75.9330396 44.8654206,75.2299559 C44.6635514,74.3762115 44.5121495,73.522467 44.3607477,72.6185022 C44.2093458,71.9656388 44.2093458,71.2625551 43.9065421,70.6096916 C43.3009346,70.7101322 42.7457944,70.8105727 42.2411215,70.860793 C42.0392523,71.5638767 42.3420561,72.1162996 42.4429907,72.6687225 C42.7457944,74.6273128 43.2504673,76.4854626 44.1588785,78.2933921 C44.3102804,78.5947137 44.5121495,78.8960352 44.7140187,79.2475771 C45.5719626,80.6537445 48.4485981,80.6537445 49.4074766,79.6995595 C50.2654206,78.845815 50.6691589,77.89163 50.7700935,76.7365639 C50.871028,74.9788546 50.6691589,73.2211454 50.3663551,71.4634361 C50.2654206,70.7603524 50.2654206,70.0572687 49.9121495,69.4044053 C49.5588785,69.5048458 49.2560748,69.5550661 49.0037383,69.6052863 Z M47.388785,81.4572687 C46.5813084,81.4572687 45.8747664,81.3568282 45.2691589,81.1057269 C44.6130841,80.8044053 44.0579439,80.4026432 43.4018692,80.0008811 C42.7962617,80.9048458 41.8878505,81.3066079 41.0299065,81.6079295 C40.071028,81.9594714 39.0616822,81.7585903 38.1028037,81.4572687 C38.2037383,82.6625551 39.011215,86.4290749 39.3140187,87.0819383 C42.1906542,87.3330396 46.0766355,84.7215859 47.388785,81.4572687 Z M42.846729,63.7295154 C42.846729,62.9762115 42.3420561,59.9629956 42.0392523,59.0088106 C39.364486,59.3603524 36.7401869,60.1638767 34.1158879,60.5656388 C34.0654206,60.7162996 34.0149533,60.8167401 34.0149533,60.8669604 C34.2672897,62.2229075 34.5700935,63.6290749 34.8224299,64.985022 C34.8728972,65.1859031 34.9233645,65.3867841 35.2261682,65.4872247 C37.6485981,65.1356828 40.071028,64.2317181 42.5439252,63.9303965 C42.6448598,63.8299559 42.7457944,63.7797357 42.846729,63.7295154 Z M41.2317757,53.384141 C39.7682243,53.384141 38.4560748,53.8361233 37.1439252,54.0370044 C35.7813084,54.2378855 34.4691589,54.4889868 33.1570093,54.6898678 C33.1065421,55.8951542 33.5102804,58.5568282 33.8635514,59.5110132 C35.2261682,59.460793 36.5383178,59.0088106 37.8504673,58.707489 C39.2130841,58.3559471 40.5757009,58.1550661 42.0392523,57.9039648 C41.7364486,56.3471366 41.4841121,54.9409692 41.2317757,53.384141 Z M51.3252336,62.2731278 C51.4766355,60.414978 51.3757009,58.707489 49.9626168,57.3013216 C49.0037383,57.6528634 48.0448598,57.8035242 47.035514,57.954185 C47.2878505,59.7118943 47.4897196,61.369163 47.8934579,63.1268722 C49.0037383,62.8757709 50.1140187,62.5744493 51.3252336,62.2731278 Z M47.2373832,50.9735683 C47.2373832,50.6722467 47.2878505,50.4211454 47.2373832,50.1700441 C46.8336449,47.9101322 46.4803738,45.6502203 45.9757009,43.4405286 C45.6728972,42.2854626 45.4205607,41.0801762 44.8654206,40.0255507 C44.5626168,39.4229075 44.2598131,38.8202643 43.6037383,38.1674009 C43.9570093,40.5277533 44.6130841,42.5867841 44.8654206,44.7462555 C45.1682243,46.9057269 45.471028,49.1154185 45.9252336,51.2246696 C46.4299065,51.2748899 46.7831776,51.1744493 47.2373832,50.9735683 Z M49.9121495,56.1462555 C49.7102804,54.5894273 49.9121495,53.0828194 48.8523364,51.8273128 C47.8934579,51.9779736 47.035514,52.1286344 46.1271028,52.2792952 C46.1271028,53.4343612 46.5308411,55.6440529 46.9345794,56.9497797 C47.9439252,56.7991189 48.9028037,56.5982379 49.9121495,56.1462555 Z M37.1943925,101.244053 C38.8093458,101.796476 40.6261682,101.495154 42.1401869,100.390308 C41.8373832,99.4863436 41.3831776,98.7330396 40.7271028,98.0299559 C39.717757,98.5823789 38.5570093,98.7330396 37.446729,98.8334802 C37.0934579,100.239648 37.0934579,100.239648 37.1943925,101.244053 Z M36.1345794,49.014978 C36.1850467,48.261674 35.9327103,47.5585903 35.528972,47.0563877 C35.2766355,46.7550661 34.9738318,46.6044053 34.5700935,46.6044053 C33.5607477,46.6044053 32.8037383,47.4079295 32.7028037,48.4625551 C32.6018692,49.6176211 33.3588785,50.6722467 34.317757,50.8229075 C35.1757009,50.9735683 35.5794393,50.722467 35.882243,49.9189427 C36.0336449,49.5674009 36.0841121,49.215859 36.1345794,49.014978 Z M23.8205607,74.3259912 C23.4168224,72.6687225 22.9121495,71.1118943 22.4579439,69.5550661 C22.2056075,69.5550661 22.0542056,69.5550661 21.9028037,69.6052863 C21.246729,69.7057269 21.1457944,69.8061674 21.1457944,70.4590308 C21.0953271,71.7647577 21.3981308,72.9700441 22.2056075,74.0748899 C22.6598131,74.6273128 22.8616822,74.7779736 23.8205607,74.3259912 Z M36.7906542,50.8229075 C35.5794393,52.1788546 34.6205607,52.3295154 33.1570093,51.5259912 C32.9551402,51.4255507 32.8542056,51.1744493 32.5009346,51.3753304 C32.6523364,52.1286344 32.6018692,52.9321586 32.9551402,53.7356828 C34.4691589,53.5348018 35.882243,53.2837004 37.3457944,52.9321586 C37.1943925,52.2792952 37.0934579,51.7268722 36.9420561,51.1242291 C36.9925234,51.0237885 36.8915888,50.9735683 36.7906542,50.8229075 Z M18.7233645,58.3559471 C18.5214953,59.661674 18.471028,61.0176211 19.1775701,62.2731278 C19.3794393,62.6246696 19.4803738,63.0264317 19.7831776,63.277533 C20.1364486,63.277533 20.4897196,63.3277533 20.8429907,63.0264317 C20.4897196,61.4193833 20.1364486,59.7621145 19.7831776,58.1048458 C19.4299065,58.0546256 19.0766355,58.0044053 18.7233645,58.3559471 Z M19.9345794,64.2819383 C19.8841121,64.3321586 19.8336449,64.3823789 19.8336449,64.3823789 C19.4299065,65.9894273 19.9345794,67.2951542 21.0953271,68.3497797 C21.4485981,68.7013216 21.8018692,68.6008811 22.1551402,68.2995595 C22.1551402,67.5462555 21.8523364,66.8431718 21.6504673,66.1903084 C21.4485981,65.4872247 21.4485981,64.784141 20.9943925,64.1312775 C20.5906542,64.2317181 20.2373832,64.2819383 19.9345794,64.2819383 Z M15.9981308,61.8211454 C15.846729,61.6704846 15.6953271,61.7709251 15.5439252,61.7709251 C15.2915888,61.7207048 15.0897196,61.6202643 15.0392523,61.3189427 C14.988785,61.0678414 15.1401869,60.9674009 15.3420561,60.8669604 C15.5439252,60.8167401 15.6953271,60.7162996 15.7457944,60.414978 C15.6953271,60.2643172 15.5943925,60.0132159 15.4934579,59.8123348 C15.3925234,59.6114537 15.1906542,59.4105727 14.9383178,59.460793 C14.635514,59.5110132 14.4336449,59.7118943 14.3831776,60.0132159 C14.2317757,60.9171806 14.3327103,61.7709251 14.7869159,62.5242291 C14.988785,62.8255507 15.2411215,63.076652 15.6448598,63.076652 C15.9981308,62.5242291 15.9981308,62.5242291 15.9981308,61.8211454 Z M17.3102804,71.8651982 C16.9065421,72.5180617 16.8560748,73.2211454 17.1084112,73.9242291 C17.2598131,74.3762115 17.5121495,74.8281938 18.0672897,74.9286344 C18.471028,74.6273128 18.5214953,74.2255507 18.4205607,73.8237885 C18.1682243,73.4722467 17.6635514,73.5726872 17.5626168,73.2211454 C17.5121495,72.6687225 18.0672897,72.6687225 18.1682243,72.3171806 C18.0672897,71.9154185 17.7140187,71.8651982 17.3102804,71.8651982 Z M17.0579439,69.153304 C17.2598131,68.7515419 17.3102804,68.5004405 17.1588785,68.1488987 C16.8560748,68.0986784 16.4018692,68.0484581 16.3514019,67.5964758 C16.3009346,67.1444934 16.8560748,67.2449339 16.9570093,66.9436123 C16.8560748,66.5920705 16.7551402,66.1903084 16.3514019,65.939207 C15.6953271,66.5418502 15.6953271,67.2449339 15.8971963,67.9982379 C16.0485981,68.5506608 16.3009346,69.1030837 17.0579439,69.153304 Z M41.0299065,96.0211454 C40.1214953,96.322467 39.4654206,96.6237885 38.8093458,96.8246696 C38.1028037,97.0255507 37.3962617,96.9251101 36.6897196,97.1259912 C36.9925234,97.7788546 37.5981308,97.6784141 38.0018692,97.6281938 C39.0616822,97.477533 40.2224299,97.3770925 41.0299065,96.0211454 Z" id="Shape" fill="#010001"/>
          <path d="M17.0074766,70.30837 C18.117757,69.7559471 18.117757,69.7559471 18.3196262,67.9480176 C18.5214953,67.7973568 18.7233645,67.6969163 18.9757009,67.6969163 C19.328972,67.8977974 19.4299065,68.2995595 19.682243,68.6008811 C19.9345794,68.8519824 20.1364486,69.153304 20.388785,69.4546256 C20.035514,70.3585903 19.9345794,71.2123348 20.2373832,72.1665198 C19.9345794,72.4176211 19.6317757,72.5180617 19.1775701,72.5180617 C18.9757009,72.1665198 18.8242991,71.7647577 18.6224299,71.3629956 C18.1682243,70.5594714 17.9663551,70.5092511 16.9570093,70.6599119 C17.0074766,70.4590308 17.0074766,70.4088106 17.0074766,70.30837 Z" id="Shape" fill="#FAFAFA"/>
          <path d="M3.4317757,10.5964758 C3.83551402,10.3955947 4.13831776,10.4960352 4.4411215,10.5462555 C7.26728972,10.8977974 10.0429907,10.6969163 12.8691589,10.3453744 C15.4429907,10.0440529 17.9663551,9.54185022 20.4897196,9.08986784 C24.7794393,8.28634361 28.917757,6.93039648 32.753271,4.82114537 C32.8542056,4.77092511 32.9551402,4.72070485 33.0560748,4.72070485 C33.2579439,4.9215859 33.1065421,5.0722467 33.0056075,5.27312775 C31.9962617,7.63348018 30.9364486,9.9938326 30.1794393,12.4044053 C29.4224299,14.7145374 28.917757,17.0246696 28.3626168,19.385022 C28.0598131,20.8414097 27.9084112,22.2977974 27.6560748,23.754185 C27.3028037,25.8634361 27.3028037,27.9726872 27.4037383,30.1321586 C27.4037383,30.584141 27.353271,30.9859031 27.1009346,31.3876652 C26.1925234,32.7938326 25.8897196,34.4008811 25.6878505,36.0581498 C25.4859813,37.7656388 25.3850467,39.523348 25.5364486,41.230837 C25.6878505,43.1894273 25.9906542,45.1480176 26.2934579,47.0563877 C26.7981308,49.9189427 27.353271,52.8317181 27.9084112,55.6942731 C28.4130841,58.3057269 28.9682243,60.8669604 29.4728972,63.4784141 C30.2299065,67.1444934 30.9869159,70.7603524 31.6934579,74.4264317 C32.1476636,76.6863436 32.5009346,78.8960352 32.9551402,81.1559471 C33.2074766,82.5621145 33.5102804,83.9682819 33.8130841,85.3744493 C33.9140187,85.7762115 33.964486,86.2281938 34.0149533,86.7806167 C33.3084112,86.7303965 32.753271,86.5295154 32.2990654,86.1779736 C30.8859813,85.123348 29.5738318,83.9682819 28.564486,82.461674 C27.6056075,81.0555066 27,79.4986784 26.3943925,77.89163 C24.9308411,74.2757709 24.0728972,70.4590308 23.0130841,66.7427313 C22.2560748,64.0810573 21.7514019,61.369163 21.1962617,58.6572687 C20.3383178,54.3885463 19.5308411,50.0696035 18.6728972,45.8008811 C18.117757,43.0889868 17.6130841,40.3770925 17.0074766,37.6651982 C16.2504673,34.3004405 15.5439252,30.9356828 14.5850467,27.6211454 C14.1813084,26.214978 13.5757009,24.9092511 12.9700935,23.6035242 C12.011215,21.4942731 10.6485981,19.5859031 9.43738318,17.5770925 C8.73084112,16.3718062 7.92336449,15.2167401 6.96448598,14.1621145 C6.05607477,13.1577093 5.04672897,12.2035242 4.08785047,11.2493392 C3.88598131,11.0986784 3.63364486,10.8475771 3.4317757,10.5964758 Z M26.2934579,72.6185022 C25.788785,72.769163 25.7383178,73.0704846 25.788785,73.4220264 C25.9401869,74.3762115 26.2934579,75.2801762 26.5962617,76.184141 C27.2018692,78.092511 28.0093458,79.8502203 29.1196262,81.507489 C29.7252336,82.4114537 30.3813084,83.3656388 31.3401869,84.0185022 C31.5420561,83.9180617 31.6934579,83.7674009 31.6429907,83.5162996 C31.4915888,83.0140969 31.188785,82.6123348 30.8859813,82.1603524 C30.0785047,81.1057269 29.3719626,80.0008811 28.8168224,78.7955947 C28.1607477,77.4396476 27.7065421,76.0334802 27.2018692,74.6273128 C26.9495327,73.9744493 26.7981308,73.2211454 26.2934579,72.6185022 Z M29.3214953,77.0378855 C29.1196262,77.0881057 28.9682243,77.1885463 28.9682243,77.339207 C28.9682243,77.4898678 28.9682243,77.6405286 29.0186916,77.7911894 C29.5738318,79.046696 30.2299065,80.2017621 31.0373832,81.3066079 C31.1383178,81.4572687 31.2392523,81.5577093 31.3401869,81.6581498 C31.4915888,81.7585903 31.6934579,81.9092511 31.8448598,81.7585903 C32.046729,81.6079295 31.9962617,81.4070485 31.8953271,81.2061674 C31.8448598,81.0555066 31.7439252,80.9048458 31.6429907,80.8044053 C30.9364486,79.9004405 30.3813084,78.845815 29.8766355,77.8414097 C29.7757009,77.6405286 29.6242991,77.4396476 29.5233645,77.2387665 C29.5233645,77.0881057 29.4224299,77.0881057 29.3214953,77.0378855 Z M28.211215,74.476652 C28.1102804,74.5268722 28.0093458,74.5770925 27.9588785,74.6273128 C27.7065421,75.1295154 27.9588785,75.8325991 28.4130841,76.184141 C28.564486,76.2845815 28.8672897,76.184141 28.8672897,76.0334802 C28.917757,75.4810573 28.6654206,75.0290749 28.4130841,74.6273128 C28.4130841,74.5268722 28.3121495,74.5268722 28.211215,74.476652 Z M25.5364486,71.4634361 C25.788785,71.3629956 25.8897196,71.1118943 25.8392523,70.9110132 C25.788785,70.5594714 25.7383178,70.1577093 25.435514,69.9066079 C25.3850467,69.8563877 25.1831776,69.8061674 25.082243,69.8563877 C24.7794393,69.9568282 24.728972,70.7101322 25.0317757,71.2625551 C25.1831776,71.3629956 25.3345794,71.4634361 25.5364486,71.4634361 Z M24.2747664,67.7973568 C24.2242991,68.1488987 24.2242991,68.4 24.5271028,68.5506608 C24.6785047,68.6008811 24.7794393,68.6008811 24.8299065,68.5004405 C25.082243,68.2995595 25.0317757,67.9982379 24.9308411,67.7471366 C24.8803738,67.646696 24.7794393,67.5462555 24.6785047,67.4960352 C24.5775701,67.3955947 24.4261682,67.445815 24.3757009,67.5462555 C24.3252336,67.646696 24.2747664,67.7471366 24.2747664,67.7973568 Z" id="Shape" fill="#FFC941"/>
          <path d="M39.9700935,95.2176211 C39.1121495,95.7198238 38.3046729,96.0211454 37.2953271,95.7700441 C36.9420561,94.815859 36.7906542,93.8114537 36.588785,92.8572687 C36.1850467,90.9488987 35.7308411,89.0405286 35.3775701,87.0819383 C34.671028,83.3656388 33.964486,79.5991189 33.2579439,75.8828194 C32.7028037,72.9700441 32.1476636,70.0572687 31.4915888,67.1444934 C31.1383178,65.4872247 30.7850467,63.7797357 30.482243,62.0722467 C30.2803738,60.9674009 29.9775701,59.8625551 29.7757009,58.8079295 C29.0691589,55.292511 28.4130841,51.7268722 27.7570093,48.2114537 C27.4542056,46.7048458 27.2018692,45.1982379 27.0504673,43.69163 C26.7476636,40.5779736 26.5457944,37.4643172 27.2523364,34.3506608 C27.7570093,32.2414097 29.0186916,30.7348018 30.7850467,29.4792952 C33.6616822,27.4202643 38.2037383,29.0273128 39.6168224,31.2872247 C40.6766355,32.9947137 41.5850467,34.7022026 42.0392523,36.6105727 C42.6448598,39.1718062 43.3009346,41.7330396 43.6542056,44.3444934 C44.0074766,46.9057269 44.4616822,49.4167401 44.764486,51.9779736 C45.0168224,53.9365639 45.3700935,55.8449339 45.7233645,57.8035242 C46.0766355,59.7118943 46.4299065,61.6704846 46.8336449,63.5788546 C47.4897196,66.8431718 47.8934579,70.1577093 48.2971963,73.4220264 C48.3981308,74.1251101 48.3476636,74.8784141 48.3476636,75.5814978 C48.3476636,75.7321586 48.3476636,75.8828194 48.2971963,76.0334802 C48.1457944,76.385022 47.8429907,76.5859031 47.4392523,76.6361233 C47.1364486,76.6361233 46.8841121,76.4352423 46.7831776,76.184141 C46.4803738,75.6819383 46.2280374,75.1295154 46.1271028,74.5268722 C45.7738318,72.2669604 45.2186916,70.0572687 44.9158879,67.7973568 C44.6130841,65.5374449 44.1588785,63.277533 43.8056075,61.0176211 C43.6037383,59.8123348 43.4523364,58.5568282 43.2504673,57.3515419 C43.0485981,56.246696 42.8971963,55.1418502 42.6448598,54.0370044 C42.1906542,51.676652 41.7364486,49.3162996 41.0803738,47.0061674 C40.6261682,45.3488987 40.4747664,43.6414097 40.1214953,41.9339207 C39.8186916,40.3770925 39.5158879,38.8704846 39.1626168,37.3638767 C38.9102804,36.3594714 38.4056075,35.4052863 37.9009346,34.5013216 C36.8915888,32.7938326 34.6205607,32.1409692 32.9551402,33.0449339 C32.1981308,33.446696 31.6934579,33.9991189 31.2897196,34.7524229 C30.7345794,35.8572687 30.3813084,37.0625551 30.3813084,38.3180617 C30.3308411,40.7286344 30.5327103,43.139207 30.7850467,45.4995595 C30.9364486,46.6044053 30.9364486,47.7594714 31.1383178,48.8643172 C31.3906542,50.4211454 31.5925234,52.0281938 31.8448598,53.6352423 C32.0971963,55.4933921 32.2990654,57.4017621 32.6523364,59.2096916 C33.0560748,61.6704846 33.5607477,64.0810573 34.1158879,66.49163 C34.6205607,68.7515419 35.0747664,71.061674 35.528972,73.3215859 C35.7308411,74.4264317 35.882243,75.5312775 36.1345794,76.6361233 C36.4373832,77.9418502 36.6392523,79.2475771 36.8411215,80.553304 C37.3962617,83.5665198 38.0018692,86.6299559 38.7084112,89.5929515 C39.0616822,91.5013216 39.5158879,93.3594714 39.9700935,95.2176211 Z M28.211215,38.2678414 C28.5140187,37.9162996 28.6149533,37.5145374 28.6654206,37.1127753 C28.8168224,36.10837 28.9682243,35.154185 29.3719626,34.2 C29.9775701,32.7938326 30.5327103,31.2872247 32.1981308,30.6343612 C32.4504673,30.5339207 32.6018692,30.3330396 32.5009346,30.0819383 C32.4,29.7806167 32.1476636,29.7806167 31.8953271,29.7806167 C31.1383178,29.7806167 30.5831776,30.1823789 30.128972,30.6845815 C28.8168224,32.1911894 28.1102804,34.0493392 27.7065421,35.9577093 C27.6056075,36.5101322 27.6560748,37.0625551 27.7065421,37.614978 C27.7065421,37.8660793 27.8074766,38.1674009 28.211215,38.2678414 Z M28.4130841,40.6784141 C28.4130841,40.5277533 28.4130841,40.1762115 28.3626168,39.8246696 C28.3626168,39.7242291 28.211215,39.6237885 28.1102804,39.5735683 C27.9588785,39.523348 27.8074766,39.6237885 27.7570093,39.7744493 C27.6056075,40.276652 27.353271,40.7286344 27.6056075,41.2810573 C27.7570093,41.5823789 27.7065421,41.9339207 28.1102804,42.0343612 C28.3121495,42.0845815 28.4635514,41.7832599 28.4635514,41.1303965 C28.4130841,41.0299559 28.4130841,40.9797357 28.4130841,40.6784141 Z" id="Shape" fill="#FFC941"/>
          <path d="M5.14766355,6.17709251 C6.66168224,5.42378855 8.3271028,4.97180617 9.89158879,4.46960352 C11.7588785,3.91718062 13.5757009,3.36475771 15.4934579,2.96299559 C17.1588785,2.56123348 18.8747664,2.25991189 20.5906542,2.05903084 C23.0130841,1.75770925 25.3850467,1.60704846 27.8074766,1.55682819 C28.8672897,1.55682819 29.9775701,1.35594714 31.0878505,1.4061674 C31.7943925,1.45638767 32.4504673,1.50660793 33.1065421,1.60704846 C33.4093458,1.65726872 33.7121495,1.75770925 34.0149533,1.90837004 C34.317757,2.05903084 34.2672897,2.36035242 34.1158879,2.66167401 C33.6616822,2.71189427 33.3084112,2.31013216 32.8542056,2.25991189 C32.3495327,2.20969163 31.8953271,2.1092511 31.4411215,2.05903084 C30.9869159,2.00881057 30.5327103,2.05903084 30.128972,2.05903084 C29.6747664,2.05903084 29.271028,2.05903084 28.917757,2.41057269 C28.8672897,2.76211454 29.0691589,2.91277533 29.3214953,2.91277533 C29.8766355,2.96299559 30.4317757,2.96299559 31.0373832,2.96299559 C31.7439252,2.96299559 32.5009346,3.01321586 33.2074766,3.31453744 C33.0056075,3.71629956 32.7028037,3.81674009 32.3495327,3.71629956 C31.4411215,3.46519824 30.5327103,3.46519824 29.5738318,3.5154185 C29.271028,3.5154185 28.917757,3.56563877 28.6149533,3.6660793 C28.4635514,3.71629956 28.3121495,3.81674009 28.3121495,4.06784141 C29.1700935,4.72070485 30.2299065,4.11806167 31.188785,4.46960352 C30.8859813,4.87136564 30.482243,4.9215859 30.0280374,4.87136564 C29.5233645,4.82114537 28.9682243,4.82114537 28.4635514,4.82114537 C28.2616822,4.82114537 28.0598131,4.87136564 27.9084112,5.0722467 C27.8579439,5.17268722 27.8074766,5.27312775 27.9588785,5.37356828 C28.0093458,5.52422907 28.1102804,5.72511013 28.1607477,5.87577093 C27.1009346,6.3277533 26.0411215,6.57885463 24.9308411,6.88017621 C23.4672897,7.23171806 22.0542056,7.63348018 20.5906542,7.93480176 C16.7046729,8.73832599 12.8691589,9.39118943 8.93271028,9.64229075 C8.52897196,9.69251101 8.12523364,9.64229075 7.72149533,9.64229075 C7.57009346,9.03964758 7.41869159,8.88898678 6.96448598,8.98942731 C6.56074766,9.08986784 6.15700935,9.2907489 5.70280374,9.44140969 C5.45046729,9.54185022 5.19813084,9.59207048 4.8953271,9.39118943 C5.60186916,8.78854626 6.56074766,8.63788546 7.21682243,7.98502203 C7.06542056,7.63348018 6.76261682,7.63348018 6.51028037,7.7339207 C5.70280374,7.93480176 4.99626168,8.28634361 4.28971963,8.68810573 C3.98691589,8.83876652 3.63364486,9.03964758 3.33084112,9.19030837 C3.02803738,9.34096916 2.72523364,9.34096916 2.32149533,9.14008811 C2.77570093,8.73832599 3.22990654,8.53744493 3.68411215,8.28634361 C4.18878505,8.03524229 4.69345794,7.78414097 5.19813084,7.53303965 C5.65233645,7.28193833 6.20747664,7.28193833 6.51028037,6.77973568 C6.3588785,6.22731278 5.95514019,6.4784141 5.60186916,6.42819383 C5.50093458,6.37797357 5.24859813,6.42819383 5.14766355,6.17709251 Z M12.1121495,4.87136564 C12.2635514,5.32334802 12.4654206,5.42378855 12.8691589,5.32334802 C13.928972,5.02202643 15.0392523,4.72070485 16.0990654,4.51982379 C17.5626168,4.26872247 18.9757009,3.91718062 20.4392523,3.61585903 C20.6915888,3.56563877 20.9943925,3.5154185 21.246729,3.41497797 C21.4485981,3.36475771 21.5495327,3.16387665 21.4485981,2.91277533 C21.2971963,2.86255507 21.1457944,2.8123348 20.9943925,2.8123348 C19.328972,3.06343612 17.6635514,3.31453744 16.0485981,3.6660793 C14.7869159,3.91718062 13.5757009,4.2185022 12.364486,4.72070485 C12.3140187,4.72070485 12.2130841,4.82114537 12.1121495,4.87136564 Z M7.72149533,5.87577093 C7.51962617,5.92599119 7.21682243,5.92599119 7.01495327,6.12687225 C6.8635514,6.27753304 6.91401869,6.52863436 7.06542056,6.62907489 C7.41869159,6.88017621 8.17570093,6.62907489 8.22616822,6.17709251 C8.22616822,5.97621145 7.97383178,5.92599119 7.72149533,5.87577093 Z M27.1009346,2.66167401 C27.1514019,2.76211454 27.2018692,2.91277533 27.2523364,2.96299559 C27.5551402,3.11365639 27.8579439,3.11365639 28.1102804,2.91277533 C28.2616822,2.8123348 28.2616822,2.56123348 28.0598131,2.41057269 C27.8074766,2.25991189 27.5551402,2.25991189 27.3028037,2.36035242 C27.2018692,2.46079295 27.1514019,2.56123348 27.1009346,2.66167401 Z M9.74018692,5.72511013 C9.79065421,5.52422907 9.68971963,5.42378855 9.53831776,5.32334802 C9.3364486,5.22290749 9.13457944,5.32334802 8.98317757,5.42378855 C8.8317757,5.52422907 8.73084112,5.6246696 8.8317757,5.82555066 C8.88224299,5.97621145 9.03364486,6.07665198 9.18504673,6.07665198 C9.43738318,6.07665198 9.63925234,5.97621145 9.74018692,5.72511013 Z M27.2523364,4.41938326 C27.5046729,4.41938326 27.7570093,4.16828194 27.6560748,3.96740088 C27.6056075,3.71629956 27.4037383,3.71629956 27.2018692,3.71629956 C27,3.71629956 26.7981308,3.76651982 26.7476636,4.01762115 C26.7476636,4.2185022 27.0504673,4.41938326 27.2523364,4.41938326 Z M26.2429907,2.76211454 C26.2934579,2.56123348 26.1420561,2.41057269 25.9401869,2.36035242 C25.6878505,2.31013216 25.3850467,2.46079295 25.3850467,2.66167401 C25.3345794,2.91277533 25.5364486,3.01321586 25.6878505,3.06343612 C25.9401869,3.11365639 26.1925234,2.96299559 26.2429907,2.76211454 Z M8.68037383,7.53303965 C8.62990654,7.33215859 8.52897196,7.1814978 8.27663551,7.1814978 C8.02429907,7.1814978 7.8728972,7.33215859 7.8728972,7.53303965 C7.8728972,7.7339207 8.02429907,7.8845815 8.22616822,7.8845815 C8.52897196,7.8845815 8.62990654,7.7339207 8.68037383,7.53303965 Z" id="Shape" fill="#FFC941"/>
          <path d="M49.0037383,69.6052863 C49.3065421,69.5550661 49.5588785,69.5048458 49.8616822,69.4546256 C50.2149533,70.107489 50.164486,70.8105727 50.3158879,71.5136564 C50.6186916,73.2713656 50.8205607,74.9788546 50.7196262,76.7867841 C50.6691589,77.9418502 50.2149533,78.9462555 49.3570093,79.7497797 C48.3981308,80.7039648 45.5719626,80.7039648 44.6635514,79.2977974 C44.4616822,78.9964758 44.2598131,78.6951542 44.1084112,78.3436123 C43.2504673,76.5859031 42.6953271,74.677533 42.3925234,72.7189427 C42.2915888,72.1162996 41.988785,71.5638767 42.1906542,70.9110132 C42.7457944,70.8105727 43.2504673,70.7603524 43.8560748,70.6599119 C44.1588785,71.3127753 44.1588785,72.015859 44.3102804,72.6687225 C44.5121495,73.522467 44.6635514,74.3762115 44.8149533,75.2801762 C44.9663551,75.9832599 45.3196262,76.6361233 45.7233645,77.2387665 C46.6317757,78.5444934 48.7514019,78.092511 49.2560748,76.8370044 C49.3570093,76.5859031 49.4074766,76.2845815 49.4579439,76.0334802 C49.4579439,75.430837 49.4579439,74.8281938 49.4074766,74.2255507 C49.2560748,72.8193833 49.1046729,71.4634361 48.953271,70.0572687 C48.953271,69.8563877 49.0037383,69.7559471 49.0037383,69.6052863 Z" id="Shape" fill="#FDC841"/>
          <path d="M47.388785,81.4572687 C46.0766355,84.7215859 42.1906542,87.3832599 39.3140187,87.0819383 C39.011215,86.4290749 38.2037383,82.6625551 38.1028037,81.4572687 C39.0616822,81.7585903 40.071028,81.9594714 41.0299065,81.6079295 C41.9383178,81.2563877 42.846729,80.9048458 43.4018692,80.0008811 C44.0579439,80.4026432 44.6130841,80.8044053 45.2691589,81.1057269 C45.9252336,81.3568282 46.5813084,81.4572687 47.388785,81.4572687 Z M39.5158879,82.9638767 C39.9196262,83.5162996 40.4242991,83.6167401 40.8785047,83.5162996 C41.4841121,83.3656388 42.1906542,83.3154185 42.5943925,82.7629956 C42.7457944,82.5621145 42.7962617,82.3110132 42.3925234,82.1603524 C41.5850467,82.8634361 40.4747664,82.3612335 39.5158879,82.9638767 Z M39.6168224,84.3700441 C39.364486,84.8722467 39.5158879,85.3744493 39.6168224,85.876652 C39.6168224,85.9268722 39.6672897,85.9268722 39.6672897,85.9770925 C39.7682243,86.1277533 39.9196262,86.2784141 40.1719626,86.2281938 C40.4242991,86.1779736 40.4747664,85.9770925 40.4242991,85.7762115 C40.3233645,85.3744493 40.2224299,85.0229075 40.071028,84.6713656 C40.0205607,84.4704846 39.9196262,84.3700441 39.6168224,84.3700441 Z M41.282243,84.3198238 C41.1813084,84.3700441 41.0803738,84.4202643 41.0803738,84.4704846 C40.8280374,84.922467 41.0299065,85.5753304 41.4841121,85.9268722 C41.635514,86.0273128 41.9383178,85.876652 41.9383178,85.6757709 C41.9383178,85.2237885 41.7869159,84.8220264 41.5850467,84.4704846 C41.5345794,84.3700441 41.3831776,84.3700441 41.282243,84.3198238 Z M43.3514019,84.4202643 C43.3514019,84.1189427 43.1495327,83.8176211 42.8971963,83.8678414 C42.6953271,83.8678414 42.6448598,84.0687225 42.6448598,84.2193833 C42.6448598,84.4704846 42.6448598,84.6713656 42.9476636,84.7718062 C43.1495327,84.8220264 43.3514019,84.6713656 43.3514019,84.4202643 Z" id="Shape" fill="#FDC841"/>
          <path d="M42.846729,63.7295154 C42.7457944,63.7797357 42.6448598,63.8299559 42.5439252,63.8801762 C40.0205607,64.1814978 37.6485981,65.0854626 35.2261682,65.4370044 C34.9233645,65.3365639 34.8728972,65.1356828 34.8224299,64.9348018 C34.5196262,63.5788546 34.2672897,62.1726872 34.0149533,60.8167401 C34.0149533,60.7665198 34.0654206,60.6660793 34.1158879,60.5154185 C36.7401869,60.1136564 39.364486,59.3603524 42.0392523,58.9585903 C42.3420561,59.9629956 42.846729,62.9762115 42.846729,63.7295154 Z M39.4654206,60.5154185 C38.4056075,60.3145374 38.4056075,60.3145374 35.4785047,61.3189427 C35.4280374,61.4696035 35.3775701,61.6202643 35.4785047,61.7709251 C35.6803738,61.9718062 35.9327103,62.122467 36.235514,62.0220264 C37.2448598,61.7709251 38.2542056,61.5198238 39.1626168,61.0678414 C39.4149533,60.9674009 39.5663551,60.8167401 39.4654206,60.5154185 Z M39.2130841,63.0264317 C39.0616822,63.0264317 38.9102804,63.0264317 38.7084112,63.076652 C37.8,63.3277533 36.8411215,63.5788546 35.9327103,63.8299559 C35.8317757,63.8299559 35.7813084,63.8801762 35.7308411,63.9303965 C35.6299065,64.030837 35.5794393,64.1312775 35.528972,64.2317181 C35.528972,64.3823789 35.6299065,64.5330396 35.7813084,64.5832599 C35.9327103,64.6334802 36.0841121,64.6334802 36.235514,64.6334802 C37.2953271,64.4828194 38.3551402,64.1312775 39.364486,63.8299559 C39.4654206,63.7797357 39.5663551,63.7295154 39.6672897,63.6290749 C39.717757,63.5788546 39.7682243,63.4784141 39.717757,63.4281938 C39.6672897,63.3277533 39.6168224,63.2273128 39.5158879,63.1770925 C39.4654206,63.0264317 39.3140187,63.0264317 39.2130841,63.0264317 Z M41.5345794,63.1268722 C41.6859813,63.076652 41.8878505,63.076652 42.0897196,62.9762115 C42.2411215,62.9259912 42.3420561,62.7753304 42.3420561,62.6246696 C42.2915888,62.4740088 42.1906542,62.323348 42.0392523,62.323348 C41.7364486,62.2731278 41.3831776,62.323348 41.1308411,62.5242291 C41.0299065,62.5744493 40.9794393,62.7251101 41.0299065,62.8255507 C41.0803738,62.8757709 41.1308411,62.9762115 41.1813084,62.9762115 C41.2317757,63.076652 41.3831776,63.076652 41.5345794,63.1268722 Z" id="Shape" fill="#FDC841"/>
          <path d="M41.2317757,53.384141 C41.4841121,54.9409692 41.7364486,56.3471366 41.988785,57.8537445 C40.5252336,58.1550661 39.1626168,58.3559471 37.8,58.6572687 C36.4878505,58.9585903 35.1757009,59.4105727 33.8130841,59.460793 C33.4093458,58.5066079 33.0056075,55.8449339 33.1065421,54.6396476 C34.4186916,54.4387665 35.7813084,54.1876652 37.0934579,53.9867841 C38.4560748,53.8361233 39.7682243,53.384141 41.2317757,53.384141 Z M33.7626168,55.8951542 C33.9140187,56.2969163 34.1663551,56.3973568 34.4186916,56.3471366 C35.6803738,56.2969163 36.8411215,55.9453744 38.0018692,55.4933921 C38.2037383,55.4431718 38.3046729,55.2422907 38.2542056,54.9911894 C37.9009346,54.6898678 37.4971963,54.7903084 37.1439252,54.8907489 C36.0336449,55.1920705 34.8224299,55.2422907 33.7626168,55.8951542 Z M37.5981308,57.6026432 C37.5476636,57.5524229 37.446729,57.5022026 37.3962617,57.5022026 C36.3869159,57.5022026 35.4280374,57.8035242 34.4691589,58.1550661 C34.2672897,58.2052863 34.2168224,58.4563877 34.317757,58.7577093 C35.4280374,58.8581498 36.4878505,58.5568282 37.4971963,58.0546256 C37.5981308,57.954185 37.5981308,57.8035242 37.5981308,57.6026432 Z M38.5570093,57.6528634 C39.364486,57.9039648 39.8691589,57.7030837 40.3233645,57.2008811 C40.2224299,56.8995595 40.0205607,56.7488987 39.7682243,56.7991189 C39.2635514,56.8995595 38.8093458,57 38.5570093,57.6528634 Z" id="Shape" fill="#FDC841"/>
          <path d="M37.3457944,66.1903084 C37.3962617,66.1400881 37.446729,66.0396476 37.4971963,66.0396476 C39.1121495,65.6378855 40.7775701,65.2361233 42.4429907,64.985022 C42.6448598,64.9348018 42.846729,64.8845815 43.0990654,65.0352423 C43.4018692,66.4414097 43.6542056,67.9480176 43.8056075,69.5048458 C41.282243,69.9066079 38.8093458,70.30837 36.3869159,70.9110132 C36.0841121,70.8105727 35.9831776,70.6096916 35.9327103,70.3585903 C35.6803738,69.0528634 35.4280374,67.7973568 35.1757009,66.3911894 C35.9327103,66.3911894 36.6392523,66.1400881 37.3457944,66.1903084 C37.2448598,66.5418502 36.8915888,66.3911894 36.6392523,66.5418502 C36.4878505,66.692511 36.3364486,66.7929515 36.4373832,67.0440529 C36.4878505,67.0942731 36.588785,67.1444934 36.6392523,67.1444934 C37.8,67.2449339 38.9102804,66.9436123 40.0205607,66.49163 C40.1719626,66.4414097 40.2728972,66.2907489 40.1719626,65.9894273 C39.717757,65.8889868 39.1626168,65.8889868 38.6074766,66.0396476 C38.2037383,66.1903084 37.7495327,66.2405286 37.3457944,66.1903084 Z M37.4971963,70.0572687 C38.4056075,69.9568282 39.4654206,69.7057269 40.4747664,69.354185 C40.8785047,69.2035242 41.0299065,69.0528634 40.9794393,68.8017621 C40.8785047,68.5506608 40.6261682,68.5506608 40.3738318,68.5506608 C40.2224299,68.5506608 40.071028,68.5506608 39.9196262,68.6008811 C39.011215,68.8017621 38.1028037,68.9524229 37.2448598,69.153304 C36.7906542,69.2537445 36.588785,69.5048458 36.6897196,69.7559471 C36.7401869,70.107489 37.0429907,70.107489 37.4971963,70.0572687 Z M43.4523364,68.5004405 C43.0485981,68.1488987 42.9476636,68.0986784 42.7457944,68.1488987 C42.4429907,68.1991189 42.1906542,68.2493392 42.0392523,68.5004405 C41.988785,68.5506608 41.988785,68.7515419 42.0392523,68.8017621 C42.0897196,68.9022026 42.1906542,69.0026432 42.2915888,69.0026432 C42.7962617,69.1030837 43.2,68.9524229 43.4523364,68.5004405 Z" id="Shape" fill="#FDC841"/>
          <path d="M39.5663551,50.9735683 C39.5158879,50.8229075 39.5158879,50.6722467 39.4654206,50.5215859 C39.4149533,50.3709251 39.2635514,50.2202643 39.1121495,50.2202643 C38.8598131,50.2202643 38.8093458,50.4211454 38.7588785,50.6220264 C38.7084112,51.1744493 38.8093458,51.7268722 38.9102804,52.2792952 C38.9102804,52.4299559 38.9102804,52.4299559 38.4560748,52.5806167 C38.2542056,51.6264317 38.0523364,50.722467 37.9009346,49.8185022 C37.6485981,48.1612335 37.3457944,46.5039648 37.1439252,44.846696 C36.9420561,43.3903084 36.9925234,41.984141 37.2953271,40.5277533 C37.4971963,39.7744493 37.5981308,39.523348 38.153271,38.9709251 C38.5570093,40.9797357 39.0616822,42.9885463 39.364486,44.9471366 C39.5663551,46.0519824 39.8691589,47.1568282 40.071028,48.2114537 C40.2728972,49.0651982 40.4747664,49.9189427 40.6766355,50.7726872 C40.7271028,50.923348 40.6766355,51.0740088 40.6261682,51.2748899 C40.3233645,51.0740088 40.071028,51.0237885 39.9196262,51.3753304 C39.8186916,51.3251101 39.717757,51.1744493 39.5663551,50.9735683 Z" id="Shape" fill="#FDC741"/>
          <path d="M51.3252336,62.2731278 C50.1140187,62.5744493 49.0037383,62.8757709 47.8934579,63.1770925 C47.4897196,61.4193833 47.2878505,59.7118943 47.035514,58.0044053 C48.0448598,57.8035242 49.0037383,57.6528634 49.9626168,57.3515419 C51.3757009,58.707489 51.4766355,60.414978 51.3252336,62.2731278 Z M48.8523364,61.9215859 C49.0037383,61.8713656 49.1551402,61.8713656 49.2560748,61.7709251 C49.4074766,61.6704846 49.4579439,61.5198238 49.4074766,61.369163 C49.3065421,61.1682819 49.1551402,61.0678414 48.953271,61.1180617 C48.6,61.1682819 48.3476636,61.369163 48.3981308,61.6202643 C48.3981308,61.6704846 48.4485981,61.7709251 48.4990654,61.8211454 C48.5495327,61.8713656 48.7009346,61.8713656 48.8523364,61.9215859 Z" id="Shape" fill="#FCC741"/>
          <path d="M47.2373832,50.9735683 C46.7831776,51.1242291 46.4299065,51.2748899 45.9252336,51.2246696 C45.4205607,49.1154185 45.117757,46.9057269 44.8654206,44.7462555 C44.5626168,42.5867841 43.9570093,40.5277533 43.6037383,38.1674009 C44.2598131,38.8202643 44.5626168,39.4229075 44.8654206,40.0255507 C45.4205607,41.1303965 45.6728972,42.2854626 45.9757009,43.4405286 C46.5308411,45.6502203 46.8336449,47.9101322 47.2373832,50.1700441 C47.2878505,50.4211454 47.2373832,50.6722467 47.2373832,50.9735683 Z" id="Shape" fill="#F9C540"/>
          <path d="M48.4990654,67.3453744 C48.4990654,66.2405286 48.1457944,65.2361233 48.0448598,64.1312775 C49.2056075,63.8801762 50.3158879,63.6290749 51.5271028,63.3779736 C52.3850467,64.5832599 52.5869159,65.939207 52.3850467,67.3955947 C52.3345794,67.646696 52.1831776,67.8475771 51.9308411,67.8977974 C51.4766355,67.9982379 50.9719626,68.0986784 50.517757,68.1991189 C50.0635514,68.2995595 49.5588785,68.4502203 49.1046729,68.5506608 C48.953271,68.6008811 48.8018692,68.5004405 48.7009346,68.3497797 C48.7514019,68.1488987 48.6504673,67.8977974 48.8523364,67.646696 C49.4074766,67.8977974 49.9121495,67.7973568 50.4168224,67.4960352 C50.5682243,67.445815 50.6186916,67.2951542 50.6186916,67.0942731 C50.5682243,66.8933921 50.4168224,66.7929515 50.2654206,66.7929515 C49.811215,66.7929515 49.3065421,66.8431718 48.953271,67.1947137 C48.8018692,67.3955947 48.6504673,67.3955947 48.4990654,67.3453744 Z" id="Shape" fill="#FCC741"/>
          <path d="M49.9121495,56.1462555 C48.9028037,56.5982379 47.9439252,56.7991189 46.9345794,56.9497797 C46.5308411,55.6942731 46.1271028,53.4343612 46.1271028,52.2792952 C47.035514,52.1286344 47.8934579,51.9779736 48.8523364,51.8273128 C49.9121495,53.0828194 49.7607477,54.5894273 49.9121495,56.1462555 Z M47.9439252,55.7947137 C47.9439252,55.5938326 47.6915888,55.3929515 47.4392523,55.3929515 C47.1869159,55.3929515 46.9850467,55.5938326 46.9850467,55.8449339 C46.9850467,56.0960352 47.1869159,56.1462555 47.388785,56.1462555 C47.5401869,56.1462555 47.6915888,56.0960352 47.8429907,56.045815 C47.8934579,55.9453744 47.8934579,55.8449339 47.9439252,55.7947137 Z" id="Shape" fill="#FBC641"/>
          <path d="M37.1943925,101.244053 C37.0429907,100.239648 37.0429907,100.239648 37.446729,98.8334802 C38.5570093,98.7330396 39.717757,98.5823789 40.7271028,98.0299559 C41.3831776,98.7330396 41.8373832,99.4863436 42.1401869,100.390308 C40.6261682,101.495154 38.8598131,101.796476 37.1943925,101.244053 Z" id="Shape" fill="#FBC641"/>
          <path d="M36.1345794,49.014978 C36.0841121,49.1656388 36.0336449,49.5171806 35.882243,49.8687225 C35.5794393,50.6722467 35.1757009,50.923348 34.317757,50.7726872 C33.3588785,50.6220264 32.6523364,49.5674009 32.7028037,48.4123348 C32.8037383,47.3577093 33.5607477,46.6044053 34.5700935,46.554185 C34.9738318,46.554185 35.2766355,46.6546256 35.528972,47.0061674" id="Shape" fill="#FDFDFD"/>
          <path d="M23.8205607,74.3259912 C22.8616822,74.7779736 22.6598131,74.6273128 22.2056075,74.0246696 C21.3981308,72.9700441 21.0953271,71.7647577 21.1457944,70.4088106 C21.1457944,69.7559471 21.246729,69.6555066 21.9028037,69.5550661 C22.0542056,69.5048458 22.2056075,69.5550661 22.4579439,69.5048458 C22.9121495,71.1118943 23.4168224,72.6687225 23.8205607,74.3259912 Z" id="Shape" fill="#FBC640"/>
          <path d="M18.7233645,58.3559471 C19.0766355,58.0044053 19.4299065,58.0546256 19.8336449,58.1550661 C20.1869159,59.8123348 20.5401869,61.4193833 20.8934579,63.076652 C20.5401869,63.3779736 20.1869159,63.3277533 19.8336449,63.3277533 C19.4803738,63.076652 19.4299065,62.6748899 19.2280374,62.323348 C18.471028,61.0176211 18.5719626,59.661674 18.7233645,58.3559471 Z" id="Shape" fill="#F7C340"/>
          <path d="M19.9345794,64.2819383 C20.2373832,64.2317181 20.5906542,64.2317181 20.9943925,64.1814978 C21.4485981,64.8343612 21.4485981,65.5374449 21.6504673,66.2405286 C21.8523364,66.9436123 22.2056075,67.5964758 22.1551402,68.3497797 C21.8018692,68.6008811 21.4485981,68.7013216 21.0953271,68.4 C19.9345794,67.2951542 19.4299065,65.9894273 19.8336449,64.4325991 C19.7831776,64.3823789 19.8336449,64.3823789 19.9345794,64.2819383 Z" id="Shape" fill="#F8C440"/>
          <path d="M15.9981308,61.8211454 C15.9981308,62.5744493 15.9981308,62.5744493 15.6448598,63.076652 C15.2411215,63.1268722 14.988785,62.8757709 14.7869159,62.5242291 C14.3327103,61.7207048 14.2317757,60.8669604 14.3831776,60.0132159 C14.4336449,59.7118943 14.635514,59.5110132 14.9383178,59.460793 C15.1906542,59.4105727 15.3925234,59.6114537 15.4934579,59.8123348 C15.5943925,60.0132159 15.6953271,60.2643172 15.7457944,60.414978 C15.6953271,60.7162996 15.4934579,60.7665198 15.3420561,60.8669604 C15.1401869,60.9674009 15.0392523,61.0678414 15.0392523,61.3189427 C15.0897196,61.6202643 15.2411215,61.7207048 15.5439252,61.7709251 C15.6953271,61.7709251 15.846729,61.6704846 15.9981308,61.8211454 Z" id="Shape" fill="#ECBB3F"/>
          <path d="M5.14766355,6.17709251 C5.24859813,6.42819383 5.50093458,6.37797357 5.70280374,6.42819383 C5.29906542,6.77973568 4.74392523,6.82995595 4.28971963,7.030837 C3.33084112,7.48281938 2.42242991,7.98502203 1.61495327,8.63788546 C1.4635514,8.78854626 1.26168224,8.83876652 1.11028037,8.63788546 C1.05981308,8.33656388 1.26168224,8.18590308 1.4635514,8.08546256 C2.57383178,7.28193833 3.78504673,6.57885463 5.14766355,6.17709251 Z" id="Shape" fill="#D8AC3C"/>
          <path d="M17.3102804,71.8651982 C17.7140187,71.8651982 18.0672897,71.9154185 18.1682243,72.3674009 C18.0672897,72.7189427 17.5121495,72.7189427 17.5626168,73.2713656 C17.6635514,73.6229075 18.1682243,73.522467 18.4205607,73.8740088 C18.5214953,74.2757709 18.471028,74.677533 18.0672897,74.9788546 C17.5121495,74.8784141 17.2598131,74.4264317 17.1084112,73.9744493 C16.8560748,73.2211454 16.9065421,72.5180617 17.3102804,71.8651982 Z" id="Shape" fill="#DFB13D"/>
          <path d="M17.0579439,69.153304 C16.3009346,69.1030837 16.0990654,68.5506608 15.9476636,68.0484581 C15.7457944,67.2951542 15.6953271,66.5418502 16.4018692,65.9894273 C16.8056075,66.2405286 16.9570093,66.5920705 17.0074766,66.9938326 C16.8560748,67.2951542 16.3514019,67.1947137 16.4018692,67.646696 C16.4523364,68.0986784 16.9065421,68.0986784 17.2093458,68.1991189 C17.3102804,68.5004405 17.2598131,68.8017621 17.0579439,69.153304 Z" id="Shape" fill="#E4B53E"/>
          <path d="M41.0299065,96.0211454 C40.2224299,97.3770925 39.0616822,97.477533 37.9514019,97.6281938 C37.5476636,97.6784141 36.9925234,97.7788546 36.6392523,97.1259912 C37.3962617,96.9251101 38.1028037,97.0757709 38.7588785,96.8246696 C39.5158879,96.6237885 40.1719626,96.322467 41.0299065,96.0211454 Z" id="Shape" fill="#E3B53E"/>
          <path d="M48.4990654,67.3453744 C48.6504673,67.3955947 48.8018692,67.3955947 48.9028037,67.2449339 C49.2560748,66.8431718 49.7607477,66.8431718 50.2149533,66.8431718 C50.3663551,66.8431718 50.517757,66.9436123 50.5682243,67.1444934 C50.6186916,67.2951542 50.517757,67.445815 50.3663551,67.5462555 C49.8616822,67.7973568 49.3570093,67.8977974 48.8018692,67.6969163 C48.6,67.9480176 48.7514019,68.1991189 48.6504673,68.4 C48.3476636,68.0986784 48.4990654,67.6969163 48.4990654,67.3453744 Z" id="Shape" fill="#272111"/>
          <path d="M39.5663551,50.9735683 C39.717757,51.1242291 39.8691589,51.2748899 39.9700935,51.4255507 C40.0205607,51.7268722 40.071028,52.0281938 40.1214953,52.2792952 C39.8691589,52.4801762 39.7682243,52.3797357 39.6672897,52.2290749 C39.5158879,51.877533 39.5158879,51.4255507 39.5663551,50.9735683 Z" id="Shape" fill="#AC8B37"/>
          <path d="M28.1102804,5.92599119 C28.0598131,5.7753304 27.9588785,5.57444934 27.9084112,5.42378855 C28.1607477,5.42378855 28.4635514,5.47400881 28.7158879,5.47400881 C28.6654206,5.92599119 28.4130841,5.97621145 28.1102804,5.92599119 Z" id="Shape" fill="#574A2A"/>
          <path d="M26.2934579,72.6185022 C26.7476636,73.2211454 26.8990654,73.9744493 27.1514019,74.6273128 C27.6560748,76.0334802 28.1102804,77.4396476 28.7663551,78.7955947 C29.3214953,80.0008811 30.0280374,81.1057269 30.835514,82.1603524 C31.1383178,82.5621145 31.4915888,82.9638767 31.5925234,83.5162996 C31.6429907,83.7674009 31.5420561,83.8678414 31.2897196,84.0185022 C30.3813084,83.3656388 29.6747664,82.461674 29.0691589,81.507489 C27.9588785,79.8502203 27.1514019,78.092511 26.5457944,76.184141 C26.2429907,75.2801762 25.8897196,74.3762115 25.7383178,73.4220264 C25.788785,73.0704846 25.788785,72.769163 26.2934579,72.6185022 Z" id="Shape" fill="#070603"/>
          <path d="M29.3214953,77.0378855 C29.4224299,77.0881057 29.5233645,77.138326 29.5738318,77.1885463 C29.7252336,77.3894273 29.8261682,77.5903084 29.9271028,77.7911894 C30.4317757,78.845815 30.9869159,79.8502203 31.6934579,80.754185 C31.7943925,80.9048458 31.8953271,81.0052863 31.9457944,81.1559471 C32.046729,81.3568282 32.046729,81.5577093 31.8953271,81.70837 C31.6934579,81.8590308 31.5420561,81.7585903 31.3906542,81.6079295 C31.2897196,81.507489 31.188785,81.3568282 31.0878505,81.2563877 C30.2299065,80.2017621 29.5738318,78.9964758 29.0691589,77.7409692 C29.0186916,77.5903084 28.9682243,77.4396476 29.0186916,77.2889868 C29.0186916,77.1885463 29.1196262,77.0881057 29.3214953,77.0378855 Z" id="Shape" fill="#110E08"/>
          <path d="M28.211215,74.476652 C28.3121495,74.5268722 28.4130841,74.5268722 28.4635514,74.6273128 C28.7158879,75.0792952 28.917757,75.5312775 28.917757,76.0334802 C28.917757,76.2343612 28.6149533,76.3348018 28.4635514,76.184141 C28.0093458,75.8325991 27.7570093,75.1295154 28.0093458,74.6273128 C28.0093458,74.5268722 28.1102804,74.476652 28.211215,74.476652 Z" id="Shape" fill="#241E10"/>
          <path d="M25.5364486,71.4634361 C25.3345794,71.4634361 25.1831776,71.3629956 25.1327103,71.2625551 C24.8299065,70.7101322 24.8299065,69.9568282 25.1831776,69.8563877 C25.2841121,69.8061674 25.435514,69.8563877 25.5364486,69.9066079 C25.8392523,70.1577093 25.8392523,70.5594714 25.9401869,70.9110132 C25.8897196,71.1118943 25.788785,71.3629956 25.5364486,71.4634361 Z" id="Shape" fill="#1E190D"/>
          <path d="M24.2747664,67.7973568 C24.3252336,67.7471366 24.3252336,67.5964758 24.4261682,67.5462555 C24.5271028,67.445815 24.6280374,67.3955947 24.728972,67.4960352 C24.8299065,67.5964758 24.9308411,67.646696 24.9813084,67.7471366 C25.082243,67.9982379 25.1327103,68.2995595 24.8803738,68.5004405 C24.7794393,68.6008811 24.6785047,68.6008811 24.5775701,68.5506608 C24.2242991,68.4 24.2242991,68.1488987 24.2747664,67.7973568 Z" id="Shape" fill="#2F2815"/>
          <path d="M28.211215,38.2678414 C27.8074766,38.1674009 27.7065421,37.9162996 27.7065421,37.614978 C27.7065421,37.0625551 27.6056075,36.4599119 27.7065421,35.9577093 C28.1607477,34.0493392 28.8672897,32.2414097 30.128972,30.6845815 C30.5831776,30.1823789 31.1383178,29.7806167 31.8953271,29.7806167 C32.1476636,29.7806167 32.4,29.830837 32.5009346,30.0819383 C32.6018692,30.3832599 32.4504673,30.584141 32.1981308,30.6343612 C30.5831776,31.2872247 30.0280374,32.7938326 29.3719626,34.2 C28.9682243,35.1039648 28.7663551,36.10837 28.6654206,37.1127753 C28.6149533,37.5145374 28.5140187,37.8660793 28.211215,38.2678414 Z" id="Shape" fill="#FEFDFA"/>
          <path d="M28.4130841,40.6784141 C28.4130841,40.9797357 28.4130841,41.0801762 28.4130841,41.1303965 C28.4130841,41.7330396 28.3121495,42.0845815 28.0598131,42.0343612 C27.6560748,41.9339207 27.7065421,41.5823789 27.5551402,41.2810573 C27.3028037,40.7286344 27.5551402,40.276652 27.7065421,39.7744493 C27.7570093,39.6237885 27.9084112,39.523348 28.0598131,39.5735683 C28.1607477,39.6237885 28.2616822,39.7242291 28.3121495,39.8246696 C28.4130841,40.1762115 28.4130841,40.5277533 28.4130841,40.6784141 Z" id="Shape" fill="#FEFBF3"/>
          <path d="M12.1121495,4.87136564 C12.2130841,4.82114537 12.2635514,4.72070485 12.4149533,4.67048458 C13.6261682,4.16828194 14.8373832,3.86696035 16.0990654,3.61585903 C17.764486,3.26431718 19.4299065,3.01321586 21.0448598,2.76211454 C21.1962617,2.76211454 21.3476636,2.8123348 21.4990654,2.86255507 C21.6,3.16387665 21.4990654,3.31453744 21.2971963,3.36475771 C21.0448598,3.46519824 20.7420561,3.5154185 20.4897196,3.56563877 C19.0261682,3.91718062 17.6130841,4.2185022 16.1495327,4.46960352 C15.0392523,4.67048458 13.9794393,5.02202643 12.9196262,5.27312775 C12.4654206,5.42378855 12.2635514,5.32334802 12.1121495,4.87136564 Z" id="Shape" fill="#FEFCF4"/>
          <path d="M7.72149533,5.87577093 C8.02429907,5.92599119 8.22616822,5.97621145 8.22616822,6.22731278 C8.17570093,6.67929515 7.46915888,6.93039648 7.06542056,6.67929515 C6.8635514,6.52863436 6.8635514,6.3277533 7.01495327,6.17709251 C7.21682243,5.87577093 7.51962617,5.87577093 7.72149533,5.87577093 Z" id="Shape" fill="#262011"/>
          <path d="M27.1009346,2.66167401 C27.2018692,2.56123348 27.2523364,2.41057269 27.3028037,2.41057269 C27.5551402,2.31013216 27.8074766,2.31013216 28.0598131,2.46079295 C28.2616822,2.56123348 28.2616822,2.8123348 28.1102804,2.96299559 C27.8074766,3.16387665 27.5551402,3.16387665 27.2523364,3.01321586 C27.1514019,2.91277533 27.1514019,2.8123348 27.1009346,2.66167401 Z" id="Shape" fill="#272112"/>
          <path d="M9.74018692,5.72511013 C9.63925234,5.97621145 9.43738318,6.07665198 9.18504673,6.07665198 C9.03364486,6.07665198 8.88224299,5.97621145 8.8317757,5.82555066 C8.78130841,5.6246696 8.8317757,5.52422907 8.98317757,5.42378855 C9.13457944,5.32334802 9.3364486,5.22290749 9.53831776,5.32334802 C9.68971963,5.42378855 9.79065421,5.52422907 9.74018692,5.72511013 Z" id="Shape" fill="#42371A"/>
          <path d="M27.2523364,4.41938326 C27,4.41938326 26.7476636,4.2185022 26.7476636,4.01762115 C26.7981308,3.76651982 27,3.71629956 27.2018692,3.71629956 C27.4037383,3.71629956 27.6056075,3.71629956 27.6560748,3.96740088 C27.7570093,4.16828194 27.5046729,4.41938326 27.2523364,4.41938326 Z" id="Shape" fill="#44381B"/>
          <path d="M26.2429907,2.76211454 C26.1925234,3.01321586 25.9401869,3.11365639 25.6878505,3.01321586 C25.4859813,2.96299559 25.3345794,2.8123348 25.3850467,2.61145374 C25.435514,2.41057269 25.6878505,2.25991189 25.9401869,2.31013216 C26.1420561,2.36035242 26.2429907,2.56123348 26.2429907,2.76211454 Z" id="Shape" fill="#2D2615"/>
          <path d="M8.68037383,7.53303965 C8.62990654,7.7339207 8.52897196,7.8845815 8.27663551,7.8845815 C8.02429907,7.8845815 7.8728972,7.7339207 7.92336449,7.53303965 C7.92336449,7.33215859 8.07476636,7.1814978 8.3271028,7.1814978 C8.52897196,7.1814978 8.62990654,7.33215859 8.68037383,7.53303965 Z" id="Shape" fill="#5C4C25"/>
          <path d="M39.5158879,82.9638767 C40.4747664,82.3612335 41.635514,82.8634361 42.3925234,82.1603524 C42.7962617,82.3110132 42.7962617,82.5621145 42.5943925,82.7629956 C42.1906542,83.3154185 41.4841121,83.415859 40.8785047,83.5162996 C40.3738318,83.6167401 39.9196262,83.5162996 39.5158879,82.9638767 Z" id="Shape" fill="#FEF7E3"/>
          <path d="M39.6168224,84.3700441 C39.9196262,84.3700441 40.0205607,84.4704846 40.071028,84.6211454 C40.2224299,84.9726872 40.3233645,85.3744493 40.4242991,85.7259912 C40.4747664,85.9268722 40.4242991,86.1277533 40.1719626,86.1779736 C39.9700935,86.2281938 39.8186916,86.1277533 39.6672897,85.9268722 C39.6672897,85.876652 39.6168224,85.876652 39.6168224,85.8264317 C39.5158879,85.3744493 39.364486,84.922467 39.6168224,84.3700441 Z" id="Shape" fill="#292212"/>
          <path d="M41.282243,84.3198238 C41.3831776,84.3700441 41.5345794,84.3700441 41.5850467,84.4704846 C41.7869159,84.8220264 41.9383178,85.2237885 41.9383178,85.6757709 C41.9383178,85.876652 41.635514,86.0273128 41.4841121,85.9268722 C41.0299065,85.6255507 40.8280374,84.9726872 41.0803738,84.4704846 C41.0803738,84.3700441 41.1813084,84.3700441 41.282243,84.3198238 Z" id="Shape" fill="#211C0F"/>
          <path d="M43.3514019,84.4202643 C43.3514019,84.6211454 43.1495327,84.7718062 42.9476636,84.7718062 C42.6448598,84.7215859 42.5943925,84.4704846 42.6448598,84.2193833 C42.6448598,84.0687225 42.6953271,83.9180617 42.8971963,83.8678414 C43.1495327,83.8678414 43.3514019,84.1189427 43.3514019,84.4202643 Z" id="Shape" fill="#4B3F20"/>
          <path d="M39.4654206,60.5154185 C39.5663551,60.8167401 39.4149533,60.9674009 39.1626168,61.0678414 C38.2037383,61.5198238 37.1943925,61.7207048 36.235514,62.0220264 C35.9831776,62.0722467 35.6803738,61.9215859 35.4785047,61.7709251 C35.3271028,61.6704846 35.3775701,61.4696035 35.4785047,61.3189427 C38.4056075,60.3145374 38.4056075,60.3145374 39.4654206,60.5154185 Z" id="Shape" fill="#FEFBF1"/>
          <path d="M39.2130841,63.0264317 C39.3140187,63.0264317 39.4654206,63.0264317 39.5663551,63.076652 C39.6672897,63.1268722 39.717757,63.2273128 39.7682243,63.3277533 C39.7682243,63.3779736 39.7682243,63.4784141 39.717757,63.5286344 C39.6168224,63.6290749 39.5158879,63.6792952 39.4149533,63.7295154 C38.3551402,64.030837 37.3457944,64.4325991 36.2859813,64.5330396 C36.1345794,64.5330396 35.9831776,64.5330396 35.8317757,64.4828194 C35.6803738,64.4325991 35.5794393,64.2819383 35.5794393,64.1312775 C35.5794393,64.030837 35.6803738,63.9303965 35.7813084,63.8299559 C35.8317757,63.7797357 35.9327103,63.7797357 35.9831776,63.7295154 C36.8915888,63.4784141 37.8504673,63.2273128 38.7588785,62.9762115 C38.8598131,63.0264317 39.011215,63.0264317 39.2130841,63.0264317 Z" id="Shape" fill="#120F08"/>
          <path d="M41.5345794,63.1268722 C41.3831776,63.076652 41.282243,63.076652 41.1813084,63.0264317 C41.1308411,62.9762115 41.0803738,62.9259912 41.0299065,62.8757709 C40.9794393,62.7251101 41.0299065,62.6246696 41.1308411,62.5744493 C41.3831776,62.323348 41.6859813,62.2731278 42.0392523,62.3735683 C42.1906542,62.4237885 42.3420561,62.5242291 42.3420561,62.6748899 C42.3925234,62.8757709 42.2411215,62.9762115 42.0897196,63.0264317 C41.8878505,63.076652 41.6859813,63.076652 41.5345794,63.1268722 Z" id="Shape" fill="#1F1A0F"/>
          <path d="M33.7626168,55.8951542 C34.8224299,55.2422907 36.0336449,55.1920705 37.0934579,54.8907489 C37.446729,54.7903084 37.9009346,54.6898678 38.2037383,54.9911894 C38.2542056,55.2422907 38.153271,55.4431718 37.9514019,55.4933921 C36.7906542,55.9453744 35.5794393,56.2969163 34.3682243,56.3471366 C34.1663551,56.3471366 33.9140187,56.246696 33.7626168,55.8951542 Z" id="Shape" fill="#FEFCF4"/>
          <path d="M37.5981308,57.6026432 C37.6485981,57.753304 37.6485981,57.954185 37.4971963,58.0546256 C36.4878505,58.5568282 35.4280374,58.8581498 34.317757,58.7577093 C34.2168224,58.4061674 34.2672897,58.2052863 34.4691589,58.1550661 C35.4280374,57.8537445 36.3869159,57.5524229 37.3962617,57.5022026 C37.446729,57.5022026 37.4971963,57.6026432 37.5981308,57.6026432 Z" id="Shape" fill="#120F09"/>
          <path d="M38.5570093,57.6528634 C38.8093458,57 39.2635514,56.8995595 39.717757,56.7991189 C39.9700935,56.7488987 40.1719626,56.8493392 40.2728972,57.2008811 C39.8691589,57.7030837 39.364486,57.9039648 38.5570093,57.6528634 Z" id="Shape" fill="#3B3017"/>
          <path d="M37.4971963,70.0572687 C37.0429907,70.0572687 36.7401869,70.107489 36.6392523,69.7559471 C36.5383178,69.5048458 36.7401869,69.2537445 37.1943925,69.153304 C38.1028037,68.9524229 39.011215,68.7515419 39.8691589,68.6008811 C40.0205607,68.5506608 40.1719626,68.5506608 40.3233645,68.5506608 C40.5757009,68.5506608 40.8280374,68.5506608 40.928972,68.8017621 C41.0299065,69.0026432 40.8785047,69.2035242 40.4242991,69.354185 C39.4654206,69.7057269 38.4056075,69.9568282 37.4971963,70.0572687 Z" id="Shape" fill="#0F0D07"/>
          <path d="M37.3457944,66.1903084 C37.8,66.2405286 38.2037383,66.1903084 38.6579439,66.0396476 C39.1626168,65.8889868 39.717757,65.8889868 40.2224299,65.9894273 C40.3233645,66.2907489 40.2224299,66.4414097 40.071028,66.49163 C39.011215,66.9436123 37.9009346,67.1947137 36.6897196,67.1444934 C36.6392523,67.1444934 36.5383178,67.0942731 36.4878505,67.0440529 C36.3869159,66.7929515 36.4878505,66.692511 36.6897196,66.5418502 C36.8411215,66.3911894 37.2448598,66.5418502 37.3457944,66.1903084 Z" id="Shape" fill="#FDF7E7"/>
          <path d="M43.4523364,68.5004405 C43.2,68.9524229 42.7457944,69.1030837 42.2411215,69.0026432 C42.1401869,69.0026432 42.0392523,68.8519824 41.988785,68.8017621 C41.9383178,68.7013216 41.9383178,68.5506608 41.988785,68.5004405 C42.1906542,68.2995595 42.4429907,68.1991189 42.6953271,68.1488987 C42.9476636,68.0986784 43.0485981,68.1488987 43.4523364,68.5004405 Z" id="Shape" fill="#352C16"/>
          <path d="M48.8523364,61.9215859 C48.7009346,61.8713656 48.6,61.8713656 48.4990654,61.8211454 C48.4485981,61.7709251 48.3981308,61.7207048 48.3981308,61.6202643 C48.3476636,61.4193833 48.6,61.1682819 48.953271,61.1180617 C49.1551402,61.0678414 49.3570093,61.1180617 49.4074766,61.369163 C49.4579439,61.5198238 49.4074766,61.7207048 49.2560748,61.7709251 C49.1551402,61.8713656 48.953271,61.8713656 48.8523364,61.9215859 Z" id="Shape" fill="#3C321B"/>
          <path d="M47.9439252,55.7947137 C47.8934579,55.8449339 47.8934579,55.9453744 47.8429907,55.9955947 C47.6915888,56.045815 47.5401869,56.0960352 47.388785,56.0960352 C47.1869159,56.0960352 46.9850467,56.0960352 46.9850467,55.7947137 C46.9850467,55.5436123 47.1869159,55.3427313 47.4392523,55.3427313 C47.6915888,55.3929515 47.9439252,55.5938326 47.9439252,55.7947137 Z" id="Shape" fill="#342C17"/>
        </g>
      </g>
    </g>
  </g>
</svg>