<svg version="1.1" width="127" height="186" viewBox="-1 -1 127 186" xmlns="http://www.w3.org/2000/svg" xmlns:xlink="http://www.w3.org/1999/xlink">
  <!-- Exported by Scratch - http://scratch.mit.edu/ -->
  <g id="space" transform="matrix(1, 0, 0, 1, -8, -2)">
    <g id="spaceship-a">
      <g id="explorer-animation-1">
        <path id="Shape" fill="#C1B4D8" stroke="none" stroke-width="1" d="M 41.750 11.921 L 38.150 17.409 L 32.750 32.425 L 30.250 46.147 L 29.750 63.011 L 29.750 82.269 L 33.809 86.061 L 44.950 90.451 L 56.731 92.446 L 75.190 91.549 L 86.950 90.352 L 96.150 86.360 L 100.950 83.267 L 97.850 50.039 L 94.852 33.075 L 90.364 22.399 L 86.450 16.112 L 78.874 8.229 L 70.650 2.242 L 62.250 1.244 L 54.323 2.841 L 47.150 6.932 L 41.750 11.921 " transform="matrix(1, 0, 0, 1, 8, 2)"/>
        <path id="Shape" fill="#897AB8" stroke="none" stroke-width="1" d="M 30.350 84.364 L 31.950 98.733 L 38.350 100.329 L 47.450 102.824 L 58.950 105.019 L 65.775 104.620 L 73.250 105.318 L 83.150 104.520 L 93.697 101.327 L 100.950 96.038 L 101.550 91.349 L 100.950 83.267 L 97.350 85.262 L 92.543 88.555 L 87.250 90.750 L 81.350 91.449 L 75.190 92.446 L 72.050 92.446 L 62.350 92.845 L 58.350 92.446 L 54.323 92.038 L 49.550 91.349 L 43.750 90.251 L 39.850 89.154 L 34.750 87.058 L 30.350 84.364 " transform="matrix(1, 0, 0, 1, 8, 2)"/>
        <path id="Shape" fill="#F7EC1E" stroke="none" stroke-width="1" d="M 61.425 112.329 L 57 114.950 L 53.700 118.914 L 51.525 125.949 L 51 135.753 L 53.850 149.373 L 58.425 162.620 L 61.850 171.226 L 65.350 178.710 L 65.950 181.254 L 66.675 181.778 L 67.550 179.758 L 73.575 165.613 L 78.675 152.367 L 80.925 141.366 L 82.950 131.962 L 82.050 123.180 L 77.625 116.294 L 73.250 112.852 L 71.625 112.329 L 62.850 112.329 L 61.425 112.329 " transform="matrix(1, 0, 0, 1, 8, 2)"/>
        <path id="Shape" fill="#FBF5A8" stroke="none" stroke-width="1" d="M 63.750 123.928 L 61.850 124.976 L 60.750 128.045 L 60.750 133.657 L 62.850 143.162 L 65.950 153.041 L 66.975 153.041 L 70.950 140.543 L 72.750 129.865 L 71.775 125.725 L 70.050 123.928 L 64.875 123.330 L 63.750 123.928 " transform="matrix(1, 0, 0, 1, 8, 2)"/>
        <path id="Shape" fill="#EF463C" stroke="none" stroke-width="1" d="M 69.350 65.304 L 66.950 65.304 L 64.150 66.801 L 62.450 70.294 L 61.850 80.073 L 62.550 96.238 L 63.150 110.507 L 64.450 120.685 L 66.750 131.162 L 70.350 114.298 L 71.950 97.535 L 73.250 82.867 L 73.250 73.786 L 72.050 68.597 L 70.650 66.103 L 69.350 65.304 " transform="matrix(1, 0, 0, 1, 8, 2)"/>
        <path id="Shape" fill="#EF463C" stroke="none" stroke-width="1" d="M 29.150 61.014 L 25.351 59.378 L 18.350 59.378 L 12.350 62.112 C 12.350 62.112 8.450 67.101 8.251 67.400 C 8.051 67.699 5.750 78.376 5.750 78.376 L 6.350 86.957 L 8.851 97.834 L 16.151 113.900 L 23.751 126.488 L 26.651 129.865 L 27.051 128.168 L 25.351 120.086 L 24.951 110.307 L 26.051 102.823 L 29.151 99.630 L 31.951 98.233 L 30.451 83.565 L 29.551 74.884 L 29.051 65.304 L 29.150 61.014 Z " transform="matrix(1, 0, 0, 1, 8, 2)"/>
        <path id="Shape" fill="#EF463C" stroke="none" stroke-width="1" d="M 99.250 62.311 L 100.550 76.580 L 101.350 87.556 L 102.050 96.038 L 104.842 97.235 L 108.650 100.129 L 111.350 104.919 L 113.050 110.706 L 113.050 116.294 L 118.150 106.814 L 123.250 91.547 L 125.450 79.574 L 123.250 68.298 L 118.350 62.311 L 111.450 59.378 L 104.842 59.916 L 99.250 62.311 " transform="matrix(1, 0, 0, 1, 8, 2)"/>
        <path id="Shape" fill="#EF463C" stroke="none" stroke-width="1" d="M 75.950 5.733 L 70.150 2.440 L 60.750 1.542 L 52.200 3.638 L 47.450 7.031 L 50.931 9.026 L 58.750 10.523 L 66.550 9.924 C 66.550 9.924 72.050 8.328 72.350 8.228 C 72.650 8.128 75.950 5.733 75.950 5.733 Z " transform="matrix(1, 0, 0, 1, 8, 2)"/>
        <path id="Shape" fill="#EF463C" stroke="none" stroke-width="1" d="M 65.567 19.005 L 57.250 20.003 L 53.261 23.794 L 52.200 28.185 L 52.200 33.972 L 54.323 39.061 L 59.850 43.751 L 64.850 45.647 L 73.250 44.150 L 78.150 39.959 L 79.350 32.326 L 78.150 27.087 L 74.550 22.999 L 69.550 20.202 L 65.567 19.005 " transform="matrix(1, 0, 0, 1, 8, 2)"/>
        <path id="Shape" fill="#FFFFFF" stroke="none" stroke-width="1" d="M 65.961 24.394 L 60.650 25.092 L 57.950 28.585 L 57.950 33.674 L 60.650 37.865 L 65.961 39.561 L 71.950 38.164 L 73.950 35.769 L 73.950 32.031 L 72.050 27.886 L 68.950 25.092 L 65.961 24.394 " transform="matrix(1, 0, 0, 1, 8, 2)"/>
        <path id="Shape" fill="#FFFFFF" stroke="none" stroke-width="1" d="M 3.950 174.968 L 2.550 174.968 L 1.450 176.066 L 1.450 178.161 L 2.989 178.560 L 4.763 177.562 L 4.763 175.866 L 3.950 174.968 " transform="matrix(1, 0, 0, 1, 8, 2)"/>
        <path id="Shape" fill="#FFFFFF" stroke="none" stroke-width="1" d="M 41.250 130.265 L 38.150 135.354 L 36.450 139.245 L 34.575 142.863 L 30.862 148.363 L 24.825 153.677 C 24.825 153.677 22.162 158.018 22.162 158.130 C 22.162 158.243 22.162 162.059 22.162 162.059 L 24.675 164.566 L 28.050 165.501 L 31.500 164.716 L 34.500 166.848 L 37.537 167.784 L 41.550 167.784 L 44.175 164.903 L 44.925 161.348 L 44.588 158.504 L 43.501 156.857 L 42.713 156.371 L 44.626 155.623 L 45.301 154.612 L 45.864 151.095 L 45.227 148.363 L 44.364 146.231 L 43.277 144.771 L 42.302 143.162 L 41.739 140.205 L 42.076 129.865 L 41.250 130.265 Z " transform="matrix(1, 0, 0, 1, 8, 2)"/>
        <path id="Shape" fill="#FFFFFF" stroke="none" stroke-width="1" d="M 92.737 117.193 L 97.013 121.159 L 102.037 126.099 L 106.387 128.157 L 111.075 128.456 L 114.563 129.130 L 116.625 130.514 L 118.087 132.385 L 118.387 134.294 L 117.525 137.624 L 114.600 138.148 L 115.275 140.730 L 115.125 143.985 L 111.675 145.594 L 107.100 144.921 L 105.300 143.237 L 104.100 146.118 L 101.550 147.465 L 97.163 148.289 L 94.237 146.418 L 92.925 142.189 L 92.925 136.052 L 94.763 131.786 L 95.137 129.317 L 95.063 126.735 L 94.463 123.330 L 92.287 117.755 L 92.737 117.193 " transform="matrix(1, 0, 0, 1, 8, 2)"/>
        <g id="Group">
          <path id="Shape" fill="#30419A" stroke="none" stroke-width="1" d="M 125.906 78.105 C 125.847 75.854 125.425 73.641 125.016 71.423 C 124.549 68.888 123.494 66.685 121.999 64.625 C 120.793 62.966 119.078 61.936 117.446 60.809 C 116.771 60.343 115.970 60.029 115.188 59.750 C 114.404 59.471 113.566 59.347 112.765 59.111 C 111.083 58.615 109.337 58.614 107.617 58.454 C 106.737 58.372 105.814 58.477 104.942 58.656 C 103.861 58.880 102.713 58.833 101.726 59.532 C 101.197 59.907 100.492 60.035 99.786 60.305 C 99.695 59.529 99.592 58.809 99.530 58.086 C 99.382 56.356 99.285 54.622 99.109 52.896 C 98.944 51.282 98.734 49.671 98.485 48.068 C 98.185 46.133 97.845 44.204 97.480 42.281 C 97.260 41.116 96.955 39.966 96.700 38.807 C 96.364 37.280 96.206 35.718 95.645 34.232 C 95.239 33.158 95.023 32.012 94.708 30.902 C 94.034 28.519 93.062 26.248 92.135 23.956 C 91.390 22.112 90.008 20.685 89.081 18.966 C 88.735 18.321 88.299 17.720 87.872 17.122 C 86.995 15.891 86.546 14.329 85.096 13.532 C 84.944 13.449 84.875 13.222 84.759 13.069 C 84.566 12.812 84.370 12.556 84.169 12.305 C 83.688 11.709 83.207 11.114 82.720 10.523 C 82.333 10.055 81.983 9.543 81.533 9.145 C 80.914 8.596 80.171 8.184 79.561 7.628 C 78.444 6.612 77.328 5.610 75.995 4.871 C 75.465 4.577 74.962 4.215 74.498 3.824 C 72.708 2.312 70.574 1.486 68.354 0.961 C 66.579 0.542 64.733 0.427 62.917 0.181 C 62.824 0.169 62.723 0.183 62.630 0.202 C 61.434 0.442 60.232 0.657 59.047 0.943 C 58.659 1.037 58.330 1.070 57.928 0.987 C 57.507 0.900 56.970 0.873 56.612 1.062 C 55.337 1.735 53.816 1.882 52.700 2.889 C 52.592 2.986 52.397 2.981 52.252 3.046 C 51.613 3.333 50.967 3.608 50.342 3.924 C 48.889 4.656 47.684 5.825 46.103 6.337 C 46.021 6.363 45.962 6.461 45.892 6.525 C 45.199 7.149 44.479 7.744 43.821 8.402 C 42.761 9.461 41.773 10.585 40.684 11.622 C 39.345 12.897 38.143 14.329 37.284 16.012 C 36.960 16.648 36.702 17.219 37.111 17.773 C 36.537 19.012 35.969 20.159 35.473 21.335 C 34.975 22.514 34.543 23.721 34.098 24.922 C 34.014 25.147 34.064 25.435 33.949 25.635 C 33.185 26.953 32.848 28.398 32.590 29.877 C 32.437 30.761 32.222 31.636 32.021 32.512 C 31.585 34.414 31.009 36.295 30.737 38.220 C 30.443 40.307 29.854 42.341 29.783 44.475 C 29.722 46.330 29.324 48.170 29.164 50.025 C 29.005 51.876 28.962 53.737 28.856 55.592 C 28.826 56.133 28.724 56.670 28.709 57.211 C 28.684 58.158 28.702 59.105 28.702 60.111 C 27.759 59.765 26.942 59.428 26.102 59.166 C 25.339 58.929 24.559 58.680 23.770 58.604 C 22.205 58.453 20.629 58.413 19.057 58.341 C 18.808 58.329 18.539 58.343 18.308 58.425 C 17.588 58.679 16.879 58.964 16.172 59.252 C 15.713 59.439 15.254 59.633 14.815 59.862 C 14.081 60.244 13.362 60.655 12.638 61.056 C 12.387 61.194 12.100 61.296 11.894 61.484 C 10.545 62.713 9.031 63.804 8.330 65.593 C 8.213 65.889 8.159 66.251 7.954 66.464 C 6.818 67.645 6.415 69.074 6.248 70.664 C 6.161 71.500 5.675 72.288 5.459 73.120 C 5.334 73.599 5.381 74.126 5.361 74.631 C 5.346 75.015 5.440 75.430 5.326 75.779 C 4.844 77.256 5.299 78.838 4.784 80.309 C 4.717 80.500 4.824 80.751 4.847 80.974 C 4.944 81.886 5.044 82.798 5.133 83.710 C 5.231 84.728 5.302 85.749 5.415 86.766 C 5.570 88.161 6.222 89.450 6.289 90.876 C 6.317 91.464 6.588 92.041 6.754 92.622 C 6.883 93.076 7.063 93.520 7.147 93.982 C 7.327 94.976 7.432 95.983 7.624 96.973 C 7.713 97.430 7.981 97.850 8.092 98.305 C 8.394 99.543 8.692 100.776 9.405 101.866 C 9.613 102.182 9.751 102.544 9.913 102.890 C 10.710 104.588 11.226 106.415 12.286 107.992 C 12.460 108.251 12.511 108.588 12.661 108.866 C 13.039 109.567 13.469 110.240 13.828 110.950 C 14.389 112.059 14.907 113.190 15.446 114.310 C 15.556 114.538 15.685 114.757 15.799 114.983 C 16.057 115.490 16.298 116.006 16.570 116.506 C 16.862 117.044 17.277 117.535 17.467 118.104 C 17.869 119.311 18.607 120.324 19.240 121.394 C 19.927 122.553 20.783 123.612 21.444 124.783 C 22.508 126.669 23.801 128.359 25.374 129.843 C 25.467 129.930 25.537 130.042 25.619 130.141 C 25.997 130.599 26.375 131.055 26.705 131.454 C 27.181 131.360 27.516 131.293 27.880 131.221 C 27.908 131.004 27.988 130.806 27.950 130.633 C 27.583 129.001 28.052 127.306 27.533 125.677 C 27.262 124.828 27.056 123.930 27.010 123.045 C 26.904 120.959 26.006 118.984 26.191 116.859 C 26.223 116.488 26.060 116.102 26.017 115.720 C 25.930 114.955 25.815 114.188 25.802 113.421 C 25.790 112.685 25.894 111.947 25.942 111.211 C 26.005 110.250 26.006 109.281 26.138 108.330 C 26.282 107.286 26.559 106.261 26.750 105.223 C 26.931 104.238 27.108 103.217 27.728 102.434 C 28.628 101.297 29.692 100.320 31.271 100.166 C 31.704 100.125 32.247 100.050 32.521 99.774 C 33.139 99.152 33.708 99.331 34.367 99.598 C 36.624 100.513 38.890 101.405 41.276 101.949 C 41.989 102.111 42.695 102.306 43.395 102.516 C 44.028 102.706 44.638 102.978 45.277 103.143 C 46.174 103.374 47.094 103.511 47.989 103.747 C 48.481 103.876 49.147 103.992 49.373 104.344 C 49.759 104.947 50.317 104.876 50.819 105.102 C 51.274 104.341 51.910 104.727 52.463 104.835 C 53.402 105.018 54.320 105.304 55.258 105.496 C 56.069 105.661 56.899 105.733 57.713 105.884 C 59.237 106.167 60.753 106.334 62.381 105.766 C 62.455 107.150 62.526 108.475 62.597 109.806 C 62.554 109.800 62.521 109.798 62.481 109.793 C 62.592 110.103 62.636 110.419 62.597 110.756 C 62.573 110.963 62.455 111.076 62.250 111.102 C 61.943 111.142 61.634 111.148 61.324 111.150 C 60.670 111.416 59.959 111.692 59.258 112.000 C 58.708 112.241 58.112 112.445 57.647 112.807 C 56.847 113.432 56.078 114.117 55.397 114.867 C 54.559 115.790 53.822 116.804 53.050 117.786 C 52.973 117.883 52.939 118.017 52.900 118.140 C 52.454 119.533 51.998 120.924 51.573 122.323 C 51.219 123.487 50.899 124.661 50.571 125.832 C 50.495 126.105 50.408 126.383 50.393 126.661 C 50.341 127.685 50.315 128.712 50.281 129.736 C 50.265 130.247 50.241 130.758 50.244 131.268 C 50.247 131.703 50.318 132.139 50.299 132.572 C 50.266 133.304 50.010 134.072 50.165 134.754 C 50.393 135.755 50.308 136.738 50.362 137.730 C 50.421 138.816 50.407 139.912 50.816 140.953 C 50.967 141.339 51.088 141.742 51.173 142.147 C 51.437 143.401 51.650 144.666 51.941 145.914 C 52.100 146.597 52.394 147.247 52.589 147.923 C 52.777 148.571 52.882 149.243 53.083 149.886 C 53.452 151.071 53.587 152.310 54.064 153.478 C 54.519 154.591 54.710 155.810 55.108 156.950 C 55.475 158.004 55.965 159.016 56.397 160.049 C 56.782 160.966 57.152 161.889 57.545 162.803 C 58.428 164.861 59.576 166.799 60.296 168.932 C 60.572 169.750 60.971 170.526 61.253 171.342 C 61.775 172.851 62.207 174.392 63.086 175.755 C 63.510 176.411 63.774 177.119 63.830 177.920 C 63.864 178.389 63.994 178.894 64.228 179.297 C 64.672 180.059 64.964 180.838 65.031 181.724 C 65.083 182.414 65.222 183.098 65.344 183.780 C 65.441 184.332 66.007 184.733 66.634 184.713 C 67.197 184.696 67.280 184.300 67.314 183.852 C 67.328 183.664 67.384 183.473 67.449 183.293 C 67.815 182.271 68.197 181.254 68.560 180.230 C 69.214 178.382 69.806 176.510 70.522 174.686 C 71.459 172.297 72.508 169.951 73.479 167.574 C 74.753 164.454 76.053 161.342 77.242 158.188 C 78.394 155.131 79.627 152.096 80.260 148.861 C 80.561 147.320 81.097 145.826 81.485 144.299 C 81.722 143.367 81.872 142.414 82.076 141.474 C 82.307 140.407 82.583 139.351 82.790 138.280 C 83.023 137.081 83.209 135.872 83.401 134.665 C 83.531 133.843 83.699 133.019 83.733 132.191 C 83.771 131.228 83.696 130.259 83.644 129.295 C 83.584 128.178 83.555 127.054 83.399 125.948 C 83.265 125.003 83.014 124.066 82.736 123.149 C 82.448 122.201 82.154 121.235 81.700 120.361 C 81.171 119.342 80.427 118.435 79.846 117.438 C 79.064 116.096 77.848 115.193 76.694 114.235 C 75.695 113.406 74.548 112.746 73.598 111.870 C 73.073 111.385 72.606 111.266 71.975 111.369 C 71.838 111.392 71.686 111.317 71.527 111.284 C 71.527 110.695 71.521 110.150 71.529 109.607 C 71.537 109.060 71.551 108.513 71.578 107.967 C 71.610 107.312 72.111 106.732 72.667 106.697 C 73.037 106.673 73.409 106.661 73.780 106.652 C 75.754 106.607 77.725 106.546 79.651 106.026 C 79.882 105.964 80.183 105.992 80.402 106.089 C 80.926 106.319 81.374 106.370 81.794 105.889 C 81.904 105.763 82.118 105.709 82.294 105.663 C 84.008 105.218 85.728 104.794 87.439 104.339 C 88.244 104.124 89.035 103.851 89.833 103.608 C 90.781 103.320 91.769 103.122 92.672 102.728 C 94.231 102.052 95.780 101.330 97.249 100.481 C 98.150 99.962 99.117 99.511 99.829 98.652 C 100.324 98.054 101.059 97.654 101.609 97.226 C 102.269 97.451 102.803 97.678 103.360 97.817 C 105.548 98.361 107.110 99.799 108.361 101.528 C 109.913 103.675 110.936 106.091 111.612 108.676 C 112.029 110.273 112.345 111.817 112.325 113.495 C 112.309 114.933 112.105 116.324 111.815 117.689 C 111.477 119.290 110.731 120.771 109.882 122.188 C 109.679 122.528 109.583 122.960 109.539 123.361 C 109.492 123.787 109.921 124.395 110.341 124.420 C 110.940 124.455 111.637 124.940 112.139 124.255 C 112.418 123.877 112.735 123.418 112.755 122.982 C 112.802 121.937 113.110 120.966 113.330 119.964 C 113.561 118.915 113.848 117.919 114.482 117.033 C 114.722 116.697 114.895 116.302 115.045 115.914 C 115.774 114.028 116.441 112.116 117.217 110.249 C 117.795 108.857 118.547 107.537 119.147 106.153 C 120.056 104.059 120.907 101.941 121.768 99.827 C 122.047 99.143 122.389 98.462 122.515 97.746 C 122.879 95.686 123.703 93.752 124.032 91.672 C 124.402 89.332 125.149 87.061 125.505 84.702 C 125.835 82.509 125.963 80.309 125.906 78.105 Z M 52.472 4.770 C 53.886 4.272 55.187 3.520 56.695 3.211 C 58.544 2.832 60.389 2.474 62.266 2.286 C 62.678 2.245 63.110 2.197 63.509 2.274 C 65.084 2.580 66.672 2.746 68.270 2.868 C 68.669 2.899 69.052 3.132 69.443 3.270 C 71.194 3.885 72.888 4.604 74.355 5.943 C 73.873 6.472 73.273 6.819 72.653 7.098 C 71.129 7.781 69.605 8.424 67.895 8.594 C 66.757 8.706 65.655 9.143 64.527 9.389 C 62.411 9.851 60.278 9.932 58.122 9.655 C 57.476 9.572 56.812 9.523 56.165 9.489 C 54.319 9.392 52.656 8.698 50.960 8.105 C 50.360 7.895 49.795 7.585 49.222 7.304 C 49.091 7.240 48.994 7.105 48.877 6.999 C 49.990 6.058 51.131 5.241 52.472 4.770 Z M 31.624 42.742 C 32.078 39.928 32.598 37.126 33.110 34.322 C 33.196 33.851 33.394 33.401 33.504 32.934 C 33.833 31.530 34.058 30.096 34.481 28.723 C 35.265 26.181 36.066 23.637 37.355 21.288 C 37.955 20.191 38.579 19.107 39.169 18.005 C 39.357 17.653 39.619 17.313 39.430 16.837 C 39.366 16.675 39.471 16.350 39.611 16.220 C 40.363 15.520 40.664 14.504 41.419 13.794 C 42.140 13.116 42.740 12.310 43.396 11.562 C 43.820 11.078 44.221 10.570 44.680 10.123 C 45.388 9.433 46.138 8.786 46.950 8.048 C 47.348 8.250 47.681 8.436 48.026 8.593 C 49.394 9.215 50.726 9.956 52.149 10.408 C 53.635 10.880 55.199 11.240 56.750 11.344 C 59.462 11.526 62.192 11.809 64.904 11.198 C 66.024 10.946 67.181 10.862 68.299 10.605 C 68.911 10.465 69.499 10.213 70.114 10.042 C 71.910 9.543 73.618 8.797 75.248 7.884 C 75.607 7.683 75.982 7.511 76.395 7.302 C 78.695 8.799 80.681 10.697 82.538 12.735 C 83.399 13.679 84.202 14.676 85.033 15.649 C 85.261 15.917 85.520 16.163 85.717 16.452 C 86.140 17.074 86.447 17.733 87.049 18.281 C 87.634 18.814 88.030 19.644 88.285 20.465 C 88.349 20.672 88.441 20.879 88.559 21.061 C 89.165 21.987 89.862 22.865 90.374 23.839 C 90.932 24.898 91.343 26.038 91.780 27.157 C 92.059 27.871 92.278 28.609 92.509 29.340 C 92.779 30.196 93.031 31.057 93.296 31.914 C 93.692 33.199 94.105 34.480 94.485 35.770 C 94.656 36.349 94.776 36.943 94.900 37.535 C 95.275 39.309 95.645 41.085 96.001 42.864 C 96.056 43.140 95.965 43.450 96.043 43.715 C 96.191 44.214 96.641 44.687 96.088 45.196 C 95.704 45.550 95.635 46.184 94.978 46.315 C 94.690 46.373 94.425 46.639 94.190 46.853 C 92.585 48.329 90.785 49.484 88.760 50.312 C 87.813 50.699 86.929 51.240 86.000 51.677 C 85.567 51.881 85.095 52.003 84.640 52.163 C 83.579 52.538 82.534 52.966 81.455 53.277 C 78.982 53.989 76.463 54.494 73.902 54.779 C 72.790 54.902 71.678 55.032 70.564 55.126 C 70.117 55.164 69.662 55.105 69.211 55.110 C 68.638 55.116 68.048 55.061 67.497 55.178 C 66.369 55.417 65.261 55.356 64.132 55.234 C 63.343 55.148 62.528 55.132 61.742 55.226 C 60.767 55.343 59.818 55.263 58.857 55.160 C 57.574 55.022 56.279 54.967 55.006 54.771 C 52.468 54.383 49.949 53.880 47.410 53.510 C 45.615 53.248 43.927 52.635 42.200 52.145 C 41.275 51.883 40.337 51.663 39.407 51.414 C 36.849 50.730 34.535 49.630 32.721 47.622 C 32.348 47.209 31.814 46.940 31.231 46.515 C 31.349 45.344 31.415 44.031 31.624 42.742 Z M 29.041 98.650 C 28.234 99.040 27.584 99.592 26.967 100.293 C 25.913 101.488 25.404 102.813 25.194 104.341 C 24.988 105.836 24.658 107.313 24.463 108.809 C 24.338 109.761 24.133 110.792 24.370 111.680 C 24.721 112.994 24.214 114.236 24.410 115.530 C 24.722 117.585 24.884 119.659 25.261 121.712 C 25.601 123.569 25.744 125.463 25.966 127.341 C 25.984 127.494 25.945 127.653 25.915 128.027 C 25.282 127.339 24.706 126.815 24.254 126.201 C 23.190 124.753 22.156 123.281 21.167 121.781 C 20.638 120.979 20.219 120.103 19.765 119.254 C 18.658 117.188 17.559 115.117 16.457 113.048 C 16.412 112.961 16.354 112.880 16.326 112.788 C 15.578 110.331 14.003 108.277 12.973 105.955 C 12.194 104.198 11.222 102.523 10.510 100.742 C 9.881 99.170 9.448 97.515 9.012 95.874 C 8.492 93.918 8.062 91.939 7.595 89.969 C 6.929 87.163 6.404 84.344 6.414 81.437 C 6.422 79.114 6.385 76.782 6.782 74.498 C 7.090 72.736 7.589 70.986 8.206 69.304 C 8.665 68.053 9.385 66.880 10.105 65.746 C 10.921 64.461 11.987 63.363 13.346 62.639 C 14.846 61.840 16.377 61.093 17.933 60.410 C 18.470 60.174 19.121 60.123 19.720 60.123 C 20.603 60.123 21.486 60.247 22.370 60.314 C 22.529 60.326 22.690 60.330 22.848 60.318 C 23.899 60.233 24.877 60.483 25.833 60.906 C 26.758 61.315 27.703 61.679 28.639 62.062 C 28.598 63.473 28.353 64.726 28.643 65.983 C 28.664 66.073 28.671 66.184 28.637 66.267 C 28.231 67.250 28.610 68.242 28.634 69.222 C 28.673 70.815 28.870 72.404 28.981 73.996 C 29.010 74.405 28.991 74.820 28.960 75.230 C 28.831 76.926 29.256 78.590 29.250 80.279 C 29.248 80.720 29.309 81.129 28.871 81.491 C 28.546 81.760 28.513 82.223 28.907 82.588 C 29.283 82.936 29.412 83.374 29.414 83.892 C 29.417 85.151 29.652 86.378 29.938 87.605 C 30.132 88.440 30.075 89.329 30.239 90.174 C 30.492 91.472 30.603 92.763 30.609 94.090 C 30.614 95.092 30.955 96.092 31.137 97.094 C 31.177 97.311 31.175 97.535 31.193 97.755 C 30.449 98.060 29.726 98.318 29.041 98.650 Z M 32.804 97.627 C 32.636 97.558 32.490 97.283 32.448 97.080 C 32.319 96.454 32.198 95.820 32.161 95.185 C 32.108 94.258 32.148 93.326 32.118 92.399 C 32.102 91.888 32.049 91.376 31.970 90.872 C 31.717 89.269 31.444 87.671 31.158 85.950 C 31.458 85.998 31.645 85.971 31.733 86.051 C 32.878 87.084 34.264 87.707 35.628 88.371 C 36.050 88.576 36.390 88.855 36.416 89.366 C 36.502 91.051 36.611 92.734 36.653 94.419 C 36.679 95.434 36.574 96.452 36.578 97.468 C 36.581 97.988 36.696 98.509 36.775 99.152 C 35.348 98.610 34.067 98.140 32.804 97.627 Z M 49.429 102.595 C 46.522 102.151 43.879 101.387 41.283 100.424 C 40.480 100.126 39.595 100.054 38.748 99.871 C 38.502 99.817 38.263 99.734 37.897 99.629 C 37.991 99.196 38.089 98.806 38.159 98.412 C 38.248 97.912 38.352 97.411 38.383 96.906 C 38.422 96.265 38.428 95.619 38.389 94.978 C 38.302 93.570 38.174 92.164 38.072 90.757 C 38.051 90.475 38.069 90.192 38.069 89.785 C 39.088 90.020 40.009 90.240 40.934 90.443 C 43.256 90.951 45.580 91.455 47.905 91.952 C 48.892 92.164 48.991 92.238 49.055 93.269 C 49.141 94.645 49.174 96.024 49.262 97.399 C 49.349 98.770 49.491 100.137 49.576 101.509 C 49.597 101.843 49.488 102.186 49.429 102.595 Z M 51.448 103.113 C 50.722 99.600 50.990 96.078 50.671 92.450 C 52.635 92.669 54.491 92.873 56.347 93.083 C 58.179 93.291 60.049 93.205 61.955 93.707 C 61.951 97.222 62.168 100.679 62.247 104.202 C 58.555 104.739 55.049 103.961 51.448 103.113 Z M 72.909 113.471 C 73.006 113.443 73.169 113.610 73.288 113.704 C 73.940 114.213 74.588 114.726 75.239 115.238 C 75.264 115.257 75.296 115.269 75.321 115.289 C 77.927 117.374 79.976 119.845 81.034 123.082 C 81.553 124.673 81.910 126.286 82.150 127.931 C 82.194 128.236 82.100 128.558 82.108 128.870 C 82.132 129.818 82.292 130.779 82.186 131.710 C 81.977 133.540 81.650 135.359 81.324 137.174 C 81.029 138.813 80.655 140.438 80.345 142.075 C 80.228 142.695 80.243 143.343 80.102 143.956 C 80.005 144.378 79.736 144.759 79.555 145.163 C 79.373 145.565 79.114 145.959 79.049 146.381 C 78.823 147.840 78.384 149.250 78.098 150.685 C 77.807 152.148 77.260 153.500 76.779 154.882 C 76.254 156.390 75.597 157.853 74.996 159.335 C 74.568 160.393 74.139 161.451 73.710 162.508 C 73.625 162.717 73.512 162.917 73.458 163.132 C 73.117 164.508 72.517 165.767 71.827 167.002 C 71.470 167.639 71.302 168.378 71.023 169.061 C 70.685 169.892 70.312 170.709 69.968 171.539 C 69.515 172.631 69.082 173.732 68.627 174.824 C 68.269 175.679 67.871 176.518 67.531 177.380 C 67.343 177.852 67.270 178.368 67.088 178.843 C 66.971 179.147 66.750 179.410 66.575 179.692 C 66.483 179.670 66.389 179.647 66.297 179.625 C 65.924 178.635 65.550 177.646 65.179 176.655 C 65.033 176.265 64.962 175.827 64.739 175.488 C 63.910 174.233 63.676 172.741 63.051 171.417 C 62.332 169.895 61.910 168.282 61.325 166.720 C 61.046 165.977 60.571 165.309 60.231 164.585 C 59.656 163.366 59.119 162.128 58.564 160.899 C 58.103 159.883 57.598 158.886 57.187 157.850 C 56.749 156.748 56.387 155.615 56.017 154.487 C 55.546 153.052 55.049 151.623 54.656 150.166 C 54.203 148.493 53.845 146.795 53.458 145.105 C 53.042 143.292 52.600 141.484 52.244 139.658 C 52.019 138.500 51.887 137.320 51.794 136.143 C 51.718 135.186 51.727 134.218 51.763 133.259 C 51.813 131.943 51.907 130.629 52.013 129.316 C 52.096 128.294 52.164 127.263 52.350 126.257 C 52.874 123.413 53.500 120.588 54.979 118.052 C 55.347 117.422 55.839 116.845 56.356 116.326 C 57.377 115.301 58.487 114.324 59.848 113.823 C 60.745 113.493 61.652 112.982 62.719 113.111 C 63.212 116.261 63.563 119.411 63.881 122.477 C 63.517 122.763 63.250 122.974 62.983 123.184 C 62.882 123.263 62.794 123.384 62.680 123.415 C 61.373 123.772 60.864 124.819 60.452 125.950 C 60.365 126.192 60.368 126.486 60.229 126.685 C 59.470 127.768 59.672 128.972 59.711 130.168 C 59.744 131.185 59.717 132.204 59.722 133.222 C 59.723 133.447 59.700 133.686 59.765 133.894 C 60.223 135.368 60.326 136.902 60.572 138.412 C 60.638 138.822 60.752 139.234 60.910 139.618 C 61.385 140.769 61.726 141.952 62.009 143.167 C 62.566 145.557 63.410 147.870 64.054 150.238 C 64.354 151.342 64.778 152.377 65.216 153.425 C 65.432 153.945 65.311 154.603 65.355 155.198 C 65.377 155.484 65.400 155.777 65.474 156.052 C 65.646 156.692 66.133 156.944 66.776 157.010 C 67.173 156.642 67.289 156.174 67.270 155.632 C 67.257 155.283 67.290 154.920 67.375 154.582 C 67.894 152.509 68.210 150.389 69.193 148.436 C 69.646 147.535 69.748 146.462 70.041 145.477 C 70.479 144.003 71.038 142.577 71.650 141.162 C 72.102 140.115 72.245 138.936 72.525 137.815 C 72.587 137.566 72.597 137.292 72.710 137.069 C 73.257 135.999 73.248 134.840 73.327 133.686 C 73.388 132.802 73.640 131.926 73.643 131.045 C 73.651 129.156 73.595 127.260 72.496 125.591 C 72.151 125.067 72.149 124.363 71.637 123.925 C 71.229 123.575 70.858 123.144 70.388 122.915 C 69.851 122.654 69.848 122.298 69.874 121.819 C 69.953 120.400 70.230 119.020 70.547 117.639 C 70.761 116.704 70.822 115.735 70.949 114.781 C 71.034 114.149 71.114 113.516 71.210 112.778 C 71.748 113.206 72.200 113.673 72.909 113.471 Z M 64.267 125.093 C 64.418 125.844 64.555 126.596 64.724 127.341 C 64.945 128.323 65.201 129.297 65.426 130.278 C 65.611 131.088 65.822 131.898 65.922 132.720 C 65.975 133.154 66.143 133.446 66.458 133.691 C 67.135 134.220 67.688 134.045 67.867 133.215 C 68.036 132.434 68.128 131.636 68.285 130.853 C 68.686 128.871 69.103 126.894 69.517 124.916 C 69.536 124.828 69.595 124.749 69.659 124.616 C 70.327 125.528 71.121 126.270 71.513 127.349 C 72.047 128.814 72.341 130.259 71.998 131.810 C 71.882 132.336 71.989 132.909 71.881 133.438 C 71.637 134.630 71.325 135.808 71.035 136.991 C 70.695 138.381 70.351 139.770 70.001 141.157 C 69.963 141.309 69.878 141.450 69.814 141.596 C 69.427 142.472 68.990 143.331 68.666 144.230 C 68.453 144.824 68.411 145.479 68.275 146.102 C 68.134 146.755 68.152 147.548 67.775 148.020 C 67.225 148.708 67.079 149.516 66.720 150.251 C 66.533 150.634 66.458 151.071 66.170 151.467 C 65.698 149.954 65.228 148.441 64.753 146.929 C 64.639 146.565 64.549 146.187 64.384 145.845 C 63.860 144.765 63.709 143.585 63.400 142.445 C 63.066 141.214 62.589 140.019 62.297 138.779 C 61.954 137.316 61.709 135.825 61.482 134.337 C 61.328 133.326 61.235 132.302 61.195 131.281 C 61.162 130.451 61.221 129.614 61.291 128.785 C 61.375 127.798 61.561 126.833 62.088 125.960 C 62.571 125.159 63.129 124.889 64.267 125.093 Z M 71.844 90.780 C 71.748 91.926 71.548 93.063 71.429 94.209 C 71.336 95.089 71.303 95.975 71.236 96.858 C 71.113 98.447 71.111 100.059 70.820 101.618 C 70.573 102.946 70.582 104.274 70.441 105.597 C 70.324 106.697 70.083 107.783 69.920 108.879 C 69.864 109.254 69.893 109.641 69.853 110.019 C 69.731 111.187 69.682 112.373 69.441 113.517 C 69.086 115.202 69.122 116.939 68.620 118.608 C 68.339 119.545 68.321 120.564 68.199 121.547 C 68.088 122.435 68.033 123.332 67.887 124.215 C 67.794 124.779 67.556 125.319 67.430 125.880 C 67.346 126.250 67.340 126.638 67.306 127.018 C 67.262 127.512 67.269 128.023 66.801 128.564 C 66.379 126.604 65.928 124.817 65.623 123.006 C 65.289 121.020 65.088 119.011 64.833 117.011 C 64.655 115.613 64.430 114.218 64.320 112.814 C 64.158 110.764 64.070 108.708 63.969 106.653 C 63.839 104.021 63.720 101.388 63.611 98.755 C 63.503 96.132 63.446 93.506 63.303 90.885 C 63.234 89.609 62.967 88.344 62.880 87.069 C 62.659 83.838 62.541 80.605 62.536 77.363 C 62.533 75.231 62.946 73.159 63.132 71.059 C 63.213 70.149 63.556 69.242 63.898 68.381 C 64.465 66.951 65.683 66.245 67.082 65.802 C 67.356 65.715 67.640 65.664 67.885 65.604 C 69.073 66.111 70.084 66.771 70.843 67.842 C 71.572 68.870 71.999 69.962 72.116 71.196 C 72.141 71.451 72.116 71.742 72.230 71.952 C 73.097 73.535 72.816 75.263 72.899 76.944 C 72.930 77.549 72.913 78.156 72.908 78.762 C 72.900 79.766 72.889 80.770 72.869 81.773 C 72.864 82.060 72.845 82.350 72.798 82.632 C 72.534 84.232 72.207 85.825 72.006 87.433 C 71.867 88.538 71.938 89.668 71.844 90.780 Z M 79.867 104.387 C 79.504 104.501 79.109 104.523 78.727 104.572 C 77.710 104.703 76.694 104.854 75.673 104.943 C 75.266 104.979 74.848 104.866 74.434 104.833 C 73.840 104.787 73.246 104.753 72.645 104.779 C 72.176 104.651 72.082 104.289 72.133 103.826 C 72.346 101.819 72.556 99.812 72.746 97.803 C 72.842 96.793 72.872 95.777 72.970 94.767 C 73.021 94.228 73.153 93.697 73.259 93.099 C 75.263 92.836 77.222 92.578 79.176 92.322 C 79.492 92.927 79.589 93.486 79.580 94.124 C 79.568 95.107 79.728 96.093 79.819 97.078 C 79.922 98.189 80.060 99.299 80.126 100.414 C 80.195 101.581 80.211 102.753 80.212 103.923 C 80.212 104.085 80.021 104.339 79.867 104.387 Z M 79.197 90.669 C 77.385 90.896 75.569 91.092 73.754 91.291 C 73.637 91.303 73.510 91.227 73.316 91.170 C 73.316 90.827 73.291 90.476 73.320 90.129 C 73.502 87.957 73.581 85.769 73.913 83.619 C 74.369 80.670 74.330 77.726 74.196 74.770 C 74.156 73.904 74.102 73.039 74.048 72.175 C 74.019 71.704 73.966 71.280 73.661 70.841 C 73.393 70.454 73.437 69.856 73.317 69.359 C 72.719 66.884 71.348 65.080 68.857 64.239 C 68.576 64.145 68.330 63.950 67.943 63.729 C 67.805 63.760 67.503 63.848 67.195 63.897 C 64.852 64.268 63.252 65.506 62.533 67.810 C 62.211 68.844 61.726 69.826 61.591 70.920 C 61.529 71.423 61.398 71.918 61.324 72.419 C 61.211 73.179 61.058 73.940 61.033 74.703 C 60.981 76.271 60.961 77.842 61.003 79.410 C 61.079 82.275 61.187 85.140 61.331 88.003 C 61.374 88.858 61.594 89.703 61.709 90.557 C 61.765 90.968 61.765 91.386 61.792 91.855 C 61.504 91.915 61.208 92.079 61.029 91.995 C 60.190 91.607 59.323 91.802 58.465 91.764 C 57.604 91.726 56.749 91.585 55.890 91.490 C 54.879 91.377 53.866 91.281 52.858 91.146 C 52.190 91.057 51.533 90.901 50.867 90.795 C 49.667 90.603 48.463 90.427 47.261 90.243 C 47.071 90.214 46.882 90.182 46.693 90.148 C 45.431 89.915 44.170 89.680 42.908 89.446 C 42.751 89.417 42.584 89.409 42.438 89.350 C 40.774 88.686 39.120 87.994 37.447 87.352 C 36.115 86.840 34.928 86.099 33.827 85.215 C 33.104 84.634 32.365 84.052 31.747 83.367 C 31.384 82.965 31.108 82.379 31.034 81.844 C 30.819 80.284 30.685 78.709 30.595 77.136 C 30.454 74.709 30.385 72.279 30.267 69.850 C 30.217 68.801 30.040 67.753 30.063 66.707 C 30.123 64.112 30.271 61.519 30.369 58.925 C 30.389 58.412 30.311 57.894 30.337 57.381 C 30.457 55.038 30.589 52.696 30.737 50.356 C 30.769 49.849 30.884 49.348 30.975 48.756 C 31.801 49.470 32.393 50.241 33.338 50.596 C 33.718 50.738 34.025 51.061 34.393 51.252 C 36.330 52.256 38.375 52.927 40.537 53.278 C 41.286 53.400 42.042 53.644 42.724 53.976 C 43.882 54.538 45.127 54.682 46.358 54.904 C 48.536 55.295 50.718 55.669 52.903 56.024 C 54.545 56.290 56.187 56.622 57.842 56.734 C 61.148 56.958 64.460 56.926 67.772 56.718 C 68.882 56.648 69.998 56.709 71.111 56.672 C 71.655 56.654 72.197 56.549 72.739 56.481 C 73.280 56.414 73.820 56.339 74.361 56.275 C 74.833 56.220 75.314 56.212 75.778 56.120 C 77.311 55.817 78.832 55.448 80.369 55.174 C 82.297 54.831 84.104 54.101 85.942 53.489 C 87.329 53.027 88.671 52.386 89.882 51.528 C 89.984 51.455 90.116 51.419 90.238 51.382 C 91.877 50.881 93.275 49.964 94.603 48.908 C 95.064 48.541 95.627 48.304 96.137 47.996 C 96.272 47.916 96.384 47.797 96.584 47.631 C 96.952 48.741 97.302 49.800 97.220 50.973 C 97.184 51.470 97.327 51.978 97.374 52.483 C 97.513 53.980 97.632 55.480 97.784 56.975 C 97.879 57.902 98.027 58.823 98.138 59.749 C 98.191 60.186 98.286 60.636 98.237 61.066 C 98.071 62.525 98.303 63.948 98.516 65.380 C 98.605 65.979 98.605 66.590 98.669 67.194 C 98.869 69.069 99.101 70.941 99.277 72.818 C 99.361 73.714 99.340 74.620 99.376 75.521 C 99.419 76.613 99.450 77.707 99.530 78.797 C 99.585 79.533 99.727 80.262 99.806 80.996 C 99.875 81.630 99.910 82.266 99.965 82.981 C 99.262 82.951 98.798 83.217 98.378 83.657 C 97.324 84.760 96.053 85.573 94.697 86.261 C 94.096 86.566 93.529 86.944 92.913 87.212 C 91.531 87.813 90.132 88.377 88.732 88.934 C 87.991 89.229 87.250 89.591 86.476 89.718 C 85.364 89.900 84.240 90.047 83.108 90.130 C 81.797 90.224 80.503 90.506 79.197 90.669 Z M 91.295 101.641 C 88.303 102.604 85.245 103.327 82.119 104.018 C 82.090 99.965 81.157 96.128 81.202 92.131 C 82.843 91.871 84.448 91.580 86.065 91.374 C 87.677 91.170 89.111 90.417 90.729 89.863 C 91.078 93.855 91.521 97.710 91.295 101.641 Z M 100.816 95.281 C 99.727 96.318 98.903 97.669 97.471 98.443 C 96.128 99.169 94.904 100.114 93.341 100.604 C 93.287 100.270 93.209 99.940 93.183 99.605 C 92.945 96.534 92.692 93.465 92.495 90.391 C 92.422 89.230 92.502 89.260 93.581 88.785 C 94.904 88.202 96.128 87.441 97.291 86.579 C 98.207 85.900 99.146 85.249 100.310 84.417 C 100.346 85.371 100.378 86.093 100.398 86.814 C 100.414 87.386 100.402 87.959 100.426 88.531 C 100.477 89.748 100.545 90.965 100.606 92.182 C 100.613 92.343 100.561 92.530 100.625 92.661 C 101.042 93.505 100.988 94.384 100.816 95.281 Z M 124.037 82.359 C 123.806 84.076 123.401 85.763 123.176 87.466 C 122.926 89.365 122.228 91.145 122.002 93.039 C 121.892 93.949 121.466 94.816 121.270 95.720 C 120.976 97.071 120.432 98.321 119.958 99.608 C 119.216 101.625 118.247 103.529 117.384 105.485 C 116.819 106.765 116.317 108.072 115.774 109.364 C 115.297 110.498 114.804 111.626 114.318 112.757 C 114.253 112.746 114.187 112.735 114.121 112.724 C 114.086 112.493 114.029 112.263 114.020 112.032 C 113.966 110.634 113.546 109.325 113.073 108.027 C 112.535 106.552 111.974 105.085 111.455 103.602 C 110.599 101.159 109.084 99.197 107.021 97.678 C 105.967 96.901 104.732 96.405 103.467 96.043 C 103.054 95.925 102.726 95.756 102.647 95.341 C 102.427 94.177 102.228 93.007 102.064 91.833 C 102.017 91.496 102.159 91.137 102.148 90.789 C 102.066 88.414 102.030 86.035 101.854 83.666 C 101.720 81.875 101.347 80.103 101.177 78.312 C 101.008 76.524 100.991 74.720 100.845 72.928 C 100.741 71.654 100.503 70.391 100.378 69.118 C 100.249 67.809 100.191 66.495 100.090 65.183 C 100.024 64.324 99.933 63.466 99.845 62.514 C 101.028 61.956 102.059 61.339 103.175 60.981 C 104.167 60.663 105.249 60.529 106.297 60.499 C 107.481 60.464 108.670 60.692 109.859 60.702 C 111.368 60.714 112.759 61.246 114.194 61.565 C 115.226 61.795 116.146 62.347 117.095 62.831 C 118.300 63.442 119.159 64.443 120.259 65.150 C 120.413 65.250 120.555 65.404 120.644 65.566 C 121.315 66.787 122.002 68.000 122.617 69.248 C 122.911 69.843 123.109 70.498 123.259 71.147 C 123.512 72.239 123.742 73.340 123.894 74.450 C 124.254 77.077 124.394 79.706 124.037 82.359 Z " transform="matrix(1, 0, 0, 1, 8, 2)"/>
          <path id="Shape" fill="#30419A" stroke="none" stroke-width="1" d="M 31.056 165.661 C 30.016 166.591 28.756 166.470 27.569 166.174 C 26.261 165.849 24.975 165.375 23.744 164.822 C 21.658 163.887 20.510 161.280 21.055 159.058 C 21.631 156.705 22.790 154.692 24.530 153.018 C 25.390 152.192 26.297 151.413 27.206 150.639 C 29.445 148.733 31.559 146.755 33.088 144.167 C 34.439 141.880 35.604 139.530 36.595 137.075 C 37.148 135.702 37.724 134.323 38.455 133.041 C 39.278 131.598 39.932 130.075 40.747 128.632 C 40.966 128.246 41.098 127.809 41.276 127.398 C 41.352 127.222 41.419 127.034 41.534 126.885 C 41.762 126.589 42.049 126.387 42.453 126.540 C 42.828 126.682 43.045 126.972 43.006 127.360 C 42.868 128.762 42.701 130.160 42.541 131.560 C 42.446 132.389 42.287 133.215 42.259 134.046 C 42.212 135.464 42.308 136.888 42.231 138.304 C 42.125 140.247 42.975 141.945 43.495 143.728 C 43.579 144.014 43.864 144.248 44.074 144.490 C 45.055 145.618 45.962 146.798 46.349 148.271 C 46.536 148.980 46.670 149.721 46.689 150.452 C 46.718 151.544 46.655 152.642 46.578 153.733 C 46.478 155.149 45.839 156.189 44.390 156.539 C 44.378 156.647 44.341 156.732 44.367 156.761 C 45.347 157.821 45.704 159.082 45.638 160.500 C 45.605 161.208 45.634 161.919 45.629 162.629 C 45.608 165.302 44.252 167.196 42.086 168.589 C 41.330 169.076 40.444 169.196 39.567 169.143 C 37.479 169.017 35.476 168.513 33.654 167.472 C 32.766 166.965 31.967 166.303 31.056 165.661 Z M 40.691 133.254 C 40.214 134.081 39.857 134.711 39.490 135.335 C 38.148 137.612 36.763 139.865 35.471 142.170 C 34.198 144.444 33.184 146.877 31.420 148.845 C 30.584 149.777 29.678 150.652 28.752 151.494 C 27.728 152.426 26.597 153.242 25.597 154.197 C 24.272 155.462 23.345 156.979 22.777 158.753 C 22.320 160.176 22.395 161.425 23.414 162.534 C 23.775 162.926 24.209 163.314 24.689 163.523 C 25.661 163.949 26.681 164.270 27.693 164.596 C 28.055 164.712 28.452 164.752 28.835 164.761 C 29.959 164.789 30.703 164.095 30.802 162.963 C 30.824 162.707 30.799 162.443 30.851 162.194 C 30.938 161.788 31.337 161.480 31.690 161.540 C 32.074 161.604 32.349 161.829 32.390 162.234 C 32.425 162.586 32.464 162.951 32.406 163.295 C 32.224 164.373 32.728 165.078 33.584 165.618 C 33.775 165.738 33.962 165.865 34.160 165.974 C 35.503 166.705 36.915 167.275 38.438 167.435 C 39.289 167.523 40.274 167.636 41.004 167.308 C 42.671 166.558 43.791 165.191 43.987 163.309 C 44.113 162.097 44.053 160.860 44.018 159.636 C 43.994 158.822 43.625 158.146 42.925 157.688 C 42.466 157.389 42.011 157.078 41.526 156.829 C 41.119 156.620 40.787 156.393 40.879 155.886 C 40.973 155.366 41.371 155.286 41.828 155.260 C 42.472 155.224 43.118 155.174 43.753 155.066 C 44.583 154.924 44.906 154.637 44.968 153.797 C 45.067 152.451 45.169 151.087 45.054 149.749 C 44.982 148.916 44.597 148.072 44.194 147.318 C 43.819 146.618 43.224 146.038 42.746 145.390 C 42.461 145.003 42.115 144.622 41.968 144.181 C 41.260 142.045 40.471 139.931 40.671 137.595 C 40.787 136.234 40.691 134.851 40.691 133.254 Z " transform="matrix(1, 0, 0, 1, 8, 2)"/>
          <path id="Shape" fill="#30419A" stroke="none" stroke-width="1" d="M 116.066 139.118 C 116.170 140.111 116.287 141.159 116.385 142.209 C 116.483 143.262 115.919 144.130 115.535 145.042 C 115.468 145.204 115.205 145.314 115.009 145.388 C 114.650 145.526 114.235 145.551 113.914 145.741 C 112.867 146.360 111.664 146.586 110.554 146.473 C 108.908 146.305 107.066 146.497 105.773 144.874 C 105.548 145.265 105.364 145.553 105.211 145.856 C 104.737 146.795 104.021 147.434 103.004 147.759 C 101.439 148.259 99.901 148.815 98.233 148.951 C 96.261 149.114 94.882 148.368 93.698 146.783 C 92.330 144.950 92.031 142.915 91.981 140.766 C 91.951 139.509 91.909 138.246 91.993 136.994 C 92.044 136.206 92.243 135.406 92.509 134.658 C 92.876 133.628 93.349 132.634 93.814 131.642 C 94.538 130.093 94.578 128.455 94.422 126.814 C 94.315 125.695 94.055 124.590 93.833 123.485 C 93.757 123.110 93.620 122.739 93.455 122.392 C 92.480 120.330 91.489 118.273 90.500 116.217 C 90.334 115.871 90.286 115.528 90.553 115.223 C 90.853 114.879 91.250 114.902 91.622 115.067 C 92.208 115.329 92.777 115.629 93.351 115.916 C 93.408 115.944 93.465 115.984 93.503 116.033 C 95.151 118.132 97.197 119.874 98.849 121.968 C 99.860 123.248 101.113 124.252 102.429 125.194 C 102.742 125.417 103.064 125.655 103.303 125.950 C 104.225 127.085 105.425 127.553 106.859 127.584 C 108.602 127.622 110.349 127.645 112.085 127.787 C 114.589 127.990 116.753 128.919 118.376 130.941 C 118.997 131.716 119.269 132.571 119.305 133.524 C 119.331 134.233 119.294 134.944 119.317 135.653 C 119.339 136.341 119.095 136.916 118.636 137.407 C 118.327 137.736 118.032 138.102 117.660 138.343 C 117.192 138.646 116.653 138.840 116.066 139.118 Z M 115.010 136.810 C 115.282 137.423 115.820 137.375 116.330 137.283 C 116.896 137.181 117.746 136.109 117.768 135.498 C 117.789 134.887 117.787 134.272 117.755 133.660 C 117.716 132.900 117.455 132.234 116.921 131.653 C 115.479 130.086 113.644 129.419 111.581 129.301 C 109.906 129.206 108.227 129.187 106.550 129.132 C 104.816 129.076 103.357 128.438 102.219 127.108 C 102.053 126.914 101.872 126.718 101.660 126.578 C 99.980 125.459 98.526 124.107 97.263 122.529 C 96.518 121.599 95.674 120.746 94.839 119.893 C 94.424 119.467 93.927 119.121 93.538 118.797 C 93.542 118.810 93.578 118.956 93.635 119.094 C 93.868 119.660 94.175 120.204 94.330 120.790 C 94.805 122.590 95.251 124.395 95.762 126.187 C 96.328 128.171 96.222 130.271 95.280 132.229 C 94.792 133.246 94.336 134.282 93.928 135.333 C 93.733 135.834 93.602 136.388 93.584 136.923 C 93.539 138.276 93.573 139.632 93.575 140.989 C 93.577 142.869 93.935 144.614 95.190 146.129 C 95.857 146.934 96.552 147.411 97.640 147.404 C 99.163 147.395 100.538 146.838 101.972 146.471 C 103.229 146.150 103.886 145.332 104.217 144.184 C 104.375 143.634 104.414 143.048 104.492 142.475 C 104.523 142.252 104.498 142.023 104.527 141.800 C 104.585 141.355 104.846 141.090 105.301 141.092 C 105.751 141.094 106.012 141.366 106.089 141.799 C 106.124 141.987 106.097 142.186 106.124 142.377 C 106.282 143.462 107.485 144.625 108.565 144.659 C 109.889 144.701 111.226 144.777 112.540 144.653 C 114.008 144.514 114.442 144.114 114.449 142.652 C 114.452 142.071 114.418 141.488 114.458 140.910 C 114.514 140.114 114.345 139.512 113.590 139.044 C 112.792 138.549 112.915 137.873 113.777 137.439 C 114.151 137.252 114.521 137.060 115.010 136.810 Z " transform="matrix(1, 0, 0, 1, 8, 2)"/>
          <path id="Shape" fill="#30419A" stroke="none" stroke-width="1" d="M 2.775 174.508 C 4.835 174.508 6.073 176.437 5.305 178.214 C 5.192 178.477 5.078 178.742 4.943 178.994 C 4.603 179.631 4.121 180.051 3.342 180.030 C 2.701 180.013 2.065 180.067 1.507 179.615 C 0.535 178.828 0.168 177.395 0.663 176.128 C 0.686 176.069 0.722 176.013 0.742 175.952 C 1.099 174.911 1.753 174.320 2.775 174.508 Z M 2.476 176.182 C 2.070 176.926 1.932 177.684 2.165 178.016 C 2.470 178.452 2.903 178.445 3.344 178.321 C 3.785 177.631 4.097 176.957 3.424 176.182 C 3.132 176.182 2.793 176.182 2.476 176.182 Z " transform="matrix(1, 0, 0, 1, 8, 2)"/>
          <path id="Shape" fill="#30419A" stroke="none" stroke-width="1" d="M 36.733 54.840 C 36.671 55.572 36.025 55.741 35.525 55.849 C 35.236 55.911 34.801 55.540 34.509 55.277 C 34.218 55.014 34.218 54.328 34.414 54.040 C 34.604 53.759 35.126 53.757 35.617 53.901 C 36.151 54.057 36.484 54.382 36.733 54.840 Z " transform="matrix(1, 0, 0, 1, 8, 2)"/>
          <path id="Shape" fill="#30419A" stroke="none" stroke-width="1" d="M 54.211 58.514 C 54.437 59.571 54.328 60.015 53.810 60.247 C 53.293 60.477 52.636 60.402 52.393 60.084 C 52.115 59.720 52.142 58.991 52.450 58.570 C 52.790 58.106 53.234 58.086 54.211 58.514 Z " transform="matrix(1, 0, 0, 1, 8, 2)"/>
          <path id="Shape" fill="#30419A" stroke="none" stroke-width="1" d="M 76.537 59.738 C 76.775 59.202 76.991 58.719 77.227 58.187 C 77.922 58.467 78.698 58.417 78.863 59.281 C 78.944 59.707 78.562 60.308 78.070 60.498 C 77.368 60.768 77.035 60.208 76.537 59.738 Z " transform="matrix(1, 0, 0, 1, 8, 2)"/>
          <path id="Shape" fill="#30419A" stroke="none" stroke-width="1" d="M 94.852 53.857 C 94.768 54.115 94.690 54.322 94.634 54.535 C 94.523 54.961 94.396 55.307 93.818 55.249 C 93.070 55.173 92.817 55.041 92.636 54.504 C 92.513 54.140 92.455 53.740 92.833 53.570 C 93.211 53.401 93.668 53.333 94.084 53.353 C 94.320 53.365 94.543 53.643 94.852 53.857 Z " transform="matrix(1, 0, 0, 1, 8, 2)"/>
          <path id="Shape" fill="#30419A" stroke="none" stroke-width="1" d="M 63.990 17.908 C 65.594 18.158 67.154 18.253 68.624 18.668 C 70.462 19.186 72.247 19.878 73.804 21.096 C 74.891 21.947 75.967 22.801 76.973 23.744 C 77.589 24.322 77.986 25.030 78.392 25.775 C 79.185 27.234 79.665 28.768 80.029 30.368 C 80.212 31.166 80.237 31.936 80.168 32.748 C 80.084 33.738 80.173 34.740 80.162 35.737 C 80.144 37.475 79.694 39.140 78.874 40.636 C 78.052 42.133 76.821 43.332 75.292 44.171 C 74.412 44.654 73.556 45.195 72.638 45.587 C 71.648 46.008 70.647 46.410 69.522 46.460 C 68.438 46.507 67.362 46.737 66.283 46.885 C 66.124 46.907 65.953 46.965 65.807 46.930 C 64.084 46.506 62.223 46.373 60.759 45.312 C 59.709 44.551 58.458 44.164 57.478 43.340 C 56.254 42.311 55.029 41.276 54.175 39.882 C 53.693 39.094 53.180 38.315 52.599 37.599 C 51.701 36.493 51.399 35.149 50.947 33.860 C 50.927 33.803 50.927 33.730 50.942 33.671 C 51.253 32.433 50.846 31.179 51.011 29.948 C 51.160 28.844 51.413 27.751 51.676 26.666 C 51.925 25.641 52.292 24.643 52.517 23.614 C 52.638 23.063 52.863 22.631 53.222 22.210 C 53.594 21.774 53.824 21.212 54.216 20.799 C 55.036 19.939 55.984 19.127 57.166 18.965 C 58.028 18.847 58.834 18.555 59.684 18.444 C 61.141 18.253 62.599 18.081 63.990 17.908 Z M 78.510 33.864 C 78.692 31.916 78.263 30.038 77.692 28.240 C 77.299 26.997 76.723 25.727 75.596 24.876 C 75.392 24.722 75.122 24.642 74.948 24.464 C 73.961 23.457 72.886 22.578 71.580 22.004 C 70.708 21.621 69.900 21.118 68.912 20.984 C 67.842 20.840 66.795 20.531 65.732 20.322 C 65.263 20.229 64.775 20.133 64.303 20.160 C 62.456 20.268 60.640 20.737 58.772 20.625 C 58.660 20.618 58.540 20.710 58.426 20.761 C 58.106 20.902 57.793 21.060 57.468 21.187 C 55.809 21.833 54.507 22.816 54.095 24.667 C 54.033 24.946 53.917 25.212 53.847 25.490 C 53.592 26.507 53.368 27.532 53.090 28.543 C 52.819 29.534 52.794 30.551 52.660 31.557 C 52.516 32.641 52.557 33.678 52.983 34.654 C 53.494 35.826 54.057 36.987 54.730 38.071 C 55.211 38.845 55.849 39.553 56.531 40.164 C 57.334 40.884 58.246 41.486 59.133 42.108 C 60.525 43.083 61.930 44.041 63.693 44.238 C 63.909 44.262 64.107 44.417 64.324 44.474 C 64.624 44.554 64.934 44.652 65.239 44.646 C 65.841 44.633 66.450 44.469 67.043 44.520 C 68.732 44.665 70.267 44.133 71.744 43.460 C 72.838 42.962 73.882 42.330 74.881 41.659 C 75.809 41.035 76.927 40.543 77.194 39.263 C 77.199 39.236 77.237 39.217 77.258 39.192 C 77.811 38.570 78.061 37.833 78.139 37.012 C 78.239 35.960 78.384 34.913 78.510 33.864 Z " transform="matrix(1, 0, 0, 1, 8, 2)"/>
          <path id="Shape" fill="#30419A" stroke="none" stroke-width="1" d="M 67.030 41.065 C 65.490 40.969 64.274 40.881 63.161 40.287 C 63.020 40.212 62.867 40.133 62.711 40.113 C 61.575 39.965 60.587 39.343 59.898 38.589 C 58.895 37.491 57.606 36.613 57.188 34.962 C 56.747 33.221 56.583 31.558 56.885 29.784 C 57.130 28.342 57.559 27.005 58.257 25.733 C 58.624 25.064 59.091 24.543 59.852 24.311 C 60.155 24.219 60.421 24.013 60.711 23.875 C 60.941 23.764 61.185 23.585 61.417 23.594 C 62.183 23.626 62.863 23.332 63.570 23.130 C 63.782 23.069 64.006 23.024 64.226 23.012 C 66.118 22.906 67.834 23.460 69.422 24.446 C 70.075 24.851 70.693 25.310 71.329 25.744 C 72.592 26.605 73.385 27.842 74.046 29.174 C 74.739 30.571 75.187 32.046 75.191 33.614 C 75.195 35.270 74.709 36.769 73.576 38.021 C 73.300 38.326 73.041 38.646 72.757 38.943 C 71.981 39.755 71.075 40.317 69.919 40.423 C 69.570 40.456 69.230 40.583 68.884 40.660 C 68.171 40.817 67.457 40.971 67.030 41.065 Z M 73.487 33.678 C 73.411 32.856 73.471 32.082 73.243 31.405 C 72.982 30.633 72.506 29.921 72.048 29.234 C 71.662 28.653 71.233 28.066 70.703 27.625 C 70.070 27.100 69.333 26.685 68.602 26.295 C 67.348 25.627 66.039 25.114 64.567 25.311 C 63.964 25.392 63.329 25.388 62.770 25.589 C 62.405 25.719 62.081 25.849 61.682 25.865 C 61.015 25.890 60.471 26.210 60.016 26.711 C 59.083 27.736 58.640 28.967 58.403 30.302 C 58.163 31.653 58.295 32.969 58.773 34.243 C 59.449 36.041 60.827 37.191 62.516 37.949 C 63.436 38.362 64.452 38.564 65.428 38.848 C 65.542 38.881 65.684 38.806 65.807 38.822 C 66.653 38.937 67.433 38.659 68.245 38.494 C 69.641 38.209 70.910 37.813 71.999 36.785 C 72.961 35.876 73.361 34.824 73.487 33.678 Z " transform="matrix(1, 0, 0, 1, 8, 2)"/>
        </g>
      </g>
    </g>
  </g>
</svg>