<svg width="152px" height="150px" viewBox="0 0 152 150" version="1.1" xml:space="preserve" xmlns="http://www.w3.org/2000/svg" xmlns:xlink="http://www.w3.org/1999/xlink">
  <!-- Generator: Sketch 48.2 (47327) - http://www.bohemiancoding.com/sketch -->
  <defs/>
  <g>
    <title>sam-a</title>
    <desc>Created with Sketch.</desc>
    <g id="soccer" stroke="none" stroke-width="1" fill="none" fill-rule="evenodd">
      <g id="sam-a" fill-rule="nonzero">
        <g id="scratch_footie_player_boy01" transform="translate(17.000000, 6.000000)">
          <path d="M34.085,98.27 C33.16,103.405 31.625,110.6 31.455,111.425 L43.315,111.775 C44.065,110.54 48.51,101.555 50.28,98.275 L34.085,98.27 Z" id="Shape" fill="#824600"/>
          <path d="M48.95,104.145 C48.95,104.145 58.2,86.685 58.45,84.065 L35.9,84.65 C34.84,86.815 34.71,89.845 34.13,92.18 C33.1057283,96.1620794 31.8434604,100.079117 30.35,103.91 L48.95,104.145 Z" id="Shape" fill="#000000"/>
          <path d="M44.905,110.1 C40.33,110.15 35.75,110.1 31.175,110.265 C28.88,118.64 25.745,127.115 23.935,135.55 L24.27,136.2 C24.08,136.605 23.13,137.935 23.735,138.51 L24.28,138.555 C24.53,137.6 24.72,136.625 25.55,135.97 C26.23,136.06 26.935,135.79 27.67,136.13 L26.91,138.295 L27.675,138.58 C28.415,136.83 28.36,136.08 30.49,136.08 L29.81,137.695 C30.615,139.17 31.07,136.28 31.42,136.02 C32.16,136.18 33.03,135.56 33.73,136.02 C33.5268397,136.875348 33.2508321,137.711734 32.905,138.52 L33.82,138.695 C33.98,137.595 34.105,136.58 34.78,135.64 C35.6,135.775 36.54,136.24 37.145,135.5 L36.69,134.875 C34.515,135.005 31.875,134.725 29.8,135.295 C30.115,133.915 31.51,132.385 32.24,131.22 C33.8533333,128.633333 35.46,126.043333 37.06,123.45 C39.52,119.45 42.25,115.565 44.195,111.3 C44.472399,110.949892 44.6964904,110.560681 44.86,110.145 L44.905,110.1 Z" id="Shape" fill="#000000"/>
          <polygon id="Shape" fill="#BE0A3C" points="34.175 123.44 26.1 123.22 27.285 118.995 34.545 119.145"/>
          <path d="M37.965,115.085 C44.785,116.365 39.22,130.22 33.5,130.62 C26.105,131.12 31.81,115.12 37.955,115.12 L37.965,115.085 Z" id="Shape" fill="#F01446"/>
          <path d="M75.375,82.455 C73.96,82.035 63.21,81.545 63.21,81.545 L63.44,94.235 C65.885,94.935 72.835,93.965 75.125,93.13 C75.475,91.1 75.35,84.165 75.375,82.455 Z" id="Shape" fill="#A0640A"/>
          <path d="M100.365,83.645 L100.365,83.09 L99.82,82.805 C99.185,82.98 98.61,83.27 97.89,83.05 L98.02,81.665 C98.5821468,81.3070194 99.2456565,81.1420196 99.91,81.195 L100.21,80.695 C99.48,79.97 98.885,80.785 98.055,80.225 C98.055,79.35 99.12,76.54 98.29,75.85 L97.595,75.92 C97.36,78.095 97.015,83.195 97.015,83.195 L73.925,81.395 L73.175,94.545 L99.62,89.18 L99.69,88.435 L97.05,88.435 C97.05,88.435 97.05,87.11 97.11,86.77 L99.865,86.445 L100.01,85.86 C99.405,85.29 98.23,85.7 97.455,85.22 L97.83,84.22 L100.365,83.645 Z" id="Shape" fill="#000000"/>
          <polygon id="Shape" fill="#BE0A3C" points="86.615 92.625 86.865 84.175 82.645 85.365 82.365 93.335"/>
          <path d="M92.97,83.325 C92.97,87.465 81.78,87.425 79.18,85.075 C72.5,79.055 92.86,79.185 92.97,83.325 Z" id="Shape" fill="#F01446"/>
          <path d="M31.96,77.785 C37.99,77.785 68.72,80.215 68.72,80.215 L67.515,95.215 C67.515,95.215 49.08,95.56 45.015,95.185 C36.5,94.39 28.82,86.795 31.96,77.785 Z" id="Shape" fill="#000000"/>
          <path d="M68.165,33.155 C68.165,33.155 73.94,34.735 75.52,29.28 C77.1,23.825 69.145,25.35 68.085,28.095 C67.605,29.34 68.165,33.155 68.165,33.155 Z" id="Shape" fill="#824600"/>
          <path d="M70.54,13.92 C70,13.265 61.15,11.355 61.15,11.355 L41.65,22.01 C42.1118156,24.2275917 42.7300272,26.4097117 43.5,28.54 C45.755,33.95 49.675,39.825 53.77,41.13 C55.985,41.835 64.47,42.77 68.73,38.2 C71.2,35.55 73.765,30.2 73.64,24.35 C73.57,20.095 71.19,14.705 70.54,13.92 Z" id="Shape" fill="#A0640A"/>
          <path d="M39.65,9.47 L40.22,9.12 C39.36,6.725 37.28,2.87 41.22,2.12 C43.6,1.65 47.12,4.27 47.85,6.485 C48.245,6.655 48.245,6.655 48.605,6.345 C48.255,4.52 47.51,2.265 49.04,0.845 C53.57,-1.755 55.765,4.68 58.32,7.215 L58.87,7.115 C59.32,5.115 57.945,2.29 60.945,2.21 C62.91,2.16 63.81,3.895 64.82,5.21 C67.195,8.305 70.58,13.945 70.58,13.945 C70.58,13.945 70.615,17.4 65.365,18.35 C62.745,18.85 58.29,16.135 51.365,18.85 C44.44,21.565 44.595,30.955 44.595,30.955 C44.595,30.955 37.08,17 36.22,15 C35.57,13.5 33.6,9.07 35.22,7.795 C36.5,6.775 38.66,8.8 39.65,9.47 Z" id="Shape" fill="#000000"/>
          <path d="M45.765,32.655 C45.765,32.655 39.99,34.235 38.41,28.78 C36.83,23.325 44.785,24.85 45.845,27.595 C46.325,28.84 45.765,32.655 45.765,32.655 Z" id="Shape" fill="#A0640A"/>
          <path d="M56.605,31.23 C59.605,31.575 62.3,32.615 65.075,33.79 C63.68,38.54 53.825,35.58 56.605,31.23 Z" id="Shape" fill="#000000"/>
          <path d="M62.025,29.71 C60.305,26.735 66.805,24.025 67.61,28.445 C68.235,31.865 64.03,30.25 62.025,29.71 Z" id="Shape" fill="#824600"/>
          <path d="M56.46,26.78 L56.085,27.82 L55.35,27.75 C55.16,26.5 56.06,24.715 56.46,26.78 Z" id="Shape" fill="#000000"/>
          <path d="M71.42,29.245 L70.83,29.165 L70.575,27.75 C70.955,27.33 70.955,27.33 71.4,27.46 C71.6489966,28.0275514 71.6562175,28.672012 71.42,29.245 Z" id="Shape" fill="#000000"/>
          <path d="M103.345,62.285 C102.745,61.725 106.425,60.045 106.185,59.525 C105.945,59.005 102.63,60.925 102.185,60.405 C101.74,59.885 105.225,58.33 105.045,57.97 C104.865,57.61 103.545,58.395 100.785,59.21 C99.785,59.5 97.565,60.31 96.36,60.485 C94.824099,60.7580816 93.2586635,60.8253399 91.705,60.685 C91.77,60.77 83.585,59.275 81.205,58.495 C79.805,58.04 75.07,55.495 70.975,53.805 L70.975,66.305 C74.915,67.23 84.295,69.24 92.795,67.805 C99.795,66.6 106.51,62.015 106.7,61.46 C107.1,60.205 103.945,62.845 103.345,62.285 Z" id="Shape" fill="#A0640A"/>
          <path d="M61.175,48.24 C61.175,48.24 53.115,44.195 50.175,51.515 C47.235,58.835 60.105,64.445 60.105,64.445 C62.945,65.88 73.79,69.32 73.79,69.32 C73.79,69.32 77.375,54.99 77.375,54.73 C76.585,54.315 61.09,48.17 61.175,48.24 Z" id="Shape" fill="#BE0A3C"/>
          <path d="M97.5,62.5 C95.81,62.38 95.375,60.655 95.375,60.655 C95.375,60.655 99.795,56.51 100.275,56.91 C100.755,57.31 99.865,58.41 99.195,59.67 C101.055,61 99.18,62.605 97.5,62.5 Z" id="Shape" fill="#824600"/>
          <path d="M9.325,77.345 C7.125,76.72 10.215,68.035 10.745,67.23 C11.155,68.1 10.31,76.885 9.325,77.345 Z" id="Shape" fill="#824600"/>
          <path d="M19.6,45.935 C15.9366937,48.0564083 12.8297354,51.0177011 10.535,54.575 C6.14,61.275 -0.125,76.82 0.45,77.54 C1.025,78.26 2.03,73.88 3.32,74.31 C4.61,74.74 2.03,79.05 2.675,79.625 C3.32,80.2 5.405,74.885 5.98,75.315 C6.555,75.745 4.545,79.405 4.905,79.695 C5.265,79.985 11.575,68.775 15.27,64.505 C17.01,62.505 20.215,58.72 22.415,57.22 C25.25,55.285 29.365,54.075 32.915,54.72 L35.315,42.22 C31.71,41.76 22.66,44.11 19.6,45.935 Z" id="Shape" fill="#A0640A"/>
          <path d="M40.285,41.16 C32.755,40.58 30.105,41.575 30.105,41.575 L30.86,55.66 C30.86,55.66 37.305,55.975 42.86,58.36 C42.86,58.36 51.905,62.62 57.275,56.64 C62.645,50.66 59.58,47.28 59.58,47.28 C59.38,47.21 47.82,41.735 40.285,41.16 Z" id="Shape" fill="#F01446"/>
          <path d="M69.16,64.565 C69.36,56.065 64.16,45.66 54.555,46.495 C51.39,46.77 47.42,47.695 44.84,49.57 C44.495,49.82 39.645,55.52 38.635,57.125 C30.795,69.58 29.525,83.555 29.525,83.555 L67.345,80.1 C67.345,80.1 69.055,69 69.16,64.565 Z" id="Shape" fill="#F01446"/>
        </g>
      </g>
    </g>
  </g>
</svg>