<svg width="136px" height="142px" viewBox="0 0 136 142" version="1.1" xml:space="preserve" xmlns="http://www.w3.org/2000/svg" xmlns:xlink="http://www.w3.org/1999/xlink">
  <!-- Generator: Sketch 48.2 (47327) - http://www.bohemiancoding.com/sketch -->
  <defs/>
  <g>
    <title>milk-a</title>
    <desc>Created with Sketch.</desc>
    <g id="food" stroke="none" stroke-width="1" fill="none" fill-rule="evenodd">
      <g id="milk-a" fill-rule="nonzero">
        <g id="scratch_fridge_milk01" transform="translate(25.000000, 5.000000)">
          <path d="M14.8,110.922937 C13.668,113.288071 11.872,114.524664 10.244,114.576689 C8.616,114.628714 7.748,113.540192 7.088,112.175537 C5.748,109.374194 5.888,101.566449 5.488,101.642486 C5.088,101.718522 5.008,103.243253 4.836,103.791516 C3.672,103.515384 4.3,101.210278 3.552,101.286315 C3.2,101.322332 3.632,103.735489 2.724,103.815528 C1.816,103.895566 2,102.478887 1.648,101.754539 C0.236,106.78095 1.088,114.924856 6.048,117.802236 C10.76,120.539549 16.624,117.990326 18.7,110.922937 C18.7,110.922937 20.028,105.620393 17.276,105.548359 C14.524,105.476324 14.8,110.922937 14.8,110.922937 Z" id="Shape" fill="#BE0A3C"/>
          <path d="M5.628,108.081574 C5.628,108.081574 7.1,107.725403 7.576,105.832495 C7.684,105.408292 7.852,103.531392 7.3,103.50738 C6.748,103.483369 7.052,104.555883 6.676,105.132159 C6.3,105.708436 5.628,104.856027 4.3,105.28023 C2.972,105.704434 2.78,109.47024 5.628,108.081574 Z" id="Shape" fill="#82001E"/>
          <path d="M56.852,108.109587 C56.852,108.109587 56.688,103.967601 53.728,104.50786 C50.768,105.048119 51.352,112.255576 51.352,112.255576 L52.444,131.961027 L50.58,131.888992 C50.58,131.888992 49.892,132.117102 50.58,132.537303 C50.788,132.665365 55.188,132.453263 55.188,132.453263 L56.852,108.109587 Z" id="Shape" fill="#82001E"/>
          <path d="M33.096,107.769424 C33.096,107.769424 33.712,101.490413 28.624,101.366353 C23.536,101.242294 24.984,105.96856 24.984,105.96856 C26.38,110.826891 31.652,130.084127 31.384,131.680893 C30.828,131.848973 30.248,131.564837 29.744,131.844971 C29.616,132.125106 29.5,132.377226 29.84,132.645355 C30.036,132.645355 33.596,132.473273 33.804,132.541305 C34.124,132.245163 33.468,112.859866 33.096,107.769424 Z" id="Shape" fill="#82001E"/>
          <path d="M63.368,123.512975 C63.368,123.512975 62.68,120.143359 62.54,120.363464 L60.872,125.429894 C60.872,125.429894 60.368,127.030662 60.66,127.346814 C60.856,127.566919 61.86,126.242284 62.548,124.945662 L62.58,124.885633 L63.368,123.512975 Z" id="Shape" fill="#82001E"/>
          <path d="M61.748,107.541315 C61.568,110.782869 61.92,118.08237 61.98,119.222917 C62.148,122.46047 61.98,125.678013 62.136,128.911564 C63.14,129.139674 62.692,126.510413 63.104,126.194261 C64.092,125.465912 63.676,128.691459 64.152,128.795509 C64.628,128.899559 64.46,126.394357 65.112,126.114223 C65.768,126.550432 65.788,128.663445 66.184,128.61142 C66.58,128.559395 66.984,113.644242 66.836,107.541315 C66.836,107.541315 66.932,101.834578 64.18,101.626478 C61.428,101.418378 61.748,107.541315 61.748,107.541315 Z" id="Shape" fill="#BE0A3C"/>
          <path d="M41.544,13.7683397 C41.544,13.7683397 55.688,28.1112188 55.832,29.3758253 C54.348,29.4198464 31.376,33.4978023 31.376,33.4978023 L11.48,28.2552879 L41.544,13.7683397 Z" id="Shape" fill="#82001E"/>
          <path d="M56.228,1.33037428 L30.072,0.930182342 C30.072,1.26234165 29.82,6.53286948 30.224,7.02110365 C30.916,7.82148752 42.252,8.31772553 45.26,8.52582534 C46.66,8.62587332 56.46,7.10114203 56.46,7.10114203 C56.46,7.10114203 56.368,1.98668906 56.228,1.33037428 Z" id="Shape" fill="#BE0A3C"/>
          <path d="M11.48,28.2592898 L30.224,7.04911708 C30.224,7.04911708 42.916,10.6508445 45.224,13.1720537 C41.016,15.9693954 11.48,28.2592898 11.48,28.2592898 Z" id="Shape" fill="#FFC800"/>
          <path d="M74.368,29.1997409 C73.02,29.3838292 58.912,31.4568234 58.912,31.4568234 L50.488,29.0276583 C50.488,29.0276583 36,13.3921593 30.156,7.01710173 C32.156,6.31276392 56.46,7.10114203 56.46,7.10114203 C56.46,7.10114203 72.072,25.421929 74.368,29.1997409 Z" id="Shape" fill="#F01446"/>
          <path d="M74.024,111.767342 L51.352,112.267582 L39.976,74.5014683 L50.488,29.0276583 L74.368,29.1997409 C74.368,29.1997409 74.68,81.8529942 74.488,91.3055278 C74.4,95.1913916 74.024,111.767342 74.024,111.767342 Z" id="Shape" fill="#BE0A3C"/>
          <path d="M50.488,29.0276583 C50.488,29.0276583 16.488,28.1632438 11.48,28.2592898 C11.224,32.9335317 13.568,87.6437716 14.08,97.3084069 C14.208,99.7095585 14.216,102.086699 14.284,104.475845 C14.32,105.748455 14.62,111.279107 14.62,111.279107 C14.62,111.279107 17.356,111.339136 18.544,111.387159 C20.808,111.475202 23.068,111.679299 25.344,111.739328 C29.924,111.855384 34.492,111.919415 39.072,112.099501 C41.192,112.183541 51.36,112.275585 51.36,112.275585 L50.488,29.0276583 Z" id="Shape" fill="#F01446"/>
          <path d="M43.328,37.3116315 C43.328,37.3116315 21.828,36.691334 18.656,36.7593666 C18.492,40.1089731 20.16,98.344904 20.656,99.189309 C21.152,100.033714 22.384,99.7295681 23.136,99.7615835 C24.568,99.8256142 25.996,99.9736852 27.432,100.013704 C30.328,100.097745 33.22,100.141766 36.116,100.273829 C37.456,100.333858 43.888,100.401891 43.888,100.401891 L43.328,37.3116315 Z" id="Shape" fill="#FFFFFF"/>
        </g>
      </g>
    </g>
  </g>
</svg>