<svg width="136px" height="109px" viewBox="0 0 136 109" version="1.1" xml:space="preserve" xmlns="http://www.w3.org/2000/svg" xmlns:xlink="http://www.w3.org/1999/xlink">
  <!-- Generator: Sketch 48.2 (47327) - http://www.bohemiancoding.com/sketch -->
  <defs/>
  <g>
    <title>egg-a</title>
    <desc>Created with Sketch.</desc>
    <g id="food" stroke="none" stroke-width="1" fill="none" fill-rule="evenodd">
      <g id="egg-a" fill-rule="nonzero">
        <g id="scratch_fridge_egg03" transform="translate(18.000000, 2.000000)">
          <path d="M15.3326984,59.9555814 C11.9549206,56.602093 11.2391534,55.2447287 9.66285714,51.7155814 C8.11470899,48.2503101 7.57185185,44.3937984 6.96465608,40.6650388 C6.30920635,36.6528295 6.52634921,27.247093 5.56931217,27.1832171 C4.61227513,27.1193411 5.74624339,30.9918217 4.7168254,31.0556977 C3.68740741,31.1195736 3.91259259,27.1832171 3.15259259,27.0115504 C2.39259259,26.8398837 2.78666667,31.2632946 1.67280423,31.0556977 C1.06962963,30.9439147 1.07365079,27.6303488 0.558941799,27.7581008 C0.0442328042,27.8858527 -0.627301587,44.868876 2.16740741,51.6517054 C4.9621164,58.4345349 7.92169312,62.1952326 12.1278307,65.5567054 C14.8340741,67.7165116 23.9420106,70.6308527 24.0706878,66.4110465 C24.1993651,62.1912403 18.7104762,63.3050775 15.3326984,59.9555814 Z" id="Shape" fill="#DCD2B4"/>
          <path d="M7.77291005,30.5287209 C7.16571429,30.2253101 6.34941799,32.524845 6.34941799,32.524845 C5.61354497,32.6486047 3.73968254,33.1077132 3.66328042,34.520969 C3.57079365,36.2655814 5.47280423,38.4293798 6.67513228,36.517093 C6.67513228,36.4811628 8.38010582,30.836124 7.77291005,30.5287209 Z" id="Shape" fill="#AAA082"/>
          <path d="M66.5583069,89.4942248 C66.5583069,89.4942248 65.5731217,86.2086047 65.4484656,86.4361628 L64.2421164,91.6260853 C64.2421164,91.6260853 63.8761905,93.2509302 64.1978836,93.5463566 C64.4150265,93.745969 65.3197884,92.3486822 65.874709,91.0072868 L65.898836,90.9474031 L66.5583069,89.4942248 Z" id="Shape" fill="#AAA082"/>
          <path d="M65.5892063,93.8577519 C65.6977778,95.306938 65.5892063,96.4327519 65.8948148,96.4287597 C66.2004233,96.4247674 66.4416931,95.4865891 66.5784127,94.6122868 C66.6628571,94.0733333 66.7513228,93.6621318 66.9081481,93.6301938 C67.3102646,93.5503488 67.1453968,96.8000388 67.7686772,96.7162016 C68.3919577,96.6323643 68.0220106,93.6701163 68.8463492,93.3746899 C69.6706878,93.0792636 68.9991534,96.1692636 70.0526984,95.9456977 C70.3462434,95.8778295 70.4869841,92.6081783 70.6920635,88.9073643 C70.9453968,84.428062 71.0539683,75.9046124 71.0941799,68.2315116 C71.0941799,68.2315116 72.248254,61.6922093 67.4952381,62.4387597 C62.7422222,63.1853101 65.114709,87.4781395 65.5892063,93.8577519 Z" id="Shape" fill="#DCD2B4"/>
          <path d="M29.3786243,72.7826744 C26.0893122,79.8808915 18.1837037,97.1353876 17.5604233,98.1853488 C16.5189418,97.754186 16.205291,96.5405426 15.0552381,96.2171705 L14.4601058,96.8160078 C14.5224143,97.3028872 14.8236071,97.7275055 15.2643386,97.9498062 C15.9157672,98.4328682 16.5712169,98.9079457 17.2186243,99.395 C18.2842328,100.19345 18.1957672,100.19345 19.2653968,100.991899 C19.4016596,101.068477 19.5459358,101.130056 19.6956614,101.175543 C19.9369312,101.047791 32.6880423,82.2882171 35.9492063,77.4376357 C35.9492063,77.4376357 39.7371429,71.8484884 35.3580952,69.7525581 C30.9790476,67.6566279 29.3786243,72.7826744 29.3786243,72.7826744 Z" id="Shape" fill="#AAA082"/>
          <path d="M56.7265608,100.836202 C57.3739683,99.395 60.4421164,81.900969 61.805291,73.8286434 C61.805291,73.8286434 63.4861376,66.7823256 57.3578836,66.7823256 C51.2296296,66.7823256 52.6289947,73.6569767 52.6289947,73.6569767 C52.9346032,83.4699225 52.930582,102.377209 53.2040212,102.596783 C53.7066667,102.824341 57.2251852,102.28938 58.4315344,102.784419 C58.9703704,102.696589 59.4609524,102.588798 59.4569312,101.89814 C59.2035979,101.710504 57.3136508,101.997946 56.5174603,101.534845 C56.5734783,101.298141 56.643296,101.064867 56.7265608,100.836202 Z" id="Shape" fill="#AAA082"/>
          <path d="M74.2467725,37.9024031 C71.5525926,25.3667442 65.5208466,10.331938 53.738836,3.72476744 C50.7993651,2.07596899 46.9953439,0.0718604651 43.5331217,0.131744186 C41.4484478,0.262329998 39.4048566,0.766848779 37.5013757,1.62085271 C36.3312169,2.17577519 30.1144974,7.37767442 29.173545,8.67914729 C23.9460317,15.933062 21.8308995,24.1930233 19.0201058,31.6066279 C16.8929101,37.1957752 15.7710053,43.1841473 14.7777778,49.0846899 C14.0740741,53.2486047 13.4146032,58.4065891 14.2469841,62.5705039 C16.2857143,72.7427519 24.3401058,81.3340698 34.0833862,84.2324419 C35.5792593,84.6795736 40.5775661,86.7395736 46.9511111,86.8114341 C52.2349206,86.8713178 59.2116402,85.0628295 59.5333333,84.9231008 C71.3957672,79.8609302 74.48,65.3930233 75.0510053,61.4287209 C76.1221195,53.5977487 75.8502001,45.6432579 74.2467725,37.9024031 Z" id="Shape" fill="#F0E6D2"/>
          <path d="M21.2397884,68.2674419 C23.5238095,73.0102326 27.3037037,78.4396899 32.3743915,79.9647287 C33.637037,80.3639535 35.2615873,80.7871318 36.5443386,80.4318217 C37.310922,80.1826792 38.0221545,79.7896384 38.6393651,79.2740698 C39.5527646,78.1582314 40.3515822,76.9545787 41.0239153,75.6810465 C42.2302646,72.2956202 42.1779894,68.8063953 42.4715344,65.5886434 C42.6298559,63.1324418 42.5625586,60.6670291 42.2704762,58.2229457 C42.1096296,56.4982946 41.8281481,54.3784109 41.0922751,52.7974806 C39.2948148,48.9329845 35.4184127,46.2741473 31.4857143,46.0106589 C29.7989573,45.7781408 28.0842365,45.8402915 26.4190476,46.1943023 C24.8419132,46.6459897 23.329672,47.2967161 21.9193651,48.1305426 C18.0148148,51.2644574 18.3405291,57.3127132 18.5295238,58.9575194 C18.9318573,62.1834943 19.8466258,65.3257793 21.2397884,68.2674419 Z" id="Shape" fill="#FAF0E6"/>
        </g>
      </g>
    </g>
  </g>
</svg>