<svg width="152px" height="136px" viewBox="0 0 152 136" version="1.1" xml:space="preserve" xmlns="http://www.w3.org/2000/svg" xmlns:xlink="http://www.w3.org/1999/xlink">
  <!-- Generator: Sketch 48.2 (47327) - http://www.bohemiancoding.com/sketch -->
  <defs/>
  <g>
    <title>referee-b</title>
    <desc>Created with Sketch.</desc>
    <g id="soccer" stroke="none" stroke-width="1" fill="none" fill-rule="evenodd">
      <g id="referee-b" fill-rule="nonzero">
        <g id="scratch_footie_player_ref02" transform="translate(75.000000, 68.500000) scale(-1, 1) translate(-75.000000, -68.500000) translate(32.000000, 5.000000)">
          <path d="M35.7578947,93.9980142 C35.7578947,93.9980142 37.9441053,88.5487234 31.6117895,88.5487234 C25.2794737,88.5487234 25.8181053,98.0737234 26.3431579,101.428865 C26.7320445,103.716362 27.3898572,105.950441 28.3030526,108.085106 L35.2192632,108.085106 C33.5671579,100.90195 35.7578947,93.9980142 35.7578947,93.9980142 Z" id="Shape" fill="#828278"/>
          <path d="M35.7578947,107.679787 L27.8368421,107.679787 C30.2267368,116.520248 35.7081053,123.388156 35.9117895,123.960106 C35.2373684,124.02766 34.6172632,124.090709 33.9971579,124.144752 C33.3770526,124.198794 32.7162105,124.234823 32.0870526,124.279858 L31.9422105,125.022943 L32.68,125.473298 C33.0737895,125.684965 32.68,126.319965 33.2593684,126.495603 L33.5988421,126.297447 L33.9021053,125.122021 L34.3547368,125.036454 C34.8073684,125.38773 34.3547368,126.099291 35.0744211,126.355993 L35.5723158,126.117305 C35.5496842,125.617411 35.3867368,125.180567 35.6854737,124.806773 L36.8668421,124.716702 C36.9075789,124.932872 36.9573684,125.167057 36.9890526,125.360709 C36.9958193,125.55693 37.0154753,125.752501 37.0478947,125.94617 C37.1429474,126.279433 37.3013684,126.342482 37.7313684,126.256915 C37.8897895,125.748014 37.5774737,125.131028 38.1025263,124.604113 L39.0621053,124.38344 C39.3230088,124.914799 39.3886678,125.520285 39.2476842,126.094787 C39.1293967,126.409458 39.2703756,126.76208 39.5735789,126.909929 C39.9673684,126.887411 40.0624211,126.662234 40.0533684,126.319965 C40.0533684,125.716489 40.0533684,125.113014 40.0533684,124.401454 L40.8409474,124.680674 L41.71,124.680674 C41.6602105,125.004929 41.6330526,125.266135 41.5742105,125.52734 C41.5153684,125.788546 41.4338947,126.036241 41.3524211,126.328972 L41.9725263,126.648723 C42.3600975,125.821347 42.53878,124.912332 42.4930526,124.000638 C42.1218947,123.667376 36.4323158,112.237376 35.7578947,107.679787 Z" id="Shape" fill="#000000"/>
          <rect id="Rectangle-path" fill="#FFFFFF" x="26.9044211" y="106.61695" width="9.804" height="2.03560284"/>
          <rect id="Rectangle-path" fill="#FFFFFF" x="28.0450526" y="110.264823" width="9.61389474" height="2.03560284"/>
          <rect id="Rectangle-path" fill="#FFFFFF" x="29.1404211" y="113.484858" width="9.61389474" height="2.03560284"/>
          <path d="M49.4047368,107.688794 L57.2216842,107.612234 C57.1071154,105.391117 57.1828274,103.164328 57.448,100.955993 C57.8463158,98.0421986 59.6477895,93.6692553 59.7790526,93.0252482 C59.7790526,93.0252482 61.3587368,90.120461 55.5876842,89.2242553 C52.3151579,88.7153546 50.5498947,92.9486879 49.8211579,98.2313475 C49.4706103,101.371068 49.3314929,104.530601 49.4047368,107.688794 Z" id="Shape" fill="#828278"/>
          <path d="M57.4842105,115.376348 C57.2429868,112.566772 57.2960794,109.739853 57.6426316,106.941206 L48.8842105,106.941206 C49.0878947,112.575142 51.0749474,118.236099 53.8631579,123.090922 C52.5052632,123.149468 50.1063158,122.84773 48.9656842,123.698901 L49.2146316,124.207801 C50.5725263,124.541064 49.3594737,126.00922 50.5725263,126.328972 C50.9301053,125.711986 50.3009474,123.379149 51.9304211,124.207801 C51.8942105,124.797766 51.6226316,125.950674 52.1522105,126.459574 L52.6501053,126.346986 C52.804,125.554362 52.4056842,124.766241 52.7949474,124.054681 C53.215948,123.89172 53.6916606,123.956419 54.0532632,124.225816 L53.9084211,126.28844 L54.7593684,126.500106 L54.7593684,124.653652 C55.2346316,124.608617 55.4066316,124.090709 55.9362105,124.203298 C55.9814737,124.95539 55.6238947,126.56766 56.8414737,126.16234 C56.8912632,125.518333 56.4974737,124.811277 57.0451579,124.194291 L57.9051579,124.194291 C58.1767368,124.491525 57.9911579,126.040745 57.9911579,126.238901 L58.4845263,126.603688 L58.9371579,126.337979 C59.0095789,125.549858 57.6652632,117.05617 57.4842105,115.376348 Z" id="Shape" fill="#000000"/>
          <rect id="Rectangle-path" fill="#FFFFFF" x="48.3410526" y="106.450319" width="9.73157895" height="2.03560284"/>
          <rect id="Rectangle-path" fill="#FFFFFF" x="48.7936842" y="110.093688" width="8.83084211" height="2.03560284"/>
          <rect id="Rectangle-path" fill="#FFFFFF" x="49.6129474" y="113.354255" width="8.09757895" height="1.95453901"/>
          <path d="M21.9616842,112.093262 C21.9616842,112.093262 23.6590526,116.439184 23.7722105,117.245319 C23.8853684,118.051454 23.5187368,118.119007 23.0887368,117.245319 C22.6956278,116.581504 22.2025681,115.981569 21.6267368,115.466418 L21.9616842,112.093262 Z" id="Shape" fill="#3C3C32"/>
          <path d="M15.9869474,94.2727305 C15.9869474,94.2727305 14.5792632,80.5549291 19.0829474,80.5549291 C23.5866316,80.5549291 22.704,119.821348 22.274,119.807837 C21.844,119.794326 21.4909474,116.713901 20.9704211,116.77695 C20.4498947,116.84 20.7622105,120.379787 20.2462105,120.469858 C19.7302105,120.559929 19.5265263,116.957092 19.0422105,116.925567 C18.5578947,116.894043 18.7434737,119.911418 18.5307368,119.933936 C17.9423158,119.983475 15.9869474,94.2727305 15.9869474,94.2727305 Z" id="Shape" fill="#828278"/>
          <path d="M85.8325263,68.7376241 C84.0672632,56.7446809 75.5442105,42.3333333 62.0105263,43.7969858 C61.2561404,43.881052 60.5017544,43.996643 59.7473684,44.1437589 C62.9791579,38.834078 66.5096842,33.655 69.4155789,28.3002837 C71.9638947,23.6075887 79.1381053,11.9298936 79.1381053,11.9298936 L74.3945263,0.671028369 L68.7366316,4.30989362 C68.7366316,4.30989362 47.5263158,37.7892553 41.3705263,47.8501773 C36.4685263,55.8439716 31.7702105,63.4189362 30.6069474,73.0385106 C29.6383158,81.032305 31.8381053,88.4226241 38.5098947,93.3044681 C41.8729474,95.7679078 45.4215789,96.3533688 49.4409474,97.3576596 C56.3662105,99.0870213 63.5404211,100.343511 69.8953684,97.3576596 C82.0485263,91.6606738 86,80.6900355 85.8325263,68.7376241 Z" id="Shape" fill="#000000"/>
          <polygon id="Shape" fill="#000000" points="13.5789474 42.9548227 6.47263158 57.8480496 34.5538947 59.0279787 41.4022105 43.2070213"/>
          <path d="M30.2629474,57.2265603 C29.8103158,61.4779078 26.2526316,63.9818794 21.8258947,63.6756383 C18.8204211,63.4684752 16.0457895,61.1446454 15.9643158,57.9561348 C15.8873684,54.8892199 19.2051579,52.3086879 21.9616842,51.682695 C25.0395789,50.9891489 29.7424211,51.9574113 30.2629474,57.2265603 Z" id="Shape" fill="#A0640A"/>
          <polygon id="Shape" fill="#828278" points="40.1122105 47.8456738 15.5976842 47.8321631 11.0577895 58.2758865 5.92947368 57.7084397 12.6510526 41.9505319 42.9592632 41.0453191"/>
          <path d="M37.3873684,1.35106383 C33.4947368,7.20567376 27.3615789,16.4289362 23.5368421,22.3646099 C22.7356842,23.5985816 12.9090526,37.4244681 8.65431579,45.6614539 C1.86484211,58.8118085 -0.176526316,68.9718085 0.181052632,75.8352128 C0.285157895,77.7987589 1.43484211,86.4455674 4.96536842,90.4762411 C10.3697895,96.6460993 18.9290526,98.3439362 18.9290526,98.3439362 L58.0228421,98.9519149 C58.0228421,98.9519149 42.9502105,95.2049645 38.6909474,88.6432979 C36.061783,84.4073518 34.5529317,79.5782183 34.3049474,74.6057447 C34.056,65.5356028 38.8041053,56.7401773 43.1176842,49.0886525 C47.644,41.0318085 71.0993684,4.41347518 74.1093684,1.27450355 L37.3873684,1.35106383 Z M34.8933684,55.6007801 L9.72705263,55.6503191 C9.72705263,55.6503191 13.0312632,47.7420922 14.0587368,46.156844 L39.8587368,46.1838652 L34.8933684,55.6007801 Z" id="Shape" fill="#3C3C32"/>
          <path d="M74.9784211,0.117092199 C74.0731579,0.193652482 37.0388421,0.238687943 36.1154737,0.342269504 C35.5311098,0.359634518 34.9749337,0.5961072 34.5584211,1.00429078 L34.3456842,1.5537234 L34.4271579,2.13468085 C34.870575,2.5829418 35.4963316,2.80376036 36.1245263,2.73365248 C37.0297895,2.61656028 71.9367368,2.61656028 72.8601053,2.6570922 L74.9784211,0.117092199 Z" id="Shape" fill="#000000"/>
          <path d="M72.8736842,2.6570922 L78.1513684,13.7042908 C78.1513684,13.7042908 79.4594737,14.0870922 79.9981053,13.2809574 C80.3246997,12.7791842 80.4991261,12.1944338 80.5005263,11.5966312 L74.9784211,0.117092199 L72.8736842,2.6570922 Z" id="Shape" fill="#000000"/>
          <path d="M75.1368421,75.9928369 C74.0345997,79.4225865 71.870426,82.4176413 68.9538947,84.5495745 C65.5772632,86.9634752 61.4447368,87.8416667 57.5702105,86.5806738 C54.4728305,85.5315713 51.9255788,83.2938719 50.4955789,80.3657801 C48.5675844,76.4029647 48.2942035,71.8420125 49.7351579,67.6792908 C50.9465653,63.8592698 53.4849097,60.5929443 56.8957895,58.4650355 C60.0642105,56.5465248 63.3593684,55.6278014 66.8536842,56.7717021 C73.8921053,59.0775177 77.8526316,67.845922 75.1368421,75.9928369 Z" id="Shape" fill="#3C3C32"/>
          <path d="M70.7372632,74.5156738 C70.0179207,76.7595417 68.6029649,78.7191637 66.6952632,80.1135816 C64.5756757,81.7216131 61.8070369,82.2145437 59.2585263,81.4376241 C57.2364386,80.7538434 55.5726921,79.2946471 54.6371579,77.3844326 C53.3785596,74.7956638 53.2011793,71.8164184 54.1437895,69.0979078 C54.9355613,66.6014455 56.5946682,64.4669513 58.824,63.0766667 C60.9015789,61.8246809 63.0470526,61.2212057 65.3373684,61.9687943 C69.9134737,63.4639716 72.4889474,69.1924823 70.7372632,74.5156738 Z" id="Shape" fill="#828278"/>
          <path d="M63.4906316,112.376986 C63.4906316,112.376986 62.3545263,116.880532 62.3318947,117.718191 C62.3092632,118.555851 62.694,118.555851 63.0153684,117.650638 C63.3219832,116.943603 63.7356595,116.287481 64.242,115.705106 L63.4906316,112.376986 Z" id="Shape" fill="#3C3C32"/>
          <path d="M66.4961053,72.9574468 C66.4961053,72.9574468 67.3470526,68.4539007 62.6261053,68.4539007 C57.9051579,68.4539007 58.5524211,73.2051418 58.5524211,73.2051418 C58.9552632,77.8798227 63.7305263,120.159113 64.1605263,120.09156 C64.5905263,120.024007 64.5452632,116.939078 65.0657895,116.939078 C65.5863158,116.939078 65.7266316,120.469858 66.2471579,120.514894 C66.7676842,120.559929 66.5187368,116.939078 66.9985263,116.849007 C67.4783158,116.758936 67.6684211,119.776312 67.9037895,119.767305 C68.4741053,119.708759 66.4961053,72.9574468 66.4961053,72.9574468 Z" id="Shape" fill="#828278"/>
          <path d="M68.4650526,112.048227 L68.4650526,110.638617 C67.6276842,110.557553 65.2332632,110.535035 64.3913684,110.449468 C64.3506316,110.647624 64.4954737,111.841064 64.4637895,112.079752 C64.5814737,112.057234 66.9215789,112.057234 68.4650526,112.048227 Z" id="Shape" fill="#F01446"/>
          <path d="M66.1928421,109.301064 C66.8898947,110.773723 67.2610526,112.584149 65.7402105,113.597447 C65.2533456,113.950113 64.6452884,114.095166 64.0506298,114.000499 C63.4559712,113.905832 62.9237566,113.579253 62.5717895,113.09305 C61.4175789,111.525816 61.6665263,109.864007 62.9655789,109.192979 C64.0109196,108.788352 65.1772142,108.827413 66.1928421,109.301064 Z" id="Shape" fill="#000000"/>
          <path d="M65.3102105,110.314362 C65.6813684,111.097979 65.8805263,112.066241 65.0612632,112.606667 C64.8020916,112.800302 64.4749841,112.880884 64.1549489,112.829936 C63.8349136,112.778988 63.5494059,112.60088 63.3638947,112.336454 C62.7483158,111.498794 62.8841053,110.616099 63.5721053,110.255816 C64.1346825,110.035345 64.7639073,110.05654 65.3102105,110.314362 Z" id="Shape" fill="#3C3C32"/>
        </g>
      </g>
    </g>
  </g>
</svg>