<svg width="152px" height="136px" viewBox="0 0 152 136" version="1.1" xml:space="preserve" xmlns="http://www.w3.org/2000/svg" xmlns:xlink="http://www.w3.org/1999/xlink">
  <!-- Generator: Sketch 48.2 (47327) - http://www.bohemiancoding.com/sketch -->
  <defs/>
  <g>
    <title>goalie-a</title>
    <desc>Created with Sketch.</desc>
    <g id="soccer" stroke="none" stroke-width="1" fill="none" fill-rule="evenodd">
      <g id="goalie-a" fill-rule="nonzero">
        <g id="scratch_footie_player_goalie01" transform="translate(17.000000, 5.000000)">
          <path d="M84.2584983,94.6782637 C84.2584983,94.6782637 81.500785,93.5803215 80.6032082,95.7924116 C79.7056314,98.0045016 82.5202048,99.3819936 82.5202048,99.3819936 C82.7598294,99.4711254 94.7694881,102.623151 94.9725597,102.477299 C95.1837543,102.120772 96.3940614,99.4792283 96.5971331,99.1551125 C96.4996587,98.8269453 84.4453242,94.617492 84.2584983,94.6782637 Z" id="Shape" fill="#281446"/>
          <path d="M114.682696,101.845273 C109.317543,99.0497749 97.3931741,95.8693891 97.3931741,95.8693891 L93.8191126,107.12836 C95.3421502,108.088553 97.2753925,109.154084 98.8512287,110.061608 C101.149881,111.465215 103.52247,112.744615 105.958737,113.894277 C107.234027,114.473633 111.315768,116.924759 112.627611,115.551318 C114.508055,113.586367 107.04314,111.220322 107.347747,110.215563 C107.652355,109.210804 114.703003,113.051576 115.876758,111.252733 C117.700341,108.41672 109.926758,106.079035 109.857713,104.928424 C110.791843,104.118135 114.666451,106.954148 116.356007,106.719164 C120.397133,106.14791 116.416928,102.748746 114.682696,101.845273 Z" id="Shape" fill="#F04650"/>
          <path d="M113.500819,93.9571061 C112.749454,89.5815434 100.029044,95.8005145 97.9252218,96.6067524 L94.9156997,104.207267 C97.1291809,105.576656 100.024983,106.897428 102.632423,106.532797 C106.567952,105.989904 107.278703,102.724437 107.648294,99.3900965 C110.206997,99.0254662 114.01256,96.9511254 113.500819,93.9571061 Z" id="Shape" fill="#F01446"/>
          <path d="M98.9933788,95.9747267 C98.2785666,98.6284244 97.0804437,101.043087 96.117884,103.611704 C95.4071331,105.515884 94.7613652,109.421479 92.0564505,107.1 C92.1864164,104.397685 93.1002389,101.792605 94.1440273,99.3212219 C95.1106485,97.0645659 96.0569625,93.2562058 98.9933788,95.9747267 Z" id="Shape" fill="#BE0A3C"/>
          <path d="M32.4914676,94.6782637 C32.0853242,94.7309325 20.7945392,100.005916 20.23,100.937749 C20.7498635,101.565723 21.8545734,102.939164 22.4150512,103.591447 C22.5409556,103.449646 35.1963823,98.4299035 35.2897952,98.3245659 C35.2897952,98.3245659 38.0272014,97.6115113 36.5935154,95.5938907 C35.1598294,93.5762701 32.4914676,94.6782637 32.4914676,94.6782637 Z" id="Shape" fill="#281446"/>
          <path d="M17.2123549,96.639164 C13.2890102,99.9491961 4.71938567,105.835949 4.6868942,105.86836 C3.08262799,107.387653 0.670136519,109.25537 0.134027304,111.46746 C-0.402081911,113.67955 0.775733788,114.218392 2.67648464,113.610675 C3.67277713,113.198378 4.58842246,112.614135 5.38139932,111.884759 C5.19051195,112.050868 6.97754266,109.389068 6.89631399,111.18791 C6.81508532,112.986752 2.55870307,115.377106 4.71938567,117.552733 C7.36337884,117.277235 8.95952218,115.680965 10.6775085,113.801093 C11.0836519,113.801093 11.2501706,113.934791 11.2826621,114.303473 C10.3485324,115.636399 7.60706485,118.273891 7.97665529,120.129453 C8.62648464,123.370611 14.3246758,118.172605 14.3246758,118.172605 C14.3246758,118.172605 22.9064846,111.082572 24.6325939,106.597621 L17.2123549,96.639164 Z" id="Shape" fill="#F04650"/>
          <path d="M8.04163823,102.882444 C6.16525597,103.947974 1.81546075,103.943923 1.40525597,101.533312 C0.913822526,98.6446302 5.30017065,98.2921543 7.45273038,98.0409646 C11.1080205,97.6074598 16.1482594,96.4203859 18.7638225,99.4184566 C19.7832423,100.593376 21.8017747,102.124823 22.3500683,103.563087 C22.9633447,105.163408 21.1722526,106.14791 19.8441638,107.12836 C17.7078498,108.704373 15.4537543,109.267524 12.8625597,108.530161 C9.52406143,107.578071 9.45501706,105.564502 8.04163823,102.882444 Z" id="Shape" fill="#F01446"/>
          <path d="M15.226314,97.2347267 C16.6193857,96.1124759 17.3666894,95.0266881 19.2268259,96.06791 C20.7579863,96.9268167 25.3474061,102.914855 26.058157,104.434148 C27.0938225,106.650289 26.058157,107.270161 24.1574061,108.465338 C23.9940616,108.25225 23.8162975,108.050558 23.6253584,107.861672 C22.0630603,106.124952 20.5508532,104.346367 19.0887372,102.525916 C17.8703072,101.030932 15.7624232,99.0335691 15.226314,97.2347267 Z" id="Shape" fill="#BE0A3C"/>
          <path d="M79.6040956,112.22508 C79.4172696,111.52418 79.2669966,110.819228 79.0517406,110.166945 C78.8364846,109.514662 76.6148805,103.753505 76.3305802,103.072862 C73.8937201,98.6405788 82.4227304,94.1110611 83.2350171,101.885788 C83.6695904,103.372669 83.5843003,111.487717 83.2959386,112.496527 C82.9710239,112.314212 79.7056314,112.22508 79.6040956,112.22508 Z" id="Shape" fill="#281446"/>
          <path d="M78.7918089,111.929325 C79.0030034,115.381158 79.5188055,118.35492 78.1541638,121.652797 L79.2832423,121.652797 C81.7850853,118.962637 83.7995563,115.624244 84.217884,111.929325 C82.4316747,111.527011 80.5780182,111.527011 78.7918089,111.929325 Z" id="Shape" fill="#F01446"/>
          <path d="M84.5671672,112.014405 C84.6240273,111.516077 84.6687031,110.952926 84.6930717,110.51537 L78.3856655,110.51537 C78.4100341,110.920514 78.446587,111.512026 78.4750171,112.014405 L84.5671672,112.014405 Z" id="Shape" fill="#F04650"/>
          <path d="M83.5964846,122.203794 C83.5964846,122.203794 80.9443686,122.487395 79.7868601,122.203794 C79.7868601,122.167331 80.3270307,121.340836 80.7412969,120.639936 L77.9186007,120.639936 C77.8211263,120.90328 77.7236519,121.166624 77.6180546,121.421865 C77.5444885,121.632832 77.4360388,121.830027 77.2972014,122.005273 C76.7732765,122.580579 76.8463823,122.669711 77.2037884,123.245016 L77.0210239,125.13299 C76.9925939,125.13299 77.0860068,125.416592 77.1509898,125.538135 C77.6302389,125.538135 77.7886348,125.449003 77.7805119,125.051961 C77.7805119,124.472605 77.7195904,123.893248 77.6789761,123.25717 C77.9990821,123.125272 78.3308581,123.023543 78.6699659,122.953312 C78.8933212,123.301684 78.9787381,123.720497 78.9095904,124.128232 C78.7527812,124.524423 78.9302498,124.974084 79.3157338,125.157299 L79.7218771,124.906109 C79.6650171,124.533376 79.5878498,124.201158 79.5675427,123.864887 C79.5472355,123.528617 79.5675427,123.17209 79.5878498,122.827717 C80.6316382,122.86418 80.7616041,123.038392 80.6356997,123.970225 C80.6119516,124.337174 80.6119516,124.705269 80.6356997,125.072219 L81.041843,125.238328 C81.3708191,125.039807 81.285529,124.788617 81.2774061,124.549582 C81.2530375,124.014791 81.0824573,123.459743 81.5089078,122.985723 L82.3455631,122.985723 C82.4836519,123.706881 82.2683959,124.423987 82.4795904,125.165402 L83.0522526,125.100579 C83.0522526,124.877749 83.0522526,124.719743 83.0522526,124.557685 C83.0522526,124.15254 83.0522526,122.937106 83.0522526,122.937106 L83.665529,122.937106 L83.5964846,122.203794 Z" id="Shape" fill="#281446"/>
          <polygon id="Shape" fill="#281446" points="82.2074744 116.159035 78.7105802 116.159035 78.7024573 115.004373 82.2074744 115.004373"/>
          <path d="M82.2562116,119.375884 C79.5594198,119.732412 79.8965188,117.009839 80.2742321,115.729582 C80.7656655,114.088746 80.9078157,112.298006 83.4746416,112.261543 C84.7946075,112.261543 85.0667235,114.246752 84.5874744,116.009132 C84.1366553,117.686431 82.9953925,119.11254 82.2562116,119.375884 Z" id="Shape" fill="#BE0A3C"/>
          <path d="M37.0037201,107.18508 C37.0037201,107.286367 36.9793515,107.383601 36.9752901,107.49299 C36.9888962,109.06705 37.1754833,110.634875 37.5317065,112.16836 L42.3688737,112.16836 C42.3688737,112.144051 42.3688737,112.115691 42.3688737,112.091383 C42.4176109,111.568746 45.1022184,101.731833 45.4311945,100.427267 C45.4311945,100.427267 46.6211945,96.0476527 41.8165188,97.0767203 C37.011843,98.1057878 37.0037201,107.18508 37.0037201,107.18508 Z" id="Shape" fill="#281446"/>
          <path d="M44.1924573,121.916141 C43.0999317,119.080129 43.2705119,115.296077 43.4979522,112.374984 C40.7280546,111.528232 39.513686,111.74701 36.6544369,112.374984 C36.9955973,113.395949 37.9825256,116.154984 39.1928328,118.04701 C40.8498976,120.619678 42.9171672,122.345595 44.245256,123.066752 L44.517372,123.001929 C44.3015901,122.681056 44.1883108,122.302504 44.1924573,121.916141 Z" id="Shape" fill="#F01446"/>
          <rect id="Rectangle-path" fill="#281446" x="40.4031399" y="115.004373" width="3.50501706" height="1.15061093"/>
          <path d="M44.1883959,112.553248 C44.2696246,111.641672 44.3874061,110.563987 44.3914676,110.446495 L35.6472014,110.260129 C35.7771672,110.79492 35.8421502,111.91717 36.0533447,112.553248 L44.1883959,112.553248 Z" id="Shape" fill="#F04650"/>
          <path d="M45.0819113,122.649453 C45.0819113,122.608939 44.8747782,122.025531 44.8585324,121.989068 L42.2835836,122.049839 C42.569935,122.396575 42.8139774,122.776018 43.0105802,123.180193 L38.7460751,123.309839 C38.7460751,123.309839 38.7866894,123.791961 38.8069966,123.913505 L39.5218089,124.006688 C39.9279522,124.594148 39.3552901,125.10463 39.5583618,125.627267 L39.9360751,125.781222 C40.3422184,125.639421 40.2934812,125.339614 40.2406826,125.04791 C40.1489524,124.710937 40.1660057,124.353698 40.2894198,124.026945 L41.4388055,123.905402 C41.8449488,124.411833 41.2316724,124.885852 41.5403413,125.428746 L41.8368259,125.623215 C42.2429693,125.38418 42.2917065,125.307203 42.1901706,124.910161 C42.0589299,124.586371 42.0937745,124.219136 42.2835836,123.925659 L43.420785,123.925659 L43.3111263,125.63537 C43.449215,125.910868 43.6197952,126.064823 43.9650171,125.923023 C44.123413,125.335563 43.8309898,124.513119 44.123413,123.897299 C44.4442662,123.974277 44.854471,123.87299 45.1347099,123.937814 C45.098157,124.253826 44.8950853,125.274791 44.8666553,125.558392 C44.9190715,125.624421 44.9760718,125.686697 45.0372355,125.744759 C45.0865283,125.779182 45.1396881,125.807736 45.1956314,125.829839 C45.6667577,125.700193 45.7236177,125.627267 45.7154949,125.205916 C45.7154949,124.857492 45.7154949,124.107974 45.7154949,123.75955 L45.7154949,123.706881 C45.7682935,123.694727 45.1956314,122.880386 45.0819113,122.649453 Z" id="Shape" fill="#281446"/>
          <path d="M41.284471,116.969325 C40.5980887,114.741029 40.187884,112.488424 37.6291809,113.383794 L37.6291809,113.351383 C36.1142662,114.712669 36.6950512,117.970032 37.9987713,119.428553 C39.9198294,121.543408 42.1170648,119.663537 41.284471,116.969325 Z" id="Shape" fill="#BE0A3C"/>
          <path d="M98.8431058,16.497492 C98.3679181,11.3197428 97.9617747,5.52617363 92.454471,3.20874598 C86.7075427,0.777877814 83.0806826,4.01903537 81.1393174,9.37909968 C79.4172696,14.1476527 78.8527304,19.3861736 78.0729352,24.3694534 C77.7074061,26.7111897 76.2696587,37.5893248 73.1423549,39.5259164 C70.5714676,38.488746 71.3959386,24.6206431 71.1522526,21.0796785 C70.6811263,14.1922186 71.493413,4.29453376 63.9188396,1.22758842 C60.2432423,-0.267395498 55.414198,0.303858521 52.1406826,2.57266881 C48.6316041,5.00353698 48.2985666,10.0718971 48.1767235,13.9977492 C47.9695904,20.7353055 49.3951536,27.7726688 50.4470648,34.4210932 C50.6704437,35.8593569 51.7751536,41.5111254 48.8224915,41.4868167 C46.8933106,41.4868167 42.5313311,25.5605788 41.4753584,22.3599357 C40.4559386,19.2767846 39.0872355,15.1969775 36.8575085,12.7823151 C30.5297952,5.93131833 22.2363481,13.4062379 20.8229693,20.5246302 C19.2755631,28.3803859 21.9601706,37.0099678 23.6294198,44.6185852 C25.5179863,53.2360129 26.9679181,61.9142122 28.9092833,70.4992283 C29.9449488,75.1219293 31.5004778,89.7517042 32.2355973,91.7693248 L81.9800341,94.6053376 C82.9588396,92.3486817 83.149727,89.3749196 83.6777133,86.9886174 C84.8961433,81.4732476 86.1145734,75.9578778 87.3330034,70.442508 C89.0834812,62.4773633 90.2572355,54.0706109 92.669727,46.275627 C94.3308532,40.9115113 95.996041,35.7621222 96.9829693,30.2075884 C97.6815358,26.0305466 99.2330034,20.731254 98.8431058,16.497492 Z" id="Shape" fill="#F04650"/>
          <path d="M118.740068,43.8650161 C118.65884,43.2127331 118.358294,41.7420579 118.439522,41.6245659 C115.77116,29.9726045 103.875222,35.9282315 98.985256,42.2565916 C96.3656314,45.6436013 91.9305461,49.8003859 87.6619795,50.7889389 C82.9425939,51.8828296 77.6302389,50.3837942 72.7768259,50.817299 C62.2861433,51.777492 54.7765529,58.758135 52.022901,68.7003859 C50.6257679,73.7484887 50.317099,79.1045016 50.0815358,84.3187138 C49.9637543,86.9562058 49.127099,90.5538907 49.5048123,93.1184566 L82.6298635,93.3453376 C89.5058703,87.0899035 96.2762799,80.9154984 102.758328,74.2589711 C106.779147,70.1264952 110.198874,65.4389711 113.476451,60.706881 C116.652491,56.1125402 119.463003,49.5451447 118.740068,43.8650161 Z" id="Shape" fill="#F01446"/>
          <path d="M88.425529,89.6787781 C88.425529,89.6787781 60.7793515,89.3263023 53.4200341,89.2979421 L53.4200341,107.71582 C65.3890785,107.768489 87.8325597,106.958199 87.8325597,106.958199 L88.425529,89.6787781 Z" id="Shape" fill="#BE0A3C"/>
          <path d="M41.865256,108.736785 C38.2668259,108.607138 34.2094539,108.870482 30.7409898,107.825209 C30.4607509,105.203923 30.0505461,88.2243087 30.0505461,88.2243087 C30.0505461,88.2243087 49.9840614,88.7307395 50.1546416,88.4754984 C55.7959727,88.4754984 66.3191468,88.5727331 67.4319795,95.9585209 C67.9477816,99.3900965 66.7252901,103.814277 64.0934812,106.143859 C61.2179863,108.688167 57.2662116,108.63955 53.6677816,108.979871 C53.6474744,108.983923 45.7886007,108.878585 41.865256,108.736785 Z" id="Shape" fill="#281446"/>
          <path d="M52.3193485,106.014212 C49.2651401,105.872412 46.2271775,105.89672 43.172969,105.799486 C40.3746318,105.706302 31.5084922,105.523987 28.8076297,104.786624 C28.5883115,102.943215 28.600374,91.2507395 28.600374,91.2507395 C28.600374,91.2507395 49.4885197,91.7126045 49.6225475,91.5343408 C54.0129721,91.5343408 62.2130343,91.6032154 63.0659383,96.8012219 C63.472083,99.23209 62.5135814,102.335498 60.4666119,103.972283 C58.2287544,105.763023 55.1542388,105.726559 52.3437172,105.969646 L52.3193485,106.014212 Z" id="Shape" fill="#F01446"/>
        </g>
      </g>
    </g>
  </g>
</svg>