<svg width="152px" height="136px" viewBox="0 0 152 136" version="1.1" xml:space="preserve" xmlns="http://www.w3.org/2000/svg" xmlns:xlink="http://www.w3.org/1999/xlink">
  <!-- Generator: Sketch 48.2 (47327) - http://www.bohemiancoding.com/sketch -->
  <defs/>
  <g>
    <title>jordyn-a</title>
    <desc>Created with Sketch.</desc>
    <g id="soccer" stroke="none" stroke-width="1" fill="none" fill-rule="evenodd">
      <g id="jordyn-a" fill-rule="nonzero">
        <g id="scratch_footie_player_girl01" transform="translate(29.000000, 4.000000)">
          <path d="M65.305,17.6796047 C66.195,16.1435573 67.155,14.1055336 69.35,14.667747 C71.015,15.0894071 71.775,17.2880632 71.45,18.8743083 C71.125,20.4605534 69.335,21.9865613 67.695,21.9664822 C64.77,21.9162846 65,19.8381028 65.305,17.6796047 Z" id="Shape" fill="#BE8C64"/>
          <path d="M68.4,9.26648221 L54.255,6.93229249 L45.665,5.52173913 C43.555,5.17537549 43.425,4.93944664 42.415,7.15316206 C40.635,11.0585375 41.305,16.6907115 42.52,20.7818182 C43.285,23.3569565 48.02,31.8805138 55.67,31.8805138 C63.32,31.8805138 68.37,23.0356917 68.605,21.0980632 C69.13411,17.1665515 69.0649875,13.1771405 68.4,9.26648221 Z" id="Shape" fill="#DCAA78"/>
          <path d="M40.595,6.46545455 C40.595,6.46545455 36.66,7.77059289 35.015,10.0947431 C32.98,12.976087 32.665,16.3142292 31.805,19.6322925 C31.02,22.6742688 29.525,25.4451779 26.56,26.7402767 C23.595,28.0353755 19.93,27.1418577 18.39,24.0697628 C15.63,18.5781423 18.16,9.13596838 23.19,5.79782609 C25.955,3.96059289 29.345,3.89031621 32.51,4.29189723 C35.2933674,4.63128082 38.0151622,5.36300339 40.595,6.46545455 Z" id="Shape" fill="#000000"/>
          <path d="M42.385,6.72648221 C45.385,1.1344664 52.715,-0.632490119 59.125,0.75798419 C67.085,2.47976285 69.8,8.07679842 69.165,14.8936364 C64.82,14.9839921 42.645,7.4443083 42.385,6.72648221 Z" id="Shape" fill="#000000"/>
          <path d="M41.5,10.5666008 C40.2510553,9.70675674 39.7959441,8.07161087 40.42,6.68632411 C41.46,4.17644269 43.92,5.18039526 43.92,5.18039526 L41.5,10.5666008 Z" id="Shape" fill="#F01446"/>
          <path d="M60.65,14.5573123 C61.0260404,15.235801 61.3374225,15.9484241 61.58,16.6856917 C61.72,17.293083 61.985,18.0058893 61.37,18.5881818 C61.0258651,18.9703194 60.4718678,19.078694 60.01,18.8542292 C59.575,18.6785375 59.51,18.3120949 59.445,17.8904348 C59.4109288,16.9486153 59.6506825,16.0172058 60.135,15.2098814 C60.2857715,14.9765308 60.4582074,14.7580331 60.65,14.5573123 Z" id="Shape" fill="#BE8C64"/>
          <path d="M58.095,22.6290909 C57.27,22.2927668 56.47,21.9162846 55.625,21.6251383 C54.96,21.399249 54.125,20.8470751 53.455,20.7416601 C51.88,20.4856522 51.955,22.5588142 52.455,23.5928854 C53.565,25.8919368 58.69,25.9170356 59.81,23.5928854 C59.2676785,23.2216098 58.6937869,22.8990946 58.095,22.6290909 Z" id="Shape" fill="#000000"/>
          <path d="M55.155,14.7932411 C55.6,14.667747 55.84,14.7932411 55.915,15.02917 C56.025,15.3956126 55.99,16.7459289 55.63,16.996917 L55.13,16.8212253 L55.155,14.7932411 Z" id="Shape" fill="#000000"/>
          <path d="M65.605,17.0671937 C65.105,16.9517391 64.815,16.1134387 65.105,15.536166 C65.185,15.3705138 65.345,15.1948221 65.46,15.2098814 C65.575,15.2249407 65.75,15.4458103 65.775,15.621502 C65.9039806,16.1075356 65.8431697,16.6246755 65.605,17.0671937 Z" id="Shape" fill="#000000"/>
          <path d="M51.73,6.26466403 L43.67,19.0349407 L41.36,18.773913 C41.36,18.773913 36.23,2.60023715 51.905,0.501976285 L51.73,6.26466403 Z" id="Shape" fill="#000000"/>
          <polygon id="Shape" fill="#000000" points="46.58 5.09003953 49.315 17.0571542 53.13 6.7415415"/>
          <path d="M43.69,14.0904743 C43.69,14.0904743 45.765,18.4526482 45.875,20.3601581 C44.8,20.3601581 41.845,21.1131225 40.46,20.7567194 C39.345,20.4705929 38.145,19.6122134 37.885,18.4375889 C37.65,17.3733992 37.08,15.1446245 37.53,14.1908696 C39.225,10.6218182 43.69,14.0904743 43.69,14.0904743 Z" id="Shape" fill="#DCAA78"/>
          <path d="M30.27,89.1560079 C29.41,93.9498814 27.98,100.661304 27.825,101.429328 L38.825,101.755613 C39.52,100.606087 43.65,92.2180632 45.3,89.1560079 L30.27,89.1560079 Z" id="Shape" fill="#BE8C64"/>
          <path d="M44.09,94.6375889 C44.09,94.6375889 52.69,78.3484585 52.93,75.8988142 L31.975,76.4459684 C30.975,78.4538735 30.87,81.2950593 30.33,83.4736364 C29.3824643,87.1899907 28.213698,90.845926 26.83,94.4217391 L44.09,94.6375889 Z" id="Shape" fill="#BE0A3C"/>
          <path d="M40.33,100.194466 C36.08,100.239644 31.83,100.194466 27.57,100.350079 C25.44,108.16585 22.525,116.071976 20.84,123.942964 L21.15,124.545336 C20.975,124.921818 20.09,126.166719 20.65,126.698814 L21.15,126.738972 C21.385,125.850474 21.56,124.936877 22.33,124.329486 C22.965,124.414822 23.62,124.163834 24.3,124.480079 L23.595,126.487984 L24.305,126.754032 C24.99,125.122609 24.945,124.429881 26.92,124.429881 L26.29,125.93581 C27.04,127.311225 27.46,124.615613 27.79,124.374664 C28.48,124.525257 29.29,123.947984 29.935,124.374664 C29.7479212,125.180049 29.4919719,125.967727 29.17,126.728933 L30.02,126.894585 C30.165,125.890632 30.285,124.921818 30.91,124.04336 C31.675,124.173874 32.545,124.600553 33.11,123.912846 L32.685,123.330553 C30.685,123.456047 28.185,123.19502 26.28,123.722095 C26.575,122.432016 27.87,121.006403 28.545,119.917115 C30.045,117.504282 31.545,115.088103 33.045,112.668577 C35.33,108.953953 37.87,105.309605 39.675,101.333953 C39.9336347,101.006926 40.1425707,100.643226 40.295,100.254704 L40.33,100.194466 Z" id="Shape" fill="#000000"/>
          <polygon id="Shape" fill="#F01446" points="30.355 112.638458 22.855 112.432648 23.955 108.492134 30.7 108.632688"/>
          <path d="M33.88,104.842767 C40.22,106.03747 35.045,118.96336 29.73,119.334822 C22.855,119.836798 28.16,104.892964 33.87,104.892964 L33.88,104.842767 Z" id="Shape" fill="#00A08C"/>
          <path d="M33.085,107.74419 C36.805,108.446957 33.77,116.031818 30.65,116.247668 C26.615,116.528775 29.73,107.774308 33.08,107.774308 L33.085,107.74419 Z" id="Shape" fill="#008264"/>
          <path d="M68.65,74.3979051 C67.335,74.0063636 57.345,73.5495652 57.345,73.5495652 L57.56,85.3911858 C59.83,86.0437549 66.295,85.1401976 68.42,84.3621344 C68.74,82.464664 68.625,75.9941897 68.65,74.3979051 Z" id="Shape" fill="#DCAA78"/>
          <path d="M91.87,75.5122925 L91.87,75.0103162 L91.37,74.7442688 C90.78,74.9049012 90.245,75.1759684 89.575,74.9751779 L89.7,73.6850988 C90.221534,73.3500452 90.8377063,73.1949527 91.455,73.2433597 L91.735,72.7413834 C91.055,72.0637154 90.505,72.8267194 89.735,72.2996443 C89.735,71.4864427 90.735,68.8611067 89.955,68.2185771 L89.31,68.283834 C89.09,70.2917391 88.77,75.0705534 88.77,75.0705534 L67.31,73.3939526 L66.615,85.662253 L91.19,80.6424901 L91.255,79.9497628 L88.8,79.9497628 C88.8,79.9497628 88.8,78.7149012 88.855,78.3936364 L91.415,78.0924506 L91.55,77.5452964 C90.99,77.0132016 89.895,77.3947036 89.175,76.9479447 L89.525,76.0343478 L91.87,75.5122925 Z" id="Shape" fill="#000000"/>
          <polygon id="Shape" fill="#BE0A3C" points="79.09 83.8902767 79.325 76.0042292 75.405 77.1186166 75.14 84.5478656"/>
          <path d="M85,75.2111067 C85,79.0713043 74.6,79.0411858 72.18,76.8475494 C66,71.2304348 84.9,71.3509091 85,75.2111067 Z" id="Shape" fill="#00A08C"/>
          <path d="M82.235,75.2964427 C82.235,77.6456917 75.91,77.6256126 74.44,76.3003953 C70.67,72.8668775 82.175,72.9371542 82.235,75.2964427 Z" id="Shape" fill="#008264"/>
          <path d="M28.3,70.040751 C33.9,70.040751 62.3,71.0447036 62.3,71.0447036 L61.33,86.3047826 C61.33,86.3047826 44.195,86.6260474 40.435,86.274664 C32.53,85.5367589 25.38,78.4488538 28.3,70.040751 Z" id="Shape" fill="#F01446"/>
          <path d="M99.28,52.7075099 C98.69,52.155336 102.32,50.4887747 102.08,49.9767589 C101.84,49.4647431 98.58,51.3622134 98.135,50.8501976 C97.69,50.3381818 101.135,48.7971146 100.96,48.4356917 C100.785,48.0742688 99.5,48.8573518 96.755,49.6655336 C95.78,49.9516601 93.575,50.7548221 92.385,50.9305138 C90.8687859,51.2003128 89.3235307,51.2661487 87.79,51.1262846 C87.855,51.2116206 79.79,49.7307905 77.405,48.957747 C76.02,48.5059684 71.35,45.9458893 67.305,44.3094466 L67.305,56.6831621 C71.195,57.6017787 80.45,59.5946245 88.845,58.1489328 C95.78,56.9542292 102.38,52.4113439 102.57,51.8641897 C103,50.6293281 99.87,53.2496443 99.28,52.7075099 Z" id="Shape" fill="#DCAA78"/>
          <path d="M57.645,38.777668 C57.645,38.777668 53.59,37.04083 50.83,43.6217391 C48.07,50.2026482 56.33,53.3199209 56.33,53.3199209 C59.13,54.7405138 67.025,56.3317787 67.025,56.3317787 L70.56,44.726087 C70.56,44.726087 57.565,38.7073913 57.645,38.777668 Z" id="Shape" fill="#008264"/>
          <polygon id="Shape" fill="#F01446" points="68.87 43.0143478 65.105 57.235336 67.825 58.1740316 72.055 44.8365217"/>
          <path d="M93.5,52.8932411 C91.83,52.7727668 91.405,51.0660474 91.405,51.0660474 C91.405,51.0660474 95.77,46.9598814 96.245,47.3564427 C96.72,47.753004 95.84,48.8623715 95.18,50.0871937 C97,51.4375099 95.165,53.0086957 93.5,52.8932411 Z" id="Shape" fill="#BE8C64"/>
          <path d="M51.11,37.0458498 C47.99,37.316917 40.22,36.2627668 35.395,47.5873518 C31.965,55.6189723 24.625,76.0594466 24.625,76.0594466 L62.935,73.0174704 C62.935,73.0174704 61.74,58.1840711 60.5,46.1818182 C59.6,37.3671146 55.145,36.6944664 51.11,37.0458498 Z" id="Shape" fill="#00A08C"/>
          <polygon id="Shape" fill="#F01446" points="26.365 102.714387 40.92 102.543715 41.255 99.336087 26.46 99.4164032"/>
          <polygon id="Shape" fill="#F01446" points="65.16 86.6963241 68.695 86.6611858 69.595 72.5004348 66.66 72.6359684"/>
          <path d="M8.94,68.3290119 C6.765,67.711581 9.82,59.1026877 10.34,58.2894862 C10.745,59.1679447 9.915,67.8722134 8.94,68.3290119 Z" id="Shape" fill="#BE8C64"/>
          <path d="M19.56,36.343083 C15.81,38.5818972 12.52,41.1068379 10.135,44.7562055 C5.795,51.3973518 -0.365,66.803004 0.18,67.5158103 C0.725,68.2286166 1.74,63.8865217 3.015,64.3132016 C4.29,64.7398814 1.74,69.0066798 2.375,69.5789328 C3.01,70.1511858 5.07,64.8854545 5.635,65.3121344 C6.2,65.7388142 4.22,69.3681028 4.57,69.6542292 C4.92,69.9403557 11.155,58.8316206 14.805,54.5949407 C16.525,52.5870356 19.685,48.8623715 21.855,47.3765217 C24.655,45.4589723 28.715,44.259249 32.23,44.9168379 C32.23,44.9168379 38.84,46.4629249 39.37,40.4894071 C39.9,34.5158893 34.37,33.5621344 34.37,33.5621344 C30.795,33.0902767 22.58,34.5359684 19.56,36.343083 Z" id="Shape" fill="#DCAA78"/>
          <path d="M42.36,32.8493281 C38.0153566,32.4943221 33.6453014,32.6087595 29.325,33.1906719 L30.57,45.318419 C30.57,45.318419 37.07,44.9419368 42.035,49.5149407 C42.035,49.5149407 49.1,56.2213439 56.035,50.3632806 C62.97,44.5052174 58.275,38.3158498 54.44,36.4585375 C51.26,34.9325296 46.615,33.1806324 42.36,32.8493281 Z" id="Shape" fill="#00A08C"/>
          <polygon id="Shape" fill="#F01446" points="27.535 31.9256917 28.915 47.3263241 32.75 47.3263241 31.37 31.7750988"/>
        </g>
      </g>
    </g>
  </g>
</svg>