<svg width="114px" height="117px" viewBox="0 0 114 117" version="1.1" xml:space="preserve" xmlns="http://www.w3.org/2000/svg" xmlns:xlink="http://www.w3.org/1999/xlink">
  <!-- Generator: Sketch 48.2 (47327) - http://www.bohemiancoding.com/sketch -->
  <defs/>
  <g>
    <title>strawberry-c</title>
    <desc>Created with Sketch.</desc>
    <g id="food" stroke="none" stroke-width="1" fill="none" fill-rule="evenodd">
      <g id="strawberry-c" fill-rule="nonzero">
        <g id="scratch_fridge_strawberry03" transform="translate(15.000000, 3.000000)">
          <path d="M23.1391262,61.2868613 C22.8127184,57.4970803 14.0713592,55.7667883 11.0500971,51.4029197 C8.02883495,47.0390511 7.77805825,40.6277372 7.17699029,36.8740876 C6.52815534,32.8394161 6.7431068,23.3810219 5.79572816,23.3167883 C4.84834951,23.2525547 5.97087379,27.1467153 4.95184466,27.2109489 C3.93281553,27.2751825 4.15572816,23.3167883 3.40339806,23.1441606 C2.65106796,22.9715328 3.04116505,27.419708 1.93854369,27.2109489 C1.34145631,27.0985401 1.34543689,23.7664234 0.83592233,23.8948905 C0.326407767,24.0233577 -0.955339806,41.679562 2.71873786,50.3270073 C6.39281553,58.9744526 9.66087379,64.5788321 18.0758252,65.1529197 C21.6583495,65.4058394 23.465534,65.0766423 23.1391262,61.2868613 Z" id="Shape" fill="#BE0A3C"/>
          <path d="M7.96116505,26.6850365 C7.36009709,26.379927 6.55203883,28.6923358 6.55203883,28.6923358 C5.82359223,28.8167883 3.96864078,29.2784672 3.89300971,30.699635 C3.80145631,32.4540146 5.68427184,34.629927 6.87446602,32.7069343 C6.88640777,32.6708029 8.57417476,26.9941606 7.96116505,26.6850365 Z" id="Shape" fill="#82001E"/>
          <path d="M58.8608738,61.2868613 C59.1872816,57.4970803 67.9286408,55.7667883 70.9499029,51.4029197 C73.971165,47.0390511 74.2219417,40.6277372 74.8230097,36.8740876 C75.4718447,32.8394161 75.2568932,23.3810219 76.2042718,23.3167883 C77.1516505,23.2525547 76.0291262,27.1467153 77.0481553,27.2109489 C78.0671845,27.2751825 77.8442718,23.3167883 78.5966019,23.1441606 C79.348932,22.9715328 78.958835,27.419708 80.0614563,27.2109489 C80.6585437,27.0985401 80.6545631,23.7664234 81.1640777,23.8948905 C81.6735922,24.0233577 82.9553398,41.679562 79.2812621,50.3270073 C75.6071845,58.9744526 72.3391262,64.5788321 63.9241748,65.1529197 C60.3376699,65.4058394 58.5145631,65.0766423 58.8608738,61.2868613 Z" id="Shape" fill="#BE0A3C"/>
          <path d="M74.038835,26.6850365 C74.6399029,26.379927 75.4479612,28.6923358 75.4479612,28.6923358 C76.1764078,28.8167883 78.0313592,29.2784672 78.1069903,30.699635 C78.1985437,32.4540146 76.3157282,34.629927 75.125534,32.7069343 C75.1135922,32.6708029 73.4258252,26.9941606 74.038835,26.6850365 Z" id="Shape" fill="#82001E"/>
          <path d="M60.2381553,74.3062044 C60.078932,74.2259124 62.0294175,65.3135036 55.1987379,65.3135036 C48.3680583,65.3135036 48.4317476,104.09854 49.7095146,108.598905 C50.2070874,110.365328 50.9036893,109.803285 52.1615534,109.89562 C53.4194175,109.987956 54.2075728,110.032117 53.7537864,109.201095 C53.662233,109.032482 52.0660194,109.273358 52.0660194,109.273358 C52.0660194,109.273358 54.9121359,101.448905 56.0107767,97.4624088 C56.5561165,95.4832117 57.0815534,93.479927 57.5233981,91.4726277 C57.762233,90.4167883 60.5048544,75.3660584 60.2381553,74.3062044 Z" id="Shape" fill="#82001E"/>
          <path d="M22.8326214,74.7156934 C22.9361165,74.7919708 26.2837864,94.519708 26.5823301,95.7160584 C26.9803883,97.2817518 27.326699,98.8273723 27.688932,100.39708 C28.2780583,102.94635 29.9817476,106.242336 29.8464078,108.851825 C29.4801942,108.875912 27.8919417,108.707299 27.688932,108.879927 C26.4430097,109.943796 28.1626214,109.682847 28.556699,109.74708 C29.5945882,109.836935 30.6388236,109.820795 31.6734951,109.698905 C33.0905825,109.530292 32.8119417,109.550365 33.1741748,108.068978 C33.7792233,105.591971 35.8292233,67.7985401 28.4412621,67.9229927 C21.053301,68.0474453 22.9281553,74.6193431 22.8326214,74.7156934 Z" id="Shape" fill="#82001E"/>
          <path d="M34.6867961,17.4675182 C33.1184466,13.280292 31.6297087,6.08613139 33.8230097,1.91094891 C35.8371845,-1.9189781 39.36,0.55 41.0398058,6.62408759 C42.4568932,11.7346715 42.2021359,20.1572993 42.2658252,21.9357664 C42.3374757,23.8989051 42.1026214,25.8218978 42.0190291,27.7729927 C41.9513592,29.4189781 42.5365049,32.1609489 41.9513592,33.6463504 C39.0097087,28.5036496 36.7646602,23.0116788 34.6867961,17.4675182 Z" id="Shape" fill="#82783C"/>
          <path d="M41.9871845,33.570073 C39.6625243,33.6905109 36.7726214,31.3138686 34.9813592,30.0171533 C34.0260194,29.3065693 22.14,19.6715328 18.907767,14.8540146 C17.4468932,12.6861314 16.0735922,10.5262774 16.4278641,7.80437956 C16.9015534,4.15510949 19.3695146,3.32408759 22.5659223,4.91386861 C27.5217476,7.37883212 31.665534,12.8989051 34.2648544,17.6923358 C35.5585437,20.0729927 36.7885437,22.509854 38.0981553,24.8624088 C39.36,27.1386861 42.0468932,30.880292 41.9871845,33.570073 Z" id="Shape" fill="#A0AA1E"/>
          <path d="M41.5493204,33.4375912 C41.3980583,31.7474453 42.5166019,29.4872263 42.8987379,27.8412409 C43.2967961,26.0788321 43.6948544,24.3445255 44.2600971,22.6222628 C45.3276322,19.0817023 46.5996106,15.6071545 48.0695146,12.2164234 C49.3950485,9.28175182 50.8041748,6.02189781 52.9417476,3.58905109 C54.7608738,1.50145985 58.22,-0.702554745 60.7237864,1.81861314 C62.8852427,3.99854015 61.5199029,8.50291971 60.7556311,11.0521898 C59.7087379,14.4525547 57.8418447,17.2627737 55.7281553,20.0729927 C53.7378641,22.7226277 44.2282524,32.5423358 41.5493204,33.4375912 Z" id="Shape" fill="#A0AA1E"/>
          <path d="M41.8956311,33.5580292 C42.9942718,32.1087591 44.7974757,30.9043796 46.1309709,29.6277372 C47.8585437,27.9737226 49.6219417,26.3638686 51.3773786,24.7459854 C53.928932,22.3974453 56.6556311,19.9886861 60.2301942,19.5270073 C61.5238835,19.3624088 63.8764078,19.2821168 64.322233,20.8959854 C64.7202913,22.3813869 62.7817476,24.079562 61.8264078,24.8784672 C60.4088303,26.0176163 58.8912587,27.0240908 57.2925243,27.8854015 C56.4048544,28.3952555 45.8005825,32.4259124 41.8956311,33.5580292 Z" id="Shape" fill="#A0AA1E"/>
          <path d="M41.6408738,33.6343066 C41.3701942,28.660219 41.9433981,23.7784672 42.1026214,18.8364964 C42.1185618,16.2592078 42.4013909,13.6906479 42.9465049,11.1726277 C43.2251456,10.0244526 44.642233,5.95364964 46.091165,8.26605839 C46.9270874,9.59489051 46.3936893,12.5135036 46.3419417,13.9948905 C46.2663107,16.1386861 46.2424272,18.4872263 45.5179612,20.5386861 C45.0402913,21.8715328 41.9035922,33.650365 41.6408738,33.6343066 Z" id="Shape" fill="#A0AA1E"/>
          <path d="M41.2507767,94.7083942 C37.3261598,94.7276107 33.4891748,93.5385271 30.2524272,91.3 C28.1029126,89.7945255 26.4071845,87.5262774 24.9542718,85.3583942 C22.7848544,82.1186131 20.6552427,78.8105839 18.6530097,75.4583942 C15.0277745,69.4259629 12.3755141,62.8511211 10.7953398,55.979562 C9.55339806,50.4153285 9.16330097,40.15 14.8913592,36.7094891 C17.8250485,34.9390511 22.1718447,33.9273723 25.4956311,33.2368613 C28.3735922,32.6386861 31.2117476,31.8879562 34.1693204,31.6310219 C35.8570874,31.4945255 37.5607767,31.3379562 39.2326214,31.6029197 C40.5183495,31.8076642 41.143301,32.5222628 42.0707767,32.530292 C42.2499029,32.530292 43.4162136,31.8759124 43.7386408,31.7956204 C44.3946906,31.6660019 45.0605698,31.5934724 45.728932,31.5788321 C47.8545631,31.4543796 49.8528155,31.7956204 51.9386408,32.1127737 C57.3243689,32.9156934 63.0046602,34.9872263 67.2200971,38.5642336 C72.4784466,43.0244526 71.6226214,49.8492701 70.1657282,55.9875912 C68.5734951,62.7481752 62.8852427,78.1160584 57.4278641,85.5671533 C51.9704854,93.0182482 44.4830097,94.7244526 41.2507767,94.7083942 Z" id="Shape" fill="#F01446"/>
          <path d="M14.9630097,41.3985401 C14.9630097,41.3985401 15.532233,39.8850365 18.0479612,38.5521898 C21.2253919,36.9843778 24.7919529,36.4004701 28.2979612,36.8740876 C36.4462136,38.1386861 35.431165,65.2211679 25.7185437,65.2211679 C20.4562136,65.2211679 16.8975728,62.9368613 15.2297087,57.7540146 C13.8205825,53.370073 12.8095146,46.6094891 14.9630097,41.3985401 Z" id="Shape" fill="#F00A78"/>
          <ellipse id="Oval" fill="#F04650" cx="36.0401942" cy="75.0368613" rx="1" ry="1.02773723"/>
          <ellipse id="Oval" fill="#F04650" cx="55.0156311" cy="46.6215328" rx="1" ry="1.02773723"/>
          <ellipse id="Oval" fill="#F04650" cx="51.8908738" cy="41.840146" rx="1" ry="1.02773723"/>
          <ellipse id="Oval" fill="#F04650" cx="58.8887379" cy="42.3178832" rx="1" ry="1.02773723"/>
          <ellipse id="Oval" fill="#F04650" cx="47.5361165" cy="37.0386861" rx="1" ry="1.02773723"/>
          <ellipse id="Oval" fill="#F04650" cx="39.3878641" cy="39.6120438" rx="1" ry="1.02773723"/>
          <ellipse id="Oval" fill="#F04650" cx="32.704466" cy="38.9054745" rx="1" ry="1.02773723"/>
          <ellipse id="Oval" fill="#F04650" cx="24.237767" cy="38.7127737" rx="1" ry="1.02773723"/>
          <ellipse id="Oval" fill="#F04650" cx="30.2365049" cy="47.1313869" rx="1" ry="1.02773723"/>
          <ellipse id="Oval" fill="#F04650" cx="21.6702913" cy="46.6335766" rx="1" ry="1.02773723"/>
          <ellipse id="Oval" fill="#F04650" cx="46.2702913" cy="77.3572993" rx="1" ry="1.02773723"/>
          <ellipse id="Oval" fill="#F04650" cx="43.1296117" cy="45.5616788" rx="1" ry="1.02773723"/>
          <ellipse id="Oval" fill="#F04650" cx="45.3985437" cy="52.149635" rx="1" ry="1.02773723"/>
          <ellipse id="Oval" fill="#F04650" cx="37.6881553" cy="47.2156934" rx="1" ry="1.02773723"/>
          <ellipse id="Oval" fill="#F04650" cx="29.1418447" cy="81.0266423" rx="1" ry="1.02773723"/>
          <ellipse id="Oval" fill="#F04650" cx="36.0401942" cy="53.5908759" rx="1" ry="1.02773723"/>
          <ellipse id="Oval" fill="#F04650" cx="24.2735922" cy="70.5927007" rx="1" ry="1.02773723"/>
          <ellipse id="Oval" fill="#F04650" cx="31.0843689" cy="60.3474453" rx="1" ry="1.02773723"/>
          <ellipse id="Oval" fill="#F04650" cx="23.827767" cy="60.0824818" rx="1" ry="1.02773723"/>
          <ellipse id="Oval" fill="#F04650" cx="56.1739806" cy="58.5890511" rx="1" ry="1.02773723"/>
          <ellipse id="Oval" fill="#F04650" cx="62.4672816" cy="47.1313869" rx="1" ry="1.02773723"/>
          <ellipse id="Oval" fill="#F04650" cx="63.0882524" cy="57.2481752" rx="1" ry="1.02773723"/>
          <ellipse id="Oval" fill="#F04650" cx="66.4558252" cy="51.8686131" rx="1" ry="1.02773723"/>
          <ellipse id="Oval" fill="#F04650" cx="66.6508738" cy="42.2416058" rx="1" ry="1.02773723"/>
          <ellipse id="Oval" fill="#F04650" cx="54.892233" cy="35.8784672" rx="1" ry="1.02773723"/>
          <ellipse id="Oval" fill="#F04650" cx="15.7312621" cy="42.9642336" rx="1" ry="1.02773723"/>
          <ellipse id="Oval" fill="#F04650" cx="14.0076699" cy="56.730292" rx="1" ry="1.02773723"/>
          <ellipse id="Oval" fill="#F04650" cx="12.2800971" cy="50.3992701" rx="1" ry="1.02773723"/>
          <ellipse id="Oval" fill="#F04650" cx="42.2021359" cy="56.9711679" rx="1" ry="1.02773723"/>
          <ellipse id="Oval" fill="#F04650" cx="59.5256311" cy="66.1485401" rx="1" ry="1.02773723"/>
          <ellipse id="Oval" fill="#F04650" transform="translate(48.077966, 61.626650) rotate(-68.500000) translate(-48.077966, -61.626650) " cx="48.0779662" cy="61.6266498" rx="1.01902913" ry="1"/>
          <ellipse id="Oval" fill="#F04650" cx="51.2579612" cy="50.3992701" rx="1" ry="1.02773723"/>
          <ellipse id="Oval" fill="#F04650" cx="38.8345631" cy="65.7631387" rx="1" ry="1.02773723"/>
          <ellipse id="Oval" fill="#F04650" cx="58.5503883" cy="52.4467153" rx="1" ry="1.02773723"/>
          <ellipse id="Oval" fill="#F04650" cx="59.7963107" cy="74.8441606" rx="1" ry="1.02773723"/>
          <ellipse id="Oval" fill="#F04650" cx="51.4808738" cy="69.239781" rx="1" ry="1.02773723"/>
          <ellipse id="Oval" fill="#F04650" cx="26.5902913" cy="53.6551095" rx="1" ry="1.02773723"/>
          <ellipse id="Oval" fill="#F04650" cx="19.6401942" cy="52.2379562" rx="1" ry="1.02773723"/>
        </g>
      </g>
    </g>
  </g>
</svg>