<svg width="226px" height="108px" viewBox="0 0 226 108" version="1.1" xml:space="preserve" xmlns="http://www.w3.org/2000/svg" xmlns:xlink="http://www.w3.org/1999/xlink">
  <defs/>
  <g>
    <title>owl-c</title>
    <desc>Created with Sketch.</desc>
    <g id="mountain" stroke="none" stroke-width="1" fill="none" fill-rule="evenodd">
      <g id="owl-c">
        <g id="Group-217" transform="translate(110.000000, 55.500000) scale(-1, 1) translate(-110.000000, -55.500000) translate(4.000000, 13.000000)">
          <path d="M105.944205,84.8152174 L92.8919662,84.8152174 C92.8919662,84.8152174 95.7703144,81.8344099 99.7693095,80.4928882 C99.7693095,80.4928882 101.351399,82.0651242 105.592454,82.0651242 C105.592454,82.0651242 105.944205,82.9230435 105.944205,84.8152174" id="Fill-1" fill="#E09D73"/>
          <path d="M105.944205,84.8152174 L92.8919662,84.8152174 C92.8919662,84.8152174 95.5947025,81.7905901 99.7693095,80.4928882 C99.7693095,80.4928882 101.351399,82.0651242 105.592454,82.0651242 C105.592454,82.0651242 105.944205,82.9230435 105.944205,84.8152174 Z" id="Stroke-3" stroke="#362F52" stroke-width="0.5"/>
          <path d="M85.7545274,71.0436335 C85.7545274,71.0436335 88.1276617,47.9458075 101.26797,33.9551242 C101.26797,33.9551242 65.7811741,13.101087 41.7861493,5.31381988 C41.7861493,5.31381988 20.4938607,-2.07748447 0.497830846,17.457205 C0.497830846,17.457205 8.05652736,17.2365217 15.9226766,17.456677 C15.9226766,17.456677 6.51820896,26.827795 7.57293532,39.6744099 C7.57293532,39.6744099 14.3284577,33.6119565 22.4271741,27.7073602 C22.4271741,27.7073602 17.9445871,39.5867702 26.4261692,49.5296584 C26.4261692,49.5296584 28.8430746,47.5936646 31.3923483,45.7901863 C31.3923483,45.7901863 34.0729353,50.3654037 39.7420896,53.8414286 L40.5769055,50.1895963 C40.5769055,50.1895963 45.4117711,56.1728571 51.6520597,58.7249689 L52.6624876,56.4811801 C52.6624876,56.4811801 63.6490448,64.356087 85.7545274,71.0436335" id="Fill-5" fill="#A77E76"/>
          <path d="M85.7241512,71.0436335 L85.9788677,69.2338199 C75.7221811,65.4874845 59.384997,56.248882 56.1264199,51.51 C56.1264199,51.51 53.7358826,53.1376708 52.6405493,56.513913 C52.6405493,56.513913 65.5530368,65.1485404 85.7241512,71.0436335" id="Fill-7" fill="#784451"/>
          <path d="M40.6026935,49.5193634 C40.6026935,49.5193634 36.3832607,47.1953261 35.2383552,43.775264 C35.2383552,43.775264 32.6094498,44.6379348 31.3701463,45.8231832 C30.9746239,46.0211646 36.4159572,52.2266925 39.7119771,53.8416925 C39.9324149,53.4457298 40.6026935,49.5193634 40.6026935,49.5193634" id="Fill-9" fill="#784451"/>
          <path d="M9.23950846,38.1890745 C9.30015522,38.1114658 10.5753194,25.7225839 16.3436179,17.2753789 C16.3436179,17.2753789 6.47190647,26.3328944 7.54245373,39.6741988 C7.54245373,39.6741988 8.97688159,38.5253789 9.23950846,38.1890745" id="Fill-11" fill="#784451"/>
          <path d="M53.1270418,55.1721273 C50.6463254,53.4452019 46.3625542,50.6739907 42.6177483,44.9135248 C42.6177483,44.9135248 41.294594,46.2339286 40.4993303,49.9823758 C40.3717085,50.4760093 46.0076388,56.4407919 51.6298577,58.7579658 C51.7379672,58.8028416 53.1270418,55.1721273 53.1270418,55.1721273" id="Fill-13" fill="#784451"/>
          <path d="M12.7940418,8.54909938 C12.8662905,8.4947205 5.33448955,12.2595342 0.587693532,17.340528 C0.475892537,17.4904658 2.46774328,17.4234161 2.46774328,17.4234161 C2.46774328,17.4234161 4.72485771,14.5862112 12.7940418,8.54909938" id="Fill-15" fill="#784451"/>
          <path d="M29.2005214,47.3668571 C23.2154766,39.0859565 24.9789791,26.745118 26.5832179,25.1232547 C26.8980537,24.8049006 23.133208,26.7783789 22.4049194,27.7403043 C21.4957453,28.9419193 19.1315761,42.6981925 26.326392,49.4475093 C26.5700338,49.577913 28.9473871,47.5563913 29.2005214,47.3668571" id="Fill-17" fill="#784451"/>
          <path d="M85.7241512,71.0436335 C85.7241512,71.0436335 88.0972856,47.9458075 101.237594,33.9551242 C101.237594,33.9551242 65.750798,13.101087 41.7557731,5.31381988 C41.7557731,5.31381988 20.4634846,-2.07748447 0.467454726,17.457205 C0.467454726,17.457205 8.02615124,17.2365217 15.8923005,17.456677 C15.8923005,17.456677 6.48783284,26.827795 7.5425592,39.6744099 C7.5425592,39.6744099 14.2980816,33.6119565 22.396798,27.7073602 C22.396798,27.7073602 17.9142109,39.5867702 26.395793,49.5296584 C26.395793,49.5296584 28.8126985,47.5936646 31.3619721,45.7901863 C31.3619721,45.7901863 34.0425592,50.3654037 39.7117134,53.8414286 L40.5465294,50.1895963 C40.5465294,50.1895963 45.381395,56.1728571 51.6216836,58.7249689 L52.6321114,56.4811801 C52.6321114,56.4811801 63.6186687,64.356087 85.7241512,71.0436335 Z" id="Stroke-19" stroke="#362F52" stroke-width="0.5"/>
          <path d="M87.1306289,43.1061398 C87.1306289,43.1061398 86.274191,42.4599286 84.7748975,41.3301149 C83.2713851,40.2061087 81.1018129,38.6296491 78.4866189,36.7559534 C75.8719522,34.8806739 72.787405,32.7419472 69.4518328,30.4965745 C66.1162607,28.2517298 62.5122607,25.9261087 58.8397035,23.7150528 C55.1750567,21.491854 51.4423801,19.3768851 47.8431264,17.5939969 C44.2465095,15.8111087 40.7938627,14.3259845 37.72039,13.395736 C36.1852358,12.9295559 34.7502806,12.5921957 33.4603502,12.4084689 C32.1709473,12.2226304 31.0281512,12.1920093 30.0963005,12.2785932 C29.163395,12.3688727 28.4525095,12.577941 27.979992,12.7458292 C27.5169672,12.9380031 27.2754348,13.0567919 27.2754348,13.0567919 C27.2754348,13.0567919 27.513803,12.9337795 27.974191,12.7310466 C28.4435443,12.5525994 29.1533751,12.3276925 30.0899721,12.216823 C31.0255144,12.110177 32.1762209,12.1165124 33.4777532,12.2759534 C34.7798129,12.4316988 36.2321711,12.7405497 37.7794547,13.1961708 C40.8766587,14.1021335 44.3709672,15.5286553 47.9849871,17.306264 C51.6016438,19.0812329 55.351196,21.1851149 59.0300816,23.3993385 C62.7010567,25.6288727 66.3003104,27.9713882 69.630609,30.2315435 C72.9619622,32.4911708 76.0101214,34.6869161 78.6079124,36.5875373 C81.2062308,38.4892143 83.3272856,40.1316677 84.8123403,41.2810155 C86.2873751,42.4425062 87.1306289,43.1061398 87.1306289,43.1061398" id="Fill-21" fill="#362F52"/>
          <path d="M40.3618995,50.1504224 C40.3618995,50.1504224 40.4046159,49.8880311 40.4974318,49.5047391 C40.5844468,49.1198634 40.729999,48.6146149 40.8987552,48.1183416 C40.9947353,47.8739006 41.0759493,47.625764 41.1787851,47.402441 C41.2842577,47.1801739 41.3718,46.9695217 41.4651433,46.796882 C41.6618498,46.4595217 41.7926358,46.234087 41.7926358,46.234087 L41.5173522,46.8216957 C41.4403572,46.9996149 41.3723274,47.2171304 41.2879493,47.4436211 C41.2067353,47.6716957 41.148198,47.9251118 41.0754219,48.1716646 C40.9530736,48.6737453 40.8549841,49.1800497 40.8033025,49.5628137 C40.7458199,49.9445217 40.7278896,50.1989938 40.7278896,50.1989938 L40.3618995,50.1504224 Z" id="Fill-23" fill="#362F52"/>
          <path d="M21.939996,27.8486398 C21.939996,27.8486398 22.0354488,27.7763106 22.2026229,27.6501304 C22.3708517,27.5223665 22.6150209,27.347087 22.911399,27.1454099 C23.5004637,26.7346646 24.3141851,26.230472 25.1521652,25.7722112 C25.5819662,25.562087 25.9943642,25.3213416 26.4088716,25.1513416 C26.6145433,25.0631739 26.8133592,24.9781739 27.0016279,24.8973975 C27.1914786,24.8203168 27.3644537,24.7316211 27.5374289,24.6835776 C28.2161453,24.4618385 28.6686229,24.3140124 28.6686229,24.3140124 C28.6686229,24.3140124 28.2245831,24.4829565 27.5585234,24.7369006 C27.3892398,24.7933913 27.2210109,24.8900062 27.0364338,24.9760621 C26.8529114,25.0652857 26.6598965,25.1587329 26.4594985,25.2564037 C26.0576478,25.444354 25.6579065,25.7046335 25.2439264,25.933236 C24.4349512,26.4268696 23.6549811,26.964323 23.0938667,27.3977702 C22.5253692,27.8232981 22.1736179,28.1347888 22.1736179,28.1353168 L21.939996,27.8486398 Z" id="Fill-25" fill="#362F52"/>
          <path d="M21.8738119,41.6748665 C21.8738119,41.6743385 21.9270756,41.296854 22.0504786,40.7435621 C22.1654438,40.1886863 22.3605682,39.4580031 22.5904985,38.7394627 C22.7223393,38.386264 22.8320308,38.025146 22.9744189,37.7015124 C23.0450856,37.5394317 23.1136428,37.3831584 23.1790358,37.2353323 C23.247593,37.0885621 23.2966378,36.9433758 23.3699413,36.8224752 C23.6431154,36.3293696 23.8255831,36.0009845 23.8255831,36.0009845 L23.4226776,36.8462329 C23.3572846,36.9703012 23.3166776,37.1191832 23.2576129,37.2680652 C23.2022398,37.4185311 23.1442299,37.5774441 23.0835831,37.7421646 C22.9628169,38.0705497 22.8763294,38.4358913 22.7676925,38.7917298 C22.5841701,39.5155497 22.4365085,40.2467609 22.357404,40.8000528 C22.268807,41.3522888 22.239802,41.7207981 22.239802,41.7202702 L21.8738119,41.6748665 Z" id="Fill-27" fill="#362F52"/>
          <path d="M24.363599,47.0368882 C24.363599,47.0368882 24.4010418,46.7079752 24.4943851,46.2254286 C24.5792905,45.7412981 24.7301164,45.1035342 24.9099473,44.4747453 C25.0148925,44.1653665 25.1019075,43.8501801 25.2152905,43.5656149 C25.2727731,43.4235963 25.3281463,43.2863292 25.3808826,43.1564534 C25.4362557,43.0276335 25.4763353,42.9014534 25.5359274,42.7937516 C25.7611114,42.3613602 25.91141,42.0725714 25.91141,42.0725714 C25.91141,42.0725714 25.782206,42.3698075 25.5886637,42.8164534 C25.5380368,42.926795 25.506395,43.0561429 25.4610418,43.1870745 C25.417798,43.3190621 25.3729721,43.458441 25.3260368,43.6025714 C25.2342756,43.8913602 25.1699373,44.2097143 25.0887234,44.521205 C24.9558279,45.1536894 24.8519373,45.7909255 24.8023652,46.2713602 C24.7443552,46.7512671 24.7311711,47.070677 24.7311711,47.070677 L24.363599,47.0368882 Z" id="Fill-29" fill="#362F52"/>
          <path d="M21.0711652,34.0273478 C21.0711652,34.0273478 21.1908766,33.7184969 21.4028766,33.2755466 C21.6080209,32.8283727 21.9154736,32.2502671 22.2482398,31.687472 C22.428598,31.4145217 22.5920806,31.1320683 22.7740209,30.8855155 C22.8652547,30.7625031 22.9538517,30.6442422 23.0377025,30.5317888 C23.12419,30.4214472 23.1948567,30.3089938 23.2792348,30.2202981 C23.6072547,29.8586522 23.8255831,29.6173789 23.8255831,29.6173789 C23.8255831,29.6173789 23.6251851,29.8729068 23.3251154,30.2551429 C23.247593,30.349118 23.1848368,30.466323 23.1073144,30.5819441 C23.0324289,30.6980932 22.9533244,30.8221615 22.8715831,30.9493975 C22.7096826,31.2049255 22.5672945,31.496882 22.4096129,31.7777516 C22.1206179,32.3558571 21.8595731,32.9455776 21.6892348,33.3980311 C21.5115134,33.8478447 21.4181701,34.153 21.4181701,34.153 L21.0711652,34.0273478 Z" id="Fill-31" fill="#362F52"/>
          <path d="M31.2031303,45.6907205 C31.2031303,45.6907205 31.4388617,45.5186087 31.8074886,45.292118 C32.1734786,45.0603478 32.6765831,44.7789503 33.1923443,44.5244783 C33.4565532,44.4093851 33.711797,44.2768696 33.9649313,44.1839503 C34.0909711,44.1374907 34.212792,44.092087 34.3282846,44.048795 C34.4448318,44.0081429 34.5503045,43.9579876 34.6557771,43.9347578 C35.0702846,43.8223043 35.3460955,43.7468075 35.3460955,43.7468075 C35.3460955,43.7468075 35.0776677,43.8439503 34.6752896,43.9886087 C34.5735085,44.0202857 34.4722547,44.0794161 34.3604537,44.1279876 C34.2497075,44.1802547 34.1331602,44.2341056 34.0129214,44.2911242 C33.7713891,44.4025217 33.528802,44.5540435 33.2798866,44.6876149 C32.792603,44.9790435 32.3216677,45.2947578 31.9831005,45.5497578 C31.6403144,45.8005342 31.4283144,45.9837329 31.4283144,45.9837329 L31.2031303,45.6907205 Z" id="Fill-33" fill="#362F52"/>
          <path d="M45.4967821,55.0556087 C45.4967821,55.0556087 45.5352796,54.7319752 45.6291502,54.2568199 C45.7156378,53.7806087 45.866991,53.1528758 46.0468219,52.5357019 C46.1517672,52.2305466 46.2387821,51.9211677 46.3521652,51.641354 C46.4091204,51.5025031 46.4644935,51.3673478 46.5172299,51.2390559 C46.572603,51.1128758 46.6121552,50.9888075 46.6717473,50.8837453 C46.8953493,50.4582174 47.044593,50.1747081 47.044593,50.1747081 C47.044593,50.1747081 46.9164438,50.4677205 46.7244836,50.9064472 C46.6733294,51.0141491 46.6427423,51.1413851 46.5968617,51.270205 C46.5541453,51.4000807 46.5093194,51.5373478 46.4629114,51.6788385 C46.3711502,51.9628758 46.3073393,52.2759503 46.225598,52.5821615 C46.0921751,53.2046149 45.9877572,53.8312919 45.9371303,54.3043354 C45.878593,54.7768509 45.8643542,55.0904534 45.8643542,55.0904534 L45.4967821,55.0556087 Z" id="Fill-35" fill="#362F52"/>
          <path d="M60.9398746,61.3343106 C60.9398746,61.3343106 60.946203,61.2603975 60.9572776,61.1315776 C60.9678249,61.000118 60.9899741,60.8158634 61.0226706,60.596764 C61.0485114,60.3766087 61.1054667,60.1237205 61.1529294,59.8512981 C61.2193771,59.5836273 61.2779144,59.2948385 61.3633473,59.013441 C61.4588,58.7341553 61.5231383,58.4469503 61.6381035,58.195118 C61.7467403,57.9422298 61.8258448,57.6977888 61.9318448,57.504559 C62.1375164,57.1180994 62.2741035,56.8594037 62.2741035,56.8594037 C62.2741035,56.8594037 62.1586109,57.1265466 61.9845811,57.5277888 C61.8954567,57.7262981 61.8358647,57.9760186 61.7483224,58.2326025 C61.6555065,58.4876025 61.6143721,58.7779752 61.5426507,59.0572609 C61.4804219,59.3397143 61.4461433,59.6279752 61.4013174,59.8935342 C61.3770587,60.1633168 61.3401433,60.4135652 61.3322328,60.6289689 C61.3174667,60.8449006 61.3106109,61.0233478 61.3100836,61.1468882 C61.3095562,61.2725404 61.3090289,61.3448696 61.3090289,61.3448696 L60.9398746,61.3343106 Z" id="Fill-37" fill="#362F52"/>
          <path d="M56.3375761,58.8724255 C56.3375761,58.8724255 56.3760736,58.5487919 56.4699443,58.0736366 C56.5564318,57.5974255 56.7077851,56.9696925 56.8876159,56.3525186 C56.9925612,56.0473634 57.0795761,55.7379845 57.1929592,55.4581708 C57.2499144,55.3193199 57.3052876,55.1841646 57.3580239,55.0564006 C57.413397,54.9296925 57.4529493,54.8056242 57.5125413,54.7005621 C57.7361433,54.2750342 57.8853871,53.9915248 57.8853871,53.9915248 C57.8853871,53.9915248 57.7572378,54.2845373 57.5652776,54.723264 C57.5141234,54.8309658 57.4835363,54.9582019 57.4376557,55.0870217 C57.3949393,55.2168975 57.3501134,55.3541646 57.3037055,55.4956553 C57.2119443,55.7796925 57.1481333,56.0927671 57.066392,56.3989783 C56.9329692,57.0214317 56.8285512,57.6481087 56.7779244,58.1211522 C56.7193871,58.5936677 56.7051483,58.9072702 56.7051483,58.9072702 L56.3375761,58.8724255 Z" id="Fill-39" fill="#362F52"/>
          <path d="M66.535409,64.0926398 C66.535409,64.0926398 66.5285532,64.0345652 66.5264438,63.9157764 C66.5195881,63.7975155 66.5259164,63.6375466 66.5338269,63.4453727 C66.535409,63.3492857 66.5522846,63.2463354 66.5623045,63.1370497 C66.5760159,63.0288199 66.5802348,62.9131988 66.606603,62.7965217 C66.6535383,62.5626398 66.6883443,62.3113354 66.7674488,62.0700621 C66.8328418,61.8250932 66.9045632,61.5843478 67.001598,61.3678882 C67.0907224,61.1493168 67.1624438,60.9418323 67.2610607,60.7808075 C67.4387821,60.4508385 67.5574388,60.2306832 67.5574388,60.2306832 C67.5574388,60.2306832 67.4598766,60.4598137 67.3143244,60.8040373 C67.2315284,60.9713975 67.1793194,61.1836335 67.1118169,61.4053727 C67.0369313,61.625 66.9889413,61.8673292 66.9472796,62.1101863 C66.8919065,62.3498758 66.8813592,62.5969565 66.8571005,62.8250311 C66.8423343,62.9385404 66.84919,63.0499379 66.8449711,63.155 C66.8454985,63.2595342 66.8381154,63.3582609 66.8449711,63.4490683 C66.854991,63.6312112 66.8629015,63.782205 66.878195,63.8819876 C66.8882149,63.9812422 66.901399,64.0461801 66.901399,64.0461801 L66.535409,64.0926398 Z" id="Fill-41" fill="#362F52"/>
          <path d="M34.8820159,50.226236 C34.8820159,50.226236 34.9347522,50.0161118 35.0349512,49.7104286 C35.130404,49.4031615 35.2817572,49.0029752 35.4473493,48.6091242 C35.5406925,48.4164224 35.6245433,48.2205528 35.7189413,48.0442174 C35.8186129,47.8705217 35.9051005,47.7063292 35.9894786,47.570646 C36.1714189,47.3098385 36.2927124,47.1356149 36.2927124,47.1356149 C36.2927124,47.1356149 36.1914587,47.3209255 36.0395781,47.5986273 C35.9710209,47.7411739 35.9035184,47.9132857 35.8254687,48.0933168 C35.7516378,48.2759876 35.6904637,48.4771366 35.6203244,48.6745901 C35.3677174,49.4786584 35.2437871,50.301205 35.2437871,50.3017329 L34.8820159,50.226236 Z" id="Fill-43" fill="#362F52"/>
          <path d="M72.0660249,66.3451925 C72.0660249,66.3451925 72.0697164,66.1361242 72.0997761,65.8283292 C72.1245622,65.5205342 72.1820448,65.1129565 72.2585124,64.7106584 C72.3065025,64.5105652 72.3418358,64.3094161 72.397209,64.1251615 C72.4552189,63.9414348 72.4995174,63.768795 72.5533085,63.6257205 C72.6693284,63.3427391 72.7463234,63.1547888 72.7463234,63.1547888 C72.7463234,63.1547888 72.6914776,63.3496025 72.6086816,63.642087 C72.5717662,63.7888571 72.5475075,63.9646646 72.5116468,64.1499752 C72.4778955,64.3347578 72.4657662,64.5374907 72.4409801,64.736528 C72.3708408,65.5421801 72.4351791,66.3356894 72.4351791,66.3356894 L72.0660249,66.3451925 Z" id="Fill-45" fill="#362F52"/>
          <path d="M76.9629085,68.2848292 C76.9629085,68.2848292 76.9987692,67.6734627 77.1211174,67.0847981 C77.1833463,66.789146 77.267197,66.4998292 77.3420826,66.2881211 C77.4296249,66.0816925 77.4881622,65.9438975 77.4881622,65.9438975 C77.4881622,65.9438975 77.4517741,66.088028 77.3974557,66.3034317 C77.3568488,66.5220031 77.3199333,66.8144876 77.3035851,67.108028 C77.2756348,67.6993323 77.3315353,68.2774379 77.3315353,68.2774379 L76.9629085,68.2848292 Z" id="Fill-47" fill="#362F52"/>
          <path d="M81.197793,69.7227547 C81.197793,69.7227547 81.1988478,69.6314193 81.2014846,69.4952081 C81.2062308,69.3563571 81.2109771,69.1726304 81.2368179,68.9904876 C81.2494746,68.8099286 81.284808,68.6298975 81.3254149,68.4979099 C81.3586388,68.3680342 81.3807881,68.2814503 81.3807881,68.2814503 C81.3807881,68.2814503 81.3813154,68.3706739 81.3828975,68.5058292 C81.3770965,68.6383447 81.3881711,68.8125683 81.421395,68.9878478 C81.4419622,69.1620714 81.4820418,69.3331273 81.5105194,69.4598354 C81.5421612,69.5886553 81.5632557,69.6741832 81.5632557,69.6741832 L81.197793,69.7227547 Z" id="Fill-49" fill="#362F52"/>
          <path d="M7.57504478,34.2325093 C7.57504478,34.2325093 7.69475622,33.9236584 7.90675622,33.4807081 C8.1119005,33.0335342 8.41935323,32.4554286 8.7521194,31.8926335 C8.93247761,31.6196832 9.0959602,31.3372298 9.2779005,31.090677 C9.36913433,30.9676646 9.45773134,30.8494037 9.54158209,30.7369503 C9.62806965,30.6266087 9.69873632,30.5141553 9.78311443,30.4254596 C10.1111343,30.0638137 10.3294627,29.8225404 10.3294627,29.8225404 C10.3294627,29.8225404 10.1290647,30.0780683 9.82899502,30.4603043 C9.75147264,30.5542795 9.68871642,30.6714845 9.61119403,30.7871056 C9.53630846,30.9032547 9.45720398,31.027323 9.37546269,31.154559 C9.21356219,31.410087 9.07117413,31.7020435 8.91349254,31.982913 C8.62449751,32.5610186 8.36345274,33.1507391 8.19311443,33.6031925 C8.01539303,34.0530062 7.92204975,34.3581615 7.92204975,34.3581615 L7.57504478,34.2325093 Z" id="Fill-51" fill="#362F52"/>
          <path d="M9.44628756,27.2598696 C9.44628756,27.2598696 9.60027761,27.0434099 9.85077512,26.7371988 C9.97259602,26.5809255 10.125004,26.4072298 10.2853224,26.2198075 C10.4456408,26.0323851 10.6307453,25.8439068 10.8079393,25.6501491 C10.9972627,25.4669503 11.1828945,25.2805839 11.3648348,25.1153354 C11.5546856,24.9569503 11.7281881,24.8064845 11.8811234,24.683472 C12.2049244,24.4617329 12.4211433,24.3139068 12.4211433,24.3139068 C12.4211433,24.3139068 12.2202179,24.4791553 11.9180388,24.7278199 C11.7772328,24.8629752 11.6184965,25.0271677 11.4465761,25.1987516 C11.2815114,25.3777267 11.115392,25.5772919 10.9455811,25.7731615 C10.7878995,25.9795901 10.6228348,26.1796832 10.4820289,26.3776646 C10.3406955,26.575646 10.2072726,26.7588447 10.1018,26.9214534 C9.883999,27.2429752 9.7537403,27.4652422 9.7537403,27.4652422 L9.44628756,27.2598696 Z" id="Fill-53" fill="#362F52"/>
          <path d="M52.398595,56.5307019 C52.398595,56.5307019 52.5241075,56.2297702 52.7456,55.7994907 C52.9591821,55.3649876 53.2777095,54.8037764 53.6204955,54.2594596 C53.8056,53.9954845 53.9743562,53.7220062 54.1605154,53.4839006 C54.2538587,53.3661677 54.3440378,53.2516025 54.4294706,53.1433727 C54.5175403,53.0372547 54.5903164,52.9284969 54.6757493,52.8434969 C55.0079881,52.4961056 55.2294806,52.2648634 55.2294806,52.2648634 C55.2294806,52.2648634 55.0259184,52.5108882 54.7205751,52.8799255 C54.641998,52.969677 54.5771323,53.0837143 54.4980279,53.1951118 C54.4210328,53.3080932 54.3403463,53.4274099 54.2559682,53.5504224 C54.0903761,53.7980311 53.9421871,54.0815404 53.7797592,54.3539627 C53.4802169,54.9151739 53.2075701,55.488528 53.0282667,55.9293665 C52.8421075,56.3675652 52.7419085,56.6658571 52.7419085,56.6658571 L52.398595,56.5307019 Z" id="Fill-55" fill="#362F52"/>
          <path d="M126.50831,83.5732143 C126.50831,83.5732143 87.2445393,88.1927795 81.750997,61.795264 C77.2351861,40.0938665 85.1113552,34.3418478 86.1460418,32.6260093 C87.027793,31.163059 118.007743,30.0300776 118.007743,30.0300776 C118.007743,30.0300776 128.969514,47.3647981 126.50831,83.5732143" id="Fill-57" fill="#C7B4B0"/>
          <path d="M126.50831,83.5732143 C126.50831,83.5732143 87.2445393,88.1927795 81.750997,61.795264 C77.2351861,40.0938665 85.1113552,34.3418478 86.1460418,32.6260093 C87.027793,31.163059 118.007216,30.0300776 118.007216,30.0300776 C118.007216,30.0300776 128.969514,47.3647981 126.50831,83.5732143 Z" id="Stroke-59" stroke="#362F52" stroke-width="0.5"/>
          <path d="M86.9599214,62.5206677 C86.9599214,62.5206677 87.0142398,62.910823 87.1719214,63.5792081 C87.2594637,63.9112888 87.3517522,64.3178106 87.5020507,64.7718478 C87.5753542,64.9988665 87.6528766,65.2401398 87.7351453,65.4951398 C87.8284886,65.7459161 87.9265781,66.0093634 88.0288866,66.2849534 C88.2282299,66.8366615 88.501404,67.4126553 88.7772149,68.0240217 C89.0915234,68.6179658 89.3910657,69.2599534 89.7802597,69.880823 C89.9701104,70.1933696 90.1478318,70.5206988 90.3550856,70.8353571 C90.5697224,71.144736 90.786996,71.4583385 91.0058517,71.7735248 L91.3359811,72.2481522 L91.7035532,72.6990217 L92.4418617,73.6055124 C92.9502398,74.1957609 93.5018617,74.7495807 94.0223692,75.3150155 C94.5929761,75.830295 95.1540905,76.3371273 95.697802,76.8275932 C96.2779015,77.2747671 96.8390159,77.7071584 97.3711254,78.1168478 C97.9011254,78.5307609 98.4590756,78.8411957 98.9447771,79.1711646 C99.4399711,79.4863509 99.8803194,79.7999534 100.308538,80.0127174 C100.728319,80.2418478 101.093782,80.441413 101.395434,80.6061335 C101.996628,80.9403261 102.340469,81.1309161 102.340469,81.1309161 C102.340469,81.1309161 101.985026,80.9635559 101.363265,80.6705435 C101.052648,80.5216615 100.675583,80.3411025 100.242618,80.1330901 C99.8001602,79.943028 99.342409,79.6531832 98.8361403,79.3485559 C98.3372547,79.0323137 97.7640109,78.7371894 97.2160806,78.3375311 C96.6676229,77.9389286 96.0854139,77.5218478 95.4947672,77.0752019 C94.9389264,76.584736 94.3651552,76.0779037 93.7818915,75.5620963 C93.2492547,74.9956056 92.6828667,74.4407298 92.1618318,73.8457298 L91.4224687,72.9181211 L91.0554239,72.4572205 L90.7252945,71.9720342 C90.5069662,71.6499845 90.2896925,71.3305745 90.0755831,71.0143323 C89.8693841,70.6933385 89.69219,70.3596739 89.503394,70.0407919 C89.1105085,69.4104193 88.8320607,68.7462578 88.5341005,68.1364752 C88.2741104,67.5087422 88.0178119,66.9195497 87.8348169,66.3562267 C87.7414736,66.0748292 87.6518219,65.8055745 87.5669164,65.5489907 C87.4978318,65.2887112 87.4324388,65.0411025 87.37021,64.8088043 C87.2436428,64.345264 87.1719214,63.930823 87.1023095,63.5939907 C86.9820706,62.9139907 86.9599214,62.5206677 86.9599214,62.5206677" id="Fill-61" fill="#362F52"/>
          <path d="M126.525292,71.3308385 C126.525292,71.3308385 124.152157,48.2330124 111.011849,34.2423292 C111.011849,34.2423292 146.498645,13.3882919 170.49367,5.60102484 C170.49367,5.60102484 191.785958,-1.7902795 211.781988,17.7444099 C211.781988,17.7444099 204.223292,17.5237267 196.357142,17.743882 C196.357142,17.743882 205.76161,27.115 204.706884,39.9616149 C204.706884,39.9616149 197.951361,33.8991615 189.852645,27.9945652 C189.852645,27.9945652 194.335232,39.8739752 185.85365,49.8168634 C185.85365,49.8168634 183.436744,47.8808696 180.887471,46.0773913 C180.887471,46.0773913 178.206884,50.6526087 172.537729,54.1286335 L171.702913,50.4768012 C171.702913,50.4768012 166.868048,56.4600621 160.627759,59.0121739 L159.617331,56.7683851 C159.617331,56.7683851 148.630774,64.6432919 126.525292,71.3308385" id="Fill-63" fill="#A77E76"/>
          <path d="M126.533518,71.2978416 L126.278802,69.488028 C136.535489,65.7416925 152.872673,56.5030901 156.13125,51.7642081 C156.13125,51.7642081 158.521787,53.3918789 159.61712,56.7681211 C159.61712,56.7681211 146.704633,65.4027484 126.533518,71.2978416" id="Fill-65" fill="#784451"/>
          <path d="M171.655029,49.7735714 C171.655029,49.7735714 175.874462,47.4495342 177.019367,44.029472 C177.019367,44.029472 179.648273,44.8921429 180.887576,46.0773913 C181.283099,46.2753727 175.841765,52.4809006 172.545745,54.0959006 C172.325307,53.6999379 171.655029,49.7735714 171.655029,49.7735714" id="Fill-67" fill="#784451"/>
          <path d="M203.018161,38.4432298 C202.957514,38.3656211 201.68235,25.9767391 195.914052,17.5295342 C195.914052,17.5295342 205.785763,26.5870497 204.715216,39.928354 C204.715216,39.928354 203.280788,38.7795342 203.018161,38.4432298" id="Fill-69" fill="#784451"/>
          <path d="M159.130628,55.4263354 C161.611344,53.6994099 165.895115,50.9281988 169.639921,45.1677329 C169.639921,45.1677329 170.963076,46.4881366 171.758339,50.2365839 C171.885961,50.7302174 166.250031,56.695 160.627812,59.0121739 C160.519702,59.0570497 159.130628,55.4263354 159.130628,55.4263354" id="Fill-71" fill="#784451"/>
          <path d="M199.463628,8.80325466 C199.391379,8.74887578 206.92318,12.5136894 211.669976,17.5946832 C211.781777,17.7446211 209.789926,17.6775714 209.789926,17.6775714 C209.789926,17.6775714 207.532812,14.8403665 199.463628,8.80325466" id="Fill-73" fill="#784451"/>
          <path d="M183.057201,47.6210124 C189.042246,39.3401118 187.278743,26.9992733 185.674504,25.3774099 C185.359669,25.0590559 189.124514,27.0325342 189.852803,27.9944596 C190.761977,29.1960745 193.126146,42.9523478 185.93133,49.7016646 C185.687689,49.8320683 183.310335,47.8105466 183.057201,47.6210124" id="Fill-75" fill="#784451"/>
          <path d="M126.533518,71.2978416 C126.533518,71.2978416 124.160384,48.2000155 111.020076,34.2093323 C111.020076,34.2093323 146.506872,13.355295 170.501897,5.56802795 C170.501897,5.56802795 191.794185,-1.8232764 211.790215,17.711413 C211.790215,17.711413 204.231518,17.4907298 196.365369,17.7108851 C196.365369,17.7108851 205.769837,27.0820031 204.71511,39.928618 C204.71511,39.928618 197.959588,33.8661646 189.860872,27.9615683 C189.860872,27.9615683 194.343459,39.8409783 185.861877,49.7838665 C185.861877,49.7838665 183.444971,47.8478727 180.895698,46.0443944 C180.895698,46.0443944 178.21511,50.6196118 172.545956,54.0956366 L171.71114,50.4438043 C171.71114,50.4438043 166.876275,56.4270652 160.635986,58.979177 L159.625558,56.7353882 C159.625558,56.7353882 148.639001,64.610295 126.533518,71.2978416 Z" id="Stroke-77" stroke="#362F52" stroke-width="0.5"/>
          <path d="M125.126777,43.360295 C125.126777,43.360295 125.970031,42.6966615 127.445066,41.5351708 C128.929593,40.385823 131.051702,38.7433696 133.649494,36.8416925 C136.247285,34.9410714 139.295971,32.7453261 142.626797,30.4856988 C145.957096,28.2255435 149.556877,25.883028 153.227324,23.6534938 C156.90621,21.4392702 160.655762,19.3353882 164.272419,17.5604193 C167.886439,15.7828106 171.380747,14.3562888 174.478479,13.4503261 C176.025762,12.994705 177.477593,12.685854 178.78018,12.5301087 C180.081712,12.3706677 181.232419,12.3643323 182.167961,12.4709783 C183.104558,12.5818478 183.813862,12.8067547 184.283215,12.9852019 C184.743603,13.1879348 184.982499,13.3109472 184.982499,13.3109472 C184.982499,13.3109472 184.740966,13.1921584 184.277941,12.9999845 C183.804897,12.8320963 183.094011,12.623028 182.161633,12.5327484 C181.229255,12.4461646 180.086986,12.4767857 178.797583,12.6626242 C177.507653,12.8463509 176.07217,13.1837112 174.537543,13.6498913 C171.464071,14.5801398 168.010897,16.065264 164.41428,17.8481522 C160.815026,19.6310404 157.082349,21.7460093 153.41823,23.9692081 C149.745145,26.180264 146.141145,28.5058851 142.805573,30.7507298 C139.470001,32.9961025 136.384926,35.1348292 133.770787,37.0101087 C131.155593,38.8838043 128.986021,40.460264 127.482508,41.5842702 C125.983215,42.7140839 125.126777,43.360295 125.126777,43.360295" id="Fill-79" fill="#362F52"/>
          <path d="M171.529886,50.4530963 C171.529886,50.4530963 171.511955,50.1991522 171.453945,49.8169161 C171.402791,49.4341522 171.304174,48.9278478 171.182353,48.4257671 C171.109577,48.1792143 171.05104,47.9257981 170.969826,47.6977236 C170.885448,47.4717609 170.816891,47.2537174 170.740423,47.0763261 L170.464612,46.4881894 C170.464612,46.4881894 170.595925,46.7136242 170.792632,47.0515124 C170.885448,47.2236242 170.973517,47.4342764 171.079517,47.6565435 C171.181826,47.8798665 171.262512,48.1285311 171.359547,48.372972 C171.527776,48.8687174 171.672801,49.3739658 171.760343,49.7593696 C171.853159,50.1421335 171.895348,50.4045248 171.895348,50.4045248 L171.529886,50.4530963 Z" id="Fill-81" fill="#362F52"/>
          <path d="M159.431436,56.7590932 C159.431436,56.7590932 159.354441,56.505677 159.207834,56.1318882 C159.067555,55.7559876 158.851336,55.2655217 158.611913,54.785087 C158.481127,54.5517329 158.364053,54.3083478 158.229048,54.0966398 C158.091406,53.8865155 157.971695,53.6816708 157.853038,53.5190621 C157.60465,53.2001801 157.439058,52.9868882 157.439058,52.9868882 C157.439058,52.9868882 157.62258,53.1853975 157.898918,53.4836894 C158.032341,53.636795 158.168401,53.8305528 158.326083,54.0317019 C158.4806,54.2349627 158.619824,54.4683168 158.772759,54.6942795 C159.055953,55.1588758 159.318053,55.6377267 159.493665,56.0078199 C159.675078,56.3742174 159.777386,56.6313292 159.777386,56.6313292 L159.431436,56.7590932 Z" id="Fill-83" fill="#362F52"/>
          <path d="M190.083894,28.3895248 C190.083894,28.3889969 189.732142,28.0775062 189.164172,27.6525062 C188.602003,27.2185311 187.82256,26.6810776 187.014112,26.1874441 C186.600132,25.9588416 186.200391,25.6985621 185.798013,25.5106118 C185.598142,25.412941 185.405127,25.3194938 185.221605,25.2302702 C185.037028,25.1447422 184.868272,25.0475994 184.698988,24.9911087 C184.032928,24.7371646 183.589416,24.5682205 183.589416,24.5682205 C183.589416,24.5682205 184.041894,24.7160466 184.720083,24.9377857 C184.893058,24.9858292 185.066033,25.0745248 185.255884,25.1516056 C185.444152,25.232382 185.642968,25.317382 185.84864,25.4055497 C186.263147,25.5755497 186.676073,25.816295 187.105346,26.0264193 C187.943326,26.4846801 188.757048,26.9888727 189.34664,27.399618 C189.643018,27.601295 189.88666,27.7765745 190.055416,27.9043385 C190.22259,28.0305186 190.317515,28.1028478 190.317515,28.1028478 L190.083894,28.3895248 Z" id="Fill-85" fill="#362F52"/>
          <path d="M190.017446,41.9744255 C190.017973,41.9749534 189.988441,41.6064441 189.900371,41.0542081 C189.821267,40.5009161 189.673605,39.769705 189.490083,39.0458851 C189.381446,38.6900466 189.294958,38.324705 189.173665,37.9963199 C189.113545,37.8315994 189.055535,37.6732143 188.999635,37.5222205 C188.941098,37.3733385 188.901018,37.2244565 188.835625,37.1009161 C188.593565,36.5935559 188.432192,36.2551398 188.432192,36.2551398 C188.432192,36.2551398 188.61466,36.5835248 188.887306,37.0766304 C188.961137,37.1975311 189.010182,37.3432453 189.079267,37.4894876 C189.144132,37.6373137 189.21269,37.793587 189.283356,37.9556677 C189.425744,38.2793012 189.534908,38.6404193 189.667277,38.993618 C189.89668,39.7121584 190.092331,40.4428416 190.206769,40.9977174 C190.3307,41.5510093 190.383963,41.9284938 190.383963,41.9290217 L190.017446,41.9744255 Z" id="Fill-87" fill="#362F52"/>
          <path d="M187.526393,47.3250963 C187.526393,47.3250963 187.513736,47.0056863 187.455199,46.5252516 C187.405627,46.0448168 187.301736,45.4075807 187.169368,44.7756242 C187.087627,44.4636056 187.023816,44.1457795 186.932055,43.8569907 C186.885119,43.7128602 186.839766,43.5734814 186.79705,43.4414938 C186.750642,43.3105621 186.720055,43.1806863 186.6689,43.0703447 C186.475358,42.6242267 186.346682,42.3264627 186.346682,42.3264627 C186.346682,42.3264627 186.49698,42.6152516 186.722164,43.0476429 C186.781229,43.1558727 186.821308,43.2820528 186.877209,43.4108727 C186.929418,43.5407484 186.985318,43.6780155 187.042801,43.8195062 C187.156184,44.1040714 187.243199,44.4192578 187.348144,44.7291646 C187.527448,45.3574255 187.678274,45.9951894 187.763706,46.4793199 C187.85705,46.9623944 187.893965,47.2913075 187.893965,47.2913075 L187.526393,47.3250963 Z" id="Fill-89" fill="#362F52"/>
          <path d="M190.839394,34.4073137 C190.839394,34.4073137 190.745523,34.1021584 190.568329,33.6518168 C190.398518,33.1998913 190.136946,32.6101708 189.847951,32.0320652 C189.69027,31.7511957 189.547882,31.4592391 189.385981,31.2037112 C189.30424,31.0759472 189.225135,30.9524068 189.15025,30.8357298 C189.0722,30.7206366 189.009444,30.6034317 188.932976,30.5094565 C188.632379,30.1272205 188.432508,29.8716925 188.432508,29.8716925 C188.432508,29.8716925 188.650837,30.1129658 188.978329,30.4746118 C189.062707,30.5633075 189.133901,30.6757609 189.219862,30.7861025 C189.303712,30.8985559 189.392309,31.0168168 189.484071,31.1398292 C189.664956,31.385854 189.829494,31.6688354 190.009852,31.9417857 C190.342091,32.5045807 190.649543,33.0826863 190.854688,33.5298602 C191.067215,33.9728106 191.186399,34.2816615 191.186399,34.2816615 L190.839394,34.4073137 Z" id="Fill-91" fill="#362F52"/>
          <path d="M180.82925,46.2377298 C180.829777,46.2377298 180.617777,46.0545311 180.274464,45.8042826 C179.935897,45.5487547 179.464961,45.2335683 178.977678,44.9416118 C178.728762,44.8080404 178.486702,44.6565186 178.24517,44.5451211 C178.124404,44.4886304 178.007857,44.4342516 177.89711,44.3819845 C177.785837,44.333941 177.684056,44.2742826 177.582275,44.2431335 C177.179897,44.0979472 176.911469,44.0013323 176.911469,44.0013323 C176.911469,44.0013323 177.187807,44.0757733 177.601787,44.1887547 C177.70726,44.2119845 177.812732,44.2626677 177.92928,44.3027919 C178.044772,44.3460839 178.166593,44.3914876 178.292633,44.4384752 C178.546295,44.5313944 178.801011,44.6639099 179.06522,44.7784752 C179.580981,45.0334752 180.084613,45.3143447 180.449548,45.5461149 C180.818702,45.7726056 181.054434,45.9447174 181.054961,45.9447174 L180.82925,46.2377298 Z" id="Fill-93" fill="#362F52"/>
          <path d="M166.39321,55.3448727 C166.39321,55.3448727 166.379499,55.0307422 166.320434,54.5587547 C166.269807,54.0851832 166.165389,53.4590342 166.031966,52.8365807 C165.950752,52.5303696 165.886414,52.2167671 165.794653,51.9332578 C165.748245,51.7917671 165.703419,51.6545 165.660702,51.5246242 C165.614822,51.3958043 165.584235,51.2680404 165.533081,51.1603385 C165.341648,50.7216118 165.213499,50.4285994 165.213499,50.4285994 C165.213499,50.4285994 165.362742,50.7126366 165.586344,51.1376366 C165.645409,51.2426988 165.684961,51.367295 165.740862,51.4940031 C165.793071,51.6212391 165.848444,51.7563944 165.905399,51.8957733 C166.018782,52.175059 166.105797,52.4849658 166.210742,52.7895932 C166.390573,53.407295 166.541926,54.035028 166.628414,54.5112391 C166.722812,54.9858665 166.760782,55.310028 166.760782,55.310028 L166.39321,55.3448727 Z" id="Fill-95" fill="#362F52"/>
          <path d="M150.948799,61.5988137 C150.948799,61.5988137 150.948272,61.5264845 150.947744,61.4008323 C150.947217,61.2778199 150.939834,61.0993727 150.925595,60.883441 C150.917157,60.6675093 150.880769,60.4177888 150.855983,60.1480062 C150.811157,59.8819193 150.777406,59.5936584 150.715177,59.311205 C150.643456,59.0324472 150.602321,58.7420745 150.508978,58.4865466 C150.421963,58.2299627 150.362899,57.9802422 150.272719,57.7822609 C150.099744,57.3810186 149.983724,57.1138758 149.983724,57.1138758 C149.983724,57.1138758 150.120839,57.3720435 150.325456,57.7590311 C150.431983,57.9522609 150.511088,58.1967019 150.619724,58.4490621 C150.73469,58.7014224 150.799028,58.9886273 150.893953,59.2673851 C150.980441,59.5487826 151.037923,59.8375714 151.104899,60.1057702 C151.152361,60.3776646 151.209316,60.6305528 151.235157,60.8507081 C151.267326,61.0698075 151.289476,61.2545901 151.30055,61.3860497 C151.311098,61.5148696 151.317426,61.5882547 151.317426,61.5882547 L150.948799,61.5988137 Z" id="Fill-97" fill="#362F52"/>
          <path d="M155.552416,59.1616894 C155.552416,59.1616894 155.538704,58.847559 155.47964,58.3755714 C155.429013,57.902 155.324595,57.2758509 155.191172,56.6533975 C155.109958,56.3471863 155.04562,56.0335839 154.953859,55.7500745 C154.907451,55.6085839 154.862625,55.4713168 154.819908,55.341441 C154.774028,55.2126211 154.743441,55.0848571 154.692287,54.9771553 C154.500854,54.5384286 154.372704,54.2454161 154.372704,54.2454161 C154.372704,54.2454161 154.521948,54.5294534 154.74555,54.9544534 C154.804615,55.0595155 154.844167,55.1841118 154.900068,55.3108199 C154.952277,55.4380559 155.00765,55.5732112 155.064605,55.7125901 C155.177988,55.9918758 155.265003,56.3017826 155.369948,56.6064099 C155.549779,57.2241118 155.701132,57.8518447 155.78762,58.3280559 C155.882018,58.8026832 155.919988,59.1268447 155.919988,59.1268447 L155.552416,59.1616894 Z" id="Fill-99" fill="#362F52"/>
          <path d="M145.356376,64.300441 C145.356376,64.300441 145.369033,64.2355031 145.37958,64.1357205 C145.394874,64.0364658 145.402784,63.885472 145.412277,63.7033292 C145.41966,63.6125217 145.411749,63.513795 145.412277,63.4092609 C145.409112,63.3041988 145.415441,63.1928012 145.400147,63.0792919 C145.375889,62.8512174 145.365869,62.6041366 145.309968,62.3644472 C145.268834,62.1215901 145.220316,61.8792609 145.145958,61.6596335 C145.078456,61.4378944 145.025719,61.2256584 144.943978,61.0577702 C144.797371,60.7140745 144.700336,60.4844161 144.700336,60.4844161 C144.700336,60.4844161 144.818466,60.7045714 144.996187,61.0345404 C145.095331,61.1960932 145.167053,61.4035776 145.256704,61.6221491 C145.352685,61.8386087 145.424933,62.079354 145.490326,62.324323 C145.569431,62.5655963 145.604764,62.8163727 145.651172,63.0507826 C145.67754,63.1674596 145.681232,63.2830807 145.695998,63.3913106 C145.705491,63.5005963 145.722366,63.6035466 145.723948,63.6996335 C145.731331,63.8918075 145.738187,64.0517764 145.731331,64.1700373 C145.729222,64.2888261 145.722366,64.3469006 145.721839,64.3469006 L145.356376,64.300441 Z" id="Fill-101" fill="#362F52"/>
          <path d="M177.014146,50.555677 C177.014146,50.5551491 176.889689,49.7326025 176.637082,48.9285342 C176.566942,48.7316087 176.505768,48.5299317 176.431937,48.3472609 C176.353888,48.1677578 176.286385,47.995118 176.217828,47.8530994 C176.066475,47.5748696 175.965221,47.390087 175.965221,47.390087 C175.965221,47.390087 176.086514,47.5637826 176.268455,47.8245901 C176.352833,47.9602733 176.43932,48.1249938 176.538992,48.2986894 C176.632863,48.4750248 176.717241,48.6708944 176.810057,48.8635963 C176.976176,49.2569193 177.127529,49.6576335 177.222982,49.9649006 C177.323181,50.2700559 177.375917,50.4801801 177.375917,50.4801801 L177.014146,50.555677 Z" id="Fill-103" fill="#362F52"/>
          <path d="M139.822649,66.5901087 C139.822649,66.5901087 139.886987,65.7960714 139.81632,64.9909472 C139.791534,64.7919099 139.779932,64.589177 139.745654,64.4038665 C139.71032,64.2190839 139.685534,64.0432764 139.648619,63.8959783 C139.566878,63.6040217 139.511504,63.4092081 139.511504,63.4092081 C139.511504,63.4092081 139.5885,63.5971584 139.703992,63.8796118 C139.757783,64.0232143 139.802609,64.195854 139.860092,64.3795807 C139.915992,64.5633075 139.951325,64.7649845 139.999315,64.9650776 C140.075783,65.3673758 140.132738,65.7749534 140.158052,66.0827484 C140.187584,66.3900155 140.191276,66.5996118 140.191276,66.5996118 L139.822649,66.5901087 Z" id="Fill-105" fill="#362F52"/>
          <path d="M134.926029,68.5317516 C134.926029,68.5317516 134.981929,67.953118 134.953979,67.3618137 C134.937631,67.0688012 134.900715,66.7763168 134.860108,66.5577453 C134.80579,66.3423416 134.769402,66.1982112 134.769402,66.1982112 C134.769402,66.1982112 134.827939,66.3360062 134.915482,66.5419068 C134.990367,66.7541429 135.074218,67.0434596 135.136447,67.3385839 C135.258795,67.9272484 135.294656,68.5391429 135.294656,68.5391429 L134.926029,68.5317516 Z" id="Fill-107" fill="#362F52"/>
          <path d="M130.694256,69.9284441 C130.694256,69.9284441 130.71535,69.8429161 130.747519,69.7140963 C130.77547,69.5873882 130.815549,69.4163323 130.836644,69.2421087 C130.86934,69.0668292 130.880942,68.8926056 130.875141,68.7600901 C130.876723,68.6249348 130.877251,68.5351832 130.877251,68.5351832 C130.877251,68.5351832 130.8994,68.6217671 130.932097,68.7516429 C130.972703,68.8836304 131.008564,69.0636615 131.020694,69.2447484 C131.046534,69.4268913 131.051808,69.6100901 131.056554,69.7494689 C131.058664,69.8856801 131.059718,69.9770155 131.059718,69.9770155 L130.694256,69.9284441 Z" id="Fill-109" fill="#362F52"/>
          <path d="M204.335567,34.612528 C204.335567,34.612528 204.241697,34.3073727 204.064502,33.8570311 C203.894692,33.4051056 203.633119,32.8153851 203.344124,32.2372795 C203.186443,31.9564099 203.044055,31.6644534 202.882154,31.4089255 C202.800413,31.2811615 202.721308,31.1576211 202.646423,31.0409441 C202.568373,30.9258509 202.505617,30.808646 202.429149,30.7146708 C202.128552,30.3324348 201.928682,30.0769068 201.928682,30.0769068 C201.928682,30.0769068 202.14701,30.3181801 202.474502,30.6798261 C202.558881,30.7685217 202.630075,30.8809752 202.716035,30.9913168 C202.799886,31.1037702 202.888483,31.2220311 202.980244,31.3450435 C203.161129,31.5910683 203.325667,31.8740497 203.506025,32.147 C203.838264,32.709795 204.145716,33.2879006 204.350861,33.7350745 C204.563388,34.1780248 204.682572,34.4868758 204.682572,34.4868758 L204.335567,34.612528 Z" id="Fill-111" fill="#362F52"/>
          <path d="M202.504193,27.7192391 C202.504193,27.7192391 202.373934,27.496972 202.156133,27.1759783 C202.050661,27.0128416 201.917238,26.8296429 201.775377,26.6316615 C201.634571,26.4336801 201.470034,26.2341149 201.311825,26.0271584 C201.142541,25.8318168 200.976422,25.6317236 200.81083,25.4527484 C200.638909,25.2811646 200.4807,25.116972 200.339895,24.9818168 C200.037715,24.7336801 199.836263,24.5679037 199.836263,24.5679037 C199.836263,24.5679037 200.052482,24.7162578 200.37681,24.9374689 C200.529745,25.0604814 200.703248,25.2109472 200.892571,25.3693323 C201.075039,25.5345807 201.260671,25.7209472 201.449994,25.904146 C201.627188,26.0984317 201.812293,26.286382 201.972611,26.4743323 C202.132929,26.6612267 202.285337,26.8349224 202.406631,26.9911957 C202.657128,27.2974068 202.811118,27.5138665 202.811118,27.5138665 L202.504193,27.7192391 Z" id="Fill-113" fill="#362F52"/>
          <path d="M111.203703,84.8152174 L98.1514647,84.8152174 C98.1514647,84.8152174 100.721833,82.1971118 103.77632,81.0092236 C103.77632,81.0092236 106.610898,82.0651242 110.851952,82.0651242 C110.851952,82.0651242 111.203703,82.9230435 111.203703,84.8152174" id="Fill-115" fill="#E09D73"/>
          <path d="M111.203703,84.8152174 L98.1514647,84.8152174 C98.1514647,84.8152174 100.721833,82.1971118 103.77632,81.0092236 C103.77632,81.0092236 106.610898,82.0651242 110.851952,82.0651242 C110.851952,82.0651242 111.203703,82.9230435 111.203703,84.8152174 Z" id="Stroke-117" stroke="#362F52" stroke-width="0.5"/>
          <path d="M86.7304657,9.0801118 C86.7304657,9.0801118 91.7172119,7.00157143 98.1589532,6.73548447 C105.295232,6.43930435 115.176436,9.86517391 116.451073,11.8756087 C117.725709,13.8855155 119.075759,17.0458261 119.075759,21.0825342 C119.075759,25.1187143 118.048983,27.2326273 118.048983,28.7647391 C118.048983,30.296323 120.1057,29.0149876 115.520804,32.6720994 C112.415162,35.1487143 102.035073,39.3047391 91.5305254,38.3148323 C85.4315701,37.7398944 84.734396,36.395205 83.8842866,35.6476273 L85.3007841,33.6773168 C84.4211423,32.6520373 79.9095502,27.2305155 79.9095502,20.882441 C79.9095502,14.5348944 82.631799,10.7954224 86.7304657,9.0801118" id="Fill-119" fill="#A77E76"/>
          <path d="M85.2022199,33.5215714 C83.5753045,31.9926273 79.7408468,25.9982795 79.9064388,21.7313851 C80.0820507,17.1962919 81.0566179,12.9552671 84.0958119,10.6333416 C87.135006,8.3119441 92.5404786,6.72809317 98.8688368,6.72809317 C108.111404,6.72809317 114.58426,9.76380745 116.438996,11.8756087 C118.293732,13.9874099 119.084777,18.1656087 119.084777,22.2139317 C119.084777,26.2622547 117.195235,28.1977205 118.425573,29.5619441 C119.655911,30.9256398 107.342508,39.3422236 92.016807,38.3169441 C85.3657025,37.871882 83.8843393,35.6476273 83.8843393,35.6476273 C84.3194139,35.0014161 85.2022199,33.5215714 85.2022199,33.5215714 Z" id="Stroke-121" stroke="#362F52" stroke-width="0.5"/>
          <path d="M116.007877,0.975282609 C116.007877,0.975282609 109.856185,11.5179224 99.3795881,11.6662764 L116.007877,0.975282609 Z" id="Fill-123" fill="#4B3A42"/>
          <path d="M96.1354607,13.6099783 C95.9988736,13.6347919 116.438943,0.543208075 116.438943,0.543208075 C116.438943,0.543208075 110.681719,10.9702267 96.1354607,13.6099783 Z" id="Stroke-125" stroke="#362F52" stroke-width="0.5265"/>
          <path d="M88.1562448,11.5909907 L79.1130209,0.899996894 C79.1130209,0.899996894 82.4586129,11.4426366 88.1562448,11.5909907" id="Fill-127" fill="#4B3A42"/>
          <path d="M89.9209075,13.5352205 C89.9952657,13.5600342 78.8789771,0.468450311 78.8789771,0.468450311 C78.8789771,0.468450311 82.0099323,10.8954689 89.9209075,13.5352205" id="Stroke-129" stroke="#362F52" stroke-width="0.5265"/>
          <path d="M91.7048716,20.8517671 C91.7048716,15.2085062 89.0638368,10.6338168 85.8052597,10.6338168 C82.54721,10.6338168 79.9061751,15.2085062 79.9061751,20.8517671 C79.9061751,26.4945 82.54721,31.0697174 85.8052597,31.0697174 C89.0638368,31.0697174 91.7048716,26.4945 91.7048716,20.8517671" id="Fill-131" fill="#C4AFAD"/>
          <path d="M88.364606,21.0827453 C88.364606,18.6890186 87.2444866,16.7488012 85.862795,16.7488012 C84.4805761,16.7488012 83.3604567,18.6890186 83.3604567,21.0827453 C83.3604567,23.4759441 84.4805761,25.4161615 85.862795,25.4161615 C87.2444866,25.4161615 88.364606,23.4759441 88.364606,21.0827453" id="Fill-133" fill="#FCCF87"/>
          <path d="M84.3195194,21.192559 C84.3195194,19.6857888 85.024604,18.4646398 85.8942259,18.4646398 C86.7643751,18.4646398 87.4694597,19.6857888 87.4694597,21.192559 C87.4694597,22.6993292 86.7643751,23.9204783 85.8942259,23.9204783 C85.024604,23.9204783 84.3195194,22.6993292 84.3195194,21.192559" id="Fill-135" fill="#362F52"/>
          <path d="M88.364606,20.9951056 C88.364606,18.6019068 87.2444866,16.6611615 85.862795,16.6611615 C84.4805761,16.6611615 83.3604567,18.6019068 83.3604567,20.9951056 C83.3604567,23.3883043 84.4805761,25.3285217 85.862795,25.3285217 C87.2444866,25.3285217 88.364606,23.3883043 88.364606,20.9951056 Z" id="Stroke-137" stroke="#605579" stroke-width="0.5"/>
          <path d="M91.7399413,20.882705 C91.7399413,15.2336366 89.0962697,10.6536677 85.8350557,10.6536677 C82.5727871,10.6536677 79.9291154,15.2336366 79.9291154,20.882705 C79.9291154,26.5317733 82.5727871,31.1117422 85.8350557,31.1117422 C89.0962697,31.1117422 91.7399413,26.5317733 91.7399413,20.882705 Z" id="Stroke-139" stroke="#605579" stroke-width="0.5265"/>
          <path d="M85.2022199,16.0228696 C85.2022199,16.0228696 85.1252249,15.7604783 85.0413741,15.3624037 C84.9585781,14.9643292 84.8604886,14.4316273 84.7924587,13.8957578 C84.7207373,13.3593602 84.6780209,12.819795 84.6569264,12.4132733 C84.6363592,12.0072795 84.6432149,11.7332733 84.6432149,11.7332733 C84.6432149,11.7332733 84.72021,11.9961925 84.8045881,12.3942671 C84.8879114,12.7923416 84.9849463,13.3250435 85.0535035,13.861441 C85.1246975,14.3973106 85.1668866,14.9368758 85.1885085,15.3433975 C85.2090756,15.7493913 85.2022199,16.0228696 85.2022199,16.0228696" id="Fill-141" fill="#605579"/>
          <path d="M86.9599214,30.3981646 C86.9599214,30.3981646 86.8876726,30.1331335 86.8106776,29.7318913 C86.7347373,29.331177 86.6461403,28.7942516 86.5870756,28.2541584 C86.5253741,27.7151211 86.4921502,27.1729161 86.4779114,26.7642826 C86.4647274,26.356177 86.4763294,26.0816429 86.4763294,26.0816429 C86.4763294,26.0816429 86.5485781,26.3466739 86.6255731,26.7479161 C86.7025682,27.1491584 86.7901104,27.685028 86.8491751,28.2251211 C86.9108766,28.7646863 86.9435731,29.3074193 86.9578119,29.7155248 C86.9715234,30.1236304 86.9599214,30.3981646 86.9599214,30.3981646" id="Fill-143" fill="#605579"/>
          <path d="M82.4822388,28.5750994 C82.4822388,28.5750994 82.544995,28.3443851 82.6678706,28.0128323 C82.7907463,27.6812795 82.9668856,27.2441366 83.1699204,26.8207205 C83.3703184,26.3951925 83.5970846,25.9828634 83.7769154,25.678764 C83.9562189,25.3736087 84.0959701,25.179323 84.0959701,25.179323 C84.0959701,25.179323 84.0332139,25.4105652 83.9103383,25.742646 C83.78799,26.0741988 83.6113234,26.5102857 83.4077612,26.9342298 C83.2073632,27.3592298 82.980597,27.771559 82.8007662,28.0761863 C82.6209353,28.3808137 82.4822388,28.5750994 82.4822388,28.5750994" id="Fill-145" fill="#605579"/>
          <path d="M81.0615751,25.6187888 C81.0615751,25.6187888 81.1786498,25.4699068 81.3743015,25.2703416 C81.5699532,25.0707764 81.8399632,24.8157764 82.1279035,24.5834783 C82.4142617,24.3490683 82.7190776,24.1368323 82.954809,23.9863665 C83.1900129,23.8364286 83.3603512,23.7530124 83.3603512,23.7530124 C83.3603512,23.7530124 83.243804,23.9024224 83.0481522,24.1019876 C82.8525005,24.3020807 82.5824905,24.5565528 82.2940229,24.7888509 C82.0076647,25.0227329 81.7023214,25.233913 81.4676448,25.3849068 C81.2319134,25.5353727 81.0615751,25.6187888 81.0615751,25.6187888" id="Fill-147" fill="#605579"/>
          <path d="M80.3225811,22.1798789 C80.3225811,22.1798789 80.4728796,22.1096615 80.704392,22.0368043 C80.9359045,21.9639472 81.2465214,21.8800031 81.5624119,21.8256242 C81.8777751,21.7680776 82.1984119,21.7390404 82.4404716,21.7284814 C82.6830587,21.7173944 82.8481234,21.7311211 82.8481234,21.7311211 C82.8481234,21.7311211 82.6978249,21.8013385 82.4663124,21.8747236 C82.2353274,21.9481087 81.9241831,22.0309969 81.6082925,22.0848478 C81.2929294,22.1429224 80.9722925,22.1709037 80.7302328,22.1825186 C80.4876458,22.1930776 80.3225811,22.1798789 80.3225811,22.1798789" id="Fill-149" fill="#605579"/>
          <path d="M80.5038358,18.0810839 C80.5038358,18.0810839 80.6752289,18.1190963 80.9178159,18.2046242 C81.160403,18.2906801 81.4778756,18.4179161 81.7821642,18.5710217 C82.0880348,18.7220155 82.3807214,18.8988789 82.5948308,19.0408975 C82.8094677,19.1834441 82.9428905,19.2980093 82.9428905,19.2980093 C82.9428905,19.2980093 82.7714975,19.2594689 82.5289104,19.173941 C82.2863234,19.0878851 81.9688507,18.9606491 81.6645622,18.8070155 C81.3592189,18.6565497 81.0665323,18.4791584 80.8518955,18.3366118 C80.6372587,18.1945932 80.5038358,18.0810839 80.5038358,18.0810839" id="Fill-151" fill="#605579"/>
          <path d="M81.9924766,14.1472205 C81.9924766,14.1472205 82.1364468,14.3309472 82.3252428,14.620264 C82.5129841,14.9101087 82.7518796,15.3029037 82.964407,15.7094255 C83.1795711,16.1154193 83.3688945,16.5340839 83.50179,16.8529658 C83.6341582,17.1723758 83.7032428,17.3951708 83.7032428,17.3951708 C83.7032428,17.3951708 83.5587453,17.211972 83.3704766,16.9226553 C83.182208,16.6328106 82.9438398,16.2394876 82.7313124,15.8329658 C82.5161483,15.4275 82.3273522,15.0083075 82.1944567,14.6894255 C82.0620886,14.3700155 81.9924766,14.1472205 81.9924766,14.1472205" id="Fill-153" fill="#605579"/>
          <path d="M87.4427224,12.0550062 C87.4427224,12.0550062 87.4353393,12.3242609 87.3936776,12.7228634 C87.3509612,13.1204099 87.2813493,13.6488882 87.182205,14.171559 C87.0862249,14.6947578 86.9617672,15.2121491 86.8578766,15.5991366 C86.7529313,15.9855963 86.6627522,16.2395404 86.6627522,16.2395404 C86.6627522,16.2395404 86.669608,15.9697578 86.711797,15.5716832 C86.7539861,15.1736087 86.8241254,14.6456584 86.9232697,14.1229876 C87.0192498,13.5997888 87.1447622,13.0818696 87.2481254,12.6954099 C87.3525433,12.3084224 87.4427224,12.0550062 87.4427224,12.0550062" id="Fill-155" fill="#605579"/>
          <path d="M89.710806,14.4359565 C89.710806,14.4359565 89.61799,14.6286584 89.4555622,14.897913 C89.2904975,15.1671677 89.0610945,15.5177267 88.8079602,15.8508634 C88.5569353,16.1855839 88.2827065,16.502354 88.068597,16.7341242 C87.8539602,16.9653665 87.6941692,17.1068571 87.6941692,17.1068571 C87.6941692,17.1068571 87.7864577,16.9136273 87.9504677,16.6449006 C88.1139502,16.375118 88.344408,16.024559 88.5975423,15.6919503 C88.8485672,15.3567019 89.122796,15.0404596 89.3369055,14.8086894 C89.5510149,14.5779752 89.710806,14.4359565 89.710806,14.4359565" id="Fill-157" fill="#605579"/>
          <path d="M90.9025413,17.9315683 C90.9025413,17.9315683 90.7770289,18.0614441 90.5697751,18.2303882 C90.3641035,18.3993323 90.0803821,18.6120963 89.7818945,18.8005745 C89.4849891,18.9916925 89.1722627,19.1574689 88.9317851,19.2730901 C88.6918348,19.3887112 88.5199144,19.4473137 88.5199144,19.4473137 C88.5199144,19.4473137 88.6459542,19.316382 88.8526806,19.1479658 C89.0588796,18.9790217 89.3420736,18.7662578 89.6405612,18.5783075 C89.9374667,18.3871894 90.2507204,18.221413 90.4906706,18.1057919 C90.7316756,17.9901708 90.9025413,17.9315683 90.9025413,17.9315683" id="Fill-159" fill="#605579"/>
          <path d="M91.0961891,22.0695901 C91.0961891,22.0695901 90.9374527,22.1118261 90.6996119,22.144559 C90.4617711,22.1757081 90.1442985,22.2047453 89.8273532,22.2042174 C89.5098806,22.2068571 89.192408,22.1799317 88.9545672,22.1487826 C88.7167264,22.1171056 88.55799,22.0753975 88.55799,22.0753975 C88.55799,22.0753975 88.716199,22.0326335 88.9540398,21.9999006 C89.1918806,21.9682236 89.5088259,21.9397143 89.8273532,21.9407702 C90.1442985,21.9381304 90.4617711,21.9655839 90.6996119,21.996205 C90.9374527,22.027354 91.0961891,22.0695901 91.0961891,22.0695901" id="Fill-161" fill="#605579"/>
          <path d="M90.4544935,26.0797422 C90.4544935,26.0797422 90.2857373,25.9852391 90.0526428,25.8199907 C89.8211303,25.6547422 89.5205333,25.424028 89.2389214,25.1711398 C88.9557274,24.9208913 88.6920458,24.647941 88.5011403,24.435705 C88.3107622,24.222413 88.1979065,24.0656118 88.1979065,24.0656118 C88.1979065,24.0656118 88.36719,24.159587 88.5997572,24.3248354 C88.8323244,24.4895559 89.1334488,24.7213261 89.414006,24.9742143 C89.6972,25.2249907 89.9603542,25.497413 90.1517871,25.7096491 C90.3421652,25.922413 90.4544935,26.0797422 90.4544935,26.0797422" id="Fill-163" fill="#605579"/>
          <path d="M84.734607,30.4136335 C84.734607,30.4136335 84.7161493,30.1385714 84.7198408,29.7278261 C84.7240597,29.3176087 84.7430448,28.772236 84.7915622,28.2284472 C84.8374428,27.6846584 84.911801,27.1440373 84.9787761,26.7385714 C85.0457512,26.3336335 85.1116716,26.0659627 85.1116716,26.0659627 C85.1116716,26.0659627 85.1301294,26.3410248 85.1264378,26.7512422 C85.1227463,27.1619876 85.1032338,27.7078882 85.0541891,28.2511491 C85.0088358,28.7949379 84.9334229,29.336087 84.8669751,29.7410248 C84.8,30.1454348 84.734607,30.4136335 84.734607,30.4136335" id="Fill-165" fill="#605579"/>
          <path d="M88.9962289,28.8731273 C88.9962289,28.8731273 88.8675522,28.6619472 88.7030149,28.3340901 C88.5395323,28.005177 88.3338607,27.5627547 88.1556119,27.1087174 C87.9747264,26.656264 87.8207363,26.1932516 87.715791,25.8416366 C87.6108458,25.4900217 87.5602189,25.2476925 87.5602189,25.2476925 C87.5602189,25.2476925 87.6894229,25.4583447 87.8534328,25.7867298 C88.0179701,26.114587 88.2225871,26.5580652 88.4008358,27.0121025 C88.5817214,27.4645559 88.7346567,27.9280963 88.8406567,28.2791832 C88.945602,28.6307981 88.9962289,28.8731273 88.9962289,28.8731273" id="Fill-167" fill="#605579"/>
          <path d="M92.3754139,23.1161988 C92.3754139,23.1161988 89.1453144,26.2659503 88.2387771,28.7161677 C88.0905881,28.8249255 95.7969463,28.7161677 95.7969463,28.7161677 L94.3203294,23.9202671 C94.3203294,23.9202671 94.0898716,25.7612298 92.3754139,23.1161988" id="Fill-169" fill="#E89B60"/>
          <path d="M92.3754139,23.1161988 C92.3754139,23.1161988 89.1453144,26.2659503 88.2387771,28.7161677 C88.0905881,28.8249255 95.7969463,28.7161677 95.7969463,28.7161677 L94.3203294,23.9202671 C94.3203294,23.9202671 94.0898716,25.7612298 92.3754139,23.1161988 Z" id="Stroke-171" stroke="#615D7A" stroke-width="0.5"/>
          <path d="M113.30514,20.9935745 C113.30514,15.3508416 108.735538,10.7756242 103.098553,10.7756242 C97.4615682,10.7756242 92.8919662,15.3508416 92.8919662,20.9935745 C92.8919662,26.6363075 97.4615682,31.2115248 103.098553,31.2115248 C108.735538,31.2115248 113.30514,26.6363075 113.30514,20.9935745" id="Fill-173" fill="#C4AFAD"/>
          <path d="M107.526295,21.2240248 C107.526295,18.8308261 105.588235,16.8906087 103.197698,16.8906087 C100.806633,16.8906087 98.8685731,18.8308261 98.8685731,21.2240248 C98.8685731,23.6177516 100.806633,25.5579689 103.197698,25.5579689 C105.588235,25.5579689 107.526295,23.6177516 107.526295,21.2240248" id="Fill-175" fill="#FCCF87"/>
          <path d="M99.6153194,21.3343665 C99.6153194,19.8275963 100.83511,18.6069752 102.340205,18.6069752 C103.8453,18.6069752 105.065091,19.8275963 105.065091,21.3343665 C105.065091,22.8411366 103.8453,24.0617578 102.340205,24.0617578 C100.83511,24.0617578 99.6153194,22.8411366 99.6153194,21.3343665" id="Fill-177" fill="#362F52"/>
          <path d="M107.526295,21.1363851 C107.526295,18.7431863 105.588235,16.8029689 103.197698,16.8029689 C100.806633,16.8029689 98.8685731,18.7431863 98.8685731,21.1363851 C98.8685731,23.5295839 100.806633,25.4703292 103.197698,25.4703292 C105.588235,25.4703292 107.526295,23.5295839 107.526295,21.1363851 Z" id="Stroke-179" stroke="#605579" stroke-width="0.5"/>
          <path d="M113.36642,21.0245124 C113.36642,15.3754441 108.792072,10.7954752 103.149286,10.7954752 C97.5054448,10.7954752 92.9310965,15.3754441 92.9310965,21.0245124 C92.9310965,26.6735807 97.5054448,31.2535497 103.149286,31.2535497 C108.792072,31.2535497 113.36642,26.6735807 113.36642,21.0245124 Z" id="Stroke-181" stroke="#605579" stroke-width="0.5265"/>
          <path d="M102.054901,16.165205 C102.054901,16.165205 101.953648,15.9065093 101.831827,15.5110745 C101.711061,15.1156398 101.562344,14.5855776 101.44316,14.0491801 C101.320285,13.5133106 101.226941,12.9705776 101.166822,12.5619441 C101.10723,12.1527826 101.088245,11.8756087 101.088245,11.8756087 C101.088245,11.8756087 101.190026,12.1343043 101.311847,12.5292112 C101.43314,12.924118 101.580802,13.4541801 101.699986,13.9911056 C101.822862,14.5264472 101.915678,15.0691801 101.976324,15.4783416 C102.035389,15.8880311 102.054901,16.165205 102.054901,16.165205" id="Fill-183" fill="#605579"/>
          <path d="M105.095994,30.539972 C105.095994,30.539972 105.002123,30.2786366 104.892432,29.8795062 C104.783795,29.4809037 104.651427,28.9460901 104.548064,28.4070528 C104.442064,27.8674876 104.364541,27.3226429 104.316551,26.9118975 C104.270143,26.5016801 104.259069,26.2229224 104.259069,26.2229224 C104.259069,26.2229224 104.352939,26.4847857 104.462631,26.8833882 C104.572322,27.2819907 104.703636,27.8168043 104.806999,28.3563696 C104.912999,28.8959348 104.989994,29.4407795 105.037984,29.8515248 C105.084919,30.2622702 105.095994,30.539972 105.095994,30.539972" id="Fill-185" fill="#605579"/>
          <path d="M97.3488179,28.7163789 C97.3488179,28.7163789 97.491206,28.4777453 97.727992,28.1388012 C97.9658328,27.800913 98.292798,27.3584907 98.6429672,26.9356025 C98.9904995,26.5095466 99.3607085,26.1035528 99.6470667,25.8047329 C99.9334249,25.506441 100.140679,25.3216584 100.140679,25.3216584 C100.140679,25.3216584 99.9988179,25.5608199 99.7615045,25.899236 C99.524191,26.2376522 99.1966985,26.6800745 98.8465294,27.1024348 C98.498997,27.5284907 98.1282607,27.9350124 97.8424299,28.2333043 C97.5560716,28.5310683 97.3488179,28.7163789 97.3488179,28.7163789" id="Fill-187" fill="#605579"/>
          <path d="M94.8912,25.7610714 C94.8912,25.7610714 95.1216577,25.605854 95.4813194,25.4020652 C95.8409811,25.1993323 96.3261552,24.9401087 96.8239861,24.7083385 C97.3202348,24.4739286 97.8291403,24.2653882 98.2156975,24.119146 C98.6017274,23.9729037 98.8685731,23.8947671 98.8685731,23.8947671 C98.8685731,23.8947671 98.6375881,24.0499845 98.2784537,24.2537733 C97.918792,24.4570342 97.4336179,24.7157298 96.9357871,24.9475 C96.4395383,25.181382 95.9301055,25.3899224 95.5440756,25.5361646 C95.1575184,25.6829348 94.8912,25.7610714 94.8912,25.7610714" id="Fill-189" fill="#605579"/>
          <path d="M93.6124498,22.3211584 C93.6124498,22.3211584 93.881405,22.2514689 94.2874746,22.1780839 C94.6940716,22.1046988 95.2372557,22.0207547 95.783604,21.9658478 C96.3294249,21.9088292 96.87841,21.8797919 97.2918627,21.8697609 C97.7042607,21.8592019 97.9816537,21.8729286 97.9816537,21.8729286 C97.9816537,21.8729286 97.7126985,21.9436739 97.3066289,22.017059 C96.9000318,22.0904441 96.3568478,22.1738602 95.8104995,22.2282391 C95.2646786,22.2863137 94.7156935,22.3137671 94.3027682,22.325382 C93.8898428,22.335413 93.6124498,22.3211584 93.6124498,22.3211584" id="Fill-191" fill="#605579"/>
          <path d="M93.9261254,18.2223106 C93.9261254,18.2223106 94.201409,18.2582112 94.6058965,18.3421553 C95.0103841,18.4255714 95.5456577,18.5506957 96.0724935,18.7038012 C96.6003841,18.854795 97.1208915,19.0332422 97.5074488,19.1784286 C97.8945333,19.322559 98.1466129,19.439236 98.1466129,19.439236 C98.1466129,19.439236 97.870802,19.4038634 97.4668418,19.3204472 C97.0618269,19.2370311 96.5270806,19.1113789 96.0002448,18.9577453 C95.4723542,18.8067516 94.9518468,18.6277764 94.5652896,18.483646 C94.1787323,18.3389876 93.9261254,18.2223106 93.9261254,18.2223106" id="Fill-193" fill="#605579"/>
          <path d="M96.5016617,14.2889752 C96.5016617,14.2889752 96.7178806,14.4637267 97.0184776,14.7461801 C97.3190746,15.0296894 97.7098507,15.417205 98.079005,15.8237267 C98.4497413,16.2291925 98.7993831,16.6536646 99.0535721,16.9799379 C99.3077612,17.3056832 99.4612239,17.5369255 99.4612239,17.5369255 C99.4612239,17.5369255 99.245005,17.3627019 98.944408,17.0797205 C98.6438109,16.7962112 98.2530348,16.4092236 97.8838806,16.0021739 C97.5131443,15.597236 97.1640299,15.172236 96.9093134,14.8464907 C96.6556517,14.5202174 96.5016617,14.2889752 96.5016617,14.2889752" id="Fill-195" fill="#605579"/>
          <path d="M105.931337,12.1972888 C105.931337,12.1972888 105.887039,12.471823 105.790531,12.8735932 C105.694024,13.2753634 105.552163,13.8070093 105.381825,14.3296801 C105.215178,14.8528789 105.019526,15.3676304 104.863427,15.7498665 C104.7068,16.1321025 104.581815,16.3807671 104.581815,16.3807671 C104.581815,16.3807671 104.625586,16.1062329 104.722094,15.7044627 C104.819128,15.3021646 104.960989,14.7710466 105.131327,14.2483758 C105.298501,13.725177 105.494153,13.2109534 105.650253,12.8281894 C105.80688,12.4459534 105.931337,12.1972888 105.931337,12.1972888" id="Fill-197" fill="#605579"/>
          <path d="M109.856185,14.5782391 C109.856185,14.5782391 109.663698,14.7783323 109.355717,15.0539224 C109.047737,15.3289845 108.628484,15.6853509 108.1913,16.0179596 C107.756225,16.3526801 107.30322,16.6646988 106.956742,16.8901335 C106.610792,17.1150404 106.366623,17.2480839 106.366623,17.2480839 C106.366623,17.2480839 106.558583,17.0479907 106.866563,16.7718727 C107.174543,16.4962826 107.594324,16.140972 108.031508,15.8083634 C108.466583,15.4731149 108.920115,15.1616242 109.266066,14.9361894 C109.612543,14.7112826 109.856185,14.5782391 109.856185,14.5782391" id="Fill-199" fill="#605579"/>
          <path d="M111.917753,18.072795 C111.917753,18.072795 111.674639,18.2074224 111.299156,18.3790062 C110.923146,18.5505901 110.417405,18.7665217 109.901644,18.955 C109.386937,19.146118 108.861684,19.3092547 108.464579,19.422236 C108.066947,19.5341615 107.794828,19.5890683 107.794828,19.5890683 C107.794828,19.5890683 108.037942,19.454441 108.412898,19.2823292 C108.788907,19.1107453 109.294649,18.8958696 109.810937,18.7068634 C110.325644,18.5162733 110.850898,18.3531366 111.248002,18.2406832 C111.645106,18.1282298 111.917753,18.072795 111.917753,18.072795" id="Fill-201" fill="#605579"/>
          <path d="M112.252471,22.2108168 C112.252471,22.2108168 111.977714,22.2535807 111.566371,22.2863137 C111.1545,22.3179907 110.605515,22.347028 110.05653,22.345972 C109.507545,22.3480839 108.95856,22.3211584 108.547217,22.2900093 C108.134819,22.2593882 107.86059,22.2171522 107.86059,22.2171522 C107.86059,22.2171522 108.134819,22.1743882 108.54669,22.1416553 C108.95856,22.1099783 109.507545,22.0814689 110.05653,22.0819969 C110.605515,22.0798851 111.1545,22.1078665 111.565844,22.1379596 C111.977714,22.1696366 112.252471,22.2108168 112.252471,22.2108168" id="Fill-203" fill="#605579"/>
          <path d="M111.14216,26.2214969 C111.14216,26.2214969 110.879006,26.1333292 110.49825,25.9723043 C110.118021,25.8118075 109.617026,25.5847888 109.129742,25.3313727 C108.640877,25.0811242 108.165195,24.8044783 107.813971,24.5874907 C107.46222,24.3710311 107.238091,24.2073665 107.238091,24.2073665 C107.238091,24.2073665 107.501772,24.2955342 107.882001,24.4555031 C108.26223,24.616528 108.762698,24.8440745 109.250508,25.0969627 C109.739374,25.3477391 110.214001,25.6243851 110.565752,25.8408447 C110.917503,26.0578323 111.14216,26.2214969 111.14216,26.2214969" id="Fill-205" fill="#605579"/>
          <path d="M101.245816,30.5559689 C101.245816,30.5559689 101.244766,30.2777391 101.274826,29.864882 C101.304886,29.4530807 101.358677,28.9050683 101.441473,28.3623354 C101.521104,27.8180186 101.630269,27.2789814 101.722557,26.8756273 C101.814846,26.4733292 101.897647,26.2077702 101.897647,26.2077702 C101.897647,26.2077702 101.898697,26.486 101.869692,26.8978012 C101.839632,27.3106584 101.784786,27.8581429 101.70199,28.4014037 C101.622358,28.9451925 101.512667,29.4847578 101.420905,29.8870559 C101.32809,30.289882 101.245816,30.5559689 101.245816,30.5559689" id="Fill-207" fill="#605579"/>
          <path d="M108.619149,29.014882 C108.619149,29.014882 108.429299,28.8121491 108.169836,28.4906273 C107.911428,28.1680497 107.577607,27.7303789 107.268045,27.2768696 C106.9569,26.8244161 106.66896,26.3555963 106.461706,25.997646 C106.255507,25.6396957 106.134741,25.3894472 106.134741,25.3894472 C106.134741,25.3894472 106.324592,25.5921801 106.584582,25.9137019 C106.84299,26.2357516 107.176284,26.6734224 107.485846,27.1274596 C107.79699,27.579913 108.084403,28.0492609 108.292184,28.4066832 C108.498383,28.7641056 108.619149,29.014882 108.619149,29.014882" id="Fill-209" fill="#605579"/>
          <path d="M100.460472,20.4681584 C100.460472,20.1608913 100.709387,19.9122267 101.016312,19.9122267 C101.323238,19.9122267 101.571626,20.1608913 101.571626,20.4681584 C101.571626,20.7754255 101.323238,21.024618 101.016312,21.024618 C100.709387,21.024618 100.460472,20.7754255 100.460472,20.4681584" id="Fill-211" fill="#FFFFFF"/>
          <path d="M84.6470119,20.4351615 C84.6834,20.1305342 84.835808,19.8977081 84.9882159,19.9167143 C85.1406239,19.9341366 85.2355493,20.196 85.1986338,20.5011553 C85.1627731,20.8063106 85.0098378,21.0386087 84.8574299,21.0206584 C84.7050219,21.0021801 84.6111512,20.7403168 84.6470119,20.4351615" id="Fill-213" fill="#FFFFFF"/>
          <path d="M92.6684697,26.3034876 C92.6684697,26.3034876 91.7941015,25.9228354 91.844201,24.6378043 C91.844201,24.6378043 92.7380816,25.0575248 92.6684697,26.3034876" id="Fill-215" fill="#615D7A"/>
        </g>
      </g>
    </g>
  </g>
</svg>