<svg width="74px" height="146px" viewBox="0 0 74 146" version="1.1" xml:space="preserve" xmlns="http://www.w3.org/2000/svg" xmlns:xlink="http://www.w3.org/1999/xlink">
  <defs/>
  <g>
    <title>trumpet-a</title>
    <desc>Created with Sketch.</desc>
    <g id="music" stroke="none" stroke-width="1" fill="none" fill-rule="evenodd">
      <g id="trumpet-a" fill-rule="nonzero">
        <g id="Group" transform="translate(6.000000, 14.000000)">
          <path d="M17.0074766,70.3414634 C16.1495327,70.0902439 15.4934579,69.6380488 15.1401869,68.7839024 C14.7364486,67.7790244 14.7364486,66.8243902 15.1401869,65.8697561 C15.2915888,65.5180488 15.4934579,65.1663415 15.9476636,65.0156098 C16.4523364,64.864878 17.0074766,65.0156098 17.3607477,65.4678049 C17.5121495,65.6687805 17.6635514,65.92 17.8149533,66.1712195 C17.9158879,66.3721951 18.0168224,66.5731707 18.117757,66.7741463 C18.3700935,66.924878 18.5214953,66.7741463 18.7738318,66.6736585 C18.7738318,65.6687805 18.6728972,64.6639024 18.9252336,63.6590244 C18.5719626,63.0560976 18.2186916,62.4531707 18.0168224,61.8 C17.9158879,61.4985366 17.6635514,61.3980488 17.3607477,61.4985366 C17.1084112,61.6492683 17.1588785,61.9507317 17.1588785,62.1517073 C17.1588785,62.6541463 17.0074766,63.1063415 16.7046729,63.5082927 C16.2504673,64.2117073 15.4934579,64.362439 14.8373832,63.9102439 C13.5757009,63.0560976 13.0205607,60.6443902 13.7775701,59.2878049 C14.3327103,58.2829268 15.7457944,58.2829268 16.3514019,59.3380488 C16.553271,59.6897561 16.6542056,60.0917073 16.8056075,60.3931707 C17.1084112,60.4936585 17.3102804,60.4936585 17.6130841,60.242439 C17.7140187,59.6395122 17.5626168,58.9863415 17.8149533,58.3331707 C18.0168224,57.8307317 18.2186916,57.4790244 18.7233645,57.3282927 C19.0766355,57.2278049 19.3794393,57.1273171 19.7327103,57.0268293 C19.7327103,56.8760976 19.7831776,56.7756098 19.7831776,56.7253659 C19.2785047,54.9668293 19.1271028,53.1580488 18.7233645,51.3995122 C18.2691589,49.3897561 17.9158879,47.38 17.5626168,45.3702439 C17.2093458,43.4107317 16.8560748,41.4009756 16.4523364,39.4414634 C16.3009346,38.7882927 16.1495327,38.135122 15.9981308,37.4317073 C15.5439252,35.4219512 15.0897196,33.3619512 14.5850467,31.3521951 C13.8785047,28.6390244 13.0205607,25.9760976 11.7084112,23.4639024 C10.2953271,20.8512195 8.73084112,18.2887805 6.96448598,15.9273171 C5.24859813,13.6663415 3.28037383,11.6565854 1.00934579,9.94829268 C0.857943925,9.84780488 0.706542056,9.69707317 0.555140187,9.54634146 C0.0504672897,8.94341463 0.0504672897,8.39073171 0.555140187,7.78780488 C0.908411215,7.33560976 1.36261682,6.98390244 1.81682243,6.68243902 C3.17943925,5.82829268 4.69345794,5.22536585 6.20747664,4.67268293 C9.53831776,3.46682927 12.9196262,2.41170732 16.4018692,1.65804878 C17.9663551,1.30634146 19.5813084,1.05512195 21.1457944,0.904390244 C23.8205607,0.602926829 26.4953271,0.351707317 29.2205607,0.351707317 C30.5327103,0.351707317 31.8953271,0.452195122 33.2074766,0.602926829 C33.7626168,0.703414634 34.317757,0.803902439 34.8224299,1.05512195 C35.5794393,1.45707317 35.7308411,1.80878049 35.5794393,2.71317073 C35.4785047,3.56731707 34.9738318,4.2204878 34.6205607,4.92390244 C32.6018692,8.94341463 31.0373832,13.1639024 30.0785047,17.5853659 C29.5233645,20.097561 29.0186916,22.6097561 28.7663551,25.1721951 C28.6654206,25.9760976 28.6149533,26.78 28.6654206,27.5839024 C28.7158879,28.2370732 28.4635514,28.84 28.6149533,29.4931707 C28.8672897,29.6439024 29.0186916,29.4931707 29.1700935,29.342439 C29.6242991,29.0409756 30.0785047,28.6892683 30.5831776,28.3878049 C33.2579439,26.7297561 35.882243,27.1317073 38.4560748,28.5385366 C39.1121495,28.8902439 39.6672897,29.4931707 40.1214953,30.0960976 C41.4336449,31.8043902 42.4429907,33.6634146 43.0485981,35.7234146 C43.1495327,36.075122 43.2504673,36.4268293 43.4018692,36.8287805 C44.7140187,37.3312195 45.4205607,38.4365854 45.9757009,39.6926829 C46.3794393,40.5468293 46.7831776,41.4512195 46.9850467,42.4058537 C47.4392523,44.6668293 47.8934579,46.9780488 48.3476636,49.2390244 C48.4485981,49.7414634 48.246729,50.2941463 48.5495327,50.7463415 C48.8018692,50.997561 49.1046729,50.7965854 49.4074766,50.8970732 C49.4579439,50.9473171 49.5588785,50.9473171 49.6093458,51.0478049 C50.4672897,52.1531707 50.9719626,53.4092683 51.0728972,54.8160976 C51.1233645,55.3687805 51.2747664,55.9214634 51.1233645,56.4741463 C51.0224299,56.7756098 51.1738318,57.0268293 51.3757009,57.2278049 C52.3850467,58.4839024 52.6373832,59.9912195 52.7383178,61.4985366 C52.3850467,62.6039024 52.8392523,63.6087805 53.2934579,64.6136585 C53.7476636,65.5682927 53.7981308,66.6234146 53.7476636,67.6785366 C53.7476636,68.1809756 53.646729,68.6331707 53.2934579,69.0853659 C52.6878505,68.9346341 52.082243,69.1356098 51.4261682,69.3365854 C51.728972,71.2960976 52.0317757,73.2556098 52.1327103,75.164878 C52.2336449,76.3707317 52.2336449,77.5765854 51.728972,78.6819512 C51.1738318,79.9380488 50.4168224,80.9429268 49.0542056,81.4453659 C47.1364486,85.3141463 44.3102804,88.0273171 39.717757,88.3287805 C40.071028,90.5395122 40.8280374,92.6497561 41.2317757,94.8102439 C42.4429907,95.5639024 42.5943925,95.9658537 41.9383178,97.3726829 C42.5439252,98.3273171 43.3009346,99.2819512 43.6542056,100.538049 C43.4018692,101.341951 42.6953271,101.794146 41.9383178,102.045366 C40.5757009,102.547805 39.1626168,102.899512 37.6990654,102.74878 C36.588785,102.648293 36.235514,102.246341 36.235514,101.090732 C36.235514,100.286829 36.4373832,99.4829268 36.6392523,98.6790244 C36.4878505,98.5282927 36.3364486,98.377561 36.235514,98.2268293 C35.8317757,97.7746341 35.6803738,97.2219512 35.9831776,96.6692683 C36.2859813,96.1668293 36.1850467,95.764878 36.0841121,95.262439 C35.5794393,93.0014634 35.0747664,90.7404878 34.5700935,88.4795122 C34.5700935,88.4292683 34.5196262,88.3287805 34.4186916,88.2282927 C34.1663551,88.1780488 33.9140187,88.077561 33.6616822,87.9770732 C32.046729,87.524878 30.7345794,86.6204878 29.6747664,85.4146341 C28.917757,84.5604878 28.211215,83.7063415 27.5551402,82.8019512 C26.646729,81.4453659 25.9906542,79.9882927 25.435514,78.4809756 C25.082243,77.5263415 24.728972,76.5214634 24.3252336,75.5668293 C24.1233645,75.5668293 24.0224299,75.5165854 23.9214953,75.5165854 C22.8616822,75.8682927 22.1046729,75.3658537 21.4990654,74.5619512 C21.246729,74.2102439 20.9943925,73.8585366 20.7420561,73.4565854 C20.388785,73.3058537 19.9850467,73.4565854 19.6317757,73.5570732 C19.3794393,73.9087805 19.5308411,74.2102439 19.4803738,74.5117073 C19.4299065,74.8634146 19.3794393,75.215122 19.1271028,75.5165854 C18.7738318,75.9687805 18.2691589,76.1195122 17.764486,75.9687805 C16.7551402,75.6170732 16.3009346,74.8131707 16.1495327,73.9087805 C15.9476636,72.6526829 16.0990654,71.4970732 17.1588785,70.6429268 C18.1682243,70.4921951 18.3700935,70.5926829 18.8242991,71.3463415 C19.0261682,71.6980488 19.1775701,72.1 19.3794393,72.5019512 C19.7831776,72.5019512 20.1364486,72.4014634 20.4392523,72.1502439 C20.1869159,71.2458537 20.2373832,70.3414634 20.5906542,69.4370732 C20.3383178,69.1356098 20.0859813,68.8843902 19.8841121,68.5829268 C19.6317757,68.2814634 19.5308411,67.8795122 19.1775701,67.6785366 C18.9252336,67.6785366 18.6728972,67.7790244 18.5214953,67.9297561 C18.117757,69.7887805 18.117757,69.7887805 17.0074766,70.3414634 Z M48.4990654,67.3770732 C48.4990654,67.7287805 48.2971963,68.1307317 48.7009346,68.3819512 C48.8018692,68.5326829 48.953271,68.5829268 49.1046729,68.5829268 C49.5588785,68.482439 50.0635514,68.3317073 50.517757,68.2312195 C50.9719626,68.1307317 51.4766355,68.0302439 51.9308411,67.9297561 C52.1831776,67.8795122 52.3345794,67.6785366 52.3850467,67.4273171 C52.5364486,66.0204878 52.3850467,64.6639024 51.5271028,63.4078049 C50.3663551,63.6590244 49.2056075,63.9102439 48.0448598,64.1614634 C48.1457944,65.2668293 48.4990654,66.3219512 48.4990654,67.3770732 Z M39.5663551,50.997561 C39.5158879,51.4497561 39.5158879,51.8517073 39.717757,52.2536585 C39.8186916,52.4043902 39.9196262,52.504878 40.1719626,52.3039024 C40.1214953,52.0526829 40.071028,51.7512195 40.0205607,51.4497561 C40.1719626,51.0980488 40.4242991,51.1482927 40.7271028,51.3492683 C40.7271028,51.1482927 40.7775701,50.997561 40.7775701,50.8468293 C40.5757009,49.9926829 40.3738318,49.1385366 40.1719626,48.2843902 C39.9196262,47.1790244 39.6168224,46.1239024 39.4654206,45.0185366 C39.1121495,43.0087805 38.6579439,41.0492683 38.2542056,39.0395122 C37.6990654,39.5921951 37.5981308,39.8434146 37.3962617,40.5970732 C37.0429907,42.0039024 37.0429907,43.4609756 37.2448598,44.9180488 C37.446729,46.5760976 37.6990654,48.2341463 38.0018692,49.8921951 C38.153271,50.8468293 38.3551402,51.7512195 38.5570093,52.6556098 C39.011215,52.4546341 39.011215,52.4546341 39.011215,52.3541463 C38.9102804,51.8014634 38.8093458,51.2487805 38.8598131,50.6960976 C38.8598131,50.495122 38.9607477,50.2941463 39.2130841,50.2941463 C39.364486,50.2941463 39.5158879,50.3946341 39.5663551,50.5956098 C39.5158879,50.6960976 39.5158879,50.8468293 39.5663551,50.997561 Z M37.3457944,66.2214634 C36.6392523,66.1712195 35.9327103,66.422439 35.1757009,66.4726829 C35.4280374,67.8292683 35.6803738,69.1356098 35.9327103,70.4419512 C35.9831776,70.6931707 36.0841121,70.8941463 36.3869159,70.9946341 C38.8093458,70.3414634 41.282243,69.9395122 43.8056075,69.5878049 C43.6542056,68.0302439 43.4523364,66.5229268 43.0990654,65.1160976 C42.846729,64.9653659 42.6448598,65.0156098 42.4429907,65.0658537 C40.7775701,65.3170732 39.1626168,65.7190244 37.4971963,66.1209756 C37.446729,66.0707317 37.3962617,66.1712195 37.3457944,66.2214634 Z M5.70280374,6.43121951 C6.00560748,6.48146341 6.45981308,6.2302439 6.61121495,6.78292683 C6.30841121,7.28536585 5.75327103,7.28536585 5.29906542,7.53658537 C4.79439252,7.78780488 4.28971963,8.03902439 3.78504673,8.2902439 C3.33084112,8.54146341 2.87663551,8.69219512 2.42242991,9.14439024 C2.82616822,9.34536585 3.12897196,9.34536585 3.4317757,9.19463415 C3.73457944,9.04390244 4.08785047,8.84292683 4.39065421,8.69219512 C5.09719626,8.3404878 5.80373832,7.98878049 6.61121495,7.73756098 C6.91401869,7.63707317 7.16635514,7.63707317 7.31775701,7.98878049 C6.66168224,8.64195122 5.70280374,8.84292683 4.99626168,9.39560976 C5.24859813,9.64682927 5.50093458,9.54634146 5.80373832,9.44585366 C6.20747664,9.29512195 6.61121495,9.09414634 7.06542056,8.99365854 C7.51962617,8.89317073 7.67102804,9.04390244 7.82242991,9.64682927 C8.22616822,9.64682927 8.62990654,9.64682927 9.03364486,9.64682927 C12.9700935,9.39560976 16.8560748,8.74243902 20.6915888,7.93853659 C22.1551402,7.63707317 23.5682243,7.23512195 25.0317757,6.88341463 C26.1420561,6.58195122 27.2018692,6.33073171 28.2616822,5.87853659 C28.564486,5.92878049 28.8168224,5.87853659 28.8672897,5.42634146 C28.564486,5.42634146 28.3121495,5.37609756 28.0598131,5.37609756 C27.9084112,5.27560976 27.9588785,5.17512195 28.0093458,5.07463415 C28.1102804,4.87365854 28.3626168,4.87365854 28.564486,4.82341463 C29.0691589,4.82341463 29.6242991,4.82341463 30.128972,4.87365854 C30.5831776,4.92390244 30.9869159,4.87365854 31.2897196,4.47170732 C30.3813084,4.12 29.271028,4.72292683 28.4130841,4.0697561 C28.4635514,3.81853659 28.564486,3.71804878 28.7158879,3.66780488 C29.0186916,3.61756098 29.3719626,3.56731707 29.6747664,3.51707317 C30.5831776,3.46682927 31.5420561,3.46682927 32.4504673,3.71804878 C32.8037383,3.81853659 33.1065421,3.71804878 33.3084112,3.31609756 C32.6018692,3.01463415 31.8448598,2.96439024 31.1383178,2.96439024 C30.5831776,2.96439024 30.0280374,2.96439024 29.4224299,2.91414634 C29.1700935,2.91414634 28.9682243,2.76341463 29.0186916,2.41170732 C29.3214953,2.06 29.7757009,2.06 30.2299065,2.06 C30.6841121,2.06 31.1383178,2.06 31.5420561,2.06 C32.046729,2.1102439 32.5009346,2.21073171 32.9551402,2.26097561 C33.4093458,2.31121951 33.7121495,2.71317073 34.2168224,2.66292683 C34.3682243,2.36146341 34.4186916,2.06 34.1158879,1.90926829 C33.8635514,1.75853659 33.5102804,1.65804878 33.2074766,1.60780488 C32.5514019,1.50731707 31.8448598,1.45707317 31.188785,1.40682927 C30.0785047,1.35658537 29.0186916,1.50731707 27.9084112,1.55756098 C25.4859813,1.60780488 23.0635514,1.75853659 20.6915888,2.06 C18.9757009,2.26097561 17.2598131,2.61268293 15.5943925,2.96439024 C13.7271028,3.41658537 11.8598131,3.91902439 9.99252336,4.47170732 C8.37757009,4.97414634 6.76261682,5.42634146 5.24859813,6.18 C3.88598131,6.58195122 2.67476636,7.28536585 1.56448598,8.08926829 C1.36261682,8.24 1.16074766,8.39073171 1.21121495,8.64195122 C1.36261682,8.84292683 1.56448598,8.79268293 1.71588785,8.64195122 C2.52336449,7.98878049 3.4317757,7.48634146 4.39065421,7.03414634 C4.74392523,6.88341463 5.29906542,6.78292683 5.70280374,6.43121951 Z M3.4317757,10.6014634 C3.68411215,10.8526829 3.88598131,11.0536585 4.08785047,11.304878 C5.04672897,12.2595122 6.05607477,13.2141463 6.96448598,14.2190244 C7.92336449,15.2741463 8.73084112,16.4297561 9.43738318,17.6356098 C10.6485981,19.6453659 12.011215,21.5043902 12.9700935,23.664878 C13.5757009,24.9712195 14.1813084,26.277561 14.5850467,27.6843902 C15.5439252,31.0004878 16.2504673,34.3668293 17.0074766,37.7331707 C17.6130841,40.4463415 18.1682243,43.1595122 18.6728972,45.8726829 C19.5308411,50.1434146 20.3383178,54.4643902 21.1962617,58.735122 C21.7514019,61.4482927 22.2560748,64.1614634 23.0130841,66.8243902 C24.0728972,70.542439 24.9308411,74.3609756 26.3943925,77.9785366 C27,79.5360976 27.6056075,81.0936585 28.564486,82.5507317 C29.5738318,84.0580488 30.8859813,85.2136585 32.2990654,86.2687805 C32.753271,86.6204878 33.3084112,86.8214634 34.0149533,86.8717073 C33.9140187,86.3190244 33.9140187,85.9170732 33.8130841,85.464878 C33.5102804,84.0580488 33.2074766,82.6512195 32.9551402,81.2443902 C32.5009346,78.9834146 32.1476636,76.722439 31.6934579,74.5117073 C30.9869159,70.8439024 30.1794393,67.2263415 29.4728972,63.5585366 C28.9682243,60.9458537 28.4130841,58.3834146 27.9084112,55.7707317 C27.353271,52.9068293 26.7981308,50.0429268 26.2934579,47.1287805 C25.9906542,45.1692683 25.6878505,43.26 25.5364486,41.3004878 C25.3850467,39.5921951 25.435514,37.8336585 25.6878505,36.1253659 C25.8897196,34.4673171 26.1925234,32.8595122 27.1009346,31.4526829 C27.353271,31.0507317 27.4037383,30.6487805 27.4037383,30.1965854 C27.3028037,28.0863415 27.3028037,25.9258537 27.6560748,23.8156098 C27.9084112,22.3585366 28.0598131,20.9014634 28.3626168,19.4443902 C28.8672897,17.0829268 29.4224299,14.7717073 30.1794393,12.4604878 C30.9869159,9.99853659 31.9962617,7.68731707 33.0056075,5.32585366 C33.0560748,5.17512195 33.2579439,4.97414634 33.0560748,4.77317073 C32.9551402,4.82341463 32.8542056,4.82341463 32.753271,4.87365854 C28.8672897,6.93365854 24.7794393,8.3404878 20.4897196,9.14439024 C17.9663551,9.59658537 15.4429907,10.0990244 12.8691589,10.4004878 C10.0429907,10.7521951 7.26728972,10.9029268 4.4411215,10.6014634 C4.13831776,10.5009756 3.78504673,10.4004878 3.4317757,10.6014634 Z M39.9700935,95.262439 C39.5158879,93.4034146 39.1121495,91.5946341 38.6579439,89.7356098 C37.9514019,86.7209756 37.2953271,83.7063415 36.7906542,80.6917073 C36.5383178,79.3853659 36.3364486,78.0790244 36.0841121,76.7726829 C35.8317757,75.6673171 35.6803738,74.5619512 35.4785047,73.4565854 C35.0242991,71.1956098 34.6205607,68.8843902 34.0654206,66.6234146 C33.5102804,64.2117073 33.0056075,61.7497561 32.6018692,59.3380488 C32.2990654,57.4790244 32.0971963,55.62 31.7943925,53.7609756 C31.5925234,52.1531707 31.3906542,50.5956098 31.0878505,48.9878049 C30.8859813,47.882439 30.8859813,46.7268293 30.7345794,45.6214634 C30.4317757,43.2097561 30.2803738,40.8482927 30.3308411,38.4365854 C30.3308411,37.1302439 30.6841121,35.9746341 31.2392523,34.8692683 C31.5925234,34.1658537 32.1476636,33.5629268 32.9046729,33.1609756 C34.5700935,32.2565854 36.8411215,32.9097561 37.8504673,34.6180488 C38.4056075,35.522439 38.9102804,36.4268293 39.1121495,37.4819512 C39.4654206,38.9892683 39.7682243,40.5468293 40.071028,42.0541463 C40.4242991,43.762439 40.5757009,45.4707317 41.0299065,47.1287805 C41.6859813,49.44 42.1401869,51.8014634 42.5943925,54.1629268 C42.7962617,55.2682927 42.9981308,56.3736585 43.2,57.4790244 C43.4018692,58.684878 43.553271,59.9409756 43.7551402,61.1468293 C44.1084112,63.4078049 44.5626168,65.6185366 44.8654206,67.9297561 C45.1682243,70.1907317 45.7233645,72.4014634 46.0766355,74.662439 C46.1775701,75.2653659 46.4299065,75.8180488 46.7327103,76.3204878 C46.8841121,76.5717073 47.0859813,76.7726829 47.388785,76.7726829 C47.7420561,76.722439 48.0953271,76.5214634 48.246729,76.1697561 C48.2971963,76.0190244 48.2971963,75.8682927 48.2971963,75.717561 C48.2971963,75.0141463 48.2971963,74.2604878 48.246729,73.5570732 C47.8934579,70.2409756 47.4392523,66.975122 46.7831776,63.7092683 C46.3794393,61.8 46.0261682,59.8404878 45.6728972,57.9312195 C45.3196262,56.0219512 44.9663551,54.062439 44.7140187,52.1029268 C44.3607477,49.5404878 43.9570093,47.0282927 43.6037383,44.4658537 C43.2,41.8531707 42.5943925,39.2907317 41.988785,36.7282927 C41.5345794,34.8190244 40.6261682,33.0604878 39.5663551,31.402439 C38.153271,29.0912195 33.6616822,27.5336585 30.7345794,29.5936585 C28.9682243,30.7995122 27.7065421,32.3570732 27.2018692,34.4673171 C26.4953271,37.582439 26.6971963,40.697561 27,43.8126829 C27.1514019,45.32 27.4542056,46.8273171 27.7065421,48.3346341 C28.3626168,51.9019512 29.0691589,55.4190244 29.7252336,58.9360976 C29.9271028,60.0414634 30.2803738,61.0965854 30.4317757,62.2019512 C30.7345794,63.9102439 31.0878505,65.5682927 31.4411215,67.2765854 C32.046729,70.1907317 32.6018692,73.104878 33.2074766,76.0190244 C33.9140187,79.7370732 34.6205607,83.5053659 35.3271028,87.2234146 C35.6803738,89.1326829 36.1345794,91.0921951 36.5383178,93.0014634 C36.7401869,93.9560976 36.8915888,94.9609756 37.2448598,95.9156098 C38.2542056,96.0663415 39.1121495,95.764878 39.9700935,95.262439 Z M37.8504673,37.7331707 C37.4971963,36.8287805 37.1943925,35.9746341 36.6897196,35.2209756 C36.0841121,34.3165854 35.1757009,33.9146341 34.1158879,33.9146341 C33.5102804,33.9146341 33.0056075,34.1658537 32.6523364,34.6180488 C32.1476636,35.2209756 31.7439252,35.9243902 31.5420561,36.7282927 C31.4411215,37.3312195 31.2897196,37.9843902 31.2897196,38.637561 C31.2897196,41.0995122 31.5420561,43.5112195 31.7943925,45.9229268 C31.8448598,46.1741463 31.7943925,46.4756098 32.046729,46.6765854 C33.7121495,45.2697561 34.3682243,45.1692683 36.0336449,46.0234146 C36.0336449,45.9731707 36.1345794,45.8726829 36.0841121,45.822439 C35.8317757,44.7170732 35.7813084,43.6117073 35.882243,42.4560976 C36.0336449,40.7478049 36.1850467,38.9390244 37.8504673,37.7331707 Z M36.3869159,71.9995122 C36.4878505,73.155122 37.5476636,78.8829268 37.9009346,80.0887805 C40.071028,81.1439024 41.5850467,80.6917073 42.8971963,78.5814634 C41.988785,76.5717073 41.4336449,74.4614634 41.2317757,72.2507317 C41.1813084,71.8487805 41.0803738,71.4468293 40.8280374,71.044878 C39.3140187,71.3965854 37.9009346,71.6980488 36.3869159,71.9995122 Z M49.0037383,69.6380488 C49.0037383,69.7887805 48.953271,69.8892683 49.0037383,70.04 C49.1551402,71.4468293 49.3065421,72.8034146 49.4579439,74.2102439 C49.5084112,74.8131707 49.5084112,75.4160976 49.5084112,76.0190244 C49.5084112,76.2702439 49.4074766,76.5717073 49.3065421,76.8229268 C48.8523364,78.0287805 46.7327103,78.4809756 45.7738318,77.224878 C45.3700935,76.6219512 45.0168224,75.9687805 44.8654206,75.2653659 C44.6635514,74.4112195 44.5121495,73.5570732 44.3607477,72.6526829 C44.2093458,71.9995122 44.2093458,71.2960976 43.9065421,70.6429268 C43.3009346,70.7434146 42.7457944,70.8439024 42.2411215,70.8941463 C42.0392523,71.597561 42.3420561,72.1502439 42.4429907,72.7029268 C42.7457944,74.662439 43.2504673,76.5214634 44.1588785,78.3302439 C44.3102804,78.6317073 44.5121495,78.9331707 44.7140187,79.284878 C45.5719626,80.6917073 48.4485981,80.6917073 49.4074766,79.7370732 C50.2654206,78.8829268 50.6691589,77.9282927 50.7700935,76.7726829 C50.871028,75.0141463 50.6691589,73.2556098 50.3663551,71.4970732 C50.2654206,70.7936585 50.2654206,70.0902439 49.9121495,69.4370732 C49.5588785,69.537561 49.2560748,69.5878049 49.0037383,69.6380488 Z M47.388785,81.4956098 C46.5813084,81.4956098 45.8747664,81.395122 45.2691589,81.1439024 C44.6130841,80.842439 44.0579439,80.4404878 43.4018692,80.0385366 C42.7962617,80.9429268 41.8878505,81.344878 41.0299065,81.6463415 C40.071028,81.9980488 39.0616822,81.7970732 38.1028037,81.4956098 C38.2037383,82.7014634 39.011215,86.4697561 39.3140187,87.1229268 C42.1906542,87.3741463 46.0766355,84.7614634 47.388785,81.4956098 Z M42.846729,63.7595122 C42.846729,63.0058537 42.3420561,59.9912195 42.0392523,59.0365854 C39.364486,59.3882927 36.7401869,60.1921951 34.1158879,60.5941463 C34.0654206,60.744878 34.0149533,60.8453659 34.0149533,60.8956098 C34.2672897,62.2521951 34.5700935,63.6590244 34.8224299,65.0156098 C34.8728972,65.2165854 34.9233645,65.417561 35.2261682,65.5180488 C37.6485981,65.1663415 40.071028,64.2619512 42.5439252,63.9604878 C42.6448598,63.86 42.7457944,63.8097561 42.846729,63.7595122 Z M41.2317757,53.4092683 C39.7682243,53.4092683 38.4560748,53.8614634 37.1439252,54.062439 C35.7813084,54.2634146 34.4691589,54.5146341 33.1570093,54.7156098 C33.1065421,55.9214634 33.5102804,58.5843902 33.8635514,59.5390244 C35.2261682,59.4887805 36.5383178,59.0365854 37.8504673,58.735122 C39.2130841,58.3834146 40.5757009,58.182439 42.0392523,57.9312195 C41.7364486,56.3736585 41.4841121,54.9668293 41.2317757,53.4092683 Z M51.3252336,62.302439 C51.4766355,60.4434146 51.3757009,58.735122 49.9626168,57.3282927 C49.0037383,57.68 48.0448598,57.8307317 47.035514,57.9814634 C47.2878505,59.74 47.4897196,61.3980488 47.8934579,63.1565854 C49.0037383,62.9053659 50.1140187,62.6039024 51.3252336,62.302439 Z M47.2373832,50.997561 C47.2373832,50.6960976 47.2878505,50.444878 47.2373832,50.1936585 C46.8336449,47.9326829 46.4803738,45.6717073 45.9757009,43.4609756 C45.6728972,42.3053659 45.4205607,41.0995122 44.8654206,40.0443902 C44.5626168,39.4414634 44.2598131,38.8385366 43.6037383,38.1853659 C43.9570093,40.5468293 44.6130841,42.6068293 44.8654206,44.7673171 C45.1682243,46.9278049 45.471028,49.1385366 45.9252336,51.2487805 C46.4299065,51.2990244 46.7831776,51.1985366 47.2373832,50.997561 Z M49.9121495,56.1726829 C49.7102804,54.615122 49.9121495,53.1078049 48.8523364,51.8517073 C47.8934579,52.002439 47.035514,52.1531707 46.1271028,52.3039024 C46.1271028,53.4595122 46.5308411,55.6702439 46.9345794,56.9765854 C47.9439252,56.8258537 48.9028037,56.624878 49.9121495,56.1726829 Z M37.1943925,101.291707 C38.8093458,101.84439 40.6261682,101.542927 42.1401869,100.437561 C41.8373832,99.5331707 41.3831776,98.7795122 40.7271028,98.0760976 C39.717757,98.6287805 38.5570093,98.7795122 37.446729,98.88 C37.0934579,100.286829 37.0934579,100.286829 37.1943925,101.291707 Z M36.1345794,49.0380488 C36.1850467,48.2843902 35.9327103,47.5809756 35.528972,47.0785366 C35.2766355,46.7770732 34.9738318,46.6263415 34.5700935,46.6263415 C33.5607477,46.6263415 32.8037383,47.4302439 32.7028037,48.4853659 C32.6018692,49.6409756 33.3588785,50.6960976 34.317757,50.8468293 C35.1757009,50.997561 35.5794393,50.7463415 35.882243,49.942439 C36.0336449,49.5907317 36.0841121,49.2390244 36.1345794,49.0380488 Z M23.8205607,74.3609756 C23.4168224,72.7029268 22.9121495,71.1453659 22.4579439,69.5878049 C22.2056075,69.5878049 22.0542056,69.5878049 21.9028037,69.6380488 C21.246729,69.7385366 21.1457944,69.8390244 21.1457944,70.4921951 C21.0953271,71.7985366 21.3981308,73.0043902 22.2056075,74.1097561 C22.6598131,74.662439 22.8616822,74.8131707 23.8205607,74.3609756 Z M36.7906542,50.8468293 C35.5794393,52.2034146 34.6205607,52.3541463 33.1570093,51.5502439 C32.9551402,51.4497561 32.8542056,51.1985366 32.5009346,51.3995122 C32.6523364,52.1531707 32.6018692,52.9570732 32.9551402,53.7609756 C34.4691589,53.56 35.882243,53.3087805 37.3457944,52.9570732 C37.1943925,52.3039024 37.0934579,51.7512195 36.9420561,51.1482927 C36.9925234,51.0478049 36.8915888,50.997561 36.7906542,50.8468293 Z M18.7233645,58.3834146 C18.5214953,59.6897561 18.471028,61.0463415 19.1775701,62.302439 C19.3794393,62.6541463 19.4803738,63.0560976 19.7831776,63.3073171 C20.1364486,63.3073171 20.4897196,63.357561 20.8429907,63.0560976 C20.4897196,61.4482927 20.1364486,59.7902439 19.7831776,58.1321951 C19.4299065,58.0819512 19.0766355,58.0317073 18.7233645,58.3834146 Z M19.9345794,64.3121951 C19.8841121,64.362439 19.8336449,64.4126829 19.8336449,64.4126829 C19.4299065,66.0204878 19.9345794,67.3268293 21.0953271,68.3819512 C21.4485981,68.7336585 21.8018692,68.6331707 22.1551402,68.3317073 C22.1551402,67.5780488 21.8523364,66.8746341 21.6504673,66.2214634 C21.4485981,65.5180488 21.4485981,64.8146341 20.9943925,64.1614634 C20.5906542,64.2619512 20.2373832,64.3121951 19.9345794,64.3121951 Z M15.9981308,61.8502439 C15.846729,61.6995122 15.6953271,61.8 15.5439252,61.8 C15.2915888,61.7497561 15.0897196,61.6492683 15.0392523,61.3478049 C14.988785,61.0965854 15.1401869,60.9960976 15.3420561,60.8956098 C15.5439252,60.8453659 15.6953271,60.744878 15.7457944,60.4434146 C15.6953271,60.2926829 15.5943925,60.0414634 15.4934579,59.8404878 C15.3925234,59.6395122 15.1906542,59.4385366 14.9383178,59.4887805 C14.635514,59.5390244 14.4336449,59.74 14.3831776,60.0414634 C14.2317757,60.9458537 14.3327103,61.8 14.7869159,62.5536585 C14.988785,62.855122 15.2411215,63.1063415 15.6448598,63.1063415 C15.9981308,62.5536585 15.9981308,62.5536585 15.9981308,61.8502439 Z M17.3102804,71.8990244 C16.9065421,72.5521951 16.8560748,73.2556098 17.1084112,73.9590244 C17.2598131,74.4112195 17.5121495,74.8634146 18.0672897,74.9639024 C18.471028,74.662439 18.5214953,74.2604878 18.4205607,73.8585366 C18.1682243,73.5068293 17.6635514,73.6073171 17.5626168,73.2556098 C17.5121495,72.7029268 18.0672897,72.7029268 18.1682243,72.3512195 C18.0672897,71.9492683 17.7140187,71.8990244 17.3102804,71.8990244 Z M17.0579439,69.1858537 C17.2598131,68.7839024 17.3102804,68.5326829 17.1588785,68.1809756 C16.8560748,68.1307317 16.4018692,68.0804878 16.3514019,67.6282927 C16.3009346,67.1760976 16.8560748,67.2765854 16.9570093,66.975122 C16.8560748,66.6234146 16.7551402,66.2214634 16.3514019,65.9702439 C15.6953271,66.5731707 15.6953271,67.2765854 15.8971963,68.0302439 C16.0485981,68.5829268 16.3009346,69.1356098 17.0579439,69.1858537 Z M41.0299065,96.0663415 C40.1214953,96.3678049 39.4654206,96.6692683 38.8093458,96.8702439 C38.1028037,97.0712195 37.3962617,96.9707317 36.6897196,97.1717073 C36.9925234,97.824878 37.5981308,97.7243902 38.0018692,97.6741463 C39.0616822,97.5234146 40.2224299,97.4229268 41.0299065,96.0663415 Z" id="Shape" fill="#010001"/>
          <path d="M17.0074766,70.3414634 C18.117757,69.7887805 18.117757,69.7887805 18.3196262,67.98 C18.5214953,67.8292683 18.7233645,67.7287805 18.9757009,67.7287805 C19.328972,67.9297561 19.4299065,68.3317073 19.682243,68.6331707 C19.9345794,68.8843902 20.1364486,69.1858537 20.388785,69.4873171 C20.035514,70.3917073 19.9345794,71.2458537 20.2373832,72.2004878 C19.9345794,72.4517073 19.6317757,72.5521951 19.1775701,72.5521951 C18.9757009,72.2004878 18.8242991,71.7985366 18.6224299,71.3965854 C18.1682243,70.5926829 17.9663551,70.542439 16.9570093,70.6931707 C17.0074766,70.4921951 17.0074766,70.4419512 17.0074766,70.3414634 Z" id="Shape" fill="#FAFAFA"/>
          <path d="M3.4317757,10.6014634 C3.83551402,10.4004878 4.13831776,10.5009756 4.4411215,10.5512195 C7.26728972,10.9029268 10.0429907,10.7019512 12.8691589,10.3502439 C15.4429907,10.0487805 17.9663551,9.54634146 20.4897196,9.09414634 C24.7794393,8.2902439 28.917757,6.93365854 32.753271,4.82341463 C32.8542056,4.77317073 32.9551402,4.72292683 33.0560748,4.72292683 C33.2579439,4.92390244 33.1065421,5.07463415 33.0056075,5.27560976 C31.9962617,7.63707317 30.9364486,9.99853659 30.1794393,12.4102439 C29.4224299,14.7214634 28.917757,17.0326829 28.3626168,19.3941463 C28.0598131,20.8512195 27.9084112,22.3082927 27.6560748,23.7653659 C27.3028037,25.8756098 27.3028037,27.9858537 27.4037383,30.1463415 C27.4037383,30.5985366 27.353271,31.0004878 27.1009346,31.402439 C26.1925234,32.8092683 25.8897196,34.4170732 25.6878505,36.075122 C25.4859813,37.7834146 25.3850467,39.5419512 25.5364486,41.2502439 C25.6878505,43.2097561 25.9906542,45.1692683 26.2934579,47.0785366 C26.7981308,49.942439 27.353271,52.8565854 27.9084112,55.7204878 C28.4130841,58.3331707 28.9682243,60.8956098 29.4728972,63.5082927 C30.2299065,67.1760976 30.9869159,70.7936585 31.6934579,74.4614634 C32.1476636,76.722439 32.5009346,78.9331707 32.9551402,81.1941463 C33.2074766,82.6009756 33.5102804,84.0078049 33.8130841,85.4146341 C33.9140187,85.8165854 33.964486,86.2687805 34.0149533,86.8214634 C33.3084112,86.7712195 32.753271,86.5702439 32.2990654,86.2185366 C30.8859813,85.1634146 29.5738318,84.0078049 28.564486,82.5004878 C27.6056075,81.0936585 27,79.5360976 26.3943925,77.9282927 C24.9308411,74.3107317 24.0728972,70.4921951 23.0130841,66.7741463 C22.2560748,64.1112195 21.7514019,61.3980488 21.1962617,58.684878 C20.3383178,54.4141463 19.5308411,50.0931707 18.6728972,45.822439 C18.117757,43.1092683 17.6130841,40.3960976 17.0074766,37.6829268 C16.2504673,34.3165854 15.5439252,30.9502439 14.5850467,27.6341463 C14.1813084,26.2273171 13.5757009,24.9209756 12.9700935,23.6146341 C12.011215,21.5043902 10.6485981,19.595122 9.43738318,17.5853659 C8.73084112,16.3795122 7.92336449,15.2239024 6.96448598,14.1687805 C6.05607477,13.1639024 5.04672897,12.2092683 4.08785047,11.2546341 C3.88598131,11.1039024 3.63364486,10.8526829 3.4317757,10.6014634 Z M26.2934579,72.6526829 C25.788785,72.8034146 25.7383178,73.104878 25.788785,73.4565854 C25.9401869,74.4112195 26.2934579,75.3156098 26.5962617,76.22 C27.2018692,78.1292683 28.0093458,79.8878049 29.1196262,81.5458537 C29.7252336,82.4502439 30.3813084,83.404878 31.3401869,84.0580488 C31.5420561,83.957561 31.6934579,83.8068293 31.6429907,83.5556098 C31.4915888,83.0531707 31.188785,82.6512195 30.8859813,82.1990244 C30.0785047,81.1439024 29.3719626,80.0385366 28.8168224,78.8326829 C28.1607477,77.4760976 27.7065421,76.0692683 27.2018692,74.662439 C26.9495327,74.0092683 26.7981308,73.2556098 26.2934579,72.6526829 Z M29.3214953,77.0741463 C29.1196262,77.1243902 28.9682243,77.224878 28.9682243,77.3756098 C28.9682243,77.5263415 28.9682243,77.6770732 29.0186916,77.8278049 C29.5738318,79.0839024 30.2299065,80.2395122 31.0373832,81.344878 C31.1383178,81.4956098 31.2392523,81.5960976 31.3401869,81.6965854 C31.4915888,81.7970732 31.6934579,81.9478049 31.8448598,81.7970732 C32.046729,81.6463415 31.9962617,81.4453659 31.8953271,81.2443902 C31.8448598,81.0936585 31.7439252,80.9429268 31.6429907,80.842439 C30.9364486,79.9380488 30.3813084,78.8829268 29.8766355,77.8780488 C29.7757009,77.6770732 29.6242991,77.4760976 29.5233645,77.275122 C29.5233645,77.1243902 29.4224299,77.1243902 29.3214953,77.0741463 Z M28.211215,74.5117073 C28.1102804,74.5619512 28.0093458,74.6121951 27.9588785,74.662439 C27.7065421,75.164878 27.9588785,75.8682927 28.4130841,76.22 C28.564486,76.3204878 28.8672897,76.22 28.8672897,76.0692683 C28.917757,75.5165854 28.6654206,75.0643902 28.4130841,74.662439 C28.4130841,74.5619512 28.3121495,74.5619512 28.211215,74.5117073 Z M25.5364486,71.4970732 C25.788785,71.3965854 25.8897196,71.1453659 25.8392523,70.9443902 C25.788785,70.5926829 25.7383178,70.1907317 25.435514,69.9395122 C25.3850467,69.8892683 25.1831776,69.8390244 25.082243,69.8892683 C24.7794393,69.9897561 24.728972,70.7434146 25.0317757,71.2960976 C25.1831776,71.3965854 25.3345794,71.4970732 25.5364486,71.4970732 Z M24.2747664,67.8292683 C24.2242991,68.1809756 24.2242991,68.4321951 24.5271028,68.5829268 C24.6785047,68.6331707 24.7794393,68.6331707 24.8299065,68.5326829 C25.082243,68.3317073 25.0317757,68.0302439 24.9308411,67.7790244 C24.8803738,67.6785366 24.7794393,67.5780488 24.6785047,67.5278049 C24.5775701,67.4273171 24.4261682,67.477561 24.3757009,67.5780488 C24.3252336,67.6785366 24.2747664,67.7790244 24.2747664,67.8292683 Z" id="Shape" fill="#FFC941"/>
          <path d="M39.9700935,95.262439 C39.1121495,95.764878 38.3046729,96.0663415 37.2953271,95.815122 C36.9420561,94.8604878 36.7906542,93.8556098 36.588785,92.9009756 C36.1850467,90.9917073 35.7308411,89.082439 35.3775701,87.1229268 C34.671028,83.404878 33.964486,79.6365854 33.2579439,75.9185366 C32.7028037,73.0043902 32.1476636,70.0902439 31.4915888,67.1760976 C31.1383178,65.5180488 30.7850467,63.8097561 30.482243,62.1014634 C30.2803738,60.9960976 29.9775701,59.8907317 29.7757009,58.8356098 C29.0691589,55.3185366 28.4130841,51.7512195 27.7570093,48.2341463 C27.4542056,46.7268293 27.2018692,45.2195122 27.0504673,43.7121951 C26.7476636,40.5970732 26.5457944,37.4819512 27.2523364,34.3668293 C27.7570093,32.2565854 29.0186916,30.7492683 30.7850467,29.4931707 C33.6616822,27.4331707 38.2037383,29.0409756 39.6168224,31.3019512 C40.6766355,33.0102439 41.5850467,34.7185366 42.0392523,36.6278049 C42.6448598,39.1902439 43.3009346,41.7526829 43.6542056,44.3653659 C44.0074766,46.9278049 44.4616822,49.44 44.764486,52.002439 C45.0168224,53.9619512 45.3700935,55.8712195 45.7233645,57.8307317 C46.0766355,59.74 46.4299065,61.6995122 46.8336449,63.6087805 C47.4897196,66.8746341 47.8934579,70.1907317 48.2971963,73.4565854 C48.3981308,74.16 48.3476636,74.9136585 48.3476636,75.6170732 C48.3476636,75.7678049 48.3476636,75.9185366 48.2971963,76.0692683 C48.1457944,76.4209756 47.8429907,76.6219512 47.4392523,76.6721951 C47.1364486,76.6721951 46.8841121,76.4712195 46.7831776,76.22 C46.4803738,75.717561 46.2280374,75.164878 46.1271028,74.5619512 C45.7738318,72.3009756 45.2186916,70.0902439 44.9158879,67.8292683 C44.6130841,65.5682927 44.1588785,63.3073171 43.8056075,61.0463415 C43.6037383,59.8404878 43.4523364,58.5843902 43.2504673,57.3785366 C43.0485981,56.2731707 42.8971963,55.1678049 42.6448598,54.062439 C42.1906542,51.7009756 41.7364486,49.3395122 41.0803738,47.0282927 C40.6261682,45.3702439 40.4747664,43.6619512 40.1214953,41.9536585 C39.8186916,40.3960976 39.5158879,38.8887805 39.1626168,37.3814634 C38.9102804,36.3765854 38.4056075,35.4219512 37.9009346,34.517561 C36.8915888,32.8092683 34.6205607,32.1560976 32.9551402,33.0604878 C32.1981308,33.462439 31.6934579,34.015122 31.2897196,34.7687805 C30.7345794,35.8741463 30.3813084,37.08 30.3813084,38.3360976 C30.3308411,40.7478049 30.5327103,43.1595122 30.7850467,45.5209756 C30.9364486,46.6263415 30.9364486,47.7819512 31.1383178,48.8873171 C31.3906542,50.444878 31.5925234,52.0526829 31.8448598,53.6604878 C32.0971963,55.5195122 32.2990654,57.4287805 32.6523364,59.237561 C33.0560748,61.6995122 33.5607477,64.1112195 34.1158879,66.5229268 C34.6205607,68.7839024 35.0747664,71.095122 35.528972,73.3560976 C35.7308411,74.4614634 35.882243,75.5668293 36.1345794,76.6721951 C36.4373832,77.9785366 36.6392523,79.284878 36.8411215,80.5912195 C37.3962617,83.6058537 38.0018692,86.6707317 38.7084112,89.635122 C39.0616822,91.5443902 39.5158879,93.4034146 39.9700935,95.262439 Z M28.211215,38.2858537 C28.5140187,37.9341463 28.6149533,37.5321951 28.6654206,37.1302439 C28.8168224,36.1253659 28.9682243,35.1707317 29.3719626,34.2160976 C29.9775701,32.8092683 30.5327103,31.3019512 32.1981308,30.6487805 C32.4504673,30.5482927 32.6018692,30.3473171 32.5009346,30.0960976 C32.4,29.7946341 32.1476636,29.7946341 31.8953271,29.7946341 C31.1383178,29.7946341 30.5831776,30.1965854 30.128972,30.6990244 C28.8168224,32.2063415 28.1102804,34.0653659 27.7065421,35.9746341 C27.6056075,36.5273171 27.6560748,37.08 27.7065421,37.6326829 C27.7065421,37.8839024 27.8074766,38.1853659 28.211215,38.2858537 Z M28.4130841,40.697561 C28.4130841,40.5468293 28.4130841,40.195122 28.3626168,39.8434146 C28.3626168,39.7429268 28.211215,39.642439 28.1102804,39.5921951 C27.9588785,39.5419512 27.8074766,39.642439 27.7570093,39.7931707 C27.6056075,40.2956098 27.353271,40.7478049 27.6056075,41.3004878 C27.7570093,41.6019512 27.7065421,41.9536585 28.1102804,42.0541463 C28.3121495,42.1043902 28.4635514,41.8029268 28.4635514,41.1497561 C28.4130841,41.0492683 28.4130841,40.9990244 28.4130841,40.697561 Z" id="Shape" fill="#FFC941"/>
          <path d="M5.14766355,6.18 C6.66168224,5.42634146 8.3271028,4.97414634 9.89158879,4.47170732 C11.7588785,3.91902439 13.5757009,3.36634146 15.4934579,2.96439024 C17.1588785,2.56243902 18.8747664,2.26097561 20.5906542,2.06 C23.0130841,1.75853659 25.3850467,1.60780488 27.8074766,1.55756098 C28.8672897,1.55756098 29.9775701,1.35658537 31.0878505,1.40682927 C31.7943925,1.45707317 32.4504673,1.50731707 33.1065421,1.60780488 C33.4093458,1.65804878 33.7121495,1.75853659 34.0149533,1.90926829 C34.317757,2.06 34.2672897,2.36146341 34.1158879,2.66292683 C33.6616822,2.71317073 33.3084112,2.31121951 32.8542056,2.26097561 C32.3495327,2.21073171 31.8953271,2.1102439 31.4411215,2.06 C30.9869159,2.0097561 30.5327103,2.06 30.128972,2.06 C29.6747664,2.06 29.271028,2.06 28.917757,2.41170732 C28.8672897,2.76341463 29.0691589,2.91414634 29.3214953,2.91414634 C29.8766355,2.96439024 30.4317757,2.96439024 31.0373832,2.96439024 C31.7439252,2.96439024 32.5009346,3.01463415 33.2074766,3.31609756 C33.0056075,3.71804878 32.7028037,3.81853659 32.3495327,3.71804878 C31.4411215,3.46682927 30.5327103,3.46682927 29.5738318,3.51707317 C29.271028,3.51707317 28.917757,3.56731707 28.6149533,3.66780488 C28.4635514,3.71804878 28.3121495,3.81853659 28.3121495,4.0697561 C29.1700935,4.72292683 30.2299065,4.12 31.188785,4.47170732 C30.8859813,4.87365854 30.482243,4.92390244 30.0280374,4.87365854 C29.5233645,4.82341463 28.9682243,4.82341463 28.4635514,4.82341463 C28.2616822,4.82341463 28.0598131,4.87365854 27.9084112,5.07463415 C27.8579439,5.17512195 27.8074766,5.27560976 27.9588785,5.37609756 C28.0093458,5.52682927 28.1102804,5.72780488 28.1607477,5.87853659 C27.1009346,6.33073171 26.0411215,6.58195122 24.9308411,6.88341463 C23.4672897,7.23512195 22.0542056,7.63707317 20.5906542,7.93853659 C16.7046729,8.74243902 12.8691589,9.39560976 8.93271028,9.64682927 C8.52897196,9.69707317 8.12523364,9.64682927 7.72149533,9.64682927 C7.57009346,9.04390244 7.41869159,8.89317073 6.96448598,8.99365854 C6.56074766,9.09414634 6.15700935,9.29512195 5.70280374,9.44585366 C5.45046729,9.54634146 5.19813084,9.59658537 4.8953271,9.39560976 C5.60186916,8.79268293 6.56074766,8.64195122 7.21682243,7.98878049 C7.06542056,7.63707317 6.76261682,7.63707317 6.51028037,7.73756098 C5.70280374,7.93853659 4.99626168,8.2902439 4.28971963,8.69219512 C3.98691589,8.84292683 3.63364486,9.04390244 3.33084112,9.19463415 C3.02803738,9.34536585 2.72523364,9.34536585 2.32149533,9.14439024 C2.77570093,8.74243902 3.22990654,8.54146341 3.68411215,8.2902439 C4.18878505,8.03902439 4.69345794,7.78780488 5.19813084,7.53658537 C5.65233645,7.28536585 6.20747664,7.28536585 6.51028037,6.78292683 C6.3588785,6.2302439 5.95514019,6.48146341 5.60186916,6.43121951 C5.50093458,6.38097561 5.24859813,6.43121951 5.14766355,6.18 Z M12.1121495,4.87365854 C12.2635514,5.32585366 12.4654206,5.42634146 12.8691589,5.32585366 C13.928972,5.02439024 15.0392523,4.72292683 16.0990654,4.52195122 C17.5626168,4.27073171 18.9757009,3.91902439 20.4392523,3.61756098 C20.6915888,3.56731707 20.9943925,3.51707317 21.246729,3.41658537 C21.4485981,3.36634146 21.5495327,3.16536585 21.4485981,2.91414634 C21.2971963,2.86390244 21.1457944,2.81365854 20.9943925,2.81365854 C19.328972,3.06487805 17.6635514,3.31609756 16.0485981,3.66780488 C14.7869159,3.91902439 13.5757009,4.2204878 12.364486,4.72292683 C12.3140187,4.72292683 12.2130841,4.82341463 12.1121495,4.87365854 Z M7.72149533,5.87853659 C7.51962617,5.92878049 7.21682243,5.92878049 7.01495327,6.1297561 C6.8635514,6.2804878 6.91401869,6.53170732 7.06542056,6.63219512 C7.41869159,6.88341463 8.17570093,6.63219512 8.22616822,6.18 C8.22616822,5.97902439 7.97383178,5.92878049 7.72149533,5.87853659 Z M27.1009346,2.66292683 C27.1514019,2.76341463 27.2018692,2.91414634 27.2523364,2.96439024 C27.5551402,3.11512195 27.8579439,3.11512195 28.1102804,2.91414634 C28.2616822,2.81365854 28.2616822,2.56243902 28.0598131,2.41170732 C27.8074766,2.26097561 27.5551402,2.26097561 27.3028037,2.36146341 C27.2018692,2.46195122 27.1514019,2.56243902 27.1009346,2.66292683 Z M9.74018692,5.72780488 C9.79065421,5.52682927 9.68971963,5.42634146 9.53831776,5.32585366 C9.3364486,5.22536585 9.13457944,5.32585366 8.98317757,5.42634146 C8.8317757,5.52682927 8.73084112,5.62731707 8.8317757,5.82829268 C8.88224299,5.97902439 9.03364486,6.0795122 9.18504673,6.0795122 C9.43738318,6.0795122 9.63925234,5.97902439 9.74018692,5.72780488 Z M27.2523364,4.42146341 C27.5046729,4.42146341 27.7570093,4.1702439 27.6560748,3.96926829 C27.6056075,3.71804878 27.4037383,3.71804878 27.2018692,3.71804878 C27,3.71804878 26.7981308,3.76829268 26.7476636,4.0195122 C26.7476636,4.2204878 27.0504673,4.42146341 27.2523364,4.42146341 Z M26.2429907,2.76341463 C26.2934579,2.56243902 26.1420561,2.41170732 25.9401869,2.36146341 C25.6878505,2.31121951 25.3850467,2.46195122 25.3850467,2.66292683 C25.3345794,2.91414634 25.5364486,3.01463415 25.6878505,3.06487805 C25.9401869,3.11512195 26.1925234,2.96439024 26.2429907,2.76341463 Z M8.68037383,7.53658537 C8.62990654,7.33560976 8.52897196,7.18487805 8.27663551,7.18487805 C8.02429907,7.18487805 7.8728972,7.33560976 7.8728972,7.53658537 C7.8728972,7.73756098 8.02429907,7.88829268 8.22616822,7.88829268 C8.52897196,7.88829268 8.62990654,7.73756098 8.68037383,7.53658537 Z" id="Shape" fill="#FFC941"/>
          <path d="M49.0037383,69.6380488 C49.3065421,69.5878049 49.5588785,69.537561 49.8616822,69.4873171 C50.2149533,70.1404878 50.164486,70.8439024 50.3158879,71.5473171 C50.6186916,73.3058537 50.8205607,75.0141463 50.7196262,76.8229268 C50.6691589,77.9785366 50.2149533,78.9834146 49.3570093,79.7873171 C48.3981308,80.7419512 45.5719626,80.7419512 44.6635514,79.335122 C44.4616822,79.0336585 44.2598131,78.7321951 44.1084112,78.3804878 C43.2504673,76.6219512 42.6953271,74.7126829 42.3925234,72.7531707 C42.2915888,72.1502439 41.988785,71.597561 42.1906542,70.9443902 C42.7457944,70.8439024 43.2504673,70.7936585 43.8560748,70.6931707 C44.1588785,71.3463415 44.1588785,72.0497561 44.3102804,72.7029268 C44.5121495,73.5570732 44.6635514,74.4112195 44.8149533,75.3156098 C44.9663551,76.0190244 45.3196262,76.6721951 45.7233645,77.275122 C46.6317757,78.5814634 48.7514019,78.1292683 49.2560748,76.8731707 C49.3570093,76.6219512 49.4074766,76.3204878 49.4579439,76.0692683 C49.4579439,75.4663415 49.4579439,74.8634146 49.4074766,74.2604878 C49.2560748,72.8536585 49.1046729,71.4970732 48.953271,70.0902439 C48.953271,69.8892683 49.0037383,69.7887805 49.0037383,69.6380488 Z" id="Shape" fill="#FDC841"/>
          <path d="M47.388785,81.4956098 C46.0766355,84.7614634 42.1906542,87.4243902 39.3140187,87.1229268 C39.011215,86.4697561 38.2037383,82.7014634 38.1028037,81.4956098 C39.0616822,81.7970732 40.071028,81.9980488 41.0299065,81.6463415 C41.9383178,81.2946341 42.846729,80.9429268 43.4018692,80.0385366 C44.0579439,80.4404878 44.6130841,80.842439 45.2691589,81.1439024 C45.9252336,81.395122 46.5813084,81.4956098 47.388785,81.4956098 Z M39.5158879,83.0029268 C39.9196262,83.5556098 40.4242991,83.6560976 40.8785047,83.5556098 C41.4841121,83.404878 42.1906542,83.3546341 42.5943925,82.8019512 C42.7457944,82.6009756 42.7962617,82.3497561 42.3925234,82.1990244 C41.5850467,82.902439 40.4747664,82.4 39.5158879,83.0029268 Z M39.6168224,84.4097561 C39.364486,84.9121951 39.5158879,85.4146341 39.6168224,85.9170732 C39.6168224,85.9673171 39.6672897,85.9673171 39.6672897,86.017561 C39.7682243,86.1682927 39.9196262,86.3190244 40.1719626,86.2687805 C40.4242991,86.2185366 40.4747664,86.017561 40.4242991,85.8165854 C40.3233645,85.4146341 40.2224299,85.0629268 40.071028,84.7112195 C40.0205607,84.5102439 39.9196262,84.4097561 39.6168224,84.4097561 Z M41.282243,84.3595122 C41.1813084,84.4097561 41.0803738,84.46 41.0803738,84.5102439 C40.8280374,84.962439 41.0299065,85.6156098 41.4841121,85.9673171 C41.635514,86.0678049 41.9383178,85.9170732 41.9383178,85.7160976 C41.9383178,85.2639024 41.7869159,84.8619512 41.5850467,84.5102439 C41.5345794,84.4097561 41.3831776,84.4097561 41.282243,84.3595122 Z M43.3514019,84.46 C43.3514019,84.1585366 43.1495327,83.8570732 42.8971963,83.9073171 C42.6953271,83.9073171 42.6448598,84.1082927 42.6448598,84.2590244 C42.6448598,84.5102439 42.6448598,84.7112195 42.9476636,84.8117073 C43.1495327,84.8619512 43.3514019,84.7112195 43.3514019,84.46 Z" id="Shape" fill="#FDC841"/>
          <path d="M42.846729,63.7595122 C42.7457944,63.8097561 42.6448598,63.86 42.5439252,63.9102439 C40.0205607,64.2117073 37.6485981,65.1160976 35.2261682,65.4678049 C34.9233645,65.3673171 34.8728972,65.1663415 34.8224299,64.9653659 C34.5196262,63.6087805 34.2672897,62.2019512 34.0149533,60.8453659 C34.0149533,60.795122 34.0654206,60.6946341 34.1158879,60.5439024 C36.7401869,60.1419512 39.364486,59.3882927 42.0392523,58.9863415 C42.3420561,59.9912195 42.846729,63.0058537 42.846729,63.7595122 Z M39.4654206,60.5439024 C38.4056075,60.3429268 38.4056075,60.3429268 35.4785047,61.3478049 C35.4280374,61.4985366 35.3775701,61.6492683 35.4785047,61.8 C35.6803738,62.0009756 35.9327103,62.1517073 36.235514,62.0512195 C37.2448598,61.8 38.2542056,61.5487805 39.1626168,61.0965854 C39.4149533,60.9960976 39.5663551,60.8453659 39.4654206,60.5439024 Z M39.2130841,63.0560976 C39.0616822,63.0560976 38.9102804,63.0560976 38.7084112,63.1063415 C37.8,63.357561 36.8411215,63.6087805 35.9327103,63.86 C35.8317757,63.86 35.7813084,63.9102439 35.7308411,63.9604878 C35.6299065,64.0609756 35.5794393,64.1614634 35.528972,64.2619512 C35.528972,64.4126829 35.6299065,64.5634146 35.7813084,64.6136585 C35.9327103,64.6639024 36.0841121,64.6639024 36.235514,64.6639024 C37.2953271,64.5131707 38.3551402,64.1614634 39.364486,63.86 C39.4654206,63.8097561 39.5663551,63.7595122 39.6672897,63.6590244 C39.717757,63.6087805 39.7682243,63.5082927 39.717757,63.4580488 C39.6672897,63.357561 39.6168224,63.2570732 39.5158879,63.2068293 C39.4654206,63.0560976 39.3140187,63.0560976 39.2130841,63.0560976 Z M41.5345794,63.1565854 C41.6859813,63.1063415 41.8878505,63.1063415 42.0897196,63.0058537 C42.2411215,62.9556098 42.3420561,62.804878 42.3420561,62.6541463 C42.2915888,62.5034146 42.1906542,62.3526829 42.0392523,62.3526829 C41.7364486,62.302439 41.3831776,62.3526829 41.1308411,62.5536585 C41.0299065,62.6039024 40.9794393,62.7546341 41.0299065,62.855122 C41.0803738,62.9053659 41.1308411,63.0058537 41.1813084,63.0058537 C41.2317757,63.1063415 41.3831776,63.1063415 41.5345794,63.1565854 Z" id="Shape" fill="#FDC841"/>
          <path d="M41.2317757,53.4092683 C41.4841121,54.9668293 41.7364486,56.3736585 41.988785,57.8809756 C40.5252336,58.182439 39.1626168,58.3834146 37.8,58.684878 C36.4878505,58.9863415 35.1757009,59.4385366 33.8130841,59.4887805 C33.4093458,58.5341463 33.0056075,55.8712195 33.1065421,54.6653659 C34.4186916,54.4643902 35.7813084,54.2131707 37.0934579,54.0121951 C38.4560748,53.8614634 39.7682243,53.4092683 41.2317757,53.4092683 Z M33.7626168,55.9214634 C33.9140187,56.3234146 34.1663551,56.4239024 34.4186916,56.3736585 C35.6803738,56.3234146 36.8411215,55.9717073 38.0018692,55.5195122 C38.2037383,55.4692683 38.3046729,55.2682927 38.2542056,55.0170732 C37.9009346,54.7156098 37.4971963,54.8160976 37.1439252,54.9165854 C36.0336449,55.2180488 34.8224299,55.2682927 33.7626168,55.9214634 Z M37.5981308,57.6297561 C37.5476636,57.5795122 37.446729,57.5292683 37.3962617,57.5292683 C36.3869159,57.5292683 35.4280374,57.8307317 34.4691589,58.182439 C34.2672897,58.2326829 34.2168224,58.4839024 34.317757,58.7853659 C35.4280374,58.8858537 36.4878505,58.5843902 37.4971963,58.0819512 C37.5981308,57.9814634 37.5981308,57.8307317 37.5981308,57.6297561 Z M38.5570093,57.68 C39.364486,57.9312195 39.8691589,57.7302439 40.3233645,57.2278049 C40.2224299,56.9263415 40.0205607,56.7756098 39.7682243,56.8258537 C39.2635514,56.9263415 38.8093458,57.0268293 38.5570093,57.68 Z" id="Shape" fill="#FDC841"/>
          <path d="M37.3457944,66.2214634 C37.3962617,66.1712195 37.446729,66.0707317 37.4971963,66.0707317 C39.1121495,65.6687805 40.7775701,65.2668293 42.4429907,65.0156098 C42.6448598,64.9653659 42.846729,64.915122 43.0990654,65.0658537 C43.4018692,66.4726829 43.6542056,67.98 43.8056075,69.537561 C41.282243,69.9395122 38.8093458,70.3414634 36.3869159,70.9443902 C36.0841121,70.8439024 35.9831776,70.6429268 35.9327103,70.3917073 C35.6803738,69.0853659 35.4280374,67.8292683 35.1757009,66.422439 C35.9327103,66.422439 36.6392523,66.1712195 37.3457944,66.2214634 C37.2448598,66.5731707 36.8915888,66.422439 36.6392523,66.5731707 C36.4878505,66.7239024 36.3364486,66.8243902 36.4373832,67.0756098 C36.4878505,67.1258537 36.588785,67.1760976 36.6392523,67.1760976 C37.8,67.2765854 38.9102804,66.975122 40.0205607,66.5229268 C40.1719626,66.4726829 40.2728972,66.3219512 40.1719626,66.0204878 C39.717757,65.92 39.1626168,65.92 38.6074766,66.0707317 C38.2037383,66.2214634 37.7495327,66.2717073 37.3457944,66.2214634 Z M37.4971963,70.0902439 C38.4056075,69.9897561 39.4654206,69.7385366 40.4747664,69.3868293 C40.8785047,69.2360976 41.0299065,69.0853659 40.9794393,68.8341463 C40.8785047,68.5829268 40.6261682,68.5829268 40.3738318,68.5829268 C40.2224299,68.5829268 40.071028,68.5829268 39.9196262,68.6331707 C39.011215,68.8341463 38.1028037,68.984878 37.2448598,69.1858537 C36.7906542,69.2863415 36.588785,69.537561 36.6897196,69.7887805 C36.7401869,70.1404878 37.0429907,70.1404878 37.4971963,70.0902439 Z M43.4523364,68.5326829 C43.0485981,68.1809756 42.9476636,68.1307317 42.7457944,68.1809756 C42.4429907,68.2312195 42.1906542,68.2814634 42.0392523,68.5326829 C41.988785,68.5829268 41.988785,68.7839024 42.0392523,68.8341463 C42.0897196,68.9346341 42.1906542,69.035122 42.2915888,69.035122 C42.7962617,69.1356098 43.2,68.984878 43.4523364,68.5326829 Z" id="Shape" fill="#FDC841"/>
          <path d="M39.5663551,50.997561 C39.5158879,50.8468293 39.5158879,50.6960976 39.4654206,50.5453659 C39.4149533,50.3946341 39.2635514,50.2439024 39.1121495,50.2439024 C38.8598131,50.2439024 38.8093458,50.444878 38.7588785,50.6458537 C38.7084112,51.1985366 38.8093458,51.7512195 38.9102804,52.3039024 C38.9102804,52.4546341 38.9102804,52.4546341 38.4560748,52.6053659 C38.2542056,51.6507317 38.0523364,50.7463415 37.9009346,49.8419512 C37.6485981,48.1839024 37.3457944,46.5258537 37.1439252,44.8678049 C36.9420561,43.4107317 36.9925234,42.0039024 37.2953271,40.5468293 C37.4971963,39.7931707 37.5981308,39.5419512 38.153271,38.9892683 C38.5570093,40.9990244 39.0616822,43.0087805 39.364486,44.9682927 C39.5663551,46.0736585 39.8691589,47.1790244 40.071028,48.2341463 C40.2728972,49.0882927 40.4747664,49.942439 40.6766355,50.7965854 C40.7271028,50.9473171 40.6766355,51.0980488 40.6261682,51.2990244 C40.3233645,51.0980488 40.071028,51.0478049 39.9196262,51.3995122 C39.8186916,51.3492683 39.717757,51.1985366 39.5663551,50.997561 Z" id="Shape" fill="#FDC741"/>
          <path d="M51.3252336,62.302439 C50.1140187,62.6039024 49.0037383,62.9053659 47.8934579,63.2068293 C47.4897196,61.4482927 47.2878505,59.74 47.035514,58.0317073 C48.0448598,57.8307317 49.0037383,57.68 49.9626168,57.3785366 C51.3757009,58.735122 51.4766355,60.4434146 51.3252336,62.302439 Z M48.8523364,61.9507317 C49.0037383,61.9004878 49.1551402,61.9004878 49.2560748,61.8 C49.4074766,61.6995122 49.4579439,61.5487805 49.4074766,61.3980488 C49.3065421,61.1970732 49.1551402,61.0965854 48.953271,61.1468293 C48.6,61.1970732 48.3476636,61.3980488 48.3981308,61.6492683 C48.3981308,61.6995122 48.4485981,61.8 48.4990654,61.8502439 C48.5495327,61.9004878 48.7009346,61.9004878 48.8523364,61.9507317 Z" id="Shape" fill="#FCC741"/>
          <path d="M47.2373832,50.997561 C46.7831776,51.1482927 46.4299065,51.2990244 45.9252336,51.2487805 C45.4205607,49.1385366 45.117757,46.9278049 44.8654206,44.7673171 C44.5626168,42.6068293 43.9570093,40.5468293 43.6037383,38.1853659 C44.2598131,38.8385366 44.5626168,39.4414634 44.8654206,40.0443902 C45.4205607,41.1497561 45.6728972,42.3053659 45.9757009,43.4609756 C46.5308411,45.6717073 46.8336449,47.9326829 47.2373832,50.1936585 C47.2878505,50.444878 47.2373832,50.6960976 47.2373832,50.997561 Z" id="Shape" fill="#F9C540"/>
          <path d="M48.4990654,67.3770732 C48.4990654,66.2717073 48.1457944,65.2668293 48.0448598,64.1614634 C49.2056075,63.9102439 50.3158879,63.6590244 51.5271028,63.4078049 C52.3850467,64.6136585 52.5869159,65.9702439 52.3850467,67.4273171 C52.3345794,67.6785366 52.1831776,67.8795122 51.9308411,67.9297561 C51.4766355,68.0302439 50.9719626,68.1307317 50.517757,68.2312195 C50.0635514,68.3317073 49.5588785,68.482439 49.1046729,68.5829268 C48.953271,68.6331707 48.8018692,68.5326829 48.7009346,68.3819512 C48.7514019,68.1809756 48.6504673,67.9297561 48.8523364,67.6785366 C49.4074766,67.9297561 49.9121495,67.8292683 50.4168224,67.5278049 C50.5682243,67.477561 50.6186916,67.3268293 50.6186916,67.1258537 C50.5682243,66.924878 50.4168224,66.8243902 50.2654206,66.8243902 C49.811215,66.8243902 49.3065421,66.8746341 48.953271,67.2263415 C48.8018692,67.4273171 48.6504673,67.4273171 48.4990654,67.3770732 Z" id="Shape" fill="#FCC741"/>
          <path d="M49.9121495,56.1726829 C48.9028037,56.624878 47.9439252,56.8258537 46.9345794,56.9765854 C46.5308411,55.7204878 46.1271028,53.4595122 46.1271028,52.3039024 C47.035514,52.1531707 47.8934579,52.002439 48.8523364,51.8517073 C49.9121495,53.1078049 49.7607477,54.615122 49.9121495,56.1726829 Z M47.9439252,55.8209756 C47.9439252,55.62 47.6915888,55.4190244 47.4392523,55.4190244 C47.1869159,55.4190244 46.9850467,55.62 46.9850467,55.8712195 C46.9850467,56.122439 47.1869159,56.1726829 47.388785,56.1726829 C47.5401869,56.1726829 47.6915888,56.122439 47.8429907,56.0721951 C47.8934579,55.9717073 47.8934579,55.8712195 47.9439252,55.8209756 Z" id="Shape" fill="#FBC641"/>
          <path d="M37.1943925,101.291707 C37.0429907,100.286829 37.0429907,100.286829 37.446729,98.88 C38.5570093,98.7795122 39.717757,98.6287805 40.7271028,98.0760976 C41.3831776,98.7795122 41.8373832,99.5331707 42.1401869,100.437561 C40.6261682,101.542927 38.8598131,101.84439 37.1943925,101.291707 Z" id="Shape" fill="#FBC641"/>
          <path d="M36.1345794,49.0380488 C36.0841121,49.1887805 36.0336449,49.5404878 35.882243,49.8921951 C35.5794393,50.6960976 35.1757009,50.9473171 34.317757,50.7965854 C33.3588785,50.6458537 32.6523364,49.5907317 32.7028037,48.435122 C32.8037383,47.38 33.5607477,46.6263415 34.5700935,46.5760976 C34.9738318,46.5760976 35.2766355,46.6765854 35.528972,47.0282927" id="Shape" fill="#FDFDFD"/>
          <path d="M23.8205607,74.3609756 C22.8616822,74.8131707 22.6598131,74.662439 22.2056075,74.0595122 C21.3981308,73.0043902 21.0953271,71.7985366 21.1457944,70.4419512 C21.1457944,69.7887805 21.246729,69.6882927 21.9028037,69.5878049 C22.0542056,69.537561 22.2056075,69.5878049 22.4579439,69.537561 C22.9121495,71.1453659 23.4168224,72.7029268 23.8205607,74.3609756 Z" id="Shape" fill="#FBC640"/>
          <path d="M18.7233645,58.3834146 C19.0766355,58.0317073 19.4299065,58.0819512 19.8336449,58.182439 C20.1869159,59.8404878 20.5401869,61.4482927 20.8934579,63.1063415 C20.5401869,63.4078049 20.1869159,63.357561 19.8336449,63.357561 C19.4803738,63.1063415 19.4299065,62.7043902 19.2280374,62.3526829 C18.471028,61.0463415 18.5719626,59.6897561 18.7233645,58.3834146 Z" id="Shape" fill="#F7C340"/>
          <path d="M19.9345794,64.3121951 C20.2373832,64.2619512 20.5906542,64.2619512 20.9943925,64.2117073 C21.4485981,64.864878 21.4485981,65.5682927 21.6504673,66.2717073 C21.8523364,66.975122 22.2056075,67.6282927 22.1551402,68.3819512 C21.8018692,68.6331707 21.4485981,68.7336585 21.0953271,68.4321951 C19.9345794,67.3268293 19.4299065,66.0204878 19.8336449,64.4629268 C19.7831776,64.4126829 19.8336449,64.4126829 19.9345794,64.3121951 Z" id="Shape" fill="#F8C440"/>
          <path d="M15.9981308,61.8502439 C15.9981308,62.6039024 15.9981308,62.6039024 15.6448598,63.1063415 C15.2411215,63.1565854 14.988785,62.9053659 14.7869159,62.5536585 C14.3327103,61.7497561 14.2317757,60.8956098 14.3831776,60.0414634 C14.4336449,59.74 14.635514,59.5390244 14.9383178,59.4887805 C15.1906542,59.4385366 15.3925234,59.6395122 15.4934579,59.8404878 C15.5943925,60.0414634 15.6953271,60.2926829 15.7457944,60.4434146 C15.6953271,60.744878 15.4934579,60.795122 15.3420561,60.8956098 C15.1401869,60.9960976 15.0392523,61.0965854 15.0392523,61.3478049 C15.0897196,61.6492683 15.2411215,61.7497561 15.5439252,61.8 C15.6953271,61.8 15.846729,61.6995122 15.9981308,61.8502439 Z" id="Shape" fill="#ECBB3F"/>
          <path d="M5.14766355,6.18 C5.24859813,6.43121951 5.50093458,6.38097561 5.70280374,6.43121951 C5.29906542,6.78292683 4.74392523,6.83317073 4.28971963,7.03414634 C3.33084112,7.48634146 2.42242991,7.98878049 1.61495327,8.64195122 C1.4635514,8.79268293 1.26168224,8.84292683 1.11028037,8.64195122 C1.05981308,8.3404878 1.26168224,8.1897561 1.4635514,8.08926829 C2.57383178,7.28536585 3.78504673,6.58195122 5.14766355,6.18 Z" id="Shape" fill="#D8AC3C"/>
          <path d="M17.3102804,71.8990244 C17.7140187,71.8990244 18.0672897,71.9492683 18.1682243,72.4014634 C18.0672897,72.7531707 17.5121495,72.7531707 17.5626168,73.3058537 C17.6635514,73.657561 18.1682243,73.5570732 18.4205607,73.9087805 C18.5214953,74.3107317 18.471028,74.7126829 18.0672897,75.0141463 C17.5121495,74.9136585 17.2598131,74.4614634 17.1084112,74.0092683 C16.8560748,73.2556098 16.9065421,72.5521951 17.3102804,71.8990244 Z" id="Shape" fill="#DFB13D"/>
          <path d="M17.0579439,69.1858537 C16.3009346,69.1356098 16.0990654,68.5829268 15.9476636,68.0804878 C15.7457944,67.3268293 15.6953271,66.5731707 16.4018692,66.0204878 C16.8056075,66.2717073 16.9570093,66.6234146 17.0074766,67.0253659 C16.8560748,67.3268293 16.3514019,67.2263415 16.4018692,67.6785366 C16.4523364,68.1307317 16.9065421,68.1307317 17.2093458,68.2312195 C17.3102804,68.5326829 17.2598131,68.8341463 17.0579439,69.1858537 Z" id="Shape" fill="#E4B53E"/>
          <path d="M41.0299065,96.0663415 C40.2224299,97.4229268 39.0616822,97.5234146 37.9514019,97.6741463 C37.5476636,97.7243902 36.9925234,97.824878 36.6392523,97.1717073 C37.3962617,96.9707317 38.1028037,97.1214634 38.7588785,96.8702439 C39.5158879,96.6692683 40.1719626,96.3678049 41.0299065,96.0663415 Z" id="Shape" fill="#E3B53E"/>
          <path d="M48.4990654,67.3770732 C48.6504673,67.4273171 48.8018692,67.4273171 48.9028037,67.2765854 C49.2560748,66.8746341 49.7607477,66.8746341 50.2149533,66.8746341 C50.3663551,66.8746341 50.517757,66.975122 50.5682243,67.1760976 C50.6186916,67.3268293 50.517757,67.477561 50.3663551,67.5780488 C49.8616822,67.8292683 49.3570093,67.9297561 48.8018692,67.7287805 C48.6,67.98 48.7514019,68.2312195 48.6504673,68.4321951 C48.3476636,68.1307317 48.4990654,67.7287805 48.4990654,67.3770732 Z" id="Shape" fill="#272111"/>
          <path d="M39.5663551,50.997561 C39.717757,51.1482927 39.8691589,51.2990244 39.9700935,51.4497561 C40.0205607,51.7512195 40.071028,52.0526829 40.1214953,52.3039024 C39.8691589,52.504878 39.7682243,52.4043902 39.6672897,52.2536585 C39.5158879,51.9019512 39.5158879,51.4497561 39.5663551,50.997561 Z" id="Shape" fill="#AC8B37"/>
          <path d="M28.1102804,5.92878049 C28.0598131,5.77804878 27.9588785,5.57707317 27.9084112,5.42634146 C28.1607477,5.42634146 28.4635514,5.47658537 28.7158879,5.47658537 C28.6654206,5.92878049 28.4130841,5.97902439 28.1102804,5.92878049 Z" id="Shape" fill="#574A2A"/>
          <path d="M26.2934579,72.6526829 C26.7476636,73.2556098 26.8990654,74.0092683 27.1514019,74.662439 C27.6560748,76.0692683 28.1102804,77.4760976 28.7663551,78.8326829 C29.3214953,80.0385366 30.0280374,81.1439024 30.835514,82.1990244 C31.1383178,82.6009756 31.4915888,83.0029268 31.5925234,83.5556098 C31.6429907,83.8068293 31.5420561,83.9073171 31.2897196,84.0580488 C30.3813084,83.404878 29.6747664,82.5004878 29.0691589,81.5458537 C27.9588785,79.8878049 27.1514019,78.1292683 26.5457944,76.22 C26.2429907,75.3156098 25.8897196,74.4112195 25.7383178,73.4565854 C25.788785,73.104878 25.788785,72.8034146 26.2934579,72.6526829 Z" id="Shape" fill="#070603"/>
          <path d="M29.3214953,77.0741463 C29.4224299,77.1243902 29.5233645,77.1746341 29.5738318,77.224878 C29.7252336,77.4258537 29.8261682,77.6268293 29.9271028,77.8278049 C30.4317757,78.8829268 30.9869159,79.8878049 31.6934579,80.7921951 C31.7943925,80.9429268 31.8953271,81.0434146 31.9457944,81.1941463 C32.046729,81.395122 32.046729,81.5960976 31.8953271,81.7468293 C31.6934579,81.897561 31.5420561,81.7970732 31.3906542,81.6463415 C31.2897196,81.5458537 31.188785,81.395122 31.0878505,81.2946341 C30.2299065,80.2395122 29.5738318,79.0336585 29.0691589,77.777561 C29.0186916,77.6268293 28.9682243,77.4760976 29.0186916,77.3253659 C29.0186916,77.224878 29.1196262,77.1243902 29.3214953,77.0741463 Z" id="Shape" fill="#110E08"/>
          <path d="M28.211215,74.5117073 C28.3121495,74.5619512 28.4130841,74.5619512 28.4635514,74.662439 C28.7158879,75.1146341 28.917757,75.5668293 28.917757,76.0692683 C28.917757,76.2702439 28.6149533,76.3707317 28.4635514,76.22 C28.0093458,75.8682927 27.7570093,75.164878 28.0093458,74.662439 C28.0093458,74.5619512 28.1102804,74.5117073 28.211215,74.5117073 Z" id="Shape" fill="#241E10"/>
          <path d="M25.5364486,71.4970732 C25.3345794,71.4970732 25.1831776,71.3965854 25.1327103,71.2960976 C24.8299065,70.7434146 24.8299065,69.9897561 25.1831776,69.8892683 C25.2841121,69.8390244 25.435514,69.8892683 25.5364486,69.9395122 C25.8392523,70.1907317 25.8392523,70.5926829 25.9401869,70.9443902 C25.8897196,71.1453659 25.788785,71.3965854 25.5364486,71.4970732 Z" id="Shape" fill="#1E190D"/>
          <path d="M24.2747664,67.8292683 C24.3252336,67.7790244 24.3252336,67.6282927 24.4261682,67.5780488 C24.5271028,67.477561 24.6280374,67.4273171 24.728972,67.5278049 C24.8299065,67.6282927 24.9308411,67.6785366 24.9813084,67.7790244 C25.082243,68.0302439 25.1327103,68.3317073 24.8803738,68.5326829 C24.7794393,68.6331707 24.6785047,68.6331707 24.5775701,68.5829268 C24.2242991,68.4321951 24.2242991,68.1809756 24.2747664,67.8292683 Z" id="Shape" fill="#2F2815"/>
          <path d="M28.211215,38.2858537 C27.8074766,38.1853659 27.7065421,37.9341463 27.7065421,37.6326829 C27.7065421,37.08 27.6056075,36.4770732 27.7065421,35.9746341 C28.1607477,34.0653659 28.8672897,32.2565854 30.128972,30.6990244 C30.5831776,30.1965854 31.1383178,29.7946341 31.8953271,29.7946341 C32.1476636,29.7946341 32.4,29.844878 32.5009346,30.0960976 C32.6018692,30.397561 32.4504673,30.5985366 32.1981308,30.6487805 C30.5831776,31.3019512 30.0280374,32.8092683 29.3719626,34.2160976 C28.9682243,35.1204878 28.7663551,36.1253659 28.6654206,37.1302439 C28.6149533,37.5321951 28.5140187,37.8839024 28.211215,38.2858537 Z" id="Shape" fill="#FEFDFA"/>
          <path d="M28.4130841,40.697561 C28.4130841,40.9990244 28.4130841,41.0995122 28.4130841,41.1497561 C28.4130841,41.7526829 28.3121495,42.1043902 28.0598131,42.0541463 C27.6560748,41.9536585 27.7065421,41.6019512 27.5551402,41.3004878 C27.3028037,40.7478049 27.5551402,40.2956098 27.7065421,39.7931707 C27.7570093,39.642439 27.9084112,39.5419512 28.0598131,39.5921951 C28.1607477,39.642439 28.2616822,39.7429268 28.3121495,39.8434146 C28.4130841,40.195122 28.4130841,40.5468293 28.4130841,40.697561 Z" id="Shape" fill="#FEFBF3"/>
          <path d="M12.1121495,4.87365854 C12.2130841,4.82341463 12.2635514,4.72292683 12.4149533,4.67268293 C13.6261682,4.1702439 14.8373832,3.86878049 16.0990654,3.61756098 C17.764486,3.26585366 19.4299065,3.01463415 21.0448598,2.76341463 C21.1962617,2.76341463 21.3476636,2.81365854 21.4990654,2.86390244 C21.6,3.16536585 21.4990654,3.31609756 21.2971963,3.36634146 C21.0448598,3.46682927 20.7420561,3.51707317 20.4897196,3.56731707 C19.0261682,3.91902439 17.6130841,4.2204878 16.1495327,4.47170732 C15.0392523,4.67268293 13.9794393,5.02439024 12.9196262,5.27560976 C12.4654206,5.42634146 12.2635514,5.32585366 12.1121495,4.87365854 Z" id="Shape" fill="#FEFCF4"/>
          <path d="M7.72149533,5.87853659 C8.02429907,5.92878049 8.22616822,5.97902439 8.22616822,6.2302439 C8.17570093,6.68243902 7.46915888,6.93365854 7.06542056,6.68243902 C6.8635514,6.53170732 6.8635514,6.33073171 7.01495327,6.18 C7.21682243,5.87853659 7.51962617,5.87853659 7.72149533,5.87853659 Z" id="Shape" fill="#262011"/>
          <path d="M27.1009346,2.66292683 C27.2018692,2.56243902 27.2523364,2.41170732 27.3028037,2.41170732 C27.5551402,2.31121951 27.8074766,2.31121951 28.0598131,2.46195122 C28.2616822,2.56243902 28.2616822,2.81365854 28.1102804,2.96439024 C27.8074766,3.16536585 27.5551402,3.16536585 27.2523364,3.01463415 C27.1514019,2.91414634 27.1514019,2.81365854 27.1009346,2.66292683 Z" id="Shape" fill="#272112"/>
          <path d="M9.74018692,5.72780488 C9.63925234,5.97902439 9.43738318,6.0795122 9.18504673,6.0795122 C9.03364486,6.0795122 8.88224299,5.97902439 8.8317757,5.82829268 C8.78130841,5.62731707 8.8317757,5.52682927 8.98317757,5.42634146 C9.13457944,5.32585366 9.3364486,5.22536585 9.53831776,5.32585366 C9.68971963,5.42634146 9.79065421,5.52682927 9.74018692,5.72780488 Z" id="Shape" fill="#42371A"/>
          <path d="M27.2523364,4.42146341 C27,4.42146341 26.7476636,4.2204878 26.7476636,4.0195122 C26.7981308,3.76829268 27,3.71804878 27.2018692,3.71804878 C27.4037383,3.71804878 27.6056075,3.71804878 27.6560748,3.96926829 C27.7570093,4.1702439 27.5046729,4.42146341 27.2523364,4.42146341 Z" id="Shape" fill="#44381B"/>
          <path d="M26.2429907,2.76341463 C26.1925234,3.01463415 25.9401869,3.11512195 25.6878505,3.01463415 C25.4859813,2.96439024 25.3345794,2.81365854 25.3850467,2.61268293 C25.435514,2.41170732 25.6878505,2.26097561 25.9401869,2.31121951 C26.1420561,2.36146341 26.2429907,2.56243902 26.2429907,2.76341463 Z" id="Shape" fill="#2D2615"/>
          <path d="M8.68037383,7.53658537 C8.62990654,7.73756098 8.52897196,7.88829268 8.27663551,7.88829268 C8.02429907,7.88829268 7.8728972,7.73756098 7.92336449,7.53658537 C7.92336449,7.33560976 8.07476636,7.18487805 8.3271028,7.18487805 C8.52897196,7.18487805 8.62990654,7.33560976 8.68037383,7.53658537 Z" id="Shape" fill="#5C4C25"/>
          <path d="M39.5158879,83.0029268 C40.4747664,82.4 41.635514,82.902439 42.3925234,82.1990244 C42.7962617,82.3497561 42.7962617,82.6009756 42.5943925,82.8019512 C42.1906542,83.3546341 41.4841121,83.455122 40.8785047,83.5556098 C40.3738318,83.6560976 39.9196262,83.5556098 39.5158879,83.0029268 Z" id="Shape" fill="#FEF7E3"/>
          <path d="M39.6168224,84.4097561 C39.9196262,84.4097561 40.0205607,84.5102439 40.071028,84.6609756 C40.2224299,85.0126829 40.3233645,85.4146341 40.4242991,85.7663415 C40.4747664,85.9673171 40.4242991,86.1682927 40.1719626,86.2185366 C39.9700935,86.2687805 39.8186916,86.1682927 39.6672897,85.9673171 C39.6672897,85.9170732 39.6168224,85.9170732 39.6168224,85.8668293 C39.5158879,85.4146341 39.364486,84.962439 39.6168224,84.4097561 Z" id="Shape" fill="#292212"/>
          <path d="M41.282243,84.3595122 C41.3831776,84.4097561 41.5345794,84.4097561 41.5850467,84.5102439 C41.7869159,84.8619512 41.9383178,85.2639024 41.9383178,85.7160976 C41.9383178,85.9170732 41.635514,86.0678049 41.4841121,85.9673171 C41.0299065,85.6658537 40.8280374,85.0126829 41.0803738,84.5102439 C41.0803738,84.4097561 41.1813084,84.4097561 41.282243,84.3595122 Z" id="Shape" fill="#211C0F"/>
          <path d="M43.3514019,84.46 C43.3514019,84.6609756 43.1495327,84.8117073 42.9476636,84.8117073 C42.6448598,84.7614634 42.5943925,84.5102439 42.6448598,84.2590244 C42.6448598,84.1082927 42.6953271,83.957561 42.8971963,83.9073171 C43.1495327,83.9073171 43.3514019,84.1585366 43.3514019,84.46 Z" id="Shape" fill="#4B3F20"/>
          <path d="M39.4654206,60.5439024 C39.5663551,60.8453659 39.4149533,60.9960976 39.1626168,61.0965854 C38.2037383,61.5487805 37.1943925,61.7497561 36.235514,62.0512195 C35.9831776,62.1014634 35.6803738,61.9507317 35.4785047,61.8 C35.3271028,61.6995122 35.3775701,61.4985366 35.4785047,61.3478049 C38.4056075,60.3429268 38.4056075,60.3429268 39.4654206,60.5439024 Z" id="Shape" fill="#FEFBF1"/>
          <path d="M39.2130841,63.0560976 C39.3140187,63.0560976 39.4654206,63.0560976 39.5663551,63.1063415 C39.6672897,63.1565854 39.717757,63.2570732 39.7682243,63.357561 C39.7682243,63.4078049 39.7682243,63.5082927 39.717757,63.5585366 C39.6168224,63.6590244 39.5158879,63.7092683 39.4149533,63.7595122 C38.3551402,64.0609756 37.3457944,64.4629268 36.2859813,64.5634146 C36.1345794,64.5634146 35.9831776,64.5634146 35.8317757,64.5131707 C35.6803738,64.4629268 35.5794393,64.3121951 35.5794393,64.1614634 C35.5794393,64.0609756 35.6803738,63.9604878 35.7813084,63.86 C35.8317757,63.8097561 35.9327103,63.8097561 35.9831776,63.7595122 C36.8915888,63.5082927 37.8504673,63.2570732 38.7588785,63.0058537 C38.8598131,63.0560976 39.011215,63.0560976 39.2130841,63.0560976 Z" id="Shape" fill="#120F08"/>
          <path d="M41.5345794,63.1565854 C41.3831776,63.1063415 41.282243,63.1063415 41.1813084,63.0560976 C41.1308411,63.0058537 41.0803738,62.9556098 41.0299065,62.9053659 C40.9794393,62.7546341 41.0299065,62.6541463 41.1308411,62.6039024 C41.3831776,62.3526829 41.6859813,62.302439 42.0392523,62.4029268 C42.1906542,62.4531707 42.3420561,62.5536585 42.3420561,62.7043902 C42.3925234,62.9053659 42.2411215,63.0058537 42.0897196,63.0560976 C41.8878505,63.1063415 41.6859813,63.1063415 41.5345794,63.1565854 Z" id="Shape" fill="#1F1A0F"/>
          <path d="M33.7626168,55.9214634 C34.8224299,55.2682927 36.0336449,55.2180488 37.0934579,54.9165854 C37.446729,54.8160976 37.9009346,54.7156098 38.2037383,55.0170732 C38.2542056,55.2682927 38.153271,55.4692683 37.9514019,55.5195122 C36.7906542,55.9717073 35.5794393,56.3234146 34.3682243,56.3736585 C34.1663551,56.3736585 33.9140187,56.2731707 33.7626168,55.9214634 Z" id="Shape" fill="#FEFCF4"/>
          <path d="M37.5981308,57.6297561 C37.6485981,57.7804878 37.6485981,57.9814634 37.4971963,58.0819512 C36.4878505,58.5843902 35.4280374,58.8858537 34.317757,58.7853659 C34.2168224,58.4336585 34.2672897,58.2326829 34.4691589,58.182439 C35.4280374,57.8809756 36.3869159,57.5795122 37.3962617,57.5292683 C37.446729,57.5292683 37.4971963,57.6297561 37.5981308,57.6297561 Z" id="Shape" fill="#120F09"/>
          <path d="M38.5570093,57.68 C38.8093458,57.0268293 39.2635514,56.9263415 39.717757,56.8258537 C39.9700935,56.7756098 40.1719626,56.8760976 40.2728972,57.2278049 C39.8691589,57.7302439 39.364486,57.9312195 38.5570093,57.68 Z" id="Shape" fill="#3B3017"/>
          <path d="M37.4971963,70.0902439 C37.0429907,70.0902439 36.7401869,70.1404878 36.6392523,69.7887805 C36.5383178,69.537561 36.7401869,69.2863415 37.1943925,69.1858537 C38.1028037,68.984878 39.011215,68.7839024 39.8691589,68.6331707 C40.0205607,68.5829268 40.1719626,68.5829268 40.3233645,68.5829268 C40.5757009,68.5829268 40.8280374,68.5829268 40.928972,68.8341463 C41.0299065,69.035122 40.8785047,69.2360976 40.4242991,69.3868293 C39.4654206,69.7385366 38.4056075,69.9897561 37.4971963,70.0902439 Z" id="Shape" fill="#0F0D07"/>
          <path d="M37.3457944,66.2214634 C37.8,66.2717073 38.2037383,66.2214634 38.6579439,66.0707317 C39.1626168,65.92 39.717757,65.92 40.2224299,66.0204878 C40.3233645,66.3219512 40.2224299,66.4726829 40.071028,66.5229268 C39.011215,66.975122 37.9009346,67.2263415 36.6897196,67.1760976 C36.6392523,67.1760976 36.5383178,67.1258537 36.4878505,67.0756098 C36.3869159,66.8243902 36.4878505,66.7239024 36.6897196,66.5731707 C36.8411215,66.422439 37.2448598,66.5731707 37.3457944,66.2214634 Z" id="Shape" fill="#FDF7E7"/>
          <path d="M43.4523364,68.5326829 C43.2,68.984878 42.7457944,69.1356098 42.2411215,69.035122 C42.1401869,69.035122 42.0392523,68.8843902 41.988785,68.8341463 C41.9383178,68.7336585 41.9383178,68.5829268 41.988785,68.5326829 C42.1906542,68.3317073 42.4429907,68.2312195 42.6953271,68.1809756 C42.9476636,68.1307317 43.0485981,68.1809756 43.4523364,68.5326829 Z" id="Shape" fill="#352C16"/>
          <path d="M48.8523364,61.9507317 C48.7009346,61.9004878 48.6,61.9004878 48.4990654,61.8502439 C48.4485981,61.8 48.3981308,61.7497561 48.3981308,61.6492683 C48.3476636,61.4482927 48.6,61.1970732 48.953271,61.1468293 C49.1551402,61.0965854 49.3570093,61.1468293 49.4074766,61.3980488 C49.4579439,61.5487805 49.4074766,61.7497561 49.2560748,61.8 C49.1551402,61.9004878 48.953271,61.9004878 48.8523364,61.9507317 Z" id="Shape" fill="#3C321B"/>
          <path d="M47.9439252,55.8209756 C47.8934579,55.8712195 47.8934579,55.9717073 47.8429907,56.0219512 C47.6915888,56.0721951 47.5401869,56.122439 47.388785,56.122439 C47.1869159,56.122439 46.9850467,56.122439 46.9850467,55.8209756 C46.9850467,55.5697561 47.1869159,55.3687805 47.4392523,55.3687805 C47.6915888,55.4190244 47.9439252,55.62 47.9439252,55.8209756 Z" id="Shape" fill="#342C17"/>
        </g>
      </g>
    </g>
  </g>
</svg>