<svg width="136px" height="142px" viewBox="0 0 136 142" version="1.1" xml:space="preserve" xmlns="http://www.w3.org/2000/svg" xmlns:xlink="http://www.w3.org/1999/xlink">
  <!-- Generator: Sketch 48.2 (47327) - http://www.bohemiancoding.com/sketch -->
  <defs/>
  <g>
    <title>milk-c</title>
    <desc>Created with Sketch.</desc>
    <g id="food" stroke="none" stroke-width="1" fill="none" fill-rule="evenodd">
      <g id="milk-c" fill-rule="nonzero">
        <g id="scratch_fridge_milk03" transform="translate(23.000000, 5.000000)">
          <path d="M74.368,75.318023 C77.128,73.0329271 81.168,70.0234837 81.912,69.4672169 C84.516,67.5382917 86.888,65.3612476 89.484,63.4283205 C90.284,64.0566219 87.976,65.393263 88.004,65.9015067 C88.068,67.126094 90.296,64.7569578 90.68,65.0571017 C91.064,65.3572457 89.032,66.8099424 89.224,67.5022745 C89.976,67.7303839 91.624,66.4057486 91.832,66.7459117 C92.04,67.0860749 83.876,74.177476 78.492,78.6196065 C77.556,79.391977 71.104,85.7230134 69.256,83.2298177 C67.408,80.7366219 73.748,75.8342706 74.368,75.318023 Z" id="Shape" fill="#BE0A3C"/>
          <path d="M84.94,68.6948464 C84.94,68.6948464 83.836,67.6543474 84.364,65.7734453 C84.484,65.3532438 85.268,63.6404223 85.756,63.8925432 C86.244,64.1446641 85.452,64.9290403 85.492,65.6133685 C85.532,66.2976967 86.54,65.8975048 87.492,66.9219962 C88.444,67.9464875 86.72,71.3281094 84.94,68.6948464 Z" id="Shape" fill="#82001E"/>
          <path d="M15.6,73.8693282 C13.252,71.8683685 10.8,69.8674088 10.252,69.4672169 C7.648,67.5382917 5.276,65.3612476 2.68,63.4283205 C1.88,64.0566219 4.188,65.393263 4.16,65.9015067 C4.096,67.126094 1.868,64.7569578 1.484,65.0571017 C1.1,65.3572457 3.132,66.8099424 2.94,67.5022745 C2.188,67.7303839 0.54,66.4057486 0.332,66.7459117 C0.124,67.0860749 8.14,74.0494146 13.532,78.495547 C14.528,79.3199424 18.928,84.4984261 21.74,82.0972745 C24.552,79.6961228 17.088,75.121929 15.6,73.8693282 Z" id="Shape" fill="#BE0A3C"/>
          <path d="M7.232,68.6948464 C7.232,68.6948464 8.336,67.6543474 7.808,65.7734453 C7.688,65.3532438 6.904,63.6404223 6.416,63.8925432 C5.928,64.1446641 6.72,64.9290403 6.68,65.6133685 C6.64,66.2976967 5.632,65.8975048 4.68,66.9219962 C3.728,67.9464875 5.456,71.3281094 7.232,68.6948464 Z" id="Shape" fill="#82001E"/>
          <path d="M66.116,103.499539 C68.768,100.766228 73.98,108.593983 73.98,108.593983 L85.18,124.837774 L86.612,123.637198 C86.612,123.637198 87.296,123.397083 87.012,124.14144 C86.924,124.373551 83.316,126.898762 83.316,126.898762 C83.316,126.898762 72.62,117.090058 67.636,110.090701 C65.416,106.965202 65.296,104.347946 66.116,103.499539 Z" id="Shape" fill="#82001E"/>
          <path d="M27.692,99.397572 C24.636,94.9754511 20.948,102.038839 20.948,102.038839 C18.896,106.661056 10.572,124.805758 9.348,125.850259 C8.816,125.62215 8.548,125.049875 7.984,124.921814 C7.708,125.053877 7.456,125.169933 7.556,125.582131 C7.716,125.698186 10.544,127.867226 10.66,128.047313 C10.964,128.047313 21.912,116.205633 26.496,107.517466 C28.26,104.163858 28.544,100.634165 27.692,99.397572 Z" id="Shape" fill="#82001E"/>
          <path d="M43.544,13.7564971 C43.544,13.7564971 57.688,28.0993762 57.832,29.3639827 C56.348,29.4080038 33.376,33.4859597 33.376,33.4859597 L13.48,28.2474472 L43.544,13.7564971 Z" id="Shape" fill="#82001E"/>
          <path d="M58.228,1.31853167 L32.072,0.918339731 C32.072,1.25049904 31.82,6.52102687 32.224,7.00926104 C32.916,7.80964491 44.252,8.30588292 47.26,8.51398273 C48.66,8.61403071 58.46,7.08929942 58.46,7.08929942 C58.46,7.08929942 58.368,1.97484645 58.228,1.31853167 Z" id="Shape" fill="#BE0A3C"/>
          <path d="M13.48,28.2474472 L32.224,7.03727447 C32.224,7.03727447 44.916,10.6390019 47.224,13.1602111 C43.016,15.9575528 13.48,28.2474472 13.48,28.2474472 Z" id="Shape" fill="#FFC800"/>
          <path d="M76.368,29.1878983 C75.02,29.3719866 60.912,31.4449808 60.912,31.4449808 L52.488,29.0158157 C52.488,29.0158157 38,13.3803167 32.156,7.00525912 C34.156,6.30092131 58.46,7.08929942 58.46,7.08929942 C58.46,7.08929942 74.072,25.4140883 76.368,29.1878983 Z" id="Shape" fill="#F01446"/>
          <path d="M76.024,111.755499 L53.352,112.255739 L41.976,74.4896257 L52.488,29.0158157 L76.368,29.1878983 C76.368,29.1878983 76.68,81.8411516 76.488,91.2936852 C76.4,95.1795489 76.024,111.755499 76.024,111.755499 Z" id="Shape" fill="#BE0A3C"/>
          <path d="M52.488,29.0158157 C52.488,29.0158157 18.488,28.1514012 13.48,28.2474472 C13.224,32.9216891 15.568,87.631929 16.08,97.2965643 C16.208,99.6977159 16.216,102.074856 16.284,104.464002 C16.32,105.736612 16.62,111.267265 16.62,111.267265 C16.62,111.267265 19.356,111.327294 20.544,111.375317 C22.808,111.463359 25.068,111.667457 27.344,111.727486 C31.924,111.843541 36.492,111.907572 41.072,112.087658 C43.192,112.171699 53.36,112.263743 53.36,112.263743 L52.488,29.0158157 Z" id="Shape" fill="#F01446"/>
          <path d="M45.328,37.3037908 C45.328,37.3037908 23.828,36.6834933 20.656,36.7515259 C20.492,40.1011324 22.16,98.3370633 22.656,99.1814683 C23.152,100.025873 24.384,99.7217274 25.136,99.7537428 C26.568,99.8177735 27.996,99.9658445 29.432,100.005864 C32.328,100.089904 35.22,100.133925 38.116,100.265988 C39.456,100.326017 45.888,100.39405 45.888,100.39405 L45.328,37.3037908 Z" id="Shape" fill="#FFFFFF"/>
        </g>
      </g>
    </g>
  </g>
</svg>