<svg width="165px" height="210px" viewBox="0 0 165 210" version="1.1" xml:space="preserve" xmlns="http://www.w3.org/2000/svg" xmlns:xlink="http://www.w3.org/1999/xlink">
  <!-- Generator: Sketch 48.2 (47327) - http://www.bohemiancoding.com/sketch -->
  <defs/>
  <g>
    <title>jamie-a</title>
    <desc>Created with Sketch.</desc>
    <g id="basketball" stroke="none" stroke-width="1" fill="none" fill-rule="evenodd">
      <g id="jamie-a">
        <g id="scratch_bball_player03a" transform="translate(27.000000, 56.000000)">
          <path d="M58.6047967,63.0273995 L36.3795122,73.6131903 C36.3795122,73.6131903 41.6579675,77.0965147 48.3944715,77.0965147 C55.1309756,77.0965147 53.884065,78.4227346 61.034878,77.5159517 C68.1856911,76.6091689 72.9860976,70.4134853 72.9860976,70.4134853 L58.6047967,63.0273995 Z" id="Shape" fill="#780046" fill-rule="nonzero"/>
          <path d="M71.2013821,111.050938 C71.5472607,113.887719 71.5913296,116.753338 71.3328455,119.599464 L75.1253659,121.704638 L80.7304878,119.599464 C81.3280488,117.10681 81.9893496,113.707373 81.9256098,110.499678 C81.8578862,105.706113 80.0891057,100.149571 80.0891057,100.149571 C80.0891057,100.149571 75.3086179,83.1044504 73.7708943,78.0272654 C71.6196748,77.380134 62.030813,78.1590885 60.5966667,78.8901072 C61.3934146,81.862118 65.0385366,89.963244 66.0942276,92.9032976 C66.6957724,94.5570777 70.1337398,103.337292 71.2013821,111.050938 Z" id="Shape" fill="#824600" fill-rule="nonzero"/>
          <path d="M81.2682927,97.0697051 C80.2205691,92.6756032 71.5917886,69.2310724 71.5917886,69.2310724 C71.5917886,69.2310724 62.030813,67.976756 54.9995122,67.093941 L65.3333333,97.0697051 C65.3333333,97.0697051 76.746748,97.6489276 81.2682927,97.0697051 Z" id="Shape" fill="#FFDC00" fill-rule="nonzero"/>
          <path d="M71.3328455,119.611448 C71.1987428,121.109922 70.9658487,122.59785 70.6356911,124.065469 C70.2811382,125.59941 69.8110569,127.097399 69.396748,128.615362 C68.5163415,131.811072 65.4807317,138.366273 64.1421951,141.398204 C66.7435772,141.845603 68.2892683,142.472761 70.8866667,142.029357 C72.4363415,139.632574 75.5436585,134.81504 77.7147967,129.777802 C78.5720943,127.73932 79.2518657,125.630274 79.7465041,123.474263 C79.977561,122.439651 80.3560163,121.121421 80.7304878,119.599464 L71.3328455,119.611448 Z" id="Shape" fill="#FAB414" fill-rule="nonzero"/>
          <polygon id="Shape" fill="#FFDC00" fill-rule="nonzero" points="75.4998374 147.665791 68.9107317 146.810938 59.9672358 147.434102 60.2022764 148.732359 75.8105691 148.864182"/>
          <path d="M74.3206504,146.379517 C73.1320745,146.314965 71.949012,146.172182 70.7791057,145.952091 L77.1530894,133.420912 L65.934878,133.420912 L59.9592683,147.434102 L75.4958537,147.669786 C75.3370282,147.331452 75.2038597,146.981596 75.0974797,146.62319 C74.8495621,146.510119 74.588633,146.428271 74.3206504,146.379517 Z" id="Shape" fill="#AA3278" fill-rule="nonzero"/>
          <polygon id="Shape" fill="#FFDC00" fill-rule="nonzero" points="73.8027642 136.408901 76.8463415 136.408901 77.1013008 135.629946 73.9421951 135.629946"/>
          <polygon id="Shape" fill="#FAB414" fill-rule="nonzero" points="72.8586179 138.226461 75.9061789 138.226461 76.1571545 137.447507 72.9980488 137.447507"/>
          <polygon id="Shape" fill="#FFDC00" fill-rule="nonzero" points="71.9144715 140.048016 74.9620325 140.048016 75.2130081 139.265067 72.0539024 139.265067"/>
          <polygon id="Shape" fill="#FAB414" fill-rule="nonzero" points="70.9743089 141.865576 74.0178862 141.865576 74.2688618 141.082627 71.1097561 141.082627"/>
          <polygon id="Shape" fill="#FFDC00" fill-rule="nonzero" points="70.0301626 143.683137 73.0777236 143.683137 73.3286992 142.904182 70.1695935 142.904182"/>
          <ellipse id="Oval" fill="#FFDC00" fill-rule="nonzero" cx="68.1219512" cy="138.302359" rx="3.06349593" ry="3.07187668"/>
          <ellipse id="Oval" fill="#780046" fill-rule="nonzero" cx="68.1219512" cy="138.302359" rx="1.45406504" ry="1.4580429"/>
          <path d="M38.8454472,75.5665684 L20.870813,119.439678 L22.631626,123.933646 L32.3439837,119.695335 C32.3439837,119.695335 54.115122,76.9527078 54.0673171,76.872815 L38.8454472,75.5665684 Z" id="Shape" fill="#824600" fill-rule="nonzero"/>
          <path d="M27.8861789,99.0670241 C28.1371545,98.8912601 45.0162602,99.8659517 45.0162602,99.8659517 L59.2621138,66.6465416 C52.1471545,65.7517426 41.9447967,65.5000804 41.8969919,65.4042091 L27.8861789,99.0670241 Z" id="Shape" fill="#FFDC00" fill-rule="nonzero"/>
          <polygon id="Shape" fill="#FAB414" fill-rule="nonzero" points="14.6322764 134.379625 20.870813 119.443673 32.3439837 119.69933 24.7947967 134.583351"/>
          <polygon id="Shape" fill="#FFDC00" fill-rule="nonzero" points="3.11130081 147.665791 9.7004065 146.810938 19.4406504 147.434102 19.201626 148.732359 2.79658537 148.864182"/>
          <path d="M4.2904878,146.379517 C5.47906367,146.314965 6.66212626,146.172182 7.83203252,145.952091 L14.2060163,133.420912 L25.8186179,133.420912 L19.4446341,147.434102 L3.11130081,147.669786 C3.26835041,147.330697 3.40146889,146.980972 3.5096748,146.62319 C3.75885852,146.509805 4.02114462,146.427951 4.2904878,146.379517 Z" id="Shape" fill="#AA3278" fill-rule="nonzero"/>
          <ellipse id="Oval" fill="#FFDC00" fill-rule="nonzero" cx="19.1219512" cy="138.302359" rx="3.06349593" ry="3.07187668"/>
          <ellipse id="Oval" fill="#780046" fill-rule="nonzero" cx="19.1219512" cy="138.302359" rx="1.45406504" ry="1.4580429"/>
          <polygon id="Shape" fill="#FFDC00" fill-rule="nonzero" points="12.0547967 136.408901 15.098374 136.408901 15.3493496 135.629946 12.1942276 135.629946"/>
          <polygon id="Shape" fill="#FAB414" fill-rule="nonzero" points="11.2978862 138.226461 14.3414634 138.226461 14.592439 137.447507 11.4333333 137.447507"/>
          <polygon id="Shape" fill="#FFDC00" fill-rule="nonzero" points="10.1386179 140.048016 13.1861789 140.048016 13.4371545 139.265067 10.2780488 139.265067"/>
          <polygon id="Shape" fill="#FAB414" fill-rule="nonzero" points="9.38170732 141.865576 12.4292683 141.865576 12.6802439 141.082627 9.52113821 141.082627"/>
          <polygon id="Shape" fill="#FFDC00" fill-rule="nonzero" points="8.22642276 143.683137 11.2739837 143.683137 11.5249593 142.904182 8.36585366 142.904182"/>
          <rect id="Rectangle-path" fill="#FFDC00" fill-rule="nonzero" x="47.4144715" y="66.299008" width="18.1738211" height="8.45265416"/>
          <path d="M71.814878,49.6054155 C65.0903252,45.0235657 51.5655285,36.9783646 44.299187,32.0689544 L42.1997561,38.9996515 L44.299187,46.0062466 L58.5968293,56.3243968 L71.846748,65.703807 L74.3445528,62.9674799 L71.814878,49.6054155 Z" id="Shape" fill="#780046" fill-rule="nonzero"/>
          <path d="M49.7290244,34.1381769 L52.7646341,36.3032708 C52.7646341,36.3032708 49.4461789,44.5521984 55.0313821,47.3524397 C60.6165854,50.152681 63.484878,43.4177212 63.484878,43.4177212 L64.9947154,44.4043968 C64.9947154,44.4043968 72.8028455,68.9314745 72.9621951,70.4094906 C70.4564228,71.1285255 41.3950407,75.0193029 36.3595935,73.6052011 C38.3952846,68.3722252 49.7290244,34.1381769 49.7290244,34.1381769 Z" id="Shape" fill="#AA3278" fill-rule="nonzero"/>
          <path d="M35.7500813,74.8954692 C35.7500813,74.8954692 38.5386992,70.6731367 38.8374797,70.6291957 C40.1441463,73.2536729 41.4866667,78.7023592 41.1480488,81.6144504 C40.6341463,81.3468097 35.7500813,74.8954692 35.7500813,74.8954692 Z" id="Shape" fill="#824600" fill-rule="nonzero"/>
          <path d="M27.7746341,59.3043968 C26.9300813,59.9075871 21.6914634,59.5600536 20.6556911,59.3043968 C20.2573171,58.5054692 19.8071545,57.6705898 19.3729268,56.8317158 C20.2652846,55.2817962 26.9818699,57.9901609 27.7746341,59.3043968 Z" id="Shape" fill="#824600" fill-rule="nonzero"/>
          <path d="M40.6341463,72.9580697 C40.0405691,62.8795979 34.1526016,60.626622 31.9495935,59.5680429 C31.2564228,59.2364879 27.1292683,57.6825737 24.2928455,57.9502145 C21.9822764,58.1699196 16.4807317,59.9115818 13.9669919,63.1752011 C11.0190244,67.0020643 11.2221951,72.4267828 11.2221951,72.4267828 C10.9871545,79.3375067 16.4289431,83.9872654 22.6834146,85.5651475 C25.2716901,86.2302567 27.9717277,86.3337598 30.6030894,85.8687399 C31.2484553,85.7449062 33.6347154,85.4053619 36.2002439,82.700992 C38.2439024,80.5558713 40.9010569,77.4200804 40.6341463,72.9580697 Z" id="Shape" fill="#E6781E" fill-rule="nonzero"/>
          <path d="M32.1089431,59.2924129 C28.0773984,67.7410724 23.8984553,76.5093029 20.0103252,85.0258713" id="Shape" stroke="#824600" stroke-width="0.5" stroke-linecap="round"/>
          <path d="M40.0047154,78.2909115 L12.3854472,65.3083378" id="Shape" stroke="#824600" stroke-width="0.5" stroke-linecap="round"/>
          <path d="M29.2964228,86.1723324 C26.2209756,80.5279088 28.3522764,72.9261126 32.3678862,68.3123056 C33.9663344,66.417664 36.1064537,65.0609177 38.4988618,64.4255228" id="Shape" stroke="#824600" stroke-width="0.5" stroke-linecap="round"/>
          <path d="M12.4372358,78.3228686 C19.0422764,77.7716086 23.8705691,71.2323861 25.1852033,65.140563 C25.7253602,62.6755639 25.5778784,60.1089943 24.7589431,57.7225201" id="Shape" stroke="#824600" stroke-width="0.5" stroke-linecap="round"/>
          <path d="M97.3147967,83.4120375 C96.055935,75.2230295 90.1878862,67.2457373 84.5110569,61.2657641 C81.9401588,58.6193977 79.1973297,56.1466339 76.3005691,53.8636997 L76.3005691,68.8555764 C77.710813,70.217748 79.1369919,71.6797855 80.5233333,73.2496783 C89.0684553,82.8368097 88.0286992,96.5623861 80.7384553,102.518391 C78.0334959,104.727426 68.5362602,103.628901 61.9949593,100.573003 C57.5172358,98.483807 45.4186179,85.5931099 43.1757724,82.5651743 C41.9089431,80.8514745 37.9212195,74.9354155 37.1563415,73.8968097 C35.8576423,72.1231903 34.2123577,70.2656836 33.2403252,71.0406434 C32.9574797,72.6384987 36.0647967,75.1391421 35.1047154,76.6331367 C33.825935,78.6304558 31.7862602,74.9114477 31.1727642,74.0605898 C30.7026829,73.8129223 30.7026829,73.8129223 30.3003252,73.892815 C29.8103252,76.1058445 32.6188618,77.8475067 32.2443902,79.7928954 C31.7145528,82.5412064 29.4119512,78.8781233 28.204878,79.1497587 C27.5794309,80.3841019 29.9178862,83.0165684 30.5234146,83.9113673 C31.834065,85.8447721 33.0809756,87.8341019 34.4752846,89.7115818 C37.1802439,93.3467024 41.7973984,98.3559786 51.4938211,107.140188 C57.023252,112.153458 70.0221951,117.054879 79.3999187,114.973673 C86.4630894,113.40378 91.2913821,107.256032 92.9446341,104.012386 C96.5937398,96.8140483 98.5497561,91.4412601 97.3147967,83.4120375 Z" id="Shape" fill="#A0640A" fill-rule="nonzero"/>
          <path d="M14.7398374,41.6720643 C13.1821951,37.5775603 12.3256911,32.3885255 12.5726829,31.7493834 C14.3454472,27.1835121 22.2412195,29.9118499 25.9301626,32.2207507 C27.9937398,33.5110188 34.2203252,37.4137802 40.0047154,41.576193 L40.2198374,29.6242359 C37.7379675,27.9185255 34.7382114,25.5976408 32.3121138,24.2035121 C26.3046341,20.7521448 19.5641463,16.0464611 12.3017886,16.9372654 C5.02375551,17.7384579 -0.364254148,24.0983461 0.023902439,31.4298123 C0.238896829,35.0528443 1.03803695,38.6169927 2.3902439,41.9836461 C3.66105691,45.2712332 13.0666667,65.3682574 13.0666667,65.3682574 C14.7597561,68.1844772 16.9269106,71.1085523 17.9069106,70.1857909 C17.9387805,68.9873995 15.19,65.6398928 17.0464228,64.9927614 C18.6080488,64.4335121 20.1457724,67.5812869 21.2094309,68.4281501 C23.4761789,67.6292225 18.5164228,63.1472386 20.7313821,61.6732172 C22.3049593,60.626622 24.1852846,64.2058177 25.4521138,64.7450938 C26.6472358,64.1658713 22.938374,58.7930831 22.3965854,57.9542091 C22.3447967,57.6945576 17.6479675,49.3018231 14.7398374,41.6720643 Z" id="Shape" fill="#A0640A" fill-rule="nonzero"/>
          <path d="M19.2135772,48.6706702 C20.5282114,50.8677212 21.9703252,53.0967292 22.7989431,55.5374531 C22.5678862,56.1366488 17.2217073,58.7771046 16.4886992,59.1326273 C14.7788709,60.0339407 13.023679,60.8459377 11.2301626,61.5653619 C9.48528455,62.2124933 8.89170732,61.7810724 7.58105691,60.1512601 C6.56918699,58.8969437 5.84813008,56.7957641 5.55333333,55.2138874 C5.67284553,54.9622252 7.70056911,54.1672922 10.5887805,52.6053887 C13.3723426,51.1011135 16.2537975,49.786565 19.2135772,48.6706702 Z" id="Shape" fill="#780046" fill-rule="nonzero"/>
          <path d="M43.3669919,79.8927614 C44.9923577,81.8900804 46.7452033,83.8873995 47.9243902,86.1603485 C47.804878,86.7715282 42.8969106,90.1589812 42.2276423,90.6383378 C40.6660797,91.7864693 39.0465325,92.8531214 37.3754472,93.8340483 C35.7460976,94.7248525 35.096748,94.3893029 33.5590244,92.9672118 C32.3639024,91.872681 31.5950407,89.8234316 31.0731707,88.3014745 C31.1528455,88.0338338 32.8060976,87.0311796 35.4552846,85.0618231 C37.9761338,83.1659939 40.6191236,81.439214 43.3669919,79.8927614 Z" id="Shape" fill="#780046" fill-rule="nonzero"/>
          <path d="M71.1894309,31.4138338 C71.1894309,31.4138338 73.9780488,30.2473995 75.5715447,28.0183914 C76.5993496,26.5803217 76.9698374,24.1276139 76.332439,23.1848794 C75.4958537,21.9505362 74.0338211,21.5670509 72.8626016,22.6336193 C71.9582927,23.4565147 71.0101626,28.1941555 70.8946341,29.3086595 C70.9105691,29.3246381 71.1894309,31.4138338 71.1894309,31.4138338 Z" id="Shape" fill="#824600" fill-rule="nonzero"/>
          <path d="M73.8744715,5.5924933 C69.0939837,0.998659517 61.1743089,-0.902788204 54.9636585,1.31423592 C48.035935,3.78292225 43.9486179,10.3940483 44.574065,17.692252 C44.8170732,20.528445 45.370813,23.8519839 47.1993496,26.1369169 C48.9282927,28.2780429 53.2785366,30.8106434 56.1030081,30.2434048 L74.2529268,24.4951206 C77.2845528,20.2687936 79.6747967,11.125067 73.8744715,5.5924933 Z" id="Shape" fill="#000000" fill-rule="nonzero"/>
          <path d="M57.3658537,29.4165147 C57.3658537,29.4165147 54.3621138,29.236756 52.123252,27.6668633 C50.6771545,26.6482306 49.5178862,24.4711528 49.8086992,23.3566488 C50.2070732,21.9145845 51.4420325,21.0677212 52.9000813,21.6868901 C54.0234959,22.162252 56.4854472,26.312681 56.9634959,27.327319 C56.9156911,27.3552815 57.3658537,29.4165147 57.3658537,29.4165147 Z" id="Shape" fill="#A0640A" fill-rule="nonzero"/>
          <path d="M74.8943089,26.1289276 C74.8943089,25.8253351 74.3804065,20.5164611 71.9622764,17.4805362 C69.7831707,14.7402145 65.7356911,14.2328954 64.4409756,14.1729759 C58.9752846,13.9253083 54.8003252,17.60437 54.3581301,20.6922252 C53.700813,25.3220107 54.9556911,30.0796247 58.0749593,34.4098123 C59.7919512,36.786622 62.2778049,37.5336193 64.5365854,37.5296247 C70.8428455,37.5216354 75.1811382,32.216756 74.8943089,26.1289276 Z" id="Shape" fill="#A0640A" fill-rule="nonzero"/>
          <path d="M63.6203252,29.5603217 C66.016238,29.3392851 68.4288712,29.7324105 70.6317073,30.7027882 C71.6674797,33.6068901 61.9033333,32.2966488 63.6203252,29.5603217 Z" id="Shape" fill="#000000" fill-rule="nonzero"/>
          <path d="M71.7869919,27.5630027 C70.7552033,27.9864343 69.7154472,27.7427614 68.6876423,27.4910992 C68.3410569,26.6042895 69.6995122,24.2634316 70.6356911,24.2314745 C71.5081301,25.1662198 72.137561,26.1409115 71.7869919,27.5630027 Z" id="Shape" fill="#824600" fill-rule="nonzero"/>
          <path d="M64.863252,24.1515818 C64.954878,24.8027078 65.0305691,25.3859249 64.6560976,25.9132172 C63.7119512,26.0010992 63.9987805,24.3153619 64.4449593,23.939866 L64.863252,24.1515818 Z" id="Shape" fill="#000000" fill-rule="nonzero"/>
          <path d="M74.097561,24.8146917 C74.1573171,25.2900536 74.4122764,25.7374531 74.0298374,26.212815 L73.5079675,26.1009651 C73.5358537,25.6136193 73.3446341,25.1342627 73.7111382,24.7068365 L74.097561,24.8146917 Z" id="Shape" fill="#000000" fill-rule="nonzero"/>
          <polygon id="Shape" fill="#000000" fill-rule="nonzero" points="51.6372358 17.5764075 53.5733333 24.0477212 55.0752033 23.4445308 56.6169106 12.6430295"/>
          <path d="M71.814878,49.6054155 L71.846748,65.703807 L76.3005691,69.4507775 L76.3005691,52.7651743 C76.2009756,52.6852815 71.814878,49.6054155 71.814878,49.6054155 Z" id="Shape" fill="#780046" fill-rule="nonzero"/>
          <path d="M44.299187,32.0689544 C42.1160976,30.5909383 40.164065,28.7174531 39.5186992,28.2740483 L39.5585366,42.5868365 L44.2952033,46.0062466 L44.299187,32.0689544 Z" id="Shape" fill="#780046" fill-rule="nonzero"/>
        </g>
      </g>
    </g>
  </g>
</svg>