<svg width="152px" height="136px" viewBox="0 0 152 136" version="1.1" xml:space="preserve" xmlns="http://www.w3.org/2000/svg" xmlns:xlink="http://www.w3.org/1999/xlink">
  <!-- Generator: Sketch 48.2 (47327) - http://www.bohemiancoding.com/sketch -->
  <defs/>
  <g>
    <title>jordyn-b</title>
    <desc>Created with Sketch.</desc>
    <g id="soccer" stroke="none" stroke-width="1" fill="none" fill-rule="evenodd">
      <g id="jordyn-b" fill-rule="nonzero">
        <g id="scratch_footie_player_girl02" transform="translate(29.000000, 4.000000)">
          <path d="M52.59,82.4496047 C46.115,84.0559289 54.15,100.611107 54.15,100.611107 C54.15,100.611107 60.8,100.947431 63.28,99.9685771 C63.135,98.8642292 59.065,80.8181818 52.59,82.4496047 Z" id="Shape" fill="#DCAA78"/>
          <path d="M68.67,122.98419 L64.225,99.6021344 L52.31,99.6021344 C53.55,102.317826 54.81,104.847787 55.075,105.575652 C57.395,111.669644 63.205,123.902806 63.405,124.093557 C63.405,124.555375 63.255,126.342411 63.94,126.5683 L64.44,126.35747 C64.34,125.574387 64.325,123.847589 64.325,123.847589 L65.7,123.782332 L65.85,126.096443 C66.0922725,126.233846 66.3926031,126.214139 66.615,126.046245 C66.615,126.046245 66.36,124.444941 66.7,123.762253 C67.82,123.762253 68.23,123.686957 68.325,123.797391 C68.42,123.907826 68.61,126.839368 69.48,125.890632 C69.285,125.182846 68.91,124.444941 69.29,123.666877 C69.85,123.722095 70.345,123.767273 70.58,124.068458 C70.815,124.369644 70.93,125.689842 71.26,125.95087 C71.405,125.805296 71.63,125.830395 71.68,125.785217 L71.18,123.747194 C71.7164442,123.690744 72.2566235,123.678991 72.795,123.712055 C72.795,123.712055 72.73,123.260277 72.7,123.129763 C71.815,123.059486 69.355,122.98419 68.67,122.98419 Z" id="Shape" fill="#000000"/>
          <polygon id="Shape" fill="#F01446" points="50.77 98.869249 52.12 101.58996 65.39 101.318893 64.845 98.4174704"/>
          <polygon id="Shape" fill="#F01446" points="55.35 109.757115 56.395 112.994862 62.045 112.643478 61.355 109.506126"/>
          <path d="M64.38,102.513597 C63.646454,102.515079 62.9135921,102.558655 62.185,102.644111 L62.125,102.644111 C58.99,103.768538 59.275,107.513281 59.88,110.464901 C60.705,114.480711 62.28,116.107115 65.775,117.713439 C66.39,117.713439 67.01,117.803794 67.63,117.788735 C69.41,115.78083 70.9,116.398261 69.33,109.104545 C67.76,101.81083 64.5,102.598933 64.38,102.513597 Z" id="Shape" fill="#00A08C"/>
          <path d="M63.09,105.781462 C63.9503473,105.557502 64.8643057,105.691428 65.625,106.152925 C66.49872,106.916514 67.1834465,107.873764 67.625,108.948933 C68.475,110.881542 68.625,114.330119 66.66,115.14834 C63,116.684387 59.85,107.347628 63.09,105.781462 Z" id="Shape" fill="#008264"/>
          <path d="M46.06,84.8641107 L48.85,95.0642688 L63.705,95.3152569 L61.96,84.8641107 C61.96,84.8641107 60.425,78.5944269 52.755,78.7550593 C45.085,78.9156917 46.06,84.8641107 46.06,84.8641107 Z" id="Shape" fill="#F01446"/>
          <path d="M26.06,97.2629249 C26.8948243,95.5036061 27.6130526,93.6908768 28.21,91.8365613 C29.17,88.6640711 29.88,85.6421739 33.885,85.8128458 C41.16,86.1341107 39.16,98.0108696 35.415,103.492451 C34.62,104.667075 26.06,97.2629249 26.06,97.2629249 Z" id="Shape" fill="#DCAA78"/>
          <path d="M25.745,84.8641107 C24.79,88.7042292 24.105,91.946996 24.105,91.946996 L39.785,96.7358498 L42.915,87.5848221 C42.915,87.5848221 45.875,79.5532016 37,77.956917 C28.125,76.3606324 25.745,84.8641107 25.745,84.8641107 Z" id="Shape" fill="#F01446"/>
          <path d="M25.86,96.3342688 C24.376376,99.4460627 21.4853247,101.645363 18.1,102.23751 C13.5164935,102.944588 8.84084264,101.796331 5.1,99.0449407 L4.455,99.8932806 C3.875,99.8079447 2.51,98.6232806 2.05,99.250751 L2.295,99.9384585 C3.03049465,99.872845 3.74972442,100.182035 4.21,100.7617 L3.995,101.263676 C3.37,101.338972 1.8,100.34004 1.28,100.952451 C1.28,101.956403 2.99,101.850988 3.715,101.956403 L3.405,102.88004 C3.195,102.849921 1.02,102.257589 0.595,102.378063 L0.64,103.005534 L1.085,103.281621 C1.835,103.08083 2.425,103.387036 3.085,103.653083 L2.81,104.581739 C2.055,104.98834 1.535,104.195217 0.885,104.34581 C0.675,105.219249 1.695,105.294545 2.27,105.425059 C2.165,105.876838 1.935,106.228221 2.27,106.654901 L2.845,106.579605 C3.2,105.691107 3.3,104.737352 3.995,103.964308 C6.92535349,106.033241 10.0765186,107.767423 13.39,109.134664 C15.29,109.902688 19.63,110.670711 19.89,110.675731 C22.1328215,110.784656 24.3795251,110.566537 26.56,110.028182 C28.77,109.737036 35.87,104.255455 36.97,102.684269 L25.86,96.3342688 Z" id="Shape" fill="#000000"/>
          <polygon id="Shape" fill="#F01446" points="24.145 97.3281818 36.78 104.576719 38.225 102.764585 25.41 95.335336"/>
          <polygon id="Shape" fill="#F01446" points="15.425 102.122055 15.58 106.223202 18.93 106.268379 18.345 101.700395"/>
          <path d="M25.36,109.571383 C26.01,108.005217 22.81,105.264427 19.125,104.511462 C15.775,103.828775 13.385,103.964308 12.08,105.40498 C11.5617485,106.113289 11.4147387,107.028726 11.685,107.864664 C12.23,109.521186 14.22,111.187747 17.185,111.985889 C20.34,112.834229 24.115,112.568182 25.36,109.571383 Z" id="Shape" fill="#00A08C"/>
          <path d="M19.565,110.881542 C18.621758,110.825708 17.6885077,110.657194 16.785,110.379565 C15.535,109.957905 12.72,108.642727 13.88,107.292411 C14.3362922,106.789982 14.93472,106.439665 15.595,106.288458 C16.5407471,106.166719 17.4990978,106.183628 18.44,106.338656 C19.41,106.45913 21.34,106.89585 22.185,108.020277 C22.555,108.522253 22.845,109.877589 22.12,110.530158 C21.535,111.052213 20,110.936759 19.565,110.881542 Z" id="Shape" fill="#008264"/>
          <path d="M61.87,84.3621344 L58.94,67.7166008 L32,67.7667984 C32,67.7667984 29.935,70.9844664 28,76.7521739 C27.255,78.9909881 26.36,82.6754941 25.715,85.2556522 L61.87,84.3621344 Z" id="Shape" fill="#F01446"/>
          <path d="M65.555,17.6796047 C66.445,16.1435573 67.405,14.1055336 69.6,14.667747 C71.265,15.0894071 72.025,17.2880632 71.7,18.8743083 C71.375,20.4605534 69.585,21.9865613 67.945,21.9664822 C65,21.9162846 65.265,19.8381028 65.555,17.6796047 Z" id="Shape" fill="#BE8C64"/>
          <path d="M68.65,9.26648221 L54.5,6.93229249 L45.915,5.52173913 C43.805,5.17537549 43.675,4.93944664 42.665,7.15316206 C40.885,11.0585375 41.555,16.6907115 42.77,20.7818182 C43.535,23.3569565 48.27,31.8805138 55.92,31.8805138 C63.57,31.8805138 68.62,23.0356917 68.855,21.0980632 C69.38411,17.1665515 69.3149875,13.1771405 68.65,9.26648221 Z" id="Shape" fill="#DCAA78"/>
          <path d="M40.845,6.46545455 C40.845,6.46545455 36.91,7.77059289 35.265,10.0947431 C33.23,12.976087 32.915,16.3142292 32.055,19.6322925 C31.27,22.6742688 29.775,25.4451779 26.81,26.7402767 C23.845,28.0353755 20.18,27.1418577 18.64,24.0697628 C15.88,18.5781423 18.41,9.13596838 23.44,5.79782609 C26.205,3.96059289 29.595,3.89031621 32.76,4.29189723 C35.5433674,4.63128082 38.2651622,5.36300339 40.845,6.46545455 Z" id="Shape" fill="#000000"/>
          <path d="M42.635,6.72648221 C45.635,1.1344664 52.965,-0.632490119 59.375,0.75798419 C67.335,2.47976285 70.05,8.07679842 69.415,14.8936364 C65.07,14.9839921 42.895,7.4443083 42.635,6.72648221 Z" id="Shape" fill="#000000"/>
          <path d="M41.775,10.5666008 C40.5260553,9.70675674 40.0709441,8.07161087 40.695,6.68632411 C41.735,4.17644269 44.195,5.18039526 44.195,5.18039526 L41.775,10.5666008 Z" id="Shape" fill="#F01446"/>
          <path d="M60.9,14.5573123 C61.2760404,15.235801 61.5874225,15.9484241 61.83,16.6856917 C61.97,17.293083 62.235,18.0058893 61.62,18.5881818 C61.2758651,18.9703194 60.7218678,19.078694 60.26,18.8542292 C59.825,18.6785375 59.76,18.3120949 59.695,17.8904348 C59.6609288,16.9486153 59.9006825,16.0172058 60.385,15.2098814 C60.5357715,14.9765308 60.7082074,14.7580331 60.9,14.5573123 Z" id="Shape" fill="#BE8C64"/>
          <path d="M58.345,22.6290909 C57.52,22.2927668 56.72,21.9162846 55.875,21.6251383 C55.21,21.399249 54.375,20.8470751 53.705,20.7416601 C52.13,20.4856522 52.205,22.5588142 52.705,23.5928854 C53.815,25.8919368 58.94,25.9170356 60.06,23.5928854 C59.5176785,23.2216098 58.9437869,22.8990946 58.345,22.6290909 Z" id="Shape" fill="#000000"/>
          <path d="M55.405,14.7932411 C55.85,14.667747 56.09,14.7932411 56.165,15.02917 C56.275,15.3956126 56.24,16.7459289 55.88,16.996917 L55.38,16.8212253 L55.405,14.7932411 Z" id="Shape" fill="#000000"/>
          <path d="M65.855,17.0671937 C65.355,16.9517391 65.065,16.1134387 65.355,15.536166 C65.435,15.3705138 65.595,15.1948221 65.71,15.2098814 C65.825,15.2249407 66,15.4458103 66.025,15.621502 C66.1539806,16.1075356 66.0931697,16.6246755 65.855,17.0671937 Z" id="Shape" fill="#000000"/>
          <path d="M52,6.26466403 L43.94,19.0349407 L41.63,18.773913 C41.63,18.773913 36.5,2.60023715 52.155,0.501976285 L52,6.26466403 Z" id="Shape" fill="#000000"/>
          <polygon id="Shape" fill="#000000" points="46.83 5.09003953 49.565 17.0571542 53.38 6.7415415"/>
          <path d="M43.94,14.0904743 C43.94,14.0904743 46.015,18.4526482 46.125,20.3601581 C45.05,20.3601581 42.095,21.1131225 40.71,20.7567194 C39.595,20.4705929 38.395,19.6122134 38.135,18.4375889 C37.9,17.3733992 37.33,15.1446245 37.78,14.1908696 C39.5,10.6218182 43.94,14.0904743 43.94,14.0904743 Z" id="Shape" fill="#DCAA78"/>
          <path d="M99.28,52.7075099 C98.69,52.155336 102.32,50.4887747 102.08,49.9767589 C101.84,49.4647431 98.58,51.3622134 98.135,50.8501976 C97.69,50.3381818 101.135,48.7971146 100.96,48.4356917 C100.785,48.0742688 99.5,48.8573518 96.755,49.6655336 C95.78,49.9516601 93.575,50.7548221 92.385,50.9305138 C90.8687859,51.2003128 89.3235307,51.2661487 87.79,51.1262846 C87.855,51.2116206 79.79,49.7307905 77.405,48.957747 C76.02,48.5059684 71.35,45.9458893 67.305,44.3094466 L67.305,56.6831621 C71.195,57.6017787 80.45,59.5946245 88.845,58.1489328 C95.78,56.9542292 102.38,52.4113439 102.57,51.8641897 C103,50.6293281 99.87,53.2496443 99.28,52.7075099 Z" id="Shape" fill="#DCAA78"/>
          <path d="M57.645,38.777668 C57.645,38.777668 53.59,37.04083 50.83,43.6217391 C48.07,50.2026482 56.33,53.3199209 56.33,53.3199209 C59.13,54.7405138 67.025,56.3317787 67.025,56.3317787 L70.56,44.726087 C70.56,44.726087 57.565,38.7073913 57.645,38.777668 Z" id="Shape" fill="#008264"/>
          <polygon id="Shape" fill="#F01446" points="68.87 43.0143478 65.105 57.235336 67.825 58.1740316 72.055 44.8365217"/>
          <path d="M93.5,52.8932411 C91.83,52.7727668 91.405,51.0660474 91.405,51.0660474 C91.405,51.0660474 95.77,46.9598814 96.245,47.3564427 C96.72,47.753004 95.84,48.8623715 95.18,50.0871937 C97,51.4375099 95.165,53.0086957 93.5,52.8932411 Z" id="Shape" fill="#BE8C64"/>
          <path d="M51.11,37.0458498 C47.99,37.316917 40.22,36.2627668 35.395,47.5873518 C31.965,55.6189723 23.995,81.6113043 23.995,81.6113043 L62.305,78.5693281 C62.305,78.5693281 61.74,58.1840711 60.5,46.1818182 C59.6,37.3671146 55.145,36.6944664 51.11,37.0458498 Z" id="Shape" fill="#00A08C"/>
          <path d="M8.94,68.3290119 C6.765,67.711581 9.82,59.1026877 10.34,58.2894862 C10.745,59.1679447 9.915,67.8722134 8.94,68.3290119 Z" id="Shape" fill="#BE8C64"/>
          <path d="M19.56,36.343083 C15.81,38.5818972 12.52,41.1068379 10.135,44.7562055 C5.795,51.3973518 -0.365,66.803004 0.18,67.5158103 C0.725,68.2286166 1.74,63.8865217 3.015,64.3132016 C4.29,64.7398814 1.74,69.0066798 2.375,69.5789328 C3.01,70.1511858 5.07,64.8854545 5.635,65.3121344 C6.2,65.7388142 4.22,69.3681028 4.57,69.6542292 C4.92,69.9403557 11.155,58.8316206 14.805,54.5949407 C16.525,52.5870356 19.685,48.8623715 21.855,47.3765217 C24.655,45.4589723 28.715,44.259249 32.23,44.9168379 C32.23,44.9168379 38.84,46.4629249 39.37,40.4894071 C39.9,34.5158893 34.37,33.5621344 34.37,33.5621344 C30.795,33.0902767 22.58,34.5359684 19.56,36.343083 Z" id="Shape" fill="#DCAA78"/>
          <path d="M42.36,32.8493281 C38.0153566,32.4943221 33.6453014,32.6087595 29.325,33.1906719 L30.57,45.318419 C30.57,45.318419 37.07,44.9419368 42.035,49.5149407 C42.035,49.5149407 49.1,56.2213439 56.035,50.3632806 C62.97,44.5052174 58.275,38.3158498 54.44,36.4585375 C51.26,34.9325296 46.615,33.1806324 42.36,32.8493281 Z" id="Shape" fill="#00A08C"/>
          <polygon id="Shape" fill="#F01446" points="27.535 31.9256917 28.915 47.3263241 32.75 47.3263241 31.37 31.7750988"/>
        </g>
      </g>
    </g>
  </g>
</svg>