<svg width="230px" height="145px" viewBox="0 0 230 145" version="1.1" xml:space="preserve" xmlns="http://www.w3.org/2000/svg" xmlns:xlink="http://www.w3.org/1999/xlink">
  <!-- Generator: Sketch 48.2 (47327) - http://www.bohemiancoding.com/sketch -->
  <defs/>
  <g>
    <title>pterosaur-d</title>
    <desc>Created with Sketch.</desc>
    <g id="dinosaurs" stroke="none" stroke-width="1" fill="none" fill-rule="evenodd">
      <g id="pterosaur-d" fill-rule="nonzero">
        <g id="scratch_dinos01d" transform="translate(2.000000, 3.000000)">
          <path d="M107.131194,80.589 C106.90939,80.655 91.4071088,95.409 89.1890716,98.775 C88.5236605,99.138 85.6911671,98.388 85.0107692,98.109 C85.0107692,98.04 84.9837931,97.971 84.965809,97.875 C85.4753581,97.665 86.0088859,97.908 86.5364191,97.785 C87.2827586,95.781 94.0897347,74.385 100.593979,72.768 C100.587984,72.78 107.131194,80.589 107.131194,80.589 Z" id="Shape" fill="#C8C8BE"/>
          <path d="M87.6184615,97.89 C87.6184615,97.89 84.9448276,96.621 84.7080371,96.474 C84.7080371,96.402 84.7080371,96.333 84.7080371,96.237 C85.1756233,96.129 87.1928382,96.57 87.6544297,96.609 C87.6645314,97.0363351 87.6525259,97.4639072 87.6184615,97.89 Z" id="Shape" fill="#C8C8BE"/>
          <path d="M88.3648011,96.804 C88.3648011,96.804 85.6971618,95.52 85.4633687,95.373 C85.4633687,95.301 85.4633687,95.232 85.4633687,95.136 C85.9339523,95.031 88.0650663,95.781 88.5236605,95.823 C88.5070566,96.1548674 88.4537786,96.4838732 88.3648011,96.804 Z" id="Shape" fill="#C8C8BE"/>
          <path d="M119.435305,80.589 C119.657109,80.655 135.156393,95.409 137.377427,98.775 C138.039841,99.138 140.872334,98.388 141.552732,98.109 C141.567719,98.04 141.579708,97.971 141.60069,97.875 C141.091141,97.665 140.554615,97.908 140.027082,97.785 C139.280743,95.781 132.473767,74.385 125.969523,72.768 C125.975517,72.78 119.435305,80.589 119.435305,80.589 Z" id="Shape" fill="#C8C8BE"/>
          <path d="M138.405517,98.283 C138.405517,98.283 141.10313,97.053 141.336923,96.909 C141.336923,96.84 141.336923,96.771 141.336923,96.675 C140.869337,96.561 138.84313,96.975 138.384536,97.002 C138.368052,97.429062 138.375057,97.8567083 138.405517,98.283 Z" id="Shape" fill="#C8C8BE"/>
          <path d="M138.204695,97.287 C138.204695,97.287 140.812387,95.883 141.040186,95.724 C141.040186,95.655 141.040186,95.586 141.040186,95.487 C140.575597,95.4 138.477454,96.249 138.009867,96.3 C138.039687,96.6349797 138.104997,96.9658382 138.204695,97.287 Z" id="Shape" fill="#C8C8BE"/>
          <path d="M181.938992,22.749 L184.33687,37.671 C184.771485,37.5 186.108302,36.963 186.548912,36.798 C189.845995,35.553 204.140345,33.234 213.438117,29.196 C221.746764,25.596 225.298621,20.172 225.883103,19.896 C225.905598,19.8386922 225.916794,19.7775675 225.916074,19.716 C225.868117,19.554 211.094191,21.327 206.87992,21.606 C195.262202,22.389 185.101194,22.653 181.938992,22.749 Z" id="Shape" fill="#64645A"/>
          <path d="M140.875332,41.874 C139.106897,42.861 137.332467,43.851 135.629973,44.79 L119.423316,50.553 L128.736074,84.546 C130.234748,84.882 137.305491,74.76 137.976897,73.653 C138.648302,72.546 144.247347,65.853 150.931432,59.808 C150.095172,57.951 141.693607,44.13 140.875332,41.874 Z" id="Shape" fill="#3C3C32"/>
          <path d="M184.33687,22.8 C183.284801,22.836 182.57443,22.866 182.292679,22.866 C182.847188,23.865 157.972202,31.74 157.228859,32.736 C156.695332,32.937 138.081804,43.869 138.081804,43.869 C138.081804,43.869 150.307984,58.428 150.940424,59.811 C151.689761,59.136 152.693873,58.251 153.464191,57.603 C159.368966,52.632 169.79374,43.632 184.33687,37.674 L184.33687,22.8 Z" id="Shape" fill="#828278"/>
          <path d="M190.838117,23.139 C189.73809,22.806 188.497188,22.131 187.37618,21.867 C185.299019,21.381 183.137931,21.492 181.024801,21.768 C177.155225,22.272 173.447507,23.568 169.862679,25.095 C162.243422,28.329 139.730345,42.57 132.569682,44.769 C127.29435,46.386 121.638355,46.62 118.910769,46.647 L118.910769,51.873 C120.948966,52.272 131.607533,49.878 133.124191,49.344 C142.191167,46.146 148.51557,40.443 152.969629,37.56 C156.986717,34.9781604 161.182657,32.686347 165.525517,30.702 C168.28008,29.43 174.409655,26.406 179.496154,25.365 C181.953979,24.861 185.436897,25.629 185.76061,25.74 C186.677798,26.04 187.600981,26.976 188.512175,26.826 C189.423369,26.676 186.363077,24.954 186.764721,24.459 C186.863634,24.336 187.753846,24.408 188.200451,24.648 C189.540265,25.368 191.425597,27.222 192.297825,26.865 C193.053156,26.565 189.423369,24.225 189.917931,23.865 C190.412493,23.505 192.83435,25.509 193.5687,25.161 C194.30305,24.813 191.581459,23.367 190.838117,23.139 Z" id="Shape" fill="#C8C8BE"/>
          <path d="M48.8567639,23.133 C45.7185411,23.022 30.4290716,22.332 19.7525199,23.4 C14.1115119,23.964 0.191830239,21.3 0,21.9 C0,21.957 9.42665782,30.66 16.1107427,31.248 C24.8989655,32.022 33.7771088,34.44 40.0295756,36.798 C41.171565,37.227 42.586313,37.806 43.6803448,38.274 L48.8567639,23.133 Z" id="Shape" fill="#64645A"/>
          <path d="M107.149178,50.553 L90.9425199,44.79 C87.9451724,43.134 76.0127321,36.87 76.0127321,36.87 C76.0127321,36.87 74.2412997,52.275 71.5736605,56.301 L73.1172944,57.6 C78.9920955,62.547 93.8529443,81.201 93.8529443,81.201 L108.018408,70.146 L107.149178,50.553 Z" id="Shape" fill="#3C3C32"/>
          <path d="M69.3496286,32.733 C68.6062865,31.737 43.7312997,23.862 44.2888064,22.863 C44.1659151,22.863 43.9590981,22.863 43.6893369,22.863 L43.6893369,38.289 C56.3171618,43.734 65.7078515,51.375 71.5826525,56.316 C75.1959238,50.9126066 78.4915962,45.3031024 81.4529178,39.516 C75.140504,35.94 69.7932361,32.898 69.3496286,32.733 Z" id="Shape" fill="#828278"/>
          <path d="M107.532838,46.833 C103.849098,46.623 98.3699469,46.107 94.0088064,44.769 C86.8511406,42.57 64.3350663,28.329 56.715809,25.095 C53.118992,23.574 49.4232626,22.272 45.5566844,21.768 C43.4435544,21.492 41.2824668,21.381 39.205305,21.867 C38.0842971,22.131 36.8433952,22.806 35.7433687,23.139 C34.9970292,23.367 32.278435,24.819 33.0097878,25.167 C33.7411406,25.515 36.1659947,23.517 36.660557,23.871 C37.1551194,24.225 33.5283289,26.553 34.2836605,26.871 C35.1528912,27.228 37.0382228,25.371 38.3810345,24.654 C38.8276393,24.414 39.7148541,24.354 39.8167639,24.465 C40.2154111,24.96 37.1551194,26.682 38.066313,26.832 C38.9775066,26.982 39.903687,26.061 40.817878,25.746 C41.1445889,25.635 44.6245093,24.867 47.0823342,25.371 C52.1778249,26.412 58.3014058,29.436 61.0559682,30.708 C65.3988288,32.692347 69.5947684,34.9841604 73.6118568,37.566 C78.0629178,40.449 82.2352255,43.806 87.0070027,46.179 C88.071061,46.707 93.0016976,49.479 98.1751194,50.877 C101.233033,51.6807006 104.37257,52.1326224 107.532838,52.224 L107.532838,46.833 Z" id="Shape" fill="#C8C8BE"/>
          <path d="M110.626101,22.548 L106.792493,17.43 C106.792493,17.43 100.195332,30 97.4137931,30.3 L108.503979,29.7 L110.626101,22.548 Z" id="Shape" fill="#000000"/>
          <path d="M101.879841,21.774 C99.9435544,20.967 105.137958,25.209 107.874536,26.421 C110.611114,27.633 103.816127,22.581 101.879841,21.774 Z" id="Shape" fill="#F01446"/>
          <path d="M109.145411,28.641 C104.616419,28.419 104.766286,28.398 81.9834483,28.641 C81.9834483,28.641 82.3641114,29.517 85.2955172,30.141 C91.6229178,31.485 103.22565,33.114 109.633979,33.096 L109.145411,28.641 Z" id="Shape" fill="#64645A"/>
          <path d="M125.552891,36.732 C121.476499,31.848 98.4898408,2.343 95.2407162,0 C94.9285815,0.109410509 94.6715144,0.33656184 94.5243501,0.633 C94.4793899,0.933 94.5243501,2.109 94.6772149,2.355 C96.8832626,6 109.403183,20.853 108.803714,22.839 C108.438037,24.075 107.30504,26.739 105.599549,28.467 C105.078011,29.001 109.607003,37.23 109.436154,37.92 C109.307268,38.448 93.8499469,81.201 93.8499469,81.201 C93.8499469,81.201 100.144377,87.702 101.256393,88.44 C105.344985,91.2064251 110.197922,92.6187895 115.131114,92.478 C120.061751,92.394 126.011485,89.154 129.629284,85.68 C131.376737,84.003 132.893395,80.652 132.893395,80.652 C132.893395,80.652 122.534562,49.953 120.574297,40.248 C120.397454,39.372 119.675093,37.23 121.626366,37.683 C124.024244,38.241 125.891592,40.578 126.781804,41.361 C128.547241,42.909 133.585782,46.404 134.122308,46.233 C134.125305,46.233 129.632281,41.616 125.552891,36.732 Z" id="Shape" fill="#828278"/>
          <path d="M115.11313,27.84 L111.156631,27.807 L111.036737,28.14 C111.036737,28.14 113.098912,30.273 114.034085,30.957 C114.33382,30.957 114.495676,30.771 114.438727,30.609 C114.381777,30.447 111.989894,28.29 111.989894,28.29 L115.095146,28.29 L115.11313,27.84 Z" id="Shape" fill="#000000"/>
          <path d="M97.2189655,3.369 C97.4760854,3.41860629 97.6873611,3.60149291 97.7734748,3.849 C97.7075332,4.338 97.4497613,4.449 96.8922546,4.209 C96.7634148,3.88657579 96.9062345,3.51937482 97.2189655,3.369 Z" id="Shape" fill="#000000"/>
          <path d="M95.774244,1.593 C96.0309253,1.6414786 96.2422876,1.82329669 96.3287533,2.07 C96.265809,2.562 96.0050398,2.67 95.4475332,2.433 C95.3186933,2.11057579 95.461513,1.74337482 95.774244,1.593 Z" id="Shape" fill="#000000"/>
        </g>
      </g>
    </g>
  </g>
</svg>