<svg width="165px" height="137px" viewBox="0 0 165 137" version="1.1" xml:space="preserve" xmlns="http://www.w3.org/2000/svg" xmlns:xlink="http://www.w3.org/1999/xlink">
  <!-- Generator: Sketch 48.2 (47327) - http://www.bohemiancoding.com/sketch -->
  <defs/>
  <g>
    <title>max-d</title>
    <desc>Created with Sketch.</desc>
    <g id="basketball" stroke="none" stroke-width="1" fill="none" fill-rule="evenodd">
      <g id="max-d">
        <g id="scratch_bball_player04d" transform="translate(48.000000, 9.000000)">
          <path d="M24.5534591,5.94617162 C18.1454088,14.5040264 11.7011321,30.2140594 31.4807547,38.2927063 C54.3275472,47.6172937 54.5449057,11.5369307 46.003522,3.97343234 C41.8455346,0.291518152 38.8950943,-0.139768977 34.3949686,0.0958415842 C30.1645283,0.311485149 25.7006289,4.41270627 24.5534591,5.94617162 Z" id="Shape" fill="#BE0A3C" fill-rule="nonzero"/>
          <path d="M36.0050314,2.89920792 C27.4193711,2.89920792 26.5740881,12.8188119 26.8759748,14.0567657 C27.7293082,17.5350165 29.0093082,21.6961386 32.6601258,23.2016502 C35.6991195,24.4555776 39.7685535,23.5570627 41.9703145,21.1450495 C43.930566,18.9966007 46.2289308,12.7589109 45.4762264,9.90363036 C45.6332075,9.35653465 44.5866667,2.89920792 36.0050314,2.89920792 Z" id="Shape" fill="#A0640A" fill-rule="nonzero"/>
          <path d="M43.3710692,18.189934 C47.1184906,17.9543234 48.5594969,16.1612871 48.358239,13.0264686 C48.0724528,8.56983498 43.7735849,12.379538 43.7735849,12.379538 C43.7735849,12.379538 42.9685535,17.3273597 43.3710692,18.189934 Z" id="Shape" fill="#A0640A" fill-rule="nonzero"/>
          <path d="M28.3733333,18.189934 C24.6299371,17.9543234 23.1849057,16.1612871 23.3861635,13.0264686 C23.6719497,8.56983498 27.9708176,12.3635644 27.9708176,12.3635644 C27.9708176,12.3635644 28.7758491,17.3273597 28.3733333,18.189934 Z" id="Shape" fill="#A0640A" fill-rule="nonzero"/>
          <path d="M36.7778616,16.979934 C36.8673729,16.9478634 36.9525465,16.9049419 37.0314465,16.8521452 C37.0601076,16.7205886 37.0789428,16.5871127 37.0877987,16.4528053 C37.1803774,15.1070297 37.196478,14.0567657 36.3471698,13.090363 C35.3449057,12.9466007 35.0913208,15.8537954 35.328805,16.9839274 C35.8000676,17.1348386 36.3074514,17.1334404 36.7778616,16.979934 Z" id="Shape" fill="#824600" fill-rule="nonzero"/>
          <path d="M31.7987421,17.970297 C32.1650314,17.3393399 35.6186164,18.2178878 36.1257862,18.8847855 C36.632956,19.5516832 35.2241509,19.7194059 34.3748428,19.4877888 C33.0062893,19.0924422 31.4445283,18.5852805 31.7987421,17.970297 Z" id="Shape" fill="#000000" fill-rule="nonzero"/>
          <path d="M41.1854088,12.9266337 C42.1675472,12.4154785 41.7811321,14.3642574 41.5879245,14.679736 C40.6983648,14.619835 40.8513208,13.5016832 41.1854088,12.9266337 Z" id="Shape" fill="#000000" fill-rule="nonzero"/>
          <path d="M30.3134591,12.7509241 C31.2955975,12.239769 30.9091824,14.1885479 30.7159748,14.5040264 C29.8223899,14.4441254 29.9753459,13.3259736 30.3134591,12.7509241 Z" id="Shape" fill="#000000" fill-rule="nonzero"/>
          <path d="M36.0613836,5.04765677 L45.9994969,12.7389439 C45.9994969,12.7389439 47.0701887,6.74884488 42.8196226,4.02135314 C38.5690566,1.29386139 36.0613836,5.04765677 36.0613836,5.04765677 Z" id="Shape" fill="#A0001E" fill-rule="nonzero"/>
          <path d="M26.0186164,13.9409571 L42.956478,3.27059406 C42.956478,3.27059406 34.2701887,-2.66759076 27.930566,3.32650165 C22.9433962,8.06267327 26.0186164,13.9409571 26.0186164,13.9409571 Z" id="Shape" fill="#BE0A3C" fill-rule="nonzero"/>
          <path d="M63.6296855,49.490198 C63.1426415,46.5270957 54.2510692,32.3984488 52.2626415,30.6812871 C48.3703145,27.3148515 47.0983648,27.7740924 47.0983648,27.7740924 L52.7335849,51.3710891 L61.7700629,56.3069307 C61.7700629,56.3069307 64.6762264,55.8357096 63.6296855,49.490198 Z" id="Shape" fill="#A0640A" fill-rule="nonzero"/>
          <path d="M12.9610063,24.6512541 C12.9610063,24.6512541 4.56050314,24.0522442 4.69333333,33.7641914 C4.82616352,43.4761386 29.4158491,40.1536304 29.4158491,40.1536304 L31.0540881,30.409736 L12.9610063,24.6512541 Z" id="Shape" fill="#A0640A" fill-rule="nonzero"/>
          <path d="M31.7987421,48.3920132 L12.1438994,61.1708911 C12.1438994,61.1708911 11.3388679,64.1140264 12.4377358,66.530033 C13.4198742,68.670495 16.1610063,70.3756766 18.6284277,69.6329043 C26.9685535,67.1290429 29.2749686,76.1661056 42.9886792,69.960363 C47.8188679,67.7679868 49.9038994,63.1036964 56.1589937,64.6251815 C58.8598742,65.2840924 61.1501887,64.289736 62.2369811,63.0278218 C63.1071285,61.9393174 63.5376065,60.5683854 63.4445283,59.1821782 L31.7987421,48.3920132 Z" id="Shape" fill="#005A5A" fill-rule="nonzero"/>
          <rect id="Rectangle-path" fill="#000000" fill-rule="nonzero" x="23.0198742" y="52.3175248" width="25.9743396" height="11.9841914"/>
          <polygon id="Shape" fill="#A0640A" fill-rule="nonzero" points="43.9064151 94.200297 50.8256604 87.5512871 50.789434 62.0134983 39.732327 62.4687459 40.6822642 87.9266667"/>
          <polygon id="Shape" fill="#000000" fill-rule="nonzero" points="52.3109434 67.3047525 52.4840252 56.3189109 38.2148428 56.6863036 38.4724528 67.3047525"/>
          <polygon id="Shape" fill="#FAF0E6" fill-rule="nonzero" points="40.7788679 92.0518482 41.3745912 108.648416 51.0148428 109.48703 50.918239 92.1357096 45.7016352 90.1749505"/>
          <polygon id="Shape" fill="#F0E6D2" fill-rule="nonzero" points="50.918239 92.1357096 50.8256604 87.5512871 40.5574843 87.8308251 40.7667925 92.1357096"/>
          <polygon id="Shape" fill="#00A08C" fill-rule="nonzero" points="57.1451572 119.77802 50.4875472 118.919439 41.4510692 119.542409 41.5194969 120.736436 57.6080503 120.972046"/>
          <path d="M55.9496855,118.488152 C54.7474056,118.423782 53.5506936,118.281043 52.3672956,118.060858 L51.1597484,105.533564 L41.0566038,105.533564 L41.4591195,119.542409 L57.1572327,119.77802 C56.9983659,119.439114 56.8638584,119.089485 56.754717,118.731749 C56.4981728,118.616215 56.2275523,118.534327 55.9496855,118.488152 Z" id="Shape" fill="#000000" fill-rule="nonzero"/>
          <polygon id="Shape" fill="#00A08C" fill-rule="nonzero" points="43.5763522 112.422178 48.0322013 112.434158 47.6457862 107.686007 43.3952201 107.602145"/>
          <polygon id="Shape" fill="#005A5A" fill-rule="nonzero" points="52.5363522 108.520627 50.4110692 108.520627 50.4110692 107.741914 52.3954717 107.741914"/>
          <polygon id="Shape" fill="#00A08C" fill-rule="nonzero" points="52.8825157 110.341617 50.4110692 110.341617 50.4110692 109.558911 52.7416352 109.558911"/>
          <polygon id="Shape" fill="#005A5A" fill-rule="nonzero" points="53.2327044 112.158614 50.4110692 112.158614 50.4110692 111.375908 53.0918239 111.375908"/>
          <polygon id="Shape" fill="#00A08C" fill-rule="nonzero" points="53.5828931 113.975611 50.4110692 113.975611 50.4110692 113.192904 53.4420126 113.192904"/>
          <polygon id="Shape" fill="#005A5A" fill-rule="nonzero" points="53.9330818 115.792607 50.4110692 115.792607 50.4110692 115.013894 53.7922013 115.013894"/>
          <polygon id="Shape" fill="#A0640A" fill-rule="nonzero" points="19.0309434 89.54 14.2893082 87.5512871 19.0832704 67.3766337 29.5245283 67.5283828 24.4327044 87.9266667"/>
          <polygon id="Shape" fill="#FAF0E6" fill-rule="nonzero" points="13.2145912 91.3490099 8.06238994 109.48703 17.7066667 108.648416 23.4022642 91.3490099 18.918239 90.0471617"/>
          <polygon id="Shape" fill="#000000" fill-rule="nonzero" points="31.7584906 67.4445215 35.0752201 55.899604 18.6485535 56.5105941 15.9396226 67.4445215"/>
          <polygon id="Shape" fill="#00A08C" fill-rule="nonzero" points="0.326037736 119.77802 6.9836478 118.919439 16.0201258 119.542409 15.7826415 120.840264 0.0120754717 120.972046"/>
          <path d="M1.51748428,118.488152 C2.7184173,118.42362 3.91377973,118.280881 5.09584906,118.060858 L7.91345912,105.533564 L19.6427673,105.533564 L16.0201258,119.542409 L0.322012579,119.77802 C0.480694957,119.439036 0.615197422,119.08942 0.724528302,118.731749 C0.977581846,118.618083 1.24396617,118.536249 1.51748428,118.488152 Z" id="Shape" fill="#000000" fill-rule="nonzero"/>
          <polygon id="Shape" fill="#00A08C" fill-rule="nonzero" points="15.7101887 112.422178 10.521761 112.254455 11.1899371 107.686007 17.050566 107.602145"/>
          <polygon id="Shape" fill="#005A5A" fill-rule="nonzero" points="6.54490566 108.520627 9.62415094 108.520627 9.87773585 107.741914 6.68578616 107.741914"/>
          <polygon id="Shape" fill="#00A08C" fill-rule="nonzero" points="6.19471698 110.341617 9.27396226 110.341617 9.52754717 109.558911 6.33559748 109.558911"/>
          <polygon id="Shape" fill="#005A5A" fill-rule="nonzero" points="5.84855346 112.158614 8.92377358 112.158614 9.18138365 111.375908 5.98943396 111.375908"/>
          <polygon id="Shape" fill="#00A08C" fill-rule="nonzero" points="5.49836478 113.975611 8.57761006 113.975611 8.83119497 113.192904 5.63924528 113.192904"/>
          <polygon id="Shape" fill="#005A5A" fill-rule="nonzero" points="5.1481761 115.792607 8.22742138 115.792607 8.48100629 115.013894 5.2890566 115.013894"/>
          <polygon id="Shape" fill="#F0E6D2" fill-rule="nonzero" points="23.4022642 91.3490099 24.5615094 87.8308251 14.2893082 87.5512871 13.2145912 91.3490099"/>
          <polygon id="Shape" fill="#A0640A" fill-rule="nonzero" points="27.5119497 27.8539604 26.9927044 31.5278878 29.3675472 36.5955116 44.5786164 34.5908251 42.4654088 27.8539604"/>
          <path d="M47.2794969,27.3188449 L40.9881761,27.3188449 C41.2176101,29.5870957 40.7627673,33.0933003 35.9044025,33.5685149 C30.1242767,34.1315842 29.7861635,29.3035644 29.8666667,27.3188449 L24.090566,27.3188449 L12.1559748,61.1589109 C12.1559748,61.1589109 63.3479245,59.1262706 63.4566038,59.1622112 L47.2794969,27.3188449 Z" id="Shape" fill="#00A08C" fill-rule="nonzero"/>
          <path d="M50.0930818,35.309637 C45.1542138,26.4882178 38.8226415,27.0113531 36.3431447,27.0113531 C35.5662893,27.0113531 31.130566,27.4106931 28.6631447,28.8762706 C26.650566,30.0742904 22.4040252,34.0317492 21.5386164,38.0610891 C20.5202516,42.7932673 23.0722013,47.5893399 23.0722013,47.5893399 C25.8898113,53.9228713 32.8533333,55.7518482 39.2412579,54.4579868 C41.8875908,53.9365086 44.3908842,52.8594898 46.5831447,51.2992079 C47.1225157,50.899868 49.1431447,49.5660726 50.3023899,46.0159406 C51.2241509,43.2005941 52.2827673,39.2151815 50.0930818,35.309637 Z" id="Shape" fill="#E6781E" fill-rule="nonzero"/>
          <path d="M36.3672956,26.6958746 C36.3672956,36.0564026 36.3992956,45.7723432 36.5712956,55.1328713" id="Shape" stroke="#824600" stroke-width="0.5" stroke-linecap="round"/>
          <path d="M45.5325786,52.1418152 C40.267673,48.3880198 38.8950943,40.6128713 40.5373585,34.7106271 C41.1664435,32.3099345 42.5237807,30.1589543 44.4256604,28.5488119" id="Shape" stroke="#824600" stroke-width="0.5" stroke-linecap="round"/>
          <path d="M26.7471698,52.3774257 C32.5232704,49.0189769 34.072956,41.0281848 32.6118239,34.9861716 C32.0297773,32.5298441 30.7762892,30.2803131 28.9891824,28.4849175" id="Shape" stroke="#824600" stroke-width="0.5" stroke-linecap="round"/>
          <path d="M48.3018868,32.3066007 C48.0361011,31.6977773 47.580377,31.1896576 47.001761,30.8569967 C45.8264151,30.1821122 43.9788679,29.7747855 43.9466667,28.9681188 C43.9265409,28.5168647 45.5567296,29.7268647 45.5567296,29.7268647 C45.5567296,29.7268647 45.311195,26.0689109 40.3602516,25.7893729 C33.3524528,25.390033 22.9474214,24.9906931 12.9891824,24.6512541 L12.9891824,34.9023102 C17.8837736,34.9023102 23.0238994,34.850396 28.0674214,34.790495 C40.3522013,34.6427393 49.8032704,34.6666997 49.8032704,34.6666997 C49.182029,34.036951 48.4212242,33.55973 47.5813836,33.2730033 C46.1886792,32.749868 43.9587421,32.5062706 44.2566038,32.1708251 C44.6792453,31.5957756 48.3018868,32.3066007 48.3018868,32.3066007 Z" id="Shape" fill="#A0640A" fill-rule="nonzero"/>
          <path d="M24.8955975,23.960396 C24.2877987,25.41 23.9899371,35.0061386 24.96,36.2440924 C25.9300629,37.4820462 29.6130818,37.1466007 31.6538365,36.4038284 C31.8430189,35.2537294 32.2737107,25.9770627 31.6538365,24.3158086 C31.0339623,22.6545545 25.5074214,22.5067987 24.8955975,23.960396 Z" id="Shape" fill="#005A5A" fill-rule="nonzero"/>
          <polygon id="Shape" fill="#00A08C" fill-rule="nonzero" points="26.7552201 37.3941914 27.0128302 22.7144554 29.6855346 22.850231 29.6533333 37.3063366"/>
          <path d="M32.0442767,44.8977888 C30.6596226,44.9656766 33.3685535,47.2658746 35.4415094,48.0445875 C36.9388679,48.6076568 30.8850314,52.8366667 33.8314465,53.8150495 C36.7778616,54.7934323 37.8566038,53.3637954 39.1607547,51.1754125 C41.2538365,47.6692079 38.834717,48.2881848 37.3816352,46.9823432 C35.9285535,45.6765017 33.4289308,44.829901 32.0442767,44.8977888 Z" id="Shape" fill="#824600" fill-rule="nonzero"/>
          <path d="M61.7700629,46.1037954 C57.1854088,46.2315842 52.4115723,46.3793399 47.7222642,46.5470627 C35.4455346,46.9863366 27.1939623,46.6468977 27.2784906,46.8505611 C27.7896855,48.0885149 32.1730818,48.8472607 31.6135849,49.5540924 C31.154717,50.1371287 24.9720755,48.8472607 25.5959748,49.7258086 C26.2198742,50.6043564 31.8671698,51.2872277 31.9637736,52.7488119 C32.0603774,54.210396 25.9864151,52.3175248 29.5486792,54.0187129 C33.1109434,55.719901 45.3554717,56.0553465 62.0155975,56.2390429 C62.0155975,56.2390429 63.7987421,54.7614851 63.3036478,51.4868977 C63.047412,49.6304763 62.5312366,47.8186267 61.7700629,46.1037954 Z" id="Shape" fill="#A0640A" fill-rule="nonzero"/>
          <path d="M51.1194969,57.3052805 C51.6950943,55.839703 51.7594969,46.239571 50.7612579,45.0255776 C49.7630189,43.8115842 46.0840252,44.2268977 44.0593711,45.0255776 C43.9023899,46.17967 43.6971069,55.4643234 44.3451572,57.109604 C44.9932075,58.7548845 50.5519497,58.7668647 51.1194969,57.3052805 Z" id="Shape" fill="#005A5A" fill-rule="nonzero"/>
          <polygon id="Shape" fill="#00A08C" fill-rule="nonzero" points="48.9459119 43.9154125 49.0425157 58.5951485 46.3657862 58.5232673 46.0477987 44.0711551"/>
        </g>
      </g>
    </g>
  </g>
</svg>