<svg version="1.1" width="150" height="145" viewBox="-1 -1 150 145" xmlns="http://www.w3.org/2000/svg" xmlns:xlink="http://www.w3.org/1999/xlink">
  <!-- Exported by Scratch - http://scratch.mit.edu/ -->
  <g id="ID0.26007358683273196">
    <g id="dinosaurs">
      <g id="tyrannosaurus-b">
        <g id="scratch_dinos04b">
          <path id="Shape" fill="#A0AA1E" stroke="none" stroke-width="1" d="M 81.348 111.681 L 67.893 113.590 C 67.826 117.848 68.515 123.844 70.939 127.284 C 73.275 130.649 76.701 133.105 80.638 134.235 C 82.664 134.796 84.760 134.572 86.827 134.650 C 88.728 134.725 90.288 134.235 92.114 134.451 C 92.218 135.169 92.239 138.979 93.443 138.335 C 93.048 135.563 92.592 129.766 92.592 129.766 C 92.592 129.766 86.071 128.903 82.137 125.898 C 78.360 123.031 78.609 115.860 81.348 111.681 Z " transform="matrix(-1, 0, 0, 1, 149.05, 0)"/>
          <path id="Shape" fill="#828C00" stroke="none" stroke-width="1" d="M 56.624 100.041 L 41.268 100.157 C 44.982 118.312 48.232 138.705 48.601 142.485 C 47.460 142.900 46.368 142.552 45.314 142.647 C 45.281 143.025 45.252 143.324 45.219 143.714 C 46.721 143.618 53.146 143.834 54.669 143.415 C 54.657 142.141 56.624 100.041 56.624 100.041 Z " transform="matrix(-1, 0, 0, 1, 149.05, 0)"/>
          <path id="Shape" fill="#828C00" stroke="none" stroke-width="1" d="M 127.003 113.150 C 119.221 117.570 106.408 118.507 106.408 118.507 C 106.408 118.507 92.654 79.739 95.173 79.702 C 96.800 79.677 102.768 84.860 114.186 87.433 C 120.482 88.853 132.938 88.736 134.664 88.707 C 137.155 88.670 139.645 88.624 142.110 88.620 C 143.770 88.620 147.344 87.948 148.830 88.757 C 148.436 91.102 141.197 105.095 127.003 113.150 Z " transform="matrix(-1, 0, 0, 1, 149.05, 0)"/>
          <path id="Shape" fill="#A0AA1E" stroke="none" stroke-width="1" d="M 106.890 111.382 C 106.761 101.979 107.226 89.043 99.834 81.918 C 98.477 80.611 96.609 79.843 95.161 78.760 C 92.953 77.100 90.346 75.888 88.105 74.241 C 87.379 73.714 85.943 72.498 85.943 72.498 L 83.203 71.041 L 83.315 68.498 C 83.315 68.498 81.435 63.364 81.128 61.675 C 79.111 50.649 81.236 39.266 79.173 28.219 C 78.949 27.007 78.675 25.696 78.393 24.463 L 47.842 20.608 L 16.411 22.683 C 12.754 25.405 16.855 29.132 19.872 30.568 C 21.649 31.419 23.296 32.228 24.811 33.527 C 25.139 33.809 27.887 35.913 28.796 38.606 C 30.178 42.719 29.808 48.221 29.904 50.890 C 30.082 55.915 29.800 60.990 29.609 66.012 C 29.231 75.951 28.825 85.516 30.327 95.393 C 31.012 99.912 31.751 104.203 34.519 107.959 C 37.424 111.897 40.873 115.146 45.572 116.839 C 50.473 118.603 62.588 119.267 75.313 119.271 C 85.138 119.271 96.539 118.806 97.792 118.678 C 100.780 118.370 103.910 118.868 106.865 118.495 C 107.297 116.296 106.923 113.631 106.890 111.382 Z " transform="matrix(-1, 0, 0, 1, 149.05, 0)"/>
          <path id="Shape" fill="#FFFFFF" stroke="none" stroke-width="1" d="M 33.249 21.799 C 33.730 24.136 33.722 28.763 30.672 29.393 L 29.551 28.866 C 28.132 26.742 27.891 24.443 27.816 21.965 C 29.651 21.708 31.377 21.932 33.249 21.799 Z " transform="matrix(-1, 0, 0, 1, 149.05, 0)"/>
          <path id="Shape" fill="#FFFFFF" stroke="none" stroke-width="1" d="M 22.558 20.919 L 26.085 20.919 C 28.767 29.879 20.657 30.439 22.558 20.919 Z " transform="matrix(-1, 0, 0, 1, 149.05, 0)"/>
          <path id="Shape" fill="#DCD2B4" stroke="none" stroke-width="1" d="M 35.017 19.558 L 38.545 19.558 C 41.226 28.522 33.116 29.078 35.017 19.558 Z " transform="matrix(-1, 0, 0, 1, 149.05, 0)"/>
          <path id="Shape" fill="#FFFFFF" stroke="none" stroke-width="1" d="M 40.172 18.986 L 43.704 18.986 C 46.385 27.945 38.275 28.505 40.172 18.986 Z " transform="matrix(-1, 0, 0, 1, 149.05, 0)"/>
          <path id="Shape" fill="#FFFFFF" stroke="none" stroke-width="1" d="M 45.240 18.127 L 48.772 18.127 C 51.465 27.086 43.359 27.646 45.240 18.127 Z " transform="matrix(-1, 0, 0, 1, 149.05, 0)"/>
          <path id="Shape" fill="#FAF0E6" stroke="none" stroke-width="1" d="M 17.399 20.131 L 20.931 20.131 C 23.612 29.095 15.502 29.651 17.399 20.131 Z " transform="matrix(-1, 0, 0, 1, 149.05, 0)"/>
          <path id="Shape" fill="#828C00" stroke="none" stroke-width="1" d="M 52.179 0.278 C 49.527 0.149 46.867 0.207 44.210 0.120 C 38.250 -0.079 20.358 0.245 17.378 0.867 C 14.817 1.396 12.373 2.380 10.160 3.772 C 5.943 6.407 3.428 11.881 3.167 16.741 C 3.046 19.010 3.611 21.637 5.715 22.882 C 8.048 24.260 11.526 23.712 14.095 23.783 C 20.735 23.924 27.376 24.011 34.017 23.920 L 78.368 24.472 C 77.514 20.531 76.252 16.690 74.604 13.010 C 72.601 8.546 69.017 4.981 64.543 3 C 61.011 1.369 53.233 0.332 52.179 0.278 Z " transform="matrix(-1, 0, 0, 1, 149.05, 0)"/>
          <path id="Shape" fill="#A0AA1E" stroke="none" stroke-width="1" d="M 19.312 48.968 C 19.905 48.968 19.611 46.014 19.988 46.014 C 20.366 46.014 20.200 48.885 20.877 48.840 C 21.553 48.794 21.130 46.101 21.761 46.101 C 22.392 46.101 21.798 51.782 21.823 53.417 C 21.860 55.629 21.765 57.849 21.860 60.057 C 21.947 62.032 22.242 63.991 23.255 65.721 C 23.844 66.730 27.526 69.303 31.452 69.622 C 35.445 69.950 39.690 68.020 40.753 68.211 C 40.689 69.564 40.705 70.919 40.799 72.270 L 40.471 72.838 C 39.143 72.921 35.623 74.432 30.705 74.033 C 27.285 73.760 23.271 71.913 22.491 71.394 C 19.814 69.618 18.664 66.564 18.494 63.671 C 18.332 60.936 18.266 58.181 18.191 55.438 C 18.125 52.998 17.581 46.686 18.191 46.516 C 18.801 46.346 18.723 48.968 19.312 48.968 Z " transform="matrix(-1, 0, 0, 1, 149.05, 0)"/>
          <path id="Shape" fill="#828C00" stroke="none" stroke-width="1" d="M 64.136 48.553 C 64.730 48.553 64.435 45.599 64.813 45.599 C 65.191 45.599 65.025 48.470 65.701 48.425 C 66.378 48.379 65.954 45.686 66.585 45.686 C 67.216 45.686 66.623 51.367 66.647 53.002 C 66.685 55.214 66.589 57.434 66.685 59.642 C 66.772 61.617 67.067 63.576 68.079 65.306 C 68.669 66.315 72.350 68.888 76.276 69.207 C 78.639 69.411 81.019 69.166 83.291 68.485 L 85.918 72.486 C 85.918 72.486 80.448 74.017 75.542 73.618 C 72.122 73.345 68.486 71.992 67.718 71.473 C 65.041 69.693 63.501 66.149 63.331 63.256 C 63.169 60.521 63.103 57.766 63.028 55.023 C 62.962 52.583 62.418 46.271 63.028 46.101 C 63.638 45.931 63.547 48.553 64.136 48.553 Z " transform="matrix(-1, 0, 0, 1, 149.05, 0)"/>
          <path id="Shape" fill="#645A1E" stroke="none" stroke-width="1" d="M 11.160 20.384 C 10.567 21.783 8.475 22.729 7.575 21.048 C 6.549 19.143 8.550 17.985 10.115 17.985 C 10.652 18.688 11.011 19.512 11.160 20.384 Z " transform="matrix(-1, 0, 0, 1, 149.05, 0)"/>
          <path id="Shape" fill="#645A1E" stroke="none" stroke-width="1" d="M 17.191 17.666 L 18.291 18.496 C 19.154 20.027 17.714 22.467 15.921 21.293 C 14.219 20.193 15.390 17.637 17.191 17.666 Z " transform="matrix(-1, 0, 0, 1, 149.05, 0)"/>
          <path id="Shape" fill="#000000" stroke="none" stroke-width="1" d="M 0.647 13.919 C 0.353 13.416 -0.017 12.055 0.809 11.873 C 1.175 12.102 1.382 12.515 1.348 12.945 C 1.314 13.374 1.044 13.750 0.647 13.919 Z " transform="matrix(-1, 0, 0, 1, 149.05, 0)"/>
          <path id="Shape" fill="#000000" stroke="none" stroke-width="1" d="M 44.181 14.296 C 42.936 15.956 41.737 13.333 43.069 12.773 C 43.787 12.989 44.131 13.450 44.181 14.296 Z " transform="matrix(-1, 0, 0, 1, 149.05, 0)"/>
        </g>
      </g>
    </g>
  </g>
</svg>