<svg width="226px" height="108px" viewBox="0 0 226 108" version="1.1" xml:space="preserve" xmlns="http://www.w3.org/2000/svg" xmlns:xlink="http://www.w3.org/1999/xlink">
  <defs/>
  <g>
    <title>owl-a</title>
    <desc>Created with Sketch.</desc>
    <g id="mountain" stroke="none" stroke-width="1" fill="none" fill-rule="evenodd">
      <g id="owl-a">
        <g id="Group-441" transform="translate(113.500000, 56.000000) scale(-1, 1) translate(-113.500000, -56.000000) translate(89.000000, 14.000000)">
          <path d="M47.9080989,82.0346625 C47.9080989,82.0346625 13.1031859,86.7370875 4.63364239,64.0276875 C-3.72884674,41.6070375 7.46871848,32.7886125 7.46871848,32.7886125 C7.46871848,32.7886125 33.8307185,26.4497625 37.9584359,31.3060125 C42.0861533,36.1622625 47.9080989,82.0346625 47.9080989,82.0346625" id="Fill-309" fill="#C7B4B0"/>
          <path d="M2.33128152,55.4339625 C2.33128152,55.4339625 9.10872717,41.6527125 6.6416837,33.6191625 C6.6416837,33.6191625 -0.788740217,41.3466375 2.33128152,55.4339625" id="Fill-311" fill="#A77E76"/>
          <path d="M47.3156783,82.036185 C47.3156783,82.036185 11.3550043,87.239985 3.69396087,61.33806 C-3.0046587,38.69271 8.79795,31.743285 8.79795,31.743285 C8.79795,31.743285 24.11045,26.624535 40.3108087,30.21186 C40.8881565,30.91221 47.9004826,34.54311 47.3156783,82.036185 Z" id="Stroke-313" stroke="#362F52" stroke-width="0.5"/>
          <path d="M9.4192913,64.2056625 C9.4192913,64.2056625 9.86508478,65.5123875 10.9132587,67.2811125 C11.1587913,67.7310375 11.480487,68.1867375 11.7957913,68.6818125 C12.1494435,69.1522125 12.48765,69.6719625 12.9004217,70.1633625 C13.1012152,70.4132625 13.3052043,70.6673625 13.5118565,70.9246125 C13.734487,71.1682125 13.9597804,71.4144375 14.1872043,71.6632875 C14.6255413,72.1751625 15.1464326,72.6250875 15.6353674,73.1028375 C16.1274978,73.5790125 16.6739543,73.9963875 17.182063,74.4400125 C17.715737,74.8531875 18.2648565,75.2301375 18.7836174,75.6112875 C19.3215522,75.9646125 19.8584217,76.2827625 20.3564109,76.6019625 C20.6030087,76.7662875 20.8538674,76.9075125 21.1041935,77.0303625 C21.3513239,77.1589875 21.5904652,77.2834125 21.819487,77.4031125 C22.2823239,77.6335875 22.6897696,77.8834875 23.0823022,78.0367875 C23.4689761,78.2058375 23.8055848,78.3523125 24.0830739,78.4735875 C24.636987,78.7208625 24.9538891,78.8620875 24.9538891,78.8620875 C24.9538891,78.8620875 24.6274,78.7450125 24.0559109,78.5402625 C23.7704326,78.4352625 23.424237,78.3082125 23.0269109,78.1617375 C22.621063,78.0320625 22.1987043,77.8073625 21.7257478,77.5879125 C21.4903348,77.4760875 21.2448022,77.3595375 20.9912804,77.2382625 C20.7334978,77.1232875 20.4751826,76.9904625 20.220063,76.8340125 C19.705563,76.5310875 19.1484543,76.2323625 18.6025304,75.8758875 C18.0725848,75.4963125 17.5112152,75.1209375 16.9658239,74.7082875 C16.4449326,74.2657125 15.8846283,73.8493875 15.3807804,73.3711125 C14.8897152,72.8797125 14.3688239,72.4171875 13.9299543,71.8932375 C13.7025304,71.6380875 13.4767043,71.3855625 13.2540739,71.1356625 C13.0479543,70.8726375 12.8450304,70.6127625 12.6447696,70.3565625 C12.2266717,69.8578125 11.9081717,69.3139125 11.5683674,68.8272375 C11.2679761,68.3148375 10.9617261,67.8439125 10.7300413,67.3803375 C10.610737,67.1509125 10.4962261,66.9309375 10.3875739,66.7219875 C10.2906391,66.5072625 10.1990304,66.3035625 10.1127478,66.1119375 C9.93911739,65.7297375 9.81395435,65.3858625 9.70476957,65.1055125 C9.49971522,64.5395625 9.4192913,64.2056625 9.4192913,64.2056625" id="Fill-315" fill="#362F52"/>
          <path d="M27.7386337,80.7321375 C27.7386337,80.7321375 27.8499489,81.7711125 27.8499489,83.6521875 L14.6678837,83.6521875 C14.6678837,83.6521875 17.1200141,80.6339625 21.2589163,79.4201625 C21.2589163,79.4201625 23.3669815,80.4150375 27.4946989,80.9179875" id="Fill-317" fill="#E09D73"/>
          <path d="M27.4593337,81.212775 C27.4593337,81.212775 27.8497359,81.77085 27.8497359,83.65245 L14.6676707,83.65245 C14.6676707,83.65245 16.9781272,80.784375 21.1399315,79.3842 C21.1399315,79.3842 24.4937685,80.590125 27.294225,81.177075" id="Stroke-319" stroke="#362F52" stroke-width="0.5"/>
          <path d="M33.0095957,83.6306625 L19.8275304,83.6306625 C19.8275304,83.6306625 22.4234652,81.0277125 25.5083348,79.8464625 C25.5083348,79.8464625 28.3711065,80.8964625 32.6543457,80.8964625 C32.6543457,80.8964625 33.0095957,81.7495875 33.0095957,83.6306625" id="Fill-321" fill="#E09D73"/>
          <path d="M33.0095957,83.6306625 L19.8275304,83.6306625 C19.8275304,83.6306625 22.4234652,81.0277125 25.5083348,79.8464625 C25.5083348,79.8464625 28.3711065,80.8964625 32.6543457,80.8964625 C32.6543457,80.8964625 33.0095957,81.7495875 33.0095957,83.6306625 Z" id="Stroke-323" stroke="#362F52" stroke-width="0.5"/>
          <path d="M8.34523261,8.5764525 C8.34523261,8.5764525 13.3815804,6.5095275 19.8873957,6.2444025 C27.0946565,5.9504025 37.0741457,9.3571275 38.3614609,11.3558025 C39.6487761,13.3544775 41.0122543,16.4976525 41.0122543,20.5112775 C41.0122543,24.5254275 39.9752652,26.6275275 39.9752652,28.1505525 C39.9752652,29.6741025 41.9544391,28.5710775 37.2605587,31.6885275 C33.93495,33.8972025 24.4449283,37.6493775 13.193037,37.6478025 C10.2210804,37.6472775 8.37931957,37.4378025 7.25391739,37.1369775 C7.25391739,37.1369775 7.06590652,34.6652775 6.98974348,34.1371275 C6.91677609,33.6347025 7.22995,33.4136775 6.90133043,33.0356775 C6.01293913,32.0166525 1.45647174,26.6249025 1.45647174,20.3128275 C1.45647174,14.0007525 4.20579783,10.2821775 8.34523261,8.5764525" id="Fill-325" fill="#A77E76"/>
          <path d="M6.80178587,32.88075 C5.15868804,31.36035 1.28609022,25.3995 1.45332935,21.15645 C1.63068804,16.6467 2.61494891,12.4299 5.68437283,10.12095 C8.75379674,7.812 14.2130359,6.237 20.6043402,6.237 C29.9388402,6.237 36.4760793,9.25575 38.3492641,11.35575 C40.2224489,13.45575 41.021362,17.611125 41.021362,21.636825 C41.021362,25.662 39.113025,27.587175 40.3556011,28.94325 C41.5981772,30.299325 29.1969163,37.649325 13.6841554,37.649325 C10.3164707,37.649325 7.17993804,37.553775 7.25024239,37.001475 C7.34451413,36.260175 6.80178587,32.88075 6.80178587,32.88075 Z" id="Stroke-327" stroke="#362F52" stroke-width="0.5"/>
          <path d="M37.9138565,0.5166 C37.9138565,0.5166 31.7009761,11.000325 21.1201717,11.14785 L37.9138565,0.5166 Z" id="Fill-329" fill="#4B3A42"/>
          <path d="M17.8437761,13.0809525 C17.7058304,13.1056275 38.3492109,0.0872025 38.3492109,0.0872025 C38.3492109,0.0872025 32.5347217,10.4559525 17.8437761,13.0809525 Z" id="Stroke-331" stroke="#362F52" stroke-width="0.5265"/>
          <path d="M9.78524674,11.0732475 L0.652072826,0.4419975 C0.652072826,0.4419975 4.03094239,10.9257225 9.78524674,11.0732475" id="Fill-333" fill="#4B3A42"/>
          <path d="M11.5674087,13.00635 C11.6425065,13.031025 0.415647826,0.0126 0.415647826,0.0126 C0.415647826,0.0126 3.57774565,10.38135 11.5674087,13.00635" id="Stroke-335" stroke="#362F52" stroke-width="0.5265"/>
          <path d="M13.3691707,20.28201 C13.3691707,14.670285 10.7018663,10.12116 7.41087717,10.12116 C4.12042065,10.12116 1.4531163,14.670285 1.4531163,20.28201 C1.4531163,25.89321 4.12042065,30.44286 7.41087717,30.44286 C10.7018663,30.44286 13.3691707,25.89321 13.3691707,20.28201" id="Fill-337" fill="#C4AFAD"/>
          <path d="M9.99562717,20.5114875 C9.99562717,18.1311375 8.8643663,16.2022875 7.46893152,16.2022875 C6.07296413,16.2022875 4.94170326,18.1311375 4.94170326,20.5114875 C4.94170326,22.8918375 6.07296413,24.8206875 7.46893152,24.8206875 C8.8643663,24.8206875 9.99562717,22.8918375 9.99562717,20.5114875" id="Fill-339" fill="#FCCF87"/>
          <path d="M5.91030543,20.62095 C5.91030543,19.1226 6.62240326,17.908275 7.500675,17.908275 C8.37947935,17.908275 9.09157717,19.1226 9.09157717,20.62095 C9.09157717,22.1193 8.37947935,23.333625 7.500675,23.333625 C6.62240326,23.333625 5.91030543,22.1193 5.91030543,20.62095" id="Fill-341" fill="#362F52"/>
          <path d="M9.99562717,20.424285 C9.99562717,18.04446 8.8643663,16.115085 7.46893152,16.115085 C6.07296413,16.115085 4.94170326,18.04446 4.94170326,20.424285 C4.94170326,22.80411 6.07296413,24.733485 7.46893152,24.733485 C8.8643663,24.733485 9.99562717,22.80411 9.99562717,20.424285 Z" id="Stroke-343" stroke="#605579" stroke-width="0.5"/>
          <path d="M13.4045359,20.312775 C13.4045359,14.695275 10.7345685,10.1409 7.4409163,10.1409 C4.14619891,10.1409 1.47623152,14.695275 1.47623152,20.312775 C1.47623152,25.930275 4.14619891,30.48465 7.4409163,30.48465 C10.7345685,30.48465 13.4045359,25.930275 13.4045359,20.312775 Z" id="Stroke-345" stroke="#605579" stroke-width="0.5265"/>
          <path d="M6.80178587,15.4804125 C6.80178587,15.4804125 6.724025,15.2189625 6.63934022,14.8236375 C6.55572065,14.4277875 6.45665543,13.8980625 6.38794891,13.3646625 C6.31551413,12.8317875 6.27237283,12.2947125 6.25106848,11.8909875 C6.23029674,11.4867375 6.23722065,11.2147875 6.23722065,11.2147875 C6.23722065,11.2147875 6.31498152,11.4762375 6.40019891,11.8715625 C6.48435109,12.2674125 6.58235109,12.7971375 6.65159022,13.3305375 C6.72349239,13.8634125 6.76610109,14.4004875 6.78793804,14.8042125 C6.80870978,15.2084625 6.80178587,15.4804125 6.80178587,15.4804125" id="Fill-347" fill="#605579"/>
          <path d="M8.57697065,29.7751125 C8.57697065,29.7751125 8.50400326,29.5115625 8.42624239,29.1125625 C8.34954674,28.7135625 8.26006848,28.1801625 8.2004163,27.6430875 C8.13810109,27.1070625 8.10454674,26.5673625 8.0901663,26.1615375 C8.07685109,25.7557125 8.08856848,25.4827125 8.08856848,25.4827125 C8.08856848,25.4827125 8.16153587,25.7462625 8.23929674,26.1447375 C8.31705761,26.5442625 8.40547065,27.0776625 8.46512283,27.6142125 C8.52743804,28.1507625 8.56045978,28.6904625 8.57484022,29.0962875 C8.58868804,29.5021125 8.57697065,29.7751125 8.57697065,29.7751125" id="Fill-349" fill="#605579"/>
          <path d="M4.05475,27.9619725 C4.05475,27.9619725 4.11813043,27.7330725 4.24222826,27.4028475 C4.36632609,27.0731475 4.54421739,26.6389725 4.74927174,26.2173975 C4.95166304,25.7947725 5.18068478,25.3847475 5.36230435,25.0818225 C5.5433913,24.7788975 5.68453261,24.5856975 5.68453261,24.5856975 C5.68453261,24.5856975 5.62115217,24.8151225 5.49705435,25.1453475 C5.37348913,25.4750475 5.19506522,25.9086975 4.98947826,26.3302725 C4.78708696,26.7528975 4.55806522,27.1629225 4.37644565,27.4658475 C4.19482609,27.7687725 4.05475,27.9619725 4.05475,27.9619725" id="Fill-351" fill="#605579"/>
          <path d="M2.61995543,25.022655 C2.61995543,25.022655 2.73819457,24.87408 2.93579239,24.67563 C3.13339022,24.47718 3.40608587,24.223605 3.69689022,23.99313 C3.98609674,23.759505 4.29394457,23.54898 4.53202065,23.399355 C4.76956413,23.250255 4.94159674,23.16678 4.94159674,23.16678 C4.94159674,23.16678 4.82389022,23.31588 4.62629239,23.51433 C4.42869457,23.71278 4.15599891,23.96583 3.86466196,24.19683 C3.57545543,24.42993 3.267075,24.63993 3.03006413,24.79008 C2.79198804,24.93918 2.61995543,25.022655 2.61995543,25.022655" id="Fill-353" fill="#605579"/>
          <path d="M1.87361087,21.60249 C1.87361087,21.60249 2.02540435,21.53319 2.25921957,21.460215 C2.49303478,21.387765 2.8067413,21.304815 3.12577391,21.25074 C3.44427391,21.19299 3.7681,21.16464 4.01256739,21.153615 C4.25756739,21.143115 4.42427391,21.156765 4.42427391,21.156765 C4.42427391,21.156765 4.27248043,21.226065 4.03866522,21.29904 C3.80538261,21.372015 3.49114348,21.45444 3.17211087,21.508515 C2.85361087,21.56574 2.52978478,21.59409 2.28531739,21.605115 C2.04031739,21.615615 1.87361087,21.60249 1.87361087,21.60249" id="Fill-355" fill="#605579"/>
          <path d="M2.05666848,17.5265475 C2.05666848,17.5265475 2.2297663,17.5648725 2.4747663,17.6499225 C2.7197663,17.7354975 3.04039674,17.8614975 3.34771196,18.0142725 C3.656625,18.1638975 3.95222283,18.3397725 4.16846196,18.4815225 C4.3852337,18.6227475 4.5199837,18.7366725 4.5199837,18.7366725 C4.5199837,18.7366725 4.34688587,18.6988725 4.10188587,18.6132975 C3.85688587,18.5282475 3.53625543,18.4017225 3.22894022,18.2489475 C2.92055978,18.0987975 2.62496196,17.9223975 2.40819022,17.7811725 C2.19141848,17.6394225 2.05666848,17.5265475 2.05666848,17.5265475" id="Fill-357" fill="#605579"/>
          <path d="M3.5601163,13.61493 C3.5601163,13.61493 3.70551848,13.797105 3.89619239,14.08533 C4.08580109,14.373555 4.32707283,14.764155 4.54171413,15.168405 C4.75901848,15.57213 4.950225,15.988455 5.08444239,16.305555 C5.21812717,16.62318 5.28789891,16.84473 5.28789891,16.84473 C5.28789891,16.84473 5.14196413,16.662555 4.95182283,16.374855 C4.76168152,16.08663 4.52094239,15.695505 4.30630109,15.291255 C4.08899674,14.888055 3.89832283,14.471205 3.76410543,14.154105 C3.63042065,13.83648 3.5601163,13.61493 3.5601163,13.61493" id="Fill-359" fill="#605579"/>
          <path d="M9.06457391,11.53467 C9.06457391,11.53467 9.05711739,11.80242 9.0150413,12.19827 C8.9719,12.59412 8.90159565,13.11912 8.80146522,13.63887 C8.70453043,14.15967 8.57883478,14.67417 8.47391087,15.05847 C8.36792174,15.44277 8.27684565,15.695295 8.27684565,15.695295 C8.27684565,15.695295 8.28376957,15.427545 8.32637826,15.031695 C8.36898696,14.635845 8.43982391,14.110845 8.53995435,13.591095 C8.63688913,13.070295 8.76365,12.555795 8.8680413,12.17097 C8.97349783,11.78667 9.06457391,11.53467 9.06457391,11.53467" id="Fill-361" fill="#605579"/>
          <path d="M11.3552174,13.902315 C11.3552174,13.902315 11.2614783,14.093415 11.0974348,14.36169 C10.9307283,14.628915 10.6990435,14.97804 10.4433913,15.309315 C10.1898696,15.64164 9.91291304,15.957165 9.69667391,16.187115 C9.47990217,16.417065 9.31852174,16.557765 9.31852174,16.557765 C9.31852174,16.557765 9.41172826,16.36614 9.57736957,16.09839 C9.74247826,15.830115 9.97522826,15.481515 10.2308804,15.150765 C10.4844022,14.817915 10.7613587,14.502915 10.9775978,14.272965 C11.193837,14.043015 11.3552174,13.902315 11.3552174,13.902315" id="Fill-363" fill="#605579"/>
          <path d="M12.5588065,17.3778675 C12.5588065,17.3778675 12.4320457,17.5075425 12.2227304,17.6755425 C12.015013,17.8430175 11.7284696,18.0551175 11.427013,18.2420175 C11.1271543,18.4320675 10.8113174,18.5974425 10.5684478,18.7124175 C10.3261109,18.8268675 10.1524804,18.8856675 10.1524804,18.8856675 C10.1524804,18.8856675 10.2797739,18.7554675 10.4885565,18.5874675 C10.6968065,18.4194675 10.9828174,18.2084175 11.2842739,18.0209925 C11.5841326,17.8314675 11.9005022,17.6666175 12.1428391,17.5516425 C12.3862413,17.4366675 12.5588065,17.3778675 12.5588065,17.3778675" id="Fill-365" fill="#605579"/>
          <path d="M12.7543804,21.492765 C12.7543804,21.492765 12.5940652,21.53529 12.3538587,21.567315 C12.1136522,21.598815 11.7930217,21.62769 11.4729239,21.62664 C11.1522935,21.629265 10.831663,21.60249 10.5914565,21.571515 C10.35125,21.54054 10.1909348,21.49854 10.1909348,21.49854 C10.1909348,21.49854 10.3507174,21.456015 10.5909239,21.42399 C10.8311304,21.391965 11.1512283,21.363615 11.4729239,21.364665 C11.7930217,21.36204 12.1136522,21.389865 12.3538587,21.420315 C12.5940652,21.45129 12.7543804,21.492765 12.7543804,21.492765" id="Fill-367" fill="#605579"/>
          <path d="M12.1063022,25.48077 C12.1063022,25.48077 11.9358674,25.386795 11.7004543,25.22247 C11.4666391,25.058145 11.1630522,24.82872 10.8786391,24.577245 C10.5926283,24.32787 10.3263239,24.05697 10.1335196,23.84592 C9.94124783,23.634345 9.82726957,23.477895 9.82726957,23.477895 C9.82726957,23.477895 9.99823696,23.571345 10.2331174,23.73567 C10.4679978,23.899995 10.7721174,24.129945 11.0554652,24.38142 C11.3414761,24.630795 11.6072478,24.901695 11.8005848,25.112745 C11.9928565,25.32432 12.1063022,25.48077 12.1063022,25.48077" id="Fill-369" fill="#605579"/>
          <path d="M6.32952174,29.7907575 C6.32952174,29.7907575 6.31088043,29.5172325 6.3146087,29.1087825 C6.31886957,28.7008575 6.33804348,28.1580075 6.38704348,27.6172575 C6.43338043,27.0770325 6.50847826,26.5389075 6.57611957,26.1362325 C6.64376087,25.7335575 6.71033696,25.4668575 6.71033696,25.4668575 C6.71033696,25.4668575 6.72897826,25.7409075 6.72525,26.1488325 C6.72152174,26.5567575 6.70181522,27.1001325 6.65228261,27.6403575 C6.60647826,28.1811075 6.53031522,28.7187075 6.46320652,29.1213825 C6.39556522,29.5240575 6.32952174,29.7907575 6.32952174,29.7907575" id="Fill-371" fill="#605579"/>
          <path d="M10.6335326,28.258545 C10.6335326,28.258545 10.5035761,28.048545 10.3374022,27.72252 C10.1722935,27.395445 9.96457609,26.955495 9.78455435,26.50452 C9.60186957,26.05407 9.44634783,25.59312 9.3403587,25.243995 C9.23436957,24.894345 9.18323913,24.65337 9.18323913,24.65337 C9.18323913,24.65337 9.31372826,24.862845 9.47936957,25.189395 C9.64554348,25.515945 9.85219565,25.95642 10.0322174,26.407395 C10.2149022,26.857845 10.3693587,27.318795 10.476413,27.66792 C10.5824022,28.018095 10.6335326,28.258545 10.6335326,28.258545" id="Fill-373" fill="#605579"/>
          <path d="M14.0463293,22.5337875 C14.0463293,22.5337875 10.7841011,25.6659375 9.86854674,28.1029875 C9.7188837,28.2106125 17.5018946,28.1029875 17.5018946,28.1029875 L16.0105902,23.3333625 C16.0105902,23.3333625 15.7778402,25.1635125 14.0463293,22.5337875" id="Fill-375" fill="#E89B60"/>
          <path d="M14.0463293,22.5337875 C14.0463293,22.5337875 10.7841011,25.6659375 9.86854674,28.1029875 C9.7188837,28.2106125 17.5018946,28.1029875 17.5018946,28.1029875 L16.0105902,23.3333625 C16.0105902,23.3333625 15.7778402,25.1635125 14.0463293,22.5337875 Z" id="Stroke-377" stroke="#615D7A" stroke-width="0.5"/>
          <path d="M35.184237,20.423025 C35.184237,14.8113 30.5691826,10.262175 24.8761283,10.262175 C19.1830739,10.262175 14.5680196,14.8113 14.5680196,20.423025 C14.5680196,26.034225 19.1830739,30.583875 24.8761283,30.583875 C30.5691826,30.583875 35.184237,26.034225 35.184237,20.423025" id="Fill-379" fill="#C4AFAD"/>
          <path d="M29.3479109,20.65245 C29.3479109,18.2721 27.3905739,16.34325 24.9762587,16.34325 C22.5614109,16.34325 20.6040739,18.2721 20.6040739,20.65245 C20.6040739,23.0328 22.5614109,24.96165 24.9762587,24.96165 C27.3905739,24.96165 29.3479109,23.0328 29.3479109,20.65245" id="Fill-381" fill="#FCCF87"/>
          <path d="M21.3583011,20.7619125 C21.3583011,19.2635625 22.590225,18.0492375 24.1102902,18.0492375 C25.6303554,18.0492375 26.8622793,19.2635625 26.8622793,20.7619125 C26.8622793,22.2602625 25.6303554,23.4745875 24.1102902,23.4745875 C22.590225,23.4745875 21.3583011,22.2602625 21.3583011,20.7619125" id="Fill-383" fill="#362F52"/>
          <path d="M29.3479109,20.5653 C29.3479109,18.185475 27.3905739,16.2561 24.9762587,16.2561 C22.5614109,16.2561 20.6040739,18.185475 20.6040739,20.5653 C20.6040739,22.945125 22.5614109,24.8745 24.9762587,24.8745 C27.3905739,24.8745 29.3479109,22.945125 29.3479109,20.5653 Z" id="Stroke-385" stroke="#605579" stroke-width="0.5"/>
          <path d="M35.2461793,20.45379 C35.2461793,14.83629 30.6263315,10.281915 24.9274185,10.281915 C19.2274402,10.281915 14.6075924,14.83629 14.6075924,20.45379 C14.6075924,26.07129 19.2274402,30.625665 24.9274185,30.625665 C30.6263315,30.625665 35.2461793,26.07129 35.2461793,20.45379 Z" id="Stroke-387" stroke="#605579" stroke-width="0.5265"/>
          <path d="M23.8220957,15.621375 C23.8220957,15.621375 23.7198348,15.364125 23.5968022,14.9709 C23.4748348,14.5782 23.3246391,14.0511 23.2042696,13.5177 C23.0801717,12.984825 22.9859,12.445125 22.9251826,12.03825 C22.8649978,11.631375 22.8458239,11.35575 22.8458239,11.35575 C22.8458239,11.35575 22.9486174,11.613 23.07165,12.006225 C23.19415,12.398925 23.3432804,12.926025 23.46365,13.459425 C23.5877478,13.9923 23.681487,14.532 23.742737,14.938875 C23.8023891,15.34575 23.8220957,15.621375 23.8220957,15.621375" id="Fill-389" fill="#605579"/>
          <path d="M26.893437,29.916075 C26.893437,29.916075 26.7986326,29.655675 26.68785,29.2593 C26.5781326,28.862925 26.4444478,28.331625 26.3400565,27.79455 C26.2330022,27.258525 26.1547087,26.716725 26.1062413,26.308275 C26.0593717,25.899825 26.048187,25.623675 26.048187,25.623675 C26.048187,25.623675 26.1429913,25.88355 26.2537739,26.279925 C26.3645565,26.676825 26.4971761,27.208125 26.6015674,27.744675 C26.7086217,28.281225 26.7863826,28.823025 26.83485,29.231475 C26.8822522,29.639925 26.893437,29.916075 26.893437,29.916075" id="Fill-391" fill="#605579"/>
          <path d="M19.0692022,28.102935 C19.0692022,28.102935 19.2130065,27.86511 19.4521478,27.528585 C19.6923543,27.192585 20.0225717,26.752635 20.3762239,26.331585 C20.727213,25.908435 21.1011043,25.504185 21.3903109,25.20756 C21.6795174,24.910935 21.8888326,24.72666 21.8888326,24.72666 C21.8888326,24.72666 21.7455609,24.964485 21.505887,25.301535 C21.266213,25.63806 20.935463,26.077485 20.5818109,26.49801 C20.2308217,26.92116 19.8563978,27.32541 19.5677239,27.622035 C19.2785174,27.91866 19.0692022,28.102935 19.0692022,28.102935" id="Fill-393" fill="#605579"/>
          <path d="M16.5871391,25.16367 C16.5871391,25.16367 16.8198891,25.009845 17.1831283,24.807195 C17.5463674,24.60507 18.0363674,24.34782 18.53915,24.11682 C19.0403348,23.88372 19.5543022,23.676345 19.9447043,23.53092 C20.3345739,23.385495 20.6040739,23.307795 20.6040739,23.307795 C20.6040739,23.307795 20.3707913,23.462145 20.0080848,23.664795 C19.6448457,23.867445 19.1548457,24.12417 18.652063,24.354645 C18.1508783,24.587745 17.6363783,24.794595 17.2465087,24.940545 C16.8561065,25.08597 16.5871391,25.16367 16.5871391,25.16367" id="Fill-395" fill="#605579"/>
          <path d="M15.2956696,21.7434525 C15.2956696,21.7434525 15.5673,21.6741525 15.9774087,21.6006525 C16.38805,21.5276775 16.936637,21.4442025 17.4884196,21.3901275 C18.0396696,21.3329025 18.5941152,21.3045525 19.0116804,21.2940525 C19.4281804,21.2835525 19.7083326,21.2977275 19.7083326,21.2977275 C19.7083326,21.2977275 19.4367022,21.3675525 19.0265935,21.4405275 C18.6159522,21.5140275 18.0673652,21.5969775 17.5155826,21.6510525 C16.9643326,21.7082775 16.409887,21.7361025 15.9928543,21.7471275 C15.5758217,21.7571025 15.2956696,21.7434525 15.2956696,21.7434525" id="Fill-397" fill="#605579"/>
          <path d="M15.6124652,17.6675625 C15.6124652,17.6675625 15.890487,17.7027375 16.2989978,17.7862125 C16.7075087,17.8696875 17.2481065,17.9941125 17.7801826,18.1463625 C18.3133239,18.2965125 18.8390087,18.4739625 19.2294109,18.6178125 C19.6203457,18.7611375 19.8749326,18.8776875 19.8749326,18.8776875 C19.8749326,18.8776875 19.5963783,18.8425125 19.1884,18.7595625 C18.7793565,18.6760875 18.2392913,18.5511375 17.7072152,18.3988875 C17.1740739,18.2487375 16.6483891,18.0707625 16.257987,17.9274375 C15.8675848,17.7835875 15.6124652,17.6675625 15.6124652,17.6675625" id="Fill-399" fill="#605579"/>
          <path d="M18.2136196,13.755945 C18.2136196,13.755945 18.4319891,13.92972 18.7355761,14.21112 C19.039163,14.493045 19.4338261,14.87787 19.8066522,15.282645 C20.1810761,15.68532 20.5341957,16.10742 20.790913,16.431345 C21.0476304,16.75527 21.2026196,16.985745 21.2026196,16.985745 C21.2026196,16.985745 20.98425,16.812495 20.680663,16.531095 C20.3770761,16.249695 19.982413,15.864345 19.609587,15.45957 C19.235163,15.056895 18.8825761,14.633745 18.6253261,14.310345 C18.3691413,13.985895 18.2136196,13.755945 18.2136196,13.755945" id="Fill-401" fill="#605579"/>
          <path d="M27.7370891,11.675685 C27.7370891,11.675685 27.69235,11.948685 27.5948826,12.34821 C27.4974152,12.747735 27.3541435,13.27641 27.1821109,13.79616 C27.0138065,14.31696 26.8162087,14.82831 26.6585565,15.208935 C26.5003717,15.589035 26.3741435,15.83631 26.3741435,15.83631 C26.3741435,15.83631 26.41835,15.56331 26.5158174,15.16326 C26.6138174,14.763735 26.7570891,14.23506 26.9291217,13.715835 C27.0979587,13.195035 27.2955565,12.683685 27.4532087,12.30306 C27.6113935,11.92296 27.7370891,11.675685 27.7370891,11.675685" id="Fill-403" fill="#605579"/>
          <path d="M31.7009761,14.0432775 C31.7009761,14.0432775 31.5065739,14.2422525 31.1955304,14.5168275 C30.884487,14.7903525 30.461063,15.1442025 30.0195304,15.4749525 C29.5801283,15.8083275 29.1226174,16.1186025 28.7726935,16.3422525 C28.4233022,16.5664275 28.1767043,16.6987275 28.1767043,16.6987275 C28.1767043,16.6987275 28.3705739,16.4992275 28.6816174,16.2251775 C28.9926609,15.9511275 29.4166174,15.5972775 29.85815,15.2670525 C30.2975522,14.9336775 30.7555957,14.6239275 31.104987,14.3997525 C31.4549109,14.1755775 31.7009761,14.0432775 31.7009761,14.0432775" id="Fill-405" fill="#605579"/>
          <path d="M33.78305,17.5188825 C33.78305,17.5188825 33.5375174,17.6522325 33.1583,17.8233825 C32.77855,17.9940075 32.2677783,18.2087325 31.746887,18.3956325 C31.2270609,18.5856825 30.6965826,18.7484325 30.2955283,18.8602575 C29.8939413,18.9720825 29.6191152,19.0266825 29.6191152,19.0266825 C29.6191152,19.0266825 29.8646478,18.8928075 30.2433326,18.7216575 C30.6230826,18.5505075 31.1338543,18.3368325 31.6552783,18.1494075 C32.1751043,17.9598825 32.7055826,17.7976575 33.106637,17.6853075 C33.5076913,17.5734825 33.78305,17.5188825 33.78305,17.5188825" id="Fill-407" fill="#605579"/>
          <path d="M34.1210967,21.63378 C34.1210967,21.63378 33.8436076,21.676305 33.4281728,21.70833 C33.0122054,21.73983 32.4577598,21.768705 31.9033141,21.767655 C31.3488685,21.77028 30.7944228,21.743505 30.378988,21.71253 C29.962488,21.681555 29.6855315,21.639555 29.6855315,21.639555 C29.6855315,21.639555 29.962488,21.59703 30.3784554,21.565005 C30.7944228,21.53298 31.3488685,21.50463 31.9033141,21.50568 C32.4577598,21.503055 33.0122054,21.53088 33.4276402,21.56133 C33.8436076,21.592305 34.1210967,21.63378 34.1210967,21.63378" id="Fill-409" fill="#605579"/>
          <path d="M32.9997424,25.6217325 C32.9997424,25.6217325 32.7339707,25.5340575 32.3494272,25.3739325 C31.9654163,25.2138075 31.459438,24.9885825 30.9673076,24.7365825 C30.4735793,24.4877325 29.9931663,24.2126325 29.6384489,23.9973825 C29.2831989,23.7816075 29.0568402,23.6188575 29.0568402,23.6188575 C29.0568402,23.6188575 29.3231446,23.7065325 29.7071554,23.8661325 C30.0911663,24.0257325 30.596612,24.2520075 31.089275,24.5034825 C31.5830033,24.7528575 32.0623511,25.0279575 32.4176011,25.2432075 C32.7728511,25.4589825 32.9997424,25.6217325 32.9997424,25.6217325" id="Fill-411" fill="#605579"/>
          <path d="M23.0050161,29.93172 C23.0050161,29.93172 23.0039554,29.655045 23.0343141,29.24502 C23.0646728,28.83552 23.1189989,28.29057 23.2026185,27.750345 C23.2830424,27.209595 23.3932924,26.673045 23.4864989,26.27247 C23.5797054,25.871895 23.6633299,25.60782 23.6633299,25.60782 C23.6633299,25.60782 23.6643902,25.884495 23.6350967,26.29452 C23.604738,26.704545 23.5493467,27.24897 23.4657272,27.789195 C23.3853033,28.329945 23.2745207,28.866495 23.1818467,29.26707 C23.0881076,29.667645 23.0050161,29.93172 23.0050161,29.93172" id="Fill-413" fill="#605579"/>
          <path d="M30.4516359,28.39956 C30.4516359,28.39956 30.2598967,28.19796 29.9978533,27.87771 C29.736875,27.55746 29.3997337,27.12276 29.0870924,26.67126 C28.7728533,26.221335 28.4820489,25.755135 28.2727337,25.399185 C28.0644837,25.043235 27.9425163,24.794385 27.9425163,24.794385 C27.9425163,24.794385 28.1342554,24.995985 28.3968315,25.31571 C28.6578098,25.63596 28.9944185,26.071185 29.3070598,26.522685 C29.6212989,26.97261 29.9115707,27.43881 30.1214185,27.79476 C30.3296685,28.150185 30.4516359,28.39956 30.4516359,28.39956" id="Fill-415" fill="#605579"/>
          <path d="M22.2118065,19.9005975 C22.2118065,19.5950475 22.4631978,19.3477725 22.7731761,19.3477725 C23.0831543,19.3477725 23.334013,19.5950475 23.334013,19.9005975 C23.334013,20.2061475 23.0831543,20.4539475 22.7731761,20.4539475 C22.4631978,20.4539475 22.2118065,20.2061475 22.2118065,19.9005975" id="Fill-417" fill="#FFFFFF"/>
          <path d="M6.2411087,19.8680475 C6.2778587,19.5645975 6.43178261,19.3335975 6.58570652,19.3519725 C6.73963043,19.3692975 6.8355,19.6302225 6.79821739,19.9336725 C6.762,20.2371225 6.60754348,20.4681225 6.45361957,20.4497475 C6.29969565,20.4318975 6.2048913,20.1714975 6.2411087,19.8680475" id="Fill-419" fill="#FFFFFF"/>
          <path d="M14.3423,25.703265 C14.3423,25.703265 13.4592348,25.325265 13.5098326,24.04689 C13.5098326,24.04689 14.4126043,24.464265 14.3423,25.703265" id="Fill-421" fill="#615D7A"/>
          <path d="M2.33128152,55.7000325 C2.33128152,55.7000325 9.0916837,41.5980075 6.77377065,33.4773075" id="Stroke-423" stroke="#362F52" stroke-width="0.5"/>
          <path d="M48.2997261,82.5806625 C48.2997261,82.5806625 21.7598348,68.5400625 21.292737,50.0196375 C20.8368239,31.9507125 35.7754326,28.3996125 40.3665196,28.6915125 C40.3665196,28.6915125 47.7506065,36.9712875 48.2832152,47.1762375 C48.8158239,57.3806625 48.2997261,82.5806625 48.2997261,82.5806625" id="Fill-425" fill="#A77E76"/>
          <path d="M48.2227641,82.5806625 C48.2227641,82.5806625 39.2541663,77.1994125 36.075025,74.1433875 C36.075025,74.1433875 34.1927859,61.0603875 41.3585033,55.3011375 C45.112862,52.2839625 48.5242207,52.2136125 48.5242207,52.2136125 L48.2227641,82.5806625 Z" id="Fill-427" fill="#784451"/>
          <path d="M48.2997261,82.5806625 C48.2997261,82.5806625 21.3582478,68.4712875 21.3582478,49.3744125 C21.3582478,30.2775375 38.1801609,28.3996125 40.3105957,28.7230125 C40.3105957,28.7230125 47.6339652,36.1181625 48.2997261,47.8650375 C48.7796065,56.3380125 48.2997261,76.9369125 48.2997261,82.5806625 Z" id="Stroke-429" stroke="#362F52" stroke-width="0.5"/>
          <path d="M36.2021587,74.313225 C35.8250717,73.6344 33.0768109,54.733875 48.448963,52.071075" id="Stroke-431" stroke="#362F52" stroke-width="0.5"/>
          <path d="M47.3234543,52.4634075 C47.3234543,52.4634075 47.3037478,52.6928325 47.2691283,53.0949825 C47.2281174,53.4955575 47.2046826,54.0709575 47.1599435,54.7571325 C47.1184,55.4438325 47.0992261,56.2455075 47.0939,57.1023075 C47.0784543,57.5307075 47.1066826,57.9732825 47.1013565,58.4226825 C47.1130739,58.8715575 47.1311826,59.3277825 47.1562152,59.7829575 C47.1934978,60.2365575 47.2052152,60.6938325 47.2616717,61.1385075 C47.3218565,61.5826575 47.3394326,62.0257575 47.4193239,62.4457575 C47.4938891,62.8652325 47.5290413,63.2799825 47.6185196,63.6611325 C47.7026717,64.0433325 47.7548674,64.4134575 47.8523348,64.7415825 C47.9471391,65.0702325 48.0233022,65.3757825 48.0909435,65.6477325 C48.1649761,65.9170575 48.2555196,66.1438575 48.3173022,66.3354825 C48.4419326,66.7203075 48.5127696,66.9402825 48.5127696,66.9402825 C48.5127696,66.9402825 48.4067804,66.7344825 48.2214326,66.3743325 C48.1346174,66.1911075 48.0137152,65.9737575 47.9039978,65.7128325 C47.7996065,65.4503325 47.6813674,65.1526575 47.5641935,64.8240075 C47.4390304,64.4974575 47.3564761,64.1289075 47.2398348,63.7456575 C47.1173348,63.3629325 47.0438348,62.9481825 46.9570196,62.5208325 C46.8616826,62.0940075 46.8116174,61.6461825 46.7503674,61.1925825 C46.6875196,60.7389825 46.667813,60.2748825 46.6246717,59.8123575 C46.5831283,58.8846825 46.5735413,57.9559575 46.6262696,57.0886575 C46.6656826,56.2203075 46.7743348,55.4160075 46.8632804,54.7282575 C47.0624761,53.3538075 47.3234543,52.4634075 47.3234543,52.4634075" id="Fill-433" fill="#362F52"/>
          <path d="M44.3265185,53.338845 C44.3265185,53.338845 44.2966924,53.673795 44.2673989,54.259695 C44.2253228,54.844545 44.214138,55.682445 44.1997576,56.68467 C44.2029533,57.186045 44.1928337,57.72837 44.2215946,58.302195 C44.2327793,58.87602 44.2732576,59.479245 44.3126707,60.102945 C44.3345076,60.72822 44.4303772,61.36767 44.480975,62.021295 C44.5587359,62.67177 44.6514098,63.331695 44.7552685,63.98847 C44.8889533,64.63947 44.9741707,65.30202 45.142475,65.934645 C45.313975,66.565695 45.424225,67.204095 45.6346054,67.792095 C45.8322033,68.38272 45.9770728,68.97177 46.2066272,69.49677 C46.3115511,69.76347 46.4127467,70.02282 46.511812,70.27377 C46.6044859,70.527345 46.7062141,70.76727 46.8260511,70.987245 C47.053475,71.432445 47.252138,71.847195 47.4284315,72.21627 C47.6217685,72.57537 47.822562,72.869895 47.9727576,73.122945 C48.275812,73.629045 48.4489098,73.91832 48.4489098,73.91832 C48.4489098,73.91832 48.244388,73.650045 47.886475,73.179645 C47.7139098,72.93972 47.4843554,72.65937 47.2574641,72.31497 C47.0460185,71.961645 46.8074098,71.56107 46.5570837,71.11797 C46.4233989,70.900095 46.3067576,70.662795 46.198638,70.41132 C46.0846598,70.161945 45.9669533,69.90417 45.8460511,69.639045 C45.5829424,69.11562 45.3991924,68.52972 45.1872141,67.929645 C44.9597902,67.33482 44.8159859,66.693795 44.6423554,66.04962 C44.4649967,65.406495 44.3701924,64.735545 44.2301163,64.072995 C44.1305185,63.40467 44.042638,62.734245 43.9696707,62.07327 C43.9206707,61.41072 43.8530293,60.759195 43.8450402,60.126045 C43.816812,59.49447 43.8157467,58.882845 43.834388,58.30377 C43.8375837,57.724695 43.8764641,57.17817 43.9009641,56.67417 C44.0362467,54.656595 44.3265185,53.338845 44.3265185,53.338845" id="Fill-435" fill="#362F52"/>
          <path d="M40.6216391,55.912815 C40.6216391,55.912815 40.6253674,56.321265 40.6631826,57.033165 C40.6887478,57.745065 40.7760957,58.75989 40.8943348,59.973165 C40.9598457,60.57954 41.0264217,61.236315 41.1340087,61.92669 C41.2213565,62.619165 41.3603674,63.342615 41.4812696,64.093365 C41.5984435,64.845165 41.7859217,65.61009 41.9398457,66.392865 C42.142237,67.16514 42.3206609,67.95684 42.5576717,68.732265 C42.8010739,69.505065 42.99015,70.29624 43.2846826,71.039115 C43.5579109,71.788815 43.8093022,72.534315 44.1368565,73.22154 C44.4457696,73.916115 44.7184652,74.60019 45.0582696,75.210765 C45.388487,75.825015 45.6521283,76.43559 45.9999217,76.93854 C46.3264109,77.453565 46.6172152,77.93289 46.8749978,78.358665 C47.1588783,78.766065 47.4278457,79.107315 47.6392913,79.39554 C48.0632478,79.97514 48.3055848,80.30589 48.3055848,80.30589 C48.3055848,80.30589 48.0339543,79.99824 47.5578022,79.45959 C47.3255848,79.18554 47.0294543,78.861615 46.7136174,78.472065 C46.4222804,78.06519 46.0931283,77.60424 45.7442696,77.09394 C45.3703783,76.59834 45.0763783,75.99669 44.7142043,75.388215 C44.3419109,74.783415 44.0282043,74.107215 43.7129,73.402665 C43.3704326,72.70914 43.1041283,71.95839 42.815987,71.20239 C42.5070739,70.452165 42.301487,69.655215 42.0453022,68.87454 C41.8173457,68.085465 41.6485087,67.28169 41.4551717,66.497865 C41.3108348,65.70354 41.1334761,64.928115 41.0264217,64.16739 C40.9055196,63.408765 40.8085848,62.672715 40.7499978,61.971315 C40.6727696,61.272015 40.6349543,60.60789 40.5960739,59.99574 C40.5257696,58.770915 40.542813,57.748215 40.5603891,57.03369 C40.5784978,56.319165 40.6216391,55.912815 40.6216391,55.912815" id="Fill-437" fill="#362F52"/>
          <path d="M37.1992022,61.338165 C37.1992022,61.338165 37.2194413,61.72089 37.3009304,62.383965 C37.3813543,63.04704 37.5294196,63.98994 37.7776152,65.10504 C37.8846696,65.66574 38.0561696,66.26109 38.2207457,66.89319 C38.4092891,67.51899 38.6116804,68.177865 38.8423,68.85144 C39.0873,69.52029 39.3221804,70.21854 39.6374848,70.89789 C39.7887457,71.24019 39.929887,71.58984 40.0928652,71.931615 C40.2654304,72.26814 40.4390609,72.60624 40.6126913,72.94434 C40.9279957,73.636815 41.343963,74.276265 41.7141261,74.927265 C41.8930826,75.25644 42.1008,75.564615 42.3143761,75.86439 C42.5226261,76.167315 42.7287457,76.46604 42.931137,76.76004 C43.1234087,77.061915 43.3471043,77.332815 43.5617457,77.60214 C43.7747891,77.87304 43.9825065,78.138165 44.1854304,78.395415 C44.5747674,78.92619 45.0131043,79.36824 45.4024413,79.79034 C45.8034957,80.20089 46.1315826,80.61879 46.4793761,80.931165 C46.8213109,81.251415 47.1201043,81.53019 47.365637,81.759615 C47.8540391,82.225815 48.1331261,82.491465 48.1331261,82.491465 C48.1331261,82.491465 47.8295391,82.25364 47.2979957,81.83679 C47.0332891,81.62574 46.7121261,81.36849 46.3440935,81.073965 C45.9670065,80.78679 45.6064304,80.394615 45.1856696,79.994565 C44.7723652,79.587165 44.3073978,79.15929 43.8882348,78.64164 C43.6698652,78.390165 43.4461696,78.13134 43.2176804,77.867265 C42.9817348,77.60739 42.7601696,77.327565 42.556713,77.02674 C42.3458,76.731165 42.1322239,76.430865 41.9149196,76.126365 C41.693887,75.82449 41.4776478,75.514215 41.289637,75.18294 C40.9034957,74.52669 40.468887,73.882515 40.1386696,73.182165 C39.9671696,72.83514 39.7962022,72.488115 39.6257674,72.14319 C39.4654522,71.793015 39.3275065,71.434965 39.1794413,71.08479 C38.8699957,70.389165 38.6420391,69.67674 38.403963,68.993715 C38.1717457,68.309115 38.0077022,67.62819 37.8457891,66.987165 C37.7099739,66.339315 37.565637,65.73084 37.4841478,65.159115 C37.3781587,64.592115 37.3270283,64.06554 37.2796261,63.599865 C37.23755,63.13419 37.2125174,62.72679 37.1986696,62.39184 C37.1725717,61.72089 37.1992022,61.338165 37.1992022,61.338165" id="Fill-439" fill="#362F52"/>
        </g>
      </g>
    </g>
  </g>
</svg>