<svg width="152px" height="136px" viewBox="0 0 152 136" version="1.1" xml:space="preserve" xmlns="http://www.w3.org/2000/svg" xmlns:xlink="http://www.w3.org/1999/xlink">
  <!-- Generator: Sketch 48.2 (47327) - http://www.bohemiancoding.com/sketch -->
  <defs/>
  <g>
    <title>goalie-b</title>
    <desc>Created with Sketch.</desc>
    <g id="soccer" stroke="none" stroke-width="1" fill="none" fill-rule="evenodd">
      <g id="goalie-b" fill-rule="nonzero">
        <g id="scratch_footie_player_goalie02" transform="translate(17.000000, 5.000000)">
          <path d="M79.6040956,112.22508 C79.4172696,111.52418 79.2669966,110.819228 79.0517406,110.166945 C78.8364846,109.514662 76.6148805,103.753505 76.3305802,103.072862 C73.8937201,98.6405788 82.4227304,94.1110611 83.2350171,101.885788 C83.6695904,103.372669 83.5843003,111.487717 83.2959386,112.496527 C82.9710239,112.314212 79.7056314,112.22508 79.6040956,112.22508 Z" id="Shape" fill="#281446"/>
          <path d="M78.7918089,111.929325 C79.0030034,115.381158 79.5188055,118.35492 78.1541638,121.652797 L79.2832423,121.652797 C81.7850853,118.962637 83.7995563,115.624244 84.217884,111.929325 C82.4316747,111.527011 80.5780182,111.527011 78.7918089,111.929325 Z" id="Shape" fill="#F01446"/>
          <path d="M84.5671672,112.014405 C84.6240273,111.516077 84.6687031,110.952926 84.6930717,110.51537 L78.3856655,110.51537 C78.4100341,110.920514 78.446587,111.512026 78.4750171,112.014405 L84.5671672,112.014405 Z" id="Shape" fill="#F04650"/>
          <path d="M83.5964846,122.203794 C83.5964846,122.203794 80.9443686,122.487395 79.7868601,122.203794 C79.7868601,122.167331 80.3270307,121.340836 80.7412969,120.639936 L77.9186007,120.639936 C77.8211263,120.90328 77.7236519,121.166624 77.6180546,121.421865 C77.5444885,121.632832 77.4360388,121.830027 77.2972014,122.005273 C76.7732765,122.580579 76.8463823,122.669711 77.2037884,123.245016 L77.0210239,125.13299 C76.9925939,125.13299 77.0860068,125.416592 77.1509898,125.538135 C77.6302389,125.538135 77.7886348,125.449003 77.7805119,125.051961 C77.7805119,124.472605 77.7195904,123.893248 77.6789761,123.25717 C77.9990821,123.125272 78.3308581,123.023543 78.6699659,122.953312 C78.8933212,123.301684 78.9787381,123.720497 78.9095904,124.128232 C78.7527812,124.524423 78.9302498,124.974084 79.3157338,125.157299 L79.7218771,124.906109 C79.6650171,124.533376 79.5878498,124.201158 79.5675427,123.864887 C79.5472355,123.528617 79.5675427,123.17209 79.5878498,122.827717 C80.6316382,122.86418 80.7616041,123.038392 80.6356997,123.970225 C80.6119516,124.337174 80.6119516,124.705269 80.6356997,125.072219 L81.041843,125.238328 C81.3708191,125.039807 81.285529,124.788617 81.2774061,124.549582 C81.2530375,124.014791 81.0824573,123.459743 81.5089078,122.985723 L82.3455631,122.985723 C82.4836519,123.706881 82.2683959,124.423987 82.4795904,125.165402 L83.0522526,125.100579 C83.0522526,124.877749 83.0522526,124.719743 83.0522526,124.557685 C83.0522526,124.15254 83.0522526,122.937106 83.0522526,122.937106 L83.665529,122.937106 L83.5964846,122.203794 Z" id="Shape" fill="#281446"/>
          <polygon id="Shape" fill="#281446" points="82.2074744 116.159035 78.7105802 116.159035 78.7024573 115.004373 82.2074744 115.004373"/>
          <path d="M82.2562116,119.375884 C79.5594198,119.732412 79.8965188,117.009839 80.2742321,115.729582 C80.7656655,114.088746 80.9078157,112.298006 83.4746416,112.261543 C84.7946075,112.261543 85.0667235,114.246752 84.5874744,116.009132 C84.1366553,117.686431 82.9953925,119.11254 82.2562116,119.375884 Z" id="Shape" fill="#BE0A3C"/>
          <path d="M37.0037201,107.18508 C37.0037201,107.286367 36.9793515,107.383601 36.9752901,107.49299 C36.9888962,109.06705 37.1754833,110.634875 37.5317065,112.16836 L42.3688737,112.16836 C42.3688737,112.144051 42.3688737,112.115691 42.3688737,112.091383 C42.4176109,111.568746 45.1022184,101.731833 45.4311945,100.427267 C45.4311945,100.427267 46.6211945,96.0476527 41.8165188,97.0767203 C37.011843,98.1057878 37.0037201,107.18508 37.0037201,107.18508 Z" id="Shape" fill="#281446"/>
          <path d="M44.1924573,121.916141 C43.0999317,119.080129 43.2705119,115.296077 43.4979522,112.374984 C40.7280546,111.528232 39.513686,111.74701 36.6544369,112.374984 C36.9955973,113.395949 37.9825256,116.154984 39.1928328,118.04701 C40.8498976,120.619678 42.9171672,122.345595 44.245256,123.066752 L44.517372,123.001929 C44.3015901,122.681056 44.1883108,122.302504 44.1924573,121.916141 Z" id="Shape" fill="#F01446"/>
          <rect id="Rectangle-path" fill="#281446" x="40.4031399" y="115.004373" width="3.50501706" height="1.15061093"/>
          <path d="M44.1883959,112.553248 C44.2696246,111.641672 44.3874061,110.563987 44.3914676,110.446495 L35.6472014,110.260129 C35.7771672,110.79492 35.8421502,111.91717 36.0533447,112.553248 L44.1883959,112.553248 Z" id="Shape" fill="#F04650"/>
          <path d="M45.0819113,122.649453 C45.0819113,122.608939 44.8747782,122.025531 44.8585324,121.989068 L42.2835836,122.049839 C42.569935,122.396575 42.8139774,122.776018 43.0105802,123.180193 L38.7460751,123.309839 C38.7460751,123.309839 38.7866894,123.791961 38.8069966,123.913505 L39.5218089,124.006688 C39.9279522,124.594148 39.3552901,125.10463 39.5583618,125.627267 L39.9360751,125.781222 C40.3422184,125.639421 40.2934812,125.339614 40.2406826,125.04791 C40.1489524,124.710937 40.1660057,124.353698 40.2894198,124.026945 L41.4388055,123.905402 C41.8449488,124.411833 41.2316724,124.885852 41.5403413,125.428746 L41.8368259,125.623215 C42.2429693,125.38418 42.2917065,125.307203 42.1901706,124.910161 C42.0589299,124.586371 42.0937745,124.219136 42.2835836,123.925659 L43.420785,123.925659 L43.3111263,125.63537 C43.449215,125.910868 43.6197952,126.064823 43.9650171,125.923023 C44.123413,125.335563 43.8309898,124.513119 44.123413,123.897299 C44.4442662,123.974277 44.854471,123.87299 45.1347099,123.937814 C45.098157,124.253826 44.8950853,125.274791 44.8666553,125.558392 C44.9190715,125.624421 44.9760718,125.686697 45.0372355,125.744759 C45.0865283,125.779182 45.1396881,125.807736 45.1956314,125.829839 C45.6667577,125.700193 45.7236177,125.627267 45.7154949,125.205916 C45.7154949,124.857492 45.7154949,124.107974 45.7154949,123.75955 L45.7154949,123.706881 C45.7682935,123.694727 45.1956314,122.880386 45.0819113,122.649453 Z" id="Shape" fill="#281446"/>
          <path d="M41.284471,116.969325 C40.5980887,114.741029 40.187884,112.488424 37.6291809,113.383794 L37.6291809,113.351383 C36.1142662,114.712669 36.6950512,117.970032 37.9987713,119.428553 C39.9198294,121.543408 42.1170648,119.663537 41.284471,116.969325 Z" id="Shape" fill="#BE0A3C"/>
          <path d="M97.4134812,104.154598 C96.7798976,105.264695 96.1260068,107.480836 94.0018771,106.662444 C89.3068601,104.855498 87.5035836,91.100836 87.3939249,91.1413505 C87.3939249,91.1413505 86.1998635,89.8367846 85.1276451,91.9313826 C84.0554266,94.0259807 85.8708874,98.5595498 85.8708874,98.5595498 C85.8708874,98.5595498 87.0487031,102.205852 87.0893174,102.331447 C88.9453925,107.853569 90.5699659,108.69627 93.522628,109.794212 C97.9902048,111.487717 99.9924915,106.382894 100.077782,106.301865 L97.4134812,104.154598 Z" id="Shape" fill="#281446"/>
          <path d="M103.233515,87.2803215 C99.4320137,91.98 93.9572014,103.016141 93.9572014,103.016141 L104.317918,108.748939 C105.560717,107.448424 106.978157,105.767074 108.192526,104.405788 C110.024635,102.43335 111.749169,100.364129 113.358669,98.207074 C114.170956,97.0767203 117.391672,93.5641158 116.299147,92.0083601 C114.735495,89.7800643 110.942116,96.6189068 110.016109,96.1124759 C109.090102,95.606045 114.260307,89.4762058 112.712901,88.009582 C110.276041,85.6637942 106.454232,92.8105466 105.312969,92.6525402 C104.683447,91.5789068 108.253447,88.3458521 108.350922,86.6604502 C108.582423,82.5360772 104.46413,85.7610289 103.233515,87.2803215 Z" id="Shape" fill="#F04650"/>
          <path d="M95.2527986,86.8832797 C90.7852218,86.7536334 94.4161433,100.419164 94.7938567,102.639357 L101.673925,107.095949 C103.452833,105.199871 105.329215,102.639357 105.483549,99.9856592 C105.727235,96.0314469 102.640546,94.6944695 99.4482594,93.6735048 C99.5822867,91.100836 98.2866894,86.9724116 95.2527986,86.8832797 Z" id="Shape" fill="#F01446"/>
          <path d="M94.375529,101.468489 C96.8448805,102.683923 98.9771331,104.336913 101.316519,105.78328 C103.046689,106.852862 106.75884,108.250611 103.948328,110.430289 C101.316519,109.773955 98.9405802,108.364051 96.7108532,106.856913 C94.6801365,105.483473 91.1263823,103.806174 94.375529,101.468489 Z" id="Shape" fill="#BE0A3C"/>
          <path d="M18.5038908,104.154598 C19.1374744,105.264695 19.7913652,107.480836 21.9154949,106.662444 C26.6105119,104.855498 29.3397952,96.1286817 29.4372696,96.1651447 C29.4372696,96.1651447 30.91157,92.1542122 32.5645734,94.2042444 C34.2175768,96.2542765 32.15843,99.5481029 32.15843,99.5481029 C32.15843,99.5481029 29.6078498,103.324051 27.5446416,105.961543 C26.1339232,107.610479 24.3716392,108.924098 22.3866212,109.806367 C17.9190444,111.499871 15.9167577,106.395048 15.8314676,106.314019 L18.5038908,104.154598 Z" id="Shape" fill="#281446"/>
          <path d="M23.5238225,102.606945 C20.8189078,98.2516399 16.2132423,88.9333119 16.2132423,88.8968489 C14.9420137,87.0899035 13.4433447,84.4402572 11.3395222,83.5813505 C9.23569966,82.7224437 8.51682594,83.812283 8.84580205,85.7772347 C9.10650756,86.8199448 9.54919037,87.8087321 10.1535836,88.698328 C10.0154949,88.4836013 12.3954949,90.6389711 10.6206485,90.2945981 C8.84580205,89.9502251 7.1034471,85.4004502 4.6259727,87.2114469 C4.51225256,89.8610932 5.84440273,91.6680386 7.46897611,93.6370418 C7.42430034,94.0421865 7.2496587,94.1839871 6.88412969,94.1637299 C5.69819113,93.0455305 3.4847099,89.9542765 1.60426621,90.0474598 C-1.71798635,90.2095177 2.61556314,96.5986495 2.61556314,96.5986495 C2.61556314,96.5986495 8.3909215,106.103344 12.5863823,108.465338 L23.5238225,102.606945 Z" id="Shape" fill="#F04650"/>
          <path d="M18.6825939,92.6403859 C17.9027986,90.6146624 18.5404437,86.3403859 20.9894881,86.287717 C23.9259044,86.2269453 23.6294198,90.602508 23.5684983,92.7700322 C23.462901,96.4163344 23.9137201,101.590032 20.5467918,103.708939 C19.2308874,104.543537 17.4154266,106.309968 15.9126962,106.642186 C14.2353242,107.010868 13.5245734,105.102637 12.7447782,103.648167 C11.4938567,101.310482 11.2664164,99.005209 12.3792491,96.5540836 C13.8088737,93.4182637 15.8111604,93.6451447 18.6825939,92.6403859 Z" id="Shape" fill="#F01446"/>
          <path d="M23.2313993,100.560965 C24.1411604,102.100514 25.111843,102.991833 23.8,104.677235 C22.7440273,106.06283 16.1157679,109.717235 14.5033788,110.199357 C12.1518089,110.896206 11.6603754,109.765852 10.7831058,107.736077 C11.0189516,107.60586 11.2455695,107.459665 11.4613652,107.298521 C13.4108532,106.010161 15.3955404,104.773119 17.4154266,103.587395 C19.0887372,102.615048 21.3631399,100.82836 23.2313993,100.560965 Z" id="Shape" fill="#BE0A3C"/>
          <path d="M98.8431058,16.497492 C98.3679181,11.3197428 97.9617747,5.52617363 92.454471,3.20874598 C86.7075427,0.777877814 83.0806826,4.01903537 81.1393174,9.37909968 C79.4172696,14.1476527 78.8527304,19.3861736 78.0729352,24.3694534 C77.7074061,26.7111897 76.2696587,37.5893248 73.1423549,39.5259164 C70.5714676,38.488746 71.3959386,24.6206431 71.1522526,21.0796785 C70.6811263,14.1922186 71.493413,4.29453376 63.9188396,1.22758842 C60.2432423,-0.267395498 55.414198,0.303858521 52.1406826,2.57266881 C48.6316041,5.00353698 48.2985666,10.0718971 48.1767235,13.9977492 C47.9695904,20.7353055 49.3951536,27.7726688 50.4470648,34.4210932 C50.6704437,35.8593569 51.7751536,41.5111254 48.8224915,41.4868167 C46.8933106,41.4868167 42.5313311,25.5605788 41.4753584,22.3599357 C40.4559386,19.2767846 39.0872355,15.1969775 36.8575085,12.7823151 C30.5297952,5.93131833 22.2363481,13.4062379 20.8229693,20.5246302 C19.2755631,28.3803859 21.9601706,37.0099678 23.6294198,44.6185852 C25.5179863,53.2360129 26.9679181,61.9142122 28.9092833,70.4992283 C29.9449488,75.1219293 31.5004778,89.7517042 32.2355973,91.7693248 L81.9800341,94.6053376 C82.9588396,92.3486817 83.149727,89.3749196 83.6777133,86.9886174 C84.8961433,81.4732476 86.1145734,75.9578778 87.3330034,70.442508 C89.0834812,62.4773633 90.2572355,54.0706109 92.669727,46.275627 C94.3308532,40.9115113 95.996041,35.7621222 96.9829693,30.2075884 C97.6815358,26.0305466 99.2330034,20.731254 98.8431058,16.497492 Z" id="Shape" fill="#F04650"/>
          <path d="M118.740068,43.8650161 C118.65884,43.2127331 118.358294,41.7420579 118.439522,41.6245659 C115.77116,29.9726045 103.875222,35.9282315 98.985256,42.2565916 C96.3656314,45.6436013 91.9305461,49.8003859 87.6619795,50.7889389 C82.9425939,51.8828296 77.6302389,50.3837942 72.7768259,50.817299 C62.2861433,51.777492 54.7765529,58.758135 52.022901,68.7003859 C50.6257679,73.7484887 50.317099,79.1045016 50.0815358,84.3187138 C49.9637543,86.9562058 49.127099,90.5538907 49.5048123,93.1184566 L82.6298635,93.3453376 C89.5058703,87.0899035 96.2762799,80.9154984 102.758328,74.2589711 C106.779147,70.1264952 110.198874,65.4389711 113.476451,60.706881 C116.652491,56.1125402 119.463003,49.5451447 118.740068,43.8650161 Z" id="Shape" fill="#F01446"/>
          <path d="M88.425529,89.6787781 C88.425529,89.6787781 60.7793515,89.3263023 53.4200341,89.2979421 L53.4200341,107.71582 C65.3890785,107.768489 87.8325597,106.958199 87.8325597,106.958199 L88.425529,89.6787781 Z" id="Shape" fill="#BE0A3C"/>
          <path d="M41.865256,108.736785 C38.2668259,108.607138 34.2094539,108.870482 30.7409898,107.825209 C30.4607509,105.203923 30.0505461,88.2243087 30.0505461,88.2243087 C30.0505461,88.2243087 49.9840614,88.7307395 50.1546416,88.4754984 C55.7959727,88.4754984 66.3191468,88.5727331 67.4319795,95.9585209 C67.9477816,99.3900965 66.7252901,103.814277 64.0934812,106.143859 C61.2179863,108.688167 57.2662116,108.63955 53.6677816,108.979871 C53.6474744,108.983923 45.7886007,108.878585 41.865256,108.736785 Z" id="Shape" fill="#281446"/>
          <path d="M52.3193485,106.014212 C49.2651401,105.872412 46.2271775,105.89672 43.172969,105.799486 C40.3746318,105.706302 31.5084922,105.523987 28.8076297,104.786624 C28.5883115,102.943215 28.600374,91.2507395 28.600374,91.2507395 C28.600374,91.2507395 49.4885197,91.7126045 49.6225475,91.5343408 C54.0129721,91.5343408 62.2130343,91.6032154 63.0659383,96.8012219 C63.472083,99.23209 62.5135814,102.335498 60.4666119,103.972283 C58.2287544,105.763023 55.1542388,105.726559 52.3437172,105.969646 L52.3193485,106.014212 Z" id="Shape" fill="#F01446"/>
        </g>
      </g>
    </g>
  </g>
</svg>