<svg width="189px" height="108px" viewBox="0 0 189 108" version="1.1" xml:space="preserve" xmlns="http://www.w3.org/2000/svg" xmlns:xlink="http://www.w3.org/1999/xlink">
  <defs/>
  <g>
    <title>fox-b</title>
    <desc>Created with Sketch.</desc>
    <g id="mountain" stroke="none" stroke-width="1" fill="none" fill-rule="evenodd">
      <g id="fox-b">
        <g id="Group-126" transform="translate(53.000000, 6.000000)">
          <path d="M28.03524,92.6805051 C28.03524,92.6805051 19.34784,89.5176462 18.80544,76.9511718 C18.28044,64.7992615 36.48024,53.9531077 32.53044,37.181941 C30.30264,27.7240949 24.35544,16.0168769 1.48044,18.5777744 C1.48044,18.5777744 18.33024,20.9627231 12.73044,38.4870949 C8.82744,50.7010692 -1.86996,60.380659 1.03044,74.2396333 C3.53484,86.2089667 13.48044,93.7765692 29.38044,93.7765692" id="Fill-64" fill="#D9824C"/>
          <path d="M1.90038,18.6524923 C1.69578,18.6759923 14.70498,20.6361333 13.72998,32.8380564 L14.83038,31.9468641 L15.73038,33.3026333 L17.43678,31.5136205 L18.24258,32.9260308 C18.24258,32.9260308 19.29258,31.1556974 19.44258,31.1556974 C19.59258,31.1556974 20.92398,32.9260308 20.92398,32.9260308 L21.73038,30.7230564 L23.53038,32.0975051 L24.03678,29.9505692 C24.03678,29.9505692 25.40538,31.1749795 25.55538,31.1749795 C25.70538,31.1749795 26.23038,29.1600051 26.23038,29.1600051 L27.82398,30.0638513 L28.03518,28.2374795 L29.35818,28.8340179 C29.35818,28.8340179 24.35538,16.0668897 1.90038,18.6524923" id="Fill-66" fill="#F5CEB8"/>
          <path d="M28.47966,92.881159 C28.47966,92.881159 19.34826,89.5176462 18.80526,76.9511718 C18.28026,64.7992615 36.48006,53.9531077 32.53026,37.1813385 C30.30306,27.7240949 24.35526,16.0162744 1.48026,18.5771718 C1.48026,18.5771718 18.33006,20.9627231 12.73026,38.4870949 C8.82726,50.7010692 -1.87014,60.3800564 1.03026,74.2396333 C3.53466,86.2089667 13.48026,93.7765692 29.38026,93.7765692" id="Stroke-68" stroke="#80432F" stroke-width="0.5"/>
          <path d="M62.89998,56.3674615 C62.89998,56.3674615 65.23338,61.9038205 62.51178,63.7488718 L67.26918,93.7517436 L77.46918,93.7517436 C77.46918,93.7517436 75.77178,90.4093205 74.19978,89.7971154 C73.21638,89.4144872 72.08538,90.0833333 71.29278,90.3370128 L71.47758,46.9337179 C71.47758,46.9337179 61.33938,46.1051923 62.90358,56.292141" id="Fill-70" fill="#BF6C46"/>
          <path d="M71.55192,47.2536795 C71.14392,52.1495128 71.24352,90.437641 71.24352,90.437641 C71.24352,90.437641 73.68432,89.2072051 74.61672,90.0104231 C76.47132,91.3414872 77.46672,93.8017564 77.46672,93.8017564 L67.26672,93.8017564 L62.51172,63.7488718 C65.23332,61.9032179 62.89992,56.3674615 62.89992,56.3674615" id="Stroke-72" stroke="#80432F" stroke-width="0.5"/>
          <path d="M74.78892,93.79555 C74.78892,93.79555 74.78232,93.7377038 74.76432,93.6575628 C74.75052,93.5762167 74.71872,93.4544987 74.67612,93.3068705 C74.58792,93.0146269 74.43732,92.6283833 74.22132,92.2746782 L74.05812,92.0113577 C74.00892,91.9203705 73.93512,91.8504731 73.87632,91.7727423 C73.74972,91.6245115 73.64592,91.4684474 73.52172,91.3714346 C73.28832,91.1575244 73.13232,91.0153192 73.13232,91.0153192 C73.13232,91.0153192 73.30512,91.1376397 73.56492,91.3220244 C73.70352,91.4051782 73.82652,91.5479859 73.97532,91.6835628 C74.04492,91.7552679 74.13072,91.8197423 74.19252,91.9053064 L74.39532,92.1559731 C74.66472,92.4958192 74.87472,92.8814603 75.00852,93.1833449 C75.07332,93.3345885 75.12492,93.4641397 75.15432,93.5623577 C75.18312,93.6551526 75.19992,93.7075756 75.19992,93.7075756 L74.78892,93.79555 Z" id="Fill-74" fill="#80432F"/>
          <path d="M61.03554,21.63645 C61.03554,21.63645 61.10514,23.6405782 64.88094,23.9972962 C66.64734,24.1642064 69.22434,23.9707833 72.98574,23.0422321 C84.78534,20.1300397 86.98554,19.3268218 86.98554,19.3268218 C86.98554,19.3268218 90.63534,17.8704244 89.58534,14.0037705 L78.68574,14.0037705 C78.68574,14.0037705 75.13554,10.0871038 73.18554,8.68132179 L63.78534,8.68132179 L62.08554,0.446078205 C62.08554,0.446078205 52.23534,25.3524628 47.93574,30.7249244" id="Stroke-76" stroke="#80432F" stroke-width="0.5"/>
          <polyline id="Stroke-78" stroke="#80432F" stroke-width="0.5" points="66.18534 8.68132179 70.89894 1.04864231 70.89894 8.68132179"/>
          <path d="M30.13758,65.360309 C26.54178,73.8389885 28.63938,93.6193603 28.63938,93.6193603 L61.12398,93.6193603 C62.02158,92.8149372 60.73638,70.6212962 61.65738,69.5306551 C71.83938,57.4763603 66.80778,26.2689628 69.71298,23.859309 C71.17758,23.4700526 70.88658,23.506809 72.87918,23.0422321 C84.71598,20.2848987 86.87958,19.3268218 86.87958,19.3268218 C86.87958,19.3268218 90.52938,17.8704244 89.47938,14.0037705 L78.57918,14.0037705 C78.57918,14.0037705 75.02958,10.0877064 73.07958,8.68132179 L63.67938,8.68132179 L62.08578,0.446078205 C62.08578,0.446078205 50.11578,26.8558603 49.00218,28.6978987 C40.59258,42.6086936 30.13758,65.360309 30.13758,65.360309" id="Fill-80" fill="#D9824C"/>
          <polyline id="Fill-82" fill="#D9824C" points="66.18534 8.68132179 70.89894 1.04864231 70.89894 8.68132179"/>
          <polygon id="Fill-84" fill="#F5CEB8" points="60.1821 11.5770641 62.1351 1.50038462 63.7851 8.68114103"/>
          <polyline id="Stroke-86" stroke="#80432F" stroke-width="0.5" points="63.77508 8.68132179 59.96028 11.7556038 62.06028 1.04864231"/>
          <path d="M68.32284,8.68132179 L70.68204,1.68916795" id="Stroke-88" stroke="#80432F" stroke-width="0.5"/>
          <path d="M75.53544,14.7069628 C75.53544,14.7069628 73.91064,13.1752449 73.33524,12.7739372 L70.06044,12.7739372 C70.06044,12.7739372 71.04804,14.9076167 75.53544,14.7069628" id="Fill-90" fill="#232020"/>
          <path d="M89.90556,16.1239526 C89.88816,16.1974654 86.81676,15.86485 86.81676,13.8058885 L89.71656,13.8058885 C89.71656,13.8058885 90.19476,14.9079782 89.90556,16.1239526" id="Fill-92" fill="#232020"/>
          <path d="M46.71288,87.1126321 C83.43048,58.9789141 70.12968,25.8595808 69.81948,23.8590679 C69.79608,23.7084269 66.91548,24.0307987 66.91548,24.0307987 C66.83268,24.4254782 68.62908,55.2948372 44.81148,66.5109654" id="Fill-94" fill="#F5CEB8"/>
          <path d="M50.38026,89.9854167 C50.38026,89.9854167 51.69666,85.8445962 52.01586,82.8197244 L57.12966,77.9642628 L59.69526,89.631109 C59.69526,89.631109 56.03046,90.3620192 50.38026,89.9854167" id="Fill-96" fill="#AA5E3B"/>
          <path d="M69.7959,23.7083667 C69.7959,23.7083667 83.5305,60.7865462 46.2303,87.462059" id="Stroke-98" stroke="#80432F" stroke-width="0.5"/>
          <path d="M68.32284,8.68132179 C68.37264,8.60600128 70.71024,1.90247564 70.71024,1.90247564 L70.89864,8.68132179 L68.32284,8.68132179 Z" id="Fill-100" fill="#F5CEB8"/>
          <path d="M66.81054,24.035559 C66.81054,24.035559 68.28054,56.2673154 44.73054,66.5109051" id="Stroke-102" stroke="#80432F" stroke-width="0.5"/>
          <path d="M61.03554,21.63645 C61.03554,21.63645 61.10514,23.6405782 64.88094,23.9972962 C66.64734,24.1642064 69.22434,23.9707833 72.98574,23.0422321 C84.78534,20.1300397 86.98554,19.3268218 86.98554,19.3268218 C86.98554,19.3268218 90.63534,17.8704244 89.58534,14.0037705 L78.68574,14.0037705 C78.68574,14.0037705 75.13554,10.0871038 73.18554,8.68132179 L63.78534,8.68132179 L62.08554,0.446078205 C62.08554,0.446078205 51.14934,24.9746551 47.93574,30.7249244 C46.18974,33.8064372 36.20514,51.1403987 30.57954,64.1491551 C26.88534,72.692309 28.48014,82.8431038 28.49874,93.7766295 L43.03014,93.7766295" id="Stroke-104" stroke="#80432F" stroke-width="0.5"/>
          <polyline id="Stroke-106" stroke="#80432F" stroke-width="0.5" points="66.18534 8.68132179 70.89894 1.04864231 70.89894 8.68132179"/>
          <path d="M75.59256,14.6869577 C74.80296,14.1253679 74.05716,13.5131628 73.32636,12.8840859 L73.42296,12.9208423 C72.62256,12.9292782 71.82276,12.9178295 71.02296,12.89915 C70.22256,12.8702269 69.42276,12.8431115 68.62296,12.7738167 C69.42276,12.7039192 70.22256,12.6774064 71.02296,12.6478808 C71.82276,12.6292013 72.62256,12.6183551 73.42296,12.626791 L73.47996,12.626791 L73.51956,12.6629449 C74.23476,13.3094962 74.93616,13.9729192 75.59256,14.6869577" id="Fill-108" fill="#80432F"/>
          <path d="M54.24276,56.3924679 C54.24276,56.3924679 56.86776,61.9288269 54.24276,63.7738782 L60.58056,93.77675 L70.77996,93.77675 C70.77996,93.77675 68.90676,90.4337244 67.30236,89.8221218 C66.29916,89.4394936 65.20296,90.1083397 64.42416,90.3620192 L62.32416,46.9587244 C62.32416,46.9587244 52.14276,46.1301987 54.24276,56.3171474" id="Fill-110" fill="#D9824C"/>
          <path d="M62.41512,47.2786859 C62.26512,52.1745192 64.38012,90.4626474 64.38012,90.4626474 C64.38012,90.4626474 66.75552,89.2322115 67.73052,90.0354295 C69.65532,91.365891 70.78032,93.8267628 70.78032,93.8267628 L60.58032,93.8267628 L54.24252,63.7738782 C56.86752,61.9282244 54.24252,56.3924679 54.24252,56.3924679" id="Stroke-112" stroke="#80432F" stroke-width="0.5"/>
          <path d="M68.10222,93.8308603 C68.10222,93.8308603 68.09262,93.7730141 68.06982,93.6922705 C68.05182,93.6085141 68.01222,93.485591 67.96182,93.3361551 C67.85682,93.0415013 67.68522,92.6528474 67.45062,92.2991423 L67.27362,92.0352192 C67.21962,91.9436295 67.14162,91.8749372 67.07922,91.7966038 C66.94542,91.6483731 66.83382,91.4929115 66.70542,91.3958987 C66.46182,91.1819885 66.29922,91.0397833 66.29922,91.0397833 C66.29922,91.0397833 66.47802,91.1615013 66.74742,91.3452833 C66.89022,91.4290397 67.02042,91.5694372 67.17582,91.7050141 C67.24902,91.7767192 67.33842,91.8393859 67.40442,91.92495 L67.61982,92.1744115 C67.90722,92.5112449 68.13762,92.8956808 68.28822,93.1969628 C68.36082,93.348809 68.42022,93.4777577 68.45502,93.5765782 C68.48922,93.6693731 68.50842,93.7223987 68.50842,93.7223987 L68.10222,93.8308603 Z" id="Fill-114" fill="#80432F"/>
          <path d="M42.39276,87.4621795 L41.30556,91.6421667 C41.30556,91.6421667 40.17996,93.8270641 43.02996,93.8270641 L64.81776,93.8270641 C64.81776,93.8270641 62.98056,89.4391923 60.96516,89.5337949 C60.96516,89.5337949 59.55936,89.8055513 58.70496,89.8995513 C55.99956,90.1978205 52.55676,90.0983974 49.03056,90.0983974" id="Fill-116" fill="#D9824C"/>
          <path d="M50.48046,90.1024949 C55.23066,68.8621103 54.33066,65.179841 49.63026,64.7279179 C45.05106,64.2880462 35.79306,73.6410462 35.79306,73.6410462 C35.79306,73.6410462 42.80526,83.5080333 42.61806,87.462059 C42.43026,91.4166872 50.38026,91.9812897 50.49306,89.9855974" id="Fill-118" fill="#D9824C"/>
          <path d="M42.39276,87.4621795 L41.30556,91.6421667 C41.30556,91.6421667 40.64916,93.8270641 43.02996,93.8270641 L64.81776,93.8270641 C64.81776,93.8270641 62.98056,89.4391923 60.96516,89.5337949 C60.96516,89.5337949 59.55936,89.8055513 58.70496,89.8995513 C55.99956,90.1978205 52.55676,90.0983974 49.03056,90.0983974" id="Stroke-120" stroke="#80432F" stroke-width="0.5"/>
          <path d="M50.48046,90.1024949 C55.23066,68.8621103 54.33066,65.179841 49.63026,64.7279179 C45.05106,64.2880462 36.48066,73.0637897 36.48066,73.0637897" id="Stroke-122" stroke="#80432F" stroke-width="0.5"/>
          <path d="M61.27986,93.7490923 C61.27986,93.7490923 61.28346,93.6972718 61.27866,93.6376179 C61.28106,93.5779641 61.25886,93.4725154 61.24146,93.3501949 C61.20066,93.2320923 61.17906,93.0820538 61.10406,92.938041 C61.07106,92.8639256 61.03746,92.7874 61.00326,92.7090667 L60.86466,92.4891308 C60.81546,92.4174256 60.77826,92.3342718 60.71826,92.2716051 C60.66186,92.2047205 60.60606,92.1402462 60.55206,92.0775795 C60.44826,91.9450154 60.33846,91.833541 60.23226,91.7509897 C60.02886,91.5726308 59.89266,91.4533231 59.89266,91.4533231 C59.89266,91.4533231 60.04506,91.5521436 60.27306,91.6991692 C60.39246,91.7678615 60.52026,91.8630667 60.64506,91.9817718 C60.71046,92.0390154 60.77826,92.0980667 60.84606,92.1577205 C60.91806,92.2149641 60.96906,92.2939 61.03266,92.3625923 L61.21386,92.5765026 C61.26366,92.6548359 61.31226,92.7325667 61.35966,92.8078872 C61.46406,92.9537077 61.51626,93.1164 61.58046,93.247759 C61.62366,93.388759 61.66566,93.5014385 61.67826,93.5996564 C61.69746,93.6972718 61.69986,93.7364385 61.69926,93.7364385 L61.27986,93.7490923 Z" id="Fill-124" fill="#80432F"/>
        </g>
      </g>
    </g>
  </g>
</svg>