<svg version="1.1" width="44" height="66" viewBox="-1 -1 44 66" xmlns="http://www.w3.org/2000/svg" xmlns:xlink="http://www.w3.org/1999/xlink">
  <!-- Exported by Scratch - http://scratch.mit.edu/ -->
  <path id="Shape" fill="#010001" stroke="none" stroke-width="1" d="M 19.122 56.350 C 19.274 48.400 19.173 40.450 19.173 32.450 C 18.616 32.400 18.161 32.350 17.706 32.350 C 16.239 32.450 14.822 32.250 13.355 32.050 C 12.091 31.900 10.775 31.750 9.511 31.500 C 8.145 31.250 6.880 30.800 5.565 30.400 C 4.958 30.200 4.351 29.950 3.744 29.750 C 2.782 29.450 1.973 28.800 1.113 28.350 C 0.809 28.200 0.708 27.850 0.658 27.550 C 0.556 26.250 0.506 24.900 0.759 23.600 C 0.809 23.400 0.860 23.200 1.012 23.100 C 1.416 22.900 1.366 22.550 1.366 22.150 C 1.265 18.400 1.164 14.650 1.315 10.950 C 1.164 10.500 0.658 10.500 0.556 10.150 C 0.455 9.800 0.455 9.450 0.405 9.100 C 0.354 8 0.354 6.850 0.304 5.750 C 0.253 5.100 0.556 4.700 1.062 4.400 C 2.024 3.800 3.086 3.400 4.148 3.050 C 6.324 2.350 8.499 1.850 10.725 1.500 C 12.596 1.200 14.468 1 16.391 0.800 C 20.539 0.400 24.687 0.250 28.835 0.450 C 31.719 0.550 34.552 0.850 37.385 1.350 C 38.295 1.500 39.206 1.750 40.066 2 C 40.369 2.100 40.673 2.200 40.976 2.350 C 42.140 2.850 42.696 3.800 42.696 5 C 42.747 6.050 42.798 7.050 42.545 8.100 C 42.494 8.400 42.494 8.750 42.494 9.050 C 42.191 9.300 41.938 9.500 41.584 9.750 C 41.584 13.200 41.584 16.650 41.584 20.350 C 41.634 20.550 42.140 20.550 42.241 20.950 C 42.342 21.350 42.393 21.750 42.444 22.150 C 42.545 23.450 42.545 24.800 42.545 26.100 C 42.545 26.650 42.292 27 41.887 27.300 C 41.735 27.400 41.634 27.500 41.482 27.550 C 39.459 28.600 37.435 29.550 35.260 30.150 C 34.501 30.350 33.793 30.500 33.034 30.650 C 31.314 31 29.645 31.350 27.925 31.650 C 26.964 31.800 26.002 31.900 25.041 32 C 24.586 32.050 24.131 32.050 23.726 32.250 C 23.473 32.600 23.625 33 23.625 33.400 C 23.625 35.900 23.625 38.350 23.574 40.800 C 23.524 42.900 23.574 45 23.574 47.100 C 23.574 50 23.726 52.950 23.625 55.850 C 23.625 56.150 23.625 56.400 23.675 56.650 C 23.878 57 24.131 57.050 24.384 57.150 C 26.154 57.700 27.925 58.250 29.695 58.700 C 30.758 59 31.769 59.300 32.781 59.650 C 33.236 59.800 33.641 59.800 34.096 59.850 C 34.956 59.900 35.766 60.200 36.474 60.600 C 37.536 61.200 37.891 62.450 37.385 63.500 C 36.727 64.700 35.513 65.200 34.349 64.600 C 33.844 64.350 33.338 64.050 32.933 63.700 C 32.579 63.350 32.174 63.150 31.719 62.950 C 29.189 61.950 26.660 61.050 24.029 60.400 C 23.827 60.350 23.675 60.350 23.422 60.400 C 22.259 60.800 21.045 60.650 19.831 60.400 C 19.274 60.300 18.718 60.250 18.161 60.450 C 17.807 60.600 17.453 60.650 17.099 60.700 C 14.772 61.300 12.495 62.200 10.269 63.100 C 10.016 63.200 9.814 63.350 9.561 63.550 C 9.106 64 8.549 64.300 7.942 64.600 C 6.475 65.350 4.654 63.900 4.755 62.450 C 4.806 61.550 5.160 60.850 6.071 60.450 C 6.829 60.100 7.639 59.800 8.499 59.800 C 9.055 59.800 9.511 59.650 10.016 59.500 C 11.787 58.850 13.659 58.500 15.429 57.900 C 16.289 57.650 17.149 57.400 17.959 57.150 C 18.515 57 18.718 56.550 19.122 56.350 Z M 17.554 9.250 C 17.301 9.200 17.048 9.200 16.846 9.250 C 15.784 9.150 14.721 9.150 13.709 9.200 C 13.659 9.150 13.608 9.150 13.558 9.150 C 12.799 8.950 11.989 9 11.180 8.900 C 8.499 8.650 5.818 8.300 3.238 7.500 C 2.681 7.350 2.074 7.100 1.518 6.900 C 1.366 7.450 1.568 7.950 1.568 8.450 C 1.568 9.600 1.619 9.900 3.086 10.400 C 3.288 10.450 3.491 10.550 3.642 10.600 C 5.008 10.950 6.374 11.300 7.791 11.550 C 9.359 11.800 10.927 12.150 12.546 12.050 C 12.951 12.150 13.355 12.150 13.760 12.100 C 14.165 12.250 14.569 12.200 14.974 12.200 C 18.262 12.400 21.601 12.200 24.889 12.050 C 26.053 12 27.216 11.950 28.380 11.800 C 31.719 11.400 35.007 11 38.245 9.950 C 39.459 9.550 40.572 9.150 41.634 8.400 C 41.786 7.450 41.786 6.500 41.735 5.550 C 41.735 5.500 41.634 5.450 41.584 5.400 C 40.218 6 38.902 6.700 37.435 7.100 C 32.579 8.300 27.621 8.900 22.613 9.100 C 21.500 9.150 20.438 9.150 19.325 9.200 C 19.224 9.200 19.173 9.200 19.072 9.200 C 18.515 9.150 18.060 9.100 17.554 9.250 Z M 12.647 30.850 C 12.748 30.900 12.849 31 12.951 31 C 15.075 31.100 17.200 31.400 19.325 31.300 C 19.982 31.250 20.589 31.350 21.247 31.150 C 21.449 31.200 21.702 31.250 21.905 31.100 C 22.107 31.100 22.309 31.100 22.512 31.100 C 27.014 30.900 31.415 30.100 35.715 28.850 C 37.536 28.350 39.155 27.500 40.774 26.600 C 40.976 26.500 41.179 26.350 41.280 26.150 C 41.280 25.050 41.280 23.900 41.280 22.750 C 40.875 22.800 40.622 23 40.369 23.200 C 39.914 23.550 39.408 23.850 38.902 24.050 C 36.929 24.900 34.906 25.550 32.832 26.050 C 30.555 26.600 28.228 26.900 25.901 27.250 C 25.244 27.350 24.636 27.450 23.979 27.500 C 23.271 27.550 22.512 27.600 21.804 27.750 C 20.488 27.650 19.224 27.700 17.908 27.750 C 16.391 27.600 14.822 27.500 13.305 27.550 C 13.001 27.550 12.698 27.500 12.394 27.500 C 12.141 27.300 11.888 27.350 11.585 27.300 C 9.258 27 7.032 26.400 4.755 25.750 C 3.895 25.500 3.136 25.100 2.327 24.750 C 1.872 24.550 1.619 24.750 1.568 25.200 C 1.518 26.050 1.568 26.850 1.669 27.750 C 1.973 27.950 2.276 28.100 2.580 28.300 C 3.895 29.050 5.362 29.400 6.779 29.800 C 8.600 30.350 10.421 30.900 12.293 30.850 L 12.394 30.900 L 12.647 30.850 Z M 15.834 13.500 C 15.682 13.500 15.531 13.500 15.429 13.500 C 15.126 13.300 14.822 13.350 14.468 13.350 C 13.406 13.300 12.293 13.300 11.281 13.150 C 11.079 13.350 11.079 13.550 11.028 13.750 C 11.028 14.100 11.028 14.450 10.978 14.850 C 10.876 15.600 10.573 15.850 9.814 15.950 C 9.561 15.950 9.308 15.900 9.106 16.100 C 8.802 18.150 8.752 20.250 8.853 22.350 C 9.106 22.450 9.308 22.500 9.460 22.550 C 10.269 22.850 10.674 23.450 10.725 24.300 C 10.725 24.600 10.725 24.950 10.725 25.250 C 10.725 25.500 10.674 25.750 10.978 26 C 12.192 25.900 13.507 26.300 14.822 26.250 C 16.239 26.300 17.655 26.400 19.021 26.450 C 19.578 26.450 20.134 26.550 20.691 26.300 C 21.146 26.350 21.652 26.400 22.107 26.250 C 22.259 26.250 22.411 26.300 22.562 26.300 C 25.193 26.050 27.773 25.800 30.353 25.350 C 31.061 25.250 31.719 24.950 32.427 24.750 C 32.225 22.800 32.882 21.400 34.906 20.900 C 34.805 19.050 35.007 17.250 34.805 15.400 C 34.602 15.350 34.451 15.300 34.299 15.250 C 33.186 14.950 32.984 14.700 32.832 13.550 C 32.781 13.200 32.832 12.750 32.579 12.450 C 31.011 12.650 29.493 12.900 27.975 13.050 C 25.648 13.300 23.321 13.400 20.994 13.400 C 20.741 13.400 20.488 13.350 20.286 13.550 C 19.578 13.450 18.869 13.500 18.161 13.600 C 17.453 13.450 16.644 13.350 15.834 13.500 Z M 38.649 5.450 C 38.498 5.150 38.295 5.150 38.144 5.100 C 37.081 4.900 36.019 4.700 34.906 4.500 C 32.478 4.100 29.999 3.950 27.571 3.850 C 24.333 3.750 21.095 3.800 17.858 4.100 C 16.138 4.250 14.418 4.400 12.698 4.650 C 10.522 5 8.347 5.500 6.222 6.100 C 5.767 6.250 5.261 6.300 4.806 6.650 C 4.907 6.700 4.958 6.800 5.059 6.800 C 5.261 6.850 5.413 6.950 5.615 7 C 8.044 7.500 10.472 7.850 12.951 7.900 C 15.480 7.950 17.959 8 20.488 7.950 C 23.018 7.950 25.496 7.750 27.975 7.500 C 29.898 7.350 31.820 6.950 33.742 6.650 C 35.361 6.500 36.980 6.050 38.649 5.450 Z M 41.229 4.050 C 41.128 3.700 40.926 3.600 40.724 3.500 C 40.066 3.150 39.408 2.900 38.700 2.700 C 36.879 2.250 35.058 2 33.236 1.800 C 31.618 1.600 29.948 1.550 28.279 1.500 C 23.726 1.400 19.173 1.550 14.620 2.050 C 11.433 2.400 8.296 2.950 5.261 3.800 C 4.604 4 3.946 4.200 3.288 4.450 C 2.782 4.600 2.327 4.900 1.973 5.250 C 1.821 5.400 1.771 5.600 1.922 5.800 C 2.479 6.350 3.238 6.450 3.895 6.100 C 4.553 5.750 5.211 5.450 5.919 5.250 C 6.931 4.950 7.942 4.700 8.954 4.450 C 12.192 3.650 15.480 3.200 18.768 3.050 C 24.181 2.850 29.594 2.750 34.956 3.500 C 36.575 3.750 38.245 3.900 39.813 4.500 C 40.369 4.750 40.825 4.600 41.229 4.050 Z M 7.487 21.950 C 7.487 19.950 7.487 17.900 7.538 15.800 C 7.184 15.650 6.880 15.550 6.576 15.450 C 5.666 15.150 5.211 14.550 5.312 13.550 C 5.362 13.150 5.312 12.700 5.312 12.250 C 4.249 11.950 3.288 11.650 2.226 11.350 C 2.226 11.650 2.175 11.850 2.175 12.050 C 2.175 13.550 2.175 15.100 2.226 16.600 C 2.226 17.800 2.378 19 2.327 20.200 C 2.276 21.300 2.428 22.400 2.529 23.550 C 3.339 24.050 4.148 24.350 5.109 24.550 C 5.160 24.100 5.160 23.750 5.211 23.400 C 5.362 22.550 5.716 22.250 6.576 22.150 C 6.880 22.100 7.082 22.200 7.487 21.950 Z M 22.411 56.450 C 22.411 48.400 22.411 40.500 22.411 32.550 C 22.411 32.500 22.360 32.500 22.360 32.450 C 22.360 32.400 22.309 32.400 22.208 32.300 C 21.601 32.300 20.994 32.300 20.336 32.500 C 20.336 32.650 20.286 32.850 20.286 33 C 20.336 33.850 20.387 34.650 20.387 35.500 C 20.387 39.550 20.387 43.550 20.387 47.600 C 20.387 49.850 20.286 52.150 20.336 54.400 C 20.336 55.050 20.185 55.750 20.438 56.400 C 21.045 56.550 21.652 56.600 22.411 56.450 Z M 38.295 22.900 C 38.902 22.600 39.358 22.400 39.813 22.100 C 40.218 21.850 40.369 21.550 40.420 21 C 40.673 17.600 40.521 14.250 40.572 10.850 C 40.572 10.650 40.572 10.450 40.268 10.350 C 39.762 10.550 39.206 10.800 38.700 11 C 38.498 11.400 38.599 11.800 38.649 12.150 C 38.852 13.500 38.245 14.400 37.031 14.900 C 36.778 15 36.525 15.150 36.272 15.250 C 36.272 17.050 36.272 18.850 36.272 20.650 C 36.626 20.700 36.929 20.750 37.284 20.800 C 37.840 20.900 38.144 21.250 38.194 21.750 C 38.245 22.100 38.245 22.400 38.295 22.900 Z M 32.225 62.200 C 32.629 61.750 32.933 61.300 32.781 60.700 C 31.921 60.350 24.586 58.300 23.928 58.200 C 23.827 58.600 23.827 58.950 24.029 59.400 C 26.812 60.150 29.544 61.050 32.225 62.200 Z M 18.212 58.200 C 17.301 58.450 16.340 58.750 15.379 59.050 C 14.418 59.350 13.456 59.550 12.495 59.900 C 11.534 60.200 10.522 60.300 9.612 60.800 C 9.662 61.350 9.814 61.850 10.168 62.100 C 10.472 62.200 10.573 62.100 10.725 62.050 C 11.989 61.500 13.305 61.050 14.569 60.650 C 15.632 60.300 16.694 59.950 17.807 59.650 C 18.313 59.500 18.465 59.300 18.465 58.800 C 18.515 58.550 18.465 58.350 18.212 58.200 Z M 37.132 11.500 C 36.069 11.750 35.007 11.800 34.046 12.200 C 34.046 12.950 34.248 13.550 34.451 14.200 C 35.412 14.400 36.171 14.250 36.980 13.800 C 37.233 13.650 37.385 13.500 37.385 13.250 C 37.385 12.700 37.536 12.150 37.132 11.500 Z M 19.729 57.200 C 19.679 57.950 19.628 58.500 19.578 59.100 C 19.578 59.500 19.831 59.800 20.134 59.750 C 20.944 59.650 21.804 59.950 22.714 59.600 C 22.714 59.250 22.765 58.900 22.714 58.550 C 22.664 58.200 22.866 57.850 22.562 57.450 C 21.652 57.600 20.741 57.400 19.729 57.200 Z M 6.576 23.200 C 6.222 23.750 6.071 24.250 6.324 24.900 C 7.335 25.300 8.347 25.600 9.561 25.550 C 9.561 25.150 9.612 24.750 9.612 24.350 C 9.612 24 9.409 23.750 9.055 23.650 C 8.246 23.400 7.487 23.100 6.576 23.200 Z M 33.945 24.350 C 34.906 24.350 35.715 23.950 36.525 23.700 C 36.778 23.650 36.929 23.400 36.929 23.150 C 36.980 22.750 37.081 22.300 36.778 21.900 C 36.373 21.900 36.019 21.850 35.665 21.900 C 34.400 22.250 33.692 22.200 33.945 24.350 Z M 6.678 14.300 C 7.791 14.800 8.296 14.850 9.713 14.550 C 9.814 14.050 9.865 13.500 9.612 12.900 C 8.549 12.850 7.588 12.450 6.526 12.500 C 6.526 13.200 6.526 13.700 6.678 14.300 Z "/>
  <path id="Shape" fill="#D0E9EA" stroke="none" stroke-width="1" d="M 20.387 13.500 C 20.589 13.350 20.842 13.350 21.095 13.350 C 23.422 13.350 25.749 13.250 28.076 13 C 29.594 12.850 31.112 12.600 32.680 12.400 C 32.933 12.700 32.882 13.150 32.933 13.500 C 33.085 14.650 33.287 14.900 34.400 15.200 C 34.552 15.250 34.704 15.300 34.906 15.350 C 35.108 17.150 34.906 19 35.007 20.850 C 32.933 21.350 32.275 22.750 32.528 24.700 C 31.820 24.900 31.162 25.200 30.454 25.300 C 27.874 25.700 25.294 26 22.664 26.250 C 22.512 26.250 22.360 26.250 22.208 26.200 C 22.461 25.750 23.119 26.200 23.422 25.700 C 23.422 23.800 23.422 21.850 23.422 19.900 C 23.422 19.800 23.422 19.650 23.422 19.550 C 23.119 18.850 23.220 18.150 23.220 17.450 C 23.220 16.350 23.220 15.300 23.220 14.200 C 23.220 13.950 23.271 13.700 23.018 13.550 C 22.107 13.550 21.247 13.500 20.387 13.500 Z "/>
  <path id="Shape" fill="#F4E6D0" stroke="none" stroke-width="1" d="M 38.649 5.450 C 37.031 6 35.361 6.450 33.692 6.750 C 31.769 7.050 29.898 7.400 27.925 7.600 C 25.446 7.800 22.916 8 20.438 8.050 C 17.908 8.050 15.429 8.050 12.900 8 C 10.421 7.950 7.993 7.600 5.565 7.100 C 5.362 7.050 5.160 7 5.008 6.900 C 4.958 6.850 4.856 6.800 4.755 6.750 C 5.211 6.450 5.666 6.350 6.172 6.200 C 8.296 5.600 10.472 5.100 12.647 4.750 C 14.367 4.500 16.087 4.350 17.807 4.200 C 21.045 3.950 24.282 3.900 27.520 3.950 C 29.999 4 32.427 4.150 34.855 4.600 C 35.918 4.800 36.980 4.950 38.093 5.200 C 38.295 5.150 38.447 5.200 38.649 5.450 Z "/>
  <path id="Shape" fill="#D0E9EA" stroke="none" stroke-width="1" d="M 19.274 9.250 C 20.387 9.200 21.449 9.200 22.562 9.150 C 27.571 8.950 32.528 8.350 37.385 7.150 C 38.852 6.800 40.167 6.050 41.533 5.450 C 41.584 5.500 41.685 5.550 41.685 5.600 C 41.735 6.550 41.735 7.500 41.584 8.450 C 40.521 9.200 39.358 9.600 38.194 10 C 35.007 11 31.668 11.400 28.329 11.850 C 27.166 12 26.002 12.050 24.839 12.100 C 21.551 12.250 18.212 12.450 14.924 12.250 C 14.519 12.250 14.114 12.300 13.709 12.150 C 13.709 11.200 13.709 10.200 13.709 9.250 C 14.772 9.200 15.834 9.200 16.846 9.300 C 16.391 10.200 16.644 11.150 16.694 12.100 C 17.706 12.100 18.667 12.100 19.578 12.100 C 20.235 11.500 19.982 10.750 19.982 10.050 C 19.982 9.550 19.426 9.550 19.274 9.250 Z M 39.408 7.900 C 38.953 7.700 38.599 7.750 38.194 7.900 C 37.284 8.200 36.373 8.550 35.462 8.700 C 33.844 8.950 32.275 9.400 30.656 9.700 C 30.252 9.750 29.999 10 29.796 10.300 C 30.100 10.800 30.555 10.700 30.960 10.600 C 32.124 10.400 33.287 10.150 34.451 9.900 C 35.766 9.600 37.081 9.300 38.396 8.850 C 38.801 8.700 39.206 8.500 39.408 7.900 Z "/>
  <path id="Shape" fill="#F3FFFF" stroke="none" stroke-width="1" d="M 20.387 13.500 C 21.247 13.550 22.056 13.550 22.866 13.600 C 23.119 13.800 23.068 14.050 23.068 14.250 C 23.068 15.350 23.068 16.400 23.068 17.500 C 23.068 18.200 22.967 18.950 23.271 19.600 C 23.321 19.700 23.271 19.850 23.271 19.950 C 23.271 21.900 23.271 23.850 23.271 25.750 C 22.967 26.250 22.309 25.800 22.056 26.250 C 21.601 26.400 21.146 26.350 20.640 26.300 C 19.831 26.150 19.021 26.400 18.262 26.150 C 18.212 26 18.161 25.950 18.161 25.900 C 18.161 21.800 18.161 17.650 18.161 13.550 C 18.971 13.450 19.679 13.400 20.387 13.500 Z "/>
  <path id="Shape" fill="#D0E9EA" stroke="none" stroke-width="1" d="M 21.905 27.700 C 22.613 27.550 23.321 27.500 24.080 27.450 C 24.738 27.400 25.345 27.300 26.002 27.200 C 28.329 26.850 30.656 26.550 32.933 26 C 35.007 25.500 37.031 24.800 39.004 24 C 39.509 23.800 40.015 23.500 40.471 23.150 C 40.724 22.950 40.976 22.750 41.381 22.700 C 41.381 23.850 41.381 24.950 41.381 26.100 C 41.280 26.300 41.078 26.450 40.875 26.550 C 39.256 27.450 37.638 28.300 35.816 28.800 C 31.466 30.050 27.065 30.800 22.613 31.050 C 22.411 31.050 22.208 31.050 22.006 31.050 C 21.905 29.950 21.905 28.800 21.905 27.700 Z M 39.560 25.150 C 39.054 25.300 38.447 25.400 37.891 25.550 C 37.081 25.750 36.272 26.100 35.462 26.200 C 34.299 26.350 33.236 26.750 32.073 27 C 31.820 27.050 31.618 27.200 31.415 27.300 C 31.213 27.400 31.112 27.550 31.264 27.850 C 31.820 27.950 32.427 27.950 33.034 27.800 C 34.602 27.400 36.120 27.050 37.688 26.650 C 38.396 26.450 39.054 26.250 39.661 25.800 C 39.914 25.650 39.914 25.400 39.560 25.150 Z "/>
  <path id="Shape" fill="#AACECF" stroke="none" stroke-width="1" d="M 41.229 4.050 C 40.825 4.600 40.369 4.750 39.762 4.500 C 38.194 3.900 36.575 3.700 34.906 3.500 C 29.544 2.750 24.080 2.800 18.718 3.050 C 15.429 3.200 12.141 3.650 8.904 4.450 C 7.892 4.700 6.880 4.950 5.868 5.250 C 5.160 5.450 4.502 5.750 3.845 6.100 C 3.187 6.450 2.428 6.350 1.872 5.800 C 1.720 5.650 1.720 5.400 1.922 5.250 C 2.327 4.900 2.732 4.600 3.238 4.450 C 3.895 4.250 4.553 4 5.211 3.800 C 8.296 2.950 11.433 2.400 14.569 2.050 C 19.122 1.550 23.675 1.450 28.228 1.500 C 29.898 1.550 31.567 1.600 33.186 1.800 C 35.007 2 36.879 2.250 38.649 2.700 C 39.358 2.900 40.015 3.150 40.673 3.500 C 40.926 3.600 41.128 3.700 41.229 4.050 Z "/>
  <path id="Shape" fill="#CFE8E9" stroke="none" stroke-width="1" d="M 7.487 21.950 C 7.082 22.200 6.829 22.100 6.627 22.100 C 5.767 22.150 5.413 22.500 5.261 23.350 C 5.211 23.700 5.211 24.050 5.160 24.500 C 4.199 24.300 3.339 24 2.580 23.500 C 2.479 22.400 2.327 21.300 2.378 20.150 C 2.428 18.950 2.276 17.750 2.276 16.550 C 2.226 15.050 2.276 13.500 2.226 12 C 2.226 11.800 2.226 11.600 2.276 11.300 C 3.339 11.600 4.300 11.900 5.362 12.200 C 5.362 12.650 5.413 13.050 5.362 13.500 C 5.261 14.500 5.666 15.100 6.627 15.400 C 6.931 15.500 7.234 15.600 7.588 15.750 C 7.538 17.900 7.487 19.950 7.487 21.950 Z "/>
  <path id="Shape" fill="#CFE8E9" stroke="none" stroke-width="1" d="M 22.411 56.450 C 21.652 56.600 21.095 56.550 20.438 56.400 C 20.185 55.750 20.336 55.050 20.336 54.400 C 20.286 52.150 20.387 49.850 20.387 47.600 C 20.387 43.550 20.387 39.550 20.387 35.500 C 20.387 34.650 20.336 33.850 20.286 33 C 20.286 32.850 20.336 32.700 20.336 32.500 C 20.994 32.350 21.601 32.300 22.208 32.300 C 22.309 32.350 22.309 32.400 22.360 32.450 C 22.360 32.500 22.411 32.500 22.411 32.550 C 22.411 40.450 22.411 48.400 22.411 56.450 Z "/>
  <path id="Shape" fill="#D0E9EA" stroke="none" stroke-width="1" d="M 14.873 26.250 C 13.558 26.300 12.242 25.950 11.028 26 C 10.725 25.750 10.775 25.500 10.775 25.250 C 10.775 24.950 10.775 24.600 10.775 24.300 C 10.725 23.450 10.320 22.900 9.511 22.550 C 9.308 22.500 9.106 22.400 8.904 22.350 C 8.802 20.250 8.853 18.150 9.156 16.100 C 9.409 15.850 9.662 15.950 9.865 15.950 C 10.674 15.850 10.927 15.600 11.028 14.850 C 11.079 14.500 11.079 14.150 11.079 13.750 C 11.079 13.550 11.079 13.350 11.332 13.150 C 12.344 13.300 13.456 13.300 14.519 13.350 C 14.822 13.350 15.176 13.300 15.480 13.500 C 14.822 13.550 14.215 13.550 13.507 13.600 C 13.507 15 13.507 16.350 13.507 17.700 C 13.507 19.100 13.507 20.500 13.507 21.900 C 13.507 23.250 13.406 24.600 13.558 25.950 C 14.064 25.950 14.519 26 14.924 26 C 14.873 26.100 14.873 26.150 14.873 26.250 Z "/>
  <path id="Shape" fill="#CFE8E9" stroke="none" stroke-width="1" d="M 38.295 22.900 C 38.245 22.400 38.245 22.100 38.194 21.750 C 38.093 21.200 37.840 20.850 37.284 20.800 C 36.980 20.750 36.676 20.700 36.272 20.650 C 36.272 18.850 36.272 17.050 36.272 15.250 C 36.525 15.150 36.778 15 37.031 14.900 C 38.245 14.350 38.801 13.450 38.649 12.150 C 38.599 11.800 38.498 11.450 38.700 11 C 39.206 10.800 39.712 10.550 40.268 10.350 C 40.572 10.450 40.572 10.650 40.572 10.850 C 40.521 14.250 40.673 17.600 40.420 21 C 40.369 21.500 40.218 21.850 39.813 22.100 C 39.358 22.400 38.902 22.600 38.295 22.900 Z "/>
  <path id="Shape" fill="#F3FFFF" stroke="none" stroke-width="1" d="M 14.873 26 C 14.418 26 14.013 25.950 13.507 25.950 C 13.355 24.550 13.456 23.200 13.456 21.900 C 13.456 20.500 13.456 19.100 13.456 17.700 C 13.456 16.350 13.456 15 13.456 13.600 C 14.165 13.550 14.822 13.500 15.429 13.500 C 15.581 13.500 15.733 13.500 15.834 13.500 C 15.834 14.750 15.834 16.050 15.834 17.300 C 15.834 17.650 15.885 18 15.935 18.350 C 16.138 19.400 16.138 20.500 15.935 21.550 C 15.885 21.950 15.784 22.300 15.784 22.700 C 15.784 23.550 15.784 24.350 15.784 25.200 C 15.784 25.450 15.834 25.700 15.581 25.900 C 15.429 26 15.176 26 14.873 26 Z "/>
  <path id="Shape" fill="#D0E9EA" stroke="none" stroke-width="1" d="M 14.873 26 C 15.126 26 15.429 25.950 15.682 25.950 C 15.935 25.700 15.885 25.450 15.885 25.250 C 15.885 24.400 15.885 23.600 15.885 22.750 C 15.885 22.350 15.986 21.950 16.036 21.600 C 16.188 20.550 16.239 19.450 16.036 18.400 C 15.986 18.050 15.935 17.700 15.935 17.350 C 15.935 16.100 15.935 14.800 15.935 13.550 C 16.745 13.400 17.554 13.500 18.364 13.550 C 18.364 17.650 18.364 21.800 18.364 25.900 C 18.364 25.950 18.414 26.050 18.465 26.150 C 19.224 26.350 20.033 26.150 20.842 26.300 C 20.286 26.550 19.729 26.450 19.173 26.450 C 17.756 26.400 16.340 26.300 14.974 26.250 C 14.873 26.150 14.873 26.100 14.873 26 Z "/>
  <path id="Shape" fill="#CFE8E8" stroke="none" stroke-width="1" d="M 12.445 30.800 C 10.522 30.850 8.701 30.300 6.931 29.750 C 5.514 29.300 4.047 29 2.732 28.250 C 2.428 28.050 2.125 27.900 1.821 27.700 C 1.720 26.800 1.669 26 1.720 25.150 C 1.771 24.700 2.024 24.500 2.479 24.700 C 3.288 25.050 4.098 25.450 4.907 25.700 C 7.133 26.300 9.409 26.950 11.736 27.250 C 11.989 27.300 12.293 27.250 12.546 27.450 C 12.293 27.550 11.989 27.400 11.686 27.850 C 11.686 28.650 11.686 29.600 11.686 30.550 C 11.838 30.700 12.293 30.400 12.445 30.800 Z M 3.339 27.100 C 3.288 27.600 3.693 27.750 4.047 27.950 C 5.464 28.600 6.981 29.050 8.549 29.400 C 8.954 29.500 9.359 29.550 9.764 29.600 C 10.067 29.650 10.269 29.350 10.168 29.050 C 10.067 28.800 9.915 28.650 9.662 28.600 C 9.055 28.500 8.448 28.400 7.892 28.200 C 6.779 27.850 5.666 27.500 4.553 27.100 C 4.098 26.950 3.744 26.800 3.339 27.100 Z "/>
  <path id="Shape" fill="#CEE7E8" stroke="none" stroke-width="1" d="M 12.445 12.050 C 10.826 12.150 9.258 11.800 7.689 11.550 C 6.273 11.300 4.907 10.950 3.541 10.600 C 3.339 10.550 3.136 10.500 2.985 10.400 C 1.568 9.900 1.467 9.600 1.467 8.450 C 1.467 7.950 1.265 7.450 1.416 6.900 C 2.024 7.100 2.580 7.350 3.136 7.500 C 5.716 8.300 8.398 8.650 11.079 8.900 C 11.888 9 12.698 8.900 13.456 9.150 C 12.849 9.150 12.242 9.200 11.686 9.200 C 11.433 9.200 11.180 9.150 11.028 9.450 C 10.978 10.200 10.978 10.950 11.028 11.800 C 11.433 11.850 11.736 11.850 12.040 11.850 C 12.242 11.850 12.344 11.900 12.445 12.050 Z M 7.892 10.850 C 8.195 10.850 8.296 10.900 8.347 10.850 C 8.499 10.850 8.651 10.750 8.701 10.600 C 8.752 10.400 8.651 10.300 8.549 10.200 C 8.296 9.950 7.993 9.900 7.689 9.850 C 6.475 9.700 5.261 9.400 4.047 9.050 C 3.845 9 3.642 8.950 3.440 8.900 C 3.187 8.850 2.934 8.900 2.833 9.150 C 2.732 9.350 2.934 9.650 3.288 9.750 C 3.642 9.900 4.047 10 4.452 10.100 C 5.666 10.500 6.880 10.700 7.892 10.850 Z "/>
  <path id="Shape" fill="#D0E9EA" stroke="none" stroke-width="1" d="M 13.406 27.450 C 14.924 27.450 16.492 27.550 18.009 27.650 C 17.554 28.700 17.807 29.800 17.807 30.950 C 19.021 31 20.134 31 21.196 31.050 C 20.589 31.300 19.932 31.200 19.274 31.200 C 17.149 31.350 15.025 31 12.900 30.900 C 12.799 30.900 12.698 30.800 12.596 30.750 C 13.153 30.650 13.709 30.800 14.316 30.600 C 14.013 29.650 14.519 28.650 14.266 27.800 C 14.013 27.600 13.608 27.850 13.406 27.450 Z "/>
  <path id="Shape" fill="#F0FCFC" stroke="none" stroke-width="1" d="M 21.247 31.100 C 20.134 31.050 19.021 31.050 17.858 31 C 17.858 29.850 17.605 28.750 18.060 27.700 C 19.375 27.650 20.640 27.600 21.955 27.700 C 21.955 28.800 21.955 29.950 21.955 31.050 C 21.702 31.150 21.500 31.150 21.247 31.100 Z "/>
  <path id="Shape" fill="#CAE2E3" stroke="none" stroke-width="1" d="M 32.225 62.200 C 29.544 61.100 26.761 60.200 24.029 59.450 C 23.827 59 23.827 58.650 23.928 58.250 C 24.586 58.350 31.921 60.400 32.781 60.750 C 32.984 61.300 32.680 61.700 32.225 62.200 Z "/>
  <path id="Shape" fill="#CAE2E3" stroke="none" stroke-width="1" d="M 18.212 58.200 C 18.465 58.350 18.465 58.600 18.465 58.750 C 18.465 59.300 18.313 59.500 17.807 59.600 C 16.694 59.900 15.632 60.250 14.569 60.600 C 13.254 61.050 11.989 61.500 10.725 62 C 10.573 62.050 10.472 62.200 10.168 62.050 C 9.814 61.800 9.662 61.300 9.612 60.750 C 10.522 60.250 11.534 60.150 12.495 59.850 C 13.456 59.550 14.418 59.300 15.379 59 C 16.340 58.750 17.301 58.450 18.212 58.200 Z "/>
  <path id="Shape" fill="#F3FFFF" stroke="none" stroke-width="1" d="M 19.274 9.250 C 19.476 9.550 19.982 9.550 19.982 10 C 19.982 10.700 20.185 11.450 19.578 12.050 C 18.667 12.050 17.706 12.050 16.694 12.050 C 16.644 11.100 16.391 10.150 16.846 9.250 C 17.099 9.200 17.352 9.200 17.554 9.250 C 18.060 9.600 18.515 9.600 19.021 9.250 C 19.072 9.250 19.173 9.250 19.274 9.250 Z "/>
  <path id="Shape" fill="#F1FDFD" stroke="none" stroke-width="1" d="M 13.406 27.450 C 13.608 27.800 14.013 27.550 14.316 27.850 C 14.569 28.750 14.064 29.700 14.367 30.650 C 13.760 30.900 13.153 30.700 12.647 30.800 L 12.546 30.800 L 12.445 30.750 C 12.293 30.350 11.838 30.650 11.686 30.450 C 11.686 29.450 11.686 28.550 11.686 27.750 C 11.939 27.350 12.293 27.450 12.546 27.350 C 12.849 27.450 13.102 27.450 13.406 27.450 Z "/>
  <path id="Shape" fill="#CAE2E3" stroke="none" stroke-width="1" d="M 37.132 11.500 C 37.536 12.100 37.385 12.700 37.385 13.250 C 37.385 13.500 37.182 13.650 36.980 13.800 C 36.221 14.250 35.412 14.400 34.451 14.200 C 34.248 13.600 34.046 12.950 34.046 12.200 C 35.007 11.800 36.069 11.750 37.132 11.500 Z "/>
  <path id="Shape" fill="#F0FCFC" stroke="none" stroke-width="1" d="M 12.445 12.050 C 12.344 11.900 12.242 11.850 12.040 11.850 C 11.736 11.850 11.433 11.800 11.028 11.800 C 10.978 11 10.978 10.200 11.028 9.450 C 11.231 9.150 11.484 9.250 11.686 9.200 C 12.293 9.200 12.900 9.150 13.456 9.150 C 13.507 9.100 13.558 9.100 13.608 9.200 C 13.608 10.150 13.608 11.150 13.608 12.100 C 13.254 12.150 12.849 12.150 12.445 12.050 Z "/>
  <path id="Shape" fill="#CEE7E8" stroke="none" stroke-width="1" d="M 19.729 57.200 C 20.741 57.400 21.652 57.600 22.512 57.450 C 22.815 57.850 22.613 58.250 22.664 58.550 C 22.714 58.900 22.664 59.250 22.664 59.600 C 21.753 59.950 20.944 59.650 20.084 59.750 C 19.780 59.800 19.527 59.450 19.527 59.100 C 19.628 58.500 19.679 57.950 19.729 57.200 Z "/>
  <path id="Shape" fill="#C9E1E2" stroke="none" stroke-width="1" d="M 6.576 23.200 C 7.487 23.100 8.246 23.400 9.005 23.600 C 9.359 23.700 9.561 23.950 9.561 24.300 C 9.561 24.700 9.561 25.100 9.511 25.500 C 8.296 25.600 7.285 25.250 6.273 24.850 C 6.071 24.250 6.273 23.750 6.576 23.200 Z "/>
  <path id="Shape" fill="#C9E1E2" stroke="none" stroke-width="1" d="M 33.945 24.350 C 33.692 22.200 34.400 22.250 35.715 21.900 C 36.069 21.800 36.424 21.900 36.828 21.900 C 37.081 22.300 36.980 22.750 36.980 23.150 C 36.980 23.400 36.828 23.650 36.575 23.700 C 35.715 23.950 34.906 24.350 33.945 24.350 Z "/>
  <path id="Shape" fill="#C8E0E1" stroke="none" stroke-width="1" d="M 6.678 14.300 C 6.526 13.700 6.526 13.150 6.576 12.550 C 7.639 12.500 8.600 12.900 9.662 12.950 C 9.915 13.550 9.865 14.050 9.764 14.600 C 8.296 14.850 7.791 14.800 6.678 14.300 Z "/>
  <path id="Shape" fill="#D0E9EA" stroke="none" stroke-width="1" d="M 19.021 9.250 C 18.515 9.600 18.060 9.600 17.554 9.250 C 18.060 9.100 18.515 9.150 19.021 9.250 Z "/>
  <path id="Shape" fill="#FCFEFE" stroke="none" stroke-width="1" d="M 39.408 7.900 C 39.206 8.500 38.852 8.700 38.396 8.850 C 37.132 9.300 35.816 9.650 34.451 9.900 C 33.287 10.150 32.124 10.350 30.960 10.600 C 30.555 10.650 30.049 10.800 29.796 10.300 C 29.999 9.950 30.201 9.750 30.656 9.700 C 32.275 9.450 33.844 9 35.462 8.700 C 36.424 8.550 37.284 8.200 38.194 7.900 C 38.548 7.750 38.953 7.700 39.408 7.900 Z "/>
  <path id="Shape" fill="#FCFEFD" stroke="none" stroke-width="1" d="M 39.560 25.150 C 39.914 25.400 39.914 25.650 39.661 25.850 C 39.054 26.250 38.396 26.500 37.688 26.700 C 36.171 27.100 34.602 27.450 33.034 27.850 C 32.427 28 31.871 28 31.264 27.900 C 31.162 27.600 31.264 27.450 31.415 27.350 C 31.618 27.200 31.820 27.100 32.073 27.050 C 33.186 26.800 34.299 26.400 35.462 26.250 C 36.272 26.150 37.081 25.800 37.891 25.600 C 38.447 25.400 39.004 25.300 39.560 25.150 Z "/>
  <path id="Shape" fill="#090A0A" stroke="none" stroke-width="1" d="M 3.339 27.100 C 3.744 26.800 4.098 27 4.502 27.100 C 5.615 27.450 6.728 27.850 7.841 28.200 C 8.398 28.350 9.005 28.450 9.612 28.600 C 9.865 28.650 10.016 28.800 10.118 29.050 C 10.219 29.350 10.016 29.650 9.713 29.600 C 9.308 29.550 8.904 29.500 8.499 29.400 C 6.981 29.050 5.464 28.600 3.996 27.950 C 3.693 27.750 3.288 27.600 3.339 27.100 Z "/>
  <path id="Shape" fill="#0B0C0D" stroke="none" stroke-width="1" d="M 7.892 10.850 C 6.880 10.700 5.666 10.500 4.452 10.150 C 4.047 10.050 3.693 9.950 3.288 9.800 C 2.934 9.700 2.782 9.400 2.833 9.200 C 2.934 8.950 3.187 8.900 3.440 8.950 C 3.642 9 3.845 9 4.047 9.100 C 5.261 9.450 6.475 9.750 7.689 9.900 C 7.993 9.950 8.347 10 8.549 10.250 C 8.651 10.350 8.752 10.500 8.701 10.650 C 8.651 10.800 8.499 10.900 8.347 10.900 C 8.296 10.900 8.195 10.850 7.892 10.850 Z "/>
</svg>