<svg width="165px" height="145px" viewBox="0 0 165 145" version="1.1" xml:space="preserve" xmlns="http://www.w3.org/2000/svg" xmlns:xlink="http://www.w3.org/1999/xlink">
  <!-- Generator: Sketch 48.2 (47327) - http://www.bohemiancoding.com/sketch -->
  <defs/>
  <g>
    <title>dorian-a</title>
    <desc>Created with Sketch.</desc>
    <g id="basketball" stroke="none" stroke-width="1" fill="none" fill-rule="evenodd">
      <g id="dorian-a">
        <g id="scratch_bball_player01a" transform="translate(22.000000, 7.000000)">
          <path d="M20.256,47.5884384 L43.62,47.6124024 L43.62,39.7042943 C41.024,39.6244144 29.62,39.7042943 28.696,39.7042943 C26.82,39.7042943 24.952,39.7402402 23.096,39.8081381 C19.46,39.9359459 16.096,40.1476276 12.58,41.1581081 C5.6,43.1351351 -0.876,49.1261261 0.444,57.0542042 C2.888,56.0317417 4.704,59.6822523 7.316,59.155045 C9.928,58.6278378 20.688,58.9193994 15.608,57.4096697 C10.528,55.8999399 12.58,52.7686486 14.312,50.3922222 C16.044,48.0157958 20.256,47.5884384 20.256,47.5884384 Z" id="Shape" fill="#E6BE6E" fill-rule="nonzero"/>
          <path d="M60.332,39.8001502 C56.556,39.0013514 40.7,39.209039 36.148,39.2929129 L36.148,48.9863363 C40.2,49.202012 47.94,49.1181381 52.948,49.0342643 C54.176,49.0142943 63.056,40.3872673 60.332,39.8001502 Z" id="Shape" fill="#00A0DC" fill-rule="nonzero"/>
          <path d="M48.688,70.6617417 L41.6,74.6557357 C42.34,79.8479279 55.132,83.0111712 65.956,83.7021321 C76.78,84.3930931 86.984,78.7216216 86.984,78.7216216 L48.688,70.6617417 Z" id="Shape" fill="#006482" fill-rule="nonzero"/>
          <polygon id="Shape" fill="#E6BE6E" fill-rule="nonzero" points="45.076 106.196306 39.4 99.5463063 42.008 90.0326126 52.652 89.5453453 49.48 99.9217417"/>
          <polygon id="Shape" fill="#FAF0E6" fill-rule="nonzero" points="33.212 121.485315 39.4 99.5463063 49.608 99.8258859 42.796 120.646577"/>
          <polygon id="Shape" fill="#281446" fill-rule="nonzero" points="38.712 94.445976 44.064 72.7026727 60.676 72.6707207 53.348 95.096997"/>
          <polygon id="Shape" fill="#00A0DC" fill-rule="nonzero" points="25.524 131.777838 32.14 130.919129 42.32 131.542192 42.084 132.84024 25.212 132.972042"/>
          <path d="M26.708,130.487778 C27.9014272,130.423236 29.0893186,130.280476 30.264,130.06042 L33.064,117.531261 L44.72,117.531261 L42.32,131.542192 L25.52,131.777838 C25.6776906,131.438804 25.8113524,131.089136 25.92,130.731411 C26.171472,130.617728 26.4361914,130.535882 26.708,130.487778 Z" id="Shape" fill="#281446" fill-rule="nonzero"/>
          <ellipse id="Oval" fill="#00A0DC" fill-rule="nonzero" cx="38.656" cy="123.466336" rx="3.076" ry="3.07138138"/>
          <polygon id="Shape" fill="#006482" fill-rule="nonzero" points="31.704 120.518769 34.764 120.518769 35.016 119.73994 31.844 119.73994"/>
          <polygon id="Shape" fill="#00A0DC" fill-rule="nonzero" points="31.356 122.34003 34.416 122.34003 34.668 121.557207 31.496 121.557207"/>
          <polygon id="Shape" fill="#006482" fill-rule="nonzero" points="31.012 124.157297 34.068 124.157297 34.324 123.374474 31.152 123.374474"/>
          <polygon id="Shape" fill="#00A0DC" fill-rule="nonzero" points="30.664 125.974565 33.724 125.974565 33.976 125.191742 30.804 125.191742"/>
          <polygon id="Shape" fill="#006482" fill-rule="nonzero" points="30.316 127.791832 33.376 127.791832 33.628 127.013003 30.456 127.013003"/>
          <rect id="Rectangle-path" fill="#281446" fill-rule="nonzero" x="50.876" y="68.3012913" width="25.812" height="11.985976"/>
          <polygon id="Shape" fill="#E6BE6E" fill-rule="nonzero" points="82.432 106.196306 88.108 99.5463063 85.504 90.0326126 74.86 89.5453453 78.028 99.9217417"/>
          <polygon id="Shape" fill="#FAF0E6" fill-rule="nonzero" points="94.296 121.485315 88.108 99.5463063 77.904 99.8258859 84.716 120.646577"/>
          <polygon id="Shape" fill="#281446" fill-rule="nonzero" points="88.8 94.445976 83.448 72.7026727 66.836 72.6707207 74.16 95.096997"/>
          <polygon id="Shape" fill="#00A0DC" fill-rule="nonzero" points="101.988 131.777838 95.372 130.919129 85.192 131.542192 85.428 132.84024 102.3 132.972042"/>
          <path d="M100.8,130.487778 C99.6052343,130.423399 98.4160018,130.280638 97.24,130.06042 L94.44,117.531261 L82.8,117.531261 L85.2,131.542192 L102,131.777838 C101.842126,131.438881 101.708459,131.0892 101.6,130.731411 C101.345059,130.61586 101.07613,130.53396 100.8,130.487778 Z" id="Shape" fill="#281446" fill-rule="nonzero"/>
          <ellipse id="Oval" fill="#00A0DC" fill-rule="nonzero" cx="88.856" cy="123.466336" rx="3.076" ry="3.07138138"/>
          <polygon id="Shape" fill="#006482" fill-rule="nonzero" points="95.808 120.518769 92.748 120.518769 92.496 119.73994 95.668 119.73994"/>
          <polygon id="Shape" fill="#00A0DC" fill-rule="nonzero" points="96.152 122.34003 93.096 122.34003 92.844 121.557207 96.016 121.557207"/>
          <polygon id="Shape" fill="#006482" fill-rule="nonzero" points="96.5 124.157297 93.44 124.157297 93.188 123.374474 96.36 123.374474"/>
          <polygon id="Shape" fill="#00A0DC" fill-rule="nonzero" points="96.848 125.974565 93.788 125.974565 93.536 125.191742 96.708 125.191742"/>
          <polygon id="Shape" fill="#006482" fill-rule="nonzero" points="97.196 127.791832 94.136 127.791832 93.884 127.013003 97.056 127.013003"/>
          <path d="M124.284,46.6618318 C122.070702,44.4033955 119.317343,42.7456129 116.284,41.8450751 C111.988,40.590961 91.084,40.1516216 86.8,40.1316517 L86.132,48.3273273 C88.488,48.3592793 109.06,48.4471471 109.06,48.4471471 C109.06,48.4471471 113.58,48.5070571 114.828,50.2883784 C116.076,52.0696997 115.392,53.3118318 114.948,54.3862162 C114.332,55.86 111.08,56.8784685 111.08,56.8784685 C111.08,56.8784685 121.964,57.4136637 127.436,56.1076276 C128.36,53.3757357 125.972,48.3832432 124.284,46.6618318 Z" id="Shape" fill="#E6BE6E" fill-rule="nonzero"/>
          <path d="M90.332,39.6324024 L66.264,39.5405405 C66.264,39.5405405 75.184,49.869009 76.424,49.892973 C80.556,49.9608709 86.248,50.2084985 90.332,50.2005105 L90.332,39.6324024 Z" id="Shape" fill="#00A0DC" fill-rule="nonzero"/>
          <path d="M76.916,45.3917417 C76.916,45.3917417 74.86,40.9344444 74.492,39.8520721 C71.232,39.0333033 60.744,39.1651051 56.824,39.1651051 C56.824,39.1651051 51.452,39.1651051 50.224,40.6987988 C48.996,42.2324925 48.948,44.8525526 48.948,44.8525526 L41.6,74.6437538 C44.172,75.6142943 48.12,75.0431532 50.868,75.0990691 C54.8,75.166967 58.74,75.0990691 62.664,75.2188889 C70.328,75.4745045 79.32,79.125015 86.984,78.7096396 C86.236,76.9562763 76.916,45.3917417 76.916,45.3917417 Z" id="Shape" fill="#00A0DC" fill-rule="nonzero"/>
          <path d="M78.776,56.8145646 C78.228,57.0422222 73.32,54.2624024 71.996,52.3612613 C71.236,51.2669069 71.464,50.4241742 72.652,50.0447447 C73.84,49.6653153 76.064,52.0816817 77.052,53.4915616 C77.799835,54.5007346 78.3818015,55.6224727 78.776,56.8145646 Z" id="Shape" fill="#BE965A" fill-rule="nonzero"/>
          <path d="M53.56,49.198018 C53.304,49.6693093 52.656,51.5305105 51.792,52.4451351 C50.5889711,53.6944118 49.0380289,54.5542888 47.34,54.9134234 C47.832,54.2903604 48.492,52.2254655 50.06,50.7516817 C51.036,49.8330631 52.992,49.1261261 53.56,49.198018 Z" id="Shape" fill="#BE965A" fill-rule="nonzero"/>
          <path d="M75.036,53.5794294 C70.588,45.4077177 64.772,45.8350751 62.512,45.8151051 C61.8,45.8151051 57.736,46.1346246 55.464,47.4726126 C53.612,48.558979 49.688,52.1695495 48.86,55.86 C47.888,60.2134535 50.184,64.6467868 50.184,64.6467868 C52.696,70.505976 59.076,72.2353754 64.932,71.1130631 C67.3574595,70.664129 69.6592501,69.7042203 71.684,68.2972973 C72.18,67.9418318 74.044,66.7236637 75.136,63.4605706 C76,60.8604805 77.004,57.197988 75.036,53.5794294 Z" id="Shape" fill="#E6781E" fill-rule="nonzero"/>
          <path d="M62.536,45.5315315 C62.468,54.1625526 62.404,63.1051051 62.484,71.7441141" id="Shape" stroke="#824600" stroke-width="0.5" stroke-linecap="round"/>
          <path d="M70.712,69.0521622 C65.912,65.5494294 64.732,58.3722222 66.288,52.9483784 C66.8789749,50.7415275 68.1358724,48.7697668 69.888,47.3008709" id="Shape" stroke="#824600" stroke-width="0.5" stroke-linecap="round"/>
          <path d="M53.512,69.1160661 C58.828,66.0646547 60.312,58.7316817 59.024,53.1400901 C58.513359,50.8745656 57.3850958,48.7942139 55.764,47.1291291" id="Shape" stroke="#824600" stroke-width="0.5" stroke-linecap="round"/>
          <path d="M3.88,62.7057057 C-0.4,59.6343243 0.252,55.5165165 0.252,55.5165165 C0.252,55.5165165 37.992,55.4246547 45.564,54.9733333 C48.6,54.7936036 54.036,50.0287688 54.924,50.5799399 C55.812,51.1311111 51.54,53.847027 52.428,54.4581081 C53.316,55.0691892 57.228,51.0831832 58.164,51.8021021 C59.1,52.521021 53.148,56.4511111 54.316,57.1141141 C55.484,57.7771171 58.752,54.2903604 59.032,55.0651952 C59.312,55.84003 56.12,59.5105105 55.528,60.2054655 C54.756,61.1121021 53.152,63.0851351 50.676,64.2793393 C48.2,65.4735435 44.852,65.8769369 44.016,66.0007508 C41.96,66.2763363 20.924,66.0806306 17.396,65.7651051 C11.052,65.2139339 8.176,65.7371471 3.88,62.7057057 Z" id="Shape" fill="#E6BE6E" fill-rule="nonzero"/>
          <path d="M68.96,49.6014114 C69.736,48.8265766 72.96,51.2828829 74.54,52.9923123 C76.3,54.9174174 78.94,56.538979 86.72,56.538979 C88.968,56.538979 91.212,56.4590991 93.46,56.503033 C95.144,56.534985 114.768,56.503033 114.768,56.503033 C114.768,56.503033 124,55.165045 127.2,55.165045 C128.216,55.6083784 126.444,58.9353754 126,59.7022222 C125.081905,61.1388221 123.868413,62.3641071 122.44,63.2968168 C119.276,65.4735435 115.204,66.0926126 111.472,66.4081381 C103.296,67.1150751 80.868,67.0032432 79.848,66.9912613 C77.02,66.9672973 73.616,65.6173273 72.316,63.7960661 C71.404,62.525976 66.524,55.848018 66.8,55.1290991 C67.076,54.4101802 70.032,58.0007808 71.072,56.4590991 C72.112,54.9174174 66.832,52.4651051 66.98,51.1111411 C67.128,49.7571772 71.216,54.1385886 72.536,53.839039 C72.8,52.1895195 68.184,50.3762462 68.96,49.6014114 Z" id="Shape" fill="#E6BE6E" fill-rule="nonzero"/>
          <path d="M53.6,29.8391291 C53.6,29.8391291 51.644,28.7647447 50.648,24.5311111 C49.932,21.4757057 49.76,15.5526126 50.972,13.0004505 C53.868,6.90561562 56.8,3.69444444 56.8,3.69444444 L61.232,19.5705706 L53.6,29.8391291 Z" id="Shape" fill="#642800" fill-rule="nonzero"/>
          <path d="M74.372,29.8431231 C74.372,29.8431231 77.504,18.0887988 74.772,12.3494294 C72.04,6.61006006 68.976,5.63552553 68.976,5.63552553 L65.924,14.9575075 L74.372,29.8431231 Z" id="Shape" fill="#642800" fill-rule="nonzero"/>
          <path d="M72.728,32.4951351 C73.1655439,30.3184595 73.4330158,28.1111235 73.528,25.8930631 C75.724,22.4742042 81.48,21.1402102 80.924,26.8556156 C80.512,30.9574474 76.932,33.9689189 72.728,32.4951351 Z" id="Shape" fill="#E6BE6E" fill-rule="nonzero"/>
          <path d="M54.548,32.5151051 C52.817774,32.6174715 51.0826656,32.4270717 49.416,31.951952 C48.0306409,31.4627008 46.8855479,30.4622488 46.216,29.1561562 C45.52,27.933994 45.172,25.4856757 47.476,24.1277177 C49.78,22.7697598 52.276,24.3993093 53.076,25.7253153 C53.808,26.9594595 54.292,31.0453153 54.548,32.5151051 Z" id="Shape" fill="#E6BE6E" fill-rule="nonzero"/>
          <path d="M70.192,16.650961 L55.96,16.595045 C54.668,18.2845045 52.36,21.8711111 52.06,24.9824324 C52.06,25.1182282 51.796,30.4302402 53.752,34.1166967 C54.844,36.1736036 57.312,37.3118919 59.232,37.7592192 C63.788,38.8455856 69.964,37.9629129 72.96,33.8610811 C74.124,32.2634835 74.248,30.6898498 74.356,29.3678378 C75.116,19.96997 71.884,17.8731231 70.192,16.650961 Z" id="Shape" fill="#E6BE6E" fill-rule="nonzero"/>
          <path d="M72.8,18.7717718 C71.024,19.3628829 55.288,20.0258859 53.444,19.7542943 C53.044,17.2380781 63.044,0.211681682 63.044,0.211681682 C63.044,0.211681682 72.8,16.2875075 72.8,18.7717718 Z" id="Shape" fill="#642800" fill-rule="nonzero"/>
          <path d="M63.748,27.6344444 C64.7195539,28.7949174 65.4143726,30.1606171 65.78,31.6284384 C64.284,32.1396697 62.084,32.3593393 60.58,31.8560961 C60.564,30.3823123 61.3,27.5905105 63.748,27.6344444 Z" id="Shape" fill="#BE965A" fill-rule="nonzero"/>
          <path d="M61.812,34.7477477 C61.8721513,34.9219807 61.9689915,35.0813227 62.096,35.215045 C62.8120623,35.2030211 63.5281673,35.2363714 64.24,35.3148949 C64.2642742,35.3013236 64.2870642,35.2852607 64.308,35.266967 C64.4636731,35.1431129 64.536359,34.9423685 64.496,34.7477477 C63.624,34.7157958 62.696,34.7477477 61.812,34.7477477 Z" id="Shape" fill="#000000" fill-rule="nonzero"/>
          <path d="M56.66,28.5051351 C55.676,28.5051351 56.06,27.1112312 56.308,26.596006 C56.4239886,26.5061714 56.571414,26.4669538 56.7167903,26.4872609 C56.8621667,26.507568 56.9931539,26.585676 57.08,26.7038438 C57.2289712,27.3368189 57.0736518,28.0029511 56.66,28.5051351 Z" id="Shape" fill="#000000" fill-rule="nonzero"/>
          <path d="M69.768,28.6409309 C68.792,28.7687387 68.968,27.3468769 69.148,26.7996997 C69.2509668,26.6955449 69.3914291,26.6369172 69.538,26.6369172 C69.6845709,26.6369172 69.8250332,26.6955449 69.928,26.7996997 C70.1667932,27.4045367 70.1075577,28.0862009 69.768,28.6409309 Z" id="Shape" fill="#000000" fill-rule="nonzero"/>
        </g>
      </g>
    </g>
  </g>
</svg>