<svg width="152px" height="136px" viewBox="0 0 152 136" version="1.1" xml:space="preserve" xmlns="http://www.w3.org/2000/svg" xmlns:xlink="http://www.w3.org/1999/xlink">
  <!-- Generator: Sketch 48.2 (47327) - http://www.bohemiancoding.com/sketch -->
  <defs/>
  <g>
    <title>goalie-e</title>
    <desc>Created with Sketch.</desc>
    <g id="soccer" stroke="none" stroke-width="1" fill="none" fill-rule="evenodd">
      <g id="goalie-e" fill-rule="nonzero">
        <g id="scratch_footie_player_goalie05" transform="translate(18.000000, 2.000000)">
          <rect id="Rectangle-path" fill="#281446" transform="translate(66.579124, 118.203080) rotate(0.170000) translate(-66.579124, -118.203080) " x="63.3951589" y="117.551203" width="6.36793103" height="1.30375385"/>
          <path d="M67.1664138,131.784738 C67.1664138,131.784738 68.4481379,127.7232 68.2853793,125.099446 C68.2121379,123.905354 67.6221379,123.011815 66.8531034,122.950892 C65.9213103,122.877785 64.9732414,123.052431 64.659931,124.360246 C64.1431724,126.492554 65.5428966,131.987815 65.5428966,131.987815 L67.1664138,131.784738 Z" id="Shape" fill="#281446"/>
          <path d="M68.3097931,113.085415 L64.4646207,113.223508 C64.4646207,113.223508 63.3782069,100.973908 66.3322759,100.421538 C69.2863448,99.8691692 68.3097931,113.085415 68.3097931,113.085415 Z" id="Shape" fill="#281446"/>
          <path d="M67.5692414,124.283077 C67.9273103,121.525292 68.4725517,116.501169 68.7166897,113.507815 L64.2693103,113.544369 C64.4931034,116.521477 65.0831034,121.411569 65.3516552,124.189662 L67.5692414,124.283077 Z" id="Shape" fill="#F01446"/>
          <path d="M63.7688276,112.679262 L63.8461379,114.169846 L68.9974483,114.096738 C69.0608236,113.632359 69.0920929,113.164175 69.0910345,112.695508 L63.7688276,112.679262 Z" id="Shape" fill="#F04650"/>
          <path d="M65.1237931,115.124308 C68.2487586,113.775877 69.0544138,116.655508 69.1561379,118.072985 C69.2863448,119.912862 69.9129655,121.773046 66.8002069,122.751877 C65.2011034,123.255508 63.9763448,121.326277 63.7769655,119.372677 C63.5816552,117.520615 64.3466207,115.672615 65.1237931,115.124308 Z" id="Shape" fill="#BE0A3C"/>
          <rect id="Rectangle-path" fill="#281446" transform="translate(54.266489, 118.203168) rotate(0.170000) translate(-54.266489, -118.203168) " x="51.0825235" y="117.551291" width="6.36793103" height="1.30375385"/>
          <path d="M54.8537241,131.784738 C54.8537241,131.784738 56.1354483,127.7232 55.9726897,125.099446 C55.8994483,123.905354 55.3094483,123.011815 54.5404138,122.950892 C53.6086207,122.877785 52.6605517,123.052431 52.3472414,124.360246 C51.8304828,126.492554 53.2302069,131.987815 53.2302069,131.987815 L54.8537241,131.784738 Z" id="Shape" fill="#281446"/>
          <path d="M55.9971034,113.085415 L52.151931,113.223508 C52.151931,113.223508 50.9312414,99.7757538 53.7795172,99.5929846 C56.6277931,99.4102154 55.9971034,113.085415 55.9971034,113.085415 Z" id="Shape" fill="#281446"/>
          <path d="M55.2565517,124.283077 C55.6146207,121.525292 56.1598621,116.501169 56.404,113.507815 L51.9566207,113.544369 C52.1804138,116.521477 52.7704138,121.411569 53.0389655,124.189662 L55.2565517,124.283077 Z" id="Shape" fill="#F01446"/>
          <path d="M51.4602069,112.679262 L51.5375172,114.169846 L56.6888276,114.096738 C56.7522029,113.632359 56.7834722,113.164175 56.7824138,112.695508 L51.4602069,112.679262 Z" id="Shape" fill="#F04650"/>
          <path d="M52.8111034,115.124308 C55.936069,113.775877 56.7417241,116.655508 56.8434483,118.072985 C56.9736552,119.912862 57.6002759,121.773046 54.4875172,122.751877 C52.8884138,123.255508 51.6636552,121.326277 51.4642759,119.372677 C51.2689655,117.520615 52.033931,115.672615 52.8111034,115.124308 Z" id="Shape" fill="#BE0A3C"/>
          <path d="M82.7668276,97.8465231 C82.7668276,97.8465231 79.8615862,99.3980308 80.0650345,101.2176 C80.2684828,103.037169 83.5602759,101.814646 83.5602759,101.814646 C83.7922069,101.709046 94.8882759,95.8482462 94.9248966,95.5964308 C94.8191034,95.1902769 93.4234483,93.5940923 93.3257931,93.2285538 C93.0368966,93.0579692 82.8563448,97.6718769 82.7668276,97.8465231 Z" id="Shape" fill="#281446"/>
          <path d="M108.669862,81.2673231 C102.891931,83.0990769 92.1986897,89.3051077 92.1986897,89.3051077 L97.6795862,99.8123077 C99.4373793,99.4061538 101.553241,98.7847385 103.323241,98.3176615 C105.94975,97.6799774 108.539997,96.9017457 111.082759,95.9863385 C112.392966,95.4908308 117.027517,94.3292308 116.974621,92.4284308 C116.901379,89.7031385 109.943448,93.3260308 109.451103,92.3959385 C108.958759,91.4658462 116.673517,89.1913846 116.205586,87.0915692 C115.460966,83.7773538 108.315862,87.6520615 107.449172,86.8884923 C107.518345,85.6416 112.291241,84.9105231 113.308483,83.5539692 C115.766138,80.2478769 110.537517,80.6743385 108.669862,81.2673231 Z" id="Shape" fill="#F04650"/>
          <path d="M103.909172,78.2617846 C100.702828,75.1668923 94.1192414,87.7170462 92.8985517,89.6340923 L95.7061379,97.2332308 C98.3062069,97.0301538 100.706897,96.7133538 102.623379,94.8653538 C105.471655,92.1035077 104.11669,89.0411077 102.432138,86.1249231 C104.255034,84.3053538 106.098276,80.3778462 103.909172,78.2617846 Z" id="Shape" fill="#F01446"/>
          <path d="M93.4031034,88.2409846 C94.7906207,90.6251077 95.6613793,93.1757538 96.8128966,95.6776615 C97.6633103,97.5256615 99.9907586,100.7424 96.4344828,101.014523 C94.5993793,99.0121846 93.3949655,96.5224615 92.3655172,94.0327385 C91.4337241,91.7664 89.3911034,88.4034462 93.4031034,88.2409846 Z" id="Shape" fill="#BE0A3C"/>
          <path d="M33.0928966,98.4638769 C33.0603448,98.2770462 29.1866897,97.1276308 26.4157241,95.4055385 C23.3517931,93.5006769 21.3376552,91.0068923 20.8331034,90.7307077 L18.2574483,93.0092308 C18.3266207,93.0660923 22.3264138,96.9286154 25.3537241,98.7603692 C27.2035436,99.9330553 29.2856639,100.692335 31.4571724,100.986092 C31.4571724,100.986092 34.5048276,101.392246 34.7123448,99.7676308 C34.9198621,98.1430154 33.0928966,98.4638769 33.0928966,98.4638769 Z" id="Shape" fill="#281446"/>
          <path d="M25.016,87.5261538 C21.5329655,83.7408 12.3248966,71.3449846 10.0828966,70.8982154 C7.84089655,70.4514462 6.70158621,71.8201846 7.39331034,73.6966154 C7.84801961,74.6752032 8.47197968,75.5661262 9.23655172,76.3284923 C9.06158621,76.1457231 11.804069,77.8190769 9.99744828,77.8109538 C8.19082759,77.8028308 5.61517241,73.6478769 3.51965517,75.8979692 C3.9062069,78.5257846 5.55413793,80.0569846 7.52758621,81.6937846 C7.56013793,82.0999385 7.41365517,82.2705231 7.04744828,82.3192615 C5.67213793,81.4379077 2.91337931,78.8100923 1.06606897,79.2528 C-2.18910345,80.0326154 3.2917931,85.5156923 3.2917931,85.5156923 C3.2917931,85.5156923 10.7583448,93.8215385 15.3318621,95.3446154 L25.016,87.5261538 Z" id="Shape" fill="#F04650"/>
          <path d="M18.3795172,78.6192 C17.2361379,76.7874462 17.0571034,72.4416 19.4577931,71.9339077 C22.3386207,71.3246769 22.8675862,75.6908308 23.2134483,77.8312615 C23.7993793,81.4622769 25.2113103,86.4539077 22.297931,89.2035692 C21.1586207,90.2717538 19.706,92.3512615 18.285931,92.9604923 C16.7071724,93.6387692 15.6451724,91.8923077 14.6238621,90.6048 C12.9555862,88.5374769 12.3004828,86.3076923 12.9311724,83.7001846 C13.7246207,80.2966154 15.7468966,80.1422769 18.3795172,78.6192 Z" id="Shape" fill="#F01446"/>
          <path d="M24.3446207,85.5644308 C25.5286897,86.9088 26.6517241,87.5952 25.6792414,89.5122462 C24.8654483,91.0759385 19.0631034,95.9091692 17.5616552,96.6849231 C15.3806897,97.8140308 14.7133793,96.7824 13.4397931,94.9506462 C13.6476069,94.7787459 13.8433758,94.5928335 14.0257241,94.3942154 C15.7021379,92.7696 17.4233103,91.1815385 19.1892414,89.6300308 C20.6377931,88.3628308 22.5583448,86.1777231 24.3446207,85.5644308 Z" id="Shape" fill="#BE0A3C"/>
          <path d="M97.5290345,15.9984 C97.0204138,10.8118154 96.5809655,5.00787692 91.0512414,2.71310769 C85.2773793,0.320861538 81.6682069,3.56196923 79.7517241,8.96787692 C78.0549655,13.7564308 77.521931,19.0120615 76.7691724,23.9955692 C76.4151724,26.3472 75.0398621,37.2564923 71.9189655,39.2182154 C69.3392414,38.1947077 70.0797931,24.2839385 69.8153103,20.7382154 C69.3026207,13.8336 70.0594483,3.9072 62.4545517,0.869169231 C58.764,-0.605169231 53.9097241,-0.00812307692 50.6545517,2.28664615 C47.1511724,4.74387692 46.846,9.82486154 46.7483448,13.7645538 C46.5815172,20.5188923 48.0707586,27.5494154 49.1408966,34.2265846 C49.3728276,35.6684308 50.5121379,41.3302154 47.5458621,41.3220923 C45.6131034,41.3220923 41.1494483,25.3927385 40.0711724,22.1881846 C39.0335862,19.1014154 37.6297931,15.0195692 35.3877931,12.6151385 C29.0076552,5.78363077 20.7395172,13.3259077 19.3682759,20.4701538 C17.8627586,28.3536 20.5889655,36.9884308 22.3223448,44.6078769 C24.2632414,53.2345846 25.7687586,61.9262769 27.7503448,70.5245538 C28.8164138,75.1547077 30.4602759,89.8087385 31.2089655,91.8273231 L81.061931,94.3617231 C82.0303448,92.0953846 82.2053103,89.1101538 82.718,86.7179077 C83.9061379,81.1833846 85.0902069,75.6475077 86.2702069,70.1102769 C87.9791724,62.1171692 89.1184828,53.6813538 91.4744138,45.8507077 C93.102,40.4651077 94.7295862,35.2907077 95.702069,29.7182769 C96.4344828,25.5633231 97.94,20.2386462 97.5290345,15.9984 Z" id="Shape" fill="#F04650"/>
          <path d="M117.617517,43.3163077 C117.532069,42.6624 117.210621,41.1921231 117.304207,41.0702769 C114.561724,29.4055385 102.680345,35.4450462 97.817931,41.8176 C95.2137931,45.2292923 90.7948966,49.4208 86.5224828,50.4361846 C81.7984138,51.5571692 76.468069,50.0747077 71.6097241,50.5499077 C61.1036552,51.5734154 53.6248966,58.6120615 50.9231034,68.5993846 C49.5518621,73.6681846 49.2751724,79.0375385 49.0717241,84.2688 C48.97,86.9128615 48.1521379,90.5235692 48.5468276,93.0945231 L81.7333103,93.1270154 C88.5854483,86.8153846 95.3317931,80.5890462 101.785172,73.8753231 C105.789034,69.7081846 109.186621,64.9927385 112.445862,60.2285538 C115.603379,55.6065231 118.378414,49.0065231 117.617517,43.3163077 Z" id="Shape" fill="#F01446"/>
          <path d="M87.5193793,89.4228923 C87.5193793,89.4228923 59.821931,89.2279385 52.4489655,89.2441846 L52.5588276,107.707938 C64.5297241,107.687631 87.0270345,106.741292 87.0270345,106.741292 L87.5193793,89.4228923 Z" id="Shape" fill="#BE0A3C"/>
          <path d="M40.9866897,108.796431 C37.3815862,108.686769 33.3166897,108.975138 29.8336552,107.947569 C29.5366207,105.323815 29.0198621,88.3019077 29.0198621,88.3019077 C29.0198621,88.3019077 48.9944138,88.7080615 49.1612414,88.4359385 C54.8130345,88.4034462 65.3557241,88.4359385 66.5153793,95.8360615 C67.0524828,99.2721231 65.8521379,103.715446 63.2276552,106.067077 C60.3793793,108.633969 56.404,108.605538 52.7988966,108.971077 C52.7948276,108.991385 44.9173103,108.918277 40.9866897,108.796431 Z" id="Shape" fill="#281446"/>
          <path d="M51.443931,106.006154 C48.384069,105.884308 45.3404828,105.924923 42.2806207,105.843692 C39.4771034,105.766523 30.5945517,105.636554 27.8846207,104.9136 C27.6526897,103.0656 27.5957241,91.344 27.5957241,91.344 C27.5957241,91.344 48.5264828,91.6851692 48.6566897,91.5024 C53.0552414,91.4780308 61.2704828,91.5024 62.1534483,96.7052308 C62.5603448,99.1421538 61.6326207,102.253292 59.594069,103.9104 C57.3642759,105.717785 54.284069,105.701538 51.4805517,105.941169 L51.443931,106.006154 Z" id="Shape" fill="#F01446"/>
        </g>
      </g>
    </g>
  </g>
</svg>