<svg width="165px" height="145px" viewBox="0 0 165 145" version="1.1" xml:space="preserve" xmlns="http://www.w3.org/2000/svg" xmlns:xlink="http://www.w3.org/1999/xlink">
  <!-- Generator: Sketch 48.2 (47327) - http://www.bohemiancoding.com/sketch -->
  <defs/>
  <g>
    <title>dorian-d</title>
    <desc>Created with Sketch.</desc>
    <g id="basketball" stroke="none" stroke-width="1" fill="none" fill-rule="evenodd">
      <g id="dorian-d" fill-rule="nonzero">
        <g id="scratch_bball_player01d" transform="translate(5.000000, 19.000000)">
          <path d="M154.932088,47.461794 C154.804253,46.1023256 148.636211,47.0631229 148.656186,44.9302326 C148.67616,42.7973422 154.225,43.3355482 153.45,42.5621262 C153.006572,42.1076412 124.143814,41.9760797 99.6434278,41.792691 L99.6434278,52.1980066 C119.401933,52.5448505 140.52268,52.8 140.854253,52.8039867 C143.682603,52.8039867 153.274227,52.7800664 153.006572,52.0584718 C152.738918,51.3368771 148.472423,51.3328904 148.8,49.6146179 C149.127577,47.8963455 155.059923,48.8252492 154.932088,47.461794 Z" id="Shape" fill="#E6BE6E"/>
          <path d="M144.481572,42.3548173 C144.765206,41.9362126 145.148711,41.9561462 145.512242,41.7607973 C146.926418,40.9634551 148.476418,40.0186047 148.468428,39.3687708 C148.468428,38.5714286 138.249613,40.441196 139.679768,46.2657807 C140.842268,51.0099668 145.348454,48.8491694 145.076804,44.4199336 C145.036856,43.8538206 144.213918,42.7774086 144.481572,42.3548173 Z" id="Shape" fill="#BE965A"/>
          <path d="M60.9573454,40.9554817 C35.5381443,41.1627907 2.31301546,41.2784053 1.83363402,41.7528239 C1.06662371,42.5501661 6.62744845,41.972093 6.62744845,44.1209302 C6.62744845,46.2697674 0.475386598,45.2930233 0.347551546,46.6524917 C0.219716495,48.0119601 6.14806701,47.0830565 6.47564433,48.8053156 C6.80322165,50.5275748 2.53273196,50.523588 2.26507732,51.2491694 C1.99742268,51.9747508 11.5890464,52.0066445 14.4173969,51.9946844 C14.7809278,51.9946844 39.860567,51.6837209 60.941366,51.2930233 L60.9573454,40.9554817 Z" id="Shape" fill="#E6BE6E"/>
          <path d="M10.8180412,41.5574751 C10.5344072,41.1388704 10.1469072,41.158804 9.78337629,40.9634551 C8.37319588,40.166113 6.81920103,39.2212625 6.82719072,38.5714286 C6.82719072,37.7740864 17.0460052,39.6438538 15.6158505,45.4684385 C14.4533505,50.2126246 9.95115979,48.0518272 10.2188144,43.6225914 C10.2587629,43.0564784 11.0976804,41.9800664 10.8180412,41.5574751 Z" id="Shape" fill="#BE965A"/>
          <path d="M65.4036082,72.1275748 L58.3247423,76.1142857 C59.0637887,81.29701 71.8393041,84.454485 82.6493557,85.144186 C93.4594072,85.833887 103.650258,80.1727575 103.650258,80.1727575 L65.4036082,72.1275748 Z" id="Shape" fill="#006482"/>
          <rect id="Rectangle-path" fill="#281446" x="67.5887887" y="69.7714286" width="25.7787371" height="11.9641196"/>
          <path d="M108.659794,93.7594684 L114.883763,91.4112957 C114.883763,91.4112957 113.893041,86.5395349 110.257732,83.6491694 C106.622423,80.758804 98.7845361,77.7009967 98.7845361,77.7009967 L86.025,81.0857143 L103.570361,91.8817276 L108.659794,93.7594684 Z" id="Shape" fill="#E6BE6E"/>
          <polygon id="Shape" fill="#FAF0E6" points="104.593041 105.312957 115.263273 91.1840532 103.06701 91.6186047 95.3010309 105.129568 100.61018 106.616611"/>
          <polygon id="Shape" fill="#281446" points="108.208376 79.2199336 90.9985825 70.6285714 81.6106959 80.8265781 98.8963918 92.3162791"/>
          <polygon id="Shape" fill="#00A0DC" points="105.280155 118.780066 98.6726804 117.922924 87.3073454 118.54485 87.5430412 119.840532 105.591753 119.972093"/>
          <path d="M104.09768,117.492359 C102.904454,117.428097 101.716754,117.285597 100.542268,117.065781 L105.735567,104.559468 L94.4900773,104.559468 L87.2993557,118.54485 L105.27616,118.780066 C105.118489,118.441728 104.984995,118.092684 104.876675,117.735548 C104.628399,117.621835 104.366631,117.540116 104.09768,117.492359 Z" id="Shape" fill="#281446"/>
          <ellipse id="Oval" fill="#00A0DC" cx="96.9309278" cy="110.164784" rx="3.07203608" ry="3.06578073"/>
          <polygon id="Shape" fill="#006482" points="102.032345 107.541528 105.084407 107.541528 105.340077 106.76412 102.172165 106.76412"/>
          <polygon id="Shape" fill="#00A0DC" points="101.684794 109.359468 104.740851 109.359468 104.992526 108.578073 101.824613 108.578073"/>
          <polygon id="Shape" fill="#006482" points="101.337242 111.173422 104.393299 111.173422 104.644974 110.392027 101.477062 110.392027"/>
          <polygon id="Shape" fill="#00A0DC" points="100.993686 112.987375 104.045747 112.987375 104.297423 112.20598 101.133505 112.20598"/>
          <polygon id="Shape" fill="#006482" points="100.646134 114.801329 103.702191 114.801329 103.953866 114.02392 100.785954 114.02392"/>
          <path d="M52.6720361,93.7594684 L46.448067,91.4112957 C46.448067,91.4112957 47.9061856,86.5395349 51.5255155,83.6491694 C55.1448454,80.758804 62.5233247,77.7009967 62.5233247,77.7009967 L75.2828608,81.0857143 L57.7335052,91.8817276 L52.6720361,93.7594684 Z" id="Shape" fill="#E6BE6E"/>
          <polygon id="Shape" fill="#FAF0E6" points="56.730799 105.312957 46.0565722 91.1840532 58.2528351 91.6186047 66.0188144 105.129568 60.7136598 106.616611"/>
          <polygon id="Shape" fill="#281446" points="53.1154639 79.2199336 71.1561856 70.3933555 79.7091495 80.8265781 62.4234536 92.3162791"/>
          <polygon id="Shape" fill="#00A0DC" points="56.0436856 118.780066 62.6511598 117.922924 74.0164948 118.54485 73.7768041 119.840532 55.7280928 119.972093"/>
          <path d="M57.2261598,117.492359 C58.4180491,117.427935 59.6044097,117.285435 60.7775773,117.065781 L55.5842784,104.559468 L66.8337629,104.559468 L74.0244845,118.54485 L56.0476804,118.780066 C56.2051678,118.441651 56.3386574,118.09262 56.4471649,117.735548 C56.6957736,117.622701 56.9574302,117.541016 57.2261598,117.492359 Z" id="Shape" fill="#281446"/>
          <ellipse id="Oval" fill="#00A0DC" cx="64.3929124" cy="110.164784" rx="3.07203608" ry="3.06578073"/>
          <polygon id="Shape" fill="#006482" points="59.2914948 107.541528 56.2354381 107.541528 55.9837629 106.76412 59.1516753 106.76412"/>
          <polygon id="Shape" fill="#00A0DC" points="59.6350515 109.359468 56.5829897 109.359468 56.3313144 108.578073 59.4992268 108.578073"/>
          <polygon id="Shape" fill="#006482" points="59.9826031 111.173422 56.9305412 111.173422 56.6748711 110.392027 59.8427835 110.392027"/>
          <polygon id="Shape" fill="#00A0DC" points="60.3301546 112.987375 57.2740979 112.987375 57.0224227 112.20598 60.1903351 112.20598"/>
          <polygon id="Shape" fill="#006482" points="60.6777062 114.801329 57.6216495 114.801329 57.3699742 114.02392 60.5378866 114.02392"/>
          <path d="M106.993943,40.4730897 C106.993943,40.4730897 56.1515464,39.9667774 52.879768,40.0425249 L52.879768,52.289701 C55.5243557,52.4651163 59.7389175,52.4810631 63.7377577,52.441196 C61.2809278,62.5913621 58.3247423,76.1023256 58.3247423,76.1023256 C60.8934278,77.0710963 64.8363402,76.5009967 67.580799,76.5568106 C71.507732,76.6245847 75.4426546,76.5568106 79.3615979,76.676412 C87.0157216,76.9315615 96.2118557,77.1707641 103.865979,76.7561462 C103.354639,75.5601329 98.7046392,61.9335548 95.8363402,53.5096346 C99.5155928,53.6372093 103.758119,53.8325581 106.993943,53.820598 L106.993943,40.4730897 Z" id="Shape" fill="#00A0DC"/>
          <path d="M70.3092784,29.7847176 C70.3092784,29.7847176 68.355799,28.7122924 67.3610825,24.4863787 C66.6460052,21.4365449 66.4742268,15.5242525 67.6846649,12.9767442 C70.576933,6.89302326 73.5051546,3.68770764 73.5051546,3.68770764 L77.9314433,19.5348837 L70.3092784,29.7847176 Z" id="Shape" fill="#642800"/>
          <path d="M91.0545103,29.7887043 C91.0545103,29.7887043 94.1824742,18.055814 91.4539948,12.3269103 C88.7255155,6.59800664 85.6654639,5.62524917 85.6654639,5.62524917 L82.6173969,14.9302326 L91.0545103,29.7887043 Z" id="Shape" fill="#642800"/>
          <path d="M89.4126289,32.4358804 C89.8496089,30.2631739 90.1167361,28.059863 90.2115979,25.8458472 C92.404768,22.4332226 98.1533505,21.1016611 97.598067,26.8066445 C97.1865979,30.9009967 93.6112113,33.9069767 89.4126289,32.4358804 Z" id="Shape" fill="#E6BE6E"/>
          <path d="M71.2560567,32.455814 C69.5280604,32.5579937 67.7951879,32.3679411 66.1306701,31.8936877 C64.7470963,31.4053287 63.6034789,30.4067011 62.9347938,29.10299 C62.2396907,27.8830565 61.8921392,25.4392027 64.1931701,24.0837209 C66.494201,22.7282392 68.9869845,24.3548173 69.7859536,25.6784053 C70.5170103,26.910299 71.0003866,30.9887043 71.2560567,32.455814 Z" id="Shape" fill="#E6BE6E"/>
          <path d="M86.8798969,16.620598 L72.6662371,16.5647841 C71.3759021,18.2511628 69.0708763,21.8312292 68.7712629,24.9368771 C68.7712629,25.0724252 68.5076031,30.3747508 70.4610825,34.054485 C71.5516753,36.1076412 74.0164948,37.2438538 75.9340206,37.6903654 C80.4841495,38.7747508 86.6521907,37.8936877 89.6443299,33.7993355 C90.8068299,32.2046512 90.9306701,30.633887 91.0385309,29.3142857 C91.7975515,19.9335548 88.5697165,17.8405316 86.8798969,16.620598 Z" id="Shape" fill="#E6BE6E"/>
          <path d="M89.4845361,18.7375415 C87.7108247,19.3275748 71.9951031,19.9893688 70.1534794,19.7182724 C69.7539948,17.2066445 79.7411082,0.211295681 79.7411082,0.211295681 C79.7411082,0.211295681 89.4845361,16.2578073 89.4845361,18.7375415 Z" id="Shape" fill="#642800"/>
          <path d="M80.444201,27.5840532 C81.4145029,28.74241 82.1084262,30.1056193 82.4735825,31.5707641 C80.9795103,32.0810631 78.7823454,32.3003322 77.2802835,31.7980066 C77.2643041,30.3269103 77.9993557,27.5401993 80.444201,27.5840532 Z" id="Shape" fill="#BE965A"/>
          <path d="M78.5106959,34.6843854 C78.5707697,34.8583006 78.667485,35.017352 78.7943299,35.1508306 C79.5094695,35.1388286 80.2246517,35.172118 80.935567,35.2504983 C80.9598099,35.2369518 80.9825706,35.2209181 81.0034794,35.2026578 C81.1589519,35.0790296 81.2315441,34.8786513 81.1912371,34.6843854 C80.3203608,34.6524917 79.3935567,34.6843854 78.5106959,34.6843854 Z" id="Shape" fill="#000000"/>
          <path d="M73.3653351,28.4531561 C72.3826031,28.4531561 72.7661082,27.061794 73.0137887,26.5475083 C73.1296278,26.4578375 73.2768632,26.4186914 73.4220522,26.4389615 C73.5672412,26.4592315 73.6980596,26.5371972 73.7847938,26.6551495 C73.9335731,27.2869703 73.7784538,27.9518878 73.3653351,28.4531561 Z" id="Shape" fill="#000000"/>
          <path d="M86.4564433,28.5887043 C85.481701,28.7162791 85.6574742,27.29701 85.8372423,26.7508306 C85.9400763,26.6468657 86.0803577,26.5883449 86.2267397,26.5883449 C86.3731217,26.5883449 86.513403,26.6468657 86.6162371,26.7508306 C86.8547226,27.3545646 86.7955634,28.0349858 86.4564433,28.5887043 Z" id="Shape" fill="#000000"/>
        </g>
      </g>
    </g>
  </g>
</svg>