<svg width="136px" height="109px" viewBox="0 0 136 109" version="1.1" xml:space="preserve" xmlns="http://www.w3.org/2000/svg" xmlns:xlink="http://www.w3.org/1999/xlink">
  <!-- Generator: Sketch 48.2 (47327) - http://www.bohemiancoding.com/sketch -->
  <defs/>
  <g>
    <title>egg-e</title>
    <desc>Created with Sketch.</desc>
    <g id="food" stroke="none" stroke-width="1" fill="none" fill-rule="evenodd">
      <g id="egg-e" fill-rule="nonzero">
        <g id="scratch_fridge_egg05" transform="translate(32.000000, 2.000000)">
          <path d="M60.256,37.8888991 C57.576,25.3577064 51.576,10.3282569 39.856,3.72344037 C36.932,2.07522936 33.148,0.0718348624 29.704,0.131697248 C27.6302981,0.262236534 25.5974626,0.766575563 23.704,1.62027523 C22.54,2.175 16.356,7.37504587 15.42,8.67605505 C10.22,15.9273853 7.324,23.7494037 4.528,31.1563761 C2.412,36.7435321 2.088,43.1807339 1.1,49.063211 C0.4,53.2256422 -0.256,58.381789 0.572,62.5442202 C2.6,72.712844 10.612,81.3011009 20.304,84.1984404 C21.792,84.6454128 26.764,86.7046789 33.104,86.7765138 C38.36,86.8363761 45.3,85.0285321 45.62,84.8888532 C57.42,79.8284862 60.488,65.3657339 61.056,61.402844 C62.1210217,53.575971 61.8505347,45.6257023 60.256,37.8888991 Z" id="Shape" fill="#F0E6D2"/>
          <path d="M5.472,61.6662385 C6.672,66.7545413 8.96,72.804633 12.868,75.2749541 C13.844,75.8895413 15.1,76.6358257 16.192,76.536055 C16.8620772,76.4344987 17.5005782,76.1835036 18.06,75.8017431 C18.9763276,74.8640302 19.796405,73.837274 20.508,72.736789 C21.976,69.6558716 22.424,66.2237615 23.116,63.1228899 C23.5958145,60.7318458 23.8913457,58.3076441 24,55.8715596 C24.112,54.1475229 24.184,52.016422 23.812,50.3283028 C22.9,46.1977982 20.124,42.8415138 16.96,41.8398165 C15.6469211,41.2924553 14.2349269,41.020757 12.812,41.0416514 C11.4564882,41.183419 10.1305765,41.5306221 8.88,42.0712844 C5.26,44.3899541 4.664,50.3881651 4.588,52.0283945 C4.45853085,55.2657661 4.75573845,58.5060834 5.472,61.6662385 Z" id="Shape" fill="#FAF0E6"/>
        </g>
      </g>
    </g>
  </g>
</svg>