<svg width="152px" height="136px" viewBox="0 0 152 136" version="1.1" xml:space="preserve" xmlns="http://www.w3.org/2000/svg" xmlns:xlink="http://www.w3.org/1999/xlink">
  <!-- Generator: Sketch 48.2 (47327) - http://www.bohemiancoding.com/sketch -->
  <defs/>
  <g>
    <title>goalie-d</title>
    <desc>Created with Sketch.</desc>
    <g id="soccer" stroke="none" stroke-width="1" fill="none" fill-rule="evenodd">
      <g id="goalie-d" fill-rule="nonzero">
        <g id="scratch_footie_player_goalie04" transform="translate(15.000000, 7.000000)">
          <path d="M44.0859873,111.314935 C43.8999363,110.612825 43.7502866,109.906656 43.5359236,109.253247 C43.3215605,108.599838 40.9554777,100 39.9443312,97.8003247 C38.9331847,95.6006494 37.5175796,92.9301948 44.0091401,91.4935065 C50.5007006,90.0568182 48.0537261,110.568182 47.7786943,111.586851 C47.4510828,111.416396 44.1992357,111.314935 44.0859873,111.314935 Z" id="Shape" fill="#281446"/>
          <path d="M43.3053822,111.034903 C43.5157006,114.492695 44.0293631,117.471591 42.6703822,120.775162 L43.7947771,120.775162 C46.286242,118.080357 48.2923567,114.736201 48.708949,111.034903 C46.9301492,110.631895 45.084182,110.631895 43.3053822,111.034903 Z" id="Shape" fill="#F01446"/>
          <path d="M49.0406051,111.116071 C49.0972293,110.616883 49.1417197,110.05276 49.1659873,109.614448 L42.8726115,109.614448 C42.896879,110.020292 42.9332803,110.612825 42.9615924,111.116071 L49.0406051,111.116071 Z" id="Shape" fill="#F04650"/>
          <path d="M48.073949,121.323052 C48.073949,121.323052 45.4328344,121.607143 44.2801274,121.323052 C44.2801274,121.286526 44.8180573,120.458604 45.2306051,119.756494 L42.4196178,119.756494 C42.3225478,120.020292 42.2254777,120.284091 42.1203185,120.539773 C42.0470576,120.751104 41.9390577,120.948639 41.8007962,121.124188 C41.2790446,121.700487 41.3518471,121.789773 41.7077707,122.366071 L41.5257643,124.257305 C41.4974522,124.257305 41.5904777,124.541396 41.6551911,124.663149 C42.1324522,124.663149 42.2901911,124.573864 42.2821019,124.176136 C42.2821019,123.595779 42.2214331,123.015422 42.1809873,122.378247 C42.4997654,122.246121 42.8301652,122.144216 43.1678662,122.073864 C43.3902951,122.422837 43.4753576,122.842373 43.4064968,123.250812 C43.250338,123.647687 43.4270704,124.098125 43.8109554,124.281656 L44.215414,124.030032 C44.1587898,123.656656 44.0819427,123.323864 44.0617197,122.987013 C44.0414968,122.650162 44.0617197,122.293019 44.0819427,121.948052 C45.1214013,121.984578 45.250828,122.159091 45.1254459,123.092532 C45.1017963,123.460115 45.1017963,123.828846 45.1254459,124.196429 L45.5299045,124.362825 C45.8575159,124.163961 45.7725796,123.912338 45.7644904,123.67289 C45.7402229,123.137175 45.5703503,122.581169 45.9950318,122.106331 L46.8282166,122.106331 C46.9657325,122.828734 46.7513694,123.547078 46.9616879,124.289773 L47.5319745,124.224838 C47.5319745,124.001623 47.5319745,123.843344 47.5319745,123.681006 C47.5319745,123.275162 47.5319745,122.05763 47.5319745,122.05763 L48.1305732,122.05763 L48.073949,121.323052 Z" id="Shape" fill="#281446"/>
          <polygon id="Shape" fill="#281446" points="46.6907006 115.267857 43.2083121 115.267857 43.2002229 114.11526 46.6907006 114.11526"/>
          <path d="M46.7392357,118.506494 C44.0536306,118.863636 44.3893312,116.136364 44.7654777,114.853896 C45.2548726,113.210227 45.3964331,111.416396 47.9526115,111.37987 C49.2671019,111.37987 49.5380892,113.368506 49.060828,115.133929 C48.6159236,116.801948 47.4753503,118.218344 46.7392357,118.506494 Z" id="Shape" fill="#BE0A3C"/>
          <path d="M55.3218471,102.244318 C55.3218471,102.244318 52.8950955,101.400162 51.9122611,103.38474 C50.9294268,105.369318 53.6878344,106.225649 53.6878344,106.225649 C53.9305096,106.306818 65.9995541,109.472403 66.1977389,109.310065 C66.391879,108.944805 66.4444586,106.82224 66.6021975,106.489448 C66.5293949,106.168831 55.5038535,102.175325 55.3218471,102.244318 Z" id="Shape" fill="#281446"/>
          <path d="M85.9191401,108.023539 C80.4549045,105.474838 68.4465287,102.832792 68.4465287,102.832792 L65.3847771,114.265422 C66.9419427,115.158279 68.9157006,116.12013 70.5254459,116.972403 C72.8769965,118.272021 75.2964512,119.443894 77.7733439,120.482955 C79.0676115,121.002435 83.2416242,123.271104 84.4833121,121.838474 C86.2629299,119.784903 78.7278662,117.75974 78.9948089,116.741071 C79.2617516,115.722403 86.4449363,119.253247 87.512707,117.390422 C89.1992994,114.448052 81.3568471,112.483766 81.2355096,111.339286 C82.1050955,110.462662 86.1092357,113.149351 87.7675159,112.824675 C91.8121019,112.061688 87.6825796,108.847403 85.9191401,108.023539 Z" id="Shape" fill="#F04650"/>
          <path d="M84.455,102.601461 C84.1921019,98.161526 70.9177707,102.962662 68.7498726,103.534903 L65.6921656,111.022727 C67.7144586,112.646104 69.7043949,114.00974 72.3455096,113.940747 C76.2970701,113.831169 77.3607962,110.661526 78.0928662,107.378247 C80.6409554,107.288961 84.6329618,105.641234 84.455,102.601461 Z" id="Shape" fill="#F01446"/>
          <path d="M70.0400955,102.86526 C69.449586,105.556006 68.3696815,108.023539 67.5284076,110.637175 C66.9055414,112.573052 66.4444586,116.50974 63.6577389,114.314123 C63.6577389,111.603084 64.4666561,108.956981 65.3807325,106.43263 C66.226051,104.135552 66.9945223,100.280032 70.0400955,102.86526 Z" id="Shape" fill="#BE0A3C"/>
          <path d="M18.9852866,69.7199675 C19.0904459,69.5576299 17.027707,66.1038961 16.1540764,62.9667208 C15.191465,59.4967532 15.3936943,56.3027597 15.2116879,55.7589286 L11.781879,55.7102273 C11.781879,55.799513 12.1094904,61.3311688 13.1085032,64.7280844 C13.6741844,66.8423224 14.689763,68.808439 16.0853185,70.4910714 C16.0853185,70.4910714 16.7971656,73.6607143 18.7709236,72.8084416 C20.7446815,71.9561688 18.9852866,69.7199675 18.9852866,69.7199675 Z" id="Shape" fill="#281446"/>
          <path d="M20.437293,56.2215909 C20.437293,51.0876623 22.0551274,35.7508117 20.6961465,33.9001623 C19.3371656,32.049513 17.5979936,32.3011364 16.8416561,34.1436688 C16.5220996,35.1709121 16.3851922,36.2465691 16.4371975,37.3214286 C16.4371975,37.0657468 17.3148726,40.1623377 15.9963376,38.9448052 C14.6778025,37.7272727 15.591879,32.9261364 12.5422611,33.1655844 C11.0538535,35.3612013 11.243949,37.6298701 11.5756051,40.137987 C11.3288854,40.4586039 11.1023885,40.487013 10.8030892,40.275974 C10.3986306,38.7012987 10.1397771,34.9025974 8.4855414,33.9853896 C5.58961783,32.362013 5.89700637,40.0974026 5.89700637,40.0974026 C5.89700637,40.0974026 5.78780255,51.2297078 8.10130573,55.450487 L20.437293,56.2215909 Z" id="Shape" fill="#F04650"/>
          <path d="M21.5738217,45.1866883 C21.9782803,43.0681818 24.765,39.7483766 26.8681847,40.9902597 C29.3879618,42.4837662 26.835828,46.0551948 25.6548089,47.8652597 C23.6325159,50.9334416 21.3109236,55.5762987 17.3350955,55.6087662 C15.7819745,55.6087662 13.3188217,56.1769481 11.8668153,55.6696429 C10.2489809,55.101461 10.6534395,53.1006494 10.7585987,51.4529221 C10.9284713,48.8027597 11.947707,46.7207792 14.1762739,45.2191558 C17.0357962,43.2832792 18.6050955,44.5332792 21.5738217,45.1866883 Z" id="Shape" fill="#F01446"/>
          <path d="M21.2623885,54.3262987 C21.2259873,56.1160714 21.5738217,57.3863636 19.5798408,58.1331169 C17.9417834,58.7459416 10.4269427,58.3806818 8.80910828,57.9383117 C6.45111465,57.2970779 6.64525478,56.0795455 6.9566879,53.8798701 C7.22600647,53.8985261 7.49628652,53.8985261 7.7656051,53.8798701 C10.0925902,53.8095238 12.4222718,53.8000541 14.7546497,53.851461 C16.6677389,53.887987 19.5434395,53.5714286 21.2623885,54.3262987 Z" id="Shape" fill="#BE0A3C"/>
          <path d="M15.6444586,78.7946429 C15.5473885,78.8271104 15.4543631,78.8595779 15.3532484,78.9001623 C13.9337218,79.5762067 12.5923424,80.4063831 11.3531529,81.3758117 L13.3754459,85.7589286 L13.4482484,85.7305195 C13.93544,85.5192148 14.4439668,85.3613717 14.9649682,85.2597403 C15.1955096,85.2313312 21.4363057,84.8823052 22.7669745,84.6347403 C22.7669745,84.6347403 28.223121,84.2775974 26.8115605,78.6201299 C25.4,72.9626623 15.6444586,78.7946429 15.6444586,78.7946429 Z" id="Shape" fill="#281446"/>
          <path d="M5.32267516,91.525974 C7.41372611,89.3465909 10.9325159,87.8977273 13.6707006,86.8709416 C13.266242,84.0016234 12.5665287,82.9951299 10.7990446,80.6696429 C10.0184395,81.4082792 7.93547771,83.4699675 6.7544586,85.3571429 C5.1366242,87.9464286 4.42477707,90.5478896 4.32770701,92.0535714 L4.49757962,92.2767857 C4.69211694,91.9497798 4.97937841,91.6883806 5.32267516,91.525974 Z" id="Shape" fill="#F01446"/>
          <rect id="Rectangle-path" fill="#281446" transform="translate(10.207063, 87.013023) rotate(65.080000) translate(-10.207063, -87.013023) " x="8.46182375" y="86.4367245" width="3.49047771" height="1.1525974"/>
          <path d="M13.7960828,87.5730519 C14.6575796,87.2605519 15.6808599,86.9155844 15.7900637,86.8668831 L12.2874522,78.8636364 C11.8587261,79.2086039 10.8678025,79.7402597 10.3784076,80.1948052 L13.7960828,87.5730519 Z" id="Shape" fill="#F04650"/>
          <path d="M5.03550955,92.6542208 C5.06382166,92.6217532 5.5127707,92.2037338 5.5410828,92.1712662 L4.40455414,89.862013 C4.21031353,90.2680966 3.96863802,90.6495627 3.68461783,90.9983766 L1.77557325,87.1875 C1.77557325,87.1875 1.37111465,87.4269481 1.25786624,87.4959416 L1.4722293,88.1818182 C1.10821656,88.7905844 0.408503185,88.4943182 0.00808917197,88.9042208 L0.00808917197,89.3100649 C0.311433121,89.6347403 0.558152866,89.4480519 0.817006369,89.2775974 C1.08160139,89.0450155 1.41304899,88.902886 1.76343949,88.8717532 L2.35799363,89.862013 C2.06273885,90.4301948 1.38324841,90.0892857 1.01923567,90.5965909 L0.966656051,90.9496753 C1.37111465,91.2215909 1.4439172,91.2256494 1.77557325,90.9496753 C2.01401394,90.6949483 2.36093256,90.5723541 2.70582803,90.6209416 L3.18308917,91.6517857 L1.58952229,92.2727273 C1.39942675,92.5121753 1.3266242,92.7313312 1.58952229,92.987013 C2.18812102,92.8814935 2.80289809,92.2686688 3.47834395,92.2808442 C3.54305732,92.601461 3.81,92.9301948 3.88280255,93.2142857 C3.5794586,93.3157468 2.57235669,93.5633117 2.31350318,93.648539 C2.27565276,93.724606 2.24321503,93.8032657 2.21643312,93.8839286 C2.20954124,93.9432515 2.20954124,94.0031771 2.21643312,94.0625 C2.53191083,94.4358766 2.62089172,94.4683442 2.99703822,94.273539 C3.30847134,94.1233766 3.99200637,93.8068182 4.30748408,93.6607143 L4.35601911,93.6404221 C4.37219745,93.7053571 4.85350318,92.8449675 5.03550955,92.6542208 Z" id="Shape" fill="#281446"/>
          <path d="M8.58261146,86.8060065 C10.3136943,85.2435065 12.1782484,83.9204545 10.2975159,81.9886364 L10.3217834,81.9886364 C8.45318471,81.1769481 5.74735669,83.0925325 4.98697452,84.8863636 C3.87066879,87.4959416 6.47133758,88.6931818 8.58261146,86.8060065 Z" id="Shape" fill="#BE0A3C"/>
          <path d="M121.701592,52.4594156 C124.824013,48.299513 128.407516,43.7256494 125.899873,38.3116883 C123.283025,32.6582792 118.45379,32.6095779 113.414236,35.2962662 C108.965191,37.6785714 105.017675,41.1850649 101.098471,44.3628247 C99.2581847,45.8563312 90.9020701,52.9626623 87.2942994,52.2970779 C86.0809236,49.8011364 96.002293,40.0649351 98.2146815,37.2808442 C102.477675,31.8628247 109.725573,25.0568182 106.202739,17.6866883 C104.491879,14.1112013 100.540318,11.2905844 96.6089809,10.7873377 C92.3904777,10.2353896 88.7463057,13.7702922 86.0202548,16.6030844 C81.348758,21.4732143 77.7086306,27.6420455 73.9957006,33.2832792 C73.1867834,34.5008117 70.2180573,39.4358766 68.0501592,37.4310065 C66.626465,36.1201299 74.0765924,21.3676948 75.447707,18.262987 C76.7621975,15.3084416 78.4892357,11.3636364 78.4649682,8.0762987 C78.388121,-1.25811688 67.2533758,-1.28652597 61.4453503,3.05600649 C55.0346815,7.84496753 51.2287261,16.0430195 47.3580573,22.8165584 C42.9696815,30.4788961 38.2213376,37.8896104 33.8855414,45.5438312 C31.5518153,49.6712662 22.8842675,61.5706169 22.0753503,63.5592532 L56.8790127,99.0422078 C59.1156688,98.0275974 61.2512102,95.9456169 63.2411465,94.5292208 L77.0250955,84.6956169 C83.6582166,79.963474 90.1578662,74.5089286 97.1671338,70.3449675 C101.98828,67.4797078 106.671911,64.7767857 111.125,61.3189935 C114.461783,58.7540584 119.149459,55.8603896 121.701592,52.4594156 Z" id="Shape" fill="#F04650"/>
          <path d="M118.021019,86.1201299 C118.397166,85.5803571 119.161592,84.2897727 119.303153,84.2573052 C125.14758,73.8189935 112.378822,70.2556818 104.52828,71.6761364 C100.325955,72.4310065 94.2671656,72.536526 90.453121,70.4058442 C86.2386624,68.0478896 83.3306051,63.3603896 79.4558917,60.4342532 C71.071465,54.1030844 60.8507962,54.2410714 52.1508917,59.7727273 C47.7342038,62.5771104 43.9161146,66.3474026 40.2436306,70.0568182 C38.3871656,71.9318182 35.3577707,74.0422078 33.9178981,76.2012987 L58.185414,98.6038961 C67.4515605,98.575487 76.5882803,98.5430195 85.8342038,97.9545455 C91.5734713,97.5892857 97.2358917,96.4042208 102.821465,95.1136364 C108.273567,93.8108766 114.748949,90.8198052 118.021019,86.1201299 Z" id="Shape" fill="#F01446"/>
          <path d="M64.935828,99.7686688 C64.935828,99.7686688 44.7816561,80.9496753 39.37,75.9862013 L27.0178344,89.6550325 C35.7986306,97.711039 52.9031847,112.1875 52.9031847,112.1875 L64.935828,99.7686688 Z" id="Shape" fill="#BE0A3C"/>
          <path d="M17.7961783,82.6501623 C15.2319108,80.137987 12.0609554,77.6095779 10.2004459,74.5048701 C11.7495223,72.3701299 22.8397771,59.4886364 22.8397771,59.4886364 C22.8397771,59.4886364 37.2061465,73.2467532 37.5014013,73.1696429 C41.6632803,76.9561688 49.3601274,84.0949675 45.2265605,90.3206169 C43.3053822,93.2142857 39.4347134,95.6737013 35.9240127,95.6371753 C32.0978344,95.5965909 29.2140446,92.9058442 26.3302548,90.7426948 C26.3262102,90.7589286 20.6273885,85.3896104 17.7961783,82.6501623 Z" id="Shape" fill="#281446"/>
          <path d="M27.3454459,87.6623377 C25.1856369,85.5073052 22.928758,83.4862013 20.7446815,81.3636364 C18.7223885,79.4155844 12.3238535,73.3279221 10.8273567,70.9699675 C11.9032166,69.4521104 19.753758,60.7832792 19.753758,60.7832792 C19.753758,60.7832792 34.856242,75.1461039 35.0706051,75.1055195 C38.3062739,78.0519481 44.3003503,83.5998377 41.4529618,88.0397727 C40.1303822,90.101461 37.3355732,91.773539 34.7268153,91.6193182 C31.8753822,91.4488636 29.6306369,89.3587662 27.4061146,87.6542208 L27.3454459,87.6623377 Z" id="Shape" fill="#F01446"/>
        </g>
      </g>
    </g>
  </g>
</svg>