<svg width="152px" height="150px" viewBox="0 0 152 150" version="1.1" xml:space="preserve" xmlns="http://www.w3.org/2000/svg" xmlns:xlink="http://www.w3.org/1999/xlink">
  <!-- Generator: Sketch 48.2 (47327) - http://www.bohemiancoding.com/sketch -->
  <defs/>
  <g>
    <title>sam-c</title>
    <desc>Created with Sketch.</desc>
    <g id="soccer" stroke="none" stroke-width="1" fill="none" fill-rule="evenodd">
      <g id="sam-c" fill-rule="nonzero">
        <g id="scratch_footie_player_boy03" transform="translate(5.000000, 4.000000)">
          <path d="M94.2645965,103.707758 L81.8562105,103.707758 C83.3614737,107.009466 87.0443509,114.536157 87.0443509,114.536157 C87.0443509,114.536157 93.8280702,114.877367 96.3368421,113.903915 C96.1762807,112.769893 94.9971579,106.713416 94.2645965,103.707758 Z" id="Shape" fill="#A0640A"/>
          <path d="M101.805965,137.176441 L97.2901754,113.497473 L85.172807,113.497473 C86.4322105,116.247224 87.6815789,118.811317 87.9826316,119.548932 C90.3408772,125.720819 96.2465263,138.114769 96.4522456,138.300427 C96.4773333,138.767082 96.2967018,140.578505 96.9991579,140.809324 L97.5009123,140.598577 C97.4005614,139.805765 97.3804912,138.04452 97.3804912,138.04452 L98.780386,137.979288 L98.9309123,140.322598 C99.1768293,140.463042 99.4827991,140.443302 99.7086316,140.27242 C99.7086316,140.27242 99.4527368,138.646655 99.7939298,137.964235 C100.932912,137.964235 101.349368,137.888968 101.444702,137.999359 C101.540035,138.109751 101.735719,141.080285 102.618807,140.116868 C102.418105,139.399324 102.036772,138.651673 102.42814,137.863879 C103.00014,137.919075 103.501895,137.964235 103.737719,138.27032 C103.973544,138.576406 104.088947,139.916157 104.43014,140.177082 C104.575649,140.031566 104.806456,140.056655 104.856632,140.006477 L104.354877,137.944164 C104.901544,137.886923 105.45202,137.875175 106.000632,137.909039 C106.000632,137.909039 105.935404,137.45242 105.905298,137.321957 C105.007158,137.271779 102.508421,137.20153 101.805965,137.176441 Z" id="Shape" fill="#000000"/>
          <polygon id="Shape" fill="#BE0A3C" points="88.2686316 123.799004 89.3273333 127.075623 95.0774386 126.724377 94.3699649 123.548114"/>
          <path d="M97.4457193,116.468007 C96.699476,116.470554 95.9539893,116.515788 95.2129123,116.603488 L95.1527018,116.603488 C91.9665614,117.742527 92.2575789,121.535979 92.8697193,124.521566 C93.7076491,128.601032 95.3082456,130.231815 98.8656842,131.862598 C99.4928772,131.862598 100.125088,131.952918 100.752281,131.937865 C102.558596,129.900641 104.073895,130.527865 102.478316,123.141673 C100.882737,115.75548 97.5661404,116.55331 97.4457193,116.468007 Z" id="Shape" fill="#F01446"/>
          <path d="M46.9240702,103.707758 L59.3324561,103.707758 C57.827193,107.009466 54.1443158,114.536157 54.1443158,114.536157 C54.1443158,114.536157 47.3856842,114.877367 44.8618596,113.888861 C45.0073684,112.769893 46.1915088,106.713416 46.9240702,103.707758 Z" id="Shape" fill="#A0640A"/>
          <path d="M39.3776842,137.176441 L43.8934737,113.497473 L56.0108421,113.497473 C54.7514386,116.247224 53.5020702,118.811317 53.2010175,119.548932 C50.8427719,125.720819 44.9371228,138.114769 44.7314035,138.300427 C44.7063158,138.767082 44.8869474,140.578505 44.1844912,140.809324 L43.6827368,140.598577 C43.7830877,139.805765 43.8031579,138.04452 43.8031579,138.04452 L42.4032632,137.979288 L42.2527368,140.322598 C42.0068198,140.463042 41.70085,140.443302 41.4750175,140.27242 C41.4750175,140.27242 41.7309123,138.646655 41.3897193,137.964235 C40.2507368,137.964235 39.8342807,137.888968 39.7389474,137.999359 C39.643614,138.109751 39.4479298,141.080285 38.5648421,140.116868 C38.7655439,139.399324 39.1468772,138.651673 38.7555088,137.863879 C38.1835088,137.919075 37.6817544,137.964235 37.4459298,138.27032 C37.2101053,138.576406 37.0947018,139.916157 36.7535088,140.177082 C36.608,140.031566 36.377193,140.056655 36.3270175,140.006477 L36.8287719,137.944164 C36.2821048,137.886923 35.7316289,137.875175 35.1830175,137.909039 C35.1830175,137.909039 35.2482456,137.45242 35.2783509,137.321957 C36.1815088,137.271779 38.6802456,137.20153 39.3776842,137.176441 Z" id="Shape" fill="#000000"/>
          <polygon id="Shape" fill="#BE0A3C" points="52.9200351 123.799004 51.8613333 127.075623 46.1112281 126.724377 46.8187018 123.548114"/>
          <path d="M43.7379298,116.468007 C44.4841732,116.470554 45.2296598,116.515788 45.9707368,116.603488 L46.0309474,116.603488 C49.2170877,117.742527 48.9260702,121.535979 48.3139298,124.521566 C47.476,128.601032 45.8754035,130.231815 42.3179649,131.862598 C41.6907719,131.862598 41.0585614,131.952918 40.4313684,131.937865 C38.6250526,129.900641 37.1097544,130.527865 38.7053333,123.141673 C40.3009123,115.75548 43.6225263,116.55331 43.7379298,116.468007 Z" id="Shape" fill="#F01446"/>
          <path d="M79.9595789,33.2579359 C79.9595789,33.2579359 85.7548421,34.8435587 87.340386,29.3691459 C88.9259298,23.8947331 80.9430175,25.4251601 79.8792982,28.1799288 C79.3925965,29.4293594 79.9595789,33.2579359 79.9595789,33.2579359 Z" id="Shape" fill="#A0640A"/>
          <path d="M82.0017193,13.9494662 C81.4598246,13.2921352 72.5787719,11.3753381 72.5787719,11.3753381 L53.0103509,22.0682562 C53.4828969,24.2875785 54.1116555,26.470737 54.8919298,28.6014235 C57.1548421,34.0306762 61.0885965,39.9265836 65.1979649,41.2362278 C67.4207368,41.9437367 75.9355088,42.8820641 80.2104561,38.2958007 C82.6891228,35.6363701 85.2631228,30.267331 85.1376842,24.3965125 C85.0423509,20.1514591 82.654,14.7422776 82.0017193,13.9494662 Z" id="Shape" fill="#A0640A"/>
          <path d="M51.3445263,9.48864769 L51.9165263,9.13740214 C51.0535088,6.733879 48.9662105,2.86516014 52.9200351,2.1124911 C55.308386,1.64081851 58.8407368,4.27014235 59.5732982,6.49302491 C59.9696842,6.66362989 59.9696842,6.66362989 60.3309474,6.35252669 C59.9797193,4.52103203 59.2321053,2.25800712 60.7674737,0.832953737 C65.3133684,-1.77629893 67.5160702,4.68160142 70.0800351,7.22562278 L70.6319649,7.1252669 C71.0835439,5.11814947 69.7037193,2.28309609 72.7142456,2.20281139 C74.6861404,2.15263345 75.5892982,3.89380783 76.6028421,5.21348754 C78.9861754,8.31950178 82.3830526,13.979573 82.3830526,13.979573 C82.3830526,13.979573 82.4181754,17.4468683 77.1497544,18.4002491 C74.5205614,18.9020285 70.0499298,16.1773665 63.1006316,18.9020285 C56.1513333,21.6266904 56.3068772,31.0501068 56.3068772,31.0501068 C56.3068772,31.0501068 48.7805614,17.0253737 47.9325965,15.0333096 C47.2803158,13.5279715 45.3034035,9.08220641 46.9290877,7.80266904 C48.2035439,6.78405694 50.3510526,8.81626335 51.3445263,9.48864769 Z" id="Shape" fill="#000000"/>
          <path d="M57.4759649,32.7561566 C57.4759649,32.7561566 51.6807018,34.3417794 50.0951579,28.8673665 C48.509614,23.3929537 56.4925263,24.9233808 57.5562456,27.6781495 C58.0429474,28.9275801 57.4759649,32.7561566 57.4759649,32.7561566 Z" id="Shape" fill="#A0640A"/>
          <path d="M66.7584211,33.1676157 C69.7689474,32.6658363 72.6339649,32.9117082 75.6394737,33.2679715 C75.6194035,38.2355872 65.2932982,38.1352313 66.7584211,33.1676157 Z" id="Shape" fill="#000000"/>
          <path d="M70.2054737,28.7770463 C68.1432632,26.012242 74.3148421,22.5549822 75.6244211,26.8702847 C76.6379649,30.2020996 72.2526316,29.1032028 70.2054737,28.7770463 Z" id="Shape" fill="#824600"/>
          <path d="M64.3148772,26.498968 L64.0589825,27.5777936 L63.316386,27.5777936 C62.9852281,26.3685053 63.6776491,24.4868327 64.3148772,26.498968 Z" id="Shape" fill="#000000"/>
          <path d="M79.849193,27.1864057 L79.2470877,27.1864057 L78.825614,25.8014947 C79.1567719,25.3348399 79.1567719,25.3348399 79.6133684,25.4201423 C79.9274093,25.9528394 80.0124767,26.5899718 79.849193,27.1864057 Z" id="Shape" fill="#000000"/>
          <path d="M60.5467018,108.103345 L65.5893333,92.4177224 L75.0072632,92.2722064 L75.0072632,92.1467616 L80.6168772,108.329146 L97.6765263,107.661779 C96.4672982,102.041851 93.7979649,91.8406762 92.036807,85.2171886 C91.0332982,81.488968 85.7899649,68.4477224 70.5065263,68.5430605 C55.2230877,68.6383986 51.941614,79.1858007 51.941614,79.1858007 C51.941614,79.1858007 50.1955088,83.7018149 49.9345965,84.5197153 C49.2655906,86.6706762 48.5781871,88.8199644 47.872386,90.9675801 C46.3671228,95.6140569 43.6074737,103.471922 42.0821404,108.108363 L60.5467018,108.103345 Z" id="Shape" fill="#000000"/>
          <path d="M5.8805614,51.0811388 C5.74508772,50.3334875 1.33466667,50.4940569 1.23431579,50.0173665 C1.13396491,49.5406762 49.588386,48.2059431 51.4549123,47.6640214 C51.4549123,47.6640214 58.7002456,47.307758 58.9009474,53.3341281 C59.1016491,59.3604982 50.9180351,58.8286121 50.9180351,58.8286121 C41.9918246,59.3956228 1.52533333,56.0537722 1.14901754,55.2408897 C0.772701754,54.4280071 5.3537193,55.4917794 5.56445614,54.066726 C5.77519298,52.6416726 0.501754386,53.0330605 0.245859649,52.1549466 C-0.0100350877,51.2768327 6.02105263,51.82879 5.8805614,51.0811388 Z" id="Shape" fill="#A0640A"/>
          <path d="M6.7385614,46.7708541 C6.58803509,47.5435943 9.96484211,48.6023488 10.4816491,49.520605 C10.9984561,50.4388612 9.40789474,53.143452 12.4886667,53.4244484 C15.5694386,53.7054448 15.7952281,50.4137722 15.4339649,49.324911 C15.0727018,48.2360498 7.6417193,46.0583274 6.7385614,46.7708541 Z" id="Shape" fill="#824600"/>
          <path d="M44.0891579,60.6350178 C44.2798246,60.6350178 56.166386,60.6350178 58.9009474,60.6350178 C61.6355088,60.6350178 67.9325263,59.8070819 67.9325263,53.7355516 C67.9325263,47.6640214 64.922,46.5801779 61.4097193,46.6203203 L43.7981404,46.6203203 C43.7178596,47.7744128 43.6275439,60.0830605 44.0891579,60.6350178 Z" id="Shape" fill="#F01446"/>
          <path d="M137.355263,51.0811388 C137.490737,50.3334875 141.901158,50.4940569 142.001509,50.0173665 C142.10186,49.5406762 93.6474386,48.2059431 91.7809123,47.6640214 C91.7809123,47.6640214 83.3514386,46.504911 83.3514386,53.1835943 C83.3514386,59.8622776 92.0418246,59.4959786 92.0418246,59.4959786 C100.968035,60.0629893 141.715509,56.0387189 142.081789,55.2208185 C142.44807,54.4029181 137.877088,55.4717082 137.666351,54.0466548 C137.455614,52.6216014 142.75414,53.0129893 142.989965,52.1298577 C143.225789,51.246726 137.224807,51.82879 137.355263,51.0811388 Z" id="Shape" fill="#A0640A"/>
          <path d="M136.477193,46.7708541 C136.627719,47.5435943 133.250912,48.6023488 132.734105,49.520605 C132.217298,50.4388612 133.80786,53.143452 130.727088,53.4244484 C127.646316,53.7054448 127.420526,50.4137722 127.781789,49.324911 C128.143053,48.2360498 135.599123,46.0583274 136.477193,46.7708541 Z" id="Shape" fill="#824600"/>
          <path d="M98.1933333,60.6350178 C98.0026667,60.6350178 85.3735088,60.4895018 82.6389474,60.4895018 C79.904386,60.4895018 74.36,59.7920285 74.36,53.7204982 C74.36,47.648968 77.3705263,46.5651246 80.882807,46.6052669 L98.494386,46.6052669 C98.5646316,47.7744128 98.6549474,60.0830605 98.1933333,60.6350178 Z" id="Shape" fill="#F01446"/>
          <path d="M61.4047018,46.6052669 C58.3891579,56.3949822 45.6596491,89.316726 45.6596491,89.316726 L94.3298246,86.8078292 C94.3298246,86.8078292 84.4703509,57.0222064 81.51,46.6052669 L61.4047018,46.6052669 Z" id="Shape" fill="#F01446"/>
        </g>
      </g>
    </g>
  </g>
</svg>