<svg width="165px" height="210px" viewBox="0 0 165 210" version="1.1" xml:space="preserve" xmlns="http://www.w3.org/2000/svg" xmlns:xlink="http://www.w3.org/1999/xlink">
  <!-- Generator: Sketch 48.2 (47327) - http://www.bohemiancoding.com/sketch -->
  <defs/>
  <g>
    <title>jamie-b</title>
    <desc>Created with Sketch.</desc>
    <g id="basketball" stroke="none" stroke-width="1" fill="none" fill-rule="evenodd">
      <g id="jamie-b" fill-rule="nonzero">
        <g id="scratch_bball_player03b" transform="translate(7.000000, 52.000000)">
          <path d="M78.1488978,66.7993194 L55.8029032,77.4131937 C55.8029032,77.4131937 61.1100269,80.9057592 67.8831183,80.9057592 C74.6562097,80.9057592 73.4025269,82.2354974 80.5921774,81.3263089 C87.781828,80.4171204 92.6083065,74.205 92.6083065,74.205 L78.1488978,66.7993194 Z" id="Shape" fill="#780046"/>
          <path d="M62.1073656,78.5787173 L62.6400806,123.361257 L62.8083065,127.867147 L71.7723387,123.617592 C71.7723387,123.617592 71.6681989,80.6013613 71.6201344,80.5252618 L62.1073656,78.5787173 Z" id="Shape" fill="#824600"/>
          <path d="M59.6801075,76.1715707 L59.355672,104.136126 C59.5759677,103.959895 74.5,104.136126 74.5,104.136126 L74.4319086,76.1715707 L59.6801075,76.1715707 Z" id="Shape" fill="#FFDC00"/>
          <polygon id="Shape" fill="#FAB414" points="62.7762634 138.340838 62.6400806 123.365262 71.7723387 123.621597 71.5079839 138.545105"/>
          <polygon id="Shape" fill="#FFDC00" points="56.3876882 151.662251 63.0125806 150.805131 72.8057258 151.429948 72.5654032 152.731649 56.0712634 152.863822"/>
          <path d="M57.5732796,150.372565 C58.7683108,150.307842 59.9577989,150.16468 61.1340591,149.944005 L61.5345968,137.379581 L72.4091935,137.379581 L72.8097312,151.429948 L56.3876882,151.666257 C56.5455907,151.326268 56.6794322,150.975616 56.7882258,150.616885 C57.0387629,150.503198 57.3024735,150.421128 57.5732796,150.372565 Z" id="Shape" fill="#AA3278"/>
          <ellipse id="Oval" fill="#FFDC00" cx="67.6788441" cy="142.273979" rx="3.08013441" ry="3.08002618"/>
          <ellipse id="Oval" fill="#780046" cx="67.6788441" cy="142.273979" rx="1.46196237" ry="1.46191099"/>
          <polygon id="Shape" fill="#FFDC00" points="60.4211022 139.594476 60.4211022 140.375497 62.4358065 140.375497 62.6881452 139.594476"/>
          <polygon id="Shape" fill="#FAB414" points="60.4211022 141.416859 60.4211022 142.19788 62.4358065 142.19788 62.6881452 141.416859"/>
          <polygon id="Shape" fill="#FFDC00" points="60.4211022 143.239241 60.4211022 144.024267 62.4358065 144.024267 62.6881452 143.239241"/>
          <polygon id="Shape" fill="#FAB414" points="60.4211022 145.061623 60.4211022 145.846649 62.4358065 145.846649 62.6881452 145.061623"/>
          <polygon id="Shape" fill="#FFDC00" points="60.4211022 146.88801 60.4211022 147.669031 62.4358065 147.669031 62.6881452 146.88801"/>
          <path d="M90.8138978,114.950262 C91.161655,117.794568 91.2059632,120.66779 90.9460753,123.521466 L94.7591935,125.632225 L100.394758,123.521466 C100.995565,121.022199 101.660457,117.613743 101.596371,114.397539 C101.52828,109.591257 99.7498925,104.019974 99.7498925,104.019974 C99.7498925,104.019974 94.9434409,86.9296335 93.3973656,81.8389791 C91.2344624,81.1901309 81.5935215,81.9711518 80.151586,82.7041099 C80.9526613,85.6840052 84.6175806,93.806623 85.6790054,96.7544764 C86.2838172,98.412644 89.740457,107.216152 90.8138978,114.950262 Z" id="Shape" fill="#824600"/>
          <path d="M100.2025,98.8011518 C99.149086,94.3953927 91.2064247,73.0194503 91.2064247,73.0194503 C91.2064247,73.0194503 81.5935215,71.7618063 74.5240323,70.8766492 L85.0701882,102.349791 C85.0701882,102.349791 95.6563978,99.3779058 100.2025,98.8011518 Z" id="Shape" fill="#FFDC00"/>
          <path d="M90.9460753,123.533482 C90.8112442,125.035931 90.5770852,126.527807 90.2451344,127.999319 C89.8886559,129.53733 89.4160215,131.039293 88.9994624,132.561283 C88.1142742,135.765471 85.0621774,142.338063 83.716371,145.378037 C86.3318817,145.826623 87.8859677,146.455445 90.4974731,146.010864 C92.0555645,143.607723 95.1797581,138.777408 97.3626882,133.726806 C98.2246418,131.682917 98.9081053,129.568275 99.4054301,127.406545 C99.6377419,126.369188 100.018253,125.047461 100.394758,123.521466 L90.9460753,123.533482 Z" id="Shape" fill="#FAB414"/>
          <polygon id="Shape" fill="#FFDC00" points="95.1356989 151.662251 88.5108065 150.805131 79.5187366 151.429948 79.7550538 152.731649 95.4481183 152.863822"/>
          <path d="M93.9501075,150.372565 C92.7550763,150.307842 91.5655882,150.16468 90.389328,149.944005 L96.7979301,137.379581 L85.5187903,137.379581 L79.5107258,151.429948 L95.1316935,151.666257 C94.9720055,151.327025 94.8381137,150.976241 94.7311559,150.616885 C94.4818919,150.503513 94.2195455,150.421449 93.9501075,150.372565 Z" id="Shape" fill="#AA3278"/>
          <polygon id="Shape" fill="#FFDC00" points="93.4294086 140.375497 96.4895161 140.375497 96.7418548 139.594476 93.5695968 139.594476"/>
          <polygon id="Shape" fill="#FAB414" points="92.4801344 142.19788 95.5442473 142.19788 95.796586 141.416859 92.6203226 141.416859"/>
          <polygon id="Shape" fill="#FFDC00" points="91.5308602 144.024267 94.5949731 144.024267 94.8473118 143.239241 91.6710484 143.239241"/>
          <polygon id="Shape" fill="#FAB414" points="90.5855914 145.846649 93.6456989 145.846649 93.8980376 145.061623 90.7217742 145.061623"/>
          <polygon id="Shape" fill="#FFDC00" points="89.6363172 147.669031 92.7004301 147.669031 92.9527688 146.88801 89.7765054 146.88801"/>
          <ellipse id="Oval" fill="#FFDC00" cx="87.7177419" cy="142.273979" rx="3.08013441" ry="3.08002618"/>
          <ellipse id="Oval" fill="#780046" cx="87.7177419" cy="142.273979" rx="1.46196237" ry="1.46191099"/>
          <polygon id="Shape" fill="#780046" points="91.9634409 41.8827487 60.3570161 41.5262827 58.174086 47.8064921 60.3570161 54.5793455 78.1809409 54.6073822 91.9634409 54.5072513 95.3519892 48.0988743"/>
          <path d="M90.2371237,75.106178 C90.2371237,75.106178 90.048871,70.0275393 90.2651613,69.8232723 C92.8686559,71.1930628 97.1463978,74.8458377 98.5723118,77.4332199 C97.9915323,77.5013089 90.2371237,75.106178 90.2371237,75.106178 Z" id="Shape" fill="#824600"/>
          <path d="M59.4798387,75.9072251 C59.4798387,75.9072251 61.931129,71.1530105 61.7148387,70.9447382 C59.1113441,72.318534 52.5705645,75.6468848 51.1446505,78.2222513 C51.7254301,78.302356 59.4798387,75.9072251 59.4798387,75.9072251 Z" id="Shape" fill="#824600"/>
          <rect id="Rectangle-path" fill="#FFDC00" x="66.8977957" y="70.0796073" width="18.2725269" height="8.47507853"/>
          <path d="M63.0726613,39.8400785 L67.05,39.4876178 C67.05,39.4876178 66.433172,49.2083246 74.1234946,49.2083246 C81.8138172,49.2083246 81.5494624,39.7519634 81.5494624,39.7519634 L85.4346774,39.9281937 C85.4346774,39.9281937 92.3279301,73.1716492 92.508172,74.6656021 C89.9887903,75.3865445 58.4624731,78.8190314 58.4624731,78.8190314 L63.0726613,39.8400785 Z" id="Shape" fill="#AA3278"/>
          <path d="M123.525806,43.6570681 C111.549731,42.5115707 97.2184946,42.7879319 97.2184946,42.7879319 L98.6604301,53.3377225 L114.629866,53.6461257 C116.580484,53.9264921 118.599194,54.2829581 120.63793,54.739555 C133.218817,57.5432199 140.396452,62.1252094 137.917124,71.2531414 C136.999892,74.6335602 128.596613,79.3076702 121.467043,80.6494241 C116.588495,81.566623 104.376102,78.1581675 100.775269,77.0006545 C98.7405376,76.347801 92.0235215,73.864555 90.7898656,73.4640314 C88.6910484,72.7831414 86.2637903,72.2344241 85.9233333,73.4359948 C86.6162634,74.8898953 90.6256452,75.1181937 90.7297849,76.9045288 C90.8539516,79.2796335 85.334543,77.0206806 85.0661828,78.1421466 C84.7978226,79.2636126 89.4080108,79.3437173 90.241129,81.158089 C91.4147043,83.7054188 87.3893011,82.0672775 86.5641935,82.9964921 C86.7724731,84.370288 90.2251075,85.1432984 91.2424731,85.5197906 C93.4414247,86.3208377 95.6243548,87.2180105 97.8593548,87.9229319 C102.193172,89.2967277 103.687177,90.6745288 116.740699,92.1524607 C124.186694,92.9935602 137.676801,89.3728272 144.117446,82.1834293 C148.971962,76.7643455 149.324435,68.9260995 148.775699,65.3213874 C148.154866,61.2160209 146.584758,55.6567539 141.209543,50.7583508 C136.082661,46.0922513 127.234785,43.9975131 123.525806,43.6570681 Z" id="Shape" fill="#A0640A"/>
          <path d="M99.3693817,74.697644 C101.852715,75.3625131 104.452204,75.9592932 106.755296,77.1328272 C107.007634,77.7296073 104.99293,83.3569634 104.712554,84.1459948 C104.106083,85.9920801 103.402834,87.8049558 102.605726,89.5770942 C101.804651,91.2632984 101.067661,91.3674346 99.0008871,91.1110995 C97.3987366,90.9108377 95.5602688,89.6972513 94.2425,88.7640314 C94.1503763,88.4996859 94.9154032,86.7133508 95.9167473,83.5572251 C96.8692811,80.5305272 98.0227213,77.570759 99.3693817,74.697644 Z" id="Shape" fill="#780046"/>
          <path d="M25.7105108,43.2565445 C37.686586,42.1110471 56.3676613,42.3874084 56.3676613,42.3874084 L56.7281452,52.937199 L34.6064516,53.2456021 C32.6558333,53.5259686 30.6371237,53.8824346 28.5983871,54.3390314 C16.0215054,57.1426963 8.84387097,62.1252094 11.3231989,71.2531414 C12.2404301,74.6335602 20.6437097,79.3076702 27.7732796,80.6494241 C32.651828,81.566623 46.466371,78.1581675 50.0631989,77.0006545 C52.1019355,76.347801 58.8189516,73.864555 60.0486022,73.4640314 C62.1474194,72.7831414 64.5786828,72.2344241 64.9151344,73.4359948 C64.2262097,74.8898953 60.216828,75.1181937 60.1086828,76.9045288 C59.9845161,79.2796335 63.825672,77.4492408 64.8230108,77.1168063 C65.3517204,77.1848953 65.3517204,77.1848953 65.624086,77.4892932 C64.7268817,79.5760209 61.4144355,79.3517277 60.5853226,81.158089 C59.4117473,83.7054188 63.4331452,82.0672775 64.2622581,82.9964921 C64.0539785,84.370288 60.6013441,85.1432984 59.5839785,85.5197906 C57.3850269,86.3208377 55.2020968,87.2180105 52.9670968,87.9229319 C48.6332796,89.2967277 45.5371237,90.6745288 32.4836022,92.1524607 C25.0376075,92.9935602 11.5475,89.3728272 5.10685484,82.1834293 C0.25233871,76.7643455 -0.100134409,68.9260995 0.444596774,65.3213874 C1.06943548,61.2160209 2.63553763,55.6567539 8.01475806,50.7583508 C13.1536559,46.0922513 22.0015323,43.5969895 25.7105108,43.2565445 Z" id="Shape" fill="#A0640A"/>
          <path d="M51.469086,74.697644 C48.9817473,75.3625131 46.3862634,75.9592932 44.083172,77.1328272 C43.8308333,77.7296073 45.8415323,83.3569634 46.125914,84.1459948 C46.7310253,85.9920187 47.4329381,87.8048957 48.2287366,89.5770942 C49.0298118,91.2632984 49.7668011,91.3674346 51.8536022,91.1110995 C53.4557527,90.9108377 55.2942204,89.6972513 56.6119892,88.7640314 C56.7001075,88.4996859 55.939086,86.7133508 54.9377419,83.5572251 C53.9780262,80.5308243 52.819281,77.5711772 51.469086,74.697644 Z" id="Shape" fill="#780046"/>
          <path d="M87.4934409,5.4110733 C82.6869892,0.809057592 74.7243011,-1.09743455 68.4799194,1.12146597 C61.5145699,3.59670157 57.4050538,10.2253665 58.0338978,17.5429319 C58.2782258,20.382644 58.8349731,23.715 60.6734409,26.01 C62.4117742,28.1568063 66.7856452,30.6961257 69.6294624,30.1273822 L84.4813978,28.4772251 C90.9781183,28.2048691 93.3252688,10.9783508 87.4934409,5.4110733 Z" id="Shape" fill="#000000"/>
          <path d="M85.3745968,25.3891885 C85.3745968,25.0847906 84.8579032,19.7618325 82.4266398,16.7178534 C80.2316935,13.9702618 76.1622312,13.4615969 74.8604839,13.4015183 C69.3691129,13.1531937 65.1674731,16.8420157 64.7268817,19.9380628 C64.0619892,24.5801309 65.3236828,29.3503665 68.4638978,33.6920419 C70.1862097,36.0751571 72.6855645,36.8241361 74.9606183,36.8201309 C81.2851075,36.8121204 85.6469624,31.4931675 85.3745968,25.3891885 Z" id="Shape" fill="#A0640A"/>
          <polygon id="Shape" fill="#000000" points="65.1394355 24.3958901 64.847043 14.1304712 61.9791935 16.8099738 64.0860215 22.9299738"/>
          <polygon id="Shape" fill="#000000" points="85.430672 22.9299738 87.5415054 16.8099738 83.1035484 13.7259424 83.9246505 23.3905759"/>
          <path d="M82.8071505,29.0619895 C82.8071505,29.0619895 85.610914,27.8924607 87.2130645,25.6615445 C88.2464516,24.2196597 88.622957,21.760445 87.9780914,20.8152094 C87.1409677,19.5775916 85.6709946,19.193089 84.4894086,20.2624869 C83.5801882,21.0875654 82.630914,25.8337696 82.5147581,26.9512304 C82.5307796,26.9712565 82.8071505,29.0619895 82.8071505,29.0619895 Z" id="Shape" fill="#A0640A"/>
          <path d="M67.7148925,28.6854974 C67.7148925,28.6854974 64.6988441,28.5052618 62.4478226,26.927199 C60.993871,25.9098691 59.8243011,23.7230105 60.1166935,22.609555 C60.5172312,21.1636649 61.7588978,20.314555 63.2248656,20.9353665 C64.3583871,21.4119895 66.8297043,25.5734293 67.3103495,26.5907592 C67.2903226,26.6187958 67.7148925,28.6854974 67.7148925,28.6854974 Z" id="Shape" fill="#A0640A"/>
          <path d="M70.3544355,29.2382199 C71.3675367,28.9919548 72.4295536,29.0363775 73.4185484,29.3663874 C74.0153495,30.6921204 69.7656452,30.6440576 70.3544355,29.2382199 Z" id="Shape" fill="#000000"/>
          <path d="M76.767043,26.7549738 C75.7296505,27.1795288 74.6842473,26.9392147 73.6508602,26.6828796 C73.3023925,25.7937173 74.6682258,23.4466492 75.6054839,23.4146073 C76.5026882,24.3398168 77.1155108,25.3371204 76.767043,26.7549738 Z" id="Shape" fill="#824600"/>
          <path d="M69.6534946,23.3665445 C69.7496237,24.0193979 69.8257258,24.6001571 69.4492204,25.1328534 C68.4999462,25.2169634 68.7883333,23.5307592 69.2329301,23.1502618 L69.6534946,23.3665445 Z" id="Shape" fill="#000000"/>
          <path d="M80.8845699,23.4226178 C80.9566667,24.0354188 81.2851075,24.6241885 80.7964516,25.2209686 L80.119543,25.0767801 C80.1555914,24.4519634 79.9112634,23.8311518 80.3838978,23.2824346 L80.8845699,23.4226178 Z" id="Shape" fill="#000000"/>
          <path d="M60.5212366,41.5503141 C56.491828,41.5062565 53.2675,41.446178 53.2675,41.446178 L52.0658871,54.5473037 L60.345,54.5793455 L60.5212366,41.5503141 Z" id="Shape" fill="#780046"/>
          <path d="M91.9634409,54.5072513 L99.9741935,54.4471728 C99.9741935,54.4471728 99.5976882,41.9508377 98.5923387,41.9508377 C98.3680376,41.9508377 95.5642742,41.9268063 91.9714516,41.8867539 L91.9634409,54.5072513 Z" id="Shape" fill="#780046"/>
        </g>
      </g>
    </g>
  </g>
</svg>