<svg width="165px" height="145px" viewBox="0 0 165 145" version="1.1" xml:space="preserve" xmlns="http://www.w3.org/2000/svg" xmlns:xlink="http://www.w3.org/1999/xlink">
  <defs/>
  <g>
    <title>casey-b</title>
    <desc>Created with Sketch.</desc>
    <g id="basketball" stroke="none" stroke-width="1" fill="none" fill-rule="evenodd">
      <g id="casey-b" fill-rule="nonzero">
        <g id="scratch_bball_player02b" transform="translate(19.000000, 8.000000)">
          <path d="M44.9900332,70.4747368 L29.10299,83.0712074 C29.10299,83.0712074 29.4697674,85.9387616 32.8943522,87.4643963 C36.3787375,89.0259752 53.1627907,90.5635913 69.627907,89.8606811 C86.0930233,89.1577709 93.2890365,83.7701238 93.2890365,83.7701238 L44.9900332,70.4747368 Z" id="Shape" fill="#006482"/>
          <polygon id="Shape" fill="#281446" points="76.9435216 87.0650155 45.8471761 87.0650155 41.8604651 70.6904025 80.9302326 70.6904025"/>
          <path d="M24.482392,23.4556347 C22.3255814,10.6994118 23.792691,6.33417957 23.1229236,4.23343653 C22.2458472,1.52164087 20.7667774,2.69182663 19.9335548,4.65678019 C19.3435216,5.96275542 18.1196013,15.8634056 14.8704319,11.901548 C13.8976744,10.7034056 13.4710963,8.77439628 13.3475083,7.36857585 C13.1561462,5.19195046 13.9295681,2.1326935 12.4186047,0.351455108 C9.36079734,-0.467275542 9.83920266,3.77414861 9.31295681,6.19040248 C9.02990033,7.48839009 9.36079734,14.6772446 5.76877076,14.3417647 C2.17674419,14.0062848 4.18604651,4.5169969 0.924916944,4.79256966 C0.434551495,4.83650155 -0.972757475,22.325387 1.19601329,32.749226 C4.03853821,46.4120433 11.1627907,54.1919814 15.6677741,57.6785759 C28.5169435,67.599195 38.9820598,69.3804334 41.4936877,70.0234365 L45.448505,48.4808359 C42.8172757,48.1293808 37.3953488,45.8089783 31.945515,40.573096 C27.061794,35.8763777 25.5149502,29.4862848 24.482392,23.4556347 Z" id="Shape" fill="#DC785A"/>
          <path d="M118.178073,4.90040248 C116.220598,4.24541796 117.053821,14.0262539 111.671761,13.982322 C108.083721,13.9543653 108.458472,8.57869969 107.948173,6.12650155 C107.589369,4.41315789 107.649169,1.51365325 105.404651,1.11427245 C103.168106,2.99934985 105.081728,13.3672755 101.617276,14.2059752 C98.1528239,15.0446749 98.427907,7.58424149 97.379402,5.92281734 C94.7322259,1.66941176 94.9435216,14.0422291 95.0152824,14.8210217 C95.6810631,21.8141796 92.4518272,36.7110836 87.0139535,41.9789164 C81.5760797,47.2467492 71.9521595,48.5607121 71.9521595,48.5607121 L78.538206,70.6904025 C81.986711,68.5337461 97.9215947,69.5282043 111.137542,48.5447368 C122.308306,30.8122291 120.131561,5.555387 118.178073,4.90040248 Z" id="Shape" fill="#DC785A"/>
          <path d="M92.0930233,28.0365325 C90.6936877,23.1680805 85.833887,18.0520124 87.6398671,14.9727864 C88.5328904,14.8569659 89.2345515,15.2882972 89.8245847,15.7196285 C90.9289037,17.1254489 91.7621262,18.3315789 92.2803987,20.036935 C92.4079734,20.0928483 93.3209302,21.7103406 94.8837209,20.6479876 C96.4465116,19.5856347 98.8465116,18.2037771 102.613953,20.4043653 C106.078405,22.429226 108.546179,25.7720433 108.299003,29.9895046 C108.083721,33.6917647 106.178073,37.2182972 102.374751,37.9771207 C99.4604651,38.576192 96.9089701,38.2646749 94.6524917,36.826904 C91.5229236,34.8659443 93.476412,32.9049845 92.0930233,28.0365325 Z" id="Shape" fill="#DC5050"/>
          <path d="M24.0239203,17.3810526 L24.4784053,17.1014861 C24.4186047,15.6437461 25.7740864,10.1402786 28.1222591,10.5596285 C30.1674419,10.9270588 27.90299,16.9057895 27.5920266,18.1478638 C26.9023256,20.9155728 26.1647841,23.3398142 26.4598007,26.1993808 C26.7548173,29.0589474 26.4079734,32.3378638 24.1275748,34.2708669 C21.8471761,36.20387 13.0883721,37.0106192 11.3700997,28.963096 C9.67973422,21.0313932 16.0903654,13.7307121 24.0239203,17.3810526 Z" id="Shape" fill="#DC5050"/>
          <polygon id="Shape" fill="#DC785A" points="73.3196013 47.126935 71.2305648 58.1218885 43.9734219 58.173808 48 47.2147988"/>
          <polygon id="Shape" fill="#006482" points="75.6358804 47.0071207 79.586711 45.4255728 89.8564784 68.2222291 84.7853821 72.427709"/>
          <polygon id="Shape" fill="#006482" points="45.2292359 47.0071207 40.5528239 45.5813313 31.861794 68.3779876 35.8325581 72.6992879"/>
          <path d="M71.4179402,91.6259443 L71.8166113,106.526842 L82.0584718,106.878297 C82.0584718,106.878297 82.4810631,92.193065 82.6126246,91.278483 L71.4179402,91.6259443 Z" id="Shape" fill="#DC785A"/>
          <polygon id="Shape" fill="#FAF0E6" points="71.2265781 112.793127 71.2225914 105.83192 82.8039867 106.039598 82.5289037 112.517554"/>
          <path d="M70.3495017,111.251517 L70.4013289,122.593932 L79.0524917,127.989567 L85.3993355,127.546254 C85.6305648,126.611703 82.4093023,126.719536 82.4093023,126.719536 L83.2784053,111.543065 L70.3495017,111.251517 Z" id="Shape" fill="#00A0DC"/>
          <ellipse id="Oval" fill="#006482" cx="74.5913621" cy="116.1" rx="2.54750831" ry="2.55204334"/>
          <path d="M80.9900332,113.563932 C80.8624585,113.847492 80.7229236,114.123065 80.5913621,114.398638 L83.3820598,114.398638 L83.7807309,113.563932 L80.9900332,113.563932 Z" id="Shape" fill="#FAF0E6"/>
          <path d="M80.9860465,115.972198 C80.9302326,116.111981 80.8664452,116.247771 80.7986711,116.371579 L80.5873754,116.794923 L83.7528239,116.794923 L83.7528239,115.956223 L80.9860465,115.972198 Z" id="Shape" fill="#F0E6D2"/>
          <path d="M83.7528239,119.01548 L83.7528239,118.368483 L80.5873754,118.368483 C80.4518272,118.64805 80.3242525,118.927616 80.1887043,119.207183 L83.6571429,119.207183 C83.6930233,119.159257 83.7209302,119.095356 83.7528239,119.01548 Z" id="Shape" fill="#FAF0E6"/>
          <path d="M83.6531561,120.988421 C83.6890365,120.92452 83.7209302,120.860619 83.7528239,120.796718 L80.3880399,120.796718 C80.3601329,120.856625 80.3322259,120.916533 80.3083056,120.980433 C80.2126246,121.200093 80.1129568,121.415759 80.0172757,121.635418 L83.3461794,121.635418 C83.4458472,121.411765 83.545515,121.200093 83.6531561,120.988421 Z" id="Shape" fill="#F0E6D2"/>
          <path d="M80.1328904,124.043684 L83.3581395,124.043684 C83.4936877,123.768111 83.6212625,123.488545 83.7568106,123.208978 L80.3840532,123.208978 C80.2963455,123.484551 80.2166113,123.764118 80.1328904,124.043684 Z" id="Shape" fill="#FAF0E6"/>
          <path d="M77.7009967,127.402477 C77.2106312,121.891022 70.4212625,122.577957 70.4212625,122.577957 L70.4212625,128.640557 L85.2717608,128.640557 L85.4152824,127.530279 L77.7009967,127.402477 Z" id="Shape" fill="#281446"/>
          <polygon id="Shape" fill="#281446" points="88.2179402 97.1094427 88.6604651 77.2082972 67.3913621 77.2362539 67.4511628 97.1294118"/>
          <path d="M51.5362126,91.6259443 L51.1375415,106.526842 L40.8956811,106.878297 C40.8956811,106.878297 40.4730897,92.193065 40.3375415,91.278483 L51.5362126,91.6259443 Z" id="Shape" fill="#DC785A"/>
          <polygon id="Shape" fill="#FAF0E6" points="51.7315615 112.793127 51.7355482 105.83192 40.1501661 106.039598 40.4292359 112.517554"/>
          <path d="M52.6245847,111.251517 L52.5727575,122.593932 L43.9215947,127.989567 L37.5747508,127.546254 C37.3435216,126.611703 40.5647841,126.719536 40.5647841,126.719536 L39.6996678,111.543065 L52.6245847,111.251517 Z" id="Shape" fill="#00A0DC"/>
          <ellipse id="Oval" fill="#006482" cx="48.3667774" cy="116.1" rx="2.54750831" ry="2.55204334"/>
          <path d="M41.9641196,113.563932 C42.0916944,113.847492 42.2312292,114.123065 42.3627907,114.398638 L39.572093,114.398638 L39.1734219,113.563932 L41.9641196,113.563932 Z" id="Shape" fill="#FAF0E6"/>
          <path d="M41.972093,115.972198 C42.027907,116.111981 42.0877076,116.247771 42.1594684,116.371579 L42.3667774,116.794923 L39.2013289,116.794923 L39.2013289,115.956223 L41.972093,115.972198 Z" id="Shape" fill="#F0E6D2"/>
          <path d="M39.2013289,119.01548 L39.2013289,118.368483 L42.3707641,118.368483 C42.5023256,118.64805 42.633887,118.927616 42.7694352,119.207183 L39.3049834,119.207183 L39.2013289,119.01548 Z" id="Shape" fill="#FAF0E6"/>
          <path d="M39.3009967,120.988421 L39.2013289,120.796718 L42.5700997,120.796718 C42.5940199,120.856625 42.6219269,120.916533 42.6458472,120.980433 C42.7415282,121.200093 42.841196,121.415759 42.9408638,121.635418 L39.6079734,121.635418 C39.5083056,121.411765 39.4086379,121.200093 39.3009967,120.988421 Z" id="Shape" fill="#F0E6D2"/>
          <path d="M42.813289,124.043684 L39.5840532,124.043684 C39.448505,123.768111 39.3209302,123.488545 39.1853821,123.208978 L42.5581395,123.208978 C42.6578073,123.484551 42.7375415,123.764118 42.813289,124.043684 Z" id="Shape" fill="#FAF0E6"/>
          <path d="M45.2571429,127.402477 C45.7435216,121.891022 52.5328904,122.577957 52.5328904,122.577957 L52.5328904,128.640557 L37.6983389,128.640557 L37.5548173,127.530279 L45.2571429,127.402477 Z" id="Shape" fill="#281446"/>
          <polygon id="Shape" fill="#281446" points="34.9714286 97.1094427 34.2936877 77.2082972 55.5667774 77.2362539 55.50299 97.1294118"/>
          <path d="M93.2890365,83.7701238 L76.7601329,44.9942415 L70.5129568,45.1619814 C70.5129568,45.1619814 71.4976744,54.4276161 59.8524917,54.4595666 C51.5083056,54.4835294 50.2006645,45.3297214 50.2006645,45.3297214 L43.1960133,44.7306502 L29.10299,83.0712074 L93.2890365,83.7701238 Z" id="Shape" fill="#00A0DC"/>
          <path d="M69.3687708,36.0201548 C69.2491694,35.828452 69.9348837,30.7882663 70.6963455,29.2985759 C71.3700997,27.9806192 73.3355482,26.6307121 74.7269103,27.4414551 C76.4491694,28.4518885 75.8950166,30.9560062 75.1255814,32.3099071 C74.0013289,34.310805 71.517608,35.3691641 69.3687708,36.0201548 Z" id="Shape" fill="#DC785A"/>
          <path d="M51.0737542,36.0201548 C51.1973422,35.828452 50.5076412,30.7882663 49.7461794,29.2985759 C49.0724252,27.9806192 47.1069767,26.6307121 45.7156146,27.4414551 C43.9933555,28.4518885 44.5475083,30.9560062 45.3169435,32.3099071 C46.4571429,34.310805 48.9408638,35.3691641 51.0737542,36.0201548 Z" id="Shape" fill="#DC785A"/>
          <path d="M68.0730897,17.7924149 C70.1820598,19.9850155 77.4418605,10.0763777 78.4784053,8.70650155 C76.9156146,5.43557276 73.917608,4.10563467 70.3893688,3.95386997 C69.355476,6.21694947 68.6995729,8.63475352 68.4478405,11.110774 C68.2086379,13.2274923 67.710299,15.6717028 68.0730897,17.7924149 Z" id="Shape" fill="#FFC800"/>
          <path d="M63.9707641,18.8627554 L69.9069767,22.5730031 C69.9069767,22.5730031 72.4225914,19.557678 69.145515,17.4209907 C65.8684385,15.2843034 63.9707641,18.8627554 63.9707641,18.8627554 Z" id="Shape" fill="#006482"/>
          <path d="M51.7953488,17.6086997 C49.682392,19.8013003 42.4225914,9.89266254 41.3900332,8.52278638 C42.9528239,5.25185759 45.9468439,3.9219195 49.4790698,3.7701548 C50.5138822,6.03342248 51.1724002,8.4509377 51.4285714,10.9270588 C51.655814,13.0437771 52.1581395,15.4879876 51.7953488,17.6086997 Z" id="Shape" fill="#FFC800"/>
          <path d="M55.8936877,18.6790402 L49.9574751,22.3892879 C49.9574751,22.3892879 47.4418605,19.3779567 50.7229236,17.2372755 C54.0039867,15.0965944 55.8936877,18.6790402 55.8936877,18.6790402 Z" id="Shape" fill="#006482"/>
          <path d="M71.9521595,23.22 L48.5581395,23.1640867 C48.5581395,23.1640867 48.7415282,17.0655418 60.8172757,17.1414241 C70.3136213,17.2173065 71.9521595,23.22 71.9521595,23.22 Z" id="Shape" fill="#FFC800"/>
          <path d="M49.3953488,25.4964706 C49.2239203,25.8359443 49.1282392,29.4503406 48.9568106,29.793808 C48.9089701,30.7443344 48.4903654,31.6149845 49.1960133,33.9393808 C49.850207,35.8040083 50.6624723,37.6091378 51.6239203,39.3350155 C52.6684385,40.8087307 54.30299,42.4382043 56.0093023,43.1131579 C59.310299,44.4311146 63.5043189,44.0716718 66.2790698,42.1067183 C69.5880399,39.7623529 70.7162791,35.7166254 71.2465116,31.7907121 C71.489701,29.981517 72.4425249,27.1658824 72.1594684,25.3486997 L49.3953488,25.4964706 Z" id="Shape" fill="#DC785A"/>
          <path d="M62.192691,29.9535604 C62.1209302,31.7427864 57.7714286,32.5175851 57.8950166,29.6460372 C58.0186047,26.7744892 57.8511628,24.8774303 59.8604651,24.8534675 C61.8697674,24.8295046 62.2564784,28.1523529 62.192691,29.9535604 Z" id="Shape" fill="#DC5050"/>
          <polygon id="Shape" fill="#FFC800" points="68.0850498 26.7944582 71.4777409 31.7947059 72.2910299 26.8903096"/>
          <polygon id="Shape" fill="#FFC800" points="52.1980066 26.7944582 48.8093023 31.7947059 47.9920266 26.8903096"/>
          <path d="M73.076412,28.775387 C73.4750831,27.09 73.8737542,23.6832817 72.7933555,22.5370588 L48.3229236,22.5370588 C47.2026578,23.4356656 46.9754153,27.4534365 47.0750831,29.0589474 L73.076412,28.775387 Z" id="Shape" fill="#00A0DC"/>
          <path d="M62.8425249,33.8075851 C62.8425249,33.8075851 62.2285714,35.0057276 59.9162791,34.9178638 C57.6039867,34.83 57.1534884,33.8475232 57.1534884,33.8475232 L62.8425249,33.8075851 Z" id="Shape" fill="#000000"/>
          <path d="M67.227907,31.2116099 C66.5421927,32.1621362 65.8126246,30.5885759 66.5740864,29.9096285 C67.0684385,29.9535604 67.2398671,30.3090093 67.227907,31.2116099 Z" id="Shape" fill="#000000"/>
          <path d="M53.6770764,31.2635294 C53.1787375,31.0518576 53.2186047,30.6085449 53.1348837,30.2091641 L53.7847176,29.7139319 C54.510299,29.9535604 54.358804,31.1037771 53.6770764,31.2635294 Z" id="Shape" fill="#000000"/>
          <polygon id="Shape" fill="#006482" points="73.4272425 27.2896904 46.8518272 27.2817028 47.1986711 24.0187616 73.4272425 23.9149226"/>
        </g>
      </g>
    </g>
  </g>
</svg>