<svg width="136px" height="109px" viewBox="0 0 136 109" version="1.1" xml:space="preserve" xmlns="http://www.w3.org/2000/svg" xmlns:xlink="http://www.w3.org/1999/xlink">
  <!-- Generator: Sketch 48.2 (47327) - http://www.bohemiancoding.com/sketch -->
  <defs/>
  <g>
    <title>egg-c</title>
    <desc>Created with Sketch.</desc>
    <g id="food" stroke="none" stroke-width="1" fill="none" fill-rule="evenodd">
      <g id="egg-c" fill-rule="nonzero">
        <g id="scratch_fridge_egg01" transform="translate(30.000000, 4.000000)">
          <path d="M8.4,91.4250397 C7.568,91.1484921 8.4,95.3768651 7.364,95.1684524 C7.072,95.1083333 6.768,90.6996032 6.464,86.988254 C5.692,77.5976587 5.08,50.4639286 5.08,50.4639286 C5.08,50.4639286 3.88,42.8809127 8.82,41.7827381 C13.76,40.6845635 12.42,61.5538889 12.42,61.5538889 C12.42,61.5538889 11.968,90.2346825 11.452,95.1003175 C10.76,94.435 10.76,91.7055952 10.344,91.6334524 C9.928,91.5613095 10.204,95.7936905 9.584,95.7215476 C8.964,95.6494048 9.2,91.7015873 8.4,91.4250397 Z" id="Shape" fill="#DCD2B4"/>
          <path d="M85.096,22.9053571 L84.72,32.5965476 L75.52,39.5382937 L76.676,48.0511508 L68.936,54.1071429 L71.532,65.1009127 C71.532,65.1009127 80.332,71.6859524 87.104,60.8364683 C93.876,49.9869841 91.832,33.4863095 91.832,33.4863095 L85.096,22.9053571 Z" id="Shape" fill="#000000"/>
          <path d="M64.352,65.0768651 C57.884,59.7863889 58.648,53.8546429 55.74,50.0070238 C55.74,50.0070238 50.94,47.1293254 49.172,50.9649206 C47.404,54.8005159 54.468,61.4977778 54.468,61.4977778 C54.764,61.7623016 60.344,68.2471429 65.972,71.016627 C69.2330733,72.5414633 72.8814463,73.0309293 76.428,72.4194048 C76.428,72.4194048 70.82,70.3713492 64.352,65.0768651 Z" id="Shape" fill="#DCD2B4"/>
          <path d="M23.176,61.1130159 C17.428,61.2492857 18.596,68.487619 18.596,68.487619 C18.796,69.8663492 24.344,97.8096825 24.476,99.3086508 C23.38,99.5611508 22.42,98.7555556 21.304,99.1563492 L21.172,99.9940079 C21.5035089,100.355032 21.9914045,100.528984 22.476,100.458929 C23.276,100.458929 24.076,100.482976 24.9,100.507024 C26.232,100.543095 26.156,100.59119 27.488,100.627262 C27.6431919,100.610624 27.7961015,100.577025 27.944,100.527063 C28.076,100.246508 28.924,60.976746 23.176,61.1130159 Z" id="Shape" fill="#AAA082"/>
          <path d="M44.208,99.5290873 C44.2678116,99.2925595 44.3412683,99.059708 44.428,98.8317063 C45.256,96.9640079 50.108,68.2431349 50.128,67.6740079 C50.128,67.6740079 51.912,63.7181746 45.62,61.1130159 C39.328,58.5078571 39.544,65.842381 39.544,65.842381 C39.544,66.1910714 40.556,100.310635 40.92,100.595198 C41.42,100.823651 44.92,100.286587 46.12,100.783571 C46.656,100.695397 47.144,100.587183 47.14,99.8938095 C46.876,99.7014286 45,99.99 44.208,99.5290873 Z" id="Shape" fill="#AAA082"/>
          <path d="M56.504,24.4484127 C56.4,23.799127 55.992,20.5446825 55.992,20.5446825 L44.792,20.4164286 C44.792,20.4164286 44.068,18.4725794 43.284,15.8073016 C42.996,14.8293651 41.976,11.3424603 41.976,11.3424603 L36.62,12.2282143 L30.688,1.05007937 C29.444193,0.662564087 28.159506,0.421795803 26.86,0.33265873 C25.3153086,0.296690805 23.7713557,0.431097083 22.256,0.733452381 C22.256,0.733452381 18.536,4.00793651 18.512,4.40873016 L16.984,28.7449206 C16.984,28.7449206 38.716,44.7486111 40.796,46.2876587 C41.768,47.0090873 43.896,49.3096429 45.132,49.4579365 C46.172,49.5821825 46.132,49.2094444 47.2,48.3717857 C49.524,46.5521825 51.568,44.1714683 53.692,42.1194048 C54.556,41.285754 58.364,37.5223016 58.364,37.5223016 C58.364,37.5223016 57.076,28.0114683 56.504,24.4484127 Z" id="Shape" fill="#000000"/>
          <path d="M58.364,37.5102778 L55.264,37.750754 L51.108,39.4180556 L40.116,38.5443254 L34.04,28.7048413 L32.84,20.1639286 L22.476,20.1639286 L22.204,0.681349206 C22.204,0.681349206 16.692,1.96388889 15.86,2.32059524 C13.2501929,3.4862288 10.9417532,5.23573291 9.112,7.43472222 C1.912,15.6750397 -0.196,28.3641667 0.396,39.0252778 C1.048,50.7525 4.864,62.2312302 12.824,71.0887698 C16.952,75.685873 21.624,77.8180952 27.224,80.1346825 C28.164,80.5354762 34.192,82.0424603 38.696,81.3009921 C45.156,80.234881 50.66,76.4674206 52.004,74.6037302 C53.828,72.0707143 55.364,69.4415079 55.744,68.7681746 C57.2669202,66.1389666 58.2959261,63.2523052 58.78,60.2513095 C60.556,49.8787698 58.364,37.5102778 58.364,37.5102778 Z" id="Shape" fill="#F0E6D2"/>
          <path d="M9.752,61.1210317 C12.152,65.7942857 15.948,71.1128175 20.552,72.531627 C21.704,72.8843254 23.18,73.2931349 24.288,72.9324206 C24.9562099,72.6626281 25.5590467,72.252651 26.056,71.7300397 C26.7838686,70.5917525 27.3962516,69.3833536 27.884,68.1228968 C28.684,64.7361905 28.36,61.2653175 28.364,58.0589683 C28.3093835,55.5946879 28.0538664,53.1390014 27.6,50.7164286 C27.316,49.0050397 26.9,46.900873 26.12,45.3457937 C24.216,41.5422619 20.564,38.9691667 17.052,38.8008333 C15.5546369,38.6024297 14.0330554,38.6977173 12.572,39.0813889 C11.2028599,39.5617493 9.90966076,40.236627 8.732,41.0853571 C5.532,44.2917063 6.288,50.3036111 6.588,51.9067857 C7.20658199,55.1115718 8.27166782,58.21333 9.752,61.1210317 Z" id="Shape" fill="#FAF0E6"/>
          <path d="M64.4,67.0207143 L74.4,60.1791667 L72.668,47.5461508 L79.708,43.5061508 L79.34,31.4823413 L87.268,28.8851984 C87.268,28.8851984 85.612,24.0756746 85.104,22.9053571 C86.788,22.1278175 96.824,24.9975 100.94,37.053373 C102.38,41.2737302 101.576,51.0811508 97.944,58.1190873 C94.244,65.2812698 87.004,69.818254 83.652,70.7961905 C70.988,74.4995238 64.4,67.0207143 64.4,67.0207143 Z" id="Shape" fill="#F0E6D2"/>
          <path d="M77.428,69.309246 C77.748,69.5817857 75.328,70.9565079 75.876,71.2771429 C76.424,71.5977778 78.568,69.6739683 78.888,70.0426984 C79.208,70.4114286 76.652,71.5055952 77.2,71.8703175 C77.528,72.086746 78.744,71.7220238 79.672,71.3893651 C80.304,71.1649206 80.804,70.9525 80.804,70.9525 C80.804,70.9525 79.896,72.2630952 77.428,72.7360317 C75.072,73.1889286 71.208,72.8282143 68.848,71.8663095 C70.4798854,71.5756705 72.0943779,71.1943278 73.684,70.7240476 C75.068,70.3032143 77.108,69.0326984 77.428,69.309246 Z" id="Shape" fill="#DCD2B4"/>
          <path d="M34.04,28.7048413 C34.04,28.7048413 34.176,33.6105556 34.356,39.4901984 C34.612,47.8748016 34.856,51.3376587 34.856,59.650119 C34.856,67.9625794 41.952,70.4715476 42.744,61.421627 C43.536,52.3717063 43.288,52.7043651 43.288,47.1173016 C43.288,41.5302381 44.456,40.9250397 45.468,40.9851587 C46.48,41.0452778 47.588,41.786746 47.984,44.5923016 C48.784,50.1473016 48.728,52.1753175 52.536,52.1753175 C56.344,52.1753175 55.268,37.7707937 55.268,37.7707937 L49.952,37.7347222 L46.064,27.4904365 L34.04,28.7048413 Z" id="Shape" fill="#FFDC00"/>
        </g>
      </g>
    </g>
  </g>
</svg>