<svg width="226px" height="108px" viewBox="0 0 226 108" version="1.1" xml:space="preserve" xmlns="http://www.w3.org/2000/svg" xmlns:xlink="http://www.w3.org/1999/xlink">
  <defs/>
  <g>
    <title>owl-b</title>
    <desc>Created with Sketch.</desc>
    <g id="mountain" stroke="none" stroke-width="1" fill="none" fill-rule="evenodd">
      <g id="owl-b">
        <g id="Group-308" transform="translate(107.000000, 53.000000) scale(-1, 1) translate(-107.000000, -53.000000) translate(69.000000, 8.000000)">
          <path d="M35.541898,89.5860526 L21.6501462,89.5860526 C21.6501462,89.5860526 25.3725738,84.1365789 30.5809324,84.4981579 C35.5487117,84.8428947 35.5418979,85.2002632 35.5418979,85.2002632 L35.541898,89.5860526 Z" id="Fill-218" fill="#E09D73"/>
          <path d="M35.541898,89.5860526 L21.6501462,89.5860526 C21.6501462,89.5860526 25.3725738,84.1365789 30.5809324,84.4981579 C35.5487117,84.8428947 35.5418979,85.2002632 35.5418979,85.2002632 L35.541898,89.5860526 Z" id="Stroke-220" stroke="#362F52" stroke-width="0.5"/>
          <path d="M39.9131559,89.5860526 L26.0214041,89.5860526 C26.0214041,89.5860526 29.7438317,84.1365789 34.9521903,84.4981579 C39.9199697,84.8428947 39.9131559,85.2002632 39.9131559,85.2002632 L39.9131559,89.5860526 Z" id="Fill-222" fill="#E09D73"/>
          <path d="M39.9131559,89.5860526 L25.3431697,89.5860526 C29.2113076,83.6365789 36.9025076,84.5676316 34.9521903,84.4981579 C29.9760248,84.3213158 39.9131559,85.2002632 39.9131559,85.2002632 L39.9131559,89.5860526 Z" id="Stroke-224" stroke="#362F52" stroke-width="0.5"/>
          <path d="M8.50785931,43.1988421 C8.50785931,43.1988421 -10.2547062,94.7156842 71.6418455,88.3362105 C71.6418455,88.3362105 46.6142593,36.2525263 25.0375972,36.2525263 C10.6673076,36.2088421 8.50785931,43.1988421 8.50785931,43.1988421" id="Fill-226" fill="#C7B4B0"/>
          <path d="M8.50785931,43.1988421 C8.50785931,43.1988421 -10.2547062,94.7156842 71.6418455,88.3362105 C71.6418455,88.3362105 46.6142593,36.2525263 25.0375972,36.2525263 C10.6673076,36.2088421 8.50785931,43.1988421 8.50785931,43.1988421 Z" id="Stroke-228" stroke="#362F52" stroke-width="0.5"/>
          <path d="M8.62558069,42.8863158 C8.62558069,42.8863158 9.84210483,40.2552632 8.99404966,38.7415789 C7.11501517,35.3863158 5.06458759,33.1926316 5.06458759,24.7663158 C5.06458759,16.34 8.02806345,13.1821053 18.4746566,11.8663158 C27.8682566,10.6831579 36.5574152,13.1963158 38.0643117,18.1963158 C39.5712083,23.1963158 38.0318152,32.6231579 35.9352634,37.7873684 C33.8387117,42.9521053 14.8418566,46.11 8.62558069,42.8863158" id="Fill-230" fill="#A77E76"/>
          <path d="M8.62558069,42.8863158 C8.62558069,42.8863158 9.84210483,40.2552632 8.99404966,38.7415789 C7.11501517,35.3863158 5.06458759,33.1926316 5.06458759,24.7663158 C5.06458759,16.34 8.02806345,13.1821053 18.4746566,11.8663158 C27.8682566,10.6831579 36.5574152,13.1963158 38.0643117,18.1963158 C39.5712083,23.1963158 38.0318152,32.6231579 35.9352634,37.7873684 C33.8387117,42.9521053 14.8418566,46.11 8.62558069,42.8863158 Z" id="Stroke-232" stroke="#362F52" stroke-width="0.5"/>
          <path d="M13.6207724,0.325157895 C13.6207724,0.325157895 14.2927172,11.5772632 5.91122759,19.2188421 L13.6207724,0.325157895" id="Fill-234" fill="#4B3A42"/>
          <path d="M5.91096552,19.2187895 L13.6205103,0.325105263 C13.6205103,0.325105263 14.2489517,11.5772105 5.91096552,19.2187895 Z" id="Stroke-236" stroke="#362F52" stroke-width="0.5"/>
          <path d="M21.8664579,1.53763158 C21.8664579,1.53763158 19.5025959,12.4992105 7.47939586,15.9671053 L21.8664579,1.53763158 Z" id="Fill-238" fill="#4B3A42"/>
          <path d="M7.4795531,15.9668421 L21.8666152,1.53736842 C21.8666152,1.53736842 19.502229,12.4989474 7.4795531,15.9668421 Z" id="Stroke-240" stroke="#362F52" stroke-width="0.5"/>
          <path d="M7.28221517,34.1034211 L0.228366897,34.1034211 C0.228366897,34.1034211 3.01258759,29.3565789 6.51382897,28.3528947 C6.51382897,28.3528947 6.89068414,31.1555263 7.28221517,34.1034211" id="Fill-242" fill="#E89B60"/>
          <path d="M7.28221517,34.1034211 L0.228366897,34.1034211 C0.228366897,34.1034211 3.01258759,29.3565789 6.51382897,28.3528947 C6.51382897,28.3528947 6.89068414,31.1555263 7.28221517,34.1034211 Z" id="Stroke-244" stroke="#362F52" stroke-width="0.5"/>
          <path d="M5.06081379,32.0583158 C5.06081379,32.0583158 4.1917931,31.6793684 4.24158621,30.3977895 C4.24158621,30.3977895 5.13,30.8162105 5.06081379,32.0583158" id="Fill-246" fill="#615D7A"/>
          <path d="M13.9926483,25.1488421 C13.9926483,19.5225263 11.9589931,14.9614737 9.44994483,14.9614737 C6.94089655,14.9614737 4.90724138,19.5225263 4.90724138,25.1488421 C4.90724138,30.7746316 6.94089655,35.3356842 9.44994483,35.3356842 C11.9589931,35.3356842 13.9926483,30.7746316 13.9926483,25.1488421" id="Fill-248" fill="#C4AFAD"/>
          <path d="M11.4203366,25.3788421 C11.4203366,22.9925263 10.5576055,21.0583158 9.49412966,21.0583158 C8.42960552,21.0583158 7.56739862,22.9925263 7.56739862,25.3788421 C7.56739862,27.7651579 8.42960552,29.6993684 9.49412966,29.6993684 C10.5576055,29.6993684 11.4203366,27.7651579 11.4203366,25.3788421" id="Fill-250" fill="#FCCF87"/>
          <path d="M7.78156138,25.4885789 C7.78156138,23.9864737 8.32456828,22.7691053 8.99389241,22.7691053 C9.66374069,22.7691053 10.2067476,23.9864737 10.2067476,25.4885789 C10.2067476,26.9906842 9.66374069,28.2080526 8.99389241,28.2080526 C8.32456828,28.2080526 7.78156138,26.9906842 7.78156138,25.4885789" id="Fill-252" fill="#362F52"/>
          <path d="M11.4203366,25.2914737 C11.4203366,22.9051579 10.5576055,20.9709474 9.49412966,20.9709474 C8.42960552,20.9709474 7.56739862,22.9051579 7.56739862,25.2914737 C7.56739862,27.6777895 8.42960552,29.612 9.49412966,29.612 C10.5576055,29.612 11.4203366,27.6777895 11.4203366,25.2914737 Z" id="Stroke-254" stroke="#605579" stroke-width="0.5"/>
          <path d="M14.0194841,25.1796842 C14.0194841,19.5475789 11.9832083,14.9817895 9.47258759,14.9817895 C6.96039448,14.9817895 4.92411862,19.5475789 4.92411862,25.1796842 C4.92411862,30.8117895 6.96039448,35.3775789 9.47258759,35.3775789 C11.9832083,35.3775789 14.0194841,30.8117895 14.0194841,25.1796842 Z" id="Stroke-256" stroke="#605579" stroke-width="0.5265"/>
          <path d="M8.98540138,20.3346842 C8.98540138,20.3346842 8.91673931,20.0715263 8.84493241,19.6741579 C8.77417379,19.2762632 8.69188414,18.7446842 8.63999448,18.2094211 C8.58443586,17.6752105 8.55822897,17.1378421 8.54879448,16.7336316 C8.53988414,16.3299474 8.55508414,16.0583684 8.55508414,16.0583684 C8.55508414,16.0583684 8.62374621,16.3215263 8.6955531,16.7188947 C8.76683586,17.1167895 8.84807724,17.6483684 8.90049103,18.1831053 C8.95552552,18.7178421 8.98173241,19.2552105 8.9911669,19.6588947 C9.00007724,20.0631053 8.98540138,20.3346842 8.98540138,20.3346842" id="Fill-258" fill="#605579"/>
          <path d="M10.3385159,34.6664737 C10.3385159,34.6664737 10.2735228,34.4012105 10.2074814,34.0001579 C10.14144,33.5996316 10.0670124,33.0643684 10.0219366,32.5259474 C9.97424,31.9880526 9.9548469,31.4475263 9.95117793,31.0417368 C9.94750897,30.6354211 9.96637793,30.3627895 9.96637793,30.3627895 C9.96637793,30.3627895 10.0318952,30.6280526 10.0979366,31.0285789 C10.1639779,31.4296316 10.2378814,31.9648947 10.2829572,32.5033158 C10.3306538,33.0412105 10.3495228,33.5812105 10.3537159,33.9875263 C10.3568607,34.3938421 10.3385159,34.6664737 10.3385159,34.6664737" id="Fill-260" fill="#605579"/>
          <path d="M6.89094621,32.8485263 C6.89094621,32.8485263 6.92920828,32.6222105 7.01621517,32.2943158 C7.10374621,31.9658947 7.23268414,31.5332632 7.38940138,31.1106316 C7.54297379,30.6869474 7.72380138,30.2732632 7.87003586,29.9669474 C8.01574621,29.6606316 8.1331531,29.4637895 8.1331531,29.4637895 C8.1331531,29.4637895 8.09489103,29.6901053 8.00840828,30.0185263 C7.92140138,30.3464211 7.79141517,30.7790526 7.63469793,31.2016842 C7.48112552,31.6253684 7.29924966,32.0385263 7.15406345,32.3448421 C7.00782897,32.6511579 6.89094621,32.8485263 6.89094621,32.8485263" id="Fill-262" fill="#605579"/>
          <path d="M5.79686069,29.9016316 C5.79686069,29.9016316 5.87705379,29.7563684 6.02014345,29.5600526 C6.16428138,29.3642632 6.36502621,29.1121579 6.58726069,28.8805789 C6.80739862,28.6468947 7.04902621,28.4332105 7.23771586,28.2805789 C7.42588138,28.1284737 7.56739862,28.0411053 7.56739862,28.0411053 C7.56739862,28.0411053 7.48720552,28.1868947 7.34411586,28.3832105 C7.20050207,28.579 6.9992331,28.8305789 6.77699862,29.0621579 C6.55633655,29.2958421 6.31470897,29.509 6.12654345,29.6616316 C5.93785379,29.8142632 5.79686069,29.9016316 5.79686069,29.9016316" id="Fill-264" fill="#605579"/>
          <path d="M5.22790897,26.4726316 C5.22790897,26.4726316 5.34007448,26.4036842 5.51513655,26.3310526 C5.69072276,26.2589474 5.9276331,26.1752632 6.1708331,26.1210526 C6.4140331,26.0636842 6.66299862,26.0342105 6.85221241,26.0231579 C7.04142621,26.0121053 7.17246069,26.0257895 7.17246069,26.0257895 C7.17246069,26.0257895 7.06081931,26.0947368 6.8852331,26.1678947 C6.71017103,26.2405263 6.47273655,26.3231579 6.22953655,26.3773684 C5.98686069,26.4347368 5.73737103,26.4631579 5.54815724,26.4747368 C5.35894345,26.4857895 5.22790897,26.4726316 5.22790897,26.4726316" id="Fill-266" fill="#605579"/>
          <path d="M5.36738207,22.3862105 C5.36738207,22.3862105 5.5073269,22.4267368 5.70073379,22.5135789 C5.89309241,22.6014737 6.14310621,22.7293684 6.37739586,22.882 C6.61273379,23.0325263 6.83287172,23.2072632 6.99220966,23.3472632 C7.15102345,23.4877895 7.24536828,23.5993684 7.24536828,23.5993684 C7.24536828,23.5993684 7.10542345,23.5593684 6.91201655,23.472 C6.71913379,23.3846316 6.46964414,23.2562105 6.23587862,23.1030526 C6.00001655,22.9530526 5.78040276,22.7777895 5.62106483,22.6377895 C5.46225103,22.4972632 5.36738207,22.3862105 5.36738207,22.3862105" id="Fill-268" fill="#605579"/>
          <path d="M6.51367172,18.4645263 C6.51367172,18.4645263 6.63474759,18.6508421 6.78727172,18.9424211 C6.93927172,19.2345263 7.13005793,19.6287368 7.29358897,20.034 C7.45974069,20.4382105 7.59863724,20.8534737 7.69350621,21.1687368 C7.78785103,21.4845263 7.83083034,21.7029474 7.83083034,21.7029474 C7.83083034,21.7029474 7.70975448,21.5166316 7.55670621,21.2250526 C7.40418207,20.9329474 7.21444414,20.5387368 7.0509131,20.1334737 C6.88476138,19.7292632 6.74638897,19.3134737 6.65152,18.9987368 C6.55717517,18.6829474 6.51367172,18.4645263 6.51367172,18.4645263" id="Fill-270" fill="#605579"/>
          <path d="M10.7103917,16.3788421 C10.7103917,16.3788421 10.7140607,16.6456842 10.6894262,17.0409474 C10.6637434,17.4367368 10.6160469,17.962 10.5395228,18.4835789 C10.4661434,19.0046316 10.3639366,19.5225263 10.2769297,19.9088421 C10.1893986,20.2951579 10.1097297,20.5498947 10.1097297,20.5498947 C10.1097297,20.5498947 10.1055366,20.2830526 10.1306952,19.8877895 C10.1558538,19.492 10.2040745,18.9667368 10.2805986,18.4456842 C10.3539779,17.9241053 10.4572331,17.4067368 10.5437159,17.0198947 C10.631771,16.6335789 10.7103917,16.3788421 10.7103917,16.3788421" id="Fill-272" fill="#605579"/>
          <path d="M12.4570814,18.7526316 C12.4570814,18.7526316 12.3962814,18.94 12.2778262,19.2057895 C12.1588469,19.4710526 11.9890262,19.8178947 11.7935228,20.15 C11.60064,20.4836842 11.3831228,20.8026316 11.2106814,21.0363158 C11.0377159,21.27 10.9040607,21.4147368 10.9040607,21.4147368 C10.9040607,21.4147368 10.9648607,21.2268421 11.0827917,20.9615789 C11.201771,20.6957895 11.3721159,20.3494737 11.5676193,20.0173684 C11.7605021,19.6836842 11.9785434,19.3652632 12.1509848,19.1310526 C12.3239503,18.8978947 12.4570814,18.7526316 12.4570814,18.7526316" id="Fill-274" fill="#605579"/>
          <path d="M13.3748469,22.2371579 C13.3748469,22.2371579 13.2867917,22.364 13.1347917,22.5303158 C12.9822676,22.6961053 12.77104,22.9066316 12.5404193,23.0945263 C12.3124193,23.2845263 12.0655503,23.4524211 11.8737159,23.5697895 C11.6818814,23.6866316 11.5403641,23.7487368 11.5403641,23.7487368 C11.5403641,23.7487368 11.6278952,23.6213684 11.7798952,23.4550526 C11.9324193,23.2892632 12.144171,23.0787368 12.3742676,22.8913684 C12.6027917,22.7008421 12.8501848,22.534 13.0414952,22.4161053 C13.2333297,22.2992632 13.3748469,22.2371579 13.3748469,22.2371579" id="Fill-276" fill="#605579"/>
          <path d="M13.5237545,26.3626316 C13.5237545,26.3626316 13.4016303,26.4052632 13.2181821,26.4373684 C13.0352579,26.4689474 12.7910097,26.4978947 12.5467614,26.4968421 C12.3025131,26.4994737 12.0582648,26.4726316 11.8748166,26.4415789 C11.6913683,26.4105263 11.5692441,26.3684211 11.5692441,26.3684211 C11.5692441,26.3684211 11.6908441,26.3257895 11.8742924,26.2936842 C12.0572166,26.2615789 12.3014648,26.2331579 12.5457131,26.2342105 C12.7904855,26.2315789 13.0347338,26.2594737 13.2181821,26.29 C13.4016303,26.3210526 13.5237545,26.3626316 13.5237545,26.3626316" id="Fill-278" fill="#605579"/>
          <path d="M13.0298593,30.3611579 C13.0298593,30.3611579 12.8893903,30.2632632 12.7027972,30.0958947 C12.5167283,29.928 12.2782455,29.6953684 12.0617766,29.4432632 C11.8437352,29.1932632 11.6471834,28.9243158 11.5077628,28.7153684 C11.3688662,28.5064211 11.2918179,28.3527368 11.2918179,28.3527368 C11.2918179,28.3527368 11.4322869,28.4506316 11.6194041,28.618 C11.8059972,28.7853684 12.0434317,29.0185263 12.2599007,29.2706316 C12.4779421,29.5206316 12.6739697,29.7906316 12.8139145,29.9990526 C12.952811,30.208 13.0298593,30.3611579 13.0298593,30.3611579" id="Fill-280" fill="#605579"/>
          <path d="M8.62558069,34.6821579 C8.62558069,34.6821579 8.60199448,34.4084737 8.59780138,34.0000526 C8.59360828,33.5916316 8.60251862,33.0479474 8.63973241,32.5058421 C8.67484966,31.9637368 8.73827034,31.4242632 8.79697379,31.0195263 C8.85567724,30.6153158 8.9159531,30.3474211 8.9159531,30.3474211 C8.9159531,30.3474211 8.94006345,30.6211053 8.94373241,31.0295263 C8.94792552,31.4379474 8.93901517,31.9816316 8.90127724,32.5232105 C8.86668414,33.0653158 8.80221517,33.6053158 8.74456,34.0100526 C8.68533241,34.4142632 8.62558069,34.6821579 8.62558069,34.6821579" id="Fill-282" fill="#605579"/>
          <path d="M11.9065793,33.1458947 C11.9065793,33.1458947 11.7975586,32.9322105 11.6633793,32.6027368 C11.5302483,32.2732632 11.3651448,31.8295789 11.2283448,31.3774737 C11.0889241,30.9258947 10.9767586,30.4658947 10.9028552,30.118 C10.8294759,29.7695789 10.8006483,29.5311579 10.8006483,29.5311579 C10.8006483,29.5311579 10.9101931,29.7448421 11.0438483,30.0743158 C11.1775034,30.4043158 11.3420828,30.8474737 11.4788828,31.3001053 C11.6183034,31.7516842 11.7299448,32.2116842 11.8038483,32.5595789 C11.8772276,32.9074737 11.9065793,33.1458947 11.9065793,33.1458947" id="Fill-284" fill="#605579"/>
          <path d="M8.03388138,24.7338421 C8.06166069,24.4296316 8.17906759,24.1980526 8.29647448,24.2159474 C8.41388138,24.2338421 8.48673655,24.4948947 8.4584331,24.7996316 C8.43065379,25.1038421 8.31272276,25.3354211 8.19584,25.317 C8.0784331,25.2991053 8.00610207,25.0380526 8.03388138,24.7338421" id="Fill-286" fill="#FFFFFF"/>
          <path d="M75.7961103,87.1590526 L47.929269,46.8253684 C47.929269,46.8253684 36.5670069,29.478 20.5331034,36.2253684 C4.27329655,43.0674737 10.1053793,60.438 14.5034207,66.7206316 C19.1236966,73.3211579 34.4767448,92.598 75.7961103,87.1590526" id="Fill-288" fill="#A77E76"/>
          <path d="M25.4717407,77.8393158 C25.2935338,77.733 20.2749131,62.9340526 40.0626924,61.3903684 C47.3628855,60.8203684 57.5337821,63.8403684 63.6468028,69.5740526 C67.4158786,74.6556316 75.2045683,86.6787895 75.79632,87.1593158 C75.79632,87.1593158 45.53312,92.393 25.4717407,77.8393158" id="Fill-290" fill="#784451"/>
          <path d="M75.7961103,87.1585263 L47.929269,46.8253684 C47.929269,46.8253684 36.5670069,29.478 20.5331034,36.2248421 C4.27329655,43.0669474 10.1053793,60.4374737 14.5034207,66.7201053 C19.1236966,73.3211579 34.4767448,92.5974737 75.7961103,87.1585263 Z" id="Stroke-292" stroke="#362F52" stroke-width="0.5"/>
          <path d="M25.330171,77.7383158 C25.1519641,77.632 20.2748607,62.7783158 40.06264,61.2341053 C47.3628331,60.6646316 57.8539779,64.1104211 63.3626676,69.1635789" id="Stroke-294" stroke="#362F52" stroke-width="0.5"/>
          <path d="M56.8350014,64.9586842 L59.3723531,68.5128947 C60.8855393,70.6513158 62.9024221,73.5018421 64.9193048,76.3528947 C65.9214566,77.7828947 66.934091,79.2044737 67.8927393,80.5307895 C68.3723255,81.1934211 68.8361876,81.8334211 69.2759393,82.4413158 C69.7219807,83.0439474 70.1439117,83.6134211 70.5333462,84.1392105 C70.9306428,84.6597368 71.2949186,85.1360526 71.6172634,85.5581579 C71.9516634,85.9713158 72.24256,86.3318421 72.4826152,86.6286842 C72.9894566,87.1986842 73.279829,87.5244737 73.279829,87.5244737 C73.279829,87.5244737 72.9642979,87.2239474 72.4291531,86.6765789 C72.1749462,86.3907895 71.866229,86.0434211 71.5119117,85.6455263 C71.1722703,85.235 70.7886014,84.7718421 70.3703393,84.2676316 C69.5574014,83.2386842 68.6092359,82.0381579 67.6359117,80.7202632 C66.66416,79.4013158 65.6358014,77.9881579 64.6205462,76.5665789 C63.6246841,75.1307895 62.6293462,73.695 61.6958566,72.3486842 C60.7670841,70.9997368 59.9300359,69.7197368 59.2030566,68.6297368 C57.7601048,66.4418421 56.8350014,64.9586842 56.8350014,64.9586842" id="Fill-296" fill="#362F52"/>
          <path d="M50.5453462,62.3271053 C50.5453462,62.3271053 50.8074152,62.745 51.26656,63.4771053 C51.7351393,64.2023684 52.4039393,65.2386842 53.2069186,66.4828947 C54.0135669,67.7234211 54.9727393,69.1581579 56.0100083,70.6886842 C57.0399393,72.2244737 58.1741738,73.8376316 59.3325186,75.4323684 C60.4761876,77.0381579 61.6649324,78.6102632 62.8017876,80.0660526 C63.3804359,80.7860526 63.9402152,81.4818421 64.4706428,82.1407895 C65.0199393,82.785 65.53936,83.3939474 66.0189462,83.9560526 C66.5153048,84.5028947 66.9707807,85.0039474 67.3743669,85.4481579 C67.7695669,85.9013158 68.1490428,86.2618421 68.4535669,86.5676316 C69.0647117,87.1765789 69.4143117,87.5244737 69.4143117,87.5244737 C69.4143117,87.5244737 69.0495117,87.1923684 68.4105876,86.6123684 C68.09296,86.3202632 67.6956634,85.9765789 67.2794979,85.5413158 C66.8575669,85.1128947 66.3695945,84.6392105 65.8658979,84.095 C65.3705876,83.5439474 64.8338703,82.9471053 64.2667531,82.3155263 C63.7200772,81.6655263 63.1372359,80.985 62.5533462,80.2655263 C61.9841324,79.5355263 61.3839945,78.7886842 60.7953876,78.015 C60.2162152,77.2334211 59.6082152,76.4539474 59.0358566,75.6486842 C57.8879945,74.0397368 56.7647669,72.4139474 55.7463669,70.8665789 C54.7185324,69.3255263 53.8149186,67.8513158 53.0329048,66.5928947 C51.4950841,64.0597368 50.5453462,62.3271053 50.5453462,62.3271053" id="Fill-298" fill="#362F52"/>
          <path d="M43.7315531,61.3731579 C43.7315531,61.3731579 43.9978152,61.8347368 44.4899807,62.6268421 C44.9753324,63.4231579 45.7007393,64.54 46.5723807,65.8773684 C47.4445462,67.2157895 48.50016,68.7505263 49.6522152,70.3789474 C50.2193324,71.1994737 50.8430566,72.0205263 51.4562979,72.8694737 C52.0920772,73.7010526 52.7315255,74.5510526 53.3919393,75.3842105 C54.0617876,76.2089474 54.6996634,77.0615789 55.3841876,77.8531579 C56.0639945,78.6484211 56.7102566,79.4515789 57.3900634,80.18 C58.064629,80.9126316 58.6857324,81.6510526 59.3304221,82.2978947 C59.9703945,82.9489474 60.5464221,83.5957895 61.1303117,84.1378947 C61.705291,84.6910526 62.2320497,85.1973684 62.6990566,85.6463158 C63.1697324,86.0915789 63.6079117,86.4489474 63.9543669,86.7589474 C64.6561876,87.3715789 65.0576772,87.7215789 65.0576772,87.7215789 C65.0576772,87.7215789 64.6420359,87.3894737 63.9150566,86.8068421 C63.5554979,86.5115789 63.1010703,86.1715789 62.6110014,85.7457895 C62.1277462,85.3115789 61.5826428,84.8221053 60.9877462,84.2878947 C60.3886566,83.7573684 59.7963807,83.1236842 59.1385876,82.4852632 C58.4755531,81.8510526 57.8324359,81.1294737 57.1536772,80.3942105 C56.4654841,79.6678947 55.8108359,78.8673684 55.1221186,78.0747368 C54.4292083,77.2847368 53.7818979,76.4363158 53.1041876,75.6121053 C52.4479669,74.7705263 51.8127117,73.9131579 51.1816497,73.0736842 C50.5736497,72.2178947 49.9551669,71.3894737 49.3922428,70.5626316 C48.2485738,68.9215789 47.2469462,67.3452632 46.3994152,65.9889474 C45.5529324,64.6310526 44.8956634,63.4705263 44.4370428,62.6578947 C43.9784221,61.8457895 43.7315531,61.3731579 43.7315531,61.3731579" id="Fill-300" fill="#362F52"/>
          <path d="M35.8694841,62.1297368 C35.8694841,62.1297368 36.1761048,62.6123684 36.7442703,63.4355263 C37.3045738,64.2644737 38.1437186,65.4207895 39.1537324,66.8044737 C39.6694841,67.4881579 40.2130152,68.2402632 40.8231117,69.0086842 C41.124491,69.3960526 41.4342566,69.7934211 41.75136,70.1992105 C42.0747531,70.5997368 42.4054841,71.0086842 42.7414566,71.425 C43.4029186,72.2665789 44.1314703,73.0976316 44.8553048,73.9565789 C45.5838566,74.8107895 46.3637738,75.6434211 47.1216772,76.4955263 C47.9115531,77.3171053 48.6815117,78.1592105 49.4755807,78.9518421 C50.2874703,79.725 51.0511393,80.5255263 51.8546428,81.2297368 C52.2529876,81.585 52.6445186,81.935 53.0281876,82.2771053 C53.4076634,82.6244737 53.7813738,82.9618421 54.1676634,83.2618421 C54.9329048,83.8723684 55.6347255,84.4786842 56.3218703,84.9860526 C57.0153048,85.4860526 57.65056,85.9439474 58.2140083,86.3502632 C58.7732634,86.7639474 59.3099807,87.0486842 59.7271945,87.3218421 C60.5757738,87.8486842 61.0611255,88.1492105 61.0611255,88.1492105 C61.0611255,88.1492105 60.5642428,87.8676316 59.6957462,87.3755263 C59.2675255,87.1186842 58.7171807,86.8534211 58.1411531,86.4613158 C57.5635531,86.0718421 56.9115255,85.6323684 56.1997462,85.1528947 C55.4984497,84.6592105 54.7809048,84.0665789 53.9983669,83.4702632 C53.2116359,82.8781579 52.455829,82.165 51.6413186,81.4665789 C50.8283807,80.765 50.0558014,79.9671053 49.2344772,79.1955263 C48.4314979,78.405 47.6510566,77.5671053 46.8533186,76.7455263 C46.0980359,75.885 45.3212634,75.0434211 44.5963807,74.1802632 C43.8762152,73.3139474 43.1513324,72.4739474 42.4945876,71.6255263 C42.16176,71.2039474 41.8352221,70.7902632 41.5149738,70.385 C41.2067807,69.9702632 40.9048772,69.565 40.6108359,69.1707895 C40.0164634,68.3876316 39.4881324,67.6213158 38.9870566,66.925 C38.0011531,65.5197368 37.2275255,64.3160526 36.693429,63.4692105 C36.1572359,62.6239474 35.8694841,62.1297368 35.8694841,62.1297368" id="Fill-302" fill="#362F52"/>
          <path d="M29.9074152,64.6626316 C29.9074152,64.6626316 30.2087945,65.0910526 30.7622841,65.8205263 C31.3084359,66.5557895 32.1239945,67.5789474 33.1020359,68.8052632 C33.5994428,69.4110526 34.1267255,70.0773684 34.71376,70.7578947 C35.2892634,71.4478947 35.9124634,72.1605263 36.5582014,72.8968421 C37.1934566,73.6426316 37.89056,74.3773684 38.5818979,75.1384211 C39.2800497,75.8926316 40.0180359,76.6321053 40.7418703,77.3842105 C41.4913876,78.1105263 42.2204634,78.8589474 42.9726014,79.5578947 C43.7383669,80.2426316 44.4601048,80.9531579 45.2159117,81.5742105 C45.5896221,81.8889474 45.9575669,82.1989474 46.3171255,82.5021053 C46.672491,82.8115789 47.02576,83.1073684 47.3853186,83.3747368 C48.0997186,83.9152632 48.7559393,84.4547368 49.39696,84.9031579 C50.0411255,85.3478947 50.6313048,85.7552632 51.1549186,86.1168421 C51.6753876,86.4831579 52.1686014,86.7394737 52.5554152,86.9831579 C53.3400497,87.4531579 53.7887117,87.7215789 53.7887117,87.7215789 C53.7887117,87.7215789 53.3290428,87.4731579 52.5250152,87.0373684 C52.1282428,86.81 51.6214014,86.5742105 51.08416,86.23 C50.5469186,85.8852632 49.940491,85.4968421 49.2785048,85.0731579 C48.6243807,84.6384211 47.9534841,84.1136842 47.2217876,83.5873684 C46.4853738,83.0668421 45.7735945,82.4357895 45.0094014,81.8173684 C44.2446841,81.1994737 43.51456,80.4915789 42.7398841,79.81 C41.9783117,79.1136842 41.2398014,78.3689474 40.4824221,77.6436842 C39.7612083,76.8826316 39.0263669,76.1347368 38.33136,75.3721053 C37.643691,74.6026316 36.9507807,73.86 36.3191945,73.1068421 C35.6724083,72.3673684 35.0691255,71.6331579 34.5082979,70.9278947 C33.9364634,70.2321053 33.4238566,69.5521053 32.9400772,68.9326316 C31.9856221,67.6836842 31.2340083,66.6105263 30.712491,65.8568421 C30.1899255,65.1036842 29.9074152,64.6626316 29.9074152,64.6626316" id="Fill-304" fill="#362F52"/>
          <path d="M25.8781048,69.3007895 C25.8781048,69.3007895 25.9488634,69.3692105 26.068891,69.5139474 C26.1915393,69.6581579 26.3707945,69.8692105 26.5993186,70.1381579 C27.0521738,70.6760526 27.7131117,71.4318421 28.5202841,72.3255263 C28.9191531,72.7755263 29.3662428,73.2497368 29.8390152,73.7518421 C30.3112634,74.2539474 30.8280634,74.7644737 31.3480083,75.3076316 C31.8862979,75.8313158 32.4230152,76.3934211 33.0048083,76.9265789 C33.5787393,77.4671053 34.1615807,78.0176316 34.7680083,78.5407895 L35.6606152,79.3428947 C35.9651393,79.5997368 36.2686152,79.8565789 36.5699945,80.1107895 C37.1654152,80.6281579 37.7776083,81.1039474 38.36936,81.5665789 C38.9548221,82.0365789 39.5387117,82.4676316 40.0937738,82.875 C40.6435945,83.2892105 41.1714014,83.6707895 41.6750979,83.9986842 C42.1725048,84.3355263 42.6285048,84.6455263 43.0326152,84.9202632 C43.4477324,85.1776316 43.8093876,85.4023684 44.1076221,85.5871053 C44.7019945,85.9618421 45.04216,86.1755263 45.04216,86.1755263 C45.04216,86.1755263 44.6894152,85.9844737 44.0714566,85.6492105 C43.7637876,85.4792105 43.3900772,85.2734211 42.9608083,85.0365789 C42.5394014,84.7881579 42.0718703,84.4928947 41.56136,84.1718421 C41.0450841,83.8586842 40.5036497,83.4928947 39.938629,83.0939474 C39.3683669,82.7023684 38.7650841,82.2918421 38.175429,81.8197368 C37.5758152,81.3618421 36.9552359,80.8897368 36.351429,80.3755263 C36.0458566,80.1228947 35.7381876,79.8681579 35.4294703,79.6128947 L34.5242841,78.8155263 C33.9199531,78.2828947 33.3397324,77.7239474 32.7684221,77.1744737 C32.1897738,76.6328947 31.6567255,76.0628947 31.1210566,75.5307895 C30.0774979,74.4397368 29.1424359,73.3855263 28.3651393,72.4613158 C27.5815531,71.5434211 26.9740772,70.7397368 26.5442841,70.1828947 C26.3351531,69.9018421 26.1700497,69.6813158 26.0578841,69.5307895 C25.9478152,69.3765789 25.8781048,69.3007895 25.8781048,69.3007895" id="Fill-306" fill="#362F52"/>
        </g>
      </g>
    </g>
  </g>
</svg>