<svg version="1.1" width="198" height="183" viewBox="-1 -1 198 183" xmlns="http://www.w3.org/2000/svg" xmlns:xlink="http://www.w3.org/1999/xlink">
  <!-- Exported by Scratch - http://scratch.mit.edu/ -->
  <g id="ID0.08085869019851089" transform="matrix(-1, 0, 0, 1, 213.7, -2)">
    <g id="dinosaurs">
      <g id="brontosaurus-d">
        <g id="scratch_dinos03d">
          <path id="Shape" fill="#008264" stroke="none" stroke-width="1" d="M 30.808 132.290 C 31.605 128.625 34.202 124.350 37.896 122.705 C 42.909 120.485 58.679 119.115 67.226 121.495 L 66.815 135.450 C 58.293 134.095 44.889 131.630 43.661 137.785 C 43.450 143.310 48.172 146.615 48.172 146.615 C 48.172 146.615 43.124 152.945 40.478 155.415 C 34.347 150.815 29.124 140.080 30.808 132.290 Z " transform="matrix(1, 0, 0, 1, 17, 2)"/>
          <path id="Shape" fill="#008264" stroke="none" stroke-width="1" d="M 120.145 137 C 120.145 137 122.787 172.385 123.654 181.500 C 122.150 181.950 112.546 181.350 111.022 181.215 C 108.962 176.095 105.267 135.600 105.267 135.600 L 120.145 137 Z " transform="matrix(1, 0, 0, 1, 17, 2)"/>
          <path id="Shape" fill="#005A5A" stroke="none" stroke-width="1" d="M 162.984 67.335 C 160.182 67.170 160.477 76.390 162.227 86.650 C 163.154 92.045 165.079 100.150 165.881 102.075 C 168.297 107.820 170.959 113.355 173.831 118.885 C 174.944 121 180.724 133 182.273 142.080 C 183.461 149.035 181.034 153.680 178.894 154.455 C 173.957 156.245 168.518 156.875 165.570 153.645 C 164.543 152.520 160.342 145.035 158.417 138.705 C 154.858 127 153.189 113.465 152.166 111 C 150.592 107.170 140.562 120.885 136.577 127.305 C 141.228 136.580 144.873 164.685 164.237 174.115 C 173.260 178.520 188.077 173.900 193.165 165.185 C 198.358 156.280 196.975 142.050 192.920 132.555 C 188.072 121.210 182.243 110.445 176.338 99.555 C 167.009 82.385 167.260 67.585 162.984 67.335 Z " transform="matrix(1, 0, 0, 1, 17, 2)"/>
          <path id="Shape" fill="#00A08C" stroke="none" stroke-width="1" d="M 9.965 117.500 C 9.860 117.755 9.349 120.145 9.299 120.270 C 10.477 127.645 18.873 127.160 24.763 126.085 C 32.247 124.725 36.723 119.530 39.626 112.825 L 9.965 117.500 Z " transform="matrix(1, 0, 0, 1, 17, 2)"/>
          <path id="Shape" fill="#000000" stroke="none" stroke-width="1" d="M 10.667 116.570 C 10.757 117.185 9.494 120.250 12.502 121.815 C 15.203 123.224 18.372 123.445 21.244 122.425 C 24.166 121.365 26.527 118.605 27.685 115.640 L 10.667 116.570 Z " transform="matrix(1, 0, 0, 1, 17, 2)"/>
          <path id="Shape" fill="#FFFFFF" stroke="none" stroke-width="1" d="M 15.725 117.875 C 15.725 117.875 16.226 119.950 16.727 120.565 C 17.462 121.389 18.701 121.527 19.600 120.885 C 20.893 119.980 20.688 117.960 20.688 117.960 L 15.725 117.875 Z " transform="matrix(1, 0, 0, 1, 17, 2)"/>
          <path id="Shape" fill="#00A08C" stroke="none" stroke-width="1" d="M 142.206 90.525 C 134.050 82.210 123.579 76.820 111.714 76.765 C 108.856 76.765 105.984 77.360 103.157 77.730 C 99.367 78.230 95.502 78.300 91.688 78.580 C 84.870 79.080 80.660 77.580 79.126 70.515 C 77.978 65.295 78.670 59.185 79.161 53.890 C 79.702 47.980 80.855 43.130 80.976 37.190 C 81.096 31.250 81.141 25.380 79.472 19.550 C 77.697 13.310 72.684 7.195 67.140 4.035 C 56.508 -2.030 43.505 -0.105 34.056 7.310 C 24.923 14.445 19.224 26.715 17.670 38 C 16.808 44.228 16.446 50.515 16.587 56.800 C 16.727 62.300 18.362 67.950 19.595 73.270 C 21.099 79.725 22.031 86.325 19.249 92.585 C 17.996 95.420 15.580 98.665 12.843 100.250 C 10.296 101.725 7.093 101.535 5.223 104.120 C 1.880 108.740 4.125 116.620 9.404 118.695 C 11.775 119.620 14.788 119.830 17.294 119.640 C 19.048 119.500 25.194 119 30.738 116.500 C 34.623 114.745 36.362 114.695 39.626 112.800 C 43.520 103.585 42.944 91.300 41.591 81.585 C 40.062 70.635 38.443 59.585 38.633 48.495 C 38.728 43.035 39.475 36.760 41.701 31.715 C 43.611 27.385 48.759 22.930 53.481 26.285 C 57.381 29.055 59.120 34.850 59.967 39.285 C 61.155 45.475 61.110 51.715 60.423 57.960 C 58.945 71.400 53.175 117.900 53.105 121.695 C 52.949 129.565 54.308 141.090 59.165 146.610 C 64.022 152.130 69.426 152.330 72.394 153.340 C 75.873 154.525 109.779 155.215 115.724 154.520 C 115.864 154.400 137.303 155.765 144.863 145.800 C 152.422 135.835 153.444 124.195 153.439 120.105 C 153.424 109.190 150.006 98.500 142.206 90.525 Z " transform="matrix(1, 0, 0, 1, 17, 2)"/>
          <path id="Shape" fill="#00A08C" stroke="none" stroke-width="1" d="M 142.888 137 C 142.888 137 145.529 172.385 146.397 181.500 C 144.893 181.950 135.288 181.350 133.765 181.215 C 131.704 176.100 128.015 135.605 128.015 135.605 L 142.888 137 Z " transform="matrix(1, 0, 0, 1, 17, 2)"/>
          <path id="Shape" fill="#005A5A" stroke="none" stroke-width="1" d="M 17.284 113.770 C 17.013 111.800 19.038 110.515 19.740 113.230 C 20.477 116.100 17.545 115.740 17.284 113.770 Z " transform="matrix(1, 0, 0, 1, 17, 2)"/>
          <path id="Shape" fill="#005A5A" stroke="none" stroke-width="1" d="M 6.978 113.500 C 6.707 111.530 8.732 110.245 9.434 112.960 C 10.171 115.845 7.248 115.500 6.978 113.500 Z " transform="matrix(1, 0, 0, 1, 17, 2)"/>
          <path id="Shape" fill="#000000" stroke="none" stroke-width="1" d="M 1.378 109.030 L 0.592 108.855 C 0.040 107.719 0.108 106.380 0.772 105.305 L 1.343 105.425 C 2.246 106.175 2.271 108.180 1.378 109.030 Z " transform="matrix(1, 0, 0, 1, 17, 2)"/>
          <path id="Shape" fill="#000000" stroke="none" stroke-width="1" d="M 35.560 108.850 L 34.773 108.675 C 34.220 107.539 34.286 106.201 34.949 105.125 L 35.525 105.245 C 36.422 106 36.453 108 35.560 108.850 Z " transform="matrix(1, 0, 0, 1, 17, 2)"/>
          <path id="Shape" fill="#00A08C" stroke="none" stroke-width="1" d="M 77.953 153.740 L 77.953 140.820 C 71.105 140.535 64.268 140.740 61.225 141.605 C 57.336 142.710 52.428 147.840 51.125 151.350 C 48.348 158.850 52.468 170.580 57.887 176 L 69.211 168.070 C 69.211 168.070 63.802 162.790 64.794 157.345 C 65.872 154.285 71.567 153.605 77.953 153.740 Z " transform="matrix(1, 0, 0, 1, 17, 2)"/>
        </g>
      </g>
    </g>
  </g>
</svg>