<svg width="165px" height="145px" viewBox="0 0 165 145" version="1.1" xml:space="preserve" xmlns="http://www.w3.org/2000/svg" xmlns:xlink="http://www.w3.org/1999/xlink">
  <!-- Generator: Sketch 48.2 (47327) - http://www.bohemiancoding.com/sketch -->
  <defs/>
  <g>
    <title>dorian-b</title>
    <desc>Created with Sketch.</desc>
    <g id="basketball" stroke="none" stroke-width="1" fill="none" fill-rule="evenodd">
      <g id="dorian-b" fill-rule="nonzero">
        <g id="scratch_bball_player01b" transform="translate(22.000000, 7.000000)">
          <path d="M28.3354225,47.3927327 C33.9792254,47.3927327 40.7509859,47.6084084 43.7735915,47.6124024 L43.7735915,39.7042943 C41.1684507,39.6244144 29.7242958,39.7042943 28.7970423,39.7042943 C26.9144366,39.7042943 25.0398592,39.7402402 23.1773239,39.8081381 C19.5285211,39.9359459 16.1526761,40.1476276 12.6242958,41.1581081 C6.10542254,43.0233033 -0.00401408451,48.3472973 0.301056338,55.5165165 L0.268943662,55.5165165 C0.268943662,55.5165165 -0.401408451,59.6343243 3.89366197,62.7057057 C4.84901408,63.3806907 7.24943662,64.6228228 9.5615493,64.7945646 C17.6659859,65.3936637 32.6144366,59.1470571 27.9059155,72.4190991 C26.1597887,77.3436937 19.8777465,96.1234535 20.379507,97.093994 C20.8812676,98.0645345 22.0774648,92.6127327 24.1366901,93.2597598 C26.1959155,93.9067868 23.3338732,99.4704204 24.6143662,100.013604 C25.8948592,100.556787 26.8261268,94.6336937 28.5762676,94.8533634 C30.3264085,95.073033 29.0017606,99.1349249 29.6078873,99.6142042 C30.2140141,100.093483 33.2205634,90.9831832 34.0996479,88.2912312 C34.2883099,87.7001201 36.050493,79.6242643 38.4348592,71.5683784 C38.4348592,71.5683784 39.8397887,67.5104805 39.3099296,63.7321622 C39.093169,62.1864865 37.8608451,58.6078679 34.8944366,56.9423724 C31.2817606,54.8934535 23.9119014,55.7441742 23.9119014,55.7441742 C20.4517606,55.7761261 11.7532394,58.2603904 11.7532394,53.6193694 C11.7532394,51.0033033 14.201831,49.1660661 18.380493,48.2354655 C21.6359155,47.4806006 26.4929577,47.3927327 28.3354225,47.3927327 Z" id="Shape" fill="#E6BE6E"/>
          <path d="M22.9685915,88.474955 C22.4788732,88.6107508 22.3945775,88.9901802 22.0814789,89.2737538 C20.8772535,90.3641141 19.4923944,91.5503303 18.8702113,91.3426426 C18.1075352,91.087027 23.0729577,81.9607508 28.2069718,85.12 C32.3896479,87.6961261 28.9214789,91.3066967 24.7588732,89.6771471 C24.2410563,89.4654655 23.4623239,88.3351652 22.9685915,88.474955 Z" id="Shape" fill="#BE965A"/>
          <path d="M60.5444366,39.8001502 C56.7551408,39.0013514 40.8433099,39.209039 36.2752817,39.2929129 L36.2752817,48.9863363 C40.3415493,49.202012 48.1088028,49.1181381 53.1344366,49.0342643 C54.3667606,49.0142943 63.2780282,40.3872673 60.5444366,39.8001502 Z" id="Shape" fill="#00A0DC"/>
          <path d="M48.8594366,70.6617417 L41.7464789,74.6557357 C42.4890845,79.8479279 55.3261268,83.0111712 66.1882394,83.7021321 C77.0503521,84.3930931 87.2902817,78.7216216 87.2902817,78.7216216 L48.8594366,70.6617417 Z" id="Shape" fill="#006482"/>
          <polygon id="Shape" fill="#E6BE6E" points="45.2347183 106.196306 39.5387324 99.5463063 42.1559155 90.0326126 52.8373944 89.5453453 49.6542254 99.9217417"/>
          <polygon id="Shape" fill="#FAF0E6" points="33.3289437 121.485315 39.5387324 99.5463063 49.7826761 99.8258859 42.9466901 120.646577"/>
          <polygon id="Shape" fill="#281446" points="38.8483099 94.445976 44.2191549 72.7026727 60.8896479 72.6707207 53.5358451 95.096997"/>
          <polygon id="Shape" fill="#00A0DC" points="25.6138732 131.777838 32.253169 130.919129 42.4690141 131.542192 42.2321831 132.84024 25.3007746 132.972042"/>
          <path d="M26.8020423,130.487778 C27.9996717,130.423236 29.1917458,130.280476 30.3705634,130.06042 L33.1804225,117.531261 L44.8774648,117.531261 L42.4690141,131.542192 L25.6098592,131.777838 C25.768105,131.438804 25.9022375,131.089136 26.0112676,130.731411 C26.263625,130.617728 26.5292766,130.535882 26.8020423,130.487778 Z" id="Shape" fill="#281446"/>
          <ellipse id="Oval" fill="#00A0DC" cx="38.7921127" cy="123.466336" rx="3.08683099" ry="3.07138138"/>
          <polygon id="Shape" fill="#006482" points="31.8156338 120.518769 34.8864085 120.518769 35.1392958 119.73994 31.9561268 119.73994"/>
          <polygon id="Shape" fill="#00A0DC" points="31.4664085 122.34003 34.5371831 122.34003 34.7900704 121.557207 31.6069014 121.557207"/>
          <polygon id="Shape" fill="#006482" points="31.1211972 124.157297 34.1879577 124.157297 34.4448592 123.374474 31.2616901 123.374474"/>
          <polygon id="Shape" fill="#00A0DC" points="30.7719718 125.974565 33.8427465 125.974565 34.0956338 125.191742 30.9124648 125.191742"/>
          <polygon id="Shape" fill="#006482" points="30.4227465 127.791832 33.4935211 127.791832 33.7464085 127.013003 30.5632394 127.013003"/>
          <rect id="Rectangle-path" fill="#281446" x="51.0551408" y="68.3012913" width="25.9028873" height="11.985976"/>
          <polygon id="Shape" fill="#E6BE6E" points="82.7222535 106.196306 88.4182394 99.5463063 85.8050704 90.0326126 75.1235915 89.5453453 78.3027465 99.9217417"/>
          <polygon id="Shape" fill="#FAF0E6" points="94.6280282 121.485315 88.4182394 99.5463063 78.1783099 99.8258859 85.0142958 120.646577"/>
          <polygon id="Shape" fill="#281446" points="89.1126761 94.445976 83.741831 72.7026727 67.071338 72.6707207 74.4211268 95.096997"/>
          <polygon id="Shape" fill="#00A0DC" points="102.347113 131.777838 95.7078169 130.919129 85.4919718 131.542192 85.7288028 132.84024 102.660211 132.972042"/>
          <path d="M101.15493,130.487778 C99.955957,130.423399 98.762537,130.280638 97.5823944,130.06042 L94.7725352,117.531261 L83.0915493,117.531261 L85.5,131.542192 L102.359155,131.777838 C102.200725,131.438881 102.066588,131.0892 101.957746,130.731411 C101.701908,130.61586 101.432032,130.53396 101.15493,130.487778 Z" id="Shape" fill="#281446"/>
          <ellipse id="Oval" fill="#00A0DC" cx="89.1688732" cy="123.466336" rx="3.08683099" ry="3.07138138"/>
          <polygon id="Shape" fill="#006482" points="96.1453521 120.518769 93.0745775 120.518769 92.8216901 119.73994 96.0048592 119.73994"/>
          <polygon id="Shape" fill="#00A0DC" points="96.4905634 122.34003 93.4238028 122.34003 93.1709155 121.557207 96.3540845 121.557207"/>
          <polygon id="Shape" fill="#006482" points="96.8397887 124.157297 93.7690141 124.157297 93.5161268 123.374474 96.6992958 123.374474"/>
          <polygon id="Shape" fill="#00A0DC" points="97.1890141 125.974565 94.1182394 125.974565 93.8653521 125.191742 97.0485211 125.191742"/>
          <polygon id="Shape" fill="#006482" points="97.5382394 127.791832 94.4674648 127.791832 94.2145775 127.013003 97.3977465 127.013003"/>
          <path d="M110.270915,46.6618318 C108.049824,44.4033955 105.28677,42.7456129 102.242746,41.8450751 C97.9316197,40.590961 76.9540141,40.1516216 72.6549296,40.1316517 L71.9845775,48.3273273 C74.3488732,48.3592793 94.9933099,48.4471471 94.9933099,48.4471471 C94.9933099,48.4471471 104.04507,48.7187387 103.711901,53.4196697 C103.378732,58.1206006 102.965282,57.7930931 102.965282,57.7930931 C106.490265,57.4762323 109.988478,56.9130202 113.434014,56.1076276 C114.361268,53.3757357 111.964859,48.3832432 110.270915,46.6618318 Z" id="Shape" fill="#E6BE6E"/>
          <path d="M91.9666901,39.5405405 L66.4973239,39.5405405 C66.4973239,39.5405405 75.4487324,49.869009 76.6930986,49.892973 C80.8396479,49.9608709 86.5516901,50.2084985 90.6500704,50.2005105 L91.9666901,39.5405405 Z" id="Shape" fill="#00A0DC"/>
          <path d="M77.186831,45.3917417 C77.186831,45.3917417 75.1235915,40.9344444 74.7542958,39.8520721 C71.4828169,39.0333033 60.9578873,39.1651051 57.0240845,39.1651051 C57.0240845,39.1651051 51.633169,39.1651051 50.4008451,40.6987988 C49.1685211,42.2324925 49.1203521,44.8525526 49.1203521,44.8525526 L41.7464789,74.6437538 C44.3275352,75.6142943 48.2894366,75.0431532 51.0471127,75.0990691 C54.9929577,75.166967 58.946831,75.0990691 62.8846479,75.2188889 C70.5756338,75.4745045 79.5992958,79.125015 87.2902817,78.7096396 C86.5396479,76.9562763 77.186831,45.3917417 77.186831,45.3917417 Z" id="Shape" fill="#00A0DC"/>
          <path d="M53.7887324,29.8391291 C53.7887324,29.8391291 51.8258451,28.7647447 50.826338,24.5311111 C50.1078169,21.4757057 49.9352113,15.5526126 51.1514789,13.0004505 C54.0576761,6.90561562 57,3.69444444 57,3.69444444 L61.4476056,19.5705706 L53.7887324,29.8391291 Z" id="Shape" fill="#642800"/>
          <path d="M74.6338732,29.8431231 C74.6338732,29.8431231 77.7769014,18.0887988 75.0352817,12.3494294 C72.293662,6.61006006 69.2188732,5.63552553 69.2188732,5.63552553 L66.1561268,14.9575075 L74.6338732,29.8431231 Z" id="Shape" fill="#642800"/>
          <path d="M72.9840845,32.4951351 C73.423169,30.3184595 73.6915827,28.1111235 73.7869014,25.8930631 C75.9906338,22.4742042 81.7669014,21.1402102 81.2089437,26.8556156 C80.795493,30.9574474 77.2028873,33.9689189 72.9840845,32.4951351 Z" id="Shape" fill="#E6BE6E"/>
          <path d="M54.7400704,32.5151051 C53.0037521,32.6174715 51.2625341,32.4270717 49.59,31.951952 C48.1997629,31.4627008 47.0506379,30.4622488 46.3787324,29.1561562 C45.6802817,27.933994 45.3310563,25.4856757 47.643169,24.1277177 C49.9552817,22.7697598 52.4600704,24.3993093 53.2628873,25.7253153 C53.9974648,26.9594595 54.483169,31.0453153 54.7400704,32.5151051 Z" id="Shape" fill="#E6BE6E"/>
          <path d="M70.4391549,16.650961 L56.1570423,16.595045 C54.860493,18.2845045 52.5443662,21.8711111 52.2433099,24.9824324 C52.2433099,25.1182282 51.9783803,30.4302402 53.9412676,34.1166967 C55.0371127,36.1736036 57.5138028,37.3118919 59.4405634,37.7592192 C64.0126056,38.8455856 70.2103521,37.9629129 73.2169014,33.8610811 C74.385,32.2634835 74.5094366,30.6898498 74.6178169,29.3678378 C75.380493,19.96997 72.1371127,17.8731231 70.4391549,16.650961 Z" id="Shape" fill="#E6BE6E"/>
          <path d="M73.056338,18.7717718 C71.2740845,19.3628829 55.4826761,20.0258859 53.6321831,19.7542943 C53.2307746,17.2380781 63.2659859,0.211681682 63.2659859,0.211681682 C63.2659859,0.211681682 73.056338,16.2875075 73.056338,18.7717718 Z" id="Shape" fill="#642800"/>
          <path d="M63.9724648,27.6344444 C64.9474396,28.7949174 65.6447049,30.1606171 66.0116197,31.6284384 C64.5103521,32.1396697 62.3026056,32.3593393 60.7933099,31.8560961 C60.7772535,30.3823123 61.5158451,27.5905105 63.9724648,27.6344444 Z" id="Shape" fill="#BE965A"/>
          <path d="M60.8575352,34.4721622 C60.7210563,35.1032132 61.6202113,35.219039 63.6914789,35.1910811 C65.7627465,35.1631231 65.9393662,34.583994 65.9393662,34.1646246 C64.1490845,33.8331231 61.0140845,33.8411111 60.8575352,34.4721622 Z" id="Shape" fill="#000000"/>
          <path d="M56.859507,28.5051351 C55.8720423,28.5051351 56.2573944,27.1112312 56.5062676,26.596006 C56.6226646,26.5061714 56.7706091,26.4669538 56.9164973,26.4872609 C57.0623856,26.507568 57.193834,26.585676 57.2809859,26.7038438 C57.4304817,27.3368189 57.2746153,28.0029511 56.859507,28.5051351 Z" id="Shape" fill="#000000"/>
          <path d="M70.013662,28.6409309 C69.0342254,28.7687387 69.2108451,27.3468769 69.3914789,26.7996997 C69.4948082,26.6955449 69.6357652,26.6369172 69.7828521,26.6369172 C69.9299391,26.6369172 70.070896,26.6955449 70.1742254,26.7996997 C70.4138594,27.4045367 70.3544153,28.0862009 70.013662,28.6409309 Z" id="Shape" fill="#000000"/>
          <path d="M113.478169,53.8270571 L103.687817,52.4051952 C103.687817,52.4051952 105.052606,56.526997 96.3340141,56.526997 C87.6154225,56.526997 86.8206338,53.5195195 86.8366901,51.9858258 C86.8567606,50.2843844 91.3083803,34.2684685 95.8884507,21.7393093 C98.9632394,13.327958 102.872958,6.56213213 102.624085,6.45828829 C101.243239,5.84720721 99.8784507,10.3524324 97.8312676,9.65348348 C95.7840845,8.95453453 99.609507,3.23114114 98.3571127,2.65600601 C97.1047183,2.08087087 95.1779577,8.21564565 93.4358451,7.95204204 C91.6937324,7.68843844 94.3510563,1.60558559 93.0344366,1.11432432 C91.7178169,0.623063063 88.683169,11.7103904 87.7519014,14.3783784 C87.5511972,14.9615015 76.8295775,43.9898498 76.9540141,52.3852252 C76.9044076,54.8065888 77.3952091,57.2087554 78.3910563,59.4186486 C79.0614085,60.8325225 81.4859155,64.0077477 86.3790845,64.9423423 C91.1959859,65.860961 99.0515493,66.6517718 104.570915,64.9423423 C108.805775,63.6283183 111.210211,61.4316216 112.021056,59.9578378 C114.272958,55.883964 113.478169,53.8270571 113.478169,53.8270571 Z" id="Shape" fill="#E6BE6E"/>
          <path d="M89.1488028,10.9595195 C88.7915493,10.6000601 88.8999296,10.2286186 88.7674648,9.82921922 C88.2456338,8.28753754 87.6314789,6.5821021 87.0012676,6.46627628 C86.1984507,6.3184985 86.0378873,16.6909009 92.0710563,16.4512613 C96.9842958,16.2475676 95.7439437,11.4068468 91.3164085,10.7997598 C90.7464085,10.7118919 89.5140845,11.322973 89.1488028,10.9595195 Z" id="Shape" fill="#BE965A"/>
        </g>
      </g>
    </g>
  </g>
</svg>