<svg width="300px" height="220px" viewBox="0 0 300 220" version="1.1" xml:space="preserve" xmlns="http://www.w3.org/2000/svg" xmlns:xlink="http://www.w3.org/1999/xlink">
  <!-- Generator: Sketch 49.3 (51167) - http://www.bohemiancoding.com/sketch -->
  <defs/>
  <g>
    <title>griffin-a</title>
    <desc>Created with Sketch.</desc>
    <g id="griffin-a" stroke="none" stroke-width="1" fill="none" fill-rule="evenodd">
      <g id="Griffin-Flying" transform="translate(150.500000, 122.000000) scale(-1, 1) translate(-150.500000, -122.000000) translate(9.000000, 34.000000)" fill-rule="nonzero">
        <g id="Group" transform="translate(127.000000, 74.000000)">
          <path d="M6,37.3 C17.4,51.1 38.4,61.4 52.8,63.1 C67.2,64.8 79.6,80.1 79.6,80.1 C79.6,80.1 77.5,88.4 79.5,89.9 C83.9,93.2 92.3,86 93.2,81.2 C94.1,76.4 77.9,45 70.6,43.6 C63.3,42.2 57.4,43.4 53.8,32.6 C50.2,21.8 40.7,-1.4 29.7,0.1 C18.7,1.7 -11.1,16.7 6,37.3 Z" id="Shape" fill="#694929"/>
          <path d="M11.5,42.8 C11.5,42.8 12.4,43.6 14.1,45 C15.8,46.4 18.3,48.2 21.3,50.3 C24.4,52.4 28.1,54.6 32.2,56.7 C34.3,57.7 36.4,58.7 38.7,59.5 C39.8,59.9 41,60.3 42.2,60.5 C43.4,60.8 44.6,61 45.8,61.2 C48.2,61.6 50.7,62.1 53.1,62.7 C55.5,63.3 57.8,63.9 60,64.7 C62.2,65.5 64.3,66.5 66.1,67.6 C67.9,68.7 69.6,69.9 70.9,71.2 C72.3,72.4 73.5,73.6 74.6,74.7 C75.7,75.8 76.5,76.8 77.3,77.6 C78.7,79.2 79.5,80.2 79.5,80.2 C79.5,80.2 78.7,79.3 77.2,77.7 C76.4,76.9 75.6,76 74.5,74.9 C73.4,73.8 72.2,72.7 70.8,71.5 C69.4,70.3 67.8,69.1 66,68 C64.2,66.9 62.1,66 60,65.2 C57.8,64.4 55.5,63.8 53.1,63.3 C50.7,62.8 48.3,62.3 45.9,61.9 C44.7,61.7 43.5,61.5 42.2,61.2 C41,60.9 39.8,60.5 38.7,60.1 C36.4,59.3 34.2,58.3 32.1,57.2 C28,55.1 24.3,52.7 21.3,50.6 C18.3,48.5 15.8,46.5 14.2,45.1 C12.4,43.7 11.5,42.8 11.5,42.8 Z" id="Shape" fill="#423118"/>
          <path d="M81.3,86.4 C81.3,86.4 81.3,86.7 81.3,87.1 C81.3,87.5 81.3,88 81.3,88.6 C81.3,89.1 81.3,89.6 81.3,90 C81.3,90.2 81.3,90.4 81.3,90.5 C81.3,90.6 81.3,90.7 81.3,90.7 C81.3,90.7 81.1,90.5 80.9,90.1 C80.7,89.7 80.6,89.1 80.6,88.6 C80.6,88 80.7,87.5 80.9,87.1 C81.1,86.6 81.3,86.4 81.3,86.4 Z" id="Shape" fill="#423118"/>
          <path d="M85.4,86.1 C85.4,86.1 85.4,86.4 85.5,86.7 C85.5,87.1 85.5,87.5 85.6,88 C85.6,88.5 85.6,88.9 85.6,89.2 C85.6,89.4 85.6,89.5 85.6,89.6 C85.6,89.7 85.6,89.8 85.6,89.8 C85.6,89.8 85.4,89.6 85.3,89.3 C85.1,89 85,88.5 85,88 C85,87.5 85.1,87 85.2,86.7 C85.2,86.3 85.4,86.1 85.4,86.1 Z" id="Shape" fill="#423118"/>
          <path d="M79,51.9 C79,51.9 78.9,51.7 78.7,51.4 C78.5,51.1 78.2,50.6 77.8,50 C76.9,48.8 75.6,47.2 73.6,45.7 C72.6,45 71.4,44.3 70.1,43.8 C69.8,43.7 69.4,43.6 69.1,43.5 C68.7,43.5 68.4,43.4 68,43.3 C67.3,43.3 66.5,43.3 65.7,43.3 C64.1,43.2 62.5,42.9 60.9,42.2 C59.3,41.5 58,40.4 56.9,39.1 C55.8,37.8 55,36.3 54.4,34.7 C53.8,33.2 53.4,31.6 52.8,30.1 C51.8,27.2 50.7,24.4 49.7,22.1 C48.7,19.8 47.9,17.9 47.3,16.6 C46.7,15.3 46.3,14.5 46.3,14.5 C46.3,14.5 46.7,15.2 47.4,16.5 C48.1,17.8 49,19.7 50,22 C51,24.3 52.2,27 53.3,29.9 C53.9,31.4 54.3,32.9 54.9,34.4 C55.5,35.9 56.3,37.3 57.4,38.6 C58.4,39.9 59.7,40.9 61.2,41.5 C62.7,42.2 64.2,42.5 65.8,42.5 C66.6,42.5 67.3,42.5 68.1,42.6 C68.5,42.6 68.9,42.7 69.2,42.8 C69.6,42.9 69.9,43 70.3,43.1 C71.7,43.6 72.9,44.3 73.9,45.1 C74.9,45.9 75.7,46.7 76.4,47.5 C77.1,48.3 77.6,49 78,49.6 C78.4,50.2 78.7,50.7 78.9,51.1 C78.9,51.7 79,51.9 79,51.9 Z" id="Shape" fill="#423118"/>
          <path d="M67.7,49 C67.7,49 68.1,49 68.8,49.1 C69.4,49.2 70.3,49.6 71,50.1 C71.2,50.2 71.3,50.4 71.5,50.5 C71.7,50.6 71.8,50.8 71.9,51 C72,51.1 72.1,51.3 72.3,51.5 C72.4,51.7 72.5,51.8 72.6,52 C72.8,52.3 72.8,52.6 72.9,52.7 C73,52.9 73,53 73,53 C73,53 72.9,52.9 72.8,52.8 C72.7,52.7 72.5,52.4 72.3,52.2 C72.1,52 71.8,51.7 71.6,51.4 C71.3,51.1 71,50.9 70.7,50.6 C70.1,50.1 69.4,49.7 68.8,49.4 C68.1,49.2 67.7,49 67.7,49 Z" id="Shape" fill="#423118"/>
        </g>
        <g id="Group" transform="translate(24.000000, 81.000000)">
          <g transform="translate(0.000000, 62.000000)" id="Shape">
            <path d="M14.9,0 C12.5,5.9 9.7,13.6 7.6,14.3 C5.5,15 0.6,18.1 1.3,19.8 C2.1,21.8 7.8,17.2 7.8,17.2 C7.8,17.2 1.9,22.8 3.3,24.7 C4.7,26.6 12.7,17.7 12.7,17.7 C12.7,17.7 11.7,25.1 13.7,25.2 C15.7,25.3 17.1,21.7 17.1,16.8 C17.1,11.9 22.3,1.8 22.3,1.8 L14.9,0 Z" fill="#E0AB38"/>
            <path d="M4.2,21.3 C4.2,21.3 4.5,20.8 5,20.1 C5.5,19.4 6.3,18.5 7.1,17.7 C7.9,16.9 8.8,16.2 9.6,15.7 C10.4,15.2 10.9,15 10.9,15 C10.9,15 10.8,15.1 10.6,15.3 C10.4,15.4 10.1,15.7 9.8,16 C9.2,16.6 8.4,17.4 7.5,18.2 C6.7,19 5.9,19.8 5.3,20.4 C4.6,20.9 4.2,21.3 4.2,21.3 Z" fill="#B3872A"/>
            <path d="M12.5,23.5 C12.5,23.5 12.4,23.1 12.3,22.4 C12.2,21.7 12.1,20.8 12.2,19.9 C12.2,19 12.4,18 12.7,17.4 C12.8,17.1 13,16.8 13.1,16.6 C13.2,16.4 13.3,16.3 13.3,16.3 C13.3,16.3 13.3,16.4 13.2,16.6 C13.1,16.8 13.1,17.1 13,17.4 C12.9,18.1 12.9,19 12.8,19.9 C12.8,20.8 12.7,21.7 12.7,22.4 C12.5,23 12.5,23.5 12.5,23.5 Z" fill="#B3872A"/>
            <path d="M1.4,20.1 C1.4,20.1 1.3,20 1.2,19.7 C1.1,19.4 1.1,19 1.3,18.6 C1.4,18.4 1.5,18.2 1.6,18 C1.8,17.8 1.9,17.6 2.1,17.4 C2.5,17 2.9,16.6 3.4,16.3 C4.3,15.6 5.4,15.1 6.2,14.8 C7,14.5 7.6,14.3 7.6,14.3 C7.6,14.3 7.1,14.6 6.4,15.1 C6,15.3 5.6,15.6 5.2,15.9 C4.8,16.2 4.3,16.5 3.8,16.8 C3.3,17.1 2.9,17.5 2.5,17.8 C2.1,18.1 1.8,18.5 1.6,18.8 C1.4,19.1 1.3,19.5 1.3,19.7 C1.3,19.9 1.4,20.1 1.4,20.1 Z" fill="#B3872A"/>
            <path d="M3.3,24.1 C2.2,25.6 3.6,27.8 3.6,27.8 C3.6,27.8 3.2,25.5 4.2,24.5 C4.3,24.5 3.9,23.3 3.3,24.1 Z" fill="#3B342D"/>
            <path d="M13.8,24 C12.7,25.5 14.2,27.7 14.2,27.7 C14.2,27.7 13.8,25.4 14.8,24.4 C14.7,24.4 14.4,23.2 13.8,24 Z" fill="#3B342D"/>
            <path d="M1.5,19.3 C-1.77635684e-15,20.3 0.6,22.9 0.6,22.9 C0.6,22.9 0.9,20.6 2.3,20 C2.3,19.9 2.4,18.7 1.5,19.3 Z" fill="#3B342D"/>
          </g>
          <g transform="translate(6.000000, 0.000000)" id="Shape">
            <path d="M45.1,21.7 C46.4,13.3 43.3,7 41.6,4 C39.9,1 34.9,-1.73130282e-14 32.5,-1.73130282e-14 C22.7,-0.1 15.9,32 12.9,42.5 C12.1,45.4 8.2,60.1 5.8,63.7 C3.4,67.3 0.8,69.9 0.8,69.9 C2,70.1 3.1,69.9 3.1,69.9 C2.9,70.6 1.9,71.8 1.9,71.8 C4.3,71.8 5.7,68.9 5.7,68.9 C5.7,70.5 4.3,74.2 4.3,74.2 C6.1,73.4 7.5,70.4 7.5,70.4 C6.1,74.2 8.3,76.8 8.3,76.8 C8,75.1 10,72.3 10,72.3 C9.1,75.1 10.1,78.4 10.1,78.4 C11.8,78.1 12.1,75.6 12.1,75.6 C12.1,76.9 12,79.3 12,79.3 C13.4,77.5 13.5,74.7 13.5,74.4 C13.2,76.1 15.3,78.3 15.3,78.3 C15.3,78.3 13.8,76.6 17.3,69.4 C19,65.9 22.5,61.4 26.7,54.5 C32.9,44.3 39.5,32.9 41.5,24 C42.1,25.6 42.5,27.3 42.5,27.3 C45.1,23.3 43.3,17.3 43.3,17.3 C44.2,18.8 45.1,21.7 45.1,21.7 Z" fill="#694929"/>
            <path d="M43,17.4 C43,17.4 43.1,17.5 43.2,17.8 C43.3,18.1 43.5,18.4 43.6,18.9 C43.7,19.4 43.8,20 43.9,20.6 C43.9,21.2 43.9,21.9 43.8,22.5 C43.7,23.2 43.6,23.8 43.4,24.4 C43.2,25 43,25.5 42.9,26 C42.7,26.5 42.5,26.8 42.4,27.1 C42.3,27.4 42.2,27.5 42.2,27.5 C42.2,27.5 42.2,27.3 42.3,27.1 C42.4,26.8 42.5,26.4 42.6,26 C42.7,25.5 42.8,25 42.9,24.4 C43,24.1 43,23.8 43.1,23.5 C43.2,23.2 43.2,22.9 43.2,22.6 C43.4,21.3 43.4,20.1 43.3,19.1 C43.2,18 43,17.4 43,17.4 Z" fill="#423118"/>
            <path d="M45.1,21.7 C45.1,21.7 45.2,20.9 45.2,19.8 C45.2,18.7 45.2,17.1 45,15.6 C44.9,14.8 44.8,14.1 44.7,13.4 C44.6,12.7 44.5,12 44.4,11.5 C44.3,10.9 44.2,10.5 44.1,10.1 C44,9.8 44,9.6 44,9.6 C44,9.6 44.1,9.8 44.2,10.1 C44.3,10.4 44.5,10.9 44.7,11.4 C44.9,11.9 45.1,12.6 45.2,13.3 C45.4,14 45.5,14.8 45.6,15.6 C45.7,16.4 45.7,17.2 45.7,17.9 C45.7,18.6 45.6,19.3 45.5,19.9 C45.4,21 45.1,21.7 45.1,21.7 Z" fill="#423118"/>
            <g transform="translate(0.000000, 15.000000)" fill="#423118">
              <path d="M15.1,63.3 C15.1,63.3 15,63.1 14.9,62.6 C14.8,62.1 14.7,61.5 14.8,60.6 C14.9,59.7 15.1,58.7 15.4,57.6 C15.8,56.4 16.3,55.2 17.1,53.9 C20,48.7 24.3,42.2 28.3,35.4 C30.3,32 32.3,28.7 34,25.4 C35.7,22.2 37.3,19.1 38.4,16.4 C39,15 39.5,13.8 39.9,12.7 C40.3,11.6 40.6,10.6 40.9,9.8 C41.1,9 41.3,8.3 41.4,7.9 C41.5,7.4 41.5,7.2 41.5,7.2 C41.5,7.2 41.5,7.4 41.4,7.9 C41.3,8.4 41.2,9 41,9.9 C40.6,11.6 39.9,13.9 38.8,16.7 C37.7,19.4 36.2,22.6 34.5,25.8 C32.8,29.1 30.8,32.5 28.8,35.9 C26.8,39.3 24.7,42.6 22.7,45.7 C20.7,48.8 18.8,51.7 17.4,54.2 C16.7,55.5 16.1,56.7 15.6,57.8 C15.2,58.9 15,59.9 14.9,60.8 C14.8,61.6 14.8,62.3 14.9,62.8 C15,63.1 15.1,63.3 15.1,63.3 Z"/>
              <path d="M0.8,55 C0.8,55 1.5,54.4 2.6,53.2 C3.7,52 5.1,50.1 6.3,47.7 C6.9,46.5 7.3,45 7.8,43.5 C8.3,42 8.7,40.4 9.2,38.7 C10.2,35.4 11.2,31.8 12.3,28.3 C13.4,24.7 14.4,21.2 15.4,17.9 C16.4,14.6 17.3,11.5 18.2,8.8 C19,6.1 19.7,3.9 20.3,2.4 C20.8,0.9 21.1,-2.84217094e-14 21.1,-2.84217094e-14 C21.1,-2.84217094e-14 20.8,0.9 20.4,2.4 C20,4 19.3,6.2 18.6,8.9 C17.8,11.6 17,14.7 16,18 C15,21.3 14,24.9 13,28.5 C11.9,32 10.9,35.6 9.9,38.9 C9.4,40.6 8.9,42.2 8.4,43.7 C7.9,45.2 7.4,46.7 6.8,47.9 C5.5,50.4 4,52.2 2.9,53.4 C1.5,54.4 0.8,55 0.8,55 Z"/>
            </g>
            <path d="M1.8,71.9 C1.8,71.9 2.1,71.8 2.5,71.6 C2.9,71.4 3.4,71.1 3.9,70.7 C4.1,70.5 4.3,70.3 4.5,70.1 C4.7,69.9 4.9,69.7 5,69.5 C5.2,69.3 5.3,69.2 5.4,69.1 C5.5,69 5.6,68.9 5.6,68.9 C5.6,68.9 5.6,69.2 5.4,69.7 C5.3,69.9 5.2,70.2 5,70.4 C4.8,70.7 4.6,70.9 4.3,71.1 C4,71.3 3.8,71.5 3.5,71.6 C3.2,71.7 2.9,71.8 2.7,71.8 C2.1,72 1.8,71.9 1.8,71.9 Z" fill="#423118"/>
            <path d="M4.2,74.4 C4.2,74.4 4.4,74.1 4.7,73.8 C5,73.4 5.4,73 5.9,72.5 C6.3,72.1 6.7,71.6 7,71.3 C7.1,71.1 7.3,71 7.3,70.8 C7.4,70.7 7.4,70.6 7.4,70.6 C7.4,70.6 7.4,70.7 7.4,70.8 C7.4,70.9 7.4,71.2 7.3,71.4 C7.1,71.9 6.8,72.4 6.3,72.9 C5.9,73.4 5.3,73.8 4.9,74 C4.5,74.3 4.2,74.4 4.2,74.4 Z" fill="#423118"/>
            <path d="M8.2,77 C8.2,77 8.1,76.7 8.1,76.2 C8.1,75.7 8.2,75.1 8.4,74.5 C8.6,73.9 9,73.4 9.3,73 C9.6,72.6 9.9,72.4 9.9,72.4 C9.9,72.4 9.9,72.5 9.8,72.6 C9.8,72.7 9.7,72.9 9.6,73.1 C9.4,73.5 9.2,74.1 9,74.6 C8.8,75.1 8.6,75.7 8.4,76.1 C8.3,76.7 8.2,77 8.2,77 Z" fill="#423118"/>
            <path d="M10,78.5 C10,78.5 10.1,78.3 10.3,78 C10.5,77.7 10.7,77.4 11,77.1 C11.2,76.8 11.5,76.4 11.7,76.1 C11.8,76 11.9,75.8 11.9,75.8 C12,75.7 12,75.7 12,75.7 C12,75.7 12,75.9 12,76.3 C12,76.7 11.8,77.1 11.5,77.5 C11.2,77.9 10.9,78.2 10.5,78.4 C10.2,78.5 10,78.5 10,78.5 Z" fill="#423118"/>
            <path d="M11.8,79.4 C11.8,79.4 12,79.1 12.1,78.6 C12.3,78.2 12.5,77.6 12.6,76.9 C12.8,76.3 12.9,75.7 13,75.2 C13.1,75 13.1,74.8 13.2,74.6 C13.2,74.5 13.3,74.4 13.3,74.4 C13.3,74.4 13.4,74.7 13.4,75.2 C13.4,75.7 13.4,76.4 13.2,77 C13,77.7 12.7,78.3 12.4,78.7 C12.1,79.2 11.8,79.4 11.8,79.4 Z" fill="#423118"/>
          </g>
        </g>
        <g id="Group" transform="translate(64.000000, 0.000000)">
          <path d="M36.2998088,67.6 C43.1998213,66 41.0998175,63.7 41.0998175,63.7 C45.4998255,63 47.5998293,59 47.5998293,59 C52.7998388,57.4 52.1998377,54.1 52.1998377,54.1 C56.4998455,52.9 57.8998481,50.1 57.8998481,50.1 C63.2998579,50.1 66.6998641,46.1 66.6998641,46.1 C71.0998721,45.4 72.3998745,42.1 72.3998745,42.1 C79.8998881,41.2 81.3998908,36.2 81.3998908,36.2 C102.299929,34.6 88.9999047,32.7 88.9999047,32.7 C111.599946,27.4 92.1999105,27.2 92.1999105,27.2 C92.1999105,27.2 107.799939,26.4 109.599942,23.5 C111.399945,20.6 95.3999163,22 95.3999163,22 C130.999981,19.5 142.300002,14.1 134.699988,14.7 C127.199974,15.3 99.1999232,17.5 99.1999232,17.5 C140.999999,11.7 146.90001,3.4 137.599993,6.6 C128.199976,9.9 96.0999176,14.2 96.0999176,14.2 C117.699957,11.4 144.900006,-1.9 128.499977,2.4 C112.099947,6.7 94.2999143,10.8 94.2999143,10.8 C117.899957,3.2 119.899961,-3.9 103.09993,3.4 C86.2998997,10.7 48.9998319,16.9 26.9997919,22.9 C4.99975185,28.9 10.9997628,49 10.9997628,49 C5.79975331,55.9 8.5997584,66 0.799487099,70.4 C0.699744027,70.4 29.799797,69.1 36.2998088,67.6 Z" id="Shape" fill="#694929"/>
          <path d="M0.7,70.4 C0.7,70.4 1,70.2 1.6,69.8 C1.9,69.6 2.2,69.4 2.5,69.1 C2.8,68.8 3.2,68.4 3.6,68 C4.3,67.1 5,66 5.5,64.7 C6,63.4 6.3,61.9 6.6,60.4 C6.9,58.9 7.2,57.4 7.6,56 C7.9,54.6 8.4,53.3 8.8,52.2 C9,51.7 9.2,51.2 9.5,50.8 C9.7,50.4 10,50 10.2,49.8 C10.4,49.5 10.6,49.3 10.8,49.2 C10.9,49.1 11,49 11,49 C11,49 10.9,49.1 10.8,49.2 C10.7,49.3 10.5,49.5 10.3,49.8 C10.1,50.1 9.9,50.4 9.7,50.9 C9.5,51.3 9.3,51.8 9.2,52.3 C8.8,53.4 8.5,54.7 8.2,56.1 C7.9,57.5 7.6,59 7.3,60.5 C7,62 6.6,63.5 6.1,64.9 C5.8,65.6 5.5,66.2 5.1,66.8 C4.7,67.4 4.3,67.9 3.9,68.3 C3.5,68.7 3.1,69.1 2.7,69.3 C2.3,69.6 2,69.8 1.7,70 C1.1,70.2 0.7,70.4 0.7,70.4 Z" id="Shape" fill="#423118"/>
          <path d="M12.3,51 C12.3,51 12,50.6 11.5,49.9 C11,49.2 10.4,48.1 10.1,46.5 C9.7,44.9 9.6,43 9.9,40.8 C10.2,38.6 10.8,36.2 12,33.7 C13.2,31.2 15,28.7 17.4,26.7 C19.8,24.7 22.9,23.1 26.3,22.6 C32.9,21.1 40,19.6 47,18 C61.1,14.8 75.2,11.5 85.6,8.7 C90.8,7.3 95.2,6.1 98.2,5.1 C99.7,4.6 100.9,4.2 101.7,3.9 C102.5,3.6 102.9,3.4 102.9,3.4 C102.9,3.4 102.5,3.6 101.7,3.9 C100.9,4.2 99.8,4.7 98.3,5.2 C95.3,6.2 91,7.6 85.8,9 C75.3,11.9 61.3,15.3 47.2,18.6 C40.2,20.3 33.1,21.8 26.5,23.3 C23.2,23.8 20.2,25.4 17.9,27.3 C15.5,29.2 13.8,31.6 12.6,34 C11.4,36.4 10.8,38.8 10.5,41 C10.2,43.2 10.3,45.1 10.6,46.6 C10.9,48.1 11.4,49.3 11.8,50 C12,50.6 12.3,51 12.3,51 Z" id="Shape" fill="#423118"/>
          <path d="M94.1,10.7 C94.1,10.7 95.4,10.1 97.4,9.3 C98.4,8.9 99.6,8.4 100.8,7.9 C102,7.4 103.4,6.8 104.7,6.2 C107.3,5.1 109.9,3.8 111.8,2.7 C112.7,2.1 113.4,1.6 113.8,1.1 C114,0.8 113.9,0.6 113.7,0.5 C113.6,0.4 113.5,0.4 113.5,0.4 C113.5,0.4 113.6,0.4 113.7,0.5 C113.8,0.5 113.9,0.6 113.9,0.7 C114,0.8 113.9,1 113.9,1.2 C113.6,1.8 112.9,2.4 112,3.1 C111.1,3.7 110,4.4 108.8,5 C107.6,5.6 106.3,6.2 105,6.8 C103.7,7.4 102.3,7.9 101.1,8.4 C99.8,8.9 98.6,9.3 97.6,9.7 C95.5,10.3 94.1,10.7 94.1,10.7 Z" id="Shape" fill="#423118"/>
          <path d="M98.4,13.8 C98.4,13.8 99,13.7 100,13.5 C101,13.3 102.4,13 104.1,12.6 C105.8,12.2 107.7,11.7 109.8,11.2 C111.9,10.6 114.1,10 116.3,9.2 C117.4,8.9 118.5,8.5 119.5,8.1 C120.6,7.7 121.6,7.3 122.6,6.9 C123.6,6.5 124.6,6.1 125.5,5.8 C126.4,5.4 127.3,5 128.1,4.7 C128.9,4.4 129.6,4.1 130.2,3.7 C130.8,3.4 131.4,3.1 131.8,2.9 C132.7,2.4 133.2,2.1 133.2,2.1 C133.2,2.1 132.7,2.4 131.9,3 C131,3.5 129.8,4.2 128.2,5 C127.4,5.4 126.6,5.8 125.7,6.2 C124.8,6.6 123.8,7.1 122.8,7.5 C121.8,7.9 120.8,8.3 119.7,8.7 C118.6,9.1 117.5,9.5 116.4,9.9 C114.2,10.6 112,11.2 109.9,11.8 C107.8,12.4 105.8,12.7 104.1,13.1 C100.7,13.6 98.4,13.8 98.4,13.8 Z" id="Shape" fill="#423118"/>
          <path d="M99.2,17.3 C99.2,17.3 101.9,16.8 106,16 C108,15.6 110.4,15.1 112.9,14.6 C115.4,14.1 118.1,13.5 120.8,12.9 C123.5,12.3 126.2,11.7 128.7,11.1 C131.2,10.4 133.5,9.8 135.5,9.1 C136.5,8.8 137.4,8.4 138.1,8.1 C138.9,7.8 139.5,7.5 140,7.1 C140.3,7 140.5,6.8 140.7,6.7 C140.9,6.6 141.1,6.5 141.2,6.3 C141.4,6.1 141.5,5.9 141.5,5.9 C141.5,5.9 141.4,6 141.2,6.3 C141.1,6.4 140.9,6.6 140.8,6.7 C140.6,6.9 140.4,7 140.2,7.2 C139.7,7.5 139.1,7.9 138.3,8.3 C137.5,8.7 136.7,9 135.7,9.4 C134.7,9.8 133.7,10.1 132.5,10.5 C131.4,10.9 130.2,11.2 128.9,11.6 C126.4,12.3 123.7,12.9 121,13.5 C118.3,14.1 115.6,14.6 113.1,15.1 C110.6,15.6 108.2,16 106.1,16.3 C101.9,17 99.2,17.3 99.2,17.3 Z" id="Shape" fill="#423118"/>
          <path d="M97.6,21.7 C97.6,21.7 100.1,21.4 103.8,21 C105.6,20.8 107.8,20.5 110.1,20.2 C112.4,19.9 114.9,19.6 117.3,19.2 C119.8,18.9 122.2,18.5 124.5,18.1 C125.6,17.9 126.8,17.7 127.8,17.5 C128.8,17.3 129.8,17.1 130.7,16.9 C131.6,16.7 132.4,16.5 133.2,16.3 C133.9,16.1 134.6,15.9 135.1,15.7 C136.1,15.3 136.7,15.1 136.7,15.1 C136.7,15.1 136.1,15.4 135.2,15.8 C134.7,16 134.1,16.2 133.4,16.5 C132.7,16.8 131.9,17 131,17.2 C130.1,17.5 129.1,17.7 128.1,17.9 C127.1,18.1 125.9,18.4 124.8,18.6 C122.5,19 120,19.4 117.6,19.8 C115.1,20.1 112.7,20.4 110.3,20.7 C108,21 105.8,21.1 104,21.3 C100.1,21.6 97.6,21.7 97.6,21.7 Z" id="Shape" fill="#423118"/>
          <path d="M92.1,27.1 C92.1,27.1 93.2,27 94.9,26.8 C95.7,26.7 96.7,26.6 97.7,26.5 C98.7,26.4 99.8,26.2 100.9,26.1 C102,25.9 103.1,25.8 104.1,25.6 C104.6,25.5 105.1,25.4 105.6,25.3 C106.1,25.2 106.5,25.1 106.9,25 C107.3,24.9 107.7,24.8 108,24.6 C108.3,24.5 108.6,24.4 108.8,24.2 C109.2,24 109.5,23.8 109.5,23.8 C109.5,23.8 109.3,24 108.9,24.3 C108.7,24.5 108.4,24.6 108.1,24.8 C107.8,25 107.5,25.1 107.1,25.3 C106.7,25.5 106.3,25.6 105.8,25.8 C105.3,26 104.9,26.1 104.3,26.2 C103.3,26.4 102.2,26.6 101.1,26.8 C100,26.9 98.9,27.1 97.8,27.2 C96.8,27.3 95.8,27.3 95,27.3 C93.3,27.2 92.1,27.1 92.1,27.1 Z" id="Shape" fill="#423118"/>
          <path d="M88.9,32.6 C88.9,32.6 89.6,32.4 90.6,32 C91.6,31.7 93,31.3 94.4,30.9 C95.1,30.7 95.8,30.5 96.4,30.3 C97,30.1 97.6,29.9 98.1,29.7 C98.6,29.5 99,29.3 99.3,29.1 C99.5,28.9 99.7,28.8 99.7,28.8 C99.7,28.8 99.6,28.9 99.4,29.2 C99.2,29.4 98.8,29.7 98.3,30 C97.3,30.6 96,31.1 94.6,31.5 C93.2,31.9 91.8,32.2 90.7,32.4 C89.7,32.6 88.9,32.6 88.9,32.6 Z" id="Shape" fill="#423118"/>
          <path d="M81.4,36.2 C81.4,36.2 82.1,36.1 83.3,35.9 C84.4,35.8 85.9,35.6 87.4,35.4 C88.9,35.2 90.4,35.1 91.5,34.8 C92,34.7 92.5,34.6 92.8,34.4 C93.1,34.3 93.2,34.1 93.2,34.1 C93.2,34.1 93.2,34.1 93.1,34.2 C93.1,34.3 93,34.4 92.8,34.5 C92.5,34.7 92.1,34.9 91.6,35.1 C90.5,35.5 89,35.8 87.5,36 C86,36.2 84.5,36.2 83.4,36.2 C82.1,36.2 81.4,36.2 81.4,36.2 Z" id="Shape" fill="#423118"/>
          <path d="M72.4,42 C72.4,42 73,41.8 73.9,41.5 C74.8,41.2 75.9,40.8 77,40.3 C77.3,40.2 77.5,40 77.8,39.9 C78,39.7 78.3,39.6 78.5,39.4 C78.7,39.2 79,39.1 79.2,38.9 C79.4,38.7 79.6,38.6 79.8,38.4 C80,38.2 80.1,38.1 80.3,38 C80.4,37.9 80.5,37.7 80.6,37.6 C80.8,37.4 80.9,37.3 80.9,37.3 C80.9,37.3 80.8,37.4 80.7,37.7 C80.6,37.9 80.4,38.3 80.1,38.7 C80,38.9 79.8,39.1 79.6,39.3 C79.4,39.5 79.2,39.7 79,39.9 C78.5,40.3 78,40.6 77.4,40.9 C76.8,41.2 76.2,41.4 75.7,41.6 C75.1,41.8 74.6,41.9 74.1,41.9 C73,42.1 72.4,42 72.4,42 Z" id="Shape" fill="#423118"/>
          <path d="M66.7,46.1 C66.7,46.1 67,46 67.5,45.7 C68,45.5 68.6,45.2 69.2,44.8 C69.8,44.5 70.4,44.1 70.8,43.8 C71,43.7 71.2,43.5 71.3,43.4 C71.4,43.3 71.5,43.3 71.5,43.3 C71.5,43.3 71.3,43.6 71,44.1 C70.7,44.5 70.1,45 69.4,45.4 C68.8,45.8 68,46 67.5,46 C67.1,46.1 66.7,46.1 66.7,46.1 Z" id="Shape" fill="#423118"/>
          <path d="M57.9,50.1 C57.9,50.1 58.4,50 59.2,49.8 C60,49.6 60.9,49.4 61.9,49 C62.9,48.7 63.8,48.2 64.4,47.8 C64.7,47.6 65,47.4 65.2,47.3 C65.4,47.2 65.5,47.1 65.5,47.1 C65.5,47.1 65.4,47.2 65.3,47.4 C65.2,47.6 64.9,47.8 64.6,48.1 C64.3,48.4 63.9,48.7 63.5,48.9 C63.1,49.2 62.6,49.4 62.1,49.6 C61.1,50 60,50.1 59.2,50.1 C58.4,50.2 57.9,50.1 57.9,50.1 Z" id="Shape" fill="#423118"/>
          <path d="M52.2,54.1 C52.2,54.1 52.5,53.9 53,53.6 C53.5,53.3 54.1,53 54.7,52.7 C55.3,52.4 55.9,52 56.3,51.8 C56.5,51.7 56.7,51.6 56.8,51.5 C56.9,51.4 57,51.4 57,51.4 C57,51.4 56.9,51.7 56.5,52.2 C56.1,52.6 55.6,53.1 54.9,53.4 C54.3,53.7 53.6,54 53.1,54.1 C52.6,54.1 52.2,54.1 52.2,54.1 Z" id="Shape" fill="#423118"/>
          <path d="M47.6,59 C47.6,59 48,58.9 48.5,58.6 C49,58.4 49.6,58 50.2,57.6 C50.5,57.4 50.7,57.1 51,56.9 C51.2,56.7 51.4,56.4 51.6,56.2 C51.8,56 51.9,55.8 52,55.6 C52.1,55.5 52.2,55.4 52.2,55.4 C52.2,55.4 52.2,55.5 52.2,55.7 C52.2,55.9 52.1,56.1 52,56.4 C51.9,56.5 51.9,56.7 51.8,56.8 C51.7,56.9 51.6,57.1 51.5,57.3 C51.4,57.4 51.3,57.6 51.1,57.7 C51,57.8 50.8,58 50.7,58.1 C50.1,58.6 49.3,58.9 48.7,59 C47.9,59.1 47.6,59 47.6,59 Z" id="Shape" fill="#423118"/>
          <path d="M41.1,63.7 C41.1,63.7 41.5,63.5 42.1,63.2 C42.7,62.9 43.4,62.5 44.1,62.1 C44.8,61.7 45.5,61.2 46,60.8 C46.3,60.6 46.5,60.5 46.6,60.3 C46.7,60.2 46.8,60.1 46.8,60.1 C46.8,60.1 46.8,60.2 46.7,60.4 C46.6,60.6 46.5,60.8 46.3,61.1 C46.1,61.4 45.8,61.6 45.5,61.9 C45.2,62.2 44.8,62.4 44.5,62.7 C43.7,63.2 42.9,63.5 42.3,63.6 C41.5,63.7 41.1,63.7 41.1,63.7 Z" id="Shape" fill="#423118"/>
          <path d="M36.3,67.6 C36.3,67.6 36.6,67.4 37.1,67.2 C37.6,67 38.3,66.7 38.9,66.4 C39.5,66.1 40.2,65.8 40.6,65.5 C40.7,65.4 40.8,65.3 40.9,65.3 C41,65.2 41.1,65.2 41.1,65.1 C41.2,65 41.3,64.9 41.3,64.9 C41.3,64.9 41.3,65 41.2,65.1 C41.2,65.2 41.1,65.3 41.1,65.4 C41,65.5 41,65.6 40.9,65.7 C40.7,65.9 40.5,66.2 40.2,66.4 C39.9,66.6 39.6,66.8 39.2,66.9 C38.5,67.2 37.8,67.4 37.2,67.4 C36.7,67.6 36.3,67.6 36.3,67.6 Z" id="Shape" fill="#423118"/>
          <path d="M16.1,66.6 C16.1,66.6 16.6,66.4 17.3,66.2 C18,66 18.9,65.7 19.8,65.4 C20,65.3 20.2,65.2 20.4,65.1 C20.6,65 20.7,64.9 20.6,64.8 C20.6,64.7 20.5,64.6 20.3,64.5 C20.1,64.4 20,64.3 19.8,64.2 C19.5,64 19.2,63.9 19,63.8 C18.8,63.7 18.7,63.6 18.7,63.6 C18.7,63.6 18.8,63.6 19,63.6 C19.2,63.6 19.5,63.7 19.9,63.8 C20.1,63.9 20.3,63.9 20.5,64 C20.7,64.1 21,64.2 21.1,64.6 C21.2,64.8 21.1,65 21,65.2 C20.9,65.3 20.8,65.4 20.7,65.5 C20.5,65.7 20.2,65.8 20,65.9 C18.1,66.7 16.1,66.6 16.1,66.6 Z" id="Shape" fill="#52391E"/>
          <path d="M20.8,64.4 C20.8,64.4 21.2,64.2 21.8,63.8 C22.1,63.6 22.4,63.4 22.8,63.2 C23.2,63 23.5,62.7 23.8,62.5 C23.9,62.4 24.1,62.2 24.1,62.1 C24.1,62 24.1,61.9 24,61.8 C23.8,61.5 23.4,61.4 23.1,61.2 C22.8,61.1 22.5,60.9 22.3,60.8 C22.1,60.7 22,60.7 22,60.7 C22,60.7 22.1,60.7 22.3,60.7 C22.5,60.7 22.8,60.7 23.2,60.8 C23.4,60.8 23.6,60.9 23.8,61 C24,61.1 24.2,61.2 24.4,61.4 C24.6,61.6 24.7,62 24.6,62.3 C24.5,62.6 24.3,62.8 24.1,63 C23.3,63.7 22.4,64 21.7,64.2 C21.3,64.3 20.8,64.4 20.8,64.4 Z" id="Shape" fill="#52391E"/>
          <path d="M19.6,55 C19.6,55 20.1,54.8 20.9,54.5 C21.3,54.4 21.8,54.2 22.2,54 C22.7,53.8 23.2,53.6 23.7,53.4 C23.9,53.3 24.1,53.1 24.2,53 C24.2,53 24.2,53 24.2,52.9 C24.2,52.8 24.1,52.8 24,52.7 C23.6,52.5 23.1,52.3 22.7,52.2 C22.3,52.1 22,52 21.7,51.9 C21.5,51.8 21.3,51.8 21.3,51.8 C21.3,51.8 21.9,51.8 22.7,51.9 C22.9,51.9 23.1,52 23.4,52 C23.6,52.1 23.9,52.1 24.2,52.2 C24.3,52.3 24.5,52.3 24.6,52.5 C24.7,52.6 24.9,52.9 24.8,53.2 C24.6,53.6 24.3,53.8 24,53.9 C22.9,54.4 21.8,54.6 21,54.8 C20.2,55 19.6,55 19.6,55 Z" id="Shape" fill="#52391E"/>
          <path d="M27.3,58.2 C27.3,58.2 27.8,58 28.5,57.8 C28.8,57.7 29.2,57.6 29.7,57.4 C30.1,57.3 30.6,57.1 31,56.9 C31.2,56.8 31.4,56.7 31.4,56.6 L31.4,56.5 C31.4,56.5 31.3,56.4 31.3,56.3 C31,56 30.7,55.8 30.3,55.6 C30,55.4 29.7,55.3 29.5,55.2 C29.3,55.1 29.2,55 29.2,55 C29.2,55 29.7,55 30.4,55.2 C30.8,55.3 31.2,55.4 31.6,55.8 C31.7,55.9 31.8,56 31.9,56.2 C32,56.4 31.9,56.6 31.8,56.8 C31.6,57.1 31.3,57.2 31.1,57.4 C30.1,57.8 29.2,58 28.4,58 C27.8,58.2 27.3,58.2 27.3,58.2 Z" id="Shape" fill="#52391E"/>
          <path d="M29.5,55 C29.5,55 30,54.8 30.7,54.6 C31.4,54.4 32.3,54.2 33.2,53.8 C33.4,53.7 33.6,53.6 33.7,53.5 C33.7,53.4 33.8,53.4 33.7,53.2 C33.5,52.9 33.1,52.7 32.8,52.5 C32.5,52.3 32.2,52.2 32,52.1 C31.8,52 31.7,51.9 31.7,51.9 C31.7,51.9 32.2,51.9 32.9,52.1 C33.3,52.2 33.7,52.3 34.1,52.7 C34.2,52.8 34.3,52.9 34.4,53.1 C34.5,53.3 34.4,53.5 34.3,53.7 C34.1,54 33.8,54.1 33.6,54.2 C32.6,54.6 31.7,54.7 30.9,54.8 C30,55.1 29.5,55 29.5,55 Z" id="Shape" fill="#52391E"/>
          <path d="M25.4,45.6 C25.4,45.6 25.6,45.5 25.8,45.4 C26.1,45.3 26.5,45.2 26.9,45 C27.4,44.8 27.9,44.6 28.4,44.3 C28.9,44 29.5,43.7 29.8,43.2 C30,43 30,42.8 30,42.7 C29.9,42.5 29.7,42.4 29.4,42.3 C28.9,42.1 28.3,41.9 27.8,41.8 C27.3,41.7 26.9,41.6 26.6,41.6 C26.3,41.5 26.2,41.5 26.2,41.5 C26.2,41.5 26.9,41.4 27.9,41.5 C28.4,41.5 29,41.6 29.6,41.8 C29.9,41.9 30.3,42.1 30.5,42.5 C30.6,42.7 30.7,43 30.6,43.2 C30.5,43.4 30.4,43.6 30.3,43.7 C29.8,44.3 29.2,44.6 28.6,44.9 C28,45.2 27.5,45.3 27,45.4 C26,45.6 25.4,45.6 25.4,45.6 Z" id="Shape" fill="#52391E"/>
          <path d="M22.8,42.4 C22.8,42.4 23.4,42.2 24.4,41.8 C24.9,41.6 25.4,41.4 26,41.2 C26.6,41 27.2,40.8 27.8,40.4 C27.9,40.3 28.1,40.2 28.2,40.2 C28.3,40.2 28.3,40.1 28.3,40.1 C28.3,40.1 28.3,40 28.1,40 C28,39.9 27.9,39.9 27.7,39.8 C27.1,39.6 26.6,39.5 26.1,39.3 C25.6,39.2 25.2,39.1 24.9,39 C24.6,38.9 24.4,38.9 24.4,38.9 C24.4,38.9 25.1,38.9 26.1,38.9 C26.6,38.9 27.2,39 27.9,39.2 C28.1,39.3 28.2,39.3 28.4,39.4 C28.6,39.5 28.8,39.6 28.9,40 C28.9,40.2 28.9,40.3 28.8,40.5 C28.7,40.6 28.7,40.7 28.6,40.8 C28.4,40.9 28.3,41 28.1,41.1 C26.8,41.8 25.5,42 24.5,42.2 C23.5,42.3 22.8,42.4 22.8,42.4 Z" id="Shape" fill="#52391E"/>
          <path d="M35.4,34.4 C35.4,34.4 36,34.1 36.9,33.7 C37.3,33.5 37.9,33.3 38.4,33 C38.9,32.8 39.5,32.5 40,32.2 C40.2,32.1 40.4,31.8 40.4,31.8 C40.4,31.8 40.1,31.6 39.9,31.5 C39.4,31.3 38.8,31.2 38.3,31.1 C37.8,31 37.4,30.9 37.2,30.9 C36.9,30.8 36.8,30.8 36.8,30.8 C36.8,30.8 37.4,30.7 38.4,30.7 C38.9,30.7 39.5,30.7 40.1,30.9 C40.3,30.9 40.4,31 40.6,31.1 C40.8,31.2 41,31.3 41.1,31.6 C41.2,31.9 41,32.2 40.9,32.3 C40.8,32.5 40.6,32.6 40.5,32.7 C39.3,33.4 38.1,33.8 37.1,34 C36.1,34.3 35.4,34.4 35.4,34.4 Z" id="Shape" fill="#52391E"/>
          <path d="M41.8,40.7 C41.8,40.7 42.3,40.4 42.9,40.1 C43.2,39.9 43.6,39.7 44.1,39.5 C44.5,39.3 45,39 45.3,38.7 C45.5,38.6 45.6,38.4 45.6,38.3 C45.6,38.3 45.5,38.1 45.3,38.1 C44.9,37.9 44.4,37.8 44.1,37.8 C43.7,37.7 43.4,37.6 43.2,37.6 C43,37.6 42.8,37.5 42.8,37.5 C42.8,37.5 43.3,37.4 44.1,37.4 C44.5,37.4 45,37.4 45.5,37.6 C45.6,37.6 45.8,37.7 45.9,37.8 C46,37.9 46.2,38.1 46.2,38.3 C46.2,38.8 45.9,39 45.7,39.2 C44.8,39.9 43.8,40.2 43,40.5 C42.3,40.6 41.8,40.7 41.8,40.7 Z" id="Shape" fill="#52391E"/>
          <path d="M50.5,25.6 C50.5,25.6 52.7,25.1 55.9,24.4 C57.5,24 59.4,23.6 61.4,23 C62.4,22.7 63.4,22.4 64.5,22.1 C65,21.9 65.5,21.7 66,21.5 C66.5,21.3 67,21 67.3,20.7 L67.4,20.6 C67.4,20.6 67.4,20.5 67.4,20.7 L67.4,20.6 C67.4,20.5 67.3,20.6 67.3,20.6 C67.2,20.5 66.9,20.4 66.7,20.4 C66.2,20.3 65.6,20.3 65.1,20.3 C64,20.3 63,20.4 61.9,20.5 C59.8,20.7 57.9,21 56.3,21.2 C53,21.7 50.8,22.1 50.8,22.1 C50.8,22.1 53,21.5 56.2,20.9 C57.8,20.6 59.8,20.2 61.8,20 C62.8,19.9 63.9,19.8 65,19.7 C65.6,19.7 66.1,19.7 66.7,19.8 C67,19.8 67.3,19.9 67.6,20.1 C67.7,20.2 67.8,20.3 67.8,20.3 L67.9,20.4 C68,20.6 67.9,20.5 67.9,20.5 L67.9,20.6 C67.9,20.7 67.9,20.9 67.8,20.9 C67.8,21 67.7,21.1 67.6,21.1 C67.1,21.6 66.6,21.8 66.1,22 C65.6,22.2 65,22.4 64.5,22.6 C63.4,22.9 62.4,23.2 61.4,23.5 C59.4,24 57.4,24.4 55.8,24.7 C52.7,25.3 50.5,25.6 50.5,25.6 Z" id="Shape" fill="#52391E"/>
          <path d="M56.2,24.7 C56.2,24.7 56.8,24.6 57.7,24.4 C58.7,24.2 60.1,23.9 61.8,23.7 C63.5,23.5 65.5,23.2 67.7,23.1 C68.8,23.1 69.9,23.1 71.1,23.4 C71.4,23.5 71.7,23.7 71.9,24 C71.9,24.1 72,24.2 72,24.3 C72,24.3 72,24.5 72,24.6 C71.9,24.8 71.8,25 71.7,25.1 C71.2,25.5 70.6,25.8 70.1,26 C69,26.4 67.9,26.7 66.8,27 C65.7,27.3 64.6,27.5 63.5,27.7 C61.4,28.1 59.4,28.4 57.7,28.6 C54.3,29.1 52,29.2 52,29.2 C52,29.2 54.3,28.8 57.7,28.2 C59.4,27.9 61.4,27.5 63.5,27.1 C65.6,26.7 67.9,26.2 70,25.4 C70.5,25.2 71.1,25 71.4,24.7 C71.6,24.5 71.6,24.4 71.5,24.3 C71.4,24.2 71.2,24 71,24 C70,23.7 68.9,23.7 67.8,23.7 C65.7,23.7 63.7,23.9 61.9,24.1 C58.5,24.4 56.2,24.7 56.2,24.7 Z" id="Shape" fill="#52391E"/>
          <path d="M55,36.6 C55,36.6 57.1,36.4 60.3,36.1 C61.9,35.9 63.8,35.7 65.7,35.3 C66.7,35.1 67.7,34.9 68.7,34.6 C69.2,34.5 69.7,34.3 70.1,34.1 C70.3,34 70.6,33.9 70.8,33.7 C71,33.5 71.2,33.4 71.3,33.2 C71.3,33.1 71.4,33.1 71.3,33.1 C71.3,33.1 71.3,33 71.2,33 C71,32.9 70.8,32.8 70.5,32.8 C70,32.7 69.5,32.7 69,32.6 C68,32.5 66.9,32.6 65.9,32.6 C63.9,32.7 62,32.7 60.4,32.9 C57.2,33.1 55,33.3 55,33.3 C55,33.3 57.1,32.9 60.3,32.6 C61.9,32.4 63.8,32.2 65.8,32.1 C66.8,32.1 67.9,32 68.9,32.1 C69.4,32.1 70,32.2 70.5,32.3 C70.8,32.4 71.1,32.4 71.4,32.6 C71.5,32.6 71.6,32.7 71.6,32.8 C71.7,32.9 71.7,33 71.8,33.1 C71.9,33.3 71.7,33.7 71.7,33.7 C71.5,34 71.2,34.1 71,34.3 C70.8,34.5 70.5,34.6 70.3,34.7 C69.8,34.9 69.3,35.1 68.8,35.3 C67.8,35.6 66.7,35.8 65.7,36 C63.7,36.3 61.8,36.5 60.2,36.6 C58.6,36.7 57.2,36.7 56.3,36.8 C55.5,36.6 55,36.6 55,36.6 Z" id="Shape" fill="#52391E"/>
          <path d="M67.7,20.6 C67.7,20.6 70.1,20.1 73.7,19.3 C75.5,18.9 77.6,18.4 79.7,17.8 C80.8,17.5 81.9,17.1 83,16.6 C83.5,16.4 84.1,16.1 84.5,15.8 C85,15.5 85.3,15 85,14.8 L84.9,14.7 L84.8,14.7 C84.8,14.7 84.8,14.7 84.7,14.6 C84.6,14.6 84.5,14.5 84.3,14.5 C84,14.4 83.7,14.4 83.4,14.4 C82.8,14.4 82.2,14.4 81.6,14.4 C80.4,14.5 79.3,14.7 78.1,14.8 C75.9,15.2 73.8,15.5 72,15.9 C68.4,16.6 66,17.2 66,17.2 C66,17.2 68.3,16.5 71.9,15.6 C73.7,15.2 75.8,14.7 78,14.3 C79.1,14.1 80.3,13.9 81.5,13.8 C82.1,13.8 82.7,13.7 83.3,13.7 C83.6,13.7 83.9,13.7 84.3,13.8 C84.5,13.8 84.6,13.9 84.8,13.9 C85,14 85.3,14.1 85.3,14.2 L85.4,14.3 C85.5,14.4 85.5,14.4 85.5,14.5 C85.5,14.6 85.6,14.7 85.6,14.8 C85.6,14.9 85.6,15 85.6,15.1 C85.6,15.2 85.5,15.3 85.5,15.4 C85.3,15.7 85,16 84.8,16.2 C84.3,16.6 83.7,16.8 83.1,17.1 C82,17.6 80.8,17.9 79.7,18.2 C77.5,18.8 75.4,19.2 73.6,19.6 C70.2,20.3 67.7,20.6 67.7,20.6 Z" id="Shape" fill="#52391E"/>
          <path d="M42.4,47.1 C42.4,47.1 44.3,47.2 47.2,47.3 C48.7,47.3 50.3,47.4 52.1,47.3 C53.9,47.2 55.9,47.2 57.6,46.6 C57.8,46.5 58,46.4 58.1,46.3 C58.2,46.2 58.2,46.3 58.1,46.1 C57.8,45.9 57.4,45.7 56.9,45.5 C56,45.2 55.1,45 54.2,44.9 C52.4,44.6 50.7,44.4 49.3,44.3 C47.9,44.2 46.6,44.1 45.8,44.1 C45,44.1 44.5,44.1 44.5,44.1 C44.5,44.1 46.4,43.9 49.4,43.9 C50.9,43.9 52.6,44 54.4,44.3 C55.3,44.4 56.2,44.6 57.2,44.9 C57.7,45.1 58.1,45.2 58.6,45.6 C58.7,45.7 58.8,45.9 58.9,46.1 C58.9,46.4 58.8,46.6 58.6,46.6 C58.4,46.8 58.1,46.9 57.9,47 C56.9,47.3 55.9,47.5 55,47.6 C54,47.7 53.1,47.7 52.2,47.7 C50.4,47.7 48.7,47.6 47.2,47.5 C44.4,47.4 42.4,47.1 42.4,47.1 Z" id="Shape" fill="#52391E"/>
        </g>
        <g id="Group" transform="translate(26.000000, 50.000000)">
          <g id="Shape">
            <path d="M39.6,1 C39.6,1 53.5,4.8 59.3,4.8 C59.3,4.8 54.9,7.9 52.9,7.6 C52.9,7.6 60.9,8.7 62.5,13.8 C62.5,13.8 90,19.9 105.5,16.9 C121,13.9 140.5,14.4 151,27.4 C161.5,40.4 150,64.9 126,62.4 C102,59.9 103,75.1 79,74.4 C29,72.9 22.7,53.2 22.7,53.2 C15.6,51.8 13.7,46.3 13.7,46.3 C7,44.5 6.2,39.4 6.2,39.4 C4.8,42 5.1,44.6 5.1,44.6 C0,36.9 5.1,29.4 5.1,29.4 C3.7,30.6 0.8,34.8 0.8,34.8 C1.9,21.1 6.8,19.6 6.8,19.6 C19,11.1 29.2,0.1 39.6,1 Z" fill="#704E2C"/>
            <path d="M11.9,41.2 C11.9,41.2 12,41.5 12.1,41.9 C12.2,42.4 12.5,43 12.8,43.7 C13,44.1 13.1,44.5 13.3,44.9 C13.5,45.3 13.7,45.7 14,46.2 C14.2,46.6 14.5,47.1 14.8,47.5 C15.1,47.9 15.4,48.4 15.8,48.7 C16.1,49.1 16.5,49.5 16.9,49.9 C17.3,50.3 17.6,50.6 18.1,50.9 C18.3,51 18.5,51.2 18.7,51.3 C18.9,51.4 19.1,51.5 19.3,51.7 C19.7,51.9 20.1,52.2 20.4,52.3 C20.8,52.5 21.1,52.6 21.4,52.7 C21.7,52.8 22,52.9 22.2,52.9 C22.7,53 22.9,53.1 22.9,53.1 C22.9,53.1 22.6,53.1 22.2,53 C22,53 21.7,52.9 21.4,52.9 C21.1,52.8 20.7,52.7 20.3,52.6 C19.9,52.5 19.5,52.3 19.1,52.1 C18.9,52 18.7,51.9 18.4,51.8 C18.2,51.7 18,51.5 17.8,51.4 C17.4,51.1 17,50.8 16.6,50.4 C16.2,50.1 15.8,49.6 15.5,49.2 C15.2,48.8 14.9,48.3 14.5,47.9 C14.2,47.4 13.9,47 13.7,46.5 C13.2,45.6 12.9,44.7 12.7,43.9 C12,42.3 11.9,41.2 11.9,41.2 Z" fill="#423118"/>
            <path d="M59.2,4.7 C59.2,4.7 58.3,4.7 56.9,4.7 C55.5,4.6 53.7,4.5 51.9,4.2 C50.1,3.9 48.3,3.5 46.9,3.1 C45.6,2.7 44.7,2.4 44.7,2.4 C44.7,2.4 48.3,3 51.9,3.6 C53.7,3.9 55.5,4.2 56.9,4.4 C58.3,4.5 59.2,4.7 59.2,4.7 Z" fill="#423118"/>
            <path d="M53.8,7.7 C53.8,7.7 54,7.7 54.4,7.7 C54.8,7.7 55.4,7.8 56.1,8 C56.8,8.2 57.6,8.5 58.3,8.9 C58.7,9.1 59.1,9.3 59.5,9.6 C59.9,9.9 60.3,10.1 60.6,10.5 C61,10.8 61.3,11.2 61.6,11.5 C61.9,11.8 62.2,12.2 62.4,12.6 C62.7,13 62.8,13.4 63,13.7 C63.2,14 63.3,14.4 63.5,14.7 C63.6,15 63.8,15.3 63.8,15.6 C63.9,15.9 63.9,16.1 64,16.3 C64.1,16.7 64.1,16.9 64.1,16.9 C64.1,16.9 64,16.7 63.8,16.3 C63.7,16.1 63.6,15.9 63.5,15.6 C63.4,15.3 63.2,15.1 63.1,14.8 C62.9,14.5 62.8,14.2 62.6,13.8 C62.4,13.5 62.2,13.1 61.9,12.8 C61.6,12.5 61.4,12.1 61.1,11.8 C60.8,11.5 60.5,11.1 60.1,10.9 C59.8,10.6 59.4,10.3 59.1,10.1 C58.7,9.8 58.4,9.6 58,9.4 C57.3,9 56.5,8.6 55.9,8.4 C55.3,8.1 54.7,8 54.3,7.9 C54.1,7.7 53.8,7.7 53.8,7.7 Z" fill="#423118"/>
            <path d="M62.5,13.7 C62.5,13.7 66.2,14.4 71.7,15.3 C74.5,15.8 77.7,16.2 81.2,16.6 C84.7,17 88.4,17.4 92.1,17.4 C94,17.4 95.8,17.4 97.7,17.2 C99.5,17 101.3,16.9 103.1,16.7 C106.6,16.3 109.9,15.9 112.7,15.7 C115.5,15.5 117.9,15.4 119.5,15.4 C121.1,15.4 122.1,15.4 122.1,15.4 C122.1,15.4 121.2,15.4 119.5,15.5 C117.9,15.6 115.5,15.7 112.7,16 C109.9,16.3 106.7,16.8 103.2,17.2 C101.5,17.4 99.6,17.6 97.8,17.8 C96,18 94.1,18.1 92.2,18.1 C88.4,18 84.7,17.7 81.2,17.2 C77.7,16.7 74.5,16.2 71.7,15.7 C68.9,15.2 66.6,14.7 65,14.3 C63.4,13.9 62.5,13.7 62.5,13.7 Z" fill="#423118"/>
          </g>
          <path d="M28.1,60.2 C28.1,60.2 28.4,60.5 29,60.9 C29.6,61.4 30.5,62 31.7,62.8 C34.1,64.4 37.8,66.3 42.4,68 C47,69.7 52.6,71.1 58.7,72.1 C61.7,72.6 64.9,73 68.1,73.3 C71.3,73.6 74.6,73.9 77.9,74 C81.2,74.1 84.4,74 87.6,73.5 C90.8,73 93.8,72.1 96.6,70.8 C98,70.1 99.3,69.4 100.5,68.6 C101.7,67.8 102.9,66.9 104.2,66.2 C106.7,64.8 109.2,63.9 111.6,63.3 C116.4,62.1 120.6,62 123.4,62 C126.3,62.1 127.9,62.4 127.9,62.4 C127.9,62.4 126.3,62.2 123.4,62.1 C120.5,62.1 116.4,62.3 111.7,63.6 C109.3,64.3 106.8,65.2 104.4,66.6 C103.2,67.3 102,68.1 100.8,69 C99.6,69.8 98.2,70.6 96.8,71.3 C94,72.7 90.9,73.6 87.7,74.1 C84.5,74.6 81.2,74.8 77.9,74.6 C74.6,74.5 71.3,74.1 68.1,73.9 C64.9,73.6 61.7,73.2 58.7,72.7 C52.6,71.7 47,70.1 42.4,68.4 C37.8,66.7 34.2,64.6 31.8,63 C30.6,62.2 29.7,61.5 29.1,61 C28.5,60.4 28.1,60.2 28.1,60.2 Z" id="Shape" fill="#423118"/>
        </g>
        <path d="M31.3,94.7 C31.3,94.7 31.1,94.6 30.8,94.3 C30.6,94.2 30.5,94 30.3,93.7 C30.1,93.5 29.9,93.2 29.7,92.8 C29.5,92.5 29.4,92.1 29.2,91.7 C29.1,91.3 28.9,90.9 28.8,90.4 C28.7,89.9 28.6,89.4 28.6,89 C28.5,88.5 28.6,88 28.6,87.5 C28.6,87 28.7,86.5 28.7,86 C28.7,85.5 28.9,85 29,84.6 C29.2,83.7 29.5,82.9 29.7,82.1 C29.8,81.7 30,81.4 30.1,81.2 C30.2,80.9 30.3,80.7 30.4,80.5 C30.6,80.1 30.7,79.9 30.7,79.9 C30.7,79.9 30.6,80.1 30.5,80.6 C30.4,80.8 30.4,81.1 30.3,81.4 C30.2,81.7 30.1,82 30.1,82.4 C30,82.8 29.9,83.1 29.8,83.6 C29.7,84 29.6,84.5 29.6,84.9 C29.5,85.4 29.4,85.8 29.4,86.3 C29.4,86.8 29.3,87.3 29.3,87.7 C29.3,88.2 29.3,88.7 29.3,89.1 C29.3,89.6 29.4,90 29.4,90.5 C29.5,90.9 29.6,91.4 29.7,91.8 C29.8,92.2 29.9,92.6 30.1,92.9 C30.2,93.2 30.4,93.5 30.5,93.8 C30.7,94.1 30.8,94.3 30.9,94.4 C31.1,94.6 31.3,94.7 31.3,94.7 Z" id="Shape" fill="#423118"/>
        <path d="M39.3,96.1 C39.3,96.1 39.1,96.1 38.8,96.1 C38.5,96.1 38.1,96 37.6,95.9 C37.1,95.8 36.6,95.5 36,95.2 C35.7,95 35.4,94.9 35.2,94.7 C34.9,94.5 34.7,94.3 34.4,94.1 C34.1,93.9 33.9,93.6 33.7,93.4 C33.5,93.2 33.3,92.9 33.1,92.6 C32.9,92.3 32.8,92.1 32.7,91.8 C32.6,91.6 32.5,91.3 32.4,91.1 C32.2,90.6 32.2,90.2 32.1,89.9 C32,89.6 32,89.5 32,89.5 C32,89.5 32.1,89.6 32.2,89.9 C32.3,90 32.3,90.2 32.4,90.4 C32.5,90.6 32.6,90.8 32.7,91 C32.8,91.2 32.9,91.4 33.1,91.7 C33.3,91.9 33.4,92.2 33.6,92.4 C33.8,92.6 34,92.9 34.2,93.1 C34.4,93.3 34.6,93.6 34.8,93.8 C35.2,94.2 35.7,94.6 36.2,95 C36.7,95.3 37.2,95.6 37.6,95.8 C38.7,95.9 39.3,96.1 39.3,96.1 Z" id="Shape" fill="#423118"/>
        <path d="M27.1,84.4 C27.1,84.4 27,83.4 27.1,81.8 C27.2,81 27.2,80.1 27.4,79.2 C27.6,78.3 27.8,77.2 28,76.2 C28.1,75.7 28.3,75.2 28.5,74.7 C28.7,74.2 28.9,73.8 29.1,73.3 C29.3,72.9 29.6,72.5 29.8,72.1 C30,71.7 30.4,71.4 30.6,71.1 C30.8,70.8 31.2,70.6 31.4,70.4 C31.6,70.2 31.9,70.1 32.1,70 C32.5,69.8 32.7,69.7 32.7,69.7 C32.7,69.7 32.5,69.9 32.1,70.1 C31.9,70.2 31.7,70.4 31.5,70.6 C31.3,70.8 31,71 30.8,71.4 C30.6,71.7 30.3,72 30.1,72.4 C29.9,72.8 29.7,73.2 29.5,73.6 C29.3,74 29.1,74.5 29,74.9 C28.8,75.4 28.7,75.8 28.5,76.3 C28.2,77.3 28,78.2 27.8,79.2 C27.6,80.1 27.4,81 27.3,81.8 C27.2,83.3 27.1,84.4 27.1,84.4 Z" id="Shape" fill="#423118"/>
        <g id="Group" transform="translate(0.000000, 18.000000)">
          <g transform="translate(22.000000, 0.000000)" id="Shape">
            <path d="M0.7,15.6 C0.7,15.6 4.8,4 14.9,0.7 C14.9,0.7 14.8,5.5 12.8,7.7 C12.8,7.7 15.2,5.1 15.7,4.1 C15.7,4 15.3,17.2 0.7,15.6 Z" fill="#EBDFD4"/>
            <path d="M4.2,15.9 C4.2,15.9 4.5,15.9 5,15.7 C5.5,15.6 6.2,15.4 7,15.1 C7.4,15 7.8,14.8 8.3,14.6 C8.7,14.4 9.2,14.1 9.6,13.9 C10,13.6 10.5,13.4 10.9,13 C11.3,12.7 11.8,12.3 12.1,11.9 C12.5,11.5 12.9,11.1 13.2,10.7 C13.6,10.3 13.8,9.8 14.1,9.4 C14.4,9 14.5,8.5 14.7,8 C14.9,7.6 15,7.1 15.1,6.7 C15.2,6.3 15.4,5.9 15.4,5.6 C15.5,5.3 15.5,5 15.6,4.7 C15.7,4.2 15.7,3.9 15.7,3.9 C15.7,3.9 15.7,4.2 15.7,4.7 C15.7,5 15.7,5.3 15.7,5.6 C15.7,6 15.6,6.3 15.5,6.8 C15.4,7.2 15.4,7.7 15.2,8.2 C15,8.7 14.9,9.2 14.6,9.7 C14.3,10.2 14.1,10.7 13.7,11.1 C13.4,11.6 13,12 12.6,12.4 C12.2,12.8 11.7,13.2 11.3,13.5 C10.8,13.8 10.3,14.1 9.9,14.4 C9.4,14.6 8.9,14.9 8.5,15 C8,15.2 7.6,15.3 7.2,15.4 C6.4,15.6 5.7,15.7 5.2,15.8 C4.5,15.9 4.2,15.9 4.2,15.9 Z" fill="#B5987C"/>
            <path d="M12.8,7.6 C12.8,7.6 13,7.2 13.2,6.5 C13.5,5.9 13.8,5 14,4.2 C14.3,3.3 14.5,2.5 14.6,1.8 C14.7,1.5 14.7,1.2 14.7,1 C14.7,0.8 14.8,0.7 14.8,0.7 C14.8,0.7 14.8,0.8 14.9,1 C14.9,1.2 15,1.5 15,1.8 C15,2.2 15,2.6 14.9,3 C14.8,3.4 14.7,3.9 14.6,4.4 C14.3,5.3 13.9,6.2 13.5,6.7 C13.2,7.3 12.8,7.6 12.8,7.6 Z" fill="#B5987C"/>
            <path d="M0.7,15.6 C0.7,15.6 1.1,14.6 1.8,13.1 C2.2,12.4 2.6,11.5 3.2,10.6 C3.7,9.7 4.4,8.8 5,7.9 C5.7,7 6.4,6.2 7.1,5.4 C7.5,5 7.8,4.7 8.2,4.4 C8.6,4.1 8.9,3.8 9.2,3.6 C9.5,3.4 9.9,3.2 10.1,3 C10.4,2.8 10.7,2.7 10.9,2.6 C11.3,2.4 11.6,2.3 11.6,2.3 C11.6,2.3 11.4,2.5 11,2.7 C10.8,2.8 10.6,3 10.3,3.2 C10,3.4 9.8,3.7 9.4,3.9 C9.1,4.2 8.8,4.5 8.4,4.8 C8.1,5.1 7.7,5.5 7.4,5.9 C6.7,6.7 6,7.5 5.4,8.4 C4.7,9.3 4.1,10.1 3.6,11 C3,11.8 2.5,12.6 2.1,13.3 C1.7,14 1.3,14.6 1.1,15 C0.8,15.3 0.7,15.6 0.7,15.6 Z" fill="#B5987C"/>
          </g>
          <g transform="translate(9.000000, 7.000000)">
            <path d="M56.8,40.8 C56.2,39.3 52.4,36.6 52.4,36.6 C57.3,38.5 63.3,33.7 63.3,33.7 C61.5,34.1 55.9,30.4 55.9,30.4 C60.6,31.3 65,28.2 65,28.2 C61.6,28.9 57.9,26.5 57.9,26.5 C62.1,28.2 66,24.2 66,24.2 C66,24.2 59.9,23.9 55.8,16.4 C51.7,9 45,8.8 45,8.8 C46.5,8.5 49.3,8.2 49.3,8.2 C41.8,1.5 36.5,4.8 36.5,4.8 C38.6,4 39.8,0.9 39.8,0.9 C39.8,0.9 33.3,3.2 25.2,2.6 C10.2,1.5 1.4,11.7 1,19.1 C0.7,25.1 1.4,32.8 7.6,34.3 C13.8,35.8 18.1,38.6 16.9,41.7 C15.7,44.7 14.5,48.1 17.5,53.7 C17.5,53.7 17.4,50 18.9,47.2 C18.9,47.2 18.1,57 25.4,58.9 C25.4,58.9 25,55.3 25.5,52 C25.5,52 27.3,59.4 30,60.4 C30,60.4 33.9,58 33.1,48.6 C33.1,48.6 34.2,55.5 33.8,58.1 C33.8,58.1 41.2,53.2 40,44.7 C40,44.7 42.2,49.2 41.1,53.2 C41.1,53.2 48.3,49.2 46.5,40.6 C46.5,40.6 48.8,45.7 51.5,46.7 C51.5,46.7 51.5,42.1 49.8,38.4 C51.7,39.9 53.9,40.8 56.8,40.8 Z" id="Shape" fill="#EBDFD4"/>
            <ellipse id="Oval" fill="#473322" transform="translate(16.498850, 20.402190) rotate(-11.741412) translate(-16.498850, -20.402190) " cx="16.49885" cy="20.40219" rx="1.30003189" ry="2.30005642"/>
            <path d="M8.9,18.7 C8.9,18.7 9,18.8 8.9,18.7 C9.1,18.9 9.2,18.9 9.3,19 C9.4,19.1 9.6,19.1 9.9,19.2 C10.1,19.2 10.4,19.3 10.6,19.3 C11.1,19.3 11.8,19.2 12.5,19.1 C13.2,19 13.9,18.8 14.6,18.6 C15.3,18.4 16,18.2 16.7,17.9 C17.4,17.7 18,17.5 18.5,17.3 C19.6,16.9 20.3,16.7 20.3,16.7 C20.3,16.7 19.7,17.1 18.6,17.7 C18.1,18 17.5,18.2 16.8,18.5 C16.1,18.8 15.4,19 14.7,19.2 C14.3,19.3 14,19.4 13.6,19.5 C13.2,19.6 12.9,19.6 12.5,19.7 C12.1,19.8 11.8,19.7 11.5,19.8 C11.2,19.8 10.8,19.8 10.6,19.7 C10,19.6 9.6,19.4 9.3,19.2 C9,18.9 8.9,18.7 8.9,18.7 Z" id="Shape" fill="#B5987C"/>
            <path d="M49.3,8.2 C49.3,8.2 48.7,7.6 47.6,6.9 C47.1,6.5 46.4,6.2 45.7,5.8 C45,5.5 44.2,5.1 43.3,4.9 C42.9,4.8 42.5,4.7 42.1,4.6 C41.7,4.5 41.3,4.5 40.9,4.4 C40.5,4.4 40.1,4.4 39.7,4.4 C39.3,4.4 39,4.4 38.7,4.4 C38.4,4.4 38.1,4.4 37.8,4.5 C37.5,4.5 37.3,4.6 37.1,4.6 C36.7,4.7 36.5,4.7 36.5,4.7 C36.5,4.7 36.7,4.6 37.1,4.5 C37.3,4.4 37.5,4.4 37.8,4.3 C38.1,4.2 38.4,4.2 38.7,4.1 C39,4 39.4,3.9 39.8,3.9 C40.2,3.9 40.6,3.8 41,3.9 C41.4,3.9 41.9,3.9 42.3,4 C42.7,4.1 43.2,4.1 43.6,4.3 C44,4.4 44.5,4.6 44.9,4.7 C45.3,4.8 45.7,5.1 46.1,5.2 C46.8,5.6 47.5,6 48,6.5 C48.5,6.9 48.9,7.3 49.1,7.6 C49.2,8 49.3,8.2 49.3,8.2 Z" id="Shape" fill="#B5987C"/>
            <path d="M39.8,0.9 C39.8,0.9 39.2,1.1 38,1.5 C36.9,1.8 35.3,2.3 33.3,2.7 C32.3,2.9 31.2,3.1 30,3.2 C29.4,3.2 28.8,3.3 28.2,3.2 C27.6,3.2 27,3 26.4,3 C25.2,2.9 23.9,2.8 22.6,2.8 C21.9,2.8 21.3,2.8 20.6,2.9 C19.9,2.9 19.3,3 18.6,3.2 C17.3,3.4 16,3.7 14.7,4.1 C14.1,4.3 13.5,4.5 12.9,4.8 C12.3,5 11.7,5.3 11.2,5.6 C10.6,5.9 10.1,6.2 9.6,6.5 C9.1,6.8 8.6,7.1 8.1,7.5 C7.7,7.9 7.2,8.2 6.8,8.6 C6.4,8.9 6.1,9.4 5.7,9.7 C5.4,10.1 5,10.4 4.7,10.8 C4.4,11.2 4.2,11.5 3.9,11.8 C3.7,12.1 3.4,12.4 3.2,12.7 C3,13 2.9,13.3 2.7,13.5 C2.1,14.5 1.8,15.1 1.8,15.1 C1.8,15.1 2.1,14.5 2.6,13.4 C2.7,13.1 2.9,12.8 3,12.5 C3.2,12.2 3.4,11.9 3.6,11.5 C3.8,11.2 4.1,10.8 4.3,10.4 C4.6,10 4.9,9.7 5.2,9.3 C5.6,8.9 5.9,8.5 6.3,8.1 C6.7,7.7 7.1,7.4 7.6,7 C8,6.6 8.6,6.3 9.1,5.9 C9.6,5.5 10.1,5.2 10.7,4.9 C11.3,4.6 11.8,4.3 12.5,4.1 C13.1,3.8 13.7,3.6 14.4,3.4 C15.7,3 17,2.6 18.3,2.4 C19,2.3 19.6,2.2 20.3,2.2 C21,2.1 21.6,2.1 22.3,2.1 C23.6,2.1 25,2.1 26.2,2.3 C26.8,2.4 27.5,2.5 28,2.6 C28.6,2.7 29.2,2.7 29.7,2.7 C30.8,2.7 31.9,2.5 32.9,2.4 C34.9,2.1 36.5,1.7 37.7,1.4 C39.2,1.1 39.8,0.9 39.8,0.9 Z" id="Shape" fill="#B5987C"/>
            <path d="M66.1,24.2 C66.1,24.2 65.7,24.2 64.9,24.1 C64.2,23.9 63.1,23.7 62,23.1 C60.9,22.5 59.6,21.6 58.5,20.4 C58,19.8 57.5,19.1 57,18.4 C56.5,17.7 56,17 55.5,16.3 C55,15.6 54.5,14.9 54,14.3 C53.5,13.7 52.9,13.1 52.4,12.5 C52.1,12.2 51.8,12 51.6,11.7 C51.3,11.5 51,11.2 50.7,11 C50.1,10.6 49.5,10.2 49,10 C48.4,9.7 47.9,9.5 47.4,9.3 C46.9,9.2 46.5,9 46.1,8.9 C45.4,8.8 45,8.7 45,8.7 C45,8.7 45.4,8.7 46.2,8.8 C46.6,8.8 47,9 47.5,9.1 C48,9.2 48.6,9.4 49.2,9.7 C49.8,9.9 50.4,10.3 51,10.7 C51.3,10.9 51.6,11.1 51.9,11.4 C52.2,11.6 52.5,11.9 52.8,12.2 C53.4,12.8 54,13.4 54.5,14 C55,14.7 55.6,15.3 56,16 C56.5,16.7 57,17.4 57.4,18.1 C57.9,18.8 58.3,19.5 58.8,20 C59.8,21.2 60.9,22.1 62,22.7 C63.1,23.3 64.1,23.7 64.8,23.9 C65.6,24.2 66.1,24.2 66.1,24.2 Z" id="Shape" fill="#B5987C"/>
            <path d="M25.6,58.8 C25.6,58.8 25.4,58.8 25,58.7 C24.6,58.6 24.1,58.4 23.4,58.1 C23.1,57.9 22.8,57.7 22.5,57.5 C22.2,57.3 21.9,56.9 21.6,56.6 C21.3,56.3 21,55.9 20.8,55.5 C20.6,55.1 20.3,54.7 20.2,54.3 L19.9,53.7 L19.7,53 C19.6,52.6 19.4,52.1 19.4,51.7 C19.3,51.3 19.2,50.9 19.2,50.5 C19.2,50.1 19.1,49.7 19.1,49.4 C19.1,48.7 19.1,48.1 19.1,47.7 C19.1,47.3 19.1,47.1 19.1,47.1 C19.1,47.1 19.1,47.3 19.2,47.7 C19.3,48.1 19.3,48.7 19.4,49.3 C19.5,49.6 19.5,50 19.6,50.4 C19.6,50.8 19.8,51.2 19.9,51.6 C20,52 20.1,52.4 20.3,52.8 L20.5,53.4 L20.8,54 C21,54.4 21.2,54.8 21.4,55.2 C21.6,55.6 21.9,55.9 22.1,56.2 C22.4,56.5 22.6,56.8 22.9,57.1 C23.2,57.4 23.5,57.6 23.7,57.8 C24,58 24.2,58.2 24.5,58.3 C24.7,58.4 25,58.5 25.1,58.6 C25.3,58.8 25.6,58.8 25.6,58.8 Z" id="Shape" fill="#B5987C"/>
            <path d="M17.7,53.6 C17.7,53.6 17.1,53 16.6,52 C16.3,51.5 16.1,50.8 15.9,50.1 C15.8,49.7 15.7,49.4 15.7,49 C15.6,48.6 15.6,48.2 15.6,47.8 C15.6,47.4 15.6,47 15.6,46.6 C15.7,46.2 15.7,45.8 15.8,45.4 C15.9,45 16,44.7 16.1,44.3 C16.2,44 16.3,43.7 16.4,43.4 C16.6,42.8 16.9,42.4 17,42.1 C17.2,41.8 17.3,41.6 17.3,41.6 C17.3,41.6 17.2,41.8 17.2,42.1 C17.1,42.4 17,42.9 16.8,43.5 C16.7,43.8 16.7,44.1 16.6,44.4 C16.5,44.7 16.5,45.1 16.4,45.4 C16.4,45.8 16.3,46.1 16.3,46.5 C16.3,46.9 16.3,47.3 16.3,47.6 C16.3,48 16.3,48.4 16.4,48.7 C16.4,49.1 16.5,49.4 16.6,49.8 C16.7,50.5 16.9,51.2 17.1,51.7 C17.2,53 17.7,53.6 17.7,53.6 Z" id="Shape" fill="#B5987C"/>
            <path d="M30.2,60.3 C30.2,60.3 30,60.3 29.8,60.2 C29.6,60.1 29.2,59.9 28.9,59.5 C28.6,59.2 28.2,58.7 27.9,58.3 C27.6,57.8 27.3,57.3 27,56.7 C26.8,56.1 26.5,55.6 26.4,55 C26.2,54.5 26.1,53.9 26,53.5 C25.8,52.6 25.8,52 25.8,52 C25.8,52 26.1,52.6 26.4,53.4 C26.8,54.2 27.2,55.4 27.7,56.5 C27.9,57 28.2,57.6 28.5,58.1 C28.8,58.6 29,59 29.3,59.4 C29.6,59.8 29.8,60 30,60.2 C30.1,60.3 30.2,60.3 30.2,60.3 Z" id="Shape" fill="#B5987C"/>
            <path d="M34.1,58 C34.1,58 34.9,57.4 35.8,56.3 C36,56 36.3,55.7 36.6,55.4 C36.9,55.1 37.1,54.7 37.4,54.4 C37.9,53.7 38.4,52.9 38.8,52 C39,51.6 39.2,51.2 39.4,50.7 C39.6,50.3 39.7,49.8 39.8,49.4 C39.9,49 40,48.6 40.1,48.1 C40.2,47.7 40.2,47.3 40.3,47 C40.3,46.6 40.4,46.3 40.4,46 C40.4,45.7 40.4,45.5 40.4,45.2 C40.4,44.8 40.4,44.5 40.4,44.5 C40.4,44.5 40.4,44.7 40.5,45.2 C40.5,45.4 40.6,45.7 40.6,46 C40.6,46.3 40.6,46.6 40.6,47 C40.6,47.4 40.6,47.8 40.5,48.2 C40.5,48.6 40.4,49.1 40.3,49.5 C40.2,50 40.1,50.4 39.9,50.9 C39.7,51.4 39.6,51.8 39.3,52.3 C38.9,53.2 38.3,54 37.7,54.7 C37.1,55.4 36.5,56 36,56.5 C35,57.5 34.1,58 34.1,58 Z" id="Shape" fill="#B5987C"/>
            <path d="M41.4,53 C41.4,53 41.6,52.9 41.9,52.6 C42.2,52.4 42.7,52 43.2,51.5 C43.5,51.3 43.7,51 44,50.7 C44.2,50.4 44.5,50.1 44.7,49.7 C44.8,49.5 44.9,49.4 45.1,49.2 C45.2,49 45.3,48.8 45.4,48.6 C45.6,48.2 45.8,47.8 46,47.4 C46.2,47 46.3,46.6 46.4,46.1 C46.5,45.7 46.6,45.2 46.7,44.8 C46.8,44.4 46.8,44 46.9,43.6 C46.9,43.2 46.9,42.8 46.9,42.5 C47,41.8 46.9,41.2 46.9,40.8 C46.9,40.4 46.9,40.2 46.9,40.2 C46.9,40.2 47,40.4 47,40.8 C47.1,41.2 47.2,41.8 47.3,42.5 C47.3,42.8 47.4,43.2 47.4,43.6 C47.4,44 47.4,44.4 47.3,44.9 C47.2,45.3 47.1,45.8 47.1,46.2 C47,46.6 46.8,47.1 46.7,47.5 C46.5,47.9 46.3,48.4 46.1,48.8 C45.9,49.2 45.6,49.6 45.3,49.9 C45,50.3 44.7,50.6 44.4,50.9 C44.1,51.2 43.8,51.4 43.5,51.6 C42.9,52 42.4,52.3 42.1,52.5 C41.7,53 41.4,53 41.4,53 Z" id="Shape" fill="#B5987C"/>
            <path d="M51.9,46.5 C51.9,46.5 51.8,46 51.7,45.2 C51.6,44.4 51.4,43.4 51.2,42.3 C51,41.3 50.8,40.2 50.6,39.5 C50.5,39.1 50.4,38.8 50.3,38.6 C50.2,38.4 50.2,38.2 50.2,38.2 C50.2,38.2 50.6,38.6 51,39.3 C51.4,40 51.7,41.1 51.9,42.2 C52.1,43.3 52.1,44.4 52.1,45.2 C52,46 51.9,46.5 51.9,46.5 Z" id="Shape" fill="#B5987C"/>
            <path d="M56.8,40.8 C56.8,40.8 56.5,40.5 56.1,40.2 C55.7,39.8 55.2,39.2 54.6,38.7 C54.1,38.1 53.6,37.6 53.2,37.2 C53,37 52.8,36.9 52.7,36.8 C52.6,36.7 52.5,36.7 52.5,36.7 C52.5,36.7 52.6,36.7 52.8,36.7 C52.9,36.7 53,36.8 53.1,36.8 C53.2,36.8 53.3,36.9 53.5,37 C54,37.3 54.7,37.8 55.2,38.3 C55.7,38.9 56.2,39.5 56.5,40 C56.6,40.5 56.8,40.8 56.8,40.8 Z" id="Shape" fill="#B5987C"/>
            <path d="M63.3,33.7 C63.3,33.7 62.8,33.7 62,33.6 C61.2,33.5 60.2,33.2 59.3,32.8 C58.8,32.6 58.4,32.3 58,32 C57.6,31.7 57.2,31.5 56.9,31.2 C56.3,30.7 55.9,30.4 55.9,30.4 C55.9,30.4 56.4,30.6 57.1,30.9 C57.4,31.1 57.8,31.3 58.3,31.5 C58.7,31.7 59.1,32 59.6,32.2 C60.5,32.6 61.4,33 62.1,33.2 C62.8,33.6 63.3,33.7 63.3,33.7 Z" id="Shape" fill="#B5987C"/>
            <path d="M65,28.3 C65,28.3 64.6,28.5 63.8,28.6 C63.1,28.7 62.1,28.7 61.2,28.5 C60.7,28.4 60.3,28.3 59.9,28.1 C59.5,27.9 59.1,27.7 58.8,27.5 C58.5,27.3 58.3,27.1 58.2,26.9 C58.1,26.7 58,26.7 58,26.7 C58,26.7 58.1,26.7 58.3,26.8 C58.5,26.9 58.7,27 59.1,27.2 C59.4,27.3 59.8,27.5 60.2,27.6 C60.6,27.7 61,27.9 61.5,27.9 C62.4,28.1 63.3,28.2 64,28.3 C64.5,28.2 65,28.3 65,28.3 Z" id="Shape" fill="#B5987C"/>
          </g>
          <g transform="translate(30.000000, 3.000000)" id="Shape">
            <path d="M0.9,13 C0.9,13 6.6,2.1 17.1,0.2 C17.1,0.2 16.3,4.9 14.1,6.8 C14.1,6.8 16.9,4.6 17.4,3.6 C17.4,3.7 15.2,16.7 0.9,13 Z" fill="#EBDFD4"/>
            <path d="M4.4,13.8 C4.4,13.8 4.7,13.8 5.2,13.8 C5.7,13.8 6.4,13.7 7.2,13.5 C7.6,13.4 8.1,13.3 8.5,13.2 C9,13.1 9.4,12.9 9.9,12.7 C10.4,12.5 10.9,12.3 11.3,12 C11.8,11.7 12.3,11.5 12.7,11.1 C13.2,10.8 13.6,10.4 14,10 C14.4,9.7 14.7,9.2 15,8.8 C15.3,8.4 15.5,7.9 15.8,7.5 C16.1,7.1 16.2,6.7 16.4,6.3 C16.6,5.9 16.8,5.6 16.8,5.2 C16.9,4.9 17,4.6 17.1,4.4 C17.3,3.9 17.4,3.7 17.4,3.7 C17.4,3.7 17.4,4 17.3,4.5 C17.3,4.7 17.2,5 17.1,5.4 C17.1,5.8 16.9,6.1 16.8,6.5 C16.6,6.9 16.5,7.4 16.3,7.8 C16.1,8.2 15.9,8.7 15.5,9.2 C15.2,9.6 14.9,10.1 14.4,10.5 C14,10.9 13.6,11.3 13.1,11.7 C12.6,12.1 12.1,12.3 11.6,12.6 C11.1,12.9 10.6,13.1 10.1,13.3 C9.6,13.5 9.1,13.6 8.6,13.7 C8.1,13.8 7.7,13.9 7.2,13.9 C6.3,14 5.6,14 5.1,14 C4.6,13.9 4.4,13.8 4.4,13.8 Z" fill="#B5987C"/>
            <path d="M14.1,6.9 C14.1,6.9 14.3,6.5 14.7,5.9 C15,5.3 15.5,4.5 15.9,3.7 C16.3,2.9 16.6,2.1 16.8,1.4 C16.9,1.1 17,0.8 17.1,0.6 C17.2,0.4 17.2,0.3 17.2,0.3 C17.2,0.3 17.2,0.4 17.2,0.6 C17.2,0.8 17.2,1.1 17.2,1.5 C17.2,1.9 17.1,2.3 17,2.7 C16.9,3.1 16.7,3.6 16.5,4 C16.1,4.9 15.5,5.6 15.1,6.1 C14.5,6.6 14.1,6.9 14.1,6.9 Z" fill="#B5987C"/>
            <path d="M0.9,13 C0.9,13 1.4,12 2.3,10.7 C2.8,10 3.3,9.2 4,8.5 C4.7,7.7 5.4,6.9 6.2,6.1 C7,5.3 7.8,4.6 8.6,4 C9,3.7 9.4,3.4 9.8,3.1 C10.2,2.9 10.6,2.6 11,2.4 C11.4,2.2 11.7,2.1 12,1.9 C12.3,1.7 12.6,1.7 12.8,1.6 C13.3,1.5 13.5,1.4 13.5,1.4 C13.5,1.4 13.3,1.5 12.8,1.7 C12.6,1.8 12.3,1.9 12,2.1 C11.7,2.3 11.4,2.5 11.1,2.7 C10.8,2.9 10.4,3.2 10,3.5 C9.6,3.8 9.3,4.1 8.9,4.4 C8.1,5 7.3,5.8 6.6,6.5 C5.8,7.3 5.1,8 4.4,8.8 C3.7,9.6 3.1,10.3 2.6,10.9 C2.1,11.5 1.7,12.1 1.3,12.4 C1.1,12.8 0.9,13 0.9,13 Z" fill="#B5987C"/>
          </g>
          <g transform="translate(0.000000, 26.000000)" id="Shape">
            <path d="M10.1,0.1 C4.8,4.7 -3.4,9.7 1.8,20.3 C1.8,20.3 3,15.7 5.4,15.2 C7.8,14.7 18.1,14.7 22,11.2 C25.9,7.7 19.5,8.2 17.1,8.7 C14.7,9.2 10.1,0.1 10.1,0.1 Z" fill="#FBBF3F"/>
            <path d="M1.9,20.3 C1.9,20.3 2.3,18.9 3.2,16.9 C3.4,16.4 3.7,15.9 4.1,15.3 C4.4,14.8 4.8,14.2 5.3,13.7 C5.7,13.2 6.3,12.7 6.9,12.2 C7.5,11.8 8.4,11.5 9,11.4 C10.5,11.2 11.9,11.2 13.3,11.2 C14.7,11.2 15.9,11.2 17,11.2 C17.5,11.2 18,11.2 18.5,11.1 C18.9,11.1 19.3,11 19.6,10.9 C19.9,10.8 20.1,10.8 20.3,10.7 C20.5,10.6 20.5,10.6 20.5,10.6 C20.5,10.6 20.2,10.8 19.6,11 C19.3,11.1 18.9,11.2 18.5,11.3 C18.1,11.4 17.6,11.5 17,11.5 C15.9,11.6 14.6,11.7 13.3,11.7 C11.9,11.7 10.5,11.8 9.1,12 C8.3,12.1 7.8,12.3 7.2,12.6 C6.6,13 6.1,13.4 5.7,14 C4.8,15 4.1,16.1 3.6,17 C3.1,17.9 2.6,18.7 2.4,19.3 C2,20 1.9,20.3 1.9,20.3 Z" fill="#B38637"/>
            <path d="M8.4,5.3 C8.4,5.3 8.6,5.2 8.9,5.2 C9.2,5.2 9.6,5.1 10,5.3 C10.2,5.4 10.4,5.5 10.6,5.6 C10.8,5.7 10.9,5.9 11,6.1 C11.1,6.4 11.1,6.6 11.1,6.6 C11.1,6.6 11.1,6.6 11,6.5 C11,6.4 10.9,6.3 10.8,6.2 C10.7,6.1 10.6,6 10.4,6 C10.3,5.9 10.1,5.9 9.9,5.8 C9.6,5.7 9.2,5.6 8.9,5.5 C8.6,5.3 8.4,5.3 8.4,5.3 Z" fill="#B38637"/>
            <path d="M0.7,18 C0.7,18 0.6,17.7 0.5,17.1 C0.4,16.5 0.2,15.7 0.1,14.6 C-1.04083409e-16,13.6 -1.04083409e-16,12.3 0.2,11.1 C0.3,10.5 0.6,9.8 0.8,9.2 C1.1,8.6 1.5,8 1.9,7.4 C2.8,6.3 3.8,5.4 4.7,4.5 C5.6,3.6 6.6,2.9 7.4,2.2 C9,0.9 10.1,0.1 10.1,0.1 C10.1,0.1 9.1,1 7.6,2.4 C6.9,3.1 6,3.9 5.1,4.8 C4.2,5.7 3.2,6.7 2.4,7.7 C1.6,8.7 1,9.9 0.7,11.1 C0.6,11.7 0.5,12.3 0.4,12.9 C0.4,13.5 0.4,14 0.4,14.5 C0.4,15.5 0.5,16.4 0.6,17 C0.6,17.6 0.7,18 0.7,18 Z" fill="#B38637"/>
          </g>
        </g>
        <g id="Group" transform="translate(169.000000, 74.000000)">
          <path d="M1.6,1.3 C4.4,-1.4 25.5,7.5 35.2,13.8 C47.1,21.5 87.3,46.9 103.4,15.2 C103.4,15.2 103.9,27.7 87.6,32.4 C66.8,38.3 40.1,24.8 27.7,18.2 C21,14.7 15.7,11.4 10.3,10.1 C4.8,8.7 -1.6,4.4 1.6,1.3 Z" id="Shape" fill="#704E2C"/>
          <path d="M21.1,14.5 C21.1,14.5 21.4,14.6 22,14.9 C22.6,15.2 23.4,15.6 24.5,16.2 C26.7,17.4 29.8,19 33.5,20.9 C37.3,22.8 41.7,24.9 46.6,26.9 C51.5,28.9 56.8,30.7 62.3,31.9 C65,32.5 67.8,32.9 70.5,33.2 C73.2,33.4 76,33.5 78.6,33.3 C83.8,33 88.7,31.9 92.5,30 C94.4,29.1 96,28 97.3,27 C98.6,25.9 99.6,24.8 100.4,23.9 C101.2,22.9 101.6,22.1 101.9,21.5 C102.2,20.9 102.3,20.6 102.3,20.6 C102.3,20.6 102.2,20.9 101.9,21.5 C101.6,22.1 101.2,23 100.4,24 C99.7,25 98.7,26.2 97.4,27.3 C96.1,28.5 94.5,29.5 92.6,30.5 C90.7,31.5 88.5,32.3 86.2,32.9 C83.8,33.5 81.3,33.9 78.6,34 C75.9,34.2 73.2,34.2 70.4,33.9 C67.6,33.7 64.8,33.2 62.1,32.6 C56.6,31.4 51.2,29.5 46.3,27.5 C41.4,25.5 37,23.3 33.2,21.3 C29.5,19.3 26.4,17.5 24.3,16.3 C23.2,15.7 22.4,15.2 21.8,14.9 C21.4,14.6 21.1,14.5 21.1,14.5 Z" id="Shape" fill="#423118"/>
          <path d="M5.4,1.1 C5.4,1.1 5.8,1.1 6.6,1.3 C7.4,1.4 8.5,1.7 9.8,2.1 C12.6,2.9 16.5,4.4 21,6.3 C23.3,7.3 25.7,8.4 28.3,9.6 C30.9,10.8 33.5,12.2 36.2,13.8 C38.8,15.4 41.5,17.1 44.4,18.7 C47.2,20.3 50.1,21.8 53.1,23.2 C59,26 65.3,28.3 71.3,29.4 C74.3,30 77.3,30.2 80.1,30.2 C82.9,30.1 85.6,29.7 87.9,29 C90.2,28.3 92.3,27.3 94,26.2 C95.7,25.1 97,24 98,22.9 C99,21.9 99.7,21 100.2,20.4 C100.7,19.8 100.9,19.5 100.9,19.5 C100.9,19.5 100.7,19.8 100.2,20.5 C99.7,21.1 99,22 98,23.1 C97,24.1 95.7,25.3 94,26.5 C92.3,27.6 90.3,28.7 87.9,29.5 C85.5,30.3 82.8,30.7 80,30.8 C77.1,30.9 74.1,30.7 71.1,30.1 C65,29 58.7,26.7 52.7,24 C49.7,22.6 46.8,21.1 43.9,19.5 C41.1,17.9 38.3,16.2 35.7,14.6 C33.1,13 30.4,11.6 27.9,10.3 C25.4,9 23,7.9 20.7,6.9 C16.2,4.9 12.4,3.3 9.6,2.4 C8.2,1.9 7.1,1.6 6.4,1.5 C5.8,1.1 5.4,1.1 5.4,1.1 Z" id="Shape" fill="#423118"/>
        </g>
        <g id="Group" transform="translate(266.000000, 75.000000)">
          <path d="M4.1,18.8 C0.7,17.2 -0.9,10.5 2.8,8.1 C2.8,8.1 1.5,10.1 2.6,12.2 C2.6,12.2 1.8,7.9 7.3,6.1 C12.7,4.3 10.7,0.9 10.7,0.9 C10.7,0.9 14.8,3.5 13.5,8.5 C13.5,8.5 15.1,5.2 14.9,3.5 C14.9,3.5 18.4,12.5 12.9,16.5 C9,19.3 6.3,19.9 4.1,18.8 Z" id="Shape" fill="#BD8F33"/>
          <path d="M6.1,19.3 C6.1,19.3 6.4,19.3 7,19.1 C7.3,19 7.6,19 8,18.8 C8.4,18.7 8.8,18.5 9.3,18.4 C9.8,18.2 10.3,18 10.8,17.7 C11.1,17.6 11.3,17.4 11.5,17.2 C11.7,17 12,16.9 12.2,16.7 C12.4,16.5 12.7,16.3 12.9,16.1 C13.1,15.9 13.3,15.6 13.5,15.4 C13.7,15.2 13.9,14.9 14.1,14.6 C14.3,14.3 14.5,14.1 14.6,13.8 L15,12.9 C15.1,12.6 15.2,12.3 15.3,12 L15.4,11.5 C15.4,11.3 15.4,11.2 15.5,11 C15.5,10.7 15.6,10.4 15.6,10.1 C15.7,9.5 15.6,8.9 15.6,8.3 C15.6,7.7 15.5,7.2 15.4,6.7 C15.3,6.2 15.3,5.7 15.2,5.3 C15.1,4.9 15,4.6 15,4.3 C14.9,3.7 14.8,3.4 14.8,3.4 C14.8,3.4 14.9,3.7 15.1,4.3 C15.2,4.6 15.3,4.9 15.4,5.3 C15.6,5.7 15.7,6.1 15.7,6.6 C15.8,7.1 16,7.6 16,8.2 C16,8.8 16.1,9.4 16.1,10.1 C16.1,10.4 16,10.8 16,11.1 C16,11.3 16,11.4 15.9,11.6 L15.8,12.1 C15.7,12.4 15.6,12.8 15.5,13.1 L15.1,14.1 C15,14.4 14.8,14.7 14.6,15 C14.4,15.3 14.2,15.6 14,15.8 C13.8,16 13.5,16.3 13.3,16.5 C13,16.7 12.8,16.9 12.5,17.1 C12.3,17.3 12,17.5 11.7,17.6 C11.4,17.8 11.2,17.9 10.9,18 C10.4,18.3 9.8,18.4 9.4,18.6 C8.9,18.7 8.5,18.9 8,18.9 C7.6,19 7.2,19 6.9,19.1 C6.6,19.1 6.4,19.1 6.2,19.1 C6.2,19.3 6.1,19.3 6.1,19.3 Z" id="Shape" fill="#704E2C"/>
          <path d="M2.4,17.5 C2.4,17.5 2.3,17.4 2,17.2 C1.8,17 1.5,16.7 1.2,16.3 C0.9,15.9 0.6,15.4 0.4,14.7 C0.3,14.4 0.2,14.1 0.1,13.7 C-5.68434189e-14,13.4 -5.68434189e-14,13 -5.68434189e-14,12.7 C-5.68434189e-14,12.3 0.1,12 0.1,11.7 C0.2,11.4 0.3,11 0.4,10.7 C0.6,10.4 0.7,10.1 0.9,9.9 C1.1,9.7 1.2,9.4 1.4,9.2 C1.7,8.8 2.1,8.6 2.3,8.4 C2.5,8.2 2.7,8.1 2.7,8.1 C2.7,8.1 2.6,8.2 2.4,8.5 C2.3,8.6 2.2,8.7 2.1,8.9 C2,9.1 1.9,9.3 1.7,9.5 C1.5,9.7 1.4,9.9 1.3,10.2 C1.2,10.4 1.1,10.7 0.9,11 C0.8,11.3 0.7,11.6 0.7,11.9 C0.6,12.2 0.6,12.5 0.6,12.8 C0.6,14.1 1,15.3 1.4,16.2 C1.6,16.6 1.8,17 2,17.2 C2.3,17.3 2.4,17.5 2.4,17.5 Z" id="Shape" fill="#704E2C"/>
          <path d="M2.6,12.2 C2.6,12.2 2.6,12 2.5,11.5 C2.5,11.1 2.4,10.5 2.6,9.7 C2.8,9 3.2,8.2 3.9,7.5 C4.6,6.8 5.4,6.3 6.3,5.9 C7.2,5.5 8.1,5.1 8.8,4.7 C9.6,4.3 10.2,3.8 10.5,3.2 C10.6,2.9 10.7,2.6 10.7,2.3 C10.7,2 10.7,1.8 10.7,1.6 C10.6,1.2 10.6,0.9 10.6,0.9 C10.6,0.9 10.6,1 10.7,1.1 C10.7,1.2 10.8,1.4 10.9,1.6 C11,1.8 11,2.1 11.1,2.4 C11.1,2.7 11.1,3.1 11,3.4 C10.9,3.8 10.6,4.1 10.3,4.4 C10,4.7 9.6,5 9.2,5.2 C8.4,5.7 7.5,6.1 6.7,6.5 C5.8,6.9 5,7.3 4.4,7.9 C4.1,8.2 3.8,8.5 3.6,8.8 C3.4,9.1 3.2,9.5 3.1,9.8 C2.9,10.5 2.8,11.1 2.8,11.5 C2.6,11.9 2.6,12.2 2.6,12.2 Z" id="Shape" fill="#704E2C"/>
          <path d="M13.4,8.5 C13.4,8.5 13.5,8.1 13.5,7.5 C13.5,6.9 13.5,6.2 13.3,5.5 C13.2,5.1 13.1,4.8 13,4.5 C12.9,4.2 12.8,3.9 12.6,3.6 C12.5,3.3 12.4,3.1 12.3,2.9 C12.2,2.7 12.2,2.6 12.2,2.6 C12.2,2.6 12.3,2.7 12.4,2.8 C12.5,2.9 12.7,3.1 12.9,3.3 C13.3,3.8 13.7,4.5 13.9,5.3 C14,5.7 14,6.1 14,6.5 C14,6.9 13.9,7.2 13.8,7.5 C13.7,8.2 13.4,8.5 13.4,8.5 Z" id="Shape" fill="#704E2C"/>
        </g>
        <g id="Group" transform="translate(63.000000, 89.000000)">
          <path d="M11.8,1 C8.4,0.1 4.3,3 2.6,4.7 C-4.3,11.7 10.1,40 18,44 C23.6,46.8 32.4,39.5 32.7,34.1 C33,28.7 30.2,21.7 26,15.2 C27.5,15.9 29.1,16.8 29.1,16.8 C28,12.1 22.4,9.3 22.4,9.3 C24.3,9.5 27,10.8 27,10.8 C21.8,4 15.1,1.8 11.8,1 Z" id="Shape" fill="#704E2C"/>
          <path d="M22.4,9.2 C22.4,9.2 22.6,9.2 22.8,9.3 C23.1,9.4 23.5,9.5 23.9,9.8 C24.3,10 24.8,10.4 25.3,10.8 C25.8,11.2 26.2,11.7 26.6,12.2 C27,12.7 27.4,13.3 27.7,13.8 C28,14.3 28.3,14.8 28.5,15.3 C28.7,15.7 28.8,16.1 28.9,16.4 C29,16.7 29,16.8 29,16.8 C29,16.8 28.9,16.7 28.8,16.4 C28.6,16.2 28.4,15.8 28.2,15.4 C27.9,15 27.6,14.5 27.3,14 C27.1,13.7 26.9,13.5 26.8,13.3 C26.6,13 26.4,12.8 26.2,12.6 C25.4,11.6 24.5,10.7 23.8,10.1 C23,9.5 22.4,9.2 22.4,9.2 Z" id="Shape" fill="#423118"/>
          <path d="M27,10.7 C27,10.7 26.5,10.1 25.7,9.3 C24.9,8.5 23.8,7.5 22.6,6.5 C22,6 21.4,5.6 20.8,5.2 C20.2,4.8 19.7,4.4 19.2,4.1 C18.7,3.8 18.3,3.5 18,3.3 C17.7,3.1 17.6,3 17.6,3 C17.6,3 17.8,3.1 18.1,3.2 C18.4,3.3 18.9,3.5 19.4,3.8 C19.9,4 20.5,4.4 21.1,4.8 C21.7,5.2 22.4,5.6 23,6.1 C23.6,6.6 24.2,7.1 24.7,7.6 C25.2,8.1 25.7,8.6 26,9.1 C26.7,10 27,10.7 27,10.7 Z" id="Shape" fill="#423118"/>
        </g>
        <path d="M76,128.4 C76,128.4 75.3,127.7 74.4,126.6 C73.9,126 73.4,125.4 72.9,124.7 C72.4,124 71.8,123.2 71.3,122.4 C70.8,121.6 70.3,120.7 69.9,120 C69.7,119.6 69.5,119.2 69.3,118.8 C69.1,118.4 69,118.1 68.8,117.7 C68.5,117 68.3,116.5 68.2,116.1 C68.1,115.7 68,115.5 68,115.5 C68,115.5 68.1,115.7 68.3,116.1 C68.5,116.5 68.8,117 69.1,117.6 C69.4,118.2 69.9,118.9 70.3,119.7 C70.7,120.5 71.2,121.3 71.7,122.1 C72.2,122.9 72.7,123.7 73.2,124.4 C73.7,125.1 74.1,125.8 74.5,126.4 C75.4,127.6 76,128.4 76,128.4 Z" id="Shape" fill="#423118"/>
        <g id="Group" transform="translate(79.000000, 145.000000)">
          <path d="M19,10.9 C19.5,9.9 18.5,8.1 18.5,8.1 C19.3,8.3 20.3,9.6 20.2,10.9 L19,10.9 Z" id="Shape" fill="#3B342D"/>
          <path d="M16.1,10.8 C16.3,9.7 14.8,8.2 14.8,8.2 C15.7,8.1 16.9,9.2 17.2,10.4 L16.1,10.8 Z" id="Shape" fill="#3B342D"/>
          <path d="M13.6,11.5 C13.8,10.4 12.3,8.9 12.3,8.9 C13.2,8.8 14.4,9.9 14.7,11.1 L13.6,11.5 Z" id="Shape" fill="#3B342D"/>
          <path d="M18.4,11 C18.4,11 17.1,9.5 16.3,10.3 C16.1,10.6 15.9,10.8 15.7,11 C14.7,10.5 13.8,10.7 13.3,11 C11.5,10.1 9.1,8.6 8.4,6.9 C5.3,-1.3 1.1,-0.1 0.3,4.7 C0.3,4.7 3.1,10.5 4.6,12.8 C6,15.1 7.8,19.5 12.1,19.6 C16.3,19.7 15.4,18 15.4,18 C15.4,18 18.6,18.1 19.1,15.8 C19.1,15.8 20.7,15.5 21.2,13 C21.6,10.6 18.6,9.8 18.4,11 Z" id="Shape" fill="#FBBF3F"/>
          <path d="M8.1,15.4 C8.1,15.4 8.2,15.5 8.4,15.6 C8.6,15.7 8.9,15.9 9.2,16 C9.8,16.4 10.7,16.8 11.6,17.1 C12.5,17.4 13.4,17.7 14.1,17.9 C14.8,18.1 15.3,18.2 15.3,18.2 C15.3,18.2 14.8,18.3 14,18.3 C13.2,18.3 12.2,18.1 11.3,17.8 C10.3,17.4 9.5,16.9 8.9,16.4 C8.6,16.2 8.4,15.9 8.3,15.8 C8.2,15.5 8.1,15.4 8.1,15.4 Z" id="Shape" fill="#C9982F"/>
          <path d="M11,12.9 C11.1,13 11.1,13.1 11.2,13.2 C11.4,13.4 11.7,13.5 12.1,13.7 C12.8,14.1 13.8,14.5 14.9,14.9 C15.9,15.3 16.9,15.7 17.7,15.9 C18.1,16 18.4,16.1 18.7,16 C18.9,16 19.1,15.9 19.1,15.9 C19.1,15.9 19,16 18.8,16.1 C18.6,16.2 18.2,16.2 17.8,16.2 C16.9,16.1 15.8,15.8 14.8,15.4 C13.8,15 12.8,14.4 12.1,13.9 C11.8,13.6 11.5,13.4 11.4,13.2 C11,13.1 11,12.9 11,12.9 Z" id="Shape" fill="#C9982F"/>
          <path d="M18.4,11 C18.5,11.6 18.5,12.2 18.5,12.7 L18.5,13 L18.2,12.9 C17.2,12.7 16.3,12.4 15.4,11.9 C16.4,11.8 17.4,12 18.3,12.3 L17.9,12.6 C18,12.1 18.1,11.5 18.4,11 Z" id="Shape" fill="#C9982F"/>
        </g>
        <path d="M79.7,125.9 C76.4,130.9 75.8,139.9 76.5,151.2 C76.7,154.2 80.6,159.4 80.6,159.4 C80.6,158.2 80.2,156 80.2,156 C80.9,157.9 83.6,158.5 83.6,158.5 C83.1,156.1 82.9,155.4 82.9,155.4 C84.8,156 85.3,157.6 85.3,157.6 C85.5,156 85.1,153.8 85.1,153.8 C86.7,156.4 88.6,156.3 88.6,156.3 C87.7,155.9 87.3,152.2 87.3,152.2 C89.1,153.4 90.7,153.7 90.7,153.7 C90,152.1 88.8,150 88.8,150 C90.2,150.8 92.2,151 92.2,151 C91,149.4 89.6,148.1 89.4,146.2 C89.2,144.3 96.3,126.9 94.1,122.7 C92,118.4 84.4,119 79.7,125.9 Z" id="Shape" fill="#704E2C"/>
        <path d="M80.7,159.3 C80.7,159.3 80.4,158.9 79.8,158.1 C79.2,157.3 78.4,156.3 77.6,154.8 C77.2,154.1 76.8,153.3 76.6,152.3 C76.4,151.4 76.3,150.4 76.2,149.4 C76,147.4 75.8,145.2 75.8,143 C75.7,140.8 75.8,138.6 76.1,136.6 C76.4,134.6 76.8,132.7 77.4,131.1 C78,129.5 78.6,128.3 79.1,127.5 C79.4,127.1 79.6,126.8 79.7,126.6 C79.9,126.4 79.9,126.3 79.9,126.3 C79.9,126.3 79.6,126.8 79.2,127.6 C78.8,128.4 78.2,129.7 77.7,131.2 C77.2,132.7 76.9,134.6 76.6,136.6 C76.4,138.6 76.3,140.8 76.3,142.9 C76.3,145.1 76.4,147.2 76.5,149.3 C76.6,150.3 76.6,151.3 76.8,152.2 C77,153.1 77.3,153.9 77.7,154.6 C78.4,156 79.2,157.2 79.7,157.9 C80.3,158.9 80.7,159.3 80.7,159.3 Z" id="Shape" fill="#423118"/>
        <g id="Group" transform="translate(115.000000, 68.000000)">
          <path d="M21.4,10.6 C13,26.3 11.3,49.7 15.2,63.7 C19.1,77.7 9.6,94.9 9.6,94.9 C9.6,94.9 1,98.9 0.3,101.2 C-1.1,106.5 9.8,107.8 14.6,106.9 C19.4,106 41.4,80 40,72.8 C38.6,65.6 35.2,60.6 43.8,53.2 C52.4,45.8 70.3,28.2 64.7,18.6 C59.1,9 34,-13 21.4,10.6 Z" id="Shape" fill="#704E2C"/>
          <path d="M18.4,17.8 C18.4,17.8 18,19 17.4,21 C16.8,23.1 16,26.1 15.2,29.7 C14.4,33.3 13.7,37.6 13.4,42.2 C13.2,44.5 13.1,46.9 13.2,49.3 C13.3,50.5 13.4,51.7 13.6,52.9 C13.8,54.1 14.1,55.3 14.3,56.5 C14.8,58.9 15.3,61.4 15.7,63.8 C16.1,66.2 16.4,68.6 16.5,70.9 C16.6,73.2 16.5,75.5 16.1,77.6 C15.7,79.7 15.2,81.7 14.6,83.4 C14,85.2 13.3,86.7 12.7,88.1 C12.1,89.5 11.5,90.7 11,91.6 C10,93.5 9.5,94.6 9.5,94.6 C9.5,94.6 10,93.5 10.9,91.5 C11.3,90.5 11.9,89.3 12.4,87.9 C13,86.5 13.6,84.9 14.1,83.2 C14.7,81.4 15.1,79.5 15.5,77.4 C15.8,75.3 15.9,73.1 15.8,70.8 C15.7,68.5 15.4,66.1 15,63.7 C14.6,61.3 14.1,58.9 13.6,56.5 C13.4,55.3 13.1,54.1 12.9,52.8 C12.7,51.6 12.6,50.3 12.6,49.1 C12.5,46.6 12.6,44.2 12.8,41.9 C13.2,37.3 14,33 14.8,29.4 C15.6,25.8 16.5,22.8 17.2,20.7 C17.9,18.9 18.4,17.8 18.4,17.8 Z" id="Shape" fill="#423118"/>
          <path d="M3.8,100.3 C3.8,100.3 3.6,100.5 3.3,100.8 C3,101.1 2.6,101.4 2.2,101.8 C1.8,102.1 1.4,102.5 1.1,102.7 C1,102.8 0.8,102.9 0.8,103 C0.7,103.1 0.7,103.1 0.7,103.1 C0.7,103.1 0.7,102.8 0.9,102.4 C1.1,102 1.4,101.5 1.9,101.2 C2.3,100.8 2.8,100.6 3.2,100.4 C3.5,100.4 3.8,100.3 3.8,100.3 Z" id="Shape" fill="#423118"/>
          <path d="M6.7,103.2 C6.7,103.2 6.5,103.4 6.3,103.7 C6.1,104 5.7,104.3 5.4,104.6 C5.1,104.9 4.7,105.2 4.5,105.4 C4.4,105.5 4.3,105.6 4.2,105.7 C4.1,105.8 4.1,105.8 4.1,105.8 C4.1,105.8 4.1,105.5 4.3,105.2 C4.4,104.9 4.7,104.4 5.1,104.1 C5.5,103.8 5.9,103.5 6.2,103.4 C6.5,103.2 6.7,103.2 6.7,103.2 Z" id="Shape" fill="#423118"/>
          <path d="M35.4,83.7 C35.4,83.7 35.5,83.5 35.8,83.2 C36,82.9 36.4,82.4 36.8,81.8 C37.6,80.6 38.5,78.7 39.2,76.3 C39.5,75.1 39.7,73.8 39.6,72.4 C39.6,72.1 39.5,71.7 39.5,71.3 C39.4,71 39.3,70.6 39.2,70.2 C39,69.5 38.7,68.8 38.4,68.1 C37.9,66.6 37.5,65 37.6,63.3 C37.6,61.6 38.1,59.9 38.9,58.4 C39.7,56.9 40.8,55.6 42,54.4 C43.2,53.2 44.5,52.3 45.7,51.2 C48,49.1 50.1,47.1 51.9,45.3 C53.7,43.5 55.1,42 56.1,41 C57.1,39.9 57.7,39.3 57.7,39.3 C57.7,39.3 57.2,39.9 56.2,41 C55.2,42.1 53.9,43.7 52.1,45.5 C50.4,47.3 48.3,49.4 46,51.5 C44.8,52.6 43.5,53.5 42.4,54.7 C41.2,55.8 40.2,57.1 39.4,58.6 C38.6,60 38.1,61.6 38.1,63.2 C38,64.8 38.3,66.4 38.9,67.8 C39.2,68.5 39.5,69.2 39.7,70 C39.8,70.4 39.9,70.8 39.9,71.1 C40,71.5 40,71.8 40,72.2 C40.1,73.7 39.8,75 39.5,76.3 C39.2,77.5 38.7,78.6 38.2,79.5 C37.7,80.4 37.3,81.2 36.8,81.8 C36.4,82.4 36,82.9 35.8,83.2 C35.6,83.5 35.4,83.7 35.4,83.7 Z" id="Shape" fill="#423118"/>
          <path d="M33.9,72.1 C33.9,72.1 34.1,72.5 34.2,73.1 C34.3,73.7 34.3,74.6 34.1,75.5 C34,75.7 34,75.9 33.9,76.1 C33.8,76.3 33.7,76.5 33.6,76.7 C33.5,76.9 33.4,77 33.3,77.2 C33.2,77.4 33.1,77.5 33,77.6 C32.8,77.9 32.6,78 32.4,78.1 C32.3,78.2 32.2,78.3 32.2,78.3 C32.2,78.3 32.2,78.2 32.3,78 C32.4,77.8 32.5,77.6 32.7,77.3 C32.8,77 33,76.7 33.1,76.3 C33.2,75.9 33.4,75.6 33.5,75.2 C33.7,74.4 33.8,73.6 33.9,73 C33.9,72.6 33.9,72.1 33.9,72.1 Z" id="Shape" fill="#423118"/>
        </g>
        <path d="M85.4,157.6 C85.4,157.6 85.4,157.3 85.3,157 C85.3,156.6 85.2,156.2 85.2,155.7 C85.2,155.2 85.2,154.8 85.2,154.4 C85.2,154.2 85.2,154.1 85.2,154 C85.2,153.9 85.2,153.8 85.2,153.8 C85.2,153.8 85.4,154 85.6,154.3 C85.8,154.6 85.9,155.1 85.9,155.6 C85.9,156.1 85.8,156.6 85.7,157 C85.5,157.4 85.4,157.6 85.4,157.6 Z" id="Shape" fill="#423118"/>
        <path d="M88.6,156.4 C88.6,156.4 88.3,156.3 88,155.9 C87.7,155.6 87.4,155 87.3,154.5 C87.1,153.9 87.1,153.4 87.1,152.9 C87.1,152.5 87.2,152.2 87.2,152.2 C87.2,152.2 87.2,152.3 87.3,152.4 C87.3,152.5 87.4,152.7 87.5,152.9 C87.6,153.3 87.8,153.8 87.9,154.3 C88,154.8 88.2,155.3 88.3,155.7 C88.5,156.1 88.6,156.4 88.6,156.4 Z" id="Shape" fill="#423118"/>
        <path d="M90.6,153.6 C90.6,153.6 90.4,153.4 90.2,153.1 C90,152.8 89.7,152.3 89.5,151.9 C89.3,151.4 89.1,151 89,150.6 C88.9,150.2 88.8,150 88.8,150 C88.8,150 89,150.2 89.3,150.4 C89.6,150.7 89.9,151.1 90.1,151.6 C90.3,152.1 90.5,152.6 90.6,153 C90.6,153.3 90.6,153.6 90.6,153.6 Z" id="Shape" fill="#423118"/>
        <path d="M92.2,151 C92.2,151 91.7,150.7 91.2,150.2 C90.9,149.9 90.6,149.6 90.3,149.1 C90,148.7 89.8,148.2 89.6,147.7 C89.4,147.2 89.3,146.6 89.3,146.1 C89.3,145.8 89.3,145.6 89.3,145.4 C89.3,145.2 89.4,144.9 89.4,144.7 C89.5,144.5 89.5,144.3 89.6,144.2 C89.7,144.1 89.8,143.9 89.8,143.8 C89.9,143.6 90,143.5 90,143.5 C90,143.5 90,143.6 89.9,143.9 C89.9,144 89.8,144.1 89.8,144.3 C89.8,144.5 89.8,144.6 89.7,144.8 C89.7,145 89.7,145.2 89.7,145.4 C89.7,145.6 89.7,145.8 89.7,146.1 C89.7,146.3 89.8,146.6 89.8,146.8 C89.8,147 89.9,147.3 90,147.5 C90.3,148.4 90.9,149.3 91.3,150 C91.9,150.6 92.2,151 92.2,151 Z" id="Shape" fill="#423118"/>
        <path d="M89.6,144.4 C89.6,144.4 89.8,143.8 90.1,142.7 C90.4,141.6 90.9,140 91.4,138.1 C91.9,136.2 92.5,134 93.1,131.6 C93.7,129.2 94.3,126.6 94.7,124 C94.9,122.7 95,121.4 94.9,120.2 C94.8,118.9 94.5,117.7 94.2,116.5 C93.9,115.3 93.5,114.2 93.1,113.2 C92.7,112.2 92.2,111.2 91.8,110.3 C91.3,109.4 90.9,108.6 90.5,108 C90.1,107.3 89.7,106.7 89.4,106.3 C89.1,105.8 88.8,105.5 88.6,105.2 C88.4,105 88.3,104.8 88.3,104.8 C88.3,104.8 88.4,104.9 88.6,105.2 C88.8,105.4 89.1,105.8 89.5,106.2 C90.2,107.1 91.2,108.4 92.2,110.2 C93.2,111.9 94.2,114 94.9,116.4 C95.2,117.6 95.5,118.9 95.7,120.2 C95.8,121.5 95.8,122.9 95.5,124.2 C95,126.8 94.4,129.4 93.8,131.8 C93.2,134.2 92.5,136.4 91.9,138.3 C90.6,141.9 89.6,144.4 89.6,144.4 Z" id="Shape" fill="#423118"/>
        <path d="M83.7,158.5 C83.7,158.5 83.7,158.3 83.5,158 C83.4,157.7 83.3,157.4 83.2,157 C83.1,156.6 83,156.3 83,156 C83,155.7 83,155.5 83,155.5 C83,155.5 83.2,155.6 83.3,155.9 C83.5,156.1 83.7,156.5 83.8,156.9 C83.9,157.3 84,157.7 83.9,158 C83.8,158.4 83.7,158.5 83.7,158.5 Z" id="Shape" fill="#423118"/>
        <g id="Group" transform="translate(90.000000, 31.000000)">
          <path d="M36.4,42.3 C43.4,41.9 41.7,39.9 41.7,39.9 C46.1,39.9 48.8,37.1 48.8,37.1 C54.1,36.5 54.1,33.9 54.1,33.9 C58.5,33.5 60.3,31.5 60.3,31.5 C65.6,32.1 69.6,29.5 69.6,29.5 C74,29.5 75.8,27.1 75.8,27.1 C83.4,27.3 85.6,23.7 85.6,23.7 C106.5,24.9 93.6,21.9 93.6,21.9 C116.7,20.5 97.6,18.1 97.6,18.1 C97.6,18.1 113.2,19.3 115.4,17.3 C117.6,15.3 101.6,14.5 101.6,14.5 C137.2,16.7 149.2,13.9 141.6,13.5 C134,13.1 106,11.5 106,11.5 C148.2,11.9 155.3,6.4 145.6,7.7 C135.8,9.1 103.4,8.7 103.4,8.7 C125.2,9.1 154.1,2.2 137.2,3.6 C120.3,5 102.1,6 102.1,6 C126.5,3 129.7,-2.1 111.9,1.5 C94.1,5.1 56.3,5.4 33.7,7.4 C11,9.4 14.1,25.2 14.1,25.2 C7.9,29.7 9.2,37.6 0.8,40 C0.8,40.3 29.8,42.7 36.4,42.3 Z" id="Shape" fill="#704E2C"/>
          <path d="M0.8,40.3 C0.8,40.3 1.1,40.2 1.6,40 C2.1,39.8 2.9,39.5 3.7,39 C4.5,38.5 5.4,37.8 6.1,36.9 C6.9,36 7.5,34.9 8,33.7 C8.6,32.6 9.1,31.4 9.7,30.3 C10.3,29.2 10.9,28.3 11.5,27.5 C11.8,27.1 12.1,26.8 12.4,26.5 C12.7,26.2 13,26 13.2,25.9 C13.4,25.7 13.6,25.6 13.8,25.6 C13.9,25.5 14,25.5 14,25.5 C14,25.5 13.7,25.6 13.3,26 C12.9,26.3 12.3,27 11.8,27.7 C10.7,29.3 9.6,31.6 8.5,33.9 C7.9,35 7.3,36.2 6.4,37.1 C5.6,38 4.6,38.7 3.7,39.2 C3.3,39.4 2.8,39.6 2.5,39.7 C2.1,39.8 1.8,39.9 1.5,40 C1.1,40.2 0.8,40.3 0.8,40.3 Z" id="Shape" fill="#423118"/>
          <path d="M15.1,27.2 C15.1,27.2 14.8,26.9 14.4,26.2 C14,25.5 13.6,24.3 13.6,22.8 C13.6,21.3 14.1,19.4 15.2,17.5 C16.2,15.6 17.7,13.7 19.8,12.1 C21.9,10.5 24.5,9.2 27.3,8.4 C28.7,8 30.3,7.7 31.9,7.6 C33.5,7.5 35,7.5 36.7,7.4 C43.2,7.1 50.1,6.7 56.9,6.3 C70.7,5.6 84.5,4.7 94.8,3.8 C100,3.4 104.3,3 107.2,2.6 C108.7,2.4 109.9,2.2 110.7,2.1 C111.5,1.9 111.9,1.8 111.9,1.8 C111.9,1.8 111.5,1.9 110.7,2.1 C109.9,2.3 108.7,2.5 107.2,2.7 C104.2,3.1 99.9,3.6 94.8,4.1 C84.5,5 70.7,6 56.9,6.8 C50,7.2 43.1,7.6 36.7,7.9 C35.1,8 33.5,8.1 31.9,8.1 C30.4,8.2 28.9,8.5 27.5,8.8 C24.7,9.6 22.1,10.8 20.1,12.4 C18.1,13.9 16.6,15.8 15.6,17.6 C14.6,19.4 14.1,21.2 14,22.7 C13.9,24.2 14.3,25.3 14.6,26.1 C14.9,26.8 15.2,27.2 15.1,27.2 Z" id="Shape" fill="#423118"/>
          <path d="M102.1,6.4 C102.1,6.4 103.5,6.1 105.5,5.7 C106.5,5.5 107.7,5.3 109,5 C110.3,4.8 111.7,4.5 113,4.2 C114.4,3.9 115.7,3.7 117,3.4 C118.3,3.1 119.5,2.8 120.5,2.5 C121,2.3 121.5,2.2 121.8,2 C122.2,1.8 122.5,1.7 122.8,1.5 C122.9,1.4 123,1.3 123,1.2 C123,1.1 122.9,1 122.9,1 C122.8,0.9 122.7,0.9 122.7,0.9 C122.7,0.9 122.8,0.9 122.9,1 C123,1 123.1,1.1 123.1,1.3 C123.1,1.4 123,1.6 122.9,1.7 C122.4,2.1 121.6,2.5 120.6,2.9 C118.6,3.6 115.9,4.3 113.1,4.9 C111.7,5.2 110.3,5.4 109,5.6 C107.7,5.8 106.5,6 105.4,6.1 C103.5,6.3 102.1,6.4 102.1,6.4 Z" id="Shape" fill="#423118"/>
          <path d="M105.9,9.1 C105.9,9.1 106.5,9.1 107.5,9.1 C108.5,9.1 109.9,9 111.6,8.9 C113.3,8.8 115.3,8.6 117.4,8.5 C119.5,8.3 121.8,8.1 124.1,7.8 C126.4,7.5 128.6,7.2 130.7,6.8 C131.8,6.6 132.8,6.5 133.7,6.3 C134.7,6.1 135.6,5.9 136.4,5.8 C137.2,5.6 138,5.5 138.7,5.3 C139.4,5.1 140,5 140.4,4.9 C141.4,4.6 141.9,4.4 141.9,4.4 C141.9,4.4 141.4,4.6 140.4,4.9 C139.4,5.2 138.1,5.6 136.4,6 C135.6,6.2 134.7,6.4 133.7,6.6 C132.7,6.8 131.7,7 130.7,7.2 C128.6,7.6 126.3,7.9 124.1,8.2 C123,8.4 121.8,8.5 120.7,8.6 C119.6,8.7 118.5,8.8 117.4,8.9 C115.3,9.1 113.3,9.1 111.5,9.2 C108.2,9.3 105.9,9.1 105.9,9.1 Z" id="Shape" fill="#423118"/>
          <path d="M106.1,11.9 C106.1,11.9 108.8,11.8 112.9,11.7 C114.9,11.6 117.3,11.5 119.9,11.4 C122.5,11.3 125.2,11.2 127.9,11 C130.6,10.9 133.4,10.7 135.9,10.5 C138.5,10.3 140.8,10.1 142.9,9.8 C143.9,9.7 144.8,9.5 145.7,9.4 C146.5,9.3 147.2,9.1 147.8,8.9 C148.4,8.7 148.8,8.6 149.1,8.4 C149.4,8.2 149.5,8.1 149.5,8.1 C149.5,8.1 149.4,8.2 149.1,8.4 C148.8,8.6 148.4,8.8 147.8,9 C147.2,9.2 146.5,9.4 145.7,9.6 C144.9,9.8 144,10 142.9,10.1 C140.9,10.4 138.5,10.7 135.9,10.9 C133.3,11.1 130.6,11.3 127.9,11.5 C125.2,11.6 122.4,11.7 119.9,11.8 C117.3,11.9 114.9,11.9 112.9,11.9 C110.8,11.9 109.1,11.9 107.9,11.9 C106.8,11.9 106.1,11.9 106.1,11.9 Z" id="Shape" fill="#423118"/>
          <path d="M103.9,15 C103.9,15 106.4,15 110.1,15.1 C112,15.1 114.1,15.2 116.5,15.2 C118.8,15.3 121.3,15.3 123.8,15.3 C126.3,15.3 128.8,15.3 131.1,15.3 C133.4,15.3 135.6,15.2 137.4,15.1 C138.3,15 139.2,15 139.9,14.9 C140.7,14.8 141.3,14.8 141.8,14.7 C142.9,14.5 143.5,14.4 143.5,14.4 C143.5,14.4 142.9,14.5 141.8,14.8 C141.3,14.9 140.6,15 139.9,15.1 C139.1,15.2 138.3,15.3 137.4,15.4 C136.5,15.5 135.5,15.5 134.4,15.6 C133.3,15.7 132.2,15.7 131,15.7 C128.7,15.7 126.2,15.8 123.7,15.8 C121.2,15.8 118.7,15.7 116.4,15.6 C114.1,15.5 111.9,15.4 110,15.3 C108.1,15.2 106.6,15.1 105.5,15 C104.5,15 103.9,15 103.9,15 Z" id="Shape" fill="#423118"/>
          <path d="M97.7,18.4 C97.7,18.4 98.8,18.4 100.5,18.4 C101.3,18.4 102.3,18.4 103.3,18.5 C104.3,18.5 105.4,18.5 106.5,18.5 C107.6,18.5 108.7,18.5 109.7,18.5 C110.2,18.5 110.7,18.5 111.2,18.4 C111.7,18.4 112.1,18.4 112.5,18.3 C112.9,18.2 113.3,18.2 113.6,18.2 C113.9,18.1 114.2,18.1 114.4,18 C114.9,17.9 115.1,17.8 115.1,17.8 C115.1,17.8 114.8,17.9 114.4,18.1 C114.2,18.2 113.9,18.3 113.6,18.4 C113.3,18.5 112.9,18.6 112.5,18.7 C112.1,18.8 111.6,18.8 111.2,18.9 C110.7,19 110.2,19 109.7,19 C108.7,19.1 107.6,19.1 106.4,19.1 C105.3,19.1 104.2,19 103.2,19 C102.2,18.9 101.2,18.8 100.4,18.8 C98.8,18.6 97.7,18.4 97.7,18.4 Z" id="Shape" fill="#423118"/>
          <path d="M93.7,22.2 C93.7,22.2 94.4,22.1 95.5,22 C96.6,21.9 98,21.7 99.4,21.6 C100.1,21.5 100.8,21.4 101.5,21.4 C102.2,21.3 102.8,21.2 103.3,21.2 C103.6,21.1 103.8,21.1 104,21.1 C104.2,21 104.4,21 104.5,21 C104.8,20.9 105,20.8 105,20.8 C105,20.8 104.9,20.9 104.6,21.1 C104.3,21.2 103.9,21.4 103.4,21.6 C102.9,21.7 102.3,21.9 101.6,22 C100.9,22.1 100.2,22.2 99.5,22.3 C98.8,22.4 98.1,22.4 97.4,22.5 C96.7,22.5 96.1,22.5 95.6,22.5 C94.4,22.2 93.7,22.2 93.7,22.2 Z" id="Shape" fill="#423118"/>
          <path d="M85.7,23.9 C85.7,23.9 86.5,23.9 87.6,23.9 C88.7,23.9 90.2,23.9 91.7,24 C92.4,24 93.2,24 93.9,24.1 C94.6,24.1 95.2,24.1 95.8,24.1 C96.1,24.1 96.3,24.1 96.6,24.1 C96.8,24.1 97,24 97.2,24 C97.4,24 97.5,23.9 97.6,23.9 C97.7,23.9 97.7,23.8 97.7,23.8 C97.7,23.8 97.7,23.8 97.6,23.9 C97.5,23.9 97.4,24.1 97.3,24.1 C97.1,24.1 97,24.2 96.7,24.3 C96.5,24.3 96.2,24.4 95.9,24.5 C95.3,24.6 94.7,24.7 94,24.7 C93.3,24.7 92.5,24.7 91.8,24.7 C91.1,24.7 90.3,24.6 89.6,24.6 C88.9,24.5 88.2,24.5 87.7,24.4 C86.4,24.1 85.7,23.9 85.7,23.9 Z" id="Shape" fill="#423118"/>
          <path d="M75.9,27.3 C75.9,27.3 76.5,27.2 77.4,27.1 C78.3,27 79.4,26.8 80.6,26.5 C81.2,26.4 81.7,26.2 82.2,26 C82.7,25.8 83.2,25.6 83.6,25.5 C84,25.3 84.3,25.1 84.5,25 C84.7,24.9 84.9,24.8 84.9,24.8 C84.9,24.8 84.8,24.9 84.6,25.1 C84.4,25.3 84.1,25.5 83.8,25.8 C83.4,26 83,26.3 82.4,26.5 C81.9,26.7 81.3,26.9 80.7,27 C80.1,27.1 79.5,27.2 79,27.3 C78.4,27.4 77.9,27.3 77.5,27.4 C76.5,27.4 75.9,27.3 75.9,27.3 Z" id="Shape" fill="#423118"/>
          <path d="M69.7,29.7 C69.7,29.7 70,29.6 70.5,29.5 C71,29.4 71.7,29.2 72.3,29 C72.9,28.8 73.6,28.6 74.1,28.5 C74.3,28.4 74.5,28.3 74.7,28.3 C74.8,28.3 74.9,28.2 74.9,28.2 C74.9,28.2 74.7,28.5 74.2,28.8 C74,28.9 73.7,29.1 73.4,29.2 C73.1,29.3 72.8,29.5 72.4,29.6 C71.7,29.8 71,29.8 70.5,29.8 C70,29.8 69.7,29.7 69.7,29.7 Z" id="Shape" fill="#423118"/>
          <path d="M60.4,31.6 C60.4,31.6 60.9,31.6 61.7,31.5 C62.1,31.5 62.5,31.4 63,31.4 C63.5,31.4 64,31.3 64.5,31.2 C65,31.1 65.5,31 65.9,31 C66.4,30.9 66.8,30.8 67.1,30.7 C67.5,30.6 67.8,30.5 68,30.4 C68.2,30.3 68.3,30.3 68.3,30.3 C68.3,30.3 68.2,30.4 68,30.5 C67.8,30.6 67.5,30.8 67.2,31 C66.8,31.2 66.4,31.4 66,31.5 C65.5,31.6 65,31.7 64.5,31.8 C64,31.9 63.5,31.9 63,31.9 C62.5,31.9 62.1,31.9 61.7,31.8 C60.9,31.8 60.4,31.6 60.4,31.6 Z" id="Shape" fill="#423118"/>
          <path d="M54.1,34 C54.1,34 54.4,33.9 54.9,33.7 C55.4,33.5 56,33.4 56.7,33.2 C57,33.1 57.3,33 57.6,32.9 C57.9,32.8 58.2,32.8 58.4,32.7 C58.6,32.6 58.8,32.6 59,32.5 C59.1,32.5 59.2,32.4 59.2,32.4 C59.2,32.4 59,32.7 58.5,33 C58.1,33.3 57.4,33.6 56.7,33.7 C56.4,33.8 56,33.9 55.7,33.9 C55.4,34 55.1,34 54.8,34 C54.5,34 54.1,34 54.1,34 Z" id="Shape" fill="#423118"/>
          <path d="M48.8,37.2 C48.8,37.2 49.1,37.1 49.7,37 C50,36.9 50.2,36.9 50.6,36.8 C50.9,36.7 51.2,36.6 51.5,36.5 C51.8,36.4 52.1,36.2 52.4,36.1 C52.7,36 52.9,35.8 53.1,35.6 C53.3,35.4 53.5,35.3 53.6,35.2 C53.7,35.1 53.8,35 53.8,35 C53.8,35 53.8,35.1 53.7,35.2 C53.6,35.3 53.5,35.5 53.3,35.8 C53.1,36 52.9,36.3 52.6,36.4 C52.3,36.6 52,36.8 51.6,36.9 C51.3,37 50.9,37.1 50.6,37.2 C50.3,37.3 49.9,37.3 49.7,37.3 C49.2,37.3 48.8,37.2 48.8,37.2 Z" id="Shape" fill="#423118"/>
          <path d="M41.7,39.9 C41.7,39.9 42.1,39.8 42.7,39.6 C43,39.5 43.3,39.4 43.7,39.3 C44.1,39.2 44.5,39.1 44.8,39 C45.6,38.8 46.3,38.5 46.9,38.3 C47.2,38.2 47.4,38.1 47.6,38 C47.8,37.9 47.9,37.9 47.9,37.9 C47.9,37.9 47.8,38 47.7,38.1 C47.6,38.2 47.4,38.4 47.1,38.6 C46.8,38.8 46.5,39 46.2,39.1 C45.8,39.3 45.5,39.4 45.1,39.6 C44.3,39.9 43.5,40 42.8,40 C42.1,40 41.7,39.9 41.7,39.9 Z" id="Shape" fill="#423118"/>
          <path d="M36.4,42.3 C36.4,42.3 36.7,42.2 37.3,42.1 C37.6,42.1 37.9,42 38.2,41.9 C38.5,41.8 38.9,41.8 39.2,41.7 C39.9,41.6 40.5,41.4 41,41.3 C41.2,41.2 41.4,41.1 41.6,41 C41.7,40.9 41.8,40.9 41.8,40.9 C41.8,40.9 41.8,41 41.7,41.1 C41.6,41.2 41.4,41.4 41.2,41.6 C41,41.8 40.7,41.9 40.4,42 C40.1,42.1 39.7,42.2 39.4,42.3 C38.7,42.4 38,42.5 37.5,42.4 C36.7,42.4 36.4,42.3 36.4,42.3 Z" id="Shape" fill="#423118"/>
          <path d="M16.6,39.3 C16.6,39.3 17.1,39.2 17.8,39.1 C18.5,39 19.4,38.9 20.3,38.8 C20.5,38.8 20.7,38.7 20.9,38.7 C21.1,38.7 21.3,38.5 21.3,38.5 C21.3,38.6 21.3,38.4 21.1,38.3 C21,38.2 20.8,38.1 20.7,38 C20.1,37.7 19.7,37.4 19.7,37.4 C19.7,37.4 19.8,37.4 20,37.5 C20.2,37.5 20.5,37.6 20.8,37.7 C21,37.8 21.2,37.8 21.3,37.9 C21.4,37.9 21.5,38 21.6,38.1 C21.6,38.2 21.7,38.2 21.7,38.3 C21.7,38.4 21.7,38.5 21.7,38.6 C21.6,38.8 21.5,38.9 21.4,39 C21.3,39.1 21.2,39.1 21,39.2 C20.8,39.3 20.5,39.3 20.3,39.4 C19.4,39.6 18.4,39.5 17.7,39.5 C17,39.4 16.6,39.3 16.6,39.3 Z" id="Shape" fill="#52391E"/>
          <path d="M21.6,38.1 C21.6,38.1 22,38 22.6,37.8 C22.9,37.7 23.3,37.6 23.7,37.5 C24.1,37.4 24.5,37.3 24.9,37.1 C25.1,37 25.3,36.9 25.4,36.8 C25.5,36.7 25.5,36.7 25.4,36.6 C25.2,36.4 24.9,36.2 24.6,36 C24.3,35.9 24.1,35.7 23.9,35.6 C23.7,35.5 23.6,35.5 23.6,35.5 C23.6,35.5 23.7,35.5 23.9,35.5 C24.1,35.5 24.4,35.6 24.7,35.7 C24.9,35.7 25,35.8 25.2,35.9 C25.4,36 25.6,36.1 25.8,36.3 C25.9,36.4 26,36.5 26,36.7 C26,36.9 25.9,37.1 25.8,37.2 C25.6,37.4 25.4,37.5 25.2,37.6 C24.3,38 23.5,38.1 22.8,38.1 C22,38.1 21.6,38.1 21.6,38.1 Z" id="Shape" fill="#52391E"/>
          <path d="M21.8,31 C21.8,31 22.3,30.9 23.1,30.8 C23.5,30.7 24,30.7 24.5,30.6 C25,30.5 25.5,30.4 26,30.3 C26.2,30.2 26.5,30.2 26.6,30.1 C26.6,30.1 26.6,30.2 26.6,30.1 C26.6,30.1 26.5,30 26.4,29.9 C26,29.7 25.6,29.5 25.2,29.3 C24.4,29 23.9,28.8 23.9,28.8 C23.9,28.8 24.4,28.8 25.3,29 C25.7,29.1 26.2,29.2 26.7,29.4 C26.8,29.5 27,29.5 27.1,29.7 C27.2,29.8 27.2,29.9 27.2,30.1 C27.2,30.3 27.1,30.4 27,30.4 C26.7,30.6 26.4,30.7 26.1,30.8 C25,31 23.9,31.1 23.1,31.1 C22.4,31 21.8,31 21.8,31 Z" id="Shape" fill="#52391E"/>
          <path d="M28.9,34.2 C28.9,34.2 29.4,34.1 30.1,34 C30.4,34 30.8,33.9 31.3,33.9 C31.7,33.8 32.2,33.8 32.6,33.7 C32.8,33.7 33,33.6 33.2,33.5 C33.3,33.4 33.3,33.5 33.3,33.4 C33.1,33.2 32.7,32.9 32.4,32.8 C32.1,32.6 31.8,32.5 31.7,32.4 C31.5,32.3 31.4,32.2 31.4,32.2 C31.4,32.2 31.9,32.3 32.5,32.5 C32.7,32.6 32.8,32.6 33,32.7 C33.2,32.8 33.4,32.9 33.6,33.1 C33.7,33.2 33.8,33.4 33.8,33.6 C33.7,33.8 33.6,33.9 33.4,34 C33.1,34.1 32.9,34.2 32.7,34.3 C30.7,34.6 28.9,34.2 28.9,34.2 Z" id="Shape" fill="#52391E"/>
          <path d="M31.5,32.1 C31.5,32.1 32,32 32.7,31.9 C33,31.9 33.4,31.8 33.9,31.8 C34.3,31.7 34.8,31.7 35.2,31.6 C35.4,31.6 35.6,31.5 35.8,31.4 C35.9,31.4 35.9,31.3 35.9,31.3 C35.8,31.2 35.7,31.1 35.5,30.9 C35.3,30.8 35.2,30.7 35,30.6 C34.7,30.4 34.4,30.3 34.3,30.2 C34.1,30.1 34,30 34,30 C34,30 34.1,30 34.3,30.1 C34.5,30.2 34.8,30.2 35.1,30.3 C35.3,30.4 35.4,30.4 35.6,30.5 C35.8,30.6 36,30.7 36.2,30.9 C36.3,31 36.4,31.3 36.3,31.5 C36.2,31.7 36,31.8 35.9,31.8 C35.6,31.9 35.4,32 35.2,32 C33.4,32.5 31.5,32.1 31.5,32.1 Z" id="Shape" fill="#52391E"/>
          <path d="M28.9,24.6 C28.9,24.6 29.5,24.5 30.5,24.3 C31,24.2 31.5,24.1 32.1,23.9 C32.7,23.7 33.3,23.6 33.8,23.3 C33.9,23.2 34,23.2 34.1,23.1 C34.2,23 34.2,23 34.1,23 C34,22.9 33.8,22.7 33.5,22.6 C33,22.4 32.5,22.2 32,22.1 C31.1,21.8 30.5,21.7 30.5,21.7 C30.5,21.7 30.7,21.7 30.9,21.7 C31.2,21.7 31.6,21.7 32,21.8 C32.5,21.9 33,22 33.6,22.2 C33.9,22.3 34.2,22.4 34.5,22.8 C34.6,23 34.6,23.4 34.4,23.5 C34.3,23.7 34.1,23.8 34,23.9 C33.4,24.2 32.8,24.4 32.2,24.5 C31.6,24.6 31,24.7 30.6,24.7 C29.5,24.7 28.9,24.6 28.9,24.6 Z" id="Shape" fill="#52391E"/>
          <path d="M26.9,21.9 C26.9,21.9 27.6,21.8 28.5,21.6 C29,21.5 29.6,21.4 30.2,21.3 C30.8,21.2 31.5,21.1 32.1,21 C32.3,21 32.4,20.9 32.5,20.9 C32.6,20.9 32.8,20.7 32.7,20.8 C32.7,20.9 32.7,20.9 32.7,20.9 L32.6,20.8 C32.5,20.7 32.4,20.7 32.2,20.6 C31.7,20.4 31.1,20.2 30.6,20.1 C29.7,19.8 29,19.6 29,19.6 C29,19.6 29.7,19.6 30.7,19.8 C31.2,19.9 31.8,20 32.4,20.2 C32.6,20.3 32.7,20.3 32.9,20.4 C33,20.4 33.1,20.5 33.2,20.6 C33.3,20.7 33.4,20.9 33.3,21.1 C33.1,21.4 32.9,21.5 32.8,21.6 C32.6,21.7 32.5,21.7 32.3,21.8 C31,22.1 29.6,22.1 28.6,22.2 C27.5,22 26.9,21.9 26.9,21.9 Z" id="Shape" fill="#52391E"/>
          <path d="M40.5,17.4 C40.5,17.4 41.1,17.3 42,17.1 C42.5,17 43,16.9 43.6,16.8 C44.2,16.7 44.8,16.6 45.3,16.4 C45.4,16.4 45.6,16.3 45.7,16.2 C45.8,16.2 45.9,16 45.8,16.1 C45.8,16.2 45.8,16 45.6,16 C45.5,15.9 45.4,15.9 45.2,15.8 C44.7,15.6 44.2,15.4 43.7,15.3 C42.8,15.1 42.2,14.9 42.2,14.9 C42.2,14.9 42.8,14.9 43.8,15 C44.3,15.1 44.8,15.1 45.4,15.3 C45.5,15.4 45.7,15.4 45.9,15.5 C46,15.6 46.3,15.7 46.3,16 C46.3,16.4 46,16.5 45.9,16.6 C45.7,16.7 45.6,16.8 45.4,16.8 C44.2,17.2 42.9,17.3 42,17.3 C41.2,17.4 40.5,17.4 40.5,17.4 Z" id="Shape" fill="#52391E"/>
          <path d="M45.9,22.8 C45.9,22.8 46.4,22.6 47.1,22.4 C47.5,22.3 47.9,22.2 48.3,22.1 C48.7,22 49.2,21.8 49.7,21.7 C49.9,21.6 50.1,21.4 50.1,21.5 L50.1,21.6 C50.1,21.6 50.1,21.6 50,21.5 C49.9,21.4 49.8,21.4 49.7,21.4 C49.3,21.2 48.9,21.1 48.5,21 C47.8,20.8 47.3,20.6 47.3,20.6 C47.3,20.6 47.8,20.6 48.6,20.6 C49,20.7 49.4,20.7 49.9,20.8 C50,20.8 50.1,20.9 50.3,21 C50.4,21 50.4,21.1 50.5,21.2 C50.6,21.3 50.6,21.4 50.6,21.6 C50.5,21.9 50.4,22 50.2,22 C50.1,22.1 49.9,22.1 49.8,22.2 C48.8,22.6 47.8,22.7 47.1,22.8 C46.4,22.8 45.9,22.8 45.9,22.8 Z" id="Shape" fill="#52391E"/>
          <path d="M56.7,12.5 C56.7,12.5 58.9,12.4 62.2,12.2 C63.9,12.1 65.8,12 67.8,11.8 C68.8,11.7 69.9,11.6 71,11.5 C72,11.3 73.2,11.2 74.1,10.8 C74.2,10.8 74.3,10.7 74.2,10.7 C74.2,10.9 74.2,10.7 74.2,10.8 L74.2,10.7 C74,10.6 73.8,10.5 73.5,10.5 C73,10.4 72.4,10.3 71.9,10.3 C70.8,10.2 69.8,10.2 68.7,10.1 C66.6,10 64.7,10 63.1,10 C59.8,10 57.6,10 57.6,10 C57.6,10 58.2,10 59.1,9.9 C60.1,9.8 61.4,9.7 63.1,9.7 C64.8,9.6 66.7,9.6 68.8,9.6 C69.8,9.6 70.9,9.7 72,9.7 C72.5,9.7 73.1,9.8 73.7,9.9 C74,10 74.3,10 74.6,10.2 C74.7,10.2 74.8,10.4 74.9,10.5 L74.9,10.6 C74.9,10.6 74.9,10.5 74.9,10.7 L74.9,10.8 C74.8,11.1 74.6,11.2 74.5,11.3 C73.9,11.6 73.4,11.7 72.8,11.8 C72.2,11.9 71.7,12 71.2,12 C70.1,12.1 69,12.2 68,12.3 C65.9,12.4 64,12.5 62.3,12.5 C60.6,12.5 59.3,12.5 58.3,12.5 C57.3,12.5 56.7,12.5 56.7,12.5 Z" id="Shape" fill="#52391E"/>
          <path d="M62.5,12.5 C62.5,12.5 63.1,12.5 64.1,12.4 C65.1,12.4 66.5,12.3 68.2,12.3 C69.9,12.3 71.9,12.3 74.1,12.5 C75.2,12.6 76.3,12.7 77.4,13.1 C77.7,13.2 78,13.3 78.2,13.7 C78.2,13.8 78.2,13.8 78.3,13.9 C78.3,13.9 78.3,13.9 78.3,14 L78.3,14.1 C78.3,14.1 78.3,14.3 78.2,14.3 C78.2,14.4 78.1,14.4 78.1,14.4 C77.9,14.5 77.8,14.6 77.7,14.7 C77.1,14.9 76.6,15 76,15.1 C73.7,15.4 71.4,15.5 69.3,15.6 C67.2,15.7 65.2,15.6 63.5,15.6 C61.8,15.6 60.4,15.5 59.4,15.5 C58.4,15.5 57.8,15.4 57.8,15.4 C57.8,15.4 60.1,15.4 63.5,15.3 C65.2,15.3 67.2,15.2 69.3,15.1 C71.4,15 73.7,14.9 75.9,14.6 C76.4,14.5 77,14.4 77.5,14.2 C77.6,14.2 77.7,14.1 77.8,14 C77.8,14 77.8,14.1 77.8,14 L77.8,13.9 C77.8,14 77.8,13.9 77.8,13.9 C77.7,13.8 77.5,13.7 77.3,13.6 C76.3,13.2 75.2,13.1 74.1,13 C72,12.8 70,12.7 68.3,12.6 C64.8,12.5 62.5,12.5 62.5,12.5 Z" id="Shape" fill="#52391E"/>
          <path d="M59.5,21.2 C59.5,21.2 61.6,21.3 64.8,21.4 C66.4,21.4 68.3,21.5 70.2,21.4 C71.2,21.4 72.2,21.3 73.2,21.2 C74.2,21.1 75.3,21 76.1,20.5 C76.2,20.4 76.2,20.4 76.2,20.5 C76.2,20.5 76.2,20.4 76.1,20.4 C75.9,20.3 75.7,20.2 75.4,20.2 C74.9,20.1 74.4,20 73.9,19.9 C72.9,19.7 71.9,19.6 70.9,19.5 C68.9,19.3 67.1,19.2 65.5,19.1 C62.3,18.9 60.2,18.8 60.2,18.8 C60.2,18.8 62.3,18.7 65.5,18.8 C67.1,18.9 69,18.9 71,19.1 C72,19.2 73,19.3 74.1,19.4 C74.6,19.5 75.2,19.6 75.7,19.7 C76,19.8 76.2,19.8 76.5,20 C76.6,20.1 76.8,20.1 76.9,20.4 C77,20.8 76.7,21 76.6,21 C75.5,21.6 74.5,21.7 73.4,21.8 C72.3,21.9 71.3,21.9 70.3,21.9 C68.3,21.9 66.4,21.8 64.8,21.7 C61.7,21.5 59.5,21.2 59.5,21.2 Z" id="Shape" fill="#52391E"/>
          <path d="M74.5,10.7 C74.5,10.7 76.9,10.6 80.5,10.4 C82.3,10.3 84.4,10.1 86.6,9.9 C87.7,9.8 88.9,9.6 90,9.4 C90.6,9.3 91.2,9.2 91.7,9 C92,8.9 92.2,8.8 92.4,8.6 L92.5,8.5 L92.5,8.4 C92.5,8.4 92.4,8.3 92.5,8.4 C92.5,8.4 92.4,8.3 92.4,8.2 L92.3,8.2 L92.1,8.1 C92,8 91.8,8 91.7,8 C91.4,7.9 91.1,7.9 90.8,7.8 C90.2,7.7 89.6,7.7 89,7.6 C87.8,7.5 86.7,7.5 85.5,7.5 C83.2,7.5 81.1,7.6 79.3,7.6 C75.7,7.7 73.3,7.8 73.3,7.8 C73.3,7.8 73.9,7.7 74.9,7.6 C76,7.5 77.4,7.3 79.3,7.2 C81.1,7.1 83.2,6.9 85.5,6.9 C86.6,6.9 87.8,6.9 89,6.9 C89.6,6.9 90.2,7 90.8,7 C91.1,7 91.4,7.1 91.7,7.2 C91.9,7.2 92,7.3 92.2,7.3 L92.4,7.4 C92.5,7.5 92.6,7.5 92.7,7.6 C92.8,7.7 92.8,7.7 92.9,7.8 C93,8 93,8.1 93,8.2 C93,8.3 92.9,8.4 92.9,8.6 C92.8,8.7 92.8,8.8 92.7,8.8 C92.4,9 92.1,9.2 91.8,9.3 C91.2,9.5 90.6,9.6 90,9.7 C88.8,9.9 87.7,10 86.5,10.1 C84.2,10.3 82.1,10.4 80.3,10.4 C78.5,10.4 77,10.4 75.9,10.4 C75.1,10.7 74.5,10.7 74.5,10.7 Z" id="Shape" fill="#52391E"/>
          <path d="M45.5,27.7 C45.5,27.7 47.4,28 50.2,28.4 C51.6,28.6 53.3,28.8 55,29 C55.9,29.1 56.8,29.2 57.7,29.2 C58.6,29.2 59.6,29.2 60.5,29.1 C60.7,29.1 61,29 61.1,29 C61.2,29 61.3,28.9 61.3,28.9 C61.3,28.9 61.3,29 61.3,28.9 C61.1,28.7 60.6,28.5 60.2,28.3 C59.3,28 58.5,27.7 57.6,27.5 C55.9,27.1 54.2,26.7 52.8,26.5 C51.4,26.3 50.2,26.1 49.4,26 C48.6,25.9 48.1,25.8 48.1,25.8 C48.1,25.8 50,25.8 52.9,26.2 C54.3,26.4 56,26.6 57.7,27 C58.6,27.2 59.5,27.4 60.4,27.8 C60.9,28 61.3,28.1 61.8,28.5 C61.9,28.6 61.9,28.6 61.9,28.8 C61.9,28.9 61.9,29.1 61.8,29.2 C61.6,29.4 61.5,29.4 61.4,29.5 C61.1,29.6 60.9,29.6 60.7,29.7 C59.7,29.8 58.8,29.8 57.8,29.7 C56.9,29.7 55.9,29.6 55,29.5 C53.2,29.3 51.6,29 50.2,28.8 C47.4,28.1 45.5,27.7 45.5,27.7 Z" id="Shape" fill="#52391E"/>
        </g>
      </g>
    </g>
  </g>
</svg>