<svg width="160px" height="280px" viewBox="0 0 160 280" version="1.1" xml:space="preserve" xmlns="http://www.w3.org/2000/svg" xmlns:xlink="http://www.w3.org/1999/xlink">
  <!-- Generator: Sketch 49.3 (51167) - http://www.bohemiancoding.com/sketch -->
  <defs/>
  <g>
    <title>bear-b</title>
    <desc>Created with Sketch.</desc>
    <g id="bear-b" stroke="none" stroke-width="1" fill="none" fill-rule="evenodd">
      <g id="Bear-Standing" transform="translate(80.000000, 140.500000) scale(-1, 1) translate(-80.000000, -140.500000) translate(9.000000, 5.000000)" fill-rule="nonzero">
        <g id="Group" transform="translate(0.000000, 78.000000)">
          <g fill="#8D674A" id="Shape">
            <path d="M39.1,14.3 C32.4,33.1 33.7,38.7 31.4,44.3 C29.1,49.9 16.4,58.4 10,64.7 C6,68.6 2.9,71.4 0.9,73.7 C-1.1,76 0.5,84.1 18.1,82.4 C23.7,81.9 62,63.5 71.6,44.3 C85,1.8 48.4,-12.1 39.1,14.3 Z"/>
            <path d="M74.2,22.8 C74.2,22.8 76,35.8 78,36.9 C78,36.9 75.3,37.2 74.7,35.1 C74.7,35.1 77.2,38.8 75.8,42.8 L74,40.5 C74,40.5 73.9,47.5 71.4,50.7 L70.8,46.8 C70.8,46.8 70.1,53.5 64.9,54.2"/>
          </g>
          <path d="M77.9,36.7 C77.9,36.7 77.7,36.6 77.5,36.3 C77.3,36 77,35.6 76.7,35.1 C76.1,34 75.6,32.5 75.3,30.9 C75.2,30.5 75.1,30.1 75.1,29.7 C75,29.3 75,28.9 74.9,28.6 C74.8,27.9 74.7,27.2 74.7,26.6 C74.7,26 74.7,25.5 74.7,25.2 C74.7,24.9 74.7,24.7 74.7,24.7 C74.7,24.7 74.9,25.5 75.1,26.6 C75.3,27.8 75.6,29.3 76,30.8 C76.3,32.3 76.8,33.8 77.1,35 C77.3,35.5 77.5,36 77.7,36.3 C77.8,36.6 77.9,36.7 77.9,36.7 Z" id="Shape" fill="#59402F"/>
          <path d="M75.7,42.5 C75.7,42.5 75.7,42.1 75.8,41.5 C75.8,40.9 75.9,40.1 75.8,39.3 C75.8,38.9 75.7,38.5 75.7,38.1 C75.6,37.7 75.6,37.4 75.5,37.1 C75.4,36.8 75.4,36.6 75.3,36.4 C75.2,36.2 75.2,36.1 75.2,36.1 C75.2,36.1 75.3,36.2 75.4,36.3 C75.5,36.4 75.7,36.6 75.9,36.9 C76.1,37.2 76.2,37.5 76.3,37.9 C76.4,38.3 76.5,38.7 76.5,39.2 C76.5,39.6 76.5,40.1 76.4,40.5 C76.3,40.9 76.2,41.3 76.1,41.6 C75.9,42.2 75.7,42.5 75.7,42.5 Z" id="Shape" fill="#59402F"/>
          <path d="M71.5,50.1 C71.5,50.1 71.9,49.6 72.3,48.7 C72.5,48.3 72.7,47.8 72.8,47.2 C73,46.6 73.1,46 73.2,45.4 C73.3,44.8 73.4,44.2 73.5,43.6 C73.6,43 73.7,42.5 73.7,42 C73.8,41.5 73.8,41.1 73.9,40.8 C73.9,40.5 74,40.4 74,40.4 C74,40.4 74,40.6 74.1,40.8 C74.1,41.1 74.2,41.5 74.2,42 C74.2,42.5 74.2,43.1 74.2,43.7 C74.2,44.3 74.1,45 73.9,45.6 C73.8,46.2 73.6,46.9 73.4,47.4 C73.2,48 72.9,48.5 72.6,48.9 C72.3,49.3 72,49.6 71.8,49.8 C71.6,50.1 71.5,50.1 71.5,50.1 Z" id="Shape" fill="#59402F"/>
          <path d="M65.2,54 C65.2,54 65.8,53.9 66.5,53.4 C66.9,53.2 67.2,52.8 67.6,52.4 C68,52 68.3,51.5 68.6,51.1 C68.8,50.9 68.9,50.6 69,50.4 C69.1,50.2 69.3,49.9 69.4,49.7 C69.7,49.2 69.8,48.7 70,48.3 C70.2,47.9 70.3,47.6 70.4,47.3 C70.5,47.1 70.6,46.9 70.6,46.9 C70.6,46.9 70.6,47 70.5,47.3 C70.5,47.6 70.4,47.9 70.3,48.4 C70.2,48.8 70.1,49.3 69.8,49.9 C69.7,50.2 69.6,50.4 69.5,50.7 C69.4,51 69.2,51.2 69.1,51.5 C68.8,52 68.4,52.5 68,52.9 C67.8,53.1 67.6,53.3 67.4,53.4 C67.2,53.5 67,53.7 66.7,53.8 C66.3,54 65.9,54.1 65.6,54.1 C65.4,54 65.2,54 65.2,54 Z" id="Shape" fill="#59402F"/>
          <path d="M6.5,81.6 C6.5,81.6 6.5,81.3 6.6,80.8 C6.7,80.3 7,79.8 7.3,79.3 C7.7,78.8 8.2,78.4 8.6,78.2 C9,78 9.3,77.9 9.3,77.9 C9.3,77.9 9.3,78 9.2,78.1 C9.1,78.2 9,78.4 8.9,78.5 C8.6,78.8 8.2,79.3 7.9,79.8 C7.6,80.3 7.2,80.7 7,81.1 C6.6,81.4 6.5,81.6 6.5,81.6 Z" id="Shape" fill="#59402F"/>
          <path d="M2.6,79.6 C2.6,79.6 2.6,79.2 2.8,78.7 C3,78.2 3.4,77.6 3.9,77 C4.1,76.7 4.4,76.5 4.7,76.3 C5,76.1 5.3,75.9 5.5,75.8 C5.7,75.7 6,75.6 6.1,75.6 C6.3,75.6 6.3,75.5 6.3,75.5 C6.3,75.5 6.2,75.6 6.1,75.7 C6,75.8 5.8,75.9 5.6,76.1 C5.2,76.4 4.7,76.9 4.3,77.4 C3.8,77.9 3.4,78.4 3.1,78.8 C2.8,79.3 2.6,79.6 2.6,79.6 Z" id="Shape" fill="#59402F"/>
          <g transform="translate(0.000000, 26.000000)" fill="#59402F" id="Shape">
            <path d="M5.5,55.4 C5.5,55.4 6.6,55.8 8.6,56.1 C9.6,56.3 10.8,56.4 12.2,56.4 C13.6,56.4 15.2,56.3 16.9,56.1 C18.6,55.9 20.4,55.4 22.3,54.8 C24.2,54.1 26.1,53.3 27.9,52.3 C29.8,51.3 31.8,50.3 33.8,49.2 C35.8,48.1 37.8,47 39.8,45.9 C43.7,43.6 47.6,41 51.1,38.6 C52.8,37.3 54.5,36.1 56,34.9 C57.6,33.7 59,32.5 60.3,31.4 C61.6,30.3 62.7,29.2 63.7,28.2 C64.7,27.2 65.5,26.3 66.1,25.5 C66.7,24.7 67.2,24.1 67.5,23.7 C67.8,23.3 67.9,23 67.9,23 C67.9,23 67.4,24.1 66.2,25.7 C65,27.3 63.1,29.5 60.6,31.9 C58.1,34.3 54.9,36.8 51.5,39.4 C49.8,40.7 47.9,42 46,43.2 C44.1,44.4 42.1,45.6 40.1,46.8 C38.1,47.9 36.1,49 34,50 C32,51 30,52 28,52.9 C26.1,53.8 24.1,54.7 22.2,55.3 C20.3,55.9 18.5,56.3 16.8,56.5 C13.4,56.9 10.5,56.7 8.5,56.3 C6.6,55.8 5.5,55.4 5.5,55.4 Z"/>
            <path d="M1.5,53 C1.5,53 1.3,52.8 1,52.4 C0.7,52 0.4,51.4 0.3,50.4 C0.2,49.5 0.5,48.4 1.2,47.3 C1.9,46.2 2.9,45.2 4.1,44.1 C4.7,43.6 5.4,43.1 6,42.6 C6.6,42.1 7.3,41.5 7.9,40.9 C9.2,39.7 10.6,38.4 11.9,37 C13.3,35.6 14.7,34.2 16.2,32.8 C17.7,31.4 19.3,30.1 21,28.8 C22.6,27.5 24.3,26.2 25.7,24.9 C27.2,23.5 28.4,22 29.4,20.4 C30.4,18.8 30.9,17 31.4,15.3 C31.9,13.6 32.3,12 32.6,10.4 C32.9,8.9 33.2,7.5 33.5,6.2 C33.8,5 34.1,3.9 34.4,3 C34.7,2.1 34.9,1.5 35.1,1 C35.3,0.5 35.4,0.3 35.4,0.3 C35.4,0.3 35.2,1.3 34.7,3.1 C34.3,4.9 33.9,7.4 33.3,10.5 C33,12 32.7,13.7 32.2,15.4 C32,16.3 31.8,17.2 31.4,18.1 C31.1,19 30.7,19.9 30.2,20.8 C29.2,22.6 27.8,24.1 26.3,25.5 C24.8,26.9 23.1,28.2 21.4,29.4 C19.7,30.6 18.1,31.9 16.5,33.2 C14.9,34.5 13.5,35.9 12.1,37.3 C10.7,38.6 9.3,39.9 8,41.1 C7.3,41.7 6.7,42.3 6,42.8 C5.4,43.4 4.7,43.8 4.1,44.3 C2.9,45.3 1.9,46.3 1.2,47.3 C0.5,48.3 0.2,49.4 0.2,50.3 C0.2,51.2 0.6,51.9 0.8,52.3 C1.3,52.8 1.5,53 1.5,53 Z"/>
          </g>
          <path d="M8.9,82.8 C8.9,82.2 9.8,79.7 10.9,79.8 C12,79.9 11.2,80.9 10.7,81.5 C10.2,82.1 8.9,83.2 8.9,82.8 Z" id="Shape" fill="#6C5F57"/>
          <path d="M3.2,82.2 C3.2,81.6 4.1,79.1 5.2,79.2 C6.3,79.2 5.5,80.3 5,80.9 C4.5,81.5 3.2,82.6 3.2,82.2 Z" id="Shape" fill="#6C5F57"/>
          <path d="M0,79.5 C0,78.9 0.9,76.4 2,76.5 C3.1,76.6 2.3,77.6 1.8,78.2 C1.2,78.9 0,79.9 0,79.5 Z" id="Shape" fill="#6C5F57"/>
        </g>
        <g id="Group" transform="translate(39.000000, 160.000000)">
          <path d="M1.1,30.2 C1.1,30.2 -2.2,54.2 12.2,78.7 C19.4,91 20,98.1 18.3,100.4 C16.6,102.8 11.2,106 12.5,107.5 C13.8,109 32.2,109.8 36.4,108 C38.1,107.2 43.6,80.6 42.6,68.7 C41.5,56.9 39.8,52.9 40.9,44.3 C42,35.7 47.7,21.3 44.8,14.5 C41.9,7.7 33.1,-3.5 17.7,2 C2.3,7.5 0.9,24.3 1.1,30.2 Z" id="Shape" fill="#8D674A"/>
          <path d="M19.6,108.2 C19.6,108.2 19.6,107.9 19.7,107.4 C19.8,106.9 20.1,106.4 20.4,105.9 C20.8,105.4 21.3,105 21.7,104.7 C22.1,104.5 22.4,104.4 22.4,104.4 C22.4,104.4 22.4,104.5 22.3,104.6 C22.2,104.7 22.1,104.9 22,105 C21.7,105.3 21.3,105.8 21,106.3 C20.7,106.8 20.3,107.2 20.1,107.6 C19.7,108 19.6,108.2 19.6,108.2 Z" id="Shape" fill="#59402F"/>
          <path d="M14.3,108 C14.3,108 14.3,107.6 14.5,107.1 C14.7,106.6 15.1,106 15.5,105.4 C15.7,105.1 16,104.9 16.3,104.7 C16.6,104.5 16.9,104.3 17.1,104.2 C17.3,104.1 17.6,104 17.7,104 C17.9,104 17.9,103.9 17.9,103.9 C17.9,103.9 17.8,104 17.7,104.1 C17.6,104.2 17.4,104.3 17.2,104.5 C16.8,104.8 16.3,105.3 15.9,105.8 C15.4,106.3 15,106.8 14.7,107.2 C14.6,107.7 14.3,108 14.3,108 Z" id="Shape" fill="#59402F"/>
          <path d="M20.4,109.5 C20.4,108.9 21.3,106.4 22.4,106.5 C23.5,106.5 22.7,107.6 22.2,108.2 C21.7,108.9 20.4,109.9 20.4,109.5 Z" id="Shape" fill="#665A52"/>
          <path d="M15.3,108.9 C15.3,108.3 16.2,105.8 17.3,105.9 C18.4,105.9 17.6,107 17.1,107.6 C16.5,108.2 15.3,109.2 15.3,108.9 Z" id="Shape" fill="#665A52"/>
          <path d="M12.1,108.6 C12.1,108 13,105.5 14.1,105.6 C15.2,105.6 14.4,106.7 13.9,107.3 C13.3,107.9 12.1,108.9 12.1,108.6 Z" id="Shape" fill="#665A52"/>
          <g transform="translate(40.000000, 47.000000)" id="Shape">
            <path d="M0.4,0.1 C0.4,0.1 5.4,11 7.6,11.3 C7.6,11.3 5.2,12.5 3.9,10.7 C3.9,10.7 7.5,13.3 7.5,17.5 L5,16 C5,16 7.3,22.6 6,26.5 L4.1,23.1 C4.1,23.1 5.8,29.6 1.1,32" fill="#8D674A"/>
            <path d="M7.4,11.2 C7.4,11.2 7.2,11.2 6.9,11 C6.6,10.8 6.3,10.6 5.9,10.2 C5.1,9.5 4.3,8.3 3.5,7.1 C3.1,6.5 2.8,5.9 2.5,5.3 C2.2,4.7 2,4.1 1.7,3.6 C1.3,2.6 1.1,1.9 1.1,1.9 C1.1,1.9 1.5,2.5 2,3.4 C2.6,4.3 3.2,5.5 4,6.7 C4.7,7.9 5.4,9.1 6.1,9.9 C6.4,10.3 6.7,10.7 6.9,10.9 C7.3,11.1 7.4,11.2 7.4,11.2 Z" fill="#59402F"/>
            <path d="M7.4,17.4 C7.4,17.4 7.3,17 7.1,16.4 C6.9,15.8 6.7,15 6.4,14.3 C6.2,13.9 6.1,13.6 5.9,13.2 C5.7,12.9 5.5,12.6 5.4,12.3 C5.2,12.1 5.1,11.8 4.9,11.7 C4.8,11.6 4.7,11.5 4.7,11.5 C4.7,11.5 4.8,11.5 5,11.6 C5.2,11.7 5.4,11.8 5.6,12 C5.8,12.2 6.1,12.5 6.4,12.8 C6.6,13.1 6.8,13.5 7,13.9 C7.2,14.3 7.3,14.7 7.4,15.1 C7.5,15.5 7.5,15.9 7.5,16.2 C7.5,17 7.4,17.4 7.4,17.4 Z" fill="#59402F"/>
            <path d="M6,26 C6,26 6.2,25.4 6.3,24.4 C6.3,23.9 6.3,23.4 6.3,22.8 C6.3,22.2 6.2,21.6 6.1,21 C6,20.4 5.9,19.8 5.8,19.2 C5.7,18.6 5.6,18.1 5.5,17.6 C5.4,17.1 5.3,16.7 5.3,16.5 C5.2,16.2 5.2,16.1 5.2,16.1 C5.2,16.1 5.3,16.2 5.4,16.5 C5.5,16.8 5.7,17.1 5.9,17.6 C6.1,18.1 6.3,18.6 6.4,19.2 C6.6,19.8 6.7,20.4 6.8,21.1 C6.9,21.7 6.9,22.4 6.9,23 C6.9,23.6 6.8,24.2 6.7,24.7 C6.6,25.2 6.4,25.6 6.3,25.8 C6.1,25.9 6,26 6,26 Z" fill="#59402F"/>
            <path d="M2.5,31.1 C2.5,31.1 2.6,31 2.7,30.8 C2.8,30.6 3,30.4 3.2,30 C3.5,29.3 3.7,28.3 3.8,27.3 C3.9,26.3 4,25.3 4,24.5 C4,23.7 4.1,23.2 4.1,23.2 C4.1,23.2 4.2,23.7 4.4,24.5 C4.4,24.9 4.5,25.3 4.5,25.8 C4.5,26 4.5,26.3 4.5,26.6 C4.5,26.9 4.5,27.1 4.4,27.4 C4.3,27.9 4.2,28.5 4.1,28.9 C4,29.4 3.7,29.8 3.5,30.1 C3.3,30.4 3,30.7 2.8,30.8 C2.6,31.1 2.5,31.1 2.5,31.1 Z" fill="#59402F"/>
          </g>
          <path d="M43,73 C43,73 42.9,75.4 42.5,79 C42.3,80.8 42.1,82.9 41.8,85.1 C41.5,87.3 41.2,89.7 40.8,92.1 C40.4,94.5 40,96.9 39.5,99.1 C39,101.3 38.5,103.4 37.9,105.1 C37.6,106 37.3,106.7 36.9,107.4 C36.8,107.6 36.7,107.7 36.6,107.9 L36.4,108.1 C36.3,108.2 36.3,108.2 36.2,108.2 C35.9,108.3 35.6,108.4 35.3,108.4 C34.3,108.6 33.6,108.6 33.6,108.6 C33.6,108.6 34.2,108.5 35.2,108.3 C35.5,108.2 35.7,108.2 36,108 C36.1,108 36.1,107.9 36.2,107.9 L36.3,107.7 C36.4,107.6 36.5,107.4 36.6,107.3 C36.9,106.7 37.2,105.9 37.5,105 C38,103.3 38.5,101.2 38.9,99 C39.3,96.8 39.7,94.4 40.1,92 C40.5,89.6 40.8,87.2 41.2,85 C41.5,82.8 41.8,80.7 42.1,78.9 C42.7,75.4 43,73 43,73 Z" id="Shape" fill="#59402F"/>
          <path d="M5.2,12.6 C5.2,12.6 4.5,13.9 3.6,16.4 C2.7,18.9 1.7,22.5 1.2,27 C0.6,31.5 0.4,36.7 1,42.3 C1.3,45.1 1.7,48 2.3,50.9 C2.9,53.8 3.7,56.7 4.6,59.5 C5.5,62.4 6.6,65.2 7.7,67.9 C8.9,70.6 10.1,73.2 11.3,75.8 C13.6,80.9 15.9,85.7 17.5,89.9 C18.3,92 19,94 19.2,95.9 C19.3,96.8 19.3,97.7 19.2,98.5 C19.1,99.3 18.8,100 18.5,100.6 C17.7,101.7 16.8,102.3 16.2,102.7 C15.6,103.1 15.3,103.3 15.3,103.3 C15.3,103.3 15.6,103.1 16.2,102.7 C16.8,102.3 17.6,101.7 18.4,100.6 C18.7,100.1 19,99.4 19,98.6 C19.1,97.8 19,97 18.9,96.1 C18.7,94.3 18,92.4 17.1,90.3 C15.4,86.1 13.2,81.4 10.8,76.3 C9.6,73.7 8.4,71.1 7.2,68.4 C6,65.7 5,62.8 4.1,60 C3.2,57.1 2.4,54.2 1.8,51.3 C1.2,48.4 0.8,45.5 0.5,42.7 C7.46624984e-15,37.1 0.2,31.8 0.9,27.3 C1.6,22.8 2.6,19.2 3.5,16.7 C4.5,13.9 5.2,12.6 5.2,12.6 Z" id="Shape" fill="#59402F"/>
        </g>
        <path d="M107.2,57.9 C107.2,57.9 113.9,74.9 115.1,89.5 C115.1,89.5 143.3,134.7 136.7,184.4 C132.4,216.5 102,222.3 78.7,216.5 C56.8,211 19.7,169.6 41.6,111.2 C41.6,111.2 41.1,77.3 54.1,66.2" id="Shape" fill="#8D674A"/>
        <g id="Group" transform="translate(53.000000, 85.000000)">
          <path d="M13,0.7 C13,0.7 5.8,6 4.9,9.4 L7.8,8.2 C7.8,8.2 2.5,13.2 2.6,17.6 L4.6,15.9 C4.6,15.9 -0.7,22.2 1.8,28.3 L3,26.1 C3,26.1 4.6,34 2.4,36.2 L4.5,35.7 C4.5,35.7 5,44 8.2,44.7" id="Shape" fill="#8D674A"/>
          <path d="M12.4,1.2 C12.4,1.2 11.9,1.7 11.1,2.4 C10.3,3.1 9.3,4.1 8.4,5.1 C7.4,6.1 6.5,7.1 5.9,8 C5.7,8.2 5.6,8.4 5.5,8.6 C5.4,8.8 5.3,8.9 5.2,9.1 C5.1,9.4 5,9.5 5,9.5 C5,9.5 5,9.3 5.1,9 C5.1,8.8 5.2,8.7 5.3,8.5 C5.4,8.3 5.4,8.1 5.6,7.8 C5.7,7.6 5.8,7.3 6,7 C6.2,6.7 6.3,6.5 6.5,6.2 C6.9,5.7 7.4,5.1 7.9,4.6 C8.9,3.6 10,2.7 10.9,2.1 C11.8,1.6 12.4,1.2 12.4,1.2 Z" id="Shape" fill="#59402F"/>
          <path d="M7.7,8.2 C7.7,8.2 7.3,8.7 6.8,9.6 C6.2,10.4 5.5,11.5 4.8,12.6 C4.4,13.1 4.1,13.7 3.8,14.2 C3.5,14.7 3.2,15.2 3.1,15.7 C3,15.9 2.9,16.1 2.9,16.3 C2.9,16.5 2.8,16.7 2.8,16.8 C2.8,17.1 2.8,17.3 2.8,17.3 C2.8,17.3 2.8,17.1 2.7,16.8 C2.7,16.7 2.7,16.5 2.7,16.3 C2.7,16.1 2.7,15.9 2.8,15.6 C2.9,15.1 3.1,14.5 3.4,14 C3.7,13.4 4,12.8 4.4,12.3 C5.1,11.2 6,10.2 6.7,9.4 C7.2,8.6 7.7,8.2 7.7,8.2 Z" id="Shape" fill="#59402F"/>
          <path d="M4.7,15.9 C4.7,15.9 4.2,16.6 3.7,17.7 C3.1,18.8 2.4,20.3 2,21.9 C1.9,22.3 1.8,22.7 1.7,23.1 C1.6,23.5 1.5,23.9 1.5,24.3 C1.5,24.7 1.4,25 1.4,25.4 C1.4,25.7 1.4,26.1 1.4,26.4 C1.4,26.7 1.5,27 1.5,27.2 C1.6,27.4 1.6,27.7 1.6,27.8 C1.7,28.2 1.7,28.4 1.7,28.4 C1.7,28.4 1.6,28.2 1.5,27.9 C1.4,27.7 1.3,27.5 1.2,27.3 C1.1,27 1.1,26.8 1,26.5 C0.9,26.2 0.9,25.8 0.9,25.5 C0.8,25.1 0.9,24.7 0.9,24.3 C0.9,23.9 1,23.5 1,23.1 C1.1,22.7 1.2,22.3 1.3,21.9 C1.5,21.1 1.8,20.3 2.2,19.6 C2.5,18.9 2.9,18.3 3.3,17.7 C4.1,16.4 4.7,15.9 4.7,15.9 Z" id="Shape" fill="#59402F"/>
          <path d="M3,26.2 C3,26.2 3.3,26.8 3.5,27.8 C3.6,28.3 3.7,28.8 3.8,29.5 C3.9,30.1 3.9,30.8 3.9,31.4 C3.9,32.1 3.8,32.7 3.7,33.3 C3.6,33.9 3.4,34.5 3.2,34.9 C3.1,35.1 3,35.3 2.9,35.5 C2.8,35.7 2.7,35.8 2.6,35.9 C2.4,36.1 2.3,36.3 2.3,36.3 C2.3,36.3 2.4,36.1 2.5,35.9 C2.5,35.8 2.6,35.6 2.7,35.4 C2.8,35.2 2.8,35 2.9,34.8 C2.9,34.6 3,34.3 3.1,34 C3.1,33.7 3.2,33.4 3.2,33.2 C3.3,32.6 3.3,32 3.3,31.3 C3.3,30.7 3.3,30 3.2,29.4 C3.2,28.8 3.1,28.2 3.1,27.8 C3.1,26.9 3,26.2 3,26.2 Z" id="Shape" fill="#59402F"/>
          <path d="M4.5,35.9 C4.5,35.9 4.6,36.6 4.8,37.5 C4.9,38 5,38.5 5.2,39.1 C5.3,39.7 5.5,40.3 5.7,40.9 C5.9,41.5 6.1,42.1 6.4,42.7 C6.5,43 6.7,43.2 6.8,43.5 C6.9,43.7 7.1,44 7.2,44.2 C7.3,44.4 7.5,44.6 7.6,44.8 C7.7,45 7.8,45.1 7.9,45.2 C8.1,45.4 8.2,45.6 8.2,45.6 C8.2,45.6 8.1,45.5 7.8,45.3 C7.7,45.2 7.5,45.1 7.4,45 C7.3,44.9 7.1,44.7 6.9,44.5 C6.6,44.1 6.2,43.6 5.9,43.1 C5.6,42.5 5.3,41.9 5.1,41.3 C4.9,40.7 4.7,40 4.6,39.4 C4.5,38.8 4.4,38.2 4.4,37.7 C4.4,36.5 4.5,35.9 4.5,35.9 Z" id="Shape" fill="#59402F"/>
        </g>
        <path d="M130.6,125.6 C130.6,125.6 132.4,130 134.2,136.9 C135.1,140.4 136,144.4 136.7,148.8 C137.1,151 137.4,153.3 137.6,155.6 C137.9,157.9 138,160.3 138.1,162.7 C138.2,165.1 138.2,167.5 138.1,169.8 C138.1,171 138,172.1 137.9,173.3 C137.8,174.4 137.7,175.6 137.6,176.7 C137.5,177.8 137.3,178.9 137.2,180 C137.1,181.1 136.8,182.1 136.6,183.1 C136.4,184.1 136.2,185.1 135.9,186 C135.7,186.9 135.4,187.8 135.2,188.7 C134.9,189.6 134.7,190.4 134.4,191.1 C134.1,191.9 133.9,192.6 133.6,193.3 C133.1,194.7 132.5,195.8 132.1,196.8 C131.2,198.7 130.6,199.7 130.6,199.7 C130.6,199.7 131.1,198.6 132,196.7 C132.4,195.7 132.9,194.6 133.3,193.2 C133.8,191.8 134.3,190.3 134.7,188.6 C135,187.7 135.2,186.8 135.4,185.9 C135.6,185 135.8,184 136,183 C136.2,182 136.4,181 136.5,179.9 C136.7,178.8 136.8,177.8 136.9,176.7 C137,175.6 137.1,174.5 137.2,173.3 C137.3,172.2 137.3,171 137.4,169.8 C137.5,167.5 137.4,165.1 137.3,162.7 C137.2,160.3 137,158 136.8,155.7 C136.6,153.4 136.3,151.1 135.9,148.9 C135.6,146.7 135.2,144.6 134.8,142.6 C134.4,140.6 134,138.7 133.6,137 C132.8,133.5 132,130.7 131.4,128.7 C131,126.7 130.6,125.6 130.6,125.6 Z" id="Shape" fill="#59402F"/>
        <path d="M39.5,118.5 C39.5,118.5 38,123.2 36.8,130.5 C36.2,134.1 35.6,138.4 35.4,143 C35.1,147.6 35.2,152.5 35.8,157.4 C36.1,159.8 36.5,162.2 37.1,164.6 C37.4,165.8 37.7,166.9 38.1,168 C38.4,169.1 38.8,170.3 39.2,171.3 C39.9,173.5 40.7,175.6 41.5,177.5 C42.3,179.5 43.1,181.3 43.9,182.9 C44.7,184.5 45.5,186 46.3,187.3 C47,188.6 47.7,189.7 48.3,190.6 C49.5,192.4 50.2,193.4 50.2,193.4 C50.2,193.4 49.4,192.5 48.1,190.7 C47.5,189.8 46.7,188.7 46,187.4 C45.2,186.1 44.4,184.6 43.5,183 C42.7,181.3 41.8,179.5 40.9,177.6 C40.5,176.6 40.1,175.6 39.7,174.6 C39.3,173.6 38.9,172.5 38.5,171.4 C38.1,170.3 37.7,169.2 37.4,168.1 C37,167 36.7,165.8 36.4,164.6 C35.8,162.2 35.4,159.8 35.1,157.3 C34.5,152.4 34.5,147.4 34.8,142.8 C35.1,138.2 35.7,133.9 36.4,130.3 C37.9,123.2 39.5,118.5 39.5,118.5 Z" id="Shape" fill="#59402F"/>
        <path d="M69.5,212.8 C69.5,212.8 70.4,213.2 71.9,213.8 C73.5,214.4 75.7,215.1 78.5,215.9 C81.3,216.6 84.5,217.2 88.1,217.6 C89.9,217.8 91.7,217.9 93.6,217.9 C95.5,217.9 97.4,217.8 99.2,217.6 C100.1,217.5 101.1,217.4 102,217.3 C102.9,217.1 103.9,217 104.8,216.8 C106.6,216.4 108.4,215.9 110.1,215.3 C111.8,214.7 113.4,214.1 114.8,213.4 C115.5,213 116.3,212.7 116.9,212.3 C117.6,211.9 118.2,211.6 118.8,211.2 C119.4,210.9 120,210.4 120.5,210.1 C121,209.7 121.6,209.4 122,209.1 C122.9,208.4 123.8,207.8 124.4,207.3 C125.7,206.2 126.4,205.6 126.4,205.6 C126.4,205.6 125.7,206.2 124.4,207.4 C123.8,208 123,208.6 122.1,209.3 C121.2,210 120.1,210.8 118.9,211.5 C118.3,211.9 117.6,212.3 117,212.6 C116.3,213 115.6,213.3 114.9,213.7 C113.4,214.4 111.8,215.1 110.1,215.7 C108.4,216.3 106.6,216.8 104.8,217.2 C103.9,217.4 102.9,217.6 102,217.8 C101.1,217.9 100.1,218.1 99.1,218.2 C97.2,218.4 95.3,218.5 93.4,218.4 C91.5,218.4 89.7,218.3 87.9,218.1 C86.1,217.9 84.4,217.6 82.8,217.3 C81.2,217 79.7,216.6 78.3,216.2 C75.5,215.4 73.3,214.5 71.8,213.9 C70.3,213.3 69.5,212.8 69.5,212.8 Z" id="Shape" fill="#59402F"/>
        <g id="Group" transform="translate(92.000000, 162.000000)">
          <path d="M0.9,32.1 C0.9,32.1 -1,54.2 15.4,77.5 C23.6,89.1 25.4,98.2 23.9,100.7 C22.4,103.2 17.3,105.3 18.7,106.7 C20.2,108.1 38.5,109 42.5,106.8 C44.2,105.9 47.5,78.9 45.4,67.2 C43.4,55.5 41.3,51.7 41.7,43.1 C42.1,34.5 46.6,19.6 43.1,13.1 C39.7,6.6 29.9,-3.9 15,2.9 C0.1,9.7 0.3,26.3 0.9,32.1 Z" id="Shape" fill="#8D674A"/>
          <path d="M26.3,107.6 C26.3,107.6 26.3,107.3 26.4,106.8 C26.5,106.3 26.8,105.8 27.2,105.3 C27.6,104.8 28.1,104.4 28.5,104.2 C28.9,104 29.2,103.9 29.2,103.9 C29.2,103.9 29.2,104 29.1,104.1 C29,104.2 28.9,104.3 28.7,104.5 C28.4,104.8 28,105.3 27.7,105.7 C27.3,106.1 27,106.6 26.7,107 C26.4,107.3 26.3,107.6 26.3,107.6 Z" id="Shape" fill="#59402F"/>
          <path d="M21.1,107.2 C21.1,107.2 21.1,106.8 21.4,106.3 C21.6,105.8 22,105.2 22.5,104.6 C22.8,104.3 23,104.1 23.3,103.9 C23.6,103.7 23.9,103.6 24.1,103.5 C24.4,103.4 24.6,103.3 24.7,103.3 C24.9,103.3 24.9,103.3 24.9,103.3 C24.9,103.3 24.8,103.4 24.7,103.5 C24.6,103.6 24.4,103.7 24.2,103.9 C23.8,104.2 23.3,104.7 22.8,105.2 C22.3,105.7 21.9,106.2 21.6,106.6 C21.3,106.9 21.1,107.2 21.1,107.2 Z" id="Shape" fill="#59402F"/>
          <path d="M27.1,108.9 C27.1,108.3 28.1,105.9 29.2,106 C30.2,106.1 29.5,107.1 28.9,107.7 C28.3,108.3 27,109.3 27.1,108.9 Z" id="Shape" fill="#6C5F57"/>
          <path d="M22,108.1 C22,107.5 23,105.1 24.1,105.2 C25.1,105.3 24.4,106.3 23.8,106.9 C23.2,107.5 21.9,108.5 22,108.1 Z" id="Shape" fill="#6C5F57"/>
          <path d="M18.8,107.7 C18.8,107.1 19.8,104.7 20.9,104.8 C21.9,104.9 21.2,105.9 20.6,106.5 C20,107.1 18.7,108 18.8,107.7 Z" id="Shape" fill="#6C5F57"/>
          <g transform="translate(41.000000, 45.000000)" id="Shape">
            <path d="M0.5,0.8 C0.5,0.8 6.4,11.2 8.6,11.4 C8.6,11.4 6.3,12.8 4.8,11.1 C4.8,11.1 8.6,13.4 9,17.6 L6.4,16.3 C6.4,16.3 9.3,22.7 8.3,26.7 L6.1,23.4 C6.1,23.4 8.3,29.8 3.9,32.6" fill="#8D674A"/>
            <path d="M8.4,11.3 C8.4,11.3 8.2,11.3 7.9,11.2 C7.6,11.1 7.2,10.8 6.8,10.5 C6,9.8 5,8.7 4.2,7.6 C3.8,7 3.4,6.4 3.1,5.9 C2.8,5.3 2.5,4.8 2.2,4.3 C1.7,3.3 1.5,2.7 1.5,2.7 C1.5,2.7 1.9,3.3 2.6,4.1 C3.2,5 4,6.1 4.8,7.2 C5.6,8.3 6.4,9.5 7.1,10.2 C7.4,10.6 7.8,10.9 8,11.1 C8.2,11.2 8.4,11.3 8.4,11.3 Z" fill="#59402F"/>
            <path d="M8.8,17.5 C8.8,17.5 8.7,17.1 8.4,16.5 C8.2,15.9 7.9,15.2 7.5,14.5 C7.3,14.1 7.1,13.8 6.9,13.5 C6.7,13.2 6.5,12.9 6.3,12.7 C6.1,12.5 5.9,12.3 5.8,12.1 C5.7,12 5.6,11.9 5.6,11.9 C5.6,11.9 5.7,11.9 5.9,12 C6.1,12.1 6.3,12.2 6.6,12.4 C6.9,12.6 7.2,12.8 7.4,13.2 C7.7,13.5 7.9,13.9 8.1,14.3 C8.3,14.7 8.5,15.1 8.6,15.5 C8.7,15.9 8.8,16.3 8.8,16.6 C8.9,17.1 8.8,17.5 8.8,17.5 Z" fill="#59402F"/>
            <path d="M8.2,26.2 C8.2,26.2 8.4,25.6 8.3,24.6 C8.3,24.1 8.3,23.6 8.2,23 C8.1,22.4 8,21.8 7.9,21.2 C7.8,20.6 7.6,20 7.4,19.4 C7.2,18.8 7.1,18.3 6.9,17.8 C6.8,17.3 6.6,17 6.6,16.7 C6.5,16.4 6.5,16.3 6.5,16.3 C6.5,16.3 6.6,16.4 6.7,16.7 C6.8,16.9 7.1,17.3 7.3,17.7 C7.5,18.1 7.8,18.6 8,19.2 C8.2,19.8 8.4,20.4 8.6,21 C8.7,21.6 8.9,22.3 8.9,22.9 C8.9,23.5 8.9,24.1 8.8,24.6 C8.7,25.1 8.6,25.5 8.5,25.7 C8.3,26 8.2,26.2 8.2,26.2 Z" fill="#59402F"/>
            <path d="M5.1,31.5 C5.1,31.5 5.2,31.4 5.3,31.2 C5.4,31 5.6,30.7 5.7,30.4 C5.9,29.7 6.1,28.7 6.1,27.7 C6.1,26.7 6.1,25.7 6.1,24.9 C6.1,24.1 6.1,23.6 6.1,23.6 C6.1,23.6 6.3,24.1 6.5,24.9 C6.6,25.3 6.7,25.7 6.7,26.2 C6.7,26.4 6.8,26.7 6.8,27 C6.8,27.3 6.8,27.5 6.8,27.8 C6.8,28.3 6.7,28.9 6.6,29.4 C6.5,29.9 6.3,30.3 6.1,30.7 C5.9,31.1 5.6,31.3 5.5,31.5 C5.2,31.4 5.1,31.5 5.1,31.5 Z" fill="#59402F"/>
          </g>
          <path d="M46.2,71.4 C46.2,71.4 46.3,73.8 46.2,77.4 C46.2,79.2 46.1,81.3 46,83.6 C45.9,85.9 45.8,88.3 45.6,90.7 C45.4,93.1 45.2,95.5 44.9,97.8 C44.6,100 44.2,102.1 43.8,103.9 C43.6,104.8 43.3,105.6 43,106.3 C42.9,106.5 42.8,106.6 42.7,106.8 L42.6,107 C42.5,107.1 42.5,107.1 42.4,107.2 C42.1,107.3 41.8,107.4 41.6,107.5 C40.6,107.8 40,107.8 40,107.8 C40,107.8 40.6,107.7 41.6,107.4 C41.8,107.3 42.1,107.2 42.4,107.1 C42.5,107.1 42.5,107 42.6,107 L42.7,106.8 C42.8,106.7 42.9,106.5 42.9,106.3 C43.2,105.6 43.4,104.8 43.6,104 C44,102.2 44.3,100.2 44.5,97.9 C44.8,95.7 45,93.3 45.1,90.9 C45.3,88.5 45.4,86.1 45.6,83.8 C45.7,81.5 45.8,79.4 46,77.6 C46.1,73.8 46.2,71.4 46.2,71.4 Z" id="Shape" fill="#59402F"/>
          <path d="M0.9,42.4 C0.9,42.4 1.2,43.4 1.7,45.2 C2.2,47 3,49.5 3.9,52.5 C4.8,55.5 6,59 7.5,62.6 C8.3,64.4 9,66.3 10,68 C10.5,68.9 11.1,69.7 11.7,70.6 C12.3,71.5 12.9,72.4 13.5,73.2 C15.7,76.8 17.7,80.5 19.5,84 C20.4,85.8 21.2,87.5 21.9,89.2 C22.6,90.9 23.3,92.5 23.8,94 C24.1,94.7 24.2,95.5 24.4,96.2 C24.5,96.9 24.7,97.6 24.7,98.2 C24.7,98.9 24.7,99.5 24.4,100 C24.2,100.5 23.8,100.9 23.5,101.3 C22.9,102 22.2,102.4 21.9,102.7 C21.5,103 21.3,103.1 21.3,103.1 C21.3,103.1 21.5,102.9 21.9,102.6 C22.3,102.3 22.8,101.8 23.4,101.1 C23.7,100.8 24,100.3 24.2,99.8 C24.4,99.3 24.4,98.7 24.3,98.1 C24.2,97.5 24.1,96.8 23.9,96.1 C23.7,95.4 23.6,94.7 23.3,94 C22.2,91.1 20.5,87.8 18.8,84.3 C17,80.8 14.9,77.2 12.7,73.6 C12.2,72.7 11.6,71.8 11,71 C10.4,70.2 9.8,69.3 9.3,68.3 C8.3,66.5 7.5,64.6 6.8,62.7 C6.1,60.9 5.5,59 4.9,57.3 C4.4,55.6 3.9,53.9 3.4,52.4 C2.5,49.4 1.9,46.8 1.5,45 C1.1,43.4 0.9,42.4 0.9,42.4 Z" id="Shape" fill="#59402F"/>
        </g>
        <path d="M108.5,62 C108.5,62 109,63.1 109.7,64.7 C110,65.5 110.4,66.5 110.8,67.5 C111.2,68.5 111.5,69.7 111.9,70.8 C112.2,71.9 112.6,73.1 112.9,74.1 C113.2,75.2 113.4,76.2 113.5,77.1 C113.7,78 113.7,78.7 113.8,79.2 C113.8,79.7 113.8,80 113.8,80 C113.8,80 113.8,79.7 113.7,79.2 C113.7,78.9 113.6,78.6 113.5,78.3 C113.4,78 113.3,77.6 113.2,77.1 C113,76.2 112.7,75.3 112.4,74.2 C112.1,73.1 111.7,72 111.4,70.9 C110.7,68.7 110,66.4 109.5,64.7 C108.8,63.2 108.5,62 108.5,62 Z" id="Shape" fill="#59402F"/>
        <path d="M51.2,68.8 C51.2,68.8 50.9,69.2 50.4,70 C49.9,70.8 49.4,71.9 48.7,73.3 C48.4,74 48,74.8 47.7,75.6 C47.4,76.4 47.1,77.3 46.7,78.2 C46.4,79.1 46.1,80 45.8,81 C45.6,82 45.2,82.9 45,83.9 C44.8,84.9 44.5,85.9 44.3,86.9 C44.1,87.9 43.9,88.8 43.8,89.8 C43.6,90.7 43.5,91.7 43.4,92.5 C43.3,93.4 43.2,94.2 43.1,95 C42.9,96.5 42.8,97.8 42.7,98.7 C42.6,99.6 42.6,100.1 42.6,100.1 C42.6,100.1 42.6,99.6 42.6,98.7 C42.6,97.8 42.6,96.5 42.7,95 C42.8,94.2 42.8,93.4 42.9,92.5 C43,91.6 43.1,90.7 43.2,89.7 C43.3,88.7 43.5,87.8 43.7,86.8 C43.9,85.8 44.1,84.8 44.3,83.8 C44.5,82.8 44.8,81.8 45.1,80.8 C45.4,79.8 45.7,78.9 46,78 C46.3,77.1 46.7,76.2 47,75.4 C47.3,74.6 47.7,73.8 48.1,73.1 C48.8,71.7 49.5,70.6 50,69.9 C50.8,69.2 51.2,68.8 51.2,68.8 Z" id="Shape" fill="#59402F"/>
        <g id="Group" transform="translate(35.000000, 0.000000)">
          <g>
            <path d="M76.7,32.7 C76.7,32.7 79.1,41.4 82,44.5 C82,44.5 79.6,44.3 78.8,43 C78.8,43 81.2,45.1 79.5,52.2 L78.1,49.8 C78.1,49.8 79.3,54.9 76.9,59.4 L75.7,57 C75.7,57 75.7,63.5 69.5,67.9 L69.2,64.8 C69.2,64.8 68.3,70.6 57.4,71.5" id="Shape" fill="#8D674A"/>
            <path d="M5.8,32.7 C5.8,32.7 3.4,41.4 0.5,44.5 C0.5,44.5 2.9,44.3 3.7,43 C3.7,43 1.3,45.1 3,52.2 L4.4,49.8 C4.4,49.8 3.2,54.9 5.6,59.4 L6.8,57 C6.8,57 6.8,63.5 13,67.9 L13.3,64.8 C13.3,64.8 14.2,70.6 25.1,71.5" id="Shape" fill="#8D674A"/>
            <path d="M14.1,67.5 C4.1,60.7 2.7,42.9 5.2,34.7 C7.7,26.5 15.6,11.2 24.5,7.2 C36.3,1.8 62.3,-1.7 74.5,25.8 C86.7,53.3 69.9,67.9 58.8,71.5 C47.7,75.1 25.5,75.2 14.1,67.5 Z" id="Shape" fill="#8D674A"/>
            <ellipse id="Oval" fill="#332010" cx="53" cy="34.3" rx="1.6" ry="2.5"/>
            <ellipse id="Oval" fill="#332010" cx="28.7" cy="34.3" rx="1.6" ry="2.5"/>
            <path d="M30.9,63.9 C30.9,63.9 37,71.5 43.2,64.2 C43.2,64.2 49.6,63.3 49.6,57.2 C49.6,51.1 46.4,34.4 38.5,34.7 C33.5,34.9 26.2,48.1 26.2,56 C26.2,63.9 30.9,63.9 30.9,63.9 Z" id="Shape" fill="#9E7B5C"/>
            <path d="M37,56.7 C37,56.7 37.1,57 37.2,57.6 C37.3,58.1 37.3,58.8 37.3,59.5 C37.3,60.2 37.2,60.9 37.2,61.4 C37.1,61.9 37,62.3 37,62.3 C37,62.3 36.9,62 36.8,61.4 C36.7,60.9 36.7,60.2 36.7,59.5 C36.7,58.8 36.8,58.1 36.8,57.6 C36.9,57 37,56.7 37,56.7 Z" id="Shape" fill="#59402F"/>
            <path d="M32.7,62.9 C32.7,62.9 33.2,62.6 34,62.4 C34.4,62.3 34.9,62.2 35.4,62.1 C35.9,62 36.5,62 37.1,61.9 C37.7,61.9 38.3,61.9 38.8,62 C39.3,62.1 39.8,62.2 40.2,62.3 C40.6,62.4 40.9,62.6 41.2,62.7 C41.4,62.8 41.5,62.9 41.5,62.9 C41.5,62.9 41.4,62.9 41.1,62.8 C40.9,62.7 40.5,62.7 40.1,62.6 C39.3,62.5 38.2,62.4 37.1,62.4 C36,62.4 34.9,62.5 34.1,62.6 C33.3,62.8 32.7,62.9 32.7,62.9 Z" id="Shape" fill="#59402F"/>
            <path d="M37.2,50.5 C39.4,50.6 42.7,50.9 43,53.3 C43.3,55.7 40.7,55.1 39.8,55.8 C39,56.5 39,58.3 36.2,58.2 C34.6,58.1 34.3,55.7 33.4,55.7 C32.5,55.7 31.3,54.4 31.3,53.4 C31.4,52.5 32.9,50.3 37.2,50.5 Z" id="Shape" fill="#332721"/>
            <path d="M42.9,33.6 C42.9,33.6 42.8,33.6 42.6,33.5 C42.4,33.4 42.1,33.4 41.8,33.3 C41.2,33.2 40.4,33.1 39.5,33.1 C38.7,33.1 37.8,33.1 37.2,33.2 C36.5,33.2 36.1,33.2 36.1,33.2 C36.1,33.2 36.5,33 37.1,32.8 C37.7,32.6 38.6,32.4 39.5,32.4 C39.9,32.4 40.4,32.4 40.8,32.5 C41.2,32.6 41.6,32.7 41.9,32.8 C42.2,32.9 42.4,33.1 42.6,33.2 C42.8,33.5 42.9,33.6 42.9,33.6 Z" id="Shape" fill="#59402F"/>
            <path d="M36.8,31.6 C36.8,31.6 37.1,31.4 37.5,31.3 C37.9,31.2 38.5,31.1 39.1,31.1 C39.7,31.1 40.3,31.2 40.7,31.4 C41.1,31.6 41.4,31.8 41.4,31.8 C41.4,31.8 41.3,31.8 41.2,31.8 C41.1,31.8 40.9,31.8 40.7,31.8 C40.3,31.8 39.7,31.8 39.1,31.8 C38.5,31.8 38,31.8 37.5,31.8 C37.1,31.6 36.8,31.6 36.8,31.6 Z" id="Shape" fill="#59402F"/>
            <path d="M67.7,43.2 C67.7,43.2 68,43.8 68.2,44.7 C68.4,45.6 68.6,46.9 68.6,48.1 C68.6,48.4 68.6,48.7 68.6,49 C68.6,49.3 68.5,49.6 68.5,49.9 C68.5,50.2 68.4,50.5 68.4,50.7 C68.4,51 68.3,51.2 68.2,51.4 C68.1,51.9 67.9,52.2 67.8,52.5 C67.7,52.8 67.6,52.9 67.6,52.9 C67.6,52.9 67.6,52.7 67.6,52.5 C67.6,52.2 67.7,51.8 67.7,51.4 C67.8,50.5 67.9,49.3 67.9,48 C68,45.7 67.7,43.2 67.7,43.2 Z" id="Shape" fill="#59402F"/>
            <path d="M63.5,57.8 C63.5,57.8 63.5,58.3 63.2,59.1 C62.9,59.9 62.4,60.9 61.7,61.7 C61.4,62.1 61,62.5 60.6,62.9 C60.2,63.2 59.8,63.5 59.5,63.7 C59.2,63.9 58.8,64.1 58.6,64.2 C58.4,64.3 58.3,64.3 58.3,64.3 C58.3,64.3 58.4,64.2 58.6,64 C58.8,63.9 59,63.6 59.3,63.4 C59.9,62.9 60.6,62.1 61.3,61.3 C61.6,60.9 61.9,60.5 62.2,60.1 C62.5,59.7 62.7,59.3 62.9,59 C63.3,58.2 63.5,57.8 63.5,57.8 Z" id="Shape" fill="#59402F"/>
            <path d="M15.9,41.6 C15.9,41.6 15.9,42 15.8,42.6 C15.7,43.2 15.6,44 15.5,44.8 C15.4,45.6 15.3,46.4 15.3,47 C15.3,47.3 15.2,47.6 15.2,47.7 C15.2,47.9 15.2,48 15.2,48 C15.2,48 15,47.6 14.9,47 C14.8,46.7 14.8,46.3 14.8,45.9 C14.8,45.5 14.8,45.1 14.9,44.7 C15,43.9 15.2,43.1 15.5,42.5 C15.6,42 15.9,41.6 15.9,41.6 Z" id="Shape" fill="#59402F"/>
            <g transform="translate(15.000000, 48.000000)" fill="#59402F" id="Shape">
              <path d="M51.6,5.3 C51.6,5.3 51.7,5.5 51.7,5.7 C51.7,5.9 51.7,6.3 51.7,6.6 C51.7,6.9 51.5,7.2 51.4,7.5 C51.3,7.7 51.2,7.9 51.2,7.9 C51.2,7.9 51.1,7.7 51.1,7.5 C51.1,7.3 51.1,6.9 51.1,6.6 C51.1,6.3 51.3,6 51.4,5.7 C51.5,5.4 51.6,5.3 51.6,5.3 Z"/>
              <path d="M49.9,7.5 C49.9,7.5 49.9,7.7 50,7.9 C50,8.1 50,8.4 49.9,8.7 C49.8,9 49.7,9.3 49.6,9.5 C49.5,9.7 49.4,9.8 49.4,9.8 C49.4,9.8 49.4,9.6 49.3,9.4 C49.3,9.2 49.3,8.9 49.4,8.6 C49.5,8.3 49.6,8 49.7,7.8 C49.8,7.6 49.9,7.5 49.9,7.5 Z"/>
              <path d="M1,0.5 C1,0.5 1,0.7 1.1,0.9 C1.1,1.1 1.1,1.4 1,1.7 C0.9,2 0.8,2.3 0.7,2.5 C0.6,2.7 0.5,2.8 0.5,2.8 C0.5,2.8 0.5,2.6 0.4,2.4 C0.4,2.2 0.4,1.9 0.5,1.6 C0.6,1.3 0.7,1 0.8,0.8 C0.9,0.6 1,0.5 1,0.5 Z"/>
            </g>
            <path d="M16.8,51.3 C16.8,51.3 16.8,51.9 16.8,52.8 C16.8,53.2 16.8,53.7 16.9,54.3 C17,54.8 17,55.4 17.2,56 C17.4,57.1 17.8,58.2 18.2,59 C18.4,59.4 18.6,59.7 18.7,59.9 C18.8,60.1 18.9,60.3 18.9,60.3 C18.9,60.3 18.8,60.2 18.6,60 C18.4,59.8 18.1,59.5 17.9,59.2 C17.8,59 17.6,58.8 17.5,58.6 C17.4,58.4 17.2,58.1 17.1,57.9 C16.9,57.4 16.7,56.8 16.6,56.2 C16.5,55.6 16.4,55 16.4,54.4 C16.4,53.8 16.4,53.3 16.5,52.9 C16.5,51.8 16.8,51.3 16.8,51.3 Z" id="Shape" fill="#59402F"/>
            <g transform="translate(56.000000, 0.000000)" id="Shape">
              <path d="M0.3,8.1 C0.3,8.1 2.7,0.4 7.1,0.2 C11.5,-6.9388939e-16 21.5,5.3 12.6,16.8" fill="#8D674A"/>
              <path d="M7.2,2.6 C7.2,2.6 7.5,3.2 7.8,4.1 C7.9,4.6 8.1,5.1 8.1,5.7 C8.2,6.3 8.2,6.9 8.2,7.6 C8.2,7.9 8.1,8.2 8.1,8.6 C8,8.9 8,9.2 7.8,9.5 C7.7,9.8 7.6,10.1 7.4,10.3 C7.3,10.5 7.1,10.8 7,11 C6.7,11.4 6.4,11.7 6.2,11.8 C6,12 5.9,12.1 5.9,12.1 C5.9,12.1 6,12 6.2,11.7 C6.3,11.6 6.4,11.5 6.5,11.3 C6.6,11.1 6.7,10.9 6.8,10.8 C6.9,10.6 7,10.4 7.1,10.1 C7.2,9.9 7.3,9.6 7.4,9.3 C7.5,8.8 7.6,8.2 7.7,7.6 C7.7,7 7.8,6.4 7.7,5.8 C7.7,5.2 7.6,4.7 7.6,4.2 C7.3,3.2 7.2,2.6 7.2,2.6 Z" fill="#59402F"/>
              <g transform="translate(7.000000, 11.000000)" fill="#59402F">
                <path d="M1.5,0.5 C1.5,0.5 1.5,0.6 1.4,0.8 C1.3,1 1.1,1.2 0.9,1.4 C0.7,1.6 0.5,1.7 0.3,1.8 C0.1,1.9 0,1.9 0,1.9 C0,1.9 0,1.8 0.1,1.6 C0.2,1.4 0.4,1.2 0.6,1 C0.8,0.8 1,0.7 1.2,0.6 C1.4,0.5 1.5,0.5 1.5,0.5 Z"/>
                <path d="M2.6,1.9 C2.6,1.9 2.5,2.4 2.2,2.6 C1.9,2.9 1.5,2.9 1.4,2.9 C1.4,2.9 1.5,2.4 1.8,2.2 C2.1,1.9 2.6,1.9 2.6,1.9 Z"/>
              </g>
            </g>
            <g transform="translate(11.000000, 0.000000)" id="Shape">
              <path d="M16.5,8.1 C16.5,8.1 14.1,0.4 9.7,0.2 C5.3,8.32667268e-17 -4.7,5.3 4.2,16.8" fill="#8D674A"/>
              <path d="M9.6,2.6 C9.6,2.6 9.5,3.2 9.4,4.2 C9.4,4.7 9.3,5.2 9.3,5.8 C9.3,6.4 9.3,7 9.3,7.6 C9.3,8.2 9.4,8.8 9.6,9.3 C9.7,9.6 9.7,9.8 9.9,10.1 C10,10.3 10.1,10.6 10.2,10.8 C10.3,11 10.4,11.2 10.5,11.3 C10.6,11.5 10.7,11.6 10.8,11.7 C11,11.9 11.1,12.1 11.1,12.1 C11.1,12.1 11,12 10.8,11.8 C10.6,11.6 10.3,11.4 10,11 C9.8,10.8 9.7,10.6 9.6,10.3 C9.4,10.1 9.4,9.8 9.2,9.5 C9.1,9.2 9,8.9 8.9,8.6 C8.9,8.3 8.8,8 8.8,7.6 C8.8,7 8.8,6.3 8.9,5.7 C9,5.1 9.1,4.6 9.2,4.1 C9.3,3.2 9.6,2.6 9.6,2.6 Z" fill="#59402F"/>
              <g transform="translate(7.000000, 11.000000)" fill="#59402F">
                <path d="M1.3,0.5 C1.3,0.5 1.4,0.5 1.6,0.6 C1.8,0.7 2,0.8 2.2,1 C2.4,1.2 2.6,1.4 2.7,1.6 C2.8,1.8 2.8,1.9 2.8,1.9 C2.8,1.9 2.7,1.9 2.5,1.8 C2.3,1.7 2.1,1.6 1.9,1.4 C1.7,1.2 1.5,1 1.4,0.8 C1.3,0.7 1.3,0.5 1.3,0.5 Z"/>
                <path d="M0.2,1.9 C0.2,1.9 0.7,2 1,2.2 C1.3,2.4 1.4,2.9 1.4,2.9 C1.4,2.9 0.9,2.8 0.6,2.6 C0.4,2.3 0.2,1.9 0.2,1.9 Z"/>
              </g>
            </g>
            <path d="M68.8,16.4 C68.8,16.4 69.2,16.7 69.8,17.3 C70.4,17.9 71.2,18.9 72,20.1 C72.4,20.7 72.8,21.4 73.2,22.1 C73.6,22.8 74,23.6 74.4,24.5 C74.8,25.3 75.1,26.2 75.5,27.1 C75.8,28 76.2,28.9 76.4,29.9 C76.7,30.8 76.9,31.8 77.2,32.7 C77.5,33.6 77.7,34.5 78,35.4 C78.6,37.1 79.1,38.8 79.6,40.1 C80.1,41.5 80.6,42.6 81.1,43.3 C81.3,43.7 81.5,43.9 81.7,44.1 C81.9,44.3 82,44.3 82,44.3 C82,44.3 81.9,44.3 81.7,44.1 C81.5,44 81.3,43.7 81,43.4 C80.5,42.7 79.9,41.6 79.3,40.3 C78.7,39 78.1,37.4 77.5,35.6 C77.2,34.7 76.9,33.8 76.6,32.9 C76.3,32 76,31 75.8,30.1 C75.5,29.2 75.2,28.2 74.9,27.3 C74.6,26.4 74.2,25.5 73.9,24.7 C73.5,23.9 73.2,23.1 72.8,22.3 C72.4,21.6 72,20.9 71.7,20.2 C71,19 70.3,18 69.7,17.3 C69.1,16.7 68.8,16.4 68.8,16.4 Z" id="Shape" fill="#59402F"/>
            <path d="M79,43.4 C79,43.4 79.3,43.9 79.7,44.7 C79.9,45.1 80,45.6 80.1,46.1 C80.2,46.6 80.3,47.2 80.3,47.8 C80.3,48.4 80.3,48.9 80.2,49.5 C80.1,50 80,50.5 79.9,50.9 C79.8,51.3 79.6,51.6 79.6,51.9 C79.5,52.1 79.5,52.3 79.5,52.3 C79.5,52.3 79.5,52.2 79.5,51.9 C79.5,51.7 79.6,51.3 79.6,50.9 C79.6,50.5 79.7,50 79.7,49.5 C79.7,49 79.7,48.4 79.7,47.9 C79.7,46.8 79.5,45.7 79.4,44.9 C79.2,44 79,43.4 79,43.4 Z" id="Shape" fill="#59402F"/>
            <path d="M78,49.8 C78,49.8 78.1,50.4 78.3,51.3 C78.4,52.2 78.4,53.4 78.3,54.6 C78.2,55.8 77.9,57 77.6,57.8 C77.4,58.2 77.2,58.5 77.1,58.8 C77,59 76.9,59.1 76.9,59.1 C76.9,59.1 76.9,59 77,58.7 C77.1,58.5 77.2,58.1 77.3,57.7 C77.5,56.9 77.6,55.7 77.7,54.5 C77.8,53.3 77.9,52.2 77.9,51.3 C77.9,50.4 78,49.8 78,49.8 Z" id="Shape" fill="#59402F"/>
            <path d="M75.6,57 C75.6,57 75.6,57.8 75.4,59 C75.3,59.6 75.1,60.3 74.9,61 C74.7,61.7 74.4,62.5 74,63.2 C73.8,63.6 73.6,63.9 73.4,64.3 C73.2,64.6 73,65 72.7,65.3 C72.5,65.6 72.2,65.9 72,66.1 C71.7,66.3 71.5,66.6 71.3,66.8 C71.1,67 70.8,67.1 70.6,67.3 C70.4,67.4 70.2,67.5 70,67.6 C69.7,67.7 69.5,67.8 69.5,67.8 C69.5,67.8 69.7,67.7 69.9,67.5 C70,67.4 70.2,67.3 70.4,67.1 C70.6,66.9 70.8,66.7 71,66.5 C71.2,66.3 71.4,66 71.6,65.8 C71.8,65.5 72,65.2 72.2,65 C72.6,64.4 73,63.7 73.3,63 C73.5,62.6 73.6,62.3 73.8,61.9 C73.9,61.5 74.1,61.2 74.2,60.9 C74.5,60.2 74.7,59.6 74.9,59 C75.4,57.8 75.6,57 75.6,57 Z" id="Shape" fill="#59402F"/>
            <path d="M15,16.1 C15,16.1 14.7,16.5 14.1,17.1 C13.5,17.8 12.8,18.8 12,20 C11.2,21.3 10.3,22.8 9.5,24.4 C9.1,25.2 8.6,26.1 8.3,27 C7.9,27.9 7.5,28.8 7.1,29.7 C6.4,31.6 5.7,33.5 5.1,35.2 C4.5,37 3.8,38.6 3.2,40 C2.6,41.4 2,42.5 1.6,43.3 C1.4,43.7 1.1,43.9 0.9,44.1 C0.7,44.2 0.6,44.3 0.6,44.3 C0.6,44.3 0.7,44.3 0.9,44.1 C1.1,43.9 1.3,43.7 1.5,43.3 C1.9,42.5 2.4,41.4 2.9,40 C3.4,38.6 4,36.9 4.6,35.2 C5.2,33.4 5.8,31.5 6.6,29.7 C7,28.8 7.4,27.8 7.8,26.9 C8.2,26 8.7,25.1 9.1,24.3 C9.6,23.5 10,22.7 10.5,22 C11,21.3 11.4,20.6 11.9,20 C12.8,18.8 13.6,17.8 14.2,17.2 C14.6,16.4 15,16.1 15,16.1 Z" id="Shape" fill="#59402F"/>
            <path d="M3.3,43.4 C3.3,43.4 3.1,43.9 3,44.8 C2.9,45.6 2.7,46.7 2.7,47.8 C2.7,48.3 2.7,48.9 2.7,49.4 C2.7,49.9 2.8,50.4 2.8,50.8 C2.8,51.2 2.9,51.6 2.9,51.8 C2.9,52 2.9,52.2 2.9,52.2 C2.9,52.2 2.8,52.1 2.8,51.8 C2.7,51.6 2.6,51.2 2.5,50.8 C2.4,50.4 2.3,49.9 2.2,49.4 C2.1,48.9 2.1,48.3 2.1,47.7 C2.1,47.1 2.2,46.6 2.3,46 C2.4,45.5 2.6,45 2.7,44.6 C3,43.9 3.3,43.4 3.3,43.4 Z" id="Shape" fill="#59402F"/>
            <path d="M4.4,49.8 C4.4,49.8 4.4,50.4 4.5,51.3 C4.6,52.2 4.6,53.3 4.7,54.5 C4.8,55.7 4.9,56.8 5.1,57.7 C5.2,58.1 5.3,58.5 5.4,58.7 C5.5,58.9 5.5,59.1 5.5,59.1 C5.5,59.1 5.4,59 5.3,58.8 C5.1,58.6 5,58.3 4.8,57.8 C4.4,57 4.2,55.8 4.1,54.6 C4,53.4 4,52.2 4.1,51.3 C4.2,50.4 4.4,49.8 4.4,49.8 Z" id="Shape" fill="#59402F"/>
            <path d="M6.7,57 C6.7,57 6.9,57.8 7.3,58.9 C7.5,59.5 7.7,60.1 8,60.8 C8.1,61.1 8.3,61.5 8.4,61.8 C8.5,62.2 8.7,62.5 8.9,62.9 C9.2,63.6 9.6,64.3 10,64.9 C10.2,65.2 10.4,65.5 10.6,65.7 C10.8,65.9 11,66.2 11.2,66.4 C11.4,66.6 11.6,66.8 11.8,67 C12,67.2 12.1,67.3 12.3,67.4 C12.6,67.6 12.7,67.7 12.7,67.7 C12.7,67.7 12.5,67.6 12.2,67.5 C12,67.4 11.8,67.3 11.6,67.2 C11.4,67.1 11.2,66.9 10.9,66.7 C10.7,66.5 10.4,66.3 10.2,66 C9.9,65.8 9.7,65.5 9.5,65.2 C9.3,64.9 9.1,64.6 8.8,64.2 C8.6,63.9 8.4,63.5 8.2,63.1 C7.9,62.4 7.5,61.6 7.3,60.9 C7.1,60.2 6.9,59.5 6.8,58.9 C6.7,57.8 6.7,57 6.7,57 Z" id="Shape" fill="#59402F"/>
            <path d="M56.6,8.9 C56.6,8.9 56.7,7.8 57.2,6.1 C57.5,5.3 57.8,4.4 58.4,3.4 C59,2.5 59.7,1.6 60.7,0.9 C61.2,0.6 61.7,0.3 62.3,0.2 C62.9,0.1 63.4,0 64,0 C64.6,0 65.1,0.1 65.6,0.3 C66.1,0.4 66.5,0.6 66.9,0.8 C67.3,1 67.6,1.2 67.9,1.4 C68.2,1.6 68.4,1.8 68.6,1.9 C69,2.2 69.2,2.4 69.2,2.4 C69.2,2.4 69,2.3 68.5,2 C68.1,1.7 67.4,1.4 66.7,1.1 C66.3,0.9 65.9,0.8 65.4,0.7 C64.9,0.6 64.5,0.5 64,0.5 C63.5,0.5 63,0.6 62.5,0.7 C62,0.9 61.5,1.1 61.1,1.4 C60.2,2 59.5,2.8 58.9,3.7 C58.3,4.6 57.9,5.4 57.6,6.2 C56.9,7.8 56.6,8.9 56.6,8.9 Z" id="Shape" fill="#59402F"/>
            <path d="M14.4,2.4 C14.4,2.4 14.6,2.2 15,1.9 C15.2,1.7 15.5,1.6 15.7,1.4 C16,1.2 16.3,1 16.7,0.8 C16.9,0.7 17.1,0.6 17.3,0.5 C17.5,0.4 17.8,0.4 18,0.3 C18.2,0.2 18.5,0.2 18.8,0.1 C19.1,0.1 19.3,-8.32667268e-17 19.6,-8.32667268e-17 C19.9,-8.32667268e-17 20.2,-8.32667268e-17 20.5,-8.32667268e-17 C20.8,-8.32667268e-17 21.1,0.1 21.4,0.2 C21.7,0.2 22,0.4 22.2,0.5 C22.5,0.6 22.8,0.7 23,0.9 C23.5,1.3 24,1.6 24.4,2 C24.8,2.4 25.2,2.8 25.5,3.3 C25.8,3.8 26.1,4.2 26.3,4.7 C26.5,5.2 26.7,5.6 26.9,6 C27.1,6.4 27.2,6.8 27.3,7.1 C27.4,7.4 27.5,7.7 27.5,8 C27.6,8.5 27.7,8.8 27.7,8.8 C27.7,8.8 27.6,8.5 27.4,8.1 C27.3,7.9 27.2,7.6 27,7.3 C26.9,7 26.7,6.6 26.5,6.2 C26.3,5.8 26.1,5.4 25.9,5 C25.7,4.6 25.3,4.2 25.1,3.7 C24.8,3.2 24.4,2.9 24.1,2.5 C23.8,2.1 23.3,1.8 22.8,1.5 C22.6,1.3 22.3,1.3 22.1,1.1 C21.9,1 21.6,0.9 21.3,0.8 C21,0.7 20.8,0.7 20.5,0.6 C20.2,0.6 20,0.6 19.7,0.6 C19.4,0.6 19.2,0.6 18.9,0.7 C18.7,0.7 18.4,0.7 18.2,0.8 C18,0.9 17.7,0.9 17.5,1 C17.3,1.1 17.1,1.1 16.9,1.2 C16.1,1.5 15.5,1.8 15,2.1 C14.6,2.2 14.4,2.4 14.4,2.4 Z" id="Shape" fill="#59402F"/>
            <path d="M26.6,6.2 C26.6,6.2 27,6 27.8,5.7 C28.6,5.4 29.7,5 31.2,4.6 C31.9,4.4 32.7,4.2 33.5,4 C34.3,3.8 35.2,3.7 36.1,3.5 C37,3.4 38,3.3 38.9,3.2 C39.9,3.2 40.8,3.1 41.8,3.1 L43.3,3.1 C43.8,3.1 44.3,3.2 44.8,3.2 C45.3,3.2 45.8,3.3 46.2,3.3 C46.7,3.4 47.1,3.4 47.6,3.5 C48.1,3.6 48.5,3.6 48.9,3.7 C49.3,3.8 49.7,3.9 50.2,4 C50.6,4.1 51,4.2 51.4,4.3 C51.8,4.4 52.1,4.5 52.5,4.7 C53.2,4.9 53.8,5.2 54.4,5.4 C54.9,5.7 55.4,5.9 55.8,6.1 C56.6,6.5 57,6.7 57,6.7 C57,6.7 56.5,6.5 55.7,6.2 C55.3,6 54.8,5.9 54.3,5.7 C53.7,5.5 53.1,5.3 52.4,5.1 C52.1,5 51.7,4.9 51.3,4.8 C50.9,4.7 50.5,4.6 50.1,4.6 C49.7,4.5 49.3,4.4 48.8,4.3 C48.4,4.2 47.9,4.2 47.5,4.1 C47.1,4 46.6,4 46.1,3.9 C45.6,3.9 45.2,3.8 44.7,3.8 C44.2,3.8 43.7,3.7 43.3,3.7 L41.9,3.7 C40.9,3.7 40,3.7 39,3.8 C38.1,3.9 37.1,4 36.2,4.1 C35.3,4.2 34.4,4.3 33.6,4.5 C32.8,4.6 32,4.8 31.3,4.9 C29.9,5.2 28.7,5.5 27.9,5.8 C27.1,6 26.6,6.2 26.6,6.2 Z" id="Shape" fill="#59402F"/>
            <path d="M33.7,66.5 C33.7,66.5 34.2,66.6 34.9,66.8 C35.3,66.9 35.7,67 36.1,67 C36.5,67.1 37,67.1 37.5,67.1 C38,67.1 38.4,67.1 38.8,67 C39,66.9 39.2,66.9 39.4,66.9 C39.6,66.8 39.8,66.8 39.9,66.7 C40.2,66.6 40.5,66.4 40.7,66.3 C40.9,66.2 41,66.1 41,66.1 C41,66.1 40.9,66.2 40.8,66.4 C40.7,66.6 40.4,66.8 40.1,67 C39.9,67.1 39.8,67.2 39.6,67.3 C39.4,67.4 39.2,67.5 38.9,67.5 C38.4,67.6 37.9,67.7 37.4,67.6 C36.4,67.6 35.4,67.3 34.7,66.9 C34.1,66.8 33.7,66.5 33.7,66.5 Z" id="Shape" fill="#59402F"/>
            <path d="M56.8,28 C56.8,29 53.7,29.5 52.4,29.5 C51.1,29.5 49.9,28.7 49.9,27.6 C49.9,26.6 51,25.7 52.4,25.7 C53.8,25.7 56.8,27 56.8,28 Z" id="Shape" fill="#9E7B5C"/>
            <path d="M25.9,28 C25.9,29 29,29.5 30.3,29.5 C31.6,29.5 32.8,28.7 32.8,27.6 C32.8,26.6 31.7,25.7 30.3,25.7 C28.9,25.7 25.9,27 25.9,28 Z" id="Shape" fill="#9E7B5C"/>
          </g>
          <path d="M14.6,67.8 C14.6,67.8 15.7,68.4 17.3,69.2 C18.1,69.6 19.1,70 20.2,70.4 C21.3,70.8 22.4,71.2 23.6,71.5 C24.2,71.7 24.8,71.8 25.3,72 C25.9,72.2 26.5,72.2 27,72.3 C27.6,72.4 28.1,72.5 28.6,72.6 C29.1,72.7 29.6,72.7 30.1,72.8 C30.6,72.8 31,72.9 31.3,72.9 C31.7,72.9 32,72.9 32.3,73 C32.8,73 33.1,73.1 33.1,73.1 C33.1,73.1 32.8,73.1 32.3,73.2 C31.8,73.2 31,73.3 30.1,73.3 C29.6,73.3 29.1,73.3 28.6,73.2 C28.1,73.1 27.5,73.1 26.9,73 C26.3,72.9 25.7,72.8 25.1,72.7 C24.5,72.6 23.9,72.5 23.3,72.3 C22.1,72 21,71.5 19.9,71.1 C18.8,70.7 17.9,70.2 17.1,69.7 C15.5,68.5 14.6,67.8 14.6,67.8 Z" id="Shape" fill="#59402F"/>
        </g>
        <g id="Group" transform="translate(73.000000, 73.000000)">
          <g id="Shape">
            <g fill="#8D674A">
              <path d="M16.2,20.1 C16.4,40.1 19.6,44.9 19.3,50.9 C19,56.9 10.1,69.4 6.3,77.4 C3.9,82.4 2,86.1 0.8,89 C-0.4,91.9 4.1,98.9 20,91.2 C25.1,88.7 54.7,58.3 57,36.9 C55,-7.5 15.8,-7.9 16.2,20.1 Z"/>
              <path d="M52.1,15.9 C52.1,15.9 58.3,27.5 60.5,27.8 C60.5,27.8 58.1,29 56.8,27.2 C56.8,27.2 60.4,29.8 60.4,34 L57.9,32.5 C57.9,32.5 60.2,39.1 59,43 L57.1,39.6 C57.1,39.6 58.8,46.1 54.1,48.6"/>
            </g>
            <path d="M60.4,27.7 C60.4,27.7 60.2,27.6 59.9,27.5 C59.6,27.3 59.2,27 58.7,26.6 C57.8,25.8 56.8,24.5 55.9,23.2 C55.7,22.9 55.5,22.5 55.3,22.2 C55.1,21.9 54.9,21.5 54.7,21.2 C54.3,20.5 54.1,19.9 53.8,19.4 C53.6,18.9 53.4,18.4 53.3,18.1 C53.2,17.8 53.1,17.6 53.1,17.6 C53.1,17.6 53.5,18.3 54.2,19.3 C54.8,20.3 55.6,21.7 56.5,23 C57.3,24.3 58.3,25.6 59,26.5 C59.4,26.9 59.7,27.3 60,27.5 C60.2,27.6 60.4,27.7 60.4,27.7 Z" fill="#59402F"/>
            <path d="M60.3,33.9 C60.3,33.9 60.2,33.5 60,32.9 C59.8,32.3 59.6,31.5 59.3,30.8 C59.1,30.4 59,30.1 58.8,29.7 C58.6,29.4 58.4,29.1 58.3,28.8 C58.1,28.6 58,28.3 57.8,28.2 C57.7,28.1 57.6,28 57.6,28 C57.6,28 57.7,28 57.9,28.1 C58.1,28.2 58.3,28.3 58.5,28.5 C58.7,28.7 59,29 59.3,29.3 C59.5,29.6 59.7,30 59.9,30.4 C60.1,30.8 60.2,31.2 60.3,31.6 C60.4,32 60.4,32.4 60.4,32.7 C60.4,33.5 60.3,33.9 60.3,33.9 Z" fill="#59402F"/>
            <path d="M59,42.5 C59,42.5 59.2,41.9 59.3,40.9 C59.3,40.4 59.3,39.9 59.3,39.3 C59.3,38.7 59.2,38.1 59.1,37.5 C59,36.9 58.9,36.3 58.8,35.7 C58.7,35.1 58.6,34.6 58.5,34.1 C58.4,33.6 58.3,33.2 58.3,33 C58.2,32.7 58.2,32.6 58.2,32.6 C58.2,32.6 58.3,32.7 58.4,33 C58.5,33.3 58.7,33.6 58.9,34.1 C59.1,34.6 59.3,35.1 59.4,35.7 C59.6,36.3 59.7,36.9 59.8,37.6 C59.9,38.2 59.9,38.9 59.9,39.5 C59.9,40.1 59.8,40.7 59.7,41.2 C59.6,41.7 59.4,42.1 59.3,42.3 C59.1,42.4 59,42.5 59,42.5 Z" fill="#59402F"/>
            <path d="M54.5,48.3 C54.5,48.3 55,48 55.5,47.3 C55.8,47 56,46.5 56.2,46 C56.4,45.5 56.6,45 56.7,44.4 C56.8,44.1 56.8,43.8 56.8,43.6 C56.8,43.3 56.9,43 56.9,42.8 C57,42.3 57,41.7 57,41.3 C57,40.9 57,40.5 57,40.2 C57,39.9 57,39.8 57,39.8 C57,39.8 57,39.9 57.1,40.2 C57.1,40.5 57.2,40.8 57.3,41.3 C57.3,41.7 57.4,42.3 57.4,42.8 C57.4,43.1 57.4,43.4 57.4,43.7 C57.4,44 57.3,44.3 57.3,44.6 C57.2,45.2 57,45.8 56.7,46.3 C56.6,46.6 56.4,46.8 56.3,47 C56.1,47.2 56,47.4 55.8,47.6 C55.5,47.9 55.1,48.1 54.9,48.2 C54.6,48.3 54.5,48.3 54.5,48.3 Z" fill="#59402F"/>
            <path d="M8.9,94.6 C8.9,94.6 8.8,94.3 8.7,93.8 C8.6,93.3 8.7,92.7 8.9,92.1 C9.1,91.5 9.4,90.9 9.7,90.6 C10,90.2 10.3,90 10.3,90 C10.3,90 10.3,90.1 10.2,90.2 C10.2,90.3 10.1,90.5 10,90.7 C9.9,91.1 9.7,91.7 9.5,92.2 C9.3,92.7 9.2,93.3 9.1,93.7 C9,94.3 8.9,94.6 8.9,94.6 Z" fill="#59402F"/>
            <path d="M4.6,94 C4.6,94 4.5,93.6 4.5,93.1 C4.5,92.6 4.6,91.8 4.9,91.2 C5,90.9 5.2,90.5 5.4,90.3 C5.6,90 5.8,89.8 6,89.6 C6.2,89.4 6.4,89.3 6.5,89.2 C6.6,89.1 6.7,89.1 6.7,89.1 C6.7,89.1 6.7,89.2 6.6,89.3 C6.5,89.4 6.4,89.6 6.3,89.9 C6,90.4 5.7,91 5.5,91.6 C5.2,92.2 5,92.9 4.9,93.4 C4.7,93.7 4.6,94 4.6,94 Z" fill="#59402F"/>
            <g transform="translate(0.000000, 32.000000)" fill="#59402F">
              <path d="M7.9,62.6 C7.9,62.6 9.1,62.6 11,62.2 C12,62 13.2,61.7 14.5,61.2 C15.8,60.8 17.3,60.1 18.8,59.3 C20.3,58.5 21.8,57.4 23.4,56.2 C24.9,54.9 26.4,53.5 27.8,51.9 C29.2,50.3 30.7,48.7 32.2,47 C33.7,45.3 35.2,43.6 36.6,41.8 C39.5,38.3 42.2,34.6 44.6,31 C45.8,29.2 46.9,27.5 48,25.8 C49.1,24.1 50,22.5 50.8,21 C51.6,19.5 52.3,18.1 52.9,16.8 C53.5,15.5 53.9,14.4 54.3,13.5 C54.6,12.6 54.9,11.8 55,11.3 C55.1,10.8 55.2,10.5 55.2,10.5 C55.2,10.5 55.1,11.7 54.5,13.6 C54,15.5 53,18.3 51.4,21.4 C49.9,24.5 47.8,28 45.4,31.6 C44.2,33.4 43,35.2 41.6,37.1 C40.2,38.9 38.8,40.7 37.3,42.5 C35.8,44.3 34.3,46 32.7,47.6 C31.2,49.3 29.6,50.8 28.1,52.4 C26.6,53.9 25.1,55.4 23.5,56.6 C21.9,57.8 20.3,58.8 18.8,59.6 C15.7,61.2 12.9,62 10.9,62.3 C9.1,62.7 7.9,62.6 7.9,62.6 Z"/>
              <path d="M3.3,61.8 C3.3,61.8 3,61.7 2.6,61.5 C2.2,61.2 1.6,60.7 1.3,59.9 C0.9,59.1 0.8,57.9 1.1,56.6 C1.4,55.3 1.9,54 2.7,52.6 C3.1,51.9 3.5,51.2 3.9,50.5 C4.3,49.8 4.7,49 5.1,48.2 C5.9,46.6 6.7,44.9 7.6,43.2 C8.4,41.4 9.3,39.6 10.2,37.8 C11.1,36 12.2,34.2 13.3,32.4 C14.4,30.6 15.5,28.9 16.4,27.1 C17.3,25.3 18,23.4 18.3,21.6 C18.7,19.7 18.6,17.9 18.4,16.1 C18.2,14.3 18.1,12.7 17.9,11.1 C17.7,9.6 17.5,8.1 17.3,6.9 C17.2,5.6 17.1,4.5 17,3.6 C17,2.7 16.9,2 16.9,1.5 C16.9,1 16.9,0.8 16.9,0.8 C16.9,0.8 17,1.8 17.2,3.6 C17.4,5.4 17.9,7.9 18.5,11 C18.8,12.5 19,14.2 19.2,16 C19.3,16.9 19.4,17.8 19.4,18.8 C19.4,19.8 19.3,20.8 19.2,21.7 C18.9,23.7 18.1,25.6 17.2,27.5 C16.3,29.3 15.1,31.1 14,32.9 C12.9,34.6 11.7,36.4 10.7,38.1 C9.7,39.9 8.9,41.7 8,43.4 C7.1,45.1 6.3,46.8 5.5,48.4 C5.1,49.2 4.7,50 4.2,50.7 C3.8,51.4 3.3,52.1 2.9,52.8 C2.1,54.1 1.5,55.4 1.2,56.7 C0.9,57.9 1,59.1 1.3,59.9 C1.6,60.7 2.2,61.2 2.6,61.5 C3.1,61.7 3.3,61.8 3.3,61.8 Z"/>
            </g>
            <path d="M11.6,94.8 C11.4,94.3 11.4,91.6 12.4,91.3 C13.4,91 13.1,92.2 12.8,93 C12.6,93.8 11.7,95.2 11.6,94.8 Z" fill="#6C5F57"/>
            <path d="M6,96.2 C5.8,95.7 5.8,93 6.8,92.7 C7.8,92.4 7.5,93.6 7.2,94.4 C7,95.2 6.1,96.6 6,96.2 Z" fill="#6C5F57"/>
            <path d="M2.1,94.8 C1.9,94.3 1.9,91.6 2.9,91.3 C3.9,91 3.6,92.2 3.3,93 C3,93.8 2.2,95.2 2.1,94.8 Z" fill="#6C5F57"/>
          </g>
          <path d="M34.1,2 C34.1,2 34.4,1.9 34.9,1.9 C35.4,1.9 36.1,1.8 36.9,1.9 C37.3,1.9 37.8,2 38.2,2.1 C38.7,2.2 39.2,2.3 39.7,2.4 C40.2,2.6 40.7,2.7 41.2,2.9 C41.7,3.1 42.2,3.3 42.7,3.6 C43.2,3.9 43.7,4.2 44.1,4.5 C44.6,4.8 44.9,5.2 45.3,5.5 C45.7,5.8 46,6.2 46.3,6.6 C46.6,6.9 46.9,7.3 47.1,7.7 C47.3,8 47.6,8.3 47.7,8.7 C47.8,9 48,9.3 48.1,9.5 C48.3,9.9 48.4,10.2 48.4,10.2 C48.4,10.2 48.2,10 48,9.6 C47.9,9.4 47.7,9.2 47.5,8.9 C47.3,8.6 47.1,8.4 46.8,8 C46.5,7.7 46.3,7.3 45.9,7 C45.6,6.7 45.2,6.3 44.8,6 C44.4,5.7 44,5.3 43.6,5.1 C43.2,4.8 42.7,4.5 42.2,4.3 C41.7,4 41.3,3.8 40.8,3.6 C40.3,3.4 39.8,3.2 39.3,3 C38.8,2.9 38.4,2.7 37.9,2.6 C37.5,2.5 37,2.4 36.6,2.3 C35.8,2.2 35.1,2.1 34.6,2 C34.4,2 34.1,2 34.1,2 Z" id="Shape" fill="#59402F"/>
        </g>
      </g>
    </g>
  </g>
</svg>