<svg width="136px" height="109px" viewBox="0 0 136 109" version="1.1" xml:space="preserve" xmlns="http://www.w3.org/2000/svg" xmlns:xlink="http://www.w3.org/1999/xlink">
  <!-- Generator: Sketch 48.2 (47327) - http://www.bohemiancoding.com/sketch -->
  <defs/>
  <g>
    <title>egg-b</title>
    <desc>Created with Sketch.</desc>
    <g id="food" stroke="none" stroke-width="1" fill="none" fill-rule="evenodd">
      <g id="egg-b" fill-rule="nonzero">
        <g id="scratch_fridge_egg02" transform="translate(32.000000, 2.000000)">
          <path d="M52.608,89.4942248 C52.608,89.4942248 51.628,86.2086047 51.504,86.4361628 L50.304,91.6260853 C50.304,91.6260853 49.94,93.2509302 50.26,93.5463566 C50.476,93.745969 51.376,92.3486822 51.928,91.0072868 L51.952,90.9474031 L52.608,89.4942248 Z" id="Shape" fill="#AAA082"/>
          <path d="M50.288,68.2315116 C50.588,74.9424806 51.172,87.4781395 51.644,93.8577519 C51.752,95.306938 51.644,96.4327519 51.948,96.4287597 C52.252,96.4247674 52.492,95.4865891 52.628,94.6122868 C52.712,94.0733333 52.8,93.6621318 52.956,93.6301938 C53.356,93.5503488 53.192,96.8000388 53.812,96.7162016 C54.432,96.6323643 54.064,93.6701163 54.884,93.3746899 C55.704,93.0792636 55.036,96.1692636 56.084,95.9456977 C56.376,95.8778295 56.516,92.6081783 56.72,88.9073643 C56.972,84.428062 58.572,62.2271705 53.828,61.9477132 C49.084,61.6682558 50.288,68.2315116 50.288,68.2315116 Z" id="Shape" fill="#DCD2B4"/>
          <path d="M11.748,89.4942248 C11.748,89.4942248 12.728,86.2086047 12.852,86.4361628 L14.052,91.6260853 C14.052,91.6260853 14.416,93.2509302 14.096,93.5463566 C13.88,93.745969 12.98,92.3486822 12.428,91.0072868 L12.404,90.9474031 L11.748,89.4942248 Z" id="Shape" fill="#AAA082"/>
          <path d="M14.068,68.2315116 C13.768,74.9424806 13.184,87.4781395 12.712,93.8577519 C12.604,95.306938 12.712,96.4327519 12.408,96.4287597 C12.104,96.4247674 11.864,95.4865891 11.728,94.6122868 C11.644,94.0733333 11.556,93.6621318 11.4,93.6301938 C11,93.5503488 11.164,96.8000388 10.544,96.7162016 C9.924,96.6323643 10.292,93.6701163 9.472,93.3746899 C8.652,93.0792636 9.32,96.1692636 8.272,95.9456977 C7.98,95.8778295 7.84,92.6081783 7.636,88.9073643 C7.384,84.428062 7.276,75.9046124 7.236,68.2315116 C7.236,68.2315116 6.52,62.9218217 10.704,62.5026357 C14.888,62.0834496 14.068,68.2315116 14.068,68.2315116 Z" id="Shape" fill="#DCD2B4"/>
          <path d="M17.6,73.8326357 C19.084,81.5057364 22.768,100.101628 22.872,101.315271 C21.776,101.566783 20.816,100.764341 19.7,101.163566 L19.568,101.997946 C19.8995089,102.357557 20.3874045,102.530828 20.872,102.461047 C21.672,102.461047 22.472,102.485 23.296,102.508953 C24.628,102.544884 24.552,102.592791 25.884,102.628721 C26.0391919,102.612148 26.1921015,102.578681 26.34,102.528915 C26.46,102.285388 27.176,65.9878682 21.036,65.8481395 C14.896,65.7084109 17.6,73.8326357 17.6,73.8326357 Z" id="Shape" fill="#AAA082"/>
          <path d="M42.828,100.836202 C43.472,99.395 46.524,81.900969 47.88,73.8286434 C47.88,73.8286434 49.48,67.7883721 43.776,66.5387984 C38.072,65.2892248 38.752,73.6569767 38.752,73.6569767 C39.056,83.4699225 39.052,102.377209 39.324,102.596783 C39.824,102.824341 43.324,102.28938 44.524,102.784419 C45.06,102.696589 45.548,102.588798 45.544,101.89814 C45.292,101.710504 43.412,101.997946 42.62,101.534845 C42.6757231,101.298141 42.7451734,101.064867 42.828,100.836202 Z" id="Shape" fill="#AAA082"/>
          <path d="M60.256,37.9024031 C57.576,25.3667442 51.576,10.331938 39.856,3.72476744 C36.932,2.07596899 33.148,0.0718604651 29.704,0.131744186 C27.6302981,0.262329998 25.5974626,0.766848779 23.704,1.62085271 C22.54,2.17577519 16.356,7.37767442 15.42,8.67914729 C10.22,15.933062 8.116,24.1930233 5.32,31.6066279 C3.204,37.1957752 2.088,43.1841473 1.1,49.0846899 C0.4,53.2486047 -0.256,58.4065891 0.572,62.5705039 C2.6,72.7427519 10.612,81.3340698 20.304,84.2324419 C21.792,84.6795736 26.764,86.7395736 33.104,86.8114341 C38.36,86.8713178 45.3,85.0628295 45.62,84.9231008 C57.42,79.8609302 60.488,65.3930233 61.056,61.4287209 C62.1214768,53.5977487 61.8509885,45.6432579 60.256,37.9024031 Z" id="Shape" fill="#F0E6D2"/>
          <path d="M6.204,66.95 C8.308,71.7406977 11.772,77.281938 16.36,78.9786434 C17.504,79.4018217 18.972,79.9008527 20.124,79.5934496 C20.8181701,79.3694689 21.4573506,79.0022103 22,78.5155426 C22.8205686,77.4260859 23.5294577,76.2571476 24.116,75.0263178 C25.176,71.7047674 25.092,68.2394961 25.316,65.0456977 C25.4348291,62.5996877 25.3505412,60.1480574 25.064,57.7159302 C24.9,55.9952713 24.628,53.8753876 23.948,52.2784884 C22.288,48.3740698 18.748,45.5874806 15.22,45.2002326 C13.7113222,44.9089053 12.1606778,44.9089053 10.652,45.2002326 C9.22893024,45.5941347 7.86880437,46.1868605 6.612,46.960814 C3.12,49.9350388 3.472,55.9713178 3.664,57.600155 C4.06050513,60.8215373 4.91580163,63.9699191 6.204,66.95 Z" id="Shape" fill="#FAF0E6"/>
          <path d="M25.276,35.0559302 C24.68,33.5109302 24.1,31.9539535 23.524,30.400969 C23.124,29.2671705 23.34,28.1453488 23.62,27.0315116 C23.836,26.1612016 24.084,25.298876 24.284,24.4245736 C24.572,23.1670155 24.808,21.8934884 25.108,20.6359302 C25.2731815,20.0776734 25.468126,19.5286223 25.692,18.991124 C25.456,18.3882946 25.152,17.7215891 24.928,17.026938 C24.104,14.4958527 20.928,3.30158915 20.928,3.30158915 C20.928,3.30158915 19.948,3.88046512 19.896,3.9203876 C20.3014181,5.05318836 20.6340923,6.2106244 20.892,7.38565891 C21.0189748,7.90373925 21.1752247,8.41423244 21.36,8.91468992 C21.588,9.71313953 21.8,10.4796512 22.028,11.2621318 C22.256,12.0446124 22.8,13.7772481 22.828,13.8291473 C23.228,15.4899225 24.244,18.8513953 24.244,18.8513953 C24.244,18.8513953 23.924,20.552093 23.732,21.3944574 C23.412,22.8117054 22.968,24.189031 22.588,25.6102713 C22.5148389,25.9076778 22.4679922,26.2109232 22.448,26.5165116 C22.34,27.7860465 21.852,28.2691085 20.572,28.4846899 C19.164,28.7202326 17.772,29.0076744 16.36,29.2831395 C16.2235455,29.3152934 16.0898077,29.3580066 15.96,29.4108915 C15.036,29.7462403 14.944,30.1694186 15.728,31.0636822 C16.128,30.884031 16.572,30.6644574 17.024,30.4927907 C17.4818428,30.2800595 17.962191,30.1193609 18.456,30.0137209 C19.532,29.8580233 20.62,29.7861628 21.676,29.6823643 C22.278501,30.3922149 22.7498274,31.2032717 23.068,32.0777132 C23.332,32.7284496 23.648,33.3552326 23.9,34.0099612 C24.152,34.6646899 24.3,35.2076357 24.5,35.8304264 C24.756,36.660814 24.992,37.499186 25.244,38.3295736 C25.432,38.9443798 26.668,41.9665116 26.876,42.7649612 C26.9256465,43.2623381 27.347211,43.6397989 27.848,43.6352713 L28.548,43.1681783 C28.176,42.3777132 25.924,36.7286822 25.276,35.0559302 Z" id="Shape" fill="#AAA082"/>
        </g>
      </g>
    </g>
  </g>
</svg>