<svg width="165px" height="137px" viewBox="0 0 165 137" version="1.1" xml:space="preserve" xmlns="http://www.w3.org/2000/svg" xmlns:xlink="http://www.w3.org/1999/xlink">
  <!-- Generator: Sketch 48.2 (47327) - http://www.bohemiancoding.com/sketch -->
  <defs/>
  <g>
    <title>max-a</title>
    <desc>Created with Sketch.</desc>
    <g id="basketball" stroke="none" stroke-width="1" fill="none" fill-rule="evenodd">
      <g id="max-a" fill-rule="nonzero">
        <g id="scratch_bball_player04a" transform="translate(11.000000, 7.000000)">
          <path d="M60.6315789,11.5748208 C54.2812188,20.1607818 47.8949584,35.9224104 67.4965097,44.0275896 C90.1376177,53.3828013 90.3530194,17.1839414 81.8885319,9.59560261 C77.7679778,5.90159609 74.8440997,5.46889251 70.3844875,5.70527687 C66.192133,5.92162866 61.7684211,10.0363192 60.6315789,11.5748208 Z" id="Shape" fill="#BE0A3C"/>
          <path d="M71.9800554,8.51785016 C63.4716898,8.51785016 62.6340166,18.4700326 62.9331856,19.7120521 C63.7788366,23.2017264 65.047313,27.3765147 68.6652632,28.8869707 C71.6768975,30.1450163 75.7096953,29.2435505 77.8916343,26.8236156 C79.8342382,24.6681107 82.1119114,18.4099349 81.3659834,15.5452769 C81.5215512,14.9963844 80.4844321,8.51785016 71.9800554,8.51785016 Z" id="Shape" fill="#A0640A"/>
          <path d="M79.2797784,23.8587948 C82.9934626,23.6224104 84.4214958,21.8234853 84.2220499,18.6783713 C83.9388366,14.207101 79.6786704,18.0132899 79.6786704,18.0132899 C79.6786704,18.0132899 78.8808864,22.9933876 79.2797784,23.8587948 Z" id="Shape" fill="#A0640A"/>
          <path d="M64.4170637,23.8587948 C60.7073684,23.6224104 59.2753463,21.8234853 59.4747922,18.6783713 C59.7580055,14.207101 64.0181717,18.0132899 64.0181717,18.0132899 C64.0181717,18.0132899 64.8159557,22.9933876 64.4170637,23.8587948 Z" id="Shape" fill="#A0640A"/>
          <path d="M72.3669806,21.182443 C72.4567935,21.1441837 72.5412696,21.0943519 72.6182825,21.034202 C72.6442984,20.8884659 72.6616146,20.7412977 72.6701385,20.5934853 C72.7499169,19.0469707 72.7578947,17.8209772 71.9082548,16.7151792 C70.9150139,16.542899 70.6836565,19.8843322 70.9309695,21.190456 C71.3948233,21.3624736 71.9050583,21.3596264 72.3669806,21.182443 Z" id="Shape" fill="#824600"/>
          <path d="M70.0254848,24.1031922 L73.8229363,23.9950163 C73.8229363,23.9950163 73.1448199,25.2450489 72.047867,25.1729316 C70.2688089,25.0567427 70.0254848,24.1031922 70.0254848,24.1031922 Z" id="Shape" fill="#000000"/>
          <path d="M77.0300277,17.7288274 C78.0033241,17.2159935 77.6203878,19.1711726 77.4289197,19.4876873 C76.5433795,19.4275896 76.6949584,18.3057655 77.0300277,17.7288274 Z" id="Shape" fill="#000000"/>
          <path d="M65.8171745,17.5445277 C66.786482,17.0357003 66.4035457,18.9908795 66.2160665,19.3073941 C65.3185596,19.2312704 65.4701385,18.1214658 65.8171745,17.5445277 Z" id="Shape" fill="#000000"/>
          <path d="M72.0359003,10.673355 L81.8845429,18.3899023 C81.8845429,18.3899023 82.9455956,12.3801303 78.7332964,9.64368078 C74.5209972,6.90723127 72.0359003,10.673355 72.0359003,10.673355 Z" id="Shape" fill="#A0001E"/>
          <path d="M62.0835457,19.5958632 L78.8689197,8.89045603 C78.8689197,8.89045603 70.260831,2.93276873 63.9782825,8.94654723 C59.0360111,13.6982736 62.0835457,19.5958632 62.0835457,19.5958632 Z" id="Shape" fill="#BE0A3C"/>
          <path d="M69.0083102,54.1600651 L49.5304155,66.9809121 C49.5304155,66.9809121 48.7326316,69.9337134 49.8216066,72.3576547 C50.794903,74.5051466 53.5113573,76.2159283 55.9565651,75.4707166 C64.2216066,72.9586319 66.5072576,82.0253746 80.0975069,75.7992508 C84.8842105,73.5996743 86.9504709,68.9200651 93.1492521,70.4465472 C95.8258172,71.1076221 98.0955125,70.11 99.1725208,68.8439414 C100.034834,67.7518621 100.461437,66.3764275 100.369197,64.9856678 L69.0083102,54.1600651 Z" id="Shape" fill="#005A5A"/>
          <rect id="Rectangle-path" fill="#000000" x="61.9040443" y="58.0984691" width="25.7404986" height="12.0235505"/>
          <polygon id="Shape" fill="#A0640A" points="56.3554571 91.4366775 51.6565097 89.4414332 56.407313 69.2005212 66.7545706 69.3527687 61.7085873 89.8180456"/>
          <polygon id="Shape" fill="#FAF0E6" points="50.5914681 93.2516287 45.485651 111.449218 55.0431025 110.60785 60.6874238 93.2516287 56.2437673 91.9455049"/>
          <polygon id="Shape" fill="#000000" points="68.5017175 73.4834853 71.7885873 61.9006515 55.5098061 62.5136482 52.8252632 73.4834853"/>
          <polygon id="Shape" fill="#00A08C" points="37.8189474 121.774007 44.4166205 120.912606 53.3717452 121.537622 53.1363989 122.839739 37.5078116 122.971954"/>
          <path d="M38.9996676,120.479902 C40.1897889,120.415158 41.3743897,120.271951 42.5458172,120.051205 L45.3380609,107.482769 L56.9617729,107.482769 L53.3717452,121.537622 L37.8149584,121.774007 C37.9722122,121.43391 38.1055038,121.083146 38.2138504,120.7243 C38.4646258,120.61026 38.7286119,120.528158 38.9996676,120.479902 Z" id="Shape" fill="#000000"/>
          <polygon id="Shape" fill="#00A08C" points="53.0645983 114.394007 47.9228809 114.225733 48.5850416 109.64228 54.3929086 109.558143"/>
          <polygon id="Shape" fill="#005A5A" points="43.9818283 110.479642 47.0333518 110.479642 47.2846537 109.698371 44.1214404 109.698371"/>
          <polygon id="Shape" fill="#00A08C" points="43.6347922 112.306612 46.6863158 112.306612 46.9376177 111.521336 43.7744044 111.521336"/>
          <polygon id="Shape" fill="#005A5A" points="43.2917452 114.129577 46.3392798 114.129577 46.5945706 113.3443 43.4313573 113.3443"/>
          <polygon id="Shape" fill="#00A08C" points="42.9447091 115.952541 45.9962327 115.952541 46.2475346 115.167264 43.0843213 115.167264"/>
          <polygon id="Shape" fill="#005A5A" points="42.5976731 117.775505 45.6491967 117.775505 45.9004986 116.994235 42.7372853 116.994235"/>
          <polygon id="Shape" fill="#F0E6D2" points="60.6874238 93.2516287 61.8362327 89.7218893 51.6565097 89.4414332 50.5914681 93.2516287"/>
          <polygon id="Shape" fill="#A0640A" points="93.3726316 96.1122801 99.0329086 89.4414332 93.4125208 67.8262866 82.4549584 68.2830293 88.980831 89.8180456"/>
          <polygon id="Shape" fill="#FAF0E6" points="90.273241 93.9567752 95.6503047 110.60785 105.203767 111.449218 100.32133 94.0409121 93.9550139 92.0737134"/>
          <polygon id="Shape" fill="#F0E6D2" points="100.32133 94.0409121 99.0329086 89.4414332 88.8571745 89.7218893 90.2612742 94.0409121"/>
          <polygon id="Shape" fill="#000000" points="97.0703601 73.4834853 93.9869252 62.1129967 77.8198338 62.4815961 81.3939058 73.4834853"/>
          <polygon id="Shape" fill="#00A08C" points="112.87446 121.774007 106.276787 120.912606 97.321662 121.537622 97.5570083 122.839739 113.185596 122.971954"/>
          <path d="M111.689751,120.479902 C110.498295,120.415322 109.312356,120.272114 108.139612,120.051205 L105.347368,107.482769 L93.7396122,107.482769 L97.3296399,121.537622 L112.886427,121.774007 C112.72899,121.433987 112.595693,121.08321 112.487535,120.7243 C112.2333,120.608386 111.965116,120.526229 111.689751,120.479902 Z" id="Shape" fill="#000000"/>
          <polygon id="Shape" fill="#00A08C" points="97.3814958 114.394007 102.527202 114.225733 101.865042 109.64228 96.0571745 109.558143"/>
          <polygon id="Shape" fill="#005A5A" points="106.711579 110.479642 103.660055 110.479642 103.408753 109.698371 106.571967 109.698371"/>
          <polygon id="Shape" fill="#00A08C" points="107.054626 112.306612 104.007091 112.306612 103.755789 111.521336 106.919003 111.521336"/>
          <polygon id="Shape" fill="#005A5A" points="107.401662 114.129577 104.350139 114.129577 104.098837 113.3443 107.26205 113.3443"/>
          <polygon id="Shape" fill="#00A08C" points="107.748698 115.952541 104.697175 115.952541 104.445873 115.167264 107.609086 115.167264"/>
          <polygon id="Shape" fill="#005A5A" points="108.095734 117.775505 105.044211 117.775505 104.792909 116.994235 107.956122 116.994235"/>
          <path d="M138.255956,9.19094463 C137.657618,7.85276873 143.317895,5.91361564 143.441551,4.83986971 C143.565208,3.76612378 137.733407,6.50257329 137.05928,6.19807818 C136.233573,5.82547231 141.092078,3.72605863 140.960443,2.38788274 C140.960443,2.17153094 132.503934,5.70527687 121.55036,11.0379479 C105.239668,18.9748534 81.4178393,30.8701954 81.4178393,30.8701954 L87.3573407,40.5659609 C87.3573407,40.5659609 143.254072,10.5972313 143.601108,9.19094463 C143.948144,7.78465798 138.854294,10.5291205 138.255956,9.19094463 Z" id="Shape" fill="#A0640A"/>
          <path d="M132.308476,0.340553746 C133.201994,1.64267101 130.637119,3.85026059 131.462825,5.21648208 C132.288532,6.58270358 134.717784,5.41680782 134.717784,8.49381107 C134.717784,11.5708143 133.018504,12.1477524 130.537396,12.6806189 C126.548476,13.538013 127.035125,8.02905537 127.745152,6.48654723 C128.267701,5.30462541 130.876454,0.649055375 132.308476,0.340553746 Z" id="Shape" fill="#824600"/>
          <path d="M123.604654,22.1600326 C122.407978,21.1303583 117.868587,12.6485668 118.175734,11.1060586 C118.482881,9.56355049 121.901385,8.22537459 124.043435,7.98899023 C124.721551,8.93452769 129.22903,17.071759 129.444432,18.8306189 C129.659834,20.5894788 124.793352,23.1897068 123.604654,22.1600326 Z" id="Shape" fill="#005A5A"/>
          <polygon id="Shape" fill="#00A08C" points="119.252742 9.27508143 126.033906 22.3363192 128.34349 21.0221824 121.865485 8.06511401"/>
          <path d="M7.10426593,70.0098371 C6.4301385,68.7037134 1.4001108,71.9610098 0.48265928,71.4000977 C-0.434792244,70.8391857 5.32121884,67.9344625 5.50470914,67.2132899 C5.72808864,66.3318567 1.07301939,68.8559609 0.111689751,67.9184365 C-0.0438781163,67.7701954 7.9499169,63.3229642 18.9114681,58.0063192 C35.2341274,50.0934528 61.4852078,38.3102932 61.4852078,38.3102932 L61.7763989,49.7128339 C61.7763989,49.7128339 5.09783934,74.8176547 3.7934626,74.204658 C2.48908587,73.5916612 7.77839335,71.3159609 7.10426593,70.0098371 Z" id="Shape" fill="#A0640A"/>
          <path d="M3.88919668,59.8332899 C4.34792244,61.3437459 7.6667036,60.6946906 8.21717452,62.193127 C8.76764543,63.6915635 6.35434903,64.8774919 8.75966759,66.7885993 C11.1649861,68.6997068 12.660831,67.7100977 14.6233795,66.1074919 C17.7586704,63.5112704 13.1634349,60.4623127 11.5239889,60.0576547 C10.2714681,59.733127 5.01806094,58.8957655 3.88919668,59.8332899 Z" id="Shape" fill="#824600"/>
          <path d="M26.3268698,66.5081433 C26.2590582,64.9335831 22.4655956,56.0912052 21.0694737,55.3740391 C19.6733518,54.656873 16.5101385,56.5158958 14.9903601,58.0543974 C15.3094737,59.1762215 18.8516343,67.790228 20.1001662,69.0402606 C21.3486981,70.2902932 26.3867036,68.1107492 26.3268698,66.5081433 Z" id="Shape" fill="#005A5A"/>
          <polygon id="Shape" fill="#00A08C" points="16.1830471 56.3957003 22.7248753 69.4449186 25.3057064 68.0827036 18.6282548 55.1817264"/>
          <polygon id="Shape" fill="#A0640A" points="79.5909141 31.4791857 83.3644321 42.8056026 66.985928 49.6327036 65.2906371 37.0802932"/>
          <path d="M82.3472576,29.0312052 L77.7320776,31.0825407 C77.7320776,31.0825407 78.601662,39.6003909 72.8536288,41.9882736 C67.1055956,44.3761564 66.2160665,34.8566775 66.2160665,34.8566775 L61.5011634,36.7036808 L49.5344044,66.9528664 C49.5344044,66.9528664 100.265485,64.9135505 100.373186,64.9496091 L82.3472576,29.0312052 Z" id="Shape" fill="#00A08C"/>
        </g>
      </g>
    </g>
  </g>
</svg>