<svg width="152px" height="150px" viewBox="0 0 152 150" version="1.1" xml:space="preserve" xmlns="http://www.w3.org/2000/svg" xmlns:xlink="http://www.w3.org/1999/xlink">
  <!-- Generator: Sketch 48.2 (47327) - http://www.bohemiancoding.com/sketch -->
  <defs/>
  <g>
    <title>sam-d</title>
    <desc>Created with Sketch.</desc>
    <g id="soccer" stroke="none" stroke-width="1" fill="none" fill-rule="evenodd">
      <g id="sam-d" fill-rule="nonzero">
        <g id="scratch_footie_player_boy04" transform="translate(34.000000, 4.000000)">
          <path d="M65.3103468,103.707758 L52.8738728,103.707758 C54.3825434,107.009466 58.0737572,114.536157 58.0737572,114.536157 C58.0737572,114.536157 64.8728324,114.877367 67.3872832,113.903915 C67.2263584,112.769893 66.0445665,106.713416 65.3103468,103.707758 Z" id="Shape" fill="#A0640A"/>
          <path d="M72.8687861,137.176441 L68.3427746,113.497473 L56.1979769,113.497473 C57.4602312,116.247224 58.7124277,118.811317 59.0141618,119.548932 C61.3777457,125.720819 67.296763,138.114769 67.502948,138.300427 C67.5280925,138.767082 67.347052,140.578505 68.0510983,140.809324 L68.5539884,140.598577 C68.4534104,139.805765 68.4332948,138.04452 68.4332948,138.04452 L69.8363584,137.979288 L69.9872254,140.322598 C70.2336991,140.463042 70.5403616,140.443302 70.7667052,140.27242 C70.7667052,140.27242 70.5102312,138.646655 70.8521965,137.964235 C71.9937572,137.964235 72.4111561,137.888968 72.5067052,137.999359 C72.6022543,138.109751 72.7983815,141.080285 73.6834682,140.116868 C73.4823121,139.399324 73.1001156,138.651673 73.4923699,137.863879 C74.0656647,137.919075 74.5685549,137.964235 74.8049133,138.27032 C75.0412717,138.576406 75.1569364,139.916157 75.4989017,140.177082 C75.6447399,140.031566 75.8760694,140.056655 75.9263584,140.006477 L75.4234682,137.944164 C75.9713728,137.886923 76.5230947,137.875175 77.072948,137.909039 C77.072948,137.909039 77.0075723,137.45242 76.9773988,137.321957 C76.0772254,137.271779 73.5728324,137.20153 72.8687861,137.176441 Z" id="Shape" fill="#000000"/>
          <polygon id="Shape" fill="#BE0A3C" points="59.3008092 123.799004 60.3619075 127.075623 66.1250289 126.724377 65.4159538 123.548114"/>
          <path d="M68.4986705,116.468007 C67.750738,116.470554 67.0035638,116.515788 66.2608092,116.603488 L66.2004624,116.603488 C63.0071098,117.742527 63.2987861,121.535979 63.9123121,124.521566 C64.7521387,128.601032 66.3563584,130.231815 69.9218497,131.862598 C70.5504624,131.862598 71.184104,131.952918 71.8127168,131.937865 C73.6231214,129.900641 75.1418497,130.527865 73.542659,123.141673 C71.9434682,115.75548 68.6193642,116.55331 68.4986705,116.468007 Z" id="Shape" fill="#F01446"/>
          <path d="M17.862659,103.707758 L30.2991329,103.707758 C28.7904624,107.009466 25.0992486,114.536157 25.0992486,114.536157 C25.0992486,114.536157 18.3253179,114.877367 15.7957803,113.888861 C15.9416185,112.769893 17.1284393,106.713416 17.862659,103.707758 Z" id="Shape" fill="#A0640A"/>
          <path d="M10.2991908,137.176441 L14.8252023,113.497473 L26.97,113.497473 C25.7077457,116.247224 24.4555491,118.811317 24.153815,119.548932 C21.7902312,125.720819 15.8712139,138.114769 15.6650289,138.300427 C15.6398844,138.767082 15.8209249,140.578505 15.1168786,140.809324 L14.6139884,140.598577 C14.7145665,139.805765 14.7346821,138.04452 14.7346821,138.04452 L13.3316185,137.979288 L13.1807514,140.322598 C12.9342778,140.463042 12.6276153,140.443302 12.4012717,140.27242 C12.4012717,140.27242 12.6577457,138.646655 12.3157803,137.964235 C11.1742197,137.964235 10.7568208,137.888968 10.6612717,137.999359 C10.5657225,138.109751 10.3695954,141.080285 9.48450867,140.116868 C9.68566474,139.399324 10.0678613,138.651673 9.67560694,137.863879 C9.10231214,137.919075 8.59942197,137.964235 8.36306358,138.27032 C8.1267052,138.576406 8.01104046,139.916157 7.66907514,140.177082 C7.52323699,140.031566 7.29190751,140.056655 7.2416185,140.006477 L7.74450867,137.944164 C7.19660405,137.886923 6.64488213,137.875175 6.0950289,137.909039 C6.0950289,137.909039 6.16040462,137.45242 6.19057803,137.321957 C7.09578035,137.271779 9.60017341,137.20153 10.2991908,137.176441 Z" id="Shape" fill="#000000"/>
          <polygon id="Shape" fill="#BE0A3C" points="23.8721965 123.799004 22.8110983 127.075623 17.0479769 126.724377 17.757052 123.548114"/>
          <path d="M14.6693064,116.468007 C15.4172389,116.470554 16.1644131,116.515788 16.9071676,116.603488 L16.9675145,116.603488 C20.1608671,117.742527 19.8691908,121.535979 19.2556647,124.521566 C18.4158382,128.601032 16.8116185,130.231815 13.2461272,131.862598 C12.6175145,131.862598 11.9838728,131.952918 11.3552601,131.937865 C9.54485549,129.900641 8.02612717,130.527865 9.62531792,123.141673 C11.2245087,115.75548 14.5536416,116.55331 14.6693064,116.468007 Z" id="Shape" fill="#F01446"/>
          <path d="M50.972948,33.2579359 C50.972948,33.2579359 56.7813295,34.8435587 58.3704624,29.3691459 C59.9595954,23.8947331 51.9586127,25.4251601 50.8924855,28.1799288 C50.4046821,29.4293594 50.972948,33.2579359 50.972948,33.2579359 Z" id="Shape" fill="#A0640A"/>
          <path d="M53.019711,13.9494662 C52.4765896,13.2921352 43.5754335,11.3753381 43.5754335,11.3753381 L23.9627168,22.0682562 C24.4363324,24.2875785 25.0665143,26.470737 25.8485549,28.6014235 C28.1165896,34.0306762 32.0592486,39.9265836 36.1779191,41.2362278 C38.4057225,41.9437367 46.9397688,42.8820641 51.2243931,38.2958007 C53.7086705,35.6363701 56.2884971,30.267331 56.1627746,24.3965125 C56.0672254,20.1514591 53.6734682,14.7422776 53.019711,13.9494662 Z" id="Shape" fill="#A0640A"/>
          <path d="M22.2931214,9.48864769 L22.8664162,9.13740214 C22.0014451,6.733879 19.909422,2.86516014 23.8721965,2.1124911 C26.2659538,1.64081851 29.8063006,4.27014235 30.5405202,6.49302491 C30.9378035,6.66362989 30.9378035,6.66362989 31.2998844,6.35252669 C30.9478613,4.52103203 30.1985549,2.25800712 31.7373988,0.832953737 C36.2935838,-1.77629893 38.5012717,4.68160142 41.0710405,7.22562278 L41.6242197,7.1252669 C42.0768208,5.11814947 40.6938728,2.28309609 43.7112139,2.20281139 C45.6875723,2.15263345 46.5927746,3.89380783 47.6086127,5.21348754 C49.997341,8.31950178 53.4019075,13.979573 53.4019075,13.979573 C53.4019075,13.979573 53.4371098,17.4468683 48.156763,18.4002491 C45.5216185,18.9020285 41.0408671,16.1773665 34.0758382,18.9020285 C27.1108092,21.6266904 27.2667052,31.0501068 27.2667052,31.0501068 C27.2667052,31.0501068 19.7233526,17.0253737 18.8734682,15.0333096 C18.219711,13.5279715 16.2383237,9.08220641 17.8676879,7.80266904 C19.1450289,6.78405694 21.2973988,8.81626335 22.2931214,9.48864769 Z" id="Shape" fill="#000000"/>
          <path d="M28.4384393,32.7561566 C28.4384393,32.7561566 22.6300578,34.3417794 21.0409249,28.8673665 C19.4517919,23.3929537 27.4527746,24.9233808 28.5189017,27.6781495 C29.0067052,28.9275801 28.4384393,32.7561566 28.4384393,32.7561566 Z" id="Shape" fill="#A0640A"/>
          <path d="M37.7419075,33.1676157 C40.7592486,32.6658363 43.6307514,32.9117082 46.6430636,33.2679715 C46.622948,38.2355872 36.2734682,38.1352313 37.7419075,33.1676157 Z" id="Shape" fill="#000000"/>
          <path d="M41.196763,28.7770463 C39.1298844,26.012242 45.3154335,22.5549822 46.6279769,26.8702847 C47.643815,30.2020996 43.2485549,29.1032028 41.196763,28.7770463 Z" id="Shape" fill="#824600"/>
          <path d="M35.2928324,26.498968 L35.0363584,27.5777936 L34.2920809,27.5777936 C33.9601734,26.3685053 34.6541618,24.4868327 35.2928324,26.498968 Z" id="Shape" fill="#000000"/>
          <path d="M50.8623121,27.1864057 L50.2588439,27.1864057 L49.8364162,25.8014947 C50.1683237,25.3348399 50.1683237,25.3348399 50.6259538,25.4201423 C50.9407055,25.9528394 51.0259655,26.5899718 50.8623121,27.1864057 Z" id="Shape" fill="#000000"/>
          <path d="M17.2591908,88.634306 L15.710289,97.5860498 C15.710289,97.5860498 16.122659,99.7537367 16.9423699,100.822527 L20.7542775,87.8916726 L17.2591908,88.634306 Z" id="Shape" fill="#A0640A"/>
          <path d="M62.5846821,86.8078292 L66.4720231,101.595267 C66.4720231,101.595267 66.9749133,91.4392527 70.4951445,88.6092171 L70.4951445,86.5519217 L62.5846821,86.8078292 Z" id="Shape" fill="#A0640A"/>
          <path d="M31.4256069,107.466085 L36.5701734,92.4127046 L46.009422,92.2671886 L46.009422,92.1417438 L51.0886127,107.942776 L68.0561272,107.942776 C66.1602312,99.1516014 61.4582081,77.9162989 60.4021387,75.5177936 C50.3443353,75.2970107 25.486474,72.6977936 25.486474,72.6977936 C25.486474,72.6977936 21.1314451,83.6867616 20.8699422,84.5096797 C20.199422,86.6606406 19.5104624,88.8099288 18.8030636,90.9575445 C16.896343,96.4691668 15.3673839,102.103761 14.226763,107.822349 L31.4256069,107.466085 Z" id="Shape" fill="#000000"/>
          <path d="M86.4417919,67.2384342 C86.1350289,64.7847331 83.0372254,57.5641281 79.3208671,54.9348043 C72.4564162,50.0625267 62.6651445,48.6725979 61.77,48.6725979 C61.77,48.6725979 57.5859538,48.7528826 56.9120809,53.4545552 C56.2382081,58.1562278 61.9409827,59.5461566 61.9409827,59.5461566 C68.1818497,59.5461566 74.1913873,62.1102491 76.1627168,68.6634875 C78.1340462,75.216726 74.9306358,78.8195018 73.4621965,80.8968683 C71.9937572,82.9742349 67.6286705,84.7254448 65.9439884,85.2623488 C64.2593064,85.7992527 61.3425434,85.0415658 59.9595954,86.2107117 C60.8195376,88.1877224 64.073237,86.7927758 65.3857803,88.7898577 C66.6983237,90.7869395 66.5072254,91.2987544 67.5683237,93.496548 C67.7745087,93.4162633 68.574104,91.9259786 69.1524277,91.2837011 C70.2386705,90.0342705 71.8328324,90.2098932 73.336474,89.7432384 C76.2597315,88.8408706 78.8609467,87.1181059 80.8295376,84.7806406 C84.2693064,80.7061922 87.1056069,72.5522776 86.4417919,67.2384342 Z" id="Shape" fill="#A0640A"/>
          <path d="M22.8010405,87.1640925 C22.0366474,86.4114235 19.8390173,87.299573 18.8634104,87.2293238 C17.7109134,87.0652695 16.6029405,86.6728762 15.6046821,86.0752313 C13.562948,84.8709609 11.8078613,82.4272954 10.5757803,80.2846975 C7.94063584,75.703452 7.65398844,69.8376512 11.6771098,64.2679004 C15.7002312,58.6981495 24.4002312,59.1748399 24.7271098,59.0393594 C24.7271098,59.0393594 29.2179191,58.6028114 28.8809827,53.1233808 C28.5440462,47.6439502 22.2880925,48.4467972 22.2880925,48.4467972 C17.9380925,48.3715302 11.5312717,50.5291815 5.99947977,55.3813879 C1.20693642,59.5862989 -0.538092486,67.9258719 0.563236994,73.7515302 C1.61415049,79.6076043 4.80567402,84.8661881 9.51971098,88.5088612 C10.9479191,89.6479004 13.9602312,90.3503915 15.0515029,91.7603915 C16.4344509,93.5567616 14.8754913,95.5137011 15.7153179,97.581032 C16.6909249,94.8262633 16.9826012,93.1051601 18.1593642,90.4658007 C18.7779191,89.0758719 19.1651445,88.7396797 20.5279769,88.4586833 C21.1213873,88.3131673 24.259422,88.5941637 22.8010405,87.1640925 Z" id="Shape" fill="#A0640A"/>
          <path d="M63.0926012,60.9009609 C63.0926012,60.9009609 66.3815029,48.1708185 66.3815029,47.7995018 C58.2525964,46.2506883 50.0123249,45.3546505 41.7398844,45.12 C28.4887283,44.7938434 16.3942197,47.965089 16.3942197,47.965089 C16.3137572,49.1292171 21.800289,60.4644128 21.800289,60.4644128 C23.6031217,60.7124214 25.4217588,60.8281411 27.2415607,60.8106406 C25.23,68.3624199 22.1472832,76.3658007 20.1457803,84.0329893 L42.6853179,83.1799644 L63.1680347,82.4022064 C62.0566474,77.5550178 59.0292486,68.9946619 57.0428324,61.1418149 C61.5537572,61.1769395 63.0926012,60.9009609 63.0926012,60.9009609 Z" id="Shape" fill="#F01446"/>
        </g>
      </g>
    </g>
  </g>
</svg>