<svg width="136px" height="142px" viewBox="0 0 136 142" version="1.1" xml:space="preserve" xmlns="http://www.w3.org/2000/svg" xmlns:xlink="http://www.w3.org/1999/xlink">
  <!-- Generator: Sketch 48.2 (47327) - http://www.bohemiancoding.com/sketch -->
  <defs/>
  <g>
    <title>milk-e</title>
    <desc>Created with Sketch.</desc>
    <g id="food" stroke="none" stroke-width="1" fill="none" fill-rule="evenodd">
      <g id="milk-e" fill-rule="nonzero">
        <g id="scratch_fridge_milk05" transform="translate(36.000000, 5.000000)">
          <path d="M30.744,13.8567946 C30.744,13.8567946 44.888,28.1996737 45.032,29.4642802 C43.548,29.5083013 20.576,33.5862572 20.576,33.5862572 L0.68,28.3437428 L30.744,13.8567946 Z" id="Shape" fill="#82001E"/>
          <path d="M45.428,1.42283109 L19.272,1.02263916 C19.272,1.35479846 19.02,6.6253263 19.424,7.11356046 C20.116,7.91394434 31.452,8.41018234 34.46,8.61828215 C35.86,8.71833013 45.66,7.19359885 45.66,7.19359885 C45.66,7.19359885 45.568,2.07914587 45.428,1.42283109 Z" id="Shape" fill="#BE0A3C"/>
          <path d="M0.68,28.3477447 L19.424,7.13757198 C19.424,7.13757198 32.116,10.7392994 34.424,13.2605086 C30.2,16.0578503 0.68,28.3477447 0.68,28.3477447 Z" id="Shape" fill="#FFC800"/>
          <path d="M63.568,29.2881958 C62.22,29.4722841 48.112,31.5452783 48.112,31.5452783 L39.688,29.1161132 C39.688,29.1161132 25.2,13.4806142 19.356,7.10555662 C21.356,6.40121881 45.66,7.18959693 45.66,7.18959693 C45.66,7.18959693 61.272,25.5143858 63.568,29.2881958 Z" id="Shape" fill="#F01446"/>
          <path d="M63.224,111.855797 L40.552,112.356036 L29.176,74.5899232 L39.688,29.1161132 L63.568,29.2881958 C63.568,29.2881958 63.88,81.9414491 63.688,91.3939827 C63.608,95.2798464 63.224,111.855797 63.224,111.855797 Z" id="Shape" fill="#BE0A3C"/>
          <path d="M39.688,29.1161132 C39.688,29.1161132 5.688,28.2516987 0.68,28.3477447 C0.424,33.0219866 2.768,87.7322265 3.28,97.3968618 C3.408,99.7980134 3.416,102.175154 3.484,104.564299 C3.52,105.83691 3.82,111.367562 3.82,111.367562 C3.82,111.367562 6.556,111.427591 7.744,111.475614 C10.008,111.563656 12.268,111.767754 14.544,111.827783 C19.124,111.943839 23.692,112.007869 28.272,112.187956 C30.392,112.271996 40.56,112.36404 40.56,112.36404 L39.688,29.1161132 Z" id="Shape" fill="#F01446"/>
          <path d="M32.528,37.4040883 C32.528,37.4040883 11.028,36.7837908 7.856,36.8518234 C7.692,40.2014299 9.36,98.4373608 9.856,99.2817658 C10.352,100.126171 11.584,99.822025 12.336,99.8540403 C13.768,99.918071 15.196,100.066142 16.632,100.106161 C19.528,100.190202 22.42,100.234223 25.316,100.366286 C26.656,100.426315 33.088,100.494347 33.088,100.494347 L32.528,37.4040883 Z" id="Shape" fill="#FFFFFF"/>
        </g>
      </g>
    </g>
  </g>
</svg>