<svg width="152px" height="136px" viewBox="0 0 152 136" version="1.1" xml:space="preserve" xmlns="http://www.w3.org/2000/svg" xmlns:xlink="http://www.w3.org/1999/xlink">
  <!-- Generator: Sketch 48.2 (47327) - http://www.bohemiancoding.com/sketch -->
  <defs/>
  <g>
    <title>jordyn-c</title>
    <desc>Created with Sketch.</desc>
    <g id="soccer" stroke="none" stroke-width="1" fill="none" fill-rule="evenodd">
      <g id="jordyn-c" fill-rule="nonzero">
        <g id="scratch_footie_player_girl03" transform="translate(8.000000, 8.000000)">
          <path d="M130.479705,39.5481928 C130.605166,38.8403614 134.795572,38.9859438 134.890923,38.5441767 C134.986273,38.1024096 88.9620664,36.8273092 87.2156458,36.310241 L87.7626568,44.8092369 C96.2438376,45.3463855 134.634982,44.3072289 134.991292,43.5090361 C135.347601,42.7108434 130.976531,43.7449799 130.800886,42.3945783 C130.62524,41.0441767 135.633653,41.3905622 135.854465,40.5773092 C136.075277,39.7640562 130.344207,40.2610442 130.479705,39.5481928 Z" id="Shape" fill="#DCAA78"/>
          <path d="M129.656679,35.4518072 C129.797196,36.184739 126.595424,37.1937751 126.103616,38.062249 C125.611808,38.9307229 127.107306,41.5060241 124.176531,41.7720884 C121.245756,42.0381526 121.034982,38.8955823 121.376236,37.876506 C121.717491,36.8574297 128.798524,34.7740964 129.656679,35.4518072 Z" id="Shape" fill="#BE8C64"/>
          <path d="M75.3971956,45.7630522 C78.9703321,45.7981928 88.8918081,45.8232932 88.8918081,45.8232932 L88.2092989,35.2811245 L78.7093727,35.2811245 C75.8789668,35.3363454 71.3372694,34.7791165 71.3372694,40.3313253 C71.3372694,45.8835341 75.2265683,45.7630522 75.3971956,45.7630522 Z" id="Shape" fill="#008264"/>
          <rect id="Rectangle-path" fill="#F01446" x="85.7101107" y="34.3825301" width="4.67217712" height="12.1837349"/>
          <path d="M89.2631734,87.876506 C88.9670849,86.2299197 87.1504059,82.8564257 83.5923247,83.0722892 C80.0342435,83.2881526 80.4708487,85.5823293 80.6715867,87.7961847 C80.6314391,88.6295181 83.2560886,98.313253 83.6475277,99.0411647 L90.0861993,99.0411647 C90.0008856,97.8212851 89.3284133,89.1315261 89.2631734,87.876506 Z" id="Shape" fill="#DCAA78"/>
          <path d="M93.3030258,119.412651 C93.2904942,119.296003 93.2703777,119.180296 93.2428044,119.066265 C93.0119557,113.328313 91.978155,97.7359438 91.8677491,97.1034137 C88.4853824,96.8131591 85.0834189,96.8366865 81.7053875,97.1736948 C84.0991882,105.245984 90.4073801,120.040161 90.8389668,121.455823 C91.3408118,121.85241 92.735941,121.25 93.2678967,121.139558 C93.5639852,120.552209 93.3431734,119.97992 93.3030258,119.412651 Z" id="Shape" fill="#000000"/>
          <path d="M99.8671587,121.581325 C99.0591882,121.581325 98.2461993,121.651606 97.4432472,121.581325 C96.5190656,121.433202 95.587665,121.334334 94.6529889,121.285141 C94.6178598,121.285141 92.8312915,113.358434 92.7309225,113.308233 C92.6305535,113.258032 90.5478967,117.103414 90.5478967,117.103414 C90.5478967,117.103414 90.8339483,121.305221 90.8590406,121.460843 C90.8921342,121.594606 90.9357637,121.725537 90.9895203,121.85241 C91.0843064,122.086836 91.1598332,122.3286 91.2153506,122.575301 C91.2805904,122.986948 91.2554982,123.408635 91.3408118,123.815261 C91.4261255,124.221888 91.6419188,124.34739 92.1337269,124.226908 C92.4903742,123.776449 92.4559529,123.13084 92.0534317,122.720884 L92.4097417,121.87249 C92.9115867,121.752008 93.1926199,122.073293 93.4786716,122.344378 L93.6492989,123.930723 L94.4221402,124.121486 C94.46024,123.929752 94.4787363,123.734637 94.4773432,123.539157 C94.4384206,123.2609 94.3797233,122.985772 94.3016974,122.715863 C94.2035891,122.470963 94.2996839,122.191129 94.5275277,122.058233 L95.7821402,122.208835 C96.4546125,122.836345 96.0430996,123.790161 96.5499631,124.518072 L97.1471587,124.548193 C97.3529151,123.795181 96.5951292,123.11747 97.0869373,122.429719 L98.0304059,122.429719 C98.2778447,122.611233 98.3776553,122.933175 98.27631,123.222892 C98.1458303,123.7249 98.3616236,123.985944 98.8333579,124.191767 L99.2197786,123.970884 L99.2197786,122.575301 C99.7517343,122.48494 100.424207,122.886546 100.589815,122.073293 C100.483809,121.767782 100.190165,121.567876 99.8671587,121.581325 Z" id="Shape" fill="#000000"/>
          <polygon id="Shape" fill="#F01446" points="90.9594096 110.476908 85.4391144 110.396586 84.1945387 107.439759 90.9594096 107.439759"/>
          <path d="M91.421107,100.873494 C93.1474539,100.873494 94.8085609,101.917671 95.1949815,102.51004 C96.2372715,104.053533 96.9056706,105.818749 97.1471587,107.665663 C97.6490037,111.004016 96.4345387,116.385542 93.0671587,116.832329 C86.7439114,117.665663 85.7502583,101.907631 91.421107,100.873494 Z" id="Shape" fill="#00A08C"/>
          <path d="M91.8376384,103.870482 C92.7267055,103.874921 93.5766605,104.236722 94.19631,104.874498 C94.8475273,105.839465 95.2650568,106.942926 95.4157934,108.09739 C95.7369742,110.185743 94.9691513,113.549197 92.8664207,113.830321 C88.8918081,114.36747 88.2695203,104.533133 91.8376384,103.870482 Z" id="Shape" fill="#008264"/>
          <rect id="Rectangle-path" fill="#F01446" x="80.8472325" y="96.1746988" width="11.8887085" height="2.76606426"/>
          <path d="M73.3496679,79.0963855 L77.4898893,90.6425703 L91.6619926,90.6425703 C90.8991882,87.1285141 90.0410332,82.9116466 89.2230258,79.0963855 C89.2230258,79.0963855 88.5957196,71.1546185 79.8033948,71.3955823 C71.0110701,71.6365462 73.3496679,79.0963855 73.3496679,79.0963855 Z" id="Shape" fill="#F01446"/>
          <path d="M42.9830258,98.0672691 L50.0941697,97.3895582 C50.4354244,96.8875502 52.8141697,91.5813253 53.7375646,89.3072289 C53.9182288,88.8604418 55.4990406,83.6295181 50.4605166,82.6706827 C45.4219926,81.7118474 43.0783764,97.2088353 42.9830258,98.0672691 Z" id="Shape" fill="#DCAA78"/>
          <path d="M44.9301845,79.0963855 C43.6789176,82.9551539 42.4192866,86.8038822 41.1512915,90.6425703 L56.7887823,90.6425703 L60.3016974,79.0963855 C60.3016974,79.0963855 62.8109225,71.7319277 54.0336531,72.0230924 C46.8020664,72.2590361 44.9301845,79.0963855 44.9301845,79.0963855 Z" id="Shape" fill="#F01446"/>
          <path d="M50.7315129,98.0170683 L42.0144649,98.0170683 L38.1954244,118.880522 C38.1954244,118.880522 36.3335793,119.101406 36.0575646,119.101406 C35.2194834,119.101406 34.3814022,119.101406 33.5483395,119.056225 C33.098543,119.051732 32.700687,119.347143 32.5747601,119.779116 L32.6901845,120.155622 L33.5884871,120.261044 L34.5620664,120.100402 L34.3964576,122.48494 C34.8330627,122.821285 34.8330627,122.821285 35.2295203,122.610442 L35.4553506,120.01004 L36.6095941,120.145582 C36.6782331,120.881937 36.6782331,121.623083 36.6095941,122.359438 L37.5028782,122.570281 C37.5881919,122.349398 37.4326199,121.28012 37.72369,120.205823 L39.0084133,120.085341 C39.0585978,121.014056 38.682214,121.85241 39.0636162,122.710843 L39.741107,122.710843 C39.941845,121.84739 39.4249446,120.863454 40.3583764,120.065261 L41.3620664,120.115462 C41.5326937,120.983936 40.9053875,121.797189 41.557786,122.580321 L42.0144649,122.725904 L42.3908487,122.429719 C42.3877677,122.341759 42.3760008,122.254319 42.3557196,122.168675 C42.4003768,121.371923 42.5060744,120.579773 42.6718819,119.799197 C42.6718819,119.799197 48.2423616,104.533133 50.7315129,98.0170683 Z" id="Shape" fill="#000000"/>
          <polygon id="Shape" fill="#F01446" points="42.0094465 110.476908 47.5297417 110.396586 48.7743173 107.439759 42.0094465 107.439759"/>
          <path d="M45.838524,105.687751 C45.7367485,107.2695 45.3844114,108.825031 44.7946863,110.296185 C43.8913653,112.369478 41.0157934,117.063253 37.9495203,115.170683 C36.9458303,114.322289 36.0073801,113.664659 35.6912177,112.354418 C35.2997786,110.778112 35.4854613,109.221888 35.71631,107.645582 C35.9471587,106.069277 36.8705535,102.831325 39.3747601,101.415663 C40.4788192,100.793173 43.5250185,100.286145 44.9853875,101.470884 C46.1697417,102.409639 45.9087823,104.96988 45.838524,105.687751 Z" id="Shape" fill="#00A08C"/>
          <path d="M44.0419188,106.561245 C43.9776271,107.594909 43.7489238,108.611698 43.364428,109.573293 C42.7772694,110.923695 40.9053875,113.975904 38.9130627,112.745984 C38.2556458,112.193775 37.6484133,111.741968 37.4426568,110.913655 C37.2405476,109.902916 37.2405476,108.862144 37.4426568,107.851406 C37.5982288,106.802209 38.1954244,104.718876 39.8214022,103.795181 C40.5390406,103.388554 42.5213284,103.057229 43.4698155,103.830321 C44.2526937,104.417671 44.0921033,106.094378 44.0419188,106.561245 Z" id="Shape" fill="#008264"/>
          <rect id="Rectangle-path" fill="#F01446" x="40.3182288" y="96.1746988" width="11.8887085" height="2.76606426"/>
          <path d="M78.7896679,16.1746988 C79.682952,14.6385542 80.6464945,12.6004016 82.8495941,13.1626506 C84.520738,13.5843373 85.2835424,15.7831325 84.9573432,17.3694779 C84.6311439,18.9558233 82.8345387,20.4819277 81.1884871,20.4618474 C78.2878229,20.4116466 78.52369,18.3383534 78.7896679,16.1746988 Z" id="Shape" fill="#DCAA78"/>
          <path d="M80.1998524,9.03614458 L66.0026568,6.70180723 L57.3809594,5.2811245 C55.2631734,4.93473896 55.1326937,4.69879518 54.1189668,6.9126506 C52.3323985,10.8182731 53.0048708,16.4508032 54.2243542,20.5421687 C54.9921771,23.1174699 59.7446494,31.6415663 67.4228782,31.6415663 C75.101107,31.6415663 80.1697417,22.7961847 80.4056089,20.8584337 C80.9356484,16.9299707 80.8662721,12.9437708 80.1998524,9.03614458 Z" id="Shape" fill="#DCAA78"/>
          <path d="M52.2872325,6.25 C52.2872325,6.25 48.3377122,7.55522088 46.6866421,9.87951807 C44.6441328,12.7610442 44.3279705,16.0993976 43.464797,19.4176707 C42.6769004,22.4598394 41.1763838,25.2309237 38.2004428,26.5261044 C35.2245018,27.8212851 31.5459779,26.9277108 30.0002952,23.8554217 C27.2301107,18.3634538 29.7694465,8.92068273 34.8180074,5.58232932 C37.5932103,3.74497992 40.9957196,3.6746988 44.1723985,4.07630522 C46.9660367,4.41571027 49.697875,5.14747912 52.2872325,6.25 Z" id="Shape" fill="#000000"/>
          <path d="M54.0888561,6.52610442 C57.0999262,0.93373494 64.4569742,-0.833333333 70.8906273,0.557228916 C78.88,2.27911647 81.6050185,7.87650602 80.9676753,14.6937751 C76.6016236,14.7690763 54.344797,7.22891566 54.0888561,6.52610442 Z" id="Shape" fill="#000000"/>
          <path d="M55.3986716,13.875502 C55.3986716,13.875502 57.4813284,18.2379518 57.5917343,20.1455823 C56.5127675,20.1455823 53.5468635,20.8985944 52.1567528,20.5421687 C51.0376384,20.2560241 49.8332103,19.3975904 49.5722509,18.2228916 C49.3363838,17.1586345 48.7642804,14.9297189 49.215941,13.9759036 C50.9171956,10.4066265 55.3986716,13.875502 55.3986716,13.875502 Z" id="Shape" fill="#DCAA78"/>
          <path d="M53.2206642,10.3564257 C51.9671109,9.49652728 51.5103203,7.86127798 52.136679,6.47590361 C53.1805166,3.96586345 55.6495941,4.96987952 55.6495941,4.96987952 L53.2206642,10.3564257 Z" id="Shape" fill="#F01446"/>
          <path d="M67.2171218,13.5893574 C67.5945497,14.2678891 67.9070809,14.9805572 68.1505535,15.7178715 C68.2910701,16.3253012 68.557048,17.0381526 67.9397786,17.6204819 C67.5943738,18.0026436 67.0383322,18.1110252 66.5747601,17.8865462 C66.138155,17.7108434 66.0729151,17.3443775 66.0076753,16.9226908 C65.9734784,15.9808117 66.2141168,15.0493433 66.7002214,14.2419679 C66.8515493,14.0086025 67.0246214,13.790091 67.2171218,13.5893574 Z" id="Shape" fill="#BE8C64"/>
          <path d="M69.1743173,21.0843373 C68.2960886,20.938755 67.4278967,20.7429719 66.539631,20.6526104 C65.8420664,20.5773092 64.8885609,20.2259036 64.221107,20.2610442 C62.6202214,20.3564257 63.1270849,22.3694779 63.8397048,23.2730924 C65.4305535,25.2811245 70.4540221,24.1767068 71.0461993,21.6767068 C70.4407739,21.4248245 69.8144079,21.2266068 69.1743173,21.0843373 Z" id="Shape" fill="#000000"/>
          <path d="M60.497417,14.1516064 C60.944059,14.0261044 61.1849446,14.1516064 61.2602214,14.3875502 C61.3706273,14.7540161 61.3354982,16.1044177 60.9741697,16.3554217 L60.4723247,16.1797189 L60.497417,14.1516064 Z" id="Shape" fill="#000000"/>
          <path d="M74.042214,16.1997992 C73.540369,16.0843373 73.2492989,15.2459839 73.540369,14.6686747 C73.6206642,14.503012 73.7812546,14.3273092 73.896679,14.3423695 C74.0121033,14.3574297 74.1877491,14.5783133 74.2128413,14.7540161 C74.3422979,15.2400804 74.2812626,15.7572531 74.042214,16.1997992 Z" id="Shape" fill="#000000"/>
          <path d="M63.4683395,6.02409639 L53.0600738,18.5742972 C53.0600738,18.5742972 47.9111439,2.40461847 63.6389668,0.31626506 L63.4683395,6.02409639 Z" id="Shape" fill="#000000"/>
          <polygon id="Shape" fill="#000000" points="58.2993358 4.87951807 56.317048 20.2811245 62.4997786 6.39558233"/>
          <path d="M73.1589668,78.5943775 L73.1589668,78.564257 L73.1589668,78.5943775 L89.102583,78.5943775 C88.0286347,73.5742972 87.0450185,69.2670683 86.4879705,67.9919679 L57.8828044,67.3694779 C56.0059041,67.3293173 48.6137269,67.4648594 48.6137269,67.4648594 C48.6137269,67.4648594 45.2262731,78.2078313 45.1008118,78.5943775 L73.1589668,78.5943775 Z" id="Shape" fill="#F01446"/>
          <path d="M78.7093727,35.3012048 L68.0953506,35.3012048 L60.4572694,53.373494 L64.2361624,63.7048193 L68.0752768,75.065261 L89.3284133,74.1967871 C88.4150554,70.251004 81.7756458,46.6616466 78.7093727,35.3012048 Z" id="Shape" fill="#008264"/>
          <path d="M56.1464207,35.3012048 C53.04,46.7419679 46.7719557,69.6787149 45.1660517,75.8032129 L68.0853137,75.0702811 L68.0853137,35.3012048 L56.1464207,35.3012048 Z" id="Shape" fill="#00A08C"/>
          <path d="M77.3995572,41.3504016 C78.5086347,42.3845382 79.2011808,43.7399598 79.2312915,44.1817269 C79.3762174,45.2280834 79.1545645,46.2923626 78.6039852,47.1937751 C77.9512933,48.137864 76.9317502,48.7638145 75.7947309,48.9185223 C74.6577116,49.0732301 73.5080731,48.7424279 72.6270111,48.0070281 C68.2509225,44.503012 73.3597048,38.3433735 77.3995572,41.3504016 Z" id="Shape" fill="#00A08C"/>
          <path d="M5.60059041,39.5481928 C5.47512915,38.8403614 1.28472325,38.9859438 1.18937269,38.5441767 C1.09402214,38.1024096 47.1182288,36.8273092 48.8646494,36.310241 L48.3176384,44.8092369 C39.8364576,45.3463855 1.44531365,44.3072289 1.08900369,43.5090361 C0.732693727,42.7108434 5.10376384,43.7449799 5.27940959,42.3945783 C5.45505535,41.0441767 0.446642066,41.3905622 0.225830258,40.5773092 C0.00501845018,39.7640562 5.72605166,40.2610442 5.60059041,39.5481928 Z" id="Shape" fill="#DCAA78"/>
          <path d="M6.41357934,35.4518072 C6.27306273,36.184739 9.47483395,37.1937751 9.96664207,38.062249 C10.4584502,38.9307229 8.96295203,41.5060241 11.8937269,41.7720884 C14.8245018,42.0381526 15.0352768,38.8955823 14.6940221,37.876506 C14.3527675,36.8574297 7.27173432,34.7740964 6.41357934,35.4518072 Z" id="Shape" fill="#BE8C64"/>
          <path d="M59.4134317,45.7630522 C55.8402952,45.7981928 45.9188192,45.8232932 45.9188192,45.8232932 L46.6013284,35.2811245 L56.0962362,35.2811245 C58.9266421,35.3363454 63.4683395,34.7791165 63.4683395,40.3313253 C63.4683395,45.8835341 59.5890775,45.7630522 59.4134317,45.7630522 Z" id="Shape" fill="#00A08C"/>
          <rect id="Rectangle-path" fill="#F01446" x="45.2011808" y="34.3825301" width="4.67217712" height="12.1837349"/>
        </g>
      </g>
    </g>
  </g>
</svg>