<svg version="1.1" width="186" height="140" viewBox="-1 -1 186 140" xmlns="http://www.w3.org/2000/svg" xmlns:xlink="http://www.w3.org/1999/xlink">
  <!-- Exported by Scratch - http://scratch.mit.edu/ -->
  <g id="ID0.3977350005879998">
    <g id="dinosaurs">
      <g id="brontosaurus-b">
        <g id="scratch_dinos03b">
          <path id="Shape" fill="#008264" stroke="none" stroke-width="1" d="M 60.110 92.500 C 60.110 92.500 64.835 127.555 65.705 136.670 C 64.205 137.125 54.145 136.855 52.625 136.720 C 50.575 131.605 43.705 90.890 43.705 90.890 L 60.110 92.500 Z " transform="matrix(-1, 0, 0, 1, 185.4, 0)"/>
          <path id="Shape" fill="#008264" stroke="none" stroke-width="1" d="M 108.840 92.500 C 108.840 92.500 111.475 127.885 112.340 137 C 110.840 137.450 101.260 136.850 99.740 136.715 C 97.685 131.595 94 91.100 94 91.100 L 108.840 92.500 Z " transform="matrix(-1, 0, 0, 1, 185.4, 0)"/>
          <path id="Shape" fill="#005A5A" stroke="none" stroke-width="1" d="M 182.590 44.320 C 176.885 43.165 170.270 43.400 166.770 48.780 C 163.340 54.045 163.555 62.105 163.840 68.105 C 164.140 74.325 164.750 80.430 165.550 86.605 C 165.860 88.980 167.185 102.225 165.550 111.280 C 164.290 118.225 160.430 121.780 158.155 121.780 C 152.915 121.780 147.625 118.750 145.965 114.705 C 144.305 110.660 143.965 106.450 143.750 102.160 C 143.550 98.030 143.250 93.940 143.085 89.815 C 142.920 85.690 141.610 71.030 141.050 66.925 C 140.925 70.890 131.575 82.425 125.640 87.110 C 126.835 97.410 127.030 129.555 137.705 135.250 C 146.560 139.975 162.275 139.790 170.020 133.335 C 177.935 126.740 179.345 116.270 178.790 105.965 C 178.082 93.670 176.650 81.427 174.500 69.300 C 173.700 64.670 172.685 57.915 175.145 53.655 C 176.695 50.970 179.145 49.930 181.955 49.230 C 183.330 48.890 184.740 48.880 184.955 47.375 C 185.195 46 183.875 44.580 182.590 44.320 Z " transform="matrix(-1, 0, 0, 1, 185.4, 0)"/>
          <path id="Shape" fill="#00A08C" stroke="none" stroke-width="1" d="M 130.845 46.025 C 122.710 37.710 112.260 31.920 100.430 32.265 C 87 32.655 73.365 38.190 70.595 36.030 C 66.285 32.670 65.255 20.375 63.915 19.170 L 47.115 31.965 C 44.905 50.555 42 74.500 41.970 77.200 C 41.815 85.070 43.170 96.595 48.015 102.115 C 52.860 107.635 58.250 107.835 61.210 108.845 C 64.680 110.030 98.500 110.720 104.430 110.025 C 104.570 109.905 125.955 111.270 133.495 101.305 C 141.035 91.340 142.055 79.700 142.050 75.610 C 142.035 64.690 138.625 54 130.845 46.025 Z " transform="matrix(-1, 0, 0, 1, 185.4, 0)"/>
          <path id="Shape" fill="#00A08C" stroke="none" stroke-width="1" d="M 83.915 92.500 C 83.915 92.500 86.550 127.885 87.415 137 C 85.915 137.450 76.335 136.850 74.815 136.715 C 72.765 131.600 69.080 91.105 69.080 91.105 L 83.915 92.500 Z " transform="matrix(-1, 0, 0, 1, 185.4, 0)"/>
          <path id="Shape" fill="#00A08C" stroke="none" stroke-width="1" d="M 131.525 92.500 C 131.525 92.500 134.160 127.885 135.025 137 C 133.525 137.450 123.945 136.850 122.425 136.715 C 120.370 131.600 116.690 91.105 116.690 91.105 L 131.525 92.500 Z " transform="matrix(-1, 0, 0, 1, 185.4, 0)"/>
          <path id="Shape" fill="#00A08C" stroke="none" stroke-width="1" d="M 33.040 117.090 C 33.145 117.345 33.655 119.735 33.705 119.860 C 32.530 127.240 24.155 126.755 18.280 125.680 C 10.815 124.315 6.350 119.120 3.455 112.420 L 33.040 117.090 Z " transform="matrix(-1, 0, 0, 1, 185.4, 0)"/>
          <path id="Shape" fill="#000000" stroke="none" stroke-width="1" d="M 32.340 116.185 C 32.250 116.800 33.505 119.865 30.510 121.435 C 27.813 122.842 24.652 123.063 21.785 122.045 C 18.875 120.985 16.520 118.220 15.365 115.260 L 32.340 116.185 Z " transform="matrix(-1, 0, 0, 1, 185.4, 0)"/>
          <path id="Shape" fill="#FFFFFF" stroke="none" stroke-width="1" d="M 33.325 116.875 C 33.325 116.875 32.825 118.955 32.300 119.570 C 31.566 120.392 30.332 120.529 29.435 119.890 C 28.145 118.985 28.350 116.965 28.350 116.965 L 33.325 116.875 Z " transform="matrix(-1, 0, 0, 1, 185.4, 0)"/>
          <path id="Shape" fill="#00A08C" stroke="none" stroke-width="1" d="M 22.100 85.850 C 22.309 88.046 22.866 90.194 23.750 92.215 C 25.005 95.050 27.415 98.300 30.145 99.885 C 32.685 101.385 35.875 101.165 37.745 103.750 C 41.080 108.370 38.840 116.250 33.570 118.325 C 31.210 119.255 28.205 119.460 25.705 119.270 C 23.985 119.135 17.850 118.620 12.320 116.115 C 8.440 114.360 6.710 114.310 3.455 112.420 C 0.165 104.615 0.075 94.635 0.955 85.850 L 22.100 85.850 Z " transform="matrix(-1, 0, 0, 1, 185.4, 0)"/>
          <path id="Shape" fill="#00A08C" stroke="none" stroke-width="1" d="M 42.825 75.580 L 66.100 75.580 C 64.950 74.325 64.100 72.555 63.600 70.130 C 62.450 64.910 63.145 58.800 63.630 53.510 C 64.175 47.600 65.320 42.745 65.440 36.810 C 65.560 30.875 65.605 24.995 63.940 19.170 C 62.155 12.930 57.170 6.810 51.645 3.670 C 41.040 -2.395 28.070 -0.465 18.645 6.945 C 9.555 14.085 3.870 26.350 2.320 37.650 C 1.462 43.878 1.103 50.165 1.245 56.450 C 1.380 61.950 0.880 91.640 0.545 95.765 L 21.770 93.890 C 21.620 92.470 23.040 59.220 23.230 48.130 C 23.325 42.675 24.070 36.395 26.290 31.355 C 28.195 27.020 33.330 22.565 38.045 25.925 C 41.930 28.695 43.665 34.490 44.515 38.925 C 45.695 45.110 45.655 51.350 44.970 57.595 C 44.500 61.445 43.720 68.050 42.825 75.580 Z " transform="matrix(-1, 0, 0, 1, 185.4, 0)"/>
          <path id="Shape" fill="#005A5A" stroke="none" stroke-width="1" d="M 25.740 113.385 C 26.010 111.415 23.990 110.135 23.290 112.845 C 22.555 115.715 25.470 115.360 25.740 113.385 Z " transform="matrix(-1, 0, 0, 1, 185.4, 0)"/>
          <path id="Shape" fill="#005A5A" stroke="none" stroke-width="1" d="M 36.735 111.705 C 37 109.735 34.980 108.450 34.285 111.165 C 33.545 114.035 36.465 113.675 36.735 111.705 Z " transform="matrix(-1, 0, 0, 1, 185.4, 0)"/>
          <path id="Shape" fill="#000000" stroke="none" stroke-width="1" d="M 41.605 108.650 L 42.385 108.470 C 42.939 107.337 42.873 105.998 42.210 104.925 L 41.635 105.040 C 40.740 105.790 40.715 107.795 41.605 108.650 Z " transform="matrix(-1, 0, 0, 1, 185.4, 0)"/>
          <path id="Shape" fill="#000000" stroke="none" stroke-width="1" d="M 7.500 108.470 L 8.285 108.290 C 8.837 107.156 8.771 105.819 8.110 104.745 L 7.535 104.860 C 6.645 105.610 6.620 107.615 7.500 108.470 Z " transform="matrix(-1, 0, 0, 1, 185.4, 0)"/>
        </g>
      </g>
    </g>
  </g>
</svg>