<svg width="136px" height="142px" viewBox="0 0 136 142" version="1.1" xml:space="preserve" xmlns="http://www.w3.org/2000/svg" xmlns:xlink="http://www.w3.org/1999/xlink">
  <!-- Generator: Sketch 48.2 (47327) - http://www.bohemiancoding.com/sketch -->
  <defs/>
  <g>
    <title>milk-d</title>
    <desc>Created with Sketch.</desc>
    <g id="food" stroke="none" stroke-width="1" fill="none" fill-rule="evenodd">
      <g id="milk-d" fill-rule="nonzero">
        <g id="scratch_fridge_milk04" transform="translate(33.000000, 26.000000)">
          <path d="M52.232,96.9433589 L54.38,89.9039827 C54.38,89.9039827 54.696,84.7415067 49.324,84.2132534 C43.952,83.685 45.972,97.1954798 45.972,97.1954798 L49.296,101.717649 L47.228,105.447438 L50.828,110.057649 L48.964,109.985614 C48.964,109.985614 48.276,110.213724 48.964,110.633925 C49.172,110.761987 53.572,110.549885 53.572,110.549885 L50.916,105.43143 L54.4,101.369482 L52.232,96.9433589 Z" id="Shape" fill="#82001E"/>
          <path d="M30.02,101.057332 L25.888,96.6792322 C25.888,96.6792322 28.62,91.7848848 28.896,91.1725912 C29.444,89.9720154 29.732,87.8950192 26.624,86.2142131 C21.936,83.685 20.488,91.6368138 20.488,91.6368138 L20.088,96.6672265 L25.2,101.093349 L23.024,105.339386 C23.024,105.339386 27.824,109.377322 27.756,109.741497 C27.2,109.909578 26.62,109.625441 26.116,109.905576 C25.988,110.18571 25.872,110.437831 26.212,110.70596 C26.408,110.70596 29.968,110.533877 30.176,110.60191 C30.268,110.529875 26.904,105.24334 26.904,105.24334 L30.02,101.057332 Z" id="Shape" fill="#82001E"/>
          <path d="M37.364,104.398935 C37.364,104.398935 36.676,101.029319 36.536,101.249424 L34.868,106.315854 C34.868,106.315854 34.364,107.916622 34.656,108.232774 C34.852,108.452879 35.856,107.128244 36.544,105.831622 L36.576,105.771593 L37.364,104.398935 Z" id="Shape" fill="#82001E"/>
          <path d="M35.748,88.4272745 C35.568,91.6688292 35.92,98.9683301 35.98,100.108877 C36.148,103.34643 35.98,106.563973 36.136,109.797524 C37.14,110.025633 36.692,107.396372 37.104,107.080221 C38.092,106.351871 37.676,109.577418 38.152,109.681468 C38.628,109.785518 38.46,107.280317 39.112,107.000182 C39.768,107.436392 39.788,109.549405 40.184,109.49738 C40.48,109.457361 41.932,95.4626488 40.948,88.3232246 C40.608,85.8580422 39.536,84.677476 38.632,84.529405 C35.104,83.9491267 35.748,88.4272745 35.748,88.4272745 Z" id="Shape" fill="#BE0A3C"/>
          <path d="M12.952,104.114798 C12.952,104.114798 13.64,100.745182 13.78,100.965288 L15.448,106.031718 C15.448,106.031718 15.952,107.632486 15.66,107.948637 C15.464,108.168743 14.46,106.844107 13.772,105.547486 L13.74,105.487457 L12.952,104.114798 Z" id="Shape" fill="#82001E"/>
          <path d="M14.572,88.1631478 C14.752,91.4047025 14.4,98.7042035 14.34,99.8447505 C14.172,103.082303 14.34,106.299846 14.184,109.533397 C13.18,109.761507 13.628,107.132246 13.216,106.816094 C12.228,106.087745 12.644,109.313292 12.168,109.417342 C11.692,109.521392 11.86,107.01619 11.208,106.736056 C10.552,107.172265 10.532,109.285278 10.136,109.233253 C9.74,109.181228 9.12,98.4000576 9.264,92.2971305 C9.264,92.2971305 9.264,86.0221209 11.88,85.8140211 C14.496,85.6059213 14.572,88.1631478 14.572,88.1631478 Z" id="Shape" fill="#BE0A3C"/>
          <path d="M31.54,13.0751344 C31.54,13.0751344 45.684,27.4180134 45.828,28.68262 C44.344,28.7266411 16.168,32.8045969 16.168,32.8045969 L1.476,27.5620825 L31.54,13.0751344 Z" id="Shape" fill="#82001E"/>
          <path d="M46.224,0.637168906 L20.068,0.236976967 C20.068,0.569136276 19.816,5.83966411 20.22,6.32789827 C20.912,7.12828215 32.248,7.62452015 35.256,7.83261996 C36.656,7.93266795 46.456,6.40793666 46.456,6.40793666 C46.456,6.40793666 46.36,1.29348369 46.224,0.637168906 Z" id="Shape" fill="#BE0A3C"/>
          <path d="M1.472,27.5660845 L20.216,6.35591171 C20.216,6.35591171 32.908,9.95763916 35.216,12.4788484 C31.012,15.27619 1.472,27.5660845 1.472,27.5660845 Z" id="Shape" fill="#FFC800"/>
          <path d="M64.36,28.5065355 C63.012,28.6906238 43.7,30.763618 43.7,30.763618 L40.5,28.334453 C40.5,28.334453 26.012,12.6989539 20.168,6.32389635 C22.168,5.61955854 46.472,6.40793666 46.472,6.40793666 C46.472,6.40793666 62.064,24.7327255 64.36,28.5065355 Z" id="Shape" fill="#F01446"/>
          <polygon id="Shape" fill="#82001E" points="43.68 84.4493666 43.748 93.1495393 66.416 92.6492994 67.98 87.06262"/>
          <polygon id="Shape" fill="#BE0A3C" points="67.98 87.06262 61.704 71.719261 51.784 69.7263052 36.464 70.2585605 44.976 86.6224088"/>
          <polygon id="Shape" fill="#82001E" points="37.256 71.6312188 61.704 71.719261 70.516 58.4609021 57.136 55.7676104 45.936 55.4154415"/>
          <polygon id="Shape" fill="#BE0A3C" points="70.516 58.4609021 62.576 47.047428 35.808 47.1674856 47.712 57.968666"/>
          <polygon id="Shape" fill="#82001E" points="45.548 37.3147601 39.596 48.0278983 63.292 48.1359501 69.268 39.8839923"/>
          <polygon id="Shape" fill="#BE0A3C" points="63.292 32.1162668 36.456 31.2198369 39.416 33.5329463 47.5 39.4437812 69.268 39.8839923"/>
          <polygon id="Shape" fill="#82001E" points="63.292 32.1162668 64.36 28.5065355 40.48 28.334453 38.076 30.6315547 39.272 31.9641939"/>
          <path d="M40.48,28.334453 L1.472,27.5660845 L0.192,31.3759117 L8.868,39.7799424 L1.268,48.7762572 L9.784,59.7495202 L0,71.0669482 L9.292,86.862524 L9.292,92.2771209 C9.292,92.2771209 15.492,92.5532534 17.76,92.6092802 C22.34,92.7253359 26.908,92.7893666 31.488,92.969453 C33.608,93.0534933 43.776,93.1455374 43.776,93.1455374 L45.008,86.6184069 L38.288,71.6432246 L47.744,57.968666 L39.6,48.0278983 L47.504,39.4397793 L39.272,31.9601919 L40.48,28.334453 Z" id="Shape" fill="#F01446"/>
          <path d="M13.164,80.2353455 L36,80.6715547 L31.164,71.6792418 L19.04,66.8009021 L7.152,70.9949136 C7.152,70.9949136 12.952,79.91119 13.04,80.059261 C13.0752056,80.1220441 13.1167565,80.1810478 13.164,80.2353455 Z" id="Shape" fill="#C8C8BE"/>
          <polygon id="Shape" fill="#FFFFFF" points="31.176 71.6792418 40.42 58.7730518 28.028 57.9646641 16.272 59.3053071 7.152 70.9949136"/>
          <polygon id="Shape" fill="#C8C8BE" points="40.42 58.7730518 32.312 48.0278983 24.62 47.0114107 8.104 48.3280422 16.272 59.3053071"/>
          <polygon id="Shape" fill="#FFFFFF" points="32.312 48.0278983 40.008 39.7759405 20.904 37.6469194 15.26 39.7759405 8.104 48.3280422"/>
          <polygon id="Shape" fill="#C8C8BE" points="40.008 39.7759405 33.796 34.2252783 9.032 34.2252783 15.26 39.7759405"/>
        </g>
      </g>
    </g>
  </g>
</svg>