<svg version="1.1" width="260" height="113" viewBox="-1 -1 260 113" xmlns="http://www.w3.org/2000/svg" xmlns:xlink="http://www.w3.org/1999/xlink">
  <!-- Exported by Scratch - http://scratch.mit.edu/ -->
  <g id="Group" transform="matrix(1, 0, 0, 1, -4, -3)">
    <path id="Shape" fill="#010001" stroke="none" stroke-width="1" d="M 19.032 56.350 C 19.183 48.400 19.083 40.450 19.083 32.450 C 18.529 32.400 18.076 32.350 17.622 32.350 C 16.162 32.450 14.752 32.250 13.292 32.050 C 12.034 31.900 10.724 31.750 9.466 31.500 C 8.106 31.250 6.848 30.800 5.538 30.400 C 4.934 30.200 4.330 29.950 3.726 29.750 C 2.769 29.450 1.964 28.800 1.108 28.350 C 0.806 28.200 0.705 27.850 0.655 27.550 C 0.554 26.250 0.503 24.900 0.755 23.600 C 0.806 23.400 0.856 23.200 1.007 23.100 C 1.410 22.900 1.359 22.550 1.359 22.150 C 1.259 18.400 1.158 14.650 1.309 10.950 C 1.158 10.500 0.655 10.500 0.554 10.150 C 0.453 9.800 0.453 9.450 0.403 9.100 C 0.352 8 0.352 6.850 0.302 5.750 C 0.252 5.100 0.554 4.700 1.057 4.400 C 2.014 3.800 3.071 3.400 4.129 3.050 C 6.294 2.350 8.459 1.850 10.674 1.500 C 12.537 1.200 14.400 1 16.313 0.800 C 20.442 0.400 24.571 0.250 28.699 0.450 C 31.569 0.550 34.389 0.850 37.208 1.350 C 38.115 1.500 39.021 1.750 39.877 2 C 40.179 2.100 40.481 2.200 40.783 2.350 C 41.941 2.850 42.495 3.800 42.495 5 C 42.545 6.050 42.596 7.050 42.344 8.100 C 42.294 8.400 42.294 8.750 42.294 9.050 C 41.992 9.300 41.740 9.500 41.387 9.750 C 41.387 13.200 41.387 16.650 41.387 20.350 C 41.438 20.550 41.941 20.550 42.042 20.950 C 42.143 21.350 42.193 21.750 42.243 22.150 C 42.344 23.450 42.344 24.800 42.344 26.100 C 42.344 26.650 42.092 27 41.690 27.300 C 41.538 27.400 41.438 27.500 41.287 27.550 C 39.273 28.600 37.259 29.550 35.094 30.150 C 34.338 30.350 33.634 30.500 32.878 30.650 C 31.166 31 29.505 31.350 27.793 31.650 C 26.836 31.800 25.880 31.900 24.923 32 C 24.470 32.050 24.017 32.050 23.614 32.250 C 23.362 32.600 23.513 33 23.513 33.400 C 23.513 35.900 23.513 38.350 23.463 40.800 C 23.413 42.900 23.463 45 23.463 47.100 C 23.463 50 23.614 52.950 23.513 55.850 C 23.513 56.150 23.513 56.400 23.564 56.650 C 23.765 57 24.017 57.050 24.269 57.150 C 26.031 57.700 27.793 58.250 29.555 58.700 C 30.613 59 31.620 59.300 32.627 59.650 C 33.080 59.800 33.483 59.800 33.936 59.850 C 34.792 59.900 35.597 60.200 36.302 60.600 C 37.359 61.200 37.712 62.450 37.208 63.500 C 36.554 64.700 35.345 65.200 34.187 64.600 C 33.684 64.350 33.180 64.050 32.778 63.700 C 32.425 63.350 32.022 63.150 31.569 62.950 C 29.052 61.950 26.534 61.050 23.916 60.400 C 23.715 60.350 23.564 60.350 23.312 60.400 C 22.154 60.800 20.945 60.650 19.737 60.400 C 19.183 60.300 18.629 60.250 18.076 60.450 C 17.723 60.600 17.371 60.650 17.018 60.700 C 14.702 61.300 12.436 62.200 10.221 63.100 C 9.969 63.200 9.768 63.350 9.516 63.550 C 9.063 64 8.509 64.300 7.905 64.600 C 6.445 65.350 4.632 63.900 4.733 62.450 C 4.783 61.550 5.136 60.850 6.042 60.450 C 6.797 60.100 7.603 59.800 8.459 59.800 C 9.013 59.800 9.466 59.650 9.969 59.500 C 11.731 58.850 13.594 58.500 15.357 57.900 C 16.213 57.650 17.069 57.400 17.874 57.150 C 18.428 57 18.629 56.550 19.032 56.350 Z M 17.471 9.250 C 17.220 9.200 16.968 9.200 16.766 9.250 C 15.709 9.150 14.652 9.150 13.645 9.200 C 13.594 9.150 13.544 9.150 13.494 9.150 C 12.738 8.950 11.933 9 11.127 8.900 C 8.459 8.650 5.790 8.300 3.222 7.500 C 2.669 7.350 2.064 7.100 1.510 6.900 C 1.359 7.450 1.561 7.950 1.561 8.450 C 1.561 9.600 1.611 9.900 3.071 10.400 C 3.273 10.450 3.474 10.550 3.625 10.600 C 4.985 10.950 6.344 11.300 7.754 11.550 C 9.315 11.800 10.876 12.150 12.487 12.050 C 12.890 12.150 13.292 12.150 13.695 12.100 C 14.098 12.250 14.501 12.200 14.903 12.200 C 18.176 12.400 21.499 12.200 24.772 12.050 C 25.930 12 27.088 11.950 28.246 11.800 C 31.569 11.400 34.842 11 38.064 9.950 C 39.273 9.550 40.380 9.150 41.438 8.400 C 41.589 7.450 41.589 6.500 41.538 5.550 C 41.538 5.500 41.438 5.450 41.387 5.400 C 40.028 6 38.719 6.700 37.259 7.100 C 32.425 8.300 27.491 8.900 22.506 9.100 C 21.399 9.150 20.341 9.150 19.234 9.200 C 19.133 9.200 19.083 9.200 18.982 9.200 C 18.428 9.150 17.975 9.100 17.471 9.250 Z M 12.587 30.850 C 12.688 30.900 12.789 31 12.890 31 C 15.004 31.100 17.119 31.400 19.234 31.300 C 19.888 31.250 20.492 31.350 21.147 31.150 C 21.348 31.200 21.600 31.250 21.801 31.100 C 22.003 31.100 22.204 31.100 22.406 31.100 C 26.887 30.900 31.267 30.100 35.547 28.850 C 37.359 28.350 38.971 27.500 40.582 26.600 C 40.783 26.500 40.985 26.350 41.085 26.150 C 41.085 25.050 41.085 23.900 41.085 22.750 C 40.683 22.800 40.431 23 40.179 23.200 C 39.726 23.550 39.222 23.850 38.719 24.050 C 36.755 24.900 34.741 25.550 32.677 26.050 C 30.411 26.600 28.095 26.900 25.779 27.250 C 25.124 27.350 24.520 27.450 23.866 27.500 C 23.161 27.550 22.406 27.600 21.701 27.750 C 20.392 27.650 19.133 27.700 17.824 27.750 C 16.313 27.600 14.752 27.500 13.242 27.550 C 12.940 27.550 12.638 27.500 12.336 27.500 C 12.084 27.300 11.832 27.350 11.530 27.300 C 9.214 27 6.999 26.400 4.733 25.750 C 3.877 25.500 3.122 25.100 2.316 24.750 C 1.863 24.550 1.611 24.750 1.561 25.200 C 1.510 26.050 1.561 26.850 1.662 27.750 C 1.964 27.950 2.266 28.100 2.568 28.300 C 3.877 29.050 5.337 29.400 6.747 29.800 C 8.559 30.350 10.372 30.900 12.235 30.850 L 12.336 30.900 L 12.587 30.850 Z M 15.759 13.500 C 15.608 13.500 15.457 13.500 15.357 13.500 C 15.055 13.300 14.752 13.350 14.400 13.350 C 13.343 13.300 12.235 13.300 11.228 13.150 C 11.027 13.350 11.027 13.550 10.976 13.750 C 10.976 14.100 10.976 14.450 10.926 14.850 C 10.825 15.600 10.523 15.850 9.768 15.950 C 9.516 15.950 9.264 15.900 9.063 16.100 C 8.761 18.150 8.710 20.250 8.811 22.350 C 9.063 22.450 9.264 22.500 9.415 22.550 C 10.221 22.850 10.624 23.450 10.674 24.300 C 10.674 24.600 10.674 24.950 10.674 25.250 C 10.674 25.500 10.624 25.750 10.926 26 C 12.134 25.900 13.443 26.300 14.752 26.250 C 16.162 26.300 17.572 26.400 18.931 26.450 C 19.485 26.450 20.039 26.550 20.593 26.300 C 21.046 26.350 21.550 26.400 22.003 26.250 C 22.154 26.250 22.305 26.300 22.456 26.300 C 25.074 26.050 27.642 25.800 30.210 25.350 C 30.915 25.250 31.569 24.950 32.274 24.750 C 32.073 22.800 32.727 21.400 34.741 20.900 C 34.641 19.050 34.842 17.250 34.641 15.400 C 34.439 15.350 34.288 15.300 34.137 15.250 C 33.029 14.950 32.828 14.700 32.677 13.550 C 32.627 13.200 32.677 12.750 32.425 12.450 C 30.864 12.650 29.354 12.900 27.843 13.050 C 25.527 13.300 23.211 13.400 20.895 13.400 C 20.643 13.400 20.392 13.350 20.190 13.550 C 19.485 13.450 18.780 13.500 18.076 13.600 C 17.371 13.450 16.565 13.350 15.759 13.500 Z M 38.467 5.450 C 38.316 5.150 38.115 5.150 37.964 5.100 C 36.906 4.900 35.849 4.700 34.741 4.500 C 32.324 4.100 29.857 3.950 27.441 3.850 C 24.218 3.750 20.996 3.800 17.773 4.100 C 16.062 4.250 14.350 4.400 12.638 4.650 C 10.473 5 8.308 5.500 6.193 6.100 C 5.740 6.250 5.236 6.300 4.783 6.650 C 4.884 6.700 4.934 6.800 5.035 6.800 C 5.236 6.850 5.387 6.950 5.589 7 C 8.006 7.500 10.422 7.850 12.890 7.900 C 15.407 7.950 17.874 8 20.392 7.950 C 22.909 7.950 25.376 7.750 27.843 7.500 C 29.757 7.350 31.670 6.950 33.583 6.650 C 35.194 6.500 36.806 6.050 38.467 5.450 Z M 41.035 4.050 C 40.934 3.700 40.733 3.600 40.531 3.500 C 39.877 3.150 39.222 2.900 38.517 2.700 C 36.705 2.250 34.892 2 33.080 1.800 C 31.469 1.600 29.807 1.550 28.145 1.500 C 23.614 1.400 19.083 1.550 14.551 2.050 C 11.379 2.400 8.257 2.950 5.236 3.800 C 4.582 4 3.927 4.200 3.273 4.450 C 2.769 4.600 2.316 4.900 1.964 5.250 C 1.813 5.400 1.762 5.600 1.913 5.800 C 2.467 6.350 3.222 6.450 3.877 6.100 C 4.531 5.750 5.186 5.450 5.891 5.250 C 6.898 4.950 7.905 4.700 8.912 4.450 C 12.134 3.650 15.407 3.200 18.680 3.050 C 24.067 2.850 29.455 2.750 34.792 3.500 C 36.403 3.750 38.064 3.900 39.625 4.500 C 40.179 4.750 40.632 4.600 41.035 4.050 Z M 7.452 21.950 C 7.452 19.950 7.452 17.900 7.502 15.800 C 7.150 15.650 6.848 15.550 6.545 15.450 C 5.639 15.150 5.186 14.550 5.287 13.550 C 5.337 13.150 5.287 12.700 5.287 12.250 C 4.229 11.950 3.273 11.650 2.215 11.350 C 2.215 11.650 2.165 11.850 2.165 12.050 C 2.165 13.550 2.165 15.100 2.215 16.600 C 2.215 17.800 2.366 19 2.316 20.200 C 2.266 21.300 2.417 22.400 2.517 23.550 C 3.323 24.050 4.129 24.350 5.085 24.550 C 5.136 24.100 5.136 23.750 5.186 23.400 C 5.337 22.550 5.690 22.250 6.545 22.150 C 6.848 22.100 7.049 22.200 7.452 21.950 Z M 22.305 56.450 C 22.305 48.400 22.305 40.500 22.305 32.550 C 22.305 32.500 22.255 32.500 22.255 32.450 C 22.255 32.400 22.204 32.400 22.103 32.300 C 21.499 32.300 20.895 32.300 20.241 32.500 C 20.241 32.650 20.190 32.850 20.190 33 C 20.241 33.850 20.291 34.650 20.291 35.500 C 20.291 39.550 20.291 43.550 20.291 47.600 C 20.291 49.850 20.190 52.150 20.241 54.400 C 20.241 55.050 20.090 55.750 20.341 56.400 C 20.945 56.550 21.550 56.600 22.305 56.450 Z M 38.115 22.900 C 38.719 22.600 39.172 22.400 39.625 22.100 C 40.028 21.850 40.179 21.550 40.229 21 C 40.481 17.600 40.330 14.250 40.380 10.850 C 40.380 10.650 40.380 10.450 40.078 10.350 C 39.575 10.550 39.021 10.800 38.517 11 C 38.316 11.400 38.417 11.800 38.467 12.150 C 38.669 13.500 38.064 14.400 36.856 14.900 C 36.604 15 36.352 15.150 36.101 15.250 C 36.101 17.050 36.101 18.850 36.101 20.650 C 36.453 20.700 36.755 20.750 37.108 20.800 C 37.662 20.900 37.964 21.250 38.014 21.750 C 38.064 22.100 38.064 22.400 38.115 22.900 Z M 32.073 62.200 C 32.476 61.750 32.778 61.300 32.627 60.700 C 31.771 60.350 24.470 58.300 23.815 58.200 C 23.715 58.600 23.715 58.950 23.916 59.400 C 26.685 60.150 29.404 61.050 32.073 62.200 Z M 18.126 58.200 C 17.220 58.450 16.263 58.750 15.306 59.050 C 14.350 59.350 13.393 59.550 12.436 59.900 C 11.480 60.200 10.473 60.300 9.566 60.800 C 9.617 61.350 9.768 61.850 10.120 62.100 C 10.422 62.200 10.523 62.100 10.674 62.050 C 11.933 61.500 13.242 61.050 14.501 60.650 C 15.558 60.300 16.615 59.950 17.723 59.650 C 18.227 59.500 18.378 59.300 18.378 58.800 C 18.428 58.550 18.378 58.350 18.126 58.200 Z M 36.957 11.500 C 35.899 11.750 34.842 11.800 33.885 12.200 C 33.885 12.950 34.087 13.550 34.288 14.200 C 35.245 14.400 36 14.250 36.806 13.800 C 37.057 13.650 37.208 13.500 37.208 13.250 C 37.208 12.700 37.359 12.150 36.957 11.500 Z M 19.636 57.200 C 19.586 57.950 19.536 58.500 19.485 59.100 C 19.485 59.500 19.737 59.800 20.039 59.750 C 20.845 59.650 21.701 59.950 22.607 59.600 C 22.607 59.250 22.657 58.900 22.607 58.550 C 22.557 58.200 22.758 57.850 22.456 57.450 C 21.550 57.600 20.643 57.400 19.636 57.200 Z M 6.545 23.200 C 6.193 23.750 6.042 24.250 6.294 24.900 C 7.301 25.300 8.308 25.600 9.516 25.550 C 9.516 25.150 9.566 24.750 9.566 24.350 C 9.566 24 9.365 23.750 9.013 23.650 C 8.207 23.400 7.452 23.100 6.545 23.200 Z M 33.785 24.350 C 34.741 24.350 35.547 23.950 36.352 23.700 C 36.604 23.650 36.755 23.400 36.755 23.150 C 36.806 22.750 36.906 22.300 36.604 21.900 C 36.201 21.900 35.849 21.850 35.497 21.900 C 34.238 22.250 33.533 22.200 33.785 24.350 Z M 6.646 14.300 C 7.754 14.800 8.257 14.850 9.667 14.550 C 9.768 14.050 9.818 13.500 9.566 12.900 C 8.509 12.850 7.552 12.450 6.495 12.500 C 6.495 13.200 6.495 13.700 6.646 14.300 Z " transform="matrix(1, 0, 0, 1, 17.05, 19)"/>
    <path id="Shape" fill="#D0E9EA" stroke="none" stroke-width="1" d="M 20.291 13.500 C 20.492 13.350 20.744 13.350 20.996 13.350 C 23.312 13.350 25.628 13.250 27.944 13 C 29.455 12.850 30.965 12.600 32.526 12.400 C 32.778 12.700 32.727 13.150 32.778 13.500 C 32.929 14.650 33.130 14.900 34.238 15.200 C 34.389 15.250 34.540 15.300 34.741 15.350 C 34.943 17.150 34.741 19 34.842 20.850 C 32.778 21.350 32.123 22.750 32.375 24.700 C 31.670 24.900 31.015 25.200 30.310 25.300 C 27.743 25.700 25.175 26 22.557 26.250 C 22.406 26.250 22.255 26.250 22.103 26.200 C 22.355 25.750 23.010 26.200 23.312 25.700 C 23.312 23.800 23.312 21.850 23.312 19.900 C 23.312 19.800 23.312 19.650 23.312 19.550 C 23.010 18.850 23.110 18.150 23.110 17.450 C 23.110 16.350 23.110 15.300 23.110 14.200 C 23.110 13.950 23.161 13.700 22.909 13.550 C 22.003 13.550 21.147 13.500 20.291 13.500 Z " transform="matrix(1, 0, 0, 1, 17.05, 19)"/>
    <path id="Shape" fill="#F4E6D0" stroke="none" stroke-width="1" d="M 38.467 5.450 C 36.856 6 35.194 6.450 33.533 6.750 C 31.620 7.050 29.757 7.400 27.793 7.600 C 25.326 7.800 22.808 8 20.341 8.050 C 17.824 8.050 15.357 8.050 12.839 8 C 10.372 7.950 7.955 7.600 5.538 7.100 C 5.337 7.050 5.136 7 4.985 6.900 C 4.934 6.850 4.834 6.800 4.733 6.750 C 5.186 6.450 5.639 6.350 6.143 6.200 C 8.257 5.600 10.422 5.100 12.587 4.750 C 14.299 4.500 16.011 4.350 17.723 4.200 C 20.945 3.950 24.168 3.900 27.390 3.950 C 29.857 4 32.274 4.150 34.691 4.600 C 35.748 4.800 36.806 4.950 37.913 5.200 C 38.115 5.150 38.266 5.200 38.467 5.450 Z " transform="matrix(1, 0, 0, 1, 17.05, 19)"/>
    <path id="Shape" fill="#D0E9EA" stroke="none" stroke-width="1" d="M 19.183 9.250 C 20.291 9.200 21.348 9.200 22.456 9.150 C 27.441 8.950 32.375 8.350 37.208 7.150 C 38.669 6.800 39.978 6.050 41.337 5.450 C 41.387 5.500 41.488 5.550 41.488 5.600 C 41.538 6.550 41.538 7.500 41.387 8.450 C 40.330 9.200 39.172 9.600 38.014 10 C 34.842 11 31.519 11.400 28.196 11.850 C 27.038 12 25.880 12.050 24.722 12.100 C 21.449 12.250 18.126 12.450 14.853 12.250 C 14.450 12.250 14.048 12.300 13.645 12.150 C 13.645 11.200 13.645 10.200 13.645 9.250 C 14.702 9.200 15.759 9.200 16.766 9.300 C 16.313 10.200 16.565 11.150 16.615 12.100 C 17.622 12.100 18.579 12.100 19.485 12.100 C 20.140 11.500 19.888 10.750 19.888 10.050 C 19.888 9.550 19.334 9.550 19.183 9.250 Z M 39.222 7.900 C 38.769 7.700 38.417 7.750 38.014 7.900 C 37.108 8.200 36.201 8.550 35.295 8.700 C 33.684 8.950 32.123 9.400 30.512 9.700 C 30.109 9.750 29.857 10 29.656 10.300 C 29.958 10.800 30.411 10.700 30.814 10.600 C 31.972 10.400 33.130 10.150 34.288 9.900 C 35.597 9.600 36.906 9.300 38.215 8.850 C 38.618 8.700 39.021 8.500 39.222 7.900 Z " transform="matrix(1, 0, 0, 1, 17.05, 19)"/>
    <path id="Shape" fill="#F3FFFF" stroke="none" stroke-width="1" d="M 20.291 13.500 C 21.147 13.550 21.952 13.550 22.758 13.600 C 23.010 13.800 22.959 14.050 22.959 14.250 C 22.959 15.350 22.959 16.400 22.959 17.500 C 22.959 18.200 22.859 18.950 23.161 19.600 C 23.211 19.700 23.161 19.850 23.161 19.950 C 23.161 21.900 23.161 23.850 23.161 25.750 C 22.859 26.250 22.204 25.800 21.952 26.250 C 21.499 26.400 21.046 26.350 20.543 26.300 C 19.737 26.150 18.931 26.400 18.176 26.150 C 18.126 26 18.076 25.950 18.076 25.900 C 18.076 21.800 18.076 17.650 18.076 13.550 C 18.881 13.450 19.586 13.400 20.291 13.500 Z " transform="matrix(1, 0, 0, 1, 17.05, 19)"/>
    <path id="Shape" fill="#D0E9EA" stroke="none" stroke-width="1" d="M 21.801 27.700 C 22.506 27.550 23.211 27.500 23.966 27.450 C 24.621 27.400 25.225 27.300 25.880 27.200 C 28.196 26.850 30.512 26.550 32.778 26 C 34.842 25.500 36.856 24.800 38.820 24 C 39.323 23.800 39.827 23.500 40.280 23.150 C 40.531 22.950 40.783 22.750 41.186 22.700 C 41.186 23.850 41.186 24.950 41.186 26.100 C 41.085 26.300 40.884 26.450 40.683 26.550 C 39.071 27.450 37.460 28.300 35.648 28.800 C 31.317 30.050 26.937 30.800 22.506 31.050 C 22.305 31.050 22.103 31.050 21.902 31.050 C 21.801 29.950 21.801 28.800 21.801 27.700 Z M 39.373 25.150 C 38.870 25.300 38.266 25.400 37.712 25.550 C 36.906 25.750 36.101 26.100 35.295 26.200 C 34.137 26.350 33.080 26.750 31.922 27 C 31.670 27.050 31.469 27.200 31.267 27.300 C 31.066 27.400 30.965 27.550 31.116 27.850 C 31.670 27.950 32.274 27.950 32.878 27.800 C 34.439 27.400 35.950 27.050 37.510 26.650 C 38.215 26.450 38.870 26.250 39.474 25.800 C 39.726 25.650 39.726 25.400 39.373 25.150 Z " transform="matrix(1, 0, 0, 1, 17.05, 19)"/>
    <path id="Shape" fill="#AACECF" stroke="none" stroke-width="1" d="M 41.035 4.050 C 40.632 4.600 40.179 4.750 39.575 4.500 C 38.014 3.900 36.403 3.700 34.741 3.500 C 29.404 2.750 23.966 2.800 18.629 3.050 C 15.357 3.200 12.084 3.650 8.862 4.450 C 7.855 4.700 6.848 4.950 5.841 5.250 C 5.136 5.450 4.481 5.750 3.827 6.100 C 3.172 6.450 2.417 6.350 1.863 5.800 C 1.712 5.650 1.712 5.400 1.913 5.250 C 2.316 4.900 2.719 4.600 3.222 4.450 C 3.877 4.250 4.531 4 5.186 3.800 C 8.257 2.950 11.379 2.400 14.501 2.050 C 19.032 1.550 23.564 1.450 28.095 1.500 C 29.757 1.550 31.418 1.600 33.029 1.800 C 34.842 2 36.705 2.250 38.467 2.700 C 39.172 2.900 39.827 3.150 40.481 3.500 C 40.733 3.600 40.934 3.700 41.035 4.050 Z " transform="matrix(1, 0, 0, 1, 17.05, 19)"/>
    <path id="Shape" fill="#CFE8E9" stroke="none" stroke-width="1" d="M 7.452 21.950 C 7.049 22.200 6.797 22.100 6.596 22.100 C 5.740 22.150 5.387 22.500 5.236 23.350 C 5.186 23.700 5.186 24.050 5.136 24.500 C 4.179 24.300 3.323 24 2.568 23.500 C 2.467 22.400 2.316 21.300 2.366 20.150 C 2.417 18.950 2.266 17.750 2.266 16.550 C 2.215 15.050 2.266 13.500 2.215 12 C 2.215 11.800 2.215 11.600 2.266 11.300 C 3.323 11.600 4.280 11.900 5.337 12.200 C 5.337 12.650 5.387 13.050 5.337 13.500 C 5.236 14.500 5.639 15.100 6.596 15.400 C 6.898 15.500 7.200 15.600 7.552 15.750 C 7.502 17.900 7.452 19.950 7.452 21.950 Z " transform="matrix(1, 0, 0, 1, 17.05, 19)"/>
    <path id="Shape" fill="#CFE8E9" stroke="none" stroke-width="1" d="M 22.305 56.450 C 21.550 56.600 20.996 56.550 20.341 56.400 C 20.090 55.750 20.241 55.050 20.241 54.400 C 20.190 52.150 20.291 49.850 20.291 47.600 C 20.291 43.550 20.291 39.550 20.291 35.500 C 20.291 34.650 20.241 33.850 20.190 33 C 20.190 32.850 20.241 32.700 20.241 32.500 C 20.895 32.350 21.499 32.300 22.103 32.300 C 22.204 32.350 22.204 32.400 22.255 32.450 C 22.255 32.500 22.305 32.500 22.305 32.550 C 22.305 40.450 22.305 48.400 22.305 56.450 Z " transform="matrix(1, 0, 0, 1, 17.05, 19)"/>
    <path id="Shape" fill="#D0E9EA" stroke="none" stroke-width="1" d="M 14.803 26.250 C 13.494 26.300 12.185 25.950 10.976 26 C 10.674 25.750 10.724 25.500 10.724 25.250 C 10.724 24.950 10.724 24.600 10.724 24.300 C 10.674 23.450 10.271 22.900 9.466 22.550 C 9.264 22.500 9.063 22.400 8.862 22.350 C 8.761 20.250 8.811 18.150 9.113 16.100 C 9.365 15.850 9.617 15.950 9.818 15.950 C 10.624 15.850 10.876 15.600 10.976 14.850 C 11.027 14.500 11.027 14.150 11.027 13.750 C 11.027 13.550 11.027 13.350 11.278 13.150 C 12.285 13.300 13.393 13.300 14.450 13.350 C 14.752 13.350 15.105 13.300 15.407 13.500 C 14.752 13.550 14.148 13.550 13.443 13.600 C 13.443 15 13.443 16.350 13.443 17.700 C 13.443 19.100 13.443 20.500 13.443 21.900 C 13.443 23.250 13.343 24.600 13.494 25.950 C 13.997 25.950 14.450 26 14.853 26 C 14.803 26.100 14.803 26.150 14.803 26.250 Z " transform="matrix(1, 0, 0, 1, 17.05, 19)"/>
    <path id="Shape" fill="#CFE8E9" stroke="none" stroke-width="1" d="M 38.115 22.900 C 38.064 22.400 38.064 22.100 38.014 21.750 C 37.913 21.200 37.662 20.850 37.108 20.800 C 36.806 20.750 36.503 20.700 36.101 20.650 C 36.101 18.850 36.101 17.050 36.101 15.250 C 36.352 15.150 36.604 15 36.856 14.900 C 38.064 14.350 38.618 13.450 38.467 12.150 C 38.417 11.800 38.316 11.450 38.517 11 C 39.021 10.800 39.524 10.550 40.078 10.350 C 40.380 10.450 40.380 10.650 40.380 10.850 C 40.330 14.250 40.481 17.600 40.229 21 C 40.179 21.500 40.028 21.850 39.625 22.100 C 39.172 22.400 38.719 22.600 38.115 22.900 Z " transform="matrix(1, 0, 0, 1, 17.05, 19)"/>
    <path id="Shape" fill="#F3FFFF" stroke="none" stroke-width="1" d="M 14.803 26 C 14.350 26 13.947 25.950 13.443 25.950 C 13.292 24.550 13.393 23.200 13.393 21.900 C 13.393 20.500 13.393 19.100 13.393 17.700 C 13.393 16.350 13.393 15 13.393 13.600 C 14.098 13.550 14.752 13.500 15.357 13.500 C 15.508 13.500 15.659 13.500 15.759 13.500 C 15.759 14.750 15.759 16.050 15.759 17.300 C 15.759 17.650 15.810 18 15.860 18.350 C 16.062 19.400 16.062 20.500 15.860 21.550 C 15.810 21.950 15.709 22.300 15.709 22.700 C 15.709 23.550 15.709 24.350 15.709 25.200 C 15.709 25.450 15.759 25.700 15.508 25.900 C 15.357 26 15.105 26 14.803 26 Z " transform="matrix(1, 0, 0, 1, 17.05, 19)"/>
    <path id="Shape" fill="#D0E9EA" stroke="none" stroke-width="1" d="M 14.803 26 C 15.055 26 15.357 25.950 15.608 25.950 C 15.860 25.700 15.810 25.450 15.810 25.250 C 15.810 24.400 15.810 23.600 15.810 22.750 C 15.810 22.350 15.910 21.950 15.961 21.600 C 16.112 20.550 16.162 19.450 15.961 18.400 C 15.910 18.050 15.860 17.700 15.860 17.350 C 15.860 16.100 15.860 14.800 15.860 13.550 C 16.666 13.400 17.471 13.500 18.277 13.550 C 18.277 17.650 18.277 21.800 18.277 25.900 C 18.277 25.950 18.327 26.050 18.378 26.150 C 19.133 26.350 19.938 26.150 20.744 26.300 C 20.190 26.550 19.636 26.450 19.083 26.450 C 17.673 26.400 16.263 26.300 14.903 26.250 C 14.803 26.150 14.803 26.100 14.803 26 Z " transform="matrix(1, 0, 0, 1, 17.05, 19)"/>
    <path id="Shape" fill="#CFE8E8" stroke="none" stroke-width="1" d="M 12.386 30.800 C 10.473 30.850 8.660 30.300 6.898 29.750 C 5.488 29.300 4.028 29 2.719 28.250 C 2.417 28.050 2.115 27.900 1.813 27.700 C 1.712 26.800 1.662 26 1.712 25.150 C 1.762 24.700 2.014 24.500 2.467 24.700 C 3.273 25.050 4.078 25.450 4.884 25.700 C 7.099 26.300 9.365 26.950 11.681 27.250 C 11.933 27.300 12.235 27.250 12.487 27.450 C 12.235 27.550 11.933 27.400 11.631 27.850 C 11.631 28.650 11.631 29.600 11.631 30.550 C 11.782 30.700 12.235 30.400 12.386 30.800 Z M 3.323 27.100 C 3.273 27.600 3.676 27.750 4.028 27.950 C 5.438 28.600 6.948 29.050 8.509 29.400 C 8.912 29.500 9.315 29.550 9.717 29.600 C 10.020 29.650 10.221 29.350 10.120 29.050 C 10.020 28.800 9.869 28.650 9.617 28.600 C 9.013 28.500 8.408 28.400 7.855 28.200 C 6.747 27.850 5.639 27.500 4.531 27.100 C 4.078 26.950 3.726 26.800 3.323 27.100 Z " transform="matrix(1, 0, 0, 1, 17.05, 19)"/>
    <path id="Shape" fill="#CEE7E8" stroke="none" stroke-width="1" d="M 12.386 12.050 C 10.775 12.150 9.214 11.800 7.653 11.550 C 6.243 11.300 4.884 10.950 3.524 10.600 C 3.323 10.550 3.122 10.500 2.971 10.400 C 1.561 9.900 1.460 9.600 1.460 8.450 C 1.460 7.950 1.259 7.450 1.410 6.900 C 2.014 7.100 2.568 7.350 3.122 7.500 C 5.690 8.300 8.358 8.650 11.027 8.900 C 11.832 9 12.638 8.900 13.393 9.150 C 12.789 9.150 12.185 9.200 11.631 9.200 C 11.379 9.200 11.127 9.150 10.976 9.450 C 10.926 10.200 10.926 10.950 10.976 11.800 C 11.379 11.850 11.681 11.850 11.983 11.850 C 12.185 11.850 12.285 11.900 12.386 12.050 Z M 7.855 10.850 C 8.157 10.850 8.257 10.900 8.308 10.850 C 8.459 10.850 8.610 10.750 8.660 10.600 C 8.710 10.400 8.610 10.300 8.509 10.200 C 8.257 9.950 7.955 9.900 7.653 9.850 C 6.445 9.700 5.236 9.400 4.028 9.050 C 3.827 9 3.625 8.950 3.424 8.900 C 3.172 8.850 2.920 8.900 2.820 9.150 C 2.719 9.350 2.920 9.650 3.273 9.750 C 3.625 9.900 4.028 10 4.431 10.100 C 5.639 10.500 6.848 10.700 7.855 10.850 Z " transform="matrix(1, 0, 0, 1, 17.05, 19)"/>
    <path id="Shape" fill="#D0E9EA" stroke="none" stroke-width="1" d="M 13.343 27.450 C 14.853 27.450 16.414 27.550 17.924 27.650 C 17.471 28.700 17.723 29.800 17.723 30.950 C 18.931 31 20.039 31 21.097 31.050 C 20.492 31.300 19.838 31.200 19.183 31.200 C 17.069 31.350 14.954 31 12.839 30.900 C 12.738 30.900 12.638 30.800 12.537 30.750 C 13.091 30.650 13.645 30.800 14.249 30.600 C 13.947 29.650 14.450 28.650 14.199 27.800 C 13.947 27.600 13.544 27.850 13.343 27.450 Z " transform="matrix(1, 0, 0, 1, 17.05, 19)"/>
    <path id="Shape" fill="#F0FCFC" stroke="none" stroke-width="1" d="M 21.147 31.100 C 20.039 31.050 18.931 31.050 17.773 31 C 17.773 29.850 17.522 28.750 17.975 27.700 C 19.284 27.650 20.543 27.600 21.852 27.700 C 21.852 28.800 21.852 29.950 21.852 31.050 C 21.600 31.150 21.399 31.150 21.147 31.100 Z " transform="matrix(1, 0, 0, 1, 17.05, 19)"/>
    <path id="Shape" fill="#CAE2E3" stroke="none" stroke-width="1" d="M 32.073 62.200 C 29.404 61.100 26.635 60.200 23.916 59.450 C 23.715 59 23.715 58.650 23.815 58.250 C 24.470 58.350 31.771 60.400 32.627 60.750 C 32.828 61.300 32.526 61.700 32.073 62.200 Z " transform="matrix(1, 0, 0, 1, 17.05, 19)"/>
    <path id="Shape" fill="#CAE2E3" stroke="none" stroke-width="1" d="M 18.126 58.200 C 18.378 58.350 18.378 58.600 18.378 58.750 C 18.378 59.300 18.227 59.500 17.723 59.600 C 16.615 59.900 15.558 60.250 14.501 60.600 C 13.192 61.050 11.933 61.500 10.674 62 C 10.523 62.050 10.422 62.200 10.120 62.050 C 9.768 61.800 9.617 61.300 9.566 60.750 C 10.473 60.250 11.480 60.150 12.436 59.850 C 13.393 59.550 14.350 59.300 15.306 59 C 16.263 58.750 17.220 58.450 18.126 58.200 Z " transform="matrix(1, 0, 0, 1, 17.05, 19)"/>
    <path id="Shape" fill="#F3FFFF" stroke="none" stroke-width="1" d="M 19.183 9.250 C 19.385 9.550 19.888 9.550 19.888 10 C 19.888 10.700 20.090 11.450 19.485 12.050 C 18.579 12.050 17.622 12.050 16.615 12.050 C 16.565 11.100 16.313 10.150 16.766 9.250 C 17.018 9.200 17.270 9.200 17.471 9.250 C 17.975 9.600 18.428 9.600 18.931 9.250 C 18.982 9.250 19.083 9.250 19.183 9.250 Z " transform="matrix(1, 0, 0, 1, 17.05, 19)"/>
    <path id="Shape" fill="#F1FDFD" stroke="none" stroke-width="1" d="M 13.343 27.450 C 13.544 27.800 13.947 27.550 14.249 27.850 C 14.501 28.750 13.997 29.700 14.299 30.650 C 13.695 30.900 13.091 30.700 12.587 30.800 L 12.487 30.800 L 12.386 30.750 C 12.235 30.350 11.782 30.650 11.631 30.450 C 11.631 29.450 11.631 28.550 11.631 27.750 C 11.883 27.350 12.235 27.450 12.487 27.350 C 12.789 27.450 13.041 27.450 13.343 27.450 Z " transform="matrix(1, 0, 0, 1, 17.05, 19)"/>
    <path id="Shape" fill="#CAE2E3" stroke="none" stroke-width="1" d="M 36.957 11.500 C 37.359 12.100 37.208 12.700 37.208 13.250 C 37.208 13.500 37.007 13.650 36.806 13.800 C 36.050 14.250 35.245 14.400 34.288 14.200 C 34.087 13.600 33.885 12.950 33.885 12.200 C 34.842 11.800 35.899 11.750 36.957 11.500 Z " transform="matrix(1, 0, 0, 1, 17.05, 19)"/>
    <path id="Shape" fill="#F0FCFC" stroke="none" stroke-width="1" d="M 12.386 12.050 C 12.285 11.900 12.185 11.850 11.983 11.850 C 11.681 11.850 11.379 11.800 10.976 11.800 C 10.926 11 10.926 10.200 10.976 9.450 C 11.178 9.150 11.429 9.250 11.631 9.200 C 12.235 9.200 12.839 9.150 13.393 9.150 C 13.443 9.100 13.494 9.100 13.544 9.200 C 13.544 10.150 13.544 11.150 13.544 12.100 C 13.192 12.150 12.789 12.150 12.386 12.050 Z " transform="matrix(1, 0, 0, 1, 17.05, 19)"/>
    <path id="Shape" fill="#CEE7E8" stroke="none" stroke-width="1" d="M 19.636 57.200 C 20.643 57.400 21.550 57.600 22.406 57.450 C 22.708 57.850 22.506 58.250 22.557 58.550 C 22.607 58.900 22.557 59.250 22.557 59.600 C 21.650 59.950 20.845 59.650 19.989 59.750 C 19.687 59.800 19.435 59.450 19.435 59.100 C 19.536 58.500 19.586 57.950 19.636 57.200 Z " transform="matrix(1, 0, 0, 1, 17.05, 19)"/>
    <path id="Shape" fill="#C9E1E2" stroke="none" stroke-width="1" d="M 6.545 23.200 C 7.452 23.100 8.207 23.400 8.962 23.600 C 9.315 23.700 9.516 23.950 9.516 24.300 C 9.516 24.700 9.516 25.100 9.466 25.500 C 8.257 25.600 7.250 25.250 6.243 24.850 C 6.042 24.250 6.243 23.750 6.545 23.200 Z " transform="matrix(1, 0, 0, 1, 17.05, 19)"/>
    <path id="Shape" fill="#C9E1E2" stroke="none" stroke-width="1" d="M 33.785 24.350 C 33.533 22.200 34.238 22.250 35.547 21.900 C 35.899 21.800 36.252 21.900 36.655 21.900 C 36.906 22.300 36.806 22.750 36.806 23.150 C 36.806 23.400 36.655 23.650 36.403 23.700 C 35.547 23.950 34.741 24.350 33.785 24.350 Z " transform="matrix(1, 0, 0, 1, 17.05, 19)"/>
    <path id="Shape" fill="#C8E0E1" stroke="none" stroke-width="1" d="M 6.646 14.300 C 6.495 13.700 6.495 13.150 6.545 12.550 C 7.603 12.500 8.559 12.900 9.617 12.950 C 9.869 13.550 9.818 14.050 9.717 14.600 C 8.257 14.850 7.754 14.800 6.646 14.300 Z " transform="matrix(1, 0, 0, 1, 17.05, 19)"/>
    <path id="Shape" fill="#D0E9EA" stroke="none" stroke-width="1" d="M 18.931 9.250 C 18.428 9.600 17.975 9.600 17.471 9.250 C 17.975 9.100 18.428 9.150 18.931 9.250 Z " transform="matrix(1, 0, 0, 1, 17.05, 19)"/>
    <path id="Shape" fill="#FCFEFE" stroke="none" stroke-width="1" d="M 39.222 7.900 C 39.021 8.500 38.669 8.700 38.215 8.850 C 36.957 9.300 35.648 9.650 34.288 9.900 C 33.130 10.150 31.972 10.350 30.814 10.600 C 30.411 10.650 29.908 10.800 29.656 10.300 C 29.857 9.950 30.059 9.750 30.512 9.700 C 32.123 9.450 33.684 9 35.295 8.700 C 36.252 8.550 37.108 8.200 38.014 7.900 C 38.366 7.750 38.769 7.700 39.222 7.900 Z " transform="matrix(1, 0, 0, 1, 17.05, 19)"/>
    <path id="Shape" fill="#FCFEFD" stroke="none" stroke-width="1" d="M 39.373 25.150 C 39.726 25.400 39.726 25.650 39.474 25.850 C 38.870 26.250 38.215 26.500 37.510 26.700 C 36 27.100 34.439 27.450 32.878 27.850 C 32.274 28 31.720 28 31.116 27.900 C 31.015 27.600 31.116 27.450 31.267 27.350 C 31.469 27.200 31.670 27.100 31.922 27.050 C 33.029 26.800 34.137 26.400 35.295 26.250 C 36.101 26.150 36.906 25.800 37.712 25.600 C 38.266 25.400 38.820 25.300 39.373 25.150 Z " transform="matrix(1, 0, 0, 1, 17.05, 19)"/>
    <path id="Shape" fill="#090A0A" stroke="none" stroke-width="1" d="M 3.323 27.100 C 3.726 26.800 4.078 27 4.481 27.100 C 5.589 27.450 6.697 27.850 7.804 28.200 C 8.358 28.350 8.962 28.450 9.566 28.600 C 9.818 28.650 9.969 28.800 10.070 29.050 C 10.171 29.350 9.969 29.650 9.667 29.600 C 9.264 29.550 8.862 29.500 8.459 29.400 C 6.948 29.050 5.438 28.600 3.978 27.950 C 3.676 27.750 3.273 27.600 3.323 27.100 Z " transform="matrix(1, 0, 0, 1, 17.05, 19)"/>
    <path id="Shape" fill="#0B0C0D" stroke="none" stroke-width="1" d="M 7.855 10.850 C 6.848 10.700 5.639 10.500 4.431 10.150 C 4.028 10.050 3.676 9.950 3.273 9.800 C 2.920 9.700 2.769 9.400 2.820 9.200 C 2.920 8.950 3.172 8.900 3.424 8.950 C 3.625 9 3.827 9 4.028 9.100 C 5.236 9.450 6.445 9.750 7.653 9.900 C 7.955 9.950 8.308 10 8.509 10.250 C 8.610 10.350 8.710 10.500 8.660 10.650 C 8.610 10.800 8.459 10.900 8.308 10.900 C 8.257 10.900 8.157 10.850 7.855 10.850 Z " transform="matrix(1, 0, 0, 1, 17.05, 19)"/>
  </g>
  <g id="ID0.4143331479281187" transform="matrix(1, 0, 0, 1, -204, -114)">
    <path id="Shape" fill="#010101" stroke="none" stroke-width="1" d="M 44.862 2.500 C 44.509 2.800 44.308 3.200 43.855 3.250 C 43.200 3.300 42.646 3.050 42.344 2.500 C 42.092 2.050 42.143 1.500 42.545 1.050 C 42.948 0.600 43.603 0.400 44.207 0.650 C 44.257 0.650 44.308 0.650 44.308 0.700 C 44.811 1.300 45.516 1.200 46.221 1.250 C 48.185 1.400 50.148 1.600 52.112 1.650 C 53.522 1.700 54.931 1.850 56.341 2 C 56.442 2 56.593 2 56.694 2.050 C 58.758 2.150 60.772 2.250 62.836 2.400 C 65.303 2.600 67.821 2.850 70.288 3.050 C 70.792 3.100 71.245 3.300 71.597 3.600 C 72.050 3.950 72 4.500 71.497 4.800 C 71.043 5.100 70.540 5.250 69.986 5.200 C 69.684 5.200 69.331 5.150 69.029 5.150 C 66.008 4.900 62.937 4.750 59.916 4.350 C 57.348 4 54.831 3.800 52.263 3.500 C 50.752 3.300 49.242 3.100 47.731 2.900 C 46.775 2.700 45.869 2.600 44.862 2.500 Z " transform="matrix(1, 0, 0, 1, 204, 118)"/>
    <path id="Shape" fill="#0E0E0E" stroke="none" stroke-width="1" d="M 39.242 2.750 C 39.645 2.450 39.997 2.450 40.350 2.450 C 42.766 2.700 45.133 2.650 47.550 2.700 C 47.902 2.700 48.255 2.700 48.607 2.800 C 48.808 2.850 48.859 3 48.859 3.150 C 48.859 3.350 48.758 3.450 48.557 3.500 C 48.406 3.550 48.255 3.550 48.103 3.550 C 45.536 3.600 42.968 3.550 40.400 3.300 C 39.846 3.300 39.846 3.250 39.242 2.750 Z " transform="matrix(1, 0, 0, 1, 214, 114)"/>
    <path id="Shape" fill="#131313" stroke="none" stroke-width="1" d="M 47.348 0.650 C 47.248 1.100 46.945 1.150 46.593 1.100 C 45.385 0.900 44.176 0.950 43.018 0.950 C 42.716 0.950 42.364 0.950 42.062 0.900 C 41.910 0.900 41.759 0.750 41.759 0.550 C 41.759 0.350 41.910 0.250 42.062 0.250 C 42.515 0.200 42.917 0.200 43.371 0.150 C 44.428 0.100 45.435 0.200 46.492 0.300 C 46.794 0.350 47.097 0.400 47.348 0.650 Z " transform="matrix(1, 0, 0, 1, 214, 114)"/>
  </g>
  <g id="ID0.6468263240531087" transform="matrix(1, 0, 0, 1, -204, -114)">
    <path id="Shape" fill="#010101" stroke="none" stroke-width="1" d="M 26.031 2.400 C 24.269 3.150 22.607 3.950 20.895 4.600 C 17.069 6.100 13.393 7.850 9.617 9.400 C 7.804 10.150 6.042 10.950 4.229 11.700 C 3.474 12 2.669 12.250 1.863 12.550 C 1.712 12.600 1.561 12.600 1.410 12.600 C 0.957 12.550 0.655 12.300 0.503 11.900 C 0.352 11.450 0.554 11.100 0.906 10.850 C 1.158 10.650 1.510 10.500 1.863 10.350 C 5.085 9 8.308 7.700 11.530 6.350 C 14.702 5 18.025 4 21.248 2.850 C 22.607 2.350 23.966 1.850 25.326 1.350 C 25.678 1.250 25.779 0.950 26.031 0.700 C 26.585 0.150 27.038 0.050 27.642 0.300 C 28.297 0.600 28.599 1.200 28.498 1.850 C 28.397 2.350 27.743 2.900 27.189 2.950 C 26.987 2.950 26.786 2.900 26.635 2.800 C 26.383 2.650 26.232 2.550 26.031 2.400 Z " transform="matrix(1, 0, 0, 1, 204, 118)"/>
    <path id="Shape" fill="#0C0C0C" stroke="none" stroke-width="1" d="M 9.133 4.800 C 8.982 5.100 8.680 5.200 8.428 5.300 C 6.213 6.250 3.997 7.200 1.782 8.150 C 1.429 8.300 1.127 8.500 0.775 8.450 C 0.674 8.450 0.523 8.350 0.523 8.250 C 0.473 8.150 0.523 8 0.624 7.950 C 0.825 7.800 1.027 7.650 1.228 7.550 C 3.393 6.500 5.558 5.450 7.824 4.700 C 8.126 4.600 8.428 4.500 8.730 4.450 C 8.931 4.400 9.083 4.550 9.133 4.800 Z " transform="matrix(1, 0, 0, 1, 214, 114)"/>
    <path id="Shape" fill="#101010" stroke="none" stroke-width="1" d="M 6.666 2.800 C 6.666 3.150 6.364 3.250 6.162 3.400 C 4.803 4 3.393 4.600 1.983 5.200 C 1.933 5.250 1.832 5.250 1.782 5.250 C 1.681 5.250 1.530 5.250 1.480 5.150 C 1.429 5.050 1.379 4.950 1.480 4.850 C 1.580 4.750 1.681 4.600 1.832 4.500 C 3.141 3.650 4.601 3.100 6.062 2.600 C 6.213 2.550 6.515 2.550 6.666 2.800 Z " transform="matrix(1, 0, 0, 1, 214, 114)"/>
  </g>
</svg>