<svg width="189px" height="108px" viewBox="0 0 189 108" version="1.1" xml:space="preserve" xmlns="http://www.w3.org/2000/svg" xmlns:xlink="http://www.w3.org/1999/xlink">
  <defs/>
  <g>
    <title>fox-a</title>
    <desc>Created with Sketch.</desc>
    <g id="mountain" stroke="none" stroke-width="1" fill="none" fill-rule="evenodd">
      <g id="fox-a">
        <g id="Group-193" transform="translate(7.000000, 12.000000)">
          <path d="M76.6031429,87.6271452 L67.2749111,87.4252274 L59.5922744,69.5437479 L70.7666377,38.1512548 L82.0385754,55.0297753 C82.0385754,55.0297753 79.1544439,63.2463233 65.5359318,70.7305425 L69.319783,84.7406247 L73.0611325,83.2060493 C73.0611325,83.2060493 75.206572,84.2632548 76.6031429,87.6271452" id="Fill-127" fill="#BF6C46"/>
          <path d="M76.6031429,87.6271452 L67.2749111,87.4252274 L59.5922744,69.5437479 L70.7666377,38.1512548 L82.0385754,55.0297753 C82.0385754,55.0297753 79.1544439,63.2463233 65.5359318,70.7305425 L69.319783,84.7406247 L73.0611325,83.2060493 C73.0611325,83.2060493 75.206572,84.2632548 76.6031429,87.6271452 Z" id="Stroke-129" stroke="#80432F" stroke-width="0.5"/>
          <path d="M74.6038256,87.6421534 C74.6038256,87.6421534 74.5068498,87.0701534 74.3063135,86.510811 C74.205746,86.2341534 74.0788394,85.9683452 73.9686941,85.7736603 C73.8429848,85.5892219 73.7597772,85.466263 73.7597772,85.466263 C73.7597772,85.466263 73.8645349,85.5735507 74.0219709,85.7350849 C74.1662374,85.9092767 74.3434277,86.1570027 74.4960747,86.4216055 C74.7989744,86.9477973 75.0090886,87.534263 75.0090886,87.534263 L74.6038256,87.6421534 Z" id="Fill-131" fill="#80432F"/>
          <path d="M125.785247,87.6271452 L114.815012,87.2745425 C114.815012,87.2745425 123.847527,62.9636384 123.770904,62.8129534 C123.694282,62.6622685 131.925251,64.3704329 131.925251,64.3704329 L119.104693,85.2149808 L123.369832,83.7081315 C123.369832,83.7081315 125.186631,85.1649534 125.785247,87.6271452" id="Fill-133" fill="#BF6C46"/>
          <path d="M125.785247,87.6271452 L114.815012,87.2745425 C114.815012,87.2745425 123.847527,62.9636384 123.770904,62.8129534 C123.694282,62.6622685 131.925251,64.3704329 131.925251,64.3704329 L119.104693,85.2149808 L123.369832,83.7081315 C123.369832,83.7081315 125.186631,85.1649534 125.785247,87.6271452 Z" id="Stroke-135" stroke="#80432F" stroke-width="0.5"/>
          <path d="M124.476613,87.6421534 C124.476613,87.6421534 124.379637,87.0701534 124.179101,86.510811 C124.078533,86.2341534 123.951627,85.9683452 123.841481,85.7736603 C123.715772,85.5892219 123.632564,85.466263 123.632564,85.466263 C123.632564,85.466263 123.737322,85.5735507 123.894758,85.7350849 C124.039025,85.9092767 124.216215,86.1570027 124.368862,86.4216055 C124.671762,86.9477973 124.881876,87.534263 124.881876,87.534263 L124.476613,87.6421534 Z" id="Fill-137" fill="#80432F"/>
          <path d="M143.748094,21.3246301 C143.748094,21.3246301 143.817534,23.3293425 147.584624,23.6861644 C149.346949,23.8531233 151.918004,23.6596438 155.670129,22.7308219 C167.443108,19.8177808 169.638233,19.0143288 169.638233,19.0143288 C169.638233,19.0143288 173.279613,17.5575068 172.232036,13.689726 L161.35698,13.689726 C161.35698,13.689726 157.815569,9.77191781 155.870067,8.36572603 L146.491551,8.36572603 L144.795672,0.128082192 C144.795672,0.128082192 134.968195,25.041726 130.678513,30.4157534 C130.678513,30.4157534 129.13169,32.5759726 121.150344,32.5759726 C113.368337,32.5759726 84.8843955,26.1965753 69.6693747,31.8225479" id="Stroke-139" stroke="#80432F" stroke-width="0.5"/>
          <polyline id="Stroke-141" stroke="#80432F" stroke-width="0.5" points="148.886015 8.36572603 153.588742 0.730821918 153.588742 8.36572603"/>
          <path d="M69.6693747,31.897589 C69.6693747,31.897589 67.6286931,35.112 69.8585374,39.6831781 C72.0889803,44.2537534 95.9647761,53.1507945 97.3709249,53.4871233 C97.3709249,53.4871233 127.897344,44.0150685 152.511831,23.5478356 C153.973053,23.1590685 153.682126,23.1952329 155.670129,22.7311233 C167.480222,19.9723836 169.638233,19.0140274 169.638233,19.0140274 C169.638233,19.0140274 173.279613,17.5572055 172.232036,13.6900274 L161.35698,13.6900274 C161.35698,13.6900274 157.815569,9.77221918 155.870067,8.36542466 L146.491551,8.36542466 L144.795672,0.128383562 C144.795672,0.128383562 134.968195,25.0414247 130.678513,30.4160548 C130.678513,30.4160548 129.13169,32.5756712 121.150344,32.5756712 C113.368337,32.5756712 84.8843955,26.1968767 69.6693747,31.8222466" id="Fill-143" fill="#D9824C"/>
          <polyline id="Fill-145" fill="#D9824C" points="148.886015 8.36572603 153.588742 0.730821918 153.588742 8.36572603"/>
          <polygon id="Fill-147" fill="#F5CEB8" points="142.896623 11.2623123 144.845118 1.18269589 146.491312 8.36554521"/>
          <path d="M152.523325,23.3971507 C152.523325,23.3971507 160.693834,73.8133151 127.171342,66.2290411 C108.390965,61.979726 97.4057644,53.4871233 97.4057644,53.4871233" id="Fill-149" fill="#D9824C"/>
          <polyline id="Stroke-151" stroke="#80432F" stroke-width="0.5" points="146.481315 8.36572603 142.675315 11.4409041 144.770471 0.730821918"/>
          <path d="M151.018584,8.36572603 L153.372342,1.37153425" id="Stroke-153" stroke="#80432F" stroke-width="0.5"/>
          <path d="M158.214546,14.3931233 C158.214546,14.3931233 156.593494,12.8609589 156.019421,12.4595342 L152.752176,12.4595342 C152.752176,12.4595342 153.737498,14.5938356 158.214546,14.3931233" id="Fill-155" fill="#232020"/>
          <path d="M172.551517,15.810526 C172.534157,15.8840603 169.469842,15.5513479 169.469842,13.4917863 L172.362953,13.4917863 C172.362953,13.4917863 172.84005,14.5941973 172.551517,15.810526" id="Fill-157" fill="#232020"/>
          <path d="M152.488246,23.3971507 C152.488246,23.3971507 160.658755,73.8133151 127.136263,66.2290411 C108.355886,61.979726 97.3706855,53.4871233 97.3706855,53.4871233" id="Stroke-159" stroke="#80432F" stroke-width="0.5"/>
          <path d="M151.018584,8.36572603 C151.068269,8.29038356 153.400477,1.58490411 153.400477,1.58490411 L153.588442,8.36572603 L151.018584,8.36572603 Z" id="Fill-161" fill="#F5CEB8"/>
          <path d="M149.61471,23.7196767 C149.531502,24.1144712 151.353689,49.7393479 139.289184,55.9566082 C122.428568,64.6463068 98.5833017,51.7567178 98.1690595,50.8929918 C97.7081253,52.1864712 97.3106443,53.3919507 97.6476651,53.6631836 C97.9840872,53.9344164 122.572835,69.6237315 138.207485,66.5395123 C157.609824,62.7121151 152.921464,25.5110192 152.61198,23.510526 C152.588634,23.3592384 149.61471,23.7196767 149.61471,23.7196767" id="Fill-163" fill="#F5CEB8"/>
          <path d="M149.509773,23.7244384 C149.509773,23.7244384 151.727645,54.0856438 135.766748,57.6393973 C120.440385,61.0515068 109.178025,56.8859726 97.9270391,50.8947397" id="Stroke-165" stroke="#80432F" stroke-width="0.5"/>
          <path d="M143.748094,21.3246301 C143.748094,21.3246301 143.817534,23.3293425 147.584624,23.6861644 C149.346949,23.8531233 151.918004,23.6596438 155.670129,22.7308219 C167.443108,19.8177808 169.638233,19.0143288 169.638233,19.0143288 C169.638233,19.0143288 173.279613,17.5575068 172.232036,13.689726 L161.35698,13.689726 C161.35698,13.689726 157.815569,9.77191781 155.870067,8.36572603 L146.491551,8.36572603 L144.795672,0.128082192 C144.795672,0.128082192 134.968195,25.041726 130.678513,30.4157534 C130.678513,30.4157534 129.13169,32.5759726 121.150344,32.5759726 C113.368337,32.5759726 84.8843955,26.1965753 69.6693747,31.8225479" id="Stroke-167" stroke="#80432F" stroke-width="0.5"/>
          <polyline id="Stroke-169" stroke="#80432F" stroke-width="0.5" points="148.886015 8.36572603 153.588742 0.730821918 153.588742 8.36572603"/>
          <path d="M152.488246,23.3971507 C152.488246,23.3971507 160.658755,73.8133151 127.136263,66.2290411 C108.355886,61.979726 97.3706855,53.4871233 97.3706855,53.4871233" id="Stroke-171" stroke="#80432F" stroke-width="0.5"/>
          <path d="M158.271534,14.3731123 C157.483756,13.8113589 156.739676,13.1989753 156.010562,12.5697151 L156.106939,12.6064822 C155.308385,12.6149205 154.51043,12.6034685 153.712475,12.5847836 C152.913922,12.5558521 152.115967,12.5287288 151.318012,12.4594137 C152.115967,12.3894959 152.913922,12.3629753 153.712475,12.3334411 C154.51043,12.3147562 155.308385,12.3039068 156.106939,12.3123452 L156.163808,12.3123452 L156.203316,12.3485096 C156.916866,12.9952493 157.616648,13.6588658 158.271534,14.3731123" id="Fill-173" fill="#80432F"/>
          <path d="M69.6693747,31.8222466 C69.6693747,31.8222466 22.3787173,47.5435068 4.17061696,8.91813699 C4.17061696,8.91813699 -12.4906599,38.1009863 22.5283713,52.5161096 C43.6792675,61.5572055 69.3203817,36.9455342 69.3203817,36.9455342" id="Fill-175" fill="#D9824C"/>
          <path d="M0.931985121,31.3887562 C1.10259066,32.1108384 1.37376367,30.8330301 1.37376367,30.8330301 L2.61888478,31.7739068 L3.16422388,30.1887014 L4.63801626,30.754674 L5.05585017,29.3261808 L6.71461488,30.0392219 L7.36830346,28.1677151 L9.24017543,28.7584 L9.31440381,26.9917699 L11.466428,27.1948932 L11.541255,25.386674 C11.541255,25.386674 13.0910716,25.5662904 13.2808329,25.6693589 L13.8291651,23.934674 L15.4466253,24.1432219 C15.4466253,24.1432219 8.51046263,18.1537973 4.24532422,9.15730411 C3.59043841,8.84870137 -1.47864118,20.752811 0.931985121,31.3887562" id="Fill-177" fill="#F5CEB8"/>
          <path d="M69.6693747,31.8222466 C69.6693747,31.8222466 22.3787173,47.5435068 4.17061696,8.91813699 C4.17061696,8.91813699 -12.4906599,38.1009863 22.5283713,52.5161096 C43.5798972,61.6078356 69.0210737,37.3005479 69.0210737,37.3005479" id="Stroke-179" stroke="#80432F" stroke-width="0.5"/>
          <path d="M69.0207744,37.650137 L89.6233384,87.6269041 L99.500501,87.6269041 C99.500501,87.6269041 99.4005322,85.0652603 96.3074837,82.7049315 L91.6430685,84.8271781 L88.5733661,70.1920548 C88.5733661,70.1920548 98.9515702,60.3535342 98.5522934,42.7734247" id="Fill-181" fill="#D9824C"/>
          <path d="M69.0207744,37.3004877 L89.6233384,87.6274466 L99.500501,87.6274466 C99.500501,87.6274466 99.4005322,85.0658027 96.3074837,82.7048712 L91.6430685,84.8277205 L88.5733661,70.1919945 C88.5733661,70.1919945 98.9515702,60.353474 98.5522934,42.7739671" id="Stroke-183" stroke="#80432F" stroke-width="0.5"/>
          <path d="M97.6584401,87.6421534 C97.6584401,87.6421534 97.5614644,87.0701534 97.360928,86.510811 C97.2603606,86.2341534 97.133454,85.9683452 97.0233087,85.7736603 C96.8975993,85.5892219 96.8143917,85.466263 96.8143917,85.466263 C96.8143917,85.466263 96.9191495,85.5735507 97.0765855,85.7350849 C97.2208519,85.9092767 97.3980422,86.1570027 97.5506893,86.4216055 C97.8535889,86.9477973 98.0637031,87.534263 98.0637031,87.534263 L97.6584401,87.6421534 Z" id="Fill-185" fill="#80432F"/>
          <path d="M139.981603,50.256137 L152.153261,85.013726 L156.542911,83.256137 C156.542911,83.256137 159.735928,86.069726 159.735928,87.4765205 L149.539703,87.4765205 L133.995444,66.0280274 C133.995444,66.0280274 137.736793,65.1739452 129.106548,54.8773425" id="Fill-187" fill="#D9824C"/>
          <path d="M140.05643,50.4068219 L152.228088,85.164411 L156.617738,83.4068219 C156.617738,83.4068219 159.810755,86.220411 159.810755,87.6272055 L149.61453,87.6272055 L134.070271,66.1787123 C134.070271,66.1787123 137.81162,65.3246301 129.181375,55.0280274" id="Stroke-189" stroke="#80432F" stroke-width="0.5"/>
          <path d="M158.340196,87.6810301 C158.340196,87.6810301 158.24322,87.1090301 158.042683,86.5496877 C157.942116,86.2730301 157.815209,86.0072219 157.705064,85.812537 C157.579355,85.6280986 157.496147,85.5051397 157.496147,85.5051397 C157.496147,85.5051397 157.600905,85.6124274 157.758341,85.7739616 C157.902607,85.9481534 158.079798,86.1958795 158.232445,86.4604822 C158.535344,86.986674 158.745458,87.5731397 158.745458,87.5731397 L158.340196,87.6810301 Z" id="Fill-191" fill="#80432F"/>
        </g>
      </g>
    </g>
  </g>
</svg>