<svg width="152px" height="150px" viewBox="0 0 152 150" version="1.1" xml:space="preserve" xmlns="http://www.w3.org/2000/svg" xmlns:xlink="http://www.w3.org/1999/xlink">
  <!-- Generator: Sketch 48.2 (47327) - http://www.bohemiancoding.com/sketch -->
  <defs/>
  <g>
    <title>sam-b</title>
    <desc>Created with Sketch.</desc>
    <g id="soccer" stroke="none" stroke-width="1" fill="none" fill-rule="evenodd">
      <g id="sam-b" fill-rule="nonzero">
        <g id="scratch_footie_player_boy02" transform="translate(24.000000, 8.000000)">
          <path d="M28.315,107.165 C29.46,105.505 29.475,103.585 29.625,101.75 C31.01,100.625 40.235,102.79 42.055,103.465 C41.38,107 40.475,110.56 38.295,113.53 C36.795,113.415 34.835,111.345 33.515,110.53 C31.785,109.43 29.94,108.405 28.315,107.165 Z" id="Shape" fill="#A0640A"/>
          <path d="M28.105,106.11 C27.88,106.525 27.195,107.655 26.945,107.99 C25.4064424,110.010998 23.281274,111.507521 20.86,112.275 C16.52,113.475 11.14,111.725 7.675,109.05 L7.04,109.93 C6.455,109.845 5.07,108.65 4.605,109.28 L4.855,109.97 C5.59993219,109.90386 6.32842025,110.215533 6.795,110.8 L6.575,111.3 C5.94,111.375 4.355,110.365 3.825,110.985 C3.825,112.025 5.555,111.895 6.29,112.02 L6,113 C5.79,112.97 3.585,112.37 3.155,112.5 L3.2,113.13 L3.65,113.41 C4.41,113.205 5.005,113.515 5.685,113.785 L5.405,114.72 C4.64,115.13 4.115,114.325 3.455,114.485 C3.24,115.365 4.275,115.44 4.855,115.575 C4.75,116.035 4.515,116.385 4.83,116.815 L5.41,116.74 C5.77,115.84 5.87,114.88 6.575,114.1 C9.53790504,116.18753 12.7242394,117.938337 16.075,119.32 C18,120.095 22.395,120.87 22.665,120.875 C24.9364864,120.98417 27.2118041,120.763543 29.42,120.22 C31.655,119.925 33.52,119.44 34.525,118.72 C36.095,117.595 38.85,114.4 39.965,112.81 L28.105,106.11 Z" id="Shape" fill="#000000"/>
          <polygon id="Shape" fill="#BE0A3C" points="18.15 112.16 18.3 116.295 21.7 116.34 21.11 111.735"/>
          <path d="M28.21,119.675 C28.87,118.09 25.625,115.33 21.89,114.57 C18.495,113.88 14.62,115.115 14.35,115.22 L14.28,115.185 C11.38,117.34 15.315,120.875 19.945,122.11 C23.125,122.965 26.955,122.7 28.21,119.675 Z" id="Shape" fill="#F01446"/>
          <path d="M40.035,85.095 C31.49,83.095 29.65,90.15 29.65,90.15 L26.94,101.895 L44.5,106.395 L46.575,94.77 C46.575,94.77 48.575,87.1 40.035,85.095 Z" id="Shape" fill="#000000"/>
          <path d="M64.57,99.84 L52.205,99.84 C53.705,103.13 57.375,110.63 57.375,110.63 C57.375,110.63 64.11,110.97 66.625,109.985 C66.5,108.87 65.3,102.835 64.57,99.84 Z" id="Shape" fill="#A0640A"/>
          <path d="M72.085,133.19 L67.585,109.595 L55.5,109.595 C56.755,112.335 58,114.89 58.3,115.625 C60.65,121.775 66.535,134.125 66.74,134.31 C66.765,134.775 66.585,136.58 67.285,136.81 L67.785,136.6 C67.685,135.81 67.665,134.055 67.665,134.055 L69.06,133.99 L69.21,136.325 C69.4550572,136.464947 69.7599572,136.445276 69.985,136.275 C69.985,136.275 69.73,134.655 70.07,133.975 C71.205,133.975 71.62,133.9 71.715,134.01 C71.81,134.12 72.005,137.08 72.885,136.12 C72.685,135.405 72.305,134.66 72.695,133.875 C73.265,133.93 73.765,133.975 74,134.28 C74.235,134.585 74.35,135.92 74.69,136.18 C74.835,136.035 75.065,136.06 75.115,136.01 L74.615,133.955 C75.1597557,133.897963 75.7083068,133.886256 76.255,133.92 C76.255,133.92 76.19,133.465 76.16,133.335 C75.275,133.285 72.785,133.215 72.085,133.19 Z" id="Shape" fill="#000000"/>
          <polygon id="Shape" fill="#BE0A3C" points="58.595 119.86 59.65 123.125 65.38 122.775 64.675 119.61"/>
          <path d="M67.74,112.555 C66.9963659,112.557538 66.2534858,112.602611 65.515,112.69 L65.455,112.69 C62.28,113.825 62.57,117.605 63.18,120.58 C64.015,124.645 65.61,126.27 69.155,127.895 C69.78,127.895 70.41,127.985 71.035,127.97 C72.835,125.94 74.345,126.565 72.755,119.205 C71.165,111.845 67.855,112.64 67.74,112.555 Z" id="Shape" fill="#F01446"/>
          <path d="M65.54,96.265 C65.54,96.265 64.705,88.765 56.945,87.795 C49.185,86.825 48.14,91.11 48.14,91.11 L52,105.04 L67.05,105.295 L65.54,96.265 Z" id="Shape" fill="#000000"/>
          <path d="M65.54,96.265 L63.815,86 L32.045,79.78 L29.65,90.155 C29.65,90.155 64.43,96.055 65.54,96.265 Z" id="Shape" fill="#000000"/>
          <path d="M68.165,33.155 C68.165,33.155 73.94,34.735 75.52,29.28 C77.1,23.825 69.145,25.35 68.085,28.095 C67.605,29.34 68.165,33.155 68.165,33.155 Z" id="Shape" fill="#824600"/>
          <path d="M70.54,13.92 C70,13.265 61.15,11.355 61.15,11.355 L41.65,22.01 C42.1118156,24.2275917 42.7300272,26.4097117 43.5,28.54 C45.755,33.95 49.675,39.825 53.77,41.13 C55.985,41.835 64.47,42.77 68.73,38.2 C71.2,35.55 73.765,30.2 73.64,24.35 C73.57,20.095 71.19,14.705 70.54,13.92 Z" id="Shape" fill="#A0640A"/>
          <path d="M39.65,9.47 L40.22,9.12 C39.36,6.725 37.28,2.87 41.22,2.12 C43.6,1.65 47.12,4.27 47.85,6.485 C48.245,6.655 48.245,6.655 48.605,6.345 C48.255,4.52 47.51,2.265 49.04,0.845 C53.57,-1.755 55.765,4.68 58.32,7.215 L58.87,7.115 C59.32,5.115 57.945,2.29 60.945,2.21 C62.91,2.16 63.81,3.895 64.82,5.21 C67.195,8.305 70.58,13.945 70.58,13.945 C70.58,13.945 70.615,17.4 65.365,18.35 C62.745,18.85 58.29,16.135 51.365,18.85 C44.44,21.565 44.595,30.955 44.595,30.955 C44.595,30.955 37.08,17 36.22,15 C35.57,13.5 33.6,9.07 35.22,7.795 C36.5,6.775 38.66,8.8 39.65,9.47 Z" id="Shape" fill="#000000"/>
          <path d="M45.765,32.655 C45.765,32.655 39.99,34.235 38.41,28.78 C36.83,23.325 44.785,24.85 45.845,27.595 C46.325,28.84 45.765,32.655 45.765,32.655 Z" id="Shape" fill="#A0640A"/>
          <path d="M56.605,31.23 C59.605,31.575 62.3,32.615 65.075,33.79 C63.68,38.54 53.825,35.58 56.605,31.23 Z" id="Shape" fill="#000000"/>
          <path d="M62.025,29.71 C60.305,26.735 66.805,24.025 67.61,28.445 C68.235,31.865 64.03,30.25 62.025,29.71 Z" id="Shape" fill="#824600"/>
          <path d="M56.46,26.78 L56.085,27.82 L55.35,27.75 C55.16,26.5 56.06,24.715 56.46,26.78 Z" id="Shape" fill="#000000"/>
          <path d="M71.42,29.245 L70.83,29.165 L70.575,27.75 C70.955,27.33 70.955,27.33 71.4,27.46 C71.6489966,28.0275514 71.6562175,28.672012 71.42,29.245 Z" id="Shape" fill="#000000"/>
          <path d="M103.345,62.285 C102.745,61.725 106.425,60.045 106.185,59.525 C105.945,59.005 102.63,60.925 102.185,60.405 C101.74,59.885 105.225,58.33 105.045,57.97 C104.865,57.61 103.545,58.395 100.785,59.21 C99.785,59.5 97.565,60.31 96.36,60.485 C94.824099,60.7580816 93.2586635,60.8253399 91.705,60.685 C91.77,60.77 83.585,59.275 81.205,58.495 C79.805,58.04 75.07,55.495 70.975,53.805 L70.975,66.305 C74.915,67.23 84.295,69.24 92.795,67.805 C99.795,66.6 106.51,62.015 106.7,61.46 C107.1,60.205 103.945,62.845 103.345,62.285 Z" id="Shape" fill="#A0640A"/>
          <path d="M61.175,48.24 C61.175,48.24 53.115,44.195 50.175,51.515 C47.235,58.835 60.105,64.445 60.105,64.445 C62.945,65.88 73.79,69.32 73.79,69.32 C73.79,69.32 77.375,54.99 77.375,54.73 C76.585,54.315 61.09,48.17 61.175,48.24 Z" id="Shape" fill="#BE0A3C"/>
          <path d="M97.5,62.5 C95.81,62.38 95.375,60.655 95.375,60.655 C95.375,60.655 99.795,56.51 100.275,56.91 C100.755,57.31 99.865,58.41 99.195,59.67 C101.055,61 99.18,62.605 97.5,62.5 Z" id="Shape" fill="#824600"/>
          <path d="M9.325,77.345 C7.125,76.72 10.215,68.035 10.745,67.23 C11.155,68.1 10.31,76.885 9.325,77.345 Z" id="Shape" fill="#824600"/>
          <path d="M19.6,45.935 C15.9366937,48.0564083 12.8297354,51.0177011 10.535,54.575 C6.14,61.275 -0.125,76.82 0.45,77.54 C1.025,78.26 2.03,73.88 3.32,74.31 C4.61,74.74 2.03,79.05 2.675,79.625 C3.32,80.2 5.405,74.885 5.98,75.315 C6.555,75.745 4.545,79.405 4.905,79.695 C5.265,79.985 11.575,68.775 15.27,64.505 C17.01,62.505 20.215,58.72 22.415,57.22 C25.25,55.285 29.365,54.075 32.915,54.72 L35.315,42.22 C31.71,41.76 22.66,44.11 19.6,45.935 Z" id="Shape" fill="#A0640A"/>
          <path d="M40.285,41.16 C32.755,40.58 30.105,41.575 30.105,41.575 L30.86,55.66 C30.86,55.66 37.305,55.975 42.86,58.36 C42.86,58.36 51.905,62.62 57.275,56.64 C62.645,50.66 59.58,47.28 59.58,47.28 C59.38,47.21 47.82,41.735 40.285,41.16 Z" id="Shape" fill="#F01446"/>
          <path d="M69.16,64.565 C69.36,56.065 64.16,45.66 54.555,46.495 C51.39,46.77 47.42,47.695 44.84,49.57 C44.495,49.82 39.475,55.425 38.635,57.125 C34.72,65.05 27.685,84.785 27.685,84.785 L65.055,88.055 C65.055,88.055 69.055,69 69.16,64.565 Z" id="Shape" fill="#F01446"/>
        </g>
      </g>
    </g>
  </g>
</svg>