<svg width="300px" height="220px" viewBox="0 0 300 220" version="1.1" xml:space="preserve" xmlns="http://www.w3.org/2000/svg" xmlns:xlink="http://www.w3.org/1999/xlink">
  <!-- Generator: Sketch 49.3 (51167) - http://www.bohemiancoding.com/sketch -->
  <defs/>
  <g>
    <title>griffin-fly-b</title>
    <desc>Created with Sketch.</desc>
    <g id="griffin-fly-b" stroke="none" stroke-width="1" fill="none" fill-rule="evenodd">
      <g id="Griffin-Wings-In" transform="translate(145.500000, 127.000000) scale(-1, 1) translate(-145.500000, -127.000000) translate(18.000000, 34.000000)" fill-rule="nonzero">
        <g id="Group" transform="translate(60.000000, 45.000000)">
          <path d="M42.4,11.2 C25.9,6.9 6.2,-3.9 1.2,2.2 C-3.8,8.3 9,33.5 26.2,44.5 C43.4,55.5 52.5,48.3 52.5,48.3 C52.5,48.3 72.2,59.3 75.7,55.8 C75.7,55.8 94.4,63 95.9,58.6 C97.3,54.2 92,51.9 92,51.9 C92,51.9 103.6,54.4 96.1,46.4 C96.1,46.4 101.7,43.8 94.4,38.4 C94.4,38.4 97.4,36 84.3,29.1 C83.6,28.7 82.9,28.4 82.1,28 C66.4,20.4 52.3,13.8 42.4,11.2 Z" id="Shape" fill="#694929"/>
          <path d="M24,5.2 C24,5.2 22.5,4.6 19.8,3.7 C18.5,3.3 16.8,2.7 14.9,2.2 C13,1.7 10.8,1.2 8.4,0.9 C7.2,0.8 5.9,0.7 4.7,0.8 C4.1,0.9 3.4,1 2.8,1.2 C2.2,1.4 1.6,1.8 1.3,2.3 C0.7,3.5 0.6,4.9 0.6,6.3 C0.6,7.7 0.9,9.2 1.2,10.7 C2.6,16.6 5.6,22.4 9.3,27.6 C13,32.9 17.6,37.5 22.4,41.1 C24.8,42.9 27.2,44.6 29.6,45.9 C32,47.2 34.4,48.3 36.7,49 C39,49.7 41.2,50.1 43.2,50.2 C45.2,50.3 46.9,50.1 48.2,49.8 C49.6,49.5 50.6,49 51.3,48.7 C52,48.4 52.3,48.1 52.3,48.1 C52.3,48.1 52,48.4 51.3,48.7 C50.6,49.1 49.6,49.5 48.2,49.9 C46.8,50.3 45.1,50.5 43.1,50.5 C41.1,50.4 38.9,50.1 36.6,49.4 C31.9,48 26.8,45.2 22,41.5 C17.2,37.8 12.5,33.2 8.7,27.9 C5,22.6 2,16.7 0.6,10.7 C0.3,9.2 0,7.7 0,6.2 C0,4.7 0.1,3.2 0.8,1.9 C1.2,1.2 1.9,0.8 2.6,0.6 C3.3,0.4 3.9,0.3 4.6,0.2 C5.9,0.1 7.2,0.2 8.4,0.4 C10.8,0.7 13,1.3 14.9,1.8 C16.8,2.3 18.4,2.9 19.8,3.4 C22.6,4.6 24,5.2 24,5.2 Z" id="Shape" fill="#423118"/>
          <path d="M49.8,43.5 C49.8,43.5 50,43.6 50.2,43.7 C50.5,43.9 50.9,44 51.3,44.4 C51.5,44.6 51.8,44.7 52,44.9 C52.2,45.1 52.5,45.3 52.6,45.7 C52.7,45.9 52.8,46 52.9,46.2 C53,46.4 53,46.6 53.1,46.8 C53.1,47.2 53.1,47.6 52.9,48 C52.7,48.4 52.5,48.7 52.2,48.9 C51.9,49.2 51.6,49.3 51.3,49.5 C51,49.7 50.7,49.8 50.4,49.9 C50.1,50 49.8,50.1 49.6,50.1 C49.1,50.2 48.6,50.2 48.3,50.2 C48,50.2 47.8,50.2 47.8,50.2 C47.8,50.2 48,50.2 48.3,50.1 C48.6,50 49,49.9 49.5,49.8 C49.7,49.7 50,49.6 50.3,49.5 C50.6,49.4 50.8,49.2 51.1,49.1 C51.4,48.9 51.6,48.8 51.9,48.6 C52.1,48.4 52.3,48.2 52.5,47.9 C52.6,47.6 52.7,47.4 52.6,47.1 C52.6,47 52.5,46.8 52.5,46.7 C52.4,46.6 52.4,46.4 52.3,46.3 C52.2,46 52,45.8 51.8,45.6 C51.6,45.4 51.4,45.2 51.2,45 C50.9,44.6 50.5,44.4 50.3,44.2 C50,43.6 49.8,43.5 49.8,43.5 Z" id="Shape" fill="#423118"/>
          <path d="M52.4,48.2 C52.4,48.2 53.9,48.9 56.2,50 C57.3,50.6 58.7,51.2 60.1,51.8 C61.5,52.5 63.1,53.1 64.7,53.8 C66.3,54.5 67.8,55.1 69.4,55.5 C70.2,55.7 70.9,55.9 71.6,56.1 C72.3,56.3 73,56.3 73.6,56.3 C74.2,56.3 74.8,56.2 75.1,55.8 C75.4,55.5 75.6,55 75.6,54.7 C75.6,54.3 75.6,54 75.6,53.9 C75.6,53.7 75.6,53.6 75.6,53.6 C75.6,53.6 75.6,53.7 75.7,53.9 C75.7,54.1 75.8,54.4 75.8,54.8 C75.8,55.2 75.7,55.7 75.3,56.1 C74.9,56.5 74.3,56.7 73.6,56.7 C72.3,56.8 70.8,56.5 69.2,56.1 C67.7,55.7 66,55.1 64.5,54.4 C62.9,53.7 61.4,53 59.9,52.3 C58.5,51.6 57.1,50.9 56,50.3 C53.9,49.1 52.4,48.2 52.4,48.2 Z" id="Shape" fill="#423118"/>
          <path d="M75.7,55.7 C75.7,55.7 77.5,56.3 80.2,57.1 C81.5,57.5 83.1,57.9 84.8,58.4 C86.5,58.8 88.3,59.2 90.2,59.4 C91.1,59.5 92,59.6 92.9,59.5 C93.8,59.4 94.7,59.3 95.3,58.8 C95.6,58.6 95.7,58.2 95.9,57.8 C96,57.6 96,57.4 96.1,57.2 C96.1,57 96.2,56.8 96.2,56.6 C96.2,55.9 96,55.1 95.6,54.6 C94.8,53.5 93.9,52.8 93.2,52.3 C92.5,51.9 92.1,51.7 92.1,51.7 C92.1,51.7 92.5,51.8 93.3,52.2 C94,52.6 95.1,53.2 96,54.4 C96.4,55 96.8,55.8 96.8,56.6 C96.8,56.8 96.8,57 96.7,57.3 C96.7,57.5 96.6,57.8 96.5,57.9 C96.4,58.3 96.2,58.8 95.8,59.1 C95,59.8 94,59.9 93.1,60 C92.2,60.1 91.2,60 90.3,59.9 C88.4,59.7 86.6,59.2 84.9,58.8 C83.2,58.3 81.6,57.8 80.3,57.3 C79,56.8 77.9,56.4 77.1,56.1 C76.1,55.9 75.7,55.7 75.7,55.7 Z" id="Shape" fill="#423118"/>
          <path d="M87.2,50.7 C87.2,50.7 88.7,51 90.8,51.3 C91.9,51.5 93.2,51.6 94.5,51.7 C95.2,51.7 95.9,51.7 96.6,51.7 C97.3,51.6 98,51.5 98.2,50.9 C98.4,50.3 98.2,49.6 97.9,49 C97.6,48.4 97.2,47.8 96.7,47.4 C95.7,46.5 94.6,45.9 93.6,45.4 C92.6,45 91.7,44.7 91.1,44.5 C90.5,44.3 90.1,44.2 90.1,44.2 C90.1,44.2 90.5,44.2 91.1,44.4 C91.7,44.5 92.6,44.7 93.7,45.1 C94.7,45.5 95.9,46 97,47 C97.5,47.5 98,48 98.4,48.7 C98.7,49.4 99,50.2 98.8,51 C98.8,51.1 98.7,51.2 98.7,51.3 C98.6,51.4 98.5,51.5 98.5,51.6 C98.3,51.8 98.1,51.9 97.9,52 C97.5,52.2 97.1,52.2 96.8,52.3 C96,52.4 95.3,52.4 94.6,52.3 C93.2,52.2 91.9,51.9 90.9,51.7 C89.8,51.5 88.9,51.2 88.3,51 C87.6,50.8 87.2,50.7 87.2,50.7 Z" id="Shape" fill="#423118"/>
          <path d="M96,46.4 C96,46.4 96.2,46.2 96.6,45.8 C96.9,45.4 97.4,44.8 97.6,43.9 C97.7,43.5 97.7,43 97.6,42.5 C97.5,42 97.3,41.6 97,41.1 C96.7,40.7 96.3,40.2 95.8,39.9 C95.4,39.5 94.9,39.2 94.3,38.9 C93.8,38.6 93.3,38.3 92.7,38 C92.2,37.7 91.6,37.5 91.1,37.3 C90.6,37.1 90.1,36.9 89.6,36.7 C89.1,36.5 88.7,36.3 88.2,36.2 C86.5,35.6 85.3,35.2 85.3,35.2 C85.3,35.2 85.6,35.3 86.1,35.4 C86.6,35.5 87.4,35.7 88.3,35.9 C88.7,36 89.2,36.2 89.7,36.3 C90.2,36.4 90.7,36.6 91.3,36.8 C91.8,37 92.4,37.2 92.9,37.5 C93.5,37.8 94,38 94.5,38.4 C95,38.7 95.5,39.1 96,39.5 C96.5,39.9 96.9,40.4 97.2,40.8 C97.5,41.3 97.8,41.9 97.8,42.4 C97.9,43 97.8,43.5 97.6,43.9 C97.3,44.8 96.7,45.4 96.3,45.7 C96.2,46.2 96,46.4 96,46.4 Z" id="Shape" fill="#423118"/>
          <path d="M94.2,38.4 C94.2,38.4 94.4,38.3 94.5,37.9 C94.6,37.5 94.4,36.9 94,36.3 C93.6,35.7 93,35.1 92.1,34.4 C91.3,33.8 90.4,33.1 89.3,32.4 C88.2,31.7 87.1,31 85.8,30.3 C84.6,29.6 83.2,28.9 81.8,28.2 C79,26.8 76,25.3 72.9,23.9 C69.9,22.5 66.8,21.1 63.9,19.8 C61,18.5 58.3,17.3 56,16.4 C53.7,15.4 51.7,14.6 50.4,14 C49,13.4 48.3,13.1 48.3,13.1 C48.3,13.1 49.1,13.4 50.5,13.9 C51.9,14.4 53.9,15.1 56.2,16.1 C58.5,17 61.3,18.1 64.2,19.4 C67.1,20.6 70.2,22 73.2,23.4 C76.2,24.8 79.3,26.3 82.1,27.8 C83.5,28.5 84.8,29.3 86.1,30 C87.4,30.7 88.5,31.5 89.6,32.2 C90.6,32.9 91.6,33.6 92.3,34.3 C93.1,35 93.7,35.7 94.1,36.3 C94.5,36.9 94.7,37.5 94.6,37.9 C94.5,38.3 94.2,38.4 94.2,38.4 Z" id="Shape" fill="#423118"/>
          <g transform="translate(31.000000, 20.000000)" fill="#52391E" id="Shape">
            <path d="M40.2,32.1 C40.2,32.1 40.8,32.2 41.6,32.5 C42.4,32.7 43.5,33.1 44.6,33.3 C44.9,33.3 45.1,33.4 45.4,33.3 C45.7,33.3 45.9,33.3 46.1,33.2 C46.3,33.1 46.6,33.1 46.8,33 C47,32.9 47.2,32.8 47.4,32.7 C47.6,32.6 47.7,32.4 47.8,32.3 C47.9,32.2 48,32.1 48.1,32 C48.3,31.8 48.4,31.7 48.4,31.7 C48.4,31.7 48.3,31.8 48.2,32.1 C48.1,32.2 48.1,32.4 48,32.5 C47.9,32.6 47.8,32.8 47.6,33 C47.4,33.1 47.3,33.3 47,33.5 C46.8,33.7 46.5,33.8 46.3,33.9 C46,34 45.7,34.1 45.4,34.1 C45.1,34.1 44.8,34.1 44.5,34.1 C43.3,33.9 42.2,33.4 41.5,33.1 C40.6,32.4 40.2,32.1 40.2,32.1 Z"/>
            <path d="M44.3,29.2 C44.3,29.2 44.6,29.2 45,29.5 C45.4,29.7 46,30 46.7,30.4 C47.4,30.8 48.2,31.2 49.1,31.6 C50,32 51,32.4 52,32.5 C52.5,32.6 53,32.6 53.4,32.4 C53.8,32.3 54.2,32 54.4,31.6 C54.6,31.3 54.5,30.9 54.2,30.6 C53.9,30.3 53.6,30 53.3,29.8 C52.7,29.4 52.1,29 51.7,28.8 C51.3,28.6 51.1,28.5 51.1,28.5 C51.1,28.5 51.4,28.6 51.8,28.7 C52.2,28.9 52.9,29.1 53.6,29.5 C53.9,29.7 54.3,30 54.7,30.3 C54.9,30.5 55,30.7 55.1,31 C55.1,31.1 55.2,31.3 55.2,31.5 C55.2,31.6 55.2,31.7 55.1,31.8 C55.1,31.9 55.1,31.9 55,32 C54.7,32.5 54.3,32.9 53.7,33.1 C53.1,33.3 52.6,33.3 52,33.3 C50.9,33.1 49.9,32.7 49,32.3 C48.1,31.9 47.3,31.4 46.6,30.9 C45.9,30.5 45.4,30.1 45,29.8 C44.5,29.3 44.3,29.2 44.3,29.2 Z"/>
            <path d="M44.1,25.6 C44.1,25.6 44.3,25.7 44.6,25.8 C44.9,25.9 45.3,26.1 45.9,26.3 C47,26.7 48.4,27.2 49.9,27.5 C50.3,27.6 50.6,27.6 51,27.6 C51.3,27.6 51.7,27.6 51.9,27.5 C52.1,27.4 52.2,27.2 52.2,26.9 C52.2,26.6 52.1,26.3 51.9,26.1 C51.7,25.6 51.4,25.2 51.2,24.9 C51,24.6 50.9,24.5 50.9,24.5 C50.9,24.5 51,24.6 51.3,24.9 C51.5,25.1 51.9,25.5 52.2,26 C52.4,26.2 52.5,26.5 52.6,26.9 C52.6,27.1 52.6,27.3 52.6,27.5 C52.5,27.7 52.3,27.9 52.1,28 C51.7,28.2 51.3,28.3 50.9,28.3 C50.5,28.3 50.1,28.3 49.7,28.2 C48.1,27.9 46.7,27.3 45.7,26.7 C44.7,26.1 44.1,25.6 44.1,25.6 Z"/>
            <path d="M21.2,25.7 C21.2,25.7 21.8,25.7 22.6,25.8 C23,25.8 23.5,25.8 24,25.8 C24.5,25.7 25.1,25.6 25.2,25.3 C25.4,25 25.2,24.5 25,24.1 C24.8,23.7 24.5,23.3 24.3,22.9 C24.1,22.6 23.9,22.3 23.7,22.1 C23.6,21.9 23.5,21.8 23.5,21.8 C23.5,21.8 24,22.1 24.6,22.7 C24.9,23 25.2,23.4 25.5,23.9 C25.6,24.1 25.8,24.4 25.9,24.7 C26,25 26,25.4 25.8,25.8 C25.6,26.1 25.2,26.3 24.9,26.4 C24.6,26.5 24.3,26.5 24,26.5 C23.4,26.5 22.9,26.4 22.5,26.3 C21.7,25.9 21.2,25.7 21.2,25.7 Z"/>
            <path d="M0.3,7 C0.3,7 1.6,7.5 3.4,8.3 C4.3,8.7 5.4,9.2 6.6,9.7 C7.8,10.2 9,10.7 10.3,11.1 C10.9,11.3 11.6,11.5 12.2,11.5 C12.8,11.6 13.3,11.4 13.6,10.9 C13.9,10.3 13.9,9.8 13.8,9.3 C13.7,8.8 13.3,8.4 13,8 C12.3,7.3 11.5,6.9 11,6.7 C10.5,6.5 10.1,6.4 10.1,6.4 C10.1,6.4 10.4,6.5 11,6.6 C11.6,6.8 12.4,7.1 13.2,7.8 C13.6,8.1 14,8.6 14.2,9.2 C14.4,9.8 14.3,10.5 14.1,11.1 C14,11.4 13.7,11.8 13.3,12 C12.9,12.2 12.6,12.2 12.2,12.2 C11.5,12.2 10.8,12 10.1,11.8 C8.8,11.4 7.5,10.8 6.4,10.3 C5.2,9.8 4.2,9.2 3.3,8.8 C1.4,7.7 0.3,7 0.3,7 Z"/>
            <path d="M12.9,8 C12.9,8 13.1,8.1 13.5,8.3 C13.9,8.5 14.5,8.7 15.2,8.9 C15.6,9 16,9 16.3,8.8 C16.6,8.7 16.9,8.3 17,7.9 C17,7.8 17.1,7.7 17.1,7.6 L17.1,7.5 L17.1,7.3 C17.1,7.1 17.1,6.9 17,6.7 C16.9,6.3 16.6,5.9 16.3,5.5 C15.7,4.7 14.9,4.1 14.2,3.5 C13.4,2.9 12.7,2.4 12.1,2 C10.8,1.2 9.9,0.7 9.9,0.7 C9.9,0.7 10.9,1 12.3,1.7 C13,2.1 13.8,2.5 14.6,3 C15.4,3.6 16.2,4.2 16.9,5 C17.2,5.4 17.5,5.9 17.7,6.4 C17.8,6.7 17.8,7 17.8,7.3 L17.8,7.5 L17.8,7.6 C17.8,7.7 17.7,7.9 17.7,8 C17.5,8.5 17.1,9 16.6,9.1 C16.1,9.3 15.6,9.2 15.3,9.1 C14.5,8.9 14,8.5 13.6,8.3 C13.1,8.1 12.9,8 12.9,8 Z"/>
            <path d="M33.1,7.6 C33.1,7.6 33.3,7.6 33.5,7.7 C33.8,7.8 34.2,7.9 34.6,8.1 C35,8.2 35.6,8.4 36.2,8.4 C36.5,8.5 36.8,8.4 37.1,8.5 L37.5,8.5 L37.9,8.4 C38.1,8.3 38.4,8.2 38.4,8 C38.5,7.8 38.4,7.6 38.4,7.3 C38.3,7.1 38.2,6.8 38,6.6 C37.8,6.4 37.7,6.2 37.5,6 C37.2,5.6 36.9,5.4 36.7,5.2 C36.5,5 36.4,4.9 36.4,4.9 C36.4,4.9 36.5,5 36.8,5.1 C37,5.2 37.4,5.5 37.8,5.8 C38,5.9 38.2,6.1 38.4,6.4 C38.6,6.6 38.8,6.9 38.9,7.2 C39,7.5 39.2,7.9 39,8.3 C38.9,8.7 38.5,9 38.1,9.1 C37.9,9.1 37.7,9.2 37.6,9.2 L37.1,9.2 C36.8,9.2 36.4,9.2 36.1,9.1 C35.5,9 34.9,8.8 34.5,8.5 C34,8.3 33.7,8.1 33.5,7.9 C33.3,7.7 33.1,7.6 33.1,7.6 Z"/>
            <path d="M38.3,8.3 C38.3,8.3 39.2,8.6 40.5,9.2 C41.1,9.5 41.9,9.9 42.7,10.5 C43.4,11 44.2,11.7 44.9,12.4 C45.2,12.8 45.5,13.2 45.7,13.7 C45.9,14.2 45.9,14.8 45.6,15.3 C45.3,15.8 44.8,15.9 44.3,16 C43.9,16.1 43.5,16.1 43.1,16.1 C42.4,16.1 41.8,16 41.3,15.9 C40.9,15.8 40.6,15.8 40.6,15.8 C40.6,15.8 40.8,15.8 41.3,15.8 C41.7,15.8 42.3,15.8 43,15.7 C43.4,15.7 43.7,15.6 44.1,15.5 C44.5,15.4 44.8,15.2 45,14.9 C45.2,14.6 45.2,14.2 45,13.8 C44.8,13.4 44.6,13 44.3,12.7 C43.7,12 43,11.4 42.3,10.8 C41.6,10.3 40.9,9.8 40.3,9.4 C39.7,9 39.2,8.7 38.8,8.5 C38.5,8.4 38.3,8.3 38.3,8.3 Z"/>
          </g>
          <path d="M43,42 C43,42 43.7,42.2 44.8,42.6 C45.3,42.8 45.9,43 46.6,43.2 C47.3,43.4 48,43.6 48.6,43.6 C48.9,43.6 49.2,43.5 49.4,43.3 C49.6,43.1 49.6,42.8 49.6,42.5 C49.5,41.9 49.2,41.3 48.9,40.9 C48.6,40.4 48.3,40.1 48.1,39.8 C47.9,39.5 47.8,39.4 47.8,39.4 C47.8,39.4 48,39.5 48.2,39.7 C48.4,39.9 48.8,40.2 49.2,40.7 C49.6,41.1 50,41.7 50.2,42.5 C50.3,42.9 50.2,43.4 49.9,43.7 C49.6,44.1 49.1,44.2 48.7,44.2 C47.9,44.2 47.2,43.9 46.5,43.7 C45.8,43.5 45.2,43.2 44.7,42.9 C43.6,42.4 43,42 43,42 Z" id="Shape" fill="#52391E"/>
          <path d="M50,21.9 C50,21.9 51,22.4 52.4,23 C53.1,23.3 54,23.6 54.9,23.9 C55.4,24.1 55.9,24.2 56.4,24.3 C56.7,24.3 56.9,24.4 57.2,24.4 C57.5,24.4 57.7,24.4 57.9,24.4 C58.2,24.4 58.4,24.3 58.6,24.3 C58.8,24.2 59,24.1 59.2,24 C59.6,23.7 59.6,23.4 59.4,23 C59.2,22.6 58.8,22.3 58.5,22 C58.2,21.7 57.8,21.5 57.5,21.3 C56.8,20.9 56.2,20.5 55.8,20.3 C55.4,20.1 55.1,20 55.1,20 C55.1,20 55.4,20.1 55.8,20.2 C56.2,20.4 56.9,20.6 57.6,21 C58,21.2 58.3,21.4 58.7,21.7 C59.1,22 59.5,22.3 59.8,22.8 C60,23 60.1,23.4 60,23.7 C60,24 59.7,24.4 59.5,24.5 C59.3,24.7 59,24.8 58.7,24.9 C58.4,25 58.1,25.1 57.8,25.1 C57.5,25.1 57.2,25.1 57,25.1 C56.7,25.1 56.5,25 56.2,25 C55.7,24.9 55.2,24.7 54.7,24.6 C54.2,24.4 53.8,24.2 53.3,24 C52.9,23.8 52.5,23.6 52.1,23.4 C50.9,22.5 50,21.9 50,21.9 Z" id="Shape" fill="#52391E"/>
          <path d="M14.5,20.5 C14.5,20.5 15.4,21.1 16.9,21.9 C17.6,22.3 18.5,22.7 19.4,23 C19.9,23.1 20.4,23.2 20.9,23.2 C21.1,23.2 21.4,23.2 21.6,23.1 C21.8,23 22.1,22.9 22.2,22.8 C22.4,22.6 22.2,22 22,21.6 C21.7,21.2 21.4,20.8 21,20.4 C20.3,19.7 19.6,19 18.9,18.5 C18.3,18 17.7,17.5 17.4,17.2 C17,16.9 16.8,16.7 16.8,16.7 C16.8,16.7 17.8,17.2 19.1,18.2 C19.8,18.7 20.5,19.3 21.3,20 C21.7,20.4 22.1,20.8 22.4,21.2 C22.6,21.4 22.7,21.7 22.8,22 C22.9,22.3 22.9,22.7 22.6,23 C22.4,23.3 22,23.4 21.8,23.5 C21.5,23.6 21.2,23.6 20.9,23.7 C20.3,23.7 19.8,23.6 19.2,23.4 C18.2,23.1 17.3,22.6 16.6,22.1 C15.9,21.6 15.4,21.2 15,20.9 C14.7,20.7 14.5,20.5 14.5,20.5 Z" id="Shape" fill="#52391E"/>
        </g>
        <g id="Group" transform="translate(102.000000, 71.000000)">
          <path d="M1.1,25.1 C5.4,42.4 19.7,60.9 32,68.7 C44.3,76.5 48.7,95.7 48.7,95.7 C48.7,95.7 43.2,102.3 44.3,104.5 C46.8,109.4 57.5,106.5 60.4,102.6 C63.3,98.7 62.4,63.4 56.5,59 C50.6,54.6 44.7,53.1 46.2,41.8 C47.7,30.5 49.2,5.5 38.6,2.1 C28.1,-1.4 -5.3,-0.9 1.1,25.1 Z" id="Shape" fill="#694929"/>
          <path d="M3.7,32.5 C3.7,32.5 4.2,33.7 5.1,35.6 C6,37.6 7.5,40.3 9.3,43.5 C11.2,46.7 13.5,50.4 16.3,54 C17.7,55.8 19.2,57.7 20.9,59.4 C21.8,60.3 22.6,61.1 23.6,61.9 C24.5,62.7 25.6,63.4 26.6,64.1 C28.6,65.6 30.6,67.1 32.5,68.6 C34.4,70.2 36.2,71.7 37.9,73.4 C39.5,75.1 41,76.8 42.1,78.6 C43.2,80.4 44.2,82.2 44.9,83.9 C45.6,85.6 46.2,87.2 46.7,88.7 C47.2,90.1 47.5,91.4 47.8,92.4 C48.4,94.5 48.7,95.7 48.7,95.7 C48.7,95.7 48.3,94.5 47.7,92.4 C47.4,91.4 47,90.1 46.5,88.7 C46,87.3 45.4,85.7 44.6,84 C43.9,82.3 42.9,80.5 41.7,78.8 C40.5,77 39.1,75.3 37.5,73.7 C35.9,72 34,70.5 32.2,69 C30.3,67.5 28.3,66 26.3,64.6 C25.3,63.9 24.3,63.2 23.3,62.4 C22.3,61.6 21.4,60.8 20.6,59.9 C18.9,58.1 17.4,56.3 15.9,54.4 C13.1,50.7 10.8,47 9,43.7 C7.2,40.5 5.9,37.6 5,35.7 C4.1,33.7 3.7,32.5 3.7,32.5 Z" id="Shape" fill="#423118"/>
          <path d="M47.5,102.1 C47.5,102.1 47.4,102.4 47.2,102.7 C47,103.1 46.8,103.6 46.5,104 C46.2,104.5 46,104.9 45.8,105.3 C45.7,105.5 45.6,105.6 45.6,105.8 C45.6,105.9 45.5,106 45.5,106 C45.5,106 45.4,105.7 45.4,105.3 C45.4,104.9 45.6,104.3 45.8,103.8 C46.1,103.3 46.4,102.9 46.7,102.6 C47.2,102.3 47.5,102.1 47.5,102.1 Z" id="Shape" fill="#423118"/>
          <path d="M51.3,103.6 C51.3,103.6 51.2,103.8 51.1,104.2 C51,104.5 50.8,104.9 50.6,105.4 C50.4,105.8 50.2,106.2 50.1,106.5 C50,106.7 50,106.8 49.9,106.9 C49.9,107 49.8,107.1 49.8,107.1 C49.8,107.1 49.7,106.9 49.7,106.5 C49.7,106.1 49.8,105.6 50,105.2 C50.2,104.8 50.5,104.4 50.8,104.1 C51.1,103.7 51.3,103.6 51.3,103.6 Z" id="Shape" fill="#423118"/>
          <path d="M60.4,70.1 C60.4,70.1 60.4,69.9 60.4,69.5 C60.4,69.1 60.3,68.5 60.2,67.8 C59.9,66.4 59.4,64.3 58.3,62.1 C57.7,61 57,59.9 56,58.9 C55.7,58.7 55.5,58.4 55.2,58.2 C54.9,58 54.6,57.8 54.3,57.6 C53.7,57.3 53,56.9 52.3,56.6 C50.9,55.8 49.5,54.8 48.4,53.6 C47.3,52.3 46.5,50.7 46.1,49.1 C45.7,47.4 45.6,45.7 45.7,44.1 C45.8,42.4 46.1,40.8 46.3,39.3 C46.7,36.2 46.9,33.3 47,30.8 C47.1,28.3 47.2,26.2 47.3,24.8 C47.3,23.3 47.3,22.5 47.3,22.5 C47.3,22.5 47.3,23.3 47.4,24.8 C47.4,26.3 47.5,28.3 47.4,30.9 C47.3,33.4 47.2,36.3 46.9,39.5 C46.8,41.1 46.4,42.7 46.4,44.3 C46.3,45.9 46.4,47.6 46.8,49.1 C47.2,50.7 47.9,52.2 48.9,53.4 C49.9,54.6 51.2,55.6 52.5,56.3 C53.2,56.7 53.9,57 54.6,57.4 C54.9,57.6 55.2,57.8 55.5,58.1 C55.8,58.3 56.1,58.6 56.3,58.9 C57.3,59.9 58.1,61.1 58.6,62.3 C59.2,63.4 59.5,64.5 59.8,65.5 C60.1,66.5 60.2,67.4 60.3,68.1 C60.4,68.8 60.4,69.4 60.5,69.8 C60.4,69.9 60.4,70.1 60.4,70.1 Z" id="Shape" fill="#423118"/>
          <path d="M51.5,62.5 C51.5,62.5 51.9,62.7 52.4,63.1 C52.9,63.5 53.5,64.2 53.9,65 C54,65.2 54.1,65.4 54.2,65.6 C54.3,65.8 54.3,66 54.4,66.2 C54.5,66.4 54.5,66.6 54.5,66.8 C54.5,67 54.5,67.2 54.5,67.3 C54.5,67.6 54.5,67.9 54.4,68.1 C54.4,68.3 54.4,68.4 54.4,68.4 C54.4,68.4 54.4,68.3 54.3,68.1 C54.3,67.9 54.2,67.7 54.1,67.4 C54,67.1 53.9,66.8 53.8,66.4 C53.7,66 53.5,65.7 53.3,65.3 C52.9,64.6 52.5,63.9 52.1,63.4 C51.8,62.9 51.5,62.5 51.5,62.5 Z" id="Shape" fill="#423118"/>
        </g>
        <g id="Group" transform="translate(14.000000, 81.000000)">
          <g transform="translate(0.000000, 66.000000)" id="Shape">
            <path d="M19.1,0.6 C18.3,5.7 13.5,14.9 11.2,14.9 C8.9,14.9 4.4,12.8 3.3,14.7 C2.2,16.6 10.4,17.7 10.4,17.7 C10.4,17.7 2.9,19.8 2.5,22 C2.1,24.3 14.9,19.6 14.9,19.6 C14.9,19.6 11.7,26.4 13.6,27.1 C15.5,27.9 17.9,24.8 19.4,20.2 C20.9,15.6 25.6,3.9 25.6,3.9 L19.1,0.6 Z" fill="#E0AB38"/>
            <path d="M5.3,19.6 C5.3,19.6 5.8,19.3 6.6,18.9 C7.4,18.5 8.5,18 9.6,17.6 C10.7,17.2 11.8,16.9 12.7,16.7 C13.6,16.5 14.2,16.5 14.2,16.5 C14.2,16.5 13.6,16.7 12.8,17 C12,17.3 10.9,17.7 9.8,18.1 C8.7,18.5 7.6,18.9 6.8,19.1 C5.8,19.5 5.3,19.6 5.3,19.6 Z" fill="#B3872A"/>
            <path d="M13.1,25.1 C13.1,25.1 13.1,24.6 13.2,23.9 C13.3,23.2 13.5,22.3 13.8,21.4 C14.1,20.5 14.6,19.7 15,19.1 C15.2,18.8 15.4,18.6 15.6,18.5 C15.8,18.4 15.9,18.3 15.9,18.3 C15.9,18.3 15.8,18.4 15.7,18.6 C15.6,18.8 15.5,19 15.3,19.3 C15,19.9 14.7,20.7 14.4,21.6 C14.1,22.4 13.8,23.3 13.5,23.9 C13.3,24.7 13.1,25.1 13.1,25.1 Z" fill="#B3872A"/>
            <path d="M3.3,14.7 C3.3,14.7 3.2,14.6 3.3,14.3 C3.4,14.1 3.8,13.9 4.2,13.8 C5,13.6 6.1,13.6 7.1,13.8 C8.1,13.9 9.2,14.2 9.9,14.4 C10.6,14.6 11.1,14.9 11.1,14.9 C11.1,14.9 10.6,14.9 9.8,14.8 C9,14.7 8,14.6 7,14.5 C6.5,14.4 6,14.4 5.5,14.3 C5,14.3 4.6,14.2 4.2,14.2 C3.8,14.2 3.5,14.3 3.4,14.4 C3.3,14.5 3.3,14.7 3.3,14.7 Z" fill="#B3872A"/>
            <path d="M3.5,21 C1.7,21.3 1.2,23.9 1.2,23.9 C1.2,23.9 2.5,22 4,22 C3.9,22 4.5,20.9 3.5,21 Z" fill="#3B342D"/>
            <path d="M14.1,26 C12.6,27.1 13.3,29.6 13.3,29.6 C13.3,29.6 13.6,27.3 14.9,26.6 C14.9,26.7 14.9,25.4 14.1,26 Z" fill="#3B342D"/>
            <path d="M3.7,14.6 C1.9,14.3 0.6,16.6 0.6,16.6 C0.6,16.6 2.4,15.2 3.8,15.6 C3.8,15.6 4.7,14.7 3.7,14.6 Z" fill="#3B342D"/>
          </g>
          <g transform="translate(12.000000, 0.000000)" id="Shape">
            <path d="M36,20.1 C35.8,11.6 31.7,6 29.5,3.3 C27.3,0.6 22.2,0.5 19.8,0.9 C10.1,2.4 8.8,35.2 7.7,46.1 C7.4,49.1 6,64.2 4.3,68.2 C2.6,72.2 0.4,75.2 0.4,75.2 C1.6,75.2 2.6,74.8 2.6,74.8 C2.5,75.6 1.7,76.9 1.7,76.9 C4.1,76.5 4.9,73.4 4.9,73.4 C5.1,75 4.4,78.9 4.4,78.9 C6,77.8 6.9,74.7 6.9,74.7 C6.1,78.7 8.8,80.8 8.8,80.8 C8.2,79.2 9.7,76 9.7,76 C9.3,78.9 10.8,82 10.8,82 C12.4,81.4 12.3,78.9 12.3,78.9 C12.5,80.1 12.8,82.5 12.8,82.5 C13.9,80.5 13.5,77.8 13.4,77.4 C13.4,79.1 15.8,80.9 15.8,80.9 C15.8,80.9 14,79.5 16.2,71.8 C17.3,68.1 20,63 23,55.6 C27.4,44.5 31.9,32.1 32.4,23.1 C33.2,24.5 34,26.2 34,26.2 C35.9,21.8 33.1,16.2 33.1,16.2 C34.6,17.4 36,20.1 36,20.1 Z" fill="#694929"/>
            <path d="M15.9,81 C15.9,81 15.7,80.8 15.5,80.4 C15.3,80 15.1,79.3 15.1,78.4 C15,76.7 15.3,74.2 16.2,71.4 C18.1,65.8 21.3,58.6 24.1,51.3 C25.5,47.7 26.9,44 28.1,40.5 C29.3,37 30.3,33.7 31,30.9 C31.3,29.5 31.6,28.2 31.9,27 C32.1,25.8 32.3,24.8 32.4,23.9 C32.5,23 32.5,22.4 32.5,21.9 C32.5,21.4 32.5,21.2 32.5,21.2 C32.5,21.2 32.5,21.4 32.5,21.9 C32.5,22.4 32.5,23 32.4,23.9 C32.3,25.6 32,28.1 31.3,30.9 C30.6,33.8 29.7,37.1 28.6,40.6 C27.4,44.1 26.1,47.8 24.7,51.5 C23.3,55.2 21.7,58.8 20.3,62.2 C18.9,65.6 17.5,68.8 16.5,71.5 C16,72.9 15.7,74.2 15.4,75.3 C15.2,76.5 15.1,77.5 15.1,78.4 C15.1,79.3 15.3,79.9 15.4,80.3 C15.8,80.8 15.9,81 15.9,81 Z" fill="#423118"/>
            <path d="M33.2,16.2 C33.2,16.2 33.3,16.3 33.5,16.5 C33.7,16.7 33.9,17.1 34.1,17.5 C34.3,17.9 34.5,18.5 34.6,19.1 C34.7,19.7 34.8,20.4 34.9,21 C34.9,21.7 34.9,22.3 34.9,22.9 C34.8,23.5 34.7,24.1 34.6,24.6 C34.5,25.1 34.4,25.5 34.3,25.7 C34.2,26 34.2,26.1 34.2,26.1 C34.2,26.1 34.2,25.9 34.2,25.7 C34.2,25.4 34.3,25 34.3,24.5 C34.3,24 34.4,23.5 34.4,22.9 C34.4,22.6 34.4,22.3 34.4,22 C34.4,21.7 34.4,21.4 34.4,21.1 C34.3,19.8 34.1,18.6 33.9,17.7 C33.5,16.8 33.2,16.2 33.2,16.2 Z" fill="#423118"/>
            <path d="M36,20.1 C36,20.1 35.9,19.3 35.7,18.2 C35.5,17.1 35.2,15.6 34.8,14.1 C34.6,13.4 34.4,12.6 34.2,12 C34,11.3 33.8,10.7 33.5,10.2 C33.3,9.7 33.1,9.2 33,8.9 C32.9,8.6 32.8,8.4 32.8,8.4 C32.8,8.4 32.9,8.6 33.1,8.8 C33.3,9.1 33.6,9.5 33.8,10 C34.1,10.5 34.4,11.1 34.6,11.8 C34.9,12.5 35.1,13.2 35.3,14 C35.5,14.8 35.7,15.5 35.8,16.2 C35.9,16.9 36,17.6 36,18.2 C36.1,19.3 36,20.1 36,20.1 Z" fill="#423118"/>
            <path d="M0.4,75.2 C0.4,75.2 1,74.5 1.8,73.1 C2.6,71.7 3.7,69.7 4.5,67 C4.9,65.7 5.1,64.2 5.3,62.6 C5.5,61 5.7,59.4 5.9,57.6 C6.3,54.2 6.7,50.5 7.1,46.8 C7.5,43.1 8,39.4 8.4,36 C8.8,32.6 9.2,29.3 9.6,26.6 C9.9,23.8 10.3,21.6 10.5,20 C10.7,18.4 10.9,17.5 10.9,17.5 C10.9,17.5 10.8,18.4 10.6,20 C10.4,21.6 10.2,23.9 9.9,26.7 C9.6,29.5 9.3,32.7 8.9,36.1 C8.5,39.6 8.1,43.2 7.7,46.9 C7.3,50.6 6.8,54.3 6.4,57.7 C6.2,59.4 5.9,61.1 5.7,62.7 C5.4,64.3 5.2,65.8 4.7,67.1 C3.8,69.8 2.6,71.8 1.7,73.1 C1,74.5 0.4,75.2 0.4,75.2 Z" fill="#423118"/>
            <path d="M1.8,76.9 C1.8,76.9 2.1,76.7 2.5,76.5 C2.9,76.2 3.3,75.8 3.7,75.4 C3.9,75.2 4.1,74.9 4.2,74.7 C4.4,74.5 4.5,74.3 4.6,74.1 C4.7,73.9 4.8,73.7 4.9,73.6 C5,73.5 5,73.4 5,73.4 C5,73.4 5,73.7 4.9,74.2 C4.8,74.4 4.7,74.7 4.6,75 C4.5,75.3 4.3,75.6 4.1,75.8 C3.9,76 3.6,76.3 3.4,76.4 C3.1,76.6 2.9,76.7 2.6,76.8 C2.1,77 1.8,76.9 1.8,76.9 Z" fill="#423118"/>
            <path d="M4.6,78.9 C4.6,78.9 4.7,78.6 5,78.2 C5.2,77.8 5.6,77.3 5.9,76.8 C6.2,76.3 6.6,75.8 6.8,75.4 C6.9,75.2 7,75 7,74.9 C7,74.8 7.1,74.7 7.1,74.7 C7.1,74.7 7.1,74.8 7.2,74.9 C7.2,75 7.2,75.3 7.2,75.5 C7.1,76 6.9,76.6 6.5,77.1 C6.1,77.6 5.7,78.1 5.3,78.4 C4.8,78.8 4.6,78.9 4.6,78.9 Z" fill="#423118"/>
            <path d="M8.9,80.8 C8.9,80.8 8.7,80.5 8.6,80 C8.5,79.5 8.5,78.9 8.7,78.3 C8.8,77.7 9.1,77.1 9.3,76.7 C9.5,76.3 9.8,76.1 9.8,76.1 C9.8,76.1 9.8,76.2 9.8,76.3 C9.8,76.4 9.7,76.6 9.7,76.9 C9.6,77.4 9.5,77.9 9.4,78.5 C9.3,79.1 9.2,79.7 9.1,80.1 C8.9,80.5 8.9,80.8 8.9,80.8 Z" fill="#423118"/>
            <path d="M10.9,82.1 C10.9,82.1 11,81.9 11.1,81.6 C11.2,81.3 11.4,80.9 11.6,80.6 C11.8,80.2 11.9,79.8 12.1,79.5 C12.2,79.3 12.2,79.2 12.3,79.1 C12.3,79 12.4,79 12.4,79 C12.4,79 12.5,79.2 12.5,79.6 C12.5,80 12.4,80.4 12.2,80.9 C12,81.3 11.7,81.7 11.4,81.9 C11.2,82 10.9,82.1 10.9,82.1 Z" fill="#423118"/>
            <path d="M12.9,82.6 C12.9,82.6 13,82.3 13.1,81.8 C13.2,81.3 13.3,80.7 13.3,80.1 C13.4,79.5 13.4,78.8 13.4,78.4 C13.4,78.2 13.4,77.9 13.5,77.8 C13.5,77.7 13.5,77.6 13.5,77.6 C13.5,77.6 13.6,77.9 13.8,78.4 C13.9,78.9 14,79.6 13.9,80.2 C13.8,80.9 13.6,81.5 13.4,82 C13.2,82.3 12.9,82.6 12.9,82.6 Z" fill="#423118"/>
          </g>
        </g>
        <g id="Group" transform="translate(17.000000, 41.000000)">
          <g id="Shape">
            <path d="M47.6,1 C47.6,1 54.5,9.9 60.2,9.9 C60.2,9.9 57.6,12.8 53.3,11.9 C53.3,11.9 59.9,14.2 62.5,22.8 C62.5,22.8 90,28.9 105.5,25.9 C121,22.9 140.5,23.4 151,36.4 C161.5,49.4 150,73.9 126,71.4 C102,68.9 103,84.1 79,83.4 C29,81.9 22.7,62.2 22.7,62.2 C15.6,60.8 14.1,53.3 14.1,53.3 C2.7,50.2 6.1,32.1 6.1,32.1 C4.7,34.7 4.1,38.4 4.1,38.4 C-1,30.7 5,22.1 5,22.1 C2.1,23.5 0.7,27.5 0.7,27.5 C1.8,13.8 6.7,12.3 6.7,12.3 C19,3.8 37.2,0.1 47.6,1 Z" fill="#704E2C"/>
            <path d="M12.9,46.6 C12.9,46.6 13.1,47.8 13.5,49.6 C13.7,50.5 14,51.5 14.3,52.6 C14.7,53.7 15.1,54.8 15.7,55.9 C16.2,57 16.9,58 17.6,58.9 C18,59.3 18.4,59.7 18.8,60.1 C19.2,60.4 19.6,60.7 20,61 C20.4,61.2 20.8,61.4 21.1,61.6 C21.4,61.8 21.8,61.8 22,61.9 C22.5,62 22.8,62.1 22.8,62.1 C22.8,62.1 22.5,62.1 21.9,62 C21.6,61.9 21.3,61.9 20.9,61.8 C20.7,61.7 20.5,61.7 20.3,61.6 C20.1,61.5 19.9,61.4 19.7,61.3 C18.9,60.9 17.9,60.2 17.1,59.3 C16.3,58.4 15.6,57.4 15,56.2 C14.4,55.1 14,53.9 13.7,52.8 C13.4,51.7 13.2,50.6 13,49.7 C12.8,47.8 12.9,46.6 12.9,46.6 Z" fill="#423118"/>
            <path d="M60.2,9.8 C60.2,9.8 59.5,9.8 58.4,9.7 C57.9,9.6 57.3,9.5 56.6,9.2 C56,9 55.3,8.7 54.7,8.3 C54.1,7.9 53.5,7.5 53,7.1 C52.7,6.9 52.5,6.6 52.3,6.4 C52.1,6.2 51.9,6 51.7,5.7 C51.4,5.3 51.2,4.9 51,4.6 C50.9,4.3 50.8,4.2 50.8,4.2 C50.8,4.2 50.9,4.3 51.1,4.6 C51.3,4.8 51.6,5.2 52,5.5 C52.2,5.7 52.4,5.9 52.6,6.1 C52.8,6.3 53.1,6.5 53.3,6.7 C53.6,6.9 53.8,7.1 54.1,7.3 C54.4,7.5 54.7,7.7 55,7.8 C55.6,8.2 56.2,8.4 56.8,8.7 C57.4,8.9 58,9.2 58.5,9.3 C59.5,9.7 60.2,9.8 60.2,9.8 Z" fill="#423118"/>
            <path d="M53.3,11.8 C53.3,11.8 53.6,11.9 54.1,12 C54.6,12.2 55.3,12.5 56.1,13 C56.5,13.3 56.9,13.5 57.3,13.9 C57.5,14.1 57.7,14.2 57.9,14.4 C58.1,14.6 58.3,14.8 58.5,15 C58.9,15.4 59.3,15.9 59.6,16.3 C59.9,16.8 60.3,17.3 60.6,17.8 C60.9,18.3 61.2,18.9 61.4,19.4 C61.6,20 61.9,20.5 62.1,21 C62.3,21.5 62.4,22.1 62.6,22.6 C62.7,23.1 62.8,23.6 62.9,24 C63,24.4 63.1,24.9 63.1,25.2 C63.1,25.6 63.2,25.9 63.2,26.1 C63.2,26.6 63.3,26.9 63.3,26.9 C63.3,26.9 63.2,26.6 63.1,26.1 C63,25.6 62.9,24.8 62.6,24 C62.5,23.6 62.3,23.1 62.2,22.6 C62,22.1 61.8,21.6 61.6,21.1 C61.4,20.6 61.2,20.1 60.9,19.5 C60.7,19 60.3,18.5 60.1,17.9 C59.8,17.4 59.5,16.9 59.2,16.4 C58.8,16 58.5,15.5 58.1,15.1 C57.9,14.9 57.7,14.7 57.6,14.5 C57.4,14.3 57.2,14.1 57,14 C56.6,13.6 56.3,13.4 55.9,13.1 C55.2,12.6 54.6,12.2 54.1,11.9 C53.6,12 53.3,11.8 53.3,11.8 Z" fill="#423118"/>
            <path d="M62.5,22.7 C62.5,22.7 66.2,23.4 71.7,24.3 C74.5,24.8 77.7,25.2 81.2,25.6 C84.7,26 88.4,26.4 92.1,26.4 C94,26.4 95.8,26.4 97.7,26.2 C99.5,26 101.3,25.9 103.1,25.7 C106.6,25.3 109.9,24.9 112.7,24.7 C115.5,24.5 117.9,24.4 119.5,24.4 C121.1,24.4 122.1,24.4 122.1,24.4 C122.1,24.4 121.2,24.4 119.5,24.5 C117.9,24.6 115.5,24.7 112.7,25 C109.9,25.3 106.7,25.8 103.2,26.2 C101.5,26.4 99.6,26.6 97.8,26.8 C96,27 94.1,27.1 92.2,27.1 C88.4,27 84.7,26.7 81.2,26.2 C77.7,25.7 74.5,25.2 71.7,24.7 C68.9,24.2 66.6,23.7 65,23.3 C63.4,22.9 62.5,22.7 62.5,22.7 Z" fill="#423118"/>
          </g>
          <path d="M28.2,69.2 C28.2,69.2 28.5,69.5 29.1,69.9 C29.7,70.4 30.6,71 31.8,71.8 C34.2,73.4 37.9,75.3 42.5,76.9 C47.1,78.6 52.7,80 58.8,81 C61.8,81.5 65,81.9 68.2,82.2 C71.4,82.5 74.7,82.8 78,82.9 C81.3,83 84.5,82.9 87.7,82.4 C90.9,81.9 93.9,81 96.7,79.7 C98.1,79 99.4,78.3 100.6,77.5 C101.8,76.7 103,75.8 104.3,75.1 C106.8,73.7 109.3,72.8 111.7,72.2 C116.5,71 120.7,70.9 123.5,70.9 C126.4,71 128,71.3 128,71.3 C128,71.3 126.4,71.1 123.5,71 C120.6,71 116.5,71.2 111.8,72.5 C109.4,73.2 106.9,74.1 104.5,75.5 C103.3,76.2 102.1,77 100.9,77.9 C99.7,78.7 98.3,79.5 96.9,80.2 C94.1,81.6 91,82.5 87.8,83 C84.6,83.5 81.3,83.7 78,83.5 C74.7,83.4 71.4,83 68.2,82.8 C65,82.5 61.8,82.1 58.8,81.6 C52.7,80.6 47.1,79.1 42.5,77.3 C37.9,75.6 34.3,73.5 31.9,71.9 C30.7,71.1 29.8,70.4 29.2,69.9 C28.5,69.5 28.2,69.2 28.2,69.2 Z" id="Shape" fill="#423118"/>
        </g>
        <path d="M31.2,94.3 C31.2,94.3 30.8,94.3 30.2,94 C29.9,93.9 29.5,93.7 29.1,93.5 C28.7,93.3 28.2,93 27.7,92.6 C27.5,92.4 27.2,92.2 27,92 C26.8,91.8 26.5,91.5 26.3,91.3 C26.1,91.1 25.8,90.8 25.6,90.5 C25.4,90.2 25.2,89.9 25,89.6 C24.6,89 24.2,88.3 24,87.6 C23.9,87.2 23.7,86.9 23.6,86.5 L23.3,85.4 C23.1,84.6 23,83.9 22.9,83.1 C22.8,82.3 22.7,81.6 22.7,80.9 C22.7,80.2 22.6,79.5 22.7,78.8 C22.7,78.1 22.8,77.5 22.8,76.9 C22.8,76.3 22.9,75.8 23,75.3 C23.1,74.8 23.1,74.4 23.2,74.1 C23.3,73.4 23.4,73.1 23.4,73.1 C23.4,73.1 23.4,73.5 23.4,74.2 C23.4,74.5 23.4,74.9 23.3,75.4 C23.3,75.9 23.2,76.4 23.2,77 C23.2,77.6 23.2,78.2 23.2,78.9 C23.2,79.6 23.3,80.2 23.3,81 C23.3,81.7 23.4,82.5 23.5,83.2 C23.6,83.9 23.7,84.7 24,85.4 L24.3,86.5 C24.4,86.9 24.6,87.2 24.7,87.5 C24.9,88.2 25.3,88.8 25.6,89.5 C25.8,89.8 26,90.1 26.2,90.4 C26.4,90.7 26.6,91 26.8,91.2 C27,91.4 27.2,91.7 27.4,91.9 C27.6,92.1 27.8,92.3 28,92.5 C28.2,92.7 28.4,92.8 28.6,93 C28.8,93.2 29,93.3 29.2,93.4 C29.6,93.7 30,93.8 30.3,94 C30.8,94.2 31.2,94.3 31.2,94.3 Z" id="Shape" fill="#423118"/>
        <path d="M21.2,79.4 C21.2,79.4 20.5,78.6 19.9,77 C19.7,76.6 19.6,76.2 19.5,75.7 C19.4,75.2 19.2,74.8 19.2,74.3 C19.1,73.8 19.1,73.3 19.1,72.7 C19.1,72.2 19.1,71.6 19.1,71.1 C19.2,70.6 19.2,70 19.3,69.5 C19.4,69 19.5,68.5 19.7,68 C19.9,67.5 20,67.1 20.2,66.6 C20.4,66.2 20.6,65.8 20.7,65.4 C21,64.7 21.4,64.1 21.7,63.7 C22,63.3 22.1,63.1 22.1,63.1 C22.1,63.1 22,63.3 21.8,63.8 C21.6,64.2 21.3,64.8 21,65.6 C20.9,66 20.7,66.4 20.6,66.8 C20.5,67.2 20.4,67.7 20.2,68.2 C20.1,68.7 20,69.2 19.9,69.7 C19.8,70.2 19.8,70.7 19.7,71.3 C19.7,71.8 19.6,72.3 19.6,72.9 C19.6,73.4 19.6,73.9 19.7,74.4 C19.8,75.4 20,76.3 20.2,77.1 C20.6,78.5 21.2,79.4 21.2,79.4 Z" id="Shape" fill="#423118"/>
        <path d="M17.7,68.6 C17.7,68.6 17.7,67.5 17.8,66 C17.9,65.2 18,64.3 18.2,63.3 C18.4,62.3 18.6,61.3 18.9,60.3 C19.1,59.8 19.2,59.3 19.4,58.8 C19.6,58.3 19.8,57.8 20,57.4 C20.1,57.2 20.2,56.9 20.3,56.7 C20.4,56.5 20.6,56.3 20.7,56.1 C20.9,55.7 21.2,55.4 21.5,55.1 C21.7,54.8 22,54.5 22.3,54.3 C22.5,54.1 22.8,53.9 23,53.8 C23.4,53.6 23.6,53.5 23.6,53.5 C23.6,53.5 23.4,53.7 23,53.9 C22.8,54 22.6,54.2 22.4,54.5 C22.2,54.7 21.9,55 21.7,55.3 C21.5,55.6 21.2,56 21,56.4 C20.8,56.8 20.6,57.2 20.4,57.7 C20.2,58.1 20,58.6 19.8,59.1 C19.6,59.6 19.5,60.1 19.3,60.6 C19,61.6 18.7,62.6 18.5,63.6 C18.3,64.6 18.1,65.4 17.9,66.2 C17.9,67.5 17.7,68.6 17.7,68.6 Z" id="Shape" fill="#423118"/>
        <g id="Group">
          <g transform="translate(28.000000, 0.000000)" id="Shape">
            <path d="M0.3,16.3 C0.3,16.3 3.8,4.5 13.8,0.7 C13.8,0.7 13.9,5.5 12.1,7.7 C12.1,7.7 14.4,5 14.8,4 C14.7,4 14.9,17.2 0.3,16.3 Z" fill="#EBDFD4"/>
            <path d="M3.8,16.4 C3.8,16.4 4.1,16.3 4.6,16.2 C5.1,16.1 5.7,15.8 6.5,15.5 C6.9,15.3 7.3,15.2 7.7,14.9 C8.1,14.7 8.6,14.4 9,14.2 C9.4,13.9 9.9,13.6 10.3,13.3 C10.7,12.9 11.1,12.6 11.5,12.2 C11.9,11.8 12.2,11.4 12.5,10.9 C12.9,10.5 13,10 13.3,9.5 C13.5,9 13.7,8.6 13.9,8.1 C14.1,7.7 14.2,7.2 14.3,6.8 C14.4,6.4 14.5,6 14.5,5.7 C14.5,5.4 14.6,5.1 14.6,4.8 C14.7,4.3 14.7,4 14.7,4 C14.7,4 14.7,4.3 14.7,4.8 C14.7,5.1 14.7,5.4 14.7,5.7 C14.7,6.1 14.6,6.4 14.6,6.9 C14.5,7.3 14.5,7.8 14.3,8.3 C14.1,8.8 14,9.3 13.8,9.8 C13.5,10.3 13.4,10.8 13,11.3 C12.7,11.8 12.4,12.3 11.9,12.7 C11.5,13.1 11.1,13.5 10.6,13.9 C10.2,14.3 9.7,14.6 9.2,14.9 C8.7,15.2 8.3,15.4 7.8,15.6 C7.3,15.8 6.9,16 6.5,16.1 C5.7,16.4 5,16.5 4.5,16.6 C4.1,16.4 3.8,16.4 3.8,16.4 Z" fill="#B5987C"/>
            <path d="M12,7.8 C12,7.8 12.2,7.4 12.4,6.7 C12.6,6.1 12.9,5.2 13.1,4.3 C13.3,3.4 13.5,2.5 13.6,1.9 C13.7,1.6 13.7,1.3 13.7,1.1 C13.7,0.9 13.7,0.8 13.7,0.8 C13.7,0.8 13.7,0.9 13.8,1.1 C13.8,1.3 13.9,1.6 13.9,1.9 C13.9,2.3 13.9,2.7 13.9,3.1 C13.9,3.5 13.8,4 13.7,4.5 C13.5,5.4 13.1,6.3 12.7,6.9 C12.3,7.4 12,7.8 12,7.8 Z" fill="#B5987C"/>
            <path d="M0.3,16.3 C0.3,16.3 0.6,15.2 1.3,13.7 C1.6,13 2,12.1 2.5,11.2 C3,10.3 3.6,9.4 4.2,8.4 C4.8,7.5 5.5,6.6 6.2,5.8 C6.6,5.4 6.9,5.1 7.2,4.7 C7.6,4.4 7.9,4.1 8.2,3.8 C8.5,3.5 8.8,3.3 9.1,3.1 C9.4,2.9 9.6,2.8 9.8,2.7 C10.2,2.5 10.5,2.3 10.5,2.3 C10.5,2.3 10.3,2.5 9.9,2.8 C9.7,2.9 9.5,3.1 9.2,3.3 C9,3.5 8.7,3.8 8.4,4 C8.1,4.3 7.8,4.6 7.5,4.9 C7.2,5.3 6.9,5.6 6.5,6 C5.9,6.8 5.2,7.6 4.6,8.6 C4,9.5 3.4,10.4 2.9,11.3 C2.4,12.2 1.9,13 1.5,13.7 C1.1,14.4 0.8,15 0.6,15.4 C0.4,16 0.3,16.3 0.3,16.3 Z" fill="#B5987C"/>
          </g>
          <g transform="translate(12.000000, 10.000000)">
            <path d="M51.6,45.7 C51.3,44.1 48.2,40.7 48.2,40.7 C52.6,43.5 59.5,40.1 59.5,40.1 C57.6,40.1 52.9,35.4 52.9,35.4 C57.3,37.3 62.3,35.1 62.3,35.1 C58.9,35.1 55.7,32 55.7,32 C59.5,34.5 64.1,31.4 64.1,31.4 C64.1,31.4 58.2,29.8 55.7,21.7 C53.2,13.6 46.6,12 46.6,12 C48.2,12 51,12.3 51,12.3 C45.1,4.2 39.1,6.4 39.1,6.4 C41.3,6.1 43.2,3.3 43.2,3.3 C43.2,3.3 36.3,4.2 28.6,2 C14.2,-2.1 3.4,6.1 1.6,13.2 C0.1,19 -0.8,26.6 5,29.3 C10.8,32 14.4,35.7 12.6,38.4 C10.8,41.1 9,44.2 10.8,50.3 C10.8,50.3 11.4,46.7 13.5,44.2 C13.5,44.2 10.8,53.6 17.5,57 C17.5,57 17.8,53.4 19,50.3 C19,50.3 19.3,57.9 21.7,59.4 C21.7,59.4 26,57.9 27.2,48.5 C27.2,48.5 26.9,55.5 26,57.9 C26,57.9 34.2,54.6 34.8,46 C34.8,46 36,50.9 34.2,54.5 C34.2,54.5 42.1,52.1 42.1,43.3 C42.1,43.3 43.3,48.8 45.7,50.3 C45.7,50.3 46.6,45.7 45.7,41.8 C46.9,43.7 48.9,45.1 51.6,45.7 Z" id="Shape" fill="#EBDFD4"/>
            <ellipse id="Oval" fill="#473322" cx="16.4" cy="17.5" rx="1.3" ry="2.3"/>
            <path d="M9.3,14.3 C9.3,14.3 9.3,14.3 9.4,14.4 C9.5,14.5 9.6,14.6 9.7,14.7 C9.8,14.8 10,14.9 10.2,15 C10.4,15.1 10.6,15.2 10.9,15.2 C11.4,15.3 12.1,15.4 12.8,15.4 C13.5,15.4 14.2,15.4 15,15.3 C15.7,15.3 16.5,15.2 17.2,15.1 C17.9,15 18.6,14.9 19.1,14.9 C20.2,14.7 21,14.7 21,14.7 C21,14.7 20.3,15 19.2,15.3 C18.6,15.4 18,15.6 17.3,15.7 C16.6,15.8 15.8,15.9 15.1,16 C14.7,16 14.3,16 14,16 C13.6,16 13.2,16 12.9,16 C12.5,16 12.2,15.9 11.9,15.9 C11.6,15.8 11.3,15.7 11,15.6 C10.4,15.4 10,15.1 9.8,14.8 C9.3,14.5 9.3,14.3 9.3,14.3 Z" id="Shape" fill="#B5987C"/>
            <path d="M51,12.3 C51,12.3 50.5,11.6 49.6,10.7 C49.1,10.2 48.6,9.7 47.9,9.3 C47.2,8.8 46.5,8.3 45.8,8 C45.4,7.8 45,7.6 44.6,7.5 C44.2,7.3 43.8,7.2 43.4,7.1 C43,7 42.6,6.9 42.3,6.8 C41.9,6.7 41.6,6.7 41.3,6.6 C41,6.6 40.7,6.5 40.4,6.5 C40.1,6.5 39.9,6.5 39.7,6.5 C39.3,6.5 39.1,6.5 39.1,6.5 C39.1,6.5 39.3,6.5 39.7,6.4 C39.9,6.4 40.1,6.4 40.4,6.3 C40.7,6.3 41,6.3 41.3,6.3 C41.6,6.3 42,6.3 42.4,6.4 C42.8,6.5 43.2,6.5 43.6,6.6 C44,6.7 44.4,6.8 44.8,7 C45.2,7.2 45.6,7.3 46,7.5 C46.4,7.7 46.8,7.9 47.2,8.2 C47.6,8.4 47.9,8.7 48.2,9 C48.8,9.5 49.4,10.1 49.8,10.6 C50.2,11.1 50.5,11.6 50.7,11.9 C50.9,12.1 51,12.3 51,12.3 Z" id="Shape" fill="#B5987C"/>
            <path d="M43.2,3.2 C43.2,3.2 42.5,3.3 41.4,3.4 C40.2,3.5 38.5,3.7 36.5,3.7 C35.5,3.7 34.4,3.6 33.2,3.5 C32.6,3.4 32,3.3 31.4,3.1 C30.8,2.9 30.2,2.7 29.6,2.5 C28.4,2.1 27.2,1.8 25.9,1.6 C25.3,1.5 24.6,1.4 23.9,1.3 C23.2,1.2 22.6,1.2 21.9,1.1 C20.6,1 19.2,1.1 17.9,1.2 C17.2,1.2 16.6,1.4 16,1.5 C15.4,1.6 14.8,1.8 14.2,1.9 C13.6,2.1 13,2.2 12.5,2.5 C11.9,2.7 11.4,2.9 10.9,3.2 C10.4,3.5 9.9,3.7 9.4,4 C8.9,4.2 8.5,4.6 8.1,4.9 C7.7,5.2 7.3,5.4 6.9,5.7 C6.6,6 6.2,6.3 5.9,6.6 C5.6,6.9 5.3,7.1 5,7.4 C4.8,7.7 4.5,7.9 4.3,8.1 C3.5,9 3.1,9.5 3.1,9.5 C3.1,9.5 3.5,9 4.3,8.1 C4.5,7.9 4.7,7.6 4.9,7.3 C5.2,7.1 5.4,6.8 5.7,6.5 C6,6.2 6.3,5.9 6.6,5.6 C6.9,5.3 7.4,5 7.8,4.7 C8.2,4.4 8.6,4 9.1,3.8 C9.6,3.5 10.1,3.2 10.6,2.9 C11.1,2.6 11.7,2.4 12.2,2.2 C12.8,1.9 13.4,1.8 14,1.6 C14.6,1.4 15.2,1.2 15.9,1.1 C16.5,1 17.2,0.8 17.9,0.8 C19.2,0.6 20.6,0.6 22,0.7 C22.7,0.7 23.4,0.8 24,0.9 C24.7,1 25.3,1.1 26,1.2 C27.3,1.5 28.6,1.8 29.8,2.2 C30.4,2.4 31,2.7 31.5,2.8 C32.1,3 32.6,3.1 33.2,3.2 C34.3,3.4 35.4,3.5 36.4,3.5 C38.4,3.6 40.1,3.5 41.3,3.5 C42.5,3.2 43.2,3.2 43.2,3.2 Z" id="Shape" fill="#B5987C"/>
            <path d="M64.1,31.3 C64.1,31.3 63.7,31.2 63,30.9 C62.3,30.6 61.3,30.1 60.3,29.3 C59.3,28.5 58.2,27.4 57.4,26 C57,25.3 56.7,24.6 56.3,23.8 C56,23 55.6,22.3 55.3,21.5 C55,20.7 54.6,20 54.3,19.2 C53.9,18.5 53.5,17.8 53.1,17.1 C52.9,16.8 52.6,16.5 52.4,16.2 C52.2,15.9 51.9,15.6 51.7,15.4 C51.2,14.9 50.7,14.4 50.2,14 C49.7,13.6 49.2,13.3 48.8,13 C48.3,12.8 48,12.5 47.6,12.4 C47,12.1 46.6,12 46.6,12 C46.6,12 47,12.1 47.7,12.3 C48.1,12.4 48.5,12.6 48.9,12.8 C49.4,13 49.9,13.3 50.4,13.7 C50.9,14.1 51.5,14.5 52,15 C52.3,15.3 52.5,15.6 52.8,15.8 C53,16.1 53.3,16.4 53.5,16.7 C54,17.4 54.4,18.1 54.8,18.8 C55.2,19.5 55.6,20.3 55.9,21.1 C56.2,21.9 56.6,22.7 56.9,23.4 C57.2,24.1 57.5,24.9 57.9,25.6 C58.6,27 59.6,28.1 60.5,28.9 C61.4,29.7 62.3,30.3 63,30.6 C63.7,31.2 64.1,31.3 64.1,31.3 Z" id="Shape" fill="#B5987C"/>
            <path d="M17.4,57 C17.4,57 17.2,57 16.8,56.8 C16.4,56.6 15.9,56.3 15.4,55.9 C15.1,55.7 14.9,55.4 14.6,55.1 C14.3,54.8 14.1,54.4 13.9,54.1 C13.7,53.7 13.5,53.3 13.3,52.9 C13.1,52.5 13,52 12.9,51.6 L12.8,50.9 L12.7,50.2 C12.6,49.7 12.6,49.3 12.6,48.9 C12.6,48.5 12.6,48.1 12.7,47.7 C12.8,47.3 12.8,46.9 12.8,46.6 C12.9,45.9 13.1,45.4 13.2,45 C13.3,44.6 13.4,44.4 13.4,44.4 C13.4,44.4 13.4,44.6 13.4,45 C13.4,45.4 13.3,46 13.3,46.6 C13.3,46.9 13.3,47.3 13.3,47.7 C13.3,48.1 13.3,48.5 13.3,48.9 C13.3,49.3 13.3,49.7 13.4,50.2 L13.5,50.9 L13.6,51.5 C13.7,51.9 13.8,52.4 13.9,52.8 C14,53.2 14.2,53.6 14.4,54 C14.6,54.3 14.8,54.7 15,55 C15.2,55.3 15.4,55.6 15.7,55.8 C15.9,56 16.1,56.3 16.3,56.4 C16.5,56.6 16.7,56.7 16.9,56.8 C17.2,56.9 17.4,57 17.4,57 Z" id="Shape" fill="#B5987C"/>
            <path d="M10.8,50.3 C10.8,50.3 10.4,49.6 10,48.5 C9.8,47.9 9.7,47.2 9.7,46.5 C9.7,46.1 9.7,45.7 9.7,45.3 C9.7,44.9 9.8,44.5 9.8,44.1 C9.9,43.7 10,43.3 10.1,42.9 C10.2,42.5 10.4,42.2 10.5,41.8 C10.7,41.5 10.8,41.1 11,40.8 C11.1,40.5 11.3,40.2 11.5,40 C11.8,39.5 12.1,39.1 12.3,38.8 C12.5,38.5 12.6,38.4 12.6,38.4 C12.6,38.4 12.5,38.6 12.4,38.9 C12.2,39.2 12,39.6 11.8,40.2 C11.7,40.5 11.5,40.7 11.4,41.1 C11.3,41.4 11.2,41.7 11,42.1 C10.9,42.4 10.8,42.8 10.7,43.2 C10.6,43.6 10.5,43.9 10.5,44.3 C10.5,44.7 10.4,45.1 10.4,45.4 C10.4,45.8 10.3,46.1 10.3,46.5 C10.3,47.2 10.3,47.9 10.4,48.5 C10.5,49.5 10.8,50.3 10.8,50.3 Z" id="Shape" fill="#B5987C"/>
            <path d="M21.7,59.4 C21.7,59.4 21.5,59.4 21.3,59.2 C21.1,59 20.8,58.8 20.5,58.4 C20.2,58 20,57.5 19.8,57 C19.6,56.5 19.4,55.9 19.3,55.3 C19.1,54.6 19,54 19,53.4 C18.9,52.8 18.9,52.3 18.9,51.8 C18.9,50.9 19,50.3 19,50.3 C19,50.3 19.1,50.9 19.3,51.8 C19.5,52.7 19.7,53.9 19.9,55.1 C20,55.7 20.2,56.3 20.3,56.8 C20.5,57.3 20.6,57.8 20.8,58.2 C21,58.6 21.2,58.9 21.3,59.1 C21.6,59.3 21.7,59.4 21.7,59.4 Z" id="Shape" fill="#B5987C"/>
            <path d="M26,57.9 C26,57.9 26.9,57.4 28,56.6 C28.3,56.4 28.6,56.2 28.9,55.9 C29.2,55.6 29.5,55.3 29.9,55.1 C30.6,54.5 31.2,53.8 31.8,53 C32.1,52.6 32.4,52.3 32.6,51.9 C32.9,51.5 33.1,51.1 33.3,50.7 C33.5,50.3 33.7,49.9 33.8,49.5 C34,49.1 34.1,48.8 34.2,48.4 C34.3,48.1 34.4,47.7 34.5,47.5 C34.6,47.2 34.6,47 34.7,46.8 C34.8,46.4 34.8,46.1 34.8,46.1 C34.8,46.1 34.8,46.3 34.8,46.8 C34.8,47 34.8,47.3 34.8,47.6 C34.8,47.9 34.7,48.2 34.6,48.6 C34.5,49 34.4,49.4 34.3,49.8 C34.2,50.2 34,50.6 33.8,51 C33.6,51.4 33.4,51.9 33.1,52.3 C32.9,52.7 32.6,53.1 32.3,53.5 C31.7,54.3 31,55 30.3,55.6 C29.6,56.2 28.9,56.7 28.2,57 C26.9,57.6 26,57.9 26,57.9 Z" id="Shape" fill="#B5987C"/>
            <path d="M34.2,54.5 C34.2,54.5 34.4,54.4 34.8,54.3 C35.2,54.1 35.7,53.9 36.3,53.5 C36.6,53.3 36.9,53.1 37.2,52.9 C37.5,52.6 37.8,52.4 38.1,52.1 C38.3,52 38.4,51.8 38.6,51.7 C38.7,51.5 38.9,51.4 39,51.2 C39.3,50.9 39.5,50.5 39.8,50.1 C40.1,49.7 40.3,49.3 40.5,49 C40.7,48.6 40.9,48.2 41,47.8 C41.1,47.4 41.3,47 41.4,46.6 C41.5,46.2 41.6,45.9 41.7,45.5 C41.9,44.8 41.9,44.3 42,43.9 C42.1,43.5 42.1,43.3 42.1,43.3 C42.1,43.3 42.1,43.5 42.1,43.9 C42.1,44.3 42.1,44.9 42,45.6 C41.9,45.9 41.9,46.3 41.8,46.7 C41.7,47.1 41.6,47.5 41.5,47.9 C41.3,48.3 41.2,48.7 41,49.2 C40.8,49.6 40.6,50 40.3,50.4 C40,50.8 39.8,51.2 39.4,51.5 C39.1,51.9 38.8,52.2 38.4,52.5 C38.1,52.8 37.7,53 37.4,53.3 C37,53.5 36.7,53.7 36.4,53.8 C35.8,54.1 35.2,54.3 34.8,54.4 C34.4,54.5 34.2,54.5 34.2,54.5 Z" id="Shape" fill="#B5987C"/>
            <path d="M45.7,50.3 C45.7,50.3 45.7,49.8 45.8,49 C45.8,48.2 45.9,47.1 45.9,46.1 C45.9,45 45.9,44 45.9,43.2 C45.9,42.8 45.8,42.5 45.8,42.2 C45.8,42 45.8,41.8 45.8,41.8 C45.8,41.8 46.1,42.3 46.3,43.1 C46.5,43.9 46.7,45 46.6,46.1 C46.6,47.2 46.4,48.3 46.2,49.1 C45.9,49.8 45.7,50.3 45.7,50.3 Z" id="Shape" fill="#B5987C"/>
            <path d="M51.6,45.7 C51.6,45.7 51.4,45.4 51,44.9 C50.7,44.4 50.3,43.8 49.9,43.1 C49.5,42.5 49.1,41.8 48.8,41.4 C48.6,41.2 48.5,41 48.4,40.9 C48.3,40.8 48.2,40.7 48.2,40.7 C48.2,40.7 48.3,40.7 48.5,40.8 C48.6,40.8 48.7,40.9 48.8,40.9 C48.9,41 49,41 49.1,41.1 C49.6,41.5 50.1,42.1 50.5,42.8 C50.9,43.5 51.2,44.2 51.4,44.7 C51.6,45.3 51.6,45.7 51.6,45.7 Z" id="Shape" fill="#B5987C"/>
            <path d="M59.5,40.1 C59.5,40.1 59,40 58.3,39.8 C57.6,39.5 56.6,39.1 55.8,38.4 C55.4,38.1 55,37.7 54.7,37.4 C54.4,37.1 54.1,36.7 53.8,36.4 C53.3,35.8 53,35.4 53,35.4 C53,35.4 53.4,35.7 54.1,36.1 C54.4,36.3 54.8,36.6 55.1,36.9 C55.5,37.2 55.8,37.5 56.2,37.8 C57,38.4 57.8,38.9 58.5,39.3 C59,39.8 59.5,40.1 59.5,40.1 Z" id="Shape" fill="#B5987C"/>
            <path d="M62.3,35.1 C62.3,35.1 61.8,35.2 61.1,35.1 C60.4,35 59.4,34.9 58.6,34.5 C58.2,34.3 57.7,34.1 57.4,33.8 C57,33.5 56.7,33.2 56.5,33 C56.3,32.7 56.1,32.5 56,32.3 C55.9,32.1 55.8,32 55.8,32 C55.8,32 55.9,32.1 56.1,32.2 C56.2,32.3 56.5,32.5 56.8,32.7 C57.1,32.9 57.4,33.1 57.8,33.3 C58.2,33.5 58.6,33.7 59,33.9 C59.8,34.3 60.7,34.6 61.3,34.8 C61.8,35 62.3,35.1 62.3,35.1 Z" id="Shape" fill="#B5987C"/>
          </g>
          <g transform="translate(36.000000, 4.000000)" id="Shape">
            <path d="M0.2,14.5 C0.2,14.5 5,3.1 15.3,0.5 C15.3,0.5 14.9,5.3 12.8,7.3 C12.8,7.3 15.4,4.9 15.9,3.9 C15.9,3.8 14.7,17 0.2,14.5 Z" fill="#EBDFD4"/>
            <path d="M3.7,15 C3.7,15 4,15 4.5,14.9 C5,14.8 5.7,14.7 6.5,14.4 C6.9,14.3 7.3,14.2 7.8,14 C8.3,13.8 8.7,13.6 9.2,13.4 C9.7,13.2 10.1,12.9 10.6,12.6 C11,12.3 11.5,12 11.9,11.6 C12.3,11.3 12.7,10.8 13.1,10.4 C13.5,10 13.7,9.5 14,9.1 C14.3,8.7 14.5,8.2 14.7,7.8 C14.9,7.4 15,6.9 15.2,6.5 C15.3,6.1 15.5,5.7 15.6,5.4 C15.7,5.1 15.7,4.8 15.8,4.5 C15.9,4 16,3.7 16,3.7 C16,3.7 16,4 15.9,4.5 C15.9,4.7 15.8,5.1 15.8,5.4 C15.8,5.8 15.7,6.1 15.6,6.5 C15.5,6.9 15.4,7.4 15.2,7.8 C15,8.2 14.8,8.8 14.5,9.2 C14.2,9.6 13.9,10.2 13.5,10.6 C13.1,11 12.8,11.5 12.3,11.9 C11.9,12.3 11.4,12.6 10.9,12.9 C10.4,13.2 9.9,13.5 9.4,13.7 C8.9,13.9 8.4,14.1 7.9,14.2 C7.4,14.4 7,14.5 6.5,14.5 C5.7,15 5,15 4.5,15 C4,15 3.7,15 3.7,15 Z" fill="#B5987C"/>
            <path d="M12.8,7.3 C12.8,7.3 13,6.9 13.3,6.3 C13.6,5.7 14,4.9 14.3,4 C14.6,3.2 14.9,2.3 15,1.6 C15.1,1.3 15.2,1 15.2,0.8 C15.2,0.6 15.3,0.5 15.3,0.5 C15.3,0.5 15.3,0.6 15.3,0.8 C15.3,1 15.4,1.3 15.3,1.7 C15.3,2.1 15.3,2.5 15.2,2.9 C15.1,3.3 15,3.8 14.8,4.2 C14.5,5.1 14,5.9 13.5,6.5 C13.2,7 12.8,7.3 12.8,7.3 Z" fill="#B5987C"/>
            <path d="M0.2,14.5 C0.2,14.5 0.6,13.5 1.4,12.1 C1.8,11.4 2.3,10.6 2.9,9.7 C3.5,8.9 4.2,8 4.9,7.1 C5.6,6.3 6.4,5.5 7.2,4.8 C7.6,4.5 8,4.1 8.4,3.8 C8.8,3.5 9.2,3.3 9.5,3 C9.9,2.8 10.2,2.6 10.5,2.4 C10.8,2.2 11.1,2.1 11.3,2 C11.7,1.8 12,1.7 12,1.7 C12,1.7 11.8,1.8 11.4,2.1 C11.2,2.2 10.9,2.3 10.7,2.6 C10.4,2.8 10.1,3 9.8,3.2 C9.5,3.5 9.2,3.7 8.8,4 C8.5,4.3 8.1,4.7 7.7,5 C7,5.7 6.2,6.5 5.5,7.3 C4.8,8.1 4.1,9 3.5,9.8 C2.9,10.6 2.3,11.4 1.9,12 C1.4,12.7 1,13.2 0.8,13.6 C0.3,14.3 0.2,14.5 0.2,14.5 Z" fill="#B5987C"/>
          </g>
          <g transform="translate(0.000000, 23.000000)" id="Shape">
            <path d="M13.6,0.1 C7.5,3.5 -1.6,6.7 1.4,18.2 C1.4,18.2 3.5,13.9 5.9,13.9 C8.3,13.9 18.4,16 23,13.4 C27.6,10.8 21.1,9.9 18.7,9.9 C16.3,9.9 13.6,0.1 13.6,0.1 Z" fill="#FBBF3F"/>
            <path d="M1.4,18.2 C1.4,18.2 2.1,16.9 3.4,15.1 C3.7,14.7 4.1,14.2 4.6,13.7 C5,13.2 5.5,12.8 6.1,12.3 C6.6,11.9 7.3,11.5 8,11.2 C8.7,10.9 9.6,10.8 10.3,10.9 C11.8,11 13.2,11.3 14.6,11.6 C15.9,11.9 17.2,12.2 18.2,12.4 C18.7,12.5 19.2,12.6 19.7,12.6 C20.1,12.7 20.5,12.7 20.8,12.7 C21.1,12.7 21.4,12.7 21.5,12.6 C21.7,12.6 21.8,12.6 21.8,12.6 C21.8,12.6 21.5,12.8 20.8,12.8 C20.5,12.8 20.1,12.9 19.6,12.9 C19.2,12.9 18.6,12.9 18.1,12.8 C17,12.7 15.7,12.5 14.4,12.2 C13.1,12 11.6,11.7 10.2,11.6 C9.4,11.5 8.8,11.6 8.2,11.8 C7.6,12.1 7,12.4 6.5,12.8 C5.4,13.6 4.5,14.5 3.8,15.3 C3.1,16.1 2.5,16.8 2.1,17.3 C1.6,17.9 1.4,18.2 1.4,18.2 Z" fill="#B38637"/>
            <path d="M10.9,4.8 C10.9,4.8 11.1,4.7 11.4,4.8 C11.7,4.8 12.1,4.9 12.5,5.1 C12.7,5.2 12.9,5.4 13,5.5 C13.1,5.7 13.2,5.9 13.3,6 C13.4,6.3 13.3,6.5 13.3,6.5 C13.3,6.5 13.3,6.5 13.2,6.4 C13.2,6.3 13.1,6.2 13,6.1 C12.9,6 12.8,5.9 12.7,5.8 C12.6,5.7 12.4,5.6 12.3,5.5 C12,5.3 11.7,5.2 11.4,5 C11.1,4.9 10.9,4.8 10.9,4.8 Z" fill="#B38637"/>
            <path d="M0.7,15.7 C0.7,15.7 0.7,15.4 0.7,14.8 C0.7,14.2 0.7,13.3 0.8,12.3 C0.9,11.3 1.1,10.1 1.6,8.9 C1.9,8.3 2.2,7.7 2.6,7.1 C3,6.5 3.5,6 4,5.6 C5.1,4.7 6.3,4 7.4,3.3 C8.5,2.6 9.6,2.1 10.5,1.6 C12.3,0.7 13.6,0.1 13.6,0.1 C13.6,0.1 12.4,0.8 10.7,1.9 C9.8,2.4 8.8,3.1 7.8,3.8 C6.7,4.5 5.6,5.2 4.6,6.1 C3.6,6.9 2.8,8 2.2,9.1 C2,9.7 1.7,10.2 1.6,10.8 C1.4,11.4 1.3,11.9 1.2,12.4 C1,13.4 0.9,14.2 0.8,14.8 C0.7,15.3 0.7,15.7 0.7,15.7 Z" fill="#B38637"/>
          </g>
        </g>
        <g id="Group" transform="translate(29.000000, 90.000000)">
          <g transform="translate(0.000000, 66.000000)" id="Shape">
            <path d="M18.5,0.6 C17.7,5.7 12.9,14.9 10.6,14.9 C8.3,14.9 3.8,12.8 2.7,14.7 C1.6,16.6 9.8,17.7 9.8,17.7 C9.8,17.7 2.3,19.8 1.9,22 C1.5,24.3 14.3,19.6 14.3,19.6 C14.3,19.6 11.1,26.4 13,27.1 C14.9,27.9 17.3,24.8 18.8,20.2 C20.3,15.6 25,3.9 25,3.9 L18.5,0.6 Z" fill="#FBBF3F"/>
            <path d="M4.6,19.6 C4.6,19.6 5.1,19.3 5.9,18.9 C6.7,18.5 7.8,18 8.9,17.6 C10,17.2 11.1,16.9 12,16.7 C12.9,16.5 13.5,16.5 13.5,16.5 C13.5,16.5 12.9,16.7 12.1,17 C11.3,17.3 10.2,17.7 9.1,18.1 C8,18.5 6.9,18.9 6.1,19.1 C5.2,19.4 4.6,19.6 4.6,19.6 Z" fill="#C9982F"/>
            <path d="M12.5,25.1 C12.5,25.1 12.5,24.6 12.6,23.9 C12.7,23.2 12.9,22.3 13.2,21.4 C13.5,20.5 14,19.7 14.4,19.1 C14.6,18.8 14.8,18.6 15,18.5 C15.2,18.4 15.3,18.3 15.3,18.3 C15.3,18.3 15.2,18.4 15.1,18.6 C15,18.8 14.9,19 14.7,19.3 C14.4,19.9 14.1,20.7 13.8,21.6 C13.5,22.4 13.2,23.3 12.9,23.9 C12.7,24.7 12.5,25.1 12.5,25.1 Z" fill="#C9982F"/>
            <path d="M2.7,14.6 C2.7,14.6 2.6,14.5 2.7,14.2 C2.8,14 3.2,13.8 3.6,13.7 C4.4,13.5 5.5,13.5 6.5,13.7 C7.5,13.8 8.6,14.1 9.3,14.3 C10,14.5 10.5,14.8 10.5,14.8 C10.5,14.8 10,14.8 9.2,14.7 C8.4,14.6 7.4,14.5 6.4,14.4 C5.9,14.3 5.4,14.3 4.9,14.2 C4.4,14.2 4,14.1 3.6,14.1 C3.2,14.1 2.9,14.2 2.8,14.3 C2.7,14.5 2.7,14.7 2.7,14.6 Z" fill="#C9982F"/>
            <path d="M2.9,21 C1.1,21.3 0.6,23.9 0.6,23.9 C0.6,23.9 1.9,22 3.4,22 C3.3,21.9 3.9,20.8 2.9,21 Z" fill="#3B342D"/>
            <path d="M13.5,26 C12,27.1 12.7,29.6 12.7,29.6 C12.7,29.6 13,27.3 14.3,26.6 C14.3,26.7 14.3,25.4 13.5,26 Z" fill="#3B342D"/>
            <path d="M3.1,14.5 C1.3,14.2 0,16.5 0,16.5 C0,16.5 1.8,15.1 3.2,15.5 C3.2,15.6 4.1,14.7 3.1,14.5 Z" fill="#3B342D"/>
          </g>
          <g transform="translate(11.000000, 0.000000)" id="Shape">
            <path d="M36.4,20.1 C36.2,11.6 32.1,6 29.9,3.3 C27.7,0.6 22.6,0.5 20.2,0.9 C10.5,2.4 9.2,35.2 8.1,46.1 C7.8,49.1 6.4,64.2 4.7,68.2 C3,72.2 0.8,75.2 0.8,75.2 C2,75.2 3,74.8 3,74.8 C2.9,75.6 2.1,76.9 2.1,76.9 C4.5,76.5 5.3,73.4 5.3,73.4 C5.5,75 4.8,78.9 4.8,78.9 C6.4,77.8 7.3,74.7 7.3,74.7 C6.5,78.7 9.2,80.8 9.2,80.8 C8.6,79.2 10.1,76 10.1,76 C9.7,78.9 11.2,82 11.2,82 C12.8,81.4 12.7,78.9 12.7,78.9 C12.9,80.1 13.2,82.5 13.2,82.5 C14.3,80.5 13.9,77.8 13.8,77.4 C13.8,79.1 16.2,80.9 16.2,80.9 C16.2,80.9 14.4,79.5 16.6,71.8 C17.7,68.1 20.4,63 23.4,55.6 C27.8,44.5 32.3,32.1 32.8,23.1 C33.6,24.5 34.4,26.2 34.4,26.2 C36.3,21.8 33.5,16.2 33.5,16.2 C35,17.4 36.4,20.1 36.4,20.1 Z" fill="#704E2C"/>
            <path d="M16.3,81 C16.3,81 16.1,80.8 15.9,80.4 C15.7,80 15.5,79.3 15.5,78.4 C15.4,76.7 15.7,74.2 16.6,71.4 C18.5,65.8 21.7,58.6 24.5,51.3 C25.9,47.7 27.3,44 28.5,40.5 C29.7,37 30.7,33.7 31.4,30.9 C31.7,29.5 32,28.2 32.3,27 C32.5,25.8 32.7,24.8 32.8,23.9 C32.9,23 32.9,22.4 32.9,21.9 C32.9,21.4 32.9,21.2 32.9,21.2 C32.9,21.2 32.9,21.4 32.9,21.9 C32.9,22.4 32.9,23 32.8,23.9 C32.7,25.6 32.4,28.1 31.7,31 C31,33.9 30.1,37.2 29,40.7 C27.8,44.2 26.5,47.9 25.1,51.6 C23.7,55.3 22.1,58.9 20.7,62.3 C19.3,65.7 17.9,68.9 16.9,71.6 C15.9,74.3 15.5,76.8 15.5,78.5 C15.5,79.4 15.7,80 15.8,80.4 C16.2,80.8 16.3,81 16.3,81 Z" fill="#423118"/>
            <path d="M33.6,16.2 C33.6,16.2 33.7,16.3 33.9,16.5 C34.1,16.7 34.3,17.1 34.5,17.5 C34.7,17.9 34.9,18.5 35,19.1 C35.1,19.7 35.2,20.4 35.3,21 C35.3,21.7 35.3,22.3 35.3,22.9 C35.2,23.5 35.1,24.1 35,24.6 C34.9,25.1 34.8,25.5 34.7,25.7 C34.6,26 34.6,26.1 34.6,26.1 C34.6,26.1 34.6,25.9 34.6,25.7 C34.6,25.4 34.7,25 34.7,24.5 C34.7,24 34.8,23.5 34.8,22.9 C34.8,22.6 34.8,22.3 34.8,22 C34.8,21.7 34.8,21.4 34.8,21.1 C34.7,19.8 34.5,18.6 34.3,17.7 C33.9,16.7 33.6,16.2 33.6,16.2 Z" fill="#423118"/>
            <path d="M36.4,20.1 C36.4,20.1 36.3,19.3 36.1,18.2 C35.9,17.1 35.6,15.6 35.2,14.1 C35,13.4 34.8,12.6 34.6,12 C34.4,11.3 34.2,10.7 33.9,10.2 C33.7,9.7 33.5,9.2 33.4,8.9 C33.3,8.6 33.2,8.4 33.2,8.4 C33.2,8.4 33.3,8.6 33.5,8.8 C33.7,9.1 34,9.5 34.2,10 C34.5,10.5 34.8,11.1 35,11.8 C35.3,12.5 35.5,13.2 35.7,14 C35.9,14.8 36.1,15.5 36.2,16.2 C36.3,16.9 36.4,17.6 36.4,18.2 C36.5,19.3 36.4,20.1 36.4,20.1 Z" fill="#423118"/>
            <path d="M0.8,75.2 C0.8,75.2 1.4,74.5 2.2,73.1 C3,71.7 4.1,69.6 4.9,67 C5.3,65.7 5.5,64.2 5.8,62.6 C6,61 6.2,59.4 6.4,57.6 C6.8,54.2 7.2,50.5 7.7,46.8 C8.1,43.1 8.6,39.4 9,36 C9.4,32.6 9.8,29.3 10.2,26.6 C10.5,23.8 10.9,21.6 11.1,20 C11.3,18.4 11.5,17.5 11.5,17.5 C11.5,17.5 11.4,18.4 11.2,20 C11,21.6 10.8,23.9 10.5,26.7 C10.2,29.5 9.9,32.7 9.5,36.1 C9.1,39.6 8.7,43.2 8.3,46.9 C7.9,50.6 7.4,54.3 7,57.7 C6.8,59.4 6.5,61.1 6.3,62.7 C6,64.3 5.8,65.8 5.3,67.1 C4.4,69.8 3.2,71.8 2.4,73.1 C1.4,74.5 0.8,75.2 0.8,75.2 Z" fill="#423118"/>
            <path d="M2.2,76.9 C2.2,76.9 2.5,76.7 2.9,76.5 C3.3,76.2 3.7,75.8 4.1,75.4 C4.3,75.2 4.5,74.9 4.6,74.7 C4.8,74.5 4.9,74.3 5,74.1 C5.1,73.9 5.2,73.7 5.3,73.6 C5.4,73.5 5.4,73.4 5.4,73.4 C5.4,73.4 5.4,73.7 5.3,74.2 C5.2,74.4 5.1,74.7 5,75 C4.9,75.3 4.7,75.6 4.5,75.8 C4.3,76 4,76.3 3.8,76.4 C3.5,76.6 3.3,76.7 3,76.8 C2.5,77 2.2,76.9 2.2,76.9 Z" fill="#423118"/>
            <path d="M4.9,78.9 C4.9,78.9 5,78.6 5.3,78.2 C5.5,77.8 5.9,77.3 6.2,76.8 C6.5,76.3 6.9,75.8 7.1,75.4 C7.2,75.2 7.3,75 7.3,74.9 C7.3,74.8 7.4,74.7 7.4,74.7 C7.4,74.7 7.4,74.8 7.5,74.9 C7.5,75 7.5,75.3 7.5,75.5 C7.4,76 7.2,76.6 6.8,77.1 C6.4,77.6 6,78.1 5.6,78.4 C5.2,78.7 4.9,78.9 4.9,78.9 Z" fill="#423118"/>
            <path d="M9.3,80.8 C9.3,80.8 9.1,80.5 9,80 C8.9,79.5 8.9,78.9 9.1,78.3 C9.2,77.7 9.5,77.1 9.7,76.7 C9.9,76.3 10.2,76.1 10.2,76.1 C10.2,76.1 10.2,76.2 10.2,76.3 C10.2,76.4 10.1,76.6 10.1,76.9 C10,77.4 9.9,77.9 9.8,78.5 C9.7,79.1 9.6,79.7 9.5,80.1 C9.3,80.5 9.3,80.8 9.3,80.8 Z" fill="#423118"/>
            <path d="M11.3,82 C11.3,82 11.4,81.8 11.5,81.5 C11.6,81.2 11.8,80.8 12,80.5 C12.2,80.1 12.3,79.7 12.5,79.4 C12.6,79.2 12.6,79.1 12.7,79 C12.7,78.9 12.8,78.9 12.8,78.9 C12.8,78.9 12.9,79.1 12.9,79.5 C12.9,79.9 12.8,80.3 12.6,80.8 C12.4,81.2 12.1,81.6 11.8,81.8 C11.6,82 11.3,82 11.3,82 Z" fill="#423118"/>
            <path d="M13.3,82.5 C13.3,82.5 13.4,82.2 13.5,81.7 C13.6,81.2 13.7,80.6 13.7,80 C13.8,79.4 13.8,78.7 13.8,78.3 C13.8,78.1 13.8,77.8 13.9,77.7 C13.9,77.6 13.9,77.5 13.9,77.5 C13.9,77.5 14,77.8 14.2,78.3 C14.3,78.8 14.4,79.5 14.3,80.1 C14.2,80.8 14,81.4 13.8,81.9 C13.6,82.3 13.3,82.5 13.3,82.5 Z" fill="#423118"/>
          </g>
        </g>
        <g id="Group" transform="translate(161.000000, 73.000000)">
          <g id="Shape">
            <path d="M2.5,0.5 C6.3,-0.3 19.2,18.6 24,29.2 C29.8,42.1 48.8,58.1 79.5,40.2 C79.5,40.2 71.2,53.9 49.1,52 C27.6,50.1 22.2,41.2 15.3,28.9 C11.6,22.3 8.9,16.7 5.1,12.6 C1.3,8.4 -1.9,1.3 2.5,0.5 Z" fill="#704E2C"/>
            <path d="M11.8,22.1 C11.8,22.1 12,22.4 12.3,22.9 C12.6,23.4 13,24.2 13.5,25.2 C14.6,27.2 16.1,30.1 18.2,33.3 C20.3,36.5 23.1,40.1 26.8,43.3 C28.6,44.9 30.7,46.3 32.9,47.5 C35.1,48.7 37.5,49.7 40,50.3 C42.5,51 45,51.3 47.6,51.5 C50.1,51.7 52.6,51.7 55,51.6 C57.4,51.5 59.7,51.2 61.9,50.8 C64.1,50.4 66.1,49.8 67.9,49 C71.5,47.6 74.2,45.7 75.8,44.2 C77.5,42.7 78.1,41.5 78.1,41.5 C78.1,41.5 77.5,42.7 75.8,44.2 C74.2,45.8 71.5,47.8 67.9,49.3 C64.3,50.8 59.8,51.9 54.9,52.1 C52.5,52.2 49.9,52.2 47.4,52 C44.9,51.8 42.2,51.5 39.7,50.8 C34.6,49.5 30,46.8 26.3,43.5 C22.6,40.3 19.9,36.6 17.8,33.3 C15.7,30 14.3,27.1 13.3,25 C12.8,24 12.4,23.2 12.1,22.6 C12,22.3 11.8,22.1 11.8,22.1 Z" fill="#423118"/>
            <path d="M5.9,2.3 C5.9,2.3 7.1,3.2 8.8,5.2 C10.5,7.2 12.8,10.1 15.3,13.8 C17.8,17.5 20.7,21.9 23.4,26.8 C24.1,28 24.7,29.3 25.3,30.6 C25.9,31.9 26.7,33.1 27.6,34.3 C29.3,36.7 31.3,38.9 33.6,40.8 C35.9,42.7 38.4,44.3 41,45.5 C43.7,46.7 46.4,47.4 49.2,47.8 C51.9,48.2 54.6,48.2 57.2,48 C59.7,47.8 62.1,47.3 64.3,46.7 C66.4,46.1 68.4,45.5 70.1,44.8 C71.8,44.2 73.2,43.5 74.4,42.9 C75.6,42.4 76.5,41.8 77.1,41.5 C77.7,41.2 78.1,41 78.1,41 C78.1,41 77.8,41.2 77.2,41.5 C76.6,41.8 75.7,42.4 74.5,42.9 C73.3,43.5 71.9,44.2 70.2,44.9 C68.5,45.6 66.6,46.3 64.4,46.9 C62.2,47.5 59.9,48.1 57.3,48.3 C54.7,48.6 52,48.6 49.2,48.2 C46.4,47.8 43.6,47.1 40.8,45.9 C38.1,44.7 35.5,43.1 33.2,41.2 C30.9,39.2 28.8,37 27.1,34.6 C26.2,33.4 25.5,32.1 24.8,30.8 C24.2,29.5 23.5,28.2 22.9,27 C20.2,22.1 17.5,17.6 15.1,13.9 C12.6,10.2 10.5,7.1 8.8,5.1 C7,3.2 5.9,2.3 5.9,2.3 Z" fill="#423118"/>
          </g>
          <g transform="translate(75.000000, 27.000000)" id="Shape">
            <path d="M2.7,14.3 C0.3,11.4 1.6,4.7 6,4.1 C6,4.1 4,5.4 4.1,7.7 C4.1,7.7 5.2,3.4 10.9,4.1 C16.6,4.7 16.1,0.8 16.1,0.8 C16.1,0.8 18.8,4.9 15.5,8.8 C15.5,8.8 18.3,6.4 18.8,4.9 C18.8,4.9 18.3,14.5 11.6,15.9 C6.9,16.9 4.2,16.2 2.7,14.3 Z" fill="#BD8F33"/>
            <path d="M4.3,15.6 C4.3,15.6 4.6,15.7 5.2,15.8 C5.5,15.9 5.8,15.9 6.2,16 C6.6,16.1 7.1,16.1 7.6,16.1 C8.1,16.1 8.6,16.1 9.2,16.1 C9.5,16.1 9.8,16.1 10.1,16 C10.4,15.9 10.7,15.9 11,15.8 C11.3,15.7 11.6,15.6 11.9,15.6 C12.2,15.5 12.5,15.4 12.8,15.2 C13.1,15.1 13.4,14.9 13.6,14.7 C13.9,14.5 14.2,14.4 14.4,14.1 L15.1,13.5 L15.7,12.8 L16,12.4 L16.2,12 C16.4,11.7 16.5,11.5 16.7,11.2 C17,10.7 17.2,10.1 17.4,9.6 C17.6,9.1 17.7,8.5 17.9,8.1 C18,7.6 18.2,7.2 18.3,6.8 C18.4,6.4 18.5,6.1 18.5,5.8 C18.6,5.2 18.7,4.9 18.7,4.9 C18.7,4.9 18.7,5.2 18.6,5.8 C18.6,6.1 18.5,6.5 18.5,6.9 C18.5,7.3 18.4,7.8 18.3,8.3 C18.2,8.8 18.1,9.3 17.9,9.9 C17.7,10.4 17.5,11 17.2,11.6 C17,11.9 16.9,12.2 16.7,12.5 L16.5,12.9 L16.2,13.3 C16,13.6 15.8,13.8 15.6,14.1 L14.8,14.8 C14.5,15 14.2,15.2 13.9,15.4 C13.6,15.6 13.3,15.8 13,15.9 C12.7,16 12.4,16.2 12.1,16.3 C11.8,16.4 11.5,16.5 11.1,16.5 C10.8,16.6 10.5,16.6 10.2,16.6 C9.9,16.6 9.6,16.7 9.3,16.6 C8.7,16.6 8.2,16.6 7.7,16.5 C7.2,16.4 6.7,16.3 6.3,16.2 C5.9,16.1 5.6,16 5.3,15.9 C5,15.8 4.8,15.7 4.7,15.6 C4.4,15.6 4.3,15.6 4.3,15.6 Z" fill="#704E2C"/>
            <path d="M1.7,12.5 C1.7,12.5 1.6,12.4 1.5,12.1 C1.4,11.8 1.2,11.4 1.1,10.9 C1,10.4 0.9,9.8 1,9.1 C1,8.8 1.1,8.4 1.2,8.1 C1.3,7.8 1.4,7.4 1.6,7.1 C1.8,6.8 1.9,6.5 2.2,6.2 C2.4,5.9 2.7,5.7 2.9,5.5 C3.2,5.3 3.4,5.1 3.7,5 C4,4.9 4.2,4.7 4.4,4.6 C4.9,4.4 5.3,4.3 5.6,4.2 C5.9,4.1 6.1,4.1 6.1,4.1 C6.1,4.1 5.9,4.2 5.7,4.3 C5.6,4.4 5.4,4.4 5.2,4.5 C5,4.6 4.8,4.7 4.6,4.8 C4.4,4.9 4.2,5.1 4,5.2 C3.8,5.4 3.6,5.6 3.3,5.8 C3.1,6 2.9,6.2 2.7,6.5 C2.5,6.7 2.4,7 2.2,7.3 C1.6,8.4 1.5,9.7 1.6,10.7 C1.6,11.2 1.7,11.6 1.7,11.9 C1.7,12.3 1.7,12.5 1.7,12.5 Z" fill="#704E2C"/>
            <path d="M4.1,7.7 C4.1,7.7 4.2,7.5 4.4,7.1 C4.6,6.7 4.8,6.2 5.3,5.6 C5.7,5 6.4,4.3 7.3,4 C8.2,3.7 9.2,3.6 10.2,3.6 C11.2,3.6 12.1,3.6 13,3.5 C13.9,3.4 14.7,3.3 15.2,2.8 C15.5,2.6 15.6,2.3 15.8,2.1 C15.9,1.8 16,1.6 16.1,1.4 C16.2,1 16.3,0.8 16.3,0.8 C16.3,0.8 16.3,0.9 16.3,1 C16.3,1.1 16.3,1.3 16.3,1.5 C16.3,1.7 16.2,2 16.1,2.3 C16,2.6 15.9,2.9 15.6,3.2 C15.1,3.8 14.1,4.1 13.2,4.2 C12.3,4.3 11.3,4.3 10.4,4.3 C9.5,4.3 8.5,4.3 7.7,4.6 C7.3,4.8 6.9,4.9 6.6,5.1 C6.3,5.3 6,5.6 5.8,5.9 C5.4,6.4 5,6.9 4.8,7.3 C4.2,7.6 4.1,7.7 4.1,7.7 Z" fill="#704E2C"/>
            <path d="M15.4,8.8 C15.4,8.8 15.6,8.5 15.9,8 C16.2,7.5 16.4,6.8 16.6,6.1 C16.7,5.7 16.7,5.4 16.8,5 C16.8,4.6 16.9,4.3 16.9,4 C16.9,3.7 16.9,3.5 16.9,3.3 C16.9,3.1 16.9,3 16.9,3 C16.9,3 16.9,3.1 17,3.3 C17.1,3.5 17.2,3.7 17.2,4 C17.4,4.6 17.4,5.4 17.2,6.2 C17.1,6.6 17,7 16.8,7.3 C16.6,7.6 16.4,7.9 16.2,8.2 C15.8,8.7 15.4,8.8 15.4,8.8 Z" fill="#704E2C"/>
          </g>
        </g>
        <g id="Group" transform="translate(124.000000, 75.000000)">
          <path d="M1.7,24.9 C6,42.2 20.3,60.7 32.6,68.5 C44.9,76.3 49.3,95.5 49.3,95.5 C49.3,95.5 43.8,102.1 44.9,104.3 C47.4,109.2 58.1,106.3 61,102.4 C63.9,98.5 63,63.2 57.1,58.8 C51.2,54.4 45.3,52.9 46.8,41.6 C48.3,30.3 49.8,5.3 39.2,1.9 C28.7,-1.6 -4.7,-1.1 1.7,24.9 Z" id="Shape" fill="#704E2C"/>
          <path d="M4.3,32.3 C4.3,32.3 4.8,33.5 5.7,35.4 C6.6,37.4 8.1,40.1 9.9,43.3 C11.8,46.5 14.1,50.2 16.9,53.8 C18.3,55.6 19.8,57.5 21.5,59.2 C22.4,60.1 23.2,60.9 24.2,61.7 C25.1,62.5 26.2,63.2 27.2,63.9 C29.2,65.4 31.2,66.9 33.1,68.4 C35,70 36.8,71.5 38.5,73.2 C40.1,74.9 41.6,76.6 42.7,78.4 C43.8,80.2 44.8,82 45.5,83.7 C46.2,85.4 46.8,87 47.3,88.5 C47.8,89.9 48.1,91.2 48.4,92.2 C49,94.3 49.3,95.5 49.3,95.5 C49.3,95.5 48.9,94.3 48.3,92.2 C48,91.2 47.6,89.9 47.1,88.5 C46.6,87.1 46,85.5 45.2,83.8 C44.5,82.1 43.5,80.3 42.3,78.6 C41.1,76.8 39.7,75.1 38.1,73.5 C36.5,71.8 34.6,70.3 32.8,68.8 C30.9,67.3 28.9,65.8 26.9,64.4 C25.9,63.7 24.9,63 23.9,62.2 C22.9,61.4 22,60.6 21.2,59.7 C19.5,57.9 18,56.1 16.5,54.2 C13.7,50.5 11.4,46.8 9.6,43.5 C7.8,40.3 6.5,37.4 5.6,35.5 C4.7,33.5 4.3,32.3 4.3,32.3 Z" id="Shape" fill="#423118"/>
          <path d="M48.1,102 C48.1,102 48,102.3 47.8,102.6 C47.6,103 47.4,103.5 47.1,103.9 C46.8,104.4 46.6,104.8 46.4,105.2 C46.3,105.4 46.2,105.5 46.2,105.7 C46.2,105.8 46.1,105.9 46.1,105.9 C46.1,105.9 46,105.6 46,105.2 C46,104.8 46.2,104.2 46.4,103.7 C46.7,103.2 47,102.8 47.3,102.5 C47.8,102.1 48.1,102 48.1,102 Z" id="Shape" fill="#423118"/>
          <path d="M51.9,103.4 C51.9,103.4 51.8,103.6 51.7,104 C51.6,104.3 51.4,104.7 51.2,105.2 C51,105.6 50.8,106 50.7,106.3 C50.6,106.5 50.6,106.6 50.5,106.7 C50.5,106.8 50.4,106.9 50.4,106.9 C50.4,106.9 50.3,106.7 50.3,106.3 C50.3,105.9 50.4,105.4 50.6,105 C50.8,104.6 51.1,104.2 51.4,103.9 C51.7,103.6 51.9,103.4 51.9,103.4 Z" id="Shape" fill="#423118"/>
          <path d="M61,69.9 C61,69.9 61,69.7 61,69.3 C61,68.9 60.9,68.3 60.8,67.6 C60.5,66.2 60,64.1 58.9,61.9 C58.3,60.8 57.6,59.7 56.6,58.7 C56.3,58.5 56.1,58.2 55.8,58 C55.5,57.8 55.2,57.6 54.9,57.4 C54.3,57.1 53.6,56.7 52.9,56.4 C51.5,55.6 50.1,54.6 49,53.4 C47.9,52.1 47.1,50.5 46.7,48.9 C46.3,47.2 46.2,45.5 46.3,43.9 C46.4,42.2 46.7,40.6 46.9,39.1 C47.3,36 47.5,33.1 47.6,30.6 C47.7,28.1 47.8,26 47.9,24.6 C47.9,23.1 47.9,22.3 47.9,22.3 C47.9,22.3 47.9,23.1 48,24.6 C48,26.1 48.1,28.1 48,30.7 C47.9,33.2 47.8,36.1 47.5,39.3 C47.4,40.9 47,42.5 47,44.1 C46.9,45.7 47,47.4 47.4,48.9 C47.8,50.5 48.5,52 49.5,53.2 C50.5,54.4 51.8,55.4 53.1,56.1 C53.8,56.5 54.5,56.8 55.2,57.2 C55.5,57.4 55.8,57.6 56.1,57.9 C56.4,58.1 56.7,58.4 56.9,58.7 C57.9,59.7 58.7,60.9 59.2,62.1 C59.8,63.2 60.1,64.3 60.4,65.3 C60.7,66.3 60.8,67.2 60.9,67.9 C61,68.6 61,69.2 61.1,69.6 C61,69.7 61,69.9 61,69.9 Z" id="Shape" fill="#423118"/>
          <path d="M52.1,62.3 C52.1,62.3 52.5,62.5 53,62.9 C53.5,63.3 54.1,64 54.5,64.8 C54.6,65 54.7,65.2 54.8,65.4 C54.9,65.6 54.9,65.8 55,66 C55.1,66.2 55.1,66.4 55.1,66.6 C55.1,66.8 55.1,67 55.1,67.1 C55.1,67.4 55.1,67.7 55,67.9 C55,68.1 55,68.2 55,68.2 C55,68.2 55,68.1 54.9,67.9 C54.9,67.7 54.8,67.5 54.7,67.2 C54.6,66.9 54.5,66.6 54.4,66.2 C54.3,65.8 54.1,65.5 53.9,65.1 C53.5,64.4 53.1,63.7 52.7,63.2 C52.4,62.7 52.1,62.3 52.1,62.3 Z" id="Shape" fill="#423118"/>
        </g>
        <g id="Group" transform="translate(66.000000, 57.000000)">
          <path d="M42.4,11.3 C25.9,7 6.2,-3.8 1.2,2.3 C-3.8,8.4 9,33.6 26.2,44.6 C43.3,55.5 52.5,48.4 52.5,48.4 C52.5,48.4 72.2,59.4 75.7,55.9 C75.7,55.9 94.4,63.1 95.9,58.7 C97.3,54.3 92,52 92,52 C92,52 103.6,54.5 96.1,46.5 C96.1,46.5 101.7,43.9 94.4,38.5 C94.4,38.5 97.4,36.1 84.3,29.2 C83.6,28.8 82.9,28.5 82.1,28.1 C66.5,20.4 52.3,13.8 42.4,11.3 Z" id="Shape" fill="#704E2C"/>
          <path d="M24.1,5.3 C24.1,5.3 22.6,4.7 19.9,3.8 C18.6,3.4 16.9,2.8 15,2.3 C13.1,1.8 10.9,1.3 8.5,1 C7.3,0.9 6,0.8 4.8,0.9 C4.2,1 3.5,1.1 2.9,1.3 C2.3,1.5 1.7,1.9 1.4,2.4 C0.8,3.6 0.7,5 0.7,6.4 C0.7,7.8 1,9.3 1.3,10.8 C2.7,16.7 5.7,22.5 9.4,27.7 C13.1,33 17.7,37.6 22.5,41.2 C24.9,43 27.3,44.7 29.7,46 C32.1,47.3 34.5,48.4 36.8,49.1 C39.1,49.8 41.3,50.2 43.3,50.3 C45.3,50.4 47,50.2 48.3,49.9 C49.7,49.6 50.7,49.1 51.4,48.8 C52.1,48.5 52.4,48.2 52.4,48.2 C52.4,48.2 52.1,48.5 51.4,48.8 C50.7,49.2 49.7,49.6 48.3,50 C46.9,50.4 45.2,50.6 43.2,50.6 C41.2,50.5 39,50.2 36.7,49.5 C32,48.1 26.9,45.3 22.1,41.6 C17.3,37.9 12.6,33.3 8.8,28 C5.1,22.7 2.1,16.8 0.7,10.8 C0.4,9.3 0.1,7.8 0.1,6.3 C0.1,4.8 0.2,3.3 0.9,2 C1.3,1.3 2,0.9 2.7,0.7 C3.4,0.5 4,0.4 4.7,0.3 C6,0.2 7.3,0.3 8.5,0.5 C10.9,0.8 13.1,1.4 15,1.9 C16.9,2.4 18.5,3 19.9,3.5 C22.6,4.6 24.1,5.3 24.1,5.3 Z" id="Shape" fill="#423118"/>
          <path d="M49.9,43.6 C49.9,43.6 50.1,43.7 50.3,43.8 C50.6,44 51,44.1 51.4,44.5 C51.6,44.7 51.9,44.8 52.1,45 C52.3,45.2 52.6,45.4 52.7,45.8 C52.8,46 52.9,46.1 53,46.3 C53.1,46.5 53.1,46.7 53.2,46.9 C53.2,47.3 53.2,47.7 53,48.1 C52.8,48.5 52.6,48.8 52.3,49 C52,49.3 51.7,49.4 51.4,49.6 C51.1,49.8 50.8,49.9 50.5,50 C50.2,50.1 49.9,50.2 49.7,50.2 C49.2,50.3 48.7,50.3 48.4,50.3 C48.1,50.3 47.9,50.3 47.9,50.3 C47.9,50.3 48.1,50.3 48.4,50.2 C48.7,50.1 49.1,50 49.6,49.9 C49.8,49.8 50.1,49.7 50.4,49.6 C50.7,49.5 50.9,49.3 51.2,49.2 C51.5,49 51.7,48.9 52,48.7 C52.2,48.5 52.4,48.3 52.6,48 C52.7,47.7 52.8,47.5 52.7,47.2 C52.7,47.1 52.6,46.9 52.6,46.8 C52.5,46.7 52.5,46.5 52.4,46.4 C52.3,46.1 52.1,45.9 51.9,45.7 C51.7,45.5 51.5,45.3 51.3,45.1 C51,44.7 50.6,44.5 50.4,44.3 C50,43.7 49.9,43.6 49.9,43.6 Z" id="Shape" fill="#423118"/>
          <path d="M52.5,48.2 C52.5,48.2 54,48.9 56.3,50 C57.4,50.6 58.8,51.2 60.2,51.8 C61.6,52.5 63.2,53.1 64.8,53.8 C66.4,54.5 67.9,55.1 69.5,55.5 C70.3,55.7 71,55.9 71.7,56.1 C72.4,56.3 73.1,56.3 73.7,56.3 C74.3,56.3 74.9,56.2 75.2,55.8 C75.5,55.5 75.7,55 75.7,54.7 C75.7,54.3 75.7,54 75.7,53.9 C75.7,53.7 75.7,53.6 75.7,53.6 C75.7,53.6 75.7,53.7 75.8,53.9 C75.8,54.1 75.9,54.4 75.9,54.8 C75.9,55.2 75.8,55.7 75.4,56.1 C75,56.5 74.4,56.7 73.7,56.7 C72.4,56.8 70.9,56.5 69.3,56.1 C67.8,55.7 66.1,55.1 64.6,54.4 C63,53.7 61.5,53 60,52.3 C58.6,51.6 57.2,50.9 56.1,50.3 C53.9,49.2 52.5,48.2 52.5,48.2 Z" id="Shape" fill="#423118"/>
          <path d="M75.7,55.8 C75.7,55.8 77.5,56.4 80.2,57.2 C81.5,57.6 83.1,58 84.8,58.5 C86.5,58.9 88.3,59.3 90.2,59.5 C91.1,59.6 92,59.7 92.9,59.6 C93.8,59.5 94.7,59.4 95.3,58.9 C95.6,58.7 95.7,58.3 95.9,57.9 C96,57.7 96,57.5 96.1,57.3 C96.1,57.1 96.2,56.9 96.2,56.7 C96.2,56 96,55.2 95.6,54.7 C94.8,53.6 93.9,52.9 93.2,52.4 C92.5,52 92.1,51.8 92.1,51.8 C92.1,51.8 92.5,51.9 93.3,52.3 C94,52.7 95.1,53.3 96,54.5 C96.4,55.1 96.8,55.9 96.8,56.7 C96.8,56.9 96.8,57.1 96.7,57.4 C96.7,57.6 96.6,57.9 96.5,58 C96.4,58.4 96.2,58.9 95.8,59.2 C95,59.9 94,60 93.1,60.1 C92.2,60.2 91.2,60.1 90.3,60 C88.4,59.8 86.6,59.3 84.9,58.9 C83.2,58.4 81.6,57.9 80.3,57.4 C79,56.9 77.9,56.5 77.1,56.2 C76.1,56 75.7,55.8 75.7,55.8 Z" id="Shape" fill="#423118"/>
          <path d="M87.2,50.7 C87.2,50.7 88.7,51 90.8,51.3 C91.9,51.5 93.2,51.6 94.5,51.7 C95.2,51.7 95.9,51.7 96.6,51.7 C97.3,51.6 98,51.5 98.2,50.9 C98.4,50.3 98.2,49.6 97.9,49 C97.6,48.4 97.2,47.8 96.7,47.4 C95.7,46.5 94.6,45.9 93.6,45.4 C92.6,45 91.7,44.7 91.1,44.5 C90.5,44.3 90.1,44.2 90.1,44.2 C90.1,44.2 90.5,44.2 91.1,44.4 C91.7,44.5 92.6,44.7 93.7,45.1 C94.7,45.5 95.9,46 97,47 C97.5,47.5 98,48 98.4,48.7 C98.7,49.4 99,50.2 98.8,51 C98.8,51.1 98.7,51.2 98.7,51.3 C98.6,51.4 98.5,51.5 98.5,51.6 C98.3,51.8 98.1,51.9 97.9,52 C97.5,52.2 97.1,52.2 96.8,52.3 C96,52.4 95.3,52.4 94.6,52.3 C93.2,52.2 91.9,51.9 90.9,51.7 C89.8,51.5 88.9,51.2 88.3,51 C87.6,50.8 87.2,50.7 87.2,50.7 Z" id="Shape" fill="#423118"/>
          <path d="M96,46.4 C96,46.4 96.2,46.2 96.6,45.8 C96.9,45.4 97.4,44.8 97.6,43.9 C97.7,43.5 97.7,43 97.6,42.5 C97.5,42 97.3,41.6 97,41.1 C96.7,40.7 96.3,40.2 95.8,39.9 C95.4,39.5 94.9,39.2 94.3,38.9 C93.8,38.6 93.3,38.3 92.7,38 C92.2,37.7 91.6,37.5 91.1,37.3 C90.6,37.1 90.1,36.9 89.6,36.7 C89.1,36.5 88.7,36.3 88.2,36.2 C86.5,35.6 85.3,35.2 85.3,35.2 C85.3,35.2 85.6,35.3 86.1,35.4 C86.6,35.5 87.4,35.7 88.3,35.9 C88.7,36 89.2,36.2 89.7,36.3 C90.2,36.4 90.7,36.6 91.3,36.8 C91.8,37 92.4,37.2 92.9,37.5 C93.5,37.8 94,38 94.5,38.4 C95,38.7 95.5,39.1 96,39.5 C96.5,39.9 96.9,40.4 97.2,40.8 C97.5,41.3 97.8,41.9 97.8,42.4 C97.9,43 97.8,43.5 97.6,43.9 C97.3,44.8 96.7,45.4 96.3,45.7 C96.2,46.3 96,46.4 96,46.4 Z" id="Shape" fill="#423118"/>
          <path d="M94.3,38.4 C94.3,38.4 94.5,38.3 94.6,37.9 C94.7,37.5 94.5,36.9 94.1,36.3 C93.7,35.7 93.1,35.1 92.2,34.4 C91.4,33.8 90.5,33.1 89.4,32.4 C88.3,31.7 87.2,31 85.9,30.3 C84.7,29.6 83.3,28.9 81.9,28.2 C79.1,26.8 76.1,25.3 73,23.9 C70,22.5 66.9,21.1 64,19.8 C61.1,18.5 58.4,17.3 56.1,16.4 C53.8,15.4 51.8,14.6 50.5,14 C49.1,13.4 48.4,13.1 48.4,13.1 C48.4,13.1 49.2,13.4 50.6,13.9 C52,14.4 54,15.1 56.3,16.1 C58.6,17 61.4,18.1 64.3,19.4 C67.2,20.6 70.3,22 73.3,23.4 C76.3,24.8 79.4,26.3 82.2,27.8 C83.6,28.5 84.9,29.3 86.2,30 C87.5,30.7 88.6,31.5 89.7,32.2 C90.7,32.9 91.7,33.6 92.4,34.3 C93.2,35 93.8,35.7 94.2,36.3 C94.6,36.9 94.8,37.5 94.7,37.9 C94.5,38.3 94.2,38.4 94.3,38.4 Z" id="Shape" fill="#423118"/>
          <g transform="translate(31.000000, 20.000000)" fill="#52391E" id="Shape">
            <path d="M40.2,32.1 C40.2,32.1 40.8,32.2 41.6,32.5 C42.4,32.7 43.5,33.1 44.6,33.3 C44.9,33.3 45.1,33.4 45.4,33.3 C45.7,33.3 45.9,33.3 46.1,33.2 C46.3,33.1 46.6,33.1 46.8,33 C47,32.9 47.2,32.8 47.4,32.7 C47.6,32.6 47.7,32.4 47.8,32.3 C47.9,32.2 48,32.1 48.1,32 C48.3,31.8 48.4,31.7 48.4,31.7 C48.4,31.7 48.3,31.8 48.2,32.1 C48.1,32.2 48.1,32.4 48,32.5 C47.9,32.6 47.8,32.8 47.6,33 C47.4,33.1 47.3,33.3 47,33.5 C46.8,33.7 46.5,33.8 46.3,33.9 C46,34 45.7,34.1 45.4,34.1 C45.1,34.1 44.8,34.1 44.5,34.1 C43.3,33.9 42.2,33.4 41.5,33.1 C40.7,32.4 40.2,32.1 40.2,32.1 Z"/>
            <path d="M44.3,29.2 C44.3,29.2 44.6,29.2 45,29.5 C45.4,29.7 46,30 46.7,30.4 C47.4,30.8 48.2,31.2 49.1,31.6 C50,32 51,32.4 52,32.5 C52.5,32.6 53,32.6 53.4,32.4 C53.8,32.3 54.2,32 54.4,31.6 C54.6,31.3 54.5,30.9 54.2,30.6 C53.9,30.3 53.6,30 53.3,29.8 C52.7,29.4 52.1,29 51.7,28.8 C51.3,28.6 51.1,28.5 51.1,28.5 C51.1,28.5 51.4,28.6 51.8,28.7 C52.2,28.9 52.9,29.1 53.6,29.5 C53.9,29.7 54.3,30 54.7,30.3 C54.9,30.5 55,30.7 55.1,31 C55.1,31.1 55.2,31.3 55.2,31.5 C55.2,31.6 55.2,31.7 55.1,31.8 C55.1,31.9 55.1,31.9 55,32 C54.7,32.5 54.3,32.9 53.7,33.1 C53.1,33.3 52.6,33.3 52,33.3 C50.9,33.1 49.9,32.7 49,32.3 C48.1,31.9 47.3,31.4 46.6,30.9 C45.9,30.5 45.4,30.1 45,29.8 C44.5,29.3 44.3,29.2 44.3,29.2 Z"/>
            <path d="M44.1,25.6 C44.1,25.6 44.3,25.7 44.6,25.8 C44.9,25.9 45.3,26.1 45.9,26.3 C47,26.7 48.4,27.2 49.9,27.5 C50.3,27.6 50.6,27.6 51,27.6 C51.3,27.6 51.7,27.6 51.9,27.5 C52.1,27.4 52.2,27.2 52.2,26.9 C52.2,26.6 52.1,26.3 51.9,26.1 C51.7,25.6 51.4,25.2 51.2,24.9 C51,24.6 50.9,24.5 50.9,24.5 C50.9,24.5 51,24.6 51.3,24.9 C51.5,25.1 51.9,25.5 52.2,26 C52.4,26.2 52.5,26.5 52.6,26.9 C52.6,27.1 52.6,27.3 52.6,27.5 C52.5,27.7 52.3,27.9 52.1,28 C51.7,28.2 51.3,28.3 50.9,28.3 C50.5,28.3 50.1,28.3 49.7,28.2 C48.1,27.9 46.7,27.3 45.7,26.7 C44.7,26.1 44.1,25.6 44.1,25.6 Z"/>
            <path d="M21.2,25.7 C21.2,25.7 21.8,25.7 22.6,25.8 C23,25.8 23.5,25.8 24,25.8 C24.5,25.7 25.1,25.6 25.2,25.3 C25.4,25 25.2,24.5 25,24.1 C24.8,23.7 24.5,23.3 24.3,22.9 C24.1,22.6 23.9,22.3 23.7,22.1 C23.6,21.9 23.5,21.8 23.5,21.8 C23.5,21.8 24,22.1 24.6,22.7 C24.9,23 25.2,23.4 25.5,23.9 C25.6,24.1 25.8,24.4 25.9,24.7 C26,25 26,25.4 25.8,25.8 C25.6,26.1 25.2,26.3 24.9,26.4 C24.6,26.5 24.3,26.5 24,26.5 C23.4,26.5 22.9,26.4 22.5,26.3 C21.7,25.9 21.2,25.7 21.2,25.7 Z"/>
            <path d="M0.3,7 C0.3,7 1.6,7.5 3.4,8.3 C4.3,8.7 5.4,9.2 6.6,9.7 C7.8,10.2 9,10.7 10.3,11.1 C10.9,11.3 11.6,11.5 12.2,11.5 C12.8,11.6 13.3,11.4 13.6,10.9 C13.9,10.3 13.9,9.8 13.8,9.3 C13.7,8.8 13.3,8.4 13,8 C12.3,7.3 11.5,6.9 11,6.7 C10.5,6.5 10.1,6.4 10.1,6.4 C10.1,6.4 10.4,6.5 11,6.6 C11.6,6.8 12.4,7.1 13.2,7.8 C13.6,8.1 14,8.6 14.2,9.2 C14.4,9.8 14.3,10.5 14.1,11.1 C14,11.4 13.7,11.8 13.3,12 C12.9,12.2 12.6,12.2 12.2,12.2 C11.5,12.2 10.8,12 10.1,11.8 C8.8,11.4 7.5,10.8 6.4,10.3 C5.2,9.8 4.2,9.2 3.3,8.8 C1.4,7.7 0.3,7 0.3,7 Z"/>
            <path d="M12.9,8 C12.9,8 13.1,8.1 13.5,8.3 C13.9,8.5 14.5,8.7 15.2,8.9 C15.6,9 16,9 16.3,8.8 C16.6,8.7 16.9,8.3 17,7.9 C17,7.8 17.1,7.7 17.1,7.6 L17.1,7.5 L17.1,7.3 C17.1,7.1 17.1,6.9 17,6.7 C16.9,6.3 16.6,5.9 16.3,5.5 C15.7,4.7 14.9,4.1 14.2,3.5 C13.4,2.9 12.7,2.4 12.1,2 C10.8,1.2 9.9,0.7 9.9,0.7 C9.9,0.7 10.9,1 12.3,1.7 C13,2.1 13.8,2.5 14.6,3 C15.4,3.6 16.2,4.2 16.9,5 C17.2,5.4 17.5,5.9 17.7,6.4 C17.8,6.7 17.8,7 17.8,7.3 L17.8,7.5 L17.8,7.6 C17.8,7.7 17.7,7.9 17.7,8 C17.5,8.5 17.1,9 16.6,9.1 C16.1,9.3 15.6,9.2 15.3,9.1 C14.5,8.9 14,8.5 13.6,8.3 C13.1,8.2 12.9,8 12.9,8 Z"/>
            <path d="M33.2,7.7 C33.2,7.7 33.4,7.7 33.6,7.8 C33.9,7.9 34.3,8 34.7,8.2 C35.1,8.3 35.7,8.5 36.3,8.5 C36.6,8.6 36.9,8.5 37.2,8.6 L37.6,8.6 L38,8.5 C38.2,8.4 38.5,8.3 38.5,8.1 C38.6,7.9 38.5,7.7 38.5,7.4 C38.4,7.2 38.3,6.9 38.1,6.7 C37.9,6.5 37.8,6.3 37.6,6.1 C37.3,5.7 37,5.5 36.8,5.3 C36.6,5.1 36.5,5 36.5,5 C36.5,5 36.6,5.1 36.9,5.2 C37.1,5.3 37.5,5.6 37.9,5.9 C38.1,6 38.3,6.2 38.5,6.5 C38.7,6.7 38.9,7 39,7.3 C39.1,7.6 39.3,8 39.1,8.4 C39,8.8 38.6,9.1 38.2,9.2 C38,9.2 37.8,9.3 37.7,9.3 L37.2,9.3 C36.9,9.3 36.5,9.3 36.2,9.2 C35.6,9.1 35,8.9 34.6,8.6 C34.1,8.4 33.8,8.2 33.6,8 C33.3,7.8 33.2,7.7 33.2,7.7 Z"/>
            <path d="M38.3,8.3 C38.3,8.3 39.2,8.6 40.5,9.2 C41.1,9.5 41.9,9.9 42.7,10.5 C43.4,11 44.2,11.7 44.9,12.4 C45.2,12.8 45.5,13.2 45.7,13.7 C45.9,14.2 45.9,14.8 45.6,15.3 C45.3,15.8 44.8,15.9 44.3,16 C43.9,16.1 43.5,16.1 43.1,16.1 C42.4,16.1 41.8,16 41.3,15.9 C40.9,15.8 40.6,15.8 40.6,15.8 C40.6,15.8 40.8,15.8 41.3,15.8 C41.7,15.8 42.3,15.8 43,15.7 C43.4,15.7 43.7,15.6 44.1,15.5 C44.5,15.4 44.8,15.2 45,14.9 C45.2,14.6 45.2,14.2 45,13.8 C44.8,13.4 44.6,13 44.3,12.7 C43.7,12 43,11.4 42.3,10.8 C41.6,10.3 40.9,9.8 40.3,9.4 C39.7,9 39.2,8.7 38.8,8.5 C38.5,8.4 38.3,8.3 38.3,8.3 Z"/>
          </g>
          <path d="M43,42 C43,42 43.7,42.2 44.8,42.6 C45.3,42.8 45.9,43 46.6,43.2 C47.3,43.4 48,43.6 48.6,43.6 C48.9,43.6 49.2,43.5 49.4,43.3 C49.6,43.1 49.6,42.8 49.6,42.5 C49.5,41.9 49.2,41.3 48.9,40.9 C48.6,40.4 48.3,40.1 48.1,39.8 C47.9,39.5 47.8,39.4 47.8,39.4 C47.8,39.4 48,39.5 48.2,39.7 C48.4,39.9 48.8,40.2 49.2,40.7 C49.6,41.1 50,41.7 50.2,42.5 C50.3,42.9 50.2,43.4 49.9,43.7 C49.6,44.1 49.1,44.2 48.7,44.2 C47.9,44.2 47.2,43.9 46.5,43.7 C45.8,43.5 45.2,43.2 44.7,42.9 C43.7,42.4 43,42 43,42 Z" id="Shape" fill="#52391E"/>
          <path d="M50,21.9 C50,21.9 51,22.4 52.4,23 C53.1,23.3 54,23.6 54.9,23.9 C55.4,24.1 55.9,24.2 56.4,24.3 C56.7,24.3 56.9,24.4 57.2,24.4 C57.5,24.4 57.7,24.4 57.9,24.4 C58.2,24.4 58.4,24.3 58.6,24.3 C58.8,24.2 59,24.1 59.2,24 C59.6,23.7 59.6,23.4 59.4,23 C59.2,22.6 58.8,22.3 58.5,22 C58.2,21.7 57.8,21.5 57.5,21.3 C56.8,20.9 56.2,20.5 55.8,20.3 C55.4,20.1 55.1,20 55.1,20 C55.1,20 55.4,20.1 55.8,20.2 C56.2,20.4 56.9,20.6 57.6,21 C58,21.2 58.3,21.4 58.7,21.7 C59.1,22 59.5,22.3 59.8,22.8 C60,23 60.1,23.4 60,23.7 C60,24 59.7,24.4 59.5,24.5 C59.3,24.7 59,24.8 58.7,24.9 C58.4,25 58.1,25.1 57.8,25.1 C57.5,25.1 57.2,25.1 57,25.1 C56.7,25.1 56.5,25 56.2,25 C55.7,24.9 55.2,24.7 54.7,24.6 C54.2,24.4 53.8,24.2 53.3,24 C52.9,23.8 52.5,23.6 52.1,23.4 C50.9,22.5 50,21.9 50,21.9 Z" id="Shape" fill="#52391E"/>
          <path d="M14.5,20.5 C14.5,20.5 15.4,21.1 16.9,21.9 C17.6,22.3 18.5,22.7 19.4,23 C19.9,23.1 20.4,23.2 20.9,23.2 C21.1,23.2 21.4,23.2 21.6,23.1 C21.8,23 22.1,22.9 22.2,22.8 C22.4,22.6 22.2,22 22,21.6 C21.7,21.2 21.4,20.8 21,20.4 C20.3,19.7 19.6,19 18.9,18.5 C18.3,18 17.7,17.5 17.4,17.2 C17,16.9 16.8,16.7 16.8,16.7 C16.8,16.7 17.8,17.2 19.1,18.2 C19.8,18.7 20.5,19.3 21.3,20 C21.7,20.4 22.1,20.8 22.4,21.2 C22.6,21.4 22.7,21.7 22.8,22 C22.9,22.3 22.9,22.7 22.6,23 C22.4,23.3 22,23.4 21.8,23.5 C21.5,23.6 21.2,23.6 20.9,23.7 C20.3,23.7 19.8,23.6 19.2,23.4 C18.2,23.1 17.3,22.6 16.6,22.1 C15.9,21.6 15.4,21.2 15,20.9 C14.7,20.7 14.5,20.5 14.5,20.5 Z" id="Shape" fill="#52391E"/>
        </g>
      </g>
    </g>
  </g>
</svg>