<?xml version="1.0" ?><!DOCTYPE svg  PUBLIC '-//W3C//DTD SVG 1.1//EN'  'http://www.w3.org/Graphics/SVG/1.1/DTD/svg11.dtd' [
	<!ENTITY stroke_color "#666666">
	<!ENTITY fill_color "#ffffff">
]><svg enable-background="new 0 0 100 100" height="55" id="Layer_1" inkscape:version="0.48.4 r9939" sodipodi:docname="icon_18033.svg" version="1.1" viewBox="0 0 55 55" width="55" x="0px" xml:space="preserve" xmlns="http://www.w3.org/2000/svg" xmlns:cc="http://creativecommons.org/ns#" xmlns:dc="http://purl.org/dc/elements/1.1/" xmlns:inkscape="http://www.inkscape.org/namespaces/inkscape" xmlns:rdf="http://www.w3.org/1999/02/22-rdf-syntax-ns#" xmlns:sodipodi="http://sodipodi.sourceforge.net/DTD/sodipodi-0.dtd" xmlns:svg="http://www.w3.org/2000/svg" y="0px"><metadata id="metadata3865"><rdf:RDF><cc:Work rdf:about=""><dc:format>image/svg+xml</dc:format><dc:type rdf:resource="http://purl.org/dc/dcmitype/StillImage"/><dc:title/><cc:license rdf:resource="http://creativecommons.org/licenses/by/3.0/"/></cc:Work><cc:License rdf:about="http://creativecommons.org/licenses/by/3.0/"><cc:permits rdf:resource="http://creativecommons.org/ns#Reproduction"/><cc:permits rdf:resource="http://creativecommons.org/ns#Distribution"/><cc:requires rdf:resource="http://creativecommons.org/ns#Notice"/><cc:requires rdf:resource="http://creativecommons.org/ns#Attribution"/><cc:permits rdf:resource="http://creativecommons.org/ns#DerivativeWorks"/></cc:License></rdf:RDF></metadata><defs id="defs3863"/><sodipodi:namedview bordercolor="#666666" borderopacity="1" gridtolerance="10" guidetolerance="10" id="namedview3861" inkscape:current-layer="Layer_1" inkscape:cx="50" inkscape:cy="50" inkscape:pageopacity="0" inkscape:pageshadow="2" inkscape:window-height="744" inkscape:window-maximized="1" inkscape:window-width="1301" inkscape:window-x="65" inkscape:window-y="24" inkscape:zoom="2.36" objecttolerance="10" pagecolor="#ffffff" showgrid="false"/><g id="g3851" style="fill:&fill_color;;stroke:&stroke_color;;stroke-opacity:1" transform="matrix(0.42090395,0,0,0.44411206,6.4971747,5.4363592)"><path d="m 41.751,59.098 v 6.119 L 20,55.789 V 50.557 L 41.751,41.13 v 6.162 l -15.156,5.839 15.156,5.967 z" id="path3853" inkscape:connector-curvature="0" style="fill:&fill_color;;stroke:&stroke_color;;stroke-opacity:1"/><path d="m 55.2,41 -6.055,24.93 c -0.201,0.821 -0.377,1.471 -0.529,1.946 -0.151,0.476 -0.382,0.849 -0.691,1.112 -0.31,0.268 -0.761,0.4 -1.352,0.4 -1.47,0 -2.206,-0.636 -2.206,-1.902 0,-0.332 0.145,-1.16 0.433,-2.486 l 6.033,-24.93 c 0.317,-1.326 0.619,-2.234 0.907,-2.724 0.289,-0.49 0.851,-0.735 1.688,-0.735 0.721,0 1.271,0.173 1.653,0.519 0.382,0.346 0.573,0.822 0.573,1.427 0,0.447 -0.152,1.261 -0.454,2.443 z" id="path3855" inkscape:connector-curvature="0" style="fill:&fill_color;;stroke:&stroke_color;;stroke-opacity:1"/><path d="M 80,55.789 58.249,65.26 v -6.119 l 15.2,-5.967 -15.2,-5.882 V 41.216 L 80,50.6 v 5.189 z" id="path3857" inkscape:connector-curvature="0" style="fill:&fill_color;;stroke:&stroke_color;;stroke-opacity:1"/></g><path d="M 46.983053,8.0338981 H 8.9491522 c -1.43189,0 -2.59322,1.134419 -2.59322,2.5331279 v 32.086286 c 0,1.398709 1.16133,2.533128 2.59322,2.533128 H 46.983053 c 1.432322,0 2.59322,-1.134841 2.59322,-2.533128 V 10.567026 c 0,-1.3991309 -1.160898,-2.5331279 -2.59322,-2.5331279 z m -6.483052,1.688752 c 0.953008,0 1.728813,0.7574049 1.728813,1.6887519 0,0.931346 -0.775805,1.688752 -1.728813,1.688752 -0.953009,0 -1.728814,-0.757406 -1.728814,-1.688752 0,-0.931347 0.775805,-1.6887519 1.728814,-1.6887519 z m -4.754238,0 c 0.953009,0 1.728814,0.7574049 1.728814,1.6887519 0,0.931346 -0.775805,1.688752 -1.728814,1.688752 -0.953008,0 -1.728813,-0.757406 -1.728813,-1.688752 0,-0.931347 0.775805,-1.6887519 1.728813,-1.6887519 z M 46.983053,42.653312 H 8.9491522 V 14.788906 H 46.983053 V 42.653312 z M 45.254238,13.100154 c -0.953008,0 -1.728813,-0.757406 -1.728813,-1.688752 0,-0.931347 0.775805,-1.6887519 1.728813,-1.6887519 0.95301,0 1.728815,0.7574049 1.728815,1.6887519 0,0.931346 -0.775805,1.688752 -1.728815,1.688752 z" id="path3859" inkscape:connector-curvature="0" style="fill:&fill_color;;stroke:&stroke_color;;stroke-opacity:1"/></svg>