<?xml version="1.0" standalone="no"?>
<!DOCTYPE svg PUBLIC "-//W3C//DTD SVG 20010904//EN"
 "http://www.w3.org/TR/2001/REC-SVG-20010904/DTD/svg10.dtd">
<svg version="1.0" xmlns="http://www.w3.org/2000/svg"
 width="25.000000pt" height="25.000000pt" viewBox="0 0 512.000000 512.000000"
 preserveAspectRatio="xMidYMid meet">
<metadata>
Created by potrace 1.15, written by Peter Selinger 2001-2017
</metadata>
<g transform="translate(0.000000,512.000000) scale(0.100000,-0.100000)"
fill="#000000" stroke="none">
<path d="M2240 5105 c-389 -48 -766 -188 -1091 -404 -504 -335 -871 -825
-1043 -1395 -41 -132 -81 -333 -96 -468 -13 -125 -13 -431 0 -556 108 -1014
825 -1880 1804 -2176 132 -41 333 -81 468 -96 125 -13 431 -13 556 0 592 63
1141 332 1563 766 289 299 494 645 613 1038 74 243 106 468 106 746 0 209 -10
324 -46 505 -181 920 -867 1676 -1768 1949 -132 41 -333 81 -468 96 -131 14
-469 11 -598 -5z m695 -254 c998 -170 1758 -940 1922 -1946 25 -155 25 -535 0
-690 -166 -1017 -935 -1786 -1952 -1952 -155 -25 -535 -25 -690 0 -1017 166
-1786 935 -1952 1952 -25 155 -25 535 0 690 82 501 307 944 657 1295 386 385
878 616 1435 674 107 11 464 -3 580 -23z"/>
<path d="M1095 3024 c-173 -36 -285 -119 -352 -260 -105 -220 -25 -487 181
-608 258 -151 599 -21 686 263 39 125 19 286 -48 391 -97 152 -306 247 -467
214z"/>
<path d="M2461 3019 c-130 -25 -265 -132 -322 -253 -136 -290 38 -620 351
-669 310 -48 581 223 533 533 -42 267 -294 442 -562 389z"/>
<path d="M3860 3020 c-25 -5 -76 -25 -115 -44 -162 -80 -255 -232 -255 -416 0
-184 94 -336 255 -416 344 -169 722 101 675 481 -21 171 -154 330 -318 381
-61 19 -184 26 -242 14z"/>
</g>
</svg>
