<?xml version="1.0" standalone="no"?>
<!DOCTYPE svg PUBLIC "-//W3C//DTD SVG 20010904//EN"
 "http://www.w3.org/TR/2001/REC-SVG-20010904/DTD/svg10.dtd">
<svg version="1.0" xmlns="http://www.w3.org/2000/svg"
 width="23.000000pt" height="23.000000pt" viewBox="0 0 737.000000 737.000000"
 preserveAspectRatio="xMidYMid meet">
<metadata>
Created by potrace 1.15, written by Peter Selinger 2001-2017
</metadata>
<g transform="translate(0.000000,737.000000) scale(0.100000,-0.100000)"
fill="#000000" stroke="none">
<path d="M3390 7350 c0 -6 -40 -10 -100 -10 -60 0 -100 -4 -100 -10 0 -6 -30
-10 -70 -10 -40 0 -70 -4 -70 -10 0 -6 -27 -10 -60 -10 -33 0 -60 -4 -60 -10
0 -5 -22 -10 -50 -10 -27 0 -50 -4 -50 -10 0 -5 -18 -10 -40 -10 -22 0 -40 -4
-40 -10 0 -5 -18 -10 -40 -10 -22 0 -40 -4 -40 -10 0 -5 -18 -10 -40 -10 -22
0 -40 -4 -40 -10 0 -5 -13 -10 -30 -10 -16 0 -30 -4 -30 -10 0 -5 -13 -10 -30
-10 -16 0 -30 -4 -30 -10 0 -5 -13 -10 -30 -10 -16 0 -30 -4 -30 -10 0 -5 -13
-10 -30 -10 -16 0 -30 -4 -30 -10 0 -5 -9 -10 -20 -10 -11 0 -20 -4 -20 -10 0
-5 -13 -10 -30 -10 -16 0 -30 -4 -30 -10 0 -5 -9 -10 -20 -10 -11 0 -20 -4
-20 -10 0 -5 -9 -10 -20 -10 -11 0 -20 -4 -20 -10 0 -5 -13 -10 -30 -10 -16 0
-30 -4 -30 -10 0 -5 -9 -10 -20 -10 -11 0 -20 -4 -20 -10 0 -5 -9 -10 -20 -10
-11 0 -20 -4 -20 -10 0 -5 -9 -10 -20 -10 -11 0 -20 -4 -20 -10 0 -5 -8 -10
-18 -10 -10 0 -24 -9 -32 -20 -8 -11 -22 -20 -32 -20 -10 0 -18 -4 -18 -10 0
-5 -9 -10 -20 -10 -11 0 -20 -4 -20 -10 0 -5 -8 -10 -18 -10 -10 0 -24 -9 -32
-20 -8 -11 -22 -20 -32 -20 -10 0 -18 -4 -18 -10 0 -5 -8 -10 -18 -10 -10 0
-24 -9 -32 -20 -8 -11 -21 -20 -30 -20 -9 0 -22 -9 -30 -20 -8 -11 -21 -20
-28 -20 -8 0 -27 -13 -42 -30 -15 -16 -33 -30 -40 -30 -7 0 -25 -13 -40 -30
-15 -16 -33 -30 -40 -30 -6 0 -29 -18 -50 -40 -21 -22 -44 -40 -50 -40 -6 0
-38 -27 -70 -60 -32 -33 -64 -60 -70 -60 -13 0 -260 -247 -260 -260 0 -6 -31
-42 -70 -80 -38 -38 -70 -74 -70 -80 0 -6 -18 -29 -40 -50 -22 -21 -40 -44
-40 -50 0 -7 -13 -25 -30 -40 -16 -15 -30 -34 -30 -42 0 -7 -9 -20 -20 -28
-11 -8 -20 -21 -20 -30 0 -9 -9 -22 -20 -30 -11 -8 -20 -21 -20 -30 0 -9 -9
-22 -20 -30 -11 -8 -20 -21 -20 -30 0 -9 -9 -22 -20 -30 -11 -8 -20 -22 -20
-32 0 -10 -4 -18 -10 -18 -5 0 -10 -8 -10 -18 0 -10 -9 -24 -20 -32 -11 -8
-20 -22 -20 -32 0 -10 -4 -18 -10 -18 -5 0 -10 -9 -10 -20 0 -11 -4 -20 -10
-20 -5 0 -10 -9 -10 -20 0 -11 -4 -20 -10 -20 -5 0 -10 -9 -10 -20 0 -11 -4
-20 -10 -20 -5 0 -10 -9 -10 -20 0 -11 -4 -20 -10 -20 -5 0 -10 -9 -10 -20 0
-11 -4 -20 -10 -20 -5 0 -10 -9 -10 -20 0 -11 -4 -20 -10 -20 -5 0 -10 -9 -10
-20 0 -11 -4 -20 -10 -20 -5 0 -10 -13 -10 -30 0 -16 -4 -30 -10 -30 -5 0 -10
-9 -10 -20 0 -11 -4 -20 -10 -20 -5 0 -10 -13 -10 -30 0 -16 -4 -30 -10 -30
-5 0 -10 -9 -10 -20 0 -11 -4 -20 -10 -20 -5 0 -10 -13 -10 -30 0 -16 -4 -30
-10 -30 -5 0 -10 -13 -10 -30 0 -16 -4 -30 -10 -30 -5 0 -10 -13 -10 -30 0
-16 -4 -30 -10 -30 -5 0 -10 -18 -10 -40 0 -22 -4 -40 -10 -40 -5 0 -10 -18
-10 -40 0 -22 -4 -40 -10 -40 -5 0 -10 -18 -10 -40 0 -22 -4 -40 -10 -40 -5 0
-10 -18 -10 -40 0 -22 -4 -40 -10 -40 -6 0 -10 -27 -10 -60 0 -33 -4 -60 -10
-60 -6 0 -10 -27 -10 -60 0 -33 -4 -60 -10 -60 -6 0 -10 -37 -10 -90 0 -53 -4
-90 -10 -90 -6 0 -10 -133 -10 -380 0 -247 4 -380 10 -380 6 0 10 -37 10 -90
0 -53 4 -90 10 -90 6 0 10 -27 10 -60 0 -33 4 -60 10 -60 6 0 10 -27 10 -60 0
-33 4 -60 10 -60 6 0 10 -18 10 -40 0 -22 5 -40 10 -40 6 0 10 -18 10 -40 0
-22 5 -40 10 -40 6 0 10 -18 10 -40 0 -22 5 -40 10 -40 6 0 10 -13 10 -30 0
-16 5 -30 10 -30 6 0 10 -18 10 -40 0 -22 5 -40 10 -40 6 0 10 -13 10 -30 0
-16 5 -30 10 -30 6 0 10 -9 10 -20 0 -11 5 -20 10 -20 6 0 10 -13 10 -30 0
-16 5 -30 10 -30 6 0 10 -13 10 -30 0 -16 5 -30 10 -30 6 0 10 -9 10 -20 0
-11 5 -20 10 -20 6 0 10 -9 10 -20 0 -11 5 -20 10 -20 6 0 10 -13 10 -30 0
-16 5 -30 10 -30 6 0 10 -9 10 -20 0 -11 5 -20 10 -20 6 0 10 -9 10 -20 0 -11
5 -20 10 -20 6 0 10 -9 10 -20 0 -11 5 -20 10 -20 6 0 10 -9 10 -20 0 -11 5
-20 10 -20 6 0 10 -9 10 -20 0 -11 5 -20 10 -20 6 0 10 -8 10 -18 0 -10 9 -24
20 -32 11 -8 20 -22 20 -32 0 -10 5 -18 10 -18 6 0 10 -9 10 -20 0 -11 5 -20
10 -20 6 0 10 -8 10 -18 0 -10 9 -24 20 -32 11 -8 20 -21 20 -30 0 -9 9 -22
20 -30 11 -8 20 -21 20 -30 0 -9 9 -22 20 -30 11 -8 20 -21 20 -28 0 -8 13
-27 30 -42 16 -15 30 -33 30 -40 0 -7 14 -25 30 -40 17 -15 30 -33 30 -40 0
-6 18 -29 40 -50 22 -21 40 -43 40 -50 0 -6 40 -51 90 -100 49 -49 90 -94 90
-100 0 -14 126 -140 140 -140 6 0 51 -40 100 -90 49 -49 94 -90 100 -90 7 0
29 -18 50 -40 21 -22 44 -40 50 -40 7 0 25 -14 40 -30 15 -17 34 -30 42 -30 7
0 20 -9 28 -20 8 -11 21 -20 30 -20 9 0 22 -9 30 -20 8 -11 21 -20 30 -20 9 0
22 -9 30 -20 8 -11 21 -20 30 -20 9 0 22 -9 30 -20 8 -11 21 -20 30 -20 9 0
22 -9 30 -20 8 -11 22 -20 32 -20 10 0 18 -4 18 -10 0 -5 9 -10 20 -10 11 0
20 -4 20 -10 0 -5 9 -10 20 -10 11 0 20 -4 20 -10 0 -5 9 -10 20 -10 11 0 20
-4 20 -10 0 -5 9 -10 20 -10 11 0 20 -4 20 -10 0 -5 9 -10 20 -10 11 0 20 -4
20 -10 0 -5 9 -10 20 -10 11 0 20 -4 20 -10 0 -5 9 -10 20 -10 11 0 20 -4 20
-10 0 -5 9 -10 20 -10 11 0 20 -4 20 -10 0 -5 9 -10 20 -10 11 0 20 -4 20 -10
0 -5 14 -10 30 -10 17 0 30 -4 30 -10 0 -5 9 -10 20 -10 11 0 20 -4 20 -10 0
-5 14 -10 30 -10 17 0 30 -4 30 -10 0 -5 9 -10 20 -10 11 0 20 -4 20 -10 0 -5
14 -10 30 -10 17 0 30 -4 30 -10 0 -5 14 -10 30 -10 17 0 30 -4 30 -10 0 -5
18 -10 40 -10 22 0 40 -4 40 -10 0 -5 14 -10 30 -10 17 0 30 -4 30 -10 0 -5
18 -10 40 -10 22 0 40 -4 40 -10 0 -5 23 -10 50 -10 28 0 50 -4 50 -10 0 -5
18 -10 40 -10 22 0 40 -4 40 -10 0 -6 27 -10 60 -10 33 0 60 -4 60 -10 0 -6
33 -10 80 -10 47 0 80 -4 80 -10 0 -6 43 -10 110 -10 67 0 110 -4 110 -10 0
-6 93 -10 260 -10 167 0 260 4 260 10 0 6 43 10 110 10 67 0 110 4 110 10 0 6
30 10 70 10 40 0 70 4 70 10 0 6 27 10 60 10 33 0 60 4 60 10 0 6 23 10 50 10
28 0 50 5 50 10 0 6 18 10 40 10 22 0 40 5 40 10 0 6 18 10 40 10 22 0 40 5
40 10 0 6 18 10 40 10 22 0 40 5 40 10 0 6 14 10 30 10 17 0 30 5 30 10 0 6
14 10 30 10 17 0 30 5 30 10 0 6 14 10 30 10 17 0 30 5 30 10 0 6 14 10 30 10
17 0 30 5 30 10 0 6 9 10 20 10 11 0 20 5 20 10 0 6 14 10 30 10 17 0 30 5 30
10 0 6 9 10 20 10 11 0 20 5 20 10 0 6 9 10 20 10 11 0 20 5 20 10 0 6 14 10
30 10 17 0 30 5 30 10 0 6 9 10 20 10 11 0 20 5 20 10 0 6 9 10 20 10 11 0 20
5 20 10 0 6 9 10 20 10 11 0 20 5 20 10 0 6 9 10 20 10 11 0 20 5 20 10 0 6 8
10 18 10 10 0 24 9 32 20 8 11 22 20 32 20 10 0 18 5 18 10 0 6 9 10 20 10 11
0 20 5 20 10 0 6 8 10 18 10 10 0 24 9 32 20 8 11 21 20 30 20 9 0 22 9 30 20
8 11 21 20 30 20 9 0 22 9 30 20 8 11 21 20 30 20 9 0 22 9 30 20 8 11 21 20
28 20 8 0 27 14 42 30 15 17 33 30 40 30 6 0 29 18 50 40 21 22 44 40 50 40 6
0 33 23 60 50 27 28 54 50 59 50 14 0 341 327 341 340 0 6 27 38 60 70 33 32
60 64 60 70 0 6 18 29 40 50 22 21 40 44 40 50 0 7 14 25 30 40 17 15 30 34
30 42 0 7 9 20 20 28 11 8 20 21 20 30 0 9 9 22 20 30 11 8 20 21 20 30 0 9 9
22 20 30 11 8 20 22 20 32 0 10 5 18 10 18 6 0 10 8 10 18 0 10 9 24 20 32 11
8 20 22 20 32 0 10 5 18 10 18 6 0 10 8 10 18 0 10 9 24 20 32 11 8 20 22 20
32 0 10 5 18 10 18 6 0 10 9 10 20 0 11 5 20 10 20 6 0 10 9 10 20 0 11 5 20
10 20 6 0 10 9 10 20 0 11 5 20 10 20 6 0 10 14 10 30 0 17 5 30 10 30 6 0 10
9 10 20 0 11 5 20 10 20 6 0 10 9 10 20 0 11 5 20 10 20 6 0 10 9 10 20 0 11
5 20 10 20 6 0 10 14 10 30 0 17 5 30 10 30 6 0 10 14 10 30 0 17 5 30 10 30
6 0 10 9 10 20 0 11 5 20 10 20 6 0 10 14 10 30 0 17 5 30 10 30 6 0 10 14 10
30 0 17 5 30 10 30 6 0 10 18 10 40 0 22 5 40 10 40 6 0 10 14 10 30 0 17 5
30 10 30 6 0 10 18 10 40 0 22 5 40 10 40 6 0 10 23 10 50 0 28 5 50 10 50 6
0 10 18 10 40 0 22 5 40 10 40 6 0 10 27 10 60 0 33 4 60 10 60 6 0 10 33 10
80 0 47 4 80 10 80 6 0 10 47 10 120 0 73 4 120 10 120 6 0 10 80 10 220 0
140 -4 220 -10 220 -6 0 -10 47 -10 120 0 73 -4 120 -10 120 -6 0 -10 33 -10
80 0 47 -4 80 -10 80 -6 0 -10 27 -10 60 0 33 -4 60 -10 60 -5 0 -10 23 -10
50 0 28 -4 50 -10 50 -5 0 -10 18 -10 40 0 22 -4 40 -10 40 -5 0 -10 18 -10
40 0 22 -4 40 -10 40 -5 0 -10 14 -10 30 0 17 -4 30 -10 30 -5 0 -10 18 -10
40 0 22 -4 40 -10 40 -5 0 -10 14 -10 30 0 17 -4 30 -10 30 -5 0 -10 14 -10
30 0 17 -4 30 -10 30 -5 0 -10 14 -10 30 0 17 -4 30 -10 30 -5 0 -10 9 -10 20
0 11 -4 20 -10 20 -5 0 -10 14 -10 30 0 17 -4 30 -10 30 -5 0 -10 9 -10 20 0
11 -4 20 -10 20 -5 0 -10 9 -10 20 0 11 -4 20 -10 20 -5 0 -10 14 -10 30 0 17
-4 30 -10 30 -5 0 -10 9 -10 20 0 11 -4 20 -10 20 -5 0 -10 9 -10 20 0 11 -4
20 -10 20 -5 0 -10 9 -10 20 0 11 -4 20 -10 20 -5 0 -10 9 -10 20 0 11 -4 20
-10 20 -5 0 -10 8 -10 18 0 10 -9 24 -20 32 -11 8 -20 22 -20 32 0 10 -4 18
-10 18 -5 0 -10 9 -10 20 0 11 -4 20 -10 20 -5 0 -10 8 -10 18 0 10 -9 24 -20
32 -11 8 -20 21 -20 30 0 9 -9 22 -20 30 -11 8 -20 21 -20 30 0 9 -9 22 -20
30 -11 8 -20 21 -20 30 0 9 -9 22 -20 30 -11 8 -20 21 -20 28 0 8 -13 27 -30
42 -16 15 -30 33 -30 40 0 7 -13 25 -30 40 -16 15 -30 33 -30 40 0 6 -27 38
-60 70 -33 32 -60 64 -60 70 0 13 -347 360 -360 360 -6 0 -38 27 -70 60 -32
33 -64 60 -70 60 -7 0 -25 14 -40 30 -15 17 -33 30 -40 30 -7 0 -25 14 -40 30
-15 17 -33 30 -40 30 -7 0 -25 14 -40 30 -15 17 -35 30 -44 30 -9 0 -16 5 -16
10 0 6 -8 10 -18 10 -10 0 -24 9 -32 20 -8 11 -21 20 -30 20 -9 0 -22 9 -30
20 -8 11 -22 20 -32 20 -10 0 -18 5 -18 10 0 6 -8 10 -18 10 -10 0 -24 9 -32
20 -8 11 -22 20 -32 20 -10 0 -18 5 -18 10 0 6 -9 10 -20 10 -11 0 -20 5 -20
10 0 6 -9 10 -20 10 -11 0 -20 5 -20 10 0 6 -9 10 -20 10 -11 0 -20 5 -20 10
0 6 -9 10 -20 10 -11 0 -20 5 -20 10 0 6 -9 10 -20 10 -11 0 -20 5 -20 10 0 6
-9 10 -20 10 -11 0 -20 5 -20 10 0 6 -13 10 -30 10 -16 0 -30 5 -30 10 0 6 -9
10 -20 10 -11 0 -20 5 -20 10 0 6 -9 10 -20 10 -11 0 -20 5 -20 10 0 6 -13 10
-30 10 -16 0 -30 5 -30 10 0 6 -13 10 -30 10 -16 0 -30 5 -30 10 0 6 -13 10
-30 10 -16 0 -30 5 -30 10 0 6 -13 10 -30 10 -16 0 -30 5 -30 10 0 6 -13 10
-30 10 -16 0 -30 5 -30 10 0 6 -18 10 -40 10 -22 0 -40 5 -40 10 0 6 -13 10
-30 10 -16 0 -30 5 -30 10 0 6 -22 10 -50 10 -27 0 -50 5 -50 10 0 6 -18 10
-40 10 -22 0 -40 5 -40 10 0 6 -27 10 -60 10 -33 0 -60 4 -60 10 0 6 -30 10
-70 10 -40 0 -70 4 -70 10 0 6 -43 10 -110 10 -67 0 -110 4 -110 10 0 6 -103
10 -290 10 -187 0 -290 -4 -290 -10z m660 -640 c0 -6 30 -10 70 -10 40 0 70
-4 70 -10 0 -6 27 -10 60 -10 33 0 60 -4 60 -10 0 -5 18 -10 40 -10 22 0 40
-4 40 -10 0 -5 18 -10 40 -10 22 0 40 -4 40 -10 0 -5 18 -10 40 -10 22 0 40
-4 40 -10 0 -5 14 -10 30 -10 17 0 30 -4 30 -10 0 -5 14 -10 30 -10 17 0 30
-4 30 -10 0 -5 14 -10 30 -10 17 0 30 -4 30 -10 0 -5 14 -10 30 -10 17 0 30
-4 30 -10 0 -5 9 -10 20 -10 11 0 20 -4 20 -10 0 -5 14 -10 30 -10 17 0 30 -4
30 -10 0 -5 9 -10 20 -10 11 0 20 -4 20 -10 0 -5 9 -10 20 -10 11 0 20 -4 20
-10 0 -5 9 -10 20 -10 11 0 20 -4 20 -10 0 -5 9 -10 20 -10 11 0 20 -4 20 -10
0 -5 9 -10 20 -10 11 0 20 -4 20 -10 0 -5 8 -10 18 -10 10 0 24 -9 32 -20 8
-11 22 -20 32 -20 10 0 18 -4 18 -10 0 -5 9 -10 20 -10 11 0 20 -4 20 -10 0
-5 8 -10 18 -10 10 0 24 -9 32 -20 8 -11 21 -20 30 -20 9 0 22 -9 30 -20 8
-11 21 -20 28 -20 8 0 27 -13 42 -30 15 -16 33 -30 40 -30 7 0 25 -13 40 -30
15 -16 33 -30 40 -30 6 0 29 -18 50 -40 21 -22 43 -40 49 -40 14 0 381 -366
381 -381 0 -5 23 -32 50 -59 28 -27 50 -54 50 -60 0 -7 14 -25 30 -40 17 -15
30 -34 30 -42 0 -7 9 -20 20 -28 11 -8 20 -21 20 -30 0 -9 9 -22 20 -30 11 -8
20 -21 20 -30 0 -9 9 -22 20 -30 11 -8 20 -21 20 -30 0 -9 9 -22 20 -30 11 -8
20 -22 20 -32 0 -10 5 -18 10 -18 6 0 10 -8 10 -18 0 -10 9 -24 20 -32 11 -8
20 -22 20 -32 0 -10 5 -18 10 -18 6 0 10 -9 10 -20 0 -11 5 -20 10 -20 6 0 10
-9 10 -20 0 -11 5 -20 10 -20 6 0 10 -9 10 -20 0 -11 5 -20 10 -20 6 0 10 -13
10 -30 0 -16 5 -30 10 -30 6 0 10 -9 10 -20 0 -11 5 -20 10 -20 6 0 10 -9 10
-20 0 -11 5 -20 10 -20 6 0 10 -13 10 -30 0 -16 5 -30 10 -30 6 0 10 -9 10
-20 0 -11 5 -20 10 -20 6 0 10 -13 10 -30 0 -16 5 -30 10 -30 6 0 10 -13 10
-30 0 -16 5 -30 10 -30 6 0 10 -18 10 -40 0 -22 5 -40 10 -40 6 0 10 -13 10
-30 0 -16 5 -30 10 -30 6 0 10 -22 10 -50 0 -27 5 -50 10 -50 6 0 10 -18 10
-40 0 -22 5 -40 10 -40 6 0 10 -27 10 -60 0 -33 4 -60 10 -60 6 0 10 -33 10
-80 0 -47 4 -80 10 -80 6 0 10 -113 10 -320 0 -207 -4 -320 -10 -320 -6 0 -10
-33 -10 -80 0 -47 -4 -80 -10 -80 -6 0 -10 -27 -10 -60 0 -33 -4 -60 -10 -60
-5 0 -10 -22 -10 -50 0 -27 -4 -50 -10 -50 -5 0 -10 -18 -10 -40 0 -22 -4 -40
-10 -40 -5 0 -10 -13 -10 -30 0 -16 -4 -30 -10 -30 -5 0 -10 -18 -10 -40 0
-22 -4 -40 -10 -40 -5 0 -10 -13 -10 -30 0 -16 -4 -30 -10 -30 -5 0 -10 -13
-10 -30 0 -16 -4 -30 -10 -30 -5 0 -10 -9 -10 -20 0 -11 -4 -20 -10 -20 -5 0
-10 -13 -10 -30 0 -16 -4 -30 -10 -30 -5 0 -10 -9 -10 -20 0 -11 -4 -20 -10
-20 -5 0 -10 -9 -10 -20 0 -11 -4 -20 -10 -20 -5 0 -10 -13 -10 -30 0 -16 -4
-30 -10 -30 -5 0 -10 -9 -10 -20 0 -11 -4 -20 -10 -20 -5 0 -10 -9 -10 -20 0
-11 -4 -20 -10 -20 -5 0 -10 -9 -10 -20 0 -11 -4 -20 -10 -20 -5 0 -10 -8 -10
-18 0 -10 -9 -24 -20 -32 -11 -8 -20 -22 -20 -32 0 -10 -4 -18 -10 -18 -5 0
-10 -8 -10 -18 0 -10 -9 -24 -20 -32 -11 -8 -20 -21 -20 -30 0 -9 -9 -22 -20
-30 -11 -8 -20 -21 -20 -30 0 -9 -9 -22 -20 -30 -11 -8 -20 -21 -20 -30 0 -9
-9 -22 -20 -30 -11 -8 -20 -21 -20 -28 0 -8 -13 -27 -30 -42 -16 -15 -30 -33
-30 -40 0 -6 -23 -33 -50 -60 -27 -27 -50 -54 -50 -59 0 -14 -347 -361 -361
-361 -5 0 -32 -22 -59 -50 -27 -27 -54 -50 -60 -50 -7 0 -25 -13 -40 -30 -15
-16 -33 -30 -40 -30 -7 0 -25 -13 -40 -30 -15 -16 -34 -30 -42 -30 -7 0 -20
-9 -28 -20 -8 -11 -22 -20 -32 -20 -10 0 -18 -4 -18 -10 0 -5 -8 -10 -18 -10
-10 0 -24 -9 -32 -20 -8 -11 -22 -20 -32 -20 -10 0 -18 -4 -18 -10 0 -5 -8
-10 -18 -10 -10 0 -24 -9 -32 -20 -8 -11 -22 -20 -32 -20 -10 0 -18 -4 -18
-10 0 -5 -9 -10 -20 -10 -11 0 -20 -4 -20 -10 0 -5 -9 -10 -20 -10 -11 0 -20
-4 -20 -10 0 -5 -9 -10 -20 -10 -11 0 -20 -4 -20 -10 0 -5 -9 -10 -20 -10 -11
0 -20 -4 -20 -10 0 -5 -13 -10 -30 -10 -16 0 -30 -4 -30 -10 0 -5 -9 -10 -20
-10 -11 0 -20 -4 -20 -10 0 -5 -13 -10 -30 -10 -16 0 -30 -4 -30 -10 0 -5 -9
-10 -20 -10 -11 0 -20 -4 -20 -10 0 -5 -13 -10 -30 -10 -16 0 -30 -4 -30 -10
0 -5 -13 -10 -30 -10 -16 0 -30 -4 -30 -10 0 -5 -13 -10 -30 -10 -16 0 -30 -4
-30 -10 0 -5 -18 -10 -40 -10 -22 0 -40 -4 -40 -10 0 -5 -18 -10 -40 -10 -22
0 -40 -4 -40 -10 0 -5 -22 -10 -50 -10 -27 0 -50 -4 -50 -10 0 -6 -27 -10 -60
-10 -33 0 -60 -4 -60 -10 0 -6 -30 -10 -70 -10 -40 0 -70 -4 -70 -10 0 -6
-120 -10 -340 -10 -220 0 -340 4 -340 10 0 6 -33 10 -80 10 -47 0 -80 4 -80
10 0 6 -27 10 -60 10 -33 0 -60 4 -60 10 0 6 -18 10 -40 10 -22 0 -40 5 -40
10 0 6 -22 10 -50 10 -27 0 -50 5 -50 10 0 6 -13 10 -30 10 -16 0 -30 5 -30
10 0 6 -13 10 -30 10 -16 0 -30 5 -30 10 0 6 -18 10 -40 10 -22 0 -40 5 -40
10 0 6 -9 10 -20 10 -11 0 -20 5 -20 10 0 6 -13 10 -30 10 -16 0 -30 5 -30 10
0 6 -13 10 -30 10 -16 0 -30 5 -30 10 0 6 -9 10 -20 10 -11 0 -20 5 -20 10 0
6 -9 10 -20 10 -11 0 -20 5 -20 10 0 6 -9 10 -20 10 -11 0 -20 5 -20 10 0 6
-9 10 -20 10 -11 0 -20 5 -20 10 0 6 -9 10 -20 10 -11 0 -20 5 -20 10 0 6 -9
10 -20 10 -11 0 -20 5 -20 10 0 6 -9 10 -20 10 -11 0 -20 5 -20 10 0 6 -9 10
-20 10 -11 0 -20 5 -20 10 0 6 -8 10 -18 10 -10 0 -24 9 -32 20 -8 11 -22 20
-32 20 -10 0 -18 5 -18 10 0 6 -8 10 -18 10 -10 0 -24 9 -32 20 -8 11 -21 20
-30 20 -9 0 -22 9 -30 20 -8 11 -21 20 -28 20 -8 0 -27 14 -42 30 -15 17 -33
30 -40 30 -7 0 -25 14 -40 30 -15 17 -33 30 -40 30 -6 0 -38 27 -70 60 -32 33
-64 60 -70 60 -13 0 -260 247 -260 260 0 6 -27 38 -60 70 -33 32 -60 64 -60
70 0 6 -18 29 -40 50 -22 21 -40 45 -40 52 0 7 -9 20 -20 28 -11 8 -20 21 -20
30 0 9 -9 22 -20 30 -11 8 -20 21 -20 30 0 9 -9 22 -20 30 -11 8 -20 21 -20
30 0 9 -9 22 -20 30 -11 8 -20 22 -20 32 0 10 -4 18 -10 18 -5 0 -10 8 -10 18
0 10 -9 24 -20 32 -11 8 -20 22 -20 32 0 10 -4 18 -10 18 -5 0 -10 9 -10 20 0
11 -4 20 -10 20 -5 0 -10 9 -10 20 0 11 -4 20 -10 20 -5 0 -10 9 -10 20 0 11
-4 20 -10 20 -5 0 -10 9 -10 20 0 11 -4 20 -10 20 -5 0 -10 9 -10 20 0 11 -4
20 -10 20 -5 0 -10 14 -10 30 0 17 -4 30 -10 30 -5 0 -10 9 -10 20 0 11 -4 20
-10 20 -5 0 -10 14 -10 30 0 17 -4 30 -10 30 -5 0 -10 9 -10 20 0 11 -4 20
-10 20 -5 0 -10 14 -10 30 0 17 -4 30 -10 30 -5 0 -10 18 -10 40 0 22 -4 40
-10 40 -5 0 -10 14 -10 30 0 17 -4 30 -10 30 -5 0 -10 18 -10 40 0 22 -4 40
-10 40 -5 0 -10 18 -10 40 0 22 -4 40 -10 40 -5 0 -10 23 -10 50 0 28 -4 50
-10 50 -6 0 -10 30 -10 70 0 40 -4 70 -10 70 -6 0 -10 40 -10 100 0 60 -4 100
-10 100 -6 0 -10 80 -10 220 0 140 4 220 10 220 6 0 10 40 10 100 0 60 4 100
10 100 6 0 10 27 10 60 0 33 4 60 10 60 6 0 10 27 10 60 0 33 4 60 10 60 6 0
10 18 10 40 0 22 5 40 10 40 6 0 10 18 10 40 0 22 5 40 10 40 6 0 10 14 10 30
0 17 5 30 10 30 6 0 10 18 10 40 0 22 5 40 10 40 6 0 10 14 10 30 0 17 5 30
10 30 6 0 10 9 10 20 0 11 5 20 10 20 6 0 10 14 10 30 0 17 5 30 10 30 6 0 10
9 10 20 0 11 5 20 10 20 6 0 10 14 10 30 0 17 5 30 10 30 6 0 10 9 10 20 0 11
5 20 10 20 6 0 10 9 10 20 0 11 5 20 10 20 6 0 10 9 10 20 0 11 5 20 10 20 6
0 10 9 10 20 0 11 5 20 10 20 6 0 10 9 10 20 0 11 5 20 10 20 6 0 10 8 10 18
0 10 9 24 20 32 11 8 20 22 20 32 0 10 5 18 10 18 6 0 10 8 10 18 0 10 9 24
20 32 11 8 20 21 20 30 0 9 9 22 20 30 11 8 20 21 20 30 0 9 9 22 20 30 11 8
20 21 20 30 0 9 9 22 20 30 11 8 20 21 20 28 0 7 18 31 40 52 22 21 40 44 40
50 0 6 27 38 60 70 33 32 60 64 60 70 0 13 247 260 260 260 6 0 38 27 70 60
32 33 64 60 70 60 7 0 25 14 40 30 15 17 33 30 40 30 7 0 25 14 40 30 15 17
34 30 42 30 7 0 20 9 28 20 8 11 21 20 30 20 9 0 22 9 30 20 8 11 21 20 30 20
9 0 22 9 30 20 8 11 22 20 32 20 10 0 18 5 18 10 0 6 9 10 20 10 11 0 20 5 20
10 0 6 8 10 18 10 10 0 24 9 32 20 8 11 22 20 32 20 10 0 18 5 18 10 0 6 9 10
20 10 11 0 20 5 20 10 0 6 9 10 20 10 11 0 20 5 20 10 0 6 14 10 30 10 17 0
30 5 30 10 0 6 9 10 20 10 11 0 20 5 20 10 0 6 9 10 20 10 11 0 20 5 20 10 0
6 14 10 30 10 17 0 30 5 30 10 0 6 9 10 20 10 11 0 20 5 20 10 0 6 14 10 30
10 17 0 30 5 30 10 0 6 14 10 30 10 17 0 30 5 30 10 0 6 14 10 30 10 17 0 30
5 30 10 0 6 18 10 40 10 22 0 40 5 40 10 0 6 18 10 40 10 22 0 40 5 40 10 0 6
23 10 50 10 28 0 50 5 50 10 0 6 23 10 50 10 28 0 50 5 50 10 0 6 33 10 80 10
47 0 80 4 80 10 0 6 127 10 360 10 233 0 360 -4 360 -10z"/>
<path d="M2430 5470 c0 -5 -22 -10 -50 -10 -27 0 -50 -4 -50 -10 0 -5 -13 -10
-30 -10 -16 0 -30 -4 -30 -10 0 -5 -9 -10 -20 -10 -11 0 -20 -4 -20 -10 0 -5
-8 -10 -18 -10 -10 0 -24 -9 -32 -20 -8 -11 -20 -20 -27 -20 -19 0 -163 -146
-163 -165 0 -8 -4 -15 -10 -15 -5 0 -10 -9 -10 -20 0 -11 -4 -20 -10 -20 -5 0
-10 -9 -10 -20 0 -11 -4 -20 -10 -20 -5 0 -10 -9 -10 -20 0 -11 -4 -20 -10
-20 -5 0 -10 -18 -10 -40 0 -22 -4 -40 -10 -40 -6 0 -10 -60 -10 -160 0 -100
4 -160 10 -160 6 0 10 -13 10 -30 0 -16 5 -30 10 -30 6 0 10 -13 10 -30 0 -16
5 -30 10 -30 6 0 10 -9 10 -20 0 -11 5 -20 10 -20 6 0 10 -7 10 -16 0 -9 14
-29 30 -44 17 -15 30 -33 30 -39 0 -16 87 -101 103 -101 7 0 19 -9 27 -20 8
-11 22 -20 32 -20 10 0 18 -4 18 -10 0 -5 9 -10 20 -10 11 0 20 -4 20 -10 0
-5 9 -10 20 -10 11 0 20 -4 20 -10 0 -5 18 -10 40 -10 22 0 40 -4 40 -10 0 -6
63 -10 170 -10 107 0 170 4 170 10 0 6 18 10 40 10 22 0 40 5 40 10 0 6 9 10
20 10 11 0 20 5 20 10 0 6 9 10 20 10 11 0 20 5 20 10 0 6 8 10 18 10 10 0 24
9 32 20 8 11 20 20 27 20 17 0 123 106 123 123 0 7 9 19 20 27 11 8 20 22 20
32 0 10 5 18 10 18 6 0 10 9 10 20 0 11 5 20 10 20 6 0 10 9 10 20 0 11 5 20
10 20 6 0 10 18 10 40 0 22 5 40 10 40 6 0 10 63 10 170 0 107 -4 170 -10 170
-5 0 -10 14 -10 30 0 17 -4 30 -10 30 -5 0 -10 14 -10 30 0 17 -4 30 -10 30
-5 0 -10 8 -10 18 0 10 -9 24 -20 32 -11 8 -20 20 -20 27 0 19 -166 183 -185
183 -8 0 -15 5 -15 10 0 6 -9 10 -20 10 -11 0 -20 5 -20 10 0 6 -9 10 -20 10
-11 0 -20 5 -20 10 0 6 -13 10 -30 10 -16 0 -30 5 -30 10 0 6 -22 10 -50 10
-27 0 -50 5 -50 10 0 6 -43 10 -110 10 -67 0 -110 -4 -110 -10z"/>
<path d="M4710 5470 c0 -5 -18 -10 -40 -10 -22 0 -40 -4 -40 -10 0 -5 -13 -10
-30 -10 -16 0 -30 -4 -30 -10 0 -5 -13 -10 -28 -10 -16 0 -34 -8 -42 -20 -8
-11 -21 -20 -30 -20 -9 0 -22 -9 -30 -20 -8 -11 -20 -20 -27 -20 -16 0 -103
-85 -103 -101 0 -6 -13 -24 -30 -39 -16 -15 -30 -35 -30 -44 0 -9 -4 -16 -10
-16 -5 0 -10 -9 -10 -20 0 -11 -4 -20 -10 -20 -5 0 -10 -13 -10 -30 0 -16 -4
-30 -10 -30 -5 0 -10 -18 -10 -40 0 -22 -4 -40 -10 -40 -6 0 -10 -50 -10 -130
0 -80 4 -130 10 -130 6 0 10 -22 10 -50 0 -27 5 -50 10 -50 6 0 10 -9 10 -20
0 -11 5 -20 10 -20 6 0 10 -9 10 -20 0 -11 5 -20 10 -20 6 0 10 -9 10 -20 0
-11 5 -20 10 -20 6 0 10 -7 10 -15 0 -19 164 -185 183 -185 7 0 19 -9 27 -20
8 -11 22 -20 32 -20 10 0 18 -4 18 -10 0 -5 14 -10 30 -10 17 0 30 -4 30 -10
0 -5 14 -10 30 -10 17 0 30 -4 30 -10 0 -6 67 -10 180 -10 113 0 180 4 180 10
0 6 14 10 30 10 17 0 30 5 30 10 0 6 14 10 30 10 17 0 30 5 30 10 0 6 8 10 18
10 10 0 24 9 32 20 8 11 20 20 27 20 17 0 163 146 163 163 0 7 9 19 20 27 11
8 20 22 20 32 0 10 5 18 10 18 6 0 10 14 10 30 0 17 5 30 10 30 6 0 10 14 10
30 0 17 5 30 10 30 6 0 10 27 10 60 0 33 4 60 10 60 6 0 10 27 10 60 0 33 -4
60 -10 60 -6 0 -10 27 -10 60 0 33 -4 60 -10 60 -5 0 -10 18 -10 40 0 22 -4
40 -10 40 -5 0 -10 9 -10 20 0 11 -4 20 -10 20 -5 0 -10 9 -10 20 0 11 -4 20
-10 20 -5 0 -10 7 -10 16 0 8 -18 33 -40 54 -22 21 -40 46 -40 54 0 9 -7 16
-16 16 -8 0 -33 18 -54 40 -21 22 -46 40 -54 40 -9 0 -16 5 -16 10 0 6 -9 10
-20 10 -11 0 -20 5 -20 10 0 6 -9 10 -20 10 -11 0 -20 5 -20 10 0 6 -13 10
-30 10 -16 0 -30 5 -30 10 0 6 -18 10 -40 10 -22 0 -40 5 -40 10 0 6 -47 10
-120 10 -73 0 -120 -4 -120 -10z"/>
<path d="M3390 3950 c0 -6 -33 -10 -80 -10 -47 0 -80 -4 -80 -10 0 -5 -22 -10
-50 -10 -27 0 -50 -4 -50 -10 0 -5 -18 -10 -40 -10 -22 0 -40 -4 -40 -10 0 -5
-18 -10 -40 -10 -22 0 -40 -4 -40 -10 0 -5 -13 -10 -30 -10 -16 0 -30 -4 -30
-10 0 -5 -13 -10 -30 -10 -16 0 -30 -4 -30 -10 0 -5 -13 -10 -30 -10 -16 0
-30 -4 -30 -10 0 -5 -9 -10 -20 -10 -11 0 -20 -4 -20 -10 0 -5 -9 -10 -20 -10
-11 0 -20 -4 -20 -10 0 -5 -9 -10 -20 -10 -11 0 -20 -4 -20 -10 0 -5 -9 -10
-20 -10 -11 0 -20 -4 -20 -10 0 -5 -9 -10 -20 -10 -11 0 -20 -4 -20 -10 0 -5
-9 -10 -20 -10 -11 0 -20 -4 -20 -10 0 -5 -8 -10 -18 -10 -10 0 -24 -9 -32
-20 -8 -11 -21 -20 -30 -20 -9 0 -22 -9 -30 -20 -8 -11 -21 -20 -28 -20 -8 0
-27 -13 -42 -30 -15 -16 -33 -30 -40 -30 -6 0 -38 -27 -70 -60 -32 -33 -64
-60 -70 -60 -14 0 -80 -66 -80 -80 0 -6 -27 -38 -60 -70 -33 -32 -60 -64 -60
-70 0 -7 -13 -25 -30 -40 -16 -15 -30 -34 -30 -42 0 -7 -9 -20 -20 -28 -11 -8
-20 -21 -20 -30 0 -9 -9 -22 -20 -30 -11 -8 -20 -22 -20 -32 0 -10 -4 -18 -10
-18 -5 0 -10 -8 -10 -18 0 -10 -9 -24 -20 -32 -11 -8 -20 -22 -20 -32 0 -10
-4 -18 -10 -18 -5 0 -10 -9 -10 -20 0 -11 -4 -20 -10 -20 -5 0 -10 -9 -10 -20
0 -11 -4 -20 -10 -20 -5 0 -10 -9 -10 -20 0 -11 -4 -20 -10 -20 -5 0 -10 -13
-10 -30 0 -16 -4 -30 -10 -30 -5 0 -10 -9 -10 -20 0 -11 -4 -20 -10 -20 -5 0
-10 -13 -10 -30 0 -16 -4 -30 -10 -30 -5 0 -10 -9 -10 -20 0 -11 -4 -20 -10
-20 -5 0 -10 -13 -10 -30 0 -16 -4 -30 -10 -30 -5 0 -10 -18 -10 -40 0 -22 -4
-40 -10 -40 -5 0 -10 -13 -10 -30 0 -16 -4 -30 -10 -30 -5 0 -10 -18 -10 -40
0 -22 -4 -40 -10 -40 -5 0 -10 -22 -10 -50 0 -27 -4 -50 -10 -50 -5 0 -10 -22
-10 -50 0 -27 -4 -50 -10 -50 -6 0 -10 -30 -10 -70 0 -40 -4 -70 -10 -70 -6 0
-10 -30 -10 -70 0 -40 4 -70 10 -70 6 0 10 -9 10 -20 0 -13 7 -20 20 -20 11 0
20 -4 20 -10 0 -6 62 -10 165 -10 l166 0 34 35 c27 26 35 43 35 70 0 19 5 35
10 35 6 0 10 18 10 40 0 22 5 40 10 40 6 0 10 14 10 30 0 17 5 30 10 30 6 0
10 14 10 30 0 17 5 30 10 30 6 0 10 14 10 30 0 17 5 30 10 30 6 0 10 9 10 20
0 11 5 20 10 20 6 0 10 14 10 30 0 17 5 30 10 30 6 0 10 9 10 20 0 11 5 20 10
20 6 0 10 9 10 20 0 11 5 20 10 20 6 0 10 9 10 20 0 11 5 20 10 20 6 0 10 9
10 20 0 11 5 20 10 20 6 0 10 8 10 18 0 10 9 24 20 32 11 8 20 22 20 32 0 10
5 18 10 18 6 0 10 7 10 16 0 9 14 29 30 44 17 15 30 33 30 40 0 6 18 29 40 50
22 21 40 43 40 49 0 15 126 141 141 141 6 0 28 18 49 40 21 22 45 40 52 40 7
0 20 9 28 20 8 11 22 20 32 20 10 0 18 5 18 10 0 6 8 10 18 10 10 0 24 9 32
20 8 11 22 20 32 20 10 0 18 5 18 10 0 6 9 10 20 10 11 0 20 5 20 10 0 6 9 10
20 10 11 0 20 5 20 10 0 6 14 10 30 10 17 0 30 5 30 10 0 6 9 10 20 10 11 0
20 5 20 10 0 6 14 10 30 10 17 0 30 5 30 10 0 6 14 10 30 10 17 0 30 5 30 10
0 6 18 10 40 10 22 0 40 5 40 10 0 6 23 10 50 10 28 0 50 5 50 10 0 6 30 10
70 10 40 0 70 4 70 10 0 6 97 10 270 10 173 0 270 -4 270 -10 0 -6 30 -10 70
-10 40 0 70 -4 70 -10 0 -5 23 -10 50 -10 28 0 50 -4 50 -10 0 -5 18 -10 40
-10 22 0 40 -4 40 -10 0 -5 14 -10 30 -10 17 0 30 -4 30 -10 0 -5 14 -10 30
-10 17 0 30 -4 30 -10 0 -5 14 -10 30 -10 17 0 30 -4 30 -10 0 -5 9 -10 20
-10 11 0 20 -4 20 -10 0 -5 9 -10 20 -10 11 0 20 -4 20 -10 0 -5 9 -10 20 -10
11 0 20 -4 20 -10 0 -5 9 -10 20 -10 11 0 20 -4 20 -10 0 -5 9 -10 20 -10 11
0 20 -4 20 -10 0 -5 8 -10 18 -10 10 0 24 -9 32 -20 8 -11 21 -20 28 -20 8 0
27 -13 42 -30 15 -16 33 -30 39 -30 15 0 241 -226 241 -241 0 -6 14 -24 30
-39 17 -15 30 -34 30 -42 0 -7 9 -20 20 -28 11 -8 20 -22 20 -32 0 -10 5 -18
10 -18 6 0 10 -8 10 -18 0 -10 9 -24 20 -32 11 -8 20 -22 20 -32 0 -10 5 -18
10 -18 6 0 10 -9 10 -20 0 -11 5 -20 10 -20 6 0 10 -9 10 -20 0 -11 5 -20 10
-20 6 0 10 -9 10 -20 0 -11 5 -20 10 -20 6 0 10 -13 10 -30 0 -16 5 -30 10
-30 6 0 10 -9 10 -20 0 -11 5 -20 10 -20 6 0 10 -13 10 -30 0 -16 5 -30 10
-30 6 0 10 -13 10 -30 0 -16 5 -30 10 -30 6 0 10 -13 10 -30 0 -16 5 -30 10
-30 6 0 10 -13 10 -30 0 -16 5 -30 10 -30 6 0 10 -18 10 -40 0 -22 5 -40 10
-40 6 0 10 -12 10 -26 0 -29 21 -54 44 -54 9 0 16 -4 16 -10 0 -6 62 -10 165
-10 163 0 166 0 190 25 24 23 25 30 25 140 0 70 -4 115 -10 115 -6 0 -10 27
-10 60 0 33 -4 60 -10 60 -5 0 -10 23 -10 50 0 28 -4 50 -10 50 -5 0 -10 18
-10 40 0 22 -4 40 -10 40 -5 0 -10 18 -10 40 0 22 -4 40 -10 40 -5 0 -10 14
-10 30 0 17 -4 30 -10 30 -5 0 -10 14 -10 30 0 17 -4 30 -10 30 -5 0 -10 14
-10 30 0 17 -4 30 -10 30 -5 0 -10 9 -10 20 0 11 -4 20 -10 20 -5 0 -10 14
-10 30 0 17 -4 30 -10 30 -5 0 -10 9 -10 20 0 11 -4 20 -10 20 -5 0 -10 14
-10 30 0 17 -4 30 -10 30 -5 0 -10 9 -10 20 0 11 -4 20 -10 20 -5 0 -10 9 -10
20 0 11 -4 20 -10 20 -5 0 -10 8 -10 18 0 10 -9 24 -20 32 -11 8 -20 22 -20
32 0 10 -4 18 -10 18 -5 0 -10 8 -10 18 0 10 -9 24 -20 32 -11 8 -20 21 -20
30 0 9 -9 22 -20 30 -11 8 -20 21 -20 30 0 9 -9 22 -20 30 -11 8 -20 21 -20
28 0 7 -18 31 -40 52 -22 21 -40 43 -40 49 0 15 -186 201 -201 201 -5 0 -32
23 -59 50 -27 28 -54 50 -60 50 -7 0 -25 14 -40 30 -15 17 -34 30 -42 30 -7 0
-20 9 -28 20 -8 11 -22 20 -32 20 -10 0 -18 5 -18 10 0 6 -9 10 -20 10 -11 0
-20 5 -20 10 0 6 -8 10 -18 10 -10 0 -24 9 -32 20 -8 11 -22 20 -32 20 -10 0
-18 5 -18 10 0 6 -9 10 -20 10 -11 0 -20 5 -20 10 0 6 -13 10 -30 10 -16 0
-30 5 -30 10 0 6 -9 10 -20 10 -11 0 -20 5 -20 10 0 6 -13 10 -30 10 -16 0
-30 5 -30 10 0 6 -13 10 -30 10 -16 0 -30 5 -30 10 0 6 -13 10 -30 10 -16 0
-30 5 -30 10 0 6 -13 10 -30 10 -16 0 -30 5 -30 10 0 6 -22 10 -50 10 -27 0
-50 5 -50 10 0 6 -22 10 -50 10 -27 0 -50 5 -50 10 0 6 -33 10 -80 10 -47 0
-80 4 -80 10 0 6 -103 10 -290 10 -187 0 -290 -4 -290 -10z"/>
</g>
</svg>
