<?xml version="1.0" standalone="no"?>
<!DOCTYPE svg PUBLIC "-//W3C//DTD SVG 20010904//EN"
 "http://www.w3.org/TR/2001/REC-SVG-20010904/DTD/svg10.dtd">
<svg version="1.0" xmlns="http://www.w3.org/2000/svg"
 width="25.000000pt" height="25.000000pt" viewBox="0 0 512.000000 512.000000"
 preserveAspectRatio="xMidYMid meet">
<metadata>
Created by potrace 1.15, written by Peter Selinger 2001-2017
</metadata>
<g transform="translate(0.000000,512.000000) scale(0.100000,-0.100000)"
fill="#000000" stroke="none">
<path d="M2315 4794 c-395 -56 -700 -167 -995 -361 -585 -387 -964 -1042 -998
-1730 -22 -430 50 -788 234 -1155 113 -225 256 -420 441 -598 125 -122 172
-160 311 -254 199 -135 447 -247 676 -306 225 -59 278 -65 576 -65 298 0 351
6 576 65 287 74 614 239 839 423 81 67 242 226 310 308 202 240 367 561 445
863 59 225 65 278 65 576 0 298 -6 351 -65 576 -78 302 -243 623 -445 863 -68
82 -229 241 -310 308 -217 177 -543 344 -818 418 -208 57 -296 67 -562 70
-137 2 -263 1 -280 -1z m518 -340 c570 -83 1075 -424 1378 -929 115 -193 209
-459 243 -692 21 -146 21 -400 0 -546 -83 -570 -424 -1075 -929 -1378 -193
-115 -459 -209 -692 -243 -146 -21 -400 -21 -546 0 -570 83 -1075 424 -1378
929 -115 193 -209 459 -243 692 -21 146 -21 400 0 546 83 570 424 1075 929
1378 187 112 461 209 685 243 134 20 415 20 553 0z"/>
<path d="M1813 3659 c-86 -43 -168 -164 -199 -295 -19 -85 -19 -244 1 -329 30
-132 111 -252 198 -294 59 -29 155 -29 214 0 86 41 167 161 198 291 19 81 19
255 0 336 -30 128 -113 250 -199 292 -58 28 -156 27 -213 -1z"/>
<path d="M3093 3659 c-86 -43 -168 -164 -199 -295 -19 -85 -19 -244 1 -329 30
-132 111 -252 198 -294 59 -29 155 -29 214 0 86 41 167 161 198 291 19 81 19
255 0 336 -30 128 -113 250 -199 292 -58 28 -156 27 -213 -1z"/>
<path d="M1227 2396 c-111 -41 -134 -129 -77 -291 124 -350 399 -659 739 -830
119 -59 298 -119 420 -139 125 -21 377 -21 502 0 521 87 984 474 1159 969 35
100 40 166 16 212 -34 67 -115 102 -188 82 -60 -16 -101 -61 -128 -144 -29
-89 -89 -210 -149 -300 -63 -96 -209 -239 -311 -307 -211 -139 -405 -198 -650
-198 -245 0 -439 59 -650 198 -102 68 -248 211 -311 307 -59 89 -120 211 -148
297 -12 37 -31 79 -43 93 -40 52 -119 74 -181 51z"/>
</g>
</svg>
