<?xml version="1.0" ?><!-- Created with Inkscape (http://www.inkscape.org/) --><!DOCTYPE svg  PUBLIC '-//W3C//DTD SVG 1.1//EN'  'http://www.w3.org/Graphics/SVG/1.1/DTD/svg11.dtd' [
	<!ENTITY stroke_color "#000000">
	<!ENTITY fill_color "#f9f9f9">
]><svg height="55" id="Layer_1" version="1.1" viewBox="0 0 55 55" width="55" xml:space="preserve" xmlns="http://www.w3.org/2000/svg" xmlns:cc="http://creativecommons.org/ns#" xmlns:dc="http://purl.org/dc/elements/1.1/" xmlns:rdf="http://www.w3.org/1999/02/22-rdf-syntax-ns#" xmlns:svg="http://www.w3.org/2000/svg"><metadata id="metadata36"><rdf:RDF><cc:Work rdf:about=""><dc:format>image/svg+xml</dc:format><dc:type rdf:resource="http://purl.org/dc/dcmitype/StillImage"/><dc:title/></cc:Work></rdf:RDF></metadata><defs id="defs34"/><g id="document-save" style="fill:&fill_color;;stroke:&stroke_color;;display:block"><g id="g4" style="fill:&fill_color;;stroke:&stroke_color;"><g id="g6" style="fill:&fill_color;;stroke:&stroke_color;"><g id="g8" style="fill:&fill_color;;stroke:&stroke_color;"/></g><g id="g12" style="fill:&fill_color;;stroke:&stroke_color;"><g id="g14" style="fill:&fill_color;;stroke:&stroke_color;"/></g><g id="g3076" style="fill:&fill_color;;stroke:&stroke_color;"><path d="m 6.736,49.002 h 24.52 c 2.225,0 3.439,-1.447 3.439,-3.441 v -27.28 c 0,-1.73 -1.732,-3.441 -3.439,-3.441 h -4.389" id="path10" style="fill:&fill_color;;stroke:&stroke_color;;stroke-width:3.5;stroke-miterlimit:4;stroke-dasharray:none"/><g id="g3071" style="fill:&fill_color;;stroke:&stroke_color;"><path d="m 26.867,38.592 c 0,1.836 -1.345,3.201 -3.441,4.047 L 6.736,49.002 V 14.84 l 16.69,-8.599 c 2.228,-0.394 3.441,0.84 3.441,2.834 v 29.517 z" id="path16" style="fill:&fill_color;;stroke:&stroke_color;;stroke-width:3.5;stroke-linecap:round;stroke-linejoin:round;stroke-miterlimit:4;stroke-dasharray:none"/><line id="line24" style="fill:&stroke_color;;stroke:&stroke_color;;stroke-width:2.5;stroke-linecap:round;stroke-linejoin:round;stroke-miterlimit:4;stroke-dasharray:none" x1="13.209" x2="13.209" y1="46.533001" y2="11.505"/></g><path d="m 9.424,42.607 c 0,0 -1.351,-0.543 -2.702,-0.543 -1.351,0 -2.703,0.543 -2.703,0.543" id="path18" style="fill:&fill_color;;stroke:&stroke_color;;stroke-width:2.5;stroke-linecap:round;stroke-linejoin:round;stroke-miterlimit:4;stroke-dasharray:none"/><path d="m 9.424,32.006 c 0,0 -1.239,-0.543 -2.815,-0.543 -1.577,0 -2.59,0.543 -2.59,0.543" id="path20" style="fill:&fill_color;;stroke:&stroke_color;;stroke-width:2.5;stroke-linecap:round;stroke-linejoin:round;stroke-miterlimit:4;stroke-dasharray:none"/><path d="m 9.424,21.678 c 0,0 -1.125,-0.544 -2.927,-0.544 -1.802,0 -2.478,0.544 -2.478,0.544" id="path22" style="fill:&fill_color;;stroke:&stroke_color;;stroke-width:2.5;stroke-linecap:round;stroke-linejoin:round;stroke-miterlimit:4;stroke-dasharray:none"/></g><g id="g26" style="fill:&fill_color;;stroke:&stroke_color;"><line id="line28" style="fill:none;stroke:#ffffff;stroke-width:3.5;stroke-linecap:round;stroke-linejoin:round" x1="52.441002" x2="41.169998" y1="4.9170003" y2="16.188"/><polyline id="polyline30" points="     51.562,15.306 41.17,16.188 42.053,5.794    " style="fill:none;stroke:#ffffff;stroke-width:3.5;stroke-linecap:round;stroke-linejoin:round" transform="matrix(-1,0,0,-1,93.611,21.105)"/></g></g></g></svg>