<?xml version="1.0" encoding="UTF-8" standalone="no"?>
<svg
   xmlns:dc="http://purl.org/dc/elements/1.1/"
   xmlns:cc="http://creativecommons.org/ns#"
   xmlns:rdf="http://www.w3.org/1999/02/22-rdf-syntax-ns#"
   xmlns:svg="http://www.w3.org/2000/svg"
   xmlns="http://www.w3.org/2000/svg"
   id="svg4211"
   y="0px"
   xml:space="preserve"
   x="0px"
   width="55px"
   viewBox="0 0 55 55"
   version="1.1"
   height="55px"
   enable-background="new 0 0 55 55"><metadata
     id="metadata4228"><rdf:RDF><cc:Work
         rdf:about=""><dc:format>image/svg+xml</dc:format><dc:type
           rdf:resource="http://purl.org/dc/dcmitype/StillImage" /><dc:title></dc:title></cc:Work></rdf:RDF></metadata><defs
     id="defs4226" /><path
     d="m 31.997583,15.28146 -12.287288,16.269324 -2.517254,3.275565 -4.189396,9.965338 c -0.05546,0.12538 -0.0217,0.268844 0.08318,0.355646 0.107296,0.0868 0.254377,0.101269 0.370113,0.02411 l 9.434881,-6.072514 c 0.01326,-0.0096 0.01326,-0.03255 0.02652,-0.05184 0.07836,-0.05907 0.171193,-0.110913 0.236294,-0.195304 0.0036,-0.0024 0.04099,-0.04943 0.04099,-0.05907 l 2.207419,-2.737875 6.593326,-8.504173 9.657915,-12.452452 c 0.02652,-0.02773 0.179631,-0.244733 0.179631,-0.244733 0.115736,-0.194099 0.178426,-0.415925 0.178426,-0.670303 0,-0.07354 0,-0.142259 -0.01446,-0.212182 -0.104885,-0.919861 -0.86199,-2.02779 -1.975947,-2.90907 -1.112752,-0.877664 -2.373791,-1.3538688 -3.288827,-1.2465718 -0.39302,0.05063 -0.951204,0.4520928 -0.951204,0.4520928 l -3.78432,5.014013 z"
     id="path4220"
     style="fill:#000000;fill-opacity:1;stroke:#ffffff;stroke-width:4.21953535;stroke-opacity:1" /></svg>