<?xml version="1.0" encoding="UTF-8" standalone="no"?>
<svg
   xmlns:dc="http://purl.org/dc/elements/1.1/"
   xmlns:cc="http://creativecommons.org/ns#"
   xmlns:rdf="http://www.w3.org/1999/02/22-rdf-syntax-ns#"
   xmlns:svg="http://www.w3.org/2000/svg"
   xmlns="http://www.w3.org/2000/svg"
   id="svg4195"
   xml:space="preserve"
   enable-background="new 0 0 100 100"
   viewBox="0 0 100 125"
   y="0px"
   x="0px"
   version="1.1"><metadata
     id="metadata4211"><rdf:RDF><cc:Work
         rdf:about=""><dc:format>image/svg+xml</dc:format><dc:type
           rdf:resource="http://purl.org/dc/dcmitype/StillImage" /><dc:title></dc:title></cc:Work></rdf:RDF></metadata><defs
     id="defs4209" /><g
     transform="translate(-7.181285,0.42504)"
     id="g4232"><path
       d="m 23.235,7.8169664 0,7.2688136 67.892569,0 0,-7.2688136 C 91.128837,6.2645275 89.863042,5 88.311871,5 L 26.053235,5 C 24.500796,5 23.235,6.2645275 23.235,7.8169664 l 0,0 z"
       id="path4197"
       style="clip-rule:evenodd;fill:#ffffff;fill-opacity:1;fill-rule:evenodd" /><path
       d="m 60.277918,63.765649 c -1.178281,-0.915736 -1.178281,-2.46437 0,-3.380106 5.56798,-4.326283 10.952051,-8.944281 15.263113,-14.606117 4.983279,-6.540791 8.528268,-14.460259 9.271511,-24.906245 l -55.259978,0 c 0.741975,10.444718 4.288232,18.364186 9.268974,24.906245 4.31233,5.661836 9.69767,10.278566 15.264381,14.606117 1.175744,0.913199 1.175744,2.46437 0,3.380106 -5.567979,4.325013 -10.952051,8.941743 -15.264381,14.604848 -4.980742,6.539522 -8.526999,14.460259 -9.268974,24.904973 l 55.259978,0 C 84.069299,92.832024 80.52431,84.911288 75.541031,78.370497 71.229969,72.707392 65.845898,68.090662 60.277918,63.765649 Z M 43.428121,42.271218 c -1.037496,-1.362189 -1.96972,-2.748476 -2.799209,-4.161399 l 33.10855,0 c -0.829489,1.412923 -1.761713,2.79921 -2.799209,4.161399 -3.859536,5.068257 -8.754031,9.27912 -13.755066,13.186853 -4.999767,-3.907733 -9.89553,-8.119865 -13.755066,-13.186853 z m -7.234568,55.214318 c 1.209989,-3.064292 3.556404,-5.84194 7.234568,-8.459778 3.859536,-2.747208 8.755299,-5.030206 13.755066,-7.148322 4.999767,2.118116 9.89553,4.401114 13.755066,7.148322 3.678164,2.61657 6.024579,5.395486 7.234568,8.459778 l -41.979268,0 z"
       id="path4199"
       style="clip-rule:evenodd;fill:#ffffff;fill-opacity:1;fill-rule:evenodd" /><path
       d="m 23.235,109.06414 0,7.26882 c 0,1.55117 1.265796,2.81696 2.816966,2.81696 l 62.258637,0 c 1.55117,0 2.816966,-1.26579 2.816966,-2.81696 l 0,-7.26882 -67.892569,0 z"
       id="path4201"
       style="clip-rule:evenodd;fill:#ffffff;fill-opacity:1;fill-rule:evenodd" /></g></svg>