<?xml version="1.0" encoding="UTF-8" standalone="no"?>
<!-- Created with Inkscape (http://www.inkscape.org/) -->

<svg
   xmlns:dc="http://purl.org/dc/elements/1.1/"
   xmlns:cc="http://creativecommons.org/ns#"
   xmlns:rdf="http://www.w3.org/1999/02/22-rdf-syntax-ns#"
   xmlns:svg="http://www.w3.org/2000/svg"
   xmlns="http://www.w3.org/2000/svg"
   version="1.1"
   width="55"
   height="55"
   viewBox="0 0 55 55"
   id="svg2"
   xml:space="preserve"><metadata
     id="metadata25"><rdf:RDF><cc:Work
         rdf:about=""><dc:format>image/svg+xml</dc:format><dc:type
           rdf:resource="http://purl.org/dc/dcmitype/StillImage" /><dc:title></dc:title></cc:Work></rdf:RDF></metadata><defs
     id="defs33">
	
	
	

  
  

  
   
   
   
   

	

		
		
		
		
		
		
		
		
		
	</defs><g
     transform="matrix(0.55205508,0,0,0.55205508,77.118464,18.235971)"
     id="g4382"><g
       transform="translate(-80.093659,12.220029)"
       id="g4308"
       style="fill:none;stroke:#ffffff;stroke-opacity:1">
			<g
   id="g4310"
   style="fill:none;stroke:#ffffff;stroke-opacity:1">
				<path
   d="m 6.736,49.002 h 24.52 c 2.225,0 3.439,-1.447 3.439,-3.441 v -27.28 c 0,-1.73 -1.732,-3.441 -3.439,-3.441 h -4.389"
   id="path4312"
   style="fill:none;stroke:#ffffff;stroke-width:3.5;stroke-linecap:round;stroke-linejoin:round;stroke-opacity:1" />
			</g>
		</g><g
       transform="translate(-80.093659,12.220029)"
       id="g4314"
       style="fill:none;stroke:#ffffff;stroke-opacity:1">
			<g
   id="g4316"
   style="fill:none;stroke:#ffffff;stroke-opacity:1">
				<path
   d="m 26.867,38.592 c 0,1.836 -1.345,3.201 -3.441,4.047 L 6.736,49.002 V 14.84 l 16.69,-8.599 c 2.228,-0.394 3.441,0.84 3.441,2.834 v 29.517 z"
   id="path4318"
   style="fill:none;stroke:#ffffff;stroke-width:3.5;stroke-linecap:round;stroke-linejoin:round;stroke-opacity:1" />
			</g>
		</g><path
       d="m -70.669659,54.827029 c 0,0 -1.351,-0.543 -2.702,-0.543 -1.351,0 -2.703,0.543 -2.703,0.543"
       id="path4320"
       style="fill:none;stroke:#ffffff;stroke-width:2.25;stroke-linecap:round;stroke-linejoin:round;stroke-opacity:1" /><path
       d="m -70.669659,44.226029 c 0,0 -1.239,-0.543 -2.815,-0.543 -1.577,0 -2.59,0.543 -2.59,0.543"
       id="path4322"
       style="fill:none;stroke:#ffffff;stroke-width:2.25;stroke-linecap:round;stroke-linejoin:round;stroke-opacity:1" /><path
       d="m -70.669659,33.898029 c 0,0 -1.125,-0.544 -2.927,-0.544 -1.802,0 -2.478,0.544 -2.478,0.544"
       id="path4324"
       style="fill:none;stroke:#ffffff;stroke-width:2.25;stroke-linecap:round;stroke-linejoin:round;stroke-opacity:1" /><line
       style="fill:none;stroke:#ffffff;stroke-width:2.25;stroke-linecap:round;stroke-linejoin:round;stroke-opacity:1"
       x1="-66.884659"
       x2="-66.884659"
       y1="58.753029"
       y2="23.725029"
       id="line4326" /></g><g
     transform="matrix(1.1623273,0,0,1.1623273,-14.422024,-12.63995)"
     id="g3882"
     style="fill:none;stroke:#ffffff;stroke-width:2.15085721;stroke-miterlimit:4;stroke-opacity:1;stroke-dasharray:none;display:inline"><g
       id="g3884"
       style="fill:none;stroke:#ffffff;stroke-width:2.15085721;stroke-miterlimit:4;stroke-opacity:1;stroke-dasharray:none"><polygon
         points="43.041,21.577 35.281,13.812 15.204,13.812 15.204,35.189 43.041,35.189 "
         id="polygon3886"
         style="fill:none;stroke:#ffffff;stroke-width:2.15085721;stroke-miterlimit:4;stroke-opacity:1;stroke-dasharray:none" /><polyline
         id="polyline3888"
         points="35.281,13.812 35.281,21.577 43.041,21.577    "
         style="fill:none;stroke:#ffffff;stroke-width:2.15085721;stroke-miterlimit:4;stroke-opacity:1;stroke-dasharray:none" /></g></g><path
     d="m 19.426691,12.275117 c -4.727185,0 -8.666312,4.714399 -8.666312,4.714399 0,0 3.939127,4.737646 8.666312,4.735322 4.729509,-0.0046 8.668637,-4.739971 8.668637,-4.739971 0,0 -3.939128,-4.713237 -8.668637,-4.70975 z m 0,8.039818 c -1.830666,0 -3.314958,-1.484292 -3.314958,-3.31612 0,-1.827179 1.484292,-3.314958 3.314958,-3.314958 1.828341,0 3.312632,1.487779 3.312632,3.314958 0,1.831828 -1.484291,3.31612 -3.312632,3.31612 z"
     id="path3890"
     style="fill:#ffffff;fill-opacity:1;stroke:none;display:inline" /><circle
     cx="29.207001"
     cy="25.863001"
     r="1.294"
     transform="matrix(1.1623273,0,0,1.1623273,-14.520241,-13.061294)"
     id="circle3892"
     style="fill:#ffffff;fill-opacity:1;stroke:none;display:inline" /><g
     transform="matrix(1,0,0,-1,-24.850339,47.707501)"
     id="g4770"><g
       transform="translate(34.0803,-1006.42)"
       id="g4772"><polyline
         transform="matrix(-0.469241,0.469241,-0.469241,-0.469241,66.2906,1019.03)"
         style="fill:none;stroke:#ffffff;stroke-width:3.5;stroke-linecap:round;stroke-linejoin:round"
         points="51.562,15.306 41.17,16.188 42.053,5.794"
         id="polyline4774" /><path
         d="m 39.363241,1033.1291 -0.05636,9.9115 -8.750608,0.067"
         id="path4776"
         style="fill:none;stroke:#ffffff;stroke-width:2.5;stroke-linecap:round;stroke-linejoin:round;stroke-miterlimit:4;stroke-opacity:1;stroke-dasharray:none" /></g></g></svg>