<?xml version="1.0" encoding="iso-8859-1"?>
<!-- Generator: Adobe Illustrator 19.0.0, SVG Export Plug-In . SVG Version: 6.00 Build 0)  -->
<svg xmlns="http://www.w3.org/2000/svg" xmlns:xlink="http://www.w3.org/1999/xlink" version="1.1" id="Capa_1" x="0px" y="0px" viewBox="0 0 512 512" style="enable-background:new 0 0 512 512;" xml:space="preserve" width="512px" height="512px">
<g>
	<g>
		<g>
			<path d="M501.333,426.667H64V384h74.667c5.896,0,10.667-4.771,10.667-10.667V320H224c5.896,0,10.667-4.771,10.667-10.667V256     h74.667c5.896,0,10.667-4.771,10.667-10.667V192h74.667c5.896,0,10.667-4.771,10.667-10.667V128H480     c5.896,0,10.667-4.771,10.667-10.667c0-5.896-4.771-10.667-10.667-10.667h-85.333c-5.896,0-10.667,4.771-10.667,10.667v53.333     h-74.667c-5.896,0-10.667,4.771-10.667,10.667v53.333H224c-5.896,0-10.667,4.771-10.667,10.667v53.333h-74.667     c-5.896,0-10.667,4.771-10.667,10.667v53.333H53.333c-5.896,0-10.667,4.771-10.667,10.667v53.333h-32     C4.771,426.667,0,431.438,0,437.333C0,443.229,4.771,448,10.667,448h490.667c5.896,0,10.667-4.771,10.667-10.667     C512,431.438,507.229,426.667,501.333,426.667z" fill="#FFFFFF"/>
			<path d="M74.667,234.638c2.5,0,5-0.865,7.021-2.635l141.094-123.457l-8.906,26.717c-1.854,5.594,1.167,11.635,6.75,13.49     c1.125,0.375,2.25,0.552,3.375,0.552c4.458,0,8.625-2.823,10.125-7.292l21.333-64c1.188-3.552,0.417-7.458-2.021-10.302     c-2.417-2.844-6.188-4.125-9.854-3.594l-64,10.667c-5.813,0.969-9.75,6.458-8.771,12.271s6.604,9.823,12.271,8.771l26.971-4.493     L67.646,215.94c-4.438,3.885-4.896,10.625-1,15.052C68.75,233.409,71.708,234.638,74.667,234.638z" fill="#FFFFFF"/>
		</g>
	</g>
</g>
<g>
</g>
<g>
</g>
<g>
</g>
<g>
</g>
<g>
</g>
<g>
</g>
<g>
</g>
<g>
</g>
<g>
</g>
<g>
</g>
<g>
</g>
<g>
</g>
<g>
</g>
<g>
</g>
<g>
</g>
</svg>
