<svg xmlns="http://www.w3.org/2000/svg" xmlns:xlink="http://www.w3.org/1999/xlink" version="1.1" style="" xml:space="preserve" width="65" height="65"><rect id="backgroundrect" width="100%" height="100%" x="0" y="0" fill="none" stroke="none" style="" class=""/>

<g class="currentLayer" style=""><title>Layer 1</title><g id="svg_1" class="selected">
	<path d="M18.125579595565796,39.25581479072571 H14.4604651927948 V6.968991994857788 c0,-0.5101317763328552 -0.41049304604530334,-0.9224806427955627 -0.9162790775299072,-0.9224806427955627 S12.627906560897827,6.458860158920288 12.627906560897827,6.968991994857788 v32.28682327270508 H8.962790250778198 c-0.5057860612869263,0 -0.9162790775299072,0.41234883666038513 -0.9162790775299072,0.9224806427955627 v11.069767951965332 c0,0.5101317763328552 0.41049304604530334,0.9224806427955627 0.9162790775299072,0.9224806427955627 h3.665116310119629 v2.767441987991333 c0,0.5101317763328552 0.41049304604530334,0.9224806427955627 0.9162790775299072,0.9224806427955627 s0.9162790775299072,-0.41234883666038513 0.9162790775299072,-0.9224806427955627 v-2.767441987991333 h3.665116310119629 c0.5057860612869263,0 0.9162790775299072,-0.41234883666038513 0.9162790775299072,-0.9224806427955627 V40.17829251289368 C19.041860342025757,39.66816067695618 18.631368398666382,39.25581479072571 18.125579595565796,39.25581479072571 zM17.209300756454468,50.325581789016724 H9.879070043563843 V41.10077404975891 h7.330232620239258 V50.325581789016724 z" fill="#FFFFFF" id="svg_2"/>
	<path d="M35.53488326072693,24.49612545967102 h-3.665116310119629 V6.968991994857788 c0,-0.5101317763328552 -0.41049304604530334,-0.9224806427955627 -0.9162790775299072,-0.9224806427955627 s-0.9162790775299072,0.41234883666038513 -0.9162790775299072,0.9224806427955627 v17.527132034301758 h-3.665116310119629 c-0.5057860612869263,0 -0.9162790775299072,0.41234883666038513 -0.9162790775299072,0.9224806427955627 v11.069767951965332 c0,0.5101317763328552 0.41049304604530334,0.9224806427955627 0.9162790775299072,0.9224806427955627 h3.665116310119629 v17.527132034301758 c0,0.5101317763328552 0.41049304604530334,0.9224806427955627 0.9162790775299072,0.9224806427955627 s0.9162790775299072,-0.41234883666038513 0.9162790775299072,-0.9224806427955627 V37.41085171699524 h3.665116310119629 c0.5057860612869263,0 0.9162790775299072,-0.41234883666038513 0.9162790775299072,-0.9224806427955627 V25.418605089187622 C36.45116209983826,24.908473253250122 36.040666341781616,24.49612545967102 35.53488326072693,24.49612545967102 zM34.6186044216156,35.565892457962036 h-7.330232620239258 V26.341086626052856 h7.330232620239258 V35.565892457962036 z" fill="#FFFFFF" id="svg_3"/>
	<path d="M52.94418501853943,9.7364342212677 h-3.665116310119629 V6.968991994857788 c0,-0.5101317763328552 -0.41049304604530334,-0.9224806427955627 -0.9162790775299072,-0.9224806427955627 s-0.9162790775299072,0.41234883666038513 -0.9162790775299072,0.9224806427955627 v2.767441987991333 h-3.665116310119629 c-0.5057860612869263,0 -0.9162790775299072,0.41234883666038513 -0.9162790775299072,0.9224806427955627 v11.069767951965332 c0,0.5101317763328552 0.41049304604530334,0.9224806427955627 0.9162790775299072,0.9224806427955627 h3.665116310119629 v32.28682327270508 c0,0.5101317763328552 0.41049304604530334,0.9224806427955627 0.9162790775299072,0.9224806427955627 s0.9162790775299072,-0.41234883666038513 0.9162790775299072,-0.9224806427955627 V22.651164293289185 h3.665116310119629 c0.5057860612869263,0 0.9162790775299072,-0.41234883666038513 0.9162790775299072,-0.9224806427955627 V10.658914804458618 C53.86046385765076,10.148782968521118 53.449968099594116,9.7364342212677 52.94418501853943,9.7364342212677 zM52.0279061794281,20.806201219558716 h-7.330232620239258 V11.581395387649536 h7.330232620239258 V20.806201219558716 z" fill="#FFFFFF" id="svg_4"/>
</g><g id="svg_5">
</g><g id="svg_6">
</g><g id="svg_7">
</g><g id="svg_8">
</g><g id="svg_9">
</g><g id="svg_10">
</g><g id="svg_11">
</g><g id="svg_12">
</g><g id="svg_13">
</g><g id="svg_14">
</g><g id="svg_15">
</g><g id="svg_16">
</g><g id="svg_17">
</g><g id="svg_18">
</g><g id="svg_19">
</g></g></svg>