<?xml version="1.0" encoding="UTF-8" standalone="no"?>
<svg
   xmlns:dc="http://purl.org/dc/elements/1.1/"
   xmlns:cc="http://creativecommons.org/ns#"
   xmlns:rdf="http://www.w3.org/1999/02/22-rdf-syntax-ns#"
   xmlns:svg="http://www.w3.org/2000/svg"
   xmlns="http://www.w3.org/2000/svg"
   xmlns:sodipodi="http://sodipodi.sourceforge.net/DTD/sodipodi-0.dtd"
   xmlns:inkscape="http://www.inkscape.org/namespaces/inkscape"
   enable-background="new 0 0 55.125 55"
   height="100px"
   version="1.1"
   viewBox="0 0 55 50"
   width="55.125px"
   x="0px"
   xml:space="preserve"
   y="0px"
   id="svg2"
   inkscape:version="0.91 r13725"
   sodipodi:docname="go-previous-sel.svg"><metadata
     id="metadata13"><rdf:RDF><cc:Work
         rdf:about=""><dc:format>image/svg+xml</dc:format><dc:type
           rdf:resource="http://purl.org/dc/dcmitype/StillImage" /><dc:title></dc:title></cc:Work></rdf:RDF></metadata><defs
     id="defs11" /><sodipodi:namedview
     pagecolor="#ffffff"
     bordercolor="#666666"
     borderopacity="1"
     objecttolerance="10"
     gridtolerance="10"
     guidetolerance="10"
     inkscape:pageopacity="0"
     inkscape:pageshadow="2"
     inkscape:window-width="1142"
     inkscape:window-height="720"
     id="namedview9"
     showgrid="false"
     inkscape:zoom="4.2909091"
     inkscape:cx="-3.4332627"
     inkscape:cy="27.5"
     inkscape:window-x="292"
     inkscape:window-y="72"
     inkscape:window-maximized="0"
     inkscape:current-layer="svg2" /><g
     display="block"
     id="go-left"
     style="fill:#999999"><g
       display="inline"
       id="g5"
       style="fill:#999999"><path
         d="M5,27.5C5,39.927,15.073,50,27.5,50C39.928,50,50,39.927,50,27.5S39.928,5,27.5,5    C15.073,5,5,15.073,5,27.5z M32.275,17.093c0.624,0.626,0.939,1.447,0.939,2.271c0,0.822-0.315,1.645-0.939,2.271l-5.833,5.84    l5.802,5.657c0.645,0.63,0.967,1.464,0.967,2.3c0,0.808-0.305,1.62-0.914,2.246c-1.238,1.266-3.271,1.295-4.546,0.056    l-8.126-7.929c0-0.002,0-0.002,0-0.003c-0.011-0.01-0.021-0.015-0.028-0.022c-0.115-0.116-0.208-0.245-0.302-0.371    c-0.028-0.039-0.064-0.071-0.093-0.111c-0.075-0.114-0.133-0.24-0.194-0.36c-0.035-0.068-0.078-0.131-0.107-0.2    c-0.039-0.1-0.064-0.203-0.093-0.306c-0.032-0.099-0.068-0.191-0.09-0.292c-0.018-0.083-0.018-0.169-0.028-0.251    c-0.015-0.122-0.033-0.244-0.036-0.366c0-0.071,0.014-0.147,0.021-0.219c0.007-0.133,0.011-0.266,0.036-0.395    c0.014-0.075,0.043-0.147,0.064-0.223c0.035-0.124,0.061-0.251,0.111-0.373c0.032-0.083,0.082-0.161,0.121-0.244    c0.055-0.106,0.104-0.215,0.165-0.316c0.058-0.084,0.13-0.16,0.194-0.239c0.064-0.086,0.122-0.176,0.201-0.254    c0.003-0.005,0.011-0.009,0.014-0.013c0.004-0.007,0.008-0.011,0.011-0.014l8.13-8.142C28.981,15.837,31.014,15.834,32.275,17.093    z"
         fill="#FFFFFF"
         id="path7"
         style="fill:#999999" /></g></g></svg>