<?xml version="1.0" ?><!DOCTYPE svg  PUBLIC '-//W3C//DTD SVG 1.1//EN'  'http://www.w3.org/Graphics/SVG/1.1/DTD/svg11.dtd' [
	<!ENTITY stroke_color "#010101">
	<!ENTITY fill_color "#FFFFFF">
]><svg enable-background="new 0 0 55.125 55" height="55px" version="1.1" viewBox="0 0 55.125 55" width="55.125px" x="0px" xml:space="preserve" xmlns="http://www.w3.org/2000/svg" xmlns:xlink="http://www.w3.org/1999/xlink" y="0px"><g display="block" id="go-left">
	<g display="inline">
		<path d="M5,27.5C5,39.927,15.073,50,27.5,50C39.928,50,50,39.927,50,27.5S39.928,5,27.5,5    C15.073,5,5,15.073,5,27.5z M32.275,17.093c0.624,0.626,0.939,1.447,0.939,2.271c0,0.822-0.315,1.645-0.939,2.271l-5.833,5.84    l5.802,5.657c0.645,0.63,0.967,1.464,0.967,2.3c0,0.808-0.305,1.62-0.914,2.246c-1.238,1.266-3.271,1.295-4.546,0.056    l-8.126-7.929c0-0.002,0-0.002,0-0.003c-0.011-0.01-0.021-0.015-0.028-0.022c-0.115-0.116-0.208-0.245-0.302-0.371    c-0.028-0.039-0.064-0.071-0.093-0.111c-0.075-0.114-0.133-0.24-0.194-0.36c-0.035-0.068-0.078-0.131-0.107-0.2    c-0.039-0.1-0.064-0.203-0.093-0.306c-0.032-0.099-0.068-0.191-0.09-0.292c-0.018-0.083-0.018-0.169-0.028-0.251    c-0.015-0.122-0.033-0.244-0.036-0.366c0-0.071,0.014-0.147,0.021-0.219c0.007-0.133,0.011-0.266,0.036-0.395    c0.014-0.075,0.043-0.147,0.064-0.223c0.035-0.124,0.061-0.251,0.111-0.373c0.032-0.083,0.082-0.161,0.121-0.244    c0.055-0.106,0.104-0.215,0.165-0.316c0.058-0.084,0.13-0.16,0.194-0.239c0.064-0.086,0.122-0.176,0.201-0.254    c0.003-0.005,0.011-0.009,0.014-0.013c0.004-0.007,0.008-0.011,0.011-0.014l8.13-8.142C28.981,15.837,31.014,15.834,32.275,17.093    z" fill="&fill_color;"/>
	</g>
</g></svg>