<?xml version="1.0" encoding="UTF-8" standalone="no"?>
<!-- Uploaded to: SVG Repo, www.svgrepo.com, Generator: SVG Repo Mixer Tools -->

<svg
   width="55"
   height="55"
   viewBox="0 0 1.03125 1.03125"
   version="1.1"
   id="doctor"
   sodipodi:docname="mode-doctor.svg"
   inkscape:version="1.2.2 (b0a8486541, 2022-12-01)"
   xmlns:inkscape="http://www.inkscape.org/namespaces/inkscape"
   xmlns:sodipodi="http://sodipodi.sourceforge.net/DTD/sodipodi-0.dtd"
   xmlns="http://www.w3.org/2000/svg"
   xmlns:svg="http://www.w3.org/2000/svg">
  <defs
     id="defs7" />
  <sodipodi:namedview
     id="namedview5"
     pagecolor="#ffffff"
     bordercolor="#666666"
     borderopacity="1.0"
     inkscape:showpageshadow="2"
     inkscape:pageopacity="0.0"
     inkscape:pagecheckerboard="0"
     inkscape:deskcolor="#d1d1d1"
     showgrid="false"
     inkscape:zoom="6.65"
     inkscape:cx="49.24812"
     inkscape:cy="14.43609"
     inkscape:window-width="1534"
     inkscape:window-height="831"
     inkscape:window-x="66"
     inkscape:window-y="32"
     inkscape:window-maximized="1"
     inkscape:current-layer="doctor" />
  <path
     d="m 0.37442775,0.47494049 c -0.079656,0 -0.14423069,-0.0645746 -0.14423069,-0.14423069 v 0 -0.11538455 c 0,-0.0159287 0.0129174,-0.0288461 0.0288461,-0.0288461 h 0.0288461 c 0.0159287,0 0.0288461,-0.0129174 0.0288461,-0.0288461 0,-0.0159287 -0.0129174,-0.0288461 -0.0288461,-0.0288461 h -0.0288461 c -0.0477923,0 -0.0865385,0.038746 -0.0865385,0.0865385 v 0.11538456 c 7.504e-5,0.0661498 0.0326421,0.12804804 0.0871154,0.16557689 v 0 c 0.052102,0.0459348 0.0831577,0.111173 0.0859615,0.18057684 0,0.11151923 0.0904038,0.20192302 0.20192305,0.20192302 0.11151914,0 0.20192296,-0.0904038 0.20192296,-0.20192302 v -0.0328846 c 0.0617019,-0.0159288 0.0988038,-0.0788654 0.082875,-0.14056728 -0.0159346,-0.061702 -0.0788654,-0.0988038 -0.14056728,-0.082875 -0.061702,0.0159346 -0.0988038,0.0788654 -0.0828749,0.14056728 0.0104943,0.0406444 0.0422309,0.072381 0.0828749,0.082875 v 0.0328845 c 0,0.0796561 -0.0645746,0.14423077 -0.1442307,0.14423077 -0.079656,0 -0.14423077,-0.0645746 -0.14423077,-0.14423077 0.002952,-0.0694905 0.0342229,-0.13474613 0.0865384,-0.18057684 v 0 C 0.54406612,0.4586253 0.57640842,0.3967561 0.57635072,0.33070999 V 0.21532525 c 0,-0.0477924 -0.038746,-0.0865385 -0.0865385,-0.0865385 h -0.028846 c -0.0159287,0 -0.0288461,0.0129175 -0.0288461,0.0288461 0,0.0159287 0.0129175,0.0288461 0.0288461,0.0288461 h 0.0288461 c 0.0159287,0 0.0288461,0.0129174 0.0288461,0.0288461 v 0.11538455 0 c 0,0.0796561 -0.0645746,0.14423069 -0.14423077,0.14423069 M 0.72058147,0.590325 c -0.0318637,0 -0.0576923,-0.0258286 -0.0576923,-0.0576923 0,-0.0318637 0.0258286,-0.0576922 0.0576923,-0.0576922 0.0318637,0 0.0576923,0.0258286 0.0576923,0.0576922 0,0.0318637 -0.0258286,0.0576923 -0.0576923,0.0576923 z"
     id="path2"
     style="stroke-width:1;fill:#ffffff" />
</svg>
