<?xml version="1.0" encoding="UTF-8" standalone="no"?>
<svg
   width="55pt"
   height="55pt"
   version="1.1"
   viewBox="0 0 55 55"
   id="svg4"
   sodipodi:docname="model-skeleton.svg"
   inkscape:version="1.2.2 (b0a8486541, 2022-12-01)"
   xml:space="preserve"
   xmlns:inkscape="http://www.inkscape.org/namespaces/inkscape"
   xmlns:sodipodi="http://sodipodi.sourceforge.net/DTD/sodipodi-0.dtd"
   xmlns="http://www.w3.org/2000/svg"
   xmlns:svg="http://www.w3.org/2000/svg"><sodipodi:namedview
     id="namedview17"
     pagecolor="#ffffff"
     bordercolor="#666666"
     borderopacity="1.0"
     inkscape:showpageshadow="2"
     inkscape:pageopacity="0.0"
     inkscape:pagecheckerboard="0"
     inkscape:deskcolor="#d1d1d1"
     inkscape:document-units="pt"
     showgrid="false"
     inkscape:zoom="2.423832"
     inkscape:cx="27.023325"
     inkscape:cy="16.709079"
     inkscape:window-width="940"
     inkscape:window-height="614"
     inkscape:window-x="78"
     inkscape:window-y="62"
     inkscape:window-maximized="0"
     inkscape:current-layer="svg4" /><defs
     id="defs8"><linearGradient
       id="linearGradient1071"><stop
         style="stop-color:#0000ff;stop-opacity:1;"
         offset="0"
         id="stop1069" /></linearGradient><linearGradient
       id="linearGradient1051"><stop
         style="stop-color:#0000ff;stop-opacity:1;"
         offset="0"
         id="stop1049" /></linearGradient></defs><path
     d="M 42.71715,28.793565 40.193347,15.788909 c -0.620632,-3.023047 -3.198725,-4.603743 -5.425275,-4.603743 h -2.854489 c 1.344882,-0.942361 2.22599,-2.5029322 2.22599,-4.2662808 0,-2.869636 -2.334973,-5.2053281 -5.205327,-5.2053281 -2.870341,0 -5.205315,2.3349866 -5.205315,5.2053281 0,1.7633486 0.881095,3.3239198 2.225978,4.2662808 h -2.632745 c -2.358518,0 -5.107061,1.731339 -5.621359,4.613992 l -2.516468,12.942883 c -0.565596,2.807864 0.01065,3.927741 2.282851,4.436995 0.382969,0.08599 0.73177,0.128442 1.064841,0.128442 1.447821,0 2.475366,-0.834497 2.820308,-2.290185 0.004,-0.0185 0.008,-0.03714 0.01198,-0.05671 l 0.246608,-1.404498 -0.340936,19.243278 c -5.59e-4,0.0197 0,0.03873 5.72e-4,0.0583 0.116331,2.768002 2.479347,2.768002 3.369441,2.768002 1.313989,0 3.759742,0 3.931015,-2.749567 l 0.385724,-15.84248 0.572703,15.888812 c 0.193233,2.703514 2.531681,2.703514 3.928832,2.703514 0.978724,0 3.271066,0 3.36944,-2.826365 l -0.335266,-18.701362 0.169636,0.983834 c 0.31333,1.382551 1.267578,2.176106 2.618117,2.176106 0.232526,0 0.480238,-0.02409 0.736122,-0.07068 l 0.298703,-0.05178 c 0.718768,-0.117926 1.613452,-0.265628 2.170994,-1.086602 0.493203,-0.72429 0.562841,-1.735172 0.231076,-3.25536 z M 25.695842,6.9188453 c 0,-1.7863751 1.453306,-3.2396807 3.239668,-3.2396807 1.786375,0 3.239681,1.4533056 3.239681,3.2396807 0,1.786362 -1.453306,3.2396677 -3.239681,3.2396677 -1.786175,0 -3.239668,-1.4533057 -3.239668,-3.2396677 z M 40.861616,30.945325 c -0.08318,0.122985 -0.516042,0.194326 -0.864312,0.250987 -0.110606,0.01797 -0.222463,0.0366 -0.334705,0.05723 -0.138745,0.02582 -0.267265,0.03873 -0.380786,0.03873 -0.314969,0 -0.566155,-0.04765 -0.691349,-0.594664 L 36.549669,18.846069 c -0.08132,-0.47164 -0.490314,-0.816064 -0.968675,-0.816064 h -0.268902 c -0.263965,0 -0.516042,0.105677 -0.701411,0.293765 -0.185368,0.188098 -0.286457,0.442558 -0.281333,0.706549 l 0.534716,29.751736 c -0.02356,0.674352 -0.03088,0.877834 -1.405018,0.877834 -1.905366,0 -1.922176,-0.239287 -1.966073,-0.843441 L 30.8466,30.871348 c -0.01903,-0.527927 -0.453166,-0.947286 -0.982185,-0.947286 h -1.838084 c -0.533399,0 -0.969794,0.425761 -0.982758,0.958613 l -0.43525,17.90766 c -0.03714,0.597047 -0.05444,0.869968 -1.967711,0.869968 -1.347823,0 -1.377079,-0.216247 -1.403938,-0.855314 l 0.527409,-29.774204 c 0.004,-0.263963 -0.09649,-0.518237 -0.281334,-0.706547 -0.184809,-0.18811 -0.437447,-0.293765 -0.701397,-0.293765 h -0.316259 c -0.477283,0 -0.885687,0.342573 -0.968156,0.812549 l -2.062185,11.747193 c -0.156113,0.627752 -0.449332,0.751855 -0.90142,0.751855 -0.184276,0 -0.397609,-0.02688 -0.633982,-0.08079 -1.052941,-0.236374 -1.163533,-0.261051 -0.785117,-2.137921 l 2.520861,-12.964405 c 0.331233,-1.858768 2.173337,-3.008407 3.688974,-3.008407 H 34.76895 c 1.429721,0 3.090862,1.041815 3.497962,3.023048 l 2.525998,13.0173 c 0.29121,1.337574 0.108207,1.696412 0.06895,1.754723 z"
     id="path2"
     style="stroke:none;stroke-opacity:1;fill:#999999" /><style
     type="text/css"
     id="style1224">
<![CDATA[
	.st0{fill:#000000;}
]]>
</style><g
     style="fill:#ffffff;stroke-width:35.0495"
     id="g1236"
     transform="matrix(-0.50436456,0.50436456,-0.50436456,-0.50436456,41.084916,21.618471)"><path
       d="m 14.1374,2.73779 c -0.7432,0.74323 -1.1282,2.03867 -0.8479,3.05191 0.1485,0.53633 0.1727,1.18571 -0.2208,1.5792 l -5.6998,5.6998 c -0.39349,0.3935 -1.04287,0.3693 -1.5792,0.2208 -1.01324,-0.2803 -2.30869,0.1047 -3.05191,0.8479 -0.98372,0.9838 -0.98372,2.5787 0,3.5624 0.98373,0.9837 2.57867,0.9837 3.56239,0 -0.98372,0.9837 -0.98373,2.5787 0,3.5624 0.98373,0.9837 2.57866,0.9837 3.56239,0 0.74323,-0.7432 1.12823,-2.0387 0.84793,-3.0519 -0.1485,-0.5363 -0.1727,-1.1857 0.2208,-1.5792 l 5.6998,-5.6998 c 0.3935,-0.3935 1.0429,-0.3693 1.5792,-0.2208 1.0132,0.2803 2.3087,-0.1047 3.0519,-0.84793 0.9837,-0.98373 0.9837,-2.57866 0,-3.56239 -0.9837,-0.98372 -2.5787,-0.98372 -3.5624,0 0.9837,-0.98372 0.9837,-2.57866 0,-3.56239 -0.9837,-0.98372 -2.5786,-0.98372 -3.5624,0 z"
       fill="#1c274c"
       id="path1227"
       style="fill:#ffffff;stroke-width:350.495" /></g></svg>
