<?xml version="1.0" encoding="UTF-8" standalone="no"?>
<!-- Created with Inkscape (http://www.inkscape.org/) -->

<svg
   xmlns:dc="http://purl.org/dc/elements/1.1/"
   xmlns:cc="http://creativecommons.org/ns#"
   xmlns:rdf="http://www.w3.org/1999/02/22-rdf-syntax-ns#"
   xmlns:svg="http://www.w3.org/2000/svg"
   xmlns="http://www.w3.org/2000/svg"
   xmlns:sodipodi="http://sodipodi.sourceforge.net/DTD/sodipodi-0.dtd"
   xmlns:inkscape="http://www.inkscape.org/namespaces/inkscape"
   version="1.1"
   width="55"
   height="55"
   viewBox="0 0 55 55"
   id="svg2"
   xml:space="preserve"
   sodipodi:docname="replay.svg"
   inkscape:version="0.92.2 5c3e80d, 2017-08-06"><sodipodi:namedview
     pagecolor="#ffffff"
     bordercolor="#666666"
     borderopacity="1"
     objecttolerance="10"
     gridtolerance="10"
     guidetolerance="10"
     inkscape:pageopacity="0"
     inkscape:pageshadow="2"
     inkscape:window-width="1440"
     inkscape:window-height="779"
     id="namedview8"
     showgrid="false"
     inkscape:pagecheckerboard="true"
     inkscape:zoom="6.9453153"
     inkscape:cx="27.289865"
     inkscape:cy="27.407731"
     inkscape:window-x="0"
     inkscape:window-y="1"
     inkscape:window-maximized="1"
     inkscape:current-layer="svg2" /><metadata
     id="metadata21"><rdf:RDF><cc:Work
         rdf:about=""><dc:format>image/svg+xml</dc:format><dc:type
           rdf:resource="http://purl.org/dc/dcmitype/StillImage" /><dc:title></dc:title></cc:Work></rdf:RDF></metadata><defs
     id="defs19" /><path
     style="fill:#ffffff;fill-opacity:1;stroke:none;stroke-width:1.46417284;stroke-miterlimit:4;stroke-dasharray:none;stroke-dashoffset:0;stroke-opacity:1"
     d="M 28.062562,3.9002076 A 24,24 0 0 0 4.0625611,27.900207 a 24,24 0 0 0 24.0000009,24 24,24 0 0 0 24,-24 24,24 0 0 0 -24,-23.9999994 z m 0.203124,8.6093744 A 15.577024,15.577024 0 0 1 42.714905,24.042785 15.577024,15.577024 0 0 1 31.701233,43.122863 15.577024,15.577024 0 0 1 30.468812,43.388489 L 29.76178,40.747863 a 12.498622,12.498622 0 0 0 1.359375,-0.269531 12.498622,12.498622 0 0 0 8.837891,-15.30664 12.498622,12.498622 0 0 0 -15.308594,-8.837891 12.498622,12.498622 0 0 0 -9.179687,10.732422 h 3.824218 L 15.01764,34.12091 7.6328736,27.066223 h 4.5234384 a 15.577024,15.577024 0 0 1 11.482421,-14.03711 15.577024,15.577024 0 0 1 4.626953,-0.519531 z"
     id="path821"
     inkscape:connector-curvature="0" /></svg>