<?xml version="1.0" encoding="UTF-8" standalone="no"?>
<svg
   xmlns:dc="http://purl.org/dc/elements/1.1/"
   xmlns:cc="http://creativecommons.org/ns#"
   xmlns:rdf="http://www.w3.org/1999/02/22-rdf-syntax-ns#"
   xmlns:svg="http://www.w3.org/2000/svg"
   xmlns="http://www.w3.org/2000/svg"
   xmlns:sodipodi="http://sodipodi.sourceforge.net/DTD/sodipodi-0.dtd"
   xmlns:inkscape="http://www.inkscape.org/namespaces/inkscape"
   version="1.1"
   x="0px"
   y="0px"
   viewBox="0 0 65 65"
   xml:space="preserve"
   id="svg2"
   inkscape:version="0.91 r13725"
   sodipodi:docname="asia.svg"
   width="52pt"
   height="52pt"><metadata
     id="metadata184"><rdf:RDF><cc:Work
         rdf:about=""><dc:format>image/svg+xml</dc:format><dc:type
           rdf:resource="http://purl.org/dc/dcmitype/StillImage" /><dc:title></dc:title></cc:Work></rdf:RDF></metadata><defs
     id="defs182" /><sodipodi:namedview
     pagecolor="#ffffff"
     bordercolor="#666666"
     borderopacity="1"
     objecttolerance="10"
     gridtolerance="10"
     guidetolerance="10"
     inkscape:pageopacity="0"
     inkscape:pageshadow="2"
     inkscape:window-width="775"
     inkscape:window-height="480"
     id="namedview180"
     showgrid="false"
     units="pt"
     inkscape:zoom="1.888"
     inkscape:cx="50"
     inkscape:cy="62.5"
     inkscape:window-x="0"
     inkscape:window-y="23"
     inkscape:window-maximized="0"
     inkscape:current-layer="svg2" /><polygon
     points="65.30467,66.59007 65.39435,66.3868 65.34652,66.21941 65.69925,65.80689 65.74708,65.69331 65.71719,65.4183 65.86067,65.26884 65.95035,65.32862 65.83675,65.50199 65.95035,65.59167 65.98622,65.74711 66.16557,65.69928 66.58406,65.45417 66.88299,65.07752 67.16397,64.73676 67.23572,64.56936 67.42104,64.27043 67.49279,64.07314 67.55257,63.834 67.51073,63.62476 67.39713,63.52312 67.49279,63.38562 67.55257,63.24812 67.49279,63.14648 67.62431,62.93126 67.6841,62.68016 67.82758,62.63234 67.88737,62.88941 68.13846,62.87148 68.16835,62.67419 68.1265,62.56657 67.989,62.64429 67.94117,62.50081 68.06074,62.40516 68.25205,62.51277 68.28194,62.91332 68.44336,63.23616 68.51511,63.41551 68.56891,63.72041 68.5988,63.86988 68.49119,64.13891 68.32977,64.39598 68.28793,64.61121 68.06672,64.67099 68.00694,64.98785 68.00095,65.46513 67.85748,65.9444 67.80367,66.20148 67.95911,66.40474 67.83356,66.54224 67.73791,66.61996 67.66616,66.82323 67.48083,66.93085 67.41507,66.81725 67.48083,66.67975 67.5167,66.51833 67.45094,66.51833 67.26561,66.70964 67.03843,66.78138 66.98462,67.01454 66.86505,67.05042 66.86505,66.82323 66.74548,66.84715 66.61993,66.97269 66.49438,67.15205 65.9623,67.24172 65.9922,67.08628 65.80089,67.0265 65.65142,66.95476 65.6036,67.1102 65.68132,67.2776 65.771,67.3637 65.61555,67.43304 65.37641,67.5825 65.25684,67.8874 65.00575,67.86349 64.85031,67.66022 64.85031,67.43901 64.89814,67.3637 64.85031,67.15205 64.6889,67.09824 64.47367,67.08031 64.24649,67.19389 64.06713,67.2776 63.81604,67.33738 63.49918,67.44499 63.31385,67.40912 63.1883,67.47488 63.18232,67.66022 62.94318,67.54065 62.72796,67.64826 62.60241,67.61837 62.51074,67.58848 62.54861,67.3637 62.84155,67.3637 62.84155,67.24172 62.95514,67.19987 63.54103,66.65584 63.7443,66.59605 64.03127,66.65584 64.45573,66.59605 64.8264,66.44659 64.92803,66.60203 "
     id="polygon4"
     transform="matrix(0.66662489,0,0,0.66662489,-0.80911756,0.07765939)"
     style="fill:#ffffff" /><polygon
     points="64.5215,67.51673 64.29431,67.48087 64.19866,67.40912 64.06713,67.47488 63.94458,67.64826 63.76223,67.6363 63.67255,67.5825 63.52309,67.72598 63.33178,68.00099 63.42744,68.27002 63.62473,68.37763 63.78615,68.12056 63.85789,67.95914 64.0492,67.8874 64.2166,67.99501 64.3541,68.08469 64.38997,67.8874 64.55737,67.74989 "
     id="polygon6"
     transform="matrix(0.66662489,0,0,0.66662489,-0.80911756,0.07765939)"
     style="fill:#ffffff" /><polygon
     points="62.23175,68.18632 62.10022,68.23415 62.10022,68.37763 61.95275,68.50916 61.84913,68.34973 61.82123,68.21422 62.00457,67.9432 62.23175,67.8874 62.39516,67.70406 62.53466,67.70406 62.74191,67.92725 62.89336,67.9153 62.93322,67.99501 62.82561,68.09465 62.98902,68.17835 63.06076,68.37763 62.98503,68.49322 62.84554,68.83598 62.78176,69.14686 62.61437,69.24252 62.55458,69.42984 62.45096,69.41389 62.41509,69.20266 62.31146,69.16679 62.29153,69.29034 62.37125,69.42984 62.18392,69.42984 62.18392,69.16679 62.12015,69.04722 62.30748,68.70047 62.32342,68.49322 "
     id="polygon8"
     transform="matrix(0.66662489,0,0,0.66662489,-0.80911756,0.07765939)"
     style="fill:#ffffff" /><polygon
     points="68.78812,61.74553 69.02726,61.85713 69.25842,62.02452 69.34611,61.8651 69.39394,61.63393 69.83236,61.25928 69.94395,61.32306 70.0715,61.31508 70.3744,61.1716 70.3744,60.86869 70.27077,60.68535 70.4302,60.34259 70.17513,60.51796 70.06352,60.6455 69.80047,60.54984 69.41785,60.34259 69.05914,60.08751 68.78812,59.673 68.5988,59.49763 68.50912,59.42589 68.3497,59.57735 68.50115,59.99185 68.42941,60.32664 68.39753,60.66144 68.23013,60.83282 68.2939,61.05203 68.19824,61.17957 67.87142,61.1158 67.73591,61.12377 67.77577,61.25928 67.75983,61.37885 67.48083,61.56219 67.42503,61.80133 67.59243,62.04844 67.52866,62.23975 67.56055,62.40516 67.64823,62.447 67.79968,62.25569 67.86943,62.13313 67.97405,62.18694 68.02288,62.23975 68.09462,62.13612 67.86345,61.95279 67.68809,61.89698 67.68809,61.79336 67.75185,61.63393 67.98302,61.63393 68.09462,61.7535 68.23013,61.63393 68.5988,61.58611 "
     id="polygon10"
     transform="matrix(0.66662489,0,0,0.66662489,-0.80911756,0.07765939)"
     style="fill:#ffffff" /><polygon
     points="70.70123,60.44621 70.94036,60.34259 71.00414,60.2549 70.90848,60.1991 70.7371,60.28679 70.6534,60.4223 70.47006,60.68535 70.5418,60.72521 "
     id="polygon12"
     transform="matrix(0.66662489,0,0,0.66662489,-0.80911756,0.07765939)"
     style="fill:#ffffff" /><polygon
     points="71.61792,59.91214 71.47444,60.02374 71.35487,60.06359 71.60995,59.68894 71.93678,59.60923 72.15997,59.42589 72.20779,59.34618 72.34331,59.34618 72.34331,59.53749 72.17591,59.53749 71.88895,59.75271 71.68169,59.80851 "
     id="polygon14"
     transform="matrix(0.66662489,0,0,0.66662489,-0.80911756,0.07765939)"
     style="fill:#ffffff" /><polygon
     points="73.16435,58.82804 73.04478,59.04726 72.7339,59.26646 72.94913,58.96356 "
     id="polygon16"
     transform="matrix(0.66662489,0,0,0.66662489,-0.80911756,0.07765939)"
     style="fill:#ffffff" /><polygon
     points="68.84392,57.56061 68.92762,57.15408 69.05914,56.62 69.16277,56.37289 69.33813,56.22941 69.58525,56.29318 69.7925,56.39681 69.7925,56.18956 69.69685,55.83085 69.5135,55.4004 69.44176,54.94604 69.35408,54.61921 69.19864,54.30833 69.13885,53.93369 69.2664,53.43946 69.25842,53.17641 69.12292,52.90539 69.11494,52.49886 69.06712,52.33943 69.12292,52.04449 68.95552,51.8213 68.79609,51.90898 68.95552,52.18 68.94755,52.41914 68.88377,52.70611 68.80406,52.74596 68.67652,52.63437 68.52507,52.70611 68.48521,52.88148 68.53304,53.2641 68.42941,53.69455 68.42941,54.10108 68.65261,54.4837 68.7084,54.8185 68.66855,54.99386 68.62072,55.28083 68.7084,55.54388 68.66855,56.2055 68.5729,56.59609 68.54898,56.85117 68.66058,57.15408 68.68449,57.39322 68.61275,57.73598 68.60478,58.33383 68.54101,58.52514 68.52507,58.82804 68.60478,58.98747 68.7403,58.66862 68.8758,58.4534 69.05117,58.3976 69.23451,58.51717 69.35408,58.65268 69.40191,58.43745 69.18668,58.286 69.12292,58.08672 69.00334,57.83164 "
     id="polygon18"
     transform="matrix(0.66662489,0,0,0.66662489,-0.80911756,0.07765939)"
     style="fill:#ffffff" /><polygon
     points="57.166,73.272 57.3892,73.14445 57.59645,73.31185 57.49282,73.71041 57.3892,73.94955 57.30152,74.41985 57.05441,74.80247 57.01455,75.12133 56.67178,74.61117 56.63193,74.13289 56.92686,73.59882 "
     id="polygon20"
     transform="matrix(0.66662489,0,0,0.66662489,-0.80911756,0.07765939)"
     style="fill:#ffffff" /><polygon
     points="50.71724,76.36485 51.50271,76.31702 51.55423,76.5163 51.35495,76.6837 51.34697,76.81921 51.13573,77.07429 50.84478,77.3214 50.37448,77.12212 50.29477,76.88298 50.41434,76.60398 "
     id="polygon22"
     transform="matrix(0.66662489,0,0,0.66662489,-0.80911756,0.07765939)"
     style="fill:#ffffff" /><polygon
     points="35.01384,82.38316 34.67107,82.18388 34.67107,82.60635 34.51962,83.02086 34.55947,83.67451 34.67107,84.09698 35.00586,84.16075 35.40443,83.97741 35.59574,83.64262 35.49211,83.17231 35.19717,82.68607 "
     id="polygon24"
     transform="matrix(0.66662489,0,0,0.66662489,-0.80911756,0.07765939)"
     style="fill:#ffffff" /><polygon
     points="57.77182,77.33734 57.67617,77.63228 57.88342,78.09461 57.70805,78.45332 57.42905,78.60477 57.32543,78.9874 57.445,79.47364 57.49282,79.70481 57.24572,79.96786 57.04644,79.80843 56.91092,79.77655 56.88701,79.64104 57.07035,79.43378 56.87904,79.2345 56.81527,79.41785 56.60801,79.2345 56.4725,78.50912 56.70367,78.60477 56.77541,78.22215 56.81527,77.38517 56.99063,77.12212 57.2218,77.12212 57.50877,77.27357 57.64428,77.29749 57.70008,77.20183 57.77182,77.23372 "
     id="polygon26"
     transform="matrix(0.66662489,0,0,0.66662489,-0.80911756,0.07765939)"
     style="fill:#ffffff" /><polygon
     points="56.16162,81.63386 56.20945,81.39472 56.34496,81.7056 55.8348,82.10416 55.779,82.26359 55.51595,82.47084 55.12536,82.82955 55.12536,82.68607 55.32464,82.43098 55.69132,82.19185 55.73516,82.04039 "
     id="polygon28"
     transform="matrix(0.66662489,0,0,0.66662489,-0.80911756,0.07765939)"
     style="fill:#ffffff" /><polygon
     points="58.85592,83.57088 58.74432,83.7303 58.81606,83.97741 58.95954,84.1209 59.23854,84.25641 59.36607,84.13684 59.42984,84.3122 59.5813,84.3122 59.5813,83.91364 59.47767,83.73429 59.70087,83.44334 59.85232,83.66653 59.85232,83.87379 59.92406,83.84987 59.92406,83.68247 60.09146,83.54697 60.09146,83.15637 59.96392,82.82955 59.88421,82.72592 59.97189,82.59838 59.94798,82.44693 59.77261,82.31939 59.58927,82.15997 59.54942,82.50272 59.35013,82.60635 59.16679,82.55055 59.12694,82.71795 58.98346,82.76578 58.91171,82.90129 58.87186,83.02883 58.64069,82.97303 58.60083,82.82955 58.20227,82.82955 58.16241,82.99695 57.95516,83.05274 57.77182,83.14043 57.58051,83.62668 57.72399,83.67451 57.88342,83.28391 57.96313,83.19623 58.09067,83.34768 58.21821,83.25999 58.33778,83.34768 58.44141,83.19623 58.60083,83.15637 58.85592,83.37957 "
     id="polygon30"
     transform="matrix(0.66662489,0,0,0.66662489,-0.80911756,0.07765939)"
     style="fill:#ffffff" /><polygon
     points="58.29792,81.86503 58.42347,81.60197 58.42347,81.5123 58.32184,81.43458 58.14846,81.54219 58.14846,81.90688 57.88342,82.04438 57.88342,82.15997 58.15345,82.46885 58.30988,82.40907 58.31586,82.2895 58.19629,82.11214 "
     id="polygon32"
     transform="matrix(0.66662489,0,0,0.66662489,-0.80911756,0.07765939)"
     style="fill:#ffffff" /><polygon
     points="58.53706,81.68567 58.67457,81.52425 58.73435,81.60197 58.66261,81.84211 58.51913,81.95171 58.39358,82.19982 58.35173,82.15997 58.42347,81.91883 "
     id="polygon34"
     transform="matrix(0.66662489,0,0,0.66662489,-0.80911756,0.07765939)"
     style="fill:#ffffff" /><polygon
     points="58.83599,81.90688 58.73435,81.99057 58.67457,82.11214 58.77022,82.19982 58.9974,82.05035 58.95555,81.95171 "
     id="polygon36"
     transform="matrix(0.66662489,0,0,0.66662489,-0.80911756,0.07765939)"
     style="fill:#ffffff" /><polygon
     points="59.56536,81.16554 59.51753,81.06391 59.52351,80.84271 59.44579,80.6514 59.30828,80.55574 59.0811,80.55574 58.9974,80.63944 59.03328,80.79488 59.23953,80.93836 59.30828,81.08782 59.26046,81.14761 59.14388,81.20889 59.06317,81.28213 58.9974,81.20889 58.9137,81.16554 58.9974,81.43458 59.17078,81.46447 59.17078,81.86204 59.386,81.81122 59.31426,81.59002 59.26046,81.39472 59.27839,81.25523 59.44579,81.2612 59.56536,81.33892 "
     id="polygon38"
     transform="matrix(0.66662489,0,0,0.66662489,-0.80911756,0.07765939)"
     style="fill:#ffffff" /><polygon
     points="57.90932,81.0938 57.68513,81.04897 57.65524,81.49436 57.63432,81.72154 57.86748,81.61393 57.90932,81.70959 57.95416,81.68268 58.22618,81.20889 "
     id="polygon40"
     transform="matrix(0.66662489,0,0,0.66662489,-0.80911756,0.07765939)"
     style="fill:#ffffff" /><polygon
     points="56.9737,80.22992 57.03049,80.50792 57.13213,80.60955 57.32643,80.51688 57.32643,80.2628 57.17796,80.11035 57.07234,80.04758 56.84217,80.04758 56.7794,80.07448 "
     id="polygon42"
     transform="matrix(0.66662489,0,0,0.66662489,-0.80911756,0.07765939)"
     style="fill:#ffffff" /><polygon
     points="58.50717,80.32856 58.64169,80.44514 58.76125,80.44514 58.7224,80.23291 58.50119,79.99078 58.48027,79.78153 58.26803,79.77556 58.22618,79.79349 58.16341,79.71577 58.02889,79.58125 57.88342,79.60517 57.79573,79.66795 57.56556,79.74566 57.95715,80.14024 57.97808,80.03561 57.88342,79.93099 57.93025,79.79648 58.01096,79.7905 58.07672,79.89214 58.19928,79.94296 58.34874,80.11932 58.41451,80.23589 "
     id="polygon44"
     transform="matrix(0.66662489,0,0,0.66662489,-0.80911756,0.07765939)"
     style="fill:#ffffff" /><polygon
     points="61.25726,86.07386 61.25726,86.25919 61.1078,86.36082 61.1078,86.15755 "
     id="polygon46"
     transform="matrix(0.66662489,0,0,0.66662489,-0.80911756,0.07765939)"
     style="fill:#ffffff" /><polygon
     points="60.68931,87.19183 60.76702,87.28748 60.77301,87.62826 60.97627,87.86141 60.99421,87.7538 60.84475,87.5326 60.8567,87.2277 61.0241,87.20379 61.1078,87.26955 61.25726,87.30542 61.25726,87.19183 61.14965,87.08421 61.03606,87.04237 61.18253,86.94671 61.30509,86.83312 61.25726,86.68964 61.18253,86.68964 60.98225,86.86899 60.8567,87.04835 60.80888,86.86899 60.92247,86.68964 60.91051,86.53419 60.86268,86.36082 60.67735,86.70458 60.62354,86.85703 60.70724,87.09019 "
     id="polygon48"
     transform="matrix(0.66662489,0,0,0.66662489,-0.80911756,0.07765939)"
     style="fill:#ffffff" /><polygon
     points="60.80888,87.95707 60.66539,87.81956 60.53387,87.75978 60.62354,87.68206 60.74311,87.75978 60.83877,87.86141 "
     id="polygon50"
     transform="matrix(0.66662489,0,0,0.66662489,-0.80911756,0.07765939)"
     style="fill:#ffffff" /><polygon
     points="60.73116,88.27991 60.93442,88.37556 60.62354,88.41143 "
     id="polygon52"
     transform="matrix(0.66662489,0,0,0.66662489,-0.80911756,0.07765939)"
     style="fill:#ffffff" /><polygon
     points="62.24968,89.42179 61.98663,89.3082 61.84315,89.3082 61.74152,89.34407 61.57412,89.35005 61.25726,89.36799 61.1078,89.23646 61.05399,89.17966 60.8866,89.33212 61.01214,89.09298 61.44259,89.05711 61.55618,89.12287 61.76543,89.02123 61.98065,89.09895 62.22577,89.17667 62.48284,89.38592 62.48284,89.59517 62.38719,89.59517 "
     id="polygon54"
     transform="matrix(0.66662489,0,0,0.66662489,-0.80911756,0.07765939)"
     style="fill:#ffffff" /><polygon
     points="60.25288,89.59517 60.18711,89.56528 60.01972,89.52044 59.87026,89.3082 59.87026,89.24543 60.35452,89.24543 60.45914,89.45467 "
     id="polygon56"
     transform="matrix(0.66662489,0,0,0.66662489,-0.80911756,0.07765939)"
     style="fill:#ffffff" /><polygon
     points="59.07512,92.93713 58.63272,93.20017 58.63272,92.86538 58.81207,92.59037 59.15882,92.4708 59.37405,92.2795 59.92406,92.18384 60.45914,92.12405 60.34256,92.2795 59.8045,92.50668 59.33818,92.66212 "
     id="polygon58"
     transform="matrix(0.66662489,0,0,0.66662489,-0.80911756,0.07765939)"
     style="fill:#ffffff" /><polygon
     points="60.1911,91.7215 60.07552,91.861 59.76464,91.82513 59.87026,91.7215 "
     id="polygon60"
     transform="matrix(0.66662489,0,0,0.66662489,-0.80911756,0.07765939)"
     style="fill:#ffffff" /><polygon
     points="59.06317,91.93673 59.27441,92.09615 58.9436,92.09615 "
     id="polygon62"
     transform="matrix(0.66662489,0,0,0.66662489,-0.80911756,0.07765939)"
     style="fill:#ffffff" /><polygon
     points="56.48047,92.29543 56.65186,92.35522 57.02252,92.32333 57.18593,92.35522 57.38322,92.31138 57.77979,92.29145 57.97907,92.23964 58.09067,92.12405 58.28597,92.12405 58.28597,92.04832 58.03089,92.04832 57.88741,92.18782 57.49282,92.18782 57.30152,92.24362 57.1381,92.14597 56.86309,92.04832 56.60403,92.09615 56.48047,92.21572 "
     id="polygon64"
     transform="matrix(0.66662489,0,0,0.66662489,-0.80911756,0.07765939)"
     style="fill:#ffffff" /><polygon
     points="56.48047,92.98495 56.39279,92.8614 56.10582,92.86937 56.02611,92.81357 56.02611,92.694 56.1138,92.66212 56.48047,92.66212 56.67976,92.84147 56.76345,92.84147 56.891,92.98495 56.891,93.12843 56.80331,93.17228 56.61997,93.10851 "
     id="polygon66"
     transform="matrix(0.66662489,0,0,0.66662489,-0.80911756,0.07765939)"
     style="fill:#ffffff" /><polygon
     points="55.65545,92.24661 55.84078,92.35522 55.99024,92.24661 55.99024,92.07024 55.72719,92.09615 55.63153,92.09615 55.53588,92.01644 55.34457,92.01644 55.55381,92.23167 55.34457,92.26156 55.21304,92.139 54.94401,92.17188 54.81846,92.35522 54.81846,92.47678 55.07554,92.47678 55.28478,92.40504 55.51794,92.35522 "
     id="polygon68"
     transform="matrix(0.66662489,0,0,0.66662489,-0.80911756,0.07765939)"
     style="fill:#ffffff" /><polygon
     points="54.43584,92.09615 54.37008,92.29743 54.28638,92.35522 54.4478,92.41102 54.56139,92.41102 54.70487,92.12405 54.63313,92.04832 "
     id="polygon70"
     transform="matrix(0.66662489,0,0,0.66662489,-0.80911756,0.07765939)"
     style="fill:#ffffff" /><polygon
     points="52.65426,91.42458 52.88144,91.45447 53.16841,91.31696 52.61242,91.31696 52.53469,91.35283 52.43306,91.31696 52.05044,91.25718 51.91891,91.19141 51.53629,91.13761 51.39879,91.13761 51.26726,91.3349 50.77703,91.29903 50.25092,91.21532 50.25092,91.07185 50.12538,90.92836 50.02374,90.98814 49.85037,90.92836 49.66504,90.86858 49.49764,90.79684 49.40199,90.86858 48.95958,90.79684 48.82207,90.94032 48.58891,91.24522 48.63674,91.26913 48.84599,91.18543 48.94762,91.2512 49.06121,91.3349 49.15687,91.51425 49.28241,91.54115 49.62319,91.54115 49.80254,91.66969 50.04168,91.73545 50.45419,91.6936 50.80094,91.70556 51.05204,91.83709 51.35096,91.9447 51.69771,92.01644 52.27762,92.01644 52.61839,92.08818 52.88144,92.01644 53.07874,92.14796 53.28798,92.20177 53.43744,92.04832 53.61082,92.07623 53.6706,92.15395 53.80811,92.22968 53.9217,92.28547 54.11301,92.17188 54.0592,92.01644 53.84398,91.93673 53.71843,92.01644 53.52712,91.98655 53.47331,91.79125 53.24613,91.75937 52.80373,91.79125 52.61242,91.62186 "
     id="polygon72"
     transform="matrix(0.66662489,0,0,0.66662489,-0.80911756,0.07765939)"
     style="fill:#ffffff" /><polygon
     points="59.79652,88.52103 59.27441,88.52103 59.06317,88.58481 58.97548,88.52901 58.97548,88.46524 59.109,88.37756 59.27441,88.46524 "
     id="polygon74"
     transform="matrix(0.66662489,0,0,0.66662489,-0.80911756,0.07765939)"
     style="fill:#ffffff" /><polyline
     points="59.17477,86.63184 59.34216,86.68764 59.109,87.02244 58.97548,87.22969 58.63272,87.33332   58.22618,87.24564 57.54863,87.22172 57.11021,87.28549 56.93484,87.22969 56.7515,87.23766 56.55222,87.51665 56.59207,87.91522   56.86309,88.20219 57.04644,88.27991 57.18195,88.2261 57.38322,87.95707 57.51674,88.03479 57.80371,87.95707 58.03487,87.95707   58.09864,87.81956 58.33778,87.81956 58.36169,87.99493 58.05082,88.0587 57.9153,88.21813 57.69211,88.34567 57.47688,88.54495   57.26963,88.48118 57.38322,88.64857 57.62834,88.91163 57.84356,89.24543 57.72399,89.4203 57.85153,89.59517 58.04284,89.75658   58.01893,89.86021 57.78776,89.9479 57.66022,89.99572 57.60442,90.19501 57.38322,90.05152 57.38322,89.74861 57.04644,89.4203   57.07035,89.24543 57.15006,88.9196 56.95078,88.95148 56.74353,89.02123 56.63193,89.17468 56.75947,89.46962 56.72758,89.81239   56.67976,90.49792 56.35294,90.58559 56.18554,90.37834 56.33699,89.92398 56.32902,89.59517 56.25728,89.38194 56.07394,89.38194   55.91451,89.24543 55.99024,88.95148 56.12974,88.67249 56.23336,88.48118 56.14568,88.34567 56.20945,88.09856 56.44062,87.89928   56.42467,87.68206 56.48047,87.44492 56.54424,87.26157 56.85513,87.01447 56.97469,86.94273 57.03846,86.80721 57.166,86.79128   57.54065,86.93475 57.84356,86.95867 58.17038,87.00649 58.48126,87.01447 58.7204,87.06229 58.87983,86.87895 59.05519,86.75938   "
     id="polyline76"
     transform="matrix(0.66662489,0,0,0.66662489,-0.80911756,0.07765939)"
     style="fill:#ffffff" /><polygon
     points="57.82762,90.16312 57.82762,90.37038 57.98705,90.58559 58.23415,90.44212 58.15444,90.21095 58.28597,90.03558 58.21024,89.93195 58.11459,89.97181 58.1385,90.15515 58.05679,90.16312 57.98705,90.04355 "
     id="polygon78"
     transform="matrix(0.66662489,0,0,0.66662489,-0.80911756,0.07765939)"
     style="fill:#ffffff" /><polygon
     points="53.28798,84.97382 53.76625,84.86621 54.11301,84.7586 54.04126,84.55533 54.11301,84.47163 54.35215,84.39989 54.55541,84.00531 54.9739,83.65856 55.12536,83.93357 55.225,83.94553 55.29674,84.19662 55.48805,84.36402 55.71125,84.36402 55.88263,84.51547 56.10184,84.55932 56.06995,84.65896 55.90654,84.76657 55.63153,84.7028 55.56378,84.7865 55.73516,84.99375 55.59566,85.09339 55.43624,85.09737 55.26087,85.08542 55.1971,85.33652 55.15724,85.49594 55.21703,85.58761 55.08949,85.66334 55.07753,85.82674 55.20906,85.8945 55.46414,86.23328 55.32066,86.42459 55.46812,86.57206 55.67538,86.69163 55.80292,86.84707 55.84277,87.00251 55.68335,87.00251 55.54784,86.93874 55.38044,86.96664 55.21703,87.20179 55.13731,87.46484 55.0576,87.84348 54.946,88.02682 54.69092,88.22211 54.52751,88.41343 54.5594,88.68445 54.5036,88.99533 54.42787,89.21852 54.3083,89.39389 54.14091,89.52542 53.838,89.64897 53.66661,89.64897 53.55502,89.4203 53.45737,89.32613 53.13652,89.34208 52.98906,89.20258 52.80173,89.18266 52.50281,89.3381 52.12019,89.25838 52.0046,89.0312 51.74952,89.07504 51.57814,89.13084 51.20349,89.07903 51.14371,88.74423 51.12378,88.56488 51.03211,88.4772 51.12378,88.21414 51.01617,88.11052 50.94044,88.05074 50.8129,88.16233 50.7571,87.85942 50.6176,87.56448 50.56977,87.32136 50.50202,87.26157 50.50202,86.85504 50.57376,86.65377 50.69732,86.49235 50.8129,86.45648 51.13573,86.57605 51.30313,86.57605 51.50271,86.63184 51.68575,86.54416 51.82525,86.04596 52.2836,85.93037 52.67818,85.82276 52.91732,85.51188 53.09667,85.38036 "
     id="polygon80"
     transform="matrix(0.66662489,0,0,0.66662489,-0.80911756,0.07765939)"
     style="fill:#ffffff" /><polygon
     points="49.16285,89.07105 48.96357,89.07105 48.79218,88.83989 48.63076,88.62965 48.42152,88.60872 48.50123,88.40944 48.58891,88.40944 48.72443,88.47321 48.72443,88.40944 48.85994,88.40944 48.90776,88.55293 48.97951,88.72032 49.02733,88.84786 49.16285,88.91163 "
     id="polygon82"
     transform="matrix(0.66662489,0,0,0.66662489,-0.80911756,0.07765939)"
     style="fill:#ffffff" /><polygon
     points="49.71884,89.11988 49.76368,89.24244 50.01477,89.1976 50.0626,89.04515 49.94602,88.90765 "
     id="polygon84"
     transform="matrix(0.66662489,0,0,0.66662489,-0.80911756,0.07765939)"
     style="fill:#ffffff" /><polygon
     points="48.25811,88.83989 48.16245,88.74025 48.20629,88.59676 48.03889,88.59676 47.99904,88.40944 47.9273,88.17828 47.81171,88.09059 47.58055,88.03877 47.44105,87.83152 47.44105,87.5605 47.58055,87.44093 47.54866,87.31738 47.41315,87.21375 47.2338,87.35325 47.07038,87.35325 47.15807,87.24564 47.11821,87.13005 47.14611,87.01447 47.24177,87.01447 47.178,86.90287 46.93886,86.867 46.77147,86.867 46.52435,86.59996 46.46058,86.40466 46.32109,86.49235 46.14174,86.29705 45.91455,86.29705 45.56382,85.99813 45.30076,85.71117 45.03373,85.53978 44.77068,85.37238 44.59531,85.22093 44.57538,85.06947 44.44385,85.00172 44.38407,84.84628 44.2087,84.69084 43.81412,84.64301 43.55505,84.67091 43.44744,84.61511 43.31592,84.48757 43.1525,84.43974 42.99308,84.50352 43.04888,84.76258 43.25215,84.99773 43.5152,85.24086 43.71049,85.38434 43.89782,85.48 44.16486,85.77493 44.28443,85.93037 44.33225,86.16553 44.57538,86.27314 44.92611,86.48837 44.99786,86.8391 45.05764,87.09418 45.12141,87.31738 45.37251,87.40506 45.54389,87.60434 45.73121,87.90725 45.83085,88.11052 45.94644,88.25799 45.96238,88.36161 46.06601,88.56488 46.08992,88.6964 46.21347,88.86779 46.35297,89.07105 46.58812,89.32215 46.79139,89.46165 46.85516,89.62107 47.07437,89.83231 47.33743,90.03159 47.52076,90.16312 47.7041,90.28269 47.89143,90.46204 48.0668,90.66531 48.13455,90.53777 48.34978,90.58559 48.45739,90.47002 48.51319,90.51385 48.65667,90.62546 48.72443,90.48994 48.76827,90.23486 48.76827,89.62904 48.71645,89.46564 48.85197,89.19063 48.58891,88.94351 48.6487,88.87177 48.51319,88.81199 "
     id="polygon86"
     transform="matrix(0.66662489,0,0,0.66662489,-0.80911756,0.07765939)"
     style="fill:#ffffff" /><polygon
     points="45.13935,88.36958 45.07956,88.49513 44.78662,88.17229 44.98391,88.03479 "
     id="polygon88"
     transform="matrix(0.66662489,0,0,0.66662489,-0.80911756,0.07765939)"
     style="fill:#ffffff" /><polygon
     points="44.27845,86.80323 44.14095,86.71953 43.99148,86.71953 44.1529,86.89888 44.27845,87.10215 44.39802,87.13204 44.39802,86.94671 "
     id="polygon90"
     transform="matrix(0.66662489,0,0,0.66662489,-0.80911756,0.07765939)"
     style="fill:#ffffff" /><polygon
     points="8.59305,67.19389 9.20285,67.03846 9.29851,66.78736 9.5496,66.58409 9.14307,66.71562 8.74849,66.73953 8.59305,66.88899 8.46153,66.9428 8.46153,67.03846 "
     id="polygon92"
     transform="matrix(0.66662489,0,0,0.66662489,-0.80911756,0.07765939)"
     style="fill:#ffffff" /><polygon
     points="46.54428,83.87379 46.37688,83.7303 45.92252,83.7303 45.82687,83.38355 45.64751,82.82955 45.49207,82.64223 45.42033,82.46885 45.13935,82.40308 45.13935,81.95171 45.19315,81.59002 45.36055,81.04897 45.51599,80.66933 45.55186,80.2628 45.50403,80.12729 45.81491,79.94395 46.06202,80.07149 46.07796,80.43816 46.65189,80.45411 46.93089,80.7331 47.10626,80.75702 47.24974,81.13167 47.30554,81.45052 47.57656,81.39472 47.54468,81.6498 47.80773,81.63386 48.12658,81.80125 48.32586,81.9846 48.27006,82.15199 48.18238,82.70998 48.27803,82.78172 48.59689,82.46287 48.95559,82.30344 49.09908,82.18388 49.09908,82.02445 49.17879,82.00053 49.22662,81.87299 49.28241,81.72154 49.68098,81.68169 50.0078,81.51429 50.41434,81.22733 50.60565,80.94035 50.66145,80.31062 50.5897,79.94395 50.66145,79.78452 50.56579,79.5135 50.43825,79.13885 50.38245,78.96348 50.15128,78.72434 49.88026,78.38955 49.63315,78.26998 49.48967,78.07867 49.15487,77.71199 49.09908,77.46488 48.90776,77.3214 48.71645,77.06631 48.64471,76.81921 48.76428,76.42065 48.97153,76.2373 49.16285,76.06991 49.26647,75.79889 49.4817,75.67931 49.73678,75.63149 49.85635,75.36047 50.04766,75.36047 50.29477,75.25684 50.66145,75.44018 50.83681,75.33656 51.00421,75.4641 50.9245,75.69526 51.00421,75.95831 51.11581,76.08585 51.21943,76.07788 51.27523,75.94237 51.14769,75.83077 51.21943,75.68729 51.339,75.63149 51.41872,75.47206 51.59409,75.38438 51.96076,75.36844 52.24773,75.16916 52.33541,75.22495 52.63832,75.16916 52.80572,75.03365 52.80572,75.12133 52.98109,74.96987 53.02891,74.78654 53.02891,74.61117 53.1724,74.71479 53.29197,74.81045 53.50719,74.68291 53.74633,74.61117 54.08112,74.69088 54.34417,74.61117 54.63911,74.48363 54.95796,74.13289 55.22898,73.88578 55.38044,73.82998 55.49203,73.62273 55.67538,73.54301 55.90654,73.2401 55.96234,73.14445 56.058,73.23214 56.058,73.00097 56.18554,72.9372 56.31308,72.81763 56.36888,72.4669 56.31308,72.26761 56.43265,72.1321 56.56019,72.19587 56.70367,71.98862 56.82324,71.88499 56.87904,71.73354 57.04644,71.45454 57.18195,71.27917 57.25369,71.37483 57.42109,71.27917 57.3334,71.0799 57.42109,70.93641 57.34934,70.73713 57.42109,70.6893 57.59645,70.8009 57.59645,70.60162 57.51674,70.41827 57.74791,70.20305 57.39717,70.12334 57.18195,70.04362 57.00658,70.09145 56.95875,69.96391 57.17398,69.75666 57.49282,69.69289 57.48486,69.42984 57.19789,69.26244 56.95875,68.97548 57.17398,69.03127 57.46094,69.26244 57.49282,69.01534 57.2776,68.6646 57.01455,68.50517 56.99063,68.28995 56.81527,67.8595 56.67976,67.46094 56.40076,67.3637 56.2254,67.17397 56.09785,67.11817 56.16162,66.84715 56.34496,66.56815 56.81527,66.22539 56.94281,65.97031 57.5008,65.67537 57.64428,65.53986 57.74791,65.61957 57.87545,65.59566 57.92327,65.36449 57.66819,65.29275 57.28557,65.29275 57.15006,65.17318 56.84715,65.03767 56.40076,65.5558 56.2254,65.5 55.98626,65.46812 55.92249,65.24492 56.03408,65.07752 55.91451,64.87027 55.46015,64.87027 55.21304,64.71085 55.1971,64.34417 55.27681,64.24851 55.36449,64.04923 55.48407,63.98546 55.64349,64.15285 55.73915,64.02531 55.91451,64.06517 56.01814,63.93763 56.29713,63.54704 56.62396,63.37167 56.86309,63.17239 57.05441,62.91731 57.34137,62.7818 57.59645,62.7818 57.77182,63.02094 57.73196,63.33979 57.49282,63.66661 57.25369,63.81009 57.26963,63.91372 57.49282,63.92169 57.46891,64.04126 57.32543,64.22459 57.2218,64.27242 57.34934,64.32025 57.62037,64.12097 57.99502,63.81009 58.35373,63.63472 58.72837,63.60284 58.98346,63.53907 59.111,63.73038 59.50159,63.78618 59.50159,64.09705 59.39796,64.25648 59.50159,64.39996 59.40593,64.53548 59.25448,64.60722 59.24651,64.7507 59.36607,64.93404 59.55738,64.98984 59.70884,64.8623 59.87624,65.02969 60.07552,64.89419 60.12334,65.10144 60.26683,65.30869 60.26683,65.52392 60.09943,65.73117 60.14726,65.99422 60.21103,66.42467 60.09146,66.74352 60.03566,67.24571 60.15523,67.3637 60.34654,67.18991 60.54582,67.23774 60.60959,67.01454 60.81685,66.90295 61.11179,67.01454 61.27121,67.07034 61.27121,66.97469 61.20744,66.84715 61.51832,66.86309 61.6618,66.60801 61.6618,65.96233 61.6618,65.57971 61.59803,65.30869 61.39078,64.98186 61.17556,64.63113 61.00019,64.36808 60.67336,64.113 60.57771,63.98546 60.64148,63.84198 60.68134,63.61081 60.93642,63.43544 61.21541,63.33979 61.46252,63.10065 61.72557,62.90934 61.82123,62.7818 61.82123,62.47092 61.87703,62.18395 62.09225,61.94481 62.31544,61.72162 62.62633,61.60205 62.76184,61.33102 62.96909,61.07594 63.09663,61.02074 63.17634,61.1158 63.30388,61.07594 63.34374,61.30711 63.53505,61.41871 63.7981,61.49045 64.21261,61.33102 64.61118,61.02074 64.938,60.74912 65.16119,60.3107 65.51192,59.95996 65.71918,59.65706 66.00615,59.30632 66.33297,58.93167 66.50037,58.59688 66.73153,58.07077 66.95473,57.85555 67.10618,57.4809 67.50475,57.00661 67.58446,56.79537 67.6562,56.57217 67.6562,56.17361 67.75983,55.99027 67.64823,55.80693 67.712,55.62359 67.712,55.36054 67.71997,54.93009 67.81563,54.7627 67.81563,54.46776 67.88737,54.41196 67.88737,54.22862 68.07071,54.16485 68.20621,53.85397 68.1265,53.65469 68.07867,53.25613 67.97505,53.0967 67.84751,52.9293 68.02288,52.9851 68.1265,53.02496 68.25404,52.9293 68.1823,52.81771 67.61634,52.27566 67.56851,52.12421 67.32938,51.92492 67.03444,52.04449 66.81124,52.00463 66.72356,52.55465 66.58805,52.56263 66.61993,52.28363 66.46848,52.47494 66.18948,52.59451 65.98223,52.58654 66.2134,52.25972 66.08586,52.12421 66.11774,51.98869 66.02209,51.92492 65.91049,52.05246 65.9902,52.14812 65.91846,52.31552 65.66338,52.33943 65.67135,51.8213 65.59961,51.5423 65.43221,51.61404 65.13728,51.61404 64.89017,51.46259 64.90611,51.18359 65.16916,51.03214 65.53584,50.69735 65.5757,50.56184 65.72715,50.51401 65.89455,50.35458 66.10977,50.1553 66.43659,49.77268 66.46848,49.5734 66.61993,49.41397 66.78733,49.22266 67.04241,48.97555 67.35329,48.70453 67.52866,48.44945 67.69605,48.38568 67.75983,48.16248 67.83954,48.04291 67.91925,47.8516 68.20621,47.67624 68.42941,47.45304 68.62869,47.13419 68.85986,46.91099 69.2664,46.79142 69.69685,46.7436 70.17513,46.7436 70.62949,46.6878 70.7092,46.92693 70.83674,46.95085 71.04399,46.63997 71.25922,46.73563 71.5143,46.81534 71.75343,46.79142 71.97663,46.70374 72.22374,46.87114 72.36722,46.79142 72.27157,46.63997 72.36722,46.56823 72.43896,46.62403 72.49476,46.41677 72.74187,46.34503 73.02884,46.42474 73.22015,46.5204 73.32378,46.65591 73.4274,46.65591 73.52306,46.52837 73.77814,46.56823 73.92959,46.79142 74.21656,46.87114 74.10496,46.9907 73.73031,47.02259 73.68248,47.23782 73.77016,47.3255 74.09698,47.27767 74.37598,47.16607 74.53541,47.24578 74.67092,47.05447 74.83035,46.91099 75.06948,46.95085 75.18108,47.1023 75.30065,47.02259 75.42819,46.92693 75.71516,46.94288 75.79487,46.82331 75.66733,46.632 75.40427,46.66388 75.22891,46.62403 75.19702,46.48851 75.28471,46.40083 75.24485,46.20155 75.42819,45.98632 75.63544,45.69936 75.90646,45.46819 76.19344,45.17326 76.26517,44.97397 76.58402,44.70295 76.58402,44.36816 76.8391,44.20076 77.08621,44.03336 77.30941,44.08119 77.54058,44.03336 78.00291,43.9138 78.19422,44.1609 78.42539,44.04133 78.64062,43.9138 78.69641,44.1051 78.59279,44.41599 78.44133,44.6073 78.46525,44.90223 78.69641,44.93412 78.62467,45.14137 78.57684,45.39645 78.73627,45.27688 78.90366,45.22108 79.15077,44.91817 79.54934,44.44787 79.80442,44.20076 80.04356,44.17685 80.13124,44.25656 80.20298,44.22467 80.1153,44.08119 80.08341,43.9138 80.20298,43.53117 80.2827,43.15652 80.70517,43.03695 80.91243,42.95724 81.13562,43.15652 81.34287,43.22029 81.29504,43.41957 81.08779,43.32392 80.74503,43.51523 80.6972,44.14496 80.52184,44.40801 80.67329,44.67904 80.42618,44.89426 80.50589,45.10949 80.17907,45.23703 79.54934,45.68342 79.50151,45.92255 78.76019,46.66388 78.41742,47.07839 78.29785,47.27767 78.16234,47.53275 77.60435,48.09074 77.46883,48.23422 77.19781,48.25814 77.04636,48.44148 76.76736,48.41756 76.73548,48.58496 76.81519,48.81613 76.75142,48.94367 76.56808,49.20672 76.51228,49.36615 76.24923,49.58934 76.17749,49.90819 76.07386,50.41038 76.08183,51.38288 76.20937,52.02855 76.32894,52.92133 76.43257,53.54309 76.53619,53.93369 76.56808,54.57936 76.69563,54.81052 77.07027,54.4837 77.46087,53.99746 77.62827,53.67063 77.58044,53.39961 77.77174,53.10467 78.08263,52.86553 78.40147,52.85756 78.33771,52.58654 78.31379,52.21189 78.5609,51.90898 78.90366,51.60607 79.17469,51.63796 79.4218,51.59013 79.60514,51.33505 79.45368,51.04808 79.35802,50.75315 79.49354,50.37053 79.58122,50.0995 79.92399,49.99588 80.06747,50.11544 80.19501,50.13936 80.29066,50.01979 80.27473,49.78065 80.20298,49.58137 80.01965,49.54151 79.98776,49.15092 79.98776,48.86395 80.1711,48.64076 80.21095,48.45742 79.90804,48.32988 79.78848,48.52119 79.61311,48.43351 79.52542,48.21828 79.56528,47.88349 79.70876,47.55667 80.07544,47.18201 80.0595,47.03853 80.21893,46.80737 80.19501,46.55228 80.33849,46.20155 80.55372,46.04212 80.74503,46.02618 80.91243,45.93053 81.20737,46.26532 81.26316,45.96241 81.58202,45.75516 81.86101,45.56385 81.89289,46.00227 81.8371,46.15372 81.86101,46.28923 82.06826,46.07401 82.1958,45.84284 82.28349,45.61965 82.44291,45.64356 82.75379,45.48413 83.04076,45.38848 83.36758,45.42834 83.67846,45.52399 83.8618,45.7711 83.94948,45.95444 84.1647,46.05009 84.23645,45.79501 84.30819,45.57182 84.51544,45.49211 84.80241,45.23703 85.04155,45.11745 85.193,44.79861 85.28069,44.71092 85.39228,44.76672 85.50388,44.68701 85.45605,44.51961 85.70316,44.47976 85.82273,44.28047 85.90244,44.07322 86.10172,44.08916 86.18143,43.98553 86.42058,43.96162 86.58797,43.81017 86.79523,43.76234 87.73584,43.15652 87.79163,42.90144 88.0228,42.86159 88.0228,43.02898 88.1344,43.14855 88.41339,43.21232 88.69239,43.33986 88.91559,43.44349 88.98733,43.26812 89.17066,43.06087 89.13081,42.86159 89.06704,42.43114 88.7163,42.1362 88.67645,41.80938 88.73225,41.71372 88.62065,41.25936 88.53297,41.04414 88.45325,41.04414 88.30977,41.17965 88.0228,40.87674 87.98295,40.54195 87.75975,40.62963 87.69598,40.7492 87.58438,40.70934 87.35322,40.39049 87.3293,40.19121 87.48872,40.25498 87.72787,40.31875 87.9112,40.31875 87.85541,40.19121 87.62424,40.12744 87.59235,40.02381 87.84743,40.02381 87.99091,40.19918 88.19817,40.51006 88.8837,40.46223 89.17066,40.29483 89.43372,40.02381 89.64097,39.7767 89.73663,39.33031 89.5772,39.139 89.52937,38.69261 89.62503,38.51724 89.68082,38.6129 89.80039,38.5571 89.92793,38.32593 89.99968,38.45347 90.14316,38.42159 90.23882,38.32593 90.3265,38.47739 90.11925,38.92378 90.3265,39.21074 90.28664,39.41002 90.37433,39.48974 90.72507,39.48177 91.09972,39.28249 91.36276,39.39408 91.68162,39.60931 91.79321,39.93613 91.74538,40.15932 92.01641,40.37455 92.27946,40.40643 92.49469,40.56586 92.67005,40.67746 92.80556,40.94051 92.92513,40.93254 93.11645,40.78905 93.11645,41.04414 93.30775,41.02819 93.30775,40.77311 93.46718,40.89268 93.58675,40.77311 93.45921,40.67746 93.31573,40.61369 93.35558,40.44629 93.41936,40.25498 93.58675,40.19918 93.69038,40.08758 93.69038,39.59182 93.4911,39.3622 93.41138,39.24263 93.51501,39.15495 93.69038,39.24263 93.7382,39.37814 94.02517,39.43394 94.22445,39.418 94.30417,39.3622 94.12083,39.13103 94.08097,39.01146 94.16068,39.00349 94.25634,39.13103 94.41576,39.24263 94.50345,39.28249 94.59113,39.16291 94.59113,38.94769 94.8223,38.78029 95.00564,38.74044 94.86215,38.54913 94.59113,38.32593 94.25634,38.02302 94.06503,37.68026 93.9614,37.54475 93.79401,37.48895 93.31573,37.57663 93.14036,37.36938 92.94108,37.32155 92.67005,37.39329 92.76571,37.72808 92.70194,37.96722 92.90919,38.16651 92.83745,38.30202 92.64614,38.19839 92.51063,38.31796 92.44686,38.11071 92.15989,37.9194 92.27946,37.6404 92.22366,36.86719 92.08815,36.9469 92.02438,36.61211 91.94467,36.46862 91.75336,36.37297 91.64973,36.58022 91.53813,36.51645 91.55408,36.22949 91.45842,36.10195 91.33885,36.14977 91.19537,36.04615 91.17943,35.90266 90.87652,35.67947 90.83666,36.11789 90.55767,36.31717 90.48592,36.1976 90.71709,36.03818 90.69318,35.81498 90.69318,35.67947 90.741,35.58381 90.66927,35.58381 90.55767,35.58381 90.48592,35.38453 90.24679,35.30482 90.12722,35.14539 90.08736,34.94611 89.67286,34.66712 89.47357,34.61132 89.32212,34.45189 89.13081,34.23667 88.92355,34.10116 88.74818,34.10116 88.70036,33.85405 88.33368,33.85405 88.20614,33.71056 87.98295,33.591 87.70395,33.53519 87.61626,33.43954 87.40104,33.32794 87.30539,33.16055 87.24959,33.29606 87.01045,33.26417 86.58,33.2004 86.27709,33.16055 86.1655,33.10475 85.91042,33.10475 85.81476,33.10475 85.87056,33.28809 85.73306,33.27214 85.47,33.05692 85.02161,32.9792 84.72269,32.85963 84.28627,32.85963 84.26235,33.36182 84.10691,33.56509 84.35801,33.66672 84.46562,34.22272 84.53139,34.41403 84.38192,34.58142 84.11289,34.80263 83.84386,34.87437 83.64059,34.77274 83.58081,34.4499 83.32971,34.28848 83.17428,34.19283 82.98895,34.17489 82.94112,33.61889 82.8634,33.42759 82.97101,33.37976 83.17428,33.51128 83.50309,33.59498 83.60472,33.23029 83.53298,33.0629 83.0009,32.92539 82.76774,33.13464 82.64219,33.40965 82.26555,33.79227 81.87695,33.71455 81.69162,33.63683 80.96822,33.60694 80.70517,33.39769 80.59158,33.39769 80.46603,33.46943 80.10135,33.48139 79.96384,33.55313 79.77851,33.48737 79.33611,33.95369 79.34209,34.71295 79.16273,34.93415 79.12088,34.74882 79.21654,34.42599 79.17469,33.98358 79.28828,33.7564 79.25838,33.62487 79.13882,33.69064 79.08501,33.88792 79.09697,34.32435 79.10295,34.43196 78.9774,34.34827 78.96545,33.60694 78.70239,33.46346 78.28988,33.21834 78.25999,33.02105 78.44532,32.55473 78.43336,32.36342 78.33173,31.9808 78.12846,31.7596 77.8116,31.47263 76.96266,31.19164 76.10774,31.19164 75.03162,31.55035 75.14521,31.84927 75.07347,31.91504 74.93597,31.70579 74.91205,31.52644 74.43975,31.61013 73.91365,31.38893 73.93756,31.2574 74.05713,31.25143 73.96745,30.96446 73.75821,30.72532 73.58483,30.62369 73.37559,30.815 73.30385,30.74326 73.16634,30.83891 73.13047,30.72532 73.32178,30.53999 73.22613,30.4264 73.08862,30.53999 73.08264,30.47423 73.11253,30.37259 72.96906,30.19324 72.41904,30.15139 72.44893,29.94214 72.68806,29.76877 72.76579,29.9003 72.88535,29.88236 73.01688,29.72094 72.94514,29.60137 72.91525,29.49974 72.69405,29.28452 72.46687,29.16495 72.12011,29.02744 71.46846,29.02744 71.1815,29.43398 70.95432,29.79268 70.67332,30.09758 70.47006,30.19922 70.19505,30.12748 70.18309,29.93019 70.27875,29.85845 70.24287,29.66714 70.35049,29.70301 70.48799,29.71496 70.63148,29.62529 70.58963,29.49376 70.55376,29.30843 70.64343,29.15299 70.83475,29.17093 70.91247,29.32636 70.78692,29.54159 70.77496,29.70898 70.97823,29.49974 71.13965,29.24267 71.21139,29.08722 71.10976,28.99755 70.88257,28.99755 70.65539,29.0394 70.35049,29.11712 70.07249,29.21277 69.92602,29.10516 70.07249,28.92581 70.20103,28.75841 70.38038,28.7883 70.65539,28.88396 70.99018,28.90787 71.17551,28.872 70.96029,28.75841 70.60757,28.60297 70.07249,28.44753 69.49557,28.33992 69.01131,28.28013 68.49717,28.28013 68.23412,28.05295 67.95313,27.99915 68.05476,28.26818 68.19227,28.4834 67.97704,28.63286 67.76182,28.7345 67.43898,28.69863 67.27158,28.72254 67.02049,29.00951 67.05636,29.21875 67.16995,29.28452 67.40311,29.1231 67.52866,29.20082 67.33137,29.64322 67.42702,29.96606 67.48681,30.42042 67.27757,30.5101 67.14603,30.61173 67.00256,30.42042 66.78733,30.1753 66.78733,30.62369 66.70363,30.62369 66.6857,30.40249 66.60798,30.30683 66.47645,30.36662 66.39873,30.55793 66.37482,30.83891 66.18351,30.88674 66.04601,30.63564 65.86067,30.57586 65.77697,30.4264 65.6036,30.45629 65.50196,30.28292 65.05358,30.23509 64.77857,30.44434 64.47367,30.70141 64.31225,30.72532 64.09702,30.58184 63.90572,30.42042 63.60679,30.07367 63.46929,29.77475 63.34374,30.00193 63.1883,30.43238 63.06873,30.82098 62.95514,31.35306 62.81166,31.69981 62.63231,31.76557 62.4948,31.66992 62.43502,31.45469 62.35132,31.55633 62.11816,31.29925 61.80728,30.92261 61.6638,30.62967 61.60401,30.33672 61.50835,30.25303 61.37085,30.21715 61.4127,30.1215 61.56814,30.07965 61.63988,29.90627 61.5801,29.9003 61.50238,30.00193 61.36487,30.02584 61.20345,29.75083 61.17954,29.58942 61.25128,29.61931 61.2752,29.69703 61.32302,29.62529 61.29911,29.50572 61.17356,29.44593 60.9404,29.24267 60.8567,29.15299 60.77898,28.96168 60.46212,28.87798 60.26484,28.872 60.35452,29.15299 60.42028,29.40408 60.46212,29.57746 60.56376,29.7329 60.5518,29.94812 60.49202,30.01389 60.55778,30.18726 60.5817,30.48619 60.70724,31.14381 60.66539,31.28132 60.56974,31.2873 60.56376,31.09599 60.498,30.90468 60.45017,30.49814 60.40832,30.13346 60.37843,29.77475 60.1632,29.48778 59.95396,29.32038 59.81645,29.09918 59.73873,29.00353 59.8045,28.90787 59.85232,29.01548 59.95993,28.93777 60.00776,28.78232 59.90613,28.63286 59.7746,28.51329 59.8882,28.38177 59.98983,28.27416 60.06157,28.30405 60.09744,27.92741 60.04363,27.92741 59.99581,28.05295 59.93602,27.99915 59.98385,27.81381 60.23494,27.53881 60.33658,27.47902 60.46212,27.38935 60.58767,27.45511 60.51593,27.62251 60.36647,27.77794 60.30071,27.98719 60.22299,28.0948 60.15722,28.25024 60.19907,28.36383 60.28277,28.1785 60.34853,28.05295 60.43223,27.90947 60.50397,28.00513 60.47408,28.18448 60.36049,28.33992 60.30669,28.41166 60.3306,28.50732 60.46212,28.38775 60.56376,28.20241 60.68931,28.17252 60.85072,28.10078 61.04802,28.10078 61.1078,27.94534 61.28117,27.81979 61.45455,27.74207 61.59205,27.75403 61.6638,27.80784 61.68173,27.70022 61.60999,27.56272 61.49042,27.485 61.39476,27.64044 61.28117,27.70022 61.21541,27.60457 61.31704,27.42521 61.29313,27.2638 61.14367,27.2638 61.05399,27.37739 60.93442,27.46109 60.73713,27.52685 60.7192,27.44913 60.76105,27.36543 60.92844,27.3176 61.03008,27.19803 61.03606,27.06651 60.91051,27.12031 60.84475,27.03662 60.7192,26.96487 60.75507,26.86324 60.68931,26.71976 60.56376,26.83933 60.498,26.71976 60.36049,26.77356 60.33658,26.98879 60.18114,27.04857 60.22299,27.37141 60.15125,27.38337 59.98983,27.13825 59.95993,26.97683 60.0257,26.82737 59.91211,26.71976 59.79852,26.86922 59.63112,26.89911 59.53547,26.71976 59.36807,26.64204 59.35013,26.51051 59.15882,26.39094 58.88979,26.25942 58.71642,26.5404 58.61478,26.54638 58.45934,26.38496 58.46532,26.58823 58.38162,26.83335 58.44141,27.19205 58.51913,27.49098 58.3876,27.79588 58.27999,27.84969 58.14846,27.77794 57.94519,27.53283 57.87346,27.60457 58.04085,27.80186 58.19031,27.92143 58.32782,27.92143 58.4713,28.041 58.56696,28.10078 58.80011,28.14263 59.01534,28.28611 59.14089,28.35188 59.3322,28.52525 59.51753,28.65678 59.53547,28.76439 59.47568,28.81222 59.35611,28.68667 59.11697,28.50732 58.81207,28.35188 58.62076,28.24426 58.45337,28.2622 58.35173,28.29209 58.20825,28.1785 57.94519,28.04697 57.64029,27.92143 57.40714,27.81979 57.06238,27.88356 56.75947,27.80385 56.67976,27.55674 56.40076,27.41326 56.16959,27.57268 55.93843,27.5408 55.67538,27.34949 55.64349,26.94295 55.75509,26.80744 55.81886,26.69584 55.69132,26.64802 55.26087,26.65599 54.8623,26.59222 54.63911,26.42482 54.43983,26.49656 54.2804,26.37699 53.89778,26.41685 53.72241,26.58425 53.29994,26.61613 53.01297,26.77556 53.27602,27.09441 53.10863,27.15818 53.08471,27.42123 52.98109,27.44514 52.85355,27.27775 52.94123,27.17412 52.78978,26.9589 52.82963,26.6241 52.8934,26.50453 52.7818,26.19365 52.63832,25.89075 52.59846,26.32916 52.43904,26.38496 51.98468,26.35308 51.80134,26.09003 51.68974,25.96249 51.81728,25.73929 51.7296,25.69943 51.57017,25.91466 51.42669,25.89075 51.24335,25.73929 51.01218,25.86683 50.94841,26.07409 50.80493,26.2096 50.86073,26.40091 51.16364,26.33714 51.37089,26.18568 51.51437,26.25742 51.5064,26.40091 51.11581,26.65599 51.08392,26.79947 50.7571,26.92701 50.12737,27.19803 50.07157,27.34949 49.54547,27.51689 49.19473,27.485 49.01139,27.45312 48.96357,27.75602 49.18676,27.86762 49.45778,27.95531 49.40995,28.07487 49.2027,28.03502 49.00342,27.93139 48.83603,27.87559 48.68457,28.09879 48.6208,28.22633 48.3418,28.27416 48.07875,28.53721 47.9273,28.65678 47.69613,28.77635 47.68816,28.60895 47.82367,28.42561 48.04687,28.32198 48.19832,28.1227 48.46935,28.03502 48.69254,27.82776 48.7324,27.61254 48.84399,27.43717 48.86791,27.19803 49.02733,27.06252 49.28241,27.04658 49.33024,26.79947 49.37807,26.52048 49.70489,26.46468 50.0078,26.38496 50.14331,26.26539 50.2868,26.00234 50.43028,25.78712 50.56579,25.58784 50.74913,25.58784 50.9245,25.35667 50.97232,25.10159 51.17161,24.94216 51.25132,24.711 51.35495,24.7668 51.5622,24.63128 51.79337,24.38417 51.99265,24.38417 52.0883,24.19286 52.30353,23.92184 52.49484,23.85807 52.73397,23.52328 53.01297,23.03703 53.01297,22.71021 52.85355,22.59064 52.78978,22.31961 52.71803,22.47904 52.65426,22.59861 52.53469,22.53484 52.55861,22.31961 52.54267,22.12033 52.33541,21.95294 52.38324,21.85728 52.59049,21.99279 52.71803,22.15222 52.8934,22.2957 53.06877,22.30367 53.15645,22.1283 53.14051,21.74568 52.94123,21.67394 52.92529,21.19567 52.86152,21.04421 52.71803,21.04421 52.72601,21.23552 52.64629,21.38698 52.55861,21.38698 52.54267,21.16378 52.43904,21.04421 52.54267,20.73333 52.4789,20.35868 52.41513,20.16737 52.22382,20.07172 51.96076,20.07172 51.618,19.78475 51.45857,19.86446 51.29118,19.78475 51.13175,19.92026 50.88464,19.9362 50.77304,19.82461 50.43028,19.92823 50.18317,19.92823 50.1194,19.86446 49.92809,19.88838 49.88823,20.23114 49.80852,20.40651 49.4817,20.39057 49.34618,20.51014 49.09908,20.41448 49.07516,20.26303 49.23459,20.11954 49.2585,19.84852 49.52155,19.52967 49.52953,19.2427 49.18676,19.08328 48.95559,19.08328 48.71645,19.27459 48.63674,19.21082 48.69254,19.08328 48.70051,18.93979 48.565,19.03545 48.26209,19.05936 47.88744,19.01154 47.90339,18.86805 48.24615,18.76443 48.50123,18.6608 48.60486,18.4376 48.75631,18.27021 48.94762,18.33398 48.81211,18.11875 48.74834,17.80787 48.57297,17.90353 48.37369,17.80787 48.18238,17.55279 48.07875,17.49699 47.94324,17.49699 47.86353,17.40134 47.71207,17.47308 47.55265,17.65642 47.32945,17.61656 47.03835,17.9673 46.67581,18.40572 46.41276,18.80428 46.30116,19.01154 46.28522,19.26662 46.10985,19.38619 46.10985,19.6333 46.2613,19.84852 46.12579,20.30288 46.18956,20.39057 46.45261,20.46231 46.69175,20.58985 46.9548,20.66159 46.93089,20.80507 46.65189,20.75725 46.46058,20.62173 46.19753,20.56594 46.04608,20.47825 46.01419,20.36665 45.87868,20.41448 45.81491,20.51014 45.50403,20.47028 45.40041,20.55796 45.13935,20.52608 45.06561,20.40651 44.9301,20.47028 45.01778,20.72536 45.2091,20.87681 45.39243,21.04421 45.42432,21.24349 45.35258,21.34712 45.2091,21.24349 45.15329,21.05218 44.9301,21.0761 44.86633,20.95653 44.77068,21.06812 44.54748,21.24349 44.54748,21.37901 44.30834,21.37901 44.36414,21.61814 44.21268,21.56234 44.03732,21.55437 43.99746,21.37103 43.76629,21.47466 43.76629,21.56234 43.93369,21.5464 43.90978,21.64206 43.81412,21.66597 43.71049,21.8254 43.63078,21.77757 43.70252,21.7138 43.67064,21.61814 43.52716,21.61814 43.35179,21.68988 43.25613,21.74568 43.25613,21.63408 43.35179,21.52249 43.42353,21.35509 43.25613,21.24349 43.00902,21.18769 42.95322,21.29132 42.80177,21.24349 42.61843,21.17972 42.56263,21.30726 42.44306,21.24349 42.21987,21.29132 42.21987,21.40292 42.06044,21.41089 41.96479,21.46669 41.86913,21.33915 41.81333,21.36306 41.81333,21.50655 41.69376,21.51452 41.62999,21.80945 41.72565,21.72974 41.8213,21.59423 41.90102,21.658 41.98073,21.78554 42.08435,21.84134 41.8771,21.96888 41.49448,22.04859 41.03215,22.22396 41.03215,22.35947 40.67344,22.3515 40.45821,22.38338 40.37053,22.47107 40.09951,22.50295 40.05168,22.66238 39.86834,22.78992 39.70094,22.67832 39.41398,22.95732 39.22267,23.22834 39.08716,23.45951 38.84005,23.52328 38.60888,23.45154 38.43351,23.45951 38.39366,23.54719 38.53714,23.63487 38.79222,23.65879 38.8241,23.77836 38.75236,23.85807 38.58496,23.75444 38.58496,23.92184 38.45742,24.09721 38.39366,24.25663 38.39366,24.55157 38.298,24.47186 38.21829,24.34432 38.01104,24.20881 37.87552,24.25663 37.77987,24.42403 37.83567,24.50374 38.05089,24.53563 38.2422,24.75085 38.39366,24.96608 38.32191,25.03782 38.20235,24.88636 38.03495,24.84651 37.89146,24.93419 37.77987,25.10159 37.8835,25.22913 38.14655,25.24507 38.29003,25.30884 38.32989,25.59581 38.40163,25.70741 38.22626,25.86683 38.32191,25.9306 38.47337,25.88277 38.43351,26.01829 38.30199,26.05017 37.89944,26.07807 37.66827,26.2375 37.5487,26.41685 37.36935,26.34909 37.22586,26.29329 36.81933,26.40091 36.53635,26.54838 35.6077,26.5683 35.17326,26.69186 34.92615,26.73171 34.96202,26.86723 34.84644,27.02665 34.84644,27.19006 34.97797,27.30963 34.87832,27.44116 35.04174,27.6524 35.03376,28.16654 34.96601,28.32597 35.05768,28.44952 35.06963,28.6767 35.12145,28.79229 35.27689,28.88794 35.64755,28.97961 35.81894,29.13107 35.86676,29.34629 35.9664,29.46188 36.02619,29.69703 36.30518,29.74884 36.46859,29.8445 36.52439,30.05573 36.58019,30.24705 36.5204,30.39053 36.37692,30.70141 36.34903,30.90866 36.46859,31.25143 36.58816,31.68188 36.6599,32.18805 36.59613,32.32755 36.43272,32.44313 36.22149,32.49495 36.31714,32.76198 36.52439,32.88155 36.61208,33.07685 36.80737,33.28809 36.96281,33.46744 37.09035,33.42759 37.24181,33.24026 37.35739,33.2562 37.35739,33.37178 37.28166,33.4236 37.11028,33.59896 37.04253,33.65875 36.84723,33.63085 36.78346,33.45947 36.53635,33.18047 36.48454,33.2841 36.38091,33.19243 36.42076,33.01706 36.34105,32.92141 36.10191,32.83771 35.9664,32.65437 35.99032,32.50292 36.09394,32.40726 36.15373,32.18407 36.17764,31.86123 36.2733,31.71376 36.2175,31.53042 36.10989,31.54636 35.9664,31.6181 36.05409,31.68985 35.97836,31.79347 35.92655,31.94493 35.86278,32.05956 35.75118,32.02464 35.77111,31.8971 35.83886,31.76557 35.82292,31.54636 35.77111,31.40687 35.78307,30.87279 35.98235,30.65757 36.1896,30.538 36.15771,30.40249 36.21351,30.27495 36.3291,30.13146 36.17764,30.05972 36.00626,30.01987 35.78307,30.13545 35.39646,30.08762 35.11746,29.72891 34.93014,29.46586 34.6631,29.29448 34.42795,29.07527 34.30041,28.96766 33.83807,28.91983 33.53915,28.9836 33.36777,29.15498 33.23226,29.22672 33.1645,29.30245 33.1645,29.39013 33.35581,29.33434 33.52719,29.39811 33.63481,29.65717 33.47937,29.8724 33.1924,29.8724 33.04892,29.6771 32.86558,29.47782 32.67427,29.5376 32.43114,29.81261 32.5547,30.15538 32.66231,30.35466 32.87754,30.54597 33.06087,30.67749 33.25617,30.78909 33.39567,30.68547 33.43951,30.78511 33.64278,30.84888 33.70655,31.15178 33.7464,31.37897 33.64278,31.46665 33.45147,31.35505 33.37973,31.15577 33.31994,31.08801 32.98913,31.02424 32.33549,30.9804 32.20396,30.88873 31.98475,30.70141 31.96482,30.54597 32.05251,30.41444 32.05251,30.1753 31.92497,30.04776 31.92497,29.63724 32.03656,29.52963 32.11229,29.21078 32.15215,29.03541 32.06446,28.77236 32.14019,28.56909 32.02062,28.39372 31.97678,28.13865 31.78148,27.91943 31.65394,27.69225 31.56626,27.55674 31.38691,27.61254 31.35104,27.73211 31.51046,27.84769 31.68184,28.04299 31.78946,28.28213 31.86518,28.61294 31.8612,29.14302 31.76156,29.39013 31.57822,29.59739 31.23944,29.76478 31.0282,29.94812 30.99632,30.1753 30.93254,30.33473 30.76515,30.5101 30.81297,30.6496 31.02421,30.85685 31.17567,31.14381 31.25937,31.55433 31.43075,31.73369 31.49053,32.0087 31.37495,32.28371 31.19161,32.69423 31.12386,33.12468 31.04414,33.34389 31.15574,33.59896 31.23944,33.80223 31.18364,34.11311 31.1956,34.26058 31.26335,34.32037 31.42676,34.22471 31.60213,34.33232 31.76953,34.32435 31.917,34.2287 32.06048,34.07326 32.471,34.09717 32.75,34.27254 32.98116,34.43196 33.26414,34.58342 33.36378,35.14141 33.46741,35.38055 33.55111,35.54794 33.49929,35.67947 33.2482,35.83889 33.25219,36.27333 33.40364,36.40884 33.61089,36.3929 33.8301,36.4766 33.86597,36.67189 33.70256,36.69979 33.54712,36.65993 33.31596,36.79943 33.20834,36.64399 33.18842,36.48058 33.02102,36.28529 33.01703,35.79107 33.07682,35.69143 33.01703,35.4762 33.0529,35.25301 32.80181,34.98597 32.68623,34.87437 32.67028,34.55951 32.39527,34.56349 32.08838,34.67509 31.78547,34.81857 31.57025,35.0059 31.49053,35.39649 31.57822,35.5878 31.69779,35.85085 31.74163,36.12586 31.6938,36.43275 31.32314,36.8911 31.25139,37.26575 31.19958,37.473 30.94849,37.752 30.76515,37.8357 30.41441,38.15854 30.36658,38.42956 30.27491,38.5571 29.9999,38.48934 29.8086,38.34985 29.40605,38.40564 29.17089,38.34187 28.9198,38.19042 28.71653,38.03897 28.60095,38.00708 28.60095,37.8078 28.31,37.92737 28.24224,38.03099 28.1426,37.87157 28.20238,37.74801 28.48935,37.6683 28.60892,37.62844 28.71255,37.72012 28.84806,37.78389 28.88393,37.94331 29.01944,38.08281 29.13901,38.05092 29.0593,37.8915 29.0035,37.7241 29.06328,37.59258 29.17089,37.68026 29.31039,37.86758 29.44989,38.05491 29.65714,37.9752 29.89229,37.84766 29.88432,37.752 29.81258,37.51685 29.90425,37.41322 30.03976,37.45308 30.17527,37.39329 30.17129,37.18604 30.31079,37.01864 30.43035,36.8074 30.55192,36.56627 30.7492,36.33909 30.82095,36.12984 30.73725,35.8369 30.81497,35.62766 31.03019,35.33471 31.00628,35.14938 30.72529,34.9222 30.49811,34.5874 30.43235,34.34229 30.48615,33.69661 30.45028,33.39171 30.53996,33.22432 30.45626,33.01507 30.48615,32.69223 30.3905,32.54277 30.50409,32.23787 30.56387,32.00471 30.56387,31.59818 30.48615,31.13784 30.18125,30.78511 30.04973,30.47423 30.25299,30.16933 30.37256,29.88834 30.49213,29.39213 30.60572,29.02146 30.56387,28.66276 30.53996,28.37579 30.49811,28.23829 30.22908,28.12469 29.81059,27.98121 29.57743,28.00513 28.90784,28.02306 28.81219,27.88556 28.6149,28.19644 28.47739,28.72254 28.41163,29.19484 28.35782,29.69703 28.23825,29.9541 28.08879,30.259 27.98118,30.40249 27.46703,30.82696 27.31159,31.10956 27.31159,31.26338 27.39529,31.36502 27.31159,31.45469 27.31159,31.63405 27.64041,31.65198 27.70617,31.83134 27.59258,31.99275 27.65236,32.19602 27.5866,32.39331 27.56269,32.54875 27.61052,32.72213 27.65834,32.88952 27.38931,33.09279 27.31159,33.34389 27.37138,33.70857 27.49095,33.86401 27.59856,33.76836 27.57465,33.61889 27.44312,33.60694 27.4192,33.45748 27.52682,33.43356 27.6703,33.5053 27.90346,33.61889 28.06488,33.70259 28.02465,33.99554 28.1426,34.25859 28.23825,34.47979 28.37576,34.6173 28.57903,34.55751 28.63283,34.66512 28.56109,34.98198 28.42957,35.22112 28.33989,35.47221 28.2263,35.68744 28.13662,35.72929 27.77468,36.58992 26.78062,38.00566 25.47905,39.03246 23.13186,40.14602 22.16072,41.62114 21.77244,44.03627 21.0592,45.80665 20.40075,46.2439 20.11875,46.75367 20.5041,47.42032 21.52878,47.34804 21.73125,47.81082 21.71693,48.1257 20.22271,49.5584 20.14043,50.17029 20.40074,50.41395 20.63213,50.84781 21.06599,51.03581 22.00601,50.78996 22.64233,50.78996 22.9605,51.16597 22.93157,51.70105 22.4688,52.74231 22.4688,53.06047 22.62787,53.37863 23.58959,54.01857 23.89329,54.19211 23.82821,54.34396 24.11021,54.34396 24.16445,54.47412 24.56577,54.66935 24.43561,55.05982 23.91242,55.20543 23.62659,55.02576 23.32442,55.33609 23.28358,55.1646 22.98141,55.12376 22.76091,54.77259 22.40157,54.77259 22.26273,55.00126 22.00957,54.78076 21.84623,54.89509 21.69923,54.81342 21.28273,55.30342 20.67839,54.85426 20.71922,55.21359 20.59673,55.30342 20.56406,54.97675 19.95156,54.44592 19.51872,54.47859 19.45339,54.19275 19.11856,54.33975 19.04506,54.47858 18.87357,54.46225 18.8654,54.32342 18.50606,54.19275 18.50606,54.35608 17.80372,54.81342 17.81189,55.01758 17.33822,55.25442 17.50156,55.75259 17.19939,55.86692 16.75839,55.37692 16.42355,55.82608 16.41538,56.38142 16.17039,57.08376 16.52972,57.19809 16.48889,57.56559 16.66855,57.67176 16.70939,57.52476 17.10139,57.67993 17.54239,58.4231 17.26472,58.55376 17.56689,58.78788 17.80386,58.76427 18.07488,58.53311 18.57707,58.24614 18.93578,58.18237 19.11912,58.33383 19.39811,58.38963 19.57348,58.30991 19.71696,58.46137 19.71696,58.74833 19.66116,58.82804 19.73291,59.02733 19.79668,59.0911 19.74088,59.26646 19.54957,59.36212 19.50971,59.48966 19.11912,59.46575 18.86404,59.56937 18.6807,59.88823 18.98361,60.17519 18.70461,60.1991 18.6249,60.14331 18.25822,60.12736 18.25025,60.26287 18.48939,60.34259 18.65678,60.57375 18.80824,60.85275 18.87201,61.13971 19.10317,61.15566 19.19086,61.37088 19.50971,61.37088 19.63326,61.49842 19.63326,61.68973 19.50572,61.85713 19.50174,62.10424 19.55754,62.30352 19.65718,62.40715 19.62928,62.23975 19.72892,62.02851 20.00791,61.87706 20.18727,61.94083 20.34271,62.19192 20.70939,62.66621 20.72931,62.92926 20.52605,62.84557 20.52206,62.88144 20.60576,63.03289 20.46626,63.02094 20.18328,62.93724 20.08364,62.94919 19.99197,63.01296 19.8166,62.98905 19.76479,62.85752 19.69703,62.9213 19.65319,63.14449 19.69305,63.44341 20.17133,63.46334 20.2072,63.55501 20.08364,63.62276 20.12748,64.03329 20.28292,64.20068 20.33075,64.31228 20.27097,64.45576 20.27097,64.7228 20.26698,65.22499 20.2909,65.40434 20.39054,65.68334 20.30285,65.73515 20.10756,65.6953 19.86842,65.73914 19.39413,65.87067 19.08723,65.89857 18.86802,65.81487 18.58903,65.71921 18.36982,65.58768 18.27018,65.40434 18.02307,65.29275 17.70422,65.20905 17.53682,65.05759 17.52885,64.77461 17.48301,64.54544 17.48899,64.23456 17.57269,64.04325 17.68628,64.00738 17.72813,63.86988 17.78194,63.71444 17.85368,63.39758 18.00912,63.24214 18.25423,63.24214 18.30206,63.20029 18.20043,63.1405 18.00912,63.08072 17.87161,63.02691 17.65639,62.6981 17.51291,62.40516 17.43519,62.25569 17.33953,62.17199 16.99278,62.56059 16.6281,62.48288 16.55635,62.33939 15.73133,61.90894 15.80905,61.67578 15.37262,61.46654 15.03185,61.52632 14.6851,61.53828 14.66118,61.4486 13.96768,61.08392 13.45354,61.11381 12.78395,60.86271 12.64644,60.98228 12.83775,61.11979 13.1845,61.27523 13.4356,61.44262 13.53125,61.616 13.54919,61.78938 13.65082,62.10025 13.54321,62.36929 13.27418,62.62636 12.9095,62.79973 12.70025,62.87745 12.3535,62.76984 12.04262,62.76984 11.79152,62.87745 11.53445,62.82365 11.20564,62.73995 10.85291,62.53668 10.66757,62.62038 10.42844,62.28558 10.03984,62.27961 9.95016,62.04645 9.54363,62.12417 9.07133,62.0584 8.83219,62.06438 8.45555,62.24971 8.19847,62.43505 7.86966,62.69212 7.18811,62.66223 6.59027,62.65027 6.387,62.52472 6.1658,62.32146 6.01036,62.02253 5.56795,61.96873 5.17935,62.26167 5.28697,62.48288 5.1375,62.63234 5.1375,62.79375 5,62.96115 5.17338,63.01496 5.33479,63.03289 5.23914,63.15246 5.13153,63.28997 5.13153,63.46932 5.04185,63.63074 5.05381,63.80411 5.2511,63.80411 5.41251,63.79813 5.37066,63.97151 5.45436,64.2226 5.49621,64.37804 5.44241,64.46772 5.48425,64.60522 5.41251,64.65903 5.32881,64.59327 5.26903,64.48566 5.20925,64.50359 5.19131,64.68295 5.2511,64.74273 5.41251,64.74273 5.4723,64.80251 5.63969,64.93404 5.68154,65.05959 5.59785,65.14926 5.64567,65.22101 5.83698,65.43623 5.82503,65.53786 5.93862,65.59167 6.18373,65.5558 6.12395,65.71124 6.387,65.71124 6.52451,65.81287 6.6381,65.77103 6.67397,65.90255 6.82343,66.05799 6.97887,66.14169 7.17018,66.0819 7.3854,66.05799 7.45117,65.85472 7.54084,65.68135 7.82781,65.69928 8.09684,65.80092 8.31206,65.98027 8.53925,66.20745 8.7724,66.22539 8.96969,66.13571 9.1909,66.12973 9.38221,65.99821 9.62732,65.777 9.72298,65.69331 9.83059,65.72917 9.99799,65.8607 10.1893,65.80092 10.39257,65.69331 10.50616,65.61559 10.56594,65.69331 10.54203,65.86269 10.35869,66.04604 10.37065,66.16161 10.44239,66.24133 10.37862,66.45655 10.34275,66.58409 10.44239,66.78338 10.45036,67.19389 10.38659,67.3637 10.26303,67.58848 10.19528,67.78776 10.05578,68.03487 9.92824,68.29792 9.86845,68.48923 9.81266,68.78416 9.73693,69.01534 9.65323,69.15483 9.51772,69.40592 9.82461,70.45813 9.90433,70.64944 9.80867,70.98424 9.81664,71.35889 10.00795,71.3828 10.16738,71.62991 10.37463,72.00456 10.6058,72.26761 10.69348,72.55458 10.87682,72.67415 11.01233,72.98502 11.14784,73.17634 11.11596,73.43939 11.27538,73.63867 11.57032,73.81404 11.84932,74.11695 12.05657,74.53146 12.18411,74.9619 12.12831,75.11336 12.12034,75.2409 12.26382,75.51989 12.19208,75.56772 12.32759,75.79889 12.44716,75.9902 12.67833,76.10179 12.95732,76.26122 13.17255,76.58804 13.30806,76.81921 13.34792,77.0424 13.4914,77.20183 13.63488,77.51271 13.87402,77.69605 14.00953,77.95113 14.17693,78.33375 14.19287,78.62868 14.12113,79.01928 14.28853,79.26639 14.39215,79.70481 14.48781,80.10337 14.55955,80.38237 14.62332,80.43816 14.8784,80.48599 15.30088,80.36642 15.67553,80.16714 15.90669,80.05555 16.38497,80.03163 16.75962,79.82438 17.04659,79.77655 17.10238,79.68089 17.37341,79.68887 17.62052,79.44973 17.89154,79.31422 18.21039,79.25842 18.48939,79.08305 18.95172,78.97942 19.16694,78.85188 19.3184,78.82 19.39811,78.41347 19.60537,78.2381 19.98001,78.17432 20.24307,78.07867 20.57786,77.99099 20.82497,78.00693 20.97642,77.86345 21.00831,77.68011 21.15976,77.50474 21.50253,77.48879 21.74167,77.27357 21.94095,76.95472 22.18806,76.89892 22.3714,76.86703 22.34748,76.54819 22.38734,76.20542 22.41922,75.87063 22.51488,75.80685 22.62648,75.91048 22.65836,76.05397 22.83373,75.94237 23.01707,75.64743 23.12867,75.47206 23.24824,75.43221 23.39969,75.16119 23.51926,74.93002 23.4794,74.83436 23.33592,74.75465 23.08084,74.46768 22.85765,74.17274 22.37937,74.10101 22.00472,73.95752 21.69384,73.5191 21.59021,73.15242 21.58224,72.64227 21.42282,72.76981 21.11194,73.12851 20.74526,73.45533 20.65757,73.60679 20.49815,73.65462 20.34669,73.86187 19.97204,73.88578 19.61334,73.82998 19.2068,73.93361 18.98361,73.75027 18.90389,73.71838 18.87201,73.50316 18.99955,73.35171 19.00752,72.80169 18.90389,72.70603 18.71258,72.72994 18.59301,72.97706 18.56113,73.19228 18.53721,73.38359 18.37779,73.11256 18.13865,72.74589 18.25822,72.47487 18.06691,72.16399 17.53284,71.75745 17.42124,71.4386 17.2937,71.14366 17.15021,70.84872 16.95093,70.64944 16.95093,70.50596 17.19804,70.42625 17.42124,70.18711 17.62849,70.02769 17.92343,70.20305 18.07488,70.06754 18.21836,70.12334 18.44156,70.54581 18.55316,70.7451 18.76838,71.02409 18.86404,71.35091 19.05535,71.52628 19.33434,71.59006 19.40608,71.68571 19.54957,71.74948 19.58942,71.86108 19.92422,72.03645 20.25104,72.17993 20.69743,72.37921 20.8728,72.33936 21.19165,72.09225 21.55833,71.96471 21.78152,71.96471 21.99675,72.15601 22.16414,72.79372 22.48299,72.8814 22.79387,72.92923 23.02504,72.96111 23.11273,73.02488 23.24026,73.01691 23.35983,72.96909 23.49535,73.02488 23.78231,73.11256 23.89391,73.00894 23.97362,73.12054 24.2845,73.25605 24.52364,73.19228 24.89032,73.16039 25.40048,73.16039 25.56788,73.06474 25.8389,73.12851 26.15775,73.12851 26.65994,73.05677 27.25779,73.01691 27.29764,73.26402 27.38533,73.36765 27.58461,73.39156 27.68824,73.84592 27.76795,73.92564 28.01506,73.97346 28.1426,74.11695 28.27811,74.10898 28.40565,74.38797 28.63682,74.54739 28.89987,74.61117 29.13901,74.54739 29.29046,74.49957 29.34626,74.56334 29.29046,74.69088 28.99553,74.88219 28.88393,74.94596 28.57305,74.90611 28.76436,75.1851 29.03538,75.4641 29.28249,75.72714 29.49771,75.8228 29.81657,75.78294 30.11947,75.6554 30.30281,75.32858 30.28687,75.0735 30.39847,74.99379 30.65355,74.94596 30.58181,75.04958 30.51804,75.14524 30.56587,75.47206 30.66152,75.86266 30.70935,76.06991 30.65355,76.18151 30.59775,76.36485 30.70935,76.82718 30.83689,76.86703 30.77312,77.05038 30.72529,77.2656 30.86877,77.64025 30.96443,78.33375 31.09197,78.63666 31.49053,79.4019 31.61807,79.80047 31.72967,80.01569 31.76156,80.30266 32.00867,80.82079 32.16012,80.98818 32.37534,81.52226 32.5826,82.07228 32.71014,82.54258 32.90145,82.7897 33.02899,82.90926 33.2761,82.981 33.50727,82.82158 33.61089,82.57447 33.99352,82.31939 34.10511,81.96068 34.24859,81.77734 34.36816,81.75343 34.51962,81.8172 34.51962,81.28312 34.45585,81.13167 34.51962,80.9563 34.63121,80.68528 34.7189,80.40628 34.76673,80.19903 34.6073,79.95989 34.6631,79.76061 34.65513,79.1787 34.63121,78.91566 34.73484,78.74029 34.91818,78.64463 35.1334,78.71637 35.245,78.50114 35.33269,78.39752 35.59574,78.38955 35.78705,78.26998 35.87473,78.22215 35.86676,78.1265 35.80399,78.07767 35.87872,77.97305 36.15971,77.74288 36.5214,77.4051 36.94288,77.13308 37.19796,76.75544 37.42913,76.53224 37.48493,76.34093 37.65233,76.33296 37.6603,76.41267 37.94727,76.35687 38.11466,76.26122 38.20235,76.08585 38.43351,75.83875 38.34583,75.70323 38.36974,75.50395 38.53714,75.35249 38.84005,75.25684 39.03933,75.03365 39.11904,75.0177 39.11107,75.28873 39.23064,75.34452 39.50964,75.31264 39.78066,75.21698 40.09951,75.04958 40.18719,75.16119 40.25096,75.10538 40.33068,75.0177 40.41039,75.1293 40.52198,75.00176 40.4901,74.71479 40.39444,74.4358 40.26691,74.33815 39.96798,74.14684 39.69297,74.00934 39.63319,73.88976 39.85439,73.94357 39.92015,73.82998 39.88428,73.6865 39.84243,73.31583 39.89026,72.9631 39.9919,72.67614 40.2131,72.56255 40.30278,72.6044 40.24299,72.69408 40.10549,72.78375 40.02179,72.9093 39.97396,73.15442 39.9919,73.49519 40.03374,73.80607 40.03374,74.00934 40.2131,74.13488 40.44626,74.24847 40.49409,74.44576 40.63757,74.73871 40.80497,74.78056 40.88866,74.65501 40.97834,74.71479 41.06204,74.94197 41.10389,75.35448 41.16965,75.52188 41.45662,75.88657 41.61206,76.08386 41.92294,76.30506 42.19197,76.72356 42.43111,77.12411 42.56861,77.48879 42.58654,77.90729 42.49089,78.20023 42.40719,78.4035 42.43111,78.57687 42.6822,78.68449 42.84362,78.61275 43.00504,78.71438 43.14254,78.65459 43.48929,78.24806 43.7643,78.16436 43.82409,77.92522 43.95561,77.92522 44.08116,78.12251 44.21866,78.56492 44.33823,78.85786 44.38008,79.21657 44.49965,79.41984 44.57737,79.85029 44.72086,79.99377 44.78064,80.29867 44.8464,80.46009 44.77466,80.57368 44.74477,80.65738 44.80455,80.75303 44.74477,80.84869 44.79857,80.93836 44.90021,81.00413 44.88825,81.30903 44.78064,81.53023 44.76868,81.9547 44.7627,82.1221 44.69694,82.21178 44.68498,82.47483 44.61922,82.75581 44.63715,83.1205 44.70292,83.07865 44.79259,82.8993 44.94804,83.08463 45.07956,83.24605 45.21109,83.3716 45.22305,83.50312 45.32468,83.49715 45.42033,83.69444 45.57577,83.87976 45.70132,84.10695 45.79697,84.35804 45.791,84.72871 45.95242,84.97382 46.14373,85.55971 46.3171,85.84667 46.43069,85.98418 46.67581,86.18745 46.90897,86.2831 47.10626,86.5043 47.41116,86.65377 47.52475,86.71953 47.79976,86.71953 47.8715,86.57605 47.69812,86.12168 47.40518,85.93037 47.40518,85.40427 47.46497,84.92599 47.2617,84.57925 46.87908,84.19662 46.63994,84.08901 "
     id="polygon94"
     transform="matrix(0.66662489,0,0,0.66662489,-0.80911756,0.07765939)"
     style="fill:#ffffff" /><polygon
     points="20.39452,80.64542 20.45431,80.48998 20.03581,80.57368 20.16734,80.64542 "
     id="polygon96"
     transform="matrix(0.66662489,0,0,0.66662489,-0.80911756,0.07765939)"
     style="fill:#ffffff" /><polygon
     points="76.2014,55.48011 76.35286,55.29677 76.35286,55.08952 76.20937,55.08952 76.13763,55.30474 75.89053,55.40438 75.81879,55.48011 75.8985,55.61562 "
     id="polygon98"
     transform="matrix(0.66662489,0,0,0.66662489,-0.80911756,0.07765939)"
     style="fill:#ffffff" /><polygon
     points="80.45408,47.54869 80.60952,47.15412 80.96822,47.02259 81.02801,47.28564 80.74104,47.28564 "
     id="polygon100"
     transform="matrix(0.66662489,0,0,0.66662489,-0.80911756,0.07765939)"
     style="fill:#ffffff" /><polygon
     points="66.01013,51.30317 66.10579,51.07598 66.2971,51.07598 66.41666,51.30317 66.30905,51.47056 "
     id="polygon102"
     transform="matrix(0.66662489,0,0,0.66662489,-0.80911756,0.07765939)"
     style="fill:#ffffff" /><polygon
     points="61.6618,28.91186 61.59803,28.73649 61.32701,28.73649 61.04004,28.56112 60.83279,28.56112 60.72916,28.64881 60.8009,28.76838 60.92844,28.8162 61.00816,28.95969 61.14367,28.95969 61.17556,28.8162 61.44658,28.88794 61.44658,28.99954 61.2473,29.0394 61.33498,29.10317 61.55817,29.19882 61.6618,29.10317 "
     id="polygon104"
     transform="matrix(0.66662489,0,0,0.66662489,-0.80911756,0.07765939)"
     style="fill:#ffffff" /><polygon
     points="59.18274,25.99437 59.03128,25.9306 58.87983,26.07409 59.07911,26.12988 "
     id="polygon106"
     transform="matrix(0.66662489,0,0,0.66662489,-0.80911756,0.07765939)"
     style="fill:#ffffff" /><polygon
     points="61.45455,27.85965 61.62194,27.97922 61.32701,28.01908 "
     id="polygon108"
     transform="matrix(0.66662489,0,0,0.66662489,-0.80911756,0.07765939)"
     style="fill:#ffffff" /><polygon
     points="61.52629,28.35387 61.39078,28.38575 61.25527,28.25821 61.32701,28.1785 "
     id="polygon110"
     transform="matrix(0.66662489,0,0,0.66662489,-0.80911756,0.07765939)"
     style="fill:#ffffff" /><polygon
     points="51.87109,25.14145 52.12816,25.0697 52.19392,24.68708 52.8097,24.85448 52.91732,25.00992 52.74394,25.35069 52.5885,25.57189 52.26566,25.50613 52.09229,25.31482 51.93685,25.26101 "
     id="polygon112"
     transform="matrix(0.66662489,0,0,0.66662489,-0.80911756,0.07765939)"
     style="fill:#ffffff" /><polygon
     points="29.09118,27.01469 29.13104,27.27376 29.09118,27.58066 29.25061,27.58066 29.33032,27.70022 29.86439,27.43717 29.98396,27.62848 30.04773,27.5687 29.97599,27.28572 29.80062,26.96687 29.62526,26.8473 29.38612,26.8473 "
     id="polygon114"
     transform="matrix(0.66662489,0,0,0.66662489,-0.80911756,0.07765939)"
     style="fill:#ffffff" /><polygon
     points="33.33987,28.97563 32.93333,29.05534 32.85362,28.97563 33.20436,28.52127 33.58698,28.57706 33.58698,28.68866 "
     id="polygon116"
     transform="matrix(0.66662489,0,0,0.66662489,-0.80911756,0.07765939)"
     style="fill:#ffffff" /><polygon
     points="34.31236,27.89153 34.31236,28.2343 33.98554,28.2343 33.85003,28.0669 33.85003,27.97922 34.06525,27.63645 34.19279,27.63645 "
     id="polygon118"
     transform="matrix(0.66662489,0,0,0.66662489,-0.80911756,0.07765939)"
     style="fill:#ffffff" /><polygon
     points="32.39328,27.39532 32.52481,27.27376 32.75199,27.39532 32.75199,27.54478 32.51883,27.54478 "
     id="polygon120"
     transform="matrix(0.66662489,0,0,0.66662489,-0.80911756,0.07765939)"
     style="fill:#ffffff" /><polygon
     points="38.34782,24.06532 38.38967,23.91586 38.46739,23.91586 38.46739,23.77836 38.25814,23.77836 38.12064,23.86206 38.0489,23.98162 38.24619,24.06532 "
     id="polygon122"
     transform="matrix(0.66662489,0,0,0.66662489,-0.80911756,0.07765939)"
     style="fill:#ffffff" /><polygon
     points="43.12461,21.04023 43.26809,21.16577 43.42353,21.16577 43.48929,21.2136 43.56104,21.15979 43.51321,21.04023 43.59093,20.93261 43.49527,20.89076 43.22624,20.92066 43.12461,20.96848 "
     id="polygon124"
     transform="matrix(0.66662489,0,0,0.66662489,-0.80911756,0.07765939)"
     style="fill:#ffffff" /><polygon
     points="90.06744,31.33512 89.75057,31.41882 89.54133,31.27534 89.3261,31.29925 89.24241,31.45469 88.77608,31.61013 88.7163,31.21556 88.94348,30.83294 89.30219,30.48619 89.69677,30.3427 90.07939,30.3427 90.31853,30.3427 90.50984,30.5938 90.78485,30.97642 90.5218,31.25143 "
     id="polygon126"
     transform="matrix(0.66662489,0,0,0.66662489,-0.80911756,0.07765939)"
     style="fill:#ffffff" /><polygon
     points="66.29311,30.22712 66.04601,30.22712 65.88657,30.33074 66.01411,30.46626 66.25326,30.53003 66.3808,30.3706 "
     id="polygon128"
     transform="matrix(0.66662489,0,0,0.66662489,-0.80911756,0.07765939)"
     style="fill:#ffffff" /><polygon
     points="69.35408,26.6799 69.11494,26.40091 68.88377,26.16177 68.64464,26.02626 68.26202,26.07409 68.04679,26.11394 67.97505,26.45671 67.89534,26.68389 67.66417,26.85527 67.43301,26.87121 67.43301,27.07049 67.73591,26.91904 67.96708,26.93498 68.23013,27.11832 68.62869,27.20601 69.05117,27.30166 69.27437,27.34152 69.42582,27.27775 69.37003,27.05455 "
     id="polygon130"
     transform="matrix(0.66662489,0,0,0.66662489,-0.80911756,0.07765939)"
     style="fill:#ffffff" /><polygon
     points="68.07071,25.36464 68.07071,25.69943 67.82359,25.97046 67.63229,25.66755 67.63229,25.36464 67.95113,25.26899 "
     id="polygon132"
     transform="matrix(0.66662489,0,0,0.66662489,-0.80911756,0.07765939)"
     style="fill:#ffffff" /><polygon
     points="65.4083,25.67552 65.19308,25.39653 65.00176,25.31681 65.00176,25.50015 65.13728,25.61972 65.20503,25.73132 65.23293,25.90669 65.4083,25.97046 "
     id="polygon134"
     transform="matrix(0.66662489,0,0,0.66662489,-0.80911756,0.07765939)"
     style="fill:#ffffff" /><polygon
     points="65.13728,22.43121 65.08147,22.67035 65.08147,22.92543 65.2967,22.81383 65.3525,22.4631 65.26482,22.1841 65.13728,22.00076 65.08147,22.26382 "
     id="polygon136"
     transform="matrix(0.66662489,0,0,0.66662489,-0.80911756,0.07765939)"
     style="fill:#ffffff" /><polygon
     points="68.00694,22.13428 67.99498,21.58426 68.07071,21.42883 68.32379,21.49459 68.32379,21.41089 68.28194,21.30926 68.32379,21.24947 68.545,21.41687 68.78413,21.6859 69.02925,21.95493 69.27437,21.96689 69.44176,21.8533 69.68688,22.00076 69.82439,22.1283 70.01569,22.25385 70.21896,22.39734 70.35049,22.51093 70.30864,22.64843 70.10537,22.82181 70.13526,23.13268 70.05157,23.39574 69.69884,23.6827 69.56731,23.56313 69.37003,23.58705 69.14882,23.43161 68.93958,23.04899 68.93359,22.768 69.13088,22.5169 69.17274,22.32559 69.19067,22.18211 69.0711,22.14026 68.77218,22.14624 68.67055,22.32559 68.62869,22.60658 68.67055,22.97725 68.80207,23.27617 68.9037,23.49737 69.13088,23.599 69.3222,23.71259 69.44176,23.7664 69.41785,23.92782 69.14882,23.96967 68.91566,24.10717 68.80207,24.10717 68.61674,23.93978 68.69446,23.77836 68.56891,23.73053 68.40749,23.78434 68.10857,23.90988 67.74986,24.04141 67.5167,24.10717 67.39115,23.86803 67.20583,23.86206 67.25963,24.10717 67.17593,24.28653 66.9906,24.4599 66.78733,24.33435 66.53623,24.24468 66.3808,24.04141 66.21938,23.71259 66.02807,23.59303 65.90252,23.30008 65.81882,23.13268 65.81882,23.01909 65.97426,22.86366 66.01611,22.72615 65.89056,22.52886 65.91447,22.41527 65.95632,22.33157 65.95035,22.14624 66.16557,22.05656 66.19547,21.91906 66.14165,21.81742 66.17155,21.70981 66.29112,21.57829 66.48243,21.50057 66.56015,21.31524 66.78733,21.14186 67.14006,21.38698 67.41507,21.66796 67.41507,21.84134 67.52268,21.93699 67.56453,22.05058 67.74388,22.05058 67.79769,22.19407 68.01292,22.34353 68.07071,22.25385 "
     id="polygon138"
     transform="matrix(0.66662489,0,0,0.66662489,-0.80911756,0.07765939)"
     style="fill:#ffffff" /><polygon
     points="73.11852,23.36584 73.27993,23.52128 73.35765,23.44954 73.45331,23.45552 73.38157,23.68868 73.30385,23.96369 72.80166,24.22076 72.4549,24.27457 71.9826,24.18489 71.61195,23.73651 71.42063,23.74249 70.87061,23.23432 70.95432,23.12073 70.95432,22.88757 71.00812,22.59462 71.16356,22.59462 71.16356,22.84572 71.40269,23.01311 71.55814,22.80387 72.20381,23.01311 72.20381,23.2403 72.4549,23.2403 72.57448,23.1566 72.91525,23.2403 "
     id="polygon140"
     transform="matrix(0.66662489,0,0,0.66662489,-0.80911756,0.07765939)"
     style="fill:#ffffff" /><polygon
     points="72.60636,19.69707 72.34331,19.77678 72.11214,19.98403 72.23171,20.13549 72.5107,20.05976 72.6781,19.83258 "
     id="polygon142"
     transform="matrix(0.66662489,0,0,0.66662489,-0.80911756,0.07765939)"
     style="fill:#ffffff" /><polygon
     points="49.10705,16.46073 48.95559,16.26942 48.89182,16.07811 48.89182,15.95057 49.10705,15.72737 49.16285,15.55998 49.28241,15.70346 49.28241,16.09405 49.53749,16.13391 49.79258,16.13391 49.83243,16.39696 49.64112,16.59624 49.54547,16.47667 "
     id="polygon144"
     transform="matrix(0.66662489,0,0,0.66662489,-0.80911756,0.07765939)"
     style="fill:#ffffff" /><polygon
     points="45.97433,16.46073 45.59172,16.73175 45.28881,16.73175 45.28881,16.44479 45.40041,16.07811 45.67143,15.55998 45.78303,15.08967 45.83883,14.67516 45.92651,14.53965 46.15768,14.61936 46.21547,14.57752 46.03014,14.32642 46.08394,13.97967 46.26927,13.90793 46.13775,13.74651 46.16764,13.60901 46.32308,13.56716 46.32906,13.44161 46.26927,13.35193 46.42471,13.19051 46.46656,12.99323 46.56222,12.9454 46.63994,13.11279 46.75951,13.22639 46.81331,13.13671 46.81331,12.76007 46.89103,12.67637 47.07637,12.84376 47.24376,13.02312 47.16006,13.22041 47.10626,13.334 47.07038,13.64488 46.99267,14.0813 46.89103,14.30251 46.97473,14.31446 47.08234,14.20685 47.14811,14.05739 47.18398,13.80032 47.38725,13.68075 47.51877,13.45955 47.66823,13.48944 47.78182,13.78836 47.91933,14.0275 48.01498,14.30251 48.05683,14.58349 48.12857,14.57154 48.17042,14.44001 48.22423,14.38621 48.36771,14.44001 48.42152,14.53567 48.49326,14.97807 48.49326,15.36069 48.22224,15.80709 47.95121,15.75129 47.69613,15.93463 47.35337,16.07811 47.17003,16.11796 47.09031,16.25348 46.93886,16.07811 46.69972,16.17376 46.21347,16.14188 "
     id="polygon146"
     transform="matrix(0.66662489,0,0,0.66662489,-0.80911756,0.07765939)"
     style="fill:#ffffff" /><path
     d="m 29.501089,9.1816424 0.03985,0.31086 -0.159417,0.191302 -0.342745,-0.02391 -0.298902,-0.01196 -0.04782,0.03587 -0.231152,-0.251078 -0.0279,-0.11558 -0.386582,0.0279 -0.04384,-0.143471 -0.111593,-0.05978 -0.10362,0.107606 -0.167383,-0.139491 0.01993,-0.127532 -0.111593,-0.111593 0,-0.486216 -0.175355,-0.03188 -0.02391,-0.09963 -0.09565,-0.04384 -0.06377,0.08369 0,0.09166 -0.04782,0 -0.07174,-0.08768 0.01993,-0.0558 0.143478,-0.131518 0.08767,-0.09565 0.01196,-0.09565 0.07572,-0.08369 0.159416,-0.09565 -0.09166,-0.151444 0.04384,-0.15543 0.07971,-0.08768 0.159417,-0.179342 0.08768,0.09166 0.05181,-0.09166 0.139485,-0.03188 0.159416,-0.02391 0.117566,0.03587 0.149451,-0.07971 0.107607,-0.07174 0.107606,0.02391 0.115573,0.08369 0.05181,0.08768 -0.01196,0.09166 -0.03587,0.175356 -0.111593,0.167383 -0.199268,0.135504 -0.20724,0.143471 0.03388,0.04384 0.141477,-0.05181 0.127532,-0.0837 0.127532,-0.06775 -0.0558,0.115579 0.0279,0.0279 c 0,0 0.06775,-0.04782 0.07971,-0.04782 0.01196,0 0.119565,-0.08369 0.119565,-0.08369 l 0.06376,-0.06377 -0.03587,-0.09565 -0.01594,-0.07572 0.06376,-0.07572 0.0558,0.08768 0.0558,-0.0558 0.008,-0.131518 -0.04384,-0.06377 0.0279,-0.04384 0.171369,-0.04384 0.115573,0.0558 -0.004,0.11558 0.07971,0.07174 0.09963,0.111593 0.05978,0.215214 -0.07572,0.131518 0.02391,0.111593 -0.03188,0.25905 -0.01594,0.370644 -0.01594,0.163403 -0.04782,0.06775 -0.129525,-0.105613 -0.01794,0.06178 0.08369,0.08967 0.08767,0.115579 0.07575,0.153424 z"
     id="path148"
     inkscape:connector-curvature="0"
     style="fill:#ffffff" /><polygon
     points="41.2952,12.79793 41.0999,12.71622 40.80098,12.52292 40.73721,12.36748 40.85678,12.36748 40.96041,12.51894 41.16367,12.5827 41.3789,12.6106 41.45462,12.63452 "
     id="polygon150"
     transform="matrix(0.66662489,0,0,0.66662489,-0.80911756,0.07765939)"
     style="fill:#ffffff" /><polygon
     points="41.72565,10.837 41.37491,10.79315 41.17165,10.6417 40.64554,10.6417 40.73721,10.78917 40.73721,10.95656 40.64554,11.01236 40.69735,11.20367 40.64554,11.40296 40.70931,11.44281 40.88866,11.51057 41.14375,11.54245 41.24339,11.63412 41.11584,11.72579 40.82489,11.72579 40.69337,11.67398 40.69337,11.80949 40.97635,12.02472 41.09592,11.9171 41.51042,11.9171 41.7655,11.80949 41.94884,11.61021 42.0724,11.3631 42.18798,11.1678 42.04051,11.08012 42.05646,10.91272 "
     id="polygon152"
     transform="matrix(0.66662489,0,0,0.66662489,-0.80911756,0.07765939)"
     style="fill:#ffffff" /><polygon
     points="44.11703,10.01595 44.0971,9.90834 44.00145,9.78877 43.98152,9.3384 43.93369,9.16701 43.9855,8.86809 44.05725,8.81229 44.13696,8.86012 44.4319,8.68077 44.34023,8.56917 44.36813,8.34996 44.18877,8.27822 43.94565,8.01118 43.76629,7.84777 43.73441,7.64052 43.56303,7.42928 43.54708,7.24992 43.41954,6.99883 43.28403,6.951 43.3199,6.73179 43.19236,6.66005 42.92931,6.66005 42.88547,6.73976 43.00105,6.83542 43.01301,6.93506 42.87351,7.0626 42.71408,7.24992 42.49886,7.31768 42.29559,7.42928 41.86913,7.76008 41.81333,8.03509 41.61007,8.20648 41.62999,8.35793 41.52637,8.4775 41.61007,8.52134 41.74159,8.46953 41.8492,8.40177 41.92493,8.44561 41.85319,8.61301 41.71768,8.76447 41.63796,8.96773 41.66985,9.25071 41.63398,9.39818 41.41676,9.48587 41.32708,9.58152 41.32708,9.64928 41.56224,9.68913 41.5463,9.78877 41.49049,9.86052 41.3789,9.82464 41.21947,9.76486 41.13179,9.82863 41.2115,9.90436 41.34701,9.93226 41.46658,9.95218 41.59014,9.91631 41.75355,9.90037 41.87312,10.00798 41.905,10.08371 41.83725,10.13154 41.72963,10.06378 41.53035,10.0598 41.36694,10.09168 41.39484,10.17937 41.62601,10.26306 41.6818,10.35473 41.65391,10.42648 41.64992,10.51815 41.84123,10.72141 42.04848,10.81308 42.29559,10.73337 42.48292,10.55402 42.61843,10.41053 42.88945,10.41053 43.11663,10.22321 43.50324,10.15944 43.89383,10.13552 "
     id="polygon154"
     transform="matrix(0.66662489,0,0,0.66662489,-0.80911756,0.07765939)"
     style="fill:#ffffff" /><polygon
     points="41.43868,10.40256 41.51441,10.45438 41.43868,10.49025 41.26331,10.46633 41.31114,10.37466 "
     id="polygon156"
     transform="matrix(0.66662489,0,0,0.66662489,-0.80911756,0.07765939)"
     style="fill:#ffffff" /><polygon
     points="40.36256,7.33362 40.10748,7.13434 40.22705,6.96694 40.64554,6.8394 40.93649,6.96694 40.93649,7.32565 40.64554,7.43725 "
     id="polygon158"
     transform="matrix(0.66662489,0,0,0.66662489,-0.80911756,0.07765939)"
     style="fill:#ffffff" /><polygon
     points="37.94727,24.6273 37.94727,24.74687 37.77987,24.77078 37.83368,24.6273 "
     id="polygon160"
     transform="matrix(0.66662489,0,0,0.66662489,-0.80911756,0.07765939)"
     style="fill:#ffffff" /><polygon
     points="37.4929,24.66915 37.4092,24.7648 37.55867,24.86046 37.65432,24.69904 "
     id="polygon162"
     transform="matrix(0.66662489,0,0,0.66662489,-0.80911756,0.07765939)"
     style="fill:#ffffff" /><polygon
     points="35.50208,22.80985 35.79502,22.60658 35.86078,23.00116 35.76513,23.0729 35.79502,23.50335 35.68143,23.53922 35.46023,23.21041 "
     id="polygon164"
     transform="matrix(0.66662489,0,0,0.66662489,-0.80911756,0.07765939)"
     style="fill:#ffffff" /><polygon
     points="36.01822,21.68988 35.86078,21.68191 35.86078,21.63408 36.09793,21.51452 36.32113,21.63408 36.28127,21.77757 "
     id="polygon166"
     transform="matrix(0.66662489,0,0,0.66662489,-0.80911756,0.07765939)"
     style="fill:#ffffff" /><polygon
     points="35.62762,21.64604 35.57183,21.77757 35.66051,21.86525 35.77908,21.77757 35.67545,21.75565 "
     id="polygon168"
     transform="matrix(0.66662489,0,0,0.66662489,-0.80911756,0.07765939)"
     style="fill:#ffffff" /><polygon
     points="39.48572,19.22676 39.53355,18.96371 39.62123,18.87602 39.93211,18.79631 39.88428,18.50138 39.65312,18.5492 39.58935,18.76443 39.37412,18.90791 39.37412,19.22676 "
     id="polygon170"
     transform="matrix(0.66662489,0,0,0.66662489,-0.80911756,0.07765939)"
     style="fill:#ffffff" /><polygon
     points="40.20314,18.86407 40.14734,18.78834 39.97994,18.89994 40.08356,19.01951 "
     id="polygon172"
     transform="matrix(0.66662489,0,0,0.66662489,-0.80911756,0.07765939)"
     style="fill:#ffffff" /><polygon
     points="43.29599,19.15502 43.08076,19.22676 43.08076,19.17893 43.59093,18.78834 43.59093,19.01951 43.33585,19.33836 "
     id="polygon174"
     transform="matrix(0.66662489,0,0,0.66662489,-0.80911756,0.07765939)"
     style="fill:#ffffff" /></svg>