<?xml version="1.0" encoding="UTF-8" standalone="no"?>
<svg
   xmlns:dc="http://purl.org/dc/elements/1.1/"
   xmlns:cc="http://creativecommons.org/ns#"
   xmlns:rdf="http://www.w3.org/1999/02/22-rdf-syntax-ns#"
   xmlns:svg="http://www.w3.org/2000/svg"
   xmlns="http://www.w3.org/2000/svg"
   xmlns:sodipodi="http://sodipodi.sourceforge.net/DTD/sodipodi-0.dtd"
   xmlns:inkscape="http://www.inkscape.org/namespaces/inkscape"
   version="1.1"
   x="0px"
   y="0px"
   viewBox="0 0 65 65"
   xml:space="preserve"
   id="svg2"
   inkscape:version="0.91 r13725"
   sodipodi:docname="australia.svg"
   width="52pt"
   height="52pt"><metadata
     id="metadata78"><rdf:RDF><cc:Work
         rdf:about=""><dc:format>image/svg+xml</dc:format><dc:type
           rdf:resource="http://purl.org/dc/dcmitype/StillImage" /><dc:title></dc:title></cc:Work></rdf:RDF></metadata><defs
     id="defs76" /><sodipodi:namedview
     pagecolor="#ffffff"
     bordercolor="#666666"
     borderopacity="1"
     objecttolerance="10"
     gridtolerance="10"
     guidetolerance="10"
     inkscape:pageopacity="0"
     inkscape:pageshadow="2"
     inkscape:window-width="775"
     inkscape:window-height="480"
     id="namedview74"
     showgrid="false"
     units="pt"
     inkscape:zoom="1.888"
     inkscape:cx="50"
     inkscape:cy="66.053429"
     inkscape:window-x="0"
     inkscape:window-y="23"
     inkscape:window-maximized="0"
     inkscape:current-layer="svg2" /><polygon
     points="77.98435,40.18677 78.17863,40.7858 77.79007,40.54295 "
     id="polygon4"
     transform="matrix(0.66666667,0,0,0.66666667,0.24717547,-0.60139861)"
     style="fill:#ffffff" /><polygon
     points="80.4938,37.25639 80.89854,37.74208 80.4938,37.64494 "
     id="polygon6"
     transform="matrix(0.66666667,0,0,0.66666667,0.24717547,-0.60139861)"
     style="fill:#ffffff" /><polygon
     points="79.44144,35.68596 79.79762,35.88833 79.44144,36.09071 "
     id="polygon8"
     transform="matrix(0.66666667,0,0,0.66666667,0.24717547,-0.60139861)"
     style="fill:#ffffff" /><polygon
     points="78.30815,33.61364 78.17863,33.61364 78.45386,34.30981 78.77766,34.21267 "
     id="polygon10"
     transform="matrix(0.66666667,0,0,0.66666667,0.24717547,-0.60139861)"
     style="fill:#ffffff" /><polygon
     points="77.51484,32.35083 77.79007,32.09179 77.98435,32.93367 77.28819,32.67463 77.28819,31.89751 "
     id="polygon12"
     transform="matrix(0.66666667,0,0,0.66666667,0.24717547,-0.60139861)"
     style="fill:#ffffff" /><polygon
     points="93.20831,35.88833 92.75499,35.43771 92.23692,35.56723 91.71883,35.88833 91.56773,36.45229 92.23692,36.62498 92.75499,36.77608 93.46735,36.32277 "
     id="polygon14"
     transform="matrix(0.66666667,0,0,0.66666667,0.24717547,-0.60139861)"
     style="fill:#ffffff" /><polygon
     points="95,33.86189 94.04257,34.20347 93.33783,34.30981 93.46735,34.91964 93.94225,34.59584 94.50351,34.59584 "
     id="polygon16"
     transform="matrix(0.66666667,0,0,0.66666667,0.24717547,-0.60139861)"
     style="fill:#ffffff" /><polygon
     points="61.82619,20.15236 61.44221,19.82323 61.14965,19.61599 61.00336,19.00649 60.88147,18.7505 61.03994,18.60555 61.36907,19.10401 61.53973,19.16906 61.83229,19.6038 62.3077,20.15236 62.55151,20.23769 62.77093,20.7131 62.41742,20.92033 61.82619,20.53025 "
     id="polygon18"
     transform="matrix(0.66666667,0,0,0.66666667,0.24717547,-0.60139861)"
     style="fill:#ffffff" /><polygon
     points="63.5389,20.81062 64.1606,21.38356 64.35564,21.38356 64.20936,20.92033 63.7949,20.81062 "
     id="polygon20"
     transform="matrix(0.66666667,0,0,0.66666667,0.24717547,-0.60139861)"
     style="fill:#ffffff" /><polygon
     points="64.45316,22.62695 64.73354,22.51723 65.0139,22.51723 65.25771,23.10236 64.92857,22.84637 64.42878,22.84637 64.07526,22.40752 64.35564,22.22467 "
     id="polygon22"
     transform="matrix(0.66666667,0,0,0.66666667,0.24717547,-0.60139861)"
     style="fill:#ffffff" /><polygon
     points="67.04965,22.60257 67.53725,22.8098 67.64697,23.10236 67.79324,23.00484 68.02486,23.21207 68.07362,23.10236 67.57382,22.50504 66.47672,21.99306 66.30605,21.99306 "
     id="polygon24"
     transform="matrix(0.66666667,0,0,0.66666667,0.24717547,-0.60139861)"
     style="fill:#ffffff" /><polygon
     points="68.53684,24.94306 68.93911,25.05277 69.31701,24.90649 68.76846,24.43108 68.29304,24.34575 67.86639,24.46765 67.79324,24.55298 68.07362,24.88211 "
     id="polygon26"
     transform="matrix(0.66666667,0,0,0.66666667,0.24717547,-0.60139861)"
     style="fill:#ffffff" /><polygon
     points="70.97486,26.30835 71.25523,26.23521 71.07238,25.90608 70.70667,25.77199 70.26783,25.69885 70.38973,26.01579 70.75544,26.07674 "
     id="polygon28"
     transform="matrix(0.66666667,0,0,0.66666667,0.24717547,-0.60139861)"
     style="fill:#ffffff" /><polygon
     points="70.07279,24.62612 70.26783,24.41889 69.84118,24.15071 69.4511,23.63872 69.39014,23.21207 69.21948,22.95608 69.04882,23.01703 69.23167,23.40711 69.24387,23.7911 69.48767,24.11414 "
     id="polygon30"
     transform="matrix(0.66666667,0,0,0.66666667,0.24717547,-0.60139861)"
     style="fill:#ffffff" /><polygon
     points="28.26498,11.87053 28.68744,12.21051 29.44684,11.96766 29.0259,11.61149 28.58878,11.61149 "
     id="polygon32"
     transform="matrix(0.66666667,0,0,0.66666667,0.24717547,-0.60139861)"
     style="fill:#ffffff" /><polygon
     points="35.89045,12.8743 35.69617,12.77716 35.53427,12.77716 35.76093,13.18191 36.16568,13.18191 36.24663,12.97954 "
     id="polygon34"
     transform="matrix(0.66666667,0,0,0.66666667,0.24717547,-0.60139861)"
     style="fill:#ffffff" /><polygon
     points="35.53427,13.81332 36.03616,14.03998 36.58662,14.12093 36.58662,13.89427 36.06044,13.89427 "
     id="polygon36"
     transform="matrix(0.66666667,0,0,0.66666667,0.24717547,-0.60139861)"
     style="fill:#ffffff" /><polygon
     points="34.14193,19.72266 33.89908,19.28553 33.7048,19.16906 33.49434,19.72266 33.26767,19.96551 33.26767,20.80738 33.75337,20.6293 "
     id="polygon38"
     transform="matrix(0.66666667,0,0,0.66666667,0.24717547,-0.60139861)"
     style="fill:#ffffff" /><polygon
     points="28.56554,27.66958 29.09377,27.75085 29.66265,27.28762 29.59763,27.02757 29.04502,27.02757 28.5249,27.16572 28.02917,27.24699 27.90727,27.38921 27.87642,27.60717 "
     id="polygon40"
     transform="matrix(0.66666667,0,0,0.66666667,0.24717547,-0.60139861)"
     style="fill:#ffffff" /><polygon
     points="36.46471,30.63583 36.58662,30.52612 36.92794,30.74554 37.11079,31.07468 36.70852,31.07468 "
     id="polygon42"
     transform="matrix(0.66666667,0,0,0.66666667,0.24717547,-0.60139861)"
     style="fill:#ffffff" /><polygon
     points="50.33189,14.42854 50.50998,14.25045 51.01187,14.33949 51.01187,14.54187 50.49379,14.54187 "
     id="polygon44"
     transform="matrix(0.66666667,0,0,0.66666667,0.24717547,-0.60139861)"
     style="fill:#ffffff" /><polygon
     points="43.27307,30.68326 43.43497,31.03944 43.37021,32.01084 43.27307,32.98223 43.11117,34.01839 42.62547,34.94122 42.44738,35.58882 42.33405,35.75072 41.24932,35.99357 40.74744,35.6212 40.11603,35.36216 39.87318,34.87646 39.25796,34.69837 38.69131,34.40695 38.15704,33.82411 37.54182,33.5327 36.76471,33.40318 35.03238,31.81656 35.67998,30.86135 35.82569,30.34327 35.6476,29.79281 36.19806,29.42044 36.48948,29.04807 37.05613,28.38429 36.27901,28.09287 36.27901,28.38429 36.14949,28.54619 35.79331,28.56238 35.72855,28.2062 34.90286,28.15763 34.72477,28.28715 34.49811,28.22239 34.25526,28.01192 34.01241,27.94716 33.42957,28.12525 33.30005,27.83383 32.86293,27.7205 32.19913,27.67193 31.95629,27.5586 31.64868,27.20242 31.34107,27.26718 31.17917,27.0729 30.98489,26.911 30.75823,26.92719 30.62871,27.10528 30.83918,27.08909 31.00108,27.18623 31.19536,27.44527 31.35726,27.75288 31.35726,28.07668 30.90394,28.27096 30.25634,28.38429 29.72207,28.25477 29.10685,28.17382 28.91257,28.65952 28.50783,28.53 27.86023,29.92233 27.86023,30.11661 27.53643,30.14899 26.95359,31.31467 27.45548,31.78418 27.32596,32.38321 27.06692,32.10798 26.87264,32.12417 26.48408,32.17274 26.11171,31.89751 25.17269,32.31845 25.17269,32.10798 25.26983,31.88132 25.17269,31.65466 24.23368,30.63469 23.48894,30.40803 23.27847,30.79659 22.69563,30.9423 22.48516,30.71564 22.32326,31.54133 21.6109,31.57371 21.2871,31.80037 21.56233,32.3994 21.41662,32.3994 21.2871,32.28607 20.8014,32.31845 20.68807,32.65844 20.23475,32.85271 20.39665,33.28984 20.44522,33.64602 20.23475,34.11553 20.12143,34.26124 19.60335,33.84031 19.27955,33.96982 18.95575,34.55266 19.5224,35.10312 19.40907,35.26502 19.23098,35.23264 19.0367,35.66977 18.63195,35.05455 18.45386,34.68218 18.30815,34.50409 18.00054,34.34219 17.51484,34.87646 17.22342,35.32978 17.32056,35.99357 17.43389,36.51165 16.91581,37.02973 16.51106,37.43447 16.20345,38.11445 15.84727,38.53539 15.19968,38.87538 13.62925,39.34489 13.12736,39.15061 12.46357,39.60393 11.33028,40.04106 10.66649,40.28391 9.97032,40.05725 9.16082,40.59152 8.69131,40.83437 8.27037,41.30387 7.75229,41.56292 7.05613,41.87053 6.79709,42.32384 6.60281,42.85811 6.31139,42.77716 6.31139,42.3886 6.31139,41.83815 6.10092,42.03242 5.74474,42.97144 5.95521,43.29524 5.82569,43.87808 5.74474,44.55806 5.46951,44.83329 5.33999,45.35137 5.51808,45.98278 5.72855,46.46848 6.01997,47.05131 6.37615,47.94176 6.4571,48.34651 6.2952,48.67031 6.1333,48.39508 5.90664,48.24937 5.89045,48.44365 5.98759,48.67031 5.85807,48.89697 5.55046,48.79983 5.43713,48.41127 5,48.29794 5.19428,48.60555 5.63141,49.07506 6.00378,49.78742 6.2952,50.38644 6.37615,51.08261 6.91042,51.85973 7.05613,52.52352 7.4123,53.09017 7.49325,54.27204 7.76848,55.09772 7.94657,55.63199 8.49703,56.70053 8.57798,57.85002 8.3837,58.31953 8.3837,59.17759 8.18942,59.84138 7.47706,60.11661 7.46087,60.60231 7.63896,60.95849 8.23799,61.13658 8.64274,61.47657 8.90178,61.83275 9.40367,61.99465 9.69509,62.15655 10.4884,62.15655 11.00648,62.28607 11.42741,62.17274 12.02644,61.9137 12.56071,61.39562 12.75499,61.15277 13.3864,61.16896 13.66163,60.60231 14.11495,60.40803 15.15111,60.27851 16.31678,60.16518 17.11009,60.24613 17.19104,60.60231 17.59579,60.31089 18.40529,60.2947 18.56719,60.47279 18.89099,60.42422 19.31193,60.06804 19.58716,59.61472 19.83001,59.01569 20.34808,58.69189 20.76902,58.56237 21.52995,58.19001 22.45278,57.67193 22.80896,57.65574 23.58608,57.68812 24.12035,57.68812 24.86508,57.44527 25.8041,57.02433 26.37075,56.66815 27.48786,56.65196 28.26498,56.52244 28.75068,56.66815 29.49541,56.55482 30.04587,56.76529 30.61252,57.0729 30.88775,57.33194 31.56773,57.15385 31.92391,57.54241 32.68484,57.44527 33.12196,58.02811 33.46195,58.14144 33.60766,58.46524 33.33244,58.69189 33.62385,59.06427 34.06098,59.17759 34.30383,59.77662 34.72477,60.22994 35.01619,60.7804 35.21047,61.49276 35.25904,61.92989 35.6476,62.12417 35.69617,61.9137 35.59903,61.80037 35.6476,61.52514 36.00378,61.1042 36.37615,60.55374 36.87804,60.16518 37.59039,59.63091 37.63897,59.33949 38.15704,58.78904 38.27037,58.07668 38.41608,58.54618 38.56179,59.22617 38.30275,59.27473 38.39989,59.53378 38.56179,59.74424 37.93038,60.47279 37.80087,61.97846 37.18565,62.0756 37.07232,62.28607 37.2504,62.46416 37.63897,62.46416 38.17323,62.35083 38.33513,61.63847 38.62655,60.81278 38.82083,60.92611 39.0313,61.41181 39.32272,61.81656 39.12844,62.67463 38.80464,63.12794 38.93416,63.2089 39.25796,63.12794 39.59795,62.91748 39.74366,63.2089 40.24555,63.45174 40.53697,63.67841 40.84458,64.21267 41.07124,64.90884 40.84458,65.50787 41.10361,66.00976 41.42741,66.33356 41.71883,66.85164 42.12358,67.09448 42.17215,67.20782 42.62547,67.20782 42.81975,67.3859 43.0626,67.79066 43.45116,67.79066 43.79115,67.61256 44.26066,67.69351 44.73017,67.88779 45.13492,68.16302 45.68538,68.29254 46.12251,68.50301 46.59201,68.11446 46.94819,67.8716 47.20723,67.28876 47.56341,67.07829 47.79007,66.9164 48.08149,67.25639 47.87102,68.0335 48.16244,67.8716 48.48624,67.51543 48.68052,67.58018 48.76147,68.11446 48.95575,68.32492 49.53859,68.60015 49.92715,68.40588 50.46141,68.32492 50.9633,67.80685 51.51376,67.20782 51.64328,66.94878 52.43659,66.86783 53.03562,66.72211 53.89368,66.83545 54.62223,66.39832 54.62223,65.11931 54.92984,64.03458 55.18888,62.99842 55.54506,62.38321 55.8041,61.67085 55.88505,61.03944 56.27361,60.6185 56.37075,59.76043 56.71074,59.54996 57.0993,58.90237 57.0993,58.66491 57.96803,58.0229 58.09806,57.80348 58.00054,57.50279 58.56128,56.70637 58.83759,55.77993 58.83759,55.35733 58.75632,55.02414 58.95949,54.3415 59.28456,53.19563 59.51211,52.39921 59.57713,52.10664 59.49586,51.31023 59.25206,50.7251 58.95137,50.18874 58.84572,49.92868 58.95137,49.61174 58.87823,49.1729 58.86197,47.76697 59.22768,46.743 59.16266,46.32854 59.02451,46.35292 59.01638,46.75926 58.73195,47.47441 58.60192,47.14934 58.08994,46.63736 58.06555,46.32042 57.61858,46.03598 57.36665,45.6459 57.15536,45.20705 56.92781,44.93887 56.42395,44.81697 56.1639,44.31311 55.76569,44.39438 55.7088,43.02909 55.20494,42.82592 54.70922,42.52523 54.65233,42.6065 54.7336,42.95595 54.08346,42.30581 54.01844,41.74507 53.83153,41.16807 53.7015,40.79424 53.23828,40.58295 53.01073,40.05471 52.70192,39.62399 52.15742,39.12014 51.14158,38.78694 51.22285,38.61628 51.33662,38.56752 51.22285,38.45374 50.75963,38.2587 50.19076,38.06366 49.76817,37.60857 49.4431,36.90967 49.36996,36.50333 49.46748,35.99947 49.45123,35.62564 49.13428,34.97551 48.82547,34.62606 48.54916,34.13033 48.47602,33.44768 48.32973,32.85443 48.24847,32.67564 48.35411,32.47247 48.411,32.1149 47.96403,31.78983 47.40329,31.39975 47.3464,31.06655 46.88318,31.2941 46.62312,31.5379 46.24117,31.16407 46.06238,30.39203 46.01362,29.90443 46.08676,29.75815 45.76982,29.05112 45.63979,28.57165 45.39599,28.44975 45.48538,28.04341 45.03841,27.49892 44.98965,26.7025 44.62395,26.18245 44.53589,26.18245 44.11495,26.97576 43.90448,27.80145 43.48354,28.62714 43.74258,28.77285 43.69401,29.08045 43.48354,29.20997 43.48354,29.67948 43.59687,30.01947 43.27307,30.48898 "
     id="polygon46"
     transform="matrix(0.66666667,0,0,0.66666667,0.24717547,-0.60139861)"
     style="fill:#ffffff" /><polygon
     points="92.33189,68.97366 92.39285,68.57139 92.9414,67.83999 93.14863,66.65755 92.47817,66.49908 91.85648,67.14515 91.3445,67.24267 90.33272,66.79164 89.90607,66.49908 89.66226,65.88957 89.62569,65.37759 89.23561,64.9875 89.22342,65.9749 88.96743,65.88957 88.12631,64.9875 88.10194,64.53647 88.19336,64.39019 87.91299,63.92087 87.76061,63.62831 87.86423,63.41499 87.68137,63.07976 87.59605,62.79939 87.49243,62.59215 86.99873,62.27521 86.36485,62.19598 85.8102,61.58038 85.6822,61.47676 85.64563,61.65961 86.10886,62.25692 86.15762,62.79329 86.50504,63.2687 86.98654,63.93916 87.17548,64.17077 87.50462,64.21343 87.57166,64.43895 87.44976,64.6279 87.69966,65.09721 87.94955,65.44463 88.13241,65.37149 88.26041,65.67015 88.12631,65.78596 88.27869,66.5844 88.35793,67.12077 88.28478,67.61447 88.07146,68.00455 87.98003,68.67501 87.60214,69.02852 86.94997,69.32108 86.9073,69.47346 87.0353,69.76602 87.401,69.90011 87.73623,70.0342 87.99223,70.30238 88.49811,70.45476 88.80896,71.05208 88.79067,71.72253 88.12631,72.93544 88.55296,73.26457 88.90648,73.47181 89.7354,72.93544 90.19863,71.98462 90.95441,70.94846 91.28355,70.09515 91.02756,69.5466 91.39326,69.22966 91.8321,68.97366 "
     id="polygon48"
     transform="matrix(0.66666667,0,0,0.66666667,0.24717547,-0.60139861)"
     style="fill:#ffffff" /><polygon
     points="37.78467,63.2089 36.97517,63.2089 36.58662,63.58126 36.7809,63.84031 37.91419,63.71078 38.20561,63.45174 "
     id="polygon50"
     transform="matrix(0.66666667,0,0,0.66666667,0.24717547,-0.60139861)"
     style="fill:#ffffff" /><polygon
     points="52.45278,70.72104 52.29088,71.19054 51.86994,70.55914 52.04803,70.25153 "
     id="polygon52"
     transform="matrix(0.66666667,0,0,0.66666667,0.24717547,-0.60139861)"
     style="fill:#ffffff" /><polygon
     points="52.16136,72.16194 52.38802,72.76097 52.38802,74.0076 52.01565,74.54187 51.86994,75.35136 51.86994,75.77231 51.31948,75.86945 50.91473,76.64656 50.72046,76.64656 50.65569,76.93798 50.3157,77.18083 50.05666,77.11607 49.37669,76.79227 48.84242,76.20943 48.551,75.65897 48.30815,74.71996 48.30815,74.07236 47.91959,73.61904 47.51484,72.63145 47.59579,71.95148 48.25958,72.0648 48.98813,72.48574 49.53859,72.66383 50.21856,72.76097 50.49379,72.53432 51.46519,72.51812 51.64328,72.35622 51.86994,72.35622 51.95089,72.08099 "
     id="polygon54"
     transform="matrix(0.66666667,0,0,0.66666667,0.24717547,-0.60139861)"
     style="fill:#ffffff" /><polygon
     points="46.79708,70.08424 46.47329,70.08424 46.47329,70.88293 46.68915,70.88293 "
     id="polygon56"
     transform="matrix(0.66666667,0,0,0.66666667,0.24717547,-0.60139861)"
     style="fill:#ffffff" /><polygon
     points="86.75391,72.41559 86.55963,72.7178 85.89045,72.8689 85.82569,72.26448 85.41554,72.17813 85.28603,71.85433 85.11333,71.85433 84.74636,72.15655 84.48732,73.10636 84.12035,73.77554 83.53751,74.73615 83.30006,75.37296 82.7388,75.9342 82.26389,76.15007 81.57313,76.94878 80.60173,77.51003 79.93254,77.96335 79.43478,78.10404 79.21535,78.61603 78.98375,78.67698 78.71556,79.1402 77.91102,79.84722 77.48437,80.43235 77.1918,81.24908 77.30151,81.45631 77.1918,81.72449 77.27714,81.95611 77.5575,82.16334 78.03292,82.16334 78.3011,82.05363 78.50833,82.10239 78.8009,82.4559 79.31288,82.4559 79.76392,82.9557 80.0321,82.76066 80.3856,82.88255 80.90978,82.9557 81.22672,82.80942 81.76308,82.04144 82.59201,81.40755 82.79925,80.42016 83.23809,79.40838 83.3478,78.85983 83.7135,78.26251 84.8228,77.65301 84.96908,77.47015 85.40792,77.59206 85.60297,77.64082 85.93362,77.61796 85.41554,77.09988 85.50189,76.49546 86.10632,75.84786 86.49487,75.28661 87.2504,74.09934 87.2504,73.5165 87.16405,73.23588 87.44469,72.8689 87.07771,72.73939 "
     id="polygon58"
     transform="matrix(0.66666667,0,0,0.66666667,0.24717547,-0.60139861)"
     style="fill:#ffffff" /><polygon
     points="79.26412,83.73586 79.26412,83.86996 78.38643,84.1869 78.54491,83.72977 78.71556,83.27264 79.0447,83.27264 79.0447,83.67491 "
     id="polygon60"
     transform="matrix(0.66666667,0,0,0.66666667,0.24717547,-0.60139861)"
     style="fill:#ffffff" /><polygon
     points="33.22215,12.77735 33.22215,13.16744 33.47814,13.50876 33.22215,14.11826 33.38062,14.45959 33.38062,14.95938 33.70975,15.43479 33.91699,15.43479 33.91699,15.08128 34.05108,15.06909 34.11203,15.59326 34.35583,15.94678 34.52649,16.21496 35.22132,16.21496 35.80645,15.53231 36.28186,15.02033 36.3672,14.75215 37.45211,14.52054 37.80563,13.85008 38.41513,13.63066 39.50005,14.13045 40.88972,14.82529 41.51141,14.91062 42.20625,15.00814 42.8767,15.28851 44.24199,15.84926 45.07092,16.21496 45.72918,16.30029 46.47278,16.6538 46.94819,16.82446 47.5577,17.17797 48.17939,17.5193 48.54509,17.70215 49.02051,18.27508 49.02051,19.04306 49.92257,19.27467 50.6296,19.57942 51.51947,20.06703 51.81204,20.50587 51.67795,20.62777 51.31224,20.62777 50.7515,20.28645 50.55646,20.62777 50.72712,21.13976 50.95873,21.65174 51.45853,22.05401 52.05584,22.56599 52.29964,22.94389 52.29964,23.33397 52.73848,23.87033 53.07981,23.95567 53.78683,23.95567 53.78683,24.21166 53.71369,24.51641 54.15253,24.69926 54.72547,25.30877 54.95708,25.43067 55.4325,25.43067 55.28621,25.66228 55.33497,25.94265 54.99365,26.18245 54.72547,25.85732 54.37196,25.66228 53.61617,25.50381 53.37237,25.3819 51.88518,25.26 51.31224,24.79678 50.65398,24.19947 49.87381,23.09017 49.28869,22.40752 48.63042,22.21248 47.85026,22.04182 47.22857,21.8224 46.88724,22.16372 46.72877,22.15153 46.42402,21.95649 46.18022,22.56599 46.10707,23.15112 45.29034,22.85856 45.20501,23.0536 45.7048,23.39492 45.79013,23.74843 45.19282,24.07757 44.71741,24.23604 44.18104,24.06538 43.46183,23.96786 42.88889,24.0288 42.35253,23.62653 41.81617,23.16331 41.30418,22.59038 40.58496,22.50504 39.97546,22.61476 39.75604,22.96827 39.35377,22.94389 39.24406,22.82199 39.03682,22.9317 38.71988,23.0536 38.29323,22.87075 38.22009,22.62695 38.54922,22.0662 38.90273,21.73707 39.36596,21.68831 39.76823,21.74926 39.78042,21.55422 39.4391,21.27385 39.69509,20.87157 39.561,20.76186 39.13435,20.15236 38.78083,19.32343 38.62236,19.01868 38.18352,18.7505 38.02505,18.57984 36.7329,18.05566 35.66017,17.61682 34.91657,17.5193 34.48992,17.42178 34.09984,16.87322 33.6488,16.88541 33.50253,17.00731 33.30748,16.8976 33.14901,16.69037 32.97835,16.64161 32.64922,16.31248 32.34447,16.86103 31.91781,17.11703 31.66182,17.0195 31.40583,16.56847 31.52773,16.06868 31.13765,15.6664 30.89384,15.55669 30.46719,15.56888 30.46719,15.32508 30.90603,15.20318 31.27174,15.31289 31.4424,15.43479 31.73496,15.20318 32.16161,14.94719 32.49075,15.08128 32.95397,14.99595 32.99054,14.71558 32.66141,14.49616 32.32008,14.63025 31.97876,14.50835 31.36926,14.59368 30.80851,14.60587 30.52814,14.32549 30.40624,13.83789 29.97959,13.67942 29.50418,13.54533 29.07752,13.53314 28.89467,13.17963 28.68744,12.87487 28.95562,12.87487 29.21161,13.28934 29.49199,12.99677 29.49199,12.7164 30.19901,12.63107 30.68661,12.15566 31.55211,12.28975 32.16161,12.50917 32.7955,12.63107 "
     id="polygon62"
     transform="matrix(0.66666667,0,0,0.66666667,0.24717547,-0.60139861)"
     style="fill:#ffffff" /><polygon
     points="57.27739,17.27797 56.88883,17.42368 56.98597,17.84462 57.01835,18.26556 56.51646,18.3627 55.99838,19.05887 55.09174,19.16906 54.88128,18.76745 54.65461,18.78364 54.62223,19.09125 53.7156,19.07506 52.61468,19.16906 52.76039,19.43124 53.31085,19.70647 54.0232,19.93313 54.91365,19.93313 55.6422,19.93313 56.22504,19.70647 56.67836,19.09125 57.50405,18.79983 57.50405,18.47603 57.84404,17.99033 57.53643,17.40749 "
     id="polygon64"
     transform="matrix(0.66666667,0,0,0.66666667,0.24717547,-0.60139861)"
     style="fill:#ffffff" /><polygon
     points="58.34999,17.47866 58.36624,17.1861 57.84404,16.58472 57.48856,16.20277 56.7734,15.80456 56.15577,15.47136 55.90384,15.34946 55.90384,15.15442 56.6515,15.56888 57.38291,15.94271 57.95991,16.47095 58.48814,16.9423 58.75632,17.21048 58.84572,17.66558 58.7482,17.80373 58.43938,17.80373 "
     id="polygon66"
     transform="matrix(0.66666667,0,0,0.66666667,0.24717547,-0.60139861)"
     style="fill:#ffffff" /><polygon
     points="77.51484,42.16195 77.61198,42.5505 77.15866,42.40479 76.72153,42.34003 76.54344,42.0648 76.17107,41.87053 75.9606,41.69244 75.57204,41.61148 75.28062,41.38483 74.89207,40.99627 74.76255,40.70485 74.37399,40.44581 73.80734,39.70107 73.88829,39.44203 74.60065,39.92773 74.85969,40.18677 75.28062,40.38105 75.52348,40.80199 75.91203,41.1096 76.2844,41.35245 76.70535,41.57911 77.06152,41.93528 "
     id="polygon68"
     transform="matrix(0.66666667,0,0,0.66666667,0.24717547,-0.60139861)"
     style="fill:#ffffff" /></svg>