<?xml version="1.0" encoding="UTF-8" standalone="no"?>
<svg
   xmlns:dc="http://purl.org/dc/elements/1.1/"
   xmlns:cc="http://creativecommons.org/ns#"
   xmlns:rdf="http://www.w3.org/1999/02/22-rdf-syntax-ns#"
   xmlns:svg="http://www.w3.org/2000/svg"
   xmlns="http://www.w3.org/2000/svg"
   xmlns:sodipodi="http://sodipodi.sourceforge.net/DTD/sodipodi-0.dtd"
   xmlns:inkscape="http://www.inkscape.org/namespaces/inkscape"
   version="1.1"
   x="0px"
   y="0px"
   viewBox="0 0 65.000002 65"
   xml:space="preserve"
   id="svg2"
   inkscape:version="0.91 r13725"
   sodipodi:docname="southamerica.svg"
   width="52pt"
   height="52pt"><metadata
     id="metadata24"><rdf:RDF><cc:Work
         rdf:about=""><dc:format>image/svg+xml</dc:format><dc:type
           rdf:resource="http://purl.org/dc/dcmitype/StillImage" /><dc:title></dc:title></cc:Work></rdf:RDF></metadata><defs
     id="defs22" /><sodipodi:namedview
     pagecolor="#ffffff"
     bordercolor="#666666"
     borderopacity="1"
     objecttolerance="10"
     gridtolerance="10"
     guidetolerance="10"
     inkscape:pageopacity="0"
     inkscape:pageshadow="2"
     inkscape:window-width="1019"
     inkscape:window-height="646"
     id="namedview20"
     showgrid="false"
     units="pt"
     inkscape:zoom="3.0888889"
     inkscape:cx="32.099061"
     inkscape:cy="51.626968"
     inkscape:window-x="0"
     inkscape:window-y="23"
     inkscape:window-maximized="0"
     inkscape:current-layer="svg2" /><polygon
     points="37.92966,6.55313 38.20759,6.43869 38.20759,6.25886 38.7471,6.25886 39.4174,6.16076 39.97326,5.80109 40.43102,5.49046 40.43102,5.09809 41.00323,5 41.34655,5.13079 41.54274,5.44142 41.11767,5.75204 40.6272,5.83379 40.6926,6.19346 40.87244,6.81471 40.87244,7.20708 40.57816,7.6158 40.43102,8.04087 40.6599,8.46594 40.98688,8.77657 41.44464,8.76022 41.67353,8.49864 41.67353,7.87738 41.23211,7.17439 41.23211,6.81471 41.67353,6.47139 42.0659,6.35695 42.58906,6.17711 42.88334,5.99728 42.88334,5.78474 42.60541,5.6376 42.62176,5.34332 42.88334,5.29428 43.09587,5.6049 43.3084,5.94823 43.53729,6.06267 44.0768,6.02997 44.40377,6.25886 44.649,6.55313 44.86154,7.0436 45.09042,7.20708 45.67898,7.12534 46.41467,7.0436 47.19941,7.07629 47.49369,7.37057 47.9678,7.59945 48.49097,7.7139 49.12857,7.51771 49.96236,7.12534 50.63266,6.99455 51.25391,6.84741 51.53184,6.89646 51.53184,7.02725 51.05772,7.15804 50.95963,7.28883 51.20486,7.55041 51.53184,7.69755 51.87516,7.87738 52.25729,7.87738 52.46372,7.87738 52.74165,8.15531 53.10132,8.3515 53.19941,8.89101 53.2975,9.34877 54.0332,9.34877 54.45827,9.61035 54.88334,9.92098 55.19396,10.21526 55.47189,10.3297 55.73347,10.67302 55.83157,11.04905 56.42012,11.40872 56.73075,11.88283 57.17216,12.20981 57.71167,12.35695 58.16944,12.55313 58.64355,12.42234 59.3956,12.42234 59.86971,12.22616 60.58906,12.43869 61.35745,12.73297 62.12584,12.9455 62.7144,13.32153 63.33565,13.77929 63.54819,14.13896 63.85881,14.26975 64.15309,14.69482 64.15309,15.23433 64.30023,15.64305 64.43102,16.11717 64.67625,16.73842 64.93784,17.01635 65.24846,17.01635 65.46099,17.49046 65.46099,18.11172 65.28116,18.48774 65.00323,18.71662 65.00323,18.22616 64.80704,18.42234 64.51276,18.79836 63.9896,19.02725 63.71167,19.40327 63.4174,19.86104 63.45009,20.08992 63.74437,19.77929 64.055,19.76294 64.15309,20.08992 64.33292,19.76294 64.57816,19.56676 64.82339,19.17439 65.26481,18.78202 65.77162,18.68392 65.54274,18.9455 65.86971,19.19073 66.08224,18.96185 66.55636,19.25613 67.09587,19.40327 67.09587,19.77929 66.93238,20.2861 66.60541,20.62943 66.31113,20.77657 66.21304,21.03815 66.68715,20.9564 67.09587,20.59673 67.45554,20.04087 67.71712,19.74659 68.09315,19.7139 68.24029,19.91008 68.51821,19.74659 68.73075,19.91008 69.22121,20.07357 69.72802,20.17166 70.1302,20.29726 70.40923,20.59269 70.92623,20.72399 71.25449,20.87992 71.36938,21.29844 71.82073,21.65953 71.6566,21.90572 71.87817,22.06164 72.24747,22.01241 72.87936,21.79083 73.16659,21.73339 73.62614,22.06164 74.19239,22.17653 74.98842,22.32425 75.30847,22.39811 75.69417,22.28322 76.77742,22.29143 77.14671,22.56224 77.65551,22.85767 78.28741,23.25978 78.86186,23.76038 79.37066,24.28559 80.15848,24.71233 81.06939,24.77798 81.7177,24.70412 81.89004,25.11444 82.16905,25.67248 82.2347,26.42747 82.62041,26.66546 82.68606,27.24812 82.39063,27.82257 82.28394,28.52011 81.93107,29.29973 81.57819,29.79211 81.05298,30.45684 80.1913,31.21183 79.78918,31.66318 79.5512,32.18019 79.12447,32.94339 78.81262,33.44398 78.56643,33.73121 78.26279,33.38654 78.05762,33.50143 78.13969,33.81327 77.8935,34.11691 77.9017,34.64212 77.7704,35.40532 77.79502,36.11108 77.81143,36.58705 77.9017,37.12047 77.76219,37.68671 77.57345,38.37605 77.54883,39.27056 77.36829,39.59061 77.04003,39.98452 76.99079,40.64103 76.92514,41.33037 76.79384,41.7407 76.47379,42.21667 76.30965,42.57775 75.78444,43.10297 75.53825,43.54611 75.43977,43.9072 75.57108,44.36676 75.39053,44.62936 74.93097,44.75246 74.51244,45.12175 74.39755,45.48283 73.86414,45.48283 72.78088,45.54028 72.00127,45.63055 71.50068,45.75365 71.17242,46.09011 70.71286,46.41016 70.38461,46.64815 70.15482,46.54147 69.85118,46.7138 69.09619,47.0913 68.35761,47.69857 67.74213,48.17455 67.42207,48.69156 66.90507,48.69156 66.87225,49.11829 66.94611,49.49578 66.82301,49.87738 66.87225,50.50518 66.99534,50.84164 67.05279,51.11245 66.92969,51.47354 66.85583,52.21212 66.77377,52.63065 66.52757,52.81939 66.0516,53.11483 65.64948,53.66466 65.4197,54.16525 65.21455,54.8628 64.91911,55.47007 64.48417,56.12659 64.0164,56.6518 63.49119,57.12778 62.94136,57.46424 62.69516,57.87457 62.58848,58.39978 62.36691,58.5557 62.0961,58.84292 61.80066,59.36814 61.48882,59.79487 61.2098,60.31188 60.74203,60.68937 60.22503,60.91095 59.89677,61.1079 59.62595,61.02584 59.14177,60.89454 58.68221,60.93557 58.31331,61.1079 57.82874,60.82067 57.34456,60.51704 56.46648,60.37753 56.17104,60.15596 55.8674,60.22981 55.83458,60.66475 56.14642,60.91095 56.54033,61.18997 56.96707,61.44437 57.31174,61.84648 57.17223,62.13371 57.03272,62.43735 57.14761,62.79843 57.41842,63.12669 57.81233,63.33185 57.82054,63.84885 57.54972,64.43151 57.07375,65.00597 56.86859,65.45731 56.42544,65.90867 55.62121,66.36823 54.63644,66.50774 53.65987,66.76214 52.78178,66.87703 51.89548,66.75394 51.58364,66.57339 51.45234,66.7047 51.57544,66.87703 51.47696,67.29556 51.73136,67.66485 51.46875,68.26392 51.32924,68.8712 51.44413,69.52771 51.34565,69.79852 50.73838,69.97086 49.83157,70.04472 49.40073,69.84776 48.82627,69.47848 48.39954,69.52771 48.22721,70.13499 48.35851,70.59455 48.41595,71.71062 48.90834,71.84193 49.14633,72.0553 49.48279,71.97324 49.68795,71.62856 49.90132,71.58753 50.01621,72.0553 49.9998,72.42459 49.83157,72.67078 49.55665,72.58051 49.37611,72.3179 49.05606,72.26866 48.88372,72.16198 48.6047,72.3097 48.52264,72.58051 48.71138,72.79388 49.08068,72.9498 48.79345,73.13034 48.45699,73.34371 48.12052,73.97561 48.07949,74.42696 48.12052,75.00141 47.74303,75.56766 47.62814,76.03542 47.16037,76.11749 46.64336,76.39651 46.10174,76.56064 45.83092,76.91351 45.60114,77.4059 45.45343,77.89828 45.58473,78.46453 45.96223,78.86665 46.34793,79.25235 46.62695,79.48213 47.34912,79.58881 47.63634,80.01555 47.48042,80.62283 47.23423,81.17265 46.60233,81.76352 45.9294,82.30515 45.5437,82.78112 45.37136,83.97926 44.96925,84.5455 44.32094,84.87376 43.77111,85.54669 43.57415,86.30989 43.81214,86.48222 43.92703,87.11412 44.07475,87.64754 44.37018,88.18916 44.58355,88.65693 44.44403,88.73079 44.05833,88.4846 43.62339,88.41895 43.31975,88.84568 42.96688,88.84568 42.50731,89.1329 41.94928,89.45296 41.76873,90.00279 41.76873,90.83164 41.65384,91.34865 41.4651,91.47174 41.10401,91.47174 40.7019,91.21735 40.10283,90.86446 39.40528,90.42132 39.62685,90.16692 39.28218,90.03561 39.0524,89.65812 39.16729,89.30524 38.76517,89.22318 38.70773,89.0016 38.55181,89.0016 38.47795,89.18214 38.32203,89.18214 38.38768,88.96057 38.46154,88.71438 38.34665,88.63232 38.0348,88.78003 38.25638,88.36971 38.27279,88.19737 37.86247,87.71319 37.9035,87.58189 38.27279,87.77884 38.12507,87.49162 38.29741,87.30287 38.44513,87.05668 38.31382,86.69559 38.38768,86.4576 37.99377,86.26065 37.83785,86.52325 37.37008,87.06488 37.05003,87.05668 36.99258,86.84331 37.3947,86.53146 37.61628,86.44119 37.47676,86.24424 37.25519,86.26886 37.19775,86.08011 37.30443,85.8093 37.84605,85.65337 37.93633,85.40718 37.58345,85.26767 37.7722,85.08713 37.6491,84.87376 37.96915,84.47985 38.46154,84.51268 38.55181,84.26649 38.08404,83.99567 37.93633,83.74127 37.82964,84.10236 37.58345,84.4142 37.38649,84.33214 37.24698,84.00388 36.87769,84.08595 36.64791,83.87257 36.81204,83.57714 36.69715,83.2653 36.98438,83.10938 36.62329,82.74009 36.62329,81.63222 36.76281,81.2301 37.009,81.3532 37.10748,81.51733 37.1403,81.15624 37.14851,80.87722 37.30443,80.77054 37.46035,81.04956 37.59166,81.50092 37.69013,82.01792 37.78861,82.32977 38.05122,82.2477 37.97736,81.94406 37.80502,81.37782 37.67372,81.05776 37.82143,80.92646 38.24817,81.08238 38.77338,81.12342 38.82262,80.91005 38.62567,80.77054 38.06763,80.74592 37.80502,80.73772 37.56704,80.4669 37.96095,79.96631 38.25638,79.62164 38.08404,79.1949 37.91171,78.90768 37.30443,78.88306 37.02541,78.66148 36.81204,78.74355 36.91873,79.09643 36.5002,79.04719 36.57405,78.59583 36.96796,78.3004 37.3947,77.93932 37.38649,77.70133 37.2716,77.55361 37.79682,77.4059 37.78861,76.79862 38.10046,77.1515 38.24817,77.12688 38.18252,76.69194 38.12507,76.48678 38.33023,76.35548 38.14149,76.09286 37.92812,75.71537 38.20714,75.50201 37.94453,75.35429 37.96095,75.14092 38.13328,75.29684 38.23996,75.14092 38.1579,74.91114 37.91991,74.91114 37.91991,74.52544 38.35485,74.69777 38.64208,74.97679 38.74056,75.48559 38.51898,75.81385 38.42051,76.06824 38.55181,76.24879 38.5354,76.84786 38.43692,77.15971 38.51898,77.43052 38.78979,77.55361 38.90469,77.16791 39.0442,76.74117 39.12626,76.53602 39.00316,76.24059 39.24936,75.99439 39.21653,75.71537 39.03599,75.53483 39.31501,75.2394 39.50376,75.00962 39.43811,74.78804 39.25756,74.55827 39.67609,74.14794 39.61864,73.88534 39.4299,73.63914 39.65147,73.09752 39.74995,72.79388 39.65968,72.28508 39.95511,71.89117 40.04538,71.51367 39.74995,71.34134 39.89767,70.89819 39.57761,70.62737 39.38887,70.76688 39.10164,71.01308 38.85545,71.13618 38.84724,71.39878 38.99496,71.84193 38.73235,72.21122 38.69952,72.67078 38.78159,72.91698 38.73235,73.16317 38.51078,73.51604 37.92812,73.22061 38.20714,72.50665 38.23176,71.66138 38.37947,71.15259 38.74056,70.98026 38.6749,70.69303 38.50257,69.97906 38.51078,69.50309 38.64208,68.82196 38.74876,68.56756 39.01958,68.17365 39.25756,67.63203 39.1755,66.81138 38.91289,66.22872 38.94572,65.33422 38.78159,65.00597 38.91289,64.44792 39.29039,64.31662 39.37245,63.71755 39.71712,63.02821 39.9387,62.33887 40.11103,61.89572 40.48032,61.16535 40.61983,60.13954 41.03016,59.52406 41.03836,58.67879 41.26814,58.14537 41.24352,57.09495 41.12043,56.81593 40.99733,55.97887 41.04657,54.91204 41.40765,54.55916 41.40765,53.79596 41.23532,53.49232 41.27635,53.06559 41.56357,52.17929 41.86721,51.293 42.00672,50.78419 42.1052,49.31524 42.35139,48.71617 42.27753,48.23587 42.19547,47.82167 42.34319,47.32928 42.34319,46.66456 42.18726,46.39375 42.19547,45.97522 42.60579,45.53207 42.59758,44.72784 42.70427,44.31752 42.81095,43.28351 42.67144,42.49569 42.72068,41.51912 42.56476,41.05956 42.52373,40.15685 42.21188,39.94349 41.35841,39.25414 41.19428,38.8192 40.42288,38.44991 39.52017,37.87546 38.36306,37.4159 38.21534,37.11226 37.68193,36.97275 37.12389,36.59526 36.55764,35.92233 36.13911,35.6351 35.80265,34.88011 35.88472,34.33028 35.57287,33.87892 35.1051,32.98442 34.63734,32.12275 34.15316,31.4252 33.79207,30.63738 33.35713,29.50489 32.92219,28.64321 32.41339,28.00311 32.02769,27.28094 31.85535,26.85421 31.33834,26.40285 30.69824,26.16487 30.43564,25.84481 30.6408,25.47552 30.34537,24.94211 30.21406,24.36765 30.41922,23.72755 31.10036,23.07924 31.60916,22.70995 31.75687,22.25039 31.68302,21.93855 31.19884,21.91393 30.71465,21.66774 30.69824,21.18356 30.83775,20.37112 31.12498,19.43558 31.60095,18.79548 31.6584,18.22103 31.95383,17.95842 32.44622,17.8025 32.84013,17.59734 32.79089,17.1624 33.1848,17.02289 33.10273,16.47306 33.43919,16.12018 33.75925,16.23507 34.10392,16.07915 34.39114,15.38981 34.68657,14.95486 34.55527,14.33938 34.62092,13.77314 34.44859,12.79657 34.64554,12.38625 34.50603,12.11544 34.56348,11.73794 34.48141,11.35224 33.94056,10.75477 34.6926,9.80654 34.59451,9.34877 34.88879,9.67575 35.03592,10.05177 35.28115,10.05177 35.19941,9.43052 35.72257,8.94005 36.08224,8.48229 36.60541,8.20436 36.60541,7.66485 36.75254,6.9455 37.4065,6.55313 "
     id="polygon4"
     transform="matrix(0.66666667,0,0,0.66666667,-3.1977015,-0.59952005)"
     style="fill:#ffffff" /><polygon
     points="45.72802,91.7466 46.46372,92.33515 46.85609,92.74387 47.46099,93.0545 47.83701,93.15259 48.22939,93.0218 48.22939,93.29973 47.77162,93.67575 47.41195,93.54496 46.6272,93.80654 46.18579,94.03542 45.85881,94.3951 45.74437,94.14986 45.15582,94.14986 44.97598,93.77384 44.45282,93.85558 44.63266,94.21526 44.53456,94.3951 44.91058,94.54224 44.99233,95 44.59996,94.60763 44.25663,94.67303 43.9787,94.28065 43.73347,94.3297 43.48824,94.55859 43.03048,94.26431 42.98143,93.90463 43.24301,93.54496 42.80159,93.43052 42.39287,93.49591 42.14764,93.95368 41.83701,93.74114 42.11494,93.51226 41.91876,93.25068 41.72257,92.9891 41.3956,92.89101 40.87244,92.95641 40.6272,92.79292 40.6272,92.66212 40.95418,92.79292 41.23211,92.62943 41.3956,92.44959 41.36662,92.22674 41.0876,92.1775 40.77575,92.33342 40.6272,92.15288 40.26696,91.8082 39.97152,91.88206 39.6925,91.85744 39.52837,91.58663 39.41349,91.33223 39.11805,91.08604 38.81441,90.98756 38.74876,90.71675 38.74876,90.3967 37.67372,89.80583 37.67372,89.60888 38.22355,89.84686 38.96213,90.27361 39.37245,90.6511 39.74995,90.96294 40.09462,91.11887 40.25875,91.35685 40.43108,91.6769 40.84141,91.69331 41.30097,91.8082 41.62102,92.01635 41.70308,92.3088 41.52254,92.57961 41.80977,92.64526 42.08058,92.50575 42.15444,92.34983 41.94107,92.21853 41.91645,91.63587 42.14623,91.29941 42.34319,91.12708 42.37601,91.52919 42.40884,91.93951 42.4827,92.1775 42.3596,92.38266 42.45808,92.51396 42.86019,92.42369 42.95155,92.75195 43.2459,92.66988 43.68084,92.66988 43.84496,92.77657 43.96806,92.62064 43.82855,92.42369 43.36079,92.22674 42.95155,91.98055 42.73709,91.47174 42.95155,91.22555 43.41823,91.0368 43.59877,90.80702 43.39361,90.59365 43.06535,90.528 42.63862,90.72495 42.39287,90.56948 42.47462,89.96458 42.71985,89.88284 42.55636,89.6376 43.17761,89.55585 43.53729,89.0327 43.71712,89.27793 44.27298,89.14714 44.73075,89.89919 44.33838,90.14442 44.58361,90.47139 44.91058,90.56948 45.28661,91.28883 "
     id="polygon6"
     transform="matrix(0.66666667,0,0,0.66666667,-3.1977015,-0.59952005)"
     style="fill:#ffffff" /><polygon
     points="36.94334,84.49627 36.87769,84.59474 36.87769,85.10354 36.72998,85.65337 36.95155,85.75185 37.15671,85.11996 37.37829,84.85735 "
     id="polygon8"
     transform="matrix(0.66666667,0,0,0.66666667,-3.1977015,-0.59952005)"
     style="fill:#ffffff" /><polygon
     points="37.2634,88.27943 37.12389,87.89373 37.37829,87.68857 37.59166,87.79115 37.73116,88.08248 37.60807,88.32867 37.57524,88.6159 "
     id="polygon10"
     transform="matrix(0.66666667,0,0,0.66666667,-3.1977015,-0.59952005)"
     style="fill:#ffffff" /><polygon
     points="53.98608,87.44648 53.78297,87.50803 53.52446,87.50803 53.61063,87.75423 53.67218,87.90194 53.08132,88.16045 53.47523,88.40664 53.91837,88.02504 54.31228,87.90194 54.73081,87.24953 54.89084,87.00333 54.50924,87.07719 54.23843,87.00333 53.98608,87.20029 53.74604,87.00333 53.49984,87.00333 53.49984,87.15105 53.74604,87.22491 "
     id="polygon12"
     transform="matrix(0.66666667,0,0,0.66666667,-3.1977015,-0.59952005)"
     style="fill:#ffffff" /><polygon
     points="55.18627,87.26183 55.30936,87.44648 55.07548,87.60651 54.73081,87.77884 54.5831,88.14813 54.65696,88.40664 55.18627,88.40664 55.49401,88.00042 55.37091,87.70499 55.67866,87.70499 55.94947,87.79115 56.22028,87.58189 56.28183,87.18798 56.45006,87.0895 56.26952,86.89255 55.97409,87.00333 55.67866,86.80638 "
     id="polygon14"
     transform="matrix(0.66666667,0,0,0.66666667,-3.1977015,-0.59952005)"
     style="fill:#ffffff" /></svg>