<?xml version="1.0"?>
<svg xmlns="http://www.w3.org/2000/svg" xmlns:xlink="http://www.w3.org/1999/xlink" version="1.1" id="Capa_1" x="0px" y="0px" width="512px" height="512px" viewBox="0 0 471.023 471.023" style="enable-background:new 0 0 471.023 471.023;" xml:space="preserve" class=""><g><g>
	<g>
		<path d="M297.662,346.577c-4.945-7.069-8.672-18.29-2.781-58.272c6.163,7.382,18.599,18.983,34.836,17.18    c23.548-2.612-17.011-7.104-5.891-35.93c11.125-28.834,60.115-162.942,13.373-213.969C290.457,4.557,199.532-3.294,162.243,33.995    s-68.038,113.18-21.588,209.346c0,0,22.061,41.865,4.488,54.953c0,0,30.14,4.141,41.004-13.031    c5.504,35.729,3.683,49.644-0.181,57.595C121.8,355.87,16.571,387.552,0,460.271h235.511h235.513    C444.069,393.704,358.006,361.533,297.662,346.577z M189.413,270.68c-0.054-0.377-0.03-0.75-0.1-1.126    c-0.252-1.311-0.663-2.617-1.114-3.928c-6.675-19.147-32.855-38.786-20.727-73.438c-0.227,3.132,0.996,8.245,7.856,15.827    c12.429,13.738-23.55-94.858,14.391-111.216c0,0,91.592,26.211,73.266,77.215c0,0,28.79-17.028,31.402-31.424    c2.617-14.398,9.161-2.615,7.851,19.626c0,0,20.967-8.945,30.176-23.896c-0.076,18.149-1.991,38.607-5.858,61.438l-7.851,42.926    c-6.248,6.969-13.737,14.964-21.604,22.942c-1.286,1.311-2.572,2.625-3.891,3.928c-1.318,1.318-2.653,2.62-3.979,3.923    c-19.741,19.344-40.118,36.632-48.49,36.632c-8.361,0-28.741-17.288-48.483-36.632    C191.307,272.543,190.355,271.614,189.413,270.68z M240.748,421.675c-39.134,0-70.983-18.045-70.983-40.23    c0-7.186,3.565-14.314,10.307-20.622l0.928-0.869c1.633-1.439,3.46-2.842,5.432-4.176l1.176-1.198    c2.817-3.547,5.676-7.146,7.574-13.514c2.787-9.354,3.488-24.77-0.948-54.745c17.418,16.406,36.331,31.654,46.506,31.654    c10.171,0,29.086-15.248,46.502-31.654c-4.937,33.37-3.494,48.694,0.169,57.835c1.871,4.669,4.323,7.742,6.765,10.816l0.873,0.821    c1.992,1.347,3.84,2.773,5.482,4.231l0.882,0.81c6.736,6.312,10.303,13.441,10.303,20.623    C311.724,403.63,279.885,421.675,240.748,421.675z" data-original="#000000" class="active-path" data-old_color="#000000" fill="#A5A3A3"/>
	</g>
</g></g> </svg>
