<?xml version="1.0" encoding="UTF-8" standalone="no"?>
<!-- Created with Inkscape (http://www.inkscape.org/) -->

<svg
   xmlns:dc="http://purl.org/dc/elements/1.1/"
   xmlns:cc="http://creativecommons.org/ns#"
   xmlns:rdf="http://www.w3.org/1999/02/22-rdf-syntax-ns#"
   xmlns:svg="http://www.w3.org/2000/svg"
   xmlns="http://www.w3.org/2000/svg"
   version="1.1"
   width="55"
   height="55"
   id="svg3006">
  <defs
     id="defs3008" />
  <metadata
     id="metadata3011">
    <rdf:RDF>
      <cc:Work
         rdf:about="">
        <dc:format>image/svg+xml</dc:format>
        <dc:type
           rdf:resource="http://purl.org/dc/dcmitype/StillImage" />
        <dc:title></dc:title>
      </cc:Work>
    </rdf:RDF>
  </metadata>
  <rect
     width="20.051424"
     height="24.936441"
     rx="20.857899"
     ry="0"
     x="17.510422"
     y="16.54661"
     id="rect2983"
     style="fill:#ffffff;fill-opacity:1;stroke:#ffffff;stroke-width:2.79673243;stroke-linecap:round;stroke-linejoin:round;stroke-miterlimit:4;stroke-opacity:1;stroke-dasharray:none" />
  <g
     transform="translate(-586.53246,-368.27837)"
     id="layer1"
     style="stroke:#ffffff;stroke-opacity:1">
    <path
       d="m 594.17826,420.77837 -1.6295,-1.6295 0,-6.08919 8.66209,-8.57633 0,-17.06689 -6.68953,-6.60378 0,-7.63294 2.40137,-2.40137 6.08919,0 1.54374,1.45799 0,2.14408 3.259,0 0,-2.14408 1.45797,-1.45799 9.51973,0 1.45798,1.45799 0,2.14408 3.25901,0 0,-2.14408 1.45797,-1.45799 6.17495,0 2.40138,2.40137 0,7.63294 -6.68953,6.60378 0,17.06689 8.66208,8.57633 0,6.08919 -1.71526,1.6295 -39.62264,0 m 10.12007,-18.26757 0,2.91595 19.46827,0 0,-2.91595 -19.46827,0 m 0,-15.4374 0,2.91595 19.46827,0 0,-2.91595 -19.46827,0"
       id="path1734"
       style="font-size:12px;font-style:normal;font-weight:normal;fill:#000000;fill-opacity:1;stroke:#ffffff;stroke-opacity:1;font-family:Bitstream Vera Sans" />
  </g>
</svg>
