<?xml version="1.0"?>
<svg xmlns="http://www.w3.org/2000/svg" height="512px" viewBox="0 -64 428 428" width="512px" class=""><g><path d="m317.921875 187.929688h-207.84375c-11.871094 0-21.5 9.625-21.5 21.5s9.628906 21.5 21.5 21.5h207.84375c11.871094 0 21.5-9.625 21.5-21.5s-9.628906-21.5-21.5-21.5zm-169.921875 27c0 3.3125-2.6875 6-6 6h-11c-3.3125 0-6-2.6875-6-6v-11c0-3.3125 2.6875-6 6-6h11c3.3125 0 6 2.6875 6 6zm155 0c0 3.3125-2.6875 6-6 6h-11c-3.3125 0-6-2.6875-6-6v-11c0-3.3125 2.6875-6 6-6h11c3.3125 0 6 2.6875 6 6zm0 0" data-original="#000000" class="active-path" data-old_color="#000000" fill="#A5A3A3"/><path d="m53.757812 234.929688c-3.054687-10.160157-4.65625-20.699219-4.757812-31.308594v-21.574219c.117188-6.753906.820312-13.484375 2.09375-20.117187h-14.980469c-19.914062 0-36.113281 16.585937-36.113281 36.5 0 19.914062 16.199219 36.5 36.113281 36.5zm0 0" data-original="#000000" class="active-path" data-old_color="#000000" fill="#A5A3A3"/><path d="m391.886719 161.929688h-14.980469c1.273438 6.632812 1.976562 13.363281 2.09375 20.117187v21.574219c-.101562 10.609375-1.703125 21.148437-4.757812 31.308594h17.644531c19.914062 0 36.113281-16.585938 36.113281-36.5 0-19.914063-16.199219-36.5-36.113281-36.5zm0 0" data-original="#000000" class="active-path" data-old_color="#000000" fill="#A5A3A3"/><path d="m366 182.164062c0-53.148437-43.085938-96.234374-96.234375-96.234374h-112.53125c-53.148437 0-96.234375 43.085937-96.234375 96.234374v21.527344c0 53.152344 43.085938 96.238282 96.234375 96.238282h112.53125c53.148437 0 96.234375-43.085938 96.234375-96.238282zm-48.078125 60.765626h-207.84375c-18.5 0-33.5-15-33.5-33.5 0-18.503907 15-33.5 33.5-33.5h207.84375c18.5 0 33.5 14.996093 33.5 33.5 0 18.5-15 33.5-33.5 33.5zm0 0" data-original="#000000" class="active-path" data-old_color="#000000" fill="#A5A3A3"/><path d="m353.910156 28.109375c-.136718 13.253906 9.117188 24.753906 22.089844 27.460937v100.359376h12v-100.359376c12.980469-2.703124 22.246094-14.199218 22.128906-27.460937 0-15.523437-12.585937-28.109375-28.109375-28.109375-15.523437 0-28.109375 12.585938-28.109375 28.109375zm0 0" data-original="#000000" class="active-path" data-old_color="#000000" fill="#A5A3A3"/></g> </svg>
