<?xml version="1.0" standalone="no"?>
<!DOCTYPE svg PUBLIC "-//W3C//DTD SVG 20010904//EN"
 "http://www.w3.org/TR/2001/REC-SVG-20010904/DTD/svg10.dtd">
<svg version="1.0" xmlns="http://www.w3.org/2000/svg"
 width="1280.000000pt" height="1265.000000pt" viewBox="0 0 1280.000000 1265.000000"
 preserveAspectRatio="xMidYMid meet">
<metadata>
Created by potrace 1.15, written by Peter Selinger 2001-2017
</metadata>
<g transform="translate(0.000000,1265.000000) scale(0.100000,-0.100000)"
fill="#000000" stroke="none">
<path d="M342 12148 l-32 -34 0 -421 0 -421 63 -7 c555 -59 916 -166 1067
-315 118 -117 189 -323 220 -639 14 -143 14 -7769 0 -7912 -20 -207 -64 -388
-120 -499 -90 -179 -248 -275 -594 -360 -121 -30 -385 -74 -511 -85 -38 -3
-82 -9 -97 -11 l-28 -6 0 -422 0 -422 28 -27 29 -28 3099 4 c3291 3 3136 1
3594 47 1828 183 3208 805 4141 1868 562 640 941 1435 1133 2377 165 813 190
1803 66 2676 -151 1061 -523 1943 -1125 2669 -111 134 -398 423 -539 544 -944
808 -2203 1273 -3821 1411 -447 38 -460 38 -3525 42 l-3015 4 -33 -33z m5923
-888 c813 -36 1401 -228 1855 -608 545 -456 862 -1220 1019 -2457 109 -859
131 -2099 56 -3105 -67 -881 -221 -1624 -444 -2145 -375 -872 -1062 -1343
-2146 -1470 -189 -22 -705 -31 -901 -16 -499 40 -760 137 -885 332 -68 107
-124 289 -156 514 -16 111 -17 395 -21 3950 -2 2688 0 3877 8 3988 25 375 103
627 234 760 147 149 465 236 941 256 99 4 189 9 200 9 11 1 119 -3 240 -8z"/>
</g>
</svg>
