<?xml version="1.0" standalone="no"?>
<!DOCTYPE svg PUBLIC "-//W3C//DTD SVG 20010904//EN"
 "http://www.w3.org/TR/2001/REC-SVG-20010904/DTD/svg10.dtd" [<!ENTITY stroke_color "#010101">
	<!ENTITY fill_color "#FFFFFF">]>
<svg version="1.0" xmlns="http://www.w3.org/2000/svg"
 width="1280.000000pt" height="1280.000000pt" viewBox="0 0 1280.000000 1280.000000"
 preserveAspectRatio="xMidYMid meet">
<metadata>
Created by potrace 1.15, written by Peter Selinger 2001-2017
</metadata>
<g transform="translate(0.000000,1280.000000) scale(0.100000,-0.100000)"
style="fill:&fill_color;; stroke=:&stroke_color;">
<path d="M6267 11666 c-76 -22 -122 -58 -142 -111 -17 -43 -17 -51 0 -159 10
-63 15 -122 11 -131 -5 -15 -19 -16 -129 -10 -145 9 -173 0 -209 -68 -20 -36
-23 -57 -23 -147 1 -89 4 -112 24 -153 38 -78 66 -91 206 -97 141 -6 136 5 74
-147 -26 -62 -43 -123 -48 -167 -5 -42 -13 -71 -22 -76 -124 -70 -157 -153
-92 -230 28 -34 29 -34 -67 -50 -36 -6 -121 -25 -189 -41 -292 -71 -475 -170
-533 -287 -47 -96 -23 -332 67 -639 79 -274 256 -696 396 -944 32 -58 59 -112
59 -120 0 -28 -18 -40 -131 -89 -63 -28 -124 -60 -136 -73 -14 -14 -30 -58
-46 -124 -33 -133 -42 -146 -121 -167 -35 -10 -73 -28 -85 -40 -28 -29 -53
-104 -46 -136 15 -66 105 -124 211 -136 84 -9 98 -21 118 -100 22 -93 62 -133
191 -194 76 -36 104 -54 113 -75 59 -129 31 -1280 -44 -1780 -56 -378 -166
-736 -329 -1070 -118 -241 -210 -385 -377 -583 -93 -112 -102 -127 -117 -212
-16 -93 -47 -131 -160 -196 -108 -62 -206 -140 -288 -228 -306 -330 -407 -723
-238 -924 l25 -30 -57 -35 c-66 -40 -123 -97 -147 -144 -24 -47 -31 -143 -16
-198 45 -162 301 -273 835 -364 679 -116 1795 -143 2660 -66 803 72 1270 209
1356 399 22 48 25 139 7 198 -16 53 -85 129 -159 174 l-58 36 34 41 c52 61 70
124 70 247 0 117 -20 196 -80 327 -100 216 -326 461 -525 568 -114 61 -144 99
-160 200 -13 84 -13 83 -112 202 -174 209 -250 325 -372 570 -184 370 -306
794 -356 1238 -35 314 -63 926 -56 1245 3 157 10 307 16 334 13 62 37 88 106
115 70 27 157 84 180 119 10 15 26 56 34 92 19 75 29 83 131 98 87 13 135 37
170 85 35 48 36 72 8 137 -22 52 -63 80 -136 95 -55 11 -66 33 -114 224 -14
59 -41 81 -153 125 -97 38 -146 68 -146 89 0 7 14 37 30 67 304 555 513 1157
514 1485 1 105 -2 125 -21 160 -69 130 -313 245 -668 314 -148 30 -140 25
-115 61 52 73 32 138 -63 209 l-55 40 -4 63 c-3 43 -17 95 -46 167 -60 147
-62 141 58 141 117 0 151 11 199 65 46 53 61 94 61 168 0 81 -23 159 -60 200
l-29 32 -139 0 c-77 0 -144 3 -148 8 -4 4 1 58 11 120 11 67 15 127 11 149
-17 92 -105 140 -266 144 -68 2 -122 -1 -153 -10z"/>
</g>
</svg>
