<?xml version="1.0" standalone="no"?>
<!DOCTYPE svg PUBLIC "-//W3C//DTD SVG 20010904//EN"
 "http://www.w3.org/TR/2001/REC-SVG-20010904/DTD/svg10.dtd" [
	<!ENTITY stroke_color "#010101">
	<!ENTITY fill_color "#FFFFFF">
]>
<svg version="1.0" xmlns="http://www.w3.org/2000/svg"
 width="1184.000000pt" height="1280.000000pt" viewBox="0 0 1184.000000 1280.000000"
 preserveAspectRatio="xMidYMid meet">
<metadata>
Created by potrace 1.15, written by Peter Selinger 2001-2017
</metadata>
<g transform="translate(0.000000,1280.000000) scale(0.100000,-0.100000)"
fill="&fill_color;" stroke="&stroke_color;">
<path fill="&fill_color;" d="M5575 12788 c-5 -15 -134 -411 -191 -590 l-38 -118 -363 0 -363 0 2
-352 3 -353 395 -241 395 -242 3 -228 2 -229 -37 -25 c-178 -120 -425 -322
-569 -466 -173 -174 -262 -312 -338 -524 -73 -203 -126 -625 -126 -1007 0 -51
-2 -93 -4 -93 -2 0 -62 44 -134 98 -569 423 -1161 632 -1792 632 -417 0 -766
-82 -1122 -261 -372 -189 -705 -469 -919 -774 -342 -488 -464 -1174 -314
-1766 83 -326 250 -684 500 -1069 34 -52 144 -210 245 -350 532 -742 739
-1122 876 -1610 151 -535 226 -1025 258 -1695 17 -337 25 -382 91 -520 55
-114 131 -212 227 -295 301 -261 765 -439 1458 -559 1160 -201 3209 -201 4400
0 931 157 1506 450 1694 861 56 123 66 180 76 438 39 1008 186 1712 496 2368
111 235 195 369 504 797 367 509 491 701 639 995 246 485 336 882 301 1319
-36 459 -200 881 -476 1227 -384 483 -883 770 -1509 866 -169 26 -525 35 -691
19 -529 -54 -1041 -269 -1533 -643 -57 -44 -105 -77 -107 -75 -2 2 -8 80 -14
173 -26 423 -27 431 -95 717 -48 202 -74 290 -100 342 -102 204 -393 505 -757
783 l-127 97 2 229 2 228 387 242 387 241 1 353 0 352 -353 0 -352 0 -126 358
-125 357 -332 3 c-261 2 -334 0 -337 -10z m-2920 -4428 c470 -53 956 -278
1442 -667 525 -421 894 -946 1095 -1558 115 -351 170 -679 188 -1111 9 -238
15 -271 60 -332 79 -110 236 -162 484 -162 243 0 395 62 460 188 24 46 35 139
40 337 25 876 324 1643 868 2221 479 509 1010 865 1508 1014 459 136 1044 93
1468 -110 493 -235 747 -627 803 -1235 20 -222 0 -398 -71 -618 -137 -428
-547 -1126 -944 -1607 -221 -269 -590 -641 -721 -729 -127 -85 -293 -141 -527
-178 -158 -25 -740 -25 -1008 0 -466 44 -1146 136 -1737 236 l-173 30 -172
-30 c-974 -165 -1659 -246 -2170 -256 -498 -10 -772 34 -1022 165 -79 41 -111
67 -240 192 -281 274 -501 529 -773 893 -249 335 -412 594 -553 882 -142 289
-210 501 -231 723 -11 114 -10 124 30 393 44 300 59 356 141 521 193 387 511
633 960 742 101 24 275 52 370 59 104 8 341 6 425 -3z m4365 -6079 c736 -44
1180 -106 1460 -206 279 -100 379 -242 280 -398 -54 -85 -169 -130 -375 -147
-113 -10 -186 -5 -1300 88 l-1180 99 -155 -13 c-85 -7 -622 -52 -1192 -99
-948 -78 -1047 -85 -1138 -75 -126 12 -180 26 -251 61 -72 36 -114 85 -135
156 -32 110 13 177 170 253 149 72 365 128 701 180 219 34 1023 98 1445 114
187 7 1497 -3 1670 -13z"/>
<path d="M2271 7870 c-149 -21 -414 -101 -535 -162 -156 -78 -295 -192 -382
-314 -115 -161 -184 -398 -184 -634 0 -389 248 -905 714 -1485 318 -397 648
-692 956 -858 67 -36 102 -48 165 -57 300 -41 862 -62 1095 -41 352 33 582
105 706 223 98 92 115 158 103 390 -43 812 -270 1475 -685 1998 -85 107 -342
364 -454 453 -300 240 -634 403 -956 467 -122 25 -428 36 -543 20z"/>
<path d="M9065 7865 c-350 -57 -672 -209 -1005 -474 -123 -97 -427 -402 -511
-511 -254 -329 -424 -682 -533 -1107 -78 -305 -119 -605 -120 -888 -1 -181 0
-192 22 -234 93 -174 338 -276 767 -322 153 -16 658 -17 830 -1 72 7 182 19
245 28 110 14 119 17 210 71 136 81 573 454 769 658 237 245 447 505 586 725
91 145 207 383 250 515 38 114 75 305 75 382 0 85 -78 458 -110 530 -153 337
-449 545 -880 619 -135 22 -478 28 -595 9z"/>
</g>
</svg>
