<?xml version="1.0" encoding="UTF-8" standalone="no"?>
<!-- Created with Inkscape (http://www.inkscape.org/) -->

<svg
   xmlns:dc="http://purl.org/dc/elements/1.1/"
   xmlns:cc="http://creativecommons.org/ns#"
   xmlns:rdf="http://www.w3.org/1999/02/22-rdf-syntax-ns#"
   xmlns:svg="http://www.w3.org/2000/svg"
   xmlns="http://www.w3.org/2000/svg"
   version="1.1"
   width="55"
   height="55"
   id="svg3006">
  <defs
     id="defs3008" />
  <metadata
     id="metadata3011">
    <rdf:RDF>
      <cc:Work
         rdf:about="">
        <dc:format>image/svg+xml</dc:format>
        <dc:type
           rdf:resource="http://purl.org/dc/dcmitype/StillImage" />
        <dc:title></dc:title>
      </cc:Work>
    </rdf:RDF>
  </metadata>
  <path
     d=""
     id="path633"
     style="fill:none;stroke:#000000;stroke-width:0.47988895;stroke-linecap:round;stroke-linejoin:round;stroke-miterlimit:4;stroke-opacity:1;stroke-dasharray:none;stroke-dashoffset:0" />
  <g
     id="g3183">
    <rect
       width="24.936441"
       height="6.9915257"
       rx="15.125645"
       x="14.449153"
       y="41.016949"
       id="rect3054"
       style="fill:#ffffff;fill-opacity:1;stroke:#ffffff;stroke-width:3;stroke-linecap:round;stroke-linejoin:round;stroke-miterlimit:4;stroke-opacity:1;stroke-dasharray:none" />
    <path
       d="m 27.966103,28.315678 a 10.95339,10.137712 0 1 1 -21.9067806,0 10.95339,10.137712 0 1 1 21.9067806,0 z"
       transform="matrix(0.4432468,-0.48987347,0.74151473,0.67093659,-12.002371,18.117832)"
       id="path3058"
       style="fill:#ffffff;fill-opacity:1;stroke:#ffffff;stroke-width:3;stroke-linecap:round;stroke-linejoin:round;stroke-miterlimit:4;stroke-opacity:1;stroke-dasharray:none" />
    <path
       d="m 27.966103,28.315678 a 10.95339,10.137712 0 1 1 -21.9067806,0 10.95339,10.137712 0 1 1 21.9067806,0 z"
       transform="matrix(-0.4432468,-0.48987347,-0.74151473,0.67093659,66.990712,18.234357)"
       id="path3058-7"
       style="fill:#ffffff;fill-opacity:1;stroke:#ffffff;stroke-width:3;stroke-linecap:round;stroke-linejoin:round;stroke-miterlimit:4;stroke-opacity:1;stroke-dasharray:none" />
    <g
       transform="translate(-586.53246,-368.27837)"
       id="layer1"
       style="stroke:#ffffff;stroke-opacity:1">
      <path
         d="m 615.97606,401.72348 c 0,0.91465 -0.63517,1.37196 -1.90549,1.37196 -1.42277,0 -2.13415,-0.45731 -2.13415,-1.37196 0,-4.21748 -1.39736,-7.64736 -4.19207,-10.28963 -2.48984,-2.23577 -4.90346,-3.35366 -7.24086,-3.35366 -3.45528,0 -5.61484,1.37195 -6.47866,4.11586 l -0.30488,2.05793 0,0.15244 c 0,2.03251 1.49899,4.85264 4.49696,8.46036 0.81301,0.91464 1.49898,1.62602 2.05792,2.13415 0.81301,0.66056 2.15956,0.99085 4.03964,0.99085 1.9817,0 5.18293,-0.3811 9.60366,-1.14329 4.47155,0.76219 7.69817,1.14329 9.67988,1.14329 1.93089,0 3.27743,-0.33029 4.03964,-0.99085 2.13414,-1.88009 3.9126,-4.16667 5.33536,-6.85976 0.81301,-1.5244 1.21951,-2.76931 1.21951,-3.73475 0,-3.20123 -1.44817,-5.20834 -4.34451,-6.02134 -0.7622,-0.20326 -1.5752,-0.30489 -2.43902,-0.30489 -2.33739,0 -4.72561,1.14329 -7.16464,3.42989 -2.84553,2.54065 -4.26829,5.94511 -4.26829,10.2134 m 16.53963,-7.31706 c 0,2.03251 -1.39735,4.42072 -4.19207,7.16463 l -1.98171,1.67684 -0.76219,0.4573 c -0.96545,0.15244 -1.98171,0.22866 -3.04878,0.22866 -3.15041,0 -4.72561,-0.63516 -4.72561,-1.90549 0.10162,-3.91259 1.27032,-6.96138 3.5061,-9.14633 1.93088,-1.9309 3.9126,-2.89635 5.94511,-2.89635 2.59147,0 4.2429,0.94005 4.95427,2.82013 l 0.30488,1.60061 m -7.24085,19.35975 c 0,-1.32114 -3.73475,-1.98171 -11.20427,-1.98171 -2.03252,0 -3.83638,0.0762 -5.41158,0.22866 l -1.82928,0.15244 c -2.7439,0.3557 -4.11585,0.86382 -4.11585,1.52439 0,0.76219 0.68598,1.14329 2.05793,1.14329 l 9.22256,-0.76219 9.14635,0.76219 c 1.42275,0 2.13414,-0.35569 2.13414,-1.06707 m 4.2683,1.82927 c -0.10163,3.45529 -5.28456,5.18293 -15.54879,5.18293 -10.1626,0 -15.32013,-1.72764 -15.47257,-5.18293 -0.0508,-3.25203 -0.53353,-6.14837 -1.44816,-8.68902 -0.55895,-1.37195 -1.62602,-3.125 -3.20123,-5.25915 -1.98171,-2.69309 -2.97256,-5.0813 -2.97256,-7.16464 0,-3.25203 1.39736,-5.76727 4.19208,-7.54573 1.5752,-1.01626 3.32825,-1.52438 5.25914,-1.52438 2.64228,0 5.15752,0.96545 7.54574,2.89633 0,-2.33739 0.22866,-3.938 0.68598,-4.80182 0.35569,-0.96545 1.52438,-2.13416 3.50609,-3.5061 l 0,-1.75305 -3.12499,-1.90549 0,-2.74391 2.82011,0 0.91464,-2.82011 2.59146,0 0.99085,2.82011 2.7439,0 0,2.74391 -3.04877,1.90549 0,1.75305 c 1.93089,1.42276 3.12499,2.64227 3.58231,3.65854 l 0.53354,2.21035 c 0.0508,0.60976 0.10163,1.42278 0.15244,2.43903 2.38821,-1.93088 4.85265,-2.89633 7.3933,-2.89633 3.40447,0 6.04675,1.29573 7.92683,3.88719 1.06708,1.52439 1.60061,3.25203 1.60061,5.18292 0,2.08334 -0.99086,4.49695 -2.97257,7.24085 l -1.75305,2.43904 c -1.88007,2.84552 -2.84551,6.6565 -2.89633,11.43292 m -34.07013,-21.18902 c 0,-2.13414 1.06707,-3.5061 3.20121,-4.11585 0.60976,-0.20326 1.24493,-0.30489 1.90549,-0.30489 2.13415,0 4.16667,0.96545 6.09756,2.89635 2.18497,2.23577 3.32826,5.28455 3.42988,9.14633 0.0508,1.11789 -1.11789,1.75306 -3.5061,1.90549 -0.35568,0 -0.73678,0 -1.14329,0 -1.01626,0 -2.05792,-0.0762 -3.125,-0.22866 -1.67683,-0.81301 -3.35366,-2.41361 -5.03048,-4.80182 -1.21952,-1.77846 -1.82927,-3.27744 -1.82927,-4.49695"
         id="text1061"
         style="font-size:12px;font-style:normal;font-weight:normal;fill:#000000;fill-opacity:1;stroke:#ffffff;stroke-opacity:1;font-family:Bitstream Vera Sans" />
    </g>
  </g>
  <path
     d="m 40.755021,29.124795 c -1.10877,0 -2.018763,0.909992 -2.018763,2.018761 l 0,4.62969 -3.283849,-3.28385 c -0.784855,-0.783184 -2.043082,-0.78485 -2.826264,0 -0.783183,0.784854 -0.784823,2.069998 0,2.853181 l 3.310766,3.28385 -4.683521,0 c -1.10877,0 -2.018762,0.90999 -2.018762,2.018762 0,1.108769 0.909992,1.991843 2.018762,1.991843 l 4.656605,0 -3.28385,3.283849 c -0.783181,0.784854 -0.784823,2.069999 0,2.85318 0.784855,0.783182 2.07,0.757938 2.85318,-0.02692 l 3.256933,-3.283849 0,4.683524 c 0,1.10877 0.909993,1.991844 2.018763,1.991844 1.108769,0 1.991843,-0.883074 1.991843,-1.991844 l 0,-4.71044 3.337683,3.310765 c 0.784853,0.783182 2.043082,0.784855 2.826262,0 0.783182,-0.784853 0.784858,-2.043082 0,-2.826262 l -3.310765,-3.28385 4.656607,0 c 1.10877,0 1.991844,-0.883074 1.991844,-1.991843 0,-1.108771 -0.883074,-2.018763 -1.991844,-2.018763 l -4.683523,0 3.310765,-3.337683 c 0.783182,-0.784854 0.784857,-2.016165 0,-2.799347 -0.784854,-0.78318 -2.043082,-0.811775 -2.826263,-0.02691 l -3.310766,3.337682 0,-4.656604 c 0,-1.10877 -0.883074,-2.018763 -1.991843,-2.018763 z"
     id="rect3894"
     style="fill:#ffffff;fill-opacity:1;stroke:#282828;stroke-width:1.72267997;stroke-linecap:round;stroke-linejoin:round;stroke-miterlimit:4;stroke-opacity:1;stroke-dasharray:none" />
</svg>
