<?xml version="1.0" standalone="no"?>
<!DOCTYPE svg PUBLIC "-//W3C//DTD SVG 20010904//EN"
 "http://www.w3.org/TR/2001/REC-SVG-20010904/DTD/svg10.dtd">
<svg version="1.0" xmlns="http://www.w3.org/2000/svg"
 width="224.000000pt" height="224.000000pt" viewBox="0 0 224.000000 224.000000"
 preserveAspectRatio="xMidYMid meet">

<g transform="translate(0.000000,224.000000) scale(0.100000,-0.100000)"
fill="#000000" stroke="none">
<path d="M995 2163 c-55 -41 -178 -131 -272 -201 -95 -69 -173 -131 -173 -138
0 -7 66 -61 148 -120 81 -59 197 -145 257 -189 151 -112 153 -114 165 -95 5 8
10 72 10 142 l0 127 53 -5 c297 -31 543 -242 618 -531 25 -97 26 -244 3 -340
-80 -330 -394 -561 -734 -540 -189 12 -342 85 -473 227 -93 100 -138 185 -177
335 -24 90 -47 121 -101 135 -91 25 -169 -35 -169 -128 0 -93 66 -273 145
-396 49 -76 174 -207 250 -261 90 -64 217 -124 324 -153 83 -22 116 -26 246
-26 130 0 163 4 246 26 309 84 548 297 668 599 74 188 82 441 20 639 -83 263
-269 476 -522 595 -99 46 -221 80 -329 91 l-68 6 0 123 c0 128 -4 156 -24 154
-6 0 -56 -34 -111 -76z"/>
</g>
</svg>
