<?xml version="1.0"?>
<svg xmlns="http://www.w3.org/2000/svg" xmlns:xlink="http://www.w3.org/1999/xlink" version="1.1" id="Capa_1" x="0px" y="0px" viewBox="0 0 478.477 478.477" style="enable-background:new 0 0 478.477 478.477;" xml:space="preserve" width="512px" height="512px"><g><g>
	<path style="fill:#CC9640;" d="M249.947,416.918v-28.64h13.76v-16.48h8c24-14.16,27.04-44.16,27.44-56h-12.56v-11.76h-12v-16.88   h27.36c-15.076-8.616-20.312-27.821-11.697-42.897c8.616-15.076,27.821-20.312,42.897-11.697   c15.076,8.616,20.312,27.821,11.697,42.897c-2.785,4.873-6.824,8.912-11.697,11.697h27.36v17.2h-12v11.44h-12.72   c0,12.24,3.76,42.16,26.88,56h8l0.56,8v8.4h13.68v28.64L249.947,416.918z" data-original="#CC9640"/>
	<path style="fill:#CC9640;" d="M93.547,224.278v-28.64h13.68v-16.48h8c24-14.16,27.04-44.16,27.44-56h-12.56v-12h-12v-16.96h27.36   c-15.076-8.616-20.312-27.821-11.697-42.897c8.616-15.076,27.821-20.312,42.897-11.697s20.312,27.821,11.697,42.897   c-2.785,4.873-6.824,8.912-11.697,11.697h27.36v16.96h-12v11.44h-12.72c0,12.16,3.76,42.16,26.88,56h8l0.56,8v8.4h13.76v28.64   L93.547,224.278z" data-original="#CC9640"/>
</g><g>
	<path style="fill:#FFCF70;" d="M160.987,277.798c-74.536,0-134.96-60.424-134.96-134.96S86.451,7.878,160.987,7.878   c74.536,0,134.96,60.424,134.96,134.96c0,0.107,0,0.213,0,0.32C295.682,217.533,235.362,277.711,160.987,277.798z M93.467,224.278   h135.04v-28.64h-13.68v-16.48h-8.72l-2.08-1.44c-14.026-11.278-22.722-27.888-24-45.84l-1.12-9.04h12.96v-11.68h12v-16.96h-22.16   l6.72-11.92c8.476-15.155,3.061-34.311-12.093-42.787c-15.155-8.476-34.311-3.061-42.787,12.093   c-5.333,9.536-5.333,21.157,0,30.693l6.72,11.92h-22.16v16.96h12v11.44h13.12l-1.12,9.04c-1.278,17.952-9.974,34.562-24,45.84   l-2.08,1.44h-8.8v16.4h-13.68L93.467,224.278z" data-original="#FFCF70"/>
	<path style="fill:#FFCF70;" d="M317.467,470.438c-74.492,0.045-134.916-60.307-134.961-134.799   c-0.012-20.786,4.779-41.293,14.001-59.921l1.52-3.04l3.28-1.04c32.875-10.304,60.556-32.804,77.36-62.88l1.68-2.96l3.28-0.88   c72.151-18.53,145.662,24.938,164.192,97.088s-24.938,145.662-97.089,164.192C339.862,468.99,328.688,470.414,317.467,470.438   L317.467,470.438z M249.947,416.918h134.96v-28.64h-13.68v-16.48h-8.72l-2.08-1.44c-14.026-11.278-22.722-27.888-24-45.84   l-1.2-9.04h12.96v-11.44h12v-16.88h-22.08l6.72-11.92c8.476-15.155,3.061-34.311-12.093-42.787s-34.311-3.061-42.787,12.093   c-5.333,9.536-5.333,21.157,0,30.693l6.8,11.92h-22.24v17.2h12v11.44h12.96l-1.12,9.04c-1.278,17.952-9.974,34.562-24,45.84   l-2.08,1.44h-8.56v16.4h-13.76V416.918z" data-original="#FFCF70"/>
</g><g>
	<path style="fill:#FFFFFF" d="M228.507,187.638h-5.76v-8.48c0-4.418-3.582-8-8-8h-6.16c-14.4-10.08-19.12-28.56-20.64-40h3.92   c4.418,0,8-3.582,8-8v-4h4c4.418,0,8-3.582,8-8v-16.96c0-4.418-3.582-8-8-8h-8.48c10.654-18.999,3.89-43.037-15.109-53.691   s-43.037-3.89-53.691,15.109c-6.72,11.983-6.72,26.6,0,38.583h-8.48c-4.418,0-8,3.582-8,8v16.96c0,4.418,3.582,8,8,8h4v3.44   c0,4.418,3.582,8,8,8h3.92c-1.52,11.76-6.16,30.24-20.56,40h-6.24c-4.418,0-8,3.582-8,8v8.4h-5.76c-4.418,0-8,3.582-8,8v28.64   c0,4.418,3.582,8,8,8h135.04c4.418,0,8-3.582,8-8v-28C236.507,191.22,232.925,187.638,228.507,187.638z M220.507,216.278h-118.96   v-12.64h5.76c4.418,0,8-3.582,8-8v-8.48h0.56c1.471-0.01,2.91-0.425,4.16-1.2c26.4-16,30.24-49.36,30.72-62.88c0-4.418-3.582-8-8-8   h-4.56v-3.92c0-4.418-3.582-8-8-8h-4v-1.2h19.36c4.418,0.031,8.025-3.526,8.056-7.944c0.02-2.901-1.532-5.586-4.056-7.016   c-11.249-6.407-15.175-20.719-8.768-31.968c6.406-11.249,20.719-15.175,31.968-8.768s15.175,20.719,8.768,31.968   c-2.083,3.657-5.111,6.686-8.768,8.768c-3.844,2.178-5.194,7.06-3.016,10.904c1.43,2.524,4.115,4.076,7.016,4.056h19.36v1.2h-4   c-4.418,0-8,3.582-8,8v3.44h-4.56c-4.418,0-8,3.582-8,8c0.4,13.52,4.24,46.64,30.72,62.88c1.25,0.775,2.689,1.19,4.16,1.2h0.56v8.4   c0,4.418,3.582,8,8,8h5.76L220.507,216.278z" data-original="#35231A" class="active-path" data-old_color="#35231A"/>
	<path style="fill:#FFFFFF" d="M384.907,380.278h-5.68v-8.48c0-4.418-3.582-8-8-8h-6.16c-14.4-10.08-19.12-28.56-20.56-40h3.92   c4.418,0,8-3.582,8-8v-3.44h4c4.418,0,8-3.582,8-8v-17.2c0-4.418-3.582-8-8-8h-8.56c10.654-18.999,3.89-43.037-15.109-53.691   s-43.037-3.89-53.691,15.109c-6.72,11.983-6.72,26.6,0,38.583h-8.56c-4.418,0-8,3.582-8,8v17.2c0,4.418,3.582,8,8,8h4v3.44   c0,4.418,3.582,8,8,8h3.92c-1.52,11.76-6.16,30.24-20.64,40h-6.16c-4.418,0-8,3.582-8,8v8.4h-5.76c-4.418,0-8,3.582-8,8v28.64   c0,4.418,3.582,8,8,8h135.04c4.418,0,8-3.582,8-8v-28.56C392.907,383.86,389.325,380.278,384.907,380.278L384.907,380.278z    M376.907,408.918h-118.96v-12.64h5.76c4.418,0,8-3.582,8-8v-8.48h0.56c1.471-0.01,2.91-0.425,4.16-1.2   c26.48-16,30.24-49.36,30.72-62.88c0-4.418-3.582-8-8-8h-4.56v-3.44c0-4.418-3.582-8-8-8h-4v-1.12h19.36   c4.418,0.031,8.025-3.526,8.056-7.944c0.02-2.901-1.532-5.586-4.056-7.016c-11.3-6.406-15.267-20.76-8.86-32.06   c6.406-11.3,20.76-15.267,32.06-8.86c11.3,6.406,15.267,20.76,8.86,32.06c-2.098,3.7-5.16,6.763-8.86,8.86   c-3.844,2.178-5.194,7.06-3.016,10.904c1.43,2.524,4.115,4.076,7.016,4.056h19.36v1.2h-4c-4.418,0-8,3.582-8,8v3.44h-4.56   c-4.418,0-8,3.582-8,8c0.4,13.52,4.24,46.64,30.72,62.88c1.25,0.775,2.689,1.19,4.16,1.2h0.56v8.4c0,4.418,3.582,8,8,8h5.68   L376.907,408.918z" data-original="#35231A" class="active-path" data-old_color="#35231A"/>
	<path style="fill:#FFFFFF" d="M317.467,192.518c-7.801,0.035-15.587,0.704-23.28,2c28.498-73.585-8.052-156.339-81.637-184.837   S56.21,17.734,27.712,91.318s8.052,156.339,81.637,184.837c16.469,6.378,33.977,9.647,51.637,9.643   c7.777-0.06,15.536-0.756,23.2-2.08c-28.586,73.598,7.903,156.435,81.501,185.021c73.598,28.586,156.435-7.903,185.021-81.501   c28.586-73.598-7.903-156.435-81.501-185.021c-16.523-6.418-34.095-9.707-51.821-9.699L317.467,192.518z M160.987,269.798   c-70.118,0-126.96-56.842-126.96-126.96c0-70.118,56.842-126.96,126.96-126.96c70.118,0,126.96,56.842,126.96,126.96   c0,0.107,0,0.213,0,0.32C287.726,213.133,230.962,269.755,160.987,269.798L160.987,269.798z M317.467,462.438   c-70.074,0.102-126.962-56.621-127.064-126.695c-0.029-19.631,4.498-39,13.224-56.585c34.777-11.001,64.083-34.789,82-66.56   c67.865-17.455,137.031,23.41,154.486,91.275s-23.41,137.031-91.275,154.486c-10.197,2.623-20.681,3.966-31.211,3.999   L317.467,462.438z" data-original="#35231A" class="active-path" data-old_color="#35231A"/>
	<path style="fill:#FFFFFF" d="M305.947,73.798c0.48,0,45.84,5.52,70.96,38.08c14.4,18.64,19.68,42.8,16,72   c-0.547,4.159,2.211,8.035,6.32,8.88h1.12c4.015,0.04,7.438-2.904,8-6.88c4.72-33.6-1.68-61.84-18.88-84   c-29.44-37.84-80-43.84-81.76-44.08c-4.418-0.486-8.394,2.702-8.88,7.12S301.528,73.312,305.947,73.798L305.947,73.798   L305.947,73.798z" data-original="#35231A" class="active-path" data-old_color="#35231A"/>
	<path style="fill:#FFFFFF" d="M155.467,375.158c-0.48,0-45.84-1.92-73.6-32.48c-16-17.52-22.96-41.28-21.12-70.56   c0.287-4.418-3.062-8.233-7.48-8.52c-4.418-0.287-8.233,3.062-8.52,7.48c-2.16,33.84,6.32,61.52,25.2,82.32   c32.32,35.52,82.88,37.76,84.96,37.76c4.418,0,8-3.582,8-8s-3.582-8-8-8H155.467z" data-original="#35231A" class="active-path" data-old_color="#35231A"/>
</g></g> </svg>
