<?xml version="1.0" encoding="iso-8859-1"?>
<!-- Generator: Adobe Illustrator 19.0.0, SVG Export Plug-In . SVG Version: 6.00 Build 0)  -->
<svg version="1.1" id="Layer_1" xmlns="http://www.w3.org/2000/svg" xmlns:xlink="http://www.w3.org/1999/xlink" x="0px" y="0px"
	 viewBox="0 0 512.002 512.002" style="enable-background:new 0 0 512.002 512.002;" xml:space="preserve">
<path style="fill:white;" d="M280.102,426.151H141.889c-19.536,0-35.431-15.894-35.431-35.431v-46.683
	c0-8.424,6.829-15.253,15.253-15.253s15.253,6.829,15.253,15.253v46.683c0,2.715,2.209,4.925,4.925,4.925h138.213
	c8.424,0,15.253,6.829,15.253,15.253S288.526,426.151,280.102,426.151z"/>
<path style="fill:black;" d="M409.442,353.599l-61.375,59.72v66.123c0,8.035,9.701,12.074,15.404,6.415l133.276-132.257
	L363.471,221.344c-5.703-5.66-15.404-1.62-15.404,6.415v66.123L409.442,353.599z"/>
<g>
	<path style="fill:white;" d="M507.491,342.772L374.214,210.516c-4.593-4.558-10.645-7.067-17.045-7.067
		c-13.429,0-24.354,10.904-24.354,24.309v53.289H234.74c-8.424,0-15.253,6.829-15.253,15.253s6.829,15.253,15.253,15.253h109.62
		l43.212,42.046l-50.139,48.786c-2.951,2.871-4.616,6.814-4.616,10.932v66.123c0,13.403,10.926,24.307,24.354,24.309h0.002
		c6.399,0,12.452-2.511,17.045-7.067l133.276-132.257c2.886-2.863,4.509-6.762,4.509-10.827
		C512.002,349.534,510.377,345.635,507.491,342.772z M363.32,464.517v-44.758l56.758-55.228c2.951-2.871,4.616-6.813,4.616-10.932
		c0-4.118-1.664-8.06-4.616-10.932l-56.758-55.228v-44.758l111.772,110.918L363.32,464.517z"/>
	<path style="fill:white;" d="M390.288,183.216c-8.424,0-15.253-6.829-15.253-15.253V121.28c0-2.715-2.209-4.925-4.925-4.925
		H231.897c-8.424,0-15.253-6.829-15.253-15.253s6.829-15.253,15.253-15.253H370.11c19.536,0,35.431,15.894,35.431,35.431v46.683
		C405.541,176.387,398.712,183.216,390.288,183.216z"/>
</g>
<path style="fill:black;" d="M102.558,158.403l61.375-59.72V32.561c0-8.035-9.701-12.074-15.404-6.415L15.253,158.403
	l133.276,132.257c5.703,5.66,15.404,1.62,15.404-6.415v-66.123L102.558,158.403z"/>
<path style="fill:white;" d="M277.26,200.45H167.64l-43.212-42.046l50.139-48.787c2.951-2.871,4.616-6.813,4.616-10.932V32.561
	c0-13.404-10.926-24.309-24.354-24.309c-6.4,0-12.452,2.511-17.045,7.067L4.509,147.576C1.623,150.439,0,154.338,0,158.403
	s1.623,7.964,4.509,10.827l133.277,132.257c4.591,4.556,10.645,7.067,17.045,7.067l0,0c6.222,0,12.155-2.341,16.707-6.594
	c4.931-4.608,7.648-10.9,7.648-17.715v-53.289h98.075c8.424,0,15.253-6.829,15.253-15.253S285.685,200.45,277.26,200.45z
	 M148.68,269.32L36.908,158.403L148.68,47.485v44.758l-56.758,55.228c-2.951,2.871-4.616,6.813-4.616,10.932
	s1.664,8.06,4.616,10.932l56.758,55.228V269.32z"/>
<g>
</g>
<g>
</g>
<g>
</g>
<g>
</g>
<g>
</g>
<g>
</g>
<g>
</g>
<g>
</g>
<g>
</g>
<g>
</g>
<g>
</g>
<g>
</g>
<g>
</g>
<g>
</g>
<g>
</g>
</svg>
