<?xml version="1.0" encoding="iso-8859-1"?>
<!-- Generator: Adobe Illustrator 19.0.0, SVG Export Plug-In . SVG Version: 6.00 Build 0)  -->
<svg version="1.1" id="Capa_1" xmlns="http://www.w3.org/2000/svg" xmlns:xlink="http://www.w3.org/1999/xlink" x="0px" y="0px"
	 viewBox="0 0 53 53" style="enable-background:new 0 0 53 53;" xml:space="preserve">
<g>
	<g>
		<path d="M1,22h31v5c0,0.354,0.187,0.682,0.492,0.861C32.648,27.954,32.824,28,33,28c0.167,0,0.333-0.042,0.484-0.125l19-10.5
			C52.802,17.199,53,16.864,53,16.5s-0.198-0.699-0.516-0.875l-19-10.5c-0.311-0.172-0.687-0.166-0.992,0.014
			C32.187,5.318,32,5.646,32,6v5H1c-0.552,0-1,0.448-1,1v9C0,21.552,0.448,22,1,22z M2,13h31c0.552,0,1-0.448,1-1V7.695L49.933,16.5
			L34,25.305V21c0-0.552-0.448-1-1-1H2V13z"/>
		<path d="M52,31H21v-5c0-0.354-0.187-0.682-0.492-0.861c-0.305-0.179-0.682-0.185-0.992-0.014l-19,10.5
			C0.198,35.801,0,36.136,0,36.5s0.198,0.699,0.516,0.875l19,10.5C19.667,47.959,19.833,48,20,48c0.176,0,0.352-0.046,0.508-0.139
			C20.813,47.682,21,47.354,21,47v-5h31c0.552,0,1-0.448,1-1v-9C53,31.448,52.552,31,52,31z M51,40H20c-0.552,0-1,0.448-1,1v4.305
			L3.067,36.5L19,27.695V32c0,0.552,0.448,1,1,1h31V40z"/>
	</g>
</g>
<g>
</g>
<g>
</g>
<g>
</g>
<g>
</g>
<g>
</g>
<g>
</g>
<g>
</g>
<g>
</g>
<g>
</g>
<g>
</g>
<g>
</g>
<g>
</g>
<g>
</g>
<g>
</g>
<g>
</g>
</svg>
