<?xml version="1.0" encoding="iso-8859-1"?>
<!-- Generator: Adobe Illustrator 19.0.0, SVG Export Plug-In . SVG Version: 6.00 Build 0)  -->
<svg version="1.1" id="Layer_1" xmlns="http://www.w3.org/2000/svg" xmlns:xlink="http://www.w3.org/1999/xlink" x="0px" y="0px"
	 viewBox="0 0 512 512" style="enable-background:new 0 0 512 512;" xml:space="preserve">
<g>
	<g>
		<path d="M478.569,133.054L308.776,2.123c-3.08-2.373-7.24-2.793-10.729-1.076c-3.489,1.716-5.699,5.265-5.699,9.153v83.585H39.66
			c-5.632,0-10.199,4.566-10.199,10.199v74.294c0,5.633,4.567,10.199,10.199,10.199h252.688v83.585c0,3.888,2.21,7.437,5.699,9.153
			c1.427,0.702,2.966,1.046,4.499,1.046c2.212,0,4.41-0.72,6.229-2.122l169.793-130.93c2.505-1.931,3.972-4.914,3.972-8.077
			S481.073,134.985,478.569,133.054z M312.747,251.317v-73.04c0-5.633-4.567-10.199-10.199-10.199H49.859v-53.896h252.688
			c5.632,0,10.199-4.566,10.199-10.199V30.945l142.891,110.186L312.747,251.317z"/>
	</g>
</g>
<g>
	<g>
		<path d="M472.34,323.525H219.652v-83.585c0-3.888-2.21-7.437-5.699-9.153c-3.487-1.714-7.649-1.299-10.729,1.076L33.432,362.794
			c-2.505,1.931-3.972,4.914-3.972,8.077s1.468,6.146,3.972,8.077l169.792,130.93c1.82,1.402,4.015,2.122,6.229,2.122
			c1.532,0,3.072-0.345,4.499-1.046c3.489-1.716,5.699-5.265,5.699-9.153v-83.583H472.34c5.632,0,10.199-4.566,10.199-10.199
			v-74.294C482.539,328.091,477.972,323.525,472.34,323.525z M462.141,397.819H209.453c-5.632,0-10.199,4.566-10.199,10.199v73.039
			L56.362,370.871l142.89-110.186v73.04c0,5.633,4.567,10.199,10.199,10.199h252.689V397.819z"/>
	</g>
</g>
<g>
	<g>
		<path d="M181.141,424.169l-2.288-1.771c-4.451-3.446-10.859-2.632-14.308,1.823c-3.447,4.454-2.631,10.861,1.823,14.308
			l2.288,1.771c1.857,1.438,4.054,2.135,6.236,2.135c3.047,0,6.062-1.361,8.073-3.957
			C186.411,434.023,185.595,427.616,181.141,424.169z"/>
	</g>
</g>
<g>
	<g>
		<path d="M152.571,402.051l-42.295-32.745c-4.455-3.448-10.859-2.633-14.308,1.822c-3.448,4.454-2.633,10.86,1.821,14.308
			l42.295,32.745c1.858,1.438,4.055,2.135,6.237,2.135c3.047,0,6.061-1.361,8.072-3.956
			C157.839,411.905,157.025,405.499,152.571,402.051z"/>
	</g>
</g>
<g>
</g>
<g>
</g>
<g>
</g>
<g>
</g>
<g>
</g>
<g>
</g>
<g>
</g>
<g>
</g>
<g>
</g>
<g>
</g>
<g>
</g>
<g>
</g>
<g>
</g>
<g>
</g>
<g>
</g>
</svg>
