<?xml version="1.0" encoding="UTF-8" standalone="no"?>
<!-- Created with Inkscape (http://www.inkscape.org/) -->

<svg
   xmlns:dc="http://purl.org/dc/elements/1.1/"
   xmlns:cc="http://creativecommons.org/ns#"
   xmlns:rdf="http://www.w3.org/1999/02/22-rdf-syntax-ns#"
   xmlns:svg="http://www.w3.org/2000/svg"
   xmlns="http://www.w3.org/2000/svg"
   xmlns:sodipodi="http://sodipodi.sourceforge.net/DTD/sodipodi-0.dtd"
   xmlns:inkscape="http://www.inkscape.org/namespaces/inkscape"
   width="55.000004"
   height="54.99754"
   id="svg2"
   version="1.1"
   inkscape:version="0.48.4 r9939"
   sodipodi:docname="Nouveau document 1">
  <defs
     id="defs4" />
  <sodipodi:namedview
     id="base"
     pagecolor="#ffffff"
     bordercolor="#666666"
     borderopacity="1.0"
     inkscape:pageopacity="0.0"
     inkscape:pageshadow="2"
     inkscape:zoom="3.959798"
     inkscape:cx="28.4472"
     inkscape:cy="32.624376"
     inkscape:document-units="px"
     inkscape:current-layer="layer1"
     showgrid="false"
     fit-margin-top="8.7"
     fit-margin-left="5"
     fit-margin-right="5"
     fit-margin-bottom="8"
     inkscape:window-width="1600"
     inkscape:window-height="837"
     inkscape:window-x="-8"
     inkscape:window-y="-8"
     inkscape:window-maximized="1" />
  <metadata
     id="metadata7">
    <rdf:RDF>
      <cc:Work
         rdf:about="">
        <dc:format>image/svg+xml</dc:format>
        <dc:type
           rdf:resource="http://purl.org/dc/dcmitype/StillImage" />
        <dc:title></dc:title>
      </cc:Work>
    </rdf:RDF>
  </metadata>
  <g
     inkscape:label="Calque 1"
     inkscape:groupmode="layer"
     id="layer1"
     transform="translate(-331.63454,-249.18248)">
    <path
       style="fill:#ffffff;stroke:#ffffff;stroke-width:0.18698149999999999"
       d="m 341.34277,282.79431 c 0.23073,-1.02733 0.48835,-1.58934 0.72856,-1.58934 0.20565,0 0.26597,0.30913 0.26597,1.36307 0,2.69621 0.87364,4.79257 2.78423,6.68098 2.50793,2.47881 5.72053,3.46848 9.03315,2.78274 1.45571,-0.30134 3.51187,-1.34306 4.62328,-2.34231 l 0.97455,-0.87621 -1.22834,-1.23784 c -0.67559,-0.6808 -1.22835,-1.34089 -1.22835,-1.46686 0,-0.17328 0.93316,-0.22904 3.83312,-0.22904 l 3.83312,0 0,3.83313 c 0,2.99622 -0.0524,3.83312 -0.24011,3.83312 -0.13207,0 -0.6966,-0.46223 -1.25453,-1.02718 l -1.01442,-1.02718 -0.79892,0.91328 c -1.66106,1.89884 -4.39265,3.22773 -7.3781,3.58935 -5.94665,0.72031 -11.66966,-3.18445 -12.85094,-8.7681 -0.20298,-0.95944 -0.2533,-3.67004 -0.0823,-4.43161 l 0,0 z"
       id="path3019"
       inkscape:connector-curvature="0" />
    <path
       style="fill:#ffffff;stroke:#ffffff;stroke-width:0.18698149999999999"
       d="m 376.08192,271.27188 c -0.23072,1.02733 -0.48834,1.58934 -0.72855,1.58934 -0.20566,0 -0.26598,-0.30913 -0.26598,-1.36307 0,-2.69621 -0.87363,-4.79257 -2.78423,-6.68098 -2.50793,-2.47881 -5.72053,-3.46848 -9.03314,-2.78274 -1.45572,0.30134 -3.51187,1.34306 -4.62329,2.34231 l -0.97455,0.87621 1.22835,1.23784 c 0.67559,0.6808 1.22834,1.34089 1.22834,1.46686 0,0.17328 -0.93316,0.22904 -3.83312,0.22904 l -3.83312,0 0,-3.83313 c 0,-2.99622 0.0524,-3.83312 0.24012,-3.83312 0.13206,0 0.6966,0.46223 1.25453,1.02718 l 1.01441,1.02718 0.79892,-0.91328 c 1.66106,-1.89884 4.39265,-3.22773 7.3781,-3.58935 5.94665,-0.72031 11.66966,3.18445 12.85095,8.7681 0.20298,0.95944 0.25329,3.67004 0.0823,4.43161 l 0,0 z"
       id="path3019-1"
       inkscape:connector-curvature="0" />
    <path
       inkscape:connector-curvature="0"
       style="fill:#ffffff"
       d="m 339.28703,276.24425 c -1.28382,-0.80033 -2.40482,-1.54809 -2.49113,-1.66168 -0.12139,-0.15978 -0.15778,-1.1434 -0.16075,-4.34561 -0.004,-3.98066 0.005,-4.14834 0.23785,-4.38079 0.23382,-0.23381 0.40283,-0.24169 5.18172,-0.24169 4.44547,0 4.95663,0.02 5.10589,0.19962 0.12949,0.15585 0.1791,1.01 0.22628,3.89535 l 0.0604,3.69572 1.92076,1.21053 c 2.14618,1.35261 2.41922,1.65481 2.12872,2.35612 -0.29669,0.71629 -0.37978,0.72758 -5.35526,0.72758 l -4.52029,0 -2.33421,-1.45515 z m 6.34754,-6.33963 0,-2.65868 -3.48998,-0.0321 c -2.47408,-0.0227 -3.53822,0.008 -3.65569,0.10543 -0.13016,0.10803 -0.16571,0.65064 -0.16571,2.52983 0,1.31577 0.0333,2.47913 0.074,2.58524 0.0659,0.17169 0.46846,0.18941 3.65569,0.16095 l 3.58165,-0.032 0,-2.65869 z"
       id="path3693"
       sodipodi:nodetypes="cssssscccsccccccsssccc" />
    <g
       id="g6359"
       transform="matrix(0.05678465,0,0,0.05678476,361.94858,264.5186)"
       style="fill:none;stroke:#ffffff"
       inkscape:transform-center-x="79.140652"
       inkscape:transform-center-y="7.3663095">
      <path
         transform="matrix(0.969697,0,0,0.969697,-90.879133,125.06999)"
         d="m 382.60403,134.2677 c 0,28.28848 -22.93234,51.22083 -51.22082,51.22083 -28.28848,0 -51.22083,-22.93235 -51.22083,-51.22083 0,-28.28848 22.93235,-51.220825 51.22083,-51.220825 28.28848,0 51.22082,22.932345 51.22082,51.220825 z"
         sodipodi:ry="51.220825"
         sodipodi:rx="51.220825"
         sodipodi:cy="134.2677"
         sodipodi:cx="331.38321"
         id="path2307"
         style="fill:none;stroke:#ffffff;stroke-width:20.62502097999999900;stroke-linecap:round;stroke-linejoin:round;stroke-miterlimit:4;stroke-opacity:1;stroke-dasharray:none;stroke-dashoffset:0"
         sodipodi:type="arc" />
      <path
         sodipodi:nodetypes="ccccccccccccc"
         id="path5343"
         d="m 290.55846,302.47333 -58.81513,59.20058 -59.39461,-59.40024 c -25.19828,-24.48771 -62.7038,13.33148 -38.1941,37.98719 l 60.04451,58.9817 -59.73639,59.42563 c -24.83976,24.97559 12.91592,63.26505 37.66786,37.75282 l 59.95799,-59.28294 58.75912,59.21065 c 24.50656,25.09065 62.43116,-13.00322 37.87956,-37.85772 l -59.24184,-59.02842 58.87574,-59.14782 c 25.1689,-25.18348 -13.0489,-62.75154 -37.80271,-37.84143 z"
         style="fill:none;stroke:#ffffff;stroke-width:20.00002097999999900;stroke-linecap:round;stroke-linejoin:miter;stroke-miterlimit:4;stroke-opacity:1;stroke-dasharray:none;stroke-dashoffset:0"
         inkscape:connector-curvature="0" />
    </g>
  </g>
</svg>
