<svg width="55.000004" height="54.99754" xmlns="http://www.w3.org/2000/svg">

 <metadata id="metadata7">image/svg+xml</metadata>
 <g>
  <title>background</title>
  <rect fill="none" id="canvas_background" height="56.99754" width="57.000004" y="-1" x="-1"/>
 </g>
 <g>
  <title>Layer 1</title>
  <g id="layer1">
   <path fill="#ffffff" stroke="#ffffff" stroke-width="0.186981" id="path3019" d="m9.208218,37.111828c0.23073,-1.02733 0.48835,-1.58934 0.72856,-1.58934c0.20565,0 0.26597,0.30913 0.26597,1.36307c0,2.69621 0.87364,4.79257 2.78423,6.68098c2.50793,2.47881 5.72053,3.46848 9.03315,2.78274c1.45571,-0.30134 3.51187,-1.34306 4.62328,-2.34231l0.97455,-0.87621l-1.22834,-1.23784c-0.67559,-0.6808 -1.22835,-1.34089 -1.22835,-1.46686c0,-0.17328 0.93316,-0.22904 3.83312,-0.22904l3.83312,0l0,3.83313c0,2.99622 -0.0524,3.83312 -0.24011,3.83312c-0.13207,0 -0.6966,-0.46223 -1.25453,-1.02718l-1.01442,-1.02718l-0.79892,0.91328c-1.66106,1.89884 -4.39265,3.22773 -7.3781,3.58935c-5.94665,0.72031 -11.66966,-3.18445 -12.85094,-8.7681c-0.20298,-0.95944 -0.2533,-3.67004 -0.0823,-4.43161l0,0l0.00003,0z"/>
   <path fill="#ffffff" stroke="#ffffff" stroke-width="0.186981" id="path3019-1" d="m44.197368,18.339403c-0.23072,1.02733 -0.48834,1.58934 -0.72855,1.58934c-0.20566,0 -0.26598,-0.30913 -0.26598,-1.36307c0,-2.69621 -0.87363,-4.79257 -2.78423,-6.68098c-2.50793,-2.47881 -5.72053,-3.46848 -9.03314,-2.78274c-1.45572,0.30134 -3.51187,1.34306 -4.62329,2.34231l-0.97455,0.87621l1.22835,1.23784c0.67559,0.6808 1.22834,1.34089 1.22834,1.46686c0,0.17328 -0.93316,0.22904 -3.83312,0.22904l-3.83312,0l0,-3.83313c0,-2.99622 0.0524,-3.83312 0.24012,-3.83312c0.13206,0 0.6966,0.46223 1.25453,1.02718l1.01441,1.02718l0.79892,-0.91328c1.66106,-1.89884 4.39265,-3.22773 7.3781,-3.58935c5.94665,-0.72031 11.66966,3.18445 12.85095,8.7681c0.20298,0.95944 0.25329,3.67004 0.0823,4.43161l0,0l-0.00004,0z"/>
  </g>

  <metadata transform="matrix(1.7776211667115263,0,0,1.7776211667115263,0,0) " id="svg_11">image/svg+xml</metadata>
  <g stroke="null" id="svg_13">
   <g stroke="null" transform="matrix(0.4084446917876855,0,0,0.5162221996153413,31.190492420599153,28.81623835180888) " id="svg_8">
    <g stroke="#000000" fill="#ffffff" stroke-width="3" stroke-miterlimit="4" id="svg_9" transform="matrix(0.94339623,0,0,0.94339623,34.756552,22.402548) ">
     <path stroke="#000000" fill="#ffffff" stroke-width="3" stroke-miterlimit="4" id="svg_10" d="m-25.39921,16.515071l-1.6295,-1.6295l0,-6.08919l8.66209,-8.57633l0,-17.06689l-6.68953,-6.60378l0,-7.63294l2.40137,-2.40137l6.08919,0l1.54374,1.45799l0,2.14408l3.259,0l0,-2.14408l1.45797,-1.45799l9.51973,0l1.45798,1.45799l0,2.14408l3.25901,0l0,-2.14408l1.45797,-1.45799l6.17495,0l2.40138,2.40137l0,7.63294l-6.68953,6.60378l0,17.06689l8.66208,8.57633l0,6.08919l-1.71526,1.6295l-39.62264,0m10.12007,-18.26757l0,2.91595l19.46827,0l0,-2.91595l-19.46827,0m0,-15.4374l0,2.91595l19.46827,0l0,-2.91595l-19.46827,0"/>
    </g>
   </g>
  </g>

  <metadata transform="matrix(1.7776211667115263,0,0,1.7776211667115263,0,0) " id="svg_24">image/svg+xml</metadata>
  <g stroke="null" id="svg_26">
   <rect stroke="#ffffff" transform="matrix(0.3579413667907684,0,0,0.45262219046231467,40.82131842757063,30.773729366570095) " fill="#ffffff" stroke-width="2.796732" stroke-linecap="round" stroke-linejoin="round" stroke-miterlimit="4" id="svg_23" y="-35.035181" x="-93.302946" rx="20.857899" height="24.936441" width="20.051424"/>
   <g stroke="#ffffff" transform="matrix(0.3579413667907684,0,0,0.45262219046231467,40.82131842757063,30.773729366570095) " id="svg_21">
    <path stroke="#ffffff" fill="#000000" id="svg_22" d="m-103.167573,0.918194l-1.6295,-1.6295l0,-6.08919l8.66209,-8.57633l0,-17.06689l-6.68953,-6.60378l0,-7.63294l2.40137,-2.40137l6.08919,0l1.54374,1.45799l0,2.14408l3.259,0l0,-2.14408l1.45797,-1.45799l9.51973,0l1.45798,1.45799l0,2.14408l3.25901,0l0,-2.14408l1.45797,-1.45799l6.17495,0l2.40138,2.40137l0,7.63294l-6.68953,6.60378l0,17.06689l8.66208,8.57633l0,6.08919l-1.71526,1.6295l-39.62264,0m10.12007,-18.26757l0,2.91595l19.46827,0l0,-2.91595l-19.46827,0m0,-15.4374l0,2.91595l19.46827,0l0,-2.91595l-19.46827,0"/>
   </g>
  </g>
 </g>
</svg>