<?xml version="1.0" encoding="UTF-8"?>
<!DOCTYPE svg PUBLIC "-//W3C//DTD SVG 1.1//EN" "http://www.w3.org/Graphics/SVG/1.1/DTD/svg11.dtd">
<svg version="1.2" width="210mm" height="297mm" viewBox="0 0 21000 29700" preserveAspectRatio="xMidYMid" fill-rule="evenodd" stroke-width="28.222" stroke-linejoin="round" xmlns="http://www.w3.org/2000/svg" xmlns:ooo="http://xml.openoffice.org/svg/export" xmlns:xlink="http://www.w3.org/1999/xlink" xmlns:presentation="http://sun.com/xmlns/staroffice/presentation" xmlns:smil="http://www.w3.org/2001/SMIL20/" xmlns:anim="urn:oasis:names:tc:opendocument:xmlns:animation:1.0" xml:space="preserve">
 <defs class="ClipPathGroup">
  <clipPath id="presentation_clip_path" clipPathUnits="userSpaceOnUse">
   <rect x="0" y="0" width="21000" height="29700"/>
  </clipPath>
 </defs>
 <defs class="TextShapeIndex">
  <g ooo:slide="id1" ooo:id-list="id3"/>
 </defs>
 <defs class="EmbeddedBulletChars">
  <g id="bullet-char-template(57356)" transform="scale(0.00048828125,-0.00048828125)">
   <path d="M 580,1141 L 1163,571 580,0 -4,571 580,1141 Z"/>
  </g>
  <g id="bullet-char-template(57354)" transform="scale(0.00048828125,-0.00048828125)">
   <path d="M 8,1128 L 1137,1128 1137,0 8,0 8,1128 Z"/>
  </g>
  <g id="bullet-char-template(10146)" transform="scale(0.00048828125,-0.00048828125)">
   <path d="M 174,0 L 602,739 174,1481 1456,739 174,0 Z M 1358,739 L 309,1346 659,739 1358,739 Z"/>
  </g>
  <g id="bullet-char-template(10132)" transform="scale(0.00048828125,-0.00048828125)">
   <path d="M 2015,739 L 1276,0 717,0 1260,543 174,543 174,936 1260,936 717,1481 1274,1481 2015,739 Z"/>
  </g>
  <g id="bullet-char-template(10007)" transform="scale(0.00048828125,-0.00048828125)">
   <path d="M 0,-2 C -7,14 -16,27 -25,37 L 356,567 C 262,823 215,952 215,954 215,979 228,992 255,992 264,992 276,990 289,987 310,991 331,999 354,1012 L 381,999 492,748 772,1049 836,1024 860,1049 C 881,1039 901,1025 922,1006 886,937 835,863 770,784 769,783 710,716 594,584 L 774,223 C 774,196 753,168 711,139 L 727,119 C 717,90 699,76 672,76 641,76 570,178 457,381 L 164,-76 C 142,-110 111,-127 72,-127 30,-127 9,-110 8,-76 1,-67 -2,-52 -2,-32 -2,-23 -1,-13 0,-2 Z"/>
  </g>
  <g id="bullet-char-template(10004)" transform="scale(0.00048828125,-0.00048828125)">
   <path d="M 285,-33 C 182,-33 111,30 74,156 52,228 41,333 41,471 41,549 55,616 82,672 116,743 169,778 240,778 293,778 328,747 346,684 L 369,508 C 377,444 397,411 428,410 L 1163,1116 C 1174,1127 1196,1133 1229,1133 1271,1133 1292,1118 1292,1087 L 1292,965 C 1292,929 1282,901 1262,881 L 442,47 C 390,-6 338,-33 285,-33 Z"/>
  </g>
  <g id="bullet-char-template(9679)" transform="scale(0.00048828125,-0.00048828125)">
   <path d="M 813,0 C 632,0 489,54 383,161 276,268 223,411 223,592 223,773 276,916 383,1023 489,1130 632,1184 813,1184 992,1184 1136,1130 1245,1023 1353,916 1407,772 1407,592 1407,412 1353,268 1245,161 1136,54 992,0 813,0 Z"/>
  </g>
  <g id="bullet-char-template(8226)" transform="scale(0.00048828125,-0.00048828125)">
   <path d="M 346,457 C 273,457 209,483 155,535 101,586 74,649 74,723 74,796 101,859 155,911 209,963 273,989 346,989 419,989 480,963 531,910 582,859 608,796 608,723 608,648 583,586 532,535 482,483 420,457 346,457 Z"/>
  </g>
  <g id="bullet-char-template(8211)" transform="scale(0.00048828125,-0.00048828125)">
   <path d="M -4,459 L 1135,459 1135,606 -4,606 -4,459 Z"/>
  </g>
 </defs>
 <defs class="TextEmbeddedBitmaps"/>
 <g>
  <g id="id2" class="Master_Slide">
   <g id="bg-id2" class="Background"/>
   <g id="bo-id2" class="BackgroundObjects"/>
  </g>
 </g>
 <g class="SlideGroup">
  <g>
   <g id="id1" class="Slide" clip-path="url(#presentation_clip_path)">
    <g class="Page">
     <g class="com.sun.star.drawing.ClosedBezierShape">
      <g id="id3">
       <rect class="BoundingBox" stroke="none" fill="none" x="399" y="4137" width="20667" height="23375"/>
       <path fill="rgb(153,153,153)" stroke="none" d="M 20412,5442 C 19986,4957 19416,4701 18836,4701 18557,4701 18276,4761 18007,4883 13051,7141 9327,10900 6292,16711 6178,16928 6110,17160 6058,17396 4521,17668 3162,18538 2224,19915 1203,21414 781,23322 1037,25293 L 1277,27155 2918,27430 C 3244,27484 3574,27510 3899,27510 6954,27510 9412,25097 9877,21741 10087,21681 10290,21595 10483,21465 15605,18016 18917,13794 20904,8171 21236,7232 21041,6157 20412,5442 Z M 3899,24982 C 3684,24982 3465,24962 3241,24926 2897,22266 4416,20110 6583,19843 L 7721,21134 C 7506,23359 5933,24982 3899,24982 Z M 9346,19290 L 8209,18000 C 8632,17190 9070,16442 9521,15720 9551,15772 11346,17809 11346,17809 10714,18316 10056,18814 9346,19290 Z M 12251,17050 C 12251,17050 10223,14773 10157,14744 12549,11225 15339,8822 18837,7232 17438,11185 15335,14340 12251,17050 Z"/>
       <path fill="rgb(255,255,255)" stroke="none" d="M 19848,4878 C 19422,4393 18852,4137 18272,4137 17993,4137 17712,4197 17443,4319 12487,6577 8763,10336 5728,16147 5614,16364 5546,16596 5494,16832 3957,17104 2598,17974 1660,19351 639,20850 217,22758 473,24729 L 713,26591 2354,26866 C 2680,26920 3010,26946 3335,26946 6390,26946 8848,24533 9313,21177 9523,21117 9726,21031 9919,20901 15041,17452 18353,13230 20340,7607 20672,6668 20477,5593 19848,4878 Z M 3335,24418 C 3120,24418 2901,24398 2677,24362 2333,21702 3852,19546 6019,19279 L 7157,20570 C 6942,22795 5369,24418 3335,24418 Z M 8782,18726 L 7645,17436 C 8068,16626 8506,15878 8957,15156 8987,15208 10782,17245 10782,17245 10150,17752 9492,18250 8782,18726 Z M 11687,16486 C 11687,16486 9659,14209 9593,14180 11985,10661 14775,8258 18273,6668 16874,10621 14771,13776 11687,16486 Z"/>
      </g>
     </g>
    </g>
   </g>
  </g>
 </g>
</svg>