<?xml version="1.0" standalone="no"?><!DOCTYPE svg PUBLIC "-//W3C//DTD SVG 1.1//EN" "http://www.w3.org/Graphics/SVG/1.1/DTD/svg11.dtd"
[
  <!ENTITY fill_color "#FFFFFF">
  <!ENTITY stroke_color "#000000">
]>
<svg
   xmlns:dc="http://purl.org/dc/elements/1.1/"
   xmlns:cc="http://creativecommons.org/ns#"
   xmlns:rdf="http://www.w3.org/1999/02/22-rdf-syntax-ns#"
   xmlns:svg="http://www.w3.org/2000/svg"
   xmlns="http://www.w3.org/2000/svg"
   xmlns:sodipodi="http://sodipodi.sourceforge.net/DTD/sodipodi-0.dtd"
   xmlns:inkscape="http://www.inkscape.org/namespaces/inkscape"
   width="55"
   height="55"
   id="svg2"
   version="1.1"
   inkscape:version="0.48.4 r9939"
   sodipodi:docname="tankop.svg">
  <defs
     id="defs4" />
  <sodipodi:namedview
     id="base"
     pagecolor="#ffffff"
     bordercolor="#ffffff"
     borderopacity="1.0"
     inkscape:pageopacity="0.0"
     inkscape:pageshadow="2"
     inkscape:zoom="3.959798"
     inkscape:cx="96.136334"
     inkscape:cy="-22.89408"
     inkscape:document-units="px"
     inkscape:current-layer="layer1"
     showgrid="false"
     inkscape:window-width="1600"
     inkscape:window-height="837"
     inkscape:window-x="-8"
     inkscape:window-y="-8"
     inkscape:window-maximized="1"
     fit-margin-top="0"
     fit-margin-left="0"
     fit-margin-right="0"
     fit-margin-bottom="0" />
  <g
     inkscape:label="Calque 1"
     inkscape:groupmode="layer"
     id="layer1"
     transform="translate(164.28101,-611.23726)">
    <path
       style="fill:&stroke_color;;fill-opacity:1"
       d="m -155.00451,657.59838 -3.21558,-3.84066 3.8e-4,-14.81751 3.9e-4,-14.81751 3.87705,-3.33883 c 3.87704,-3.33883 3.87704,-3.33883 11.70234,-3.33883 7.82528,0 7.82528,0 10.33633,2.85992 2.51105,2.85993 2.51105,2.85993 8.98413,2.36236 6.16851,-0.47414 6.55824,-0.40689 8.28316,1.42919 2.1896,2.33071 2.4433,7.25743 0.52454,10.18584 -1.01463,1.54852 -1.28554,4.00218 -1.28554,11.64335 0,9.68136 0,9.68136 -3.48846,12.59735 -3.48845,2.91599 -3.48845,2.91599 -17.9958,2.91599 l -14.50736,0 -3.21558,-3.84066 z m 35.27917,-0.90378 2.74962,-2.34535 -2.35682,-1.95045 c -2.33249,-1.93032 -2.51612,-1.9505 -17.78553,-1.95436 -13.93235,-0.004 -15.60557,0.13932 -17.25231,1.47277 -1.82361,1.47666 -1.82361,1.47666 0.34574,4.32084 2.16936,2.84417 2.16936,2.84417 16.85952,2.82304 14.69015,-0.0211 14.69015,-0.0211 17.43978,-2.36649 z m -32.18134,-1.1132 c -2.00455,-2.41533 -0.0462,-2.78404 14.78722,-2.78404 15.04737,0 17.70011,0.48773 15.70801,2.88806 -1.31875,1.58899 -29.16899,1.494 -30.49523,-0.10402 z m 30.61012,-13.88533 c 0,-6.38765 0,-6.38765 -2.94603,-5.9007 -1.62031,0.26782 -3.56469,0.49084 -4.32083,0.49559 -1.03752,0.006 -1.37482,0.66261 -1.37482,2.67422 0,1.70594 -0.44737,2.83725 -1.24266,3.14243 -0.68347,0.26227 -6.5166,0.47686 -12.96252,0.47686 l -11.71985,0 0,2.74962 0,2.74963 17.28335,0 17.28336,0 0,-6.38765 z m -10.21289,-2.67447 c 0,-1.09541 -0.54063,-2.81677 -1.20141,-3.82524 -1.16039,-1.77097 -1.11679,-1.8505 1.27661,-2.32918 1.36292,-0.27259 3.9805,-0.4956 5.81685,-0.4956 1.83636,0 4.44926,-0.22209 5.80646,-0.49353 1.96048,-0.3921 2.2866,-0.71163 1.58684,-1.5548 -0.63232,-0.7619 -0.6474,-1.73076 -0.0535,-3.43451 0.45502,-1.30528 0.58056,-2.3593 0.27897,-2.34227 -0.30158,0.0171 -3.72921,0.69545 -7.61694,1.50761 -3.88773,0.81215 -7.18646,1.35878 -7.33051,1.21473 -0.14406,-0.14405 0.0868,-0.91356 0.51308,-1.71 0.57458,-1.07362 0.4149,-1.89279 -0.61751,-3.16775 -1.38234,-1.70712 -1.39606,-1.6899 -1.88292,2.36281 -0.26973,2.24536 -0.49351,5.58495 -0.49726,7.4213 -0.004,1.8365 -0.38379,3.33883 -0.84461,3.33883 -0.55403,0 -0.75359,-2.66136 -0.5892,-7.85778 l 0.24857,-7.85778 -6.87406,0.002 -6.87406,0.002 0,8.24887 0,8.24888 7.04694,0 c 6.91898,0 7.07859,0.0428 8.78942,2.35682 2.1294,2.88018 3.01821,2.9877 3.01821,0.36517 z m 16.49775,-11.36367 c 0,-1.29625 -0.35352,-2.35682 -0.78561,-2.35682 -0.43208,0 -0.78561,1.06057 -0.78561,2.35682 0,1.29625 0.35353,2.35682 0.78561,2.35682 0.43209,0 0.78561,-1.06057 0.78561,-2.35682 z"
       id="path2995"
       inkscape:connector-curvature="0" />
    <path
       style="fill:&fill_color;;fill-opacity:1;stroke:&fill_color;;stroke-width:1.19037461;stroke-miterlimit:4;stroke-opacity:1;stroke-dasharray:none"
       d="m -155.82233,645.43807 0,-2.57915 8.03503,-0.002 c 4.41927,-7.9e-4 10.05237,-0.11805 12.518,-0.26012 5.08194,-0.29281 5.03557,-0.26119 5.53952,-3.77785 l 0.30245,-2.1105 3.54024,-0.50284 c 1.94714,-0.27657 3.6746,-0.36584 3.8388,-0.1984 0.1642,0.16745 0.42526,2.93816 0.58012,6.15713 l 0.28158,5.85267 -17.31787,0 -17.31787,0 0,-2.57914 z"
       id="path3781"
       inkscape:connector-curvature="0" />
    <path
       style="fill:&fill_color;;fill-opacity:1;stroke:&fill_color;;stroke-width:1.19037461;stroke-miterlimit:4;stroke-opacity:1;stroke-dasharray:none"
       d="m -134.15294,638.7207 c -1.90009,-2.31881 -3.01674,-2.60228 -10.26163,-2.60502 l -5.85267,-0.002 0,-8.13423 0,-8.13422 6.7567,0 6.7567,0 -0.25334,6.84465 c -0.17652,4.76933 -0.1153,7.1951 0.2019,8.00045 0.81491,2.069 1.26787,0.55257 1.82634,-6.11429 0.29662,-3.54105 0.65071,-6.54969 0.78687,-6.68584 0.13615,-0.13615 0.59674,0.19617 1.02352,0.73849 0.7561,0.96081 0.79084,1.84041 0.15256,3.8628 -0.37699,1.19445 0.026,1.17699 8.02057,-0.34744 3.57724,-0.68212 6.58972,-1.15457 6.69441,-1.04988 0.10468,0.10468 -0.004,1.09781 -0.24215,2.20695 -0.3199,1.49164 -0.31367,2.23864 0.024,2.86943 0.25102,0.46904 0.35768,0.95153 0.23702,1.07219 -0.21815,0.21815 -3.24939,0.5665 -10.67468,1.22675 -2.13726,0.19005 -4.08891,0.54853 -4.33701,0.79663 -0.33694,0.33694 -0.22395,0.93608 0.44647,2.36746 0.98292,2.09858 1.28185,4.47295 0.59384,4.71679 -0.24045,0.0852 -1.09515,-0.64804 -1.89934,-1.62946 l 0,0 z"
       id="path3783"
       inkscape:connector-curvature="0" />
    <path
       style="fill:&fill_color;;fill-opacity:1;stroke:&fill_color;;stroke-width:1.51522887;stroke-miterlimit:4;stroke-opacity:1;stroke-dasharray:none"
       d=""
       id="path3785"
       inkscape:connector-curvature="0" />
    <path
       style="fill:&fill_color;;fill-opacity:1;stroke:&fill_color;;stroke-width:1.19037461;stroke-miterlimit:4;stroke-opacity:1;stroke-dasharray:none"
       d="m -116.20096,628.66957 c -0.19965,-1.4798 0.0342,-2.87269 0.48217,-2.87269 0.47139,0 0.48692,3.45154 0.0168,3.74206 -0.19379,0.11977 -0.41835,-0.27144 -0.49901,-0.86937 z"
       id="path3787"
       inkscape:connector-curvature="0" />
    <path
       style="fill:&fill_color;;fill-opacity:1;stroke:&fill_color;;stroke-width:1.19037461;stroke-miterlimit:4;stroke-opacity:1;stroke-dasharray:none"
       d="m -151.06063,658.29488 c -1.2822,-0.52431 -2.6177,-1.79083 -3.65053,-3.46198 l -0.82327,-1.33207 0.98394,-0.98394 c 0.54116,-0.54116 1.68164,-1.14577 2.53439,-1.34357 2.12865,-0.49374 28.1675,-0.47547 29.95482,0.021 0.78239,0.21734 2.12156,1.01984 2.97593,1.78334 l 1.5534,1.38819 -1.58716,1.42462 c -3.15676,2.83347 -2.53453,2.73275 -17.45883,2.82581 -8.4766,0.0529 -13.85954,-0.0666 -14.48269,-0.32142 z m 27.7272,-1.90119 c 1.82887,-0.25498 3.05584,-1.40997 2.48281,-2.33716 -0.57971,-0.93798 -4.98203,-1.27326 -16.5209,-1.25824 -10.4409,0.0136 -14.49336,0.25542 -15.14146,0.90352 -0.56984,0.56984 0.31443,2.17941 1.3495,2.45639 3.03281,0.81157 22.51564,0.97643 27.83005,0.23549 z"
       id="path3789"
       inkscape:connector-curvature="0" />
  </g>
</svg>
