<?xml version="1.0" encoding="UTF-8" standalone="no"?>
<!-- Created with Inkscape (http://www.inkscape.org/) -->

<svg
   xmlns:dc="http://purl.org/dc/elements/1.1/"
   xmlns:cc="http://creativecommons.org/ns#"
   xmlns:rdf="http://www.w3.org/1999/02/22-rdf-syntax-ns#"
   xmlns:svg="http://www.w3.org/2000/svg"
   xmlns="http://www.w3.org/2000/svg"
   version="1.1"
   width="55"
   height="55"
   viewBox="0 0 55 55"
   id="svg2"
   xml:space="preserve"><metadata
     id="metadata21"><rdf:RDF><cc:Work
         rdf:about=""><dc:format>image/svg+xml</dc:format><dc:type
           rdf:resource="http://purl.org/dc/dcmitype/StillImage" /><dc:title></dc:title></cc:Work></rdf:RDF></metadata><defs
     id="defs19" /><path
     d="M 18,23.5625 16.78125,27.375 15.6875,27.5 13.53125,24.15625 12.125,24.6875 12.65625,28.625 11.75,29.21875 8.34375,27.125 7.3125,28.21875 9.5,31.5625 8.9375,32.46875 4.96875,32.0625 4.5,33.5 7.9375,35.5625 7.84375,36.625 4.09375,38 l 0.1875,1.46875 3.96875,0.375 0.375,1 -2.78125,2.875 0.8125,1.25 3.75,-1.40625 0.78125,0.75 -1.28125,3.78125 1.28125,0.78125 2.75,-2.875 1.03125,0.3125 0.5,3.96875 1.5,0.15625 L 18.1875,46.625 19.28125,46.5 21.4375,49.84375 22.84375,49.3125 22.3125,45.375 23.21875,44.78125 26.625,46.875 27.65625,45.78125 25.46875,42.4375 26.03125,41.53125 30,41.9375 30.46875,40.5 27.03125,38.4375 27.125,37.375 30.875,36 l -0.1875,-1.5 -3.96875,-0.34375 -0.375,-1 2.78125,-2.875 -0.8125,-1.25 -3.75,1.40625 -0.78125,-0.75 L 25.0625,25.90625 23.78125,25.125 21.03125,28 20,27.65625 19.5,23.71875 18,23.5625 z m -0.53125,11.28125 c 1.178,0 2.162677,0.916012 2.1875,2.09375 l 0,0.0625 c 0,1.19578 -0.99172,2.15625 -2.1875,2.15625 -1.19578,0 -2.15625,-0.96047 -2.15625,-2.15625 0,-1.19578 0.96047,-2.15625 2.15625,-2.15625 z"
     id="path3108"
     style="fill:#ffffff;stroke:none" /><path
     d="m 39.65625,4.53125 -1.5,3.6875 L 37.09375,8.3125 35.125,4.84375 33.6875,5.3125 34.0625,9.28125 33.15625,9.8125 29.8125,7.6875 28.75,8.75 30.9375,12.09375 30.40625,13 l -4,-0.34375 -0.4375,1.46875 3.5,1.9375 -0.0625,1.0625 -3.65625,1.53125 0.28125,1.5 L 30,20.25 l 0.4375,0.96875 -2.53125,3.0625 0.96875,1.1875 3.5625,-1.78125 0.84375,0.65625 -0.8125,3.90625 1.375,0.625 2.34375,-3.25 1.03125,0.1875 1.09375,3.84375 1.53125,-0.125 0.5625,-3.9375 1,-0.3125 2.75,2.875 1.3125,-0.78125 -1.34375,-3.78125 0.75,-0.75 3.78125,1.28125 0.78125,-1.3125 -2.9375,-2.6875 0.3125,-1.03125 3.9375,-0.625 0.09375,-1.5 -3.875,-1.0625 -0.1875,-1.03125 3.1875,-2.375 -0.625,-1.375 L 45.4375,12 44.78125,11.15625 46.53125,7.5625 45.3125,6.625 42.28125,9.21875 41.3125,8.78125 l -0.15625,-4 -1.5,-0.25 z m -1.375,10.40625 c 1.178,0 2.131427,0.916012 2.15625,2.09375 l 0,0.0625 c 0,1.19578 -0.96047,2.15625 -2.15625,2.15625 -1.19578,0 -2.15625,-0.96047 -2.15625,-2.15625 0,-1.19578 0.96047,-2.15625 2.15625,-2.15625 z"
     id="path4918"
     style="fill:#ffffff;stroke:none" /><path
     d="M 46.491792,24.800406 C 48.867369,22.337947 50.14061,18.964447 49.538137,14.6334 48.935664,10.302352 44.813237,6.728907 41.049879,5.8095568 37.286521,4.8902067 33.263895,6.2018441 30.567191,8.6092387 L 9.9156513,27.045228 c -3.4050984,3.03979 -4.7528357,5.985048 -4.5890756,10.480919 0.1637601,4.495871 1.9105133,6.860195 4.1240826,8.81071 2.2135687,1.950515 4.8483977,3.211845 8.5430947,3.146072 3.694697,-0.06577 6.319639,-1.692996 8.823405,-4.288332 z"
     id="path5041"
     style="fill:none;stroke:#0000ff;stroke-width:2.5;stroke-linecap:butt;stroke-linejoin:miter;stroke-miterlimit:10;stroke-dasharray:none" /></svg>
