<?xml version="1.0" encoding="UTF-8" standalone="no"?>
<!-- Created with Inkscape (http://www.inkscape.org/) -->

<svg
   xmlns:dc="http://purl.org/dc/elements/1.1/"
   xmlns:cc="http://creativecommons.org/ns#"
   xmlns:rdf="http://www.w3.org/1999/02/22-rdf-syntax-ns#"
   xmlns:svg="http://www.w3.org/2000/svg"
   xmlns="http://www.w3.org/2000/svg"
   version="1.1"
   width="55"
   height="55"
   viewBox="0 0 55 55"
   id="svg2"
   xml:space="preserve"><metadata
     id="metadata21"><rdf:RDF><cc:Work
         rdf:about=""><dc:format>image/svg+xml</dc:format><dc:type
           rdf:resource="http://purl.org/dc/dcmitype/StillImage" /><dc:title></dc:title></cc:Work></rdf:RDF></metadata><defs
     id="defs19" /><path
     d="m 39.5625,4.875 -1.71875,0.40625 0.28125,4.3125 -0.875,0.5625 -3.8125,-2.09375 -1.0625,1.40625 3,3.15625 -0.3125,0.96875 -4.25,0.875 0.0625,1.75 4.3125,0.46875 0.40625,0.96875 -2.71875,3.375 1.1875,1.3125 3.625,-2.40625 0.90625,0.46875 0.09375,4.34375 1.75,0.21875 1.21875,-4.15625 1.03125,-0.21875 2.84375,3.25 1.5,-0.9375 -1.75,-3.96875 0.625,-0.84375 L 50.21875,18.75 50.75,17.09375 46.84375,15.15625 46.78125,14.125 50.5,11.875 49.84375,10.25 45.625,11.25 44.90625,10.5 46.3125,6.375 44.75,5.5625 42.1875,9.0625 41.15625,8.9375 39.5625,4.875 z m 1.21875,7.40625 c 1.448135,0 2.625735,1.145937 2.65625,2.59375 l 0,0.0625 c 0,1.469992 -1.186258,2.65625 -2.65625,2.65625 -1.469991,0 -2.6875,-1.186258 -2.6875,-2.65625 0,-1.469991 1.217509,-2.65625 2.6875,-2.65625 z"
     id="path3124"
     style="fill:#ffffff;stroke:none" /><path
     d="M 22.53125,13.40625 20.9375,13.46875 20.0625,17.75 18.875,18.03125 16.28125,14.5 l -1.5,0.625 0.65625,4.3125 -1.0625,0.6875 -3.625,-2.4375 -1.1875,1.09375 2.09375,3.84375 -0.75,0.96875 -4.25,-1 L 5.90625,24 9.1875,26.90625 8.8125,28.09375 4.46875,28.5625 4.25,30.15625 8.3125,31.75 8.375,33 4.46875,34.9375 4.8125,36.5 l 4.375,0.125 0.46875,1.15625 -3,3.15625 0.84375,1.34375 4.15625,-1.375 0.84375,0.90625 -1.75,4 1.28125,0.96875 3.40625,-2.71875 1.09375,0.59375 -0.25,4.34375 1.5,0.5 2.28125,-3.71875 1.25,0.15625 1.21875,4.1875 1.625,-0.09375 L 25,45.78125 26.21875,45.5 28.8125,49 l 1.5,-0.59375 -0.65625,-4.34375 1.0625,-0.65625 3.625,2.40625 1.1875,-1.0625 -2.09375,-3.84375 0.75,-1 4.25,1.03125 0.75,-1.40625 -3.28125,-2.90625 0.375,-1.1875 4.34375,-0.5 L 40.8125,33.375 36.78125,31.75 36.71875,30.53125 40.625,28.5625 40.28125,27 35.90625,26.90625 35.4375,25.75 l 3,-3.15625 -0.84375,-1.375 -4.15625,1.40625 -0.84375,-0.90625 1.75,-4.03125 L 33.0625,16.71875 29.65625,19.4375 28.5625,18.875 28.8125,14.5 27.28125,14.03125 25,17.75 l -1.21875,-0.15625 -1.25,-4.1875 z m 0,15.6875 c 1.448135,0 2.656985,1.177187 2.6875,2.625 l 0,0.03125 c 0,1.469992 -1.217508,2.6875 -2.6875,2.6875 -1.469991,0 -2.65625,-1.217508 -2.65625,-2.6875 0,-1.469991 1.186259,-2.65625 2.65625,-2.65625 z"
     id="path3092"
     style="fill:#ffffff;stroke:none" /></svg>
