<?xml version="1.0" encoding="UTF-8" standalone="no"?>
<!-- Created with Inkscape (http://www.inkscape.org/) -->

<svg
   xmlns:dc="http://purl.org/dc/elements/1.1/"
   xmlns:cc="http://creativecommons.org/ns#"
   xmlns:rdf="http://www.w3.org/1999/02/22-rdf-syntax-ns#"
   xmlns:svg="http://www.w3.org/2000/svg"
   xmlns="http://www.w3.org/2000/svg"
   version="1.1"
   width="55"
   height="55"
   viewBox="0 0 55 55"
   id="svg2"
   xml:space="preserve"><metadata
     id="metadata21"><rdf:RDF><cc:Work
         rdf:about=""><dc:format>image/svg+xml</dc:format><dc:type
           rdf:resource="http://purl.org/dc/dcmitype/StillImage" /><dc:title></dc:title></cc:Work></rdf:RDF></metadata><defs
     id="defs19" /><path
     d="M 28.5,7.4375 26.0625,7.46875 24.875,13.6875 23.25,14.125 19.09375,9.34375 17,10.5 l 1.8125,6.0625 -1.25,1.125 -5.875,-2.3125 -1.34375,2 4.4375,4.53125 -0.5625,1.59375 -6.3125,0.65625 -0.25,2.40625 6.03125,1.9375 0.21875,1.6875 -5.25,3.53125 0.90625,2.21875 6.21875,-1.0625 1,1.375 -3.03125,5.5625 1.84375,1.5625 5.03125,-3.84375 1.5,0.75 -0.09375,6.3125 2.34375,0.5625 2.65625,-5.75 L 28.75,41.375 31.59375,47 33.9375,46.40625 33.625,40.0625 35.09375,39.25 40.25,42.9375 42.03125,41.28125 38.8125,35.84375 39.75,34.4375 l 6.28125,0.84375 0.8125,-2.25 L 41.4375,29.6875 41.625,28 47.5625,25.84375 47.25,23.46875 40.9375,23 40.28125,21.4375 44.5625,16.75 43.15625,14.8125 37.34375,17.34375 36.0625,16.25 37.6875,10.125 35.5,9.03125 31.5625,13.96875 29.90625,13.59375 28.5,7.4375 z M 27.625,23.5 c 2.058836,0 3.737866,1.660371 3.78125,3.71875 l 0,0.0625 c 0,2.089911 -1.691339,3.78125 -3.78125,3.78125 -2.08991,0 -3.78125,-1.691339 -3.78125,-3.78125 0,-2.08991 1.69134,-3.78125 3.78125,-3.78125 z"
     id="path4918-3"
     style="fill:#ffffff;stroke:#ffffff;stroke-width:0.88913584;stroke-linecap:butt;stroke-linejoin:miter;stroke-miterlimit:10;stroke-dasharray:none" /><g
     transform="matrix(1.201027,0,0,1.201027,-5.2463545,-5.9850843)"
     id="g5844"
     style="stroke-width:2.08155179;stroke-miterlimit:10;stroke-dasharray:none"><path
       d="m 28.923721,4.2609291 c 6.468014,0 12.342617,2.5855272 16.63429,6.7876989 4.291673,4.202172 7.000416,10.020988 7.13671,16.487566"
       transform="matrix(0.67678626,0,0,0.67678626,7.9248229,8.5248025)"
       id="path5838"
       style="color:#000000;fill:none;stroke:#ff0000;stroke-width:3.07564139;stroke-linecap:round;stroke-linejoin:round;stroke-miterlimit:10;stroke-dasharray:none;marker:none;visibility:visible;display:inline;overflow:visible;enable-background:accumulate" /><path
       d="m 47.202973,25.588603 -3.602404,3.602403 -3.602403,-3.602403"
       id="rect5841"
       style="color:#000000;fill:none;stroke:#ff0000;stroke-width:2.08155179;stroke-linecap:round;stroke-linejoin:round;stroke-miterlimit:10;stroke-opacity:1;stroke-dasharray:none;stroke-dashoffset:0;marker:none;visibility:visible;display:inline;overflow:visible;enable-background:accumulate" /></g></svg>
