<svg xmlns="http://www.w3.org/2000/svg" width="57" height="57" viewBox="0 0 57 57">
  <g id="auto-stop" transform="translate(-272 -9)">
    <rect id="Rectangle_14" data-name="Rectangle 14" width="57" height="57" transform="translate(272 9)" fill="#2d2d2d" opacity="0"/>
    <g id="Icon_feather-pause-circle" data-name="Icon feather-pause-circle" transform="translate(291.617 28.667)">
      <path id="Path_19" data-name="Path 19" d="M28.67,15.706A12.836,12.836,0,1,1,15.835,3,12.771,12.771,0,0,1,28.67,15.706Z" transform="translate(-3 -3)" fill="none" stroke="#fff" stroke-linecap="round" stroke-linejoin="round" stroke-width="3"/>
      <path id="Path_20" data-name="Path 20" d="M15,20.7V13.5" transform="translate(-4.732 -4.396)" fill="none" stroke="#fff" stroke-linecap="round" stroke-linejoin="round" stroke-width="3"/>
      <path id="Path_21" data-name="Path 21" d="M21,20.7V13.5" transform="translate(-5.598 -4.396)" fill="none" stroke="#fff" stroke-linecap="round" stroke-linejoin="round" stroke-width="3"/>
    </g>
    <g id="refresh" transform="translate(284.574 20)">
      <g id="Group_5" data-name="Group 5" transform="translate(0)">
        <path id="Path_26" data-name="Path 26" d="M2.977,9.627A1.839,1.839,0,0,0,4.673,8.5a7.822,7.822,0,0,1,7.206-4.8,7.715,7.715,0,0,1,4.738,1.628l-1.029.159a.8.8,0,0,0-.206,1.526l5.661,2.547a.8.8,0,0,0,1.133-.729L22.2,2.59a.8.8,0,0,0-1.472-.449l-.78,1.173A11.5,11.5,0,0,0,1.268,7.047a1.857,1.857,0,0,0,1.709,2.58Z" transform="translate(-1.121)" fill="#fff" stroke="#282828" stroke-width="2"/>
        <path id="Path_27" data-name="Path 27" d="M22.533,20.621a1.846,1.846,0,0,0-3.243.3,7.822,7.822,0,0,1-7.206,4.8,7.715,7.715,0,0,1-4.738-1.628l1.029-.159a.8.8,0,0,0,.206-1.526L2.92,19.86a.8.8,0,0,0-1.133.729l-.029,6.238a.8.8,0,0,0,1.472.449L4.01,26.1A11.5,11.5,0,0,0,22.694,22.37,1.856,1.856,0,0,0,22.533,20.621Z" transform="translate(-1.326 -6.383)" fill="#fff" stroke="#282828" stroke-width="2"/>
      </g>
    </g>
  </g>
</svg>
