<svg xmlns="http://www.w3.org/2000/svg" width="100" height="100" viewBox="0 0 100 100">
  <g id="Hourglass" transform="translate(-653 -104)">
    <rect id="Rectangle_79" data-name="Rectangle 79" width="100" height="100" transform="translate(653 104)" fill="none"/>
    <path id="Icon_awesome-hourglass-half" data-name="Icon awesome-hourglass-half" d="M51.141,0H3.409A3.409,3.409,0,0,0,0,3.409V5.682A3.409,3.409,0,0,0,3.409,9.092c0,12.922,7.247,23.828,17.167,27.275C10.657,39.814,3.409,50.72,3.409,63.643A3.409,3.409,0,0,0,0,67.052v2.273a3.409,3.409,0,0,0,3.409,3.409H51.141a3.409,3.409,0,0,0,3.409-3.409V67.052a3.409,3.409,0,0,0-3.409-3.409c0-12.922-7.247-23.828-17.167-27.275C43.894,32.92,51.141,22.014,51.141,9.092a3.409,3.409,0,0,0,3.409-3.409V3.409A3.409,3.409,0,0,0,51.141,0ZM40.476,54.551h-26.4c2.423-6.648,7.4-11.365,13.2-11.365S38.052,47.9,40.476,54.551Zm0-36.367h-26.4A26.652,26.652,0,0,1,12.5,9.092H42.05a26.655,26.655,0,0,1-1.571,9.092Z" transform="translate(675.927 117.903)" fill="gray"/>
  </g>
</svg>
