<svg xmlns="http://www.w3.org/2000/svg" width="57" height="57" viewBox="0 0 57 57">
  <g id="Stats_button" data-name="Stats button" transform="translate(-272 -9)">
    <g id="button_template" data-name="button template" transform="translate(95 1)">
      <rect id="Rectangle_14" data-name="Rectangle 14" width="57" height="57" transform="translate(177 8)" fill="#2d2d2d" opacity="0"/>
      <g id="Icon_ionic-ios-stats" data-name="Icon ionic-ios-stats" transform="translate(184.915 22.089)">
        <path id="Path_25" data-name="Path 25" d="M25.875,9.679V35.127a.676.676,0,0,0,.679.679h4a.676.676,0,0,0,.679-.679V9.679A.676.676,0,0,0,30.558,9h-4A.676.676,0,0,0,25.875,9.679Z" transform="translate(-3.125 0.861)" fill="#fff"/>
        <path id="Path_24" data-name="Path 24" d="M19.8,34.514h4a.676.676,0,0,0,.679-.679V16.429a.676.676,0,0,0-.679-.679h-4a.676.676,0,0,0-.679.679V33.836A.676.676,0,0,0,19.8,34.514Z" transform="translate(12.264 2.153)" fill="#fff"/>
        <path id="Path_23" data-name="Path 23" d="M6.3,33.653h4.021a.672.672,0,0,0,.67-.67V20.92a.672.672,0,0,0-.67-.67H6.3a.672.672,0,0,0-.67.67V32.983A.672.672,0,0,0,6.3,33.653Z" transform="translate(8.403 3.014)" fill="#fff"/>
        <path id="Path_22" data-name="Path 22" d="M13.045,36.667h4.021a.672.672,0,0,0,.67-.67V5.17a.672.672,0,0,0-.67-.67H13.045a.672.672,0,0,0-.67.67V36A.672.672,0,0,0,13.045,36.667Z" transform="translate(-6.708)" fill="#fff"/>
      </g>
      <path id="Icon_material-remove-red-eye" data-name="Icon material-remove-red-eye" d="M9.763,6.75A8.884,8.884,0,0,0,1.5,12.384a8.877,8.877,0,0,0,16.526,0A8.884,8.884,0,0,0,9.763,6.75Zm0,9.39a3.756,3.756,0,1,1,3.756-3.756A3.757,3.757,0,0,1,9.763,16.14Zm0-6.009a2.254,2.254,0,1,0,2.254,2.254A2.251,2.251,0,0,0,9.763,10.13Z" transform="translate(196.5 7.5)" fill="#fff"/>
    </g>
  </g>
</svg>
