<?xml version="1.0" standalone="no"?><!DOCTYPE svg PUBLIC "-//W3C//DTD SVG 1.1//EN" "http://www.w3.org/Graphics/SVG/1.1/DTD/svg11.dtd"
[
  <!ENTITY fill_color "#FFFFFF">
  <!ENTITY stroke_color "#000000">
]>
<svg version="1.1" id="Capa_1" xmlns="http://www.w3.org/2000/svg" xmlns:xlink="http://www.w3.org/1999/xlink" x="0px" y="0px"
	 width="61.588px" height="61.588px" viewBox="0 0 61.588 61.588" style="enable-background:new 0 0 61.588 61.588;"
	 xml:space="preserve">
<g>
	<g>
		<path style="fill:#FFFFFF;" d="M59.768,9.931c0-0.012,0.005-0.022,0.005-0.032c0-0.131-0.033-0.261-0.082-0.388c-0.034-0.085-0.073-0.17-0.126-0.253
			c-0.004-0.005-0.009-0.009-0.012-0.014c-0.063-0.094-0.143-0.186-0.23-0.275c-1.307-1.321-5.312-2.282-10.057-2.282
			c-3.108,0-5.892,0.415-7.816,1.071c0.415,0.309,0.775,0.612,1.078,0.906c1.512,1.471,1.726,2.75,1.546,3.671
			c-0.023,0.116-0.059,0.228-0.096,0.338c-0.506,1.554-2.331,2.643-5.215,3.164v6.007c0,0.061,0.025,0.113,0.034,0.171
			c-0.02,0.081-0.039,0.16-0.039,0.241c0,0.143,0.04,0.281,0.1,0.419h0.237h8.294v0.058c0.309-0.025,0.615-0.058,0.929-0.058
			c1.037,0,2.047,0.145,3.021,0.405c1.387,0.37,2.697,0.989,3.904,1.817c2.736-0.581,4.53-1.546,4.53-2.641
			c0-0.081-0.02-0.162-0.038-0.242c0.008-0.058,0.033-0.11,0.033-0.171L59.768,9.931L59.768,9.931z"/>
		<path style="fill:#FFFFFF;" d="M43.528,57.051c-5.54-2.447-9.523-8.983-9.523-16.668c0-6.926,3.236-12.919,7.931-15.829
			c0.515-0.318,1.045-0.598,1.593-0.839h-3.615h-3.964c-7.318,0-13.271,7.477-13.271,16.668c0,9.189,5.953,16.668,13.271,16.668
			H43.528z"/>
		<path style="fill:#FFFFFF;" d="M46.868,56.945c0.172,0.023,0.347,0.03,0.521,0.045c0.309,0.026,0.615,0.06,0.929,0.06
			c7.317,0,13.271-7.478,13.271-16.668c0-6.782-3.246-12.619-7.885-15.219c-1.648-0.924-3.467-1.449-5.386-1.449
			c-0.313,0-0.62,0.032-0.929,0.059c-0.174,0.016-0.349,0.022-0.521,0.045c-0.177,0.024-0.347,0.067-0.521,0.1
			c-1.028,0.194-2.019,0.527-2.955,0.999c-4.883,2.464-8.343,8.461-8.343,15.464c0,8.348,4.915,15.261,11.299,16.463
			C46.521,56.879,46.691,56.921,46.868,56.945z"/>
		<path style="fill:#FFFFFF;" d="M21.334,56.774c0.575,0,1.042-0.466,1.042-1.041v-5.544l6.2,8.018c0.205,0.267,0.513,0.406,0.825,0.406
			c0.223,0,0.446-0.07,0.636-0.218c0.455-0.354,0.539-1.006,0.187-1.461l-0.476-0.614l-1.008-1.304l-4.814-6.228L22.775,47.3
			l-0.399-0.515v-0.821v-2.622v-5.921v-2.619V15.515l0.707-0.87l0.366-0.451l0.36-0.444c0.806,0.203,1.631,0.394,2.483,0.56
			c2.895,0.565,5.658,0.834,8.078,0.834c1.648,0,3.132-0.128,4.394-0.369c2.227-0.426,3.748-1.211,4.188-2.314
			c0.043-0.106,0.077-0.216,0.1-0.328c0.214-1.091-0.586-2.298-2.127-3.471c-0.192-0.146-0.405-0.29-0.619-0.435
			c-2.643-1.782-6.946-3.44-11.961-4.419c-2.895-0.566-5.659-0.834-8.078-0.834c-4.842,0-8.303,1.079-8.681,3.012
			c-0.459,2.351,3.781,5.245,10.031,7.162l-0.342,0.42l-0.362,0.446l-0.387,0.476c-0.151,0.185-0.233,0.417-0.233,0.656v2.613
			c-1.888-0.988-5.385-1.654-9.4-1.654c-4.917,0-9.068,0.997-10.421,2.365c-0.093,0.093-0.174,0.188-0.24,0.285
			c-0.004,0.005-0.008,0.009-0.011,0.015c-0.058,0.086-0.096,0.174-0.131,0.263c-0.052,0.131-0.086,0.266-0.086,0.401
			c0,0.012,0.005,0.021,0.005,0.033V31.81c0,0.062,0.028,0.117,0.036,0.177C0.022,32.069,0,32.152,0,32.236
			c0,0.541,0.432,1.052,1.183,1.504c-0.06,0.062-0.125,0.122-0.168,0.201c-0.273,0.507-0.084,1.14,0.422,1.411l7.507,4.052v8.536
			l-6.773,3.053l-0.175,0.078c-0.027,0.013-0.045,0.035-0.07,0.05c-0.081,0.047-0.155,0.091-0.219,0.156
			c-0.093,0.094-0.169,0.201-0.223,0.318c-0.119,0.264-0.139,0.569-0.01,0.854c0.236,0.524,0.853,0.757,1.377,0.522l6.092-2.746
			v0.714c0,0.863,0.699,1.562,1.562,1.562c0.777,0,1.416-0.568,1.538-1.31l2.568,2.343l-2.821,3.366
			c-0.369,0.441-0.312,1.098,0.13,1.469c0.194,0.162,0.432,0.242,0.668,0.242c0.298,0,0.593-0.128,0.799-0.373l3.204-3.823
			c0.107-0.056,0.212-0.119,0.298-0.213c0.109-0.12,0.177-0.261,0.22-0.406l3.177-3.793v5.729
			C20.292,56.309,20.76,56.774,21.334,56.774z M11.969,35.549c1.194-0.034,2.326-0.132,3.375-0.275l-3.27,1.763v-0.934
			C12.074,35.907,12.035,35.722,11.969,35.549z M5.359,35.101c1.122,0.203,2.371,0.346,3.706,0.414
			c-0.075,0.182-0.117,0.38-0.117,0.587v0.935L5.359,35.101z M15.956,51.936l-2.469-2.252l0.944,0.082
			c0.03,0.003,0.062,0.004,0.091,0.004c0.534,0,0.99-0.408,1.037-0.951c0.05-0.573-0.374-1.077-0.948-1.128l-2.538-0.22v-8.066
			l7.507-4.051c0.475-0.256,0.654-0.824,0.452-1.312c0.09-0.043,0.175-0.085,0.258-0.13v12.85L15.956,51.936z"/>
	</g>
</g>
<g>
</g>
<g>
</g>
<g>
</g>
<g>
</g>
<g>
</g>
<g>
</g>
<g>
</g>
<g>
</g>
<g>
</g>
<g>
</g>
<g>
</g>
<g>
</g>
<g>
</g>
<g>
</g>
<g>
</g>
</svg>
