<?xml version="1.0" standalone="no"?><!DOCTYPE svg PUBLIC "-//W3C//DTD SVG 1.1//EN" "http://www.w3.org/Graphics/SVG/1.1/DTD/svg11.dtd"
[
  <!ENTITY fill_color "#FFFFFF">
  <!ENTITY stroke_color "#000000">
]>

<svg version="1.1" id="Capa_1" xmlns="http://www.w3.org/2000/svg" xmlns:xlink="http://www.w3.org/1999/xlink" x="0px" y="0px"
	 viewBox="0 0 512 512" style="fill:&fill_color;;fill-opacity:1;stroke:&stroke_color;;stroke-width:3.10540009;enable-background:new 0 0 512 512;" xml:space="preserve">
<g>
	<g>
		<path d="M97.226,211h63.926c10.682-22.341,30.441-40.569,49.848-49.849V97.226C155.966,112.782,112.782,155.966,97.226,211z"/>
	</g>
</g>
<g>
	<g>
		<path d="M256,181c-36.539,0-66.725,26.808-73.482,60h146.964C322.348,205.955,290.503,181,256,181z"/>
	</g>
</g>
<g>
	<g>
		<path d="M161.151,301H97.226c15.557,55.034,58.74,98.218,113.774,113.774v-63.926C188.518,340.099,170.444,320.431,161.151,301z"
			/>
	</g>
</g>
<g>
	<g>
		<path d="M350.848,301.001c-10.682,22.34-30.441,40.568-49.848,49.848v63.926c55.034-15.557,98.218-58.74,113.774-113.774H350.848z
			"/>
	</g>
</g>
<g>
	<g>
		<path d="M256,0C115.39,0,0,115.39,0,256s115.39,256,256,256s256-115.39,256-256S396.61,0,256,0z M288.49,448.29
			c-9.459,1.492-17.49-5.731-17.49-14.795v-74.011c-4.942,0.716-9.864,1.516-15,1.516s-10.058-0.8-15-1.516v74.011
			c0,8.959-7.938,16.304-17.49,14.795c-81.812-13.77-146.03-77.988-159.8-159.8C62.172,279.353,69.24,271,78.505,271h74.011
			c-0.716-4.942-1.516-9.864-1.516-15s0.8-10.058,1.516-15H78.505c-9.265,0-16.333-8.353-14.795-17.49
			c13.77-81.812,77.988-146.03,159.8-159.8c9.423-1.487,17.49,5.728,17.49,14.795v74.011c4.942-0.716,9.864-1.516,15-1.516
			s10.058,0.8,15,1.516V78.505c0-9.166,8.212-16.317,17.49-14.795c81.812,13.77,146.03,77.988,159.8,159.8
			c1.538,9.137-5.53,17.49-14.795,17.49h-74.011c0.716,4.942,1.516,9.864,1.516,15s-0.8,10.058-1.516,15h74.011
			c9.265,0,16.333,8.353,14.795,17.49C434.52,370.302,370.302,434.52,288.49,448.29z"/>
	</g>
</g>
<g>
	<g>
		<path d="M182.518,271c7.028,34.517,38.564,60,73.482,60c36.736,0,66.775-27.054,73.482-60H182.518z"/>
	</g>
</g>
<g>
	<g>
		<path d="M301,97.226v63.926c22.341,10.682,40.569,30.441,49.849,49.849h63.926C399.218,155.966,356.034,112.782,301,97.226z"/>
	</g>
</g>
<g>
</g>
<g>
</g>
<g>
</g>
<g>
</g>
<g>
</g>
<g>
</g>
<g>
</g>
<g>
</g>
<g>
</g>
<g>
</g>
<g>
</g>
<g>
</g>
<g>
</g>
<g>
</g>
<g>
</g>
</svg>
