<?xml version="1.0" encoding="UTF-8" standalone="no"?>
<!DOCTYPE svg PUBLIC "-//W3C//DTD SVG 1.1//EN" "http://www.w3.org/Graphics/SVG/1.1/DTD/svg11.dtd" [
   <!ENTITY stroke_color "#FFFFFF">
   <!ENTITY fill_color "#666666">
]>
<svg
   xmlns:dc="http://purl.org/dc/elements/1.1/"
   xmlns:cc="http://creativecommons.org/ns#"
   xmlns:rdf="http://www.w3.org/1999/02/22-rdf-syntax-ns#"
   xmlns:svg="http://www.w3.org/2000/svg"
   xmlns="http://www.w3.org/2000/svg"
   version="1.1"
   id="Layer_1"
   x="0px"
   y="0px"
   viewBox="0 0 55 55"
   xml:space="preserve"
   width="55"
   height="55">
<g
   id="g34"
   transform="matrix(1.0714286,0,0,1.0714286,4.6665744,5.3560801)">
	<circle
   style="fill:&fill_color;"
   cx="21"
   cy="21"
   r="21"
   id="circle4" />
	<g
   id="g16">
		<rect
   x="21.1"
   y="30.5"
   style="fill:none;"
   width="0.80000001"
   height="4.0999999"
   id="rect6" />
		<rect
   x="21.1"
   y="14.3"
   style="fill:none;"
   width="0.80000001"
   height="4.0999999"
   id="rect8" />
		<rect
   x="21.1"
   y="6.1999998"
   style="fill:none;"
   width="0.80000001"
   height="4.0999999"
   id="rect10" />
		<path
   style="fill:&stroke_color;"
   d="M 22.2,27.5 H 21 V 24.3 C 20.5,24.2 20.5,24.1 20.1,24 19.7,23.9 19.2,23.8 18.8,23.7 v 14.5 h 5.7 V 25.3 C 23.9,25 23.6,24.8 22.3,24.5 Z m 0,8.9 H 21 V 32 h 1.2 z"
   id="path12" />
		<path
   style="fill:&stroke_color;"
   d="m 18.8,3.8 v 16.3 c 1,0.5 2.5,0.8 4.5,1.3 0.4,0.1 0.8,0.2 1.2,0.3 v -18 h -5.7 z m 3.4,14.7 H 21 V 14 h 1.2 z m 0,-8.9 H 21 V 5.1 h 1.2 z"
   id="path14" />
	</g>
	<g
   id="g20">
		<path
   style="fill:&stroke_color;"
   d="m 26.9,16.2 h 5.3 c 0,-0.8 -0.2,-1.6 -0.4,-2.4 -1.2,-3.1 -3.3,-5.1 -6.3,-6 v 5.3 c 0.5,0.5 0.9,1.2 1.2,2 v 0 c 0.1,0.3 0.1,0.7 0.2,1.1 z"
   id="path18" />
	</g>
	<g
   id="g24">
		<path
   style="fill:&stroke_color;"
   d="m 9.6,24.6 c 0,0.7 0.1,1.4 0.2,2 1,3.8 3.8,6.5 7.9,7.4 V 28.9 C 16.5,28.1 15.7,27 15.4,25.6 15.3,25.3 15.2,24.9 15.2,24.5 H 9.6 Z"
   id="path22" />
	</g>
	<g
   id="g28">
		<path
   style="fill:&stroke_color;"
   d="M 25.5,28.7 V 34 c 4.3,-1.1 6.9,-4.1 6.9,-7.7 0,-2.3 -0.8,-4.1 -2.4,-5.4 -1.8,-1.5 -4,-2 -6.2,-2.6 L 23.2,18.2 C 22.8,18.1 22.4,18 22,17.9 c -3,-0.8 -4.8,-1.2 -4.8,-3.3 0,-0.6 0.2,-1.2 0.6,-1.7 V 7.7 c -4.1,1.1 -6.6,3.9 -6.6,7.7 0,1.8 0.7,3.4 1.9,4.5 1.9,1.8 4,2.3 6.5,2.9 l 1.5,0.4 c 3.3,0.8 5.2,1.3 5.2,3.6 0,0.7 -0.3,1.4 -0.8,1.9 z"
   id="path26" />
	</g>
	<path
   style="fill:none;"
   d="m 21.7,28.6 c -1.4,0 -2.6,-0.3 -3.5,-0.9 v 5 c 1,0.2 2,0.3 3.2,0.3 1.3,0 2.5,-0.1 3.5,-0.4 v -5.1 c -0.7,0.7 -1.8,1.1 -3.2,1.1 z"
   id="path30" />
	<path
   style="fill:none;"
   d="m 21.3,12.1 c 1.5,0 2.7,0.5 3.6,1.4 V 8.4 C 23.9,8.1 22.7,8 21.5,8 20.3,8 19.2,8.1 18.2,8.4 v 5 c 0.6,-0.8 1.7,-1.3 3.1,-1.3 z"
   id="path32" />
</g>
</svg>
