<?xml version="1.0" encoding="UTF-8" standalone="no"?>
<svg
   xmlns:dc="http://purl.org/dc/elements/1.1/"
   xmlns:cc="http://creativecommons.org/ns#"
   xmlns:rdf="http://www.w3.org/1999/02/22-rdf-syntax-ns#"
   xmlns:svg="http://www.w3.org/2000/svg"
   xmlns="http://www.w3.org/2000/svg"
   xmlns:sodipodi="http://sodipodi.sourceforge.net/DTD/sodipodi-0.dtd"
   xmlns:inkscape="http://www.inkscape.org/namespaces/inkscape"
   version="1.1"
   id="Layer_1"
   x="0px"
   y="0px"
   width="55"
   height="55"
   viewBox="5 -10 55 74.25"
   enable-background="new 0 0 100 100"
   xml:space="preserve"
   inkscape:version="0.48.4 r9939"
   sodipodi:docname="settings.svg"><metadata
   id="metadata13"><rdf:RDF><cc:Work
       rdf:about=""><dc:format>image/svg+xml</dc:format><dc:type
         rdf:resource="http://purl.org/dc/dcmitype/StillImage" /></cc:Work></rdf:RDF></metadata><defs
   id="defs11" /><sodipodi:namedview
   pagecolor="#ffffff"
   bordercolor="#666666"
   borderopacity="1"
   objecttolerance="10"
   gridtolerance="10"
   guidetolerance="10"
   inkscape:pageopacity="0"
   inkscape:pageshadow="2"
   inkscape:window-width="753"
   inkscape:window-height="480"
   id="namedview9"
   showgrid="false"
   fit-margin-top="7"
   fit-margin-left="7"
   fit-margin-right="8"
   fit-margin-bottom="8"
   inkscape:zoom="2.36"
   inkscape:cx="30.481481"
   inkscape:cy="22.444444"
   inkscape:window-x="0"
   inkscape:window-y="0"
   inkscape:window-maximized="0"
   inkscape:current-layer="Layer_1" />
<path
   d="m 54.43,32.15 c -0.42,1.56 -1.02,3 -1.8,4.38 l 2.88,7.02 -3.9,3.9 -7.02,-2.88 c -1.38,0.78 -2.82,1.38 -4.38,1.8 l -3,7.08 h -5.52 l -2.94,-7.02 c -1.56,-0.42 -3,-1.02 -4.38,-1.8 l -7.02,2.88 -3.9,-3.9 2.88,-7.02 c -0.78,-1.38 -1.38,-2.82 -1.8,-4.38 l -7.08,-3 v -5.52 l 7.02,-2.94 c 0.42,-1.56 1.02,-3 1.8,-4.38 l -2.88,-7.02 3.9,-3.9 7.02,2.88 c 1.38,-0.78 2.82,-1.38 4.38,-1.8 l 3,-7.08 h 5.52 l 2.94,7.02 c 1.56,0.42 3,1.02 4.38,1.8 l 7.02,-2.88 3.9,3.9 -2.88,7.02 c 0.78,1.38 1.38,2.82 1.8,4.38 l 7.08,3 v 5.52 l -7.02,2.94 z m -11.7,-5.7 c 0,-4.56 -3.72,-8.28 -8.28,-8.28 -4.56,0 -8.28,3.72 -8.28,8.28 0,4.56 3.72,8.28 8.28,8.28 4.56,0 8.28,-3.72 8.28,-8.28 z"
   id="path3"
   inkscape:connector-curvature="0"
   style="fill:#ffffff" />
</svg>