<?xml version="1.0" encoding="UTF-8" standalone="no"?>
<!-- Created with Inkscape (http://www.inkscape.org/) -->

<svg
   xmlns:dc="http://purl.org/dc/elements/1.1/"
   xmlns:cc="http://creativecommons.org/ns#"
   xmlns:rdf="http://www.w3.org/1999/02/22-rdf-syntax-ns#"
   xmlns:svg="http://www.w3.org/2000/svg"
   xmlns="http://www.w3.org/2000/svg"
   version="1.1"
   width="55.125"
   height="55"
   viewBox="0 0 55.125 55"
   id="svg2"
   xml:space="preserve"><metadata
     id="metadata18"><rdf:RDF><cc:Work
         rdf:about=""><dc:format>image/svg+xml</dc:format><dc:type
           rdf:resource="http://purl.org/dc/dcmitype/StillImage" /><dc:title></dc:title></cc:Work></rdf:RDF></metadata><defs
     id="defs16" /><g
     transform="matrix(0.81818182,0,0,0.81818182,5.0625,5)"
     id="domain-time"
     style="display:block">
	<g
   id="Time_Domain">
		<g
   id="g6">
			<path
   d="m 55,45 c 0,5.5 -4.5,10 -10,10 H 10 C 4.5,55 0,50.5 0,45 V 10 C 0,4.5 4.5,0 10,0 h 35 c 5.5,0 10,4.5 10,10 v 35 z"
   id="path8"
   style="fill:#282828" />
		</g>
		<line
   x1="6.0120001"
   x2="51.012001"
   y1="27.5"
   y2="27.5"
   id="line10"
   style="fill:none;stroke:#c6c8ca;stroke-width:2.25;stroke-dasharray:5" />
		<path
   d="m 9.066,27.5 c 2.32,-6.917 4.666,-13.834 9.255,-13.834 9.179,0 9.179,27.668 18.358,27.668 4.59,0 6.986,-6.917 9.332,-13.834"
   id="path12"
   style="fill:none;stroke:#ffffff;stroke-width:3.5;stroke-linecap:round" />
	</g>
</g></svg>