<?xml version="1.0" encoding="UTF-8" standalone="no"?>
<!-- Created with Inkscape (http://www.inkscape.org/) -->

<svg
   xmlns:dc="http://purl.org/dc/elements/1.1/"
   xmlns:cc="http://creativecommons.org/ns#"
   xmlns:rdf="http://www.w3.org/1999/02/22-rdf-syntax-ns#"
   xmlns:svg="http://www.w3.org/2000/svg"
   xmlns="http://www.w3.org/2000/svg"
   version="1.1"
   width="55"
   height="55"
   viewBox="0 0 55 55"
   id="Layer_1"
   xml:space="preserve"><metadata
     id="metadata68"><rdf:RDF><cc:Work
         rdf:about=""><dc:format>image/svg+xml</dc:format><dc:type
           rdf:resource="http://purl.org/dc/dcmitype/StillImage" /><dc:title></dc:title></cc:Work></rdf:RDF></metadata><defs
     id="defs66" /><path
     d="m 4.455,25.83 h 23.59 c 0.512,0 0.929,0.417 0.929,0.931 v 1.568 c 0,0.512 -0.417,0.93 -0.929,0.93 H 4.455 c -0.515,0 -0.931,-0.417 -0.931,-0.93 v -1.566 c 0,-0.516 0.415,-0.933 0.931,-0.933 z"
     id="path8"
     style="fill:#ffffff;fill-opacity:1;stroke:#ffffff;stroke-width:2;stroke-linecap:round;stroke-linejoin:round;stroke-opacity:1" /><rect
     width="21.995001"
     height="14.687"
     x="5.25"
     y="29.259001"
     id="rect10"
     style="fill:#000000;fill-opacity:1;stroke:#ffffff;stroke-width:2;stroke-linecap:round;stroke-linejoin:round;stroke-opacity:1" /><path
     d="m 4.455,43.945 h 23.59 c 0.512,0 0.929,0.416 0.929,0.932 v 1.566 c 0,0.515 -0.417,0.934 -0.929,0.934 H 4.455 c -0.515,0 -0.931,-0.417 -0.931,-0.934 v -1.566 c 0,-0.512 0.415,-0.932 0.931,-0.932 z"
     id="path17"
     style="fill:#ffffff;fill-opacity:1;stroke:#ffffff;stroke-width:2;stroke-linecap:round;stroke-linejoin:round;stroke-opacity:1" /><path
     d="m 5.25,43.945 5.671,-14.687 5.241,14.685 5.26,-14.685"
     id="path19"
     style="fill:#000000;fill-opacity:1;stroke:#ffffff;stroke-width:2;stroke-linecap:round;stroke-linejoin:round;stroke-opacity:1" /><path
     d="M 27.242,43.945 21.422,29.258"
     id="path21"
     style="fill:#000000;fill-opacity:1;stroke:#ffffff;stroke-width:2;stroke-linecap:round;stroke-linejoin:round;stroke-opacity:1" /><line
     id="line27"
     fill="none"
     stroke="#010101"
     stroke-width="2"
     stroke-linecap="round"
     stroke-linejoin="round"
     x1="20.305"
     y1="22.694"
     x2="29.118999"
     y2="18.362"
     style="fill:#ffffff;fill-opacity:1;stroke:#ffffff;stroke-width:2;stroke-linecap:round;stroke-linejoin:round;stroke-opacity:1" /><line
     id="line29"
     fill="none"
     stroke="#010101"
     stroke-width="2"
     stroke-linecap="round"
     stroke-linejoin="round"
     x1="3.668"
     y1="16.114"
     x2="12.464"
     y2="20.487"
     style="fill:#ffffff;fill-opacity:1;stroke:#ffffff;stroke-width:2;stroke-linecap:round;stroke-linejoin:round;stroke-opacity:1" /><path
     d="m 15.51,20.681 c 0.331,0.873 -0.103,1.845 -0.968,2.173 -0.864,0.328 -1.834,-0.113 -2.165,-0.986 -0.33,-0.872 0.104,-1.845 0.968,-2.173 0.865,-0.327 1.835,0.114 2.165,0.986 z"
     id="path23"
     style="fill:#ffffff;fill-opacity:1;stroke:#ffffff;stroke-width:2;stroke-linecap:round;stroke-linejoin:round;stroke-opacity:1" /><path
     d="m 20.094,24.676 c -0.626,0.677 -1.684,0.715 -2.364,0.086 -0.679,-0.627 -0.721,-1.686 -0.094,-2.362 0.626,-0.678 1.685,-0.717 2.363,-0.088 0.68,0.629 0.722,1.687 0.095,2.364 z"
     id="path25"
     style="fill:#ffffff;fill-opacity:1;stroke:#ffffff;stroke-width:2;stroke-linecap:round;stroke-linejoin:round;stroke-opacity:1" /><path
     d="M 29.604,26.749"
     id="path14"
     style="fill:#ffffff;fill-opacity:1;stroke:#ffffff;stroke-width:2;stroke-linecap:round;stroke-linejoin:round;stroke-opacity:1" /><path
     d="M 29.266,9.782"
     id="path16"
     style="fill:none;stroke:#010101;stroke-width:2;stroke-linecap:round;stroke-linejoin:round" /><g
     id="g18"
     style="fill:#000000;fill-opacity:1;stroke:#ffffff;stroke-opacity:1"><g
       id="XMLID_1_"
       style="fill:#000000;fill-opacity:1;stroke:#ffffff;stroke-opacity:1"><g
         id="g21"
         style="fill:#000000;fill-opacity:1;stroke:#ffffff;stroke-opacity:1"><path
           d="m 24.533,14.555 -7.044,4.876 -0.082,-14.038 7.126,5.772 c 0,0.021 0.397,0.305 20.951,0.631 v 2.545 l -20.951,0.214 z"
           id="path24"
           style="fill:#000000;fill-opacity:1;stroke:#ffffff;stroke-opacity:1" /></g><g
         id="g26"
         style="fill:#000000;fill-opacity:1;stroke:#ffffff;stroke-opacity:1"><path
           d="M 45.483,11.796 C 24.929,11.47 24.532,11.186 24.532,11.165 l -7.126,-5.772 0.082,14.038 7.044,-4.876 20.951,-0.213 v -2.546 z"
           id="path28"
           style="fill:#000000;fill-opacity:1;stroke:#ffffff;stroke-width:2;stroke-linecap:round;stroke-linejoin:round;stroke-opacity:1" /></g></g><line
       fill="none"
       stroke="#010101"
       stroke-width="2"
       stroke-linecap="round"
       stroke-linejoin="round"
       x1="36.449001"
       y1="8.2370005"
       x2="36.449001"
       y2="11.291"
       id="line30"
       style="fill:#000000;fill-opacity:1;stroke:#ffffff;stroke-width:2;stroke-linecap:round;stroke-linejoin:round;stroke-opacity:1" /><line
       fill="none"
       stroke="#010101"
       stroke-width="2"
       stroke-linecap="round"
       stroke-linejoin="round"
       x1="33.521"
       y1="8.2370005"
       x2="33.521"
       y2="11.291"
       id="line32"
       style="fill:#000000;fill-opacity:1;stroke:#ffffff;stroke-width:2;stroke-linecap:round;stroke-linejoin:round;stroke-opacity:1" /><line
       fill="none"
       stroke="#010101"
       stroke-width="2"
       stroke-linecap="round"
       stroke-linejoin="round"
       x1="30.466999"
       y1="8.2370005"
       x2="30.466999"
       y2="11.291"
       id="line34"
       style="fill:#000000;fill-opacity:1;stroke:#ffffff;stroke-width:2;stroke-linecap:round;stroke-linejoin:round;stroke-opacity:1" /></g><path
     d="M 43.051,6.261"
     id="path36"
     style="fill:none;stroke:#010101;stroke-width:2;stroke-linecap:round;stroke-linejoin:round" /><path
     d="M 40.778,25.476"
     id="path38"
     style="fill:none;stroke:#010101;stroke-width:2;stroke-linecap:round;stroke-linejoin:round" /><g
     id="g40"
     style="fill:#000000;fill-opacity:1;stroke:#ffffff;stroke-opacity:1"><g
       id="XMLID_3_"
       style="fill:#000000;fill-opacity:1;stroke:#ffffff;stroke-opacity:1"><g
         id="g43"
         style="fill:#000000;fill-opacity:1;stroke:#ffffff;stroke-opacity:1"><path
           d="m 47.486,42.039 c 0.626,6.335 -6.97,6.215 -6.97,6.215 h -0.068 c 0,0 -7.604,0.12 -6.97,-6.215 0.111,-1.071 2.041,-1.929 2.041,-1.929 0,0 0.856,-1.604 0.103,-3.644 L 34.336,33.14 c 0,0 -0.643,-5.247 5.684,-5.247 h 0.926 c 6.318,0 5.684,5.247 5.684,5.247 l -1.285,3.326 c -0.755,2.04 0.103,3.644 0.103,3.644 0,0 1.927,0.858 2.038,1.929 z"
           id="path45"
           style="fill:#000000;fill-opacity:1;stroke:#ffffff;stroke-opacity:1" /></g><g
         id="g47"
         style="fill:#000000;fill-opacity:1;stroke:#ffffff;stroke-opacity:1"><path
           d="m 40.945,27.894 c 6.318,0 5.684,5.247 5.684,5.247 l -1.285,3.326 c -0.755,2.04 0.103,3.644 0.103,3.644 0,0 1.929,0.857 2.04,1.929 0.626,6.335 -6.97,6.215 -6.97,6.215"
           id="path49"
           style="fill:#000000;fill-opacity:1;stroke:#ffffff;stroke-width:3;stroke-linecap:round;stroke-linejoin:round;stroke-opacity:1" /><path
           d="m 40.02,27.894 c -6.326,0 -5.684,5.247 -5.684,5.247 l 1.286,3.326 c 0.754,2.04 -0.103,3.644 -0.103,3.644 0,0 -1.93,0.857 -2.041,1.929 -0.634,6.335 6.97,6.215 6.97,6.215"
           id="path51"
           style="fill:#000000;fill-opacity:1;stroke:#ffffff;stroke-width:3;stroke-linecap:round;stroke-linejoin:round;stroke-opacity:1" /></g></g></g><circle
     cx="40.588001"
     cy="37.882999"
     r="2.036"
     id="circle53"
     style="fill:#ffffff;stroke:#010101;stroke-linecap:round;stroke-linejoin:round" /><g
     id="XMLID_2_"
     style="fill:#000000;fill-opacity:1;stroke:#ffffff;stroke-opacity:1"><g
       id="g56"
       style="fill:#000000;fill-opacity:1;stroke:#ffffff;stroke-opacity:1"><polygon
         points="41.959,33.452 39.258,33.452 39.385,8.128 41.705,8.001 "
         id="polygon58"
         style="fill:#000000;fill-opacity:1;stroke:#ffffff;stroke-opacity:1" /></g><g
       id="g60"
       style="fill:#000000;fill-opacity:1;stroke:#ffffff;stroke-opacity:1"><polygon
         points="41.959,33.452 39.258,33.452 39.385,8.128 41.705,8.001 "
         id="polygon62"
         style="fill:#000000;fill-opacity:1;stroke:#ffffff;stroke-width:2;stroke-linecap:round;stroke-linejoin:round;stroke-opacity:1" /></g></g></svg>