<?xml version="1.0" encoding="UTF-8" standalone="no"?>
<!-- Created with Inkscape (http://www.inkscape.org/) -->

<svg
   xmlns:dc="http://purl.org/dc/elements/1.1/"
   xmlns:cc="http://creativecommons.org/ns#"
   xmlns:rdf="http://www.w3.org/1999/02/22-rdf-syntax-ns#"
   xmlns:svg="http://www.w3.org/2000/svg"
   xmlns="http://www.w3.org/2000/svg"
   xmlns:sodipodi="http://sodipodi.sourceforge.net/DTD/sodipodi-0.dtd"
   xmlns:inkscape="http://www.inkscape.org/namespaces/inkscape"
   version="1.1"
   width="55"
   height="55"
   viewBox="0 0 55 55"
   id="svg2"
   xml:space="preserve"
   inkscape:version="0.48.4 r9939"
   sodipodi:docname="notes.svg"><sodipodi:namedview
     pagecolor="#ffffff"
     bordercolor="#666666"
     borderopacity="1"
     objecttolerance="10"
     gridtolerance="10"
     guidetolerance="10"
     inkscape:pageopacity="0"
     inkscape:pageshadow="2"
     inkscape:window-width="1366"
     inkscape:window-height="709"
     id="namedview8"
     showgrid="false"
     inkscape:zoom="4.2909091"
     inkscape:cx="-13.983051"
     inkscape:cy="27.5"
     inkscape:window-x="0"
     inkscape:window-y="27"
     inkscape:window-maximized="1"
     inkscape:current-layer="svg2" /><metadata
     id="metadata11"><rdf:RDF><cc:Work
         rdf:about=""><dc:format>image/svg+xml</dc:format><dc:type
           rdf:resource="http://purl.org/dc/dcmitype/StillImage" /><dc:title></dc:title></cc:Work></rdf:RDF></metadata><defs
     id="defs9" /><path
     d="m 17.666,7.884 0,32.841 c -2.587,-0.614 -7.914,-0.612 -10.755,1.764 -5.688,4.76 -0.695,10.109 5.815,7.456 3.705,-1.512 4.94,-3.937 4.94,-7.597 l 0,-20.351 30.952,-3.516 0,16.974 c -4.212,-0.615 -7.915,-0.614 -10.758,1.764 -5.688,4.76 -0.695,10.109 5.815,7.454 3.705,-1.51 4.942,-3.936 4.942,-7.596 l 0,-32.784 z m 30.952,7.976 -30.952,4.029 0,-9.225 30.953,-4.102 0,9.298 z"
     id="path5"
     style="fill:#ffffff;fill-opacity:1;stroke:#ffffff;stroke-width:3.5;stroke-opacity:1;display:inline"
     inkscape:connector-curvature="0"
     sodipodi:nodetypes="ccccscccccscccccccc" /></svg>