<?xml version="1.0"?>
<svg xmlns="http://www.w3.org/2000/svg" xmlns:xlink="http://www.w3.org/1999/xlink" xmlns:svgjs="http://svgjs.com/svgjs" version="1.1" width="512" height="512" x="0" y="0" viewBox="0 0 519.479 519.479" style="enable-background:new 0 0 512 512" xml:space="preserve" class=""><g transform="matrix(0.73,0,0,0.73,70.12933593750003,70.12986328125024)">
<g xmlns="http://www.w3.org/2000/svg">
	<g>
		<path d="M193.441,0h-75.484c-16.897,0-30.6,13.703-30.6,30.6v458.277c0,16.898,13.703,30.602,30.6,30.602h75.484    c16.897,0,30.6-13.703,30.6-30.602V30.6C224.042,13.703,210.339,0,193.441,0z" fill="#ffffff" data-original="#000000" style="" class=""/>
		<path d="M401.521,0h-75.484c-16.896,0-30.6,13.703-30.6,30.6v458.277c0,16.898,13.703,30.602,30.6,30.602h75.484    c16.896,0,30.6-13.703,30.6-30.602V30.6C432.121,13.703,418.418,0,401.521,0z" fill="#ffffff" data-original="#000000" style="" class=""/>
	</g>
</g>
<g xmlns="http://www.w3.org/2000/svg">
</g>
<g xmlns="http://www.w3.org/2000/svg">
</g>
<g xmlns="http://www.w3.org/2000/svg">
</g>
<g xmlns="http://www.w3.org/2000/svg">
</g>
<g xmlns="http://www.w3.org/2000/svg">
</g>
<g xmlns="http://www.w3.org/2000/svg">
</g>
<g xmlns="http://www.w3.org/2000/svg">
</g>
<g xmlns="http://www.w3.org/2000/svg">
</g>
<g xmlns="http://www.w3.org/2000/svg">
</g>
<g xmlns="http://www.w3.org/2000/svg">
</g>
<g xmlns="http://www.w3.org/2000/svg">
</g>
<g xmlns="http://www.w3.org/2000/svg">
</g>
<g xmlns="http://www.w3.org/2000/svg">
</g>
<g xmlns="http://www.w3.org/2000/svg">
</g>
<g xmlns="http://www.w3.org/2000/svg">
</g>
</g></svg>
