<?xml version="1.0" encoding="UTF-8"?>
<!DOCTYPE svg PUBLIC "-//W3C//DTD SVG 1.1//EN" "http://www.w3.org/Graphics/SVG/1.1/DTD/svg11.dtd" [
  <!ENTITY fill_color "#FFFFFF">
  <!ENTITY stroke_color "#010101">
]>

<svg
   xmlns="http://www.w3.org/2000/svg"
   version="1.1"
   width="55"
   height="55"
   viewBox="0 0 55 55"
   id="Layer_1"
   xml:space="preserve"><path
     d="m 20,5 0,28.147294 5,4.84375 0,6.962566 5,0 0,-6.962566 5,-4.84375 L 35,5 30,5 30,30.491044 c 0,1.385 -1.115,2.5 -2.5,2.5 -1.385,0 -2.5,-1.115 -2.5,-2.5 L 25,5 z"
     id="rect3265"
     style="fill:&fill_color;;fill-opacity:1;stroke:none" /><path
     d="m 13.738705,10.347518 0,9.595485"
     id="path4185"
     style="fill:&fill_color;;stroke:&fill_color;;stroke-width:2;stroke-linecap:butt;stroke-linejoin:miter;stroke-miterlimit:4;stroke-opacity:1;stroke-dasharray:none" /><path
     d="m 8.979635,8.6876564 0,12.9152086"
     id="path4187"
     style="fill:&fill_color;;stroke:&fill_color;;stroke-width:2;stroke-linecap:butt;stroke-linejoin:miter;stroke-miterlimit:4;stroke-opacity:1;stroke-dasharray:none" /><path
     d="m 4.220565,7.4015942 0,15.4873328"
     id="path4189"
     style="fill:&fill_color;;stroke:&fill_color;;stroke-width:2;stroke-linecap:butt;stroke-linejoin:miter;stroke-miterlimit:4;stroke-opacity:1;stroke-dasharray:none" /><path
     d="m 41.261293,10.347518 0,9.595485"
     id="path4201"
     style="fill:&fill_color;;stroke:&fill_color;;stroke-width:2;stroke-linecap:butt;stroke-linejoin:miter;stroke-miterlimit:4;stroke-opacity:1;stroke-dasharray:none" /><path
     d="m 46.020363,8.6876564 0,12.9152086"
     id="path4203"
     style="fill:&fill_color;;stroke:&fill_color;;stroke-width:2;stroke-linecap:butt;stroke-linejoin:miter;stroke-miterlimit:4;stroke-opacity:1;stroke-dasharray:none" /><path
     d="m 50.779435,7.4015942 0,15.4873328"
     id="path4205"
     style="fill:&fill_color;;stroke:&fill_color;;stroke-width:2;stroke-linecap:butt;stroke-linejoin:miter;stroke-miterlimit:4;stroke-opacity:1;stroke-dasharray:none" /></svg>
