<?xml version="1.0" ?><!DOCTYPE svg  PUBLIC '-//W3C//DTD SVG 1.1//EN'  'http://www.w3.org/Graphics/SVG/1.1/DTD/svg11.dtd'><svg enable-background="new 0 0 55.125 55" height="55px" version="1.1" viewBox="0 0 55.125 55" width="55.125px" x="0px" xml:space="preserve" xmlns="http://www.w3.org/2000/svg" xmlns:xlink="http://www.w3.org/1999/xlink" y="0px"><g display="block" id="freq-high">
	<path d="M10.913,27.5   c0.694-5.98,1.396-11.961,2.77-11.961c2.748,0,2.748,23.922,5.496,23.922c1.373,0,2.098-5.973,2.793-11.961   c0.693-5.98,1.396-11.961,2.77-11.961c2.748,0,2.748,23.922,5.494,23.922c1.375,0,2.098-5.974,2.793-11.961   c0.695-5.98,1.396-11.961,2.771-11.961c2.746,0,2.746,23.922,5.494,23.922c1.373,0,2.092-5.98,2.793-11.961" display="inline" fill="none" stroke="#FFFFFF" stroke-linecap="round" stroke-width="3.5"/>
</g></svg>