<?xml version="1.0" ?><!DOCTYPE svg  PUBLIC '-//W3C//DTD SVG 1.1//EN'  'http://www.w3.org/Graphics/SVG/1.1/DTD/svg11.dtd' [
	<!ENTITY stroke_color "#010101">
	<!ENTITY fill_color "#FFFFFF">
]><svg enable-background="new 0 0 55.125 55" height="55px" version="1.1" viewBox="0 0 55.125 55" width="55.125px" x="0px" xml:space="preserve" xmlns="http://www.w3.org/2000/svg" xmlns:xlink="http://www.w3.org/1999/xlink" y="0px"><g display="block" id="view-details">
	<g>
		<g id="zoom-in_2_">
			<g>
				<path d="M5.048,25.005c0,10.937,8.86,19.807,19.804,19.807      c10.927,0,19.791-8.87,19.791-19.807c0-10.932-8.863-19.797-19.791-19.797C13.908,5.208,5.048,14.073,5.048,25.005z" fill="none" stroke="&fill_color;" stroke-width="4"/>
				<line fill="none" stroke="&fill_color;" stroke-width="4" x1="38.851" x2="52.338" y1="39.007" y2="52.495"/>
			</g>
		</g>
		<g id="wave_cutout">
			<path d="M37.761,29.848c-0.975,0.041-1.94-0.624-2.305-1.246c-0.408-0.62-0.555-1.178-0.698-1.686     c-0.172-0.733-0.355-1.399-0.502-1.757c-0.084,0.301-0.17,0.712-0.233,1.178c-0.232,1.571-0.311,3.736-0.669,5.673     c-0.264,1.294-0.566,2.554-1.582,3.631c-0.576,0.609-1.518,1.044-2.453,1.025c-0.825,0.013-1.645-0.355-2.176-0.86     c-0.547-0.503-0.886-1.09-1.156-1.703c-0.529-1.229-0.797-2.657-1.015-4.23c-0.418-3.13-0.548-6.857-0.958-9.611     c-0.135-1.105-0.392-2.052-0.611-2.641c-0.222,0.661-0.434,1.688-0.596,2.87c-0.387,2.727-0.582,6.294-0.998,9.304     c-0.301,2.028-0.607,3.769-1.443,5.192c-0.449,0.788-1.411,1.687-2.711,1.68c-0.037,0.002-0.074,0.002-0.111,0.002     c-1.281,0-2.495-0.717-3.097-1.594c-0.651-0.89-0.935-1.812-1.217-2.702c-0.525-1.8-1.011-3.438-2.024-4.3     c-0.316-0.273-0.702-0.52-1.22-0.708c1.133,7.199,7.344,12.714,14.865,12.714c6.764,0,12.486-4.467,14.387-10.612     C38.784,29.724,38.255,29.888,37.761,29.848z" fill="&fill_color;"/>
			<path d="M14.619,26.674c1.269,1.804,1.637,3.766,2.078,5.058c0.27,0.881,0.589,1.347,0.671,1.373     c0.013,0.006,0.021,0.013,0.031,0.019c0.044-0.077,0.098-0.18,0.15-0.307c0.272-0.62,0.54-1.763,0.737-3.111     c0.408-2.717,0.605-6.277,0.997-9.278c0.282-2.021,0.564-3.746,1.343-5.161c0.41-0.774,1.331-1.724,2.663-1.724     c0.799-0.012,1.596,0.344,2.115,0.83c0.531,0.484,0.86,1.048,1.124,1.635c0.513,1.174,0.776,2.529,0.991,4.034     c0.412,2.99,0.543,6.574,0.92,9.355c0.213,1.758,0.627,3.208,0.935,3.664c0.146-0.216,0.357-0.764,0.497-1.48     c0.314-1.495,0.407-3.616,0.65-5.48c0.191-1.258,0.342-2.399,1.098-3.514c0.414-0.634,1.343-1.262,2.327-1.233     c0.884-0.012,1.777,0.303,2.391,0.838c0.62,0.527,0.96,1.158,1.19,1.72c0.176,0.449,0.304,0.887,0.406,1.278     c0.311-0.522,0.779-1.091,1.507-1.515c0.122-0.072,0.26-0.125,0.39-0.187c-0.761-7.606-7.178-13.545-14.98-13.545     c-7.886,0-14.341,6.054-15.002,13.763C12.043,24.148,13.66,25.275,14.619,26.674z" fill="&fill_color;"/>
		</g>
	</g>
</g></svg>