<svg width="512" height="512" xmlns="http://www.w3.org/2000/svg">

 <g>
  <title>background</title>
  <rect fill="none" id="canvas_background" height="402" width="582" y="-1" x="-1"/>
 </g>
 <g>
  <title>Layer 1</title>
  <g stroke="null" id="svg_1">
   <g stroke="null" id="svg_2">
    <path stroke="null" fill="#ffffff" id="svg_3" d="m58.685,43.999999l0,448.000013l394.629,0l0,-448.000013l-394.629,0zm364.212,421.385137l-333.794,0l0,-394.770262l333.795,0l0,394.770262l-0.001,0z"/>
   </g>
  </g>
  <g id="svg_7">
   <g id="svg_8">
    <polygon fill="#ffffff" id="svg_9" points="195.13400268554688,154.81500244140625 195.13400268554688,116.44700622558594 164.7169952392578,116.44700622558594 164.7169952392578,154.81500244140625 126.34700012207031,154.81500244140625 126.34700012207031,185.23300170898438 164.7169952392578,185.23300170898438 164.7169952392578,223.60198974609375 195.13400268554688,223.60198974609375 195.13400268554688,185.23300170898438 233.5019989013672,185.23300170898438 233.5019989013672,154.81500244140625 "/>
   </g>
  </g>
  <g id="svg_10">
   <g id="svg_11">
    <rect fill="#ffffff" id="svg_12" height="30.417" width="107.16" y="152.812" x="282.502"/>
   </g>
  </g>
  <g id="svg_13">
   <g id="svg_14">
    <polygon fill="#ffffff" id="svg_15" points="233.81100463867188,326.5799865722656 212.30299377441406,305.0719909667969 179.9250030517578,337.45098876953125 147.54600524902344,305.0719909667969 126.03800201416016,326.5799865722656 158.41700744628906,358.9590148925781 126.03800201416016,391.3380126953125 147.54600524902344,412.84600830078125 179.9250030517578,380.4670104980469 212.30299377441406,412.84600830078125 233.81100463867188,391.3380126953125 201.4320068359375,358.9590148925781 "/>
   </g>
  </g>
  <g id="svg_16">
   <g id="svg_17">
    <rect fill="#ffffff" id="svg_18" height="30.417" width="122.002" transform="matrix(0.7071,-0.7071,0.7071,0.7071,-180.4346,352.3207) " y="365.320842" x="288.919385"/>
   </g>
  </g>
  <g id="svg_19">
   <g id="svg_20">
    <rect fill="#ffffff" id="svg_21" height="30.417" width="28.107" transform="matrix(0.7071,-0.7071,0.7071,0.7071,-166.9269,319.7419) " y="325.654707" x="308.951293"/>
   </g>
  </g>
  <g id="svg_22">
   <g id="svg_23">
    <rect fill="#ffffff" id="svg_24" height="30.417" width="28.107" transform="matrix(0.7071,-0.7071,0.7071,0.7071,-193.9267,384.9037) " y="400.726297" x="371.279839"/>
   </g>
  </g>
  <g id="svg_25"/>
  <g id="svg_26"/>
  <g id="svg_27"/>
  <g id="svg_28"/>
  <g id="svg_29"/>
  <g id="svg_30"/>
  <g id="svg_31"/>
  <g id="svg_32"/>
  <g id="svg_33"/>
  <g id="svg_34"/>
  <g id="svg_35"/>
  <g id="svg_36"/>
  <g id="svg_37"/>
  <g id="svg_38"/>
  <g id="svg_39"/>
 </g>
</svg>