<?xml version="1.0" encoding="iso-8859-1"?><!DOCTYPE svg  PUBLIC '-//W3C//DTD SVG 1.1//EN'  'http://www.w3.org/Graphics/SVG/1.1/DTD/svg11.dtd' [
	<!ENTITY stroke_color "#000000">
	<!ENTITY fill_color "#000000">
]>
<!-- Generator: Adobe Illustrator 18.1.1, SVG Export Plug-In . SVG Version: 6.00 Build 0)  -->
<svg version="1.1" id="Capa_1" xmlns="http://www.w3.org/2000/svg" xmlns:xlink="http://www.w3.org/1999/xlink" x="0px" y="0px"
	 viewBox="0 0 16 16" style="enable-background:new 0 0 16 16;" xml:space="preserve">
<g>
	<path d="M16,9c0,0.553-0.447,1-1,1H1c-0.553,0-1-0.447-1-1V7c0-0.552,0.447-1,1-1h14c0.553,0,1,0.448,1,1V9z
		" fill="&fill_color;" stroke="&stroke_color;"/>
</g>
<g>
	<path d="M7,4C6.447,4,6,3.553,6,3V1c0-0.553,0.447-1,1-1h2c0.553,0,1,0.447,1,1v2c0,0.553-0.447,1-1,1H7z" fill="&fill_color;" stroke="&stroke_color;"/>
</g>
<g>
	<path d="M7,16c-0.553,0-1-0.447-1-1v-2c0-0.553,0.447-1,1-1h2c0.553,0,1,0.447,1,1v2c0,0.553-0.447,1-1,1H7z
		" fill="&fill_color;" stroke="&stroke_color;"/>
</g>
<g>
</g>
<g>
</g>
<g>
</g>
<g>
</g>
<g>
</g>
<g>
</g>
<g>
</g>
<g>
</g>
<g>
</g>
<g>
</g>
<g>
</g>
<g>
</g>
<g>
</g>
<g>
</g>
<g>
</g>
</svg>
