<svg width="60" height="60" xmlns="http://www.w3.org/2000/svg">

 <g>
  <title>background</title>
  <rect fill="none" id="canvas_background" height="402" width="582" y="-1" x="-1"/>
 </g>
 <g>
  <title>Layer 1</title>
  <path fill="#ffffff" stroke="null" id="svg_1" d="m29.500007,2.999956c-14.612128,0 -26.500051,12.037454 -26.500051,26.833379s11.887923,26.833379 26.500051,26.833379s26.500051,-12.037454 26.500051,-26.833379s-11.887923,-26.833379 -26.500051,-26.833379zm6.680663,27.572192l-19.433371,13.41669c-0.149284,0.102861 -0.323301,0.155634 -0.497318,0.155634c-0.141334,0 -0.283551,-0.033989 -0.412517,-0.103756c-0.289734,-0.154739 -0.470818,-0.458851 -0.470818,-0.79069l0,-26.833379c0,-0.331839 0.181084,-0.635951 0.470818,-0.79069c0.288851,-0.155634 0.639535,-0.134167 0.910718,0.051878l19.433371,13.41669c0.240267,0.166367 0.385134,0.442751 0.385134,0.738812s-0.144867,0.572445 -0.386017,0.738812zm8.336033,13.572323l-6.183345,0l0,-28.622271l6.183345,0l0,28.622271z"/>
  <g id="svg_2"/>
  <g id="svg_3"/>
  <g id="svg_4"/>
  <g id="svg_5"/>
  <g id="svg_6"/>
  <g id="svg_7"/>
  <g id="svg_8"/>
  <g id="svg_9"/>
  <g id="svg_10"/>
  <g id="svg_11"/>
  <g id="svg_12"/>
  <g id="svg_13"/>
  <g id="svg_14"/>
  <g id="svg_15"/>
  <g id="svg_16"/>
 </g>
</svg>