<svg width="471.2" height="471.2" xmlns="http://www.w3.org/2000/svg">

 <g>
  <title>background</title>
  <rect fill="none" id="canvas_background" height="402" width="582" y="-1" x="-1"/>
 </g>
 <g>
  <title>Layer 1</title>
  <g stroke="null" id="svg_1">
   <g stroke="null" id="svg_2">
    <path stroke="null" fill="#ffffff" id="svg_3" d="m389.545933,21.999998l-309.891866,0c-39.529968,0 -71.654078,30.564686 -71.654078,68.175722l0,294.848557c0,37.611036 32.12411,68.175722 71.654078,68.175722l309.891866,0c39.529968,0 71.654078,-30.564686 71.654078,-68.175722l0,-294.848557c0,-37.519525 -32.22029,-68.175722 -71.654078,-68.175722zm45.685486,363.024279c0,23.975891 -20.486334,43.467742 -45.685486,43.467742l-309.891866,0c-25.199152,0 -45.685486,-19.491851 -45.685486,-43.467742l0,-294.848557c0,-23.975891 20.486334,-43.467742 45.685486,-43.467742l309.891866,0c25.199152,0 45.685486,19.491851 45.685486,43.467742l0,294.848557z"/>
    <path stroke="null" fill="#ffffff" id="svg_4" d="m280.766386,164.39117c-5.097538,-4.850085 -13.272836,-4.850085 -18.370374,0c-5.097538,4.850085 -5.097538,12.628523 0,17.478608l45.685486,43.467742l-178.317666,0c-7.213498,0 -12.984296,5.490662 -12.984296,12.35399s5.770798,12.35399 12.984296,12.35399l178.317666,0l-45.589306,43.376231c-5.097538,4.850085 -5.097538,12.628523 0,17.478608c2.500679,2.379287 5.866978,3.660441 9.137097,3.660441s6.636418,-1.189643 9.137097,-3.660441l67.806879,-64.51528c5.097538,-4.850085 5.097538,-12.628523 0,-17.478608l-67.806879,-64.51528z"/>
   </g>
  </g>
  <g id="svg_5"/>
  <g id="svg_6"/>
  <g id="svg_7"/>
  <g id="svg_8"/>
  <g id="svg_9"/>
  <g id="svg_10"/>
  <g id="svg_11"/>
  <g id="svg_12"/>
  <g id="svg_13"/>
  <g id="svg_14"/>
  <g id="svg_15"/>
  <g id="svg_16"/>
  <g id="svg_17"/>
  <g id="svg_18"/>
  <g id="svg_19"/>
 </g>
</svg>