<svg width="55.125" height="55" xmlns="http://www.w3.org/2000/svg">

 <g>
  <title>background</title>
  <rect fill="none" id="canvas_background" height="1282" width="1282" y="-1" x="-1"/>
 </g>
 <g>
  <title>Layer 1</title>
  <g stroke="null" fill="#000000" id="go-right" display="block">
   <g stroke="null" fill="#000000" id="g5" display="inline">
    <path stroke="null" id="path7" fill="#000000" d="m54.499819,27.500001c0,-14.9123 -11.975601,-26.999819 -26.749829,-26.999819c-14.775417,0 -26.749829,12.087519 -26.749829,26.999819s11.974412,26.999819 26.749829,26.999819c14.774228,0 26.749829,-12.087519 26.749829,-26.999819zm-32.426737,12.488316c-0.741862,-0.751195 -1.11636,-1.736388 -1.11636,-2.725182c0,-0.986393 0.374498,-1.975187 1.11636,-2.725182l6.934745,-7.007953l-6.897889,-6.788355c-0.766828,-0.755995 -1.149648,-1.756788 -1.149648,-2.759982c0,-0.969594 0.362609,-1.943987 1.086638,-2.695182c1.471835,-1.51919 3.888831,-1.55399 5.404654,-0.0672l9.660849,9.514736c0,0.0024 0,0.0024 0,0.0036c0.013078,0.012 0.024967,0.018 0.033289,0.0264c0.136721,0.139199 0.247287,0.293998 0.359042,0.445197c0.033289,0.0468 0.076088,0.085199 0.110566,0.133199c0.089166,0.136799 0.158121,0.287998 0.230643,0.431997c0.041611,0.081599 0.092733,0.157199 0.12721,0.239998c0.046366,0.119999 0.076088,0.243598 0.110566,0.367198c0.038044,0.118799 0.080844,0.229198 0.106999,0.350398c0.0214,0.099599 0.0214,0.202799 0.033289,0.301198c0.017833,0.146399 0.039233,0.292798 0.0428,0.439197c0,0.085199 -0.016644,0.176399 -0.024967,0.262798c-0.008322,0.159599 -0.013078,0.319198 -0.0428,0.473997c-0.016644,0.089999 -0.051122,0.175199 -0.076088,0.267598c-0.041611,0.147599 -0.072522,0.301198 -0.131966,0.447597c-0.038044,0.098399 -0.097488,0.193199 -0.143855,0.292798c-0.065388,0.125999 -0.123644,0.257998 -0.196165,0.377997c-0.068955,0.101999 -0.154555,0.190799 -0.230643,0.286798c-0.076088,0.103199 -0.145044,0.211199 -0.238965,0.304798c-0.003567,0.0072 -0.013078,0.012 -0.016644,0.0156c-0.004756,0.0084 -0.009511,0.0132 -0.013078,0.018l-9.665605,9.770335c-1.496802,1.50479 -3.913797,1.50839 -5.412977,-0.0024z"/>
   </g>
  </g>
 </g>
</svg>