<?xml version="1.0" encoding="iso-8859-1"?>
<!-- Generator: Adobe Illustrator 19.0.0, SVG Export Plug-In . SVG Version: 6.00 Build 0)  -->
<svg version="1.1" id="Layer_1" xmlns="http://www.w3.org/2000/svg" xmlns:xlink="http://www.w3.org/1999/xlink" x="0px" y="0px"
	 viewBox="0 0 512.007 512.007" style="enable-background:new 0 0 512.007 512.007;" xml:space="preserve">
<g>
	<g>
		<path d="M502.505,46.254L439.676,4.368c-2.8-2.167-6.213-3.664-10.106-4.165c-0.07-0.01-0.14-0.015-0.21-0.024
			c-0.467-0.056-0.939-0.099-1.419-0.126c-0.247-0.015-0.493-0.022-0.74-0.028c-0.178-0.004-0.35-0.02-0.529-0.02H85.338
			c-0.16,0-0.314,0.015-0.473,0.018c-0.281,0.006-0.561,0.015-0.842,0.032c-0.435,0.025-0.862,0.065-1.285,0.114
			c-0.113,0.014-0.225,0.023-0.337,0.039c-3.86,0.505-7.245,1.988-10.029,4.132L9.502,46.252
			C-0.301,52.788-2.95,66.033,3.585,75.836l112.168,168.251c-19.169,27.593-30.415,61.106-30.415,97.25
			c0,94.257,76.41,170.667,170.667,170.667s170.667-76.41,170.667-170.667c0-36.145-11.246-69.657-30.415-97.251L508.422,75.838
			C514.957,66.035,512.308,52.79,502.505,46.254z M256.004,170.671c-3.804,0-7.576,0.138-11.318,0.383l-56.335-64.383h135.306
			l-56.335,64.383C263.58,170.809,259.809,170.671,256.004,170.671z M375.168,42.671l-21.333,21.333h-195.66l-21.333-21.333H375.168
			z M81.601,49.465L196.87,181.2c-19.022,7.027-36.444,17.349-51.584,30.269L50.92,69.919L81.601,49.465z M256.004,469.338
			c-70.693,0-128-57.307-128-128c0-30.922,10.965-59.283,29.218-81.407c0.364-0.372,0.721-0.756,1.064-1.161
			c19.55-23.118,46.737-38.647,76.979-43.579c0.816-0.133,1.62-0.316,2.411-0.541c5.987-0.858,12.104-1.312,18.328-1.312
			c6.216,0,12.326,0.452,18.305,1.309c0.797,0.228,1.609,0.412,2.432,0.547c30.242,4.932,57.43,20.461,76.979,43.579
			c0.349,0.412,0.712,0.801,1.082,1.179c18.244,22.121,29.202,50.474,29.202,81.387
			C384.004,412.031,326.697,469.338,256.004,469.338z M366.723,211.468c-15.14-12.92-32.562-23.242-51.584-30.268L430.405,49.467
			l30.682,20.455L366.723,211.468z"/>
	</g>
</g>
<g>
</g>
<g>
</g>
<g>
</g>
<g>
</g>
<g>
</g>
<g>
</g>
<g>
</g>
<g>
</g>
<g>
</g>
<g>
</g>
<g>
</g>
<g>
</g>
<g>
</g>
<g>
</g>
<g>
</g>
</svg>
