<svg width="347.337" height="347.337" xmlns="http://www.w3.org/2000/svg">

 <g>
  <title>background</title>
  <rect fill="none" id="canvas_background" height="402" width="582" y="-1" x="-1"/>
 </g>
 <g>
  <title>Layer 1</title>
  <g stroke="null" id="svg_1">
   <g stroke="null" id="Layer_5_73_">
    <g stroke="null" id="svg_2">
     <path stroke="null" id="svg_3" d="m282.65855,63.589985l0,-2.083677c0,-6.878688 -5.753334,-12.506318 -12.786556,-12.506318l-193.405997,0c-7.033222,0 -12.788006,5.62763 -12.788006,12.506318l0,2.083677c0,6.878688 5.754059,12.506318 12.788006,12.506318l4.941167,0c2.538022,0 2.337156,2.317009 2.337156,3.5014c0,13.892126 5.823673,29.950908 10.286967,40.211139c8.951242,20.57578 29.33011,37.455834 46.058577,49.374921c3.053603,2.175875 2.321203,4.195723 0.548213,5.585077c-16.225214,12.711991 -37.557653,28.958715 -46.606065,49.758607c-4.393679,10.098529 -10.104229,25.815469 -10.282616,39.554404c-0.018129,1.409213 0.55909,4.157425 -2.885369,4.157425l-4.397305,0c-7.033222,0 -12.788006,5.62834 -12.788006,12.506318l0,2.085096c0,6.877978 5.754059,12.506318 12.788006,12.506318l193.406722,0c7.033222,0 12.786556,-5.62834 12.786556,-12.506318l0,-2.085096c0,-6.877978 -5.753334,-12.506318 -12.786556,-12.506318l-2.767169,0c-5.076044,0 -4.587294,-3.717002 -4.535083,-5.643942c0.353873,-12.832557 -3.503921,-27.427517 -9.149208,-38.393417c-12.558134,-24.389235 -32.362684,-39.901211 -44.559694,-48.875632c-2.646795,-1.946798 -2.91365,-4.356715 0,-6.316279c12.575538,-8.46024 32.00156,-24.486398 44.559694,-48.876342c6.010762,-11.676535 9.996182,-27.469361 9.025932,-40.865745c-0.076141,-1.073753 -0.153006,-3.171615 2.725111,-3.171615l4.700417,0c7.032497,0 12.785106,-5.626921 12.785106,-12.506318zm-39.43869,51.5203c-11.684329,22.693499 -30.432337,38.922493 -46.739493,48.701875c-0.981852,0.589359 -2.854187,2.043252 -2.854187,6.100678l0,4.84962c0,4.302105 1.995611,5.246072 3.044902,5.876565c16.305705,9.791438 34.910859,25.982844 46.548053,48.586982c5.376256,10.444627 8.169531,23.072221 7.893249,33.121814c-0.056562,2.09006 0.763582,5.892168 -4.795412,5.892168l-146.418504,0c-4.894757,0 -4.695341,-2.390058 -4.683739,-3.697144c0.084842,-9.145343 3.308856,-21.813362 9.324694,-35.641659c10.445049,-24.009804 32.362684,-38.998379 46.953412,-47.926701c0.649734,-0.39787 1.906417,-1.111342 1.906417,-4.909194l0,-7.259537c0,-3.924802 -1.925996,-5.452454 -2.94193,-6.077983c-14.574049,-8.998535 -35.71795,-23.842429 -45.917899,-47.291244c-6.078926,-13.972977 -9.306565,-26.760145 -9.326144,-35.926764c-0.00145,-1.201412 0.153006,-3.412748 2.872316,-3.412748l149.802775,0c3.022422,0 2.992691,2.234031 3.092036,3.424805c0.857852,10.386471 -1.933248,24.270087 -7.760547,35.588468z"/>
     <path stroke="null" id="svg_4" d="m170.17558,188.148203l-49.852558,61.013867c-1.646089,2.015592 -0.835372,3.663811 1.801271,3.663811l102.087232,0c2.637368,0 3.44881,-1.648218 1.801271,-3.663811l-49.851108,-61.013867c-1.646814,-2.015592 -4.340018,-2.015592 -5.986107,0z"/>
     <path stroke="null" id="svg_5" d="m169.773122,159.793031c1.867984,1.821267 4.923038,1.821267 6.789572,0l25.072759,-24.460157c1.866534,-1.821267 1.23783,-3.31204 -1.400988,-3.31204l-54.134564,0c-2.637368,0 -3.267522,1.490772 -1.400988,3.31204l25.07421,24.460157z"/>
    </g>
   </g>
  </g>
  <g id="svg_6"/>
  <g id="svg_7"/>
  <g id="svg_8"/>
  <g id="svg_9"/>
  <g id="svg_10"/>
  <g id="svg_11"/>
  <g id="svg_12"/>
  <g id="svg_13"/>
  <g id="svg_14"/>
  <g id="svg_15"/>
  <g id="svg_16"/>
  <g id="svg_17"/>
  <g id="svg_18"/>
  <g id="svg_19"/>
  <g id="svg_20"/>
 </g>
</svg>