<?xml version="1.0" encoding="iso-8859-1"?>
<!-- Generator: Adobe Illustrator 16.0.0, SVG Export Plug-In . SVG Version: 6.00 Build 0)  -->
<!DOCTYPE svg PUBLIC "-//W3C//DTD SVG 1.1//EN" "http://www.w3.org/Graphics/SVG/1.1/DTD/svg11.dtd">
<svg version="1.1" id="Capa_1" xmlns="http://www.w3.org/2000/svg" xmlns:xlink="http://www.w3.org/1999/xlink" x="0px" y="0px"
	 width="75.936px" height="75.936px" viewBox="0 0 75.936 75.936" style="enable-background:new 0 0 75.936 75.936;"
	 xml:space="preserve">
<g>
	<g>
		<g>
			<path d="M62.271,38.306H50.4v-5.153h-8.961V17.249h-3.135l-4.257,2.017l0.672,2.688l2.912-1.345l0,0v12.544h-12.77v10.083H17.92
				v-2.912h-6.049l0,0l1.567-1.121c2.24-2.016,4.256-4.255,4.256-6.72c0-2.912-2.016-4.928-5.6-4.928
				c-2.24,0-4.032,0.672-5.152,1.567l1.12,2.688c0.896-0.672,2.017-1.345,3.36-1.345c1.792,0,2.688,1.12,2.688,2.24
				c0,1.792-1.792,3.584-5.15,6.719l-2.018,1.793v2.24H0v15.23h25.312h25.312h25.312V38.531
				C75.711,38.306,62.271,38.306,62.271,38.306z"/>
			<path d="M68.768,33.826c0-2.017-1.567-3.584-3.359-3.809l0,0c2.018-0.672,2.912-2.017,2.912-3.584c0-2.24-1.793-4.032-5.15-4.032
				c-2.018,0-4.033,0.673-4.93,1.12l0.673,2.688c0.673-0.447,2.017-0.896,3.358-0.896c1.568,0,2.24,0.672,2.24,1.567
				c0,1.345-1.568,1.792-2.912,1.792h-1.344v2.688h1.566c1.568,0,3.137,0.673,3.137,2.24c0,1.12-0.896,2.017-2.912,2.017
				c-1.566,0-2.912-0.672-3.584-0.896l-0.672,2.688c0.896,0.672,2.688,1.121,4.704,1.121C66.305,38.753,68.768,36.738,68.768,33.826
				z"/>
		</g>
	</g>
</g>
<g>
</g>
<g>
</g>
<g>
</g>
<g>
</g>
<g>
</g>
<g>
</g>
<g>
</g>
<g>
</g>
<g>
</g>
<g>
</g>
<g>
</g>
<g>
</g>
<g>
</g>
<g>
</g>
<g>
</g>
</svg>
