<?xml version="1.0" encoding="iso-8859-1"?>
<!-- Generator: Adobe Illustrator 18.0.0, SVG Export Plug-In . SVG Version: 6.00 Build 0)  -->
<!DOCTYPE svg PUBLIC "-//W3C//DTD SVG 1.1//EN" "http://www.w3.org/Graphics/SVG/1.1/DTD/svg11.dtd">
<svg version="1.1" id="Capa_1" xmlns="http://www.w3.org/2000/svg" xmlns:xlink="http://www.w3.org/1999/xlink" x="0px" y="0px"
	 viewBox="0 0 225.109 225.109" style="enable-background:new 0 0 225.109 225.109;" xml:space="preserve">
<path d="M177.928,74.382L81.465,34.851c2.793-3.652,4.457-8.21,4.457-13.152C85.922,9.734,76.191,0,64.23,0
	C52.263,0,42.525,9.734,42.525,21.699c0,9.327,5.92,17.296,14.201,20.355v84.695v90.859c0,4.142,3.357,7.5,7.5,7.5
	c4.143,0,7.5-3.358,7.5-7.5v-85.828l106.201-43.519c2.816-1.154,4.656-3.896,4.656-6.94
	C182.584,78.278,180.744,75.537,177.928,74.382z M64.23,15c3.689,0,6.691,3.005,6.691,6.699c0,3.691-3.002,6.693-6.691,6.693
	c-3.697,0-6.705-3.002-6.705-6.693C57.525,18.005,60.533,15,64.23,15z M71.727,115.571v-68.5l83.578,34.251L71.727,115.571z"/>
<g>
</g>
<g>
</g>
<g>
</g>
<g>
</g>
<g>
</g>
<g>
</g>
<g>
</g>
<g>
</g>
<g>
</g>
<g>
</g>
<g>
</g>
<g>
</g>
<g>
</g>
<g>
</g>
<g>
</g>
</svg>
