<svg width="60.364" height="60.364" xmlns="http://www.w3.org/2000/svg">

 <g>
  <title>background</title>
  <rect fill="none" id="canvas_background" height="402" width="582" y="-1" x="-1"/>
 </g>
 <g>
  <title>Layer 1</title>
  <g id="svg_1">
   <path fill="#ffffff" id="svg_2" d="m54.454,23.18l-18.609,-0.002l-0.001,-17.268c0.001,-3.264 -2.646,-5.91 -5.91,-5.91c-3.263,0 -5.909,2.646 -5.909,5.91l0,17.269l-18.115,-0.001c-3.264,0.001 -5.91,2.647 -5.91,5.91c0.002,3.264 2.646,5.909 5.91,5.909l18.115,0l0,19.457c0,3.267 2.646,5.91 5.91,5.91c3.264,0 5.909,-2.646 5.91,-5.908l0,-19.459l18.611,0c3.262,0 5.908,-2.645 5.908,-5.907c0.003,-3.266 -2.646,-5.912 -5.91,-5.91z"/>
  </g>
  <g id="svg_3"/>
  <g id="svg_4"/>
  <g id="svg_5"/>
  <g id="svg_6"/>
  <g id="svg_7"/>
  <g id="svg_8"/>
  <g id="svg_9"/>
  <g id="svg_10"/>
  <g id="svg_11"/>
  <g id="svg_12"/>
  <g id="svg_13"/>
  <g id="svg_14"/>
  <g id="svg_15"/>
  <g id="svg_16"/>
  <g id="svg_17"/>
 </g>
</svg>