<svg width="55.12499999999999" height="55" xmlns="http://www.w3.org/2000/svg">

 <g>
  <title>background</title>
  <rect fill="none" id="canvas_background" height="402" width="582" y="-1" x="-1"/>
 </g>
 <g>
  <title>Layer 1</title>
  <g stroke="null" id="system-restart" display="block">
   <path stroke="null" id="svg_1" fill="#000000" d="m27.391666,0.27633c-15.006865,0 -27.166663,12.240474 -27.166663,27.334549c0,15.091645 12.159798,27.332119 27.166663,27.332119c15.00445,0 27.164248,-12.23926 27.166663,-27.332119c0,-15.091645 -12.161006,-27.334549 -27.166663,-27.334549zm0.001207,43.849957c-9.147317,0 -16.555968,-7.458963 -16.560798,-16.657541c0.003622,-6.9208 4.194533,-12.86246 10.178443,-15.371052c1.151867,-0.487141 2.4776,0.058311 2.95694,1.220889c0.485378,1.158933 -0.061578,2.491585 -1.212237,2.979941c-4.345459,1.828296 -7.396577,6.140889 -7.392955,11.170222c0.012074,6.681482 5.382621,12.087408 12.030606,12.099556c6.639532,-0.012148 12.013702,-5.418074 12.024569,-12.099556c0.002415,-4.065985 -2.019992,-7.631467 -5.078355,-9.825422l1.409044,3.538756c0.464852,1.171082 -0.100215,2.496445 -1.262948,2.962933c-0.276496,0.109333 -0.55903,0.162785 -0.836733,0.162785c-0.898311,0 -1.749533,-0.543022 -2.103303,-1.433482l-3.441111,-8.66163c-0.021733,-0.053452 -0.009659,-0.112978 -0.026563,-0.167644c-0.057956,-0.182222 -0.080896,-0.365659 -0.090556,-0.561244c-0.006037,-0.127556 -0.015696,-0.249037 -0.002415,-0.376593c0.008452,-0.061956 -0.012074,-0.120267 0,-0.182222c0.02777,-0.134844 0.105044,-0.241748 0.152133,-0.366874c0.0326,-0.085037 0.028978,-0.178578 0.072444,-0.25997c0.018111,-0.0328 0.051919,-0.051022 0.071237,-0.082607c0.111081,-0.184652 0.252348,-0.334074 0.406896,-0.478637c0.073652,-0.06803 0.127985,-0.149422 0.208881,-0.207733c0.235444,-0.170074 0.498659,-0.290341 0.783607,-0.359585c0.020526,-0.004859 0.0326,-0.020652 0.053126,-0.025511l0.009659,-0.001215c0.00483,-0.001215 0.008452,-0.001215 0.014489,-0.00243l9.039858,-1.946133c1.221896,-0.266044 2.423266,0.517511 2.684066,1.749333c0.262007,1.229393 -0.519185,2.436919 -1.738666,2.704178l-2.405155,0.518726c4.013422,3.038252 6.609347,7.861067 6.611762,13.304652c-0.002415,9.196148 -7.415895,16.655112 -16.555968,16.655112z"/>
  </g>
 </g>
</svg>