<svg width="481.825" height="481.825" xmlns="http://www.w3.org/2000/svg">

 <g>
  <title>background</title>
  <rect fill="none" id="canvas_background" height="402" width="582" y="-1" x="-1"/>
 </g>
 <g>
  <title>Layer 1</title>
  <g stroke="null" id="svg_1">
   <g stroke="null" id="svg_2">
    <g stroke="null" id="svg_3">
     <path stroke="null" id="svg_4" d="m240.821535,375.396242l0,0c28.796404,0 52.153488,-62.175457 52.153488,-138.50119s-23.357084,-138.50119 -52.153488,-138.50119s-52.153488,62.175457 -52.153488,138.50119s23.357084,138.50119 52.153488,138.50119zm0,-213.111738c15.518062,0 28.156484,33.017312 28.156484,74.181752c0,40.735644 -12.638422,74.181752 -28.156484,74.181752s-28.156484,-33.017312 -28.156484,-74.181752c0.0016,-40.735644 12.640022,-74.181752 28.156484,-74.181752z"/>
     <path stroke="null" id="svg_5" d="m321.133107,375.825038c6.559181,0 11.998502,-14.579073 11.998502,-32.159719l0,-18.438239l37.115366,47.167588c1.5998,2.143981 3.359581,3.001574 5.119361,3.001574c4.479441,0 8.798901,-6.86074 10.718662,-17.15185c2.87964,-15.865461 0.31996,-35.161293 -5.599301,-42.879625l-32.315965,-41.16444l32.635925,-45.023607c3.999501,-5.574351 6.559181,-16.723054 6.559181,-28.729349l0,-69.464993c0,-17.580646 -5.439321,-32.159719 -11.998502,-32.159719l-54.233228,0c-6.559181,0 -11.998502,14.579073 -11.998502,32.159719l0,143.646745l0,69.036197c0,17.580646 5.437721,32.159719 11.998502,32.159719zm11.998502,-213.540534l30.236225,0l0,17.580646l-30.236225,41.593237l0,-59.173883z"/>
     <polygon stroke="null" id="svg_6" points="375.3663202672566,375.3963317871094 375.36476523758995,375.3963317871094 375.36476523758995,375.3963317871094 "/>
     <path stroke="null" id="svg_7" d="m145.47504,373.681057c6.879141,0 13.758282,-3.859166 20.157483,-13.292684c5.919261,-7.718333 8.318961,-27.014164 5.439321,-42.879625s-10.078742,-22.297405 -15.998002,-14.579073c-10.078742,13.292684 -22.077243,4.287963 -29.116364,-21.868609c-0.15998,-0.857593 -0.47994,-1.286389 -0.63992,-2.143981c-8.158981,-25.298979 -8.158981,-60.460272 0,-85.759251c0.15998,-0.428796 0.47994,-1.286389 0.63992,-2.143981c6.879141,-26.156571 19.357583,-36.876478 30.236225,-26.156571c6.079241,6.431944 13.118362,-2.143981 15.358082,-18.867035c2.3997,-16.294258 -0.7999,-35.161293 -7.039121,-41.16444c-20.637423,-20.58222 -44.314467,-0.857593 -57.752789,47.596384c-15.518062,48.882773 -15.518062,118.776562 0,167.659335c9.438821,34.732497 23.997004,53.599532 38.715166,53.599532z"/>
     <path stroke="null" id="svg_8" d="m469.914529,162.7133c6.559181,0 11.998502,-14.579073 11.998502,-32.159719s-5.439321,-32.159719 -11.998502,-32.159719l-54.233228,0c-6.559181,0 -11.998502,14.579073 -11.998502,32.159719l0,213.111738c0,17.580646 5.439321,32.159719 11.998502,32.159719l54.233228,0c6.559181,0 11.998502,-14.579073 11.998502,-32.159719s-5.439321,-32.588515 -11.998502,-32.588515l0,0l-42.234726,0l0,-42.022033l14.078242,0c6.559181,0 11.998502,-14.579073 11.998502,-32.159719s-5.439321,-32.159719 -11.998502,-32.159719l-14.078242,0l0,-42.022033l42.234726,0z"/>
     <path stroke="null" id="svg_9" d="m1.812979,343.236523c0,17.580646 5.439321,32.159719 11.998502,32.159719l54.233228,0c4.479441,0 8.478941,-6.86074 10.558682,-17.15185c2.07974,-10.29111 1.91976,-23.154998 -0.63992,-33.017312l-41.434826,-162.942576l31.516065,0c6.559181,0 11.998502,-14.579073 11.998502,-32.159719s-5.439321,-32.159719 -11.998502,-32.159719l-54.233228,0c-4.319461,0 -8.478941,6.431944 -10.558682,17.15185c-2.07974,10.29111 -1.91976,23.154998 0.63992,33.017312l41.434826,162.942576l-31.516065,0c-6.560781,0 -11.998502,14.579073 -11.998502,32.159719z"/>
    </g>
   </g>
  </g>
  <g id="svg_12"/>
  <g id="svg_13"/>
  <g id="svg_14"/>
  <g id="svg_15"/>
  <g id="svg_16"/>
  <g id="svg_17"/>
  <g id="svg_18"/>
  <g id="svg_19"/>
  <g id="svg_20"/>
  <g id="svg_21"/>
  <g id="svg_22"/>
  <g id="svg_23"/>
  <g id="svg_24"/>
  <g id="svg_25"/>
  <g id="svg_26"/>
 </g>
</svg>