<svg width="481.825" height="481.825" xmlns="http://www.w3.org/2000/svg">

 <g>
  <title>background</title>
  <rect fill="none" id="canvas_background" height="402" width="582" y="-1" x="-1"/>
 </g>
 <g>
  <title>Layer 1</title>
  <g stroke="null" id="svg_1">
   <g stroke="null" id="svg_2">
    <g stroke="null" id="svg_3">
     <path stroke="null" id="svg_4" d="m240.341054,414.279472l0,0c28.256584,0 51.175813,-79.106927 51.175813,-176.217499s-22.919229,-176.217499 -51.175813,-176.217499s-51.175813,79.106927 -51.175813,176.217499s22.919229,176.217499 51.175813,176.217499zm0,-271.145811c15.227159,0 27.62866,42.008506 27.62866,94.382747c0,51.828676 -12.401501,94.382747 -27.62866,94.382747s-27.62866,-42.008506 -27.62866,-94.382747c0.00157,-51.828676 12.40307,-94.382747 27.62866,-94.382747z"/>
     <path stroke="null" id="svg_5" d="m319.147096,414.825037c6.436222,0 11.773577,-18.54921 11.773577,-40.917376l0,-23.459295l36.419597,60.012151c1.56981,2.727825 3.296601,3.818955 5.023393,3.818955c4.395469,0 8.633956,-8.72904 10.517728,-21.8226c2.825658,-20.185905 0.313962,-44.736331 -5.494336,-54.556501l-31.710166,-52.374241l32.024128,-57.284326c3.924526,-7.092345 6.436222,-21.277035 6.436222,-36.552856l0,-88.381532c0,-22.368165 -5.337355,-40.917376 -11.773577,-40.917376l-53.216566,0c-6.436222,0 -11.773577,18.54921 -11.773577,40.917376l0,182.764279l0,87.835967c0,22.368165 5.335785,40.917376 11.773577,40.917376zm11.773577,-271.691376l29.669413,0l0,22.368165l-29.669413,52.919806l0,-75.287972z"/>
     <polygon stroke="null" id="svg_6" points="372.363658134115,414.27960205078125 372.3621193831084,414.27960205078125 372.3621193831084,414.27960205078125 "/>
     <path stroke="null" id="svg_7" d="m146.781935,412.097212c6.750184,0 13.500368,-4.910085 19.779609,-16.912515c5.808298,-9.82017 8.163013,-34.370596 5.337355,-54.556501s-9.889804,-28.369381 -15.698102,-18.54921c-9.889804,16.912515 -21.663381,5.45565 -28.570546,-27.823816c-0.156981,-1.09113 -0.470943,-1.636695 -0.627924,-2.727825c-8.006032,-32.188336 -8.006032,-76.924667 0,-109.113002c0.156981,-0.545565 0.470943,-1.636695 0.627924,-2.727825c6.750184,-33.279466 18.994703,-46.918591 29.669413,-33.279466c5.965279,8.183475 12.872444,-2.727825 15.070178,-24.00486c2.354715,-20.73147 -0.784905,-44.736331 -6.907165,-52.374241c-20.250552,-26.187121 -43.483743,-1.09113 -56.670148,60.557716c-15.227159,62.194411 -15.227159,151.121508 0,213.315919c9.26188,44.190766 23.547153,68.195626 37.989407,68.195626z"/>
     <path stroke="null" id="svg_8" d="m465.139445,143.679227c6.436222,0 11.773577,-18.54921 11.773577,-40.917376s-5.337355,-40.917376 -11.773577,-40.917376l-53.216566,0c-6.436222,0 -11.773577,18.54921 -11.773577,40.917376l0,271.145811c0,22.368165 5.337355,40.917376 11.773577,40.917376l53.216566,0c6.436222,0 11.773577,-18.54921 11.773577,-40.917376s-5.337355,-41.462941 -11.773577,-41.462941l0,0l-41.442989,0l0,-53.465371l13.81433,0c6.436222,0 11.773577,-18.54921 11.773577,-40.917376s-5.337355,-40.917376 -11.773577,-40.917376l-13.81433,0l0,-53.465371l41.442989,0z"/>
     <path stroke="null" id="svg_9" d="m5.812979,373.362096c0,22.368165 5.337355,40.917376 11.773577,40.917376l53.216566,0c4.395469,0 8.319994,-8.72904 10.360747,-21.8226c2.040753,-13.09356 1.883772,-29.460511 -0.627924,-42.008506l-40.658084,-207.314704l30.925261,0c6.436222,0 11.773577,-18.54921 11.773577,-40.917376s-5.337355,-40.917376 -11.773577,-40.917376l-53.216566,0c-4.238488,0 -8.319994,8.183475 -10.360747,21.8226c-2.040753,13.09356 -1.883772,29.460511 0.627924,42.008506l40.658084,207.314704l-30.925261,0c-6.437792,0 -11.773577,18.54921 -11.773577,40.917376z"/>
    </g>
   </g>
  </g>
  <g id="svg_12"/>
  <g id="svg_13"/>
  <g id="svg_14"/>
  <g id="svg_15"/>
  <g id="svg_16"/>
  <g id="svg_17"/>
  <g id="svg_18"/>
  <g id="svg_19"/>
  <g id="svg_20"/>
  <g id="svg_21"/>
  <g id="svg_22"/>
  <g id="svg_23"/>
  <g id="svg_24"/>
  <g id="svg_25"/>
  <g id="svg_26"/>
 </g>
</svg>