<?xml version="1.0" encoding="iso-8859-1"?>
<!-- Generator: Adobe Illustrator 19.0.0, SVG Export Plug-In . SVG Version: 6.00 Build 0)  -->
<svg version="1.1" id="Layer_1" xmlns="http://www.w3.org/2000/svg" xmlns:xlink="http://www.w3.org/1999/xlink" x="0px" y="0px"
	 viewBox="0 0 481.825 481.825" style="enable-background:new 0 0 481.825 481.825;" xml:space="preserve">
<g transform="translate(0 -540.36)">
	<g>
		<g>
			<path d="M240.212,724.085L240.212,724.085c18,0,32.6-14.5,32.6-32.3s-14.6-32.3-32.6-32.3s-32.6,14.5-32.6,32.3
				S222.212,724.085,240.212,724.085z M240.212,674.385c9.7,0,17.6,7.7,17.6,17.3c0,9.5-7.9,17.3-17.6,17.3s-17.6-7.7-17.6-17.3
				C222.613,682.185,230.513,674.385,240.212,674.385z"/>
			<path d="M290.413,724.185c4.1,0,7.5-3.4,7.5-7.5v-4.3l23.2,11c1,0.5,2.1,0.7,3.2,0.7c2.8,0,5.5-1.6,6.7-4c1.8-3.7,0.2-8.2-3.5-10
				l-20.2-9.6l20.4-10.5c2.5-1.3,4.1-3.9,4.1-6.7v-16.2c0-4.1-3.4-7.5-7.5-7.5h-33.9c-4.1,0-7.5,3.4-7.5,7.5v33.5v16.1
				C282.913,720.785,286.312,724.185,290.413,724.185z M297.913,674.385h18.9v4.1l-18.9,9.7V674.385z"/>
			<polygon points="324.313,724.085 324.312,724.085 324.312,724.085 			"/>
			<path d="M180.613,723.685c4.3,0,8.6-0.9,12.6-3.1c3.7-1.8,5.2-6.3,3.4-10s-6.3-5.2-10-3.4c-6.3,3.1-13.8,1-18.2-5.1
				c-0.1-0.2-0.3-0.3-0.4-0.5c-5.1-5.9-5.1-14.1,0-20c0.1-0.1,0.3-0.3,0.4-0.5c4.3-6.1,12.1-8.6,18.9-6.1c3.8,1.5,8.2-0.5,9.6-4.4
				c1.5-3.8-0.5-8.2-4.4-9.6c-12.9-4.8-27.7-0.2-36.1,11.1c-9.7,11.4-9.7,27.7,0,39.1
				C162.313,719.285,171.413,723.685,180.613,723.685z"/>
			<path d="M383.413,674.485c4.1,0,7.5-3.4,7.5-7.5s-3.4-7.5-7.5-7.5h-33.9c-4.1,0-7.5,3.4-7.5,7.5v49.7c0,4.1,3.4,7.5,7.5,7.5h33.9
				c4.1,0,7.5-3.4,7.5-7.5s-3.4-7.6-7.5-7.6v0h-26.4v-9.8h8.8c4.1,0,7.5-3.4,7.5-7.5s-3.4-7.5-7.5-7.5h-8.8v-9.8H383.413z"/>
			<path d="M90.813,716.585c0,4.1,3.4,7.5,7.5,7.5h33.9c2.8,0,5.3-1.6,6.6-4c1.3-2.4,1.2-5.4-0.4-7.7l-25.9-38h19.7
				c4.1,0,7.5-3.4,7.5-7.5s-3.4-7.5-7.5-7.5h-33.9c-2.7,0-5.3,1.5-6.6,4c-1.3,2.4-1.2,5.4,0.4,7.7l25.9,38h-19.7
				C94.212,709.085,90.813,712.485,90.813,716.585z"/>
			<path d="M90.813,972.485h300.1v-213.8h-300.1V972.485z M340.712,773.785h35.2v50.8h-35.2V773.785z M340.613,839.585h35.2v52.1
				h-35.2V839.585z M340.613,906.685h35.2v50.8h-35.2V906.685z M290.413,773.685h35.2v50.8h-35.2V773.685z M290.413,839.585h35.2
				v52.1h-35.2V839.585z M290.413,906.685h35.2v50.8h-35.2V906.685z M156.013,773.785h119.4v50.8h-119.4V773.785z M156.013,839.585
				h119.4v52.1h-119.4V839.585z M156.013,906.685h119.4v50.8h-119.4V906.685z M105.813,773.685h35.2v50.8h-35.2V773.685z
				 M105.813,839.585h35.2v52.1h-35.2V839.585z M105.813,906.685h35.2v50.8h-35.2V906.685z"/>
			<path d="M323.712,593.485v-17.4h-35.1c-3.4-12.4-11.6-22.8-23.3-29.2c-14.9-8.7-34-8.7-48.8,0c-11.7,6.4-19.9,16.8-23.3,29.2
				h-35.1v17.4h-108.7l1.3,428.7h381.7v-428.7H323.712z M223.613,560.085l0.3-0.2c10.3-6.1,23.5-6.1,33.8,0l0.3,0.2
				c6.8,3.7,11.9,9.3,14.7,16h-63.8C211.812,569.385,216.913,563.685,223.613,560.085z M173.012,591.085h135.7v18.5h-135.7V591.085z
				 M65.512,1007.185l-1.2-398.7h93.6v16.2h165.7v-16.2h93.6v398.7H65.512z"/>
		</g>
	</g>
</g>
<g>
</g>
<g>
</g>
<g>
</g>
<g>
</g>
<g>
</g>
<g>
</g>
<g>
</g>
<g>
</g>
<g>
</g>
<g>
</g>
<g>
</g>
<g>
</g>
<g>
</g>
<g>
</g>
<g>
</g>
</svg>
