<svg width="481.825" height="481.825" xmlns="http://www.w3.org/2000/svg">
 <g>
  <title>background</title>
  <rect x="-1" y="-1" width="483.825" height="483.825" id="canvas_background" fill="none"/>
 </g>

 <g>
  <title>Layer 1</title>
  <g stroke="null" id="svg_1">
   <g stroke="null" id="svg_2">
    <g stroke="null" id="svg_3">
     <path stroke="null" d="m239.838897,354.471514l0,0c28.316559,0 51.284435,-51.259118 51.284435,-114.184098s-22.967876,-114.184098 -51.284435,-114.184098s-51.284445,51.259118 -51.284445,114.184098s22.967876,114.184098 51.284445,114.184098zm0,-175.695038c15.259479,0 27.687303,27.220365 27.687303,61.157434c0,33.583555 -12.427823,61.157426 -27.687303,61.157426s-27.687312,-27.220357 -27.687312,-61.157426c0.001573,-33.583563 12.429397,-61.157434 27.687312,-61.157434z" id="svg_4"/>
     <path stroke="null" d="m318.812218,354.825028c6.449883,0 11.798566,-12.019377 11.798566,-26.513336l0,-15.20098l36.496899,38.886227c1.573142,1.767555 3.303608,2.474575 5.034065,2.474575c4.404798,0 8.652282,-5.656178 10.540053,-14.140445c2.831656,-13.079911 0.314628,-28.987911 -5.505998,-35.35111l-31.777482,-33.937069l32.092111,-37.118673c3.932855,-4.595644 6.449883,-13.786931 6.449883,-23.685247l0,-57.268802c0,-14.49396 -5.348683,-26.513336 -11.798566,-26.513336l-53.32953,0c-6.449883,0 -11.798566,12.019377 -11.798566,26.513336l0,118.426228l0,56.915296c0,14.49396 5.34711,26.513336 11.798566,26.513336zm11.798566,-176.048553l29.732387,0l0,14.49396l-29.732387,34.290583l0,-48.784543z" id="svg_5"/>
     <polygon stroke="null" points="372.1417236328125,354.47157256898936 372.1402282714844,354.47157256898936 372.1402282714844,354.47157256898936 " id="svg_6"/>
     <path stroke="null" d="m146.081176,353.057473c6.764511,0 13.529023,-3.181603 19.821592,-10.95885c5.820626,-6.363198 8.180339,-22.271199 5.348683,-35.35111s-9.910796,-18.382583 -15.731422,-12.019377c-9.910796,10.958842 -21.709362,3.535109 -28.631188,-18.029069c-0.157314,-0.707028 -0.471943,-1.060534 -0.629257,-1.767555c-8.023025,-20.857158 -8.023025,-49.845078 0,-70.702236c0.157314,-0.353506 0.471943,-1.060526 0.629257,-1.767555c6.764511,-21.564178 19.035021,-30.401952 29.732387,-21.564178c5.97794,5.302672 12.899766,-1.767555 15.102165,-15.554486c2.359713,-13.433425 -0.786571,-28.987919 -6.921826,-33.937069c-20.293534,-16.968535 -43.576039,-0.707028 -56.790443,39.239733c-15.259479,40.300268 -15.259479,97.922584 0,138.22286c9.281549,28.634397 23.597143,44.188891 38.070051,44.188891z" id="svg_7"/>
     <path stroke="null" d="m465.114461,179.12999c6.449883,0 11.798566,-12.019377 11.798566,-26.513336s-5.348683,-26.513336 -11.798566,-26.513336l-53.32953,0c-6.449883,0 -11.798566,12.019385 -11.798566,26.513336l0,175.695038c0,14.49396 5.348683,26.513336 11.798566,26.513336l53.32953,0c6.449883,0 11.798566,-12.019377 11.798566,-26.513336s-5.348683,-26.866851 -11.798566,-26.866851l0,0l-41.530964,0l0,-34.644089l13.843651,0c6.449893,0 11.798576,-12.019377 11.798576,-26.513336s-5.348683,-26.513336 -11.798576,-26.513336l-13.843651,0l0,-34.644089l41.530964,0z" id="svg_8"/>
     <path stroke="null" d="m4.812987,327.958178c0,14.49396 5.348683,26.513336 11.798566,26.513336l53.32953,0c4.404798,0 8.337654,-5.656178 10.382738,-14.140445c2.045085,-8.484267 1.887771,-19.089603 -0.629257,-27.220357l-40.744393,-134.334236l30.990911,0c6.449883,0 11.798566,-12.019377 11.798566,-26.513336s-5.348683,-26.513328 -11.798566,-26.513328l-53.32953,0c-4.247484,0 -8.337654,5.302664 -10.382738,14.140445c-2.045085,8.484267 -1.887771,19.089595 0.629257,27.220357l40.744393,134.334228l-30.990911,0c-6.451456,0 -11.798566,12.019385 -11.798566,26.513336z" id="svg_9"/>
    </g>
   </g>
  </g>
  <g id="svg_12"/>
  <g id="svg_13"/>
  <g id="svg_14"/>
  <g id="svg_15"/>
  <g id="svg_16"/>
  <g id="svg_17"/>
  <g id="svg_18"/>
  <g id="svg_19"/>
  <g id="svg_20"/>
  <g id="svg_21"/>
  <g id="svg_22"/>
  <g id="svg_23"/>
  <g id="svg_24"/>
  <g id="svg_25"/>
  <g id="svg_26"/>
 </g>
</svg>