<?xml version="1.0" encoding="iso-8859-1"?>
<!-- Generator: Adobe Illustrator 19.0.0, SVG Export Plug-In . SVG Version: 6.00 Build 0)  -->
<svg version="1.1" id="Capa_1" xmlns="http://www.w3.org/2000/svg" xmlns:xlink="http://www.w3.org/1999/xlink" x="0px" y="0px"
	 viewBox="0 0 502.671 502.671" style="enable-background:new 0 0 502.671 502.671;" xml:space="preserve">
<g>
	<g>
		<g>
			<rect y="204.203" style="fill:#010002;" width="88.764" height="261.33"/>
			<path style="fill:#010002;" d="M502.664,447.219L396.708,341.221l-13.762,8.391l-20.881-20.233
				c32.615-45.773,28.732-109.58-12.295-150.629c-2.804-2.804-5.997-4.918-9.017-7.356V5.363h-88.699v140.404
				c-12.921,1.639-25.454,5.457-37.339,11.411v-42.667h-88.634v351.043h88.613v-99.635c11.885,5.932,24.44,9.75,37.339,11.389
				v88.225h88.699v-103.13l13.676,13.18l-7.873,15.811l105.977,105.913c0,0,23.038,0.302,36.929-15.574
				C503.397,465.878,502.664,447.219,502.664,447.219z M203.175,197.71c35.096-35.247,92.323-35.268,127.57-0.022
				c35.203,35.268,35.225,92.323-0.065,127.677c-35.182,35.182-92.345,35.225-127.613-0.043
				C167.821,290.119,167.842,232.957,203.175,197.71z"/>
		</g>
	</g>
	<g>
	</g>
	<g>
	</g>
	<g>
	</g>
	<g>
	</g>
	<g>
	</g>
	<g>
	</g>
	<g>
	</g>
	<g>
	</g>
	<g>
	</g>
	<g>
	</g>
	<g>
	</g>
	<g>
	</g>
	<g>
	</g>
	<g>
	</g>
	<g>
	</g>
</g>
<g>
</g>
<g>
</g>
<g>
</g>
<g>
</g>
<g>
</g>
<g>
</g>
<g>
</g>
<g>
</g>
<g>
</g>
<g>
</g>
<g>
</g>
<g>
</g>
<g>
</g>
<g>
</g>
<g>
</g>
</svg>
