<?xml version="1.0" encoding="iso-8859-1"?>
<!-- Generator: Adobe Illustrator 18.0.0, SVG Export Plug-In . SVG Version: 6.00 Build 0)  -->
<!DOCTYPE svg PUBLIC "-//W3C//DTD SVG 1.1//EN" "http://www.w3.org/Graphics/SVG/1.1/DTD/svg11.dtd">
<svg version="1.1" id="Capa_1" xmlns="http://www.w3.org/2000/svg" xmlns:xlink="http://www.w3.org/1999/xlink" x="0px" y="0px"
	 viewBox="0 0 60 60" style="enable-background:new 0 0 60 60;" xml:space="preserve">
<path d="M49.001,0H10.999C4.934,0,0,4.934,0,10.999v38.003C0,55.066,4.934,60,10.999,60h38.002C55.065,60,60,55.066,60,49.001
	V10.999C60,4.934,55.065,0,49.001,0z M58,49.001C58,53.963,53.963,58,49.001,58H10.999C6.037,58,2,53.963,2,49.001V10.999
	C2,6.037,6.037,2,10.999,2h38.002C53.963,2,58,6.037,58,10.999V49.001z"/>
<g>
</g>
<g>
</g>
<g>
</g>
<g>
</g>
<g>
</g>
<g>
</g>
<g>
</g>
<g>
</g>
<g>
</g>
<g>
</g>
<g>
</g>
<g>
</g>
<g>
</g>
<g>
</g>
<g>
</g>
</svg>
