<svg id="Capa_1" enable-background="new 0 0 524.235 524.235" height="512" viewBox="0 0 524.235 524.235" width="512" xmlns="http://www.w3.org/2000/svg"><path d="m490.64 245.735c-8.075-113.375-98.756-204.065-212.14-212.14v-33.595h-32.765v33.595c-113.384 8.075-204.065 98.765-212.14 212.14h-33.595v32.765h33.595c8.075 113.375 98.756 204.065 212.141 212.141v33.595h32.764v-33.596c113.385-8.075 204.065-98.766 212.141-212.141h33.595v-32.765c-.001.001-33.596.001-33.596.001zm-228.523 212.971c-108.405 0-196.588-88.183-196.588-196.588s88.184-196.589 196.588-196.589 196.588 88.183 196.588 196.588-88.183 196.589-196.588 196.589z"/></svg>