<?xml version="1.0" encoding="iso-8859-1"?>
<!-- Generator: Adobe Illustrator 19.0.0, SVG Export Plug-In . SVG Version: 6.00 Build 0)  -->
<svg version="1.1" id="Capa_1" xmlns="http://www.w3.org/2000/svg" xmlns:xlink="http://www.w3.org/1999/xlink" x="0px" y="0px"
	 viewBox="0 0 490.1 490.1" style="enable-background:new 0 0 490.1 490.1;" xml:space="preserve">
<g>
	<g>
		<path d="M245,261.75c71.9,0,131.4-57.3,131.4-130.3S316.9,0.05,245,0.05s-131.4,57.3-131.4,130.3S173.1,261.75,245,261.75z
			 M245,40.75c50,0,90.7,40.7,90.7,89.7s-40.7,89.6-90.7,89.6s-90.7-40.7-90.7-89.7S195,40.75,245,40.75z"/>
		<path d="M333.6,274.25c-8.3-2.1-16.7,0-21.9,6.3l-66.7,76.1l-66.7-76.1c-5.2-6.3-14.6-8.3-21.9-6.3C61.5,305.55,0,382.65,0,469.15
			c0,11.5,9.4,20.9,20.9,20.9h448.3c11.5,0,20.9-9.4,20.9-20.9C490,382.65,428.5,305.55,333.6,274.25z M42.7,449.35
			c8.4-57.3,50.1-106.3,114.7-131.3l73,83.4c7.3,9.4,22.9,9.4,30.2,0l73-83.4c63.6,25,106.4,75,114.7,131.3H42.7z"/>
	</g>
</g>
<g>
</g>
<g>
</g>
<g>
</g>
<g>
</g>
<g>
</g>
<g>
</g>
<g>
</g>
<g>
</g>
<g>
</g>
<g>
</g>
<g>
</g>
<g>
</g>
<g>
</g>
<g>
</g>
<g>
</g>
</svg>
