<?xml version="1.0" encoding="UTF-8"?>
<!DOCTYPE svg PUBLIC "-//W3C//DTD SVG 1.1//EN" "http://www.w3.org/Graphics/SVG/1.1/DTD/svg11.dtd" [
  <!ENTITY fill_color "#FFFFFF">
  <!ENTITY stroke_color "#010101">
]>
<svg version="1.1" xmlns="http://www.w3.org/2000/svg" xmlns:xlink="http://www.w3.org/1999/xlink" x="0px" y="0px" width="55" height="55" viewBox="0, 0, 55, 55">
  <g id="g4358">
    <path d="M29.585,12.003 C28.769,12.047 27.739,12.333 26.897,13.034 C26.315,13.52 25.937,14.167 25.647,14.847 C25.596,14.796 25.542,14.74 25.491,14.691 C25.01,14.231 24.665,13.724 23.335,13.378 C21.825,12.985 20.266,13.13 18.835,14.003 C17.403,14.877 16.303,16.964 16.616,18.878 C16.627,18.946 16.666,18.969 16.678,19.034 C16.627,19.03 16.607,19.007 16.553,19.003 C14.67,18.877 12.776,19.554 11.616,21.097 C10.455,22.64 10.469,25.057 11.585,26.659 C11.827,27.007 12.047,27.173 12.272,27.409 C11.126,27.767 10.073,28.358 9.46,29.409 C8.488,31.075 8.795,32.779 9.366,34.003 C10.074,35.521 11.428,36.179 12.335,36.534 C13.241,36.889 14.005,37.083 14.803,37.378 C16.401,37.967 18.104,38.788 20.053,41.316 C22.933,46.784 28.529,50.816 35.428,50.816 C39.844,50.816 43.824,48.794 46.21,45.347 C48.595,41.9 49.473,37.261 48.897,32.003 L48.866,31.941 L48.866,31.847 C48.858,31.8 48.853,30.328 49.116,29.003 C49.379,27.678 49.903,26.323 50.272,25.816 C51.718,23.829 51.055,21.361 49.897,19.972 C48.739,18.583 46.644,17.575 44.428,18.284 C42.723,18.831 41.682,19.894 40.741,20.972 C40.156,21.641 39.72,22.35 39.241,23.066 C39.039,22.585 39.084,22.595 38.866,22.097 C38.094,20.335 37.256,18.487 36.366,16.909 C35.475,15.331 34.916,14.032 33.053,12.909 C32.219,12.407 31.215,11.914 29.585,12.003 z M29.741,15.003 C30.403,14.967 31.098,15.235 31.491,15.472 C34.101,17.045 38.803,29.941 38.803,29.941 C38.803,29.941 42.212,22.128 45.335,21.128 C47.069,20.572 48.811,22.736 47.866,24.034 C46.227,26.286 45.624,30.709 45.897,32.347 C46.935,41.82 42.429,47.253 35.272,47.253 C29.303,47.253 24.772,44.323 22.428,39.472 C17.801,33.471 12.98,34.641 12.085,32.722 C11.525,31.523 11.823,29.984 14.303,30.003 C15.967,30.016 20.388,32.039 22.553,33.503 C23.308,31.094 15.113,26.537 14.022,24.972 C13.027,23.544 14.18,21.857 16.366,22.003 C19.053,22.182 26.71,30.86 27.616,30.784 C27.835,27.243 19.967,20.902 19.553,18.378 C19.276,16.683 21.021,15.885 22.553,16.284 C24.289,16.736 30.339,26.83 32.616,27.566 C32.022,21.512 27.622,18.967 28.21,16.409 C28.449,15.366 29.079,15.039 29.741,15.003 z" stroke="#000000" stroke-width="6" stroke-opacity="0" fill="&stroke_color;"/>
    <path d="M45.907,32.343 C46.946,41.817 42.422,47.267 35.266,47.267 C29.296,47.267 24.762,44.332 22.418,39.481 C17.791,33.48 12.982,34.647 12.087,32.728 C11.527,31.529 11.812,29.984 14.293,30.003 C15.956,30.016 20.382,32.048 22.548,33.511 C23.303,31.102 15.123,26.522 14.033,24.957 C13.037,23.529 14.175,21.866 16.361,22.012 C19.048,22.191 26.72,30.863 27.627,30.787 C27.846,27.245 19.974,20.909 19.561,18.385 C19.284,16.69 21.033,15.888 22.565,16.286 C24.301,16.738 30.328,26.839 32.606,27.574 C32.012,21.521 27.636,18.982 28.224,16.424 C28.703,14.338 30.718,15 31.502,15.473 C34.112,17.046 38.797,29.925 38.797,29.925 C38.797,29.925 42.228,22.137 45.35,21.137 C47.085,20.581 48.799,22.74 47.854,24.038 C46.215,26.289 45.634,30.706 45.907,32.343 z" stroke="#000000" stroke-width="1" stroke-opacity="0" fill="&fill_color;"/>
    <path d="M10.103,9.462 L14.267,5.298 L18.432,9.462 L14.267,13.627 z" stroke="&stroke_color;" stroke-width="2" fill="&fill_color;"/>
    <path d="M40.733,11.289 L43.172,8.849 L45.611,11.289 L43.172,13.728 z" stroke="&stroke_color;" stroke-width="1.5" fill="&fill_color;"/>
    <path d="M9.532,44.004 L12.548,40.989 L15.563,44.004 L12.548,47.02 z" stroke="&stroke_color;" stroke-width="2" fill="&fill_color;"/>
    <path d="M26.555,6.494 L28.994,4.055 L31.433,6.494 L28.994,8.933 z" stroke="&stroke_color;" stroke-width="1.5" fill="&fill_color;"/>
    <path d="M3.297,21.904 L5.736,19.465 L8.175,21.904 L5.736,24.343 z" stroke="&stroke_color;" stroke-width="1.5" fill="&fill_color;"/>
  </g>
  <defs/>
</svg>
