<svg width="50" height="50" xmlns="http://www.w3.org/2000/svg">
 <g>
  <title>background</title>
  <rect x="-1" y="-1" width="52" height="52" id="canvas_background" fill="none"/>
  <g id="canvasGrid" display="none">
   <rect id="svg_1" width="100%" height="100%" x="0" y="0" stroke-width="0" fill="url(#gridpattern)"/>
  </g>
 </g>
 <g>
  <title>Layer 1</title>
  <g stroke="null" id="svg_7">
   <g stroke="null" display="block" id="svg_4" transform="matrix(1.1121570624165547,0,0,1.104194091974523,0.22660257684106683,-1.2713604595092192) ">
    <path stroke="null" d="m22.27315,1.1705c-12.43,0 -22.5,10.076 -22.5,22.497c0,12.432 10.07,22.503 22.5,22.503c12.431,0 22.5,-10.071 22.5,-22.503c0,-12.421 -10.07,-22.497 -22.5,-22.497zm10.199,28.159c1.254,1.256 1.257,3.291 0,4.545c-0.628,0.629 -1.451,0.943 -2.274,0.943c-0.822,0 -1.644,-0.314 -2.27,-0.94l-5.76,-5.761l-5.76,5.761c-0.627,0.626 -1.449,0.94 -2.271,0.94c-0.823,0 -1.647,-0.314 -2.275,-0.943c-1.254,-1.254 -1.254,-3.289 0.004,-4.545l5.758,-5.758l-5.758,-5.758c-1.258,-1.254 -1.258,-3.292 -0.004,-4.546c1.255,-1.254 3.292,-1.259 4.546,0l5.76,5.759l5.76,-5.759c1.252,-1.259 3.288,-1.254 4.544,0c1.257,1.254 1.254,3.292 0,4.546l-5.758,5.758l5.758,5.758z" fill="#000000" id="svg_6"/>
   </g>
  </g>
 </g>
</svg>
