<svg width="50" height="50" xmlns="http://www.w3.org/2000/svg">
  <!-- This work is a derivative of <a rel="license" href="https://www.svgrepo.com/svg/92596/round-delete-button">svgrepo's svg </a> licensed under a <a rel="license" href="http://creativecommons.org/licenses/by/4.0/">Creative Commons Attribution 4.0 International License</a>. -->
 <g>
  <title>background</title>
  <rect x="-1" y="-1" width="52" height="52" id="canvas_background" fill="none"/>
 </g>

 <g>
  <title>Layer 1</title>
  <g stroke="null" id="svg_1">
   <g stroke="null" id="svg_2">
    <g stroke="null" id="svg_3">
     <path stroke="null" d="m24.837727,49.551624c-13.695411,0 -24.837727,-11.11418 -24.837727,-24.775854c0,-13.661474 11.142316,-24.775771 24.837727,-24.775771c13.69665,0 24.838866,11.114296 24.838866,24.775771c0,13.661674 -11.142216,24.775854 -24.838866,24.775854zm0,-41.957743c-9.498115,0 -17.224793,7.707661 -17.224793,17.181889c0,9.474328 7.726678,17.181972 17.224793,17.181972c9.498115,0 17.225931,-7.707644 17.225931,-17.181972c0,-9.474228 -7.727816,-17.181873 -17.225931,-17.181873l0,-0.000017z" id="svg_4"/>
    </g>
    <g stroke="null" id="svg_5">
     <g stroke="null" id="svg_6">
      <path stroke="null" d="m38.180575,24.850443c0,2.130303 -1.731246,3.857297 -3.86703,3.857297l-18.950816,0c-2.135567,0 -3.866812,-1.726895 -3.866812,-3.857098c0,-2.212939 1.798437,-4.006858 4.016964,-4.006858l18.800664,0c2.135784,0 3.86703,1.726995 3.86703,3.857297l0,0.149362l0,0z" id="svg_7"/>
     </g>
    </g>
   </g>
  </g>
  <g id="svg_8"/>
  <g id="svg_9"/>
  <g id="svg_10"/>
  <g id="svg_11"/>
  <g id="svg_12"/>
  <g id="svg_13"/>
  <g id="svg_14"/>
  <g id="svg_15"/>
  <g id="svg_16"/>
  <g id="svg_17"/>
  <g id="svg_18"/>
  <g id="svg_19"/>
  <g id="svg_20"/>
  <g id="svg_21"/>
  <g id="svg_22"/>
 </g>
</svg>
