<svg width="50" height="50" xmlns="http://www.w3.org/2000/svg">
<!-- This work is a derivative of <a rel="license" href="https://www.svgrepo.com/svg/98634/tick">svgrepo's svg </a> licensed under a <a rel="license" href="http://creativecommons.org/licenses/by/4.0/">Creative Commons Attribution 4.0 International License</a>. -->

 <g>
  <title>background</title>
  <rect x="-1" y="-1" width="52" height="52" id="canvas_background" fill="none"/>
  <g id="canvasGrid" display="none">
   <rect id="svg_1" width="100%" height="100%" x="0" y="0" stroke-width="0" fill="url(#gridpattern)"/>
  </g>
 </g>
 <g>
  <title>Layer 1</title>
  <g stroke="null" id="svg_21">
   <path stroke="null" d="m24.744711,-0.00172c-13.64415,0 -24.744711,11.155877 -24.744711,24.868592s11.100561,24.868841 24.744711,24.868841s24.744711,-11.156125 24.744711,-24.868841s-11.100312,-24.868592 -24.744711,-24.868592zm14.208849,20.668078l-15.545847,15.623661c-0.661011,0.66432 -1.539675,1.029957 -2.474383,1.029957c-0.934708,0 -1.813388,-0.365637 -2.4744,-1.029957l-7.923067,-7.962731c-0.661011,-0.66432 -1.02508,-1.547398 -1.02508,-2.486783c0,-0.93965 0.364069,-1.822712 1.02508,-2.487032c0.660745,-0.66432 1.539426,-1.030222 2.4744,-1.030222c0.934708,0 1.813638,0.365902 2.474383,1.030471l5.448418,5.475434l13.071198,-13.136629c0.660995,-0.66432 1.539675,-1.02994 2.474383,-1.02994c0.934708,0 1.813388,0.36562 2.4744,1.02994c1.364871,1.371711 1.364871,3.602634 0.000516,4.973831z" id="svg_5"/>
   <g stroke="null" id="svg_6" transform="matrix(0.2582065447365595,0,0,0.259499206688618,1.8352884320168623,-5.162033635986974) "/>
   <g stroke="null" id="svg_7" transform="matrix(0.2582065447365595,0,0,0.259499206688618,1.8352884320168623,-5.162033635986974) "/>
   <g stroke="null" id="svg_8" transform="matrix(0.2582065447365595,0,0,0.259499206688618,1.8352884320168623,-5.162033635986974) "/>
   <g stroke="null" id="svg_9" transform="matrix(0.2582065447365595,0,0,0.259499206688618,1.8352884320168623,-5.162033635986974) "/>
   <g stroke="null" id="svg_10" transform="matrix(0.2582065447365595,0,0,0.259499206688618,1.8352884320168623,-5.162033635986974) "/>
   <g stroke="null" id="svg_11" transform="matrix(0.2582065447365595,0,0,0.259499206688618,1.8352884320168623,-5.162033635986974) "/>
   <g stroke="null" id="svg_12" transform="matrix(0.2582065447365595,0,0,0.259499206688618,1.8352884320168623,-5.162033635986974) "/>
   <g stroke="null" id="svg_13" transform="matrix(0.2582065447365595,0,0,0.259499206688618,1.8352884320168623,-5.162033635986974) "/>
   <g stroke="null" id="svg_14" transform="matrix(0.2582065447365595,0,0,0.259499206688618,1.8352884320168623,-5.162033635986974) "/>
   <g stroke="null" id="svg_15" transform="matrix(0.2582065447365595,0,0,0.259499206688618,1.8352884320168623,-5.162033635986974) "/>
   <g stroke="null" id="svg_16" transform="matrix(0.2582065447365595,0,0,0.259499206688618,1.8352884320168623,-5.162033635986974) "/>
   <g stroke="null" id="svg_17" transform="matrix(0.2582065447365595,0,0,0.259499206688618,1.8352884320168623,-5.162033635986974) "/>
   <g stroke="null" id="svg_18" transform="matrix(0.2582065447365595,0,0,0.259499206688618,1.8352884320168623,-5.162033635986974) "/>
   <g stroke="null" id="svg_19" transform="matrix(0.2582065447365595,0,0,0.259499206688618,1.8352884320168623,-5.162033635986974) "/>
   <g stroke="null" id="svg_20" transform="matrix(0.2582065447365595,0,0,0.259499206688618,1.8352884320168623,-5.162033635986974) "/>
  </g>
 </g>
</svg>
