<svg width="80" height="80" xmlns="http://www.w3.org/2000/svg">
  <!-- This work is a derivative of <a rel="license" href="https://www.svgrepo.com/svg/47314/refresh">svgrepo's svg </a> licensed under a <a rel="license" href="http://creativecommons.org/licenses/by/4.0/">Creative Commons Attribution 4.0 International License</a>. -->
 <g>
  <title>background</title>
  <rect x="-1" y="-1" width="82" height="82" id="canvas_background" fill="none"/>
 </g>

 <g>
  <title>Layer 1</title>
  <g stroke="null" id="svg_1">
   <g stroke="null" id="svg_2">
    <path stroke="null" d="m39.916542,0c-22.045242,0 -39.916542,17.889955 -39.916542,39.958211s17.8713,39.958211 39.916542,39.958211s39.916526,-17.889955 39.916526,-39.958211s-17.8713,-39.958211 -39.916526,-39.958211zm25.643631,46.459646c-0.64423,0.957612 -1.641878,1.619751 -2.773806,1.840687c-0.276378,0.053972 -0.555175,0.080623 -0.83277,0.080623c-0.859203,0 -1.705894,-0.254899 -2.42891,-0.742411l-8.055485,-5.43083c-1.991836,-1.342741 -2.519007,-4.047881 -1.177665,-6.041785c1.261851,-1.875336 3.726582,-2.45322 5.672488,-1.398449c-2.169226,-6.435102 -8.2562,-11.081576 -15.407082,-11.081576c-8.963229,0 -16.255343,7.29973 -16.255343,16.272306s7.292114,16.272306 16.255343,16.272306c2.40142,0 4.348207,1.948822 4.348207,4.352753s-1.946787,4.352737 -4.348207,4.352737c-13.758427,0 -24.951758,-11.204828 -24.951758,-24.977797s11.193154,-24.977797 24.951758,-24.977797c11.255424,0 20.792603,7.499781 23.890606,17.768949c1.447427,-1.324453 3.66154,-1.540515 5.360129,-0.395404c1.99182,1.342741 2.518991,4.047881 1.177841,6.041785l-5.425347,8.063902z" id="svg_3"/>
   </g>
  </g>
  <g id="svg_4"/>
  <g id="svg_5"/>
  <g id="svg_6"/>
  <g id="svg_7"/>
  <g id="svg_8"/>
  <g id="svg_9"/>
  <g id="svg_10"/>
  <g id="svg_11"/>
  <g id="svg_12"/>
  <g id="svg_13"/>
  <g id="svg_14"/>
  <g id="svg_15"/>
  <g id="svg_16"/>
  <g id="svg_17"/>
  <g id="svg_18"/>
 </g>
</svg>
