<svg width="80" height="80" xmlns="http://www.w3.org/2000/svg">
  <!-- This work is a derivative of <a rel="license" href="https://www.svgrepo.com/svg/9464/save">svgrepo's svg </a> licensed under a <a rel="license" href="http://creativecommons.org/licenses/by/4.0/">Creative Commons Attribution 4.0 International License</a>. -->
 <g>
  <title>background</title>
  <rect x="-1" y="-1" width="82" height="82" id="canvas_background" fill="none"/>
 </g>

 <g>
  <title>Layer 1</title>
  <g stroke="null" id="svg_1">
   <path stroke="null" d="m69.428033,18.796405l-7.375395,-7.35657c-1.513186,-1.509158 -3.565035,-2.356844 -5.704859,-2.356844l-4.725904,0l0,14.081974c0,1.110969 -0.903087,2.011716 -2.016929,2.011716l-32.270778,0c-1.113842,0 -2.016929,-0.900748 -2.016929,-2.011716l0,-14.081974l-4.033844,0c-2.227696,0 -4.033844,1.801237 -4.033844,4.023419l0,56.327923c0,2.222066 1.806148,4.023419 4.033844,4.023419l56.473868,0c2.227683,0 4.033844,-1.801353 4.033844,-4.023419l0,-44.94792c0,-2.13431 -0.849876,-4.180966 -2.363075,-5.690008zm-5.704626,46.614509l-48.406167,0l0,-24.140542l48.406167,0l0,24.140542z" id="svg_2"/>
   <rect stroke="null" x="35.486483" width="8.067695" height="12.07027" id="svg_3" y="9.082986"/>
  </g>
  <g id="svg_4"/>
  <g id="svg_5"/>
  <g id="svg_6"/>
  <g id="svg_7"/>
  <g id="svg_8"/>
  <g id="svg_9"/>
  <g id="svg_10"/>
  <g id="svg_11"/>
  <g id="svg_12"/>
  <g id="svg_13"/>
  <g id="svg_14"/>
  <g id="svg_15"/>
  <g id="svg_16"/>
  <g id="svg_17"/>
  <g id="svg_18"/>
 </g>
</svg>
