<?xml version="1.0" encoding="UTF-8"?>
<svg xmlns="http://www.w3.org/2000/svg" version="1.1" width="55px" height="55px">
  <path
     style="fill:#ffffff;stroke:#ffffff;stroke-width:2;stroke-linejoin:round"
     d="M 6,36 l 6,0 l 0,6 l -6,0 z
        m 9,0 l 6,0 l 0,6 l -6,0 z
        m 9,0 l 6,0 l 0,6 l -6,0 z
        m 9,0 l 6,0 l 0,6 l -6,0 z
        m 9,0 l 6,0 l 0,6 l -6,0 z
        M 6,27 l 6,0 l 0,6 l -6,0 z
        m 9,0 l 6,0 l 0,6 l -6,0 z
        m 9,0 l 6,0 l 0,6 l -6,0 z
        m 9,0 l 6,0 l 0,6 l -6,0 z
        m 9,0 l 6,0 l 0,6 l -6,0 z
        M 6,18 l 6,0 l 0,6 l -6,0 z
        m 9,0 l 6,0 l 0,6 l -6,0 z
        m 9,0 l 6,0 l 0,6 l -6,0 z
        m 9,0 l 6,0 l 0,6 l -6,0 z
        m 9,0 l 6,0 l 0,6 l -6,0 z
        M 6,9 l 6,0 l 0,6 l -6,0 z
        m 9,0 l 6,0 l 0,6 l -6,0 z
        m 9,0 l 6,0 l 0,6 l -6,0 z
        m 9,0 l 6,0 l 0,6 l -6,0 z
        m 9,0 l 6,0 l 0,6 l -6,0 z"/>
</svg>
