<?xml version="1.0" encoding="UTF-8"?>
<svg xmlns="http://www.w3.org/2000/svg" version="1.1" width="55px" height="55px">
  <path
     style="fill:#ffffff;stroke:#ffffff;stroke-width:2;stroke-linejoin:round"
     d="M 6,34 l 8,0 l 0,8 l -8,0 z 
        m 12,0 l 8,0 l 0,8 l -8,0 z
        m 12,0 l 8,0 l 0,8 l -8,0 z
        m 12,0 l 8,0 l 0,8 l -8,0 z
        M 6,22 l 8,0 l 0,8 l -8,0 z 
        m 12,0 l 8,0 l 0,8 l -8,0 z
        m 12,0 l 8,0 l 0,8 l -8,0 z
        m 12,0 l 8,0 l 0,8 l -8,0 z
        M 6,10 l 8,0 l 0,8 l -8,0 z 
        m 12,0 l 8,0 l 0,8 l -8,0 z
        m 12,0 l 8,0 l 0,8 l -8,0 z
        m 12,0 l 8,0 l 0,8 l -8,0 z"/>
</svg>
