<?xml version="1.0" encoding="UTF-8" standalone="no"?>
<!-- Created with Inkscape (http://www.inkscape.org/) -->

<svg
   xmlns:dc="http://purl.org/dc/elements/1.1/"
   xmlns:cc="http://creativecommons.org/ns#"
   xmlns:rdf="http://www.w3.org/1999/02/22-rdf-syntax-ns#"
   xmlns:svg="http://www.w3.org/2000/svg"
   xmlns="http://www.w3.org/2000/svg"
   version="1.0"
   width="55"
   height="55"
   id="Icon">
  <metadata
     id="metadata25">
    <rdf:RDF>
      <cc:Work
         rdf:about="">
        <dc:format>image/svg+xml</dc:format>
        <dc:type
           rdf:resource="http://purl.org/dc/dcmitype/StillImage" />
        <dc:title></dc:title>
      </cc:Work>
    </rdf:RDF>
  </metadata>
  <defs
     id="defs23" />
  <path
     d="m 10.805605,38.211574 5.204778,0 c 0.886476,0 1.600139,0.73845 1.600139,1.655718 l 0,5.222057 c 0,0.917268 -0.713663,1.655719 -1.600139,1.655719 l -5.204778,0 c -0.886478,0 -1.6001395,-0.738451 -1.6001395,-1.655719 l 0,-5.222057 c 0,-0.917268 0.7136615,-1.655718 1.6001395,-1.655718 z"
     id="path3"
     style="fill:none;stroke:#ffffff;stroke-width:1.15481782;stroke-linecap:round;stroke-linejoin:round;stroke-miterlimit:4;stroke-opacity:1;stroke-dasharray:none" />
  <path
     d="m 31.405605,38.211574 5.204778,0 c 0.886476,0 1.600139,0.73845 1.600139,1.655718 l 0,5.222057 c 0,0.917268 -0.713663,1.655719 -1.600139,1.655719 l -5.204778,0 c -0.886478,0 -1.600139,-0.738451 -1.600139,-1.655719 l 0,-5.222057 c 0,-0.917268 0.713661,-1.655718 1.600139,-1.655718 z"
     id="path5"
     style="fill:none;stroke:#ffffff;stroke-width:1.15481782;stroke-linecap:round;stroke-linejoin:round;stroke-miterlimit:4;stroke-opacity:1;stroke-dasharray:none" />
  <path
     d="m 21.105605,38.211574 5.204778,0 c 0.886476,0 1.600139,0.73845 1.600139,1.655718 l 0,5.222057 c 0,0.917268 -0.713663,1.655719 -1.600139,1.655719 l -5.204778,0 c -0.886478,0 -1.600139,-0.738451 -1.600139,-1.655719 l 0,-5.222057 c 0,-0.917268 0.713661,-1.655718 1.600139,-1.655718 z"
     id="path7"
     style="fill:#ffffff;fill-opacity:1;stroke:#ffffff;stroke-width:1.15481782;stroke-linecap:round;stroke-linejoin:round;stroke-miterlimit:4;stroke-opacity:1;stroke-dasharray:none" />
  <path
     d="m 41.705605,38.211574 5.204778,0 c 0.886476,0 1.600139,0.73845 1.600139,1.655718 l 0,5.222057 c 0,0.917268 -0.713663,1.655719 -1.600139,1.655719 l -5.204778,0 c -0.886478,0 -1.600139,-0.738451 -1.600139,-1.655719 l 0,-5.222057 c 0,-0.917268 0.713661,-1.655718 1.600139,-1.655718 z"
     id="path9"
     style="fill:none;stroke:#ffffff;stroke-width:1.15481782;stroke-linecap:round;stroke-linejoin:round;stroke-miterlimit:4;stroke-opacity:1;stroke-dasharray:none" />
  <path
     d="m 21.105605,27.911574 5.204778,0 c 0.886476,0 1.600139,0.73845 1.600139,1.655718 l 0,5.222057 c 0,0.917268 -0.713663,1.655719 -1.600139,1.655719 l -5.204778,0 c -0.886478,0 -1.600139,-0.738451 -1.600139,-1.655719 l 0,-5.222057 c 0,-0.917268 0.713661,-1.655718 1.600139,-1.655718 z"
     id="path11"
     style="fill:#ffffff;fill-opacity:1;stroke:#ffffff;stroke-width:1.15481782;stroke-linecap:round;stroke-linejoin:round;stroke-miterlimit:4;stroke-opacity:1;stroke-dasharray:none" />
  <path
     d="m 21.105605,17.611574 5.204778,0 c 0.886476,0 1.600139,0.73845 1.600139,1.655718 l 0,5.222057 c 0,0.917268 -0.713663,1.655719 -1.600139,1.655719 l -5.204778,0 c -0.886478,0 -1.600139,-0.738451 -1.600139,-1.655719 l 0,-5.222057 c 0,-0.917268 0.713661,-1.655718 1.600139,-1.655718 z"
     id="path13"
     style="fill:#ffffff;fill-opacity:1;stroke:#ffffff;stroke-width:1.15481782;stroke-linecap:round;stroke-linejoin:round;stroke-miterlimit:4;stroke-opacity:1;stroke-dasharray:none" />
  <path
     d="m 31.405605,27.911574 5.204778,0 c 0.886476,0 1.600139,0.73845 1.600139,1.655718 l 0,5.222057 c 0,0.917268 -0.713663,1.655719 -1.600139,1.655719 l -5.204778,0 c -0.886478,0 -1.600139,-0.738451 -1.600139,-1.655719 l 0,-5.222057 c 0,-0.917268 0.713661,-1.655718 1.600139,-1.655718 z"
     id="path15"
     style="fill:#ffffff;fill-opacity:1;stroke:#ffffff;stroke-width:1.15481782;stroke-linecap:round;stroke-linejoin:round;stroke-miterlimit:4;stroke-opacity:1;stroke-dasharray:none" />
  <path
     d="m 10.805605,27.911574 5.204778,0 c 0.886476,0 1.600139,0.73845 1.600139,1.655718 l 0,5.222057 c 0,0.917268 -0.713663,1.655719 -1.600139,1.655719 l -5.204778,0 c -0.886478,0 -1.6001395,-0.738451 -1.6001395,-1.655719 l 0,-5.222057 c 0,-0.917268 0.7136615,-1.655718 1.6001395,-1.655718 z"
     id="path17"
     style="fill:none;stroke:#ffffff;stroke-width:1.15481782;stroke-linecap:round;stroke-linejoin:round;stroke-miterlimit:4;stroke-opacity:1;stroke-dasharray:none" />
  <path
     d="m 31.405605,17.611574 5.204778,0 c 0.886476,0 1.600139,0.73845 1.600139,1.655718 l 0,5.222057 c 0,0.917268 -0.713663,1.655719 -1.600139,1.655719 l -5.204778,0 c -0.886478,0 -1.600139,-0.738451 -1.600139,-1.655719 l 0,-5.222057 c 0,-0.917268 0.713661,-1.655718 1.600139,-1.655718 z"
     id="path19"
     style="fill:none;stroke:#ffffff;stroke-width:1.15481782;stroke-linecap:round;stroke-linejoin:round;stroke-miterlimit:4;stroke-opacity:1;stroke-dasharray:none" />
  <path
     d="m 41.114542,29.583321 c -1.10877,0 -2.018763,0.909992 -2.018763,2.018761 l 0,4.629689 -3.283849,-3.283849 c -0.784855,-0.783184 -2.043082,-0.78485 -2.826264,0 -0.783183,0.784854 -0.784823,2.069998 0,2.85318 l 3.310766,3.28385 -4.683521,0 c -1.10877,0 -2.018762,0.909991 -2.018762,2.018762 0,1.108769 0.909992,1.991843 2.018762,1.991843 l 4.656605,0 -3.28385,3.283849 c -0.783181,0.784854 -0.784823,2.069999 0,2.85318 0.784855,0.783182 2.07,0.757938 2.85318,-0.02692 l 3.256933,-3.283849 0,4.683524 c 0,1.10877 0.909993,1.991844 2.018763,1.991844 1.108769,0 1.991843,-0.883074 1.991843,-1.991844 l 0,-4.71044 3.337683,3.310765 c 0.784853,0.783182 2.043082,0.784855 2.826262,0 0.783182,-0.784853 0.784858,-2.043082 0,-2.826262 l -3.310765,-3.28385 4.656607,0 c 1.10877,0 1.991844,-0.883074 1.991844,-1.991843 0,-1.108771 -0.883074,-2.018763 -1.991844,-2.018763 l -4.683523,0 3.310765,-3.337683 c 0.783182,-0.784854 0.784857,-2.016165 0,-2.799347 -0.784854,-0.78318 -2.043082,-0.811775 -2.826263,-0.02691 l -3.310766,3.337682 0,-4.656604 c 0,-1.10877 -0.883074,-2.018763 -1.991843,-2.018763 z"
     id="rect3894"
     style="fill:#ffffff;fill-opacity:1;stroke:#282828;stroke-width:1.72267997;stroke-linecap:round;stroke-linejoin:round;stroke-miterlimit:4;stroke-opacity:1;stroke-dasharray:none" />
</svg>
