<?xml version="1.0" encoding="utf-8"?>
<!-- Generator: Adobe Illustrator 16.0.1, SVG Export Plug-In . SVG Version: 6.00 Build 0)  -->
<!DOCTYPE svg PUBLIC "-//W3C//DTD SVG 1.1//EN" "http://www.w3.org/Graphics/SVG/1.1/DTD/svg11.dtd">
<svg version="1.1" id="Layer_1" xmlns="http://www.w3.org/2000/svg" xmlns:xlink="http://www.w3.org/1999/xlink" x="0px" y="0px"
	 width="81px" height="81px" viewBox="0 0 81 81" enable-background="new 0 0 81 81" xml:space="preserve">
<g>
	<g>
		<path fill="#1D1D1B" d="M40.157,1.164c-21.672,0-39.302,17.63-39.302,39.301c0,21.671,17.63,39.301,39.302,39.301
			c21.671,0,39.301-17.63,39.301-39.301C79.458,18.793,61.828,1.164,40.157,1.164z"/>
	</g>
	<path fill="#FFFFFF" d="M56.673,14.833c-5.032,1.888-11.202,5.603-18.425,11.109c-9.052,6.936-14.31,8.838-17.202,9.15
		c-0.178-0.434-0.416-0.826-0.705-1.158c1.491-9.48,6.05-17.249,13.577-23.161c2.079-0.45,4.235-0.692,6.449-0.692
		C46.368,10.081,51.96,11.83,56.673,14.833z"/>
	<path fill="#FFFFFF" d="M25.291,14.088c-4.511,5.479-7.451,12.016-8.602,19.266c-0.094,0.067-0.184,0.143-0.271,0.223
		c-0.304-0.371-0.583-0.818-0.856-1.367c-0.791-1.671-1.219-4.224-1.249-7.386C16.991,20.375,20.779,16.673,25.291,14.088z"/>
	<path fill="#FFFFFF" d="M11.374,31.353c0.229,0.876,0.509,1.689,0.843,2.412c0.696,1.567,1.78,2.854,3.143,3.742
		c0.136,0.669,0.405,1.281,0.789,1.79c-0.011,0.387-0.017,0.803-0.017,1.292c0.003,0.987,0.037,2.005,0.102,3.032
		c-1.892-0.359-3.779-0.784-5.617-1.264l-0.582-0.151c-0.034-0.576-0.053-1.156-0.053-1.74C9.981,37.291,10.47,34.229,11.374,31.353
		z"/>
	<path fill="#FFFFFF" d="M10.518,46.137l0.237,0.058c1.926,0.475,3.897,0.894,5.862,1.244c0.253,1.859,0.609,3.724,1.062,5.552
		c-0.129,0.155-0.243,0.328-0.339,0.518c-1.26,0.136-2.394,0.601-3.223,1.326l-0.352,0.308l0.195,0.344
		C12.33,52.626,11.149,49.479,10.518,46.137z"/>
	<path fill="#FFFFFF" d="M15.904,58.483l0.452-0.658c0.044-0.065,0.088-0.119,0.132-0.162c0.186-0.174,0.447-0.356,0.972-0.451
		c0.501,1.012,1.319,1.787,2.236,2.136c0.779,1.989,1.669,3.855,2.642,5.572C19.885,63.109,17.714,60.938,15.904,58.483z"/>
	<path fill="#FFFFFF" d="M40.366,70.849c-3.597,0-7.046-0.628-10.249-1.776l-0.913-0.919c-2.128-2.146-4.175-5.497-5.818-9.51
		c0.48,0.222,0.962,0.462,1.458,0.725c1.157,0.614,2.379,1.279,3.648,1.971c3.404,1.853,7.263,3.953,11.078,5.732
		c2.85,1.321,5.325,2.312,7.55,3.015C44.947,70.58,42.689,70.849,40.366,70.849z"/>
	<path fill="#FFFFFF" d="M53.574,67.728c-3.184-0.217-7.432-1.556-12.655-4.001c-3.667-1.707-7.465-3.773-10.816-5.596
		c-1.294-0.704-2.545-1.385-3.737-2.019c-1.313-0.696-2.509-1.24-3.647-1.659c-0.361-0.746-0.9-1.377-1.536-1.803
		c-0.401-1.536-0.727-3.082-0.973-4.608c4.849,0.667,9.96,1.004,15.208,1.004c11.702-0.002,22.245-1.677,29.029-3.084
		c1.999-0.415,3.938-0.861,5.802-1.331C68.855,54.797,62.437,63.357,53.574,67.728z"/>
	<path fill="#FFFFFF" d="M70.743,40.752c-1.876,0.491-4.364,1.096-7.305,1.693c-6.504,1.328-16.606,2.911-27.811,2.911
		c-5.21,0-10.283-0.344-15.084-1.023c-0.143-0.386-0.359-0.727-0.632-0.993c-0.062-1.013-0.092-1.916-0.091-2.753
		c0-0.135,0.005-0.271,0.01-0.406c0.496-0.312,0.9-0.792,1.176-1.392c4.897-0.382,11.103-3.544,19.48-9.917
		c9.747-7.452,15.973-10.339,19.795-11.343C66.692,23.1,70.75,31.307,70.75,40.465C70.75,40.562,70.745,40.656,70.743,40.752z"/>
</g>
</svg>
