<?xml version="1.0" encoding="utf-8"?>
<!-- Generator: Adobe Illustrator 16.0.1, SVG Export Plug-In . SVG Version: 6.00 Build 0)  -->
<!DOCTYPE svg PUBLIC "-//W3C//DTD SVG 1.1//EN" "http://www.w3.org/Graphics/SVG/1.1/DTD/svg11.dtd">
<svg version="1.1" id="Layer_1" xmlns="http://www.w3.org/2000/svg" xmlns:xlink="http://www.w3.org/1999/xlink" x="0px" y="0px"
	 width="81px" height="81px" viewBox="0 0 81 81" enable-background="new 0 0 81 81" xml:space="preserve">
<path fill="#101010" d="M56.18,11.204c-2.72-0.418-5.508-0.378-8.692,0.077c-3.837,0.546-7.791,1.781-11.824,3.686
	c-0.954-1.014-2.23-1.595-3.638-1.755c0.523-1.798,1.206-3.539,2.138-5.159c2.138-0.436,4.351-0.667,6.616-0.667"/>
<path fill="#101010" d="M7.749,40.418c0-7.986,2.849-15.319,7.585-21.037c1.94-0.404,4.196-0.284,6.79,0.361
	c-0.416,1.099-0.598,2.222-0.531,3.287c-4.731,3.262-8.347,7.097-10.785,11.458c-1.473,2.629-2.45,5.157-3.003,7.843
	C7.769,41.697,7.749,41.061,7.749,40.418z"/>
<path fill="#1D1D1B" d="M77.431,24.93c-2.015-4.764-4.898-9.04-8.569-12.714c-3.676-3.673-7.952-6.557-12.716-8.572
	c-4.933-2.086-10.172-3.143-15.571-3.143c-5.4,0-10.635,1.057-15.571,3.143c-4.762,2.015-9.039,4.898-12.712,8.572
	c-3.672,3.674-6.557,7.95-8.573,12.714c-2.086,4.932-3.144,10.17-3.144,15.57s1.058,10.638,3.144,15.57
	c2.016,4.763,4.9,9.042,8.573,12.713c3.674,3.674,7.95,6.557,12.712,8.572c4.936,2.088,10.171,3.145,15.571,3.145
	c5.399,0,10.639-1.057,15.571-3.145c4.764-2.016,9.04-4.898,12.716-8.572c3.671-3.671,6.555-7.95,8.569-12.713
	c2.086-4.933,3.144-10.171,3.144-15.57S79.517,29.862,77.431,24.93z"/>
<path fill="none" d="M28.528,51.891c2.178,8.119,5.896,14.896,11.32,20.46c-13.493-0.375-24.988-8.883-29.75-20.784
	c-0.66-11.252,3.472-20.001,12.556-26.527c0.126,0.173,0.262,0.342,0.41,0.502c0.923,1.006,2.161,1.595,3.531,1.781
	C25.964,36.5,26.611,44.736,28.528,51.891z"/>
<path fill="none" d="M73.812,39.333c0,4.198-0.787,8.211-2.222,11.91c-1.832-5.849-5.552-10.969-11.477-16.166
	c-5.827-5.111-13.713-9.865-23.501-14.178c0.551-1.419,0.715-2.881,0.462-4.207c9.373-4.431,18.076-4.866,26.393-1.345
	C69.835,21.373,73.812,29.896,73.812,39.333z"/>
<path fill="#FFFFFF" d="M44.213,73.271C33.169,63.288,28.33,48.141,29.779,28.163c1.459-0.402,2.914-1.191,4.185-2.359
	c0.375-0.343,0.715-0.706,1.027-1.083c9.65,4.221,17.383,8.853,23.041,13.816C64.326,44.055,68.2,50.121,69.572,56.59
	C64.435,65.7,55.104,72.143,44.213,73.271z"/>
<path fill="#FFFFFF" d="M7.749,40.418c0-7.986,2.849-15.319,7.585-21.037c1.94-0.404,4.196-0.284,6.79,0.361
	c-0.416,1.099-0.598,2.222-0.531,3.287c-4.731,3.262-8.347,7.097-10.785,11.458c-1.473,2.629-2.45,5.157-3.003,7.843
	C7.769,41.697,7.749,41.061,7.749,40.418z"/>
<path fill="none" d="M30.123,8.065c-0.683,1.457-1.157,2.916-1.526,4.441c-1.326,0.428-2.636,1.178-3.792,2.241
	c-0.361,0.331-0.691,0.681-0.993,1.042c-2.067-0.623-3.774-0.891-5.322-0.812C21.817,11.932,25.765,9.555,30.123,8.065z"/>
<path fill="#FFFFFF" d="M47.487,11.281c3.137-0.447,5.882-0.488,8.56-0.075c-4.529-2.399-9.69-3.759-15.166-3.759
	c-2.229,0-4.411,0.226-6.515,0.656c-0.917,1.595-1.591,3.309-2.105,5.08c1.387,0.158,2.644,0.729,3.582,1.729
	C39.816,13.035,43.71,11.819,47.487,11.281z"/>
<path fill="#FFFFFF" d="M32.854,19.48c0.071-0.445,0.111-1.282-0.432-1.872c-0.226-0.248-0.504-0.396-0.783-0.483
	c-0.279-0.089-0.56-0.114-0.794-0.114c-1.042,0-2.165,0.484-3.086,1.33c-0.833,0.766-1.399,1.754-1.555,2.712
	c-0.072,0.446-0.112,1.282,0.431,1.873c0.453,0.493,1.109,0.597,1.579,0.597c1.04,0,2.165-0.484,3.083-1.331
	C32.131,21.427,32.699,20.438,32.854,19.48z"/>
</svg>
