<?xml version="1.0" encoding="utf-8"?>
<!-- Generator: Adobe Illustrator 16.0.1, SVG Export Plug-In . SVG Version: 6.00 Build 0)  -->
<!DOCTYPE svg PUBLIC "-//W3C//DTD SVG 1.1//EN" "http://www.w3.org/Graphics/SVG/1.1/DTD/svg11.dtd">
<svg version="1.1" id="Layer_1" xmlns="http://www.w3.org/2000/svg" xmlns:xlink="http://www.w3.org/1999/xlink" x="0px" y="0px"
	 width="81px" height="81px" viewBox="0 0 81 81" enable-background="new 0 0 81 81" xml:space="preserve">
<circle fill="#1D1D1B" cx="40.38" cy="40.322" r="40.414"/>
<g>
	<path fill="#FFFFFF" d="M40.381,71.012c17.15,0,31.054-13.904,31.054-31.054c0-17.152-13.903-31.056-31.054-31.056
		c-17.152,0-31.055,13.904-31.055,31.056C9.326,57.107,23.229,71.012,40.381,71.012z"/>
</g>
<ellipse transform="matrix(-0.5123 -0.8588 0.8588 -0.5123 39.0709 59.2145)" fill="#1D1D1B" cx="36.349" cy="18.513" rx="3.63" ry="4.663"/>
<ellipse transform="matrix(-0.5124 -0.8587 0.8587 -0.5124 26.717 75.431)" fill="#1D1D1B" cx="34.772" cy="30.131" rx="3.629" ry="4.663"/>
<path fill="#1D1D1B" d="M22.564,21.926c2.214-1.32,4.836-0.992,5.865,0.73c1.026,1.72,0.068,4.185-2.145,5.504
	c-2.21,1.319-4.834,0.993-5.862-0.729C19.395,25.71,20.355,23.245,22.564,21.926z"/>
</svg>
