<?xml version="1.0" encoding="UTF-8" standalone="no"?>
<!DOCTYPE svg PUBLIC "-//W3C//DTD SVG 1.1//EN"
 "http://www.w3.org/Graphics/SVG/1.1/DTD/svg11.dtd">
<!-- Generated by graphviz version 2.40.1 (20161225.0304)
 -->
<!-- Title: G Pages: 1 -->
<svg width="346pt" height="260pt"
 viewBox="0.00 0.00 345.57 260.00" xmlns="http://www.w3.org/2000/svg" xmlns:xlink="http://www.w3.org/1999/xlink">
<g id="graph0" class="graph" transform="scale(1 1) rotate(0) translate(4 256)">
<title>G</title>
<polygon fill="#ffffff" stroke="transparent" points="-4,4 -4,-256 341.5682,-256 341.5682,4 -4,4"/>
<!-- bounce -->
<g id="node1" class="node">
<title>bounce</title>
<ellipse fill="#409679" stroke="#000000" cx="91.2412" cy="-90" rx="28.0137" ry="18"/>
<text text-anchor="middle" x="91.2412" y="-87.5" font-family="Helvetica,sans-Serif" font-size="10.00" fill="#ffffff">bounce</text>
</g>
<!-- ball -->
<g id="node2" class="node">
<title>ball</title>
<ellipse fill="#ac4949" stroke="#000000" cx="127.2412" cy="-162" rx="27" ry="18"/>
<text text-anchor="middle" x="127.2412" y="-159.5" font-family="Helvetica,sans-Serif" font-size="10.00" fill="#ffffff">ball</text>
</g>
<!-- bounce&#45;&gt;ball -->
<g id="edge1" class="edge">
<title>bounce&#45;&gt;ball</title>
<path fill="none" stroke="#000000" d="M99.9558,-107.4292C104.2008,-115.9193 109.3947,-126.3071 114.1075,-135.7326"/>
<polygon fill="#000000" stroke="#000000" points="111.0041,-137.3523 118.6068,-144.7313 117.2651,-134.2218 111.0041,-137.3523"/>
</g>
<!-- bar -->
<g id="node3" class="node">
<title>bar</title>
<ellipse fill="#ac8b49" stroke="#000000" cx="55.2412" cy="-162" rx="27" ry="18"/>
<text text-anchor="middle" x="55.2412" y="-159.5" font-family="Helvetica,sans-Serif" font-size="10.00" fill="#000000">bar</text>
</g>
<!-- bounce&#45;&gt;bar -->
<g id="edge2" class="edge">
<title>bounce&#45;&gt;bar</title>
<path fill="none" stroke="#000000" d="M82.5266,-107.4292C78.2815,-115.9193 73.0876,-126.3071 68.3749,-135.7326"/>
<polygon fill="#000000" stroke="#000000" points="65.2172,-134.2218 63.8755,-144.7313 71.4782,-137.3523 65.2172,-134.2218"/>
</g>
<!-- svg_utils -->
<g id="node4" class="node">
<title>svg_utils</title>
<ellipse fill="#db2fa1" stroke="#000000" cx="52.2412" cy="-234" rx="32.9303" ry="18"/>
<text text-anchor="middle" x="52.2412" y="-231.5" font-family="Helvetica,sans-Serif" font-size="10.00" fill="#ffffff">svg_utils</text>
</g>
<!-- bounce&#45;&gt;svg_utils -->
<g id="edge3" class="edge">
<title>bounce&#45;&gt;svg_utils</title>
<path fill="none" stroke="#000000" d="M65.5151,-97.863C38.2425,-107.9789 -.8,-128.3729 .2412,-162"/>
</g>
<!-- aplay -->
<g id="node5" class="node">
<title>aplay</title>
<ellipse fill="#99c247" stroke="#000000" cx="237.2412" cy="-162" rx="27" ry="18"/>
<text text-anchor="middle" x="237.2412" y="-159.5" font-family="Helvetica,sans-Serif" font-size="10.00" fill="#000000">aplay</text>
</g>
<!-- bounce&#45;&gt;aplay -->
<g id="edge4" class="edge">
<title>bounce&#45;&gt;aplay</title>
<path fill="none" stroke="#000000" d="M113.7337,-101.0922C138.4908,-113.3012 178.4494,-133.0068 206.1838,-146.684"/>
<polygon fill="#000000" stroke="#000000" points="204.9222,-149.9643 215.439,-151.2482 208.0183,-143.6862 204.9222,-149.9643"/>
</g>
<!-- sprites -->
<g id="node6" class="node">
<title>sprites</title>
<ellipse fill="#3b9dce" stroke="#000000" cx="130.2412" cy="-234" rx="27.1572" ry="18"/>
<text text-anchor="middle" x="130.2412" y="-231.5" font-family="Helvetica,sans-Serif" font-size="10.00" fill="#000000">sprites</text>
</g>
<!-- bounce&#45;&gt;sprites -->
<g id="edge5" class="edge">
<title>bounce&#45;&gt;sprites</title>
<path fill="none" stroke="#000000" d="M114.7484,-100.4079C131.6554,-109.305 153.1789,-123.8754 163.2412,-144 174.0353,-165.5883 162.0076,-191.6017 149.552,-210.0975"/>
<polygon fill="#000000" stroke="#000000" points="146.6735,-208.1056 143.691,-218.272 152.3624,-212.1845 146.6735,-208.1056"/>
</g>
<!-- ball&#45;&gt;svg_utils -->
<g id="edge12" class="edge">
<title>ball&#45;&gt;svg_utils</title>
<path fill="none" stroke="#000000" d="M111.7011,-176.9184C101.3534,-186.8523 87.5612,-200.0928 75.8654,-211.3207"/>
<polygon fill="#000000" stroke="#000000" points="73.3296,-208.9033 68.5396,-218.3535 78.1774,-213.953 73.3296,-208.9033"/>
</g>
<!-- ball&#45;&gt;sprites -->
<g id="edge11" class="edge">
<title>ball&#45;&gt;sprites</title>
<path fill="none" stroke="#000000" d="M127.9982,-180.1686C128.319,-187.869 128.7006,-197.0257 129.0571,-205.5834"/>
<polygon fill="#000000" stroke="#000000" points="125.5606,-205.7411 129.474,-215.5867 132.5545,-205.4497 125.5606,-205.7411"/>
</g>
<!-- bar&#45;&gt;svg_utils -->
<g id="edge14" class="edge">
<title>bar&#45;&gt;svg_utils</title>
<path fill="none" stroke="#000000" d="M54.4841,-180.1686C54.1633,-187.869 53.7818,-197.0257 53.4252,-205.5834"/>
<polygon fill="#000000" stroke="#000000" points="49.9278,-205.4497 53.0084,-215.5867 56.9218,-205.7411 49.9278,-205.4497"/>
</g>
<!-- bar&#45;&gt;sprites -->
<g id="edge13" class="edge">
<title>bar&#45;&gt;sprites</title>
<path fill="none" stroke="#000000" d="M70.7812,-176.9184C81.3402,-187.055 95.4856,-200.6346 107.3304,-212.0056"/>
<polygon fill="#000000" stroke="#000000" points="105.0833,-214.7002 114.721,-219.1007 109.931,-209.6505 105.0833,-214.7002"/>
</g>
<!-- FractionBounceActivity -->
<g id="node7" class="node">
<title>FractionBounceActivity</title>
<ellipse fill="#794096" stroke="#000000" cx="147.2412" cy="-18" rx="69.4245" ry="18"/>
<text text-anchor="middle" x="147.2412" y="-15.5" font-family="Helvetica,sans-Serif" font-size="7.00" fill="#ffffff">FractionBounceActivity</text>
</g>
<!-- FractionBounceActivity&#45;&gt;bounce -->
<g id="edge9" class="edge">
<title>FractionBounceActivity&#45;&gt;bounce</title>
<path fill="none" stroke="#000000" d="M133.3985,-35.7978C126.4844,-44.6873 118.0075,-55.5862 110.4727,-65.2737"/>
<polygon fill="#000000" stroke="#000000" points="107.5335,-63.3518 104.1568,-73.3942 113.059,-67.6494 107.5335,-63.3518"/>
</g>
<!-- FractionBounceActivity&#45;&gt;svg_utils -->
<g id="edge8" class="edge">
<title>FractionBounceActivity&#45;&gt;svg_utils</title>
<path fill="none" stroke="#000000" d="M111.4444,-33.5454C67.3139,-55.418 -1.6882,-99.6888 .2412,-162"/>
<path fill="none" stroke="#000000" d="M.2412,-162C-.551,-181.447 12.0803,-199.2211 25.0902,-212.2441"/>
<polygon fill="#000000" stroke="#000000" points="22.9958,-215.0768 32.6953,-219.3395 27.7711,-209.9585 22.9958,-215.0768"/>
</g>
<!-- FractionBounceActivity&#45;&gt;aplay -->
<g id="edge6" class="edge">
<title>FractionBounceActivity&#45;&gt;aplay</title>
<path fill="none" stroke="#000000" d="M147.4299,-36.295C148.4233,-55.5328 152.3194,-86.0057 166.2412,-108 176.1869,-123.7127 192.4233,-136.5658 206.8609,-145.785"/>
<polygon fill="#000000" stroke="#000000" points="205.1796,-148.8586 215.5456,-151.0487 208.8078,-142.8723 205.1796,-148.8586"/>
</g>
<!-- utils -->
<g id="node8" class="node">
<title>utils</title>
<ellipse fill="#53b653" stroke="#000000" cx="202.2412" cy="-90" rx="27" ry="18"/>
<text text-anchor="middle" x="202.2412" y="-87.5" font-family="Helvetica,sans-Serif" font-size="10.00" fill="#000000">utils</text>
</g>
<!-- FractionBounceActivity&#45;&gt;utils -->
<g id="edge7" class="edge">
<title>FractionBounceActivity&#45;&gt;utils</title>
<path fill="none" stroke="#000000" d="M160.8367,-35.7978C167.7257,-44.8161 176.1945,-55.9025 183.6742,-65.6941"/>
<polygon fill="#000000" stroke="#000000" points="181.0763,-68.0589 189.9281,-73.881 186.639,-63.8096 181.0763,-68.0589"/>
</g>
<!-- collabwrapper -->
<g id="node9" class="node">
<title>collabwrapper</title>
<ellipse fill="#5353b6" stroke="#000000" cx="292.2412" cy="-90" rx="45.1548" ry="18"/>
<text text-anchor="middle" x="292.2412" y="-87.5" font-family="Helvetica,sans-Serif" font-size="7.00" fill="#ffffff">collabwrapper</text>
</g>
<!-- FractionBounceActivity&#45;&gt;collabwrapper -->
<g id="edge10" class="edge">
<title>FractionBounceActivity&#45;&gt;collabwrapper</title>
<path fill="none" stroke="#000000" d="M179.4214,-33.9791C201.5672,-44.9757 231.0725,-59.6266 254.3549,-71.1875"/>
<polygon fill="#000000" stroke="#000000" points="253.0752,-74.4598 263.5884,-75.7724 256.1884,-68.1902 253.0752,-74.4598"/>
</g>
</g>
</svg>
