<?xml version="1.0" encoding="utf-8"?>
<!-- Generator: Adobe Illustrator 16.0.1, SVG Export Plug-In . SVG Version: 6.00 Build 0)  -->
<!DOCTYPE svg PUBLIC "-//W3C//DTD SVG 1.1//EN" "http://www.w3.org/Graphics/SVG/1.1/DTD/svg11.dtd">
<svg version="1.1" id="Layer_1" xmlns="http://www.w3.org/2000/svg" xmlns:xlink="http://www.w3.org/1999/xlink" x="0px" y="0px"
	 width="81px" height="81px" viewBox="0 0 81 81" enable-background="new 0 0 81 81" xml:space="preserve">
<g>
	
		<path fill="#1D1D1B" stroke="#1D1D1B" stroke-width="6" stroke-linecap="round" stroke-linejoin="round" stroke-miterlimit="10" d="
		M68.922,43.391c-1.6-0.815-3.657-3.461-2.127-6.624c3.99-2.922,7.744-6.449,11.141-10.486c-1.982,0.419-4.468,1.844-5.74,1.859
		c-2.231,2.513-4.961,4.977-7.563,6.932c-0.918-0.004-2.103-0.527-2.821-1.322c-0.521-0.58-0.88-2.048-0.812-3.331
		c-0.542,1.186-0.645,2.806-0.133,4.022c-1.107,0.063-2.235-2.201-2.303-3.468c-0.685,1.346,0.356,3.423,1.299,4.204
		c-1.218,0.134-1.945-0.442-2.87-1.315c0.429,1.25,1.201,1.483,1.821,1.967c-1.463-0.045-2.885-0.401-4.265-1.004
		c-0.231-0.101-0.452-0.23-0.662-0.372c-0.921-0.629-1.685-1.58-2.588-2.208c0.492,1.55,0.926,2.111,1.468,3.189
		c-1.144-0.402-1.79-1.959-2.721-2.833c-0.888-0.829-5.109-4.025-10.049-4.94c0.966,1.58,1.497,2.618,1.671,4.279
		c-0.231-0.747-1.548-3.617-5.511-6.029c-2.263-1.379-5.081-2.438-7.552-2.575c0.722,0.88,0.99,1.947,1.188,4.025
		c-0.613-1.029-1.016-2.512-1.826-3.342c-0.924-0.948-5.535-3.312-11.009-2.545c0.75,1.23,1.159,2.037,1.186,3.65
		c-1.663-2.246-3.45-3.978-5.887-3.178c-1.014,0.333-4.815,1.55-6.682,4.359c-2.502,3.75-3.012,7.129-1.442,11.69
		c1.304,3.801,4.627,6.968,7.802,6.304c-0.417,0.245-0.871,0.479-1.333,0.621c-0.627,0.188-1.268,0.208-1.845-0.146
		c1.246,3.735,3.545,6.828,6.271,8.694c1.556,1.062,2.698,2.067,4.513,2.178c0.885,0.056,1.946,0.153,2.769-0.227
		c0.752-0.346,1.127-0.899,2.082-1.649c-0.043,0.11-0.086,0.222-0.135,0.33c-0.686,1.595-1.745,2.495-2.98,3.22
		c2.387,2.78,6.417,3.527,9.466,3.531c6.068,0.01,7.283-3.254,8.823-5.391c-0.56,2.229-1.26,3.567-2.755,5.167
		c4.388,0.022,9.597-1.36,11.408-2.424c3.64-2.142,5.999-4.665,6.761-9.936c0.062,4.032-0.86,5.587-1.702,8.048
		c7.507-4.201,9.817-8.382,10.727-12.705c0.08,1.074,0.21,1.999,1.168,2.721c-0.603-0.796-0.808-2.979-0.39-4.004
		c0.123,1.699,0.9,2.661,2.038,3.297c-1.062-1.382-1.448-2.386-1.318-4.415C66.197,42.987,67.56,43.338,68.922,43.391z"/>
	<path fill="#FFFFFF" d="M55.199,53.496c0.453-2.869,0.736-4.724-0.085-8.59c-0.079,1.167-0.256,2.268-0.532,3.293
		c-0.608,2.264-1.69,4.197-3.253,5.836c-2.124,2.22-4.624,3.84-12.174,4.905c0.551-1.504,0.812-2.48,0.92-3.377
		c0.065-0.565,0.071-1.097,0.049-1.714c-2.612,3.53-5.649,5.423-8.122,5.512c-6.77,0.249-8.857-1.958-8.878-1.981
		c0.958-1.233,1.434-2.07,1.769-3.018c0.264-0.732,0.443-1.534,0.698-2.639c-1.2,1.505-2.328,2.375-3.765,2.557
		c-2.427,0.313-7.89-0.988-11.343-8.422c0.082-0.019,0.163-0.039,0.244-0.062c2.107-0.529,3.533-1.774,4.489-3.141
		c-3.333,0.954-5.744,0.336-7.069-0.764c-1.064-0.885-5.927-7.62-1.772-14.247c2.427-3.345,5.094-4.4,7.562-4.46
		c1.773-0.044,3.645,1.878,5.048,4.423c-0.028-1.71,0.047-3.695-0.519-5.167c4.062,0,6.149,0.985,7.284,1.424
		c2.895,1.122,3.584,4.274,4.366,6.152c0.104-1.135,0.106-1.881,0.083-2.677c-0.016-0.706-0.055-1.453-0.064-2.546
		c9.022,2.108,10.237,6.94,12.199,9.787c0.277-1.531,0.265-3.16-0.386-5.14c2.065,0.549,4.643,1.758,6.138,3.189
		c3.383,3.244,4.457,4.122,5.799,3.791c-0.101-0.386-0.249-0.884-0.365-1.301c1.871,2.126,6.349,1.632,8.495,1.751
		c-13.685,8.728-31.257,9.667-48.077-1.297c14.876,13.723,33.331,13.56,49.054,3.75C62.99,47.53,55.959,52.823,55.199,53.496z"/>
</g>
</svg>
