<?xml version="1.0" encoding="utf-8"?>
<!-- Generator: Adobe Illustrator 16.0.1, SVG Export Plug-In . SVG Version: 6.00 Build 0)  -->
<!DOCTYPE svg PUBLIC "-//W3C//DTD SVG 1.1//EN" "http://www.w3.org/Graphics/SVG/1.1/DTD/svg11.dtd">
<svg version="1.1" id="Layer_1" xmlns="http://www.w3.org/2000/svg" xmlns:xlink="http://www.w3.org/1999/xlink" x="0px" y="0px"
	 width="81px" height="81px" viewBox="0 0 81 81" enable-background="new 0 0 81 81" xml:space="preserve">
<g>
	
		<path fill="#FFFFFF" stroke="#1D1D1B" stroke-width="7.6406" stroke-linecap="round" stroke-linejoin="round" stroke-miterlimit="10" d="
		M6.044,38.044c3.193-8.846,9.81-16.718,18.631-22.166c7.165-4.423,15.133-6.762,23.045-6.762c3.659,0,7.202,0.497,10.47,1.421
		c0.033,0.014,0.067,0.031,0.101,0.046c-2.337-0.032-5.695,0.308-9.954,1.743c-0.207-0.179-0.501-0.245-0.776-0.146
		c-4.761,1.693-9.713,4.438-14.72,8.157c-2.109,1.565-4.13,3.233-6.005,4.958c-0.215,0.196-0.294,0.487-0.234,0.752
		c-5.978,5.602-10.772,12.109-13.889,18.856c-2.467,5.339-3.46,9.885-3.589,12.594c-3.443-1.664-4.715-5.047-4.892-5.562
		C3.717,47.661,4.314,42.839,6.044,38.044z"/>
	
		<path fill="#FFFFFF" stroke="#1D1D1B" stroke-width="7.6406" stroke-linecap="round" stroke-linejoin="round" stroke-miterlimit="10" d="
		M6.634,59.402c-0.845-1.433-1.48-3.039-1.911-4.771c0.872,1.3,2.265,2.799,4.389,3.725c0.044,2.529,0.708,4.477,1.427,5.851
		C8.994,62.784,7.679,61.177,6.634,59.402z"/>
	
		<path fill="#FFFFFF" stroke="#1D1D1B" stroke-width="7.6406" stroke-linecap="round" stroke-linejoin="round" stroke-miterlimit="10" d="
		M57.246,63.666c-7.322,5.108-16.298,7.92-25.275,7.92c-7.505,0-14.182-1.984-19.148-5.527c-0.367-0.36-2.724-2.839-2.917-7.372
		c0.007,0.004,0.014,0.007,0.022,0.01c2.48,1.028,7.097,2.943,14.411,3.23c0.615,0.024,1.236,0.036,1.863,0.036
		c8.479,0,18.073-2.204,28.551-6.562c9.739-4.052,15.198-9.367,18.062-13.113c1.175-1.535,2.019-2.929,2.617-4.078
		C73.299,47.841,66.755,57.035,57.246,63.666z"/>
	
		<path fill="#FFFFFF" stroke="#1D1D1B" stroke-width="7.6406" stroke-linecap="round" stroke-linejoin="round" stroke-miterlimit="10" d="
		M75.999,34.812c-0.058,0.217-0.897,3.208-3.836,7.038c-2.807,3.656-8.157,8.851-17.711,12.824
		c-26.046,10.835-39.251,5.357-44.223,3.296c-0.116-0.048-0.227-0.095-0.333-0.138c0.121-4.579,3.385-18.233,17.24-31.209
		c0.074,0.022,0.151,0.034,0.23,0.034c0.19,0,0.38-0.069,0.531-0.208c1.835-1.686,3.813-3.318,5.878-4.854
		c4.882-3.625,9.697-6.295,14.311-7.936c0.271-0.097,0.454-0.327,0.507-0.59c8.349-2.81,13.219-1.266,13.269-1.249
		c0.033,0.011,0.065,0.015,0.098,0.018c4.452,1.843,8.176,4.557,10.668,7.923C75.477,23.609,76.652,28.906,75.999,34.812z"/>
	<g>
		<path fill="#FFFFFF" d="M47.297,15.417c-0.253,0-0.52-0.091-0.696-0.25c-0.144-0.13-0.215-0.292-0.199-0.456
			c0.014-0.151,0.102-0.288,0.241-0.374c0.14-0.085,0.319-0.042,0.405,0.097c0.064,0.103,0.055,0.232-0.011,0.325
			c0.076,0.046,0.191,0.074,0.284,0.067c-0.036-0.107-0.011-0.231,0.076-0.312c0.12-0.111,0.304-0.108,0.413,0.013
			c0.133,0.142,0.182,0.318,0.14,0.482c-0.044,0.169-0.181,0.303-0.376,0.367C47.489,15.404,47.395,15.417,47.297,15.417z"/>
		<path fill="#FFFFFF" d="M43.717,13.372c-0.183,0-0.365-0.043-0.508-0.129c-0.181-0.107-0.285-0.272-0.287-0.451
			c0-0.18,0.101-0.345,0.278-0.451c0.138-0.084,0.319-0.041,0.403,0.098c0.064,0.106,0.055,0.236-0.016,0.329
			c0.106,0.026,0.248,0.017,0.329-0.027c0.002-0.002,0.005-0.005,0.008-0.005c0.04-0.14,0.179-0.23,0.326-0.209
			c0.161,0.023,0.271,0.173,0.247,0.335c-0.022,0.16-0.127,0.299-0.293,0.392C44.065,13.332,43.891,13.372,43.717,13.372z"/>
		<path fill="#FFFFFF" d="M45.99,12.678c-1.111-0.627-1.842-0.793-2.299-0.526c-0.269,0.157-0.364,0.428-0.364,0.611
			c0,0.28,0.751,0.249,0.781,0.061c0.086-0.019,0.461-0.044,1.494,0.539c1.025,0.578,1.182,1.113,1.206,1.287
			c-0.026,0.12,0.115,0.262,0.324,0.32c0.213,0.061,0.414,0.012,0.448-0.11c0.004-0.014,0.005-0.027,0.004-0.042l0.005,0.001
			C47.608,14.702,47.722,13.657,45.99,12.678z"/>
		<path fill="#FFFFFF" d="M45.069,16.479c-0.253,0-0.521-0.091-0.697-0.249c-0.145-0.129-0.215-0.292-0.199-0.456
			c0.014-0.151,0.101-0.287,0.241-0.374c0.139-0.084,0.319-0.041,0.406,0.096c0.063,0.104,0.055,0.232-0.013,0.325
			c0.078,0.047,0.193,0.074,0.286,0.069c-0.036-0.108-0.011-0.232,0.075-0.313c0.12-0.111,0.304-0.108,0.413,0.012
			c0.133,0.142,0.183,0.318,0.139,0.483c-0.043,0.169-0.181,0.302-0.375,0.365C45.261,16.466,45.165,16.479,45.069,16.479z"/>
		<path fill="#FFFFFF" d="M41.488,14.433c-0.182,0-0.364-0.043-0.508-0.127c-0.181-0.108-0.286-0.272-0.287-0.452
			c0-0.179,0.101-0.342,0.278-0.451c0.139-0.085,0.32-0.04,0.404,0.1c0.064,0.105,0.055,0.234-0.015,0.328
			c0.105,0.027,0.246,0.018,0.327-0.028c0.004-0.002,0.007-0.003,0.009-0.005c0.04-0.139,0.18-0.23,0.326-0.208
			c0.161,0.023,0.271,0.173,0.247,0.333c-0.023,0.16-0.128,0.3-0.293,0.394C41.836,14.394,41.662,14.433,41.488,14.433z"/>
		<path fill="#FFFFFF" d="M43.761,13.741c-1.109-0.627-1.84-0.795-2.297-0.526c-0.271,0.157-0.364,0.427-0.364,0.611
			c0,0.28,0.751,0.248,0.78,0.061c0.086-0.019,0.462-0.045,1.494,0.538c1.025,0.58,1.183,1.114,1.206,1.288
			c-0.026,0.121,0.115,0.262,0.325,0.321c0.212,0.061,0.414,0.01,0.448-0.111c0.003-0.014,0.004-0.027,0.003-0.042l0.004,0.001
			C45.38,15.765,45.493,14.719,43.761,13.741z"/>
		<path fill="#FFFFFF" d="M40.789,18.742c-0.253,0-0.52-0.091-0.697-0.249c-0.144-0.13-0.215-0.292-0.2-0.456
			c0.014-0.151,0.102-0.287,0.242-0.374c0.138-0.084,0.32-0.042,0.405,0.097c0.064,0.104,0.056,0.232-0.011,0.325
			c0.078,0.046,0.192,0.074,0.285,0.069c-0.037-0.108-0.011-0.233,0.077-0.313c0.12-0.111,0.301-0.107,0.414,0.011
			c0.131,0.142,0.182,0.319,0.139,0.483c-0.045,0.169-0.182,0.302-0.376,0.366C40.98,18.729,40.886,18.742,40.789,18.742z"/>
		<path fill="#FFFFFF" d="M37.208,16.696c-0.181,0-0.364-0.042-0.507-0.128c-0.181-0.108-0.286-0.273-0.286-0.452
			c-0.001-0.179,0.1-0.343,0.277-0.451c0.139-0.084,0.32-0.04,0.404,0.1c0.064,0.105,0.054,0.234-0.015,0.327
			c0.106,0.028,0.247,0.019,0.328-0.027c0.004-0.002,0.006-0.003,0.009-0.005c0.04-0.14,0.178-0.231,0.326-0.208
			c0.161,0.024,0.271,0.174,0.248,0.334s-0.128,0.299-0.294,0.393C37.556,16.656,37.382,16.696,37.208,16.696z"/>
		<path fill="#FFFFFF" d="M39.48,16.004c-1.11-0.627-1.84-0.794-2.297-0.526c-0.269,0.156-0.364,0.426-0.364,0.611
			c0,0.279,0.751,0.248,0.781,0.06c0.086-0.019,0.462-0.045,1.495,0.539c1.025,0.58,1.182,1.113,1.205,1.287
			c-0.025,0.121,0.116,0.262,0.325,0.322c0.213,0.06,0.415,0.01,0.448-0.112c0.005-0.014,0.005-0.028,0.005-0.042l0.004,0
			C41.1,18.028,41.213,16.981,39.48,16.004z"/>
		<path fill="#FFFFFF" d="M38.884,20.01c-0.252,0-0.52-0.091-0.696-0.25c-0.144-0.13-0.215-0.291-0.2-0.455
			c0.014-0.151,0.102-0.288,0.242-0.374c0.139-0.086,0.32-0.042,0.405,0.096c0.064,0.104,0.056,0.232-0.011,0.325
			c0.078,0.047,0.192,0.073,0.285,0.068c-0.037-0.108-0.011-0.232,0.077-0.314c0.12-0.11,0.303-0.106,0.413,0.014
			c0.131,0.141,0.183,0.317,0.139,0.482c-0.043,0.169-0.181,0.303-0.375,0.366C39.076,19.997,38.982,20.01,38.884,20.01z"/>
		<path fill="#FFFFFF" d="M35.303,17.964c-0.182,0-0.364-0.043-0.508-0.129c-0.181-0.106-0.286-0.271-0.286-0.451
			c-0.001-0.178,0.1-0.343,0.277-0.45c0.139-0.084,0.32-0.042,0.404,0.098c0.064,0.106,0.055,0.236-0.015,0.329
			c0.106,0.027,0.247,0.017,0.327-0.027c0.003-0.002,0.006-0.005,0.009-0.006c0.04-0.139,0.178-0.231,0.326-0.209
			c0.161,0.024,0.271,0.174,0.248,0.335c-0.023,0.16-0.128,0.299-0.293,0.393C35.652,17.925,35.478,17.964,35.303,17.964z"/>
		<path fill="#FFFFFF" d="M37.576,17.271c-1.11-0.627-1.84-0.794-2.297-0.527c-0.269,0.158-0.364,0.429-0.364,0.612
			c0,0.279,0.751,0.249,0.781,0.061c0.086-0.019,0.462-0.044,1.495,0.539c1.025,0.578,1.182,1.113,1.205,1.288
			c-0.025,0.12,0.117,0.261,0.325,0.32c0.214,0.061,0.415,0.011,0.449-0.111c0.003-0.014,0.004-0.027,0.004-0.043l0.004,0.001
			C39.195,19.294,39.309,18.25,37.576,17.271z"/>
		<path fill="#FFFFFF" d="M36.97,21.394c-0.253,0-0.52-0.091-0.696-0.25c-0.145-0.129-0.215-0.291-0.201-0.456
			c0.014-0.149,0.102-0.286,0.242-0.373c0.138-0.084,0.32-0.042,0.405,0.097c0.064,0.104,0.056,0.231-0.011,0.325
			c0.077,0.047,0.192,0.073,0.285,0.068c-0.037-0.108-0.012-0.232,0.076-0.313c0.12-0.11,0.302-0.107,0.413,0.012
			c0.131,0.142,0.182,0.318,0.139,0.483c-0.044,0.168-0.181,0.302-0.375,0.365C37.162,21.38,37.066,21.394,36.97,21.394z"/>
		<path fill="#FFFFFF" d="M33.389,19.348c-0.182,0-0.364-0.043-0.508-0.127c-0.182-0.108-0.286-0.272-0.287-0.453
			c-0.001-0.179,0.101-0.343,0.277-0.451c0.139-0.084,0.32-0.04,0.404,0.1c0.064,0.105,0.054,0.235-0.015,0.328
			c0.106,0.026,0.247,0.018,0.327-0.028c0.003-0.002,0.007-0.003,0.009-0.005c0.041-0.139,0.179-0.23,0.326-0.208
			c0.161,0.024,0.272,0.174,0.248,0.334c-0.024,0.16-0.128,0.3-0.294,0.394C33.737,19.309,33.563,19.348,33.389,19.348z"/>
		<path fill="#FFFFFF" d="M35.662,18.656c-1.111-0.627-1.841-0.794-2.298-0.527C33.095,18.286,33,18.556,33,18.74
			c0,0.28,0.75,0.248,0.78,0.06c0.086-0.019,0.462-0.043,1.495,0.54c1.025,0.579,1.182,1.113,1.206,1.286
			c-0.027,0.12,0.116,0.263,0.324,0.322c0.213,0.06,0.414,0.01,0.448-0.111c0.004-0.013,0.005-0.028,0.004-0.042h0.004
			C37.281,20.68,37.395,19.634,35.662,18.656z"/>
		<path fill="#FFFFFF" d="M34.978,22.798c-0.253,0-0.52-0.09-0.697-0.25c-0.144-0.129-0.215-0.291-0.2-0.455
			c0.014-0.151,0.102-0.288,0.242-0.374c0.139-0.085,0.32-0.042,0.405,0.096c0.064,0.105,0.056,0.232-0.011,0.327
			c0.078,0.045,0.193,0.073,0.285,0.067c-0.037-0.108-0.011-0.232,0.078-0.313c0.119-0.111,0.302-0.106,0.413,0.012
			c0.131,0.143,0.182,0.319,0.139,0.484c-0.044,0.168-0.181,0.302-0.375,0.365C35.169,22.785,35.074,22.798,34.978,22.798z"/>
		<path fill="#FFFFFF" d="M31.396,20.752c-0.181,0-0.363-0.043-0.507-0.127c-0.181-0.106-0.285-0.273-0.286-0.452
			s0.1-0.343,0.277-0.45c0.14-0.085,0.32-0.041,0.405,0.099c0.064,0.105,0.054,0.235-0.015,0.329
			c0.106,0.025,0.246,0.017,0.327-0.028c0.004-0.003,0.007-0.005,0.009-0.006c0.041-0.14,0.179-0.23,0.326-0.208
			c0.161,0.024,0.272,0.174,0.248,0.335c-0.023,0.16-0.127,0.299-0.293,0.393C31.744,20.713,31.571,20.752,31.396,20.752z"/>
		<path fill="#FFFFFF" d="M33.669,20.06c-1.11-0.626-1.84-0.794-2.297-0.526c-0.269,0.157-0.364,0.427-0.364,0.611
			c0,0.28,0.751,0.248,0.781,0.06c0.085-0.019,0.462-0.043,1.494,0.539c1.025,0.58,1.182,1.115,1.205,1.287
			c-0.025,0.121,0.117,0.264,0.325,0.322c0.214,0.06,0.415,0.01,0.449-0.112c0.004-0.013,0.004-0.027,0.004-0.042h0.004
			C35.288,22.084,35.401,21.039,33.669,20.06z"/>
		<path fill="#FFFFFF" d="M31.089,25.903c-0.252,0-0.52-0.091-0.696-0.25c-0.144-0.129-0.214-0.291-0.2-0.455
			c0.014-0.151,0.102-0.287,0.242-0.373c0.139-0.086,0.32-0.043,0.405,0.094c0.064,0.105,0.056,0.232-0.011,0.327
			c0.078,0.046,0.192,0.072,0.285,0.067c-0.037-0.106-0.012-0.232,0.076-0.313c0.119-0.11,0.303-0.106,0.413,0.012
			c0.131,0.143,0.182,0.318,0.139,0.483c-0.044,0.169-0.181,0.302-0.375,0.365C31.281,25.89,31.187,25.903,31.089,25.903z"/>
		<path fill="#FFFFFF" d="M27.509,23.856c-0.182,0-0.364-0.042-0.508-0.127c-0.181-0.108-0.286-0.272-0.287-0.453
			c-0.001-0.179,0.101-0.342,0.277-0.45c0.139-0.084,0.32-0.04,0.404,0.099c0.063,0.105,0.054,0.235-0.015,0.329
			c0.106,0.026,0.247,0.017,0.328-0.029c0.002-0.002,0.006-0.004,0.008-0.005c0.04-0.139,0.178-0.231,0.326-0.209
			c0.161,0.024,0.271,0.174,0.248,0.334c-0.024,0.16-0.129,0.3-0.295,0.393C27.857,23.818,27.683,23.856,27.509,23.856z"/>
		<path fill="#FFFFFF" d="M29.781,23.165c-1.11-0.626-1.84-0.793-2.297-0.527c-0.269,0.158-0.364,0.428-0.364,0.611
			c0,0.281,0.751,0.248,0.781,0.062c0.086-0.02,0.462-0.044,1.495,0.538c1.025,0.58,1.182,1.115,1.206,1.288
			c-0.026,0.12,0.116,0.263,0.324,0.321c0.213,0.061,0.414,0.011,0.448-0.111c0.004-0.014,0.004-0.028,0.004-0.042h0.004
			C31.401,25.188,31.514,24.143,29.781,23.165z"/>
		<path fill="#FFFFFF" d="M33.043,24.302c-0.252,0-0.521-0.089-0.697-0.249c-0.144-0.13-0.215-0.292-0.2-0.456
			c0.014-0.15,0.102-0.286,0.242-0.373c0.139-0.085,0.32-0.042,0.405,0.097c0.064,0.103,0.056,0.231-0.011,0.325
			c0.077,0.046,0.192,0.073,0.285,0.067c-0.037-0.107-0.011-0.232,0.077-0.313c0.12-0.11,0.303-0.106,0.414,0.013
			c0.131,0.142,0.182,0.317,0.139,0.483c-0.044,0.169-0.182,0.303-0.375,0.365C33.234,24.29,33.141,24.302,33.043,24.302z"/>
		<path fill="#FFFFFF" d="M29.462,22.257c-0.182,0-0.364-0.042-0.508-0.128c-0.181-0.107-0.286-0.272-0.286-0.453
			c-0.001-0.178,0.1-0.342,0.277-0.45c0.139-0.084,0.32-0.041,0.405,0.099c0.063,0.104,0.054,0.235-0.016,0.329
			c0.105,0.025,0.247,0.017,0.328-0.029c0.003-0.001,0.006-0.004,0.009-0.005c0.041-0.139,0.179-0.232,0.326-0.209
			c0.161,0.024,0.271,0.174,0.247,0.334c-0.023,0.16-0.128,0.3-0.293,0.393C29.811,22.218,29.637,22.257,29.462,22.257z"/>
		<path fill="#FFFFFF" d="M31.735,21.564c-1.11-0.626-1.84-0.793-2.297-0.527c-0.27,0.157-0.364,0.428-0.364,0.611
			c0,0.281,0.751,0.249,0.78,0.061c0.086-0.019,0.463-0.044,1.495,0.539c1.025,0.579,1.182,1.114,1.205,1.287
			c-0.026,0.121,0.116,0.263,0.324,0.321c0.214,0.06,0.414,0.01,0.449-0.11c0.004-0.014,0.004-0.028,0.004-0.043l0.003,0.001
			C33.354,23.588,33.468,22.543,31.735,21.564z"/>
		<path fill="#FFFFFF" d="M42.88,17.583c-0.252,0-0.521-0.091-0.696-0.25c-0.145-0.131-0.216-0.292-0.201-0.457
			c0.015-0.151,0.102-0.287,0.242-0.373c0.139-0.086,0.32-0.042,0.405,0.096c0.064,0.104,0.057,0.232-0.012,0.325
			c0.078,0.046,0.193,0.074,0.286,0.069c-0.037-0.108-0.013-0.232,0.076-0.314c0.12-0.11,0.303-0.107,0.413,0.013
			c0.132,0.141,0.183,0.318,0.139,0.482c-0.044,0.169-0.181,0.302-0.375,0.366C43.071,17.568,42.977,17.583,42.88,17.583z"/>
		<path fill="#FFFFFF" d="M39.299,15.536c-0.182,0-0.364-0.043-0.508-0.128c-0.181-0.107-0.286-0.272-0.287-0.452
			c-0.001-0.178,0.101-0.343,0.278-0.451c0.139-0.084,0.319-0.04,0.404,0.099c0.063,0.105,0.054,0.235-0.016,0.328
			c0.107,0.028,0.247,0.018,0.328-0.027c0.003-0.002,0.006-0.003,0.008-0.005c0.04-0.139,0.178-0.231,0.326-0.209
			c0.161,0.024,0.272,0.175,0.248,0.334c-0.024,0.16-0.129,0.3-0.294,0.393C39.647,15.497,39.473,15.536,39.299,15.536z"/>
		<path fill="#FFFFFF" d="M41.57,14.845c-1.109-0.627-1.839-0.795-2.296-0.528c-0.27,0.158-0.364,0.428-0.364,0.611
			c0,0.28,0.751,0.249,0.78,0.061c0.086-0.019,0.462-0.044,1.495,0.539c1.025,0.578,1.182,1.113,1.205,1.287
			c-0.025,0.121,0.116,0.263,0.324,0.321c0.214,0.061,0.414,0.01,0.449-0.111c0.003-0.014,0.004-0.028,0.003-0.042l0.004,0.001
			C43.189,16.867,43.304,15.822,41.57,14.845z"/>
	</g>
</g>
</svg>
