<?xml version="1.0" encoding="UTF-8" standalone="no"?>
<svg
   xmlns:dc="http://purl.org/dc/elements/1.1/"
   xmlns:cc="http://creativecommons.org/ns#"
   xmlns:rdf="http://www.w3.org/1999/02/22-rdf-syntax-ns#"
   xmlns:svg="http://www.w3.org/2000/svg"
   xmlns="http://www.w3.org/2000/svg"
   xmlns:sodipodi="http://sodipodi.sourceforge.net/DTD/sodipodi-0.dtd"
   xmlns:inkscape="http://www.inkscape.org/namespaces/inkscape"
   version="1.1"
   x="0px"
   y="0px"
   viewBox="0 0 100 101.36250000000001"
   enable-background="new 0 0 100 81.09"
   xml:space="preserve"
   id="svg2"
   inkscape:version="0.91 r13725"
   sodipodi:docname="photo.svg"><metadata
     id="metadata14"><rdf:RDF><cc:Work
         rdf:about=""><dc:format>image/svg+xml</dc:format><dc:type
           rdf:resource="http://purl.org/dc/dcmitype/StillImage" /></cc:Work></rdf:RDF></metadata><defs
     id="defs12" /><sodipodi:namedview
     pagecolor="#ffffff"
     bordercolor="#000"
     borderopacity="1"
     objecttolerance="10"
     gridtolerance="10"
     guidetolerance="10"
     inkscape:pageopacity="0"
     inkscape:pageshadow="2"
     inkscape:window-width="814"
     inkscape:window-height="1041"
     id="namedview10"
     showgrid="false"
     inkscape:zoom="2.7071338"
     inkscape:cx="41.920432"
     inkscape:cy="31.272123"
     inkscape:window-x="1102"
     inkscape:window-y="18"
     inkscape:window-maximized="0"
     inkscape:current-layer="svg2" /><path
     d="m 50.429502,42.668553 c -9.312,0.01 -16.845,7.544 -16.858,16.859 0.014,9.308 7.546,16.836 16.858,16.854 9.306,-0.019 16.839,-7.547 16.859,-16.854 -0.02,-9.315 -7.553,-16.849 -16.859,-16.859 z m 45.042,-13.975 -17.204,0 -1.332,-15.327 c 0,-1.447 -1.178,-2.629 -2.635,-2.629 l -47.742,0 c -1.457,0 -2.631,1.182 -2.631,2.629 l -1.333,15.326 -2.964,0 0,-3.429 c 0,-1.2 -0.974,-2.17 -2.174,-2.17 l -9.7299999,0 c -1.2,0 -2.174,0.971 -2.174,2.17 l 0,3.429 -0.165,0 c -2.735,0.001 -4.95799997,2.215 -4.95799997,4.951 l 0,53.227 c 0,2.741 2.22199997,4.958 4.95799997,4.958 l 90.0839999,0 c 2.738,0 4.957998,-2.217 4.957998,-4.958 l 0,-53.227 c 0,-2.736 -2.219998,-4.95 -4.957998,-4.95 z m -82.857,20.836 c -3.3999999,0 -6.1569999,-2.758 -6.1569999,-6.162 0,-3.401 2.756,-6.158 6.1569999,-6.158 3.405,0 6.157,2.757 6.157,6.158 0,3.404 -2.752,6.162 -6.157,6.162 z m 24.965,-31.999 25.697,0 c 1.584,0 2.864,1.287 2.864,2.862 0,1.583 -1.282,2.866 -2.864,2.866 l -25.697,0 c -1.575,0 -2.859,-1.284 -2.859,-2.866 0,-1.574 1.284,-2.862 2.859,-2.862 z m 12.85,66.486 c -13.532,0 -24.49,-10.961 -24.497,-24.489 0.006,-13.536 10.965,-24.498 24.497,-24.498 13.528,0 24.489,10.962 24.493,24.497 -0.004,13.529 -10.965,24.49 -24.493,24.49 z"
     id="path4"
     inkscape:connector-curvature="0"
     style="fill:none;stroke:#ffffff;stroke-width:5;" /><ellipse
     style="fill:none"
     id="path4142"
     cx="50.298252"
     cy="59.638481"
     rx="16.48596"
     ry="16.808086" /></svg>
