<?xml version="1.0" encoding="UTF-8" standalone="no"?>
<svg
   xmlns:dc="http://purl.org/dc/elements/1.1/"
   xmlns:cc="http://creativecommons.org/ns#"
   xmlns:rdf="http://www.w3.org/1999/02/22-rdf-syntax-ns#"
   xmlns:svg="http://www.w3.org/2000/svg"
   xmlns="http://www.w3.org/2000/svg"
   xmlns:xlink="http://www.w3.org/1999/xlink"
   xmlns:sodipodi="http://sodipodi.sourceforge.net/DTD/sodipodi-0.dtd"
   xmlns:inkscape="http://www.inkscape.org/namespaces/inkscape"
   enable-background="new 0 0 55 55"
   height="55px"
   id="Layer_1"
   style=""
   version="1.1"
   viewBox="0 0 55 55"
   width="55px"
   x="0px"
   xml:space="preserve"
   y="0px"
   inkscape:version="0.91 r13725"
   sodipodi:docname="android-preferences.svg"><metadata
     id="metadata14783"><rdf:RDF><cc:Work
         rdf:about=""><dc:format>image/svg+xml</dc:format><dc:type
           rdf:resource="http://purl.org/dc/dcmitype/StillImage" /><dc:title></dc:title></cc:Work></rdf:RDF></metadata><defs
     id="defs14781" /><sodipodi:namedview
     pagecolor="#ffffff"
     bordercolor="#666666"
     borderopacity="1"
     objecttolerance="10"
     gridtolerance="10"
     guidetolerance="10"
     inkscape:pageopacity="0"
     inkscape:pageshadow="2"
     inkscape:window-width="1596"
     inkscape:window-height="861"
     id="namedview14779"
     showgrid="false"
     inkscape:zoom="1.5170655"
     inkscape:cx="70.314702"
     inkscape:cy="-34.029728"
     inkscape:window-x="0"
     inkscape:window-y="18"
     inkscape:window-maximized="0"
     inkscape:current-layer="Layer_1" /><g
     display="block"
     id="preferences-system"
     style=""><path
       d="M51.103,50.895c-2.343,2.343-6.143,2.343-8.485,0L19.813,28.091c-2.343-2.343-2.343-6.143,0-8.485l0,0   c2.343-2.343,6.143-2.343,8.485,0l22.804,22.804C53.445,44.752,53.445,48.552,51.103,50.895L51.103,50.895z"
       fill="#ffffff"
       style=""
       id="path14771" /><g
       style=""
       id="g14773"><g
         style=""
         id="g14775"><path
           d="M17.813,2.254c-0.804,0-1.587,0.081-2.358,0.2l10.557,10.558L13.22,25.804L2.662,15.246     c-0.119,0.771-0.2,1.555-0.2,2.36c0,8.479,6.873,15.352,15.351,15.352s15.351-6.873,15.351-15.352     C33.164,9.127,26.291,2.254,17.813,2.254z"
           fill="#ffffff"
           style=""
           id="path14777" /></g></g></g><g
     id="g14946"
     transform="matrix(0.06821282,0,0,0.06821282,42.532595,35.128702)"><g
       id="g14915"
       style="fill:#a4c639"><use
         id="use14917"
         xlink:href="#b"
         style="stroke:#ffffff;stroke-width:14.39999962"
         x="0"
         y="0"
         width="100%"
         height="100%" /><use
         id="use14919"
         transform="scale(-1,1)"
         xlink:href="#a"
         x="0"
         y="0"
         width="100%"
         height="100%" /><g
         id="a"
         style="stroke:#ffffff;stroke-width:7.19999981"><rect
           id="rect14922"
           x="14"
           y="-86"
           width="13"
           height="86"
           transform="matrix(0.87461971,0.48480962,-0.48480962,0.87461971,0,0)"
           rx="6.5" /><rect
           x="-143"
           y="41"
           width="48"
           height="133"
           rx="24"
           id="c" /><use
           id="use14925"
           xlink:href="#c"
           x="85"
           y="97"
           width="100%"
           height="100%" /></g><g
         id="b"><ellipse
           id="ellipse14928"
           ry="84"
           rx="91"
           cy="41"
           cx="0" /><rect
           id="rect14930"
           x="-91"
           y="20"
           width="182"
           height="182"
           rx="22" /></g></g><g
       id="g14932"
       style="fill:#ffffff;stroke:#ffffff;stroke-width:7.19999981"><path
         id="path14934"
         d="m -95,44.5 190,0"
         inkscape:connector-curvature="0" /><circle
         id="circle14936"
         r="4"
         cx="-42"
         cy="0" /><circle
         id="circle14938"
         r="4"
         cx="42"
         cy="0" /></g></g></svg>