<?xml version="1.0" ?><!DOCTYPE svg  PUBLIC '-//W3C//DTD SVG 1.1//EN'  'http://www.w3.org/Graphics/SVG/1.1/DTD/svg11.dtd' [
	<!ENTITY stroke_color "#666666">
	<!ENTITY fill_color "#ffffff">
]>
<svg
   xmlns:dc="http://purl.org/dc/elements/1.1/"
   xmlns:cc="http://creativecommons.org/ns#"
   xmlns:rdf="http://www.w3.org/1999/02/22-rdf-syntax-ns#"
   xmlns:svg="http://www.w3.org/2000/svg"
   xmlns="http://www.w3.org/2000/svg"
   version="1.1"
   id="Layer_1"
   x="0px"
   y="0px"
   width="55"
   height="55"
   viewBox="0 0 281.6 281.6"
   enable-background="new 0 0 512 512"
   xml:space="preserve">
   <g
     id="g2988"
     transform="matrix(0.55,0,0,0.55,0,-44.017492)"><path
       id="path3"
	   style="fill:&stroke_color;"
       d="m 270,112 c 52.531,0 95.125,41.5 97.531,93.438 C 372.313,204.75 377.063,204 382,204 c 54.125,0 98,43.875 98,98 0,54.125 -43.875,98 -98,98 l -266,0 C 69.625,400 32,362.406 32,316 32,276.469 59.438,243.5 96.25,234.562 96.219,233.688 96,232.875 96,232 c 0,-30.938 25.063,-56 56,-56 8.875,0 17.125,2.25 24.563,5.906 C 188.719,141.563 225.719,112 270,112 m 0,-32 C 223,80 181.125,104.875 158.25,144.25 156.187,144.062 154.094,144 152,144 110.625,144 75.812,172.75 66.437,211.313 26.406,230.125 0,270.406 0,316 0,379.969 52.031,432 116,432 l 266,0 C 453.688,432 512,373.687 512,302 512,234.437 460.187,178.75 394.187,172.562 378.156,118.75 328.531,80 270,80 l 0,0 z"
/><path
       transform="scale(5.12,5.12)"
       id="path2986"
	   style="fill:&fill_color;;fill-opacity:1;stroke:&stroke_color;;stroke-width:6.50847483;stroke-miterlimit:4;stroke-opacity:1;stroke-dasharray:none"
       d="M 19.510721,77.503237 C 13.136228,76.253674 7.8442867,70.714648 6.7736451,64.171458 5.6864569,57.527143 9.3017381,50.499017 15.36545,47.468945 c 1.411585,-0.705378 2.82208,-1.282504 3.134432,-1.282504 0.373035,0 0.569335,-0.545259 0.572054,-1.588983 0.0095,-3.653457 3.088983,-7.74981 6.928224,-9.216029 1.893338,-0.723073 5.465422,-0.730584 7.690026,-0.01617 0.717229,0.230333 1.039581,-0.123297 2.048069,-2.246799 3.559598,-7.495197 11.685191,-11.947783 19.564948,-10.721019 8.432971,1.312892 14.618742,7.571453 16.078623,16.267813 l 0.266746,1.588983 3.052831,0.0046 c 5.309673,0.008 9.838567,1.953536 13.459347,5.781978 5.780237,6.111746 6.886284,15.259447 2.707229,22.390467 -1.533996,2.617564 -4.713119,5.704636 -7.356153,7.143152 -4.225131,2.299606 -5.435729,2.380484 -34.994877,2.337899 -14.915254,-0.02148 -27.968057,-0.205576 -29.006228,-0.409081 l 0,0 z" /></g><path
     d="m 133.41131,118.33402 c -4.84162,-1.95055 -7.17241,-8.73475 -4.98108,-14.4984 2.71557,-7.142482 9.78542,-9.197442 16.502,-4.796572 11.79093,7.725722 1.70215,24.622172 -11.52092,19.294972 z"
     id="path3037"
style="fill:&stroke_color;;fill-opacity:1;stroke:&stroke_color;;stroke-width:1.27118647;stroke-miterlimit:4;stroke-opacity:1;stroke-dasharray:none"
	 />
	 <g
     id="g4263"
     transform="translate(-231.64339,104.31622)"><line
       id="line4217"
       y2="162.97459"
       y1="100.69492"
       x2="375.77832"
       x1="375.77832"
       style="fill:none;stroke:#ffffff;stroke-width:15.29190445;stroke-linecap:round;stroke-linejoin:round" /><polyline
       transform="matrix(5.12,0,0,5.12,290.20776,69.97492)"
       id="polyline4219"
       points="     11.583,12.083 16.713,6 21.843,12.083    "
       style="fill:none;stroke:#ffffff;stroke-width:2.98670006;stroke-linecap:round;stroke-linejoin:round" /></g></svg>
