<?xml version="1.0" ?><!DOCTYPE svg  PUBLIC '-//W3C//DTD SVG 1.1\//EN'  'http://www.w3.org/Graphics/SVG/1.1/DTD/svg11.dtd' [
<!ENTITY stroke_color "#010101">
<!ENTITY fill_color "#ffffff">
]>
<svg enable-background="new 0 0 55 55" height="55px" id="Layer_1" version="1.1" viewBox="0 0 55 55" width="55px" x="0px" xml:space="preserve" y="0px"
   xmlns:dc="http://purl.org/dc/elements/1.1/"
   xmlns:cc="http://creativecommons.org/ns#"
   xmlns:rdf="http://www.w3.org/1999/02/22-rdf-syntax-ns#"
   xmlns:svg="http://www.w3.org/2000/svg"
   xmlns="http://www.w3.org/2000/svg"
   xmlns:xlink="http://www.w3.org/1999/xlink"
   xmlns:sodipodi="http://sodipodi.sourceforge.net/DTD/sodipodi-0.dtd"
   xmlns:inkscape="http://www.inkscape.org/namespaces/inkscape"
   inkscape:version="0.91 r13725"
   sodipodi:docname="network-wireless-locked-100.svg"><metadata
     id="metadata12381"><rdf:RDF><cc:Work
         rdf:about=""><dc:format>image/svg+xml</dc:format><dc:type
           rdf:resource="http://purl.org/dc/dcmitype/StillImage" /><dc:title></dc:title></cc:Work></rdf:RDF></metadata><defs
     id="defs12379" /><sodipodi:namedview
     pagecolor="#ffffff"
     bordercolor="#666666"
     borderopacity="1"
     objecttolerance="10"
     gridtolerance="10"
     guidetolerance="10"
     inkscape:pageopacity="0"
     inkscape:pageshadow="2"
     inkscape:window-width="1596"
     inkscape:window-height="861"
     id="namedview12377"
     showgrid="false"
     inkscape:zoom="4.2909091"
     inkscape:cx="-3.2627119"
     inkscape:cy="-0.46610169"
     inkscape:window-x="0"
     inkscape:window-y="18"
     inkscape:window-maximized="0"
     inkscape:current-layer="Layer_1" /><g
     display="block"
     id="network-wireless-100"><g
       display="inline"
       id="g12363"><g
         id="g12365"><defs
           id="defs12367"><rect
             height="45"
             id="SVGID_11_"
             width="45"
             x="4.875"
             y="5" /></defs><clipPath
           id="SVGID_12_"><use
             overflow="visible"
             xlink:href="#SVGID_11_"
             id="use12371" /></clipPath><path
           clip-path="url(#SVGID_12_)"
           d="M46.375,27.498c0,10.494-8.507,19.002-19,19.002s-19-8.508-19-19.002     c0-10.49,8.507-18.998,19-18.998S46.375,17.003,46.375,27.498z"
           fill="#ffffff"
           id="path12373" /></g></g><path
	   d="   M46.375,27.498c0,10.494-8.507,19.002-19,19.002s-19-8.508-19-19.002c0-10.49,8.507-18.998,19-18.998S46.375,17.003,46.375,27.498z   "
	   display="inline" fill="&stroke_color;" stroke="&stroke_color;" stroke-linecap="round" stroke-linejoin="round" stroke-width="3.5"
       id="path12375" /></g><g
     id="g16775"
     transform="translate(33.0002,31)"><g
       style="display:inline"
       id="layer9"
       transform="translate(-361.0002,-177)"
       inkscape:label="status"><g
         style="fill:#bebebe;fill-opacity:1"
         id="g4211"
         transform="translate(341.0002,-99)"
         inkscape:label="lock" /><path
         style="color:#bebebe;display:inline;overflow:visible;visibility:visible;fill:#bebebe;fill-opacity:1;fill-rule:nonzero;stroke:none;stroke-width:2;marker:none"
         sodipodi:nodetypes="csccccscc"
         id="path4215"
         d="m 364,184 c -0.554,0 -1,0.446 -1,1 l 0,0.53125 0,5.46875 12,0 0,-5.46875 L 375,185 c 0,-0.554 -0.446,-1 -1,-1 l -10,0 z"
         inkscape:connector-curvature="0" /><path
         style="color:#bebebe;font-style:normal;font-variant:normal;font-weight:normal;font-stretch:normal;font-size:medium;line-height:normal;font-family:Sans;-inkscape-font-specification:Sans;text-indent:0;text-align:start;text-decoration:none;text-decoration-line:none;letter-spacing:normal;word-spacing:normal;text-transform:none;direction:ltr;block-progression:tb;writing-mode:lr-tb;baseline-shift:baseline;text-anchor:start;display:inline;overflow:visible;visibility:visible;fill:#bebebe;fill-opacity:1;stroke:none;stroke-width:2;marker:none;enable-background:accumulate"
         id="rect4217"
         d="m 368,178 c -1.6447,0 -3,1.3553 -3,3 l 0,7 c 0,1.6447 1.3553,3 3,3 l 2,0 c 1.6447,0 3,-1.3553 3,-3 l 0,-7 c 0,-1.6447 -1.3553,-3 -3,-3 l -2,0 z m 0,2 2,0 c 0.5713,0 1,0.4287 1,1 l 0,7 c 0,0.5713 -0.4287,1 -1,1 l -2,0 c -0.5713,0 -1,-0.4287 -1,-1 l 0,-7 c 0,-0.5713 0.4287,-1 1,-1 z"
         inkscape:connector-curvature="0" /></g><g
       id="layer10"
       transform="translate(-361.0002,-177)"
       inkscape:label="devices" /><g
       id="layer11"
       transform="translate(-361.0002,-177)"
       inkscape:label="apps" /><g
       id="layer12"
       transform="translate(-361.0002,-177)"
       inkscape:label="actions" /><g
       id="layer13"
       transform="translate(-361.0002,-177)"
       inkscape:label="places" /><g
       id="layer14"
       transform="translate(-361.0002,-177)"
       inkscape:label="mimetypes" /><g
       style="display:inline"
       id="layer15"
       transform="translate(-361.0002,-177)"
       inkscape:label="emblems" /><g
       style="display:inline"
       id="g4953"
       transform="translate(-361.0002,-177)"
       inkscape:label="categories" /></g></svg>
