<?xml version="1.0" ?><!DOCTYPE svg  PUBLIC '-//W3C//DTD SVG 1.1//EN'  'http://www.w3.org/Graphics/SVG/1.1/DTD/svg11.dtd' [
<!ENTITY stroke_color "#010101">
<!ENTITY fill_color "#ffffff">
]>
<svg
   xmlns:dc="http://purl.org/dc/elements/1.1/"
   xmlns:cc="http://creativecommons.org/ns#"
   xmlns:rdf="http://www.w3.org/1999/02/22-rdf-syntax-ns#"
   xmlns:svg="http://www.w3.org/2000/svg"
   xmlns="http://www.w3.org/2000/svg"
   xmlns:xlink="http://www.w3.org/1999/xlink"
   xmlns:sodipodi="http://sodipodi.sourceforge.net/DTD/sodipodi-0.dtd"
   xmlns:inkscape="http://www.inkscape.org/namespaces/inkscape"
   enable-background="new 0 0 55 55"
   height="55px"
   id="Layer_1"
   version="1.1"
   viewBox="0 0 55 55"
   width="55px"
   x="0px"
   xml:space="preserve"
   y="0px"
   inkscape:version="0.91 r13725"
   sodipodi:docname="network-wireless-locked-060.svg"><metadata
     id="metadata18376"><rdf:RDF><cc:Work
         rdf:about=""><dc:format>image/svg+xml</dc:format><dc:type
           rdf:resource="http://purl.org/dc/dcmitype/StillImage" /><dc:title></dc:title></cc:Work></rdf:RDF></metadata><defs
     id="defs18374" /><sodipodi:namedview
     pagecolor="#ffffff"
     bordercolor="#666666"
     borderopacity="1"
     objecttolerance="10"
     gridtolerance="10"
     guidetolerance="10"
     inkscape:pageopacity="0"
     inkscape:pageshadow="2"
     inkscape:window-width="1596"
     inkscape:window-height="861"
     id="namedview18372"
     showgrid="false"
     inkscape:zoom="4.2909091"
     inkscape:cx="-3.2627119"
     inkscape:cy="27.5"
     inkscape:window-x="0"
     inkscape:window-y="18"
     inkscape:window-maximized="0"
     inkscape:current-layer="Layer_1" /><g
     display="block"
     id="network-wireless-060"><path
     d="M46.375,27.498c0,10.494-8.507,19.002-19,19.002s-19-8.508-19-19.002   c0-10.49,8.507-18.998,19-18.998S46.375,17.003,46.375,27.498z"
     display="inline" fill="&stroke_color;" stroke="&stroke_color;" stroke-linecap="round" stroke-linejoin="ro
und" stroke-width="3.5"
       id="path18356" /><g
       display="inline"
       id="g18358"><g
         id="g18360"><defs
           id="defs18362"><rect
             height="24"
             id="SVGID_15_"
             width="40"
             x="7.375"
             y="23.5" /></defs><clipPath
           id="SVGID_16_"><use
             overflow="visible"
             xlink:href="#SVGID_15_"
             id="use18366" /></clipPath><path
           clip-path="url(#SVGID_16_)"
           d="M46.375,27.498c0,10.494-8.507,19.002-19,19.002s-19-8.508-19-19.002     c0-10.49,8.507-18.998,19-18.998S46.375,17.003,46.375,27.498z"
           fill="&fill_color;"
           id="path18368" /></g></g><path
       d="   M46.375,27.498c0,10.494-8.507,19.002-19,19.002s-19-8.508-19-19.002c0-10.49,8.507-18.998,19-18.998S46.375,17.003,46.375,27.498z   "
       display="inline"
       fill="none"
       stroke="&stroke_color;"
       stroke-linecap="round"
       stroke-linejoin="round"
       stroke-width="3.5"
       id="path18370" /></g><g
     id="g19244"
     transform="translate(33.0002,31)"><g
       style="display:inline"
       id="layer9"
       transform="translate(-181.0002,-237)"
       inkscape:label="status"><g
         style="fill:#bebebe;fill-opacity:1"
         id="g4053"
         transform="translate(161.0002,-39)"
         inkscape:label="lock" /><path
         style="color:#bebebe;display:inline;overflow:visible;visibility:visible;fill:#bebebe;fill-opacity:1;fill-rule:nonzero;stroke:none;stroke-width:2;marker:none"
         sodipodi:nodetypes="csccccscc"
         id="rect4063"
         d="m 184,244 c -0.554,0 -1,0.446 -1,1 l 0,0.53125 0,5.46875 12,0 0,-5.46875 L 195,245 c 0,-0.554 -0.446,-1 -1,-1 l -10,0 z"
         inkscape:connector-curvature="0" /><path
         style="color:#bebebe;font-style:normal;font-variant:normal;font-weight:normal;font-stretch:normal;font-size:medium;line-height:normal;font-family:Sans;-inkscape-font-specification:Sans;text-indent:0;text-align:start;text-decoration:none;text-decoration-line:none;letter-spacing:normal;word-spacing:normal;text-transform:none;direction:ltr;block-progression:tb;writing-mode:lr-tb;baseline-shift:baseline;text-anchor:start;display:inline;overflow:visible;visibility:visible;fill:#bebebe;fill-opacity:1;stroke:none;stroke-width:2;marker:none;enable-background:accumulate"
         id="rect4291"
         d="m 188,238 c -1.6447,0 -3,1.3553 -3,3 l 0,7 c 0,1.6447 1.3553,3 3,3 l 2,0 c 1.6447,0 3,-1.3553 3,-3 l 0,-7 c 0,-1.6447 -1.3553,-3 -3,-3 l -2,0 z m 0,2 2,0 c 0.5713,0 1,0.4287 1,1 l 0,7 c 0,0.5713 -0.4287,1 -1,1 l -2,0 c -0.5713,0 -1,-0.4287 -1,-1 l 0,-7 c 0,-0.5713 0.4287,-1 1,-1 z"
         inkscape:connector-curvature="0" /></g><g
       id="layer10"
       transform="translate(-181.0002,-237)"
       inkscape:label="devices" /><g
       id="layer11"
       transform="translate(-181.0002,-237)"
       inkscape:label="apps" /><g
       id="layer12"
       transform="translate(-181.0002,-237)"
       inkscape:label="actions" /><g
       id="layer13"
       transform="translate(-181.0002,-237)"
       inkscape:label="places" /><g
       id="layer14"
       transform="translate(-181.0002,-237)"
       inkscape:label="mimetypes" /><g
       style="display:inline"
       id="layer15"
       transform="translate(-181.0002,-237)"
       inkscape:label="emblems" /><g
       style="display:inline"
       id="g4953"
       transform="translate(-181.0002,-237)"
       inkscape:label="categories" /></g></svg>
