<?xml version="1.0" ?><!DOCTYPE svg  PUBLIC '-//W3C//DTD SVG 1.1//EN'  'http://www.w3.org/Graphics/SVG/1.1/DTD/svg11.dtd' [
	<!ENTITY stroke_color "#010101">
	<!ENTITY fill_color "#ffffff">
]><svg enable-background="new 0 0 55 55" height="55px" id="Layer_1" version="1.1" viewBox="0 0 55 55" width="55px" x="0px" xml:space="preserve" xmlns="http://www.w3.org/2000/svg" xmlns:xlink="http://www.w3.org/1999/xlink" y="0px"><g display="block" id="network-wireless-040">
	<path d="M46.375,27.498c0,10.494-8.507,19.002-19,19.002s-19-8.508-19-19.002   c0-10.49,8.507-18.998,19-18.998S46.375,17.003,46.375,27.498z" display="inline" fill="&stroke_color;"/>
	<g display="inline">
		<g>
			<defs>
				<rect height="16" id="SVGID_17_" width="40" x="7.375" y="31.5"/>
			</defs>
			<clipPath id="SVGID_18_">
				<use overflow="visible" xlink:href="#SVGID_17_"/>
			</clipPath>
			<path clip-path="url(#SVGID_18_)" d="M46.375,27.498c0,10.494-8.507,19.002-19,19.002s-19-8.508-19-19.002     c0-10.49,8.507-18.998,19-18.998S46.375,17.003,46.375,27.498z" fill="&fill_color;"/>
		</g>
	</g>
	<path d="   M46.375,27.498c0,10.494-8.507,19.002-19,19.002s-19-8.508-19-19.002c0-10.49,8.507-18.998,19-18.998S46.375,17.003,46.375,27.498z   " display="inline" fill="none" stroke="&stroke_color;" stroke-linecap="round" stroke-linejoin="round" stroke-width="3.5"/>
</g></svg>