<?xml version="1.0" ?><!DOCTYPE svg  PUBLIC '-//W3C//DTD SVG 1.1//EN'  'http://www.w3.org/Graphics/SVG/1.1/DTD/svg11.dtd' [
	<!ENTITY stroke_color "#010101">
	<!ENTITY fill_color "#ffffff">
]><svg enable-background="new 0 0 55 55" height="55px" id="Layer_1" version="1.1" viewBox="0 0 55 55" width="55px" x="0px" xml:space="preserve" xmlns="http://www.w3.org/2000/svg" xmlns:xlink="http://www.w3.org/1999/xlink" y="0px"><g display="block" id="network-wireless-connected-100">
	<g>
		<g>
			<defs>
				<rect height="41.5" id="SVGID_1_" width="41.5" x="6.625" y="6.75"/>
			</defs>
			<clipPath id="SVGID_2_">
				<use overflow="visible" xlink:href="#SVGID_1_"/>
			</clipPath>
			<path clip-path="url(#SVGID_2_)" d="M46.375,27.498c0,10.494-8.507,19.002-19,19.002s-19-8.508-19-19.002     c0-10.49,8.507-18.998,19-18.998S46.375,17.003,46.375,27.498z" fill="&fill_color;"/>
		</g>
	</g>
	<path d="M46.375,27.498   c0,10.494-8.507,19.002-19,19.002s-19-8.508-19-19.002c0-10.49,8.507-18.998,19-18.998S46.375,17.003,46.375,27.498z" fill="none" stroke="&stroke_color;" stroke-linecap="round" stroke-linejoin="round" stroke-width="3.5"/>
	<g>
		<path d="M9.471,45.697    c-9.958-9.958-9.959-26.104,0-36.062" fill="none" stroke="&stroke_color;" stroke-linecap="round" stroke-width="3.5"/>
		<path d="M45.533,9.635    c9.959,9.958,9.958,26.104,0,36.062" fill="none" stroke="&stroke_color;" stroke-linecap="round" stroke-width="3.5"/>
	</g>
</g></svg>