<svg width="214" height="274" viewBox="0 0 214 274" fill="none" xmlns="http://www.w3.org/2000/svg">
<path d="M161.5 60C182.211 60 199 46.5685 199 30C199 13.4315 182.211 0 161.5 0C140.789 0 124 13.4315 124 30C124 46.5685 140.789 60 161.5 60Z" fill="#D22F27"/>
<path d="M91.9947 34.4252H122.005V25.041C122.005 22.4398 121.127 20.102 119.726 18.4062H119.699C118.285 16.7105 116.322 15.6568 114.18 15.6568H99.82C97.6783 15.6568 95.7152 16.7105 94.3011 18.4062H94.2737C92.8734 20.102 91.9947 22.4398 91.9947 25.041V34.4252ZM167.474 92.3604C165.731 96.6903 163.383 100.642 160.569 104.017C154.185 111.656 145.385 116.414 135.706 116.414H78.2937C68.6151 116.414 59.8151 111.656 53.4314 104.017C50.617 100.642 48.2694 96.6903 46.5259 92.3604C43.5468 101.251 41.7621 111.063 41.7621 121.32V154.922V239.413V240.203C41.7621 245.142 43.4507 249.637 46.169 252.896L46.1552 252.913C48.8735 256.173 52.6351 258.198 56.7537 258.198H57.4126V214.388V214.372C57.4126 198.023 62.9864 183.157 71.9786 172.373C80.957 161.606 93.3539 154.922 107 154.922C120.646 154.922 133.043 161.606 142.021 172.373C151 183.157 156.587 198.023 156.587 214.372V214.388V258.198H157.233C161.365 258.198 165.127 256.173 167.845 252.913L167.831 252.896C170.549 249.637 172.238 245.142 172.238 240.203V239.413V154.922V121.32C172.238 111.063 170.453 101.267 167.474 92.3604V92.3604ZM56.1084 72.3408V74.1847C56.1084 81.4945 58.607 88.1457 62.6157 92.9531C66.6382 97.7604 72.1845 100.757 78.2937 100.757H135.706C141.816 100.757 147.362 97.7604 151.384 92.9531C155.393 88.1457 157.892 81.4945 157.892 74.1847V72.3408C149.05 58.6925 137.807 50.0821 128.526 50.0821H85.4737C76.1932 50.0821 64.9496 58.6925 56.1084 72.3408ZM94.8503 222.208V233.486C94.8503 237.799 91.9261 241.306 88.3155 241.306C84.7186 241.306 81.7945 237.799 81.7945 233.486V222.208H70.4684V258.198H143.532V222.208H94.8503ZM71.045 206.551H88.3155H142.941C141.596 197.628 137.958 189.627 132.796 183.437C126.179 175.501 117.036 170.562 107 170.562C96.9507 170.562 87.8213 175.501 81.2041 183.437C76.0422 189.627 72.4042 197.628 71.045 206.551V206.551ZM185.294 223.772H193.119C195.274 223.772 197.251 222.702 198.665 221.006C200.079 219.311 200.944 216.973 200.944 214.388V196.904C200.944 188.392 198.652 182.136 195.11 177.938C192.446 174.76 189.014 172.637 185.294 171.517V223.772ZM193.119 239.413H185.294V240.203C185.294 249.455 182.136 257.868 177.057 263.96H177.029C171.95 270.051 164.934 273.838 157.233 273.838H150.053H63.9337H56.7537C49.052 273.838 42.0504 270.051 36.9709 263.96H36.9434C31.8639 257.868 28.7063 249.455 28.7063 240.203V239.413H20.8811C15.1425 239.413 9.93944 236.597 6.15037 232.07C2.3613 227.51 0 221.253 0 214.388V196.904C0 183.832 3.83025 173.871 9.70606 166.874C14.9092 160.684 21.6499 156.963 28.7063 155.564V121.32C28.7063 99.1928 35.6118 78.8439 45.3727 63.4834C54.8729 48.5345 67.2697 38.1789 78.9389 35.2649V25.041C78.9389 18.1757 81.3002 11.9196 85.0893 7.3592L85.0756 7.34274C88.8509 2.81526 94.0677 0 99.82 0H114.18C119.919 0 125.149 2.81526 128.924 7.34274L128.911 7.3592C132.7 11.9196 135.061 18.1757 135.061 25.041V35.2649C146.73 38.1789 159.127 48.5345 168.627 63.4834C178.388 78.8439 185.294 99.1928 185.294 121.32V155.564C192.35 156.963 199.091 160.684 204.28 166.874C210.17 173.871 214 183.832 214 196.904V214.388C214 221.253 211.639 227.51 207.85 232.07C204.061 236.597 198.844 239.413 193.119 239.413V239.413ZM20.8811 223.772H28.7063V171.517C24.9859 172.637 21.5538 174.76 18.8904 177.938C15.3485 182.136 13.0558 188.392 13.0558 196.904V214.388C13.0558 216.973 13.9207 219.311 15.3347 221.006C16.7488 222.702 18.712 223.772 20.8811 223.772V223.772Z" fill="black"/>
</svg>
