<?xml version="1.0" encoding="UTF-8" standalone="no"?>
<!DOCTYPE svg PUBLIC "-//W3C//DTD SVG 1.1//EN" "http://www.w3.org/Graphics/SVG/1.1/DTD/svg11.dtd" [
  <!ENTITY fill_color "#ffffff">
  <!ENTITY stroke_color "#000000">
]>
<svg
   xmlns:dc="http://purl.org/dc/elements/1.1/"
   xmlns:cc="http://creativecommons.org/ns#"
   xmlns:rdf="http://www.w3.org/1999/02/22-rdf-syntax-ns#"
   xmlns:svg="http://www.w3.org/2000/svg"
   xmlns="http://www.w3.org/2000/svg"
   xmlns:sodipodi="http://sodipodi.sourceforge.net/DTD/sodipodi-0.dtd"
   xmlns:inkscape="http://www.inkscape.org/namespaces/inkscape"
   version="1.1"
   width="55"
   height="55"
   id="svg2"
   inkscape:version="0.91 r13725"
   sodipodi:docname="qrcode.svg"
   inkscape:export-filename="/Users/lionel/Desktop/qrcode.png"
   inkscape:export-xdpi="234"
   inkscape:export-ydpi="234">
  <defs
     id="defs15" />
  <sodipodi:namedview
     pagecolor="#ffffff"
     bordercolor="#666666"
     borderopacity="1"
     objecttolerance="10"
     gridtolerance="10"
     guidetolerance="10"
     inkscape:pageopacity="0"
     inkscape:pageshadow="2"
     inkscape:window-width="1134"
     inkscape:window-height="728"
     id="namedview13"
     showgrid="false"
     fit-margin-top="3"
     fit-margin-left="3"
     fit-margin-right="2"
     fit-margin-bottom="2"
     inkscape:zoom="5.6568542"
     inkscape:cx="46.571739"
     inkscape:cy="25.697576"
     inkscape:window-x="90"
     inkscape:window-y="6"
     inkscape:window-maximized="0"
     inkscape:current-layer="svg2" />
  <title
     id="title4">QR Code</title>
  <desc
     id="desc6">QR Code</desc>
  <path
     inkscape:connector-curvature="0"
     id="path11"
     d="m 4.5000006,4.5000006 2.2380952,0 0,2.2380952 -2.2380952,0 z m 2.2380952,0 2.2380952,0 0,2.2380952 -2.2380952,0 z m 2.2380952,0 2.238095,0 0,2.2380952 -2.238095,0 z m 2.238095,0 2.238095,0 0,2.2380952 -2.238095,0 z m 2.238095,0 2.238096,0 0,2.2380952 -2.238096,0 z m 2.238096,0 2.238095,0 0,2.2380952 -2.238095,0 z m 2.238095,0 2.238095,0 0,2.2380952 -2.238095,0 z m 8.952381,0 2.238095,0 0,2.2380952 -2.238095,0 z m 2.238095,0 2.238095,0 0,2.2380952 -2.238095,0 z m 2.238095,0 2.238095,0 0,2.2380952 -2.238095,0 z m 4.47619,0 2.238096,0 0,2.2380952 -2.238096,0 z m 2.238096,0 2.238095,0 0,2.2380952 -2.238095,0 z m 2.238095,0 2.238095,0 0,2.2380952 -2.238095,0 z m 2.238095,0 2.238095,0 0,2.2380952 -2.238095,0 z m 2.238095,0 2.238095,0 0,2.2380952 -2.238095,0 z m 2.238095,0 2.238096,0 0,2.2380952 -2.238096,0 z m 2.238096,0 2.238095,0 0,2.2380952 -2.238095,0 z m -44.7619044,2.2380952 2.2380952,0 0,2.2380952 -2.2380952,0 z m 13.4285714,0 2.238095,0 0,2.2380952 -2.238095,0 z m 4.47619,0 2.238095,0 0,2.2380952 -2.238095,0 z m 2.238095,0 2.238096,0 0,2.2380952 -2.238096,0 z m 2.238096,0 2.238095,0 0,2.2380952 -2.238095,0 z m 4.47619,0 2.238095,0 0,2.2380952 -2.238095,0 z m 4.47619,0 2.238096,0 0,2.2380952 -2.238096,0 z m 13.428572,0 2.238095,0 0,2.2380952 -2.238095,0 z M 4.5000006,8.976191 l 2.2380952,0 0,2.238095 -2.2380952,0 z m 4.4761904,0 2.238095,0 0,2.238095 -2.238095,0 z m 2.238095,0 2.238095,0 0,2.238095 -2.238095,0 z m 2.238095,0 2.238096,0 0,2.238095 -2.238096,0 z m 4.476191,0 2.238095,0 0,2.238095 -2.238095,0 z m 8.952381,0 2.238095,0 0,2.238095 -2.238095,0 z m 2.238095,0 2.238095,0 0,2.238095 -2.238095,0 z m 2.238095,0 2.238095,0 0,2.238095 -2.238095,0 z m 4.47619,0 2.238096,0 0,2.238095 -2.238096,0 z m 4.476191,0 2.238095,0 0,2.238095 -2.238095,0 z m 2.238095,0 2.238095,0 0,2.238095 -2.238095,0 z m 2.238095,0 2.238095,0 0,2.238095 -2.238095,0 z m 4.476191,0 2.238095,0 0,2.238095 -2.238095,0 z m -44.7619044,2.238095 2.2380952,0 0,2.238095 -2.2380952,0 z m 4.4761904,0 2.238095,0 0,2.238095 -2.238095,0 z m 2.238095,0 2.238095,0 0,2.238095 -2.238095,0 z m 2.238095,0 2.238096,0 0,2.238095 -2.238096,0 z m 4.476191,0 2.238095,0 0,2.238095 -2.238095,0 z m 4.47619,0 2.238095,0 0,2.238095 -2.238095,0 z m 2.238095,0 2.238096,0 0,2.238095 -2.238096,0 z m 6.714286,0 2.238095,0 0,2.238095 -2.238095,0 z m 4.47619,0 2.238096,0 0,2.238095 -2.238096,0 z m 4.476191,0 2.238095,0 0,2.238095 -2.238095,0 z m 2.238095,0 2.238095,0 0,2.238095 -2.238095,0 z m 2.238095,0 2.238095,0 0,2.238095 -2.238095,0 z m 4.476191,0 2.238095,0 0,2.238095 -2.238095,0 z m -44.7619044,2.238095 2.2380952,0 0,2.238096 -2.2380952,0 z m 4.4761904,0 2.238095,0 0,2.238096 -2.238095,0 z m 2.238095,0 2.238095,0 0,2.238096 -2.238095,0 z m 2.238095,0 2.238096,0 0,2.238096 -2.238096,0 z m 4.476191,0 2.238095,0 0,2.238096 -2.238095,0 z m 6.714285,0 2.238096,0 0,2.238096 -2.238096,0 z m 6.714286,0 2.238095,0 0,2.238096 -2.238095,0 z m 4.47619,0 2.238096,0 0,2.238096 -2.238096,0 z m 4.476191,0 2.238095,0 0,2.238096 -2.238095,0 z m 2.238095,0 2.238095,0 0,2.238096 -2.238095,0 z m 2.238095,0 2.238095,0 0,2.238096 -2.238095,0 z m 4.476191,0 2.238095,0 0,2.238096 -2.238095,0 z m -44.7619044,2.238096 2.2380952,0 0,2.238095 -2.2380952,0 z m 13.4285714,0 2.238095,0 0,2.238095 -2.238095,0 z m 4.47619,0 2.238095,0 0,2.238095 -2.238095,0 z m 6.714286,0 2.238095,0 0,2.238095 -2.238095,0 z m 6.714285,0 2.238096,0 0,2.238095 -2.238096,0 z m 13.428572,0 2.238095,0 0,2.238095 -2.238095,0 z m -44.7619044,2.238095 2.2380952,0 0,2.238095 -2.2380952,0 z m 2.2380952,0 2.2380952,0 0,2.238095 -2.2380952,0 z m 2.2380952,0 2.238095,0 0,2.238095 -2.238095,0 z m 2.238095,0 2.238095,0 0,2.238095 -2.238095,0 z m 2.238095,0 2.238096,0 0,2.238095 -2.238096,0 z m 2.238096,0 2.238095,0 0,2.238095 -2.238095,0 z m 2.238095,0 2.238095,0 0,2.238095 -2.238095,0 z m 4.47619,0 2.238095,0 0,2.238095 -2.238095,0 z m 4.476191,0 2.238095,0 0,2.238095 -2.238095,0 z m 4.47619,0 2.238095,0 0,2.238095 -2.238095,0 z m 4.47619,0 2.238096,0 0,2.238095 -2.238096,0 z m 2.238096,0 2.238095,0 0,2.238095 -2.238095,0 z m 2.238095,0 2.238095,0 0,2.238095 -2.238095,0 z m 2.238095,0 2.238095,0 0,2.238095 -2.238095,0 z m 2.238095,0 2.238095,0 0,2.238095 -2.238095,0 z m 2.238095,0 2.238096,0 0,2.238095 -2.238096,0 z m 2.238096,0 2.238095,0 0,2.238095 -2.238095,0 z m -24.619048,2.238095 2.238096,0 0,2.238095 -2.238096,0 z m -20.1428564,2.238095 2.2380952,0 0,2.238095 -2.2380952,0 z m 2.2380952,0 2.2380952,0 0,2.238095 -2.2380952,0 z m 2.2380952,0 2.238095,0 0,2.238095 -2.238095,0 z m 2.238095,0 2.238095,0 0,2.238095 -2.238095,0 z m 2.238095,0 2.238096,0 0,2.238095 -2.238096,0 z m 4.476191,0 2.238095,0 0,2.238095 -2.238095,0 z m 2.238095,0 2.238095,0 0,2.238095 -2.238095,0 z m 2.238095,0 2.238095,0 0,2.238095 -2.238095,0 z m 6.714286,0 2.238095,0 0,2.238095 -2.238095,0 z m 4.47619,0 2.238095,0 0,2.238095 -2.238095,0 z m 4.476191,0 2.238095,0 0,2.238095 -2.238095,0 z m 4.47619,0 2.238095,0 0,2.238095 -2.238095,0 z m 4.47619,0 2.238096,0 0,2.238095 -2.238096,0 z m -42.5238084,2.238095 2.2380952,0 0,2.238096 -2.2380952,0 z m 2.2380952,0 2.2380952,0 0,2.238096 -2.2380952,0 z m 6.7142852,0 2.238096,0 0,2.238096 -2.238096,0 z m 6.714286,0 2.238095,0 0,2.238096 -2.238095,0 z m 4.47619,0 2.238096,0 0,2.238096 -2.238096,0 z m 4.476191,0 2.238095,0 0,2.238096 -2.238095,0 z m 2.238095,0 2.238095,0 0,2.238096 -2.238095,0 z m 2.238095,0 2.238095,0 0,2.238096 -2.238095,0 z m 2.238095,0 2.238096,0 0,2.238096 -2.238096,0 z m 2.238096,0 2.238095,0 0,2.238096 -2.238095,0 z m 6.714285,0 2.238095,0 0,2.238096 -2.238095,0 z m 2.238095,0 2.238096,0 0,2.238096 -2.238096,0 z m -35.809523,2.238096 2.238095,0 0,2.238095 -2.238095,0 z m 4.476191,0 2.238095,0 0,2.238095 -2.238095,0 z m 2.238095,0 2.238095,0 0,2.238095 -2.238095,0 z m 6.714285,0 2.238096,0 0,2.238095 -2.238096,0 z m 2.238096,0 2.238095,0 0,2.238095 -2.238095,0 z m 4.47619,0 2.238095,0 0,2.238095 -2.238095,0 z m 4.47619,0 2.238096,0 0,2.238095 -2.238096,0 z m 2.238096,0 2.238095,0 0,2.238095 -2.238095,0 z m 8.95238,0 2.238096,0 0,2.238095 -2.238096,0 z m -35.809523,2.238095 2.238095,0 0,2.238095 -2.238095,0 z m 2.238095,0 2.238096,0 0,2.238095 -2.238096,0 z m 6.714286,0 2.238095,0 0,2.238095 -2.238095,0 z m 8.952381,0 2.238095,0 0,2.238095 -2.238095,0 z m 2.238095,0 2.238095,0 0,2.238095 -2.238095,0 z m 2.238095,0 2.238095,0 0,2.238095 -2.238095,0 z m 2.238095,0 2.238096,0 0,2.238095 -2.238096,0 z m 8.952381,0 2.238095,0 0,2.238095 -2.238095,0 z m 2.238095,0 2.238096,0 0,2.238095 -2.238096,0 z m -42.5238084,2.238095 2.2380952,0 0,2.238095 -2.2380952,0 z m 2.2380952,0 2.2380952,0 0,2.238095 -2.2380952,0 z m 2.2380952,0 2.238095,0 0,2.238095 -2.238095,0 z m 4.47619,0 2.238096,0 0,2.238095 -2.238096,0 z m 4.476191,0 2.238095,0 0,2.238095 -2.238095,0 z m 6.714285,0 2.238096,0 0,2.238095 -2.238096,0 z m 2.238096,0 2.238095,0 0,2.238095 -2.238095,0 z m 4.47619,0 2.238095,0 0,2.238095 -2.238095,0 z m -8.952381,2.238095 2.238095,0 0,2.238095 -2.238095,0 z m 2.238095,0 2.238096,0 0,2.238095 -2.238096,0 z m 2.238096,0 2.238095,0 0,2.238095 -2.238095,0 z m 4.47619,0 2.238095,0 0,2.238095 -2.238095,0 z m 6.714286,0 2.238095,0 0,2.238095 -2.238095,0 z m 2.238095,0 2.238095,0 0,2.238095 -2.238095,0 z m 4.47619,0 2.238095,0 0,2.238095 -2.238095,0 z m 2.238095,0 2.238096,0 0,2.238095 -2.238096,0 z m -42.5238084,2.238095 2.2380952,0 0,2.238096 -2.2380952,0 z m 2.2380952,0 2.2380952,0 0,2.238096 -2.2380952,0 z m 2.2380952,0 2.238095,0 0,2.238096 -2.238095,0 z m 2.238095,0 2.238095,0 0,2.238096 -2.238095,0 z m 2.238095,0 2.238096,0 0,2.238096 -2.238096,0 z m 2.238096,0 2.238095,0 0,2.238096 -2.238095,0 z m 2.238095,0 2.238095,0 0,2.238096 -2.238095,0 z m 4.47619,0 2.238095,0 0,2.238096 -2.238095,0 z m 4.476191,0 2.238095,0 0,2.238096 -2.238095,0 z m 2.238095,0 2.238095,0 0,2.238096 -2.238095,0 z m 4.47619,0 2.238095,0 0,2.238096 -2.238095,0 z m 11.190476,0 2.238095,0 0,2.238096 -2.238095,0 z m 2.238095,0 2.238096,0 0,2.238096 -2.238096,0 z m -42.5238084,2.238096 2.2380952,0 0,2.238095 -2.2380952,0 z m 13.4285714,0 2.238095,0 0,2.238095 -2.238095,0 z m 6.714285,0 2.238096,0 0,2.238095 -2.238096,0 z m 13.428572,0 2.238095,0 0,2.238095 -2.238095,0 z m 4.47619,0 2.238095,0 0,2.238095 -2.238095,0 z m 2.238095,0 2.238095,0 0,2.238095 -2.238095,0 z m 2.238095,0 2.238096,0 0,2.238095 -2.238096,0 z m 2.238096,0 2.238095,0 0,2.238095 -2.238095,0 z m -44.7619044,2.238095 2.2380952,0 0,2.238095 -2.2380952,0 z m 4.4761904,0 2.238095,0 0,2.238095 -2.238095,0 z m 2.238095,0 2.238095,0 0,2.238095 -2.238095,0 z m 2.238095,0 2.238096,0 0,2.238095 -2.238096,0 z m 4.476191,0 2.238095,0 0,2.238095 -2.238095,0 z m 4.47619,0 2.238095,0 0,2.238095 -2.238095,0 z m 2.238095,0 2.238096,0 0,2.238095 -2.238096,0 z m 2.238096,0 2.238095,0 0,2.238095 -2.238095,0 z m 2.238095,0 2.238095,0 0,2.238095 -2.238095,0 z m 4.47619,0 2.238095,0 0,2.238095 -2.238095,0 z m 11.190476,0 2.238095,0 0,2.238095 -2.238095,0 z m 2.238095,0 2.238096,0 0,2.238095 -2.238096,0 z m -42.5238084,2.238095 2.2380952,0 0,2.238095 -2.2380952,0 z m 4.4761904,0 2.238095,0 0,2.238095 -2.238095,0 z m 2.238095,0 2.238095,0 0,2.238095 -2.238095,0 z m 2.238095,0 2.238096,0 0,2.238095 -2.238096,0 z m 4.476191,0 2.238095,0 0,2.238095 -2.238095,0 z m 4.47619,0 2.238095,0 0,2.238095 -2.238095,0 z m 2.238095,0 2.238096,0 0,2.238095 -2.238096,0 z m 2.238096,0 2.238095,0 0,2.238095 -2.238095,0 z m 2.238095,0 2.238095,0 0,2.238095 -2.238095,0 z m 2.238095,0 2.238095,0 0,2.238095 -2.238095,0 z m 2.238095,0 2.238095,0 0,2.238095 -2.238095,0 z m 2.238095,0 2.238096,0 0,2.238095 -2.238096,0 z m 2.238096,0 2.238095,0 0,2.238095 -2.238095,0 z m 2.238095,0 2.238095,0 0,2.238095 -2.238095,0 z m 4.47619,0 2.238095,0 0,2.238095 -2.238095,0 z m -40.2857134,2.238095 2.2380952,0 0,2.238095 -2.2380952,0 z m 4.4761904,0 2.238095,0 0,2.238095 -2.238095,0 z m 2.238095,0 2.238095,0 0,2.238095 -2.238095,0 z m 2.238095,0 2.238096,0 0,2.238095 -2.238096,0 z m 4.476191,0 2.238095,0 0,2.238095 -2.238095,0 z m 4.47619,0 2.238095,0 0,2.238095 -2.238095,0 z m 8.952381,0 2.238095,0 0,2.238095 -2.238095,0 z m 4.47619,0 2.238096,0 0,2.238095 -2.238096,0 z m 6.714286,0 2.238095,0 0,2.238095 -2.238095,0 z m -38.0476184,2.238095 2.2380952,0 0,2.238096 -2.2380952,0 z m 13.4285714,0 2.238095,0 0,2.238096 -2.238095,0 z m 4.47619,0 2.238095,0 0,2.238096 -2.238095,0 z m 2.238095,0 2.238096,0 0,2.238096 -2.238096,0 z m 2.238096,0 2.238095,0 0,2.238096 -2.238095,0 z m 2.238095,0 2.238095,0 0,2.238096 -2.238095,0 z m 2.238095,0 2.238095,0 0,2.238096 -2.238095,0 z m 2.238095,0 2.238095,0 0,2.238096 -2.238095,0 z m 2.238095,0 2.238096,0 0,2.238096 -2.238096,0 z m 4.476191,0 2.238095,0 0,2.238096 -2.238095,0 z m 2.238095,0 2.238095,0 0,2.238096 -2.238095,0 z m 2.238095,0 2.238095,0 0,2.238096 -2.238095,0 z m -40.2857134,2.238096 2.2380952,0 0,2.238095 -2.2380952,0 z m 2.2380952,0 2.2380952,0 0,2.238095 -2.2380952,0 z m 2.2380952,0 2.238095,0 0,2.238095 -2.238095,0 z m 2.238095,0 2.238095,0 0,2.238095 -2.238095,0 z m 2.238095,0 2.238096,0 0,2.238095 -2.238096,0 z m 2.238096,0 2.238095,0 0,2.238095 -2.238095,0 z m 2.238095,0 2.238095,0 0,2.238095 -2.238095,0 z m 4.47619,0 2.238095,0 0,2.238095 -2.238095,0 z m 8.952381,0 2.238095,0 0,2.238095 -2.238095,0 z m 8.952381,0 2.238095,0 0,2.238095 -2.238095,0 z m 6.714285,0 2.238096,0 0,2.238095 -2.238096,0 z"
     style="fill:&stroke_color;" />
  <rect
     style="fill:&fill_color;;fill-opacity:1;stroke:&stroke_color;;stroke-width:0.69556707;stroke-opacity:1"
     id="rect3346"
     width="6.0237875"
     height="6.023787"
     x="9.3156013"
     y="9.3175201" />
  <rect
     y="9.2858009"
     x="40.6478"
     height="6.0526114"
     width="6.0369868"
     id="rect3348"
     style="fill:&fill_color;;fill-opacity:1;stroke:&stroke_color;;stroke-width:0.69799268;stroke-opacity:1" />
  <rect
     style="fill:&fill_color;;fill-opacity:1;stroke:&stroke_color;;stroke-width:0.69879359;stroke-opacity:1"
     id="rect3350"
     width="6.0830607"
     height="6.0205603"
     x="9.270339"
     y="40.65012" />
</svg>
