<?xml version="1.0" encoding="UTF-8" standalone="no"?>
<svg
   xmlns:dc="http://purl.org/dc/elements/1.1/"
   xmlns:cc="http://creativecommons.org/ns#"
   xmlns:rdf="http://www.w3.org/1999/02/22-rdf-syntax-ns#"
   xmlns:svg="http://www.w3.org/2000/svg"
   xmlns="http://www.w3.org/2000/svg"
   xmlns:sodipodi="http://sodipodi.sourceforge.net/DTD/sodipodi-0.dtd"
   xmlns:inkscape="http://www.inkscape.org/namespaces/inkscape"
   width="55pt"
   height="55pt"
   version="1.1"
   viewBox="0 0 55 55"
   id="svg2"
   inkscape:version="0.91 r13725"
   sodipodi:docname="sync3.svg">
  <defs
     id="defs12" />
  <g
     id="g4"
     transform="matrix(-0.36077122,0.36077122,-0.36077122,-0.36077122,63.629596,27.945155)"
     style="fill:#ffffff">
    <path
       d="m 65.32,13.219 5.0781,27.562 8.3008,-8.2891 0,-0.0039 c 4.1836,6.8281 5.7891,14.922 4.5312,22.828 -1.2578,7.9062 -5.2969,15.102 -11.387,20.297 -6.0938,5.1914 -13.84,8.0391 -21.844,8.0273 -1.3359,-0.0039 -2.6758,-0.09375 -4,-0.26953 l -2.8008,-0.37109 -1.7695,9.8398 3.1797,0.35938 c 1.7891,0.20703 3.5898,0.31641 5.3906,0.32031 10.676,0.0625 21,-3.8008 29.012,-10.852 8.0078,-7.0547 13.148,-16.809 14.438,-27.402 1.2891,-10.598 -1.3633,-21.297 -7.4492,-30.066 l 8.1094,-8.1094 z"
       id="path6"
       inkscape:connector-curvature="0"
       style="fill:#ffffff" />
    <path
       d="m 34.68,87.238 -5.0703,-27.566 -8.2617,8.2617 0.0039,-0.0039 c -4.1992,-6.8359 -5.8203,-14.941 -4.5781,-22.867 1.2461,-7.9258 5.2734,-15.145 11.363,-20.367 6.0898,-5.2188 13.844,-8.0977 21.863,-8.1172 1.3359,0.0039 2.6758,0.09375 4,0.27344 l 2.8398,0.37891 1.7695,-9.8906 -3,-0.46875 C 53.7536,6.59426 51.8786,6.46144 49.9997,6.48098 c -11.598,0.011719 -22.719,4.625 -30.922,12.828 -8.203,8.203 -12.816,19.32 -12.828,30.922 -0.058594,8.9375 2.6641,17.676 7.7891,25 l -8.1289,8.1406 z"
       id="path8"
       inkscape:connector-curvature="0"
       style="fill:#ffffff" />
  </g>
</svg>
