<?xml version="1.0" encoding="UTF-8" standalone="no"?>
<svg
   xmlns:dc="http://purl.org/dc/elements/1.1/"
   xmlns:cc="http://creativecommons.org/ns#"
   xmlns:rdf="http://www.w3.org/1999/02/22-rdf-syntax-ns#"
   xmlns:svg="http://www.w3.org/2000/svg"
   xmlns="http://www.w3.org/2000/svg"
   xmlns:sodipodi="http://sodipodi.sourceforge.net/DTD/sodipodi-0.dtd"
   xmlns:inkscape="http://www.inkscape.org/namespaces/inkscape"
   enable-background="new 0 0 55 55"
   height="55px"
   version="1.1"
   viewBox="0 0 55 55"
   width="55px"
   x="0px"
   xml:space="preserve"
   y="0px"
   id="svg2"
   inkscape:version="0.48.4 r9939"
   sodipodi:docname="view-neighborhood.svg"><metadata
     id="metadata10"><rdf:RDF><cc:Work
         rdf:about=""><dc:format>image/svg+xml</dc:format><dc:type
           rdf:resource="http://purl.org/dc/dcmitype/StillImage" /><dc:title /></cc:Work></rdf:RDF></metadata><defs
     id="defs8">
	
</defs><sodipodi:namedview
     pagecolor="#ffffff"
     bordercolor="#666666"
     borderopacity="1"
     objecttolerance="10"
     gridtolerance="10"
     guidetolerance="10"
     inkscape:pageopacity="0"
     inkscape:pageshadow="2"
     inkscape:window-width="1600"
     inkscape:window-height="837"
     id="namedview6"
     showgrid="false"
     inkscape:zoom="4.2909091"
     inkscape:cx="-12.584746"
     inkscape:cy="27.5"
     inkscape:window-x="-8"
     inkscape:window-y="-8"
     inkscape:window-maximized="1"
     inkscape:current-layer="svg2" /><g
     display="block"
     id="zoom-neighborhood"
     style="fill:none;display:block;stroke:#ffffff"><path
       d="M 27.5,5 C 15.074,5 5,15.074 5,27.5 5,39.927 15.074,50 27.5,50 39.927,50 50,39.927 50,27.5 50,15.074 39.927,5 27.5,5 z m 10.104,8.904 c 2.096,0 3.795,1.699 3.795,3.794 0,2.096 -1.699,3.794 -3.795,3.794 -2.096,0 -3.794,-1.699 -3.794,-3.794 0,-2.095 1.7,-3.794 3.794,-3.794 z M 9.626,27.501 c 0,-2.099 1.7,-3.799 3.793,-3.799 2.097,0 3.796,1.7 3.796,3.799 0,2.095 -1.7,3.793 -3.796,3.793 -2.095,0 -3.793,-1.698 -3.793,-3.793 z m 7.765,13.595 c -2.093,0 -3.793,-1.695 -3.793,-3.792 0,-2.099 1.701,-3.796 3.793,-3.796 2.099,0 3.799,1.696 3.799,3.796 -0.001,2.095 -1.701,3.792 -3.799,3.792 z m 0.307,-19.901 c -2.094,0 -3.795,-1.7 -3.795,-3.799 0,-2.096 1.7,-3.795 3.795,-3.795 2.099,0 3.796,1.701 3.796,3.795 0.001,2.099 -1.696,3.799 -3.796,3.799 z m 9.801,24.179 c -2.1,0 -3.797,-1.7 -3.797,-3.794 0,-2.098 1.696,-3.797 3.797,-3.797 2.095,0 3.794,1.699 3.794,3.797 0,2.096 -1.699,3.794 -3.794,3.794 z m 0.002,-28.157 c -2.096,0 -3.795,-1.699 -3.795,-3.795 0,-2.096 1.699,-3.795 3.795,-3.795 2.097,0 3.795,1.699 3.795,3.795 0,2.096 -1.698,3.795 -3.795,3.795 z m 9.8,24.184 c -2.096,0 -3.795,-1.699 -3.795,-3.795 0,-2.096 1.699,-3.794 3.795,-3.794 2.096,0 3.794,1.698 3.794,3.794 0,2.096 -1.699,3.795 -3.794,3.795 z m 4.28,-10.103 c -2.096,0 -3.795,-1.698 -3.795,-3.795 0,-2.096 1.699,-3.793 3.799,-3.793 2.094,0 3.791,1.697 3.791,3.793 0,2.097 -1.697,3.795 -3.795,3.795 z"
       id="zoom-neighborhood_3_"
       style="fill:none;stroke:#ffffff"
       inkscape:connector-curvature="0" /></g><path
     style="fill:#ffffff;fill-opacity:1;stroke:#ffffff;stroke-width:2.05667377;stroke-miterlimit:4;stroke-opacity:1;stroke-dasharray:none;stroke-dashoffset:0"
     d="m 16.54661,20.344475 c -0.652798,-0.237537 -1.619608,-1.308237 -1.872087,-2.073255 -0.546013,-1.654435 0.66756,-3.618697 2.441313,-3.951455 1.999724,-0.375151 3.695998,1.113694 3.666949,3.218535 -0.01504,1.089841 -0.501043,1.898829 -1.51049,2.514328 -0.70854,0.432024 -1.969426,0.567031 -2.725685,0.291847 z"
     id="path2999"
     inkscape:connector-curvature="0" /><path
     style="fill:#ffffff;fill-opacity:1;stroke:#ffffff;stroke-width:2.05667377;stroke-miterlimit:4;stroke-opacity:1;stroke-dasharray:none;stroke-dashoffset:0"
     d="m 25.939569,16.090763 c -1.046562,-0.638129 -1.546914,-1.508323 -1.546914,-2.690339 0,-3.065271 3.904378,-4.2183287 5.751442,-1.698541 0.584909,0.797939 0.616322,2.476902 0.06217,3.322649 -0.944284,1.44116 -2.864719,1.92107 -4.266695,1.066231 z"
     id="path3001"
     inkscape:connector-curvature="0" /><path
     style="fill:#ffffff;fill-opacity:1;stroke:#ffffff;stroke-width:2.05667377;stroke-miterlimit:4;stroke-opacity:1;stroke-dasharray:none;stroke-dashoffset:0"
     d="m 36.870752,20.728015 c -2.042605,-0.438307 -3.023358,-2.912349 -1.851787,-4.671305 1.164336,-1.748092 3.314703,-2.003229 4.756087,-0.564299 2.228499,2.224706 0.18997,5.899578 -2.9043,5.235604 z"
     id="path3003"
     inkscape:connector-curvature="0" /><path
     style="fill:#ffffff;fill-opacity:1;stroke:#ffffff;stroke-width:2.05667377;stroke-miterlimit:4;stroke-opacity:1;stroke-dasharray:none;stroke-dashoffset:0"
     d="m 40.700594,30.523088 c -2.559199,-0.766923 -3.000715,-4.238329 -0.72842,-5.727194 0.922929,-0.604727 2.523418,-0.497356 3.481718,0.233575 2.005428,1.529614 1.408283,4.824483 -0.995355,5.492074 -0.968859,0.269093 -0.865445,0.269002 -1.757943,0.0015 l 0,7e-6 z"
     id="path3007"
     inkscape:connector-curvature="0" /><path
     style="fill:#ffffff;fill-opacity:1;stroke:#ffffff;stroke-width:2.05667377;stroke-miterlimit:4;stroke-opacity:1;stroke-dasharray:none;stroke-dashoffset:0"
     d="m 35.982179,40.462957 c -1.581233,-0.71494 -2.306277,-3.066669 -1.380886,-4.478994 1.721666,-2.627595 5.794187,-1.465236 5.794187,1.653749 0,1.671727 -1.094578,2.86244 -2.807152,3.053699 -0.485551,0.05423 -1.208318,-0.04858 -1.606149,-0.228454 l 0,0 z"
     id="path3009"
     inkscape:connector-curvature="0" /><path
     style="fill:#ffffff;fill-opacity:1;stroke:#ffffff;stroke-width:2.05667377;stroke-miterlimit:4;stroke-opacity:1;stroke-dasharray:none;stroke-dashoffset:0"
     d="m 26.118261,44.337562 c -1.16028,-0.591642 -1.725606,-1.47969 -1.725606,-2.71069 0,-3.166903 4.064182,-4.321368 5.813609,-1.651404 0.947609,1.446234 0.192265,3.760217 -1.451644,4.447086 -1.024297,0.427979 -1.671264,0.407121 -2.636359,-0.08499 l 0,0 z"
     id="path3011"
     inkscape:connector-curvature="0" /><path
     style="fill:#ffffff;fill-opacity:1;stroke:#ffffff;stroke-width:2.05667377;stroke-miterlimit:4;stroke-opacity:1;stroke-dasharray:none;stroke-dashoffset:0"
     d="m 16.457888,40.318238 c -1.966329,-0.613533 -2.82836,-3.154519 -1.643875,-4.845608 0.831286,-1.186827 3.030013,-1.639269 4.20977,-0.866262 0.316107,0.207122 0.779087,0.711723 1.028845,1.121337 1.447436,2.373863 -0.937616,5.419606 -3.59474,4.590533 z"
     id="path3013"
     inkscape:connector-curvature="0" /><path
     style="fill:#ffffff;fill-opacity:1;stroke:#ffffff;stroke-width:2.05667377;stroke-miterlimit:4;stroke-opacity:1;stroke-dasharray:none;stroke-dashoffset:0"
     d="m 12.496024,30.524042 c -2.1295,-0.645223 -2.8729995,-3.359466 -1.399822,-5.110238 1.412041,-1.678116 4.074531,-1.296757 5.124691,0.73403 1.209023,2.337992 -1.181705,5.146767 -3.724869,4.376208 z"
     id="path3015"
     inkscape:connector-curvature="0" /><path
     sodipodi:type="arc"
     style="fill:none;stroke:#ffffff;stroke-width:2.5307601;stroke-miterlimit:4;stroke-opacity:1;stroke-dasharray:none;stroke-dashoffset:0"
     id="path2993"
     sodipodi:cx="-10.021187"
     sodipodi:cy="19.692797"
     sodipodi:rx="18.644068"
     sodipodi:ry="19.692797"
     d="m 8.6228809,19.692797 a 18.644068,19.692797 0 1 1 -37.2881359,0 18.644068,19.692797 0 1 1 37.2881359,0 z"
     transform="matrix(1.2182983,0,0,1.1534185,39.559859,4.4690129)" /></svg>