<?xml version="1.0" encoding="UTF-8" standalone="no"?>
<svg
   width="55"
   height="55"
   version="1.1"
   id="svg30"
   sodipodi:docname="view-duedate.svg"
   xml:space="preserve"
   inkscape:version="1.2.2 (b0a8486541, 2022-12-01, custom)"
   xmlns:inkscape="http://www.inkscape.org/namespaces/inkscape"
   xmlns:sodipodi="http://sodipodi.sourceforge.net/DTD/sodipodi-0.dtd"
   xmlns="http://www.w3.org/2000/svg"
   xmlns:svg="http://www.w3.org/2000/svg"><defs
     id="defs34" /><sodipodi:namedview
     id="namedview32"
     pagecolor="#ffffff"
     bordercolor="#666666"
     borderopacity="1.0"
     inkscape:showpageshadow="2"
     inkscape:pageopacity="0.0"
     inkscape:pagecheckerboard="0"
     inkscape:deskcolor="#d1d1d1"
     showgrid="false"
     inkscape:zoom="12.181818"
     inkscape:cx="22.820896"
     inkscape:cy="27.5"
     inkscape:window-width="1526"
     inkscape:window-height="845"
     inkscape:window-x="74"
     inkscape:window-y="27"
     inkscape:window-maximized="1"
     inkscape:current-layer="svg30" /><path
     d="M 46 17 l 7 7 l -14 0 z"
     fill="#FFFFFF"
     stroke="none"
     id="path26" /><path
     d="M 46 38 l 7 -7 l -14 0 z"
     fill="#FFFFFF"
     stroke="none"
     id="path28" /><path
     d="m 33.180108,22.500919 -4.079134,-1.631561 v -8.699477 c 0,-0.515083 -0.418038,-0.93312 -0.93312,-0.93312 H 9.5054537 c -0.5150822,0 -0.9331199,0.418037 -0.9331199,0.93312 v 8.699477 l -4.0791341,1.631561 c -0.3643833,0.146033 -0.5850662,0.495953 -0.5855328,0.866402 h -9.36e-4 v 16.79616 c 0,0.515083 0.4180378,0.93312 0.93312,0.93312 H 32.833451 c 0.515083,0 0.93312,-0.418037 0.93312,-0.93312 v -16.79616 h -9e-4 c -4.66e-4,-0.370449 -0.221149,-0.720369 -0.585533,-0.866402 z m -2.234356,1.116478 -1.844778,1.145405 V 22.879766 Z M 27.234734,13.103001 v 8.412543 c 0,0.0018 0,0.0038 0,0.0056 v 4.400128 l -8.39808,5.212408 -8.39808,-5.212408 v -4.400128 c 0,-0.0018 0,-0.0038 0,-0.0056 V 13.103001 Z M 8.5723338,24.762802 6.7275555,23.617397 8.5723338,22.879766 Z m -2.79936,14.467559 V 25.221897 l 12.5714592,7.803216 c 0.151166,0.09285 0.32146,0.139968 0.492221,0.139968 0.17076,0 0.341055,-0.04712 0.49222,-0.140434 l 12.57146,-7.80275 v 14.008464 z"
     id="path2"
     style="fill:#ffffff;stroke-width:0.999999" /></svg>
