<?xml version="1.0" encoding="UTF-8" standalone="no"?>
<!-- Created with Inkscape (http://www.inkscape.org/) -->

<svg
   xmlns:dc="http://purl.org/dc/elements/1.1/"
   xmlns:cc="http://creativecommons.org/ns#"
   xmlns:rdf="http://www.w3.org/1999/02/22-rdf-syntax-ns#"
   xmlns:svg="http://www.w3.org/2000/svg"
   xmlns="http://www.w3.org/2000/svg"
   version="1.1"
   width="300"
   height="300"
   id="svg2">
  <defs
     id="defs4" />
  <metadata
     id="metadata7">
    <rdf:RDF>
      <cc:Work
         rdf:about="">
        <dc:format>image/svg+xml</dc:format>
        <dc:type
           rdf:resource="http://purl.org/dc/dcmitype/StillImage" />
        <dc:title></dc:title>
      </cc:Work>
    </rdf:RDF>
  </metadata>
  <path
     d="m 110.63456,42.73215 c -22.2049,4.57289 -39.65255,13.60803 -54.63845,27.79851 -5.82185,5.58038 -10.86979,12.47939 -13.41997,20.12995 -3.64313,10.92938 -3.72637,23.13088 -1.91714,34.5085 2.90735,18.28333 10.61556,35.88165 20.12995,51.76274 10.59773,17.68938 23.93941,34.36566 40.25991,46.96991 21.37604,16.5086 46.35091,30.25176 72.85128,35.46706 19.47799,3.8333 41.21539,4.0567 59.43129,-3.8343 19.29083,-8.35661 35.15521,-25.13243 46.01133,-43.1356 10.60751,-17.59089 15.54222,-38.90349 16.29568,-59.4313 0.72861,-19.8511 -1.47671,-41.32414 -11.50283,-58.47273 C 273.95504,77.08212 255.7677,64.96895 238.12428,55.19355 222.30151,46.42688 204.24069,41.64571 186.36154,38.89787 c -25.55956,-1.29621 -52.33526,0.0824 -75.72698,3.83428 z"
     id="path3050"
     style="fill:#000000;fill-opacity:1;stroke:#000000;stroke-width:8.4673624;stroke-linecap:butt;stroke-linejoin:miter;stroke-miterlimit:4;stroke-opacity:1;stroke-dasharray:none" />
  <path
     d="m 81.54603,50.87999 -77.31235,0"
     id="path3822"
     style="fill:none;stroke:#000000;stroke-width:8.4673624;stroke-linecap:square;stroke-linejoin:miter;stroke-miterlimit:4;stroke-opacity:1;stroke-dasharray:none" />
  <path
     d="m 42.57614,90.66061 c 0,0 -10.4078,-6.86417 -16.29568,-8.62712 C 19.82335,80.1001 4.23368,80.11635 4.23368,80.11635"
     id="path3824"
     style="fill:none;stroke:#000000;stroke-width:8.4673624;stroke-linecap:square;stroke-linejoin:miter;stroke-miterlimit:4;stroke-opacity:1;stroke-dasharray:none" />
  <path
     d="m 65.745604,144.15196 c -6.981137,-0.6094 -11.943714,-8.76601 -14.378538,-15.33711 -2.555831,-6.89769 -1.277573,-15.03924 0.958565,-22.0471 3.933538,-12.32733 11.237689,-24.20107 21.088525,-32.59135 6.643865,-5.6588 15.42386,-8.74846 23.964236,-10.54427 6.879068,-1.44648 15.167328,-3.78858 21.088528,0 3.85358,2.46565 6.20891,7.90946 5.75141,12.4614 -0.59437,5.91368 -6.7942,9.76748 -10.54426,14.37854 -5.42462,6.67011 -11.81364,12.51432 -17.254251,19.17139 -6.794,8.31306 -11.602395,18.2672 -19.171387,25.88137 -3.378952,3.39913 -6.728141,9.04392 -11.502828,8.62713 z"
     id="path3820-6"
     style="fill:#ffffff;fill-opacity:1;stroke:#000000;stroke-width:0.84673625px;stroke-linecap:butt;stroke-linejoin:miter;stroke-opacity:1" />
</svg>
