<?xml version="1.0" encoding="UTF-8" standalone="no"?>
<!-- Created with Inkscape (http://www.inkscape.org/) -->

<svg
   xmlns:dc="http://purl.org/dc/elements/1.1/"
   xmlns:cc="http://creativecommons.org/ns#"
   xmlns:rdf="http://www.w3.org/1999/02/22-rdf-syntax-ns#"
   xmlns:svg="http://www.w3.org/2000/svg"
   xmlns="http://www.w3.org/2000/svg"
   version="1.1"
   width="55"
   height="55"
   viewBox="0 0 55 55"
   id="svg2"
   xml:space="preserve"><metadata
     id="metadata17"><rdf:RDF><cc:Work
         rdf:about=""><dc:format>image/svg+xml</dc:format><dc:type
           rdf:resource="http://purl.org/dc/dcmitype/StillImage" /><dc:title></dc:title></cc:Work></rdf:RDF></metadata><defs
     id="defs15" /><g
     id="g5"
     style="fill:#ffffff;fill-opacity:1;stroke-width:2;stroke-miterlimit:4;stroke-dasharray:none"><path
       d="m 48.143,36.983 c 0,3.3 -2.7,6 -6,6 H 12.705 c -3.3,0 -6,-2.7 -6,-6 v -18.77 c 0,-3.3 2.7,-6 6,-6 h 29.438 c 3.3,0 6,2.7 6,6 v 18.77 z"
       id="path7"
       style="fill:#ffffff;fill-opacity:1;stroke-width:2;stroke-miterlimit:4;stroke-dasharray:none" /><path
       d="m 48.143,36.983 c 0,3.3 -2.7,6 -6,6 H 12.705 c -3.3,0 -6,-2.7 -6,-6 v -18.77 c 0,-3.3 2.7,-6 6,-6 h 29.438 c 3.3,0 6,2.7 6,6 v 18.77 z"
       id="path9"
       style="fill:#ffffff;fill-opacity:1;stroke:#010101;stroke-width:2;stroke-linejoin:round;stroke-miterlimit:4;stroke-dasharray:none" /></g><path
     d="m 27.158062,25.483929 c 8.43251,0.119851 14.721184,5.341138 18.460849,6.44501 -3.531243,2.408894 -7.098969,5.161161 -18.118449,5.270397 -11.019481,0.109236 -14.25774,-4.253917 -18.1128069,-5.176677 4.5545269,-1.3485 9.3378989,-6.658582 17.7704069,-6.53873 z"
     id="path11"
     style="fill:#ffffff;stroke:#010101;stroke-width:2;stroke-linejoin:round;stroke-miterlimit:4;stroke-dasharray:none" /></svg>