<?xml version="1.0" encoding="UTF-8" standalone="no"?>
<!-- Created with Inkscape (http://www.inkscape.org/) -->

<svg
   xmlns:dc="http://purl.org/dc/elements/1.1/"
   xmlns:cc="http://creativecommons.org/ns#"
   xmlns:rdf="http://www.w3.org/1999/02/22-rdf-syntax-ns#"
   xmlns:svg="http://www.w3.org/2000/svg"
   xmlns="http://www.w3.org/2000/svg"
   version="1.1"
   width="55.002277"
   height="55.001881"
   id="svg2">
  <defs
     id="defs4" />
  <metadata
     id="metadata7">
    <rdf:RDF>
      <cc:Work
         rdf:about="">
        <dc:format>image/svg+xml</dc:format>
        <dc:type
           rdf:resource="http://purl.org/dc/dcmitype/StillImage" />
        <dc:title></dc:title>
      </cc:Work>
    </rdf:RDF>
  </metadata>
  <g
     transform="translate(-622.85485,-808.78888)"
     id="layer1">
    <g
       transform="matrix(0.17042926,0,0,0.1713295,516.70405,715.62336)"
       id="g3060">
      <rect
         width="318.49051"
         height="318.49051"
         x="623.61188"
         y="544.54553"
         id="rect3058"
         style="fill:#ffffff;fill-opacity:1;fill-rule:nonzero;stroke:#8000fe;stroke-width:1.50950146;stroke-linecap:round;stroke-linejoin:round;stroke-miterlimit:4;stroke-opacity:1;stroke-dasharray:none;stroke-dashoffset:0" />
      <path
         d="m 625.72504,799.25061 c 0,-44.15285 0.33184,-65.35392 1.01631,-64.9309 0.55897,0.34546 0.75387,1.05275 0.43311,1.57175 -0.32076,0.51901 0.11468,2.34257 0.96764,4.05237 0.85296,1.7098 1.3065,3.50407 1.00787,3.98726 -0.29863,0.4832 -0.0467,0.87854 0.55989,0.87854 0.60657,0 0.9949,0.5625 0.86297,1.25 -0.39739,2.0707 1.22781,5.82131 2.24898,5.19019 1.21915,-0.75347 0.71487,1.8354 -0.53247,2.73359 -0.55333,0.39845 -0.40113,1.3179 0.37245,2.25 0.71948,0.86692 1.00148,1.57622 0.62668,1.57622 -0.37481,0 -0.31741,0.5625 0.12755,1.25 0.44496,0.6875 0.87889,4.625 0.96428,8.75 0.0854,4.125 0.24572,7.725 0.3563,8 0.50111,1.24628 0.4342,4.77395 -0.14613,7.70514 -0.34902,1.76283 -0.2871,3.33783 0.1376,3.5 0.42469,0.16217 1.03896,2.23914 1.36504,4.61547 0.47894,3.49035 1.54755,7.96676 3.14618,13.17939 0.0843,0.275 0.71052,1.85 1.39151,3.5 0.681,1.65 2.14672,5.7 3.25716,9 1.11044,3.3 2.52083,6.6079 3.1342,7.35088 0.61337,0.74299 1.21938,2.06058 1.34669,2.92799 0.12731,0.86742 1.16841,2.73452 2.31355,4.14912 1.14515,1.41461 2.92796,4.41626 3.96181,6.67033 1.03385,2.25408 3.0877,5.04852 4.5641,6.20986 1.47641,1.16135 2.39829,2.57445 2.04862,3.14022 -0.34967,0.56578 -0.0499,0.83703 0.66617,0.60278 0.71607,-0.23426 2.98944,1.60164 5.05194,4.07976 2.0625,2.47812 3.75,4.22442 3.75,3.88066 0,-0.34375 0.96957,0.0541 2.15456,0.88414 1.6166,1.1323 2.6456,1.2464 4.1207,0.45693 1.3161,-0.70432 1.7555,-0.71144 1.3291,-0.0215 -0.3503,0.56687 -0.1762,1.31546 0.387,1.66353 1.0566,0.65302 4.5086,-2.18731 4.5086,-3.70971 0,-0.47184 0.5708,-1.21062 1.2683,-1.64173 1.8589,-1.14885 3.1649,-6.51127 2.0647,-8.4773 -0.6232,-1.11347 -0.5646,-1.66596 0.1764,-1.66596 0.6098,0 0.855,-0.4105 0.5449,-0.91222 -0.3101,-0.50171 0.2259,-0.76114 1.191,-0.57651 0.9651,0.18464 2.0593,0.37014 2.4315,0.41222 0.3722,0.0421 1.3344,1.31401 2.1382,2.82651 0.8038,1.5125 3.1364,5.9 5.1835,9.75 2.0471,3.85 4.1775,7.5625 4.7342,8.25 0.8065,0.99595 -6.9391,1.25 -38.11022,1.25 l -39.12244,0 0,-65.55902 z m 297.49996,63.6882 c 3.216,-1.9942 4.5,-1.87154 4.5,0.42984 0,0.9994 -1.1491,1.43937 -3.75,1.43572 l -3.75,-0.005 3,-1.86029 z M 718.4284,840.20132 c -0.9882,-1.31543 -2.4773,-2.39169 -3.3091,-2.39169 -0.8317,0 -1.3558,-0.3375 -1.1645,-0.75 0.1914,-0.4125 -0.9839,-2.1 -2.6117,-3.75 -1.6278,-1.65 -2.5856,-2.325 -2.1285,-1.5 0.494,0.89153 0.4618,1.16196 -0.079,0.66667 -0.5007,-0.45834 -0.9264,-1.13334 -0.9461,-1.5 -0.02,-0.36667 -1.5067,-3.70742 -3.3045,-7.42388 -1.7979,-3.71647 -3.4088,-8.66647 -3.5799,-11 -0.171,-2.33354 -0.6446,-5.03029 -1.0524,-5.99279 -0.4283,-1.0108 -0.3084,-1.75 0.2838,-1.75 0.5638,0 1.8108,-0.30147 2.771,-0.66994 1.284,-0.49273 1.5293,-0.31961 0.9273,0.65451 -0.5609,0.90759 -0.4338,1.08661 0.4041,0.56879 0.6725,-0.41561 0.9518,-1.46167 0.6206,-2.32456 -0.3311,-0.8629 -0.024,-1.93549 0.6819,-2.38354 2.0585,-1.30619 2.6957,-0.98403 2.2838,1.15474 -0.2118,1.1 0.039,2 0.5575,2 0.5184,0 0.9425,-1.07686 0.9425,-2.39301 0,-2.55314 -2.5442,-4.29722 -3.3564,-2.30081 -0.2671,0.6566 -0.5212,0.40632 -0.5646,-0.55618 -0.093,-2.0608 -1.155,-2.23631 -3.0257,-0.5 -1.0773,1 -1.2055,1 -0.6409,0 0.465,-0.82377 0,-1.25 -1.3533,-1.25 -1.1325,0 -2.0591,-0.60062 -2.0591,-1.3347 0,-0.73409 -1.35,-2.53756 -3,-4.00772 -1.65,-1.47015 -3,-2.44863 -3,-2.1744 0,0.27424 -1.307,-0.86902 -2.9044,-2.54059 -1.5974,-1.67156 -2.7904,-3.57996 -2.651,-4.2409 1.0413,-4.93867 5.9493,-10.02883 8.7981,-9.12467 0.9963,0.31621 1.7573,0.0486 1.7573,-0.61804 0,-0.76501 0.9027,-0.94923 2.5838,-0.52731 1.804,0.45276 2.3712,0.30446 1.8794,-0.49136 -0.5196,-0.84062 -0.1778,-0.85794 1.3021,-0.066 1.1036,0.59065 3.7454,1.20577 5.8707,1.36694 3.159,0.23956 3.9237,0.71106 4.1912,2.58424 0.2652,1.8567 0.5971,2.06727 1.75,1.11039 1.1436,-0.94906 1.4291,-0.81331 1.4546,0.69163 0.031,1.79967 0.085,1.8021 1.404,0.0626 1.5763,-2.07894 2.9075,-0.74817 1.8939,1.89321 -0.519,1.35234 -0.2939,1.61688 0.9647,1.13391 0.9029,-0.34646 1.9121,-0.19225 2.2427,0.34271 0.3306,0.53495 0.9691,0.74525 1.4187,0.46733 0.4497,-0.27791 1.3476,0.13332 1.9954,0.91385 0.6478,0.78054 2.1061,1.24039 3.2406,1.02191 1.1345,-0.21849 2.9055,0.0538 3.9355,0.60502 1.3,0.69573 1.8727,0.66761 1.8727,-0.0919 0,-0.60181 0.4833,-0.79552 1.074,-0.43045 1.5798,0.97634 6.926,1.19737 6.926,0.28634 0,-0.43041 1.0788,-0.37243 2.3972,0.12885 1.3185,0.50127 2.6576,0.65101 2.9759,0.33275 0.3182,-0.31827 1.152,-0.11628 1.8528,0.44886 0.7008,0.56514 2.8491,0.93511 4.7741,0.82217 2.2642,-0.13285 4.1257,0.43089 5.2719,1.59659 1.5333,1.55938 3.5136,1.79313 14.7111,1.73641 10.266,-0.052 13.4065,0.2617 15.2007,1.51838 3.0626,2.14514 15.056,2.205 16.8163,0.0839 1.7519,-2.11081 6.6658,-1.86668 20.5,1.01846 6.6,1.37643 15.0389,2.78761 18.7531,3.13595 5.5889,0.52417 6.5555,0.87129 5.6075,2.01364 -0.6301,0.75915 -1.3635,1.16235 -1.6298,0.896 -0.6246,-0.6246 -5.5495,1.90894 -11.1209,5.72103 -2.4146,1.6521 -9.2961,4.70225 -15.2923,6.7781 -9.777,3.38471 -11.1683,3.63625 -13.4798,2.43703 l -2.5775,-1.33724 4.0124,-2.04699 c 2.2069,-1.12585 5.6437,-3.95272 7.6374,-6.28194 3.2793,-3.83106 3.4564,-4.32658 1.8575,-5.19581 -0.9722,-0.52848 -2.0988,-1.51216 -2.5037,-2.18596 -0.4752,-0.79093 -2.3652,-1.07429 -5.3332,-0.79957 -3.388,0.31359 -4.403,0.11158 -3.8593,-0.76811 0.458,-0.74114 0.3123,-0.93074 -0.3844,-0.50016 -0.6171,0.3814 -5.6243,0.86679 -11.1272,1.07865 -5.5029,0.21187 -10.5455,0.71912 -11.2059,1.12723 -1.487,0.91904 -6.9071,1.13263 -7.4262,0.29265 -0.2099,-0.33957 -2.0794,-0.23242 -4.1546,0.2381 -2.0752,0.47053 -5.4461,1.10346 -7.4909,1.40651 -2.0448,0.30305 -4.3752,1.20832 -5.1786,2.01171 -0.8034,0.8034 -1.8947,1.46072 -2.4251,1.46072 -1.6011,0 -2.1495,2.77914 -0.7737,3.92095 0.7072,0.58694 2.7055,1.3511 4.4406,1.69811 2.7529,0.55059 3.1546,1.0395 3.1546,3.83927 0,1.76459 -0.2527,3.46113 -0.5617,3.77009 -0.309,0.30897 -2.4465,-0.47158 -4.75,-1.73455 -2.3035,-1.26297 -5.7403,-2.62119 -7.6373,-3.01827 -1.897,-0.39708 -6.622,-2.01498 -10.5,-3.59535 -3.878,-1.58037 -7.1635,-2.87494 -7.301,-2.87682 -0.1375,-0.002 -0.25,1.13072 -0.25,2.51689 l 0,2.52033 -3.75,-1.91618 c -2.0625,-1.05389 -6.1577,-3.53804 -9.1004,-5.52032 -5.9059,-3.97823 -7.3195,-4.30923 -9.123,-2.13612 -0.6701,0.80742 -1.7059,1.36992 -2.3018,1.25 -0.6591,-0.13266 -1.111,1.80431 -1.1541,4.94693 -0.052,3.82555 0.2317,4.91404 1.0952,4.19735 0.8088,-0.67122 1.3669,-0.33441 1.822,1.09956 0.3609,1.13694 1.0737,1.80908 1.5841,1.49363 1.336,-0.82565 1.1441,0.92844 -0.2545,2.32705 -0.9101,0.91006 -0.4666,0.97721 1.9247,0.29139 3.4589,-0.99195 4.2578,-0.59928 4.2578,2.09278 0,1.00833 0.45,1.83333 1,1.83333 1.2826,0 4.989,3.67775 4.3502,4.31653 -0.2658,0.26576 0,0.77982 0.5833,1.14235 0.5866,0.36254 1.0846,0.0701 1.1066,-0.64986 0.022,-0.71996 0.7184,-0.0582 1.5475,1.47065 0.8578,1.58184 1.9845,2.48484 2.6144,2.09549 0.669,-0.41342 0.8247,-0.2273 0.3935,0.47033 -0.8751,1.41603 -3.5955,1.53293 -3.5955,0.15451 0,-0.55 -0.4981,-1 -1.1069,-1 -0.6089,0 -0.839,0.69837 -0.5115,1.55194 0.3275,0.85356 0.2417,1.33326 -0.1908,1.06598 -0.4324,-0.26727 -1.4398,-0.0725 -2.2385,0.43275 -1.0848,0.68627 -1.1211,0.92258 -0.1432,0.93402 0.7199,0.008 1.0448,0.44273 0.722,0.96514 -0.3229,0.5224 0.3088,1.42927 1.4037,2.01525 1.1847,0.63405 1.7581,1.67174 1.4161,2.56291 -0.316,0.82361 -0.081,2.09175 0.5214,2.81808 0.8063,0.97154 0.7698,1.35585 -0.1381,1.45399 -6.0497,0.6539 -8.0665,1.11782 -8.6059,1.97963 -0.3546,0.56649 -1.4109,-0.0381 -2.4249,-1.388 z m 8.2966,-13.39169 c 0,-0.55 -0.45,-1 -1,-1 -0.55,0 -1,-0.975 -1,-2.16667 0,-2.49419 -1.0124,-1.91148 -1.4334,0.82504 -0.2661,1.72998 0.9939,3.29182 2.6834,3.32632 0.4125,0.008 0.75,-0.43469 0.75,-0.98469 z m -3.8896,-5.25 1.1807,-2.25 -2.1886,1.94393 c -1.4921,1.32537 -2.0079,1.47323 -1.6209,0.46466 0.3893,-1.01449 -0.143,-1.53281 -1.6943,-1.64966 -1.6036,-0.1208 -1.8646,0.0752 -0.8965,0.67353 0.751,0.46416 1.0563,1.34424 0.6783,1.95574 -0.4177,0.67584 0.1065,1.1118 1.3367,1.1118 1.1131,0 2.5552,-1.0125 3.2046,-2.25 z m -5.7134,-3.58333 c 0.2833,-0.45834 -0.1203,-0.83334 -0.897,-0.83334 -0.7766,0 -1.1802,0.375 -0.897,0.83334 0.2833,0.45833 0.687,0.83333 0.897,0.83333 0.2101,0 0.6138,-0.375 0.897,-0.83333 z m -6.147,-5.82895 c -0.6875,-0.27741 -1.25,-1.31179 -1.25,-2.29861 0,-1.99975 -2.6897,-4.68274 -3.6908,-3.68161 -0.3534,0.35337 -0.043,0.6425 0.6908,0.6425 0.7334,0 1.0373,0.2961 0.6754,0.65799 -0.3619,0.3619 -0.1568,1.2619 0.4558,2 0.6125,0.73811 0.7211,1.3489 0.2413,1.35732 -0.4799,0.008 -0.1975,0.45153 0.6275,0.98469 0.825,0.53316 1.95,0.94074 2.5,0.90574 0.55,-0.035 0.4375,-0.29061 -0.25,-0.56802 z m -16.25,-37.45575 c 0,-0.55 -0.45,-0.72189 -1,-0.38197 -0.55,0.33992 -1,1.06803 -1,1.61803 0,0.55 0.45,0.72189 1,0.38197 0.55,-0.33992 1,-1.06803 1,-1.61803 z m 178.8725,21.36803 c -1.2695,-1.61876 -1.2225,-1.63998 0.6275,-0.28297 1.1,0.80687 2.1875,1.59437 2.4167,1.75 0.2292,0.15563 -0.053,0.28297 -0.6275,0.28297 -0.5744,0 -1.6619,-0.7875 -2.4167,-1.75 z M 771.225,743.82157 c -2.75,-0.40621 -7.4709,-1.04086 -10.491,-1.41034 -3.0201,-0.36948 -7.9701,-1.30229 -11,-2.0729 -7.1323,-1.81399 -17.513,-3.64836 -21.2467,-3.75452 -1.6165,-0.046 -3.4192,-0.85323 -4.0069,-1.79432 -0.6207,-0.99382 -1.9457,-1.55296 -3.1619,-1.33422 -1.1514,0.20709 -1.5469,0.11435 -0.8788,-0.2061 0.8496,-0.40753 0.549,-1.27288 -1,-2.87927 -1.2181,-1.26314 -2.4528,-2.16581 -2.7438,-2.00593 -0.291,0.15988 -0.4905,-2.26194 -0.4433,-5.38182 0.087,-5.76091 2.0644,-11.54275 3.6187,-10.58215 0.4695,0.29022 0.8537,0.14176 0.8537,-0.32991 0,-0.97436 7.7577,-9.26046 8.6699,-9.26046 0.3275,0 1.3233,-0.83914 2.2128,-1.86476 0.8896,-1.02561 2.0673,-2.02634 2.6173,-2.22384 1.0424,-0.37429 1.2325,-0.51905 8.4026,-6.39831 2.4215,-1.98548 4.9799,-3.38844 5.6854,-3.1177 0.7056,0.27074 1.4459,0.003 1.6452,-0.59497 0.8795,-2.63841 6.3637,2.58483 7.5593,7.19958 0.5753,2.22051 1.0028,22.31307 0.5032,23.64575 -0.666,1.77627 -6.3919,0.9431 -7.9247,-1.15312 -0.754,-1.03119 -1.371,-1.58537 -1.371,-1.23151 0,0.35386 -1.1907,-0.46013 -2.646,-1.80887 -3.2103,-2.97521 -4.9379,-3.09817 -6.354,-0.45225 -0.5887,1.1 -0.7031,2 -0.2544,2 0.8645,0 3.6156,5.9493 3.3714,7.29051 -0.079,0.43478 0.3225,1.66215 0.8927,2.72749 0.842,1.57337 0.7486,1.82645 -0.4979,1.34815 -1.1053,-0.42417 -1.3615,-0.13824 -0.9161,1.02251 0.3401,0.88624 1.0202,1.61134 1.5113,1.61134 0.4912,0 0.893,0.47656 0.893,1.05902 0,0.58246 -0.45,0.7809 -1,0.44098 -0.55,-0.33992 -1,-0.16724 -1,0.38373 0,0.61669 2.4025,0.80521 6.25,0.49044 4.1139,-0.33655 7.9319,0.009 11.1708,1.01077 2.7064,0.83714 5.3634,1.24847 5.9045,0.91406 0.5411,-0.33441 0.6918,-0.13564 0.335,0.44171 -0.7141,1.15536 2.0192,2.57546 3.3609,1.74622 0.4624,-0.28575 1.1663,0.007 1.5643,0.65127 0.4906,0.7938 0.2713,0.90843 -0.6809,0.35598 -2.0562,-1.19288 -0.9161,-0.0737 3.4829,3.41915 2.1382,1.69767 3.4882,3.03053 3,2.96191 -0.4881,-0.0686 -3.1375,-0.4571 -5.8875,-0.8633 z m -25.9206,-88.88352 c -0.3836,-0.62063 -1.5443,-1.12842 -2.5794,-1.12842 -1.035,0 -2.1569,-0.44485 -2.4929,-0.98855 -0.367,-0.59385 0.1085,-0.71873 1.191,-0.31276 1.5472,0.58023 1.6184,0.44981 0.5034,-0.92243 -0.9338,-1.14924 -0.9849,-1.79209 -0.1818,-2.28838 0.6142,-0.3796 0.8839,-1.29675 0.5994,-2.0381 -0.3375,-0.87959 5e-4,-1.14927 0.9728,-0.77617 0.8194,0.31446 1.3935,0.17905 1.2757,-0.30093 -0.1178,-0.47997 0.1729,-3.57268 0.646,-6.87268 0.9892,-6.89918 0.9573,-11.93163 -0.091,-14.32907 -0.4017,-0.91901 -0.911,-2.75376 -1.1317,-4.07722 -0.2208,-1.32346 -1.1383,-3.79846 -2.0389,-5.5 -0.9005,-1.70154 -1.6376,-3.99371 -1.6379,-5.09371 -3e-4,-1.1 -0.5278,-2.32579 -1.1722,-2.72398 -0.6444,-0.39819 -1.0649,-1.74819 -0.9345,-3 0.1304,-1.25181 0.2945,-2.87602 0.3647,-3.60935 0.07,-0.73334 0.6861,-1.14718 1.3687,-0.91965 0.6826,0.22753 1.873,-0.21822 2.6453,-0.99055 1.1562,-1.15613 1.5526,-1.17033 2.2436,-0.0804 0.4617,0.72814 0.8463,0.9257 0.8547,0.43903 0.01,-0.48667 0.9514,0.30511 2.0954,1.75953 1.1441,1.45441 2.5636,2.34557 3.1545,1.98035 0.5954,-0.36797 0.7875,-0.19981 0.431,0.37716 -0.354,0.57266 0.1129,1.65469 1.0374,2.40451 1.4458,1.17262 1.5601,1.1535 0.8171,-0.13669 -0.5399,-0.93747 -0.049,-0.78559 1.3081,0.40498 1.1945,1.04775 2.1718,2.22804 2.1718,2.62289 0,0.39484 0.9709,2.91259 2.1574,5.59501 1.1866,2.68241 1.9741,4.92045 1.75,4.97342 -0.224,0.053 0.189,0.81493 0.918,1.69324 1.4921,1.79789 1.9787,10.6005 0.7003,12.669 -0.5604,0.90665 -0.4553,1.11598 0.3198,0.63695 0.635,-0.39244 1.1545,-0.23697 1.1545,0.34549 0,0.58246 -0.4765,1.05902 -1.059,1.05902 -0.5824,0 -0.7763,0.45734 -0.4309,1.01631 0.3455,0.55897 1.1595,0.70662 1.809,0.32811 0.6495,-0.37852 0.3934,0.21208 -0.5691,1.31243 -0.9625,1.10035 -1.75,2.55426 -1.75,3.23091 0,0.67715 -0.5204,0.90864 -1.1575,0.51488 -0.7988,-0.49371 -0.9764,-0.0227 -0.5729,1.51998 0.4275,1.63486 0.2148,2.0935 -0.7916,1.7073 -0.899,-0.345 -1.1818,-0.0218 -0.8157,0.93235 0.3948,1.02877 0.084,1.27766 -1.0509,0.84208 -0.8969,-0.34415 -1.6114,-0.11649 -1.6114,0.51341 0,0.62246 -1.125,1.55947 -2.5,2.08224 -1.375,0.52277 -2.5,1.41164 -2.5,1.97525 0,0.56361 -0.6526,1.02475 -1.4503,1.02475 -0.7976,0 -1.8604,0.73279 -2.3616,1.62842 -0.623,1.11334 -1.1319,1.27149 -1.6087,0.5 z M 626.39171,641.14296 c -1.1217,-1.12169 -0.79296,-31.52942 0.33333,-30.83333 0.55,0.33992 1,0.14148 1,-0.44098 0,-0.58246 -0.45,-1.05902 -1,-1.05902 -0.55,0 -1,-0.47656 -1,-1.05902 0,-0.58246 0.5625,-0.72108 1.25,-0.30804 0.95906,0.57618 0.98632,0.41536 0.11712,-0.69098 -0.77767,-0.98985 -1.18872,-10.9266 -1.31099,-31.69196 l -0.17811,-30.25 9.65461,0 c 8.79541,0 9.70089,0.17699 10.17468,1.98875 0.29229,1.11772 1.01775,1.70695 1.65638,1.34534 0.62497,-0.35388 -0.0476,0.66368 -1.49455,2.26125 -1.44698,1.59756 -2.49898,3.6943 -2.33779,4.65942 0.1612,0.96512 -0.15404,1.47843 -0.70051,1.14069 -0.55334,-0.34198 -0.85782,0.20978 -0.68717,1.24524 0.16852,1.02262 -0.0464,2.42181 -0.47764,3.10931 -0.45298,0.72217 -0.31196,1.25 0.33397,1.25 0.61492,0 0.83992,0.45 0.5,1 -0.33992,0.55 -0.21668,1 0.27386,1 0.49055,0 0.78323,0.7875 0.6504,1.75 -0.44874,3.25172 -1.65261,6.25 -2.50951,6.25 -0.46859,0 -0.59296,0.675 -0.27638,1.5 0.31659,0.825 0.0509,1.5 -0.5904,1.5 -0.6413,0 -0.88737,0.45084 -0.54681,1.00187 0.34055,0.55103 -0.53289,1.43989 -1.94099,1.97525 -2.52933,0.96165 -3.55293,3.02288 -1.50115,3.02288 0.58246,0 0.7809,-0.45 0.44098,-1 -0.33992,-0.55 -0.14148,-1 0.44098,-1 1.78781,0 1.1753,1.8674 -0.99315,3.02792 -1.12869,0.60406 -1.97687,1.85739 -1.88484,2.78518 0.38659,3.89757 -0.0863,5.39192 -1.53097,4.83756 -0.80738,-0.30982 -1.73394,-0.13297 -2.05901,0.39301 -0.32508,0.52598 0.18896,0.95633 1.14229,0.95633 1.49859,0 1.42733,0.32572 -0.52619,2.40515 -2.21189,2.35445 -2.22166,2.46511 -0.46356,5.25 1.79198,2.83856 1.79144,2.84098 -0.24354,1.09485 -1.12172,-0.9625 -2.33873,-1.75 -2.70448,-1.75 -0.78816,0 -0.3373,3.67357 0.56113,4.572 0.34295,0.34294 0.39887,1.20902 0.12427,1.92461 -0.2746,0.7156 0.0509,1.64113 0.7234,2.05675 0.73439,0.45387 0.96569,0.33983 0.57919,-0.28555 -0.72212,-1.16841 1.67946,-3.5895 2.62383,-2.64513 0.88241,0.88241 5.77553,-3.21481 4.92674,-4.12538 -0.39385,-0.42252 0.29641,-0.24142 1.53391,0.40243 2.66796,1.3881 3.12868,-0.28857 0.5,-1.81963 -0.9625,-0.56061 -1.2426,-1.03297 -0.62244,-1.04969 0.62015,-0.0167 1.68775,0.64459 2.37244,1.46959 1.48185,1.78552 3.10211,1.97873 2.75,0.32792 -0.14076,-0.65994 1.06086,-1.25854 2.75,-1.36994 1.65,-0.10882 3.52037,-0.25638 4.15638,-0.32792 0.67087,-0.0755 0.93787,-1.07473 0.63594,-2.38006 l -0.52044,-2.25 1.67076,2.25 c 1.94008,2.61269 3.55736,2.92683 3.55736,0.69098 0,-0.88921 0.47766,-1.2638 1.1118,-0.87188 0.6115,0.37792 1.50461,0.067 1.98469,-0.69099 0.58568,-0.92467 0.87792,-0.98246 0.8882,-0.17562 0.0148,1.16237 5.57272,1.07343 6.75424,-0.10808 0.28822,-0.28823 1.36487,-0.074 2.39255,0.47596 1.02769,0.55 1.86852,0.59662 1.86852,0.1036 0,-1.24639 22.32066,-0.18669 23.62916,1.12181 0.3115,0.31153 1.1198,0.35406 1.7962,0.0945 0.6763,-0.25955 2.5448,0.0378 4.1522,0.66089 1.6073,0.62304 4.0474,1.3326 5.4224,1.5768 4.6494,0.82573 9,2.52181 9,3.5086 0,0.5398 0.45,0.70335 1,0.36343 0.9528,-0.58885 1.4551,0.85043 1.047,3 -0.1044,0.55 0.3591,0.46076 1.0299,-0.19831 0.9524,-0.93565 2.5215,0.0507 7.1588,4.5 5.3989,5.18009 8.3086,9.70636 9.288,14.44831 0.6254,3.02764 -0.4023,1.92304 -3.0237,-3.25 -1.3935,-2.75 -2.9457,-5 -3.4494,-5 -0.5037,0 -1.1985,-0.89086 -1.5441,-1.97969 -0.3456,-1.08882 -0.9681,-1.87632 -1.3833,-1.75 -0.4153,0.12633 -2.1879,-1.3331 -3.9391,-3.24317 -1.7512,-1.91008 -3.1841,-3.07783 -3.1841,-2.59501 0,0.48281 -0.7875,0.18737 -1.75,-0.65655 -2.9099,-2.55143 -8.237,-4.9016 -9.4338,-4.16194 -0.6826,0.42187 -0.8473,0.24579 -0.4187,-0.44768 0.4539,-0.73452 0.1631,-0.93454 -0.8139,-0.55965 -0.8362,0.32087 -1.4221,1.10322 -1.3019,1.73855 0.1201,0.63532 -0.3776,1.03149 -1.106,0.88036 -0.7284,-0.15112 -1.0564,0.15872 -0.729,0.68854 0.3275,0.52982 1.4882,0.79137 2.5793,0.58123 1.6872,-0.32491 1.8284,-0.0913 0.9438,1.56147 -0.6252,1.16831 -0.6605,1.94354 -0.088,1.94354 0.5235,0 1.1788,-0.5625 1.4563,-1.25 0.3684,-0.91313 0.5256,-0.87546 0.5833,0.13976 0.043,0.76436 0.8664,2.03523 1.8289,2.82416 1.1449,0.93836 1.2313,1.2102 0.25,0.78608 -0.825,-0.35657 -0.6265,0.0601 0.4412,0.92584 1.0676,0.86579 2.3051,1.57416 2.75,1.57416 0.4448,0 0.8088,0.52707 0.8088,1.17126 0,0.64419 0.7843,2.10669 1.7429,3.25 1.5025,1.79211 1.3902,1.7685 -0.8145,-0.17126 -1.4065,-1.2375 -2.8033,-2.25 -3.1039,-2.25 -0.3007,0 -0.789,2.67283 -1.0853,5.93963 -0.2962,3.2668 -1.5584,7.98163 -2.8048,10.4774 -2.0089,4.02247 -2.5597,4.46889 -4.8503,3.93126 -1.4212,-0.33358 -2.9864,-0.97323 -3.4781,-1.42145 -0.4917,-0.44822 0.1833,-0.55888 1.5,-0.24592 2.319,0.55119 2.3324,0.52137 0.4275,-0.95089 -1.583,-1.22343 -2.1682,-1.27025 -3,-0.24001 -0.5684,0.70395 -1.7085,1.52115 -2.5335,1.816 -1.0685,0.3819 -0.9247,0.5632 0.5,0.63034 1.1,0.0518 2.6043,0.47726 3.3429,0.94537 0.7726,0.48964 -4.3238,0.80166 -12,0.73468 -13.2412,-0.11552 -13.4024,-0.14486 -21.16204,-3.84997 -4.30054,-2.05346 -7.568,-4.13997 -7.26101,-4.6367 0.30699,-0.49672 -0.0718,-1.42597 -0.84179,-2.06499 -0.91865,-0.76241 -1.61484,-0.81418 -2.02496,-0.1506 -0.39405,0.63759 -1.81266,0.36239 -3.83903,-0.74473 -1.76772,-0.9658 -5.06903,-2.46523 -7.33625,-3.33207 -4.01824,-1.53632 -4.10885,-1.52498 -3.59247,0.44966 0.40413,1.54542 0.196,1.82459 -0.87779,1.1774 -1.19928,-0.72282 -1.20447,-0.59801 -0.0351,0.84363 0.75485,0.93058 0.97985,1.69885 0.5,1.70727 -0.47984,0.008 -0.19744,0.45153 0.62756,0.98469 1.2819,0.82843 1.24555,0.9716 -0.25,0.98469 -0.9625,0.008 -1.75,0.45119 -1.75,0.98392 0,0.53274 0.71956,0.6925 1.59902,0.35502 1.4,-0.53723 1.43229,-0.34663 0.25945,1.53138 -0.73676,1.17975 -2.13132,2.14499 -3.09902,2.14499 -0.9677,0 -1.76634,0.5625 -1.77476,1.25 -0.01,0.80447 -0.27718,0.88165 -0.75,0.21654 -0.40408,-0.5684 -1.29719,-0.96215 -1.98469,-0.875 -0.6875,0.0872 -1.64752,0.21471 -2.13337,0.28346 -0.48585,0.0688 -1.13056,1.07028 -1.43269,2.22562 -0.30213,1.15533 -1.02446,1.80696 -1.60518,1.44806 -0.66384,-0.41028 -0.81137,-0.0154 -0.39737,1.06343 0.47219,1.23049 0.29718,1.49268 -0.61859,0.92671 -0.94628,-0.58484 -1.10235,-0.2388 -0.60255,1.33595 0.68523,2.15895 0.41094,2.66308 -0.79358,1.45856 z m 56.61899,-11.31775 c 0.2899,-1.10857 0.1717,-2.01558 -0.2627,-2.01558 -0.4344,0 -1.0023,1.11138 -1.2619,2.46974 -0.553,2.89259 0.751,2.50417 1.5246,-0.45416 z m 10.9925,0.86256 c -0.617,-0.61702 -0.8896,-1.85452 -0.6057,-2.75 0.42,-1.32467 0.3295,-1.36546 -0.4856,-0.21882 -1.1571,1.6278 -0.4827,4.09068 1.1201,4.09068 0.7736,0 0.7651,-0.3279 -0.029,-1.12186 z m 10.0992,-1.12814 c 1.3082,-1.32461 2.8502,-4.75 2.1383,-4.75 -1.955,0 -5.5157,2.68587 -5.5157,4.16051 0,2.12307 1.5889,2.4004 3.3774,0.58949 z m -24.2533,-3.01667 c -0.9876,-0.98026 -1.1025,-0.8654 -0.5598,0.5598 0.3756,0.98622 0.9347,1.54122 1.2426,1.23333 0.3079,-0.30789 6e-4,-1.11479 -0.6828,-1.79313 z m 6.3759,1.26667 c -0.3399,-0.55 -0.8164,-1 -1.059,-1 -0.2425,0 -0.441,0.45 -0.441,1 0,0.55 0.4766,1 1.0591,1 0.5824,0 0.7809,-0.45 0.4409,-1 z m 13.5,-1 c 0,-0.55 -0.4765,-1 -1.059,-1 -0.5824,0 -0.7809,0.45 -0.441,1 0.34,0.55 0.8165,1 1.0591,1 0.2425,0 0.4409,-0.45 0.4409,-1 z m -1.8125,-2.68311 c -0.7218,-0.28888 -1.5843,-0.25335 -1.9166,0.0789 -0.3323,0.33229 0.2583,0.56864 1.3125,0.52522 1.1649,-0.048 1.4019,-0.28495 0.6041,-0.60417 z m 3.8125,-3.31689 c 2.2586,-2.25855 2.5012,-4.1951 0.9003,-7.18642 -0.6972,-1.30266 -0.7225,-1.82175 -0.069,-1.41795 0.5668,0.35035 1.3202,0.1685 1.6741,-0.4041 0.3539,-0.57259 0.2725,-0.97664 -0.1809,-0.89789 -2.0163,0.35026 -3.3918,-0.17546 -2.8314,-1.08219 0.357,-0.57775 -0.069,-0.7277 -1.0249,-0.36083 -1.3091,0.50238 -1.3694,0.79653 -0.3019,1.47323 0.9031,0.57249 0.3651,0.86074 -1.6662,0.89264 -1.65,0.0259 -3.7875,0.64491 -4.75,1.37556 -2.4675,1.87312 -2.2154,6.16853 0.4725,8.05125 2.9913,2.09517 5.3749,1.95931 7.7775,-0.4433 z m 5.8938,-7.19855 c -0.9261,-1.73048 -3.8938,-1.45263 -3.8938,0.36456 0,0.52361 0.4801,0.65531 1.0669,0.29265 0.5868,-0.36265 0.9835,-0.0517 0.8815,0.69099 -0.4686,3.41427 0.051,4.23399 1.4606,2.30569 0.9562,-1.30766 1.112,-2.48191 0.4848,-3.65389 z m -57.39432,-0.62074 c -0.50151,-0.52555 -4.49944,2.23471 -4.49944,3.10652 0,0.44338 1.08093,-0.002 2.40206,-0.99055 1.32113,-0.98817 2.26495,-1.94036 2.09738,-2.11597 z m 47.50052,-3.73973 c 0,-0.24254 -0.7015,-0.44098 -1.559,-0.44098 -0.8574,0 -1.2763,0.45734 -0.9309,1.01631 0.5708,0.92358 2.4899,0.48015 2.4899,-0.57533 z m -9.2074,-0.69098 c 0.7812,-0.94131 0.441,-1.25 -1.3776,-1.25 -2.5825,0 -3.2214,1.00791 -1.165,1.83772 0.6875,0.27741 1.3074,0.53991 1.3776,0.58333 0.07,0.0434 0.5944,-0.48355 1.165,-1.17105 z m 4.2074,0.25 c 0,-0.55 -0.4765,-1 -1.059,-1 -0.5824,0 -0.7809,0.45 -0.441,1 0.34,0.55 0.8165,1 1.0591,1 0.2425,0 0.4409,-0.45 0.4409,-1 z m 10,-8.8 c 0,-1.5045 -2.242,-3.04436 -3.6473,-2.50507 -1.0756,0.41273 -1.1354,0.86197 -0.2557,1.92185 1.2387,1.49256 3.903,1.89069 3.903,0.58322 z m -8.467,-3.00034 c -0.8125,-0.81255 -8.533,-1.13686 -8.533,-0.35844 0,0.40271 2.028,0.75611 4.5066,0.78533 2.4785,0.0292 4.2904,-0.16288 4.0264,-0.42689 z m 179.5082,41.66161 c -7.2721,-1.20552 -9.2164,-2.66339 -11.2985,-8.4721 -2.9502,-8.23024 -1.7793,-19.38917 2.0345,-19.38917 0.9638,0 1.2793,-0.67622 0.9331,-2 -0.3473,-1.32806 -0.031,-2 0.9424,-2 0.8109,0 1.1618,0.49118 0.7857,1.09977 -0.4381,0.70878 0.1631,0.66062 1.691,-0.13546 3.2842,-1.7112 3.7732,-2.33634 1.2129,-1.55043 -1.7274,0.53025 -2.4617,0.0531 -3.6818,-2.39261 -0.944,-1.89247 -1.0743,-2.77278 -0.3422,-2.31343 1.886,1.18343 5.4816,1.42496 6.1087,0.41034 0.3163,-0.51173 1.4746,-0.69518 2.574,-0.40767 1.2044,0.31496 1.999,0.0302 1.999,-0.71632 0,-0.93289 0.4181,-0.89993 1.692,0.13336 1.4594,1.18377 1.5704,1.16624 0.808,-0.12755 -0.7624,-1.29379 -0.6513,-1.31132 0.8081,-0.12756 1.2056,0.97795 1.6919,1.03044 1.6919,0.18262 0,-0.73476 0.765,-0.94705 2,-0.55506 1.3064,0.41463 2.0054,0.1779 2.0154,-0.68261 0.012,-1.06022 0.1831,-1.05253 0.875,0.0394 0.6587,1.03964 1.0349,1.07312 1.6096,0.14323 0.4566,-0.73879 0.9945,-0.83328 1.375,-0.24154 0.9057,1.40839 5.5611,2.75612 4.6983,1.36013 -0.4295,-0.69507 -0.089,-0.86987 0.9323,-0.47809 0.9321,0.35768 1.3651,1.25407 1.029,2.12999 -0.4318,1.12519 -0.2544,1.24791 0.6926,0.47932 2.0193,-1.63891 9.4003,-0.89693 11.6899,1.17515 1.1265,1.01949 4.4185,2.42767 7.3156,3.12929 2.897,0.70161 4.3673,1.32762 3.2673,1.39112 -1.8973,0.10952 -1.906,0.17007 -0.1702,1.17934 1.0063,0.58514 3.9313,1.41853 6.5,1.85198 4.1331,0.69744 4.2789,0.8016 1.2672,0.9057 l -3.403,0.11762 2.306,2 c 1.2684,1.1 3.0247,2.04559 3.9031,2.10132 4.1297,0.262 8.9005,-0.41754 12.0005,-1.70932 1.8719,-0.78004 3.6218,-1.19994 3.8887,-0.93311 0.6004,0.60044 -3.8459,2.44432 -9.7165,4.0294 l -4.4243,1.19457 3.1743,1.10655 c 4.1421,1.44395 4.019,1.90761 -0.3704,1.39517 -2.3233,-0.27123 -4.1514,0.13538 -5.3058,1.18011 -1.6441,1.48785 -1.7483,1.40674 -1.5666,-1.21872 0.1071,-1.54695 -0.3177,-2.81718 -0.9441,-2.82273 -0.6264,-0.006 -3.0514,-0.93971 -5.3889,-2.07592 -2.3375,-1.1362 -4.25,-1.69079 -4.25,-1.23241 0,0.45837 2.2316,1.88003 4.9591,3.15925 2.7274,1.27921 4.9774,2.6749 5,3.10152 0.056,1.0547 -5.4825,-1.8309 -10.9591,-5.71007 l -4.5,-3.18744 -0.2257,5.97978 c -0.2545,6.74304 -2.8368,15.58145 -4.6046,15.76053 -0.6433,0.0652 -1.7773,0.0351 -2.52,-0.0669 -0.7427,-0.10195 -1.0545,0.29337 -0.6929,0.8785 0.4573,0.73988 -0.1212,0.76779 -1.8996,0.0916 -1.4064,-0.53473 -2.564,-0.64587 -2.5725,-0.24698 -0.01,0.39889 -0.5008,0.0503 -1.0943,-0.77475 -0.9225,-1.28247 -1.0011,-1.25592 -0.5418,0.18308 0.3983,1.24748 -0.2428,1.85443 -2.4771,2.34516 -3.2821,0.72086 -4.4484,0.21424 -3.4025,-1.47802 0.3681,-0.59557 1.2006,-0.76412 1.8501,-0.37457 0.662,0.397 0.5733,-0.0407 -0.2017,-0.99602 -1.0589,-1.30515 -1.7029,-1.43853 -2.75,-0.56952 -1.0037,0.83297 -1.3674,0.83625 -1.3674,0.0123 0,-0.61734 -0.6483,-1.12244 -1.4407,-1.12244 -2.3048,0 0.8925,5.35235 3.6739,6.15032 3.4374,0.98614 -10.9598,0.74408 -17.192,-0.28905 z m 5.9268,-2.6946 c -0.5324,-0.18334 -0.968,-0.79398 -0.968,-1.35699 0,-0.56301 0.646,-0.77579 1.4354,-0.47285 0.7895,0.30295 1.5935,0.0767 1.7866,-0.50266 0.1931,-0.57941 1.0097,-0.24488 1.8146,0.74341 1.3138,1.61308 1.2844,1.7298 -0.2866,1.14104 -1.1491,-0.43068 -1.75,-0.17191 -1.75,0.75375 0,1.96866 1.9576,2.97005 3.2601,1.66762 1.6642,-1.66419 -0.7197,-5.96626 -3.7238,-6.72025 -2.9083,-0.72993 -6.5717,0.30227 -4.9122,1.38405 0.5874,0.38292 1.3932,2.02274 1.7907,3.64405 0.5567,2.271 0.9291,2.61541 1.6219,1.5 0.5471,-0.88086 0.5202,-1.57837 -0.069,-1.78117 z m -7.968,-2.13529 c 0,-0.53273 -0.675,-0.70959 -1.5,-0.39301 -0.825,0.31659 -1.5,0.75246 -1.5,0.96862 0,0.21615 0.675,0.39301 1.5,0.39301 0.825,0 1.5,-0.43588 1.5,-0.96862 z m 33.0454,-0.38501 c -0.4709,-0.47145 -1.6613,-0.40103 -2.659,0.15729 -1.5538,0.86954 -1.4345,0.98892 0.8526,0.85363 1.4678,-0.0868 2.277,-0.5397 1.8064,-1.01092 z m 1.4119,-3.71547 c -0.8572,-1.38704 -1.4573,-1.12841 -1.4573,0.62812 0,0.85746 0.4574,1.27636 1.0164,0.9309 0.5589,-0.34547 0.7574,-1.04702 0.4409,-1.55902 z m -35.4573,-0.39952 c 0,-0.81654 0.5949,-1.24034 1.3398,-0.95449 0.7369,0.28277 1.926,-0.19223 2.6425,-1.05555 1.5606,-1.88033 0.4937,-3.39726 -1.1989,-1.70467 -0.6509,0.65083 -2.5559,1.19764 -4.2334,1.21513 -2.7362,0.0285 -2.8715,0.16728 -1.3155,1.34888 0.954,0.72439 1.4415,1.61008 1.0833,1.9682 -0.3581,0.35811 -0.1261,0.65112 0.5156,0.65112 0.6416,0 1.1666,-0.66088 1.1666,-1.46862 z m 32,0.46862 c -1,-0.64625 -1.0833,-0.97448 -0.25,-0.98469 0.6875,-0.008 1.2357,-0.80281 1.2182,-1.76531 -0.029,-1.6011 -0.154,-1.58856 -1.4679,0.14732 -1.5239,2.01326 -1.1633,3.61272 0.8088,3.58737 0.7156,-0.009 0.5922,-0.40223 -0.3091,-0.98469 z m -2.6492,-8.4717 c 1.0769,-2.80631 -1.014,-6.08938 -4.5739,-7.18196 -2.8336,-0.86964 -3.7988,-0.74696 -5.6003,0.71175 -3.6509,2.95637 -2.2223,9.13021 2.3484,10.14866 2.4512,0.54619 7.0307,-1.60632 7.8258,-3.67845 z m -22.3508,-3.30956 c 0,-0.18523 -0.45,-0.0587 -1,0.28126 -0.55,0.33992 -1,0.16803 -1,-0.38197 0,-0.55 0.45,-1.27811 1,-1.61803 0.55,-0.33992 1,-1.34148 1,-2.22568 0,-0.88421 -0.3015,-1.30608 -0.6701,-0.93748 -0.3686,0.3686 -1.7186,-0.0168 -3,-0.85639 -2.8727,-1.88226 -3.009,-1.15957 -0.2934,1.55602 2.2558,2.25574 1.8116,4.22619 -0.7325,3.24992 -0.8976,-0.34445 -1.4026,-0.2123 -1.1222,0.29367 0.2804,0.50597 0.7923,1.71323 1.1376,2.6828 0.5962,1.67432 0.7295,1.67572 2.6542,0.0278 1.1145,-0.95431 2.0264,-1.88665 2.0264,-2.07188 z m 27.5,0.78126 c -0.3399,-0.55 -0.8164,-1 -1.059,-1 -0.2425,0 -0.441,0.45 -0.441,1 0,0.55 0.4766,1 1.0591,1 0.5824,0 0.7809,-0.45 0.4409,-1 z m -2.5,-2.55902 c 0,-0.24254 -0.45,-0.44098 -1,-0.44098 -0.55,0 -1,0.47656 -1,1.05902 0,0.58246 0.45,0.7809 1,0.44098 0.55,-0.33992 1,-0.81648 1,-1.05902 z m -21,-2.98895 c 0,-1.18139 -1.8907,-1.17914 -2.3442,0.003 -0.3695,0.96277 -0.071,1.25819 0.8952,0.88727 0.797,-0.30585 1.449,-0.70638 1.449,-0.89007 z m 5,0.54797 c 0,-0.55 -0.45,-1 -1,-1 -0.55,0 -1,0.45 -1,1 0,0.55 0.45,1 1,1 0.55,0 1,-0.45 1,-1 z m -3.8759,-2.26667 c -0.9876,-0.98026 -1.1024,-0.8654 -0.5598,0.5598 0.3756,0.98622 0.9347,1.54122 1.2426,1.23333 0.3079,-0.30789 7e-4,-1.11479 -0.6828,-1.79313 z m -7.9029,-7.59943 c -0.3945,-1.02801 -0.7205,-1.13573 -0.9901,-0.32711 -0.221,0.66312 -0.883,0.90834 -1.471,0.54493 -0.588,-0.3634 -0.7943,-0.21621 -0.4586,0.3271 1.0128,1.63873 3.5742,1.16068 2.9197,-0.54492 z m 24.2859,32.87755 c -0.3503,-0.56686 0.051,-0.7345 0.941,-0.39301 1.7324,0.66479 2.0494,1.38156 0.611,1.38156 -0.5176,0 -1.216,-0.44485 -1.552,-0.98855 z M 726.475,635.1203 c -1.2372,-0.32332 -1.75,-1.46138 -1.75,-3.88399 0,-1.88468 -0.3975,-3.42668 -0.8833,-3.42668 -0.4859,0 -1.1098,-0.7875 -1.3866,-1.75 -0.2767,-0.9625 -0.8649,-2.63526 -1.307,-3.71724 -0.6694,-1.63852 -0.5631,-1.76636 0.6366,-0.76508 0.7922,0.6612 2.8603,2.33814 4.5958,3.72655 3.6917,2.95343 5.743,7.70736 4.0543,9.39604 -0.6104,0.61035 -1.3573,1.05753 -1.6598,0.99373 -0.3025,-0.0638 -1.3375,-0.3218 -2.3,-0.57333 z m 214.5,-14 c 0.9625,-0.25152 2.5375,-0.25152 3.5,0 0.9625,0.25153 0.175,0.45733 -1.75,0.45733 -1.925,0 -2.7125,-0.2058 -1.75,-0.45733 z m -28,-17 c 0.9625,-0.25152 2.5375,-0.25152 3.5,0 0.9625,0.25153 0.175,0.45733 -1.75,0.45733 -1.925,0 -2.7125,-0.2058 -1.75,-0.45733 z m -280.74996,-2.31067 c 0.33992,-0.55 1.06803,-1 1.61803,-1 0.55,0 0.72189,0.45 0.38197,1 -0.33992,0.55 -1.06803,1 -1.61803,1 -0.55,0 -0.72189,-0.45 -0.38197,-1 z M 876.725,597.9763 c 0,-0.45834 0.6553,-0.83334 1.4561,-0.83334 0.8008,0 1.2242,0.375 0.9409,0.83334 -0.2832,0.45833 -0.9384,0.83333 -1.456,0.83333 -0.5175,0 -0.941,-0.375 -0.941,-0.83333 z m -245.99996,-3.77432 c 0,-0.82763 1.94173,-1.29565 2.38691,-0.57533 0.28881,0.46731 -0.13009,0.84965 -0.9309,0.84965 -0.8008,0 -1.45601,-0.12345 -1.45601,-0.27432 z"
         id="path3056"
         style="fill:#000000" />
    </g>
  </g>
</svg>
