<?xml version="1.0" encoding="UTF-8" standalone="no"?>
<!-- Created with Inkscape (http://www.inkscape.org/) -->

<svg
   xmlns:dc="http://purl.org/dc/elements/1.1/"
   xmlns:cc="http://creativecommons.org/ns#"
   xmlns:rdf="http://www.w3.org/1999/02/22-rdf-syntax-ns#"
   xmlns:svg="http://www.w3.org/2000/svg"
   xmlns="http://www.w3.org/2000/svg"
   version="1.1"
   width="55"
   height="55"
   id="svg4138">
  <defs
     id="defs4140" />
  <metadata
     id="metadata4143">
    <rdf:RDF>
      <cc:Work
         rdf:about="">
        <dc:format>image/svg+xml</dc:format>
        <dc:type
           rdf:resource="http://purl.org/dc/dcmitype/StillImage" />
        <dc:title></dc:title>
      </cc:Work>
    </rdf:RDF>
  </metadata>
  <g
     transform="translate(0,-997.36218)"
     id="layer1">
    <rect
       width="44.497959"
       height="44.497959"
       ry="0"
       x="5.2510214"
       y="1002.6132"
       id="rect4789"
       style="fill:#c0c0c0;fill-opacity:1;fill-rule:nonzero;stroke:#c0c0c0;stroke-width:10.50204277;stroke-linecap:square;stroke-linejoin:round;stroke-miterlimit:4;stroke-opacity:1;stroke-dasharray:none;stroke-dashoffset:0" />
    <g
       transform="matrix(0.09166676,0,0,0.09166676,11.392835,921.78305)"
       id="g4231"
       style="stroke:#000000;stroke-opacity:1">
      <g
         transform="translate(-124.28535,122.31146)"
         id="layer1-0"
         style="stroke:#000000;stroke-opacity:1">
        <g
           id="g3836"
           style="stroke:#000000;stroke-opacity:1">
          <path
             d="m 189.36512,795.09433 c 22.2049,4.57289 39.65255,13.60803 54.63845,27.79851 5.82185,5.58038 10.86979,12.47939 13.41997,20.12995 3.64313,10.92938 3.72637,23.13088 1.91714,34.5085 -2.90735,18.28333 -10.61556,35.88165 -20.12995,51.76274 -10.59773,17.68938 -23.93941,34.36566 -40.25991,46.96991 -21.37604,16.5086 -46.35091,30.25176 -72.85128,35.46706 -19.47799,3.8333 -41.21539,4.0567 -59.431295,-3.8343 C 47.377417,999.54009 31.513035,982.76427 20.656919,964.7611 10.049414,947.17021 5.1147028,925.85761 4.361243,905.3298 3.6326265,885.4787 5.837951,864.00566 15.86407,846.85707 26.044643,829.4443 44.231979,817.33113 61.875396,807.55573 c 15.822774,-8.76667 33.883599,-13.54784 51.762744,-16.29568 25.55956,-1.29621 52.33526,0.0824 75.72698,3.83428 z"
             id="path3050"
             style="fill:#000000;fill-opacity:1;stroke:#000000;stroke-width:8.4673624;stroke-linecap:butt;stroke-linejoin:miter;stroke-miterlimit:4;stroke-opacity:1;stroke-dasharray:none" />
          <path
             d="m 41.745444,896.70268 c -6.981137,-0.6094 -11.943714,-8.76601 -14.378538,-15.33711 -2.555831,-6.89769 -1.277573,-15.03924 0.958565,-22.0471 3.933538,-12.32733 11.237689,-24.20107 21.088525,-32.59135 6.643865,-5.6588 15.42386,-8.74846 23.964236,-10.54427 6.879072,-1.44648 15.167324,-3.78858 21.088525,0 3.853582,2.46565 6.208913,7.90946 5.751413,12.4614 -0.594366,5.91368 -6.794202,9.76748 -10.544262,14.37854 -5.424615,6.67011 -11.813638,12.51432 -17.254249,19.17139 -6.794,8.31306 -11.602395,18.2672 -19.171387,25.88137 -3.378952,3.39913 -6.728141,9.04392 -11.502828,8.62713 z"
             id="path3820"
             style="fill:#ffffff;fill-opacity:1;stroke:#000000;stroke-width:0.84673625px;stroke-linecap:butt;stroke-linejoin:miter;stroke-opacity:1" />
          <path
             d="m 218.45365,803.24217 77.31235,0"
             id="path3822"
             style="fill:none;stroke:#000000;stroke-width:8.4673624;stroke-linecap:square;stroke-linejoin:miter;stroke-miterlimit:4;stroke-opacity:1;stroke-dasharray:none" />
          <path
             d="m 257.42354,843.02279 c 0,0 10.4078,-6.86417 16.29568,-8.62712 6.45711,-1.93339 22.04678,-1.91714 22.04678,-1.91714"
             id="path3824"
             style="fill:none;stroke:#000000;stroke-width:8.4673624;stroke-linecap:square;stroke-linejoin:miter;stroke-miterlimit:4;stroke-opacity:1;stroke-dasharray:none" />
        </g>
      </g>
      <path
         d="m 286.3489,917.40579 c -22.2049,4.57289 -39.65255,13.60803 -54.63845,27.79851 -5.82185,5.58038 -10.86979,12.47939 -13.41997,20.12995 -3.64313,10.92938 -3.72637,23.13088 -1.91714,34.5085 2.90735,18.28335 10.61556,35.88165 20.12995,51.76275 10.59773,17.6894 23.93941,34.3657 40.25991,46.9699 21.37604,16.5086 46.35091,30.2518 72.85128,35.4671 19.47799,3.8333 41.21539,4.0567 59.43129,-3.8343 19.29083,-8.3567 35.15521,-25.1325 46.01133,-43.1356 10.60751,-17.5909 15.54222,-38.9035 16.29568,-59.4313 0.72861,-19.8511 -1.47671,-41.32418 -11.50283,-58.47277 -10.18057,-17.41277 -28.36791,-29.52594 -46.01133,-39.30134 -15.82277,-8.76667 -33.8836,-13.54784 -51.76274,-16.29568 -25.55956,-1.29621 -52.33526,0.0824 -75.72698,3.83428 z"
         id="path3050-8"
         style="fill:#000000;fill-opacity:1;stroke:#000000;stroke-width:8.4673624;stroke-linecap:butt;stroke-linejoin:miter;stroke-miterlimit:4;stroke-opacity:1;stroke-dasharray:none" />
      <path
         d="m 251.22929,1019.0141 c -6.98113,-0.6094 -11.94371,-8.766 -14.37853,-15.3371 -2.55583,-6.89766 -1.27758,-15.03921 0.95856,-22.04707 3.93354,-12.32733 11.23769,-24.20107 21.08853,-32.59135 6.64386,-5.6588 15.42386,-8.74846 23.96423,-10.54427 6.87907,-1.44648 15.16733,-3.78858 21.08853,0 3.85358,2.46565 6.20891,7.90946 5.75141,12.4614 -0.59437,5.91368 -6.7942,9.76748 -10.54426,14.37854 -5.42462,6.67011 -11.81364,12.51432 -17.25425,19.17139 -6.794,8.31306 -11.6024,18.26716 -19.17139,25.88136 -3.37895,3.3991 -6.72814,9.0439 -11.50283,8.6271 z"
         id="path3820-2"
         style="fill:#ffffff;fill-opacity:1;stroke:#000000;stroke-width:0.84673625px;stroke-linecap:butt;stroke-linejoin:miter;stroke-opacity:1" />
      <path
         d="m 257.26037,925.55363 -77.31235,0"
         id="path3822-5"
         style="fill:none;stroke:#000000;stroke-width:8.4673624;stroke-linecap:square;stroke-linejoin:miter;stroke-miterlimit:4;stroke-opacity:1;stroke-dasharray:none" />
      <path
         d="m 218.29048,965.33425 c 0,0 -10.4078,-6.86417 -16.29568,-8.62712 -6.45711,-1.93339 -22.04678,-1.91714 -22.04678,-1.91714"
         id="path3824-1"
         style="fill:none;stroke:#000000;stroke-width:8.4673624;stroke-linecap:square;stroke-linejoin:miter;stroke-miterlimit:4;stroke-opacity:1;stroke-dasharray:none" />
    </g>
  </g>
</svg>
