<?xml version="1.0" encoding="UTF-8" standalone="no"?>
<svg
   xmlns:dc="http://purl.org/dc/elements/1.1/"
   xmlns:cc="http://creativecommons.org/ns#"
   xmlns:rdf="http://www.w3.org/1999/02/22-rdf-syntax-ns#"
   xmlns:svg="http://www.w3.org/2000/svg"
   xmlns="http://www.w3.org/2000/svg"
   xmlns:sodipodi="http://sodipodi.sourceforge.net/DTD/sodipodi-0.dtd"
   xmlns:inkscape="http://www.inkscape.org/namespaces/inkscape"
   version="1.1"
   x="0px"
   y="0px"
   viewBox="0 0 100 125"
   enable-background="new 0 0 100 100"
   xml:space="preserve"
   id="svg2"
   inkscape:version="0.91 r13725"
   sodipodi:docname="tool-effects.svg"><metadata
     id="metadata22"><rdf:RDF><cc:Work
         rdf:about=""><dc:format>image/svg+xml</dc:format><dc:type
           rdf:resource="http://purl.org/dc/dcmitype/StillImage" /></cc:Work></rdf:RDF></metadata><defs
     id="defs20" /><sodipodi:namedview
     pagecolor="#ffffff"
     bordercolor="#666666"
     borderopacity="1"
     objecttolerance="10"
     gridtolerance="10"
     guidetolerance="10"
     inkscape:pageopacity="0"
     inkscape:pageshadow="2"
     inkscape:window-width="1676"
     inkscape:window-height="1011"
     id="namedview18"
     showgrid="false"
     inkscape:zoom="5.3400704"
     inkscape:cx="57.004169"
     inkscape:cy="79.750679"
     inkscape:window-x="0"
     inkscape:window-y="18"
     inkscape:window-maximized="0"
     inkscape:current-layer="svg2" /><rect
     x="30.312"
     y="26.455"
     transform="matrix(-0.7072 -0.7071 0.7071 -0.7072 14.1629 136.3214)"
     fill="#000000"
     width="10"
     height="77.546"
     id="rect4"
     style="stroke:#000000;fill:#ffffff" /><rect
     x="63.865"
     y="26.091"
     transform="matrix(0.7071 -0.7071 0.7071 0.7071 -1.6433 58.216)"
     width="11.166"
     height="10"
     id="rect6"
     fill="#000000"
     style="fill:#ffffff;stroke:#000000" /><polygon
     fill="#000000"
     points="41.438,33.689 44.266,28.518 49.438,25.689 44.266,22.861 41.438,17.689 38.609,22.861   33.438,25.689 38.609,28.518 "
     id="polygon8"
     style="fill:#ffffff;stroke:#000000" /><polygon
     fill="#000000"
     points="54.437,17.356 56.205,14.124 59.438,12.355 56.205,10.588 54.437,7.355 52.669,10.588   49.437,12.355 52.669,14.124 "
     id="polygon10"
     style="fill:#ffffff;stroke:#000000" /><polygon
     fill="#000000"
     points="87.148,42.767 84.437,37.811 81.726,42.767 76.77,45.478 81.726,48.188 84.437,53.145   87.148,48.188 92.104,45.478 "
     id="polygon12"
     style="stroke:#000000;fill:#ffffff" /></svg>