<?xml version="1.0" encoding="utf-8"?>
<!-- Generator: Adobe Illustrator 13.0.0, SVG Export Plug-In . SVG Version: 6.00 Build 14948)  -->
<!DOCTYPE svg PUBLIC "-//W3C//DTD SVG 1.1//EN" "http://www.w3.org/Graphics/SVG/1.1/DTD/svg11.dtd">
<svg version="1.1" xmlns="http://www.w3.org/2000/svg" xmlns:xlink="http://www.w3.org/1999/xlink" x="0px" y="0px" width="55px"
	 height="55px" viewBox="0 0 55 55" enable-background="new 0 0 55 55" xml:space="preserve">

<g id="Eraser" >
	<g display="inline">
		<path fill="#FFFFFF" d="M15.621,33.853c-1.1,0-1.424-0.691-0.721-1.536l14.249-17.109c0.704-0.845,2.18-1.537,3.28-1.537h7.805
			c1.1,0,1.424,0.691,0.721,1.537L26.706,32.316c-0.704,0.845-2.18,1.536-3.28,1.536H15.621z"/>
		<path fill="#FFFFFF" d="M24.709,41.155c-0.166,1.088-1.2,1.978-2.301,1.978h-8.525c-1.1,0-1.865-0.89-1.7-1.978l0.549-3.62
			c0.165-1.088,1.2-1.978,2.3-1.978h8.525c1.101,0,1.865,0.89,1.701,1.978L24.709,41.155z"/>
		<path fill="#FFFFFF" d="M40.446,23.333c-0.189,1.083-0.921,2.662-1.625,3.507L27.471,40.467c-0.705,0.846-1.125,0.65-0.936-0.434
			l0.646-3.688c0.19-1.083,0.921-2.661,1.626-3.506l11.35-13.627c0.705-0.845,1.125-0.65,0.936,0.434L40.446,23.333z"/>
	</g>
</g>

</svg>
