<?xml version="1.0" encoding="utf-8"?>
<!-- Generator: Adobe Illustrator 13.0.0, SVG Export Plug-In . SVG Version: 6.00 Build 14948)  -->
<!DOCTYPE svg PUBLIC "-//W3C//DTD SVG 1.1//EN" "http://www.w3.org/Graphics/SVG/1.1/DTD/svg11.dtd">
<svg version="1.1" xmlns="http://www.w3.org/2000/svg" xmlns:xlink="http://www.w3.org/1999/xlink" x="0px" y="0px" width="55px"
	 height="55px" viewBox="0 0 55 55" enable-background="new 0 0 55 55" xml:space="preserve">

<g id="Pencil" >
	<g display="inline">
		<path fill="#FFFFFF" d="M12.727,45.969c-0.053,0.132-0.02,0.281,0.09,0.373s0.264,0.103,0.385,0.025l4.635-2.984l-3.009-2.407
			L12.727,45.969z M42.967,14.071c0-0.073-0.004-0.15-0.014-0.227c-0.112-0.949-0.903-2.109-2.062-3.025
			c-1.16-0.915-2.474-1.413-3.424-1.304c-0.414,0.052-0.747,0.228-0.973,0.491l-0.021-0.015L19.716,32.17l-0.073,0.073l-0.011,0.015
			c-0.026,0.029-0.029,0.069-0.05,0.103l-2.177,2.677c0,0,0.128,0.099,0.256,0.201l-0.002,0.004l-0.009,0.011
			c-0.128-0.103-0.252-0.197-0.252-0.197l-0.042,0.051c-0.097,0.121-0.155,0.271-0.203,0.429c-0.015,0.019-0.046,0.025-0.057,0.048
			l-1.361,3.236l4.097,3.278l3.202-2.062c0.019-0.011,0.015-0.037,0.031-0.052c0.083-0.065,0.178-0.121,0.243-0.201
			c0.008-0.011,0.043-0.059,0.048-0.062l2.237-2.79l0.033-0.033l-0.004-0.004l0.023-0.029l0.006,0.004L42.59,15.02
			c0.029-0.029,0.071-0.044,0.1-0.077c0.032-0.044,0.049-0.103,0.076-0.15l0.015-0.019l-0.003-0.003
			C42.895,14.566,42.967,14.339,42.967,14.071z"/>
	</g>
</g>

</svg>
