<?xml version="1.0" standalone="no"?>
<!DOCTYPE svg PUBLIC "-//W3C//DTD SVG 20010904//EN"
 "http://www.w3.org/TR/2001/REC-SVG-20010904/DTD/svg10.dtd">
<svg version="1.0" xmlns="http://www.w3.org/2000/svg"
 width="44pt" height="44pt" viewBox="0 0 312.000000 312.000000"
 preserveAspectRatio="xMidYMid meet">
<metadata>
Created by potrace 1.11, written by Peter Selinger 2001-2013
</metadata>
<g transform="translate(0.000000,312.000000) scale(0.100000,-0.100000)"
fill="#ffffff" stroke="none">
<path d="M1500 3053 c-60 -25 -109 -94 -110 -158 -1 -29 -21 -42 -533 -347
l-532 -317 -3 -353 c-1 -194 0 -363 3 -375 12 -51 60 -68 95 -33 19 19 20 33
20 359 l0 338 505 302 505 301 30 -15 c42 -21 118 -19 158 5 96 59 104 199 15
267 -35 27 -118 41 -153 26z"/>
<path d="M1981 2661 c-27 -27 -27 -52 2 -78 12 -11 172 -109 355 -218 l332
-197 0 -587 -1 -586 -32 -20 c-66 -41 -89 -150 -44 -215 38 -57 71 -75 137
-75 63 0 95 16 133 67 47 63 26 177 -40 223 l-34 22 1 616 0 615 -372 223
c-205 122 -383 225 -395 227 -12 2 -29 -4 -42 -17z"/>
<path d="M1442 2238 c-61 -106 -114 -201 -117 -210 -6 -16 1 -18 74 -18 l81 0
0 -252 -1 -253 -215 -123 c-118 -67 -219 -120 -224 -117 -5 3 -24 32 -42 65
-18 33 -36 59 -40 58 -10 -4 -239 -400 -235 -405 2 -2 110 -2 240 -1 l235 3
-40 68 c-22 38 -38 70 -36 72 27 24 428 244 440 241 13 -3 413 -230 426 -241
2 -2 -14 -34 -36 -72 l-40 -68 235 -3 c130 -1 238 -1 240 1 4 5 -225 401 -235
405 -4 1 -22 -25 -40 -58 -18 -33 -37 -62 -42 -65 -5 -3 -106 50 -224 117
l-215 123 -1 253 0 252 81 0 c73 0 80 2 75 18 -8 19 -215 382 -226 395 -4 4
-57 -79 -118 -185z"/>
<path d="M345 1000 c-80 -18 -131 -89 -122 -173 10 -114 130 -181 230 -128
l39 20 51 -33 c102 -65 1011 -586 1017 -584 3 2 158 91 344 198 219 126 342
203 349 217 14 31 -14 73 -50 73 -16 0 -148 -70 -332 -177 -168 -97 -310 -176
-316 -176 -6 0 -204 112 -440 248 -237 137 -462 267 -501 289 -71 40 -72 42
-76 87 -10 97 -98 161 -193 139z"/>
</g>
</svg>
