<?xml version="1.0" encoding="UTF-8"?>
<!DOCTYPE svg PUBLIC "-//W3C//DTD SVG 1.1//EN" "http://www.w3.org/Graphics/SVG/1.1/DTD/svg11.dtd" [
  <!ENTITY fill_color "#FFFFFF">
  <!ENTITY stroke_color "#010101">
]>
<svg width="55px" height="55px" viewBox="0 0 55 55" version="1.1" xmlns="http://www.w3.org/2000/svg">
<path fill="&stroke_color;" d=" M 16.57 8.45 C 24.03 8.45 31.49 8.44 38.96 8.46 C 42.10 13.47 45.24 18.49 48.34 23.53 C 47.05 31.63 45.83 39.74 44.58 47.85 C 42.39 47.84 40.19 47.84 38.00 47.84 C 38.13 45.94 38.26 44.04 38.40 42.15 C 37.56 42.17 35.89 42.22 35.05 42.25 C 34.92 44.11 34.80 45.97 34.67 47.84 C 30.07 47.85 25.47 47.85 20.87 47.84 C 20.72 45.96 20.57 44.08 20.43 42.20 C 19.33 42.18 18.23 42.17 17.13 42.17 C 17.28 44.06 17.44 45.96 17.59 47.85 C 15.38 47.84 13.17 47.84 10.96 47.84 C 9.69 39.72 8.47 31.59 7.21 23.47 C 10.34 18.47 13.44 13.45 16.57 8.45 Z" />
<path fill="&fill_color;" opacity="0.7" d=" M 14.82 23.95 C 15.41 21.04 17.27 18.55 18.54 15.90 C 20.49 15.90 22.44 15.91 24.38 15.93 C 24.31 16.64 24.17 18.08 24.09 18.79 C 26.56 18.78 29.02 18.78 31.48 18.78 C 31.41 18.06 31.26 16.63 31.19 15.91 C 33.15 15.91 35.11 15.92 37.07 15.92 C 38.27 18.43 39.77 20.80 40.68 23.44 C 40.52 28.47 39.46 33.44 39.02 38.45 C 31.53 38.49 24.04 38.46 16.55 38.47 C 16.02 33.62 15.18 28.81 14.82 23.95 Z" />
<path fill="&stroke_color;" d=" M 22.02 34.42 C 20.88 31.80 20.84 28.86 22.01 26.25 C 23.29 28.83 23.20 31.81 22.02 34.42 Z" />
<path fill="&stroke_color;" d=" M 33.53 26.13 C 35.51 28.31 34.76 31.50 33.95 34.01 C 32.54 31.56 32.83 28.74 33.53 26.13 Z" />
</svg>
