<?xml version="1.0" standalone="no"?>
<!DOCTYPE svg PUBLIC "-//W3C//DTD SVG 20010904//EN"
 "http://www.w3.org/TR/2001/REC-SVG-20010904/DTD/svg10.dtd">
<svg version="1.0" xmlns="http://www.w3.org/2000/svg"
 width="44pt" height="44pt" viewBox="0 0 55.000000 55.000000"
 preserveAspectRatio="xMidYMid meet">
<metadata>
Created by potrace 1.11, written by Peter Selinger 2001-2013
</metadata>
<g transform="translate(0.000000,55.000000) scale(0.100000,-0.100000)"
fill="#ffffff" stroke="none">
<path d="M170 520 c-16 -16 -20 -33 -20 -80 l0 -60 -50 0 c-84 0 -90 -13 -90
-178 0 -125 2 -141 20 -157 21 -19 110 -34 110 -18 0 17 -24 33 -50 33 -45 0
-50 15 -50 141 0 125 8 149 51 149 11 0 37 12 59 26 37 25 40 30 40 74 0 34 4
50 16 54 28 11 130 6 142 -6 7 -7 12 -31 12 -54 0 -37 4 -44 40 -68 22 -14 48
-26 59 -26 43 0 51 -24 51 -149 0 -126 -5 -141 -50 -141 -26 0 -50 -16 -50
-33 0 -16 89 -1 110 18 18 16 20 32 20 157 0 165 -6 178 -90 178 l-50 0 0 60
c0 88 -16 100 -125 100 -72 0 -88 -3 -105 -20z"/>
<path d="M195 381 c-48 -22 -79 -54 -100 -103 -31 -77 -14 -158 46 -215 42
-39 77 -53 135 -53 57 0 101 19 141 61 39 41 53 77 53 132 -1 142 -147 237
-275 178z m162 -41 c92 -56 104 -181 23 -253 -65 -60 -157 -57 -217 5 -73 76
-59 194 30 248 43 26 121 26 164 0z"/>
<path d="M209 313 c-77 -47 -79 -168 -4 -217 34 -23 106 -23 140 0 75 49 73
172 -5 218 -36 20 -97 20 -131 -1z m124 -75 c18 -24 19 -30 7 -58 -24 -57 -98
-63 -125 -9 -19 36 -19 41 6 73 29 36 83 33 112 -6z"/>
</g>
</svg>
