<?xml version="1.0" standalone="no"?>
<!DOCTYPE svg PUBLIC "-//W3C//DTD SVG 20010904//EN"
 "http://www.w3.org/TR/2001/REC-SVG-20010904/DTD/svg10.dtd">
<svg version="1.0" xmlns="http://www.w3.org/2000/svg"
 width="44pt" height="44pt" viewBox="0 0 256.000000 256.000000"
 preserveAspectRatio="xMidYMid meet">
<metadata>
Created by potrace 1.11, written by Peter Selinger 2001-2013
</metadata>
<g transform="translate(0.000000,256.000000) scale(0.100000,-0.100000)"
fill="#ffffff" stroke="none">
<path d="M663 2366 c-154 -50 -261 -185 -271 -343 -11 -166 101 -378 318 -604
l61 -64 92 96 c303 316 369 608 181 809 -70 75 -154 113 -257 117 -51 2 -98
-2 -124 -11z m223 -182 c35 -21 56 -44 77 -84 26 -50 28 -62 24 -123 -9 -101
-76 -233 -180 -352 l-34 -39 -26 29 c-50 56 -128 174 -160 242 -26 56 -32 80
-32 139 0 61 4 77 30 119 64 104 196 134 301 69z"/>
<path d="M736 2120 c-95 -29 -121 -151 -45 -214 24 -20 41 -26 81 -26 73 0
118 45 118 118 0 72 -34 110 -110 127 -8 2 -28 -1 -44 -5z"/>
<path d="M1240 2273 c-14 -2 -39 -6 -56 -8 l-31 -5 27 -53 c15 -29 29 -64 33
-76 5 -21 10 -22 46 -16 l41 7 0 -233 0 -232 -84 7 -84 6 -27 -46 c-15 -25
-25 -47 -23 -49 7 -7 133 -25 176 -25 l42 0 0 -145 0 -145 -431 0 -430 0 6 48
c8 54 31 152 47 199 10 27 9 35 -4 50 -9 10 -32 45 -52 77 l-36 59 -30 -65
c-44 -93 -80 -246 -87 -368 -13 -237 52 -470 189 -674 53 -79 196 -221 275
-275 428 -287 983 -244 1354 106 96 91 160 179 225 308 174 350 145 757 -77
1088 -54 79 -196 222 -275 275 -142 95 -306 159 -468 181 -74 10 -212 13 -266
4z m292 -169 c44 -13 264 -363 241 -384 -15 -14 -192 -51 -273 -57 l-80 -6 0
232 0 232 48 -6 c26 -4 55 -9 64 -11z m266 -95 c93 -52 222 -155 222 -177 0
-10 -120 -72 -138 -72 -4 0 -18 26 -31 57 -14 31 -47 92 -73 136 -26 44 -48
82 -48 84 0 8 17 1 68 -28z m351 -336 c62 -104 110 -246 125 -365 l6 -48 -145
0 c-166 0 -149 -13 -160 117 -3 40 -17 118 -31 174 -13 56 -23 103 -22 104 11
10 165 84 175 85 7 0 30 -30 52 -67z m-315 -105 c18 -63 32 -147 42 -240 l6
-68 -231 0 -231 0 0 144 0 143 88 8 c48 3 134 19 192 34 58 16 108 29 112 30
4 0 14 -23 22 -51z m-1101 -495 c6 -73 25 -183 53 -298 5 -17 -9 -27 -82 -63
l-88 -44 -18 24 c-64 81 -136 274 -152 411 l-7 57 144 0 144 0 6 -87z m567
-62 l0 -150 -42 -5 c-24 -3 -70 -8 -103 -11 -60 -6 -216 -38 -246 -50 -13 -5
-19 6 -32 52 -19 68 -33 152 -42 246 l-7 67 236 0 236 0 0 -149z m576 77 c-9
-95 -23 -180 -41 -244 l-15 -51 -95 23 c-53 12 -128 26 -168 29 -39 3 -87 8
-104 11 l-33 5 0 149 0 150 231 0 232 0 -7 -72z m398 15 c-16 -137 -88 -330
-152 -412 l-19 -23 -89 43 c-49 23 -90 43 -92 44 -2 2 6 38 17 81 11 44 25
120 31 169 7 50 14 105 16 123 l5 32 145 0 145 0 -7 -57z m-974 -588 l0 -236
-52 7 c-29 3 -64 14 -78 23 -38 27 -134 164 -190 274 l-51 97 27 10 c55 21
243 56 317 59 l27 1 0 -235z m220 225 c101 -13 260 -49 260 -59 0 -18 -93
-187 -139 -253 -70 -102 -105 -138 -134 -138 -14 0 -39 -3 -56 -6 l-31 -7 0
237 c0 130 3 236 8 236 4 0 46 -5 92 -10z m-646 -180 c21 -45 56 -108 77 -140
21 -33 35 -60 30 -60 -16 0 -186 112 -231 153 -68 62 -68 63 -3 96 32 17 65
30 73 31 10 0 30 -31 54 -80z m1094 46 l64 -32 -61 -57 c-60 -55 -214 -157
-237 -157 -7 0 11 38 40 84 29 45 63 108 77 139 14 33 30 57 39 56 8 0 44 -15
78 -33z"/>
</g>
</svg>
