<?xml version="1.0" standalone="no"?>
<!DOCTYPE svg PUBLIC "-//W3C//DTD SVG 20010904//EN"
 "http://www.w3.org/TR/2001/REC-SVG-20010904/DTD/svg10.dtd">
<svg version="1.0" xmlns="http://www.w3.org/2000/svg"
 width="44pt" height="44pt" viewBox="0 0 512.000000 432.000000"
 preserveAspectRatio="xMidYMid meet">
<metadata>
Created by potrace 1.11, written by Peter Selinger 2001-2013
</metadata>
<g transform="translate(0.000000,432.000000) scale(0.100000,-0.100000)"
fill="#ffffff" stroke="none">
<path d="M1640 4314 c-283 -31 -461 -83 -680 -196 -492 -253 -847 -741 -935
-1283 -112 -696 193 -1386 781 -1772 170 -111 378 -200 564 -241 78 -17 222
-42 244 -42 3 0 6 45 6 100 l0 99 -37 6 c-541 82 -954 369 -1200 831 -258 487
-239 1079 49 1547 390 634 1146 908 1848 670 576 -195 994 -723 1053 -1330
l11 -123 100 0 99 0 -7 93 c-21 291 -114 578 -263 810 -287 448 -731 740
-1242 817 -79 11 -332 21 -391 14z"/>
<path d="M1484 3976 c-101 -125 -204 -316 -274 -510 l-36 -98 -119 -35 c-66
-18 -164 -52 -219 -73 -54 -22 -100 -40 -101 -40 -6 0 51 152 87 231 32 73
113 227 159 304 l24 40 -30 -22 c-52 -36 -199 -195 -254 -273 -69 -98 -132
-216 -167 -313 -28 -77 -31 -80 -110 -137 -114 -83 -120 -95 -30 -58 42 17 79
29 81 26 2 -2 -2 -28 -10 -58 -27 -106 -38 -249 -32 -404 6 -139 15 -197 64
-420 7 -33 7 -33 -116 15 -41 16 -76 28 -78 25 -5 -5 104 -87 177 -132 52 -32
60 -42 85 -102 68 -162 155 -319 248 -447 58 -79 158 -197 163 -192 2 2 -20
59 -50 128 -62 145 -119 294 -152 397 -20 66 -21 73 -6 67 82 -32 254 -87 328
-105 l91 -22 23 -66 c32 -93 114 -280 157 -360 49 -91 135 -233 139 -229 2 1
-15 68 -37 147 -35 128 -119 465 -119 477 0 4 131 -4 208 -13 l42 -5 0 99 0
100 -145 7 c-80 4 -145 8 -145 10 0 2 -9 63 -20 137 -34 236 -43 385 -37 676
3 153 11 318 17 368 l13 91 61 7 c187 19 670 15 691 -6 14 -14 36 -241 42
-425 l6 -203 100 0 100 0 -6 143 c-7 156 -19 261 -44 380 -9 42 -13 80 -10 83
13 13 554 -90 574 -109 15 -16 34 -167 40 -324 l6 -173 98 0 99 0 0 93 c0 80
-11 172 -36 319 l-7 37 74 -20 c41 -11 95 -26 122 -34 26 -8 47 -12 47 -10 0
4 -132 85 -210 128 -65 36 -65 37 -94 114 -35 97 -98 215 -167 313 -55 78
-202 237 -254 273 l-30 22 24 -40 c52 -86 139 -256 173 -336 46 -109 82 -209
77 -213 -2 -2 -51 14 -109 36 -94 35 -264 82 -434 120 l-59 13 -32 85 c-44
120 -124 280 -191 380 -55 83 -104 143 -111 136 -2 -2 6 -25 17 -52 41 -94 91
-250 126 -387 19 -77 34 -140 32 -142 -2 -1 -48 2 -103 7 -114 11 -371 4 -488
-12 -44 -6 -81 -9 -83 -7 -14 13 88 370 148 521 21 54 38 100 36 101 -2 1 -22
-20 -44 -49z m-367 -833 c-3 -21 -14 -85 -23 -143 -14 -82 -18 -163 -19 -370
0 -277 10 -386 56 -579 10 -46 17 -86 14 -89 -7 -7 -172 22 -307 54 l-107 25
-20 89 c-57 241 -76 563 -47 770 28 192 24 182 86 203 63 20 313 75 349 76 22
1 23 -2 18 -36z"/>
<path d="M1750 1650 l0 -830 1530 0 1530 0 0 830 0 830 -1530 0 -1530 0 0
-830z m2960 0 l0 -700 -1430 0 -1430 0 0 700 0 700 1430 0 1430 0 0 -700z"/>
<path d="M1558 416 c-65 -145 -118 -268 -118 -275 0 -8 461 -11 1834 -11 1701
0 1834 1 1840 17 4 9 -33 123 -90 275 l-96 258 -1627 0 -1626 -1 -117 -263z
m3245 86 c26 -64 47 -123 47 -130 0 -9 -326 -12 -1585 -12 -872 0 -1585 2
-1585 5 0 3 27 61 59 130 l60 125 1478 0 1478 0 48 -118z m-1374 -249 c17 -43
31 -81 31 -85 0 -5 -108 -8 -239 -8 l-240 0 25 73 c13 39 26 78 29 85 3 9 49
12 184 12 l179 0 31 -77z"/>
<path d="M1448 45 l16 -45 1805 2 1804 3 12 43 13 42 -1834 0 -1833 0 17 -45z"/>
</g>
</svg>
