<?xml version="1.0" encoding="UTF-8" standalone="no"?>
<!DOCTYPE svg PUBLIC "-//W3C//DTD SVG 1.1//EN" "http://www.w3.org/Graphics/SVG/1.1/DTD/svg11.dtd" [
    <!ENTITY stroke_color "#000000">
    <!ENTITY fill_color "#C0C0C0">
]>
<!-- Created with Inkscape (http://www.inkscape.org/) -->
<svg
   xmlns:svg="http://www.w3.org/2000/svg"
   xmlns="http://www.w3.org/2000/svg"
   version="1.0"
   width="45"
   height="45"
   id="svg2">
  <g
     id="layer1">
    <path
       d="M 22.15625,3.1875 C 17.463135,3.3551233 16.569752,5.745229 9.46875,10.875 C 7.5861669,12.807767 2.1994033,13.95443 5.8125,23.84375 C 6.4276154,24.703493 11.441138,27.690518 14.53125,30.125 L 14.84375,34.21875 C 15.004687,36.408932 11.475122,34.613803 9.59375,35.625 C 8.5643577,36.178274 7.2425964,41.093347 10.84375,41.09375 L 19.96875,41.125 C 21.574558,41.223228 21.645707,38.11897 21.53125,36.71875 C 21.416138,35.310547 20.537318,36.81764 20.34375,35.65625 C 20.305038,35.42397 20.255,35.167389 20.21875,34.90625 C 20.752574,35.246551 21.592177,36.007813 22.3125,36.007813 C 23.059877,36.007813 23.550189,35.238776 24.09375,34.875 L 24.125,36.21875 C 23.508106,35.182042 21.240128,41.054825 23.75,41.15625 L 34.125,41.09375 C 36.925451,40.889495 35.694669,35.147053 34.125,35.375 L 29.78125,35.28125 L 29.71875,30.5625 C 29.716302,30.388407 29.740741,30.209292 29.75,30.03125 C 30.940801,32.111243 41.256945,28.153301 40.40625,17.5 C 37.553661,10.690791 32.973737,4.8360588 24.40625,3.25 C 23.55076,3.1842943 22.826695,3.1635538 22.15625,3.1875 z "
       style="fill:&fill_color;;fill-opacity:1;fill-rule:evenodd;stroke:none;stroke-width:1.15020978px;stroke-linecap:butt;stroke-linejoin:miter;stroke-opacity:1"
       id="path3192" />
    <path
       d="M 34.078125,34.3125 L 30.96875,34.1875 L 30.90625,31.5625 C 31.376628,31.54826 31.849506,31.532035 32.34375,31.375 C 33.633573,30.965188 35.083299,30.136225 36.46875,28.9375 C 39.239651,26.540049 41.782952,22.556686 41.5625,17.4375 L 41.5625,17.40625 C 41.360502,14.459956 39.340814,11.201965 36.3125,8.3125 C 33.284186,5.4230347 29.122037,2.9534607 24.5625,2.109375 C 23.675147,2.041222 22.825117,1.9971989 22.09375,2.03125 C 19.899649,2.1334033 18.304237,2.705816 16.78125,3.71875 C 14.750601,5.0693287 12.734046,7.1106335 8.734375,10 C 8.0976259,10.653723 5.9485599,11.643366 4.59375,13.75 C 3.2508252,15.838153 2.8687005,19.071194 4.6875,24.125 C 4.7035967,24.169727 4.7023028,24.204983 4.71875,24.25 L 4.75,24.25 C 4.8599419,24.582401 5.0045815,24.835684 5.1875,25.09375 C 5.3973133,25.38976 5.633634,25.697746 5.9375,26.03125 C 6.5452319,26.698257 7.3523618,27.45439 8.25,28.1875 C 9.7916915,29.446615 11.617033,30.535444 13.46875,31.0625 C 13.490347,31.219198 13.487236,31.194293 13.5,31.40625 C 13.528983,31.887553 13.550323,32.510284 13.5625,33.09375 C 13.574337,33.6609 13.560239,33.773269 13.5625,34.1875 C 12.840782,34.182539 12.080939,34.169583 11.46875,34.1875 C 10.98905,34.201539 10.559576,34.247845 10.15625,34.3125 C 9.8139078,34.367379 9.4860288,34.492488 9.125,34.71875 L 9.09375,34.65625 C 9.031694,34.689604 9.024017,34.746003 8.96875,34.78125 C 8.9614352,34.785915 8.9447018,34.776552 8.9375,34.78125 C 8.3029407,35.195155 8.0536811,35.733131 7.8125,36.34375 C 7.5479003,37.01366 7.3823379,37.803601 7.375,38.625 C 7.3676621,39.446399 7.5086835,40.339328 8.09375,41.09375 C 8.6788165,41.848172 9.7121412,42.31237 10.875,42.3125 L 19.9375,42.3125 C 19.95857,42.313789 19.978999,42.311917 20,42.3125 C 20.772362,42.333936 21.489489,41.890347 21.875,41.375 C 21.964016,41.256005 21.999859,41.125851 22.0625,41 C 22.548715,41.715555 23.38866,42.302629 24.40625,42.34375 L 24.4375,42.34375 L 24.46875,42.34375 L 34.1875,42.28125 L 34.21875,42.28125 L 34.25,42.28125 C 35.345476,42.20135 36.248332,41.435303 36.625,40.59375 C 37.001668,39.752197 37.033499,38.860284 36.9375,38 C 36.841501,37.139716 36.58949,36.319024 36.1875,35.625 C 35.986505,35.277988 35.759086,34.954153 35.40625,34.6875 C 35.10715,34.461458 34.532909,34.314233 34.078125,34.3125 z M 10.21875,11.75 C 10.825818,11.308529 11.380146,10.87104 11.90625,10.46875 C 14.597193,9.412282 17.620346,8.0336027 20,8.3125 L 20.15625,7.15625 C 18.499401,6.962066 16.750447,7.3824052 15.0625,7.96875 C 16.283436,6.9683612 17.234892,6.1754396 18.0625,5.625 C 19.339044,4.7759746 20.387778,4.3856201 22.21875,4.34375 C 22.829074,4.3297933 23.520123,4.3429915 24.34375,4.40625 C 27.60658,5.0366883 30.681868,6.6588513 33.1875,8.65625 C 31.082555,7.9617218 28.861149,7.4349874 27.375,7.28125 L 27.25,8.4375 C 29.194434,8.6386454 33.008122,9.647191 35.5,10.75 C 37.781107,13.175414 39.162771,15.834395 39.28125,17.5625 C 39.466585,21.866223 37.322809,25.150711 34.96875,27.1875 C 33.791721,28.205894 32.548028,28.904158 31.65625,29.1875 C 31.414855,29.264198 31.204753,29.290861 31.03125,29.3125 C 32.133823,27.936295 33.720692,25.804979 34.8125,23.5 C 35.540372,21.963347 36.058375,20.322767 36.03125,18.6875 C 36.004125,17.052233 35.354052,15.425123 33.875,14.1875 C 32.844878,13.371466 31.341109,12.838086 29.5625,12.46875 C 27.783891,12.099414 25.703758,11.919887 23.59375,11.90625 C 19.373734,11.878975 15.008033,12.507075 12.3125,14.25 L 12.28125,14.25 C 9.9103879,15.891283 9.1420154,18.491092 9.53125,21.21875 C 9.8451565,23.418528 10.848743,25.769069 12.25,28.15625 C 11.392775,27.671759 10.514015,27.055751 9.71875,26.40625 C 8.905146,25.741771 8.170927,25.064876 7.65625,24.5 C 7.3989115,24.217562 7.1947241,23.936545 7.0625,23.75 C 7.0026418,23.665551 6.9342481,23.605992 6.90625,23.5625 C 6.9018041,23.545413 6.9077661,23.540204 6.90625,23.53125 C 6.8927598,23.510928 6.9089012,23.496597 6.90625,23.5 L 6.875,23.4375 C 5.1367442,18.679762 5.6178063,16.420341 6.53125,15 C 7.4133227,13.628439 8.9937945,12.943005 10.21875,11.75 z M 23.71875,21.5 C 23.615974,22.985988 23.703539,24.217784 23.96875,25.125 C 23.986617,25.169922 23.984528,25.20679 24,25.25 C 24.012905,25.290693 24.017642,25.335373 24.03125,25.375 C 24.271845,26.134326 24.164042,26.627766 23.90625,26.96875 C 23.620252,27.347043 23.104527,27.579232 22.53125,27.59375 C 21.957973,27.608268 21.368768,27.402423 21,27 C 20.631232,26.597577 20.410072,25.973925 20.625,24.96875 C 20.663265,24.84871 20.715542,24.752697 20.75,24.625 C 20.752862,24.614393 20.747165,24.604408 20.75,24.59375 C 21.172972,23.404952 21.589192,21.598898 21.1875,19.875 C 20.783044,18.139244 19.390159,16.529178 16.65625,16.21875 L 16.625,16.21875 L 16.59375,16.21875 C 14.827503,16.205803 13.573151,17.093887 13,18.4375 C 12.430099,19.773495 12.414922,21.498078 12.65625,23.4375 C 12.656796,23.447007 12.655631,23.459245 12.65625,23.46875 C 12.77559,25.301755 14.244104,27.061579 16,27.75 C 16.8825,28.095995 17.898408,28.136119 18.78125,27.625 C 19.092905,27.444568 19.365996,27.176801 19.625,26.875 C 19.755142,27.218389 19.926144,27.530145 20.15625,27.78125 C 20.78674,28.469279 21.697533,28.771905 22.5625,28.75 C 23.427467,28.728095 24.301349,28.37369 24.84375,27.65625 C 24.97935,27.47689 25.076689,27.282536 25.15625,27.0625 C 25.981564,27.793255 27.006468,28.042379 27.875,28.25 L 27.9375,28.25 L 28,28.25 C 28.639629,28.256621 29.355307,28.133821 30.03125,27.78125 C 29.795911,28.082864 29.605291,28.348022 29.40625,28.59375 L 29.375,28.5625 C 29.023218,28.948049 28.012695,29.433049 26.6875,29.71875 C 25.362305,30.004451 23.742505,30.152508 22.09375,30.15625 C 20.444995,30.159992 18.788206,30.01569 17.40625,29.71875 C 16.024294,29.42181 14.92434,28.92668 14.4375,28.4375 C 12.72925,25.756324 11.528166,23.137061 11.21875,20.96875 C 10.889928,18.664446 11.423451,16.973603 13.28125,15.6875 C 15.385253,14.327057 19.573874,13.599019 23.59375,13.625 C 25.603688,13.637991 27.582201,13.816413 29.21875,14.15625 C 30.855299,14.496087 32.144255,15.026641 32.78125,15.53125 C 33.900082,16.467453 34.29199,17.482305 34.3125,18.71875 C 34.33301,19.955195 33.909298,21.389368 33.25,22.78125 C 32.936298,23.443525 32.571112,24.093959 32.1875,24.71875 C 32.356255,23.958767 32.412309,23.072315 32.34375,22.03125 C 32.343607,22.019249 32.343926,22.011961 32.34375,22 C 32.312628,19.884256 31.789284,18.380692 30.90625,17.4375 C 30.018224,16.488976 28.785444,16.182044 27.65625,16.34375 C 25.434725,16.661883 23.42664,18.824329 23.71875,21.5 z M 24.84375,21.46875 C 24.557174,19.382723 26.179764,17.702566 27.8125,17.46875 C 28.016592,17.439523 28.206326,17.425306 28.40625,17.4375 C 29.006021,17.474082 29.589403,17.713423 30.0625,18.21875 C 30.693296,18.89252 31.195585,20.118013 31.21875,22.0625 L 31.21875,22.09375 C 31.36731,24.256172 30.858269,25.482918 30.21875,26.1875 C 29.595918,26.873697 28.786412,27.120208 28.0625,27.125 C 27.105318,26.894824 26.270818,26.642305 25.6875,25.96875 C 25.448944,25.693291 25.220682,25.312773 25.0625,24.8125 C 25.046934,24.76976 25.048363,24.730525 25.03125,24.6875 C 24.820836,23.947977 24.734319,22.882522 24.84375,21.46875 z M 16.53125,17.375 C 16.544026,17.376451 16.549814,17.373501 16.5625,17.375 C 18.906024,17.651954 19.743133,18.754411 20.0625,20.125 C 20.383595,21.503009 20.02954,23.209204 19.65625,24.25 L 19.65625,24.28125 C 19.297369,25.630268 18.758858,26.312306 18.21875,26.625 C 17.678642,26.937694 17.083083,26.940609 16.4375,26.6875 C 15.146333,26.181282 13.882276,24.58886 13.8125,23.375 L 13.8125,23.34375 L 13.8125,23.3125 C 13.579177,21.457933 13.633074,19.881685 14.0625,18.875 C 14.484086,17.886695 15.155766,17.383513 16.53125,17.375 z M 26.40625,20.5 C 25.753997,20.5 25.218751,21.123546 25.21875,21.90625 C 25.21875,22.688954 25.753996,23.34375 26.40625,23.34375 C 27.058503,23.34375 27.593751,22.688954 27.59375,21.90625 L 26.40625,21.90625 L 27.46875,21.3125 C 27.266966,20.807756 26.872767,20.5 26.40625,20.5 z M 18.46875,20.625 C 17.843504,20.625 17.343751,21.218455 17.34375,21.96875 C 17.34375,22.719045 17.843504,23.343751 18.46875,23.34375 C 19.093996,23.34375 19.59375,22.719046 19.59375,21.96875 L 18.46875,21.96875 L 19.5,21.375 C 19.302317,20.903848 18.908334,20.625 18.46875,20.625 z M 28.59375,30.34375 L 28.65625,35.34375 L 28.65625,35.375 C 28.416879,35.476682 28.155042,35.588225 27.875,35.71875 C 27.250292,36.009922 26.65625,36.3125 26.65625,36.3125 L 27.15625,37.34375 C 27.15625,37.34375 27.728523,37.068003 28.34375,36.78125 C 28.597782,36.662847 28.841687,36.537616 29.0625,36.4375 L 29.78125,36.46875 L 34.0625,36.59375 C 34.093295,36.625556 34.145812,36.655324 34.21875,36.78125 C 34.405772,37.104137 34.592688,37.680395 34.65625,38.25 C 34.719812,38.819605 34.6581,39.372842 34.53125,39.65625 C 34.4044,39.939658 34.398498,39.977773 34.09375,40 L 24.5,40.0625 C 24.262654,40.052909 24.155584,39.962461 23.96875,39.6875 C 23.781916,39.412539 23.626614,38.945485 23.59375,38.46875 C 23.560886,37.992015 23.664355,37.509346 23.78125,37.28125 C 23.898145,37.053154 23.849519,37.125474 23.9375,37.125 C 24.53214,37.121729 24.982412,36.62198 25.125,36.34375 C 25.267588,36.06552 25.28131,35.864824 25.3125,35.65625 C 25.374879,35.239102 25.388345,34.817126 25.375,34.40625 L 25.1875,32.8125 C 25.134069,32.187072 24.861469,31.57284 24.4375,31.21875 C 25.148859,31.181615 26.133511,30.984018 26.9375,30.84375 C 27.543871,30.713021 28.093608,30.534533 28.59375,30.34375 z M 15.75,30.4375 C 16.191841,30.589038 16.651098,30.735208 17.15625,30.84375 C 18.064772,31.038963 19.064324,31.145655 20.09375,31.21875 C 20.081941,31.228237 20.074255,31.240289 20.0625,31.25 C 19.239342,31.93 19.053428,32.931962 19.03125,33.75 C 19.009072,34.568038 19.121749,35.324223 19.21875,35.90625 C 19.295012,36.363815 19.516426,36.928242 20.0625,37.21875 C 20.224548,37.304958 20.26715,37.225478 20.40625,37.25 C 20.44579,37.821697 20.480841,38.556174 20.34375,39.1875 C 20.257495,39.584719 20.111762,39.892372 20.03125,40 L 20,40 L 10.875,40 C 10.237281,39.999929 10.08326,39.875453 9.9375,39.6875 C 9.7917396,39.499547 9.6519521,39.106105 9.65625,38.625 C 9.6605479,38.143895 9.8065396,37.598182 9.96875,37.1875 C 10.13096,36.776818 10.466756,36.537407 10.1875,36.6875 L 10.28125,36.625 C 10.31155,36.613653 10.383731,36.581139 10.5,36.5625 C 10.732538,36.525223 11.102738,36.512541 11.53125,36.5 C 12.388273,36.474918 13.53035,36.504163 14.75,36.5 L 15.6875,36.5 L 17.4375,37.53125 L 18,36.53125 L 15.90625,35.3125 C 15.906083,35.283065 15.899735,34.216408 15.875,33.03125 C 15.862463,32.430555 15.844645,31.815053 15.8125,31.28125 C 15.792796,30.954047 15.787402,30.699167 15.75,30.4375 z M 22.25,32.84375 C 22.36645,32.831451 22.489934,32.827158 22.59375,32.84375 C 22.801383,32.876934 22.941432,32.977185 22.96875,33 C 23.005364,33.499485 23.032098,33.999983 23.0625,34.5 C 23.070597,34.749297 23.07394,34.920832 23.0625,35.09375 C 22.773482,35.221665 22.532282,35.349808 22.3125,35.5625 C 22.142413,35.361122 21.927722,35.170613 21.6875,35.09375 C 21.538717,35.046144 21.549265,35.103316 21.4375,35.09375 C 21.370463,34.645587 21.302413,34.184545 21.3125,33.8125 C 21.326048,33.312795 21.464007,33.086798 21.53125,33.03125 C 21.556446,33.010437 21.900649,32.880647 22.25,32.84375 z "
       style="fill:&stroke_color;;fill-opacity:1;fill-rule:evenodd;stroke:none;stroke-width:2.29999995;stroke-linecap:butt;stroke-linejoin:miter;stroke-miterlimit:4;stroke-dasharray:none;stroke-opacity:1"
       id="path3206" />
  </g>
</svg>
