<?xml version="1.0" encoding="UTF-8" standalone="no"?>
<!-- Created with Inkscape (http://www.inkscape.org/) -->

<svg
   xmlns:dc="http://purl.org/dc/elements/1.1/"
   xmlns:cc="http://creativecommons.org/ns#"
   xmlns:rdf="http://www.w3.org/1999/02/22-rdf-syntax-ns#"
   xmlns:svg="http://www.w3.org/2000/svg"
   xmlns="http://www.w3.org/2000/svg"
   xmlns:sodipodi="http://sodipodi.sourceforge.net/DTD/sodipodi-0.dtd"
   xmlns:inkscape="http://www.inkscape.org/namespaces/inkscape"
   width="180"
   height="164.6333"
   id="svg3502"
   sodipodi:version="0.32"
   inkscape:version="0.48.4 r9939"
   sodipodi:docname="computer-win.svg"
   inkscape:output_extension="org.inkscape.output.svg.inkscape"
   version="1.0">
  <defs
     id="defs3504">
    <inkscape:perspective
       sodipodi:type="inkscape:persp3d"
       inkscape:vp_x="0 : 526.18109 : 1"
       inkscape:vp_y="0 : 1000 : 0"
       inkscape:vp_z="744.09448 : 526.18109 : 1"
       inkscape:persp3d-origin="372.04724 : 350.78739 : 1"
       id="perspective3510" />
    <inkscape:perspective
       id="perspective3519"
       inkscape:persp3d-origin="372.04724 : 350.78739 : 1"
       inkscape:vp_z="744.09448 : 526.18109 : 1"
       inkscape:vp_y="0 : 1000 : 0"
       inkscape:vp_x="0 : 526.18109 : 1"
       sodipodi:type="inkscape:persp3d" />
    <inkscape:perspective
       id="perspective3532"
       inkscape:persp3d-origin="372.04724 : 350.78739 : 1"
       inkscape:vp_z="744.09448 : 526.18109 : 1"
       inkscape:vp_y="0 : 1000 : 0"
       inkscape:vp_x="0 : 526.18109 : 1"
       sodipodi:type="inkscape:persp3d" />
    <inkscape:perspective
       id="perspective3545"
       inkscape:persp3d-origin="372.04724 : 350.78739 : 1"
       inkscape:vp_z="744.09448 : 526.18109 : 1"
       inkscape:vp_y="0 : 1000 : 0"
       inkscape:vp_x="0 : 526.18109 : 1"
       sodipodi:type="inkscape:persp3d" />
    <inkscape:perspective
       id="perspective3558"
       inkscape:persp3d-origin="372.04724 : 350.78739 : 1"
       inkscape:vp_z="744.09448 : 526.18109 : 1"
       inkscape:vp_y="0 : 1000 : 0"
       inkscape:vp_x="0 : 526.18109 : 1"
       sodipodi:type="inkscape:persp3d" />
    <inkscape:perspective
       id="perspective3610"
       inkscape:persp3d-origin="372.04724 : 350.78739 : 1"
       inkscape:vp_z="744.09448 : 526.18109 : 1"
       inkscape:vp_y="0 : 1000 : 0"
       inkscape:vp_x="0 : 526.18109 : 1"
       sodipodi:type="inkscape:persp3d" />
  </defs>
  <sodipodi:namedview
     id="base"
     pagecolor="#ffffff"
     bordercolor="#666666"
     borderopacity="1.0"
     gridtolerance="10000"
     guidetolerance="10"
     objecttolerance="10"
     inkscape:pageopacity="0.0"
     inkscape:pageshadow="2"
     inkscape:zoom="2.5976454"
     inkscape:cx="-10.013954"
     inkscape:cy="126.74197"
     inkscape:document-units="px"
     inkscape:current-layer="layer1"
     showgrid="false"
     showguides="true"
     inkscape:guide-bbox="true"
     inkscape:window-width="1600"
     inkscape:window-height="837"
     inkscape:window-x="-8"
     inkscape:window-y="-8"
     fit-margin-top="18"
     fit-margin-left="10"
     fit-margin-right="10"
     fit-margin-bottom="17.37"
     inkscape:window-maximized="1">
    <sodipodi:guide
       orientation="0,1"
       position="94.885943,717.25566"
       id="guide3564" />
  </sodipodi:namedview>
  <metadata
     id="metadata3507">
    <rdf:RDF>
      <cc:Work
         rdf:about="">
        <dc:format>image/svg+xml</dc:format>
        <dc:type
           rdf:resource="http://purl.org/dc/dcmitype/StillImage" />
        <dc:title />
      </cc:Work>
    </rdf:RDF>
  </metadata>
  <g
     inkscape:label="Layer 1"
     inkscape:groupmode="layer"
     id="layer1"
     transform="translate(-202.99184,-363.0241)">
    <path
       inkscape:connector-curvature="0"
       style="fill:#800000"
       d="m 241.36274,494.72278 c -13.732,-8.56056 -25.72254,-16.55873 -26.64568,-17.77371 -1.2985,-1.70906 -1.6877,-12.23014 -1.71952,-46.48178 -0.0394,-42.57813 0.058,-44.37161 2.54416,-46.85795 2.50096,-2.50096 4.30878,-2.58524 55.42498,-2.58524 47.54981,0 53.01727,0.21376 54.61375,2.13524 1.38506,1.66704 1.91578,10.80316 2.4204,41.66559 l 0.6463,39.53034 20.54484,12.94816 c 22.95615,14.46783 25.87657,17.70023 22.76937,25.20163 -3.17354,7.6616 -4.06228,7.78234 -57.28119,7.78234 l -48.35015,0 -24.96726,-15.56462 z m 67.89487,-67.81021 0,-28.43793 -37.32969,-0.34328 c -26.46342,-0.2432 -37.84564,0.0848 -39.10214,1.12778 -1.3923,1.1555 -1.77246,6.95942 -1.77246,27.05965 0,14.0738 0.35636,26.51734 0.7919,27.65236 0.70472,1.83644 5.01082,2.026 39.10216,1.72152 l 38.31023,-0.34216 0,-28.43794 z"
       id="path3693"
       sodipodi:nodetypes="cssssscccsccccccsssccc" />
    <path
       sodipodi:type="arc"
       style="fill:none;fill-opacity:1;stroke:#800000;stroke-width:2;stroke-miterlimit:4;stroke-opacity:1;stroke-dasharray:none"
       id="path2985"
       sodipodi:cx="49.662163"
       sodipodi:cy="22.824537"
       sodipodi:rx="6.891892"
       sodipodi:ry="5.5236487"
       d="m 56.554055,22.824537 c 0,3.050627 -3.085605,5.523649 -6.891892,5.523649 -3.806287,0 -6.891892,-2.473022 -6.891892,-5.523649 0,0 0,0 0,0 l 6.891892,0 z"
       transform="matrix(2.0000103,0,0,2.0000103,169.98217,386.4374)"
       sodipodi:start="0"
       sodipodi:end="3.1415927" />
    <path
       sodipodi:type="arc"
       style="fill:#800000;fill-opacity:1;stroke:#800000;stroke-width:2;stroke-miterlimit:4;stroke-opacity:1;stroke-dasharray:none"
       id="path2991"
       sodipodi:cx="44.695946"
       sodipodi:cy="15.729943"
       sodipodi:rx="2.0270271"
       sodipodi:ry="2.179054"
       d="m 46.722973,15.729943 c 0,1.203459 -0.907531,2.179054 -2.027027,2.179054 -1.119496,0 -2.027027,-0.975595 -2.027027,-2.179054 0,-1.203458 0.907531,-2.179054 2.027027,-2.179054 1.119496,0 2.027027,0.975596 2.027027,2.179054 z"
       transform="matrix(2.0000103,0,0,2.0000103,169.98217,386.4374)" />
    <path
       transform="matrix(2.0000103,0,0,2.0000103,189.44173,386.4374)"
       sodipodi:type="arc"
       style="fill:#800000;fill-opacity:1;stroke:#800000;stroke-width:2;stroke-miterlimit:4;stroke-opacity:1;stroke-dasharray:none"
       id="path2991-1"
       sodipodi:cx="44.695946"
       sodipodi:cy="15.729943"
       sodipodi:rx="2.0270271"
       sodipodi:ry="2.179054"
       d="m 46.722973,15.729943 c 0,1.203459 -0.907531,2.179054 -2.027027,2.179054 -1.119496,0 -2.027027,-0.975595 -2.027027,-2.179054 0,-1.203458 0.907531,-2.179054 2.027027,-2.179054 1.119496,0 2.027027,0.975596 2.027027,2.179054 z" />
  </g>
</svg>
