<?xml version="1.0" encoding="UTF-8" standalone="no"?>
<svg
   xmlns:dc="http://purl.org/dc/elements/1.1/"
   xmlns:cc="http://creativecommons.org/ns#"
   xmlns:rdf="http://www.w3.org/1999/02/22-rdf-syntax-ns#"
   xmlns:svg="http://www.w3.org/2000/svg"
   xmlns="http://www.w3.org/2000/svg"
   xmlns:sodipodi="http://sodipodi.sourceforge.net/DTD/sodipodi-0.dtd"
   xmlns:inkscape="http://www.inkscape.org/namespaces/inkscape"
   contentScriptType="text/ecmascript"
   width="55px"
   zoomAndPan="magnify"
   contentStyleType="text/css"
   height="55px"
   preserveAspectRatio="xMidYMid meet"
   version="1.1"
   id="svg2"
   inkscape:version="0.48.4 r9939"
   sodipodi:docname="new-game-icon.svg">
  <metadata
     id="metadata20">
    <rdf:RDF>
      <cc:Work
         rdf:about="">
        <dc:format>image/svg+xml</dc:format>
        <dc:type
           rdf:resource="http://purl.org/dc/dcmitype/StillImage" />
        <dc:title />
      </cc:Work>
    </rdf:RDF>
  </metadata>
  <defs
     id="defs18" />
  <sodipodi:namedview
     pagecolor="#ffffff"
     bordercolor="#666666"
     borderopacity="1"
     objecttolerance="10"
     gridtolerance="10"
     guidetolerance="10"
     inkscape:pageopacity="0"
     inkscape:pageshadow="2"
     inkscape:window-width="1600"
     inkscape:window-height="837"
     id="namedview16"
     showgrid="false"
     inkscape:zoom="6.0682618"
     inkscape:cx="-22.822219"
     inkscape:cy="38.662001"
     inkscape:window-x="-8"
     inkscape:window-y="-8"
     inkscape:window-maximized="1"
     inkscape:current-layer="svg2" />
  <text
     xml:space="preserve"
     style="font-size:12px;font-style:normal;font-variant:normal;font-weight:normal;font-stretch:normal;line-height:125%;letter-spacing:0px;word-spacing:0px;fill:#000000;fill-opacity:1;stroke:none;font-family:Segoe UI;-inkscape-font-specification:Segoe UI"
     x="9.5579262"
     y="49.891453"
     id="text2987"
     sodipodi:linespacing="125%"><tspan
       sodipodi:role="line"
       id="tspan2989"
       x="9.5579262"
       y="49.891453" /></text>
  <rect
     id="rect3004-4"
     width="3.4719157"
     height="39.079792"
     x="7.8219686"
     y="9.2582016"
     style="fill:#ffffff" />
  <rect
     id="rect3004-4-0"
     width="3.4719157"
     height="39.079792"
     x="14.776184"
     y="9.2582016"
     style="fill:#ffffff" />
  <rect
     id="rect3004-4-9"
     width="3.4719157"
     height="39.079792"
     x="21.7304"
     y="9.2582016"
     style="fill:#ffffff" />
  <rect
     id="rect3004-4-4"
     width="3.4719157"
     height="39.079792"
     x="28.684616"
     y="9.2582016"
     style="fill:#ffffff" />
  <rect
     id="rect3004-4-8"
     width="3.4719157"
     height="39.079792"
     x="35.638832"
     y="9.2582016"
     style="fill:#ffffff" />
  <rect
     id="rect3004-4-82"
     width="3.4719157"
     height="39.079792"
     x="42.593048"
     y="9.2582016"
     style="fill:#ffffff" />
  <path
     inkscape:connector-curvature="0"
     style="fill:#ffffff;fill-opacity:1;stroke:#282828;stroke-width:1.74102712;stroke-linecap:round;stroke-linejoin:round;stroke-miterlimit:4;stroke-opacity:1;stroke-dasharray:none"
     id="rect3894"
     d="m 39.23406,29.19842 c -1.120579,0 -2.040262,0.919683 -2.040262,2.040262 l 0,4.678998 -3.318825,-3.318825 c -0.793214,-0.791525 -2.064841,-0.793209 -2.856365,0 -0.791524,0.793215 -0.793181,2.092046 0,2.883568 l 3.346027,3.318825 -4.733402,0 c -1.120579,0 -2.040263,0.919683 -2.040263,2.040263 0,1.120577 0.919684,2.013056 2.040263,2.013056 l 4.7062,0 -3.318825,3.318824 c -0.791523,0.793212 -0.793181,2.092045 0,2.883568 0.793214,0.791522 2.092046,0.766009 2.883567,-0.02721 l 3.291623,-3.318822 0,4.733405 c 0,1.120578 0.919683,2.013057 2.040262,2.013057 1.120579,0 2.013058,-0.892479 2.013058,-2.013057 l 0,-4.760608 3.37323,3.346025 c 0.793212,0.791524 2.064842,0.793214 2.856362,0 0.791524,-0.793211 0.793218,-2.064841 0,-2.856362 l -3.346025,-3.318824 4.706201,0 c 1.120579,0 2.013058,-0.89248 2.013058,-2.013058 0,-1.12058 -0.892479,-2.040264 -2.013058,-2.040264 l -4.733403,0 3.346025,-3.37323 c 0.791523,-0.793212 0.793216,-2.037637 0,-2.829162 -0.793213,-0.791521 -2.064842,-0.82042 -2.856364,-0.0272 l -3.346026,3.37323 0,-4.706199 c 0,-1.120579 -0.892479,-2.040264 -2.013058,-2.040264 z" />
</svg>
