<?xml version="1.0" encoding="UTF-8" standalone="no"?>
<!-- Created with Inkscape (http://www.inkscape.org/) -->

<svg
   xmlns:dc="http://purl.org/dc/elements/1.1/"
   xmlns:cc="http://creativecommons.org/ns#"
   xmlns:rdf="http://www.w3.org/1999/02/22-rdf-syntax-ns#"
   xmlns:svg="http://www.w3.org/2000/svg"
   xmlns="http://www.w3.org/2000/svg"
   xmlns:sodipodi="http://sodipodi.sourceforge.net/DTD/sodipodi-0.dtd"
   xmlns:inkscape="http://www.inkscape.org/namespaces/inkscape"
   width="180.00027"
   height="196.951"
   id="svg6314"
   sodipodi:version="0.32"
   inkscape:version="0.48.4 r9939"
   sodipodi:modified="true"
   version="1.0"
   sodipodi:docname="player-win.svg">
  <defs
     id="defs6316" />
  <sodipodi:namedview
     id="base"
     pagecolor="#ffffff"
     bordercolor="#666666"
     borderopacity="1.0"
     inkscape:pageopacity="0.0"
     inkscape:pageshadow="2"
     inkscape:zoom="1.4142136"
     inkscape:cx="64.204164"
     inkscape:cy="56.504384"
     inkscape:document-units="px"
     inkscape:current-layer="layer1"
     width="240px"
     height="330px"
     showgrid="true"
     showguides="true"
     inkscape:guide-bbox="true"
     inkscape:window-width="1600"
     inkscape:window-height="837"
     inkscape:window-x="-8"
     inkscape:window-y="-8"
     fit-margin-top="2"
     fit-margin-left="20"
     fit-margin-right="20"
     fit-margin-bottom="1.05"
     inkscape:window-maximized="1" />
  <metadata
     id="metadata6319">
    <rdf:RDF>
      <cc:Work
         rdf:about="">
        <dc:format>image/svg+xml</dc:format>
        <dc:type
           rdf:resource="http://purl.org/dc/dcmitype/StillImage" />
        <dc:title />
      </cc:Work>
    </rdf:RDF>
  </metadata>
  <g
     inkscape:label="Camada 1"
     inkscape:groupmode="layer"
     id="layer1"
     transform="translate(-30.331344,-66.793923)">
    <g
       id="g6359"
       transform="matrix(0.60738565,0,0,0.60738687,-20.234914,-50.011128)"
       style="fill:none;stroke:#008000">
      <path
         transform="matrix(0.969697,0,0,0.969697,-90.879133,125.06999)"
         d="m 382.60403,134.2677 c 0,28.28848 -22.93234,51.22083 -51.22082,51.22083 -28.28848,0 -51.22083,-22.93235 -51.22083,-51.22083 0,-28.28848 22.93235,-51.220825 51.22083,-51.220825 28.28848,0 51.22082,22.932345 51.22082,51.220825 z"
         sodipodi:ry="51.220825"
         sodipodi:rx="51.220825"
         sodipodi:cy="134.2677"
         sodipodi:cx="331.38321"
         id="path2307"
         style="fill:none;stroke:#008000;stroke-width:20.62502098;stroke-linecap:round;stroke-linejoin:round;stroke-miterlimit:4;stroke-opacity:1;stroke-dasharray:none;stroke-dashoffset:0"
         sodipodi:type="arc" />
      <path
         sodipodi:nodetypes="ccccccccccccc"
         id="path5343"
         d="m 290.55846,302.47333 -58.81513,59.20058 -59.39461,-59.40024 c -25.19828,-24.48771 -62.7038,13.33148 -38.1941,37.98719 l 60.04451,58.9817 -59.73639,59.42563 c -24.83976,24.97559 12.91592,63.26505 37.66786,37.75282 l 59.95799,-59.28294 58.75912,59.21065 c 24.50656,25.09065 62.43116,-13.00322 37.87956,-37.85772 l -59.24184,-59.02842 58.87574,-59.14782 c 25.1689,-25.18348 -13.0489,-62.75154 -37.80271,-37.84143 z"
         style="fill:none;stroke:#008000;stroke-width:20.00002098;stroke-linecap:round;stroke-linejoin:miter;stroke-miterlimit:4;stroke-opacity:1;stroke-dasharray:none;stroke-dashoffset:0"
         inkscape:connector-curvature="0" />
    </g>
    <path
       sodipodi:type="arc"
       style="fill:none;fill-opacity:1;stroke:#008000;stroke-width:2;stroke-miterlimit:4;stroke-opacity:1;stroke-dasharray:none"
       id="path2985"
       sodipodi:cx="49.662163"
       sodipodi:cy="22.824537"
       sodipodi:rx="6.891892"
       sodipodi:ry="5.5236487"
       d="m 56.554055,22.824537 c 0,3.050627 -3.085605,5.523649 -6.891892,5.523649 -3.806287,0 -6.891892,-2.473022 -6.891892,-5.523649 0,0 0,0 0,0 l 6.891892,0 z"
       transform="matrix(2.0000103,0,0,2.0000103,20.327072,64.784699)"
       sodipodi:start="0"
       sodipodi:end="3.1415927" />
    <path
       sodipodi:type="arc"
       style="fill:#008000;fill-opacity:1;stroke:#008000;stroke-width:2;stroke-miterlimit:4;stroke-opacity:1;stroke-dasharray:none"
       id="path2991"
       sodipodi:cx="44.695946"
       sodipodi:cy="15.729943"
       sodipodi:rx="2.0270271"
       sodipodi:ry="2.179054"
       d="m 46.722973,15.729943 c 0,1.203459 -0.907531,2.179054 -2.027027,2.179054 -1.119496,0 -2.027027,-0.975595 -2.027027,-2.179054 0,-1.203458 0.907531,-2.179054 2.027027,-2.179054 1.119496,0 2.027027,0.975596 2.027027,2.179054 z"
       transform="matrix(2.0000103,0,0,2.0000103,20.327072,64.784699)" />
    <path
       transform="matrix(2.0000103,0,0,2.0000103,39.786632,64.784699)"
       sodipodi:type="arc"
       style="fill:#008000;fill-opacity:1;stroke:#008000;stroke-width:2;stroke-miterlimit:4;stroke-opacity:1;stroke-dasharray:none"
       id="path2991-1"
       sodipodi:cx="44.695946"
       sodipodi:cy="15.729943"
       sodipodi:rx="2.0270271"
       sodipodi:ry="2.179054"
       d="m 46.722973,15.729943 c 0,1.203459 -0.907531,2.179054 -2.027027,2.179054 -1.119496,0 -2.027027,-0.975595 -2.027027,-2.179054 0,-1.203458 0.907531,-2.179054 2.027027,-2.179054 1.119496,0 2.027027,0.975596 2.027027,2.179054 z" />
  </g>
</svg>
