<?xml version="1.0" encoding="UTF-8" standalone="no"?>
<svg
   xmlns:dc="http://purl.org/dc/elements/1.1/"
   xmlns:cc="http://creativecommons.org/ns#"
   xmlns:rdf="http://www.w3.org/1999/02/22-rdf-syntax-ns#"
   xmlns:svg="http://www.w3.org/2000/svg"
   xmlns="http://www.w3.org/2000/svg"
   id="svg8"
   version="1.1"
   viewBox="0 0 47.625072 52.109955"
   height="196.951"
   width="180.00027">
  <defs
     id="defs2" />
  <metadata
     id="metadata5">
    <rdf:RDF>
      <cc:Work
         rdf:about="">
        <dc:format>image/svg+xml</dc:format>
        <dc:type
           rdf:resource="http://purl.org/dc/dcmitype/StillImage" />
        <dc:title></dc:title>
      </cc:Work>
    </rdf:RDF>
  </metadata>
  <g
     transform="translate(0,-244.89003)"
     id="layer1">
    <g
       style="fill:none;stroke:#aa0000;stroke-opacity:1"
       transform="matrix(0.16070412,0,0,0.16070444,-13.548509,213.69581)"
       id="g6359">
      <circle
         style="fill:none;stroke:#aa0000;stroke-width:20.62502098;stroke-linecap:round;stroke-linejoin:round;stroke-miterlimit:4;stroke-dasharray:none;stroke-dashoffset:0;stroke-opacity:1"
         id="path2307"
         transform="matrix(0.969697,0,0,0.969697,-90.879133,125.06999)"
         cx="331.38321"
         cy="134.2677"
         r="51.220825" />
      <path
         style="fill:none;stroke:#aa0000;stroke-width:20.00002098;stroke-linecap:round;stroke-linejoin:miter;stroke-miterlimit:4;stroke-dasharray:none;stroke-dashoffset:0;stroke-opacity:1"
         d="m 290.55846,302.47333 -58.81513,59.20058 -59.39461,-59.40024 c -25.19828,-24.48771 -62.7038,13.33148 -38.1941,37.98719 l 60.04451,58.9817 -59.73639,59.42563 c -24.83976,24.97559 12.91592,63.26505 37.66786,37.75282 l 59.95799,-59.28294 58.75912,59.21065 c 24.50656,25.09065 62.43116,-13.00322 37.87956,-37.85772 l -59.24184,-59.02842 58.87574,-59.14782 c 25.1689,-25.18348 -13.0489,-62.75154 -37.80271,-37.84143 z"
         id="path5343" />
    </g>
    <path
       transform="scale(-1)"
       d="m -19.816235,-258.84763 a 3.6469784,2.9229457 0 0 1 -1.823489,2.53135 3.6469784,2.9229457 0 0 1 -3.646978,0 3.6469784,2.9229457 0 0 1 -1.823489,-2.53135 l 3.646978,0 z"
       id="path2985"
       style="fill:none;fill-opacity:1;stroke:#aa0000;stroke-width:1.058;stroke-miterlimit:4;stroke-dasharray:none;stroke-opacity:1" />
    <ellipse
       id="path2991"
       style="fill:#aa0000;fill-opacity:1;stroke:#aa0000;stroke-width:1.05833876;stroke-miterlimit:4;stroke-dasharray:none;stroke-opacity:1"
       cx="20.835243"
       cy="252.39267"
       rx="1.0726407"
       ry="1.1530887" />
    <ellipse
       id="path2991-1"
       style="fill:#aa0000;fill-opacity:1;stroke:#aa0000;stroke-width:1.058;stroke-miterlimit:4;stroke-dasharray:none;stroke-opacity:1"
       cx="25.983917"
       cy="252.39267"
       rx="1.0726407"
       ry="1.1530887" />
  </g>
</svg>
