<?xml version="1.0" encoding="UTF-8" standalone="no"?>
<!DOCTYPE svg PUBLIC "-//W3C//DTD SVG 1.1//EN" "http://www.w3.org/Graphics/SVG/1.1/DTD/svg11.dtd" [
  <!ENTITY fill_color "#ffffff">
  <!ENTITY stroke_color "#000000">
]>
<svg
   xml:space="preserve"
   version="1.1"
   style="image-rendering:optimizeQuality;shape-rendering:geometricPrecision;text-rendering:geometricPrecision"
   viewBox="0 0 54.999999 55.000002"
   x="0px"
   y="0px"
   fill-rule="evenodd"
   clip-rule="evenodd"
   id="svg10"
   width="55"
   height="55"
   xmlns="http://www.w3.org/2000/svg"
   xmlns:svg="http://www.w3.org/2000/svg"><defs
     id="defs4"><style
       type="text/css"
       id="style2">
   
    .fil0 {fill:black;fill-rule:nonzero}
   
  </style></defs><g
     id="g8"
     style="fill:&stroke_color;;stroke:none;stroke-width:0.390625;stroke-opacity:1"
     transform="matrix(2.56,0,0,2.56,7.7530182,5.9114739)"><path
       class="fil0"
       d="m 6.701,2.091 h 2.186 v -0.57 c 0,-0.158 -0.064,-0.3 -0.166,-0.403 H 8.719 C 8.616,1.015 8.473,0.951 8.317,0.951 H 7.271 c -0.156,0 -0.299,0.064 -0.402,0.167 H 6.867 C 6.765,1.221 6.701,1.363 6.701,1.521 Z M 12.199,5.61 C 12.072,5.873 11.901,6.113 11.696,6.318 11.231,6.782 10.59,7.071 9.885,7.071 H 5.703 C 4.998,7.071 4.357,6.782 3.892,6.318 3.687,6.113 3.516,5.873 3.389,5.61 3.172,6.15 3.042,6.746 3.042,7.369 v 2.041 5.132 0.048 c 0,0.3 0.123,0.573 0.321,0.771 l -10e-4,10e-4 c 0.198,0.198 0.472,0.321 0.772,0.321 h 0.048 v -2.661 -10e-4 c 0,-0.993 0.406,-1.896 1.061,-2.551 C 5.897,9.816 6.8,9.41 7.794,9.41 c 0.994,0 1.897,0.406 2.551,1.06 0.654,0.655 1.061,1.558 1.061,2.551 v 10e-4 2.661 h 0.047 c 0.301,0 0.575,-0.123 0.773,-0.321 l -0.001,-10e-4 c 0.198,-0.198 0.321,-0.471 0.321,-0.771 V 14.542 9.41 7.369 c 0,-0.623 -0.13,-1.218 -0.347,-1.759 z M 4.087,4.394 v 0.112 c 0,0.444 0.182,0.848 0.474,1.14 0.293,0.292 0.697,0.474 1.142,0.474 h 4.182 c 0.445,0 0.849,-0.182 1.142,-0.474 0.292,-0.292 0.474,-0.696 0.474,-1.14 V 4.394 C 10.857,3.565 10.038,3.042 9.362,3.042 H 6.226 c -0.676,0 -1.495,0.523 -2.139,1.352 z m 2.822,9.103 v 0.685 c 0,0.262 -0.213,0.475 -0.476,0.475 -0.262,0 -0.475,-0.213 -0.475,-0.475 V 13.497 H 5.133 v 2.186 h 5.322 V 13.497 Z M 5.175,12.546 h 1.258 3.979 C 10.314,12.004 10.049,11.518 9.673,11.142 9.191,10.66 8.525,10.36 7.794,10.36 c -0.732,0 -1.397,0.3 -1.879,0.782 -0.376,0.376 -0.641,0.862 -0.74,1.404 z m 8.322,1.046 h 0.57 c 0.157,0 0.301,-0.065 0.404,-0.168 0.103,-0.103 0.166,-0.245 0.166,-0.402 V 11.96 c 0,-0.517 -0.167,-0.897 -0.425,-1.152 -0.194,-0.193 -0.444,-0.322 -0.715,-0.39 z m 0.57,0.95 h -0.57 v 0.048 c 0,0.562 -0.23,1.073 -0.6,1.443 h -0.002 c -0.37,0.37 -0.881,0.6 -1.442,0.6 H 10.93 4.657 4.134 c -0.561,0 -1.071,-0.23 -1.441,-0.6 H 2.691 c -0.37,-0.37 -0.6,-0.881 -0.6,-1.443 V 14.542 H 1.521 C 1.103,14.542 0.724,14.371 0.448,14.096 0.172,13.819 0,13.439 0,13.022 V 11.96 C 0,11.166 0.279,10.561 0.707,10.136 1.086,9.76 1.577,9.534 2.091,9.449 V 7.369 C 2.091,6.025 2.594,4.789 3.305,3.856 3.997,2.948 4.9,2.319 5.75,2.142 V 1.521 C 5.75,1.104 5.922,0.724 6.198,0.447 L 6.197,0.446 C 6.472,0.171 6.852,0 7.271,0 H 8.317 C 8.735,0 9.116,0.171 9.391,0.446 L 9.39,0.447 c 0.276,0.277 0.448,0.657 0.448,1.074 v 0.621 c 0.85,0.177 1.753,0.806 2.445,1.714 0.711,0.933 1.214,2.169 1.214,3.513 v 2.08 c 0.514,0.085 1.005,0.311 1.383,0.687 0.429,0.425 0.708,1.03 0.708,1.824 v 1.062 c 0,0.417 -0.172,0.797 -0.448,1.074 -0.276,0.275 -0.656,0.446 -1.073,0.446 z M 1.521,13.592 h 0.57 V 10.418 C 1.82,10.486 1.57,10.615 1.376,10.808 1.118,11.063 0.951,11.443 0.951,11.96 v 1.062 c 0,0.157 0.063,0.299 0.166,0.402 0.103,0.103 0.246,0.168 0.404,0.168 z"
       id="path6"
       style="fill:&stroke_color;;stroke:none;stroke-width:0.390625;stroke-opacity:1" /></g><path
     style="fill:&fill_color;;fill-opacity:1;stroke:none;stroke-width:1;stroke-linecap:round;stroke-linejoin:miter;stroke-miterlimit:4;stroke-dasharray:none;stroke-opacity:1"
     d="m 17.659946,45.924729 c -0.861119,-0.261939 -1.711439,-1.059845 -1.931568,-1.812505 -0.07846,-0.268286 -0.104993,-3.86632 -0.08011,-10.866276 0.03703,-10.418877 0.0383,-10.469015 0.288219,-11.331486 0.138063,-0.476468 0.303076,-1.003212 0.366695,-1.170542 l 0.115671,-0.304238 0.459405,0.687966 c 0.916695,1.372761 2.49954,2.439166 4.134575,2.785572 1.145202,0.242629 12.184987,0.240661 13.332325,-0.0024 0.980052,-0.2076 2.210808,-0.787105 2.912442,-1.371329 0.477433,-0.397539 1.288336,-1.354267 1.630114,-1.923255 0.10944,-0.182201 0.161024,-0.102075 0.373765,0.580588 0.54966,1.763837 0.572693,2.273139 0.573404,12.679485 7.68e-4,10.979797 0.04298,10.420683 -0.85506,11.318733 -0.436608,0.436606 -1.303488,0.835374 -1.816021,0.835374 -0.110106,0 -0.151322,-0.926244 -0.185011,-4.157788 -0.03722,-3.5704 -0.07219,-4.261676 -0.247527,-4.893175 -1.104683,-3.979138 -4.449709,-6.739397 -8.459685,-6.980786 -3.77931,-0.227504 -7.268673,1.811803 -8.910184,5.207428 -0.830881,1.718758 -0.907057,2.292303 -0.90796,6.836242 l -7.94e-4,3.988083 -0.254558,-0.0097 c -0.140007,-0.0054 -0.382168,-0.04854 -0.538134,-0.09597 z"
     id="path3118" /><path
     style="fill:&fill_color;;fill-opacity:1;stroke:none;stroke-width:1;stroke-linecap:round;stroke-linejoin:miter;stroke-miterlimit:4;stroke-dasharray:none;stroke-opacity:1"
     d="m 20.828517,21.231174 c -0.857956,-0.331566 -1.916659,-1.394799 -2.230954,-2.2405 -0.127189,-0.34224 -0.268016,-0.893152 -0.312947,-1.224251 l -0.08169,-0.601996 1.116899,-1.09506 c 1.177043,-1.154027 1.957535,-1.687215 3.012611,-2.058044 0.599303,-0.21064 0.939251,-0.224955 5.34162,-0.224955 4.458779,0 4.73757,0.01213 5.398397,0.234739 1.005453,0.338713 2.163533,1.129311 3.184906,2.174275 l 0.890724,0.911295 -0.05645,0.703184 c -0.110462,1.376095 -0.888633,2.546226 -2.14719,3.228696 l -0.709182,0.384564 -6.392244,0.02427 c -6.277167,0.02383 -6.403448,0.01994 -7.0145,-0.21621 z"
     id="path3194" /><path
     style="fill:&fill_color;;fill-opacity:1;stroke:none;stroke-width:1;stroke-linecap:round;stroke-linejoin:miter;stroke-miterlimit:4;stroke-dasharray:none;stroke-opacity:1"
     d="M 10.771307,40.309743 C 10.307466,39.919448 10.194852,39.4344 10.195117,37.828 c 2.72e-4,-1.654012 0.147308,-2.626479 0.503352,-3.329099 0.393296,-0.776133 1.249538,-1.502566 2.069031,-1.755361 l 0.254558,-0.07851 v 3.967421 3.967422 h -0.952985 c -0.857824,0 -0.987412,-0.02898 -1.297766,-0.290115 z"
     id="path3233" /><path
     style="fill:&fill_color;;fill-opacity:1;stroke:none;stroke-width:1;stroke-linecap:round;stroke-linejoin:miter;stroke-miterlimit:4;stroke-dasharray:none;stroke-opacity:1"
     d="m 21.12263,37.686577 c 0.378526,-1.632301 1.681905,-3.400732 3.133339,-4.25133 1.932704,-1.132639 4.472113,-1.230643 6.412308,-0.247475 1.731307,0.87732 3.264758,2.763156 3.570035,4.390428 l 0.0787,0.419502 H 27.683746 21.05048 Z"
     id="path3272" /><path
     style="fill:&fill_color;;fill-opacity:1;stroke:none;stroke-width:1;stroke-linecap:round;stroke-linejoin:miter;stroke-miterlimit:4;stroke-dasharray:none;stroke-opacity:1"
     d="M 20.941654,43.258579 V 40.48672 h 1.018234 1.018234 v 1.025672 c 0,1.454392 0.297289,1.910861 1.244508,1.910861 0.947218,0 1.244508,-0.456469 1.244508,-1.910861 V 40.48672 h 4.525482 4.525484 v 2.771859 2.77186 h -6.788225 -6.788225 z"
     id="path3311" /><path
     style="fill:&fill_color;;fill-opacity:1;stroke:none;stroke-width:1;stroke-linecap:round;stroke-linejoin:miter;stroke-miterlimit:4;stroke-dasharray:none;stroke-opacity:1"
     d="m 42.324564,36.64006 c 0,-2.434095 0.04155,-3.959798 0.107827,-3.959798 0.455716,0 1.618278,0.798658 2.026731,1.392325 0.567422,0.824719 0.693883,1.482985 0.693883,3.611861 0,2.062573 -0.06974,2.373276 -0.612493,2.728903 -0.208256,0.136448 -0.543812,0.186496 -1.250288,0.186496 h -0.965648 z"
     id="path3350" /></svg>
