<?xml version="1.0" ?><!DOCTYPE svg  PUBLIC '-//W3C//DTD SVG 1.1//EN'  'http://www.w3.org/Graphics/SVG/1.1/DTD/svg11.dtd' [
	<!ENTITY stroke_color "#666666">
	<!ENTITY fill_color "#ffffff">
]>
<svg
   xmlns:dc="http://purl.org/dc/elements/1.1/"
   xmlns:cc="http://creativecommons.org/ns#"
   xmlns:rdf="http://www.w3.org/1999/02/22-rdf-syntax-ns#"
   xmlns:svg="http://www.w3.org/2000/svg"
   xmlns="http://www.w3.org/2000/svg"
   xmlns:sodipodi="http://sodipodi.sourceforge.net/DTD/sodipodi-0.dtd"
   xmlns:inkscape="http://www.inkscape.org/namespaces/inkscape"
   version="1.1"
   id="Layer_1"
   x="0px"
   y="0px"
   width="55"
   height="55"
   viewBox="0 0 281.6 281.6"
   enable-background="new 0 0 512 512"
   xml:space="preserve"
   inkscape:version="0.48.4 r9939"
   sodipodi:docname="cloud_white.svg"><defs
   id="defs7" /><sodipodi:namedview
   pagecolor="#ffffff"
   bordercolor="#666666"
   borderopacity="1"
   objecttolerance="10"
   gridtolerance="10"
   guidetolerance="10"
   inkscape:pageopacity="0"
   inkscape:pageshadow="2"
   inkscape:window-width="1600"
   inkscape:window-height="837"
   id="namedview5"
   showgrid="false"
   fit-margin-top="0"
   fit-margin-left="0"
   fit-margin-right="0"
   fit-margin-bottom="0"
   inkscape:zoom="2.36"
   inkscape:cx="6.6337872"
   inkscape:cy="18.90625"
   inkscape:window-x="-8"
   inkscape:window-y="-8"
   inkscape:window-maximized="1"
   inkscape:current-layer="Layer_1" />

<g
   id="g2988"
   transform="matrix(0.55,0,0,0.55,0,-7.2)"><path
     style="fill:&stroke_color;"
     id="path3"
     d="m 270,112 c 52.531,0 95.125,41.5 97.531,93.438 C 372.313,204.75 377.063,204 382,204 c 54.125,0 98,43.875 98,98 0,54.125 -43.875,98 -98,98 H 116 C 69.625,400 32,362.406 32,316 32,276.469 59.438,243.5 96.25,234.562 96.219,233.688 96,232.875 96,232 c 0,-30.938 25.063,-56 56,-56 8.875,0 17.125,2.25 24.563,5.906 C 188.719,141.563 225.719,112 270,112 m 0,-32 C 223,80 181.125,104.875 158.25,144.25 156.187,144.062 154.094,144 152,144 110.625,144 75.812,172.75 66.437,211.313 26.406,230.125 0,270.406 0,316 0,379.969 52.031,432 116,432 H 382 C 453.688,432 512,373.687 512,302 512,234.437 460.187,178.75 394.187,172.562 378.156,118.75 328.531,80 270,80 l 0,0 z"
     inkscape:connector-curvature="0" /><path
     transform="scale(5.12,5.12)"
     inkscape:connector-curvature="0"
     id="path2986"
     d="M 19.510721,77.503237 C 13.136228,76.253674 7.8442867,70.714648 6.7736451,64.171458 5.6864569,57.527143 9.3017381,50.499017 15.36545,47.468945 c 1.411585,-0.705378 2.82208,-1.282504 3.134432,-1.282504 0.373035,0 0.569335,-0.545259 0.572054,-1.588983 0.0095,-3.653457 3.088983,-7.74981 6.928224,-9.216029 1.893338,-0.723073 5.465422,-0.730584 7.690026,-0.01617 0.717229,0.230333 1.039581,-0.123297 2.048069,-2.246799 3.559598,-7.495197 11.685191,-11.947783 19.564948,-10.721019 8.432971,1.312892 14.618742,7.571453 16.078623,16.267813 l 0.266746,1.588983 3.052831,0.0046 c 5.309673,0.008 9.838567,1.953536 13.459347,5.781978 5.780237,6.111746 6.886284,15.259447 2.707229,22.390467 -1.533996,2.617564 -4.713119,5.704636 -7.356153,7.143152 -4.225131,2.299606 -5.435729,2.380484 -34.994877,2.337899 -14.915254,-0.02148 -27.968057,-0.205576 -29.006228,-0.409081 l 0,0 z"
     style="fill:&fill_color;;fill-opacity:1;stroke:&stroke_color;;stroke-width:1.27118647;stroke-miterlimit:4;stroke-opacity:1;stroke-dasharray:none" /></g><g
   id="g3014"
   style="fill:&stroke_color;;stroke:&stroke_color;"
   transform="matrix(0.66610069,0,0,0.66610069,179.31393,-155.3697)"><g
     transform="matrix(5.12,0,0,5.12,-195.0067,309.90981)"
     id="g3004"
     style="fill:&stroke_color;;stroke:&stroke_color;"><path
       style="fill:&stroke_color;;fill-opacity:1;stroke:&stroke_color;;stroke-width:0.69915253;stroke-miterlimit:4;stroke-opacity:1;stroke-dasharray:none"
       d="m 15.845088,20.450212 c -1.294138,-0.880782 -1.747004,-1.685621 -1.73365,-3.081062 0.03775,-3.94454 5.310314,-4.969863 6.913976,-1.344518 0.553448,1.251161 0.413973,2.378886 -0.432088,3.493621 -1.153222,1.51944 -3.273568,1.935611 -4.748238,0.931959 z"
       id="path2989"
       inkscape:connector-curvature="0" /><path
       style="fill:&stroke_color;;fill-opacity:1;stroke:&stroke_color;;stroke-width:0.69915253;stroke-miterlimit:4;stroke-opacity:1;stroke-dasharray:none"
       d="M 25.726148,16.568802 C 23.990923,15.510693 23.399755,13.598715 24.282357,11.899237 25.066122,10.390073 25.849187,9.904661 27.5,9.904661 c 1.650418,0 2.432997,0.484907 3.218993,1.994576 0.385306,0.74006 0.507537,1.286667 0.428845,1.91775 -0.129248,1.036524 -1.06168,2.352401 -2.016956,2.846394 -0.934866,0.483437 -2.52947,0.439142 -3.404734,-0.09458 l 0,0 z"
       id="path2991"
       inkscape:connector-curvature="0" /><path
       style="fill:&stroke_color;;fill-opacity:1;stroke:&stroke_color;;stroke-width:0.69915253;stroke-miterlimit:4;stroke-opacity:1;stroke-dasharray:none"
       d="m 36.705508,21.28041 c -0.735256,-0.189718 -1.948388,-1.19825 -2.330753,-1.937663 -0.524111,-1.01352 -0.445418,-2.586027 0.175033,-3.497659 0.880782,-1.294138 1.685621,-1.747004 3.081062,-1.73365 4.538778,0.04343 4.853488,6.522847 0.348385,7.172734 -0.444194,0.06408 -1.017371,0.06238 -1.273727,-0.0038 z"
       id="path2993"
       inkscape:connector-curvature="0" /><path
       style="fill:&stroke_color;;fill-opacity:1;stroke:&stroke_color;;stroke-width:0.69915253;stroke-miterlimit:4;stroke-opacity:1;stroke-dasharray:none"
       d="m 40.317916,30.97934 c -1.95865,-0.82254 -2.918424,-3.298018 -1.981297,-5.110222 0.491927,-0.951282 1.718119,-1.818584 2.804665,-1.983778 1.097603,-0.166875 2.72637,0.566112 3.441674,1.548842 0.611165,0.839658 0.763206,2.458518 0.328592,3.498694 -0.686224,1.642366 -3.049178,2.695062 -4.593634,2.046464 l 0,0 z"
       id="path2995"
       inkscape:connector-curvature="0" /><path
       style="fill:&stroke_color;;fill-opacity:1;stroke:&stroke_color;;stroke-width:0.69915253;stroke-miterlimit:4;stroke-opacity:1;stroke-dasharray:none"
       d="M 35.773305,40.923143 C 33.689887,40.0035 33.014811,37.31561 34.406674,35.481746 c 1.562786,-2.059065 4.383441,-1.941187 6.006219,0.251005 0.751453,1.015128 0.660151,2.880181 -0.195942,4.002576 -1.07013,1.403014 -2.867613,1.883493 -4.443646,1.187816 z"
       id="path2997"
       inkscape:connector-curvature="0" /><path
       style="fill:&stroke_color;;fill-opacity:1;stroke:&stroke_color;;stroke-width:0.69915253;stroke-miterlimit:4;stroke-opacity:1;stroke-dasharray:none"
       d="m 25.956999,44.889972 c -0.400028,-0.1812 -1.023928,-0.718322 -1.386444,-1.193606 -0.855452,-1.121555 -0.946498,-2.986984 -0.195313,-4.00175 1.625792,-2.196263 4.438604,-2.309989 6.015025,-0.243195 0.871409,1.142477 0.983039,2.386842 0.327376,3.649342 -0.295657,0.569297 -0.818147,1.239397 -1.161088,1.48911 -0.795619,0.579332 -2.64307,0.733356 -3.599556,0.300099 l 0,0 z"
       id="path2999"
       inkscape:connector-curvature="0" /><path
       style="fill:&stroke_color;;fill-opacity:1;stroke:&stroke_color;;stroke-width:0.69915253;stroke-miterlimit:4;stroke-opacity:1;stroke-dasharray:none"
       d="m 16.363442,40.862525 c -0.29301,-0.06228 -0.938973,-0.499676 -1.435474,-0.971986 -2.083703,-1.982179 -1.221234,-5.333467 1.565725,-6.083917 1.16536,-0.313799 2.012115,-0.142737 3.02456,0.611025 2.034213,1.514462 1.940503,4.372701 -0.195209,5.954052 -0.619933,0.459019 -2.018256,0.690919 -2.959602,0.490826 z"
       id="path3001"
       inkscape:connector-curvature="0" /><path
       style="fill:&stroke_color;;fill-opacity:1;stroke:&stroke_color;;stroke-width:0.69915253;stroke-miterlimit:4;stroke-opacity:1;stroke-dasharray:none"
       d="M 11.899237,30.717643 C 10.594379,30.039982 10.001412,29.23083 9.8545004,27.927432 9.7025818,26.579615 10.20938,25.405183 11.302809,24.571184 c 2.315778,-1.76633 5.709903,-0.02536 5.709903,2.928816 0,1.195436 -0.477238,2.137525 -1.464133,2.890267 -1.142477,0.871409 -2.386842,0.983039 -3.649342,0.327376 z"
       id="path3003"
       inkscape:connector-curvature="0" /></g></g></svg>