<svg height='100px' width='100px'  fill="#666666" xmlns="http://www.w3.org/2000/svg" viewBox="0 0 24 24" enable-background="new 0 0 24 24" x="0px" y="0px"><g><path d="M12 24c-3.255 0-6.301-1.274-8.578-3.59-2.259-2.297-3.474-5.333-3.421-8.549.004-.236.092-.464.248-.642.134-.153.319-.272.516-.322.885-.223 1.633-.82 2.055-1.638.233-.452.768-.657 1.244-.477 2.208.838 4.312-.847 4.312-2.97l-.019-.178-.022-.167c-.03-.276.057-.552.239-.762.182-.209.443-.334.721-.344 1.433-.049 2.663-1.052 2.991-2.439.253-1.069 1.353-1.728 2.454-1.475 5.452 1.268 9.26 6.044 9.26 11.615 0 6.583-5.383 11.938-12 11.938zm-9.987-11.418c.124 2.418 1.116 4.679 2.835 6.426 1.898 1.93 4.438 2.992 7.152 2.992 5.514 0 10-4.458 10-9.938 0-4.636-3.172-8.611-7.713-9.667l-.067.013c-.446 1.91-1.972 3.382-3.861 3.82-.213 2.668-2.451 4.772-5.171 4.772-.343 0-.688-.037-1.033-.11-.552.745-1.292 1.329-2.142 1.692z"></path><circle cx="14.5" cy="8.5" r="1.5"></circle><circle cx="7.5" cy="14.5" r="1.5"></circle><circle cx="15.5" cy="16.5" r="1.5"></circle><circle cx="12" cy="12" r="1"></circle><circle cx="10" cy="18" r="1"></circle><circle cx="9" cy="1" r="1"></circle><circle cx="4.5" cy="5.5" r="1.5"></circle><circle cx="18" cy="12" r="1"></circle></g></svg>
