<?xml version="1.0" ?><!DOCTYPE svg  PUBLIC '-//W3C//DTD SVG 1.1//EN'  'http://www.w3.org/Graphics/SVG/1.1/DTD/svg11.dtd' [
	<!ENTITY stroke_color "#666666">
	<!ENTITY fill_color "#ffffff">
]>
<svg
	xmlns:dc="http://purl.org/dc/elements/1.1/"
    xmlns:cc="http://creativecommons.org/ns#"
    xmlns:rdf="http://www.w3.org/1999/02/22-rdf-syntax-ns#"
    xmlns:svg="http://www.w3.org/2000/svg"
    xmlns="http://www.w3.org/2000/svg"
    xmlns:sodipodi="http://sodipodi.sourceforge.net/DTD/sodipodi-0.dtd"
    xmlns:inkscape="http://www.inkscape.org/namespaces/inkscape"
   enable-background="new 0 0 55 55"
   height="55px"
   id="Layer_1"
   version="1.1"
   viewBox="0 0 55 55"
   width="55px"
   x="0px"
   xml:space="preserve"
   y="0px"
   inkscape:version="0.91 r13725"
   sodipodi:docname="copy-journal.svg"><g
     display="block"
     id="activity-journal"
     transform="matrix(0.81,0,0,0.81,4.8235471,-3.1648305)"
     style="display:block"><path
       d="M 45.866,44.669 C 45.866,47.18 44.338,49 41.534,49 l -29.457,0 0,-43 29.458,0 c 2.15,0 4.332,2.154 4.332,4.33 l -10e-4,34.339 0,0 z"
       id="path4"
       inkscape:connector-curvature="0"
       style="fill:&fill_color;;stroke:&stroke_color;;stroke-width:3.5;stroke-linecap:round;stroke-linejoin:round" /><line
       x1="21.341"
       x2="21.341"
       y1="6.1209998"
       y2="48.881001"
       id="line6"
       style="fill:none;stroke:&stroke_color;;stroke-width:3.5;stroke-linecap:round;stroke-linejoin:round" /><path
       d="m 7.384,14.464 c 0,0 2.084,0.695 4.17,0.695 2.086,0 4.173,-0.695 4.173,-0.695"
       id="path8"
       inkscape:connector-curvature="0"
       style="fill:none;stroke:&stroke_color;;stroke-width:3.5;stroke-linecap:round;stroke-linejoin:round" /><path
       d="m 7.384,28.021 c 0,0 1.912,0.695 4.345,0.695 2.433,0 3.999,-0.695 3.999,-0.695"
       id="path10"
       inkscape:connector-curvature="0"
       style="fill:none;stroke:&stroke_color;;stroke-width:3.5;stroke-linecap:round;stroke-linejoin:round" /><path
       d="m 7.384,41.232 c 0,0 1.736,0.695 4.518,0.695 2.781,0 3.825,-0.695 3.825,-0.695"
       id="path12"
       inkscape:connector-curvature="0"
       style="fill:none;stroke:&stroke_color;;stroke-width:3.5;stroke-linecap:round;stroke-linejoin:round" />
   </g><g
   id="g4317"
   transform="translate(13.499311,-19.027601)"><line
   id="line4273"
   y2="70.849174"
   y1="58.685173"
   x2="13.92783"
   x1="13.92783"
   style="fill:none;stroke:#ffffff;stroke-width:2.98670006;stroke-linecap:round;stroke-linejoin:round" /><polyline
   transform="translate(-2.7851698,52.685173)"
   id="polyline4275"
   points="     11.583,12.083 16.713,6 21.843,12.083    "
   style="fill:none;stroke:#ffffff;stroke-width:2.98670006;stroke-linecap:round;stroke-linejoin:round" /></g></svg>
