<?xml version="1.0" encoding="UTF-8" standalone="no"?>
<svg
   xmlns:dc="http://purl.org/dc/elements/1.1/"
   xmlns:cc="http://creativecommons.org/ns#"
   xmlns:rdf="http://www.w3.org/1999/02/22-rdf-syntax-ns#"
   xmlns:svg="http://www.w3.org/2000/svg"
   xmlns="http://www.w3.org/2000/svg"
   xmlns:sodipodi="http://sodipodi.sourceforge.net/DTD/sodipodi-0.dtd"
   xmlns:inkscape="http://www.inkscape.org/namespaces/inkscape"
   enable-background="new 0 0 55.125 55"
   height="22"
   version="1.1"
   viewBox="0 0 22 22"
   width="22"
   x="0px"
   xml:space="preserve"
   y="0px"
   id="svg2"
   inkscape:version="0.48.4 r9939"
   sodipodi:docname="entry-ok.svg"><defs
     id="defs9" /><sodipodi:namedview
     pagecolor="#ffffff"
     bordercolor="#666666"
     borderopacity="1"
     objecttolerance="10"
     gridtolerance="10"
     guidetolerance="10"
     inkscape:pageopacity="0"
     inkscape:pageshadow="2"
     inkscape:window-width="753"
     inkscape:window-height="480"
     id="namedview7"
     showgrid="false"
     inkscape:zoom="4.2909091"
     inkscape:cx="52.662076"
     inkscape:cy="11"
     inkscape:window-x="0"
     inkscape:window-y="0"
     inkscape:window-maximized="0"
     inkscape:current-layer="svg2"
     fit-margin-top="0"
     fit-margin-left="0"
     fit-margin-right="0"
     fit-margin-bottom="0" /><g
     display="block"
     id="dialog-ok"
     style="fill:#000000;display:block"
     transform="matrix(0.48888889,0,0,0.48888889,-2.4444445,-2.4444444)">
	<path
   d="M 27.498,5 C 15.071,5 5,15.071 5,27.498 5,39.923 15.071,50 27.498,50 39.927,50 50,39.923 50,27.498 50,15.071 39.927,5 27.498,5 z M 41.419,19.886 24.706,40.208 13.789,29.29 c -1.258,-1.254 -1.258,-3.292 -0.003,-4.546 1.254,-1.255 3.292,-1.255 4.547,0 L 24.241,30.648 36.452,15.8 c 1.127,-1.368 3.153,-1.568 4.525,-0.438 1.37,1.127 1.569,3.153 0.442,4.524 z"
   display="inline"
   id="path5"
   style="fill:#000000;display:inline"
   inkscape:connector-curvature="0" />
</g></svg>