<?xml version="1.0" encoding="UTF-8" standalone="no"?>
<!DOCTYPE svg PUBLIC "-//W3C//DTD SVG 1.1//EN" "http://www.w3.org/Graphics/SVG/1.1/DTD/svg11.dtd" [
	<!ENTITY stroke_color "#000000">
	<!ENTITY fill_color "#999999">
]>
<svg
   xmlns:dc="http://purl.org/dc/elements/1.1/"
   xmlns:cc="http://creativecommons.org/ns#"
   xmlns:rdf="http://www.w3.org/1999/02/22-rdf-syntax-ns#"
   xmlns:svg="http://www.w3.org/2000/svg"
   xmlns="http://www.w3.org/2000/svg"
   xmlns:sodipodi="http://sodipodi.sourceforge.net/DTD/sodipodi-0.dtd"
   xmlns:inkscape="http://www.inkscape.org/namespaces/inkscape"
   version="1.1"
   x="0px"
   y="0px"
   viewBox="0 0 55 55"
   enable-background="new 0 0 90 90"
   xml:space="preserve"
   id="svg2"
   inkscape:version="0.48.4 r9939"
   width="100%"
   height="100%"
   sodipodi:docname="activity-icon.svg"><metadata
     id="metadata34"></metadata><defs
     id="defs32" /><sodipodi:namedview
     pagecolor="#ffffff"
     bordercolor="#666666"
     borderopacity="1"
     objecttolerance="10"
     gridtolerance="10"
     guidetolerance="10"
     inkscape:pageopacity="0"
     inkscape:pageshadow="2"
     inkscape:window-width="1600"
     inkscape:window-height="837"
     id="namedview30"
     showgrid="false"
     fit-margin-left="3"
     fit-margin-right="2"
     fit-margin-top="3"
     fit-margin-bottom="2"
     inkscape:zoom="2.0977778"
     inkscape:cx="-103.42479"
     inkscape:cy="15.75"
     inkscape:window-x="-8"
     inkscape:window-y="-8"
     inkscape:window-maximized="1"
     inkscape:current-layer="svg2" /><path
     d="M 9.944444,5.777778 H 6.611111 C 5.997778,5.777778 5.5,6.275556 5.5,6.888889 v 3.333333 c 0,0.613334 0.497778,1.111111 1.111111,1.111111 h 3.333333 c 0.613334,0 1.111112,-0.497777 1.111112,-1.111111 V 6.888889 c 0,-0.613333 -0.497778,-1.111111 -1.111112,-1.111111 z"
     id="path4"
     inkscape:connector-curvature="0"
     style="fill:&fill_color;;stroke:&stroke_color;;" /><path
     d="m 23.092778,5.777778 h -3.333334 c -0.613333,0 -1.111111,0.497778 -1.111111,1.111111 v 3.333333 c 0,0.613334 0.497778,1.111111 1.111111,1.111111 h 3.333334 c 0.613333,0 1.111111,-0.497777 1.111111,-1.111111 V 6.888889 c 0,-0.613333 -0.497778,-1.111111 -1.111111,-1.111111 z"
     id="path6"
     inkscape:connector-curvature="0"
     style="fill:&fill_color;;stroke:&stroke_color;;" /><path
     d="m 6.611111,50.222222 h 3.333333 c 0.613334,0 1.111112,-0.497778 1.111112,-1.111111 v -3.333333 c 0,-0.613334 -0.497778,-1.111111 -1.111112,-1.111111 H 6.611111 C 5.997778,44.666667 5.5,45.164444 5.5,45.777778 v 3.333333 c 0,0.613333 0.497778,1.111111 1.111111,1.111111 z"
     id="path8"
     inkscape:connector-curvature="0"
     style="fill:&fill_color;;stroke:&stroke_color;;" /><path
     d="m 36.241111,5.777778 h -3.333333 c -0.613334,0 -1.111111,0.497778 -1.111111,1.111111 v 3.333333 c 0,0.613334 0.497777,1.111111 1.111111,1.111111 h 3.333333 c 0.613889,0 1.111111,-0.497777 1.111111,-1.111111 V 6.888889 c 0,-0.613333 -0.497222,-1.111111 -1.111111,-1.111111 z"
     id="path10"
     inkscape:connector-curvature="0"
     style="fill:&fill_color;;stroke:&stroke_color;;" /><path
     d="m 32.907778,50.222222 h 3.333333 c 0.613889,0 1.111111,-0.497778 1.111111,-1.111111 v -3.333333 c 0,-0.613334 -0.497222,-1.111111 -1.111111,-1.111111 h -3.333333 c -0.613334,0 -1.111111,0.497777 -1.111111,1.111111 v 3.333333 c 0,0.613333 0.497777,1.111111 1.111111,1.111111 z"
     id="path12"
     inkscape:connector-curvature="0"
     style="fill:&fill_color;;stroke:&stroke_color;;" /><path
     d="m 19.759444,50.222222 h 3.333334 c 0.613333,0 1.111111,-0.497778 1.111111,-1.111111 v -3.333333 c 0,-0.613334 -0.497778,-1.111111 -1.111111,-1.111111 h -3.333334 c -0.613333,0 -1.111111,0.497777 -1.111111,1.111111 v 3.333333 c 0,0.613333 0.497223,1.111111 1.111111,1.111111 z"
     id="path14"
     inkscape:connector-curvature="0"
     style="fill:&fill_color;;stroke:&stroke_color;;" /><path
     d="m 49.388889,5.777778 h -3.333333 c -0.613334,0 -1.111112,0.497778 -1.111112,1.111111 v 3.333333 c 0,0.613334 0.497778,1.111111 1.111112,1.111111 h 3.333333 c 0.613889,0 1.111111,-0.497777 1.111111,-1.111111 V 6.888889 c 0,-0.613333 -0.497222,-1.111111 -1.111111,-1.111111 z"
     id="path16"
     inkscape:connector-curvature="0"
     style="fill:&fill_color;;stroke:&stroke_color;;" /><path
     d="m 46.055556,50.222222 h 3.333333 c 0.613889,0 1.111111,-0.497778 1.111111,-1.111111 v -3.333333 c 0,-0.613334 -0.497222,-1.111111 -1.111111,-1.111111 h -3.333333 c -0.613334,0 -1.111112,0.497777 -1.111112,1.111111 v 3.333333 c 0,0.613333 0.497778,1.111111 1.111112,1.111111 z"
     id="path18"
     inkscape:connector-curvature="0"
     style="fill:&fill_color;;stroke:&stroke_color;;" /><path
     d="M 3,50.222222 C 3,51.756667 4.243889,53 5.777778,53 H 50.222222 C 51.756667,53 53,51.756667 53,50.222222 V 40.870556 H 3 v 9.351666 z m 41.944444,-4.444444 c 0,-0.613334 0.497778,-1.111111 1.111112,-1.111111 h 3.333333 c 0.613889,0 1.111111,0.497777 1.111111,1.111111 v 3.333333 c 0,0.613333 -0.497222,1.111111 -1.111111,1.111111 h -3.333333 c -0.613334,0 -1.111112,-0.497778 -1.111112,-1.111111 v -3.333333 z m -13.147777,0 c 0,-0.613334 0.497777,-1.111111 1.111111,-1.111111 h 3.333333 c 0.613889,0 1.111111,0.497777 1.111111,1.111111 v 3.333333 c 0,0.613333 -0.497222,1.111111 -1.111111,1.111111 h -3.333333 c -0.613334,0 -1.111111,-0.497778 -1.111111,-1.111111 v -3.333333 z m -13.148334,0 c 0,-0.613334 0.497778,-1.111111 1.111111,-1.111111 h 3.333334 c 0.613333,0 1.111111,0.497777 1.111111,1.111111 v 3.333333 c 0,0.613333 -0.497778,1.111111 -1.111111,1.111111 h -3.333334 c -0.613333,0 -1.111111,-0.497778 -1.111111,-1.111111 v -3.333333 z m -13.148333,0 c 0,-0.613334 0.497778,-1.111111 1.111111,-1.111111 h 3.333333 c 0.613334,0 1.111112,0.497777 1.111112,1.111111 v 3.333333 c 0,0.613333 -0.497778,1.111111 -1.111112,1.111111 H 6.611111 C 5.997778,50.222222 5.5,49.724444 5.5,49.111111 v -3.333333 z"
     id="path20"
     inkscape:connector-curvature="0" /><path
     d="M 53,5.777778 C 53,4.243889 51.756667,3 50.222222,3 H 5.777778 C 4.243889,3 3,4.243889 3,5.777778 v 9.351666 H 53 V 5.777778 z m -41.944444,4.444444 c 0,0.613334 -0.497778,1.111111 -1.111112,1.111111 H 6.611111 C 5.997778,11.333333 5.5,10.835556 5.5,10.222222 V 6.888889 C 5.5,6.275556 5.997778,5.777778 6.611111,5.777778 h 3.333333 c 0.613334,0 1.111112,0.497778 1.111112,1.111111 v 3.333333 z m 13.148333,0 c 0,0.613334 -0.497778,1.111111 -1.111111,1.111111 h -3.333334 c -0.613333,0 -1.111111,-0.497777 -1.111111,-1.111111 V 6.888889 c 0,-0.613333 0.497778,-1.111111 1.111111,-1.111111 h 3.333334 c 0.613333,0 1.111111,0.497778 1.111111,1.111111 v 3.333333 z m 13.148333,0 c 0,0.613334 -0.497222,1.111111 -1.111111,1.111111 h -3.333333 c -0.613334,0 -1.111111,-0.497777 -1.111111,-1.111111 V 6.888889 c 0,-0.613333 0.497777,-1.111111 1.111111,-1.111111 h 3.333333 c 0.613889,0 1.111111,0.497778 1.111111,1.111111 v 3.333333 z m 13.147778,0 c 0,0.613334 -0.497222,1.111111 -1.111111,1.111111 h -3.333333 c -0.613334,0 -1.111112,-0.497777 -1.111112,-1.111111 V 6.888889 c 0,-0.613333 0.497778,-1.111111 1.111112,-1.111111 h 3.333333 c 0.613889,0 1.111111,0.497778 1.111111,1.111111 v 3.333333 z"
     id="path22"
     inkscape:connector-curvature="0" /><path
     d="M 3,16.148333 V 39.851667 H 53 V 16.148333 H 3 z m 20.370556,21.481111 v -20.185 L 35.963333,27.537222 23.370556,37.629444 z"
     id="path24"
     inkscape:connector-curvature="0"
     style="fill:&fill_color;;stroke:&stroke_color;;" /></svg>