<?xml version="1.0" encoding="UTF-8" standalone="no"?>
<svg
   xmlns:dc="http://purl.org/dc/elements/1.1/"
   xmlns:cc="http://creativecommons.org/ns#"
   xmlns:rdf="http://www.w3.org/1999/02/22-rdf-syntax-ns#"
   xmlns:svg="http://www.w3.org/2000/svg"
   xmlns="http://www.w3.org/2000/svg"
   version="1.1"
   width="514"
   height="151.1241"
   id="svg2">
  <metadata
     id="metadata117">
    <rdf:RDF>
      <cc:Work
         rdf:about="">
        <dc:format>image/svg+xml</dc:format>
        <dc:type
           rdf:resource="http://purl.org/dc/dcmitype/StillImage" />
        <dc:title></dc:title>
      </cc:Work>
    </rdf:RDF>
  </metadata>
  <defs
     id="defs115">
    <filter
       id="dropshadow"
       height="1.3"
       style="color-interpolation-filters:sRGB">
      <feGaussianBlur
         in="SourceAlpha"
         stdDeviation="3"
         id="feGaussianBlur7" />
      <feOffset
         dx="2"
         dy="2"
         result="offsetblur"
         id="feOffset9" />
      <feComponentTransfer
         id="feComponentTransfer11">
        <feFuncA
           type="linear"
           slope="0.2"
           id="feFuncA13" />
      </feComponentTransfer>
      <feMerge
         id="feMerge15">
        <feMergeNode
           id="feMergeNode17" />
        <feMergeNode
           in="SourceGraphic"
           id="feMergeNode19" />
      </feMerge>
    </filter>
    <filter
       id="dropshadow-4"
       height="1.3"
       style="color-interpolation-filters:sRGB">
      <feGaussianBlur
         in="SourceAlpha"
         stdDeviation="3"
         id="feGaussianBlur7-6" />
      <feOffset
         dx="2"
         dy="2"
         result="offsetblur"
         id="feOffset9-3" />
      <feComponentTransfer
         id="feComponentTransfer11-4">
        <feFuncA
           type="linear"
           slope="0.2"
           id="feFuncA13-8" />
      </feComponentTransfer>
      <feMerge
         id="feMerge15-8">
        <feMergeNode
           id="feMergeNode17-9" />
        <feMergeNode
           in="SourceGraphic"
           id="feMergeNode19-0" />
      </feMerge>
    </filter>
    <filter
       id="dropshadow-9"
       height="1.3"
       style="color-interpolation-filters:sRGB">
      <feGaussianBlur
         id="feGaussianBlur7-2"
         stdDeviation="3"
         in="SourceAlpha" />
      <feOffset
         id="feOffset9-9"
         result="offsetblur"
         dy="2"
         dx="2" />
      <feComponentTransfer
         id="feComponentTransfer11-3">
        <feFuncA
           id="feFuncA13-3"
           slope="0.2"
           type="linear" />
      </feComponentTransfer>
      <feMerge
         id="feMerge15-7">
        <feMergeNode
           id="feMergeNode17-7" />
        <feMergeNode
           id="feMergeNode19-6"
           in="SourceGraphic" />
      </feMerge>
    </filter>
    <filter
       id="dropshadow-0"
       height="1.3"
       style="color-interpolation-filters:sRGB">
      <feGaussianBlur
         id="feGaussianBlur3083"
         stdDeviation="3"
         in="SourceAlpha" />
      <feOffset
         id="feOffset3085"
         result="offsetblur"
         dy="2"
         dx="2" />
      <feComponentTransfer
         id="feComponentTransfer3087">
        <feFuncA
           id="feFuncA3089"
           slope="0.2"
           type="linear" />
      </feComponentTransfer>
      <feMerge
         id="feMerge3091">
        <feMergeNode
           id="feMergeNode3093" />
        <feMergeNode
           id="feMergeNode3095"
           in="SourceGraphic" />
      </feMerge>
    </filter>
    <filter
       id="dropshadow-6"
       height="1.3"
       style="color-interpolation-filters:sRGB">
      <feGaussianBlur
         in="SourceAlpha"
         stdDeviation="3"
         id="feGaussianBlur3576" />
      <feOffset
         dx="2"
         dy="2"
         result="offsetblur"
         id="feOffset3578" />
      <feComponentTransfer
         id="feComponentTransfer3580">
        <feFuncA
           type="linear"
           slope="0.2"
           id="feFuncA3582" />
      </feComponentTransfer>
      <feMerge
         id="feMerge3584">
        <feMergeNode
           id="feMergeNode3586" />
        <feMergeNode
           in="SourceGraphic"
           id="feMergeNode3588" />
      </feMerge>
    </filter>
    <filter
       id="dropshadow-2"
       height="1.3"
       style="color-interpolation-filters:sRGB">
      <feGaussianBlur
         in="SourceAlpha"
         stdDeviation="3"
         id="feGaussianBlur7-0" />
      <feOffset
         dx="2"
         dy="2"
         result="offsetblur"
         id="feOffset9-7" />
      <feComponentTransfer
         id="feComponentTransfer11-0">
        <feFuncA
           type="linear"
           slope="0.2"
           id="feFuncA13-87" />
      </feComponentTransfer>
      <feMerge
         id="feMerge15-1">
        <feMergeNode
           id="feMergeNode17-2" />
        <feMergeNode
           in="SourceGraphic"
           id="feMergeNode19-4" />
      </feMerge>
    </filter>
    <filter
       id="dropshadow-8"
       height="1.3"
       style="color-interpolation-filters:sRGB">
      <feGaussianBlur
         id="feGaussianBlur3013"
         stdDeviation="3"
         in="SourceAlpha" />
      <feOffset
         id="feOffset3015"
         result="offsetblur"
         dy="2"
         dx="2" />
      <feComponentTransfer
         id="feComponentTransfer3017">
        <feFuncA
           id="feFuncA3019"
           slope="0.2"
           type="linear" />
      </feComponentTransfer>
      <feMerge
         id="feMerge3021">
        <feMergeNode
           id="feMergeNode3023" />
        <feMergeNode
           id="feMergeNode3025"
           in="SourceGraphic" />
      </feMerge>
    </filter>
    <filter
       id="dropshadow-92"
       height="1.3"
       style="color-interpolation-filters:sRGB">
      <feGaussianBlur
         id="feGaussianBlur7-5"
         stdDeviation="3"
         in="SourceAlpha" />
      <feOffset
         id="feOffset9-2"
         result="offsetblur"
         dy="2"
         dx="2" />
      <feComponentTransfer
         id="feComponentTransfer11-9">
        <feFuncA
           id="feFuncA13-4"
           slope="0.2"
           type="linear" />
      </feComponentTransfer>
      <feMerge
         id="feMerge15-0">
        <feMergeNode
           id="feMergeNode17-4" />
        <feMergeNode
           id="feMergeNode19-00"
           in="SourceGraphic" />
      </feMerge>
    </filter>
    <filter
       id="dropshadow-88"
       height="1.3"
       style="color-interpolation-filters:sRGB">
      <feGaussianBlur
         id="feGaussianBlur3013-0"
         stdDeviation="3"
         in="SourceAlpha" />
      <feOffset
         id="feOffset3015-5"
         result="offsetblur"
         dy="2"
         dx="2" />
      <feComponentTransfer
         id="feComponentTransfer3017-9">
        <feFuncA
           id="feFuncA3019-0"
           slope="0.2"
           type="linear" />
      </feComponentTransfer>
      <feMerge
         id="feMerge3021-0">
        <feMergeNode
           id="feMergeNode3023-2" />
        <feMergeNode
           id="feMergeNode3025-7"
           in="SourceGraphic" />
      </feMerge>
    </filter>
    <filter
       id="dropshadow-1"
       height="1.3"
       style="color-interpolation-filters:sRGB">
      <feGaussianBlur
         id="feGaussianBlur3211"
         stdDeviation="3"
         in="SourceAlpha" />
      <feOffset
         id="feOffset3213"
         result="offsetblur"
         dy="2"
         dx="2" />
      <feComponentTransfer
         id="feComponentTransfer3215">
        <feFuncA
           id="feFuncA3217"
           slope="0.2"
           type="linear" />
      </feComponentTransfer>
      <feMerge
         id="feMerge3219">
        <feMergeNode
           id="feMergeNode3221" />
        <feMergeNode
           id="feMergeNode3223"
           in="SourceGraphic" />
      </feMerge>
    </filter>
    <filter
       id="dropshadow-9-5"
       height="1.3"
       style="color-interpolation-filters:sRGB">
      <feGaussianBlur
         id="feGaussianBlur3052"
         stdDeviation="3"
         in="SourceAlpha" />
      <feOffset
         id="feOffset3054"
         result="offsetblur"
         dy="2"
         dx="2" />
      <feComponentTransfer
         id="feComponentTransfer3056">
        <feFuncA
           id="feFuncA3058"
           slope="0.2"
           type="linear" />
      </feComponentTransfer>
      <feMerge
         id="feMerge3060">
        <feMergeNode
           id="feMergeNode3062" />
        <feMergeNode
           id="feMergeNode3064"
           in="SourceGraphic" />
      </feMerge>
    </filter>
    <filter
       id="dropshadow-7"
       height="1.3"
       style="color-interpolation-filters:sRGB">
      <feGaussianBlur
         id="feGaussianBlur3141"
         stdDeviation="3"
         in="SourceAlpha" />
      <feOffset
         id="feOffset3143"
         result="offsetblur"
         dy="2"
         dx="2" />
      <feComponentTransfer
         id="feComponentTransfer3145">
        <feFuncA
           id="feFuncA3147"
           slope="0.2"
           type="linear" />
      </feComponentTransfer>
      <feMerge
         id="feMerge3149">
        <feMergeNode
           id="feMergeNode3151" />
        <feMergeNode
           id="feMergeNode3153"
           in="SourceGraphic" />
      </feMerge>
    </filter>
    <filter
       id="dropshadow-18"
       height="1.3"
       style="color-interpolation-filters:sRGB">
      <feGaussianBlur
         id="feGaussianBlur3611"
         stdDeviation="3"
         in="SourceAlpha" />
      <feOffset
         id="feOffset3613"
         result="offsetblur"
         dy="2"
         dx="2" />
      <feComponentTransfer
         id="feComponentTransfer3615">
        <feFuncA
           id="feFuncA3617"
           slope="0.2"
           type="linear" />
      </feComponentTransfer>
      <feMerge
         id="feMerge3619">
        <feMergeNode
           id="feMergeNode3621" />
        <feMergeNode
           id="feMergeNode3623"
           in="SourceGraphic" />
      </feMerge>
    </filter>
    <filter
       id="dropshadow-2-0"
       height="1.3"
       style="color-interpolation-filters:sRGB">
      <feGaussianBlur
         id="feGaussianBlur3100"
         stdDeviation="3"
         in="SourceAlpha" />
      <feOffset
         id="feOffset3102"
         result="offsetblur"
         dy="2"
         dx="2" />
      <feComponentTransfer
         id="feComponentTransfer3104">
        <feFuncA
           id="feFuncA3106"
           slope="0.2"
           type="linear" />
      </feComponentTransfer>
      <feMerge
         id="feMerge3108">
        <feMergeNode
           id="feMergeNode3110" />
        <feMergeNode
           id="feMergeNode3112"
           in="SourceGraphic" />
      </feMerge>
    </filter>
    <filter
       id="dropshadow-8-2"
       height="1.3"
       style="color-interpolation-filters:sRGB">
      <feGaussianBlur
         id="feGaussianBlur7-00"
         stdDeviation="3"
         in="SourceAlpha" />
      <feOffset
         id="feOffset9-0"
         result="offsetblur"
         dy="2"
         dx="2" />
      <feComponentTransfer
         id="feComponentTransfer11-5">
        <feFuncA
           id="feFuncA13-6"
           slope="0.2"
           type="linear" />
      </feComponentTransfer>
      <feMerge
         id="feMerge15-3">
        <feMergeNode
           id="feMergeNode17-1" />
        <feMergeNode
           id="feMergeNode19-64"
           in="SourceGraphic" />
      </feMerge>
    </filter>
    <filter
       id="dropshadow-4-9"
       height="1.3"
       style="color-interpolation-filters:sRGB">
      <feGaussianBlur
         id="feGaussianBlur7-6-2"
         stdDeviation="3"
         in="SourceAlpha" />
      <feOffset
         id="feOffset9-7-0"
         result="offsetblur"
         dy="2"
         dx="2" />
      <feComponentTransfer
         id="feComponentTransfer11-9-4">
        <feFuncA
           id="feFuncA13-2"
           slope="0.2"
           type="linear" />
      </feComponentTransfer>
      <feMerge
         id="feMerge15-8-2">
        <feMergeNode
           id="feMergeNode17-4-1" />
        <feMergeNode
           id="feMergeNode19-4-3"
           in="SourceGraphic" />
      </feMerge>
    </filter>
  </defs>
  <text
     x="-42"
     y="-2.339462"
     id="text3033"
     style="font-size:13.33333302px;font-family:Sans;text-anchor:end;fill:#000000">
    <tspan
       x="60"
       y="20.160538"
       id="tspan3035" />
  </text>
  <text
     x="-24"
     y="62.624115"
     id="text3107"
     style="font-size:13.33333302px;font-family:Sans;text-anchor:end;fill:#000000">
    <tspan
       x="70"
       y="85.124115"
       id="tspan3109" />
  </text>
  <text
     x="-42"
     y="81.660522"
     id="text3033-0"
     style="font-size:13.33333302px;font-family:Sans;text-anchor:end;fill:#000000">
    <tspan
       x="60"
       y="104.16052"
       id="tspan3035-1" />
  </text>
  <text
     x="-42"
     y="165.66052"
     id="text3033-1"
     style="font-size:13.33333302px;font-family:Sans;text-anchor:end;fill:#000000">
    <tspan
       x="60"
       y="188.16052"
       id="tspan3035-8" />
  </text>
  <text
     x="-42"
     y="249.66052"
     id="text3033-0-9"
     style="font-size:13.33333302px;font-family:Sans;text-anchor:end;fill:#000000">
    <tspan
       x="60"
       y="272.16052"
       id="tspan3035-1-5" />
  </text>
  <text
     x="-616.55554"
     y="-22.910049"
     id="text3033-19"
     style="font-size:13.33333302px;font-family:Sans;text-anchor:end;fill:#000000">
    <tspan
       x="-514.55554"
       y="-0.41001871"
       id="tspan3035-6" />
  </text>
  <text
     style="font-size:13.33333302px;font-family:Sans;text-anchor:end;fill:#000000"
     id="text3107-2"
     x="-304"
     y="104.62411">
    <tspan
       id="tspan3109-8"
       y="127.12411"
       x="-210" />
  </text>
  <text
     x="-616.55554"
     y="61.089951"
     id="text3033-0-93"
     style="font-size:13.33333302px;font-family:Sans;text-anchor:end;fill:#000000">
    <tspan
       x="-514.55554"
       y="83.589935"
       id="tspan3035-1-3" />
  </text>
  <text
     x="-616.55554"
     y="145.08994"
     id="text3033-1-6"
     style="font-size:13.33333302px;font-family:Sans;text-anchor:end;fill:#000000">
    <tspan
       x="-514.55554"
       y="167.58995"
       id="tspan3035-8-9" />
  </text>
  <text
     x="-616.55554"
     y="229.08997"
     id="text3033-0-9-1"
     style="font-size:13.33333302px;font-family:Sans;text-anchor:end;fill:#000000">
    <tspan
       x="-514.55554"
       y="251.58997"
       id="tspan3035-1-5-0" />
  </text>
  <text
     style="font-size:13.33333302px;font-family:Sans;text-anchor:end;fill:#000000"
     id="text3103-7"
     x="-304"
     y="20.6241">
    <tspan
       id="tspan3105-5"
       y="43.1241"
       x="-186" />
  </text>
  <text
     x="-93.411499"
     y="-286.5452"
     id="text3033-14"
     style="font-size:13.33333302px;font-family:Sans;text-anchor:end;fill:#000000">
    <tspan
       x="8.5885315"
       y="-264.0452"
       id="tspan3035-2" />
  </text>
  <text
     x="-75.411469"
     y="-221.58162"
     id="text3107-8"
     style="font-size:13.33333302px;font-family:Sans;text-anchor:end;fill:#000000">
    <tspan
       x="18.588531"
       y="-199.08162"
       id="tspan3109-4" />
  </text>
  <text
     x="-93.411499"
     y="-202.54521"
     id="text3033-0-7"
     style="font-size:13.33333302px;font-family:Sans;text-anchor:end;fill:#000000">
    <tspan
       x="8.5885315"
       y="-180.04521"
       id="tspan3035-1-4" />
  </text>
  <text
     x="-93.411499"
     y="-118.54521"
     id="text3033-1-2"
     style="font-size:13.33333302px;font-family:Sans;text-anchor:end;fill:#000000">
    <tspan
       x="8.5885315"
       y="-96.045242"
       id="tspan3035-8-0" />
  </text>
  <text
     x="-93.411499"
     y="-34.545242"
     id="text3033-0-9-8"
     style="font-size:13.33333302px;font-family:Sans;text-anchor:end;fill:#000000">
    <tspan
       x="8.5885315"
       y="-12.045242"
       id="tspan3035-1-5-9" />
  </text>
  <text
     x="-667.96704"
     y="-307.11578"
     id="text3033-19-8"
     style="font-size:13.33333302px;font-family:Sans;text-anchor:end;fill:#000000">
    <tspan
       x="-565.96704"
       y="-284.61575"
       id="tspan3035-6-5" />
  </text>
  <text
     x="-667.96704"
     y="-223.1158"
     id="text3033-0-93-5"
     style="font-size:13.33333302px;font-family:Sans;text-anchor:end;fill:#000000">
    <tspan
       x="-565.96704"
       y="-200.6158"
       id="tspan3035-1-3-5" />
  </text>
  <text
     x="-667.96704"
     y="-139.1158"
     id="text3033-1-6-1"
     style="font-size:13.33333302px;font-family:Sans;text-anchor:end;fill:#000000">
    <tspan
       x="-565.96704"
       y="-116.6158"
       id="tspan3035-8-9-9" />
  </text>
  <text
     x="-667.96704"
     y="-55.115799"
     id="text3033-0-9-1-7"
     style="font-size:13.33333302px;font-family:Sans;text-anchor:end;fill:#000000">
    <tspan
       x="-565.96704"
       y="-32.615799"
       id="tspan3035-1-5-0-1" />
  </text>
  <text
     x="-133.71771"
     y="391.49304"
     id="text3033-9"
     style="font-size:13.33333302px;font-family:Sans;text-anchor:end;fill:#000000">
    <tspan
       x="-31.717712"
       y="413.99304"
       id="tspan3035-5" />
  </text>
  <text
     x="-115.71771"
     y="456.45667"
     id="text3107-3"
     style="font-size:13.33333302px;font-family:Sans;text-anchor:end;fill:#000000">
    <tspan
       x="-21.717712"
       y="478.95667"
       id="tspan3109-1" />
  </text>
  <text
     x="-133.71771"
     y="475.49304"
     id="text3033-0-98"
     style="font-size:13.33333302px;font-family:Sans;text-anchor:end;fill:#000000">
    <tspan
       x="-31.717712"
       y="497.99304"
       id="tspan3035-1-1" />
  </text>
  <text
     x="-133.71771"
     y="559.49304"
     id="text3033-1-7"
     style="font-size:13.33333302px;font-family:Sans;text-anchor:end;fill:#000000">
    <tspan
       x="-31.717712"
       y="581.99304"
       id="tspan3035-8-6" />
  </text>
  <text
     x="-133.71771"
     y="643.49304"
     id="text3033-0-9-10"
     style="font-size:13.33333302px;font-family:Sans;text-anchor:end;fill:#000000">
    <tspan
       x="-31.717712"
       y="665.99304"
       id="tspan3035-1-5-2" />
  </text>
  <text
     x="-708.27325"
     y="370.92249"
     id="text3033-19-0"
     style="font-size:13.33333302px;font-family:Sans;text-anchor:end;fill:#000000">
    <tspan
       x="-606.27325"
       y="393.42249"
       id="tspan3035-6-0" />
  </text>
  <text
     x="-708.27325"
     y="454.92249"
     id="text3033-0-93-8"
     style="font-size:13.33333302px;font-family:Sans;text-anchor:end;fill:#000000">
    <tspan
       x="-606.27325"
       y="477.42249"
       id="tspan3035-1-3-8" />
  </text>
  <text
     x="-708.27325"
     y="538.92249"
     id="text3033-1-6-2"
     style="font-size:13.33333302px;font-family:Sans;text-anchor:end;fill:#000000">
    <tspan
       x="-606.27325"
       y="561.42249"
       id="tspan3035-8-9-5" />
  </text>
  <text
     x="-708.27325"
     y="622.92249"
     id="text3033-0-9-1-6"
     style="font-size:13.33333302px;font-family:Sans;text-anchor:end;fill:#000000">
    <tspan
       x="-606.27325"
       y="645.42249"
       id="tspan3035-1-5-0-0" />
  </text>
  <text
     x="-839.60291"
     y="-119.09546"
     id="text3033-10"
     style="font-size:13.33333302px;font-family:Sans;text-anchor:end;fill:#000000">
    <tspan
       x="-737.60291"
       y="-96.595459"
       id="tspan3035-23" />
  </text>
  <text
     x="-821.60291"
     y="-54.131866"
     id="text3107-5"
     style="font-size:13.33333302px;font-family:Sans;text-anchor:end;fill:#000000">
    <tspan
       x="-727.60291"
       y="-31.631866"
       id="tspan3109-6" />
  </text>
  <text
     x="-839.60291"
     y="-35.095459"
     id="text3033-0-8"
     style="font-size:13.33333302px;font-family:Sans;text-anchor:end;fill:#000000">
    <tspan
       x="-737.60291"
       y="-12.595459"
       id="tspan3035-1-36" />
  </text>
  <text
     x="-839.60291"
     y="48.904541"
     id="text3033-1-0"
     style="font-size:13.33333302px;font-family:Sans;text-anchor:end;fill:#000000">
    <tspan
       x="-737.60291"
       y="71.404526"
       id="tspan3035-8-61" />
  </text>
  <text
     x="-839.60291"
     y="132.90454"
     id="text3033-0-9-9"
     style="font-size:13.33333302px;font-family:Sans;text-anchor:end;fill:#000000">
    <tspan
       x="-737.60291"
       y="155.40454"
       id="tspan3035-1-5-8" />
  </text>
  <text
     x="-780.69385"
     y="366.25861"
     id="text3033-6"
     style="font-size:13.33333302px;font-family:Sans;text-anchor:end;fill:#000000">
    <tspan
       x="-678.69379"
       y="388.75861"
       id="tspan3035-7" />
  </text>
  <text
     x="-762.69379"
     y="431.22223"
     id="text3107-87"
     style="font-size:13.33333302px;font-family:Sans;text-anchor:end;fill:#000000">
    <tspan
       x="-668.69379"
       y="453.72217"
       id="tspan3109-0" />
  </text>
  <text
     x="-780.69385"
     y="450.25861"
     id="text3033-0-6"
     style="font-size:13.33333302px;font-family:Sans;text-anchor:end;fill:#000000">
    <tspan
       x="-678.69379"
       y="472.75861"
       id="tspan3035-1-12" />
  </text>
  <text
     x="-780.69385"
     y="534.25861"
     id="text3033-1-8"
     style="font-size:13.33333302px;font-family:Sans;text-anchor:end;fill:#000000">
    <tspan
       x="-678.69379"
       y="556.75861"
       id="tspan3035-8-7" />
  </text>
  <text
     x="-780.69385"
     y="618.25861"
     id="text3033-0-9-87"
     style="font-size:13.33333302px;font-family:Sans;text-anchor:end;fill:#000000">
    <tspan
       x="-678.69379"
       y="640.75861"
       id="tspan3035-1-5-00" />
  </text>
  <text
     x="-894.93823"
     y="242.08871"
     id="text3033-3"
     style="font-size:13.33333302px;font-family:Sans;text-anchor:end;fill:#000000">
    <tspan
       x="-792.93835"
       y="264.58871"
       id="tspan3035-0" />
  </text>
  <text
     x="-876.93823"
     y="307.05228"
     id="text3107-4"
     style="font-size:13.33333302px;font-family:Sans;text-anchor:end;fill:#000000">
    <tspan
       x="-782.93835"
       y="329.55228"
       id="tspan3109-2" />
  </text>
  <text
     x="-894.93823"
     y="326.08871"
     id="text3033-0-0"
     style="font-size:13.33333302px;font-family:Sans;text-anchor:end;fill:#000000">
    <tspan
       x="-792.93835"
       y="348.58871"
       id="tspan3035-1-6" />
  </text>
  <text
     x="-894.93823"
     y="410.08868"
     id="text3033-1-9"
     style="font-size:13.33333302px;font-family:Sans;text-anchor:end;fill:#000000">
    <tspan
       x="-792.93835"
       y="432.58868"
       id="tspan3035-8-2" />
  </text>
  <text
     x="-894.93823"
     y="494.08868"
     id="text3033-0-9-6"
     style="font-size:13.33333302px;font-family:Sans;text-anchor:end;fill:#000000">
    <tspan
       x="-792.93835"
       y="516.58868"
       id="tspan3035-1-5-06" />
  </text>
  <path
     style="fill:#7bbbb8;fill-opacity:1;stroke:#4c8585;stroke-width:2;stroke-linecap:round;stroke-opacity:1"
     id="path21-2"
     d="m 393,55.6241 120,0 0,40 -120,0 0,-16 0,-2 -12,0 0,6 -4,0 0,-16 4,0 0,6 12,0 0,-2 z" />
  <path
     style="fill:#ffc000;fill-opacity:1;stroke:#c48d00;stroke-width:2;stroke-linecap:round;stroke-opacity:1"
     id="path3660"
     d="m 1,29.56205 0,-8 c 0,-4.18879 3.81121,-8 8,-8 l 8,0 10,-12.0000001 10,12.0000001 18,0 60,0 8,0 c 4.18879,0 8,3.81121 8,8 l 0,8 0,8 0,8 c 0,4.18879 -3.81121,8 -8,8 l -8,0 -60,0 -2,0 0,4 -16,0 0,-4 -2,0 -8,0 c -2.61799,0 -5.21987,1.07773 -7.07107,2.92893 C 18.07773,58.34218 17,60.94406 17,63.56205 l 0,8 0,8 0,8 c 0,2.61799 1.07773,5.21987 2.92893,7.07107 1.8512,1.8512 4.45307,2.92893 7.07107,2.92893 l 8,0 0,4 20,0 0,-4 16,0 0,12 0,12 0,8 c 0,4.18879 -3.93628,6.98407 -8,8 l -8,0 -18,0 -10,12 -10,-12 -8,0 c -4.18879,0 -8,-3.81121 -8,-8 l 0,-8 z" />
  <text
     style="font-size:20px;font-family:Sans;text-anchor:start;fill:#000000"
     id="text3662"
     x="0"
     y="0.56205767">
    <tspan
       id="tspan3664"
       y="43.562057"
       x="8">start</tspan>
  </text>
  <g
     transform="translate(0.42223,-0.57072006)"
     id="g3037">
    <path
       d="m 111.37629,42.473009 c -0.24354,0 -0.48399,-0.01591 -0.72092,-0.04546 l 0.61126,1.067795 0.60246,-1.051431 c -0.16339,0.01364 -0.32633,0.02909 -0.4928,0.02909 z"
       id="path4206"
       style="fill:#eeeeee;stroke:#ff0000;stroke-width:1.75;stroke-linecap:round;stroke-linejoin:round;stroke-miterlimit:4;stroke-dasharray:none;stroke-opacity:1" />
    <g
       transform="matrix(0.44038997,0,0,0.45457429,99.266887,20.526617)"
       id="g4208"
       style="fill:#ff8080;fill-opacity:1;stroke:#ff0000;stroke-width:3.91126204;stroke-linecap:round;stroke-linejoin:round;stroke-miterlimit:4;stroke-dasharray:none;stroke-opacity:1">
      <path
         d="m 40.16,11.726 c -2.164,0 -3.958,1.555 -4.343,3.607 1.859,1.345 3.457,3.115 4.675,5.208 2.285,-0.172 4.094,-2.061 4.094,-4.39 0,-2.444 -1.982,-4.425 -4.426,-4.425 z"
         id="path4210"
         style="fill:#ff8080;fill-opacity:1;stroke:#ff0000;stroke-width:3.91126204;stroke-miterlimit:4;stroke-dasharray:none;stroke-opacity:1" />
      <path
         d="m 40.713,39.887 c -1.224,2.232 -2.86,4.131 -4.797,5.556 0.521,1.864 2.213,3.239 4.244,3.239 2.443,0 4.426,-1.98 4.426,-4.424 0,-2.255 -1.693,-4.096 -3.873,-4.371 z"
         id="path4212"
         style="fill:#ff8080;fill-opacity:1;stroke:#ff0000;stroke-width:3.91126204;stroke-miterlimit:4;stroke-dasharray:none;stroke-opacity:1" />
      <path
         d="m 14.273,39.871 c -2.253,0.206 -4.024,2.079 -4.024,4.387 0,2.443 1.98,4.424 4.424,4.424 2.064,0 3.784,-1.42 4.272,-3.332 -1.883,-1.416 -3.475,-3.289 -4.672,-5.479 z"
         id="path4214"
         style="fill:#ff8080;fill-opacity:1;stroke:#ff0000;stroke-width:3.91126204;stroke-miterlimit:4;stroke-dasharray:none;stroke-opacity:1" />
      <path
         d="m 19.026,15.437 c -0.343,-2.103 -2.154,-3.711 -4.353,-3.711 -2.444,0 -4.424,1.981 -4.424,4.424 0,2.382 1.886,4.31 4.245,4.406 1.186,-2.043 2.732,-3.784 4.532,-5.119 z"
         id="path4216"
         style="fill:#ff8080;fill-opacity:1;stroke:#ff0000;stroke-width:3.91126204;stroke-miterlimit:4;stroke-dasharray:none;stroke-opacity:1" />
    </g>
    <path
       d="m 111.37629,26.237434 c 0.84026,0 1.64177,0.18683 2.38603,0.51276 0.32633,-0.489122 0.51878,-1.080523 0.51878,-1.719655 0,-1.676015 -1.31632,-3.035192 -2.94048,-3.035192 -1.62372,0 -2.94005,1.359177 -2.94005,3.035192 0,0.649132 0.19906,1.249625 0.53552,1.742838 0.75923,-0.340476 1.57968,-0.535943 2.4402,-0.535943 z"
       id="path4218"
       style="fill:#ff8080;fill-opacity:1;stroke:#ff0000;stroke-width:1.75;stroke-linecap:round;stroke-linejoin:round;stroke-miterlimit:4;stroke-dasharray:none;stroke-opacity:1" />
    <g
       transform="matrix(0.44038997,0,0,0.45457429,99.266887,20.526617)"
       id="g4220"
       style="fill:#ff8080;fill-opacity:1;stroke:#ff0000;stroke-width:3.91126204;stroke-linecap:round;stroke-linejoin:round;stroke-miterlimit:4;stroke-dasharray:none;stroke-opacity:1">
      <path
         d="m 43.102,30.421 c 0,4.7344 -1.6452,9.2798 -4.5706,12.6275 -2.9254,3.3478 -6.8973,5.2305 -11.0344,5.2305 -4.1371,0 -8.109,-1.8827 -11.0344,-5.2305 -2.9254,-3.3477 -4.5706,-7.8931 -4.5706,-12.6275 0,-9.7966 7.0444,-17.858 15.605,-17.858 8.5606,0 15.605,8.0614 15.605,17.858 z"
         id="path4222"
         style="fill:#ff8080;fill-opacity:1;stroke:#ff0000;stroke-width:3.91126204;stroke-miterlimit:4;stroke-dasharray:none;stroke-opacity:1" />
    </g>
    <g
       transform="matrix(0.44038997,0,0,0.45457429,99.266887,20.526617)"
       id="g4224"
       style="fill:#ff0000;fill-opacity:1;stroke:none">
      <path
         d="m 25.875,33.75 -1.542,-4.625 3.164,-2.587 3.615,2.626 -1.487,4.669 z"
         id="path4226"
         style="fill:#ff0000;fill-opacity:1;stroke:none" />
      <path
         d="m 27.501,41.551 c -3.968,-0.16 -5.543,-2.009 -5.543,-2.009 l 3.57,-4.163 4.465,0.168 3.132,4.12 c 0,0 -2.89,1.994 -5.624,1.884 z"
         id="path4228"
         style="fill:#ff0000;fill-opacity:1;stroke:none" />
      <path
         d="m 18.453,33.843 c -0.849,-2.968 0.172,-6.884 0.172,-6.884 l 4,2.167 1.493,4.629 -3.582,4.233 c 0,-10e-4 -1.465,-1.99 -2.083,-4.145 z"
         id="path4230"
         style="fill:#ff0000;fill-opacity:1;stroke:none" />
      <path
         d="m 19.458,25.125 c 0,0 0.5,-1.958 3.039,-3.822 2.237,-1.643 4.465,-1.72 4.465,-1.72 l -0.037,4.981 -3.521,2.75 -3.946,-2.189 z"
         id="path4232"
         style="fill:#ff0000;fill-opacity:1;stroke:none" />
      <path
         d="M 32.084,27.834 28.625,24.959 29,19.75 c 0,0 1.834,-0.042 3.959,1.667 2.228,1.791 3.362,4.983 3.362,4.983 l -4.237,1.434 z"
         id="path4234"
         style="fill:#ff0000;fill-opacity:1;stroke:none" />
      <path
         d="m 31.292,34.042 1.313,-4.464 4.187,-1.536 c 0,0 0.677,2.663 -0.042,5.667 -0.54,2.256 -2.084,4.361 -2.084,4.361 l -3.374,-4.028 z"
         id="path4236"
         style="fill:#ff0000;fill-opacity:1;stroke:none" />
    </g>
  </g>
  <path
     style="fill:#ff0066;fill-opacity:1;stroke:#ef003e;stroke-width:2;stroke-linecap:round;stroke-opacity:1"
     id="path3225"
     d="m 19,71.6241 0,-8 a 8,8 0 0 1 8,-8 l 8,0 0,4 20,0 0,-4 60,0 8,0 a 8,8 0 0 1 8,8 l 0,8 -8,0 0,-6 -8,0 0,20 8,0 0,-6 8,0 0,8 a 8,8 0 0 1 -8,8 l -8,0 -60,0 -2,0 0,4 -16,0 0,-4 -2,0 -8,0 a 8,8 0 0 1 -8,-8 l 0,-8 0,-8 z" />
  <text
     y="54.6241"
     x="18"
     style="font-size:20px;font-family:Sans;text-anchor:end;fill:#000000"
     id="text3227">
    <tspan
       id="tspan3229"
       y="82.6241"
       x="112">print</tspan>
  </text>
  <text
     y="54.6241"
     x="18"
     style="font-size:13.33333302px;font-family:Sans;text-anchor:end;fill:#000000"
     id="text3231">
    <tspan
       id="tspan3233"
       y="77.1241"
       x="112" />
  </text>
  <g
     transform="translate(-441.5806,-256.64473)"
     id="g4560">
    <path
       d="m 574.5806,328.26885 0,-8 c 0,-4.41828 3.58172,-8 8,-8 l 8,0 20,0 76.00001,0 8,0 c 4.41828,0 8,3.58172 8,8 l 0,8 -8,0 0,-6 -8,0 0,20 8,0 0,-6 8,0 0,8 c 0,4.41828 -3.58172,8 -8,8 l -8,0 -76.00001,0 -20,0 -8,0 c -4.41828,0 -8,-3.58172 -8,-8 l 0,-8 0,-2 -12,0 0,6 -4,0 0,-16 4,0 0,6 12,0 z"
       id="path3625-6"
       style="fill:#ff0066;fill-opacity:1;stroke:#ef003e;stroke-width:2;stroke-linecap:round;stroke-opacity:1" />
    <text
       y="311.26886"
       x="573.58063"
       id="text3627-6"
       style="font-size:20px;font-family:Sans;text-anchor:end;fill:#000000">
      <tspan
         x="683.58063"
         y="337.26886"
         id="tspan3629-4">to ASCII</tspan>
    </text>
  </g>
  <g
     transform="translate(-210,-160.5)"
     id="g4565">
    <path
       d="m 473,232.1241 0,-8 c 0,-4.41828 3.58172,-8 8,-8 l 8,0 20,0 76,0 8,0 c 4.41828,0 8,3.58172 8,8 l 0,8 -8,0 0,-6 -8,0 0,20 8,0 0,-6 8,0 0,8 c 0,4.41828 -3.58172,8 -8,8 l -8,0 -76,0 -20,0 -8,0 c -4.41828,0 -8,-3.58172 -8,-8 l 0,-8 0,-2 -12,0 0,6 -4,0 0,-16 4,0 0,6 12,0 z"
       id="path3625"
       style="fill:#ffc000;fill-opacity:1;stroke:#c48d00;stroke-width:2;stroke-linecap:round;stroke-opacity:1" />
    <text
       y="215.1241"
       x="472"
       id="text3627"
       style="font-size:20px;font-family:Sans;text-anchor:end;fill:#000000">
      <tspan
         x="582"
         y="241.1241"
         id="tspan3629">calculate</tspan>
    </text>
  </g>
  <text
     style="font-size:20px;font-family:Sans;text-anchor:start;fill:#000000"
     id="text23-2"
     y="54.6241"
     x="258">
    <tspan
       id="tspan25-1"
       y="80.6241"
       x="404">keyboard</tspan>
  </text>
</svg>
