<?xml version="1.0" encoding="UTF-8" standalone="no"?>
<!-- Created with Inkscape (http://www.inkscape.org/) -->

<svg
   xmlns:svg="http://www.w3.org/2000/svg"
   xmlns="http://www.w3.org/2000/svg"
   version="1.0"
   width="55"
   height="55"
   id="svg2">
  <defs
     id="defs4" />
  <rect
     width="3.6656132"
     height="9.5444069"
     x="-42.845825"
     y="-15.126163"
     transform="matrix(-0.89091996,-0.45416035,-0.40870649,0.91266588,0,0)"
     id="rect3687"
     style="fill:#000000;fill-opacity:1;fill-rule:nonzero;stroke:#ffffff;stroke-width:1.72821403;stroke-linejoin:round;stroke-miterlimit:4;stroke-opacity:1;stroke-dasharray:none;stroke-dashoffset:0" />
  <rect
     width="3.6656165"
     height="9.5444155"
     x="7.0011344"
     y="9.6786585"
     transform="matrix(0.89091996,-0.45416035,0.40870649,0.91266588,0,0)"
     id="rect3685"
     style="fill:#000000;fill-opacity:1;fill-rule:nonzero;stroke:#ffffff;stroke-width:1.72821581;stroke-linejoin:round;stroke-miterlimit:4;stroke-opacity:1;stroke-dasharray:none;stroke-dashoffset:0" />
  <rect
     width="37.611328"
     height="40.772209"
     x="8.6943359"
     y="9.8687277"
     id="rect1919"
     style="fill:#000000;fill-opacity:1;fill-rule:nonzero;stroke:#ffffff;stroke-width:2.46731305;stroke-linejoin:round;stroke-miterlimit:4;stroke-opacity:1;stroke-dasharray:none;stroke-dashoffset:0" />
  <path
     d="m 25.841115,21.968429 a 6.4093275,6.355592 0 0 1 -12.818655,0 6.4093275,6.355592 0 1 1 12.818655,0 z"
     id="path2794"
     style="fill:#000000;fill-opacity:1;fill-rule:nonzero;stroke:#ffffff;stroke-width:1.48038781;stroke-linejoin:round;stroke-miterlimit:4;stroke-opacity:1;stroke-dasharray:none;stroke-dashoffset:0" />
  <path
     d="m 42.429962,22.053175 a 6.4093275,6.355592 0 0 1 -12.818655,0 6.4093275,6.355592 0 1 1 12.818655,0 z"
     id="path3669"
     style="fill:#000000;fill-opacity:1;fill-rule:nonzero;stroke:#ffffff;stroke-width:1.48038781;stroke-linejoin:round;stroke-miterlimit:4;stroke-opacity:1;stroke-dasharray:none;stroke-dashoffset:0" />
  <rect
     width="27.791536"
     height="6.8113303"
     ry="0"
     x="14.056654"
     y="39.380295"
     id="rect3679"
     style="fill:#000000;fill-opacity:1;fill-rule:nonzero;stroke:#ffffff;stroke-width:1.45960462;stroke-linejoin:round;stroke-miterlimit:4;stroke-opacity:1;stroke-dasharray:none;stroke-dashoffset:0" />
  <path
     d="m 12.817797,23 c 13.050847,0.23305 13.050847,0 13.050847,0"
     id="path2822"
     style="fill:none;stroke:#ffffff;stroke-width:1px;stroke-linecap:butt;stroke-linejoin:miter;stroke-opacity:1" />
  <path
     d="m 29.597458,23 c 13.050847,0.23305 13.050847,0 13.050847,0"
     id="path2822-4"
     style="fill:none;stroke:#ffffff;stroke-width:1px;stroke-linecap:butt;stroke-linejoin:miter;stroke-opacity:1" />
</svg>
