<?xml version="1.0" ?><!DOCTYPE svg  PUBLIC '-//W3C//DTD SVG 1.1//EN'  'http://www.w3.org/Graphics/SVG/1.1/DTD/svg11.dtd' [
	<!ENTITY stroke_color "#000">
	<!ENTITY fill_color "#eee">
]><svg height="55px" viewBox="0 0 55 55" width="55px" xmlns="http://www.w3.org/2000/svg" xmlns:xlink="http://www.w3.org/1999/xlink" stroke-linecap="round" stroke-linejoin="round" stroke-width="3.5" stroke="&stroke_color;" fill="&fill_color;">
  <path
     d="m 18.392857,27.49995 a 2.4107143,2.4107143 0 1 1 -6.1e-5,-0.0172"
     id="path6"
     style="fill:&fill_color;;fill-opacity:1;stroke:&fill_color;;stroke-width:0;stroke-linecap:round;stroke-linejoin:miter;stroke-miterlimit:4;stroke-opacity:1;stroke-dasharray:none" />
  <path
     d="m 24.151786,27.49995 a 2.4107143,2.4107143 0 1 1 -6.2e-5,-0.0172"
     id="path8"
     style="fill:&fill_color;;fill-opacity:1;stroke:&fill_color;;stroke-width:0;stroke-linecap:round;stroke-linejoin:miter;stroke-miterlimit:4;stroke-opacity:1;stroke-dasharray:none" />
  <path
     d="m 35.669643,27.49995 a 2.4107143,2.4107143 0 1 1 -6.2e-5,-0.0172"
     id="path12"
     style="fill:&fill_color;;fill-opacity:1;stroke:&fill_color;;stroke-width:0;stroke-linecap:round;stroke-linejoin:miter;stroke-miterlimit:4;stroke-opacity:1;stroke-dasharray:none" />
  <path
     d="m 12.633929,27.49995 a 2.4107143,2.4107143 0 1 1 -6.2e-5,-0.0172"
     id="path14"
     style="fill:&fill_color;;fill-opacity:1;stroke:&fill_color;;stroke-width:0;stroke-linecap:round;stroke-linejoin:miter;stroke-miterlimit:4;stroke-opacity:1;stroke-dasharray:none" />
  <path
     d="m 41.428572,27.49995 a 2.4107143,2.4107143 0 1 1 -6.2e-5,-0.0172"
     id="path16"
     style="fill:&fill_color;;fill-opacity:1;stroke:&fill_color;;stroke-width:0;stroke-linecap:round;stroke-linejoin:miter;stroke-miterlimit:4;stroke-opacity:1;stroke-dasharray:none" />
  <path
     d="m 47.1875,27.49995 a 2.4107143,2.4107143 0 1 1 -6.2e-5,-0.0172"
     id="path18"
     style="fill:&fill_color;;fill-opacity:1;stroke:&fill_color;;stroke-width:0;stroke-linecap:round;stroke-linejoin:miter;stroke-miterlimit:4;stroke-opacity:1;stroke-dasharray:none" />
  <path
     d="m 18.392857,39.821378 a 2.4107143,2.4107143 0 1 1 -6.1e-5,-0.0172"
     id="path22"
     style="fill:&fill_color;;fill-opacity:1;stroke:&fill_color;;stroke-width:0;stroke-linecap:round;stroke-linejoin:miter;stroke-miterlimit:4;stroke-opacity:1;stroke-dasharray:none" />
  <path
     d="m 24.151786,39.821378 a 2.4107143,2.4107143 0 1 1 -6.2e-5,-0.0172"
     id="path24"
     style="fill:&fill_color;;fill-opacity:1;stroke:&fill_color;;stroke-width:0;stroke-linecap:round;stroke-linejoin:miter;stroke-miterlimit:4;stroke-opacity:1;stroke-dasharray:none" />
  <path
     d="m 35.669643,39.821378 a 2.4107143,2.4107143 0 1 1 -6.2e-5,-0.0172"
     id="path28"
     style="fill:&fill_color;;fill-opacity:1;stroke:&fill_color;;stroke-width:0;stroke-linecap:round;stroke-linejoin:miter;stroke-miterlimit:4;stroke-opacity:1;stroke-dasharray:none" />
  <path
     d="m 12.633929,39.821378 a 2.4107143,2.4107143 0 1 1 -6.2e-5,-0.0172"
     id="path30"
     style="fill:&fill_color;;fill-opacity:1;stroke:&fill_color;;stroke-width:0;stroke-linecap:round;stroke-linejoin:miter;stroke-miterlimit:4;stroke-opacity:1;stroke-dasharray:none" />
  <path
     d="m 41.428572,39.821378 a 2.4107143,2.4107143 0 1 1 -6.2e-5,-0.0172"
     id="path32"
     style="fill:&fill_color;;fill-opacity:1;stroke:&fill_color;;stroke-width:0;stroke-linecap:round;stroke-linejoin:miter;stroke-miterlimit:4;stroke-opacity:1;stroke-dasharray:none" />
  <path
     d="m 47.1875,39.821378 a 2.4107143,2.4107143 0 1 1 -6.2e-5,-0.0172"
     id="path34"
     style="fill:&fill_color;;fill-opacity:1;stroke:&fill_color;;stroke-width:0;stroke-linecap:round;stroke-linejoin:miter;stroke-miterlimit:4;stroke-opacity:1;stroke-dasharray:none" />
  <path
     d="m 18.392857,9.0178068 a 2.4107143,2.4107143 0 1 1 -6.1e-5,-0.017197"
     id="path38"
     style="fill:&fill_color;;fill-opacity:1;stroke:&fill_color;;stroke-width:0;stroke-linecap:round;stroke-linejoin:miter;stroke-miterlimit:4;stroke-opacity:1;stroke-dasharray:none" />
  <path
     d="m 24.151786,9.0178068 a 2.4107143,2.4107143 0 1 1 -6.2e-5,-0.017197"
     id="path40"
     style="fill:&fill_color;;fill-opacity:1;stroke:&fill_color;;stroke-width:0;stroke-linecap:round;stroke-linejoin:miter;stroke-miterlimit:4;stroke-opacity:1;stroke-dasharray:none" />
  <path
     d="m 35.669643,9.0178068 a 2.4107143,2.4107143 0 1 1 -6.2e-5,-0.017197"
     id="path44"
     style="fill:&fill_color;;fill-opacity:1;stroke:&fill_color;;stroke-width:0;stroke-linecap:round;stroke-linejoin:miter;stroke-miterlimit:4;stroke-opacity:1;stroke-dasharray:none" />
  <path
     d="m 12.633929,9.0178068 a 2.4107143,2.4107143 0 1 1 -6.2e-5,-0.017197"
     id="path46"
     style="fill:&fill_color;;fill-opacity:1;stroke:&fill_color;;stroke-width:0;stroke-linecap:round;stroke-linejoin:miter;stroke-miterlimit:4;stroke-opacity:1;stroke-dasharray:none" />
  <path
     d="m 41.428572,9.0178068 a 2.4107143,2.4107143 0 1 1 -6.2e-5,-0.017197"
     id="path48"
     style="fill:&fill_color;;fill-opacity:1;stroke:&fill_color;;stroke-width:0;stroke-linecap:round;stroke-linejoin:miter;stroke-miterlimit:4;stroke-opacity:1;stroke-dasharray:none" />
  <path
     d="m 47.1875,9.0178068 a 2.4107143,2.4107143 0 1 1 -6.2e-5,-0.017197"
     id="path50"
     style="fill:&fill_color;;fill-opacity:1;stroke:&fill_color;;stroke-width:0;stroke-linecap:round;stroke-linejoin:miter;stroke-miterlimit:4;stroke-opacity:1;stroke-dasharray:none" />
  <path
     d="m 18.392857,15.178521 a 2.4107143,2.4107143 0 1 1 -6.1e-5,-0.0172"
     id="path54"
     style="fill:&fill_color;;fill-opacity:1;stroke:&fill_color;;stroke-width:0;stroke-linecap:round;stroke-linejoin:miter;stroke-miterlimit:4;stroke-opacity:1;stroke-dasharray:none" />
  <path
     d="m 24.151786,15.178521 a 2.4107143,2.4107143 0 1 1 -6.2e-5,-0.0172"
     id="path56"
     style="fill:&fill_color;;fill-opacity:1;stroke:&fill_color;;stroke-width:0;stroke-linecap:round;stroke-linejoin:miter;stroke-miterlimit:4;stroke-opacity:1;stroke-dasharray:none" />
  <path
     d="m 35.669643,15.178521 a 2.4107143,2.4107143 0 1 1 -6.2e-5,-0.0172"
     id="path60"
     style="fill:&fill_color;;fill-opacity:1;stroke:&fill_color;;stroke-width:0;stroke-linecap:round;stroke-linejoin:miter;stroke-miterlimit:4;stroke-opacity:1;stroke-dasharray:none" />
  <path
     d="m 12.633929,15.178521 a 2.4107143,2.4107143 0 1 1 -6.2e-5,-0.0172"
     id="path62"
     style="fill:&fill_color;;fill-opacity:1;stroke:&fill_color;;stroke-width:0;stroke-linecap:round;stroke-linejoin:miter;stroke-miterlimit:4;stroke-opacity:1;stroke-dasharray:none" />
  <path
     d="m 41.428572,15.178521 a 2.4107143,2.4107143 0 1 1 -6.2e-5,-0.0172"
     id="path64"
     style="fill:&fill_color;;fill-opacity:1;stroke:&fill_color;;stroke-width:0;stroke-linecap:round;stroke-linejoin:miter;stroke-miterlimit:4;stroke-opacity:1;stroke-dasharray:none" />
  <path
     d="m 47.1875,15.178521 a 2.4107143,2.4107143 0 1 1 -6.2e-5,-0.0172"
     id="path66"
     style="fill:&fill_color;;fill-opacity:1;stroke:&fill_color;;stroke-width:0;stroke-linecap:round;stroke-linejoin:miter;stroke-miterlimit:4;stroke-opacity:1;stroke-dasharray:none" />
  <path
     d="m 18.392857,21.339235 a 2.4107143,2.4107143 0 1 1 -6.1e-5,-0.0172"
     id="path70"
     style="fill:&fill_color;;fill-opacity:1;stroke:&fill_color;;stroke-width:0;stroke-linecap:round;stroke-linejoin:miter;stroke-miterlimit:4;stroke-opacity:1;stroke-dasharray:none" />
  <path
     d="m 24.151786,21.339235 a 2.4107143,2.4107143 0 1 1 -6.2e-5,-0.0172"
     id="path72"
     style="fill:&fill_color;;fill-opacity:1;stroke:&fill_color;;stroke-width:0;stroke-linecap:round;stroke-linejoin:miter;stroke-miterlimit:4;stroke-opacity:1;stroke-dasharray:none" />
  <path
     d="m 35.669643,21.339235 a 2.4107143,2.4107143 0 1 1 -6.2e-5,-0.0172"
     id="path76"
     style="fill:&fill_color;;fill-opacity:1;stroke:&fill_color;;stroke-width:0;stroke-linecap:round;stroke-linejoin:miter;stroke-miterlimit:4;stroke-opacity:1;stroke-dasharray:none" />
  <path
     d="m 12.633929,21.339235 a 2.4107143,2.4107143 0 1 1 -6.2e-5,-0.0172"
     id="path78"
     style="fill:&fill_color;;fill-opacity:1;stroke:&fill_color;;stroke-width:0;stroke-linecap:round;stroke-linejoin:miter;stroke-miterlimit:4;stroke-opacity:1;stroke-dasharray:none" />
  <path
     d="m 41.428572,21.339235 a 2.4107143,2.4107143 0 1 1 -6.2e-5,-0.0172"
     id="path80"
     style="fill:&fill_color;;fill-opacity:1;stroke:&fill_color;;stroke-width:0;stroke-linecap:round;stroke-linejoin:miter;stroke-miterlimit:4;stroke-opacity:1;stroke-dasharray:none" />
  <path
     d="m 47.1875,21.339235 a 2.4107143,2.4107143 0 1 1 -6.2e-5,-0.0172"
     id="path82"
     style="fill:&fill_color;;fill-opacity:1;stroke:&fill_color;;stroke-width:0;stroke-linecap:round;stroke-linejoin:miter;stroke-miterlimit:4;stroke-opacity:1;stroke-dasharray:none" />
  <path
     d="m 18.392857,33.660664 a 2.4107143,2.4107143 0 1 1 -6.1e-5,-0.0172"
     id="path86"
     style="fill:&fill_color;;fill-opacity:1;stroke:&fill_color;;stroke-width:0;stroke-linecap:round;stroke-linejoin:miter;stroke-miterlimit:4;stroke-opacity:1;stroke-dasharray:none" />
  <path
     d="m 24.151786,33.660664 a 2.4107143,2.4107143 0 1 1 -6.2e-5,-0.0172"
     id="path88"
     style="fill:&fill_color;;fill-opacity:1;stroke:&fill_color;;stroke-width:0;stroke-linecap:round;stroke-linejoin:miter;stroke-miterlimit:4;stroke-opacity:1;stroke-dasharray:none" />
  <path
     d="m 35.669643,33.660664 a 2.4107143,2.4107143 0 1 1 -6.2e-5,-0.0172"
     id="path92"
     style="fill:&fill_color;;fill-opacity:1;stroke:&fill_color;;stroke-width:0;stroke-linecap:round;stroke-linejoin:miter;stroke-miterlimit:4;stroke-opacity:1;stroke-dasharray:none" />
  <path
     d="m 12.633929,33.660664 a 2.4107143,2.4107143 0 1 1 -6.2e-5,-0.0172"
     id="path94"
     style="fill:&fill_color;;fill-opacity:1;stroke:&fill_color;;stroke-width:0;stroke-linecap:round;stroke-linejoin:miter;stroke-miterlimit:4;stroke-opacity:1;stroke-dasharray:none" />
  <path
     d="m 41.428572,33.660664 a 2.4107143,2.4107143 0 1 1 -6.2e-5,-0.0172"
     id="path96"
     style="fill:&fill_color;;fill-opacity:1;stroke:&fill_color;;stroke-width:0;stroke-linecap:round;stroke-linejoin:miter;stroke-miterlimit:4;stroke-opacity:1;stroke-dasharray:none" />
  <path
     d="m 47.1875,33.660664 a 2.4107143,2.4107143 0 1 1 -6.2e-5,-0.0172"
     id="path98"
     style="fill:&fill_color;;fill-opacity:1;stroke:&fill_color;;stroke-width:0;stroke-linecap:round;stroke-linejoin:miter;stroke-miterlimit:4;stroke-opacity:1;stroke-dasharray:none" />
  <rect
     width="3.9826431"
     height="44.182838"
     rx="1.8633741"
     ry="0"
     x="25.508678"
     y="1.4085808"
     id="rect3174"
     style="fill:&stroke_color;;fill-opacity:1;stroke:&stroke_color;;stroke-width:0.81716114;stroke-miterlimit:4;stroke-opacity:1;stroke-dasharray:none" />
</svg>
