<?xml version="1.0" encoding="UTF-8" standalone="no"?>
<svg
   xmlns:dc="http://purl.org/dc/elements/1.1/"
   xmlns:cc="http://creativecommons.org/ns#"
   xmlns:rdf="http://www.w3.org/1999/02/22-rdf-syntax-ns#"
   xmlns:svg="http://www.w3.org/2000/svg"
   xmlns="http://www.w3.org/2000/svg"
   xmlns:sodipodi="http://sodipodi.sourceforge.net/DTD/sodipodi-0.dtd"
   xmlns:inkscape="http://www.inkscape.org/namespaces/inkscape"
   version="1.1"
   x="0px"
   y="0px"
   viewBox="0 0 65 65"
   xml:space="preserve"
   id="svg2"
   inkscape:version="0.91 r13725"
   sodipodi:docname="africa.svg"
   width="52pt"
   height="52pt"><metadata
     id="metadata16"><rdf:RDF><cc:Work
         rdf:about=""><dc:format>image/svg+xml</dc:format><dc:type
           rdf:resource="http://purl.org/dc/dcmitype/StillImage" /><dc:title></dc:title></cc:Work></rdf:RDF></metadata><defs
     id="defs14" /><sodipodi:namedview
     pagecolor="#ffffff"
     bordercolor="#666666"
     borderopacity="1"
     objecttolerance="10"
     gridtolerance="10"
     guidetolerance="10"
     inkscape:pageopacity="0"
     inkscape:pageshadow="2"
     inkscape:window-width="775"
     inkscape:window-height="480"
     id="namedview12"
     showgrid="false"
     units="pt"
     inkscape:zoom="1.888"
     inkscape:cx="50"
     inkscape:cy="62.5"
     inkscape:window-x="0"
     inkscape:window-y="23"
     inkscape:window-maximized="0"
     inkscape:current-layer="svg2" /><polygon
     points="68.64877,17.19236 69.35278,18.1534 69.47571,18.89093 69.8333,19.33792 69.72155,19.58377 70.05679,20.09781 70.30264,20.74595 70.59319,21.01414 70.92843,21.86343 71.59892,23.13736 71.59892,23.7855 71.77771,24.34424 72.4482,24.76888 73.00694,25.46172 73.25278,26.06516 73.61038,26.64624 73.45393,26.80269 73.61038,27.36143 73.47628,27.65198 73.61038,28.47891 73.72213,29.3729 75.1078,30.49038 75.59949,31.25026 75.84534,32.2113 75.95709,32.92648 76.24763,33.57462 76.42643,33.95456 76.64283,33.64956 76.88262,33.80101 77.03407,34.25536 77.56416,34.25536 77.87968,34.53302 78.16996,34.62137 78.48549,35.05048 78.76315,35.44173 79.23013,35.76988 79.77282,36.28734 80.02524,36.70383 80.3029,36.70383 80.68153,37.20867 80.68153,37.7135 80.2398,38.00378 79.89903,38.26883 80,38.39503 80.29028,38.25621 80.59319,38.39503 80.89609,38.64745 81.09802,39.0387 81.36306,39.34161 81.62811,39.42995 81.93101,39.69499 82.20866,39.69499 82.5873,39.59402 83.05427,39.42995 83.39503,39.25326 83.9125,39.24064 84.49306,39.30375 84.79596,39.13967 85.11149,38.84939 86.3231,38.82415 86.73959,38.63483 87.90072,38.55911 88.67059,38.31931 89.55406,37.97854 89.8191,38.14262 89.8191,38.35717 89.65503,38.60959 89.68027,39.11443 89.74338,39.49306 89.8191,39.69499 89.45309,39.77072 89.35213,40.85612 88.96088,41.36096 88.64535,42.05511 88.19099,42.6483 87.64829,43.68321 87.32015,44.54144 86.91628,45.26083 86.1464,46.35886 85.49011,47.28019 84.94741,47.78502 84.24064,48.5549 83.45814,49.13546 82.91544,49.47623 82.20866,49.94321 81.19899,50.77619 80.39125,51.53344 79.73496,52.2276 79.19226,52.80816 78.75053,53.47707 78.47286,53.93143 77.85444,54.22171 77.79134,54.48675 77.4127,54.77703 76.99622,55.02945 76.87,55.63525 76.55448,56.35465 76.04964,57.18763 75.70888,57.7682 75.46908,58.41187 75.43121,59.32057 75.7215,59.59823 76.11275,59.92638 76.0875,60.50694 75.93605,60.62053 75.9613,61.15061 76.12537,61.27682 75.99916,61.55448 76.03702,61.94573 76.21371,62.21077 76.33993,62.6525 76.47875,63.1321 76.70593,63.61169 77.21077,63.93984 77.40009,64.5204 77.1729,65.0631 77.19815,65.50484 77.32436,66.07278 77.4127,66.65334 77.40009,67.42323 77.33698,67.73875 77.45057,68.02903 77.40009,68.40765 77.48843,69.16492 77.45057,70.061 77.07194,70.55322 76.55448,71.04543 75.87295,71.73959 75.38073,72.02987 74.66134,72.11822 74.03029,72.54733 73.44973,72.86285 72.78082,73.7968 72.47791,74.20068 71.90997,74.3395 71.30416,74.9958 71.01389,75.27345 70.7236,75.27345 70.61002,75.71519 70.61002,76.30837 71.05174,76.72486 71.15271,77.28018 71.31679,77.84813 71.36727,78.3782 71.61969,78.3782 71.63231,78.89567 71.55659,79.61506 71.36727,80.23349 71.45562,80.62473 71.39251,80.95288 71.10223,81.35675 70.58477,81.59655 69.77703,81.89945 68.89356,82.30332 68.36348,82.73244 68.19941,83.12369 68.32562,83.47707 68.52756,83.47707 68.54018,83.96929 68.40134,84.76441 68.19941,85.7236 67.99747,86.34203 67.48002,86.90997 67.06352,87.18763 66.71014,87.5915 66.19268,88.38662 65.88978,89.14388 65.48591,89.76231 64.95583,90.50694 64.35002,90.82246 63.94615,91.39041 63.16365,92.12242 62.50736,92.71561 61.87632,93.24569 61.27051,93.52335 60.80354,93.52335 60.3618,93.59908 60.0589,93.73791 59.95793,93.96508 59.69289,93.90198 59.49096,93.83887 59.28902,93.96508 59.17543,94.23013 58.82204,94.1544 58.36769,94.01556 57.8881,93.92722 56.97939,94.06605 56.48717,93.95246 56.05806,94.02818 55.7804,94.38158 55.02314,94.50778 54.16491,94.57088 53.63483,95 53.21834,94.9369 52.85233,94.6971 52.7135,94.49516 52.23391,94.43206 52.15818,94.06605 51.83004,93.88936 51.74169,93.42238 51.40092,92.94279 51.31258,92.60202 51.22423,92.21077 51.50189,92.14767 51.6281,91.75642 51.60286,91.2011 51.46403,90.67101 51.22423,90.2419 50.7825,89.59824 50.49222,89.01767 50.27766,88.374 50.06311,87.78082 49.84855,87.08666 49.57089,86.68279 49.14178,86.32941 48.56121,85.74884 48.33403,85.244 48.09424,84.80227 47.95541,84.25957 47.77871,83.45183 47.52629,82.40429 47.63988,81.93732 47.43795,81.4451 47.18553,80.70046 47.18553,79.36264 47.29912,78.94615 47.08456,78.54228 46.60497,77.7724 46.22634,77.07825 45.82246,76.28313 45.49432,75.50063 45.03997,74.60455 44.57299,73.92301 44.2196,73.39293 43.99243,72.7114 44.05553,72.05511 44.06815,71.13378 43.99243,70.61633 44.24485,70.32604 44.58561,69.32899 44.78755,68.29407 44.91376,67.66302 45.60791,66.72907 46.0244,66.59024 46.30206,65.98444 46.41565,65.16407 46.39041,64.48254 46.06226,63.9146 45.69625,63.03113 45.64577,62.63988 45.4817,62.4127 45.87295,61.95835 45.91081,61.59234 45.67101,61.12537 45.22928,60.27976 45.22928,59.80017 44.6992,59.08077 44.54775,58.52545 44.4594,57.91965 44.1565,57.36432 43.90408,56.97308 43.19731,56.29154 42.78082,55.81195 42.51578,55.47118 41.99832,55.13042 41.63231,54.6382 41.2663,54.14598 41.10223,53.57804 40.9003,52.90913 41.19057,52.2907 41.16533,51.54607 41.45562,51.65966 41.45562,51.36937 41.21582,51.15482 41.54396,51.09171 41.36727,50.61211 41.56921,49.93058 41.7459,49.11022 41.88473,48.36559 41.61969,47.5326 41.53134,47.21708 41.24106,47.14135 41.06437,47.21708 40.74884,46.90156 40.57215,46.4472 40.29449,46.59865 40.16828,46.35886 39.97897,46.47244 39.56247,46.51031 38.9188,46.54817 38.33824,46.63652 37.78292,46.81321 37.36643,46.86369 37.01304,46.56079 36.6849,45.99285 36.31889,45.24821 35.76357,44.61716 35.25873,44.16281 34.80437,44.22591 33.78208,44.40261 32.86075,44.49096 31.9899,44.64241 31.45982,44.70551 31.16954,45.122 30.50063,45.0589 29.71813,45.43753 28.99874,45.8414 28.53176,45.86664 27.98906,46.29575 27.53471,46.01809 27.04249,45.92974 26.58814,45.62684 26.36096,45.62684 26.00757,45.80354 25.51536,45.74043 24.73286,45.8414 24.01346,45.85402 23.39503,46.06857 22.59992,46.30837 22.05721,46.53555 21.48927,46.81321 20.98443,46.57341 20.35339,46.22002 19.43206,45.6647 18.62432,44.93269 17.77871,44.3395 17.1098,43.88515 16.70593,43.46866 15.98654,43.21624 15.1788,42.29491 15.12831,41.75221 14.76231,40.86874 14.49727,40.31342 13.76525,39.93479 13.29827,39.55616 13.18469,39.00084 12.98275,38.96298 12.79344,39.12705 12.42743,38.59697 12.42743,38.24358 12.5284,37.82709 12.14977,37.94068 11.443,37.90282 11.25368,37.44846 10.83719,37.24653 10.83719,36.13589 11.14009,36.29996 11.70804,36.17375 11.72066,35.85822 11.14009,35.85822 10.83719,35.58056 10.6605,34.89903 10.1809,34.48254 10.55953,34.14177 11.00126,33.48549 11.14009,32.96803 11.36727,31.81952 11.64493,31.08751 11.72066,30.27976 11.55658,29.52251 11.21582,28.99243 11.22844,28.65166 11.46824,28.05848 11.443,27.54102 10.84981,26.97308 10.57215,26.45562 10.63525,25.68574 10.86243,25.30711 11.25368,25.20614 11.35465,24.53723 11.63231,24.10812 11.9857,23.51493 12.01094,23.14893 12.50315,22.63147 13.0711,22.02566 13.3109,20.68784 13.55069,20.22087 14.29533,19.76651 14.6992,19.38788 14.92638,18.58014 15.26714,17.94909 16.18847,17.83551 16.95835,17.54523 17.31174,17.06563 17.80396,16.69962 18.435,16.23265 18.83887,15.61422 19.14178,14.84434 18.95246,13.94825 18.9777,13.21624 19.28061,12.77451 19.67186,12.05511 19.74758,11.61338 20.16407,11.10854 20.60581,10.65419 21.33782,10.3639 22.15818,9.92217 22.59992,9.35423 22.94068,8.64745 23.26883,7.85233 23.47076,7.27177 23.68532,7.1708 23.9756,7.23391 24.22802,7.59992 24.64451,7.90282 25.03576,8.10475 25.57846,8.09213 26.63862,8.01641 26.94152,8.06689 27.1687,8.24358 27.55995,8.23096 28.29197,8.14262 28.84729,7.87758 29.21329,7.36012 29.62979,7.1708 30.32394,7.1708 30.56374,6.8679 31.04333,6.47665 31.58603,6.23685 32.35591,6.09802 33.20152,6.00968 33.58014,6.00968 33.83256,5.74464 34.62768,5.74464 34.90534,5.59318 35.37232,5.68153 35.9655,5.66891 36.43248,5.87085 36.55869,5.99706 36.87421,5.80774 37.59361,5.59318 37.93437,5.49222 38.32562,5.56794 38.74211,5.49222 39.03239,5.42911 39.32267,5.56794 39.878,5.58056 40.1809,5.73201 40.71098,5.42911 41.25368,5.13883 41.61969,5 41.98569,5.15145 42.16239,5.53008 42.3517,5.90871 42.62936,5.69415 43.09634,5.44173 43.17207,5.61843 43.04586,5.85822 42.7682,6.14851 42.54102,6.3883 42.55364,6.99411 42.81868,7.14556 43.0711,7.43584 43.08372,7.8902 43.08372,8.24358 42.74295,8.68532 42.45267,9.05132 41.98569,9.35423 41.84266,9.56037 41.85949,9.79596 42.07404,10.18721 42.47791,10.26294 42.81868,10.12411 42.8313,10.32604 42.85654,10.46487 43.05848,10.41439 43.26041,10.3008 43.28566,10.56584 43.32352,10.7804 43.68953,10.81826 44.00505,10.96971 44.35844,11.19689 44.78755,11.39882 45.40598,11.39882 46.08751,11.41144 46.66807,11.57551 47.1098,11.8658 47.84182,12.01725 48.14472,12.30753 48.24569,12.88809 48.52335,13.27934 49.06605,13.51914 49.94952,13.63273 50.79512,13.89777 51.48927,14.23854 51.96887,14.65503 52.48633,14.94531 52.92806,14.79386 53.54649,14.21329 53.81153,13.77156 53.59697,13.02692 53.60959,12.43374 54.01346,11.97939 54.53092,11.66386 55.25032,11.44931 55.72991,11.29785 56.47455,11.42406 57.06773,11.65124 57.13084,12.09297 57.37064,12.26967 58.00168,12.34539 58.29197,12.57257 59.32688,12.59781 59.46571,12.77451 59.55406,13.11527 60.07152,13.12789 60.31132,13.05217 60.71519,13.12789 61.56079,13.22886 62.19184,13.56962 62.68406,13.557 62.78502,13.75894 63.51704,13.82204 64.28692,14.13757 64.79176,13.84729 65.41018,13.41817 65.67522,13.24148 66.11695,13.34245 66.43248,13.07741 66.96255,13.24148 67.48002,13.17838 67.55574,13.54438 67.95961,13.59487 68.22466,13.75894 68.77998,13.69584 69.53723,13.58225 69.89062,13.53176 70.07915,13.43763 70.81668,15.89609 70.44791,16.96887 70.44791,17.8852 69.878,18.1534 68.93932,17.17002 68.93932,16.54423 68.51467,16.16428 68.33588,15.62789 68.04533,15.51614 67.88889,15.79551 68.20177,16.18663 68.22413,16.65597 "
     id="polygon4"
     transform="matrix(0.66666667,0,0,0.66666667,-1.3418076,-1.0790957)"
     style="fill:#ffffff" /><polygon
     points="86.55027,67.91544 87.00463,67.66302 87.09297,67.29701 87.20657,66.95625 87.11822,66.51451 87.37064,66.31258 87.37064,66.13589 87.58519,66.13589 87.7114,66.29996 87.87547,66.37569 88.01431,66.69121 88.2541,67.03197 88.41817,67.72613 88.59486,68.39503 88.68321,69.02608 88.83466,69.61927 88.93563,69.83382 88.78418,70.36391 88.67059,70.50273 88.30459,69.99789 88.14051,69.89693 88.05217,70.08624 88.01431,70.51536 88.02692,70.88136 88.20362,71.0833 88.22886,71.28523 88.14051,71.66386 87.91334,71.94152 87.69878,72.26967 87.77451,72.49684 87.81237,72.75347 87.7703,73.10686 87.55154,73.77998 87.25705,74.64661 86.85318,75.8414 86.61758,76.46403 86.25578,77.78503 86.0202,78.45814 85.86874,79.10602 85.69205,79.89693 85.47328,80.62053 85.23769,81.22633 84.85906,81.89104 84.44678,81.96677 84.00084,82.16029 83.34455,82.50526 83.12579,82.57257 82.60413,82.42953 82.11611,82.19394 81.54396,81.82373 81.40092,81.36937 81.15692,81.12537 81.15692,79.80437 80.80354,79.17332 80.71098,78.87042 80.62684,78.17207 80.97181,77.29701 81.40934,76.70804 81.80479,76.05174 82.14136,75.40387 82.13294,74.8822 81.88894,74.48675 81.59444,73.57804 81.45141,72.45057 82.17028,71.03255 83.3548,70.742 84.06999,70.40676 84.78518,69.78098 84.96397,70.04917 85.50037,69.17754 85.63447,69.42338 85.85796,69.06579 85.85796,68.66349 86.08146,68.5294 86.08146,68.08241 85.96971,67.83656 86.2826,67.97066 "
     id="polygon6"
     transform="matrix(0.66666667,0,0,0.66666667,-1.3418076,-1.0790957)"
     style="fill:#ffffff" /></svg>