<?xml version="1.0" encoding="UTF-8" standalone="no"?><svg aria-hidden="true" focusable="false" data-prefix="ds" data-icon="clock-alarm" class="svg-inline--fa fa-clock-alarm fa-w-16 fa-fw Filter_ItemIcon__1Ial8" role="img" xmlns="http://www.w3.org/2000/svg" viewBox="0 0 512 512">
      <path fill="#FFFFFF" d="M110.1,232.6c-6-9.1-9.6-20-9.6-31.7c0-31.8,25.8-57.7,57.7-57.7c18,0,33.9,8.4,44.5,21.4  C164.8,176.5,132.5,200.8,110.1,232.6z M353.8,143.3c-18,0-33.9,8.4-44.5,21.4c37.9,11.9,70.2,36.2,92.6,68c6-9.1,9.6-20,9.6-31.7  C411.4,169.1,385.6,143.3,353.8,143.3z M256,236.1c-11.7,0-21.1,9.5-21.1,21.2v56.3h-31.1c-11.7,0-21.1,9.5-21.1,21.2  s9.5,21.2,21.1,21.2H256c11.7,0,21.1-9.5,21.1-21.2v-77.5C277.1,245.6,267.7,236.1,256,236.1z M345.7,459.8l9.4,23.1v0  c4.4,10.8-0.8,23.1-11.7,27.5c-2.6,1.1-5.3,1.6-7.9,1.6c-7.2,0-13.9-3.9-17.8-10.2c-0.6-1-1.4-1.9-1.8-3.1l-7.8-19.2  c-15.9,5.7-32.9,9-50.8,9.2c0-0.1-0.1-0.2-0.1-0.3c-0.4-1.1-0.9-2.1-1.3-3.1c-0.4,1.1-0.9,2.1-1.3,3.1c0,0.1-0.1,0.2-0.1,0.3  c-17.8-0.2-34.9-3.5-50.8-9.2l-7.8,19.2c-0.5,1.1-1.2,2-1.8,3.1c-3.9,6.3-10.6,10.2-17.8,10.2c-2.6,0-5.3-0.5-7.9-1.6  c-10.8-4.4-16-16.7-11.7-27.5v0l9.4-23.1c-38.9-28-64.4-73.5-64.4-125c0-31.5,9.5-60.7,25.8-85.1c20.1-30.2,50.5-52.8,86.2-63  c13.4-3.8,27.5-6,42.1-6c14.6,0,28.7,2.2,42.1,6c35.7,10.2,66.1,32.8,86.2,63c16.3,24.4,25.8,53.7,25.8,85.1c0,3-0.1,6-0.3,9  c-0.1,1.5-0.2,3-0.4,4.4c-0.1,1.4-0.2,2.8-0.4,4.2c-0.2,2-0.5,4.1-0.9,6.1c-0.1,0.7-0.2,1.4-0.3,2.2c-0.4,2.4-0.9,4.9-1.4,7.3  c0,0.2-0.1,0.4-0.1,0.5C397.9,405.8,375.9,438.1,345.7,459.8z M367.8,334.8c0-31.3-13-59.6-33.9-79.9c-7.3-7.1-15.7-12.9-24.7-17.8  c-15.9-8.7-33.8-14.1-53.2-14.1c-19.3,0-37.3,5.4-53.2,14.1c-9,4.9-17.5,10.7-24.7,17.8c-20.8,20.3-33.9,48.6-33.9,79.9  c0,52.8,36.7,97.1,86,108.7c-0.1-0.1-0.2-0.2-0.3-0.4c8.4,2,17.1,3.4,26.1,3.4s17.7-1.4,26.1-3.4c-0.1,0.1-0.2,0.2-0.3,0.4  c24.5-5.8,46-19.7,61.3-38.8c-0.3,0.1-0.5,0.1-0.8,0.2c13.7-16.8,22.9-37.4,25-60.1c0-0.2,0-0.3,0-0.5  C367.7,341.2,367.8,338,367.8,334.8z M34.2,446c1.5,0,3-0.3,4.4-1.1c4.7-2.4,6.6-8.2,4.2-12.9c-15.6-30.5-23.5-63.2-23.5-97.2  s7.9-66.7,23.5-97.2c2.4-4.7,0.6-10.5-4.2-12.9c-4.7-2.4-10.5-0.5-12.9,4.2C8.6,262.1,0,297.8,0,334.8s8.6,72.7,25.6,105.9  C27.3,444.1,30.7,446,34.2,446z M75.5,412.4c1.5,0,3-0.3,4.4-1.1c4.7-2.4,6.6-8.2,4.2-12.9c-10.2-20-15.4-41.4-15.4-63.6  c0-22.2,5.2-43.6,15.4-63.6c2.4-4.7,0.5-10.5-4.2-12.9c-4.7-2.4-10.5-0.5-12.9,4.2c-11.6,22.7-17.5,47.1-17.5,72.4  c0,25.3,5.9,49.7,17.5,72.4C68.6,410.5,72,412.4,75.5,412.4z M486.4,440.7c17-33.3,25.6-68.9,25.6-105.9s-8.6-72.7-25.6-105.9  c-2.4-4.7-8.2-6.6-12.9-4.2c-4.7,2.4-6.6,8.2-4.2,12.9c15.6,30.5,23.5,63.2,23.5,97.2s-7.9,66.7-23.5,97.2  c-2.4,4.7-0.6,10.5,4.2,12.9c1.4,0.7,2.9,1.1,4.4,1.1C481.3,446,484.7,444.1,486.4,440.7z M445.1,407.2  c11.6-22.7,17.5-47.1,17.5-72.4c0-25.3-5.9-49.7-17.5-72.4c-2.4-4.7-8.2-6.6-12.9-4.2c-4.7,2.4-6.6,8.2-4.2,12.9  c10.2,20,15.4,41.4,15.4,63.6c0,22.2-5.2,43.6-15.4,63.6c-2.4,4.7-0.5,10.5,4.2,12.9c1.4,0.7,2.9,1.1,4.4,1.1  C440,412.4,443.4,410.5,445.1,407.2z"></path>
   </svg>