<?xml version="1.0" encoding="UTF-8" standalone="no"?><svg aria-hidden="true" focusable="false" data-prefix="ds" data-icon="alcohol" class="svg-inline--fa fa-alcohol fa-w-16 fa-fw Filter_ItemIcon__1Ial8" role="img" xmlns="http://www.w3.org/2000/svg" viewBox="0 0 512 512">
      <path fill="#FFFFFF" d="M193.5,128.8V43.3l0,0V10.8c0-5.4-4.3-10.8-10.8-10.8h-36.8c-5.4,0-10.8,4.3-10.8,10.8v35.7l0,0v81.2  c-27.1,8.7-46.5,33.6-46.5,63.9v306.3c0,7.6,6.5,14.1,14.1,14.1h121.2c7.6,0,14.1-6.5,14.1-14.1V191.6  C240.1,162.4,220.6,137.5,193.5,128.8z M106.9,210c0-49.8,34.6-67.1,35.7-67.1c5.4-2.2,10.8,0,13,4.3c2.2,5.4,0,10.8-4.3,13  c-1.1,1.1-24.9,13-24.9,49.8c0,5.4-4.3,9.7-9.7,9.7S106.9,215.4,106.9,210z M215.2,424.3H114.5V242.5h100.7V424.3z M360.2,468.7  v-69.3c2.2-11.9,6.5-20.6,35.7-42.2c52.3-34,9.7-150.5,9.7-150.5H294.2c0,0-38.2,116,9.7,150.5c29.2,21.6,33.6,31.4,35.7,42.2v69.3  c-1.1,3.2-13,31.4-53,31.4V512h125.6v-11.9C374.3,500.1,362.4,473,360.2,468.7z M324.5,267.4c0,0-16.2,32.5-5.4,77.9l0,0  c-1.1-1.1-43-11.9-13-120.2h86.6c3.2,8.7,6.5,22.7,8.7,42.2H324.5z"></path>
   </svg>