<?xml version="1.0" encoding="UTF-8" standalone="no"?><svg aria-hidden="true" focusable="false" data-prefix="ds" data-icon="watch" class="svg-inline--fa fa-watch fa-w-16 fa-fw Filter_ItemIcon__1Ial8" role="img" xmlns="http://www.w3.org/2000/svg" viewBox="0 0 512 512">
      <path fill="#FFFFFF" d="M256.2,113.1c-78.9,0-142.9,64-142.9,142.9c0,79,64,142.9,142.9,142.9c79,0,142.9-64,142.9-142.9  C399.1,177.1,335.1,113.1,256.2,113.1z M369.5,312.3l-13.1-7.6l-7.9,13.8l13.5,7.7c-9.4,14.1-21.5,26.2-35.6,35.5l-7.8-13.4  l-13.8,7.9l7.6,13.1c-14.8,7.4-31,11.8-48.3,12.9v-15.1h-15.9v15.1c-17.3-1.1-33.6-5.6-48.3-12.9l7.6-13.1l-13.8-7.9l-7.7,13.4  c-14-9.4-26.1-21.4-35.5-35.5l13.4-7.8l-7.9-13.8l-13.1,7.6c-7.3-14.7-11.8-31-12.9-48.3H145v-15.9h-15.1  c1.1-17.3,5.6-33.6,12.9-48.3l13.1,7.6l7.9-13.8l-13.4-7.7c9.4-14,21.5-26.2,35.5-35.5l7.8,13.4l13.7-7.9l-7.6-13.1  c14.8-7.4,31-11.8,48.3-12.9v15.1h15.9v-15.1c17.3,1.1,33.6,5.6,48.3,12.9l-7.6,13.1l13.8,7.9l7.8-13.4  c14.1,9.4,26.2,21.5,35.6,35.5l-13.5,7.7l7.9,13.8l13.1-7.6c7.4,14.8,11.9,31,12.9,48.3h-15.1v15.9h15.1  C381.4,281.2,376.9,297.5,369.5,312.3z M494.4,224.2h-15.9c-8.7,0-15.9,7.1-15.9,15.9h-17.2c-3.3-38.8-17.5-74.5-40.5-103.2  c-5.1-34.7-11.7-69.3-21.6-103.3L351.4,1.9v89.2c-28-16.3-60.5-25.7-95.3-25.7s-67.2,9.5-95.3,25.7V1.9l-31.8,31.8  c-9.9,34-16.4,68.5-21.6,103.2c-26.2,32.6-41.9,74-41.9,119.1c0,45.1,15.8,86.4,41.9,119.1c5.1,34.7,11.7,69.3,21.6,103.2l31.8,31.8  v-89.2c28.1,16.3,60.5,25.7,95.3,25.7s67.2-9.5,95.3-25.7v89.2l31.8-31.8c9.9-34,16.5-68.5,21.6-103.2c23-28.7,37.2-64.4,40.5-103.2  h17.2c0,8.8,7.1,15.9,15.9,15.9h15.9c8.8,0,15.9-7.1,15.9-15.9v-31.8C510.2,231.3,503.2,224.2,494.4,224.2z M256.2,414.8  c-87.5,0-158.8-71.2-158.8-158.8S168.6,97.2,256.2,97.2C343.8,97.2,415,168.4,415,256S343.8,414.8,256.2,414.8z M351.4,248.1h-81.8  c-2.1-3.5-5.4-6.1-9.5-7.1v-80.2h-7.9v80.2c-4,1-7.4,3.6-9.5,7.1h-18.3v15.9h18.3c2.1,3.5,5.4,6.1,9.5,7.1v16.7h7.9v-16.7  c4.1-1.1,7.4-3.6,9.5-7.1h81.8V248.1z"></path>
   </svg>