<?xml version="1.0" encoding="UTF-8" standalone="no"?><svg aria-hidden="true" focusable="false" data-prefix="ds" data-icon="armchair" class="svg-inline--fa fa-armchair fa-w-22 fa-fw Filter_ItemIcon__1Ial8" role="img" xmlns="http://www.w3.org/2000/svg" viewBox="0 0 511.4 386.9">
      <path fill="#FFFFFF" d="M80,93.8C86.4,36,162.6,0,256,0s169.6,36,176,93.8c-14.4,4.3-27.6,12.5-37.5,24.1c-16.4,16.6-28.7,39.4-36.8,68  c-28.3-12.7-61.6-19.5-96.1-19.5c-1.4,0-2.8,0.1-4.2,0.1l-1.8,0.1l-0.9-0.1c-1.4-0.1-2.8-0.1-4.2-0.1c-34.6,0-67.8,6.8-96.1,19.5  c-8.1-28.5-20.4-51.3-36.8-68C107.6,106.3,94.4,98.1,80,93.8z M453.9,110.4c-1.2,0-2.3,0.3-3.5,0.4c0-0.2,0-0.4,0-0.4  s-2.5,0.1-6.6,1c-4.4,0.8-8.6,2.2-12.6,3.9c-8.5,3.7-16,9.2-21.9,16.2c-10.6,10.6-21.2,26.6-29.2,50.4c-3.4,10-6.4,21.2-8.6,34.2  c-9.3-6-20-10.9-31.2-15.2c-23.2-8.9-49.8-14.4-78.6-14.4c-1.9,0-3.7,0.1-5.6,0.2c-1.9,0-3.7-0.2-5.6-0.2  c-28.8,0-55.5,5.5-78.6,14.4c-11.3,4.3-22,9.2-31.2,15.2c-2.3-13-5.3-24.2-8.6-34.2c-8.1-23.8-18.7-39.8-29.2-50.4  c-5.9-7-13.4-12.5-21.9-16.2c-4-1.7-8.2-3.2-12.6-3.9c-4.1-0.9-6.6-1-6.6-1s0,0.2,0,0.4c-1.2-0.1-2.3-0.4-3.5-0.4  C26,110.4,0,136.4,0,168.5c0,28.1,19.9,51.5,46.3,56.9c4.1,38.3,16.4,110.2,40.8,136.6h26.3c-0.2,1.3-0.8,2.5-0.8,3.8  c0,2.2,0.6,4.2,1.3,6.2c1.3,4.1,3.7,7.5,6.9,10.1c3.6,2.9,8,4.8,12.9,4.8h14.9c5,0,9.3-2,12.9-4.8c3.3-2.6,5.7-6,6.9-10.1  c0.6-2,1.3-4,1.3-6.2c0-1.4-0.5-2.5-0.8-3.8h49.9h73.8h49.9c-0.2,1.3-0.8,2.5-0.8,3.8c0,2.2,0.6,4.2,1.3,6.2  c1.3,4.1,3.7,7.5,6.9,10.1c3.6,2.9,8,4.8,12.9,4.8h14.9c5,0,9.3-2,12.9-4.8c3.3-2.6,5.7-6,6.9-10.1c0.6-2,1.3-4,1.3-6.2  c0-1.4-0.5-2.5-0.8-3.8h26.3c24.4-26.4,36.7-98.3,40.8-136.6c26.5-5.4,46.3-28.9,46.3-56.9C512,136.4,486,110.4,453.9,110.4z"></path>
   </svg>