<?xml version="1.0" encoding="UTF-8" standalone="no"?><svg aria-hidden="true" focusable="false" data-prefix="ds" data-icon="fence" class="svg-inline--fa fa-fence fa-w-16 fa-fw Filter_ItemIcon__1Ial8" role="img" xmlns="http://www.w3.org/2000/svg" viewBox="0 0 512 512">
      <path fill="#FFFFFF" d="M479.3,0l-41.2,39.9v116.2h-69V39.9L334.1,0l-41.2,39.9v116.2h-69V39.9L188.8,0l-42.4,39.9v116.2h-69V39.9L42.4,0L0,39.9  v347.4h76.3v-52h69v52h76.3v-52h69v52h76.3v-52h69v52H512V39.9L479.3,0z M77.5,307.4V187.6h69v119.8H77.5z M222.7,307.4V187.6h69  v119.8H222.7z M369.2,307.4V187.6h69v119.8H369.2z M351,512h42.4c0,0-4.8-61.7,16.9-104.1C411.5,407.9,366.8,444.2,351,512z   M163.4,487.8c-19.4-52-53.3-81.1-53.3-81.1c21.8,42.4,16.9,105.3,16.9,105.3h27.8h14.5h19.4c0,0-3.6-49.6,13.3-83.5  C203.3,429.7,179.1,450.3,163.4,487.8z M299,512h33.9c0,0-3.6-48.4,13.3-82.3C346.2,429.7,311.1,458.7,299,512z M30.3,429.7  C47.2,463.6,43.6,512,43.6,512h32.7C64.2,457.5,30.3,429.7,30.3,429.7z"></path>
   </svg>