<?xml version="1.0" encoding="UTF-8" standalone="no"?><svg aria-hidden="true" focusable="false" data-prefix="ds" data-icon="bathtub" class="svg-inline--fa fa-bathtub fa-w-19 fa-fw Filter_ItemIcon__1Ial8" role="img" xmlns="http://www.w3.org/2000/svg" viewBox="0 0 512 432.8">
      <path fill="#FFFFFF" d="M22.8,186.9c0,0-22.3,130.5,96.6,178.1c-11.3,11.3-18.8,26.3-18.8,47.7c0,11.3,8.8,20.1,20.1,20.1s20.1-8.8,20.1-20.1  c0-25.1,22.6-27.6,28.8-28.8c1.3,0,25.1,2.5,36.4,2.5h158c8.8,0,27.6-2.5,27.6-2.5c7.5,0,28.8,3.8,28.8,28.8  c0,11.3,8.8,20.1,20.1,20.1s20.1-8.8,20.1-20.1c0-22.6-8.8-38.9-21.3-50.2c72.9-52.7,60.2-144.2,60.2-144.2  C483.1,219.5,240.7,225.6,22.8,186.9z M495.7,168.1c-22.6,1.3-46.4,1.3-69,1.3V57.7c0-31.4-25.1-57.7-55.2-57.7  s-55.2,26.3-55.2,57.7h26.3c0-16.3,13.8-30.1,30.1-30.1c16.3,0,30.1,13.8,30.1,30.1v110.4c-191.9-3.8-382.5-32.6-385-32.6  c-8.8-1.3-16.3,5-17.6,13.8s5,16.3,13.8,17.6c2.5,0,222,33.9,426.4,33.9c18.8,0,37.6,0,56.4-1.3c8.8,0,16.3-7.5,15.1-16.3  C512,174.3,504.4,168.1,495.7,168.1z M374,116.6c8.8,0,15.1,6.3,15.1,15.1s-6.3,15.1-15.1,15.1c-8.8,0-15.1-6.3-15.1-15.1  C359,122.9,365.2,116.6,374,116.6z M454.3,115.4c8.8,0,15.1,6.3,15.1,15.1s-6.3,15.1-15.1,15.1s-15.1-6.3-15.1-15.1  S445.5,115.4,454.3,115.4z"></path>
   </svg>