<?xml version="1.0" encoding="UTF-8" standalone="no"?><svg aria-hidden="true" focusable="false" data-prefix="ds" data-icon="room-bed" class="svg-inline--fa fa-room-bed fa-w-16 fa-fw Filter_ItemIcon__1Ial8" role="img" xmlns="http://www.w3.org/2000/svg" viewBox="0 0 512 512">
      <path fill="#FFFFFF" d="M73.1,149.9c0-2.4,0-3.7-1.2-6.1L245,51.2c4.9-2.4,11-2.4,15.8,0l174.3,95.1c0,1.2,0,1.2,0,2.4V295H473V167l8.5,4.9  c11,6.1,24.4-2.4,24.4-14.6v-4.9c0-6.1-3.7-11-8.5-14.6L262.1,8.5c-4.9-2.4-11-2.4-15.8,0L8.5,136.5C3.7,139,0,145.1,0,151.2v4.9  c0,12.2,13.4,20.7,24.4,14.6l11-6.1v291.4c0,9.8,7.3,17.1,17.1,17.1h1.2h3.7h35.4v-37.8H73.1V149.9z M491.3,338.9  c-11,0-18.3,8.5-18.3,20.7V423H156V285.3c0-11-8.5-20.7-18.3-20.7c-11,0-18.3,8.5-18.3,20.7V512h37.8v-53.6h317V512H512V359.6  C509.6,348.6,501,338.9,491.3,338.9z M260.9,347.4v58.5h193.8v-11c0-25.6-20.7-46.3-46.3-46.3L260.9,347.4L260.9,347.4z   M219.4,343.8c-20.7-11-41.4-7.3-47.5,7.3c-6.1,14.6,4.9,36.6,25.6,47.5c20.7,11,41.4,7.3,47.5-7.3  C251.1,376.7,240.2,354.7,219.4,343.8z"></path>
   </svg>