<?xml version="1.0" encoding="UTF-8" standalone="no"?><svg aria-hidden="true" focusable="false" data-prefix="ds" data-icon="bike" class="svg-inline--fa fa-bike fa-w-27 fa-fw Filter_ItemIcon__1Ial8" role="img" xmlns="http://www.w3.org/2000/svg" viewBox="0 0 512.3 309.1">
      <path fill="#FFFFFF" d="M301.1,0h24.5c21,0,39.7,9.3,46.7,32.7l25.7,77c3.5,0,9.3-1.2,14-1.2c54.8,0,100.3,44.3,100.3,100.3  s-44.5,100.3-100.5,100.3s-101.5-44.3-101.5-100.3c0-40.8,24.5-74.6,53.6-88.6l-3.5-15.2l-87.5,102.6c-10.5,12.8-21,17.5-35,17.5  h-37.3c-8.2,47.8-47.8,84-99.1,84C45.5,309.1,0,264.8,0,208.8s44.3-101.5,101.5-101.5c11.7,0,22.2,1.2,31.5,4.7l28-52.5l-5.8-16.3  h-17.5c-8.2,0-15.2-7-15.2-15.2s7-15.2,15.2-15.2h73.5c8.2,0,15.2,7,15.2,15.2s-7,15.2-15.2,15.2H189l2.3,8.2h151.6l-2.3-7  c-2.3-7-8.2-9.3-15.2-9.3h-24.5c-9.3,0-17.5-7-17.5-17.5C284.7,7,291.7,0,301.1,0 M103.9,278.8c32.7,0,60.6-22.2,67.6-53.6h-67.6  c-9.3,0-16.3-7-16.3-16.3c0-2.3,1.2-5.8,2.3-9.3l31.5-58.3c-5.8-1.2-12.8-2.3-17.5-2.3c-38.5,0-70,31.5-70,70  S65.5,278.8,103.9,278.8 M127.3,191.3h44.3c-3.5-16.3-14-29.2-24.5-38.5L127.3,191.3z M208.9,191.3l-32.6-95.6L160,124.9  c24.5,17.5,37.3,38.5,42,66.5h6.9V191.3z M242.7,191.3c3.5,0,98-108.5,98-108.5H204.3L242.7,191.3z M375.7,149.3  c-19.8,12.8-32.7,36.2-32.7,59.5c0,38.5,31.5,70,70,70s70-31.5,70-70s-31.5-70-70-70h-5.8l21,60.6c3.2,9.3,3,19.3-9.5,23.6  c-10.6,3.6-19.9-2.2-23.1-11.9L375.7,149.3z"></path>
   </svg>