<?xml version="1.0" encoding="UTF-8" standalone="no"?><svg aria-hidden="true" focusable="false" data-prefix="ds" data-icon="boat" class="svg-inline--fa fa-boat fa-w-28 fa-fw Filter_ItemIcon__1Ial8" role="img" xmlns="http://www.w3.org/2000/svg" viewBox="0 0 512.6 301.8">
      <path fill="#FFFFFF" d="M61.1,182c0-2.2,3.3-2.2,4.4,0c4.4,18.5,18.5,46.8,61,46.8c0,0,54.5,1.1,64.3-46.8c0-2.2,3.3-2.2,4.4,0  c4.4,18.5,18.5,46.8,61,46.8c0,0,54.5,1.1,64.3-46.8c0-2.2,3.3-2.2,4.4,0c4.4,18.5,18.5,46.8,61,46.8c0,0,10.9,0,24-4.4l75.2-98  c6.5-9.8,0-22.9-12-22.9l-152.5,2.2c0-2.2-27.2-68.6-32.7-80.6c-8.7-17.4-21.8-22.9-25.1-24L259.5,0H155.9v110l-124.2,1.1  c-9.8,0-17.4,8.7-17.4,18.5l-6.5,98C24.1,225.5,54.6,216.8,61.1,182z M189.6,33.8h61c1.1,1.1,3.3,3.3,5.4,6.5  c4.4,8.7,19.6,45.8,28.3,66.5l-93.7,2.2V33.8H189.6z M512.6,269.1c-42.5,0-57.1-28.3-61.5-46.8c-1.1-2.2-3.3-2.2-4.4,0  c-9.8,46.8-62.1,46.8-62.1,46.8s-39,2.7-62-46.8c-1.1-2.2-3.3-2.2-4.4,0c-9.8,46.8-62.1,46.8-62.1,46.8s-36.1,5.8-63.2-46.8  c-1.1-2.2-3.3-2.2-4.4,0c-9.8,46.8-62.1,46.8-62.1,46.8s-49.6,2.7-63.2-46.8c0-2.2-3.3-2.2-4.4,0C52.3,270.2,0,269.1,0,269.1v32.7  c0,0,41.4,0,56.6-32.7c3.3-6.5,10.9-6.5,14.2,0c7.6,16.3,24,32.7,55.6,32.7c0,0,43.6,0,58.8-32.7c3.3-6.5,10.9-6.5,14.2,0  c7.6,16.3,24,32.7,55.6,32.7c0,0,43.6,0,58.8-32.7c3.3-6.5,10.9-6.5,14.2,0c7.6,16.3,24,32.7,55.6,32.7c0,0,42.5,0,57.7-32.7  c3.3-6.5,10.9-6.5,14.2,0c7.6,16.3,25.6,32.7,57.1,32.7V269.1L512.6,269.1z"></path>
   </svg>