<?xml version="1.0" encoding="UTF-8" standalone="no"?><svg aria-hidden="true" focusable="false" data-prefix="ds" data-icon="book" class="svg-inline--fa fa-book fa-w-16 fa-fw Filter_ItemIcon__1Ial8" role="img" xmlns="http://www.w3.org/2000/svg" viewBox="0 0 512 512">
      <path fill="#FFFFFF" d="M505.2,232.8c-8.8-9.9-12.2-26.5-8.8-46.4c1.1-9.9-5.5-19.9-15.5-21c-9.9-1.1-19.9,5.5-21,15.5  c-4.4,33.2,3.3,55.3,12.2,68.5L299.7,472.6L73.1,408.5c-3.3-1.1-35.4-11.1-36.5-55.3c0-3.3,0.5-22.2,13.3-28.7  c6.6-2.2,13.3-3.3,19.9-3.3l203.4,38.7c12.2,2.2,24.3-1.1,30.9-9.9l192.3-237.6c4.4-5.5,5.5-12.2,3.3-19.9  c-2.2-6.6-7.7-12.2-14.4-13.3L245.5,41.6c-11.1-2.2-23.2,2.2-29.8,11.1L11.2,295.8c0,0-11.1,13.7-11.1,59.7  C3.5,428.4,62,445,64.3,445l231,66.3c2.2,0,17.3,5.2,32-12.2l180.1-234.3C514.1,256,514.1,241.6,505.2,232.8z M227.8,146.6  l19.9-24.3c1.1-2.2,4.4-2.2,6.6-2.2l97.3,14.4c5.5,1.1,7.7,7.7,4.4,11.1l-22.1,24.3c-1.1,2.2-4.4,2.2-6.6,2.2l-95-14.4  C226.7,157.6,224.5,151,227.8,146.6z"></path>
   </svg>