<?xml version="1.0" encoding="UTF-8" standalone="no"?><svg aria-hidden="true" focusable="false" data-prefix="ds" data-icon="bowl" class="svg-inline--fa fa-bowl fa-w-16 fa-fw Filter_ItemIcon__1Ial8" role="img" xmlns="http://www.w3.org/2000/svg" viewBox="0 0 512 512">
      <path fill="#FFFFFF" d="M510.6,282c1.4-5.5,0-8.2-2.7-12.3s-8.2-4.1-13.7-4.1H17.8c-5.5,0-11,0-13.7,5.5c-2.7,4.1-4.1,6.8-2.7,12.3  c28.7,102.7,116.4,173.9,220.4,187.6H42.4c-9.6,0-17.8,11-17.8,20.5S32.9,512,42.4,512h427.1c9.6,0,17.8-11,17.8-20.5  s-8.2-20.5-17.8-20.5H288.9C394.3,457.2,481.9,384.7,510.6,282z M395.6,201.2V79.4c0-9.6-8.2-17.8-17.8-17.8S360,69.8,360,79.4  v121.8c0,9.6,8.2,17.8,17.8,17.8C387.4,219,395.6,210.8,395.6,201.2z M273.8,139.6V17.8C273.8,8.2,265.6,0,256,0  c-9.6,0-17.8,8.2-17.8,17.8v121.8c0,9.6,8.2,17.8,17.8,17.8C265.6,157.4,273.8,149.2,273.8,139.6z M152,201.2V79.4  c0-9.6-8.2-17.8-17.8-17.8c-9.6,0-17.8,8.2-17.8,17.8v121.8c0,9.6,8.2,17.8,17.8,17.8C143.7,219,152,210.8,152,201.2z"></path>
   </svg>