<?xml version="1.0" encoding="UTF-8" standalone="no"?><svg aria-hidden="true" focusable="false" data-prefix="ds" data-icon="toothbrush" class="svg-inline--fa fa-toothbrush fa-w-16 fa-fw Filter_ItemIcon__1Ial8" role="img" xmlns="http://www.w3.org/2000/svg" viewBox="0 0 512 512">
      <path fill="#FFFFFF" d="M509.1,88.1l-22-24.5c-2.4-3.7-7.3-3.7-11-1.2l0,0L421.1,0L287.7,118.7l55.1,62.4l-1.2,2.4c-3.7,2.4-3.7,7.3-1.2,11l1.2,1.2  L8.8,469.8C-1,478.3-3.4,494.2,6.3,504c8.6,9.8,24.5,11,34.3,1.2l324.2-285c2.4,1.2,6.1,1.2,8.6-1.2L509.1,99.1  C512.8,96.6,512.8,91.8,509.1,88.1z M357.4,168.8l-41.6-47.7l18.4-17.1l25.7,19.6L344,96.6l19.6-18.4l25.7,19.6l-17.1-28.1  l19.6-18.4L417.4,71l-17.1-28.1l18.4-17.1l41.6,46.5L357.4,168.8z"></path>
   </svg>