<?xml version="1.0" encoding="UTF-8" standalone="no"?><svg aria-hidden="true" focusable="false" data-prefix="ds" data-icon="car-key" class="svg-inline--fa fa-car-key fa-w-16 fa-fw Filter_ItemIcon__1Ial8" role="img" xmlns="http://www.w3.org/2000/svg" viewBox="0 0 512 512">
      <path fill="#FFFFFF" d="M202.5,126.9L140,102.7c-5.1-1.3-10.2-2.6-15.3-2.6c-16.6,0-31.9,8.9-38.3,24.3l-44.7,93.2c-10.2,23,0,49.8,23,58.7  l10.2,3.8L2.1,470.3c-6.4,15.3,2.6,33.2,17.9,39.6s33.2-2.6,39.6-17.9l72.8-190.2l10.2,3.8c5.1,2.6,10.2,2.6,15.3,2.6  c19.1,0,35.7-11.5,40.9-30.6L228,178C234.4,157.6,222.9,134.6,202.5,126.9z M175.7,171.6c-5.1,12.8-19.1,19.1-31.9,14  s-19.1-19.1-14-31.9c5.1-12.8,19.1-19.1,31.9-14C174.4,144.8,180.8,158.9,175.7,171.6z M413.1,248.2c-19.1-57.4-56.2-85.5-72.8-95.7  c1.3-2.6,2.6-6.4,3.8-8.9c8.9-24.3,6.4-51.1-6.4-75.3c-12.8-24.3-35.7-43.4-62.6-53.6c-14-5.1-29.4-8.9-44.7-8.9  c-43.4,0-79.1,23-93.2,58.7c-2.6,6.4-5.1,17.9-5.1,17.9l19.1,6.4c0-5.1,1.3-11.5,3.8-16.6c10.2-28.1,39.6-46,74-46  c12.8,0,25.5,2.6,38.3,7.7c23,8.9,42.1,24.3,52.3,44.7c10.2,19.1,12.8,40.9,5.1,58.7c-10.2,28.1-39.6,46-74,46c-1.3,0-5.1,0-5.1,0  l-5.1,17.9c0,0,56.7,4.7,89.4-34.5c14,7.7,48.5,33.2,66.4,85.5c-30.6,16.6-43.4,67.7-29.4,122.6l135.3-40.9  C485.9,280.1,447.6,244.4,413.1,248.2z M427.2,331.2c-19.1,5.1-35.7,0-39.6-11.5s8.9-25.5,28.1-30.6c19.1-5.1,35.7,0,39.6,11.5  S446.3,326.1,427.2,331.2z M506.3,344l-136.6,42.1c17.9,57.4,61.3,95.7,97,85.5C505.1,460.1,521.7,404,506.3,344z M459.1,428.2  c-19.1,5.1-35.7,0-39.6-11.5s8.9-25.5,28.1-30.6c19.1-5.1,35.7,0,39.6,11.5C489.7,409.1,478.3,423.1,459.1,428.2z"></path>
   </svg>