<?xml version="1.0" encoding="UTF-8" standalone="no"?><svg aria-hidden="true" focusable="false" data-prefix="ds" data-icon="water-walk" class="svg-inline--fa fa-water-walk fa-w-16 fa-fw Filter_ItemIcon__1Ial8" role="img" xmlns="http://www.w3.org/2000/svg" viewBox="0 0 512 512">
      <path fill="#FFFFFF" d="M89,98.6c14.1,0,26.9-14.1,38.4-19.2l0,0c11.5,5.1,24.3,19.2,38.4,19.2s26.9-14.1,38.4-19.2l0,0  c11.5,5.1,24.3,19.2,38.4,19.2c6.4,0,11.5-2.6,17.9-6.4l6.4-46.1c-7.7,5.1-15.4,10.2-23,10.2c-14.1,0-26.9-16.6-38.4-21.8  c-11.5,5.1-24.3,21.8-38.4,21.8s-26.9-16.6-38.4-21.8c-11.5,5.1-24.3,21.8-38.4,21.8c-9,0-17.9-5.1-25.6-11.5l6.4,46.1  C76.2,96,82.6,98.6,89,98.6z M505,486.4L446.1,375v-90.9l23,17.9v41c0,9,6.4,15.4,15.4,15.4l0,0c9,0,15.4-6.4,15.4-15.4v-56.3  l-53.8-42.2c-1.3-1.3-2.6-2.6-5.1-2.6c-1.3,0-1.3-1.3-2.6-1.3h-48.6c-1.3,0-1.3,0-2.6,0c-3.8,1.3-7.7,2.6-10.2,6.4l-61.4,94.7  c-5.1,7.7-2.6,16.6,5.1,21.8c2.6,1.3,5.1,2.6,7.7,2.6c5.1,0,10.2-2.6,12.8-7.7l41-64v70.4l-74.2,116.5c-5.1,7.7-2.6,19.2,5.1,24.3  c2.6,1.3,6.4,2.6,9,2.6c5.1,0,11.5-2.6,14.1-7.7l74.2-115.2l0,0L473,503c2.6,6.4,9,9,15.4,9c2.6,0,5.1-1.3,7.7-2.6  C507.5,505.6,510.1,495.4,505,486.4z M402.6,172.8c15.4,0,28.2,12.8,28.2,28.2s-12.8,28.2-28.2,28.2c-15.4,0-28.2-12.8-28.2-28.2  S387.2,172.8,402.6,172.8z M289.9,0l-43.5,337.9H83.9L37.8,0H4.5l49.9,369.9h221.4L323.2,0H289.9z"></path>
   </svg>