<?xml version="1.0" encoding="UTF-8" standalone="no"?><svg aria-hidden="true" focusable="false" data-prefix="ds" data-icon="car" class="svg-inline--fa fa-car fa-w-32 fa-fw Filter_ItemIcon__1Ial8" role="img" xmlns="http://www.w3.org/2000/svg" viewBox="0 0 512 262.5">
      <path fill="#FFFFFF" d="M512,192.6v8.6c0,7.5-6.5,14-15.1,14h-33.3c-3.2,31.2-23.7,47.3-55.9,47.3c-31.2,0-51.6-16.1-54.9-47.3H164.6  c-3.2,30.1-23.7,47.3-55.9,47.3c-31.2,0-50.6-16.1-54.9-47.3H15.1c-8.6,0-15.1-6.5-15.1-14v-8.6c0-7.5,6.5-15.1,15.1-15.1  C33.4,30.1,157.1,0,248.5,0c77.4,0,123.7,33.3,136.6,81.7c67.8,6.5,106.5,28,111.9,95.7C505.5,178.6,512,185.1,512,192.6   M87.1,205.5c0,15.1,8.6,22.6,22.6,22.6s22.6-7.5,22.6-22.6c0-14-8.6-22.6-22.6-22.6S87.1,191.5,87.1,205.5 M126.9,61.3  c-2.2,3.2-3.2,6.5-3.2,9.7c0,6.5,5.4,11.8,11.8,11.8H228c4.3,0,7.5-3.2,7.5-7.5V31.2c0-4.3-3.2-7.5-7.5-7.5  C190.4,24.7,144.1,35.5,126.9,61.3 M258.2,76.3c0,4.3,3.2,7.5,7.5,7.5h78.5c4.3,0,7.5-3.2,7.5-7.5c0-2.2,0-4.3-2.2-6.5  c-15.1-34.4-49.5-46.3-83.9-46.3c-4.3,0-7.5,3.2-7.5,7.5v45.3H258.2z M386.2,205.5c0,15.1,8.6,22.6,22.6,22.6s22.6-7.5,22.6-22.6  c0-14-8.6-22.6-22.6-22.6C394.8,182.8,386.2,191.5,386.2,205.5"></path>
   </svg>