<?xml version="1.0" encoding="UTF-8" standalone="no"?><svg aria-hidden="true" focusable="false" data-prefix="ds" data-icon="house-ceiling" class="svg-inline--fa fa-house-ceiling fa-w-16 fa-fw Filter_ItemIcon__1Ial8" role="img" xmlns="http://www.w3.org/2000/svg" viewBox="0 0 512 512">
      <path fill="#FFFFFF" d="M500.5,135.5L262.9,3.4c-4.6-2.3-11.5-2.3-16.1,0L8,135.5c-5.7,3.4-8,8-8,14.9v4.6c0,12.6,13.8,20.7,25.3,14.9l9.2-4.6  v329.5c0,9.2,8,17.2,17.2,17.2h4.6c1.1,0,1.1,0,2.3,0c1.1,0,1.1,0,2.3,0h390.3c1.1,0,1.1,0,2.3,0c1.1,0,1.1,0,2.3,0h4.6  c9.2,0,17.2-8,17.2-17.2V164.2l9.2,4.6c11.5,5.7,25.3-2.3,25.3-14.9v-4.6C509.7,144.6,506.3,138.9,500.5,135.5z M246.8,47.1  c4.6-2.3,11.5-2.3,16.1,0l174.5,96.4c0,1.1,0,2.3,0,2.3v326H72.3v-326c0-1.1,0-2.3,0-2.3L246.8,47.1z M365.1,146.9H144.6  c-24.1,0-43.6,19.5-43.6,43.6s19.5,43.6,43.6,43.6h220.4c24.1,0,43.6-19.5,43.6-43.6C407.5,165.3,388,146.9,365.1,146.9z"></path>
   </svg>