<?xml version="1.0" encoding="UTF-8" standalone="no"?><svg aria-hidden="true" focusable="false" data-prefix="ds" data-icon="chicken" class="svg-inline--fa fa-chicken fa-w-16 fa-fw Filter_ItemIcon__1Ial8" role="img" xmlns="http://www.w3.org/2000/svg" viewBox="0 0 512 512">
      <path fill="#FFFFFF" d="M419,247.5c0,0,0-91.6-138.8-91.6c-7.9,0-15.7,0-23.6,1.3C93,167.7,0.1,337.9,0.1,337.9L225.2,512  c39.3-123.1,184.6-158.4,184.6-158.4s18.3-3.9,40.6-3.9c19.6,0,41.9,2.6,61.5,13.1C513.3,362.8,502.8,279,419,247.5z M328.7,251.5  c-10.5,0-19.6-9.2-19.6-19.6c0-10.5,9.2-19.6,19.6-19.6c10.5,0,19.6,9.2,19.6,19.6C348.3,242.3,339.1,251.5,328.7,251.5z M254,136.3  c9.2,0,17-1.3,24.9-1.3c51.1,0,86.4,11.8,111.3,28.8c2.6-7.9,5.2-17,5.2-24.9c1.3-40.6-27.5-75.9-65.5-77.2c-6.5,0-13.1,0-19.6,2.6  c-3.9-35.3-31.4-62.8-65.5-64.2c-38-1.3-69.4,31.4-70.7,72c0,1.3,0,2.6,0,3.9c-1.3,0-2.6,0-3.9,0c-38-1.3-69.4,31.4-70.7,72  c0,14.4,2.6,28.8,9.2,40.6C149.3,161.1,197.7,140.2,254,136.3z M415.1,373.2c-1.3,0-73.3,18.3-127,73.3c14.4,17,34,27.5,57.6,27.5  c41.9,0,74.6-34,74.6-74.6C420.3,390.2,419,381.1,415.1,373.2C416.4,373.2,415.1,373.2,415.1,373.2z"></path>
   </svg>