<?xml version="1.0" encoding="UTF-8" standalone="no"?><svg aria-hidden="true" focusable="false" data-prefix="ds" data-icon="bed-children" class="svg-inline--fa fa-bed-children fa-w-23 fa-fw Filter_ItemIcon__1Ial8" role="img" xmlns="http://www.w3.org/2000/svg" viewBox="0 0 512 365.2">
      <path fill="#FFFFFF" d="M491.7,0c-12.3,0-21.3,10.1-21.3,21.3v38.1H180.3c4.5-4.5,6.7-10.1,6.7-16.8c0-14.6-11.2-25.8-25.8-25.8h-75  c-14.6,0-25.8,11.2-25.8,25.8c0,6.7,2.2,12.3,6.7,16.8H42.5V21.3C42.5,9,32.4,0,21.2,0C8.9,0,0,10.1,0,21.3v322.6  c0,11.2,10,21.3,21.2,21.3c12.3,0,21.3-10.1,21.3-21.3V289H336v54.9c0,12.3,10.1,21.3,21.3,21.3c12.3,0,21.3-10.1,21.3-21.3V289  h90.7v54.9c0,12.3,10.1,21.3,21.3,21.3c11.2,0,21.3-10.1,21.3-21.3V21.3C513,9,502.9,0,491.7,0z M470.4,155.7h-90.7v-40.3h90.7  L470.4,155.7L470.4,155.7z M179.2,234.1c4.5-4.5,6.7-10.1,6.7-16.8c0-14.6-11.2-25.8-25.8-25.8H86.2c-14.6,0-25.8,11.2-25.8,25.8  c0,6.7,2.2,12.3,6.7,16.8H42.5V114.3H336V233L179.2,234.1L179.2,234.1z M379.7,234.1v-37h90.7v37H379.7z"></path>
   </svg>