<?xml version="1.0" encoding="UTF-8" standalone="no"?><svg aria-hidden="true" focusable="false" data-prefix="ds" data-icon="radish-chopped" class="svg-inline--fa fa-radish-chopped fa-w-16 fa-fw Filter_ItemIcon__1Ial8" role="img" xmlns="http://www.w3.org/2000/svg" viewBox="0 0 512 512">
      <path fill="#FFFFFF" d="M54.1,294.3c-6.3-1.3-13.8,1.3-17.5,7.5c-1.3,1.3-2.5,2.5-2.5,5c-12.5,13.8-20,38.8-22.5,46.3c0,1.3,0,2.5,0,2.5  c-1.3,8.8-5,50.1,1.3,72.6c5,16.3,1.3,41.3-6.3,50.1c-8.8,8.8-8.8,20,0,27.5c3.8,3.8,8.8,6.3,13.8,6.3s10-1.3,13.8-5  c3.8-3.8,15-12.5,25-12.5h1.3c6.3,1.3,16.3,3.8,26.3,6.3c18.8,5,40,10,57.6,10l0,0c2.5,0,6.3,0,8.8,0c6.3,0,27.5-2.5,42.5-11.3  c1.3-1.3,2.5-1.3,3.8-2.5c5-3.8,7.5-10,7.5-16.3C209.3,315.5,55.4,294.3,54.1,294.3z M96.7,461.9c-11.3-2.5-22.5-5-31.3-6.3  c-2.5,0-5,0-6.3,0c-1.3,0-3.8,0-5,0c1.3-13.8,0-27.5-3.8-36.3c-2.5-10-2.5-33.8,0-51.3c16.3,30,42.5,71.3,80.1,101.4  C119.2,467,106.7,464.5,96.7,461.9z M510.8,34V24l-10-1.3c-2.5,0-63.8-11.3-136.4,45c-10,7.5-17.5,15-25,23.8  c-21.3-55.1-80.1-75.1-83.8-76.3l-6.3-3.8l-6.3,5c-2.5,1.3-47.5,46.3-30,121.4c11.3,50.1,50.1,75.1,75.1,87.6l-7.5,16.3  c-26.3-12.5-56.3-16.3-86.3-8.8c-8.8,2.5-17.5,5-25,8.8c-1.3,15,0,36.3,6.3,57.6c15,45,60.1,90.1,182.7,73.8c1.3-12.5,0-25-2.5-37.5  c-6.3-27.5-21.3-52.6-41.3-70.1l22.5-26.3c37.5-1.3,87.6-8.8,123.9-42.5C520.9,140.4,512.1,37.8,510.8,34z M311.9,195.4L268.1,84.1  l26.3,115.1c-20-10-46.3-30-55.1-66.3c-11.3-46.3,7.5-77.6,17.5-90.1c16.3,7.5,51.3,27.5,62.6,66.3  C326.9,142.9,319.4,175.4,311.9,195.4z M443.3,175.4c-27.5,25-66.3,32.5-93.8,35L452,77.8c0,0-76.3,75.1-108.9,107.6  c5-17.5,7.5-38.8,5-62.6l0,0c8.8-12.5,18.8-25,33.8-36.3c45-35,83.8-40,103.9-40c0,0,0,0,1.3,0C485.8,74,483.3,139.1,443.3,175.4z"></path>
   </svg>