<?xml version="1.0" encoding="UTF-8" standalone="no"?><svg aria-hidden="true" focusable="false" data-prefix="ds" data-icon="person-cleaning-floor" class="svg-inline--fa fa-person-cleaning-floor fa-w-16 fa-fw Filter_ItemIcon__1Ial8" role="img" xmlns="http://www.w3.org/2000/svg" viewBox="0 0 512 512">
      <path fill="#FFFFFF" d="M343.6,93c30.4-10.1,39.2-32.9,29.1-60.8S342.4-7,312,4.4c-30.4,10.1-39.2,31.6-29.1,60.8C293,93,314.5,104.4,343.6,93z   M19.6,377.8c8.9,0,15.2,6.3,15.2,15.2s-6.3,15.2-15.2,15.2S4.4,401.9,4.4,393S10.7,377.8,19.6,377.8z M57.5,422.1  c7.6,0,13.9,6.3,13.9,13.9S65.1,450,57.5,450s-13.9-6.3-13.9-13.9S49.9,422.1,57.5,422.1z M81.6,366.4c11.4,0,20.3,8.9,20.3,20.3  s-8.9,20.3-20.3,20.3s-20.3-8.9-20.3-20.3C61.3,375.3,70.2,366.4,81.6,366.4z M500.6,131c-16.5-13.9-86.1-39.2-86.1-39.2  s-13.9-3.8-30.4,1.3c-21.5,6.3-45.6,17.7-45.6,17.7s-8.9,8.9-13.9,16.5l-36.7,164.6c0,0-8.9,21.5,5.1,32.9l-54.4,41.8l12.7,15.2  l102.5-78.5c-5.1,39.2-48.1,168.4-48.1,168.4s-5.1,31.6,17.7,36.7c22.8,5.1,32.9-19,32.9-19l45.6-129.1l-1.3,122.8  c0,0-2.5,29.1,27.8,27.8s26.6-34.2,26.6-34.2l2.5-183.6c0,0-1.3-24.1-5.1-54.4l48.1-65.8C499.3,172.7,517.1,146.2,500.6,131z   M337.3,291.7l13.9-58.2c0,0,2.5,21.5,2.5,45.6L337.3,291.7z M443.6,182.9c-2.5-15.2-6.3-29.1-11.4-39.2l27.8,13.9L443.6,182.9z   M225.9,376.5L98,446.2c0,0,19,30.4,50.6,49.4l39.2-48.1l-20.3,58.2c10.1,3.8,20.3,6.3,31.6,6.3c0,0,1.3-78.5,43-116.5L225.9,376.5z  "></path>
   </svg>