<?xml version="1.0" encoding="UTF-8" standalone="no"?><svg aria-hidden="true" focusable="false" data-prefix="ds" data-icon="laptop" class="svg-inline--fa fa-laptop fa-w-16 fa-fw Filter_ItemIcon__1Ial8" role="img" xmlns="http://www.w3.org/2000/svg" viewBox="0 0 512 512">
      <path fill="#FFFFFF" d="M512,460.1c0,27.8-22.9,51.9-51.9,51.9H51.9C22.9,512,0,489.1,0,460.1v-10.9c0-7.2,6-14.5,14.5-14.5h193.2  c1.2,6,7.2,10.9,15.7,10.9h65.2c7.2,0,14.5-6,15.7-10.9h193.2c7.2,0,14.5,6,14.5,14.5V460.1z M420.2,103.8c29,0,51.9,22.9,51.9,51.9  v206.5c0,27.8-22.9,50.7-51.9,50.7H91.8c-29,0-50.7-22.9-50.7-50.7V155.8c0-29,21.7-51.9,50.7-51.9H420.2z M94.2,152.2  c-3.6,0-6,2.4-6,4.8v202.9c0,3.6,2.4,4.8,6,4.8h323.6c3.6,0,4.8-2.4,4.8-4.8V158.2c0-3.6-2.4-4.8-4.8-4.8H94.2V152.2z M245.1,128  c0,7.2,3.6,12.1,10.9,12.1c7.2,0,10.9-4.8,10.9-12.1c0-8.5-3.6-12.1-10.9-12.1C248.8,115.9,245.1,119.5,245.1,128"></path>
   </svg>