<?xml version="1.0" encoding="UTF-8" standalone="no"?><svg aria-hidden="true" focusable="false" data-prefix="ds" data-icon="cooking-utensils" class="svg-inline--fa fa-cooking-utensils fa-w-16 fa-fw Filter_ItemIcon__1Ial8" role="img" xmlns="http://www.w3.org/2000/svg" viewBox="0 0 512 512">
      <path fill="#FFFFFF" d="M11.8,444.7c-15.7,15.7-15.7,39.9,0,55.6c15.7,15.7,39.9,15.7,55.6,0l151.1-149.6l-55.6-57L11.8,444.7z M234.1,280.8  C234.1,280.8,234.1,282.2,234.1,280.8C234.1,282.2,234.1,282.2,234.1,280.8l1.4,1.4c11.4,11.4,28.5,17.1,49.9,17.1  c51.3,0,124-35.6,173.9-85.5c31.4-31.4,48.5-64.1,51.3-95.5c1.4-29.9-8.6-57-31.4-79.8c-21.4-21.4-47-32.8-74.1-32.8  c-34.2,0-68.4,17.1-101.2,49.9c-32.8,31.4-59.9,75.5-75.5,116.9c-17.1,47-15.7,84.1,4.3,105.5C232.7,280.8,232.7,280.8,234.1,280.8z   M459.3,58.4L459.3,58.4L459.3,58.4c2.9,2.9,1.4,11.4-4.3,24.2c-10,18.5-29.9,42.8-58.4,71.3c-55.6,54.2-116.9,99.8-141.1,106.9  c8.6-22.8,52.7-84.1,109.7-139.7c58.4-58.4,84.1-62.7,91.2-62.7C457.9,57,459.3,57,459.3,58.4z M483.5,118.3  c-1.4,25.7-17.1,51.3-44.2,78.4c-44.2,44.2-109.7,77-153.9,77c39.9-22.8,94.1-68.4,129.7-102.6c29.9-29.9,51.3-55.6,62.7-77  c1.4-1.4,1.4-2.9,1.4-4.3C483.5,98.3,485,108.3,483.5,118.3z M321.1,75.5c28.5-28.5,57-42.8,84.1-42.8c8.6,0,17.1,1.4,24.2,4.3  c-22.8,10-49.9,31.4-82.7,64.1c-31.4,31.4-64.1,68.4-86.9,101.2c-7.1,10-12.8,20-18.5,27.1c0-12.8,4.3-28.5,10-47  C265.5,145.4,291.1,105.5,321.1,75.5z M512,382c0-28.5-51.3-39.9-101.2-39.9c-42.8,0-85.5,8.6-98.3,28.5L31.7,91.2l-21.4,21.4l0,0  l-4.3,4.3c-7.1,7.1-7.1,20,0,27.1l89.8,89.8c7.1,7.1,20,7.1,27.1,0l4.3-4.3L304,406.2c11.4,45.6,51.3,78.4,99.8,78.4  c52.7,0,96.9-39.9,102.6-92.6C510.6,390.5,512,386.2,512,382z M409.4,366.3c47,0,72.7,11.4,77,17.1c-4.3,5.7-29.9,17.1-77,17.1  c-47,0-72.7-11.4-77-17.1C336.7,377.7,362.4,366.3,409.4,366.3z"></path>
   </svg>