<?xml version="1.0" encoding="UTF-8" standalone="no"?><svg aria-hidden="true" focusable="false" data-prefix="ds" data-icon="cooking-pot" class="svg-inline--fa fa-cooking-pot fa-w-16 fa-fw Filter_ItemIcon__1Ial8" role="img" xmlns="http://www.w3.org/2000/svg" viewBox="0 0 512 512">
      <path fill="#FFFFFF" d="M483.7,288.9H50.2c-8.1,0-15,6.9-15,15l0,0c0,8.1,6.9,15,15,15h40.5v128.3c0,35.8,28.9,64.7,64.7,64.7h222  c35.8,0,64.7-28.9,64.7-64.7V318.9h40.5c8.1,0,15-6.9,15-15l0,0C498.7,295.8,491.8,288.9,483.7,288.9z M384.3,205.6l-47.4-5.8  c1.2-13.9-4.6-27.7-15-39.3c-10.4-11.6-25.4-18.5-41.6-20.8c-33.5-3.5-63.6,16.2-68.2,43.9l-48.6-5.8c-31.2-3.5-59,15-69.4,43.9  l346.8,42.8C438.6,234.5,415.5,209.1,384.3,205.6z M237.4,187.1c2.3-13.9,20.8-24.3,40.5-22c10.4,1.2,19.7,5.8,26.6,12.7  c5.8,5.8,8.1,12.7,8.1,18.5L237.4,187.1z M84.8,263.4c-42.3-32.9-54.8-58.3-54.3-77.8c1.1-41.3,79.7-56.4,79.7-56.4  S87.6,45.3,190,25.3c128.1-25.1,157.2,70.5,159.5,77.5c0-8.1-10.7-114-163-101.7C178.4,1.6,82,10.3,82.5,114.3  c-5.8,2.3-68.1,25-68.2,71.7C14.2,220.3,76.2,265.8,84.8,263.4z"></path>
   </svg>