<?xml version="1.0" encoding="UTF-8" standalone="no"?><svg aria-hidden="true" focusable="false" data-prefix="ds" data-icon="cutlery" class="svg-inline--fa fa-cutlery fa-w-16 fa-fw Filter_ItemIcon__1Ial8" role="img" xmlns="http://www.w3.org/2000/svg" viewBox="0 0 512 512">
      <path fill="#FFFFFF" d="M296.7,124.9c0,8-5.7,13.7-13.7,13.7s-13.7-5.7-13.7-13.7V9.2h-29.8v115.7c0,8-5.7,13.7-13.7,13.7c-8,0-13.7-5.7-13.7-13.7  V9.2h-27.5v132.9c0,28.6,17.2,53.8,42.4,64.1v281.8c0,13.7,10.3,24.1,24.1,24.1h10.3c13.7,0,24.1-10.3,24.1-24.1V205.1  c22.9-11.5,38.9-35.5,38.9-63V9.2h-28.6v115.7H296.7z M453.6,11.5L453.6,11.5C453.6,12.6,452.4,12.6,453.6,11.5  c-30.9,1.1-56.1,25.2-56.1,56.1v148.9c0,29.8,24.1,55,55,55h1.1v216.5c0,13.7,10.3,24.1,24.1,24.1h10.3c13.7,0,24.1-10.3,24.1-24.1  V11.5H453.6z M74.5,11.5h-9.2c0,0-65.3,11.5-65.3,96.2c0,0-2.3,45.8,29.8,77.9c30.9,32.1,20.6,87,20.6,87L39,478.8  c0,0-1.1,33.2,25.2,33.2h11.5c26.3,0,25.2-33.2,25.2-33.2L89.4,272.6c0,0-10.3-55,20.6-87s29.8-77.9,29.8-77.9  C139.8,22.9,74.5,11.5,74.5,11.5z"></path>
   </svg>