<?xml version="1.0" encoding="UTF-8" standalone="no"?><svg aria-hidden="true" focusable="false" data-prefix="ds" data-icon="diaper" class="svg-inline--fa fa-diaper fa-w-16 fa-fw Filter_ItemIcon__1Ial8" role="img" xmlns="http://www.w3.org/2000/svg" viewBox="0 0 512 512">
      <path fill="#FFFFFF" d="M511.6,265.6l-1.1-9.2c-4.6-29.8-9.2-63-14.9-88.2c-9.2-42.4-37.8-68.8-87.1-79.1c-6.9-2.3-63-17.2-130.6-17.2h-41.3  c-68.8,0-123.8,14.9-130.6,17.2c-50.4,10.3-79.1,36.7-89.4,79.1c-5.7,25.2-10.3,58.4-14.9,87.1l-1.1,10.3  c-2.3,16,4.6,33.2,18.3,41.3c40.1,25.2,73.3,75.6,79.1,105.4C118.5,512,219.3,512,252.6,512h6.9c33.2,0,134.1,0,153.6-99.7  c5.7-29.8,39-80.2,79.1-105.4C507,298.8,513.9,281.6,511.6,265.6z M455.4,177.4c4.6,20.6,9.2,48.1,12.6,73.3  c-18.3-10.3-43.5-20.6-71.1-26.4l6.9-95.1C434.8,137.2,449.7,151,455.4,177.4z M107,129.2l6.9,95.1c-27.5,5.7-52.7,16-71.1,26.4  c3.4-25.2,8-52.7,12.6-73.3C62.3,151,77.2,137.2,107,129.2z M60,287.4c14.9-8,35.5-18.3,58.4-22.9l8,106.6  C111.6,341.2,87.5,310.3,60,287.4z M252.6,471.9c-35.5,0-60.7-4.6-79.1-14.9l-26.4-335.8c21.8-3.4,53.9-8,88.2-8h41.3  c34.4,0,66.5,4.6,88.2,8L338.5,457c-18.3,10.3-44.7,14.9-79.1,14.9H252.6z M385.5,371l8-106.6c22.9,4.6,43.5,14.9,58.4,22.9  C424.5,310.3,400.4,341.2,385.5,371z M191.8,160.2c-2.3,12.6-6.9,30.9-10.3,41.3l10.3-1.1c4.6-8,12.6-27.5,16-42.4L191.8,160.2z   M206.7,201.4l10.3-1.1c4.6-8,12.6-27.5,16-42.4l-16,1.1C215.9,172.8,211.3,191.1,206.7,201.4z"></path>
   </svg>