<?xml version="1.0" encoding="UTF-8" standalone="no"?><svg aria-hidden="true" focusable="false" data-prefix="ds" data-icon="medication" class="svg-inline--fa fa-medication fa-w-25 fa-fw Filter_ItemIcon__1Ial8" role="img" xmlns="http://www.w3.org/2000/svg" viewBox="0 0 512 340.5">
      <path fill="#FFFFFF" d="M361.1,0c-83.3,0-152.2,67.6-152.2,152.2c0,1.2,0,2.4,0,2.4h31.4c1.2,0,2.4,0,3.6,0c0-1.2,0-2.4,0-3.6  c0-61.6,47.1-111.1,107.5-115.9v231.8c-4.8,0-8.5-1.2-13.3-1.2c-1.2,12.1-4.8,22.9-10.9,33.8c10.9,2.4,21.7,3.6,32.6,3.6  c83.3,0,152.2-67.6,152.2-152.2C512,67.6,444.4,0,361.1,0z M369.5,266.8V35C429.9,39.8,477,89.3,477,150.9S429.9,263.2,369.5,266.8z   M240.3,166.6H86.9c-48.3,0-86.9,38.7-86.9,87s38.6,86.9,86.9,86.9h153.4c48.3,0,86.9-38.6,86.9-86.9S288.6,166.6,240.3,166.6z   M275.3,229.4c-1.2,2.4-4.8,3.6-7.2,3.6c-2.4,0-3.6-1.2-6-2.4c-13.3-10.9-30.2-10.9-31.4-10.9H163v85.8H86.9  c-28.9,0-51.9-23-51.9-51.9c0-29,22.9-51.9,51.9-51.9h143.7c1.2,0,24.2-1.2,43.5,14.5C277.7,219.7,277.7,225.8,275.3,229.4z"></path>
   </svg>