<?xml version="1.0" encoding="UTF-8" standalone="no"?><svg aria-hidden="true" focusable="false" data-prefix="ds" data-icon="dish-brush" class="svg-inline--fa fa-dish-brush fa-w-16 fa-fw Filter_ItemIcon__1Ial8" role="img" xmlns="http://www.w3.org/2000/svg" viewBox="0 0 512 512">
      <path fill="#FFFFFF" d="M454.1,5.1c-55.3,18.9-84.3,83-112,129.6c-32.7,54.1-42.8,110.7-81.8,159.8c-12.6,16.4-27.7,31.4-49.1,35.2  c-15.1,3.8-47.8,3.8-62.9,7.5c-32.7,8.8-67.9,28.9-79.2,62.9c-11.3,35.2,34,37.7,59.1,37.7c46.5-1.3,94.3-16.4,132.1-45.3  c30.2-22.6,50.3-84.3,67.9-117c28.9-51.6,64.2-106.9,108.2-148.4c22.6-21.4,76.7-52.8,75.5-89.3C513.2,10.1,479.3-3.7,454.1,5.1z   M475.5,61.7c-10.1,2.5-20.1-3.8-22.6-13.8s3.8-20.1,13.8-22.6S486.8,29,489.3,39C491.8,50.4,485.6,59.2,475.5,61.7z M157.2,320.8  c8.8,0,15.1-6.3,15.1-15.1v-28.9c0-8.8-6.3-15.1-15.1-15.1c-8.8,0-15.1,6.3-15.1,15.1v28.9C142.1,313.3,148.4,320.8,157.2,320.8z   M99.4,322.1c2.5,6.3,7.5,10.1,13.8,10.1c1.3,0,3.8,0,5-1.3c7.5-2.5,12.6-11.3,10.1-18.9l-10.1-26.4c-2.5-7.5-11.3-12.6-18.9-10.1  c-7.5,2.5-12.6,11.3-10.1,18.9L99.4,322.1z M69.2,352.2c2.5,2.5,6.3,5,11.3,5c3.8,0,7.5-1.3,10.1-3.8c6.3-6.3,6.3-15.1,0-21.4  l-20.1-21.4c-6.3-6.3-15.1-6.3-21.4,0c-6.3,6.3-6.3,15.1,0,21.4L69.2,352.2z M16.4,372.4l25.2,13.8c2.5,1.3,5,1.3,7.5,1.3  c5,0,10.1-2.5,13.8-7.5c3.8-7.5,1.3-16.4-6.3-20.1L31.4,346c-7.5-3.8-16.4-1.3-20.1,6.3C6.3,359.8,8.8,368.6,16.4,372.4z   M57.9,413.9c-1.3-8.8-8.8-13.8-16.4-13.8l-27.7,3.8C5,405.1,0,412.6,0,420.2c1.3,7.5,7.5,13.8,15.1,13.8h1.3l27.7-3.8  C52.8,429,57.9,421.4,57.9,413.9z M69.2,440.3c-6.3-5-16.4-3.8-21.4,3.8l-16.4,22.6c-5,6.3-3.8,16.4,3.8,21.4  c2.5,2.5,6.3,2.5,8.8,2.5c5,0,8.8-2.5,12.6-6.3L73,461.7C76.7,455.4,75.5,445.3,69.2,440.3z M109.4,454.1  c-8.8-1.3-16.4,3.8-17.6,12.6l-5,27.7c-1.3,8.8,3.8,16.4,12.6,17.6c1.3,0,1.3,0,2.5,0c7.5,0,13.8-5,15.1-12.6l5-27.7  C123.3,462.9,118.2,455.4,109.4,454.1z M166,464.2c-1.3-8.8-8.8-13.8-16.4-13.8c-8.8,1.3-13.8,8.8-13.8,16.4l2.5,27.7  c1.3,7.5,7.5,13.8,15.1,13.8h1.3c8.8-1.3,13.8-8.8,13.8-16.4L166,464.2z M210.1,455.4c-2.5-7.5-10.1-12.6-18.9-11.3  c-7.5,2.5-12.6,10.1-11.3,18.9l7.5,27.7c1.3,6.3,7.5,11.3,15.1,11.3c1.3,0,2.5,0,3.8,0c7.5-2.5,12.6-10.1,11.3-18.9L210.1,455.4z   M251.6,439c-3.8-7.5-12.6-11.3-20.1-7.5c-7.5,3.8-11.3,12.6-7.5,20.1l11.3,26.4c2.5,6.3,7.5,8.8,13.8,8.8c2.5,0,3.8,0,6.3-1.3  c7.5-3.8,11.3-12.6,7.5-20.1L251.6,439z"></path>
   </svg>