<?xml version="1.0" encoding="UTF-8" standalone="no"?><svg aria-hidden="true" focusable="false" data-prefix="ds" data-icon="dishwasher" class="svg-inline--fa fa-dishwasher fa-w-16 fa-fw Filter_ItemIcon__1Ial8" role="img" xmlns="http://www.w3.org/2000/svg" viewBox="0 0 512 512">
      <path fill="#FFFFFF" d="M456.2,172.9H51.3l-17.8,23.4h442.8L456.2,172.9z M323.5,213.1l-5.6,25.7H206.4l-5.6-25.7H30.1l81.4,227.6h288.9l81.4-227.6  C481.9,213.1,323.5,213.1,323.5,213.1z M94.8,244.3c-5.6,0-10-4.5-10-10s4.5-10,10-10c5.6,0,10,4.5,10,10  C104.9,239.8,100.4,244.3,94.8,244.3z M135,244.3c-5.6,0-10-4.5-10-10s4.5-10,10-10c5.6,0,10,4.5,10,10S140.5,244.3,135,244.3z   M114.9,94.8c1.1-10,12.3-13.4,12.3-13.4h252.1c12.3,0,13.4,11.2,13.4,11.2v54.7h34.6V52.4L375.9,0H138.3L83.7,51.3l-1.1,95.9h32.3  C114.9,147.2,114.9,94.8,114.9,94.8z M391.5,461.8H118.2c-3.3,0-5.6,2.2-5.6,5.6v39c0,3.3,2.2,5.6,5.6,5.6h272.2  c3.3,0,5.6-2.2,5.6-5.6v-39C397.1,464,393.8,461.8,391.5,461.8z"></path>
   </svg>