<?xml version="1.0" encoding="UTF-8" standalone="no"?><svg aria-hidden="true" focusable="false" data-prefix="ds" data-icon="dishwashing-soap" class="svg-inline--fa fa-dishwashing-soap fa-w-16 fa-fw Filter_ItemIcon__1Ial8" role="img" xmlns="http://www.w3.org/2000/svg" viewBox="0 0 512 512">
      <path fill="#FFFFFF" d="M423.1,248.8c-3.3-14.4,3.3-31,5.5-37.6c3.3-6.6,11.1-24.3,14.4-40.9c4.4-17.7-37.6-53.1-48.7-57.5  c-7.7-3.3-13.3-4.4-13.3-4.4s-1.1,0-2.2-1.1c-2.2-5.5,0-10,0-10c3.3-2.2,6.6-5.5,6.6-11.1v-7.7c0-3.1-1-6.3-3.9-8.5  c1.2,0.7,3.1,0.7,5,0.7c5.5,0,10-4.4,10-10V11.1c0-5.5-4.4-10-10-10c-5.5,0-10,4.4-10,10v5.5c-4.4,1.1-8.8,5.5-8.8,10v17.7  c0,5.5,3.3,8.8,8.8,10v1.1c-3.3,0-5.5,3.3-5.5,6.6c0,1.1,0,3.3,1.1,3.3h-16.6v-8.8c0-1.1-1.1-3.3-3.3-3.3h-10  c-1.1,0-3.3,1.1-3.3,3.3v7.7h-16.6c-6.6,0-12.2,5.5-12.2,12.2V84c0,4.4,2.2,8.8,6.6,11.1c0,0,2.2,4.4,0,10c0,1.1-2.2,1.1-2.2,1.1  s-5.5,1.1-13.3,4.4c-7.7,3.3-49.8,38.7-48.7,57.5c1.1,16.6,11.1,34.3,14.4,40.9c3.3,6.6,8.8,23.2,5.5,37.6c-3.3,14.4-21,63-21,142.7  c0,78.5,4.4,101.7,17.7,109.5c19,13.3,78.5,13.3,78.5,13.3s63.6,0,78.5-13.3c13.3-6.6,17.7-28.8,17.7-107.3  C444.1,311.8,426.4,263.2,423.1,248.8z M404.3,430.2c-6.6,4.4-31,7.7-45.3,7.7h-12.2h-10c-13.3,0-38.7-4.4-45.3-7.7  c-7.7-4.4-7.7-29.9-7.7-49.8c0-33.2,3.3-48.7,7.7-65.2c1.1-5.5,5.5-10,10-13.3c13.3-6.6,28.8-11.1,45.3-11.1s33.2,4.4,46.4,11.1  c5.5,2.2,8.8,7.7,10,13.3c4.4,16.6,7.7,32.1,7.7,65.2C412,400.3,412,424.6,404.3,430.2z M114.4,92.9c-25.7,0-46.4,20.8-46.4,46.4  s20.8,46.4,46.4,46.4s46.4-20.8,46.4-46.4S140,92.9,114.4,92.9z M114.4,164.1c-13.7,0-24.8-11.1-24.8-24.8s11.1-24.8,24.8-24.8  s24.8,11.1,24.8,24.8S128,164.1,114.4,164.1z M217.3,69.1c-17.5,0-31.6,14.2-31.6,31.6c0,17.5,14.2,31.6,31.6,31.6  c17.5,0,31.6-14.2,31.6-31.6C248.9,83.3,234.8,69.1,217.3,69.1z M217.3,110.8c-5.6,0-10.1-4.5-10.1-10.1s4.5-10.1,10.1-10.1  s10.1,4.5,10.1,10.1S222.9,110.8,217.3,110.8z M141.1,0c-20.2,0-36.5,16.3-36.5,36.5S120.9,73,141.1,73c20.2,0,36.5-16.3,36.5-36.5  S161.2,0,141.1,0z M141.1,51.4c-8.2,0-14.9-6.7-14.9-14.9c0-8.2,6.7-14.9,14.9-14.9c8.2,0,14.9,6.7,14.9,14.9  C155.9,44.7,149.3,51.4,141.1,51.4z"></path>
   </svg>