<?xml version="1.0" encoding="UTF-8" standalone="no"?><svg aria-hidden="true" focusable="false" data-prefix="ds" data-icon="water-drink" class="svg-inline--fa fa-water-drink fa-w-16 fa-fw Filter_ItemIcon__1Ial8" role="img" xmlns="http://www.w3.org/2000/svg" viewBox="0 0 512 512">
      <path fill="#FFFFFF" d="M474.8,92H327.4c-5.5-10-14.4-17.7-25.5-22.2V39.9h12.2c4.4,10,14.4,16.6,25.5,16.6c15.5,0,27.7-12.2,27.7-27.7  S355.1,1.1,339.6,1.1c-11.1,0-21.1,6.6-25.5,16.6h-16.6c-3.3-4.4-8.9-6.6-14.4-6.6c-5.5,0-11.1,2.2-14.4,6.6h-18.8  C245.4,7.8,235.4,0,223.3,0c-15.5,0-27.7,12.2-27.7,27.7s12.2,27.7,27.7,27.7c11.1,0,21.1-6.6,25.5-16.6H262v31  c-10,4.4-18.8,12.2-24.4,21.1h-17.7c-54.3,0-98.6,44.3-98.6,98.6v12.2c0,4.4,3.3,7.8,7.8,7.8h38.8c4.4,0,7.8-3.3,7.8-7.8v-11.1  c0-24.4,19.9-44.3,44.3-44.3h19.9c8.9,13.3,24.4,22.2,42.1,22.2s33.2-8.9,42.1-22.2h149.6c4.4,0,7.8-3.3,7.8-7.8v-37.7  C482.6,96.4,479.3,92,474.8,92z M229.9,259.3c-10-1.1-18.8,6.6-19.9,16.6l-5.5,56.5c-2.2,1.1-3.3,2.2-5.5,2.2  c-11.1,0-21.1-21.1-29.9-27.7l0,0c-8.9,7.8-18.8,27.7-29.9,27.7S118,313.6,109.1,307l0,0C98,313.6,88,334.7,77,334.7  c-1.1,0-3.3,0-4.4-1.1L67,271.5c-1.1-10-10-17.7-19.9-16.6c-10,1.1-17.7,10-16.6,19.9L53.7,512h171.8l21.1-232.7  C246.5,269.3,239.9,260.4,229.9,259.3z M86.9,475.4L77,369h1.1c11.1,0,21.1-17.7,31-24.4l0,0c8.9,7.8,18.8,24.4,29.9,24.4  c11.1,0,21.1-17.7,29.9-24.4l0,0c8.9,7.8,18.8,24.4,29.9,24.4c1.1,0,1.1,0,2.2,0l-10,106.4C191.1,475.4,86.9,475.4,86.9,475.4z   M167.8,269.3c0-13.3-8.9-22.2-15.5-38.8c0-1.1-1.1-2.2-3.3-2.2c-1.1,0-2.2,1.1-3.3,2.2c-6.6,16.6-15.5,25.5-15.5,38.8  c0,14.4,7.8,22.2,18.8,22.2C160.1,290.4,167.8,283.7,167.8,269.3z"></path>
   </svg>