<?xml version="1.0" encoding="UTF-8" standalone="no"?><svg aria-hidden="true" focusable="false" data-prefix="ds" data-icon="dish-rack" class="svg-inline--fa fa-dish-rack fa-w-16 fa-fw Filter_ItemIcon__1Ial8" role="img" xmlns="http://www.w3.org/2000/svg" viewBox="0 0 512 512">
      <path fill="#FFFFFF" d="M504.6,483.6l-29.4-18.5l-9.8-78.5l0,0l-4.4-38.2c9.8-26.2,15.3-56.7,15.3-90.5c0-98.2-48-175.6-110.1-175.6  c-14.2,0-28.4,4.4-40.4,12c-12-7.6-26.2-12-40.4-12c-56.7,0-101.4,65.4-109.1,151.6c-6.5,0-13.1,2.2-18.5,5.5  c-4.4,2.2-8.7,5.5-12,8.7c-5.5-4.4-10.9-8.7-18.5-10.9c-14.2-4.4-27.3-4.4-40.4,2.2c-22.9,12-32.7,40.4-34.9,45.8  c0,1.1,0,2.2-1.1,2.2l-9.8,56.7H18.3c-8.7,0-15.3,5.5-17.4,13.1s0,16.4,7.6,20.7l19.6,13.1c6.5,4.4,14.2,5.5,21.8,2.2  c7.6-3.3,12-9.8,13.1-17.4l1.1-7.6h1.1l32.7,22.9c6.5,4.4,14.2,5.5,21.8,2.2c7.6-3.3,12-9.8,13.1-17.4l1.1-8.7l0,0l25.1,17.4  l9.8,82.9c1.1,6.5,4.4,13.1,9.8,16.4l37.1,24c4.4,3.3,9.8,4.4,15.3,4.4h265c7.6,0,13.1-4.4,15.3-12  C513.4,494.6,511.2,486.9,504.6,483.6z M122.9,284.1c0,1.1-1.1,2.2-1.1,3.3l-9.8,56.7H68.4l8.7-52.3c2.2-8.7,9.8-25.1,21.8-30.5  c5.5-3.3,13.1-3.3,20.7-1.1c4.4,1.1,7.6,4.4,10.9,6.5C126.2,275.3,124,281.9,122.9,284.1z M146.9,346.2c-2.2-2.2-5.5-2.2-7.6-2.2  l7.6-48c3.3,12,5.5,22.9,6.5,30.5l3.3,26.2L146.9,346.2z M366.1,102c49.1,0,89.4,69.8,89.4,155.9c0,66.5-24,123.2-57.8,146.1  l-8.7-79.6c0,0,0-2.2,0-4.4c4.4-19.6,6.5-40.4,6.5-62.2c0-38.2-7.6-73.1-19.6-101.4c15.3,12,34.9,48,34.9,101.4  c0,3.3,2.2,5.5,5.5,5.5s5.5-2.2,5.5-5.5c0-62.2-27.3-111.2-51.3-115.6c-7.6-14.2-16.4-26.2-26.2-34.9C350.9,103,358.5,102,366.1,102  z M285.4,102c49.1,0,89.4,69.8,89.4,155.9c0,60-19.6,112.3-49.1,138.5l-7.6-72c0-3.3-5.5-72-50.2-87.2c-14.2-4.4-27.3-4.4-40.4,2.2  c-4.4,2.2-8.7,5.5-12,8.7c-5.5-4.4-10.9-8.7-18.5-10.9H196C202.6,160.8,240.7,102,285.4,102z M373.8,412.8c-2.2,0-4.4,1.1-7.6,1.1  c-7.6,0-15.3-2.2-22.9-5.5c9.8-9.8,18.5-21.8,26.2-34.9L373.8,412.8z M228.7,377.9c-7.6-10.9-14.2-24-19.6-38.2l7.6-43.6  c3.3,12,5.5,22.9,6.5,30.5L228.7,377.9z M201.5,267.7c-2.2,3.3-3.3,6.5-4.4,8.7c0-4.4,0-8.7-1.1-12  C198.2,264.4,199.3,265.5,201.5,267.7z M181.8,356.1l-3.3-32.7c0-2.2-2.2-31.6-16.4-56.7c2.2-2.2,5.5-4.4,7.6-6.5  c2.2-1.1,4.4-2.2,6.5-2.2c0,26.2,3.3,50.2,9.8,72L181.8,356.1z M230.9,488h-1.1l-36-22.9l-7.6-68.7c1.1,0,2.2-1.1,4.4-1.1  c7.6-3.3,12-9.8,13.1-17.4v-2.2c8.7,15.3,18.5,27.3,29.4,37.1l6.5,56.7c1.1,6.5,4.4,13.1,9.8,16.4l4.4,3.3h-22.9V488z M248.4,323.3  c0-2.2-2.2-31.6-16.4-56.7c2.2-2.2,5.5-4.4,7.6-6.5c5.5-3.3,13.1-3.3,20.7-1.1c24,8.7,32.7,50.2,33.8,65.4l9.8,84  c-5.5,2.2-10.9,3.3-17.4,3.3c-9.8,0-19.6-3.3-28.4-7.6L248.4,323.3z M300.7,488l-37.1-24l-4.4-36c8.7,3.3,16.4,4.4,26.2,4.4  c6.5,0,13.1-1.1,19.6-3.3l4.4,38.2c1.1,6.5,4.4,13.1,9.8,16.4l4.4,3.3L300.7,488L300.7,488z M371.6,488l-37.1-24l-4.4-40.4  c10.9,6.5,24,9.8,36,9.8c3.3,0,6.5,0,9.8-1.1l4.4,36c1.1,6.5,4.4,13.1,9.8,16.4l4.4,3.3H371.6z M441.4,488l-37.1-24l-4.4-39.3  c15.3-7.6,28.4-20.7,40.4-37.1v1.1l0,0l9.8,79.6c1.1,6.5,4.4,13.1,9.8,16.4l4.4,3.3C464.3,488,441.4,488,441.4,488z M285.4,152.1  c15.3,0,44.7,40.4,44.7,105.8c0,3.3,2.2,5.5,5.5,5.5c3.3,0,5.5-2.2,5.5-5.5c0-65.4-29.4-115.6-54.5-115.6c-3.3,0-5.5,2.2-5.5,5.5  C281.1,149.9,283.3,152.1,285.4,152.1z"></path>
   </svg>