<?xml version="1.0" encoding="UTF-8" standalone="no"?><svg aria-hidden="true" focusable="false" data-prefix="ds" data-icon="earring" class="svg-inline--fa fa-earring fa-w-16 fa-fw Filter_ItemIcon__1Ial8" role="img" xmlns="http://www.w3.org/2000/svg" viewBox="0 0 512 512">
      <path fill="#FFFFFF" d="M131.8,274.3c-6.5,2.2-10.8,8.6-8.6,15.1c1.1,5.4,6.5,9.7,11.8,9.7c1.1,0,2.2,0,3.2,0c19.4-5.4,57-25.8,58.1-67.8  c0-5.4,0-9.7-1.1-14c11.8-5.4,28-20.4,24.7-47.3c-3.2-24.7-29-25.8-36.6-25.8l1.1-1.1c19.4-28,46.3-37.6,72.1-28  s26.9,36.6,25.8,51.6c-2.2,20.4-10.8,29-26.9,39.8c-5.4,3.2-7.5,11.8-4.3,17.2c3.2,5.4,11.8,7.5,17.2,4.3  c17.2-10.8,34.4-24.7,38.7-58.1c4.3-36.6-11.8-65.6-40.9-77.4c-37.6-14-75.3-1.1-102.2,36.6c-19.4,28-9.7,50.6-1.1,69.9  c4.3,10.8,9.7,21.5,9.7,33.3C170.5,263.5,132.8,273.2,131.8,274.3z M241.5,0c-79.6,0-115.1,46.3-116.2,48.4  c-4.3,5.4-3.2,12.9,2.2,17.2c5.4,4.3,12.9,3.2,17.2-2.2c1.1-1.1,30.1-38.7,96.8-38.7c68.8,0,126.9,55.9,126.9,122.6  c0,46.3-15.1,82.8-45.2,107.6l-2.2,1.1c-14,11.8-43,35.5-61.3,87.1c-1.1,2.2-1.1,3.2-2.2,5.4c9.7,3.2,17.2,7.5,22.6,11.8  c1.1-3.2,2.2-5.4,3.2-8.6c15.1-44.1,39.8-64.5,52.7-75.3l2.2-1.1c36.6-30.1,54.9-73.1,54.9-126.9C393.1,67.8,324.3,0,241.5,0z   M222.1,353.9c-11.8,1.1-20.4,10.8-20.4,22.6c1.1,11.8,10.8,20.4,22.6,20.4c20.4-1.1,36.6,14,37.6,34.4c1.1,19.4-14,36.6-34.4,37.6  c-9.7,0-18.3-3.2-25.8-9.7c-5.4-4.3-8.6-9.7-9.7-16.1c1.1,0,3.2,0,4.3,0c23.7,0,40.9-8.6,53.8-22.6c-6.5-8.6-16.1-11.8-21.5-14  c-8.6,7.5-18.3,10.8-31.2,10.8c-51.6,0-52.7-51.6-52.7-53.8c0-6.5-5.4-12.9-12.9-12.9c-6.5,0-12.9,5.4-12.9,12.9  c0,20.4,8.6,47.3,30.1,64.5c-1.1,2.2-1.1,5.4-1.1,8.6c1.1,21.5,9.7,40.9,25.8,54.9c15.1,12.9,33.3,20.4,52.7,20.4c1.1,0,2.2,0,4.3,0  c43-2.2,77.4-38.7,75.3-82.8C302.8,386.2,265.1,351.7,222.1,353.9z"></path>
   </svg>