<?xml version="1.0" encoding="UTF-8" standalone="no"?><svg aria-hidden="true" focusable="false" data-prefix="ds" data-icon="plate-dinner" class="svg-inline--fa fa-plate-dinner fa-w-21 fa-fw Filter_ItemIcon__1Ial8" role="img" xmlns="http://www.w3.org/2000/svg" viewBox="0 0 512 394.8">
      <path fill="#FFFFFF" d="M476.6,373l2.2-116.9c0,0,0-20.8-11.3-31.6c-11.3-10.9-19.6-7.6-18.7-25l6.1-98.9c0,0,11.7-37.8,48.1-46.3  c0,0,8.5-0.5,8.5,5.7l0.5,320.6c0,0-1.9,14.2-18.9,14.2C476.1,394.7,476.6,379.1,476.6,373z M83.5,73.4c0,0-1.2-7.8-5.8-7.8  s-6.4,7.8-6.4,7.8c-0.5,1.5-2.6,70.8-2.6,70.8s0.6,9.9-7.2,9.9s-7.6-10.9-7.6-10.9l-4.3-68.4c0,0-1.4-9.2-6-9.2s-6,7.8-6,7.8  l-3.1,70.5c0,0,1.1,10.7-8.4,10.8c-8,0-8-11.1-8-11.1l-3.9-69.1c0,0-0.5-7.3-6-7.3s-5,6.3-5,6.3L0,168.7c0,0,3.7,24.7,24.3,24.7  c0.7,0,1.5,0,2.2,0l-3,180c0.2,6.1,0.1,21.7,19.5,21.3c19.3-0.5,21.1-14.7,21.1-14.7l-5-186.6c4.3,0,7,0,7,0s18.4-1.9,21.6-22.8  L83.5,73.4z M260.7,60.7c-92,0-166.7,74.6-166.7,166.7s74.6,166.7,166.7,166.7s166.7-74.6,166.7-166.7  C427.4,135.3,352.8,60.7,260.7,60.7z M110,263.2l150.3-150.3l150.3,150.3H110z M163.2,74.1c0,0,24.7,1.2,42.3-15.3s47-10.6,47-10.6  l111.6,5.9c0,0,18.8,0,18.8-14.1v-5.9c0-14.1-18.8-14.1-18.8-14.1l-111.6,5.9c0,0-29.4,5.9-47-10.6S163.2,0,163.2,0  c-45.8,0-51.7,35.2-51.7,35.2v4.7C111.6,38.9,118.6,74.1,163.2,74.1z"></path>
   </svg>