<?xml version="1.0" encoding="UTF-8" standalone="no"?>
<svg
   xmlns:dc="http://purl.org/dc/elements/1.1/"
   xmlns:cc="http://creativecommons.org/ns#"
   xmlns:rdf="http://www.w3.org/1999/02/22-rdf-syntax-ns#"
   xmlns:svg="http://www.w3.org/2000/svg"
   xmlns="http://www.w3.org/2000/svg"
   xmlns:sodipodi="http://sodipodi.sourceforge.net/DTD/sodipodi-0.dtd"
   xmlns:inkscape="http://www.inkscape.org/namespaces/inkscape"
   version="1.1"
   x="0px"
   y="0px"
   viewBox="0 0 65 65"
   xml:space="preserve"
   id="svg2"
   inkscape:version="0.91 r13725"
   sodipodi:docname="europe.svg"
   width="52pt"
   height="52pt"><metadata
     id="metadata60"><rdf:RDF><cc:Work
         rdf:about=""><dc:format>image/svg+xml</dc:format><dc:type
           rdf:resource="http://purl.org/dc/dcmitype/StillImage" /><dc:title></dc:title></cc:Work></rdf:RDF></metadata><defs
     id="defs58" /><sodipodi:namedview
     pagecolor="#ffffff"
     bordercolor="#666666"
     borderopacity="1"
     objecttolerance="10"
     gridtolerance="10"
     guidetolerance="10"
     inkscape:pageopacity="0"
     inkscape:pageshadow="2"
     inkscape:window-width="775"
     inkscape:window-height="480"
     id="namedview56"
     showgrid="false"
     units="pt"
     inkscape:zoom="1.888"
     inkscape:cx="50"
     inkscape:cy="62.5"
     inkscape:window-x="0"
     inkscape:window-y="23"
     inkscape:window-maximized="0"
     inkscape:current-layer="svg2" /><path
     d="m 14.888645,41.320561 c -0.107925,-0.02149 -0.215849,-0.04299 -0.323773,-0.06448 l -0.268935,0 -0.06403,0.140869 -0.192097,0 -0.08964,0.166478 -0.179288,0 0.192097,-0.307347 0.345773,-0.461024 0.537862,-0.409803 0.409803,0 0.320156,-0.294545 -0.243317,0 -0.153677,0.102449 -0.256126,-0.166479 -0.307347,0 -0.02561,-0.140869 -0.525061,0 -0.07684,-0.268934 0.320156,-0.204898 0.281736,-0.08964 0.08324,-0.409803 -0.05763,-0.307347 -0.332965,0.08964 0,-0.08964 0.204898,-0.192096 -0.08965,-0.140869 0.06403,-0.243324 0.211303,0.217707 0.377788,-0.03842 0.03842,-0.102449 0.281737,0.128059 -0.05123,-0.345766 0.166031,-0.491916 -0.274811,-0.39051 -0.163919,-0.265171 0.07714,-0.342304 -0.09643,-0.07713 -0.221778,0.134992 -0.231418,-0.03857 -0.192852,0.115705 -0.163918,-0.125352 -0.202485,0 0.02411,-0.192845 0.212132,-0.294097 0.07714,-0.265165 -0.149459,-0.255524 0.120526,-0.188025 -0.125352,-0.08679 -0.163919,0.192852 -0.115706,-0.149452 -0.101245,0.02411 -0.07232,0.593008 -0.08678,-0.05786 0.04339,-0.568902 0.03375,-0.154272 0,-0.332663 0.245878,-0.342304 -0.03375,-0.110886 -0.183205,0.168739 -0.149459,0.154278 0,0.154279 -0.183205,0.04821 -0.149459,-0.03375 0.06267,-0.134993 -0.0096,-0.101245 0.245878,-0.255525 0.08678,-0.284451 0.03375,-0.202491 -0.05785,-0.154279 -0.04821,-0.212131 0.115706,-0.245885 -0.07714,-0.106065 0.07232,-0.07714 0.241058,-0.05786 0.0048,-0.265165 -0.07232,-0.09642 0.06268,-0.07714 0.149458,0 0.01929,-0.327837 0.29409,0 0.44837,0 0.08678,-0.0675 0.130172,-0.04821 0.216952,0 0.04821,0.216951 -0.168738,0.144632 -0.496582,0.544795 0.07714,0.07232 -0.05785,0.0916 -0.05785,0.09643 0.02411,0.197664 0.154279,-0.09643 0.327837,-0.110886 0.37605,-0.01447 0.515882,0.02895 0.130172,0.188032 -0.183205,0.255524 -0.01447,0.226591 c 0,0 -0.115705,0.250705 -0.115705,0.274811 0,0.02411 -0.183205,0.241065 -0.183205,0.241065 l -0.144632,0.178378 -0.183205,0.0048 -0.02411,0.115712 0.08196,0.06267 0.07232,-0.01446 0.0675,0.04821 0.01447,0.09643 -0.178385,-0.01447 -0.05785,0.07232 -0.163919,0.183205 0.101246,0.07714 0.279631,0.05303 0.284451,-0.01929 0.188025,0.168745 0.14169,0.257617 0.142754,0.137712 0.04821,0.356771 0.178385,0.376056 0.101246,0.285354 0.202491,0.201582 0.250705,0.09643 0.168738,0.207311 0.02893,0.568902 0.115706,0.134992 0.101246,0.110886 0.05785,0.221778 -0.159099,0.212131 0.08678,0.115712 0.298918,-0.01929 0.173565,-0.110886 0.308557,0.08196 0.159099,0.173558 0,0.323024 -0.05785,0.241058 -0.207312,0.265164 -0.207311,0.250704 -0.298911,0.192845 0.04339,0.149459 0.279631,0.0916 0.231418,-0.05785 0.05785,0.06749 -0.05303,0.125346 -0.641221,0.385696 -0.134992,-0.02411 -0.106066,-0.06749 -0.535149,0.0916 -0.245877,-0.08196 -0.110886,0.06749 -0.101246,0.05785 -0.154278,-0.03857 -0.279631,0.110886 -0.404977,-0.101246 -0.255524,0.08196 -0.188025,0.183212 c -0.04181,0.07713 -0.08359,0.154265 -0.125372,0.231405 z"
     id="path4"
     inkscape:connector-curvature="0"
     style="fill:#ffffff" /><polygon
     points="22.54786,58.14526 22.03063,58.14526 21.83907,58.14526 21.45594,58.2602 20.9004,58.81573 20.21077,59.17971 19.52114,59.17971 19.52114,58.95156 19.18699,59.00925 19.34084,58.76886 19.03313,58.79771 18.89851,58.59578 19.18699,58.29768 19.02352,58.19191 19.12929,58.1246 19.36969,58.08614 19.32161,57.8842 19.45623,57.69189 19.79278,57.56689 19.7447,57.42265 19.29276,57.52842 19.34084,57.3938 19.54277,57.20148 19.55239,56.98994 19.77355,56.83609 19.73408,56.6401 19.437,56.6053 19.30238,56.4803 18.97304,56.46107 19.04515,56.15096 18.9514,55.9923 19.29036,55.8697 19.61489,55.63892 19.54998,55.37208 19.26872,55.42978 19.26151,55.20621 19.30478,55.04034 19.15333,54.87447 19.43459,54.75186 19.82403,54.83841 20.03318,54.96101 20.42262,54.8961 20.79763,54.53551 20.94908,54.24703 20.73994,54.11001 20.58128,54.08116 20.76157,53.83596 20.70388,53.60518 21.00677,53.35998 21.41785,53.1941 21.51882,53.32392 21.60536,53.1941 21.73517,53.10756 21.90825,53.10756 22.10298,53.30949 22.75925,53.24121 23.06508,54.00747 23.4099,54.2565 23.4099,54.563 22.75925,55.23348 22.66279,55.36757 22.75925,55.98058 22.87352,56.72768 22.75925,57.49394 22.54786,57.91538 "
     id="polygon6"
     transform="matrix(0.66850952,0,0,0.66850952,-1.9556956,0.45167241)"
     style="fill:#ffffff" /><polygon
     points="22.47799,49.48001 22.67271,49.47279 22.72319,49.73963 23.05494,49.85502 23.26408,49.66751 23.05494,49.58818 22.9107,49.55212 22.86743,49.1699 22.75925,49.1699 22.7881,48.93912 22.62223,48.93912 22.56453,49.20596 22.44193,49.35019 "
     id="polygon8"
     transform="matrix(0.66850952,0,0,0.66850952,-1.9556956,0.45167241)"
     style="fill:#ffffff" /><polygon
     points="22.81695,47.61214 22.57174,47.95831 22.58617,48.34053 22.26885,48.4992 22.02365,48.15303 22.2977,47.73474 22.61502,47.49675 "
     id="polygon10"
     transform="matrix(0.66850952,0,0,0.66850952,-1.9556956,0.45167241)"
     style="fill:#ffffff" /><polygon
     points="12.20337,36.40268 12.50987,36.57509 12.75891,36.40268 13.44854,35.73221 14.25311,35.52148 14.6554,35.10004 14.6554,34.8127 15.19178,34.52535 15.44081,34.19969 15.07684,33.89319 15.53659,33.89319 15.53659,33.625 15.42165,33.31849 15.53659,32.8495 15.38875,32.58987 14.95604,32.41679 14.8118,32.21486 14.39352,32.21486 14.42236,31.59464 14.19158,31.42155 14.17716,31.01769 13.74445,31.19077 13.52809,30.87345 13.31174,30.44074 12.90788,30.54171 12.87903,31.2052 12.41747,31.37828 12.14342,31.24847 11.94149,31.6956 11.66744,31.6956 11.39339,31.32059 11.20723,31.32059 11.20723,31.62349 11.33569,32.07062 11.278,32.27255 11.07607,31.88311 10.81644,31.68118 10.57124,31.17635 10.03756,31.66676 10.09526,32.21486 9.83563,32.3014 9.25868,31.36386 9.04233,31.46482 9.20099,31.9985 9.17214,32.63314 8.62404,32.53218 8.2923,33.3976 8.17691,33.02258 8.06152,32.57545 7.84516,32.27255 8.16248,31.89754 7.96055,31.62349 7.6865,31.49367 7.02301,30.52728 6.54703,30.58498 6.40279,30.77249 6.53261,30.88788 6.79223,30.77249 7.02301,30.97442 6.63357,31.13308 6.69127,31.24847 7.02301,31.40713 7.1384,31.89754 6.8932,31.65233 6.73454,31.62349 6.648,31.72445 6.27298,31.19077 6.05663,31.29174 5.97008,31.56579 5.76094,31.59464 6.04941,31.89754 5.76094,31.94081 5.99172,32.10668 6.28019,32.26534 6.11432,32.51054 5.57343,32.18601 5.65276,32.48891 5.57343,32.66199 5.24169,32.51054 5.14793,32.73411 5.64555,32.9721 6.09269,32.73411 6.57588,32.58987 6.83551,32.56102 6.97974,32.43121 7.1961,32.61151 7.65766,32.87113 7.54948,33.08749 7.00859,33.42645 7.41966,33.63559 7.6865,33.44087 7.69371,33.81588 7.47015,33.96767 6.85714,33.96767 6.31625,34.13321 5.797,34.1909 5.76094,34.47216 5.98451,34.34235 6.39558,34.30629 7.12398,34.35677 7.29706,34.65246 7.28985,35.03469 7.72256,34.74621 7.64323,35.12123 7.73699,35.22219 8.07594,35.33037 7.72256,35.66933 7.69371,35.96502 7.31149,36.21743 7.00138,36.28233 6.82829,36.23185 6.79223,36.36166 6.87787,36.49847 7.56751,36.49847 8.19967,36.40268 9.34906,37.20725 9.65556,37.20725 10.15363,37.4946 10.69001,37.4946 11.13061,37.34135 11.62868,36.78581 12.03096,36.69003 "
     id="polygon12"
     transform="matrix(0.66850952,0,0,0.66850952,-1.9556956,0.45167241)"
     style="fill:#ffffff" /><path
     d="m 56.86399,40.87189 0.384192,-0.08965 0.153671,-0.461024 -0.473833,-0.230509 -0.06404,-0.153677 -0.332958,0 0.07684,-0.179287 -0.358575,-0.204898 -1.13549,-0.75557 -0.187825,-0.375649 0,-0.375655 0.5464,-1.229403 0.03415,-0.631775 -0.375656,-0.44395 -0.751297,0 -1.10988,0.290273 -0.512252,-0.221971 -0.2732,-0.512253 -0.307347,-0.287693 0.09714,-0.722458 1.764217,-1.691576 0.0169,-0.371779 -0.239053,-0.546399 -1.209835,0.08534 -0.454981,-0.787103 0.332965,-0.601893 0.777423,-0.51625 0.842121,-2.090275 0.458444,-2.851534 1.146608,-1.741655 2.771319,-1.314777 1.53675,-1.212329 1.173689,-1.671561 0.29514,-1.107019 -0.600582,-0.943775 -1.058652,-0.648848 -0.751298,-0.614702 -0.853753,-0.375648 -0.973283,-0.140876 -0.217707,-0.166478 -0.256126,0.07684 -0.02561,0.179288 -0.230762,0.07814 -0.045,0.250704 0.257129,0.398552 -0.02571,0.26356 0.231418,0.17999 -0.01286,0.334268 -0.276416,0.28927 -0.398552,0.03214 -0.08356,0.102851 0.154271,0.276415 -0.224986,0.257129 -0.250705,-0.03857 -0.167141,-0.160703 0.03857,-0.231418 0.03214,-0.212131 0.134992,-0.045 -0.17999,-0.334269 -0.01929,-0.147847 -0.257136,0.07714 -0.359979,0.199276 -0.237842,0.122137 -0.115712,0.257129 -0.192852,0.212131 -0.224987,-0.05143 -0.115712,-0.109282 -0.38569,0 -0.122137,-0.05785 -0.269984,0.160703 -0.186421,0.07714 -0.212131,0.36641 -0.02571,0.276415 -0.250704,-0.224987 -0.06428,0 -0.231418,0.411408 -0.06428,-0.10285 0.05143,-0.212132 -0.527113,-0.05143 0,-0.154279 0.26356,-0.160703 0.186414,-0.01286 -0.03857,-0.141423 -0.07071,-0.147848 0.03214,-0.26356 0.05785,-0.160703 -0.07071,-0.05785 -0.09,-0.115705 -0.192851,0.03214 -0.584973,0.456404 0.109281,0.186421 0.06428,0.237849 -0.269984,0.147848 -0.07071,-0.07071 0.07071,-0.08999 -0.03214,-0.115706 -0.218556,-0.07714 -0.218562,0.06428 -0.115699,0.134965 -0.462836,0.154279 -0.308557,0.334268 -0.231418,0.199276 -0.392121,0.231418 -0.10285,0.07714 -0.173566,-0.0064 -0.03214,0.128567 0.109288,0.102851 -0.16714,0.045 -0.494978,0.160703 -0.05785,0.507833 -0.05785,0.289271 -0.03214,0.314982 -0.347123,0.07071 -0.282847,0.09 -0.430694,-0.045 -0.244273,-0.122137 -0.07714,-0.302126 -0.147855,-0.179989 -0.224986,-0.09643 -0.05786,-0.327837 0.26356,-0.244273 0,-0.224987 0.218556,-0.109282 0.533544,-0.03857 0.09,-0.08357 -0.05785,-0.167134 -0.06428,-0.269984 -0.186421,-0.3407 -0.237842,-0.192851 -0.314989,-0.160703 -0.372841,-0.0064 -0.372841,0.0064 -0.218556,-0.07714 -0.224993,-0.167135 -0.03213,0.05143 0.12213,0.173565 0.173565,0.134992 0.224993,0.186421 0.03857,0.250704 0,0.392121 -0.03857,0.359979 -0.141423,0.411408 -0.07714,0.327837 -0.03214,0.18642 0.045,0.08357 0.244273,0.10285 0.134992,0.244273 0.05143,0.237842 -0.05785,0.09643 -0.0064,0.07071 0.09642,0.08999 -0.09642,0.147848 -0.109282,0.28284 -0.122136,0.263559 0.01929,0.109282 0.05143,0.122136 -0.07071,0.17999 -0.07714,-0.147848 -0.192845,-0.141423 -0.134992,-0.07071 0.03857,-0.07714 -0.08356,-0.07071 -0.08357,-0.03214 0,-0.115705 -0.160703,0 -0.115712,0.03857 -0.334268,-0.218562 -0.212132,0.250704 -0.302126,0.385697 -0.26356,0.115705 -0.218556,0.06428 -0.128567,0.17999 -0.109282,0.192845 -0.212131,0.128567 -0.173558,0.154279 -0.045,0.18642 0.07071,0.257129 0.231418,0.36641 0.231418,0.517474 -0.0096,0.221778 -0.163925,0.04821 -0.183205,-0.250704 -0.125352,0.106066 -0.0096,0.202491 -0.221771,-0.07714 -0.279631,-0.183205 -0.241058,-0.09642 -0.221778,0.04821 -0.106065,0.09643 -0.04821,-0.134992 0.08678,-0.115706 -0.183212,-0.07714 -0.154272,-0.06749 0,-0.173565 -0.44355,-0.192852 -0.106065,0.05785 0,0.241058 -0.221778,0.03857 0.04821,0.192852 0.163918,0.250704 0.125352,0.250705 0.183212,0.144632 0.202485,-0.125352 0.115706,0.03857 0.139812,0.216951 -0.0675,0.130172 0.110893,0.260345 -0.0916,0.144632 -0.27481,0.236237 -0.269985,-0.0675 -0.313377,-0.178385 -0.298911,-0.0675 -0.03375,-0.269985 -0.332664,-0.274811 -0.163918,0.115706 -0.376057,-0.37605 0.04339,-0.486942 -0.125352,-0.173559 -0.04821,-0.36641 -0.144632,-0.221778 0.154279,-0.327844 0.07714,-0.163918 -0.07714,-0.154279 0.04821,-0.115705 0.106066,0.07714 -0.0096,-0.192845 -0.134992,-0.178385 -0.245884,-0.236238 -0.298911,-0.144639 -0.154279,-0.101245 0,-0.197672 -0.134992,-0.0675 -0.04821,-0.202492 -0.197665,-0.168738 -0.144632,-0.0675 -0.08196,-0.163918 -0.120525,-0.115706 0.05303,-0.130172 -0.05303,-0.115706 -0.125353,-0.115705 0,-0.120533 0.134992,0.02893 0.0675,0.03857 0.159098,0.134992 0.154279,0.241058 0.226591,0.188025 0.106066,0.08678 0.04821,-0.139812 0.159099,0.159098 0.197664,0.05785 0.188032,0.05785 0.06267,0.188025 0.197665,-0.120532 0.207311,0.159098 0.255525,0.188025 0.274811,0.08196 0.318197,0.04821 0.303737,0.07714 0.274811,0.08196 0.255524,0.149459 0.188032,0.09643 0.39051,-0.03857 0.327844,-0.05303 0.265164,-0.134992 0.241058,-0.110885 0.279631,-0.221779 0.207311,-0.255524 0.163919,-0.221771 0.120532,-0.183205 0.05303,-0.250705 0.05785,-0.265164 -0.154279,-0.173565 -0.07232,-0.36641 0.0096,-0.289271 -0.241064,-0.245884 -0.274805,-0.149459 -0.08196,-0.125352 -0.342303,-0.159099 -0.472476,-0.482116 -0.294091,0 -0.09643,-0.183205 -0.424263,-0.496582 -0.376056,-0.35677 -0.38569,-0.284451 -0.520689,-0.260344 -0.231418,-0.07232 -0.226591,0.04339 -0.279631,-0.07714 -0.226591,-0.08678 -0.274811,0.07232 -0.03857,0.212132 -0.178386,0.168738 -0.05789,-0.05783 0.115706,-0.178385 0,-0.38087 -0.231418,-0.09161 -0.36641,-0.07232 -0.274811,-0.207312 -0.03857,-0.134992 0.106065,-0.134992 0.159099,0.168739 0.236238,0.101245 0.154278,-0.05785 0.03375,-0.139812 -0.08196,-0.139812 -0.236238,0 -0.115706,-0.101245 -0.149459,-0.159099 -0.139812,0.03375 0,0.231418 -0.115705,0.03375 0,0.08196 0.02893,0.125352 -0.168738,0.01447 -0.110886,-0.144632 -0.216952,-0.08678 -0.26999,-0.03857 -0.188025,-0.149458 -0.07232,0.04339 -0.0916,0.245878 -0.178385,-0.115706 0.03375,-0.106066 -0.03375,-0.134992 -0.154279,-0.09161 -0.192851,-0.149459 -0.245885,-0.08196 -0.226591,-0.110885 0.02893,-0.159099 0.221778,0.07714 0.265165,0.05785 0.28445,0.07714 0.192845,-0.02893 0.183205,-0.183205 0.221778,-0.134992 0.178385,0 0.02893,-0.163919 -0.07232,-0.159098 -0.101246,0.05303 -0.05303,-0.115706 -0.04821,-0.130172 -0.313377,0.08678 -0.06267,-0.08678 0.130172,-0.159099 -0.173565,-0.139812 -0.144632,0.134992 -0.01929,-0.188025 -0.216959,0.07232 -0.0916,-0.03857 0.05303,-0.120533 -0.202491,-0.236238 -0.149452,0.125353 -0.163919,0.216951 0,0.318197 0.03374,0.106059 -0.115706,0.01929 -0.231418,-0.04339 -0.05785,-0.110886 0.130173,-0.130172 0.07232,-0.134992 -0.154279,0.07714 -0.149458,0.02893 0.04821,-0.115706 0.09642,-0.06267 -0.04339,-0.08678 0.08678,-0.101246 0.139812,-0.05303 0.08196,-0.05303 0.02411,-0.125352 -0.178385,-0.07232 -0.05303,-0.192852 -0.202491,0.08678 -0.106066,-0.125352 -0.06749,0.06267 0.06267,0.188025 -0.178385,-0.03857 -0.08196,0.07714 0.168738,0.202492 0.05303,0.106066 -0.284451,0.245877 0,0.274811 -0.159098,0.178385 -0.226598,0.130173 -0.02893,-0.250705 0,-0.298911 -0.03857,-0.144638 0.163919,-0.163919 -0.163919,-0.159098 -0.154272,0.289277 -0.07714,0.231418 -0.134992,0.192845 -0.192845,0.212131 -0.03857,0.356771 -0.212132,0.318197 -0.188025,-0.09643 0.05303,-0.351944 0.144632,-0.327837 -0.09643,-0.139812 0.188025,-0.178385 0.101246,-0.202491 0.168738,-0.159099 -0.04821,-0.08678 -0.134993,-0.110886 -0.05303,0.154279 -0.159099,-0.09643 -0.241058,-0.115706 -0.09643,0.274804 -0.163918,-0.0675 -0.03375,0.110886 0.231418,0.130172 -0.06267,0.192852 -0.110886,-0.08678 -0.110886,0.106066 0.03857,0.236238 -0.173559,-0.02411 0.02411,-0.202492 -0.09161,-0.188025 -0.101246,-0.08678 -0.04821,0.07714 0.03857,0.207312 0.05785,0.110885 0.02893,0.125352 -0.125352,0.188025 -0.188025,0.221772 -0.02893,0.294091 0.115705,0.212131 c 0,0 -0.178385,0.106066 -0.192851,0.110886 -0.01446,0.0048 -0.207312,-0.178385 -0.207312,-0.178385 l -0.110886,-0.192845 0.06749,-0.106066 -0.231418,-0.0675 0.02893,0.139813 -0.05785,0.08678 -0.125352,-0.130172 -0.03375,-0.192845 -0.134992,-0.03375 -0.09643,0.139812 -0.168738,-0.06267 -0.192845,0.06267 0.09642,0.221778 0.192852,0.04821 0.183205,0.110886 -0.04339,0.168738 0.03375,0.144639 -0.202491,-0.08196 -0.221779,-0.168739 -0.06267,0.197672 -0.08196,0.02411 -0.05785,0.120533 -0.110886,-0.04821 0.04821,-0.154279 -0.08196,-0.192851 -0.03375,0.202491 -0.03375,0.202492 -0.05303,0.159098 -0.07714,0.173565 0.06749,0.139812 -0.110885,0.03857 -0.115706,0.05785 -0.02893,-0.144632 0.04339,-0.29409 -0.01447,-0.178386 0.05785,-0.245884 -0.08678,0.0048 -0.130172,0.323017 -0.110886,0.188025 0.03857,0.178385 -0.106066,-0.03375 -0.07232,-0.144639 0.03375,-0.154279 -0.134992,0.01447 -0.265164,0.07232 -0.02411,-0.120539 0.197664,-0.144638 0.178386,-0.178385 -0.02893,-0.130173 -0.120525,-0.0048 -0.07232,0.05303 -0.07232,-0.106065 -0.250705,0.212131 0.07232,0.149459 -0.106066,0 -0.101246,0.183205 -0.168738,0.221771 -0.04821,0.08678 0.03375,0.05785 0.188025,0.0096 0.110886,-0.0675 0.01447,-0.168739 0.08196,-0.02893 0.04339,0.183205 0.06749,0.159098 0.03375,0.159099 0.192851,0.115706 0.02411,0.231417 -0.09642,0.09643 -0.07714,-0.05785 0.02893,-0.139812 -0.115706,-0.144632 -0.163918,-0.226598 -0.168739,0.09643 0.106066,0.269984 -0.139812,0.02411 -0.07714,-0.241058 -0.08678,0 -0.09643,0.09643 -0.05785,-0.149459 -0.274805,-0.192845 -0.139812,0.144639 0.02893,0.139812 -0.216952,0.125352 0,0.130172 -0.05785,0.08196 0.03857,0.106065 -0.03857,0.05303 0,0.08678 0.216958,-0.120532 0.101245,-0.08196 0.221778,0.02893 0.130173,-0.149458 0.106065,0.216951 -0.245878,0.08678 -0.149458,0.110886 -0.05785,0.255524 0.03375,0.154279 -0.197665,0.197665 -0.318197,0.09643 -0.154278,-0.04339 0,-0.202492 -0.168739,-0.08678 0,0.207311 -0.168738,0.0675 -0.02893,-0.178385 -0.07232,-0.09161 0.05785,-0.183205 -0.216952,0.09643 0,0.236238 -0.134992,0 -0.08678,-0.342304 -0.08196,0.04339 -0.115706,0.212131 -0.144679,0.01447 -0.173565,0.183205 0.05785,0.120532 0.207311,-0.149459 0.139813,-0.02893 -0.106066,0.192851 0.178385,-0.02893 0.134992,-0.110886 0.110886,0.02893 0,0.125352 -0.183205,0.163919 -0.02893,0.09643 -0.178378,0.01446 -0.163919,0.0916 -0.168738,0.115706 -0.250705,0.03375 -0.139812,0.06267 -0.173558,0.188025 -0.154279,0.09161 -0.183205,0.0675 -0.101246,0.284451 0.298911,-0.183205 0.178385,-0.159098 0.250705,-0.236238 0.183205,-0.0048 0.01929,0.09643 0.188025,-0.125353 0.197665,-0.144632 0.260344,-0.149458 0.139812,0.154278 0.154279,-0.144638 0.197665,-0.188025 0.101246,-0.07232 0.08678,0.192845 0.294091,-0.03375 0.308557,-0.139812 0.231418,0.04821 0.06749,0.197665 -0.260345,0.0048 -0.274811,0.149459 -0.168738,-0.139812 -0.323017,0.168739 0.212131,0.207311 -0.09161,0.289271 -0.05785,0.125352 -0.0916,-0.120532 -0.07714,-0.35677 -0.159099,0.163918 -0.250704,0.01447 -0.04821,0.159098 0.183205,-0.03375 0.144632,0.04821 0.08678,0.139812 -0.178385,-0.0048 -0.192851,0.106066 -0.09642,0.01929 -0.07714,-0.168738 -0.110885,0.149458 -0.06749,0.149459 0.120525,0.0916 0.183205,-0.0916 0.163919,0.01447 0.01447,0.163918 -0.192852,0.03857 -0.03375,0.06267 0.192845,0.236238 -0.120526,0.01929 -0.212132,-0.183205 -0.188025,0.159098 -0.02411,0.188025 0.101246,0.144632 0.241058,-0.01929 0.115705,0.0675 0.106066,0.110886 -0.04821,0.173565 -0.144632,-0.139812 -0.178385,-0.05303 -0.212131,0.0048 -0.159099,0.08678 -0.212131,0.163919 -0.173559,0.250704 -0.0048,0.101246 0.0916,0.07232 -0.05785,0.110886 -0.327843,0.03857 -0.101246,0.36641 -0.03857,0.115706 0.09642,0.110885 0.188025,0.07232 -0.03857,0.03857 -0.183205,0.0096 -0.02411,0.197665 -0.250704,0.101246 0.125352,0.134992 -0.02893,0.05303 -0.149458,-0.02893 -0.03375,0.04821 0.03375,0.231418 -0.236238,0.216958 0,0.125352 0.207311,0.149452 -0.04821,0.106066 -0.29409,-0.04821 -0.04339,0.0916 0.04339,0.178385 0.260344,0.197665 -0.01929,0.207311 -0.241057,-0.216958 -0.289271,0.294091 -0.220167,0.07392 -0.03857,0.07071 0.173558,0.154279 -0.045,0.10285 -0.372841,0.302126 -0.160703,0.147848 -0.26356,0.334268 -0.128568,0.257129 0,0.2057 -0.257129,0.109281 0,0.17999 0.199276,-0.09643 -0.07071,0.2057 0.06428,0.07071 0.05785,0.09643 0.192851,-0.167134 0.186421,-0.08356 0.199276,-0.205701 -0.045,-0.192851 0.192852,-0.141424 0.109281,-0.02571 0.06428,0.160703 -0.237842,0.09643 0.06428,0.05785 0.160703,-0.02571 -0.0064,0.17999 -0.218556,0.109281 -0.115706,0.09 -0.01929,0.302126 -0.430694,-0.05785 0,0.167134 -0.205701,-0.0064 0,-0.173565 -0.231418,-0.186421 -0.167134,0.257129 -0.122136,0.08357 -0.173565,-0.05143 -0.160703,0.05143 -0.06428,0.147848 -0.218563,0.01286 -0.05785,0.404977 -0.179989,0.02571 -0.08357,-0.154279 -0.321412,0.141416 -0.05785,0.282847 0.26356,-0.03214 -0.06428,0.347123 -0.353555,-0.104608 -0.186414,0.06604 0.276416,0.167134 -0.276416,0.09 -0.314988,0.173565 0,0.199276 -0.128561,-0.112497 -0.122137,-0.163918 -0.045,0.08356 0,0.160703 -0.218563,-0.08035 -0.09643,0.06754 0.250704,0.244274 -0.08999,0 -0.128568,-0.08356 -0.122137,0.289271 0.192845,0.269991 -0.09,0.257128 0.08356,0.321413 0.340699,0 0.372841,-0.07071 -0.03857,0.154278 -0.353554,0.102851 -0.424263,0.09642 0.05785,0.160703 -0.10285,0.134992 -0.0064,0.07714 0.122137,0.115706 -0.154278,0.10285 0.05785,0.334268 0.167134,-0.045 0.186421,0.18642 0.045,0.122137 -0.154278,0.06428 -0.128561,0.276415 0.08356,0.03214 0.218563,-0.250704 0.141423,-0.134992 0.06428,-0.192845 0.09643,-0.218563 0.359979,-0.122137 -0.0064,0.167135 -0.340699,0.128567 -0.05143,0.244274 -0.17999,0.212131 0.05143,0.186421 -0.167134,0.199276 -0.07714,0.10285 -0.05785,-0.08357 -0.09643,0.01929 -0.045,0.231418 0.09643,0.122137 0.237849,-0.08356 0.08356,-0.2057 0.154278,0.122136 -0.01929,0.26356 -0.09642,0.03857 0,0.224994 0.07714,0.186421 -0.134992,-0.0064 -0.109281,-0.09642 -0.06428,0.07071 -0.01286,0.308557 0.26356,0.231418 0.128561,0.122137 0.257129,0.10285 0.01286,0.237849 0.147847,0.01929 0.501402,-0.03214 0.250705,-0.03214 0.494978,-0.372842 0.539975,-0.617114 0.154278,-0.231418 0.160703,0.128568 0.224987,-0.224987 0.01929,-0.218563 -0.07071,-0.212131 0.122136,-0.10285 0.167134,0.115705 0.06428,0.379266 0.218563,0.128568 -0.0064,0.26356 0.08999,0.488546 0.154279,0.314982 -0.07714,0.147848 0.218556,0.302126 0.05143,0.359979 0.257129,0.494978 0.173558,0.404976 0.237849,0.327844 -0.08356,0.257128 -0.05143,0.314982 0.205701,0.353555 -0.0064,0.392121 0.327844,0.03857 0.462836,-0.08356 -0.03214,-0.340699 0.154279,-0.289271 0.212131,-0.07714 0.147848,-0.160703 0.520688,0.07714 0.237843,-0.392121 0.173565,-0.475691 0.134992,-0.674967 0.115706,-0.687823 -0.08357,-0.771393 0.462836,-0.212132 0.134992,-0.250704 0.237843,0.122137 0.276415,-0.289271 0.09643,-0.26356 0.231418,-0.314982 -0.01286,-0.475691 -0.09643,-0.28284 -0.482115,-0.456404 -0.257129,0.05143 -0.03857,-0.154279 -0.295702,-0.295701 0.03214,-1.105662 0.173558,-0.18642 0.06428,-0.584973 0.07714,-0.05785 -0.160703,-0.199276 0.109282,-0.147847 0.167134,0.07714 0.08999,-0.207458 0.02571,-0.377508 0.327844,-0.0064 -0.01929,-0.327844 0.456404,-0.295702 0.07071,-0.173565 0.604252,-0.347123 0.06428,-0.173559 0.212131,-0.05143 0.186421,-0.379266 0.05785,-0.224993 0.334268,-0.28284 -0.03857,-0.212132 -0.212132,-0.212131 0.08356,-0.141423 -0.07071,-0.205701 0.263559,-0.353554 0.0064,-0.475692 0.289271,-0.03857 0.218555,-0.212131 0,-0.437119 0.186421,0.07071 0.250704,0 0.08999,0.128567 0.134992,-0.134992 0.475692,0.06428 0.263559,0.02571 0.3407,0.212131 0.192851,0.417839 0.141424,0.475691 -0.08357,0.347124 -0.154278,-0.07714 -0.26356,0.07714 -0.167134,0.321413 -0.359979,0.604252 -0.347124,0.46926 -0.154279,0.205701 -0.199276,-0.05785 -0.06428,0.05785 -0.045,0.269984 -0.192845,0.109281 0.045,0.398552 -0.507834,0.03857 -0.01286,0.359986 -0.257129,0.17999 -0.09,0.269984 0.07714,0.250704 0.167134,0.257129 -0.09643,0.44355 0.2057,0.347123 -0.03857,0.572111 -0.08357,0.302126 -0.09,0.707109 0.05785,0.045 0.147847,-0.08999 0.17999,0.192851 0.18642,0.05785 -0.01286,0.244273 0.179989,0.08356 0.02571,0.167134 0.26356,0.03214 0.05143,0.231418 0.302127,-0.115706 0.417838,-0.167134 0.359979,-0.05143 0.359986,-0.269984 0.417838,-0.07714 0.392121,-0.18642 0.411408,-0.08356 0.334268,0.08356 0.321413,-0.10285 0.385696,-0.237849 0.06428,0.08356 -0.237849,0.218563 0.311773,0.321413 0.176774,0.154278 0.475691,-0.08356 0.128561,0.231418 0.03857,0.231418 -0.212132,-0.06428 -0.398552,-0.05143 -0.147847,0.192852 -0.250705,0.01929 -0.115706,0.173559 -0.224986,0.045 -0.06428,0.257129 -0.372841,0 -0.514251,-0.07713 -0.392121,-0.128561 -0.257129,0.07071 -0.347124,0.08999 -0.199276,-0.01929 -0.372841,0.224986 -0.314982,0.09643 -0.08999,0.289271 -0.06428,0.269991 0.128568,0.282846 0.01929,0.205701 0.231418,0.08356 0.173558,-0.147847 0.212132,0.122137 -0.115706,0.18642 -0.07071,0.539975 0.05143,0.424263 -0.045,0.321413 -0.295702,0.231418 -0.314988,-0.03857 -0.17999,-0.192852 -0.045,-0.28284 -0.128561,-0.045 -0.26356,-0.36641 -0.231418,0.109281 -0.327844,0.199276 -0.08356,0.173565 -0.05143,0.372835 -0.218555,0.212131 -0.05787,0.417832 0.09643,0.745675 0.134992,0.771387 -0.045,0.321413 -0.321413,-0.01929 -0.218556,-0.05785 -0.28927,0.05785 0.0064,0.167134 0.141423,0.05143 -0.0064,0.07071 -0.134992,0.05143 -0.186421,0.224987 -0.147847,0.147848 -0.244274,-0.07071 -0.314988,-0.02571 -0.154279,-0.507834 -0.141423,-0.01929 -0.430694,0.05143 -0.379265,0.218563 -0.257129,0.02571 -0.289271,0.347123 -0.295702,0.07714 -0.398552,0.115705 -0.334268,0.17999 0.045,0.134992 -0.045,0.10285 -0.154279,-0.01929 -0.179989,-0.167134 -0.10285,-0.173558 -0.09643,-0.109281 -0.115706,0.02571 -0.147847,-0.109282 0.09643,-0.179989 0.154278,-0.03214 0.01286,-0.167134 -0.282847,-0.05785 -0.045,0.17999 -0.09643,0.10285 -0.192852,-0.03857 -0.179989,0.07714 -0.199276,0.147848 -0.321413,0.06428 -0.173565,0.205701 -0.353555,-0.03857 0,-0.205701 0.244274,-0.295702 -0.07714,-0.08999 -0.109281,0.03214 -0.08356,0.160703 -0.154279,-0.05143 -0.269984,-0.07071 -0.17999,-0.09 -0.01286,-0.237849 -0.212132,-0.122137 -0.0064,-0.09642 0.186421,-0.05143 -0.01286,-0.08356 -0.212131,-0.05785 0.05785,-0.167134 0.10285,-0.045 -0.06428,-0.179969 0.045,-0.115706 0.134993,0.09643 0.08356,0.179989 0.134992,0.128568 0.167134,0.07071 0.115706,0.0064 0.05143,-0.122137 0.045,-0.109281 -0.08999,-0.147848 -0.167134,-0.154278 -0.134992,-0.02571 -0.154279,0.03214 -0.07714,0.0064 -0.08357,-0.115706 0.134992,-0.160703 0.01286,-0.173565 0.115706,-0.05142 0.045,-0.269991 0.045,-0.07714 0.122136,-0.05143 0.08356,0.05143 0.09643,0.03214 0.05143,-0.09643 0.05143,-0.122137 -0.08357,-0.134992 -0.141423,-0.03857 -0.160703,0.045 -0.045,-0.167134 -0.03214,-0.276416 0.128561,-0.237842 0.10285,-0.199276 -0.02571,-0.462836 -0.237849,0.115706 -0.160703,0.109281 -0.134992,0.269984 -0.10285,0.10285 -0.302126,0.05785 -0.289271,0.09 -0.186421,0.173565 -0.01285,0.109281 0.08356,0.09 0.115705,-0.05785 0.109281,0.154279 0,0.147848 -0.109281,-0.0064 -0.224987,-0.07714 0.01929,0.379265 -0.07714,0.231418 -0.0064,0.404977 0.07714,0.167134 0.167134,0.192845 0.109281,0.224993 0.02571,0.469261 0.128561,0.2057 -0.08356,0.289271 0.128561,0.282846 -0.01929,0.173558 0.218562,0.128568 -0.09643,0.05142 -0.173559,-0.07714 -0.141423,0.02571 -0.07071,0.173558 0.0064,0.122137 -0.192845,0.01286 -0.134992,0.122137 -0.05143,-0.257129 -0.539976,0.115706 -0.122136,0.276415 -0.141424,-0.109281 -0.250704,0.03214 -0.36641,0.03857 -0.218556,0.28927 -0.0064,0.147848 0.09643,0.115706 0.10285,0.05143 -0.08357,0.231418 -0.334268,0.295702 -0.08996,-0.08356 0.07071,-0.237842 0.045,-0.141423 -0.115706,-0.160703 -0.147847,0.045 -0.09,0.167134 -0.06428,0.334268 -0.06428,0.26356 -0.160703,0.199276 -0.250704,0.2057 0.167134,0.122137 0.05785,0.08999 -0.08356,0.05143 -0.257136,-0.05142 -0.147847,0.160703 -0.276415,0.160703 -0.269985,0.173565 -0.411407,0.10285 -0.128568,0.09643 -0.05303,0.276415 0,0.321413 -0.19124,0.236438 -0.308558,0.194256 -0.282839,0.109281 -0.134992,0.045 -0.05785,0.160703 0.109281,0.10285 -0.05143,0.09 -0.160703,0.06428 -0.392121,-0.03214 -0.250705,-0.07071 -0.179989,-0.10285 -0.173565,-0.192845 -0.134993,0.0064 -0.045,0.147848 0.109281,0.167134 0.141424,0.353554 0.045,0.314982 -0.134992,0.08356 -0.186421,0 -0.282037,0 -0.283649,0.03214 -0.10285,-0.115706 -0.122137,-0.122137 -0.295702,0.09 -0.250704,0.07714 -0.218563,0 -0.257128,0.102851 -0.05143,0.167134 0.09643,0.03214 0.224987,-0.03214 0.02571,0.179989 -0.173565,0.154279 0.115705,0.167134 0.186421,-0.03214 0.250704,0.03214 0.186421,0.109281 0.109281,0.09 0.353555,-0.03214 0.160703,0.186414 0.01286,0.147847 0.154279,0.109288 0.09643,0.237842 -0.115706,0.141424 0.173565,0.192851 0.167134,0.147848 0.231418,0.115705 0.128561,0.173565 0.01286,0.392121 0.192851,0.224994 0.01286,0.160703 -0.154279,-0.05785 -0.08357,0.05785 -0.03857,0.340699 0.02571,0.327837 -0.07714,0.173565 -0.06428,0.462836 c 0,0 -0.07714,0.321413 -0.08356,0.340699 -0.0064,0.01929 -0.321413,0.218556 -0.321413,0.218556 l -0.36641,-0.05785 -0.790673,-0.02571 -0.2057,-0.045 -0.359979,0.01286 -0.321413,-0.09642 -0.385697,-0.09 -0.649256,0.06428 -0.289271,0.03214 -0.359979,-0.17999 -0.160703,0 -0.231418,0.353555 -0.276415,0.03214 -0.308557,0.173565 0.08357,0.186421 0.03214,0.192845 0.192852,0 -0.03857,0.437125 -0.045,0.321413 0.160703,0.392121 -0.08357,0.55283 -0.045,0.334268 -0.07071,0.392121 -0.18642,0.417832 -0.06428,0.08357 -0.07714,0.347124 0.199276,0.06428 -0.01929,0.160703 0.141423,0.03857 0.10285,-0.122136 0.02571,0.340699 -0.045,0.36641 -0.045,0.424263 0.0064,0.134992 0.205701,0 0.404976,-0.045 0.269984,0.045 0.289271,-0.05785 0.411408,0.115712 0.10285,0.347124 0.167134,0.308557 0.314982,0.128561 0.167134,-0.205707 0.250704,-0.179989 0.173565,-0.02571 0.212132,-0.160703 0.347123,0.0064 0.347124,-0.01286 0.347123,-0.01929 0.314982,-0.01929 0.17999,-0.192852 0.212131,-0.327837 0.237842,-0.147848 0.224987,0.02571 0.09643,-0.257128 0.167134,-0.314989 0.340699,-0.36641 -0.327844,-0.462836 0.186421,-0.353548 0.398552,-0.71354 0.289271,-0.392121 0.302126,-0.141416 0.28284,-0.05143 0.282846,-0.205707 0.430694,-0.224994 0.167134,-0.192845 -0.01285,-0.340699 -0.128568,-0.411414 0.07714,-0.263553 0.417832,-0.392121 0.591397,-0.05143 0.045,0.2057 0.327844,-0.01286 0.404976,0.212124 0.482116,-0.05785 0.559255,-0.494977 0.424263,-0.134992 0.212132,-0.276416 0.334268,-0.231418 0.276415,0.134992 0.584966,0.327837 0.09,0.398552 0.141416,0.302127 0.02571,0.173558 0.244273,0.224994 0.186421,0.237842 0.26356,0.122137 0.179989,0.218562 0.218563,0.263553 0.289271,0.244274 0.321412,0.167134 0.424263,0.10285 0.09643,0.192852 0.218562,0.147847 0.134993,0.09643 0.276415,0.03214 -0.03857,0.302119 0.2057,0.128568 0.302127,0.147848 0.115705,0.340699 0.167134,0.36641 0.03214,0.276415 -0.141423,0.134993 -0.07714,0.173558 -0.109282,0.302126 0.08356,0.07714 0.147848,0.0064 0.192851,-0.26356 0.09,-0.263553 0.05142,-0.186421 0.167134,-0.128561 0.154278,-0.03214 0,-0.179989 -0.07714,-0.212132 -0.18642,-0.07071 -0.141424,-0.09642 0,-0.167141 0.347124,-0.565679 0.08356,-0.01929 0.09643,0.08357 0.160703,0.134992 0.212132,0.0064 0.09,0.10285 0.05143,0.147848 0.141423,0.10285 0.07071,-0.01285 0.045,-0.154272 -0.05143,-0.173565 -0.186421,-0.173566 -0.302126,-0.224993 -0.295702,-0.212125 -0.488547,-0.192852 -0.372841,-0.205707 0.02571,-0.160703 0.160703,-0.109281 -0.05143,-0.06428 -0.179989,-0.045 -0.160703,0.05785 -0.289271,-0.05785 -0.282846,-0.199276 -0.334268,-0.353555 -0.218556,-0.404983 -0.045,-0.237842 -0.167135,-0.282847 -0.160703,-0.09642 -0.224986,-0.218562 -0.269985,-0.128561 -0.09643,-0.244274 -0.167053,-0.154231 0.06428,-0.212132 0.141423,-0.154279 -0.07071,-0.212131 -0.07714,-0.173565 0.06428,-0.173559 0.199276,-0.08999 0.05785,0.05143 0.244273,-0.134992 0.237849,-0.09642 0.250705,0.05785 -0.07714,0.2057 -0.045,0.173565 0.109281,0.218556 0.10285,0.160703 0.160703,-0.128561 0.05785,-0.250704 0.09643,-0.160703 0.128568,0.199276 0.154278,0.10285 0.102851,0.141423 -0.0064,0.257129 0.06428,0.212131 0.128561,0.269984 0.192852,0.237849 0.173565,0.218556 0.141417,0.160703 0.36641,-0.0064 0.295702,0.212131 0.192845,0.199276 -0.125353,0.0675 0.154279,0.125352 0.36641,0.06749 0.347124,0.241064 0.241057,0.134992 0.192845,0.308558 0.279631,0.144632 -0.04821,0.327837 -0.01929,0.327843 0.04821,0.173566 -0.173565,0.35677 0.05785,0.173558 0.221778,0.07714 0.192845,0.221771 -0.178385,0.130172 0.125353,0.269991 0.173565,0.279624 0.260344,0.07232 0.115706,0.197664 0.178385,0.0916 0.07232,0.231418 0.197665,0 0.284451,-0.04821 0.429083,0.0675 0.327843,0.106065 0.0096,0.144632 -0.168738,0.08196 -0.245878,-0.139812 -0.226598,-0.01929 -0.125352,-0.120525 -0.130172,0.06267 -0.05786,0.09642 -0.154278,-0.01446 -0.178386,0.183205 0.168739,0.183205 0.202485,0.202491 -0.08196,0.134992 0.130172,0.337484 0.159098,-0.139812 0.0916,-0.0048 0.08678,0.207311 0.06267,0.197665 0.0916,-0.05303 0.06267,-0.192851 0.134993,-0.0048 0.130172,0.221771 0.01446,-0.154278 -0.06267,-0.226592 -0.06749,-0.197665 -0.0916,-0.178385 0.07714,-0.0675 0.139812,0.05785 0.149459,0.08196 0.02411,-0.0916 -0.130172,-0.183212 -0.07232,-0.106066 0.139812,-0.09642 0.149459,-0.01929 0.154278,0.0675 0.106066,0.06749 0.08678,-0.01929 0.02411,-0.192851 0.120525,-0.144632 -0.0096,-0.202485 -0.09643,-0.0675 -0.197665,-0.0675 -0.168739,-0.188025 -0.120525,-0.04821 -0.07714,0.04821 0.08196,0.106066 0.183206,0.173565 -0.0096,0.106066 -0.115706,0.0048 -0.04821,-0.0916 -0.144632,-0.09643 -0.130172,-0.134992 0.06749,-0.120533 -0.06267,-0.125352 0.03375,-0.149459 -0.03375,-0.06749 0.110885,0.0916 0.110886,-0.02411 -0.07714,-0.149452 -0.197665,-0.202484 -0.07714,-0.197665 -0.09642,-0.149459 -0.04821,-0.178385 0.05303,-0.168739 0.115706,-0.05786 0.139812,-0.03375 0.07714,0.134993 0.159099,0.159098 0.168739,0.03857 0.106065,-0.0675 0.07714,-0.106059 -0.03375,-0.178385 0.09643,-0.120532 0.197665,-0.07232 0.216951,-0.05303 0.231418,-0.02893 0.154279,-0.0675 0.173558,0.07714 0.197665,0.06267 0.226598,0.04821 0.154279,-0.139812 0.0096,-0.236238 0.159098,-0.05785 -0.120525,-0.303737 0.385696,-0.351944 0.578542,0.08196 -0.06267,-0.212131 -0.197665,-0.178385 0.05303,-0.139812 0.226611,-0.347124 0.04339,-0.323017 0.188025,-0.106066 0.154279,0.0048 0.01929,-0.491755 0.0096,-0.327844 0.250705,-0.221771 0.168738,-0.212132 0.212131,0 0.06267,-0.313377 0.05785,-0.221771 -0.154279,-0.0916 0.05785,-0.139812 0.08678,-0.115712 0.06749,0.09161 0.274811,-0.183212 0.106066,-0.173558 -0.207312,-0.221778 0.03857,-0.110886 0.207311,0.139812 0.101246,0.05785 0.06267,-0.202485 0.02411,-0.130179 0.163919,-0.03375 0.298917,0.0096 0.178385,-0.02411 0.04339,-0.168745 0.144639,0.06268 0.04821,0.110886 0.173565,0.0916 -0.07714,0.154279 -0.134992,0.04821 0.110885,0.139812 0.178385,0.06268 0.154279,-0.02411 0.192845,-0.03857 0.188025,0.03857 0.207311,0.03857 0.0064,0.208916 -0.154279,0.07071 -0.224987,0.08357 -0.26356,0.231417 0.147848,0.05143 0.173558,0.109281 0.05143,0.147848 0.192852,-0.01929 0.03857,0.186421 -0.045,0.218556 0.07071,0.154278 0.07071,0.10285 0.147848,-0.01929 0.192851,-0.07714 0.128561,-0.141424 0.05143,-0.109281 0.147847,-0.0064 0.205701,-0.05142 0.10285,-0.08357 0.07714,-0.109281 0.173565,-0.05143 0.154279,0.06428 0.199276,-0.0064 0.115712,0 0.02571,-0.179989 -0.109281,-0.186414 -0.199276,0.115705 -0.199276,0.05785 -0.109281,0.05786 -0.173566,-0.03857 -0.122136,-0.257129 -0.07714,-0.134992 -0.224986,-0.147848 0.01929,-0.231418 0.141423,-0.141423 0.289271,-0.167134 0.045,-0.237849 0.147848,0.128568 0.160703,-0.09643 0.302126,-0.05785 0.321413,-0.09 0.26356,-0.09642 0.257129,-0.154272 0.250704,-0.09643 0.244273,0.01929 0.359979,-0.109281 0.250705,-0.05785 0.08358,0.147848 -0.147848,0.224993 -0.34713,0.115713 -0.03214,0.134992 -0.17999,-0.03857 -0.26356,0.09 0.07714,0.192852 0.212131,0.08357 -0.05786,0.321413 -0.173559,0.01929 -0.07714,0.257129 -0.154272,0.26356 -0.10285,0.05143 -0.289271,-0.045 -0.115712,0.186421 0.06428,0.03857 0.128561,-0.10285 0.08357,0.179989 0.10285,0.244274 0.269984,0.10285 0.282847,0.186414 0.218556,0.09 0.282846,0.147847 0.218556,0.244274 0.218556,0.257135 0.173565,0.160703 0.237842,-0.109288 0.739251,0.276415 0.64925,0.03214 0.758538,0.359979 0.10285,0.186414 0.28284,0.01929 0.115712,-0.154279 0.398552,0.03214 0.514258,0.263553 -0.115706,0.199283 0.488547,0.244267 0.385696,0.205707 0.173559,0.28927 0.411414,0.05143 0.411407,-0.44355 -0.269984,-0.404983 -0.411414,-0.584965 0.0064,-0.417839 0.115706,-0.424263 -0.154272,-0.045 -0.26356,-0.372841 -0.276416,-0.01929 0.122137,-0.289271 0.597828,-0.83567 0.141423,-0.07714 0.01929,0.115712 0.05785,-0.07714 0.09642,-0.147855 0.160703,0.134993 0.154278,-0.07071 0.08357,-0.237849 0.134992,-0.321412 -0.35677,-0.276416 0.327844,-0.154278 -0.520689,-0.877452 -0.462829,-0.183206 -0.04821,0.173559 -0.212132,-0.125352 0.04821,-0.433903 -0.424263,-0.134992 0.289271,-0.829246 0.0096,-0.655681 0.395336,-0.530329 0.520689,0.578542 0.35677,-0.134992 -0.192852,-0.588182 0.559262,-0.27963 -0.0096,-0.241058 0.829245,-0.539969 0,-0.192851 0.424263,0.154278 0.0096,0.163919 0.202485,0.01929 0.08678,-0.163918 0.395336,-0.173559 0.07714,0.337484 0.511042,-0.03857 0.72318,0.626754 0.03857,0.385697 0.144632,-0.106066 -0.04821,-0.424263 0.713534,0.530329 0.491756,-0.578542 0.173565,0.09643 0.192851,-0.134992 0.298911,0.260344 0.163925,-0.269984 0.424263,0 0.260344,0.414623 0.356771,0.04821 0.04821,0.202485 0.356771,-0.36641 0.337483,0.212131 0.233524,-0.08227 z"
     id="path14"
     inkscape:connector-curvature="0"
     style="fill:#ffffff" /><polygon
     points="75.74533,23.37629 76.16677,22.72497 76.87556,22.72497 77.68014,23.38587 77.33532,24.04677 76.65527,24.65977 76.20509,24.65977 75.86027,24.44905 75.63039,24.04677 "
     id="polygon16"
     transform="matrix(0.66850952,0,0,0.66850952,-1.9556956,0.45167241)"
     style="fill:#ffffff" /><polygon
     points="85.82162,21.01047 85.55344,20.61776 86.01319,20.80933 85.82162,20.33042 86.22392,19.94729 86.74113,20.75186 87.02849,20.96258 87.64149,21.65221 87.3733,22.07365 86.85608,22.07365 86.73156,21.67137 86.33885,21.55643 86.12813,21.49896 "
     id="polygon18"
     transform="matrix(0.66850952,0,0,0.66850952,-1.9556956,0.45167241)"
     style="fill:#ffffff" /><polygon
     points="39.99556,52.34551 39.67823,52.28782 39.55323,52.41282 39.66862,52.98015 40.2071,53.2494 40.53404,53.41286 40.88982,52.98015 40.70712,52.77822 41.16868,52.41282 40.85136,51.85511 40.48596,51.96088 40.48596,52.24936 "
     id="polygon20"
     transform="matrix(0.66850952,0,0,0.66850952,-1.9556956,0.45167241)"
     style="fill:#ffffff" /><polygon
     points="40.60135,53.82634 40.48596,54.27829 39.75516,54.03789 39.75516,53.78788 40.13979,53.89846 40.40903,53.76865 40.65905,53.51864 40.85136,53.60518 "
     id="polygon22"
     transform="matrix(0.66850952,0,0,0.66850952,-1.9556956,0.45167241)"
     style="fill:#ffffff" /><polygon
     points="37.20255,72.58923 37.20255,72.24441 37.58567,71.97622 37.98796,71.74635 37.98796,72.28272 38.1029,72.47429 37.9688,72.58923 37.98796,73.02982 37.75808,73.54705 37.43242,73.37464 "
     id="polygon24"
     transform="matrix(0.66850952,0,0,0.66850952,-1.9556956,0.45167241)"
     style="fill:#ffffff" /><polygon
     points="37.10676,75.84583 37.20255,75.53932 36.81942,74.40909 37.20255,74.37078 37.87302,73.91103 38.1029,74.10258 38.33278,74.71559 38.1029,74.888 38.21783,75.3286 38.19868,75.96076 38.00711,76.3822 37.56652,76.3822 37.39411,76.61208 37.10676,76.40136 "
     id="polygon26"
     transform="matrix(0.66850952,0,0,0.66850952,-1.9556956,0.45167241)"
     style="fill:#ffffff" /><polygon
     points="43.42839,78.59478 43.54333,78.10629 43.84983,77.60822 43.21767,77.74232 42.79623,77.89557 42.52804,77.81894 42.24069,77.87641 41.99166,77.85725 41.64684,77.60822 41.01468,77.85725 41.01468,78.16376 41.30202,78.43195 41.64684,78.43195 42.08744,78.77676 42.43225,78.94917 42.79623,79.04495 43.00695,79.3323 43.40924,79.3323 43.65827,78.98748 "
     id="polygon28"
     transform="matrix(0.66850952,0,0,0.66850952,-1.9556956,0.45167241)"
     style="fill:#ffffff" /><polygon
     points="47.06316,49.22038 47.23624,48.58574 47.12085,48.47035 46.70257,48.72997 46.47179,49.22038 46.6016,49.86945 46.9622,49.63867 "
     id="polygon30"
     transform="matrix(0.66850952,0,0,0.66850952,-1.9556956,0.45167241)"
     style="fill:#ffffff" /><polygon
     points="51.33257,47.44627 51.21718,47.20107 50.53927,47.20107 50.25079,47.47511 50.14983,47.73474 50.45272,47.97994 51.0441,47.73474 "
     id="polygon32"
     transform="matrix(0.66850952,0,0,0.66850952,-1.9556956,0.45167241)"
     style="fill:#ffffff" /><polygon
     points="51.24603,46.62411 50.84938,46.88374 50.45272,46.62411 50.87101,46.39334 "
     id="polygon34"
     transform="matrix(0.66850952,0,0,0.66850952,-1.9556956,0.45167241)"
     style="fill:#ffffff" /><polygon
     points="47.88531,43.999 48.0584,44.3596 48.47668,44.1793 48.34687,43.73938 48.0007,43.84035 "
     id="polygon36"
     transform="matrix(0.66850952,0,0,0.66850952,-1.9556956,0.45167241)"
     style="fill:#ffffff" /><polygon
     points="52.53455,81.06787 52.43839,80.97172 52.16914,80.87556 51.86144,80.97172 51.86144,81.18327 52.5057,81.24096 52.91918,81.53905 53.95768,81.49097 54.38078,81.29865 54.19808,81.25539 53.84229,81.3275 53.75575,81.1448 52.94802,81.01018 "
     id="polygon38"
     transform="matrix(0.66850952,0,0,0.66850952,-1.9556956,0.45167241)"
     style="fill:#ffffff" /><polygon
     points="31.8606,75.71188 32.10099,75.70226 32.0433,75.94266 31.8606,76.11575 31.4952,76.0292 31.47597,75.92342 31.20672,75.87535 31.77406,75.45226 "
     id="polygon40"
     transform="matrix(0.66850952,0,0,0.66850952,-1.9556956,0.45167241)"
     style="fill:#ffffff" /><polygon
     points="44.52459,23.35871 44.26497,23.79142 44.03419,24.03663 43.9188,24.22413 43.84668,24.03663 44.04861,23.60392 44.45247,23.15678 "
     id="polygon42"
     transform="matrix(0.66850952,0,0,0.66850952,-1.9556956,0.45167241)"
     style="fill:#ffffff" /><polygon
     points="48.73631,20.71918 48.95266,20.53167 49.0969,20.71918 48.9166,21.07977 48.73631,20.97881 "
     id="polygon44"
     transform="matrix(0.66850952,0,0,0.66850952,-1.9556956,0.45167241)"
     style="fill:#ffffff" /><polygon
     points="50.82774,19.38499 50.61139,19.19027 50.27964,19.3922 50.52485,19.83933 50.77005,19.70952 51.11621,19.61577 51.30372,19.3922 51.52008,18.93064 51.23161,19.10373 51.0441,19.03161 50.89986,19.13257 50.97198,19.30566 "
     id="polygon46"
     transform="matrix(0.66850952,0,0,0.66850952,-1.9556956,0.45167241)"
     style="fill:#ffffff" /><polygon
     points="53.56824,18.09407 53.69806,18.39697 53.97211,18.24552 54.05865,17.94983 53.7269,17.94983 "
     id="polygon48"
     transform="matrix(0.66850952,0,0,0.66850952,-1.9556956,0.45167241)"
     style="fill:#ffffff" /><polygon
     points="51.64989,19.47874 51.2893,19.6951 51.17391,19.98357 51.17391,20.32974 51.30372,20.32974 51.73643,19.83933 "
     id="polygon50"
     transform="matrix(0.66850952,0,0,0.66850952,-1.9556956,0.45167241)"
     style="fill:#ffffff" /></svg>