<?xml version="1.0" encoding="UTF-8" standalone="no"?><svg aria-hidden="true" focusable="false" data-prefix="ds" data-icon="shoe-dirty" class="svg-inline--fa fa-shoe-dirty fa-w-34 fa-fw Filter_ItemIcon__1Ial8" role="img" xmlns="http://www.w3.org/2000/svg" viewBox="0 0 512 246.8">
      <path fill="#FFFFFF" d="M498.9,181L498.9,181c0-1.1-1.1-14.8-13.7-23.9c-12.5-10.2-39.8-17.1-70.5-17.1c-21.6,0-54.6-4.6-80.8-12.5v-1.1  c3.4-5.7,1.1-13.7-4.6-17.1s-13.7-1.1-17.1,4.6l-2.3,4.6c-2.3-1.1-4.6-2.3-5.7-3.4l3.4-5.7c3.4-5.7,1.1-13.7-4.6-17.1  s-13.7-1.1-17.1,4.6l-2.3,4.6c-2.3-1.1-3.4-2.3-5.7-3.4l3.4-5.7c3.4-5.7,1.1-13.7-4.6-17.1s-13.7-1.1-17.1,4.6l-2.3,3.4  c-2.3-1.1-3.4-2.3-5.7-3.4l3.4-5.7c1.1-2.3,1.1-3.4,1.1-5.7c13.7-1.1,33,1.1,50.1,10.2c1.1,1.1,2.3,1.1,3.4,1.1  c2.3,0,5.7-1.1,6.8-3.4c2.3-3.4,1.1-8-3.4-10.2c-18.2-10.2-36.4-12.5-52.3-12.5c2.3-3.4,4.6-5.7,6.8-9.1c4.6-9.1,6.8-17.1,5.7-23.9  C270.9,10.5,263,1.4,253.9,0.2c-6.8-1.1-13.7,2.3-20.5,8c-9.1,8-14.8,19.3-15.9,29.6c-1.1,6.8,1.1,14.8,4.6,20.5  c-1.1,0-1.1-1.1-2.3-1.1c0,0-11.4-6.8-17.1,2.3c-5.7,9.1-45.5,33-80.8,35.3c-10.2,0-22.8-2.3-36.4-6.8c-3.4,5.7-11.4,8-18.2,4.6  s-9.1-10.2-8-17.1c-8-4.6-15.9-9.1-23.9-15.9c-4.6-3.4-12.5-5.7-17.1,1.1c0,0-17.1,38.7-18.2,67.1s6.8,64.8,6.8,64.8s0,2.3,0,6.8  l2.3,22.8c0,0,8,13.7,27.3,13.7c5.7,0,103.5,1.1,103.5,1.1s167.2,14.8,224.1,8c25-3.4,50.1-9.1,75.1-15.9  c5.7-1.1,51.2-13.7,62.6-19.3c5.7-1.1,10.2-6.8,10.2-13.7C512.6,187.8,506.9,181,498.9,181z M39.4,194.6c0-14.8,13.7-27.3,28.4-26.2  c14.8,0,27.3,13.7,26.2,28.4L39.4,194.6z M104.2,170.8c-8,2.3-17.1-2.3-19.3-11.4c-2.3-8,2.3-17.1,11.4-19.3  c9.1-2.3,17.1,2.3,19.3,11.4C117.9,159.4,113.3,167.3,104.2,170.8z M132.7,187.8c-4.6,1.1-9.1-1.1-10.2-5.7s1.1-9.1,6.8-10.2  c4.6-1.1,9.1,1.1,10.2,5.7C140.6,182.1,137.2,186.7,132.7,187.8z M232.8,38.8c1.1-6.8,4.6-14.8,11.4-19.3c3.4-2.3,5.7-4.6,8-4.6l0,0  c2.3,0,5.7,3.4,5.7,6.8c1.1,4.6,0,9.1-3.4,14.8c-4.6,8-10.2,13.7-17.1,18.2C235,50.2,232.8,44.5,232.8,38.8z M360.2,231.1  c-10.2,1.1-19.3-5.7-20.5-15.9l36.4-3.4C377.2,220.8,370.4,229.9,360.2,231.1z M447.8,158.2c3.4,0,6.8,3.4,6.8,6.8  c0,4.6-3.4,6.8-6.8,6.8s-6.8-3.4-6.8-6.8C440.9,161.7,444.3,158.2,447.8,158.2z M423.9,201.5c-2.3-9.1,3.4-17.1,12.5-19.3  c9.1-2.3,17.1,3.4,19.3,12.5L423.9,201.5z M466,178.7c-2.3,0-4.6-2.3-4.6-5.7c0-3.4,2.3-5.7,4.6-5.7c2.3,0,5.7,2.3,5.7,5.7  C471.6,176.4,469.4,178.7,466,178.7z"></path>
   </svg>