<?xml version="1.0" encoding="UTF-8" standalone="no"?><svg aria-hidden="true" focusable="false" data-prefix="ds" data-icon="family" class="svg-inline--fa fa-family fa-w-16 fa-fw Filter_ItemIcon__1Ial8" role="img" xmlns="http://www.w3.org/2000/svg" viewBox="0 0 512 512">
      <path fill="#FFFFFF" d="M504.8,512V342c0-64.5-52.2-116.7-116.7-116.7H384c-31.7,0-61.4,12.3-84,35.8c-1,0-2,1-3.1,2  c0-1,0-1,0-1c0-55.3-31.7-87-88.1-87l0,0c-25.6,0-45.1,7.2-60.4,19.5H87c-44,0-79.9,35.8-79.9,79.9V512 M307.2,512h-33.8v-57.3  c0-5.1,1-10.2,4.1-15.4c3.1-7.2,9.2-12.3,15.4-16.4c5.1-3.1,10.2-4.1,15.4-4.1h1h50.2c16.4,0,35.8,16.4,35.8,35.8V512H307.2  L307.2,512z M140.3,512V391.2c0-22.5,18.4-41,41-41h55.3c3.1,0,6.1,1,9.2,2c3.1,1,6.1,2,9.2,4.1c2,11.3,6.1,21.5,12.3,29.7  c3.1,4.1,6.1,8.2,9.2,11.3c-3.1,2-6.1,4.1-9.2,7.2c-10.2,8.2-17.4,19.5-21.5,31.7c-2,6.1-3.1,12.3-3.1,19.5V512H140.3L140.3,512z   M251.9,303.1c-2,2-4.1,3.1-6.1,5.1c-11.3,7.2-23.6,10.2-36.9,9.2l0,0c-37.9,0-57.3-18.4-57.3-57.3c0-35.8,17.4-54.3,53.2-55.3  c1,0,2,0,3.1,0l0,0c37.9,0,57.3,18.4,57.3,56.3C265.2,279.6,260.1,293.9,251.9,303.1 M385,335.9c0,16.4-4.1,29.7-12.3,37.9  c-8.2,8.2-21.5,12.3-37.9,12.3l0,0c-9.2,0-19.5-2-27.6-6.1c-14.3-7.2-21.5-20.5-22.5-41c0-1,0-2,0-3.1c0-16.4,4.1-28.7,12.3-36.9  c8.2-8.2,21.5-12.3,37.9-12.3l0,0c17.4,0,30.7,4.1,38.9,12.3C380.9,307.2,385,319.5,385,335.9 M385,205.8c58.4,0,87-32.8,87-87  s-29.7-86-87-86c-58.4,0-87,31.7-87,86C298,174.1,327.7,205.8,385,205.8 M126,173.1c58.4,0,87-32.8,87-87S184.3,0,126,0  c-57.3,0-87,31.7-87,86S67.6,173.1,126,173.1"></path>
   </svg>