<?xml version="1.0" encoding="UTF-8" standalone="no"?><svg aria-hidden="true" focusable="false" data-prefix="ds" data-icon="family-heart" class="svg-inline--fa fa-family-heart fa-w-16 fa-fw Filter_ItemIcon__1Ial8" role="img" xmlns="http://www.w3.org/2000/svg" viewBox="0 0 512 512">
      <path fill="#FFFFFF" d="M401.4,359.3h-3.2c-1.1,0-1.7,0.5-1.7,1.6v73.3c2.2-2,4.4-4,6.5-6v-67.3C403,359.7,402.5,359.3,401.4,359.3L401.4,359.3z   M401.4,359.3 M447.7,250.3h-3.3c-0.9,0-1.6,0.7-1.6,1.6v133.2c6.2-7.8,12.2-15.8,17.7-24c-6.5-1.8-11.2-7.8-11.2-14.8  c0,0,0-94.3,0-94.3C449.3,251,448.6,250.3,447.7,250.3L447.7,250.3z M447.7,250.3 M37,241.7c3.5-12.3,12.1-40.2,36.4-40.2h65.1  c26,0,32.8,27.9,36.3,40.2c0,0,23.1,75.6,23.1,75.6c2.5,8.2-2.1,16.8-10.2,19.3c-8.1,2.5-16.8-2.1-19.3-10.2  c0,0-23.1-75.3-23.1-75.3c-0.1-0.3-0.8-1.6-2.4-1.6h-3.3c-0.9,0-1.4,0.8-1.2,1.6l46.2,151.2c0.2,0.9,0,2.4-1.6,2.4h-32.4  c-0.9,0-1.6,0.7-1.6,1.7c0,0,0,27.4,0,54.9c25.2,18.1,52.1,32.8,79.7,42.7c0-17.2,0-34.7,0-34.7c0-0.6-0.4-1-1-1h-19.7  c-1,0-1.1-1-1-1.5l28.4-93.3c0.1-0.5-0.2-1-0.7-1h-4.5c-1,0-1.4,0.8-1.5,1l-14.1,46.1c-1.5,5-6.9,7.8-11.9,6.3  c-5-1.5-7.9-6.9-6.3-11.9c0,0,14.2-46.4,14.3-46.6c2.2-7.6,10-24.8,25-24.8h40.9c16.1,0,22.5,17.2,24.7,24.8  c0.1,0.2,0.1,0.4,0.2,0.6c5.7,18.7,14.1,46,14.1,46c1.6,5-1.3,10.3-6.3,11.9c-5,1.6-10.3-1.3-11.9-6.3c0,0-14.2-46.1-14.2-46.1  c-0.1-0.2-0.5-1-1.5-1h-4.3c-0.6,0-0.8,0.5-0.7,1l28.4,93.3c0.1,0.5,0,1.5-1,1.5h-18.9c-0.6,0-1,0.5-1,1v34.3  c24.9-9.1,49.4-22,72.5-37.9V251.9c0-0.9-0.7-1.6-1.6-1.6h-3.3c-0.9,0-1.6,0.7-1.6,1.6l0,94.3c0,8.5-6.9,15.4-15.4,15.4  c-8.5,0-15.5-6.9-15.5-15.4V238.9c0-21.1,16.3-37.4,36.6-37.4h87.8c20.3,0,36.6,16.3,36.6,37.4v89.8c40.5-75.5,47.1-156.9-8.9-210.3  c-93.5-85.7-199.8,17.6-213.5,31.7c-0.8,0.8-1.7,1.5-1.9,1.5c-0.2,0-1.1-0.7-1.9-1.5c-13.7-14.1-119.9-117.4-213.5-31.7  c-49.3,46.9-50.1,115.7-21.9,183C25.5,279.3,37,241.8,37,241.7L37,241.7z M399.7,133.3c16.4,0,29.6,13.3,29.6,29.6  c0,16.4-13.3,29.6-29.6,29.6c-16.4,0-29.6-13.3-29.6-29.6C370.1,146.6,383.4,133.3,399.7,133.3L399.7,133.3z M229.1,299.3  c4-0.4,8.1,1.6,11.1,3.5c0.8,0.5,1.9,0.4,2.6-0.2c3.5-3.1,8.2-5,13.3-5c5.3,0,10.1,2,13.7,5.4c0.7,0.6,1.8,0.7,2.6,0.2  c3.1-2.1,7.5-4.3,11.7-3.9c7,0.7,8.5,8.7,6.6,14.2c-0.3,0.9-1,2.3-1.4,3.1c-2.5,5.1-5,11.1-6.6,11.2c-1.6,0.2,3.5-12.2-0.2-16.1  c-0.6-0.7-2.2-1-3.1-0.9c-0.7,0.1-1.5,0.2-2.5,0.5c-0.9,0.3-1.3,1.4-1.2,2.3c0.3,1.3,0.4,2.7,0.4,4c0,11.1-9,20.2-20.1,20.2  c-11.1,0-20.2-9-20.2-20.2c0-1.5,0.2-3,0.5-4.4c0.2-0.9-0.3-1.9-1.2-2.2c-0.6-0.1-1.1-0.2-1.6-0.3c-0.9-0.1-2.5,0.2-3.1,0.9  c-3.7,3.9,1.5,16.3-0.2,16.1c-1.6-0.2-4.1-6.1-6.6-11.2c-0.4-0.9-1.1-2.2-1.4-3.1C220.7,308,222.2,300,229.1,299.3L229.1,299.3z   M106,133.3c16.4,0,29.6,13.3,29.6,29.6c0,16.4-13.3,29.6-29.6,29.6c-16.4,0-29.6-13.3-29.6-29.6C76.3,146.5,89.6,133.3,106,133.3  L106,133.3z M106,133.3 M256.1,512c1.2-0.3,2.4-0.6,3.6-0.9v-41.9c0-0.6-0.6-1-1-1h-4.3c-0.6,0-1,0.5-1,1v42.1  c0.9,0.2,1.7,0.4,2.6,0.6H256.1z M256.1,512 M73.4,251c0.2-0.9-0.3-1.7-1.2-1.6h-3.3c-1.6,0-2.3,1.3-2.4,1.6l-23.1,75.3  c-1.3,4.2-4.2,7.5-7.9,9.3c2.6,4.5,5.2,9,8,13.4L73.4,251z M73.4,251 M107.6,404.7h-3.2c-0.9,0-1.7,0.7-1.7,1.7v15.8  c2.2,2.1,4.4,4.2,6.6,6.3v-22.1C109.2,405.4,108.5,404.7,107.6,404.7L107.6,404.7z M107.6,404.7"></path>
   </svg>