<?xml version="1.0" encoding="UTF-8" standalone="no"?>
<svg
   xmlns:dc="http://purl.org/dc/elements/1.1/"
   xmlns:cc="http://creativecommons.org/ns#"
   xmlns:rdf="http://www.w3.org/1999/02/22-rdf-syntax-ns#"
   xmlns:svg="http://www.w3.org/2000/svg"
   xmlns="http://www.w3.org/2000/svg"
   xmlns:sodipodi="http://sodipodi.sourceforge.net/DTD/sodipodi-0.dtd"
   xmlns:inkscape="http://www.inkscape.org/namespaces/inkscape"
   version="1.1"
   id="Слой_1"
   x="0px"
   y="0px"
   viewBox="0 0 55.000002 54.999999"
   xml:space="preserve"
   sodipodi:docname="family.svg"
   width="55"
   height="55"
   inkscape:version="1.0.1 (0767f8302a, 2020-10-17)"><metadata
   id="metadata10"><rdf:RDF><cc:Work
       rdf:about=""><dc:format>image/svg+xml</dc:format><dc:type
         rdf:resource="http://purl.org/dc/dcmitype/StillImage" /><dc:title></dc:title></cc:Work></rdf:RDF></metadata><defs
   id="defs8" /><sodipodi:namedview
   pagecolor="#ffffff"
   bordercolor="#666666"
   borderopacity="1"
   objecttolerance="10"
   gridtolerance="10"
   guidetolerance="10"
   inkscape:pageopacity="0"
   inkscape:pageshadow="2"
   inkscape:window-width="1422"
   inkscape:window-height="773"
   id="namedview6"
   showgrid="false"
   inkscape:zoom="2"
   inkscape:cx="55.257733"
   inkscape:cy="55.792822"
   inkscape:window-x="72"
   inkscape:window-y="27"
   inkscape:window-maximized="0"
   inkscape:current-layer="Слой_1" />
<style
   type="text/css"
   id="style2">
	.st0{fill:#2C4351;}
</style>
<path
   id="family"
   class="st0"
   d="m 29.072542,48.025163 v -4.449388 c 0,-0.400444 0.08899,-0.800889 0.266963,-1.15684 0.266964,-0.533927 0.667408,-0.978865 1.201335,-1.245829 0.355952,-0.222469 0.80089,-0.311457 1.201335,-0.355951 0.0445,0 0.08899,-0.0445 0.08899,-0.0445 h 3.915461 c 1.245828,0 2.803114,1.290323 2.803114,2.803115 v 4.449391 h 8.542824 V 34.765988 c 0,-5.072302 -4.093436,-9.165739 -9.165738,-9.165739 h -0.311457 c -2.447163,0 -4.805339,0.978865 -6.5406,2.75862 -0.08899,0.0445 -0.177975,0.08899 -0.266964,0.133482 0,-0.0445 0,-0.08899 0,-0.133482 0,-4.315906 -2.491657,-6.807563 -6.852057,-6.807563 v 0 c -1.95773,0 -3.55951,0.533926 -4.716351,1.512792 H 14.56754 c -3.470523,0 -6.229143,2.803115 -6.229143,6.229143 v 18.687428 m 10.32258,0.0445 v 0 -9.477196 c 0,-1.779755 1.423804,-3.203559 3.203559,-3.203559 h 4.315906 c 0.266964,0 0.489433,0.0445 0.756396,0.133481 0.266963,0.08899 0.489432,0.177975 0.711903,0.311457 0.13348,0.845384 0.444938,1.646274 0.934371,2.358176 0.222469,0.311457 0.444939,0.622915 0.756395,0.889877 -0.266963,0.133482 -0.489432,0.311458 -0.756395,0.533927 -0.756396,0.667408 -1.334817,1.512792 -1.646274,2.491657 -0.133481,0.489433 -0.222469,0.978866 -0.266963,1.512792 v 4.449388 m 0.711902,-16.329254 c -0.133482,0.133482 -0.311457,0.266964 -0.489433,0.400446 -0.845384,0.533926 -1.868743,0.800889 -2.892102,0.756395 v 0 c -2.981089,0 -4.449388,-1.468298 -4.449388,-4.449387 0,-2.847609 1.37931,-4.226919 4.182425,-4.315906 0.08899,0 0.177976,-0.0445 0.266963,-0.0445 v 0 c 2.98109,0 4.449388,1.423804 4.449388,4.3604 0,1.423805 -0.355951,2.536151 -1.067853,3.292547 m 10.411567,2.580645 c 0,1.290322 -0.311457,2.313681 -0.978865,2.936596 -0.622914,0.667408 -1.646273,0.978866 -2.98109,0.978866 v 0 c -0.756396,0 -1.468298,-0.177976 -2.135706,-0.489433 -1.112347,-0.533927 -1.690768,-1.60178 -1.735261,-3.20356 0,-0.08899 -0.0445,-0.177975 -0.0445,-0.266962 0,-1.290323 0.311457,-2.269189 0.934372,-2.892103 0.622914,-0.622914 1.646273,-0.978865 2.981089,-0.978865 v 0 c 1.334817,0 2.358176,0.311457 3.025584,0.978865 0.622915,0.667409 0.934371,1.646273 0.934371,2.936596 m 0.0445,-10.144605 c 4.538376,0 6.807563,-2.580644 6.807563,-6.807562 0,-4.271413 -2.269187,-6.718576 -6.807563,-6.674083 -4.538375,0 -6.807564,2.491658 -6.807564,6.718577 0,4.226918 2.269189,6.763068 6.807564,6.763068 M 17.593122,21.551306 c 4.538375,0 6.807564,-2.536152 6.807564,-6.807564 0,-4.271412 -2.269189,-6.7185751 -6.807564,-6.7185751 -4.538376,0 -6.807564,2.4471631 -6.807564,6.6740821 0,4.271412 2.269188,6.852057 6.807564,6.852057"
   style="fill:#ffffff;stroke-width:0.444939" />
</svg>
