<?xml version="1.0" encoding="UTF-8" standalone="no"?><svg aria-hidden="true" focusable="false" data-prefix="ds" data-icon="fav-kitchen-item" class="svg-inline--fa fa-fav-kitchen-item fa-w-16 fa-fw Filter_ItemIcon__1Ial8" role="img" xmlns="http://www.w3.org/2000/svg" viewBox="0 0 512 512">
      <path fill="#FFFFFF" d="M498.6,109.4l-93.8-93.8C386.1-3.1,356.3-2,339.8,17.8L233.9,141.4c-15.4,17.6-14.3,45.2,2.2,61.8l25.4,25.4L200.8,287  l-7.7-7.7c-6.6-6.6-17.6-6.6-24.3,0L14.3,433.7c-17.6,17.6-17.6,47.4,0,65.1c17.6,17.6,47.4,17.6,65.1,0l154.4-154.4  c6.6-6.6,6.6-17.6,0-24.3l-7.7-7.7l59.6-59.6l25.4,25.4c16.5,16.5,44.1,17.6,61.8,2.2l123.5-105.9  C516.3,157.9,517.4,128.1,498.6,109.4z M64,474.5c-6.6,6.6-17.6,6.6-24.3,0c-6.6-6.6-6.6-17.6,0-24.3c6.6-6.6,17.6-6.6,24.3,0  C70.6,456.8,70.6,467.9,64,474.5z M405.9,77.4c4.4,4.4,4.4,9.9,0,14.3l-107,112.5c-2.2,2.2-4.4,3.3-7.7,3.3c-2.2,0-5.5-1.1-6.6-3.3  c-4.4-4.4-4.4-9.9,0-14.3l107-112.5C394.9,73,401.5,73,405.9,77.4z M257,162.3l101.5-118c3.3-4.4,9.9-4.4,14.3-1.1  c4.4,4.4,4.4,11,1.1,15.4l-101.5,118c-2.2,2.2-4.4,3.3-7.7,3.3c-2.2,0-4.4-1.1-6.6-2.2C253.7,173.4,252.6,166.7,257,162.3z   M318.8,234c-2.2,0-5.5-1.1-7.7-3.3c-4.4-4.4-3.3-11,0-14.3l112.5-107c4.4-4.4,11-3.3,14.3,0c4.4,4.4,3.3,11,0,14.3l-112.5,107  C324.3,232.9,321,234,318.8,234z M469.9,157.9L353,259.4c-2.2,2.2-4.4,2.2-6.6,2.2c-3.3,0-5.5-1.1-7.7-3.3c-3.3-4.4-3.3-11,1.1-14.3  l118-101.5c4.4-3.3,11-3.3,14.3,1.1C475.4,146.9,474.3,153.5,469.9,157.9z M16.6,106.1l89.4,83.8c2.2,2.2,5.5,3.3,8.8,3.3  c3.3,0,6.6-1.1,8.8-3.3l89.4-82.7c11-11,16.5-26.5,16.5-46.3c0-38.6-22.1-59.6-58.5-59.6c-28.7,0-48.5,12.1-56.3,36.4  C108.1,13.4,88.3,1.3,59.6,1.3C23.2,1.3,0,22.2,0,60.8C0,78.5,4.4,95,16.6,106.1z"></path>
   </svg>