<?xml version="1.0" encoding="UTF-8" standalone="no"?><svg aria-hidden="true" focusable="false" data-prefix="ds" data-icon="house-floor" class="svg-inline--fa fa-house-floor fa-w-16 fa-fw Filter_ItemIcon__1Ial8" role="img" xmlns="http://www.w3.org/2000/svg" viewBox="0 0 512 512">
      <path fill="#FFFFFF" d="M502.2,135.4L263.4,2.5c-4.9-2.5-11.1-2.5-16,0L8.6,135.4C3.7,137.8,0,144,0,150.2v4.9c0,12.3,13.5,20.9,24.6,14.8l8.6-4.9  V496c0,8.6,7.4,16,17.2,16h4.9c9.8,0,17.2-7.4,17.2-17.2V145.2c0-1.2,0-2.5,0-2.5l174.8-97.2c4.9-2.5,11.1-2.5,16,0l176,97.2  c0,1.2,0,1.2,0,2.5v349.5c0,9.8,7.4,17.2,17.2,17.2h4.9c9.8,0,17.2-7.4,17.2-17.2V163.7l8.6,4.9c11.1,6.2,24.6-2.5,24.6-14.8v-4.9  C510.8,144,508.3,137.8,502.2,135.4z M365.5,402.5H144c-23.4,0-43.1,19.7-43.1,43.1s19.7,43.1,43.1,43.1h221.5  c23.4,0,43.1-19.7,43.1-43.1C408.6,422.2,390.2,402.5,365.5,402.5z"></path>
   </svg>