<?xml version="1.0" encoding="UTF-8" standalone="no"?><svg aria-hidden="true" focusable="false" data-prefix="ds" data-icon="freezer" class="svg-inline--fa fa-freezer fa-w-16 fa-fw Filter_ItemIcon__1Ial8" role="img" xmlns="http://www.w3.org/2000/svg" viewBox="0 0 512 512">
      <path fill="#FFFFFF" d="M341.1,234.7L341.1,234.7h-23l11.5-21.9c3.5-5.8,1.2-13.8-4.6-17.3s-13.8-1.2-17.3,4.6l-19.6,34.5h-26.5l-16.1-27.6  l13.8-24.2h39.1c6.9,0,12.7-5.8,12.7-12.7c0-6.9-5.8-12.7-12.7-12.7h-25.3l11.5-20.7c3.5-5.8,1.2-13.8-4.6-17.3  c-5.8-3.5-13.8-1.2-17.3,4.6l-11.5,19.6L238.7,122c-3.5-5.8-11.5-8.1-17.3-4.6c-5.8,3.5-8.1,11.5-4.6,17.3l20.7,34.5l-13.8,25.3  h-31.1l-13.8-25.3l20.7-34.5c3.5-5.8,1.2-13.8-4.6-17.3c-5.8-3.5-13.8-1.2-17.3,4.6l-16.1,21.9l-11.5-19.6  c-3.5-5.8-11.5-8.1-17.3-4.6c-5.8,3.5-8.1,11.5-4.6,17.3l11.5,20.7h-24.2c-6.9,0-12.7,5.8-12.7,12.7c0,6.9,5.8,12.7,12.7,12.7h39.1  l13.8,24.2l-16.1,28.8h-27.6l-19.6-34.5c-3.5-5.8-11.5-8.1-17.3-4.6c-5.8,3.5-8.1,11.5-4.6,17.3l11.5,21.9h-23l0,0  c-6.9,0-12.7,5.8-12.7,12.7c0,6.9,5.8,12.7,12.7,12.7h21.9L81.1,283c-3.5,5.8-1.2,13.8,4.6,17.3c2.3,1.2,4.6,2.3,6.9,2.3  c4.6,0,9.2-2.3,11.5-6.9l19.6-34.5h27.6l17.3,27.6L154.7,313h-39.1c-6.9,0-12.7,5.8-12.7,12.7s5.8,12.7,12.7,12.7h25.3L129.4,359  c-3.5,5.8-1.2,13.8,4.6,17.3c2.3,1.2,4.6,1.2,5.8,1.2c4.6,0,9.2-2.3,11.5-6.9l11.5-19.6l12.7,21.9c2.3,4.6,6.9,6.9,11.5,6.9  c2.3,0,4.6-1.2,6.9-2.3c5.8-3.5,8.1-11.5,4.6-17.3l-20.7-34.5l13.8-24.2h32.2l13.8,24.2l-20.7,34.5c-3.5,5.8-1.2,13.8,4.6,17.3  c2.3,1.2,4.6,2.3,6.9,2.3c4.6,0,9.2-2.3,11.5-6.9l12.7-21.9l11.5,19.6c2.3,4.6,6.9,6.9,11.5,6.9c2.3,0,4.6,0,5.8-1.2  c5.8-3.5,8.1-11.5,4.6-17.3l-11.5-20.7h25.3c6.9,0,12.7-5.8,12.7-12.7s-5.8-12.7-12.7-12.7h-39.1l-16.1-25.3l15-26.5h29.9l19.6,34.5  c2.3,4.6,6.9,6.9,11.5,6.9c2.3,0,4.6,0,6.9-2.3c5.8-3.5,8.1-11.5,4.6-17.3l-12.7-21.9h21.9c6.9,0,12.7-5.8,12.7-12.7  C353.8,240.5,348,234.7,341.1,234.7z M191.5,276.1L191.5,276.1l-17.3-27.6v-1.2l0,0l16.1-26.5h32.2l15,24.2L220.3,275L191.5,276.1  L191.5,276.1z M481.5,46h-20.7V35.7c0-19.6-16.1-35.7-35.7-35.7h-58.7v501.6c0,5.8,4.6,10.4,10.4,10.4h26.5  c5.8,0,10.4-4.6,10.4-10.4v-13.8H424c19.6,0,35.7-16.1,35.7-35.7V180.6h20.7c16.1,0,29.9-13.8,29.9-29.9V75.9  C511.4,58.7,497.6,46,481.5,46z M480.3,149.6h-19.6V75.9h19.6V149.6z M40.8,417.7V87.4c0-10.4,10.4-19.6,23-19.6h269.2V27.6H63.8  c-34.5,0-62.1,26.5-62.1,59.8v330.2c0,31.1,24.2,56.4,56.4,58.7v1.2v23c0,6.9,5.8,11.5,11.5,11.5h27.6c6.9,0,11.5-5.8,11.5-11.5  v-21.9v-1.2h224.4v-39.1H63.8C51.2,438.4,40.8,429.2,40.8,417.7z"></path>
   </svg>