<?xml version="1.0" encoding="UTF-8" standalone="no"?><svg aria-hidden="true" focusable="false" data-prefix="ds" data-icon="house-key" class="svg-inline--fa fa-house-key fa-w-16 fa-fw Filter_ItemIcon__1Ial8" role="img" xmlns="http://www.w3.org/2000/svg" viewBox="0 0 512 512">
      <path fill="#FFFFFF" d="M510,376.4l-87.2-59.2c11.8-71-15.1-104.4-28-115.2c3.2-8.6,4.3-18.3,4.3-29.1c0-48.4-39.8-88.3-88.3-88.3  c-34.4,0-63.5,19.4-78.6,48.4l0,0H27.7c-3.2,0-7.5,1.1-9.7,4.3l-14,14c-5.4,5.4-5.4,14,0,19.4l18.3,18.3c5.4,5.4,14,5.4,19.4,0  l6.5-6.5c5.4-5.4,14-5.4,19.4,0l6.5,6.5c5.4,5.4,14,5.4,19.4,0l7.5-7.5c5.4-5.4,14-5.4,19.4,0c5.4,5.4,14,5.4,19.4,0l2.2-2.2  c5.4-5.4,14-5.4,19.4,0l28,28c2.2,2.2,6.5,4.3,9.7,4.3H229c14,29.1,44.1,49.5,78.6,49.5c32.3,0,61.4-18.3,76.4-44.1  c10.8,11.8,29.1,39.8,19.4,98h1.1l-86.1,61.4c-2.2,1.1-3.2,3.2-3.2,6.5v121.6c0,4.3,3.2,7.5,7.5,7.5H412c4.3,0,7.5-3.2,7.5-7.5  v-75.4c0-4.3,3.2-7.5,7.5-7.5h35.5c4.3,0,7.5,3.2,7.5,7.5v75.4c0,4.3,3.2,7.5,7.5,7.5h24.8c4.3,0,7.5-3.2,7.5-7.5V381.8  C513.2,379.6,512.1,377.4,510,376.4z M362.5,190.1c-8.6,0-16.1-7.5-16.1-16.1s7.5-16.1,16.1-16.1c8.6,0,16.1,7.5,16.1,16.1  S371.1,190.1,362.5,190.1z M391.6,454.9c0,4.3-3.2,7.5-7.5,7.5h-25.8c-4.3,0-7.5-3.2-7.5-7.5v-20.5c0-4.3,3.2-7.5,7.5-7.5H384  c4.3,0,7.5,3.2,7.5,7.5V454.9z"></path>
   </svg>