<?xml version="1.0" encoding="UTF-8" standalone="no"?><svg aria-hidden="true" focusable="false" data-prefix="ds" data-icon="cherries" class="svg-inline--fa fa-cherries fa-w-16 fa-fw Filter_ItemIcon__1Ial8" role="img" xmlns="http://www.w3.org/2000/svg" viewBox="0 0 512 512">
      <path fill="#FFFFFF" d="M381.7,258.7c-7.6,3.2-14.1,7.6-18.4,11.9C313.6,215.5,306,84.7,306,56.6c7.6,3.2,17.3,6.5,28.1,11.9  c5.4,17.3,38.9,107,157.9,122.2l11.9,1.1l3.2-11.9c1.1-2.2,16.2-50.8-13-90.8C469.3,54.4,418.4,39.3,346,45.7l-6.5,1.1  C325.4,40.3,313.6,36,306,32.8v-1.1L250.8,22l0,0c-2.2,0-5.4,1.1-7.6,2.2C146,89,113.5,249,104.9,304.2c-9.7-3.2-21.6-6.5-30.3-5.4  C57.3,299.8-1.1,322.5,0,392.8c1.1,71.4,53,114.6,112.4,118.9c58.4,4.3,127.6-50.8,124.3-122.2s-64.9-85.4-84.3-86.5  c-7.6,0-13,0-18.4,2.2c8.6-53,38.9-186,113.5-246.5h29.2c1.1,32.4,8.6,160,59.5,224.9c-8.6,1.1-19.5,4.3-25.9,7.6  c-14.1,8.6-57.3,55.1-24.9,116.8s98.4,77.8,152.5,55.1c54.1-22.7,91.9-101.6,57.3-164.3C461.7,236,400.1,251.2,381.7,258.7z   M375.2,87.9c34.6,18.4,71.4,41.1,94.1,68.1C418.4,142,390.3,110.6,375.2,87.9z M471.4,106.3c7.6,10.8,10.8,22.7,11.9,33.5  c-22.7-24.9-55.1-47.6-86.5-64.9C432.5,78.2,457.4,87.9,471.4,106.3z"></path>
   </svg>