<?xml version="1.0" encoding="UTF-8" standalone="no"?><svg aria-hidden="true" focusable="false" data-prefix="ds" data-icon="fruit-tree" class="svg-inline--fa fa-fruit-tree fa-w-16 fa-fw Filter_ItemIcon__1Ial8" role="img" xmlns="http://www.w3.org/2000/svg" viewBox="0 0 512 512">
      <path fill="#FFFFFF" d="M506.9,28.7c0,0-132.4,22.6-317.1,131.3c8.2-18.5,12.3-36.9,13.3-57.5c0-5.1,0-10.3,0-15.4c0-2.1,0-4.1,0-6.2V78l0,0  c-7.2-35.9-31.8-65.7-65.7-78c0,0-23.6,81.1,51.3,118c-6.2,26.7-21.5,49.3-42.1,66.7C97.5,215.5,50.3,249.3,5.1,285.2v92.3  C52.3,326.3,103.6,279.1,158,235c24.6-17.4,53.4-27.7,83.1-27.7c45.1-1,87.2,23.6,107.7,63.6c-17.4-12.3-39-19.5-60.5-18.5  c-58.5-1-77,64.6-77,115.9S259.6,512,310.9,512c39,0,45.1-13.3,45.1-13.3h1c0,0,6.2,13.3,45.1,13.3c51.3,0,99.5-92.3,99.5-143.6  s-18.5-117-77-115.9c-20.5-1-42.1,5.1-58.5,17.4c-5.1-10.3-11.3-20.5-18.5-29.8c14.4-2.1,96.4-18.5,100.6-123.1  c-63.6,6.2-107.7,59.5-104.7,121.1c-23.6-30.8-60.5-48.2-99.5-48.2c-10.3,0-20.5,1-30.8,3.1c89.3-67.7,187.8-119,293.5-152.9V28.7z"></path>
   </svg>