<?xml version="1.0" encoding="UTF-8" standalone="no"?><svg aria-hidden="true" focusable="false" data-prefix="ds" data-icon="glasses" class="svg-inline--fa fa-glasses fa-w-26 fa-fw Filter_ItemIcon__1Ial8" role="img" xmlns="http://www.w3.org/2000/svg" viewBox="0 0 512 322.3">
      <path fill="#FFFFFF" d="M141.5,295.6c-38.9,0-70.6-31.7-70.6-70.6s31.7-70.6,70.6-70.6s70.6,31.7,70.6,70.6l0,0  C212.1,263.9,180.4,295.6,141.5,295.6 M370.6,295.6c-38.9,0-70.6-31.7-70.6-70.6s31.7-70.6,70.6-70.6s70.6,31.7,70.6,70.6l0,0  C441.2,263.9,409.5,295.6,370.6,295.6 M511.8,222L482.1,82.9c-11.3-28.6-34.8-51.1-64.4-60.3c-7.2-2-15.3,1-17.4,8.2l0,0  c-2,7.2,2,15.3,9.2,17.4l0,0c4.1,1,8.2,3.1,12.3,5.1c15.3,8.2,26.6,20.5,33.8,36.8l16.4,73.6l10.2,47.1h-12.3  c-7.2-53.2-57.3-91-110.5-83.9c-36.8,5.1-67.5,30.7-79.8,66.5c-13.3-7.2-29.7-7.2-43,0c-17.4-51.1-72.6-79.8-123.8-62.4  c-35.8,11.3-61.4,43-66.5,79.8H32.1l10.2-47.1l15.3-72.6C63.7,74.7,76,60.4,92.4,52.2c4.1-2,8.2-3.1,12.3-5.1  c7.2-2,11.3-9.2,10.2-16.4c-2-7.2-10.2-12.3-17.4-10.2l0,0C66.8,29.7,43.3,53.2,32,82.9L0.4,222c-2,7.2,3.1,15.3,10.2,16.4l0,0h3.1  h3.1l0,0h26.6c8.2,53.2,58.3,91,111.5,82.8c46-7.2,81.8-46,83.9-93.1h1c1-7.2,8.2-12.3,15.3-12.3c7.2-1,14.3,5.1,15.3,12.3h1  c2,54.2,48.1,96.1,102.3,94.1c47.1-2,85.9-36.8,93.1-83.9h26.6l0,0h3.1h3.1C507.7,237.3,512.8,230.2,511.8,222  C510.7,222,510.7,222,511.8,222"></path>
   </svg>