<?xml version="1.0" encoding="UTF-8" standalone="no"?><svg aria-hidden="true" focusable="false" data-prefix="ds" data-icon="goat" class="svg-inline--fa fa-goat fa-w-16 fa-fw Filter_ItemIcon__1Ial8" role="img" xmlns="http://www.w3.org/2000/svg" viewBox="0 0 512 512">
      <path fill="#FFFFFF" d="M484,279.1c-11.4-15.9-21.8-26.7-38.5-36.5c-16.8-9.9-42-49.8-59.2-76.9c-17.2-27-33.7-29.2-76.3-36.7  c-9.1-1.6-17.5-1.5-25.6-0.6C233.9-44.3,91.8,7.2,91.8,7.2C188,8.8,218,111.6,226.2,153.2c-7.7,5.1-15.5,10.5-23.6,16  c5.8,9.4,7,15.6,4.3,23.5c-2.8-6.2-7.3-11.8-11.9-15.7c-0.5-0.4-1-0.7-1.5-1.1c-6.8-5.4-14.8-8.9-23.2-10.8  c-2.8-0.6-5.6-1.1-8.4-1.4c-13-1.4-26.3-1.2-39.3-0.2c-16,1.3-28.1,4.1-44.1,5.1c-11.4,0.6-22.7,4.2,8.2,23.3  c17.2,10.6,28.2,30.8,49.6,40.5c1.2,0.6,2.5,1,3.8,1.5c4.9,1.8,10.1,3.3,16.3,3.7c6.1,0.5,12.9-0.1,19.5-1.6  c-17.4,10.6-37.2,9-43.4,8.1c-5.4,7.5-8.7,12.4-8.7,12.4s-63.6,78.8-107,118.2c0,0,102.9,32.4,144.4,64.9  c41.5,32.5,62.1,72.4,62.1,72.4c16.3-30.6,15.8-72,19.3-91.3c3.5-19.3,27.3-35.3,34.9-42.9c7.6-7.6,16.9-23,16.9-23  c11,0.8,22.6-1.7,44.3-1.5c21.7,0.2,38,3.2,38,3.2s5,1.6,13,3.6c1.8,22,3.5,59.9-3,81.3c0,0,18.5-26.7,23.2-50.6  c0,0,4.8,26,5.5,38.3c0,0,12.3-33.2,18.1-62.8c17.4-0.3,30.1-5.5,36-12.7c7.2-8.9,8.4-23.1,11.5-28.1c3.1-5,3.5-2.7,10.6-8.1  S495.3,295,484,279.1z M348.3,216.3c-7.6,0-13.8-6.2-13.8-13.8s6.2-13.8,13.8-13.8s13.8,6.2,13.8,13.8S356,216.3,348.3,216.3z"></path>
   </svg>