<?xml version="1.0" encoding="UTF-8" standalone="no"?><svg aria-hidden="true" focusable="false" data-prefix="ds" data-icon="grains" class="svg-inline--fa fa-grains fa-w-16 fa-fw Filter_ItemIcon__1Ial8" role="img" xmlns="http://www.w3.org/2000/svg" viewBox="0 0 512 512">
      <path fill="#FFFFFF" d="M385.7,155.4c0,0,32-41.1,22.9-72c-9.1-30.9-34.3-58.3-34.3-58.3s-35.4,45.7-18.3,77.7C369.7,130.3,376.6,136,385.7,155.4z   M449.7,105.1c-30.9,10.3-46.9,59.4-46.9,59.4c19.4-3.4,28.6-1.1,60.6-5.7c36.6-4.6,53.7-59.4,53.7-59.4S480.6,94.9,449.7,105.1z   M477.1,60.6c11.4-20.6,2.3-56,0-60.6c0,0-35.4,9.1-49.1,34.3s1.1,58.3,1.1,58.3S466.8,81.1,477.1,60.6z M346.8,227.4  c0,0,34.3-44.6,21.7-74.3c-11.4-28.6-34.3-56-34.3-56s-35.4,45.7-14.9,84.6C338.8,220.6,344.6,220.6,346.8,227.4z M309.1,299.4  c0,0,34.3-43.4,21.7-72c-11.4-28.6-35.4-56-35.4-56s-32,43.4-17.1,74.3C293.1,277.7,303.4,288,309.1,299.4z M414.3,178.3  c-30.9,6.9-49.1,59.4-49.1,59.4c8-2.3,10.3,2.3,53.7-2.3c43.4-5.7,60.6-60.6,60.6-60.6S445.1,171.4,414.3,178.3z M373.1,252.6  c-30.9,6.9-46.9,59.4-46.9,59.4c12.6-1.1,27.4,1.1,61.7-4.6s51.4-57.1,51.4-57.1S404,245.7,373.1,252.6z M335.4,323.4  c-11.4,2.3-20.6,10.3-27.4,20.6c-1.1-4.6-3.4-8-8-9.1c-2.3-1.1-5.7-2.3-8-1.1c3.4-11.4,5.7-24,1.1-34.3c-11.4-28.6-35.4-56-35.4-56  s-32,43.4-17.1,74.3c11.4,25.1,20.6,37.7,27.4,46.9c-20.6,34.3-62.9,98.3-109.7,120c-6.9,3.4-10.3,12.6-6.9,19.4c2.3,4.6,8,8,13.7,8  c2.3,0,4.6,0,5.7-1.1c52.6-24,97.1-90.3,120-128c12.6-1.1,27.4,1.1,58.3-4.6c34.3-5.7,51.4-57.1,51.4-57.1S366.3,316.6,335.4,323.4z   M103.4,177.1c0,0,19.4-48,2.3-75.4c-16-27.4-49.1-46.9-49.1-46.9s-21.7,52.6,3.4,80C81.7,157.7,90.8,161.1,103.4,177.1z M152.6,112  c-26.3,18.3-28.6,69.7-28.6,69.7c18.3-9.1,27.4-9.1,57.1-21.7c33.1-13.7,35.4-70.9,35.4-70.9S178.8,93.7,152.6,112z M166.3,61.7  c4.6-22.9-13.7-53.7-16-58.3c0,0-32,18.3-37.7,46.9s17.1,56,17.1,56S161.7,84.6,166.3,61.7z M86.3,258.3c0,0,20.6-52.6,1.1-77.7  s-48-44.6-48-44.6s-21.7,53.7,8,84.6C77.1,253.7,82.8,251.4,86.3,258.3z M106.8,262.9c6.9-4.6,10.3,0,50.3-17.1s42.3-74.3,42.3-74.3  s-34.3,5.7-61.7,20.6C109.1,206.9,106.8,262.9,106.8,262.9z M181.1,253.7c0,0-35.4,5.7-62.9,20.6C106.8,280,100,291.4,96.6,304  c-2.3-3.4-5.7-5.7-10.3-6.9c-2.3,0-4.6,0-8,1.1c1.1-13.7,0-27.4-8-36.6c-19.4-25.1-49.1-44.6-49.1-44.6s-19.4,50.3,3.4,76.6  c18.3,21.7,30.9,30.9,38.9,38.9c-8,35.4-28.6,104-66.3,147.4c-3.4,5.7-3.4,16,3.4,20.6c2.3,2.3,5.7,3.4,9.1,3.4  c4.6,0,8-2.3,11.4-5.7c40-48,61.7-117.7,70.9-156.6c11.4-3.4,26.3-6.9,54.9-19.4C177.7,307.4,181.1,253.7,181.1,253.7z"></path>
   </svg>