<?xml version="1.0" encoding="UTF-8" standalone="no"?><svg aria-hidden="true" focusable="false" data-prefix="ds" data-icon="bed-guest" class="svg-inline--fa fa-bed-guest fa-w-16 fa-fw Filter_ItemIcon__1Ial8" role="img" xmlns="http://www.w3.org/2000/svg" viewBox="0 0 512 512">
      <path fill="#FFFFFF" d="M368.6,56.9h-23.9V42.1c0-22.8-19.3-42.1-42.1-42.1h-55.8c-22.8,0-42.1,19.3-42.1,42.1v14.8h-23.9v233.2h186.6L368.6,56.9  L368.6,56.9z M315.2,56.9h-79.6V42.1c0-6.8,5.7-12.5,12.5-12.5h55.8c6.8,0,12.5,5.7,12.5,12.5v14.8H315.2z M171.8,289V56.9  c-23.9,1.1-44.4,20.5-44.4,45.5v141.1C127.4,268.5,146.8,287.9,171.8,289z M423.3,243.5V102.4c0-25-19.3-44.4-44.4-45.5V289  C403.9,287.9,423.3,268.5,423.3,243.5z M430.1,341.3c-10.2,0-18.2,9.1-18.2,20.5v62.6H100.1V304.9c0-11.4-8-20.5-18.2-20.5  s-19.3,9.1-19.3,20.5V512h37.5v-53.5h311.8V512h37.5V361.8C449.4,350.4,440.3,341.3,430.1,341.3z M203.7,349.3v56.9h191.1v-11.4  c0-25-20.5-45.5-45.5-45.5H203.7z M139.9,400.5c20.5,10.2,41,8,47.8-6.8c5.7-14.8-4.6-35.3-25-46.6c-20.5-10.2-41-8-47.8,6.8  C109.2,368.6,120.6,389.1,139.9,400.5z"></path>
   </svg>