<?xml version="1.0" encoding="UTF-8" standalone="no"?><svg aria-hidden="true" focusable="false" data-prefix="ds" data-icon="hairbrush" class="svg-inline--fa fa-hairbrush fa-w-16 fa-fw Filter_ItemIcon__1Ial8" role="img" xmlns="http://www.w3.org/2000/svg" viewBox="0 0 512 512">
      <path fill="#FFFFFF" d="M508.3,149.4l-44.8-44.8l0,0l-42.3-42.3c-10-10-27.4-10-37.3,0L14,429.5c-18.7,18.7-18.7,49.8,0,68.5l0,0  c18.7,18.7,49.8,18.7,68.5,0l130.7-144.4l44.8,44.8c5,5,13.7,5,18.7,0c5-5,5-13.7,0-18.7l-31.1-31.1l-14.9-14.9c0,0-1.2,0-1.2-1.2  l0,0l-11.2-11.2c-5-5-5-13.7,0-18.7l1.2-1.2c5-5,13.7-5,18.7,0l11.2,11.2l0,0c0,0,0,0,0,1.2l3.7,3.7l41.1,41.1c5,5,13.7,5,18.7,0  c5-5,5-13.7,0-18.7l-22.4-22.4l-36.1-36.1c-5-5-5-13.7,0-18.7l1.2-1.2c5-5,13.7-5,18.7,0l57.3,57.3c5,5,13.7,5,18.7,0  c5-5,5-13.7,0-18.7l-33.6-33.6l-23.7-23.7c-5-5-5-13.7,0-18.7l1.2-1.2c5-5,13.7-5,18.7,0l51,51l7.5,7.5c5,5,13.7,5,18.7,0  c5-5,5-13.7,0-18.7l-33.6-33.6l-24.9-24.9c-5-5-5-13.7,0-18.7l1.2-1.2c5-5,13.7-5,18.7,0l57.3,57.3c5,5,13.7,5,18.7,0  c5-5,5-13.7,0-18.7l-33.6-33.6l-23.7-23.7c-5-5-5-13.7,0-18.7l1.2-1.2c5-5,13.7-5,18.7,0l57.3,57.3c5,5,13.7,5,18.7,0s5-13.7,0-18.7  l-36.1-36.1L408.7,127c-5-5-5-13.7,0-18.7l1.2-1.2c5-5,13.7-5,18.7,0l12.4,12.4l0,0l44.8,44.8c5,5,13.7,5,18.7,0  c1.2-1.2,1.2-1.2,1.2-2.5c1.2,0,1.2-1.2,2.5-1.2C513.2,163.1,513.2,154.4,508.3,149.4z M52.6,481.8c-11.2,0-19.9-8.7-19.9-19.9  S41.4,442,52.6,442s19.9,8.7,19.9,19.9C72.5,473.1,63.8,481.8,52.6,481.8z"></path>
   </svg>