<?xml version="1.0" encoding="UTF-8" standalone="no"?><svg aria-hidden="true" focusable="false" data-prefix="ds" data-icon="person-exit" class="svg-inline--fa fa-person-exit fa-w-16 fa-fw Filter_ItemIcon__1Ial8" role="img" xmlns="http://www.w3.org/2000/svg" viewBox="0 0 512 512">
      <path fill="#FFFFFF" d="M404.7,51.6v331.4l53.7,46.3V51.6H404.7z M404.7,51.6 M494.2,1.2H259.8c-9,0-16.1,7-16.1,16v90.5  c6.3,10.1,10.3,22.2,10.3,35c0,12.9-3.9,25-10.3,35.1v33.1c3.1-0.3,3.8-0.5,5.9-0.5c9.5,0,19.4,2.8,25.7,7.9V32.7h201.9v419.8H275.4  V316.3c0,0-28.5,7.4-31.6,7.7v146.6c0,9.1,7.1,16.6,16.1,16.6h234.3c9,0,17.8-7.7,17.8-16.6V17.3C512,8.2,503.2,1.2,494.2,1.2  L494.2,1.2z M494.2,1.2 M191.5,194.2c24.6,0,44.6-20,44.6-44.6c0-24.7-19.9-44.6-44.6-44.6c-24.7,0-44.6,19.9-44.6,44.6  C146.9,174.2,166.9,194.2,191.5,194.2L191.5,194.2z M191.5,194.2 M154.9,290.8c14.8,10.4,32.5,15.5,52.7,15.5  c11.1,0,46-7.6,54.4-10.3c9.4-3.3,14.1-7.8,17-13.3c3.5-9.4,1.8-19.2,1.8-19.2c-2.8-17.5-19.9-21.4-33.3-16.6  c-19.8,7.1-46.9,13.2-63.2,2c-6.9-4.7-11.3-12.1-14-19.3c4.1-13.5,1.4-28.6-8.4-40.1c-15.2-18-42.2-20.1-60.2-4.8  c-4.4,3.6-31.9,28.4-48.9,76.6c-8.3,3.8-18.3,6.8-30.4,8.2c-14,1.7-24,14.4-22.5,28.5c1.6,13,12.6,22.7,25.5,22.7c1,0,2-0.1,3-0.2  c4.2-0.5,8.1-1.1,12-1.9c-0.8,8.1-1.2,16.6-1.2,25.5c0,11.6,4.7,22,12.1,29.7c4.9,15.1,8.8,35.9,3.5,53  c-4.1,12.8-12.9,22.5-27.1,29.7c-12.6,6.4-17.6,21.8-11.2,34.5c4.6,8.8,13.5,14,22.9,14c3.9,0,7.9-0.9,11.6-2.8  c26.4-13.4,44.6-34.1,52.8-60c6.8-21.8,5.8-43.8,2.1-62.6c1.7-1.2,3.4-2.5,4.9-3.9c17.4,20.3,34.8,54.4,24.3,105.7  c-2.7,13.9,6.2,27.4,20,30.3c1.7,0.2,3.5,0.5,5.1,0.5c11.9,0,22.6-8.4,25.1-20.5c17.7-86.3-23.7-144.4-58.8-172  c2.4-17.8,7.3-32.1,12.5-43C143.5,281.7,148.7,286.6,154.9,290.8L154.9,290.8z M154.9,290.8"></path>
   </svg>