<?xml version="1.0" encoding="UTF-8" standalone="no"?><svg aria-hidden="true" focusable="false" data-prefix="ds" data-icon="clothes-hanging" class="svg-inline--fa fa-clothes-hanging fa-w-16 fa-fw Filter_ItemIcon__1Ial8" role="img" xmlns="http://www.w3.org/2000/svg" viewBox="0 0 512 512">
      <path fill="#FFFFFF" d="M478,182c-49.3-32.9-88.8-51.5-112.9-61.4c46-4.4,95.4-11,146.9-21.9l-5.5-27.4c-52.6,11-103.1,17.5-151.3,21.9l1.1-8.8  l7.7-38.4l-4.4-1.1l-8.8,27.4l-5.5-1.1l-6.6-27.4l-4.4,1.1l3.3,35.1v13.2c-60.3,4.4-115.1,3.3-163.4,1.1l-2.2-21.9  c0,0,1.1-27.4,0-29.6c-1.1-2.2-4.4,0-4.4,0l-3.3,39.5h-5.5l-12.1-39.5l-4.4,1.1l6.6,27.4c0,0,2.2,11,3.3,23  C86.6,89.9,35,80,5.4,74.6L0,102c29.6,6.6,77.8,14.3,140.3,19.7c-49.3,19.7-97.6,51.5-116.2,64.7c-4.4,3.3-5.5,8.8-3.3,14.3  l40.6,77.8c2.2,5.5,8.8,7.7,13.2,5.5c24.1-7.7,59.2-14.3,59.2-14.3s1.1,197.3,1.1,235.7c0,3.3,3.3,6.6,6.6,6.6h221.5  c5.5,0,8.8-4.4,8.8-8.8V268.6c18.6,3.3,43.9,11,58.1,15.3c6.6,2.2,13.2-1.1,16.4-7.7l35.1-77.8C485.6,193,483.4,185.3,478,182z   M253.2,199.5c-61.4,0-76.7-51.5-81.1-75.6c23,1.1,48.2,2.2,75.6,2.2s57-1.1,86.6-3.3C331.1,146.9,315.7,199.5,253.2,199.5z"></path>
   </svg>