<?xml version="1.0" encoding="UTF-8" standalone="no"?><svg aria-hidden="true" focusable="false" data-prefix="ds" data-icon="house" class="svg-inline--fa fa-house fa-w-16 fa-fw Filter_ItemIcon__1Ial8" role="img" xmlns="http://www.w3.org/2000/svg" viewBox="0 0 512 512">
      <path fill="#FFFFFF" d="M503.6,173.5L264,40.9c-4.7-2.3-11.6-2.3-16.3,0L8.2,173.5C2.3,177,0,181.7,0,188.6v4.7c0,12.8,14,20.9,24.4,15.1l9.3-4.7  v291.9c0,9.3,7,16.3,16.3,16.3h2.3l0,0h238.4V268.9h115.1V512h53.5l0,0h2.3c9.3,0,16.3-7,16.3-16.3V202.6l9.3,4.7  c11.6,5.8,24.4-2.3,24.4-15.1v-4.7C512.9,182.8,509.5,177,503.6,173.5z M208.2,289.8v100H105.9v-100H208.2z"></path>
   </svg>