<?xml version="1.0" encoding="UTF-8" standalone="no"?><svg aria-hidden="true" focusable="false" data-prefix="ds" data-icon="guitar" class="svg-inline--fa fa-guitar fa-w-16 fa-fw Filter_ItemIcon__1Ial8" role="img" xmlns="http://www.w3.org/2000/svg" viewBox="0 0 512 512">
      <path fill="#FFFFFF" d="M505.5,61.6l3.7-3.7c3.7-3.7,3.7-7.5,0-11.2l-6.2-6.2c3.7-10,2.5-18.7-5-26.2c-7.5-7.5-16.2-10-26.2-5L465.6,3  c-3.7-3.7-8.7-3.7-11.2,0l-3.7,3.7l-2.5-2.5c-3.7-3.7-8.7-3.7-12.5,0s-3.7,8.7,0,12.5l2.5,2.5L427,30.4l-2.5-2.5  c-3.7-3.7-8.7-3.7-12.5,0s-3.7,8.7,0,12.5l2.5,2.5l-11.2,11.2l-3.7-2.5c-3.7-3.7-8.7-3.7-12.5,0c-3.7,3.7-3.7,8.7,0,12.5l2.5,2.5  c-3.7,3.7-2.5,8.7,0,11.2l3.7,3.7L272.6,202.3c-42.3-29.9-84.7-28.6-122.1,8.7c-12.5,12.5-21.2,27.4-26.2,39.9  c-31.1-5-62.3,5-90.9,33.6c-51.1,53.6-42.3,117.1,17.4,176.9s124.5,68.5,176.9,16.2c28.6-28.6,38.6-59.8,33.6-90.9  c12.5-5,27.4-13.7,39.9-26.2c37.4-37.4,38.6-81,8.7-122.1l120.8-120.8l3.7,3.7c3.7,3.7,8.7,3.7,11.2,0l2.5,2.5  c3.7,3.7,8.7,3.7,12.5,0c3.7-3.7,2.5-8.7,0-12.5l-2.5-2.5l11.2-11.2l2.5,2.5c3.7,3.7,8.7,3.7,12.5,0c3.7-3.7,3.7-10,0-12.5l-2.5-2.5  L493,74l2.5,2.5c3.7,3.7,8.7,3.7,12.5,0s2.5-8.7,0-12.5L505.5,61.6z M148,429l-7.5,8.7c-2.5,2.5-6.2,2.5-10,0l-56-56  c-2.5-2.5-3.7-7.5-1.2-10L82,363c3.7-3.7,7.5-2.5,10,0l56,56C151.7,422.7,151.7,426.5,148,429z M199.1,348  c-18.7,0-34.9-14.9-34.9-34.9c0-18.7,14.9-34.9,34.9-34.9c18.7,0,34.9,14.9,34.9,34.9C233.9,331.8,217.8,348,199.1,348z"></path>
   </svg>