<?xml version="1.0" encoding="UTF-8" standalone="no"?><svg aria-hidden="true" focusable="false" data-prefix="ds" data-icon="suit-jacket" class="svg-inline--fa fa-suit-jacket fa-w-16 fa-fw Filter_ItemIcon__1Ial8" role="img" xmlns="http://www.w3.org/2000/svg" viewBox="0 0 512 512">
      <path fill="#FFFFFF" d="M140,205.1c0,0,81.4,126.6,110.5,186.7v119.6c0,0-102.4,4-205.9-9c0,0-10-163.7,4-237s6-171.7,0-205.9  c0,0,0-26.8,103.8-55.2l-35.5,112.4l51.2,40.2L140,205.1z M248.1,294.2L193.5,75.4c-10.4-37.8-18.7-66.9-20.8-74.4  c-1.1-0.4-2.5-0.7-4.3-0.9C167.2,0,165.8,0,164.2,0l-0.4,1.3L129,111.7l51.2,40.2L151,205.1c0,0,64.6,99.8,99.4,164.3v-55.9  C250.5,309.4,249.6,302.8,248.1,294.2z M372,205.1c0,0-81.4,126.6-110.5,186.7v119.6c0,0,102.4,4,205.9-9c0,0,10-163.7-4-237  s-6-171.7,0-205.9c0,0,0-26.8-103.8-55.2l35.5,112.4l-51.2,40.2L372,205.1z M261.5,313.6v55.9c34.8-64.5,99.4-164.3,99.4-164.3  l-29.1-53.2l51.2-40.2L348.2,1.3L347.8,0c-1.5-0.1-2.9,0-4.1,0.1c-1.8,0.2-3.2,0.6-4.3,0.9c-2.1,7.4-10.4,36.6-20.8,74.4  l-54.7,218.7C262.4,302.8,261.5,309.4,261.5,313.6z M256.5,30.3c-27.1,0-33.1,4-33.1,4s-8,4,1,16.1c9,12.1,22.1,16.1,22.1,16.1  c0,38.2-20.1,107.5-20.1,107.5l30.1,115.5L286.6,174c0,0-20.1-69.3-20.1-107.5c0,0,13.1-4,22.1-16.1s1-16.1,1-16.1  S279.6,30.3,256.5,30.3z"></path>
   </svg>