<?xml version="1.0" encoding="UTF-8" standalone="no"?><svg aria-hidden="true" focusable="false" data-prefix="ds" data-icon="ring" class="svg-inline--fa fa-ring fa-w-16 fa-fw Filter_ItemIcon__1Ial8" role="img" xmlns="http://www.w3.org/2000/svg" viewBox="0 0 512 512">
      <path fill="#FFFFFF" d="M295.7,166.9l109-109L350.2,0H162.9l-59,55.6l111.3,111.3c-76.1,19.3-134,87.4-134,170.3C81.2,433.7,159.5,512,256,512  s174.8-78.3,174.8-174.8C432,255.4,374.1,185,295.7,166.9z M256,162.3c-1.1,0-2.3,0-3.4,0L221.9,67h69.3l-31.8,95.4  C258.3,162.3,257.1,162.3,256,162.3z M301.4,67h62.4l-94.2,94.2L301.4,67z M299.1,46.5l-23.8-23.8H323L299.1,46.5L299.1,46.5z   M284.4,46.5h-51.1l23.8-23.8h3.4L284.4,46.5z M219.7,46.5h-4.5l-23.8-23.8h51.1L219.7,46.5z M210.6,67l30.7,95.4L145.9,67L210.6,67  z M363.8,47.7h-50l23.8-23.8h3.4L363.8,47.7z M172,22.7h4.5l23.8,23.8H147L172,22.7z M256,467.7c-71.5,0-130.6-59-130.6-130.6  s57.9-129.4,128.3-130.6l0,0l0,0c0,0,0,0,1.1,0c71.5,0,130.6,57.9,130.6,130.6C386.5,409.8,328.6,467.7,256,467.7z"></path>
   </svg>