<?xml version="1.0" encoding="UTF-8" standalone="no"?><svg aria-hidden="true" focusable="false" data-prefix="ds" data-icon="playing-indoors" class="svg-inline--fa fa-playing-indoors fa-w-16 fa-fw Filter_ItemIcon__1Ial8" role="img" xmlns="http://www.w3.org/2000/svg" viewBox="0 0 512 512">
      <path fill="#FFFFFF" d="M493.1,93.3L255.1,0L18.4,93.3C6.7,98,0.9,112,5.5,123.6c3.5,9.3,12.8,15.2,22.2,15.2c2.3,0,5.8,0,8.2-1.2l220.4-86.3  l220.4,86.3c11.7,4.7,25.7-1.2,30.3-12.8C510.6,110.8,504.7,98,493.1,93.3z M467.4,439.7c0,0-23.3-1.2-39.7-21  c-4.7-5.8-7-11.7-8.2-18.7c11.7-2.3,19.8-4.7,21-7c2.3-7-15.2-60.6-26.8-100.3c21-8.2,42-23.3,61.8-46.7c4.7-5.8,3.5-14-1.2-18.7  c-5.8-4.7-14-3.5-18.7,1.2c-73.5,88.6-174.9,25.7-179.6,23.3c-4.7-2.3-9.3-2.3-14,0c0,0,0-1.2-1.2-1.2c-4.7-5.8-12.8-5.8-18.7-1.2  c0,0-32.7,25.7-103.8,23.3c-56-2.3-79.3-52.5-80.5-54.8c-3.5-7-10.5-9.3-17.5-7c-7,2.3-9.3,10.5-7,17.5c1.2,2.3,22.2,50.2,73.5,65.3  c-2.3,14-3.5,37.3-1.2,63c0,2.3,0,4.7,1.2,8.2c1.2,5.8,2.3,12.8,3.5,18.7l0,0c1.2,10.5,0,24.5-9.3,35c-16.3,19.8-38.5,21-39.7,21  c-10.5,0-18.7,9.3-18.7,19.8c0,10.5,9.3,18.7,19.8,18.7c0,0,0,0,1.2,0c1.2,0,40.8-2.3,68.8-35c16.3-18.7,18.7-42,17.5-59.5  c1.2,0,1.2,0,2.3,0c7,16.3,17.5,52.5,8.2,105c-2.3,10.5,4.7,21,16.3,23.3c1.2,0,2.3,0,3.5,0c9.3,0,17.5-7,19.8-16.3  c10.5-60.6-1.2-103.8-10.5-126c-3.5-16.3-9.3-45.5-9.3-72.3c45.5-5.8,70-21,77-26.8c1.2,1.2,2.3,2.3,3.5,3.5  c1.2,0,35,22.2,79.3,26.8l0,0c0,0,2.3,32.7,3.5,64.1c-7,21-18.7,68.8,1.2,133c2.3,8.2,10.5,14,18.7,14c2.3,0,3.5,0,5.8-1.2  c10.5-3.5,16.3-14,12.8-24.5c-10.5-35-10.5-63-8.2-82.8c2.3,0,3.5,0,5.8,0c2.3,12.8,7,26.8,17.5,38.5c28,33.8,67.6,35,68.8,35  c0,0,0,0,1.2,0c10.5,0,19.8-8.2,19.8-18.7C486.1,449,477.9,439.7,467.4,439.7z M146.7,167.9c23.3,0,42,18.7,42,42s-18.7,42-42,42  s-42-18.7-42-42S123.3,167.9,146.7,167.9z M362.4,167.9c23.3,0,42,18.7,42,42s-18.7,42-42,42c-23.3,0-42-18.7-42-42  S339.1,167.9,362.4,167.9z"></path>
   </svg>