<?xml version="1.0" encoding="UTF-8" standalone="no"?><svg aria-hidden="true" focusable="false" data-prefix="ds" data-icon="kitchen" class="svg-inline--fa fa-kitchen fa-w-18 fa-fw Filter_ItemIcon__1Ial8" role="img" xmlns="http://www.w3.org/2000/svg" viewBox="0 0 512 465.4">
      <path fill="#FFFFFF" d="M52,165.6h52c6.8,0,12.3-5.5,12.3-12.3c0-6.8-5.5-12.3-12.3-12.3H52c-6.8,0-12.3,5.5-12.3,12.3  C39.7,160.1,45.2,165.6,52,165.6z M156.1,165.6h52c6.8,0,12.3-5.5,12.3-12.3c0-6.8-5.5-12.3-12.3-12.3h-52  c-6.8,0-12.3,5.5-12.3,12.3C143.8,160.1,149.2,165.6,156.1,165.6z M409.3,160.1v-28.7l8.2-5.5c1.4,2.7,2.7,5.5,6.8,6.8  c5.5,1.4,11-1.4,13.7-5.5c1.4-5.5-1.4-11-5.5-13.7c-1.4,0-2.7,0-2.7,0l0,0l0,0c1.4-5.5-1.4-11-5.5-13.7c-5.5-1.4-11,1.4-13.7,5.5  c-1.4,4.1,0,6.8,1.4,9.6l-12.3,8.2H397V50.6c0,0,2.7-30.1,23.3-30.1s23.3,21.9,23.3,35.6h20.5C464.1,15,442.2,0,420.3,0  c-31.5,0-42.4,31.5-43.8,49.3v73.9h-1.4l-12.3-8.2c2.7-2.7,2.7-6.8,1.4-9.6c-1.4-5.5-8.2-8.2-13.7-5.5c-5.5,1.4-8.2,8.2-5.5,13.7  l0,0l0,0c-1.4,0-2.7,0-2.7,0c-5.5,1.4-8.2,8.2-5.5,13.7c1.4,5.5,8.2,8.2,13.7,5.5c2.7-1.4,5.5-4.1,6.8-6.8l8.2,5.5v28.7h-86.2v305.2  H512V160.1H409.3z M361.4,232.7c-8.2,0-16.4-6.8-16.4-16.4c0-8.2,6.8-16.4,16.4-16.4c8.2,0,16.4,6.8,16.4,16.4  C377.8,225.8,371,232.7,361.4,232.7z M417.5,232.7c-8.2,0-16.4-6.8-16.4-16.4c0-8.2,6.8-16.4,16.4-16.4c8.2,0,16.4,6.8,16.4,16.4  C434,225.8,425.8,232.7,417.5,232.7z M224.5,177.9H37c-20.5,0-37,16.4-37,37v46.5h260.1v-46.5C260.1,194.3,245,177.9,224.5,177.9z   M47.9,232.7c-8.2,0-16.4-6.8-16.4-16.4c0-8.2,6.8-16.4,16.4-16.4c8.2,0,16.4,6.8,16.4,16.4C63,225.8,56.1,232.7,47.9,232.7z   M102.7,232.7c-8.2,0-16.4-6.8-16.4-16.4c0-8.2,6.8-16.4,16.4-16.4c8.2,0,16.4,6.8,16.4,16.4C119.1,225.8,112.3,232.7,102.7,232.7z   M158.8,232.7c-8.2,0-16.4-6.8-16.4-16.4c0-8.2,6.8-16.4,16.4-16.4c8.2,0,16.4,6.8,16.4,16.4C173.9,225.8,167,232.7,158.8,232.7z   M213.6,232.7c-8.2,0-16.4-6.8-16.4-16.4c0-8.2,6.8-16.4,16.4-16.4c8.2,0,16.4,6.8,16.4,16.4C230,225.8,223.1,232.7,213.6,232.7z   M0,428.4c0,20.5,16.4,37,37,37h187.6c20.5,0,37-16.4,37-37v-152H1.4L0,428.4L0,428.4z M54.8,305.2h152c6.8,0,12.3,5.5,12.3,12.3  s-5.5,12.3-12.3,12.3h-152c-6.8,0-12.3-5.5-12.3-12.3C42.4,310.7,47.9,305.2,54.8,305.2z"></path>
   </svg>