<?xml version="1.0" encoding="UTF-8" standalone="no"?><svg aria-hidden="true" focusable="false" data-prefix="ds" data-icon="kitchen-sink" class="svg-inline--fa fa-kitchen-sink fa-w-16 fa-fw Filter_ItemIcon__1Ial8" role="img" xmlns="http://www.w3.org/2000/svg" viewBox="0 0 512 512">
      <path fill="#FFFFFF" d="M511.7,417.6l-31.1-152c-2.3-12.7-12.7-21.9-26.5-21.9H55.6c-12.7,0-24.2,9.2-26.5,21.9l-28.8,152  c-2.3,15,6.9,27.6,20.7,29.9c10.4,36.9,43.8,64.5,84.1,64.5h301.7c40.3,0,73.7-27.6,84.1-64.5C503.6,445.2,514,431.4,511.7,417.6z   M200.7,377.3c0,5.8-4.6,10.4-11.5,10.4h-129c-6.9,0-11.5-5.8-10.4-12.7L66,277.1c1.2-5.8,5.8-9.2,10.4-9.2H195  c6.9,0,11.5,5.8,11.5,11.5L200.7,377.3z M451.8,387.6H234.1c-6.9,0-11.5-5.8-11.5-11.5l5.8-97.9c0-5.8,4.6-10.4,11.5-10.4h195.8  c5.8,0,10.4,3.5,10.4,9.2l16.1,97.9C464.5,381.9,458.7,387.6,451.8,387.6z M199.6,202.2c4.6-2.3,8.1-5.8,9.2-10.4l12.7,8.1v26.5  h70.2v-25.3l13.8-9.2c1.2,4.6,4.6,8.1,9.2,10.4c8.1,3.5,16.1-1.2,19.6-9.2c3.5-8.1-1.2-16.1-9.2-19.6c-1.2,0-3.5-1.2-4.6-1.2  c0,0,0,0,0-1.2l0,0c3.5-8.1-1.2-16.1-9.2-19.6c-8.1-3.5-16.1,1.2-19.6,9.2c-2.3,5.8-1.2,11.5,2.3,15l-17.3,13.8h-4.6V79  c0-5.8,5.8-43.8,34.5-43.8c29.9,0,34.5,33.4,34.5,53h31.1c0-62.2-33.4-84.1-65.6-84.1c-47.2,0-63.3,47.2-65.6,72.6v111.7h-2.3  l-19.6-12.7c3.5-4.6,4.6-10.4,2.3-15c-3.5-8.1-11.5-11.5-19.6-9.2c-8.1,3.5-11.5,11.5-9.2,19.6l0,0c0,0,0,0,0,1.2  c-1.2,0-3.5,0-4.6,1.2c-8.1,3.5-11.5,11.5-9.2,19.6C183.5,201.1,192.7,205.7,199.6,202.2z M337.8,354.2c11.5,0,20.7,6.9,20.7,16.1  c0,9.2-9.2,16.1-20.7,16.1s-20.7-6.9-20.7-16.1C317.1,361.1,326.3,354.2,337.8,354.2z M143.2,354.2c11.5,0,20.7,6.9,20.7,16.1  c0,9.2-9.2,16.1-20.7,16.1c-11.5,0-20.7-6.9-20.7-16.1C122.4,361.1,131.6,354.2,143.2,354.2z"></path>
   </svg>