<?xml version="1.0" encoding="UTF-8" standalone="no"?><svg aria-hidden="true" focusable="false" data-prefix="ds" data-icon="furniture-new" class="svg-inline--fa fa-furniture-new fa-w-16 fa-fw Filter_ItemIcon__1Ial8" role="img" xmlns="http://www.w3.org/2000/svg" viewBox="0 0 512 512">
      <path fill="#FFFFFF" d="M409.1,283.2c-10.5-2.7-32.6,4.7-41.9,11.7c-15.1,10.5-32.6,30.3-46.6,67.6c-18.4-25-99-45.4-100.2-45.4  c-32.9-8.2-82.7,1.2-100.2,8.2c0-39.6-34.4-108.4-65.3-108.4c-24.5,0-46.6,17.5-51.3,41.9s9.3,47.8,31.5,57.1  c-2.3,33.8-3.5,99,14,125.8l22.1,4.7c0,1.2-1.2,2.3-1.2,3.5c-2.3,10.5,4.7,19.8,15.1,22.1l12.8,2.3c10.5,2.3,19.8-4.7,22.1-15.1  c0-1.2,0-2.3,0-3.5l150.3,28c0,1.2-1.2,2.3-1.2,3.5c-2.3,10.5,4.7,19.8,15.1,22.1l12.8,2.3c10.5,2.3,19.8-4.7,22.1-15.1  c0-1.2,0-2.3,0-3.5l22.1,4.7c25.6-18.6,47.8-80.4,57.1-113c24.5,0,45.4-17.5,50.1-41.9C455.7,314.6,437.1,287.8,409.1,283.2z   M460.4,145.7c-2.3,58.3-43.1,85.1-45.4,86.2c-3.5,2.3-4.7,7-2.3,10.5c1.2,2.3,3.5,3.5,7,3.5c1.2,0,55.9-27.3,55.9-100.2  c12.8-17.5,21-29.1,33.8-47.8L494.2,0l-95.6,15.1l16.3,97.9C433.6,127,445.2,135.2,460.4,145.7z M465,93.2c8.2,0,14,5.8,14,14  s-5.8,14-14,14s-14-5.8-14-14C451,100.2,456.9,93.2,465,93.2z M113.1,235.4c11.7,17.5,18.6,39.6,21,65.3c38.9-9.2,55.4-9.2,96.7-1.2  c30.5,7.8,58.3,16.3,80.4,32.6c11.7-23.3,25.6-41.9,43.1-53.6c12.8-10.5,28-15.1,44.3-15.1l0,0c1.2,0,1.2,0,2.3,0h1.2  c2.3-54.8-55.9-103.7-148-120c-18.6-3.5-37.3-4.7-54.8-4.7c-66.4,0-113,24.5-127,65.3c1.2,0,2.3,1.2,3.5,1.2  C92.1,210.9,105,221.4,113.1,235.4z"></path>
   </svg>