<?xml version="1.0" encoding="UTF-8" standalone="no"?><svg aria-hidden="true" focusable="false" data-prefix="ds" data-icon="lamp-ceiling" class="svg-inline--fa fa-lamp-ceiling fa-w-16 fa-fw Filter_ItemIcon__1Ial8" role="img" xmlns="http://www.w3.org/2000/svg" viewBox="0 0 512 512">
      <path fill="#FFFFFF" d="M125.8,371c-10.6-6.4-24.4-3.2-31.8,7.4L31.4,477c-6.4,10.6-3.2,24.4,7.4,31.8c4.2,2.1,8.5,3.2,12.7,3.2  c7.4,0,14.8-4.2,19.1-10.6l62.5-98.6C139.6,392.2,137.4,378.4,125.8,371z M213.8,367.8c-12.7-3.2-24.4,5.3-27.6,18L165,484.4  c-2.1,12.7,5.3,24.4,18,27.6c2.1,0,3.2,0,4.2,0c10.6,0,20.1-7.4,22.3-18l21.2-98.6C233.9,382.7,225.4,371,213.8,367.8z M326.1,385.9  c-2.1-12.7-14.8-20.1-27.6-18c-12.7,2.1-20.1,14.8-18,27.6l21.2,98.6c2.1,10.6,11.7,18,22.3,18c1.1,0,3.2,0,4.2,0  c12.7-2.1,20.1-14.8,18-27.6L326.1,385.9z M479.8,477l-62.5-98.6c-6.4-10.6-21.2-13.8-31.8-7.4c-10.6,6.4-13.8,21.2-7.4,31.8  l62.5,98.6c4.2,6.4,11.7,10.6,19.1,10.6c4.2,0,8.5-1.1,12.7-3.2C484.1,501.4,487.3,487.6,479.8,477z M422.6,333.9  c0-81.6-59.4-137.8-150.5-144.2V15.9c0-8.5-7.4-15.9-15.9-15.9s-15.9,7.4-15.9,15.9v173.8c-91.2,6.4-150.5,62.5-150.5,144.2v3.2  h332.9V333.9z"></path>
   </svg>