<?xml version="1.0" encoding="UTF-8" standalone="no"?><svg aria-hidden="true" focusable="false" data-prefix="ds" data-icon="radio" class="svg-inline--fa fa-radio fa-w-16 fa-fw Filter_ItemIcon__1Ial8" role="img" xmlns="http://www.w3.org/2000/svg" viewBox="0 0 512 512">
      <path fill="#FFFFFF" d="M154.5,325.9c-35,0-63.2,28.2-63.2,63.2s28.2,63.2,63.2,63.2s63.2-28.2,63.2-63.2S189.5,325.9,154.5,325.9z M447.7,122.9  L189.5,19.2L179.3,44l192.8,77.8H76.7c-41.7,0-75.6,33.8-75.6,75.6v239.1C1.1,478.2,35,512,76.7,512h358.6  c41.7,0,75.6-33.8,75.6-75.6V197.4C509.7,160.1,482.7,129.7,447.7,122.9z M154.5,477c-48.5,0-88-39.5-88-88s39.5-88,88-88  s88,39.5,88,88C243.6,437.6,204.1,477,154.5,477z M445.5,230.1c0,20.3-16.9,37.2-37.2,37.2H166.9v-53c0-6.8-5.6-11.3-11.3-11.3  c-6.8,0-11.3,5.6-11.3,11.3v53h-39.5c-20.3,0-37.2-16.9-37.2-37.2v-16.9c0-20.3,16.9-37.2,37.2-37.2h303.4  c20.3,0,37.2,16.9,37.2,37.2V230.1z M143.2,0l37.2,15.8l-10.1,24.8l-37.2-15.8L143.2,0z"></path>
   </svg>