<?xml version="1.0" encoding="UTF-8" standalone="no"?><svg aria-hidden="true" focusable="false" data-prefix="ds" data-icon="room-living" class="svg-inline--fa fa-room-living fa-w-16 fa-fw Filter_ItemIcon__1Ial8" role="img" xmlns="http://www.w3.org/2000/svg" viewBox="0 0 512 512">
      <path fill="#FFFFFF" d="M502.4,133.1L263.5,2.7c-5.5-2.7-11-2.7-16.5,0L8.2,135.9C2.7,138.6,0,144.1,0,151v4.1c0,12.4,13.7,20.6,24.7,15.1l9.6-5.5  v292.4c0,9.6,6.9,16.5,16.5,16.5h2.7h2.7h60.4v-38.4H74.1V146.9c0-1.4,0-1.4,0-2.7l173-98.8c5.5-2.7,11-2.7,16.5,0l177.1,97.5  c0,1.4,0,2.7,0,4.1v60.4h38.4v-42.6l6.9,4.1c11,6.9,24.7-1.4,24.7-15.1v-4.1C510.6,141.4,507.9,135.9,502.4,133.1z M464,293.7  c-1.4,0-1.4,0-2.7,0l0,0c0,0-1.4,0-5.5,1.4c-11,1.4-20.6,8.2-27.5,16.5c-12.4,12.4-23.3,31.6-30.2,67.3  c-22-15.1-62.6-23.3-90.6-23.3c-28.4,0-68.6,9.6-90.6,23.3c-5.5-34.3-17.8-54.9-30.2-67.3c-6.9-8.2-16.5-13.7-27.5-16.5  c-2.7-1.4-5.5-1.4-5.5-1.4l0,0c-1.4,0-1.4,0-2.7,0c-24.7,0-45.3,20.6-45.3,45.3c0,22,15.1,41.2,37.1,45.3  c2.7,30.2,12.4,86.5,32.9,108.4h20.6c0,1.4,0,1.4,0,2.7c0,9.6,6.9,16.5,16.5,16.5h12.4c9.6,0,16.5-6.9,16.5-16.5c0-1.4,0-1.4,0-2.7  h134.5c0,1.4,0,1.4,0,2.7c0,9.6,6.9,16.5,16.5,16.5h12.4c9.6,0,16.5-6.9,16.5-16.5c0-1.4,0-1.4,0-2.7H442  c19.2-20.6,28.8-78.2,32.9-108.4C495.5,380.2,512,361,512,339C509.3,314.3,488.7,293.7,464,293.7z M197.7,299.2  c12.4,13.7,23.3,31.6,28.8,53.5c32-15.1,81-15.1,81-15.1c18.3,0,56.3,5.5,78.2,15.1c6.9-22,16.5-41.2,28.8-53.5  c8.2-9.6,17.8-16.5,30.2-19.2c-5.5-45.3-65.9-74.1-138.6-74.1c-74.1,0-134.5,28.8-138.6,74.1C179.8,282.8,189.4,289.6,197.7,299.2z"></path>
   </svg>