<?xml version="1.0" encoding="UTF-8" standalone="no"?><svg aria-hidden="true" focusable="false" data-prefix="ds" data-icon="door-lock" class="svg-inline--fa fa-door-lock fa-w-16 fa-fw Filter_ItemIcon__1Ial8" role="img" xmlns="http://www.w3.org/2000/svg" viewBox="0 0 512 512">
      <path fill="#FFFFFF" d="M105,126.6c0-22.2,17.8-41.1,41.1-41.1h121.1C251.6,36.7,206,0,151.6,0C85,0,31.7,53.3,31.7,119.9v272.1  C31.7,458.7,85,512,151.6,512s119.9-53.3,119.9-119.9V166.6H144.9C122.7,166.6,105,148.8,105,126.6z M231.6,345.4  c0,44.4-35.5,80-80,80s-80-35.5-80-80s35.5-80,80-80C194.9,265.4,231.6,301,231.6,345.4z M444.8,91.1H144.9  c-18.9,0-35.5,15.5-35.5,35.5c0,18.9,15.5,35.5,35.5,35.5h299.9c18.9,0,35.5-15.5,35.5-35.5S464.8,91.1,444.8,91.1z M150.5,397.6  c6.7,0,13.3-5.6,13.3-13.3v-77.7c0-6.7-5.6-13.3-13.3-13.3c-6.7,0-13.3,5.6-13.3,13.3v77.7C137.2,392.1,142.7,397.6,150.5,397.6z"></path>
   </svg>