<?xml version="1.0" encoding="UTF-8" standalone="no"?><svg aria-hidden="true" focusable="false" data-prefix="ds" data-icon="meat" class="svg-inline--fa fa-meat fa-w-28 fa-fw Filter_ItemIcon__1Ial8" role="img" xmlns="http://www.w3.org/2000/svg" viewBox="0 0 512.1 298.4">
      <path fill="#FFFFFF" d="M511.9,194.8c-1.1-10.2-6.8-18.2-13.7-22.8c3.4-19.4-5.7-36.4-23.9-43.3c-3.4-1.1-6.8-2.3-11.4-2.3  c-14.8,0-26.2,9.1-34.2,14.8c-1.1,1.1-2.3,2.3-3.4,2.3c-9.1-1.1-29.6-5.7-45.6-11.4l-23.9-6.8c-11.4-8-22.8-13.7-36.4-22.8  c-22.8-12.5-46.7-26.2-66.1-43.3c-18.2-15.9-35.3-30.7-56.9-41C164.5,3.4,131.5,0,97.3,0v2.3C51.7,9.1,14.2,105.9,3.9,153.8  c-3.4,15.9-4.6,33-3.4,49c1.1,14.8,2.3,30.7,6.8,45.6c2.3,6.8,4.6,11.4,8,15.9c8,10.2,20.5,15.9,34.2,21.6c11.4,4.6,22.8,8,34.2,9.1  c15.9,3.4,46.7,2.3,60.4,3.4c22.8,0,35.3-9.1,52.4-22.8c41-33,88.8-46.7,140.1-45.6c9.1,0,17.1-1.1,23.9-3.4l0,0l20.5-1.1  c0,0,34.2-2.3,51.2-2.3c4.6,0,5.7,0,5.7,0c1.1,0,5.7,3.4,9.1,4.6c9.1,4.6,19.4,11.4,33,11.4l0,0l0,0c12.5,0,20.5-5.7,23.9-10.2  C514.2,216.4,511.9,200.5,511.9,194.8z M162.2,186.8c-11.4,27.3-34.2,79.7-69.5,83.1c-1.1,0-3.4,0-4.6,0c-9.1,0-18.2-2.3-29.6-6.8  c-11.4-4.6-20.5-8-23.9-13.7c-1.1-2.3-2.3-3.4-3.4-6.8c-2.3-11.4-4.6-23.9-5.7-39.9c-1.1-14.8,0-29.6,2.3-42.1  c13.7-63.8,52.4-131,74-131c17.1,2.3,42.1,19.4,58.1,46.7C173.6,99.1,183.9,136.7,162.2,186.8z M478.9,217.5L478.9,217.5  c-12.5,0-27.3-13.7-37.6-15.9c-2.3,0-5.7,0-9.1,0c-11.4,0-29.6,1.1-41,2.3c2.3-3.4,4.6-8,5.7-12.5c4.6-13.7,2.3-21.6-4.6-30.7  c12.5,3.4,27.3,6.8,35.3,6.8c2.3,0,3.4,0,4.6,0c8-3.4,20.5-18.2,31.9-18.2c1.1,0,2.3,0,3.4,1.1c11.4,4.6,11.4,14.8,9.1,21.6  c-2.3,6.8-18.2,10.2-18.2,10.2s30.7,2.3,31.9,15.9C491.4,205,491.4,216.4,478.9,217.5z M82.5,202.7c-21.6,1.1-5.7-17.1-6.8-31.9  c-17.1-25.1-29.6,8-30.7,23.9c-1.1,15.9-3.4,33,11.4,41c22.7,13.7,37.5,10.3,54.6-11.3C129.2,200.5,99.6,202.7,82.5,202.7z   M134.9,82c-6.8-6.8-15.9-13.7-25.1-11.4c-14.8,3.4-42.1,27.3-41,41c-2.3,3.4,11.4,17.1,14.8,21.6c9.1,10.2,10.2,15.9,10.2,29.6  s2.3,12.5,14.8,18.2c8,4.6,17.1,5.7,26.2,1.1c19.4-11.4,8-31.9,10.2-50.1C147.4,117.3,149.7,95.7,134.9,82z"></path>
   </svg>