<?xml version="1.0" encoding="UTF-8" standalone="no"?><svg aria-hidden="true" focusable="false" data-prefix="ds" data-icon="menstruation-pad" class="svg-inline--fa fa-menstruation-pad fa-w-16 fa-fw Filter_ItemIcon__1Ial8" role="img" xmlns="http://www.w3.org/2000/svg" viewBox="0 0 512 512">
      <path fill="#FFFFFF" d="M382.1,262.8c0,0,214.3-98.6,92.3-220.4l-3.1-2.9c-123.5-124-224.2,91.9-224.2,91.9s-6.3-78-97.7,14.1l-5.8,6  c-91,90.1-5.2,90.2-5.2,90.2S-85.6,347.1,36.3,468.9l4.4,5.3c121.5,123.4,221-94.9,221-94.9s5,75.6,96-14.6l5.8-6  C454.5,268.7,382.1,262.8,382.1,262.8z M301.4,297.6l-5.8,6c0,0-42.8,45.8-55.6,69.4c-12.9,23.5-59.2,134.6-145,48.9l-7.9-6.3  c-85.3-87.6,25.5-133,50.5-145c23.2-12.6,71-55.2,71-55.2l8.1-7.3c0,0,42.8-45.8,55.6-69.4c12.9-23.5,59.2-134.6,145-48.9l7.9,6.3  c83.4,87-27.8,134-52.9,146.2C349.2,255,301.4,297.6,301.4,297.6z M260.6,230.9c5.8-6,9.2-11,12.9-17.6c3.9-6.6,7.4-11.5,11.3-18.1  c3.5-5,7.4-11.5,8.9-16.8c5-10.2,7.6-19.2,9.8-26.4c2.1-7.2,3.2-10.8,3.2-10.8l-170,166.2c0,0,16.5-2.9,36.8-12.5  c11-4.5,22.6-10.9,34.9-19c12.1-8.1,24.8-18.1,35.7-28.5C251.6,241.9,257.3,235.9,260.6,230.9z M331.2,216.6c-6.6,2-11,4.5-16.3,8.9  c-7.1,3.9-11.6,6.3-18.7,10.2c-5.3,4.4-12.1,8.1-17.9,14.2c-5.3,4.4-10.8,10.5-16.6,16.5c-10.8,10.5-20.5,23.2-29.5,34.3  c-7.4,11.5-14.5,23-20.1,35.1c-10,20.5-13,37.2-13,37.2l164.1-166.1c0,0-4.2,0.8-10.6,2.9C351.1,208.9,342.3,212.1,331.2,216.6z"></path>
   </svg>