<?xml version="1.0" encoding="UTF-8" standalone="no"?><svg aria-hidden="true" focusable="false" data-prefix="ds" data-icon="mosquito" class="svg-inline--fa fa-mosquito fa-w-16 fa-fw Filter_ItemIcon__1Ial8" role="img" xmlns="http://www.w3.org/2000/svg" viewBox="0 0 512 512">
      <path fill="#FFFFFF" d="M400,323.7c-16-11.1-30.8-23.4-48-33.2c-38.2-20.9-81.2-30.8-124.3-27.1c38.2-24.6,73.8-52.9,102.2-88.6  c11.1-13.5,25.8-35.7,29.5-60.3c3.7-29.5-11.1-60.3-38.2-77.5c-12.3-7.4-27.1-12.3-41.8-13.5c-8.6-8.6-19.7-14.8-30.8-18.5  C238.8,1.2,228.9,0,217.8,0c-22.2,0-43.1,7.4-57.8,19.7c-20.9,17.2-30.8,41.8-38.2,62.8c-18.5,57.8-23.4,119.4-14.8,178.5  c-4.9,2.5-9.8,4.9-14.8,7.4c-11.1,6.2-22.2,13.5-28.3,23.4c-20.9,0-38.2,17.2-38.2,39.4c0,14.8,7.4,27.1,19.7,34.5L16,477.5  l19.7,4.9l29.5-112c18.5,0,33.2-12.3,38.2-29.5c1.2,0,2.5,0,3.7,0c27.1,2.5,54.2-3.7,76.3-17.2c13.5,27.1,50.5,110.8,34.5,183.4  l19.7,4.9c16-71.4-12.3-147.7-29.5-184.6c3.7,1.2,6.2,2.5,9.8,2.5c16,23.4,56.6,92.3,54.2,179.7l20.9,1.2  c2.5-73.8-24.6-134.2-44.3-168.6c29.5,11.1,59.1,22.2,88.6,32c51.7,17.2,104.6,28.3,158.8,22.2C462.8,370.5,430.8,347.1,400,323.7z   M323.7,112c-1.2,12.3-8.6,25.8-22.2,41.8c-39.4,48-96,83.7-151.4,115.7c6.2-57.8,27.1-114.5,59.1-166.2c9.8-14.8,20.9-32,38.2-39.4  c7.4-3.7,14.8-4.9,23.4-4.9c11.1,0,22.2,3.7,30.8,8.6C316.3,77.5,324.9,94.8,323.7,112z M155.1,93.5c4.9-16,12.3-34.5,25.8-45.5  c8.6-7.4,22.2-11.1,35.7-11.1c2.5,0,4.9,0,7.4,0c-20.9,12.3-34.5,30.8-45.5,48c-14.8,23.4-27.1,48-36.9,72.6  C144,135.4,148.9,114.5,155.1,93.5z"></path>
   </svg>