<?xml version="1.0" encoding="UTF-8" standalone="no"?><svg aria-hidden="true" focusable="false" data-prefix="ds" data-icon="fav-furniture" class="svg-inline--fa fa-fav-furniture fa-w-16 fa-fw Filter_ItemIcon__1Ial8" role="img" xmlns="http://www.w3.org/2000/svg" viewBox="0 0 512 512">
      <path fill="#FFFFFF" d="M447,0c-30.6,0-52.2,12.7-59.9,39.5C379.5,14,357.9,0,327.3,0c-39.5,0-63.7,22.9-63.7,65c0,20.4,5.1,38.2,17.8,49.7  l95.5,89.2c2.5,2.5,6.4,3.8,10.2,3.8c3.8,0,6.4-1.3,10.2-3.8l95.5-89.2c12.7-11.5,17.8-29.3,17.8-49.7C509.5,22.9,486.5,0,447,0z   M369.4,285.3c-5.3,0-20.7,3.2-35.7,17.8c-12.7,12.7-24.2,33.1-30.6,68.8c-22.9-15.3-62.4-24.2-94.2-24.2s-71.3,8.9-94.2,24.2  c-6.4-35.7-19.1-57.3-30.6-68.8c-7.6-8.9-23.8-17.8-35.7-17.8c-26.7,0-47.1,21.7-47.1,47.1c0,22.9,16.6,42,38.2,47.1  c3.8,31.8,14,90.4,33.1,112.1h21.7c0,1.3,0,2.5,0,2.5c0,8.9,7.6,17.8,17.8,17.8h12.7c8.9,0,17.8-7.6,17.8-17.8c0-1.3,0-2.5,0-2.5  h40.8h59.9h34.4c0,1.3,0,2.5,0,2.5c0,8.9,7.6,17.8,17.8,17.8h12.7c8.9,0,17.8-7.6,17.8-17.8c0-1.3,0-2.5,0-2.5h21.7  c20.4-21.7,30.6-80.2,33.1-112.1c21.7-3.8,38.2-24.2,38.2-47.1C416.5,305.7,394.8,285.3,369.4,285.3z M94.2,290.4  c12.7,14,22.9,31.8,30.6,56c22.9-10.2,49.7-16.6,79-16.6c1.3,0,8.9,0,10.2,0c28,0,54.8,5.1,79,16.6c6.4-22.9,16.6-42,30.6-56  c7.6-10.2,19.1-16.6,30.6-20.4c-5.1-47.1-67.5-76.4-143.9-76.4S71.3,222.9,66.2,270C75.1,275.1,86.6,281.5,94.2,290.4z"></path>
   </svg>