<?xml version="1.0" encoding="UTF-8" standalone="no"?><svg aria-hidden="true" focusable="false" data-prefix="ds" data-icon="moped" class="svg-inline--fa fa-moped fa-w-26 fa-fw Filter_ItemIcon__1Ial8" role="img" xmlns="http://www.w3.org/2000/svg" viewBox="0 0 512 326.8">
      <path fill="#FFFFFF" d="M512,258.3c0,45.7-25.2,68.5-67.3,68.5s-67.3-22.8-67.3-68.5c0-20.4,6-38.5,18-49.3l-22.8-42.1v26.4  c0,38.5-32.5,67.3-69.7,67.3H191.1c0,43.3-26.4,66.1-66.1,66.1c-42.1,0-67.3-22.8-67.3-66.1H24c-13.2,0-24-9.6-24-24  c0-13.2,10.8-24,24-24c10.8-45.7,38.5-80.5,90.1-80.5h98.6c15.6,0,27.6,12,27.6,27.6c0,9.6,0,16.8-6,26.4l-14.4,26.4h81.7  c13.2,0,22.8-6,22.8-19.2V120c0-8.4,3.6-16.8,10.8-20.4l-9.6-16.8c-1.2-2.4-1.2-4.8-1.2-7.2c0-7.2,6-15.6,15.6-15.6  c6,0,10.8,2.4,13.2,8.4l68.7,127.4c7.2-1.2,13.2-2.4,22.8-2.4C486.8,191,512,213.8,512,258.3 M91.3,122.5c-14.4,0-25.2-12-25.2-25.2  V86.5c0-14.4,10.8-25.2,25.2-25.2h138.2c14.4,0,25.2,10.8,25.2,25.2v10.8c0,13.2-10.8,25.2-25.2,25.2H91.3z M96.2,260.7  c0,15.6,9.6,25.2,27.6,25.2c15.6,0,25.2-8.4,26.4-25.2H96.2z M400.2,58.8c0,4.8-3.6,9.6-9.6,9.6c-1.2,0-3.6,0-6-1.2l-40.9-18h-31.2  c-3.6,0-6-2.4-6-6v-18c0-3.6,2.4-6,6-6h31.2l40.9-18c2.4-1.2,3.6-1.2,6-1.2c4.8,0,9.6,3.6,9.6,9.6V58.8z M417.1,258.3  c0,18,10.8,27.6,27.6,27.6c15.6,0,26.4-8.4,26.4-27.6c0-18-10.8-27.6-26.4-27.6C427.9,231.9,417.1,240.3,417.1,258.3"></path>
   </svg>