<?xml version="1.0" encoding="UTF-8" standalone="no"?><svg aria-hidden="true" focusable="false" data-prefix="ds" data-icon="music" class="svg-inline--fa fa-music fa-w-16 fa-fw Filter_ItemIcon__1Ial8" role="img" xmlns="http://www.w3.org/2000/svg" viewBox="0 0 512 512">
      <path fill="#FFFFFF" d="M497,347.8V0h-58l0,0l0,0h-1.1v1.1c-91.4,50.2-233,58-236.3,58h-58v297.6c-20.1-2.2-43.5,1.1-66.9,12.3  c-49,23.4-74.7,72.5-56.8,108.1s71.3,45.7,120.4,22.3c42.4-20.1,66.9-59.1,62.4-92.5V159.4c13.4-1.1,147.1-8.9,235.2-58v196.2  c-20.1-2.2-43.5,1.1-66.9,12.3c-49,23.4-74.7,72.5-56.8,108.1c17.8,35.7,71.3,45.7,120.4,22.3C476.9,420.2,502.6,381.2,497,347.8z"></path>
   </svg>