<?xml version="1.0" encoding="UTF-8" standalone="no"?><svg aria-hidden="true" focusable="false" data-prefix="ds" data-icon="music-equipment" class="svg-inline--fa fa-music-equipment fa-w-24 fa-fw Filter_ItemIcon__1Ial8" role="img" xmlns="http://www.w3.org/2000/svg" viewBox="0 0 512 352.2">
      <path fill="#FFFFFF" d="M0,352.2h236.5V141.7H0V352.2z M128.6,274.2h-22.1v-26h22.1V274.2z M36.4,187.2h162.4v26H36.4V187.2z M275.5,0v352.2H512V0  H275.5z M391.1,296.3c-22.1,0-39-18.2-39-39c0-22.1,18.2-39,39-39c22.1,0,39,18.2,39,39C431.4,279.4,413.2,296.3,391.1,296.3z   M391.1,196.3c-46.8,0-83.2-37.7-83.2-83.2c0-46.8,37.7-83.2,83.2-83.2c46.8,0,83.2,37.7,83.2,83.2  C475.6,158.6,437.9,196.3,391.1,196.3z M391.1,84.5c15.6,0,28.6,13,28.6,28.6s-13,28.6-28.6,28.6s-28.6-13-28.6-28.6  C362.6,97.5,375.6,84.5,391.1,84.5z"></path>
   </svg>