<?xml version="1.0" encoding="UTF-8" standalone="no"?><svg aria-hidden="true" focusable="false" data-prefix="ds" data-icon="necklace" class="svg-inline--fa fa-necklace fa-w-16 fa-fw Filter_ItemIcon__1Ial8" role="img" xmlns="http://www.w3.org/2000/svg" viewBox="0 0 512 512">
      <path fill="#FFFFFF" d="M181.3,321.5c0-16.2-13-28.1-28.1-28.1c-3.2,0-7.6,1.1-9.7,2.2c4.3-5.4,7.6-11.9,7.6-19.5c0-15.2-11.9-27.1-27.1-27.1  c-2.2,0-4.3,0-6.5,1.1c5.4-4.3,8.7-11.9,8.7-19.5c0-14.1-11.9-26-26-26c-1.1,0-3.2,0-4.3,0c6.5-4.3,10.8-11.9,10.8-20.6  c0-13-10.8-23.8-23.8-23.8c-1.1,0-1.1,0-2.2,0c6.5-4.3,10.8-10.8,10.8-19.5c0-13-9.7-22.7-22.7-22.7h-1.1  c6.5-3.2,10.8-10.8,10.8-18.4c0-11.9-9.7-21.6-21.6-21.6s-21.6,9.7-21.6,21.6s9.7,21.6,21.6,21.6c0,0,0,0,1.1,0  c-6.5,4.3-11.9,10.8-11.9,19.5c0,13,9.7,22.7,22.7,22.7h1.1c-7.6,4.3-11.9,11.9-11.9,20.6c0,13,10.8,23.8,23.8,23.8  c1.1,0,3.2,0,4.3,0c-7.6,4.3-11.9,13-11.9,21.6c0,14.1,11.9,26,26,26c2.2,0,4.3,0,6.5-1.1c-5.4,5.4-9.7,13-9.7,20.6  c0,15.2,11.9,27.1,27.1,27.1c3.2,0,6.5-1.1,9.7-2.2c-5.4,5.4-8.7,11.9-8.7,20.6c0,16.2,13,28.1,28.1,28.1  C168.3,350.7,181.3,337.7,181.3,321.5z M49.3,39c10.8,0,19.5,8.7,19.5,19.5s-8.7,19.5-19.5,19.5s-19.5-8.7-19.5-19.5  S38.4,39,49.3,39z M41.7,0c9.7,0,18.4,8.7,18.4,18.4s-8.7,18.4-18.4,18.4s-18.4-8.7-18.4-18.4S31.9,0,41.7,0z M314.5,329.1  c-16.2,0-30.3,13-30.3,30.3c0,1.1,0,3.2,0,4.3c-4.3-10.8-16.2-19.5-29.2-19.5c-11.9,0-22.7,7.6-28.1,17.3c0-1.1,0-2.2,0-3.2  c0-16.2-13-30.3-30.3-30.3c-16.2,0-30.3,13-30.3,30.3c0,16.2,13,30.3,30.3,30.3c11.9,0,21.6-6.5,27.1-16.2c0,1.1,0,2.2,0,3.2  c0,8.7,3.2,16.2,8.7,21.6c-16.2,9.7-27.1,30.3-27.1,54.1c0,33.6,22.7,60.6,49.8,60.6c28.1,0,49.8-27.1,49.8-60.6  c0-23.8-10.8-43.3-27.1-54.1c5.4-5.4,8.7-13,8.7-21.6c0-1.1,0-3.2,0-4.3c4.3,10.8,15.2,18.4,28.1,18.4c16.2,0,30.3-13,30.3-30.3  C344.8,343.1,330.7,329.1,314.5,329.1z M256,482.8c-10.8,0-20.6-14.1-20.6-30.3s9.7-30.3,20.6-30.3s20.6,14.1,20.6,30.3  S266.8,482.8,256,482.8z M457.3,77.9c-11.9,0-21.6,9.7-21.6,21.6c0,7.6,4.3,15.2,10.8,18.4h-1.1c-13,0-22.7,9.7-22.7,22.7  c0,8.7,4.3,15.2,10.8,19.5c-1.1,0-1.1,0-2.2,0c-13,0-23.8,10.8-23.8,23.8c0,8.7,4.3,16.2,10.8,20.6c-1.1,0-3.2,0-4.3,0  c-14.1,0-26,11.9-26,26c0,7.6,3.2,15.2,8.7,19.5c-2.2-1.1-4.3-1.1-6.5-1.1c-15.2,0-27.1,11.9-27.1,27.1c0,7.6,3.2,14.1,7.6,19.5  c-3.2-1.1-6.5-2.2-9.7-2.2c-16.2,0-28.1,13-28.1,28.1c0,16.2,13,28.1,28.1,28.1c16.2,0,28.1-13,28.1-28.1c0-7.6-3.2-15.2-8.7-20.6  c3.2,1.1,6.5,2.2,9.7,2.2c15.2,0,27.1-11.9,27.1-27.1c0-8.7-3.2-16.2-9.7-20.6c2.2,0,4.3,1.1,6.5,1.1c14.1,0,26-11.9,26-26  c0-9.7-5.4-17.3-11.9-21.6c1.1,0,3.2,0,4.3,0c13,0,23.8-10.8,23.8-23.8c0-8.7-4.3-16.2-11.9-20.6h1.1c13,0,22.7-9.7,22.7-22.7  c0-8.7-4.3-16.2-11.9-19.5c0,0,0,0,1.1,0c11.9,0,21.6-9.7,21.6-21.6C477.9,87.7,468.2,77.9,457.3,77.9z M462.7,39  c10.8,0,19.5,8.7,19.5,19.5s-8.7,19.5-19.5,19.5s-19.5-8.7-19.5-19.5S451.9,39,462.7,39z M470.3,0c9.7,0,18.4,8.7,18.4,18.4  s-8.7,18.4-18.4,18.4s-18.4-8.7-18.4-18.4S460.6,0,470.3,0z"></path>
   </svg>