<?xml version="1.0" encoding="UTF-8" standalone="no"?><svg aria-hidden="true" focusable="false" data-prefix="ds" data-icon="person-shopping" class="svg-inline--fa fa-person-shopping fa-w-16 fa-fw Filter_ItemIcon__1Ial8" role="img" xmlns="http://www.w3.org/2000/svg" viewBox="0 0 512 512">
      <path fill="#FFFFFF" d="M358.6,33.1c0-20.7,13.8-33.1,37.1-33.1c24,0,38,11.5,38,31.8c0,29.3-34.7,31.5-34.7,42.4c0,1.5,0.5,2.5,1.8,4.4  c1.1,1.6,1.6,3.5,1.6,5.5c0,6.2-5.3,9.8-9.8,9.8c-2.9,0-5.3-1.1-7.1-2.9c-4.9-4.7-6.7-10.4-6.7-15.5c0-22.9,35.3-24.4,35.3-43.6  c0-8.9-6.7-14-18.4-14c-10.2,0-17.1,5.1-17.1,15.3c0,5.4-4.5,10-10,10C363.2,43.1,358.6,38.5,358.6,33.1z M392.1,102.4  c-7.6,0-12,4-12,12.2c0,8,4.4,11.8,12,11.8s11.8-3.8,11.8-11.8C403.9,106.4,399.7,102.4,392.1,102.4z M388.6,317.7  c1.8,1.8,4.7,1.8,6.5,0l62.8-85c2.9-2.9,0.9-8.8-3.3-8.8h-37.5l-1.9-72.4c-0.1-3.4-2.9-10-6.3-10h-34.2c-3.4,0-6.2,6.6-6.3,10  l-1.9,72.4h-37.5c-4.1,0-6.2,5.9-3.3,8.8L388.6,317.7z M153.1,205.3c20.5,0,30.7-11.5,30.8-30.7c0-19.2-10.2-30.3-30.7-30.4  c-20.5,0-30.7,11-30.8,30.2C122.4,193.7,132.6,205.3,153.1,205.3z M484.3,347.3H311l-7-25.1c-2.5-8.7-10.6-16.1-19.7-16.1h-17.9  c0.3,0,0.7-5.2,0.7-6.3c0.2-8-6.2-16.3-14.3-16.4l-51.7-1.8c-9.2-14.9-30.7-49.8-32.1-52.1c-1.1-1.7-2.4-3.4-4-4.5  c-4.2-5.3-10.1-9.4-17.2-11c-16.7-3.8-33.2,6.7-37,23.3L88.1,338.1c-0.1,0.5-0.1,0.9-0.2,1.4l-15.8,76l-40.9,61  c-6.4,9.6-3.9,22.6,5.7,29c3.6,2.4,7.6,3.5,11.6,3.5c6.7,0,13.4-3.3,17.4-9.3l43.2-64.4c1.5-2.2,2.6-4.7,3.1-7.4l10.5-50.6  l40.7,42.9l9,73.5c1.3,10.6,10.3,18.4,20.7,18.4c0.9,0,1.7-0.1,2.6-0.2c11.5-1.4,19.6-11.8,18.2-23.3l-9.8-80.3  c-0.5-4.5-2.5-8.6-5.6-11.9l-48.7-51.2l15.2-67.3c8.1,13.1,15.5,25,15.5,25l4.2,6.7l47.8,0.9c-0.1,0.7-0.4,2-0.4,2.8  c0,7.1,5.8,13.5,12.9,13.5h35.4l38.1,130c2.5,8.7,10.6,14.1,19.7,14.1h101c7.1,0,12.9-3.2,12.9-10.3s-5.8-10.3-12.9-10.3h-97.1  l-6.2-23.7L466.3,411L484.3,347.3z M341.7,478.1c-9.2,0-16.6,7.4-16.6,16.6c0,9.2,7.4,16.6,16.6,16.6c9.2,0,16.6-7.4,16.6-16.6  C358.3,485.6,350.8,478.1,341.7,478.1z M422.4,478.1c-9.2,0-16.6,7.4-16.6,16.6c0,9.2,7.4,16.6,16.6,16.6c9.2,0,16.6-7.4,16.6-16.6  C439.1,485.6,431.6,478.1,422.4,478.1z"></path>
   </svg>