<?xml version="1.0" encoding="UTF-8" standalone="no"?><svg aria-hidden="true" focusable="false" data-prefix="ds" data-icon="door" class="svg-inline--fa fa-door fa-w-16 fa-fw Filter_ItemIcon__1Ial8" role="img" xmlns="http://www.w3.org/2000/svg" viewBox="0 0 512 512">
      <path fill="#FFFFFF" d="M412.9,467.5v-41.2H99.1v41.2H69V512h374v-44.5H412.9z M381.8,0H130.2v411.8h252.7V0H381.8z M155.8,136.9  c0-21.1,6.7-41.2,17.8-56.8l56.8,56.8H155.8z M248.2,133.6l-65.7-65.7c16.7-17.8,40.1-28.9,65.7-31.2V133.6z M263.8,36.7  c25.6,2.2,49,13.4,65.7,31.2l-65.7,65.7V36.7z M339.5,80.1c11.1,16.7,17.8,35.6,17.8,56.8h-74.6L339.5,80.1z M343.9,253.8  c-8.9,0-16.7-7.8-16.7-16.7v-20c0-8.9,7.8-16.7,16.7-16.7c8.9,0,16.7,7.8,16.7,16.7v20C360.6,246,353.9,253.8,343.9,253.8z"></path>
   </svg>