<?xml version="1.0" encoding="UTF-8" standalone="no"?><svg aria-hidden="true" focusable="false" data-prefix="ds" data-icon="refridgerator" class="svg-inline--fa fa-refridgerator fa-w-16 fa-fw Filter_ItemIcon__1Ial8" role="img" xmlns="http://www.w3.org/2000/svg" viewBox="0 0 512 512">
      <path fill="#FFFFFF" d="M369.7,0.2L142.2,0c-40,0-73.9,33.9-73.9,73.9v364.1c0,40,33.9,73.9,73.9,73.9h227.6c40.1,0,73.9-33.9,73.9-73.9V73.9  C443.7,33.9,409.8,0.2,369.7,0.2L369.7,0.2z M142.2,34.1l227.4,0.2c21.3,0,40,18.6,40,39.7v111.9H102.4V73.9  C102.4,52.7,121,34.1,142.2,34.1L142.2,34.1z M369.8,477.9H142.2c-21.2,0-39.8-18.6-39.8-39.8V208.6h307.2v229.4  C409.6,459.3,391,477.9,369.8,477.9L369.8,477.9z M369.8,477.9 M148,165c9.4,0,17.1-7.7,17.1-17.1V68.3c0-9.4-7.7-17.1-17.1-17.1  c-9.4,0-17.1,7.7-17.1,17.1v79.6C130.8,157.3,138.6,165,148,165L148,165z M148,165 M148,221.9c-9.4,0-17.1,7.7-17.1,17.1v147.9  c0,9.4,7.7,17.1,17.1,17.1c9.4,0,17.1-7.7,17.1-17.1V238.9C165,229.6,157.3,221.9,148,221.9L148,221.9z M148,221.9 M380.2,176.3  c6.3,0,11.4-5,11.4-11.3v-44.6c0-6.3-5.1-11.3-11.4-11.3c-6.3,0-11.4,5-11.4,11.3V165C368.8,171.3,373.9,176.3,380.2,176.3  L380.2,176.3z M380.2,176.3 M381.2,228.5c-6.3,0-11.4,5.1-11.4,11.4v193.4c0,6.3,5.1,11.4,11.4,11.4s11.4-5.1,11.4-11.4V239.9  C392.6,233.6,387.4,228.5,381.2,228.5L381.2,228.5z M381.2,228.5 M381.2,90.1c6.3,0,11.4-5,11.4-11.3V66.3c0-6.3-5.1-11.3-11.4-11.3  s-11.4,5.1-11.4,11.3v12.4C369.8,85,374.9,90.1,381.2,90.1L381.2,90.1z M381.2,90.1"></path>
   </svg>