<?xml version="1.0" encoding="UTF-8" standalone="no"?><svg aria-hidden="true" focusable="false" data-prefix="ds" data-icon="oven" class="svg-inline--fa fa-oven fa-w-16 fa-fw Filter_ItemIcon__1Ial8" role="img" xmlns="http://www.w3.org/2000/svg" viewBox="0 0 512 512">
      <path fill="#FFFFFF" d="M488.2,130V65c0-36-29-65-65-65H88.8c-36,0-65,29-65,63.9v65h464.4V130z M404.6,40.6c15.1,0,27.9,12.8,27.9,27.9  s-12.8,27.9-27.9,27.9c-15.1,0-27.9-12.8-27.9-27.9C376.7,53.4,389.5,40.6,404.6,40.6z M305.9,40.6c15.1,0,27.9,12.8,27.9,27.9  S321,96.4,305.9,96.4c-15.1,0-27.9-12.8-27.9-27.9C276.9,53.4,289.7,40.6,305.9,40.6z M206.1,40.6c15.1,0,27.9,12.8,27.9,27.9  s-12.8,27.9-27.9,27.9c-15.1,0-27.9-12.8-27.9-27.9C178.2,53.4,191,40.6,206.1,40.6z M107.4,40.6c15.1,0,27.9,12.8,27.9,27.9  s-12.8,27.9-27.9,27.9S79.5,83.6,79.5,68.5C78.4,53.4,91.1,40.6,107.4,40.6z M23.8,149.8V447c0,36,29,65,65,65h334.4  c36,0,65-29,65-65V149.8H23.8z M405.8,400.5c0,22.1-17.4,39.5-39.5,39.5H145.7c-22.1,0-39.5-17.4-39.5-39.5v-92.9  c0-22.1,17.4-39.5,39.5-39.5h220.6c22.1,0,39.5,17.4,39.5,39.5V400.5z M400,218.3H112c-8.1,0-15.1-7-15.1-15.1  c0-8.1,7-15.1,15.1-15.1h286.8c8.1,0,15.1,7,15.1,15.1C413.9,212.5,408.1,218.3,400,218.3z"></path>
   </svg>