<?xml version="1.0" encoding="UTF-8" standalone="no"?><svg aria-hidden="true" focusable="false" data-prefix="ds" data-icon="file" class="svg-inline--fa fa-file fa-w-16 fa-fw Filter_ItemIcon__1Ial8" role="img" xmlns="http://www.w3.org/2000/svg" viewBox="0 0 512 512">
      <path fill="#FFFFFF" d="M437.2,138.8L303,4.6C298.8,0.4,289.6,0,277.2,0H115.6c-24.8,0-45,20.2-45,45v422c0,24.8,20.2,45,45,45h280.8  c24.8,0,45-20.2,45-45c0,0,0.1-316.2,0-318.3C441.3,145.1,439.9,141.5,437.2,138.8z M307.2,51.2l83,83h-59.3  c-6.3,0-12.2-2.5-16.7-6.9c-4.5-4.5-6.9-10.4-6.9-16.7V51.2z M411.4,467c0,8.3-6.7,15-15,15H115.6c-8.3,0-15-6.7-15-15V45  c0-8.3,6.7-15,15-15h161.6v80.6c0,14.3,5.6,27.8,15.7,37.9c10.1,10.1,23.6,15.7,37.9,15.7h80.6V467z"></path>
   </svg>