<?xml version="1.0" encoding="UTF-8" standalone="no"?><svg aria-hidden="true" focusable="false" data-prefix="ds" data-icon="parking-lot" class="svg-inline--fa fa-parking-lot fa-w-16 fa-fw Filter_ItemIcon__1Ial8" role="img" xmlns="http://www.w3.org/2000/svg" viewBox="0 0 512 512">
      <path fill="#FFFFFF" d="M499.5,440.2c-4.5-59.5-38.2-77.5-97.7-83.1c-11.2-41.5-50.5-70.7-119-70.7c-78.6,0-186.3,25.8-202,153.8  c-6.7,0-12.3,5.6-12.3,12.3v6.7c0,6.7,5.6,12.3,12.3,12.3h33.7c3.4,26.9,21.3,40.4,48.3,40.4s46-14.6,48.3-40.4h162.8  c3.4,26.9,20.2,40.4,48.3,40.4c26.9,0,44.9-14.6,48.3-40.4h29.2c6.7,0,12.3-5.6,12.3-12.3v-6.7C513,445.8,507.4,440.2,499.5,440.2z   M162.8,482.8c-12.3,0-19.1-6.7-19.1-20.2c0-12.3,6.7-20.2,19.1-20.2s20.2,6.7,20.2,20.2C183,477.2,175.1,482.8,162.8,482.8z   M272.8,351.5c0,3.4-2.2,6.7-6.7,6.7h-79.7c-5.6,0-11.2-4.5-11.2-11.2c0-3.4,1.1-5.6,3.4-9c15.7-23.6,56.1-32.6,87.6-32.6  c3.4,0,6.7,3.4,6.7,6.7V351.5z M367.1,358.2h-68.5c-3.4,0-6.7-3.4-6.7-6.7v-38.2c0-3.4,3.4-6.7,6.7-6.7c30.3,0,60.6,10.1,73,39.3  c1.1,2.2,2.2,3.4,2.2,5.6C373.8,354.9,371.5,358.2,367.1,358.2z M422.1,482.8c-11.2,0-19.1-6.7-19.1-20.2c0-12.3,7.9-20.2,19.1-20.2  c12.3,0,19.1,6.7,19.1,20.2C442.3,477.2,434.4,482.8,422.1,482.8z M116.7,65.2c-7.9,0-13.5,1.1-16.8,1.1v52.8  c3.4,1.1,9,1.1,14.6,1.1c21.3,0,33.7-10.1,33.7-29.2C148.2,74.2,135.8,65.2,116.7,65.2z M244.7,122.5c0-67.3-55-122.4-122.4-122.4  S0,55.1,0,122.5s55,122.4,122.4,122.4C190.8,244.8,244.7,189.8,244.7,122.5z M101,133.7v53.9h-18V55.1c7.9-1.1,19.1-2.2,33.7-2.2  c16.8,0,29.2,4.5,38.2,11.2c7.9,6.7,11.2,15.7,11.2,28.1s-3.4,21.3-10.1,29.2c-9,10.1-24.7,14.6-41.5,14.6  C108.9,134.8,104.4,134.8,101,133.7z"></path>
   </svg>