<?xml version="1.0" encoding="UTF-8" standalone="no"?><svg aria-hidden="true" focusable="false" data-prefix="ds" data-icon="pen" class="svg-inline--fa fa-pen fa-w-16 fa-fw Filter_ItemIcon__1Ial8" role="img" xmlns="http://www.w3.org/2000/svg" viewBox="0 0 512 512">
      <path fill="#FFFFFF" d="M67.7,414.3c-3.8-3.8-11.4-3.8-16.4,0c-2.5,2.5-2.5,3.8-3.8,7.6l-22.8,60.7c0,1.3-1.3,2.5-1.3,3.8l-10.1,10.1  c-3.8,3.8-3.8,8.8,0,12.6s8.8,3.8,12.6,0l11.4-11.4c1.3,0,2.5,0,2.5-1.3l60.7-22.8c3.8-1.3,5.1-2.5,7.6-3.8c3.8-3.8,3.8-11.4,0-16.4  L67.7,414.3z M276.3,162.8L412.8,26.2c6.3-6.3,6.3-15.2,0-21.5c-6.3-6.3-15.2-6.3-21.5,0L254.8,141.3c-6.3,6.3-6.3,15.2,0,21.5  C261.1,169.1,271.2,169.1,276.3,162.8z M80.4,385.3c-5.1,5.1-5.1,12.6,0,17.7l39.2,39.2c5.1,5.1,12.6,5.1,17.7,0l190.9-190.9  l-56.9-56.9L80.4,385.3z M490,32.6c-15.2-15.2-40.5-15.2-56.9,0L295.3,171.6l56.9,56.9L491.2,89.4C505.1,74.3,505.1,49,490,32.6z"></path>
   </svg>