<?xml version="1.0" encoding="UTF-8" standalone="no"?><svg aria-hidden="true" focusable="false" data-prefix="ds" data-icon="pet-food" class="svg-inline--fa fa-pet-food fa-w-16 fa-fw Filter_ItemIcon__1Ial8" role="img" xmlns="http://www.w3.org/2000/svg" viewBox="0 0 512 512">
      <path fill="#FFFFFF" d="M511.7,464.3c-15.4-83.2-30.9-166.8-46.4-250.8c-1.4-7.8-8.3-12.8-16-12.7c5.5-11.1,8.9-23.6,8.9-36.9  c0-44.1-33.7-79.9-75.7-81.5C376,44.1,344,14.9,305.5,14.9c-28.4,0-53.1,15.9-66.8,39.5c-5-2.3-10.3-4.1-15.8-5.2  c-34.1-7-68.1,9.8-84.4,41.7c-0.9,1.7-1.3,3.6-1.5,5.4c-3.4-0.5-6.7-1.3-10.2-1.3c-39.3,0-71.3,33.3-71.3,74.2  c0,11.3,2.6,21.9,7,31.5c-7.5,0-14.3,5-15.7,12.7c-15.5,84-31,167.6-46.4,250.8C-1.3,472.8,4,481,12.4,483  c160.1,38.6,327.2,38.6,487.3,0C508,481,513.3,472.8,511.7,464.3z M126.7,128c12.8,0,24.6,6.8,31.8,18.2c4.8,7.7,15,10,22.7,5.2  c7.7-4.8,10-15,5.2-22.7c-5.4-8.5-12.5-15.2-20.3-20.7c0.5-0.7,1.2-1.2,1.6-2c9.5-18.6,29-28.5,48.5-24.5c4.3,0.9,8.2,2.5,11.9,4.5  c-0.3,2.4-0.6,4.9-0.7,7.4c0,1.1-0.3,2.1-0.3,3.2c0,9.1,7.4,16.5,16.5,16.5c2.3,0,4.5-0.5,6.5-1.3c4.6-2,7.9-6.1,9.2-11  c0.4-1.4,0.8-2.7,0.8-4.2c0-5.3,1-10.2,2.4-15c0.8-2.5,1.7-5,2.8-7.3c7.6-15.7,22.7-26.5,40.3-26.5c22.4,0,40.9,17.5,44.7,40.3  c0.5,2.8,0.8,5.6,0.8,8.5c0,3.9-0.5,7.8-1.4,11.5c-0.9,4.1-2.3,8.2-4.2,11.9c-0.4,0.8-0.4,1.6-0.7,2.4c-5.6-1.8-11.4-3.1-17.1-3.5  c-4.5-0.3-9-0.3-13.5,0.1c-9.8,1-19.3,4.1-28.1,8.8c-9.7,5.2-18.6,12.2-25.7,21.4c-1.2,1.5-1.8,3.2-2.4,4.9c-1.1,3.3-1,6.8,0.1,10  c1,3.1,2.6,6,5.4,8.1c4.2,3.2,9.4,3.8,14.1,2.6c3.4-0.9,6.7-2.6,9-5.7c12.5-16.3,33.3-22.1,51.7-14.5c9.5,4,17.3,11,22.5,20.3  c0.2,0.3,0.5,0.4,0.7,0.7c3.1,4.8,8.2,7.7,13.7,7.7c2.7,0,5.5-0.7,8-2.1c6.6-3.7,9.4-11.2,7.7-18.3c-0.3-1.4-0.6-2.8-1.3-4.1  c-4.6-8.2-10.4-15.3-17.2-21.3c0.8-0.9,1.9-1.5,2.5-2.7c1.9-3.7,3-7.7,4.3-11.7c0.9-2.8,2.1-5.4,2.7-8.2  c24.2,1.1,43.6,22.4,43.6,48.6c0,20.1-11.4,37.3-27.5,44.8c-93.3,12.8-188,12.9-281.3,0.2c-16.1-4.9-28.1-20.7-28.1-39.6  C88.3,146.5,105.5,128,126.7,128z M406.3,395.1c0,19.2-15,34.8-33.6,34.8c-18.5,0-44.4-13.4-44.4-34.8c0-0.4,0.1-0.8,0.2-1.2h-145  c0,0.4,0.2,0.8,0.2,1.2c0,21.4-25.9,34.8-44.4,34.8c-18.5,0-33.6-15.6-33.6-34.8c0-16.3,9.3-32.6,24.6-37.3  c-15.3-4.7-24.6-21-24.6-37.3c0-19.2,15-34.8,33.6-34.8c18.5,0,44.4,13.4,44.4,34.8c0,0.3-0.1,0.6-0.1,1h144.9c0-0.3-0.1-0.6-0.1-1  c0-21.4,25.9-34.8,44.4-34.8c18.5,0,33.6,15.6,33.6,34.8c0,16.3-9.3,32.6-24.6,37.3C397,362.5,406.3,378.8,406.3,395.1z"></path>
   </svg>