<?xml version="1.0" encoding="UTF-8" standalone="no"?><svg aria-hidden="true" focusable="false" data-prefix="ds" data-icon="pet" class="svg-inline--fa fa-pet fa-w-16 fa-fw Filter_ItemIcon__1Ial8" role="img" xmlns="http://www.w3.org/2000/svg" viewBox="0 0 512 512">
      <path fill="#FFFFFF" d="M266.4,228.3L266.4,228.3c-41.7,0-142,0.6-174.8-1.6c-9.5-0.8-19.1,0.9-27.7,5.1c-20.3-6.6-56.4-42.6-56.4-42.6  c-12.7,37.4,18.8,67.9,27.4,75.5c-4.1,9.8-6.6,20.1-7.2,30.7c-0.1,13.3,1,26.5,3.2,39.6c-6.2,39.3-14.9,106.7-9.6,152.8  c1.7,13.8,13.4,24.2,27.3,24.2c0.9,0.1,1.8,0.1,2.8,0c14.9-1.7,25.7-15.1,24-30.1c0-0.2,0-0.4-0.1-0.6c-2.3-36.2-0.6-72.5,5-108.3  c6.2-10.7,18.5-16.4,30.7-14c35.7,5.9,72.9,52.1,111.6,55.1c15.3,1.9,30.8,0.8,45.6-3.4v73.3c0,15.1,12.2,27.3,27.3,27.3  c15.1,0,27.3-12.2,27.3-27.3c0,0,0,0,0,0V372.5c21.2-24,38.5-51.2,51.2-80.6l-107.7-63.5V228.3z M396.2,171  c-6.8-0.1-12.2-5.6-12.2-12.4c0.1-6.8,5.6-12.2,12.4-12.2c6.7,0.1,12.2,5.5,12.2,12.3c0,6.8-5.5,12.3-12.3,12.3  C396.2,171,396.2,171,396.2,171 M437.1,137.4c-19.9-12.2-42.4-19.6-65.7-21.6L367,87c-1.9-13-14-22-27-20.1c-13,1.9-22,14-20.1,27  l5.7,39.2c-16.6,19.7-28.3,43-34.3,68l0,0l0,0l0,0l98.1,58c13.9-19.4,33.5-20.5,50.2-24c20.5-4.5,42.1-4.5,54.1-26.8  c12-22.3,13.8-70.3,13.8-70.3L437.1,137.4z M271.9,222.5l14.2-15.5C238.1,177.7,126.8,95.3,73.8,0L56.2,11  C110.4,118,271.9,222.5,271.9,222.5z"></path>
   </svg>