<?xml version="1.0" encoding="UTF-8" standalone="no"?><svg aria-hidden="true" focusable="false" data-prefix="ds" data-icon="mobile" class="svg-inline--fa fa-mobile fa-w-16 fa-fw Filter_ItemIcon__1Ial8" role="img" xmlns="http://www.w3.org/2000/svg" viewBox="0 0 512 512">
      <path fill="#FFFFFF" d="M348.3,69.7h-26.4V15.8c0-8.4-7.4-15.8-15.8-15.8c-8.4,0-15.8,7.4-15.8,15.8v53.8H164.7c-14.8,0-26.4,11.6-26.4,26.4v389.5  c0,14.8,11.6,26.4,26.4,26.4h182.6c14.8,0,26.4-11.6,26.4-26.4V96.1C374.7,81.3,363.1,69.7,348.3,69.7z M219.5,462.4  c0,9.5-7.4,16.9-16.9,16.9H191c-9.5,0-16.9-7.4-16.9-16.9v-13.7c0-9.5,7.4-16.9,16.9-16.9h11.6c9.5,0,16.9,7.4,16.9,16.9V462.4z   M219.5,404.3c0,9.5-7.4,16.9-16.9,16.9H191c-9.5,0-16.9-7.4-16.9-16.9v-13.7c0-9.5,7.4-16.9,16.9-16.9h11.6  c9.5,0,16.9,7.4,16.9,16.9V404.3z M219.5,346.3c0,9.5-7.4,16.9-16.9,16.9H191c-9.5,0-16.9-7.4-16.9-16.9v-13.7  c0-9.5,7.4-16.9,16.9-16.9h11.6c9.5,0,16.9,7.4,16.9,16.9V346.3z M279.7,462.4c0,9.5-7.4,16.9-16.9,16.9h-11.6  c-9.5,0-16.9-7.4-16.9-16.9v-13.7c0-9.5,7.4-16.9,16.9-16.9h11.6c9.5,0,16.9,7.4,16.9,16.9V462.4z M279.7,404.3  c0,9.5-7.4,16.9-16.9,16.9h-11.6c-9.5,0-16.9-7.4-16.9-16.9v-13.7c0-9.5,7.4-16.9,16.9-16.9h11.6c9.5,0,16.9,7.4,16.9,16.9V404.3z   M279.7,346.3c0,9.5-7.4,16.9-16.9,16.9h-11.6c-9.5,0-16.9-7.4-16.9-16.9v-13.7c0-9.5,7.4-16.9,16.9-16.9h11.6  c9.5,0,16.9,7.4,16.9,16.9V346.3z M338.8,462.4c0,9.5-7.4,16.9-16.9,16.9h-12.7c-9.5,0-16.9-7.4-16.9-16.9v-13.7  c0-9.5,7.4-16.9,16.9-16.9h11.6c9.5,0,16.9,7.4,16.9,16.9L338.8,462.4L338.8,462.4z M338.8,404.3c0,9.5-7.4,16.9-16.9,16.9h-12.7  c-9.5,0-16.9-7.4-16.9-16.9v-13.7c0-9.5,7.4-16.9,16.9-16.9h11.6c9.5,0,16.9,7.4,16.9,16.9L338.8,404.3L338.8,404.3z M338.8,346.3  c0,9.5-7.4,16.9-16.9,16.9h-12.7c-9.5,0-16.9-7.4-16.9-16.9v-13.7c0-9.5,7.4-16.9,16.9-16.9h11.6c9.5,0,16.9,7.4,16.9,16.9  L338.8,346.3L338.8,346.3z M339.9,267.1c0,7.4-6.3,13.7-13.7,13.7H186.8c-7.4,0-13.7-6.3-13.7-13.7V119.3c0-7.4,6.3-13.7,13.7-13.7  h138.3c7.4,0,13.7,6.3,13.7,13.7v147.8H339.9z"></path>
   </svg>