<?xml version="1.0" encoding="UTF-8" standalone="no"?><svg aria-hidden="true" focusable="false" data-prefix="ds" data-icon="marker-food" class="svg-inline--fa fa-marker-food fa-w-16 fa-fw Filter_ItemIcon__1Ial8" role="img" xmlns="http://www.w3.org/2000/svg" viewBox="0 0 512 512">
      <path fill="#FFFFFF" d="M428.2,164C428.2,73.8,350.9,0,256,0S83.8,73.8,83.8,164c0,30.5,9.4,59.8,24.6,84.4l0,0c14.1,21.1,28.1,42.2,43.4,63.3  c29.3,38.7,52.7,77.3,68,123c7,19.9,12.9,41,18.7,62.1c0,2.3,1.2,4.7,1.2,5.9c2.3,5.9,8.2,9.4,15.2,9.4c7,0,12.9-4.7,16.4-10.5  c1.2-1.2,1.2-3.5,1.2-4.7c5.9-21.1,11.7-43.4,18.7-63.3c15.2-45.7,38.7-84.4,68-123c15.2-19.9,29.3-42.2,43.4-63.3l0,0  C418.9,225,428.2,195.7,428.2,164z M191.6,270.6c0,0-10.5,8.2-24.6-4.7c-12.9-12.9-2.3-23.4,1.2-28.1l35.1-32.8c1.2,0,2.3,0,4.7,0  c4.7,0,9.4-1.2,14.1-1.2c3.5-1.2,7-1.2,10.5-1.2c1.2,0,1.2,0,2.3,0c8.2,0,14.1,2.3,17.6,3.5L191.6,270.6z M347.4,273  c-3.5,3.5-7,4.7-10.5,4.7c-7,0-12.9-5.9-15.2-8.2l-58.6-68c0,0-10.5-9.4-29.3-9.4c-1.2,0-1.2,0-2.3,0c-8.2,0-16.4,3.5-24.6,3.5  c-5.9,0-10.5-1.2-15.2-7L144.7,123c0,0-12.9-23.4,7-58.6c0,0,3.5-3.5,5.9-3.5c1.2,0,2.3,0,3.5,1.2l188.6,188.6  C350.9,250.7,359.1,262.4,347.4,273z M389.6,112.5L331,174.6c-21.1,16.4-44.5-2.3-44.5-2.3s-7-7-24.6-24.6s-2.3-45.7-2.3-45.7  l59.8-58.6c0,0,8.2-5.9,12.9-1.2S331,55.1,331,55.1l-49.2,51.6c0,0-7,7,0,14.1c8.2,8.2,15.2,2.3,15.2,2.3l52.7-51.6  c0,0,8.2-5.9,14.1-1.2c5.9,5.9-1.2,12.9-1.2,12.9l-49.2,52.7c0,0-5.9,7,1.2,14.1c7,7,12.9,2.3,12.9,2.3s51.6-51.6,52.7-51.6  c0,0,8.2-4.7,11.7,0C395.4,105.4,389.6,112.5,389.6,112.5z"></path>
   </svg>