<?xml version="1.0" encoding="UTF-8" standalone="no"?><svg aria-hidden="true" focusable="false" data-prefix="ds" data-icon="table" class="svg-inline--fa fa-table fa-w-21 fa-fw Filter_ItemIcon__1Ial8" role="img" xmlns="http://www.w3.org/2000/svg" viewBox="0 0 512 393.8">
      <path fill="#FFFFFF" d="M512,98.4v39.4c0,10.8-8.8,19.6-19.6,19.6h-0.1V374c0.1,10.8-8.6,19.7-19.5,19.8h-0.1h-19.8  c-10.8,0-19.6-8.8-19.6-19.6v-0.1V157.4H78.8V374c0,10.9-8.9,19.8-19.8,19.8H39.4c-10.8,0-19.6-8.8-19.6-19.6v-0.1V157.4  C8.9,157.5,0.1,148.8,0,137.9v-0.1V98.4c-0.1-6.2,2.9-12.1,8-15.8L94.2,3.8c3.4-2.5,7.6-3.9,11.8-3.8h299.9c4.2,0,8.3,1.3,11.7,3.8  l84.2,77.1C507.6,84.9,511.3,91.4,512,98.4z M393.8,295.4c10.9-0.1,19.7-8.9,19.8-19.8v-98.4H374v98.4  C374.1,286.5,382.9,295.3,393.8,295.4 M118.2,295.4c10.9-0.1,19.6-8.9,19.6-19.8v-98.4H98.4v98.4  C98.4,286.5,107.3,295.4,118.2,295.4"></path>
   </svg>