<?xml version="1.0" encoding="UTF-8" standalone="no"?><svg aria-hidden="true" focusable="false" data-prefix="ds" data-icon="plates" class="svg-inline--fa fa-plates fa-w-16 fa-fw Filter_ItemIcon__1Ial8" role="img" xmlns="http://www.w3.org/2000/svg" viewBox="0 0 512 512">
      <path fill="#FFFFFF" d="M461.7,215.8c-23.5-104-117.4-181.1-228.1-181.1C105.1,34.7,0,139.7,0,268.3s105.1,233.6,233.6,233.6  c13.4,0,25.7-1.1,38-3.4c20.1,8.9,43.6,13.4,67.1,13.4c96.1,0,173.3-78.3,173.3-173.3C512,290.7,493,247.1,461.7,215.8z M41.4,268.3  C41.4,162.1,127.4,76,233.6,76c73.8,0,137.5,41.4,169.9,101.7c-20.1-7.8-42.5-12.3-64.8-12.3c-96.1,0-173.3,78.3-173.3,173.3  c0,47,19,90.6,49.2,121.9C117.4,450.5,41.4,367.8,41.4,268.3z M338.7,470.6c-72.7,0-133-59.2-133-133c0-72.7,59.2-133,133-133  c72.7,0,133,59.2,133,133C470.6,411.4,411.4,470.6,338.7,470.6z M241.5,127.4c0-5.6-4.5-10.1-10.1-10.1  c-83.8,0-150.9,68.2-150.9,150.9c0,5.6,4.5,10.1,10.1,10.1c5.6,0,10.1-4.5,10.1-10.1c0-72.7,59.2-131.9,131.9-131.9  C237,137.5,241.5,133,241.5,127.4z M337.6,239.2c-54.8,0-99.5,44.7-99.5,99.5c0,5.6,4.5,10.1,10.1,10.1s10.1-4.5,10.1-10.1  c0-43.6,35.8-79.4,79.4-79.4c5.6,0,10.1-4.5,10.1-10.1C347.7,243.7,343.2,239.2,337.6,239.2z M427,351c-5.6-1.1-11.2,2.2-12.3,6.7  c-6.7,26.8-27.9,49.2-54.8,55.9c-5.6,1.1-7.8,6.7-6.7,12.3c1.1,4.5,5.6,6.7,8.9,6.7c1.1,0,2.2,0,2.2,0c33.5-8.9,60.4-35.8,69.3-70.4  C434.9,357.7,431.5,352.1,427,351z"></path>
   </svg>