<?xml version="1.0" encoding="UTF-8" standalone="no"?><svg aria-hidden="true" focusable="false" data-prefix="ds" data-icon="plate-cutlery" class="svg-inline--fa fa-plate-cutlery fa-w-25 fa-fw Filter_ItemIcon__1Ial8" role="img" xmlns="http://www.w3.org/2000/svg" viewBox="0 0 512 340.5">
      <path fill="#FFFFFF" d="M476.6,318.7l2.2-116.9c0,0,0-20.8-11.3-31.6c-11.3-10.9-19.6-7.6-18.7-25l6.1-98.9c0,0,11.7-37.8,48.1-46.3  c0,0,8.5-0.5,8.5,5.7l0.5,320.6c0,0-1.9,14.2-18.9,14.2C476.1,340.4,476.6,324.8,476.6,318.7z M83.5,19.1c0,0-1.2-7.8-5.8-7.8  s-6.4,7.8-6.4,7.8c-0.5,1.5-2.6,70.8-2.6,70.8s0.6,9.9-7.2,9.9s-7.6-10.9-7.6-10.9l-4.3-68.4c0,0-1.4-9.2-6-9.2s-6,7.8-6,7.8  l-3.1,70.5c0,0,1.1,10.7-8.4,10.8c-8,0-8-11.1-8-11.1l-3.9-69.1c0,0-0.5-7.3-6-7.3s-5,6.3-5,6.3L0,114.4c0,0,3.7,24.7,24.3,24.7  c0.7,0,1.5,0,2.2,0l-3,180c0.2,6.1,0.1,21.7,19.5,21.3c19.3-0.5,21.1-14.7,21.1-14.7l-5-186.6c4.3,0,7,0,7,0s18.4-1.9,21.6-22.8  L83.5,19.1z M260.7,6.4C168.7,6.4,94,81,94,173.1s74.6,166.7,166.7,166.7s166.7-74.6,166.7-166.7C427.4,81,352.8,6.4,260.7,6.4z"></path>
   </svg>