<?xml version="1.0" encoding="UTF-8" standalone="no"?><svg aria-hidden="true" focusable="false" data-prefix="ds" data-icon="playing" class="svg-inline--fa fa-playing fa-w-16 fa-fw Filter_ItemIcon__1Ial8" role="img" xmlns="http://www.w3.org/2000/svg" viewBox="0 0 512 512">
      <path fill="#FFFFFF" d="M241.3,357.6c-11.7,0-20.8,3.9-28.5,11.7c-16.9,16.9-23.4,41.5-15.6,58.4v1.3c10.4,32.4,33.7,45.4,50.6,48  c22.1,2.6,35-3.9,41.5-19.5c11.7-25.9,0-66.2-18.2-85.6C266,362.8,254.3,357.6,241.3,357.6z M394.4,405.6c-2.6,0-5.2,0-7.8,1.3  c-25.9,6.5-59.7,35-63.6,62.3c-2.6,15.6,6.5,28.5,24.7,37.6c7.8,3.9,15.6,5.2,24.7,5.2c15.6,0,29.8-5.2,44.1-15.6c0,0,1.3,0,1.3-1.3  c15.6-9.1,24.7-33.7,20.8-57.1C433.3,417.3,412.6,405.6,394.4,405.6z M464.5,266.8c20.8,0,38.9-13,45.4-33.7  c7.8-25.9-6.5-53.2-32.4-61c-10.4-3.9-22.1-2.6-31.1,1.3c-10.4-11.7-22.1-19.5-37.6-24.7c-14.3-5.2-29.8-5.2-44.1-2.6  c-6.5-7.8-14.3-15.6-24.7-18.2c-25.9-7.8-53.2,6.5-61,32.4c-6.5,20.8,1.3,41.5,18.2,53.2c-3.9,15.6-2.6,31.1,1.3,45.4l-57.1-16.9  c-5.2-1.3-11.7-2.6-16.9-1.3c0-3.9-1.3-7.8-2.6-11.7c-7.8-19.5-44.1-24.7-62.3-57.1c-5.2-10.4-13-20.8-9.1-38.9  c7.8,2.6,10.4,2.6,18.2,2.6c13,0,24.7-1.3,37.6-5.2c22.1-6.5,37.6-28.5,42.8-51.9c5.2-28.5-6.5-55.8-32.4-70.1  c-27.2-14.3-63.6-9.1-81.7,14.3c-14.3,19.5-14.3,40.2-24.7,62.3c-3.9,7.8-19.5,9.1-25.9,15.6c-9.1,9.1-16.9,16.9-24.7,25.9  c-18.2,23.4-36.3,48-49.3,75.2C2.6,220.1,0,237,0,255.1c0,0,0,10.4,3.9,20.8v179c0,16.9,14.3,31.1,31.1,31.1s31.1-14.3,31.1-31.1  v-85.6l19.5,84.3c3.9,14.3,15.6,23.4,29.8,23.4c2.6,0,5.2,0,6.5-1.3c16.9-3.9,27.2-20.8,23.4-37.6l-40.2-172.6c0-1.3,0-3.9,0-5.2  c0-10.4,9.1-31.1,15.6-37.6c6.5,10.4,16.9,16.9,25.9,23.4c9.1,7.8,27.2,16.9,38.9,19.5c3.9,1.3,7.8,1.3,13,1.3  c-2.6,16.9,7.8,32.4,24.7,37.6l40.2,11.7c-3.9,5.2-6.5,11.7-10.4,18.2c14.3,2.6,28.5,9.1,37.6,18.2c15.6,16.9,27.2,46.7,27.2,75.2  c15.6-23.4,42.8-41.5,66.2-46.7c13-2.6,27.2-1.3,41.5,5.2c1.3-7.8,2.6-14.3,2.6-22.1l38.9,11.7c3.9,1.3,6.5,1.3,10.4,1.3  c14.3,0,28.5-9.1,32.4-24.7c5.2-18.2-5.2-37.6-23.4-42.8l-46.7-14.3C448.9,292.7,459.3,281.1,464.5,266.8z M495.6,211  c5.2,22.1-31.1,28.5-31.1,28.5c2.6-22.1-10.4-46.7-10.4-46.7C467.1,187.6,491.7,188.9,495.6,211z M311.4,195.4  c0,0-28.5-18.2-10.4-38.9c16.9-18.2,38.9-9.1,46.7,1.3C347.7,157.8,323.1,170.8,311.4,195.4z M419.1,275.9c-7.8,25.9-35,35-61,25.9  c-25.9-7.8-40.2-29.8-32.4-55.8c7.8-25.9,35-40.2,61-32.4C412.6,222.7,426.8,249.9,419.1,275.9z M380.1,235.7  c-6.5-1.3-15.6-2.6-22.1,0c-6.5,3.9-6.5,11.7-2.6,18.2c3.9,7.8,11.7,10.4,19.5,13c7.8,2.6,16.9,5.2,23.4,0  c5.2-5.2,5.2-14.3,1.3-19.5C394.4,240.8,387.9,237,380.1,235.7z"></path>
   </svg>