<?xml version="1.0" encoding="UTF-8" standalone="no"?><svg aria-hidden="true" focusable="false" data-prefix="ds" data-icon="playground" class="svg-inline--fa fa-playground fa-w-16 fa-fw Filter_ItemIcon__1Ial8" role="img" xmlns="http://www.w3.org/2000/svg" viewBox="0 0 512 512">
      <path fill="#FFFFFF" d="M257.6,391.2c1.2,0,1.2,0,1.2,0h-9.6c0,0,0,0,1.2,0c0,0-9.6,6-14.4,27.5H272C267.2,397.2,257.6,391.2,257.6,391.2z   M508.4,490.5L468.9,55c-3.6-31.1-29.9-55-61-55H106.5c-31.1,0-57.4,23.9-61,55L3.6,491.7c-1.2,10.8,6,19.1,16.7,20.3h1.2  c9.6,0,17.9-7.2,19.1-16.7L81.4,59.8c1.2-12,12-21.5,23.9-21.5h39.5l14.4,245.2c-4.8,2.4-8.4,7.2-8.4,13.2c0,1.2,1.2,13.2,10.8,22.7  l4.8,76.6c-1.2,2.4-2.4,6-2.4,8.4c0,4.8,2.4,9.6,6,12c1.2,2.4,3.6,3.6,7.2,3.6h1.2h9.6c1.2-12,4.8-21.5,8.4-29.9h-12l-4.8-57.4  c7.2,2.4,14.4,3.6,22.7,3.6c4.8,0,10.8,0,15.6-1.2v19.1c0,2.4,0,6,1.2,8.4c-13.2,13.2-31.1,40.7-28.7,98.1  c0,10.8,9.6,17.9,19.1,17.9h1.2c10.8,0,19.1-9.6,17.9-20.3c-2.4-57.4,20.3-70.6,20.3-70.6h10.8c0,0,22.7,13.2,20.3,70.6  c0,10.8,7.2,20.3,17.9,20.3h1.2c10.8,0,19.1-8.4,19.1-17.9c2.4-56.2-14.4-84.9-28.7-98.1c1.2-2.4,1.2-4.8,1.2-8.4V335  c6,1.2,10.8,1.2,15.6,1.2c8.4,0,15.6-1.2,22.7-3.6l-3.6,57.4h-12c3.6,8.4,6,17.9,8.4,29.9h9.6h1.2c2.4,0,4.8-1.2,7.2-3.6  c3.6-2.4,6-7.2,6-12c0-3.6-1.2-6-2.4-8.4l4.8-76.6c8.4-10.8,9.6-21.5,10.8-22.7c1.2-6-2.4-10.8-8.4-13.2l14.4-245.2h40.7  c12,0,22.7,9.6,23.9,21.5l41.9,434.2c1.2,10.8,9.6,17.9,20.3,16.7C501.2,509.6,509.6,500,508.4,490.5z M333.8,299.1  c-1.2,2.4-3.6,6-7.2,8.4c-8.4,6-23.9,6-43.1,0c-4.8-4.8-12-7.2-19.1-7.2h-17.9c-7.2,0-14.4,2.4-19.1,7.2c-19.1,6-33.5,6-41.9,0  c-3.6-2.4-6-6-7.2-8.4l-14.4-262h185.4L333.8,299.1z M256,223.7c17.9,0,32.3,14.4,32.3,32.3S274,288.3,256,288.3  c-17.9,0-32.3-14.4-32.3-32.3S238.1,223.7,256,223.7z"></path>
   </svg>