<?xml version="1.0" encoding="UTF-8" standalone="no"?><svg aria-hidden="true" focusable="false" data-prefix="ds" data-icon="power-outlet" class="svg-inline--fa fa-power-outlet fa-w-16 fa-fw Filter_ItemIcon__1Ial8" role="img" xmlns="http://www.w3.org/2000/svg" viewBox="0 0 512 512">
      <path fill="#FFFFFF" d="M435.6,0H75.3C34.2,0,0,33.1,0,75.3v361.5C0,477.8,33.1,512,75.3,512h361.5c41.1,0,75.3-33.1,75.3-75.3V75.3  C510.9,33.1,477.8,0,435.6,0z M362.6,393.4c-4.6,5.7-12.5,9.1-19.4,9.1H168.8c-8,0-14.8-3.4-19.4-9.1  c-117.5-132.3-30.8-244-1.1-274.8c4.6-5.7,12.5-8,19.4-8h175.6c8,0,14.8,3.4,19.4,9.1C478.9,248.6,392.3,361.5,362.6,393.4z   M171,203h37.6v106H171V203z M302.2,203h37.6v106h-37.6C302.2,309,302.2,203,302.2,203z"></path>
   </svg>