<?xml version="1.0" encoding="UTF-8" standalone="no"?><svg aria-hidden="true" focusable="false" data-prefix="ds" data-icon="power-switch" class="svg-inline--fa fa-power-switch fa-w-16 fa-fw Filter_ItemIcon__1Ial8" role="img" xmlns="http://www.w3.org/2000/svg" viewBox="0 0 512 512">
      <path fill="#FFFFFF" d="M454.7,1.2H57.3C25.1,1.2,0,27.4,0,58.5v396.2C0,486.9,26.3,512,57.3,512h397.4c32.2,0,57.3-26.3,57.3-57.3V58.5  C512,26.3,486.9,1.2,454.7,1.2z M471.4,454.7c0,9.5-7.2,16.7-16.7,16.7H57.3c-9.5,0-16.7-7.2-16.7-16.7V58.5  c0-9.5,7.2-16.7,16.7-16.7h397.4c9.5,0,16.7,7.2,16.7,16.7V454.7z M191,379.5h132.5V133.7H191V379.5z M292.4,179v65.6  c0,8.4-7.2,14.3-14.3,14.3h-41.8c-8.4,0-14.3-7.2-14.3-14.3V179c0-8.4,7.2-14.3,14.3-14.3h41.8C285.2,163.5,292.4,170.7,292.4,179z   M80,68c7.2,0,13.1,6,13.1,13.1s-6,13.1-13.1,13.1c-7.2,0-13.1-6-13.1-13.1S72.8,68,80,68z M80,420.1c7.2,0,13.1,6,13.1,13.1  s-6,13.1-13.1,13.1s-13.1-6-13.1-13.1C66.8,426.1,72.8,420.1,80,420.1z M432,68c7.2,0,13.1,6,13.1,13.1s-6,13.1-13.1,13.1  c-7.2,0-13.1-6-13.1-13.1S424.9,68,432,68z M432,417.7c7.2,0,13.1,6,13.1,13.1s-6,13.1-13.1,13.1s-13.1-6-13.1-13.1  C418.9,423.7,424.9,417.7,432,417.7z"></path>
   </svg>