<?xml version="1.0" encoding="UTF-8" standalone="no"?><svg aria-hidden="true" focusable="false" data-prefix="ds" data-icon="teacup" class="svg-inline--fa fa-teacup fa-w-16 fa-fw Filter_ItemIcon__1Ial8" role="img" xmlns="http://www.w3.org/2000/svg" viewBox="0 0 512 512">
      <path fill="#FFFFFF" d="M205.5,206.5c2,2.3,4.9,3.5,7.8,3.5c2.4,0,4.8-0.9,6.7-2.5c4.3-3.7,4.7-10.2,1-14.5c-0.3-0.3-27.5-32.5-10-54.5  c23.3-29.4,9.1-53.3-1.7-61.9c-4.4-3.5-10.9-2.8-14.4,1.7c-3.5,4.4-2.8,10.8,1.6,14.4c2.5,2.1,14,13.5-1.6,33.2  C166.8,161.1,203.9,204.7,205.5,206.5L205.5,206.5z M205.5,206.5 M260.4,23c4.4-3.5,5.1-10,1.6-14.4c-3.5-4.4-10-5.1-14.5-1.6  c-10.7,8.6-24.9,32.6-1.6,61.9c17.5,22-9.7,54.2-10,54.5c-3.7,4.3-3.3,10.8,1,14.5c1.9,1.7,4.3,2.5,6.7,2.5c2.9,0,5.8-1.2,7.8-3.5  c1.6-1.9,38.6-45.4,10.5-80.7C246.4,36.5,257.9,25.1,260.4,23L260.4,23z M260.4,23 M506.5,267.2c-6.6-9.7-18.1-15.5-31-15.5h-62.7  c0.7-9.4,0.9-17.3,1-22.9c0-5.3-4.4-9.7-9.8-9.7H14.4c-5.4,0-9.8,4.3-9.7,9.7c0.5,41.7,11.2,205.6,143.7,246.4H10  c-7.9,0-12,6-9.1,13.4l3.9,10.1C7.7,506,16.5,512,24.4,512h369.5c7.9,0,16.7-6,19.6-13.4l3.9-10.1c2.9-7.4-1.2-13.4-9.1-13.4H276  c44.7-14.4,75-43.9,95.4-78.2c86.3-2.4,123.4-62.1,137.8-98C513.7,288,512.7,276.4,506.5,267.2z M482.3,288.2  c-13.1,32.7-40.3,70.9-95.6,78.6c12.5-29.7,19.3-60.4,22.9-86.1h65.8c3.8,0,6.1,1.4,7,2.7C483.2,284.6,483.2,286.2,482.3,288.2z"></path>
   </svg>