<?xml version="1.0" encoding="UTF-8" standalone="no"?><svg aria-hidden="true" focusable="false" data-prefix="ds" data-icon="makeup" class="svg-inline--fa fa-makeup fa-w-16 fa-fw Filter_ItemIcon__1Ial8" role="img" xmlns="http://www.w3.org/2000/svg" viewBox="0 0 512 512">
      <path fill="#FFFFFF" d="M471.2,447.1l-67.6-112.7l-10.7,5.4l-48.3-79.4l-68.7,40.8l48.3,79.4l-9.7,6.4l69.8,115.9c5.4,8.6,16.1,11.8,25.8,6.4  l53.7-32.2C474.4,470.7,477.7,456.8,471.2,447.1z M288.7,183c0,0-10.7-18.3-27.9,5.4c-17.2,23.6-4.3,61.2-4.3,61.2l19.3,31.1  l51.5-31.1L288.7,183z M330.6,78.9h2.1c0,0-38.6-74.1-88-78.4c-48.3-4.3-59,20.4-59,20.4s-10.7-24.7-59-20.4  C76.1,5.9,37.5,78.9,37.5,78.9h2.1c4.3,7.5,46.2,83.7,133.1,83.7h24.7C283.3,162.6,326.3,86.4,330.6,78.9z M89,79.9  c0,0,81.6-25.8,198.6,0C286.6,79.9,198.5,92.8,89,79.9z"></path>
   </svg>