<?xml version="1.0" encoding="UTF-8" standalone="no"?><svg aria-hidden="true" focusable="false" data-prefix="ds" data-icon="person-reading" class="svg-inline--fa fa-person-reading fa-w-16 fa-fw Filter_ItemIcon__1Ial8" role="img" xmlns="http://www.w3.org/2000/svg" viewBox="0 0 512 512">
      <path fill="#FFFFFF" d="M481.5,399.2l-96.2-140.4c-2.2-2.2-3.3-4.4-5.5-6.6c-23.2-25.4-56.4-42-92.9-42h-63c-36.5,0-69.7,16.6-92.9,42  c-2.2,2.2-4.4,4.4-5.5,6.6L30.3,399.2c-5.5,7.7-6.6,17.7-4.4,26.5c0,1.1,0,2.2,0,3.3c3.3,15.5,16.6,26.5,32.1,26.5  c2.2,0,4.4,0,6.6-1.1l56.4-12.2V512h268.7v-68.6l56.4,12.2c2.2,0,4.4,1.1,6.6,1.1c15.5,0,29.9-11.1,32.1-26.5c0-1.1,0-2.2,0-3.3  C489.2,416.9,487,408.1,481.5,399.2z M383.1,373.8l-40.9-8.8c-17.7-3.3-35.4,7.7-39.8,25.4c-3.3,17.7,7.7,35.4,25.4,39.8l54.2,11.1  l-126.1,44.2l-126.1-44.2l54.2-11.1c17.7-3.3,29.9-21,25.4-39.8c-3.3-17.7-21-29.9-39.8-25.4l-40.9,8.8V269.8l127.2,44.2l127.2-44.2  C383.1,269.8,383.1,373.8,383.1,373.8z M255.9,0c52,0,95.1,43.1,95.1,95.1s-43.1,95.1-95.1,95.1s-95.1-43.1-95.1-95.1  S203.9,0,255.9,0z"></path>
   </svg>