<?xml version="1.0" encoding="UTF-8" standalone="no"?><svg aria-hidden="true" focusable="false" data-prefix="ds" data-icon="house-roof" class="svg-inline--fa fa-house-roof fa-w-16 fa-fw Filter_ItemIcon__1Ial8" role="img" xmlns="http://www.w3.org/2000/svg" viewBox="0 0 512 512">
      <path fill="#FFFFFF" d="M488.9,123.5L275.9,5.3c-11.7-7-26.9-7-39.8,0l-213,118.2C10.2,130.5,2,144.5,2,158.6v3.5c0,22.2,18.7,41,41,41  c7,0,14-2.3,19.9-4.7L256,91.9l193.1,106.5c5.9,3.5,12.9,4.7,19.9,4.7c10.5,0,21.1-3.5,28.1-11.7c8.2-8.2,12.9-17.6,12.9-29.3v-3.5  C510,144.5,501.8,130.5,488.9,123.5z M459.6,239.3h-4.7c-9.4,0-16.4,7-16.4,16.4v218.8H73.4V255.7c0-9.4-7-16.4-16.4-16.4h-4.7  c-9.4,0-16.4,7-16.4,16.4v239.9c0,9.4,7,16.4,16.4,16.4h4.7c1.2,0,1.2,0,2.3,0c1.2,0,1.2,0,2.3,0h389.7c1.2,0,1.2,0,2.3,0  c1.2,0,1.2,0,2.3,0h4.7c9.4,0,16.4-7,16.4-16.4V255.7C477.2,246.3,469,239.3,459.6,239.3z"></path>
   </svg>