<?xml version="1.0" encoding="UTF-8" standalone="no"?><svg aria-hidden="true" focusable="false" data-prefix="ds" data-icon="rug" class="svg-inline--fa fa-rug fa-w-16 fa-fw Filter_ItemIcon__1Ial8" role="img" xmlns="http://www.w3.org/2000/svg" viewBox="0 0 512 512">
      <path fill="#FFFFFF" d="M308.7,96.6H204.5c-3.8,35.6-31.8,63.5-67.3,67.3v184.2c35.6,3.8,63.5,31.8,67.3,67.3h104.2c3.8-35.6,31.8-63.5,67.3-67.3  V163.9C340.5,160.1,311.3,132.1,308.7,96.6z M409.1,0v41.9h-31.8V0h-22.9v41.9h-31.8V0h-22.9v41.9h-31.8V0h-22.9v41.9h-31.8V0h-22.9  v41.9h-31.8V0h-22.9v41.9h-31.8V0H80v512h22.9v-43.2h31.8V512h22.9v-43.2h31.8V512h22.9v-43.2h33V512h22.9v-43.2h31.8V512h22.9  v-43.2h31.8V512h22.9v-43.2h31.8V512H432v-43.2V41.9V0H409.1z M391.3,362.1h-7.6c-33,0-59.7,26.7-59.7,59.7v7.6H189.3v-6.4  c0-33-26.7-59.7-59.7-59.7H122V148.6h7.6c33,0,59.7-26.7,59.7-59.7v-7.6h133.4v7.6c0,33,26.7,59.7,59.7,59.7h7.6v213.4H391.3z"></path>
   </svg>