<?xml version="1.0" encoding="UTF-8" standalone="no"?><svg aria-hidden="true" focusable="false" data-prefix="ds" data-icon="shampoo" class="svg-inline--fa fa-shampoo fa-w-16 fa-fw Filter_ItemIcon__1Ial8" role="img" xmlns="http://www.w3.org/2000/svg" viewBox="0 0 512 512">
      <path fill="#FFFFFF" d="M347.6,240.8c5.1,1.3,10.1,2.5,15.2,2.5c20.3,0,38-12.7,44.4-31.7c8.9-24.1-5.1-50.7-29.1-59.6c-5.1-1.3-10.1-2.5-15.2-2.5  c-20.3,0-38,12.7-44.4,31.7c-3.8,11.4-3.8,24.1,2.5,35.5C326,228.1,336.2,237,347.6,240.8z M342.5,188.8  c2.5-8.9,11.4-15.2,20.3-15.2c2.5,0,5.1,0,7.6,1.3c11.4,3.8,17.7,16.5,13.9,27.9c-3.8,11.4-16.5,17.7-27.9,13.9  c-5.1-2.5-10.1-6.3-12.7-11.4C341.2,200.2,340,195.2,342.5,188.8z M450.2,226.9c-3.8-1.3-8.9-2.5-12.7-2.5  c-16.5,0-30.4,10.1-36.8,25.3c-6.3,20.3,3.8,41.8,24.1,49.4c3.8,1.3,8.9,2.5,12.7,2.5c16.5,0,30.4-10.1,36.8-25.3  C480.6,256,470.5,234.5,450.2,226.9z M450.2,268.7c-2.5,6.3-10.1,10.1-16.5,8.9c-3.8-1.3-6.3-3.8-7.6-6.3c-1.3-3.8-1.3-6.3,0-10.1  c1.3-5.1,6.3-8.9,12.7-8.9c1.3,0,2.5,0,3.8,1.3C449,253.5,452.8,261.1,450.2,268.7z M372.9,314.3c-11.4-8.9-26.6-13.9-40.6-13.9  c-5.1,0-10.1,0-15.2,1.3c-1.3-1.3-2.5-2.5-5.1-3.8c-15.2-11.4-33-17.7-52-17.7c-1.3,0-1.3,0-2.5,0v-78.6c0-40.6-24.1-77.3-58.3-93.8  H94.1c-34.2,17.7-58.3,53.2-58.3,93.8V474c0,19,15.2,34.2,34.2,34.2h153.3c6.3,0,11.4-1.3,16.5-5.1c11.4,5.1,24.1,8.9,36.8,8.9  c26.6,0,50.7-11.4,67.2-33c12.7-15.2,17.7-34.2,17.7-52c8.9-3.8,16.5-10.1,21.5-17.7C407.1,380.2,402.1,337.1,372.9,314.3z   M260.1,305.4c11.4,0,21.5,2.5,31.7,8.9c-3.8,3.8-8.9,7.6-11.4,11.4c-3.8,5.1-6.3,10.1-8.9,15.2c-3.8,0-8.9,1.3-12.7,2.5v-38  C258.9,305.4,258.9,305.4,260.1,305.4z M119.5,155.9c-35.5,11.4-34.2,86.2-34.2,87.4v200.2c0,6.3-5.1,12.7-12.7,12.7  c-6.3,0-12.7-5.1-12.7-12.7V243.3c0-3.8-2.5-93.8,52-111.5c6.3-2.5,13.9,1.3,16.5,7.6C129.6,147,125.8,154.6,119.5,155.9z   M324.8,463.8c-11.4,15.2-29.1,22.8-46.9,22.8c-7.6,0-13.9-1.3-21.5-3.8c1.3-2.5,1.3-5.1,1.3-8.9V370.1c2.5-1.3,5.1-1.3,7.6-2.5  c0,2.5,0,5.1,0,7.6c2.5,17.7,11.4,33,25.3,44.4c11.4,8.9,26.6,13.9,40.6,13.9c1.3,0,3.8,0,5.1,0C336.2,444.8,332.4,455,324.8,463.8z   M365.3,392.9c-7.6,10.1-20.3,16.5-33,16.5c-8.9,0-17.7-2.5-25.3-8.9c-8.9-6.3-13.9-16.5-15.2-27.9c-1.3-11.4,1.3-21.5,8.9-30.4  c7.6-10.1,20.3-16.5,33-16.5c8.9,0,17.7,2.5,25.3,8.9C375.5,348.5,379.3,375.1,365.3,392.9z M91.6,0h110.3v88.7H91.6V0z"></path>
   </svg>