<?xml version="1.0" encoding="UTF-8" standalone="no"?><svg aria-hidden="true" focusable="false" data-prefix="ds" data-icon="shaving-kit" class="svg-inline--fa fa-shaving-kit fa-w-16 fa-fw Filter_ItemIcon__1Ial8" role="img" xmlns="http://www.w3.org/2000/svg" viewBox="0 0 512 512">
      <path fill="#FFFFFF" d="M432.4,0H264.3c-33.4,0-60.1,26.7-60.1,60.1s26.7,60.1,60.1,60.1H320v62.3c-12.2,8.9-21.1,23.4-21.1,41.2V463  c0,27.8,22.3,49,49,49c27.8,0,49-22.3,49-49V224.8c0-17.8-8.9-31.2-21.1-41.2v-62.3h55.7c33.4,0,60.1-26.7,60.1-60.1  C492.5,26.7,465.8,0,432.4,0z M439.1,90.2H257.7c-4.5,0-8.9-4.5-8.9-8.9c0-4.5,4.5-8.9,8.9-8.9h181.4c4.5,0,8.9,4.5,8.9,8.9  S443.5,90.2,439.1,90.2z M439.1,46.7H257.7c-4.5,0-8.9-4.5-8.9-8.9s4.5-8.9,8.9-8.9h181.4c4.5,0,8.9,4.5,8.9,8.9  C448,42.3,443.5,46.7,439.1,46.7z M202,152.5l-22.3,15.6c0,0,10-27.8-5.6-35.6s-46.7-10-46.7-10l-6.7,65.7c0,0-14.5-67.9-22.3-66.8  c-6.7,1.1-23.4,4.5-23.4,4.5l-2.2,31.2l-16.7-26.7c0,0-21.1,10-30.1,21.1c-8.9,10-4.5,33.4-4.5,33.4l44.5,106.9l4.5,10h91.3  c0,0,44.5-99.1,50.1-116.9C217.6,168.1,202,152.5,202,152.5z M193.1,355.1c2.2-24.5-15.6-24.5-15.6-24.5H52.9c0,0-17.8,0-15.6,24.5  c2.2,24.5,34.5,27.8,13.4,62.3s-24.5,80.1,5.6,91.3h55.7h5.6h56.8c30.1-12.2,27.8-57.9,5.6-91.3  C158.6,382.9,190.9,379.5,193.1,355.1z"></path>
   </svg>