<?xml version="1.0" encoding="UTF-8" standalone="no"?><svg aria-hidden="true" focusable="false" data-prefix="ds" data-icon="shower" class="svg-inline--fa fa-shower fa-w-16 fa-fw Filter_ItemIcon__1Ial8" role="img" xmlns="http://www.w3.org/2000/svg" viewBox="0 0 512 512">
      <path fill="#FFFFFF" d="M284.3,128v2.1l-77.9,49.1c-4.3,3.2-2.1,10.7,3.2,10.7h185.6c5.3,0,7.5-7.5,3.2-10.7l-73.6-48V128c0-70.4-57.6-128-128-128  C125.3,0,67.7,57.6,67.7,128v363.7c0,10.7,9.6,20.3,20.3,20.3c11.7,0,20.3-9.6,20.3-20.3V128c0-48,39.5-87.5,87.5-87.5  C244.8,40.5,284.3,80,284.3,128z M372.8,219.7c10.7,0,19.2,8.5,19.2,19.2c0,10.7-8.5,19.2-19.2,19.2s-19.2-8.5-19.2-19.2  C353.6,228.3,362.1,219.7,372.8,219.7z M390.9,291.2c10.7,0,19.2,8.5,19.2,19.2c0,10.7-8.5,19.2-19.2,19.2  c-10.7,0-19.2-8.5-19.2-19.2C371.7,299.7,380.3,291.2,390.9,291.2z M408,362.7c10.7,0,19.2,8.5,19.2,19.2c0,10.7-8.5,19.2-19.2,19.2  c-10.7,0-19.2-8.5-19.2-19.2C388.8,371.2,397.3,362.7,408,362.7z M425.1,434.1c10.7,0,19.2,8.5,19.2,19.2c0,10.7-8.5,19.2-19.2,19.2  c-10.7,0-19.2-8.5-19.2-19.2C405.9,442.7,414.4,434.1,425.1,434.1z M329.1,219.7c10.7,0,19.2,8.5,19.2,19.2  c0,10.7-8.5,19.2-19.2,19.2c-10.7,0-19.2-8.5-19.2-19.2C309.9,228.3,318.4,219.7,329.1,219.7z M334.4,291.2  c10.7,0,19.2,8.5,19.2,19.2c0,10.7-8.5,19.2-19.2,19.2c-10.7,0-19.2-8.5-19.2-19.2S323.7,291.2,334.4,291.2z M339.7,362.7  c10.7,0,19.2,8.5,19.2,19.2c0,10.7-8.5,19.2-19.2,19.2s-19.2-8.5-19.2-19.2C320.5,371.2,329.1,362.7,339.7,362.7z M345.1,434.1  c10.7,0,19.2,8.5,19.2,19.2c0,10.7-8.5,19.2-19.2,19.2c-10.7,0-19.2-8.5-19.2-19.2C325.9,442.7,334.4,434.1,345.1,434.1z   M284.3,219.7c10.7,0,19.2,8.5,19.2,19.2c0,10.7-8.5,19.2-19.2,19.2s-19.2-8.5-19.2-19.2C265.1,228.3,273.6,219.7,284.3,219.7z   M278.9,291.2c10.7,0,19.2,8.5,19.2,19.2c0,10.7-8.5,19.2-19.2,19.2c-10.7,0-19.2-8.5-19.2-19.2  C259.7,299.7,268.3,291.2,278.9,291.2z M272.5,362.7c10.7,0,19.2,8.5,19.2,19.2c0,10.7-8.5,19.2-19.2,19.2  c-10.7,0-19.2-8.5-19.2-19.2C253.3,371.2,261.9,362.7,272.5,362.7z M266.1,434.1c10.7,0,19.2,8.5,19.2,19.2  c0,10.7-8.5,19.2-19.2,19.2c-10.7,0-19.2-8.5-19.2-19.2C246.9,442.7,255.5,434.1,266.1,434.1z M240.5,219.7  c10.7,0,19.2,8.5,19.2,19.2c0,10.7-8.5,19.2-19.2,19.2c-10.7,0-19.2-8.5-19.2-19.2C221.3,228.3,229.9,219.7,240.5,219.7z   M223.5,291.2c10.7,0,19.2,8.5,19.2,19.2c0,10.7-8.5,19.2-19.2,19.2s-19.2-8.5-19.2-19.2C204.3,299.7,212.8,291.2,223.5,291.2z   M205.3,362.7c10.7,0,19.2,8.5,19.2,19.2c0,10.7-8.5,19.2-19.2,19.2c-10.7,0-19.2-8.5-19.2-19.2  C186.1,371.2,194.7,362.7,205.3,362.7z M188.3,433.1c10.7,0,19.2,8.5,19.2,19.2c0,10.7-8.5,19.2-19.2,19.2s-19.2-8.5-19.2-19.2  C169.1,441.6,177.6,433.1,188.3,433.1z"></path>
   </svg>