<?xml version="1.0" encoding="UTF-8" standalone="no"?><svg aria-hidden="true" focusable="false" data-prefix="ds" data-icon="tree-bench" class="svg-inline--fa fa-tree-bench fa-w-16 fa-fw Filter_ItemIcon__1Ial8" role="img" xmlns="http://www.w3.org/2000/svg" viewBox="0 0 512 512">
      <path fill="#FFFFFF" d="M218.3,295.3c46.8-4.6,83.2-44.5,83.2-92.4c0-41.1-27.4-76.4-65-88.9c9.1-11.4,14.8-26.2,14.8-42.2  c0-39.9-34.2-71.8-75.3-71.8c-22.8,0-44.5,10.3-58.2,25.1c-1.1,0-2.3,0-3.4,0c-45.6,0-83.2,37.6-83.2,83.2c0,16,4.6,29.6,11.4,42.2  c-25.1,17.1-42.2,45.6-42.2,77.5c0,51.3,41.1,92.4,92.4,92.4H94l36.5,69.6l-8,118.6h65l-11.4-147.1l26.2-44.5L218.3,295.3z   M113.4,320.4c10.3-2.3,19.4-6.8,28.5-11.4l-2.3,49L113.4,320.4z M173.8,289.6c8,3.4,17.1,5.7,26.2,5.7l-22.8,25.1L173.8,289.6z   M499.9,304.5H300.4c-8,0-14.8,5.7-17.1,13.7L273,360.3c-2.3,8,3.4,13.7,10.3,13.7h18.2l-8,34.2c0,1.1,0,2.3,0,2.3h-51.3  c-4.6,0-8,3.4-8,8v13.7c0,4.6,3.4,8,8,8h2.3c-5.7,9.1-9.1,21.7-9.1,36.5V504c0,4.6,3.4,8,8,8c4.6,0,8-3.4,8-8v-27.4  c0-20.5,9.1-35.3,17.1-35.3h11.4c8,0,17.1,14.8,17.1,35.3V504c0,4.6,3.4,8,8,8s8-3.4,8-8v-27.4c0-13.7-3.4-27.4-9.1-36.5H411  c-5.7,9.1-9.1,21.7-9.1,36.5V504c0,4.6,3.4,8,8,8c4.6,0,8-3.4,8-8v-27.4c0-20.5,9.1-35.3,17.1-35.3h11.4c8,0,17.1,14.8,17.1,35.3  V504c0,4.6,3.4,8,8,8c4.6,0,8-3.4,8-8v-27.4c0-14.8-3.4-27.4-9.1-36.5c4.6,0,8-3.4,8-8v-12.5c0-4.6-3.4-8-8-8h-1.1l8-34.2  c0-1.1,0-2.3,0-3.4h6.8c8,0,16-5.7,17.1-13.7l10.3-42.2C512.5,310.2,507.9,304.5,499.9,304.5z M447.5,408.2c0,1.1,0,2.3,0,2.3H310.7  l8-34.2c0-1.1,0-2.3,0-3.4h138L447.5,408.2z"></path>
   </svg>