<?xml version="1.0" encoding="UTF-8" standalone="no"?><svg aria-hidden="true" focusable="false" data-prefix="ds" data-icon="bed" class="svg-inline--fa fa-bed fa-w-26 fa-fw Filter_ItemIcon__1Ial8" role="img" xmlns="http://www.w3.org/2000/svg" viewBox="0 0 512 323.4">
      <path fill="#FFFFFF" d="M512,124.3v199.1h-49.2v-70.6H49.2v70.6H0V26.6C0,11.9,11,0,24.6,0s24.6,11.9,24.6,26.6v181h413.7v-83.2  c0-14.7,11-26.6,24.6-26.6C501,97.7,512,109.6,512,124.3z M439.9,168.9c0-33.7-27.3-61-61-61H186.7v75.6h253.1v-14.6H439.9z   M102.6,175.3c26.4,14.3,54.5,10,62.8-9.6c8.3-19.6-6.5-47.1-32.9-61.3c-26.4-14.3-54.5-10-62.8,9.6  C61.4,133.5,76.2,161,102.6,175.3z"></path>
   </svg>