<?xml version="1.0" encoding="UTF-8" standalone="no"?><svg aria-hidden="true" focusable="false" data-prefix="ds" data-icon="cigarette" class="svg-inline--fa fa-cigarette fa-w-16 fa-fw Filter_ItemIcon__1Ial8" role="img" xmlns="http://www.w3.org/2000/svg" viewBox="0 0 512 512">
      <path fill="#FFFFFF" d="M384.9,293.8h-55.6c0,0-25.2,0-38.8-12.6c-7.3-6.3-10.5-15.7-10.5-28.3c0-88.1-70.3-88.1-94.4-88.1  c-10.5,0-17.8,8.4-17.8,17.8c0,10.5,8.4,17.8,17.8,17.8c37.8,0,57.7,8.4,57.7,51.4c0,23.1,7.3,40.9,22,54.5  c25.2,24.1,61.9,23.1,65,23.1H386c36.7,0,39.9,35.7,40.9,42v22c0,10.5,8.4,17.8,17.8,17.8s17.8-8.4,17.8-17.8v-23.1  C460.5,345.2,443.7,293.8,384.9,293.8z M494,413.4c10.5,0,17.8-8.4,17.8-17.8v-90.2c-1-24.1-14.7-68.2-59.8-76.6  c-2.1-13.6-7.3-31.5-21-47.2c-13.6-14.7-33.6-23.1-57.7-23.1h-68.2c-10.5,0-17.8,8.4-17.8,17.8c0,9.4,8.4,17.8,17.8,17.8h68.2  c13.6,0,24.1,3.1,31.5,10.5c13.6,13.6,12.6,36.7,12.6,37.8l-1,19.9h19.9c36.7,0,39.9,35.7,40.9,42v89.2  C475.1,405,483.5,413.4,494,413.4z M398.6,436.5H10.5C4.2,436.5,0,441.7,0,447v53.5c0,6.3,5.2,10.5,10.5,10.5h388.1  c6.3,0,10.5-5.2,10.5-10.5V447C409.1,441.7,403.8,436.5,398.6,436.5z M453.1,435.4h-19.9c-4.2,0-7.3,3.1-7.3,7.3v61.9  c0,4.2,3.1,7.3,7.3,7.3h19.9c4.2,0,7.3-3.1,7.3-7.3v-61.9C460.5,439.6,457.3,435.4,453.1,435.4z M504.5,435.4h-19.9  c-4.2,0-7.3,3.1-7.3,7.3v61.9c0,4.2,3.1,7.3,7.3,7.3h19.9c4.2,0,7.3-3.1,7.3-7.3v-61.9C512.9,439.6,508.7,435.4,504.5,435.4z"></path>
   </svg>