<?xml version="1.0" encoding="UTF-8" standalone="no"?><svg aria-hidden="true" focusable="false" data-prefix="ds" data-icon="soap" class="svg-inline--fa fa-soap fa-w-16 fa-fw Filter_ItemIcon__1Ial8" role="img" xmlns="http://www.w3.org/2000/svg" viewBox="0 0 512 512">
      <path fill="#FFFFFF" d="M131.5,158c5.1,1.3,10.1,2.5,15.2,2.5c20.2,0,37.9-12.6,44.2-31.6c8.8-24-5.1-51.8-29.1-59.4c-5.1-1.3-10.1-2.5-15.2-2.5  c-20.2,0-37.9,12.6-44.2,31.6c-3.8,11.4-3.8,24,2.5,35.4C110,145.4,120.1,154.2,131.5,158z M126.4,106.2  c2.5-8.8,11.4-15.2,20.2-15.2c2.5,0,5.1,0,7.6,1.3c11.4,3.8,17.7,16.4,13.9,27.8c-3.8,11.4-16.4,17.7-27.8,13.9  c-5.1-2.5-10.1-6.3-12.6-11.4C125.2,117.6,125.2,112.5,126.4,106.2z M202.3,75.9c3.8,1.3,8.8,2.5,12.6,2.5  c16.4,0,31.6-10.1,36.7-26.5c7.6-20.2-3.8-41.7-24-49.3c-3.8-1.3-8.8-2.5-12.6-2.5c-16.4,0-31.6,10.1-36.7,26.5  C170.7,46.8,182,68.3,202.3,75.9z M202.3,34.1c1.3-5.1,6.3-8.8,12.6-8.8c1.3,0,2.5,0,3.8,1.3c7.6,2.5,10.1,10.1,8.8,16.4  c-2.5,6.3-10.1,10.1-16.4,8.8C203.5,49.3,199.7,41.7,202.3,34.1z M472.8,361.6c-13.9,25.3-39.2,48-67,56.9  c-49.3,12.6-99.9,19-151.7,19c-50.6,0-101.1-6.3-150.4-19c-27.8-8.8-53.1-31.6-67-58.2c-1.3,11.4-2.5,25.3-2.5,40.5l0,0  c0,35.4,31.6,79.6,73.3,92.3c97.3,25.3,199.7,25.3,297.1,0c40.5-12.6,73.3-56.9,73.3-92.3l0,0C475.3,385.6,475.3,372.9,472.8,361.6z   M110,398.2c93.6,24,196,24,290.8,0c36.7-11.4,64.5-53.1,64.5-82.2c0-17.7-10.1-39.2-26.5-56.9c2.5-2.5,3.8-5.1,6.3-6.3  c13.9-17.7,20.2-40.5,17.7-63.2c-2.5-22.8-13.9-43-31.6-56.9c-15.2-12.6-34.1-19-53.1-19l0,0c-3.8-8.8-10.1-16.4-17.7-21.5  c-11.4-8.8-26.5-13.9-41.7-13.9c-20.2,0-40.5,8.8-53.1,25.3c-12.6,16.4-16.4,36.7-12.6,55.6c-1.3,1.3-2.5,2.5-3.8,5.1  c-11.4,15.2-17.7,32.9-17.7,50.6c-41.7,1.3-82.2,7.6-122.6,17.7c-36.7,11.4-64.5,53.1-64.5,82.2C44.2,345.1,72.1,385.6,110,398.2z   M414.7,151.7c12.6,10.1,20.2,24,22.8,40.5c2.5,16.4-2.5,31.6-12.6,44.2c-11.4,15.2-27.8,22.8-46.8,22.8c-13.9,0-26.5-3.8-36.7-12.6  c-11.4-8.8-19-21.5-21.5-35.4c20.2,0,39.2-10.1,51.8-25.3c10.1-13.9,15.2-30.3,13.9-46.8C395.7,141.6,405.8,145.4,414.7,151.7z   M285.7,118.8c7.6-10.1,20.2-16.4,32.9-16.4c8.8,0,17.7,2.5,25.3,8.8c17.7,13.9,21.5,40.5,7.6,58.2c-7.6,10.1-20.2,16.4-32.9,16.4  c-8.8,0-17.7-2.5-25.3-8.8c-8.8-6.3-13.9-16.4-15.2-27.8C275.6,139.1,278.1,127.7,285.7,118.8z M276.9,197.2  c5.1,3.8,10.1,6.3,15.2,8.8c0,1.3,0,2.5,0,3.8c0,2.5,1.3,5.1,1.3,6.3c-12.6-1.3-25.3-1.3-37.9-1.3c0-10.1,3.8-20.2,8.8-30.3  C269.3,189.6,273.1,193.4,276.9,197.2z"></path>
   </svg>