<?xml version="1.0" encoding="UTF-8" standalone="no"?><svg aria-hidden="true" focusable="false" data-prefix="ds" data-icon="sofa" class="svg-inline--fa fa-sofa fa-w-30 fa-fw Filter_ItemIcon__1Ial8" role="img" xmlns="http://www.w3.org/2000/svg" viewBox="0 0 511.7 281.8">
      <path fill="#FFFFFF" d="M472.3,100.3c-1.2,0-1.2,0-2.4,0l0,0c0,0-1.2,0-4.8,1.2c-9.6,1.2-18,7.2-22.8,13.2c-9.6,9.6-20.4,27.6-25.2,57.7H94.9  c-4.8-30-15.6-46.9-25.2-57.7c-6-7.2-14.4-12-22.8-13.2c-2.4-1.2-4.8-1.2-4.8-1.2l0,0c-1.2,0-1.2,0-2.4,0C18,100.3,0,118.3,0,140  c0,19.2,13.2,34.9,31.2,38.5c2.4,26.4,10.8,60.1,27.6,78.1h18c-1.2,1.2-1.2,3.6-1.2,4.8v4.8c0,8.4,7.2,15.6,15.6,15.6h6  c8.4,0,15.6-7.2,15.6-15.6v-4.8c0-2.4,0-3.6-1.2-6h290.9c-1.2,1.2-1.2,3.6-1.2,6v4.8c0,8.4,7.2,15.6,15.6,15.6h6  c8.4,0,15.6-7.2,15.6-15.6v-4.8c0-2.4,0-3.6-1.2-6h15.6c16.8-18,25.2-51.7,27.6-78.1c18-3.6,31.2-19.2,31.2-38.5  C512,118.3,495.2,100.3,472.3,100.3z M82.9,102.7c12,12,21.6,30,26.4,51.7h292.1c6-21.6,14.4-38.5,26.4-51.7  c8.4-9.6,20.4-16.8,33.7-19.2c2.4,0,3.6-1.2,4.8-1.2C456.7,31.8,413.4,21,360.5,21H150.2c-51.7,0-94.9,9.6-104.6,61.3  c1.2,0,2.4,0,4.8,1.2C62.5,85.9,74.5,91.9,82.9,102.7z"></path>
   </svg>