<?xml version="1.0" encoding="UTF-8" standalone="no"?><svg aria-hidden="true" focusable="false" data-prefix="ds" data-icon="source-heat" class="svg-inline--fa fa-source-heat fa-w-16 fa-fw Filter_ItemIcon__1Ial8" role="img" xmlns="http://www.w3.org/2000/svg" viewBox="0 0 512 512">
      <path fill="#FFFFFF" d="M444.9,82l14.9,37.3l52.2-92L412.6,9.9l14.9,32.3C285.8,87,141.7-57.2,0,27.3v34.8C149.1-22.4,295.8,141.7,444.9,82z   M427.5,437.4C285.8,482.2,144.2,338,0,425v34.8c149.1-87,295.8,77,444.9,17.4l14.9,34.8l52.2-92l-99.4-17.4L427.5,437.4z   M161.6,348c134.2-79.5,32.3-213.7,32.3-213.7c0,22.4-19.9,47.2-19.9,47.2c0-12.4-5-24.9-9.9-34.8c-7.5-12.4-14.9-22.4-19.9-29.8  c-7.5-7.5-14.9-14.9-22.4-22.4c-9.9-7.5-14.9-12.4-17.4-14.9c-5,0-7.5-2.5-9.9-5c0,49.7-17.4,94.4-47.2,131.7  c0-14.9-5-29.8-14.9-44.7c0,9.9-5,24.9-12.4,44.7S7.5,238.6,5,246.1c-5,19.9-2.5,39.8,7.5,54.7c9.9,14.9,27.3,32.3,54.7,47.2  c-5-9.9-7.5-19.9-7.5-29.8c0-9.9,0-17.4,2.5-24.9c2.5-7.5,7.5-12.4,12.4-19.9c9.9-14.9,14.9-29.8,17.4-42.3l2.5,5  c2.5,5,2.5,9.9,2.5,17.4s0,17.4,0,29.8c9.9-9.9,14.9-24.9,19.9-44.7c5-19.9,5-34.8,2.5-42.3c24.9,14.9,42.3,37.3,49.7,67.1  C176.5,295.8,174,323.1,161.6,348L161.6,348z M427.5,241.1c-47.2,14.9-92,9.9-139.2-2.5v42.3c52.2,14.9,104.4,19.9,156.6,0  l14.9,37.3l52.2-92l-99.4-17.4L427.5,241.1z"></path>
   </svg>