<?xml version="1.0" encoding="UTF-8" standalone="no"?><svg aria-hidden="true" focusable="false" data-prefix="ds" data-icon="spices" class="svg-inline--fa fa-spices fa-w-16 fa-fw Filter_ItemIcon__1Ial8" role="img" xmlns="http://www.w3.org/2000/svg" viewBox="0 0 512 512">
      <path fill="#FFFFFF" d="M62.6,512h129.3c12,0,24-5.3,32-14.7c8-9.3,12-21.3,12-33.3l-16-188c-1.3-22.7-21.3-40-44-40h-96c-22.7,0-41.3,17.3-44,40  l-16,188c-1.3,12,2.7,24,12,33.3C38.6,506.7,50.6,512,62.6,512z M77.3,280c0-1.3,1.3-2.7,2.7-2.7h96c1.3,0,2.7,1.3,2.7,2.7l16,188  c0,1.3,0,1.3-1.3,2.7c0,0-1.3,1.3-2.7,1.3h-128c-1.3,0-1.3,0-2.7-1.3c0,0-1.3-1.3-1.3-2.7L77.3,280z M131.9,129.3h-9.3  c-32,0-60,21.3-69.3,52l-4,14.7c-2.7,8,4,14.7,12,14.7h133.3c8,0,13.3-8,12-14.7l-4-14.7C191.9,150.7,163.9,129.3,131.9,129.3z   M94.6,176c-4,4-10.7,4-14.7,0c-4-4-4-10.7,0-14.7s10.7-4,14.7,0C98.6,165.3,98.6,172,94.6,176z M135.9,164c-4,4-10.7,4-14.7,0  c-4-4-4-10.7,0-14.7c4-4,10.7-4,14.7,0S139.9,160,135.9,164z M175.9,176c-4,4-10.7,4-14.7,0s-4-10.7,0-14.7s10.7-4,14.7,0  S179.9,172,175.9,176z M459.9,457.3H313.3c-12,0-22.7,6.7-25.3,16l-2.7,12c-4,13.3,9.3,25.3,25.3,25.3h153.3  c17.3,0,29.3-12,25.3-25.3l-2.7-12C483.9,465.3,473.3,457.3,459.9,457.3z M471.9,300c-9.3-17.3-16-37.3-20-56  c-1.3-6.7,1.3-14.7,5.3-20c6.7-6.7,10.7-16,10.7-24c0-17.3-16-33.3-40-41.3c-8-2.7-13.3-10.7-13.3-18.7s5.3-16,13.3-18.7  c24-8,40-24,40-41.3c0-24-30.7-45.3-72-48c-2.7,2.7-6.7,4-10.7,4c-4,0-8-1.3-10.7-4c-41.3,2.7-73.3,22.7-73.3,48  c0,17.3,16,33.3,40,41.3c8,2.7,13.3,10.7,13.3,18.7c0,8-5.3,16-13.3,18.7c-24,8-40,24-40,41.3c0,9.3,5.3,18.7,13.3,25.3  c5.3,5.3,8,13.3,6.7,20c-4,17.3-10.7,36-20,53.3c-21.3,38.7-36,93.3,4,128c4,2.7,8,4,13.3,4h134.7c5.3,0,9.3-1.3,13.3-4  C506.6,393.3,493.3,338.7,471.9,300z M397.3,30.7c4-2.7,6.7-8,6.7-13.3c0-9.3-8-17.3-17.3-17.3c-9.3,0-17.3,8-17.3,17.3  c0,5.3,2.7,10.7,6.7,13.3c2.7,0,6.7,0,9.3,0C389.3,29.3,393.3,30.7,397.3,30.7z M397.3,30.7c-4,0-8,0-10.7,0s-6.7,0-9.3,0  c2.7,2.7,6.7,4,10.7,4C390.6,34.7,394.6,33.3,397.3,30.7z"></path>
   </svg>