<?xml version="1.0" encoding="UTF-8" standalone="no"?><svg aria-hidden="true" focusable="false" data-prefix="ds" data-icon="kitchen-fan" class="svg-inline--fa fa-kitchen-fan fa-w-16 fa-fw Filter_ItemIcon__1Ial8" role="img" xmlns="http://www.w3.org/2000/svg" viewBox="0 0 512 512">
      <path fill="#FFFFFF" d="M339.3,282.1c-21.9-4.9-45,9.7-53.5,31.6c-7.3,18.2-15.8,40.1-30.4,54.7c-8.5-6.1-15.8-19.5-17-24.3  c-3.6-13.4,1.2-23.1,7.3-35.3c10.9-23.1,8.5-53.5-26.8-51.1c-24.3,1.2-60.8,18.2-65.7,42.6c-4.9,21.9,9.7,45,31.6,53.5  c18.2,7.3,40.1,15.8,54.7,30.4c-6.1,8.5-19.5,15.8-24.3,17c-13.4,3.6-23.1-1.2-35.3-7.3c-23.1-10.9-53.5-8.5-51.1,26.8  c1.2,24.3,18.2,60.8,42.6,65.7c21.9,4.9,45-9.7,53.5-31.6c7.3-18.2,15.8-40.1,30.4-54.7c8.5,6.1,15.8,19.5,17,24.3  c3.6,13.4-1.2,23.1-7.3,35.3c-10.9,23.1-8.5,53.5,26.8,51.1c24.3-1.2,60.8-18.2,65.7-42.6c4.9-21.9-9.7-45-31.6-53.5  c-18.2-7.3-40.1-15.8-54.7-30.4c6.1-8.5,19.5-15.8,24.3-17c13.4-3.6,23.1,1.2,35.3,7.3c23.1,10.9,53.5,8.5,51.1-26.8  C380.7,323.5,363.6,287,339.3,282.1z M395.2,80.3h-43.8V0H159.3v80.3h-43.8C70.5,125.3,45,150.8,0,195.8v19.5h512v-19.5L395.2,80.3z   M367.3,199.4c-6.1,0-12.2-4.9-12.2-12.2c0-6.1,4.9-12.2,12.2-12.2c6.1,0,12.2,4.9,12.2,12.2S373.4,199.4,367.3,199.4z M417.1,199.4  c-6.1,0-12.2-4.9-12.2-12.2c0-6.1,4.9-12.2,12.2-12.2c6.1,0,12.2,4.9,12.2,12.2S424.4,199.4,417.1,199.4z"></path>
   </svg>