<?xml version="1.0" encoding="UTF-8" standalone="no"?><svg aria-hidden="true" focusable="false" data-prefix="ds" data-icon="storage" class="svg-inline--fa fa-storage fa-w-16 fa-fw Filter_ItemIcon__1Ial8" role="img" xmlns="http://www.w3.org/2000/svg" viewBox="0 0 512 512">
      <path fill="#FFFFFF" d="M74.5,144.1c0-1.2,0-2.5,0-2.5l175.4-96.9c4.9-2.5,11-2.5,15.9,0l157,83.4c11,6.1,24.5-2.5,24.5-14.7v-4.9  c0-6.1-3.7-12.3-8.6-14.7l-172.9-92c-4.9-2.5-11-2.5-15.9,0L10.7,134.3c-4.9,2.5-8.6,8.6-8.6,14.7v4.9c0,12.3,13.5,20.8,24.5,14.7  l8.6-4.9v290.6c0,9.8,7.4,17.2,17.2,17.2h4.9c0,0,0,0,1.2,0c0,0,0,0,1.2,0h111.6v-38H74.5V144.1z M487.8,190.7h-6.1h-130h-4.9h-19.6  V512h19.6h4.9h130h6.1h22.1V190.7H487.8z M481.6,215.2v71.1H462v-49.1h-41.7v49.1h-69.9v-71.1H481.6z M422.8,347.7v35.6H397v-47.8  H375v47.8h-23.3v-71.1h130v71.1h-29.4v-35.6H422.8z M469.4,481.3v-49.1h-41.7v49.1h-20.8v-49.1h-36.8v49.1h-18.4V409h130v72.4H469.4  z M283,509.5l-28.2-3.7L283,291.3l28.2,3.7L283,509.5z M211.9,504.6l23.3-182.7l20.8,2.5l-23.3,182.7L211.9,504.6z M334.5,150.2h54  v23.3h-54C334.5,173.5,334.5,150.2,334.5,150.2z"></path>
   </svg>