<?xml version="1.0" encoding="UTF-8" standalone="no"?><svg aria-hidden="true" focusable="false" data-prefix="ds" data-icon="street-view" class="svg-inline--fa fa-street-view fa-w-16 fa-fw Filter_ItemIcon__1Ial8" role="img" xmlns="http://www.w3.org/2000/svg" viewBox="0 0 512 512">
      <path fill="#FFFFFF" d="M253.6,126.2l9.6-12l-10.8-12c-37.3-42.1-78.1-62.5-120.2-62.5C60.1,39.7,10.8,101,9.6,103.4l-9.6,12l10.8,12  c37.3,39.7,78.1,60.1,120.2,60.1C203.1,187.5,252.4,128.6,253.6,126.2z M111.8,79.3c-8.4,8.4-13.2,20.4-13.2,34.9  s4.8,27.6,13.2,36.1c-21.6-4.8-42.1-15.6-62.5-34.9C62.5,103.4,84.1,85.3,111.8,79.3z M155,147.8c7.2-8.4,12-20.4,12-33.7  c0-14.4-4.8-26.4-13.2-34.9c20.4,4.8,39.7,16.8,60.1,36.1C201.9,126.2,181.5,141.8,155,147.8z M453.1,40.9H289.7L232,512h280  L453.1,40.9z M384.6,451.9c0,7.2-6,13.2-13.2,13.2s-13.2-6-13.2-13.2v-54.1c0-7.2,6-13.2,13.2-13.2s13.2,6,13.2,13.2V451.9z   M384.6,343.7c0,7.2-6,13.2-13.2,13.2s-13.2-6-13.2-13.2v-54.1c0-7.2,6-13.2,13.2-13.2s13.2,6,13.2,13.2V343.7z M384.6,235.6  c0,7.2-6,13.2-13.2,13.2s-13.2-6-13.2-13.2v-54.1c0-7.2,6-13.2,13.2-13.2s13.2,6,13.2,13.2V235.6z M384.6,128.6  c0,7.2-6,13.2-13.2,13.2s-13.2-6-13.2-13.2V74.5c0-7.2,6-13.2,13.2-13.2s13.2,6,13.2,13.2V128.6z"></path>
   </svg>