<?xml version="1.0" encoding="UTF-8" standalone="no"?><svg aria-hidden="true" focusable="false" data-prefix="ds" data-icon="table-food" class="svg-inline--fa fa-table-food fa-w-16 fa-fw Filter_ItemIcon__1Ial8" role="img" xmlns="http://www.w3.org/2000/svg" viewBox="0 0 512 512">
      <path fill="#FFFFFF" d="M22.8,99c3.4,3.4,5.7,5.7,9.1,9.1c1.1,1.1,2.3,2.3,4.6,3.4c-4.6,5.7-10.2,11.4-13.7,18.2  c-2.3,4.6-4.6,10.2-5.7,15.9c0,3.4,0,5.7,0,9.1s1.1,5.7,2.3,8c2.3,5.7,6.8,9.1,11.4,12.5s9.1,4.6,13.7,6.8  c9.1,3.4,19.3,4.6,29.6,4.6c-9.1-2.3-18.2-5.7-27.3-10.2c-8-4.6-15.9-10.2-18.2-17.1c-1.1-2.3-1.1-3.4-1.1-5.7c0-2.3,0-3.4,1.1-5.7  c1.1-3.4,3.4-8,5.7-11.4c4.6-6.8,11.4-13.7,18.2-20.5l5.7-5.7l-6.8-5.7c-2.3-2.3-5.7-4.6-8-8c-2.3-2.3-5.7-5.7-8-8  c-4.6-5.7-9.1-12.5-11.4-19.3c-2.3-6.8-2.3-12.5,0-19.3c2.3-5.7,8-11.4,13.7-15.9c2.3,0,5.7-2.3,9.1-4.6c2.3-1.1,3.4-1.1,4.6-2.3  c1.1-1.1,3.4-1.1,5.7-2.3c6.8-2.3,14.8-2.3,22.8-1.1c14.8,2.3,30.7,9.1,44.4,18.2c-5.7-6.8-11.4-11.4-19.3-15.9  c-6.8-4.6-14.8-8-22.8-10.2c-9.1-2.3-19.3-3.4-27.3-1.1c-2.3,0-4.6,1.1-6.8,1.1c-2.3,1.1-4.6,2.3-6.8,2.3c-4.6,2.3-8,4.6-11.4,6.8  c-8,5.7-14.8,11.4-19.3,20.5C8,50.1,6.8,54.6,6.8,60.3c0,4.6,1.1,10.2,2.3,14.8C12.5,84.2,17.1,92.2,22.8,99z M506.3,257.1H5.7  c-3.4,0-5.7,2.3-5.7,5.7v17.1c0,3.4,2.3,5.7,5.7,5.7H33c3.4,0,5.7,2.3,5.7,5.7v215c0,3.4,2.3,5.7,5.7,5.7H58c2.3,0,4.6-2.3,4.6-5.7  V335.6c0-2.3,2.3-5.7,5.7-5.7h375.5c3.4,0,5.7,2.3,5.7,5.7v170.7c0,3.4,2.3,5.7,5.7,5.7h13.7c3.4,0,5.7-2.3,5.7-5.7v-215  c0-3.4,2.3-5.7,5.7-5.7h26.2c3.4,0,5.7-2.3,5.7-5.7v-17.1C512,260.6,508.6,257.1,506.3,257.1z M93.3,232.1h333.4  c0-86.5-67.1-158.2-151.3-166.1c4.6-3.4,6.8-9.1,6.8-15.9c0-11.4-9.1-21.6-21.6-21.6c-11.4,0-21.6,9.1-21.6,21.6  c0,5.7,2.3,11.4,6.8,15.9C160.4,74,93.3,145.6,93.3,232.1z M241.2,87.6c0,0-81.9,39.8-93.3,122.9H124  C124,211.6,134.3,111.5,241.2,87.6z"></path>
   </svg>