<?xml version="1.0" encoding="UTF-8" standalone="no"?><svg aria-hidden="true" focusable="false" data-prefix="ds" data-icon="salt" class="svg-inline--fa fa-salt fa-w-16 fa-fw Filter_ItemIcon__1Ial8" role="img" xmlns="http://www.w3.org/2000/svg" viewBox="0 0 512 512">
      <path fill="#FFFFFF" d="M248.8,308.5c11.1,0,22.1-4.3,30.6-12.8l71.6-71.6c16-16,17.1-41.2,2.6-58.5l-126-150.1c-7.8-9.3-19.2-14.9-31.3-15.4  c-11.9-0.7-23.9,4.1-32.5,12.6L68,108.5c-8.6,8.6-13.2,20.4-12.6,32.5c0.5,12.1,6.1,23.5,15.4,31.3l150.1,126  C229.1,305.2,239,308.5,248.8,308.5z M97.6,138.1l95.7-95.8l2.1,0.1l125.9,152.1l-73.6,71.7L97.2,139.2  C97.2,138.5,97.5,138.2,97.6,138.1z M395.3,333.7c23.1-23.1,28.3-58.5,12.8-87.2l-9.2-17c-2.9-5.4-10.1-6.4-14.4-2.1L282.6,329.1  c-4.3,4.3-3.2,11.6,2.1,14.4l17,9.2c28.7,15.5,64.2,10.3,87.2-12.8L395.3,333.7z M334.5,348.2c-6,0-10.9-4.9-10.9-10.9  c0-6,4.9-10.9,10.9-10.9c6,0,10.9,4.9,10.9,10.9C345.3,343.3,340.5,348.2,334.5,348.2z M371.9,327.2c-6,0-10.9-4.9-10.9-10.9  c0-6,4.9-10.9,10.9-10.9c6,0,10.9,4.9,10.9,10.9C382.8,322.4,377.9,327.2,371.9,327.2z M382.8,278.2c0-6,4.9-10.9,10.9-10.9  c6,0,10.9,4.9,10.9,10.9c0,6-4.9,10.9-10.9,10.9C387.7,289,382.8,284.2,382.8,278.2z M360.6,418.3c-7.5,0-13.5-6-13.5-13.5  c0-7.5,6-13.5,13.5-13.5c7.5,0,13.5,6,13.5,13.5C374.1,412.3,368,418.3,360.6,418.3z M406.4,413.3c-7.5,0-13.5-6-13.5-13.5  c0-7.5,6-13.5,13.5-13.5c7.5,0,13.5,6,13.5,13.5C419.9,407.2,413.9,413.3,406.4,413.3z M376.5,451.7c0-7.5,6-13.5,13.5-13.5  c7.5,0,13.5,6,13.5,13.5c0,7.5-6,13.5-13.5,13.5C382.5,465.2,376.5,459.2,376.5,451.7z M437.6,446.1c-7.5,0-13.5-6-13.5-13.5  c0-7.5,6-13.5,13.5-13.5c7.5,0,13.5,6,13.5,13.5C451.1,440.1,445,446.1,437.6,446.1z M429.7,498.5c0-7.5,6-13.5,13.5-13.5  c7.5,0,13.5,6,13.5,13.5c0,7.5-6,13.5-13.5,13.5C435.7,512,429.7,506,429.7,498.5z M355.7,485c7.5,0,13.5,6,13.5,13.5  c0,7.5-6,13.5-13.5,13.5c-7.5,0-13.5-6-13.5-13.5C342.2,491,348.2,485,355.7,485z"></path>
   </svg>