<?xml version="1.0" encoding="UTF-8" standalone="no"?><svg aria-hidden="true" focusable="false" data-prefix="ds" data-icon="tooth" class="svg-inline--fa fa-tooth fa-w-16 fa-fw Filter_ItemIcon__1Ial8" role="img" xmlns="http://www.w3.org/2000/svg" viewBox="0 0 512 512">
      <path fill="#FFFFFF" d="M61.7,183.4c10.9,18.1,20.3,33.8,22.3,58l1.1,12.6c5.7,68.4,14.2,171.8,51.3,224.4c15.8,22.4,31.9,33.6,48,33.6  c2,0,4-0.2,6-0.5c15.6-2.7,28.3-16.3,33.9-36.3c2.8-9.9,0.2-22.4-5-45.4c-7-31.5-17.7-79-0.9-100c6.9-8.6,18.8-12.7,38.6-12.7  c17.7,0,29.7,4.2,36.5,12.7c16.8,21,6.1,68.5-0.9,100c-5.2,23-7.7,35.5-5,45.4c3.9,14.2,14.8,30.5,33.6,33.7  c19.4,3.3,38.8-8.3,57.5-34.8c35.2-49.9,42.2-141.8,47.3-208.9c0.6-8.4,1.2-16.4,1.9-23.8c2.1-24.3,11.5-39.9,22.3-58  c14.2-23.6,30.3-50.4,28.6-96.9c-0.7-20.7-9.5-39.1-25.4-53.4C421.9,4.8,368.6-2.3,329.4,0.6c-26.5,1.9-64.9,13.9-89.4,24.2  c-17.7-12.6-40-24.3-71.9-24.3c-87.6,0-133,28.9-135,85.9C31.4,133,47.5,159.8,61.7,183.4z M168.1,37c28.8,0,45.9,13.4,64,27.5  c17.3,13.5,36.8,28.7,65,28.7c10.1,0,18.2-8.2,18.2-18.2s-8.2-18.2-18.2-18.2c-8,0-15-2.4-22-6.3c19.5-6.7,41.4-12.4,56.9-13.5  c32.7-2.4,75.5,3.9,97.1,23.3c8.6,7.7,12.9,16.7,13.3,27.6c1.3,35.7-10.2,54.8-23.4,76.9c-11.6,19.2-24.6,41-27.4,73.7  c-0.6,7.5-1.2,15.6-1.9,24.1c-4.5,59.3-11.3,149-40.7,190.7c-12.2,17.3-20.3,20.2-21.5,19.9c-0.8-0.2-3.4-2.8-4.5-6.6  c-0.3-4,2.9-18.3,5.2-28.7c9.1-40.6,21.5-96.1-6.2-130.7c-14-17.5-35.9-26.4-67.1-26.4c-29.1,0-50.9,8.9-65,26.4  c-27.7,34.6-15.3,90.2-6.2,130.7c2.3,10.4,5.5,24.7,5.4,27.7c-1.7,6-4.4,9.7-4.5,10.1c-0.1,0-6.5-1.3-18.4-18.2  c-31.4-44.5-39.8-145.8-44.8-206.4l-1.1-12.7c-2.8-32.7-15.9-54.5-27.4-73.7c-13.3-22.1-24.7-41.1-23.4-76.9  C70,73.9,71.3,37,168.1,37z"></path>
   </svg>