<?xml version="1.0" encoding="UTF-8" standalone="no"?><svg aria-hidden="true" focusable="false" data-prefix="ds" data-icon="thinking" class="svg-inline--fa fa-thinking fa-w-16 fa-fw Filter_ItemIcon__1Ial8" role="img" xmlns="http://www.w3.org/2000/svg" viewBox="0 0 512 512">
      <path fill="#FFFFFF" d="M512,150.9c0-41.9-36.8-76-82-76.2c-5.4-37.2-39.8-65.9-81.5-65.9c-15.3,0-29.9,3.9-42.9,11.3c-14.4-10.3-32-16-50.3-16  c-30.9,0-59.1,16.3-73,41.3c-7.1-1.8-14.3-2.7-21.6-2.7c-45.3,0-82.2,34.2-82.2,76.1c0,3,0.2,6,0.5,9c-17.7,14.4-27.8,34.9-27.8,57  c0,31.4,20.4,59,51.3,70.6c7.3,35.7,40.9,61.9,80.8,61.9c13.4,0,26.5-3,38.3-8.8c14.3,10.2,31.8,15.8,49.9,15.8  c24.5,0,47.5-10.1,63-27.4c10.6,4.4,22,6.7,33.6,6.7c45.3,0,82.1-34.2,82.1-76.1c0-1,0-1.9,0-2.9C486.1,216,512,185.9,512,150.9  L512,150.9z M437.9,206.1l-10.8,1.2l2,10.7c0.6,3.4,0.9,6.4,0.9,9.3c0,30.7-27.8,55.8-61.9,55.8c-11.1,0-22-2.7-31.7-7.9l-7.8-4.3  l-5.3,7.4c-11.4,15.9-30.9,25.5-51.9,25.5c-15.7,0-30.7-5.4-42.3-15.2l-5.6-4.8l-6.3,3.8c-10.1,6.1-22,9.3-34,9.3  c-32,0-58.4-21.6-61.6-50.3l-0.7-6.8l-6.5-1.9c-25.7-7.4-42.9-28.8-42.9-53.1c0-17.4,8.9-33.6,24.3-44.2l5.6-3.9l-1.5-6.7  c-0.9-3.7-1.2-7.4-1.2-11.1c0-30.7,27.7-55.7,61.8-55.7c8.1,0,15.9,1.4,23.5,4.2l9.3,3.5l3.7-9.3c8.8-22.2,32.2-37.1,58.1-37.1  c16.1,0,31.3,5.6,42.9,15.8l6,5.3l6.6-4.6c10.9-7.6,24-11.7,37.7-11.7c34.1,0,61.8,25,61.9,55.2l-0.1,12.7l11.5-1.3  c2.6-0.4,5.3-0.6,8.1-0.6c34,0,61.8,25,61.8,55.8C491.6,178.8,468.5,202.4,437.9,206.1L437.9,206.1z M437.9,206.1 M127.7,332.6  c-33.2,0-60.1,22.6-60.1,50.4c0,27.8,27,50.3,60.1,50.3c33.2,0,60.1-22.6,60.1-50.3C187.8,355.2,160.9,332.6,127.7,332.6  L127.7,332.6z M127.7,412.9c-21.9,0-39.7-13.5-39.7-30c0-16.5,17.8-29.9,39.7-29.9c22,0,39.8,13.5,39.8,29.9  C167.5,399.4,149.7,412.9,127.7,412.9L127.7,412.9z M127.7,412.9 M44.6,436.3C20,436.3,0,453.4,0,474.2C0,495.1,20,512,44.6,512  c24.5,0,44.5-16.9,44.5-37.8C89.1,453.4,69.1,436.3,44.6,436.3L44.6,436.3z M44.6,491.6c-13.2,0-24.2-8-24.2-17.4  c0-9.5,11-17.5,24.2-17.5c13.1,0,24.1,8,24.1,17.5C68.8,483.6,57.7,491.6,44.6,491.6L44.6,491.6z M44.6,491.6"></path>
   </svg>