<?xml version="1.0" encoding="UTF-8" standalone="no"?>
<svg
   xmlns:dc="http://purl.org/dc/elements/1.1/"
   xmlns:cc="http://creativecommons.org/ns#"
   xmlns:rdf="http://www.w3.org/1999/02/22-rdf-syntax-ns#"
   xmlns:svg="http://www.w3.org/2000/svg"
   xmlns="http://www.w3.org/2000/svg"
   xmlns:sodipodi="http://sodipodi.sourceforge.net/DTD/sodipodi-0.dtd"
   xmlns:inkscape="http://www.inkscape.org/namespaces/inkscape"
   version="1.1"
   id="Layer_1"
   x="0px"
   y="0px"
   viewBox="0 0 55 55"
   enable-background="new 0 0 100 100"
   xml:space="preserve"
   sodipodi:docname="things.svg"
   width="55"
   height="55"
   inkscape:version="1.0.1 (0767f8302a, 2020-10-17)"><style
   id="style1468"></style><metadata
   id="metadata905"><rdf:RDF><cc:Work
       rdf:about=""><dc:format>image/svg+xml</dc:format><dc:type
         rdf:resource="http://purl.org/dc/dcmitype/StillImage" /><dc:title></dc:title></cc:Work></rdf:RDF></metadata><defs
   id="defs903" /><sodipodi:namedview
   pagecolor="#ffffff"
   bordercolor="#666666"
   borderopacity="1"
   objecttolerance="10"
   gridtolerance="10"
   guidetolerance="10"
   inkscape:pageopacity="0"
   inkscape:pageshadow="2"
   inkscape:window-width="1521"
   inkscape:window-height="735"
   id="namedview901"
   showgrid="false"
   inkscape:zoom="6.98"
   inkscape:cx="50"
   inkscape:cy="30.271387"
   inkscape:window-x="72"
   inkscape:window-y="27"
   inkscape:window-maximized="0"
   inkscape:current-layer="Layer_1" />
<g
   id="g898"
   transform="matrix(0.44641362,0,0,0.44641362,4.4664246,2.2544346)"
   style="fill:#ffffff">
	<path
   fill="#2c4351"
   d="m 57,32.4 c 0,1.3 -1.1,2.4 -2.4,2.4 -1.3,0 -2.4,-1.1 -2.4,-2.4 V 12.2 h -5.1 v 20.2 c 0,1.3 -1.1,2.4 -2.4,2.4 -1.3,0 -2.4,-1.1 -2.4,-2.4 V 12.2 h -4.9 v 23.1 c 0,5 3,9.3 7.3,11.2 v 49.2 c 0,2.3 1.9,4.2 4.2,4.2 h 1.9 C 53.1,99.9 55,98 55,95.7 V 46.3 c 4,-2 6.8,-6.1 6.8,-10.9 V 12.2 H 57 Z"
   id="path892"
   style="fill:#ffffff" />
	<path
   fill="#2c4351"
   d="m 84.5,12.7 v 0.1 c -0.1,0 -0.2,0 -0.2,0 -5.3,0 -9.5,4.3 -9.5,9.5 v 26 c 0,5.3 4.3,9.5 9.5,9.5 0.1,0 0.2,0 0.2,0 v 37.9 c 0,2.3 1.9,4.2 4.2,4.2 h 1.9 c 2.3,0 4.2,-1.9 4.2,-4.2 v -83 z"
   id="path894"
   style="fill:#ffffff" />
	<path
   fill="#2c4351"
   d="m 18.2,12.1 h -1.7 c 0,0 -11.3,2 -11.3,16.7 0,0 -0.3,8.1 5.1,13.6 5.4,5.6 3.6,15.2 3.6,15.2 l -2,36.1 c 0,0 -0.2,5.9 4.5,5.9 h 2 c 4.6,0 4.5,-5.9 4.5,-5.9 l -2,-36.1 c 0,0 -1.9,-9.6 3.6,-15.2 5.4,-5.6 5.1,-13.6 5.1,-13.6 C 29.5,14.1 18.2,12.1 18.2,12.1 Z"
   id="path896"
   style="fill:#ffffff" />
</g>
</svg>
