<?xml version="1.0" encoding="UTF-8" standalone="no"?><svg aria-hidden="true" focusable="false" data-prefix="ds" data-icon="trash" class="svg-inline--fa fa-trash fa-w-16 fa-fw Filter_ItemIcon__1Ial8" role="img" xmlns="http://www.w3.org/2000/svg" viewBox="0 0 512 512">
      <path fill="#FFFFFF" d="M481.4,194.2c-9.7-3.6-27.8-7.3-44.7,0c-8.5-8.5-16.9-16.9-27.8-26.6c9.7-7.3,21.8-16.9,32.6-20.5c2.4-1.2,1.2-3.6,0-3.6  c-9.7-1.2-29-1.2-49.5,9.7c-9.7-8.5-20.5-16.9-32.6-26.6c16.9-15.7,33.8-27.8,42.3-33.8c1.2-1.2,1.2-3.6-1.2-3.6  c-13.3,0-41.1,3.6-64.1,21.8c-12.1-8.5-25.4-16.9-38.7-24.2c14.5-16.9,35-33.8,44.7-42.3c1.2-1.2,1.2-3.6-1.2-3.6  c-14.5,1.2-47.1,4.8-70.1,31.4c-8.5-3.6-15.7-7.3-24.2-10.9C262.7,45.5,282,31,290.5,25c2.4-1.2,2.4-4.8,0-6  c-4.8-4.8-16.9-14.5-32.6-16.9c-19.3-3.6-79.8-1.2-97.9-1.2c-2.4,0-15.7,6-14.5,8.5c4.8,15.7,33.8,59.2,31.4,59.2  s-36.3-13.3-52-18.1c-3.6-1.2-6,2.4-4.8,4.8c2.4,7.3,8.5,19.3,19.3,32.6c19.3,24.2,53.2,59.2,85.8,61.6c3.6,0-4.8-41.1,4.8-67.7  c9.7,3.6,18.1,7.3,26.6,12.1c-13.3,32.6,1.2,64.1,7.3,77.3c1.2,2.4,3.6,1.2,3.6-1.2c1.2-13.3,4.8-41.1,14.5-62.8  c12.1,7.3,23,14.5,35,21.8c-19.3,31.4-9.7,64.1-4.8,77.3c1.2,2.4,3.6,1.2,3.6,0c2.4-12.1,8.5-39.9,23-60.4  c9.7,7.3,19.3,14.5,27.8,23c-16.9,19.3-15.7,44.7-12.1,58c0,2.4,3.6,2.4,3.6,0c3.6-8.5,13.3-25.4,27.8-41.1  c9.7,9.7,19.3,18.1,27.8,25.4c-9.7,15.7-9.7,35-8.5,45.9c0,2.4,3.6,2.4,3.6,1.2c3.6-8.5,10.9-23,18.1-32.6  c18.1,18.1,27.8,31.4,27.8,31.4l20.5-15.7c-1.2-1.2-10.9-13.3-26.6-31.4c9.7-4.8,20.5-9.7,29-12.1  C482.6,197.8,482.6,195.4,481.4,194.2z M202.3,37c0-7.3,6-13.3,13.3-13.3s13.3,6,13.3,13.3s-6,13.3-13.3,13.3  C209.5,50.3,202.3,44.3,202.3,37z M320.7,356.1L174.5,255.8l-1.2,1.2l0,0c-4.8-3.6-10.9-4.8-16.9-4.8c-2.4,0-6,0-9.7,1.2  c1.2-1.2,2.4-2.4,2.4-3.6c20.5-30.2,13.3-70.1-16.9-90.6S62.1,145.8,41.5,176s-13.3,70.1,16.9,90.6C73,277.5,91.1,280,108,276.3  c-8.5,8.5-16.9,18.1-24.2,29c-24.2,37.5-36.3,84.6-12.1,101.5c1.2,1.2,3.6,2.4,6,2.4l-1.2,1.2l140.2,96.7c4.8,3.6,9.7,4.8,14.5,4.8  c23,0,53.2-25.4,73.7-55.6c13.3-19.3,21.8-38.7,25.4-56.8C335.2,379.1,331.6,364.6,320.7,356.1z M179.3,301.7  c-3.6,15.7-12.1,35-24.2,53.2c-20.5,30.2-47.1,50.8-66.5,50.8c-4.8,0-9.7-1.2-13.3-3.6c-9.7-6-12.1-20.5-8.5-38.7  c3.6-15.7,12.1-35,24.2-53.2c12.1-16.9,25.4-30.2,38.7-39.9c2.4-1.2,3.6-2.4,6-3.6c8.5-4.8,15.7-7.3,23-7.3c4.8,0,9.7,1.2,13.3,3.6  C180.5,269.1,182.9,283.6,179.3,301.7z"></path>
   </svg>