<?xml version="1.0" encoding="UTF-8" standalone="no"?><svg aria-hidden="true" focusable="false" data-prefix="ds" data-icon="tools" class="svg-inline--fa fa-tools fa-w-16 fa-fw Filter_ItemIcon__1Ial8" role="img" xmlns="http://www.w3.org/2000/svg" viewBox="0 0 512 512">
      <path fill="#FFFFFF" d="M418.5,210c24.4,0,47.6-8.5,65.9-26.8c24.4-24.4,32.9-58.6,24.4-90.3l-36.6,36.6c-9.8,9.8-22,13.4-34.2,13.4  c-12.2,0-24.4-4.9-34.2-13.4c-18.3-18.3-18.3-48.8,0-67.1l36.6-36.6c-7.3-2.4-15.9-2.4-23.2-2.4c-24.4,0-47.6,8.5-65.9,26.8  c-26.8,26.8-34.2,64.7-22,97.6L48.8,428.4c-15.9,15.9-15.9,42.7,0,58.6c8.5,8.5,18.3,12.2,29.3,12.2s20.7-3.7,29.3-12.2L388,206.4  C397.7,207.6,408.7,210,418.5,210z M81.7,469.9c-9.8,0-17.1-7.3-17.1-17.1c0-9.8,7.3-17.1,17.1-17.1s17.1,7.3,17.1,17.1  C100,461.4,91.5,469.9,81.7,469.9z M87.8,205.1c-3.7-8.5-1.2-19.5,6.1-26.8c9.8-9.8,25.6-9.8,35.4,0c2.4,2.4,4.9,6.1,6.1,9.8l61,61  l42.7-42.7l-73.2-73.2c-4.9-4.9-7.3-11-8.5-17.1c39-92.7,120.8-73.2,120.8-73.2l4.9-8.5c-100-62.2-213.5,72-213.5,72  c-2.4,4.9,0,11,1.2,13.4l0,0c3.7,8.5,1.2,19.5-6.1,26.8c-7.3,7.3-18.3,9.8-26.8,6.1L0,190.5l51.2,51.2L87.8,205.1z M338,285.7  l-61,61l156.2,156.2c12.2,12.2,30.5,12.2,42.7,0l18.3-18.3c12.2-12.2,12.2-30.5,0-42.7L338,285.7z"></path>
   </svg>