<?xml version="1.0" encoding="UTF-8" standalone="no"?><svg aria-hidden="true" focusable="false" data-prefix="ds" data-icon="toothpaste" class="svg-inline--fa fa-toothpaste fa-w-16 fa-fw Filter_ItemIcon__1Ial8" role="img" xmlns="http://www.w3.org/2000/svg" viewBox="0 0 512 512">
      <path fill="#FFFFFF" d="M139.8,269.2l31.1,44.9L126,345.2l-31.1-44.9L139.8,269.2z M508,156.5L398.7,0c0,0-12.7,5.8-23,15l110.5,157.6  C498.8,165.7,508,156.5,508,156.5z M177.8,304.9c0,0,34.5,19.6,58.7,3.5c25.3-16.1,155.3-95.5,155.3-95.5s54.1-29.9,75.9-35.7  L363,27.6c-12.7,18.4-58.7,58.7-58.7,58.7s-118.5,96.6-142.7,115.1s-17.3,56.4-17.3,56.4L177.8,304.9z M277.9,151.9  c29.9-20.7,64.4-21.9,77.1-3.5c13.8,19.6,0,50.6-29.9,71.3s-64.4,21.9-77.1,3.5C234.1,204.8,247.9,172.6,277.9,151.9z M31.6,380.8  h17.3c1.2,0,33.4-1.2,49.5-26.5c3.5-5.8,2.3-15-3.5-18.4c-5.8-3.5-15-2.3-18.4,3.5c-8.1,12.7-27.6,13.8-27.6,13.8H31.6  c-6.9,0-13.8,5.8-13.8,13.8C19,375.1,24.7,380.8,31.6,380.8z M176.6,477.5v-79.4H20.1v79.4h-2.3c-9.2,0-17.3,8.1-17.3,17.3  c0,9.2,8.1,17.3,17.3,17.3h493.6v-34.5H176.6z M159.4,470.6h-122v-55.2h21.9l4.6,28.8l5.8-27.6h23l4.6,28.8l5.8-27.6h23l4.6,28.8  l5.8-28.8h21.9L159.4,470.6z"></path>
   </svg>