<?xml version="1.0" encoding="UTF-8" standalone="no"?><svg aria-hidden="true" focusable="false" data-prefix="ds" data-icon="toothpaste-toothbrush" class="svg-inline--fa fa-toothpaste-toothbrush fa-w-16 fa-fw Filter_ItemIcon__1Ial8" role="img" xmlns="http://www.w3.org/2000/svg" viewBox="0 0 512 512">
      <path fill="#FFFFFF" d="M349.2,451.1V304.7H37.6v146.4h-4.7c-17.6,0-30.5,14.1-30.5,30.5c0,17.6,14.1,30.5,30.5,30.5H512v-62.1H349.2V451.1z   M58.7,325.7h53.9l10.5,76.1l12.9-75h48l10.5,76.1l12.9-75h48l10.5,76.1l12.9-75h52.7v125.3H57.5L58.7,325.7z M78.6,269.5  c0,0,147.6,17.6,208.5,0c75-22.3,51.5-149.9,51.5-149.9c-50.4,39.8-123,23.4-234.3,16.4C-6.9,128.9,0.1,296.5,0.1,296.5  C25.9,264.8,78.6,269.5,78.6,269.5z M223.8,244.9c2.3-1.2,7-2.3,10.5-3.5c8.2-3.5,18.7-8.2,29.3-12.9l3.5-2.3l3.5-2.3  c2.3-1.2,4.7-2.3,7-3.5c4.7-2.3,8.2-5.9,12.9-8.2c8.2-5.9,12.9-9.4,12.9-9.4s0,2.3,0,4.7c0,3.5-1.2,7-3.5,11.7  c-2.3,4.7-5.9,10.5-10.5,15.2c-2.3,2.3-4.7,4.7-8.2,7c-1.2,1.2-3.5,2.3-4.7,2.3l-2.3,1.2l-1.2,3.5c-12.9,5.9-26.9,7-37.5,4.7  c-4.7-1.2-9.4-2.3-11.7-3.5c-1.2-1.2-2.3-1.2-3.5-2.3c-1.2,0-1.2-1.2-1.2-1.2S221.5,246.1,223.8,244.9z M51.6,202.7  c0-3.5,1.2-7,3.5-11.7c2.3-4.7,5.9-10.5,10.5-15.2c2.3-2.3,4.7-4.7,8.2-7c1.2-1.2,3.5-2.3,4.7-2.3l2.3-1.2l2.3-1.2  c12.9-5.9,26.9-7,37.5-4.7c4.7,1.2,9.4,2.3,11.7,3.5c1.2,1.2,2.3,1.2,3.5,2.3c1.2,0,1.2,1.2,1.2,1.2s-1.2,0-4.7,1.2  c-2.3,1.2-7,2.3-10.5,3.5c-8.2,3.5-18.7,8.2-29.3,12.9l-3.5,2.3l-3.5,1.2c-2.3,1.2-4.7,2.3-7,3.5c-4.7,2.3-8.2,5.9-12.9,8.2  c-9.4,4.7-15.2,8.2-15.2,8.2S50.5,205.1,51.6,202.7z"></path>
   </svg>