<?xml version="1.0" encoding="UTF-8" standalone="no"?><svg aria-hidden="true" focusable="false" data-prefix="ds" data-icon="teddybear" class="svg-inline--fa fa-teddybear fa-w-16 fa-fw Filter_ItemIcon__1Ial8" role="img" xmlns="http://www.w3.org/2000/svg" viewBox="0 0 512 512">
      <path fill="#FFFFFF" d="M292.8,137.5c-8.6-7.4-19.6-8.6-30.7-8.6c-9.8,0-23.3,2.5-29.5,9.8c-7.4,8.6-3.7,19.6,3.7,25.8c8.6,8.6,20.9,9.8,31.9,9.8  s24.6,0,30.7-9.8C305.1,155.9,300.2,143.7,292.8,137.5z M437.7,195.2L437.7,195.2h-70c12.3-17.2,19.6-38.1,20.9-60.2  c28.2-8.6,47.9-34.4,47.9-65.1c0-38.1-30.7-68.8-68.8-68.8c-16,0-30.7,4.9-43,14.7c-18.4-9.8-39.3-16-61.4-16s-43,6.1-60.2,16  c-11.1-8.6-25.8-14.7-41.7-14.7c-38.1,0-68.8,30.7-68.8,68.8c0,30.7,19.6,56.5,46.7,65.1c1.2,22.1,9.8,43,20.9,60.2H75.5  c-27,0-49.1,22.1-49.1,49.1s22.1,49.1,49.1,49.1l0,0h58.9c-2.5,9.8-4.9,19.6-4.9,29.5c4.9-1.2,9.8-1.2,14.7-1.2  c16,0,30.7,3.7,43,11.1c29.5,17.2,57.7,52.8,68.8,90.9c12.3-38.1,40.5-73.7,70-90.9c12.3-7.4,27-11.1,43-11.1c4.9,0,9.8,0,14.7,1.2  c-1.2-9.8-2.5-20.9-4.9-29.5h57.7c27,0,49.1-22.1,49.1-49.1C486.8,217.3,464.7,195.2,437.7,195.2z M151.6,103.1  c0,0-46.7-12.3-29.5-47.9C136.9,23.3,171.3,27,186,38.1C186,38.1,157.8,65.1,151.6,103.1z M260.9,228.4c-38.1,0-66.3-23.3-66.3-61.4  s30.7-68.8,68.8-68.8s68.8,30.7,68.8,68.8S298.9,228.4,260.9,228.4z M409.5,47.9c16,28.2-29.5,51.6-29.5,51.6  c-6.1-30.7-33.2-60.2-33.2-60.2C360.3,28.2,393.5,18.4,409.5,47.9z M173.7,358.5c-8.6-4.9-18.4-7.4-29.5-7.4  c-18.4,0-41.7,7.4-54,29.5c-16,29.5-13.5,66.3,3.7,85.9l1.2,1.2C114.8,496,143,512,171.3,512c3.7,0,8.6,0,12.3-1.2  c28.2-4.9,44.2-18.4,47.9-40.5C241.2,431,208.1,376.9,173.7,358.5z M370.2,351.2c-11.1,0-20.9,2.5-28.2,7.4  c-33.2,19.6-66.3,72.4-60.2,111.7c3.7,22.1,19.6,35.6,47.9,40.5c3.7,1.2,8.6,1.2,12.3,1.2c28.2,0,56.5-16,76.1-44.2l1.2-1.2  c17.2-18.4,19.6-55.3,3.7-85.9C413.1,358.5,389.8,351.2,370.2,351.2z"></path>
   </svg>