<?xml version="1.0" encoding="UTF-8" standalone="no"?><svg aria-hidden="true" focusable="false" data-prefix="ds" data-icon="trash-bin" class="svg-inline--fa fa-trash-bin fa-w-16 fa-fw Filter_ItemIcon__1Ial8" role="img" xmlns="http://www.w3.org/2000/svg" viewBox="0 0 512 512">
      <path fill="#FFFFFF" d="M415.8,95.7c18.5,0,33.7,15.2,33.7,33.7s-15.2,33.7-33.7,33.7h-2.2l-28.3,321.8c-1.1,14.1-12,27.2-27.2,27.2H153.8  c-15.2,0-25-13-27.2-27.2L98.4,163.1h-2.2c-18.5,0-33.7-15.2-33.7-33.7s15.2-33.7,33.7-33.7C96.2,95.7,415.8,95.7,415.8,95.7z   M371.2,29.4c22.8,0,41.3,18.5,41.3,41.3H97.3c0-22.8,18.5-41.3,41.3-41.3h64.1v-8.7C203.8,9.8,212.5,0,224.5,0h63  c12,0,20.7,8.7,20.7,20.7v8.7C308.2,29.4,371.2,29.4,371.2,29.4z M193,205.5c-1.1-7.6-6.5-14.1-14.1-14.1c-8.7,0-15.2,7.6-14.1,15.2  l12,225c1.1,7.6,6.5,14.1,14.1,14.1c8.7,0,15.2-7.6,14.1-15.2L193,205.5z M241.9,205.5v226.1c0,7.6,6.5,14.1,14.1,14.1  c7.6,0,14.1-6.5,14.1-14.1V205.5c0-7.6-6.5-14.1-14.1-14.1C248.4,190.2,241.9,196.8,241.9,205.5 M319,205.5l-12,225  c-1.1,7.6,5.4,15.2,14.1,15.2s14.1-6.5,14.1-14.1l13-225c1.1-8.7-6.5-15.2-14.1-15.2C325.6,190.2,319,196.8,319,205.5"></path>
   </svg>