<?xml version="1.0" encoding="UTF-8" standalone="no"?><svg aria-hidden="true" focusable="false" data-prefix="ds" data-icon="source-cold" class="svg-inline--fa fa-source-cold fa-w-16 fa-fw Filter_ItemIcon__1Ial8" role="img" xmlns="http://www.w3.org/2000/svg" viewBox="0 0 512 512">
      <path fill="#FFFFFF" d="M443.3,84.5l15.5,36.3L510.7,30l-99.8-18.1l15.5,33.7C285.3,90.9,144.1-52.9,2.8,31.3v35C149.2-19.2,296.9,145.4,443.3,84.5  z M299.5,242.5V284c47.9,11.7,97.2,16.8,145.1-3.9l15.5,36.3l51.8-90.7l-98.5-16.8l14.3,33.7C385,255.5,342.3,252.9,299.5,242.5z   M14.5,245.1c-5.2-1.3-10.4,2.6-11.7,7.8c-1.3,5.2,2.6,10.4,7.8,11.7l24.6,5.2L9.3,285.3c-5.2,2.6-6.5,9.1-3.9,14.3  c2.6,3.9,5.2,5.2,9.1,5.2c1.3,0,3.9,0,5.2-1.3l25.9-15.5l-5.2,24.6c-2.6,5.2,1.3,10.4,6.5,11.7c1.3,0,1.3,0,2.6,0  c5.2,0,9.1-2.6,10.4-7.8l10.4-44l46.6-28.5v54.4l-32.4,32.4c-3.9,3.9-3.9,10.4,0,14.3s10.4,3.9,14.3,0l18.1-18.1v29.8  c0,5.2,5.2,10.4,10.4,10.4s10.4-5.2,10.4-10.4v-29.8l18.1,18.1c2.6,2.6,5.2,2.6,7.8,2.6c2.6,0,5.2-1.3,7.8-2.6  c3.9-3.9,3.9-10.4,0-14.3l-32.4-32.4v-55.7l47.9,28.5l11.7,44c1.3,5.2,5.2,7.8,10.4,7.8c1.3,0,1.3,0,2.6,0c5.2-1.3,9.1-6.5,7.8-13  l-6.5-24.6l25.9,15.5c1.3,1.3,3.9,1.3,5.2,1.3c3.9,0,6.5-1.3,9.1-5.2c2.6-5.2,1.3-11.7-3.9-14.3l-25.9-15.5l24.6-6.5  c5.2-1.3,9.1-6.5,7.8-13c-1.3-5.2-6.5-9.1-13-7.8l-46.6,13l-49.2-28.5l47.9-29.8l44,10.4c1.3,0,1.3,0,2.6,0c5.2,0,9.1-2.6,10.4-7.8  c1.3-5.2-2.6-10.4-7.8-11.7l-24.6-6.5l25.9-15.5c5.2-2.6,6.5-9.1,3.9-14.3c-2.6-5.2-9.1-6.5-14.3-3.9l-25.9,15.5l5.2-24.6  c1.3-5.2-2.6-10.4-7.8-11.7c-5.2-1.3-10.4,2.6-11.7,7.8l-10.4,44L137.6,205v-54.4l32.4-32.4c3.9-3.9,3.9-10.4,0-14.3  c-3.9-3.9-10.4-3.9-14.3,0L137.6,122V92.2c0-5.2-5.2-10.4-10.4-10.4c-5.2,0-10.4,5.2-10.4,10.4V122l-18.1-18.1  c-3.9-3.9-10.4-3.9-14.3,0c-3.9,3.9-3.9,10.4,0,14.3l32.4,32.4v55.7l-47.9-28.5l-11.7-44c-1.3-5.2-6.5-9.1-13-7.8  c-5.2,1.3-9.1,6.5-7.8,13l6.5,24.6l-25.9-15.5c-5.2-2.6-11.7-1.3-14.3,3.9c-2.6,5.2-1.3,11.7,3.9,14.3l25.9,15.5L8,188.1  c-5.2,1.3-9.1,6.5-7.8,13c1.3,5.2,5.2,7.8,10.4,7.8c1.3,0,1.3,0,2.6,0l44-11.7l49.2,28.5l-47.9,29.8L14.5,245.1z M426.5,436.9  c-141.2,45.3-282.4-98.5-423.7-13v35c146.4-85.5,294.1,77.7,440.5,16.8l15.5,36.3l51.8-90.7l-99.8-18.1L426.5,436.9z"></path>
   </svg>