<?xml version="1.0" encoding="UTF-8" standalone="no"?><svg aria-hidden="true" focusable="false" data-prefix="ds" data-icon="television" class="svg-inline--fa fa-television fa-w-16 fa-fw Filter_ItemIcon__1Ial8" role="img" xmlns="http://www.w3.org/2000/svg" viewBox="0 0 512 512">
      <path fill="#FFFFFF" d="M454.4,140.5H262.6l94.2-114c5.5-6.6,4.4-17.5-2.2-23c-6.6-5.5-17.5-4.4-23,2.2l-92.1,110.7l-59.2-66.8  c-6.6-6.6-16.4-7.7-23-1.1s-7.7,16.4-1.1,23l61.4,70.1h-160c-30.7,0-55.9,25.2-55.9,55.9v258.6C1.8,486.8,27,512,57.6,512h396.7  c30.7,0,55.9-25.2,55.9-55.9V196.4C510.2,165.7,485,140.5,454.4,140.5z M400.7,373.9c0,6.6-1.1,40.5-28.5,67.9  c-17.5,17.5-41.6,28.5-67.9,28.5c-23,2.2-49.3,3.3-76.7,3.3c-30.7,0-55.9-1.1-81.1-3.3c-6.6,0-40.5-1.1-67.9-28.5  C60.9,424.3,50,400.2,50,373.9c-2.2-14.2-2.2-29.6-2.2-47.1s0-35.1,1.1-49.3c0-6.6,1.1-40.5,28.5-67.9C94.9,192,119,181,145.3,181  c23-2.2,50.4-3.3,78.9-3.3c29.6,0,54.8,1.1,78.9,3.3c6.6,0,40.5,1.1,67.9,28.5c17.5,17.5,28.5,41.6,28.5,67.9  c2.2,12.1,3.3,28.5,3.3,46C403.9,343.2,403.9,359.7,400.7,373.9z M454.4,326.8c-13.2,0-24.1-11-24.1-24.1c0-13.2,11-24.1,24.1-24.1  s24.1,11,24.1,24.1C478.5,315.8,467.5,326.8,454.4,326.8z M454.4,250.1c-13.2,0-24.1-11-24.1-24.1c0-13.2,11-24.1,24.1-24.1  s24.1,11,24.1,24.1C478.5,239.1,467.5,250.1,454.4,250.1z"></path>
   </svg>