<?xml version="1.0" encoding="UTF-8" standalone="no"?><svg aria-hidden="true" focusable="false" data-prefix="ds" data-icon="light-bulb" class="svg-inline--fa fa-light-bulb fa-w-16 fa-fw Filter_ItemIcon__1Ial8" role="img" xmlns="http://www.w3.org/2000/svg" viewBox="0 0 512 512">
      <path fill="#FFFFFF" d="M33.7,196.8h63v40.9h-63V196.8z M415.2,196.8h63v40.9h-63V196.8z M236.1,0H277v63h-40.9V0z M351.1,18.8l35.4,21L354.4,94  L319,73L351.1,18.8z M457.3,122.7l-54.2,32.1l-21-35.4l54.2-32.1L457.3,122.7z M74.6,350.5l-21-35.4l54.2-32.1l21,35.4L74.6,350.5z   M440.7,349.4l-54.2-32.1l21-35.4l54.2,32.1L440.7,349.4z M76.9,87.4l54.2,32.1l-21,35.4l-54.2-32.1L76.9,87.4z M163.1,17.7  l32.1,54.2l-35.4,21l-32.1-54.2L163.1,17.7z M256,89.6c-74.1,0-133.8,59.7-133.8,133.8c0,22.1,5.5,44.2,16.6,64.1l53.1,95.1v1.1  l1.1,19.9c0,5.5,2.2,10,6.6,13.3v36.5c0,31,24.3,57.5,55.3,58.6h2.2c15.5,0,29.9-5.5,39.8-16.6c11.1-11.1,16.6-25.4,16.6-39.8V418  c3.3-3.3,6.6-8.8,6.6-14.4l1.1-21l54.2-96.2l1.1-2.2c10-18.8,15.5-39.8,15.5-61.9C389.8,149.3,330.1,89.6,256,89.6z M284.8,415.8  L284.8,415.8v13.3l-56.4,12.2v-26.5l0,0h56.4V415.8z M275.9,474.4c-5.5,5.5-12.2,7.7-19.9,7.7h-1.1c-11.1,0-21-7.7-25.4-18.8  l54.2-12.2v3.3C284.8,462.2,281.4,468.9,275.9,474.4z M338.9,265.4l-54.2,97.3c-3.3,5.5-4.4,11.1-4.4,16.6v7.7h-46.4v-6.6  c0-6.6-2.2-13.3-5.5-18.8l-53.1-94c-7.7-13.3-11.1-28.8-11.1-44.2c0-50.9,42-92.9,92.9-92.9s92.9,42,92.9,92.9  C348.9,237.8,345.6,252.1,338.9,265.4z"></path>
   </svg>