<?xml version="1.0" encoding="UTF-8" standalone="no"?><svg aria-hidden="true" focusable="false" data-prefix="ds" data-icon="fav-decoration" class="svg-inline--fa fa-fav-decoration fa-w-16 fa-fw Filter_ItemIcon__1Ial8" role="img" xmlns="http://www.w3.org/2000/svg" viewBox="0 0 512 512">
      <path fill="#FFFFFF" d="M448,0c-31.4,0-53.1,13.3-60.4,39.8C380.4,13.3,358.6,0,327.2,0c-39.8,0-64,22.9-64,65.2c0,20.5,6,38.6,18.1,49.5l96.6,90.6  c2.4,2.4,6,3.6,9.7,3.6c3.6,0,7.2-1.2,9.7-3.6l96.6-90.6c12.1-12.1,18.1-29,18.1-49.5C512,21.7,487.8,0,448,0z M194.4,231.8  c0,0,1.2-32.6,3.6-66.4c1.2-21.7,16.9-37.4,22.9-45.9c2.4-3.6,0-7.2-4.8-7.2h-39.8h-53.1H83.3c-3.6,0-7.2,3.6-4.8,7.2  c6,8.5,21.7,24.2,22.9,45.9c2.4,33.8,3.6,66.4,3.6,66.4S0,256,0,318.8s109.9,153.4,109.9,153.4l-29,29c-2.4,4.8,1.2,10.9,7.2,10.9  h50.7h22.9h50.7c6,0,9.7-6,7.2-10.9l-29-29c0,0,109.9-91.8,109.9-153.4C299.5,256,194.4,231.8,194.4,231.8z"></path>
   </svg>