<?xml version="1.0" encoding="UTF-8" standalone="no"?><svg aria-hidden="true" focusable="false" data-prefix="ds" data-icon="toilet" class="svg-inline--fa fa-toilet fa-w-16 fa-fw Filter_ItemIcon__1Ial8" role="img" xmlns="http://www.w3.org/2000/svg" viewBox="0 0 512 512">
      <path fill="#FFFFFF" d="M198.9,53.7c0-29.7-24-53.7-53.7-53.7h-64C51.4,0,27.4,24,27.4,53.7v182.9h38.9v96c0,0,13.7,32,54.9,73.1  c22.9,22.9,12.6,52.6-1.1,74.3H98.3c-9.1,0-16,6.9-16,16c0,9.1,6.9,16,16,16h270.9c9.1,0,16-6.9,16-16c0-9.1-6.9-16-16-16h-13.7  c-5.7-18.3-16-40-27.4-57.1c-22.9-32-32-54.9,4.6-65.1s138.3-59.4,138.3-126.9h-272V53.7z M467.4,174.9H234.3c-9.1,0-16,6.9-16,16  s6.9,16,16,16h234.3c9.1,0,16-6.9,16-16C484.6,182.9,476.6,174.9,467.4,174.9z"></path>
   </svg>