<?xml version="1.0" encoding="UTF-8" standalone="no"?><svg aria-hidden="true" focusable="false" data-prefix="ds" data-icon="plot" class="svg-inline--fa fa-plot fa-w-16 fa-fw Filter_ItemIcon__1Ial8" role="img" xmlns="http://www.w3.org/2000/svg" viewBox="0 0 512 512">
      <path fill="#FFFFFF" d="M383,287.7c9.2,10.2,15.4,22.5,19.5,35.8c-1,11.3-1,21.5,0,32.8c-31.7,4.1-60.4,22.5-75.8,50.2h164.9  c-16.4-28.7-45.1-47.1-77.8-50.2c-3.1-33.8,4.1-67.6,19.5-98.3c13.3,4.1,50.2,11.3,58.4-37.9c-20.5-11.3-47.1-4.1-58.4,17.4  c-2,3.1-3.1,6.1-4.1,9.2c-12.3,16.4-21.5,35.8-25.6,55.3c-4.1-8.2-9.2-14.3-15.4-20.5c-4.1-7.2-28.7-43-71.7-11.3  C316.4,270.3,341,316.4,383,287.7 M25.6,405.5h95.2c14.3,0,24.6-11.3,24.6-25.6c0-1,0-3.1,0-4.1l-11.3-68.6h53.2v73.7  c0,13.3,11.3,24.6,24.6,24.6l0,0l0,0c14.3,0,24.6-11.3,24.6-24.6v-98.3c0-6.1-3.1-13.3-7.2-17.4c-4.1-5.1-11.3-7.2-17.4-7.2h-52.2  l19.5-53.2l17.4,28.7l5.1,8.2l78.8,1l0,0c9.2-1,16.4-9.2,15.4-19.5c-1-8.2-7.2-14.3-15.4-15.4l-58.4-1l-33.8-57.3  c-8.2-18.4-29.7-27.6-48.1-19.5c-9.2,4.1-16.4,12.3-20.5,21.5L79.9,262.1c-2,8.2-2,16.4,0,23.6v1l11.3,68.6H25.6  C12.3,356.4,2,368.6,3.1,382C4.1,395.3,13.3,404.5,25.6,405.5 M206.8,133.1c19.5,3.1,36.9-11.3,39.9-29.7c0-3.1,0-5.1,0-8.2  c2-19.5-12.3-35.8-30.7-37.9c-3.1,0-5.1,0-8.2,0C188.4,54.3,171,67.6,167.9,87c0,3.1-1,6.1,0,9.2c-2,19.5,13.3,36.9,32.8,37.9  C201.7,133.1,203.8,133.1,206.8,133.1 M0,512h512v-60.4H0V512z"></path>
   </svg>