<?xml version="1.0" encoding="UTF-8" standalone="no"?><svg aria-hidden="true" focusable="false" data-prefix="ds" data-icon="radish" class="svg-inline--fa fa-radish fa-w-16 fa-fw Filter_ItemIcon__1Ial8" role="img" xmlns="http://www.w3.org/2000/svg" viewBox="0 0 512 512">
      <path fill="#FFFFFF" d="M407.1,239c-32.4,17-70.9,23.1-106.4,15.4L438,140.3c0,0-97.2,63.2-138.8,87.9c10.8-20,17-41.6,20-64.8  c12.3-12.3,27.8-23.1,43.2-30.8c37-20,78.7-26.2,118.7-18.5C473.4,140.3,456.5,209.7,407.1,239 M219,444.1  c-6.2,4.6-10.8,7.7-17,10.8c-7.7,4.6-17,7.7-26.2,9.3c-17,4.6-35.5,3.1-52.4-3.1l-18.5-4.6c-10.8-3.1-21.6-4.6-33.9-7.7h-9.3h-4.6  c1.5-13.9,0-26.2-3.1-38.6c-3.1-13.9-4.6-27.8-3.1-43.2l1.5-9.3c1.5-9.3,6.2-18.5,10.8-26.2c3.1-6.2,6.2-12.3,10.8-17  c0,0,18.5,74,80.2,111C174.3,436.4,195.9,442.6,219,444.1 M291.5,141.9c0,3.1,0,6.2,0,10.8c-1.5,27.8-10.8,55.5-26.2,78.7l-4.6-33.9  l-15.4-92.5l1.5,126.5c-26.2-20-41.6-49.3-43.2-81.7c-1.5-33.9,12.3-67.9,38.6-91C269.9,77.1,288.4,108,291.5,141.9 M499.7,92.5  c-3.1-1.5-63.2-26.2-149.6,17c-10.8,6.2-21.6,12.3-32.4,20c-9.3-63.2-66.3-97.2-69.4-98.7l-6.2-3.1l-6.2,4.6  c-38.6,26.2-60.1,72.5-57.1,118.7c1.5,43.2,23.1,81.7,58.6,106.4l-4.6,7.7l0,0l-1.5,1.5c-23.1-18.5-54-29.3-83.3-29.3  c-41.6,0-81.7,20-108,54l0,0c-12.3,15.4-21.6,33.9-26.2,52.4c0,1.5,0,1.5,0,3.1c-3.1,26.2-3.1,50.9,1.5,77.1  c4.6,18.5,1.5,38.6-7.7,54c-10.8,6.2-9.3,20-1.5,27.8c4.6,4.6,9.3,6.2,15.4,6.2s10.8-1.5,15.4-6.2c7.7-7.7,17-12.3,27.8-12.3  c6.2,0,15.4,3.1,26.2,6.2c18.5,7.7,37,12.3,57.1,12.3c9.3,0,18.5-1.5,27.8-3.1c12.3-1.5,24.7-6.2,35.5-12.3l7.7-6.2  c41.6-24.7,67.9-69.4,66.3-117.2c0-27.8-7.7-54-23.1-77.1l23.1-18.5c15.4,3.1,32.4,4.6,49.3,4.6c30.8,0,60.1-6.2,87.9-21.6  c74-43.2,86.4-151.1,87.9-155.8l1.5-9.3L499.7,92.5z"></path>
   </svg>