<?xml version="1.0" encoding="UTF-8" standalone="no"?><svg aria-hidden="true" focusable="false" data-prefix="ds" data-icon="wall" class="svg-inline--fa fa-wall fa-w-16 fa-fw Filter_ItemIcon__1Ial8" role="img" xmlns="http://www.w3.org/2000/svg" viewBox="0 0 512 512">
      <path fill="#FFFFFF" d="M22.1,328.1h264.1c11.6,0,20.9-9.3,20.9-20.9V204.8c0-11.6-9.3-20.9-20.9-20.9H22.1c-11.6,0-20.9,9.3-20.9,20.9v102.4  C1.2,318.8,10.5,328.1,22.1,328.1z M377,183.9c-11.6,0-20.9,9.3-20.9,20.9v102.4c0,11.6,9.3,20.9,20.9,20.9h133.8V183.9H377z   M487.6,367.7H223.4c-11.6,0-20.9,9.3-20.9,20.9v102.4c0,11.6,9.3,20.9,20.9,20.9h264.1c11.6,0,20.9-9.3,20.9-20.9V388.7  C508.5,377,499.2,367.7,487.6,367.7z M133.8,367.7H1.2V512h132.7c11.6,0,20.9-9.3,20.9-20.9V388.7  C154.8,377,145.5,367.7,133.8,367.7z M223.4,144.3h264.1c11.6,0,20.9-9.3,20.9-20.9V20.9c0-11.6-9.3-20.9-20.9-20.9H223.4  c-11.6,0-20.9,9.3-20.9,20.9v102.4C202.5,135,211.8,144.3,223.4,144.3z M154.8,123.3V20.9c0-11.6-9.3-20.9-20.9-20.9H1.2v144.3  h132.7C145.5,144.3,154.8,135,154.8,123.3z"></path>
   </svg>