<?xml version="1.0" encoding="UTF-8" standalone="no"?><svg aria-hidden="true" focusable="false" data-prefix="ds" data-icon="house-walls" class="svg-inline--fa fa-house-walls fa-w-16 fa-fw Filter_ItemIcon__1Ial8" role="img" xmlns="http://www.w3.org/2000/svg" viewBox="0 0 512 512">
      <path fill="#FFFFFF" d="M502.5,134.9l-238-133c-4.9-2.4-11-2.4-15.9,0L9.5,134.9c-4.9,2.4-8.5,8.5-8.5,14.6v4.9c0,12.2,13.4,20.7,24.4,14.6l8.5-4.9  v330.8c0,9.8,7.3,17.1,17.1,17.1h4.9c1.2,0,1.2,0,2.4,0c1.2,0,1.2,0,2.4,0h390.6c1.2,0,1.2,0,2.4,0c1.2,0,1.2,0,2.4,0h4.9  c9.8,0,17.1-7.3,17.1-17.1v-332l8.5,4.9c11,6.1,24.4-2.4,24.4-14.6v-4.9C511.1,143.4,507.4,137.3,502.5,134.9z M439.1,144.6v327.1  H72.9V144.6c0-1.2,0-2.4,0-2.4l175.8-97.6c4.9-2.4,11-2.4,15.9,0l175.8,97.6C439.1,143.4,439.1,144.6,439.1,144.6z M144.9,138.5  c-24.4,0-42.7,19.5-42.7,42.7v220.9c0,24.4,19.5,42.7,42.7,42.7c24.4,0,42.7-19.5,42.7-42.7V181.2  C188.9,158.1,169.3,138.5,144.9,138.5z M367.1,446.1c24.4,0,42.7-19.5,42.7-42.7V181.2c0-24.4-19.5-42.7-42.7-42.7  c-24.4,0-42.7,19.5-42.7,42.7v220.9C323.1,426.6,342.7,446.1,367.1,446.1z"></path>
   </svg>