<?xml version="1.0" encoding="UTF-8" standalone="no"?><svg aria-hidden="true" focusable="false" data-prefix="ds" data-icon="picture-frame" class="svg-inline--fa fa-picture-frame fa-w-16 fa-fw Filter_ItemIcon__1Ial8" role="img" xmlns="http://www.w3.org/2000/svg" viewBox="0 0 512 512">
      <path fill="#FFFFFF" d="M430,149.5H82c-14.4,0-24,9.6-24,24v198.3l77-59.8l90,69l127-147l102,119.5v-180  C454,159.2,444.4,149.5,430,149.5z M135,269c-24.9,0-45-20.1-45-45s20.1-45,45-45s45,20.1,45,45S159.9,269,135,269z M452,98H329  l-62.4-62.4c-2.8-2.8-6.6-4.4-10.6-4.4s-7.8,1.6-10.6,4.4L183,98H60c-33.1,0-60,26.9-60,60v264c0,33.1,26.9,60,60,60h392  c33.1,0,60-26.9,60-60V158C512,124.9,485.1,98,452,98z M256,67.4L292.6,98h-73.9L256,67.4z M482,422c0,11.1-6,20.8-15,26l0,0l0,0  c-4.4,2.5-9.5,4-15,4H60c-16.6,0-30-13.4-30-30V158c0-16.6,13.4-30,30-30h392c16.6,0,30,13.4,30,30V422z"></path>
   </svg>