<?xml version="1.0" encoding="UTF-8" standalone="no"?><svg aria-hidden="true" focusable="false" data-prefix="ds" data-icon="clock-wall" class="svg-inline--fa fa-clock-wall fa-w-16 fa-fw Filter_ItemIcon__1Ial8" role="img" xmlns="http://www.w3.org/2000/svg" viewBox="0 0 512 512">
      <path fill="#FFFFFF" d="M313.4,0H190.9L99.6,89.1v143.7l81.3,79.1v39h141.4v-39l90.2-89.1V99.1L313.4,0z M249.9,266.2  c-57.9,0-105.8-46.8-105.8-105.8c0-57.9,46.8-105.8,105.8-105.8c57.9,0,105.8,46.8,105.8,105.8S308.9,266.2,249.9,266.2z   M225.4,367.5c-6.7-2.2-13.4,2.2-15.6,7.8L192,435.4c-15.6,0-31.2,11.1-35.6,26.7c-6.7,20,4.5,42.3,24.5,47.9  c20,6.7,42.3-4.5,47.9-24.5c5.6-16.7-1.1-33.4-14.5-42.3l17.8-60.1C235.4,376.4,232.1,369.7,225.4,367.5z M249.9,72.4  c-7.8,0-14.5,6.7-14.5,14.5v59h-36.8c-7.8,0-14.5,6.7-14.5,14.5c0,7.8,6.7,14.5,14.5,14.5h51.2c7.8,0,14.5-6.7,14.5-14.5V86.9  C264.4,79.1,258.8,72.4,249.9,72.4z"></path>
   </svg>