<?xml version="1.0" encoding="UTF-8" standalone="no"?><svg aria-hidden="true" focusable="false" data-prefix="ds" data-icon="hanger" class="svg-inline--fa fa-hanger fa-w-27 fa-fw Filter_ItemIcon__1Ial8" role="img" xmlns="http://www.w3.org/2000/svg" viewBox="0 0 512.2 306.4">
      <path fill="#FFFFFF" d="M504.5,257.9c-61-63.1-144.4-101.6-232.1-105.9v-21.4c0-1.1,0-1.1,0-1.1c28.9-7.5,49.2-33.2,49.2-64.2  c0-36.4-30-65.3-65.3-65.3C219.9,0,191,30,191,65.3c0,8.6,7.5,16,16,16s16-7.5,16-16c0-18.2,15-34.2,34.2-34.2  c18.2,0,34.2,15,34.2,34.2c0,15-10.7,28.9-25.7,33.2c-7.5,1.1-12.8,6.4-15,8.6c-6.4,6.4-9.6,15-9.6,24.6V152  c-88.8,4.3-173.3,42.8-233.2,105.9c-10.7,11.8-10.7,30,1.1,40.6c5.3,5.3,12.8,7.5,19.3,7.5c7.5,0,15-3.2,20.3-8.6  c54.6-56.7,127.3-87.7,206.4-87.7s153,31,206.4,87.7c10.7,11.8,28.9,11.8,40.6,1.1C515.2,286.7,515.2,269.6,504.5,257.9z"></path>
   </svg>