<?xml version="1.0" encoding="UTF-8" standalone="no"?><svg aria-hidden="true" focusable="false" data-prefix="ds" data-icon="washing-detergent" class="svg-inline--fa fa-washing-detergent fa-w-16 fa-fw Filter_ItemIcon__1Ial8" role="img" xmlns="http://www.w3.org/2000/svg" viewBox="0 0 512 512">
      <path fill="#FFFFFF" d="M484.7,236.5c-11.8-3.5-23.6,2.4-27.2,14.2l-17.7,54.4c-15.4-4.7-28.4-13-35.5-24.8c0,0,0,0,0-1.2l0,0c0,0,0,0-1.2-1.2l0,0  c0,0,0,0-1.2-1.2l0,0c0,0-1.2,0-1.2-1.2l0,0c0,0-1.2,0-1.2-1.2l0,0l0,0c0,0-1.2,0-1.2-1.2l0,0h-1.2l0,0H396l0,0c0,0,0,0-1.2,0l0,0  c0,0,0,0-1.2,0c0,0,0,0-1.2,0c0,0,0,0-1.2,0c0,0,0,0-1.2,0c0,0,0,0-1.2,0c0,0,0,0-1.2,0l0,0c0,0,0,0-1.2,0l0,0h-1.2l0,0h-1.2l0,0  c0,0-1.2,0-1.2,1.2l0,0l0,0c0,0-1.2,0-1.2,1.2l0,0c0,0-1.2,0-1.2,1.2l0,0c0,0,0,0-1.2,1.2l0,0c0,0,0,0-1.2,1.2l0,0c0,0,0,0,0,1.2  c-10.6,17.7-33.1,28.4-56.8,28.4c-24.8,0-47.3-10.6-56.8-28.4l0,0c0,0,0,0,0-1.2c0,0,0,0,0-1.2l0,0c0,0,0,0-1.2-1.2l0,0  c0,0,0,0-1.2-1.2l0,0c0,0-1.2,0-1.2-1.2l0,0l0,0c0,0-1.2,0-1.2-1.2l0,0h-1.2l0,0h-1.2l0,0c0,0,0,0-1.2,0c0,0,0,0-1.2,0l0,0h-1.2l0,0  H253l0,0h-1.2l0,0h-1.2l0,0h-1.2l0,0h-1.2l0,0c0,0-1.2,0-1.2,1.2l0,0l0,0c0,0-1.2,0-1.2,1.2l0,0c0,0,0,0-1.2,1.2l0,0l0,0  c0,0,0,0,0,1.2l0,0c0,0,0,1.2-1.2,1.2l0,0c-10.6,17.7-33.1,28.4-56.8,28.4c-24.8,0-47.3-10.6-56.8-28.4l0,0c0,0,0-1.2-1.2-1.2l0,0  c0,0,0,0,0-1.2l0,0l0,0c0,0,0,0-1.2-1.2l0,0c0,0-1.2,0-1.2-1.2l0,0l0,0c0,0-1.2,0-1.2-1.2l0,0h-1.2l0,0h-1.2l0,0h-1.2l0,0h-1.2l0,0  h-1.2l0,0h-1.2l0,0H117l0,0c0,0,0,0-1.2,0c0,0,0,0-1.2,0l0,0h-1.2l0,0h-1.2l0,0l0,0c0,0-1.2,0-1.2,1.2l0,0c0,0,0,0-1.2,1.2l0,0  c0,0,0,0-1.2,1.2l0,0c0,0,0,0,0,1.2c0,0,0,0,0,1.2l0,0c-7.1,11.8-20.1,21.3-35.5,24.8l-28.4-53.2c-3.5-10.6-15.4-16.6-26-13  s-16.6,15.4-13,26L85.1,512h333.5l79.2-248.3C501.3,251.9,495.4,240,484.7,236.5z M387.8,468.2h-272L72.1,333.5  c15.4-4.7,28.4-11.8,39-22.5c17.7,16.6,42.6,27.2,69.8,27.2s53.2-9.5,69.8-27.2c17.7,16.6,42.6,27.2,69.8,27.2  c27.2,0,53.2-9.5,69.8-27.2c10.6,10.6,23.6,17.7,39,22.5L387.8,468.2z M227,108.8c9.5,0,16.6,7.1,16.6,16.6s-7.1,16.6-16.6,16.6  c-9.5,0-16.6-7.1-16.6-16.6S217.5,108.8,227,108.8z M192.7,156.1c10.6,0,20.1,9.5,20.1,20.1c0,10.6-9.5,20.1-20.1,20.1  c-10.6,0-20.1-9.5-20.1-20.1C172.6,165.5,182,156.1,192.7,156.1z M184.4,219.9c14.2,0,24.8,10.6,24.8,24.8s-10.6,24.8-24.8,24.8  s-24.8-10.6-24.8-24.8S170.2,219.9,184.4,219.9z M185.6,68.6c9.5,0,16.6,7.1,16.6,16.6s-7.1,16.6-16.6,16.6S169,94.6,169,85.1  S176.1,68.6,185.6,68.6z M141.8,108.8c10.6,0,20.1,9.5,20.1,20.1c0,10.6-9.5,20.1-20.1,20.1c-10.6,0-20.1-9.5-20.1-20.1  C121.7,118.2,131.2,108.8,141.8,108.8z M120.5,169.1c14.2,0,24.8,10.6,24.8,24.8s-10.6,24.8-24.8,24.8s-24.8-10.6-24.8-24.8  S106.3,169.1,120.5,169.1z M234,48.5c7.1,0,13,5.9,13,13s-5.9,13-13,13c-7.1,0-13-5.9-13-13S227,48.5,234,48.5z M487.1,0l20.1,163.2  l-214,26L273.1,24.8L487.1,0z"></path>
   </svg>