<?xml version="1.0" encoding="UTF-8" standalone="no"?><svg aria-hidden="true" focusable="false" data-prefix="ds" data-icon="hand-drops" class="svg-inline--fa fa-hand-drops fa-w-16 fa-fw Filter_ItemIcon__1Ial8" role="img" xmlns="http://www.w3.org/2000/svg" viewBox="0 0 512 512">
      <path fill="#FFFFFF" d="M488.6,352.3c-32.8,0-183.6,0-185.9,0c-3.3,0-5.2-1.6-5.2-4.3c0-2.7,1.9-4.2,5.2-4.2c22.6,0,117.3-0.1,142.1-0.1  c12,0,21.4-7,23.8-18.4c2-9.2-0.7-17.2-8.1-23.5c-4.6-3.9-9.8-5.6-15.8-5.6c-13.1,0-35.1,0-60.8,0c-7.8,6.1-19.3,10.7-36,10.7  c-16.5,0-27.8-4.7-35.6-10.7c-49.1,0-95.7,0-112.2,0c-0.5,0-1,0-1.5,0c-2.4,0.1-4.2-1-4.8-3.3c-0.6-2.3,0.7-3.7,2.6-4.8  c5.2-2.9,10.5-5.8,15.7-8.7c16.8-9.3,33.6-18.6,50.3-28.1c12.5-7.1,21.3-17.3,24.5-31.7c1.2-5.4,3.1-34.6-9.5-29.3  c-5.2,2.2-10.3,4.7-15.4,7.1c-23.2,11.1-123.3,59.1-135.8,65.4c-11.8,5.9-22.5,13.6-31.1,23.7c-2.3,2.7-4.4,5.5-6.4,8.4  c-10.6,16-22.2,29.8-41.3,35.7c-12,3.7-25.6,2-38.1,2c-5.2,0-9.4,4.2-9.4,9.4v126.8c0,5.2,4.2,9.4,9.4,9.4H28c1.9,0,3.8,0.6,5.4,1.7  c11.3,8,49.4,31.2,108,31.2c4,0.3,247.5,0.9,255.3,0.8c13-0.2,23.3-10.4,23.5-23.3c0.2-13.2-9.8-24.1-23.1-24.2  c-24-0.2-95.4,0-107.1-0.1c-3.2,0-5-1.6-5-4.2c0-2.7,1.9-4.3,5.1-4.3c26.8,0,135.6,0,163.3,0c16,0,27.5-15.3,22.7-30.6  c-2.9-9.4-10.9-16.8-21.8-16.8c-22.2-0.1-135,0-147.7-0.1c-3.8,0-6-2.8-4.8-5.9c0.9-2.1,2.6-2.8,4.8-2.8c5.2,0,163.1,0,181.8,0  c13,0,23.4-10.6,23.4-23.8C512,363,501.4,352.3,488.6,352.3L488.6,352.3z M488.6,352.3 M347.9,289.9c84.5,0,0-144.6,0-144.6  S264.9,289.9,347.9,289.9L347.9,289.9z M347.9,289.9 M262.8,153.2c84.5,0,0-144.6,0-144.6S179.8,153.2,262.8,153.2L262.8,153.2z   M262.8,153.2"></path>
   </svg>