<?xml version="1.0" encoding="UTF-8" standalone="no"?><svg aria-hidden="true" focusable="false" data-prefix="ds" data-icon="washing-clothes" class="svg-inline--fa fa-washing-clothes fa-w-16 fa-fw Filter_ItemIcon__1Ial8" role="img" xmlns="http://www.w3.org/2000/svg" viewBox="0 0 512 512">
      <path fill="#FFFFFF" d="M490.6,236.9c-11-3.7-23.1,2.4-26.8,13.4l-14.6,43.8c-21.9-2.4-41.4-14.6-51.1-35.3l0,0c0,0,0-1.2-1.2-1.2c0,0,0,0,0-1.2  c0,0,0,0-1.2-1.2c0,0,0,0-1.2-1.2c0,0,0,0-1.2,0c0,0-1.2,0-1.2-1.2l0,0l0,0h-1.2c0,0,0,0-1.2,0h-1.2h-1.2h-1.2h-1.2c0,0,0,0-1.2,0  h-1.2l0,0l0,0c0,0-1.2,0-1.2,1.2c0,0,0,0-1.2,0c0,0,0,0-1.2,1.2c0,0,0,0-1.2,1.2c0,0,0,0,0,1.2c0,0,0,1.2-1.2,1.2l0,0  c-11,21.9-32.9,35.3-57.2,35.3c-9.7,0-18.3-2.4-26.8-6.1l52.3-25.6c3.7-1.2,4.9-6.1,2.4-9.7L275.1,98.1c13.4-3.7,32.9-7.3,43.8-9.7  c4.9-1.2,8.5-4.9,8.5-9.7L325,14.1c0-4.9-3.7-8.5-8.5-9.7c-76.7-9.7-118.1,0-118.1,0s28,59.7-26.8,87.7c-53.6,26.8-84-31.7-84-31.7  c-34.1,30.4-63.3,81.6-73,99.8c-2.4,3.7-1.2,8.5,2.4,11l52.3,39c3.7,2.4,8.5,2.4,11-1.2c13.4-13.4,35.3-29.2,35.3-29.2  s34.1,67,57.2,114.4c-15.8-4.9-30.4-15.8-37.7-32.9l0,0c0,0,0-1.2-1.2-1.2l0,0c0,0,0,0-1.2-1.2c0,0,0,0-1.2-1.2c0,0,0,0-1.2,0  c0,0-1.2,0-1.2-1.2l0,0l0,0h-1.2h-1.2h-1.2h-1.2H123h-1.2c0,0,0,0-1.2,0h-1.2l0,0l0,0c0,0-1.2,0-1.2,1.2c0,0,0,0-1.2,0  c0,0,0,0-1.2,1.2c0,0,0,0-1.2,1.2c0,0,0,0,0,1.2c0,0,0,1.2-1.2,1.2l0,0c-9.7,19.5-29.2,32.9-51.1,35.3l-14.6-43.8  c-3.7-11-15.8-17-26.8-13.4s-17,15.8-13.4,26.8l84,244.7h334.8l79.1-248.4C507.7,252.7,501.6,240.5,490.6,236.9z M394.4,469.4H121.7  L71.8,314.8c20.7-3.7,40.2-14.6,53.6-30.4c15.8,19.5,40.2,31.7,65.7,31.7c26.8,0,49.9-12.2,65.7-31.7c15.8,19.5,40.2,31.7,65.7,31.7  c26.8,0,49.9-12.2,65.7-31.7c13.4,17,32.9,28,53.6,30.4L394.4,469.4z M378.6,186.9c23.1,0,41.4-18.3,41.4-41.4s-18.3-41.4-41.4-41.4  c-23.1,0-41.4,18.3-41.4,41.4C337.2,168.7,356.7,186.9,378.6,186.9z M378.6,123.6c12.2,0,21.9,9.7,21.9,21.9s-9.7,21.9-21.9,21.9  c-12.2,0-21.9-9.7-21.9-21.9S366.4,123.6,378.6,123.6z M421.2,94.4c18.3,0,32.9-14.6,32.9-32.9s-14.6-32.9-32.9-32.9  s-32.9,14.6-32.9,32.9C388.4,79.8,403,94.4,421.2,94.4z M421.2,48.2c7.3,0,13.4,6.1,13.4,13.4s-6.1,13.4-13.4,13.4  c-7.3,0-13.4-6.1-13.4-13.4S413.9,48.2,421.2,48.2z M476,156.5c14.6,0,25.6-12.2,25.6-25.6s-12.2-25.6-25.6-25.6  c-14.6,0-25.6,12.2-25.6,25.6S461.4,156.5,476,156.5z M476,123.6c3.7,0,7.3,3.7,7.3,7.3c0,3.7-3.7,7.3-7.3,7.3s-7.3-3.7-7.3-7.3  S471.1,123.6,476,123.6z"></path>
   </svg>