<?xml version="1.0" encoding="UTF-8" standalone="no"?><svg aria-hidden="true" focusable="false" data-prefix="ds" data-icon="wheelie-bin" class="svg-inline--fa fa-wheelie-bin fa-w-16 fa-fw Filter_ItemIcon__1Ial8" role="img" xmlns="http://www.w3.org/2000/svg" viewBox="0 0 512 512">
      <path fill="#FFFFFF" d="M457.2,112c0-7-2.3-12.8-7-16.3c2.3-2.3,4.7-5.8,5.8-9.3c1.2-9.3-4.7-17.4-14-18.6L233.9,35.2c0-1.2,0-1.2,0-2.3  c2.3-11.6-7-23.3-18.6-25.6l-62.8-7c-11.6-2.3-23.3,7-25.6,18.6v1.2l-32.6-4.7c-9.3-1.2-17.4,4.7-18.6,14c-1.2,7,5.8,15.1,14,17.4  l286.1,44.2H76.9c-11.6,0-22.1,9.3-22.1,22.1c0,11.6,9.3,22.1,22.1,22.1h358.1C446.7,134.1,457.2,124.8,457.2,112z M396.7,405  c29.1,0,53.5,24.4,53.5,53.5S425.8,512,396.7,512s-53.5-24.4-53.5-53.5S367.6,405,396.7,405z M322.3,458.5  c0-40.7,33.7-74.4,74.4-74.4c7,0,14,1.2,20.9,3.5l17.4-236.1c0,0,0,0-1.2,0H118.8l25.6,305.8c0,1.2,0,2.3,0,3.5c0,1.2,0,2.3,0,3.5  c0,23.3,18.6,43,43,43c14,0,26.7-7,34.9-17.4h107C324.6,479.4,322.3,469,322.3,458.5z M337.4,329.4l5.8-164c0-5.8,4.7-9.3,11.6-9.3  c7,0,11.6,4.7,11.6,10.5l-5.8,164c0,5.8-4.7,9.3-11.6,9.3C343.2,339.9,337.4,335.3,337.4,329.4z M199,156.2c7,0,11.6,4.7,11.6,9.3  l11.6,231.4c0,5.8-4.7,10.5-11.6,10.5c-7,0-11.6-4.7-11.6-9.3l-11.6-231.4C186.2,160.8,192,156.2,199,156.2z M281.6,407.3  c-5.8,0-11.6-4.7-11.6-9.3l-1.2-232.6c0-5.8,5.8-9.3,11.6-9.3c5.8,0,11.6,4.7,11.6,9.3l1.2,232.6  C293.2,402.7,288.6,407.3,281.6,407.3z"></path>
   </svg>