<?xml version="1.0" encoding="UTF-8" standalone="no"?><svg aria-hidden="true" focusable="false" data-prefix="ds" data-icon="water-drain" class="svg-inline--fa fa-water-drain fa-w-16 fa-fw Filter_ItemIcon__1Ial8" role="img" xmlns="http://www.w3.org/2000/svg" viewBox="0 0 512 512">
      <path fill="#FFFFFF" d="M87.9,397.7c-3.3,0-4.4,2.2-5.5,4.4c-12.1,30.8-28.6,47.2-28.6,70.3c0,27.5,13.2,39.6,34.1,39.6c19.8,0,34.1-13.2,34.1-39.6  c0-23.1-16.5-39.6-28.6-70.3C91.2,399.9,90.1,397.7,87.9,397.7z M224.1,128.5c-9.9,0-17.6,7.7-17.6,17.6v7.7h-34.1  c-68.1,0-124.2,54.9-124.2,123.1v37.4h-11c-9.9,0-17.6,7.7-17.6,17.6c0,9.9,7.7,17.6,17.6,17.6h94.5c9.9,0,17.6-7.7,17.6-17.6  c0-9.9-7.7-17.6-17.6-17.6h-7.7V278c0-26.4,22-48.3,48.3-48.3h34.1v11c0,9.9,7.7,17.6,17.6,17.6s17.6-7.7,17.6-17.6v-94.5  C241.7,136.2,234,128.5,224.1,128.5z M387.8,50.5v58.2c0,25.3-22,46.1-48.3,46.1h-34.1v-8.8c0-9.9-7.7-17.6-17.6-17.6  s-17.6,7.7-17.6,17.6v94.5c0,9.9,7.7,17.6,17.6,17.6s17.6-7.7,17.6-17.6v-11h34.1c68.1,0,124.2-54.9,124.2-122V50.5H387.8z   M380.2,35.2h94.5c9.9,0,17.6-7.7,17.6-17.6S484.5,0,474.6,0h-94.5c-9.9,0-17.6,7.7-17.6,17.6C362.6,27.5,370.3,35.2,380.2,35.2"></path>
   </svg>