<?xml version="1.0" encoding="UTF-8" standalone="no"?><svg aria-hidden="true" focusable="false" data-prefix="ds" data-icon="thinking-bike" class="svg-inline--fa fa-thinking-bike fa-w-16 fa-fw Filter_ItemIcon__1Ial8" role="img" xmlns="http://www.w3.org/2000/svg" viewBox="0 0 512 512">
      <path fill="#FFFFFF" d="M505.3,159.2c0-58.2-47.2-105.4-105.4-105.4c-7.7,0-15.1,0.9-22.3,2.5c-17.1-32.7-50.9-55.3-90.4-55.3  c-38.6,0-71.8,21.6-89.2,53.2c-9.4-2.8-19.1-4.8-29.5-4.8c-56.5,0-102.3,45.8-102.3,102.3c0,3.5,0.7,6.8,1,10.2  C27.6,181.7,0.2,222.7,0.2,270.2c0,66.9,74.2,138.4,141.1,138.4c5,0,9.8-0.4,14.7-1c22.8,54.5,54,63.8,110.5,63.8  c50.2,0,80.2-20.5,98.6-64c8.3,1.8,16.9,2.8,25.8,2.8C457.7,410.2,512,356,512,289c0-27.1-9-52-24-72.2  C498.9,200.3,505.3,180.5,505.3,159.2z M390.8,376.5c-6.1,0-12.4-0.7-18.7-2.1l-27.3-5.9l-10.9,25.7c-13.4,31.6-31.7,43.4-67.5,43.4  c-51,0-64.4-7.2-79.4-43.1l-9.8-23.5l-25.3,3.1c-4.1,0.5-7.5,0.7-10.6,0.7c-49.2,0-107.4-56.7-107.4-104.7  c0-33.3,18.6-63.2,48.5-78.2l20.8-10.4l-2.3-23.1c-0.2-1.5-0.4-3-0.6-4.5c-0.1-0.8-0.3-1.7-0.3-2.3c0-37.8,30.8-68.6,68.6-68.6  c5.8,0,12.1,1.1,19.7,3.4l26.1,7.9l13.2-23.9c12.2-22.1,35-35.8,59.7-35.8c25.3,0,48.5,14.2,60.5,37.2l11.9,22.8l25.1-5.4  c5.3-1.2,10.3-1.7,15.2-1.7c39.5,0,71.7,32.2,71.7,71.7c0,13.9-4.1,27.4-11.8,39.2l-12.9,19.7l14.1,18.9  c11.3,15.2,17.3,33.3,17.3,52.1C478.3,337.3,439,376.5,390.8,376.5z M69.9,454.6c0-19.9,16.1-36,36-36c19.9,0,36,16.1,36,36  c0,19.9-16.1,36-36,36C86.1,490.7,69.9,474.5,69.9,454.6z M46.8,488.6c0,12.9-10.5,23.4-23.4,23.4C10.5,512,0,501.5,0,488.6  s10.5-23.4,23.4-23.4C36.3,465.2,46.8,475.7,46.8,488.6z M363.7,199.7c-3.4,0-7.2,0.4-9.4,0.8l-17.4-53.1c-4.9-15.7-17-22.4-31-22.4  h-16.3c-6.4,0-11.3,5.1-11.3,11.8s4.9,11.8,11.3,11.8h16.3c4.2,0,7.9,2,9.8,6.7l1.9,5.1H217l-1.5-5.5h14.4c5.3,0,9.8-4.7,9.8-10.2  s-4.5-10.2-9.8-10.2h-47.6c-5.3,0-9.8,4.7-9.8,10.2s4.5,10.2,9.8,10.2h11.7l3.8,11.4l-18.9,36.2c-5.7-2-12.9-3.2-20.8-3.2  c-37.4,0-67.3,31.1-67.3,70c0,39,29.9,69.6,67.3,69.6c34.4,0,60.5-25.2,66.2-58.2h24.6c9.4,0,15.9-3.5,23.1-12.2l57.8-71.2l2.6,10.2  c-19.3,10.2-35.9,33.4-35.9,61.8c0,38.6,30.2,69.6,67.3,69.6s66.9-30.7,66.9-69.6C430.6,230.8,400.4,199.7,363.7,199.7z M158,317.7  c-25.7,0-46.5-21.6-46.5-48.4c0-26.8,20.8-48.4,46.5-48.4c3.4,0,7.6,0.4,11.7,1.6L148.6,263c-1.1,2-1.9,4.3-1.9,6.3  c0,6.3,4.9,11.4,11,11.4H203C198.1,302,179.6,317.7,158,317.7z M173.9,257.5l12.9-26.4c7.2,5.9,13.6,15,16.3,26.4H173.9z   M224.2,257.5c-3.4-19.3-11.7-33.8-28-46l10.6-20.1l21.5,66.1H224.2z M257.1,252.4c-2.3,2.8-4.2,5.1-6.8,5.1l-25.3-75.2h90.3  L257.1,252.4z M363.7,317.7c-25.7,0-46.5-21.6-46.5-48.4c0-16.5,8.7-32.3,21.9-41.3l13.2,43.7c1.9,5.5,4.9,9,11.3,9  c6,0,11-5.1,11-11.4c0-2.8-0.8-4.7-1.1-5.9l-13.6-42.1l3.8-0.4c25.3,0,46.5,21.6,46.5,48.4C410.2,296.1,389,317.7,363.7,317.7z"></path>
   </svg>