<?xml version="1.0" encoding="UTF-8" standalone="no"?><svg aria-hidden="true" focusable="false" data-prefix="ds" data-icon="wheelbarrow" class="svg-inline--fa fa-wheelbarrow fa-w-31 fa-fw Filter_ItemIcon__1Ial8" role="img" xmlns="http://www.w3.org/2000/svg" viewBox="0 0 511.9 271.7">
      <path fill="#FFFFFF" d="M443.5,133.7c-19.6,0-38,8.7-50,21.7c-4.3-2.2-9.8-4.3-14.1-6.5L485.9,39.1L164.2,0l7.6,110.9c-7.6-1.1-14.1-3.3-18.5-4.3  c-37-12-60.9-56.5-62-56.5l-5.4-10.9H20.7C9.8,39.1,0,47.8,0,59.7c0,10.9,8.7,20.7,20.7,20.7H62c12,17.4,39.1,52.2,78.3,65.2  c6.5,2.2,14.1,4.3,22.8,5.4l-12,38v2.2c1.1,7.6,7.6,21.7,26.1,25c0,0,2.2,0,4.3,0c6.5,0,18.5-2.2,31.5-16.3l32.6-38  c2.2,0,4.3,0,6.5,1.1c34.8,3.3,81.5,8.7,91.3,14.1c7.6,4.3,19.6,9.8,32.6,16.3c0,3.3-1.1,6.5-1.1,9.8c0,38,30.4,68.5,68.5,68.5  s68.5-30.4,68.5-68.5C513.1,165.2,481.5,133.7,443.5,133.7z M197.8,186.9c-9.8,9.8-16.3,8.7-17.4,8.7c-5.4-1.1-7.6-4.3-8.7-5.4  l10.9-35.9c12,2.2,25,3.3,38,4.3L197.8,186.9z M443.5,241.3c-19.6,0-37-15.2-38-34.8c19.6,8.7,34.8,15.2,35.9,16.3  c2.2,1.1,5.4,2.2,7.6,2.2c7.6,0,15.2-4.3,18.5-12c4.3-9.8,0-21.7-10.9-26.1c0,0-15.2-6.5-34.8-15.2c5.4-3.3,13-5.4,20.7-5.4  c21.7,0,38,17.4,38,38C482.6,223.9,465.2,241.3,443.5,241.3z"></path>
   </svg>