<?xml version="1.0" encoding="UTF-8" standalone="no"?><svg aria-hidden="true" focusable="false" data-prefix="ds" data-icon="table-workdesk" class="svg-inline--fa fa-table-workdesk fa-w-16 fa-fw Filter_ItemIcon__1Ial8" role="img" xmlns="http://www.w3.org/2000/svg" viewBox="0 0 512 512">
      <path fill="#FFFFFF" d="M279.5,163.8h56.1v28.6h48.1v-28.6h58.4c13.7,0,25.2-11.5,25.2-25.2V35.5c0-13.7-11.5-25.2-25.2-25.2H279.5  c-13.7,0-25.2,11.5-25.2,25.2v101.9C254.3,152.3,265.7,163.8,279.5,163.8z M279.5,36.7c0-1.1,1.1-2.3,2.3-2.3h156.9  c1.1,0,2.3,1.1,2.3,2.3v100.8c0,1.1-1.1,2.3-2.3,2.3H281.8c-1.1,0-2.3-1.1-2.3-2.3C279.5,137.4,279.5,36.7,279.5,36.7z M490.2,218.8  H20.6C9.2,218.8,0,227.9,0,239.4C0,250.8,9.2,260,20.6,260h470.8c11.5,0,20.6-9.2,20.6-20.6C510.9,227.9,501.7,218.8,490.2,218.8z   M29.8,493.7c0,10.3,8,18.3,18.3,18.3s18.3-8,18.3-18.3V279.5H29.8V493.7z M90.5,279.5h128.3v58.4H90.5V279.5z M90.5,359.7h128.3  v58.4H90.5V359.7z M444.4,493.7c0,10.3,8,18.3,18.3,18.3s18.3-8,18.3-18.3V279.5h-37.8v214.2H444.4z M91.6,155.8l11.5-50.4l-1.1-2.3  c-3.4-10.3-5.7-29.8-1.1-36.7c1.1-1.1,2.3-3.4,8-3.4c8,0,14.9,2.3,19.5,5.7c-1.1,4.6,0,9.2,2.3,13.7l26.3,36.7l38.9-47l-41.2-18.3  c-4.6-1.1-9.2-1.1-12.6,0c-8-5.7-18.3-11.5-33.2-11.5c-13.7,0-20.6,5.7-24.1,11.5c-11.5,16-4.6,42.4-2.3,51.5l-12.6,52.7  c-16,6.9-27.5,21.8-27.5,40.1h89.3C131.7,176.4,114.5,158.1,91.6,155.8z M424.9,49.3h-32.1l32.1,35.5V49.3z"></path>
   </svg>