<?xml version="1.0" encoding="UTF-8" standalone="no"?><svg aria-hidden="true" focusable="false" data-prefix="ds" data-icon="worship-place" class="svg-inline--fa fa-worship-place fa-w-16 fa-fw Filter_ItemIcon__1Ial8" role="img" xmlns="http://www.w3.org/2000/svg" viewBox="0 0 512 512">
      <path fill="#FFFFFF" d="M-0.3,435.5h510.7V512H-0.3V435.5z M94.4,146.5v198.3h48L141,146.5H94.4z M141,68.7c-7.8-33.7-18.1-32.4-22-66.1  c0,0-18.1,13-25.9,45.4s13,55.7,22,70C116.4,116.7,147.5,95.9,141,68.7z M119,410.9c62.2,0,112.8-15.6,112.8-54.4H6.2  C6.2,395.3,56.8,410.9,119,410.9z M322.5,186.7c5.2,2.6,10.4,2.6,15.6,2.6c15.6,0,31.1-9.1,38.9-24.6c-7.8,20.7,2.6,44.1,24.6,53.1  c5.2,2.6,10.4,2.6,15.6,2.6c16.9,0,32.4-10.4,38.9-27.2c6.5-15.6,2.6-33.7-9.1-45.4c2.6,1.3,5.2,2.6,7.8,3.9  c5.2,2.6,10.4,2.6,15.6,2.6c16.9,0,32.4-10.4,38.9-27.2c9.1-22-2.6-46.7-23.3-54.4c-5.2-2.6-10.4-2.6-15.6-2.6  c-7.8,0-14.3,1.3-20.7,5.2c6.5-3.9,10.4-10.4,14.3-18.1c9.1-22-2.6-46.7-23.3-54.4C435.3,0,430.1,0,424.9,0  C408,0,392.5,10.4,386,27.2c-2.6,6.5-2.6,13-2.6,19.4c-3.9-10.4-13-18.1-23.3-23.3c-5.2-2.6-10.4-2.6-15.6-2.6  c-16.9,0-32.4,10.4-38.9,27.2c-9.1,22,2.6,46.7,23.3,54.4c2.6,1.3,5.2,1.3,7.8,2.6c-15.6,1.3-31.1,10.4-37.6,27.2  C290.1,154.2,300.5,178.9,322.5,186.7z M375.6,99.8c5.2-13,19.4-19.4,32.4-14.3c13,5.2,19.4,19.4,14.3,32.4  c-5.2,13-19.4,19.4-32.4,14.3C375.6,128.3,370.5,112.8,375.6,99.8z M318.6,324.1c-2.6,22-3.9,46.7-2.6,71.3c0,7.8,6.5,13,13,13l0,0  c7.8,0,13-6.5,13-14.3c-1.3-23.3,0-46.7,2.6-67.4c37.6,0,98.5-2.6,93.3-23.3c-5.2-23.3-46.7-29.8-90.7-3.9  c6.5-38.9,15.6-72.6,23.3-93.3c-2.6-3.9-5.2-9.1-6.5-14.3c-6.5,3.9-13,6.5-19.4,7.8c-7.8,20.7-16.9,51.8-23.3,89.4  c-36.3-46.7-84.3-63.5-102.4-44.1C204.5,261.8,274.5,302,318.6,324.1z"></path>
   </svg>