<?xml version="1.0" encoding="UTF-8" standalone="no"?>
<!-- Created with Inkscape (http://www.inkscape.org/) -->

<svg
   xmlns:dc="http://purl.org/dc/elements/1.1/"
   xmlns:cc="http://creativecommons.org/ns#"
   xmlns:rdf="http://www.w3.org/1999/02/22-rdf-syntax-ns#"
   xmlns:svg="http://www.w3.org/2000/svg"
   xmlns="http://www.w3.org/2000/svg"
   xmlns:sodipodi="http://sodipodi.sourceforge.net/DTD/sodipodi-0.dtd"
   xmlns:inkscape="http://www.inkscape.org/namespaces/inkscape"
   width="55mm"
   height="55mm"
   viewBox="0 0 55 55"
   version="1.1"
   id="svg8"
   inkscape:version="0.91 r13725"
   sodipodi:docname="lower-r.svg">
  <defs
     id="defs2" />
  <sodipodi:namedview
     id="base"
     pagecolor="#ffffff"
     bordercolor="#666666"
     borderopacity="1.0"
     inkscape:pageopacity="0.0"
     inkscape:pageshadow="2"
     inkscape:zoom="1.4"
     inkscape:cx="-72.983922"
     inkscape:cy="43.63747"
     inkscape:document-units="mm"
     inkscape:current-layer="layer1"
     showgrid="false"
     inkscape:window-width="1440"
     inkscape:window-height="800"
     inkscape:window-x="0"
     inkscape:window-y="1"
     inkscape:window-maximized="1" />
  <metadata
     id="metadata5">
    <rdf:RDF>
      <cc:Work
         rdf:about="">
        <dc:format>image/svg+xml</dc:format>
        <dc:type
           rdf:resource="http://purl.org/dc/dcmitype/StillImage" />
        <dc:title />
      </cc:Work>
    </rdf:RDF>
  </metadata>
  <g
     inkscape:label="Calque 1"
     inkscape:groupmode="layer"
     id="layer1"
     transform="translate(0,-242)">
    <g
       style="font-style:normal;font-variant:normal;font-weight:normal;font-stretch:normal;font-size:63.49999619px;line-height:125%;font-family:Graphecrit;-inkscape-font-specification:Graphecrit;letter-spacing:0px;word-spacing:0px;fill:#000000;fill-opacity:1;stroke:none;stroke-width:1px;stroke-linecap:butt;stroke-linejoin:miter;stroke-opacity:1"
       id="text6642">
      <path
         d="m 28.767517,274.82541 q -0.913694,0 -1.432278,-0.56797 -0.493888,-0.56798 -0.493888,-1.67923 0,-0.49388 0.09878,-1.11125 0.197556,-1.18533 1.086556,-3.72886 0.469194,-1.45697 0.592666,-1.95086 -0.246944,0.0247 -0.790222,0.0988 -0.864305,0.0988 -1.506361,0.0988 -0.66675,0 -1.086555,-0.0988 -0.567972,2.54353 -3.259667,5.65503 -0.197555,0.22225 -0.469194,0.24694 l -0.04939,0 q -0.246944,0 -0.419805,-0.17286 -0.22225,-0.17286 -0.246945,-0.4445 l 0,-0.0741 q 0,-0.22225 0.172861,-0.41981 2.691694,-3.16089 3.037417,-5.38339 -0.567973,-0.4445 -0.814917,-1.01247 -0.123472,-0.29633 -0.123472,-0.56797 0,-0.12347 0.02469,-0.27164 0.172861,-0.66675 0.814917,-0.71614 l 0.07408,0 q 0.740833,0 1.210028,1.13595 0.123472,0.32102 0.148167,0.66675 0.321027,0.12347 0.963083,0.12347 0.567972,0 1.382889,-0.0988 0.987777,-0.12347 1.456972,-0.12347 0.4445,0 0.691444,0.37042 0.197556,0.24694 0.197556,0.66675 0,0.19755 -0.04939,0.46919 -0.123472,0.54328 -0.691445,2.2225 -1.11125,3.28436 -1.11125,4.54378 0,0.46919 0.172862,0.64205 0.09878,0.14817 0.419805,0.14817 0.197556,0 0.493889,-0.0741 1.061861,-0.22225 2.420055,-1.30881 1.185334,-0.93839 2.099028,-2.09903 0.148167,-0.22225 0.419805,-0.27164 l 0.07408,0 q 0.22225,0 0.419805,0.14817 0.22225,0.17286 0.271639,0.4445 l 0,0.0741 q 0,0.24695 -0.148166,0.4445 -0.938389,1.18534 -2.197806,2.19781 -1.629833,1.35819 -3.062111,1.67922 -0.4445,0.0988 -0.790222,0.0988 z"
         style="font-size:49.3888855px"
         id="path12978" />
    </g>
  </g>
</svg>
