<?xml version="1.0" encoding="UTF-8" standalone="no"?>
<!-- Created with Inkscape (http://www.inkscape.org/) -->

<svg
   xmlns:dc="http://purl.org/dc/elements/1.1/"
   xmlns:cc="http://creativecommons.org/ns#"
   xmlns:rdf="http://www.w3.org/1999/02/22-rdf-syntax-ns#"
   xmlns:svg="http://www.w3.org/2000/svg"
   xmlns="http://www.w3.org/2000/svg"
   xmlns:sodipodi="http://sodipodi.sourceforge.net/DTD/sodipodi-0.dtd"
   xmlns:inkscape="http://www.inkscape.org/namespaces/inkscape"
   width="55mm"
   height="55mm"
   viewBox="0 0 55 55"
   version="1.1"
   id="svg8"
   inkscape:version="0.91 r13725"
   sodipodi:docname="lower-h.svg">
  <defs
     id="defs2" />
  <sodipodi:namedview
     id="base"
     pagecolor="#ffffff"
     bordercolor="#666666"
     borderopacity="1.0"
     inkscape:pageopacity="0.0"
     inkscape:pageshadow="2"
     inkscape:zoom="1.4"
     inkscape:cx="-72.983922"
     inkscape:cy="43.63747"
     inkscape:document-units="mm"
     inkscape:current-layer="layer1"
     showgrid="false"
     inkscape:window-width="1440"
     inkscape:window-height="800"
     inkscape:window-x="0"
     inkscape:window-y="1"
     inkscape:window-maximized="1" />
  <metadata
     id="metadata5">
    <rdf:RDF>
      <cc:Work
         rdf:about="">
        <dc:format>image/svg+xml</dc:format>
        <dc:type
           rdf:resource="http://purl.org/dc/dcmitype/StillImage" />
        <dc:title />
      </cc:Work>
    </rdf:RDF>
  </metadata>
  <g
     inkscape:label="Calque 1"
     inkscape:groupmode="layer"
     id="layer1"
     transform="translate(0,-242)">
    <g
       style="font-style:normal;font-variant:normal;font-weight:normal;font-stretch:normal;font-size:63.49999619px;line-height:125%;font-family:Graphecrit;-inkscape-font-specification:Graphecrit;letter-spacing:0px;word-spacing:0px;fill:#000000;fill-opacity:1;stroke:none;stroke-width:1px;stroke-linecap:butt;stroke-linejoin:miter;stroke-opacity:1"
       id="text6642">
      <path
         d="m 22.406937,253.02022 q -0.197556,3.40783 -0.197556,9.01347 0,1.67922 0.0247,3.556 1.531055,-3.77825 3.383138,-10.71739 0.592667,-2.2472 0.592667,-4.445 0,-0.76553 -0.07408,-1.53106 -0.246945,-2.51883 -1.012473,-3.65477 -0.148166,-0.22225 -0.271639,-0.32103 -0.02469,-0.0247 -0.07408,-0.0247 l 0,-0.0247 -0.04939,0 -0.02469,0.0247 q -0.0247,0 -0.07408,0.0247 -0.123472,0.0494 -0.246944,0.14817 -0.370417,0.32102 -0.691444,0.98777 -0.987778,2.09903 -1.284111,6.96384 z m 13.260915,16.98977 q 0.246945,0.17286 0.296334,0.4445 l 0,0.0741 q 0,0.22225 -0.123472,0.4198 -0.814917,1.16064 -2.247195,2.2472 -1.358194,1.03716 -2.420055,1.40758 -0.419806,0.12347 -0.790222,0.12347 -0.518584,0 -0.938389,-0.24694 -0.518583,-0.29634 -0.790222,-0.93839 -0.09878,-0.19756 -0.148167,-0.41981 l -0.04939,-0.14816 0,-0.0741 q 0,-0.0247 -0.02469,-1.21003 -0.02469,-0.56797 -0.02469,-0.93838 -0.02469,-0.49389 -0.02469,-0.71614 -0.09878,-2.12373 -0.864306,-3.25967 -0.790222,-1.16064 -1.55575,-1.16064 l -0.123472,0 q -0.938389,0.0741 -2.074333,1.50636 -0.419806,0.51859 -0.814917,1.18534 -0.321027,0.51858 -0.518583,0.91369 -0.04939,0.12347 -0.172861,0.22225 l 0.04939,4.71664 q 0,0.27164 -0.197556,0.46919 -0.197555,0.19756 -0.469194,0.19756 -0.271639,0 -0.469194,-0.19756 -0.197556,-0.19755 -0.197556,-0.46919 l -0.02469,-3.25967 q -0.246945,0.37042 -0.543278,0.71614 -0.172861,0.22225 -0.4445,0.24695 l -0.07408,0 q -0.222249,0 -0.419805,-0.14817 -0.22225,-0.17286 -0.246944,-0.4445 l 0,-0.0741 q 0,-0.22225 0.148166,-0.41981 0.814917,-0.98778 1.55575,-2.37067 -0.04939,-3.33375 -0.04939,-6.09952 0,-6.07484 0.197556,-9.38389 0.518583,-9.01347 3.531305,-9.38389 l 0.09878,0 q 0.271639,0 0.543278,0.0988 0.395111,0.14816 0.765527,0.54328 1.11125,1.3088 1.432278,4.34622 0.09878,0.93839 0.09878,1.85208 0,2.39536 -0.642056,4.84011 -1.629833,6.14892 -3.062111,9.90247 0.963084,-0.76552 1.901472,-0.83961 l 0.197556,0 q 1.506361,0 2.691694,1.75331 0.592667,0.889 0.864306,2.00025 0.172861,0.76552 0.22225,1.92616 0.02469,0.71614 0.07408,2.83986 l 0,0.0247 0.02469,0.0494 q 0.02469,0.0741 0.07408,0.14816 0.09878,0.24695 0.246944,0.32103 0.123472,0.0494 0.271639,0.0494 0.148167,0 0.345722,-0.0494 0.864306,-0.32103 2.074333,-1.23472 1.259417,-0.96308 1.926167,-1.92617 0.148167,-0.22225 0.419806,-0.27164 0.07408,-0.0247 0.123472,-0.0247 0.197555,0 0.370416,0.12347 z"
         style="font-size:49.3888855px"
         id="path19384" />
    </g>
  </g>
</svg>
