<?xml version="1.0" encoding="UTF-8" standalone="no"?>
<!-- Created with Inkscape (http://www.inkscape.org/) -->

<svg
   xmlns:dc="http://purl.org/dc/elements/1.1/"
   xmlns:cc="http://creativecommons.org/ns#"
   xmlns:rdf="http://www.w3.org/1999/02/22-rdf-syntax-ns#"
   xmlns:svg="http://www.w3.org/2000/svg"
   xmlns="http://www.w3.org/2000/svg"
   xmlns:sodipodi="http://sodipodi.sourceforge.net/DTD/sodipodi-0.dtd"
   xmlns:inkscape="http://www.inkscape.org/namespaces/inkscape"
   width="55mm"
   height="55mm"
   viewBox="0 0 55 55"
   version="1.1"
   id="svg8"
   inkscape:version="0.91 r13725"
   sodipodi:docname="lower-y.svg">
  <defs
     id="defs2" />
  <sodipodi:namedview
     id="base"
     pagecolor="#ffffff"
     bordercolor="#666666"
     borderopacity="1.0"
     inkscape:pageopacity="0.0"
     inkscape:pageshadow="2"
     inkscape:zoom="1.4"
     inkscape:cx="-72.983922"
     inkscape:cy="43.63747"
     inkscape:document-units="mm"
     inkscape:current-layer="layer1"
     showgrid="false"
     inkscape:window-width="1440"
     inkscape:window-height="800"
     inkscape:window-x="0"
     inkscape:window-y="1"
     inkscape:window-maximized="1" />
  <metadata
     id="metadata5">
    <rdf:RDF>
      <cc:Work
         rdf:about="">
        <dc:format>image/svg+xml</dc:format>
        <dc:type
           rdf:resource="http://purl.org/dc/dcmitype/StillImage" />
        <dc:title />
      </cc:Work>
    </rdf:RDF>
  </metadata>
  <g
     inkscape:label="Calque 1"
     inkscape:groupmode="layer"
     id="layer1"
     transform="translate(0,-242)">
    <g
       style="font-style:normal;font-variant:normal;font-weight:normal;font-stretch:normal;font-size:63.49999619px;line-height:125%;font-family:Graphecrit;-inkscape-font-specification:Graphecrit;letter-spacing:0px;word-spacing:0px;fill:#000000;fill-opacity:1;stroke:none;stroke-width:1px;stroke-linecap:butt;stroke-linejoin:miter;stroke-opacity:1"
       id="text6642">
      <path
         d="m 27.843243,294.11177 q 1.382888,-1.43228 1.703916,-7.50711 0.09878,-1.92617 0.09878,-4.29683 l 0,-0.96309 q -0.02469,-1.16064 -0.04939,-2.49414 -0.02469,-0.96308 -0.07408,-2.2225 -1.481667,1.53106 -2.395361,3.23498 -2.247194,4.09927 -2.592917,7.92691 -0.07408,0.74083 -0.07408,1.40758 0,2.39537 0.889,3.95112 0.321028,0.54327 0.691444,0.8643 0.493889,0.41981 1.086556,0.41981 0.395111,0 0.716139,-0.32103 z m 7.803444,-24.003 q 0.197555,0.17286 0.22225,0.4445 l 0,0.0741 q 0,0.22225 -0.148167,0.41981 -0.740833,0.91369 -2.913944,2.667 l -0.493889,0.39511 -0.493889,0.39511 q -0.567972,0.4692 -1.012472,0.86431 l 0.02469,0.37041 q 0.148167,3.85234 0.148167,6.79098 0,2.93863 -0.148167,4.93888 -0.395111,5.90198 -2.024944,7.5565 -0.740833,0.74084 -1.679222,0.74084 l -0.02469,0 q -1.778,-0.0247 -2.889249,-1.95086 -1.061861,-1.85209 -1.061861,-4.66725 0,-0.61737 0.04939,-1.30881 0.345723,-4.19806 2.741084,-8.59367 1.259416,-2.32127 3.50661,-4.4203 -0.02469,-0.889 -0.02469,-1.53106 l 0,-0.22225 q -2.024944,1.8027 -3.926416,1.8027 -0.22225,0 -0.419806,-0.0494 -1.481667,-0.22225 -2.395361,-1.40758 -0.889,-1.18534 -0.889,-2.88925 l 0,-2.04964 q -0.543278,1.06186 -1.432278,2.32127 -0.172861,0.22225 -0.444499,0.27164 l -0.123473,0 q -0.197555,0 -0.370416,-0.12347 -0.22225,-0.14817 -0.271639,-0.4198 l 0,-0.0741 q 0,-0.22225 0.123472,-0.4198 1.308805,-1.85209 2.148417,-4.17336 l 0.197555,-0.51859 q 0.09878,-0.29633 0.197556,-0.54327 0.172861,-0.4445 0.567972,-0.4445 0.07408,0 0.172861,0.0247 0.543278,0.0988 0.543278,0.64206 0.02469,3.55599 0.02469,5.50686 0,1.21002 0.567972,2.02494 0.592667,0.81492 1.580445,0.96308 0.123472,0.0247 0.246944,0.0247 0.790222,0 1.852083,-0.61736 1.259417,-0.74084 1.975556,-1.75331 l 0.02469,-0.0247 0.0247,-0.0247 0,-6.09952 q 0,-0.27164 0.197555,-0.4692 0.197556,-0.19755 0.469194,-0.19755 0.271639,0 0.469195,0.19755 0.197555,0.19756 0.197555,0.4692 l 0,8.24794 0.02469,0.19755 0,0.19756 0.617361,-0.51858 0.296333,-0.24695 0.296334,-0.22225 q 2.049638,-1.67922 2.741083,-2.49414 0.172861,-0.19755 0.4445,-0.22225 l 0.07408,0 q 0.22225,0 0.419806,0.14817 z"
         style="font-size:49.3888855px"
         id="path9114" />
    </g>
  </g>
</svg>
