<?xml version="1.0" encoding="UTF-8" standalone="no"?>
<!-- Created with Inkscape (http://www.inkscape.org/) -->

<svg
   xmlns:dc="http://purl.org/dc/elements/1.1/"
   xmlns:cc="http://creativecommons.org/ns#"
   xmlns:rdf="http://www.w3.org/1999/02/22-rdf-syntax-ns#"
   xmlns:svg="http://www.w3.org/2000/svg"
   xmlns="http://www.w3.org/2000/svg"
   xmlns:sodipodi="http://sodipodi.sourceforge.net/DTD/sodipodi-0.dtd"
   xmlns:inkscape="http://www.inkscape.org/namespaces/inkscape"
   width="55mm"
   height="55mm"
   viewBox="0 0 55 55"
   version="1.1"
   id="svg8"
   inkscape:version="0.91 r13725"
   sodipodi:docname="lower-k.svg">
  <defs
     id="defs2" />
  <sodipodi:namedview
     id="base"
     pagecolor="#ffffff"
     bordercolor="#666666"
     borderopacity="1.0"
     inkscape:pageopacity="0.0"
     inkscape:pageshadow="2"
     inkscape:zoom="1.4"
     inkscape:cx="-72.983922"
     inkscape:cy="43.63747"
     inkscape:document-units="mm"
     inkscape:current-layer="layer1"
     showgrid="false"
     inkscape:window-width="1440"
     inkscape:window-height="800"
     inkscape:window-x="0"
     inkscape:window-y="1"
     inkscape:window-maximized="1" />
  <metadata
     id="metadata5">
    <rdf:RDF>
      <cc:Work
         rdf:about="">
        <dc:format>image/svg+xml</dc:format>
        <dc:type
           rdf:resource="http://purl.org/dc/dcmitype/StillImage" />
        <dc:title />
      </cc:Work>
    </rdf:RDF>
  </metadata>
  <g
     inkscape:label="Calque 1"
     inkscape:groupmode="layer"
     id="layer1"
     transform="translate(0,-242)">
    <g
       style="font-style:normal;font-variant:normal;font-weight:normal;font-stretch:normal;font-size:63.49999619px;line-height:125%;font-family:Graphecrit;-inkscape-font-specification:Graphecrit;letter-spacing:0px;word-spacing:0px;fill:#000000;fill-opacity:1;stroke:none;stroke-width:1px;stroke-linecap:butt;stroke-linejoin:miter;stroke-opacity:1"
       id="text6642">
      <path
         d="m 23.486435,253.04491 q -0.22225,3.48192 -0.22225,9.23572 0,1.55575 0.02469,3.30906 1.580445,-3.85234 3.383139,-10.668 0.592667,-2.2472 0.592667,-4.445 0,-0.76553 -0.07408,-1.53106 -0.22225,-2.51883 -1.012472,-3.65477 -0.123472,-0.19756 -0.246944,-0.29634 -0.04939,-0.0494 -0.07408,-0.0494 l -0.02469,-0.0247 -0.02469,0.0247 -0.04939,0 q -0.0247,0 -0.07408,0.0247 -0.123472,0.0494 -0.246944,0.14816 -0.370417,0.32103 -0.691444,1.01248 -0.987778,2.07433 -1.259417,6.91444 z m 12.84111,16.98978 q 0.22225,0.14816 0.271639,0.4198 l 0,0.12347 q 0,0.19756 -0.123472,0.37042 -0.790222,1.16064 -2.247194,2.2472 -1.3335,1.03716 -2.395361,1.40758 -0.419806,0.12347 -0.814917,0.12347 -0.518583,0 -0.913694,-0.24694 -0.518584,-0.29634 -0.790223,-0.93839 -0.09878,-0.19756 -0.148166,-0.41981 l -0.04939,-0.14816 0,-0.0741 -0.04939,-1.55575 q -0.02469,-1.3335 -1.11125,-1.92616 -1.037167,0.69144 -2.148416,0.76552 -0.148167,0.0247 -0.296334,0.0247 -0.987777,0 -1.728611,-0.59267 -0.345722,-0.29633 -0.345722,-0.64205 0,-0.19756 0.09878,-0.39512 0.296333,-0.61736 1.55575,-0.83961 0.493889,-0.0741 0.987777,-0.0741 0.617361,0 1.234723,0.12347 0.22225,0.0494 0.419805,0.12347 l 0.246945,-0.24694 q 0.09878,-0.12347 0.197555,-0.27164 0.123472,-0.17286 0.197556,-0.34572 0.07408,-0.17286 0.07408,-0.32103 0,-0.24694 -0.197556,-0.4198 -0.642055,-0.59267 -1.456972,-0.59267 -0.197555,0 -0.395111,0.0247 -0.765528,0.12348 -1.506361,0.66675 -0.642055,0.51859 -0.987778,1.13595 -0.296333,0.61736 -0.592666,1.18533 l 0.02469,0.27164 0.0247,2.59292 0,2.61761 q 0,0.24694 -0.172861,0.4198 -0.197556,0.19756 -0.469195,0.19756 -0.296333,0 -0.469194,-0.19756 -0.197556,-0.19755 -0.197556,-0.46919 l -0.04939,-3.25967 -0.345722,0.49389 q -0.148166,0.19756 -0.419805,0.24695 l -0.07408,0 q -0.246944,0 -0.419805,-0.12348 -0.22225,-0.17286 -0.271639,-0.4445 l 0,-0.0741 q 0,-0.22225 0.148167,-0.41981 0.691444,-0.93838 1.358194,-2.17311 -0.02469,-2.83986 -0.02469,-5.25991 0,-6.6675 0.197556,-10.17411 0.518583,-9.01347 3.506611,-9.3592 0.09878,-0.0247 0.197555,-0.0247 0.22225,0 0.4445,0.0988 0.395111,0.14816 0.765528,0.56797 1.11125,1.28411 1.432278,4.32153 0.09878,0.93839 0.09878,1.85208 0,2.39536 -0.642056,4.81542 -1.55575,5.90197 -2.913944,9.53205 0.567972,-0.27164 1.135944,-0.37042 0.321028,-0.0494 0.617361,-0.0494 1.3335,0 2.370667,0.98777 0.592666,0.54328 0.592666,1.3335 l 0,0.12348 q -0.02469,0.8643 -0.765527,1.72861 1.358194,0.96308 1.407583,2.79047 l 0.02469,1.48166 0.0247,0.0247 0,0.0494 q 0.04939,0.0741 0.07408,0.14816 0.123472,0.24695 0.271639,0.32103 0.09878,0.0494 0.246944,0.0494 0.148167,0 0.345723,-0.0494 0.889,-0.32103 2.074333,-1.23472 1.259416,-0.96308 1.926166,-1.92617 0.148167,-0.22225 0.419806,-0.27164 l 0.123472,0 q 0.197556,0 0.395111,0.12348 z"
         style="font-size:49.3888855px"
         id="path17611" />
    </g>
  </g>
</svg>
