<?xml version="1.0" encoding="UTF-8" standalone="no"?>
<!-- Created with Inkscape (http://www.inkscape.org/) -->

<svg
   xmlns:dc="http://purl.org/dc/elements/1.1/"
   xmlns:cc="http://creativecommons.org/ns#"
   xmlns:rdf="http://www.w3.org/1999/02/22-rdf-syntax-ns#"
   xmlns:svg="http://www.w3.org/2000/svg"
   xmlns="http://www.w3.org/2000/svg"
   xmlns:sodipodi="http://sodipodi.sourceforge.net/DTD/sodipodi-0.dtd"
   xmlns:inkscape="http://www.inkscape.org/namespaces/inkscape"
   width="55mm"
   height="55mm"
   viewBox="0 0 55 55"
   version="1.1"
   id="svg8"
   inkscape:version="0.91 r13725"
   sodipodi:docname="lower-l.svg">
  <defs
     id="defs2" />
  <sodipodi:namedview
     id="base"
     pagecolor="#ffffff"
     bordercolor="#666666"
     borderopacity="1.0"
     inkscape:pageopacity="0.0"
     inkscape:pageshadow="2"
     inkscape:zoom="1.4"
     inkscape:cx="-72.983922"
     inkscape:cy="43.63747"
     inkscape:document-units="mm"
     inkscape:current-layer="layer1"
     showgrid="false"
     inkscape:window-width="1440"
     inkscape:window-height="800"
     inkscape:window-x="0"
     inkscape:window-y="1"
     inkscape:window-maximized="1" />
  <metadata
     id="metadata5">
    <rdf:RDF>
      <cc:Work
         rdf:about="">
        <dc:format>image/svg+xml</dc:format>
        <dc:type
           rdf:resource="http://purl.org/dc/dcmitype/StillImage" />
        <dc:title />
      </cc:Work>
    </rdf:RDF>
  </metadata>
  <g
     inkscape:label="Calque 1"
     inkscape:groupmode="layer"
     id="layer1"
     transform="translate(0,-242)">
    <g
       style="font-style:normal;font-variant:normal;font-weight:normal;font-stretch:normal;font-size:63.49999619px;line-height:125%;font-family:Graphecrit;-inkscape-font-specification:Graphecrit;letter-spacing:0px;word-spacing:0px;fill:#000000;fill-opacity:1;stroke:none;stroke-width:1px;stroke-linecap:butt;stroke-linejoin:miter;stroke-opacity:1"
       id="text6642">
      <path
         d="m 26.520323,244.92044 -0.0247,0.0247 q -0.02469,0.0247 -0.04939,0.0741 -0.04939,0.0494 -0.09878,0.0988 -0.09878,0.17287 -0.22225,0.37042 -0.123472,0.29633 -0.271639,0.66675 -0.345722,0.93839 -0.642056,2.39536 -0.395111,1.85209 -0.66675,4.39561 -0.66675,5.75381 -0.66675,10.05064 0,1.97556 0.148167,3.63008 2.790472,-4.98827 3.728861,-11.557 0.246944,-1.72861 0.246944,-3.40783 0,-1.82739 -0.296333,-3.58069 -0.22225,-1.3335 -0.543278,-2.2225 -0.321027,-0.83961 -0.617361,-0.96309 l -0.02469,0.0247 z m 0.617361,29.90497 q -0.963083,0 -1.827389,-0.69145 -0.296333,-0.22225 -0.518583,-0.46919 -0.09878,-0.0988 -0.148167,-0.17286 l -0.04939,-0.0494 -0.02469,-0.0247 q -0.864306,-1.13595 -1.358195,-3.23498 -0.271638,0.34573 -0.543277,0.64206 -0.197556,0.24694 -0.419806,0.46919 -0.197555,0.19756 -0.469194,0.19756 -0.271639,0 -0.469195,-0.19756 -0.197555,-0.19755 -0.197555,-0.46919 0,-0.27164 0.197555,-0.4692 0.790223,-0.81491 1.580445,-1.92616 -0.321028,-2.34597 -0.321028,-5.43278 0,-4.34622 0.642055,-10.1988 0.864306,-7.70467 2.568223,-8.93939 0.271638,-0.19756 0.567972,-0.24695 0.123472,-0.0247 0.22225,-0.0247 0.123472,0 0.22225,0.0247 1.531055,0.29634 2.197805,4.12398 0.345722,1.92616 0.345722,3.92641 0,1.778 -0.271639,3.60539 -0.617361,4.445 -2.099027,8.22325 -1.135945,2.91394 -2.691694,5.25992 0.444499,2.667 1.358194,3.87702 l 0.02469,0 0.0247,0.0494 q 0.07408,0.0741 0.123472,0.14817 0.197556,0.19755 0.419805,0.34572 0.469195,0.32103 0.913695,0.32103 0.246944,0 0.469194,-0.0741 0.889,-0.29634 2.049639,-1.21003 1.259417,-0.96309 1.926167,-1.92617 0.172861,-0.22225 0.4445,-0.27164 l 0.09878,0 q 0.197556,0 0.395111,0.12347 0.22225,0.14817 0.271639,0.41981 l 0,0.12347 q 0,0.19756 -0.123472,0.37042 -0.790222,1.13594 -2.2225,2.24719 -1.358194,1.01248 -2.395361,1.38289 -0.469194,0.14817 -0.913694,0.14817 z"
         style="font-size:49.3888855px"
         id="path17020" />
    </g>
  </g>
</svg>
