<?xml version="1.0" encoding="UTF-8" standalone="no"?>
<!-- Created with Inkscape (http://www.inkscape.org/) -->

<svg
   xmlns:dc="http://purl.org/dc/elements/1.1/"
   xmlns:cc="http://creativecommons.org/ns#"
   xmlns:rdf="http://www.w3.org/1999/02/22-rdf-syntax-ns#"
   xmlns:svg="http://www.w3.org/2000/svg"
   xmlns="http://www.w3.org/2000/svg"
   xmlns:sodipodi="http://sodipodi.sourceforge.net/DTD/sodipodi-0.dtd"
   xmlns:inkscape="http://www.inkscape.org/namespaces/inkscape"
   width="55mm"
   height="55mm"
   viewBox="0 0 55 55"
   version="1.1"
   id="svg8"
   inkscape:version="0.91 r13725"
   sodipodi:docname="lower-j.svg">
  <defs
     id="defs2" />
  <sodipodi:namedview
     id="base"
     pagecolor="#ffffff"
     bordercolor="#666666"
     borderopacity="1.0"
     inkscape:pageopacity="0.0"
     inkscape:pageshadow="2"
     inkscape:zoom="1.4"
     inkscape:cx="-72.983922"
     inkscape:cy="43.63747"
     inkscape:document-units="mm"
     inkscape:current-layer="layer1"
     showgrid="false"
     inkscape:window-width="1440"
     inkscape:window-height="800"
     inkscape:window-x="0"
     inkscape:window-y="1"
     inkscape:window-maximized="1" />
  <metadata
     id="metadata5">
    <rdf:RDF>
      <cc:Work
         rdf:about="">
        <dc:format>image/svg+xml</dc:format>
        <dc:type
           rdf:resource="http://purl.org/dc/dcmitype/StillImage" />
        <dc:title />
      </cc:Work>
    </rdf:RDF>
  </metadata>
  <g
     inkscape:label="Calque 1"
     inkscape:groupmode="layer"
     id="layer1"
     transform="translate(0,-242)">
    <g
       style="font-style:normal;font-variant:normal;font-weight:normal;font-stretch:normal;font-size:63.49999619px;line-height:125%;font-family:Graphecrit;-inkscape-font-specification:Graphecrit;letter-spacing:0px;word-spacing:0px;fill:#000000;fill-opacity:1;stroke:none;stroke-width:1px;stroke-linecap:butt;stroke-linejoin:miter;stroke-opacity:1"
       id="text6642">
      <path
         d="m 28.330069,262.05838 q 0,0.29634 -0.22225,0.49389 -0.197556,0.22225 -0.493889,0.22225 -0.296334,0 -0.493889,-0.22225 -0.22225,-0.19755 -0.22225,-0.49389 0,-0.29633 0.22225,-0.51858 0.197555,-0.19756 0.493889,-0.19756 0.296333,0 0.493889,0.19756 0.22225,0.22225 0.22225,0.51858 z m -1.210028,14.49564 q -1.506361,1.58044 -2.44475,3.28436 -2.2225,4.09928 -2.592916,7.95161 -0.07408,0.74083 -0.07408,1.40758 0,2.42006 0.913695,4.0005 0.296333,0.54328 0.691444,0.86431 0.493889,0.41981 1.086556,0.41981 0.444499,-0.0247 0.740833,-0.32103 1.407583,-1.43228 1.728611,-7.5812 0.07408,-1.82739 0.07408,-4.09927 l 0,-1.16064 q 0,-1.18534 -0.04939,-2.51884 -0.02469,-0.98777 -0.07408,-2.24719 z m -2.44475,19.23697 q -1.778,-0.0247 -2.88925,-1.95086 -1.061861,-1.85208 -1.061861,-4.66725 0,-0.61736 0.04939,-1.30881 0.345722,-4.22275 2.765778,-8.64305 1.234722,-2.27189 3.531305,-4.42031 -0.04939,-1.11125 -0.04939,-1.55575 l -0.02469,-4.445 q -0.493889,1.01248 -1.3335,1.97556 -0.172861,0.19756 -0.4445,0.22225 l -0.04939,0 q -0.246945,0 -0.419806,-0.17286 -0.197555,-0.17286 -0.22225,-0.4445 0,-0.24695 0.172862,-0.4692 1.160638,-1.3335 1.852083,-3.70416 l 0.22225,-0.71614 q 0.123472,-0.41981 0.246944,-0.76553 0.172861,-0.4445 0.567972,-0.4445 0.07408,0 0.172861,0.0247 0.518584,0.0988 0.518584,0.64205 l 0.04939,8.27264 0,0.46919 q 0.345722,-0.29633 0.740833,-0.64205 0.271639,-0.22225 0.740833,-0.56797 2.173111,-1.75331 2.839861,-2.56823 0.172861,-0.22225 0.4445,-0.24694 l 0.07408,0 q 0.22225,0 0.395111,0.14817 0.22225,0.17286 0.246945,0.4445 l 0,0.0741 q 0,0.22225 -0.148167,0.39511 -0.765528,0.93839 -3.037416,2.76578 l -0.543278,0.4445 -0.567972,0.4445 q -0.642056,0.51858 -1.135945,0.96308 l 0.0247,0.37042 q 0.148167,3.85233 0.148167,6.79097 0,2.93864 -0.148167,4.96358 -0.395111,5.92667 -2.024944,7.5812 -0.740834,0.74083 -1.654528,0.74083 l -0.04939,0 z"
         style="font-size:49.3888855px"
         id="path18202" />
    </g>
  </g>
</svg>
