<?xml version="1.0" encoding="UTF-8" standalone="no"?>
<!-- Created with Inkscape (http://www.inkscape.org/) -->

<svg
   width="55mm"
   height="55mm"
   viewBox="0 0 55 55"
   version="1.1"
   id="svg8"
   inkscape:version="1.1 (1:1.1+202106031931+af4d65493e)"
   sodipodi:docname="lower-w-lo.svg"
   xmlns:inkscape="http://www.inkscape.org/namespaces/inkscape"
   xmlns:sodipodi="http://sodipodi.sourceforge.net/DTD/sodipodi-0.dtd"
   xmlns="http://www.w3.org/2000/svg"
   xmlns:svg="http://www.w3.org/2000/svg"
   xmlns:rdf="http://www.w3.org/1999/02/22-rdf-syntax-ns#"
   xmlns:cc="http://creativecommons.org/ns#"
   xmlns:dc="http://purl.org/dc/elements/1.1/">
  <defs
     id="defs2">
    <inkscape:path-effect
       effect="spiro"
       id="path-effect1218"
       is_visible="true"
       lpeversion="1" />
    <inkscape:path-effect
       effect="spiro"
       id="path-effect1181"
       is_visible="true"
       lpeversion="1" />
    <inkscape:path-effect
       effect="spiro"
       id="path-effect1144"
       is_visible="true"
       lpeversion="1" />
    <inkscape:path-effect
       effect="spiro"
       id="path-effect1107"
       is_visible="true"
       lpeversion="1" />
  </defs>
  <sodipodi:namedview
     id="base"
     pagecolor="#ffffff"
     bordercolor="#666666"
     borderopacity="1.0"
     inkscape:pageopacity="0.0"
     inkscape:pageshadow="2"
     inkscape:zoom="5.6"
     inkscape:cx="116.96429"
     inkscape:cy="93.214286"
     inkscape:document-units="mm"
     inkscape:current-layer="layer1"
     showgrid="false"
     inkscape:window-width="1528"
     inkscape:window-height="845"
     inkscape:window-x="72"
     inkscape:window-y="27"
     inkscape:window-maximized="1"
     inkscape:pagecheckerboard="0"
     inkscape:snap-global="false" />
  <metadata
     id="metadata5">
    <rdf:RDF>
      <cc:Work
         rdf:about="">
        <dc:format>image/svg+xml</dc:format>
        <dc:type
           rdf:resource="http://purl.org/dc/dcmitype/StillImage" />
      </cc:Work>
    </rdf:RDF>
  </metadata>
  <g
     inkscape:label="Calque 1"
     inkscape:groupmode="layer"
     id="layer1"
     transform="translate(0,-242)">
    <g
       style="font-style:normal;font-variant:normal;font-weight:normal;font-stretch:normal;font-size:63.49999619px;line-height:125%;font-family:Graphecrit;-inkscape-font-specification:Graphecrit;letter-spacing:0px;word-spacing:0px;fill:#000000;fill-opacity:1;stroke:none;stroke-width:1px;stroke-linecap:butt;stroke-linejoin:miter;stroke-opacity:1"
       id="text6642">
      <path
         d="m 34.634222,271.54103 c -0.625593,1.43227 -1.547518,2.41182 -2.765777,2.93864 -0.543278,0.23048 -1.05363,0.34572 -1.531056,0.34572 -0.526815,0 -1.004241,-0.14817 -1.432278,-0.4445 -0.460963,-0.32926 -0.847842,-0.87254 -1.160638,-1.62983 -0.526815,0.77375 -1.226491,1.34996 -2.099028,1.72861 -0.543278,0.23048 -1.061861,0.34572 -1.55575,0.34572 -0.526815,0 -1.004241,-0.13994 -1.432278,-0.41981 -1.481666,-0.92193 -2.33774,-3.4243 -2.568222,-7.50711 0,-0.14817 -0.0082,-0.46096 -0.02469,-0.93839 0,-0.21401 -0.03293,-0.32925 -0.09878,-0.34572 h -0.07408 c -0.115241,0 -0.246944,0.0412 -0.395111,0.12347 -0.246945,0.13171 -0.469195,0.34573 -0.66675,0.64206 -0.230481,0.32926 -0.592667,1.00424 -1.086556,2.02494 -0.625592,1.25119 -1.086555,2.07434 -1.382888,2.46945 -0.115241,0.14817 -0.255177,0.23871 -0.419806,0.27164 h -0.07408 c -0.148167,0 -0.288102,-0.0412 -0.419806,-0.12348 -0.148167,-0.11524 -0.230481,-0.26341 -0.246944,-0.4445 v -0.12347 c 0,-0.1317 0.04116,-0.24694 0.123472,-0.34572 0.246945,-0.34572 0.66675,-1.10302 1.259417,-2.27189 0.526815,-1.07009 0.913694,-1.80269 1.160638,-2.1978 0.345723,-0.49389 0.757297,-0.86431 1.234723,-1.11125 0.312796,-0.14817 0.617361,-0.22225 0.913694,-0.22225 0.164629,0 0.321027,0.0247 0.469194,0.0741 0.312797,0.0988 0.559741,0.2881 0.740834,0.56797 0.181092,0.27987 0.271638,0.61736 0.271638,1.01247 0,0.42804 0.0082,0.71614 0.0247,0.86431 0.197555,3.63831 0.847842,5.79496 1.950861,6.46994 0.230481,0.14817 0.485657,0.22225 0.765528,0.22225 0.296333,0 0.633824,-0.0823 1.012472,-0.24694 0.921926,-0.37865 1.629833,-1.16064 2.123722,-2.34597 -0.16463,-0.97132 -0.246945,-2.14019 -0.246945,-3.50661 0,-0.77376 0.02469,-1.60514 0.07408,-2.49414 0,-0.18109 0.06585,-0.32926 0.197555,-0.4445 0.131704,-0.11524 0.288102,-0.17286 0.469195,-0.17286 0.181093,0.0165 0.329259,0.0906 0.4445,0.22225 0.115241,0.11524 0.172861,0.25517 0.172861,0.4198 v 0.0494 c -0.04939,0.85607 -0.07408,1.6463 -0.07408,2.37067 0,1.54751 0.107009,2.81516 0.321028,3.80294 0.230481,1.10302 0.576204,1.81916 1.037167,2.14842 0.197555,0.1317 0.428037,0.19755 0.691444,0.19755 0.296333,0 0.642056,-0.0823 1.037167,-0.24694 0.823148,-0.34572 1.473435,-1.01247 1.950861,-2.00025 0.312796,-0.64205 0.778937,-1.81291 0.910641,-2.58667 -0.833225,-5.39287 2.758745,-2.74882 0.398151,2.85828 z"
         style="font-size:49.3889px"
         id="path10218"
         sodipodi:nodetypes="ccscccsccccscccccsccsccccscssccsccscsccscsccscccc" />
    </g>
    <path
       style="fill:none;stroke:#000000;stroke-width:1.265;stroke-linecap:round;stroke-linejoin:miter;stroke-opacity:1;stroke-miterlimit:4;stroke-dasharray:none"
       d="m 34.757928,268.16351 c 0.04623,-0.43103 0.03155,-0.86855 -0.04346,-1.29551 -0.07143,-0.4066 -0.196861,-0.80184 -0.278569,-1.2065 -0.03908,-0.19353 -0.06861,-0.39081 -0.14245,-0.57391 -0.03692,-0.0916 -0.08498,-0.17916 -0.147894,-0.25523 -0.06292,-0.0761 -0.141092,-0.14042 -0.230901,-0.1814 -0.09226,-0.0421 -0.195349,-0.0587 -0.296571,-0.0526 -0.101222,0.006 -0.200557,0.0346 -0.291866,0.0787 -0.18262,0.0882 -0.330366,0.23639 -0.451124,0.39933 -0.289097,0.39009 -0.437366,0.87044 -0.49444,1.35261 -0.06747,0.56997 -0.01389,1.14943 0.104754,1.71098 0.0816,0.38623 0.197522,0.77372 0.424227,1.09689 0.302637,0.43141 0.787608,0.71634 1.301261,0.8341 0.49409,0.11327 1.007915,0.0815 1.514795,0.0761 0.330539,-0.003 0.661199,0.005 0.991177,0.0241"
       id="path1216"
       inkscape:path-effect="#path-effect1218"
       inkscape:original-d="m 34.757928,268.16351 c -0.01423,-0.43157 -0.0287,-0.86341 -0.04346,-1.29551 -0.01474,-0.43211 -0.185446,-0.80407 -0.278569,-1.2065 -0.09312,-0.40243 -0.347231,-0.67343 -0.521245,-1.01054 -0.174014,-0.33712 -0.692777,0.28389 -1.039561,0.42544 -0.346787,0.14155 -0.329364,0.902 -0.49444,1.35261 -0.165079,0.4506 0.0701,1.14092 0.104754,1.71098 0.03466,0.57007 0.283083,0.73153 0.424227,1.09689 0.141145,0.36537 0.867773,0.55633 1.301261,0.8341 0.433488,0.27777 1.010126,0.051 1.514795,0.0761 0.504666,0.0251 0.661048,0.0164 0.991177,0.0241" />
  </g>
</svg>
