<?xml version="1.0" encoding="UTF-8" standalone="no"?>
<!-- Created with Inkscape (http://www.inkscape.org/) -->

<svg
   width="55mm"
   height="55mm"
   viewBox="0 0 55 55"
   version="1.1"
   id="svg8"
   inkscape:version="1.1 (1:1.1+202106031931+af4d65493e)"
   sodipodi:docname="lower-e-hi.svg"
   xmlns:inkscape="http://www.inkscape.org/namespaces/inkscape"
   xmlns:sodipodi="http://sodipodi.sourceforge.net/DTD/sodipodi-0.dtd"
   xmlns="http://www.w3.org/2000/svg"
   xmlns:svg="http://www.w3.org/2000/svg"
   xmlns:rdf="http://www.w3.org/1999/02/22-rdf-syntax-ns#"
   xmlns:cc="http://creativecommons.org/ns#"
   xmlns:dc="http://purl.org/dc/elements/1.1/">
  <defs
     id="defs2" />
  <sodipodi:namedview
     id="base"
     pagecolor="#ffffff"
     bordercolor="#666666"
     borderopacity="1.0"
     inkscape:pageopacity="0.0"
     inkscape:pageshadow="2"
     inkscape:zoom="5.6"
     inkscape:cx="88.214286"
     inkscape:cy="98.035714"
     inkscape:document-units="mm"
     inkscape:current-layer="layer1"
     showgrid="false"
     inkscape:window-width="1528"
     inkscape:window-height="845"
     inkscape:window-x="72"
     inkscape:window-y="27"
     inkscape:window-maximized="1"
     inkscape:pagecheckerboard="0" />
  <metadata
     id="metadata5">
    <rdf:RDF>
      <cc:Work
         rdf:about="">
        <dc:format>image/svg+xml</dc:format>
        <dc:type
           rdf:resource="http://purl.org/dc/dcmitype/StillImage" />
      </cc:Work>
    </rdf:RDF>
  </metadata>
  <g
     inkscape:label="Calque 1"
     inkscape:groupmode="layer"
     id="layer1"
     transform="translate(0,-242)">
    <g
       style="font-style:normal;font-variant:normal;font-weight:normal;font-stretch:normal;font-size:63.49999619px;line-height:125%;font-family:Graphecrit;-inkscape-font-specification:Graphecrit;letter-spacing:0px;word-spacing:0px;fill:#000000;fill-opacity:1;stroke:none;stroke-width:1px;stroke-linecap:butt;stroke-linejoin:miter;stroke-opacity:1"
       id="text6642">
      <path
         d="m 26.559126,265.68847 c -0.06585,0 -0.139937,0.008 -0.22225,0.0247 -0.115241,0.0329 -0.246944,0.0741 -0.395111,0.12347 -0.856074,0.27987 -1.456972,0.80669 -1.802694,1.58045 -0.214019,0.47742 -0.321028,0.98777 -0.321028,1.53105 0,0.21402 0.01646,0.42804 0.04939,0.64206 l 0.02469,0.14816 0.02469,-0.0247 c 0.839611,-0.90547 1.50636,-1.76154 2.000249,-2.56822 0.411574,-0.65852 0.625593,-1.14418 0.642056,-1.45697 z m 1.382889,9.13694 c -2.008481,-0.0823 -3.539537,-0.97131 -4.593167,-2.667 l -0.617358,-1.30882 c -0.115241,-0.34572 -0.197555,-0.69967 -0.246944,-1.06186 -0.04939,-0.29633 -0.07408,-0.59267 -0.07408,-0.889 0,-0.87253 0.214018,-1.67099 0.642055,-2.39536 0.543278,-0.95485 1.358195,-1.61337 2.44475,-1.97555 0.428037,-0.14817 0.806685,-0.22225 1.135944,-0.22225 0.493889,0 0.864306,0.18109 1.11125,0.54327 0.131704,0.21402 0.197556,0.4692 0.197556,0.76553 0,0.60913 -0.296333,1.39112 -0.889,2.34597 -0.312797,0.49389 -0.699676,1.02071 -1.160639,1.58045 l -0.543278,0.64205 c -0.148167,0.16463 -0.288102,0.32103 -0.419805,0.4692 -0.131704,0.14817 -0.304565,0.32926 -0.518584,0.54328 0.790223,1.43227 1.983788,2.18134 3.580695,2.24719 h 0.07408 c 0.806685,0 1.670991,-0.2881 2.592916,-0.86431 0.954852,-0.60913 1.885009,-1.45697 2.790472,-2.54352 0.115241,-0.14817 0.27164,-0.23048 0.469195,-0.24695 h 0.07408 c 0.16463,0 0.312797,0.0494 0.4445,0.14817 0.148167,0.1317 0.230482,0.2881 0.246945,0.46919 v 0.0741 c 0,0.16463 -0.05762,0.31279 -0.172862,0.4445 -1.020703,1.25118 -2.090796,2.21426 -3.210277,2.88925 -1.103019,0.67498 -2.16488,1.01247 -3.185583,1.01247 z"
         style="font-size:49.3889px"
         id="path22876"
         sodipodi:nodetypes="ccccsccccccccccsccscscccsccscccsccsccsc" />
    </g>
  </g>
</svg>
