<?xml version="1.0" encoding="UTF-8" standalone="no"?>
<!-- Created with Inkscape (http://www.inkscape.org/) -->

<svg
   width="55mm"
   height="55mm"
   viewBox="0 0 55 55"
   version="1.1"
   id="svg8"
   inkscape:version="1.1 (1:1.1+202106031931+af4d65493e)"
   sodipodi:docname="lower-v-lo.svg"
   xmlns:inkscape="http://www.inkscape.org/namespaces/inkscape"
   xmlns:sodipodi="http://sodipodi.sourceforge.net/DTD/sodipodi-0.dtd"
   xmlns="http://www.w3.org/2000/svg"
   xmlns:svg="http://www.w3.org/2000/svg"
   xmlns:rdf="http://www.w3.org/1999/02/22-rdf-syntax-ns#"
   xmlns:cc="http://creativecommons.org/ns#"
   xmlns:dc="http://purl.org/dc/elements/1.1/">
  <defs
     id="defs2">
    <inkscape:path-effect
       effect="spiro"
       id="path-effect1267"
       is_visible="true"
       lpeversion="1" />
    <inkscape:path-effect
       effect="spiro"
       id="path-effect2262"
       is_visible="true"
       lpeversion="1" />
  </defs>
  <sodipodi:namedview
     id="base"
     pagecolor="#ffffff"
     bordercolor="#666666"
     borderopacity="1.0"
     inkscape:pageopacity="0.0"
     inkscape:pageshadow="2"
     inkscape:zoom="5.6"
     inkscape:cx="97.410714"
     inkscape:cy="97.678571"
     inkscape:document-units="mm"
     inkscape:current-layer="layer1"
     showgrid="false"
     inkscape:window-width="1528"
     inkscape:window-height="845"
     inkscape:window-x="72"
     inkscape:window-y="27"
     inkscape:window-maximized="1"
     inkscape:pagecheckerboard="0"
     showguides="false"
     inkscape:snap-to-guides="false"
     inkscape:snap-grids="false"
     inkscape:snap-global="false">
    <inkscape:grid
       type="xygrid"
       id="grid1263" />
  </sodipodi:namedview>
  <metadata
     id="metadata5">
    <rdf:RDF>
      <cc:Work
         rdf:about="">
        <dc:format>image/svg+xml</dc:format>
        <dc:type
           rdf:resource="http://purl.org/dc/dcmitype/StillImage" />
      </cc:Work>
    </rdf:RDF>
  </metadata>
  <g
     inkscape:label="Calque 1"
     inkscape:groupmode="layer"
     id="layer1"
     transform="translate(0,-242)">
    <g
       style="font-style:normal;font-variant:normal;font-weight:normal;font-stretch:normal;font-size:63.49999619px;line-height:125%;font-family:Graphecrit;-inkscape-font-specification:Graphecrit;letter-spacing:0px;word-spacing:0px;fill:#000000;fill-opacity:1;stroke:none;stroke-width:1px;stroke-linecap:butt;stroke-linejoin:miter;stroke-opacity:1"
       id="text6642">
      <path
         d="m 26.936605,274.82541 c -0.526815,0 -1.012472,-0.13994 -1.456972,-0.41981 -1.481667,-0.92193 -2.329509,-3.4243 -2.543527,-7.50711 -0.01646,-0.14817 -0.02469,-0.46096 -0.02469,-0.93839 0,-0.21401 -0.03293,-0.32925 -0.09878,-0.34572 h -0.07408 c -0.115241,0 -0.246944,0.0412 -0.395111,0.12347 -0.263407,0.13171 -0.485657,0.34573 -0.66675,0.64206 -0.230481,0.31279 -0.600898,0.99601 -1.11125,2.04964 -0.609129,1.23472 -1.070092,2.05787 -1.382889,2.46944 -0.09878,0.13171 -0.238712,0.21402 -0.419805,0.24695 h -0.07408 c -0.148167,0 -0.279871,-0.0412 -0.395112,-0.12348 -0.148166,-0.11524 -0.238712,-0.26341 -0.271638,-0.4445 v -0.0741 c 0,-0.1317 0.04116,-0.2634 0.123472,-0.39511 0.263407,-0.32926 0.683213,-1.08656 1.259416,-2.27189 0.526815,-1.07009 0.921927,-1.80269 1.185334,-2.1978 0.329259,-0.49389 0.740833,-0.86431 1.234722,-1.11125 0.296333,-0.14817 0.592667,-0.22225 0.889,-0.22225 0.164629,0 0.321027,0.0247 0.469194,0.0741 0.329259,0.0988 0.584435,0.2881 0.765528,0.56797 0.181093,0.27987 0.271639,0.61736 0.271639,1.01247 0,0.42804 0.0082,0.71614 0.02469,0.86431 0.181093,3.63831 0.823148,5.80319 1.926167,6.49464 0.230481,0.1317 0.485657,0.19755 0.765527,0.19755 0.312797,0 0.658519,-0.0823 1.037167,-0.24694 0.823148,-0.34572 1.481666,-1.01247 1.975555,-2.00025 0.296333,-0.62559 0.510352,-1.3335 0.642056,-2.12372 0.08232,-0.49389 0.123472,-0.97132 0.123472,-1.43228 -1.624288,-6.35925 1.223888,-0.39291 1.284107,-0.14816 v 0.24695 c 0,1.3335 -0.246944,2.57645 -0.740833,3.72886 -0.642055,1.44874 -1.572213,2.42829 -2.790472,2.93864 -0.543278,0.23048 -1.05363,0.34572 -1.531056,0.34572 z"
         style="font-size:49.3889px"
         id="path10770"
         sodipodi:nodetypes="cccscscccccsccsccssscssccsccsccscccc" />
    </g>
    <path
       style="fill:none;stroke:#000000;stroke-width:1.165;stroke-linecap:round;stroke-linejoin:miter;stroke-miterlimit:4;stroke-dasharray:none;stroke-opacity:1"
       d="m 31.462472,267.8345 c -0.07874,-0.45603 -0.148211,-0.91366 -0.208349,-1.37252 -0.02645,-0.20182 -0.05141,-0.40532 -0.114455,-0.59886 -0.06304,-0.19353 -0.167621,-0.37894 -0.327619,-0.50476 -0.16442,-0.1293 -0.379107,-0.18712 -0.588069,-0.1778 -0.208962,0.009 -0.41206,0.0827 -0.590406,0.192 -0.437833,0.26831 -0.718519,0.7396 -0.87157,1.22977 -0.149317,0.47821 -0.190723,1.00166 -0.03881,1.47905 0.136575,0.42919 0.420723,0.79807 0.745959,1.10964 0.31215,0.29904 0.669227,0.55527 1.066932,0.72466 0.396237,0.16876 0.82387,0.2483 1.24846,0.32046 0.448656,0.0763 0.898482,0.14562 1.349267,0.20807"
       id="path1265"
       inkscape:path-effect="#path-effect1267"
       inkscape:original-d="m 31.462472,267.8345 c -0.06919,-0.43272 -0.138637,-0.91475 -0.208349,-1.37252 -0.06971,-0.45777 -0.294452,-0.73548 -0.442074,-1.10362 -0.147622,-0.36814 -0.785386,0.01 -1.178475,0.0142 -0.393092,0.004 -0.580782,0.82011 -0.87157,1.22977 -0.290787,0.40966 -0.02561,0.9863 -0.03881,1.47905 -0.0132,0.49275 0.497571,0.74002 0.745959,1.10964 0.248385,0.36961 0.711552,0.48337 1.066932,0.72466 0.355378,0.24129 0.832572,0.2139 1.24846,0.32046 0.415891,0.10655 0.899774,0.13897 1.349267,0.20807" />
  </g>
</svg>
