<?xml version="1.0" encoding="UTF-8" standalone="no"?>
<!-- Created with Inkscape (http://www.inkscape.org/) -->

<svg
   xmlns:dc="http://purl.org/dc/elements/1.1/"
   xmlns:cc="http://creativecommons.org/ns#"
   xmlns:rdf="http://www.w3.org/1999/02/22-rdf-syntax-ns#"
   xmlns:svg="http://www.w3.org/2000/svg"
   xmlns="http://www.w3.org/2000/svg"
   xmlns:sodipodi="http://sodipodi.sourceforge.net/DTD/sodipodi-0.dtd"
   xmlns:inkscape="http://www.inkscape.org/namespaces/inkscape"
   width="55mm"
   height="55mm"
   viewBox="0 0 55 55"
   version="1.1"
   id="svg8"
   inkscape:version="0.91 r13725"
   sodipodi:docname="lower-w.svg">
  <defs
     id="defs2" />
  <sodipodi:namedview
     id="base"
     pagecolor="#ffffff"
     bordercolor="#666666"
     borderopacity="1.0"
     inkscape:pageopacity="0.0"
     inkscape:pageshadow="2"
     inkscape:zoom="1.4"
     inkscape:cx="-72.983922"
     inkscape:cy="43.63747"
     inkscape:document-units="mm"
     inkscape:current-layer="layer1"
     showgrid="false"
     inkscape:window-width="1440"
     inkscape:window-height="800"
     inkscape:window-x="0"
     inkscape:window-y="1"
     inkscape:window-maximized="1" />
  <metadata
     id="metadata5">
    <rdf:RDF>
      <cc:Work
         rdf:about="">
        <dc:format>image/svg+xml</dc:format>
        <dc:type
           rdf:resource="http://purl.org/dc/dcmitype/StillImage" />
        <dc:title />
      </cc:Work>
    </rdf:RDF>
  </metadata>
  <g
     inkscape:label="Calque 1"
     inkscape:groupmode="layer"
     id="layer1"
     transform="translate(0,-242)">
    <g
       style="font-style:normal;font-variant:normal;font-weight:normal;font-stretch:normal;font-size:63.49999619px;line-height:125%;font-family:Graphecrit;-inkscape-font-specification:Graphecrit;letter-spacing:0px;word-spacing:0px;fill:#000000;fill-opacity:1;stroke:none;stroke-width:1px;stroke-linecap:butt;stroke-linejoin:miter;stroke-opacity:1"
       id="text6642">
      <path
         d="m 39.968218,265.66377 q 0.123472,0.17286 0.123472,0.37042 0,0.0494 -0.02469,0.12347 -0.04939,0.24694 -0.271639,0.41981 -1.580445,1.08655 -3.309056,1.08655 -0.543277,0 -1.086555,-0.0988 l 0,0.12347 q 0,2.07434 -0.765528,3.85234 -0.938389,2.14841 -2.765777,2.93864 -0.814917,0.34572 -1.531056,0.34572 -0.790222,0 -1.432278,-0.4445 -0.691444,-0.49389 -1.160638,-1.62983 -0.790222,1.16063 -2.099028,1.72861 -0.814917,0.34572 -1.55575,0.34572 -0.790222,0 -1.432278,-0.41981 -2.222499,-1.38289 -2.568222,-7.50711 0,-0.22225 -0.02469,-0.93839 0,-0.32102 -0.09878,-0.34572 l -0.07408,0 q -0.172861,0 -0.395111,0.12347 -0.370417,0.19756 -0.66675,0.64206 -0.345722,0.49389 -1.086556,2.02494 -0.938388,1.87678 -1.382888,2.46945 -0.172862,0.22225 -0.419806,0.27164 l -0.07408,0 q -0.22225,0 -0.419806,-0.12348 -0.22225,-0.17286 -0.246944,-0.4445 l 0,-0.12347 q 0,-0.19755 0.123472,-0.34572 0.370417,-0.51858 1.259417,-2.27189 0.790222,-1.60514 1.160638,-2.1978 0.518584,-0.74084 1.234723,-1.11125 0.469194,-0.22225 0.913694,-0.22225 0.246944,0 0.469194,0.0741 0.469195,0.14817 0.740834,0.56797 0.271638,0.41981 0.271638,1.01247 0,0.64206 0.0247,0.86431 0.296333,5.45747 1.950861,6.46994 0.345722,0.22225 0.765528,0.22225 0.4445,0 1.012472,-0.24694 1.382889,-0.56797 2.123722,-2.34597 -0.246945,-1.45698 -0.246945,-3.50661 0,-1.16064 0.07408,-2.49414 0,-0.27164 0.197555,-0.4445 0.197556,-0.17286 0.469195,-0.17286 0.271639,0.0247 0.4445,0.22225 0.172861,0.17286 0.172861,0.4198 l 0,0.0494 q -0.07408,1.28411 -0.07408,2.37067 0,2.32127 0.321028,3.80294 0.345722,1.65453 1.037167,2.14842 0.296333,0.19755 0.691444,0.19755 0.4445,0 1.037167,-0.24694 1.234722,-0.51858 1.950861,-2.00025 0.469194,-0.96308 0.66675,-2.12372 0.123472,-0.74084 0.123472,-1.43228 0,-0.29633 -0.02469,-0.59267 -0.271638,-0.14816 -0.493888,-0.29633 -0.987778,-0.69144 -0.987778,-1.43228 0,-0.12347 0.02469,-0.27164 0.172861,-0.69144 1.061861,-0.81491 l 0.123473,0 q 0.963083,0 1.358194,1.50636 0.04939,0.17286 0.09878,0.37041 0.617361,0.19756 1.210027,0.19756 1.308806,0 2.568222,-0.889 0.172862,-0.12347 0.370417,-0.12347 0.04939,0 0.123472,0.0247 0.271639,0.0494 0.419806,0.27164 z"
         style="font-size:49.3888855px"
         id="path10218" />
    </g>
  </g>
</svg>
