<?xml version="1.0" encoding="UTF-8" standalone="no"?>
<!-- Created with Inkscape (http://www.inkscape.org/) -->

<svg
   xmlns:dc="http://purl.org/dc/elements/1.1/"
   xmlns:cc="http://creativecommons.org/ns#"
   xmlns:rdf="http://www.w3.org/1999/02/22-rdf-syntax-ns#"
   xmlns:svg="http://www.w3.org/2000/svg"
   xmlns="http://www.w3.org/2000/svg"
   xmlns:sodipodi="http://sodipodi.sourceforge.net/DTD/sodipodi-0.dtd"
   xmlns:inkscape="http://www.inkscape.org/namespaces/inkscape"
   width="55mm"
   height="55mm"
   viewBox="0 0 55 55"
   version="1.1"
   id="svg8"
   inkscape:version="0.92.3 (2405546, 2018-03-11)"
   sodipodi:docname="lower-b.svg">
  <defs
     id="defs2" />
  <sodipodi:namedview
     id="base"
     pagecolor="#ffffff"
     bordercolor="#666666"
     borderopacity="1.0"
     inkscape:pageopacity="0.0"
     inkscape:pageshadow="2"
     inkscape:zoom="1.4"
     inkscape:cx="213.44465"
     inkscape:cy="34.720677"
     inkscape:document-units="mm"
     inkscape:current-layer="layer1"
     showgrid="false"
     inkscape:window-width="1533"
     inkscape:window-height="845"
     inkscape:window-x="67"
     inkscape:window-y="27"
     inkscape:window-maximized="1" />
  <metadata
     id="metadata5">
    <rdf:RDF>
      <cc:Work
         rdf:about="">
        <dc:format>image/svg+xml</dc:format>
        <dc:type
           rdf:resource="http://purl.org/dc/dcmitype/StillImage" />
        <dc:title></dc:title>
      </cc:Work>
    </rdf:RDF>
  </metadata>
  <g
     inkscape:label="Calque 1"
     inkscape:groupmode="layer"
     id="layer1"
     transform="translate(0,-242)">
    <g
       aria-label="b"
       style="font-style:normal;font-variant:normal;font-weight:normal;font-stretch:normal;font-size:10.58333302px;line-height:1.25;font-family:'Cursive standard';-inkscape-font-specification:'Cursive standard';letter-spacing:0px;word-spacing:0px;fill:#000000;fill-opacity:1;stroke:none;stroke-width:0.26458332"
       id="text843">
      <path
         d="m 37.498261,281.61135 q 0,0.13758 -0.04586,0.27517 -0.04586,0.13758 -0.09172,0.2293 -0.596194,1.51342 -2.06375,2.20133 -1.421694,0.68792 -3.026833,0.50448 -0.8255,1.97202 -2.338917,3.34786 -1.467556,1.37583 -3.760612,1.37583 -1.467555,0 -2.568222,-0.59619 -1.100667,-0.5962 -1.834445,-1.55928 -0.733777,-1.00895 -1.100666,-2.29306 -0.41275,-1.32997 -0.550334,-2.88925 -0.321027,-4.44852 -0.550333,-8.89705 -0.275167,-4.49439 -0.275167,-9.03464 0,-0.91722 0.137584,-2.52236 0.09172,-1.651 0.366889,-3.48545 0.275166,-1.8803 0.687916,-3.76061 0.41275,-1.92617 1.008945,-3.43958 0.642055,-1.55928 1.467555,-2.52236 0.871362,-0.96309 1.972028,-0.96309 1.375834,0 2.384778,1.10067 1.008945,1.10067 1.605139,2.75167 0.596195,1.60513 0.871361,3.39372 0.321028,1.78858 0.321028,3.16441 0,2.75167 -0.8255,5.91609 -0.8255,3.16442 -2.109611,6.28297 -1.23825,3.0727 -2.659945,6.05367 -1.421694,2.93511 -2.614083,5.31989 0.09172,1.10066 0.366889,2.24719 0.275166,1.14653 0.733778,1.97203 0.504472,0.8255 1.23825,1.37583 0.779639,0.55034 1.926166,0.55034 1.605139,0 2.659945,-1.05481 1.054806,-1.10067 1.651,-2.4765 -1.329972,-0.8255 -1.926167,-2.29305 -0.596194,-1.51342 -0.596194,-2.98098 0,-0.68791 0.137583,-1.37583 0.183445,-0.73378 0.504472,-1.32997 0.366889,-0.5962 0.917223,-0.96309 0.550333,-0.36688 1.375833,-0.36688 0.733778,0 1.192389,0.36688 0.504472,0.36689 0.779639,0.96309 0.321028,0.55033 0.458611,1.23825 0.137584,0.64205 0.137584,1.23825 0,2.15547 -0.550334,4.31094 1.054806,-0.0459 1.696861,-0.41275 0.687917,-0.41275 0.963084,-0.91722 0.229305,-0.45861 0.41275,-0.68792 0.183444,-0.2293 0.596194,-0.2293 0.366889,0 0.642056,0.27516 0.275167,0.22931 0.275167,0.5962 z m -9.218084,-23.61848 q 0,-0.87136 -0.183445,-2.24719 -0.137583,-1.42169 -0.550333,-2.75167 -0.41275,-1.32997 -1.054806,-2.29305 -0.642055,-0.96309 -1.559278,-0.96309 -0.504472,0 -0.917222,0.55034 -0.366889,0.50447 -0.687917,1.23825 -0.321027,0.68791 -0.550333,1.42169 -0.183445,0.73378 -0.321028,1.14653 -1.284111,5.04472 -1.284111,10.18117 0,3.39372 0.09172,6.74158 0.137584,3.302 0.366889,6.69572 0.963083,-1.97202 2.109611,-4.44852 1.192389,-2.4765 2.155473,-5.09059 1.008944,-2.61408 1.696861,-5.22816 0.687917,-2.65995 0.687917,-4.95301 z m 3.302,20.68337 q 0,-0.18345 0,-0.50447 0,-0.32103 -0.09172,-0.64206 -0.04586,-0.32103 -0.183445,-0.55033 -0.137583,-0.27517 -0.41275,-0.27517 -0.366889,0 -0.596194,0.27517 -0.183445,0.2293 -0.321028,0.59619 -0.09172,0.32103 -0.137583,0.68792 0,0.36689 0,0.64205 0,0.91723 0.275166,1.83445 0.321028,0.87136 1.008945,1.51341 0.458611,-1.69686 0.458611,-3.57716 z"
         style="font-size:45.8611145px;stroke-width:0.26458332"
         id="path845" />
    </g>
  </g>
</svg>
