<?xml version="1.0" encoding="UTF-8" standalone="no"?>
<!-- Created with Inkscape (http://www.inkscape.org/) -->

<svg
   xmlns:dc="http://purl.org/dc/elements/1.1/"
   xmlns:cc="http://creativecommons.org/ns#"
   xmlns:rdf="http://www.w3.org/1999/02/22-rdf-syntax-ns#"
   xmlns:svg="http://www.w3.org/2000/svg"
   xmlns="http://www.w3.org/2000/svg"
   xmlns:sodipodi="http://sodipodi.sourceforge.net/DTD/sodipodi-0.dtd"
   xmlns:inkscape="http://www.inkscape.org/namespaces/inkscape"
   width="55mm"
   height="55mm"
   viewBox="0 0 55 55"
   version="1.1"
   id="svg8"
   inkscape:version="0.91 r13725"
   sodipodi:docname="lower-u.svg">
  <defs
     id="defs2" />
  <sodipodi:namedview
     id="base"
     pagecolor="#ffffff"
     bordercolor="#666666"
     borderopacity="1.0"
     inkscape:pageopacity="0.0"
     inkscape:pageshadow="2"
     inkscape:zoom="1.4"
     inkscape:cx="-72.983922"
     inkscape:cy="43.63747"
     inkscape:document-units="mm"
     inkscape:current-layer="layer1"
     showgrid="false"
     inkscape:window-width="1440"
     inkscape:window-height="800"
     inkscape:window-x="0"
     inkscape:window-y="1"
     inkscape:window-maximized="1" />
  <metadata
     id="metadata5">
    <rdf:RDF>
      <cc:Work
         rdf:about="">
        <dc:format>image/svg+xml</dc:format>
        <dc:type
           rdf:resource="http://purl.org/dc/dcmitype/StillImage" />
        <dc:title />
      </cc:Work>
    </rdf:RDF>
  </metadata>
  <g
     inkscape:label="Calque 1"
     inkscape:groupmode="layer"
     id="layer1"
     transform="translate(0,-242)">
    <g
       style="font-style:normal;font-variant:normal;font-weight:normal;font-stretch:normal;font-size:63.49999619px;line-height:125%;font-family:Graphecrit;-inkscape-font-specification:Graphecrit;letter-spacing:0px;word-spacing:0px;fill:#000000;fill-opacity:1;stroke:none;stroke-width:1px;stroke-linecap:butt;stroke-linejoin:miter;stroke-opacity:1"
       id="text6642">
      <path
         d="m 36.045326,269.91121 q 0.22225,0.17287 0.271639,0.4445 0.02469,0.0741 0.02469,0.12348 0,0.19755 -0.123473,0.37041 -0.814916,1.16064 -2.271888,2.27189 -1.358195,1.03717 -2.44475,1.40759 -0.518584,0.19755 -0.963084,0.19755 -0.543277,0 -0.963083,-0.27164 -0.642055,-0.4198 -0.790222,-1.40758 -2.00025,1.778 -3.901722,1.778 -0.22225,0 -0.4445,-0.0247 -3.284361,-0.51858 -3.284361,-3.95111 l 0,-2.14841 q -0.518583,1.03716 -1.358194,2.09902 -0.172861,0.22225 -0.469195,0.24695 l -0.07408,0 q -0.22225,0 -0.419805,-0.14817 -0.22225,-0.17286 -0.246945,-0.4445 l 0,-0.0741 q 0,-0.22225 0.148167,-0.41981 1.210028,-1.53105 2.00025,-3.87702 0.148166,-0.4445 0.22225,-0.69145 0.148166,-0.37041 0.271639,-0.69144 0.172861,-0.4445 0.543277,-0.4445 0.09878,0 0.197556,0.0247 0.543278,0.0988 0.543278,0.61736 l 0,0.0494 q -0.02469,3.95111 -0.02469,5.90197 0,2.27189 2.173111,2.61761 0.123472,0.0247 0.246945,0.0247 0.740833,0 1.777999,-0.59267 1.210028,-0.66675 1.975556,-1.65453 -0.0247,-0.29633 -0.0247,-0.8643 0,-1.48167 0.09878,-4.79072 l 0,-0.66675 q 0.0247,-0.66675 0.691445,-0.66675 0.296333,0 0.493888,0.22225 0.172862,0.19755 0.172862,0.46919 l -0.0247,0.66675 q -0.04939,2.34597 -0.04939,4.0005 0,2.00025 0.07408,3.01272 0.02469,0.34573 0.09878,0.51859 0.0247,0.0741 0.07408,0.12347 0.02469,0.0247 0.04939,0.0494 0.07408,0.0494 0.222249,0.0494 0.22225,0 0.543278,-0.0988 0.889,-0.32103 2.074333,-1.23472 1.284111,-0.98778 1.950861,-1.95086 0.172862,-0.22225 0.4445,-0.27164 0.07408,-0.0247 0.123473,-0.0247 0.197555,0 0.370416,0.12347 z"
         style="font-size:49.3888855px"
         id="path11322" />
    </g>
  </g>
</svg>
