<?xml version="1.0" encoding="UTF-8" standalone="no"?>
<!-- Created with Inkscape (http://www.inkscape.org/) -->

<svg
   xmlns:dc="http://purl.org/dc/elements/1.1/"
   xmlns:cc="http://creativecommons.org/ns#"
   xmlns:rdf="http://www.w3.org/1999/02/22-rdf-syntax-ns#"
   xmlns:svg="http://www.w3.org/2000/svg"
   xmlns="http://www.w3.org/2000/svg"
   xmlns:sodipodi="http://sodipodi.sourceforge.net/DTD/sodipodi-0.dtd"
   xmlns:inkscape="http://www.inkscape.org/namespaces/inkscape"
   width="55mm"
   height="55mm"
   viewBox="0 0 55 55"
   version="1.1"
   id="svg8"
   inkscape:version="0.91 r13725"
   sodipodi:docname="lower-m.svg">
  <defs
     id="defs2" />
  <sodipodi:namedview
     id="base"
     pagecolor="#ffffff"
     bordercolor="#666666"
     borderopacity="1.0"
     inkscape:pageopacity="0.0"
     inkscape:pageshadow="2"
     inkscape:zoom="1.4"
     inkscape:cx="-72.983922"
     inkscape:cy="43.63747"
     inkscape:document-units="mm"
     inkscape:current-layer="layer1"
     showgrid="false"
     inkscape:window-width="1440"
     inkscape:window-height="800"
     inkscape:window-x="0"
     inkscape:window-y="1"
     inkscape:window-maximized="1" />
  <metadata
     id="metadata5">
    <rdf:RDF>
      <cc:Work
         rdf:about="">
        <dc:format>image/svg+xml</dc:format>
        <dc:type
           rdf:resource="http://purl.org/dc/dcmitype/StillImage" />
        <dc:title />
      </cc:Work>
    </rdf:RDF>
  </metadata>
  <g
     inkscape:label="Calque 1"
     inkscape:groupmode="layer"
     id="layer1"
     transform="translate(0,-242)">
    <g
       style="font-style:normal;font-variant:normal;font-weight:normal;font-stretch:normal;font-size:63.49999619px;line-height:125%;font-family:Graphecrit;-inkscape-font-specification:Graphecrit;letter-spacing:0px;word-spacing:0px;fill:#000000;fill-opacity:1;stroke:none;stroke-width:1px;stroke-linecap:butt;stroke-linejoin:miter;stroke-opacity:1"
       id="text6642">
      <path
         d="m 39.717746,269.71366 q 0.246944,0.14817 0.296333,0.4198 l 0,0.12348 q 0,0.19755 -0.123472,0.37041 -0.740833,1.06186 -2.148417,2.14842 -1.308805,0.98778 -2.469444,1.48167 -0.864305,0.37041 -1.605139,0.37041 -0.592666,0 -1.061861,-0.27164 -0.518583,-0.27163 -0.790222,-0.81491 -0.09878,-0.17286 -0.148167,-0.37042 -0.02469,-0.0741 -0.04939,-0.12347 l 0,-0.0741 q 0,-0.0247 -0.02469,-1.21003 -0.02469,-0.56797 -0.02469,-0.93839 -0.0247,-0.49389 -0.0247,-0.71614 -0.02469,-0.27164 -0.02469,-0.76553 0,-1.70391 -0.493889,-2.46944 -0.790222,-1.16064 -1.654528,-1.21003 l -0.04939,0 q -0.518583,0 -1.11125,0.37042 -0.493888,0.32103 -0.987777,0.83961 0.22225,0.56797 0.321028,1.3088 0.04939,0.4445 0.04939,1.23473 l 0.0247,0.61736 q 0,0.24694 0.02469,1.01247 0,0.59267 0.0247,1.45697 l 0,1.13595 0.02469,0.51858 q 0,0.27164 -0.197555,0.46919 -0.197556,0.19756 -0.469195,0.19756 -0.4445,0 -0.617361,-0.41981 -0.07408,-0.12347 -0.07408,-0.24694 l 0,-1.55575 q -0.0247,-1.92617 -0.04939,-2.51883 l -0.02469,-0.64206 q -0.02469,-1.80269 -0.543277,-2.59292 -0.765528,-1.11125 -1.629833,-1.16063 l -0.07408,0 q -0.987778,0 -2.024944,1.13594 l 0.02469,7.33425 q 0,0.27164 -0.197555,0.46919 -0.197556,0.19756 -0.469195,0.19756 -0.296333,0 -0.469194,-0.19756 -0.197556,-0.19755 -0.197556,-0.46919 l -0.02469,-8.14917 q 0,-0.12347 -0.02469,-0.22225 -0.02469,-0.12347 -0.07408,-0.12347 -0.04939,-0.0247 -0.123472,-0.0247 -0.148167,0 -0.370417,0.14816 -0.395111,0.19756 -0.691444,0.64206 -0.22225,0.34572 -0.543278,0.93839 l -0.296333,0.56797 -0.271639,0.59267 -0.370417,0.69144 -0.345722,0.69144 q -0.395111,0.74084 -0.691444,1.13595 -0.172861,0.22225 -0.4445,0.27164 l -0.07408,0 q -0.222249,0 -0.419805,-0.12347 -0.22225,-0.17287 -0.271639,-0.4445 l 0,-0.0741 q 0,-0.22225 0.123472,-0.4198 0.271639,-0.34573 0.642056,-1.03717 0.123472,-0.27164 0.321028,-0.61736 l 0.321027,-0.66675 0.321028,-0.61736 0.296333,-0.59267 q 0.345723,-0.64205 0.592667,-1.03716 0.518583,-0.76553 1.284111,-1.13595 0.493889,-0.24694 0.913694,-0.24694 0.246945,0 0.469195,0.0741 0.592666,0.17286 0.864305,0.81492 1.086556,-0.83961 2.197806,-0.83961 l 0.172861,0 q 1.284111,0.0741 2.321277,1.3335 1.407584,-1.3582 2.790472,-1.3582 l 0.148167,0 q 1.531056,0.0741 2.691694,1.8027 0.493889,0.71613 0.66675,1.62983 0.04939,0.37041 0.07408,0.81491 l 0,1.11125 0.02469,0.34573 q 0,0.4198 0.0247,1.58044 0.02469,0.37042 0.02469,0.79022 l 0,0.4445 0.02469,0 0,0.0247 0.04939,0.0988 q 0.04939,0.0494 0.09878,0.12347 0.07408,0.0741 0.172861,0.0988 0.172861,0.0988 0.4445,0.0988 0.419806,0 1.037167,-0.27164 0.938389,-0.39511 2.074333,-1.23472 1.308805,-0.98778 1.975555,-1.92616 0.148167,-0.22225 0.419806,-0.27164 l 0.123472,0 q 0.197556,0 0.370417,0.12347 z"
         style="font-size:49.3888855px"
         id="path16429" />
    </g>
  </g>
</svg>
