<?xml version="1.0" encoding="UTF-8" standalone="no"?>
<!-- Created with Inkscape (http://www.inkscape.org/) -->

<svg
   xmlns:dc="http://purl.org/dc/elements/1.1/"
   xmlns:cc="http://creativecommons.org/ns#"
   xmlns:rdf="http://www.w3.org/1999/02/22-rdf-syntax-ns#"
   xmlns:svg="http://www.w3.org/2000/svg"
   xmlns="http://www.w3.org/2000/svg"
   xmlns:sodipodi="http://sodipodi.sourceforge.net/DTD/sodipodi-0.dtd"
   xmlns:inkscape="http://www.inkscape.org/namespaces/inkscape"
   width="55mm"
   height="55mm"
   viewBox="0 0 55 55"
   version="1.1"
   id="svg8"
   inkscape:version="0.91 r13725"
   sodipodi:docname="lower-o.svg">
  <defs
     id="defs2" />
  <sodipodi:namedview
     id="base"
     pagecolor="#ffffff"
     bordercolor="#666666"
     borderopacity="1.0"
     inkscape:pageopacity="0.0"
     inkscape:pageshadow="2"
     inkscape:zoom="1.4"
     inkscape:cx="-72.983922"
     inkscape:cy="43.63747"
     inkscape:document-units="mm"
     inkscape:current-layer="layer1"
     showgrid="false"
     inkscape:window-width="1440"
     inkscape:window-height="800"
     inkscape:window-x="0"
     inkscape:window-y="1"
     inkscape:window-maximized="1" />
  <metadata
     id="metadata5">
    <rdf:RDF>
      <cc:Work
         rdf:about="">
        <dc:format>image/svg+xml</dc:format>
        <dc:type
           rdf:resource="http://purl.org/dc/dcmitype/StillImage" />
        <dc:title />
      </cc:Work>
    </rdf:RDF>
  </metadata>
  <g
     inkscape:label="Calque 1"
     inkscape:groupmode="layer"
     id="layer1"
     transform="translate(0,-242)">
    <g
       style="font-style:normal;font-variant:normal;font-weight:normal;font-stretch:normal;font-size:63.49999619px;line-height:125%;font-family:Graphecrit;-inkscape-font-specification:Graphecrit;letter-spacing:0px;word-spacing:0px;fill:#000000;fill-opacity:1;stroke:none;stroke-width:1px;stroke-linecap:butt;stroke-linejoin:miter;stroke-opacity:1"
       id="text6642">
      <path
         d="m 27.702127,274.82541 q 1.012473,0 2.024945,-0.39511 2.024944,-0.889 2.839861,-2.74109 0.395111,-0.93838 0.395111,-1.92616 0,-0.98778 -0.395111,-2.00025 l -0.09878,-0.24695 0.07408,0 q 2.123722,0 3.679472,-1.21002 0.197556,-0.19756 0.197556,-0.4692 0.02469,-0.27164 -0.148167,-0.46919 -0.197555,-0.22225 -0.493889,-0.22225 l -0.04939,0 q -0.246944,0 -0.4445,0.17286 -0.814916,0.64205 -1.852083,0.79022 -0.642055,0.0988 -1.160639,0.0988 -0.370416,0 -0.66675,-0.0494 -0.716138,-0.79022 -1.382888,-1.16064 -0.642056,-0.37042 -0.963084,-0.46919 -0.321027,-0.14817 -0.814916,-0.19756 -0.148167,-0.0247 -0.271639,-0.0247 -0.370417,0 -0.691445,0.14816 -0.148166,0.0741 -0.246944,0.17286 -0.814917,0.0741 -1.580444,0.37042 -2.024945,0.889 -2.839861,2.76578 -0.395111,0.93839 -0.395111,1.92616 0,0.98778 0.395111,2.00025 0.864305,1.92617 2.864555,2.74109 0.987778,0.39511 2.024944,0.39511 z M 27.15885,265.9848 q 0.370416,0.4445 1.308805,0.81492 0.987778,0.39511 2.370667,0.61736 0.246944,0.37041 0.4445,0.83961 0.296333,0.76552 0.296333,1.48166 0,0.74084 -0.4445,1.778 -0.4445,1.03717 -1.950861,1.67923 -0.740833,0.29633 -1.481667,0.29633 -0.740833,0 -1.481666,-0.29633 -1.481667,-0.59267 -2.123722,-2.02495 -0.296333,-0.76553 -0.296333,-1.48167 0,-0.71613 0.444499,-1.7533 0.4445,-1.06186 1.950861,-1.70392 0.469195,-0.19755 0.963084,-0.24694 z"
         style="font-size:49.3888855px"
         id="path15247" />
    </g>
  </g>
</svg>
