<?xml version="1.0" encoding="UTF-8" standalone="no"?>
<!-- Created with Inkscape (http://www.inkscape.org/) -->

<svg
   xmlns:dc="http://purl.org/dc/elements/1.1/"
   xmlns:cc="http://creativecommons.org/ns#"
   xmlns:rdf="http://www.w3.org/1999/02/22-rdf-syntax-ns#"
   xmlns:svg="http://www.w3.org/2000/svg"
   xmlns="http://www.w3.org/2000/svg"
   xmlns:sodipodi="http://sodipodi.sourceforge.net/DTD/sodipodi-0.dtd"
   xmlns:inkscape="http://www.inkscape.org/namespaces/inkscape"
   width="55mm"
   height="55mm"
   viewBox="0 0 55 55"
   version="1.1"
   id="svg8"
   inkscape:version="0.91 r13725"
   sodipodi:docname="lower-g.svg">
  <defs
     id="defs2" />
  <sodipodi:namedview
     id="base"
     pagecolor="#ffffff"
     bordercolor="#666666"
     borderopacity="1.0"
     inkscape:pageopacity="0.0"
     inkscape:pageshadow="2"
     inkscape:zoom="1.4"
     inkscape:cx="-72.983922"
     inkscape:cy="43.63747"
     inkscape:document-units="mm"
     inkscape:current-layer="layer1"
     showgrid="false"
     inkscape:window-width="1440"
     inkscape:window-height="800"
     inkscape:window-x="0"
     inkscape:window-y="1"
     inkscape:window-maximized="1" />
  <metadata
     id="metadata5">
    <rdf:RDF>
      <cc:Work
         rdf:about="">
        <dc:format>image/svg+xml</dc:format>
        <dc:type
           rdf:resource="http://purl.org/dc/dcmitype/StillImage" />
        <dc:title />
      </cc:Work>
    </rdf:RDF>
  </metadata>
  <g
     inkscape:label="Calque 1"
     inkscape:groupmode="layer"
     id="layer1"
     transform="translate(0,-242)">
    <g
       style="font-style:normal;font-variant:normal;font-weight:normal;font-stretch:normal;font-size:63.49999619px;line-height:125%;font-family:Graphecrit;-inkscape-font-specification:Graphecrit;letter-spacing:0px;word-spacing:0px;fill:#000000;fill-opacity:1;stroke:none;stroke-width:1px;stroke-linecap:butt;stroke-linejoin:miter;stroke-opacity:1"
       id="text6642">
      <path
         d="m 27.37052,294.35871 q 1.802694,-1.87677 1.802694,-12.17436 0,-2.49414 -0.09878,-5.48216 -1.481666,1.58044 -2.420055,3.28436 -2.395361,4.39561 -2.938639,8.22325 -0.148167,1.03716 -0.148167,1.92616 0,2.00025 0.740834,3.23498 0.790222,1.3335 2.321277,1.3335 0.395111,0 0.740834,-0.34573 z M 24.876381,273.5166 q 1.55575,0 2.691694,-1.11125 1.11125,-1.13594 1.11125,-2.69169 0,-1.58045 -1.11125,-2.69169 -1.135944,-1.11125 -2.691694,-1.11125 -1.580444,0 -2.691694,1.11125 -1.11125,1.11124 -1.11125,2.69169 0,1.55575 1.11125,2.69169 1.11125,1.11125 2.691694,1.11125 z m 10.371666,-3.38314 q 0.22225,0.17287 0.246944,0.4445 l 0,0.0741 q 0,0.22225 -0.148166,0.4198 -0.765528,0.93839 -2.963333,2.6917 -1.308806,1.06186 -2.00025,1.70391 l 0,0.37042 q 0.148166,3.87703 0.148166,6.81567 0,2.96333 -0.148166,4.98827 -0.395111,5.92667 -2.024945,7.63059 -0.740833,0.76553 -1.728611,0.76553 -2.296583,0 -3.481916,-1.97556 -0.913694,-1.55575 -0.913694,-3.90172 0,-1.11125 0.197555,-2.39536 0.617361,-4.0005 3.037417,-8.42081 1.259416,-2.32128 3.531305,-4.445 -0.0247,-0.889 -0.04939,-1.55575 l 0,-0.54328 q -1.55575,2.04964 -4.074583,2.04964 -2.123722,0 -3.630083,-1.50636 -1.531056,-1.50636 -1.531056,-3.63008 0,-2.12372 1.531056,-3.65478 1.506361,-1.50636 3.630083,-1.50636 2.518833,0 4.074583,2.07433 l 0,-1.62983 q 0,-0.27164 0.197556,-0.46919 0.197555,-0.19756 0.493888,-0.19756 0.271639,0 0.469195,0.19756 0.197555,0.19755 0.197555,0.46919 l 0,8.74183 q 0.493889,-0.4198 1.234722,-1.01247 2.074334,-1.67922 2.765778,-2.51883 0.172861,-0.19756 0.4445,-0.22225 l 0.09878,0 q 0.22225,0 0.395111,0.14816 z"
         style="font-size:49.3888855px"
         id="path21151" />
    </g>
  </g>
</svg>
