<?xml version="1.0" encoding="UTF-8" standalone="no"?>
<!-- Created with Inkscape (http://www.inkscape.org/) -->

<svg
   xmlns:dc="http://purl.org/dc/elements/1.1/"
   xmlns:cc="http://creativecommons.org/ns#"
   xmlns:rdf="http://www.w3.org/1999/02/22-rdf-syntax-ns#"
   xmlns:svg="http://www.w3.org/2000/svg"
   xmlns="http://www.w3.org/2000/svg"
   xmlns:sodipodi="http://sodipodi.sourceforge.net/DTD/sodipodi-0.dtd"
   xmlns:inkscape="http://www.inkscape.org/namespaces/inkscape"
   width="55mm"
   height="55mm"
   viewBox="0 0 55 55"
   version="1.1"
   id="svg8"
   inkscape:version="0.92.3 (2405546, 2018-03-11)"
   sodipodi:docname="lower-a.svg">
  <defs
     id="defs2" />
  <sodipodi:namedview
     id="base"
     pagecolor="#ffffff"
     bordercolor="#666666"
     borderopacity="1.0"
     inkscape:pageopacity="0.0"
     inkscape:pageshadow="2"
     inkscape:zoom="1.4"
     inkscape:cx="213.44465"
     inkscape:cy="34.720677"
     inkscape:document-units="mm"
     inkscape:current-layer="layer1"
     showgrid="false"
     inkscape:window-width="1533"
     inkscape:window-height="845"
     inkscape:window-x="67"
     inkscape:window-y="27"
     inkscape:window-maximized="1" />
  <metadata
     id="metadata5">
    <rdf:RDF>
      <cc:Work
         rdf:about="">
        <dc:format>image/svg+xml</dc:format>
        <dc:type
           rdf:resource="http://purl.org/dc/dcmitype/StillImage" />
        <dc:title></dc:title>
      </cc:Work>
    </rdf:RDF>
  </metadata>
  <g
     inkscape:label="Calque 1"
     inkscape:groupmode="layer"
     id="layer1"
     transform="translate(0,-242)">
    <g
       aria-label="a"
       style="font-style:normal;font-variant:normal;font-weight:normal;font-stretch:normal;font-size:10.58333302px;line-height:1.25;font-family:'Cursive standard';-inkscape-font-specification:'Cursive standard';letter-spacing:0px;word-spacing:0px;fill:#000000;fill-opacity:1;stroke:none;stroke-width:0.26458332"
       id="text817">
      <path
         d="m 46.594386,268.67699 q 0,0.14111 -0.141111,0.42333 -0.07055,0.21167 -0.141111,0.35278 -0.493889,0.91722 -0.987778,1.905 -0.423333,0.91722 -1.199444,2.11666 -0.846667,1.27 -1.834445,2.54 -0.987777,1.27 -2.116666,2.32834 -1.058334,0.98778 -2.187222,1.55222 -1.128889,0.635 -2.257778,0.635 -2.116667,0 -3.386667,-1.12889 -1.199445,-1.19944 -1.622778,-3.24555 -1.622778,2.04611 -4.021667,3.24555 -2.328333,1.12889 -5.009444,1.12889 -2.398889,0 -4.515556,-0.91722 -2.116667,-0.98778 -3.739444,-2.54 -1.552223,-1.62278 -2.398889,-3.73945 -0.917223,-2.18722 -0.917223,-4.58611 0,-2.39889 0.917223,-4.51555 0.846666,-2.18723 2.398889,-3.81 1.622777,-1.62278 3.739444,-2.54 2.116667,-0.98778 4.515556,-0.98778 2.54,0 4.868333,1.12889 2.328334,1.05833 3.951111,2.96333 0,-0.49389 -0.07056,-1.12889 -0.07056,-0.70555 0,-1.27 0.141111,-0.635 0.423333,-1.05833 0.352778,-0.42333 1.058334,-0.42333 0.564444,0 0.987777,0.42333 0.493889,0.35278 0.493889,0.91722 v 14.32278 q 0,0.635 0,1.55222 0,0.84667 0.211667,1.62278 0.211667,0.77611 0.705556,1.34055 0.493888,0.49389 1.411111,0.49389 1.058333,0 2.187222,-0.98777 1.199444,-1.05834 2.187222,-2.39889 1.058334,-1.41111 1.834445,-2.89278 0.846666,-1.48167 1.27,-2.32833 0.282222,-0.56445 0.635,-1.19945 0.423333,-0.635 1.199444,-0.635 0.564445,0 1.058334,0.42333 0.493888,0.35278 0.493888,0.91723 z m -16.086667,0.0706 q 0,-1.83444 -0.705555,-3.45722 -0.635,-1.62278 -1.834445,-2.89278 -1.199444,-1.27 -2.822222,-1.97555 -1.622778,-0.77611 -3.457222,-0.77611 -1.834445,0 -3.457223,0.77611 -1.552222,0.70555 -2.751666,1.97555 -1.128889,1.27 -1.834445,2.89278 -0.635,1.62278 -0.635,3.45722 0,1.76389 0.635,3.45722 0.705556,1.62278 1.834445,2.89278 1.199444,1.19945 2.751666,1.97556 1.622778,0.70555 3.457223,0.70555 1.834444,0 3.457222,-0.70555 1.622778,-0.77611 2.822222,-1.97556 1.199445,-1.27 1.834445,-2.89278 0.705555,-1.62277 0.705555,-3.45722 z"
         style="font-size:70.55555725px;stroke-width:0.26458332"
         id="path838" />
    </g>
  </g>
</svg>
