<?xml version="1.0" encoding="UTF-8" standalone="no"?>
<!-- Created with Inkscape (http://www.inkscape.org/) -->

<svg
   xmlns:dc="http://purl.org/dc/elements/1.1/"
   xmlns:cc="http://creativecommons.org/ns#"
   xmlns:rdf="http://www.w3.org/1999/02/22-rdf-syntax-ns#"
   xmlns:svg="http://www.w3.org/2000/svg"
   xmlns="http://www.w3.org/2000/svg"
   xmlns:sodipodi="http://sodipodi.sourceforge.net/DTD/sodipodi-0.dtd"
   xmlns:inkscape="http://www.inkscape.org/namespaces/inkscape"
   width="55mm"
   height="55mm"
   viewBox="0 0 55 55"
   version="1.1"
   id="svg8"
   inkscape:version="0.91 r13725"
   sodipodi:docname="lower-z.svg">
  <defs
     id="defs2" />
  <sodipodi:namedview
     id="base"
     pagecolor="#ffffff"
     bordercolor="#666666"
     borderopacity="1.0"
     inkscape:pageopacity="0.0"
     inkscape:pageshadow="2"
     inkscape:zoom="1.4"
     inkscape:cx="-72.983922"
     inkscape:cy="43.63747"
     inkscape:document-units="mm"
     inkscape:current-layer="layer1"
     showgrid="false"
     inkscape:window-width="1440"
     inkscape:window-height="800"
     inkscape:window-x="0"
     inkscape:window-y="1"
     inkscape:window-maximized="1" />
  <metadata
     id="metadata5">
    <rdf:RDF>
      <cc:Work
         rdf:about="">
        <dc:format>image/svg+xml</dc:format>
        <dc:type
           rdf:resource="http://purl.org/dc/dcmitype/StillImage" />
        <dc:title />
      </cc:Work>
    </rdf:RDF>
  </metadata>
  <g
     inkscape:label="Calque 1"
     inkscape:groupmode="layer"
     id="layer1"
     transform="translate(0,-242)">
    <g
       style="font-style:normal;font-variant:normal;font-weight:normal;font-stretch:normal;font-size:63.49999619px;line-height:125%;font-family:Graphecrit;-inkscape-font-specification:Graphecrit;letter-spacing:0px;word-spacing:0px;fill:#000000;fill-opacity:1;stroke:none;stroke-width:1px;stroke-linecap:butt;stroke-linejoin:miter;stroke-opacity:1"
       id="text6642">
      <path
         d="m 31.208738,275.71441 q -1.975555,1.87678 -3.111499,3.9758 -2.2225,4.04989 -2.518834,8.001 -0.04939,0.59267 -0.04939,1.13595 0,2.69169 1.012473,4.39561 0.716138,1.18533 1.531055,1.18533 0.4445,0 0.913694,-0.49389 0.345723,-0.39511 0.66675,-1.03716 1.382889,-2.81517 1.802695,-8.4702 0.148166,-1.95086 0.148166,-3.65477 0,-2.83987 -0.395111,-5.03767 z m -3.136194,20.05189 q -1.580444,0 -2.691694,-1.85209 -1.185333,-2.02494 -1.185333,-5.06236 0,-0.54328 0.02469,-1.11125 0.271639,-4.27214 2.691694,-8.69244 1.358195,-2.49414 3.901722,-4.81542 -0.123472,-0.37041 -0.296333,-0.56797 -0.22225,-0.29633 -0.518583,-0.29633 l -0.07408,0 q -0.345722,0.0247 -1.086555,0.49389 -0.642056,0.39511 -1.012472,0.39511 -0.09878,0 -0.172861,-0.0247 -0.345723,-0.0988 -0.493889,-0.4445 -0.172861,-0.39511 -0.172861,-0.93839 0,-0.66675 0.246944,-1.58044 0.321028,-1.18533 1.382889,-3.72886 l 0.09878,-0.24695 0.123472,-0.27163 0.22225,-0.51859 q 0.246944,-0.61736 0.345722,-0.96308 l -0.716139,0.0741 -0.617361,0.0741 q -0.370417,0.0494 -0.66675,0.0494 l -0.246944,0 q -0.567972,0 -1.037167,-0.0988 -0.296333,1.45697 -1.432278,3.21027 -0.370416,0.59267 -0.814916,1.16064 -0.148167,0.19756 -0.296333,0.39511 -0.04939,0.0741 -0.09878,0.12348 -0.04939,0.0494 -0.07408,0.0988 -0.197555,0.19756 -0.469194,0.22225 l -0.04939,0 q -0.246944,0 -0.4445,-0.17286 -0.197555,-0.17286 -0.22225,-0.4445 l 0,-0.0741 q 0,-0.22225 0.148167,-0.41981 0.889,-1.03716 1.580444,-2.2225 0.790222,-1.43227 0.913695,-2.46944 -0.592667,-0.4445 -0.839612,-1.01247 -0.123472,-0.32103 -0.123472,-0.59267 0,-0.14817 0.02469,-0.27164 0.172861,-0.66675 0.814916,-0.71614 0.148167,0 0.271639,0.0247 0.172861,0.0494 0.321028,0.14816 0.419805,0.27164 0.691444,0.96309 0.123473,0.32103 0.172861,0.66675 0.345723,0.12347 0.987778,0.12347 0.567972,0 1.358195,-0.0988 0.987777,-0.12347 1.481666,-0.12347 0.4445,0 0.691444,0.37042 0.148167,0.22225 0.148167,0.54327 0,0.27164 -0.09878,0.61737 -0.148166,0.59266 -0.889,2.37066 l -0.123472,0.24695 -0.09878,0.27163 q -0.148166,0.32103 -0.246944,0.59267 -0.271639,0.66675 -0.469194,1.21003 -0.518584,1.43228 -0.592667,2.2225 0.370417,-0.22225 0.66675,-0.37042 0.4445,-0.17286 0.839611,-0.22225 l 0.197556,0 q 0.913694,0 1.555749,0.83961 0.148167,0.19756 0.271639,0.4692 0.4445,-0.37042 1.135945,-0.9137 2.074333,-1.67922 2.741083,-2.51883 0.197555,-0.22225 0.469194,-0.24694 l 0.07408,0 q 0.22225,0 0.419805,0.14816 0.197556,0.17286 0.246944,0.4692 l 0,0.0741 q 0,0.22225 -0.148166,0.41981 -0.790222,0.93838 -2.963333,2.69169 -0.938389,0.74083 -1.481667,1.23472 0.617361,2.37067 0.617361,5.87728 0,1.70392 -0.148166,3.67947 -0.469195,6.17361 -1.975556,9.23572 -1.135944,2.29659 -2.790472,2.29659 z"
         style="font-size:49.3888855px"
         id="path8562" />
    </g>
  </g>
</svg>
