<?xml version="1.0" encoding="UTF-8" standalone="no"?>
<!-- Created with Inkscape (http://www.inkscape.org/) -->

<svg
   xmlns:dc="http://purl.org/dc/elements/1.1/"
   xmlns:cc="http://creativecommons.org/ns#"
   xmlns:rdf="http://www.w3.org/1999/02/22-rdf-syntax-ns#"
   xmlns:svg="http://www.w3.org/2000/svg"
   xmlns="http://www.w3.org/2000/svg"
   xmlns:sodipodi="http://sodipodi.sourceforge.net/DTD/sodipodi-0.dtd"
   xmlns:inkscape="http://www.inkscape.org/namespaces/inkscape"
   width="55mm"
   height="55mm"
   viewBox="0 0 55 55"
   version="1.1"
   id="svg8"
   inkscape:version="0.91 r13725"
   sodipodi:docname="lower-i.svg">
  <defs
     id="defs2" />
  <sodipodi:namedview
     id="base"
     pagecolor="#ffffff"
     bordercolor="#666666"
     borderopacity="1.0"
     inkscape:pageopacity="0.0"
     inkscape:pageshadow="2"
     inkscape:zoom="1.4"
     inkscape:cx="-72.983922"
     inkscape:cy="43.63747"
     inkscape:document-units="mm"
     inkscape:current-layer="layer1"
     showgrid="false"
     inkscape:window-width="1440"
     inkscape:window-height="800"
     inkscape:window-x="0"
     inkscape:window-y="1"
     inkscape:window-maximized="1" />
  <metadata
     id="metadata5">
    <rdf:RDF>
      <cc:Work
         rdf:about="">
        <dc:format>image/svg+xml</dc:format>
        <dc:type
           rdf:resource="http://purl.org/dc/dcmitype/StillImage" />
        <dc:title />
      </cc:Work>
    </rdf:RDF>
  </metadata>
  <g
     inkscape:label="Calque 1"
     inkscape:groupmode="layer"
     id="layer1"
     transform="translate(0,-242)">
    <g
       style="font-style:normal;font-variant:normal;font-weight:normal;font-stretch:normal;font-size:63.49999619px;line-height:125%;font-family:Graphecrit;-inkscape-font-specification:Graphecrit;letter-spacing:0px;word-spacing:0px;fill:#000000;fill-opacity:1;stroke:none;stroke-width:1px;stroke-linecap:butt;stroke-linejoin:miter;stroke-opacity:1"
       id="text6642">
      <path
         d="m 29.000347,274.65255 q -0.543278,0.17286 -0.987778,0.17286 -0.543277,0 -0.963083,-0.27164 -0.740833,-0.46919 -0.814916,-1.67922 -0.07408,-1.06186 -0.07408,-3.97581 -0.567972,1.13595 -1.308805,1.95086 -0.197556,0.19756 -0.469195,0.19756 -0.271639,0 -0.4445,-0.22225 -0.197555,-0.17286 -0.197555,-0.4692 0,-0.27163 0.296333,-0.61736 0.839611,-0.98777 1.728611,-3.40783 0.296333,-1.06186 0.493889,-1.62983 0.172861,-0.4445 0.567972,-0.4445 0.07408,0 0.172861,0.0247 0.567972,0.12347 0.567972,0.66675 l -0.04939,0.27164 0,0.69145 q 0,0.54327 -0.0247,1.03716 l 0,1.21003 q -0.02469,1.16064 -0.02469,2.02494 0,1.8027 0.09878,2.59292 0.02469,0.32103 0.09878,0.49389 0.02469,0.0741 0.07408,0.12347 l 0.04939,0.0494 q 0.07408,0.0494 0.22225,0.0494 0.197556,0 0.543278,-0.12347 0.913695,-0.29634 2.148417,-1.23473 1.259416,-0.96308 1.975555,-1.97555 0.148167,-0.22225 0.419806,-0.27164 l 0.123472,0 q 0.197555,0 0.370416,0.12347 0.22225,0.14817 0.271639,0.41981 l 0,0.12347 q 0,0.19756 -0.123472,0.37042 -0.814916,1.18533 -2.271889,2.29658 -1.382888,1.06186 -2.469444,1.43228 z m -0.987778,-12.76703 q 0,0.39511 -0.246944,0.69145 -0.296333,0.24694 -0.691444,0.24694 -0.395111,0 -0.691445,-0.24694 -0.246944,-0.29634 -0.246944,-0.69145 0,-0.39511 0.246944,-0.69144 0.296334,-0.24695 0.691445,-0.24695 0.395111,0 0.691444,0.24695 0.246944,0.29633 0.246944,0.69144 z"
         style="font-size:49.3888855px"
         id="path18793" />
    </g>
  </g>
</svg>
