<?xml version="1.0" encoding="UTF-8" standalone="no"?>
<!-- Created with Inkscape (http://www.inkscape.org/) -->

<svg
   xmlns:dc="http://purl.org/dc/elements/1.1/"
   xmlns:cc="http://creativecommons.org/ns#"
   xmlns:rdf="http://www.w3.org/1999/02/22-rdf-syntax-ns#"
   xmlns:svg="http://www.w3.org/2000/svg"
   xmlns="http://www.w3.org/2000/svg"
   xmlns:sodipodi="http://sodipodi.sourceforge.net/DTD/sodipodi-0.dtd"
   xmlns:inkscape="http://www.inkscape.org/namespaces/inkscape"
   width="55mm"
   height="55mm"
   viewBox="0 0 55 55"
   version="1.1"
   id="svg8"
   inkscape:version="0.91 r13725"
   sodipodi:docname="lower-e.svg">
  <defs
     id="defs2" />
  <sodipodi:namedview
     id="base"
     pagecolor="#ffffff"
     bordercolor="#666666"
     borderopacity="1.0"
     inkscape:pageopacity="0.0"
     inkscape:pageshadow="2"
     inkscape:zoom="1.4"
     inkscape:cx="-72.983922"
     inkscape:cy="43.63747"
     inkscape:document-units="mm"
     inkscape:current-layer="layer1"
     showgrid="false"
     inkscape:window-width="1440"
     inkscape:window-height="800"
     inkscape:window-x="0"
     inkscape:window-y="1"
     inkscape:window-maximized="1" />
  <metadata
     id="metadata5">
    <rdf:RDF>
      <cc:Work
         rdf:about="">
        <dc:format>image/svg+xml</dc:format>
        <dc:type
           rdf:resource="http://purl.org/dc/dcmitype/StillImage" />
        <dc:title />
      </cc:Work>
    </rdf:RDF>
  </metadata>
  <g
     inkscape:label="Calque 1"
     inkscape:groupmode="layer"
     id="layer1"
     transform="translate(0,-242)">
    <g
       style="font-style:normal;font-variant:normal;font-weight:normal;font-stretch:normal;font-size:63.49999619px;line-height:125%;font-family:Graphecrit;-inkscape-font-specification:Graphecrit;letter-spacing:0px;word-spacing:0px;fill:#000000;fill-opacity:1;stroke:none;stroke-width:1px;stroke-linecap:butt;stroke-linejoin:miter;stroke-opacity:1"
       id="text6642">
      <path
         d="m 26.559126,265.68847 q -0.09878,0 -0.22225,0.0247 -0.172861,0.0494 -0.395111,0.12347 -1.284111,0.41981 -1.802694,1.58045 -0.321028,0.71613 -0.321028,1.53105 0,0.32103 0.04939,0.64206 l 0.02469,0.14816 0.02469,-0.0247 q 1.259416,-1.3582 2.000249,-2.56822 0.617361,-0.98778 0.642056,-1.45697 z m 1.382889,9.13694 q -3.012722,-0.12347 -4.593167,-2.667 -0.617361,0.54328 -1.086555,0.91369 -0.22225,0.14817 -0.4445,0.14817 l -0.07408,0 q -0.296334,-0.0247 -0.469195,-0.24694 -0.148167,-0.19756 -0.148167,-0.4445 l 0,-0.0741 q 0.04939,-0.29633 0.271639,-0.46919 0.592667,-0.4692 1.3335,-1.13595 -0.172861,-0.51858 -0.246944,-1.06186 -0.07408,-0.4445 -0.07408,-0.889 0,-1.3088 0.642055,-2.39536 0.814917,-1.43228 2.44475,-1.97555 0.642055,-0.22225 1.135944,-0.22225 0.740834,0 1.11125,0.54327 0.197556,0.32103 0.197556,0.76553 0,0.9137 -0.889,2.34597 -0.469195,0.74084 -1.160639,1.58045 l -0.543278,0.64205 q -0.22225,0.24695 -0.419805,0.4692 -0.197556,0.22225 -0.518584,0.54328 1.185334,2.14841 3.580695,2.24719 l 0.07408,0 q 1.210028,0 2.592916,-0.86431 1.432278,-0.91369 2.790472,-2.54352 0.172862,-0.22225 0.469195,-0.24695 l 0.07408,0 q 0.246945,0 0.4445,0.14817 0.22225,0.19755 0.246945,0.46919 l 0,0.0741 q 0,0.24694 -0.172862,0.4445 -1.531055,1.87677 -3.210277,2.88925 -1.654528,1.01247 -3.185583,1.01247 l -0.172861,0 z"
         style="font-size:49.3888855px"
         id="path22876" />
    </g>
  </g>
</svg>
