<?xml version="1.0" encoding="UTF-8" standalone="no"?>
<!-- Created with Inkscape (http://www.inkscape.org/) -->

<svg
   xmlns:dc="http://purl.org/dc/elements/1.1/"
   xmlns:cc="http://creativecommons.org/ns#"
   xmlns:rdf="http://www.w3.org/1999/02/22-rdf-syntax-ns#"
   xmlns:svg="http://www.w3.org/2000/svg"
   xmlns="http://www.w3.org/2000/svg"
   xmlns:sodipodi="http://sodipodi.sourceforge.net/DTD/sodipodi-0.dtd"
   xmlns:inkscape="http://www.inkscape.org/namespaces/inkscape"
   width="55mm"
   height="55mm"
   viewBox="0 0 55 55"
   version="1.1"
   id="svg8"
   inkscape:version="0.91 r13725"
   sodipodi:docname="lower-f.svg">
  <defs
     id="defs2" />
  <sodipodi:namedview
     id="base"
     pagecolor="#ffffff"
     bordercolor="#666666"
     borderopacity="1.0"
     inkscape:pageopacity="0.0"
     inkscape:pageshadow="2"
     inkscape:zoom="1.4"
     inkscape:cx="-72.983922"
     inkscape:cy="43.63747"
     inkscape:document-units="mm"
     inkscape:current-layer="layer1"
     showgrid="false"
     inkscape:window-width="1440"
     inkscape:window-height="800"
     inkscape:window-x="0"
     inkscape:window-y="1"
     inkscape:window-maximized="1" />
  <metadata
     id="metadata5">
    <rdf:RDF>
      <cc:Work
         rdf:about="">
        <dc:format>image/svg+xml</dc:format>
        <dc:type
           rdf:resource="http://purl.org/dc/dcmitype/StillImage" />
        <dc:title />
      </cc:Work>
    </rdf:RDF>
  </metadata>
  <g
     inkscape:label="Calque 1"
     inkscape:groupmode="layer"
     id="layer1"
     transform="translate(0,-242)">
    <g
       style="font-style:normal;font-variant:normal;font-weight:normal;font-stretch:normal;font-size:63.49999619px;line-height:125%;font-family:Graphecrit;-inkscape-font-specification:Graphecrit;letter-spacing:0px;word-spacing:0px;fill:#000000;fill-opacity:1;stroke:none;stroke-width:1px;stroke-linecap:butt;stroke-linejoin:miter;stroke-opacity:1"
       id="text6642">
      <path
         d="m 29.257877,294.13646 q 1.135945,-0.93839 1.580445,-3.16089 0.197555,-1.06186 0.197555,-2.2225 0,-1.62983 -0.395111,-3.48191 -1.382889,-6.2477 -3.753555,-10.2482 -0.370417,0.0741 -0.740833,0.0741 -0.197556,0 -0.419806,-0.0247 0.04939,9.45797 0.321028,14.52034 0.09878,2.09902 0.66675,3.43252 0.493889,1.11125 1.160639,1.40759 0.22225,0.0988 0.4445,0.0988 0.172861,0 0.321027,-0.0494 0.321028,-0.0988 0.617361,-0.34573 z m -3.136194,-41.36319 q -0.271639,4.93889 -0.370417,11.90272 2.913945,-5.25991 3.77825,-10.2235 0.345722,-2.09902 0.345722,-3.95111 0,-1.13594 -0.123472,-2.1978 -0.296333,-2.39536 -1.037166,-3.16089 -0.123473,-0.14817 -0.22225,-0.14817 -0.296334,0.0494 -0.567973,0.29634 -0.370416,0.34572 -0.691444,1.06186 -0.839611,1.97555 -1.11125,6.42055 z m 5.827889,32.22625 q 0.4445,2.02494 0.4445,3.77825 0,1.50636 -0.321028,2.83986 -0.592667,2.42006 -1.975556,3.556 -0.839611,0.69144 -1.777999,0.69144 -0.518584,0 -0.987778,-0.22225 -2.395361,-1.03716 -2.642306,-6.00075 -0.271638,-5.28461 -0.321027,-14.98952 -0.567972,-0.32103 -0.839611,-0.76553 -0.271639,-0.41981 -0.271639,-0.79022 0,-0.37042 0.296333,-0.71614 0.370417,-0.41981 0.814917,-0.59267 l 0,-2.46944 q -0.938389,1.25941 -1.358195,1.7533 -0.197555,0.22225 -0.469194,0.22225 l -0.04939,0 q -0.246944,0 -0.419805,-0.17286 -0.22225,-0.19755 -0.22225,-0.46919 0,-0.27164 0.172861,-0.4692 0.938388,-1.06186 2.370666,-3.23497 0.04939,-8.51958 0.395111,-14.24869 0.246945,-4.445 1.11125,-6.64281 0.864306,-2.1978 2.44475,-2.39536 l 0.123472,0 q 0.246945,0 0.493889,0.0741 0.395111,0.12347 0.740833,0.49388 1.086556,1.13595 1.407584,4.09928 0.123472,1.03717 0.123472,2.12372 0,2.02495 -0.395111,4.22275 -1.086556,6.29709 -5.11175,12.66825 -0.02469,2.2472 -0.02469,4.49439 0.814916,0.37042 1.728611,1.58045 2.222499,-1.08656 3.531305,-2.93864 0.148167,-0.22225 0.419805,-0.27164 0.07408,-0.0247 0.123473,-0.0247 0.197555,0 0.370416,0.12348 0.246945,0.17286 0.296334,0.4445 l 0,0.0741 q 0,0.22225 -0.123473,0.4198 -1.407583,2.02495 -3.877027,3.30906 1.185333,2.07433 2.321277,5.35869 0.938389,2.6917 1.456973,5.08706 z"
         style="font-size:49.3888855px"
         id="path21742" />
    </g>
  </g>
</svg>
