<?xml version="1.0" encoding="UTF-8" standalone="no"?>
<!-- Created with Inkscape (http://www.inkscape.org/) -->

<svg
   xmlns:dc="http://purl.org/dc/elements/1.1/"
   xmlns:cc="http://creativecommons.org/ns#"
   xmlns:rdf="http://www.w3.org/1999/02/22-rdf-syntax-ns#"
   xmlns:svg="http://www.w3.org/2000/svg"
   xmlns="http://www.w3.org/2000/svg"
   xmlns:sodipodi="http://sodipodi.sourceforge.net/DTD/sodipodi-0.dtd"
   xmlns:inkscape="http://www.inkscape.org/namespaces/inkscape"
   width="55mm"
   height="55mm"
   viewBox="0 0 55 55"
   version="1.1"
   id="svg8"
   inkscape:version="0.91 r13725"
   sodipodi:docname="lower-d.svg">
  <defs
     id="defs2" />
  <sodipodi:namedview
     id="base"
     pagecolor="#ffffff"
     bordercolor="#666666"
     borderopacity="1.0"
     inkscape:pageopacity="0.0"
     inkscape:pageshadow="2"
     inkscape:zoom="1.4"
     inkscape:cx="-72.983922"
     inkscape:cy="43.63747"
     inkscape:document-units="mm"
     inkscape:current-layer="layer1"
     showgrid="false"
     inkscape:window-width="1440"
     inkscape:window-height="800"
     inkscape:window-x="0"
     inkscape:window-y="1"
     inkscape:window-maximized="1" />
  <metadata
     id="metadata5">
    <rdf:RDF>
      <cc:Work
         rdf:about="">
        <dc:format>image/svg+xml</dc:format>
        <dc:type
           rdf:resource="http://purl.org/dc/dcmitype/StillImage" />
        <dc:title />
      </cc:Work>
    </rdf:RDF>
  </metadata>
  <g
     inkscape:label="Calque 1"
     inkscape:groupmode="layer"
     id="layer1"
     transform="translate(0,-242)">
    <g
       style="font-style:normal;font-variant:normal;font-weight:normal;font-stretch:normal;font-size:63.49999619px;line-height:125%;font-family:Graphecrit;-inkscape-font-specification:Graphecrit;letter-spacing:0px;word-spacing:0px;fill:#000000;fill-opacity:1;stroke:none;stroke-width:1px;stroke-linecap:butt;stroke-linejoin:miter;stroke-opacity:1"
       id="text6642">
      <path
         d="m 25.955879,273.39313 q 1.531056,0 2.642306,-1.11125 1.11125,-1.08655 1.11125,-2.667 0,-1.55575 -1.11125,-2.667 -1.11125,-1.11125 -2.642306,-1.11125 -1.55575,0 -2.667,1.11125 -1.11125,1.11125 -1.11125,2.667 0,1.55575 1.11125,2.667 1.11125,1.11125 2.667,1.11125 z m 10.989027,-3.28436 q 0.22225,0.17286 0.271639,0.4445 l 0,0.0741 q 0,0.22225 -0.09878,0.41981 -1.876777,2.667 -4.691944,3.63008 -0.419805,0.14817 -0.790222,0.14817 -0.493889,0 -0.913694,-0.24695 -0.814917,-0.49388 -1.012472,-1.55575 -1.506361,1.70392 -3.753556,1.70392 -2.123722,0 -3.605388,-1.50636 -1.506361,-1.50636 -1.506361,-3.60539 0,-2.09903 1.506361,-3.60539 1.481666,-1.50636 3.605388,-1.50636 2.247195,0 3.753556,1.70392 l 0,-11.77925 q 0,-0.27164 0.197555,-0.4692 0.197556,-0.19755 0.469194,-0.19755 0.271639,0 0.469195,0.19755 0.197555,0.19756 0.197555,0.4692 l 0,18.44675 q 0.345723,0.54328 0.370417,0.56797 0.07408,0.0494 0.22225,0.0494 0.148167,0 0.370417,-0.0741 2.370666,-0.81492 4.000499,-3.1362 0.172862,-0.22225 0.4445,-0.27164 0.04939,-0.0247 0.148167,-0.0247 0.148167,0 0.345722,0.12347 z"
         style="font-size:49.3888855px"
         id="path23463" />
    </g>
  </g>
</svg>
