<?xml version="1.0" encoding="UTF-8" standalone="no"?>
<!-- Created with Inkscape (http://www.inkscape.org/) -->

<svg
   xmlns:dc="http://purl.org/dc/elements/1.1/"
   xmlns:cc="http://creativecommons.org/ns#"
   xmlns:rdf="http://www.w3.org/1999/02/22-rdf-syntax-ns#"
   xmlns:svg="http://www.w3.org/2000/svg"
   xmlns="http://www.w3.org/2000/svg"
   xmlns:sodipodi="http://sodipodi.sourceforge.net/DTD/sodipodi-0.dtd"
   xmlns:inkscape="http://www.inkscape.org/namespaces/inkscape"
   width="55mm"
   height="55mm"
   viewBox="0 0 55 55"
   version="1.1"
   id="svg8"
   inkscape:version="0.91 r13725"
   sodipodi:docname="lower-p.svg">
  <defs
     id="defs2" />
  <sodipodi:namedview
     id="base"
     pagecolor="#ffffff"
     bordercolor="#666666"
     borderopacity="1.0"
     inkscape:pageopacity="0.0"
     inkscape:pageshadow="2"
     inkscape:zoom="1.4"
     inkscape:cx="-72.983922"
     inkscape:cy="43.63747"
     inkscape:document-units="mm"
     inkscape:current-layer="layer1"
     showgrid="false"
     inkscape:window-width="1440"
     inkscape:window-height="800"
     inkscape:window-x="0"
     inkscape:window-y="1"
     inkscape:window-maximized="1" />
  <metadata
     id="metadata5">
    <rdf:RDF>
      <cc:Work
         rdf:about="">
        <dc:format>image/svg+xml</dc:format>
        <dc:type
           rdf:resource="http://purl.org/dc/dcmitype/StillImage" />
        <dc:title />
      </cc:Work>
    </rdf:RDF>
  </metadata>
  <g
     inkscape:label="Calque 1"
     inkscape:groupmode="layer"
     id="layer1"
     transform="translate(0,-242)">
    <g
       style="font-style:normal;font-variant:normal;font-weight:normal;font-stretch:normal;font-size:63.49999619px;line-height:125%;font-family:Graphecrit;-inkscape-font-specification:Graphecrit;letter-spacing:0px;word-spacing:0px;fill:#000000;fill-opacity:1;stroke:none;stroke-width:1px;stroke-linecap:butt;stroke-linejoin:miter;stroke-opacity:1"
       id="text6642">
      <path
         d="m 37.826849,270.05938 q 0.22225,0.14817 0.271639,0.41981 0.02469,0.0741 0.02469,0.12347 0,0.19755 -0.123472,0.37042 -0.814917,1.16063 -2.247194,2.24719 -1.358195,1.03717 -2.420056,1.40758 -0.419805,0.14817 -0.790222,0.14817 -0.518583,0 -0.938389,-0.24694 -0.518583,-0.32103 -0.790222,-0.93839 -0.09878,-0.22225 -0.148166,-0.41981 -0.0247,-0.0988 -0.04939,-0.14817 l 0,-0.0988 q 0,-0.0247 -0.02469,-1.21003 -0.02469,-0.56797 -0.02469,-0.9137 -0.0247,-0.49388 -0.0247,-0.74083 -0.02469,-0.24694 -0.02469,-0.76553 0,-1.70391 -0.493889,-2.44475 -0.790222,-1.18533 -1.654528,-1.23472 l -0.04939,0 q -0.642056,0 -1.358195,0.51859 -0.296333,0.22225 -0.592666,0.51858 -0.22225,0.22225 -0.4445,0.49389 -0.07408,0.0988 -0.22225,0.17286 l 0.02469,27.95411 q 0,0.27164 -0.197556,0.4445 -0.172861,0.19755 -0.444499,0.19755 -0.271639,0 -0.469195,-0.19755 -0.197555,-0.17286 -0.197555,-0.4445 l -0.0247,-26.52183 q -0.617361,1.3088 -1.308805,2.07433 -0.197556,0.17286 -0.469195,0.17286 -0.271639,0 -0.469194,-0.19756 -0.172861,-0.19755 -0.172861,-0.46919 0,-0.27164 0.321027,-0.69144 0.321028,-0.41981 0.716139,-1.11125 0.395111,-0.71614 0.592667,-1.30881 l 0.197556,-0.54328 0.172861,-0.54327 0.22225,-0.66675 0.246944,-0.66675 q 0.148167,-0.41981 0.592667,-0.41981 l 0.123472,0 q 0.543278,0.0988 0.543278,0.64206 l 0,0.4445 q 1.3335,-1.18534 2.617611,-1.18534 l 0.09878,0 q 1.531056,0.0988 2.691695,1.8027 0.493888,0.74083 0.66675,1.65452 0.04939,0.34573 0.07408,0.79023 l 0,0.76552 q 0,0.4692 0.02469,0.71614 0.02469,0.69145 0.04939,2.81517 l 0.0247,0.0247 0.02469,0.0494 q 0.02469,0.0988 0.04939,0.17286 0.123472,0.22225 0.271639,0.29634 0.09878,0.0494 0.246944,0.0494 0.172861,0 0.370417,-0.0494 0.864305,-0.29634 2.049639,-1.21003 1.259416,-0.98778 1.950861,-1.95086 0.148166,-0.22225 0.419805,-0.27164 l 0.123472,0 q 0.197556,0 0.370417,0.12347 z"
         style="font-size:49.3888855px"
         id="path14082" />
    </g>
  </g>
</svg>
