<?xml version="1.0" encoding="UTF-8" standalone="no"?>
<!-- Created with Inkscape (http://www.inkscape.org/) -->

<svg
   xmlns:dc="http://purl.org/dc/elements/1.1/"
   xmlns:cc="http://creativecommons.org/ns#"
   xmlns:rdf="http://www.w3.org/1999/02/22-rdf-syntax-ns#"
   xmlns:svg="http://www.w3.org/2000/svg"
   xmlns="http://www.w3.org/2000/svg"
   xmlns:sodipodi="http://sodipodi.sourceforge.net/DTD/sodipodi-0.dtd"
   xmlns:inkscape="http://www.inkscape.org/namespaces/inkscape"
   width="55mm"
   height="55mm"
   viewBox="0 0 55 55"
   version="1.1"
   id="svg8"
   inkscape:version="0.91 r13725"
   sodipodi:docname="lower-b.svg">
  <defs
     id="defs2" />
  <sodipodi:namedview
     id="base"
     pagecolor="#ffffff"
     bordercolor="#666666"
     borderopacity="1.0"
     inkscape:pageopacity="0.0"
     inkscape:pageshadow="2"
     inkscape:zoom="1.4"
     inkscape:cx="-72.983922"
     inkscape:cy="43.63747"
     inkscape:document-units="mm"
     inkscape:current-layer="layer1"
     showgrid="false"
     inkscape:window-width="1440"
     inkscape:window-height="800"
     inkscape:window-x="0"
     inkscape:window-y="1"
     inkscape:window-maximized="1" />
  <metadata
     id="metadata5">
    <rdf:RDF>
      <cc:Work
         rdf:about="">
        <dc:format>image/svg+xml</dc:format>
        <dc:type
           rdf:resource="http://purl.org/dc/dcmitype/StillImage" />
        <dc:title></dc:title>
      </cc:Work>
    </rdf:RDF>
  </metadata>
  <g
     inkscape:label="Calque 1"
     inkscape:groupmode="layer"
     id="layer1"
     transform="translate(0,-242)">
    <g
       style="font-style:normal;font-variant:normal;font-weight:normal;font-stretch:normal;font-size:63.49999619px;line-height:125%;font-family:Graphecrit;-inkscape-font-specification:Graphecrit;letter-spacing:0px;word-spacing:0px;fill:#000000;fill-opacity:1;stroke:none;stroke-width:1px;stroke-linecap:butt;stroke-linejoin:miter;stroke-opacity:1"
       id="text6642">
      <path
         d="m 26.054657,274.82541 q 0.66675,0 1.481667,-0.29633 1.926166,-0.86431 2.741083,-2.96334 0.765527,-1.95086 0.765527,-3.90172 l 0,-0.24694 q 0.543278,0.12347 1.11125,0.12347 1.629834,0 3.383139,-1.11125 0.22225,-0.17286 0.271639,-0.4445 l 0,-0.0741 q 0,-0.19756 -0.123472,-0.41981 -0.148167,-0.22225 -0.419806,-0.27164 l -0.09878,0 q -0.197555,0 -0.395111,0.12347 -1.210027,0.81492 -2.2225,0.86431 l -0.321027,0 q -0.790222,0 -1.284111,-0.19756 -0.04939,-0.17286 -0.07408,-0.34572 -0.197555,-0.71614 -0.469194,-1.06186 -0.246945,-0.34572 -0.518583,-0.41981 -0.22225,-0.0741 -0.395111,-0.0741 l -0.07408,0 q -0.592666,0.0988 -0.839611,0.37042 -0.22225,0.27164 -0.246944,0.46919 -0.0247,0.12347 -0.0247,0.24695 0,0.76552 0.987778,1.48166 0.22225,0.14817 0.4445,0.27164 0.02469,0.27164 0.02469,0.59267 0,0.83961 -0.197555,1.90147 -0.148167,0.93839 -0.716139,2.12372 -0.543278,1.16064 -1.778,1.70392 -0.543278,0.22225 -1.012472,0.22225 -0.617361,0 -1.086555,-0.37042 -1.259417,-1.01247 -1.802695,-4.29683 1.284111,-2.49414 2.617611,-6.09953 1.3335,-3.63008 2.148417,-7.48241 0.419805,-2.17312 0.419805,-4.27214 0,-1.30881 -0.296333,-3.5807 -0.271639,-2.29658 -1.531056,-3.50661 -0.4445,-0.37041 -0.938388,-0.37041 -0.246945,0 -0.518584,0.0988 -0.197555,0.0494 -0.543277,0.34573 -0.345723,0.29633 -0.790223,1.18533 -0.419805,0.889 -0.839611,2.71639 -0.419805,1.80269 -0.790222,4.8648 -0.617361,4.8895 -0.617361,9.38389 0,3.35845 0.345722,6.46994 -0.469194,0.889 -0.864305,1.48167 -0.123472,0.22225 -0.123472,0.41981 0,0.0494 0.02469,0.19755 0.02469,0.14817 0.271639,0.32103 0.172861,0.0988 0.345722,0.0988 0.07408,0 0.22225,-0.0247 0.172861,-0.0247 0.321028,-0.24694 0.09878,-0.14817 0.172861,-0.27164 0.642055,2.49414 1.975555,3.60539 0.617361,0.59267 1.876778,0.66675 z m -0.469194,-29.97905 0.07408,0.0494 q 0.07408,0.0494 0.197555,0.19756 0.716139,1.01247 1.061861,3.72886 0.123473,0.96308 0.123473,2.04964 0,1.90147 -0.395111,4.09928 -1.432278,6.42055 -3.753556,11.40883 -0.123472,-1.58044 -0.123472,-3.43253 0,-4.27214 0.642056,-10.07533 0.148166,-1.40758 0.321027,-2.51883 0.197556,-1.11125 0.370417,-1.92617 0.172861,-0.83961 0.345722,-1.43228 0.197556,-0.59266 0.345722,-0.98778 0.172862,-0.39511 0.296334,-0.61736 0.148166,-0.24694 0.246944,-0.34572 0.123472,-0.12347 0.172861,-0.14817 0.04939,-0.0494 0.07408,-0.0494 z"
         style="font-size:49.3888855px"
         id="path9067" />
    </g>
  </g>
</svg>
