<?xml version="1.0" encoding="UTF-8" standalone="no"?>
<!-- Created with Inkscape (http://www.inkscape.org/) -->

<svg
   xmlns:dc="http://purl.org/dc/elements/1.1/"
   xmlns:cc="http://creativecommons.org/ns#"
   xmlns:rdf="http://www.w3.org/1999/02/22-rdf-syntax-ns#"
   xmlns:svg="http://www.w3.org/2000/svg"
   xmlns="http://www.w3.org/2000/svg"
   xmlns:sodipodi="http://sodipodi.sourceforge.net/DTD/sodipodi-0.dtd"
   xmlns:inkscape="http://www.inkscape.org/namespaces/inkscape"
   width="55mm"
   height="55mm"
   viewBox="0 0 55 55"
   version="1.1"
   id="svg8"
   inkscape:version="0.91 r13725"
   sodipodi:docname="lower-v.svg">
  <defs
     id="defs2" />
  <sodipodi:namedview
     id="base"
     pagecolor="#ffffff"
     bordercolor="#666666"
     borderopacity="1.0"
     inkscape:pageopacity="0.0"
     inkscape:pageshadow="2"
     inkscape:zoom="1.4"
     inkscape:cx="-72.983922"
     inkscape:cy="43.63747"
     inkscape:document-units="mm"
     inkscape:current-layer="layer1"
     showgrid="false"
     inkscape:window-width="1440"
     inkscape:window-height="800"
     inkscape:window-x="0"
     inkscape:window-y="1"
     inkscape:window-maximized="1" />
  <metadata
     id="metadata5">
    <rdf:RDF>
      <cc:Work
         rdf:about="">
        <dc:format>image/svg+xml</dc:format>
        <dc:type
           rdf:resource="http://purl.org/dc/dcmitype/StillImage" />
        <dc:title />
      </cc:Work>
    </rdf:RDF>
  </metadata>
  <g
     inkscape:label="Calque 1"
     inkscape:groupmode="layer"
     id="layer1"
     transform="translate(0,-242)">
    <g
       style="font-style:normal;font-variant:normal;font-weight:normal;font-stretch:normal;font-size:63.49999619px;line-height:125%;font-family:Graphecrit;-inkscape-font-specification:Graphecrit;letter-spacing:0px;word-spacing:0px;fill:#000000;fill-opacity:1;stroke:none;stroke-width:1px;stroke-linecap:butt;stroke-linejoin:miter;stroke-opacity:1"
       id="text6642">
      <path
         d="m 26.936605,274.82541 q -0.790222,0 -1.456972,-0.41981 -2.2225,-1.38289 -2.543527,-7.50711 -0.02469,-0.22225 -0.02469,-0.93839 0,-0.32102 -0.09878,-0.34572 l -0.07408,0 q -0.172861,0 -0.395111,0.12347 -0.395111,0.19756 -0.66675,0.64206 -0.345722,0.46919 -1.11125,2.04964 -0.913694,1.85208 -1.382889,2.46944 -0.148166,0.19756 -0.419805,0.24695 l -0.07408,0 q -0.22225,0 -0.395112,-0.12348 -0.222249,-0.17286 -0.271638,-0.4445 l 0,-0.0741 q 0,-0.19755 0.123472,-0.39511 0.395111,-0.49389 1.259416,-2.27189 0.790223,-1.60514 1.185334,-2.1978 0.493889,-0.74084 1.234722,-1.11125 0.4445,-0.22225 0.889,-0.22225 0.246944,0 0.469194,0.0741 0.493889,0.14817 0.765528,0.56797 0.271639,0.41981 0.271639,1.01247 0,0.64206 0.02469,0.86431 0.271639,5.45747 1.926167,6.49464 0.345722,0.19755 0.765527,0.19755 0.469195,0 1.037167,-0.24694 1.234722,-0.51858 1.975555,-2.00025 0.4445,-0.93839 0.642056,-2.12372 0.123472,-0.74084 0.123472,-1.43228 0,-0.29633 -0.02469,-0.59267 l -0.493889,-0.29633 q -0.987778,-0.69144 -0.987778,-1.43228 0,-0.12347 0.02469,-0.27164 0.172861,-0.69144 1.086555,-0.81491 l 0.123472,0 q 0.321028,0 0.617361,0.22225 0.493889,0.34572 0.740834,1.28411 0.02469,0.17286 0.07408,0.37041 0.617361,0.19756 1.210028,0.19756 1.3335,0 2.592916,-0.889 0.148167,-0.12347 0.345722,-0.12347 0.04939,0 0.123473,0.0247 0.271638,0.0494 0.419805,0.27164 0.123472,0.19756 0.123472,0.41981 l 0,0.0741 q -0.04939,0.24694 -0.271639,0.41981 -1.580444,1.08655 -3.333749,1.08655 -0.543278,0 -1.086556,-0.0988 l 0,0.24695 q 0,2.00025 -0.740833,3.72886 -0.963083,2.17311 -2.790472,2.93864 -0.814917,0.34572 -1.531056,0.34572 z"
         style="font-size:49.3888855px"
         id="path10770" />
    </g>
  </g>
</svg>
