<?xml version="1.0" encoding="UTF-8" standalone="no"?>
<!-- Created with Inkscape (http://www.inkscape.org/) -->

<svg
   xmlns:dc="http://purl.org/dc/elements/1.1/"
   xmlns:cc="http://creativecommons.org/ns#"
   xmlns:rdf="http://www.w3.org/1999/02/22-rdf-syntax-ns#"
   xmlns:svg="http://www.w3.org/2000/svg"
   xmlns="http://www.w3.org/2000/svg"
   xmlns:sodipodi="http://sodipodi.sourceforge.net/DTD/sodipodi-0.dtd"
   xmlns:inkscape="http://www.inkscape.org/namespaces/inkscape"
   width="55mm"
   height="55mm"
   viewBox="0 0 55 55"
   version="1.1"
   id="svg8"
   inkscape:version="0.91 r13725"
   sodipodi:docname="lower-q.svg">
  <defs
     id="defs2" />
  <sodipodi:namedview
     id="base"
     pagecolor="#ffffff"
     bordercolor="#666666"
     borderopacity="1.0"
     inkscape:pageopacity="0.0"
     inkscape:pageshadow="2"
     inkscape:zoom="1.4"
     inkscape:cx="-72.983922"
     inkscape:cy="43.63747"
     inkscape:document-units="mm"
     inkscape:current-layer="layer1"
     showgrid="false"
     inkscape:window-width="1440"
     inkscape:window-height="800"
     inkscape:window-x="0"
     inkscape:window-y="1"
     inkscape:window-maximized="1" />
  <metadata
     id="metadata5">
    <rdf:RDF>
      <cc:Work
         rdf:about="">
        <dc:format>image/svg+xml</dc:format>
        <dc:type
           rdf:resource="http://purl.org/dc/dcmitype/StillImage" />
        <dc:title />
      </cc:Work>
    </rdf:RDF>
  </metadata>
  <g
     inkscape:label="Calque 1"
     inkscape:groupmode="layer"
     id="layer1"
     transform="translate(0,-242)">
    <g
       style="font-style:normal;font-variant:normal;font-weight:normal;font-stretch:normal;font-size:63.49999619px;line-height:125%;font-family:Graphecrit;-inkscape-font-specification:Graphecrit;letter-spacing:0px;word-spacing:0px;fill:#000000;fill-opacity:1;stroke:none;stroke-width:1px;stroke-linecap:butt;stroke-linejoin:miter;stroke-opacity:1"
       id="text6642">
      <path
         d="m 27.109461,273.5166 q 1.55575,0 2.667,-1.11125 1.135944,-1.11125 1.135944,-2.69169 0,-1.55575 -1.135944,-2.667 -1.11125,-1.11125 -2.667,-1.11125 -1.580445,0 -2.691694,1.11125 -1.11125,1.11125 -1.11125,2.667 0,1.58044 1.11125,2.69169 1.111249,1.11125 2.691694,1.11125 z m 5.432777,21.8052 q 0,0.27164 -0.197555,0.46919 -0.197556,0.19756 -0.493889,0.19756 -0.271639,0 -0.469195,-0.19756 -0.197555,-0.19755 -0.197555,-0.46919 l 0,-22.15092 q -0.0247,-0.0988 -0.04939,-0.17286 l 0,-0.0741 -0.02469,-0.0494 q -1.55575,1.97555 -4.0005,1.97555 -2.123722,0 -3.630083,-1.50636 -1.506361,-1.50636 -1.506361,-3.63008 0,-2.12372 1.506361,-3.63008 1.506361,-1.50636 3.630083,-1.50636 2.518833,0 4.074583,2.04963 l 0,-1.60513 q 0,-0.27164 0.197555,-0.4692 0.197556,-0.19755 0.469195,-0.19755 0.296333,0 0.493889,0.19755 0.197555,0.19756 0.197555,0.4692 l 0,30.30008 z"
         style="font-size:49.3888855px"
         id="path13530" />
    </g>
  </g>
</svg>
