<?xml version="1.0" encoding="UTF-8" standalone="no"?>
<!-- Created with Inkscape (http://www.inkscape.org/) -->

<svg
   xmlns:dc="http://purl.org/dc/elements/1.1/"
   xmlns:cc="http://creativecommons.org/ns#"
   xmlns:rdf="http://www.w3.org/1999/02/22-rdf-syntax-ns#"
   xmlns:svg="http://www.w3.org/2000/svg"
   xmlns="http://www.w3.org/2000/svg"
   xmlns:sodipodi="http://sodipodi.sourceforge.net/DTD/sodipodi-0.dtd"
   xmlns:inkscape="http://www.inkscape.org/namespaces/inkscape"
   width="55mm"
   height="55mm"
   viewBox="0 0 55 55"
   version="1.1"
   id="svg8"
   inkscape:version="0.91 r13725"
   sodipodi:docname="lower-s.svg">
  <defs
     id="defs2" />
  <sodipodi:namedview
     id="base"
     pagecolor="#ffffff"
     bordercolor="#666666"
     borderopacity="1.0"
     inkscape:pageopacity="0.0"
     inkscape:pageshadow="2"
     inkscape:zoom="1.4"
     inkscape:cx="-72.983922"
     inkscape:cy="43.63747"
     inkscape:document-units="mm"
     inkscape:current-layer="layer1"
     showgrid="false"
     inkscape:window-width="1440"
     inkscape:window-height="800"
     inkscape:window-x="0"
     inkscape:window-y="1"
     inkscape:window-maximized="1" />
  <metadata
     id="metadata5">
    <rdf:RDF>
      <cc:Work
         rdf:about="">
        <dc:format>image/svg+xml</dc:format>
        <dc:type
           rdf:resource="http://purl.org/dc/dcmitype/StillImage" />
        <dc:title />
      </cc:Work>
    </rdf:RDF>
  </metadata>
  <g
     inkscape:label="Calque 1"
     inkscape:groupmode="layer"
     id="layer1"
     transform="translate(0,-242)">
    <g
       style="font-style:normal;font-variant:normal;font-weight:normal;font-stretch:normal;font-size:63.49999619px;line-height:125%;font-family:Graphecrit;-inkscape-font-specification:Graphecrit;letter-spacing:0px;word-spacing:0px;fill:#000000;fill-opacity:1;stroke:none;stroke-width:1px;stroke-linecap:butt;stroke-linejoin:miter;stroke-opacity:1"
       id="text6642">
      <path
         d="m 27.402266,274.82541 q -0.197556,0 -0.370417,-0.0247 -1.135944,-0.0988 -2.024944,-0.8643 -0.345723,-0.27164 -0.642056,-0.64206 -0.09878,-0.12347 -0.22225,-0.32102 l -0.197555,-0.24695 -0.09878,-0.14817 -0.07408,-0.0741 q -0.123472,-0.17286 -0.123472,-0.37042 l 0,-0.12347 q 0.02469,-0.27164 0.22225,-0.4198 0.172861,-0.17286 0.419806,-0.17286 l 0.04939,0 q 0.271639,0.0247 0.4445,0.27163 0.07408,0.0741 0.22225,0.29634 l 0.172861,0.22225 0.172861,0.24694 q 0.22225,0.27164 0.469194,0.4692 0.592667,0.54327 1.308806,0.59266 0.148166,0.0247 0.296333,0.0247 0.740833,0 1.358194,-0.39511 0.740834,-0.49389 1.061861,-1.3335 0.22225,-0.56798 0.22225,-1.16064 0,-0.81492 -0.419805,-1.72861 -0.740833,-1.53106 -2.592917,-2.88925 l -0.4445,-0.39511 q -0.518583,1.65452 -1.456972,3.18558 -0.345722,0.59267 -0.740833,1.11125 -0.296333,0.39511 -0.567972,0.74083 -0.172861,0.17286 -0.4445,0.19756 l -0.07408,0 q -0.197555,0 -0.395111,-0.12347 -0.197555,-0.19756 -0.22225,-0.4692 l 0,-0.0494 q 0,-0.22225 0.148167,-0.39511 0.296333,-0.37042 0.592667,-0.79022 0.419805,-0.56797 0.765527,-1.18533 0.963084,-1.65453 1.382889,-3.48192 -0.197555,-0.4445 -0.197555,-0.93839 0.02469,-0.56797 0.395111,-1.01247 0.123472,-0.17286 0.271639,-0.27164 l 0.148166,-0.14817 q 0.172861,-0.0988 0.321028,-0.0988 0.07408,0 0.172861,0.0247 0.271639,0.0494 0.395111,0.27164 0.172861,0.24694 0.172861,0.61736 l 0,0.17286 q -0.02469,0.17286 -0.07408,0.37042 l -0.04939,0.22225 -0.07408,0.17286 q -0.04939,0.17286 -0.04939,0.27164 l -0.0247,0.14816 q 0.271639,0.37042 0.839612,0.79023 2.790472,2.12372 3.358444,4.54377 0.148166,0.54328 0.148166,1.08656 0,0.32103 -0.04939,0.61736 -0.0247,0.32103 -0.09878,0.61736 -0.04939,0.22225 -0.148167,0.4445 -0.4445,1.16064 -1.432278,1.85208 -1.012472,0.69145 -2.222499,0.69145 z"
         style="font-size:49.3888855px"
         id="path12426" />
    </g>
  </g>
</svg>
