<?xml version="1.0" encoding="UTF-8" standalone="no"?>
<!-- Created with Inkscape (http://www.inkscape.org/) -->

<svg
   width="55mm"
   height="55mm"
   viewBox="0 0 55 55"
   version="1.1"
   id="svg8"
   inkscape:version="1.1 (1:1.1+202106031931+af4d65493e)"
   sodipodi:docname="lower-b-lo.svg"
   xmlns:inkscape="http://www.inkscape.org/namespaces/inkscape"
   xmlns:sodipodi="http://sodipodi.sourceforge.net/DTD/sodipodi-0.dtd"
   xmlns="http://www.w3.org/2000/svg"
   xmlns:svg="http://www.w3.org/2000/svg"
   xmlns:rdf="http://www.w3.org/1999/02/22-rdf-syntax-ns#"
   xmlns:cc="http://creativecommons.org/ns#"
   xmlns:dc="http://purl.org/dc/elements/1.1/">
  <defs
     id="defs2">
    <inkscape:path-effect
       effect="spiro"
       id="path-effect6294"
       is_visible="true"
       lpeversion="1" />
    <inkscape:path-effect
       effect="spiro"
       id="path-effect4596"
       is_visible="true"
       lpeversion="1" />
    <inkscape:path-effect
       effect="spiro"
       id="path-effect3908"
       is_visible="true"
       lpeversion="1" />
    <inkscape:path-effect
       effect="spiro"
       id="path-effect3838"
       is_visible="true"
       lpeversion="1" />
    <inkscape:path-effect
       effect="spiro"
       id="path-effect3768"
       is_visible="true"
       lpeversion="1" />
    <inkscape:path-effect
       effect="spiro"
       id="path-effect1338"
       is_visible="true"
       lpeversion="1" />
  </defs>
  <sodipodi:namedview
     id="base"
     pagecolor="#ffffff"
     bordercolor="#666666"
     borderopacity="1.0"
     inkscape:pageopacity="0.0"
     inkscape:pageshadow="2"
     inkscape:zoom="5.6"
     inkscape:cx="116.78571"
     inkscape:cy="97.142857"
     inkscape:document-units="mm"
     inkscape:current-layer="layer1"
     showgrid="false"
     inkscape:window-width="1528"
     inkscape:window-height="845"
     inkscape:window-x="72"
     inkscape:window-y="27"
     inkscape:window-maximized="1"
     inkscape:pagecheckerboard="0" />
  <metadata
     id="metadata5">
    <rdf:RDF>
      <cc:Work
         rdf:about="">
        <dc:format>image/svg+xml</dc:format>
        <dc:type
           rdf:resource="http://purl.org/dc/dcmitype/StillImage" />
      </cc:Work>
    </rdf:RDF>
  </metadata>
  <g
     inkscape:label="Calque 1"
     inkscape:groupmode="layer"
     id="layer1"
     transform="translate(0,-242)">
    <g
       style="font-style:normal;font-variant:normal;font-weight:normal;font-stretch:normal;font-size:63.49999619px;line-height:125%;font-family:Graphecrit;-inkscape-font-specification:Graphecrit;letter-spacing:0px;word-spacing:0px;fill:#000000;fill-opacity:1;stroke:none;stroke-width:1px;stroke-linecap:butt;stroke-linejoin:miter;stroke-opacity:1"
       id="text6642">
      <path
         d="m 26.054657,274.82541 c 0.4445,0 0.938389,-0.0988 1.481667,-0.29633 1.284111,-0.57621 3.115217,-2.53164 3.060776,-4.06515 -2.133258,3.5007 2.681916,-3.93255 -1.398476,0.86561 -0.362185,0.77376 -1.308346,1.57794 -2.131494,1.94013 -0.362185,0.14817 -0.699676,0.22225 -1.012472,0.22225 -0.411574,0 -0.773759,-0.12347 -1.086555,-0.37042 -0.839611,-0.67498 -1.44051,-2.10726 -1.802695,-4.29683 0.856074,-1.66276 1.728611,-3.69594 2.617611,-6.09953 0.889,-2.42005 1.605139,-4.91419 2.148417,-7.48241 0.27987,-1.44875 0.419805,-2.87279 0.419805,-4.27214 0,-0.87254 -0.09878,-2.06611 -0.296333,-3.5807 -0.181093,-1.53105 -0.691445,-2.69992 -1.531056,-3.50661 -0.296333,-0.24694 -0.609129,-0.37041 -0.938388,-0.37041 -0.16463,0 -0.337491,0.0329 -0.518584,0.0988 -0.131703,0.0329 -0.312796,0.14818 -0.543277,0.34573 -0.230482,0.19755 -0.49389,0.59266 -0.790223,1.18533 -0.27987,0.59267 -0.55974,1.49813 -0.839611,2.71639 -0.27987,1.20179 -0.543277,2.82339 -0.790222,4.8648 -0.411574,3.25967 -0.617361,6.38763 -0.617361,9.38389 0,2.23897 0.115241,4.39561 0.345722,6.46994 -0.312796,0.59267 -0.600898,1.08656 -0.864305,1.48167 -0.08232,0.14817 -0.123472,0.2881 -0.123472,0.41981 0,0.0329 0.0082,0.0988 0.02469,0.19755 0.01646,0.0988 0.107006,0.20579 0.271639,0.32103 0.115241,0.0659 0.230481,0.0988 0.345722,0.0988 0.04939,0 0.12347,-0.008 0.22225,-0.0247 0.115241,-0.0165 0.22225,-0.0988 0.321028,-0.24694 0.06585,-0.0988 0.123474,-0.18933 0.172861,-0.27164 0.428037,1.66276 1.086555,2.86456 1.975555,3.60539 0.411574,0.39511 1.037167,0.61736 1.876778,0.66675 z m -0.469194,-29.97905 0.07408,0.0494 c 0.04939,0.0329 0.115238,0.0988 0.197555,0.19756 0.477426,0.67498 0.83138,1.91793 1.061861,3.72886 0.08231,0.64205 0.123473,1.32527 0.123473,2.04964 0,1.26765 -0.131704,2.63407 -0.395111,4.09928 -0.954852,4.28037 -2.206037,8.08331 -3.753556,11.40883 -0.08231,-1.05363 -0.123472,-2.1978 -0.123472,-3.43253 0,-2.84809 0.214019,-6.20654 0.642056,-10.07533 0.09878,-0.93839 0.205786,-1.778 0.321027,-2.51883 0.131704,-0.74083 0.255176,-1.38289 0.370417,-1.92617 0.115241,-0.55974 0.230481,-1.03717 0.345722,-1.43228 0.131704,-0.39511 0.246945,-0.72437 0.345722,-0.98778 0.115241,-0.26341 0.214019,-0.46919 0.296334,-0.61736 0.09878,-0.16463 0.181092,-0.27987 0.246944,-0.34572 0.08231,-0.0823 0.139935,-0.1317 0.172861,-0.14817 0.03293,-0.0329 0.05762,-0.0494 0.07408,-0.0494 z"
         style="font-size:49.3889px"
         id="path9067"
         sodipodi:nodetypes="cccccsccccsccscscccsccsscscscccccsccsccsccccccscsc" />
    </g>
    <path
       style="fill:none;stroke:#000000;stroke-width:1.065;stroke-linecap:round;stroke-linejoin:miter;stroke-miterlimit:4;stroke-dasharray:none;stroke-opacity:1"
       d="m 29.639015,271.58612 c 0.193642,-0.35572 0.356218,-0.72833 0.485272,-1.11223 0.109536,-0.32583 0.194879,-0.65945 0.306237,-0.98467 0.136006,-0.3972 0.31071,-0.7816 0.41947,-1.18711 0.08889,-0.33141 0.132733,-0.67338 0.215725,-1.00631 0.04376,-0.17555 0.0985,-0.34911 0.121883,-0.52851 0.02338,-0.17941 0.01334,-0.36858 -0.06722,-0.53058 -0.07377,-0.14833 -0.204876,-0.26594 -0.357879,-0.32943 -0.153003,-0.0635 -0.326486,-0.0736 -0.48756,-0.0349 -0.161075,0.0387 -0.309434,0.12515 -0.427429,0.24142 -0.117996,0.11627 -0.20595,0.26169 -0.260765,0.41801 -0.109632,0.31265 -0.08535,0.6611 0.01677,0.97628 0.102119,0.31518 0.277811,0.6014 0.469423,0.87168 0.336874,0.47519 0.727666,0.91126 1.154189,1.30795 0.306906,0.28544 0.632499,0.55078 0.974003,0.79377 v 0"
       id="path6292"
       inkscape:path-effect="#path-effect6294"
       inkscape:original-d="m 29.639015,271.58612 c 0.160707,-0.36584 0.323781,-0.74122 0.485272,-1.11223 0.161494,-0.37101 0.204422,-0.65618 0.306237,-0.98467 0.101814,-0.32849 0.27991,-0.79114 0.41947,-1.18711 0.139557,-0.39597 0.144081,-0.67061 0.215725,-1.00631 0.07164,-0.3357 0.03671,-0.70579 0.05466,-1.05909 0.126386,-4.28424 -2.441755,0.16426 -1.047442,2.14302 0.323728,0.44805 0.769723,0.87223 1.154189,1.30795 0.384466,0.43572 0.6496,0.52944 0.974003,0.79377 0.346925,0.24481 1.118607,-1.41345 0,0"
       sodipodi:nodetypes="cssssccscc" />
  </g>
</svg>
