<?xml version="1.0" encoding="UTF-8" standalone="no"?>
<!-- Created with Inkscape (http://www.inkscape.org/) -->

<svg
   xmlns:dc="http://purl.org/dc/elements/1.1/"
   xmlns:cc="http://creativecommons.org/ns#"
   xmlns:rdf="http://www.w3.org/1999/02/22-rdf-syntax-ns#"
   xmlns:svg="http://www.w3.org/2000/svg"
   xmlns="http://www.w3.org/2000/svg"
   xmlns:sodipodi="http://sodipodi.sourceforge.net/DTD/sodipodi-0.dtd"
   xmlns:inkscape="http://www.inkscape.org/namespaces/inkscape"
   width="55mm"
   height="55mm"
   viewBox="0 0 55 55"
   version="1.1"
   id="svg8"
   inkscape:version="0.91 r13725"
   sodipodi:docname="lower-x.svg">
  <defs
     id="defs2" />
  <sodipodi:namedview
     id="base"
     pagecolor="#ffffff"
     bordercolor="#666666"
     borderopacity="1.0"
     inkscape:pageopacity="0.0"
     inkscape:pageshadow="2"
     inkscape:zoom="1.4"
     inkscape:cx="-72.983922"
     inkscape:cy="43.63747"
     inkscape:document-units="mm"
     inkscape:current-layer="layer1"
     showgrid="false"
     inkscape:window-width="1440"
     inkscape:window-height="800"
     inkscape:window-x="0"
     inkscape:window-y="1"
     inkscape:window-maximized="1" />
  <metadata
     id="metadata5">
    <rdf:RDF>
      <cc:Work
         rdf:about="">
        <dc:format>image/svg+xml</dc:format>
        <dc:type
           rdf:resource="http://purl.org/dc/dcmitype/StillImage" />
        <dc:title />
      </cc:Work>
    </rdf:RDF>
  </metadata>
  <g
     inkscape:label="Calque 1"
     inkscape:groupmode="layer"
     id="layer1"
     transform="translate(0,-242)">
    <g
       style="font-style:normal;font-variant:normal;font-weight:normal;font-stretch:normal;font-size:63.49999619px;line-height:125%;font-family:Graphecrit;-inkscape-font-specification:Graphecrit;letter-spacing:0px;word-spacing:0px;fill:#000000;fill-opacity:1;stroke:none;stroke-width:1px;stroke-linecap:butt;stroke-linejoin:miter;stroke-opacity:1"
       id="text6642">
      <path
         d="m 38.892244,270.05938 q 0.197556,0.17286 0.22225,0.4692 l 0,0.0494 q 0,0.24695 -0.172861,0.4445 -1.679222,1.92617 -2.815166,2.71639 -1.629833,1.08656 -3.531306,1.08656 -1.679222,0 -3.012722,-0.81492 -1.160638,-0.74083 -1.852083,-1.97555 -0.814916,1.48166 -2.370666,2.24719 l 0,0.0247 q -0.246945,0.0988 -0.493889,0.19755 -0.765528,0.32103 -1.679222,0.32103 -0.765528,0 -1.580445,-0.19756 -0.271638,-0.0741 -0.419805,-0.32102 -0.09878,-0.17287 -0.09878,-0.37042 0,-0.0741 0.02469,-0.14817 0.07408,-0.27164 0.321027,-0.4198 0.172861,-0.0988 0.345723,-0.0988 0.07408,0 0.172861,0.0247 0.66675,0.17286 1.234722,0.17286 0.642055,0 1.185333,-0.22225 0.197556,-0.0741 0.395111,-0.17286 1.456972,-0.71614 1.975556,-2.09902 0.271638,-0.71614 0.271638,-1.45698 0,-0.4445 -0.09878,-0.91369 -0.271639,-1.18533 -1.135945,-1.97556 -1.037166,-0.96308 -2.568222,-0.96308 -0.740833,0 -1.802694,1.28411 -0.419806,0.49389 -0.938389,1.23472 l -0.419805,0.64206 -0.22225,0.29633 -0.197556,0.32103 q -0.642056,0.98778 -0.938389,1.40758 -0.172861,0.22225 -0.4445,0.27164 l -0.07408,0 q -0.22225,0 -0.4445,-0.12347 -0.22225,-0.17286 -0.271639,-0.4445 l 0,-0.0741 q 0,-0.22225 0.123472,-0.4445 0.296334,-0.39511 0.913695,-1.3582 l 0.518583,-0.76553 0.518583,-0.76552 q 0.617361,-0.86431 1.135945,-1.40759 1.308805,-1.43227 2.543527,-1.43227 1.456972,0 2.642306,0.69144 1.185333,0.69145 1.852083,1.92617 0.765527,-1.3582 2.2225,-2.07434 0.22225,-0.12347 0.493888,-0.22225 0.790223,-0.32102 1.679223,-0.32102 0.765527,0 1.580444,0.22225 0.271639,0.0494 0.419805,0.29633 0.09878,0.17286 0.09878,0.34572 0,0.0741 -0.02469,0.17286 -0.07408,0.27164 -0.321028,0.41981 -0.172861,0.0988 -0.345722,0.0988 -0.07408,0 -0.172861,-0.0247 -0.66675,-0.17286 -1.234722,-0.17286 -0.642056,0 -1.185334,0.22225 -0.22225,0.0988 -0.370416,0.17286 -1.407584,0.69145 -1.901472,2.00025 -0.271639,0.66675 -0.271639,1.3582 0,0.4445 0.123472,0.91369 0.296333,1.25942 1.234722,2.09903 1.135944,1.03716 2.864555,1.03716 1.481667,0 2.691695,-0.81491 1.012472,-0.66675 2.642305,-2.54353 0.172861,-0.19756 0.469194,-0.22225 l 0.04939,0 q 0.246945,0 0.4445,0.17286 z"
         style="font-size:49.3888855px"
         id="path9666" />
    </g>
  </g>
</svg>
