<?xml version="1.0" encoding="UTF-8" standalone="no"?>
<!-- Created with Inkscape (http://www.inkscape.org/) -->

<svg
   xmlns:dc="http://purl.org/dc/elements/1.1/"
   xmlns:cc="http://creativecommons.org/ns#"
   xmlns:rdf="http://www.w3.org/1999/02/22-rdf-syntax-ns#"
   xmlns:svg="http://www.w3.org/2000/svg"
   xmlns="http://www.w3.org/2000/svg"
   xmlns:sodipodi="http://sodipodi.sourceforge.net/DTD/sodipodi-0.dtd"
   xmlns:inkscape="http://www.inkscape.org/namespaces/inkscape"
   width="55mm"
   height="55mm"
   viewBox="0 0 55 55"
   version="1.1"
   id="svg8"
   inkscape:version="0.91 r13725"
   sodipodi:docname="lower-n.svg">
  <defs
     id="defs2" />
  <sodipodi:namedview
     id="base"
     pagecolor="#ffffff"
     bordercolor="#666666"
     borderopacity="1.0"
     inkscape:pageopacity="0.0"
     inkscape:pageshadow="2"
     inkscape:zoom="1.4"
     inkscape:cx="-72.983922"
     inkscape:cy="43.63747"
     inkscape:document-units="mm"
     inkscape:current-layer="layer1"
     showgrid="false"
     inkscape:window-width="1440"
     inkscape:window-height="800"
     inkscape:window-x="0"
     inkscape:window-y="1"
     inkscape:window-maximized="1" />
  <metadata
     id="metadata5">
    <rdf:RDF>
      <cc:Work
         rdf:about="">
        <dc:format>image/svg+xml</dc:format>
        <dc:type
           rdf:resource="http://purl.org/dc/dcmitype/StillImage" />
        <dc:title></dc:title>
      </cc:Work>
    </rdf:RDF>
  </metadata>
  <g
     inkscape:label="Calque 1"
     inkscape:groupmode="layer"
     id="layer1"
     transform="translate(0,-242)">
    <g
       style="font-style:normal;font-variant:normal;font-weight:normal;font-stretch:normal;font-size:63.49999619px;line-height:125%;font-family:Graphecrit;-inkscape-font-specification:Graphecrit;letter-spacing:0px;word-spacing:0px;fill:#000000;fill-opacity:1;stroke:none;stroke-width:1px;stroke-linecap:butt;stroke-linejoin:miter;stroke-opacity:1"
       id="text6642">
      <path
         d="m 37.258883,269.88652 q 0.246944,0.17286 0.296333,0.4445 l 0,0.12347 q 0,0.19756 -0.123472,0.37042 -0.740834,1.06186 -2.148417,2.14842 -1.308805,0.98777 -2.469444,1.48166 -0.889,0.37042 -1.605139,0.37042 -0.592667,0 -1.061861,-0.27164 -0.518583,-0.27164 -0.814917,-0.81492 -0.07408,-0.19755 -0.148166,-0.37041 0,-0.0741 -0.0247,-0.12348 l 0,-0.0494 -0.02469,-0.0247 q 0,-0.0247 -0.0247,-1.21003 0,-0.56797 -0.02469,-0.93839 0,-0.49388 -0.02469,-0.74083 l 0,-0.76553 q 0,-1.70391 -0.518584,-2.44475 -0.790222,-1.18533 -1.654527,-1.23472 l -0.04939,0 q -0.592667,0 -1.3335,0.51859 -0.296334,0.22225 -0.592667,0.51858 -0.22225,0.22225 -0.4445,0.49389 -0.09878,0.0988 -0.22225,0.14816 l 0.0247,6.64281 q 0,0.27164 -0.197556,0.46919 -0.197555,0.19756 -0.469194,0.19756 -0.271639,0 -0.469195,-0.19756 -0.197555,-0.19755 -0.197555,-0.46919 l -0.02469,-8.27264 q 0,-0.14817 -0.02469,-0.22225 -0.0247,-0.12347 -0.07408,-0.14817 l -0.07408,0 q -0.172861,0 -0.419805,0.12348 -0.395111,0.22225 -0.691445,0.66675 -0.22225,0.34572 -0.543277,0.93839 l -0.271639,0.56797 -0.296334,0.59266 q -0.469194,0.9137 -0.716139,1.38289 -0.395111,0.74084 -0.691444,1.13595 -0.172861,0.22225 -0.4445,0.27164 l -0.07408,0 q -0.22225,0 -0.419806,-0.12348 -0.22225,-0.17286 -0.271639,-0.4445 l 0,-0.0741 q 0,-0.22225 0.123473,-0.41981 0.271638,-0.34572 0.642055,-1.03716 0.22225,-0.39511 0.642056,-1.28411 l 0.321027,-0.61736 0.296334,-0.59267 q 0.345722,-0.64206 0.617361,-1.03717 0.518583,-0.79022 1.259416,-1.16064 0.469195,-0.22225 0.913695,-0.22225 0.246944,0 0.469194,0.0741 0.938389,0.27164 1.037167,1.43228 1.3335,-1.18534 2.642305,-1.18534 l 0.09878,0 q 1.531055,0.0988 2.691694,1.8027 0.493889,0.74083 0.642056,1.65452 0.07408,0.37042 0.09878,0.79023 l 0,1.48166 q 0.02469,0.41981 0.04939,1.58045 0,0.37041 0.0247,0.79022 l 0,0.4445 0.02469,0.0247 0,0.0247 0.04939,0.0741 q 0.0247,0.0494 0.09878,0.12347 l 0.148167,0.0988 q 0.197555,0.0988 0.444499,0.0988 0.4445,0 1.061862,-0.27164 0.938388,-0.39511 2.074333,-1.23472 1.308805,-0.98778 1.975555,-1.92617 0.148167,-0.22225 0.419806,-0.27164 0.07408,-0.0247 0.123472,-0.0247 0.197555,0 0.370417,0.12347 z"
         style="font-size:49.3888855px"
         id="path24076" />
    </g>
  </g>
</svg>
