<?xml version="1.0" encoding="UTF-8" standalone="no"?>
<!-- Created with Inkscape (http://www.inkscape.org/) -->

<svg
   xmlns:dc="http://purl.org/dc/elements/1.1/"
   xmlns:cc="http://creativecommons.org/ns#"
   xmlns:rdf="http://www.w3.org/1999/02/22-rdf-syntax-ns#"
   xmlns:svg="http://www.w3.org/2000/svg"
   xmlns="http://www.w3.org/2000/svg"
   xmlns:sodipodi="http://sodipodi.sourceforge.net/DTD/sodipodi-0.dtd"
   xmlns:inkscape="http://www.inkscape.org/namespaces/inkscape"
   width="55mm"
   height="55mm"
   viewBox="0 0 55 55"
   version="1.1"
   id="svg8"
   inkscape:version="0.92.3 (2405546, 2018-03-11)"
   sodipodi:docname="number-5.svg">
  <defs
     id="defs2" />
  <sodipodi:namedview
     id="base"
     pagecolor="#ffffff"
     bordercolor="#666666"
     borderopacity="1.0"
     inkscape:pageopacity="0.0"
     inkscape:pageshadow="2"
     inkscape:zoom="1.4"
     inkscape:cx="-87.269636"
     inkscape:cy="43.63747"
     inkscape:document-units="mm"
     inkscape:current-layer="layer1"
     showgrid="false"
     inkscape:window-width="1533"
     inkscape:window-height="845"
     inkscape:window-x="67"
     inkscape:window-y="27"
     inkscape:window-maximized="1" />
  <metadata
     id="metadata5">
    <rdf:RDF>
      <cc:Work
         rdf:about="">
        <dc:format>image/svg+xml</dc:format>
        <dc:type
           rdf:resource="http://purl.org/dc/dcmitype/StillImage" />
        <dc:title></dc:title>
      </cc:Work>
    </rdf:RDF>
  </metadata>
  <g
     inkscape:label="Calque 1"
     inkscape:groupmode="layer"
     id="layer1"
     transform="translate(0,-242)">
    <g
       aria-label="5"
       style="font-style:normal;font-variant:normal;font-weight:normal;font-stretch:normal;line-height:0%;font-family:Graphecrit;-inkscape-font-specification:Graphecrit;letter-spacing:0px;word-spacing:0px;fill:#000000;fill-opacity:1;stroke:none;stroke-width:1px;stroke-linecap:butt;stroke-linejoin:miter;stroke-opacity:1"
       id="text6642">
      <path
         d="m 23.652239,275.17113 q -0.4445,-0.0494 -0.4445,-0.56797 0,-0.59267 0.642055,-0.59267 H 24.2696 q 2.617611,0 4.815416,-1.58044 2.617611,-1.87678 2.617611,-4.93889 0,-2.17311 -1.358194,-3.25967 -1.037167,-0.81491 -2.395361,-0.81491 -1.55575,0 -3.1115,0.61736 -0.395111,0.14816 -0.765528,0.14816 h -0.09878 q -0.617361,0 -0.617361,-0.61736 v -8.17386 q 0,-0.61736 0.617361,-0.61736 h 7.161388 q 0.617361,0 0.617361,0.59267 0,0.59266 -0.617361,0.59266 h -6.544027 v 6.56873 q 0,0.22225 -0.02469,0.32102 1.753306,-0.61736 3.383139,-0.61736 1.802694,0 3.160889,1.06186 1.827388,1.40759 1.827388,4.19806 0,3.60539 -3.037416,5.82789 -2.592917,1.87678 -5.630333,1.87678 -0.4445,0 -0.617361,-0.0247 z"
         style="font-size:49.3888855px;line-height:1.25"
         id="path861" />
    </g>
  </g>
</svg>
