<?xml version="1.0" encoding="UTF-8" standalone="no"?>
<!-- Created with Inkscape (http://www.inkscape.org/) -->

<svg
   xmlns:dc="http://purl.org/dc/elements/1.1/"
   xmlns:cc="http://creativecommons.org/ns#"
   xmlns:rdf="http://www.w3.org/1999/02/22-rdf-syntax-ns#"
   xmlns:svg="http://www.w3.org/2000/svg"
   xmlns="http://www.w3.org/2000/svg"
   xmlns:sodipodi="http://sodipodi.sourceforge.net/DTD/sodipodi-0.dtd"
   xmlns:inkscape="http://www.inkscape.org/namespaces/inkscape"
   width="55mm"
   height="55mm"
   viewBox="0 0 55 55"
   version="1.1"
   id="svg8"
   inkscape:version="0.92.3 (2405546, 2018-03-11)"
   sodipodi:docname="number-3.svg">
  <defs
     id="defs2" />
  <sodipodi:namedview
     id="base"
     pagecolor="#ffffff"
     bordercolor="#666666"
     borderopacity="1.0"
     inkscape:pageopacity="0.0"
     inkscape:pageshadow="2"
     inkscape:zoom="1.4"
     inkscape:cx="-87.269636"
     inkscape:cy="43.63747"
     inkscape:document-units="mm"
     inkscape:current-layer="layer1"
     showgrid="false"
     inkscape:window-width="1533"
     inkscape:window-height="845"
     inkscape:window-x="67"
     inkscape:window-y="27"
     inkscape:window-maximized="1" />
  <metadata
     id="metadata5">
    <rdf:RDF>
      <cc:Work
         rdf:about="">
        <dc:format>image/svg+xml</dc:format>
        <dc:type
           rdf:resource="http://purl.org/dc/dcmitype/StillImage" />
        <dc:title></dc:title>
      </cc:Work>
    </rdf:RDF>
  </metadata>
  <g
     inkscape:label="Calque 1"
     inkscape:groupmode="layer"
     id="layer1"
     transform="translate(0,-242)">
    <g
       aria-label="3"
       style="font-style:normal;font-variant:normal;font-weight:normal;font-stretch:normal;line-height:0%;font-family:Graphecrit;-inkscape-font-specification:Graphecrit;letter-spacing:0px;word-spacing:0px;fill:#000000;fill-opacity:1;stroke:none;stroke-width:1px;stroke-linecap:butt;stroke-linejoin:miter;stroke-opacity:1"
       id="text6642">
      <path
         d="m 24.93635,257.0701 q -0.567972,-0.32102 -0.197556,-0.83961 1.358195,-1.82739 4.049889,-1.82739 2.074333,0 3.284361,1.03717 1.234722,1.11125 1.234722,3.1362 0,2.88925 -3.160889,4.445 2.173111,0.34572 3.531306,1.87677 1.358194,1.53106 1.358194,3.67947 0,2.96334 -1.827389,4.71664 -1.950861,1.90148 -5.655027,1.90148 -1.703917,0 -3.605389,-0.71614 -0.567972,-0.22225 -0.296333,-0.79023 0.246944,-0.51858 0.814916,-0.32102 1.629834,0.64205 3.086806,0.64205 3.086805,0 4.741333,-1.55575 1.506361,-1.43228 1.506361,-3.87703 0,-1.97555 -1.358195,-3.30905 -1.333499,-1.30881 -3.234972,-1.30881 -0.617361,0 -1.259416,0.19756 -1.234722,0.4445 -1.629833,0.54328 -0.567973,0.17286 -0.765528,-0.39511 -0.197556,-0.59267 0.419805,-0.74084 6.099528,-1.48166 6.099528,-4.98827 0,-1.45698 -0.913695,-2.2472 -0.864305,-0.74083 -2.370666,-0.74083 -1.926167,0 -2.988028,1.28411 -0.321027,0.46919 -0.839611,0.22225 z"
         style="font-size:49.3888855px;line-height:1.25"
         id="path817" />
    </g>
  </g>
</svg>
