<?xml version="1.0" encoding="UTF-8" standalone="no"?>
<!-- Created with Inkscape (http://www.inkscape.org/) -->

<svg
   xmlns:dc="http://purl.org/dc/elements/1.1/"
   xmlns:cc="http://creativecommons.org/ns#"
   xmlns:rdf="http://www.w3.org/1999/02/22-rdf-syntax-ns#"
   xmlns:svg="http://www.w3.org/2000/svg"
   xmlns="http://www.w3.org/2000/svg"
   xmlns:sodipodi="http://sodipodi.sourceforge.net/DTD/sodipodi-0.dtd"
   xmlns:inkscape="http://www.inkscape.org/namespaces/inkscape"
   width="55mm"
   height="55mm"
   viewBox="0 0 55 55"
   version="1.1"
   id="svg8"
   inkscape:version="0.92.3 (2405546, 2018-03-11)"
   sodipodi:docname="number-0.svg">
  <defs
     id="defs2" />
  <sodipodi:namedview
     id="base"
     pagecolor="#ffffff"
     bordercolor="#666666"
     borderopacity="1.0"
     inkscape:pageopacity="0.0"
     inkscape:pageshadow="2"
     inkscape:zoom="1"
     inkscape:cx="198.44465"
     inkscape:cy="100.78033"
     inkscape:document-units="mm"
     inkscape:current-layer="layer1"
     showgrid="false"
     inkscape:window-width="1533"
     inkscape:window-height="845"
     inkscape:window-x="67"
     inkscape:window-y="27"
     inkscape:window-maximized="1" />
  <metadata
     id="metadata5">
    <rdf:RDF>
      <cc:Work
         rdf:about="">
        <dc:format>image/svg+xml</dc:format>
        <dc:type
           rdf:resource="http://purl.org/dc/dcmitype/StillImage" />
        <dc:title />
      </cc:Work>
    </rdf:RDF>
  </metadata>
  <g
     inkscape:label="Calque 1"
     inkscape:groupmode="layer"
     id="layer1"
     transform="translate(0,-242)">
    <g
       aria-label="0"
       style="font-style:normal;font-variant:normal;font-weight:normal;font-stretch:normal;line-height:0%;font-family:Graphecrit;-inkscape-font-specification:Graphecrit;letter-spacing:0px;word-spacing:0px;fill:#000000;fill-opacity:1;stroke:none;stroke-width:1px;stroke-linecap:butt;stroke-linejoin:miter;stroke-opacity:1"
       id="text6642">
      <path
         d="m 30.319738,275.19583 q -2.321277,0 -4.123972,-2.27189 -2.247194,-2.81517 -2.247194,-7.87753 0,-5.334 2.247194,-8.27264 1.802695,-2.37067 4.123972,-2.37067 2.296584,0 4.099278,2.2472 2.2225,2.79047 2.2225,7.87753 0,5.3093 -2.2225,8.27263 -1.802694,2.39537 -4.099278,2.39537 z m 0,-1.18534 q 1.827389,0 3.284361,-2.14841 1.802695,-2.61762 1.802695,-7.33425 0,-4.4697 -1.802695,-6.96384 -1.432277,-1.97555 -3.284361,-1.97555 -1.876777,0 -3.333749,2.12372 -1.802695,2.61761 -1.802695,7.33425 0,4.445 1.802695,6.93914 1.481666,2.02494 3.333749,2.02494 z"
         style="font-size:49.3888855px;line-height:1.25"
         id="path814" />
    </g>
  </g>
</svg>
