<?xml version="1.0" encoding="UTF-8" standalone="no"?>
<svg
   xmlns:dc="http://purl.org/dc/elements/1.1/"
   xmlns:cc="http://creativecommons.org/ns#"
   xmlns:rdf="http://www.w3.org/1999/02/22-rdf-syntax-ns#"
   xmlns:svg="http://www.w3.org/2000/svg"
   xmlns="http://www.w3.org/2000/svg"
   xmlns:sodipodi="http://sodipodi.sourceforge.net/DTD/sodipodi-0.dtd"
   xmlns:inkscape="http://www.inkscape.org/namespaces/inkscape"
   version="1.1"
   id="Capa_1"
   x="0px"
   y="0px"
   viewBox="0 0 55 55"
   xml:space="preserve"
   sodipodi:docname="pass-icon.svg"
   width="55"
   height="55"
   inkscape:version="1.0.1 (0767f8302a, 2020-10-17)"><style
   id="style864"></style><metadata
   id="metadata39"><rdf:RDF><cc:Work
       rdf:about=""><dc:format>image/svg+xml</dc:format><dc:type
         rdf:resource="http://purl.org/dc/dcmitype/StillImage" /><dc:title></dc:title></cc:Work></rdf:RDF></metadata><defs
   id="defs37" /><sodipodi:namedview
   pagecolor="#ffffff"
   bordercolor="#666666"
   borderopacity="1"
   objecttolerance="10"
   gridtolerance="10"
   guidetolerance="10"
   inkscape:pageopacity="0"
   inkscape:pageshadow="2"
   inkscape:window-width="1520"
   inkscape:window-height="843"
   id="namedview35"
   showgrid="false"
   fit-margin-top="5"
   fit-margin-left="5"
   fit-margin-right="5"
   fit-margin-bottom="5"
   inkscape:zoom="11.633333"
   inkscape:cx="27.5"
   inkscape:cy="21.637077"
   inkscape:window-x="72"
   inkscape:window-y="27"
   inkscape:window-maximized="0"
   inkscape:current-layer="Capa_1" />
<path
   d="M 27.5,5 C 15.0935,5 5,15.0935 5,27.5 5,39.9065 15.0935,50 27.5,50 39.9065,50 50,39.9065 50,27.5 50,15.0935 39.9065,5 27.5,5 Z m 5.67225,23.1195 -16.5,11.25 C 16.5455,39.45575 16.39775,39.5 16.25,39.5 16.13,39.5 16.00925,39.4715 15.89975,39.413 15.65375,39.28325 15.5,39.02825 15.5,38.75 v -22.5 c 0,-0.27825 0.15375,-0.53325 0.39975,-0.663 0.24525,-0.1305 0.543,-0.1125 0.77325,0.0435 l 16.5,11.25 C 33.377,27.02 33.5,27.25175 33.5,27.5 c 0,0.24825 -0.123,0.48 -0.32775,0.6195 z M 40.25,39.5 H 35 v -24 h 5.25 z"
   id="path2"
   style="fill:#ffffff;stroke-width:0.75" />
<g
   id="g4"
   transform="translate(-2.5,-2.5)">
</g>
<g
   id="g6"
   transform="translate(-2.5,-2.5)">
</g>
<g
   id="g8"
   transform="translate(-2.5,-2.5)">
</g>
<g
   id="g10"
   transform="translate(-2.5,-2.5)">
</g>
<g
   id="g12"
   transform="translate(-2.5,-2.5)">
</g>
<g
   id="g14"
   transform="translate(-2.5,-2.5)">
</g>
<g
   id="g16"
   transform="translate(-2.5,-2.5)">
</g>
<g
   id="g18"
   transform="translate(-2.5,-2.5)">
</g>
<g
   id="g20"
   transform="translate(-2.5,-2.5)">
</g>
<g
   id="g22"
   transform="translate(-2.5,-2.5)">
</g>
<g
   id="g24"
   transform="translate(-2.5,-2.5)">
</g>
<g
   id="g26"
   transform="translate(-2.5,-2.5)">
</g>
<g
   id="g28"
   transform="translate(-2.5,-2.5)">
</g>
<g
   id="g30"
   transform="translate(-2.5,-2.5)">
</g>
<g
   id="g32"
   transform="translate(-2.5,-2.5)">
</g>
</svg>
