<?xml version="1.0" ?><!DOCTYPE svg  PUBLIC '-//W3C//DTD SVG 1.1//EN'  'http://www.w3.org/Graphics/SVG/1.1/DTD/svg11.dtd' [
	<!ENTITY stroke_color "#010101">
	<!ENTITY fill_color "#FFFFFF">
]><svg enable-background="new 0 0 55.125 55" height="55px" version="1.1" viewBox="0 0 55.125 55" width="55.125px" x="0px" xml:space="preserve" xmlns="http://www.w3.org/2000/svg" xmlns:xlink="http://www.w3.org/1999/xlink" y="0px"><g display="block" id="system-restart">
	<path d="M27.725,4.943c-12.429,0-22.5,10.076-22.5,22.501c0,12.423,10.071,22.499,22.5,22.499   c12.427,0,22.498-10.075,22.5-22.499C50.225,15.021,40.153,4.943,27.725,4.943z M27.726,41.039c-7.576,0-13.712-6.14-13.716-13.712   c0.003-5.697,3.474-10.588,8.43-12.653c0.954-0.401,2.052,0.048,2.449,1.005c0.402,0.954-0.051,2.051-1.004,2.453   c-3.599,1.505-6.126,5.055-6.123,9.195c0.01,5.5,4.458,9.95,9.964,9.96c5.499-0.01,9.95-4.46,9.959-9.96   c0.002-3.347-1.673-6.282-4.206-8.088l1.167,2.913c0.385,0.964-0.083,2.055-1.046,2.439c-0.229,0.09-0.463,0.134-0.693,0.134   c-0.744,0-1.449-0.447-1.742-1.18l-2.85-7.13c-0.018-0.044-0.008-0.093-0.022-0.138c-0.048-0.15-0.067-0.301-0.075-0.462   c-0.005-0.105-0.013-0.205-0.002-0.31c0.007-0.051-0.01-0.099,0-0.15c0.023-0.111,0.087-0.199,0.126-0.302   c0.027-0.07,0.024-0.147,0.06-0.214c0.015-0.027,0.043-0.042,0.059-0.068c0.092-0.152,0.209-0.275,0.337-0.394   c0.061-0.056,0.106-0.123,0.173-0.171c0.195-0.14,0.413-0.239,0.649-0.296c0.017-0.004,0.027-0.017,0.044-0.021l0.008-0.001   c0.004-0.001,0.007-0.001,0.012-0.002l7.487-1.602c1.012-0.219,2.007,0.426,2.223,1.44c0.217,1.012-0.43,2.006-1.44,2.226   l-1.992,0.427c3.324,2.501,5.474,6.471,5.476,10.952C41.436,34.899,35.296,41.039,27.726,41.039z" display="inline" fill="&fill_color;"/>
</g></svg>