<?xml version="1.0" encoding="UTF-8" standalone="no"?>
<!-- Generator: Adobe Illustrator 19.0.0, SVG Export Plug-In . SVG Version: 6.00 Build 0)  -->

<svg
   xmlns:dc="http://purl.org/dc/elements/1.1/"
   xmlns:cc="http://creativecommons.org/ns#"
   xmlns:rdf="http://www.w3.org/1999/02/22-rdf-syntax-ns#"
   xmlns:svg="http://www.w3.org/2000/svg"
   xmlns="http://www.w3.org/2000/svg"
   xmlns:sodipodi="http://sodipodi.sourceforge.net/DTD/sodipodi-0.dtd"
   xmlns:inkscape="http://www.inkscape.org/namespaces/inkscape"
   version="1.1"
   id="Layer_1"
   x="0px"
   y="0px"
   viewBox="0 0 55 55"
   xml:space="preserve"
   sodipodi:docname="route.svg"
   style="fill:#D3D3D3"
   width="55"
   height="55"
   inkscape:version="0.92.3 (2405546, 2018-03-11)"><metadata
   id="metadata151"><rdf:RDF><cc:Work
       rdf:about=""><dc:format>image/svg+xml</dc:format><dc:type
         rdf:resource="http://purl.org/dc/dcmitype/StillImage" /><dc:title></dc:title></cc:Work></rdf:RDF></metadata><defs
   id="defs149">

</defs><sodipodi:namedview
   pagecolor="#ffffff"
   bordercolor="#666666"
   borderopacity="1"
   objecttolerance="10"
   gridtolerance="10"
   guidetolerance="10"
   inkscape:pageopacity="0"
   inkscape:pageshadow="2"
   inkscape:window-width="1263"
   inkscape:window-height="682"
   id="namedview147"
   showgrid="false"
   inkscape:zoom="4"
   inkscape:cx="44.585488"
   inkscape:cy="8.6071247"
   inkscape:window-x="175"
   inkscape:window-y="169"
   inkscape:window-maximized="0"
   inkscape:current-layer="Layer_1" />


<g
   id="g18"
   transform="matrix(0.13293506,0,0,0.13293506,-14.455215,-17.372928)">
	<g
   id="g16">
		<path
   d="m 344.963,206.199 c -10.528,0.025 -19.037,8.572 -19.012,19.088 0.025,10.515 8.546,19.012 19.05,19.012 0.013,0 0.024,0 0.037,0 10.528,-0.025 19.037,-8.572 19.013,-19.088 -0.027,-10.529 -8.573,-19.038 -19.088,-19.012 z"
   id="path14"
   inkscape:connector-curvature="0" />
	</g>
</g>
<g
   id="g24"
   transform="matrix(0.13293506,0,0,0.13293506,-14.455215,-17.372928)">
	<g
   id="g22">
		<path
   d="m 399.521,206.199 c -10.528,0.025 -19.037,8.572 -19.012,19.088 0.025,10.515 8.546,19.012 19.05,19.012 0.013,0 0.024,0 0.037,0 10.528,-0.025 19.037,-8.572 19.013,-19.088 -0.027,-10.529 -8.572,-19.038 -19.088,-19.012 z"
   id="path20"
   inkscape:connector-curvature="0" />
	</g>
</g>
<g
   id="g30"
   transform="matrix(0.13293506,0,0,0.13293506,-14.455215,-17.372928)">
	<g
   id="g28">
		<path
   d="m 361.422,296.914 c -10.528,0.025 -19.037,8.572 -19.012,19.088 0.025,10.503 8.546,19.012 19.05,19.012 0.013,0 0.025,0 0.037,0 10.516,-0.025 19.037,-8.572 19.013,-19.088 -0.027,-10.529 -8.573,-19.037 -19.088,-19.012 z"
   id="path26"
   inkscape:connector-curvature="0" />
	</g>
</g>
<g
   id="g36"
   transform="matrix(0.13293506,0,0,0.13293506,-14.455215,-17.372928)">
	<g
   id="g34">
		<path
   d="m 354.499,451.255 c -10.514,0.013 -19.037,8.56 -19.012,19.075 0.013,10.516 8.534,19.024 19.05,19.024 0.013,0 0.013,0 0.025,0 10.528,-0.025 19.037,-8.572 19.024,-19.088 -0.025,-10.527 -8.57,-19.036 -19.087,-19.011 z"
   id="path32"
   inkscape:connector-curvature="0" />
	</g>
</g>
<g
   id="g42"
   transform="matrix(0.13293506,0,0,0.13293506,-14.455215,-17.372928)">
	<g
   id="g40">
		<path
   d="m 412.462,296.8 c -10.515,0.025 -19.024,8.572 -18.999,19.101 0.013,10.503 8.546,18.999 19.05,18.999 0.013,0 0.025,0 0.037,0 10.516,-0.013 19.024,-8.56 18.999,-19.088 -0.011,-10.516 -8.558,-19.025 -19.087,-19.012 z"
   id="path38"
   inkscape:connector-curvature="0" />
	</g>
</g>
<g
   id="g48"
   transform="matrix(0.13293506,0,0,0.13293506,-14.455215,-17.372928)">
	<g
   id="g46">
		<path
   d="m 405.554,451.154 c -10.528,0.025 -19.037,8.572 -19.023,19.088 0.025,10.516 8.546,19.012 19.05,19.012 0.013,0 0.025,0 0.037,0 10.516,-0.013 19.037,-8.56 19.013,-19.075 -0.016,-10.529 -8.562,-19.039 -19.077,-19.025 z"
   id="path44"
   inkscape:connector-curvature="0" />
	</g>
</g>
<g
   id="g54"
   transform="matrix(0.13293506,0,0,0.13293506,-14.455215,-17.372928)">
	<g
   id="g52">
		<path
   d="m 507.736,365.9 c -2.959,-10.096 -13.538,-15.875 -23.634,-12.916 -10.109,2.959 -15.888,13.538 -12.916,23.634 2.426,8.306 10.021,13.703 18.262,13.703 1.778,0 3.581,-0.254 5.372,-0.775 10.096,-2.971 15.875,-13.55 12.916,-23.646 z"
   id="path50"
   inkscape:connector-curvature="0" />
	</g>
</g>
<g
   id="g60"
   transform="matrix(0.13293506,0,0,0.13293506,-14.455215,-17.372928)">
	<g
   id="g58">
		<path
   d="m 494.197,403.605 c -9.779,-3.861 -20.853,0.94 -24.714,10.731 -3.848,9.779 0.953,20.841 10.731,24.701 2.299,0.914 4.661,1.333 6.985,1.333 7.595,0 14.77,-4.572 17.729,-12.065 3.863,-9.777 -0.939,-20.839 -10.731,-24.7 z"
   id="path56"
   inkscape:connector-curvature="0" />
	</g>
</g>
<g
   id="g66"
   transform="matrix(0.13293506,0,0,0.13293506,-14.455215,-17.372928)">
	<g
   id="g64">
		<path
   d="m 471.072,449.744 c -5.359,-9.055 -17.044,-12.039 -26.098,-6.68 -9.055,5.359 -12.039,17.056 -6.68,26.098 3.569,6.007 9.906,9.347 16.408,9.347 3.302,0 6.655,-0.864 9.703,-2.667 9.042,-5.372 12.039,-17.056 6.667,-26.098 z"
   id="path62"
   inkscape:connector-curvature="0" />
	</g>
</g>
<g
   id="g72"
   transform="matrix(0.13293506,0,0,0.13293506,-14.455215,-17.372928)">
	<g
   id="g70">
		<path
   d="m 296.538,275.439 c -1.88,-10.35 -11.798,-17.208 -22.149,-15.329 -10.349,1.88 -17.221,11.798 -15.327,22.149 1.675,9.207 9.69,15.646 18.718,15.646 1.132,0 2.273,-0.102 3.429,-0.318 10.351,-1.88 17.207,-11.798 15.329,-22.148 z"
   id="path68"
   inkscape:connector-curvature="0" />
	</g>
</g>
<g
   id="g78"
   transform="matrix(0.13293506,0,0,0.13293506,-14.455215,-17.372928)">
	<g
   id="g76">
		<path
   d="m 311.205,222.747 c -6.185,-8.522 -18.097,-10.401 -26.606,-4.216 0,-0.013 0,-0.013 0,-0.013 -8.509,6.185 -10.4,18.097 -4.215,26.619 3.721,5.131 9.538,7.849 15.429,7.849 3.873,0 7.799,-1.181 11.176,-3.632 8.509,-6.186 10.401,-18.098 4.216,-26.607 z"
   id="path74"
   inkscape:connector-curvature="0" />
	</g>
</g>
<g
   id="g84"
   transform="matrix(0.13293506,0,0,0.13293506,-14.455215,-17.372928)">
	<g
   id="g82">
		<path
   d="m 315.524,296.088 c -10.147,-2.756 -20.612,3.251 -23.356,13.411 -2.756,10.147 3.252,20.612 13.412,23.355 1.664,0.457 3.34,0.673 4.991,0.673 8.382,0 16.078,-5.588 18.377,-14.084 2.742,-10.147 -3.264,-20.611 -13.424,-23.355 z"
   id="path80"
   inkscape:connector-curvature="0" />
	</g>
</g>
<g
   id="g90"
   transform="matrix(0.13293506,0,0,0.13293506,-14.455215,-17.372928)">
	<g
   id="g88">
		<path
   d="m 471.618,314.922 c -8.536,-6.147 -20.448,-4.216 -26.594,4.318 -6.159,8.534 -4.216,20.434 4.318,26.594 3.364,2.426 7.264,3.594 11.112,3.594 5.917,0 11.747,-2.743 15.48,-7.912 6.148,-8.534 4.217,-20.447 -4.316,-26.594 z"
   id="path86"
   inkscape:connector-curvature="0" />
	</g>
</g>
<g
   id="g96"
   transform="matrix(0.13293506,0,0,0.13293506,-14.455215,-17.372928)">
	<g
   id="g94">
		<path
   d="m 252.406,451.433 c -10.516,0.013 -19.037,8.56 -19.012,19.088 0.013,10.503 8.534,19.012 19.037,19.012 0.013,0 0.025,0 0.038,0 10.528,-0.025 19.037,-8.56 19.012,-19.088 -0.014,-10.516 -8.559,-19.037 -19.075,-19.012 z"
   id="path92"
   inkscape:connector-curvature="0" />
	</g>
</g>
<g
   id="g102"
   transform="matrix(0.13293506,0,0,0.13293506,-14.455215,-17.372928)">
	<g
   id="g100">
		<path
   d="m 201.353,451.522 c -10.515,0.025 -19.024,8.56 -19.012,19.088 0.025,10.503 8.547,19.012 19.05,19.012 0.013,0 0.025,0 0.038,0 10.515,-0.013 19.037,-8.56 19.012,-19.088 -0.013,-10.516 -8.56,-19.025 -19.088,-19.012 z"
   id="path98"
   inkscape:connector-curvature="0" />
	</g>
</g>
<g
   id="g108"
   transform="matrix(0.13293506,0,0,0.13293506,-14.455215,-17.372928)">
	<g
   id="g106">
		<path
   d="m 151.399,451.522 c -10.516,0.025 -19.024,8.56 -19.012,19.088 0.025,10.503 8.547,19.012 19.05,19.012 0.013,0 0.025,0 0.038,0 10.516,-0.013 19.037,-8.56 19.012,-19.088 -0.013,-10.516 -8.56,-19.025 -19.088,-19.012 z"
   id="path104"
   inkscape:connector-curvature="0" />
	</g>
</g>
<g
   id="g114"
   transform="matrix(0.13293506,0,0,0.13293506,-14.455215,-17.372928)">
	<g
   id="g112">
		<path
   d="m 303.446,451.344 c -10.514,0.013 -19.023,8.56 -19.012,19.075 0.027,10.516 8.547,19.024 19.05,19.024 0.013,0 0.027,0 0.038,0 10.516,-0.025 19.037,-8.572 19.012,-19.088 -0.012,-10.515 -8.56,-19.036 -19.088,-19.011 z"
   id="path110"
   inkscape:connector-curvature="0" />
	</g>
</g>
<g
   id="g116"
   transform="translate(0,-457)">
</g>
<g
   id="g118"
   transform="translate(0,-457)">
</g>
<g
   id="g120"
   transform="translate(0,-457)">
</g>
<g
   id="g122"
   transform="translate(0,-457)">
</g>
<g
   id="g124"
   transform="translate(0,-457)">
</g>
<g
   id="g126"
   transform="translate(0,-457)">
</g>
<g
   id="g128"
   transform="translate(0,-457)">
</g>
<g
   id="g130"
   transform="translate(0,-457)">
</g>
<g
   id="g132"
   transform="translate(0,-457)">
</g>
<g
   id="g134"
   transform="translate(0,-457)">
</g>
<g
   id="g136"
   transform="translate(0,-457)">
</g>
<g
   id="g138"
   transform="translate(0,-457)">
</g>
<g
   id="g140"
   transform="translate(0,-457)">
</g>
<g
   id="g142"
   transform="translate(0,-457)">
</g>
<g
   id="g144"
   transform="translate(0,-457)">
</g>
</svg>
