<?xml version="1.0" encoding="UTF-8" standalone="no"?>
<svg
   xmlns:dc="http://purl.org/dc/elements/1.1/"
   xmlns:cc="http://creativecommons.org/ns#"
   xmlns:rdf="http://www.w3.org/1999/02/22-rdf-syntax-ns#"
   xmlns:svg="http://www.w3.org/2000/svg"
   xmlns="http://www.w3.org/2000/svg"
   xmlns:sodipodi="http://sodipodi.sourceforge.net/DTD/sodipodi-0.dtd"
   xmlns:inkscape="http://www.inkscape.org/namespaces/inkscape"
   version="1.1"
   id="Layer_1"
   x="0px"
   y="0px"
   viewBox="0 0 55 55"
   xml:space="preserve"
   sodipodi:docname="route-start.svg"
   width="55"
   height="55"
   inkscape:version="0.92.3 (2405546, 2018-03-11)"><metadata
   id="metadata151"><rdf:RDF><cc:Work
       rdf:about=""><dc:format>image/svg+xml</dc:format><dc:type
         rdf:resource="http://purl.org/dc/dcmitype/StillImage" /><dc:title></dc:title></cc:Work></rdf:RDF></metadata><defs
   id="defs149" /><sodipodi:namedview
   pagecolor="#ffffff"
   bordercolor="#666666"
   borderopacity="1"
   objecttolerance="10"
   gridtolerance="10"
   guidetolerance="10"
   inkscape:pageopacity="0"
   inkscape:pageshadow="2"
   inkscape:window-width="1238"
   inkscape:window-height="685"
   id="namedview147"
   showgrid="false"
   inkscape:zoom="2.8284271"
   inkscape:cx="-2.9709847"
   inkscape:cy="62.004311"
   inkscape:window-x="67"
   inkscape:window-y="27"
   inkscape:window-maximized="0"
   inkscape:current-layer="Layer_1" />
<g
   id="g6"
   transform="matrix(0.18622945,0,0,0.18622945,10.70958,-29.073744)">
	<g
   id="g4">
		<path style="fill:#D3D3D3"
   d="m 159.32,196.748 c -17.544,-17.169 -40.963,-26.619 -65.961,-26.619 -0.06,0 -0.116,0 -0.177,0 C 41.71,170.221 -0.091,212.172 0,263.645 c 0.071,39.96 60.42,129.989 93.611,174.97 33.029,-45.525 93.156,-136.69 93.085,-176.674 -0.045,-24.807 -9.766,-47.958 -27.376,-65.193 z M 93.396,295.429 C 78.302,295.456 66.044,283.241 66.018,268.147 65.991,253.053 78.205,240.795 93.3,240.769 c 15.094,-0.027 27.352,12.188 27.378,27.282 0.026,15.094 -12.188,27.352 -27.282,27.378 z"
   id="path2"
   inkscape:connector-curvature="0" />
	</g>
</g>


















<g
   id="g116"
   transform="translate(0,-457)">
</g>
<g
   id="g118"
   transform="translate(0,-457)">
</g>
<g
   id="g120"
   transform="translate(0,-457)">
</g>
<g
   id="g122"
   transform="translate(0,-457)">
</g>
<g
   id="g124"
   transform="translate(0,-457)">
</g>
<g
   id="g126"
   transform="translate(0,-457)">
</g>
<g
   id="g128"
   transform="translate(0,-457)">
</g>
<g
   id="g130"
   transform="translate(0,-457)">
</g>
<g
   id="g132"
   transform="translate(0,-457)">
</g>
<g
   id="g134"
   transform="translate(0,-457)">
</g>
<g
   id="g136"
   transform="translate(0,-457)">
</g>
<g
   id="g138"
   transform="translate(0,-457)">
</g>
<g
   id="g140"
   transform="translate(0,-457)">
</g>
<g
   id="g142"
   transform="translate(0,-457)">
</g>
<g
   id="g144"
   transform="translate(0,-457)">
</g>
</svg>
