<?xml version="1.0" encoding="UTF-8" standalone="no"?>
<!-- Created with Inkscape (http://www.inkscape.org/) -->

<svg
   version="1.0"
   width="42"
   height="42"
   id="svg2"
   sodipodi:docname="template-word.svg"
   inkscape:version="1.1.1 (1:1.1+202109281943+c3084ef5ed)"
   xmlns:inkscape="http://www.inkscape.org/namespaces/inkscape"
   xmlns:sodipodi="http://sodipodi.sourceforge.net/DTD/sodipodi-0.dtd"
   xmlns="http://www.w3.org/2000/svg"
   xmlns:svg="http://www.w3.org/2000/svg"
   xmlns:rdf="http://www.w3.org/1999/02/22-rdf-syntax-ns#"
   xmlns:cc="http://creativecommons.org/ns#"
   xmlns:dc="http://purl.org/dc/elements/1.1/">
  <sodipodi:namedview
     pagecolor="#ffffff"
     bordercolor="#666666"
     borderopacity="1"
     objecttolerance="10"
     gridtolerance="10"
     guidetolerance="10"
     inkscape:pageopacity="0"
     inkscape:pageshadow="2"
     inkscape:window-width="1528"
     inkscape:window-height="845"
     id="namedview4595"
     showgrid="false"
     inkscape:zoom="14.238095"
     inkscape:cx="22.615385"
     inkscape:cy="11.307692"
     inkscape:window-x="72"
     inkscape:window-y="27"
     inkscape:window-maximized="1"
     inkscape:current-layer="svg2"
     inkscape:pagecheckerboard="0" />
  <defs
     id="defs4" />
  <metadata
     id="metadata7">
    <rdf:RDF>
      <cc:Work
         rdf:about="">
        <dc:format>image/svg+xml</dc:format>
        <dc:type
           rdf:resource="http://purl.org/dc/dcmitype/StillImage" />
      </cc:Work>
    </rdf:RDF>
  </metadata>
  <rect
     style="fill:#4c4d4f;fill-opacity:1;fill-rule:evenodd;stroke:#ffffff;stroke-width:3.5;stroke-linecap:butt;stroke-linejoin:round;stroke-miterlimit:4;stroke-dasharray:none;stroke-opacity:1"
     id="rect3133"
     y="5.9769125"
     x="5.9769125"
     ry="4.5299301"
     height="30.046175"
     width="30.046175" />
  <g
     aria-label="word"
     id="text4563"
     style="font-size:18.6667px;line-height:1.25;font-family:Graphecrit;-inkscape-font-specification:Graphecrit;letter-spacing:0px;word-spacing:0px">
    <path
       d="m 18.53818,20.630007 q 0.04667,0.06533 0.04667,0.14 0,0.01867 -0.0093,0.04667 -0.01867,0.09333 -0.102667,0.158667 -0.597334,0.410667 -1.250669,0.410667 -0.205334,0 -0.410667,-0.03733 v 0.04667 q 0,0.784001 -0.289334,1.456002 -0.354667,0.812002 -1.045335,1.110669 -0.308001,0.130667 -0.578668,0.130667 -0.298667,0 -0.541334,-0.168 -0.261334,-0.186667 -0.438668,-0.616001 -0.298667,0.438667 -0.793335,0.653334 -0.308,0.130667 -0.588001,0.130667 -0.298667,0 -0.541334,-0.158667 -0.840001,-0.522668 -0.970668,-2.837338 0,-0.084 -0.0093,-0.354668 0,-0.121333 -0.03733,-0.130667 h -0.028 q -0.06533,0 -0.149334,0.04667 -0.14,0.07467 -0.252,0.242667 -0.130667,0.186667 -0.410668,0.765335 -0.3546669,0.709335 -0.5226672,0.933335 -0.065334,0.084 -0.158667,0.102667 h -0.028 q -0.084,0 -0.158667,-0.04667 -0.084,-0.06533 -0.093333,-0.168 v -0.04667 q 0,-0.07467 0.046667,-0.130667 0.1400002,-0.196 0.4760008,-0.858668 0.2986673,-0.606668 0.4386671,-0.830668 0.196001,-0.280001 0.466668,-0.420001 0.177334,-0.084 0.345334,-0.084 0.09333,0 0.177334,0.028 0.177333,0.056 0.28,0.214667 0.102667,0.158667 0.102667,0.382667 0,0.242667 0.0093,0.326668 0.112,2.06267 0.737335,2.445337 0.130667,0.084 0.289334,0.084 0.168,0 0.382667,-0.09333 0.522668,-0.214667 0.802668,-0.886668 -0.09333,-0.550668 -0.09333,-1.325336 0,-0.438668 0.028,-0.942668 0,-0.102667 0.07467,-0.168001 0.07467,-0.06533 0.177333,-0.06533 0.102667,0.0093 0.168001,0.084 0.06533,0.06533 0.06533,0.158667 v 0.01867 q -0.028,0.485334 -0.028,0.896001 0,0.877335 0.121333,1.437336 0.130667,0.625335 0.392001,0.812002 0.112,0.07467 0.261334,0.07467 0.168,0 0.392001,-0.09333 0.466667,-0.196 0.737334,-0.756001 0.177334,-0.364001 0.252001,-0.802669 0.04667,-0.28 0.04667,-0.541334 0,-0.112 -0.0093,-0.224 -0.102667,-0.056 -0.186667,-0.112 -0.373334,-0.261334 -0.373334,-0.541335 0,-0.04667 0.0093,-0.102667 0.06533,-0.261333 0.401334,-0.308 h 0.04667 q 0.364001,0 0.513335,0.569334 0.01867,0.06533 0.03733,0.14 0.233334,0.07467 0.457334,0.07467 0.494668,0 0.970669,-0.336 0.06533,-0.04667 0.14,-0.04667 0.01867,0 0.04667,0.0093 0.102666,0.01867 0.158667,0.102667 z"
       style="fill:#ffffff"
       id="path943" />
    <path
       d="m 19.592838,24.09268 q 0.382667,0 0.765335,-0.149334 0.765334,-0.336 1.073335,-1.036001 0.149334,-0.354668 0.149334,-0.728002 0,-0.373334 -0.149334,-0.756001 l -0.03733,-0.09333 h 0.028 q 0.802668,0 1.390669,-0.457334 0.07467,-0.07467 0.07467,-0.177333 0.0093,-0.102667 -0.056,-0.177334 -0.07467,-0.084 -0.186667,-0.084 h -0.01867 q -0.09333,0 -0.168001,0.06533 -0.308,0.242667 -0.700001,0.298667 -0.242667,0.03733 -0.438667,0.03733 -0.140001,0 -0.252001,-0.01867 -0.270667,-0.298667 -0.522667,-0.438667 -0.242667,-0.140001 -0.364001,-0.177334 -0.121334,-0.056 -0.308001,-0.07467 -0.056,-0.0093 -0.102666,-0.0093 -0.140001,0 -0.261334,0.056 -0.056,0.028 -0.09333,0.06533 -0.308,0.028 -0.597334,0.140001 -0.765335,0.336 -1.073335,1.045335 -0.149334,0.354667 -0.149334,0.728001 0,0.373334 0.149334,0.756002 0.326667,0.728001 1.082668,1.036001 0.373334,0.149334 0.765335,0.149334 z m -0.205334,-3.341339 q 0.140001,0.168 0.494668,0.308 0.373334,0.149334 0.896001,0.233334 0.09333,0.14 0.168001,0.317334 0.112,0.289334 0.112,0.560001 0,0.28 -0.168,0.672001 -0.168001,0.392001 -0.737335,0.634668 -0.280001,0.112 -0.560001,0.112 -0.280001,0 -0.560001,-0.112 -0.560001,-0.224001 -0.802668,-0.765335 -0.112,-0.289334 -0.112,-0.560001 0,-0.270667 0.168,-0.662668 0.168,-0.401334 0.737335,-0.644001 0.177333,-0.07467 0.364,-0.09333 z"
       style="fill:#ffffff"
       id="path945" />
    <path
       d="m 24.660815,24.09268 q 0.130667,0 0.289334,-0.03733 0.597335,-0.168001 1.120002,-0.634668 0.522668,-0.466668 0.802668,-0.840002 0.04667,-0.084 0.04667,-0.158667 0,-0.01867 -0.0093,-0.07467 -0.0093,-0.056 -0.084,-0.121333 -0.07467,-0.056 -0.158667,-0.056 -0.0093,0 -0.06533,0.0093 -0.056,0.0093 -0.121333,0.084 -0.308001,0.420001 -0.756002,0.802668 -0.448001,0.373334 -0.886668,0.494668 -0.07467,0.01867 -0.177334,0.01867 h -0.028 q -0.084,0 -0.121333,-0.03733 -0.07467,-0.09333 -0.07467,-0.289334 0,-0.09333 0.03733,-0.326667 0.03733,-0.233334 0.149334,-0.634668 0.121334,-0.410667 0.224,-0.728001 0.196001,-0.560001 0.252001,-0.849335 0.01867,-0.102667 0.01867,-0.177333 0,-0.158667 -0.06533,-0.252001 -0.102667,-0.130667 -0.252,-0.130667 -0.261334,0.0093 -0.532001,0.04667 -0.233334,0.04667 -0.429334,0.04667 -0.261334,0 -0.476001,-0.07467 0.01867,-0.056 0.01867,-0.102667 0,-0.07467 -0.03733,-0.149334 -0.130667,-0.270667 -0.270667,-0.345334 -0.09333,-0.056 -0.168,-0.056 -0.028,0 -0.056,0.0093 -0.214667,0.028 -0.270667,0.261334 -0.0093,0.04667 -0.0093,0.09333 0,0.177334 0.149334,0.392001 -0.06533,0.056 -0.149334,0.130667 -0.084,0.06533 -0.09333,0.168 v 0.01867 q 0,0.084 0.056,0.168 0.06533,0.084 0.158666,0.09333 h 0.028 q 0.07467,0 0.149333,-0.04667 0.121334,-0.09333 0.224001,-0.205334 0.289333,0.149334 0.606667,0.149334 0.317334,0 0.625335,-0.04667 0.01867,0 0.03733,-0.0093 l 0.242667,-0.01867 q -0.028,0.14 -0.09333,0.336 -0.056,0.186667 -0.112,0.373334 -0.0093,0.0093 -0.0093,0.01867 -0.252,0.728001 -0.392001,1.409336 -0.03733,0.214667 -0.03733,0.401334 0,0.401334 0.186667,0.662668 0.186667,0.214667 0.513334,0.214667 z"
       style="fill:#ffffff"
       id="path947" />
    <path
       d="m 28.338132,23.551346 q 0.578668,0 0.998669,-0.420001 0.420001,-0.410667 0.420001,-1.008002 0,-0.588001 -0.420001,-1.008002 -0.420001,-0.42 -0.998669,-0.42 -0.588001,0 -1.008001,0.42 -0.420001,0.420001 -0.420001,1.008002 0,0.588001 0.420001,1.008002 0.42,0.420001 1.008001,0.420001 z m 4.153341,-1.241336 q 0.084,0.06533 0.102667,0.168 v 0.028 q 0,0.084 -0.03733,0.158667 -0.709335,1.008002 -1.773337,1.372003 -0.158667,0.056 -0.298667,0.056 -0.186667,0 -0.345334,-0.09333 -0.308001,-0.186667 -0.382667,-0.588001 -0.569335,0.644002 -1.41867,0.644002 -0.802668,0 -1.362669,-0.569335 -0.569334,-0.569334 -0.569334,-1.362669 0,-0.793335 0.569334,-1.362669 0.560001,-0.569334 1.362669,-0.569334 0.849335,0 1.41867,0.644001 v -4.452008 q 0,-0.102667 0.07467,-0.177334 0.07467,-0.07467 0.177334,-0.07467 0.102667,0 0.177334,0.07467 0.07467,0.07467 0.07467,0.177334 v 6.972012 q 0.130666,0.205334 0.14,0.214667 0.028,0.01867 0.084,0.01867 0.056,0 0.14,-0.028 0.896002,-0.308001 1.512003,-1.185335 0.06533,-0.084 0.168,-0.102667 0.01867,-0.0093 0.056,-0.0093 0.056,0 0.130667,0.04667 z"
       style="fill:#ffffff"
       id="path949" />
  </g>
</svg>
