<?xml version="1.0" encoding="UTF-8" standalone="no"?>
<!-- Created with Inkscape (http://www.inkscape.org/) -->

<svg
   xmlns:dc="http://purl.org/dc/elements/1.1/"
   xmlns:cc="http://creativecommons.org/ns#"
   xmlns:rdf="http://www.w3.org/1999/02/22-rdf-syntax-ns#"
   xmlns:svg="http://www.w3.org/2000/svg"
   xmlns="http://www.w3.org/2000/svg"
   xmlns:sodipodi="http://sodipodi.sourceforge.net/DTD/sodipodi-0.dtd"
   xmlns:inkscape="http://www.inkscape.org/namespaces/inkscape"
   version="1.0"
   width="42"
   height="42"
   id="svg2"
   sodipodi:docname="template-lower.svg"
   inkscape:version="0.92.3 (2405546, 2018-03-11)">
  <sodipodi:namedview
     pagecolor="#ffffff"
     bordercolor="#666666"
     borderopacity="1"
     objecttolerance="10"
     gridtolerance="10"
     guidetolerance="10"
     inkscape:pageopacity="0"
     inkscape:pageshadow="2"
     inkscape:window-width="1449"
     inkscape:window-height="809"
     id="namedview4595"
     showgrid="false"
     inkscape:zoom="14.238095"
     inkscape:cx="21.351171"
     inkscape:cy="23.120403"
     inkscape:window-x="67"
     inkscape:window-y="27"
     inkscape:window-maximized="0"
     inkscape:current-layer="svg2" />
  <defs
     id="defs4" />
  <metadata
     id="metadata7">
    <rdf:RDF>
      <cc:Work
         rdf:about="">
        <dc:format>image/svg+xml</dc:format>
        <dc:type
           rdf:resource="http://purl.org/dc/dcmitype/StillImage" />
        <dc:title />
      </cc:Work>
    </rdf:RDF>
  </metadata>
  <rect
     style="fill:#4c4d4f;fill-opacity:1;fill-rule:evenodd;stroke:#ffffff;stroke-width:3.5;stroke-linecap:butt;stroke-linejoin:round;stroke-miterlimit:4;stroke-dasharray:none;stroke-opacity:1"
     id="rect3133"
     y="5.9769125"
     x="5.9769125"
     ry="4.5299301"
     height="30.046175"
     width="30.046175" />
  <g
     aria-label="a"
     style="font-style:normal;font-variant:normal;font-weight:normal;font-stretch:normal;font-size:40px;line-height:1.25;font-family:'Cursive standard';-inkscape-font-specification:'Cursive standard';letter-spacing:0px;word-spacing:0px;fill:#000000;fill-opacity:1;stroke:none"
     id="text5229">
    <path
       d="m 31.963612,22.137791 q 0,0.08 -0.08,0.24 -0.04,0.12 -0.08,0.2 -0.28,0.52 -0.56,1.08 -0.24,0.52 -0.68,1.2 -0.48,0.72 -1.04,1.44 -0.56,0.72 -1.2,1.32 -0.6,0.56 -1.24,0.88 -0.64,0.36 -1.28,0.36 -1.2,0 -1.92,-0.64 -0.68,-0.68 -0.92,-1.84 -0.92,1.16 -2.28,1.84 -1.32,0.64 -2.84,0.64 -1.36,0 -2.56,-0.52 -1.2,-0.56 -2.12,-1.44 -0.88,-0.92 -1.36,-2.12 -0.52,-1.24 -0.52,-2.6 0,-1.36 0.52,-2.56 0.48,-1.24 1.36,-2.16 0.92,-0.92 2.12,-1.44 1.2,-0.56 2.56,-0.56 1.44,0 2.76,0.64 1.32,0.6 2.24,1.68 0,-0.28 -0.04,-0.64 -0.04,-0.4 0,-0.72 0.08,-0.36 0.24,-0.6 0.2,-0.24 0.6,-0.24 0.32,0 0.56,0.24 0.28,0.2 0.28,0.52 v 8.12 q 0,0.36 0,0.88 0,0.48 0.12,0.92 0.12,0.44 0.4,0.76 0.28,0.28 0.8,0.28 0.6,0 1.24,-0.56 0.68,-0.6 1.24,-1.36 0.6,-0.8 1.04,-1.64 0.48,-0.84 0.72,-1.32 0.16,-0.32 0.36,-0.68 0.24,-0.36 0.68,-0.36 0.32,0 0.6,0.24 0.28,0.2 0.28,0.52 z m -9.12,0.04 q 0,-1.04 -0.4,-1.96 -0.36,-0.92 -1.04,-1.64 -0.68,-0.72 -1.6,-1.12 -0.92,-0.44 -1.96,-0.44 -1.04,0 -1.96,0.44 -0.88,0.4 -1.56,1.12 -0.64,0.72 -1.04,1.64 -0.36,0.92 -0.36,1.96 0,1 0.36,1.96 0.4,0.92 1.04,1.64 0.68,0.68 1.56,1.12 0.92,0.4 1.96,0.4 1.04,0 1.96,-0.4 0.92,-0.44 1.6,-1.12 0.68,-0.72 1.04,-1.64 0.4,-0.92 0.4,-1.96 z"
       style="fill:#ffffff"
       id="path5231" />
  </g>
</svg>
