<?xml version="1.0" encoding="UTF-8" standalone="no"?>
<!-- Created with Inkscape (http://www.inkscape.org/) -->

<svg
   xmlns:dc="http://purl.org/dc/elements/1.1/"
   xmlns:cc="http://creativecommons.org/ns#"
   xmlns:rdf="http://www.w3.org/1999/02/22-rdf-syntax-ns#"
   xmlns:svg="http://www.w3.org/2000/svg"
   xmlns="http://www.w3.org/2000/svg"
   xmlns:sodipodi="http://sodipodi.sourceforge.net/DTD/sodipodi-0.dtd"
   xmlns:inkscape="http://www.inkscape.org/namespaces/inkscape"
   version="1.0"
   width="42"
   height="42"
   id="svg2"
   sodipodi:docname="template-upper.svg"
   inkscape:version="0.92.3 (2405546, 2018-03-11)">
  <sodipodi:namedview
     pagecolor="#ffffff"
     bordercolor="#666666"
     borderopacity="1"
     objecttolerance="10"
     gridtolerance="10"
     guidetolerance="10"
     inkscape:pageopacity="0"
     inkscape:pageshadow="2"
     inkscape:window-width="1449"
     inkscape:window-height="809"
     id="namedview4595"
     showgrid="false"
     inkscape:zoom="14.238095"
     inkscape:cx="21"
     inkscape:cy="24.384614"
     inkscape:window-x="67"
     inkscape:window-y="27"
     inkscape:window-maximized="0"
     inkscape:current-layer="svg2" />
  <defs
     id="defs4" />
  <metadata
     id="metadata7">
    <rdf:RDF>
      <cc:Work
         rdf:about="">
        <dc:format>image/svg+xml</dc:format>
        <dc:type
           rdf:resource="http://purl.org/dc/dcmitype/StillImage" />
        <dc:title />
      </cc:Work>
    </rdf:RDF>
  </metadata>
  <rect
     style="fill:#4c4d4f;fill-opacity:1;fill-rule:evenodd;stroke:#ffffff;stroke-width:3.5;stroke-linecap:butt;stroke-linejoin:round;stroke-miterlimit:4;stroke-dasharray:none;stroke-opacity:1"
     id="rect3133"
     y="5.9769125"
     x="5.9769125"
     ry="4.5299301"
     height="30.046175"
     width="30.046175" />
  <g
     aria-label="A"
     style="font-style:normal;font-variant:normal;font-weight:normal;font-stretch:normal;font-size:40px;line-height:1.25;font-family:'Cursive standard';-inkscape-font-specification:'Cursive standard';letter-spacing:0px;word-spacing:0px;fill:#000000;fill-opacity:1;stroke:none"
     id="text5222">
    <path
       d="m 30.562903,27.715765 q 0,1.12 -0.346667,2.106667 -0.346666,0.96 -0.96,1.706667 -0.613333,0.72 -1.466667,1.173334 -0.826667,0.426666 -1.786667,0.426666 -1.466667,0 -2.320001,-0.906667 -0.826666,-0.906666 -1.253333,-2.213333 -0.4,-1.333334 -0.506667,-2.853335 -0.08,-1.546667 -0.08,-2.773334 0,-0.906666 0.02667,-1.786667 0.05333,-0.906667 0.106666,-1.786667 -0.666667,-0.186667 -1.306667,-0.4 -0.64,-0.24 -1.333333,-0.4 0,1.2 0,2.640001 0.02667,1.413333 -0.08,2.88 -0.08,1.466667 -0.373334,2.826668 -0.293333,1.36 -0.906667,2.426667 -0.586667,1.066667 -1.573333,1.706667 -0.986667,0.64 -2.506668,0.64 -0.4,0 -0.853333,-0.133333 -0.426667,-0.106667 -0.826667,-0.346667 -0.373334,-0.266666 -0.613334,-0.64 -0.266666,-0.373333 -0.266666,-0.933333 0,-0.720001 0.48,-1.226667 0.48,-0.533334 1.12,-0.533334 0.24,0 0.4,0.16 0.16,0.16 0.16,0.453334 0,0.32 -0.16,0.453333 -0.16,0.106667 -0.373333,0.186667 -0.186667,0.05333 -0.373334,0.16 -0.16,0.08 -0.16,0.346667 0,0.24 0.16,0.426666 0.186667,0.16 0.4,0.266667 0.24,0.08 0.48,0.106667 0.266667,0.02667 0.426667,0.02667 1.546667,0 2.426668,-0.88 0.88,-0.88 1.306667,-2.186667 0.426666,-1.333334 0.506666,-2.853334 0.106667,-1.546667 0.106667,-2.853334 v -3.280001 q -0.05333,0 -0.133333,0 -0.08,-0.02667 -0.16,-0.02667 -0.32,0 -0.613334,0.133334 -0.293333,0.106666 -0.533333,0.266666 -0.213334,0.133334 -0.4,0.266667 -0.160001,0.106667 -0.266667,0.106667 -0.213334,0 -0.373334,-0.186667 -0.16,-0.186667 -0.16,-0.426667 0,-0.266666 0.186667,-0.48 0.506667,-0.533333 1.146667,-0.746667 0.64,-0.213333 1.306667,-0.16 0,-1.146667 0.05333,-2.266667 0.05333,-1.12 0.05333,-2.266667 0,-0.746667 0.106666,-1.653334 0.133334,-0.933334 0.453334,-1.733334 0.32,-0.8266667 0.853333,-1.3866669 0.533334,-0.5600001 1.360001,-0.5600001 0.826667,0 1.28,0.5866668 0.48,0.5866668 0.693334,1.4400002 0.24,0.853334 0.293333,1.813334 0.05333,0.933334 0.05333,1.6 0,1.440001 -0.106666,2.826668 -0.106667,1.386667 -0.213334,2.800001 0.186667,0.02667 0.373334,0.05333 0.186666,0 0.373333,0 0.346667,0 0.613334,-0.16 0.293333,-0.186667 0.506666,-0.373334 0.213334,-0.213333 0.400001,-0.4 0.186666,-0.186666 0.373333,-0.186666 0.213333,0 0.373333,0.213333 0.186667,0.186667 0.186667,0.426667 0,0.213333 -0.186667,0.426667 -0.453333,0.506666 -1.04,0.906666 -0.586667,0.373334 -1.226667,0.373334 -0.213333,0 -0.426667,0 -0.186666,-0.02667 -0.4,-0.05333 -0.05333,0.88 -0.106666,1.786667 -0.02667,0.88 -0.02667,1.786667 0,0.906667 0.05333,2.186667 0.05333,1.253334 0.346667,2.400001 0.293333,1.146667 0.906667,1.946667 0.64,0.773333 1.786667,0.773333 0.746667,0 1.36,-0.346666 0.640001,-0.346667 1.093334,-0.906667 0.48,-0.586667 0.746667,-1.333334 0.266667,-0.773333 0.266667,-1.6 0,-0.560001 -0.346667,-1.066667 -0.346667,-0.506667 -0.88,-0.506667 -0.373334,0 -0.506667,0.213333 -0.133334,0.213334 -0.186667,0.453334 -0.05333,0.24 -0.16,0.453333 -0.08,0.213334 -0.4,0.213334 -0.213333,0 -0.373333,-0.16 -0.16,-0.160001 -0.16,-0.453334 0,-0.853333 0.533333,-1.386667 0.533333,-0.56 1.253334,-0.56 0.506666,0 0.933333,0.24 0.426667,0.213333 0.72,0.613333 0.32,0.400001 0.480001,0.906667 0.186666,0.506667 0.186666,1.040001 z M 22.349568,14.035761 q 0,-0.373333 -0.02667,-1.04 0,-0.666667 -0.133333,-1.333334 -0.106667,-0.693333 -0.373334,-1.173334 -0.24,-0.5066664 -0.693333,-0.5066664 -0.533334,0 -0.88,0.4800004 -0.320001,0.453333 -0.506667,1.12 -0.16,0.64 -0.24,1.333334 -0.05333,0.693333 -0.05333,1.146667 0,1.146667 -0.05333,2.346667 -0.05333,1.2 -0.05333,2.346667 0.693333,0.16 1.36,0.4 0.666667,0.213334 1.36,0.4 0.106667,-1.386667 0.186667,-2.746667 0.106667,-1.386667 0.106667,-2.773334 z"
       style="font-size:26.66667366px;fill:#ffffff"
       id="path5224" />
  </g>
</svg>
