<?xml version="1.0" encoding="UTF-8" standalone="no"?>
<!-- Created with Inkscape (http://www.inkscape.org/) -->

<svg
   xmlns:dc="http://purl.org/dc/elements/1.1/"
   xmlns:cc="http://creativecommons.org/ns#"
   xmlns:rdf="http://www.w3.org/1999/02/22-rdf-syntax-ns#"
   xmlns:svg="http://www.w3.org/2000/svg"
   xmlns="http://www.w3.org/2000/svg"
   xmlns:sodipodi="http://sodipodi.sourceforge.net/DTD/sodipodi-0.dtd"
   xmlns:inkscape="http://www.inkscape.org/namespaces/inkscape"
   width="55mm"
   height="55mm"
   viewBox="0 0 55 55"
   version="1.1"
   id="svg8"
   inkscape:version="0.91 r13725"
   sodipodi:docname="upper-b.svg">
  <defs
     id="defs2" />
  <sodipodi:namedview
     id="base"
     pagecolor="#ffffff"
     bordercolor="#666666"
     borderopacity="1.0"
     inkscape:pageopacity="0.0"
     inkscape:pageshadow="2"
     inkscape:zoom="1.4"
     inkscape:cx="70.230364"
     inkscape:cy="43.63747"
     inkscape:document-units="mm"
     inkscape:current-layer="layer1"
     showgrid="false"
     inkscape:window-width="1440"
     inkscape:window-height="800"
     inkscape:window-x="0"
     inkscape:window-y="1"
     inkscape:window-maximized="1" />
  <metadata
     id="metadata5">
    <rdf:RDF>
      <cc:Work
         rdf:about="">
        <dc:format>image/svg+xml</dc:format>
        <dc:type
           rdf:resource="http://purl.org/dc/dcmitype/StillImage" />
        <dc:title></dc:title>
      </cc:Work>
    </rdf:RDF>
  </metadata>
  <g
     inkscape:label="Calque 1"
     inkscape:groupmode="layer"
     id="layer1"
     transform="translate(0,-242)">
    <g
       style="font-style:normal;font-variant:normal;font-weight:normal;font-stretch:normal;font-size:63.49999619px;line-height:125%;font-family:Graphecrit;-inkscape-font-specification:Graphecrit;letter-spacing:0px;word-spacing:0px;fill:#000000;fill-opacity:1;stroke:none;stroke-width:1px;stroke-linecap:butt;stroke-linejoin:miter;stroke-opacity:1"
       id="text6642">
      <path
         d="m 30.718385,258.67524 q 0.567972,-0.19755 1.061861,-0.46919 -0.246945,0 -0.469195,0.0247 -1.679222,0.19756 -2.790472,1.08656 0.814917,-0.0988 2.197806,-0.64206 z m 7.111999,1.65453 q 1.975556,3.01272 1.975556,5.85258 0,2.04964 -1.061861,4.0252 -1.086556,2.02494 -3.1115,3.38314 -1.827389,1.23472 -3.383139,1.23472 -1.827389,0 -3.33375,-1.18533 -1.506361,-1.18534 -1.975555,-3.01273 -0.172861,-0.69144 -0.172861,-1.38289 0,-1.25941 0.617361,-2.46944 0.987778,-1.82739 3.259666,-3.1115 0.148167,-0.0988 0.321028,-0.0988 0.07408,0 0.172861,0.0247 0.271639,0.0741 0.419806,0.32103 0.07408,0.14816 0.07408,0.32102 0,0.0988 -0.02469,0.19756 -0.07408,0.27164 -0.321028,0.39511 -1.852083,1.06186 -2.642305,2.49414 -0.543278,0.93839 -0.543278,1.95086 0,0.51858 0.148166,1.03717 0.345723,1.38288 1.481667,2.27188 1.135944,0.9137 2.518833,0.9137 1.160639,0 2.642306,-1.01247 1.728611,-1.13595 2.666999,-2.91395 0.889,-1.62983 0.889,-3.38314 0,-2.44475 -1.753305,-5.11175 -1.210028,-1.87677 -2.938639,-2.54352 -1.086555,0.8643 -2.543527,1.40758 -1.926167,0.74083 -3.012722,0.74083 -1.012473,0 -1.284111,-0.61736 -0.09878,-0.19755 -0.09878,-0.4198 0,-0.34573 0.246944,-0.71614 0.419806,-0.61736 1.382889,-1.16064 1.679222,-0.9137 3.432528,-0.9137 0.790222,0 1.580444,0.17287 1.753305,-1.67923 1.753305,-4.12398 0,-0.34572 -0.02469,-0.69144 -0.246945,-2.46944 -1.901472,-4.49439 -1.679222,-2.02494 -3.827639,-2.51883 -1.234722,0.93839 -2.123722,2.71639 -1.234722,2.46944 -1.234722,5.92666 0,0.64206 0.04939,1.3335 0.02469,0.66675 0.172861,2.54353 0.395111,4.79072 0.395111,7.77875 0,1.30881 -0.07408,2.24719 -0.469195,5.48217 -3.1115,6.59342 -1.037167,0.4445 -2.024944,0.4445 -2.321278,0 -3.383139,-1.90147 -0.4445,-0.79022 -0.4445,-1.67922 0,-0.4692 0.123472,-0.93839 0.370417,-1.58045 1.950861,-2.6917 0.172861,-0.12347 0.370417,-0.12347 0.04939,0 0.123472,0.0247 0.271639,0.0494 0.4445,0.27164 0.123472,0.17286 0.123472,0.37042 0,0.0494 -0.02469,0.12347 -0.04939,0.29634 -0.271639,0.4445 -1.11125,0.76553 -1.407583,1.82739 -0.09878,0.32103 -0.09878,0.64206 0,0.56797 0.296333,1.08655 0.4445,0.79022 1.382889,1.08656 0.395111,0.12347 0.790222,0.12347 0.716139,0 1.506361,-0.34572 2.074333,-0.86431 2.345972,-6.17361 0.04939,-0.76553 0.04939,-1.70392 0,-2.83986 -0.395111,-7.38364 -0.148167,-1.97555 -0.197556,-2.59291 -0.04939,-0.71614 -0.04939,-1.38289 0,-5.65503 2.963333,-8.86531 l -0.07408,0 q -3.407833,0 -6.494638,2.19781 -2.667,1.90147 -3.432528,4.04989 -0.395111,1.06186 -0.395111,1.97555 0,1.28411 0.765528,2.32128 0.814917,1.08655 2.173111,1.08655 l 0.172861,0 q 0.740833,-0.0247 1.210028,-0.56797 0.790222,-0.91369 0.790222,-2.61761 0,-0.4445 -0.04939,-0.91369 l 0,-0.0741 q 0,-0.22225 0.148167,-0.4198 0.172861,-0.22225 0.4445,-0.24695 l 0.07408,0 q 0.246944,0 0.419806,0.14817 0.22225,0.17286 0.246944,0.4445 0.04939,0.54328 0.04939,1.06186 0,2.17311 -1.11125,3.50661 -0.814917,0.96309 -2.148417,1.03717 l -0.271638,0 q -2.00025,0 -3.234972,-1.62983 -1.037167,-1.40759 -1.037167,-3.1115 0,-1.16064 0.493889,-2.46945 1.037166,-2.83986 4.469694,-5.08705 3.185583,-2.04964 6.568722,-2.04964 0.987777,0 1.975555,0.17286 l 0.04939,0 0,0.0247 0.02469,0 q 2.617611,0.49389 4.66725,2.88925 2.049639,2.42006 2.321278,5.334 0.04939,0.4445 0.04939,0.86431 0,2.667 -1.728611,4.61786 1.728611,0.8643 2.988027,2.79047 z"
         style="font-size:49.3888855px"
         id="path6867" />
    </g>
  </g>
</svg>
