<?xml version="1.0" encoding="UTF-8" standalone="no"?>
<!-- Created with Inkscape (http://www.inkscape.org/) -->

<svg
   xmlns:dc="http://purl.org/dc/elements/1.1/"
   xmlns:cc="http://creativecommons.org/ns#"
   xmlns:rdf="http://www.w3.org/1999/02/22-rdf-syntax-ns#"
   xmlns:svg="http://www.w3.org/2000/svg"
   xmlns="http://www.w3.org/2000/svg"
   xmlns:sodipodi="http://sodipodi.sourceforge.net/DTD/sodipodi-0.dtd"
   xmlns:inkscape="http://www.inkscape.org/namespaces/inkscape"
   width="55mm"
   height="55mm"
   viewBox="0 0 55 55"
   version="1.1"
   id="svg8"
   inkscape:version="0.91 r13725"
   sodipodi:docname="upper-q.svg">
  <defs
     id="defs2" />
  <sodipodi:namedview
     id="base"
     pagecolor="#ffffff"
     bordercolor="#666666"
     borderopacity="1.0"
     inkscape:pageopacity="0.0"
     inkscape:pageshadow="2"
     inkscape:zoom="1.4"
     inkscape:cx="-72.983922"
     inkscape:cy="43.63747"
     inkscape:document-units="mm"
     inkscape:current-layer="layer1"
     showgrid="false"
     inkscape:window-width="1440"
     inkscape:window-height="800"
     inkscape:window-x="0"
     inkscape:window-y="1"
     inkscape:window-maximized="1" />
  <metadata
     id="metadata5">
    <rdf:RDF>
      <cc:Work
         rdf:about="">
        <dc:format>image/svg+xml</dc:format>
        <dc:type
           rdf:resource="http://purl.org/dc/dcmitype/StillImage" />
        <dc:title />
      </cc:Work>
    </rdf:RDF>
  </metadata>
  <g
     inkscape:label="Calque 1"
     inkscape:groupmode="layer"
     id="layer1"
     transform="translate(0,-242)">
    <g
       style="font-style:normal;font-variant:normal;font-weight:normal;font-stretch:normal;font-size:63.49999619px;line-height:125%;font-family:Graphecrit;-inkscape-font-specification:Graphecrit;letter-spacing:0px;word-spacing:0px;fill:#000000;fill-opacity:1;stroke:none;stroke-width:1px;stroke-linecap:butt;stroke-linejoin:miter;stroke-opacity:1"
       id="text6642">
      <path
         d="m 32.499912,271.24471 q 2.197806,-2.54352 3.062111,-7.13669 0.419806,-2.34597 0.419806,-4.61786 0,-1.75331 -0.246945,-3.45722 -0.469194,-3.1115 -1.901472,-5.7785 -1.432278,-2.667 -3.309055,-3.87703 -1.382889,-0.889 -2.839861,-0.889 -0.66675,0 -1.3335,0.17286 -1.950861,0.54328 -2.88925,2.6917 -0.642055,1.48166 -0.642055,3.21027 0,0.4692 0.04939,0.96309 0.123472,1.18533 0.493888,1.97555 0.370417,0.74084 0.740834,0.76553 l 0.07408,0 q 0.395111,0 0.642056,-0.24694 0.716138,-0.74084 0.716138,-2.51884 0,-0.37041 -0.02469,-0.76553 l 0,-0.0988 q 0,-0.54328 0.592667,-0.59267 l 0.09878,0 q 0.567973,0 0.617361,0.61736 0.0247,0.39511 0.0247,0.76553 0,2.39536 -1.11125,3.50661 -0.617361,0.64206 -1.531056,0.64206 l -0.197555,0 q -2.049639,-0.14817 -2.420055,-3.92642 -0.04939,-0.54328 -0.04939,-1.08656 0,-1.87677 0.66675,-3.556 -1.975556,0.81492 -3.432528,4.14867 -1.407583,3.18558 -1.531055,6.71689 -0.0247,0.54328 -0.0247,1.08655 0,7.82814 3.728861,11.65578 2.247194,2.32128 5.704416,2.32128 3.531306,0 5.852583,-2.6917 z m 4.766028,24.37342 q -0.07408,0.4445 -0.642056,0.4445 -0.642055,0 -0.642055,-0.64206 l 0,-27.90472 q -0.987778,2.83986 -2.494139,4.59317 -2.716389,3.13619 -6.840361,3.13619 -4.000499,0 -6.61811,-2.71638 -4.123972,-4.22275 -4.123972,-12.64356 0,-0.51858 0.02469,-1.06186 0.148167,-4.22275 2.00025,-7.92692 2.099028,-4.22275 5.087055,-4.39561 1.160639,-1.58044 2.988028,-2.09902 0.864305,-0.22225 1.679222,-0.22225 1.852083,0 3.556,1.11125 3.012722,1.95086 4.741333,6.56872 l 0,-7.53181 q 0,-0.64205 0.642055,-0.64205 0.66675,0 0.66675,0.64205 l 0,20.447 q 0.04939,0.12347 0.04939,0.24695 l 0,30.30008 q 0,0.14816 -0.07408,0.29633 z"
         style="font-size:49.3888855px"
         id="path10018" />
    </g>
  </g>
</svg>
