<?xml version="1.0" encoding="UTF-8" standalone="no"?>
<!-- Created with Inkscape (http://www.inkscape.org/) -->

<svg
   xmlns:dc="http://purl.org/dc/elements/1.1/"
   xmlns:cc="http://creativecommons.org/ns#"
   xmlns:rdf="http://www.w3.org/1999/02/22-rdf-syntax-ns#"
   xmlns:svg="http://www.w3.org/2000/svg"
   xmlns="http://www.w3.org/2000/svg"
   xmlns:sodipodi="http://sodipodi.sourceforge.net/DTD/sodipodi-0.dtd"
   xmlns:inkscape="http://www.inkscape.org/namespaces/inkscape"
   width="55mm"
   height="55mm"
   viewBox="0 0 55 55"
   version="1.1"
   id="svg8"
   inkscape:version="0.91 r13725"
   sodipodi:docname="upper-m.svg">
  <defs
     id="defs2" />
  <sodipodi:namedview
     id="base"
     pagecolor="#ffffff"
     bordercolor="#666666"
     borderopacity="1.0"
     inkscape:pageopacity="0.0"
     inkscape:pageshadow="2"
     inkscape:zoom="1.4"
     inkscape:cx="-72.983922"
     inkscape:cy="43.63747"
     inkscape:document-units="mm"
     inkscape:current-layer="layer1"
     showgrid="false"
     inkscape:window-width="1440"
     inkscape:window-height="800"
     inkscape:window-x="0"
     inkscape:window-y="1"
     inkscape:window-maximized="1" />
  <metadata
     id="metadata5">
    <rdf:RDF>
      <cc:Work
         rdf:about="">
        <dc:format>image/svg+xml</dc:format>
        <dc:type
           rdf:resource="http://purl.org/dc/dcmitype/StillImage" />
        <dc:title />
      </cc:Work>
    </rdf:RDF>
  </metadata>
  <g
     inkscape:label="Calque 1"
     inkscape:groupmode="layer"
     id="layer1"
     transform="translate(0,-242)">
    <g
       style="font-style:normal;font-variant:normal;font-weight:normal;font-stretch:normal;font-size:63.49999619px;line-height:125%;font-family:Graphecrit;-inkscape-font-specification:Graphecrit;letter-spacing:0px;word-spacing:0px;fill:#000000;fill-opacity:1;stroke:none;stroke-width:1px;stroke-linecap:butt;stroke-linejoin:miter;stroke-opacity:1"
       id="text6642">
      <path
         d="m 16.420302,274.82541 q -0.740833,0 -1.432277,-0.19756 -1.135945,-0.29633 -1.802695,-0.96308 -0.66675,-0.66675 -0.66675,-1.45697 0,-1.92617 1.11125,-2.91395 0.419806,-0.39511 0.963084,-0.56797 0.4445,-0.17286 0.889,-0.17286 0.271638,0 0.469194,0.19756 0.197556,0.17286 0.197556,0.4445 0,0.27163 -0.197556,0.46919 -0.197556,0.19756 -0.469194,0.19756 l -0.148167,0 q -0.09878,0.0247 -0.22225,0.0494 -0.321028,0.0988 -0.543278,0.29634 -0.740833,0.59266 -0.740833,2.00025 0,0.29633 0.395111,0.61736 0.4445,0.34572 1.11125,0.54328 0.543278,0.14816 1.086555,0.14816 0.518584,0 1.037167,-0.14816 1.234722,-0.34573 1.926167,-1.50636 2.741083,-4.54378 2.741083,-20.0272 0,-1.16064 -0.02469,-2.39536 l 0,-0.32103 q 0.02469,-0.29633 0.04939,-0.59266 0.07408,-0.83961 0.246945,-1.60514 0.493888,-2.27189 1.555749,-2.98803 0.493889,-0.34572 1.061861,-0.34572 0.370417,0 0.765528,0.14817 1.210028,0.4198 1.580445,4.46969 0.246944,2.96333 0.246944,11.03842 l 0,5.53155 q 0,2.29658 0.04939,3.87703 0.123472,4.07458 0.518583,4.59316 0.123472,0.12348 0.172861,0.14817 0.617361,-0.46919 0.987778,-5.67972 0.148167,-1.95086 0.271639,-4.74133 0.04939,-1.06186 0.09878,-2.39536 0.02469,-0.51859 0.04939,-1.16064 l 0.0247,-0.56798 0,-0.54327 q 0.271639,-7.87753 0.592667,-10.54453 0.395111,-3.30906 1.333499,-3.75356 0.419806,-0.19755 0.814917,-0.19755 l 0.148167,0 q 0.345722,0.0247 0.642055,0.22225 0.864306,0.56797 1.135945,2.69169 0.123472,1.13595 0.123472,2.91395 0,1.62983 -0.09878,3.77825 -0.04939,0.69144 -0.148167,2.27189 l -0.02469,0.51858 -0.0247,0.54328 q -0.04939,0.61736 -0.07408,1.13594 -0.07408,1.3335 -0.123472,2.44475 -0.04939,1.62983 -0.04939,3.03742 0,1.06186 0.0247,2.00025 0.197555,5.82789 1.728611,7.48241 0.567972,0.59267 1.333499,0.59267 1.407584,0 2.592917,-0.71614 1.160639,-0.71614 2.568222,-2.42005 0.172861,-0.19756 0.4445,-0.22225 l 0.07408,0 q 0.22225,0 0.419806,0.14816 0.197555,0.17286 0.22225,0.41981 l 0,0.0741 q 0,0.22225 -0.148167,0.41981 -1.481666,1.80269 -2.741083,2.61761 -1.55575,0.98778 -3.432528,0.98778 -1.333499,0 -2.271888,-1.01248 -1.827389,-1.92616 -2.099028,-7.75405 -0.04939,-1.11125 -0.04939,-2.42006 0,-1.3335 0.04939,-2.83986 0.04939,-1.16064 0.123472,-2.61761 l 0.07408,-1.28411 0.04939,-0.61736 0.0247,-0.59267 q 0.09878,-1.58044 0.148167,-2.24719 0.09878,-2.07434 0.09878,-3.65478 0,-1.7533 -0.123472,-2.86455 -0.09878,-0.81492 -0.271639,-1.25942 -0.123472,-0.34572 -0.296333,-0.4692 0,-0.0247 -0.04939,-0.0247 -0.02469,0 -0.07408,0.0247 -0.07408,0.0247 -0.172861,0.0741 -0.493889,0.46919 -0.790223,4.8895 -0.123472,1.67922 -0.22225,4.09927 -0.04939,0.96309 -0.09878,2.12373 l -0.02469,1.03716 -0.04939,1.01248 q -0.296333,8.8653 -0.691444,11.95211 -0.518583,3.85233 -1.679222,4.32152 -0.123472,0.0494 -0.271639,0.0494 l -0.345722,0 q -0.4445,-0.0988 -0.864306,-0.51858 -0.642055,-0.66675 -0.814916,-3.82764 -0.123473,-2.17311 -0.123473,-7.67997 l 0,-6.79097 q -0.02469,-2.88925 -0.09878,-4.93889 -0.22225,-5.43278 -0.889,-5.97606 -0.172861,-0.0494 -0.296334,-0.0494 l -0.09878,0 q -0.123473,0.0247 -0.22225,0.0988 -0.567972,0.39511 -0.938389,1.87678 -0.321028,1.25942 -0.345722,2.56822 0.02469,1.18534 0.02469,2.32128 0,15.90322 -2.938639,20.79272 -1.358194,2.27189 -4.074583,2.27189 z"
         style="font-size:49.3888855px"
         id="path11674" />
    </g>
  </g>
</svg>
