<?xml version="1.0" encoding="UTF-8" standalone="no"?>
<!-- Created with Inkscape (http://www.inkscape.org/) -->

<svg
   xmlns:dc="http://purl.org/dc/elements/1.1/"
   xmlns:cc="http://creativecommons.org/ns#"
   xmlns:rdf="http://www.w3.org/1999/02/22-rdf-syntax-ns#"
   xmlns:svg="http://www.w3.org/2000/svg"
   xmlns="http://www.w3.org/2000/svg"
   xmlns:sodipodi="http://sodipodi.sourceforge.net/DTD/sodipodi-0.dtd"
   xmlns:inkscape="http://www.inkscape.org/namespaces/inkscape"
   width="55mm"
   height="55mm"
   viewBox="0 0 55 55"
   version="1.1"
   id="svg8"
   inkscape:version="0.91 r13725"
   sodipodi:docname="upper-h.svg">
  <defs
     id="defs2" />
  <sodipodi:namedview
     id="base"
     pagecolor="#ffffff"
     bordercolor="#666666"
     borderopacity="1.0"
     inkscape:pageopacity="0.0"
     inkscape:pageshadow="2"
     inkscape:zoom="1.4"
     inkscape:cx="-72.983922"
     inkscape:cy="43.63747"
     inkscape:document-units="mm"
     inkscape:current-layer="layer1"
     showgrid="false"
     inkscape:window-width="1440"
     inkscape:window-height="800"
     inkscape:window-x="0"
     inkscape:window-y="1"
     inkscape:window-maximized="1" />
  <metadata
     id="metadata5">
    <rdf:RDF>
      <cc:Work
         rdf:about="">
        <dc:format>image/svg+xml</dc:format>
        <dc:type
           rdf:resource="http://purl.org/dc/dcmitype/StillImage" />
        <dc:title />
      </cc:Work>
    </rdf:RDF>
  </metadata>
  <g
     inkscape:label="Calque 1"
     inkscape:groupmode="layer"
     id="layer1"
     transform="translate(0,-242)">
    <g
       style="font-style:normal;font-variant:normal;font-weight:normal;font-stretch:normal;font-size:63.49999619px;line-height:125%;font-family:Graphecrit;-inkscape-font-specification:Graphecrit;letter-spacing:0px;word-spacing:0px;fill:#000000;fill-opacity:1;stroke:none;stroke-width:1px;stroke-linecap:butt;stroke-linejoin:miter;stroke-opacity:1"
       id="text6642">
      <path
         d="m 17.379858,273.5413 q 2.420055,0 3.432528,-3.70417 0.716138,-2.61761 0.888999,-8.19855 -3.827638,2.09902 -5.827888,5.01297 -1.506361,2.1978 -1.506361,4.02519 0,0.32103 0.04939,0.61736 0.321028,2.2472 2.963333,2.2472 z m 9.136944,-28.62086 q -0.913695,0.32103 -1.703917,1.7533 0.765528,0.17287 1.308806,0.17287 0.493889,0 0.814916,-0.14817 0.197556,-0.0988 0.321028,-0.24695 0.172861,-0.24694 0.246945,-0.66675 0.02469,-0.14816 0.02469,-0.29633 0,-0.32103 -0.197556,-0.51858 -0.172861,-0.14817 -0.395111,-0.14817 -0.197555,0 -0.419805,0.0988 z m 3.086805,10.37166 q -0.197555,0.96309 -0.321028,1.97556 3.77825,-1.65453 6.198306,-4.34622 2.173111,-2.42006 2.666999,-4.96358 0.09878,-0.59267 0.09878,-1.06187 0,-1.18533 -0.642055,-1.70391 -0.296334,-0.22225 -0.765528,-0.22225 -0.567972,0 -1.308806,0.34572 -1.950861,0.91369 -3.580694,3.65478 -1.629833,2.74108 -2.345972,6.32177 z m 12.742333,14.98953 q 0.22225,0.17286 0.246944,0.4445 l 0,0.0741 q 0,0.22225 -0.148167,0.39512 -1.358194,1.62983 -2.568222,2.44475 -1.679222,1.13594 -3.580694,1.13594 l -0.04939,0 q -2.148416,-0.0247 -3.802944,-1.85208 -2.345972,-2.61761 -3.531305,-6.19831 -1.061861,-3.21028 -1.061861,-6.79097 l 0,-0.74083 q -0.395111,0.12347 -0.889,0.27164 l -0.370417,0.12347 -0.370416,0.12347 0,2.96333 q 0,0.27164 -0.197556,0.4692 -0.197556,0.19755 -0.469194,0.19755 -0.246945,0 -0.4445,-0.19755 -0.197556,-0.19756 -0.197556,-0.4692 l 0,-2.51883 q -0.987778,0.37042 -1.901472,0.81492 -0.148167,6.6675 -1.037167,9.58144 -1.284111,4.27214 -4.593166,4.27214 -1.778,0 -2.88925,-0.889 -1.135944,-0.889 -1.358194,-2.46945 -0.04939,-0.39511 -0.04939,-0.79022 0,-2.2225 1.728611,-4.76602 2.370666,-3.45723 6.914444,-5.7785 l 0.02469,-1.18534 q 0.123473,-6.17361 0.543278,-8.54427 0.271639,-1.60514 0.740833,-2.88925 -1.629833,-0.56798 -4.099277,-1.67923 -0.790222,-0.37041 -1.456972,-0.37041 -0.740833,0 -1.308806,0.49389 -0.814916,0.69144 -1.086555,2.17311 -0.09878,0.61736 -0.09878,1.18533 0,0.74083 0.172861,1.40758 0.07408,0.19756 0.123472,0.37042 0.09878,0.24694 0.22225,0.4445 0.321028,0.51858 0.765528,0.59267 0.22225,0.0247 0.419806,0.0247 0.617361,0 1.037166,-0.34572 0.4445,-0.37042 0.66675,-1.16064 0.09878,-0.29633 0.148167,-0.59267 0.02469,-0.27164 0.02469,-0.4445 0,-0.27164 0.197556,-0.46919 0.172861,-0.17286 0.4445,-0.17286 0.271639,0 0.469194,0.17286 0.172861,0.19755 0.172861,0.46919 l 0,0.37042 q -0.04939,0.4445 -0.148166,0.83961 -0.345723,1.30881 -1.135945,1.97556 -0.790222,0.66675 -1.876777,0.66675 -0.296334,0 -0.617361,-0.0494 -1.55575,-0.24695 -2.148417,-2.32128 -0.246944,-0.86431 -0.246944,-1.80269 0,-0.71614 0.148166,-1.48167 0.370417,-1.87678 1.506361,-2.83986 0.691445,-0.59267 1.580445,-0.74084 0.296333,-0.0494 0.592666,-0.0494 0.938389,0 1.975556,0.46919 2.518833,1.16064 4.049888,1.67922 0.617361,-1.21003 1.432278,-1.92616 0.296333,-0.27164 0.617361,-0.4692 0.271639,-0.14817 0.518583,-0.24694 0.4445,-0.14817 0.839611,-0.14817 0.691445,0 1.234722,0.46919 0.66675,0.56798 0.66675,1.50637 0,0.24694 -0.04939,0.54327 -0.271639,1.28411 -1.259417,1.8027 -0.567972,0.29633 -1.407583,0.29633 -0.790222,0 -1.852083,-0.27164 -0.4445,1.18534 -0.716139,2.74109 -0.395111,2.27188 -0.493889,8.34672 l -0.0247,0.54327 q 0.839611,-0.37041 1.876778,-0.74083 l 0,-2.71639 q 0,-0.27164 0.197556,-0.46919 0.172861,-0.17286 0.4445,-0.17286 0.271638,0 0.469194,0.17286 0.197556,0.19755 0.197556,0.46919 l 0,2.29659 0.172861,-0.0494 0.197555,-0.0741 q 0.66675,-0.19755 1.3335,-0.4198 0.123472,-1.40759 0.395111,-2.79047 0.790222,-3.90173 2.617611,-6.86506 1.802694,-2.96333 4.049889,-4.02519 0.987777,-0.4692 1.827388,-0.4692 0.197556,0 0.370417,0.0247 0.395111,0.0494 0.740833,0.19755 0.246945,0.12347 0.469195,0.29634 1.160639,0.889 1.160639,2.667 0,0.61736 -0.148167,1.35819 -0.543278,2.93864 -3.062111,5.67972 -2.815166,3.08681 -7.186083,4.84011 -0.02469,0.59267 -0.02469,1.18534 0,3.23497 0.913694,6.14891 1.11125,3.48192 3.358444,5.97606 1.284111,1.43227 2.839861,1.45697 l 0.07408,0 q 1.358194,0 2.568222,-0.74083 1.185333,-0.71614 2.543527,-2.37067 0.172861,-0.22225 0.4445,-0.24695 l 0.07408,0 q 0.22225,0 0.395111,0.14817 z"
         style="font-size:49.3888855px"
         id="path5802" />
    </g>
  </g>
</svg>
