<?xml version="1.0" encoding="UTF-8" standalone="no"?>
<!-- Created with Inkscape (http://www.inkscape.org/) -->

<svg
   xmlns:dc="http://purl.org/dc/elements/1.1/"
   xmlns:cc="http://creativecommons.org/ns#"
   xmlns:rdf="http://www.w3.org/1999/02/22-rdf-syntax-ns#"
   xmlns:svg="http://www.w3.org/2000/svg"
   xmlns="http://www.w3.org/2000/svg"
   xmlns:sodipodi="http://sodipodi.sourceforge.net/DTD/sodipodi-0.dtd"
   xmlns:inkscape="http://www.inkscape.org/namespaces/inkscape"
   width="55mm"
   height="55mm"
   viewBox="0 0 55 55"
   version="1.1"
   id="svg8"
   inkscape:version="0.91 r13725"
   sodipodi:docname="upper-n.svg">
  <defs
     id="defs2" />
  <sodipodi:namedview
     id="base"
     pagecolor="#ffffff"
     bordercolor="#666666"
     borderopacity="1.0"
     inkscape:pageopacity="0.0"
     inkscape:pageshadow="2"
     inkscape:zoom="1.4"
     inkscape:cx="-72.983922"
     inkscape:cy="43.63747"
     inkscape:document-units="mm"
     inkscape:current-layer="layer1"
     showgrid="false"
     inkscape:window-width="1440"
     inkscape:window-height="800"
     inkscape:window-x="0"
     inkscape:window-y="1"
     inkscape:window-maximized="1" />
  <metadata
     id="metadata5">
    <rdf:RDF>
      <cc:Work
         rdf:about="">
        <dc:format>image/svg+xml</dc:format>
        <dc:type
           rdf:resource="http://purl.org/dc/dcmitype/StillImage" />
        <dc:title></dc:title>
      </cc:Work>
    </rdf:RDF>
  </metadata>
  <g
     inkscape:label="Calque 1"
     inkscape:groupmode="layer"
     id="layer1"
     transform="translate(0,-242)">
    <g
       style="font-style:normal;font-variant:normal;font-weight:normal;font-stretch:normal;font-size:63.49999619px;line-height:125%;font-family:Graphecrit;-inkscape-font-specification:Graphecrit;letter-spacing:0px;word-spacing:0px;fill:#000000;fill-opacity:1;stroke:none;stroke-width:1px;stroke-linecap:butt;stroke-linejoin:miter;stroke-opacity:1"
       id="text6642">
      <path
         d="m 16.83658,274.82541 q -1.432277,0 -2.44475,-0.79022 -0.987777,-0.76553 -1.061861,-1.90148 l 0,-0.19755 q 0,-1.65453 1.654528,-3.25967 0.197556,-0.19755 0.469194,-0.19755 0.271639,0 0.469195,0.19755 0.197555,0.19756 0.197555,0.4692 0,0.29633 -0.197555,0.49389 -1.234722,1.21002 -1.234722,2.29658 l 0,0.12347 q 0.02469,0.51858 0.518583,0.9137 0.691444,0.54327 1.55575,0.54327 0.691444,0 1.481667,-0.37041 2.247194,-1.03717 2.345972,-4.0252 0.02469,-0.24694 0.07408,-1.90147 0.592667,-21.58294 1.876778,-23.13869 0.345722,-0.4445 0.790222,-0.4445 0.148166,0 0.296333,0.0494 0.839611,0.24694 1.358194,2.61761 0.4445,2.17311 1.234723,9.3098 0.246944,2.04964 0.419805,3.556 1.11125,9.50736 3.062111,13.68072 0.07408,-0.4445 0.123472,-1.11125 0.271639,-3.80294 0.271639,-9.53205 0,-5.72911 -0.271639,-13.35969 0.04939,-1.06187 0.518583,-2.19781 0.889,-2.14842 2.88925,-2.69169 0.543278,-0.14817 1.11125,-0.14817 0.66675,0 1.358195,0.19755 1.259416,0.37042 2.197805,1.30881 1.382889,1.40758 1.382889,3.16089 0,0.71614 -0.22225,1.45697 -0.345722,1.18533 -1.210028,1.95086 -0.864305,0.74083 -1.876778,0.74083 -1.802694,0 -2.395361,-2.04963 -0.04939,-0.0988 -0.04939,-0.22225 0,-0.14817 0.09878,-0.29634 0.123473,-0.24694 0.395111,-0.32102 0.09878,-0.0247 0.197556,-0.0247 0.172861,0 0.321028,0.0741 0.246944,0.14817 0.321027,0.41981 0.321028,1.08655 1.11125,1.08655 0.518584,0 1.012473,-0.44449 0.567972,-0.49389 0.790222,-1.30881 0.148166,-0.51858 0.148166,-1.01247 0,-1.23472 -0.987777,-2.2472 -1.11125,-1.13594 -2.44475,-1.13594 -0.4445,0 -0.913695,0.12347 -1.407583,0.37042 -2.049638,2.00025 -0.321028,0.83961 -0.370417,1.58045 0.345722,6.56872 0.345722,12.32252 0,5.75381 -0.345722,10.668 -0.07408,1.3335 -0.296333,1.95086 -0.321028,0.9137 -0.987778,0.9137 l -0.02469,0 q -1.580445,0 -3.234972,-7.63059 -0.889,-4.14866 -1.308806,-7.72936 -0.197555,-1.50636 -0.419805,-3.58069 -0.963084,-8.64306 -1.506361,-10.29758 -0.864306,3.23497 -1.382889,21.80519 -0.04939,1.82739 -0.04939,1.90147 -0.07408,1.8027 -0.889,3.16089 -0.839611,1.38289 -2.2225,2.04964 -0.963083,0.4445 -2.00025,0.4445 z"
         style="font-size:49.3888855px"
         id="path24645" />
    </g>
  </g>
</svg>
