<?xml version="1.0" encoding="UTF-8" standalone="no"?>
<!-- Created with Inkscape (http://www.inkscape.org/) -->

<svg
   xmlns:dc="http://purl.org/dc/elements/1.1/"
   xmlns:cc="http://creativecommons.org/ns#"
   xmlns:rdf="http://www.w3.org/1999/02/22-rdf-syntax-ns#"
   xmlns:svg="http://www.w3.org/2000/svg"
   xmlns="http://www.w3.org/2000/svg"
   xmlns:sodipodi="http://sodipodi.sourceforge.net/DTD/sodipodi-0.dtd"
   xmlns:inkscape="http://www.inkscape.org/namespaces/inkscape"
   width="55mm"
   height="55mm"
   viewBox="0 0 55 55"
   version="1.1"
   id="svg8"
   inkscape:version="0.91 r13725"
   sodipodi:docname="upper-t.svg">
  <defs
     id="defs2" />
  <sodipodi:namedview
     id="base"
     pagecolor="#ffffff"
     bordercolor="#666666"
     borderopacity="1.0"
     inkscape:pageopacity="0.0"
     inkscape:pageshadow="2"
     inkscape:zoom="1.4"
     inkscape:cx="-72.983922"
     inkscape:cy="43.63747"
     inkscape:document-units="mm"
     inkscape:current-layer="layer1"
     showgrid="false"
     inkscape:window-width="1440"
     inkscape:window-height="800"
     inkscape:window-x="0"
     inkscape:window-y="1"
     inkscape:window-maximized="1" />
  <metadata
     id="metadata5">
    <rdf:RDF>
      <cc:Work
         rdf:about="">
        <dc:format>image/svg+xml</dc:format>
        <dc:type
           rdf:resource="http://purl.org/dc/dcmitype/StillImage" />
        <dc:title />
      </cc:Work>
    </rdf:RDF>
  </metadata>
  <g
     inkscape:label="Calque 1"
     inkscape:groupmode="layer"
     id="layer1"
     transform="translate(0,-242)">
    <g
       style="font-style:normal;font-variant:normal;font-weight:normal;font-stretch:normal;font-size:63.49999619px;line-height:125%;font-family:Graphecrit;-inkscape-font-specification:Graphecrit;letter-spacing:0px;word-spacing:0px;fill:#000000;fill-opacity:1;stroke:none;stroke-width:1px;stroke-linecap:butt;stroke-linejoin:miter;stroke-opacity:1"
       id="text6642">
      <path
         d="m 31.402774,246.52558 0.518583,0.34572 q 2.271889,1.62983 3.037417,1.62983 l 0.172861,0 0.04939,-0.0247 q 0.07408,-0.0247 0.148166,-0.0741 0.22225,-0.12348 0.419806,-0.4445 0.296333,-0.49389 0.296333,-1.01248 0,-0.46919 -0.271639,-0.93839 -0.642055,-1.06186 -2.049639,-1.06186 l -0.172861,0 q -0.543277,0.0247 -1.11125,0.24695 -0.790222,0.32103 -1.580444,0.93839 l 0.543278,0.39511 z m 0.02469,28.29983 q -1.135944,0 -2.197805,-0.4445 -3.012722,-1.25942 -4.66725,-5.45747 -1.259416,-3.16089 -1.259416,-6.96384 0,-0.69144 0.04939,-1.40758 0.271638,-4.64255 2.247194,-9.11225 1.407583,-3.16089 3.086805,-5.08705 -2.049639,-1.16064 -3.827638,-1.16064 l -0.22225,0 q -2.839861,0.12347 -4.420306,1.62983 -1.259416,1.21003 -1.259416,2.64231 l 0,0.22225 q 0.02469,0.0988 0.04939,0.22225 0.04939,0.29633 0.172861,0.51858 0.370416,0.61736 1.185333,0.61736 0.790222,0 1.654528,-0.83961 0.321027,-0.32103 0.617361,-0.71614 0.246944,-0.32103 0.395111,-0.59267 0.148166,-0.24694 0.395111,-0.32102 0.09878,-0.0247 0.197555,-0.0247 0.172861,0 0.321028,0.0741 0.246945,0.14816 0.321028,0.39511 0.04939,0.0988 0.04939,0.22225 0,0.14816 -0.09878,0.29633 l 0,0.0247 -0.02469,0.0247 q -0.0247,0.0494 -0.07408,0.12347 -0.09878,0.14817 -0.197555,0.32103 -0.370417,0.54328 -0.814917,0.98778 -1.308805,1.38288 -2.741083,1.38288 -1.210028,0 -1.975555,-0.79022 -0.765528,-0.79022 -0.790223,-2.07433 l 0,-0.12347 q 0,-2.04964 1.728611,-3.63009 1.975556,-1.80269 5.235222,-1.95086 l 0.321028,0 q 2.247194,0 4.790722,1.53106 1.037166,-0.9137 2.123722,-1.38289 0.839611,-0.34572 1.654528,-0.39511 l 0.22225,0 q 0.987777,0 1.802694,0.39511 0.938389,0.46919 1.456972,1.3335 0.493889,0.81492 0.493889,1.62983 0,0.86431 -0.543278,1.72861 -0.617361,0.98778 -1.531055,1.16064 -0.197556,0.0494 -0.419806,0.0494 -0.716139,0 -1.580444,-0.4445 -0.691445,-0.37041 -2.2225,-1.45697 -0.814917,-0.56797 -1.259417,-0.889 -1.654527,1.80269 -3.012722,4.91419 -1.876777,4.19806 -2.148416,8.56898 -0.04939,0.71613 -0.04939,1.40758 0,3.50661 1.160639,6.44525 1.456972,3.65478 3.926416,4.69194 0.839611,0.34572 1.679222,0.34572 1.061861,0 2.123722,-0.51858 1.728611,-0.83961 2.839861,-2.59292 0.148167,-0.24694 0.4445,-0.29633 0.07408,-0.0247 0.148167,-0.0247 0.197555,0 0.345722,0.12347 0.246945,0.14817 0.296333,0.4198 0.02469,0.0741 0.02469,0.14817 0,0.19756 -0.123472,0.37042 -1.012472,1.60514 -2.568222,2.61761 -1.728611,1.11125 -3.531306,1.11125 z"
         style="font-size:49.3888855px"
         id="path8362" />
    </g>
  </g>
</svg>
