<?xml version="1.0" encoding="UTF-8" standalone="no"?>
<!-- Created with Inkscape (http://www.inkscape.org/) -->

<svg
   xmlns:dc="http://purl.org/dc/elements/1.1/"
   xmlns:cc="http://creativecommons.org/ns#"
   xmlns:rdf="http://www.w3.org/1999/02/22-rdf-syntax-ns#"
   xmlns:svg="http://www.w3.org/2000/svg"
   xmlns="http://www.w3.org/2000/svg"
   xmlns:sodipodi="http://sodipodi.sourceforge.net/DTD/sodipodi-0.dtd"
   xmlns:inkscape="http://www.inkscape.org/namespaces/inkscape"
   width="55mm"
   height="55mm"
   viewBox="0 0 55 55"
   version="1.1"
   id="svg8"
   inkscape:version="0.91 r13725"
   sodipodi:docname="upper-w.svg">
  <defs
     id="defs2" />
  <sodipodi:namedview
     id="base"
     pagecolor="#ffffff"
     bordercolor="#666666"
     borderopacity="1.0"
     inkscape:pageopacity="0.0"
     inkscape:pageshadow="2"
     inkscape:zoom="1.4"
     inkscape:cx="-72.983922"
     inkscape:cy="43.63747"
     inkscape:document-units="mm"
     inkscape:current-layer="layer1"
     showgrid="false"
     inkscape:window-width="1440"
     inkscape:window-height="800"
     inkscape:window-x="0"
     inkscape:window-y="1"
     inkscape:window-maximized="1" />
  <metadata
     id="metadata5">
    <rdf:RDF>
      <cc:Work
         rdf:about="">
        <dc:format>image/svg+xml</dc:format>
        <dc:type
           rdf:resource="http://purl.org/dc/dcmitype/StillImage" />
        <dc:title />
      </cc:Work>
    </rdf:RDF>
  </metadata>
  <g
     inkscape:label="Calque 1"
     inkscape:groupmode="layer"
     id="layer1"
     transform="translate(0,-242)">
    <g
       style="font-style:normal;font-variant:normal;font-weight:normal;font-stretch:normal;font-size:63.49999619px;line-height:125%;font-family:Graphecrit;-inkscape-font-specification:Graphecrit;letter-spacing:0px;word-spacing:0px;fill:#000000;fill-opacity:1;stroke:none;stroke-width:1px;stroke-linecap:butt;stroke-linejoin:miter;stroke-opacity:1"
       id="text6642">
      <path
         d="m 37.308272,248.13072 q 1.061861,0.59266 2.370667,0.59266 l 0.370417,0 q -0.592667,-2.09902 -1.284112,-3.01272 -0.567972,-0.74083 -1.160638,-0.74083 -0.123473,0 -0.22225,0.0247 -0.889,0.22225 -1.037167,1.3582 -0.02469,0.12347 -0.02469,0.24694 0,0.93839 0.987777,1.53106 z m 8.717139,-2.64231 q 0.246944,0.14817 0.296333,0.41981 0.02469,0.0741 0.02469,0.17286 0,0.14816 -0.09878,0.32103 -1.481667,2.46944 -4.568472,3.33375 1.284111,5.53155 1.284111,10.44574 0,3.25967 -0.567972,6.223 -0.938389,4.8895 -3.383139,6.98853 -1.605139,1.38289 -3.580694,1.38289 l -0.09878,0 q -1.629833,-0.0494 -3.259667,-1.67922 -1.531055,-1.53106 -2.370666,-3.65478 -2.247194,5.38339 -5.679722,5.38339 -0.296333,0 -0.592666,-0.0494 -2.00025,-0.29633 -3.481917,-2.42006 -1.506361,-2.12372 -1.506361,-4.64255 0,-0.19756 -0.02469,-1.16064 -0.04939,-2.83986 -0.04939,-5.25992 0,-3.01272 0.07408,-5.334 0.02469,-0.64205 0.02469,-1.25941 0,-3.1115 -0.518584,-5.60564 -0.617361,-3.01272 -1.728611,-3.85233 -0.370416,-0.27164 -0.765527,-0.27164 -0.197556,0 -0.419806,0.0741 -2.518833,0.79022 -3.753555,3.28436 -0.814917,1.67922 -0.814917,3.48192 0,0.64205 0.09878,1.28411 0.246944,1.60514 1.061861,2.6423 0.987778,1.25942 2.494139,1.25942 l 0.02469,0 q 0.864306,-0.0247 1.580444,-1.45697 0.493889,-1.01247 0.716139,-2.14842 0.04939,-0.27164 0.271639,-0.4198 0.172861,-0.12348 0.370417,-0.12348 0.04939,0 0.123472,0.0247 0.271639,0.0494 0.419805,0.27164 0.123473,0.17286 0.123473,0.37041 0,0.0494 -0.0247,0.12348 -0.246944,1.3335 -0.839611,2.49414 -1.086555,2.14841 -2.716388,2.17311 l -0.04939,0 q -1.852084,0 -3.185583,-1.3582 -1.3335004,-1.38289 -1.6792226,-3.65478 -0.1234722,-0.79022 -0.1234722,-1.55575 0,-2.14841 0.9877778,-4.07458 1.456972,-2.91394 4.519083,-3.87703 0.419805,-0.12347 0.839611,-0.12347 0.814917,0 1.531055,0.54328 1.55575,1.18533 2.271889,4.81542 0.493889,2.54352 0.493889,5.65502 0,0.66675 -0.02469,1.3335 -0.07408,2.29659 -0.07408,5.28461 0,2.39537 0.04939,5.23523 0.02469,0.96308 0.02469,1.18533 0,2.02494 1.185333,3.77825 1.185333,1.7533 2.691694,2.00025 0.197556,0.0247 0.370417,0.0247 1.382889,0 2.642305,-1.45697 1.456972,-1.65453 2.494139,-4.91419 l -0.0247,-0.19756 q -0.148166,-3.16089 -0.148166,-11.58169 0,-4.69195 0.04939,-11.01372 0,-0.27164 0.197555,-0.4445 0.172861,-0.19756 0.4445,-0.19756 0.271639,0 0.469195,0.19756 0.197555,0.19755 0.197555,0.46919 -0.04939,5.87728 -0.04939,10.34697 0,8.9147 0.172861,12.17436 0.07408,2.12372 1.728611,4.32153 1.654528,2.19781 3.185583,2.2225 l 0.197556,0 q 1.975555,0 3.383139,-1.80269 1.481666,-1.90148 2.173111,-5.48217 0.518583,-2.79047 0.518583,-5.87728 0,-4.79072 -1.259417,-10.29758 -0.395111,0.0494 -0.765527,0.0494 -1.629834,0 -2.938639,-0.76553 -1.654528,-0.96308 -1.654528,-2.61761 0,-0.22225 0.0247,-0.46919 0.123472,-0.889 0.691444,-1.58045 0.543278,-0.66675 1.308805,-0.889 0.296334,-0.0741 0.592667,-0.0741 1.210028,0 2.173111,1.28411 0.864306,1.11125 1.55575,3.556 2.592916,-0.79022 3.77825,-2.76578 0.123472,-0.22225 0.395111,-0.29633 0.07408,-0.0247 0.148166,-0.0247 0.197556,0 0.345723,0.0988 z"
         style="font-size:49.3888855px"
         id="path6706" />
    </g>
  </g>
</svg>
