<?xml version="1.0" encoding="UTF-8" standalone="no"?>
<!-- Created with Inkscape (http://www.inkscape.org/) -->

<svg
   xmlns:dc="http://purl.org/dc/elements/1.1/"
   xmlns:cc="http://creativecommons.org/ns#"
   xmlns:rdf="http://www.w3.org/1999/02/22-rdf-syntax-ns#"
   xmlns:svg="http://www.w3.org/2000/svg"
   xmlns="http://www.w3.org/2000/svg"
   xmlns:sodipodi="http://sodipodi.sourceforge.net/DTD/sodipodi-0.dtd"
   xmlns:inkscape="http://www.inkscape.org/namespaces/inkscape"
   width="55mm"
   height="55mm"
   viewBox="0 0 55 55"
   version="1.1"
   id="svg8"
   inkscape:version="0.92.3 (2405546, 2018-03-11)"
   sodipodi:docname="upper-c.svg">
  <defs
     id="defs2" />
  <sodipodi:namedview
     id="base"
     pagecolor="#ffffff"
     bordercolor="#666666"
     borderopacity="1.0"
     inkscape:pageopacity="0.0"
     inkscape:pageshadow="2"
     inkscape:zoom="1.4"
     inkscape:cx="213.44465"
     inkscape:cy="34.720677"
     inkscape:document-units="mm"
     inkscape:current-layer="layer1"
     showgrid="false"
     inkscape:window-width="1533"
     inkscape:window-height="845"
     inkscape:window-x="67"
     inkscape:window-y="27"
     inkscape:window-maximized="1" />
  <metadata
     id="metadata5">
    <rdf:RDF>
      <cc:Work
         rdf:about="">
        <dc:format>image/svg+xml</dc:format>
        <dc:type
           rdf:resource="http://purl.org/dc/dcmitype/StillImage" />
        <dc:title></dc:title>
      </cc:Work>
    </rdf:RDF>
  </metadata>
  <g
     inkscape:label="Calque 1"
     inkscape:groupmode="layer"
     id="layer1"
     transform="translate(0,-242)">
    <g
       aria-label="C"
       style="font-style:normal;font-variant:normal;font-weight:normal;font-stretch:normal;font-size:10.58333302px;line-height:1.25;font-family:'Cursive standard';-inkscape-font-specification:'Cursive standard';letter-spacing:0px;word-spacing:0px;fill:#000000;fill-opacity:1;stroke:none;stroke-width:0.26458332"
       id="text966">
      <path
         d="m 40.117383,282.3194 q 0,2.06375 -0.8255,3.71475 -0.779639,1.651 -2.06375,2.79753 -1.23825,1.14653 -2.88925,1.78858 -1.605139,0.64206 -3.256139,0.64206 -2.751667,0 -4.953,-1.37583 -2.155472,-1.4217 -3.668889,-3.66889 -1.513416,-2.2472 -2.338916,-5.09059 -0.779639,-2.84339 -0.779639,-5.73264 0,-1.97202 0.137583,-3.89819 0.137583,-1.97203 0.504472,-3.89819 -2.06375,-1.37584 -3.072694,-3.76062 -1.008945,-2.38477 -1.008945,-4.99886 0,-2.20133 0.871362,-3.98991 0.8255,-1.78859 2.201333,-3.0727 1.375833,-1.28411 3.118555,-1.97203 1.742723,-0.68791 3.531306,-0.68791 0.366889,0 0.642055,0.32103 0.321028,0.27516 0.321028,0.73377 0,0.45861 -0.321028,0.77964 -0.275166,0.27517 -0.642055,0.27517 -1.421695,0 -2.843389,0.55033 -1.375833,0.50447 -2.522361,1.51342 -1.100667,0.96308 -1.788583,2.38478 -0.687917,1.42169 -0.687917,3.16441 0,1.83445 0.642056,3.62303 0.642055,1.74272 1.972027,2.88925 0.642056,-2.79753 1.834445,-5.64092 1.192389,-2.88925 2.88925,-5.22816 1.742722,-2.38478 3.989916,-3.85234 2.293056,-1.51341 5.136445,-1.51341 1.008944,0 1.788583,0.50447 0.8255,0.45861 1.375833,1.23825 0.596195,0.77964 0.871361,1.83444 0.321028,1.00895 0.321028,2.06375 0,3.25614 -1.329972,5.87023 -1.284111,2.61408 -3.393722,4.44852 -2.06375,1.78859 -4.677833,2.75167 -2.568223,0.96308 -5.182306,0.96308 -1.284111,0 -2.293055,-0.36688 -0.275167,1.74272 -0.41275,3.5313 -0.09172,1.74272 -0.09172,3.43958 0,2.43064 0.642056,4.86128 0.687916,2.43064 1.926166,4.40267 1.284112,1.97203 3.118556,3.25614 1.834444,1.23825 4.173361,1.23825 1.284111,0 2.522361,-0.45861 1.284111,-0.45861 2.293056,-1.32998 1.054805,-0.87136 1.696861,-2.15547 0.642055,-1.28411 0.642055,-2.88925 0,-1.14653 -0.687916,-2.10961 -0.642056,-0.96308 -1.696861,-0.96308 -0.8255,0 -1.146528,0.32103 -0.275167,0.32102 -0.41275,0.73377 -0.137584,0.36689 -0.321028,0.68792 -0.137583,0.32103 -0.642055,0.32103 -0.366889,0 -0.642056,-0.32103 -0.275167,-0.32103 -0.275167,-0.8255 0,-0.73378 0.321028,-1.28411 0.321028,-0.5962 0.8255,-0.96308 0.504472,-0.41275 1.100667,-0.5962 0.596194,-0.18344 1.192389,-0.18344 0.917222,0 1.696861,0.45861 0.779639,0.45861 1.329972,1.14653 0.596194,0.68791 0.917222,1.651 0.321028,0.96308 0.321028,1.92616 z m -3.393722,-27.56253 q 0,-0.59619 -0.183445,-1.19238 -0.137583,-0.64206 -0.458611,-1.14653 -0.321028,-0.55034 -0.779639,-0.87136 -0.458611,-0.32103 -1.054805,-0.32103 -2.4765,0 -4.494389,1.46755 -2.017889,1.46756 -3.531306,3.71475 -1.513416,2.20134 -2.522361,4.90714 -1.008944,2.65995 -1.559278,5.09059 0.917223,0.27516 1.880306,0.27516 2.201333,0 4.448528,-0.77964 2.293055,-0.8255 4.081639,-2.33891 1.834444,-1.55928 2.980972,-3.80647 1.192389,-2.2472 1.192389,-4.99887 z"
         style="font-size:45.86111069px;stroke-width:0.26458332"
         id="path968" />
    </g>
  </g>
</svg>
