<?xml version="1.0" encoding="UTF-8" standalone="no"?>
<!-- Created with Inkscape (http://www.inkscape.org/) -->

<svg
   xmlns:dc="http://purl.org/dc/elements/1.1/"
   xmlns:cc="http://creativecommons.org/ns#"
   xmlns:rdf="http://www.w3.org/1999/02/22-rdf-syntax-ns#"
   xmlns:svg="http://www.w3.org/2000/svg"
   xmlns="http://www.w3.org/2000/svg"
   xmlns:sodipodi="http://sodipodi.sourceforge.net/DTD/sodipodi-0.dtd"
   xmlns:inkscape="http://www.inkscape.org/namespaces/inkscape"
   width="55mm"
   height="55mm"
   viewBox="0 0 55 55"
   version="1.1"
   id="svg8"
   inkscape:version="0.91 r13725"
   sodipodi:docname="upper-u.svg">
  <defs
     id="defs2" />
  <sodipodi:namedview
     id="base"
     pagecolor="#ffffff"
     bordercolor="#666666"
     borderopacity="1.0"
     inkscape:pageopacity="0.0"
     inkscape:pageshadow="2"
     inkscape:zoom="1.4"
     inkscape:cx="-72.983922"
     inkscape:cy="43.63747"
     inkscape:document-units="mm"
     inkscape:current-layer="layer1"
     showgrid="false"
     inkscape:window-width="1440"
     inkscape:window-height="800"
     inkscape:window-x="0"
     inkscape:window-y="1"
     inkscape:window-maximized="1" />
  <metadata
     id="metadata5">
    <rdf:RDF>
      <cc:Work
         rdf:about="">
        <dc:format>image/svg+xml</dc:format>
        <dc:type
           rdf:resource="http://purl.org/dc/dcmitype/StillImage" />
        <dc:title />
      </cc:Work>
    </rdf:RDF>
  </metadata>
  <g
     inkscape:label="Calque 1"
     inkscape:groupmode="layer"
     id="layer1"
     transform="translate(0,-242)">
    <g
       style="font-style:normal;font-variant:normal;font-weight:normal;font-stretch:normal;font-size:63.49999619px;line-height:125%;font-family:Graphecrit;-inkscape-font-specification:Graphecrit;letter-spacing:0px;word-spacing:0px;fill:#000000;fill-opacity:1;stroke:none;stroke-width:1px;stroke-linecap:butt;stroke-linejoin:miter;stroke-opacity:1"
       id="text6642">
      <path
         d="m 43.56655,270.05938 q 0.22225,0.17286 0.246945,0.4445 l 0,0.0741 q 0,0.24695 -0.148167,0.4445 -1.506361,1.8027 -2.617611,2.61762 -1.629833,1.18533 -3.432527,1.18533 l -0.345723,0 q -3.333749,-0.22225 -4.741333,-4.17336 -1.531055,2.32128 -3.259666,3.35844 -1.358194,0.81492 -2.741083,0.81492 -0.592667,0 -1.160639,-0.14817 -2.024944,-0.54328 -3.358444,-2.69169 -1.308806,-2.12372 -1.308806,-4.86481 0,-0.19755 -0.02469,-1.11125 l 0,-0.37041 -0.0247,-0.41981 0,-0.93839 q -0.02469,-1.21003 -0.02469,-2.34597 l 0,-1.21003 q 0,-2.42005 0.07408,-4.59316 0.0247,-0.69145 0.0247,-1.3582 0,-3.03742 -0.469195,-5.38339 -0.567972,-2.86455 -1.679222,-3.92641 -0.567972,-0.54328 -1.284111,-0.54328 l -0.123472,0 q -2.271889,0.14817 -3.481916,2.42005 -0.938389,1.75331 -0.938389,4.07459 0,0.32102 0.02469,0.66675 0.09878,2.02494 0.864306,3.45722 0.839611,1.58044 2.099027,1.58044 l 0.07408,0 q 0.889,-0.0494 1.852083,-1.50636 0.345722,-0.51858 0.66675,-1.18533 0.246944,-0.51858 0.419805,-0.96308 0.07408,-0.24695 0.345722,-0.37042 0.148167,-0.0741 0.271639,-0.0741 0.123473,0 0.246945,0.0494 0.246944,0.0741 0.370416,0.34573 0.07408,0.14816 0.07408,0.27164 0,0.12347 -0.04939,0.24694 l 0,0.0494 -0.02469,0.0741 q -0.04939,0.0988 -0.09878,0.19756 -0.09878,0.27164 -0.22225,0.56797 -0.395111,0.83961 -0.839611,1.50636 -1.382889,2.07433 -2.963334,2.12372 l -0.148166,0 q -1.728611,0 -2.913944,-1.70391 -1.259417,-1.75331 -1.382889,-4.59317 -0.0247,-0.37042 -0.0247,-0.74083 0,-2.81517 1.210028,-4.93889 1.55575,-2.71639 4.494389,-2.91395 l 0.246944,0 q 1.234722,0 2.173111,0.93839 1.654528,1.60514 2.247194,5.75381 0.22225,1.50636 0.271639,3.30905 0.02469,0.86431 0.02469,1.72861 l 0,0.889 q -0.07408,2.14842 -0.07408,4.51909 l 0,1.18533 q 0,1.11125 0.0247,2.32128 l 0,0.96308 0.02469,0.41981 0,0.39511 q 0.02469,0.91369 0.02469,1.13594 0,2.2472 1.037166,4.0252 1.037167,1.80269 2.617611,2.2225 0.419806,0.12347 0.839611,0.12347 1.160639,0 2.345972,-0.86431 1.629833,-1.13594 3.136194,-3.70416 l 0,-0.0494 0.0247,-0.0247 q -0.09878,-0.64205 -0.123472,-1.21002 l 0,-23.48442 q 0,-0.29633 0.197555,-0.49389 0.197556,-0.19755 0.469195,-0.19755 0.296333,0 0.493889,0.19755 0.197555,0.19756 0.197555,0.49389 l 0,23.5338 q 0,0.0741 0.0247,0.17287 0.02469,0.32102 0.07408,0.64205 0.172861,1.06186 0.518583,1.95086 1.086556,2.86456 3.432528,3.01272 l 0.22225,0 q 1.308805,0 2.494138,-0.79022 1.061861,-0.71614 2.543528,-2.51883 0.197556,-0.22225 0.469194,-0.24695 l 0.07408,0 q 0.22225,0 0.419805,0.14817 z"
         style="font-size:49.3888855px"
         id="path7810" />
    </g>
  </g>
</svg>
