<?xml version="1.0" encoding="UTF-8" standalone="no"?>
<!-- Created with Inkscape (http://www.inkscape.org/) -->

<svg
   xmlns:dc="http://purl.org/dc/elements/1.1/"
   xmlns:cc="http://creativecommons.org/ns#"
   xmlns:rdf="http://www.w3.org/1999/02/22-rdf-syntax-ns#"
   xmlns:svg="http://www.w3.org/2000/svg"
   xmlns="http://www.w3.org/2000/svg"
   xmlns:sodipodi="http://sodipodi.sourceforge.net/DTD/sodipodi-0.dtd"
   xmlns:inkscape="http://www.inkscape.org/namespaces/inkscape"
   width="55mm"
   height="55mm"
   viewBox="0 0 55 55"
   version="1.1"
   id="svg8"
   inkscape:version="0.91 r13725"
   sodipodi:docname="upper-z.svg">
  <defs
     id="defs2" />
  <sodipodi:namedview
     id="base"
     pagecolor="#ffffff"
     bordercolor="#666666"
     borderopacity="1.0"
     inkscape:pageopacity="0.0"
     inkscape:pageshadow="2"
     inkscape:zoom="1.4"
     inkscape:cx="70.230364"
     inkscape:cy="43.63747"
     inkscape:document-units="mm"
     inkscape:current-layer="layer1"
     showgrid="false"
     inkscape:window-width="1440"
     inkscape:window-height="800"
     inkscape:window-x="0"
     inkscape:window-y="1"
     inkscape:window-maximized="1" />
  <metadata
     id="metadata5">
    <rdf:RDF>
      <cc:Work
         rdf:about="">
        <dc:format>image/svg+xml</dc:format>
        <dc:type
           rdf:resource="http://purl.org/dc/dcmitype/StillImage" />
        <dc:title></dc:title>
      </cc:Work>
    </rdf:RDF>
  </metadata>
  <g
     inkscape:label="Calque 1"
     inkscape:groupmode="layer"
     id="layer1"
     transform="translate(0,-242)">
    <g
       style="font-style:normal;font-variant:normal;font-weight:normal;font-stretch:normal;font-size:63.49999619px;line-height:125%;font-family:Graphecrit;-inkscape-font-specification:Graphecrit;letter-spacing:0px;word-spacing:0px;fill:#000000;fill-opacity:1;stroke:none;stroke-width:1px;stroke-linecap:butt;stroke-linejoin:miter;stroke-opacity:1"
       id="text6642">
      <path
         d="m 21.405052,272.38066 q 0.345722,-0.4445 0.839611,-1.23472 -1.086555,-0.4445 -1.827389,-0.4445 -0.888999,0 -1.432277,0.66675 -0.642056,0.79022 -0.642056,1.3335 0,0.17286 0.04939,0.29633 0.172861,0.41981 0.814917,0.49389 0.123472,0.0247 0.246944,0.0247 0.395111,0 0.839611,-0.19755 0.66675,-0.29634 1.11125,-0.93839 z m 16.545277,-27.50961 q -1.160639,0 -2.716389,2.34597 1.876778,-0.17286 3.037417,-1.01247 0.296333,-0.22225 0.4445,-0.4445 0.04939,-0.0741 0.07408,-0.14817 0.02469,-0.0494 0.02469,-0.0741 -0.04939,-0.22225 -0.246944,-0.39511 -0.22225,-0.24695 -0.543278,-0.24695 l -0.07408,-0.0247 z m -3.531305,3.67947 q -0.963084,1.8027 -1.950861,4.34622 -1.11125,2.96334 -2.44475,6.00075 1.629833,0.81492 2.345972,0.9137 l 0.22225,0 q 0.790222,0 1.432277,-0.66675 0.172862,-0.19756 0.4445,-0.22225 0.296334,0 0.493889,0.17286 0.197556,0.19755 0.197556,0.46919 l 0,0.0494 q 0,0.24695 -0.172861,0.41981 -1.012472,1.11125 -2.321278,1.11125 -1.086555,0 -3.185583,-1.03717 -2.642305,5.87728 -5.358694,10.44575 0.592667,0.29633 1.654528,0.91369 l 0.543277,0.29634 0.518584,0.27164 q 0.567972,0.32102 1.012472,0.51858 0.814916,0.39511 2.00025,0.64206 1.284111,0.27163 2.494138,0.27163 l 0.197556,0 q 1.432278,-0.0247 2.691694,-0.76552 1.234722,-0.74084 2.617611,-2.42006 0.172861,-0.22225 0.4445,-0.24694 l 0.07408,0 q 0.22225,0 0.419806,0.14816 0.197555,0.17286 0.22225,0.4445 l 0,0.0741 q 0,0.22225 -0.148167,0.4198 -1.358194,1.65453 -2.617611,2.49414 -1.703916,1.16064 -3.679472,1.16064 l -0.271639,0 q -2.815166,0 -5.012971,-1.01247 -0.716139,-0.34572 -2.148417,-1.16064 -1.037167,-0.56797 -1.679222,-0.9137 -0.592667,0.93839 -0.963083,1.45698 -1.185334,1.67922 -3.086806,1.67922 -0.172861,0 -0.345722,-0.0247 -1.407583,-0.14816 -1.876778,-1.28411 -0.09878,-0.22225 -0.123472,-0.46919 -0.02469,-0.17286 -0.02469,-0.32103 0,-0.17286 0.02469,-0.34572 0.148167,-0.889 0.889,-1.82739 0.938389,-1.16064 2.469444,-1.16064 1.11125,0 2.518834,0.59267 2.691694,-4.54378 5.358694,-10.44575 -0.592667,-0.27164 -1.210028,-0.27164 -0.642055,0 -1.3335,0.29633 -0.419805,0.19756 -0.790222,0.49389 -0.123472,0.0741 -0.22225,0.17286 -0.02469,0.0247 -0.04939,0.0494 l -0.02469,0.0247 q -0.197556,0.19755 -0.469195,0.19755 -0.271639,0 -0.469194,-0.19755 -0.197556,-0.19756 -0.197556,-0.4692 0,-0.27164 0.197556,-0.46919 l 0.04939,-0.0247 q 0.02469,-0.0494 0.07408,-0.0988 0.148167,-0.12348 0.321028,-0.24695 0.518583,-0.39511 1.11125,-0.66675 0.913694,-0.39511 1.802694,-0.39511 0.889,0 1.753305,0.39511 1.308806,-2.96333 2.395361,-5.87728 0.889,-2.32127 1.778,-4.04988 -0.963083,-0.17287 -1.901472,-0.56798 l -0.765528,-0.32102 -0.765527,-0.34573 -0.66675,-0.29633 -0.691445,-0.29633 q -0.790222,-0.32103 -1.407583,-0.56798 -1.55575,-0.61736 -2.716389,-0.889 -1.012472,-0.24694 -1.852083,-0.24694 -1.580444,0 -2.494138,0.86431 -1.037167,1.01247 -1.037167,2.49413 l 0,0.0741 q 0,0.54328 0.148167,1.11125 0.04939,0.19755 0.123472,0.4198 0.07408,0.14817 0.123472,0.29634 0.4445,1.01247 1.185333,1.65452 0.716139,0.56798 1.358195,0.56798 l 0.09878,0 q 1.210028,-0.0741 1.629834,-1.72861 0.123472,-0.54328 0.148166,-1.16064 l 0,-0.56798 q 0,-0.24694 0.172861,-0.4445 0.172861,-0.19755 0.4445,-0.22225 l 0.04939,0 q 0.617361,0 0.66675,0.64206 l 0,0.27164 q 0,0.54328 -0.07408,1.11125 -0.123472,0.8643 -0.4445,1.55575 -0.790222,1.7533 -2.518833,1.87678 l -0.123473,0 q -1.086555,0 -2.099027,-0.76553 -1.086556,-0.83961 -1.703917,-2.27189 -0.518583,-1.18533 -0.518583,-2.42006 0,-0.24694 0.02469,-0.49388 0.172862,-1.72862 1.456973,-2.93864 1.284111,-1.23473 3.383138,-1.23473 0.814917,0 1.753306,0.19756 1.308805,0.24694 3.037416,0.91369 0.691445,0.27164 1.55575,0.64206 l 0.765528,0.32103 0.765527,0.32103 0.765528,0.34572 0.740833,0.32103 q 0.987778,0.4198 2.074334,0.54327 2.173111,-3.60539 4.222749,-3.60539 l 0.172861,0 q 0.765528,0.0494 1.3335,0.56798 0.518584,0.46919 0.66675,1.11125 0.04939,0.17286 0.04939,0.34572 0,0.76553 -0.889,1.50636 -0.740833,0.61736 -1.950861,1.03717 -1.308805,0.4198 -2.741083,0.4198 l -0.148166,0 z"
         style="font-size:49.3888855px"
         id="path5050" />
    </g>
  </g>
</svg>
