<?xml version="1.0" encoding="UTF-8" standalone="no"?>
<!-- Created with Inkscape (http://www.inkscape.org/) -->

<svg
   xmlns:dc="http://purl.org/dc/elements/1.1/"
   xmlns:cc="http://creativecommons.org/ns#"
   xmlns:rdf="http://www.w3.org/1999/02/22-rdf-syntax-ns#"
   xmlns:svg="http://www.w3.org/2000/svg"
   xmlns="http://www.w3.org/2000/svg"
   xmlns:sodipodi="http://sodipodi.sourceforge.net/DTD/sodipodi-0.dtd"
   xmlns:inkscape="http://www.inkscape.org/namespaces/inkscape"
   width="55mm"
   height="55mm"
   viewBox="0 0 55 55"
   version="1.1"
   id="svg8"
   inkscape:version="0.91 r13725"
   sodipodi:docname="upper-v.svg">
  <defs
     id="defs2" />
  <sodipodi:namedview
     id="base"
     pagecolor="#ffffff"
     bordercolor="#666666"
     borderopacity="1.0"
     inkscape:pageopacity="0.0"
     inkscape:pageshadow="2"
     inkscape:zoom="1.4"
     inkscape:cx="-72.983922"
     inkscape:cy="43.63747"
     inkscape:document-units="mm"
     inkscape:current-layer="layer1"
     showgrid="false"
     inkscape:window-width="1440"
     inkscape:window-height="800"
     inkscape:window-x="0"
     inkscape:window-y="1"
     inkscape:window-maximized="1" />
  <metadata
     id="metadata5">
    <rdf:RDF>
      <cc:Work
         rdf:about="">
        <dc:format>image/svg+xml</dc:format>
        <dc:type
           rdf:resource="http://purl.org/dc/dcmitype/StillImage" />
        <dc:title />
      </cc:Work>
    </rdf:RDF>
  </metadata>
  <g
     inkscape:label="Calque 1"
     inkscape:groupmode="layer"
     id="layer1"
     transform="translate(0,-242)">
    <g
       style="font-style:normal;font-variant:normal;font-weight:normal;font-stretch:normal;font-size:63.49999619px;line-height:125%;font-family:Graphecrit;-inkscape-font-specification:Graphecrit;letter-spacing:0px;word-spacing:0px;fill:#000000;fill-opacity:1;stroke:none;stroke-width:1px;stroke-linecap:butt;stroke-linejoin:miter;stroke-opacity:1"
       id="text6642">
      <path
         d="m 31.910774,244.96983 q -0.09878,0 -0.22225,0.0247 -0.889,0.24695 -1.037166,1.38289 -0.02469,0.12347 -0.02469,0.24695 0,0.93838 0.987778,1.53105 1.086555,0.61736 2.321278,0.61736 0.197555,0 0.419805,-0.0247 -0.592667,-2.09903 -1.284111,-3.01272 -0.567972,-0.76553 -1.160639,-0.76553 z m -2.271889,29.85558 q -2.148416,-0.0494 -4.148666,-2.6917 -1.950861,-2.56822 -2.074333,-5.13644 -0.0247,-0.49389 -0.0247,-1.35819 0,-2.04964 0.123473,-6.14892 0.123472,-4.09928 0.123472,-6.81567 0,-3.70416 -0.22225,-4.81541 -0.518583,-2.76578 -2.074333,-2.91395 l -0.123472,0 q -1.061862,0 -2.2225,1.06186 -1.259417,1.13595 -1.876778,2.79048 -0.493889,1.28411 -0.493889,2.59291 0,0.56797 0.09878,1.13595 0.271639,1.67922 1.185333,2.79047 0.814917,1.01247 1.629833,1.01247 l 0.148167,0 q 0.987778,-0.14817 1.703917,-1.67922 0.518583,-1.11125 0.716138,-2.2472 0.07408,-0.56797 0.567973,-0.56797 0.09878,0 0.172861,0.0247 0.271639,0.0494 0.419805,0.27164 0.123472,0.17286 0.123472,0.37041 l 0,0.12347 q -0.197555,1.21003 -0.740833,2.42006 -1.037166,2.32128 -2.765777,2.56822 -0.197556,0.0247 -0.370417,0.0247 -1.407583,0 -2.617611,-1.48167 -1.11125,-1.38289 -1.432278,-3.38314 -0.123472,-0.74083 -0.123472,-1.45697 0,-1.50636 0.543278,-2.98803 0.790222,-2.09903 2.395361,-3.45722 1.506361,-1.23472 2.913944,-1.23472 l 0.271639,0 q 2.518833,0.22225 3.234972,3.9758 0.22225,1.23473 0.22225,5.18584 0,2.71638 -0.09878,6.71688 -0.123472,4.04989 -0.123472,6.07484 0,0.8643 0.02469,1.35819 0.09878,2.12372 1.753306,4.32153 1.654527,2.2225 3.185583,2.24719 l 0.09878,0 q 2.074333,0 3.531305,-1.90147 1.456972,-1.87678 2.123722,-5.40808 0.518583,-2.79047 0.518583,-5.87728 0,-4.79072 -1.259416,-10.32228 -0.395111,0.0494 -0.765528,0.0494 -1.605139,0 -2.938639,-0.79022 -1.654527,-0.96308 -1.654527,-2.6423 0,-0.22225 0.02469,-0.4445 0.123472,-0.86431 0.691445,-1.55575 0.543277,-0.69145 1.308805,-0.889 0.321028,-0.0741 0.617361,-0.0741 1.185333,0 2.148417,1.28411 0.864305,1.11125 1.55575,3.5807 2.568222,-0.76553 3.778249,-2.79047 0.148167,-0.22225 0.419806,-0.29634 0.07408,-0.0247 0.148166,-0.0247 0.172862,0 0.345723,0.0988 0.22225,0.14816 0.296333,0.39511 0.02469,0.0741 0.02469,0.14816 0,0.19756 -0.09878,0.37042 -1.481667,2.46944 -4.593167,3.33375 1.284111,5.55625 1.284111,10.44575 0,3.25967 -0.567972,6.223 -0.913694,4.91419 -3.383139,7.01322 -1.605138,1.38289 -3.580694,1.38289 l -0.09878,0 z"
         style="font-size:49.3888855px"
         id="path7258" />
    </g>
  </g>
</svg>
