<?xml version="1.0" encoding="UTF-8" standalone="no"?>
<!-- Created with Inkscape (http://www.inkscape.org/) -->

<svg
   xmlns:dc="http://purl.org/dc/elements/1.1/"
   xmlns:cc="http://creativecommons.org/ns#"
   xmlns:rdf="http://www.w3.org/1999/02/22-rdf-syntax-ns#"
   xmlns:svg="http://www.w3.org/2000/svg"
   xmlns="http://www.w3.org/2000/svg"
   xmlns:sodipodi="http://sodipodi.sourceforge.net/DTD/sodipodi-0.dtd"
   xmlns:inkscape="http://www.inkscape.org/namespaces/inkscape"
   width="55mm"
   height="55mm"
   viewBox="0 0 55 55"
   version="1.1"
   id="svg8"
   inkscape:version="0.91 r13725"
   sodipodi:docname="upper-i.svg">
  <defs
     id="defs2" />
  <sodipodi:namedview
     id="base"
     pagecolor="#ffffff"
     bordercolor="#666666"
     borderopacity="1.0"
     inkscape:pageopacity="0.0"
     inkscape:pageshadow="2"
     inkscape:zoom="1.4"
     inkscape:cx="-72.983922"
     inkscape:cy="43.63747"
     inkscape:document-units="mm"
     inkscape:current-layer="layer1"
     showgrid="false"
     inkscape:window-width="1440"
     inkscape:window-height="800"
     inkscape:window-x="0"
     inkscape:window-y="1"
     inkscape:window-maximized="1" />
  <metadata
     id="metadata5">
    <rdf:RDF>
      <cc:Work
         rdf:about="">
        <dc:format>image/svg+xml</dc:format>
        <dc:type
           rdf:resource="http://purl.org/dc/dcmitype/StillImage" />
        <dc:title />
      </cc:Work>
    </rdf:RDF>
  </metadata>
  <g
     inkscape:label="Calque 1"
     inkscape:groupmode="layer"
     id="layer1"
     transform="translate(0,-242)">
    <g
       style="font-style:normal;font-variant:normal;font-weight:normal;font-stretch:normal;font-size:63.49999619px;line-height:125%;font-family:Graphecrit;-inkscape-font-specification:Graphecrit;letter-spacing:0px;word-spacing:0px;fill:#000000;fill-opacity:1;stroke:none;stroke-width:1px;stroke-linecap:butt;stroke-linejoin:miter;stroke-opacity:1"
       id="text6642">
      <path
         d="m 31.494496,245.83413 q 1.778,0.64206 2.518834,0.64206 0.271638,0 0.395111,-0.0988 0.09878,-0.0494 0.09878,-0.37042 0,-0.4198 -0.370416,-0.71613 -0.395111,-0.29634 -0.913695,-0.29634 -0.963083,0 -1.728611,0.83961 z m -6.667499,28.99128 q -0.567972,0 -1.135945,-0.14817 -1.259416,-0.29633 -2.123722,-1.11125 -0.864305,-0.83961 -0.938388,-1.778 l 0,-0.14816 q 0,-1.55575 1.975555,-2.32128 0.09878,-0.0494 0.22225,-0.0494 0.148167,0 0.296333,0.0741 0.246945,0.0988 0.345722,0.34572 0.04939,0.12348 0.04939,0.24695 0,0.12347 -0.07408,0.27164 -0.09878,0.24694 -0.345722,0.34572 -1.160639,0.46919 -1.160639,1.11125 l 0,0.0247 q 0.04939,0.4692 0.592667,0.96309 0.592666,0.54328 1.481666,0.74083 0.469195,0.12347 0.889,0.12347 1.580444,0 2.543528,-1.58044 0.963083,-1.58045 1.160639,-5.21053 0.04939,-0.98778 0.04939,-2.61761 0,-1.92617 -0.07408,-4.76603 -0.09878,-3.35844 -0.09878,-5.63033 0,-1.30881 0.02469,-2.24719 0.123472,-2.98803 1.012472,-4.96359 -4.123972,-1.55575 -5.7785,-1.55575 l -0.04939,0 q -1.333499,0.0494 -2.345972,1.30881 -0.913694,1.16064 -1.086555,2.69169 -0.02469,0.27164 -0.02469,0.51859 0,0.61736 0.172862,1.16064 0.370416,1.23472 1.605138,1.53105 0.518584,0.12347 0.938389,0.12347 0.716139,0 1.135945,-0.37041 0.765527,-0.64206 0.765527,-2.37067 l 0,-0.0741 q 0,-0.22225 0.148167,-0.39511 0.197555,-0.19756 0.469194,-0.22225 l 0.04939,0 q 0.22225,0 0.419806,0.14816 0.22225,0.17286 0.22225,0.4445 0.02469,0.24695 0.02469,0.49389 0,1.95086 -1.234722,2.98803 -0.814917,0.69144 -2.00025,0.69144 -0.592666,0 -1.259416,-0.17286 -1.432278,-0.34572 -2.173111,-1.60514 -0.617361,-1.01247 -0.617361,-2.32127 0,-0.32103 0.04939,-0.69145 0.197556,-2.00025 1.432278,-3.48192 1.358194,-1.65452 3.284361,-1.70391 l 0.09878,0 q 1.926166,0 6.247694,1.65453 0.123472,0.0494 0.197555,0.0741 1.234722,-1.70392 2.988028,-1.70392 l 0.04939,0 q 1.086555,0.0247 1.827389,0.69145 0.740833,0.69144 0.740833,1.65452 0,1.01248 -0.66675,1.45698 -0.395111,0.27164 -1.11125,0.27164 -1.185333,0 -3.284361,-0.76553 -0.814917,1.70391 -0.913694,4.54377 -0.04939,1.03717 -0.04939,2.46945 0,2.1978 0.09878,5.334 0.09878,2.96333 0.09878,4.98828 0,1.72861 -0.07408,2.79047 -0.246944,3.70416 -1.3335,5.50686 -1.358194,2.2225 -3.753555,2.2225 z"
         style="font-size:49.3888855px"
         id="path5250" />
    </g>
  </g>
</svg>
