<?xml version="1.0" encoding="UTF-8" standalone="no"?>
<!-- Created with Inkscape (http://www.inkscape.org/) -->

<svg
   xmlns:dc="http://purl.org/dc/elements/1.1/"
   xmlns:cc="http://creativecommons.org/ns#"
   xmlns:rdf="http://www.w3.org/1999/02/22-rdf-syntax-ns#"
   xmlns:svg="http://www.w3.org/2000/svg"
   xmlns="http://www.w3.org/2000/svg"
   xmlns:sodipodi="http://sodipodi.sourceforge.net/DTD/sodipodi-0.dtd"
   xmlns:inkscape="http://www.inkscape.org/namespaces/inkscape"
   width="55mm"
   height="55mm"
   viewBox="0 0 55 55"
   version="1.1"
   id="svg8"
   inkscape:version="0.91 r13725"
   sodipodi:docname="upper-f.svg">
  <defs
     id="defs2" />
  <sodipodi:namedview
     id="base"
     pagecolor="#ffffff"
     bordercolor="#666666"
     borderopacity="1.0"
     inkscape:pageopacity="0.0"
     inkscape:pageshadow="2"
     inkscape:zoom="1.4"
     inkscape:cx="-72.983922"
     inkscape:cy="43.63747"
     inkscape:document-units="mm"
     inkscape:current-layer="layer1"
     showgrid="false"
     inkscape:window-width="1440"
     inkscape:window-height="800"
     inkscape:window-x="0"
     inkscape:window-y="1"
     inkscape:window-maximized="1" />
  <metadata
     id="metadata5">
    <rdf:RDF>
      <cc:Work
         rdf:about="">
        <dc:format>image/svg+xml</dc:format>
        <dc:type
           rdf:resource="http://purl.org/dc/dcmitype/StillImage" />
        <dc:title />
      </cc:Work>
    </rdf:RDF>
  </metadata>
  <g
     inkscape:label="Calque 1"
     inkscape:groupmode="layer"
     id="layer1"
     transform="translate(0,-242)">
    <g
       style="font-style:normal;font-variant:normal;font-weight:normal;font-stretch:normal;font-size:63.49999619px;line-height:125%;font-family:Graphecrit;-inkscape-font-specification:Graphecrit;letter-spacing:0px;word-spacing:0px;fill:#000000;fill-opacity:1;stroke:none;stroke-width:1px;stroke-linecap:butt;stroke-linejoin:miter;stroke-opacity:1"
       id="text6642">
      <path
         d="m 31.998968,253.93391 q -0.22225,0.0494 -0.469194,0.46919 -0.22225,0.39512 -0.22225,0.86431 l 0,0.0988 q 0.07408,0.83961 0.938389,1.28411 0.321027,-0.49389 0.321027,-1.13595 0,-0.22225 -0.04939,-0.49388 -0.22225,-1.08656 -0.518583,-1.08656 z m 5.852583,-8.32203 q 0.04939,0.12348 0.04939,0.27164 0,0.12347 -0.04939,0.24695 -0.123472,0.24694 -0.370417,0.34572 -0.839611,0.34572 -1.975555,0.34572 -1.531055,0 -3.630083,-0.61736 -1.234722,1.01247 -2.123722,3.18558 -1.382889,3.25967 -1.382889,8.14917 0,0.49389 0.02469,0.98778 1.753306,-0.34573 2.790473,-0.93839 -1.135945,-0.81492 -1.234723,-2.09903 l 0,-0.24694 q 0,-0.889 0.493889,-1.65453 0.567972,-0.889 1.382889,-0.98778 0.123472,-0.0247 0.246944,-0.0247 0.370417,0 0.740834,0.24694 0.765527,0.51858 1.037166,1.95086 0.07408,0.39511 0.07408,0.79022 0,0.79023 -0.345723,1.48167 0.493889,0.0741 1.061861,0.0741 l 0.321028,0 q 0.271639,0 0.469195,0.19756 0.197555,0.19755 0.22225,0.46919 0,0.29634 -0.197556,0.49389 -0.197555,0.19756 -0.469194,0.22225 -1.382889,0 -2.370667,-0.24694 -1.382889,1.13594 -4.173361,1.65453 0.04939,1.35819 0.04939,2.59291 0,8.37142 -2.494138,10.84086 -1.481667,1.48167 -3.901722,1.48167 l -0.419806,0 q -1.852083,-0.0988 -2.44475,-1.87678 -0.172861,-0.54328 -0.172861,-1.08655 0,-0.34573 0.07408,-0.71614 0.197556,-0.889 0.790223,-1.40759 0.543277,-0.46919 1.210027,-0.46919 0.567972,0 1.210028,0.37042 0.246944,0.14816 0.345722,0.4198 0.02469,0.0988 0.02469,0.17286 0,0.17286 -0.09878,0.34572 -0.123472,0.24695 -0.395111,0.32103 -0.09878,0.0247 -0.197556,0.0247 -0.172861,0 -0.321028,-0.0741 -0.296333,-0.17286 -0.543277,-0.17286 -0.22225,0 -0.370417,0.12347 -0.246944,0.19756 -0.345722,0.69145 -0.0247,0.19755 -0.0247,0.37042 0,0.32102 0.09878,0.64205 0.296334,0.9137 1.234722,0.93839 l 0.395111,0 q 1.827389,0 2.88925,-1.06186 2.099028,-2.09903 2.099028,-9.779 0,-1.18533 -0.04939,-2.49414 -1.358194,0.14817 -2.716389,0.14817 l -0.419805,0 q -0.296334,0 -0.469195,-0.22225 -0.197555,-0.19756 -0.197555,-0.4692 0.02469,-0.29633 0.22225,-0.49389 0.197555,-0.17286 0.4445,-0.17286 l 0.543278,0 q 1.185333,0 2.568222,-0.17286 -0.02469,-0.74083 -0.02469,-1.43228 0,-8.00099 3.383139,-11.58169 -0.07408,-0.0247 -0.296334,-0.0988 -0.148166,-0.0494 -0.271638,-0.0988 -1.234723,-0.49389 -2.518834,-0.49389 -1.876777,0 -3.926416,1.03716 -3.605389,1.87678 -4.272139,4.96359 -0.246944,1.08655 -0.246944,2.00025 0,1.82738 0.938389,3.06211 0.765528,0.98777 2.074333,1.03716 l 0.123472,0 q 0.469195,0 0.839611,-0.37041 1.382889,-1.3582 1.382889,-5.334 l 0,-0.54328 q 0,-0.27164 0.197556,-0.46919 0.197555,-0.22225 0.469194,-0.22225 l 0.02469,0 q 0.271639,0 0.469195,0.19755 0.197555,0.19756 0.22225,0.4692 l 0,0.49388 q 0,4.61786 -1.827389,6.39586 -0.765528,0.76553 -1.827389,0.76553 -0.07408,0 -0.148166,-0.0247 -1.926167,-0.0741 -3.086806,-1.58045 -1.210027,-1.60514 -1.210027,-3.87702 0,-1.06187 0.271639,-2.29659 0.814916,-3.70416 4.988277,-5.87727 2.345972,-1.21003 4.519083,-1.21003 1.580444,0 3.062111,0.61736 2.716389,1.11125 4.914194,1.16064 l 0.22225,0 q 1.037167,0 1.481667,-0.19756 0.09878,-0.0494 0.22225,-0.0494 0.148166,0 0.296333,0.0741 0.246944,0.0988 0.345722,0.37041 z"
         style="font-size:49.3888855px"
         id="path6906" />
    </g>
  </g>
</svg>
