<?xml version="1.0" encoding="UTF-8" standalone="no"?>
<!-- Created with Inkscape (http://www.inkscape.org/) -->

<svg
   xmlns:dc="http://purl.org/dc/elements/1.1/"
   xmlns:cc="http://creativecommons.org/ns#"
   xmlns:rdf="http://www.w3.org/1999/02/22-rdf-syntax-ns#"
   xmlns:svg="http://www.w3.org/2000/svg"
   xmlns="http://www.w3.org/2000/svg"
   xmlns:sodipodi="http://sodipodi.sourceforge.net/DTD/sodipodi-0.dtd"
   xmlns:inkscape="http://www.inkscape.org/namespaces/inkscape"
   width="55mm"
   height="55mm"
   viewBox="0 0 55 55"
   version="1.1"
   id="svg8"
   inkscape:version="0.91 r13725"
   sodipodi:docname="upper-l.svg">
  <defs
     id="defs2" />
  <sodipodi:namedview
     id="base"
     pagecolor="#ffffff"
     bordercolor="#666666"
     borderopacity="1.0"
     inkscape:pageopacity="0.0"
     inkscape:pageshadow="2"
     inkscape:zoom="1.4"
     inkscape:cx="-72.983922"
     inkscape:cy="43.63747"
     inkscape:document-units="mm"
     inkscape:current-layer="layer1"
     showgrid="false"
     inkscape:window-width="1440"
     inkscape:window-height="800"
     inkscape:window-x="0"
     inkscape:window-y="1"
     inkscape:window-maximized="1" />
  <metadata
     id="metadata5">
    <rdf:RDF>
      <cc:Work
         rdf:about="">
        <dc:format>image/svg+xml</dc:format>
        <dc:type
           rdf:resource="http://purl.org/dc/dcmitype/StillImage" />
        <dc:title />
      </cc:Work>
    </rdf:RDF>
  </metadata>
  <g
     inkscape:label="Calque 1"
     inkscape:groupmode="layer"
     id="layer1"
     transform="translate(0,-242)">
    <g
       style="font-style:normal;font-variant:normal;font-weight:normal;font-stretch:normal;font-size:63.49999619px;line-height:125%;font-family:Graphecrit;-inkscape-font-specification:Graphecrit;letter-spacing:0px;word-spacing:0px;fill:#000000;fill-opacity:1;stroke:none;stroke-width:1px;stroke-linecap:butt;stroke-linejoin:miter;stroke-opacity:1"
       id="text6642">
      <path
         d="m 32.189468,244.96983 q -0.07408,0 -0.148166,0.0247 -1.234722,0.0741 -2.44475,1.18534 -1.284111,1.21002 -1.605139,2.81516 -0.123472,0.59267 -0.123472,2.34597 0,1.75331 0.123472,4.66725 0.02469,0.17286 0.02469,0.54328 2.642305,-1.16064 4.716638,-3.92642 1.753306,-2.37066 1.753306,-4.4203 0,-0.74083 -0.22225,-1.43228 -0.592667,-1.80269 -2.074334,-1.80269 z m -11.235971,25.55875 q -0.66675,0 -1.012472,0.32102 -0.246945,0.22225 -0.246945,0.51859 0,0.39511 0.419806,0.96308 0.716139,0.91369 1.926166,1.11125 0.246945,0.0247 0.493889,0.0247 1.135945,0 2.321278,-0.74083 0.271639,-0.17286 0.518583,-0.49389 -2.790472,-1.70391 -4.420305,-1.70391 z m 1.580444,4.29683 q -2.197805,0 -3.481916,-1.70392 -0.66675,-0.8643 -0.66675,-1.778 0,-0.91369 0.66675,-1.50636 0.740833,-0.66675 1.901472,-0.66675 1.950861,0 5.037666,1.87678 0.864306,-2.39536 0.864306,-8.39611 0,-1.97556 -0.09878,-4.32153 -0.864306,0.17286 -1.654528,0.17286 -1.950861,0 -3.506611,-1.01247 -2.666999,-1.72861 -2.765777,-5.75381 l 0,-0.27163 q 0,-4.09928 3.630083,-6.223 1.975555,-1.16064 3.827639,-1.3582 l 0.07408,0 q 0.22225,0 0.419805,0.14817 0.22225,0.17286 0.246945,0.4445 l 0,0.12347 q 0,0.19756 -0.123472,0.37042 -0.172861,0.22225 -0.4445,0.24694 -1.703917,0.22225 -3.309056,1.13595 -2.988027,1.778 -2.988027,5.13644 l 0,0.22225 q 0.07408,3.30906 2.148416,4.64256 1.234722,0.79022 2.864556,0.79022 0.740833,0 1.531055,-0.14817 l -0.04939,-0.93839 0,0.0247 q -0.123472,-3.01273 -0.123472,-4.84011 0,-1.85209 0.123472,-2.51884 0.395111,-1.95086 1.975556,-3.45722 1.55575,-1.50636 3.309055,-1.62983 l 0.246944,0 q 2.44475,0 3.33375,2.71639 0.321028,0.93839 0.321028,1.92616 0,2.46945 -2.00025,5.13645 -2.345972,3.13619 -5.408083,4.4203 -0.172861,0.0741 -0.345722,0.14817 0.09878,2.39536 0.09878,4.4203 0,6.84036 -1.037167,9.38389 0.740833,0.51859 1.308806,0.98778 0.345722,0.27164 1.605138,0.37042 0.321028,0.0247 0.617361,0.0247 1.012473,0 1.703917,-0.32103 2.765778,-1.28411 4.099277,-3.18558 0.148167,-0.24694 0.419806,-0.29633 l 0.123472,0 q 0.197556,0 0.395111,0.12347 0.22225,0.14817 0.271639,0.4198 l 0,0.12348 q 0,0.19755 -0.123472,0.39511 -1.531056,2.1978 -4.617861,3.63008 -0.963083,0.4445 -2.271889,0.4445 -0.345722,0 -0.716138,-0.0247 -1.654528,-0.12348 -2.345973,-0.66675 -0.543277,-0.41981 -1.111249,-0.83961 -0.419806,0.56797 -0.913695,0.889 -1.531055,0.96308 -3.062111,0.96308 z"
         style="font-size:49.3888855px"
         id="path12226" />
    </g>
  </g>
</svg>
