<?xml version="1.0" encoding="UTF-8" standalone="no"?>
<!-- Created with Inkscape (http://www.inkscape.org/) -->

<svg
   xmlns:dc="http://purl.org/dc/elements/1.1/"
   xmlns:cc="http://creativecommons.org/ns#"
   xmlns:rdf="http://www.w3.org/1999/02/22-rdf-syntax-ns#"
   xmlns:svg="http://www.w3.org/2000/svg"
   xmlns="http://www.w3.org/2000/svg"
   xmlns:sodipodi="http://sodipodi.sourceforge.net/DTD/sodipodi-0.dtd"
   xmlns:inkscape="http://www.inkscape.org/namespaces/inkscape"
   width="55mm"
   height="55mm"
   viewBox="0 0 55 55"
   version="1.1"
   id="svg8"
   inkscape:version="0.91 r13725"
   sodipodi:docname="upper-o.svg">
  <defs
     id="defs2" />
  <sodipodi:namedview
     id="base"
     pagecolor="#ffffff"
     bordercolor="#666666"
     borderopacity="1.0"
     inkscape:pageopacity="0.0"
     inkscape:pageshadow="2"
     inkscape:zoom="1.4"
     inkscape:cx="-72.983922"
     inkscape:cy="43.63747"
     inkscape:document-units="mm"
     inkscape:current-layer="layer1"
     showgrid="false"
     inkscape:window-width="1440"
     inkscape:window-height="800"
     inkscape:window-x="0"
     inkscape:window-y="1"
     inkscape:window-maximized="1" />
  <metadata
     id="metadata5">
    <rdf:RDF>
      <cc:Work
         rdf:about="">
        <dc:format>image/svg+xml</dc:format>
        <dc:type
           rdf:resource="http://purl.org/dc/dcmitype/StillImage" />
        <dc:title />
      </cc:Work>
    </rdf:RDF>
  </metadata>
  <g
     inkscape:label="Calque 1"
     inkscape:groupmode="layer"
     id="layer1"
     transform="translate(0,-242)">
    <g
       style="font-style:normal;font-variant:normal;font-weight:normal;font-stretch:normal;font-size:63.49999619px;line-height:125%;font-family:Graphecrit;-inkscape-font-specification:Graphecrit;letter-spacing:0px;word-spacing:0px;fill:#000000;fill-opacity:1;stroke:none;stroke-width:1px;stroke-linecap:butt;stroke-linejoin:miter;stroke-opacity:1"
       id="text6642">
      <path
         d="m 23.038413,247.48866 q -2.00025,0.81492 -3.457222,4.14867 -1.432278,3.21027 -1.531055,6.74158 -0.02469,0.46919 -0.02469,0.93839 0,3.06211 0.716139,5.90197 0.987778,3.87703 3.037416,5.97606 2.247195,2.34597 5.729111,2.34597 3.531305,0 5.877278,-2.71639 2.197805,-2.56822 3.06211,-7.18608 0.4445,-2.34598 0.4445,-4.66725 0,-1.75331 -0.246944,-3.43253 -0.469194,-3.1362 -1.926167,-5.80319 -1.432277,-2.667 -3.309055,-3.87703 -1.382889,-0.9137 -2.864555,-0.9137 -0.66675,0 -1.358195,0.19756 -1.950861,0.51858 -2.889249,2.69169 -0.642056,1.45698 -0.642056,3.18559 0,0.49388 0.04939,1.01247 0.09878,1.18533 0.493889,1.97555 0.370416,0.76553 0.740833,0.76553 l 0.09878,0 q 0.370417,0 0.617361,-0.24694 0.740833,-0.74084 0.740833,-2.54353 0,-0.34572 -0.02469,-0.74083 l 0,-0.0741 q 0,-0.22225 0.148166,-0.39511 0.172862,-0.22225 0.4445,-0.22225 l 0.04939,0 q 0.22225,0 0.395111,0.14817 0.22225,0.19755 0.246945,0.4445 0.02469,0.4445 0.02469,0.83961 0,2.32128 -1.086555,3.45722 -0.642056,0.64206 -1.580445,0.64206 l -0.172861,0 q -0.963083,-0.0741 -1.605138,-1.13595 -0.66675,-1.03716 -0.839611,-2.79047 -0.04939,-0.56797 -0.04939,-1.11125 0,-1.90147 0.691444,-3.556 z m 4.469694,27.33675 q -4.025194,0 -6.667499,-2.71639 -2.247195,-2.32128 -3.309056,-6.46994 -0.814916,-3.1115 -0.814916,-6.46995 0,-0.4198 0.02469,-0.81491 0.123472,-4.24745 1.975556,-7.97631 2.123722,-4.22275 5.136444,-4.39561 1.160638,-1.60514 2.988027,-2.09903 0.889,-0.24694 1.728611,-0.24694 1.827389,0 3.531306,1.11125 2.148416,1.40758 3.704166,4.27214 1.605139,2.88925 2.123722,6.32177 0.271639,1.82739 0.271639,3.67948 0,2.39536 -0.4445,4.84011 -0.938389,4.93888 -3.383139,7.82813 -2.741083,3.1362 -6.865055,3.1362 z"
         style="font-size:49.3888855px"
         id="path11122" />
    </g>
  </g>
</svg>
