<?xml version="1.0" encoding="UTF-8" standalone="no"?>
<!-- Created with Inkscape (http://www.inkscape.org/) -->

<svg
   xmlns:dc="http://purl.org/dc/elements/1.1/"
   xmlns:cc="http://creativecommons.org/ns#"
   xmlns:rdf="http://www.w3.org/1999/02/22-rdf-syntax-ns#"
   xmlns:svg="http://www.w3.org/2000/svg"
   xmlns="http://www.w3.org/2000/svg"
   xmlns:sodipodi="http://sodipodi.sourceforge.net/DTD/sodipodi-0.dtd"
   xmlns:inkscape="http://www.inkscape.org/namespaces/inkscape"
   width="55mm"
   height="55mm"
   viewBox="0 0 55 55"
   version="1.1"
   id="svg8"
   inkscape:version="0.92.3 (2405546, 2018-03-11)"
   sodipodi:docname="upper-a.svg">
  <defs
     id="defs2" />
  <sodipodi:namedview
     id="base"
     pagecolor="#ffffff"
     bordercolor="#666666"
     borderopacity="1.0"
     inkscape:pageopacity="0.0"
     inkscape:pageshadow="2"
     inkscape:zoom="1.4"
     inkscape:cx="213.44465"
     inkscape:cy="34.720677"
     inkscape:document-units="mm"
     inkscape:current-layer="layer1"
     showgrid="false"
     inkscape:window-width="1533"
     inkscape:window-height="845"
     inkscape:window-x="67"
     inkscape:window-y="27"
     inkscape:window-maximized="1" />
  <metadata
     id="metadata5">
    <rdf:RDF>
      <cc:Work
         rdf:about="">
        <dc:format>image/svg+xml</dc:format>
        <dc:type
           rdf:resource="http://purl.org/dc/dcmitype/StillImage" />
        <dc:title></dc:title>
      </cc:Work>
    </rdf:RDF>
  </metadata>
  <g
     inkscape:label="Calque 1"
     inkscape:groupmode="layer"
     id="layer1"
     transform="translate(0,-242)">
    <g
       aria-label="A"
       style="font-style:normal;font-variant:normal;font-weight:normal;font-stretch:normal;font-size:10.58333302px;line-height:1.25;font-family:'Cursive standard';-inkscape-font-specification:'Cursive standard';letter-spacing:0px;word-spacing:0px;fill:#000000;fill-opacity:1;stroke:none;stroke-width:0.26458332"
       id="text914">
      <path
         d="m 44.243879,281.19656 q 0,1.92617 -0.596194,3.62303 -0.596195,1.651 -1.651001,2.93511 -1.054805,1.23825 -2.522361,2.01789 -1.421694,0.73378 -3.072695,0.73378 -2.522361,0 -3.989917,-1.55928 -1.421694,-1.55928 -2.155472,-3.80647 -0.687917,-2.29306 -0.871361,-4.90714 -0.137583,-2.65995 -0.137583,-4.76956 0,-1.55928 0.04586,-3.07269 0.09172,-1.55928 0.183444,-3.0727 -1.146528,-0.32103 -2.247194,-0.68791 -1.100667,-0.41275 -2.293056,-0.68792 0,2.06375 0,4.54025 0.04586,2.43064 -0.137584,4.953 -0.137583,2.52236 -0.642055,4.86128 -0.504472,2.33891 -1.559278,4.17336 -1.008945,1.83444 -2.705806,2.93511 -1.696861,1.10067 -4.310945,1.10067 -0.687916,0 -1.467555,-0.22931 -0.733778,-0.18344 -1.421695,-0.59619 -0.642055,-0.45861 -1.054805,-1.10067 -0.458612,-0.64205 -0.458612,-1.60514 0,-1.23825 0.825501,-2.10961 0.8255,-0.91722 1.926166,-0.91722 0.41275,0 0.687917,0.27516 0.275167,0.27517 0.275167,0.77964 0,0.55034 -0.275167,0.77964 -0.275167,0.18345 -0.642056,0.32103 -0.321027,0.0917 -0.642055,0.27517 -0.275167,0.13758 -0.275167,0.59619 0,0.41275 0.275167,0.73378 0.321028,0.27517 0.687917,0.45861 0.41275,0.13758 0.8255,0.18345 0.458611,0.0459 0.733777,0.0459 2.659945,0 4.173362,-1.51342 1.513417,-1.51342 2.247194,-3.76061 0.733778,-2.29306 0.871362,-4.90714 0.183444,-2.65995 0.183444,-4.90714 v -5.64092 q -0.09172,0 -0.229305,0 -0.137584,-0.0459 -0.275167,-0.0459 -0.550334,0 -1.054806,0.22931 -0.504472,0.18344 -0.917222,0.45861 -0.366889,0.2293 -0.687917,0.45861 -0.275166,0.18344 -0.458611,0.18344 -0.366889,0 -0.642056,-0.32102 -0.275166,-0.32103 -0.275166,-0.73378 0,-0.45861 0.321028,-0.8255 0.871361,-0.91722 1.972027,-1.28411 1.100667,-0.36689 2.247195,-0.27517 0,-1.97203 0.09172,-3.89819 0.09172,-1.92617 0.09172,-3.8982 0,-1.28411 0.183444,-2.84339 0.229306,-1.60514 0.779639,-2.98097 0.550333,-1.4217 1.467556,-2.38478 0.917222,-0.96308 2.338916,-0.96308 1.421695,0 2.201334,1.00894 0.8255,1.00895 1.192389,2.4765 0.41275,1.46756 0.504472,3.11856 0.09172,1.60514 0.09172,2.75167 0,2.4765 -0.183444,4.86127 -0.183444,2.38478 -0.366889,4.81542 0.321028,0.0459 0.642056,0.0917 0.321027,0 0.642055,0 0.596195,0 1.054806,-0.27516 0.504472,-0.32103 0.871361,-0.64206 0.366889,-0.36689 0.687917,-0.68792 0.321028,-0.32102 0.642055,-0.32102 0.366889,0 0.642056,0.36688 0.321028,0.32103 0.321028,0.73378 0,0.36689 -0.321028,0.73378 -0.779639,0.87136 -1.788583,1.55928 -1.008945,0.64205 -2.109612,0.64205 -0.366889,0 -0.733778,0 -0.321027,-0.0459 -0.687916,-0.0917 -0.09172,1.51342 -0.183445,3.0727 -0.04586,1.51341 -0.04586,3.07269 0,1.55928 0.09172,3.76061 0.09172,2.15547 0.596195,4.1275 0.504472,1.97203 1.559278,3.34786 1.100666,1.32998 3.072694,1.32998 1.284112,0 2.338917,-0.5962 1.100667,-0.59619 1.880306,-1.55928 0.8255,-1.00894 1.284111,-2.29305 0.458611,-1.32997 0.458611,-2.75167 0,-0.96308 -0.596194,-1.83444 -0.596195,-0.87136 -1.513417,-0.87136 -0.642056,0 -0.871361,0.36688 -0.229306,0.36689 -0.321028,0.77964 -0.09172,0.41275 -0.275167,0.77964 -0.137583,0.36689 -0.687916,0.36689 -0.366889,0 -0.642056,-0.27517 -0.275167,-0.27516 -0.275167,-0.77963 0,-1.46756 0.917223,-2.38478 0.917222,-0.96309 2.155472,-0.96309 0.871361,0 1.605139,0.41275 0.733778,0.36689 1.23825,1.05481 0.550334,0.68792 0.8255,1.55928 0.321028,0.87136 0.321028,1.78858 z M 30.118656,257.66981 q 0,-0.64206 -0.04586,-1.78858 0,-1.14653 -0.229306,-2.29306 -0.183444,-1.19239 -0.642056,-2.01789 -0.41275,-0.87136 -1.192389,-0.87136 -0.917222,0 -1.513416,0.8255 -0.550334,0.77964 -0.871361,1.92617 -0.275167,1.10066 -0.412751,2.29305 -0.09172,1.19239 -0.09172,1.97203 0,1.97203 -0.09172,4.03578 -0.09172,2.06375 -0.09172,4.03578 1.192389,0.27516 2.338917,0.68791 1.146527,0.36689 2.338916,0.68792 0.183445,-2.38478 0.321028,-4.72369 0.183445,-2.38478 0.183445,-4.76956 z"
         style="font-size:45.8611145px;stroke-width:0.26458332"
         id="path916" />
    </g>
  </g>
</svg>
