<?xml version="1.0" encoding="UTF-8" standalone="no"?>
<!-- Created with Inkscape (http://www.inkscape.org/) -->

<svg
   xmlns:dc="http://purl.org/dc/elements/1.1/"
   xmlns:cc="http://creativecommons.org/ns#"
   xmlns:rdf="http://www.w3.org/1999/02/22-rdf-syntax-ns#"
   xmlns:svg="http://www.w3.org/2000/svg"
   xmlns="http://www.w3.org/2000/svg"
   xmlns:sodipodi="http://sodipodi.sourceforge.net/DTD/sodipodi-0.dtd"
   xmlns:inkscape="http://www.inkscape.org/namespaces/inkscape"
   width="55mm"
   height="55mm"
   viewBox="0 0 55 55"
   version="1.1"
   id="svg8"
   inkscape:version="0.91 r13725"
   sodipodi:docname="upper-c.svg">
  <defs
     id="defs2" />
  <sodipodi:namedview
     id="base"
     pagecolor="#ffffff"
     bordercolor="#666666"
     borderopacity="1.0"
     inkscape:pageopacity="0.0"
     inkscape:pageshadow="2"
     inkscape:zoom="1.4"
     inkscape:cx="-72.983922"
     inkscape:cy="43.63747"
     inkscape:document-units="mm"
     inkscape:current-layer="layer1"
     showgrid="false"
     inkscape:window-width="1440"
     inkscape:window-height="800"
     inkscape:window-x="0"
     inkscape:window-y="1"
     inkscape:window-maximized="1" />
  <metadata
     id="metadata5">
    <rdf:RDF>
      <cc:Work
         rdf:about="">
        <dc:format>image/svg+xml</dc:format>
        <dc:type
           rdf:resource="http://purl.org/dc/dcmitype/StillImage" />
        <dc:title />
      </cc:Work>
    </rdf:RDF>
  </metadata>
  <g
     inkscape:label="Calque 1"
     inkscape:groupmode="layer"
     id="layer1"
     transform="translate(0,-242)">
    <g
       style="font-style:normal;font-variant:normal;font-weight:normal;font-stretch:normal;font-size:63.49999619px;line-height:125%;font-family:Graphecrit;-inkscape-font-specification:Graphecrit;letter-spacing:0px;word-spacing:0px;fill:#000000;fill-opacity:1;stroke:none;stroke-width:1px;stroke-linecap:butt;stroke-linejoin:miter;stroke-opacity:1"
       id="text6642">
      <path
         d="m 21.553219,256.10702 q 1.259416,0.51858 2.790472,0.51858 0.246944,0 0.518583,-0.0247 1.852083,-0.0741 3.531305,-0.81492 2.321278,-1.01247 3.630084,-3.03741 1.160638,-1.8027 1.210027,-3.70417 l 0,-0.0988 q 0,-1.28411 -0.543277,-2.24719 -0.543278,-1.01247 -1.605139,-1.53106 -0.469195,-0.22225 -1.012472,-0.22225 -0.321028,0 -0.66675,0.0741 -0.691445,0.17286 -1.456972,0.66675 -2.024945,1.23472 -3.77825,4.04989 -1.852083,2.93863 -2.617611,6.37116 z m 6.173611,18.71839 q -2.00025,0 -3.704167,-1.58045 -2.00025,-1.82738 -3.136194,-5.3093 -1.11125,-3.48192 -1.11125,-7.85283 0,-1.58045 0.271639,-3.21028 l -0.271639,-0.17286 q -2.716389,-1.75331 -2.741083,-5.13645 l 0,-0.0494 q 0,-3.9758 3.259666,-6.29708 1.037167,-0.74083 2.271889,-1.23472 0.395111,-0.14817 0.765528,-0.27164 0.123472,-0.0247 0.22225,-0.0494 l 0.07408,-0.0247 0.02469,0 q 0.09878,-0.0247 0.172862,-0.0247 0.172861,0 0.321027,0.0988 0.22225,0.14817 0.296334,0.41981 0.02469,0.0741 0.02469,0.12347 0,0.19755 -0.123472,0.37042 -0.148167,0.24694 -0.419806,0.29633 l -0.02469,0.0247 -0.07408,0 q -0.09878,0.0247 -0.197556,0.0741 -0.321028,0.0988 -0.66675,0.22225 -1.037167,0.4198 -1.901472,1.03716 -2.691694,1.92617 -2.691694,5.23522 l 0,0.0494 q 0.02469,2.54353 1.975555,3.92642 0.889,-3.60539 2.864556,-6.6675 1.901472,-2.93864 4.025194,-4.27214 1.506361,-0.93839 2.839861,-0.93839 0.839611,0 1.605138,0.37042 1.382889,0.66675 2.148417,2.02494 0.740833,1.28412 0.740833,2.96334 l 0,0.0988 q -0.04939,2.24719 -1.407583,4.37091 -1.531056,2.37067 -4.22275,3.556 -1.901472,0.83961 -3.926416,0.93839 -0.321028,0.0247 -0.66675,0.0247 -1.605139,0 -3.037417,-0.51858 -0.197555,1.3582 -0.197555,2.64231 0,4.07458 1.012472,7.30955 1.012472,3.23497 2.790472,4.86481 1.308806,1.23472 2.790472,1.23472 0.172861,0 0.370417,-0.0247 1.531055,0 2.864555,-0.8643 1.061861,-0.71614 2.44475,-2.37067 0.172861,-0.22225 0.4445,-0.24694 l 0.07408,0 q 0.22225,0 0.419806,0.14816 0.197555,0.17287 0.22225,0.4445 l 0,0.0988 q 0,0.22225 -0.148167,0.39511 -1.531055,1.85209 -2.815166,2.71639 -1.580445,1.01247 -3.457222,1.01247 l -0.395111,0.0247 z"
         style="font-size:49.3888855px"
         id="path7967" />
    </g>
  </g>
</svg>
