<?xml version="1.0" encoding="UTF-8" standalone="no"?>
<!-- Created with Inkscape (http://www.inkscape.org/) -->

<svg
   xmlns:dc="http://purl.org/dc/elements/1.1/"
   xmlns:cc="http://creativecommons.org/ns#"
   xmlns:rdf="http://www.w3.org/1999/02/22-rdf-syntax-ns#"
   xmlns:svg="http://www.w3.org/2000/svg"
   xmlns="http://www.w3.org/2000/svg"
   xmlns:sodipodi="http://sodipodi.sourceforge.net/DTD/sodipodi-0.dtd"
   xmlns:inkscape="http://www.inkscape.org/namespaces/inkscape"
   width="55mm"
   height="55mm"
   viewBox="0 0 55 55"
   version="1.1"
   id="svg8"
   inkscape:version="0.91 r13725"
   sodipodi:docname="upper-a.svg">
  <defs
     id="defs2" />
  <sodipodi:namedview
     id="base"
     pagecolor="#ffffff"
     bordercolor="#666666"
     borderopacity="1.0"
     inkscape:pageopacity="0.0"
     inkscape:pageshadow="2"
     inkscape:zoom="1.4"
     inkscape:cx="-72.983922"
     inkscape:cy="43.63747"
     inkscape:document-units="mm"
     inkscape:current-layer="layer1"
     showgrid="false"
     inkscape:window-width="1440"
     inkscape:window-height="800"
     inkscape:window-x="0"
     inkscape:window-y="1"
     inkscape:window-maximized="1" />
  <metadata
     id="metadata5">
    <rdf:RDF>
      <cc:Work
         rdf:about="">
        <dc:format>image/svg+xml</dc:format>
        <dc:type
           rdf:resource="http://purl.org/dc/dcmitype/StillImage" />
        <dc:title />
      </cc:Work>
    </rdf:RDF>
  </metadata>
  <g
     inkscape:label="Calque 1"
     inkscape:groupmode="layer"
     id="layer1"
     transform="translate(0,-242)">
    <g
       style="font-style:normal;font-variant:normal;font-weight:normal;font-stretch:normal;font-size:63.49999619px;line-height:125%;font-family:Graphecrit;-inkscape-font-specification:Graphecrit;letter-spacing:0px;word-spacing:0px;fill:#000000;fill-opacity:1;stroke:none;stroke-width:1px;stroke-linecap:butt;stroke-linejoin:miter;stroke-opacity:1"
       id="text6642">
      <path
         d="m 25.984107,256.30458 q 1.802694,0.69144 2.716389,0.8643 0.02469,-3.06211 0.02469,-5.25991 0,-3.28436 -0.04939,-4.59317 -0.02469,-1.03717 -0.321027,-1.65453 -0.296334,-0.64205 -0.740834,-0.69144 l -0.07408,0 q -0.543278,0 -1.11125,0.59266 -0.691444,0.74084 -1.012472,1.90148 -0.4445,1.65452 -0.4445,8.47019 l 0.493889,0.17286 q 0.296333,0.0988 0.518583,0.19756 z m 14.372166,13.87827 q 0.22225,0.17286 0.246944,0.4445 l 0,0.0741 q 0,0.22225 -0.148167,0.39511 -1.531055,1.85208 -2.815166,2.69169 -1.55575,1.01247 -3.407833,1.01247 -0.592667,0 -1.456972,-0.32102 -0.963083,-0.39511 -1.802695,-1.03717 -2.173111,-1.72861 -2.296583,-4.34622 -0.02469,-0.59267 -0.02469,-2.91395 0,-2.32127 0.02469,-6.37116 l 0.0247,-0.64206 0,-0.66675 q -0.765528,-0.12347 -1.654528,-0.4198 -0.370417,-0.12348 -0.790222,-0.27164 -0.271639,-0.0988 -0.740833,-0.27164 l -0.271639,-0.0988 -0.271639,-0.0988 0.02469,1.72861 0,1.01248 q 0,8.001 -0.370416,9.779 -0.370417,1.62983 -1.308806,2.86455 -0.963083,1.23472 -2.296583,1.75331 -0.889,0.34572 -1.728611,0.34572 -1.308805,0 -2.518833,-0.83961 -1.407583,-0.96309 -1.432278,-2.2472 l 0,-0.0741 q 0,-0.86431 0.642056,-1.70392 0.22225,-0.27164 0.493889,-0.54327 0.09878,-0.0741 0.172861,-0.14817 l 0.07408,-0.0494 0.02469,-0.0247 q 0.197556,-0.14817 0.419806,-0.14817 l 0.07408,0 q 0.271639,0.0494 0.4445,0.27164 0.123472,0.19755 0.123472,0.4198 l 0,0.0741 q -0.04939,0.27164 -0.246944,0.4198 -0.123472,0.0988 -0.246944,0.22225 -0.172861,0.17286 -0.321028,0.34572 -0.345722,0.49389 -0.345722,0.9137 0.02469,0.59267 0.889,1.18533 0.864305,0.59267 1.777999,0.59267 0.592667,0 1.210028,-0.24695 1.037167,-0.39511 1.778,-1.38288 0.740833,-0.96309 1.037167,-2.29659 0.246944,-1.13594 0.296333,-4.27214 0.02469,-1.23472 0.02469,-2.98802 l 0,-5.3587 q -0.172861,-0.0247 -0.321027,-0.0247 -0.889,0 -1.629834,0.69144 -0.296333,0.24695 -0.518583,0.56797 -0.07408,0.0988 -0.148167,0.19756 -0.02469,0.0494 -0.04939,0.0741 l 0,0.0247 q -0.197556,0.37041 -0.592667,0.37041 -0.148167,0 -0.296333,-0.0741 -0.246945,-0.12347 -0.321028,-0.39511 -0.04939,-0.0988 -0.04939,-0.22225 0,-0.12347 0.07408,-0.27164 0.469195,-0.91369 1.358195,-1.55575 1.012472,-0.74083 2.197805,-0.74083 l 0.296333,0 q 0,-6.6675 0.493889,-8.4702 0.4445,-1.62983 1.456972,-2.61761 0.889,-0.8643 1.901472,-0.8643 0.123473,0 0.246945,0.0247 0.09878,0 0.22225,0.0494 0.148167,0.0247 0.321028,0.0988 0.395111,0.17286 0.716138,0.49389 0.889,0.96308 0.963084,2.96333 0.04939,1.25942 0.04939,4.32153 0,2.32128 -0.02469,5.65503 1.506361,-0.12348 2.543528,-1.40759 0.172861,-0.22225 0.4445,-0.24694 l 0.123472,0 q 0.197556,0 0.370417,0.12347 0.197555,0.17286 0.246944,0.4445 l 0,0.0741 q 0,0.22225 -0.148167,0.41981 -1.456972,1.80269 -3.580694,1.92617 l 0,1.25941 q -0.04939,4.79072 -0.04939,7.1367 0,1.55575 0.0247,2.04963 0.09878,2.09903 1.926166,3.45723 0.642056,0.46919 1.407584,0.76552 0.592666,0.24695 0.913694,0.24695 1.506361,0 2.790472,-0.86431 1.061861,-0.71614 2.420055,-2.37066 0.172861,-0.19756 0.4445,-0.22225 l 0.07408,0 q 0.22225,0 0.395111,0.14816 z"
         style="font-size:49.3888855px"
         id="path7417" />
    </g>
  </g>
</svg>
