<?xml version="1.0" encoding="UTF-8" standalone="no"?>
<!-- Created with Inkscape (http://www.inkscape.org/) -->

<svg
   xmlns:dc="http://purl.org/dc/elements/1.1/"
   xmlns:cc="http://creativecommons.org/ns#"
   xmlns:rdf="http://www.w3.org/1999/02/22-rdf-syntax-ns#"
   xmlns:svg="http://www.w3.org/2000/svg"
   xmlns="http://www.w3.org/2000/svg"
   xmlns:sodipodi="http://sodipodi.sourceforge.net/DTD/sodipodi-0.dtd"
   xmlns:inkscape="http://www.inkscape.org/namespaces/inkscape"
   width="55mm"
   height="55mm"
   viewBox="0 0 55 55"
   version="1.1"
   id="svg8"
   inkscape:version="0.91 r13725"
   sodipodi:docname="upper-k.svg">
  <defs
     id="defs2" />
  <sodipodi:namedview
     id="base"
     pagecolor="#ffffff"
     bordercolor="#666666"
     borderopacity="1.0"
     inkscape:pageopacity="0.0"
     inkscape:pageshadow="2"
     inkscape:zoom="1.4"
     inkscape:cx="70.230364"
     inkscape:cy="43.63747"
     inkscape:document-units="mm"
     inkscape:current-layer="layer1"
     showgrid="false"
     inkscape:window-width="1440"
     inkscape:window-height="800"
     inkscape:window-x="0"
     inkscape:window-y="1"
     inkscape:window-maximized="1" />
  <metadata
     id="metadata5">
    <rdf:RDF>
      <cc:Work
         rdf:about="">
        <dc:format>image/svg+xml</dc:format>
        <dc:type
           rdf:resource="http://purl.org/dc/dcmitype/StillImage" />
        <dc:title />
      </cc:Work>
    </rdf:RDF>
  </metadata>
  <g
     inkscape:label="Calque 1"
     inkscape:groupmode="layer"
     id="layer1"
     transform="translate(0,-242)">
    <g
       style="font-style:normal;font-variant:normal;font-weight:normal;font-stretch:normal;font-size:63.49999619px;line-height:125%;font-family:Graphecrit;-inkscape-font-specification:Graphecrit;letter-spacing:0px;word-spacing:0px;fill:#000000;fill-opacity:1;stroke:none;stroke-width:1px;stroke-linecap:butt;stroke-linejoin:miter;stroke-opacity:1"
       id="text6642">
      <path
         d="m 27.920857,244.99452 q -0.913694,0 -1.654527,0.83961 1.778,0.61736 2.494138,0.61736 0.246945,0 0.345723,-0.0741 0.07408,-0.0494 0.09878,-0.17286 l 0,-0.19756 q 0,-0.39511 -0.370416,-0.69144 -0.370417,-0.29633 -0.889,-0.32103 l -0.02469,0 z m 13.977055,25.08956 q 0.22225,0.17286 0.246944,0.4445 l 0,0.0741 q 0,0.24694 -0.148166,0.4198 -1.55575,1.90148 -2.864556,2.76578 -1.605138,1.03717 -3.481916,1.03717 -2.148417,0 -3.358444,-1.30881 -1.185333,-1.28411 -1.382889,-3.90172 -0.04939,-0.61736 -0.04939,-1.3335 0,-0.46919 0.0247,-1.01247 0.02469,-0.54328 0.07408,-1.18533 l 0.02469,-0.56798 0.04939,-0.56797 q 0.123472,-1.55575 0.123472,-2.49414 0,-0.93839 -0.123472,-1.25941 -0.518583,-1.28411 -2.370666,-1.72861 -0.617361,-0.14817 -1.308806,-0.17287 l -0.716139,0 q -1.012472,0.14817 -2.000249,0.19756 0.09878,2.88925 0.09878,4.8895 0,1.70392 -0.07408,2.76578 -0.246944,3.67947 -1.3335,5.45747 -1.358194,2.2225 -3.753555,2.2225 -0.567972,0 -1.135945,-0.14817 -1.284111,-0.29633 -2.148416,-1.13594 -0.864306,-0.81492 -0.913694,-1.778 l 0,-0.17286 q 0,-0.19756 0.02469,-0.37042 0.07408,-0.34572 0.246944,-0.64206 0.493889,-0.81491 1.703917,-1.28411 0.09878,-0.0494 0.22225,-0.0494 0.148167,0 0.296333,0.0741 0.246945,0.0988 0.345722,0.37041 0.04939,0.12348 0.04939,0.24695 0,0.12347 -0.04939,0.27164 -0.123472,0.24694 -0.370416,0.34572 -0.197556,0.0741 -0.370417,0.17286 -0.22225,0.12347 -0.370416,0.24695 -0.395112,0.29633 -0.395112,0.64205 l 0,0.0494 q 0.0247,0.46919 0.592667,0.96308 0.592667,0.54328 1.456972,0.74084 0.321028,0.0741 0.642056,0.0988 l 0.148166,0 q 0.395111,0 0.740834,-0.0988 1.160638,-0.29634 1.876777,-1.45698 0.963084,-1.58044 1.160639,-5.21052 0.04939,-0.98778 0.04939,-2.59292 0,-1.92617 -0.07408,-4.76603 l -0.0247,-0.24694 0,-0.29633 q -0.09878,-2.86456 -0.09878,-4.93889 0,-1.38289 0.04939,-2.39536 0.123473,-2.98803 1.012472,-4.93889 l -0.740833,-0.29634 -0.765528,-0.27163 q -0.864305,-0.32103 -1.531055,-0.51859 -1.55575,-0.46919 -2.568222,-0.46919 l -0.197556,0 q -1.333499,0.0494 -2.321277,1.3088 -0.938389,1.13595 -1.086556,2.667 -0.02469,0.14817 -0.02469,0.29634 l 0,0.4198 q 0.02469,0.51859 0.148167,0.93839 0.395111,1.23472 1.605138,1.53106 0.518584,0.12347 0.938389,0.12347 0.716139,0 1.135944,-0.34572 0.469195,-0.39512 0.642056,-1.23473 0.07408,-0.32102 0.09878,-0.64205 0.02469,-0.14817 0.02469,-0.27164 0,-0.12347 -0.02469,-0.22225 l 0,-0.0494 q 0,-0.24694 0.172861,-0.4445 0.172861,-0.19755 0.4445,-0.22225 l 0.07408,0 q 0.246945,0 0.419806,0.17286 0.22225,0.17286 0.246944,0.4445 l 0,0.41981 q 0,0.46919 -0.09878,0.91369 -0.246944,1.40758 -1.135944,2.14842 -0.790222,0.69144 -1.975555,0.69144 -0.592667,0 -1.284111,-0.17286 -1.432278,-0.34572 -2.197806,-1.60514 -0.592666,-0.98777 -0.592666,-2.32127 0,-0.34573 0.04939,-0.71614 0.197556,-1.97556 1.432278,-3.48192 1.358194,-1.62983 3.284361,-1.67922 l 0.197556,0 q 1.160638,0 2.864555,0.49389 0.740833,0.19755 1.654528,0.54327 l 0.814916,0.29634 0.790222,0.29633 0.197556,0.0741 q 1.259416,-1.67922 2.88925,-1.67922 l 0.148166,0 q 1.086556,0 1.852084,0.69145 0.740833,0.69144 0.740833,1.65452 0,0.56798 -0.22225,0.98778 -0.172861,0.29634 -0.469195,0.49389 -0.419805,0.29633 -1.135944,0.29633 -0.296333,0 -0.66675,-0.0494 -0.889,-0.12348 -2.568222,-0.74084 -0.814917,1.72861 -0.913694,4.51908 -0.04939,1.06187 -0.04939,2.46945 0,1.778 0.07408,4.14867 0.938389,-0.0247 1.876778,-0.17287 l 0,-0.0247 q 1.802694,-0.27164 2.938638,-0.889 1.432278,-0.79022 1.605139,-2.00025 0.07408,-0.59267 0.172861,-2.02494 l 0.04939,-0.74084 0.07408,-0.74083 q 0.07408,-0.86431 0.197555,-1.58044 0.271639,-1.8027 0.790222,-3.03742 1.382889,-3.28436 4.790722,-3.28436 l 0.07408,0 q 1.061861,0 1.753306,0.76553 0.814917,0.91369 1.037166,2.74108 0.04939,0.4445 0.04939,0.93839 l 0,0.889 q -0.02469,0.0494 -0.02469,0.0741 -0.0247,0.29633 -0.246944,0.4692 -0.172862,0.14816 -0.395112,0.14816 l -0.07408,0 q -0.271639,-0.0247 -0.469194,-0.22225 -0.148167,-0.19755 -0.148167,-0.4198 l 0,-0.0741 q 0.02469,-0.32102 0.02469,-0.76552 -0.02469,-0.51859 -0.07408,-1.01248 -0.172861,-1.3088 -0.66675,-1.85208 -0.321028,-0.34572 -0.790222,-0.34572 l -0.04939,0 q -2.494139,0 -3.506611,2.34597 -0.740833,1.65453 -1.037166,5.80319 -0.123473,1.45698 -0.197556,2.12373 -0.271639,2.04963 -2.617611,3.16088 1.901472,0.69145 2.543528,2.29659 0.197555,0.56797 0.197555,1.95086 0,0.98778 -0.09878,2.39536 l -0.04939,0.51858 -0.04939,0.51859 -0.04939,1.08655 q -0.0247,0.59267 -0.0247,1.13595 0,0.51858 0.0247,0.96308 0.123472,2.34597 1.037167,3.33375 0.814916,0.8643 2.370666,0.8643 1.506361,0 2.839861,-0.889 1.086555,-0.71613 2.469444,-2.39536 0.172861,-0.22225 0.4445,-0.24694 l 0.07408,0 q 0.246945,0 0.419806,0.14817 z"
         style="font-size:49.3888855px"
         id="path4146" />
    </g>
  </g>
</svg>
