<?xml version="1.0" encoding="UTF-8" standalone="no"?>
<!-- Created with Inkscape (http://www.inkscape.org/) -->

<svg
   xmlns:dc="http://purl.org/dc/elements/1.1/"
   xmlns:cc="http://creativecommons.org/ns#"
   xmlns:rdf="http://www.w3.org/1999/02/22-rdf-syntax-ns#"
   xmlns:svg="http://www.w3.org/2000/svg"
   xmlns="http://www.w3.org/2000/svg"
   xmlns:sodipodi="http://sodipodi.sourceforge.net/DTD/sodipodi-0.dtd"
   xmlns:inkscape="http://www.inkscape.org/namespaces/inkscape"
   width="55mm"
   height="55mm"
   viewBox="0 0 55 55"
   version="1.1"
   id="svg8"
   inkscape:version="0.91 r13725"
   sodipodi:docname="upper-y.svg">
  <defs
     id="defs2" />
  <sodipodi:namedview
     id="base"
     pagecolor="#ffffff"
     bordercolor="#666666"
     borderopacity="1.0"
     inkscape:pageopacity="0.0"
     inkscape:pageshadow="2"
     inkscape:zoom="1.4"
     inkscape:cx="-72.983922"
     inkscape:cy="43.63747"
     inkscape:document-units="mm"
     inkscape:current-layer="layer1"
     showgrid="false"
     inkscape:window-width="1440"
     inkscape:window-height="800"
     inkscape:window-x="0"
     inkscape:window-y="1"
     inkscape:window-maximized="1" />
  <metadata
     id="metadata5">
    <rdf:RDF>
      <cc:Work
         rdf:about="">
        <dc:format>image/svg+xml</dc:format>
        <dc:type
           rdf:resource="http://purl.org/dc/dcmitype/StillImage" />
        <dc:title />
      </cc:Work>
    </rdf:RDF>
  </metadata>
  <g
     inkscape:label="Calque 1"
     inkscape:groupmode="layer"
     id="layer1"
     transform="translate(0,-242)">
    <g
       style="font-style:normal;font-variant:normal;font-weight:normal;font-stretch:normal;font-size:63.49999619px;line-height:125%;font-family:Graphecrit;-inkscape-font-specification:Graphecrit;letter-spacing:0px;word-spacing:0px;fill:#000000;fill-opacity:1;stroke:none;stroke-width:1px;stroke-linecap:butt;stroke-linejoin:miter;stroke-opacity:1"
       id="text6642">
      <path
         d="m 33.184301,294.4328 q 1.753306,-1.778 1.753306,-11.82864 0,-2.39536 -0.09878,-5.25992 -1.456972,1.50636 -2.370666,3.16089 -2.173111,4.0005 -2.543528,7.75406 -0.04939,0.69144 -0.04939,1.3088 0,2.37067 0.889,3.92642 0.716139,1.25941 1.703917,1.25941 0.419805,0 0.716138,-0.32102 z m 8.741833,-24.49689 q 0.271639,0.22225 0.271639,0.49389 0,0.19755 -0.172861,0.4198 -0.740833,0.9137 -3.975805,3.63009 -1.308806,1.06186 -1.950861,1.62983 l 0,0.37042 q 0.123472,3.03741 0.123472,5.60564 0,11.13719 -2.099028,13.26091 -0.716139,0.71614 -1.629833,0.71614 l -0.04939,0 q -1.728611,-0.0247 -2.815166,-1.90147 -1.037167,-1.8027 -1.037167,-4.54378 0,-0.61736 0.04939,-1.30881 0.345722,-4.09927 2.691694,-8.4208 1.234722,-2.24719 3.432528,-4.32153 -0.0247,-0.83961 -0.04939,-1.48166 l 0,-2.46945 q -2.691694,3.70417 -5.852583,3.70417 -0.66675,0 -1.284111,-0.17286 -2.099028,-0.54328 -3.531305,-2.56823 -1.3335,-1.90147 -1.358195,-3.87702 l 0,-0.96309 q -0.04939,-3.06211 -0.04939,-5.72911 0,-2.667 0.04939,-4.93889 0.02469,-1.08655 0.02469,-2.09902 0,-7.23547 -1.876778,-9.16164 -0.765528,-0.81492 -1.950861,-0.81492 -2.197805,0 -3.383139,2.07434 -1.012472,1.7533 -1.11125,4.4203 l 0,0.4445 q 0,2.42006 0.765528,4.32153 0.864306,2.04964 2.074333,2.14841 l 0.22225,0 q 1.827389,0 2.988028,-1.87677 0.617361,-1.01248 0.864305,-2.14842 0.09878,-0.51858 0.567973,-0.51858 0.09878,0 0.197555,0.0247 0.518583,0.0988 0.518583,0.54328 0,0.0988 -0.02469,0.22225 -0.370417,1.87678 -1.55575,3.28436 -1.456972,1.75331 -3.531305,1.75331 l -0.321028,0 q -1.926167,-0.12348 -3.086805,-2.71639 -0.987778,-2.14842 -0.987778,-4.8895 0,-0.29634 0.02469,-0.61736 0.09878,-3.556 1.679223,-5.65503 1.580444,-2.12372 4.099277,-2.12372 1.728611,0 2.88925,1.21002 2.247194,2.29659 2.247194,10.14942 0,0.98778 -0.02469,2.07433 -0.07408,2.2472 -0.07408,4.9142 0,2.6423 0.07408,5.67972 l 0,0.96308 q 0.02469,1.58045 1.11125,3.1362 1.160638,1.65452 2.790472,2.07433 0.543277,0.14817 1.061861,0.14817 2.988027,0 5.704416,-4.71664 0.02469,0 0.04939,-0.0494 l 0,-24.10178 q 0,-0.64205 0.66675,-0.64205 0.642055,0 0.642055,0.64205 l 0,29.28761 q 0.419806,-0.34572 1.210028,-0.98778 3.1115,-2.6423 3.77825,-3.43252 0.22225,-0.27164 0.493889,-0.27164 0.197555,0 0.419805,0.17286 z"
         style="font-size:49.3888855px"
         id="path5602" />
    </g>
  </g>
</svg>
