<?xml version="1.0" encoding="UTF-8" standalone="no"?>
<!-- Created with Inkscape (http://www.inkscape.org/) -->

<svg
   xmlns:dc="http://purl.org/dc/elements/1.1/"
   xmlns:cc="http://creativecommons.org/ns#"
   xmlns:rdf="http://www.w3.org/1999/02/22-rdf-syntax-ns#"
   xmlns:svg="http://www.w3.org/2000/svg"
   xmlns="http://www.w3.org/2000/svg"
   xmlns:sodipodi="http://sodipodi.sourceforge.net/DTD/sodipodi-0.dtd"
   xmlns:inkscape="http://www.inkscape.org/namespaces/inkscape"
   width="55mm"
   height="55mm"
   viewBox="0 0 55 55"
   version="1.1"
   id="svg8"
   inkscape:version="0.91 r13725"
   sodipodi:docname="upper-r.svg">
  <defs
     id="defs2" />
  <sodipodi:namedview
     id="base"
     pagecolor="#ffffff"
     bordercolor="#666666"
     borderopacity="1.0"
     inkscape:pageopacity="0.0"
     inkscape:pageshadow="2"
     inkscape:zoom="1.4"
     inkscape:cx="-72.983922"
     inkscape:cy="43.63747"
     inkscape:document-units="mm"
     inkscape:current-layer="layer1"
     showgrid="false"
     inkscape:window-width="1440"
     inkscape:window-height="800"
     inkscape:window-x="0"
     inkscape:window-y="1"
     inkscape:window-maximized="1" />
  <metadata
     id="metadata5">
    <rdf:RDF>
      <cc:Work
         rdf:about="">
        <dc:format>image/svg+xml</dc:format>
        <dc:type
           rdf:resource="http://purl.org/dc/dcmitype/StillImage" />
        <dc:title />
      </cc:Work>
    </rdf:RDF>
  </metadata>
  <g
     inkscape:label="Calque 1"
     inkscape:groupmode="layer"
     id="layer1"
     transform="translate(0,-242)">
    <g
       style="font-style:normal;font-variant:normal;font-weight:normal;font-stretch:normal;font-size:63.49999619px;line-height:125%;font-family:Graphecrit;-inkscape-font-specification:Graphecrit;letter-spacing:0px;word-spacing:0px;fill:#000000;fill-opacity:1;stroke:none;stroke-width:1px;stroke-linecap:butt;stroke-linejoin:miter;stroke-opacity:1"
       id="text6642">
      <path
         d="m 27.973774,258.82341 q 0.716139,-0.17286 1.308805,-0.41981 l -0.246944,0 q -0.790222,0 -1.605139,0.22225 -0.691444,0.19756 -1.234722,0.49389 0.716139,-0.0494 1.778,-0.29633 z m 15.606888,11.26067 q 0.22225,0.17286 0.246944,0.4445 l 0,0.0741 q 0,0.24694 -0.148166,0.4198 -1.432278,1.75331 -2.642306,2.56823 -1.629833,1.13594 -3.457222,1.13594 l -0.419805,-0.0247 q -1.703917,-0.0988 -3.160889,-1.38289 -1.456972,-1.25942 -1.679222,-2.81517 -0.07408,-0.46919 -0.07408,-1.28411 0,-1.18533 0.148166,-3.0868 l 0.07408,-0.74084 0.04939,-0.76553 q 0.04939,-0.83961 0.07408,-1.48166 l 0,-0.27164 q 0,-1.40758 -0.246945,-2.14842 -0.395111,-1.13594 -1.234722,-1.72861 -1.210028,0.76553 -2.815166,1.13595 -1.580445,0.37041 -2.494139,0.37041 -0.197556,0 -0.370417,-0.0247 -0.963083,-0.0988 -1.135944,-0.76553 -0.02469,-0.12347 -0.02469,-0.24694 0,-0.61737 0.790222,-1.21003 0.765527,-0.54328 1.852083,-0.86431 1.135944,-0.34572 2.148416,-0.34572 1.061861,0 1.975556,0.37042 1.778,-1.43228 1.975555,-3.77825 0.0247,-0.29634 0.0247,-0.56798 0,-2.17311 -1.308806,-4.27213 -1.481666,-2.39536 -3.852333,-3.38314 l -0.123472,-0.0494 -0.123472,-0.0247 q -0.04939,0.0494 -0.123472,0.12348 -0.07408,0.0988 -0.172862,0.19755 -0.22225,0.27164 -0.469194,0.59267 -0.66675,0.8643 -1.210028,1.82739 -1.605138,2.81516 -1.605138,5.55625 l 0,0.0741 q 0,0.91369 0.09878,3.72886 l 0.02469,0.76553 0.02469,0.79022 0.04939,1.58045 q 0.04939,1.80269 0.04939,3.16088 0,3.50662 -0.321028,5.01298 -0.839611,4.07458 -3.309055,5.48216 -1.061861,0.59267 -2.296583,0.59267 -0.987778,0 -2.074333,-0.37042 -0.938389,-0.32103 -1.456973,-1.01247 -0.493888,-0.66675 -0.493888,-1.53106 0.02469,-0.91369 0.592666,-1.65452 0.543278,-0.74084 1.382889,-0.98778 0.09878,-0.0247 0.197556,-0.0247 0.172861,0 0.321027,0.0741 0.246945,0.14816 0.321028,0.39511 0.02469,0.0988 0.02469,0.19755 0,0.17287 -0.07408,0.32103 -0.123472,0.24695 -0.395111,0.32103 -0.419805,0.14817 -0.716139,0.51858 -0.296333,0.39511 -0.296333,0.86431 l 0,0.0494 q 0,0.81491 1.037167,1.18533 0.864305,0.29633 1.605138,0.29633 0.913695,0 1.654528,-0.4198 1.950861,-1.08656 2.667,-4.56847 0.271639,-1.30881 0.271639,-4.37092 l 0,-0.51858 q 0,-1.3335 -0.04939,-3.1115 0,-0.66675 -0.04939,-1.53106 l -0.0247,-0.74083 -0.02469,-0.71614 q -0.09878,-2.79047 -0.09878,-3.77825 0,-2.667 1.284111,-5.35869 0.493889,-1.01248 1.135945,-1.97556 0.469194,-0.74083 1.012472,-1.38289 -0.543278,-0.0494 -1.11125,-0.0494 -2.395361,0 -4.963583,1.03717 -3.901722,1.62983 -5.062361,4.42031 -0.543278,1.33349 -0.543278,2.61761 0,0.46919 0.07408,0.96308 0.22225,1.43228 1.086555,2.34597 0.864306,0.9137 1.852083,0.9137 0.370417,0 0.740834,-0.12348 1.481666,-0.49389 1.876777,-2.59291 0.123472,-0.66675 0.123472,-1.40759 l 0,-0.4445 q 0,-0.0741 -0.02469,-0.14816 l 0,-0.12348 q 0,-0.22225 0.148167,-0.4198 0.172861,-0.22225 0.4445,-0.24695 l 0.07408,0 q 0.22225,0 0.419806,0.14817 0.22225,0.17286 0.271638,0.4445 l 0,0.27164 q 0.02469,0.29633 0.02469,0.61736 0,0.96308 -0.197556,1.8027 -0.592666,2.667 -2.716388,3.38313 -0.567973,0.19756 -1.135945,0.19756 -0.493889,0 -0.987777,-0.14817 -1.086556,-0.32102 -1.901473,-1.21002 -1.234722,-1.3335 -1.481666,-3.33375 -0.04939,-0.41981 -0.04939,-0.83962 0,-1.58044 0.66675,-3.18558 1.358194,-3.30905 5.803194,-5.13644 2.345972,-0.96309 4.766027,-1.13595 0.419806,-0.0247 0.790223,-0.0247 1.901472,0 3.28436,0.59267 2.790473,1.16063 4.494389,3.90172 1.481667,2.39536 1.481667,4.93889 0,0.37041 -0.0247,0.74083 -0.22225,2.6423 -2.099027,4.39561 0.913694,0.79022 1.358194,2.14842 0.321028,0.889 0.321028,2.46944 l 0,0.22225 q 0,0.69145 -0.04939,1.58045 l -0.04939,0.83961 -0.07408,0.81491 q -0.148167,1.92617 -0.148167,3.03742 0,0.66675 0.04939,1.03717 0.148166,1.03716 1.210027,1.97555 1.11125,0.98778 2.395361,1.08656 l 0.321028,0 q 1.210028,0 2.296583,-0.64206 1.234722,-0.74083 2.741084,-2.54353 0.197555,-0.22225 0.469194,-0.24694 l 0.07408,0 q 0.22225,0 0.419806,0.14817 z"
         style="font-size:49.3888855px"
         id="path9466" />
    </g>
  </g>
</svg>
