<?xml version="1.0" encoding="UTF-8" standalone="no"?>
<!-- Created with Inkscape (http://www.inkscape.org/) -->

<svg
   xmlns:dc="http://purl.org/dc/elements/1.1/"
   xmlns:cc="http://creativecommons.org/ns#"
   xmlns:rdf="http://www.w3.org/1999/02/22-rdf-syntax-ns#"
   xmlns:svg="http://www.w3.org/2000/svg"
   xmlns="http://www.w3.org/2000/svg"
   xmlns:sodipodi="http://sodipodi.sourceforge.net/DTD/sodipodi-0.dtd"
   xmlns:inkscape="http://www.inkscape.org/namespaces/inkscape"
   width="55mm"
   height="55mm"
   viewBox="0 0 55 55"
   version="1.1"
   id="svg8"
   inkscape:version="0.91 r13725"
   sodipodi:docname="upper-d.svg">
  <defs
     id="defs2" />
  <sodipodi:namedview
     id="base"
     pagecolor="#ffffff"
     bordercolor="#666666"
     borderopacity="1.0"
     inkscape:pageopacity="0.0"
     inkscape:pageshadow="2"
     inkscape:zoom="1.4"
     inkscape:cx="-72.983922"
     inkscape:cy="43.63747"
     inkscape:document-units="mm"
     inkscape:current-layer="layer1"
     showgrid="false"
     inkscape:window-width="1440"
     inkscape:window-height="800"
     inkscape:window-x="0"
     inkscape:window-y="1"
     inkscape:window-maximized="1" />
  <metadata
     id="metadata5">
    <rdf:RDF>
      <cc:Work
         rdf:about="">
        <dc:format>image/svg+xml</dc:format>
        <dc:type
           rdf:resource="http://purl.org/dc/dcmitype/StillImage" />
        <dc:title />
      </cc:Work>
    </rdf:RDF>
  </metadata>
  <g
     inkscape:label="Calque 1"
     inkscape:groupmode="layer"
     id="layer1"
     transform="translate(0,-242)">
    <g
       style="font-style:normal;font-variant:normal;font-weight:normal;font-stretch:normal;font-size:63.49999619px;line-height:125%;font-family:Graphecrit;-inkscape-font-specification:Graphecrit;letter-spacing:0px;word-spacing:0px;fill:#000000;fill-opacity:1;stroke:none;stroke-width:1px;stroke-linecap:butt;stroke-linejoin:miter;stroke-opacity:1"
       id="text6642">
      <path
         d="m 18.085414,271.83738 q -0.963083,0 -1.259417,0.76553 -0.04939,0.14817 -0.04939,0.24694 0,0.12348 0.07408,0.19756 0.296333,0.27164 1.086555,0.27164 l 0.246945,0 q 1.11125,-0.0494 2.370666,-0.59267 0.246945,-0.0988 0.469195,-0.22225 -2.049639,-0.66675 -2.938639,-0.66675 z m 5.827888,0.27164 q 4.0005,1.38289 6.494639,1.38289 l 0.09878,0 q 3.753555,-0.0247 6.321777,-2.79047 2.296583,-2.49414 2.963333,-6.07484 0.246945,-1.38288 0.246945,-2.81516 0,-2.29659 -0.642056,-4.76603 -1.160639,-4.22275 -3.802944,-7.43303 -2.617611,-3.18558 -5.7785,-4.14866 -0.22225,-0.0741 -0.493889,-0.14817 -0.07408,0.19756 -0.271638,0.29633 -2.271889,1.3582 -2.790473,6.6922 -0.148166,1.53105 -0.148166,3.9758 0,2.42006 0.148166,5.72911 0.123473,2.98803 0.123473,4.19806 0,3.50661 -2.469445,5.90197 z m 6.544028,2.71639 q -2.864556,0 -7.77875,-1.72861 -0.740833,0.49389 -1.580444,0.8643 -1.605139,0.66675 -3.037417,0.69145 l -0.09878,0 q -1.358195,0 -2.024945,-0.64206 -0.493888,-0.46919 -0.493888,-1.11125 0,-0.37041 0.148166,-0.76553 0.592667,-1.62983 2.44475,-1.62983 l 0.172861,0 q 1.308806,0.0494 4.247444,1.08656 2.592917,-2.09903 2.592917,-5.38339 0,-1.21003 -0.123472,-4.12397 -0.172862,-3.45723 -0.172862,-5.97606 0,-2.32128 0.148167,-3.80294 0.518583,-5.28461 2.716389,-7.26017 -0.4445,-0.0247 -0.864306,-0.0247 -2.938638,0 -5.556249,1.58044 -2.741083,1.67922 -3.580694,3.95111 -0.790223,2.17311 -0.790223,3.80295 0,1.48166 0.642056,2.54352 0.790222,1.28411 2.617611,1.53106 0.197555,0.0247 0.395111,0.0247 0.814916,0 1.382889,-0.51858 1.358194,-1.25942 1.358194,-4.29683 0,-0.51859 -0.04939,-1.08656 l 0,-0.0494 q 0,-0.24694 0.172861,-0.4445 0.172861,-0.19755 0.4445,-0.22225 l 0.07408,0 q 0.22225,0 0.419805,0.14817 0.197556,0.19755 0.22225,0.46919 0.02469,0.37042 0.02469,0.76553 0,0.86431 -0.123472,1.82739 -0.370416,2.667 -1.629833,3.85233 -0.938389,0.9137 -2.296583,0.9137 -0.271639,0 -0.567972,-0.0494 -2.469445,-0.34572 -3.580695,-2.17311 -0.839611,-1.38289 -0.839611,-3.23497 0,-1.87678 0.864306,-4.24745 1.160639,-3.21028 5.012972,-5.13644 2.617611,-1.3335 5.333999,-1.3335 1.728611,0 3.506611,0.54328 3.457222,1.06186 6.346472,4.51908 2.88925,3.45722 4.123972,8.001 0.716139,2.6423 0.716139,5.13644 0,1.58045 -0.296333,3.1115 -0.765528,3.90172 -3.309056,6.6675 -2.963333,3.21028 -7.334249,3.21028 z"
         style="font-size:49.3888855px"
         id="path8010" />
    </g>
  </g>
</svg>
