<?xml version="1.0" encoding="UTF-8" standalone="no"?>
<!-- Created with Inkscape (http://www.inkscape.org/) -->

<svg
   xmlns:dc="http://purl.org/dc/elements/1.1/"
   xmlns:cc="http://creativecommons.org/ns#"
   xmlns:rdf="http://www.w3.org/1999/02/22-rdf-syntax-ns#"
   xmlns:svg="http://www.w3.org/2000/svg"
   xmlns="http://www.w3.org/2000/svg"
   xmlns:sodipodi="http://sodipodi.sourceforge.net/DTD/sodipodi-0.dtd"
   xmlns:inkscape="http://www.inkscape.org/namespaces/inkscape"
   width="55mm"
   height="55mm"
   viewBox="0 0 55 55"
   version="1.1"
   id="svg8"
   inkscape:version="0.91 r13725"
   sodipodi:docname="upper-s.svg">
  <defs
     id="defs2" />
  <sodipodi:namedview
     id="base"
     pagecolor="#ffffff"
     bordercolor="#666666"
     borderopacity="1.0"
     inkscape:pageopacity="0.0"
     inkscape:pageshadow="2"
     inkscape:zoom="1.4"
     inkscape:cx="-72.983922"
     inkscape:cy="43.63747"
     inkscape:document-units="mm"
     inkscape:current-layer="layer1"
     showgrid="false"
     inkscape:window-width="1440"
     inkscape:window-height="800"
     inkscape:window-x="0"
     inkscape:window-y="1"
     inkscape:window-maximized="1" />
  <metadata
     id="metadata5">
    <rdf:RDF>
      <cc:Work
         rdf:about="">
        <dc:format>image/svg+xml</dc:format>
        <dc:type
           rdf:resource="http://purl.org/dc/dcmitype/StillImage" />
        <dc:title />
      </cc:Work>
    </rdf:RDF>
  </metadata>
  <g
     inkscape:label="Calque 1"
     inkscape:groupmode="layer"
     id="layer1"
     transform="translate(0,-242)">
    <g
       style="font-style:normal;font-variant:normal;font-weight:normal;font-stretch:normal;font-size:63.49999619px;line-height:125%;font-family:Graphecrit;-inkscape-font-specification:Graphecrit;letter-spacing:0px;word-spacing:0px;fill:#000000;fill-opacity:1;stroke:none;stroke-width:1px;stroke-linecap:butt;stroke-linejoin:miter;stroke-opacity:1"
       id="text6642">
      <path
         d="m 32.782135,245.34024 q -1.185333,0.17287 -2.345972,1.58045 -1.259417,1.58044 -1.778,3.95111 -0.469194,2.34597 -0.592667,6.1983 3.77825,-1.13594 5.951361,-5.28461 1.037167,-2.00025 1.037167,-3.5313 0,-0.9137 -0.370417,-1.65453 -0.617361,-1.25942 -1.679222,-1.25942 l -0.22225,0 z m -10.717388,29.48517 q -0.66675,0 -1.382889,-0.14817 -1.234722,-0.22225 -1.901472,-0.96308 -0.617361,-0.69145 -0.617361,-1.65453 l 0,-0.12347 q 0.07408,-1.11125 0.814917,-2.00025 0.790222,-0.889 1.777999,-0.96308 l 0.07408,0 q 0.22225,0 0.419805,0.14816 0.22225,0.17286 0.246945,0.4692 l 0,0.0741 q 0,0.22225 -0.148167,0.41981 -0.197556,0.19755 -0.469194,0.22225 -0.493889,0.0494 -0.913695,0.56797 -0.419805,0.51858 -0.4445,1.11125 l 0,0.0741 q 0,1.01247 1.432278,1.30881 0.592667,0.0988 1.135944,0.0988 3.432528,0 4.445,-4.61786 0.172861,-0.83961 0.172861,-4.27213 l 0,-1.58045 q -0.02469,-1.82739 -0.02469,-3.13619 l 0,-1.16064 q -0.246945,0.0247 -0.493889,0.0247 -2.691694,0 -4.420305,-2.07433 -1.382889,-1.60514 -1.753306,-3.92642 -0.123472,-0.81491 -0.123472,-1.55575 0,-1.23472 0.345722,-2.32127 0.790222,-2.54353 3.802944,-4.09928 1.531056,-0.79022 3.012722,-1.08656 0.09878,-0.0247 0.172861,-0.0247 0.172861,0 0.345723,0.0988 0.22225,0.17286 0.296333,0.4445 l 0,0.12347 q 0,0.19755 -0.123472,0.39511 -0.148167,0.22225 -0.419806,0.27164 -1.308805,0.29633 -2.518833,0.91369 -2.642305,1.30881 -3.284361,3.35845 -0.296333,0.889 -0.296333,1.92616 0,0.61736 0.123472,1.30881 0.321028,1.97555 1.432278,3.30905 1.358194,1.58045 3.432527,1.58045 0.246945,0 0.493889,-0.0247 0.09878,-4.19805 0.642056,-6.74158 0.543277,-2.6423 2.024944,-4.51908 1.506361,-1.85209 3.234972,-2.07434 0.22225,-0.0247 0.469194,-0.0247 1.827389,0 2.815167,2.00025 0.518583,1.03717 0.518583,2.24719 0,1.85209 -1.210028,4.17336 -1.185333,2.29659 -3.111499,3.92642 -1.926167,1.62983 -4.049889,2.14842 -0.02469,0.76553 -0.02469,1.90147 0,1.11125 0.02469,2.59292 0.02469,0.98777 0.02469,1.85208 0,3.38314 -0.197555,4.32153 -0.617361,2.74108 -2.123722,4.22275 -1.481667,1.45697 -3.679472,1.45697 z"
         style="font-size:49.3888855px"
         id="path8914" />
    </g>
  </g>
</svg>
