<?xml version="1.0" encoding="UTF-8" standalone="no"?>
<!-- Created with Inkscape (http://www.inkscape.org/) -->

<svg
   xmlns:dc="http://purl.org/dc/elements/1.1/"
   xmlns:cc="http://creativecommons.org/ns#"
   xmlns:rdf="http://www.w3.org/1999/02/22-rdf-syntax-ns#"
   xmlns:svg="http://www.w3.org/2000/svg"
   xmlns="http://www.w3.org/2000/svg"
   xmlns:sodipodi="http://sodipodi.sourceforge.net/DTD/sodipodi-0.dtd"
   xmlns:inkscape="http://www.inkscape.org/namespaces/inkscape"
   width="55mm"
   height="55mm"
   viewBox="0 0 55 55"
   version="1.1"
   id="svg8"
   inkscape:version="0.91 r13725"
   sodipodi:docname="upper-e.svg">
  <defs
     id="defs2" />
  <sodipodi:namedview
     id="base"
     pagecolor="#ffffff"
     bordercolor="#666666"
     borderopacity="1.0"
     inkscape:pageopacity="0.0"
     inkscape:pageshadow="2"
     inkscape:zoom="1.4"
     inkscape:cx="-72.983922"
     inkscape:cy="43.63747"
     inkscape:document-units="mm"
     inkscape:current-layer="layer1"
     showgrid="false"
     inkscape:window-width="1440"
     inkscape:window-height="800"
     inkscape:window-x="0"
     inkscape:window-y="1"
     inkscape:window-maximized="1" />
  <metadata
     id="metadata5">
    <rdf:RDF>
      <cc:Work
         rdf:about="">
        <dc:format>image/svg+xml</dc:format>
        <dc:type
           rdf:resource="http://purl.org/dc/dcmitype/StillImage" />
        <dc:title />
      </cc:Work>
    </rdf:RDF>
  </metadata>
  <g
     inkscape:label="Calque 1"
     inkscape:groupmode="layer"
     id="layer1"
     transform="translate(0,-242)">
    <g
       style="font-style:normal;font-variant:normal;font-weight:normal;font-stretch:normal;font-size:63.49999619px;line-height:125%;font-family:Graphecrit;-inkscape-font-specification:Graphecrit;letter-spacing:0px;word-spacing:0px;fill:#000000;fill-opacity:1;stroke:none;stroke-width:1px;stroke-linecap:butt;stroke-linejoin:miter;stroke-opacity:1"
       id="text6642">
      <path
         d="m 25.172719,252.00774 q 0.790222,0.0988 1.55575,0.0988 1.012472,0 1.975555,-0.17286 0.765528,-0.12347 1.456972,-0.37042 0.889,-0.29633 1.531056,-0.71613 1.679222,-1.13595 1.679222,-3.1115 0,-2.00025 -1.382889,-2.54353 -0.469194,-0.17286 -0.987778,-0.17286 -0.691444,0 -1.481666,0.29633 -1.382889,0.54328 -2.44475,1.75331 -1.926166,2.17311 -1.926166,4.54377 0,0.19756 0.02469,0.39511 z m 4.296833,4.24745 q 0.814917,0.19755 1.481667,0.29633 0.493888,0.0494 0.839611,0.0494 -0.296334,-0.17286 -0.716139,-0.29633 -0.493889,-0.14817 -1.061861,-0.19756 -0.197556,-0.0247 -0.395111,-0.0247 -0.296334,0 -0.617361,0.0494 l 0.469194,0.12347 z m 0.617361,18.57022 q -2.839861,0 -5.210527,-1.40758 -2.345972,-1.38289 -3.580695,-3.80295 -0.987777,-1.92617 -0.987777,-4.07458 0,-0.61736 0.07408,-1.25942 0.370417,-2.83986 2.321278,-5.53155 1.3335,-1.85209 3.012722,-2.86456 -1.185334,-1.03717 -1.654528,-2.49414 l -0.04939,-0.22225 q -1.901472,-0.34572 -3.210277,-1.11125 -1.407584,-0.83961 -1.802695,-1.97555 -0.271639,-0.81492 -0.271639,-1.58045 0,-1.35819 0.839611,-2.59291 1.481667,-2.19781 4.593167,-2.32128 l 0.04939,0 q 0.246944,0 0.4445,0.17286 0.197555,0.17286 0.197555,0.4445 l 0,0.0741 q 0,0.24695 -0.172861,0.41981 -0.172861,0.19755 -0.4445,0.22225 -2.44475,0.0988 -3.556,1.72861 -0.592666,0.889 -0.592666,1.85208 0,0.56798 0.197555,1.13595 0.493889,1.43228 3.531306,2.14841 l 0,-0.0741 q 0,-2.98803 2.247194,-5.53155 1.358194,-1.55575 3.136194,-2.17312 0.938389,-0.32102 1.778,-0.32102 0.765528,0 1.481667,0.27164 1.086555,0.39511 1.679222,1.38288 0.592666,0.98778 0.592666,2.39537 0,2.17311 -1.531055,3.60538 -1.506361,1.45698 -4.272139,1.92617 -1.061861,0.17286 -2.197805,0.17286 -0.617361,0 -1.234722,-0.0494 0.469194,1.08656 1.580444,1.82739 1.259417,-0.49389 2.518833,-0.49389 0.22225,0 0.4445,0.0247 1.3335,0.0988 2.345972,0.64205 0.839611,0.4692 1.037167,1.06186 0.04939,0.17286 0.04939,0.32103 l 0,0.0988 q 0,0.0988 -0.0247,0.17286 -0.02469,0.0494 -0.04939,0.0988 -0.296333,0.81491 -1.728611,0.81491 -0.987777,0 -2.518833,-0.39511 -1.234722,-0.32102 -2.197805,-0.83961 -1.753306,0.86431 -3.160889,2.81517 -1.728611,2.37067 -2.049639,4.84011 -0.07408,0.59267 -0.07408,1.16064 0,1.82739 0.814917,3.45722 1.061861,2.07433 3.1115,3.28436 2.049638,1.21003 4.494388,1.21003 1.432278,0 2.543528,-0.83961 0.790222,-0.59267 2.321277,-2.44475 0.172861,-0.22225 0.4445,-0.24695 l 0.07408,0 q 0.22225,0 0.419805,0.14817 0.22225,0.17286 0.246945,0.46919 l 0,0.0741 q 0,0.22225 -0.148167,0.39511 -1.703917,2.04964 -2.691694,2.76578 -1.382889,1.01247 -3.210278,1.01247 z"
         style="font-size:49.3888855px"
         id="path7458" />
    </g>
  </g>
</svg>
