<?xml version="1.0" encoding="UTF-8" standalone="no"?>
<!-- Created with Inkscape (http://www.inkscape.org/) -->

<svg
   xmlns:dc="http://purl.org/dc/elements/1.1/"
   xmlns:cc="http://creativecommons.org/ns#"
   xmlns:rdf="http://www.w3.org/1999/02/22-rdf-syntax-ns#"
   xmlns:svg="http://www.w3.org/2000/svg"
   xmlns="http://www.w3.org/2000/svg"
   xmlns:sodipodi="http://sodipodi.sourceforge.net/DTD/sodipodi-0.dtd"
   xmlns:inkscape="http://www.inkscape.org/namespaces/inkscape"
   width="55mm"
   height="55mm"
   viewBox="0 0 55 55"
   version="1.1"
   id="svg8"
   inkscape:version="0.91 r13725"
   sodipodi:docname="upper-x.svg">
  <defs
     id="defs2" />
  <sodipodi:namedview
     id="base"
     pagecolor="#ffffff"
     bordercolor="#666666"
     borderopacity="1.0"
     inkscape:pageopacity="0.0"
     inkscape:pageshadow="2"
     inkscape:zoom="1.4"
     inkscape:cx="-72.983922"
     inkscape:cy="43.63747"
     inkscape:document-units="mm"
     inkscape:current-layer="layer1"
     showgrid="false"
     inkscape:window-width="1440"
     inkscape:window-height="800"
     inkscape:window-x="0"
     inkscape:window-y="1"
     inkscape:window-maximized="1" />
  <metadata
     id="metadata5">
    <rdf:RDF>
      <cc:Work
         rdf:about="">
        <dc:format>image/svg+xml</dc:format>
        <dc:type
           rdf:resource="http://purl.org/dc/dcmitype/StillImage" />
        <dc:title />
      </cc:Work>
    </rdf:RDF>
  </metadata>
  <g
     inkscape:label="Calque 1"
     inkscape:groupmode="layer"
     id="layer1"
     transform="translate(0,-242)">
    <g
       style="font-style:normal;font-variant:normal;font-weight:normal;font-stretch:normal;font-size:63.49999619px;line-height:125%;font-family:Graphecrit;-inkscape-font-specification:Graphecrit;letter-spacing:0px;word-spacing:0px;fill:#000000;fill-opacity:1;stroke:none;stroke-width:1px;stroke-linecap:butt;stroke-linejoin:miter;stroke-opacity:1"
       id="text6642">
      <path
         d="m 22.484552,272.05963 q 1.185334,-1.18533 2.074334,-4.49439 0.889,-3.21027 1.160638,-7.16139 -3.827638,1.3335 -5.72911,2.39537 -2.741083,1.55575 -3.580695,3.50661 -0.790222,1.82738 -0.790222,3.33375 0,0.32102 0.02469,0.61736 0.22225,1.72861 1.506361,2.61761 0.913694,0.61736 2.049638,0.61736 0.321028,0 0.642056,-0.0494 1.481667,-0.24694 2.642305,-1.38289 z m 9.136944,-24.24994 q -2.741083,3.70416 -3.506611,10.34697 3.679472,-1.28411 5.580944,-2.37067 2.691695,-1.50636 3.630083,-3.43252 1.210028,-2.46945 1.284111,-4.24745 l 0,-0.14816 q 0,-1.65453 -1.061861,-2.32128 -0.592666,-0.34572 -1.432277,-0.34572 -2.617611,0 -4.494389,2.51883 z m 6.223,16.79222 q 1.308805,0 2.197805,0.91369 1.061861,1.11125 1.11125,3.23498 l 0,0.24694 q 0,3.08681 -1.852083,4.64256 -1.407583,1.18533 -3.556,1.18533 -0.642055,0 -1.185333,-0.12347 -4.790722,-0.96309 -6.790972,-6.17361 -0.790222,-2.12373 -1.061861,-4.76603 -1.037167,6.96383 -3.284361,9.23572 -1.481666,1.48167 -3.457222,1.75331 -0.419805,0.0494 -0.814916,0.0494 -1.506361,0 -2.741084,-0.81491 -1.506361,-1.03717 -1.950861,-2.98803 -0.148166,-0.69144 -0.148166,-1.43228 0,-1.7533 0.864305,-3.77825 1.037167,-2.37066 4.173361,-4.14866 2.074333,-1.16064 6.44525,-2.667 0.02469,-0.96309 0.02469,-1.87678 0,-7.50711 -2.568222,-10.47044 -1.086555,-1.23473 -2.420055,-1.55575 -0.4445,-0.0988 -0.913695,-0.0988 -0.889,0 -1.753305,0.4198 -1.308806,0.64206 -2.049639,1.97556 -0.567972,1.01247 -0.567972,2.09903 0,0.46919 0.09878,0.93839 0.370416,1.87677 1.308805,2.1978 0.271639,0.0988 0.567972,0.0988 0.864306,0 1.926167,-0.889 0.172861,-0.14817 0.395111,-0.14817 l 0.07408,0 q 0.296334,0.0247 0.469195,0.24695 0.148166,0.17286 0.148166,0.39511 l 0,0.0741 q -0.02469,0.27164 -0.246944,0.46919 -1.456972,1.18534 -2.790472,1.18534 -0.493889,0 -0.987778,-0.17286 -1.629833,-0.59267 -2.173111,-3.18559 -0.123472,-0.59266 -0.123472,-1.16063 0,-1.30881 0.642056,-2.59292 0.913694,-1.82739 2.716388,-2.71639 1.160639,-0.56797 2.321278,-0.56797 0.592667,0 1.185333,0.14816 1.802694,0.39512 3.185583,1.97556 2.543528,2.93864 2.864556,9.95186 1.061861,-5.48217 3.432527,-8.69244 1.481667,-2.00025 3.753555,-2.74109 0.987778,-0.32102 1.852084,-0.32102 1.135944,0 2.074333,0.56797 1.234722,0.74083 1.580444,2.29658 0.123472,0.54328 0.123472,1.16064 0,2.07433 -1.432277,4.96358 -1.135945,2.29659 -4.22275,4.0252 -2.099028,1.18533 -6.297083,2.6423 -0.04939,0.93839 -0.04939,1.82739 0,3.75356 1.086556,6.59342 1.728611,4.54377 5.803194,5.38339 0.567972,0.12347 1.086555,0.12347 1.456972,0 2.543528,-0.9137 1.358194,-1.16064 1.358194,-3.60539 l 0,-0.24694 q -0.02469,-1.3335 -0.543278,-2.09903 -0.518583,-0.76552 -1.432277,-0.76552 -0.814917,0.0247 -1.481667,0.59266 -0.691444,0.61736 -0.691444,1.48167 0,0.27164 -0.197556,0.46919 -0.172861,0.19756 -0.469194,0.19756 -0.271639,0 -0.469195,-0.19756 -0.172861,-0.19755 -0.172861,-0.46919 0,-1.43228 1.086556,-2.44475 1.037166,-0.93839 2.370666,-0.93839 l 0.0247,0 z"
         style="font-size:49.3888855px"
         id="path6154" />
    </g>
  </g>
</svg>
