<?xml version="1.0" encoding="UTF-8" standalone="no"?>
<!-- Created with Inkscape (http://www.inkscape.org/) -->

<svg
   xmlns:dc="http://purl.org/dc/elements/1.1/"
   xmlns:cc="http://creativecommons.org/ns#"
   xmlns:rdf="http://www.w3.org/1999/02/22-rdf-syntax-ns#"
   xmlns:svg="http://www.w3.org/2000/svg"
   xmlns="http://www.w3.org/2000/svg"
   xmlns:sodipodi="http://sodipodi.sourceforge.net/DTD/sodipodi-0.dtd"
   xmlns:inkscape="http://www.inkscape.org/namespaces/inkscape"
   width="55mm"
   height="55mm"
   viewBox="0 0 55 55"
   version="1.1"
   id="svg8"
   inkscape:version="0.92.3 (2405546, 2018-03-11)"
   sodipodi:docname="upper-b.svg">
  <defs
     id="defs2" />
  <sodipodi:namedview
     id="base"
     pagecolor="#ffffff"
     bordercolor="#666666"
     borderopacity="1.0"
     inkscape:pageopacity="0.0"
     inkscape:pageshadow="2"
     inkscape:zoom="1.4"
     inkscape:cx="213.44465"
     inkscape:cy="34.720677"
     inkscape:document-units="mm"
     inkscape:current-layer="layer1"
     showgrid="false"
     inkscape:window-width="1533"
     inkscape:window-height="845"
     inkscape:window-x="67"
     inkscape:window-y="27"
     inkscape:window-maximized="1" />
  <metadata
     id="metadata5">
    <rdf:RDF>
      <cc:Work
         rdf:about="">
        <dc:format>image/svg+xml</dc:format>
        <dc:type
           rdf:resource="http://purl.org/dc/dcmitype/StillImage" />
        <dc:title></dc:title>
      </cc:Work>
    </rdf:RDF>
  </metadata>
  <g
     inkscape:label="Calque 1"
     inkscape:groupmode="layer"
     id="layer1"
     transform="translate(0,-242)">
    <g
       aria-label="B"
       style="font-style:normal;font-variant:normal;font-weight:normal;font-stretch:normal;font-size:10.58333302px;line-height:1.25;font-family:'Cursive standard';-inkscape-font-specification:'Cursive standard';letter-spacing:0px;word-spacing:0px;fill:#000000;fill-opacity:1;stroke:none;stroke-width:0.26458332"
       id="text940">
      <path
         d="m 44.478726,278.02104 q 0,2.56823 -0.779639,4.76956 -0.779639,2.20133 -2.201333,3.85233 -1.375833,1.60514 -3.302,2.56822 -1.926167,0.91723 -4.173361,0.91723 -1.513417,0 -2.751667,-0.68792 -1.23825,-0.64206 -2.155472,-1.78858 -0.871361,-1.14653 -1.375833,-2.61409 -0.504472,-1.51341 -0.504472,-3.16441 0,-1.19239 0.366888,-2.2472 0.41275,-1.10066 1.100667,-1.8803 0.687917,-0.77964 1.605139,-1.23825 0.963083,-0.50448 2.017889,-0.50448 0.41275,0 0.687916,0.32103 0.275167,0.27517 0.275167,0.73378 0,0.45861 -0.275167,0.77964 -0.275166,0.27517 -0.687916,0.27517 -1.375834,0 -2.293056,1.10066 -0.917222,1.10067 -0.917222,2.65995 0,1.23825 0.321028,2.38477 0.366889,1.10067 1.008944,1.92617 0.687917,0.8255 1.559278,1.32997 0.917222,0.50448 2.017889,0.50448 1.880305,0 3.439583,-0.77964 1.605139,-0.77964 2.705806,-2.10961 1.146527,-1.37584 1.788583,-3.21028 0.642056,-1.83445 0.642056,-3.8982 0,-1.60514 -0.458612,-2.98097 -0.458611,-1.42169 -1.284111,-2.61408 -0.779639,-1.23825 -1.834444,-2.20134 -1.054806,-0.96308 -2.247194,-1.60513 -0.917223,1.0548 -2.522362,1.69686 -1.559277,0.59619 -2.843388,0.59619 -0.458612,0 -1.054806,-0.18344 -0.596194,-0.22931 -1.100667,-0.5962 -0.504472,-0.41275 -0.871361,-0.91722 -0.366889,-0.55033 -0.366889,-1.19239 0,-0.59619 0.366889,-1.10067 0.366889,-0.55033 0.871361,-0.91722 0.504473,-0.36689 1.100667,-0.59619 0.596194,-0.22931 1.054806,-0.22931 1.192388,0 2.430638,0.27517 1.23825,0.2293 2.430639,0.64205 2.201334,-2.98097 2.201334,-6.78744 0,-1.05481 -0.275167,-2.01789 -0.275167,-1.00894 -0.779639,-1.8803 -0.8255,-1.55928 -2.109611,-2.52237 -1.23825,-1.00894 -2.751667,-1.60513 -1.467555,-0.5962 -3.026833,-0.87136 -1.559278,-0.27517 -3.026833,-0.27517 -2.843389,0 -5.411611,1.00894 -1.467556,0.50447 -2.88925,1.51342 -1.375834,0.96308 -2.4765,2.24719 -1.100667,1.28411 -1.788584,2.93511 -0.687916,1.651 -0.687916,3.53131 0,0.77964 0.366889,1.55928 0.41275,0.77964 1.008944,1.37583 0.596195,0.5962 1.284111,0.96308 0.733778,0.36689 1.421695,0.36689 0.8255,0 1.467555,-0.50447 0.642056,-0.50447 1.054806,-1.23825 0.41275,-0.73378 0.642055,-1.651 0.229306,-0.91722 0.229306,-1.69686 0,-0.50447 0.275166,-0.77964 0.275167,-0.27517 0.642056,-0.27517 0.41275,0 0.687917,0.27517 0.275166,0.27517 0.275166,0.77964 0,1.23825 -0.366889,2.52236 -0.366888,1.28411 -1.054805,2.33892 -0.642056,1.00894 -1.651,1.651 -0.963083,0.64205 -2.201333,0.64205 -1.054806,0 -2.155473,-0.50447 -1.054805,-0.50447 -1.926166,-1.37583 -0.8255,-0.87136 -1.329972,-2.01789 -0.550334,-1.19239 -0.550334,-2.43064 0,-3.302 1.421695,-5.7785 1.421694,-2.52236 3.623027,-4.17336 2.247195,-1.69686 4.907139,-2.52236 2.705806,-0.87136 5.182306,-0.87136 2.247194,0 4.677833,0.64205 2.430639,0.5962 4.448528,1.97203 2.06375,1.32997 3.393722,3.48544 1.329972,2.10962 1.329972,5.18231 0,2.10961 -0.550333,4.08164 -0.550333,1.92617 -1.696861,3.57717 2.797527,1.69686 4.586111,4.49438 1.788583,2.79753 1.788583,6.55814 z M 29.436282,251.97193 q 0,0.45861 -0.321028,0.77964 -0.275167,0.27517 -0.642056,0.27517 -0.41275,0 -0.733777,0.87136 -0.275167,0.87136 -0.458611,2.20133 -0.183445,1.32997 -0.321028,2.98097 -0.09172,1.60514 -0.137583,3.11856 -0.04586,1.46756 -0.04586,2.70581 0,1.14652 0,1.651 0,2.01788 0.04586,4.03577 0.04586,1.97203 0.04586,3.94406 0,2.75167 -0.366889,5.54919 -0.321028,2.75167 -1.329972,4.99886 -0.963084,2.20134 -2.797528,3.62303 -1.788584,1.4217 -4.769556,1.4217 -0.687916,0 -1.467555,-0.22931 -0.733778,-0.18344 -1.421695,-0.59619 -0.642055,-0.45861 -1.100666,-1.10067 -0.41275,-0.64206 -0.41275,-1.60514 0,-1.23825 0.8255,-2.24719 0.8255,-1.05481 1.926166,-1.05481 0.41275,0 0.687917,0.32103 0.275167,0.32103 0.275167,0.77964 0,0.55033 -0.275167,0.77964 -0.275167,0.18344 -0.642056,0.27516 -0.321027,0.0917 -0.642055,0.32103 -0.275167,0.18345 -0.275167,0.8255 0,0.41275 0.275167,0.73378 0.321028,0.27517 0.687916,0.45861 0.41275,0.13758 0.8255,0.18344 0.458612,0.0459 0.733778,0.0459 2.4765,0 3.944056,-1.28412 1.467555,-1.28411 2.201333,-3.25613 0.779639,-1.97203 0.963083,-4.35681 0.229306,-2.38478 0.229306,-4.58611 0,-2.33892 -0.09172,-4.67783 -0.04586,-2.38478 -0.04586,-4.76956 0,-0.73378 0,-2.06375 0.04586,-1.32997 0.137583,-2.88925 0.09172,-1.60514 0.321028,-3.21028 0.229305,-1.651 0.642055,-2.98097 0.41275,-1.32997 1.008945,-2.15547 0.642055,-0.87136 1.559277,-0.87136 0.366889,0 0.642056,0.32103 0.321028,0.27516 0.321028,0.73377 z m 5.228166,15.73036 q -0.779638,-0.0917 -1.605138,-0.2293 -0.8255,-0.18345 -1.651,-0.18345 -0.229306,0 -0.779639,0.18345 -0.550334,0.18344 -0.550334,0.55033 0,0.36689 0.550334,0.5962 0.550333,0.18344 0.779639,0.18344 0.917222,0 1.696861,-0.22931 0.779639,-0.27516 1.559277,-0.87136 z"
         style="font-size:45.86111069px;stroke-width:0.26458332"
         id="path942" />
    </g>
  </g>
</svg>
