<?xml version="1.0" encoding="UTF-8" standalone="no"?>
<!-- Created with Inkscape (http://www.inkscape.org/) -->

<svg
   xmlns:dc="http://purl.org/dc/elements/1.1/"
   xmlns:cc="http://creativecommons.org/ns#"
   xmlns:rdf="http://www.w3.org/1999/02/22-rdf-syntax-ns#"
   xmlns:svg="http://www.w3.org/2000/svg"
   xmlns="http://www.w3.org/2000/svg"
   xmlns:sodipodi="http://sodipodi.sourceforge.net/DTD/sodipodi-0.dtd"
   xmlns:inkscape="http://www.inkscape.org/namespaces/inkscape"
   width="55mm"
   height="55mm"
   viewBox="0 0 55 55"
   version="1.1"
   id="svg8"
   inkscape:version="0.91 r13725"
   sodipodi:docname="upper-g.svg">
  <defs
     id="defs2" />
  <sodipodi:namedview
     id="base"
     pagecolor="#ffffff"
     bordercolor="#666666"
     borderopacity="1.0"
     inkscape:pageopacity="0.0"
     inkscape:pageshadow="2"
     inkscape:zoom="1.4"
     inkscape:cx="-72.983922"
     inkscape:cy="43.63747"
     inkscape:document-units="mm"
     inkscape:current-layer="layer1"
     showgrid="false"
     inkscape:window-width="1440"
     inkscape:window-height="800"
     inkscape:window-x="0"
     inkscape:window-y="1"
     inkscape:window-maximized="1" />
  <metadata
     id="metadata5">
    <rdf:RDF>
      <cc:Work
         rdf:about="">
        <dc:format>image/svg+xml</dc:format>
        <dc:type
           rdf:resource="http://purl.org/dc/dcmitype/StillImage" />
        <dc:title />
      </cc:Work>
    </rdf:RDF>
  </metadata>
  <g
     inkscape:label="Calque 1"
     inkscape:groupmode="layer"
     id="layer1"
     transform="translate(0,-242)">
    <g
       style="font-style:normal;font-variant:normal;font-weight:normal;font-stretch:normal;font-size:63.49999619px;line-height:125%;font-family:Graphecrit;-inkscape-font-specification:Graphecrit;letter-spacing:0px;word-spacing:0px;fill:#000000;fill-opacity:1;stroke:none;stroke-width:1px;stroke-linecap:butt;stroke-linejoin:miter;stroke-opacity:1"
       id="text6642">
      <path
         d="m 29.645941,294.23524 q 1.802694,-1.80269 1.802694,-12.10028 0,-2.46944 -0.09878,-5.45747 -1.481666,1.55575 -2.420055,3.25967 -2.247194,4.12397 -2.617611,7.95161 -0.07408,0.74083 -0.07408,1.40758 0,2.42006 0.913694,4.0005 0.740833,1.25942 1.778,1.28411 l 0.02469,0 q 0.370417,0 0.691445,-0.34572 z m -3.358444,-47.14169 q -4.049889,3.97581 -5.383389,9.48267 1.11125,0.8643 2.370667,1.23472 0.913694,0.27164 1.777999,0.27164 3.679472,0 6.544028,-4.98828 2.024944,-3.50661 2.024944,-5.50686 0,-1.30881 -0.864305,-1.95086 -0.691445,-0.51859 -1.778,-0.51859 -0.567972,0 -1.284111,0.14817 -2.024945,0.4445 -3.407833,1.82739 z m 11.211277,23.03991 q 0.296333,0.22225 0.296333,0.49389 0,0.22225 -0.197556,0.4445 -0.765527,0.9137 -2.938638,2.667 -1.358195,1.11125 -2.024945,1.70392 0,0.14817 0.02469,0.34572 0.123472,3.1362 0.123472,5.7785 0,11.40883 -2.173111,13.60664 -0.716139,0.74083 -1.654528,0.74083 l -0.04939,0 q -1.777999,-0.0247 -2.913944,-1.95086 -1.061861,-1.85208 -1.061861,-4.66725 0,-0.64205 0.04939,-1.3335 0.345722,-4.22275 2.765778,-8.64305 1.284111,-2.34597 3.531305,-4.445 -0.02469,-0.889 -0.04939,-1.55575 -1.679222,1.72861 -3.802944,2.07433 -0.395111,0.0494 -0.814917,0.0494 -4.247444,0 -6.272388,-6.223 -1.3335,-4.07458 -1.3335,-7.92692 0,-2.17311 0.419805,-4.24744 -2.666999,-2.54353 -2.666999,-5.48217 0,-0.22225 0.02469,-0.4198 0.22225,-3.5807 3.951111,-5.90197 1.950861,-1.21003 3.926416,-1.67923 0.123473,-0.0247 0.22225,-0.0247 0.4445,0 0.592667,0.51858 0.02469,0.12348 0.02469,0.22225 0,0.4692 -0.518583,0.59267 -1.654528,0.39511 -3.358444,1.40758 -3.309055,2.00025 -3.506611,4.93889 l 0,0.32103 q 0,2.00025 1.679222,3.9758 1.531056,-5.40808 5.55625,-9.38388 1.654527,-1.65453 4.099277,-2.17311 0.839611,-0.17287 1.580445,-0.17287 1.506361,0 2.543527,0.79023 1.382889,1.03716 1.382889,2.96333 0,2.42006 -2.197805,6.223 -2.395361,4.17336 -5.655028,5.25992 -1.11125,0.37041 -2.2225,0.37041 -0.987777,0 -2.00025,-0.29633 -1.185333,-0.34572 -2.271888,-1.08656 -0.271639,1.62984 -0.271639,3.30906 0,3.63008 1.259416,7.48241 1.728611,5.30931 4.963583,5.30931 0.321028,0 0.66675,-0.0494 1.358195,-0.19755 2.568222,-1.21003 1.086556,-0.889 1.432278,-1.85208 l 0,-5.97605 q 0,-0.66675 0.66675,-0.66675 0.66675,0 0.66675,0.66675 l 0,8.29733 q 0.02469,0.27164 0.02469,0.39511 0.395112,-0.34572 1.234723,-1.01247 2.049638,-1.65453 2.741083,-2.49414 0.22225,-0.27164 0.469194,-0.27164 0.22225,0 0.469195,0.19755 z"
         style="font-size:49.3888855px"
         id="path6354" />
    </g>
  </g>
</svg>
