<?xml version="1.0" encoding="UTF-8" standalone="no"?>
<!-- Created with Inkscape (http://www.inkscape.org/) -->

<svg
   xmlns:dc="http://purl.org/dc/elements/1.1/"
   xmlns:cc="http://creativecommons.org/ns#"
   xmlns:rdf="http://www.w3.org/1999/02/22-rdf-syntax-ns#"
   xmlns:svg="http://www.w3.org/2000/svg"
   xmlns="http://www.w3.org/2000/svg"
   xmlns:sodipodi="http://sodipodi.sourceforge.net/DTD/sodipodi-0.dtd"
   xmlns:inkscape="http://www.inkscape.org/namespaces/inkscape"
   width="55mm"
   height="55mm"
   viewBox="0 0 55 55"
   version="1.1"
   id="svg8"
   inkscape:version="0.91 r13725"
   sodipodi:docname="upper-p.svg">
  <defs
     id="defs2" />
  <sodipodi:namedview
     id="base"
     pagecolor="#ffffff"
     bordercolor="#666666"
     borderopacity="1.0"
     inkscape:pageopacity="0.0"
     inkscape:pageshadow="2"
     inkscape:zoom="1.4"
     inkscape:cx="-72.983922"
     inkscape:cy="43.63747"
     inkscape:document-units="mm"
     inkscape:current-layer="layer1"
     showgrid="false"
     inkscape:window-width="1440"
     inkscape:window-height="800"
     inkscape:window-x="0"
     inkscape:window-y="1"
     inkscape:window-maximized="1" />
  <metadata
     id="metadata5">
    <rdf:RDF>
      <cc:Work
         rdf:about="">
        <dc:format>image/svg+xml</dc:format>
        <dc:type
           rdf:resource="http://purl.org/dc/dcmitype/StillImage" />
        <dc:title />
      </cc:Work>
    </rdf:RDF>
  </metadata>
  <g
     inkscape:label="Calque 1"
     inkscape:groupmode="layer"
     id="layer1"
     transform="translate(0,-242)">
    <g
       style="font-style:normal;font-variant:normal;font-weight:normal;font-stretch:normal;font-size:63.49999619px;line-height:125%;font-family:Graphecrit;-inkscape-font-specification:Graphecrit;letter-spacing:0px;word-spacing:0px;fill:#000000;fill-opacity:1;stroke:none;stroke-width:1px;stroke-linecap:butt;stroke-linejoin:miter;stroke-opacity:1"
       id="text6642">
      <path
         d="m 37.131885,248.74808 q 0.889,1.82739 0.889,3.72886 0,1.67922 -0.691445,3.40783 -0.740833,1.85208 -2.074333,2.83986 -1.185333,0.86431 -2.543528,0.86431 -0.66675,0 -1.259416,-0.22225 -1.259417,-0.41981 -1.901472,-1.58045 -0.4445,-0.76552 -0.4445,-1.67922 0,-0.59267 0.197555,-1.25942 0.07408,-0.27163 0.296334,-0.39511 0.172861,-0.0988 0.345722,-0.0988 0.07408,0 0.172861,0.0247 0.246944,0.0741 0.395111,0.32103 0.07408,0.14816 0.07408,0.29633 0,0.0988 -0.02469,0.19756 -0.123472,0.46919 -0.123472,0.889 0,0.59266 0.271638,1.08655 0.395112,0.69145 1.185334,0.96309 0.395111,0.12347 0.790222,0.12347 0.691444,0 1.407583,-0.39511 1.284111,-0.71614 2.00025,-2.46945 0.592667,-1.48166 0.592667,-2.93864 0,-1.58044 -0.740834,-3.1115 -1.382888,-2.83986 -4.716638,-3.90172 -1.160639,0.64206 -2.00025,2.04964 -1.259417,2.14842 -1.259417,5.43278 0,0.34572 0.0247,0.71614 l 0.04939,1.40758 q 0.197555,4.81542 0.197555,8.05039 0,4.09928 -0.321028,5.65503 -0.839611,4.07458 -3.309055,5.48216 -1.061861,0.59267 -2.321278,0.59267 -0.963083,0 -2.049638,-0.37042 -1.950861,-0.69144 -1.950861,-2.49414 l 0,-0.0494 q 0.02469,-0.889 0.567972,-1.62983 0.567972,-0.74083 1.407583,-0.98778 0.09878,-0.0247 0.197556,-0.0247 0.148166,0 0.296333,0.0741 0.246944,0.12347 0.321028,0.39511 0.02469,0.0988 0.02469,0.17286 0,0.17287 -0.07408,0.32103 -0.123472,0.24695 -0.395111,0.32103 -0.987778,0.29633 -1.012472,1.38289 l 0,0.0494 q 0,0.83961 1.037166,1.21003 0.864306,0.29633 1.629833,0.29633 0.913695,0 1.679223,-0.41981 1.926166,-1.11125 2.666999,-4.59316 0.296334,-1.40759 0.296334,-5.16114 0,-3.23497 -0.22225,-8.22325 l -0.04939,-1.40758 q -0.0247,-0.39512 -0.0247,-0.76553 0,-5.28461 2.88925,-7.85283 -0.66675,-0.0741 -1.3335,-0.0741 -2.469444,0 -4.889499,1.16064 -2.790472,1.3582 -3.728861,3.23497 -0.617361,1.28411 -0.642056,2.54353 l 0,0.0988 q 0,1.21003 0.567972,2.02494 0.642056,0.9137 1.654528,0.9137 0.172861,0 0.345722,-0.0247 1.210028,-0.12347 2.049639,-1.87678 0.617361,-1.23472 0.790222,-2.59291 0.04939,-0.27164 0.271639,-0.41981 0.197556,-0.14816 0.419806,-0.14816 l 0.04939,0 q 0.271638,0.0494 0.444499,0.27164 0.123473,0.14816 0.123473,0.34572 l 0,0.12347 q -0.197556,1.40758 -0.790222,2.74108 -1.160639,2.64231 -3.185584,2.86456 -0.271638,0.0247 -0.518583,0.0247 -1.703916,0 -2.741083,-1.45697 -0.814917,-1.16064 -0.814917,-2.76578 0,-1.62983 0.790223,-3.23497 1.358194,-2.71639 5.161138,-4.22275 2.420055,-0.96308 4.716639,-0.96308 1.580444,0 3.086805,0.4445 4.074583,1.18533 5.7785,4.66725 z"
         style="font-size:49.3888855px"
         id="path10570" />
    </g>
  </g>
</svg>
