<?xml version="1.0" encoding="UTF-8" standalone="no"?>
<!-- Created with Inkscape (http://www.inkscape.org/) -->

<svg
   xmlns:dc="http://purl.org/dc/elements/1.1/"
   xmlns:cc="http://creativecommons.org/ns#"
   xmlns:rdf="http://www.w3.org/1999/02/22-rdf-syntax-ns#"
   xmlns:svg="http://www.w3.org/2000/svg"
   xmlns="http://www.w3.org/2000/svg"
   xmlns:sodipodi="http://sodipodi.sourceforge.net/DTD/sodipodi-0.dtd"
   xmlns:inkscape="http://www.inkscape.org/namespaces/inkscape"
   width="55mm"
   height="55mm"
   viewBox="0 0 55 55"
   version="1.1"
   id="svg8"
   inkscape:version="0.91 r13725"
   sodipodi:docname="upper-j.svg">
  <defs
     id="defs2" />
  <sodipodi:namedview
     id="base"
     pagecolor="#ffffff"
     bordercolor="#666666"
     borderopacity="1.0"
     inkscape:pageopacity="0.0"
     inkscape:pageshadow="2"
     inkscape:zoom="1.4"
     inkscape:cx="-72.983922"
     inkscape:cy="43.63747"
     inkscape:document-units="mm"
     inkscape:current-layer="layer1"
     showgrid="false"
     inkscape:window-width="1440"
     inkscape:window-height="800"
     inkscape:window-x="0"
     inkscape:window-y="1"
     inkscape:window-maximized="1" />
  <metadata
     id="metadata5">
    <rdf:RDF>
      <cc:Work
         rdf:about="">
        <dc:format>image/svg+xml</dc:format>
        <dc:type
           rdf:resource="http://purl.org/dc/dcmitype/StillImage" />
        <dc:title />
      </cc:Work>
    </rdf:RDF>
  </metadata>
  <g
     inkscape:label="Calque 1"
     inkscape:groupmode="layer"
     id="layer1"
     transform="translate(0,-242)">
    <g
       style="font-style:normal;font-variant:normal;font-weight:normal;font-stretch:normal;font-size:63.49999619px;line-height:125%;font-family:Graphecrit;-inkscape-font-specification:Graphecrit;letter-spacing:0px;word-spacing:0px;fill:#000000;fill-opacity:1;stroke:none;stroke-width:1px;stroke-linecap:butt;stroke-linejoin:miter;stroke-opacity:1"
       id="text6642">
      <path
         d="m 31.547414,246.89599 q 0.642055,0.14817 1.210028,0.14817 0.592666,0 1.135944,-0.14817 0.889,-0.29633 0.889,-0.71613 l 0,-0.0741 q -0.07408,-0.29633 -0.4445,-0.51858 -0.321028,-0.17286 -0.716139,-0.17286 l -0.197556,0 q -1.086555,0.12347 -1.876777,1.48166 z m -2.173111,30.42356 q -1.456972,1.53105 -2.370667,3.21028 -2.197805,4.02519 -2.568222,7.77874 -0.04939,0.69145 -0.04939,1.3335 0,2.42006 0.889,3.97581 0.716139,1.23472 1.728611,1.25942 0.395111,0 0.716139,-0.32103 1.753306,-1.8027 1.753306,-11.92742 0,-2.42005 -0.09878,-5.3093 z m -2.395361,18.61961 q -1.753306,-0.0247 -2.839861,-1.92617 -1.061861,-1.778 -1.061861,-4.49439 0,-0.66675 0.07408,-1.38289 0.321028,-4.14866 2.691695,-8.47019 1.259416,-2.29658 3.457222,-4.37092 -0.0247,-0.96308 -0.04939,-1.50636 l -0.07408,-8.12447 q -0.04939,-4.0005 -0.197555,-11.31005 l 0,-0.83962 q 0,-3.75355 0.814916,-6.12422 -0.642055,-0.29633 -1.901472,-0.98777 -2.345972,-1.30881 -3.481916,-1.48167 -0.271639,-0.0494 -0.543278,-0.0494 -1.531055,0 -2.88925,1.30881 -1.234722,1.21002 -1.284111,2.96333 l 0,0.0988 q 0,1.40758 0.716139,2.74108 0.938389,1.70392 1.827389,1.70392 0.09878,0 0.197555,-0.0247 1.876778,-0.4445 2.790472,-3.43253 0.148167,-0.49388 0.543278,-0.49388 0.123472,0 0.271639,0.0494 0.493889,0.14817 0.493889,0.56798 0,0.12347 -0.04939,0.24694 -1.160639,3.75356 -3.753555,4.34622 -0.271639,0.0494 -0.518584,0.0494 -1.654527,0 -2.963333,-2.39536 -0.864305,-1.55575 -0.864305,-3.23497 0,-0.22225 0.02469,-0.4445 0.123472,-2.19781 1.654528,-3.67947 1.753305,-1.67923 3.728861,-1.67923 0.370416,0 0.716139,0.0494 1.407583,0.19756 4.025194,1.62984 1.185333,0.66675 1.778,0.93839 1.11125,-2.09903 2.938638,-2.32128 0.172861,-0.0247 0.321028,-0.0247 0.814917,0 1.481667,0.41981 0.814916,0.49389 1.012472,1.3335 0.04939,0.22225 0.04939,0.4445 0,1.25942 -1.827389,1.85208 -0.740833,0.24695 -1.531055,0.24695 -0.839612,0 -1.728611,-0.27164 -0.740834,2.14841 -0.740834,5.60564 l 0,0.83961 q 0.148167,7.33425 0.197556,11.35944 l 0.07408,8.09978 q 0.02469,0.29633 0.02469,0.4198 0.469194,-0.4198 1.185333,-0.98777 2.938638,-2.32128 3.605388,-3.1115 0.22225,-0.29634 0.493889,-0.29634 0.22225,0 0.4445,0.19756 0.271639,0.22225 0.271639,0.46919 0,0.22225 -0.197555,0.4445 -0.740834,0.9137 -3.77825,3.30906 -1.3335,1.06186 -1.975556,1.65453 0,0.12347 0.0247,0.34572 0.09878,3.03741 0.09878,5.60564 0,11.26066 -2.099028,13.40908 -0.716139,0.71614 -1.629833,0.71614 l -0.04939,0 z"
         style="font-size:49.3888855px"
         id="path4698" />
    </g>
  </g>
</svg>
