<?xml version="1.0" standalone="no"?>
<!DOCTYPE svg PUBLIC "-//W3C//DTD SVG 20010904//EN"
 "http://www.w3.org/TR/2001/REC-SVG-20010904/DTD/svg10.dtd" [
	<!ENTITY stroke_color "#010101">
	<!ENTITY fill_color "#FFFFFF">
]>
<svg version="1.0" xmlns="http://www.w3.org/2000/svg"
 width="1220.000000pt" height="1260.000000pt" viewBox="0 0 1400.000000 1400.000000"
 preserveAspectRatio="xMidYMid meet">
<metadata>
Created by potrace 1.15, written by Peter Selinger 2001-2017
</metadata>
<g transform="translate(90.000000,1290.000000) scale(0.100000,-0.100000)"
fill="&fill_color;" stroke="none">
<path stroke="&stroke_color;" stroke-width="600" d="M6210 12513 c-1 -57 -30 -587 -32 -589 -2 -1 -174 -7 -383 -13 -209
-6 -413 -14 -452 -17 l-73 -6 0 -197 0 -197 388 -12 c213 -7 417 -12 453 -12
l66 0 7 -227 c3 -126 7 -340 8 -477 l3 -249 -210 -106 c-220 -111 -295 -157
-391 -241 -234 -204 -443 -585 -513 -935 -34 -170 -45 -283 -44 -475 1 -223
19 -385 79 -699 42 -224 52 -301 37 -301 -10 0 -143 102 -333 255 -96 78 -220
175 -275 216 -719 538 -1497 878 -2170 949 -144 16 -422 13 -545 -4 -408 -58
-794 -216 -1063 -437 -93 -76 -261 -244 -330 -329 -193 -239 -362 -605 -419
-908 -18 -92 -18 -611 0 -707 27 -146 101 -367 184 -550 107 -234 257 -463
623 -949 460 -612 635 -873 932 -1386 l130 -225 27 -310 c15 -170 39 -436 53
-590 21 -218 26 -340 27 -550 0 -259 -2 -287 -47 -676 -26 -223 -47 -446 -47
-495 1 -157 40 -204 266 -321 811 -418 1818 -663 2979 -723 324 -17 1629 -24
2097 -11 946 26 1654 123 2334 320 486 141 1103 407 1243 535 86 80 88 138 25
679 -72 614 -72 650 12 1612 l46 529 100 175 c296 515 494 812 928 1391 386
515 524 723 646 975 80 166 117 267 159 435 53 214 60 269 59 480 0 211 -9
286 -56 480 -87 360 -257 666 -523 939 -298 306 -592 469 -1040 576 -294 69
-614 76 -950 19 -485 -82 -1046 -311 -1580 -647 -220 -138 -431 -293 -699
-511 -87 -71 -193 -153 -235 -184 l-76 -54 -3 36 c-2 20 11 109 28 198 75 390
90 515 90 783 0 485 -123 870 -386 1210 -139 181 -297 302 -566 433 l-157 77
0 488 -1 487 63 0 c34 0 232 5 440 12 l377 12 0 197 0 197 -62 6 c-35 3 -232
11 -438 17 -206 6 -377 13 -380 15 -4 5 -28 448 -29 547 l-1 47 -200 0 c-110
0 -200 -3 -200 -7z"/>
</g>
</svg>
