<?xml version="1.0" encoding="UTF-8" standalone="no"?>
<!-- Created with Inkscape (http://www.inkscape.org/) -->

<svg
   xmlns:dc="http://purl.org/dc/elements/1.1/"
   xmlns:cc="http://creativecommons.org/ns#"
   xmlns:rdf="http://www.w3.org/1999/02/22-rdf-syntax-ns#"
   xmlns:svg="http://www.w3.org/2000/svg"
   xmlns="http://www.w3.org/2000/svg"
   xmlns:sodipodi="http://sodipodi.sourceforge.net/DTD/sodipodi-0.dtd"
   xmlns:inkscape="http://www.inkscape.org/namespaces/inkscape"
   version="1.1"
   width="55"
   height="55"
   viewBox="0 0 55 55"
   id="svg2"
   xml:space="preserve"
   sodipodi:docname="pomodoro.svg"
   inkscape:version="0.92.2 5c3e80d, 2017-08-06"><sodipodi:namedview
     pagecolor="#ffffff"
     bordercolor="#666666"
     borderopacity="1"
     objecttolerance="10"
     gridtolerance="10"
     guidetolerance="10"
     inkscape:pageopacity="0"
     inkscape:pageshadow="2"
     inkscape:window-width="1440"
     inkscape:window-height="779"
     id="namedview62"
     showgrid="false"
     inkscape:pagecheckerboard="true"
     inkscape:zoom="5.1454545"
     inkscape:cx="-10.306547"
     inkscape:cy="44.848943"
     inkscape:window-x="0"
     inkscape:window-y="1"
     inkscape:window-maximized="1"
     inkscape:current-layer="svg2" /><metadata
     id="metadata21"><rdf:RDF><cc:Work
         rdf:about=""><dc:format>image/svg+xml</dc:format><dc:type
           rdf:resource="http://purl.org/dc/dcmitype/StillImage" /><dc:title></dc:title></cc:Work></rdf:RDF></metadata><defs
     id="defs19"><inkscape:path-effect
       effect="skeletal"
       id="path-effect4602"
       is_visible="true"
       pattern="m 16.227915,-4.7173145 c 0,-2.76 2.24,-5 5,-5 2.76,0 5,2.24 5,5 0,2.76 -2.24,5.00000001 -5,5.00000001 -2.76,0 -5,-2.24000001 -5,-5.00000001 z"
       copytype="single_stretched"
       prop_scale="1.0216175"
       scale_y_rel="false"
       spacing="0"
       normal_offset="0"
       tang_offset="0"
       prop_units="false"
       vertical_pattern="false"
       fuse_tolerance="0" /></defs><g
     id="g72"
     style="fill:#ff0060;fill-opacity:1"><g
       style="fill:#ff0060;fill-opacity:1"
       id="g9"><g
         style="fill:#ff0060;fill-opacity:1"
         id="g11"><path
           style="fill:#ff0060;fill-opacity:1"
           id="path13"
           d="M 27.496,5.051 C 15.036,5.07 4.952,15.155 4.93,27.618 4.952,40.08 15.036,50.164 27.496,50.185 39.961,50.164 50.045,40.081 50.064,27.619 50.045,15.155 39.961,5.07 27.496,5.051 z M 21.551,37.977 V 17.667 L 39.512,27.822 21.551,37.977 z" /></g></g><rect
       y="15.936396"
       x="16.130741"
       height="22.83569"
       width="26.23675"
       id="rect64"
       style="fill:#ff0060;fill-opacity:1" /></g><g
     transform="matrix(0.5545005,0.14216666,0.12226512,0.67730845,18.128233,-3.3645644)"
     id="g4632"><path
       style="fill:#0cce6b;fill-opacity:1;stroke:#0cce6b;stroke-width:0.09717315;stroke-opacity:1"
       d="M 9.1308318,9.7926927 C 6.2450427,9.8614339 3.4120485,10.289492 1.0488005,11.06613 c -2.7111016,0.890954 -4.2932896,2.101678 -4.5429686,3.41211 H 23.11716 C 23.086303,14.349771 23.051776,14.218469 22.998019,14.062224 22.517118,12.664459 20.552982,11.446761 17.531222,10.673552 14.955815,10.014556 12.016621,9.7239514 9.1308318,9.7926927 Z M 6.1738005,19.726287 c 0.684192,0.07398 1.3875268,0.126455 2.1054688,0.15625 0.374116,0.01553 0.8545783,0.03717 1.0683593,0.04687 0.4683954,0.02128 2.3432464,-0.09606 3.5820314,-0.203124 z"
       id="path4628"
       inkscape:connector-curvature="0" /><path
       style="fill:#0cce6b;fill-opacity:1;stroke:#0cce6b;stroke-width:0.09717315;stroke-opacity:1"
       d="m -3.6885143,13.506508 c 0.016735,0.280908 0.087042,0.564441 0.2265625,0.849609 1.045392,2.136705 5.8662345,3.831645 11.5703125,4.06836 0.374116,0.01553 0.8565315,0.03718 1.0703125,0.04687 0.5774074,0.02623 3.5754788,-0.158989 4.4687508,-0.275391 2.987109,-0.389246 5.75517,-1.240611 7.396485,-2.277344 0.593038,-0.374591 1.496093,-1.189055 1.496093,-1.349609 10e-7,-0.05041 0.108574,-0.23498 0.242188,-0.410156 0.152108,-0.199424 0.227908,-0.402041 0.232422,-0.652344 z"
       id="path4630"
       inkscape:connector-curvature="0" /></g><g
     id="g4618"
     transform="matrix(-0.55403766,0.14216666,-0.12216306,0.67730845,47.293377,-3.3645644)"><path
       inkscape:connector-curvature="0"
       id="path4608"
       d="M 9.1308318,9.7926927 C 6.2450427,9.8614339 3.4120485,10.289492 1.0488005,11.06613 c -2.7111016,0.890954 -4.2932896,2.101678 -4.5429686,3.41211 H 23.11716 C 23.086303,14.349771 23.051776,14.218469 22.998019,14.062224 22.517118,12.664459 20.552982,11.446761 17.531222,10.673552 14.955815,10.014556 12.016621,9.7239514 9.1308318,9.7926927 Z M 6.1738005,19.726287 c 0.684192,0.07398 1.3875268,0.126455 2.1054688,0.15625 0.374116,0.01553 0.8545783,0.03717 1.0683593,0.04687 0.4683954,0.02128 2.3432464,-0.09606 3.5820314,-0.203124 z"
       style="fill:#0cce6b;fill-opacity:1;stroke:#0cce6b;stroke-width:0.09717315;stroke-opacity:1" /><path
       inkscape:connector-curvature="0"
       id="path4604"
       d="m -3.6885143,13.506508 c 0.016735,0.280908 0.087042,0.564441 0.2265625,0.849609 1.045392,2.136705 5.8662345,3.831645 11.5703125,4.06836 0.374116,0.01553 0.8565315,0.03718 1.0703125,0.04687 0.5774074,0.02623 3.5754788,-0.158989 4.4687508,-0.275391 2.987109,-0.389246 5.75517,-1.240611 7.396485,-2.277344 0.593038,-0.374591 1.496093,-1.189055 1.496093,-1.349609 10e-7,-0.05041 0.108574,-0.23498 0.242188,-0.410156 0.152108,-0.199424 0.227908,-0.402041 0.232422,-0.652344 z"
       style="fill:#0cce6b;fill-opacity:1;stroke:#0cce6b;stroke-width:0.09717315;stroke-opacity:1" /></g></svg>