<?xml version="1.0" encoding="utf-8"?>
<!DOCTYPE svg PUBLIC "-//W3C//DTD SVG 1.1//EN" "http://www.w3.org/Graphics/SVG/1.1/DTD/svg11.dtd" [
  <!ENTITY fill_color "#FFFFFF">
  <!ENTITY stroke_color "#000000">
]>
<svg
   xmlns="http://www.w3.org/2000/svg"
   version="1.1"
   width="50"
   height="50"
   viewBox="0 0 50 50">
<path
   d="m 22.25607,16.76821 c 0,-3.658573 0,-7.3171466 0,-10.9757199 7.317147,0 14.634293,0 21.95144,0 0,5.4878599 0,10.9757199 0,16.4635799 -3.658573,0 -7.317147,0 -10.97572,0 0,-1.829287 0,-3.658573 0,-5.48786 1.829287,0 3.658573,0 5.48786,0 0,-1.829287 0,-3.658573 0,-5.48786 -3.658573,0 -7.317147,0 -10.97572,0 0,3.658573 0,7.317147 0,10.97572 -3.658573,0 -7.317147,0 -10.97572,0 0,3.658573 0,7.317147 0,10.97572 -1.829287,0 -3.658573,0 -5.48786,0 0,1.829287 0,3.658573 0,5.48786 3.658573,0 7.317147,0 10.97572,0 0,-3.658573 0,-7.317147 0,-10.97572 7.317147,0 14.634293,0 21.95144,0 0,5.48786 0,10.97572 0,16.46358 -1.829287,0 -3.658573,0 -5.48786,0 0,-3.658573 0,-7.317147 0,-10.97572 -3.658573,0 -7.317147,0 -10.97572,0 0,1.829287 0,3.658573 0,5.48786 1.829287,0 3.658573,0 5.48786,0 0,1.829287 0,3.658573 0,5.48786 0,0 -23.7807266,0 -27.4392999,0 0,-5.48786 0,-10.97572 0,-16.46358 1.8292866,0 3.6585733,0 5.4878599,0 0,-5.48786 0,-10.97572 0,-16.46358 -1.8292866,0 -3.6585733,0 -5.4878599,0 0,-1.8292866 0,-3.6585733 0,-5.4878599 3.6585733,0 7.3171469,0 10.9757199,0 0,3.6585733 0,7.3171469 0,10.9757199 1.829287,0 3.658573,0 5.48786,0 z"
   id="path3037"
   style="fill:&fill_color;;fill-opacity:1;stroke:&stroke_color;;stroke-width:2.5;stroke-linecap:square;stroke-linejoin:miter;stroke-miterlimit:4;stroke-opacity:1;stroke-dasharray:none" /></svg>