<?xml version="1.0" encoding="UTF-8" standalone="no"?>
<svg
   xmlns:dc="http://purl.org/dc/elements/1.1/"
   xmlns:cc="http://creativecommons.org/ns#"
   xmlns:rdf="http://www.w3.org/1999/02/22-rdf-syntax-ns#"
   xmlns:svg="http://www.w3.org/2000/svg"
   xmlns="http://www.w3.org/2000/svg"
   id="svg2"
   height="151.1241"
   width="522"
   version="1.1">
  <metadata
     id="metadata117">
    <rdf:RDF>
      <cc:Work
         rdf:about="">
        <dc:format>image/svg+xml</dc:format>
        <dc:type
           rdf:resource="http://purl.org/dc/dcmitype/StillImage" />
        <dc:title></dc:title>
      </cc:Work>
    </rdf:RDF>
  </metadata>
  <defs
     id="defs115">
    <filter
       style="color-interpolation-filters:sRGB"
       height="1.3"
       id="dropshadow">
      <feGaussianBlur
         id="feGaussianBlur7"
         stdDeviation="3"
         in="SourceAlpha" />
      <feOffset
         id="feOffset9"
         result="offsetblur"
         dy="2"
         dx="2" />
      <feComponentTransfer
         id="feComponentTransfer11">
        <feFuncA
           id="feFuncA13"
           slope="0.2"
           type="linear" />
      </feComponentTransfer>
      <feMerge
         id="feMerge15">
        <feMergeNode
           id="feMergeNode17" />
        <feMergeNode
           id="feMergeNode19"
           in="SourceGraphic" />
      </feMerge>
    </filter>
    <filter
       style="color-interpolation-filters:sRGB"
       height="1.3"
       id="dropshadow-4">
      <feGaussianBlur
         id="feGaussianBlur7-6"
         stdDeviation="3"
         in="SourceAlpha" />
      <feOffset
         id="feOffset9-3"
         result="offsetblur"
         dy="2"
         dx="2" />
      <feComponentTransfer
         id="feComponentTransfer11-4">
        <feFuncA
           id="feFuncA13-8"
           slope="0.2"
           type="linear" />
      </feComponentTransfer>
      <feMerge
         id="feMerge15-8">
        <feMergeNode
           id="feMergeNode17-9" />
        <feMergeNode
           id="feMergeNode19-0"
           in="SourceGraphic" />
      </feMerge>
    </filter>
    <filter
       style="color-interpolation-filters:sRGB"
       height="1.3"
       id="dropshadow-9">
      <feGaussianBlur
         in="SourceAlpha"
         stdDeviation="3"
         id="feGaussianBlur7-2" />
      <feOffset
         dx="2"
         dy="2"
         result="offsetblur"
         id="feOffset9-9" />
      <feComponentTransfer
         id="feComponentTransfer11-3">
        <feFuncA
           type="linear"
           slope="0.2"
           id="feFuncA13-3" />
      </feComponentTransfer>
      <feMerge
         id="feMerge15-7">
        <feMergeNode
           id="feMergeNode17-7" />
        <feMergeNode
           in="SourceGraphic"
           id="feMergeNode19-6" />
      </feMerge>
    </filter>
    <filter
       style="color-interpolation-filters:sRGB"
       height="1.3"
       id="dropshadow-0">
      <feGaussianBlur
         in="SourceAlpha"
         stdDeviation="3"
         id="feGaussianBlur3083" />
      <feOffset
         dx="2"
         dy="2"
         result="offsetblur"
         id="feOffset3085" />
      <feComponentTransfer
         id="feComponentTransfer3087">
        <feFuncA
           type="linear"
           slope="0.2"
           id="feFuncA3089" />
      </feComponentTransfer>
      <feMerge
         id="feMerge3091">
        <feMergeNode
           id="feMergeNode3093" />
        <feMergeNode
           in="SourceGraphic"
           id="feMergeNode3095" />
      </feMerge>
    </filter>
    <filter
       style="color-interpolation-filters:sRGB"
       height="1.3"
       id="dropshadow-6">
      <feGaussianBlur
         id="feGaussianBlur3576"
         stdDeviation="3"
         in="SourceAlpha" />
      <feOffset
         id="feOffset3578"
         result="offsetblur"
         dy="2"
         dx="2" />
      <feComponentTransfer
         id="feComponentTransfer3580">
        <feFuncA
           id="feFuncA3582"
           slope="0.2"
           type="linear" />
      </feComponentTransfer>
      <feMerge
         id="feMerge3584">
        <feMergeNode
           id="feMergeNode3586" />
        <feMergeNode
           id="feMergeNode3588"
           in="SourceGraphic" />
      </feMerge>
    </filter>
    <filter
       style="color-interpolation-filters:sRGB"
       height="1.3"
       id="dropshadow-2">
      <feGaussianBlur
         id="feGaussianBlur7-0"
         stdDeviation="3"
         in="SourceAlpha" />
      <feOffset
         id="feOffset9-7"
         result="offsetblur"
         dy="2"
         dx="2" />
      <feComponentTransfer
         id="feComponentTransfer11-0">
        <feFuncA
           id="feFuncA13-87"
           slope="0.2"
           type="linear" />
      </feComponentTransfer>
      <feMerge
         id="feMerge15-1">
        <feMergeNode
           id="feMergeNode17-2" />
        <feMergeNode
           id="feMergeNode19-4"
           in="SourceGraphic" />
      </feMerge>
    </filter>
    <filter
       style="color-interpolation-filters:sRGB"
       height="1.3"
       id="dropshadow-8">
      <feGaussianBlur
         in="SourceAlpha"
         stdDeviation="3"
         id="feGaussianBlur3013" />
      <feOffset
         dx="2"
         dy="2"
         result="offsetblur"
         id="feOffset3015" />
      <feComponentTransfer
         id="feComponentTransfer3017">
        <feFuncA
           type="linear"
           slope="0.2"
           id="feFuncA3019" />
      </feComponentTransfer>
      <feMerge
         id="feMerge3021">
        <feMergeNode
           id="feMergeNode3023" />
        <feMergeNode
           in="SourceGraphic"
           id="feMergeNode3025" />
      </feMerge>
    </filter>
    <filter
       style="color-interpolation-filters:sRGB"
       height="1.3"
       id="dropshadow-92">
      <feGaussianBlur
         in="SourceAlpha"
         stdDeviation="3"
         id="feGaussianBlur7-5" />
      <feOffset
         dx="2"
         dy="2"
         result="offsetblur"
         id="feOffset9-2" />
      <feComponentTransfer
         id="feComponentTransfer11-9">
        <feFuncA
           type="linear"
           slope="0.2"
           id="feFuncA13-4" />
      </feComponentTransfer>
      <feMerge
         id="feMerge15-0">
        <feMergeNode
           id="feMergeNode17-4" />
        <feMergeNode
           in="SourceGraphic"
           id="feMergeNode19-00" />
      </feMerge>
    </filter>
    <filter
       style="color-interpolation-filters:sRGB"
       height="1.3"
       id="dropshadow-88">
      <feGaussianBlur
         in="SourceAlpha"
         stdDeviation="3"
         id="feGaussianBlur3013-0" />
      <feOffset
         dx="2"
         dy="2"
         result="offsetblur"
         id="feOffset3015-5" />
      <feComponentTransfer
         id="feComponentTransfer3017-9">
        <feFuncA
           type="linear"
           slope="0.2"
           id="feFuncA3019-0" />
      </feComponentTransfer>
      <feMerge
         id="feMerge3021-0">
        <feMergeNode
           id="feMergeNode3023-2" />
        <feMergeNode
           in="SourceGraphic"
           id="feMergeNode3025-7" />
      </feMerge>
    </filter>
    <filter
       style="color-interpolation-filters:sRGB"
       height="1.3"
       id="dropshadow-1">
      <feGaussianBlur
         in="SourceAlpha"
         stdDeviation="3"
         id="feGaussianBlur3211" />
      <feOffset
         dx="2"
         dy="2"
         result="offsetblur"
         id="feOffset3213" />
      <feComponentTransfer
         id="feComponentTransfer3215">
        <feFuncA
           type="linear"
           slope="0.2"
           id="feFuncA3217" />
      </feComponentTransfer>
      <feMerge
         id="feMerge3219">
        <feMergeNode
           id="feMergeNode3221" />
        <feMergeNode
           in="SourceGraphic"
           id="feMergeNode3223" />
      </feMerge>
    </filter>
    <filter
       style="color-interpolation-filters:sRGB"
       height="1.3"
       id="dropshadow-9-5">
      <feGaussianBlur
         in="SourceAlpha"
         stdDeviation="3"
         id="feGaussianBlur3052" />
      <feOffset
         dx="2"
         dy="2"
         result="offsetblur"
         id="feOffset3054" />
      <feComponentTransfer
         id="feComponentTransfer3056">
        <feFuncA
           type="linear"
           slope="0.2"
           id="feFuncA3058" />
      </feComponentTransfer>
      <feMerge
         id="feMerge3060">
        <feMergeNode
           id="feMergeNode3062" />
        <feMergeNode
           in="SourceGraphic"
           id="feMergeNode3064" />
      </feMerge>
    </filter>
    <filter
       style="color-interpolation-filters:sRGB"
       height="1.3"
       id="dropshadow-7">
      <feGaussianBlur
         in="SourceAlpha"
         stdDeviation="3"
         id="feGaussianBlur3141" />
      <feOffset
         dx="2"
         dy="2"
         result="offsetblur"
         id="feOffset3143" />
      <feComponentTransfer
         id="feComponentTransfer3145">
        <feFuncA
           type="linear"
           slope="0.2"
           id="feFuncA3147" />
      </feComponentTransfer>
      <feMerge
         id="feMerge3149">
        <feMergeNode
           id="feMergeNode3151" />
        <feMergeNode
           in="SourceGraphic"
           id="feMergeNode3153" />
      </feMerge>
    </filter>
    <filter
       style="color-interpolation-filters:sRGB"
       height="1.3"
       id="dropshadow-18">
      <feGaussianBlur
         in="SourceAlpha"
         stdDeviation="3"
         id="feGaussianBlur3611" />
      <feOffset
         dx="2"
         dy="2"
         result="offsetblur"
         id="feOffset3613" />
      <feComponentTransfer
         id="feComponentTransfer3615">
        <feFuncA
           type="linear"
           slope="0.2"
           id="feFuncA3617" />
      </feComponentTransfer>
      <feMerge
         id="feMerge3619">
        <feMergeNode
           id="feMergeNode3621" />
        <feMergeNode
           in="SourceGraphic"
           id="feMergeNode3623" />
      </feMerge>
    </filter>
    <filter
       style="color-interpolation-filters:sRGB"
       height="1.3"
       id="dropshadow-2-0">
      <feGaussianBlur
         in="SourceAlpha"
         stdDeviation="3"
         id="feGaussianBlur3100" />
      <feOffset
         dx="2"
         dy="2"
         result="offsetblur"
         id="feOffset3102" />
      <feComponentTransfer
         id="feComponentTransfer3104">
        <feFuncA
           type="linear"
           slope="0.2"
           id="feFuncA3106" />
      </feComponentTransfer>
      <feMerge
         id="feMerge3108">
        <feMergeNode
           id="feMergeNode3110" />
        <feMergeNode
           in="SourceGraphic"
           id="feMergeNode3112" />
      </feMerge>
    </filter>
    <filter
       style="color-interpolation-filters:sRGB"
       height="1.3"
       id="dropshadow-8-2">
      <feGaussianBlur
         in="SourceAlpha"
         stdDeviation="3"
         id="feGaussianBlur7-00" />
      <feOffset
         dx="2"
         dy="2"
         result="offsetblur"
         id="feOffset9-0" />
      <feComponentTransfer
         id="feComponentTransfer11-5">
        <feFuncA
           type="linear"
           slope="0.2"
           id="feFuncA13-6" />
      </feComponentTransfer>
      <feMerge
         id="feMerge15-3">
        <feMergeNode
           id="feMergeNode17-1" />
        <feMergeNode
           in="SourceGraphic"
           id="feMergeNode19-64" />
      </feMerge>
    </filter>
    <filter
       style="color-interpolation-filters:sRGB"
       height="1.3"
       id="dropshadow-4-9">
      <feGaussianBlur
         in="SourceAlpha"
         stdDeviation="3"
         id="feGaussianBlur7-6-2" />
      <feOffset
         dx="2"
         dy="2"
         result="offsetblur"
         id="feOffset9-7-0" />
      <feComponentTransfer
         id="feComponentTransfer11-9-4">
        <feFuncA
           type="linear"
           slope="0.2"
           id="feFuncA13-2" />
      </feComponentTransfer>
      <feMerge
         id="feMerge15-8-2">
        <feMergeNode
           id="feMergeNode17-4-1" />
        <feMergeNode
           in="SourceGraphic"
           id="feMergeNode19-4-3" />
      </feMerge>
    </filter>
  </defs>
  <text
     style="font-size:13.33333302px;font-family:Sans;text-anchor:end;fill:#000000"
     id="text3033"
     y="-2.339462"
     x="-42">
    <tspan
       id="tspan3035"
       y="20.160538"
       x="60" />
  </text>
  <text
     style="font-size:13.33333302px;font-family:Sans;text-anchor:end;fill:#000000"
     id="text3107"
     y="62.624115"
     x="-24">
    <tspan
       id="tspan3109"
       y="85.124115"
       x="70" />
  </text>
  <text
     style="font-size:13.33333302px;font-family:Sans;text-anchor:end;fill:#000000"
     id="text3033-0"
     y="81.660522"
     x="-42">
    <tspan
       id="tspan3035-1"
       y="104.16052"
       x="60" />
  </text>
  <text
     style="font-size:13.33333302px;font-family:Sans;text-anchor:end;fill:#000000"
     id="text3033-1"
     y="165.66052"
     x="-42">
    <tspan
       id="tspan3035-8"
       y="188.16052"
       x="60" />
  </text>
  <text
     style="font-size:13.33333302px;font-family:Sans;text-anchor:end;fill:#000000"
     id="text3033-0-9"
     y="249.66052"
     x="-42">
    <tspan
       id="tspan3035-1-5"
       y="272.16052"
       x="60" />
  </text>
  <text
     style="font-size:13.33333302px;font-family:Sans;text-anchor:end;fill:#000000"
     id="text3033-19"
     y="-22.910049"
     x="-616.55554">
    <tspan
       id="tspan3035-6"
       y="-0.41001868"
       x="-514.55554" />
  </text>
  <text
     y="104.62411"
     x="-304"
     id="text3107-2"
     style="font-size:13.33333302px;font-family:Sans;text-anchor:end;fill:#000000">
    <tspan
       x="-210"
       y="127.12411"
       id="tspan3109-8" />
  </text>
  <text
     style="font-size:13.33333302px;font-family:Sans;text-anchor:end;fill:#000000"
     id="text3033-0-93"
     y="61.089951"
     x="-616.55554">
    <tspan
       id="tspan3035-1-3"
       y="83.589935"
       x="-514.55554" />
  </text>
  <text
     style="font-size:13.33333302px;font-family:Sans;text-anchor:end;fill:#000000"
     id="text3033-1-6"
     y="145.08994"
     x="-616.55554">
    <tspan
       id="tspan3035-8-9"
       y="167.58995"
       x="-514.55554" />
  </text>
  <text
     style="font-size:13.33333302px;font-family:Sans;text-anchor:end;fill:#000000"
     id="text3033-0-9-1"
     y="229.08997"
     x="-616.55554">
    <tspan
       id="tspan3035-1-5-0"
       y="251.58997"
       x="-514.55554" />
  </text>
  <text
     y="20.6241"
     x="-304"
     id="text3103-7"
     style="font-size:13.33333302px;font-family:Sans;text-anchor:end;fill:#000000">
    <tspan
       x="-186"
       y="43.1241"
       id="tspan3105-5" />
  </text>
  <text
     style="font-size:13.33333302px;font-family:Sans;text-anchor:end;fill:#000000"
     id="text3033-14"
     y="-286.5452"
     x="-93.411499">
    <tspan
       id="tspan3035-2"
       y="-264.0452"
       x="8.5885315" />
  </text>
  <text
     style="font-size:13.33333302px;font-family:Sans;text-anchor:end;fill:#000000"
     id="text3107-8"
     y="-221.58162"
     x="-75.411469">
    <tspan
       id="tspan3109-4"
       y="-199.08162"
       x="18.588531" />
  </text>
  <text
     style="font-size:13.33333302px;font-family:Sans;text-anchor:end;fill:#000000"
     id="text3033-0-7"
     y="-202.54521"
     x="-93.411499">
    <tspan
       id="tspan3035-1-4"
       y="-180.04521"
       x="8.5885315" />
  </text>
  <text
     style="font-size:13.33333302px;font-family:Sans;text-anchor:end;fill:#000000"
     id="text3033-1-2"
     y="-118.54521"
     x="-93.411499">
    <tspan
       id="tspan3035-8-0"
       y="-96.045242"
       x="8.5885315" />
  </text>
  <text
     style="font-size:13.33333302px;font-family:Sans;text-anchor:end;fill:#000000"
     id="text3033-0-9-8"
     y="-34.545242"
     x="-93.411499">
    <tspan
       id="tspan3035-1-5-9"
       y="-12.045242"
       x="8.5885315" />
  </text>
  <text
     style="font-size:13.33333302px;font-family:Sans;text-anchor:end;fill:#000000"
     id="text3033-19-8"
     y="-307.11578"
     x="-667.96704">
    <tspan
       id="tspan3035-6-5"
       y="-284.61575"
       x="-565.96704" />
  </text>
  <text
     style="font-size:13.33333302px;font-family:Sans;text-anchor:end;fill:#000000"
     id="text3033-0-93-5"
     y="-223.1158"
     x="-667.96704">
    <tspan
       id="tspan3035-1-3-5"
       y="-200.6158"
       x="-565.96704" />
  </text>
  <text
     style="font-size:13.33333302px;font-family:Sans;text-anchor:end;fill:#000000"
     id="text3033-1-6-1"
     y="-139.1158"
     x="-667.96704">
    <tspan
       id="tspan3035-8-9-9"
       y="-116.6158"
       x="-565.96704" />
  </text>
  <text
     style="font-size:13.33333302px;font-family:Sans;text-anchor:end;fill:#000000"
     id="text3033-0-9-1-7"
     y="-55.115799"
     x="-667.96704">
    <tspan
       id="tspan3035-1-5-0-1"
       y="-32.615799"
       x="-565.96704" />
  </text>
  <text
     style="font-size:13.33333302px;font-family:Sans;text-anchor:end;fill:#000000"
     id="text3033-9"
     y="391.49304"
     x="-133.71771">
    <tspan
       id="tspan3035-5"
       y="413.99304"
       x="-31.717712" />
  </text>
  <text
     style="font-size:13.33333302px;font-family:Sans;text-anchor:end;fill:#000000"
     id="text3107-3"
     y="456.45667"
     x="-115.71771">
    <tspan
       id="tspan3109-1"
       y="478.95667"
       x="-21.717712" />
  </text>
  <text
     style="font-size:13.33333302px;font-family:Sans;text-anchor:end;fill:#000000"
     id="text3033-0-98"
     y="475.49304"
     x="-133.71771">
    <tspan
       id="tspan3035-1-1"
       y="497.99304"
       x="-31.717712" />
  </text>
  <text
     style="font-size:13.33333302px;font-family:Sans;text-anchor:end;fill:#000000"
     id="text3033-1-7"
     y="559.49304"
     x="-133.71771">
    <tspan
       id="tspan3035-8-6"
       y="581.99304"
       x="-31.717712" />
  </text>
  <text
     style="font-size:13.33333302px;font-family:Sans;text-anchor:end;fill:#000000"
     id="text3033-0-9-10"
     y="643.49304"
     x="-133.71771">
    <tspan
       id="tspan3035-1-5-2"
       y="665.99304"
       x="-31.717712" />
  </text>
  <text
     style="font-size:13.33333302px;font-family:Sans;text-anchor:end;fill:#000000"
     id="text3033-19-0"
     y="370.92249"
     x="-708.27325">
    <tspan
       id="tspan3035-6-0"
       y="393.42249"
       x="-606.27325" />
  </text>
  <text
     style="font-size:13.33333302px;font-family:Sans;text-anchor:end;fill:#000000"
     id="text3033-0-93-8"
     y="454.92249"
     x="-708.27325">
    <tspan
       id="tspan3035-1-3-8"
       y="477.42249"
       x="-606.27325" />
  </text>
  <text
     style="font-size:13.33333302px;font-family:Sans;text-anchor:end;fill:#000000"
     id="text3033-1-6-2"
     y="538.92249"
     x="-708.27325">
    <tspan
       id="tspan3035-8-9-5"
       y="561.42249"
       x="-606.27325" />
  </text>
  <text
     style="font-size:13.33333302px;font-family:Sans;text-anchor:end;fill:#000000"
     id="text3033-0-9-1-6"
     y="622.92249"
     x="-708.27325">
    <tspan
       id="tspan3035-1-5-0-0"
       y="645.42249"
       x="-606.27325" />
  </text>
  <text
     style="font-size:13.33333302px;font-family:Sans;text-anchor:end;fill:#000000"
     id="text3033-10"
     y="-119.09546"
     x="-839.60291">
    <tspan
       id="tspan3035-23"
       y="-96.595459"
       x="-737.60291" />
  </text>
  <text
     style="font-size:13.33333302px;font-family:Sans;text-anchor:end;fill:#000000"
     id="text3107-5"
     y="-54.131866"
     x="-821.60291">
    <tspan
       id="tspan3109-6"
       y="-31.631866"
       x="-727.60291" />
  </text>
  <text
     style="font-size:13.33333302px;font-family:Sans;text-anchor:end;fill:#000000"
     id="text3033-0-8"
     y="-35.095459"
     x="-839.60291">
    <tspan
       id="tspan3035-1-36"
       y="-12.595459"
       x="-737.60291" />
  </text>
  <text
     style="font-size:13.33333302px;font-family:Sans;text-anchor:end;fill:#000000"
     id="text3033-1-0"
     y="48.904541"
     x="-839.60291">
    <tspan
       id="tspan3035-8-61"
       y="71.404526"
       x="-737.60291" />
  </text>
  <text
     style="font-size:13.33333302px;font-family:Sans;text-anchor:end;fill:#000000"
     id="text3033-0-9-9"
     y="132.90454"
     x="-839.60291">
    <tspan
       id="tspan3035-1-5-8"
       y="155.40454"
       x="-737.60291" />
  </text>
  <text
     style="font-size:13.33333302px;font-family:Sans;text-anchor:end;fill:#000000"
     id="text3033-6"
     y="366.25861"
     x="-780.69385">
    <tspan
       id="tspan3035-7"
       y="388.75861"
       x="-678.69379" />
  </text>
  <text
     style="font-size:13.33333302px;font-family:Sans;text-anchor:end;fill:#000000"
     id="text3107-87"
     y="431.22223"
     x="-762.69379">
    <tspan
       id="tspan3109-0"
       y="453.72217"
       x="-668.69379" />
  </text>
  <text
     style="font-size:13.33333302px;font-family:Sans;text-anchor:end;fill:#000000"
     id="text3033-0-6"
     y="450.25861"
     x="-780.69385">
    <tspan
       id="tspan3035-1-12"
       y="472.75861"
       x="-678.69379" />
  </text>
  <text
     style="font-size:13.33333302px;font-family:Sans;text-anchor:end;fill:#000000"
     id="text3033-1-8"
     y="534.25861"
     x="-780.69385">
    <tspan
       id="tspan3035-8-7"
       y="556.75861"
       x="-678.69379" />
  </text>
  <text
     style="font-size:13.33333302px;font-family:Sans;text-anchor:end;fill:#000000"
     id="text3033-0-9-87"
     y="618.25861"
     x="-780.69385">
    <tspan
       id="tspan3035-1-5-00"
       y="640.75861"
       x="-678.69379" />
  </text>
  <text
     style="font-size:13.33333302px;font-family:Sans;text-anchor:end;fill:#000000"
     id="text3033-3"
     y="242.08871"
     x="-894.93823">
    <tspan
       id="tspan3035-0"
       y="264.58871"
       x="-792.93835" />
  </text>
  <text
     style="font-size:13.33333302px;font-family:Sans;text-anchor:end;fill:#000000"
     id="text3107-4"
     y="307.05228"
     x="-876.93823">
    <tspan
       id="tspan3109-2"
       y="329.55228"
       x="-782.93835" />
  </text>
  <text
     style="font-size:13.33333302px;font-family:Sans;text-anchor:end;fill:#000000"
     id="text3033-0-0"
     y="326.08871"
     x="-894.93823">
    <tspan
       id="tspan3035-1-6"
       y="348.58871"
       x="-792.93835" />
  </text>
  <text
     style="font-size:13.33333302px;font-family:Sans;text-anchor:end;fill:#000000"
     id="text3033-1-9"
     y="410.08868"
     x="-894.93823">
    <tspan
       id="tspan3035-8-2"
       y="432.58868"
       x="-792.93835" />
  </text>
  <text
     style="font-size:13.33333302px;font-family:Sans;text-anchor:end;fill:#000000"
     id="text3033-0-9-6"
     y="494.08868"
     x="-894.93823">
    <tspan
       id="tspan3035-1-5-06"
       y="516.58868"
       x="-792.93835" />
  </text>
  <path
     d="m 401,55.6241 120,0 0,40 -120,0 0,-16 0,-2 -12,0 0,6 -4,0 0,-16 4,0 0,6 12,0 0,-2 z"
     id="path21-2"
     style="fill:#7bbbb8;fill-opacity:1;stroke:#4c8585;stroke-width:2;stroke-linecap:round;stroke-opacity:1" />
  <path
     d="m 1,29.56205 0,-8 c 0,-4.18879 3.81121,-8 8,-8 l 8,0 10,-12.0000001 10,12.0000001 18,0 60,0 8,0 c 4.18879,0 8,3.81121 8,8 l 0,8 0,8 0,8 c 0,4.18879 -3.81121,8 -8,8 l -8,0 -60,0 -2,0 0,4 -16,0 0,-4 -2,0 -8,0 c -2.61799,0 -5.21987,1.07773 -7.07107,2.92893 C 18.07773,58.34218 17,60.94406 17,63.56205 l 0,8 0,8 0,8 c 0,2.61799 1.07773,5.21987 2.92893,7.07107 1.8512,1.8512 4.45307,2.92893 7.07107,2.92893 l 8,0 0,4 20,0 0,-4 16,0 0,12 0,12 0,8 c 0,4.18879 -3.93628,6.98407 -8,8 l -8,0 -18,0 -10,12 -10,-12 -8,0 c -4.18879,0 -8,-3.81121 -8,-8 l 0,-8 z"
     id="path3660"
     style="fill:#ffc000;fill-opacity:1;stroke:#c48d00;stroke-width:2;stroke-linecap:round;stroke-opacity:1" />
  <text
     y="0.56205773"
     x="0"
     id="text3662"
     style="font-size:20px;font-family:Sans;text-anchor:start;fill:#000000">
    <tspan
       x="8"
       y="43.562057"
       id="tspan3664">iniciar</tspan>
  </text>
  <g
     id="g3037"
     transform="translate(0.42223,-0.57072002)">
    <path
       style="fill:#eeeeee;stroke:#ff0000;stroke-width:1.75;stroke-linecap:round;stroke-linejoin:round;stroke-miterlimit:4;stroke-dasharray:none;stroke-opacity:1"
       id="path4206"
       d="m 111.37629,42.473009 c -0.24354,0 -0.48399,-0.01591 -0.72092,-0.04546 l 0.61126,1.067795 0.60246,-1.051431 c -0.16339,0.01364 -0.32633,0.02909 -0.4928,0.02909 z" />
    <g
       style="fill:#ff8080;fill-opacity:1;stroke:#ff0000;stroke-width:3.91126204;stroke-linecap:round;stroke-linejoin:round;stroke-miterlimit:4;stroke-dasharray:none;stroke-opacity:1"
       id="g4208"
       transform="matrix(0.44038997,0,0,0.45457429,99.266887,20.526617)">
      <path
         style="fill:#ff8080;fill-opacity:1;stroke:#ff0000;stroke-width:3.91126204;stroke-miterlimit:4;stroke-dasharray:none;stroke-opacity:1"
         id="path4210"
         d="m 40.16,11.726 c -2.164,0 -3.958,1.555 -4.343,3.607 1.859,1.345 3.457,3.115 4.675,5.208 2.285,-0.172 4.094,-2.061 4.094,-4.39 0,-2.444 -1.982,-4.425 -4.426,-4.425 z" />
      <path
         style="fill:#ff8080;fill-opacity:1;stroke:#ff0000;stroke-width:3.91126204;stroke-miterlimit:4;stroke-dasharray:none;stroke-opacity:1"
         id="path4212"
         d="m 40.713,39.887 c -1.224,2.232 -2.86,4.131 -4.797,5.556 0.521,1.864 2.213,3.239 4.244,3.239 2.443,0 4.426,-1.98 4.426,-4.424 0,-2.255 -1.693,-4.096 -3.873,-4.371 z" />
      <path
         style="fill:#ff8080;fill-opacity:1;stroke:#ff0000;stroke-width:3.91126204;stroke-miterlimit:4;stroke-dasharray:none;stroke-opacity:1"
         id="path4214"
         d="m 14.273,39.871 c -2.253,0.206 -4.024,2.079 -4.024,4.387 0,2.443 1.98,4.424 4.424,4.424 2.064,0 3.784,-1.42 4.272,-3.332 -1.883,-1.416 -3.475,-3.289 -4.672,-5.479 z" />
      <path
         style="fill:#ff8080;fill-opacity:1;stroke:#ff0000;stroke-width:3.91126204;stroke-miterlimit:4;stroke-dasharray:none;stroke-opacity:1"
         id="path4216"
         d="m 19.026,15.437 c -0.343,-2.103 -2.154,-3.711 -4.353,-3.711 -2.444,0 -4.424,1.981 -4.424,4.424 0,2.382 1.886,4.31 4.245,4.406 1.186,-2.043 2.732,-3.784 4.532,-5.119 z" />
    </g>
    <path
       style="fill:#ff8080;fill-opacity:1;stroke:#ff0000;stroke-width:1.75;stroke-linecap:round;stroke-linejoin:round;stroke-miterlimit:4;stroke-dasharray:none;stroke-opacity:1"
       id="path4218"
       d="m 111.37629,26.237434 c 0.84026,0 1.64177,0.18683 2.38603,0.51276 0.32633,-0.489122 0.51878,-1.080523 0.51878,-1.719655 0,-1.676015 -1.31632,-3.035192 -2.94048,-3.035192 -1.62372,0 -2.94005,1.359177 -2.94005,3.035192 0,0.649132 0.19906,1.249625 0.53552,1.742838 0.75923,-0.340476 1.57968,-0.535943 2.4402,-0.535943 z" />
    <g
       style="fill:#ff8080;fill-opacity:1;stroke:#ff0000;stroke-width:3.91126204;stroke-linecap:round;stroke-linejoin:round;stroke-miterlimit:4;stroke-dasharray:none;stroke-opacity:1"
       id="g4220"
       transform="matrix(0.44038997,0,0,0.45457429,99.266887,20.526617)">
      <path
         style="fill:#ff8080;fill-opacity:1;stroke:#ff0000;stroke-width:3.91126204;stroke-miterlimit:4;stroke-dasharray:none;stroke-opacity:1"
         id="path4222"
         d="m 43.102,30.421 c 0,4.7344 -1.6452,9.2798 -4.5706,12.6275 -2.9254,3.3478 -6.8973,5.2305 -11.0344,5.2305 -4.1371,0 -8.109,-1.8827 -11.0344,-5.2305 -2.9254,-3.3477 -4.5706,-7.8931 -4.5706,-12.6275 0,-9.7966 7.0444,-17.858 15.605,-17.858 8.5606,0 15.605,8.0614 15.605,17.858 z" />
    </g>
    <g
       style="fill:#ff0000;fill-opacity:1;stroke:none"
       id="g4224"
       transform="matrix(0.44038997,0,0,0.45457429,99.266887,20.526617)">
      <path
         style="fill:#ff0000;fill-opacity:1;stroke:none"
         id="path4226"
         d="m 25.875,33.75 -1.542,-4.625 3.164,-2.587 3.615,2.626 -1.487,4.669 z" />
      <path
         style="fill:#ff0000;fill-opacity:1;stroke:none"
         id="path4228"
         d="m 27.501,41.551 c -3.968,-0.16 -5.543,-2.009 -5.543,-2.009 l 3.57,-4.163 4.465,0.168 3.132,4.12 c 0,0 -2.89,1.994 -5.624,1.884 z" />
      <path
         style="fill:#ff0000;fill-opacity:1;stroke:none"
         id="path4230"
         d="m 18.453,33.843 c -0.849,-2.968 0.172,-6.884 0.172,-6.884 l 4,2.167 1.493,4.629 -3.582,4.233 c 0,-10e-4 -1.465,-1.99 -2.083,-4.145 z" />
      <path
         style="fill:#ff0000;fill-opacity:1;stroke:none"
         id="path4232"
         d="m 19.458,25.125 c 0,0 0.5,-1.958 3.039,-3.822 2.237,-1.643 4.465,-1.72 4.465,-1.72 l -0.037,4.981 -3.521,2.75 -3.946,-2.189 z" />
      <path
         style="fill:#ff0000;fill-opacity:1;stroke:none"
         id="path4234"
         d="M 32.084,27.834 28.625,24.959 29,19.75 c 0,0 1.834,-0.042 3.959,1.667 2.228,1.791 3.362,4.983 3.362,4.983 l -4.237,1.434 z" />
      <path
         style="fill:#ff0000;fill-opacity:1;stroke:none"
         id="path4236"
         d="m 31.292,34.042 1.313,-4.464 4.187,-1.536 c 0,0 0.677,2.663 -0.042,5.667 -0.54,2.256 -2.084,4.361 -2.084,4.361 l -3.374,-4.028 z" />
    </g>
  </g>
  <path
     d="m 19,71.6241 0,-8 c 0,-4.418278 3.581722,-8 8,-8 l 8,0 0,4 20,0 0,-4 68,0 8,0 c 4.41828,0 9.07159,3.713641 8,8 l 0,8 -8,0 0,-6 -8,0 0,20 8,0 0,-6 8,0 0,8 c 0,4.418278 -3.58172,8 -8,8 l -8,0 -68,0 -2,0 0,4 -16,0 0,-4 -2,0 -8,0 c -4.418278,0 -8,-3.581722 -8,-8 l 0,-8 z"
     id="path3225"
     style="fill:#ff0066;fill-opacity:1;stroke:#ef003e;stroke-width:2;stroke-linecap:round;stroke-opacity:1" />
  <text
     id="text3227"
     style="font-size:20px;font-family:Sans;text-anchor:end;fill:#000000"
     x="26"
     y="54.6241">
    <tspan
       x="120"
       y="82.6241"
       id="tspan3229">imprintir</tspan>
  </text>
  <text
     id="text3231"
     style="font-size:13.33333302px;font-family:Sans;text-anchor:end;fill:#000000"
     x="18"
     y="54.6241">
    <tspan
       x="112"
       y="77.1241"
       id="tspan3233" />
  </text>
  <g
     id="g4560"
     transform="translate(-433.5806,-256.64473)">
    <path
       style="fill:#ff0066;fill-opacity:1;stroke:#ef003e;stroke-width:2;stroke-linecap:round;stroke-opacity:1"
       id="path3625-6"
       d="m 574.5806,328.26885 0,-8 c 0,-4.41828 3.58172,-8 8,-8 l 8,0 20,0 76.00001,0 8,0 c 4.41828,0 8,3.58172 8,8 l 0,8 -8,0 0,-6 -8,0 0,20 8,0 0,-6 8,0 0,8 c 0,4.41828 -3.58172,8 -8,8 l -8,0 -76.00001,0 -20,0 -8,0 c -4.41828,0 -8,-3.58172 -8,-8 l 0,-8 0,-2 -12,0 0,6 -4,0 0,-16 4,0 0,6 12,0 z" />
    <text
       style="font-size:20px;font-family:Sans;text-anchor:end;fill:#000000"
       id="text3627-6"
       x="573.58063"
       y="311.26886">
      <tspan
         id="tspan3629-4"
         y="337.26886"
         x="683.58063">a ASCII</tspan>
    </text>
  </g>
  <g
     id="g4565"
     transform="translate(-202,-160.5)">
    <path
       style="fill:#ffc000;fill-opacity:1;stroke:#c48d00;stroke-width:2;stroke-linecap:round;stroke-opacity:1"
       id="path3625"
       d="m 473,232.1241 0,-8 c 0,-4.41828 3.58172,-8 8,-8 l 8,0 20,0 76,0 8,0 c 4.41828,0 8,3.58172 8,8 l 0,8 -8,0 0,-6 -8,0 0,20 8,0 0,-6 8,0 0,8 c 0,4.41828 -3.58172,8 -8,8 l -8,0 -76,0 -20,0 -8,0 c -4.41828,0 -8,-3.58172 -8,-8 l 0,-8 0,-2 -12,0 0,6 -4,0 0,-16 4,0 0,6 12,0 z" />
    <text
       style="font-size:20px;font-family:Sans;text-anchor:end;fill:#000000"
       id="text3627"
       x="472"
       y="215.1241">
      <tspan
         id="tspan3629"
         y="241.1241"
         x="582">calcular</tspan>
    </text>
  </g>
  <text
     x="266"
     y="54.6241"
     id="text23-2"
     style="font-size:20px;font-family:Sans;text-anchor:start;fill:#000000">
    <tspan
       x="412"
       y="80.6241"
       id="tspan25-1">teclado</tspan>
  </text>
</svg>
