<svg xmlns="http://www.w3.org/2000/svg" height="546pt" version="1.1" viewBox="0 -69 546.418 546" width="546pt">
<g id="surface1">
<path d="M 187.082031 261.523438 C 181.816406 261.523438 176.109375 261.523438 171.28125 260.976562 C 176.441406 260.976562 182.253906 261.523438 187.082031 261.523438 C 283.644531 261.523438 362.644531 205.34375 362.644531 136.328125 C 362.644531 67.308594 284.082031 11.128906 187.082031 11.128906 C 90.085938 11.128906 11.519531 67.308594 11.519531 136.328125 C 11.914062 156.746094 18.753906 176.53125 31.050781 192.835938 L 12.070312 166.832031 L 12.070312 271.289062 C 12.070312 330.324219 70.664062 381.894531 151.3125 393.855469 L 163.929688 395.722656 L 174.355469 395.722656 C 178.636719 395.722656 182.914062 395.722656 187.195312 395.722656 L 535.027344 395.722656 L 535.027344 261.523438 Z M 187.082031 261.523438 " style=" stroke:none;fill-rule:nonzero;fill:rgb(27.843137%,75.686275%,94.117647%);fill-opacity:1;" />
<path d="M 258.1875 136.328125 C 258.1875 108.269531 226.351562 85.523438 187.082031 85.523438 C 147.816406 85.523438 115.980469 108.269531 115.980469 136.328125 C 115.980469 164.382812 147.816406 187.128906 187.082031 187.128906 C 226.351562 187.128906 258.1875 164.382812 258.1875 136.328125 Z M 258.1875 136.328125 " style=" stroke:none;fill-rule:nonzero;fill:rgb(100%,100%,100%);fill-opacity:1;" />
<path d="M 187.082031 176.265625 C 220 176.265625 247.214844 158.050781 247.214844 136.4375 C 247.214844 114.820312 219.671875 96.605469 187.082031 96.605469 C 154.496094 96.605469 126.953125 114.820312 126.953125 136.4375 C 126.953125 158.050781 154.496094 176.265625 187.082031 176.265625 Z M 187.082031 176.265625 " style=" stroke:none;fill-rule:nonzero;fill:rgb(100%,100%,100%);fill-opacity:1;" />
<path d="M 342.347656 193.933594 C 326.820312 214.132812 306.542969 230.1875 283.3125 240.675781 L 225.707031 261.523438 L 362.097656 261.523438 L 362.097656 166.832031 Z M 342.347656 193.933594 " style=" stroke:none;fill-rule:nonzero;fill:rgb(99.215686%,74.901961%,36.862745%);fill-opacity:1;" />
<path d="M 187.082031 198.210938 C 232.292969 198.210938 269.160156 170.453125 269.160156 136.4375 C 269.160156 102.421875 232.398438 74.660156 187.082031 74.660156 C 141.765625 74.660156 105.007812 102.421875 105.007812 136.4375 C 105.007812 170.453125 141.875 198.210938 187.082031 198.210938 Z M 187.082031 96.605469 C 220 96.605469 247.214844 114.820312 247.214844 136.4375 C 247.214844 158.050781 219.671875 176.265625 187.082031 176.265625 C 154.496094 176.265625 126.953125 158.050781 126.953125 136.4375 C 126.953125 114.820312 154.496094 96.496094 187.082031 96.496094 Z M 187.082031 96.605469 " style=" stroke:none;fill-rule:nonzero;fill:rgb(18.823529%,21.176471%,22.745098%);fill-opacity:1;" />
<path d="M 535.027344 250.550781 L 373.070312 250.550781 L 373.070312 136.328125 C 373.070312 61.273438 289.570312 0.15625 186.535156 0.15625 C 83.503906 0.15625 0 61.273438 0 136.328125 L 0 271.289062 C 0 340.417969 70.773438 397.476562 161.957031 406.144531 L 163.824219 406.144531 C 171.394531 406.800781 179.074219 407.351562 186.863281 407.351562 L 535.027344 407.351562 C 541.085938 407.351562 546 402.433594 546 396.378906 L 546 261.523438 C 546 255.46875 541.082031 250.550781 535.027344 250.550781 Z M 187.082031 22.210938 C 277.609375 22.210938 351.671875 73.453125 351.671875 136.4375 C 351.671875 199.417969 278.046875 250.660156 187.082031 250.660156 C 96.121094 250.660156 22.492188 199.417969 22.492188 136.4375 C 22.492188 73.453125 96.667969 22.210938 187.082031 22.210938 Z M 351.671875 200.40625 L 351.671875 250.550781 L 288.03125 250.550781 C 312.875 239.292969 334.546875 222.066406 351.125 200.40625 Z M 524.054688 385.40625 L 502.109375 385.40625 L 502.109375 329.882812 C 502.109375 323.828125 497.195312 318.910156 491.136719 318.910156 C 485.082031 318.910156 480.164062 323.828125 480.164062 329.882812 L 480.164062 385.515625 L 436.273438 385.515625 L 436.273438 355.339844 C 436.273438 349.285156 431.359375 344.367188 425.300781 344.367188 C 419.246094 344.367188 414.328125 349.285156 414.328125 355.339844 L 414.328125 385.515625 L 370.4375 385.515625 L 370.4375 355.339844 C 370.4375 349.285156 365.523438 344.367188 359.464844 344.367188 C 353.410156 344.367188 348.492188 349.285156 348.492188 355.339844 L 348.492188 385.515625 L 304.601562 385.515625 L 304.601562 329.882812 C 304.601562 323.828125 299.6875 318.910156 293.628906 318.910156 C 287.574219 318.910156 282.65625 323.828125 282.65625 329.882812 L 282.65625 385.515625 L 240.632812 385.515625 L 240.632812 355.339844 C 240.632812 349.285156 235.714844 344.367188 229.660156 344.367188 C 223.601562 344.367188 218.6875 349.285156 218.6875 355.339844 L 218.6875 385.515625 L 187.085938 385.515625 C 182.917969 385.515625 178.855469 385.515625 174.796875 385.515625 L 174.796875 355.339844 C 174.796875 349.285156 169.882812 344.367188 163.824219 344.367188 C 157.765625 344.367188 152.851562 349.285156 152.851562 355.339844 L 152.851562 382.882812 C 78.785156 371.910156 23.042969 326.042969 23.042969 271.179688 L 23.042969 200.40625 C 54.425781 243.3125 116.199219 272.5 187.632812 272.5 L 524.054688 272.5 Z M 524.054688 385.40625 " style=" stroke:none;fill-rule:nonzero;fill:rgb(18.823529%,21.176471%,22.745098%);fill-opacity:1;" />
</g>
</svg>