<?xml version="1.0" ?><!DOCTYPE svg  PUBLIC '-//W3C//DTD SVG 1.1//EN'  'http://www.w3.org/Graphics/SVG/1.1/DTD/svg11.dtd' [
	<!ENTITY stroke_color "#FFFFFF">
	<!ENTITY fill_color "#FFFFFF">
]>
<svg xmlns="http://www.w3.org/2000/svg" viewBox="0 0 64 64" width="512" height="512"><g id="Filled_outline" data-name="Filled outline"><path d="M3,3H61a0,0,0,0,1,0,0V3A10,10,0,0,1,51,13H13A10,10,0,0,1,3,3V3A0,0,0,0,1,3,3Z" style="fill:&fill_color;"/><path d="M48.531,61H15.469a4,4,0,0,1-3.975-4.442l3.111-28A4,4,0,0,1,18.58,25H45.42A4,4,0,0,1,49.4,28.558l3.111,28A4,4,0,0,1,48.531,61Z" style="fill:&fill_color;"/><rect x="24" y="19" width="16" height="6" style="fill:&fill_color;"/><rect x="27" y="13" width="10" height="6" style="fill:&fill_color;"/><circle cx="32" cy="43" r="11" style="fill:&fill_color;"/><path d="M33,40.184V32H31v8.184a3,3,0,1,0,2,0ZM32,44a1,1,0,1,1,1-1A1,1,0,0,1,32,44Z" style="fill:#fff"/><rect x="27" y="22" width="2" height="3" style="fill:#fff"/><rect x="31" y="22" width="2" height="3" style="fill:#fff"/><rect x="35" y="22" width="2" height="3" style="fill:#fff"/><rect x="10" y="8" width="12" height="2" style="fill:&fill_color;"/><path d="M61,2H3A1,1,0,0,0,2,3,11.013,11.013,0,0,0,13,14H26v4H24a1,1,0,0,0-1,1v5H18.58a5,5,0,0,0-4.97,4.448l-3.111,28A5,5,0,0,0,15.469,62H48.531a5,5,0,0,0,4.97-5.552l-3.111-28A5,5,0,0,0,45.42,24H41V19a1,1,0,0,0-1-1H38V14H51A11.013,11.013,0,0,0,62,3,1,1,0,0,0,61,2ZM45.42,26A3,3,0,0,1,48.4,28.668l3.112,28A3.007,3.007,0,0,1,50.766,59a2.964,2.964,0,0,1-2.235,1H15.469a2.964,2.964,0,0,1-2.235-1,3.007,3.007,0,0,1-.747-2.333l3.112-28A3,3,0,0,1,18.58,26ZM39,20v4H37V22H35v2H33V22H31v2H29V22H27v2H25V20ZM28,18V14h8v4Zm23-6H13A9.012,9.012,0,0,1,4.056,4H59.944A9.012,9.012,0,0,1,51,12Z"/><path d="M20,43A12,12,0,1,0,32,31,12.013,12.013,0,0,0,20,43Zm12-1a1,1,0,1,1-1,1A1,1,0,0,1,32,42Zm-1-8.949v7.133a3,3,0,1,0,2,0V33.051a10,10,0,1,1-2,0Z"/><rect x="10" y="8" width="12" height="2"/></g></svg>
