<?xml version="1.0" encoding="utf-8"?>
<!DOCTYPE svg PUBLIC "-//W3C//DTD SVG 1.1//EN" "http://www.w3.org/Graphics/SVG/1.1/DTD/svg11.dtd">
<svg version="1.1" xmlns="http://www.w3.org/2000/svg" xmlns:xlink="http://www.w3.org/1999/xlink" x="0px" y="0px" width="55px" height="55px" viewBox="0 0 55 55" enable-background="new 0 0 55 55" xml:space="preserve">
<g>
    <path fill="#FFFFFF" d="M21.03,8.5h-4.3l-5.69,13.8l10.9-4.25L21.03,8.5z M38.27,8.5h-4.3l-0.91,9.55l10.9,4.25L38.27,8.5z"/>
    <circle fill="#FFFFFF" cx="27.5" cy="33.72" r="12.78"/>
    <circle fill="#808080" cx="27.5" cy="33.72" r="9.58"/>
    <path fill="#FFFFFF" d="M31.13,30.34l-2.09-0.3l-0.93-1.89c-0.12-0.25-0.37-0.41-0.65-0.41s-0.53,0.16-0.64,0.41l-0.93,1.89 l-2.09,0.3c-0.28,0.04-0.5,0.24-0.59,0.51s-0.01,0.57,0.19,0.76l1.51,1.47l-0.35,2.08c-0.04,0.27,0.07,0.55,0.28,0.7 s0.51,0.15,0.76,0.01l1.86-0.98l1.86,0.98c0.12,0.06,0.25,0.09,0.38,0.09c0.13,0,0.26-0.04,0.37-0.1c0.21-0.15,0.33-0.43,0.28-0.7 l-0.35-2.08l1.51-1.47c0.2-0.19,0.29-0.48,0.19-0.76C31.63,30.58,31.41,30.38,31.13,30.34z"/>
</g>
</svg>
