<?xml version="1.0" encoding="utf-8"?>
<!DOCTYPE svg PUBLIC "-//W3C//DTD SVG 1.1//EN" "http://www.w3.org/Graphics/SVG/1.1/DTD/svg11.dtd" [
	<!ENTITY stroke_color "#010101">
	<!ENTITY fill_color "#FFFFFF">
]>
<svg version="1.1" xmlns="http://www.w3.org/2000/svg" xmlns:xlink="http://www.w3.org/1999/xlink" viewBox="0 0 75 75" width="75px" height="75px" xml:space="preserve">
<g transform="matrix(1.363636,0,0,1.363636,0,0)" fill="&stroke_color;" stroke="&fill_color;" stroke-width="2.566" stroke-linecap="round" stroke-linejoin="round">
    <path d="M42.359,23.85c0,0,1.328,4.394-2.73,10.372c-4.059,5.979-8.271,5.835-8.271,5.835l-14.443-10.2c0,0,4.09-2.075,7.392-6.938c3.3-4.863,3.612-9.269,3.612-9.269L42.359,23.85z"/>
    <path d="M21.749,21.79c3.862-5.663,3.959-8.411,3.404-8.965c-0.554-0.554-3.637,1.1-6.961,5.808c-3.322,4.708-4.297,9.305-3.397,12.905c0.122,0.487,0.744,1.738-0.415,4.584c-1.523,3.738-1.408,8.164,0.484,8.584c2.492,0.553,2.873-5.573,1.488-10.559c-0.963-3.469-0.736-3.023-0.52-4.811c0.195-1.604,0.032-1.919,1.385-2.77C18.76,25.598,21.749,21.79,21.749,21.79z"/>
</g>
</svg>
