<?xml version="1.0" encoding="utf-8"?>
<!DOCTYPE svg PUBLIC "-//W3C//DTD SVG 1.1//EN" "http://www.w3.org/Graphics/SVG/1.1/DTD/svg11.dtd" [
	<!ENTITY stroke_color "#010101">
	<!ENTITY fill_color "#FFFFFF">
]>
<svg version="1.1" xmlns="http://www.w3.org/2000/svg" xmlns:xlink="http://www.w3.org/1999/xlink" x="0px" y="0px" width="55px" height="55px" viewBox="0 0 512 512" enable-background="new 0 0 512 512" xml:space="preserve">
<g id="icon">
<path d="M0 0 C1.15757812 -0.01675781 2.31515625 -0.03351562 3.5078125 -0.05078125 C7.93564993 0.42693207 11.21370312 1.79720783 14.51953125 4.8125 C19.8268664 11.62860935 19.46841202 17.91873001 18.875 26.3125 C12.87761067 58.09484348 -14.02488443 87.92508965 -35.00390625 110.9765625 C-37.49310511 113.71789016 -39.93280006 116.4977723 -42.34765625 119.3046875 C-43.65328405 120.77961649 -45.00105993 122.217508 -46.37109375 123.6328125 C-47.48677734 124.80457031 -47.48677734 124.80457031 -48.625 126 C-49.3159375 126.70511719 -50.006875 127.41023438 -50.71875 128.13671875 C-52.33175205 130.19244226 -52.33175205 130.19244226 -52.09765625 132.5390625 C-51.00548682 135.65328055 -49.67346976 138.56862613 -48.24291992 141.54052734 C-36.78699927 165.40959553 -29.16922206 192.78970102 -28.88671875 219.40625 C-28.878647 220.15604126 -28.87057526 220.90583252 -28.86225891 221.67834473 C-28.84851973 223.25819663 -28.83775284 224.83807695 -28.82983398 226.41796875 C-28.81838102 228.00009146 -28.79803658 229.58217761 -28.76831055 231.1640625 C-28.50121983 245.44073297 -30.05851061 259.01875267 -36.9375 271.8125 C-37.28586914 272.47773682 -37.63423828 273.14297363 -37.99316406 273.82836914 C-46.95581202 290.43047158 -63.51821891 299.71144413 -80.9140625 305.59375 C-98.6633205 310.61067089 -116.75886932 312.26824947 -135.125 312.75 C-166.35547259 313.06595484 -166.35547259 313.06595484 -192.796875 327.93359375 C-200.74452649 336.45174497 -202.77970613 346.96916827 -203.125 358.3125 C-202.71898808 367.04696154 -199.68721732 374.42855356 -196.125 382.3125 C-190.52006287 395.33967469 -187.76556877 407.81875664 -192.09375 421.78515625 C-195.92625608 431.17769957 -204.43018188 438.79006592 -213.4375 443.125 C-224.85801884 447.7027749 -235.63901648 448.85110483 -247.8125 448.75 C-248.57723633 448.74729095 -249.34197266 448.74458191 -250.12988281 448.74179077 C-264.0724025 448.66726966 -277.48662711 447.32209199 -291.125 444.3125 C-291.96337402 444.13058105 -292.80174805 443.94866211 -293.66552734 443.76123047 C-349.49068358 431.2600598 -397.28393419 396.47793659 -428.4375 348.828125 C-447.91039145 318.06509967 -461.12822207 280.62042234 -461.328125 243.984375 C-461.33513931 243.1212973 -461.34215363 242.2582196 -461.34938049 241.36898804 C-461.36678654 238.60010503 -461.3732323 235.8314357 -461.375 233.0625 C-461.37567474 232.11775818 -461.37634949 231.17301636 -461.37704468 230.199646 C-461.36168373 216.68919371 -461.07798344 203.55050867 -458.125 190.3125 C-457.95339355 189.50377441 -457.78178711 188.69504883 -457.60498047 187.86181641 C-447.03760634 138.93459087 -419.95946671 93.07471906 -380.125 62.3125 C-379.58423828 61.89000977 -379.04347656 61.46751953 -378.48632812 61.03222656 C-344.18818264 34.38400797 -300.00481447 16.36192514 -256.234375 16.109375 C-255.41582535 16.10236069 -254.5972757 16.09534637 -253.75392151 16.08811951 C-251.12755768 16.07071731 -248.50141937 16.06426738 -245.875 16.0625 C-244.97727875 16.06182526 -244.0795575 16.06115051 -243.15463257 16.06045532 C-229.9135019 16.07628143 -217.11106817 16.51495484 -204.125 19.3125 C-203.28098633 19.48410645 -202.43697266 19.65571289 -201.56738281 19.83251953 C-166.39559238 27.07529345 -133.99241159 42.69837066 -106.125 65.3125 C-101.79122302 63.61945199 -98.85732382 60.41434019 -95.5625 57.25 C-89.62266445 51.64978075 -83.540564 46.36718679 -77.125 41.3125 C-76.47015625 40.79042969 -75.8153125 40.26835938 -75.140625 39.73046875 C-25.38265121 0.08517668 -25.38265121 0.08517668 0 0 Z M-106.82958984 91.88671875 C-108.51675958 93.57931347 -110.20930196 95.26640597 -111.90234375 96.953125 C-117.52334042 102.57022108 -123.00124034 108.23157276 -128.125 114.3125 C-129.18011967 115.53590704 -130.23610296 116.75856981 -131.29296875 117.98046875 C-132.29990329 119.15328183 -133.30641789 120.32645559 -134.3125 121.5 C-134.81974609 122.08974609 -135.32699219 122.67949219 -135.84960938 123.28710938 C-136.8307523 124.43113984 -137.80862701 125.57798386 -138.78271484 126.72802734 C-140.00947356 128.17612921 -141.24827166 129.61400981 -142.48828125 131.05078125 C-144.41812829 133.25226055 -144.41812829 133.25226055 -144.125 136.3125 C-142.20120359 137.92873021 -140.29782129 139.37018824 -138.25 140.8125 C-129.7114413 147.09088641 -122.88076612 154.38518928 -117.125 163.3125 C-112.84248321 162.80685344 -110.17509295 160.10791843 -107.0625 157.375 C-106.49249268 156.88354492 -105.92248535 156.39208984 -105.33520508 155.88574219 C-100.7727377 151.93249131 -96.29351106 147.88918746 -91.85546875 143.796875 C-90.42559624 142.49587512 -88.99104068 141.19895275 -87.51635742 139.94897461 C-80.98929476 134.39711047 -74.98761024 128.32602741 -68.94311523 122.26098633 C-67.06670525 120.37921726 -65.18501031 118.50285262 -63.30273438 116.62695312 C-57.36380822 110.69161652 -51.53507154 104.7408505 -46.125 98.3125 C-45.16480591 97.21695384 -44.20260459 96.12316326 -43.23828125 95.03125 C-28.52365723 78.18933548 -15.06829144 60.03077071 -4.5625 40.25 C-4.15692871 39.48905029 -3.75135742 38.72810059 -3.33349609 37.9440918 C1.81223282 28.11037222 1.81223282 28.11037222 2.875 17.3125 C1.84934735 16.07153327 1.84934735 16.07153327 -0.328125 16.12890625 C-38.74402288 18.65062022 -81.36709382 66.32695196 -106.82958984 91.88671875 Z M-378.125 83.3125 C-379.42244141 84.43011719 -379.42244141 84.43011719 -380.74609375 85.5703125 C-418.80203171 118.6985705 -441.42756727 168.87475127 -444.984375 218.81152344 C-448.03330786 273.03594747 -429.76733645 325.40582884 -393.8125 366.09375 C-357.41367019 406.47137851 -307.03723051 428.82724434 -253.0546875 432.05859375 C-239.38573684 432.72594754 -224.69828376 432.06992694 -213.7109375 422.890625 C-208.96400712 418.16707851 -207.32118648 414.15720391 -206.875 407.6875 C-207.02076912 400.45205109 -209.67561805 394.20903584 -212.68896484 387.71508789 C-221.02300633 369.66234544 -222.05091333 351.93829101 -216.05859375 332.9296875 C-210.90496343 319.62889901 -201.79443142 310.40462314 -189.0625 304.0625 C-175.292221 298.271813 -161.5859786 296.73325711 -146.77804565 296.32846069 C-142.03652723 296.19454539 -137.29776827 295.9957088 -132.55859375 295.796875 C-131.6396785 295.75886276 -130.72076324 295.72085052 -129.77400208 295.6816864 C-104.32914681 294.57378332 -75.29442556 291.1245489 -57.125 271.3125 C-43.16881197 254.66778224 -44.98984318 230.64146403 -46.32714844 210.2265625 C-46.88274958 204.50701565 -47.88061946 198.91947969 -49.125 193.3125 C-49.32367676 192.40773926 -49.52235352 191.50297852 -49.72705078 190.57080078 C-53.36698346 174.49238652 -58.54308211 158.98339374 -66.125 144.3125 C-70.82534576 147.54234653 -74.95344901 151.0389573 -78.9375 155.125 C-84.01627468 160.30426794 -89.44121442 164.81693591 -95.125 169.3125 C-96.10339844 170.11945313 -97.08179688 170.92640625 -98.08984375 171.7578125 C-105.42408872 177.75483699 -113.12221826 183.11578997 -121 188.375 C-122.03157227 189.07141602 -123.06314453 189.76783203 -124.12597656 190.48535156 C-128.71264856 193.54651646 -133.23497934 196.4635548 -138.19140625 198.890625 C-145.45692842 202.18729469 -145.45692842 202.18729469 -149.82714844 208.41943359 C-150.62417119 213.3486036 -150.42065007 218.21498277 -150.16894531 223.18359375 C-149.93577026 234.47962945 -158.04003372 246.05240923 -165.44140625 253.890625 C-182.90242819 269.64875252 -202.14589976 272.26550214 -224.86767578 271.51220703 C-231.93083769 271.07916353 -238.42912229 269.53228934 -245.125 267.3125 C-246.19363281 266.961875 -247.26226562 266.61125 -248.36328125 266.25 C-262.01410507 261.15085959 -275.94102311 251.05705344 -283.31640625 238.296875 C-284.76541775 234.74084678 -284.64075171 232.11616883 -284.125 228.3125 C-283.10546875 226.609375 -283.10546875 226.609375 -281.125 225.3125 C-278.3451475 225.03597017 -275.71867017 224.90293951 -272.9375 224.875 C-264.7823193 224.5758371 -259.06064262 223.5935228 -253.1875 217.5625 C-249.25138694 212.59957484 -246.39899426 206.86087674 -243.35546875 201.328125 C-235.25636906 186.64526336 -227.0883758 175.20706406 -210.58740234 169.83374023 C-207.92814125 169.27082903 -205.80952743 169.32054284 -203.109375 169.57421875 C-197.57216178 170.0905017 -192.36815289 170.45266816 -187.125 168.3125 C-181.69564161 163.20305998 -178.86145699 155.89900364 -175.66845703 149.28515625 C-173.26750109 144.66098043 -170.27296632 140.57607003 -167.125 136.4375 C-166.54194092 135.66269287 -165.95888184 134.88788574 -165.3581543 134.08959961 C-159.4725223 126.34216102 -153.370562 118.77183665 -147.125 111.3125 C-146.32352539 110.3544043 -146.32352539 110.3544043 -145.50585938 109.37695312 C-140.44414781 103.34819147 -135.38311527 97.36877881 -129.71484375 91.89453125 C-125.48784673 87.68830571 -121.65770659 83.1114478 -118.125 78.3125 C-193.69996913 16.75762231 -305.25107832 17.51073106 -378.125 83.3125 Z M-156.125 149.3125 C-157.49848685 151.00570705 -157.49848685 151.00570705 -158.83984375 153.22265625 C-159.62198242 154.46112305 -159.62198242 154.46112305 -160.41992188 155.72460938 C-160.96197266 156.59923828 -161.50402344 157.47386719 -162.0625 158.375 C-162.60068359 159.22255859 -163.13886719 160.07011719 -163.69335938 160.94335938 C-166.61912734 165.61520834 -169.12416697 170.17447233 -171.125 175.3125 C-170.30515625 176.06015625 -169.4853125 176.8078125 -168.640625 177.578125 C-167.55203861 178.57286773 -166.46349945 179.56766213 -165.375 180.5625 C-164.83617187 181.05363281 -164.29734375 181.54476562 -163.7421875 182.05078125 C-160.8006284 184.74123164 -157.9176232 187.4656511 -155.125 190.3125 C-142.34141032 183.27791158 -142.34141032 183.27791158 -130.125 175.3125 C-132.23333571 169.04326894 -136.64837908 165.02473255 -141.125 160.3125 C-141.764375 159.631875 -142.40375 158.95125 -143.0625 158.25 C-146.48727028 154.7029165 -149.85423439 151.79550326 -154.125 149.3125 C-154.785 149.3125 -155.445 149.3125 -156.125 149.3125 Z M-215.17578125 190.38671875 C-221.35241423 196.4890836 -225.44535134 203.05475015 -229.5625 210.6875 C-240.06449182 230.14595528 -240.06449182 230.14595528 -248.8125 235.25 C-249.72386719 235.79527344 -250.63523438 236.34054687 -251.57421875 236.90234375 C-253.7349156 238.09684844 -255.90376726 239.23569631 -258.125 240.3125 C-247.69850484 251.67620821 -231.86557186 255.59812943 -216.9609375 256.30859375 C-201.63467192 256.32420095 -187.99230961 252.0820084 -177 241.2109375 C-168.9597715 232.60907539 -165.73817675 224.76039465 -165.84765625 212.9609375 C-166.47276826 204.73763306 -169.93453133 197.76918466 -176.125 192.3125 C-187.61775684 183.42613623 -203.2867213 180.90218778 -215.17578125 190.38671875 Z " fill="#FFFFFF" transform="translate(477.125,31.6875)"/>
<path d="M0 0 C8.80288754 6.34043826 15.4186507 14.72648904 17.58203125 25.4921875 C18.92007691 37.90936834 17.85729499 48.88109459 10.39453125 59.2421875 C3.58210875 67.3274193 -4.72289951 73.55522767 -15.48876953 74.71533203 C-28.40007937 75.61089799 -39.16843729 74.04490094 -49.3515625 65.46484375 C-57.86959925 57.33325857 -62.42046403 48.68416257 -62.88867188 36.85693359 C-63.04371176 24.34263074 -60.22647828 14.71931927 -51.41796875 5.4921875 C-37.63784493 -7.66275112 -16.31305228 -10.17259803 0 0 Z M-41.97265625 21.39453125 C-46.0977477 27.38148831 -46.13405017 33.44153962 -45.41796875 40.4921875 C-43.64454442 47.13691664 -38.97130405 51.66586709 -33.41796875 55.4921875 C-27.41909871 58.43281007 -20.53513345 58.59102538 -14.10546875 56.875 C-7.97664014 54.16969675 -3.17844083 49.08355055 -0.24609375 43.1015625 C1.66008982 37.09528598 1.64641812 29.98927192 -0.91796875 24.1796875 C-4.40259013 18.23971013 -9.85252705 13.57583067 -16.41796875 11.4921875 C-27.85241972 10.13582504 -34.59614364 12.76572696 -41.97265625 21.39453125 Z " fill="#FFFFFF" transform="translate(206.41796875,349.5078125)"/>
<path d="M0 0 C8.80288754 6.34043826 15.4186507 14.72648904 17.58203125 25.4921875 C18.92007691 37.90936834 17.85729499 48.88109459 10.39453125 59.2421875 C3.58210875 67.3274193 -4.72289951 73.55522767 -15.48876953 74.71533203 C-28.40007937 75.61089799 -39.16843729 74.04490094 -49.3515625 65.46484375 C-57.86959925 57.33325857 -62.42046403 48.68416257 -62.88867188 36.85693359 C-63.04371176 24.34263074 -60.22647828 14.71931927 -51.41796875 5.4921875 C-37.63784493 -7.66275112 -16.31305228 -10.17259803 0 0 Z M-41.97265625 21.39453125 C-46.0977477 27.38148831 -46.13405017 33.44153962 -45.41796875 40.4921875 C-43.64454442 47.13691664 -38.97130405 51.66586709 -33.41796875 55.4921875 C-27.41909871 58.43281007 -20.53513345 58.59102538 -14.10546875 56.875 C-7.97664014 54.16969675 -3.17844083 49.08355055 -0.24609375 43.1015625 C1.66008982 37.09528598 1.64641812 29.98927192 -0.91796875 24.1796875 C-4.40259013 18.23971013 -9.85252705 13.57583067 -16.41796875 11.4921875 C-27.85241972 10.13582504 -34.59614364 12.76572696 -41.97265625 21.39453125 Z " fill="#FFFFFF" transform="translate(134.41796875,261.5078125)"/>
<path d="M0 0 C8.80288754 6.34043826 15.4186507 14.72648904 17.58203125 25.4921875 C18.92007691 37.90936834 17.85729499 48.88109459 10.39453125 59.2421875 C3.58210875 67.3274193 -4.72289951 73.55522767 -15.48876953 74.71533203 C-28.40007937 75.61089799 -39.16843729 74.04490094 -49.3515625 65.46484375 C-57.86959925 57.33325857 -62.42046403 48.68416257 -62.88867188 36.85693359 C-63.04371176 24.34263074 -60.22647828 14.71931927 -51.41796875 5.4921875 C-37.63784493 -7.66275112 -16.31305228 -10.17259803 0 0 Z M-41.97265625 21.39453125 C-46.0977477 27.38148831 -46.13405017 33.44153962 -45.41796875 40.4921875 C-43.64454442 47.13691664 -38.97130405 51.66586709 -33.41796875 55.4921875 C-27.41909871 58.43281007 -20.53513345 58.59102538 -14.10546875 56.875 C-7.97664014 54.16969675 -3.17844083 49.08355055 -0.24609375 43.1015625 C1.66008982 37.09528598 1.64641812 29.98927192 -0.91796875 24.1796875 C-4.40259013 18.23971013 -9.85252705 13.57583067 -16.41796875 11.4921875 C-27.85241972 10.13582504 -34.59614364 12.76572696 -41.97265625 21.39453125 Z " fill="#FFFFFF" transform="translate(158.41796875,149.5078125)"/>
<path d="M0 0 C8.80288754 6.34043826 15.4186507 14.72648904 17.58203125 25.4921875 C18.92007691 37.90936834 17.85729499 48.88109459 10.39453125 59.2421875 C3.58210875 67.3274193 -4.72289951 73.55522767 -15.48876953 74.71533203 C-28.40007937 75.61089799 -39.16843729 74.04490094 -49.3515625 65.46484375 C-57.86959925 57.33325857 -62.42046403 48.68416257 -62.88867188 36.85693359 C-63.04371176 24.34263074 -60.22647828 14.71931927 -51.41796875 5.4921875 C-37.63784493 -7.66275112 -16.31305228 -10.17259803 0 0 Z M-41.97265625 21.39453125 C-46.0977477 27.38148831 -46.13405017 33.44153962 -45.41796875 40.4921875 C-43.64454442 47.13691664 -38.97130405 51.66586709 -33.41796875 55.4921875 C-27.41909871 58.43281007 -20.53513345 58.59102538 -14.10546875 56.875 C-7.97664014 54.16969675 -3.17844083 49.08355055 -0.24609375 43.1015625 C1.66008982 37.09528598 1.64641812 29.98927192 -0.91796875 24.1796875 C-4.40259013 18.23971013 -9.85252705 13.57583067 -16.41796875 11.4921875 C-27.85241972 10.13582504 -34.59614364 12.76572696 -41.97265625 21.39453125 Z " fill="#FFFFFF" transform="translate(262.41796875,93.5078125)"/>
</g>
</svg>
