<?xml version="1.0" encoding="utf-8"?>
<!DOCTYPE svg PUBLIC "-//W3C//DTD SVG 1.1//EN" "http://www.w3.org/Graphics/SVG/1.1/DTD/svg11.dtd">
<svg version="1.1" xmlns="http://www.w3.org/2000/svg" xmlns:xlink="http://www.w3.org/1999/xlink" x="0px" y="0px" width="55px" height="55px" viewBox="0 0 55 55" enable-background="new 0 0 55 55" xml:space="preserve">
<g>
    <path fill="#FFFFFF" d="M27.5,10.22 c-9.54,0-17.28,7.74-17.28,17.28c0,9.55,7.74,17.28,17.28,17.28c4.78,0,9.04-1.93,12.18-5.06l-4.1-4.1 c-2.09,2.09-4.96,3.38-8.08,3.38c-6.35,0-11.49-5.14-11.49-11.5c0-6.35,5.14-11.49,11.49-11.49c3.12,0,5.99,1.29,8.08,3.38l-4.1,4.1 h11.96V11.51l-3.32,3.33C34.25,11.75,31.02,10.22,27.5,10.22z"/>
</g>
</svg>
