<svg height="600" width="1000" xmlns:xlink="http://www.w3.org/1999/xlink" xmlns="http://www.w3.org/2000/svg"><path d="M0 0h1000.002v600.001H0z" fill="#d90f19" fill-rule="evenodd"/><path d="M0 60h1000.002v480.001H0z" fill="#171696" fill-rule="evenodd"/><g transform="matrix(.8 0 0 .8 154.642 48.648)"><circle cx="414.43" cy="301.623" fill="#fff" r="210"/><path d="M305.124 381.947c-.341 1.48-.91 3.532-1.14 6.155 0 .57-.568 3.647 1.14 3.76 1.255.113 1.596-3.193 1.596-3.193s-1.142 3.647.34 4.104c2.053.451 2.279-3.99 2.279-3.99-.229 1.255-1.596 4.447.343 4.783 2.05.345 2.62-4.33 2.62-4.33s-1.709 4.675.341 4.788c1.938.112 1.938-4.559 1.938-4.559s-1.027 5.586 1.708 5.13c1.478-.228 1.823-2.167 2.165-3.306.454-1.707 1.48-3.872.228-7.406-.91-2.62-.568-3.304-.568-3.304s-3.192 2.394-5.697 3.987c-1.143.684-7.296-2.62-7.296-2.62zm33.276-4.906c-.57-.344-.455 2.052-.683 3.188-.115 1.142.23 3.648 4.103 3.421 3.758-.344 7.521-1.14 9.912-.57 2.395.682 5.925.797 7.865.797 1.938 0 3.192-.227 4.1-.572.799-.338 2.508.46 3.303.46.8 0 2.052-1.255 1.938-2.053-.114-1.483-1.478-1.483-3.42-1.595-1.823-.228-4.328-.572-5.58-1.026-1.255-.457-3.533-1.71-6.382-2.28 0 0-5.47.23-6.606.23-1.142 0-7.865.34-8.55 0z" fill="#ad7d5a" stroke="#000" stroke-width=".57027074"/><path d="m320.054 385.138-.228-5.241 2.165 1.825.57-3.99c.91-.227 2.393 1.597 2.393 1.597l-.23-3.987 3.305 3.646s-.228-3.078.909-4.9c0 0 2.506 2.165 2.506 4.672 0 2.17 2.165-3.077 2.165-3.077.571 1.825 1.824 5.813 1.824 5.813l1.478-2.168 1.255 4.556 2.733-3.987 2.165 4.673 4.9-.344.572 2.736 2.164-2.393 2.85 1.823s2.391-.683 3.646-.683c1.254 0 2.734 1.594 2.734 1.594s.91-1.59 1.824-2.162c.91-.571 2.165.91 2.503 1.821l1.826-3.304s2.394 2.395 2.733 3.304c0 0 .342-2.733.912-3.646.572-.91 1.479.343 2.166 1.483l1.48-4.9s1.595.338 2.733 2.163c1.254 1.821 1.254-2.737 1.254-2.737s2.733 3.649 3.421 6.154m68.6-.912s.909-2.503 2.165-3.758c0 0 2.392 2.851 2.392 3.76 0 0 .683-.342 1.938-1.25l1.823 1.82 2.166-1.479 2.051 1.823 3.762-1.595 1.478 1.594 5.81-.681 2.168.909 2.05-2.617 1.937 2.047 3.076-3.073s1.48 1.249 1.823 2.163c0 0 2.507-1.254 3.077-2.163 0 0 2.391-.912 2.733.565 0 0 1.478-1.14 1.366-2.392-.116-1.252 1.708-.34 2.277 1.257 0 0 .685-2.51 2.51-2.739 0 0 1.25 1.483.907 4.219 0 0 2.735-2.164 3.99-2.393 0 0 .57 3.074-.341 5.813 0 0 2.85-4.675 3.419-3.079.227.91.91 3.99.227 6.153l2.507-1.595.911 3.08 2.733-.571m-128.033 9.28s2.052-3.416 3.304-4.33c0 0 2.733 2.167 3.646 4.901 0 0 .343-1.822 1.254-3.416 0 0 3.418 1.59 3.988 3.76 0 0 1.254-2.167 2.165-2.733.91-.688 1.824 2.39 1.824 4.214 0 0 2.165-2.281 3.42-2.394 0 0 2.392 1.138 3.075 5.13 0 0 2.28-2.166 3.076-1.826 0 0 2.735 1.825 2.05 4.33-.34 1.367 2.736-1.592 6.496-2.505l3.304 2.505s3.076-4.1 3.987-5.47c0 0 2.509.91 2.509 2.394 0 0 1.14-4.334 2.05-4.786.91-.57 2.164 1.366 2.164 2.62 0 0 .342-3.303 2.167-3.988 0 0 1.823 1.251 1.823 2.509 0 0 1.938-3.76 3.419-4.676" fill="none" stroke="#060" stroke-width=".57027074"/><path d="m320.055 385.14-.228-5.242 2.165 1.826.57-3.99c.91-.231 2.393 1.597 2.393 1.597l-.23-3.992 3.305 3.648s-.228-3.078.909-4.903c0 0 2.506 2.167 2.506 4.673 0 2.17 2.165-3.078 2.165-3.078l1.824 5.813 1.479-2.165 1.254 4.557 2.736-3.989 2.162 4.675 4.9-.344.571 2.733 2.164-2.391 2.85 1.822s2.393-.683 3.647-.683 2.735 1.598 2.735 1.598.91-1.598 1.822-2.173c.91-.565 2.168.915 2.505 1.826l1.825-3.304s2.392 2.395 2.733 3.304c0 0 .34-2.733.91-3.647.572-.91 1.48.344 2.166 1.483l1.478-4.9s1.598.34 2.734 2.166c1.252 1.822 1.252-2.733 1.252-2.733s2.733 3.645 3.416 6.15c0 0-18.866 6.478-32.172 4.707-15.662-2.085-28.56-5.047-28.56-5.047m129.342-.569s.91-2.508 2.167-3.763c0 0 2.392 2.853 2.392 3.763 0 0 .681-.341 1.937-1.254l1.822 1.822 2.167-1.478 2.053 1.82 3.757-1.596 1.48 1.596 5.812-.68 2.165.91 2.052-2.622 1.937 2.05 3.076-3.077s1.48 1.252 1.822 2.167c0 0 2.507-1.25 3.078-2.167 0 0 2.393-.91 2.732.57 0 0 1.482-1.142 1.37-2.391-.114-1.253 1.708-.344 2.278 1.25 0 0 .683-2.504 2.504-2.732 0 0 1.253 1.476.911 4.218 0 0 2.733-2.17 3.987-2.397 0 0 .571 3.077-.34 5.815 0 0 2.848-4.675 3.42-3.078.228.91.911 3.987.228 6.15l2.505-1.593.91 3.078 2.732-.571s-16.176 2.478-31.416 1.024c-15.242-1.453-29.543-6.835-29.54-6.835m-11.266 11.314c.74-.458-5.09 11.993-19.23 12.656-19.67.92-36.487-8.893-36.487-8.893s2.052-3.418 3.304-4.332c0 0 2.733 2.167 3.646 4.9 0 0 .343-1.824 1.254-3.417 0 0 3.419 1.59 3.987 3.76 0 0 1.255-2.166 2.168-2.733.91-.687 1.823 2.39 1.823 4.217 0 0 2.164-2.283 3.418-2.397 0 0 2.394 1.14 3.078 5.13 0 0 2.279-2.164 3.075-1.826 0 0 2.735 1.826 2.05 4.33-.341 1.37 2.734-1.59 6.496-2.503l3.304 2.504s3.075-4.1 3.987-5.472c0 0 2.509.915 2.509 2.397 0 0 1.14-4.331 2.05-4.786.91-.57 2.163 1.366 2.163 2.623 0 0 .344-3.306 2.167-3.99 0 0 1.824 1.252 1.824 2.51-.004-.003 1.933-3.764 3.416-4.678z" fill="#5ac800"/></g><path d="M531.599 183.263s-1.139-.095-2.184-.855l2.184.852" fill="#6f6"/><g fill="none"><path d="M531.6 183.263s-1.138-.095-2.184-.855" stroke="#060" stroke-width=".47522358000000003"/><path d="m507.005 202.065 1.235.76 1.329.19s1.425 1.33 3.04 2.565c1.231 1.045 1.231-.189 1.231-.189l.761 3.039h1.044s-.287 1.991-.287 3.036l1.804-1.522 2.086 1.806s1.52-1.327 2.28-1.327c.758 0 1.043-.763 1.043-.763h.093c-5.03-2.37-7.214-4.843-5.696-7.407 2.469-4.271 6.552-1.519 7.881-.95l18.421 9.876s1.235-.756.378-1.518c-.952-.759-1.33-2.658-1.043-3.416.283-.76 2.37 2.373 3.418 2.657 1.045.285 3.418.667 3.418.667l-.095-.952s3.038 2.09 3.038 3.136c0 0 2.184-1.141 1.424-1.807-.758-.663 3.322 1.616 3.607 2.851l.856-.955c-.094 0 .287-3.039 1.332-4.463.95-1.423 1.993-1.804 1.993-1.804s.95-1.615 1.899-1.615c0 0-.949-.663-1.328-1.423-.474-.758-1.614-1.138-1.614-1.138s1.423-1.043 1.804-1.522c.38-.569.76-.662.76-.662s-2.185-1.805-3.703-2.091c0 0-.093-2.466-1.993-2.656h.855s-1.423-2.657-2.753-2.753c0 0 .855-.95 1.614-1.043 0 0-1.614-2.09-3.798-1.33l1.428-.57s-1.046-1.14-4.275-.57c0 0 .284-1.326-1.139-2.374 0 0-1.234.094-1.234 1.047 0 0-1.139-1.047-2.564-1.047-1.423 0 .475 1.518.475 1.518s-1.898-1.232-3.038-.855c0 0 .473-2.181-.76-3.322 0 0-1.424.758-1.805 1.71l-.38-.952s-1.898 2.282-2.277 1.614c-.287-.375-.57-1.99-.57-1.99l-1.138 1.709.189-2.376s-1.328.76-2.373 3.23c0 0-1.33 1.232-1.33 2.373 0 0-1.043-1.232-1.992 0-.856 1.33 0 1.045 0 1.045s-.381.474-1.33.665l.192.758s-1.236-.662-2.184-.378l.473 1.138s-2.469.19-2.564-1.802c0 0-2.087-1.045-2.374.093 0 0-1.71 0-1.519.95 0 0-.476-.95-1.33-1.14-.95-.286-.19 1.233-.19 1.233s-.283-1.139-1.423-1.71c-1.138-.471-.191 1.046-.191 1.046s-1.518-1.234-.756-2.185c0 0-1.425 1.33-.76 2.567l-.952.663s-.473-.471-.38-.856c.094-.382-1.614 1.14-1.614 1.14s-1.046-2.469 0-2.469c.093 0-1.805-.096-2.088 2.09-.286 2.087 0 0 0 0s-1.237.094-2.374.471c-1.237.383.853 1.237.853 1.237s-1.804-.381-2.85.187l.667.855s-.665-.662-2.278-.093c-1.71.474.379.76.379.76s-1.708-.379-2.562 0c-.856.38.282 1.045.282 1.045s-3.132-.95-3.608-.665c-.473.286 1.046 1.806 1.046 1.806s-1.898.474-2.278 1.899l1.708.665s-.757.38-1.138 1.137c-.378.762 1.138.382 1.138.382s-2.087 1.519-2.087 2.659c0 0 1.521.472 2.658-.666 1.14-1.136.381-.757.381-.757l.094.757s2.183-.948 2.183-1.518c0-.473-.376.76-.376.76l2.184-1.14 1.423.95"/><path d="m505.2 172.433-.474-2.084s2.564 0 4.844.57l.854-1.995s2.278 1.044 3.04 1.801c0 0 4.461-1.138 5.791-.662l-.569 2.089s4.083.283 5.412.759c1.233.474-.57 1.521-.57 1.521s4.653.568 6.646 1.801c2.09 1.234 2.09 2.28 1.045 2.567l2.563 4.082s-4.083.474-4.844 1.521c-.758 1.044-1.519-1.047-1.519-1.047l-.758 2.85s-2.563-1.331-3.61-2.28c0 0-1.237 1.521-.475 2.28 0 0-3.323 0-4.655-3.04 0 0-1.994-.284-1.994 1.52 0 0-2.28-2.563-2.849-3.325l-2.565.762s-.76-1.045-1.708-1.332c-1.045-.189-.286 1.332-.286 1.332l-1.522-1.805-1.516-1.807s-1.333 1.804-2.377 1.804c-.952 0-.952-1.236-.762-2.091.284-.758-3.038-.95-3.322 0 0 0-.952-3.796 2.562-4.844l3.612-.95"/></g><g stroke-width=".611"><g fill="#d67c59" stroke="#000"><path d="M528.843 184.497s.57-1.33 1.615-.57c.95.759 1.232 4.084 1.232 4.084l-1.52.758s.856-1.232-1.327-4.272zm-8.633 29.82s.758-1.043-.285-3.325l1.518-.475s.57 1.804-.19 3.801h-1.046m26.304-5.228-3.607 2.186 1.804.855 4.368-2.566-2.567-.476m-48.336 14.15c-.952.761-1.045 2.091-1.614 2.85-.472.758-1.899 1.801-1.993 2.942-.19 1.139-.285 1.899.19 3.42.566 1.517 2.941 8.26 1.992 13.391-1.046 5.126-.663 7.311-.283 8.074.378.758 1.519 2.846 2.184 2.846 1.519-.19.855-.662 1.423-1.614 1.423-2.47 0-21.558-.666-26.876-.473-4.085-2.375-7.79-2.562-8.167-.19-.478-.57-1.71-.855-2.472-1.424-3.42-3.133-6.36-3.133-13.486 0 0-4.654 1.045-8.641-7.979-2.089-4.558-5.128-4.083-8.736-5.6l1.615-1.048s3.039 1.522 4.558 1.522c1.52 0 1.046-3.04 1.046-3.04l1.519-1.52v6.65c0 3.04 4.177 7.217 6.645 8.452 1.522.757 3.516-2.376 3.041-5.414-.476-3.038 0-7.121 0-7.121l2.089 1.232s-.76 1.33-.57 2.09c.284.761 1.328-.76 2.088-1.52 0 0 .189.19.95.19 0 0-1.52 2.563-2.278 3.894-.757 1.236-.757 6.08-.757 7.885s.664 5.98.664 7.31c0 .951 1.801 4.843 3.23 7.22.473.948 1.613 3.416 1.613 3.416 1.138 1.805 1.232 3.04 1.899 4.561.379.758 1.045 2.943 1.519 6.744.19.948.38 4.557.666 6.93.284 2.279 2.184.476 4.46-1.139 2.28-1.708 2.28-5.793 2.28-5.793s1.804-1.521 1.519-.665c-.19.95.952 1.9.952 1.9-1.424 3.227-.57 2.848.854 2.753 1.423-.192 6.36-3.895 6.36-3.895.665-.19 3.609-.19 3.134 0-.57.287-1.33 1.71-1.33 1.71l3.229-.38c-1.139.855-5.413 3.322-6.36 3.894-1.046.666-6.17 3.136-8.356 3.989-2.184.948-6.458 3.04-6.647 5.223-.095 2.186.284 8.074 0 9.971-.19 1.898-.95 10.353-.95 10.353H494s1.994-7.409-.097-9.402c-1.993-2.09-6.647-8.17-9.685-10.26-3.04-1.993 1.993-.472 1.993-.472v-2.09l4.653 5.605s8.07-7.123 0-16.809c-2.564-3.04-5.128-7.692-7.122-8.17-2.088-.57-3.133-1.045-6.647 0-3.609 1.044-12.25 1.044-15.858-4.656l3.04-.474 2.56-1.045s-1.042 3.61 6.173 3.61c7.122 0 8.167 0 7.598-6.648l2.087-1.046 1.522 1.522s-1.046 3.608-.476 5.127c.476 1.519 3.04 2.565 5.034 4.083.855.666 1.52.76 2.089.76.854-.094 1.043-.094 2.184-1.234 1.708-1.9 1.327-1.805 3.038-3.323 0 0 .854-1.33 1.045-1.521l1.045 2.755z" stroke-width=".47522358000000003"/><path d="M499.694 218.209c.379-.376 1.14-1.804 1.805-3.039 1.138-1.898 2.47-3.038 3.987-5.413 1.423-2.184 1.994-5.411 1.423-7.69l1.328.76.097 3.609s1.806-1.522 2.566-1.899l.757.378s-5.697 5.89-11.015 15.387l-.95-2.088zm-49.942-19.75c.76 1.326 1.521 3.895 3.798 5.888l1.52-.475s-3.513-4.083-3.513-5.886l-1.805.473m8.922-2.286s.475 4.844-.758 6.648l1.52-.756s1.042-3.324.757-5.13l-1.52-.758zm50.046-15.288s-.287 6.836 1.046 11.016l1.8-.568s-.282-1.238 1.235-1.807c1.522-.475 5.128-1.993 6.932-3.514l-.568-1.518s-2.753 2.184-4.083 2.754c-1.234.476-1.994 1.043-3.039.76-1.045-.287-2.277-1.997-1.52-5.891zm20.123 31.91s-.474 4.845-.189 6.935l1.615.38s-.378-5.793.662-6.268l-2.088-1.045m7.224 3.61s-1.804 3.135-3.892 3.42l3.323-.664s.952-.475 2.375-1.993l-1.807-.76" stroke-width=".47522358000000003"/></g><g fill="#338a00" stroke="#030"><path d="m507.012 202.062 1.232.756 1.33.194s1.423 1.33 3.038 2.562c1.232 1.045 1.232-.19 1.232-.19l.759 3.039h1.045s-.285 1.994-.285 3.04l1.805-1.522 2.089 1.805s1.519-1.329 2.277-1.329 1.046-.758 1.046-.758h.095c-5.033-2.376-7.214-4.844-5.697-7.409 2.47-4.273 6.552-1.521 7.88-.949l18.422 9.875s1.234-.758.38-1.521c-.953-.756-1.332-2.657-1.046-3.416.284-.76 2.373 2.372 3.416 2.658 1.045.286 3.417.667 3.417.667l-.094-.95s3.038 2.088 3.038 3.134c0 0 2.184-1.139 1.424-1.805-.759-.663 3.325 1.616 3.609 2.852l.854-.952c-.096 0 .285-3.04 1.329-4.465.952-1.421 1.994-1.803 1.994-1.803s.952-1.615 1.899-1.615c0 0-.952-.663-1.33-1.423-.475-.763-1.615-1.14-1.615-1.14s1.424-1.044 1.806-1.52c.379-.568.76-.667.76-.667s-2.184-1.801-3.706-2.084c0 0-.093-2.472-1.992-2.66h.855s-1.423-2.66-2.753-2.754c0 0 .854-.95 1.614-1.046 0 0-1.615-2.088-3.796-1.328l1.423-.567s-1.045-1.14-4.272-.57c0 0 .284-1.329-1.138-2.375 0 0-1.234.093-1.234 1.044 0 0-1.139-1.044-2.563-1.044s.475 1.521.475 1.521-1.899-1.236-3.04-.855c0 0 .475-2.184-.76-3.326 0 0-1.42.76-1.804 1.71l-.378-.949s-1.9 2.28-2.278 1.614c-.284-.379-.569-1.992-.569-1.992l-1.137 1.71.188-2.377s-1.328.76-2.373 3.228c0 0-1.33 1.236-1.33 2.372 0 0-1.044-1.232-1.993 0-.856 1.33 0 1.048 0 1.048s-.381.471-1.33.662l.19.758s-1.234-.663-2.185-.377l.474 1.138s-2.469.191-2.562-1.8c0 0-2.09-1.048-2.375.092l-1.52.95s-.475-.95-1.33-1.138c-.951-.285-.19 1.232-.19 1.232s-.282-1.139-1.422-1.71c-1.138-.47-.19 1.048-.19 1.048s-1.518-1.236-.757-2.185c0 0-1.423 1.33-.76 2.566l-.949.662s-.476-.473-.382-.854c.098-.38-1.614 1.139-1.614 1.139s-1.045-2.468 0-2.468c.095 0-1.804-.096-2.087 2.09 0 0-1.235.094-2.375.472-1.232.381.856 1.236.856 1.236s-1.805-.381-2.85.19l.666.855s-.665-.665-2.28-.097c-1.71.475.38.76.38.76s-1.708-.38-2.563 0c-.856.381.285 1.045.285 1.045s-3.135-.95-3.61-.662c-.473.282 1.045 1.804 1.045 1.804s-1.9.474-2.277 1.899l1.708.662s-.756.38-1.139 1.141c-.376.76 1.139.378 1.139.378s-2.087 1.522-2.087 2.66c0 0 1.52.473 2.659-.665 1.138-1.138.378-.76.378-.76l.097.761s2.184-.948 2.184-1.517c0-.476-.378.756-.378.756l2.184-1.139 1.423.952v-.002z" stroke-width=".47522358000000003"/><path d="m505.2 172.438-.474-2.088 4.844.566.853-1.993s2.277 1.044 3.039 1.801c0 0 4.461-1.138 5.793-.662l-.57 2.09s4.083.283 5.414.756c1.234.476-.57 1.522-.57 1.522s4.653.57 6.649 1.804c2.088 1.232 2.088 2.28 1.045 2.562l2.561 4.084s-4.081.474-4.841 1.517c-.76 1.045-1.52-1.042-1.52-1.042l-.76 2.848s-2.562-1.33-3.607-2.279c0 0-1.232 1.522-.474 2.28l-4.654-3.04s-1.995-.284-1.995 1.522c0 0-2.278-2.567-2.847-3.327l-2.567.76s-.756-1.041-1.708-1.33c-1.045-.186-.284 1.332-.284 1.332l-1.52-1.805-1.52-1.8s-1.33 1.8-2.374 1.8c-.952 0-.952-1.231-.759-2.087.285-.76-3.04-.949-3.323 0 0 0-.952-3.8 2.562-4.842l3.608-.95zm-18.413 13.01-1.615 1.522-.95-.476-1.898 2.09-.38-1.143-1.046 1.71-1.613-.569-.76 1.235-1.422-.286s-1.235 1.142-1.995 1.426c-.758.192 0-1.708 0-1.708s-1.14 1.9-1.994 1.9c-.758 0-.473-.856-.473-.856s-.474 1.232-1.423 1.423c-.856.097-.476-.948-.476-.948l-1.522 1.139v-.95l-.662-.284s.378-1.71 1.045-2.09c.663-.38-.666-1.517-.666-1.517l.663-.76s-1.9-.475-1.9-.094c0 0 .953-2.562 2.278-3.042l.097-2.847s1.33-1.139 2.563-1.236c1.328-.19-.379-2.184-.379-2.184l3.038-1.801.38-2.184 4.652.376.95-1.992 3.706.948 3.131-1.615 2.277 2.66 3.419.285s-.094 2.373-.094 3.04c0 0 4.081 1.231 4.557 1.614 0 0-.76 2.469-.76 2.943 0 0 2.851-.76 3.706-.57 0 0 .285 2.66.378 3.323 0 0 4.842 1.522 5.128 2.377 0 0-1.046.662-1.615 1.517 0 0 .57 2.946.57 3.894l-.38.57s-1.425-1.33-2.564-1.52l-.952 2.09-1.708-1.14-1.044.095s-.855-1.045-1.522-1.045l-.095-.949-1.329.854s-2.089-1.045-2.089-1.71c0-.57.096-1.522.096-1.522l-2.184 1.522s-.475-1.139-.378-1.615c.095-.474-.856 1.141-.856 1.141s-1.14-1.996-1.044-2.376l-.287 1.615s-2.277-.756-2.562-2.278v-.003z" stroke-width=".47522358000000003"/><path d="M456.397 194.754s3.99 1.997 3.99 2.946c0 0 1.045-2.09.474-2.85l1.52 1.045s.472-1.898-.097-2.47c-.476-.474 3.416-2.085 4.272.477 0 0 2.375-2.469-2.184-4.56 0 0-.377-1.519 2.375-1.138 0 0-.19-.95-.855-1.33h2.66s-1.615-1.33-3.989-1.71c-2.277-.381-.855-.663-.95-1.142-.19-.474 0-2.184 0-2.184s-1.33-.474-2.375.095l.38-.476s-2.47-.663-3.416-.093c0 0-1.425-.57-1.235-2.09 0 0-1.424-.094-2.087 1.422 0 0-1.33 1.522-3.133 1.522-.378 0-1.708-.762-1.708-.762l-1.141 2.66-1.804-.094.57 1.043s-2.754-.756-3.61 0c0 0 1.046 1.617.76 2.754 0 0-2.184.382-2.659.762-.57.375.76.662.76.662s-2.47.76-3.041 1.521l.952.756-1.14 1.524.952.186s-1.615.476-2.47.762c-.853.284 1.52.476 1.52.476l-1.139 1.042 1.806.283s-1.424 3.8-1.52 5.606c0 0 2.185-2.66 2.754-2.849l-1.708 2.849s3.23-1.043 3.514-1.522c.282-.569.568-1.043.568-1.043l.095 1.615s1.235-1.71 1.424-2.375c.097-.663 1.994.665 1.994.665v-.952s1.71.569 2.277.666c.666.094.76-.285.76-.285l1.615-.19-.286 1.328s1.138-.759 1.421-1.52c.191-.76.76 0 .76 0l.757-3.038h1.613zm-13.01 13.487 1.518 3.134c-1.233.094-3.038 1.518-3.038 1.518.283 5.225-1.043 4.939-1.043 4.939.375.95-.243 2.712-.243 2.712l7.553-4.515.096-.475 8.927-4.18.282.474 2.565-1.423 1.805 4.746-1.804 1.045c.097 1.615 1.994 4.466 1.994 4.466l2.375-.568 2.563-.951s.096 1.423.096.952c0-.383 2.752-1.33 2.752-1.33l1.234 1.234c.952-.093 2.658-2.376 2.658-2.376l1.994.762s.665-1.14.665-1.994c0-.76 2.468-.76 2.468-.76l1.71 1.232 2.185-1.801s.664 1.329 1.519 1.517c.952.096 3.322 1.899 3.322 1.521 0-.378 1.046-2.47 1.046-2.47l3.987 1.616c-.567-1.805-1.897-3.988-1.897-3.988s1.897-1.517 1.52-1.898c-.38-.381-1.52 0-1.52 0l1.138-2.279h-1.519l.473-.568-2.468-1.043 1.329-2.66c-.57-.668-7.122-1.998-7.122-1.998l1.52-1.423s-.76-1.139-1.52-1.139-4.748.097-4.937-.281c-.097-.382-1.711-1.808-1.711-1.808l-2.47 1.808-1.232-.382-2.184.856s0 1.234-.287.379c-.283-.762-2.278-2.754-2.278-2.754-.379.663-2.942 3.702-2.942 3.702s-.38 1.616-1.235.474c-.952-1.138-2.944-2.372-3.23-1.423-.284 1.046-2.086 1.994-2.47 1.711-.376-.288-2.467-.096-2.658.474-.094.663-2.373 2.372-2.373 2.372-1.425-.663-3.706-.281-3.706-.281s-.662 1.043-.756 1.897l-4.652 1.233h.003v-.003zm42.924 38.463v-1.995l2.277 1.519 1.33-1.521 1.708 1.708 1.045-1.708v2.756l2.564-2.277 1.517.662v-2.184s1.806-3.04 1.046-3.607l1.52-.474s-2.564-2.565-3.323-3.042c-.76-.568-1.805-.568-1.805-.568s-1.994-1.998-3.322-2.565c-1.235-.474-1.998.568-1.998.568s-.757-1.516-2.086-1.803c-1.232-.283-1.232 1.046-1.232 1.046s-.952-.952-2.184-1.426c-1.234-.566-.38 1.139-.38 1.139l-4.368-1.326.568 1.326-4.081-1.04.472 1.519-2.847-.479-.19 1.24-4.084.757.76 1.328-2.564-1.045v1.806l-2.85 1.043 1.046.952s-3.799 1.805-4.56 2.374c-.757.473 1.522 1.517 1.522 1.517l-4.084-.57 1.52 1.331-3.61 3.326 2.564 1.804-1.52 2.278 3.8.758 1.517 2.564 3.134-.57v2.847l4.558-3.606s3.325 2.943 3.609 2.089c.189-.759.189-3.323.189-3.323h1.615v-2.563l1.232 1.044 2.09-3.041 2.752 3.8 2.088-4.842 3.04.475zm18.61-11.49-.474-4.368-1.328 1.33.567-4.083-2.086-.381.757-3.987-1.518-.761.377-1.898 1.522-1.14 2.753-2.66 6.358.1.76-2.09 4.559.76c.757.855 3.131-1.71 3.131-1.71h.952l1.045 1.991s3.323-.476 4.841.57l-1.804 2.468 3.323.284 2.277.476 2.375-.76 3.04-.192.76 1.234h2.848l-.95 1.139 3.703 1.708-.757.762s2.087.758 3.607.758h.759s.759 1.801-.287 2.562c0 0 1.046 2.565 3.323 3.041 2.279.475 2.279.475 2.564 1.043.287.476 0 3.04-2.563 3.04v2.567s-1.994 1.803-2.278 2.56l-1.52-1.045s-1.326 1.522-1.326 2.567c0 0-3.325-4.371-4.56-4.562-1.33-.283-1.046 2.47-1.046 2.47l-3.606-3.038-.476 2.087-3.038-2.562-1.805 1.23-3.23-3.322-3.132.383 1.232-1.616h-3.796l-.759-3.323-.57 2.753-2.276-1.518-2.944 3.228s-.38-.383-.855-1.9c-.473-1.52-1.805 1.803-1.805 1.803l-1.044-2.373-1.232 2.373s-1.046-1.803-2.09-2.373c-.95-.474-1.993 2.847-2.277 4.368zm.57 9.969.189-1.517 5.412-2.092 4.56-1.708 2.276-1.045 1.046 1.805 1.328-2.563 2.089 2.657 1.14-1.424 1.804 1.329h1.52l.284 1.997s3.799.282 4.082-.474c.286-.761.759 2.562.759 2.562l3.607.474.76 4.083s1.802 3.8 1.234 5.32c-.476 1.615-1.995-1.994-1.995-1.994s-.284 2.849-.57 3.608c-.189.758-4.841-.76-4.841-.76l-1.995 3.8s-2.088-3.04-3.038-3.04c-1.045 0-1.045 3.04-1.045 3.04s-3.039-3.61-4.368-5.131c-1.235-1.517-1.521 1.521-1.521 1.521s-1.993-3.325-1.993-4.274c0-1.043-1.805-2.091-1.805-2.091s-3.136 3.61-5.415 4.562c0 0 .285-2.28-.474-3.04-.757-.761-3.039 1.518-3.039 1.518s-1.614-3.515 0-7.124z" stroke-width=".47522358000000003"/></g><g fill="none" stroke="#004b00"><path d="m530.56 188.575.476 1.9s1.708-.381 2.849-.285c0 0-.285 1.52-.665 2.184 0 0 2.278-.379 3.323.284l-.474 1.139 2.66 1.14-2.47 1.994s3.986 1.423 4.748 2.564c0 0-2.563 1.804-2.943 1.71-.38-.191-.096.757.57 1.612l-2.185-.093s.854 1.995.758 2.753c-.095.76-3.61.568-3.61.568m13.67-5.122s.665-3.798-.377-4.748c0 0 2.468 2.09 4.082 2.184 1.71.097-.097-3.134-.097-3.134s2.375 1.234 3.514 1.519c1.14.19-.855-2.375-.855-2.375s.663-1.236 2.563-.096m-44.147-15.096s.093-.855-.288-1.329c-2.278-3.134 2.375 2.376 3.323 2.565m4.366-.004s1.519 1.138 2.279 1.138c.759 0-.475-3.04-.855-3.417-.379-.381 2.754 1.232 3.894 1.424 1.138.284 1.328-1.898 1.328-1.898s3.514.569 4.275 1.045m-24.408-.663s-.284-1.994-.378-2.848m-23.543 12.35c-.19-.382.952-2.091.476-2.85 0 0 .662.57 1.327.665.57.094.378-2.185.378-2.185l.76.284s1.995-.952 1.615-1.711c-.383-.758 1.328 1.138 1.328 1.138s1.14-1.138 1.14-1.612c0-.48 1.328 1.136 1.328 1.136s1.424-.285 1.424-1.138c0-.854 1.804.283 1.804.283s.76-1.043.666-1.71m-19.181 9.5s.853-1.992-.096-3.322m-22.976 9.585c.095-.948.57-3.512.095-3.893-.474-.377.952.381 2.09.666m9.014-.375c-1.138-1.141-1.804-1.71-3.606-1.71m-15.667 8.066c.286-.663.759-2.278.475-3.228m24.306 50.334 1.233-2.565 1.52 3.608 1.043-2.28.38.76 2.277-2.468 2.47 3.704m39.601-16.048 1.615-3.227 2.184 1.14 1.045-3.135 2.277 1.425 1.33-2.944 2.563.663.188-2.088s1.805 1.042 2.28 1.801c.567.762 0-2.56 0-2.56l2.087.948s1.52-1.522-.57-2.376" stroke-width=".47522358000000003"/><path d="m523.532 226.096 2.278 3.325 1.898-2.184 1.71 3.701 2.184-1.329 3.132 1.804 1.423-1.138 3.42 2.47 1.424-2.942 3.038.949 1.992-3.416m-82.036-8.931s1.33-2.282.854-3.326c-.569-1.045 2.754 1.805 2.754 1.805s.757-2.28.284-3.323c-.57-1.045 3.798 3.04 3.798 3.04s.76-3.514 0-4.275c-.76-.76 4.179 1.045 4.179 1.045s1.995-.568 1.235-1.615c-.76-1.043 3.322 1.519 3.322 1.519s.95-2.562 0-3.514c-1.045-1.043 3.038 1.236 3.038 1.236l-1.519-2.756 3.323.19-.283-3.04m29.434 43.87 2.184-1.045 1.899 1.9 2.088-3.322 2.562 2.467.38-2.467 2.754 1.141.57-1.523 3.037 1.618.284-2.28 1.519.476.285-1.522" stroke-width=".47522358000000003"/></g></g><path d="M464.75 357.342a67.897 67.897 0 0 1-5.793-12.628l41.116-36.186 41.117 36.088c-1.424 4.177-3.325 8.643-5.982 12.918l-.327.525a401.026 401.026 0 0 1-3.092-1.19s-1.33 1.234-2.371 1.327c-1.424.192-2.66-1.232-2.66-1.232s-1.805 1.52-3.608 1.232c-1.804-.186-2.565-1.328-2.565-1.328s-1.897 1.519-3.229 1.234c-1.232-.29-2.088-1.143-2.088-1.143s-1.138 1.428-2.753 1.143c-1.518-.29-2.943-1.143-2.943-1.143s-2.37 1.042-3.892 1.234c-1.518.288-2.85-1.33-2.85-1.33s-1.993 1.33-2.752 1.33c-.76 0-3.608-1.33-3.608-1.33s-2.945.95-3.988.95c-.952 0-3.892-1.231-3.892-1.231s-2.754.756-3.987.756c-1.331 0-3.23-.756-3.23-.756s-2.275 1.043-3.512.756a12.861 12.861 0 0 1-2.375-.756s-2.468 1.043-4.083.756c-1.52-.282-3.323-1.326-3.323-1.326s-.285.76-3.23 1.326h-.095" fill="#9dc9e2"/><g stroke="#000"><path d="M500.078 266.93v41.595l-41.117 36.376c-3.986-11.586-4.271-21.937-4.271-26.4v-51.57h45.388" fill="#fff" stroke-width=".66422412"/><path d="M500.078 266.93v41.595l41.02 36.376c3.987-11.586 4.272-21.937 4.272-26.4v-51.57h-45.292" fill="#ffe682" stroke-width=".66422412"/><g stroke-width=".611"><path d="M473.552 348.7c3.09 1.675 2.044 1.148 8.451 3.416 5.223 1.808 11.298 2.66 20.129 2.66 7.726 0 12.076-.613 14.522-1.288 2.54-.728 3.14-1.753 3.14-1.753l-6.361 6.459s-25.568 1.379-30.198-1.615c-1.801-.952-5.696-4.083-9.683-7.881z" fill="#d67c59" stroke-width=".47522358000000003"/><path d="M511.063 336.64s8.167 4.653 0 13.58m-36.746-1.044 11.774-11.21-1.33 15.007m6.17 1.126V329.23m20.132 25.07v-26.591m-10.164 27.067v-28.584" fill="none" stroke-linecap="round" stroke-width=".47522358000000003"/><path d="m490.93 330.565-5.318 1.71 5.319.57v-2.281m9.968-3.9-5.6 2.09 5.6.19zm10.164 1.52-5.602 2.091 5.602.283v-2.376zm3.323 12.069c-.285-1.14 3.324-1.043 3.324-1.043s1.045 3.795 0 6.17l-3.038-.57s.285-2.562-.286-4.558z" fill="#d90f19" stroke-linejoin="round" stroke-width=".47522358000000003"/><g fill="#fff"><path d="m476.119 347.654 9.97-9.688-.476 5.795s-5.126 3.322-5.126 5.697l-4.368-1.805m5.31 2s1.046-3.04 3.892-4.559l-.284 6.078-3.606-1.521zm14.346-16.811s4.08-.57 7.121 0c0 0-.476 4.083 0 4.843 0 0-5.603-1.33-7.88.757 0 0-.76-3.799.76-5.6zm-8.643 1.045s4.083-.569 7.121 0c0 0-.759 4.561-.285 5.32 0 0-4.56-2.566-6.837-.478 0 0-1.52-3.131 0-4.842z" stroke-linejoin="round" stroke-width=".47522358000000003"/><path d="M486.843 339.198s4.082-.474 7.121 0c0 0-.474 4.083 0 4.844 0 0-5.318-1.234-7.597.76 0 0-1.046-3.8.476-5.604zm8.166-.756s5.888-.756 8.925-.282c0 0-1.234 3.322.287 5.601 0 0-6.363-1.71-8.736.283-.003 0-1.995-3.798-.476-5.603zm-8.633 6.365 7.879.57s-.758 5.793-.285 6.552c0 0-6.36-1.521-7.597.568 0 0-2.088-5.317 0-7.691h.003zm8.923 0s6.833-.476 9.97 0c0 0-1.807 4.372.19 8.167 0 0-8.927-2.56-10.164-.476 0 0-2.085-5.317 0-7.69zm10.444-11.965s4.08-.57 7.121 0c0 0-.473 4.083 0 4.843 0 0-5.602-1.33-7.879.757-.002 0-.762-3.799.758-5.6zm0 5.6s4.08-.474 7.121 0c0 0-.473 4.083 0 4.844 0 0-5.602-1.234-7.879.76 0 0-.762-3.799.758-5.602zm.476 5.89s4.08-.567 7.215 0c0 0-1.046 6.362-.57 7.12 0 0-4.648-2.183-6.835-.28 0 0-1.327-5.033.19-6.84z" stroke-linecap="round" stroke-linejoin="round" stroke-width=".47522358000000003"/><path d="M514.666 344.807s1.327 4.842 3.037 5.414l-2.277 2.753s-2.754-1.994-3.04-4.27c0 0 1.804-2.091 2.279-3.895z" stroke-width=".47522358000000003"/></g></g><g stroke-width=".61"><path d="M535.021 357.912c-6.551 10.923-17.28 21.177-34.942 27.54-17.948-6.456-28.866-17.187-35.324-28.016l.095-.095c2.943-.573 3.23-1.33 3.23-1.33s1.803 1.046 3.322 1.33c1.615.284 4.083-.76 4.083-.76s1.045.477 2.374.761c1.232.283 3.512-.759 3.512-.759s1.899.76 3.228.76c1.233 0 3.988-.76 3.988-.76s2.943 1.233 3.892 1.233c1.046 0 3.987-.949 3.987-.949s2.85 1.33 3.61 1.33c.757 0 2.753-1.332 2.753-1.332s1.327 1.615 2.846 1.331c1.52-.19 3.894-1.233 3.894-1.233s1.423.855 2.943 1.138c1.613.287 2.753-1.138 2.753-1.138s.854.855 2.089 1.138c1.329.287 3.227-1.233 3.227-1.233s.759 1.14 2.565 1.328c1.804.286 3.609-1.232 3.609-1.232s1.231 1.424 2.657 1.232c1.045-.095 2.372-1.328 2.372-1.328s2.374.757 3.228 1.045" fill="#006ac8" stroke="none"/><path d="M533.407 360.385c-1.423.097-1.615-.855-1.615-.855s-1.894 1.617-3.702 1.33c-1.898-.281-2.753-1.517-2.753-1.517s-1.994 1.614-3.324 1.328c-1.328-.19-2.278-1.14-2.278-1.14s-1.232 1.427-2.848 1.14c-1.615-.189-3.04-1.14-3.04-1.14s-2.563 1.048-4.179 1.332c-1.614.286-2.943-1.52-2.943-1.52s-3.703 1.236-4.461 1.236c-.856 0-3.516-1.236-3.516-1.236s-1.803 1.14-2.846 1.14c-1.14 0-4.179-1.33-4.179-1.33s-2.85.76-4.18.76c-1.33 0-3.322-.76-3.322-.76s-2.47 1.044-3.799.761c-1.33-.287-2.374-.762-2.374-.762s-2.658 1.045-4.272.762c-1.615-.287-3.514-1.33-3.514-1.33s-.284.664-3.416 1.33h-.097" fill="none" stroke-width=".47522358000000003"/><g fill="#006ac8" stroke-width=".732"><path d="M474.439 364.258s-.266.621-2.742 1.167c-.053-.003-.672.146-.672.146.229-.041.414-.074.614-.116a11.508 11.508 0 0 1-.7.233c2.8 4.044 6.994 7.716 11.365 10.661 4.371 2.945 9.395 6.461 17.948 8.97 8.992-3.512 11.392-4.847 17.27-8.783 5.877-4.294 8.939-6.968 12.217-11.372-2.567 1.458-2.198 1.474-3.528 1.284-1.33-.283-2.305-1.254-2.305-1.254s-1.214 1.447-2.828 1.255c-1.615-.283-3.034-1.254-3.034-1.254s-2.109 1.434-4.2 1.34c-1.614-.096-2.947-1.516-2.947-1.516s-3.705 1.225-4.463 1.225c-.855 0-3.5-1.226-3.5-1.226s-1.814 1.137-2.857 1.137c-1.139 0-4.172-1.341-4.172-1.341s-2.842.759-4.17.759c-1.33 0-3.325-.758-3.325-.758s-2.37 1.043-3.793.759c-1.33-.283-2.392-.758-2.392-.758s-2.646 1.043-4.258.758c-1.615-.282-3.528-1.312-3.528-1.312z" stroke-width=".5693349600000001"/><path d="M500.254 385.324c9.29-3.867 10.967-4.919 16.586-8.354-.98.027-3.83-.894-2.798-1.187 0 0-1.143 1.029-2.281 1.029-1.046 0-4.084-1.326-4.084-1.326s-2.846.756-4.176.756-3.324-.756-3.324-.756-2.47 1.043-3.799.756c-1.33-.281-2.374-.756-2.374-.756s-2.754 1.043-4.272.756c-1.614-.281-3.515-1.327-3.515-1.327s-2.337 1.239-3.804 1.381c4.49 3.288 9.214 6.498 17.842 9.028z" stroke-width=".5693349600000001"/></g></g><g stroke-width=".509"><path d="M461.745 270.468c-.659-.017-1.448.37-2.663 1.471-1.917 1.73-2.607 3.515-.09 5.67l12.463 11.336c1.82 1.769 4.366 2.093 5.433 3.01l12.67 12.956c1.596 1.38 2.361 2.357 1.458 3.535-1.001 1.939.07 2.2.3 2.26 1.734.39.791-.696 1.015-1.257.3-1.185 1.595-2.208 2.515-2.704.598-.233.926-.11 1.076.21.546.22 1.124-.598.319-1.461-.693-.965-1.777.602-2.999.234 0 0-1.842-1.142-2.346-1.96-1.076-1.196-2.462-2.27-3.259-3.297-.845-.952-4.021-5.154-8.857-9.99-1.391-.908-1.075-4.341-2.07-5.407-.085-.743-9.67-10.23-13.09-13.662-.69-.509-1.216-.927-1.875-.944z" fill="#d67c59" stroke-width=".4749981"/><path d="m462.352 275.572 13.028 12.873" fill="none" stroke-width=".46666799999999997"/><path d="M479.992 281.452c.201-.387.642-1.374 1.108-2.451.184-.426 3.689-6.015 5.435-6.18 0 0 10.899 7.93 10.907 8.034.038.428-4.727 7.554-5.142 7.012 0 0-12.768-5.36-12.307-6.415z" fill="#e8e8e6" stroke-width=".5327793000000001"/><path d="M486.936 283.319c-1.493-1.159-3.959-2.29-5.95-3.617l-.896 1.867c.72.806 9.788 5.021 11.278 5.833 0 0-1.727-1.98-4.433-4.083z" fill="#ccb8c8" stroke="none"/><path d="M480.98 279.464c1.167.817 3.384 2.217 4.784 3.034 2.683 1.866 4.382 3.923 6.3 5.016" fill="none" stroke-width=".3733344"/><g stroke-width=".611"><path d="m458.898 313.429 24.815-30.71c.467-.427 2.766-.449 3.078 1.93l-23.501 32.028c.001 0-2.676-.265-4.39-3.248zM542.078 313.765c-.856.667-2.309.84-2.309.84-1.612-1.9-2.944-3.894-5.222-6.362l-24.785-30.484 2.563-2.468 22.313 26.115c.665.664 4.56 4.75 8.264 9.59.002.001.325 1.896-.825 2.772z" fill="#d67c59" stroke-width=".47522358000000003"/><path d="m518.212 281.648-3.989-4.748s-3.038.378-3.607 1.994c0 0-2.184 3.609-7.976 3.99 0 0 1.612 6.742 8.354 10.35 0 0 2.47-6.935 4.843-8.168 0 0 2.468-1.805 2.375-3.416z" fill="#e8e8e6" stroke-width=".47522358000000003"/><path d="M508.244 302.732c-.57-.19-1.138 0-1.995.476-.757.476-1.708.284-1.614-.667.096-.855 0-.757 1.045-1.422 1.521-.855 3.514-.952 4.748-.476l-2.184 2.091m27.058-26.975c-.19-.663-.378-1.326.285-2.181.664-.76.664-2.09-.953-1.427-1.614.667-2.184 2.47-.853 5.225l1.518-1.618z" fill="#d67c59" stroke-width=".47522358000000003"/><path d="m507.674 303.302 28.108-27.921 6.93 7.408s-1.424-.572-1.994-.193c-.475.38.569 1.805.569 1.805s-1.329-.475-1.898-.095c-.665.378 0 1.993 0 1.993s-1.139-.854-1.71-.476c-.473.383 0 2.184 0 2.184s-1.518-.473-1.896-.094c-.382.38 0 1.995 0 1.995s-1.522-.76-2.28 0c-.758.758.38 1.805.38 1.805s-1.9-.76-2.66.378c-.758 1.14.096 2.184.096 2.184s-1.518-.758-1.898-.381c-.38.38 0 2.184 0 2.184s-1.328-.76-2.183.193c-.856 1.045.095 1.899.095 1.899s-1.232-.762-1.9-.383c-.666.383.19 2.184.19 2.184s-1.233-.855-2.09 0c-.854.952 0 1.898 0 1.898s-1.044-.95-2.087 0c-.952 1.045 0 2.09 0 2.09s-1.519-.758-2.088 0c-.664.757.189 1.806.189 1.806s-1.139-.665-1.898-.29c-.756.383 0 2.091 0 2.091s-1.138-1.234-1.612-.567c-.57.663.095 2.278.095 2.278s-1.046-1.235-1.615-.568c-.664.57.379 1.994.379 1.994s-1.898-.855-1.423-.855z" fill="#e8e8e6" stroke-width=".47522358000000003"/></g><path d="m534.163 277.663-2.184 2.184.475 7.504s.475-2.184 1.137-.667c0 0 .192-1.803.666-1.517-.382-.193-.095-7.505-.093-7.505m-4.08 4.08-1.614 1.518.57 7.504s.475-2.85 1.138-.57c0 0-.096-1.898-.096-2.565.002.476.002-5.887.002-5.887m-16.996 16.818-1.52 1.613.382 4.56s.474-2.943 1.138-.667c0 0-.19-1.894-.19-2.562 0 .476.19-2.945.19-2.945" fill="#4d4d4d" stroke="none"/><g fill="none" stroke="#4d4d4d" stroke-width="1.099"><path d="M511.184 279.754c1.046 1.045 3.99 4.841 3.99 4.841m-2.655-2.75c-.189.57-.567 2.183-1.422 3.039m1.889-2.666c-.096.38-.096 1.614-1.422 2.85m1.898-2.271c-.19.662-.285 1.138-.759 1.614m1.048-1.045c0 .474-.283.569-.378.855m-3.131-2.666c-.38.378-3.135 2.182-4.653 2.753m3.887-1.708c-.379.381-2.089 1.71-3.039 2.09m2.76-.951c-.57.383-1.52 1.33-2.278 1.615m1.708-.476c-.379.474-.95.855-1.423 1.14" stroke-width=".85478022"/><path d="M492.144 285.923c.31-.572.85-1.695 1.556-2.722.896-1.304 1.281-1.525 1.75-1.984" stroke-linecap="square" stroke-width=".85478022"/></g></g></g><g stroke-width=".611"><path d="M400.471 362.476c1.424.662 0-4.655.473-6.648.57-2.09 4.653 5.128 6.65 6.08 2.089 1.043 14.812-5.036 14.812-5.036l3.038-5.697 1.615 4.651s3.513-4.083 4.558-5.601 0 3.04-1.045 4.558c-1.046 1.522 3.038 2.091 2.562 5.13-.476 3.04 4.083-2.09 4.083-2.09l11.774 1.045s1.991-7.124 5.126-11.208l.95 4.562 4.842-4.937c5.413 14.246 16.81 29.727 40.166 38.177 21.934-7.977 33.235-22.13 39.12-35.616l6.552 6.748s5.128-1.523 6.077-2.09c1.044-.477 12.06 3.894 12.06 3.894s1.993.76 3.039 1.522c1.043.757.283-3.326.283-3.326s5.603 1.044 5.127 4.083c0 0 1.235-2.848 2.28-3.322 1.046-.476 3.512 2.563 4.084 3.607.474.952 12.535 2.47 14.243 3.514 0 0 1.33 1.521 1.33 2.565 0 0 2.564-.286 4.559-.286 0 0-1.52.756-1.52 2.374 0 1.521-.76 2.756-2.279 3.513-1.52.76 0 1.328 1.995 1.521 2.089.283 0 2.847-4.084 4.37 0 0-.95 2.277.76 3.036 0 0-3.516.287-4.083-.759 0 0-1.232 2.374-1.232 3.61 0 0-3.8-1.237-4.844-1.805 0 0-1.52 1.516-.476 2.277 0 0-6.93-.758-8.26-3.323 0 0-2.47.759-1.995 1.615 0 0-4.842-3.323-6.361-3.323l-1.046 1.705s-3.322-1.992-4.368-1.992c-.952 0-.19 1.519-.19 1.519l-4.65-2.85-1.803 2.85s-3.8-1.806-4.843-2.564c-.952-.759-1.232 1.518-1.993 1.801 0 0-1.52-2.086-3.61-1.8 0 0-.758 2.561-.473 3.322 0 0-5.888-1.234-6.93-1.522-1.046-.283-.475 1.236 0 2.282 0 0-4.369-1.235-5.32-1.998l-.284 1.998s-3.605-.287-4.366-1.046l-2.279 3.132h-3.323l-.758 2.753s-5.741-2.111-6.269-.669c-.474 1.042-.378 2.473-.378 2.473l-4.717-.316-1.446 2.543s-6.37-2.437-7.89-1.488c0 0-3.012 1.914-4.342 2.388-1.68-1.697-2.955-2.301-4.583-2.841-1.674-.263-5.317 1.991-6.648 1.232 0 0 0-1.807-1.042-2.28-.952-.476-2.754-.476-3.516.76 0 0-.756-1.045-2.087-3.04-1.233-2.09-3.04.19-3.04.19l-.284-2.47-3.514-.286c-2.09-.285-2.563-2.09-2.563-2.09s-5.412.569-6.172.287l1.329-1.237s-7.405 1.522-8.923.953c-1.615-.474 1.708-2.565 1.708-2.565s-6.837-1.706-8.167-1.993c-1.232-.284-8.64 1.23-9.686 1.23s-1.52-1.71-1.52-1.71-1.805 1.522-3.324 1.998c0 0-1.234-3.038-.473-3.324 0 0-4.843 1.33-5.128 2.566 0 0-1.232-1.994-1.045-2.85 0 0-2.278 3.61-3.323 4.368-1.045.76-.19-1.804-.19-1.804s-2.847 3.607-3.893 3.894v-2.566s-8.166 4.368-10.444 3.801c0 0 0-1.808.759-2.28l-5.128-.285c-1.232-.189-2.754-.756-4.082-1.044-1.232-.192 1.805-1.518 3.894-.95 0 0-5.697-2.089-7.408-1.045 0 0-.76-2.089 2.277-2.85 0 0-3.893-3.796-6.173-3.513 0 0 2.567-1.519 4.655-.761 0 0-2.375-6.455-3.894-7.215 0 0 5.413-.95 6.932-.186z" fill="#358b03" stroke="#060" stroke-width=".47522358000000003"/><g stroke="#000"><path d="m392.585 251.072 69.127-35.803c.331-1.851-.719-3.304-1.804-4.75-19.768 9.695-37.76 21.46-59.726 28.588-1.234.476-12.155 5.032-17.757 11.777-1.777 1.78-1.908 4.409-1.908 4.409s.136 3.015.77 3.829c0 0 .165.828 1.198 1.49-.012 0 .638.318 1.088.157.501.093 1.318.087 2.458-1.91 1.14-1.9 4.845-6.267 6.553-7.789z" fill="#d67c59" stroke-width=".47522358000000003"/><path d="m448.23 215.652 8.925-4.275s3.04 2.279 2.753 4.844c0 0 .666 5.887 7.979 9.97 0 0-6.175 7.691-16.997 8.358 0 0 1.242-10.152-1.036-13.097 0 0-.38.364-.214-.14.322-.988-.22-4.375-1.606-5.121-.17-.094.11-.37.196-.54z" fill="#e8e8e6" stroke-width=".47522358000000003"/></g></g><path d="M458.674 216.884c-1.898.76-8.07 3.987-8.07 3.987m5.13-2.092c-.096.949-.665 3.229 0 4.843m-.858-4.554c0 .474-.76 2.184.095 4.464m-1.038-3.988c-.19.952-.379 1.521 0 2.566m-.765-1.997c-.19.57 0 .856 0 1.232m5.6-1.521c.284.758 2.848 4.747 4.368 6.362m-3.986-4.561c.287.76 1.71 3.514 2.754 4.56m-2.94-2.945c.379.95 1.138 2.66 1.898 3.609m-1.898-1.705c.19.76.57 1.71 1.138 2.377" fill="none" stroke="#4d4b4d" stroke-width=".7598910600000001"/><g stroke="#000" stroke-width=".509"><path d="M520.882 198.922c-1.263.152-2.403 1.016-3.684 3.2-2.24 4.284-1.696 6.62 5.071 9.554h.003l25.391 12.435c5.089 2.473 6.92.184 9.792 1.432l50.113 25.527c4.3 1.88 6.706 2.48 6.088 4.704-.085 2.867.928 3.261 1.625 3.396 1.08.452 1.916.708 2.144-.541.165-.248-.136-.65-.456-1.175-.32-.526-.658-1.178-.576-1.92.083-.743.143-1.093.39-1.485.248-.392.683-.824 1.508-1.732.413-.454.802-.654 1.172-.69.37-.036.723.09 1.058.286.462.27.865.584 1.28.876 1.67-.134.181-2.506-.977-3.408-2.522-1.182-2.81 1.5-5.466 1.217 0 0-4.748-1.802-6.458-3.037-3.149-1.714-7.546-3.748-8.545-4.863-3.2-.6-27.284-14.148-40.928-20.947-1.464-1.224-2.261-5.756-5.136-7.272-.845-1.223-19.316-9.657-28.975-14.486-1.78-.664-3.17-1.223-4.434-1.07z" fill="#d67c59" stroke-width=".4749981"/><g fill="#ffa54b" transform="translate(150.593 67.515) scale(.93334)"><path d="M309.734 165.117c-.203.61-.712.203-.712.408-.405 2.135-.305 3.253-.813 4.475-.712 1.424-3.256 2.748-3.154 2.645-2.033.61-4.474 3.054-8.44.814-.205-.1-.407-.306-.61-.508 0 0 1.116 4.17-2.95 6.204-1.425.713-15.77 8.244-15.77 8.244s-1.527 2.748-.51 6.512c.103.61.305 1.118-.305 1.526-.916.71-2.646 2.748-3.662 6.004 0 0-3.053-1.324-3.053-3.256 0-1.934 1.22-2.95 1.526-4.378.304-1.32 1.117-4.68.712-5.698-.406-1.12-2.238-1.526-2.95-1.933-.61-.41-1.425.405-1.322 1.32.103 1.02.813.813 1.628 1.02 0 0-.916 1.93-.813 3.355l-9.257 4.783s1.22 1.626 1.627 2.34c.405.712 1.32 10.175 4.07 14.653 2.746 4.478 3.662 3.257 4.272 3.867.508.508 1.32 1.32 2.034 1.934.712.51 3.865.812 4.477-.915.712-1.63 1.22-2.647 3.154-4.174 1.933-1.523 5.9-5.39 5.9-7.122 0 0 2.34 6.716 2.033 12.313 0 0 8.546 1.732 16.177 1.933 7.632.105 11.497-1.524 11.497-1.524s1.018-6.41.608-7.632c0 0 1.22 4.172 2.137 5.596 1.018 1.727 2.135 5.288 4.373 5.493 2.137.1 3.97-2.135 4.17-3.05v-6.717h8.648c0-.1 3.867 1.424 5.087 1.22 1.22-.102 1.933-1.22.813-1.628l-.405-.303c1.117 0 2.543.71 2.543.71h4.27c.104-.102 0-.41-.102-.51-.305-1.22-2.544-2.24-4.17-2.95-1.63-.608-3.46-1.323-4.68-1.423-1.933-.206-3.257-.1-6.207.408-.814.1-3.866.405-5.8 1.32-.51.307-1.02.407-.813-.915.306-1.426.204-7.835-1.32-10.583-1.12-1.932-1.018-3.562-.814-5.188.104-1.63.204-7.226 0-8.855-.306-1.627-2.544-3.867-6.61-4.375-3.867-.51-7.124-3.664-7.326-6.207-.305-2.542.408-7.223.814-9.257" fill="#ad7c59" fill-opacity=".99"/><g fill="none"><path d="M292.444 153.627c-.712 3.253-.712 6.104-.61 9.257.103 2.135 1.12 4.577 2.035 6.715.61 1.426 1.425 3.052 2.746 3.867 3.563 2.34 6.92-.204 8.853-1.018.916-.308 2.34-1.626 2.747-2.442.508-1.22.303-2.135.812-4.475-.103.1.813-.408.712-.408.916-1.526.712-2.034 1.22-3.054.51-1.018-.608-2.136-1.83-1.93.608-1.934 1.018-4.073.404-5.905-.202-.608.51-2.235-.608-1.832-4.58 1.832-9.97 1.426-14.854 1.426-.406 0-.712-.815-1.32-.71-.104 0-.205.303-.308.505" fill="#ad7d5a"/><path d="M292.034 155.347c-.508-.406-.61-1.32 0-3.256.712-1.928 0-2.033 1.12-3.152 1.12-1.12.813-1.63 1.525-1.932.71-.206 2.848-.206 3.56-.508.61-.308 1.526-.714 2.948-.916 1.526-.308 4.58-.206 6.003.608 1.527.812 2.545 2.85 3.46 3.56 1.02.71 1.63 3.662 1.427 7.94-.307 4.27-1.12 3.457-1.12 3.457s-1.222-2.034-2.238-.308c0 0 0-1.627.203-2.85.102-1.218-.61-3.457.102-4.984 0 0-5.8 1.832-8.75 1.73-3.052-.203-7.323-.917-7.527-1.627l-.714 2.237" fill="#000"/><path d="M294.984 151.797c-.305-.61-1.832-2.85-.61-3.56 1.12-.613.407 2.744 1.936 3.457 0 0-.51 1.526-1.32.102z" fill="#fff" stroke="#fff"/><path d="M298.344 160.137c-.508 1.732-.712 2.138-.916 3.156m10.586 1.624c.204.61.404.303.914.405m.406-3.965c.51-.61 1.22-.303.813 1.223"/><path d="M292.444 157.697c.916.303 1.832.608 2.748 1.02 1.526.61.61 2.845.204 4.27-.204.715-1.02 1.934-.61 2.547.51.81 1.12.303 2.036.403 0-.303.61-.508.813-.508.712-.1 1.12.507 1.627.307.61-.308.51-1.224.306-1.73m-.104-4.479c.102-.403 1.018-.81 1.526-.915 2.136-.405 3.66-.712 5.393.51m-5.699 11.085c-1.73.408-3.56.71-5.188-.206m-.002-.804c.813-.408 1.12-.816 2.137-.308 0-.102 1.12-.406 1.12-.406.813 0 1.323.304 2.137.812m-5.494.302c.916-.306 3.358-.306 5.394.102"/><g stroke-width=".305"><path d="M292.344 160.137c.713-.1 1.526-.916 3.154.306 1.12.712-1.832 1.426-1.322 1.324-1.32.202-1.73-.508-1.828-1.122 0-.202-.204-.508 0-.508zm8.34.81c.712-1.426 1.832-1.12 2.85-.816 1.018.307.712.106 1.628.614-1.12.203-.814.303-1.63.71-.915.408-1.728.61-2.34.206-.204-.206-.712-.508-.712-.916 0 .1.102.203.204.203z" fill="#fff" stroke-linecap="round" stroke-linejoin="round" stroke-width=".304"/><path d="M293.764 161.357c.406 0 .712-.406.712-.814 0-.508-.306-.916-.712-.916-.507 0-.812.408-.812.916 0 .408.303.814.812.814zm8.65.2c.405 0 .712-.403.712-.916 0-.507-.407-.81-.813-.81-.405 0-.712.303-.712.81 0 .515.408.917.814.917z" fill="#000"/></g></g><g id="a"><g fill="none"><path d="M345.854 213.657c-.608-.714-1.018-1.02-1.83-1.324-.61-.303-1.424-.71-2.036-1.016-.712-.408-1.73-.508-2.34-.916m.406 2.646c-.306-.203-.508-.304-.812-.51-.306-.1-.712-.1-1.02-.203-.102 0-.102-.204-.203-.204-.916-.102-1.832-.51-2.44-1.32m-62.775-9.363c.914.71 3.152 2.24 3.356 5.19.204 1.525 1.02 3.05 1.02 3.05m-13.126-7.83c.51 1.727.61 7.425 6.003 13.43m-4.983-21.37c-.408 1.12-.916 2.137.202 2.95m14.448 10.69c1.12-2.545 4.578-2.342 4.578-4.782"/><path d="M284.814 207.247c-.306-2.85-.916-4.475-.405-8.647.202-1.223.404-5.9 0-8.14 0 0 1.628 7.832-3.663 9.362m34.388 12.515c0-3.97.916-6.21.916-6.21 1.22-5.592-1.12-7.73-.203-9.154.812-1.22 2.035-3.766.407-8.854 0 0 2.847 10.483-4.478 10.483-7.425 0-7.12-2.748-7.12-2.748"/><path d="M284.404 190.457c0 2.135 0 8.447 9.055 8.447 2.745 0 5.697-1.933 7.323-3.256m2.242-2.751c-.306-1.934-.306-4.375-.306-6.92m-13.634-3.45c2.44-.308 4.376-.61 8.955-.61m.305-6.32c.51 2.24-.304 5.8 3.866 6.31m4.374-7.12c-.61 1.63-.61 3.256-.814 4.375m.204 2.755c1.73 0 4.985-1.12 9.054-.306m1.426 22.786c.813 1.63 1.018 3.765 3.56 6.207m-31.74-11.397c.204 1.324-1.73 5.698-.306 9.262 1.322 3.558 1.12 7.63-1.12 11.088m6.616-19.02c-.813 1.626-2.238 3.256-2.544 4.68m6.604-1.63c0 1.018-2.744 8.75-4.68 10.886 0 0 3.56 1.424 3.05 6.614m7.33-21.06c0 1.324-.204 1.63.916 2.44m2.444 0c1.32 1.628 5.492 6.514 4.576 9.26m-7.326-6.51c.306 1.018.306 6.31-.61 8.955m-2.13-.205c-1.12 0-2.746.814-3.052 2.747m8.742-3.057c1.118-.306 3.355 1.626 3.355 7.123m15.675-10.273c-2.136.61-3.052 1.732-2.44 1.12-1.12.915-2.138 1.525-2.138 1.525"/></g><path d="M289.794 197.987c.608 0 1.118-.408 1.118-.916 0-.41-.507-.815-1.118-.815-.51 0-1.02.405-1.02.816 0 .506.508.917 1.02.917zm23.1.31c.51 0 1.02-.405 1.02-.916 0-.504-.508-.81-1.02-.81-.607 0-1.118.306-1.118.81 0 .512.51.917 1.118.917z" fill="#000" stroke-width=".305"/><path d="M280.544 239.807c1.22-7.937 4.985-14.55 5.086-15.162 0 0 3.865.816 10.58 1.424 6.612.71 8.444.407 11.496.2 2.95-.302 6.815-.81 6.815-.81s1.222 2.44 1.323 4.883c.305 5.188 2.236 27.677 2.44 33.68 0 0 .813 3.56.813 12.31 0 9.568 2.645 29 2.645 39.382l-2.644.51s-14.446 1.12-14.446-.814c0-2.134-.813-27.065 1.322-42.125 0 0-.508-2.95-1.322-5.496-.813-2.443-4.375-10.074-4.375-11.7 0 0-5.695 16.073-6 18.825-.305 2.543-1.12 38.357-1.63 41.312 0 0-8.24 6.308-9.36 6.92-1.117.51-9.053-3.36-9.257-4.375-.306-1.118.814-13.23 4.578-33.176 1.425-7.123.61-8.44.61-10.375 0-1.933.103-27.473 1.322-35.41z" fill="#e8e8e6"/><path d="M294.274 274.917c-.61 2.24-1.628 4.375-3.56 5.803m-2.75-53.633c-.304 1.322-2.238 7.325-7.122 10.887m14.242-9.767c-1.12 3.562-5.493 22.693-6.31 45.383m-.3 7.127c-.204 2.135-1.322 18.012-1.628 20.756m-.812 3.054c-.51 1.117-2.746 10.375-2.746 18.62m32.246-35.92c-.204 1.933-1.02 15.668 3.56 27.98m-18.51-85.98c-.305 2.237-.813 16.688-.813 17.806 0 1.117 1.63 2.747 2.442 3.054 0 0-1.628.51-1.933 6.003m-4.076-12.923c-.308 1.727-1.934 8.547-3.054 11.295m13.124-25.435s4.884 1.018 5.188 0c0 0 1.628 29.512 3.866 45.89m-11.184-42.13c0 1.934-.61 16.485-.61 16.485m2.44 2.135s1.93 2.745 1.425 4.066m-17.805-28.076c1.63.508 3.053.812 3.053.812m5.187 1.628c-.307.814-.61 4.58-.61 4.58m8.75 38.87c.61.814 1.425 1.936.814 4.377" fill="none"/><path d="M284.914 224.447s0-3.256 1.22-4.886c0 0 3.457.715 8.342 1.223 4.984.508 8.95.916 12.615.508 3.664-.405 7.43-1.32 7.43-1.32s1.016 4.783.505 5.495c0 0-3.968.814-8.34 1.016-4.478.304-11.903-.407-14.446-.81-3.36-.41-6.31-1.02-7.326-1.223z" fill="#d67c59"/><path d="m288.064 224.847.608-4.883 1.02.1-.204 5.088zm22.08-4.07.103 5.496 1.22-.206-.1-5.597zm-15.67 0-.406 5.29h.713l.713-5.29z" fill="#fff"/><path d="M276.774 320.807c-.305 1.322-.812 3.154-1.018 5.496 0 .508-.507 3.256 1.018 3.356 1.12.102 1.425-2.85 1.425-2.85s-1.02 3.256.304 3.664c1.832.403 2.034-3.562 2.034-3.562-.204 1.12-1.425 3.97.306 4.27 1.83.308 2.34-3.866 2.34-3.866s-1.526 4.174.304 4.275c1.73.1 1.73-4.07 1.73-4.07s-.917 4.987 1.525 4.58c1.32-.204 1.628-1.935 1.933-2.952.406-1.524 1.322-3.457.204-6.612-.812-2.34-.507-2.95-.507-2.95s-2.85 2.137-5.087 3.56c-1.02.61-6.514-2.34-6.514-2.34zm29.71-4.38c-.508-.307-.406 1.832-.61 2.846-.102 1.02.205 3.257 3.664 3.055 3.355-.307 6.715-1.018 8.85-.51 2.138.61 5.29.712 7.022.712 1.73 0 2.85-.202 3.66-.51.714-.302 2.24.41 2.95.41.714 0 1.832-1.12 1.73-1.833-.102-1.324-1.32-1.324-3.053-1.424-1.628-.203-3.865-.51-4.983-.916-1.12-.408-3.154-1.527-5.698-2.035 0 0-4.883.205-5.898.205-1.02 0-7.022.303-7.634 0z" fill="#653024"/></g><g fill="#ad7c59" stroke-linecap="round"><path d="M255.714 189.847c-.507.306-1.12-2.035.406-2.95 0 0 .406-1.932 2.035-2.137 0 0 1.32-1.832 3.257-1.626 0 0 2.235-1.525 3.05-1.324.813.102 2.85 2.136 2.95 2.85.205.71 0 1.933-.51 2.442-.61.608-1.018-.102-1.12-.916 0 0 .408 1.524-.812 2.135-1.22.715-1.12.207-1.22-.61 0 0-.307 1.63-1.12 1.833-.813.305-1.32-.408-1.934-.408 0 0 1.02.816.307 1.426-.713.51-1.526.304-2.036-.1-.51-.51-1.12-1.833-3.257-.61z" stroke-linejoin="round"/><path d="M265.684 186.087c-.51-1.63-2.137-3.054-4.07-2.848m2.24 4.368c-.306-.408-.408-.816-.712-1.22-.916-1.528-2.85-1.424-4.477-1.832m2.439 4.582c-.61-.406-.813-1.222-1.425-1.524-1.02-.408-2.035-.916-3.256-.714"/></g></g><g transform="translate(150.597 67.512) scale(.93334)"><path d="M439.14 165.12c.712-.306.51.61.61.916.306 1.32.306 2.748.813 3.967.608 1.12.812 1.526 1.83 2.035 1.627.916 6.407 3.562 9.767 1.424.204-.1.508-.306.712-.508 0 0-1.22 4.172 2.95 6.207 1.32.71 15.668 8.242 15.668 8.242s1.525 2.748.61 6.512c-.205.61-.406 1.118.203 1.526 1.02.71 2.644 2.748 3.766 6.004 0 0 2.946-1.324 2.946-3.256 0-1.934-1.22-2.95-1.525-4.375-.2-1.324-1.016-4.682-.607-5.698.405-1.118 2.135-1.526 2.847-1.936.714-.41 1.526.405 1.322 1.32-.102 1.02-.812.817-1.628 1.02 0 0 1.02 1.93.814 3.355l9.358 4.783s-1.22 1.63-1.628 2.34c-.51.715-1.425 10.175-4.17 14.653-2.75 4.478-3.664 3.257-4.172 3.867-.61.508-1.424 1.324-2.137 1.934-.61.51-3.765.815-4.477-.915-.712-1.628-1.22-2.647-3.153-4.174-1.934-1.523-5.9-5.39-5.9-7.122 0 0-2.34 6.72-2.035 12.313 0 0-8.443 1.732-16.176 1.937-7.632.102-11.498-1.528-11.498-1.528s-1.018-6.41-.61-7.632c0 0-1.22 4.172-2.033 5.596-1.12 1.727-2.237 5.29-4.376 5.493-2.236.104-3.968-2.135-4.27-3.05v-6.717h-8.647c0-.1-3.766 1.424-5.087 1.223-1.22-.105-1.832-1.223-.813-1.63l.407-.304c-1.12 0-2.544.71-2.544.71h-4.272c0-.102.103-.41.103-.51.308-1.218 2.546-2.24 4.273-2.95 1.628-.608 3.356-1.323 4.578-1.423 1.934-.203 3.257-.1 6.207.408.812.1 3.967.408 5.798 1.322.508.304 1.118.405.813-.915-.305-1.426-1.22-5.598.307-8.346 1.018-1.933.916-3.56.813-5.19-.204-1.728-1.118-5.597-1.118-7.324 0-5.7 4.375-8.04 8.24-9.262 4.272-1.32 7.12-2.748 6.92-5.288-.104-2.646.608-7.02.202-9.058" fill="#653024"/><g fill="none"><path d="M456.34 153.63c.916 3.356 1.12 4.17 1.12 5.29 0 1.22-.51 1.425-.104 2.75.713 2.44-.712 5.087-2.44 7.936-.814 1.32-1.425 3.052-2.747 3.866-3.357 2.135-7.428-.408-9.564-1.327-1.117-.505-1.73-1.32-2.033-2.135-.407-1.22-.51-2.34-.813-3.967 0-.306.103-1.22-.61-.916-1.22-1.424-1.017-2.034-1.523-3.05-.51-1.022.916-2.14 2.034-1.935-.61-1.933-.915-4.072-.305-5.904.204-.608-.508-2.235.51-1.832 4.577 1.832 9.97 1.426 14.854 1.426.403 0 .71-.812 1.32-.71.097 0 .2.305.3.508" fill="#653024"/><path d="M456.75 155.35c.508-.406.204-2.34-.306-4.375-.203-1.017-1.018-1.424-2.136-2.542-1.12-1.122-1.525-1.122-2.236-1.424-.61-.207-2.034-.207-2.746-.51-.61-.307-2.238-.104-3.766.102-2.036.304-3.153.202-4.68 1.018-1.525.814-2.745 1.73-3.255 3.256-.406 1.118-1.12 2.542-.814 6.817.205 4.272 1.02 3.458 1.02 3.458s1.12-1.627 1.832-.61c0 0-.103-2.24-.305-3.56-.103-1.222 0-2.748.51-4.58 0 0 4.678 1.732 9.053 1.732 3.053 0 7.02-.306 7.123-1.017l.71 2.235z" fill="#000"/><path d="M450.44 160.14c.61 1.732.104 1.222.408 2.34m-10.278 2.03c0 .812-.61.61-1.02.61"/><path d="M456.85 158.82c-.916-.713-2.645-.204-3.46.102-1.525.71-.712 2.24-.204 3.664.204.71 1.02 1.727.51 2.44-.406.813-.712.41-1.628.51.104-.307-.812 0-1.117 0-.61-.1-.915.404-1.425.203-.608-.305-.508-1.22-.306-1.73m.1-4.479c0-.403-1.32-.81-2.745-.915-2.238-.102-2.442.104-4.172 1.322m11.497 8.953c-.405-.608-1.018-.916-2.137-.405 0-.204-1.524-.406-1.524-.406-.813 0-1.322.302-2.137.71m5.588.611c-.916-.61-3.256-.2-5.596-.2m.206.81c1.73.512 3.46.816 5.188 0"/><g stroke-width=".305"><path d="M456.44 160.14c-.712-.1-1.018-.916-3.153.306-1.12.61 1.832 1.426 1.425 1.324 1.22.202 1.628-.508 1.73-1.122-.002-.203.202-.508-.002-.508zm-8.34.81c0-.816-1.83-1.12-2.847-.816-1.02.306-.61.105-1.526.613 1.02.203.712.303 1.526.71.914.408 1.12.814 2.34.206.305-.105.71-.508.812-.916-.1.1-.202.203-.305.203z" fill="#fff" stroke-linecap="round" stroke-linejoin="round"/><path d="M455.12 161.36a.802.802 0 0 1-.813-.814c0-.508.307-.916.813-.916.405 0 .712.408.712.916 0 .408-.307.814-.712.814zm-8.75.2c-.406 0-.712-.403-.712-.916 0-.508.403-.81.812-.81.41 0 .712.302.712.81 0 .514-.303.916-.812.916z" fill="#000"/></g></g><use fill="#d67c59" height="100%" transform="matrix(-1 0 0 1 748.816 0)" width="100%" xlink:href="#a"/><g fill="#653024"><path d="M491.64 193.51c.508.206 1.934-2.033.508-3.05 0 0-.508-1.933-2.136-2.035 0 0-1.322-1.933-3.257-1.63 0 0-2.136-1.524-2.948-1.42-.916.2-2.95 2.236-3.053 2.95-.102.608 0 1.83.508 2.44.61.51 1.02-.104 1.12-1.02 0 0-.406 1.53.812 2.24 1.22.71 1.12.1 1.22-.71 0 0 .307 1.626 1.12 1.932.813.303 1.322-.408 1.935-.408 0 0-1.02.814-.306 1.323.713.61 1.525.303 2.035-.104.61-.405.305-1.728 2.44-.51z" stroke-linecap="round"/><path d="M482.49 189.75c.506-1.73 2.235-3.153 4.067-2.85m-2.137 4.38c.203-.41.305-.816.61-1.224.915-1.524 2.948-1.524 4.576-1.832m-2.546 4.476c.61-.408.814-1.118 1.426-1.42 1.018-.513 2.136-.917 3.256-.715" stroke-linecap="round" stroke-linejoin="round"/><path d="M482.31 186.77c-.896.716-1.837 1.798-1.906 2.28-.103.61-.008 1.828.5 2.44.55.46.95-.018 1.095-.782-.06.463-.072 1.465.843 2 1.22.71 1.118.095 1.22-.72 0 0 .31 1.636 1.124 1.94.813.305 1.325-.407 1.938-.407 0 0-1.026.805-.312 1.313.712.61 1.522.31 2.03-.094.61-.41.3-1.723 2.44-.5.266.105.803-.453 1.03-1.157l-7.688-5.53z" stroke="none"/><path d="M480.68 188.19c-1.502 2.582.5 4.132 1.164 2.62-.193 2.385 1.606 2.29 2.285 1.537.657 2.512 1.83 1.395 2.908 1.164-1.223 2.29 1.48 1.61 2.12 1.082.924-1.362 1.356-.277 2.036-.416l1.164-1.247m-7.977-5.7c-1.686.896-2.512 2.137-2.535 3.7m4.865-2.2c-1.687.896-2.512 2.137-2.535 3.7m5.405-1.75c-1.687.897-1.765 1.722-2.493 2.826"/></g></g></g><g fill="#ffe682"><path d="M500.078 419.363c21.365.191 33.996-7.598 40.927-12.252 16.237-10.92 19.656-11.3 22.316-11.112 3.039.29 7.498 1.332 7.69 3.992.285 4.084-6.362 5.887-10.161 5.887-3.892 0-14.055-2.565-14.055-2.565l-2.66 1.807c1.805.856 22.601 7.786 26.589 1.235 4.08-6.648 8.166-17.382 8.166-17.382s-4.557-8.167-14.72-8.167c-10.255 0-20.225 6.46-26.87 11.299-6.65 4.844-15.004 11.491-37.226 11.491-22.22 0-30.67-6.647-37.315-11.491-6.646-4.842-16.619-11.3-26.778-11.3-10.254 0-14.812 8.167-14.812 8.167s4.082 10.734 8.165 17.382c3.987 6.55 24.785-.38 26.586-1.236l-2.563-1.806s-10.255 2.564-14.055 2.564c-3.893 0-10.54-1.803-10.255-5.886.19-2.66 4.652-3.706 7.69-3.991 2.66-.187 6.08.193 22.315 11.112 6.935 4.654 19.565 12.157 41.025 12.252"/><path d="M465.703 394.19s0-1.808-.288-4.464c-.379-3.419-2.372-4.274-3.986-3.798-1.045.375-3.133 2.944-3.133 2.944v.096a30.206 30.206 0 0 0-2.944-1.805c.76-.855 5.128-3.513 6.171-3.513.952 0 14.055 5.317 18.231 8.924 1.045.952 1.806 6.84 1.234 8.736-7.026-1.802-11.583-4.46-15.289-7.026v-.095m-6.269 13.302s-2.85 2.846-2.943 8.072c-.095 6.172 4.368 6.458 7.312 6.362 3.514-.097 6.361-2.089 6.268-8.641 0 0-5.795-2.471-10.637-5.794m74.93-13.3s.095-1.808.38-4.464c.376-3.419 2.277-4.274 3.892-3.798 1.045.375 3.132 2.944 3.132 2.944v.096a30.064 30.064 0 0 1 2.942-1.805c-.758-.855-5.124-3.513-6.076-3.513-1.044 0-14.146 5.317-18.325 8.924-.952.952-1.71 6.84-1.234 8.736 7.121-1.802 11.583-4.46 15.288-7.026v-.095m6.263 13.302s2.849 2.846 2.944 8.072c.19 6.172-4.37 6.458-7.311 6.362-3.516-.097-6.268-2.089-6.268-8.641 0 0 5.793-2.471 10.636-5.794"/></g><path d="M453.26 403.31s-10.16 2.564-13.958 2.564c-3.892 0-10.54-1.8-10.255-5.887.191-2.66 4.654-3.703 7.692-3.987 2.279-.193 5.223.093 16.523 7.31m93.539 0s10.159 2.564 14.054 2.564c3.798 0 10.443-1.8 10.159-5.887-.188-2.66-4.651-3.703-7.69-3.987-2.28-.193-5.225.093-16.523 7.31m-81.098-9.026a90.002 90.002 0 0 1-3.042-2.277c-1.423-1.047-2.848-1.998-4.368-3.04 0 0 2.089-2.66 3.132-2.945 1.615-.57 3.608.282 3.986 3.702.287 2.66.287 4.562.287 4.562m-6.93 26.785c1.807 1.045 3.799.952 5.034.855 3.514-.095 6.362-2.089 6.268-8.64 0 0 4.365 2.183 11.49 3.893 0 0 1.138 1.423 1.327 4.271.288 2.377-1.33 4.938-3.226 4.751 0 0-9.972-1.805-16.048-2.847-3.514-.665-4.844-2.28-4.844-2.28m75.59-26.79c1.043-.76 2.089-1.521 3.132-2.277 1.33-1.047 2.753-1.998 4.272-3.04 0 0-2.088-2.66-3.132-2.945-1.615-.57-3.514.282-3.892 3.702-.287 2.658-.381 4.561-.381 4.561m6.927 26.786c-1.805 1.045-3.8.952-5.034.855-3.514-.095-6.267-2.089-6.267-8.64 0 0-4.368 2.183-11.396 3.893 0 0-1.232 1.423-1.423 4.271-.19 2.377 1.425 4.938 3.229 4.751 0 0 10.065-1.805 16.047-2.847 3.514-.665 4.843-2.28 4.843-2.28" fill="#171696"/><g fill="none" stroke="#000" stroke-width=".854"><path d="M500.078 419.363c21.366.19 33.996-7.6 40.927-12.252 16.237-10.92 19.656-11.299 22.314-11.11 3.04.284 7.503 1.33 7.69 3.988.287 4.083-6.36 5.885-10.16 5.885-3.893 0-14.054-2.56-14.054-2.56l-2.658 1.805c1.804.856 22.597 7.787 26.586 1.232 4.083-6.647 8.165-17.379 8.165-17.379s-4.558-8.169-14.719-8.169c-10.254 0-20.225 6.46-26.872 11.303-6.646 4.844-15 11.491-37.223 11.491-22.22 0-30.67-6.648-37.315-11.49-6.647-4.843-16.62-11.304-26.777-11.304-10.255 0-14.812 8.17-14.812 8.17s4.08 10.731 8.165 17.379c3.988 6.552 24.785-.378 26.587-1.232l-2.562-1.806s-10.258 2.56-14.053 2.56c-3.895 0-10.541-1.8-10.258-5.886.192-2.66 4.653-3.704 7.693-3.99 2.657-.188 6.076.192 22.313 11.112 6.935 4.655 19.563 12.158 41.023 12.251z" stroke-width=".66422412"/><path d="M453.26 403.31s-10.161 2.564-13.956 2.564c-3.894 0-10.54-1.804-10.258-5.887.192-2.66 4.654-3.706 7.693-3.987 2.277-.193 5.222.093 16.522 7.31zm93.531 0s10.161 2.564 14.055 2.564c3.798 0 10.443-1.804 10.16-5.887-.19-2.66-4.651-3.706-7.69-3.987-2.278-.193-5.224.095-16.52 7.31zm-81.088-9.026a90.002 90.002 0 0 1-3.042-2.277c-1.42-1.047-2.846-1.998-4.368-3.04 0 0 2.091-2.66 3.134-2.945 1.615-.57 3.607.282 3.985 3.705.29 2.654.29 4.558.29 4.558z" stroke-width=".66422412"/><path d="M465.703 394.19s0-1.806-.288-4.464c-.377-3.419-2.372-4.274-3.986-3.798-1.045.379-3.136 2.944-3.136 2.944v.096a30.996 30.996 0 0 0-2.942-1.805c.76-.855 5.127-3.513 6.172-3.513.952 0 14.054 5.317 18.232 8.927 1.045.952 1.804 6.837 1.233 8.738-7.028-1.809-11.585-4.467-15.29-7.028m-6.268 13.204s-2.846 2.846-2.942 8.072c-.096 6.169 4.368 6.457 7.311 6.362 3.514-.097 6.36-2.089 6.27-8.645 0 0-5.794-2.47-10.637-5.794z" stroke-width=".66422412"/><path d="M461.81 408.91s-2.277 2.373-2.657 6.267c-.19 3.04 1.803 4.747 4.368 4.558 3.607-.187 5.034-5.126 3.323-7.88z" stroke-width=".66422412"/><path d="M458.767 421.07c1.806 1.046 3.797.951 5.033.856 3.514-.097 6.36-2.09 6.269-8.642 0 0 4.369 2.184 11.49 3.893 0 0 1.14 1.424 1.328 4.275.287 2.374-1.328 4.937-3.226 4.747 0 0-9.972-1.805-16.048-2.847-3.516-.667-4.845-2.28-4.845-2.28zm75.592-26.786c1.045-.76 2.089-1.521 3.133-2.277 1.33-1.047 2.753-1.998 4.275-3.04 0 0-2.089-2.66-3.135-2.945-1.614-.57-3.513.282-3.891 3.705a87.338 87.338 0 0 0-.38 4.558h-.001z" stroke-width=".66422412"/><path d="M534.36 394.19s.095-1.806.38-4.464c.377-3.419 2.277-4.274 3.892-3.798 1.045.379 3.132 2.944 3.132 2.944v.096a30.996 30.996 0 0 1 2.944-1.805c-.76-.855-5.127-3.513-6.078-3.513-1.045 0-14.146 5.317-18.325 8.927-.952.952-1.71 6.837-1.234 8.738 7.121-1.809 11.583-4.467 15.288-7.028m6.263 13.204s2.849 2.846 2.944 8.072c.19 6.169-4.37 6.457-7.313 6.362-3.513-.097-6.266-2.089-6.266-8.645 0 0 5.792-2.47 10.635-5.794z" stroke-width=".66422412"/><path d="M538.251 408.91s2.28 2.373 2.66 6.267c.286 3.04-1.807 4.747-4.37 4.558-3.608-.187-4.938-5.126-3.323-7.88z" stroke-width=".66422412"/><path d="M541.285 421.07c-1.805 1.046-3.8.951-5.034.856-3.512-.097-6.265-2.09-6.265-8.642 0 0-4.37 2.184-11.394 3.893 0 0-1.234 1.424-1.424 4.275-.19 2.374 1.424 4.937 3.23 4.747 0 0 10.064-1.805 16.043-2.847 3.516-.667 4.844-2.28 4.844-2.28z" stroke-width=".66422412"/></g><path d="M480.804 418.887s3.133 2.282-.665 5.13m-8.735-6.652 9.592 4.18m-7.985-1.996 7.024 3.038m-4.551-4.838 5.317 2.377m38.55-1.24s-3.23 2.283.57 5.131m8.735-6.652-9.59 4.18m8.07-1.996-7.027 3.038m4.469-4.838-5.223 2.377" fill="none" stroke="#fff" stroke-width=".66422412"/><g stroke="#000"><path d="M443.256 389.673c.136.221.224.451.266.688.035.24.025.51-.028.807a2.28 2.28 0 0 1-1.127 1.598c-.616.362-1.323.462-2.103.312a3.578 3.578 0 0 1-1.058-.375 4.228 4.228 0 0 1-.863-.578c-.104.124-.215.242-.324.366l-.456-.086c.146-.92.29-1.839.443-2.757.15.028.305.056.462.088.028.356.088.68.163.978.072.299.196.582.36.863.155.257.352.48.597.662.237.18.532.308.882.372.263.052.497.06.711.028.206-.031.388-.093.528-.196.143-.103.265-.232.358-.389.09-.153.154-.335.196-.562a1.661 1.661 0 0 0-.102-.946c-.127-.314-.368-.572-.7-.784a49.437 49.437 0 0 0-.79-.488 11.029 11.029 0 0 1-.764-.49c-.417-.29-.726-.617-.912-1.002-.19-.375-.24-.828-.138-1.36a1.988 1.988 0 0 1 .352-.811 2.2 2.2 0 0 1 .67-.604 2.455 2.455 0 0 1 .872-.316c.322-.05.648-.046.974.016.371.07.7.191.973.36.27.171.52.348.732.549l.308-.336c.153.028.302.056.457.087l-.46 2.664c-.153-.032-.307-.059-.464-.09a10.924 10.924 0 0 0-.112-.928 3.458 3.458 0 0 0-.267-.833 1.89 1.89 0 0 0-.5-.638c-.208-.176-.489-.293-.835-.36a1.34 1.34 0 0 0-.992.171c-.296.187-.48.434-.543.766-.065.343-.035.645.086.905.118.263.321.492.607.7.252.187.508.347.759.496.249.15.485.299.718.458.209.138.414.289.6.457.181.164.34.345.461.538m11.65 1.634a3.506 3.506 0 0 0-.451-.17 1.367 1.367 0 0 0-.541-.082c-.16.013-.324.13-.5.345a5.516 5.516 0 0 0-.557.85c-.569 1.032-1.143 2.066-1.712 3.101-.218.394-.49.69-.82.891a2.443 2.443 0 0 1-1.054.355c-.369.039-.719.01-1.064-.072a4.048 4.048 0 0 1-.918-.357c-.432-.24-.793-.504-1.07-.806-.277-.306-.485-.612-.604-.931a2.164 2.164 0 0 1-.151-.945 2.014 2.014 0 0 1 .252-.862l2.328-4.219a.879.879 0 0 0 .106-.33c.002-.097-.042-.216-.121-.346a1.456 1.456 0 0 0-.262-.297c-.12-.098-.213-.176-.298-.23l.196-.358c1.008.556 2.008 1.11 3.015 1.662l-.198.354a3.018 3.018 0 0 0-.383-.149 1.88 1.88 0 0 0-.361-.103c-.137-.02-.252 0-.341.078a.88.88 0 0 0-.229.27c-.725 1.317-1.452 2.63-2.176 3.945a3.24 3.24 0 0 0-.261.635 1.727 1.727 0 0 0-.077.725c.028.26.13.504.292.746.164.243.447.474.842.69.37.206.718.324 1.036.349.315.018.6-.02.852-.131a1.932 1.932 0 0 0 .607-.406 2.464 2.464 0 0 0 .415-.55l1.615-2.927c.205-.373.35-.692.423-.961.078-.266.08-.457.019-.594-.069-.152-.2-.308-.376-.464a3.45 3.45 0 0 0-.43-.342l.195-.355c.986.542 1.971 1.085 2.959 1.63l-.196.359m4.19 7.254c.126.26.2.544.206.846.004.303-.083.617-.27.943-.186.326-.42.569-.709.73a2.123 2.123 0 0 1-.91.27 2.856 2.856 0 0 1-.959-.088 3.92 3.92 0 0 1-.952-.387l-3.39-1.953.205-.354c.084.042.206.093.377.158.168.07.293.107.375.118a.524.524 0 0 0 .332-.062.692.692 0 0 0 .237-.262c.975-1.69 1.95-3.385 2.924-5.076a.915.915 0 0 0 .116-.33.541.541 0 0 0-.11-.342 1.632 1.632 0 0 0-.272-.31c-.112-.096-.203-.175-.285-.23.065-.116.136-.234.203-.351 1.1.632 2.201 1.265 3.304 1.902.256.148.485.312.694.495.201.187.373.401.513.647.13.232.21.486.216.756.01.272-.06.556-.224.84a1.755 1.755 0 0 1-.52.579 1.638 1.638 0 0 1-.671.283 2.476 2.476 0 0 1-.722.028 3.232 3.232 0 0 1-.772-.162l-.028.047c.194.145.394.324.604.546.21.229.376.467.49.719zm-.609-1.768a1.39 1.39 0 0 0 .53-.317 2.714 2.714 0 0 0 .42-.56c.222-.389.29-.756.203-1.101-.084-.352-.364-.654-.827-.921-.105-.06-.242-.138-.406-.227-.168-.094-.308-.167-.413-.221l-1.568 2.718c.213.122.422.243.637.364.278.161.532.262.769.306.239.041.457.033.657-.042zm-.594 2.657a1.577 1.577 0 0 0 .168-1.272c-.127-.436-.459-.8-.99-1.107a33.537 33.537 0 0 0-.546-.308c-.15-.08-.264-.137-.34-.177l-1.433 2.49a.604.604 0 0 0-.019.62c.11.206.317.394.627.57.498.289.966.37 1.398.233.434-.14.809-.482 1.134-1.048zm18.386 4.197a3.36 3.36 0 0 0-.466-.123 1.39 1.39 0 0 0-.546-.028c-.155.028-.308.163-.465.394a5.703 5.703 0 0 0-.468.9l-1.395 3.258c-.177.414-.42.737-.724.97a2.501 2.501 0 0 1-1.015.458 3.136 3.136 0 0 1-1.066.03 3.987 3.987 0 0 1-.952-.26 4.229 4.229 0 0 1-1.143-.699c-.307-.277-.542-.56-.695-.865a2.164 2.164 0 0 1-.243-.924 2.024 2.024 0 0 1 .164-.887l1.898-4.428a.877.877 0 0 0 .074-.336.69.69 0 0 0-.154-.333 1.553 1.553 0 0 0-.292-.27c-.128-.084-.228-.154-.318-.2.054-.124.106-.252.16-.373l3.163 1.355c-.056.124-.107.249-.162.372a3.355 3.355 0 0 0-.395-.112 2.244 2.244 0 0 0-.37-.066c-.14-.009-.251.025-.332.11a.927.927 0 0 0-.2.293c-.59 1.38-1.181 2.758-1.771 4.14a3.298 3.298 0 0 0-.202.653 1.731 1.731 0 0 0 0 .733c.054.256.178.487.365.713.188.224.49.428.906.604.39.17.751.25 1.07.243.313-.013.594-.077.83-.215.225-.129.42-.28.568-.462.146-.179.268-.377.359-.588l1.316-3.072c.168-.393.278-.723.327-.997.046-.275.033-.465-.043-.593-.084-.146-.228-.287-.42-.424a3.618 3.618 0 0 0-.461-.3l.158-.37 3.104 1.328a12.009 12.009 0 0 0-.162.37m8.93 10.493-3.504-1.014.112-.392c.13.032.294.065.501.102.203.032.352.042.439.027a.788.788 0 0 0 .325-.171.692.692 0 0 0 .177-.314l1.647-5.696a1.34 1.34 0 0 0-.086-.024c-1.533 1.973-3.101 3.916-4.637 5.89-.091-.026-.182-.055-.278-.08-.187-2.52-.422-5.037-.61-7.553a.692.692 0 0 0-.072-.021c-.45 1.558-.902 3.115-1.35 4.676-.131.448-.201.796-.21 1.054-.014.255.03.447.115.584.059.103.21.222.448.37.235.146.392.228.47.256l-.114.391-3.204-.924.115-.394c.172.032.359.058.555.07.196.015.352-.002.479-.059.159-.067.292-.193.408-.397.108-.2.234-.547.378-1.045l1.158-4.008c.067-.231.093-.427.08-.592a.922.922 0 0 0-.136-.428 1.193 1.193 0 0 0-.362-.342 1.983 1.983 0 0 0-.476-.229l.112-.392 2.701.782c.178 2.18.404 4.358.579 6.54 1.109-1.46 2.25-2.896 3.36-4.356.124-.162.243-.33.35-.518a2.753 2.753 0 0 0 .194-.371c.86.249 1.726.498 2.585.749l-.112.39a3.75 3.75 0 0 0-.41-.064 2.32 2.32 0 0 0-.382-.021.428.428 0 0 0-.321.149.91.91 0 0 0-.163.316l-1.634 5.646a.77.77 0 0 0-.028.343.62.62 0 0 0 .19.305c.058.058.169.125.331.203.164.084.291.138.392.174-.039.126-.077.258-.116.389m8.488-2.578c.215.191.395.425.516.702s.168.602.12.971a1.96 1.96 0 0 1-.37.95 2.23 2.23 0 0 1-.735.602 2.962 2.962 0 0 1-.921.291c-.34.047-.682.053-1.03.01-1.293-.163-2.585-.327-3.878-.488l.05-.406c.094.006.228.006.411 0 .18-.001.313-.015.392-.037a.508.508 0 0 0 .282-.187.702.702 0 0 0 .119-.33c.242-1.936.485-3.873.73-5.812a.943.943 0 0 0-.02-.35.554.554 0 0 0-.235-.273 1.615 1.615 0 0 0-.371-.179c-.142-.047-.254-.086-.35-.103l.05-.405 3.784.477c.291.037.566.1.833.191.257.094.498.222.721.397.208.162.383.367.495.613.112.249.152.533.112.86a1.688 1.688 0 0 1-.76 1.259c-.199.133-.42.227-.656.304a3.313 3.313 0 0 1-.775.151l-.01.052c.234.059.488.146.77.27.276.126.523.28.726.469zm-1.245-1.394c.165-.147.29-.312.37-.497a2.691 2.691 0 0 0 .168-.682c.056-.442-.024-.803-.24-1.092-.214-.29-.584-.46-1.118-.527a26.507 26.507 0 0 0-.46-.055l-.474-.044c-.13 1.038-.259 2.076-.392 3.113l.728.09a2.489 2.489 0 0 0 .833-.016c.231-.052.427-.147.584-.291zm.48 2.681c.058-.478-.056-.886-.336-1.239-.288-.352-.733-.56-1.342-.637a23.877 23.877 0 0 0-.623-.072c-.171-.019-.297-.028-.385-.035-.122.954-.24 1.902-.358 2.854a.608.608 0 0 0 .223.578c.18.146.448.24.8.283.57.075 1.031-.03 1.376-.326.347-.299.562-.76.644-1.403zm11.116 2.568h-2.228c-.485-.77-.938-1.417-1.328-1.979-.399-.557-.836-1.118-1.299-1.714h-.845v2.585c0 .13.025.252.064.349.042.102.135.182.275.236.068.028.191.05.366.075.175.022.323.035.443.04v.41h-3.49v-.41c.09-.005.225-.022.407-.04a1.49 1.49 0 0 0 .367-.075.498.498 0 0 0 .254-.218.722.722 0 0 0 .075-.368v-5.893c0-.13-.017-.252-.056-.358-.042-.1-.13-.18-.276-.233a2.165 2.165 0 0 0-.378-.096 2.947 2.947 0 0 0-.395-.054v-.408h3.813c.349 0 .675.031.985.103.308.076.582.187.83.345.238.156.436.347.576.598.142.246.215.544.215.896 0 .317-.049.59-.143.832a1.724 1.724 0 0 1-.433.625 2.449 2.449 0 0 1-.628.427 5.028 5.028 0 0 1-.807.31c.401.536.748.977 1.017 1.342.263.364.604.801.99 1.326a2.455 2.455 0 0 0 .874.777c.097.056.227.088.377.114.153.028.28.042.379.047-.002.133-.002.27-.002.407zm-3.061-6.072c0-.492-.15-.878-.43-1.176-.283-.29-.692-.431-1.216-.431h-.99v3.492h.763c.535 0 .988-.161 1.339-.506.351-.343.536-.797.536-1.379zm12.572 5.465-3.425.261a24.29 24.29 0 0 0-.03-.41c.301-.04.548-.096.748-.171.192-.074.287-.149.28-.234-.003-.035-.014-.074-.021-.126a.451.451 0 0 0-.044-.13c-.27-.59-.552-1.176-.824-1.768l-2.89.218c-.089.277-.16.513-.208.719-.053.208-.103.394-.143.565a3.482 3.482 0 0 0-.074.408c-.01.107-.018.19-.01.254.01.153.14.257.392.327.25.068.527.093.836.087l.031.41-3.101.234c-.01-.136-.019-.273-.031-.408a1.941 1.941 0 0 0 .371-.096 1.206 1.206 0 0 0 .361-.174c.15-.118.258-.233.336-.356a1.82 1.82 0 0 0 .213-.483c.327-1.051.716-2.227 1.11-3.54.393-1.31.77-2.473 1.076-3.495l.465-.035c1.075 2.275 2.197 4.526 3.276 6.797.07.146.146.259.224.348.084.089.19.17.33.245.093.048.21.084.358.107.147.028.265.037.364.034.012.14.023.278.032.414zm-3.564-3.072c-.488-1.017-.999-2.03-1.49-3.052-.32 1.083-.667 2.159-.99 3.24zm15.277-6.43-.416.113c-.16-.273-.41-.534-.746-.803-.339-.267-.63-.383-.868-.358a5.724 5.724 0 0 0-.42.08c-.164.04-.343.084-.549.137l-1.334.364c.285 1.053.569 2.108.855 3.158.303-.084.61-.168.916-.25.273-.075.488-.16.625-.262a1.045 1.045 0 0 0 .317-.368c.053-.105.09-.252.105-.44a2.287 2.287 0 0 0-.027-.582l.42-.115c.282 1.035.562 2.064.84 3.094-.137.038-.28.075-.42.115a2.784 2.784 0 0 0-.264-.525c-.128-.186-.24-.317-.34-.389a.85.85 0 0 0-.494-.171 2.221 2.221 0 0 0-.64.096l-.915.249.734 2.708a.715.715 0 0 0 .167.308c.071.083.177.13.317.16.065.016.196.01.392-.009.195-.01.345-.035.441-.056l.107.394-3.454.938-.107-.395c.112-.036.26-.092.44-.16.178-.07.297-.119.348-.162a.495.495 0 0 0 .186-.28.786.786 0 0 0-.015-.363l-1.54-5.675a1.068 1.068 0 0 0-.15-.31c-.065-.08-.175-.13-.321-.156a2.361 2.361 0 0 0-.438-.02 2.296 2.296 0 0 0-.43.047l-.107-.396 6.25-1.694.533 1.976m9.205-.697c.303.753.597 1.507.9 2.258l-5.815 2.808-.177-.368c.082-.047.196-.117.35-.215.145-.092.247-.168.294-.224a.493.493 0 0 0 .138-.311.756.756 0 0 0-.094-.36c-.844-1.751-1.689-3.503-2.536-5.255a.91.91 0 0 0-.208-.282.495.495 0 0 0-.347-.098 1.55 1.55 0 0 0-.397.038 1.876 1.876 0 0 0-.392.102c-.056-.121-.119-.247-.176-.368l3.138-1.516.177.37a2.778 2.778 0 0 0-.351.231 2.126 2.126 0 0 0-.3.25.4.4 0 0 0-.14.329c0 .121.032.238.089.351l2.38 4.931c.108.224.202.396.29.509a.513.513 0 0 0 .302.218c.105.029.245.01.413-.055.17-.056.397-.153.682-.293.13-.06.259-.132.4-.205.138-.071.26-.154.377-.23.112-.084.209-.168.296-.255a.572.572 0 0 0 .161-.244c.062-.23.123-.546.155-.966.028-.41.043-.735.019-.97l.371-.178m4.35-8.076a4.07 4.07 0 0 1 1.425.733 5 5 0 0 1 1.166 1.363c.33.56.532 1.117.625 1.677.09.56.057 1.094-.065 1.607a3.84 3.84 0 0 1-.651 1.372 3.796 3.796 0 0 1-1.16 1.034c-.496.29-1.003.476-1.533.533-.533.056-1.038.027-1.532-.129a3.934 3.934 0 0 1-1.396-.746 4.887 4.887 0 0 1-1.124-1.31 4.83 4.83 0 0 1-.632-1.691 4.231 4.231 0 0 1 .058-1.6 3.855 3.855 0 0 1 .662-1.385c.311-.422.694-.76 1.15-1.03.474-.28.972-.457 1.487-.523a3.738 3.738 0 0 1 1.521.093zm2.19 5.42a3.823 3.823 0 0 0-.19-1.263 6.705 6.705 0 0 0-.622-1.343 7.013 7.013 0 0 0-.924-1.244 3.82 3.82 0 0 0-1.03-.777 2.324 2.324 0 0 0-1.082-.247c-.363.001-.734.116-1.09.326-.398.236-.689.525-.857.878a2.533 2.533 0 0 0-.258 1.131c.008.39.078.8.229 1.237.15.44.348.873.602 1.303a7.187 7.187 0 0 0 .887 1.208c.308.332.653.588 1.01.777.356.186.712.268 1.085.273.37 0 .747-.105 1.13-.33a2.244 2.244 0 0 0 .82-.822 2.31 2.31 0 0 0 .29-1.106zm10.243-5.56c-.605.43-1.214.861-1.819 1.288-.836-.347-1.583-.611-2.224-.842-.65-.23-1.334-.43-2.048-.649-.234.164-.461.327-.694.49l1.495 2.109c.075.104.168.184.252.246.098.06.217.065.362.032a1.64 1.64 0 0 0 .343-.15c.158-.081.28-.156.382-.225l.237.335c-.948.674-1.897 1.345-2.846 2.018-.08-.107-.159-.221-.238-.331.074-.058.175-.146.31-.268a1.521 1.521 0 0 0 .257-.275.474.474 0 0 0 .078-.323.723.723 0 0 0-.147-.342c-1.138-1.603-2.274-3.208-3.408-4.81a1.027 1.027 0 0 0-.252-.254c-.093-.062-.212-.076-.357-.034a2.985 2.985 0 0 0-.719.326l-.238-.334c1.036-.734 2.072-1.467 3.108-2.203a4.433 4.433 0 0 1 .863-.483 2.634 2.634 0 0 1 .877-.202 1.708 1.708 0 0 1 .812.152c.265.118.495.322.696.606a2.1 2.1 0 0 1 .364.766c.062.252.065.5.014.757a2.48 2.48 0 0 1-.268.71 4.669 4.669 0 0 1-.482.718c.64.208 1.178.364 1.61.506.423.146.957.305 1.573.51a2.436 2.436 0 0 0 1.163.128 1.28 1.28 0 0 0 .374-.126c.141-.062.253-.13.336-.18.076.112.158.224.234.336zm-6.006-3.182c-.287-.403-.635-.633-1.033-.711-.4-.071-.816.046-1.244.35l-.809.573a5350.382 5350.382 0 0 0 2.022 2.852l.626-.443c.437-.308.709-.705.795-1.186.087-.485-.022-.964-.358-1.435zm12.81-1.951c.226.768.454 1.538.686 2.305l-6.433 2.385c-.046-.126-.096-.255-.142-.383.109-.046.252-.113.42-.208.171-.092.284-.153.33-.202a.57.57 0 0 0 .165-.3.717.717 0 0 0-.053-.355c-.681-1.831-1.357-3.66-2.039-5.494a.949.949 0 0 0-.177-.294c-.075-.074-.187-.112-.334-.127-.114-.011-.262 0-.436.024a2.081 2.081 0 0 0-.424.081c-.047-.126-.097-.255-.141-.382l5.993-2.225.681 1.844c-.136.053-.275.103-.407.153-.173-.252-.445-.476-.793-.694-.362-.224-.652-.3-.882-.249-.117.026-.255.06-.411.115-.165.056-.34.115-.544.19l-1.215.451 1.126 3.034c.29-.108.578-.216.876-.325.276-.102.476-.202.588-.308a.852.852 0 0 0 .24-.38 1.465 1.465 0 0 0 .052-.499 2.796 2.796 0 0 0-.072-.53c.136-.05.273-.1.411-.153.37 1 .739 1.998 1.11 2.996-.138.054-.276.103-.41.153a3.084 3.084 0 0 0-.319-.509c-.134-.163-.252-.28-.358-.34a.845.845 0 0 0-.483-.131 2.03 2.03 0 0 0-.595.146l-.878.325c.286.767.567 1.53.852 2.296.086.229.17.402.252.525a.527.527 0 0 0 .301.23c.117.038.267.028.435-.013.172-.046.41-.121.71-.232.122-.046.278-.102.477-.175a3.42 3.42 0 0 0 .487-.21c.131-.067.271-.146.403-.238.132-.097.22-.182.252-.27.106-.234.19-.563.239-.98.05-.418.08-.717.065-.896.131-.052.26-.1.395-.15m6.906-5.657a3.976 3.976 0 0 1 1.027 1.232c.268.508.451 1.072.534 1.711a4.732 4.732 0 0 1-.08 1.787 4.051 4.051 0 0 1-.688 1.456c-.303.41-.69.738-1.136 1.003a3.855 3.855 0 0 1-1.47.495c-.574.076-1.111.046-1.617-.11-.511-.153-.971-.379-1.363-.715a3.984 3.984 0 0 1-.99-1.232 4.732 4.732 0 0 1-.524-1.646 4.83 4.83 0 0 1 .079-1.803 4.208 4.208 0 0 1 .685-1.449 3.867 3.867 0 0 1 2.614-1.512 3.951 3.951 0 0 1 1.572.1 3.764 3.764 0 0 1 1.357.684zm-.105 5.845a3.836 3.836 0 0 0 .322-1.24 7.078 7.078 0 0 0-.052-1.478 6.79 6.79 0 0 0-.364-1.505 3.751 3.751 0 0 0-.636-1.119 2.352 2.352 0 0 0-.899-.65 2.2 2.2 0 0 0-1.13-.128c-.463.06-.844.213-1.138.472a2.492 2.492 0 0 0-.681.94c-.14.36-.243.765-.271 1.226a6.765 6.765 0 0 0 .041 1.434c.07.543.19 1.03.346 1.458.149.427.371.795.626 1.108.25.315.545.525.887.678.34.146.734.196 1.171.136a2.226 2.226 0 0 0 1.072-.431 2.315 2.315 0 0 0 .706-.904z" stroke-width=".6533352"/><path d="M468.703 266.93h62.719m5.132 0h8.819v51.567c0 10.255-1.424 51.095-45.295 66.956-43.965-15.861-45.389-56.697-45.389-66.956v-51.568h8.88" fill="none" stroke-width=".9488916000000001"/></g><path d="M494.078 132.865c-3.403.028-7.167 1.66-11.032 5.807v.003c9.299-2.73 13.403 3.439 17.282 7.374a154.288 154.288 0 0 0-33.49 3.724c-3.596-7.952-16.312-17.628-26.188-2.982 8.998-4.25 14.057 1.643 18.6 4.883a152.778 152.778 0 0 0-26.76 10.25c-.03-.061-.05-.142-.082-.202-3.71-7.09-23.02-15.74-27.565 3.832 9.515-9.872 18.98 1.045 24.626-2.097a154.1 154.1 0 0 0-24.428 15.873c-.04-.05-.073-.118-.114-.166-5.158-6.13-25.896-10.457-26.087 9.629 7.01-11.444 18.293-3.388 23.288-7.09a154.857 154.857 0 0 0-22.126 22.673c-.118-.131-.231-.294-.351-.41-5.751-5.588-26.82-7.828-24.984 12.174 5.98-12.411 18.545-4.762 22.839-9.704-.656.754-.999 1.705-1.182 2.77a153.775 153.775 0 0 0-15.645 26.638c-7.097-3.799-27.9-.278-20.687 18.45l.004.004c2.367-13.556 16.554-9.57 19.336-15.479-.03.062-.036.13-.062.192a152.682 152.682 0 0 0-9.655 31.156c-8.745.213-23.006 8.49-12.663 23.15-.739-9.888 6.672-12.424 11.358-15.465a155.01 155.01 0 0 0-1.58 22.067c0 2.223.057 4.431.15 6.631-7.894 3.43-18.258 17.781-1.894 26.716-4.63-7.824-.404-13.107 2.539-17.614a153.06 153.06 0 0 0 5.615 28.307c-7.39 4.758-14.928 18.065.612 25.876-4.955-7.755-.761-13.212 2.025-17.852a153.186 153.186 0 0 0 12.64 26.71c-5.928 6.406-9.847 22.132 7.829 25.097-7.21-6.077-4.572-12.68-3.327-17.992a154.708 154.708 0 0 0 19.941 23.946c-5.585 6.666-8.666 22.916 9.35 24.707-8.678-6.367-4.588-14.31-4.265-19.935a154.34 154.34 0 0 0 28.688 20.345c-1.57 8.6 3.094 23.256 19.492 17.266-8.87-1.641-10.196-8.125-11.67-13.255a152.717 152.717 0 0 0 32.087 11.13c-.153 8.707 5.755 20.943 20.742 14.296-9.12-1.06-10.79-7.642-12.646-12.699a154.764 154.764 0 0 0 25.967 2.194c1.683 0 3.356-.037 5.026-.09 1.9 8.525 12.018 20.313 24.782 8.346-9.682 2.158-13.296-4.628-16.98-8.793a153.147 153.147 0 0 0 33.565-6.592c5.266 7.007 18.057 13.313 25.511-1.62-7.25 4.65-12.57 1.348-17.067-1.329a153.285 153.285 0 0 0 25.518-12.562c6.572 5.356 25.046 7.672 24.775-11.253-4.796 8.265-11.965 6.708-17.49 6.488a154.734 154.734 0 0 0 24.401-21.032c7.736 4.137 23.674 4.151 22.61-13.392-4.403 8.463-11.625 7.248-17.151 7.275a154.245 154.245 0 0 0 18.106-26.575c8.609 1.465 24.343-4.025 16.875-20.404h-.004c-1.044 9.23-7.898 10.808-13.017 12.718A152.698 152.698 0 0 0 650.9 332.99c8.6-1.863 20.498-11.84 8.542-24.547 1.761 8.027-2.752 11.817-6.748 14.97a154.953 154.953 0 0 0 1.784-23.493c0-1.098-.02-2.192-.043-3.284 8.376-2.676 19.293-13.814 6.078-25.296 2.88 8.777-2.617 13.034-6.478 16.858a153.467 153.467 0 0 0-4.16-25.726c7.39-4.403 15.817-19.927-1.543-26.731 5.946 7.64 1.592 13.682-.694 18.704a152.908 152.908 0 0 0-10.745-25.98c6.243-6.056 10.988-21.976-6.797-25.54 7.082 6.365 4.107 12.949 2.708 18.245a154.43 154.43 0 0 0-16.103-22.217c3.307-8.1 1.779-23.335-15.482-20.856 7.296 3.001 8.131 8.448 8.48 13.334a154.727 154.727 0 0 0-19.808-16.83c2.384-8.252-1.94-25.099-19.287-18.6v.003c9.195 1.622 10.358 8.486 11.946 13.675a153.314 153.314 0 0 0-27.522-13.714c1.461-8.482-4.563-24.615-21.088-16.465 10.287.772 11.463 8.933 13.942 13.962a153.28 153.28 0 0 0-39.313-7.214c-1.327-5.8-7.03-13.443-14.492-13.382zm6.527 17.008c.764 0 1.524.018 2.285.03-5.17 3.1-9.62 13.306-20.74 10.459 11.98 13.532 25.128-1.898 26.58-10.267a149.584 149.584 0 0 1 38.542 7.184c-5.782 1.77-13.175 8.324-21.93 2.178 6.264 16.632 23.683 7.356 28.349.084a149.52 149.52 0 0 1 29.805 15.287c-6.031.336-14.706 7.733-23.464.172 4.526 17.062 22.6 9.77 28.105 3.034a150.796 150.796 0 0 1 22.458 19.828c.338.942.822 1.758 1.602 2.357-5.203-3.994-17.436 4.876-25.427-5.824.761 18.677 22.289 13.899 27.852 7.975a150.358 150.358 0 0 1 16.432 23.356c-5.24-2.981-16.692-1.178-20.088-12.278-5.429 17.254 14.847 20.331 22.745 17.151a149.068 149.068 0 0 1 10.99 27.37c-4.922-3.484-15.736-4.096-17.061-15.208-8.162 15.572 9.926 22.229 18.616 21a150.01 150.01 0 0 1 4.219 29c-1.93-5.77-14.63-9.583-11.83-21.722-13.79 12.701 3.805 25.811 11.97 26.185.015.897.032 1.794.032 2.695 0 9.613-.913 19.01-2.64 28.119-.335.615-.565 1.26-.602 1.97.335-6.516-13.982-11.425-9.69-24.044-14.982 11.25 1.128 26.02 9.225 27.24a148.946 148.946 0 0 1-11.924 33.467c-.354-5.988-8.93-14.279-1.712-23.666-17.3 5.718-7.932 23.876-.713 28.353a150.326 150.326 0 0 1-19.45 27.806c1.956-5.68-3.24-16.59 6.966-22.855-18.66-.805-15.874 20.498-10.482 26.706a150.73 150.73 0 0 1-25.954 21.875c1.29-5.862-2.127-15.91 7.647-21.315-17.247-1.53-16.948 16.761-12.748 24.574a149.348 149.348 0 0 1-27.968 13.274c-.906-.214-1.793-.251-2.67.026 6.263-1.981 5.852-17.007 19.265-17.46-16.07-10.075-24.353 10.702-22.4 18.45.067.265.193.548.293.824a149.561 149.561 0 0 1-33.779 6.315c5.401-2.696 10.54-12.703 21.491-9.112-11.44-14.837-26.297 1.39-27.412 9.411-1.59.05-3.183.085-4.785.085-9.624 0-19.035-.913-28.155-2.643-.503-.577-1.083-1.041-1.803-1.329 6.1 2.433 15.429-9.407 26.058-1.279-5.917-17.925-25.643-7.145-29.108.062-.207.43-.38.911-.528 1.426a149 149 0 0 1-36.243-13.415c-.02-.01-.034-.029-.055-.039 5.922 2.837 16.031-8.353 26.084.472-4.658-18.172-24.835-8.965-28.956-2.018a150.36 150.36 0 0 1-26.363-18.584c5.905 1.149 14.785.24 18.658 9.479 3.684-17.74-16.893-18.771-24.394-14.798a150.669 150.669 0 0 1-21.608-26.494c5.153 3.14 16.995.609 20.836 11.865 4.934-17.626-15.983-19.906-23.554-16.296a149.23 149.23 0 0 1-13.829-30.775c2.112 6.1 17.03 5.93 17.367 19.15 10.28-15.839-10.518-24.239-18.363-22.392a149.572 149.572 0 0 1-5.667-31.09c4.136 4.369 15.532 6.075 15.426 17.636 10.058-14.389-6.931-23.251-15.725-23.164a152.437 152.437 0 0 1-.124-5.817c0-7.87.61-15.601 1.777-23.144 2.178 5.596 10.844 12.02 5.781 22.011 16.029-8.84 3.203-25.099-4.716-28.043a148.942 148.942 0 0 1 6.881-24.066c1.903 5.285 4.476 11.614-1.1 18.03 15.808-4.2 10.765-19.692 4.55-26.367a149.728 149.728 0 0 1 12.628-22.588c.357 5.281.44 11.299-6.062 15.57 15.966.2 15.751-15.27 11.869-23.545a150.852 150.852 0 0 1 18.418-19.707c-.253 5.78.297 13.19-7.728 17.383 16.158 1.82 17.264-14.2 14.02-22.715a150.286 150.286 0 0 1 19.34-13.164c-1.49 5.58-2.59 12.877-11.293 15.244 15.368 5.222 19.925-10.149 18.617-19.16a148.994 148.994 0 0 1 28.333-10.73c-4.537 3.962-7.384 14.502-18.701 13.425 14.312 11.796 25.047-6.648 24.626-14.876a150.64 150.64 0 0 1 32.806-3.604z" fill="#338a00" stroke="#075400" stroke-width=".49666766"/><path d="M408.918 366.937c-.285 1.234-.758 2.944-.95 5.13 0 .474-.473 3.039.95 3.132 1.045.095 1.33-2.66 1.33-2.66s-.952 3.04.284 3.42c1.71.376 1.898-3.325 1.898-3.325-.19 1.046-1.33 3.706.286 3.986 1.708.287 2.184-3.608 2.184-3.608s-1.425 3.895.283 3.99c1.615.093 1.615-3.8 1.615-3.8s-.856 4.655 1.423 4.276c1.232-.19 1.52-1.806 1.805-2.756.378-1.422 1.233-3.226.19-6.17-.758-2.185-.473-2.754-.473-2.754s-2.66 1.994-4.748 3.322c-.952.57-6.08-2.184-6.08-2.184zm27.73-4.088c-.475-.286-.38 1.71-.57 2.657-.095.952.191 3.04 3.42 2.85 3.131-.286 6.267-.95 8.26-.475 1.995.57 4.937.664 6.554.664 1.615 0 2.66-.188 3.416-.476.666-.281 2.09.383 2.753.383.667 0 1.71-1.045 1.615-1.71-.095-1.236-1.232-1.236-2.85-1.33-1.519-.19-3.607-.476-4.65-.855-1.046-.38-2.944-1.425-5.319-1.9 0 0-4.557.192-5.504.192-.952 0-6.554.283-7.126 0z" fill="#ad7d5a" stroke="#000" stroke-width=".47522358000000003"/><path d="m421.36 369.597-.191-4.368 1.804 1.521.475-3.325c.759-.19 1.995 1.331 1.995 1.331l-.192-3.323 2.754 3.038s-.19-2.565.757-4.083c0 0 2.089 1.805 2.089 3.894 0 1.807 1.804-2.565 1.804-2.565.476 1.522 1.52 4.844 1.52 4.844l1.232-1.806 1.045 3.797 2.278-3.323 1.804 3.894 4.084-.287.476 2.28 1.803-1.993 2.375 1.519s1.993-.57 3.039-.57c1.045 0 2.279 1.329 2.279 1.329s.758-1.326 1.52-1.802c.758-.476 1.804.758 2.085 1.518l1.522-2.754s1.995 1.996 2.277 2.754c0 0 .285-2.278.76-3.039.477-.758 1.233.286 1.805 1.236l1.234-4.083s1.329.281 2.277 1.802c1.045 1.518 1.045-2.28 1.045-2.28s2.278 3.04 2.851 5.128m57.166-.76s.758-2.086 1.805-3.132c0 0 1.993 2.376 1.993 3.134 0 0 .57-.285 1.615-1.043l1.52 1.517 1.804-1.232 1.71 1.519 3.134-1.33 1.232 1.33 4.841-.569 1.808.758 1.708-2.18 1.615 1.706 2.562-2.562s1.234 1.041 1.52 1.803c0 0 2.089-1.045 2.564-1.803 0 0 1.992-.76 2.277.472 0 0 1.232-.95 1.139-1.994-.097-1.044 1.423-.284 1.898 1.047 0 0 .57-2.09 2.091-2.282 0 0 1.042 1.236.756 3.516 0 0 2.279-1.803 3.324-1.995 0 0 .476 2.562-.284 4.844 0 0 2.375-3.895 2.85-2.565.19.759.759 3.325.19 5.128l2.088-1.33.76 2.567 2.277-.476m-106.694 7.733s1.71-2.846 2.753-3.608c0 0 2.277 1.806 3.038 4.084 0 0 .286-1.518 1.045-2.846 0 0 2.849 1.325 3.323 3.133 0 0 1.045-1.806 1.804-2.278.76-.573 1.52 1.991 1.52 3.512 0 0 1.805-1.9 2.85-1.995 0 0 1.994.949 2.563 4.275 0 0 1.9-1.805 2.563-1.522 0 0 2.28 1.522 1.708 3.61-.283 1.138 2.28-1.328 5.414-2.088l2.753 2.087s2.564-3.417 3.323-4.56c0 0 2.09.76 2.09 1.997 0 0 .951-3.612 1.709-3.989.759-.474 1.803 1.139 1.803 2.184 0 0 .286-2.753 1.806-3.324 0 0 1.52 1.043 1.52 2.09 0 0 1.614-3.133 2.848-3.896" fill="none" stroke="#060" stroke-width=".47522358000000003"/><path d="m421.36 369.598-.19-4.368 1.804 1.521.475-3.325c.759-.192 1.995 1.331 1.995 1.331l-.192-3.326 2.754 3.04s-.19-2.565.757-4.086c0 0 2.089 1.806 2.089 3.895 0 1.808 1.804-2.566 1.804-2.566.476 1.522 1.52 4.844 1.52 4.844l1.232-1.804 1.045 3.798 2.28-3.324 1.802 3.896 4.084-.287.476 2.277 1.802-1.993 2.375 1.52s1.995-.57 3.04-.57 2.279 1.332 2.279 1.332.758-1.332 1.519-1.811c.757-.471 1.806.762 2.086 1.521l1.522-2.753s1.993 1.996 2.277 2.753c0 0 .284-2.277.76-3.039.475-.759 1.231.287 1.804 1.236l1.23-4.083s1.333.282 2.28 1.804c1.043 1.519 1.043-2.277 1.043-2.277s2.277 3.038 2.847 5.126c0 0-15.723 5.397-26.81 3.922-13.052-1.738-23.801-4.206-23.801-4.206m107.786-.474s.758-2.09 1.806-3.136c0 0 1.992 2.377 1.992 3.136 0 0 .568-.285 1.615-1.045l1.518 1.518 1.806-1.232 1.71 1.517 3.132-1.33 1.234 1.33 4.842-.567 1.805.758 1.71-2.184 1.614 1.708 2.563-2.564s1.233 1.043 1.519 1.806c0 0 2.089-1.043 2.564-1.806 0 0 1.994-.759 2.278.476 0 0 1.234-.952 1.14-1.994-.094-1.044 1.424-.286 1.9 1.042 0 0 .568-2.086 2.086-2.277 0 0 1.044 1.23.759 3.516 0 0 2.277-1.81 3.323-1.998 0 0 .476 2.564-.284 4.846 0 0 2.374-3.896 2.85-2.565.19.758.76 3.322.19 5.125l2.088-1.328.757 2.565 2.278-.476s-13.48 2.065-26.18.854c-12.702-1.211-24.62-5.696-24.618-5.696m-9.387 9.428c.616-.381-4.243 9.994-16.025 10.547-16.393.767-30.406-7.411-30.406-7.411s1.71-2.848 2.753-3.61c0 0 2.277 1.806 3.038 4.083 0 0 .286-1.52 1.045-2.847 0 0 2.85 1.325 3.323 3.133 0 0 1.046-1.804 1.806-2.277.759-.573 1.52 1.99 1.52 3.514 0 0 1.803-1.903 2.848-1.998 0 0 1.995.95 2.565 4.275 0 0 1.899-1.803 2.562-1.521 0 0 2.28 1.521 1.708 3.609-.283 1.141 2.28-1.326 5.414-2.087l2.753 2.087s2.563-3.416 3.323-4.56c0 0 2.09.762 2.09 1.998 0 0 .951-3.61 1.709-3.989.759-.474 1.803 1.139 1.803 2.186 0 0 .287-2.755 1.806-3.325 0 0 1.52 1.043 1.52 2.091-.004-.002 1.61-3.136 2.846-3.898z" fill="#5ac800"/></svg>