<svg xmlns="http://www.w3.org/2000/svg" viewBox="0 0 1000 500"><path fill="#012169" d="M0 0h1000v500H0z"/><path fill="#0db02b" d="M0 0h1000v500z"/><circle cx="500" cy="250" r="90.3" fill="#f7d116"/><path fill="#0db02b" d="M444.8 209.4c6.2 8.5 15.5 22.7 23.1 19 5.9 0 8.9.4 9.7 4.3 13.9 2.4 37.2-3.5 51.6-22.4 0 0 1.2.2.8-7 .1-3.1 4.3-2.5 4.4-1.5.6 1.6.5 2.7 1.3 2.8 1.8-.6 4.2-4.6 6.3-7.1.6-1.1.3-2.3.4-3.7 1.1-2.7 3.8-2.1 4.3-.7.5.9.5 1.6 1 2.5 2.7 1.8 7.7.1 8 .1.5-2.2 1.9-2 1.9-2 1.8-.4 1.1-.2 2.3.4-1.1 12 2.4 12.5 2.1 18.7.1 6.9-2.1 8.8-2.1 11.4.7 3.2 10.8 3.3 7.3 6-3.1 1.7 0 4.8-4.7 6-13.7 7-16.4 12.9-16.4 12.9s-3.4 6.5-3.8 6.5c-2.3 4.3-5.2 2-6.8 4.1-.8 2.7-1.7 8.6-.1 11.6.8 4.2-.1 6.5-1.1 10.7-.9 8.8-4.4 10.1-4.8 13.2-1.6 3.3.3 18.8-1.2 18.8-10.2.2-18.1-2-22.1-2.8 3.9-17 2.4-31.9 2.4-33.4-1-12.1-18.2-9.2-20.8-10.8-2.2-.5-3.5-2.2-4.3-3-2.4-.3-3.3-.8-5.8-1.1-1.2.6-.5 1.2-3.2 2.1-6.9.8-9.9-6-9.9-6 .3-2.3-15.4.5-24-1.5-3.5 2-5 7.7-7.9 8.4-.1 1.8-4.7-1.5-5.7-3.2-.2-5.1 4.5-7.4 4.5-7.4 3.7-2.6 5.9-3 7.7-4.8.9-4.5.4-7.8 2.3-11.1 1.6-2.6 4-1.4 5.6-2.5 1.7-1.1 2.5-8.7.9-10.7l-7.3-6.6c-2.2-6.5 2.7-10.6 4.1-10.2"/><path fill="#fff" d="M188.2 190.9 175.4 179l-12.9 11.8 1.4-17.4-17.2-2.8 14.5-9.8-8.6-15.2 16.7 5.2 6.5-16.2 6.3 16.3 16.7-5L190 161l14.3 10-17.3 2.5zm45.2 144.6-13.8-9.2-13.4 9.7 4.7-15.6-13.6-9.4 16.7-.4 5-15.5 5.6 15.3 16.7-.2-13.2 9.9zM190.7 460l-12.8-11.9-12.9 11.7 1.4-17.4-17.2-2.8 14.5-9.8-8.6-15.2 16.7 5.2 6.5-16.2 6.3 16.3 16.7-5-8.8 15.1 14.3 10-17.3 2.5zM76.1 314.2l-12.8-11.9L50.4 314l1.4-17.4-17.2-2.8 14.5-9.8-8.6-15.2 16.7 5.2 6.5-16.2 6.3 16.3 16.7-5-8.8 15.1 14.3 10-17.3 2.5zM296.6 276l-12.8-12-12.9 11.8 1.4-17.4-17.2-2.8 14.5-9.8-8.6-15.2 16.7 5.2 6.5-16.2 6.3 16.3 16.7-5-8.8 15.1 14.3 10-17.3 2.5z"/><path fill="#f7d116" d="M941.2 188c-3.5-2-5.9-.4-10.6-2-3.9-1.3-3.2-2.7-6.6-3.8-4-1.3-5.9.4-12.8 1.1-2.4.2-6.2.5-8.4.2-8.9-1.2-15.9-15-18.8-25.5-3.9-13.6-1.2-22.9-3-42.5-.4-4.4-1.4-10.8-3.8-17.9-1.7-5.1-5.1-13.1-21.6-32.3-18.3-21.2-32.9-33-36.8-36.1-6.2-5-11.7-8.8-15.7-11.5.6 6.2 2 15.4 5.4 25.9 3.9 12.2 8.7 20.9 13.3 29.2 7.7 13.8 27.1 48.1 24.4 58.1-.2.6-.8 2.7-1.4 5.8-.8 4.1-1 7.5-1.1 9.8-2.5-.8-6.3-2.2-10.8-4.4-8.3-4.1-13.7-8.4-16.4-10.5-7.4-5.6-14.6-8.1-28.9-13.3-19-6.9-36.8-9.6-51.1-10.5 9 13.1 17.8 21.9 24.3 27.4 12.1 10.4 24.9 17.5 31.2 21 7.7 4.3 10.9 5.5 18.9 10.6 12.3 7.9 17 13 20 17 3.7 4.9 7.1 9.4 7.9 16 .8 6.4-1 13.3-6.4 21.9-15.6 24.7-45.5 38.3-54.6 42.2-11.4 4.9-29.3 12.5-56 16.3-20.2 2.9-52.3 4.5-91.5-6.1 4.1 1.8 8.7 3.6 13.7 5.2 5.4 1.7 10.4 2.9 15 3.8.3.1-6.4.3-13.2-1.2-8.2-1.8-14.7-5-19.2-7.7 3.4 2.7 8.7 6.4 15.5 9.4 8.8 3.9 17.8 5.7 44.4 5.8 16 .1 24 .1 31.9-.7 22.6-2.3 39.5-7.8 55.5-13.3 13.5-4.6 25-8.5 39.9-16.2 21.5-11.2 31.7-20.8 55.6-30.5 7.5-3 11.3-4.6 16.1-6 14.2-4.2 19.6-3.1 29.4-8.6 8.8-4.9 11.6-9.9 12.4-11.4 1.3-2.4 1.5-3.9 2.9-5.7 3.7-4.7 10.2-4.9 15.2-4.3-.6-1.3-2-3.3-4.2-4.7m-19.2 4.6c-.6.8-1.7 1.1-2.6.9-1.3-.4-2.2-1.8-2.1-3.5l-3-1.6h7.7c.9 1.3.8 3.1 0 4.2"/></svg>