<svg xmlns="http://www.w3.org/2000/svg" width="800" height="480"><style>.B{stroke:#000}.C{stroke-width:1.157}</style><path d="M0 0h800v480H0z" fill="#00b140"/><path d="M0 0h800v240H0z" fill="#fff"/><g fill="#c8102e" class="B C"><path d="M246.663 113.816c-25.98 3.937-91.82 10.123-117.509 5.906l5.02 12.092c42.515-3.937 83.259 9.843 121.052-4.499l-8.563-13.498z"/><path d="M145.985 143.343c-16.24-4.779-43.107-32.62-47.535-49.493 12.695 8.716 43.105 19.966 54.03 18.841-3.544 2.531-12.401 9.279-19.192 10.123 3.25 6.188 9.448 14.06 12.697 20.528zm52.257-8.436c4.726 6.468 29.526 3.796 42.072-4.076l-3.395-5.485-2.509 4.64-3.985-4.358-1.032 6.889-6.938-5.062-1.183 6.047-4.428-5.344-1.623 6.609-6.497-5.064-2.509 6.891a13.18 13.18 0 0 1-3.101-8.295c-2.509.983-4.576 4.217-4.872 6.606zm2.067-20.949c0 1.686 2.067 6.609 5.907 8.013.148-2.108-2.511-7.03-.886-9.137l3.395 3.093 1.034-5.906 4.576 3.234.442-6.889 4.724 3.093v-7.592c-7.677.701-17.125 9.56-19.192 12.091zm479.112 76.629c-1.993-4.499-8.193-9.982-13.655-13.357l8.779-21.074c-8.267 1.689-25.459 2.936-35.499 1.812 18.895-17.997 58.459-55.118 71.45-71.991-4.724 23.059-1.18 74.802 8.267 92.799-10.04-3.937-21.643-12.089-28.137-21.088-3.831 12.919-8.529 26.996-11.13 32.759"/><path d="M310.733 91.882c1.18 5.906 1.474 10.405 5.904 12.092s14.171 5.061 20.372 15.186c-7.381-1.968-17.715-4.781-18.601 1.969-.842 6.424 2.115 6.234 7.087 7.31 6.495 1.406 12.695 8.999 12.992 19.124-5.316-3.093-12.697-5.624-17.421-5.624s-6.053.842-7.233 6.466c-1.949 9.276 1.625 9.843 6.053 10.405s13.878 4.781 14.468 20.248c-5.02-4.219-15.088-6.569-21.259-7.592-3.395-.562-3.985 1.124-4.427 7.03s.294 7.875 6.198 9.561 12.697 5.906 14.468 14.905c-5.61-2.531-14.468-1.687-17.125-.563s-4.096 7.41 1.514 19.501a176.19 176.19 0 0 1 37.164-7.691c27.906-2.798 21.259-21.37 21.259-50.617s61.41-61.866 154.709-113.609c-22.439 54.554 8.268 49.493 25.39 43.307s57.279-21.934 88.575-34.871c-43.107 27.558-64.956 56.805-27.163 69.741-48.421 14.622-70.86 54.554-44.287 79.864-18.12-6.113-43.232 5.42-53.75 21.483 18.895-1.689 55.52 2.703 77.959 8.888 21.367 5.89 56.64-1.007 59.964-19.157a14.99 14.99 0 0 0 .268-2.777c0-6.327-1.629-11.104-4.124-14.585-5.488-7.66-15.104-9.318-20.381-9.318-7.677 0-15.648 3.093-15.648 8.436s4.724 7.592 14.172 7.592c5.166 0 13.13.855 21.858-6.711 2.495 3.481 4.124 8.258 4.124 14.585a14.811 14.811 0 0 1-.28 2.738 56.84 56.84 0 0 1-26.885 6.823c-18.896 0-36.609-7.312-36.609-26.996s21.256-30.933 38.381-30.933c23.619 0 56.686 8.999 56.686 44.993 0 45.558-62.714 66.864-99.916 66.864 6.237 4.984 13.262 9.627 20.791 12.438 26.348 9.843 49.602 21.934 57.869 40.496-10.038 0-26.573-7.874-34.25-15.749 21.259 24.748-4.525 70.27-1.77 85.49 2.951 16.309 23.029 6.186 23.029 18.841 0 11.247-11.811 9.279-16.239 4.217s-18.627-9.314-25.983-4.217c-6.494 4.499-16.532 6.748-20.962 2.249s-20.666-2.813-27.457 3.375-16.276 6.669-19.192 1.969c-3.122-5.033-2.324-11.153 10.306-13.271-5.61-5.626-22.707 3.99-25.658-6.695-2.123-7.678 2.361-11.249 17.123-10.125-1.477-3.655-12.399-5.341-10.924-12.936s10.01-12.292 20.078-1.124c26.866 29.809 39.267 13.218 48.419.282-2.951-6.75.296-11.249 5.907-15.467-2.953-4.782-1.183-11.529.884-16.029-4.428-2.531-7.085-13.78-2.361-17.717-3.84 0-9.744-4.219-9.744-11.529a13.77 13.77 0 0 1-16.532-1.687c-5.61 3.093-20.372 3.655-26.869-3.095-8.858 3.375-24.506 2.531-28.637-3.937-7.796 1.971-22.145-4.499-25.096-11.529a30.64 30.64 0 0 1-12.945-3.935c-11.808 8.437-27.8 24.745-11.857 37.119s49.011 2.248 49.602 33.182c-7.677-6.186-21.849-4.499-26.573-10.685-15.942 22.497-38.971 43.025-72.925 51.461 5.018 3.093 14.172 3.375 17.713 3.093 7.362-.584 13.581 5.344 7.973 12.374s-17.125 1.125-23.915-4.779c-9.772-8.5-16.239-3.657-18.896-1.689s-6.201 3.095-10.924-1.406-9.154-1.404-11.515 1.406c-3.838 4.57-12.695-5.906-26.867 6.468-6.814 5.95-23.029-1.686-16.535-10.405-6.791 1.689-18.801-7.707-8.857-16.871 9.154-8.436 26.572 10.967 40.744 5.341-3.185-3.86-9.823-11.011-23.62-12.654-7.087-.844-8.341-8.695-5.02-14.342 4.133-7.03 16.831-2.248 25.392 8.719 6.744 8.639 15.648 8.717 24.8 7.03 6.43-4.083 16.387-4.219 20.817-2.813 0-4.217 6.937-7.875 12.251-7.875-.294-5.624 1.477-10.685 10.04-12.091a30.155 30.155 0 0 1 2.213-.3 20.273 20.273 0 0 1-15.803-6.479c-11.827 2.886-24.929-2.676-26.855-13.313-18.694-1.303-20.553-20.167-15.947-26.308a10.2 10.2 0 0 1 1.259-1.409c-5.564 4.184-12.674 6.119-21.467 3.073a33.342 33.342 0 0 1-36.057 12.292 27.319 27.319 0 0 1-15.898 11.362c.551 6.816-.919 14.538-9.915 23.612 2.361-12.374-14.172-16.311-10.628-36.557-1.183 14.622-45.764 38.807-52.851 70.865 6.497 2.813 13.584 4.779 18.011 3.937 11.137-2.121 14.762 8.999 11.515 13.498s-12.401 6.748-16.239 2.811-11.811 1.406-15.648-5.904-14.468-4.781-18.895 0-19.192-6.188-29.82 4.779c-3.976 4.103-17.419 8.437-25.392 6.188s-12.695-10.125-10.038-14.342c-5.314-4.782-5.388-10.637-.294-15.749-1.921-7.171 4.34-21.342 14.91-15.747 6.643 3.514 30.188 20.107 50.708 1.124 17.792-16.664 7.427-30.016 18.821-31.777-1.386-6.766 2.954-15.184 7.677-16.873a12.248 12.248 0 0 1-.697-9.014 29.106 29.106 0 0 1-7.849-1.72 105.648 105.648 0 0 1-27.181 3.986c0 6.748-8.265 23.059-15.352 30.933-2.361-61.866-61.41-68.054-69.384-117.265-.294 7.31-8.267 14.622-9.152 20.808s-4.724 10.967-11.811 8.157-8.857-14.625-1.77-16.311 5.758-12.936 10.186-14.342 5.166-5.906 3.395-11.529.884-12.374 2.657-16.591-.886-11.249-7.087-13.78-8.265-8.717-5.904-14.06c-6.495-4.499-4.643-14.223 4.133-16.029 10.924-2.251 10.628 14.902 16.829 16.873-.884-3.375.296-9.843 2.954-14.062-3.544-7.313.886-13.216 7.971-13.216 12.401 0 8.267 19.684 5.314 25.872 4.134-5.626 10.631-12.094 15.648-7.592s4.201 13.895-1.181 17.995c-4.43 3.375-13.581 8.718-10.924 14.624 5.314 8.999 8.561 19.684 9.154 33.464 7.381 5.344 12.105 11.529 12.105 16.591 4.87.282 14.199 4.131 15.5 9.563 5.904-.564 14.723.564 17.271 5.765 1.921-.986 7.043-1.314 10.144-1.034a19.06 19.06 0 0 1 4.323-12.043c-10.038-10.687-9.744-27.558.591-34.308-2.942-7.006-1.771-19.966 7.971-26.716-.21-7.032 1.773-16.309 11.515-22.214-1.477-7.594 3.544-17.997 9.744-18.56-1.477-7.312-.361-16.337 8.2-20.557a10.552 10.552 0 0 1-2.895-7.89c-15.019 3.093-20.888 11.847-25.677 20.01-.59-3.375-1.477-7.874-3.544-11.249 0 8.717-6.791 11.811-7.085 23.903-5.02-5.062-6.791-13.218-6.497-18.841.236-4.502-7.675-8.717-5.314-16.591 11.811 10.405 35.726-12.374 56.393-5.061-20.372-40.776-35.134-21.093-45.468-14.06s-17.715-3.375-16.532-10.125c-13.878-3.093-30.412-2.531-48.421.844 13.285-16.593 44.582-23.903 67.611-22.217 10.038-17.715 22.145-15.184 33.953-13.498 7.721 1.105 16.739 1.129 25.686.699 5.61-14.905 38.381-16.445 41.631-28.257 2.953 2.249 1.159 10.712-1.794 18.021 8.536-2.433 15.866-5.033 18.326-10.147 1.477 4.779-.884 17.715-4.134 21.652a34.301 34.301 0 0 1 10.334-1.125c-10.334 5.624-23.323 14.06-25.39 15.467s-3.25 4.217 2.067 7.03c-5.907 1.125-22.439 6.75-29.23 2.251"/><path d="M86.345 167.95c7.823-5.344 18.52-1.393 20.814 6.468 1.477 5.061-7.492 8.82-8.267 4.078-1.032-6.327-5.314-10.264-12.547-10.546zm30.682-16.349c9.105-2.983 18.164 3.721 17.995 11.88-.109 5.251-9.832 6.402-9.147 1.649.914-6.345-2.002-11.285-8.848-13.529zm33.86 14.396c8.684 3.957 10.203 14.788 4.074 20.49-3.946 3.67-11.723-2.006-7.733-4.938 5.324-3.908 6.884-9.38 3.659-15.552zM81.733 279.659c7.577 5.655 18.442 2.143 21.085-5.619 1.701-4.997-7.094-9.115-8.078-4.409-1.314 6.278-5.768 10.039-13.007 10.028zm53.326 113.719c3.173-8.657 14.31-11.289 20.935-6.115 4.263 3.333-.803 11.32-4.301 7.866-4.668-4.61-10.547-5.485-16.634-1.75zm-9.962 23.284c.528-9.155 13.41-14.909 21.281-11.688 5.069 2.075 2.528 11.088-1.84 8.692-5.826-3.194-14.681-2.2-19.442 2.996zm14 21.604c-3.303-8.613 3.56-17.369 12.128-17.362 5.516.005 6.909 9.241 1.905 8.679-6.675-.75-11.807 2.123-14.033 8.683zm138.862-7.689c1.141-9.104-7.651-16.126-15.988-14.248-5.367 1.21-4.497 10.505.236 8.864 6.319-2.189 12.005-.516 15.752 5.383zm53.268 2.907c-1.977-8.974 6.131-16.705 14.609-15.533 5.46.754 5.453 10.086.583 8.849-6.494-1.651-12.003.491-15.192 6.684zm132.829-2.193c.738-9.144-8.355-15.808-16.602-13.597-5.309 1.424-4.031 10.676.628 8.848 6.217-2.44 11.971-.996 15.974 4.749zm-148.599-16.849c-1.412-9.069 8.036-16.875 16.426-15.224 5.402 1.065 3.941 10.925-.842 9.415-6.381-2.017-12.015-.19-15.583 5.809zm12.366-26.092c.528-9.155 11.431-14.993 19.302-11.77 5.067 2.075 1.553 11.457-2.812 9.061-5.826-3.197-11.73-2.484-16.491 2.709zm203.286 49.914c-1.977-8.974 6.131-16.706 14.609-15.533 5.46.756 5.453 10.088.583 8.851-6.495-1.651-12.003.492-15.192 6.682zm131.93-4.295c2.043-8.961-6.008-16.747-14.496-15.63-5.462.719-5.525 10.05-.648 8.844 6.508-1.607 12.003.571 15.144 6.785zm-148.923-16.504c-1.391-9.072 7.205-16.311 15.591-14.64 5.399 1.076 4.784 10.39.007 8.867-6.376-2.03-12.014-.216-15.597 5.773zm4.913-24.761c.178-9.169 9.897-14.977 17.884-12.028 5.143 1.898 2.946 10.992-1.509 8.75-5.944-2.994-11.815-2.076-16.375 3.278z"/></g><g fill="none" class="B C"><path d="M552.242 93.289c-22.439 7.312-109.242 39.932-125.184 44.993s-24.209 6.188-33.657 26.996"/><path d="M510.318 69.103c-56.686 34.871-102.744 65.241-115.736 93.926s-12.105 46.118-43.697 51.179m-90.935 53.994c14.172-15.748 43.695-34.87 72.039-35.994a169.52 169.52 0 0 0-14.172 26.996m-.59 10.685c7.087-8.999 24.8-28.12 36.02-35.995-5.314 15.187-14.171 51.181-9.447 75.926 2.951-23.621 15.942-60.178 29.523-80.988 10.04 23.059 23.619 55.68 23.619 76.491 2.953-24.747-2.951-67.492-11.808-86.051 24.209 11.809 54.325 45.555 67.317 66.366-8.857-29.247-38.973-64.679-54.918-75.929 39.564 6.75 96.843 30.935 118.099 48.933-34.838-30.933-77.355-55.118-107.468-66.368 47.239-3.935 135.814 6.188 161.204 15.749-37.201-20.248-113.965-30.933-160.024-28.121 48.421-19.686 134.634-42.182 204.311-51.743-53.145 2.811-121.642 16.311-191.91 31.495 31.296-20.248 128.137-58.491 151.166-65.241M274.122 79.79c4.217-13.273 21.423-16.796 35.407-20.786"/><path d="M297.445 89.634c-11.808-.844-13.908-4.841-7.381-9.281 4.134-2.813 12.695-7.312 18.602-7.874-1.477-.28-5.61-1.406-7.678-1.686 6.201-2.531 16.535-6.188 20.076-9.563m-37.348 7.031c-4.518.39-9.26.749-14.023.979m-16.533 65.105a57.106 57.106 0 0 0-8.573 1.083m-39.448 142.287a32.457 32.457 0 0 0 8.161 21.983c4.724 5.061 33.66 6.75 34.84-2.813m-38.678-31.214c10.038 10.685 42.515 4.217 42.515-3.655m-41.924-30.653c3.543 8.436 41.334 16.029 41.924 6.186m-33.953-32.902c.296 9.843 34.712 16.236 35.726 8.999m-24.212-31.213c1.477 7.592 24.212 14.905 27.459 11.529m-17.715-30.089c1.076 5.333 17.419 10.123 23.029 8.155m-14.829-28.711c3.349 3.873 9.848 7.478 21.03 9.307m-77.649-49.212c.294-5.906 6.198-6.748 5.314-12.654m56.687 36.839c2.067 3.093 7.381 9.561 7.971 14.342 2.954-2.251 5.314-7.032 6.201-9.281a18.42 18.42 0 0 1 5.904 8.998c1.183-3.375 3.25-9.281 3.544-12.936a27.39 27.39 0 0 1 11.515 5.624c.59-3.655-1.18-8.436-4.134-10.405a19.74 19.74 0 0 0 9.448-1.968c-2.067-2.811-5.314-6.468-8.562-8.155 2.954-.844 7.085-4.217 8.858-5.624-2.657-1.124-7.381-3.657-10.334-5.061 1.771-1.689 3.247-5.061 4.134-7.594M203.852 81.9c-1.918 0-2.805 4.217.738 6.889 2.548 1.922 2.509 9.843-2.067 11.812"/><path d="M272.939 141.657c-12.989 28.683-24.947 83.098-20.814 122.467m14.024 53.853c0 5.906 9.744 7.03 9.448-7.03m-.885 7.03c1.18 5.061 11.218 6.186 9.151-8.718"/><path d="M270.579 321.914c.59 10.967 7.971 10.405 8.561 0m5.02-7.594c2.951 6.75 11.218 3.375 8.858-11.529"/><path d="M293.312 309.258c3.249 5.626 10.924 1.126 11.811-8.717m-50.193-22.496c-5.066 5.284-10.878 17.147-3.839 28.402 4.136 6.607 15.502 10.264 16.683 6.327M251.091 306.447c-4.576.703-11.306 10.046-7.971 18.98 2.363 6.327 15.945 10.125 18.011 5.485m128.727-16.592c14.762 1.689 34.249-7.872 35.43-26.996m-1.773 8.999c8.268 5.062 25.393 6.75 32.477-6.186m-24.799 10.122c-7.677 16.873-14.632 34.8 1.18 47.806 12.991 10.687 22.64-5.244 38.384 10.687 4.723 4.779-.887 13.778-48.422 39.932m-227.34-119.936c3.101 6.327 2.805 18.701-3.099 17.012m-43.55 122.891c10.038-14.622 21.891-2.806 30.41-5.344"/></g><path d="M226.735 84.429c-1.773 4.078 2.942 9.783 7.381 10.266 5.166.562 12.547-2.672 10.924-7.874" fill="#fff" class="B C"/><g fill="none" class="B C"><path d="M221.567 84.852c2.657-3.516 33.659 7.592 46.058-.282M121.183 189.745c-1.18 2.529-.738 9.982 3.84 14.06M340.256 416.4c2.363-2.81 11.105-5.65 17.567-4.076 6.348 1.545 17.715-.562 25.096-3.375m-109.98-267.292c-2.951 27.559 3.692 69.882 20.669 88.723m-29.584-64.256c.486 24.522 6.791 53.637 19.254 69.664m-26.077-42.939c2.453 18.557 7.978 37.218 16.708 49.338m-20.988-21.171c2.949 11.013 7.101 21.121 12.492 28.722m-14.012-2.07a66.683 66.683 0 0 0 5.881 10.136"/><path d="M272.349 158.81c-.884 8.718-6.494 15.466-11.515 19.404m12.105-7.31c-.884 8.716-7.085 16.591-15.204 20.387m16.977-8.296c-.886 8.717-9.744 19.404-19.782 24.183m22.143-12.092c-.884 8.719-12.399 21.934-24.122 26.176m27.814-14.084c-3.395 11.812-16.977 25.592-28.933 28.685m34.247-16.591c-.886 8.716-19.044 26.433-34.692 31.495m-73.663 22.217c1.919 8.013-4.43 15.326-7.677 13.357"/><path d="M211.529 300.824c-30.706-6.188-53.537-16.496-66.134-40.496-3.249-6.186 5.314-7.874 4.724-13.498m-9.154-33.464c-5.314-8.998-6.497-18.841-3.544-25.027"/><path d="M162.224 263.421c0 5.063-6.348 11.529-8.563 9.14m59.639 27.136c-3.539 8.187 3.305 23.822 18.324 29.198m11.495-3.467a9.53 9.53 0 0 0-3.647 5.187m15.755 11.545c-2.659 4.219-12.991 1.126-15.058-2.531m-26.499 48.65c-12.519 11.723-25.272 12.385-40.522 14.06-15.354 1.689-19.634-4.921-25.096.562m165.631-102.642c1.773 7.875 1.181 15.749-5.904 27.56-3.911 6.517-.206 13.546.468 21.944m73.422-26.727c6.768-5.088 11.234-13.481 13.503-19.964m-34.97 23.037a32.604 32.604 0 0 0 3.083-34.848m-39.14 47.14c4.539-6.675 7.254-16.183 7.254-28.581m-98.908 46.682c1.181 5.764 10.334 8.295 11.811 5.485"/><path d="M305.712 288.73c0 5.624-5.904 9.843-10.334 6.468.59 8.155-5.608 10.687-10.038 6.75.886 11.529-9.152 12.654-15.648 3.655-7.381 34.588-32.181 60.46-33.954 77.333-.59 3.937-16.386 2.813-12.253-8.716m189.402-53.712c-8.858-1.054-24.436-3.646-31.218 2.529m34.762 23.904c-8.186 3.093-14.801 4.18-20.073 3.811m42.658 19.793c8.159-.304 16.574-5.471 19.93-18.259m-35.734 11.78a24.44 24.44 0 0 0 15.951-12.343"/><path d="M463.373 373.375c-5.14-1.548-15.991-3.589-24.357-2.831m-4.87 21.673c3.247-1.689-2.067-9.281-7.383-9.281m-54.62 21.934a130.626 130.626 0 0 0 21.552-11.247m20.817-2.813c4.009 1.274 9.89 6.186 7.823 7.874m30.116-113.047c4.724 7.874 13.579 12.936 25.39 7.874.831 2.372 3.639 4.806 7.133 6.75m32.725-16.592c5.907 4.499-4.428 21.09-19.78 20.528"/><path d="M600.367 385.187c2.048 4.68 9.744 4.217 12.697 0 3.372-4.819 9.448-19.686 5.904-49.495s-33.657-33.744-68.497-40.494-43.697-17.435-50.782-37.118"/><path d="M606.274 369.72c2.951 4.779 11.218 3.655 12.399-1.126m-11.515-14.903c4.43 2.531 12.991 1.686 12.695-3.937m-15.056-13.78c3.837 0 14.171.562 13.581-3.937m-23.325-7.592c3.247-2.251 12.401-11.811 7.381-14.625m-23.913 12.938c5.608-3.095 11.808-19.124 5.018-20.53m-31.887 17.435c8.857-3.375 17.125-20.81 11.22-21.934m-39.857 17.997c14.465-3.655 18.895-22.214 13.285-23.903m6.495 107.142c15.067 1.149 23.325 8.719 29.23 11.811m-32.772-164.509c13.727-1.265 27.223 18.732 45.934 33.68m105.438-122.259c2.583-8.712 4.747-16.897 5.698-21.655M551.331 415.785a64.6 64.6 0 0 1 10.656-.789m123.116-285.713c-1.995 5.383-6.284 16.34-10.559 26.873M313.721 221.9c-26.04 8.551-53.007 24.97-70.305 55.301 9.448 2.249 27.753 0 36.02-2.813.591 7.312.591 16.873.591 23.061 8.267-6.188 18.305-15.187 25.982-17.435-.592 7.31-.592 20.245-.592 25.309 11.221-11.249 32.477-12.374 38.384 4.497 4.723-24.745 43.695-25.87 53.143-4.497 10.631-19.686 37.793-26.998 55.508-19.686 7.675-20.81 41.332-32.057 63.181-26.996-7.242-9.534-5.948-20.076-.014-29.136"/></g><path d="m230.229 85.391 11.581 2.04s-8.151 10.403-11.581-2.04z" stroke-width="1.692" stroke-linejoin="round" class="B"/></svg>