<svg xmlns="http://www.w3.org/2000/svg" width="1000" height="600"><defs><style>.cls-1,.cls-2{fill:#ff0;stroke-width:0}.cls-2{fill:red}</style></defs><g id="svg1047"><g id="g1045"><circle id="circle1009" cx="500" cy="300" r="124" class="cls-2"/><path id="path1011" d="M0 0h1000v600H0z" class="cls-2"/><circle id="circle1015" cx="500" cy="300" r="114" class="cls-1"/><path id="path1043" d="m500 488.57-6.43-64.27c-.22-2.16.54-4.36 2.2-5.76.99-.83 2.36-1.47 4.23-1.44 2.76.05 4.43 1.53 5.4 2.98.87 1.29 1.21 2.86 1.06 4.41L500 488.56ZM688.57 300l-64.27-6.43c-2.16-.22-4.36.54-5.76 2.2-.83.99-1.47 2.36-1.44 4.23.05 2.76 1.53 4.43 2.98 5.4 1.29.87 2.86 1.21 4.41 1.06l64.07-6.46Zm-2.32 29.5-62.47-16.4c-2.1-.55-4.39-.15-6.03 1.27-.98.85-1.82 2.11-2.08 3.95-.39 2.74.82 4.61 2.09 5.8 1.14 1.06 2.64 1.65 4.19 1.73zm-6.91 28.77L620.2 332.3c-1.99-.87-4.31-.83-6.15.31-1.1.69-2.13 1.79-2.67 3.58-.81 2.64.09 4.68 1.16 6.05.96 1.22 2.35 2.04 3.87 2.37zm-11.32 27.34-54.35-34.9c-1.82-1.17-4.13-1.5-6.13-.65-1.2.51-2.38 1.44-3.2 3.11-1.21 2.48-.65 4.64.2 6.16.76 1.36 2 2.38 3.45 2.94l60.02 23.34Zm-15.46 25.23-48.22-42.97c-1.62-1.44-3.84-2.13-5.95-1.6-1.26.31-2.58 1.05-3.65 2.58-1.59 2.26-1.37 4.48-.77 6.12.54 1.46 1.6 2.66 2.95 3.45l55.63 32.44Zm-19.22 22.5-40.9-49.99c-1.37-1.68-3.46-2.7-5.63-2.51-1.29.11-2.71.63-4 1.97-1.92 1.99-2.05 4.21-1.71 5.92.3 1.53 1.17 2.88 2.37 3.87zm-22.5 19.22-32.58-55.77c-1.09-1.87-3-3.21-5.16-3.36-1.29-.09-2.77.2-4.26 1.32-2.21 1.66-2.68 3.84-2.62 5.58.06 1.55.7 3.03 1.74 4.19zm-25.23 15.46-23.45-60.18c-.79-2.02-2.46-3.64-4.57-4.13-1.26-.29-2.77-.23-4.42.64-2.44 1.29-3.25 3.37-3.46 5.1-.19 1.54.22 3.1 1.06 4.41zm-27.34 11.32-13.75-63.11c-.46-2.12-1.86-3.98-3.87-4.79-1.2-.49-2.7-.66-4.46-.06-2.61.9-3.74 2.82-4.21 4.5-.43 1.5-.27 3.1.36 4.52l25.94 58.94Zm-28.77 6.91-3.71-64.48c-.12-2.17-1.21-4.22-3.07-5.34-1.11-.67-2.56-1.08-4.4-.76-2.72.48-4.13 2.2-4.87 3.78-.65 1.41-.75 3.02-.35 4.52zM311.43 300l64.27-6.43c2.16-.22 4.36.54 5.76 2.2.83.99 1.47 2.36 1.44 4.23-.05 2.76-1.53 4.43-2.98 5.4-1.29.87-2.86 1.21-4.41 1.06L311.44 300Zm2.32-29.5 64.48 3.71c2.17.12 4.22 1.21 5.34 3.07.67 1.11 1.08 2.56.76 4.4-.48 2.72-2.2 4.13-3.78 4.87-1.41.65-3.02.75-4.52.35zm6.91-28.77 63.11 13.75c2.12.46 3.98 1.86 4.79 3.87.49 1.2.66 2.7.06 4.46-.9 2.61-2.82 3.74-4.5 4.21-1.5.43-3.1.27-4.52-.36l-58.94-25.94Zm11.32-27.34 60.18 23.45c2.02.79 3.64 2.46 4.13 4.57.29 1.26.23 2.77-.64 4.42-1.29 2.44-3.37 3.25-5.1 3.46-1.54.19-3.1-.22-4.41-1.06zm15.46-25.23 55.77 32.58c1.87 1.09 3.21 3 3.36 5.16.09 1.29-.2 2.77-1.32 4.26-1.66 2.21-3.84 2.68-5.58 2.62-1.55-.06-3.03-.7-4.19-1.74zm19.22-22.5 49.99 40.9c1.68 1.37 2.7 3.46 2.51 5.63-.11 1.29-.63 2.71-1.97 4-1.99 1.92-4.21 2.05-5.92 1.71-1.53-.3-2.88-1.17-3.87-2.37zm22.5-19.22 42.97 48.22c1.44 1.62 2.13 3.84 1.6 5.95-.31 1.26-1.05 2.58-2.58 3.65-2.26 1.59-4.48 1.37-6.12.77-1.46-.54-2.66-1.6-3.45-2.95l-32.44-55.63Zm25.23-15.46 34.9 54.35c1.17 1.82 1.5 4.13.65 6.13-.51 1.2-1.44 2.38-3.11 3.2-2.48 1.21-4.64.65-6.16-.2-1.36-.76-2.38-2-2.94-3.45l-23.34-60.02Zm27.34-11.32 25.97 59.14c.87 1.99.83 4.31-.31 6.15-.69 1.1-1.79 2.13-3.58 2.67-2.64.81-4.68-.09-6.05-1.16-1.22-.96-2.04-2.35-2.37-3.87zm28.77-6.91 16.4 62.47c.55 2.1.15 4.39-1.27 6.03-.85.98-2.11 1.82-3.95 2.08-2.74.39-4.61-.82-5.8-2.09-1.06-1.14-1.65-2.64-1.73-4.19zm29.5-2.32 6.43 64.27c.22 2.16-.54 4.36-2.2 5.76-.99.83-2.36 1.47-4.23 1.44-2.76-.05-4.43-1.53-5.4-2.98-.87-1.29-1.21-2.86-1.06-4.41l6.46-64.07Zm-29.5 374.82 16.4-62.47c.55-2.1.15-4.39-1.27-6.03-.85-.98-2.11-1.82-3.95-2.08-2.74-.39-4.61.82-5.8 2.09-1.06 1.14-1.65 2.64-1.73 4.19zm-28.77-6.91 25.97-59.14c.87-1.99.83-4.31-.31-6.15-.69-1.1-1.79-2.13-3.58-2.67-2.64-.81-4.68.09-6.05 1.16-1.22.96-2.04 2.35-2.37 3.87zm-27.34-11.32 34.9-54.35c1.17-1.82 1.5-4.13.65-6.13-.51-1.2-1.44-2.38-3.11-3.2-2.48-1.21-4.64-.65-6.16.2-1.36.76-2.38 2-2.94 3.45l-23.34 60.02Zm-25.23-15.46 42.97-48.22c1.44-1.62 2.13-3.84 1.6-5.95-.31-1.26-1.05-2.58-2.58-3.65-2.26-1.59-4.48-1.37-6.12-.77-1.46.54-2.66 1.6-3.45 2.95l-32.44 55.63Zm-22.5-19.22 49.99-40.9c1.68-1.37 2.7-3.46 2.51-5.63-.11-1.29-.63-2.71-1.97-4-1.99-1.92-4.21-2.05-5.92-1.71-1.53.3-2.88 1.17-3.87 2.37zm-19.22-22.5 55.77-32.58c1.87-1.09 3.21-3 3.36-5.16.09-1.29-.2-2.77-1.32-4.26-1.66-2.21-3.84-2.68-5.58-2.62-1.55.06-3.03.7-4.19 1.74zm-15.46-25.23 60.18-23.45c2.02-.79 3.64-2.46 4.13-4.57.29-1.26.23-2.77-.64-4.42-1.29-2.44-3.37-3.25-5.1-3.46-1.54-.19-3.1.22-4.41 1.06zm-11.32-27.34 63.11-13.75c2.12-.46 3.98-1.86 4.79-3.87.49-1.2.66-2.7.06-4.46-.9-2.61-2.82-3.74-4.5-4.21-1.5-.43-3.1-.27-4.52.36l-58.94 25.94Zm-6.91-28.77 64.48-3.71c2.17-.12 4.22-1.21 5.34-3.07.67-1.11 1.08-2.56.76-4.4-.48-2.72-2.2-4.13-3.78-4.87-1.41-.65-3.02-.75-4.52-.35zM529.5 113.75l-3.71 64.48c-.12 2.17-1.21 4.22-3.07 5.34-1.11.67-2.56 1.08-4.4.76-2.72-.48-4.13-2.2-4.87-3.78-.65-1.41-.75-3.02-.35-4.52zm28.77 6.91-13.75 63.11c-.46 2.12-1.86 3.98-3.87 4.79-1.2.49-2.7.66-4.46.06-2.61-.9-3.74-2.82-4.21-4.5-.43-1.5-.27-3.1.36-4.52l25.94-58.94Zm27.34 11.32-23.45 60.18c-.79 2.02-2.46 3.64-4.57 4.13-1.26.29-2.77.23-4.42-.64-2.44-1.29-3.25-3.37-3.46-5.1-.19-1.54.22-3.1 1.06-4.41zm25.23 15.46-32.58 55.77c-1.09 1.87-3 3.21-5.16 3.36-1.29.09-2.77-.2-4.26-1.32-2.21-1.66-2.68-3.84-2.62-5.58.06-1.55.7-3.03 1.74-4.19zm22.5 19.22-40.9 49.99c-1.37 1.68-3.46 2.7-5.63 2.51-1.29-.11-2.71-.63-4-1.97-1.92-1.99-2.05-4.21-1.71-5.92.3-1.53 1.17-2.88 2.37-3.87zm19.22 22.5-48.22 42.97c-1.62 1.44-3.84 2.13-5.95 1.6-1.26-.31-2.58-1.05-3.65-2.58-1.59-2.26-1.37-4.48-.77-6.12.54-1.46 1.6-2.66 2.95-3.45l55.63-32.44Zm15.46 25.23-54.35 34.9c-1.82 1.17-4.13 1.5-6.13.65-1.2-.51-2.38-1.44-3.2-3.11-1.21-2.48-.65-4.64.2-6.16.76-1.36 2-2.38 3.45-2.94l60.02-23.34Zm11.32 27.34L620.2 267.7c-1.99.87-4.31.83-6.15-.31-1.1-.69-2.13-1.79-2.67-3.58-.81-2.64.09-4.68 1.16-6.05.96-1.22 2.35-2.04 3.87-2.37zm6.91 28.77-62.47 16.4c-2.1.55-4.39.15-6.03-1.27-.98-.85-1.82-2.11-2.08-3.95-.39-2.74.82-4.61 2.09-5.8 1.14-1.06 2.64-1.65 4.19-1.73z" class="cls-1"/></g></g><g id="Layer_1" data-name="Layer 1"><circle cx="500" cy="300" r="96" class="cls-2"/><path d="M483.87 251.29c1.68.77 3.36 1.58 5.06 2.44 1.84-1.12 3.68-2.18 5.52-3.19-1.66-.82-3.35-1.62-5.08-2.39-1.88 1.02-3.71 2.07-5.5 3.14M570.41 244.53c-.75-1.03-1.53-2.04-2.32-3.03-15.47 2.03-28.89 5.6-40.54 10.25 1.36.87 2.72 1.78 4.07 2.71 20.72-8.66 38.02-9.88 38.79-9.93M505.56 256.67c-1.8-1.11-3.65-2.19-5.56-3.24a129 129 0 0 0-5.56 3.24c1.85 1.05 3.71 2.15 5.56 3.32 1.85-1.17 3.71-2.27 5.56-3.32M500 247.63c1.69-.84 3.36-1.63 5.03-2.38-1.64-.8-3.32-1.58-5.03-2.34-1.71.76-3.39 1.54-5.03 2.34 1.66.75 3.34 1.54 5.03 2.38M510.63 248.15c-1.73.77-3.42 1.57-5.08 2.39 1.84 1.01 3.68 2.07 5.52 3.19 1.7-.86 3.39-1.67 5.06-2.44-1.79-1.07-3.62-2.12-5.5-3.14M516.92 245.52c1.82.98 3.64 2 5.47 3.07 21.86-8.84 40.21-10.31 42.83-10.48a80 80 0 0 0-3.22-3.42c-17.21 1.93-32.13 5.74-45.08 10.82ZM495.69 270.07c1.45 1.1 2.88 2.25 4.31 3.45 1.42-1.2 2.86-2.34 4.31-3.45-1.39-1.11-2.83-2.2-4.31-3.28a113 113 0 0 0-4.31 3.28M495.95 277.11c-.19-.16-.37-.32-.56-.48-1.24-1.04-2.51-2.07-3.8-3.1-40.71 35.86-40.71 87.71-40.66 91.3 2.83 1.92 5.79 3.67 8.85 5.25.08-45.39 16.23-74.41 36.17-92.96ZM508.41 273.53c-1.29 1.03-2.56 2.07-3.8 3.1-.19.16-.37.32-.56.48 19.94 18.55 36.09 47.57 36.17 92.96 3.06-1.58 6.02-3.33 8.85-5.25.05-3.59.05-55.44-40.66-91.3ZM441.39 231.47c1.92.08 22.57 1.13 47.41 11.13 1.67-.81 3.32-1.58 4.97-2.32-14.2-5.59-30.6-9.66-49.49-11.3q-1.47 1.215-2.88 2.49ZM420.59 328.82c1.68 3.74 3.62 7.34 5.8 10.78 9.77-36.68 28.86-60.93 49.57-76.95-1.59-.93-3.23-1.84-4.92-2.72-36.49 27.52-48.84 63.71-50.45 68.89M478.8 254.46c-1.41.92-2.77 1.87-4.12 2.82 1.67.8 3.36 1.65 5.05 2.56 1.39-1 2.78-1.97 4.18-2.9-1.66-.85-3.37-1.67-5.11-2.47ZM506.24 240.28c1.65.74 3.3 1.51 4.97 2.32 24.84-10 45.49-11.05 47.41-11.13q-1.41-1.275-2.88-2.49c-18.89 1.65-35.29 5.71-49.49 11.3ZM572.39 247.35c-15.09 1.7-27.15 5.17-37.23 9.61 18.67 13.63 36.33 33.18 48.2 61.19 2.21-7.54 3.4-15.5 3.4-23.74 0-17.39-5.29-33.57-14.37-47.06M500 237.64c26.29-10.52 48.33-11.91 51.34-12.05-14.38-10.41-32.13-16.56-51.34-16.56s-36.97 6.15-51.34 16.56c3.01.14 25.05 1.53 51.34 12.05" class="cls-1"/><path d="M486.58 269.68c-1.72-1.26-3.49-2.51-5.34-3.73-40.06 32.03-47.21 76.9-48.01 82.98 2.6 3.08 5.42 5.98 8.43 8.68 4.95-42.76 23.56-70.26 44.92-87.92ZM464.84 256.96c-10.08-4.44-22.14-7.91-37.23-9.61-9.08 13.49-14.37 29.67-14.37 47.06 0 8.24 1.19 16.2 3.4 23.74 11.87-28.01 29.53-47.56 48.2-61.19M500 280.73c-39.64 37.4-29.96 89.83-29.09 94.14 9.09 3.18 18.88 4.92 29.09 4.92s19.99-1.74 29.09-4.92c.88-4.31 10.55-56.74-29.09-94.14M477.61 248.59c1.83-1.07 3.65-2.1 5.47-3.07-12.95-5.08-27.87-8.89-45.08-10.82-1.1 1.11-2.18 2.25-3.22 3.42 2.62.17 20.97 1.64 42.83 10.48ZM518.76 265.95c-1.85 1.22-3.62 2.47-5.34 3.73 21.36 17.66 39.97 45.16 44.92 87.92 3.01-2.69 5.83-5.6 8.43-8.68-.8-6.08-7.95-50.95-48.01-82.98ZM494.96 263.33c-1.79-1.16-3.65-2.3-5.56-3.4-1.45.98-2.86 1.98-4.24 3 1.84 1.11 3.68 2.28 5.5 3.53 1.42-1.08 2.86-2.13 4.29-3.13Z" class="cls-1"/><path d="M573.61 339.61a84.6 84.6 0 0 0 5.8-10.78c-1.62-5.18-13.96-41.37-50.45-68.89-1.7.88-3.34 1.79-4.92 2.72 20.71 16.03 39.81 40.27 49.57 76.95M468.38 254.46c1.35-.93 2.71-1.84 4.07-2.71-11.66-4.65-25.07-8.22-40.54-10.25-.8.99-1.57 2-2.32 3.03.77.05 18.08 1.27 38.79 9.93M521.2 254.46c-1.75.8-3.45 1.62-5.11 2.47 1.4.93 2.79 1.9 4.18 2.9 1.69-.91 3.37-1.76 5.05-2.56-1.34-.95-2.71-1.89-4.12-2.82ZM510.6 259.93c-1.91 1.1-3.77 2.23-5.56 3.4 1.44 1 2.87 2.05 4.29 3.13 1.83-1.24 3.67-2.42 5.5-3.53-1.38-1.02-2.79-2.02-4.24-3Z" class="cls-1"/><ellipse cx="500" cy="294.41" rx="86.76" ry="85.38" style="stroke-width:0;fill:none"/></g></svg>