<svg xmlns="http://www.w3.org/2000/svg" width="1200" height="600"><clipPath id="a"><path d="M0 0v150h700v150H600zm600 0H300v350H0v-50z"/></clipPath><path fill="#012169" d="M0 0h1200v600H0z"/><path stroke-width="60" stroke="#fff" d="m0 0 600 300m0-300L0 300"/><path stroke-width="40" stroke="#c8102e" d="m0 0 600 300m0-300L0 300" clip-path="url(#a)"/><path stroke-width="100" stroke="#fff" d="M300 0v350M0 150h700"/><path stroke-width="60" stroke="#c8102e" d="M300 0v350M0 150h700"/><path fill="#012169" d="M0 300h600V0h600v600H0z"/><path d="M999.475 257.01c-.192 67.849-10.98 140.945-99.473 175.762-88.498-34.817-99.285-107.913-99.477-175.763z" style="fill:#128bbf"/><path d="M900.002 432.772c40.117-15.782 64.966-41.537 79.395-69.002-2.275-.767-6.806-.837-8.64-.179-2.177-.14-85.552-6.283-95.343-9.847-8.518-3.1-41.017 2.634-56.187 8.014 14.153 29.213 38.665 54.447 80.775 71.014z" style="fill:#e8ece9"/><path d="M838.156 390.71c1.352-.437 3.934-.333 4.952-.15 1.197.216 1.414.324 1.85-.972.435-1.296 1.415-.972 2.176-.324.762.648 2.717.324 3.479-.756.762-1.076.98-.968 1.741-.216.762.756 1.088.54 1.85.324.762-.212 2.068-1.076 2.721-2.264.653-1.189 1.628-1.62 2.173-.973.544.648 1.088.973 1.85.865.762-.108.98.648.87 1.616-.108.972.327 1.188 2.177-.32 1.633 1.616 2.173.968 2.173-.756 0-1.729-.432-8.097-1.085-8.961-.653-.864-1.306-3.349-1.414-5.293-.206-3.668-.218-3.884-4.68-6.153 0-1.296-.327-1.836-3.479-1.62.11-.432-.435-1.728-1.088-2.268-.653-.54-.762-.756-.435-2.264 1.306.108 2.72-.108 3.482-1.188.758-1.08 3.261-.865 4.785-.216 1.523.648 3.482.756 6.417.324 1.088-.865 2.938-1.837 4.897-2.917 1.955-1.08 2.5-1.512 2.608-3.024.28-3.876-1.088-8.313-2.177-10.361-1.084-2.052-1.41-4.645-2.934-7.885-1.658-3.527-1.633-4.425-3.483-6.585-.506-.594-1.088-1.08-1.197-2.264-.109-1.188-.544-2.808-1.846-3.996-3.29-2.996-4.57-12.634-5.877-19.759-.75-4.083-.217-13.709-1.955-15.221-2.938-2.377-4.353-1.944-6.312-2.7-1.415-1.945-2.064-5.83-3.37-9.286-2.067.324-3.482 2.485-4.897 3.24-1.415.757-1.632.757-1.632 2.701 0 1.94-1.089 4.64-3.044 7.665-1.959 3.02-5.224 2.16-7.94 6.693-5.986-7.233-6.095-9.285-6.53-11.338-.436-2.048-1.415-2.48-4.785-5.396 0-.864-.435-4.317-.108-6.26-2.504-2.053-4.354-1.729-5.547-.217-1.197 1.512-2.068 3.777-3.918 4.64-1.109 1.4-4.454 4.932-7.191 9.136 2.49 37.572 11.034 74.87 36.723 104.698z" style="fill:#69522b"/><path d="M999.475 257.01c.075-25.558-1.356-50.372-.703-72.116-33.069-14.686-76.58-17.706-98.77-17.706-22.194 0-65.706 3.02-98.774 17.706.653 21.744-.775 46.558-.703 72.115z" style="fill:#bca76b"/><path d="M805.903 286.593c1.089 1.728 3.048 4.698 3.265 6.314.762-1.566 1.36-2.264 1.524-3.236.163-.972 1.306-2.862.87-3.888-.435-1.027-.761-1.837.436-1.08 1.193.756.963 2.064.703 3.996-.703 5.289-2.934 6.369-3.26 9.933 3.21 7.503.816 10.203 4.294 17.544.544.324 1.997-.253 2.432-.145 1.846-1.297 3.228-.827 5.835-.287 2.612.54 4.027 2.372 4.027 3.992s0 2.053.544 3.025 1.633 2.484 1.415 3.564c-.218 1.076.218 1.724.544 2.264.327.54-.109 1.728-.435 2.485-.327.756-.218 1.728 1.088 3.348 1.306 1.616 4.35 8.42 4.35 12.413 0 3.997.217 5.833 1.85 6.585 1.632.756 2.176 1.404 1.959 3.132-.218 1.729.761 10.69.979 12.094.218 1.404.762 1.08 1.415 1.836.649.752 1.084 1.616 3.26 1.616 2.177 0 4.279-.287 5.693-.07 1.96 2.7 3.157 6.368 3.592 8.636.435 2.269.398 5.364 1.16 5.364.761 0 1.523.108 1.305-2.7-.217-2.81-.435-3.241-1.414-4.641-.98-1.404-1.524-2.052-.98-2.917.544-.864.653-2.268.435-3.348-.217-1.08-.544-2.696 1.306-.54 1.85 2.16 2.395 2.7 2.939 3.456.544.756.758 2.16.653 3.457-.109 1.292.105 1.832.866 1.184.762-.644 1.742.432 1.306 1.836-.435 1.404.11 2.268 1.415 2.7 1.306.432 1.85.756 2.177 1.729.326.972 1.415 1.4 1.415-.54 0-1.945-.762-6.05-1.306-7.341-.544-1.296-.98-4.105-1.089-5.725-.108-1.62-.435-2.048-1.197-2.372-.762-.324-1.415-.864-1.523-1.62-.11-.756-.762-1.026-1.252-1.026s-.92-.378-1.193-.919c-.272-.54-.544-.594-1.088-.648-.544-.054-1.415.27-1.687-.594s-.653-2.106-1.197-2.808c-.545-.702-1.034-.918-1.089-3.344-.054-2.43-.109-2.755-.87-3.619-.762-.864-2.068-3.128-2.612-4.1-.54-.972-1.085-1.944-1.085.108 0 2.048 0 3.128 1.302 3.884 1.306.756 1.633.756 1.089 1.836-.545 1.08 0 1.837.217 2.593.218.756.653 1.512 0 2.264-.653.756-1.306.54-1.197-.644.109-1.188-.326-2.592-.866-3.564-.545-.973-.98-1.62-1.633-1.08s-1.197-.109-.762-.54c.436-.433.327-.757 0-1.08-.326-.325-.435-.649.11-1.297.543-.648.543-.972.217-2.48-.327-1.512-2.721-9.07-3.81-10.797-1.088-1.729-.979-3.025.436-1.297 1.415 1.729 2.612 3.24 2.72 4.64.11 1.405.436 2.27.872 2.81.435.54.761.323.979-.865.218-1.188 1.088-.756-.435-3.02-1.524-2.268-4.354-6.049-5.442-12.85-1.088-6.8-1.524-11.337-2.612-13.169-1.084-1.836-1.41-2.268-1.52-3.996-.108-1.729 0-3.457-.761-4.749-.762-1.296-1.306-1.512-1.415.432-.109 1.94.109 6.26.653 7.017.544.756.218 2.696.109 3.776-.11 1.08-1.821 2.148 1.741 4.32 1.415.865 1.193 2.053.98 2.81-.218.751-.436.643-1.198-.54-.761-1.19-1.523-2.161-2.285-2.81-.762-.647-.87-1.08-.762-2.592.109-1.512.435-2.592 0-3.128-.435-.54-.653-.108-.87.752-.218.864-.436 3.24-.871 3.889-.436.648-.653.216-.98-1.189-.326-1.404.11-3.56.87-6.044.763-2.484 1.198-5.077.545-8.313-.653-3.24-.326-4.213-2.83-6.909-2.499-2.7-5.328-5.292-6.525-8.637-1.198-3.348-1.415-6.264-2.721-7.777-1.302-1.508-3.152-3.452-4.35-3.992v-4.964c0-1.189-.543-1.945-1.958-1.729-1.415.216-2.286 1.404-3.152 3.02-.87 1.62-1.524.865-2.721 3.673s-2.939 4.208-2.939 7.233z" style="fill:#cfa763;stroke-width:4.17009211"/><path d="M813.735 318.224c.87.54 1.704.902 3.01.253 1.306-.648 2.867-2.517 4.608-.68 1.738 1.831 2.717 4.856 2.717 7.232 0 2.372 0 6.8 2.721 9.285 2.72 2.48 4.131 5.072 4.24 8.313.11 3.236 1.306 8.205 1.633 9.5.326 1.293 1.088 2.805 1.959 3.67.87.863 1.523 3.348 1.632 5.936.11 2.592-.326 4.428 0 5.725.327 1.296 0 2.376-.98 1.728-.979-.648-1.196-.972-1.74-2.053-.545-1.08-1.198-.864-.654.757.545 1.62 2.177 3.128 3.592 3.128s1.85.216 2.72 1.08c.867.864.976 1.296 2.5 1.296 1.523 0 1.741 0 3.156.432s1.415.216 2.176 0c.762-.216 1.52.432 2.064 1.836.544 1.405 1.85 5.289 1.85 6.369s0 2.16.762 3.24.544 2.16-.326 1.513c-.871-.648-.871-.432-1.524-.324-.653.108-1.088-.216-1.955-.757-.87-.54-.326-.432-1.197-1.728-.87-1.296-1.415-1.728-1.415-.756s-.109 2.16-.762 1.62-.98-.54-1.523 0c-.545.54-.762.973-1.415-.108-.653-1.08-1.415-1.08-2.068-1.296-.653-.216-.653-.216-.975-1.188-.327-.972-1.306-1.188-2.177-1.188-.87 0-1.306-.432-1.415-1.08-.109-.644-.653-1.076-1.088-1.4-.435-.324-.218-1.08-.327-1.836-.108-.757-.761-.433-1.197-.649-.435-.216-.762-.108-.762-1.188 0-1.08-.435-1.404-.761-2.16-.323-.756 0-1.512.217-2.372.218-.864.11-1.404-.54-2.16-.653-.756-.109-1.513-1.85-3.025s-2.612-.216-3.156-3.776c-.544-3.565-1.633-10.905-2.612-12.093-.98-1.189-1.628-2.053-2.608-2.377-.98-.324-1.632-.108-1.741-2.16-.109-2.048-.762-4.64-2.068-5.937-1.306-1.296-1.85-1.728-2.503-2.268-.653-.54-.87-1.512 0-3.344.87-1.836.544-4.32.435-5.509-.109-1.184-.435-2.696-.217-3.992.217-1.296.108-2.917-.218-3.78-.327-.865-.762-1.08-.218-1.729z" style="fill:#cfa763;stroke-width:4.17009211"/><path style="fill:#d7c99c;stroke-width:4.17009211" d="M846.808 377.283c-.653 1.296-1.415.864-2.068.216-.653-.649-1.415-.649-1.088-1.837.326-1.188.217-1.404-.653-2.052-.1-.075-.201-.141-.302-.208-.272-.008-.59-.008-1.004-.008-1.524 0-1.633-.432-2.5-1.296a7.294 7.294 0 0 0-.535-.482c-.017.208-.008.482-.008.806 0 1.188 0 .972-1.197 1.296-1.197.325-.98-1.188-1.197-2.16a3.549 3.549 0 0 0-.189-.581c-1.31-.25-2.691-1.62-3.185-3.087-.544-1.62.109-1.836.653-.756s.762 1.404 1.741 2.052c.98.648 1.306-.432.98-1.728-.105-.416-.13-.898-.118-1.433-.234-.42-.552-.76-.97-.943-1.742-.757-1.198-.973-1.089-2.377.109-1.4-.218-1.4-1.306-.648-1.088.756-1.197-.108-1.197-2.264 0-2.16-1.415-2.16-1.737-.648-.327 1.512-.871.54-1.524-1.62s-1.524-2.7-1.632-.648c-.093 1.736-.578 2.152-1.717 1.188.201 1.254.377 2.426.52 3.348.544 3.56 1.414 2.264 3.156 3.777 1.74 1.512 1.197 2.268 1.85 3.024.648.756.757 1.296.54 2.16-.218.86-.54 1.616-.218 2.372.326.756.762 1.08.762 2.16s.326.973.762 1.189c.272.133.623.058.879.166.28-.366.535-.814.862-1.138 1.306-1.297 3.265.108 3.918 1.728.653 1.62 1.41 2.052 2.39.756.98-1.296.653-1.08 1.741.108 1.089 1.188 1.524.972 1.524.972s1.088-.432 1.85.216 1.197.54 2.608-1.512c1.415-2.052-.649-1.404-1.302-.108z"/><g style="fill:#7fb8c1;stroke-width:4.17009211"><path d="M847.787 392.396c2.608-.216 9.682-2.268 10.44-2.916 1.741 1.188 4.789 2.808 6.095 2.808-2.504.54-4.136.216-4.79-.216.327.756 1.198 1.944 1.742 2.052-2.394-.108-5.11-.648-5.981-1.512-2.068.864-5.55 1.08-7.506-.216zm4.676 3.241c.925.27 5.546 1.026 6.145 1.026-1.524 1.292-.218 2.534 2.34 2.318-1.252.162-2.616.631-1.687.81 2.23.432 8.267-1.188 9.464-1.836-2.068 2.646-12.126 5.076-16.262-2.318zm4.136 6.584c1.247-.648 4.349-.432 5.818.27-1.633.594-4.839.594-5.818-.27z"/><path d="M861.274 402.113c2.231-.378 8.54 1.134 10.77-.216-.761 1.998-4.734 2.269-6.094 1.836-1.356-.432-2.662-.972-3.587-.918.49-.27-.327-.324-1.089-.702zm2.286 3.079c1.687.266 7.723-.486 9.573-1.189 1.955.649 5.818 1.67 6.689 1.563-1.85 1.134-5.387.486-6.526 0-3.265 1.08-5.931 1.404-9.736-.374z"/><path d="M866.444 406.201c2.415.54 4.474.154 6.852-.635.74.315 2.486.702 4.127.623 1.093.619 2.562 1.483 3.977 1.59-1.47.595-6.857 0-7.94-.593-2.722.054-7.401.648-8.54 1.566-.054-.756.44-1.807 1.524-2.55zm-2.884-12.185c1.883.624 8.702.324 12.18-1.296 1.374-.64 2.223.432.654.972-5.656 1.945-10.118 2.7-13.378.972-1.29-.68-1.415-1.296.544-.648zm33.395-9.176c-8.376 3.884-13.927 5.072-25.564 1.512-1.084-.333-1.85 0-.653.756 1.198.752 7.615 2.48 9.138 2.588 1.524.108.98.81.055 1.08-.925.27-1.198.918.054.432 1.252-.486 8.242-.669 11.097.81 1.247.648 1.574.54 1.465.054-.109-.486.544-.81 1.47-.918.924-.108 1.468-.432.76-.702-.707-.27-.815-.432-.271-.702.544-.27.598-.54-.218-.702-.816-.162-1.36-.378-.598-.756.761-.374 1.904-.648 2.775-.752.217-.594-.163-2.16.49-2.7z"/><path d="M883.028 385.812c4.789.336 13.6-1.837 18.28-6.37 1.628.969 3.914 2.049 5.11 2.265 1.198.216 2.286 1.296.436 1.296s-4.462-.756-5.655-1.296c-6.203 3.78-13.462 5.023-18.062 4.645-1.302-.108-1.628-.649-.109-.54zm-7.56-13.498c-.644.112-3.424.756-4.185.702-.762-.054-1.524.162-1.47.702.055.54.272.864-.87.756-1.143-.108-2.123.324-2.395.648-.272.324-.49.648.653.756 1.143.108 1.742.216 3.048-.378s2.557-1.512 3.972-1.566c1.41-.054 2.826-1.89 1.247-1.62z"/><path d="M871.555 375.662c1.188.765 7.07 2.755 9.192 2.593 2.122-.162 1.724.843.109 1.188-3.32.698-7.372-.735-10.118-2.917-1.36-1.08-.108-1.458.817-.864z"/><path d="M899.403 378.525c-4.5 1.425-9.083.918-10.933.432-1.85-.486-3.537-.594-2.286.594 1.252 1.184 5.279 1.994 7.56 1.4-8.104 1.836-10.226 1.674-12.235 1.35-2.014-.324-5.794-.253-7.397-.108-1.197.108-2.83-.054-3.537-.486-.707-.432-.925-1.242 1.197-1.026 2.118.216 2.395-.216.545-.486s-4.408.486-1.905 2.052 7.995-.108 11.478.864c3.478.972 10.875 1.674 17.894-3.942.36-.287.98-1.076-.38-.644zm-10.498-4.483c-.925.054-2.557-.54-3.428-.918-.87-.378-2.118-.432-1.193.81.92 1.242 4.948 1.944 6.363 1.35 1.414-.594.816-1.242 2.226-.378 1.415.864 2.884 1.458 3.918 1.458 1.034 0 1.415 0 .272-.648-1.142-.648-1.686-.81-1.795-1.35-.11-.54-.272-.864.762-.54 1.033.324 2.23.918 3.047.486.816-.432 2.336-1.404 3.696-1.404l.326-.81c-1.959-.162-3.206.432-3.75.648-.544.216-1.524.324-2.558.162-1.034-.162-2.394-.27-2.72-.54-.327-.27-.327-.486.544-.648.87-.162 1.142-.756-.055-.54-1.197.216-4.403.108-6.09-.432-1.687-.536-2.394-.59-3.102-.324-.707.27-.598 1.026.435 1.08 1.034.054 3.374.27 4.19 1.026.817.756.708.81-.217.432-.925-.378-2.612-.162-.87 1.08zm39.377-2.916c-3.261 2.376-7.18 2.916-11.855 3.24-1.36.096-.942.478.218.594 4.893.486 10.553-1.296 12.399-3.24.535-.561.477-1.492-.762-.594zm-22.244 5.509c1.415.054 6.308 1.296 7.886 1.836 1.197-.108 1.524-.378 1.306-.81-.218-.432-.38-.918 1.796-.81 2.172.108 7.179.054 8.104.054.762-.325 2.444-1.62 3.206-1.675-1.955.108-10.113.54-11.147.432-1.034-.108-1.578 0-2.23.378-.654.378-1.035.54-1.851.216-.816-.324-2.286-.756-3.098-.27-.816.486-2.503.054-3.972.648z"/><path d="M925.13 376.905c.762-.325 2.444-1.62 3.206-1.675 1.415-.108 3.047.486 3.81.594.761.108 1.577-.054 1.033-.648s-.054-1.62 2.177-1.35c2.227.27 3.37.648 5.546.432 2.177-.216 3.156 1.404 7.288-.216-.327 1.62.435 1.728 1.197 1.404.762-.324 1.632-.216 2.938.756 1.306.973 9.247 1.08 11.097.757 1.846-.324 2.826.648 1.41 1.08-1.41.432-1.74 1.08-1.41 1.512.322.428.649.968-1.088.752-1.741-.216-2.068.324-2.939.972-.87.648-1.088.864-3.482.432-2.39-.432-2.826-.108-4.132.108-1.306.216-1.632.216-2.938-.216-1.306-.432-4.132-.864-5.873-.324-1.741.54-3.047 1.08-4.571.648-1.524-.432-1.633-.216-.653-1.188s1.197-.864 3.047-1.08c1.85-.212 3.265-.752 1.96-1.508-1.307-.756-1.742-.648-3.483.216-1.742.864-2.612 1.4-4.567.324-1.96-1.08-2.939-.864-4.245-.54-1.306.324-3.478-.432-5.328-1.242zm6.526 3.235c-2.491.354-3.16-1.237-5.764-.913-.871.108-2.34 1.184-.327 1.022 2.01-.162 4.186.918 6.145.756 1.959-.162 1.088-1.026-.054-.864zm-2.885 1.891c1.31-.474 4.027.432 5.17.216 1.143-.216 2.231.486 1.034.864-1.197.378-4.081-.702-5.387-.324-1.306.378-2.608-.108-.817-.756zm-25.998 6.963c1.796.058 8.267-.216 10.825-5.613.196-.415.38-.594 1.197-.054.816.54 3.809 2.322 9.41 2.809 1.57.137 3.265.918.109.702-3.157-.216-8.159-1.08-9.846-2.107-2.83 4.425-7.911 4.948-11.695 4.857-2.281-.054-1.737-.648 0-.594z"/><path d="M916.754 381.653c-.87 1.188-3.864 3.24-5.224 3.348-1.356.108-5.438-.27-6.472-.648-1.033-.378-2.285-.27-.816.756 1.47 1.027 5.115 1.729 6.58 1.405 1.47-.324 3.157-.81 4.3-.108 1.142.702 3.264 2.048 4.512 1.778 1.251-.266 3.809-.266 4.625.108.816.378 2.231 1.512.109.864s-3.864-.108-4.843-.54c1.088 1.512 3.558 3.942 5.66 3.942.489 0 .815.864-.219 1.35 1.034.486 3.425.864 4.676-.27-.326.432-.163.702.381.972s1.197.649.218.757c-.98.108-3.207.378-3.86.108 2.118 1.346 7.614 3.506 13.215 2.426 1.068-.204 1.633-.644-.109-.594-3.591.108-3.805.054-4.458-.32-.653-.382-.544-.702.49-1.026 1.03-.324 3.642-.702 4.73-.702 1.088 0 2.177-.433-.054-.433s-4.948 0-6.036-.378c-1.089-.378-1.905-.864-.762-1.62 1.143-.756 2.34-.54 2.884-1.242-3.592-.054-8-1.944-5.55-3.668.569-.403.38-.432-.545-.54-.925-.108-3.641-.864-4.784-1.512-1.143-.649-.381-1.189.544-1.35-2.122.377-6.367-.757-9.192-2.863zm31.926-.108c-1.96 1.458-5.656 2.052-7.234 2.052-1.578 0-1.795.54-.544.702 1.252.162 2.612.324 3.156.162s.87-.216 1.683.162c.816.378 2.558.594 4.081.108 1.524-.486 4.023-.702 5.057-.648 1.034.054 2.176.108.109-.486-2.064-.594-5.438-.162-6.254.054-.816.216-3.047.054-1.85-.324s2.23-.972 2.83-1.458c-.436-.108-.708-.216-1.035-.324zm-1.034 4.212c-1.687 1.243-4.132 2.427-6.635 2.535 2.285.81 4.19 3.132 5.655 3.024-.707.432-1.574 1.08-2.499 1.188 1.415.378 3.805-.054 5.764-1.134 3.265.918 7.505.324 8.92-.864-2.122 0-4.675-.756-5.818-1.728 1.034 0 2.009-.648 2.499-1.238-2.445.428-6.635-.756-7.886-1.783z"/><path d="M944.167 392.504c.925-.108 1.792-.756 2.5-1.188-1.792.594-9.628-.648-11.964-2.7-2.34-2.048-2.34-.486-.708.972 1.633 1.458 4.513 3.672 10.172 2.916zm5.764 4.965c-.98.54-5.655.864-7.179.54-1.523-.324-2.176-.162-1.795.432.38.594.544 1.134-.708.972-1.251-.162-3.483.108-4.403.432-.926.324-2.068 1.134-.11.81 1.956-.324 3.751-.702 5.22-.324 1.47.378 6.69.486 7.724.054 1.033-.432.326-.432-.164-.432s-.707-.324 0-.648c.708-.324 1.252-1.242 1.415-1.836zm-45.253-6.261c-1.96.864-8.485 2.592-10.227 2.7-2.176.972-3.913 1.513-5.002 1.513.762.648 3.696 1.292 4.894.972-.653.644-2.173 1.4-2.717 1.724 1.737-.216 3.805.216 4.676.324-2.286 1.296-5.438 1.728-7.07 1.512.544.756 1.306 1.512 2.285 1.512-2.068.54-4.57.54-5.877.108.544 1.08 1.089 1.728 1.85 1.836-1.741.216-3.918.54-5.764-.54 1.411 1.837 4.567 2.48 9.247 1.945 4.676-.54 8.594-2.593 9.682-3.457-1.96.216-4.571.324-5.877.108 2.612-.648 8.267-3.024 9.247-3.996-1.089 0-2.173-.324-2.939-.864 1.524.216 6.857-.428 8.489-1.076-1.959-.432-3.156-1.62-3.7-2.377 6.852 2.16 14.479 1.454 18.166.54.871-.216.976-1.312-.761-1.188-3.048.216-8.92-.648-10.444-1.404 1.415 1.08 3.156 1.728 4.353 1.944-2.83.756-6.743 1.296-12.511-1.836z"/><path d="M891.626 398.117c.544-.324 2.064-1.08 2.717-1.724-1.198.32-4.132-.324-4.894-.972 1.089 0 2.826-.54 5.002-1.513-3.913-.108-6.634-.108-8.049-.864-1.415-.756-4.023-.54-5.002-.324-.98.216-.653 1.836 3.478 1.404-1.741 1.189-6.417 1.62-8.158 1.189.435 1.4.762 2.804.327 3.56 2.285 1.296 8.267 2.916 11.205 2.7-2.612-.972-4.027-2.052-1.85-2.268 2.177-.216 3.374-.648 5.224-1.188zm-6.748 7.021c5.208-.432 12.181-.524 17.732-5.185 1.415-1.188 2.365-.79.98.432-2.935 2.592-10.227 6.153-17.188 6.26-2.834.046-4.131-1.296-1.524-1.507zm39-8.533c-1.306.486-4.952 1.08-6.036.918-1.088-.162-2.666-.216-3.537.324-.87.54-.925.864.272.972 1.197.108 2.721.216 3.483.162-.98.54-1.633 1.296-1.85 1.62 1.741-.432 4.947.324 5.872.864-.707.216-1.523-.054-2.122-.378 2.939 3.079 11.641 3.079 13.056 2.538-.653.486-1.252.973-1.905 1.135 2.45.432 5.275.378 8.05-1.243-.925.162-3.696-.108-4.404-.162a5.231 5.231 0 0 1 2.118-1.242c-1.084-.216-4.512-.108-5.328.324.326-.648.925-1.458 1.578-1.728-4.3 0-9.519-.054-11.423-1.08 3.047.324 6.42-1.458 7.831-1.458-2.39-.054-5.002-.594-5.655-1.566zm-10.933 2.375c-2.123.433-5.329 1.297-6.2 1.783-.87.486-1.795.756.11.756 1.904 0 7.07.216 8.212.378-2.884-.432-6.798-.54-7.56-.54-.762 0-1.632-.054-.217-.486 1.414-.432 3.265-1.404 5.655-1.89zm-4.295 5.023c.758 0 4.077 0 5.383-1.134 1.36 1.026 3.972 2.48 5.655 2.48 1.687 0 1.524.433.054.595-1.465.162-4.349-.698-5.818-1.778-1.959.702-3.587.108-5.274-.163zm-25.182 14.52c3.37 1.296 7.831 2.268 11.092 1.188 1.85 1.62 5.66 1.728 7.723 1.296 2.068-.432 3.918-.648 6.204.108 2.281.756 6.96.81 8.267 1.886-1.197.059-3.755 0-4.353.167-.6.157-.273.535.816 1.13-3.696-.216-10.063 1.35-12.018 3.024.703-1.674 2.88-3.943 6.308-3.943-1.959-.697-8.212-.751-10.226.487-.598-.649-1.306-1.725-1.36-2.157-3.316 1.886-9.845-.81-12.453-3.186zm-8.653-6.045c4.015-.569 6.748-1.836 7.945-3.024.708.648 3.642 1.296 6.853.324-.653.486-.708 1.404-.436 1.89-2.122.054-6.149 1.08-7.505 1.783-1.36.697-5.333 1.184-6.635.481-1.306-.698-1.36-1.292-.222-1.454z"/><path d="M889.177 411.668c-2.122.054-6.149 1.08-7.505 1.783.272.54.435 1.4.49 1.994 3.914-1.405 12.888-2.265 16.316-1.724-1.632.108-4.734 1.778-6.471 1.994 4.24-.324 8.376.54 9.46.81 1.088.27 1.306 1.08.49 1.836-.816.756-1.193.864.544.918 1.741.054 5.333-.162 6.965-1.728-.653-.702-2.34-.432-2.83-.918 1.143-.378 2.45-1.188 2.939-1.782-2.938-.054-4.027-.108-5.006-.325-.98-.211-1.687-.486-.49-1.13 1.197-.648 1.741-1.188 2.122-1.62-2.122.594-5.437 1.08-8.212-1.08 1.033.27 3.478.108 4.349-.27-.925-.486-1.683-.864-2.445-.864 2.227-1.08 6.635-2.052 12.072.108 2.721-.216 5.66-.108 7.723.432.87-.864 2.72-2.916 3.7-3.456-6.417.54-17.949-.648-17.73-3.993-2.069 2.696-6.853 4.209-8.921 3.777-.218.972.653 2.16 1.415 2.808-2.177.432-5.877.756-7.614.432.98.972 2.825 1.836 3.913 1.728-2.28 0-3.478.432-5.274.27z"/><path d="M902.5 419.28c1.742.053 5.334-.163 6.966-1.73-.653-.701-2.34-.431-2.83-.917 1.143-.378 2.45-1.188 2.939-1.782 4.567-.374 8.648-.158 10.603-.752 1.959-.594 6.965-.27 7.945-.54-4.354.697-5.224 1.076-5.442 1.778-.218.702 1.415 1.296 2.449 1.296-1.96-.108-4.408 1.944-4.626 2.754-2.607-1.512-3.859.27-4.131.864-1.088-.432-4.68-.324-6.53 1.242-2.39-.702-3.968-1.08-6.363-.702 1.47-.324 1.198-1.296-.98-1.512zm20.888-12.634c1.47-.054 4.676.108 5.819-.054-.762.378-1.737 1.08-1.955 1.404 3.696-.432 8.753-.702 10.222-.486-1.792-.27-3.642.864-4.567 1.458-.925.594-.38.972.87 1.134 1.252.162 2.94 1.134.654.81-2.286-.324-6.798-.324-7.886-.162-1.089.162-1.687-.378-.11-.594 1.579-.216 2.663-.756 3.425-1.188-1.306.324-3.805.324-4.567.108-.762-.216-1.252-.648-.38-.864.87-.216.271-.54-.654-.432-.925.108-3.265 1.08-4.57 2.322 1.414-1.458 2.666-2.754 3.7-3.456zm-16.588 2.43c1.796 1.998 3.914 3.132 7.287 3.24.708.021 2.026.964.327 1.027-4.571.162-6.852-.919-8.866-3.835-.414-.598.352-1.433 1.252-.432zm57.978-24.561c-1.356.918-3.152 2.539-1.959 4.803.143-.075.277-.162.415-.241a131.757 131.757 0 0 0 13.776-20.087c.046-.24.087-.469.117-.668-1.524 1.296-3.918 2.588-4.898 2.912.653 1.728-2.39 3.996-4.022 4.644.653 1.08.435 2.7-.98 3.025.327.968-.762.968-2.068 1.508s-1.959.972-2.39 1.62c.703-.378 1.683-.702 2.227-.54.544.162.653.972-.326 1.188-.98.216-1.629.756-1.96 1.188 1.415-.54 3.429-.27 2.068.648zm-95.89-24.615c1.633 1.135 4.517 3.02 8.267 2.75 1.85 1.46 4.735 2.701 6.04 2.971-2.503 1.026-5.223 1.89-5.93 2.7-1.144-1.08-2.609-.918-2.99-1.458-1.088.865-.925 1.405-.217 1.837.707.432 6.2 1.35 7.56.972 1.36-.378 1.724.74.598 1.13-2.938 1.026-8.648.054-10.607-3.074-1.959-3.133-3.646-4.321-8.974-1.459-.599-1.512-.599-1.89-1.633-1.89s-2.938-1.35-1.47-1.296c1.47.054 5.823-.594 9.356-3.182z"/><path d="M870.194 366.863c-.908.225-3.482 1.62-4.403 1.729-.925.108-2.558 1.404-.87 1.458 1.682.054 3.858-1.782 5.056-1.944 1.197-.162 1.306-1.513.217-1.243zm7.125 5.073c.163.54.163 1.134 0 1.512-.164.378-.164.864.544.324.707-.54 1.143-1.188 1.85-.81.707.378 2.503.324 3.315.216.82-.108 1.089-.27-.104-.756-1.198-.486-2.395-.648-3.048-.594-.653.054-1.469-.108-2.013-.324-.544-.216-.708-.108-.544.432zm25.781.162-.327.81c2.013-.054 6.91.432 8.485 1.404 1.523-1.188 1.251-1.566 2.34-1.35 1.088.216 2.448.594 3.047.27.599-.324 1.034-.27 1.687-.162.649.108 2.064-.162 2.88-.648.816-.486 2.503-1.134 3.482-1.134.98 0 2.173-.216.381-.486-1.795-.27-4.516.27-5.441.594-.921.324-3.696.54-5.329.54-1.632 0-3.86.81-5.71.324-1.85-.486-4.407-.162-5.496-.162zm30.95-.756c2.403 1.126 7.233 2.106 10.988 1.944.653-.029 1.967.665.322.81-4.24.378-8.05-.212-11.582-2.16-.98-.54-.653-1.026.272-.594zm2.449-.054c3.696-.108 6.47-.054 7.614 1.026 2.118-.648 5.927-1.026 6.798-.864.87.162 1.85-.216-.164-.702-2.013-.482-6.689-.644-8.158-.374-1.47.266-6.04.428-7.56.266.653.108 1.084.216 1.47.648zm14.357 1.458c1.741-.918 6.744-.054 8.267-.702-1.088 1.296 3.483 1.404 7.451.378-1.524.972-4.784 1.134-6.2 1.728-1.414.594-2.176.162-3.264-.324-1.088-.486-3.86-1.458-6.254-1.08z"/><path d="M966.574 372.422c-3.968 1.026-8.54.918-7.45-.378-1.524.648-6.527-.216-8.268.702 1.796-1.08 3.156-.216 4.458-2.43.816.166 2.72.274 3.374-.59 1.143.27 3.156.756 3.755 1.346.598.594 1.52-.162.757-1.076 1.796-.648.657.768 4.843-.27.871-.216 2.993-.594 3.7-.648-1.414 1.134-3.101 2.372-5.169 3.344z"/></g><path d="M999.475 257.01c-.192 67.849-10.98 140.945-99.473 175.762-88.498-34.817-99.285-107.913-99.477-175.763z" style="fill:none;stroke:#000;stroke-width:2"/><g style="stroke-width:4.17009211"><path d="M839.951 287.528c-1.473 1.882-3.043 3.456-5.073 4.894-2.03 1.441-4.642 2.592-3.194 5.039 1.453 2.447 2.612 2.738 2.901 4.607.293 1.87.728 3.456 2.177 3.888 1.452.428 2.03.142 2.03 3.166s0 4.175 1.306 5.326c1.306 1.15 1.16 2.302 1.741 5.04.578 2.733.578 8.636 2.32 12.666 1.74 4.03 5.659 11.661 5.223 13.244-.435 1.583-1.017 2.734.724 4.603 1.742 1.874 2.901 4.607 3.048 6.19.142 1.587.435 2.16 2.172 1.587 1.741-.577 2.612-1.155 3.194-1.874.578-.718 1.737-.573 3.336.287 1.595.864 4.06 1.728 5.509.864 1.452-.864 2.176-2.156 3.482-2.156 2.03-1.441 2.755-4.466 3.19-5.326.435-.864.147-.864-.724-1.728-.87-.864-.435-2.306-.582-3.743-.142-1.442-.724-3.598-2.465-6.768-1.738-3.165-2.755-7.054-3.914-8.059-1.16-1.01-1.742-3.456-1.888-4.607-.142-1.151-1.448-2.16-2.32-3.025-.87-.86-1.74-2.156-2.753-7.195-1.018-5.04-1.742-8.637-1.742-9.501 0-.864-.146-1.01-1.017-1.296-.87-.287-1.306-1.728-1.013-2.447.289-.719-.293-1.438-.582-2.302-.288-.864 0-2.447.582-3.31.578-.865.436-3.312-.146-5.327-.582-2.014-1.16-3.743-3.483-4.033-2.319-.287-2.754-.86-3.625-2.734-.87-1.87-1.741-5.18-2.03-5.903-.289-.72-.724-.865-2.466.577-1.74 1.437-2.319 1.915-2.319 4.607 0 1.728.29 2.302.867 3.311.582 1.006.728 1.296 1.164 4.03.435 2.734 2.9 7.054-.293 9.501-3.19 2.447-2.755 3.024-2.608 4.749.142 1.728-.87 2.878-1.453.432-.577-2.447 0-3.885 1.742-5.036 1.74-1.154 3.336-2.592 2.176-4.175-1.163-1.582-1.595-5.326-1.741-7.054-.147-1.728-.435-2.305-1.453-1.01z" style="fill:#cfa763"/><path d="M814.112 324.231c-.08 1.172.184 2.46.276 3.494.109 1.188.436 3.673-.435 5.509-.87 1.832-.653 2.804 0 3.344.038.03.071.058.105.087 1.774-.59 2.005-2.555 1.527-3.506-.506-1.005-.36-2.23.218-3.236.582-1.01.582-1.583.075-2.306-.51-.719-.51-.719.072-2.733.51-1.774-.779-1.762-1.838-.653zm18.552 27.897c-.327-1.296-1.524-6.265-1.633-9.501-.109-3.24-1.52-5.833-4.24-8.313-2.122-1.94-2.587-5.056-2.687-7.461-1.595-.968-2.27-.528-2.135 1.27.142 1.941 2.101 2.88 1.812 5.684-.289 2.808-.289 2.09 1.089 3.457 1.377 1.366 1.883 2.663 1.16 3.24-.725.573-.8 1.583.217 1.94 1.013.361 1.088 1.442.942 2.447-.147 1.01.8 1.226 1.377 1.944.582.719.653 2.447.075 3.457-.582 1.005-.653 2.588.36 1.728 1.017-.864 1.453-.075 2.248 1.292.69 1.18 1.268.81 2.018.453a9.066 9.066 0 0 1-.603-1.637zm-8.485-59.956c-1.076.079-1.813 1.014-1.197 4.283.385 2.023-1.16 1.583-1.737.573-.582-1.005-1.018-3.165-2.177-5.039-1.164-1.87-.582 1.296-.724 3.025-.147 1.728 1.013 1.728 2.03 3.165 1.013 1.442.142 2.02-1.017 2.02-1.16 0-.578 2.3-.289 3.884.289 1.582-.289 1.873-1.164.577-.866-1.296-.288-3.311-.142-5.758.142-2.447.289-1.874-1.306-2.447-1.595-.577-1.306-.864-.724-2.305.578-1.438 1.16-2.16.435-2.88-.728-.718-.582-1.15.578-1.296 1.16-.14.728-1.005 1.741-1.296 1.017-.286 1.453.146 1.595-1.724.121-1.562.649-2.522 1.83-2.048.71 2.405 1.636 6.149 2.268 7.266zm26.509 25.873c.431-3.165.142-6.33 1.448-7.486 1.306-1.15 2.901-3.452 2.755 1.442-.143 4.894-.29 4.607-1.302 5.758-1.017 1.15-1.888 1.437-.87 3.31 1.012 1.87 1.159 2.016 1.012 4.895-.142 2.879-.142 4.03 1.017 5.471 1.16 1.437 1.449 1.583 1.742 3.166.289 1.582 1.302 3.743 2.608 4.893 1.306 1.151 2.758 4.462 2.9 6.768.147 2.301 2.177 2.879 4.06 4.462 1.889 1.583-.43 2.733-1.883 2.015-1.448-.72-.87 0-1.741 1.005-.871 1.01-1.16 1.155-1.884-.573-.724-1.729-3.194-2.88-4.353-3.311-1.16-.432-2.173-2.306-3.19-4.176-.87-1.607-2.595-2.783-4.169-2.903.435 1.213.67 2.164.544 2.617-.435 1.583-1.017 2.733.724 4.603 1.742 1.873 2.901 4.607 3.048 6.19.142 1.587.435 2.16 2.172 1.587 1.741-.578 2.612-1.155 3.194-1.874.578-.718 1.737-.573 3.336.287 1.595.864 4.06 1.728 5.509.864 1.452-.864 2.176-2.156 3.482-2.156 2.03-1.442 2.755-4.466 3.19-5.326.435-.864.146-.864-.724-1.728s-.436-2.306-.582-3.743c-.142-1.442-.724-3.598-2.466-6.768-1.737-3.165-2.754-7.054-3.913-8.06-1.16-1.009-1.742-3.456-1.888-4.606-.142-1.151-1.448-2.16-2.32-3.025-.87-.86-1.74-2.156-2.753-7.195-.796-3.939-1.411-6.992-1.641-8.554-1.043 1.65-1.754 2.052-2.13.922-.436-1.292-1.018-2.015-1.596-1.15-.582.864-.728-.72-.728-1.438 0-.723-.142-.864-.87-.864-.725 0-.143-1.15-.436-3.311-.289-2.16-.724-2.447-1.013.145-.289 2.588-1.741 4.171-1.16 4.749.578.577.29 1.728-.293 3.456-.577 1.724-.288 2.734.147 3.884.435 1.151-.289 3.312-.582 5.185-.289 1.87 1.164 3.74 1.6.573zm-11.896-8.923c0 3.024 0 4.175 1.306 5.326 1.306 1.15 1.16 2.301 1.741 5.039.578 2.734.578 8.637 2.32 12.667.518 1.2 1.234 2.725 1.967 4.312.962-.752 1.8-2.044 2.097-2.73.43-1.009-.871-3.024-1.888-4.748-1.013-1.728.146-2.306 1.16-4.466 1.016-2.156-.143-2.301-1.738-2.879-1.599-.573-1.599-2.015-2.47-4.316-.87-2.302-.724-3.311-.142-4.607.578-1.297.143-2.302-1.017-2.593-1.16-.286-.87-1.15-.435-2.588.435-1.442.724-1.728-1.013-1.296-1.319.324-1.637.569-2.03 1.043.096.415.142.993.142 1.836z" style="fill:#d7c99c"/></g><path d="m866.195 307.95-3.477 38.035m13.89-14.736c-1.42 6.434-3.291 13.743-5.187 19.94m50.694-38.255c2.637 2.45 6.178 3.023 10.097 4.924m7.365 11.896-1.928 14.655m.044-14.007-3.457 15.046m-59.903-13.744c-1.633 6.254-3.819 11.957-5.916 17.747" style="fill:none;stroke:#000;stroke-width:.49999899"/><path d="M1376.539 363.375a1.464 1.464 0 0 1-.221.048c-.078.012-.16.02-.243.026l-.253.017a5.303 5.303 0 0 0-.25.02c-.08.01-.159.02-.232.037a1.003 1.003 0 0 0-.203.066.554.554 0 0 0-.16.11.447.447 0 0 0-.104.165 2.898 2.898 0 0 1-.211.257l-.117.126a16.174 16.174 0 0 0-.24.258l-.114.136a2.495 2.495 0 0 0-.106.145c-.034.05-.065.101-.094.155a4.042 4.042 0 0 1-2.056.881c-.541.15-1.814.188-2.35 0-1.035.014-2.121-.062-2.742-.49-.728-.375-1.676-.129-2.252.196-.46.259-.55.733-1.078.881-.316.418-1.716.369-2.252.196-1.22.078-1.967-.317-2.84-.587-.575-.408-1.498-.707-2.154-.098-.41.438-.97.728-1.665.881-1.194-.048-2.547.156-3.427-.294-.98-.082-1.354-.617-2.252-.88-1.025-.174-1.5.358-2.154.587-.585.487-1.415.539-2.448.49-1.067-.044-2.364.143-3.035-.295-.865-.096-1.42-.593-2.056-.88-.629-.496-1.801.022-2.35.293-.941.146-1.292.881-2.477.783-.965-.118-1.622-.513-2.517-.783-.842-.376-1.598-.964-2.937-.881-.4.528-1.263.748-2.149.783-.795.01-1.581.011-2.16-.196-1.6-.048-2.37-1.732-3.528-2.631l-5.789-5.739c.332-1.026.45-1.205-.083-1.875.22-1.023-.48-1.163-.196-2.189.434-.787-.781-.65-1.077-1.076-.695-.136-.99-.646-1.665-.882-.548-.382-1.078-.636-1.762-.979-.6-.247-1.118-.579-1.665-.88-.412-.372-.959-.609-1.37-.98-.535-.246-.97-.57-1.372-.88-.562-.178-.835-.597-1.372-.882-.388-.363-1.015-.673-1.469-.979-.713-.235-1.363-.7-2.154-.88-.536-.02-.7-1.217.289-1.176.707.022 1.142.47 1.67.783.833.343 1.647.703 2.644.882.577.342 1.093.522 1.762.783.579.448 1.341.526 2.057.979.666.303 1.461.663 1.861.979.567.24.859.65 1.47.88.21.256.642.372.98.686.599.224 1.139.481 1.566.783.558.366.866.407 1.273.784.504.156 3.69 1.758 3.529 1.569 3.136.603 4.522.793 7.675 1.242l22.869.36 8.291-3.464 2.519-3.988 12.256-2.24c-.232-.248 21.512-.765 21.97 1.06.194.77.783 2.317.077 2.682-.462.239-20.534-2.555-20.844-.752-.135.782.03 5.652.142 6.438l.336 2.357.336 2.357.336 2.357.337 2.358z" style="fill:#666" transform="translate(-857.557 -110.013) scale(1.31296)"/><g style="fill:none;stroke:#000;stroke-width:.49999899"><path d="M868.195 326.585c-4.852 5.522-9.682 9.928-14.86 14.141m41.538-36.624 15.643-13.532m-22.662 26.907c3.134 2.197 6.638 4.173 11.416 5.384m-13.627-25.836c1.947 3.083 4.232 6.075 11.056 7.857m-15.503-38.646c-2.113 2.808-5.49 5.425-9.911 7.573m15.519 11.422c2.228 2.158 5.362 3.411 8.566 4.594m-8.568 42.516c1.575 7.75 2.935 13.906 4.732 20.323"/><path d="M885.56 352.504c8.128-8.345 15.07-17.312 19.579-27.554m16.585-30.176c2.604 2.79 5.319 4.815 9.564 5.965m1.732-15.954c2.207 3.957 4.925 6.89 7.472 10.169m-31.494-22.538c-.273 3.934-2.66 7.887-4.33 11.297"/><path d="M914.62 274.356c-2.896 3.223-5.693 6.676-9.653 8.657m10.15-22.687c-1.987 1.352-4.754 2.936-6.926 3.734m36.579 26.199c-2.4 2.85-4.801 6.201-8.753 8.66m9.198 15.077c-3.07 2.907-5.825 6.286-9.347 8.515m27.112 8.271c-5.5 4.314-11.132 8.364-17.229 11.486m2.928.563c5.164-3.221 9.72-7.66 14.301-12.049m-15.795-39.93c.992 2.592 3.305 5.428 5.596 7.277"/></g><path d="m1371.984 285.633-.342 59.337 4.32-.256-1.813-59.271z" style="fill:#bca76b;stroke:#472b1f;stroke-width:.28691301" transform="translate(-857.557 -110.013) scale(1.31296)"/><g style="stroke:#000"><path d="M1374.861 362.145c1.03.62 1.622 1.175 2.471 1.999 1.892 1.738 3.158 1.745 5.858-.016 1.007.116 2.026.641 3.118.441.964.03 1.901-.141 2.843-.345 1.153-.277 1.318-1.666 1.726-2.596.528-1.08 1.104-2.195 1.863-3.128.998-.671 2.077-1.364 2.768-2.364.79-.928.655-2.138.49-3.253-.091-1.06-.176-2.047-.167-3.116-.263-1.35.905-2.394.804-3.72-.667-.593-1.769-.752-2.665-1.01a33.916 33.916 0 0 0-4.786-.692c-1.314-.106-2.625-.247-3.934-.344-1.293-.102-2.583-.19-3.88-.194-1.454.04-2.954-.14-4.378.095-1.019.239-2.304.147-3.143.615-.377.987-.618 2.009-.66 3.032a17.529 17.529 0 0 0-.188 2.72c.051 1.683-.173 3.395.294 5.027.31 1.314.42 2.651.668 3.95.036 1.037.163 2.104.899 2.899z" style="fill:#333;stroke-width:.99999899" transform="translate(-857.557 -110.013) scale(1.31296)"/><path d="m954.055 327.525 7.718 14.438m11.567.756c-2.276-2.389-4.063-5.267-5.44-8.556" style="fill:none;stroke-width:.49999899"/></g><path d="m972.816 320.193 2.541 1.787.177.067c-.832-.778-1.642-1.623-2.698-1.852 0 0-.014 0-.02-.002zm-5.362.754-.287.087-3.573 13.97zm17.04.507c-.88.073-1.717.444-2.549.839l1.5-.523 1.952-.29a5.544 5.544 0 0 0-.903-.026zM967.9 334.163l-.7.136c.293 0 .573.015.805.075.354.091.668.23.967.387zm1.398.78c.915.551 1.688 1.26 2.772 1.549zm8.262.713-4.767.954c1.669.148 3.165-.508 4.767-.954z" style="fill:#472b1f"/><path d="m1390.181 327.583-3.12 11.36 3.28-.64 3.44 1.919 5.2-1.04 2.64.4c.815-3.65.576-7.958 2.719-11.039l-2.16.32-3.44 1.2-2.72-1.04-2.159-1.52z" style="fill:#fff" transform="translate(-857.557 -110.013) scale(1.31296)"/><path d="M1395.142 328.943c-.545 1.047-1.075 2.103-1.202 3.36 0 0-1.523-.532-2.318-.64-.846-.114-2.56 0-2.56 0l-.022.073-.739 2.687c.078-.01 2.094-.259 3-.12.676.102 1.92.72 1.92.72l-1.006 4.326.64.358 1.394.421.04-.008.588-.119c.269-1.479.486-3.009 1.143-4.1 0 0 2.11.567 3.28.481.805-.059 2.467-.236 2.876-.281.116-.915.236-1.831.397-2.73-.41.11-2.192.548-3.194.45-.907-.087-2.558-.958-2.558-.958.24-.934.667-1.868 1.119-2.801z" style="fill:#c8102e" transform="translate(-857.557 -110.013) scale(1.31296)"/><path d="M1387.909 327.53c-1.383-3.785-3.1-9.985-3.802-14.902" style="fill:none;stroke:#000;stroke-width:.49999899" transform="translate(-857.557 -110.013) scale(1.31296)"/><g style="stroke:#472b1f"><path d="M1389.155 328.407s3.42-.808 4.841-.5c1.49.322 2.436 2.023 3.945 2.236 1.737.245 3.29-1.376 5.04-1.52.83-.069 2.479.32 2.479.32l-1.12 4.16-.96 3.52v3.119s-2.928-.704-4.4-.56c-1.846.18-3.368 1.26-5.199.96-1.352-.222-2.033-1.337-3.36-1.68-1.095-.283-3.882.445-3.882.445z" style="fill:none;stroke-width:.99999899" transform="translate(-857.557 -110.013) scale(1.31296)"/><g style="fill:#bca76b;stroke-width:.30000001"><path d="m967.167 321.034-1.788.105-5.67 20.06 2.626.106z"/><path d="M965.38 321.139c-.785-.436-1.349-1.719-.945-2.52.459-.91 1.963-1.128 2.94-.84 1.071.316 2.565 1.463 2.206 2.52-.46 1.353-2.954 1.534-4.202.84z"/></g></g><path d="M1404.172 328.716c-2.082 3.017-1.91 7.138-2.701 10.682.996.161 1.808.344 1.808.344v-3.12l1.008-3.519 1.173-4.16s-.613-.13-1.288-.227z" style="fill:#472b1f" transform="translate(-857.557 -110.013) scale(1.31296)"/><path d="M953.746 305.335c2.813 1.919 5.69 7.026 9.695 11.033m-4.402-18.32c-2.082-5.481-3.76-14.432-4.054-21.105M950.75 330.2l4.433 11.57m-.023-70.23c-3.815-.977-7.432-3.68-8.003-5.85m-16.897 9.652c2.475.189 11.128-6.283 12.453-9.653m9.598 62.854 6.102 13.033m-6.581-8.65 4.444-1.673m-3.697 4.107 4.74-1.982m-2.789 6.87 5.164-2.195M949.22 314.59l6.231 6.675m-19.434 9.495-4.302 14.54m3.112-11.298 4.35-.063m-5.411 3.646 5.07.148m-6.232 3.561 5.49 1.038" style="fill:none;stroke:#000;stroke-width:.49999899"/><g style="fill:#bca76b;stroke:#472b1f"><path d="M1374.56 284.142c-.771-.267-2.811-.319-3.622.333-.435.35-.073 1.52.47 1.53 1.098.02 2.492.071 2.929-.25.454-.333.748-1.432.224-1.613z" style="stroke-width:.28956899" transform="translate(-857.557 -110.013) scale(1.31296)"/><path d="M1362.568 293.401c1.417 5.8 7.57 4.833 7.286-.461" style="stroke-width:.39742199" transform="translate(-857.557 -110.013) scale(1.31296)"/><path d="M1368.218 293.13c1.843 6.661 9.842 5.55 9.472-.53" style="stroke-width:.485632" transform="translate(-857.557 -110.013) scale(1.31296)"/><path d="M1374.984 293.003c1.802 4.879 4.34 3.932 7.37-.5" style="stroke-width:.41584501" transform="translate(-857.557 -110.013) scale(1.31296)"/><path d="m1384.114 290.687-22.498 1.288.055 1.524 22.681-1.164z" style="stroke-width:.40257201" transform="translate(-857.557 -110.013) scale(1.31296)"/><path d="M1363.39 313.255c1.362 6.38 7.778 5.432 7.583-.374" style="stroke-width:.42422599" transform="translate(-857.557 -110.013) scale(1.31296)"/><path d="M1369.27 313.06c1.787 7.332 10.125 6.26 9.857-.41" style="stroke-width:.51838601" transform="translate(-857.557 -110.013) scale(1.31296)"/><path d="M1376.306 313.043c1.78 5.378 4.437 4.387 7.67-.414" style="stroke-width:.443892" transform="translate(-857.557 -110.013) scale(1.31296)"/><path d="m1385.842 310.671-23.415 1.004.029 1.67 23.602-.863z" style="stroke-width:.42972401" transform="translate(-857.557 -110.013) scale(1.31296)"/><path d="M1362.789 331.238c1.512 6.512 8.076 5.426 7.772-.518" style="stroke-width:.43492699" transform="translate(-857.557 -110.013) scale(1.31296)"/><path d="M1368.817 330.934c1.615 9.716 10.498 6.232 10.104-.595" style="stroke-width:.53146201" transform="translate(-857.557 -110.013) scale(1.31296)"/><path d="M1376.034 330.79c1.922 5.479 4.63 4.416 7.86-.56" style="stroke-width:.455089" transform="translate(-857.557 -110.013) scale(1.31296)"/><path d="m1385.774 328.19-24 1.447.059 1.711 24.194-1.307z" style="stroke-width:.44056299" transform="translate(-857.557 -110.013) scale(1.31296)"/><path d="m951.31 286.863-11.69.344.035 2.903 11.781-.04zm.08 24.727-11.69.344.035 2.903 11.781-.04z" style="stroke-width:.25590801"/></g><g style="stroke:#000"><path d="m1355.526 331.433 6.567 15.802m-39.828-10.875c-.718 4.983-1.85 11.35-3.12 16.15" style="fill:none;stroke-width:.49999899" transform="translate(-857.557 -110.013) scale(1.31296)"/><path d="M1395.93 345.979c-3.74-.603-7.495-1.22-11.28-1.385-2.982-.131-5.976.043-8.949.31-4.335.39-8.764.59-12.92 1.88-.561.174-1.16.368-1.58.778-1.172 1.144-1.287 3.048-2.276 4.353-.958 1.265-4.616 3.374-5.936 4.255-9.615.24-20.3.106-32.256-1.682l-1.682-1.88-.692-.693 1.88.693 4.254.099 10.39-.396s8.777.01 13.159-.198c2.478-.117 4.96-.265 7.42-.593.532-.071 1.134-.003 1.583-.297.735-.48.974-1.463 1.484-2.177.48-.67.782-1.547 1.485-1.979 1.874-1.404 4.252-1.277 6.292-1.667 2.447-.468 4.7-.562 7.165-.925 2.85-.419 5.73-.617 8.607-.772 1.845-.099 3.699-.235 5.54-.099 2.802.207 5.875-.012 8.312 1.385.447.257 1.253.745.99 1.188-.173.289-.658-.145-.99-.198z" style="stroke-width:.30000001" transform="translate(-857.557 -110.013) scale(1.31296)"/><path d="M917.798 260.326c1.869 1.431 5.317 2.625 8.663 3.134m-12.538 49.555c-3.953 2.845-8.13 4.798-12.454 6.16m23.638 30.865-6.872-18.023m1.361-5.9 7.91 20.552m-8.882-15.236 5.251-1.815" style="fill:none;stroke-width:.49999899"/></g><path d="m1350.034 280.039-1.242 72.927 4.319-.259-.812-72.66z" style="fill:#bca76b;stroke:#472b1f;stroke-width:.28809801" transform="translate(-857.557 -110.013) scale(1.31296)"/><path d="M1355.225 291.311c1.687 3.206 4.385 5.78 8.334 7.573" style="fill:none;stroke:#000;stroke-width:.49999899" transform="translate(-857.557 -110.013) scale(1.31296)"/><g style="fill:#bca76b;stroke:#472b1f"><path d="M1341.106 286.767c1.362 6.38 7.778 5.433 7.584-.373" style="stroke-width:.42422599" transform="translate(-857.557 -110.013) scale(1.31296)"/><path d="M1346.986 286.572c1.788 7.332 10.126 6.26 9.858-.409" style="stroke-width:.51838601" transform="translate(-857.557 -110.013) scale(1.31296)"/><path d="M1354.022 286.556c1.78 5.378 5.03 5.866 7.671-.414" style="stroke-width:.443892" transform="translate(-857.557 -110.013) scale(1.31296)"/><path d="m1363.559 284.184-23.415 1.003.028 1.671 23.603-.864z" style="stroke-width:.42972401" transform="translate(-857.557 -110.013) scale(1.31296)"/><path d="M1341.106 301.467c1.362 6.38 7.778 5.432 7.584-.374" style="stroke-width:.42422599" transform="translate(-857.557 -110.013) scale(1.31296)"/><path d="M1346.986 301.272c1.788 7.332 10.126 6.26 9.858-.409" style="stroke-width:.51838601" transform="translate(-857.557 -110.013) scale(1.31296)"/><path d="M1354.022 301.255c1.78 5.379 7.159 4.474 7.671-.413" style="stroke-width:.443892" transform="translate(-857.557 -110.013) scale(1.31296)"/><path d="m1363.559 298.884-23.415 1.003.028 1.671 23.603-.864z" style="stroke-width:.42972401" transform="translate(-857.557 -110.013) scale(1.31296)"/></g><path d="M1348.082 309.661c-2.112 1.387-4.032 3.086-6.81 3.939" style="fill:none;stroke:#000;stroke-width:.49999899" transform="translate(-857.557 -110.013) scale(1.31296)"/><g style="fill:#bca76b;stroke:#472b1f"><path d="M1340.406 315.267c1.363 6.38 7.778 5.432 7.584-.374" style="stroke-width:.42422599" transform="translate(-857.557 -110.013) scale(1.31296)"/><path d="M1346.286 315.072c1.788 7.332 10.126 6.26 9.858-.409" style="stroke-width:.51838601" transform="translate(-857.557 -110.013) scale(1.31296)"/><path d="M1353.322 315.055c1.78 5.379 6.535 3.688 7.671-.413" style="stroke-width:.443892" transform="translate(-857.557 -110.013) scale(1.31296)"/><path d="m1362.859 312.684-23.415 1.003.028 1.671 23.603-.864z" style="stroke-width:.42972401" transform="translate(-857.557 -110.013) scale(1.31296)"/></g><path d="M906.224 325.834c-.793 9.457-4.582 18.016-7.145 26.942m10.568-26.868c-.846 9.194-3.699 17.835-6.028 26.473m8.856-27.291c-1.101 10.214-2.332 18.743-4.614 27.24" style="fill:none;stroke:#000;stroke-width:.49999899"/><g style="fill:#bca76b;stroke:#472b1f"><path d="M1340.706 328.467c1.363 6.38 7.778 5.432 7.584-.374" style="stroke-width:.42422599" transform="translate(-857.557 -110.013) scale(1.31296)"/><path d="M1346.586 328.272c1.788 7.332 10.126 6.26 9.858-.409" style="stroke-width:.51838601" transform="translate(-857.557 -110.013) scale(1.31296)"/><path d="M1353.622 328.255c1.78 5.379 6.465 4.318 7.671-.413" style="stroke-width:.443892" transform="translate(-857.557 -110.013) scale(1.31296)"/><path d="m1363.159 325.884-23.415 1.003.028 1.671 23.603-.864z" style="stroke-width:.42972401" transform="translate(-857.557 -110.013) scale(1.31296)"/><path d="m1355.72 294.091-8.404.262.024 2.211 8.47-.03z" style="stroke-width:.248625" transform="translate(-857.557 -110.013) scale(1.31296)"/><path d="m1355.371 308.3-7.472.245.021 2.072 7.53-.028z" style="stroke-width:.226982" transform="translate(-857.557 -110.013) scale(1.31296)"/><path d="m1355.84 322.127-8.123.263.026 2.221 8.187-.03z" style="stroke-width:.244987" transform="translate(-857.557 -110.013) scale(1.31296)"/></g><path d="m906 329.258 5.731 1.19m-7.071 4.168 6.625.149m-7.666 3.721 6.847 1.935m-8.708 4.168 8.038-.372m-9.452 5.284 8.485-.223m-10.467-23.671c-.9 9.675 5.344 18.848 8.462 26.978m17.44-5.073 5.446-1.621m-6.742-1.297 6.159-2.593m-8.104-2.01 6.353-1.88m-7.78-2.464 6.224-1.62" style="fill:none;stroke:#000;stroke-width:.49999899"/><path d="M886.296 369.702c-.722.016-1.413-.247-2.13-.339-.713-.229-1.435-.444-2.106-.787-.663-.322-1.288-.815-1.884-1.242a14.075 14.075 0 0 1-1.695-1.452c-.675-.618-1.356-1.186-1.967-1.86-.641-.655-1.318-1.305-1.865-1.983-.592-.659-1.315-1.175-1.796-1.914-.554-.541-.556-1.488-1.023-2.078-.762-.15-1.886-.277-1.918-1.284-.251-.607-.36-1.351-1.121-1.268-.316.016-.402.48-.207.191-.391-.211-.287.721-.338.22-.23.37-.479 1.156-.47 1.099-.336.674-.298 1.434.582 1.526.839.124.937 1.042 1.65 1.415.57.553 1.267 1.285 1.9 1.786.606.74 1.071 1.154 1.54 1.997.292.593 1.065 1.009 1.508 1.5.37.612.79 1.154 1.27 1.695.53.542 1.21 1.116 1.844 1.466.572.347 1.147.661 1.74.994.649.322 1.263.762 1.976.897.756.423 1.694.29 2.526.47.831.05 1.65 0 2.34-.528.687-.463-.013-.376-.356-.521zm44.884-21.754c-1.013 2.4-2.625 5.732-4.634 7.8 6.587 1.274 11.89-.565 17.826-1.573-.666-2.539-.643-5.354-.394-8.26-4.718.481-8.078 1.553-12.797 2.033z"/><path d="M1362.79 349.301c-.634 1.617-1.12 3.287-2.377 4.68 4.118.858 7.48-.381 11.19-1.06-.71-1.5-.498-3.13-.246-4.767-2.95.323-5.618.824-8.567 1.147z" style="fill:#333" transform="translate(-857.557 -110.013) scale(1.31296)"/><path d="m874.82 358.172 19.127 1.445c15.365.473 32.987-.224 48.222-1.97.625-.073 1.648-.247 1.855.347.252.724-.749 1.624-1.507 1.739-17.487 2.28-35.164 1.4-52.743 1.275l-10.433-1.097z"/><path d="M1324.792 323.916c-3.748 2.89-7.485 5.808-11.725 7.47m12.293-21.208c-3.424 2.474-6.828 5.527-10.496 7.025" style="fill:none;stroke:#000;stroke-width:.49999899" transform="translate(-857.557 -110.013) scale(1.31296)"/><path d="m1324.094 285.091-.096 68.149 3.74-.258-2.169-68.283z" style="fill:#bca76b;stroke:#472b1f;stroke-width:.268116" transform="translate(-857.557 -110.013) scale(1.31296)"/><path d="M1325.57 284.7c3.036 3.36 5.454 5.175 8.016 7.35" style="fill:none;stroke:#000;stroke-width:.49999899" transform="translate(-857.557 -110.013) scale(1.31296)"/><path d="M1326.536 282.756c-.76-.389-2.772-.465-3.572.484-.429.51-.073 2.214.465 2.228 1.082.029 2.456.105 2.887-.363.448-.485.737-2.085.22-2.349z" style="fill:#bca76b;stroke:#472b1f;stroke-width:.34698501" transform="translate(-857.557 -110.013) scale(1.31296)"/><path d="M1324.402 362.045c.106-.578.553-.746 1.077-.845.604.023 1.342-.087 1.729.153.464.117.7.352 1.115.539.251.307.686.518 1 .692 1.223.47.56-.944 1.256-1 .59.053 1.21-.22 1.704 0 .44.087.644.408.885.692.263.233.55.433.693.692.099.356 1.415 1.001 1.461.154.27-.578.15-1.578 1.077-1.46 1.032-.057 1.827.2 2.768.307.494.202.895.267 1.306.692.357.213.328.636.654.615.937.691.742-.59 1.039-1 .233-.371.91-.268 1.23-.538.594-.174 1.166-.371 1.998-.307.334.188.914.479 1.309.692.295.272.668.627.847 1.076.035.45.443.808.846.461.206-.516.62-.503 1-.769.397-.088.657-.34.922-.614.233-.06.473-.575.693-.77.409-.306 1.235-.233 1.922-.307.678.2 1.307.281 1.692.615.235.252.407.568.77.692.216.446.735.074 1.077-.077.279-.207.705-.432 1.077-.615.324-.324.787-.51 1.408-.538.757-.086 1.153.313 1.743.384.556.243 1.185.28 1.538.616.402.273.945.502 1.345.153.524.016.119-1.01.32-1.251.605-.48 2.04-.416 2.794-.132.637.017 1.382-.075 1.807.154.42.102.483.502.654.922.192.393 1.307.377 1.691.077.365.008-.082-.52-.23-.692-.236-.155-.491-.529-.617-.77.573-.276.838.248 1.307.308.275.235.646.316.923.615.449.166.84.388 1.534.308.644.188.36 1.128-.38.922-.542.176-1.408.028-2.076.077-1.011-.12-2.095-.065-3.151-.077-.527.196-1.39.145-2 .308-.655-.008-1.163.13-1.864.077-.663.1-1.446.077-2.209.077-.675.13-1.26.153-1.972.23-.617.007-1.12.129-1.795.077-.886.164-2.064.037-3.075.077-.635.106-1.175.089-1.768.154-.642.018-1.209.126-1.895.153-.701-.019-1.231.133-1.969.077-1.093.166-2.298.036-3.438.077-.548-.126-1.275-.073-1.869-.154-.564-.016-1.035-.126-1.664-.077-.477-.164-1.302.018-1.772-.153-.933.054-1.642-.117-2.56-.077h-4.973c-.425-.18-1.184-.025-1.736-.077-.924-.016-2.028.032-2.848-.022-.746-.13-1.559.011-2.18-.285-.993-.182-2.255-.503-2.17-1.308z" style="stroke:#000;stroke-width:.69999999" transform="translate(-857.557 -110.013) scale(1.31296)"/><g style="fill:#bca76b;stroke:#472b1f"><path d="M1316.167 293.48c1.192 4.417 6.806 3.76 6.636-.26" style="stroke-width:.33019701" transform="translate(-857.557 -110.013) scale(1.31296)"/><path d="M1321.312 293.345c1.564 5.076 8.86 4.334 8.626-.283" style="stroke-width:.40348601" transform="translate(-857.557 -110.013) scale(1.31296)"/><path d="M1327.469 293.333c1.557 3.724 4.4 4.062 6.712-.286" style="stroke-width:.34550399" transform="translate(-857.557 -110.013) scale(1.31296)"/><path d="m1335.814 291.691-20.489.695.025 1.157 20.653-.599z" style="stroke-width:.33447599" transform="translate(-857.557 -110.013) scale(1.31296)"/></g><path d="M1321.746 301.606c-1.797 1.572-5.19 3.628-6.68 3.427" style="fill:none;stroke:#000;stroke-width:.49999899" transform="translate(-857.557 -110.013) scale(1.31296)"/><path d="M1318.079 295.927c-4.44 16.84-10.175 34.71-15.602 48.981" style="fill:none;stroke:#000;stroke-width:.49999899" transform="translate(-857.557 -110.013) scale(1.31296)"/><g style="fill:#bca76b;stroke:#472b1f"><path d="M1315.932 306.208c1.226 4.745 6.997 4.04 6.822-.278" style="stroke-width:.34699401" transform="translate(-857.557 -110.013) scale(1.31296)"/><path d="M1320.821 306.114c1.609 6.362 9.11 5.432 8.868-.355" style="stroke-width:.458009" transform="translate(-857.557 -110.013) scale(1.31296)"/><path d="M1327.56 306.057c1.776 3.983 5.017 4.344 7.651-.306" style="stroke-width:.38143301" transform="translate(-857.557 -110.013) scale(1.31296)"/><path d="m1336.108 303.805-21.02.92.024 1.532 21.188-.792z" style="stroke-width:.389898" transform="translate(-857.557 -110.013) scale(1.31296)"/><path d="M1314.828 318.353c1.328 5.81 7.58 4.947 7.392-.34" style="stroke-width:.39967701" transform="translate(-857.557 -110.013) scale(1.31296)"/><path d="M1320.57 318.288c1.862 8.562 10.546 7.31 10.267-.478" style="stroke-width:.57168603" transform="translate(-857.557 -110.013) scale(1.31296)"/><path d="M1327.417 318.16c1.735 4.899 4.902 5.343 7.477-.376" style="stroke-width:.41820499" transform="translate(-857.557 -110.013) scale(1.31296)"/><path d="m1336.702 316-23.933.915.028 1.521 24.124-.786z" style="stroke-width:.41459101" transform="translate(-857.557 -110.013) scale(1.31296)"/><path d="M1314.401 332.53c1.438 6.293 8.21 5.358 8.005-.368" style="stroke-width:.43282601" transform="translate(-857.557 -110.013) scale(1.31296)"/></g><path d="M1332.108 335.805c1.384 5.981 3.186 11.448 4.922 16.546m-6.724-16.754c.757 5.756 2.355 11.328 4.02 16.72" style="fill:none;stroke:#000;stroke-width:.49999899" transform="translate(-857.557 -110.013) scale(1.31296)"/><g style="fill:#bca76b;stroke:#472b1f"><path d="M1320.607 332.338c1.729 8.346 10.48 7.638 10.406-.403" style="stroke-width:.52889401" transform="translate(-857.557 -110.013) scale(1.31296)"/><path d="M1328.034 332.322c1.879 5.304 5.309 5.786 8.097-.408" style="stroke-width:.45289001" transform="translate(-857.557 -110.013) scale(1.31296)"/><path d="m1338.07 329.694-26.663 1.094.032 1.82 26.876-.941z" style="stroke-width:.47871" transform="translate(-857.557 -110.013) scale(1.31296)"/><path d="m1329.375 299.693-7.653.203.024 1.71 7.713-.024zm0 12.4-7.653.203.024 1.71 7.713-.024z" style="stroke-width:.20865799" transform="translate(-857.557 -110.013) scale(1.31296)"/><path d="m1329.866 325.596-8.141.202.024 1.705 8.205-.024z" style="stroke-width:.214857" transform="translate(-857.557 -110.013) scale(1.31296)"/></g><g style="fill:none;stroke:#000"><path d="m892.436 333.171-5.73 1.19m6.641 3.179-5.731 1.19m7.004 3.55-5.82-.28m7.55 4.83-6.004.903m-20.842-1.82 6.03 1.19m-4.364-6.105 5.43 1.19m-3.965-4.976 5.031 1.29m-4.112-4.694 4.531.89" style="stroke-width:.49999899"/><path d="M945.23 353.856c10.044-.448 22.053-1.608 30.133 1.544m-29.493 1.801c9.26-1.365 20.044-2.137 27.95.9m-26.924 5.789c6.675-1.495 15.609-1.844 21.94-.257m-21.26 1.834c6.675 1.496 14.535 1.845 20.867.258" style="stroke-width:.99999899"/></g><path d="m849.898 342.113 21.677 13.099.463-.58-6.839-4.752c-4.883-3.024-9.79-6-15.301-7.767z"/><g style="fill:none;stroke:#000"><path d="m953.971 352.807-.17-7.229m2.381.085v7.399m4.082.085v-7.739m4.508.649v7.43m2.721-7.484.085 7.57m3.487-6.79v7.044m1.871-7.143-.085 7.909m-17.944 1.361-.086 6.803m-2.211-6.463v6.463m5.953-6.633-.255 6.463m2.467-6.548-.086 6.463m3.402-6.548-.425 6.293m3.572-5.443-1.19 5.783" style="stroke-width:.5"/><path d="M945.381 346.041c9.922-1.176 19.844.244 29.766 1.231"/></g><path d="M999.475 257.01c.075-25.558-1.356-50.372-.703-72.116-33.069-14.686-76.58-17.706-98.77-17.706-22.194 0-65.706 3.02-98.774 17.706.653 21.744-.775 46.558-.703 72.115z" style="fill:none;stroke:#000;stroke-width:2"/><path style="fill:#69737c;fill-opacity:1;stroke:#000;stroke-width:1.5;stroke-linecap:butt;stroke-linejoin:miter;stroke-miterlimit:4;stroke-dasharray:none;stroke-opacity:1" d="M1468.236 251.403s7.354 10.937 9.334 16.823c.97 2.881 1.334 6.017 1.132 9.05-.37 5.545-2.513 10.842-4.243 16.123-1.2 3.66-3.837 6.437-2.379 10.002.703 1.719 1.393 3.294 3.228 3.008 1.121-.174 1.658-1.554 2.545-2.262.634-.506 1.23-1.104 1.98-1.415 1.06-.439 2.57.232 3.394-.565.69-.67 1.175-2.085.566-2.829-.538-.656-1.698-.032-2.546 0-1.228.047-2.607.889-3.677.283-1.1-.623-1.697-3.394-1.697-3.394s2.2-6.058 3.394-9.051c.986-2.472 2.583-4.745 3.112-7.354.168-.832-.06-1.7 0-2.546.094-1.33-.34-2.981.565-3.96.59-.637 2.228.244 2.546-.565 1.214-3.091-4.43-5.116-5.657-8.202-.458-1.153-.162-2.505-.566-3.677-.879-2.555-3.96-7.071-3.96-7.071z" transform="translate(180.708 93.35) scale(.48584)"/><path style="fill:#66452b;fill-opacity:1;stroke:#000;stroke-width:1.5;stroke-linecap:butt;stroke-linejoin:miter;stroke-miterlimit:4;stroke-dasharray:none;stroke-opacity:1" d="M1491.18 259.906s6.528 8.15 7.204 13.08c.15 1.094-.732 2.12-.758 3.224-.042 1.734 1.027 3.385.948 5.118-.257 5.575-3.194 10.7-4.55 16.114-1.148 4.58-3.033 13.839-3.033 13.839l4.17-.38.758-7.014s2.186-7.952 3.223-11.943c.721-2.774 1.111-5.646 2.085-8.341.644-1.781 2.02-3.278 2.465-5.119.58-2.396 1.28-5.182.19-7.393-.38-.77-1.49-.896-2.086-1.516-1.42-1.48-2.494-3.286-3.412-5.119-.931-1.858-2.085-5.877-2.085-5.877-.87.324-5.119 1.327-5.119 1.327z" transform="translate(180.708 93.35) scale(.48584)"/><path style="fill:#fff;stroke:none;stroke-width:1px;stroke-linecap:butt;stroke-linejoin:miter;stroke-opacity:1" d="m1460.346 245.064 4.658 3.71 8.058 4.865 3.716.227 4.197 1.512 5.239-.164 3.877 3.959 1.09.733 4.305-.596 1.588-1.762 8.218-12.53-1.972-20.66-39.161 2.535z" transform="translate(180.708 93.35) scale(.48584)"/><path style="fill:#fff;stroke:none;stroke-width:1px;stroke-linecap:butt;stroke-linejoin:miter;stroke-opacity:1" d="M1502.586 210.192c5.29 4.294 10.434 8.79 14.57 14.243 3.188 3.774 5.139 8.907 9.816 11.268 6.589 7.036 34.794 15.195 34.888 17.394-6.501-2.649-9.327 6.222-15.627 4.797-5.864 1.703-10.692-2.132-15.764-4.265-7.622-.272-15.562.123-22.346 3.99-3.707 2.015-8.118-1.094-11.05-.071l-.337.638-.438.393m-35.952-13.515c-4.517-2.242-7.822-6.452-12.026-8.988-3.25-4.576-7.424-9.157-7.225-15.178-.51-6.223-2.14-14.829.814-20.743-2.122-4.637-5.098-5.887-7.444-10.457-1.7-6.32-8.108-9.947-4.26-14.752 4.278-3.803 7.272-8.294 12.787-10.267 4.573-1.06 9.211-.614 13.6.954 5.681.667 8.797 5.514 11.794 9.712a48.048 48.048 0 0 1 7.07 18.715c2.619 5.477 9.582 6.592 14.687 8.929 4.4 2.082 8.795 3.857 12.442 7.203" transform="translate(180.708 93.35) scale(.48584)"/><path style="fill:#000;fill-opacity:1;stroke:none;stroke-width:1px;stroke-linecap:butt;stroke-linejoin:miter;stroke-opacity:1" d="M1533.488 246.823c-2.215-.316-7.531 1.879-6.14-1.41-5.45-.395-11.173.774-16.416-1.053-5.43-2.664-11.328-4.304-17.138-5.887-5.689-.309-12.393 1.008-16.76-3.66-4.533-2.649-11.159-.738-15.317-4.59-4.203-3.575-6.73-8.511-6.572-14.03-.835-5.41-2.849-12.692 3.21-15.875 3.958-1.2 7.743-.17 10.134-4.143 5.038-.831 9.663 1.012 14.004 3.471 5.094 2.522 10.715 4.084 15.667 6.917 4.744 3.132 8.78 7.211 13.23 10.767 3.494 4.009 7.565 7.711 9.827 12.634 2.68 5.28 8.224 8.062 12.975 11.122 2.846.734 9.628 3.886 3.187 4.732-1.328.215-2.56.864-3.891 1.005z" transform="translate(180.708 93.35) scale(.48584)"/><path style="fill:#69737c;fill-opacity:1;stroke:none;stroke-width:1px;stroke-linecap:butt;stroke-linejoin:miter;stroke-opacity:1" d="M1477.936 229.04c-2.77-.372-5.578-.94-7.86-2.656-1.798-1.073-6.238-3.678-3.356-5.714 2.396-.284 5.134.91 7.272-.739 3.219-.674 6.62-.736 9.593-2.32 2.767-1.504 6.035-.498 8.92-1.422 2.148-1.14 1.846-5.447 5.127-4.717 3.011-.769 2.129 5.01-.558 3.175-1.664 2.33 3.003 3.119 4.238 4.56 2.486 2.822-2.985 3.46-3.473 5.553-3.457 1.008-5.989-3.334-9.445-2.117-.639 1.16.082 3.532-2.422 2.953-2.886-1.763-5.387.217-8.232.572.833.63-.98 2.943.196 2.871zm60.042 20.708c-1.626-.859-3.712-.133-5.516-.025-1.21.015-2.416.078-3.55-.43-1.786-.045-5.178-1.98-5.697.593.118 1.111 3.043 1.583.62 1.933-2.455.35-4.655-.762-6.9-1.555-.918-.86-2.865-1.944-2.382.133.779 1.798-1.152 2.629-2.698 2.571-2.194-.156-4.64-.75-6.233-2.347-1.149 1.423 1.62 3.426 3.257 3.528 1.635 1.386-2.47.84-3.4.647-1.383-.236-2.942-.42-4.144.437-1.918.433-1.966 2.304.261 2.1 2.142.703 4.546 1.343 6.67.236 2.305-1.345 4.796-2.307 7.44-2.758a48.053 48.053 0 0 1 6.258-.96c2.794-.32 5.606-.282 8.431-.28 2.198 1.174 4.36.157 6.305-.875 1.199-.37 4.823-1.738 2.184-2.78-.331.116-.607-.42-.906-.168z" transform="translate(180.708 93.35) scale(.48584)"/><path style="fill:#000;stroke:none;stroke-width:1px;stroke-linecap:butt;stroke-linejoin:miter;stroke-opacity:1" d="M1530.47 253.63c1.084.012 2.156-.014 3.12-.536 1.059-.586 2.215-.776 3.34-1.186 1.444.016 2.11-1.933.588-2.335-.797-.529-1.743-.906-2.574-1.276-.859-.743-2.122-.974-2.894-1.75.65-.81 1.213-1.685 1.866-2.49 1.01-.405 2.236-.248 3.317-.52.8-.254 1.646-.13 2.47-.16 1.123.57 2.344.945 3.416 1.577 1.108.603 2.267 1.155 3.507 1.532 1.025.314 2.012.682 2.983 1.086 1.128.573 2.416.76 3.606 1.16 1.19.244 1.674 1.578 3.09 1.382 1.376.24 2.62.525 3.639 1.492.766.321 2.132 1.038 2.163 1.683-1.122.146-2.076-.859-3.24-.634-.909.197-1.502 1.086-2.567.923-.465 1.369-2.242 1.16-3.062 2.29-1.154.888-2.399 1.683-3.767 2.23a4.318 4.318 0 0 1-3.287-.095c-1.233-.34-2.537-.033-3.781-.238-1.332.359-2.56.065-3.815-.372-1.103-.296-1.94-1.107-2.891-1.68-1.143-.465-3.212-1.012-4.348-1.487-.596-.288-.532-.47-1.18-.597z" transform="translate(180.708 93.35) scale(.48584)"/><path style="fill:#000;fill-opacity:1;stroke:none;stroke-width:1px;stroke-linecap:butt;stroke-linejoin:miter;stroke-opacity:1" d="M1446.272 163.94c-1.158-.018-2.318 0-3.407.464-1.907.425-3.6 1.555-4.832 3.055-1.583 1.855-3.43 3.47-5.445 4.844a7.922 7.922 0 0 0-2.383 2.642c1.155.754 2.969.964 3.775-.404 1.248-1.542 2.874-2.794 4.73-3.5 1.641-.325 3.308.332 4.948.506 1.308.71 2.65 1.268 4.152 1.484.777.284 2.104.404 3.206.713 1.513.583 3.116.845 4.681 1.254 1.774.365 3.577.236 5.348-.049.397-.046.8-.06 1.201-.072-.253.574-.457 1.104-.42 1.373.035 1.078.504 2.048.98 2.992.573.935 1.15 1.865 1.708 2.783.457 1.07.987 2.102 1.398 3.194.537.83.838 1.736 1.211 2.635.245 1.017.652 2.01 1.36 2.751.717.938 1.566 1.792 2.212 2.79.587.862 1.028 1.836 1.473 2.738.779.656 1.599 1.609 2.67 1.496 1.108.142 2.158-.302 3.246-.42l-.373-.094c-1.019-.528-1.526-1.574-2.065-2.517-.248-1.053-.348-2.153-.537-3.182-.07-1.045-.438-2.047-.793-3.035-.27-.872-.625-1.705-.857-2.576-.421-.89-.77-1.818-1.1-2.75-.37-.974-.657-1.985-1.23-2.864-.527-.941-.942-1.936-1.522-2.86-.622-.835-.977-1.919-1.634-2.714-.324-.5-.78-.763-1.284-.933.204-.497-.01-1.165-.576-1.696-.755-.896-1.785-1.743-2.36-2.902-1.23-1.53-3.223-2.02-4.93-2.818-1.987-.904-4.137-1.334-6.264-1.752a16.63 16.63 0 0 0-5.133-.563c-.383.001-.769-.008-1.155-.014z" transform="translate(180.708 93.35) scale(.48584)"/><path style="fill:#69737c;fill-opacity:1;stroke:none;stroke-width:1px;stroke-linecap:butt;stroke-linejoin:miter;stroke-opacity:1" d="M1466.072 191.84c-.06-1.518-2.133-.92-2.771-.112-1.022 1.007-1.594 2.418-2.822 3.228-1.808 1.319-4.195 1.5-5.992 2.833-1.034 1.064-1.826 2.422-3.212 3.087-1.418.762-2.96 1.62-3.698 3.123-.326 1.103-1.073 2.634.084 3.513 1.48.556.061 1.9.143 2.862.692 1.017 2.365 1.417 3.413.693 1.394-.839 2.908-1.618 3.817-3.028 1.329-1.616 2.822-3.21 4.736-4.118 1.267-.313 2.246-1.157 3.11-2.077.909-.744.14-2.191 1.522-2.44 1.26-.478 1.928-1.67 2.731-2.661.744-1.152-.61-2.228-.43-3.458-.073-.532-.142-1.12-.63-1.444z" transform="translate(180.708 93.35) scale(.48584)"/><path style="fill:#66452b;fill-opacity:1;stroke:#000;stroke-width:1.5;stroke-linecap:butt;stroke-linejoin:miter;stroke-miterlimit:4;stroke-dasharray:none;stroke-opacity:1" d="M1487.737 312.336h-7.634c-1.263-.508-2.147-2.623-3.755-1.783-1.4.537-2.8 1.199-4.133 1.919-1.292.704-2.384 1.636-3.227 2.81-.158.808-2.52 1.718-.53 1.747 1.722.14 2.783-1.628 4.444-1.86 1.308-.525 2.75-.197 4.12-.288 1.115.267 2.37.276 3.577.268 1.356-.105 2.633.145 3.953.112 1.918.172-.71 1.343-1.323 1.601-1.5.68-3.166.878-4.77 1.233-1.586.012-3.223-.054-4.681.653-1.47.68-2.948 1.4-4.305 2.33-.74.41-2.627 1.401-.764 1.42 1.386.17 2.728-.171 4.041-.585 2.288-.859 4.659-1.419 7.069-1.8 1.572-.356 3.028-1.035 4.618-1.323.971 0 3.561-.479 2.747 1.23-.993 1.192-2.404 2.026-3.806 2.647-1.184.686-2.284 1.764-3.773 1.723-1.122-.394-3.49.47-1.779 1.606.862 1.547 2.687.487 3.813-.087 1.324-.661 2.622-1.182 4.016-1.72 1.56-.58 3.16-1.184 4.655-1.859 1.247-.788 2.802-1.065 3.945-1.93 1.356-.792 2.966-1.432 3.613-2.998.407-1.272 1.375-2.057 2.597-2.482 1.39-.35 2.867-.132 4.275-.441 1.586-.008 1.13-2.87-.334-2.942-1.279-.831-2.37-1.81-3.679-2.549-1.545-.56-3.172-.961-4.85-.804-1.386.1-2.475.975-3.157 2.118-.862 1.01-1.058 2.784-2.757 2.385-.768.21-1.52-.069-2.226-.35zm-37.228 9.508s1.445-5.334 3.328-7.181c3.825-3.754 14.713-6.481 14.713-6.481-4.647 1.81-10.22.463-14.713 1.751-3.747 1.17-10.16 5.956-10.16 5.956s2.376-5.096 4.205-7.182c5.392-5.893 14.002-6.582 20.493-5.605l7.357 1.05s1.254.76.7 1.879c-1.157 2.34-4.648 3.681-7.006 4.804-6.611 3.368-14.81 5.997-18.917 11.01z" transform="translate(180.708 93.35) scale(.48584)"/><path style="fill:#69737c;fill-opacity:1;stroke:#000;stroke-width:1.5;stroke-linecap:butt;stroke-linejoin:miter;stroke-miterlimit:4;stroke-dasharray:none;stroke-opacity:1" d="M1472.93 303.102c-5.928 4.01-19.605 11.177-19.093 11.56 0 0 11.657-2.666 16.99-5.254 1.851-.898 4.445-1.547 5.08-3.503.325-1.002-.165-2.41-1.05-2.978-.543-.348-1.393-.186-1.927.175z" transform="translate(180.708 93.35) scale(.48584)"/><path style="fill:#69737c;fill-opacity:1;stroke:none;stroke-width:1px;stroke-linecap:butt;stroke-linejoin:miter;stroke-opacity:1" d="M1501.227 272.039c-1.44-.097-1.646 2.538-1.706 3.981-.042.998-.049 2.773.948 2.844 1.269.09 1.584-2.147 1.706-3.413.114-1.175.23-3.333-.948-3.412z" transform="translate(180.708 93.35) scale(.48584)"/><path style="fill:#69737c;fill-opacity:1;stroke:#000;stroke-width:1.5;stroke-linecap:butt;stroke-linejoin:miter;stroke-miterlimit:4;stroke-dasharray:none;stroke-opacity:1" d="M1495.161 310.901c.046-1.158-1.425-.54-2.054-.336-1.435.329-2.67 1.143-3.927 1.87-.979.64-2.038 1.15-3.043 1.744-1.986.951-3.78 2.253-5.77 3.198-.84.41-1.71.8-2.623.991-.74.144-.476.613.156.557 1.368.293 2.79.135 4.102-.33 1.461-.456 3.12-.832 4.528-1.427.757-.69 2.328-.939 3.201-1.443.728-.47 2.626-.755 3.412-1.12 1.304-.683.772-1.624 2.26-1.636.93-.002 1.063-1.416.141-1.595-.174-.11-.334-.265-.383-.473z" transform="translate(180.708 93.35) scale(.48584)"/><path style="fill:#69737c;fill-opacity:1;stroke:#000;stroke-width:1.5;stroke-linecap:butt;stroke-linejoin:miter;stroke-miterlimit:4;stroke-dasharray:none;stroke-opacity:1" d="M1481.701 323.413c1.05-.287 2.169-.235 3.199-.614 1.275-.33 2.53-.74 3.771-1.172.593-.293 1.188-.583 1.778-.88 1.047-.738 1.763-1.843 2.456-2.898.474-.897.92-1.812 1.374-2.718.21-.736-.686-1.062-1.136-.526-.675.485-1.294 1.04-1.993 1.493-.678.578-1.501.968-2.134 1.597-.762.898-1.14 2.074-1.997 2.897-.403.41-.867.725-1.393.954-1.079.59-2.278.906-3.374 1.46-.196.116-.406.227-.55.407z" transform="translate(180.708 93.35) scale(.48584)"/><path style="fill:none;stroke:#000;stroke-width:1.5;stroke-linecap:butt;stroke-linejoin:miter;stroke-miterlimit:4;stroke-dasharray:none;stroke-opacity:1" d="M1496.003 246.142c.43.684.665 1.502.706 2.303.126.98.368 1.943.496 2.92-.064 1.017-1.126 1.632-1.294 2.634-.063.67.04 1.355-.12 2.022-.24 1.088.108 2.228-.305 3.29-.514.99-1.985.24-2.896.499-.886.206-1.965.25-2.499-.637-.755-.81-1.419-1.71-2.269-2.429-1.026-1-2.09-2.001-2.763-3.286-.615-.863-1.136-1.781-1.728-2.657-.199-.37-.405-.836-.555-1.153m3.438 5.566c-.872.006-1.722.28-2.625.164h-2.614c-.64-.26-1.897-.265-2.506-.682-.716-.14-1.061-.566-1.69-.83-.465-.333-.89.025-1.471-.065-.395-.723-1.25-1.63-1.72-2.131-.5-.26-1.055-.447-1.443-1.004-.537-.132-.952-1.014-1.158-1.299-.404-.473-.518-1.102-.91-1.615-.372-.542-.506-1.066-.893-1.636-.075-.12-.022-.274 0-.398" transform="translate(180.708 93.35) scale(.48584)"/><path style="fill:none;stroke:#000;stroke-width:1.5;stroke-linecap:butt;stroke-linejoin:miter;stroke-miterlimit:4;stroke-dasharray:none;stroke-opacity:1" d="M1475.308 253.8c-.197 1.254-1.614-.015-2.246-.161-.521-.259-.988-.562-1.593-.753-.44-.337-1.03-.569-1.488-.78-.543-.34-1.235-.559-1.646-.985-.779-.176-1.354-.94-2.094-1.146-.673-.635-1.426-1.103-2.167-1.597-.771-.61-1.645-1.142-2.385-1.897-.703-.61-1.3-1.259-1.355-2.19a6.882 6.882 0 0 0-.63-2.418c.088-.474-.257-.638-.18-1.066" transform="translate(180.708 93.35) scale(.48584)"/><path style="fill:#bca76b;fill-opacity:1;stroke:none;stroke-width:1px;stroke-linecap:butt;stroke-linejoin:miter;stroke-opacity:1" d="M1533.508 254.487a7.866 7.866 0 0 0 2.4-.209c.823-.047 1.579-.376 2.367-.563.82-.345 1.485-1.164 2.45-1.084.871-.047 1.845.265 2.621-.272.49-.668 1.187-.905 1.986-.767.811-.118 1.586.148 2.369.31.729.261 1.486.422 2.216.678.704.368 1.394.785 2.135 1.07.735.376-.517.893-.75 1.266-.736.305-1.631.024-2.286.597-.674.36-1.282.844-1.597 1.557-.395.816-1.385.582-2.1.845-.707.102-1.428.005-2.137.121-.605.02-1.254.238-1.816-.06-.758-.236-1.545-.413-2.34-.433-.621-.427-1.118-1.118-1.93-1.18-1.093-.248-1.994-.971-3.052-1.32a.933.933 0 0 1-.536-.556z" transform="translate(180.708 93.35) scale(.48584)"/><path style="fill:#000;stroke:#000;stroke-width:1px;stroke-linecap:butt;stroke-linejoin:miter;stroke-opacity:1" d="M1435.03 183.95c-1.81-.383-3.587.463-5.407.427-1.67.373-3.427.1-5.135.183-1.784-.323-3.7-.16-5.513.128-2.699.438-5.263 1.498-7.98 1.908-3.668.236-7.377.035-11.062.102-2.584.217.254-3.13 1.718-2.99 3.36-.906 6.642-2.125 10.127-2.465 2.59-.383 5.106-1.171 7.676-1.626 2.082-.592 4.186-1.06 6.263-1.66 2.158-.363 4.335-.773 6.517-.4 2.252-.558 4.506-1.089 6.653-2.004 1.953-.97 4.29-.322 6.123-1.529 1.159-1.71 3.326-1.65 5.169-1.493 1.958.36 4.103 1.078 5.303 2.815 1.44 2.088-2.969 1.818-1.649 4.005-.781.805-2.284.994-3.48.934-1.032-.06-2.123.21-3.057-.35-1.675-.59-2.95-1.884-4.49-2.768-1.578-.245-1.658 2.667-3.654 2.355-2.524.967-5.284.72-7.939.763 1.672.611 3.498 1.207 4.835 2.382.523.81-.406 1.116-1.018 1.283z" transform="translate(180.708 93.35) scale(.48584)"/><path style="fill:#fff;stroke:none;stroke-width:1px;stroke-linecap:butt;stroke-linejoin:miter;stroke-opacity:1" d="m1445.718 176.621 1.68-.763.915-1.527s1.443 2.167.764 2.9c-.773.836-3.36-.61-3.36-.61zm4.461-4.091c.344-.262-1.392-1.338-.097-1.622 1.37-1.642 3.526-.29 5.118.213 3.067.969 6.292 2.163 8.336 4.79 2.942 3.396 3.604 8.04 5.935 11.792 1 1.795 1.639 3.756 2.3 5.687.484 1.539 2.834 3.137 1.607 4.792-1.443.878-2.91-.298-4.273-.653-1.848-.193-.95 1.871.26 2.112 1.313.522 1.72 2.612-.158 2.492-1.794-.213-3.576-.35-5.333-.626-1.4-.759.375-2.16 1.16-2.669 1.049-.63 2.437-1.47 2.231-2.9.022-2.585-1.767-4.705-2.158-7.21-.466-1.877-.914-3.79-1.848-5.5-.808-4.031-4.429-6.809-8.15-8.043-1.594-.819-3.295-1.526-4.82-2.422l-.11-.232z" transform="translate(180.708 93.35) scale(.48584)"/><path style="fill:#bca76b;fill-opacity:1;stroke:none;stroke-width:1px;stroke-linecap:butt;stroke-linejoin:miter;stroke-opacity:1" d="M1463.592 174.552c.535.297 1.056.622 1.6.898.431.444 1.423 1.944 1.734 2.479.209.441.31.91.417 1.384.094.606.565 1.024.888 1.51.295.689.515 1.41.787 2.109.359.544.714 1.102.847 1.752.128.549.287 1.08.51 1.597.303.436.468 1.297-.288 1.337-.498-.128-1.026-.384-1.323-.834-.58-.526-.889-1.265-1.342-1.892-.27-.44-.438-.974-.546-1.437-.31-.54-.386-1.182-.605-1.76-.273-.547-.37-1.156-.689-1.68-.352-.594-.482-1.285-.86-1.867-.316-.703-1.468-2.444-1.196-3.254.026-.113.05-.226.066-.342zm-12.072-4.496c-.42-.138-.723-.46-1.004-.78-.321-.189-.903-.391-1.134-.619-.782.311-.138-.514-.524-.39-.18-.3-.157-.518-.346-.838-.243-.285-.555-.506-.78-.807.016-.165-.33-.381.014-.38.415-.013.855-.054 1.232.142.41-.072.722.236 1.126.172.574-.042 1.149.01 1.723-.015.278-.1.32.26.617.159.2.037.256.207.486.132.467.023.533.515.786.785.347.214.498.595.583.949.078.092.152.513.123.42.05-.093.054.41-.166.39-.285.296-.691.333-1.009.52-.406.033-.711.394-1.125.31-.204-.034-.399-.11-.602-.15z" transform="translate(180.708 93.35) scale(.48584)"/><path style="fill:#fff;stroke:none;stroke-width:1px;stroke-linecap:butt;stroke-linejoin:miter;stroke-opacity:1" d="M1450.516 169.277c-.584.256-1.22.49-1.868.396-.429.096-.75.417-1.066.697-.373.239-.822.313-1.247.395-.349-.072-.613-.353-.96-.446-.302-.117-.29-.525-.616-.623-.325-.225-.69-.364-1.052-.515-.312-.134-.207-.515-.245-.786-.01-.309.035-.62.155-.904-.015-.435.373-.6.75-.515.711.006 1.422.001 2.134.003.353-.187.755-.389 1.165-.323.394.131.587.539.907.777.658.604 1.293 1.232 1.943 1.844zm3.2-1.66c.471-.241.985-.475 1.506-.544.526-.023 1.01.201 1.514.308.544.164 1.093.299 1.585.595.571.187 1.074.499 1.623.746.493.27.978.562 1.486.804.467.229.923.492 1.342.796.45.355.9.733 1.238 1.198.316.36.01 1.032-.47.655-.472-.31-.998-.499-1.53-.679-.494-.072-.972-.153-1.42-.387-.517-.1-.988-.437-1.514-.57-.668-.308-1.377-.508-2.04-.824-.285-.216-.663-.25-.97-.437-.615-.326-1.248-.615-1.864-.937-.188-.2-.57-.392-.486-.724z" transform="translate(180.708 93.35) scale(.48584)"/><path style="fill:#000;stroke:none;stroke-width:1px;stroke-linecap:butt;stroke-linejoin:miter;stroke-opacity:1" d="M1461.338 178.467c-2.057-.162-4.118.795-6.152.143-1.534-.206-2.734.954-4.057 1.505-1.714-.169-2.067 2.286-3.588 2.164-1.303-.155-2.856-1.163-4.036-.698 2.65 1.175 5.355 2.353 7.711 4.069 1.283 1.19 2.74 2.23 4.428 2.746 1.146.493 2.478 1.639 1.962 3.024-.514 1.621-2.937 1.907-3.033 3.742-.274 1.609-2.042 2.294-2.613 3.748-.625 1.13-2.076 1.807-2.188 3.19.35 1.726 2.356.425 2.301-.843.3-1.105 1.283-2.813 2.652-2.109 1.119 1.581 2.491-1.109 3.835-.464.62.932 2.062 1.42 2.685.186.909-.357 2.34-.95 1.473-2.246-.029-1.328 1.612-1.238 2.358-1.993 1.04-.47 2.13-1.815.996-2.79-1.02-1.419.075-3.446-1.201-4.762-.97-1.51.028-3.397-.78-4.962-.685-1.296-1.222-3.132-2.605-3.694z" transform="translate(180.708 93.35) scale(.48584)"/><path style="fill:#69737c;fill-opacity:1;stroke:none;stroke-width:1px;stroke-linecap:butt;stroke-linejoin:miter;stroke-opacity:1" d="M1516.61 234.485c-2.353-.043-4.25 1.756-6.578 1.923-2.818.395.735 1.67 1.604 2.282 2.24 1.486 4.909 1.998 7.398 2.864 2.33 1.11 4.961 1.8 7.531 1.35 2.395-.561.62-2.938-.05-4.254-1.433-2.05-3.865-3.088-5.664-4.776-1.302-1.157-3.255-.74-4.241.61z" transform="translate(180.708 93.35) scale(.48584)"/><path style="fill:#fff;stroke:none;stroke-width:1px;stroke-linecap:butt;stroke-linejoin:miter;stroke-opacity:1" d="M1515.02 239.482c-.863.106-1.709.387-2.589.29-1.008.087-2.082.296-3.01-.253-1.047-.266-2.118-.47-3.057-1.04-.726-.48-1.707-.675-2.14-1.498-.616-.874.632-.948 1.207-1.045 1.049-.212 2.163-.418 3.226-.2 1.158.597 2.425.914 3.577 1.518.955.418 1.91.897 2.612 1.672-.01-.03.16.356.174.557z" transform="translate(180.708 93.35) scale(.48584)"/><path style="fill:#fff;stroke:none;stroke-width:1.17705703px;stroke-linecap:butt;stroke-linejoin:miter;stroke-opacity:1" d="M1526.563 238.782c.158 1.005-1.619.05-2.251.382-1.206.17-2.26-.207-3.362-.673-1.749-.829-3.525-1.644-5.411-2.067-.876-.228-2.664-1.035-1.374-2.037 1.014-.782 2.324-1.41 3.568-1.573 1.33-.071 2.474.816 3.699 1.253 1.229.595 2.526 1.11 3.595 1.996.763.635 1.63 1.612 1.536 2.719z" transform="translate(180.708 93.35) scale(.48584)"/><path style="fill:#69737c;fill-opacity:1;stroke:none;stroke-width:1px;stroke-linecap:butt;stroke-linejoin:miter;stroke-opacity:1" d="M1494.667 227.391c-1.71 1.027-3.671 1.508-5.659 1.456-1.768.652-4.794-.943-5.421 1.403-.853 1.908 1.447 2.716 2.672 3.553 3.598 2.077 7.839 1.97 11.857 2.145 1.098.069 4.58-.413 2.735-1.758-2.014-1.539-3.512-3.59-5.117-5.518-.4-.386-.84-.757-1.067-1.28zm20.151 1.31c-.804-.118-1.564-.455-2.336-.684-1.064-.356-1.967-1.064-2.983-1.559-1.369-.778-2.712-1.617-4.13-2.288-.693-.244-.561-.997.199-.906.756.024 1.017-1.181 1.753-.394.929.561 1.804 1.19 2.52 2.018.862.711 1.668 1.585 2.799 1.85.808.451 2.121.894 2.178 1.963zm-2.72 3.729s-3.645.948-5.342.25c-1.25-.373-2.538-.615-3.703-1.23-1.423-.715-2.962-1.358-4.082-2.53-.902-1.137.216-2.93 1.663-2.462.887-.25.522-2.28 1.877-1.378 1.861.84 3.723 1.76 5.324 3.039.966.92 2.05 1.72 2.97 2.682.456.52 1.293 1.628 1.293 1.628zm-27.191-25.623c2.434.624 5.26 1.762 6.75 3.907 2.138 2.6-2.034 4.018-3.923 2.548-3.095-1.516-6.211-3.076-9.532-4.018-3.179.41 1.408 2.25 2.296 3.088 1.402.832 2.606 2.428 2.585 4.024-2.095 1.626-4.785-.11-7.091-.336-2.523-.293-3.933-2.498-5.524-4.187-1.152-1.2-2.49-1.918-4.031-1.218-.001 2.113 1.54 2.637 2.515 4.42.863 1.073 4.207 3.802.979 3.823-2.355-.646-4.53-2.194-5.788-4.343-1.44-1.485-2.564-4.572.4-4.961 2.55-1.536 5.543-2.294 8.52-2.29 3.238-.298 6.523.225 9.702-.62.447.136 2.507-.929 2.142.163z" transform="translate(180.708 93.35) scale(.48584)"/><path style="fill:#fff;stroke:none;stroke-width:1px;stroke-linecap:butt;stroke-linejoin:miter;stroke-opacity:1" d="M1460.282 208.657c-.4.694-.69 1.361-.695 2.095-.048.884.041 1.697.119 2.514.226.656.396 1.414.668 2.042.396.749 1.026 1.198 1.63 1.72.495.543 1.002.824 1.63 1.17.482.29.96.475 1.503.66.482.214 1.254.42 1.909.55.719.124 1.23.013 1.52-.593.73-.46.138-.847-.357-.997-.562-.106-1.052-.558-1.553-.98-.539-.485-.937-1.039-1.283-1.655-.203-.552-.586-1.063-.957-1.593-.37-.438-.66-.882-1.155-1.326a12.07 12.07 0 0 1-1.465-1.58c-.352-.486-.892-1.103-1.331-1.57-.1-.133-.194-.285-.183-.457zm21.388 8.439c-1.354-.127-3.526-.696-5.144-1.162-1.824-.635-3.511-1.72-4.648-3.3-1.355-1.258-2.677-2.599-4.254-3.579-1.646-.5-2.32 1.816-1.27 2.82.9 1.442 2.218 2.567 3.233 3.928 1.187 1.255 2.662 2.168 4.178 2.982 1.916 1.177 4.224 1.545 6.432 1.69 1.286-.162 2.832-.951 3.154-2.3.1-.87-1.046-1.056-1.68-1.079zm-4.74 10.868c-1.18.215-2.491.222-3.49-.54-1.005-.496-1.692-1.488-2.294-2.404-.82-.96-1.77-1.981-3.016-2.35-1.103-.314-2.432.458-2.084 1.712.151 1.044.948 1.863 1.655 2.59 1.175 1.165 2.766 1.682 4.249 2.33.742.397 1.644.482 2.479.497.852-.013 2.208.308 2.498-.773.042-.354-.028-.709 0-1.062zm11.908-3.468c1.01.442 1.71 1.739 1.046 2.747-.752 1.068-2.114 1.695-3.423 1.527-1.104-.038-2.22.124-3.298-.196-1.23-.371-2.379-.933-3.5-1.544-1.245-.413-1.38-1.873-2.203-2.713-.51-.95 1.203-1.41 1.914-1.138 1.202.39 1.932 1.53 3.096 1.962.922.485 1.855.948 2.91 1.062.893.212 2.08.397 2.663-.51.219-.426.506-.816.795-1.197z" transform="translate(180.708 93.35) scale(.48584)"/><path style="fill:#fff;stroke:none;stroke-width:1.11422992px;stroke-linecap:butt;stroke-linejoin:miter;stroke-opacity:1" d="M1499.24 221.89c.872.915.336 2.637-.897 2.924-1.017.211-2.104.45-3.124.11-1.512-.366-2.854-1.186-4.15-2.011-.782-.652-2.007-.877-2.583-1.784-.35-1.235 1.002-2.217 2.148-1.777 1.647.54 3.408.746 4.942 1.608 1.114.473 2.248.972 3.458 1.012z" transform="translate(180.708 93.35) scale(.48584)"/><path d="M1502.586 210.192c5.29 4.294 10.434 8.79 14.57 14.243 3.188 3.774 5.139 8.907 9.816 11.268 6.589 7.036 34.794 15.195 34.888 17.394-6.501-2.649-9.327 6.222-15.627 4.797-5.864 1.703-10.692-2.132-15.764-4.265-7.622-.272-15.562.123-22.346 3.99-3.707 2.015-8.118-1.094-11.05-.071l-.337.638-.438.393m-35.952-13.515c-4.517-2.242-7.822-6.452-12.026-8.988-3.25-4.576-7.424-9.157-7.225-15.178-.51-6.223-2.14-14.829.814-20.743-2.122-4.637-5.098-5.887-7.444-10.457-1.7-6.32-8.108-9.947-4.26-14.752 4.278-3.803 7.272-8.294 12.787-10.267 4.573-1.06 9.211-.614 13.6.954 5.681.667 8.797 5.514 11.794 9.712a48.048 48.048 0 0 1 7.07 18.715c2.619 5.477 9.582 6.592 14.687 8.929 4.4 2.082 8.795 3.857 12.442 7.203" style="fill:none;stroke:#000;stroke-width:1.5;stroke-linecap:butt;stroke-linejoin:miter;stroke-miterlimit:4;stroke-dasharray:none;stroke-opacity:1" transform="translate(180.708 93.35) scale(.48584)"/></svg>