<svg xmlns="http://www.w3.org/2000/svg" xmlns:xlink="http://www.w3.org/1999/xlink" width="900" height="600" viewBox="0 0 10800 7200" fill="#ee1c25"><defs><clipPath id="b"><path id="a" d="M4678 1746s56 561 56 1683c-8 1146-865 1726-1494 2031-629-305-1486-885-1494-2031 0-1122 56-1683 56-1683z"/></clipPath></defs><path fill="#fff" d="M0 0h10800v7200H0z"/><path fill="#0b4ea2" d="M0 2400h10800v4800H0z"/><path d="M0 4800h10800v2400H0z"/><use xlink:href="#a"/><path fill="#fff" d="M3113 4800V3397c-475 0-610 42-752 85a2323 2323 0 0 0 0-431c142 43 277 85 752 85v-390c-150 0-357 6-595 87a2323 2323 0 0 0 0-432c238 80 445 86 595 86 0-113-35-356-79-557a2323 2323 0 0 0 412 0c-44 201-79 444-79 557 150 0 357-6 595-86a2323 2323 0 0 0 0 432c-238-81-445-87-595-87v390c475 0 610-42 752-85a2323 2323 0 0 0 0 431c-142-43-277-85-752-85v1403z"/><path clip-path="url(#b)" fill="#0b4ea2" d="M2463 5903a507 867 0 1 1 319-1541 584 1084 0 0 1 916 0 507 867 0 1 1 319 1541z"/><use xlink:href="#a" fill="none" stroke="#fff" stroke-width="108"/></svg>