<svg height="450" width="675" xmlns="http://www.w3.org/2000/svg"><path d="M0 0h675v450H0z" fill="#012a87"/><path d="M0 0h675v225H0z" fill="#dc171d"/><path d="M0 0v450l300-225z" fill="#fff"/><path d="m-109.493 93.842.025-.921s-.495-.789.079-1.636c0 0-1.22-.645-.936-1.656 0 0-1.104-.282-1.023-1.496 0 0-1.19-.083-1.314-1.097 0 0-1.191.196-1.715-.792 0 0-1.162.227-1.49-.587 0 0-1.13.391-1.8-.566 0 0-1.192.482-1.692-.422-.493.9-1.686.422-1.686.422-.662.954-1.8.558-1.8.558-.316.818-1.475.586-1.475.586-.522.988-1.712.791-1.712.791-.117 1.011-1.306 1.094-1.306 1.094.094 1.217-1.008 1.493-1.008 1.493.29 1.01-.928 1.654-.928 1.654.589.852.099 1.634.099 1.634l-.028.85 19.713.091h-.003z" fill="#f9d90f" stroke="#000" stroke-width=".106" transform="matrix(3.77953 0 0 3.77953 565.385 -184.831)"/><g stroke-width="2.022" transform="matrix(1.8697 0 0 1.8687 193.7 289.09)"><path d="M-42.413-75.046c1.068 1.078.07 1.668-.916 1.114-2.434-1.843-5.28-2.865-9.193-1.751-5.623.02-11.597-.318-14.328 2.667-.195.575-1.72 2.745 4.179-.438-.368 2.201 2.376.402 4.497-.597-1.461 1.528 2.238 1.779 4.577.278-1.15 1.544.87 1.502 2.786 1.513 2.803.087 1.254 2.526-3.542 2.627-.35-.025-1.695.606.12 1.074.84.042.156 1.214 3.064-.278-.18.873 1.065.704 2.826.159.998.785 1.808-.029 2.666-.438 3.674 1.437 8.526 2.875 9.83-2.11 3.067-.353 5.605-.803 4.231-1.97 3.995 1.629 4.226 1 4.165.196 1.916.725 4.144 1.705 3.237.113 1.841.47 3.858.635 5.431 1.576 1.594.826 1.078-.617.704-1.266-.817-1.307-1.848-1.692-4.176-1.74-1.973-.04-11.22-2.62-16.03.164h.027c-.085 0-1.998-1.801-1.998-1.801.44-.012.758-.234 1.013-.563a17.995 17.995 0 0 0 5.629-.591c.855-.267 1.342.242 1.323.619.782-1.376-.301-1.661-1.098-1.604-3.174.18-5.079.014-6.613-.254-3.043-1.518-6.704.811-3.321 2.73z" fill="#bc715f" stroke="#000" stroke-width=".214"/><path d="M-41.698-77.742c-.637.095-1.294.172-1.548.613.019-.726 1.099-.776 1.548-.613z"/><ellipse cx="-42.036" cy="-77.474" rx=".274" ry=".281"/></g><g stroke="#000"><path d="M-136.207 91.44c.622 3.528 1.312 7.143 1.65 10.836.74 5.469-2.588 10.06-1.223 15.464.815 2.592 3.666 4.099 6.275 4.398 3.462.654 7.646.002 10.173 2.59 2.527-2.589 6.712-1.936 10.173-2.59 2.61-.299 5.46-1.806 6.275-4.398 1.365-5.403-1.962-9.995-1.223-15.464.339-3.693 1.029-7.308 1.65-10.835-6.093 3.308-12.114-.996-16.875 1.756-4.76-2.752-10.782 1.552-16.875-1.756z" fill="#dc171d" stroke-width=".106" transform="matrix(3.77953 0 0 3.77953 565.385 -184.831)"/><path d="M-133.935 94.29c.537 2.91 1.133 5.893 1.426 8.94.637 4.512-2.236 8.3-1.057 12.758.703 2.14 3.166 3.383 5.42 3.629 2.99.54 6.604.001 8.786 2.138 2.182-2.137 5.797-1.598 8.786-2.138 2.254-.246 4.717-1.49 5.42-3.629 1.179-4.457-1.694-8.246-1.057-12.758.293-3.047.89-6.03 1.426-8.94-5.263 2.73-10.463-.821-14.575 1.449-4.112-2.27-9.312 1.28-14.575-1.45z" fill="#62afe1" stroke-width=".106" transform="matrix(3.77953 0 0 3.77953 565.385 -184.831)"/><g stroke-width=".238"><g fill="#fff"><g stroke-linecap="round"><path d="m-90.037-62.937-6.158 4.22v5.08h18.029v-5.08l-6.158-4.22z" transform="matrix(3.77953 0 0 3.77953 443.763 440.25)"/><path d="M-97.658-54.477v.971h.593v4.99h19.768v-4.99h.593v-.971zM-87.181-68.44l-2.856 2.78v2.723h5.713v-2.723zM-95.305-58.028h1.806v2.861h-1.806zM-90.177-58.028h1.806v2.861h-1.806zM-79.057-58.028h-1.806v2.861h1.806zM-84.184-58.028h-1.807v2.861h1.807z" transform="matrix(3.77953 0 0 3.77953 443.763 440.25)"/><path d="M-95.305-53.053h1.806v2.86h-1.806zM-79.057-53.053h-1.806v2.86h1.806zM-85.765-53.215h-2.832v4.699h2.832zM-90.243-54.477h-1.27v5.961h1.27zM-84.119-54.477h1.271v5.961h-1.27z" transform="matrix(3.77953 0 0 3.77953 443.763 440.25)"/><path d="M-82.377-54.273v-1.472h-9.608v1.472z" transform="matrix(3.77953 0 0 3.77953 443.763 440.25)"/></g><path d="M-90.037-65.66h5.713M-96.195-58.717h18.029" transform="matrix(3.77953 0 0 3.77953 443.763 440.25)"/><g stroke-linecap="round"><path d="M-98.11-49.139h21.859v1.545h-21.86zM-86.091-65.071h-2.18v1.544h2.18z" transform="matrix(3.77953 0 0 3.77953 443.763 440.25)"/></g></g><g fill="none"><g stroke-width=".265"><path d="M-91.299-55.745v1.472M-83.063-55.745v1.472M-83.75-55.745v1.472M-84.436-55.745v1.472M-85.122-55.745v1.472M-85.808-55.745v1.472M-86.495-55.745v1.472M-87.18-55.745v1.472M-87.867-55.745v1.472M-88.553-55.745v1.472M-89.24-55.745v1.472M-89.926-55.745v1.472M-90.612-55.745v1.472" transform="matrix(3.77953 0 0 3.77953 443.763 440.25)"/></g><path d="M-82.377-55.645v1.372" transform="matrix(3.77953 0 0 3.77953 443.763 440.25)"/></g></g><g fill="#008830" stroke-width=".255"><path d="M-30.543-85.287c2.909 1.856 4.284 3.573 4.291 5.165-3.62-.193-6.893-1.897-4.29-5.165z" transform="matrix(1.76318 0 0 1.76283 133.11 330.853)"/><path d="M-28.2-83.598c2.8 1.594 4.38 3.329 4.866 5.19-2.846.496-5.882-.847-4.866-5.19zM-31.821-80.86c.377 3.202-.085 5.502-1.296 6.997-2.085-1.998-2.804-5.239 1.296-6.996z" transform="matrix(1.76318 0 0 1.76283 133.11 330.853)"/><path d="M-31.818-80.85c2.632 1.862 4.032 3.744 4.334 5.644-2.88.214-5.77-1.42-4.334-5.643z" transform="matrix(1.76318 0 0 1.76283 133.11 330.853)"/><path d="m-30.07-83.411 1.212.757 1.302-.128.545.899s-.146 1.848-.147 2.016c-.001.169.402 1.202.402 1.202l-.886.644-2.372.972-2.218-1.802-1.399.145-.613-1.738.689-1.482 1.731-1.124z" transform="matrix(1.76318 0 0 1.76283 133.11 330.853)"/><path d="M-32.347-82.492c-1.14 3.015-2.61 4.843-4.373 5.613-.93-2.734-.075-5.942 4.373-5.613z" transform="matrix(1.76318 0 0 1.76283 133.11 330.853)"/><path d="M-32.353-82.272c-3.162-.623-5.21-1.767-6.262-3.378 2.541-1.373 5.846-1.063 6.262 3.378zM-26.306-82.164c3.21.285 5.496-.243 6.956-1.496-2.057-2.028-5.318-2.652-6.956 1.496z" transform="matrix(1.76318 0 0 1.76283 133.11 330.853)"/><path d="M-26.296-82.16c1.936 2.576 3.857 3.922 5.765 4.169.131-2.886-1.586-5.727-5.765-4.17zM-27.305-80.586c2.413 2.137 3.6 4.16 3.693 6.083-2.887-.102-5.581-2.042-3.693-6.083z" transform="matrix(1.76318 0 0 1.76283 133.11 330.853)"/><path d="M-28.3-77.045c1.652 2.768 2.17 5.056 1.675 6.916-2.72-.973-4.699-3.638-1.674-6.916z" transform="matrix(1.76318 0 0 1.76283 133.11 330.853)"/><path d="M-29.46-77.224c.365 3.202-.105 5.5-1.321 6.992-2.079-2.006-2.785-5.25 1.32-6.992z" transform="matrix(1.76318 0 0 1.76283 133.11 330.853)"/></g><g fill="#f9d90f"><g stroke-width=".262"><path d="M-31.378-80.613a1.165 1.165 0 0 1-.458-.752c-.036-.247-.016-.406.096-.754.056-.177.1-.325.1-.33a.345.345 0 0 0-.099-.03c-.091-.018-.102-.012-.266.14-.56.516-1.07.764-1.42.688-.404-.088-.56-.65-.334-1.213.191-.479.55-.772 1.01-.824a.933.933 0 0 1 .439.042c.13.035.231.054.225.041a1.51 1.51 0 0 0-.22-.156c-.565-.359-.9-.773-.922-1.144-.016-.27.16-.528.462-.677a1.124 1.124 0 0 1 1.437.404c.142.229.179.41.179.881 0 .273.01.43.031.438.018.008.064.05.104.095l.071.08.28-.229c.286-.234.493-.377.724-.5.321-.17.699-.22.888-.114.415.232.413.986-.003 1.502-.338.419-.851.566-1.32.38a3.753 3.753 0 0 0-.331-.114l-.14-.038.216.275c.292.37.455.635.568.92.213.536.105.95-.295 1.127-.308.137-.711.082-1.022-.138z" transform="matrix(1.7209 0 0 1.72057 131.465 327.089)"/><path d="M-59.336-65.64a.649.73 0 0 1-.65.73.649.73 0 0 1-.648-.73.649.73 0 0 1 .649-.73.649.73 0 0 1 .649.73z" transform="matrix(1.59864 .63693 -.63705 1.59834 131.465 327.089)"/></g><g stroke-width=".255"><path d="M-28.657-84.003c.002.248.044.404.198.741.078.171.141.315.14.32 0 .005-.04.022-.087.036-.082.026-.094.02-.269-.116-.597-.47-1.11-.676-1.426-.574-.367.119-.43.688-.139 1.23.248.46.626.722 1.063.738a.81.81 0 0 0 .405-.075c.116-.045.209-.072.205-.059-.004.014-.086.09-.183.172-.478.4-.73.837-.698 1.207.023.268.225.51.53.635a.977.977 0 0 0 1.286-.512c.1-.237.108-.42.04-.887-.04-.271-.052-.427-.034-.437a.424.424 0 0 0 .083-.102l.055-.086.295.206c.301.21.515.336.75.44.324.145.685.164.847.045.354-.262.244-1.01-.22-1.49-.376-.389-.878-.496-1.29-.274-.092.05-.224.112-.292.138l-.126.049.163-.29c.219-.39.334-.665.399-.956.122-.548-.04-.95-.439-1.096-.308-.111-.677-.026-.906.188s-.353.519-.35.81z" transform="matrix(1.76318 0 0 1.76283 133.11 330.477)"/><path d="M-28.622-82.545a.635.732 32.565 0 1 .9-.408.635.732 32.565 0 1 .271.91.635.732 32.565 0 1-.9.408.635.732 32.565 0 1-.271-.91z" transform="matrix(1.76318 0 0 1.76283 133.11 330.477)"/></g><g stroke-width=".224"><path d="M-31.603-77.281c-.12-.228-.158-.391-.183-.775a6.262 6.262 0 0 0-.028-.361.306.306 0 0 0-.098.01c-.088.017-.096.027-.188.239-.315.722-.683 1.163-1.022 1.225-.393.072-.73-.417-.73-1.055 0-.542.217-.968.608-1.197a.84.84 0 0 1 .407-.13c.128-.016.226-.038.216-.048-.01-.01-.123-.04-.252-.067-.632-.13-1.078-.405-1.23-.759-.11-.256-.045-.577.171-.84.364-.443.994-.516 1.427-.165.208.168.305.331.472.791.097.267.163.416.184.416a.44.44 0 0 1 .126.052l.093.051.168-.333c.172-.34.306-.56.469-.77.225-.292.545-.487.752-.457.452.064.718.801.53 1.468-.152.54-.558.884-1.043.884-.108 0-.26.008-.335.018l-.138.018.29.184c.392.248.632.444.834.677.38.442.431.888.137 1.217a.948.948 0 0 1-.919.274 1.156 1.156 0 0 1-.718-.567z" transform="matrix(1.93975 .51978 -.5195 1.93888 97.464 361.016)"/><path d="M-31.259-79.217a.623.767 0 0 1-.623.767.623.767 0 0 1-.623-.767.623.767 0 0 1 .623-.767.623.767 0 0 1 .623.767z" transform="matrix(1.93975 .51978 -.5195 1.93888 97.464 361.016)"/></g><g stroke-width=".229"><path d="M-28.182-76.458c-.12-.228-.158-.39-.183-.775a6.272 6.272 0 0 0-.028-.36.306.306 0 0 0-.098.01c-.088.017-.096.027-.188.238-.315.723-.683 1.163-1.022 1.225-.392.072-.73-.416-.73-1.054 0-.543.217-.969.608-1.198a.84.84 0 0 1 .407-.13c.129-.016.226-.037.216-.048-.01-.01-.123-.04-.252-.066-.632-.13-1.078-.406-1.23-.76-.11-.256-.045-.577.172-.84.363-.443.993-.515 1.426-.165.208.168.306.332.473.792.096.266.162.415.184.415a.44.44 0 0 1 .126.052l.092.051.169-.333c.171-.34.305-.56.468-.77.225-.292.545-.487.752-.457.452.064.719.801.53 1.468-.152.54-.558.885-1.043.885-.108 0-.26.007-.335.017l-.138.018.29.184c.392.249.632.444.834.678.381.44.431.887.138 1.216a.948.948 0 0 1-.92.274 1.156 1.156 0 0 1-.718-.567z" transform="matrix(1.8813 -.55579 -.5556 -1.88072 94 29.974)"/><path d="M-82.333 7.207a.69.767 0 0 1-.69.766.69.767 0 0 1-.69-.766.69.767 0 0 1 .69-.767.69.767 0 0 1 .69.767z" transform="matrix(-.04988 -1.96048 -1.961 .04996 94 29.974)"/></g></g><path d="M-107.372 102.758h-.757v-.538h-.644v-.614h-.738v-3.9l-.841-1.47-.84 1.47v3.9h-.739v.614h-.644v.538h-.757v.794l5.96.017z" fill="#fff" stroke-width=".212" transform="matrix(3.77953 0 0 3.77953 565.385 -184.831)"/></g><path d="M114.511 296.058c11.445.037 25.52-2.3 32.114-5.708l14.48-1.283.289 17.668c-12.267 6.763-40.59 8.216-46.821 8.167-6.238.05-34.91-1.428-47.232-8.216l.16-17.68 14.51 1.306c6.594 3.392 21.099 5.746 32.531 5.746h-.03" fill="#f9d90f"/><path d="m67.34 306.686 14.934-3.416-14.883-2.13z" fill="#f9b60f"/><path d="m30.063 220.7 12.757 4.06-3.858 20.654-12.076 1.875s-2.036-10.86 3.177-26.6" fill="#f9d90f"/><path d="m26.886 247.29 7.845-10.824 4.231 8.948z" fill="#f9b60f"/><g fill="none" stroke="#000" stroke-width=".106"><path d="m-109.425-58.09 3.375 1.075-1.02 5.464-3.196.497s-.538-2.874.84-7.039v.004zM-99.562-35.34l3.976-.903M-108.187-53.935l1.116 2.384" transform="matrix(3.77953 0 0 3.77953 443.638 440.25)"/></g><path d="m161.394 306.735-14.933-3.416 14.883-2.13z" fill="#f9b60f"/><path d="m198.672 220.75-12.758 4.06 3.858 20.653 12.077 1.876s2.036-10.86-3.177-26.602" fill="#f9d90f"/><path d="m201.849 247.339-7.845-10.824-4.232 8.948z" fill="#f9b60f"/><g fill="none" stroke="#000" stroke-width=".106"><path d="m-64.814-58.076-3.375 1.074 1.02 5.464 3.195.497s.54-2.874-.84-7.039v.004zM-74.677-35.326l-3.976-.904M-66.052-53.922l-1.117 2.384M-87.081-38.151c3.028.01 6.752-.608 8.496-1.51l3.832-.34.076 4.675c-3.246 1.79-10.74 2.174-12.388 2.16-1.65.014-9.237-.377-12.497-2.173l.042-4.678 3.84.346c1.744.897 5.582 1.52 8.607 1.52h-.008" transform="matrix(3.77953 0 0 3.77953 443.638 440.25)"/></g><path d="m206.301 235.627-12.297.888c-.276 10.42-1.54 50.18-49.023 52.338l1.478 14.466c57.8.6 62.191-48.769 59.842-67.692" fill="#f9d90f"/><path d="m-62.795-54.14-3.254.235c-.073 2.757-.407 13.277-12.97 13.848l.39 3.827c15.293.159 16.455-12.903 15.834-17.91z" fill="none" stroke="#000" stroke-width=".106" transform="matrix(3.77953 0 0 3.77953 443.638 440.25)"/><path d="m22.433 235.578 12.298.888c.275 10.42 1.539 50.18 49.022 52.338l-1.478 14.466c-57.8.6-62.19-48.769-59.842-67.692" fill="#f9d90f"/><path d="m-111.444-54.153 3.254.235c.073 2.757.407 13.277 12.97 13.848l-.39 3.827c-15.293.159-16.455-12.903-15.834-17.91z" fill="none" stroke="#000" stroke-width=".106" transform="matrix(3.77953 0 0 3.77953 443.638 440.25)"/><g fill="#012a87" stroke-width=".026"><path d="M106.45 304.766c-.326.208-.767.264-1.276.239l-2.294-.117.196-2.863 2.276.122c.447.03.803.117 1.024.252.46.239.662.681.62 1.294-.031.527-.215.87-.553 1.073m-3.851 4.507.227-3.49 2.674.185c.865.068 1.509-.16 1.944-.601.454-.43.687-.993.718-1.63.055-.743-.135-1.35-.577-1.798-.423-.43-1.024-.656-1.779-.73l-3.82-.238-.528 8.216 1.135.074M111.285 302.399l2.797.03c.405.037.724.086.957.197.43.202.632.607.632 1.195 0 .553-.16.92-.473 1.141-.3.202-.736.294-1.257.294l-2.686-.03.024-2.827m-.043 7.278.025-3.507 2.625.037c.466 0 .81.037 1.049.153.386.178.576.553.595 1.067l.067 1.38c.019.33.025.534.043.668.037.098.055.202.104.277h1.411l-.025-.179c-.159-.086-.288-.25-.343-.503-.05-.159-.074-.398-.086-.699l-.024-1.097c-.019-.497-.105-.84-.295-1.03a1.47 1.47 0 0 0-.742-.528c.393-.208.687-.447.902-.742.202-.325.306-.736.306-1.238 0-.944-.386-1.589-1.171-1.938-.423-.19-.963-.288-1.6-.3l-3.945-.038-.03 8.242h1.135M120.58 307.954c-.504-.612-.774-1.379-.835-2.286-.055-1.141.166-2.012.687-2.6.527-.639 1.208-.945 2.097-.994.896-.049 1.632.24 2.178.803.558.552.877 1.319.932 2.276.03.919-.129 1.734-.552 2.452-.417.73-1.11 1.141-2.134 1.165-1.068.056-1.865-.196-2.374-.816m-1.35-5.187c-.527.815-.741 1.76-.686 2.9.08 1.233.46 2.251 1.177 3.018.798.766 1.853 1.152 3.153 1.078 1.392-.061 2.44-.588 3.152-1.557.577-.877.853-1.895.792-3.152-.08-1.122-.405-2.036-1.012-2.717-.767-.913-1.89-1.317-3.41-1.256-1.436.091-2.49.619-3.171 1.686M28.064 250.88l.19 1.029c-.46.092-.828.277-1.098.516-.485.453-.65 1.134-.485 2.06.074.392.215.778.393 1.085.368.626.846.877 1.454.779.447-.08.742-.251.883-.57.135-.313.233-.792.264-1.404l.055-1.16c.038-.717.116-1.28.276-1.594.251-.564.723-.914 1.429-1.03a2.457 2.457 0 0 1 1.987.466c.576.398.957 1.091 1.098 2.011.178.84.098 1.595-.233 2.275-.32.663-.933 1.067-1.871 1.239l-.184-1.042c.435-.16.76-.314.975-.528.368-.411.478-1.005.337-1.82-.11-.664-.337-1.093-.68-1.307-.338-.252-.675-.35-1.043-.288-.411.061-.681.288-.81.656-.08.245-.14.754-.196 1.533l-.055 1.201c-.03.564-.117 1.031-.307 1.35-.3.588-.81.95-1.551 1.066-.939.16-1.663-.055-2.178-.656-.527-.588-.852-1.294-1.018-2.17-.184-1.043-.049-1.852.368-2.502.423-.668 1.092-1.055 2-1.183M27.542 261.752l8.109-2.441 1.889 5.708-.988.313-1.545-4.69-2.466.742 1.429 4.334-.945.301-1.416-4.347-2.748.821 1.57 4.795-.969.277-1.92-5.813M31.136 271.648l7.458-3.954.798 1.391-5.128 5.42 7.49-1.28.772 1.38-7.44 3.93-.527-.914 4.391-2.311c.16-.093.405-.228.76-.417.35-.16.743-.375 1.135-.577l-7.458 1.269-.546-.969 5.091-5.402-.245.123c-.16.091-.436.227-.81.44a6.141 6.141 0 0 1-.822.442l-4.379 2.349-.54-.931M45.034 282.63c-.374-.084-.742-.3-1.104-.674l-1.576-1.625 2.122-1.944 1.589 1.62c.306.3.503.594.607.846.147.484 0 .926-.448 1.342-.405.374-.81.528-1.19.436m-5.992.754 2.6-2.385 1.847 1.87c.595.607 1.202.883 1.84.871a2.595 2.595 0 0 0 1.699-.742c.552-.49.815-1.067.815-1.686-.007-.602-.282-1.165-.79-1.692l-2.65-2.705-6.17 5.666.797.803M46.482 290.008l4.47-7.01 5.288 3.214-.552.835-4.343-2.6-1.343 2.121 3.993 2.422-.515.804-4-2.41-1.52 2.372 4.397 2.644-.527.828zM59.717 288.653l2.687.853c.38.115.656.263.84.429.343.325.435.79.233 1.354-.165.49-.417.81-.81.945-.35.061-.79.061-1.306-.098l-2.533-.81.89-2.673m-2.319 6.886 1.116-3.342 2.503.815c.447.118.772.277.932.442.306.276.399.687.245 1.196l-.374 1.33c-.086.325-.129.54-.166.638 0 .105 0 .215.02.288l1.318.43.08-.19c-.141-.11-.221-.313-.215-.564.03-.154.074-.399.16-.681l.319-1.067c.128-.466.178-.816.06-1.067a1.685 1.685 0 0 0-.539-.73c.417-.074.779-.202 1.086-.43.288-.25.533-.6.68-1.09.3-.89.135-1.632-.527-2.196-.331-.294-.804-.546-1.423-.779l-3.753-1.158-2.625 7.818 1.097.337M157.418 290.333c.794-.12 1.48-.07 2.101.155.915.305 1.522.998 1.89 2.047l-1.138.138c-.235-.568-.578-.96-1.046-1.184-.456-.21-1.032-.27-1.696-.184a2.646 2.646 0 0 0-1.848 1.089c-.441.653-.586 1.535-.416 2.666.142.935.471 1.732 1.026 2.27.51.548 1.274.752 2.276.63.75-.11 1.357-.398 1.79-.906.45-.482.592-1.222.463-2.181l-2.65.357-.12-.91 3.69-.498.638 4.373-.731.097-.436-1.014c-.315.449-.628.793-.901.99-.46.347-1.078.563-1.846.66-.997.134-1.901-.06-2.713-.603-.89-.685-1.454-1.688-1.65-3.071-.214-1.36.022-2.515.664-3.417.611-.872 1.485-1.37 2.653-1.516M165.751 289.848l2.655-.908c.364-.128.677-.166.947-.13.483.045.834.34 1.026.92.18.494.173.923-.047 1.22-.233.308-.593.529-1.111.71l-2.494.843-.976-2.655m2.513 6.86-1.228-3.328 2.47-.839c.462-.138.782-.212 1.02-.183.435.063.762.333.973.84l.535 1.267c.117.314.212.506.29.594.035.11.113.18.173.254l1.34-.466-.07-.179c-.197-.003-.385-.117-.522-.335-.101-.155-.195-.377-.332-.637l-.416-1.039c-.188-.45-.386-.73-.616-.9a2.104 2.104 0 0 0-.872-.255c.275-.308.477-.617.557-.984.087-.372.058-.79-.112-1.258-.32-.883-.931-1.373-1.801-1.45-.46-.045-.988.043-1.6.246l-3.727 1.251 2.85 7.804 1.093-.379M177.984 292.801l-4.578-6.947 5.224-3.198.555.838-4.28 2.626 1.408 2.124 3.952-2.443.519.813-3.952 2.443 1.552 2.34 4.355-2.674.556.82-5.317 3.258M182.32 280.748l1.377-1.459c.637-.65 1.305-.939 2.027-.84.722.075 1.451.468 2.224 1.17.211.169.397.387.59.63.335.453.53.85.651 1.244.102.493.07.94-.11 1.366-.109.213-.297.46-.579.757l-1.382 1.446-4.797-4.325m7.066 3.36c.976-1.036 1.205-2.167.67-3.458a5.86 5.86 0 0 0-1.472-1.984c-.85-.782-1.745-1.191-2.694-1.282-1.053-.1-1.956.265-2.75 1.103l-2.345 2.422 6.24 5.647 2.345-2.435M194.416 277.792l-7.22-4.419.613-.932 7.232 4.394-.62.97M197.37 272.867l-7.822-3.296 2.426-5.5.95.385-1.979 4.533 2.356.976 1.85-4.174.9.391-1.83 4.168 2.635 1.127 2.028-4.587.95.379-2.47 5.598M201.165 263.258l-8.257-1.985.3-1.276 7.706-2.447-6.7-1.607.263-1.001 8.259 1.935-.287 1.24-7.72 2.503 6.701 1.576-.259 1.062M200.701 252.718l.124-1.04c.478.021.884-.045 1.193-.205.607-.314.968-.926 1.077-1.839.044-.428.033-.803-.059-1.16-.165-.69-.544-1.077-1.163-1.15-.459-.057-.792.047-1.036.295-.22.284-.454.696-.636 1.282l-.4 1.078c-.259.706-.495 1.193-.745 1.464-.402.509-.957.676-1.661.614-.753-.093-1.36-.405-1.786-.989-.438-.535-.608-1.293-.48-2.223.089-.85.384-1.563.897-2.13.476-.519 1.204-.757 2.128-.642l-.105 1.04c-.453-.008-.817.065-1.084.244-.483.255-.757.808-.851 1.622-.08.674.004 1.129.255 1.477.252.293.574.483.954.52.404.044.725-.079.951-.387.164-.212.362-.674.634-1.424l.395-1.133c.193-.524.421-.925.684-1.208.469-.47 1.073-.662 1.827-.592.918.114 1.567.507 1.891 1.212.319.711.433 1.492.337 2.374-.122.996-.461 1.776-1.072 2.292-.61.528-1.362.698-2.269.608"/></g></svg>