<svg xmlns="http://www.w3.org/2000/svg" xmlns:xlink="http://www.w3.org/1999/xlink" width="900" height="600" viewBox="0 0 180 120"><defs><g id="d" transform="translate(0 -36)"><g id="c"><g id="b"><path d="M0-5v5h3z" fill="#fff" transform="rotate(18 0 -5)" id="a"/><use xlink:href="#a" transform="scale(-1 1)"/></g><use xlink:href="#b" transform="rotate(72)"/></g><use xlink:href="#b" transform="rotate(-72)"/><use xlink:href="#c" transform="rotate(144)"/></g></defs><g style="display:inline;opacity:1"><path style="fill:#cf142b;stroke-width:1" d="M0 0h180v120H0Z"/><path d="M0 80h180V0H0Z" style="fill:#00247d;stroke-width:1"/><path style="fill:#fc0;stroke-width:1" d="M0 0h180v40H0Z"/><g transform="translate(0 .242)"><use xlink:href="#d" transform="rotate(-70 105.507 -23.474) scale(1.0384)" width="100%" height="100%" style="stroke-width:.96302092"/><use xlink:href="#d" transform="rotate(-45.934 147.37 -62.402) scale(1.0384)" width="100%" height="100%" style="stroke-width:.96302092"/><use xlink:href="#d" transform="rotate(-30 205.59 -127.04) scale(1.0384)" width="100%" height="100%" style="stroke-width:.96302092"/><use xlink:href="#d" transform="rotate(-10 537.7 -472.587) scale(1.0384)" width="100%" height="100%" style="stroke-width:.96302092"/></g><g transform="matrix(-1 0 0 1 180.051 .242)" style="display:inline;opacity:1"><use xlink:href="#d" transform="rotate(-70 105.507 -23.474) scale(1.0384)" width="100%" height="100%" style="stroke-width:.96302092"/><use xlink:href="#d" transform="rotate(-45.934 147.37 -62.402) scale(1.0384)" width="100%" height="100%" style="stroke-width:.96302092"/><use xlink:href="#d" transform="rotate(-30 205.59 -127.04) scale(1.0384)" width="100%" height="100%" style="stroke-width:.96302092"/><use xlink:href="#d" transform="rotate(-10 537.7 -472.587) scale(1.0384)" width="100%" height="100%" style="stroke-width:.96302092"/></g></g></svg>