<svg xmlns="http://www.w3.org/2000/svg" xmlns:xlink="http://www.w3.org/1999/xlink" width="1200" height="600" viewBox="0 0 288 144" fill="#fff"><defs><path id="a" d="M0-.951.309 0-.5-.588h1L-.309 0z"/><path id="b" d="m0 0 .309.951L-.5.363h1l-.809.588z"/></defs><path fill="#ce1126" d="M0 0h288v144H0z"/><path fill="#002b7f" d="M0 0h144v72H0z"/><use xlink:href="#a" transform="matrix(20 0 0 20 72 69)"/><use xlink:href="#b" transform="matrix(16 0 0 16 50 21)"/><use xlink:href="#b" transform="matrix(16 0 0 16 72 3)"/><use xlink:href="#b" transform="matrix(15 0 0 15 94.5 18)"/><use xlink:href="#a" transform="matrix(10 0 0 10 83 46)"/></svg>