<?xml version="1.0" standalone="no"?>
<!DOCTYPE svg PUBLIC "-//W3C//DTD SVG 20010904//EN"
 "http://www.w3.org/TR/2001/REC-SVG-20010904/DTD/svg10.dtd">
<svg version="1.0" xmlns="http://www.w3.org/2000/svg"
 width="180.000000pt" height="180.000000pt" viewBox="0 0 180.000000 180.000000"
 preserveAspectRatio="xMidYMid meet">
<metadata>
Created by potrace 1.15, written by Peter Selinger 2001-2017
</metadata>
<g transform="translate(0.000000,180.000000) scale(0.100000,-0.100000)"
fill="#000000" stroke="none">
<path d="M745 1703 c-65 -8 -234 -46 -307 -69 l-78 -25 0 -124 0 -124 77 35
c167 76 373 115 506 94 175 -27 223 -91 234 -311 l6 -117 -199 -5 c-233 -5
-305 -20 -452 -92 -125 -62 -209 -141 -260 -243 -37 -75 -37 -77 -37 -196 0
-110 2 -126 27 -179 38 -80 116 -160 199 -201 93 -47 162 -59 289 -53 149 6
253 46 408 155 35 24 64 42 65 40 2 -1 10 -19 19 -38 60 -134 197 -187 379
-146 107 24 104 19 89 120 l-12 86 -27 -7 c-53 -14 -120 -8 -149 14 -53 39
-55 57 -62 578 -5 465 -6 482 -28 543 -54 151 -138 221 -309 257 -63 14 -296
19 -378 8z m435 -1019 c0 -175 -2 -198 -17 -211 -10 -8 -51 -36 -91 -63 -260
-174 -533 -98 -536 149 -1 213 176 312 572 320 l72 1 0 -196z"/>
</g>
</svg>
