<?xml version="1.0" standalone="no"?>
<!DOCTYPE svg PUBLIC "-//W3C//DTD SVG 20010904//EN"
 "http://www.w3.org/TR/2001/REC-SVG-20010904/DTD/svg10.dtd">
<svg version="1.0" xmlns="http://www.w3.org/2000/svg"
 width="150.000000pt" height="200.000000pt" viewBox="0 0 150.000000 200.000000"
 preserveAspectRatio="xMidYMid meet">
<metadata>
Created by potrace 1.15, written by Peter Selinger 2001-2017
</metadata>
<g transform="translate(0.000000,200.000000) scale(0.100000,-0.100000)"
fill="#000000" stroke="none">
<path d="M590 1695 c-85 -24 -136 -53 -200 -112 -84 -78 -102 -128 -108 -305
l-4 -138 204 0 205 0 6 138 c5 151 9 168 39 175 37 10 66 -9 75 -50 10 -49 10
-180 0 -216 -8 -31 -63 -60 -282 -151 -144 -60 -204 -105 -227 -171 -15 -42
-18 -81 -15 -241 2 -190 2 -191 32 -249 26 -51 38 -63 95 -94 58 -32 74 -36
155 -39 84 -4 94 -2 145 25 32 17 68 47 87 72 l33 43 0 -56 0 -56 211 0 210 0
-3 568 c-5 618 -5 629 -63 712 -37 53 -109 105 -182 132 -78 28 -329 36 -413
13z m225 -1100 c-7 -83 -11 -91 -47 -100 -19 -5 -32 -1 -46 13 -32 32 -39 169
-15 296 3 17 28 54 57 84 l51 54 3 -138 c2 -77 0 -171 -3 -209z"/>
</g>
</svg>
