<?xml version="1.0" standalone="no"?>
<!DOCTYPE svg PUBLIC "-//W3C//DTD SVG 20010904//EN"
 "http://www.w3.org/TR/2001/REC-SVG-20010904/DTD/svg10.dtd">
<svg version="1.0" xmlns="http://www.w3.org/2000/svg"
 width="150.000000pt" height="170.000000pt" viewBox="0 0 150.000000 170.000000"
 preserveAspectRatio="xMidYMid meet">
<metadata>
Created by potrace 1.15, written by Peter Selinger 2001-2017
</metadata>
<g transform="translate(0.000000,170.000000) scale(0.100000,-0.100000)"
fill="#000000" stroke="none">
<path d="M591 1445 c-123 -35 -221 -97 -272 -174 -23 -35 -29 -55 -29 -98 0
-96 41 -143 123 -143 57 0 97 19 122 56 18 28 18 26 2 193 -5 52 127 92 231
71 47 -10 65 -20 102 -59 54 -55 69 -97 77 -217 l6 -90 -52 -23 c-28 -12 -135
-51 -237 -86 -212 -74 -286 -110 -343 -168 -70 -70 -86 -115 -86 -242 0 -127
9 -151 83 -228 62 -63 126 -87 236 -87 137 0 219 33 342 136 l50 43 13 -34
c18 -50 59 -95 106 -116 56 -26 173 -25 259 1 l66 21 0 38 0 38 -67 7 c-41 4
-76 14 -89 24 -49 41 -49 41 -49 477 0 357 -2 416 -17 453 -36 95 -105 163
-200 199 -62 23 -305 28 -377 8z m355 -667 c-3 -50 -6 -147 -6 -215 l0 -124
-46 -45 c-126 -127 -324 -131 -387 -9 -25 50 -28 162 -4 217 26 61 100 132
180 172 70 36 228 94 256 95 11 1 13 -16 7 -91z"/>
</g>
</svg>
