<?xml version="1.0" encoding="UTF-8" standalone="no"?>
<!-- Created with Inkscape (http://www.inkscape.org/) -->

<svg
   xmlns:dc="http://purl.org/dc/elements/1.1/"
   xmlns:cc="http://creativecommons.org/ns#"
   xmlns:rdf="http://www.w3.org/1999/02/22-rdf-syntax-ns#"
   xmlns:svg="http://www.w3.org/2000/svg"
   xmlns="http://www.w3.org/2000/svg"
   version="1.1"
   width="55"
   height="55"
   viewBox="0 0 55 55"
   id="svg2"
   xml:space="preserve"><metadata
     id="metadata25"><rdf:RDF><cc:Work
         rdf:about=""><dc:format>image/svg+xml</dc:format><dc:type
           rdf:resource="http://purl.org/dc/dcmitype/StillImage" /><dc:title></dc:title></cc:Work></rdf:RDF></metadata><defs
     id="defs33" /><g
     transform="matrix(1.5,0,0,1.5,0.50000061,-27.999999)"
     id="g3065"><circle
       cx="29.207001"
       cy="25.863001"
       r="1.294"
       transform="matrix(3.09119,0,0,3.09119,-72.284389,-54.94745)"
       id="circle3892"
       style="fill:#ffffff;fill-opacity:1;stroke:none;display:inline" /><circle
       cx="29.207001"
       cy="25.863001"
       r="1.294"
       transform="matrix(3.09119,0,0,3.09119,-60.284389,-54.94745)"
       id="circle3892-5"
       style="fill:#ffffff;fill-opacity:1;stroke:none;display:inline" /><circle
       cx="29.207001"
       cy="25.863001"
       r="1.294"
       transform="matrix(3.09119,0,0,3.09119,-84.284389,-54.94745)"
       id="circle3892-1"
       style="fill:#ffffff;fill-opacity:1;stroke:none;display:inline" /><circle
       cx="29.207001"
       cy="25.863001"
       r="1.294"
       transform="matrix(3.09119,0,0,3.09119,-72.284389,-42.94745)"
       id="circle3892-4"
       style="fill:#ffffff;fill-opacity:1;stroke:none;display:inline" /><circle
       cx="29.207001"
       cy="25.863001"
       r="1.294"
       transform="matrix(3.09119,0,0,3.09119,-60.284389,-42.94745)"
       id="circle3892-5-6"
       style="fill:#ffffff;fill-opacity:1;stroke:none;display:inline" /><circle
       cx="29.207001"
       cy="25.863001"
       r="1.294"
       transform="matrix(3.09119,0,0,3.09119,-84.284389,-42.94745)"
       id="circle3892-1-0"
       style="fill:#ffffff;fill-opacity:1;stroke:none;display:inline" /><circle
       cx="29.207001"
       cy="25.863001"
       r="1.294"
       transform="matrix(3.09119,0,0,3.09119,-72.284389,-30.94745)"
       id="circle3892-0"
       style="fill:#ffffff;fill-opacity:1;stroke:none;display:inline" /><circle
       cx="29.207001"
       cy="25.863001"
       r="1.294"
       transform="matrix(3.09119,0,0,3.09119,-60.284389,-30.94745)"
       id="circle3892-5-9"
       style="fill:#ffffff;fill-opacity:1;stroke:none;display:inline" /><circle
       cx="29.207001"
       cy="25.863001"
       r="1.294"
       transform="matrix(3.09119,0,0,3.09119,-84.284389,-30.94745)"
       id="circle3892-1-7"
       style="fill:#ffffff;fill-opacity:1;stroke:none;display:inline" /></g></svg>