<?xml version="1.0" encoding="UTF-8" standalone="no"?>
<!-- Created with Inkscape (http://www.inkscape.org/) -->

<svg
   xmlns:dc="http://purl.org/dc/elements/1.1/"
   xmlns:cc="http://creativecommons.org/ns#"
   xmlns:rdf="http://www.w3.org/1999/02/22-rdf-syntax-ns#"
   xmlns:svg="http://www.w3.org/2000/svg"
   xmlns="http://www.w3.org/2000/svg"
   xmlns:sodipodi="http://sodipodi.sourceforge.net/DTD/sodipodi-0.dtd"
   xmlns:inkscape="http://www.inkscape.org/namespaces/inkscape"
   version="1.1"
   width="55"
   height="55"
   viewBox="0 0 55 55"
   id="svg2"
   xml:space="preserve"
   inkscape:version="0.92.3 (2405546, 2018-03-11)"
   sodipodi:docname="save-sound.svg"><sodipodi:namedview
     pagecolor="#ffffff"
     bordercolor="#666666"
     borderopacity="1"
     objecttolerance="10"
     gridtolerance="10"
     guidetolerance="10"
     inkscape:pageopacity="0"
     inkscape:pageshadow="2"
     inkscape:window-width="1269"
     inkscape:window-height="765"
     id="namedview27"
     showgrid="false"
     inkscape:zoom="4.2909091"
     inkscape:cx="21.658192"
     inkscape:cy="27.5"
     inkscape:window-x="67"
     inkscape:window-y="27"
     inkscape:window-maximized="0"
     inkscape:current-layer="svg2" /><metadata
     id="metadata25"><rdf:RDF><cc:Work
         rdf:about=""><dc:format>image/svg+xml</dc:format><dc:type
           rdf:resource="http://purl.org/dc/dcmitype/StillImage" /><dc:title /></cc:Work></rdf:RDF></metadata><defs
     id="defs33" /><g
     transform="matrix(0.55205508,0,0,0.55205508,44.618464,18.235971)"
     id="g4382"><g
       transform="translate(-80.093659,12.220029)"
       id="g4308"
       style="fill:none;stroke:#ffffff;stroke-opacity:1"><g
         id="g4310"
         style="fill:none;stroke:#ffffff;stroke-opacity:1"><path
           d="m 6.736,49.002 h 24.52 c 2.225,0 3.439,-1.447 3.439,-3.441 v -27.28 c 0,-1.73 -1.732,-3.441 -3.439,-3.441 h -4.389"
           id="path4312"
           style="fill:none;stroke:#ffffff;stroke-width:3.5;stroke-linecap:round;stroke-linejoin:round;stroke-opacity:1" /></g></g><g
       transform="translate(-80.093659,12.220029)"
       id="g4314"
       style="fill:none;stroke:#ffffff;stroke-opacity:1"><g
         id="g4316"
         style="fill:none;stroke:#ffffff;stroke-opacity:1"><path
           d="m 26.867,38.592 c 0,1.836 -1.345,3.201 -3.441,4.047 L 6.736,49.002 V 14.84 l 16.69,-8.599 c 2.228,-0.394 3.441,0.84 3.441,2.834 v 29.517 z"
           id="path4318"
           style="fill:none;stroke:#ffffff;stroke-width:3.5;stroke-linecap:round;stroke-linejoin:round;stroke-opacity:1" /></g></g><path
       d="m -70.669659,54.827029 c 0,0 -1.351,-0.543 -2.702,-0.543 -1.351,0 -2.703,0.543 -2.703,0.543"
       id="path4320"
       style="fill:none;stroke:#ffffff;stroke-width:2.25;stroke-linecap:round;stroke-linejoin:round;stroke-opacity:1" /><path
       d="m -70.669659,44.226029 c 0,0 -1.239,-0.543 -2.815,-0.543 -1.577,0 -2.59,0.543 -2.59,0.543"
       id="path4322"
       style="fill:none;stroke:#ffffff;stroke-width:2.25;stroke-linecap:round;stroke-linejoin:round;stroke-opacity:1" /><path
       d="m -70.669659,33.898029 c 0,0 -1.125,-0.544 -2.927,-0.544 -1.802,0 -2.478,0.544 -2.478,0.544"
       id="path4324"
       style="fill:none;stroke:#ffffff;stroke-width:2.25;stroke-linecap:round;stroke-linejoin:round;stroke-opacity:1" /><line
       style="fill:none;stroke:#ffffff;stroke-width:2.25;stroke-linecap:round;stroke-linejoin:round;stroke-opacity:1"
       x1="-66.884659"
       x2="-66.884659"
       y1="58.753029"
       y2="23.725029"
       id="line4326" /></g><g
     transform="matrix(1.1623273,0,0,1.1623273,1.5747266,-12.63995)"
     id="g3882"
     style="fill:none;stroke:#ffffff;stroke-width:2.15085721;stroke-miterlimit:4;stroke-opacity:1;stroke-dasharray:none;display:inline"><g
       id="g3884"
       style="fill:none;stroke:#ffffff;stroke-width:2.15085721;stroke-miterlimit:4;stroke-opacity:1;stroke-dasharray:none"><polygon
         points="15.204,35.189 43.041,35.189 43.041,21.577 35.281,13.812 15.204,13.812 "
         id="polygon3886"
         style="fill:none;stroke:#ffffff;stroke-width:2.15085721;stroke-miterlimit:4;stroke-opacity:1;stroke-dasharray:none" /><polyline
         id="polyline3888"
         points="35.281,13.812 35.281,21.577 43.041,21.577    "
         style="fill:none;stroke:#ffffff;stroke-width:2.15085721;stroke-miterlimit:4;stroke-opacity:1;stroke-dasharray:none" /></g></g><g
     transform="matrix(0,1,1,0,5.8287336,-30.080438)"
     id="g4770"><g
       transform="translate(34.0803,-1006.42)"
       id="g4772"><polyline
         transform="matrix(-0.469241,0.469241,-0.469241,-0.469241,66.2906,1019.03)"
         style="fill:none;stroke:#ffffff;stroke-width:3.5;stroke-linecap:round;stroke-linejoin:round"
         points="51.562,15.306 41.17,16.188 42.053,5.794"
         id="polyline4774" /><path
         d="m 39.363241,1033.1291 -0.05636,9.9115 -8.750608,0.067"
         id="path4776"
         style="fill:none;stroke:#ffffff;stroke-width:2.5;stroke-linecap:round;stroke-linejoin:round;stroke-miterlimit:4;stroke-opacity:1;stroke-dasharray:none" /></g></g><g
     id="Sounds-V1"
     style="fill:#ffffff;fill-rule:evenodd;stroke:none;stroke-width:1"
     transform="translate(21.461864,7.1779659)"><path
       id="Combined-Shape"
       d="m 12.63078,13.637142 c -0.150496,0 -0.305212,-0.03959 -0.445862,-0.123025 -0.417732,-0.248878 -0.556976,-0.790472 -0.309431,-1.210454 0.471179,-0.803198 0.471179,-1.798712 0,-2.6004961 -0.247545,-0.4213963 -0.108301,-0.9629896 0.309431,-1.2118679 0.421952,-0.2460502 0.959237,-0.1074702 1.203969,0.3110979 0.797488,1.3575181 0.797488,3.0431041 0,4.4006221 -0.163155,0.279988 -0.457115,0.434123 -0.758107,0.434123 z m 2.625856,1.418182 c -0.150496,0 -0.306618,-0.03959 -0.445862,-0.123025 -0.417732,-0.248878 -0.556976,-0.790471 -0.309431,-1.210453 0.98596,-1.677101 0.98596,-3.7614576 0,-5.4371444 -0.247545,-0.4199822 -0.108301,-0.9629895 0.309431,-1.2118679 0.419139,-0.2446361 0.956424,-0.1074702 1.203969,0.3110979 1.313676,2.2314208 1.313676,5.0058494 0,7.2372694 -0.164561,0.279988 -0.457114,0.434123 -0.758107,0.434123 z M 10.378529,6.6785877 V 15.32004 c 0,1.023796 -1.2067822,1.559733 -1.9592628,0.869661 L 6.7947522,14.697845 C 6.2194914,14.170392 5.4698239,13.877677 4.6906198,13.877677 H 4.4065056 C 3.6301145,13.877677 3,13.245583 3,12.463596 V 9.5505875 C 3,8.7700145 3.6301145,8.1365059 4.4065056,8.1365059 h 0.2686426 c 0.7792041,0 1.5288717,-0.2927149 2.1041325,-0.8201674 L 8.4192662,5.8103416 C 9.1717468,5.1202698 10.378529,5.6562067 10.378529,6.6785877 Z"
       inkscape:connector-curvature="0"
       style="fill:#ffffff" /></g></svg>