<?xml version="1.0" standalone="no"?>
<!DOCTYPE svg PUBLIC "-//W3C//DTD SVG 20010904//EN"
 "http://www.w3.org/TR/2001/REC-SVG-20010904/DTD/svg10.dtd">
<svg version="1.0" xmlns="http://www.w3.org/2000/svg"
 width="44pt" height="44pt" viewBox="0 0 55.000000 55.000000"
 preserveAspectRatio="xMidYMid meet">
<metadata>
Created by potrace 1.11, written by Peter Selinger 2001-2013
</metadata>
<g transform="translate(0.000000,55.000000) scale(0.100000,-0.100000)"
fill="#ffffff" stroke="none">
<path d="M144 509 c-48 -14 -101 -79 -110 -134 -15 -106 17 -180 96 -217 46
-22 49 -25 52 -67 2 -29 9 -48 21 -55 15 -9 26 -2 73 47 44 45 63 57 87 57 48
0 112 43 136 93 23 48 28 128 10 174 -14 38 -57 83 -96 99 -37 16 -218 18
-269 3z m265 -37 c52 -26 74 -63 78 -129 7 -98 -53 -173 -138 -173 -33 0 -43
-6 -81 -50 -24 -27 -46 -50 -50 -50 -5 0 -8 23 -8 50 0 46 -2 50 -24 50 -34 0
-88 40 -109 80 -24 47 -19 135 11 177 35 49 74 63 187 63 76 0 108 -4 134 -18z"/>
</g>
</svg>
