<?xml version="1.0" encoding="utf-8"?>
<!DOCTYPE svg PUBLIC "-//W3C//DTD SVG 1.1//EN" "http://www.w3.org/Graphics/SVG/1.1/DTD/svg11.dtd" [
  <!ENTITY fill_color "#FFFFFF">
  <!ENTITY stroke_color "#000000">
]>
<svg
   xmlns="http://www.w3.org/2000/svg"
   version="1.1"
   width="50"
   height="50"
   viewBox="0 0 50 50">
<path
   d="m 22.25607,16.76821 c 0,-3.658573 0,-7.3171466 0,-10.9757199 7.317147,0 14.634293,0 21.95144,0 0,5.4878599 0,10.9757199 0,16.4635799 -3.658573,0 -7.317147,0 -10.97572,0 0,-1.829287 0,-3.658573 0,-5.48786 1.829287,0 3.658573,0 5.48786,0 0,-1.829287 0,-3.658573 0,-5.48786 -3.658573,0 -7.317147,0 -10.97572,0 0,3.658573 0,7.317147 0,10.97572 -3.658573,0 -7.317147,0 -10.97572,0 0,3.658573 0,7.317147 0,10.97572 -1.829287,0 -3.658573,0 -5.48786,0 0,1.829287 0,3.658573 0,5.48786 3.658573,0 7.317147,0 10.97572,0 0,-3.658573 0,-7.317147 0,-10.97572 7.317147,0 14.634293,0 21.95144,0 0,5.48786 0,10.97572 0,16.46358 -1.829287,0 -3.658573,0 -5.48786,0 0,-3.658573 0,-7.317147 0,-10.97572 -3.658573,0 -7.317147,0 -10.97572,0 0,1.829287 0,3.658573 0,5.48786 1.829287,0 3.658573,0 5.48786,0 0,1.829287 0,3.658573 0,5.48786 0,0 -23.7807266,0 -27.4392999,0 0,-5.48786 0,-10.97572 0,-16.46358 1.8292866,0 3.6585733,0 5.4878599,0 0,-5.48786 0,-10.97572 0,-16.46358 -1.8292866,0 -3.6585733,0 -5.4878599,0 0,-1.8292866 0,-3.6585733 0,-5.4878599 3.6585733,0 7.3171469,0 10.9757199,0 0,3.6585733 0,7.3171469 0,10.9757199 1.829287,0 3.658573,0 5.48786,0 z"
   id="path3037"
   style="fill:&fill_color;;fill-opacity:1;stroke:&stroke_color;;stroke-width:2.5;stroke-linecap:square;stroke-linejoin:miter;stroke-miterlimit:4;stroke-opacity:1;stroke-dasharray:none" />
<path
   style="fill:#ffffff;fill-opacity:1;stroke:#282828;stroke-width:1.74102712;stroke-linecap:round;stroke-linejoin:round;stroke-miterlimit:4;stroke-opacity:1;stroke-dasharray:none"
   id="rect3894"
   d="m 35.23406,25.19842 c -1.120579,0 -2.040262,0.919683 -2.040262,2.040262 l 0,4.678998 -3.318825,-3.318825 c -0.793214,-0.791525 -2.064841,-0.793209 -2.856365,0 -0.791524,0.793215 -0.793181,2.092046 0,2.883568 l 3.346027,3.318825 -4.733402,0 c -1.120579,0 -2.040263,0.919683 -2.040263,2.040263 0,1.120577 0.919684,2.013056 2.040263,2.013056 l 4.7062,0 -3.318825,3.318824 c -0.791523,0.793212 -0.793181,2.092045 0,2.883568 0.793214,0.791522 2.092046,0.766009 2.883567,-0.02721 l 3.291623,-3.318822 0,4.733405 c 0,1.120578 0.919683,2.013057 2.040262,2.013057 1.120579,0 2.013058,-0.892479 2.013058,-2.013057 l 0,-4.760608 3.37323,3.346025 c 0.793212,0.791524 2.064842,0.793214 2.856362,0 0.791524,-0.793211 0.793218,-2.064841 0,-2.856362 l -3.346025,-3.318824 4.706201,0 c 1.120579,0 2.013058,-0.89248 2.013058,-2.013058 0,-1.12058 -0.892479,-2.040264 -2.013058,-2.040264 l -4.733403,0 3.346025,-3.37323 c 0.791523,-0.793212 0.793216,-2.037637 0,-2.829162 -0.793213,-0.791521 -2.064842,-0.82042 -2.856364,-0.0272 l -3.346026,3.37323 0,-4.706199 c 0,-1.120579 -0.892479,-2.040264 -2.013058,-2.040264 z" />
 </svg>