<?xml version="1.0" encoding="UTF-8" standalone="no"?>
<svg
   xmlns:dc="http://purl.org/dc/elements/1.1/"
   xmlns:cc="http://creativecommons.org/ns#"
   xmlns:rdf="http://www.w3.org/1999/02/22-rdf-syntax-ns#"
   xmlns:svg="http://www.w3.org/2000/svg"
   xmlns="http://www.w3.org/2000/svg"
   xmlns:sodipodi="http://sodipodi.sourceforge.net/DTD/sodipodi-0.dtd"
   xmlns:inkscape="http://www.inkscape.org/namespaces/inkscape"
   version="1.1"
   x="0px"
   y="0px"
   viewBox="0 0 60 125"
   enable-background="new 0 0 60 100"
   xml:space="preserve"
   id="svg2"
   inkscape:version="0.91 r13725"
   sodipodi:docname="audio.svg"><metadata
     id="metadata16"><rdf:RDF><cc:Work
         rdf:about=""><dc:format>image/svg+xml</dc:format><dc:type
           rdf:resource="http://purl.org/dc/dcmitype/StillImage" /></cc:Work></rdf:RDF></metadata><defs
     id="defs14" /><sodipodi:namedview
     pagecolor="#ffffff"
     bordercolor="#666666"
     borderopacity="1"
     objecttolerance="10"
     gridtolerance="10"
     guidetolerance="10"
     inkscape:pageopacity="0"
     inkscape:pageshadow="2"
     inkscape:window-width="939"
     inkscape:window-height="1011"
     id="namedview12"
     showgrid="false"
     inkscape:zoom="5.3400704"
     inkscape:cx="20.4287"
     inkscape:cy="34.73087"
     inkscape:window-x="737"
     inkscape:window-y="18"
     inkscape:window-maximized="0"
     inkscape:current-layer="svg2" /><path
     d="m 52,50 0,14 c 0,9.757 -8.242,18 -18,18 l 0,0 -8,0 C 16.243,82 8,73.757 8,64 L 8,50 0,50 0,64 c 0,14.094 11.906,26 26,26 l 0,14 -17,0 0,8 42,0 0,-8 -17,0 0,-14 0,0 C 48.094,90 60,78.094 60,64 l 0,-14 -8,0 z"
     id="path4"
     inkscape:connector-curvature="0"
     style="fill:#f9f9f9;stroke:#000000" /><path
     style="fill:#ffffff;fill-rule:evenodd;stroke:#000000;stroke-width:1px;stroke-linecap:butt;stroke-linejoin:miter;stroke-opacity:1"
     d="m 45.879545,22.098735 0,44.00691 -13.857495,3.183479 0.468158,-49.43755 12.640283,1.779002"
     id="path4134"
     inkscape:connector-curvature="0" /><path
     d="m 26,76 8,0 c 5.714,0 10.788,-4.483 11.804,-10 l -11.887,0 0,-4 12.083,0 0,-4 -12.083,0 0,-4 12.083,0 0,-4 -12.083,0 0,-4 12.083,0 0,-4 -12.083,0 0,-4 12.083,0 0,-4 -12.083,0 0,-4 12.083,0 0,-4 -12.083,0 0,-4 11.887,0 C 44.788,16.483 39.714,12 34,12 l -8,0 c -6.393,0 -12,5.607 -12,12 l 0,40 c 0,6.393 5.607,12 12,12 z"
     id="path6"
     inkscape:connector-curvature="0"
     style="fill:#f9f9f9;stroke:#000000" /></svg>