<?xml version="1.0" encoding="UTF-8" standalone="no"?>
<svg
   xmlns:dc="http://purl.org/dc/elements/1.1/"
   xmlns:cc="http://creativecommons.org/ns#"
   xmlns:rdf="http://www.w3.org/1999/02/22-rdf-syntax-ns#"
   xmlns:svg="http://www.w3.org/2000/svg"
   xmlns="http://www.w3.org/2000/svg"
   xmlns:sodipodi="http://sodipodi.sourceforge.net/DTD/sodipodi-0.dtd"
   xmlns:inkscape="http://www.inkscape.org/namespaces/inkscape"
   version="1.1"
   x="0px"
   y="0px"
   viewBox="0 0 100 125"
   enable-background="new 0 0 100 100"
   xml:space="preserve"
   id="svg2"
   inkscape:version="0.91 r13725"
   sodipodi:docname="close.svg"><metadata
     id="metadata18"><rdf:RDF><cc:Work
         rdf:about=""><dc:format>image/svg+xml</dc:format><dc:type
           rdf:resource="http://purl.org/dc/dcmitype/StillImage" /></cc:Work></rdf:RDF></metadata><defs
     id="defs16" /><sodipodi:namedview
     pagecolor="#ffffff"
     bordercolor="#666666"
     borderopacity="1"
     objecttolerance="10"
     gridtolerance="10"
     guidetolerance="10"
     inkscape:pageopacity="0"
     inkscape:pageshadow="2"
     inkscape:window-width="1346"
     inkscape:window-height="1011"
     id="namedview14"
     showgrid="false"
     inkscape:zoom="6.783917"
     inkscape:cx="44.334159"
     inkscape:cy="84.422511"
     inkscape:window-x="330"
     inkscape:window-y="18"
     inkscape:window-maximized="0"
     inkscape:current-layer="svg2" /><rect
     style="fill:#ffffff;fill-opacity:1;stroke:#1a1a1a;stroke-width:1.0007385;stroke-opacity:1"
     id="rect4146"
     width="88.870407"
     height="88.444481"
     x="6.6428337"
     y="22.699219" /><g
     id="g4"
     transform="matrix(1.0014775,0,0,1,-0.02563094,16.26032)"><path
       d="m 83.904,100 -67.579,0 C 7.45,100 0.23,92.78 0.23,83.904 l 0,-67.577 C 0.23,7.452 7.45,0.232 16.325,0.232 l 67.579,0 c 8.875,0 16.096,7.22 16.096,16.095 l 0,67.577 C 100,92.78 92.779,100 83.904,100 Z M 16.325,9.514 c -3.757,0 -6.813,3.056 -6.813,6.813 l 0,67.577 c 0,3.758 3.056,6.814 6.813,6.814 l 67.579,0 c 3.757,0 6.814,-3.057 6.814,-6.814 l 0,-67.577 c 0,-3.757 -3.058,-6.813 -6.814,-6.813 l -67.579,0 z"
       id="path6"
       inkscape:connector-curvature="0" /></g><polygon
     points="30.48,79.806 20.424,69.751 40.059,50.115 20.424,30.483 30.48,20.427 50.113,40.061 69.749,20.427 79.802,30.483 60.171,50.115 79.802,69.751 69.749,79.806 50.113,60.172 "
     id="polygon8"
     transform="matrix(1.0014775,0,0,1,-0.02563094,16.26032)" /></svg>