<svg xmlns="http://www.w3.org/2000/svg" width="166.046" height="131.938" viewBox="0 0 166.046 131.938">
  <path id="Subtraction_2" data-name="Subtraction 2" d="M-4323.433-362.062a50.872,50.872,0,0,1-18.072-3.307,51.8,51.8,0,0,1-15.75-9.449,35.885,35.885,0,0,1-12.878,2.378,36.166,36.166,0,0,1-19.355-5.6,36.533,36.533,0,0,1-13.162-14.547h33.15a1.5,1.5,0,0,0,1.5-1.5,1.5,1.5,0,0,0-1.5-1.5h-34.482a36.059,36.059,0,0,1-1.545-5h19.028a1.5,1.5,0,0,0,1.5-1.5,1.5,1.5,0,0,0-1.5-1.5h-19.588a36.643,36.643,0,0,1-.368-5.176,36.364,36.364,0,0,1,36.323-36.323,36.177,36.177,0,0,1,5.121.365c.092-.129.2-.251.3-.37l.006-.007.014-.016c.079-.091.16-.186.234-.282a30.064,30.064,0,0,1-.487-4.879,28.94,28.94,0,0,1,28.9-28.91c.756,0,1.54.032,2.331.094a40.055,40.055,0,0,1,6.294-6.277,39.744,39.744,0,0,1,7.451-4.687A39.4,39.4,0,0,1-4302.677-494a39.4,39.4,0,0,1,17.29,3.947,39.722,39.722,0,0,1,7.45,4.687,40.106,40.106,0,0,1,6.293,6.277c.8-.063,1.561-.094,2.316-.094a28.935,28.935,0,0,1,7.327.939,28.767,28.767,0,0,1,6.637,2.659H-4277.5a1.5,1.5,0,0,0-1.5,1.5,1.5,1.5,0,0,0,1.5,1.5h26a1.5,1.5,0,0,0,.456-.071,29.2,29.2,0,0,1,4.078,4.071H-4273.5a1.5,1.5,0,0,0-1.5,1.5,1.5,1.5,0,0,0,1.5,1.5h28.693a28.792,28.792,0,0,1,4.4,15.313,28.163,28.163,0,0,1-2.064,10.613,29.358,29.358,0,0,1-5.611,8.845,35.836,35.836,0,0,1,7.675,22.053,36.364,36.364,0,0,1-36.323,36.322,35.883,35.883,0,0,1-12.878-2.378,51.812,51.812,0,0,1-15.745,9.449A50.867,50.867,0,0,1-4323.433-362.062Zm58.933-43.524a3.5,3.5,0,0,0-3.5,3.5,3.5,3.5,0,0,0,3.5,3.5,3.5,3.5,0,0,0,3.5-3.5A3.5,3.5,0,0,0-4264.5-405.586Zm-106-29a3.5,3.5,0,0,0-3.5,3.5,3.5,3.5,0,0,0,3.5,3.5,3.5,3.5,0,0,0,3.5-3.5A3.5,3.5,0,0,0-4370.5-434.586Z" transform="translate(4406.456 494)" fill="#fcffa8"/>
</svg>
