<?xml version="1.0" encoding="UTF-8" standalone="no"?>
<svg
   xmlns:dc="http://purl.org/dc/elements/1.1/"
   xmlns:cc="http://creativecommons.org/ns#"
   xmlns:rdf="http://www.w3.org/1999/02/22-rdf-syntax-ns#"
   xmlns:svg="http://www.w3.org/2000/svg"
   xmlns="http://www.w3.org/2000/svg"
   xmlns:sodipodi="http://sodipodi.sourceforge.net/DTD/sodipodi-0.dtd"
   xmlns:inkscape="http://www.inkscape.org/namespaces/inkscape"
   version="1.1"
   width="22"
   height="22"
   viewBox="0 0 22 22"
   id="svg5047"
   xml:space="preserve"
   inkscape:version="0.48.4 r9939"
   sodipodi:docname="entry-cancel.svg"><defs
     id="defs7" /><sodipodi:namedview
     pagecolor="#ffffff"
     bordercolor="#666666"
     borderopacity="1"
     objecttolerance="10"
     gridtolerance="10"
     guidetolerance="10"
     inkscape:pageopacity="0"
     inkscape:pageshadow="2"
     inkscape:window-width="640"
     inkscape:window-height="480"
     id="namedview5"
     showgrid="false"
     inkscape:zoom="10.727273"
     inkscape:cx="11"
     inkscape:cy="11"
     inkscape:window-x="0"
     inkscape:window-y="0"
     inkscape:window-maximized="0"
     inkscape:current-layer="svg5047" /><g
     transform="matrix(0.48888889,0,0,0.48888889,-2.4723111,-2.4703556)"
     id="dialog-cancel"
     style="fill:#000000">
	<path
   d="m 27.557,5.053 c -12.43,0 -22.5,10.076 -22.5,22.497 0,12.432 10.07,22.503 22.5,22.503 12.431,0 22.5,-10.071 22.5,-22.503 0,-12.421 -10.07,-22.497 -22.5,-22.497 z m 10.199,28.159 c 1.254,1.256 1.257,3.291 0,4.545 -0.628,0.629 -1.451,0.943 -2.274,0.943 -0.822,0 -1.644,-0.314 -2.27,-0.94 l -5.76,-5.761 -5.76,5.761 c -0.627,0.626 -1.449,0.94 -2.271,0.94 -0.823,0 -1.647,-0.314 -2.275,-0.943 -1.254,-1.254 -1.254,-3.289 0.004,-4.545 l 5.758,-5.758 -5.758,-5.758 c -1.258,-1.254 -1.258,-3.292 -0.004,-4.546 1.255,-1.254 3.292,-1.259 4.546,0 l 5.76,5.759 5.76,-5.759 c 1.252,-1.259 3.288,-1.254 4.544,0 1.257,1.254 1.254,3.292 0,4.546 l -5.758,5.758 5.758,5.758 z"
   id="path5050"
   style="fill:#000000" />
</g></svg>