<svg xmlns="http://www.w3.org/2000/svg" xmlns:xlink="http://www.w3.org/1999/xlink" width="60" height="60" viewBox="0 0 60 60">
  <defs>
    <clipPath id="clip-path">
      <rect id="Rectangle_62" data-name="Rectangle 62" width="46" height="46" transform="translate(272 114)" fill="#fff" opacity="0.13"/>
    </clipPath>
  </defs>
  <g id="Group_22" data-name="Group 22" transform="translate(-265 -107)">
    <rect id="Rectangle_63" data-name="Rectangle 63" width="60" height="60" transform="translate(265 107)" fill="none"/>
    <g id="Mask_Group_11" data-name="Mask Group 11" clip-path="url(#clip-path)">
      <path id="file-export" d="M30.669,9.736a1.911,1.911,0,0,0-.559-1.35L22.291.559A1.915,1.915,0,0,0,20.933,0h-.487V10.223H30.669ZM45.6,24.6l-7.643-7.7a1.281,1.281,0,0,0-2.188.9V23H30.661v5.112h5.112v5.207a1.281,1.281,0,0,0,2.188.9L45.6,26.516A1.359,1.359,0,0,0,45.6,24.6Zm-30.27,2.236V24.28A1.282,1.282,0,0,1,16.613,23H30.669V12.779H19.807a1.922,1.922,0,0,1-1.917-1.917V0H1.917A1.912,1.912,0,0,0,0,1.917V38.976a1.912,1.912,0,0,0,1.917,1.917H28.753a1.912,1.912,0,0,0,1.917-1.917V28.114H16.613A1.282,1.282,0,0,1,15.335,26.836Z" transform="translate(272 116.554)" fill="#fff"/>
    </g>
  </g>
</svg>
