<svg xmlns="http://www.w3.org/2000/svg" xmlns:xlink="http://www.w3.org/1999/xlink" width="37.275" height="35.847" viewBox="0 0 37.275 35.847">
  <defs>
    <filter id="Polygon_4" x="0" y="0" width="37.275" height="35.847" filterUnits="userSpaceOnUse">
      <feOffset dy="3" input="SourceAlpha"/>
      <feGaussianBlur stdDeviation="3" result="blur"/>
      <feFlood flood-color="#ffa000" flood-opacity="0.549"/>
      <feComposite operator="in" in2="blur"/>
      <feComposite in="SourceGraphic"/>
    </filter>
  </defs>
  <g transform="matrix(1, 0, 0, 1, 0, 0)" filter="url(#Polygon_4)">
    <g id="Polygon_4-2" data-name="Polygon 4" transform="translate(9 6)" fill="#ffa000">
      <path d="M 15.15009117126465 17.24905967712402 L 9.776707649230957 13.64885520935059 L 9.637557983398438 13.55561542510986 L 9.498408317565918 13.64885520935059 L 4.125025272369385 17.24905967712402 L 5.978218078613281 11.17190551757813 L 6.029498100280762 11.00374507904053 L 5.888587951660156 10.89861488342285 L 0.7289143204689026 7.049005031585693 L 7.234387874603271 6.887064933776855 L 7.404947757720947 6.882824897766113 L 7.463168144226074 6.722455024719238 L 9.637557983398438 0.7326688766479492 L 11.8119478225708 6.722455024719238 L 11.87016773223877 6.882824897766113 L 12.04072761535645 6.887064933776855 L 18.54620170593262 7.049005031585693 L 13.38652801513672 10.89861488342285 L 13.24561786651611 11.00374507904053 L 13.29689788818359 11.17190551757813 L 15.15009117126465 17.24905967712402 Z" stroke="none"/>
      <path d="M 9.637557983398438 1.465286254882813 L 7.698158264160156 6.807755470275879 L 7.581727981567383 7.128495216369629 L 7.240608215332031 7.136995315551758 L 1.457857131958008 7.28094482421875 L 6.038087844848633 10.69823455810547 L 6.319908142089844 10.90850448608398 L 6.217348098754883 11.24482536315918 L 4.568835258483887 16.6507682800293 L 9.359248161315918 13.44116497039795 L 9.637557983398438 13.25469493865967 L 9.915867805480957 13.44116497039795 L 14.7062816619873 16.6507682800293 L 13.05776786804199 11.24482536315918 L 12.95520782470703 10.90850448608398 L 13.23702812194824 10.69823455810547 L 17.81725883483887 7.28094482421875 L 12.03450775146484 7.136995315551758 L 11.69338798522949 7.128495216369629 L 11.57695770263672 6.807755470275879 L 9.637557983398438 1.465286254882813 M 9.637557983398438 -5.7220458984375e-06 L 12.04694747924805 6.637145042419434 L 19.27511787414551 6.817074775695801 L 13.5360279083252 11.09898567199707 L 15.59389781951904 17.84732437133789 L 9.637557983398438 13.85654449462891 L 3.681218147277832 17.84732437133789 L 5.73908805847168 11.09898567199707 L -1.9073486328125e-06 6.817074775695801 L 7.228167533874512 6.637145042419434 L 9.637557983398438 -5.7220458984375e-06 Z" stroke="none"/>
    </g>
  </g>
</svg>
