<svg xmlns="http://www.w3.org/2000/svg" width="54" height="54" viewBox="0 0 54 54">
  <g id="Categories_button" data-name="Categories button" transform="translate(-418 -281.608)">
    <rect id="Rectangle_37" data-name="Rectangle 37" width="54" height="54" transform="translate(418 281.608)" fill="none"/>
    <path id="Subtraction_1" data-name="Subtraction 1" d="M22.5,11H.5a.5.5,0,0,1-.5-.5V.5A.5.5,0,0,1,.5,0h22a.5.5,0,0,1,.5.5v10A.5.5,0,0,1,22.5,11ZM16.291,5.177a.5.5,0,0,0-.5.5V8.559a.5.5,0,0,0,.5.5h3.463a.5.5,0,0,0,.5-.5V5.676a.5.5,0,0,0-.5-.5Zm-6.522,0a.5.5,0,0,0-.5.5V8.559a.5.5,0,0,0,.5.5h3.463a.5.5,0,0,0,.5-.5V5.676a.5.5,0,0,0-.5-.5Zm-6.522,0a.5.5,0,0,0-.5.5V8.559a.5.5,0,0,0,.5.5H6.71a.5.5,0,0,0,.5-.5V5.676a.5.5,0,0,0-.5-.5Z" transform="translate(421 289.608)" fill="#fff"/>
    <path id="Subtraction_1-2" data-name="Subtraction 1" d="M22.5,11H.5a.5.5,0,0,1-.5-.5V.5A.5.5,0,0,1,.5,0h22a.5.5,0,0,1,.5.5v10A.5.5,0,0,1,22.5,11ZM16.291,5.177a.5.5,0,0,0-.5.5V8.559a.5.5,0,0,0,.5.5h3.463a.5.5,0,0,0,.5-.5V5.676a.5.5,0,0,0-.5-.5Zm-6.522,0a.5.5,0,0,0-.5.5V8.559a.5.5,0,0,0,.5.5h3.463a.5.5,0,0,0,.5-.5V5.676a.5.5,0,0,0-.5-.5Zm-6.522,0a.5.5,0,0,0-.5.5V8.559a.5.5,0,0,0,.5.5H6.71a.5.5,0,0,0,.5-.5V5.676a.5.5,0,0,0-.5-.5Z" transform="translate(446 289.608)" fill="#fff"/>
    <path id="Subtraction_1-3" data-name="Subtraction 1" d="M22.5,11H.5a.5.5,0,0,1-.5-.5V.5A.5.5,0,0,1,.5,0h22a.5.5,0,0,1,.5.5v10A.5.5,0,0,1,22.5,11ZM16.291,5.177a.5.5,0,0,0-.5.5V8.559a.5.5,0,0,0,.5.5h3.463a.5.5,0,0,0,.5-.5V5.676a.5.5,0,0,0-.5-.5Zm-6.522,0a.5.5,0,0,0-.5.5V8.559a.5.5,0,0,0,.5.5h3.463a.5.5,0,0,0,.5-.5V5.676a.5.5,0,0,0-.5-.5Zm-6.522,0a.5.5,0,0,0-.5.5V8.559a.5.5,0,0,0,.5.5H6.71a.5.5,0,0,0,.5-.5V5.676a.5.5,0,0,0-.5-.5Z" transform="translate(421 302.608)" fill="#fff"/>
    <path id="Subtraction_1-4" data-name="Subtraction 1" d="M22.5,11H.5a.5.5,0,0,1-.5-.5V.5A.5.5,0,0,1,.5,0h22a.5.5,0,0,1,.5.5v10A.5.5,0,0,1,22.5,11ZM16.291,5.177a.5.5,0,0,0-.5.5V8.559a.5.5,0,0,0,.5.5h3.463a.5.5,0,0,0,.5-.5V5.676a.5.5,0,0,0-.5-.5Zm-6.522,0a.5.5,0,0,0-.5.5V8.559a.5.5,0,0,0,.5.5h3.463a.5.5,0,0,0,.5-.5V5.676a.5.5,0,0,0-.5-.5Zm-6.522,0a.5.5,0,0,0-.5.5V8.559a.5.5,0,0,0,.5.5H6.71a.5.5,0,0,0,.5-.5V5.676a.5.5,0,0,0-.5-.5Z" transform="translate(446 302.608)" fill="#fff"/>
    <path id="Subtraction_1-5" data-name="Subtraction 1" d="M22.5,11H.5a.5.5,0,0,1-.5-.5V.5A.5.5,0,0,1,.5,0h22a.5.5,0,0,1,.5.5v10A.5.5,0,0,1,22.5,11ZM16.291,5.177a.5.5,0,0,0-.5.5V8.559a.5.5,0,0,0,.5.5h3.463a.5.5,0,0,0,.5-.5V5.676a.5.5,0,0,0-.5-.5Zm-6.522,0a.5.5,0,0,0-.5.5V8.559a.5.5,0,0,0,.5.5h3.463a.5.5,0,0,0,.5-.5V5.676a.5.5,0,0,0-.5-.5Zm-6.522,0a.5.5,0,0,0-.5.5V8.559a.5.5,0,0,0,.5.5H6.71a.5.5,0,0,0,.5-.5V5.676a.5.5,0,0,0-.5-.5Z" transform="translate(421 316.608)" fill="#fff"/>
    <path id="Subtraction_1-6" data-name="Subtraction 1" d="M22.5,11H.5a.5.5,0,0,1-.5-.5V.5A.5.5,0,0,1,.5,0h22a.5.5,0,0,1,.5.5v10A.5.5,0,0,1,22.5,11ZM16.291,5.177a.5.5,0,0,0-.5.5V8.559a.5.5,0,0,0,.5.5h3.463a.5.5,0,0,0,.5-.5V5.676a.5.5,0,0,0-.5-.5Zm-6.522,0a.5.5,0,0,0-.5.5V8.559a.5.5,0,0,0,.5.5h3.463a.5.5,0,0,0,.5-.5V5.676a.5.5,0,0,0-.5-.5Zm-6.522,0a.5.5,0,0,0-.5.5V8.559a.5.5,0,0,0,.5.5H6.71a.5.5,0,0,0,.5-.5V5.676a.5.5,0,0,0-.5-.5Z" transform="translate(446 316.608)" fill="#fff"/>
  </g>
</svg>
