<?xml version="1.0" encoding="iso-8859-1"?>
<!-- Generator: Adobe Illustrator 16.0.0, SVG Export Plug-In . SVG Version: 6.00 Build 0)  -->
<!DOCTYPE svg PUBLIC "-//W3C//DTD SVG 1.1//EN" "http://www.w3.org/Graphics/SVG/1.1/DTD/svg11.dtd">
<svg version="1.1" id="Capa_1" xmlns="http://www.w3.org/2000/svg" xmlns:xlink="http://www.w3.org/1999/xlink" x="0px" y="0px"
	 width="293.699px" height="293.699px" viewBox="0 0 293.699 293.699" style="enable-background:new 0 0 293.699 293.699;"
	 xml:space="preserve">
<g>
	<g>
		<path d="M26.85,240c-6.904,0-12.5,5.598-12.5,12.5v28.699c0,6.902,5.596,12.5,12.5,12.5c6.903,0,12.5-5.598,12.5-12.5V252.5
			C39.35,245.598,33.752,240,26.85,240z" fill="#fff" />
		<path d="M86.85,180c-6.903,0-12.5,5.598-12.5,12.5v88.699c0,6.902,5.597,12.5,12.5,12.5s12.5-5.598,12.5-12.5V192.5
			C99.35,185.598,93.752,180,86.85,180z" fill="#fff" />
		<path d="M146.85,120c-6.903,0-12.5,5.597-12.5,12.5v148.7c0,6.903,5.597,12.499,12.5,12.499c6.902,0,12.5-5.596,12.5-12.499V132.5
			C159.35,125.597,153.752,120,146.85,120z" fill="#fff" />
		<path d="M206.85,60c-6.903,0-12.5,5.597-12.5,12.5v208.7c0,6.903,5.597,12.499,12.5,12.499s12.5-5.596,12.5-12.499V72.5
			C219.35,65.597,213.753,60,206.85,60z" fill="#fff" />
		<path d="M266.85,0c-6.903,0-12.5,5.597-12.5,12.5v268.7c0,6.903,5.597,12.499,12.5,12.499s12.5-5.596,12.5-12.499V12.5
			C279.35,5.597,273.753,0,266.85,0z" fill="#fff" />
	</g>
</g>
<g>
</g>
<g>
</g>
<g>
</g>
<g>
</g>
<g>
</g>
<g>
</g>
<g>
</g>
<g>
</g>
<g>
</g>
<g>
</g>
<g>
</g>
<g>
</g>
<g>
</g>
<g>
</g>
<g>
</g>
</svg>
