<?xml version="1.0" ?><!DOCTYPE svg  PUBLIC '-//W3C//DTD SVG 1.1//EN'  'http://www.w3.org/Graphics/SVG/1.1/DTD/svg11.dtd' [
	<!ENTITY stroke_color "#EA2A3D">
	<!ENTITY fill_color "#FFD00D">
]>
<svg xmlns="http://www.w3.org/2000/svg" width="120" height="120.406" viewBox="0 0 120 120.406">
  <g id="medal" transform="translate(-1546 -386)">
    <rect id="Rectangle_57" data-name="Rectangle 57" width="120" height="120" transform="translate(1546 386)" fill="none"/>
    <g id="medal-colored" transform="translate(1560.556 386)">
      <g id="Group_17" data-name="Group 17" transform="translate(6.94 78.883)">
        <path id="Path_43" data-name="Path 43" d="M88.566,83.2,69.9,91.053l14.244,31.775,6.751-9.68,11.718,1.4Z" transform="translate(-25.126 -83.204)" fill="&stroke_color;"/>
        <path id="Path_44" data-name="Path 44" d="M22.674,114.55l11.718-1.4,6.751,9.68L55.386,91.053,36.725,83.2Z" transform="translate(-22.674 -83.204)" fill="&stroke_color;"/>
      </g>
      <g id="Group_18" data-name="Group 18" transform="translate(6.94 78.883)">
        <path id="Path_45" data-name="Path 45" d="M45.885,87.057,36.725,83.2,22.674,114.55l11.5-1.375,7.78-17.354a10.471,10.471,0,0,0,6.079.858l4.183-.658.738.45,2.428-5.417Z" transform="translate(-22.674 -83.204)" opacity="0.2"/>
        <path id="Path_46" data-name="Path 46" d="M83.321,95.791a10.628,10.628,0,0,0,4.109-3.364l2.488-3.421,1.126-.273L88.565,83.2,79.4,87.057l-9.5,4,14.244,31.776,6.751-9.68.214.026Z" transform="translate(-25.126 -83.204)" opacity="0.2"/>
      </g>
      <path id="Path_47" data-name="Path 47" d="M104.181,48.127l-2.5,4.095a4.564,4.564,0,0,0-.612,3.086l.744,4.729a4.565,4.565,0,0,1-1.825,4.4l-3.87,2.815a4.566,4.566,0,0,0-1.752,2.618l-1.127,4.656a4.566,4.566,0,0,1-3.364,3.364l-4.656,1.127a4.565,4.565,0,0,0-2.618,1.752l-2.814,3.869a4.567,4.567,0,0,1-4.4,1.825l-4.728-.744a4.567,4.567,0,0,0-3.087.612l-4.094,2.5a4.565,4.565,0,0,1-4.754,0l-4.095-2.5a4.564,4.564,0,0,0-3.086-.612l-4.729.744a4.565,4.565,0,0,1-4.4-1.825L39.6,80.77a4.566,4.566,0,0,0-2.618-1.752l-4.656-1.127a4.566,4.566,0,0,1-3.364-3.364l-1.127-4.656a4.564,4.564,0,0,0-1.752-2.618l-3.869-2.814a4.566,4.566,0,0,1-1.825-4.4l.744-4.728a4.567,4.567,0,0,0-.612-3.087l-2.5-4.094a4.565,4.565,0,0,1,0-4.754l2.5-4.095a4.564,4.564,0,0,0,.612-3.086l-.744-4.729a4.565,4.565,0,0,1,1.825-4.4l3.87-2.815a4.566,4.566,0,0,0,1.752-2.618l1.127-4.656a4.566,4.566,0,0,1,3.364-3.364l4.656-1.127A4.566,4.566,0,0,0,39.6,10.731l2.814-3.869a4.567,4.567,0,0,1,4.4-1.825l4.728.744a4.567,4.567,0,0,0,3.087-.612l4.094-2.5a4.565,4.565,0,0,1,4.754,0l4.095,2.5a4.564,4.564,0,0,0,3.086.612l4.729-.744a4.565,4.565,0,0,1,4.4,1.825l2.815,3.87a4.566,4.566,0,0,0,2.618,1.752l4.656,1.127a4.566,4.566,0,0,1,3.364,3.364l1.127,4.656a4.566,4.566,0,0,0,1.752,2.619l3.869,2.814a4.567,4.567,0,0,1,1.825,4.4l-.744,4.728a4.567,4.567,0,0,0,.612,3.087l2.5,4.094A4.566,4.566,0,0,1,104.181,48.127Z" transform="translate(-15.458 -0.104)" fill="&fill_color;"/>
      <path id="Path_47_overlay" data-name="Path 47 overlay" d="M104.181,48.127l-2.5,4.095a4.564,4.564,0,0,0-.612,3.086l.744,4.729a4.565,4.565,0,0,1-1.825,4.4l-3.87,2.815a4.566,4.566,0,0,0-1.752,2.618l-1.127,4.656a4.566,4.566,0,0,1-3.364,3.364l-4.656,1.127a4.565,4.565,0,0,0-2.618,1.752l-2.814,3.869a4.567,4.567,0,0,1-4.4,1.825l-4.728-.744a4.567,4.567,0,0,0-3.087.612l-4.094,2.5a4.565,4.565,0,0,1-4.754,0l-4.095-2.5a4.564,4.564,0,0,0-3.086-.612l-4.729.744a4.565,4.565,0,0,1-4.4-1.825L39.6,80.77a4.566,4.566,0,0,0-2.618-1.752l-4.656-1.127a4.566,4.566,0,0,1-3.364-3.364l-1.127-4.656a4.564,4.564,0,0,0-1.752-2.618l-3.869-2.814a4.566,4.566,0,0,1-1.825-4.4l.744-4.728a4.567,4.567,0,0,0-.612-3.087l-2.5-4.094a4.565,4.565,0,0,1,0-4.754l2.5-4.095a4.564,4.564,0,0,0,.612-3.086l-.744-4.729a4.565,4.565,0,0,1,1.825-4.4l3.87-2.815a4.566,4.566,0,0,0,1.752-2.618l1.127-4.656a4.566,4.566,0,0,1,3.364-3.364l4.656-1.127A4.566,4.566,0,0,0,39.6,10.731l2.814-3.869a4.567,4.567,0,0,1,4.4-1.825l4.728.744a4.567,4.567,0,0,0,3.087-.612l4.094-2.5a4.565,4.565,0,0,1,4.754,0l4.095,2.5a4.564,4.564,0,0,0,3.086.612l4.729-.744a4.565,4.565,0,0,1,4.4,1.825l2.815,3.87a4.566,4.566,0,0,0,2.618,1.752l4.656,1.127a4.566,4.566,0,0,1,3.364,3.364l1.127,4.656a4.566,4.566,0,0,0,1.752,2.619l3.869,2.814a4.567,4.567,0,0,1,1.825,4.4l-.744,4.728a4.567,4.567,0,0,0,.612,3.087l2.5,4.094A4.566,4.566,0,0,1,104.181,48.127Z" transform="translate(-15.458 -0.104)" fill="red" opacity="0.15" style="mix-blend-mode: color-burn;isolation: isolate"/>
      <path id="Path_48" data-name="Path 48" d="M34.793,36.806A47.375,47.375,0,0,1,46.823,5.2h0a4.565,4.565,0,0,0-4.4,1.824L39.6,10.893a4.566,4.566,0,0,1-2.619,1.752l-4.656,1.127a4.566,4.566,0,0,0-3.364,3.364l-1.127,4.656a4.565,4.565,0,0,1-1.752,2.618l-3.87,2.815a4.566,4.566,0,0,0-1.825,4.4l.744,4.729a4.567,4.567,0,0,1-.612,3.086l-2.5,4.094a4.565,4.565,0,0,0,0,4.754l2.5,4.094a4.565,4.565,0,0,1,.612,3.087L20.39,60.2a4.565,4.565,0,0,0,1.824,4.4l3.869,2.814a4.566,4.566,0,0,1,1.752,2.619l1.127,4.656a4.566,4.566,0,0,0,3.364,3.364l4.656,1.127A4.565,4.565,0,0,1,39.6,80.932l2.814,3.87a4.566,4.566,0,0,0,4.4,1.825l4.729-.744a4.567,4.567,0,0,1,3.087.612l4.095,2.5a4.565,4.565,0,0,0,4.754,0l4.094-2.5a4.565,4.565,0,0,1,3.087-.612l4.728.744a4.565,4.565,0,0,0,4.4-1.824l.356-.49A47.56,47.56,0,0,1,34.793,36.806Z" transform="translate(-15.458 -0.267)" opacity="0.2"/>
      <circle id="Ellipse_12" data-name="Ellipse 12" cx="32.383" cy="32.383" r="32.383" transform="translate(13.262 13.264)" fill="&fill_color;"/>
      <path id="Path_49" data-name="Path 49" d="M69.37,62.69A29.326,29.326,0,0,1,46.259,29.158a1.356,1.356,0,0,0-2.284-1.174A26.3,26.3,0,1,0,81.156,65.164a1.356,1.356,0,0,0-1.174-2.284A29.507,29.507,0,0,1,69.37,62.69Z" transform="translate(107.87 92.561) rotate(180)" fill="#fff" opacity="0.3"/>
      <path id="Path_52" data-name="Path 52" d="M75.277,19.009a1.9,1.9,0,0,0,1.711-3.387,34.288,34.288,0,0,0-42.54,51.631,1.9,1.9,0,0,0,3-2.331A30.494,30.494,0,0,1,75.277,19.009Z" transform="translate(-15.972 -0.619)"/>
      <path id="Path_53" data-name="Path 53" d="M90.276,30.914a1.9,1.9,0,0,0-.838,2.549A30.494,30.494,0,0,1,43.522,71.291a1.9,1.9,0,1,0-2.331,3A34.289,34.289,0,0,0,92.826,31.753,1.9,1.9,0,0,0,90.276,30.914Z" transform="translate(-16.657 -1.595)"/>
      <path id="Path_54" data-name="Path 54" d="M84.642,23.809c.474.419.942.859,1.391,1.308s.889.917,1.308,1.391a1.9,1.9,0,0,0,2.844-2.513c-.47-.532-.964-1.057-1.468-1.561s-1.029-1-1.561-1.468a1.9,1.9,0,0,0-2.513,2.843Z" transform="translate(-18.918 -1.064)"/>
      <path id="Path_55" data-name="Path 55" d="M105.7,42.282l-2.5-4.094a2.671,2.671,0,0,1-.358-1.8l.744-4.728A6.436,6.436,0,0,0,101,25.425l-3.869-2.814a2.671,2.671,0,0,1-1.024-1.53l-1.127-4.656a6.437,6.437,0,0,0-4.761-4.762l-4.656-1.127a2.669,2.669,0,0,1-1.53-1.024l-2.814-3.87A6.435,6.435,0,0,0,74.992,3.06L70.263,3.8a2.671,2.671,0,0,1-1.8-.358L64.365.949a6.439,6.439,0,0,0-6.73,0l-4.094,2.5a2.67,2.67,0,0,1-1.8.358L47.01,3.059a6.437,6.437,0,0,0-6.231,2.583L37.965,9.511a2.672,2.672,0,0,1-1.53,1.024l-4.656,1.127a6.438,6.438,0,0,0-4.762,4.761L25.89,21.079a2.669,2.669,0,0,1-1.024,1.53L21,25.424a6.436,6.436,0,0,0-2.583,6.231l.744,4.729a2.671,2.671,0,0,1-.358,1.8l-2.5,4.095a6.439,6.439,0,0,0,0,6.729L18.8,53.1a2.67,2.67,0,0,1,.358,1.8l-.744,4.728A6.436,6.436,0,0,0,21,65.868l3.869,2.814a2.67,2.67,0,0,1,1.024,1.53l1.127,4.656a6.437,6.437,0,0,0,4.761,4.762l1.944.471L20.562,109.453a1.9,1.9,0,0,0,1.957,2.66l10.588-1.266,6.1,8.746a1.9,1.9,0,0,0,1.556.812c.059,0,.119,0,.178-.008a1.9,1.9,0,0,0,1.554-1.113L55.932,89.306l1.7,1.038a6.439,6.439,0,0,0,6.73,0l1.764-1.076,13.456,30.016a1.9,1.9,0,0,0,1.554,1.113c.06.006.119.008.178.008a1.9,1.9,0,0,0,1.556-.812l6.1-8.746,10.588,1.266a1.9,1.9,0,0,0,1.957-2.66L88.351,80.085l1.871-.453a6.438,6.438,0,0,0,4.762-4.761l1.127-4.656a2.669,2.669,0,0,1,1.024-1.53L101,65.87a6.436,6.436,0,0,0,2.583-6.231l-.744-4.729a2.671,2.671,0,0,1,.358-1.8l2.5-4.095h0A6.438,6.438,0,0,0,105.7,42.282ZM40.4,114.674l-4.834-6.931a1.9,1.9,0,0,0-1.782-.8l-8.391,1L37.384,81.2a2.654,2.654,0,0,1,.578.577l2.814,3.87a6.522,6.522,0,0,0,.9,1l-6.31,14.076a1.9,1.9,0,1,0,3.463,1.552l6.288-14.026a6.494,6.494,0,0,0,1.9-.017l4.729-.744a2.664,2.664,0,0,1,.848.006Zm47.891-7.73a1.9,1.9,0,0,0-1.782.8l-4.834,6.931L69.488,87.484a2.671,2.671,0,0,1,.774.006l4.728.744a6.5,6.5,0,0,0,1.97.006l6.293,14.038a1.9,1.9,0,1,0,3.463-1.552l-6.334-14.13a6.545,6.545,0,0,0,.84-.944l2.814-3.869a2.663,2.663,0,0,1,.639-.622l12.008,26.787Zm14.165-59.909-2.5,4.095a6.471,6.471,0,0,0-.866,4.369l.744,4.729A2.657,2.657,0,0,1,98.772,62.8L94.9,65.615a6.47,6.47,0,0,0-2.48,3.706L91.3,73.978a2.658,2.658,0,0,1-1.966,1.966L84.673,77.07a6.47,6.47,0,0,0-3.707,2.48l-2.814,3.869a2.656,2.656,0,0,1-2.573,1.066l-4.728-.744a6.471,6.471,0,0,0-4.37.866l-4.094,2.5a2.659,2.659,0,0,1-2.778,0l-4.095-2.5a6.469,6.469,0,0,0-4.369-.866l-4.729.744a2.657,2.657,0,0,1-2.572-1.066l-2.815-3.87a6.47,6.47,0,0,0-3.706-2.48l-4.656-1.127A2.658,2.658,0,0,1,30.7,73.976L29.576,69.32a6.469,6.469,0,0,0-2.48-3.707L23.227,62.8a2.657,2.657,0,0,1-1.066-2.572l.744-4.728a6.471,6.471,0,0,0-.866-4.369l-2.5-4.094a2.657,2.657,0,0,1,0-2.778l2.5-4.095a6.471,6.471,0,0,0,.866-4.369l-.744-4.729a2.657,2.657,0,0,1,1.066-2.572l3.87-2.815a6.47,6.47,0,0,0,2.48-3.706L30.7,17.315a2.658,2.658,0,0,1,1.966-1.966l4.656-1.127a6.47,6.47,0,0,0,3.707-2.48l2.814-3.869A2.656,2.656,0,0,1,46.42,6.807l4.728.744a6.468,6.468,0,0,0,4.37-.866l4.094-2.5a2.659,2.659,0,0,1,2.778,0l4.095,2.5a6.468,6.468,0,0,0,4.369.867l4.729-.744a2.658,2.658,0,0,1,2.572,1.066l2.815,3.87a6.47,6.47,0,0,0,3.706,2.48l4.656,1.127A2.658,2.658,0,0,1,91.3,17.316l1.127,4.656a6.469,6.469,0,0,0,2.48,3.707l3.869,2.814a2.657,2.657,0,0,1,1.066,2.573L99.1,35.794a6.47,6.47,0,0,0,.866,4.369l2.5,4.094A2.659,2.659,0,0,1,102.457,47.035Z" transform="translate(-15.354 0)"/>
    </g>
  </g>
</svg>
