<svg xmlns="http://www.w3.org/2000/svg" width="83" height="83" viewBox="0 0 83 83">
  <g id="Video_upload" data-name="Video upload" transform="translate(0 0.436)">
    <rect id="bg" width="83" height="83" rx="5" transform="translate(0 -0.436)"/>
    <path id="Icon_awesome-file-video" data-name="Icon awesome-file-video" d="M40.643,12.906v.641H27.1V0h.641a2.541,2.541,0,0,1,1.8.744L39.9,11.11a2.541,2.541,0,0,1,.744,1.8ZM23.709,14.395V0H2.54A2.54,2.54,0,0,0,0,2.54V51.651a2.54,2.54,0,0,0,2.54,2.54H38.1a2.54,2.54,0,0,0,2.54-2.54V16.935H26.249A2.548,2.548,0,0,1,23.709,14.395ZM33.869,29.637v11.85a2.542,2.542,0,0,1-4.336,1.8l-5.824-5.822V41.49a2.54,2.54,0,0,1-2.54,2.54H9.314a2.54,2.54,0,0,1-2.54-2.54V29.636a2.54,2.54,0,0,1,2.54-2.54H21.168a2.54,2.54,0,0,1,2.54,2.54v4.028l5.824-5.823A2.542,2.542,0,0,1,33.869,29.637Z" transform="translate(21.2 13.564)" fill="#fff"/>
  </g>
</svg>
