<svg xmlns="http://www.w3.org/2000/svg" width="83" height="83" viewBox="0 0 83 83">
  <g id="Audio_upload" data-name="Audio upload" transform="translate(0 0.436)">
    <rect id="bg" width="83" height="83" rx="5" transform="translate(0 -0.436)"/>
    <path id="Icon_awesome-file-audio" data-name="Icon awesome-file-audio" d="M23.882,14.5V0H2.559A2.553,2.553,0,0,0,0,2.559v49.47a2.553,2.553,0,0,0,2.559,2.559H38.382a2.553,2.553,0,0,0,2.559-2.559V17.059h-14.5A2.566,2.566,0,0,1,23.882,14.5ZM17.059,43.073a1.282,1.282,0,0,1-2.186.906l-3.785-3.892H8.1a1.283,1.283,0,0,1-1.279-1.279V32.838A1.283,1.283,0,0,1,8.1,31.559h2.985l3.785-3.892a1.279,1.279,0,0,1,2.186.906ZM20.6,38a2.542,2.542,0,0,0,0-3.561,2.56,2.56,0,0,1,3.668-3.572,7.673,7.673,0,0,1,0,10.7C21.942,43.948,18.2,40.461,20.6,38Zm9.169-12.485a15.346,15.346,0,0,1,0,21.409c-2.324,2.388-6.077-1.1-3.668-3.572a10.225,10.225,0,0,0,0-14.265C23.744,26.654,27.411,23.083,29.768,25.514ZM40.941,13v.65H27.294V0h.65a2.557,2.557,0,0,1,1.812.746L40.195,11.195A2.551,2.551,0,0,1,40.941,13Z" transform="translate(22.2 12.564)" fill="#fff"/>
  </g>
</svg>
