<?xml version="1.0" encoding="UTF-8" standalone="no"?>
<!-- Generator: Adobe Illustrator 12.0.0, SVG Export Plug-In . SVG Version: 6.00 Build 51448)  -->

<svg
   version="1.1"
   width="55"
   height="55"
   viewBox="0 0 60.818 55.881"
   overflow="visible"
   enable-background="new 0 0 60.818 55.881"
   xml:space="preserve"
   id="svg40"
   sodipodi:docname="stickman-new.svg"
   inkscape:version="1.2.2 (b0a8486541, 2022-12-01)"
   xmlns:inkscape="http://www.inkscape.org/namespaces/inkscape"
   xmlns:sodipodi="http://sodipodi.sourceforge.net/DTD/sodipodi-0.dtd"
   xmlns="http://www.w3.org/2000/svg"
   xmlns:svg="http://www.w3.org/2000/svg"><defs
   id="defs44">










</defs><sodipodi:namedview
   id="namedview42"
   pagecolor="#ffffff"
   bordercolor="#666666"
   borderopacity="1.0"
   inkscape:showpageshadow="2"
   inkscape:pageopacity="0.0"
   inkscape:pagecheckerboard="0"
   inkscape:deskcolor="#d1d1d1"
   showgrid="false"
   inkscape:zoom="5.1012788"
   inkscape:cx="24.013587"
   inkscape:cy="19.798957"
   inkscape:window-width="1534"
   inkscape:window-height="831"
   inkscape:window-x="66"
   inkscape:window-y="32"
   inkscape:window-maximized="1"
   inkscape:current-layer="svg40" />
	<g
   transform="matrix(1.2082242,0,0,1.2104383,0.67256078,2.9181696)"
   id="g38"
   style="fill:none;stroke-width:0.826904;stroke:#ffffff">
	<g
   transform="scale(0.84)"
   id="g36"
   style="fill:none;stroke-width:0.826904;stroke:#ffffff">

<g
   id="Layer_4"
   style="fill:none;stroke-width:0.826904;stroke:#ffffff">
	<path
   fill="#FFFFFF"
   stroke="#010101"
   stroke-width="2.48071"
   d="m 27.646,9.952 c 0.409,2.399 -1.192,4.68 -3.581,5.092 -2.387,0.411 -4.654,-1.2 -5.063,-3.599 -0.41,-2.4 1.193,-4.68 3.579,-5.091 2.388,-0.414 4.654,1.198 5.065,3.598 z"
   id="path7"
   style="fill:none;stroke:#ffffff" />
	<line
   fill="#FFFFFF"
   stroke="#010101"
   stroke-width="2.48071"
   x1="25.066999"
   y1="15.431"
   x2="27.226"
   y2="28.070999"
   id="line9"
   style="fill:none;stroke:#ffffff" />
	<line
   fill="#FFFFFF"
   stroke="#010101"
   stroke-width="2.48071"
   x1="20.979"
   y1="18.344999"
   x2="29.736"
   y2="16.833"
   id="line11"
   style="fill:none;stroke:#ffffff" />
	<line
   fill="#FFFFFF"
   stroke="#010101"
   stroke-width="2.48071"
   x1="30.719"
   y1="16.936001"
   x2="36.043999"
   y2="22.17"
   id="line13"
   style="fill:none;stroke:#ffffff" />
	<line
   fill="#FFFFFF"
   stroke="#010101"
   stroke-width="2.48071"
   x1="19.667"
   y1="17.971001"
   x2="15.776"
   y2="24.990999"
   id="line15"
   style="fill:none;stroke:#ffffff" />
	<line
   fill="#FFFFFF"
   stroke="#010101"
   stroke-width="2.48071"
   x1="23.174"
   y1="29.120001"
   x2="31.431"
   y2="27.697001"
   id="line17"
   style="fill:none;stroke:#ffffff" />
	<line
   fill="#FFFFFF"
   stroke="#010101"
   stroke-width="2.48071"
   x1="22.865999"
   y1="30.065001"
   x2="18.054001"
   y2="37.75"
   id="line19"
   style="fill:none;stroke:#ffffff" />
	<line
   fill="#FFFFFF"
   stroke="#010101"
   stroke-width="2.48071"
   x1="31.888"
   y1="28.514999"
   x2="39.915001"
   y2="34.097"
   id="line21"
   style="fill:none;stroke:#ffffff" />
	<line
   fill="#FFFFFF"
   stroke="#010101"
   stroke-width="2.48071"
   x1="40.181"
   y1="34.355"
   x2="42.992001"
   y2="40.625"
   id="line23"
   style="fill:none;stroke:#ffffff" />
	<line
   fill="#FFFFFF"
   stroke="#010101"
   stroke-width="2.48071"
   x1="44.098999"
   y1="41.667"
   x2="48.082001"
   y2="38.946999"
   id="line25"
   style="fill:none;stroke:#ffffff" />
	<line
   fill="#FFFFFF"
   stroke="#010101"
   stroke-width="2.48071"
   x1="19.086"
   y1="38.948002"
   x2="28.983"
   y2="37.354"
   id="line27"
   style="fill:none;stroke:#ffffff" />
	<line
   fill="#FFFFFF"
   stroke="#010101"
   stroke-width="2.48071"
   x1="30.082001"
   y1="38.036999"
   x2="29.344999"
   y2="42.514"
   id="line29"
   style="fill:none;stroke:#ffffff" />
	<line
   fill="#FFFFFF"
   stroke="#010101"
   stroke-width="2.48071"
   x1="36.754002"
   y1="23.000999"
   x2="43.103001"
   y2="20.344"
   id="line31"
   style="fill:none;stroke:#ffffff" />
	<line
   fill="#FF0000"
   stroke="#010101"
   stroke-width="2.48071"
   x1="9.3859997"
   y1="29.209"
   x2="15.307"
   y2="25.819"
   id="line33"
   style="fill:none;stroke:#ffffff" />
	</g>
	</g>
</g>
<path
   d="m 44.196852,26.551963 c -1.239116,0 -2.256085,1.01697 -2.256085,2.256085 v 5.173951 l -3.669895,-3.669897 c -0.877122,-0.875254 -2.283264,-0.877115 -3.158517,0 -0.875252,0.877123 -0.877085,2.313347 0,3.188598 l 3.699977,3.669897 h -5.234111 c -1.239115,0 -2.256085,1.016968 -2.256085,2.256085 0,1.239114 1.01697,2.226001 2.256085,2.226001 h 5.204031 l -3.669897,3.669895 c -0.875251,0.87712 -0.877085,2.313345 0,3.188597 0.877122,0.875251 2.313347,0.84704 3.188597,-0.03009 l 3.639815,-3.669894 v 5.234113 c 0,1.239116 1.016969,2.226003 2.256085,2.226003 1.239116,0 2.226002,-0.986887 2.226002,-2.226003 V 44.78111 l 3.730057,3.699974 c 0.87712,0.875252 2.283265,0.877121 3.158514,0 0.875252,-0.877119 0.877125,-2.283264 0,-3.158514 l -3.699974,-3.669895 h 5.204032 c 1.239116,0 2.226002,-0.986888 2.226002,-2.226003 0,-1.239117 -0.986886,-2.256086 -2.226002,-2.256086 h -5.234112 l 3.699974,-3.730057 c 0.875252,-0.87712 0.877124,-2.253182 0,-3.128436 -0.87712,-0.87525 -2.283264,-0.907206 -3.158515,-0.03008 l -3.699976,3.730056 v -5.204029 c 0,-1.239116 -0.986886,-2.256087 -2.226002,-2.256087 z"
   id="rect3894"
   style="fill:#ffffff;fill-opacity:1;stroke:#282828;stroke-width:1.92519;stroke-linecap:round;stroke-linejoin:round;stroke-miterlimit:4;stroke-dasharray:none;stroke-opacity:1" /></svg>
