<?xml version="1.0" encoding="UTF-8" standalone="no"?>
<!-- Generator: Adobe Illustrator 12.0.0, SVG Export Plug-In . SVG Version: 6.00 Build 51448)  -->

<svg
   version="1.1"
   width="55"
   height="55"
   viewBox="0 0 60.818 55.881"
   overflow="visible"
   enable-background="new 0 0 60.818 55.881"
   xml:space="preserve"
   id="svg40"
   sodipodi:docname="video-import.svg"
   inkscape:version="1.2.2 (b0a8486541, 2022-12-01)"
   xmlns:inkscape="http://www.inkscape.org/namespaces/inkscape"
   xmlns:sodipodi="http://sodipodi.sourceforge.net/DTD/sodipodi-0.dtd"
   xmlns="http://www.w3.org/2000/svg"
   xmlns:svg="http://www.w3.org/2000/svg"><defs
   id="defs44">










</defs><sodipodi:namedview
   id="namedview42"
   pagecolor="#ffffff"
   bordercolor="#666666"
   borderopacity="1.0"
   inkscape:showpageshadow="2"
   inkscape:pageopacity="0.0"
   inkscape:pagecheckerboard="0"
   inkscape:deskcolor="#d1d1d1"
   showgrid="false"
   inkscape:zoom="8.89554"
   inkscape:cx="27.03602"
   inkscape:cy="25.068742"
   inkscape:window-width="1534"
   inkscape:window-height="831"
   inkscape:window-x="66"
   inkscape:window-y="32"
   inkscape:window-maximized="1"
   inkscape:current-layer="svg40" />
	
<g
   id="g1315"
   transform="matrix(0.34540387,0,0,0.34601536,8.0427592,10.44805)"
   style="stroke-width:3.19859"><path
     style="fill:none;fill-rule:evenodd;stroke:#ffffff;stroke-width:3.19859px;stroke-linecap:butt;stroke-linejoin:miter;stroke-opacity:1"
     d="M 9.6610169,48.305085 66.101695,48.813559 90.508475,40.677966 90,91.525424 67.118644,83.898305 6.6101695,84.915254 7.6271186,49.830508"
     id="path4156"
     inkscape:connector-curvature="0" /><path
     d="m 90.5,94 c -0.212,0 -0.42,-0.036 -0.632,-0.1 l -24,-8 C 65.056,85.636 64.5,84.86 64.5,84 V 48 c 0,-0.86 0.556,-1.624 1.368,-1.9 l 24,-8 c 0.612,-0.204 1.276,-0.092 1.8,0.268 0.524,0.38 0.832,0.976 0.832,1.612 v 52 c 0,0.648 -0.308,1.252 -0.832,1.62 C 91.324,93.872 90.916,94 90.5,94 Z m -22,-11.436 20,6.664 V 42.78 l -20,6.668 z"
     id="path6"
     inkscape:connector-curvature="0"
     style="fill:#ffffff;stroke:#ffffff;stroke-width:3.19859" /><path
     d="m 21.5,48 c -9.92,0 -18,-8.08 -18,-18 0,-9.92 8.08,-18 18,-18 9.92,0 18,8.08 18,18 0,9.92 -8.08,18 -18,18 z m 0,-32 c -7.72,0 -14,6.28 -14,14 0,7.72 6.28,14 14,14 7.72,0 14,-6.28 14,-14 0,-7.72 -6.28,-14 -14,-14 z"
     id="path8"
     inkscape:connector-curvature="0"
     style="fill:#ffffff;stroke:#ffffff;stroke-width:3.19859" /><path
     d="m 53.5,48 c -9.92,0 -18,-8.08 -18,-18 0,-9.92 8.08,-18 18,-18 9.92,0 18,8.08 18,18 0,9.92 -8.08,18 -18,18 z m 0,-32 c -7.72,0 -14,6.28 -14,14 0,7.72 6.28,14 14,14 7.72,0 14,-6.28 14,-14 0,-7.72 -6.28,-14 -14,-14 z"
     id="path10"
     inkscape:connector-curvature="0"
     style="fill:#ffffff;stroke:#ffffff;stroke-width:3.19859" /><path
     d="m 8.252,108 c -0.584,0 -1.18,-0.264 -1.58,-0.764 -0.68,-0.88 -0.524,-2.132 0.348,-2.812 l 28.252,-22 c 0.872,-0.68 2.124,-0.524 2.804,0.352 0.68,0.876 0.524,2.124 -0.344,2.804 l -28.252,22 C 9.108,107.864 8.68,108 8.252,108 Z"
     id="path12"
     inkscape:connector-curvature="0"
     style="fill:#ffffff;stroke:#ffffff;stroke-width:3.19859" /><path
     d="m 68.752,108 c -0.42,0 -0.86,-0.136 -1.232,-0.42 l -28.252,-22 C 38.4,84.9 38.244,83.656 38.924,82.776 c 0.68,-0.876 1.924,-1.032 2.804,-0.352 l 28.252,22 c 0.872,0.68 1.028,1.932 0.348,2.812 -0.4,0.5 -0.984,0.764 -1.576,0.764 z"
     id="path14"
     inkscape:connector-curvature="0"
     style="fill:#ffffff;stroke:#ffffff;stroke-width:3.19859" /><path
     d="m 38.5,108 c -1.1,0 -2,-0.9 -2,-2 V 86 c 0,-1.1 0.9,-2 2,-2 1.1,0 2,0.9 2,2 v 20 c 0,1.1 -0.9,2 -2,2 z"
     id="path16"
     inkscape:connector-curvature="0"
     style="fill:#ffffff;stroke:#ffffff;stroke-width:3.19859" /><path
     d="m 66.5,86 h -60 c -1.1,0 -2,-0.9 -2,-2 V 48 c 0,-1.1 0.9,-2 2,-2 h 60 c 1.1,0 2,0.9 2,2 v 36 c 0,1.1 -0.9,2 -2,2 z m -58,-4 h 56 V 50 h -56 z"
     id="path4"
     inkscape:connector-curvature="0"
     style="fill:#ffffff;stroke:#ffffff;stroke-width:3.19859" /><ellipse
     style="fill:none;fill-opacity:1;stroke:#ffffff;stroke-width:3.31738;stroke-opacity:1"
     id="path4158"
     cx="53.752098"
     cy="29.54752"
     rx="14.543037"
     ry="13.79724" /><ellipse
     style="fill:none;fill-opacity:1;stroke:#ffffff;stroke-width:3.31738;stroke-opacity:1"
     id="path4158-6"
     cx="21.572748"
     cy="29.394453"
     rx="14.543037"
     ry="13.79724" /></g><g
   id="g4263"
   transform="matrix(-0.21597301,0,0,-0.21597301,126.4635,39.415976)"><line
     id="line4217"
     y2="162.97459"
     y1="100.69492"
     x2="375.77832"
     x1="375.77832"
     style="fill:none;stroke:#ffffff;stroke-width:15.2919;stroke-linecap:round;stroke-linejoin:round" /><polyline
     transform="matrix(5.12,0,0,5.12,290.20776,69.97492)"
     id="polyline4219"
     points="     11.583,12.083 16.713,6 21.843,12.083    "
     style="fill:none;stroke:#ffffff;stroke-width:2.9867;stroke-linecap:round;stroke-linejoin:round" /></g></svg>
