<?xml version="1.0" ?><!DOCTYPE svg  PUBLIC '-//W3C//DTD SVG 1.1//EN'
		'http://www.w3.org/Graphics/SVG/1.1/DTD/svg11.dtd' [
		<!ENTITY stroke_color "#010101">
		<!ENTITY fill_color "#FFFFFF">
		]>

<svg version="1.1" xmlns="http://www.w3.org/2000/svg" xmlns:xlink="http://www.w3.org/1999/xlink" width="70" height="70" xml:space="preserve" style=""><rect id="backgroundrect" width="100%" height="100%" x="0" y="0" fill="none" stroke="none" style="" class=""/>

<g class="currentLayer" style=""><title>Layer 1</title><g style="fill:&fill_color;;stroke:&stroke_color;" id="svg_1" class="">
	<path d="M25.65116024017334,18.65116262435913 h-5 V13.65116262435913 c0,-0.5529999732971191 -0.4480000138282776,-1 -1,-1 s-1,0.44699999690055847 -1,1 v5 H13.65116024017334 c-0.5519999861717224,0 -1,0.44699999690055847 -1,1 s0.4480000138282776,1 1,1 h5 v5 c0,0.5529999732971191 0.4480000138282776,1 1,1 s1,-0.44699999690055847 1,-1 v-5 h5 c0.5519999861717224,0 1,-0.44699999690055847 1,-1 S26.20316219329834,18.65116262435913 25.65116024017334,18.65116262435913 z" id="svg_2"/>
	<path d="M53.65116024017334,18.65116262435913 H41.65116024017334 c-0.5519999861717224,0 -1,0.44699999690055847 -1,1 s0.4480000138282776,1 1,1 h12 c0.5519999861717224,0 1,-0.44699999690055847 1,-1 S54.203158378601074,18.65116262435913 53.65116024017334,18.65116262435913 z" id="svg_3"/>
	<path d="M34.65116024017334,4.651162624359131 h-2 H4.65116024017334 v28 v2 v28 h28 h2 h28 V34.6511607170105 v-2 V4.651162624359131 H34.65116024017334 zM6.65116024017334,6.651162624359131 h26 v26 H6.65116024017334 V6.651162624359131 zM6.65116024017334,60.6511607170105 V34.6511607170105 h26 v26 H6.65116024017334 zM60.65116024017334,60.6511607170105 H34.65116024017334 V34.6511607170105 h26 V60.6511607170105 zM34.65116024017334,32.6511607170105 V6.651162624359131 h26 v26 H34.65116024017334 z" id="svg_4"/>
	<path d="M41.65116024017334,51.6511607170105 h12 c0.5519999861717224,0 1,-0.44699999690055847 1,-1 s-0.4480000138282776,-1 -1,-1 H41.65116024017334 c-0.5519999861717224,0 -1,0.44699999690055847 -1,1 S41.099162101745605,51.6511607170105 41.65116024017334,51.6511607170105 z" id="svg_5"/>
	<path d="M41.65116024017334,45.6511607170105 h12 c0.5519999861717224,0 1,-0.44699999690055847 1,-1 s-0.4480000138282776,-1 -1,-1 H41.65116024017334 c-0.5519999861717224,0 -1,0.44699999690055847 -1,1 S41.099162101745605,45.6511607170105 41.65116024017334,45.6511607170105 z" id="svg_6"/>
	<path d="M25.358160972595215,41.94415998458862 c-0.39100000262260437,-0.39100000262260437 -1.0230000019073486,-0.39100000262260437 -1.4140000343322754,0 L19.65116024017334,46.23715925216675 l-4.293000221252441,-4.293000221252441 c-0.39100000262260437,-0.39100000262260437 -1.0230000019073486,-0.39100000262260437 -1.4140000343322754,0 s-0.39100000262260437,1.0230000019073486 0,1.4140000343322754 L18.23715877532959,47.6511607170105 l-4.293000221252441,4.293000221252441 c-0.39100000262260437,0.39100000262260437 -0.39100000262260437,1.0230000019073486 0,1.4140000343322754 C14.139159202575684,53.55316114425659 14.395159721374512,53.6511607170105 14.65116024017334,53.6511607170105 s0.5120000243186951,-0.09799999743700027 0.7070000171661377,-0.2930000126361847 L19.65116024017334,49.06516218185425 l4.293000221252441,4.293000221252441 C24.139159202575684,53.55316114425659 24.39515972137451,53.6511607170105 24.65116024017334,53.6511607170105 s0.5120000243186951,-0.09799999743700027 0.7070000171661377,-0.2930000126361847 c0.39100000262260437,-0.39100000262260437 0.39100000262260437,-1.0230000019073486 0,-1.4140000343322754 L21.06516170501709,47.6511607170105 l4.293000221252441,-4.293000221252441 C25.749159812927246,42.96716260910034 25.749159812927246,42.335158824920654 25.358160972595215,41.94415998458862 z" id="svg_7"/>
</g></g></svg>