<svg
    xmlns:svg="http://www.w3.org/2000/svg"
    xmlns="http://www.w3.org/2000/svg"
    xmlns:xlink="http://www.w3.org/1999/xlink"
    version="1.1"
    width="114.0"
    height="130.0">
<g
transform="scale(2.0, 2.0)">
      <path d="m0.5 8.5 L 0.5 4.5 A 4.0 4.0 90.0 0 1 4.5 0.5 L 8.5 0.5 L 8.5 2.5 L 18.5 2.5 L 18.5 0.5 L 48.5 0.5 L 52.5 0.5 A 4.0 4.0 90.0 0 1 56.5 4.5 L 56.5 8.5 L 52.5 8.5 L 52.5 5.5 L 48.5 5.5 L 48.5 15.5 L 52.5 15.5 L 52.5 12.5 L 56.5 12.5 L 56.5 29.5 L 52.5 29.5 L 52.5 26.5 L 48.5 26.5 L 48.5 36.5 L 52.5 36.5 L 52.5 33.5 L 56.5 33.5 L 56.5 50.5 L 52.5 50.5 L 52.5 47.5 L 48.5 47.5 L 48.5 57.5 L 52.5 57.5 L 52.5 54.5 L 56.5 54.5 L 56.5 58.5 A 4.0 4.0 90.0 0 1 52.5 62.5 L 48.5 62.5 L 18.5 62.5 L 17.5 62.5 L 17.5 64.5 L 9.5 64.5 L 9.5 62.5 L 8.5 62.5 L 4.5 62.5 A 4.0 4.0 90.0 0 1 0.5 58.5 L 0.5 54.5 L 0.5 12.5 L 0.5 8.5 z"
       style="fill:#02FFFF;fill-opacity:1;stroke:#33AE86;stroke-width:1.0;stroke-linecap:round;stroke-opacity:1;" />
   </g>
</svg>
