<svg
    xmlns:svg="http://www.w3.org/2000/svg"
    xmlns="http://www.w3.org/2000/svg"
    xmlns:xlink="http://www.w3.org/1999/xlink"
    version="1.1"
    width="132.0"
    height="174.0">
<g
transform="scale(2.0, 2.0)">
      <path d="m0.5 8.5 L 0.5 4.5 A 4.0 4.0 90.0 0 1 4.5 0.5 L 8.5 0.5 L 8.5 2.5 L 18.5 2.5 L 18.5 0.5 L 27.5 0.5 L 57.5 0.5 L 61.5 0.5 A 4.0 4.0 90.0 0 1 65.5 4.5 L 65.5 8.5 A 8.0 8.0 90.0 0 0 57.5 16.5 A 8.0 8.0 90.0 0 0 65.5 24.5 L 65.5 28.5 A 4.0 4.0 90.0 0 1 61.5 32.5 L 57.5 32.5 L 27.5 32.5 L 26.5 32.5 L 26.5 34.5 L 18.5 34.5 L 18.5 32.5 L 17.5 32.5 L 13.5 32.5 A 5.0 5.0 90.0 0 0 8.5 37.5 L 8.5 41.5 L 8.5 45.5 A 5.0 5.0 90.0 0 0 13.5 50.5 L 17.5 50.5 L 17.5 52.5 L 27.5 52.5 L 27.5 50.5 L 35.5 50.5 L 35.5 54.5 A 4.0 4.0 90.0 0 1 31.5 58.5 L 27.5 58.5 L 57.5 58.5 L 27.5 58.5 L 26.5 58.5 L 26.5 60.5 L 18.5 60.5 L 18.5 58.5 L 17.5 58.5 L 13.5 58.5 A 5.0 5.0 90.0 0 0 8.5 63.5 L 8.5 67.5 L 8.5 71.5 A 5.0 5.0 90.0 0 0 13.5 76.5 L 17.5 76.5 L 17.5 78.5 L 27.5 78.5 L 27.5 76.5 L 35.5 76.5 L 35.5 80.5 A 4.0 4.0 90.0 0 1 31.5 84.5 L 27.5 84.5 L 18.5 84.5 L 17.5 84.5 L 17.5 86.5 L 9.5 86.5 L 9.5 84.5 L 8.5 84.5 L 4.5 84.5 A 4.0 4.0 90.0 0 1 0.5 80.5 L 0.5 76.5 z"
       style="fill:#00FF00;fill-opacity:1;stroke:#00A000;stroke-width:1.0;stroke-linecap:round;stroke-opacity:1;" />
   </g>
</svg>
