<svg
    xmlns:svg="http://www.w3.org/2000/svg"
    xmlns="http://www.w3.org/2000/svg"
    xmlns:xlink="http://www.w3.org/1999/xlink"
    version="1.1"
    width="72.0"
    height="190.0">
<g
transform="scale(2.0, 2.0)">
      <path d="m0.5 8.5 L 0.5 4.5 A 4.0 4.0 90.0 0 1 4.5 0.5 L 8.5 0.5 L 8.5 2.5 L 18.5 2.5 L 18.5 0.5 L 27.5 0.5 L 31.5 0.5 A 4.0 4.0 90.0 0 1 35.5 4.5 L 35.5 8.5 A 4.0 4.0 90.0 0 1 31.5 12.5 L 27.5 12.5 L 26.5 12.5 L 26.5 14.5 L 18.5 14.5 L 18.5 12.5 L 17.5 12.5 L 13.5 12.5 A 5.0 5.0 90.0 0 0 8.5 17.5 L 8.5 21.5 L 8.5 51.5 L 8.5 55.5 A 5.0 5.0 90.0 0 0 13.5 60.5 L 17.5 60.5 L 17.5 62.5 L 27.5 62.5 L 27.5 60.5 L 35.5 60.5 L 35.5 68.5 A 8.0 8.0 90.0 0 0 27.5 76.5 A 8.0 8.0 90.0 0 0 35.5 84.5 L 35.5 88.5 A 4.0 4.0 90.0 0 1 31.5 92.5 L 27.5 92.5 L 18.5 92.5 L 17.5 92.5 L 17.5 94.5 L 9.5 94.5 L 9.5 92.5 L 8.5 92.5 L 4.5 92.5 A 4.0 4.0 90.0 0 1 0.5 88.5 L 0.5 84.5 z"
       style="fill:#00FF00;fill-opacity:1;stroke:#00A000;stroke-width:1.0;stroke-linecap:round;stroke-opacity:1;" />
   </g>
</svg>
