<svg
    xmlns:svg="http://www.w3.org/2000/svg"
    xmlns="http://www.w3.org/2000/svg"
    xmlns:xlink="http://www.w3.org/1999/xlink"
    version="1.1"
    width="72.0"
    height="182.0">
<g
transform="scale(2.0, 2.0)">
      <path d="m0.5 8.5 L 0.5 4.5 A 4.0 4.0 90.0 0 1 4.5 0.5 L 8.5 0.5 L 8.5 2.5 L 18.5 2.5 L 18.5 0.5 L 27.5 0.5 L 31.5 0.5 A 4.0 4.0 90.0 0 1 35.5 4.5 L 35.5 8.5 A 8.0 8.0 90.0 0 0 27.5 16.5 A 8.0 8.0 90.0 0 0 35.5 24.5 L 35.5 28.5 A 4.0 4.0 90.0 0 1 31.5 32.5 L 27.5 32.5 L 26.5 32.5 L 26.5 34.5 L 18.5 34.5 L 18.5 32.5 L 17.5 32.5 L 13.5 32.5 A 5.0 5.0 90.0 0 0 8.5 37.5 L 8.5 41.5 L 8.5 71.5 L 8.5 75.5 A 5.0 5.0 90.0 0 0 13.5 80.5 L 17.5 80.5 L 17.5 82.5 L 27.5 82.5 L 27.5 80.5 L 35.5 80.5 L 35.5 84.5 A 4.0 4.0 90.0 0 1 31.5 88.5 L 27.5 88.5 L 18.5 88.5 L 17.5 88.5 L 17.5 90.5 L 9.5 90.5 L 9.5 88.5 L 8.5 88.5 L 4.5 88.5 A 4.0 4.0 90.0 0 1 0.5 84.5 L 0.5 80.5 z"
       style="fill:#00FF00;fill-opacity:1;stroke:#00A000;stroke-width:1.0;stroke-linecap:round;stroke-opacity:1;" />
   </g>
</svg>
