<svg
    xmlns:svg="http://www.w3.org/2000/svg"
    xmlns="http://www.w3.org/2000/svg"
    xmlns:xlink="http://www.w3.org/1999/xlink"
    version="1.1"
    width="132.0"
    height="98.0">
<g
transform="scale(2.0, 2.0)">
      <path d="m0.5 8.5 L 0.5 4.5 A 4.0 4.0 90.0 0 1 4.5 0.5 L 8.5 0.5 L 8.5 2.5 L 18.5 2.5 L 18.5 0.5 L 27.5 0.5 L 57.5 0.5 L 61.5 0.5 A 4.0 4.0 90.0 0 1 65.5 4.5 L 65.5 8.5 L 61.5 8.5 L 61.5 5.5 L 57.5 5.5 L 57.5 15.5 L 61.5 15.5 L 61.5 12.5 L 65.5 12.5 L 65.5 16.5 A 4.0 4.0 90.0 0 1 61.5 20.5 L 57.5 20.5 L 27.5 20.5 L 26.5 20.5 L 26.5 22.5 L 18.5 22.5 L 18.5 20.5 L 17.5 20.5 L 13.5 20.5 A 5.0 5.0 90.0 0 0 8.5 25.5 L 8.5 29.5 L 8.5 33.5 A 5.0 5.0 90.0 0 0 13.5 38.5 L 17.5 38.5 L 17.5 40.5 L 27.5 40.5 L 27.5 38.5 L 35.5 38.5 L 35.5 42.5 A 4.0 4.0 90.0 0 1 31.5 46.5 L 27.5 46.5 L 18.5 46.5 L 17.5 46.5 L 17.5 48.5 L 9.5 48.5 L 9.5 46.5 L 8.5 46.5 L 4.5 46.5 A 4.0 4.0 90.0 0 1 0.5 42.5 L 0.5 38.5 z"
       style="fill:#00FF00;fill-opacity:1;stroke:#00A000;stroke-width:1.0;stroke-linecap:round;stroke-opacity:1;" />
   </g>
</svg>
