<svg
    xmlns:svg="http://www.w3.org/2000/svg"
    xmlns="http://www.w3.org/2000/svg"
    xmlns:xlink="http://www.w3.org/1999/xlink"
    version="1.1"
    width="126.0"
    height="70.0">
<g
transform="scale(2.0, 2.0)">
      <path d="m0.5 33.5 A 7.0 7.0 90.0 0 1 7.5 26.5 L 8.5 26.5 L 8.5 8.5 A 8.0 8.0 90.0 0 1 16.5 0.5 L 50.5 0.5 L 50.5 8.5 L 46.5 8.5 L 46.5 5.5 L 42.5 5.5 L 42.5 15.5 L 46.5 15.5 L 46.5 12.5 L 50.5 12.5 L 50.5 14.5 L 54.5 14.5 L 58.5 14.5 A 4.0 4.0 90.0 0 1 62.5 18.5 L 62.5 22.5 L 58.5 22.5 L 58.5 19.5 L 54.5 19.5 L 54.5 29.5 L 58.5 29.5 L 58.5 26.5 L 62.5 26.5 L 62.5 34.5 L 50.5 34.5 L 20.5 34.5 L 8.5 34.5 L 8.5 33.5 L 7.5 33.5 A 7.0 7.0 90.0 0 1 0.5 26.5 z"
       style="fill:#00FF00;fill-opacity:1;stroke:#00A000;stroke-width:1.0;stroke-linecap:round;stroke-opacity:1;" />
   </g>
</svg>
