<svg
    xmlns:svg="http://www.w3.org/2000/svg"
    xmlns="http://www.w3.org/2000/svg"
    xmlns:xlink="http://www.w3.org/1999/xlink"
    version="1.1"
    width="114.0"
    height="58.0">
<g
transform="scale(2.0, 2.0)">
      <path d="m0.5 14.5 L 0.5 10.5 A 4.0 4.0 90.0 0 1 4.5 6.5 L 8.5 6.5 L 13.5 0.5 L 18.5 6.5 L 48.5 6.5 L 52.5 6.5 A 4.0 4.0 90.0 0 1 56.5 10.5 L 56.5 14.5 L 52.5 14.5 L 52.5 11.5 L 48.5 11.5 L 48.5 21.5 L 52.5 21.5 L 52.5 18.5 L 56.5 18.5 L 56.5 22.5 A 4.0 4.0 90.0 0 1 52.5 26.5 L 48.5 26.5 L 18.5 26.5 L 17.5 26.5 L 17.5 28.5 L 9.5 28.5 L 9.5 26.5 L 8.5 26.5 L 4.5 26.5 A 4.0 4.0 90.0 0 1 0.5 22.5 L 0.5 18.5 L 0.5 12.5 L 0.5 8.5 z"
       style="fill:#FFFF32;fill-opacity:1;stroke:#BEBF03;stroke-width:1.0;stroke-linecap:round;stroke-opacity:1;" />
   </g>
</svg>
