<svg
    xmlns:svg="http://www.w3.org/2000/svg"
    xmlns="http://www.w3.org/2000/svg"
    xmlns:xlink="http://www.w3.org/1999/xlink"
    version="1.1"
    width="130.0"
    height="126.0">
<g
transform="scale(2.0, 2.0)">
      <path d="m8.5 8.5 L 8.5 4.5 A 4.0 4.0 90.0 0 1 12.5 0.5 L 16.5 0.5 L 26.5 0.5 L 56.5 0.5 L 60.5 0.5 A 4.0 4.0 90.0 0 1 64.5 4.5 L 64.5 8.5 L 60.5 8.5 L 60.5 5.5 L 56.5 5.5 L 56.5 15.5 L 60.5 15.5 L 60.5 12.5 L 64.5 12.5 L 64.5 29.5 L 60.5 29.5 L 60.5 26.5 L 56.5 26.5 L 56.5 36.5 L 60.5 36.5 L 60.5 33.5 L 64.5 33.5 L 64.5 50.5 L 60.5 50.5 L 60.5 47.5 L 56.5 47.5 L 56.5 57.5 L 60.5 57.5 L 60.5 54.5 L 64.5 54.5 L 64.5 58.5 A 4.0 4.0 90.0 0 1 60.5 62.5 L 56.5 62.5 L 26.5 62.5 L 16.5 62.5 L 12.5 62.5 A 4.0 4.0 90.0 0 1 8.5 58.5 L 8.5 54.5 L 8.5 12.5 L 8.5 11.5 L 2.5 11.5 L 2.5 14.5 L 0.5 14.5 L 0.5 6.5 L 2.5 6.5 L 2.5 9.5 L 8.5 9.5 L 8.5 8.5 z"
       style="fill:#00FF00;fill-opacity:1;stroke:#00A000;stroke-width:1.0;stroke-linecap:round;stroke-opacity:1;" />
   </g>
</svg>
