<?xml version="1.0" encoding="UTF-8" standalone="no"?>
<!-- Created with Inkscape (http://www.inkscape.org/) -->

<svg
   xmlns:dc="http://purl.org/dc/elements/1.1/"
   xmlns:cc="http://creativecommons.org/ns#"
   xmlns:rdf="http://www.w3.org/1999/02/22-rdf-syntax-ns#"
   xmlns:svg="http://www.w3.org/2000/svg"
   xmlns="http://www.w3.org/2000/svg"
   version="1.1"
   width="84"
   height="35"
   id="svg2">
  <metadata
     id="metadata12">
    <rdf:RDF>
      <cc:Work
         rdf:about="">
        <dc:format>image/svg+xml</dc:format>
        <dc:type
           rdf:resource="http://purl.org/dc/dcmitype/StillImage" />
        <dc:title></dc:title>
      </cc:Work>
    </rdf:RDF>
  </metadata>
  <defs
     id="defs10" />
  <g
     transform="matrix(2,0,0,2,0,-49)"
     id="g4"
     clip-path="url(#clipPath3036)">
    <path
       d="m 8.5,8.5 0,-4 c 0,-2.0943951 1.905605,-4 4,-4 l 4,0 10,0 7,0 4,0 c 2.094395,0 3.492035,1.9681383 4,4 l 0,4 -4,0 0,-3 -4,0 0,10 4,0 0,-3 4,0 0,17 -4,0 0,-3 -4,0 0,10 4,0 0,-3 4,0 0,4 c 0,2.094395 -1.905605,4 -4,4 l -4,0 -7,0 -10,0 -4,0 c -2.094395,0 -4,-1.905605 -4,-4 l 0,-4 0,-21 0,-1 -6,0 0,3 -2,0 0,-8 2,0 0,3 6,0 z"
       id="path6"
       style="fill:#fe55ff;fill-opacity:1;stroke:#c73ca3;stroke-width:1;stroke-linecap:round;stroke-opacity:1" />
  </g>
</svg>
