<svg
    xmlns:svg="http://www.w3.org/2000/svg"
    xmlns="http://www.w3.org/2000/svg"
    xmlns:xlink="http://www.w3.org/1999/xlink"
    version="1.1"
    width="55.0"
    height="55.0">
<g
transform="scale(2.0, 2.0)">
  <path d="M 27.5 48.3 C 26.9 48.3 26.4 48.2 25.9 48.2 L 27.2 50.5 L 28.6 48.2 C 28.2 48.2 27.9 48.3 27.5 48.3 Z" stroke-width="3.5" fill="#00AA00" stroke="#00FF00" />
   <path d="M 40.2 11.7 C 38.0 11.7 36.2 13.3 35.8 15.3 C 37.7 16.7 39.3 18.4 40.5 20.5 C 42.8 20.4 44.6 18.5 44.6 16.2 C 44.6 13.7 42.6 11.7 40.2 11.7 Z" stroke-width="3.5" fill="#00AA00" stroke="#00FF00" />
   <path d="M 40.7 39.9 C 39.5 42.1 37.9 44.0 35.9 45.4 C 36.4 47.3 38.1 48.7 40.2 48.7 C 42.6 48.7 44.6 46.7 44.6 44.3 C 44.6 42.0 42.9 40.2 40.7 39.9 Z" stroke-width="3.5" fill="#00AA00" stroke="#00FF00" />
   <path d="M 14.3 39.9 C 12.0 40.1 10.2 42.0 10.2 44.3 C 10.2 46.7 12.2 48.7 14.7 48.7 C 16.7 48.7 18.5 47.3 18.9 45.4 C 17.1 43.9 15.5 42.1 14.3 39.9 Z" stroke-width="3.5" fill="#00AA00" stroke="#00FF00" />
   <path d="M 19.0 15.4 C 18.7 13.3 16.9 11.7 14.7 11.7 C 12.2 11.7 10.2 13.7 10.2 16.2 C 10.2 18.5 12.1 20.5 14.5 20.6 C 15.7 18.5 17.2 16.8 19.0 15.4 Z" stroke-width="3.5" fill="#00AA00" stroke="#00FF00" />
<path d="m 27.50,12.56 c 1.91,0 3.73,0.41 5.42,1.13 C 33.66,12.62 34.83,11.27 34.25,10 32.95,7.24 31.19,2.31 27.5,2.31 c -3.69,0 -5.08,4.93 -6.75,7.69 -0.74,1.22 0.44,2.66 1.21,3.74 1.72,-0.75 3.60,-1.18 5.54,-1.18 z" style="fill:#00AA00;stroke:#00FF00;stroke-width:3.5" />   <path d="M 43.1 30.4 C 43.1 35.2 41.5 39.7 38.5 43.0 C 35.6 46.4 31.6 48.3 27.5 48.3 C 23.4 48.3 19.4 46.4 16.5 43.0 C 13.5 39.7 11.9 35.2 11.9 30.4 C 11.9 20.6 18.9 12.6 27.5 12.6 C 36.1 12.6 43.1 20.6 43.1 30.4 Z" stroke-width="3.5" fill="#00AA00" stroke="#00FF00" />
   <path d="M 25.9 33.8 L 24.3 29.1 L 27.5 26.5 L 31.1 29.2 L 29.6 33.8 Z" stroke-width="3.5" fill="#00FF00" stroke="none" />
  <path d="M 27.5 41.6 C 23.5 41.4 22.0 39.5 22.0 39.5 L 25.5 35.4 L 30.0 35.5 L 33.1 39.7 C 33.1 39.7 30.2 41.7 27.5 41.6 Z" stroke-width="3.5" fill="#00FF00" stroke="none" />
   <path d="M 18.5 33.8 C 17.6 30.9 18.6 27.0 18.6 27.0 L 22.6 29.1 L 24.1 33.8 L 20.5 38.0 C 20.5 38.0 19.1 36.0 18.4 33.8 Z" stroke-width="3.5" fill="#00FF00" stroke="none" />
   <path d="M 19.5 25.1 C 19.5 25.1 20.0 23.2 22.5 21.3 C 24.7 19.7 27.0 19.6 27.0 19.6 L 26.9 24.6 L 23.4 27.3 L 19.5 25.1 Z" stroke-width="3.5" fill="#00FF00" stroke="none" />
   <path d="M 32.1 27.8 L 28.6 25.0 L 29 19.8 C 29 19.8 30.8 19.7 33.0 21.4 C 35.2 23.2 36.3 26.4 36.3 26.4 L 32.1 27.8 Z" stroke-width="3.5" fill="#00FF00" stroke="none" />
   <path d="M 31.3 34.0 L 32.6 29.6 L 36.8 28.0 C 36.8 28.0 37.5 30.7 36.8 33.7 C 36.2 36.0 34.7 38.1 34.7 38.1 L 31.3 34.0 Z" stroke-width="3.5" fill="#00FF00" stroke="none" />
   </g>
</svg>
