<?xml version="1.0" encoding="utf-8"?>
<!-- Generator: Adobe Illustrator 16.0.0, SVG Export Plug-In . SVG Version: 6.00 Build 0)  -->
<!DOCTYPE svg PUBLIC "-//W3C//DTD SVG 1.1//EN" "http://www.w3.org/Graphics/SVG/1.1/DTD/svg11.dtd">
<svg version="1.1" id="Layer_1" xmlns="http://www.w3.org/2000/svg" xmlns:xlink="http://www.w3.org/1999/xlink" x="0px" y="0px"
	 width="116px" height="115px" viewBox="0 0 116 115" enable-background="new 0 0 116 115" xml:space="preserve">
<path fill="#FFFFFF" stroke="#000000" stroke-width="6" stroke-miterlimit="10" d="M108,95.153c0,5.99-4.856,10.847-10.847,10.847
	H19.847C13.856,106,9,101.144,9,95.153V17.847C9,11.856,13.856,7,19.847,7h77.307C103.144,7,108,11.856,108,17.847V95.153z"/>
<polygon stroke="#000000" stroke-miterlimit="10" points="63.141,37.235 58.834,35.124 54.653,37.476 55.331,32.727 51.803,29.478 
	56.528,28.654 58.528,24.295 60.771,28.534 65.535,29.089 62.197,32.533 "/>
<g>
	<path d="M33.675,77.854h-8.001v7.312h9.04v4.58H18.868V62.667h15.223v4.58h-8.417v6.228h8.001V77.854z"/>
	<path d="M44.899,83.559l-1.559,6.187h-6.599l7.586-27.079h8.157l6.807,27.079h-6.599l-1.507-6.187H44.899z M50.562,79.461
		l-1.143-5.665c-0.363-1.647-0.831-4.339-1.143-6.147H48.12c-0.364,1.808-0.883,4.621-1.247,6.188l-1.299,5.625H50.562z"/>
	<path d="M62.358,84.362c1.403,0.603,3.793,1.045,5.768,1.045c3.221,0,4.78-1.286,4.78-3.054c0-1.969-1.559-2.933-4.52-4.419
		c-4.78-2.25-6.599-5.102-6.599-7.553c0-4.339,3.741-7.955,11.067-7.955c2.286,0,4.468,0.482,5.507,0.964l-1.091,4.54
		c-0.987-0.482-2.494-0.924-4.468-0.924c-2.91,0-4.313,1.366-4.313,2.812c0,1.607,1.04,2.451,4.832,4.219
		c4.624,2.169,6.339,4.901,6.339,7.754c0,4.942-4.728,8.196-11.586,8.196c-2.806,0-5.559-0.563-6.702-1.085L62.358,84.362z"/>
	<path d="M87.507,89.746V79.38l-7.689-16.713h7.274l2.39,6.469c0.624,1.728,1.299,3.736,1.819,5.745h0.104
		c0.416-1.969,0.987-3.938,1.611-5.866l2.078-6.348h7.066L94.313,79.18v10.566H87.507z"/>
</g>
</svg>
