<?xml version="1.0" encoding="utf-8"?>
<!-- Generator: Adobe Illustrator 16.0.0, SVG Export Plug-In . SVG Version: 6.00 Build 0)  -->
<!DOCTYPE svg PUBLIC "-//W3C//DTD SVG 1.1//EN" "http://www.w3.org/Graphics/SVG/1.1/DTD/svg11.dtd">
<svg version="1.1" id="Layer_1" xmlns="http://www.w3.org/2000/svg" xmlns:xlink="http://www.w3.org/1999/xlink" x="0px" y="0px"
	 width="116px" height="115px" viewBox="0 0 116 115" enable-background="new 0 0 116 115" xml:space="preserve">
<path fill="#FFFFFF" stroke="#000000" stroke-width="6" stroke-miterlimit="10" d="M107,97.153c0,5.99-4.856,10.847-10.847,10.847
	H18.847C12.856,108,8,103.144,8,97.153V19.847C8,13.856,12.856,9,18.847,9h77.307C102.144,9,107,13.856,107,19.847V97.153z"/>
<polygon stroke="#000000" stroke-miterlimit="10" points="62.141,39.235 57.834,37.124 53.653,39.476 54.33,34.727 50.803,31.478 
	55.527,30.654 57.527,26.295 59.771,30.534 64.535,31.089 61.197,34.533 "/>
<polygon stroke="#000000" stroke-miterlimit="10" points="40.141,39.235 35.834,37.124 31.653,39.476 32.33,34.727 28.803,31.478 
	33.527,30.654 35.527,26.295 37.771,30.534 42.535,31.089 39.197,34.533 "/>
<polygon stroke="#000000" stroke-miterlimit="10" points="83.141,39.235 78.834,37.124 74.653,39.476 75.33,34.727 71.803,31.478 
	76.527,30.654 78.527,26.295 80.771,30.534 85.535,31.089 82.197,34.533 "/>
<g>
	<path d="M23.122,64.06v10.946h6.083V64.06h5.816v27.326h-5.816V79.952h-6.083v11.433h-5.817V64.06H23.122z"/>
	<path d="M44.925,85.142l-1.332,6.244h-5.639l6.482-27.326h6.972l5.816,27.326h-5.639l-1.288-6.244H44.925z M49.765,81.006
		l-0.977-5.716c-0.311-1.663-0.71-4.379-0.977-6.203h-0.134c-0.311,1.824-0.755,4.662-1.065,6.244l-1.11,5.676H49.765z"/>
	<path d="M60.511,64.465c1.82-0.324,4.13-0.527,6.35-0.527c3.197,0,6.039,0.405,7.993,2.027c1.82,1.5,2.353,3.325,2.353,5.676
		c0,2.919-1.554,5.554-4.617,6.852v0.081c2.042,0.73,3.063,2.473,3.641,5.392c0.577,3.041,1.377,6.406,1.909,7.419h-6.083
		c-0.355-0.771-1.021-3.527-1.465-6.527c-0.533-3.406-1.466-4.378-3.42-4.378h-0.843v10.906h-5.817V64.465z M66.328,76.384h1.021
		c2.531,0,3.997-1.865,3.997-4.257c0-2.311-1.021-3.973-3.642-4.054c-0.488,0-1.065,0.041-1.376,0.162V76.384z"/>
	<path d="M81.381,64.465c1.466-0.324,3.597-0.527,5.906-0.527c3.773,0,6.394,0.811,8.303,2.433
		c2.575,2.108,3.907,5.716,3.907,11.027c0,5.514-1.554,9.447-4.174,11.555c-1.998,1.784-4.973,2.635-9.146,2.635
		c-1.82,0-3.642-0.162-4.796-0.284V64.465z M87.198,87.169c0.266,0.081,0.71,0.081,1.021,0.081c2.798,0,5.24-2.514,5.24-10.055
		c0-5.595-1.599-9-5.106-9c-0.399,0-0.8,0-1.154,0.122V87.169z"/>
</g>
</svg>
