<?xml version="1.0" encoding="utf-8"?>
<!-- Generator: Adobe Illustrator 16.0.0, SVG Export Plug-In . SVG Version: 6.00 Build 0)  -->
<!DOCTYPE svg PUBLIC "-//W3C//DTD SVG 1.1//EN" "http://www.w3.org/Graphics/SVG/1.1/DTD/svg11.dtd">
<svg version="1.1" id="Layer_1" xmlns="http://www.w3.org/2000/svg" xmlns:xlink="http://www.w3.org/1999/xlink" x="0px" y="0px"
	 width="116px" height="115px" viewBox="0 0 116 115" enable-background="new 0 0 116 115" xml:space="preserve">
<path fill="#FFFFFF" stroke="#000000" stroke-width="6" stroke-miterlimit="10" d="M107,97.653c0,5.99-4.856,10.847-10.847,10.847
	H18.847C12.856,108.5,8,103.644,8,97.653V20.347C8,14.356,12.856,9.5,18.847,9.5h77.307c5.99,0,10.847,4.856,10.847,10.847V97.653z"
	/>
<g>
	<path d="M75.915,60.686c-0.36-6.768-0.792-14.905-0.72-20.953h-0.217c-1.656,5.688-3.672,11.737-6.12,18.434L60.29,81.712h-4.753
		l-7.849-23.114c-2.304-6.84-4.248-13.105-5.616-18.865h-0.145c-0.144,6.048-0.504,14.185-0.936,21.458L39.696,82h-5.977
		l3.384-48.532h7.993l8.28,23.474c2.017,5.976,3.673,11.304,4.896,16.345h0.216c1.225-4.896,2.952-10.225,5.112-16.345l8.641-23.474
		h7.993L83.26,82h-6.121L75.915,60.686z"/>
</g>
</svg>
