<?xml version="1.0" encoding="utf-8"?>
<!-- Generator: Adobe Illustrator 16.0.0, SVG Export Plug-In . SVG Version: 6.00 Build 0)  -->
<!DOCTYPE svg PUBLIC "-//W3C//DTD SVG 1.1//EN" "http://www.w3.org/Graphics/SVG/1.1/DTD/svg11.dtd">
<svg version="1.1" id="Layer_1" xmlns="http://www.w3.org/2000/svg" xmlns:xlink="http://www.w3.org/1999/xlink" x="0px" y="0px"
	 width="116px" height="115px" viewBox="0 0 116 115" enable-background="new 0 0 116 115" xml:space="preserve">
<path fill="#FFFFFF" stroke="#000000" stroke-width="6" stroke-miterlimit="10" d="M108,96.153c0,5.99-4.856,10.847-10.847,10.847
	H19.847C13.856,107,9,102.144,9,96.153V18.847C9,12.856,13.856,8,19.847,8h77.307C103.144,8,108,12.856,108,18.847V96.153z"/>
<polygon stroke="#000000" stroke-miterlimit="10" points="48.141,38.235 43.834,36.124 39.653,38.476 40.331,33.727 36.803,30.478 
	41.528,29.654 43.528,25.295 45.771,29.534 50.535,30.09 47.197,33.533 "/>
<polygon stroke="#000000" stroke-miterlimit="10" points="77.141,38.235 72.834,36.124 68.653,38.476 69.331,33.727 65.803,30.478 
	70.528,29.654 72.528,25.295 74.771,29.534 79.535,30.09 76.197,33.533 "/>
<g>
	<path d="M27.449,76.241c-0.093-2.19-0.249-5.166-0.187-7.631h-0.093c-0.373,2.465-0.935,5.304-1.339,7.084l-1.807,8.246h-2.896
		l-1.745-8.109c-0.405-1.849-0.966-4.723-1.276-7.221h-0.094c-0.063,2.498-0.188,5.407-0.311,7.7l-0.343,8.006h-3.52l1.526-23.063
		h4.298l1.682,8.349c0.592,2.911,1.121,5.477,1.495,8.077h0.063c0.311-2.565,0.779-5.166,1.339-8.077l1.651-8.349h4.297
		l1.278,23.063h-3.645L27.449,76.241z"/>
	<path d="M43.332,74.188h-4.796v6.228h5.419v3.9h-9.5V61.253h9.125v3.9h-5.045v5.305h4.796V74.188z"/>
	<path d="M46.726,61.594c1.028-0.273,2.523-0.443,4.143-0.443c2.646,0,4.484,0.685,5.824,2.053c1.806,1.778,2.741,4.825,2.741,9.31
		c0,4.652-1.09,7.972-2.928,9.752c-1.401,1.505-3.488,2.225-6.416,2.225c-1.276,0-2.554-0.138-3.364-0.241V61.594z M50.806,80.759
		c0.187,0.067,0.499,0.067,0.716,0.067c1.962,0,3.676-2.12,3.676-8.487c0-4.722-1.122-7.597-3.582-7.597
		c-0.281,0-0.562,0-0.811,0.104V80.759z"/>
	<path d="M66.097,61.253v23.063h-4.08V61.253H66.097z"/>
	<path d="M73.696,61.253v14.988c0,3.39,0.934,4.414,1.993,4.414c1.184,0,2.024-0.922,2.024-4.414V61.253h4.08v14.202
		c0,5.921-2.025,9.137-6.073,9.137c-4.392,0-6.104-3.319-6.104-9.103V61.253H73.696z"/>
	<path d="M98.143,76.241c-0.093-2.19-0.249-5.166-0.187-7.631h-0.093c-0.374,2.465-0.935,5.304-1.339,7.084l-1.807,8.246h-2.896
		l-1.745-8.109c-0.405-1.849-0.965-4.723-1.276-7.221h-0.094c-0.062,2.498-0.188,5.407-0.311,7.7l-0.344,8.006h-3.52l1.526-23.063
		h4.298l1.682,8.349c0.593,2.911,1.121,5.477,1.495,8.077h0.063c0.311-2.565,0.778-5.166,1.338-8.077l1.651-8.349h4.297
		l1.277,23.063h-3.645L98.143,76.241z"/>
</g>
</svg>
