<?xml version="1.0" encoding="utf-8"?>
<!-- Generator: Adobe Illustrator 16.0.0, SVG Export Plug-In . SVG Version: 6.00 Build 0)  -->
<!DOCTYPE svg PUBLIC "-//W3C//DTD SVG 1.1//EN" "http://www.w3.org/Graphics/SVG/1.1/DTD/svg11.dtd">
<svg version="1.1" id="Layer_1" xmlns="http://www.w3.org/2000/svg" xmlns:xlink="http://www.w3.org/1999/xlink" x="0px" y="0px"
	 width="195px" height="198px" viewBox="0 0 195 198" enable-background="new 0 0 195 198" xml:space="preserve">
<radialGradient id="SVGID_1_" cx="88.188" cy="92.4976" r="34.7134" gradientUnits="userSpaceOnUse">
	<stop  offset="0" style="stop-color:#FFFFFF"/>
	<stop  offset="0.9603" style="stop-color:#000000"/>
</radialGradient>
<radialGradient id="SVGID_2_" cx="98.0645" cy="101.7568" r="59.7949" gradientUnits="userSpaceOnUse">
	<stop  offset="0" style="stop-color:#FFFFFF"/>
	<stop  offset="0.9458" style="stop-color:#000000"/>
</radialGradient>
<circle fill="url(#SVGID_1_)" stroke="url(#SVGID_2_)" stroke-miterlimit="10" cx="98.064" cy="101.757" r="59.295"/>
<path stroke="#000000" stroke-miterlimit="10" d="M109.5,41.603c0,6.019-4.879,10.897-10.897,10.897h-0.205
	c-6.019,0-10.897-4.879-10.897-10.897V11.397C87.5,5.379,92.379,0.5,98.397,0.5h0.205c6.019,0,10.897,4.879,10.897,10.897V41.603z"
	/>
<path stroke="#000000" stroke-miterlimit="10" d="M109.5,186.603c0,6.019-4.879,10.897-10.897,10.897h-0.205
	c-6.019,0-10.897-4.879-10.897-10.897v-30.205c0-6.019,4.879-10.897,10.897-10.897h0.205c6.019,0,10.897,4.879,10.897,10.897
	V186.603z"/>
<path stroke="#000000" stroke-miterlimit="10" d="M183.603,90.5c6.019,0,10.897,4.879,10.897,10.897v0.205
	c0,6.019-4.879,10.897-10.897,10.897h-30.205c-6.019,0-10.897-4.879-10.897-10.897v-0.205c0-6.019,4.879-10.897,10.897-10.897
	H183.603z"/>
<path stroke="#000000" stroke-miterlimit="10" d="M41.603,90.5c6.019,0,10.897,4.879,10.897,10.897v0.205
	c0,6.019-4.879,10.897-10.897,10.897H11.397c-6.019,0-10.897-4.879-10.897-10.897v-0.205C0.5,95.379,5.379,90.5,11.397,90.5H41.603z
	"/>
<path stroke="#000000" stroke-miterlimit="10" d="M155.774,28.668c2.439-2.439,8.003-1.104,12.259,3.152l0.145,0.145
	c4.256,4.256,5.592,9.819,3.152,12.259l-12.242,12.243c-2.439,2.439-7.867,0.968-12.123-3.288l-0.145-0.145
	c-4.256-4.256-5.729-9.684-3.289-12.123L155.774,28.668z"/>
<path stroke="#000000" stroke-miterlimit="10" d="M40.122,28.668c-2.439-2.439-8.003-1.104-12.259,3.152l-0.145,0.145
	c-4.256,4.256-5.592,9.819-3.152,12.259l12.242,12.242c2.439,2.439,7.867,0.969,12.123-3.287l0.145-0.146
	c4.256-4.256,5.729-9.684,3.289-12.123L40.122,28.668z"/>
<path stroke="#000000" stroke-miterlimit="10" d="M36.774,147.668c2.439-2.439,8.003-1.104,12.259,3.152l0.145,0.146
	c4.256,4.256,5.592,9.819,3.152,12.259l-12.242,12.242c-2.439,2.439-7.867,0.969-12.123-3.287l-0.145-0.146
	c-4.256-4.256-5.729-9.684-3.289-12.123L36.774,147.668z"/>
<path stroke="#000000" stroke-miterlimit="10" d="M159.122,147.668c-2.439-2.439-8.003-1.104-12.259,3.152l-0.145,0.146
	c-4.256,4.256-5.592,9.819-3.152,12.259l12.242,12.242c2.439,2.439,7.867,0.969,12.123-3.287l0.145-0.146
	c4.256-4.256,5.729-9.684,3.289-12.123L159.122,147.668z"/>
</svg>
