<?xml version="1.0" encoding="utf-8"?>
<!-- Generator: Adobe Illustrator 16.0.0, SVG Export Plug-In . SVG Version: 6.00 Build 0)  -->
<!DOCTYPE svg PUBLIC "-//W3C//DTD SVG 1.1//EN" "http://www.w3.org/Graphics/SVG/1.1/DTD/svg11.dtd">
<svg version="1.1" id="Layer_1" xmlns="http://www.w3.org/2000/svg" xmlns:xlink="http://www.w3.org/1999/xlink" x="0px" y="0px"
	 width="116px" height="115px" viewBox="0 0 116 115" enable-background="new 0 0 116 115" xml:space="preserve">
<path fill="#FFFFFF" stroke="#000000" stroke-width="6" stroke-miterlimit="10" d="M108,96.653c0,5.989-4.855,10.847-10.848,10.847
	H19.847C13.856,107.5,9,102.644,9,96.653V19.347C9,13.356,13.856,8.5,19.847,8.5h77.307c5.99,0,10.847,4.856,10.847,10.847
	L108,96.653L108,96.653z"/>
<g enable-background="new    ">
	<path d="M45.608,73.867c2.808,1.729,6.913,3.168,11.233,3.168c6.409,0,10.153-3.384,10.153-8.28c0-4.536-2.592-7.129-9.145-9.648
		c-7.921-2.809-12.817-6.913-12.817-13.754c0-7.561,6.265-13.177,15.697-13.177c4.969,0,8.569,1.152,10.729,2.376l-1.729,5.112
		c-1.584-0.863-4.824-2.304-9.217-2.304c-6.625,0-9.145,3.96-9.145,7.272c0,4.536,2.952,6.769,9.648,9.36
		c8.209,3.169,12.385,7.129,12.385,14.258c0,7.488-5.544,13.969-16.993,13.969c-4.68,0-9.792-1.368-12.385-3.096L45.608,73.867z"/>
</g>
</svg>
