<svg width="55.125" height="55" xmlns="http://www.w3.org/2000/svg">

 <g>
  <title>background</title>
  <rect fill="none" id="canvas_background" height="602" width="802" y="-1" x="-1"/>
 </g>
 <g>
  <title>Layer 1</title>
  <g stroke="null" id="list-add" display="block">
   <path stroke="null" id="svg_1" fill="#000000" d="m46.648895,8.565702c-10.546687,-10.35255 -27.641704,-10.347839 -38.181191,-0.002356c-10.549087,10.353728 -10.550287,27.127449 -0.0024,37.479999c10.547887,10.351372 27.636904,10.350194 38.185991,-0.003533c10.539487,-10.345483 10.545487,-27.122738 -0.0024,-37.47411zm-15.238637,31.944506c-0.0024,2.089354 -1.725582,3.787691 -3.856759,3.785335c-1.066789,0.001178 -2.031578,-0.422817 -2.729971,-1.108276c-0.698393,-0.684281 -1.127988,-1.631204 -1.127988,-2.673525l0,-9.594069l-9.775095,0c-1.063189,-0.001178 -2.026778,-0.422817 -2.725171,-1.107099c-0.698393,-0.686637 -1.130388,-1.634737 -1.130388,-2.680592c0,-2.088176 1.726781,-3.784157 3.860359,-3.781802l9.771495,0l0,-9.590536c-0.0036,-2.09171 1.725582,-3.788868 3.854359,-3.788868c2.128777,0 3.861559,1.693625 3.857959,3.786513l0.0012,9.592892l9.775095,0.001178c2.129977,-0.005889 3.854359,1.693625 3.855559,3.784157c0.0024,2.090532 -1.729181,3.785335 -3.857959,3.786513l-9.771495,0l0,9.588181l-0.0012,0z"/>
  </g>
 </g>
</svg>