<svg width="100" height="100" xmlns="http://www.w3.org/2000/svg">

 <g>
  <title>background</title>
  <rect fill="none" id="canvas_background" height="102" width="102" y="-1" x="-1"/>
 </g>
 <g>
  <title>Layer 1</title>
  <g stroke="null" id="svg_1">
   <path stroke="null" id="svg_2" d="m63.85499,8.7123l-27.21,0c-1.066,0 -1.93,1.03527 -1.93,2.31259l0,32.60512c0,1.27612 0.863,2.31259 1.93,2.31259l27.21,0c1.066,0 1.93,-1.03527 1.93,-2.31259l0,-32.60512c0,-1.27732 -0.863,-2.31259 -1.93,-2.31259zm-23.674,23.5369l10.069,-12.06501l10.07,12.06621l-20.139,0l0,-0.0012zm23.674,17.80934l-27.21,0c-1.066,0 -1.929,1.03527 -1.929,2.31259l0,32.60512c0,1.27612 0.863,2.31139 1.929,2.31139l27.211,0c1.066,0 1.93,-1.03408 1.93,-2.31139l0,-32.60632c-0.001,-1.27612 -0.864,-2.31139 -1.931,-2.31139zm-13.605,26.55764l-10.069,-12.06621l20.14,0l-10.071,12.06621zm-20.859,-26.55764l-27.211,0c-1.065,0 -1.93,1.03527 -1.93,2.31259l0,32.60393c0,1.27732 0.864,2.31379 1.93,2.31379l27.211,0c1.065,0 1.929,-1.03527 1.929,-2.31379l0,-32.60393c0,-1.27732 -0.864,-2.31259 -1.929,-2.31259zm-10.024,30.67956l-10.07,-12.06501l10.07,-12.06501l0,24.13002zm78.953,-30.67956l-27.211,0c-1.065,0 -1.93,1.03527 -1.93,2.31259l0,32.60512c0,1.27612 0.864,2.31259 1.93,2.31259l27.211,0c1.066,0 1.93,-1.03527 1.93,-2.31259l0,-32.60632c0,-1.27612 -0.863,-2.31139 -1.93,-2.31139zm-17.023,30.67956l0,-24.13002l10.069,12.06501l-10.069,12.06501z"/>
  </g>
 </g>
</svg>