<?xml version="1.0" encoding="iso-8859-1"?>
<!-- Generator: Adobe Illustrator 18.0.0, SVG Export Plug-In . SVG Version: 6.00 Build 0)  -->
<!DOCTYPE svg PUBLIC "-//W3C//DTD SVG 1.1//EN" "http://www.w3.org/Graphics/SVG/1.1/DTD/svg11.dtd">
<svg version="1.1" id="Capa_1" xmlns="http://www.w3.org/2000/svg" xmlns:xlink="http://www.w3.org/1999/xlink" x="0px" y="0px"
	 viewBox="0 0 297 297" style="enable-background:new 0 0 297 297;" xml:space="preserve">
<path d="M240.134,60.244c-5.159,0-10.053,1.162-14.453,3.228v-7.169c0-19.298-15.488-34.997-34.525-34.997
	c-5.704,0-11.085,1.419-15.831,3.915C171.141,10.667,157.874,0,142.189,0c-14.554,0-27.023,9.182-32.092,22.128
	c-4.999-2.855-10.759-4.492-16.894-4.492c-19.033,0-34.52,15.704-34.52,35.005v32.573h-5.191c-13.413,0-23.312,6.711-27.872,18.896
	c-3.275,8.754-3.275,18.873-3.275,26.262c0,29.426,0,73.895,22.294,115.672c5.937,11.132,24.468,45.355,24.652,45.701
	c1.754,3.238,5.141,5.256,8.824,5.256h158.267c4.367,0,8.232-2.825,9.559-6.986c1.173-3.676,28.713-90.417,28.713-122.246v-72.52
	C274.654,75.946,259.169,60.244,240.134,60.244z M107.668,85.376c0,5.54,4.493,10.032,10.034,10.032
	c5.541,0,10.033-4.492,10.033-10.032V34.998c0-8.233,6.484-14.931,14.454-14.931c7.968,0,14.45,6.697,14.45,14.931v66.855
	c0,5.541,4.492,10.033,10.032,10.033c5.541,0,10.033-4.492,10.033-10.033V56.303c0-8.232,6.482-14.931,14.45-14.931
	c7.973,0,14.458,6.698,14.458,14.931v62.026c0,5.541,4.493,10.033,10.034,10.033c5.54,0,10.033-4.492,10.033-10.033V95.247
	c0-8.236,6.482-14.938,14.453-14.938s14.455,6.701,14.455,14.938v72.52c0,21.836-16.814,80.795-25.577,109.165H84.094
	c-5.458-10.088-17.251-31.9-21.749-40.333c-19.933-37.352-19.933-77.162-19.933-106.229c0-21.603,3.267-25.09,11.081-25.09h5.191
	v44.762c0,5.54,4.493,10.033,10.033,10.033c5.541,0,10.033-4.493,10.033-10.033V52.641c0-8.237,6.483-14.939,14.453-14.939
	c7.977,0,14.464,6.702,14.464,14.939V85.376z"/>
<g>
</g>
<g>
</g>
<g>
</g>
<g>
</g>
<g>
</g>
<g>
</g>
<g>
</g>
<g>
</g>
<g>
</g>
<g>
</g>
<g>
</g>
<g>
</g>
<g>
</g>
<g>
</g>
<g>
</g>
</svg>
