<svg width="50" height="50" xmlns="http://www.w3.org/2000/svg">
 <g>
  <title>background</title>
  <rect x="-1" y="-1" width="52" height="52" id="canvas_background" fill="none"/>
 </g>

 <g>
  <title>Layer 1</title>
  <g transform="matrix(0.1663015535564172,0,0,0.1658082230541291,3.4473992466812815,0.2190705508453018) " id="svg_1">
   <g id="svg_2">
    <g id="svg_3">
     <path d="m130.26005,1.14711c-82.839,0 -149.995,67.161 -149.995,149.997s67.156,150.003 149.995,150.003s150.003,-67.163 150.003,-150.003s-67.164,-149.997 -150.003,-149.997zm71.306,107.945l-14.247,14.247l-29.001,-28.999l-11.002,11.002l29.001,29.001l-71.132,71.126l-28.999,-28.996l-11.002,11.002l28.999,28.999l-7.088,7.088l-0.135,-0.135c-0.786,1.294 -2.064,2.238 -3.582,2.575l-27.043,6.03c-0.405,0.091 -0.817,0.135 -1.224,0.135c-1.476,0 -2.91,-0.581 -3.973,-1.647c-1.364,-1.359 -1.932,-3.322 -1.512,-5.203l6.027,-27.035c0.34,-1.517 1.286,-2.798 2.578,-3.582l-0.137,-0.137l114.47,-114.475c1.678,-1.675 4.404,-1.675 6.082,0.005l22.922,22.917c1.678,1.678 1.678,4.404 -0.002,6.082z" class="active-path" fill="#000000" id="svg_4"/>
    </g>
   </g>
  </g>
 </g>
</svg>
