<svg width="55.12499999999999" height="55" xmlns="http://www.w3.org/2000/svg">

 <g>
  <title>background</title>
  <rect fill="none" id="canvas_background" height="402" width="582" y="-1" x="-1"/>
 </g>
 <g>
  <title>Layer 1</title>
  <g stroke="null" id="go-left" display="block">
   <g stroke="null" id="svg_1" display="inline">
    <path stroke="null" id="svg_2" fill="#000000" d="m0.333358,27.5c0,14.820337 12.162204,26.833313 27.166642,26.833313c15.005645,0 27.166642,-12.012976 27.166642,-26.833313s-12.160996,-26.833313 -27.166642,-26.833313c-15.004438,0 -27.166642,12.012976 -27.166642,26.833313zm32.932007,-12.411302c0.753422,0.746562 1.133755,1.72568 1.133755,2.708376c0,0.98031 -0.380333,1.961813 -1.133755,2.708376l-7.042801,6.964735l7.005371,6.746491c0.778777,0.751333 1.167562,1.745954 1.167562,2.742961c0,0.963614 -0.368259,1.931999 -1.103569,2.678561c-1.494769,1.509821 -3.949426,1.544406 -5.488869,0.066785l-9.811384,-9.456059c0,-0.002385 0,-0.002385 0,-0.003578c-0.013281,-0.011926 -0.025356,-0.017889 -0.033807,-0.026237c-0.138852,-0.138341 -0.251141,-0.292185 -0.364637,-0.442452c-0.033807,-0.046511 -0.077274,-0.084674 -0.112289,-0.132378c-0.090555,-0.135955 -0.160585,-0.286222 -0.234237,-0.429333c-0.042259,-0.081096 -0.094178,-0.15623 -0.129192,-0.238518c-0.047089,-0.119259 -0.077274,-0.242096 -0.112289,-0.364933c-0.038637,-0.118067 -0.082104,-0.227785 -0.108667,-0.348237c-0.021733,-0.098985 -0.021733,-0.201548 -0.033807,-0.299341c-0.018111,-0.145496 -0.039844,-0.290992 -0.043467,-0.436489c0,-0.084674 0.016904,-0.175311 0.025356,-0.261178c0.008452,-0.158615 0.013281,-0.317229 0.043467,-0.471074c0.016904,-0.089444 0.051918,-0.175311 0.077274,-0.265948c0.042259,-0.147881 0.073652,-0.299341 0.134022,-0.444837c0.038637,-0.098985 0.099007,-0.192007 0.146096,-0.290992c0.066407,-0.126415 0.12557,-0.256407 0.199222,-0.376859c0.07003,-0.100178 0.156963,-0.190815 0.234237,-0.285029c0.077274,-0.102563 0.147304,-0.209896 0.242689,-0.302918c0.003622,-0.005963 0.013281,-0.010733 0.016904,-0.015504c0.00483,-0.008348 0.009659,-0.013119 0.013281,-0.016696l9.816213,-9.710081c1.520125,-1.49551 3.974782,-1.499088 5.497321,0.002385z"/>
   </g>
  </g>
 </g>
</svg>