<?xml version="1.0" encoding="iso-8859-1"?>
<!-- Generator: Adobe Illustrator 19.0.0, SVG Export Plug-In . SVG Version: 6.00 Build 0)  -->
<svg version="1.1" id="Layer_1" xmlns="http://www.w3.org/2000/svg" xmlns:xlink="http://www.w3.org/1999/xlink" x="0px" y="0px"
	 viewBox="0 0 496.158 496.158" style="enable-background:new 0 0 496.158 496.158;" xml:space="preserve">
<path style="fill:#32BEA6;" d="M0,248.085C0,111.064,111.07,0.003,248.076,0.003c137.012,0,248.082,111.061,248.082,248.082
	c0,137.002-111.07,248.07-248.082,248.07C111.07,496.155,0,385.087,0,248.085z"/>
<g>
	<path style="fill:#FFFFFF;" d="M340.061,262.058c0,16.478-13.356,29.829-29.831,29.829H185.928
		c-16.475,0-29.83-13.352-29.83-29.829V137.755c0-16.471,13.355-29.83,29.83-29.83h124.303c16.475,0,29.831,13.359,29.831,29.83
		v124.303H340.061z"/>
	<path style="fill:#FFFFFF;" d="M269.175,308.897c-11.651,11.648-30.544,11.648-42.191,0l-87.895-87.891
		c-11.646-11.652-11.646-30.541,0-42.196l87.895-87.892c11.647-11.648,30.54-11.648,42.191,0l87.896,87.892
		c11.645,11.655,11.645,30.544,0,42.196L269.175,308.897z"/>
</g>
<circle style="fill:#32BEA6;" cx="248.079" cy="199.909" r="82.04"/>
<circle style="fill:#FFFFFF;" cx="248.079" cy="199.909" r="71.38"/>
<polygon style="fill:#32BEA6;" points="248.067,142.284 264.868,176.308 302.417,181.77 275.239,208.253 281.655,245.655 
	248.067,227.997 214.475,245.655 220.892,208.253 193.723,181.77 231.276,176.308 "/>
<g>
	<polygon style="fill:#FFFFFF;" points="215.579,408.72 149.913,385.386 211.913,285.553 246.579,285.553 	"/>
	<polygon style="fill:#FFFFFF;" points="280.579,408.72 346.245,385.386 284.245,285.553 249.579,285.553 	"/>
</g>
<g>
</g>
<g>
</g>
<g>
</g>
<g>
</g>
<g>
</g>
<g>
</g>
<g>
</g>
<g>
</g>
<g>
</g>
<g>
</g>
<g>
</g>
<g>
</g>
<g>
</g>
<g>
</g>
<g>
</g>
</svg>
