<svg width="60" height="60" xmlns="http://www.w3.org/2000/svg">

 <g>
  <title>background</title>
  <rect fill="none" id="canvas_background" height="602" width="802" y="-1" x="-1"/>
 </g>
 <g>
  <title>Layer 1</title>
  <g id="svg_1" transform="matrix(0.9714246495747482,0,0,0.9672958514866274,0.7322496784358048,0.9811171261933833) ">
   <path id="svg_2" fill="#000000" class="active-path" d="m30,0c-16.542,0 -30,13.458 -30,30s13.458,30 30,30s30,-13.458 30,-30s-13.458,-30 -30,-30zm15.563,30.826l-22,15c-0.169,0.115 -0.366,0.174 -0.563,0.174c-0.16,0 -0.321,-0.038 -0.467,-0.116c-0.328,-0.173 -0.533,-0.513 -0.533,-0.884l0,-30c0,-0.371 0.205,-0.711 0.533,-0.884c0.328,-0.174 0.724,-0.15 1.031,0.058l22,15c0.272,0.186 0.436,0.495 0.436,0.826s-0.164,0.64 -0.437,0.826z"/>
  </g>
 </g>
</svg>