<svg id="Layer_1" style="fill:#ffffff" enable-background="new 0 0 511.449 511.449" height="512" viewBox="0 0 511.449 511.449" width="512" xmlns="http://www.w3.org/2000/svg"><path d="m436.508 74.941c-99.912-99.914-261.64-99.93-361.567 0-99.913 99.913-99.928 261.639 0 361.566 99.912 99.914 261.64 99.93 361.567 0 99.913-99.912 99.928-261.638 0-361.566zm-308.784 95.784c27.443 0 54.648 9.068 76.604 25.535 16.144 12.106 7.48 37.801-12.616 37.801-4.385 0-8.806-1.367-12.583-4.201-14.733-11.05-32.989-17.135-51.404-17.135-11.598 0-21-9.402-21-21s9.401-21 20.999-21zm0 170c-11.598 0-21-9.402-21-21s9.402-21 21-21c26.821 0 52.441-12.811 68.534-34.267l32-42.667c20.536-27.38 51.484-45.3 85.05-49.889-5.86-8.203-5.13-19.663 2.234-27.027 8.201-8.201 21.497-8.201 29.698 0 33.845 33.845 36.59 34.629 37.913 43.854.769 5.363-.504 10.474-3.301 14.657-1.625 2.428.071.504-34.613 35.188-4.101 4.101-9.475 6.15-14.849 6.15-15.317 0-25.489-15.897-19.034-29.826-19.562 4.498-37.279 15.799-49.499 32.092l-32 42.667c-23.982 31.977-62.162 51.068-102.133 51.068zm251.48-8.456c-1.413 1.889 1.681-1.34-33.964 34.305-8.201 8.201-21.499 8.2-29.698 0-7.367-7.367-8.094-18.835-2.225-27.038-21.474-2.935-42.148-11.311-59.529-24.347-9.279-6.958-11.159-20.121-4.201-29.399 6.959-9.278 20.122-11.16 29.4-4.2 9.602 7.201 20.703 12.277 32.366 14.951-3.594-7.765-2.213-17.264 4.189-23.666 8.201-8.201 21.497-8.201 29.698 0 34.694 34.694 35.213 34.048 37.245 40.753 1.989 6.582.581 13.466-3.281 18.641z"/></svg>
