<svg width="511.449" height="511.449" xmlns="http://www.w3.org/2000/svg">

 <g>
  <title>background</title>
  <rect fill="none" id="canvas_background" height="602" width="802" y="-1" x="-1"/>
 </g>
 <g>
  <title>Layer 1</title>
  <path fill="#ffffff" stroke="null" id="svg_1" d="m405.52312,101.9514c-83.89318,-85.26239 -219.69145,-85.27605 -303.59723,0c-83.89402,85.26154 -83.90662,223.27169 0,308.54518c83.89318,85.26239 219.69145,85.27605 303.59723,0c83.89402,-85.26069 83.90662,-223.27084 0,-308.54518zm-259.27689,81.73803c23.04308,0 45.88633,7.73825 64.32214,21.79049c13.55564,10.33075 6.28074,32.25778 -10.59329,32.25778c-3.68196,0 -7.39414,-1.16654 -10.56558,-3.58496c-12.37087,-9.4296 -27.6999,-14.62229 -43.16243,-14.62229c-9.7385,0 -17.63309,-8.02327 -17.63309,-17.92051s7.89374,-17.92051 17.63225,-17.92051zm0,145.07083c-9.7385,0 -17.63309,-8.02327 -17.63309,-17.92051s7.89458,-17.92051 17.63309,-17.92051c22.52081,0 44.03317,-10.93237 57.54599,-29.24201l26.86946,-36.41022c17.24348,-23.36494 43.22961,-38.65711 71.414,-42.57317c-4.92047,-7.00009 -4.30751,-16.77958 1.87582,-23.0637c6.88614,-6.99839 18.0504,-6.99839 24.93654,0c28.41866,28.8819 30.72355,29.55093 31.83444,37.42315c0.64571,4.57656 -0.42319,8.93807 -2.77175,12.50767c-1.36446,2.07195 0.05962,0.43009 -29.06352,30.02796c-3.44349,3.49962 -7.95588,5.24815 -12.46827,5.24815c-12.86124,0 -21.40237,-13.56583 -15.98229,-25.45225c-16.42564,3.8384 -31.30209,13.4822 -41.56286,27.38596l-26.86946,36.41022c-20.13698,27.28782 -52.19561,43.57928 -85.75809,43.57928zm211.1604,-7.21599c-1.18645,1.61199 1.41149,-1.1435 -28.51858,29.27444c-6.88614,6.99839 -18.05208,6.99753 -24.93654,0c-6.18585,-6.28669 -6.79629,-16.07299 -1.86827,-23.07309c-18.03109,-2.50461 -35.39044,-9.65233 -49.98476,-20.7767c-7.7913,-5.93766 -9.36989,-17.17041 -3.52746,-25.08787c5.84327,-7.91745 16.89585,-9.52347 24.68632,-3.5841c8.06252,6.14503 17.3837,10.47667 27.17678,12.75855c-3.01778,-6.62632 -1.85819,-14.73237 3.51738,-20.19557c6.88614,-6.99839 18.0504,-6.99839 24.93654,0c29.13154,29.6064 29.56733,29.05513 31.27354,34.77689c1.67011,5.6168 0.48785,11.49132 -2.75496,15.90744z"/>
 </g>
</svg>
