<?xml version="1.0" encoding="iso-8859-1"?>
<!-- Generator: Adobe Illustrator 17.1.0, SVG Export Plug-In . SVG Version: 6.00 Build 0)  -->
<!DOCTYPE svg PUBLIC "-//W3C//DTD SVG 1.1//EN" "http://www.w3.org/Graphics/SVG/1.1/DTD/svg11.dtd">
<svg version="1.1" id="Capa_1" xmlns="http://www.w3.org/2000/svg" xmlns:xlink="http://www.w3.org/1999/xlink" x="0px" y="0px"
	 viewBox="0 0 362.001 362.001" style="enable-background:new 0 0 362.001 362.001;" xml:space="preserve">
<g>
	<path d="M225.811,150.241c-2.587-3.473-3.17-7.236-1.601-10.362c1.564-3.115,4.931-4.879,9.237-4.879h28.638
		c-16.02-28-46.134-46.794-80.568-46.794c-41.431,0-76.605,27.277-88.503,64.823l43.513,58.522
		c2.597,3.489,3.176,7.327,1.586,10.492c-1.576,3.137-4.938,4.957-9.225,4.957h-27.992c16.007,28,46.148,46.84,80.62,46.84
		c41.258,0,76.31-27.074,88.351-64.378L225.811,150.241z"/>
	<path d="M181,0C81.196,0,0,81.196,0,181.001c0,99.804,81.196,181,181,181s181-81.196,181-181C362.001,81.196,280.805,0,181,0z
		 M301.814,205.818c-11.509,55.865-61.074,98.022-120.296,98.022c-51.481,0-95.659-31.84-113.89-76.84H34.447
		c-4.194,0-7.584-1.799-9.303-4.893c-1.736-3.127-1.438-7.009,0.818-10.63l35.717-57.385C73.984,99.274,123.04,58.21,181.518,58.21
		C232.964,58.21,277.115,90,295.37,135h32.52c4.215,0,7.611,1.74,9.319,4.817c1.715,3.088,1.411,6.913-0.833,10.516L301.814,205.818
		z"/>
</g>
<g>
</g>
<g>
</g>
<g>
</g>
<g>
</g>
<g>
</g>
<g>
</g>
<g>
</g>
<g>
</g>
<g>
</g>
<g>
</g>
<g>
</g>
<g>
</g>
<g>
</g>
<g>
</g>
<g>
</g>
</svg>
