<?xml version="1.0" encoding="iso-8859-1"?>
<!-- Generator: Adobe Illustrator 16.0.0, SVG Export Plug-In . SVG Version: 6.00 Build 0)  -->
<!DOCTYPE svg PUBLIC "-//W3C//DTD SVG 1.1//EN" "http://www.w3.org/Graphics/SVG/1.1/DTD/svg11.dtd">
<svg version="1.1" id="Capa_1" xmlns="http://www.w3.org/2000/svg" xmlns:xlink="http://www.w3.org/1999/xlink" x="0px" y="0px"
	 width="542.105px" height="542.105px" viewBox="0 0 542.105 542.105" style="enable-background:new 0 0 542.105 542.105;"
	 xml:space="preserve">
<g>
	<path d="M461.509,120.642H80.593c-12.102,0-21.949,9.84-21.949,21.936v256.947c0,12.105,9.84,21.951,21.949,21.951h380.916
		c12.1,0,21.945-9.84,21.945-21.951V142.578C483.448,130.482,473.608,120.642,461.509,120.642z M218.038,226.249
		c-0.911,1.228-2.545,1.684-3.973,1.124l-42.6-16.831v98.608c0,1.875-1.52,3.422-3.41,3.41h-34.139
		c-1.882,0-3.404-1.535-3.416-3.423l0.012-98.589l-42.6,16.818c-1.428,0.56-3.047,0.097-3.976-1.124
		c-0.932-1.227-0.932-2.91,0.012-4.141l64.323-83.665c0.648-0.84,1.659-1.327,2.713-1.327c1.06-0.012,2.064,0.487,2.707,1.327
		l64.323,83.671c0.478,0.625,0.715,1.367,0.709,2.083C218.723,224.916,218.497,225.631,218.038,226.249z M502.666,61.102H39.434
		C17.659,61.102,0,78.76,0,100.532v341.026c0,21.787,17.659,39.445,39.434,39.445h463.238c21.774,0,39.434-17.658,39.434-39.445
		V100.532C542.105,78.76,524.446,61.102,502.666,61.102z M499,399.525c0,20.666-16.817,37.491-37.491,37.491H80.593
		c-20.67,0-37.494-16.818-37.494-37.491V142.578c0-20.663,16.818-37.488,37.494-37.488h380.916
		c20.667,0,37.491,16.818,37.491,37.488V399.525z"/>
</g>
<g>
</g>
<g>
</g>
<g>
</g>
<g>
</g>
<g>
</g>
<g>
</g>
<g>
</g>
<g>
</g>
<g>
</g>
<g>
</g>
<g>
</g>
<g>
</g>
<g>
</g>
<g>
</g>
<g>
</g>
</svg>
