<svg width="400" height="400" xmlns="http://www.w3.org/2000/svg">

 <metadata>image/svg+xmlOpenclipartTangram2013-10-14T19:20:48A tangram; a Chinese puzzle in blackhttps://openclipart.org/detail/184915/tangram-by-dominiquechappard-184915dominiquechappardTangramblackchinesepeoplepuzzleshape</metadata>
 <g>
  <title>background</title>
  <rect fill="none" id="canvas_background" height="402" width="402" y="-1" x="-1"/>
 </g>
 <g>
  <title>Layer 1</title>
  <g stroke="#000000" id="layer6">
   <path stroke="#000000" fill="#ffffff" d="m381.999995,187.474016l-213.668755,121.554829l213.668755,0l0,-121.554829z" id="path3934"/>
   <path stroke="#000000" fill="#ffffff" d="m79.823846,187.405253l302.176149,0l-151.088075,-85.953068l-151.088075,85.953068z" id="path4704"/>
   <path stroke="#000000" fill="#ffffff" d="m17.500016,309.028845l151.088075,0l-75.544037,42.976534l-75.544037,-42.976534z" id="path4707"/>
   <path stroke="#000000" fill="#ffffff" d="m340.904039,308.848344l-75.544037,74.439655l103.193155,-15.733709l-27.649118,-58.705946z" id="path4709"/>
   <path stroke="#000000" fill="#ffffff" d="m381.93956,187.439635l-213.668755,0l106.834377,60.777415l106.834377,-60.777415z" id="path4731"/>
   <path stroke="#000000" fill="#ffffff" d="m79.869173,77.21256l96.824793,-25.685785l45.152671,55.083024l-96.824793,25.687074l-45.152671,-55.084313z" id="path4733"/>
   <path stroke="#000000" fill="#ffffff" d="m306.455958,58.476511l-75.544037,-42.976534l0,85.953068l75.544037,42.976534l0,-85.953068z" id="path4738"/>
  </g>
 </g>
</svg>
