<svg id="SvgjsSvg1001" width="288" height="288" xmlns="http://www.w3.org/2000/svg" version="1.1" xmlns:xlink="http://www.w3.org/1999/xlink" xmlns:svgjs="http://svgjs.com/svgjs"><defs id="SvgjsDefs1002"></defs><g id="SvgjsG1008" transform="matrix(0.9167,0,0,0.9167,11.995172036743156,11.995200000000011)"><svg xmlns="http://www.w3.org/2000/svg" enable-background="new 0 0 445.462 445.462" viewBox="0 0 445.462 445.462" width="288" height="288"><path d="M380.225,65.236C338.157,23.168,282.225,0,222.731,0S107.305,23.168,65.237,65.236S0,163.237,0,222.731
		s23.168,115.426,65.236,157.495s98.001,65.236,157.495,65.236s115.426-23.168,157.494-65.236
		c42.068-42.068,65.236-98.001,65.236-157.495S422.294,107.305,380.225,65.236z M222.731,415.462
		C116.459,415.462,30,329.003,30,222.731S116.459,30,222.731,30s192.73,86.459,192.73,192.731S329.003,415.462,222.731,415.462z" fill="#fa0000" class="color000 svgShape"></path><path d="M222.731,50.257c-95.103,0-172.475,77.372-172.475,172.474s77.372,172.475,172.475,172.475
		c95.103,0,172.474-77.372,172.474-172.475S317.834,50.257,222.731,50.257z M222.731,375.206
		c-84.075,0-152.475-68.4-152.475-152.475s68.4-152.474,152.475-152.474s152.474,68.4,152.474,152.474
		S306.806,375.206,222.731,375.206z" fill="#fa0000" class="color000 svgShape"></path><path d="M222.731 134c-8.284 0-15 6.716-15 15v58.731h-16.997c-8.284 0-15 6.716-15 15s6.716 15 15 15h31.997c8.284 0 15-6.716 15-15V149C237.731 140.716 231.015 134 222.731 134zM110.286 212.731H89.184c-5.523 0-10 4.477-10 10s4.477 10 10 10h21.102c5.523 0 10-4.477 10-10S115.809 212.731 110.286 212.731zM356.278 212.731h-21.102c-5.523 0-10 4.477-10 10s4.477 10 10 10h21.102c5.523 0 10-4.477 10-10S361.801 212.731 356.278 212.731zM222.731 120.286c5.523 0 10-4.477 10-10V89.184c0-5.523-4.477-10-10-10s-10 4.477-10 10v21.102C212.731 115.809 217.208 120.286 222.731 120.286zM222.731 325.176c-5.523 0-10 4.477-10 10v21.102c0 5.523 4.477 10 10 10s10-4.477 10-10v-21.102C232.731 329.653 228.254 325.176 222.731 325.176z" fill="#fa0000" class="color000 svgShape"></path></svg></g></svg>