<?xml version="1.0"?>
<svg xmlns="http://www.w3.org/2000/svg" xmlns:xlink="http://www.w3.org/1999/xlink" xmlns:svgjs="http://svgjs.com/svgjs" version="1.1" width="512" height="512" x="0" y="0" viewBox="0 0 339.039 339.039" style="enable-background:new 0 0 512 512" xml:space="preserve" class=""><g>
<g xmlns="http://www.w3.org/2000/svg">
	<path style="" d="M169.519,0C75.897,0,0,75.897,0,169.519s75.897,169.519,169.519,169.519   s169.519-75.902,169.519-169.525S263.142,0,169.519,0z M173.403,36.621c2.774-4.852,7.577-7.31,14.272-7.31   s11.498,2.458,14.272,7.31c2.551,4.455,3.84,10.764,3.84,18.738c0,7.979-1.294,14.272-3.845,18.705   c-2.774,4.83-7.577,7.272-14.267,7.272s-11.493-2.448-14.267-7.272c-2.551-4.433-3.845-10.731-3.845-18.705   S170.852,41.076,173.403,36.621z M59.71,183.498c0.136,0.071-0.441,1.05-0.441,2.796c0,3.943-2.97,7.147-6.619,7.147   s-6.619-3.204-6.619-7.147c0-1.545-1.463-2.796-3.263-2.796h-7.419c-4.27,0-7.615-2.698-7.615-6.141   c0-2.605,1.349-6.799,3.133-9.747l11.351-18.738c1.936-3.198,6.233-5.7,9.779-5.7c4.009,0,7.272,3.416,7.272,7.615v17.998   c0,2.04,0.631,3.193,0.859,3.383c2.322-0.098,4.368,2.399,4.368,5.613C64.496,180.996,62.397,183.498,59.71,183.498z    M95.722,188.812c-3.166,3.873-7.865,5.836-13.978,5.836c-4.895,0-9.007-1.36-12.222-4.041c-1.806-1.507-3.187-3.383-4.117-5.575   c-0.821-1.947-0.658-4.025,0.451-5.695c1.088-1.637,2.91-2.611,4.873-2.611c3.318,0,6.298,1.55,7.234,3.775   c0.256,0.593,0.571,1.093,0.936,1.474c0.593,0.626,1.534,0.93,2.872,0.93c2.04,0,2.915-0.854,3.394-1.496   c0.897-1.207,1.333-2.741,1.333-4.678c0-1.925-0.419-3.486-1.278-4.759c-0.43-0.636-1.246-1.479-3.35-1.479   c-0.854,0-1.583,0.103-2.159,0.299c-0.424,0.152-0.805,0.375-1.137,0.674c-1.387,1.235-4.041,2.099-6.456,2.099   c-1.98-0.082-3.356-0.783-4.357-1.974c-1.294-1.539-1.871-3.753-1.577-6.07l1.871-14.734c0.522-4.09,4.161-7.299,8.284-7.299   h14.549c4.27,0,7.615,2.649,7.615,6.032c0,3.383-3.345,6.032-7.615,6.032h-7.995c-1.947,0-3.835,1.479-4.117,3.225   c-0.044,0.261-0.076,0.5-0.103,0.723c1.49-0.495,3.236-0.745,5.211-0.745c4.357,0,8.208,1.485,11.449,4.417   c3.302,2.991,4.982,7.31,4.982,12.831C100.318,180.762,98.773,185.075,95.722,188.812z M133.725,48.31   c0.566-4.199,1.702-7.778,3.372-10.628c1.49-2.524,3.47-4.58,5.891-6.119c2.48-1.583,5.45-2.382,8.833-2.382   c4.808,0,8.741,1.289,11.683,3.829c1.534,1.322,2.736,2.888,3.579,4.656c0.843,1.762,0.756,3.682-0.245,5.27   c-1.039,1.648-2.948,2.676-4.982,2.676c-1.741,0-5.891-0.261-6.815-2.681c-0.092-0.239-0.223-0.495-0.402-0.767   c-0.354-0.522-0.995-1.169-2.6-1.169c-1.36,0-3.079,0.408-4.275,3.568c-0.25,0.669-0.473,1.517-0.664,2.518   c0.103-0.044,0.207-0.092,0.31-0.131c1.751-0.723,3.742-1.093,5.934-1.093c4.705,0,8.632,1.632,11.672,4.857   c3.008,3.187,4.531,7.283,4.531,12.167c0,4.786-1.452,9.078-4.313,12.749c-2.991,3.835-7.598,5.776-13.701,5.776   c-6.636,0-11.602-2.828-14.767-8.398c-2.328-4.117-3.503-9.431-3.503-15.795C133.263,53.602,133.42,50.605,133.725,48.31z    M166.735,303.989c-3.127,3.421-7.707,5.156-13.625,5.156c-7.326,0-12.542-2.513-15.496-7.468c-0.843-1.436-1.479-3.1-1.909-4.95   c-0.397-1.757,0.005-3.557,1.115-4.944c1.175-1.474,2.959-2.317,4.895-2.317c3.568,0,6.364,1.702,6.793,4.145   c0.114,0.642,0.283,1.197,0.511,1.659c0.49,0.995,1.392,2.132,4.058,2.132c1.24,0,2.252-0.402,3.182-1.256   c0.865-0.794,1.284-2.002,1.284-3.671c0-2.752-1.251-3.628-2.344-4.079c-0.419-0.174-1.229-0.413-2.643-0.555   c-3.024-0.31-5.303-2.703-5.303-5.564c0-2.872,2.176-5.27,5.064-5.58c1.441-0.158,2.099-0.386,2.371-0.506   c0.827-0.364,1.746-1.077,1.746-3.438c0-1.202-0.315-2.127-0.963-2.823c-0.598-0.647-1.501-0.963-2.741-0.963   c-1.893,0-2.605,0.664-2.975,1.159c-0.364,0.495-0.625,1.088-0.8,1.811c-0.62,2.616-3.41,4.52-6.63,4.52   c-2.012,0-3.883-0.8-5.009-2.148c-0.897-1.072-1.256-2.388-1.023-3.72c0.218-1.213,0.517-2.393,0.908-3.541   c0.908-2.214,2.257-4.145,4.058-5.874c0.767-0.696,1.561-1.278,2.404-1.768c1.485-0.865,4.134-1.735,6.016-1.98   c1.023-0.136,2.138-0.201,3.334-0.201c4.917,0,8.985,1.327,12.086,3.938c3.204,2.709,4.83,6.358,4.83,10.856   c0,3.242-0.995,6.037-2.948,8.305c-0.228,0.261-0.451,0.5-0.68,0.729c0.294,0.239,0.582,0.495,0.887,0.772   c2.779,2.573,4.183,6.07,4.183,10.399C171.363,296.663,169.808,300.622,166.735,303.989z M204.074,301.868   c-2.774,4.83-7.577,7.272-14.267,7.272s-11.493-2.448-14.267-7.272c-2.551-4.433-3.845-10.731-3.845-18.705   s1.289-14.278,3.84-18.738c2.774-4.852,7.577-7.31,14.272-7.31s11.498,2.458,14.272,7.31c2.551,4.455,3.84,10.764,3.84,18.738   C207.914,291.137,206.625,297.435,204.074,301.868z M248.19,252.895c-1.05,0.99-2.388,1.479-3.731,1.479   c-1.447,0-2.888-0.571-3.96-1.708l-68.489-72.584c-0.821,0.19-1.653,0.315-2.497,0.315c-2.545,0-5.102-0.892-7.169-2.703   c-4.514-3.965-4.966-10.835-1.001-15.349l47.82-54.478c3.96-4.514,10.829-4.966,15.349-1.001   c4.514,3.965,4.966,10.835,1.001,15.349l-44.889,51.138l67.793,71.85C250.48,247.39,250.376,250.833,248.19,252.895z    M264.714,186.576c0,4.199-3.062,7.615-6.826,7.615c-3.764,0-6.826-3.416-6.826-7.615v-20.989c0-1.8-1.463-3.263-3.258-3.263   c-4.335,0-7.609-2.263-7.609-5.265c0-2.817,2.197-5.211,5.004-5.439c1.186-0.098,2.083-0.207,2.698-0.343   c1.409-0.315,2.502-0.897,3.345-1.795c0.544-0.571,0.968-1.387,1.273-2.431c0.076-0.272,0.141-0.522,0.19-0.745   c0.37-1.773,2.399-2.665,6.043-2.665c3.345,0,5.967,3.345,5.967,7.615V186.576z M308.15,150.265c0,3.383-3.345,6.032-7.615,6.032   h-7.995c-1.947,0-3.835,1.479-4.117,3.225c-0.044,0.261-0.076,0.5-0.103,0.723c1.49-0.495,3.236-0.745,5.211-0.745   c4.357,0,8.208,1.485,11.449,4.417c3.301,2.991,4.982,7.31,4.982,12.831c0,4.759-1.545,9.072-4.596,12.814   c-3.166,3.873-7.865,5.836-13.978,5.836c-4.895,0-9.007-1.36-12.222-4.041c-1.806-1.507-3.187-3.383-4.117-5.575   c-0.821-1.947-0.658-4.025,0.451-5.695c1.088-1.637,2.91-2.611,4.873-2.611c3.318,0,6.298,1.55,7.234,3.775   c0.256,0.593,0.571,1.093,0.936,1.474c0.593,0.626,1.534,0.93,2.872,0.93c2.04,0,2.915-0.854,3.394-1.496   c0.897-1.207,1.333-2.741,1.333-4.678c0-1.925-0.419-3.486-1.278-4.759c-0.43-0.636-1.246-1.479-3.35-1.479   c-0.854,0-1.583,0.103-2.159,0.299c-0.424,0.152-0.805,0.375-1.137,0.674c-1.387,1.235-4.041,2.099-6.456,2.099   c-1.98-0.082-3.356-0.783-4.357-1.974c-1.294-1.539-1.871-3.753-1.577-6.07l1.871-14.734c0.522-4.09,4.161-7.299,8.284-7.299   h14.549C304.805,144.233,308.15,146.882,308.15,150.265z" fill="#ffffff" data-original="#010002" class=""/>
	<path style="" d="M189.807,268.956c-1.751,0-2.703,0.729-3.285,2.513c-0.794,2.448-1.202,6.38-1.202,11.694   c0,2.491,0.098,4.705,0.299,6.63c0.348,3.367,1.398,6.385,2.132,6.984c0.506,0.419,1.18,0.625,2.056,0.625   c1.256,0,2.524-0.326,3.22-2.671c0.778-2.6,1.169-6.494,1.169-11.569c0-5.319-0.392-9.263-1.159-11.716   C192.478,269.68,191.548,268.956,189.807,268.956z" fill="#ffffff" data-original="#010002" class=""/>
	<path style="" d="M40.945,171.749c0.033,0.06,0.343,0.288,1.159,0.288h0.658c1.8,0,3.263-1.463,3.263-3.263v-6.369   l-4.754,8.197C40.864,171.309,40.913,171.695,40.945,171.749z" fill="#ffffff" data-original="#010002" class=""/>
	<path style="" d="M154.692,68.239c0.859-1.126,1.294-2.671,1.294-4.591c0-2.121-0.473-3.715-1.403-4.727   c-0.908-0.99-1.936-1.447-3.242-1.447c-1.061,0-1.964,0.31-2.768,0.936c-1.246,0.963-1.844,2.594-1.844,4.982   c0,1.969,0.49,3.503,1.49,4.678C150.015,70.18,153.153,70.262,154.692,68.239z" fill="#ffffff" data-original="#010002" class=""/>
	<path style="" d="M185.613,68.973c0.506,0.419,1.18,0.62,2.056,0.62c1.256,0,2.524-0.326,3.22-2.671   c0.778-2.6,1.169-6.494,1.169-11.569c0-5.319-0.392-9.263-1.159-11.716c-0.555-1.768-1.49-2.491-3.231-2.491   c-1.751,0-2.703,0.729-3.285,2.513c-0.794,2.448-1.202,6.38-1.202,11.694c0,2.491,0.098,4.705,0.299,6.63   C183.829,65.35,184.885,68.369,185.613,68.973z" fill="#ffffff" data-original="#010002" class=""/>
</g>
<g xmlns="http://www.w3.org/2000/svg">
</g>
<g xmlns="http://www.w3.org/2000/svg">
</g>
<g xmlns="http://www.w3.org/2000/svg">
</g>
<g xmlns="http://www.w3.org/2000/svg">
</g>
<g xmlns="http://www.w3.org/2000/svg">
</g>
<g xmlns="http://www.w3.org/2000/svg">
</g>
<g xmlns="http://www.w3.org/2000/svg">
</g>
<g xmlns="http://www.w3.org/2000/svg">
</g>
<g xmlns="http://www.w3.org/2000/svg">
</g>
<g xmlns="http://www.w3.org/2000/svg">
</g>
<g xmlns="http://www.w3.org/2000/svg">
</g>
<g xmlns="http://www.w3.org/2000/svg">
</g>
<g xmlns="http://www.w3.org/2000/svg">
</g>
<g xmlns="http://www.w3.org/2000/svg">
</g>
<g xmlns="http://www.w3.org/2000/svg">
</g>
</g></svg>
