<svg width="65" height="64" xmlns="http://www.w3.org/2000/svg">
 <!-- Created with Method Draw - http://github.com/duopixel/Method-Draw/ -->
 <g>
  <title>background</title>
  <rect fill="none" id="canvas_background" height="66" width="67" y="-1" x="-1"/>
  <g display="none" overflow="visible" y="0" x="0" height="100%" width="100%" id="canvasGrid">
   <rect fill="url(#gridpattern)" stroke-width="0" y="0" x="0" height="100%" width="100%"/>
  </g>
 </g>
 <g>
  <title>Layer 1</title>
  <path id="svg_1" d="m32.251053,2.249551c-16.565941,0 -30.001495,13.481017 -30.001495,30.113879c0,16.629829 13.435555,30.113873 30.001495,30.113873c16.566425,0 29.995483,-13.484043 29.995483,-30.113873c0,-16.632862 -13.429058,-30.113879 -29.995483,-30.113879zm6.519398,45.175612c-0.163815,0.132816 -0.377831,0.268692 -0.220238,0.426796c0.163765,0.161263 -0.183125,0.271992 -0.183125,0.354038s0.214088,0.509018 0.107437,0.695644c-0.107437,0.189602 -0.189217,0.461563 -0.271137,0.622772c-0.082176,0.161224 -0.270412,0.322529 -0.213982,0.562775c0.049984,0.240326 -0.213909,0.161201 -0.213909,0.404678c0,0.2402 0.239292,0.132725 0.188408,0.429985c-0.056492,0.297157 -0.188408,0.379414 -0.188408,0.591103c0,0.215164 0.131916,0.509083 0.131916,0.591309s-0.131916,0.350956 -0.321285,0.56279c-0.18856,0.214924 -0.321266,0.354027 -0.295841,0.483715c0.031864,0.135983 0.21373,0.297138 0.188286,0.382484c-0.024574,0.076004 -0.263981,0.347805 -0.238556,0.534405c0.024845,0.186497 0.264,0.110641 0.32069,0.240211c0.050949,0.135944 -0.32069,0.246586 -0.163139,0.379402c0.163139,0.132744 0.37793,0.107491 0.320522,0.433235c-0.037426,0.230682 0.132935,0.334984 0.26495,0.4077c-1.839027,0.458549 -3.754448,0.73032 -5.731987,0.73032c-13.12674,0 -23.810097,-10.717674 -23.810097,-23.895096c0,-4.296524 1.152634,-8.321215 3.137436,-11.805208c0.163734,-0.085337 0.283012,-0.142309 0.352287,-0.12648c0.132805,0.025345 0.163742,0.21493 0.377747,0.268721c0.214706,0.053787 0.40329,-0.161247 0.536118,-0.243376c0.132034,-0.079098 0.239372,-0.40469 0.10659,-0.376289c-0.138496,0.025331 -0.485359,0 -0.485359,0s0.378769,-0.215048 0.378769,-0.350927s0.050179,-0.350941 0.263992,-0.429939c0.213974,-0.082186 0.213974,-0.028437 0.082008,0.293922c-0.138451,0.322531 0.271202,0.186565 0.428795,0.053772s0.270355,-0.028397 0.559898,-0.214916c0.296829,-0.189741 0.296829,-0.297237 0.454178,-0.297237c0.163025,0 0.459862,0.297237 0.617195,0.18973c0.164001,-0.107456 0.617233,0.132769 0.88768,0.132769c0.264938,0 1.128098,0.350929 1.285454,0.350929c0.163963,0 0.64814,0.186554 0.673721,0.537466c0.025597,0.347794 0.182884,0.322548 0.346977,0.322548s0.535088,0.135878 0.535088,0.268696c0,0.135931 -0.107391,0.673441 0.16407,0.809313c0.263977,0.132811 0.509628,0.347809 0.617249,0.294056c0.1064,-0.05382 0,-0.480572 -0.133064,-0.537531c-0.13842,-0.053719 -0.056374,-0.243347 -0.106476,-0.350878c-0.057304,-0.104313 0.15757,-0.104313 0.23954,0.082197c0.081772,0.186546 0.295784,0.537432 0.427696,0.537432c0.132187,0 0.428909,0.322533 0.346859,0.512154c-0.075478,0.189749 0.08205,0.45854 0.320705,0.45854c0.239162,0 0.541519,0.376143 0.648846,0.404644c0.107533,0.025202 0.239532,0.161219 0.239532,0.240274c0,0.085371 0.132,0.540646 0.132,0.727154c0,0.186535 -0.08181,0.942135 -0.106529,1.239367s0.213959,0.806059 0.484497,1.074892c0.264797,0.271881 0.50428,0.784027 0.668045,0.891563c0.164101,0.107498 0.263985,0.401485 0.509872,0.376148c0.239555,-0.028412 0.403271,0.161331 0.61734,0.537544c0.214645,0.379395 0.428627,0.995926 0.586205,1.04958c0.163765,0.053856 0.434185,0.243492 0.295891,0.376358c-0.132126,0.132629 -0.346912,0.429878 -0.107513,0.429878c0.245808,0 0.321312,-0.132813 0.510796,0.110649c0.188492,0.240166 0.427727,0.376213 0.403263,0.540646c-0.031921,0.15807 0.213989,0.211838 0.3204,0.240299c0.107536,0.02528 0.34676,0.512119 0.592709,0.293972c0.23946,-0.214912 -0.321392,-0.534271 -0.485172,-0.67334c-0.164005,-0.132771 0,-0.430016 -0.377693,-0.727184c-0.371655,-0.293976 -0.32169,-0.512154 -0.585632,-0.727211c-0.271156,-0.214893 -0.485115,-0.401482 -0.221123,-0.591175c0.271347,-0.189754 0.296822,0.189693 0.403297,0.429989c0.107498,0.240231 0.673615,0.727146 0.912987,0.942089c0.239597,0.214973 0.674671,0.967468 0.806824,0.967468s0.509579,0.433052 0.509579,0.433052s0.208561,0.347908 0.133072,0.455414c-0.081795,0.107391 0.106453,0.512047 0.295937,0.619671c0.182804,0.10743 0.938507,0.455181 1.045036,0.512127c0.107307,0.053745 0.321289,0.458393 0.61816,0.458393c0.289482,0 0.509914,0.028564 0.59169,0.107479c0.075485,0.079075 0.314926,0.40155 0.478977,0.215c0.163742,-0.189709 0.188351,-0.268726 0.427814,-0.268726c0.245827,0 0.346813,0.186523 0.485161,0.322502c0.132061,0.132774 0.509918,0.48682 0.699238,0.458385c0.182831,-0.025307 0.427727,0.214989 0.56086,0.132813s0.345978,0.053719 0.45327,0.107437c0.112858,0.05381 0.485382,0.246689 0.459591,0.566036c-0.025295,0.325607 0.214088,0.401402 0.371639,0.483677c0.163792,0.082157 0.377861,0.268711 0.517006,0.404724c0.132092,0.129578 0.421692,0.158035 0.503471,0.240257c0.081978,0.079029 0.138386,0.240208 0.377785,0.10741c0.239479,-0.132782 0.189541,-0.37627 0.189541,-0.37627s0.263912,-0.053711 0.403137,0.053848c0.132244,0.104332 0.214123,0.455219 0.295975,0.512154c0.075485,0.053749 0.239452,0.455292 0.125622,0.749359c-0.101139,0.300213 -0.075645,0.59119 -0.182037,0.59119c-0.107315,0 -0.239559,0.354122 -0.40329,0.433094c-0.157593,0.082222 -0.592682,0.458473 -0.560749,0.594303c0.025475,0.129696 0.270153,0.534401 0.213654,0.724037c-0.049908,0.189697 -0.403164,0.404728 -0.321251,0.698772c0.082153,0.300308 0.648994,0.379375 0.668346,0.648098c0.030914,0.271912 0.434189,0.863075 0.484188,1.131916c0.051003,0.268631 0.510792,0.562645 0.510792,0.938904c0,0.379429 0.642715,0.619625 0.774681,0.644875c0.132061,0.028507 0.377762,0.272083 0.560776,0.354118s0.352325,0.240288 0.484402,0.455372s0.107418,0.540516 0.107418,0.619564c0,0.082272 -0.081898,0.91367 -0.157639,1.39743c-0.088192,0.48687 0.101288,0.863117 -0.056351,1.002251zm-17.321846,-25.033209c0.082104,0.028423 0.239422,0.189659 0.321354,0.189659c0.082058,0 0.484497,0.32247 0.591663,0.429956c0.107738,0.107464 0.107738,0.404657 -0.031788,0.429956s-0.213814,-0.293991 -0.238609,-0.429956c-0.025387,-0.132807 -0.296547,-0.132807 -0.428741,-0.214962c-0.131775,-0.08226 -0.434101,-0.477398 -0.213879,-0.404654zm34.555439,10.818823c-0.295959,0.379417 -0.264977,0.565945 -0.396858,0.594376c-0.132133,0.025314 0.131882,0.132721 0.183052,0.401535c0.043533,0.230743 -0.133133,0.464729 0.131805,0.676567c-1.007858,9.570038 -7.659042,17.477146 -16.547035,20.278404c-0.012817,-0.022259 -0.037312,-0.050716 -0.04372,-0.069744c-0.057449,-0.161221 -0.057449,-0.483685 0.132057,-0.591232c0.189236,-0.107471 0.642738,-0.480515 0.74918,-0.562767c0.10762,-0.082138 0.271362,-0.458424 0.189392,-0.512119c-0.081772,-0.053837 -0.478851,0 -0.535381,-0.079071c-0.057247,-0.082054 -0.057247,-0.192802 0.214069,-0.379402c0.264877,-0.186398 0.403282,-0.458363 0.50964,-0.53743c0.107548,-0.082127 0.315228,-0.243404 0.40353,-0.433132c0.075493,-0.186493 -0.088303,-0.082191 -0.245892,-0.082191s-0.239548,-0.294029 -0.239548,-0.426788s0.397137,0.053749 0.699234,0.107468c0.296715,0.050541 0.157486,-0.135998 0.132957,-0.293983c-0.031868,-0.161304 0.050091,-0.433159 0.213966,-0.354092c0.157356,0.082115 0.988728,-0.025322 1.09594,-0.053795c0.107651,-0.025272 0.403255,-0.508968 0.509842,-0.644989c0.107441,-0.135971 0.132908,-0.268658 0,-0.34774c-0.138187,-0.082165 -0.295753,-0.382523 -0.345734,-0.458363c-0.056458,-0.085407 -0.082161,-0.569164 -0.031902,-0.705173c0.056374,-0.129463 0,0.781013 0.377636,0.891617c0.377853,0.107536 0.586388,0.161209 0.938705,-0.16114c0.346863,-0.322628 0.610844,-0.540615 0.642784,-0.752575c0.025425,-0.214848 0.107296,-0.433048 0.239368,-0.509018c0.138275,-0.082047 0.214085,0.211823 0.377811,-0.135788c0.163738,-0.351032 0.321423,-0.325737 0.485188,-0.619854c0.157539,-0.297058 -0.271111,-0.673336 0.050156,-0.891407c0.321434,-0.211903 0.882275,-0.480698 0.882275,-0.480698s0.1637,-0.082127 0.484974,-0.164368c0.320541,-0.075901 0.66737,-0.028431 0.774837,-0.186451c0.106476,-0.161278 0.213825,-0.50898 0.377872,-0.698765c0.163631,-0.189667 0.345871,-0.483696 0.270359,-0.619648c-0.082123,-0.135883 0.213661,-0.730335 0.182877,-0.888504c-0.025532,-0.161102 -0.264999,-0.540504 0.138504,-0.862984s0.824821,-0.809338 0.856678,-0.939049c0.025562,-0.135891 0.346855,-0.701794 0.315018,-0.973789c-0.019402,-0.265511 -0.315018,-0.587978 -0.503593,-0.673244c-0.189342,-0.075993 -0.592697,-0.101288 -0.749973,-0.319469s-0.617287,-0.42989 -0.781265,-0.376171c-0.15752,0.053761 -0.427776,0.107502 -0.64267,-0.031582c-0.214039,-0.129719 -0.559917,-0.294113 -0.692818,-0.40152c-0.138454,-0.104328 -0.484406,-0.186581 -0.648129,-0.186581s-0.133045,-0.110588 -0.371548,0.215019c-0.245628,0.3256 0,0.433105 -0.428741,0.376171c-0.4342,-0.050571 0.04998,-0.078991 0.295898,-0.401482c0.239445,-0.322479 -0.031006,-0.512089 -0.295898,-0.429981c-0.270485,0.082253 -0.081882,0.243462 -0.509884,0.322525c-0.42873,0.078941 -0.42873,-0.189693 -0.163841,-0.240273c0.270519,-0.053848 0.749279,-0.297199 0.749279,-0.401474c0,-0.110779 -0.050079,-0.407909 -0.264919,-0.407909s-0.16293,-0.265644 -0.48436,-0.613358c-0.321342,-0.354053 -0.724533,-0.569073 -1.045891,-0.518528c-0.315163,0.053738 -0.560833,0.13604 -0.723907,-0.154942c-0.157337,-0.300243 -0.346786,-0.354004 -0.454105,-0.512112c-0.106712,-0.161251 -0.377792,0 -0.459919,-0.082237s-0.081928,-0.079014 -0.081928,-0.079014s-0.345818,0.079014 -0.157562,-0.164364c0.189457,-0.240334 0.2649,-0.698761 0.189457,-0.673416c-0.081951,0.028404 -0.214043,0.40781 -0.346832,0.379292c-0.132023,-0.025223 -0.03088,-0.082153 -0.302288,-0.240261c-0.264038,-0.161137 -0.692768,-0.02845 -0.692768,0.107517c0,0.132744 -0.13203,0.240368 -0.13203,0.240368s-0.081963,-0.076 -0.163765,-0.240368c-0.081879,-0.161186 -0.453514,-0.189659 -0.642818,-0.028427c-0.188545,0.161171 -0.295853,-0.404648 -0.427914,-0.404648s-0.403313,0.132744 -0.535397,0.37936c-0.132771,0.24025 -0.081795,0.591175 -0.18927,0.565948c-0.107361,-0.028542 -0.132042,-0.483723 -0.107361,-0.648201c0.025536,-0.164364 0.321369,-0.429916 0.107361,-0.483673c-0.213943,-0.053726 -0.53524,0.268658 -0.667255,0.297173c-0.132935,0.02523 -0.403408,0.214951 -0.567276,0.429989c-0.157433,0.215004 -0.239384,0.350998 -0.396793,0.429939c-0.163937,0.082211 -0.403378,0 -0.346088,-0.078941c0.050194,-0.082283 -0.460609,-0.376308 -0.541473,-0.271984c-0.081989,0.107548 -0.321404,0.189701 -0.560818,0.300385c-0.239559,0.107468 -0.459873,-0.136032 -0.510845,-0.243446s-0.163864,-0.132847 -0.188351,-0.483719c-0.025486,-0.347778 0.056507,-0.727165 0.138317,-0.942093c0.075443,-0.215038 -0.403179,-0.644985 -0.591782,-0.619816c-0.189266,0.028522 -0.378761,0.21508 -0.560829,0.186657c-0.18919,-0.02528 -0.10738,-0.07909 -0.403194,-0.07909c-0.295933,0 -0.056427,-0.050591 0,-0.29409c0.049931,-0.240215 -0.107372,-0.5658 0.189209,-0.780781c0.29583,-0.218243 0.188469,-0.73037 0,-0.752457c-0.189209,-0.031624 -0.53598,0.078972 -0.774696,0.05373c-0.239487,-0.031643 -0.435028,0.186478 -0.353218,0.426743c0.082077,0.243488 -0.132133,0.404663 -0.213963,0.379433c-0.081947,-0.025311 -0.18306,-0.161217 -0.485008,0.053802c-0.2896,0.214966 -0.397137,0.132755 -0.69302,-0.107494c-0.295784,-0.243492 -0.617287,-0.483723 -0.673637,-0.859989c-0.051071,-0.37933 -0.081936,-0.755589 0.030926,-0.970646c0.101105,-0.21497 0.101105,-0.591198 -0.056469,-0.648067c-0.15749,-0.05061 0.189491,-0.319347 0.3778,-0.3731c0.189503,-0.053696 0.478928,-0.297165 0.5354,-0.404678c0.050838,-0.10743 0.321339,-0.082184 0.610779,-0.082184c0.296822,0 0.35323,0 0.649269,0.161289c0.28936,0.161167 0.346596,-0.082256 0.346596,-0.161289c0,-0.082222 0.106773,-0.243481 0.428154,-0.215061c0.321297,0.025333 0.774475,-0.107368 0.856636,-0.028419s0.239395,0.40477 0.403282,0.297245c0.16386,-0.107464 0.213963,-0.297245 0.270351,0.028419c0.05098,0.322529 0.182858,0.809345 0.428734,0.888367c0.239559,0.082298 0.106499,0.401546 0.345974,0.430004c0.239407,0.025322 0.353214,-0.509026 0.271305,-0.69865c-0.081856,-0.186554 -0.245911,-0.752483 -0.37772,-0.88839c-0.13306,-0.132751 -0.13306,-0.483688 0.131809,-0.591248c0.271366,-0.107502 0.913193,-0.644936 1.096157,-0.80621c0.194771,-0.164391 0.699165,-0.297161 0.541843,-0.5121c-0.164021,-0.218281 -0.213963,-0.350971 -0.213963,-0.512203s0.157303,-0.107525 0.239449,0s0.402298,-0.161293 0.321346,-0.297302c-0.076645,-0.13274 -0.057434,-0.32235 0.131851,-0.297161c0.188557,0.028507 0.23954,-0.132721 0.163956,-0.240255c-0.082127,-0.110662 0.188366,-0.243441 0.377769,-0.189634c0.188484,0.053764 0.667263,-0.028526 0.749268,-0.135973c0.075508,-0.107506 -0.163822,-0.214952 -0.163822,-0.429993c0,-0.214905 0.321354,-0.404676 0.510563,-0.42997c0.188541,-0.028433 0.428051,0 0.459854,-0.082161c0.024632,-0.079079 0.289524,-0.297173 0.314919,-0.107512c0.031052,0.189672 0,0.512161 0.214104,0.512161c0.220188,0 0.478722,-0.243458 0.566978,-0.268774c0.075668,-0.025217 0.585655,-0.13273 0.692993,-0.161165c0.106441,-0.025299 0.749073,-0.079103 0.673607,-0.268694c-0.08189,-0.18663 -0.163734,-0.376301 -0.245861,-0.455313c-0.081928,-0.082275 -0.157406,0.025328 -0.264076,0.16119c-0.107269,0.136015 -0.296776,0.136015 -0.346703,0.028542c-0.056496,-0.107635 0.01897,-0.429962 -0.163853,-0.325741c-0.18856,0.107557 -0.214039,0.215021 -0.321293,0.161337c-0.113071,-0.05378 -0.214073,-0.240393 -0.214073,-0.240393s0.264927,-0.132801 0.075542,-0.379375c-0.18195,-0.240208 -0.453262,-0.186472 -0.718296,-0.050495c-0.270374,0.132751 -0.24485,0.107445 -0.56633,0.186537s-0.485058,0.161167 -0.485058,0.161167s0.434311,-0.265526 0.617203,-0.429937c0.189335,-0.161238 0.434185,-0.243484 0.591633,-0.404623c0.163971,-0.161304 0.586308,0.0821 0.586308,0.0821s0.220325,-0.218149 0.220325,-0.0821s-0.0564,0.48369 0.107384,0.48369c0.157627,0 0.61721,-0.214966 0.427975,-0.268787c-0.188522,-0.053764 0.271439,0 0.453312,-0.135927c0.189476,-0.135975 0.403481,-0.135975 0.510777,-0.186522c0.106464,-0.053759 0.188351,-0.297159 0.377872,-0.297159c0.18845,0 0.263859,0.243401 0,0.404705s-0.295952,0.565777 -0.42873,0.673393c-0.132202,0.107437 -0.056438,0.243334 0.157322,0.214958c0.214878,-0.025322 0.40345,0.028376 0.592674,-0.025322s0.295792,0.053698 0.345875,0.132753c0.051247,0.082293 0.214027,-0.079056 0.214027,-0.079056s0.346863,-0.082167 0.454407,0.053864c0.112839,0.13275 0.19471,-0.082239 0.112839,-0.215057c-0.0821,-0.132751 -0.188568,-0.268677 -0.270439,-0.4331c-0.08189,-0.161295 -0.189457,-0.215019 -0.397053,-0.161295c-0.213753,0.053764 -0.271072,-0.053724 -0.403252,-0.132822c-0.13826,-0.082123 -0.245628,0.107578 -0.13826,-0.082123c0.112854,-0.186512 0.163727,-0.243467 0.245846,-0.404655c0.081913,-0.161308 0.427876,-0.458414 0.081913,-0.534317c-0.35321,-0.085432 -0.460873,-0.135946 -0.510857,-0.297237c-0.056313,-0.161207 -0.459679,-0.458431 -0.567184,-0.458431c-0.106472,0 -0.477791,0 -0.503311,-0.135853c-0.031872,-0.132843 -0.295803,-0.43001 -0.435318,-0.566017c-0.131886,-0.132742 -0.641758,-0.727179 -0.723618,-0.780895c-0.075485,-0.053722 -0.18306,-0.025274 -0.428791,0.297169c-0.239491,0.325655 -0.453495,0.379496 -0.641724,0.297274c-0.189461,-0.079126 -0.214844,-0.053783 -0.397038,-0.268749c-0.195805,-0.215029 0.182194,-0.240335 0.100224,-0.376207c-0.08218,-0.132837 -0.509964,-0.189762 -0.774818,-0.215059c-0.270443,-0.028414 -0.459679,-0.322428 -0.856689,-0.350948c-0.40234,-0.025229 -0.887764,0.053873 -1.01965,0.053873c-0.133011,0 -0.133011,0.189617 -0.182995,0.483635c-0.056492,0.29715 0.182995,0.379414 -0.056492,0.433151c-0.239433,0.053785 -0.353203,0.079023 -0.107338,0.186522c0.239445,0.110674 0.560814,0.540684 0.560814,0.540684s0,0.24024 -0.189411,0.376118c-0.188313,0.135994 -0.377842,0.26878 -0.478931,0.110685c-0.112877,-0.164398 -0.402336,-0.135929 -0.320446,0.025309c0.075752,0.161201 0.238594,0.24346 0.238594,0.40469c0,0.16116 0.239403,0.562721 0.081852,0.698669c-0.16383,0.135962 -0.345882,0.028505 -0.484184,0.053804s-0.271263,-0.215036 -0.157608,-0.268745c0.100224,-0.053766 -0.03191,-0.458401 -0.03191,-0.458401s-0.321342,0.458401 -0.295849,0.214962c0.030979,-0.243439 -0.131969,-0.268707 -0.131969,-0.458445c0,-0.186535 -0.163864,-0.268724 -0.397015,-0.21493c-0.245621,0.053703 -0.535149,-0.082294 -0.995934,-0.164467c-0.453167,-0.07901 -0.641766,-0.132782 -1.019604,-0.322479c-0.372223,-0.186546 -0.510773,-0.053764 -0.699085,-0.025358c-0.182999,0.025358 -0.10738,-0.379339 -0.346714,-0.429932c-0.239586,-0.056864 -0.371712,0.050592 -0.428162,-0.297131c-0.050838,-0.347816 0.081993,-0.433147 0.667496,-0.809423c0.591648,-0.376179 0.509693,-0.537395 0.970558,-0.591215c0.453255,-0.053705 0.667202,0.05382 0.667202,-0.082144s0.107403,-0.673431 0.107403,-0.404667s0.541691,0.287779 0.302341,0.474195c-0.245968,0.189667 -0.1138,0.214975 0.081745,0.214975c0.182175,0 0.528927,-0.186579 0.528927,-0.186579s0.434334,-0.189617 0.54192,-0.028397c0.106434,0.161238 0.106434,0.325665 0.295616,0.325665s0.585632,-0.218149 0.239494,-0.404711c-0.346832,-0.189705 -0.560844,-0.161165 -0.774685,-0.379309s-0.164009,-0.132832 -0.403385,-0.079075c-0.2393,0.053711 -0.2393,-0.082218 -0.321346,-0.082218s-0.213856,0.053701 -0.270214,-0.053762c-0.051086,-0.107502 0.030922,-0.132788 0.302036,-0.132788c0.264111,0 0.58543,0.079031 0.58543,0.079031s0.32132,-0.107494 0.403515,-0.132725c0.075344,-0.028435 0.504032,-0.082237 0.428631,-0.322565c-0.081829,-0.243347 -0.353287,-0.243347 -0.428631,-0.322411s0.157322,-0.186523 0.289394,-0.24346c0.139236,-0.053703 0.510612,0 0.510612,0s0.2458,0.028408 0.2458,-0.079035s-0.063679,-0.243479 0.100307,-0.161243s0,0.322405 0.245644,0.268686c0.239506,-0.053738 0.295876,0 0.429005,0.079039c0.131817,0.082298 -0.032032,0.404676 -0.164085,0.458424c-0.132843,0.050678 -0.346775,0.161301 -0.050808,0.186628c0.296688,0.02841 0.504311,0.02841 0.504311,0.02841s0.194679,-0.186563 0.27042,-0.347805c0.08194,-0.164347 0.21479,-0.056892 0.321331,0c0.107368,0.050573 0.510582,0.132767 0.132751,0.240347c-0.37862,0.107458 -0.454082,0.243349 -0.536217,0.37611c-0.075485,0.136024 -0.106449,0.218168 -0.453274,0.136024c-0.352222,-0.08213 -0.53529,-0.053711 -0.617302,0.082144c-0.081776,0.132792 -0.024502,0.565973 0.107449,0.508995c0.132065,-0.053709 0.264088,-0.053709 0.42807,-0.107443c0.163719,-0.05372 0.806377,0.053734 0.963898,0.028433c0.163849,-0.028433 0.434361,0.268784 0.509865,0.215034c0.08205,-0.05369 0.245831,0.107515 0.403362,0.214941c0.157421,0.107515 0.107449,-0.240253 0.39677,-0.02529c0.302319,0.215067 0.138336,0.215067 0.302319,0.215067c0.157379,0 0.504417,0.025248 0.504417,0.025248s0.031013,-0.265549 0.295998,-0.215025c0.2701,0.053759 0.509571,0.350931 0.478642,0.132814c-0.019035,-0.211815 0.03093,-0.373068 -0.183064,-0.537489c-0.213806,-0.161104 -0.560562,-0.268631 -0.616993,-0.347691c-0.056667,-0.082256 -0.107616,-0.189739 -0.025681,-0.24345c0.082111,-0.050592 0.454468,0.028387 0.668392,0.164402c0.21368,0.132742 0.403206,0.26869 0.560795,0.161188c0.162819,-0.107445 0.352257,-0.161188 0.434216,-0.24349c0.075397,-0.0821 0.264931,-0.322353 0.264931,-0.322353s-0.806713,-0.104387 -0.907608,-0.243488c-0.113117,-0.132805 -0.485439,-0.322548 -0.591858,-0.322548s-0.403187,0.189743 -0.510803,-0.079041s-0.106457,-0.594297 -0.214005,-0.619631c-0.1064,-0.028496 -1.234196,-0.189718 -1.3918,-0.27186c-0.164097,-0.079069 -0.806736,-0.268766 -1.045292,-0.401587s-0.592506,-0.325594 -0.806408,-0.325594c-0.214088,0 -1.102642,0.107502 -1.259937,0.082184c-0.164154,-0.028435 -0.642792,0.053837 -0.831242,0.078993c-0.189331,0.028519 0.239296,0.379486 -0.157398,0.458488c-0.403542,0.082201 -0.353252,0.135885 -0.271393,-0.268673c0.075451,-0.404696 -0.270405,-0.512201 -0.617188,-0.350992c-0.345978,0.161177 -0.913265,0.271915 -0.781254,0.458414c0.139431,0.189697 -0.01828,0.325602 0.245808,0.512131c0.264954,0.189709 0.377884,0.243475 0.724625,0.215033c0.346149,-0.025324 0.699402,0.053762 0.699402,0.053762s0,0.322533 -0.132233,0.376247c-0.13916,0.053696 -0.35323,0.053696 -0.409565,0.214947c-0.050079,0.16131 -0.314968,0.243458 -0.314968,0.16131s0.131969,-0.35096 -0.056431,-0.483744c-0.183086,-0.135973 -0.239334,-0.161303 -0.454494,-0.028526c-0.213875,0.136013 -0.238461,0.189709 -0.352077,-0.02532c-0.107471,-0.214914 -0.427917,-0.40464 -0.427917,-0.40464s-0.214909,-0.268682 -0.378685,-0.401503c-0.157578,-0.135973 -0.453445,-0.107449 -0.478004,0.025328c-0.025421,0.132774 0.05003,0.268681 0.157391,0.512138c0.106583,0.243486 0.213982,0.698673 0.03096,0.727196c-0.188351,0.028418 -0.213772,0.053699 -0.403255,0.107487c-0.188351,0.053732 -0.27034,-0.079069 -0.27034,-0.294014s-0.082062,-0.404694 -0.025597,-0.486906c0.050301,-0.079086 -0.213802,0.056976 -0.485081,0c-0.264046,-0.050512 -0.478001,0.107458 -0.214081,0.192795c0.271362,0.079048 0.32777,0.401562 0.081844,0.480639c-0.239365,0.082178 -1.152298,0 -1.448196,0s-0.724724,0.082178 -0.806671,-0.079077c-0.081963,-0.16127 0.245907,-0.268723 0.428711,-0.268723c0.188473,0 0.749325,0.025263 0.963371,-0.268658c0.213741,-0.297276 -0.263996,-0.35099 -0.479008,-0.35099c-0.213982,0 -0.377769,-0.07905 -0.617184,-0.31929c-0.245884,-0.243454 0.157581,-0.404696 0.107323,-0.512243c-0.056435,-0.107485 -0.321266,-0.028427 -0.560795,-0.028427c-0.239265,0 -0.617237,-0.18648 -0.617237,0.028427c0,0.215 0.295895,0.831533 0.107536,0.69878c-0.189495,-0.132828 -0.163948,-0.325623 -0.295876,-0.486979c-0.13306,-0.16118 -0.346825,-0.13274 -0.618042,-0.107454c-0.264088,0.028439 -0.723793,0.107454 -0.856838,0.082199c-0.131817,-0.028423 -0.024502,-0.028423 -0.320427,-0.161221c-0.29681,-0.135918 -0.42865,-0.107519 -0.642658,-0.243467c-0.214088,-0.139109 -0.025517,-0.18964 -0.403336,-0.218132c-0.37151,-0.025211 -0.346096,0.18648 -0.724739,0.13595c-0.371353,-0.053705 -0.477829,0.025322 -0.856461,0c-0.37167,-0.028435 -0.559956,-0.053705 -0.617294,0.132828c-0.05019,0.189724 -0.15752,0.512117 -0.320763,0.512117c-0.157288,0 -0.346645,0.189697 0.163242,0.215025c0.510834,0.028427 0.214859,0.268681 0.668064,0.243387c0.459709,-0.0284 0.856766,-0.0284 0.963211,-0.243387c0.113724,-0.215025 0.189499,-0.215025 0.245865,-0.132776c0.050957,0.079002 0.453552,0.562695 0.453552,0.562695s0.271042,0.215067 0.378571,0.26877c0.106457,0.053719 -0.107529,0.297155 -0.321327,0.161182c-0.214985,-0.132774 -0.617195,-0.104246 -0.781307,-0.240217c-0.157185,-0.132839 -0.882164,-0.132839 -1.070522,-0.107515c-0.189346,0.028442 -0.51078,-0.079041 -0.618069,-0.079041c-0.10659,0 -0.459923,0.268795 -0.459923,0.268795s-0.131824,-0.218155 -0.207569,-0.325718c-0.081825,-0.107494 -0.213776,0.107563 -0.321312,0.135963c-0.106464,0.025377 -0.43417,-0.218121 -0.755501,-0.11063c-0.321526,0.11063 -0.214119,0.218145 -0.66729,0.189692s-0.560875,-0.107462 -0.724731,-0.079062c-0.163872,0.025377 -0.163872,0.025377 -0.163872,0.025377s0.025352,0.10747 -0.157532,0.214891c-0.189339,0.107464 -0.321495,0.243437 -0.459755,0.082254c-0.131889,-0.161303 -0.213966,-0.161303 -0.28949,-0.189676c-0.081833,-0.025331 -0.245827,-0.161247 -0.592659,-0.082285c-0.345932,0.082285 -0.887718,-0.10429 -0.98864,-0.10429c-0.08181,0 -0.649063,-0.031588 -1.014313,-0.069498c4.352654,-4.748699 10.576088,-7.749048 17.498444,-7.749048c4.390079,0 8.49683,1.220379 12.030991,3.310188c-0.23946,0.148603 -0.65551,0.12326 -0.800304,0.047375c-0.157574,-0.088541 -0.327835,-0.161205 -0.982471,-0.12648c-0.649044,0.037939 -1.367233,0.253 -1.227955,0.467941c0.151089,0.214951 -0.29039,0.341389 -0.403347,0.233955c-0.113636,-0.107462 -0.636166,0.126451 -0.604561,0.344624c0.031002,0.214928 -0.081921,0.46472 -0.35939,0.410982c-0.276875,-0.056946 -0.472446,0.123278 -0.490837,0.303516c-0.012672,0.180202 -0.636353,0.30349 -0.687298,0.30349c-0.04995,0 -0.850254,-0.015814 -0.553448,0.196033c0.194656,0.14229 0.308487,0.056961 0.553448,0.107477c0.245754,0.053831 0.441525,0.448973 0.573486,0.505924c0.125675,0.053759 0.308617,0 0.39056,-0.110672c0.081913,-0.107447 0.195702,-0.483719 0.195702,-0.483719s0,0.35726 0.20137,0.429976c0.194759,0.072666 0.679943,-0.053703 0.812023,-0.034815c0.132755,0.018995 0.901222,0.126463 1.108761,0.23395c0.220394,0.107492 0.737389,0.18021 0.888611,0.41095c0.144753,0.233961 0.163719,1.043421 0.245586,1.131874c0.08215,0.088583 0.358738,-0.287668 0.421619,-0.376207c0.062935,-0.091709 0.409725,-0.037918 0.522583,0.085411c0.113758,0.126411 0.378639,0.429932 0.359661,0.556353c-0.019005,0.129705 -0.062817,0.325615 -0.163799,0.252989c-0.094822,-0.06958 -0.258724,-0.050632 -0.195862,-0.195993c0.063709,-0.142347 0.10104,-0.449026 -0.030987,-0.449026c-0.131859,0 -0.245571,0 -0.245571,0s-0.246025,-0.072647 -0.409729,0.196054s-0.03104,0.540606 0.081844,0.540606s0.377808,0 0.377808,0.069548c0,0.072733 -0.276897,0.287689 -0.263916,0.4142c0.018978,0.126495 0.226501,0.556454 0.295757,0.644978c0.062847,0.091728 0.409733,0.180141 0.503506,0.199255c0.100883,0.018841 -0.226555,0.034664 -0.144749,0.161104c0.081902,0.126514 0.214676,0.430008 0.390335,0.502756c0.183029,0.072697 0.686539,0.395193 0.750336,0.537466c0.069283,0.145422 0.459702,-0.107565 0.541508,-0.126501c0.082165,-0.015772 0.069347,0.379366 0.295944,0.398361c0.226952,0.015837 0.308735,-0.037891 0.503506,-0.199209s0.151138,-0.379358 0.163944,-0.540525c0.019028,-0.161337 0,-0.28463 0.214703,-0.23399c0.213978,0.053745 0.326813,-0.037935 0.308792,-0.215012c-0.012821,-0.180256 -0.195873,-0.395241 0.144741,-0.448938c0.345821,-0.053724 0.522541,-0.287651 0.736423,-0.287651c0.213837,0 0.806442,0.091604 0.869408,0c0.062847,-0.088612 0.340595,-0.502729 0.522587,-0.518604c0.138435,-0.015802 0.459923,-0.044231 0.793816,-0.088461c3.262775,3.907644 5.284641,8.877663 5.517857,14.309223c-0.245712,0.328728 -0.025528,0.632385 0.043686,0.844109c0,0.063202 0.006409,0.120125 0.006409,0.183342c0,0.281406 -0.030869,0.556538 -0.043678,0.837811c0,0.003185 0,0.006413 -0.006416,0.009537zm-20.049366,-8.962999c-0.131901,0.028376 -0.352383,-0.107567 -0.352383,-0.29405s-0.183033,0.347771 -0.081837,0.512201c0.112778,0.161198 -0.214943,0.347719 -0.321442,0.347719s-0.182957,-0.240252 -0.157539,-0.480515c0.025444,-0.243465 -0.157406,-0.458572 -0.459751,-0.433195c-0.289379,0.028517 -0.428627,0.268816 -0.528927,0.350962c-0.113747,0.082233 -0.113747,0.537439 -0.081745,0.644907s0.024456,0.490171 -0.245968,0.458523c-0.239456,-0.025345 -0.18919,-0.480593 -0.157322,-0.64502c0.025391,-0.161232 -0.082134,-0.565884 0.025391,-0.780855c0.112949,-0.215038 0.427917,-0.294064 0.641819,-0.322487s0.674603,0.135872 0.750156,0.107449c0.081791,-0.028395 0.459805,-0.028395 0.648106,0c0.18306,0.022169 0.453453,0.509048 0.321442,0.534361zm0.478931,0.08213c0.081837,0.053738 0.642632,-0.08213 0.749039,0.053738c0.107639,0.135994 -0.106407,0.161264 -0.37767,0.268837c-0.264111,0.107422 -0.346024,0.082134 -0.453362,0.21488s-0.453411,0.186539 -0.617176,0.347864c-0.164055,0.16432 -0.447105,0.259167 -0.509853,0.135868c-0.08202,-0.161169 0.030865,-0.082148 0.056366,-0.161169c0.024563,-0.082241 0.503445,-0.268784 0.503445,-0.268784s0.567219,-0.644989 0.649212,-0.591234zm-2.141262,-0.942099c-0.081944,0.02532 -0.378708,-0.053747 -0.623634,-0.053747c-0.23954,0 -0.183083,-0.161325 -0.29689,-0.132793c-0.099987,0.025328 -0.345863,0.079079 -0.503487,0.161249c-0.163681,0.079008 -0.435093,0.063192 -0.435093,-0.08217c0,-0.215052 0.107647,-0.161314 0.460865,-0.297255c0.345905,-0.135981 0.723598,-0.51218 0.881023,-0.350878c0.163921,0.1612 0.459843,0.350878 0.649097,0.37627c0.188606,0.031521 -0.056519,0.350897 -0.131882,0.379324zm-2.746742,-8.352829c-0.16378,0.053669 -0.718166,0.287643 -0.661774,0.410931c0.019119,0.047426 0.163788,0.145527 0.390629,0.107498c0.233047,-0.034735 0.573471,-0.069532 0.73745,-0.08848c0.157314,-0.019018 0.194798,-0.287659 0.0126,-0.303518c-0.176579,-0.018999 -0.321316,-0.180193 -0.478905,-0.126431zm-1.984512,0.214901c-0.125767,0.053785 -0.497139,-0.08847 -0.699177,0.038061c-0.12569,0.078945 -0.049988,0.338186 0.145645,0.357235c0.201145,0.018883 0.535358,-0.126503 0.572479,-0.019049c0.03833,0.10754 0.157589,0.594421 0.485451,0.433212c0.321323,-0.161304 0.3022,-0.306683 0.390522,-0.325672c0.088337,-0.015858 -0.019238,-0.411045 -0.163998,-0.50267c-0.138245,-0.088587 -0.604393,-0.034866 -0.730923,0.018883zm-0.641781,-1.523808c0.030926,0.091686 -0.019112,0.161268 0.232998,0.196051c0.245899,0.037928 0.352356,0.072639 0.497036,0.072639c0.144646,0 0.088284,-0.233948 -0.037415,-0.395163c-0.126324,-0.161249 -0.08828,-0.142275 -0.409622,-0.233955c-0.321304,-0.088558 -0.642616,-0.088558 -0.856796,-0.072781c-0.21376,0.019045 -0.446751,-0.034716 -0.503185,0.218155c-0.025677,0.126509 0.144768,0.230843 0.358517,0.230843s0.680161,-0.104334 0.718468,-0.015789zm0.466084,0.986389c0.088223,0.196001 0.088223,0.104343 0.339424,0.126438c0.245834,0.019032 0.441448,-0.252817 0.459915,-0.341417c0.019093,-0.091648 -0.125778,-0.268797 -0.466072,-0.233965c-0.339699,0.034739 -1.37315,-0.053701 -1.517818,0.069601c-0.131878,0.120146 0,0.483686 -0.050014,0.521599c-0.057308,0.034847 0.018177,0.196089 0.157597,0.161201c0.144722,-0.034702 0.213745,-0.376127 0.3204,-0.376127c0.107399,0 0.668274,-0.126493 0.756569,0.07267zm-3.363796,-0.736603c0.107243,0.088467 0.377716,0.015831 0.358486,-0.07275c-0.01812,-0.088547 0.107563,-0.448919 -0.106464,-0.464758c-0.214867,-0.018953 -0.516953,0.199177 -0.837383,0.30665c-0.214905,0.066416 -0.164066,0.268808 -0.019295,0.268808s0.497097,-0.126469 0.604656,-0.037951zm1.523945,0.322397c-0.182091,0.091759 -0.239464,0.145498 -0.397087,0.107578c-0.157345,-0.034815 -0.157345,-0.322515 -0.447044,-0.26878c-0.28307,0.053713 -0.339447,0.215076 -0.427792,0.28771s-0.283951,0.126431 -0.353188,0.088533c-0.075485,-0.034798 -0.484196,-0.265591 -0.484196,-0.265591s-0.856834,-0.037891 -0.895077,-0.145344c-0.037392,-0.107601 -0.176563,-0.284605 -0.573311,-0.249811s-1.07077,0.268673 -1.177246,0.268673c-0.107506,0 0.125504,0.215078 -0.019257,0.215078c-0.144691,0 -0.321365,-0.015852 -0.371372,0.142197c-0.038353,0.110695 0.157604,0.107582 0.384232,0.107582c0.23304,0 0.610767,0 0.717155,-0.053894c0.107685,-0.053688 0.643017,-0.180058 0.623745,-0.01889c-0.011696,0.164417 0.221313,0.414194 0.340645,0.379356c0.125427,-0.034723 0.377769,-0.268646 0.504189,-0.180193c0.125698,0.091766 0.144669,0.303457 0.264011,0.360455c0.125641,0.050608 0.466297,0.050608 0.630043,0c0.157604,-0.056997 0.604397,-0.056997 0.806488,-0.018961c0.194992,0.037903 0.768337,0.142176 0.818638,0.037903c0.056423,-0.110641 0.213715,-0.126469 0.233097,-0.233927s0.1073,-0.44898 0.1073,-0.44898s-0.1073,-0.199135 -0.283974,-0.110695zm9.05183,18.558458c-0.245758,0.044224 -0.189377,0.524784 0.106567,0.436241c0.296928,-0.088531 0.132843,-0.480572 -0.106567,-0.436241zm2.330715,-0.641788c-0.214111,-0.053757 -0.453564,0 -0.617344,0.028362c-0.16375,0.025307 -0.617252,0.430035 -0.617252,0.430035s0.295914,0.053703 0.478939,0.053703c0.188293,0 0.302094,0.107475 0.459663,0.186516c0.157547,0.082275 0.453514,-0.107506 0.559948,-0.107506c0.107323,0 0.245907,0.322563 0.271301,-0.028385c0.025528,-0.347816 -0.321301,-0.509056 -0.535255,-0.562725zm-7.470833,-17.448792c-0.088249,-0.214939 -0.535095,-0.287634 -0.629818,-0.072592c-0.075661,0.186499 0.718166,0.287674 0.629818,0.072592zm5.114609,16.13036c0.295876,-0.053722 0.132076,-0.300297 -0.112911,-0.26881c-0.239433,0.02533 -0.182949,0.322525 0.112911,0.26881zm3.565197,1.662933c-0.245949,0.044285 -0.195,0.524841 0.100906,0.43639c0.302307,-0.085365 0.138519,-0.480625 -0.100906,-0.43639zm-3.250107,-0.802933c-0.183014,0.028465 -0.585495,-0.186543 -0.800266,-0.376251c-0.213974,-0.189766 -0.617188,-0.189766 -0.781174,-0.189766c-0.157455,0 -0.805584,0.189766 -0.805584,0.189766c-0.025414,0.26873 0.245621,0.189709 0.56699,0.189709s0.88129,-0.053707 0.988903,0.079021c0.106411,0.132744 0.591686,0.347771 0.723709,0.458431c0.132896,0.107521 0.560696,0.135883 0.59259,0.028404s-0.295883,-0.404583 -0.485168,-0.379314zm-3.193787,-17.186245c-0.27039,-0.019054 -0.610821,-0.019054 -0.824833,0c-0.213707,0.015833 -0.3778,-0.145485 -0.535015,-0.237131c-0.164097,-0.088587 -0.523689,-0.37627 -0.731083,-0.410995c-0.214005,-0.034782 -0.182934,-0.034782 -0.630089,-0.142315c-0.226627,-0.05695 -0.604458,-0.126457 -0.604458,-0.180208c0,-0.053753 -0.107628,0.252953 0.088322,0.344625c0.194836,0.088451 0.516136,0.249746 0.749203,0.338205c0.233006,0.088589 0.680153,0.107584 0.825714,0.287819c0.138294,0.18012 0.623699,0.322405 0.623699,0.322405l0.572464,0.053719c0,0 0.390614,-0.088442 0.806835,-0.053719c0.409599,0.037907 1.013935,0.091684 1.359909,0.072735c0.334076,-0.015793 0.39056,-0.12649 0.42894,-0.196012c0.030907,-0.072739 -0.630161,-0.21497 -0.7939,-0.196037c-0.157623,0.012743 -1.070648,0.012743 -1.335709,-0.00309zm0.995033,4.125711c-0.068966,0.082319 0.327858,0.196064 0.397072,0.088591c0.069229,-0.104294 -0.21402,-0.284525 -0.397072,-0.088591zm1.203526,0.376307c0.176651,-0.072695 0.088387,-0.287716 -0.163815,-0.218191c-0.282978,0.085339 -0.018993,0.290936 0.163815,0.218191z" stroke-width="0.5" stroke="#000" fill="#fff"/>
 </g>
</svg>