<svg id="SvgjsSvg1001" width="288" height="288" xmlns="http://www.w3.org/2000/svg" version="1.1" xmlns:xlink="http://www.w3.org/1999/xlink" xmlns:svgjs="http://svgjs.com/svgjs"><defs id="SvgjsDefs1002"></defs><g id="SvgjsG1008" transform="matrix(0.9167,0,0,0.9167,11.99519256754698,11.995237874771647)"><svg xmlns="http://www.w3.org/2000/svg" enable-background="new 0 0 311.661 311.661" viewBox="0 0 311.661 311.661" width="288" height="288"><path d="M155.661,65.431c-50,0-90.8,40.8-90.8,90.8s40.8,90.4,90.8,90.4s90.4-40.8,90.8-90.8
			C246.461,105.831,205.661,65.431,155.661,65.431z M161.261,235.431v-13.6c0-3.2-2.4-5.6-5.6-5.6s-5.6,2.4-5.6,5.6v13.6
			c-39.6-2.8-71.2-34.4-74-74h13.6c3.2,0,5.6-2.4,5.6-5.6s-2.4-5.6-5.6-5.6h-13.6c2.8-39.6,34.4-71.2,74-74v13.6
			c0,3.2,2.4,5.6,5.6,5.6s5.6-2.4,5.6-5.6v-13.6c39.6,2.8,71.2,34.4,74,74h-13.6c-3.2,0-5.6,2.4-5.6,5.6s2.4,5.6,5.6,5.6h13.6
			C232.461,201.031,200.861,232.631,161.261,235.431z" fill="#ffffff" class="color000 svgShape"></path><path d="M155.661,99.031c-3.2,0-5.6,2.4-5.6,5.6v49.2l-18,21.6c-2,2.4-1.6,5.6,0.8,7.6c1.2,0.8,2.4,1.2,3.6,1.2c1.6,0,3.2-0.8,4-2
			l19.2-23.2c0.8-0.8,1.2-2.4,1.2-3.6v-50.8C161.261,101.431,158.861,99.031,155.661,99.031z" fill="#ffffff" class="color000 svgShape"></path><path d="M307.661,179.031c-6.8-2.4-22.8-9.2-22.8-23.2s17.2-21.2,22.8-23.2c2.4-0.8,4-3.6,3.6-6c-4-21.6-12.4-42-24.8-60
			c-1.6-2.4-4.4-3.2-6.8-2c-3.6,2-11.2,4.8-18.8,4.8c-5.6,0-10-1.6-13.6-5.2c-10-10-2.8-27.2-0.4-32.4c1.2-2.4,0.4-5.2-2-6.8
			c-18.4-12.4-38.4-20.8-60-24.8c-2.8-0.4-5.2,1.2-6,3.6c-2,5.2-8.8,22.8-23.2,22.8c-14,0-21.2-17.2-23.2-22.8c-0.8-2.4-3.6-4-6-3.6
			c-21.6,4-42,12.4-60,24.8c-2.4,1.6-3.2,4.4-2,6.8c3.2,6.4,9.6,22.8-0.4,32.4c-3.6,3.6-8,5.2-13.6,5.2c-7.6,0-15.2-3.2-18.8-4.8
			c-2.4-1.2-5.2-0.4-6.8,2c-12.4,18.4-20.8,38.4-24.8,60c-0.4,2.8,1.2,5.2,3.6,6c6.8,2.4,22.8,9.2,22.8,23.2s-17.2,21.2-22.8,23.2
			c-2.4,0.8-4,3.6-3.6,6c4,21.6,12.4,42,24.8,60c1.6,2.4,4.4,3.2,6.8,2c3.2-1.6,10.8-4.8,18.8-4.8c5.6,0,10,1.6,13.6,5.2
			c10,10,2.8,27.2,0.4,32.4c-1.2,2.4-0.4,5.2,2,6.8c18.4,12.4,38.4,20.8,60,24.8c2.8,0.4,5.2-1.2,6-3.6c2-5.2,8.8-22.8,23.2-22.8
			c14,0,21.2,17.2,23.2,22.8c0.8,2.4,2.8,3.6,5.2,3.6c0.4,0,0.8,0,1.2,0c21.6-4,42-12.4,60-24.8c2.4-1.6,3.2-4.4,2-6.8
			c-2.4-5.2-9.6-22.4,0.4-32.4c3.6-3.6,8-5.2,13.6-5.2c8,0,16,3.6,18.8,4.8c2.4,1.2,5.2,0.4,6.8-2c12.4-18.4,20.8-38.4,24.8-60
			C311.661,182.231,310.061,179.831,307.661,179.031z M279.661,235.431c-4.8-2-12-4-19.2-4c-8.4,0-15.6,2.8-21.2,8.4
			c-12.8,12.8-8,30.8-4.4,40.4c-14.8,9.6-30.8,16-48,19.6c-4-9.2-13.6-25.6-31.6-25.6s-27.6,16.4-31.6,25.6
			c-17.2-3.6-33.2-10.4-48-19.6c4-10.4,8.4-28-4.4-40.4c-5.6-5.6-12.8-8.4-21.2-8.4c-7.2,0-14.4,2-19.2,4c-9.6-14.8-16-30.8-19.6-48
			c10-4.4,25.6-14,25.6-31.6c0-17.6-15.6-27.2-25.6-31.6c3.6-17.2,10.4-33.2,19.6-47.6c5.2,2,12,4,19.2,4c8.4,0,15.6-2.8,21.2-8.4
			c12.4-12.4,8.4-30.4,4.4-40.4c14.8-9.6,30.8-16,48-19.6c4,9.2,13.6,25.6,31.6,25.6s27.6-16.4,31.6-25.6c17.2,3.6,33.2,10.4,48,20
			c-3.6,9.6-8.4,28,4.4,40.4c5.6,5.6,12.8,8.4,21.2,8.4c7.2,0,14.4-2,19.2-4c9.6,14.8,16,30.8,19.6,48c-9.2,4-25.6,13.6-25.6,31.6
			c0,17.6,15.6,27.2,25.6,31.6C296.061,204.631,289.261,220.631,279.661,235.431z" fill="#ffffff" class="color000 svgShape"></path></svg></g></svg>