<svg width="489.42" height="489.42" xmlns="http://www.w3.org/2000/svg">

 <g>
  <title>background</title>
  <rect fill="none" id="canvas_background" height="402" width="582" y="-1" x="-1"/>
 </g>
 <g>
  <title>Layer 1</title>
  <g id="svg_1">
   <g id="svg_2">
    <path fill="#ffffff" id="svg_3" d="m46.1,138.368c4.2,2.1 16.1,8.4 29.1,-6.2c5.2,-7.3 10.4,-14.6 16.6,-21.8c7.3,-8.3 6.2,-21.8 -2.1,-29.1c-8.3,-7.3 -21.8,-6.2 -29.1,2.1s-14.6,17.7 -20.8,27c-6.1,9.3 -3,21.7 6.3,28z"/>
    <path fill="#ffffff" id="svg_4" d="m249,40.568c19.8,0 39.5,3.1 58.3,9.4c12.6,3.7 21.8,-4.2 26,-12.5c3.1,-11.4 -3.1,-22.9 -13.5,-26c-22.9,-7.3 -45.8,-11.4 -69.7,-11.4c-11.4,0 -20.8,8.3 -20.8,19.8s8.3,20.7 19.7,20.7z"/>
    <path fill="#ffffff" id="svg_5" d="m434.2,167.468c7.3,17.7 11.4,36.4 13.5,55.1c0,0 1.2,23.2 22.9,19.8c21.5,-2.8 18.7,-23.9 18.7,-23.9c-2.1,-22.9 -8.3,-45.8 -16.6,-66.6c-5.2,-10.4 -16.6,-15.6 -27,-11.4c-10.5,5.2 -15.7,16.6 -11.5,27z"/>
    <path fill="#ffffff" id="svg_6" d="m359.3,75.968c16.6,11.4 31.2,25 43.7,40.6c9.3,11.6 25,6.8 28.1,3.1c8.3,-7.3 10.4,-20.8 3.1,-29.1c-14.6,-17.7 -32.3,-34.3 -52,-47.9c-9.4,-6.2 -21.8,-4.2 -28.1,5.2s-4.2,21.8 5.2,28.1z"/>
    <path fill="#ffffff" id="svg_7" d="m134.6,72.768c16.6,-10.4 35.4,-18.7 54.1,-23.9c11.4,-3.1 17.7,-14.6 14.6,-25c-3.1,-11.4 -14.6,-17.7 -25,-14.6c-22.9,6.2 -44.7,15.6 -64.5,28.1c-9.4,6.2 -12.5,18.7 -6.2,28.1c4.1,6.3 12.9,12.5 27,7.3z"/>
    <path fill="#ffffff" id="svg_8" d="m468.5,268.368c-11.4,-3.1 -21.8,4.2 -23.9,15.6c-2.1,9.4 -8.5,31.3 -8.6,33.4c-27.5,71.5 -93.5,121.8 -169.3,129.9c-74.6,7.8 -147.2,-25.9 -189.3,-86.5l38.5,8.5c10.4,2.1 21.8,-4.2 23.9,-15.6c2.1,-10.4 -4.2,-21.8 -15.6,-23.9l-81.1,-17.7c-5.2,-1 -21.4,0 -25,15.6l-17.7,82.2c-2.1,10.4 4.2,21.8 15.6,23.9c12.7,1.3 21.8,-6.2 25,-16.6l6.2,-28.2c46.3,62.7 129.9,109.1 223.7,99c94.6,-10.2 174.8,-73.9 206,-163.3c1,-2.6 5.7,-24.4 7.3,-32.3c3.1,-11.5 -4.2,-21.9 -15.7,-24z"/>
    <path fill="#ffffff" id="svg_9" d="m164.6,265.268l95.9,0c11.4,0 19.8,-9.4 20.8,-20.8l0,-142.2c0,-11.4 -9.4,-20.8 -20.8,-20.8c-11.4,0 -20.8,9.4 -20.8,20.8l0,121.4l-75.1,0c-11.4,0 -20.8,9.4 -20.8,20.8s9.3,20.8 20.8,20.8z"/>
   </g>
  </g>
  <g id="svg_10"/>
  <g id="svg_11"/>
  <g id="svg_12"/>
  <g id="svg_13"/>
  <g id="svg_14"/>
  <g id="svg_15"/>
  <g id="svg_16"/>
  <g id="svg_17"/>
  <g id="svg_18"/>
  <g id="svg_19"/>
  <g id="svg_20"/>
  <g id="svg_21"/>
  <g id="svg_22"/>
  <g id="svg_23"/>
  <g id="svg_24"/>
 </g>
</svg>