<svg width="488.5" height="488.5" xmlns="http://www.w3.org/2000/svg">
<!-- This work is a derivative( different stroke and fill) of <a rel="license" href="https://www.svgrepo.com/svg/40897/settings">svgrepo's settings svg </a> licensed under a <a rel="license" href="http://creativecommons.org/licenses/by/4.0/">Creative Commons Attribution 4.0 International License</a>. -->
 <g>
  <title>background</title>
  <rect fill="none" id="canvas_background" height="402" width="582" y="-1" x="-1"/>
 </g>
 <g>
  <title>Layer 1</title>
  <g id="svg_1">
   <g id="svg_2">
    <path fill="#ffffff" id="svg_3" d="m364.5,232.45c5.4,4.6 13.4,4.4 18.5,-0.7c4.9,-4.9 5.3,-12.5 1.2,-17.8l0,0l-0.2,-0.2c-0.1,-0.2 -0.3,-0.4 -0.4,-0.5l-33.6,-40c-1.4,-1.7 -2.3,-3.8 -2.4,-6.1l-4.9,-75.3l0,0c-0.6,-7 -6.4,-12.4 -13.6,-12.4c-7,0 -12.7,5.2 -13.5,12l0,0l0,0.1c0,0.3 0,0.6 -0.1,0.9l-5.4,82.7c-0.1,0.5 -0.1,1.1 -0.1,1.6l0,0.2l0,0c0,0.1 0,0.2 0,0.3c0,0.2 0,0.3 0,0.4c-0.1,5 1.8,10 5.6,13.8c0.8,0.8 1.6,1.5 2.5,2.1l46.4,38.9l0,0z"/>
    <path fill="#ffffff" id="svg_4" d="m330.3,16.45c-69.4,0 -128.4,44.9 -149.7,107.1c13.8,1.6 27.2,4.6 40.1,9.1c16.9,-44.1 59.7,-75.5 109.6,-75.5c64.7,0 117.4,52.7 117.4,117.4c0,58.6 -43.1,107.2 -99.3,116c0.9,7.6 1.4,15.4 1.4,23.2c0,6 -0.3,11.9 -0.8,17.8c78.4,-9.3 139.5,-76.1 139.5,-157c-0.1,-87.2 -71,-158.1 -158.2,-158.1z"/>
    <path fill="#ffffff" id="svg_5" d="m303.1,290.45l-20.4,-0.1c-3.2,-16.7 -9.7,-32.9 -19.6,-47.5l14.5,-14.4c5.2,-5.2 5.3,-13.7 0.1,-18.9l-14.6,-14.6c-5.2,-5.2 -13.7,-5.3 -18.9,-0.1l-14.5,14.4c-14.6,-10 -30.7,-16.6 -47.4,-19.9l0.1,-20.4c0,-7.4 -5.9,-13.4 -13.3,-13.4l-20.6,-0.1c-7.4,0 -13.4,5.9 -13.4,13.3l-0.1,20.3c-16.8,3.1 -33.1,9.6 -47.8,19.5l-14.2,-14.2c-5.2,-5.2 -13.7,-5.3 -18.9,0l-14.6,14.6c-5.2,5.2 -5.3,13.7 -0.1,18.9l14,14.1c-10.1,14.6 -16.8,31 -20.1,47.8l-19.8,-0.1c-7.4,0 -13.4,5.9 -13.4,13.3l-0.1,20.6c0,7.4 5.9,13.4 13.3,13.4l19.7,0.1c3.1,16.9 9.7,33.4 19.7,48.1l-13.9,13.8c-5.2,5.2 -5.3,13.7 -0.1,18.9l14.6,14.6c5.2,5.2 13.7,5.3 18.9,0l14.1,-13.6c14.7,10.1 31.1,16.8 48,20l-0.1,19.7c0,7.4 5.9,13.4 13.3,13.4l20.6,0.1c7.4,0 13.4,-5.9 13.4,-13.3l0.1,-19.8c16.9,-3.2 33.2,-9.8 47.9,-19.9l14,14.1c5.2,5.2 13.7,5.3 18.9,0.1l14.6,-14.6c5.2,-5.2 5.3,-13.7 0.1,-18.9l-14.2,-14.2c10,-14.6 16.6,-30.9 19.7,-47.7l20.3,0.1c7.4,0 13.4,-5.9 13.4,-13.3l0.1,-20.6c0.1,-7.6 -5.9,-13.6 -13.3,-13.6zm-96.2,72.1c-27,26.8 -70.6,26.7 -97.4,-0.3s-26.7,-70.6 0.3,-97.4s70.6,-26.7 97.4,0.3c26.8,27 26.6,70.6 -0.3,97.4z"/>
   </g>
  </g>
  <g id="svg_6"/>
  <g id="svg_7"/>
  <g id="svg_8"/>
  <g id="svg_9"/>
  <g id="svg_10"/>
  <g id="svg_11"/>
  <g id="svg_12"/>
  <g id="svg_13"/>
  <g id="svg_14"/>
  <g id="svg_15"/>
  <g id="svg_16"/>
  <g id="svg_17"/>
  <g id="svg_18"/>
  <g id="svg_19"/>
  <g id="svg_20"/>
 </g>
</svg>
