<svg id="SvgjsSvg1014" width="288" height="288" xmlns="http://www.w3.org/2000/svg" version="1.1" xmlns:xlink="http://www.w3.org/1999/xlink" xmlns:svgjs="http://svgjs.com/svgjs"><defs id="SvgjsDefs1015"></defs><g id="SvgjsG1016"><svg xmlns="http://www.w3.org/2000/svg" enable-background="new 0 0 195.667 195.667" viewBox="0 0 195.667 195.667" width="288" height="288"><path d="M97.833,195.667C43.888,195.667,0,151.779,0,97.833C0,43.888,43.888,0,97.833,0c53.946,0,97.833,43.888,97.833,97.833
	C195.667,151.779,151.779,195.667,97.833,195.667z M97.833,5C46.645,5,5,46.645,5,97.833s41.645,92.834,92.833,92.834
	s92.833-41.646,92.833-92.834S149.022,5,97.833,5z M97.833,180.906c-45.583,0-82.667-37.084-82.667-82.667
	c0-45.582,37.084-82.666,82.667-82.666S180.5,52.657,180.5,98.239C180.5,143.822,143.416,180.906,97.833,180.906z M97.833,20.573
	c-42.826,0-77.667,34.841-77.667,77.666c0,42.826,34.841,77.667,77.667,77.667S175.5,141.065,175.5,98.239
	C175.5,55.414,140.659,20.573,97.833,20.573z M97.833,170.705c-1.381,0-2.5-1.119-2.5-2.5v-11.917c0-1.381,1.119-2.5,2.5-2.5
	s2.5,1.119,2.5,2.5v11.917C100.333,169.586,99.214,170.705,97.833,170.705z M147.306,150.213c-0.64,0-1.28-0.244-1.768-0.732
	l-8.426-8.427c-0.976-0.977-0.976-2.56,0-3.535c0.976-0.977,2.56-0.977,3.535,0l8.426,8.427c0.977,0.977,0.977,2.56,0,3.535
	C148.586,149.969,147.946,150.213,147.306,150.213z M48.361,150.213c-0.64,0-1.28-0.244-1.768-0.732
	c-0.977-0.976-0.977-2.559,0-3.535l8.426-8.427c0.977-0.977,2.56-0.977,3.536,0c0.977,0.976,0.977,2.559,0,3.535l-8.426,8.427
	C49.64,149.969,49,150.213,48.361,150.213z M119.085,144.333c-0.852,0-1.677-0.436-2.143-1.21l-22.288-37.001
	c-1.429-0.578-2.667-1.535-3.587-2.745L49.34,121.134c-1.271,0.54-2.738-0.051-3.279-1.322c-0.541-1.271,0.051-2.738,1.321-3.279
	l41.963-17.856c-0.007-0.145-0.011-0.29-0.011-0.437c0-1.8,0.562-3.471,1.52-4.846l4.491-47.297c0.122-1.283,1.2-2.264,2.489-2.264
	s2.367,0.98,2.489,2.264l4.492,47.298c0.958,1.375,1.52,3.045,1.52,4.845c0,0.694-0.083,1.369-0.242,2.016l15.331,40.697
	c0.456,1.209-0.086,2.567-1.249,3.131C119.823,144.253,119.451,144.333,119.085,144.333z M100.587,106.281l6.493,10.779
	l-4.449-11.809C102.005,105.683,101.318,106.03,100.587,106.281z M97.833,101.739c0.003,0,0.007,0.001,0.009,0
	c1.446-0.004,2.758-0.919,3.265-2.279c0.015-0.04,0.031-0.08,0.048-0.119c0.115-0.347,0.178-0.717,0.178-1.102
	c0-0.81-0.276-1.557-0.74-2.15c-0.686-0.59-1.684-0.926-2.76-0.926c-1.078,0-2.076,0.337-2.761,0.928
	c-0.463,0.593-0.739,1.339-0.739,2.148c0,1.576,1.047,2.912,2.482,3.349c0.045,0.01,0.089,0.02,0.134,0.031
	c0.306,0.08,0.593,0.119,0.877,0.12l0,0C97.829,101.739,97.831,101.739,97.833,101.739z M97.833,89.739
	c0.556,0,1.099,0.054,1.625,0.156l-1.625-17.117l-1.625,17.117C96.734,89.793,97.278,89.739,97.833,89.739z M167.799,100.739
	h-11.917c-1.381,0-2.5-1.119-2.5-2.5s1.119-2.5,2.5-2.5h11.917c1.381,0,2.5,1.119,2.5,2.5S169.179,100.739,167.799,100.739z
	 M39.785,100.739H27.868c-1.381,0-2.5-1.119-2.5-2.5s1.119-2.5,2.5-2.5h11.917c1.381,0,2.5,1.119,2.5,2.5
	S41.166,100.739,39.785,100.739z M138.88,59.693c-0.64,0-1.28-0.244-1.768-0.732c-0.977-0.976-0.977-2.559,0-3.535l8.426-8.427
	c0.977-0.977,2.56-0.977,3.536,0c0.977,0.976,0.977,2.559,0,3.535l-8.426,8.427C140.16,59.449,139.52,59.693,138.88,59.693z
	 M56.787,59.693c-0.64,0-1.28-0.244-1.768-0.732l-8.426-8.427c-0.976-0.977-0.976-2.56,0-3.535c0.976-0.977,2.56-0.977,3.535,0
	l8.426,8.427c0.977,0.977,0.977,2.56,0,3.535C58.067,59.449,57.427,59.693,56.787,59.693z M97.833,42.69c-1.381,0-2.5-1.119-2.5-2.5
	V28.274c0-1.381,1.119-2.5,2.5-2.5s2.5,1.119,2.5,2.5V40.19C100.333,41.571,99.214,42.69,97.833,42.69z" fill="#ffffff" class="color000 svgShape"></path></svg></g></svg>