<svg id="SvgjsSvg1001" width="288" height="288" xmlns="http://www.w3.org/2000/svg" version="1.1" xmlns:xlink="http://www.w3.org/1999/xlink" xmlns:svgjs="http://svgjs.com/svgjs"><defs id="SvgjsDefs1002"></defs><g id="SvgjsG1008" transform="matrix(0.9167,0,0,0.9167,11.995200000000011,11.995200054441199)"><svg xmlns="http://www.w3.org/2000/svg" enable-background="new 0 0 612 612" viewBox="0 0 612 612" width="288" height="288"><path d="M306,0.006C137,0.006,0,137,0,306s137,305.994,306,305.994C474.994,611.994,612,475,612,306S474.994,0.006,306,0.006z
			 M306,550.795C171.02,550.795,61.205,440.98,61.205,306S171.02,61.205,306,61.205S550.795,171.02,550.795,306
			S440.98,550.795,306,550.795z" fill="#ffffff" class="color000 svgShape"></path><path d="M471.524,186.754c-3.898-5.532-11.536-6.848-17.068-2.95l-134.594,94.95c-4.168-2.13-8.868-3.348-13.862-3.348
			c-2.313,0-4.553,0.282-6.72,0.765l-96.345-81.982c-5.147-4.388-12.864-3.764-17.258,1.389l-7.925,9.314
			c-4.388,5.147-3.764,12.87,1.383,17.258l96.357,82c-0.037,0.618-0.092,1.23-0.092,1.854c0,15.483,11.573,28.292,26.524,30.293V510
			h8.164V336.293c14.945-2.007,26.517-14.81,26.517-30.293c0-1.328-0.116-2.625-0.282-3.911l134.601-94.95
			c5.526-3.898,6.848-11.536,2.95-17.062L471.524,186.754z" fill="#ffffff" class="color000 svgShape"></path></svg></g></svg>