<?xml version="1.0"?>
<svg xmlns="http://www.w3.org/2000/svg" xmlns:xlink="http://www.w3.org/1999/xlink" xmlns:svgjs="http://svgjs.com/svgjs" version="1.1" width="512" height="512" x="0" y="0" viewBox="0 0 74 74" style="enable-background:new 0 0 512 512" xml:space="preserve" class=""><g><g xmlns="http://www.w3.org/2000/svg" id="line_color" data-name="line color"><path d="m37.02 69.342a32.336 32.336 0 0 1 -28.769-47.221l4 2.07a27.839 27.839 0 0 0 37.977 37.29l.3-.176 2.189 3.936-.1.057c-.082.048-.165.1-.25.143a32.148 32.148 0 0 1 -15.347 3.901z" fill="#ffffff" data-original="#d5d6db" style=""/><path d="m37.02 69.841a32.836 32.836 0 0 1 -29.214-47.95.5.5 0 0 1 .674-.214l4 2.07a.5.5 0 0 1 .214.673 27.346 27.346 0 0 0 37.296 36.622l.293-.169a.5.5 0 0 1 .687.19l2.188 3.937a.5.5 0 0 1 -.187.676l-.1.057c-.083.049-.172.1-.261.149a32.842 32.842 0 0 1 -15.592 3.96zm-28.552-47.041a31.835 31.835 0 0 0 28.552 46.041 31.839 31.839 0 0 0 15.023-3.79l-1.7-3.063a28.338 28.338 0 0 1 -38.76-37.582z" fill="#ffffff" data-original="#323c6b" style="" class=""/><path d="m65.925 51.4-4.034-2a27.835 27.835 0 0 0 -37.981-36.984l-2.11-3.977a32.339 32.339 0 0 1 44.125 42.961z" fill="#ffffff" data-original="#d5d6db" style=""/><g fill="#323c6b"><path d="m65.925 51.9a.494.494 0 0 1 -.222-.052l-4.034-2a.5.5 0 0 1 -.226-.67 27.335 27.335 0 0 0 -37.3-36.316.5.5 0 0 1 -.676-.207l-2.112-3.982a.5.5 0 0 1 .208-.673 32.838 32.838 0 0 1 44.81 43.621.5.5 0 0 1 -.448.279zm-3.368-2.729 3.143 1.556a31.838 31.838 0 0 0 -43.225-42.078l1.644 3.1a28.334 28.334 0 0 1 38.438 37.42z" fill="#ffffff" data-original="#323c6b" style="" class=""/><path d="m20.075 58.444a.5.5 0 0 1 -.389-.814l33.781-41.888a.5.5 0 0 1 .778.628l-33.78 41.888a.5.5 0 0 1 -.39.186z" fill="#ffffff" data-original="#323c6b" style="" class=""/><path d="m24.4 28.49-.751-2.453h-3.73l-.709 2.453h-1.4l3.2-8.7h1.557l3.29 8.7zm-4.087-3.5h2.919l-1.474-3.97z" fill="#ffffff" data-original="#323c6b" style="" class=""/><path d="m32.836 19.795-1.637 6.387-1.655-6.387h-2.303v8.695h1.212v-7.304h.394l1.856 7.304h.972l1.862-7.304h.394v7.304h1.212v-8.695z" fill="#ffffff" data-original="#323c6b" style="" class=""/><path d="m38.819 53.225v-8.7h2.212a10.669 10.669 0 0 1 2.135.13 2.165 2.165 0 0 1 1.2.817 2.636 2.636 0 0 1 .485 1.647 2.776 2.776 0 0 1 -.28 1.312 2.3 2.3 0 0 1 -.708.825 2.475 2.475 0 0 1 -.879.4 10.414 10.414 0 0 1 -1.865.125h-.882v3.44zm1.416-4.564h.69a4.867 4.867 0 0 0 1.533-.158 1.422 1.422 0 0 0 .673-.526 1.439 1.439 0 0 0 .246-.829 1.391 1.391 0 0 0 -.347-.964 1.489 1.489 0 0 0 -.86-.471 8.886 8.886 0 0 0 -1.363-.066h-.571z" fill="#ffffff" data-original="#323c6b" style="" class=""/><path d="m53.861 53.225v-6.966l-.419-.052-1.77 7.018h-1.442l-1.764-7.018-.418.052v6.966h-1.286v-8.695h2.38l1.819 6.839 1.799-6.839h2.386v8.695z" fill="#ffffff" data-original="#323c6b" style="" class=""/><path d="m1.556 34.07a.484.484 0 0 1 -.07 0 .5.5 0 0 1 -.426-.57c.074-.526.161-1.05.257-1.573a.5.5 0 1 1 .983.182c-.094.508-.179 1.019-.25 1.53a.5.5 0 0 1 -.494.431z" fill="#ffffff" data-original="#323c6b" style="" class=""/><path d="m2.368 46.17a.5.5 0 0 1 -.484-.378 36.152 36.152 0 0 1 -1.07-9.7.489.489 0 0 1 .513-.487.5.5 0 0 1 .487.513 35.135 35.135 0 0 0 1.04 9.434.5.5 0 0 1 -.485.622z" fill="#ffffff" data-original="#323c6b" style="" class=""/><path d="m62.88 13a.5.5 0 0 1 -.363-.156 35.04 35.04 0 0 0 -6.292-5.233.5.5 0 1 1 .546-.838 36.075 36.075 0 0 1 6.472 5.383.5.5 0 0 1 -.363.844z" fill="#ffffff" data-original="#323c6b" style="" class=""/><path d="m65.663 16.308a.5.5 0 0 1 -.4-.2q-.289-.391-.59-.773a.5.5 0 1 1 .786-.618c.206.262.41.528.608.8a.5.5 0 0 1 -.4.8z" fill="#ffffff" data-original="#323c6b" style="" class=""/></g><path d="m16.117 17.178a1.674 1.674 0 0 1 -1.51-2.386l3.92-8.354a1.674 1.674 0 0 1 2.846-.3l5.175 6.788a1.674 1.674 0 0 1 -1.048 2.66l-9.094 1.567a1.681 1.681 0 0 1 -.289.025z" fill="#ffffff" data-original="#d5d6db" style=""/><path d="m16.117 17.678a2.175 2.175 0 0 1 -1.963-3.1l3.92-8.354a2.174 2.174 0 0 1 3.7-.4l5.175 6.788a2.174 2.174 0 0 1 -1.361 3.46l-9.093 1.567a2.128 2.128 0 0 1 -.378.039zm3.926-11.7a1.164 1.164 0 0 0 -1.064.675l-3.92 8.347a1.166 1.166 0 0 0 .071 1.127 1.147 1.147 0 0 0 1.188.529l9.1-1.567a1.174 1.174 0 0 0 .735-1.869l-5.178-6.783a1.165 1.165 0 0 0 -.932-.462z" fill="#ffffff" data-original="#323c6b" style="" class=""/><path d="m53.888 68.527a1.66 1.66 0 0 1 -1.33-.659l-5.174-6.788a1.674 1.674 0 0 1 1.047-2.664l9.094-1.567a1.681 1.681 0 0 1 .289-.025 1.674 1.674 0 0 1 1.511 2.386l-3.925 8.354a1.659 1.659 0 0 1 -1.516.963z" fill="#ffffff" data-original="#d5d6db" style=""/><path d="m53.888 69.027a2.155 2.155 0 0 1 -1.727-.855l-5.175-6.788a2.174 2.174 0 0 1 1.359-3.46l9.095-1.567a2.141 2.141 0 0 1 2.205.978 2.163 2.163 0 0 1 .132 2.088l-3.92 8.354a2.155 2.155 0 0 1 -1.969 1.25zm3.926-11.7a1.161 1.161 0 0 0 -.2.018l-9.1 1.567a1.174 1.174 0 0 0 -.734 1.869l5.175 6.787a1.212 1.212 0 0 0 2-.213l3.918-8.355a1.175 1.175 0 0 0 -1.059-1.674z" fill="#ffffff" data-original="#323c6b" style="" class=""/></g></g></svg>
