<?xml version="1.0" encoding="UTF-8" standalone="no"?>
<!DOCTYPE svg PUBLIC "-//W3C//DTD SVG 1.1//EN" "http://www.w3.org/Graphics/SVG/1.1/DTD/svg11.dtd">
<svg version="1.1" xmlns="http://www.w3.org/2000/svg" xmlns:xlink="http://www.w3.org/1999/xlink" preserveAspectRatio="xMidYMid meet" viewBox="0 0 640 640" width="640" height="640"><defs><path d="M36.92 301.03C36.83 248.69 47.81 197.1 68.92 150.64C72.44 152.73 100.65 169.39 104.18 171.47C41.8 308.79 88.77 477.83 209.1 549.02C281.33 591.76 367.42 590.86 438.96 546.63C439.13 546.51 440.01 545.92 441.6 544.86L460.9 584.46C460.37 584.8 460.07 584.99 460.02 585.03C459.29 585.51 458.56 586.03 457.81 586.47C416.29 612.22 369.78 625.71 322.52 625.71C165.09 626.06 37.22 480.69 36.92 301.03Z" id="c28nl5PD"></path><path d="M33.44 301.22C33.35 248.57 44.45 196.68 65.79 149.94C66.9 147.5 69.55 146.54 71.7 147.81C71.7 147.81 71.7 147.81 71.7 147.81C75.21 149.87 103.3 166.38 106.81 168.44C108.96 169.71 109.8 172.71 108.69 175.15C47.76 308.84 93.81 473.32 211.53 542.51C282.08 583.98 366.14 583.11 436.02 540.18C436.27 540.02 438.33 538.67 438.59 538.5C440.69 537.12 443.37 537.94 444.58 540.32C444.59 540.35 444.6 540.37 444.62 540.39C446.54 544.32 461.9 575.71 463.82 579.64C464.98 582.02 464.25 585.01 462.18 586.38C462.09 586.43 461.39 586.89 461.3 586.94C460.57 587.43 459.79 587.94 459.01 588.43C416.98 614.27 369.96 627.83 322.17 627.9C163.02 628.24 33.75 481.98 33.44 301.22ZM71.6 159C2.74 315.84 58.86 506.37 196.96 584.58C235.85 606.6 278.73 618.02 322.18 617.92C368.2 617.85 413.49 604.88 454.03 580.15C452.54 577.09 440.61 552.67 439.11 549.61C318.02 623.26 167.3 571.47 102.45 433.95C64.46 353.36 63.15 256.88 98.94 175.01C93.47 171.81 77.06 162.2 71.6 159Z" id="b5unXbU5F"></path><path d="M527.53 466.93C585.63 331.92 538.12 167.99 421.41 100.79C353.18 61.5 272.74 62.73 205.43 104.11C203.64 100.21 189.33 69 187.54 65.1C321.31 -17.09 487.35 41.73 558.39 196.47C599.9 286.87 601.15 394.89 561.75 486.55C554.9 482.62 530.96 468.89 527.53 466.93Z" id="d8b5JIm17C"></path><path d="M558.15 482.46C554.76 480.53 527.67 465.17 524.28 463.25C522.21 462.07 521.36 459.19 522.39 456.81C578.85 327 532.64 169.39 419.17 104.8C352.84 67.04 274.67 68.23 209.25 108.01C207.2 109.25 204.66 108.36 203.57 106.02C201.8 102.19 187.62 71.6 185.84 67.77C184.77 65.43 185.55 62.55 187.59 61.31C322.04 -20.42 488.95 38.03 560.38 191.86C602.12 281.74 603.39 389.14 563.77 480.28C563.07 481.91 561.61 482.95 560.01 482.96C559.37 482.96 558.73 482.79 558.15 482.46ZM558.12 471.69C621.8 319.33 565.47 136.75 432.29 63.9C357.1 22.76 269.44 24.11 195.24 67.54C196.62 70.52 207.67 94.34 209.05 97.32C326.13 29.16 469.34 82.49 528.92 216.45C562.39 291.7 563.43 380.47 531.74 456.72C531.74 456.73 555.49 470.19 558.12 471.69Z" id="eqW6kfTw3"></path><path d="M451.55 111.45C449.55 108.74 447.88 106.64 447.47 106.1C446.26 104.62 446.49 102.44 447.97 101.23C449.45 100.03 451.63 100.25 452.83 101.73C452.86 101.76 452.88 101.79 452.91 101.83C454.33 103.64 455.74 105.48 457.11 107.36C458.26 108.89 457.95 111.06 456.42 112.2C455.82 112.65 455.09 112.9 454.34 112.9C453.23 112.83 452.2 112.32 451.55 111.45Z" id="a1b73EXVjC"></path><path d="M137.97 116.37C137.97 114.68 138.35 113.01 139.07 111.48C141.78 105.7 163.48 59.46 166.19 53.68C168.92 47.89 175.82 45.41 181.6 48.14C183.29 48.94 184.75 50.12 185.88 51.6C189.46 56.3 218.1 93.87 221.68 98.57C225.55 103.67 224.54 110.93 219.44 114.79C217.97 115.91 216.25 116.66 214.43 116.97C208.14 118.06 157.81 126.73 151.51 127.81C150.85 127.93 150.18 127.99 149.51 127.99C143.12 127.97 137.95 122.77 137.97 116.37Z" id="b2mtJ4dh54"></path><path d="M134.13 117.69C134.14 115.49 134.63 113.32 135.56 111.32C138.28 105.54 159.97 59.3 162.69 53.52C166.19 45.99 175.14 42.73 182.67 46.24C184.88 47.27 186.81 48.82 188.29 50.76C191.87 55.45 220.51 93.03 224.09 97.72C229.12 104.33 227.85 113.77 221.24 118.8C219.31 120.27 217.06 121.25 214.67 121.66C208.38 122.75 158.05 131.42 151.76 132.5C150.9 132.67 150.02 132.76 149.14 132.77C140.83 132.75 134.11 126 134.13 117.69ZM168.95 56.49C166.23 62.27 144.54 108.47 141.82 114.24C140.63 116.75 140.82 119.7 142.32 122.04C144.03 124.85 147.3 126.3 150.54 125.7C156.83 124.62 207.2 115.94 213.5 114.86C217.92 114.1 220.89 109.9 220.13 105.48C219.91 104.19 219.38 102.97 218.58 101.93C215 97.24 186.34 59.69 182.76 55C181.23 52.98 178.84 51.79 176.31 51.8C173.15 51.8 170.27 53.63 168.95 56.49Z" id="e2BBPQR5K7"></path><path d="M465.84 589.35C462.26 584.66 433.62 547.08 430.04 542.39C426.17 537.3 427.15 530.03 432.24 526.16C433.72 525.03 435.45 524.27 437.29 523.96C443.58 522.87 493.92 514.2 500.21 513.11C500.87 513 501.54 512.94 502.21 512.94C508.6 512.96 513.78 518.15 513.76 524.55C513.76 526.24 513.38 527.92 512.66 529.45C509.95 535.23 488.22 581.47 485.51 587.25C483.62 591.34 479.52 593.94 475.02 593.91C471.43 593.93 468.02 592.24 465.84 589.35Z" id="a1y4l3T1gZ"></path><path d="M465.29 589.26C461.71 584.56 433.07 546.99 429.49 542.29C424.45 535.69 425.73 526.25 432.33 521.21C434.26 519.75 436.51 518.77 438.89 518.35C445.18 517.27 495.53 508.6 501.82 507.51C507.81 506.42 513.86 509.1 517.07 514.28C519.84 518.62 520.19 524.07 517.99 528.73C515.28 534.51 493.58 580.75 490.87 586.53C488.41 591.83 483.09 595.21 477.24 595.17C472.55 595.19 468.12 593 465.29 589.26ZM503.02 514.35C496.73 515.43 446.36 524.11 440.06 525.19C435.64 525.95 432.67 530.15 433.43 534.57C433.66 535.86 434.19 537.08 434.98 538.12C438.56 542.82 467.21 580.38 470.79 585.08C473.76 588.63 479.05 589.09 482.6 586.11C483.43 585.42 484.12 584.56 484.62 583.61C487.34 577.83 509.02 531.58 511.73 525.8C513.64 521.73 511.89 516.89 507.83 514.99C506.76 514.48 505.59 514.22 504.41 514.22C503.94 514.22 503.48 514.27 503.02 514.35Z" id="b3dU5LO7Fd"></path><path d="M424.22 339.73L438.52 339.73L438.52 391.74L424.22 391.74L424.22 339.73Z" id="etDDz4V71"></path><path d="M387.44 380.84L438.52 380.84L438.52 393.27L387.44 393.27L387.44 380.84Z" id="k4t0tPfhg9"></path><path d="M381.84 380.84L396.14 380.84L396.14 430.26L381.84 430.26L381.84 380.84Z" id="h2EsieZjen"></path><path d="M387.44 417.83L438.52 417.83L438.52 430.26L387.44 430.26L387.44 417.83Z" id="e1r5Ng9Jpk"></path><path d="M505.07 339.73L519.37 339.73L519.37 427.68L505.07 427.68L505.07 339.73Z" id="b2qjsOcm63"></path><path d="M468.34 379.3L505.83 379.3L505.83 391.74L468.34 391.74L468.34 379.3Z" id="b1jC45mrhK"></path><path d="M464.22 339.73L478.52 339.73L478.52 391.74L464.22 391.74L464.22 339.73Z" id="j2qBn8TWJ"></path><path d="M381.84 339.73L438.52 339.73L438.52 352.17L381.84 352.17L381.84 339.73Z" id="ilp9UBPIf"></path><path d="M436.51 160.74L450.57 169.36L256.22 486.55L242.16 477.93L436.51 160.74Z" id="aN8EG2iqi"></path><path d="M198.41 232.05L212.71 232.05L212.71 339.73L198.41 339.73L198.41 232.05Z" id="b229KsuW5q"></path><path d="M237 232.05L293.69 232.05L293.69 244.49L237 244.49L237 232.05Z" id="d1xxpwBnqc"></path><path d="M237 282.81L293.69 282.81L293.69 295.25L237 295.25L237 282.81Z" id="b1prMQaSI2"></path><path d="M279.39 234.46L293.69 234.46L293.69 286.46L279.39 286.46L279.39 234.46Z" id="a6u7FZ1IeC"></path><path d="M234.61 282.81L248.91 282.81L248.91 332.24L234.61 332.24L234.61 282.81Z" id="c4HfK20al"></path><path d="M234.61 327.29L293.69 327.29L293.69 339.73L234.61 339.73L234.61 327.29Z" id="d1haj2Ta0S"></path></defs><g><g><g><use xlink:href="#c28nl5PD" opacity="1" fill="#ffffff" fill-opacity="1"></use><g><use xlink:href="#c28nl5PD" opacity="1" fill-opacity="0" stroke="#000000" stroke-width="1" stroke-opacity="0"></use></g></g><g><use xlink:href="#b5unXbU5F" opacity="1" fill="#ffffff" fill-opacity="1"></use><g><use xlink:href="#b5unXbU5F" opacity="1" fill-opacity="0" stroke="#000000" stroke-width="1" stroke-opacity="0"></use></g></g><g><use xlink:href="#d8b5JIm17C" opacity="1" fill="#ffffff" fill-opacity="1"></use><g><use xlink:href="#d8b5JIm17C" opacity="1" fill-opacity="0" stroke="#000000" stroke-width="1" stroke-opacity="0"></use></g></g><g><use xlink:href="#eqW6kfTw3" opacity="1" fill="#ffffff" fill-opacity="1"></use><g><use xlink:href="#eqW6kfTw3" opacity="1" fill-opacity="0" stroke="#000000" stroke-width="1" stroke-opacity="0"></use></g></g><g><use xlink:href="#a1b73EXVjC" opacity="1" fill="#ffffff" fill-opacity="1"></use><g><use xlink:href="#a1b73EXVjC" opacity="1" fill-opacity="0" stroke="#000000" stroke-width="1" stroke-opacity="0"></use></g></g><g><use xlink:href="#b2mtJ4dh54" opacity="1" fill="#ffffff" fill-opacity="1"></use><g><use xlink:href="#b2mtJ4dh54" opacity="1" fill-opacity="0" stroke="#000000" stroke-width="1" stroke-opacity="0"></use></g></g><g><use xlink:href="#e2BBPQR5K7" opacity="1" fill="#ffffff" fill-opacity="1"></use><g><use xlink:href="#e2BBPQR5K7" opacity="1" fill-opacity="0" stroke="#000000" stroke-width="1" stroke-opacity="0"></use></g></g><g><use xlink:href="#a1y4l3T1gZ" opacity="1" fill="#ffffff" fill-opacity="1"></use><g><use xlink:href="#a1y4l3T1gZ" opacity="1" fill-opacity="0" stroke="#000000" stroke-width="1" stroke-opacity="0"></use></g></g><g><use xlink:href="#b3dU5LO7Fd" opacity="1" fill="#ffffff" fill-opacity="1"></use><g><use xlink:href="#b3dU5LO7Fd" opacity="1" fill-opacity="0" stroke="#000000" stroke-width="1" stroke-opacity="0"></use></g></g><g><use xlink:href="#etDDz4V71" opacity="1" fill="#ffffff" fill-opacity="1"></use><g><use xlink:href="#etDDz4V71" opacity="1" fill-opacity="0" stroke="#ffffff" stroke-width="1" stroke-opacity="1"></use></g></g><g><use xlink:href="#k4t0tPfhg9" opacity="1" fill="#ffffff" fill-opacity="1"></use><g><use xlink:href="#k4t0tPfhg9" opacity="1" fill-opacity="0" stroke="#ffffff" stroke-width="1" stroke-opacity="1"></use></g></g><g><use xlink:href="#h2EsieZjen" opacity="1" fill="#ffffff" fill-opacity="1"></use><g><use xlink:href="#h2EsieZjen" opacity="1" fill-opacity="0" stroke="#ffffff" stroke-width="1" stroke-opacity="1"></use></g></g><g><use xlink:href="#e1r5Ng9Jpk" opacity="1" fill="#ffffff" fill-opacity="1"></use><g><use xlink:href="#e1r5Ng9Jpk" opacity="1" fill-opacity="0" stroke="#ffffff" stroke-width="1" stroke-opacity="1"></use></g></g><g><use xlink:href="#b2qjsOcm63" opacity="1" fill="#ffffff" fill-opacity="1"></use><g><use xlink:href="#b2qjsOcm63" opacity="1" fill-opacity="0" stroke="#ffffff" stroke-width="1" stroke-opacity="1"></use></g></g><g><use xlink:href="#b1jC45mrhK" opacity="1" fill="#ffffff" fill-opacity="1"></use><g><use xlink:href="#b1jC45mrhK" opacity="1" fill-opacity="0" stroke="#ffffff" stroke-width="1" stroke-opacity="1"></use></g></g><g><use xlink:href="#j2qBn8TWJ" opacity="1" fill="#ffffff" fill-opacity="1"></use><g><use xlink:href="#j2qBn8TWJ" opacity="1" fill-opacity="0" stroke="#ffffff" stroke-width="1" stroke-opacity="1"></use></g></g><g><use xlink:href="#ilp9UBPIf" opacity="1" fill="#ffffff" fill-opacity="1"></use><g><use xlink:href="#ilp9UBPIf" opacity="1" fill-opacity="0" stroke="#ffffff" stroke-width="1" stroke-opacity="1"></use></g></g><g><use xlink:href="#aN8EG2iqi" opacity="1" fill="#ffffff" fill-opacity="1"></use></g><g><use xlink:href="#b229KsuW5q" opacity="1" fill="#ffffff" fill-opacity="1"></use><g><use xlink:href="#b229KsuW5q" opacity="1" fill-opacity="0" stroke="#ffffff" stroke-width="1" stroke-opacity="1"></use></g></g><g><use xlink:href="#d1xxpwBnqc" opacity="1" fill="#ffffff" fill-opacity="1"></use><g><use xlink:href="#d1xxpwBnqc" opacity="1" fill-opacity="0" stroke="#ffffff" stroke-width="1" stroke-opacity="1"></use></g></g><g><use xlink:href="#b1prMQaSI2" opacity="1" fill="#ffffff" fill-opacity="1"></use><g><use xlink:href="#b1prMQaSI2" opacity="1" fill-opacity="0" stroke="#ffffff" stroke-width="1" stroke-opacity="1"></use></g></g><g><use xlink:href="#a6u7FZ1IeC" opacity="1" fill="#ffffff" fill-opacity="1"></use><g><use xlink:href="#a6u7FZ1IeC" opacity="1" fill-opacity="0" stroke="#ffffff" stroke-width="1" stroke-opacity="1"></use></g></g><g><use xlink:href="#c4HfK20al" opacity="1" fill="#ffffff" fill-opacity="1"></use><g><use xlink:href="#c4HfK20al" opacity="1" fill-opacity="0" stroke="#ffffff" stroke-width="1" stroke-opacity="1"></use></g></g><g><use xlink:href="#d1haj2Ta0S" opacity="1" fill="#ffffff" fill-opacity="1"></use><g><use xlink:href="#d1haj2Ta0S" opacity="1" fill-opacity="0" stroke="#ffffff" stroke-width="1" stroke-opacity="1"></use></g></g></g></g></svg>