<svg id="SvgjsSvg1001" width="288" height="288" xmlns="http://www.w3.org/2000/svg" version="1.1" xmlns:xlink="http://www.w3.org/1999/xlink" xmlns:svgjs="http://svgjs.com/svgjs"><defs id="SvgjsDefs1002"></defs><g id="SvgjsG1008" transform="matrix(0.9167,0,0,0.9167,11.995200000000011,11.995200000000011)"><svg xmlns="http://www.w3.org/2000/svg" enable-background="new 0 0 512 512" viewBox="0 0 512 512" width="288" height="288"><g transform="translate(1 1)" fill="#ffffff" class="color000 svgShape"><path d="M255 63c-11.782 0-21.333 9.551-21.333 21.333v21.333c0 11.782 9.551 21.333 21.333 21.333s21.333-9.551 21.333-21.333V84.333C276.333 72.551 266.782 63 255 63zM255 383c-11.782 0-21.333 9.551-21.333 21.333v21.333c0 11.782 9.551 21.333 21.333 21.333s21.333-9.551 21.333-21.333v-21.333C276.333 392.551 266.782 383 255 383z" fill="#ffffff" class="color000 svgShape"></path><path d="M255-1C113.618-1-1,113.618-1,255s114.618,256,256,256s256-114.618,256-256S396.382-1,255-1z M255,468.333
				c-117.818,0-213.333-95.515-213.333-213.333S137.182,41.667,255,41.667S468.333,137.182,468.333,255S372.818,468.333,255,468.333
				z" fill="#ffffff" class="color000 svgShape"></path><path d="M425.667 233.667h-21.333C392.551 233.667 383 243.218 383 255s9.551 21.333 21.333 21.333h21.333c11.782 0 21.333-9.551 21.333-21.333S437.449 233.667 425.667 233.667zM127 255c0-11.782-9.551-21.333-21.333-21.333H84.333C72.551 233.667 63 243.218 63 255s9.551 21.333 21.333 21.333h21.333C117.449 276.333 127 266.782 127 255zM134.319 164.487c8.331 8.331 21.839 8.331 30.17 0 8.331-8.331 8.331-21.839 0-30.17l-15.083-15.083c-8.331-8.331-21.839-8.331-30.17 0-8.331 8.331-8.331 21.839 0 30.17L134.319 164.487zM375.681 345.509c-8.331-8.331-21.839-8.331-30.17 0s-8.331 21.839 0 30.17l15.083 15.083c8.331 8.331 21.839 8.331 30.17 0s8.331-21.839 0-30.17L375.681 345.509zM375.683 164.487l15.083-15.083c8.331-8.331 8.331-21.839 0-30.17-8.331-8.331-21.839-8.331-30.17 0l-15.083 15.083c-8.331 8.331-8.331 21.839 0 30.17C353.844 172.818 367.352 172.818 375.683 164.487zM134.319 345.509l-15.083 15.083c-8.331 8.331-8.331 21.839 0 30.17 8.331 8.331 21.839 8.331 30.17 0l15.083-15.083c8.331-8.331 8.331-21.839 0-30.17S142.651 337.177 134.319 345.509zM255 148.333c-11.782 0-21.333 9.551-21.333 21.333v64H191c-11.782 0-21.333 9.551-21.333 21.333s9.551 21.333 21.333 21.333h64c11.782 0 21.333-9.551 21.333-21.333v-85.333C276.333 157.885 266.782 148.333 255 148.333z" fill="#ffffff" class="color000 svgShape"></path></g></svg></g></svg>