<svg id="SvgjsSvg1012" width="288" height="288" xmlns="http://www.w3.org/2000/svg" version="1.1" xmlns:xlink="http://www.w3.org/1999/xlink" xmlns:svgjs="http://svgjs.com/svgjs"><defs id="SvgjsDefs1013"></defs><g id="SvgjsG1014"><svg xmlns="http://www.w3.org/2000/svg" enable-background="new 0 0 52.666 52.666" viewBox="0 0 52.666 52.666" width="288" height="288"><path fill="#ffffff" d="M26.332,0C11.79,0,0,11.789,0,26.333s11.789,26.333,26.332,26.333s26.334-11.79,26.334-26.333
		S40.875,0,26.332,0z M26.332,46C15.471,46,6.666,37.195,6.666,26.333S15.471,6.666,26.332,6.666S46,15.471,46,26.333
		S37.194,46,26.332,46z" class="color010002 svgShape"></path><path fill="#ffffff" d="M40.084,27.833H26.333c-0.829,0-1.5-0.671-1.5-1.5v-11c0-0.829,0.671-1.5,1.5-1.5
			s1.5,0.671,1.5,1.5v9.5h12.251c0.829,0,1.5,0.671,1.5,1.5C41.584,27.162,40.913,27.833,40.084,27.833z" class="color010002 svgShape"></path></svg></g></svg>