<?xml version="1.0" encoding="UTF-8" standalone="no"?>
<!DOCTYPE svg PUBLIC "-//W3C//DTD SVG 1.1//EN" "http://www.w3.org/Graphics/SVG/1.1/DTD/svg11.dtd" [
	<!ENTITY stroke_color "#000000">
	<!ENTITY fill_color "#999999">
]>
<svg
   xmlns:dc="http://purl.org/dc/elements/1.1/"
   xmlns:cc="http://creativecommons.org/ns#"
   xmlns:rdf="http://www.w3.org/1999/02/22-rdf-syntax-ns#"
   xmlns:svg="http://www.w3.org/2000/svg"
   xmlns="http://www.w3.org/2000/svg"
   width="55pt"
   height="55pt"
   version="1.1"
   viewBox="0 0 55 55"
   id="svg2">
  <defs
     id="defs16" />
  <path
	 style="fill:&fill_color;;stroke:&fill_color;"
     id="path6"
     d="m 29.356343,18.725395 16.459107,0 c 0.819598,0 1.481023,-0.663399 1.481023,-1.481023 0,-0.817624 -0.661425,-1.481024 -1.481023,-1.481024 l -16.459107,0 c -0.817623,0 -1.481023,0.6634 -1.481023,1.481024 0,0.817624 0.6634,1.481023 1.481023,1.481023 z" />
  <path
	 style="fill:&fill_color;;stroke:&fill_color;"
     id="path8"
     d="m 21.625401,11.41457 c -0.619018,-0.534156 -1.554285,-0.46282 -2.08849,0.158129 l -5.833257,6.776669 -3.9493962,-3.455721 c -0.6170931,-0.538006 -1.5523593,-0.474391 -2.0923405,0.140776 -0.5380064,0.617093 -0.4743915,1.55236 0.1407762,2.092341 l 5.0601635,4.414141 0,-0.0019 c 0.273836,0.239126 0.624794,0.368326 0.987349,0.366401 l 0.104135,0 c 0.39147,-0.02507 0.755915,-0.202486 1.016279,-0.493675 l 6.807277,-7.898791 0.0019,0 c 0.258409,-0.298905 0.389539,-0.688429 0.360615,-1.081839 -0.02892,-0.393399 -0.214053,-0.759814 -0.514903,-1.016278 z" />
  <path
	 style="fill:&fill_color;;stroke:&fill_color;"
     id="path10"
     d="m 28.937707,38.472374 16.47836,0 c 0.817624,0 1.481024,-0.6634 1.481024,-1.481023 0,-0.817624 -0.6634,-1.481024 -1.481024,-1.481024 l -16.47836,0 c -0.817623,0 -1.481023,0.6634 -1.481023,1.481024 0,0.817623 0.6634,1.481023 1.481023,1.481023 z" />
  <path
	 style="fill:&stroke_color;;stroke:&stroke_color;"
     id="path12"
     d="m 20.549191,30.849547 c -0.578537,-0.576612 -1.513804,-0.576612 -2.092341,0 l -4.047736,4.047735 -4.043885,-4.047735 c -0.5843127,-0.543832 -1.492575,-0.526455 -2.0576348,0.03664 -0.5630851,0.565011 -0.5785371,1.473322 -0.03471,2.057635 l 4.0477361,4.047736 -4.0477361,4.047736 c -0.2950495,0.273836 -0.4647501,0.655649 -0.4724613,1.058685 -0.00579,0.40111 0.1504177,0.788743 0.4338955,1.072211 0.2834777,0.283478 0.671101,0.441607 1.0741369,0.433896 0.4011105,-0.0077 0.782918,-0.177417 1.05676,-0.470531 l 4.047735,-4.047736 4.047736,4.047736 c 0.584313,0.543831 1.494501,0.526454 2.057635,-0.03664 0.563085,-0.56501 0.580463,-1.473322 0.03664,-2.057635 l -4.047736,-4.047736 4.047736,-4.047736 c 0.576611,-0.580462 0.572761,-1.517654 -0.0058,-2.094265 z" />
</svg>
