<?xml version="1.0"?>
<svg xmlns="http://www.w3.org/2000/svg" xmlns:xlink="http://www.w3.org/1999/xlink" version="1.1" id="Capa_1" x="0px" y="0px" width="512px" height="512px" viewBox="0 0 97.16 97.16" style="enable-background:new 0 0 97.16 97.16;" xml:space="preserve"><g transform="matrix(0.886385 0 0 0.886385 5.51942 5.51942)"><g>
	<g>
		<path d="M48.58,0C21.793,0,0,21.793,0,48.58s21.793,48.58,48.58,48.58s48.58-21.793,48.58-48.58S75.367,0,48.58,0z M48.58,86.823    c-21.087,0-38.244-17.155-38.244-38.243S27.493,10.337,48.58,10.337S86.824,27.492,86.824,48.58S69.667,86.823,48.58,86.823z" data-original="#000000" class="active-path" data-old_color="#EEE7E7" fill="#FFFFFF"/>
		<path d="M73.898,47.08H52.066V20.83c0-2.209-1.791-4-4-4c-2.209,0-4,1.791-4,4v30.25c0,2.209,1.791,4,4,4h25.832    c2.209,0,4-1.791,4-4S76.107,47.08,73.898,47.08z" data-original="#000000" class="active-path" data-old_color="#EEE7E7" fill="#FFFFFF"/>
	</g>
</g></g> </svg>
