<?xml version="1.0" encoding="UTF-8" standalone="no"?>
<!-- Created with Inkscape (http://www.inkscape.org/) -->

<svg
   xmlns:dc="http://purl.org/dc/elements/1.1/"
   xmlns:cc="http://creativecommons.org/ns#"
   xmlns:rdf="http://www.w3.org/1999/02/22-rdf-syntax-ns#"
   xmlns:svg="http://www.w3.org/2000/svg"
   xmlns="http://www.w3.org/2000/svg"
   xmlns:sodipodi="http://sodipodi.sourceforge.net/DTD/sodipodi-0.dtd"
   xmlns:inkscape="http://www.inkscape.org/namespaces/inkscape"
   width="100mm"
   height="100mm"
   viewBox="0 0 100 100"
   version="1.1"
   id="svg8"
   inkscape:version="0.92.3 (2405546, 2018-03-11)"
   sodipodi:docname="group_image.svg">
  <defs
     id="defs2">
    <inkscape:path-effect
       effect="bspline"
       id="path-effect4779"
       is_visible="true"
       weight="33.333333"
       steps="2"
       helper_size="0"
       apply_no_weight="true"
       apply_with_weight="true"
       only_selected="false" />
    <symbol
       id="Merge">
      <title
         id="title7205">Merge</title>
      <desc
         id="desc7207">Combine two or more sets of items into one set. (ISO)</desc>
      <path
         inkscape:connector-curvature="0"
         d="M 9.2604167,9.2604167 H 30.427083 L 19.84375,27.78125 Z"
         style="stroke-width:0.52916664"
         id="path7209" />
    </symbol>
    <symbol
       id="Extract">
      <title
         id="title7249">Extract</title>
      <desc
         id="desc7251">Removal of one or more specific sets of times from a set. (ISO)</desc>
      <path
         inkscape:connector-curvature="0"
         d="M 9.2604167,30.427083 19.84375,11.90625 30.427083,30.427083 Z"
         style="stroke-width:0.52916664"
         id="path7253" />
    </symbol>
  </defs>
  <sodipodi:namedview
     id="base"
     pagecolor="#ffffff"
     bordercolor="#666666"
     borderopacity="1.0"
     inkscape:pageopacity="0.0"
     inkscape:pageshadow="2"
     inkscape:zoom="1.508125"
     inkscape:cx="151.66596"
     inkscape:cy="188.97638"
     inkscape:document-units="mm"
     inkscape:current-layer="layer1"
     showgrid="false"
     fit-margin-top="0"
     fit-margin-left="0"
     fit-margin-right="0"
     fit-margin-bottom="0"
     inkscape:window-width="1413"
     inkscape:window-height="751"
     inkscape:window-x="187"
     inkscape:window-y="68"
     inkscape:window-maximized="0"
     inkscape:snap-grids="false"
     inkscape:snap-to-guides="false" />
  <metadata
     id="metadata5">
    <rdf:RDF>
      <cc:Work
         rdf:about="">
        <dc:format>image/svg+xml</dc:format>
        <dc:type
           rdf:resource="http://purl.org/dc/dcmitype/StillImage" />
        <dc:title></dc:title>
      </cc:Work>
    </rdf:RDF>
  </metadata>
  <g
     inkscape:label="Calque 1"
     inkscape:groupmode="layer"
     id="layer1"
     transform="translate(-43.845234,-67.946426)">
    <rect
       id="rect3713"
       width="100"
       height="100"
       x="43.019382"
       y="67.946426"
       style="fill:#ffeeaa;stroke-width:0.26458332" />
    <rect
       style="fill:#ffffff;stroke-width:0.15641187"
       y="74.086777"
       x="50.56039"
       height="87.368423"
       width="40"
       id="rect893" />
    <flowRoot
       xml:space="preserve"
       id="flowRoot852"
       style="fill:black;fill-opacity:1;stroke:none;font-family:Webdings;font-style:normal;font-weight:normal;font-size:40px;line-height:1.25;letter-spacing:0px;word-spacing:0px;-inkscape-font-specification:Webdings;font-stretch:normal;font-variant:normal;"><flowRegion
         id="flowRegion854"
         style="-inkscape-font-specification:Webdings;font-family:Webdings;font-weight:normal;font-style:normal;font-stretch:normal;font-variant:normal;"><rect
           id="rect856"
           width="60.104073"
           height="56.568539"
           x="197.28278"
           y="213.19688"
           style="-inkscape-font-specification:Webdings;font-family:Webdings;font-weight:normal;font-style:normal;font-stretch:normal;font-variant:normal;" /></flowRegion><flowPara
         id="flowPara858" /></flowRoot>    <text
       xml:space="preserve"
       style="font-style:normal;font-weight:normal;font-size:10.58333302px;line-height:1.25;font-family:Webdings;letter-spacing:0px;word-spacing:0px;fill:#000000;fill-opacity:1;stroke:none;stroke-width:0.26458332;-inkscape-font-specification:Webdings;font-stretch:normal;font-variant:normal;"
       x="100.5331"
       y="129.96742"
       id="text862"><tspan
         sodipodi:role="line"
         id="tspan860"
         x="100.5331"
         y="139.33119"
         style="stroke-width:0.26458332;-inkscape-font-specification:Webdings;font-family:Webdings;font-weight:normal;font-style:normal;font-stretch:normal;font-variant:normal;" /></text>
    <text
       xml:space="preserve"
       style="font-style:normal;font-weight:normal;font-size:10.58333302px;line-height:1.25;font-family:Webdings;letter-spacing:0px;word-spacing:0px;fill:#000000;fill-opacity:1;stroke:none;stroke-width:0.26458332;-inkscape-font-specification:Webdings;font-stretch:normal;font-variant:normal;"
       x="102.02981"
       y="123.7935"
       id="text870"><tspan
         sodipodi:role="line"
         id="tspan868"
         x="102.02981"
         y="133.15727"
         style="stroke-width:0.26458332;-inkscape-font-specification:Webdings;font-family:Webdings;font-weight:normal;font-style:normal;font-stretch:normal;font-variant:normal;" /></text>
    <g
       id="g869"
       transform="translate(13.535964,17.126094)">
      <rect
         ry="0.66362882"
         y="107.28168"
         x="49.826836"
         height="21.080442"
         width="27.991709"
         id="rect10019"
         style="fill:#ffeeaa;stroke:#b3b3b3;stroke-width:0.8495028;stroke-miterlimit:4;stroke-dasharray:none" />
      <text
         id="text874"
         y="120.5488"
         x="60.870296"
         style="font-style:normal;font-variant:normal;font-weight:normal;font-stretch:normal;font-size:10.58333302px;line-height:1.25;font-family:Webdings;-inkscape-font-specification:Webdings;letter-spacing:0px;word-spacing:0px;fill:#000000;fill-opacity:1;stroke:none;stroke-width:0.26458332"
         xml:space="preserve"><tspan
           style="font-style:normal;font-variant:normal;font-weight:normal;font-stretch:normal;font-family:Webdings;-inkscape-font-specification:Webdings;stroke-width:0.26458332"
           y="120.5488"
           x="60.870296"
           id="tspan872"
           sodipodi:role="line">X</tspan></text>
    </g>
    <rect
       id="rect895"
       width="40"
       height="87.368423"
       x="95.998978"
       y="74.086777"
       style="fill:#ffffff;stroke-width:0.15641187" />
    <g
       id="g879"
       transform="translate(-34.035088,10.526316)">
      <rect
         ry="0.66362882"
         y="80.715088"
         x="108.57268"
         height="21.080442"
         width="27.991709"
         id="rect961"
         style="fill:#ffeeaa;stroke:#b3b3b3;stroke-width:0.8495028;stroke-miterlimit:4;stroke-dasharray:none" />
      <rect
         y="83.58017"
         x="111.36744"
         height="2.4043751"
         width="15.33757"
         id="rect963"
         style="fill:#333333;stroke-width:0.09082921" />
      <rect
         style="fill:#333333;stroke-width:0.07089933"
         id="rect965"
         width="9.3452244"
         height="2.4043751"
         x="111.36744"
         y="88.101189" />
    </g>
    <rect
       style="fill:#333333;stroke-width:0.08208217"
       id="rect973"
       width="12.525732"
       height="2.4043751"
       x="64.279503"
       y="78.177383" />
    <rect
       y="78.177383"
       x="104.4962"
       height="2.4043751"
       width="22.87661"
       id="rect4600"
       style="fill:#333333;stroke-width:0.11092848" />
    <g
       id="g885"
       transform="translate(-25.964913,9.6491224)">
      <rect
         style="fill:#ffeeaa;stroke:#b3b3b3;stroke-width:0.8495028;stroke-miterlimit:4;stroke-dasharray:none"
         id="rect955"
         width="27.991709"
         height="21.080442"
         x="108.57268"
         y="107.28168"
         ry="0.66362882" />
      <g
         style="stroke:#000000"
         transform="matrix(0.10583333,0,0,0.10583334,116.73178,111.72202)"
         id="g938">
        <path
           d="m 50.429502,42.668553 c -9.312,0.01 -16.845,7.544 -16.858,16.859 0.014,9.308 7.546,16.836 16.858,16.854 9.306,-0.019 16.839,-7.547 16.859,-16.854 -0.02,-9.315 -7.553,-16.849 -16.859,-16.859 z m 45.042,-13.975 h -17.204 l -1.332,-15.327 c 0,-1.447 -1.178,-2.629 -2.635,-2.629 h -47.742 c -1.457,0 -2.631,1.182 -2.631,2.629 l -1.333,15.326 h -2.964 v -3.429 c 0,-1.2 -0.974,-2.17 -2.174,-2.17 H 7.7265021 c -1.2,0 -2.174,0.971 -2.174,2.17 v 3.429 h -0.165 c -2.735,0.001 -4.95799997,2.215 -4.95799997,4.951 v 53.227 c 0,2.741 2.22199997,4.958 4.95799997,4.958 H 95.471502 c 2.738,0 4.957998,-2.217 4.957998,-4.958 v -53.227 c 0,-2.736 -2.219998,-4.95 -4.957998,-4.95 z m -82.857,20.836 c -3.3999999,0 -6.1569999,-2.758 -6.1569999,-6.162 0,-3.401 2.756,-6.158 6.1569999,-6.158 3.405,0 6.157,2.757 6.157,6.158 0,3.404 -2.752,6.162 -6.157,6.162 z m 24.965,-31.999 h 25.697 c 1.584,0 2.864,1.287 2.864,2.862 0,1.583 -1.282,2.866 -2.864,2.866 h -25.697 c -1.575,0 -2.859,-1.284 -2.859,-2.866 0,-1.574 1.284,-2.862 2.859,-2.862 z m 12.85,66.486 c -13.532,0 -24.49,-10.961 -24.497,-24.489 0.006,-13.536 10.965,-24.498 24.497,-24.498 13.528,0 24.489,10.962 24.493,24.497 -0.004,13.529 -10.965,24.49 -24.493,24.49 z"
           id="path4"
           inkscape:connector-curvature="0"
           style="fill:none;stroke:#000000;stroke-width:5" />
        <ellipse
           style="fill:none;stroke:#000000"
           id="path4142"
           cx="50.298252"
           cy="59.638481"
           rx="16.48596"
           ry="16.808086" />
      </g>
    </g>
  </g>
</svg>
