<?xml version="1.0"?>
<svg xmlns="http://www.w3.org/2000/svg" xmlns:xlink="http://www.w3.org/1999/xlink" version="1.1" id="Layer_1" x="0px" y="0px" viewBox="0 0 512 512" style="enable-background:new 0 0 512 512;" xml:space="preserve" width="512px" height="512px" class=""><g transform="matrix(0.885056 0 0 0.885056 29.4256 29.4256)"><g>
	<g>
		<path d="M329.904,300.244c-16.388,0-29.724,13.332-29.724,29.72c0,16.392,13.336,29.728,29.724,29.728    c16.392,0,29.72-13.336,29.72-29.728C359.62,313.576,346.292,300.244,329.904,300.244z" data-original="#000000" class="active-path" data-old_color="#FBF5F5" fill="#FFFFFF"/>
	</g>
</g><g>
	<g>
		<path d="M181.768,152.116c-16.392,0-29.728,13.336-29.728,29.728c0.004,16.384,13.34,29.716,29.728,29.716    s29.716-13.332,29.716-29.716C211.484,165.452,198.156,152.116,181.768,152.116z" data-original="#000000" class="active-path" data-old_color="#FBF5F5" fill="#FFFFFF"/>
	</g>
</g><g>
	<g>
		<path d="M256.012,0c-141.164,0-256,114.836-256,256c0,141.156,114.836,256,256,256c141.148,0,255.976-114.844,255.976-256    C511.988,114.836,397.16,0,256.012,0z M181.768,120.092c34.04,0,61.744,27.696,61.744,61.752c0,34.04-27.704,61.744-61.744,61.744    c-34.052,0-61.752-27.704-61.752-61.744C120.016,147.788,147.72,120.092,181.768,120.092z M162.996,371.648    c-3.12,3.128-7.228,4.696-11.32,4.696c-4.096,0-8.196-1.568-11.324-4.696c-6.252-6.252-6.252-16.396,0-22.64l208.652-208.66    c6.248-6.252,16.388-6.252,22.644,0c6.252,6.252,6.252,16.396,0,22.644L162.996,371.648z M329.904,391.712    c-34.048,0-61.752-27.7-61.752-61.752c0-34.04,27.704-61.744,61.752-61.744c34.044,0,61.744,27.704,61.744,61.744    C391.644,364.012,363.944,391.712,329.904,391.712z" data-original="#000000" class="active-path" data-old_color="#FBF5F5" fill="#FFFFFF"/>
	</g>
</g></g> </svg>
