<svg width="377" height="377" viewBox="0 0 377 377" fill="none" xmlns="http://www.w3.org/2000/svg">
<rect width="377" height="377" fill="#FFEEAA"/>
<rect x="25" y="25" width="30" height="30" rx="4" fill="#A3A3A3"/>
<rect x="58" y="25" width="30" height="30" rx="4" fill="#373737"/>
<rect x="91" y="25" width="30" height="30" rx="4" fill="#A3A3A3"/>
<rect x="124" y="25" width="30" height="30" rx="4" fill="#A3A3A3"/>
<rect x="157" y="25" width="30" height="30" rx="4" fill="#A3A3A3"/>
<rect x="190" y="25" width="30" height="30" rx="4" fill="#A3A3A3"/>
<rect x="223" y="25" width="30" height="30" rx="4" fill="#A3A3A3"/>
<rect x="256" y="25" width="30" height="30" rx="4" fill="#A3A3A3"/>
<rect x="289" y="25" width="30" height="30" rx="4" fill="#A3A3A3"/>
<rect x="322" y="25" width="30" height="30" rx="4" fill="#A3A3A3"/>
<rect x="25" y="58" width="30" height="30" rx="4" fill="#A3A3A3"/>
<path d="M58 62C58 59.7909 59.7909 58 62 58H84C86.2091 58 88 59.7909 88 62V84C88 86.2091 86.2091 88 84 88H62C59.7909 88 58 86.2091 58 84V62Z" fill="#A3A3A3"/>
<rect x="91" y="58" width="30" height="30" rx="4" fill="#373737"/>
<rect x="124" y="58" width="30" height="30" rx="4" fill="#A3A3A3"/>
<rect x="157" y="58" width="30" height="30" rx="4" fill="#A3A3A3"/>
<rect x="190" y="58" width="30" height="30" rx="4" fill="#373737"/>
<rect x="223" y="58" width="30" height="30" rx="4" fill="#373737"/>
<rect x="256" y="58" width="30" height="30" rx="4" fill="#373737"/>
<rect x="289" y="58" width="30" height="30" rx="4" fill="#373737"/>
<rect x="322" y="58" width="30" height="30" rx="4" fill="#373737"/>
<rect x="25" y="91" width="30" height="30" rx="4" fill="#A3A3A3"/>
<rect x="58" y="91" width="30" height="30" rx="4" fill="#A3A3A3"/>
<rect x="91" y="91" width="30" height="30" rx="4" fill="#A3A3A3"/>
<rect x="124" y="91" width="30" height="30" rx="4" fill="#373737"/>
<rect x="157" y="91" width="30" height="30" rx="4" fill="#A3A3A3"/>
<rect x="190" y="91" width="30" height="30" rx="4" fill="#A3A3A3"/>
<rect x="223" y="91" width="30" height="30" rx="4" fill="#A3A3A3"/>
<rect x="256" y="91" width="30" height="30" rx="4" fill="#A3A3A3"/>
<rect x="289" y="91" width="30" height="30" rx="4" fill="#A3A3A3"/>
<rect x="322" y="91" width="30" height="30" rx="4" fill="#A3A3A3"/>
<rect x="25" y="124" width="30" height="30" rx="4" fill="#A3A3A3"/>
<rect x="58" y="124" width="30" height="30" rx="4" fill="#A3A3A3"/>
<rect x="91" y="124" width="30" height="30" rx="4" fill="#A3A3A3"/>
<rect x="124" y="124" width="30" height="30" rx="4" fill="#A3A3A3"/>
<rect x="157" y="124" width="30" height="30" rx="4" fill="#373737"/>
<rect x="190" y="124" width="30" height="30" rx="4" fill="#A3A3A3"/>
<rect x="223" y="124" width="30" height="30" rx="4" fill="#A3A3A3"/>
<rect x="256" y="124" width="30" height="30" rx="4" fill="#A3A3A3"/>
<rect x="289" y="124" width="30" height="30" rx="4" fill="#A3A3A3"/>
<rect x="322" y="124" width="30" height="30" rx="4" fill="#A3A3A3"/>
<rect x="25" y="157" width="30" height="30" rx="4" fill="#A3A3A3"/>
<rect x="58" y="157" width="30" height="30" rx="4" fill="#A3A3A3"/>
<rect x="91" y="157" width="30" height="30" rx="4" fill="#A3A3A3"/>
<rect x="124" y="157" width="30" height="30" rx="4" fill="#A3A3A3"/>
<rect x="157" y="157" width="30" height="30" rx="4" fill="#A3A3A3"/>
<rect x="190" y="157" width="30" height="30" rx="4" fill="#373737"/>
<rect x="223" y="157" width="30" height="30" rx="4" fill="#A3A3A3"/>
<rect x="256" y="157" width="30" height="30" rx="4" fill="#A3A3A3"/>
<rect x="289" y="157" width="30" height="30" rx="4" fill="#A3A3A3"/>
<rect x="322" y="157" width="30" height="30" rx="4" fill="#A3A3A3"/>
<rect x="25" y="190" width="30" height="30" rx="4" fill="#A3A3A3"/>
<rect x="58" y="190" width="30" height="30" rx="4" fill="#A3A3A3"/>
<rect x="91" y="190" width="30" height="30" rx="4" fill="#A3A3A3"/>
<rect x="124" y="190" width="30" height="30" rx="4" fill="#A3A3A3"/>
<rect x="157" y="190" width="30" height="30" rx="4" fill="#A3A3A3"/>
<rect x="190" y="190" width="30" height="30" rx="4" fill="#A3A3A3"/>
<rect x="223" y="190" width="30" height="30" rx="4" fill="#A3A3A3"/>
<rect x="256" y="190" width="30" height="30" rx="4" fill="#A3A3A3"/>
<rect x="289" y="190" width="30" height="30" rx="4" fill="#A3A3A3"/>
<rect x="322" y="190" width="30" height="30" rx="4" fill="#A3A3A3"/>
<rect x="25" y="223" width="30" height="30" rx="4" fill="#A3A3A3"/>
<rect x="58" y="223" width="30" height="30" rx="4" fill="#A3A3A3"/>
<rect x="91" y="223" width="30" height="30" rx="4" fill="#A3A3A3"/>
<rect x="124" y="223" width="30" height="30" rx="4" fill="#A3A3A3"/>
<rect x="157" y="223" width="30" height="30" rx="4" fill="#A3A3A3"/>
<rect x="190" y="223" width="30" height="30" rx="4" fill="#A3A3A3"/>
<rect x="223" y="223" width="30" height="30" rx="4" fill="#A3A3A3"/>
<rect x="256" y="223" width="30" height="30" rx="4" fill="#A3A3A3"/>
<rect x="289" y="223" width="30" height="30" rx="4" fill="#A3A3A3"/>
<rect x="322" y="223" width="30" height="30" rx="4" fill="#A3A3A3"/>
<rect x="25" y="256" width="30" height="30" rx="4" fill="#A3A3A3"/>
<rect x="58" y="256" width="30" height="30" rx="4" fill="#A3A3A3"/>
<rect x="91" y="256" width="30" height="30" rx="4" fill="#A3A3A3"/>
<rect x="124" y="256" width="30" height="30" rx="4" fill="#A3A3A3"/>
<rect x="157" y="256" width="30" height="30" rx="4" fill="#A3A3A3"/>
<rect x="190" y="256" width="30" height="30" rx="4" fill="#A3A3A3"/>
<rect x="223" y="256" width="30" height="30" rx="4" fill="#A3A3A3"/>
<rect x="256" y="256" width="30" height="30" rx="4" fill="#A3A3A3"/>
<rect x="289" y="256" width="30" height="30" rx="4" fill="#A3A3A3"/>
<rect x="322" y="256" width="30" height="30" rx="4" fill="#A3A3A3"/>
<rect x="25" y="289" width="30" height="30" rx="4" fill="#A3A3A3"/>
<rect x="58" y="289" width="30" height="30" rx="4" fill="#A3A3A3"/>
<rect x="91" y="289" width="30" height="30" rx="4" fill="#A3A3A3"/>
<rect x="124" y="289" width="30" height="30" rx="4" fill="#A3A3A3"/>
<rect x="157" y="289" width="30" height="30" rx="4" fill="#A3A3A3"/>
<rect x="190" y="289" width="30" height="30" rx="4" fill="#A3A3A3"/>
<rect x="223" y="289" width="30" height="30" rx="4" fill="#A3A3A3"/>
<rect x="256" y="289" width="30" height="30" rx="4" fill="#A3A3A3"/>
<rect x="289" y="289" width="30" height="30" rx="4" fill="#A3A3A3"/>
<rect x="322" y="289" width="30" height="30" rx="4" fill="#A3A3A3"/>
<rect x="25" y="322" width="30" height="30" rx="4" fill="#A3A3A3"/>
<rect x="58" y="322" width="30" height="30" rx="4" fill="#A3A3A3"/>
<rect x="91" y="322" width="30" height="30" rx="4" fill="#A3A3A3"/>
<rect x="124" y="322" width="30" height="30" rx="4" fill="#A3A3A3"/>
<rect x="157" y="322" width="30" height="30" rx="4" fill="#A3A3A3"/>
<rect x="190" y="322" width="30" height="30" rx="4" fill="#A3A3A3"/>
<rect x="223" y="322" width="30" height="30" rx="4" fill="#A3A3A3"/>
<rect x="256" y="322" width="30" height="30" rx="4" fill="#A3A3A3"/>
<rect x="289" y="322" width="30" height="30" rx="4" fill="#A3A3A3"/>
<rect x="322" y="322" width="30" height="30" rx="4" fill="#A3A3A3"/>
</svg>
