<?xml version="1.0" encoding="UTF-8" standalone="no"?>
<svg
   xmlns:dc="http://purl.org/dc/elements/1.1/"
   xmlns:cc="http://creativecommons.org/ns#"
   xmlns:rdf="http://www.w3.org/1999/02/22-rdf-syntax-ns#"
   xmlns:svg="http://www.w3.org/2000/svg"
   xmlns="http://www.w3.org/2000/svg"
   xmlns:sodipodi="http://sodipodi.sourceforge.net/DTD/sodipodi-0.dtd"
   xmlns:inkscape="http://www.inkscape.org/namespaces/inkscape"
   version="1.1"
   x="0px"
   y="0px"
   viewBox="0 0 100 125"
   enable-background="new 0 0 100 100"
   xml:space="preserve"
   id="svg2"
   inkscape:version="0.91 r13725"
   sodipodi:docname="stop.svg"><metadata
     id="metadata24"><rdf:RDF><cc:Work
         rdf:about=""><dc:format>image/svg+xml</dc:format><dc:type
           rdf:resource="http://purl.org/dc/dcmitype/StillImage" /></cc:Work></rdf:RDF></metadata><defs
     id="defs22" /><sodipodi:namedview
     pagecolor="#ffffff"
     bordercolor="#666666"
     borderopacity="1"
     objecttolerance="10"
     gridtolerance="10"
     guidetolerance="10"
     inkscape:pageopacity="0"
     inkscape:pageshadow="2"
     inkscape:window-width="956"
     inkscape:window-height="1041"
     id="namedview20"
     showgrid="false"
     inkscape:zoom="1.888"
     inkscape:cx="41.790254"
     inkscape:cy="62.5"
     inkscape:window-x="960"
     inkscape:window-y="18"
     inkscape:window-maximized="0"
     inkscape:current-layer="svg2" /><g
     id="g4"
     transform="matrix(1.0823917,0,0,1.0823917,-3.0602637,11.240584)"
     style="fill:#ff0000"><g
       id="g6"
       style="fill:#ff0000"><path
         d="M 50,5 C 25.147,5 5,25.147 5,50 5,74.852 25.147,95 50,95 74.852,95 95,74.852 95,50 95,25.147 74.852,5 50,5 Z m 0,85 C 27.908,90 10,72.091 10,50 10,27.908 27.908,10 50,10 72.091,10 90,27.908 90,50 90,72.091 72.091,90 50,90 Z"
         id="path8"
         inkscape:connector-curvature="0"
         style="fill:#ff0000" /><path
         d="m 67.333,72.5 -34.666,0 C 29.825,72.5 27.5,70.175 27.5,67.333 l 0,-34.666 c 0,-2.842 2.325,-5.167 5.167,-5.167 l 34.667,0 c 2.842,0 5.167,2.325 5.167,5.167 l 0,34.667 C 72.5,70.175 70.175,72.5 67.333,72.5 Z"
         id="path10"
         inkscape:connector-curvature="0"
         style="fill:#ff0000" /></g></g><g
     display="none"
     id="g12"><path
       display="inline"
       d="M50,5C25.147,5,5,25.147,5,50c0,24.852,20.147,45,45,45c24.852,0,45-20.148,45-45   C95,25.147,74.852,5,50,5z M60.5,72.5h-21c-6.6,0-12-5.4-12-12v-21c0-6.6,5.4-12,12-12h21c6.6,0,12,5.4,12,12v21   C72.5,67.1,67.1,72.5,60.5,72.5z"
       id="path14" /></g></svg>