<?xml version="1.0" encoding="UTF-8" standalone="no"?>
<svg
   xmlns:dc="http://purl.org/dc/elements/1.1/"
   xmlns:cc="http://creativecommons.org/ns#"
   xmlns:rdf="http://www.w3.org/1999/02/22-rdf-syntax-ns#"
   xmlns:svg="http://www.w3.org/2000/svg"
   xmlns="http://www.w3.org/2000/svg"
   xmlns:sodipodi="http://sodipodi.sourceforge.net/DTD/sodipodi-0.dtd"
   xmlns:inkscape="http://www.inkscape.org/namespaces/inkscape"
   version="1.1"
   viewBox="0 0 106.254 127.08375000000001"
   xml:space="preserve"
   x="0px"
   y="0px"
   id="svg2"
   inkscape:version="0.91 r13725"
   sodipodi:docname="trash.svg"><metadata
     id="metadata16"><rdf:RDF><cc:Work
         rdf:about=""><dc:format>image/svg+xml</dc:format><dc:type
           rdf:resource="http://purl.org/dc/dcmitype/StillImage" /></cc:Work></rdf:RDF></metadata><defs
     id="defs14" /><sodipodi:namedview
     pagecolor="#ffffff"
     bordercolor="#666666"
     borderopacity="1"
     objecttolerance="10"
     gridtolerance="10"
     guidetolerance="10"
     inkscape:pageopacity="0"
     inkscape:pageshadow="2"
     inkscape:window-width="556"
     inkscape:window-height="1011"
     id="namedview12"
     showgrid="false"
     inkscape:zoom="7.4281725"
     inkscape:cx="43.328648"
     inkscape:cy="63.194133"
     inkscape:window-x="1120"
     inkscape:window-y="18"
     inkscape:window-maximized="0"
     inkscape:current-layer="svg2" /><path
     d="m 9.4529158,20.200144 31.8234672,0 0,-8.280266 27.186857,0 0,8.280266 c 11.01016,0 20.813316,0 31.82348,0 l 0,12.530426 -90.8338042,0 z"
     style="fill:#000000;stroke:none"
     id="path4"
     inkscape:connector-curvature="0" /><path
     style="fill:#ffffff;fill-rule:evenodd;stroke:#000000;stroke-width:1px;stroke-linecap:butt;stroke-linejoin:miter;stroke-opacity:1"
     d="M 24.635938,60.041686 41.463765,75.792532 26.7899,91.004887 41.598388,105.00564 55.329895,89.254793 68.792156,103.65941 83.062153,89.927906 69.330647,75.792532 83.869889,61.253289 69.061401,48.060273 56.003008,62.599515 39.848294,47.656405 Z"
     id="path4134"
     inkscape:connector-curvature="0" /><path
     style="fill:#000000;fill-opacity:1"
     d="m 17.761638,38.042511 75.75356,0 -9.004576,78.536079 -57.744408,0 M 39.95754,50.179522 29.108331,61.028731 43.742815,75.663225 28.965482,90.440549 39.814701,101.28977 54.592035,86.512435 69.199257,101.11966 80.062729,90.2847 66.214234,76.224275 80.650258,61.788261 69.801039,50.939041 55.365024,65.375056"
     id="path6"
     inkscape:connector-curvature="0" /></svg>