<?xml version="1.0" encoding="UTF-8" standalone="no"?>
<!-- Created with Inkscape (http://www.inkscape.org/) -->

<svg
   xmlns:dc="http://purl.org/dc/elements/1.1/"
   xmlns:cc="http://creativecommons.org/ns#"
   xmlns:rdf="http://www.w3.org/1999/02/22-rdf-syntax-ns#"
   xmlns:svg="http://www.w3.org/2000/svg"
   xmlns="http://www.w3.org/2000/svg"
   version="1.1"
   width="85"
   height="120"
   id="svg2">
  <metadata
     id="metadata13">
    <rdf:RDF>
      <cc:Work
         rdf:about="">
        <dc:format>image/svg+xml</dc:format>
        <dc:type
           rdf:resource="http://purl.org/dc/dcmitype/StillImage" />
        <dc:title></dc:title>
      </cc:Work>
    </rdf:RDF>
  </metadata>
  <defs
     id="defs11" />
  <rect
     width="85"
     height="34"
     ry="7.8461533"
     x="0"
     y="1"
     id="rect2990"
     style="fill:#ffffff;fill-opacity:1;fill-rule:nonzero;stroke:none" />
  <g
     transform="translate(2.3435,40.234)"
     id="g3523">
    <g
       id="g3525">
      <path
         d="m 40.157,1.164 c -21.672,0 -39.302,17.63 -39.302,39.301 0,21.671 17.63,39.301 39.302,39.301 21.671,0 39.301,-17.63 39.301,-39.301 0,-21.672 -17.63,-39.301 -39.301,-39.301 z"
         id="path3527"
         style="fill:#1d1d1b" />
    </g>
    <path
       d="m 56.673,14.833 c -5.032,1.888 -11.202,5.603 -18.425,11.109 -9.052,6.936 -14.31,8.838 -17.202,9.15 -0.178,-0.434 -0.416,-0.826 -0.705,-1.158 1.491,-9.48 6.05,-17.249 13.577,-23.161 2.079,-0.45 4.235,-0.692 6.449,-0.692 6.001,0 11.593,1.749 16.306,4.752 z"
       id="path3529"
       style="fill:#ffffff" />
    <path
       d="m 25.291,14.088 c -4.511,5.479 -7.451,12.016 -8.602,19.266 -0.094,0.067 -0.184,0.143 -0.271,0.223 -0.304,-0.371 -0.583,-0.818 -0.856,-1.367 -0.791,-1.671 -1.219,-4.224 -1.249,-7.386 2.678,-4.449 6.466,-8.151 10.978,-10.736 z"
       id="path3531"
       style="fill:#ffffff" />
    <path
       d="m 11.374,31.353 c 0.229,0.876 0.509,1.689 0.843,2.412 0.696,1.567 1.78,2.854 3.143,3.742 0.136,0.669 0.405,1.281 0.789,1.79 -0.011,0.387 -0.017,0.803 -0.017,1.292 0.003,0.987 0.037,2.005 0.102,3.032 -1.892,-0.359 -3.779,-0.784 -5.617,-1.264 L 10.035,42.206 C 10.001,41.63 9.982,41.05 9.982,40.466 9.981,37.291 10.47,34.229 11.374,31.353 z"
       id="path3533"
       style="fill:#ffffff" />
    <path
       d="m 10.518,46.137 0.237,0.058 c 1.926,0.475 3.897,0.894 5.862,1.244 0.253,1.859 0.609,3.724 1.062,5.552 -0.129,0.155 -0.243,0.328 -0.339,0.518 -1.26,0.136 -2.394,0.601 -3.223,1.326 l -0.352,0.308 0.195,0.344 c -1.63,-2.861 -2.811,-6.008 -3.442,-9.35 z"
       id="path3535"
       style="fill:#ffffff" />
    <path
       d="m 15.904,58.483 0.452,-0.658 c 0.044,-0.065 0.088,-0.119 0.132,-0.162 0.186,-0.174 0.447,-0.356 0.972,-0.451 0.501,1.012 1.319,1.787 2.236,2.136 0.779,1.989 1.669,3.855 2.642,5.572 -2.453,-1.811 -4.624,-3.982 -6.434,-6.437 z"
       id="path3537"
       style="fill:#ffffff" />
    <path
       d="m 40.366,70.849 c -3.597,0 -7.046,-0.628 -10.249,-1.776 l -0.913,-0.919 c -2.128,-2.146 -4.175,-5.497 -5.818,-9.51 0.48,0.222 0.962,0.462 1.458,0.725 1.157,0.614 2.379,1.279 3.648,1.971 3.404,1.853 7.263,3.953 11.078,5.732 2.85,1.321 5.325,2.312 7.55,3.015 -2.173,0.493 -4.431,0.762 -6.754,0.762 z"
       id="path3539"
       style="fill:#ffffff" />
    <path
       d="M 53.574,67.728 C 50.39,67.511 46.142,66.172 40.919,63.727 37.252,62.02 33.454,59.954 30.103,58.131 c -1.294,-0.704 -2.545,-1.385 -3.737,-2.019 -1.313,-0.696 -2.509,-1.24 -3.647,-1.659 -0.361,-0.746 -0.9,-1.377 -1.536,-1.803 -0.401,-1.536 -0.727,-3.082 -0.973,-4.608 4.849,0.667 9.96,1.004 15.208,1.004 11.702,-0.002 22.245,-1.677 29.029,-3.084 1.999,-0.415 3.938,-0.861 5.802,-1.331 -1.394,10.166 -7.812,18.726 -16.675,23.097 z"
       id="path3541"
       style="fill:#ffffff" />
    <path
       d="m 70.743,40.752 c -1.876,0.491 -4.364,1.096 -7.305,1.693 -6.504,1.328 -16.606,2.911 -27.811,2.911 -5.21,0 -10.283,-0.344 -15.084,-1.023 -0.143,-0.386 -0.359,-0.727 -0.632,-0.993 -0.062,-1.013 -0.092,-1.916 -0.091,-2.753 0,-0.135 0.005,-0.271 0.01,-0.406 0.496,-0.312 0.9,-0.792 1.176,-1.392 4.897,-0.382 11.103,-3.544 19.48,-9.917 9.747,-7.452 15.973,-10.339 19.795,-11.343 6.411,5.571 10.469,13.778 10.469,22.936 0,0.097 -0.005,0.191 -0.007,0.287 z"
       id="path3543"
       style="fill:#ffffff" />
  </g>
</svg>
