<?xml version="1.0" encoding="UTF-8" standalone="no"?>
<!-- Created with Inkscape (http://www.inkscape.org/) -->

<svg
   xmlns:dc="http://purl.org/dc/elements/1.1/"
   xmlns:cc="http://creativecommons.org/ns#"
   xmlns:rdf="http://www.w3.org/1999/02/22-rdf-syntax-ns#"
   xmlns:svg="http://www.w3.org/2000/svg"
   xmlns="http://www.w3.org/2000/svg"
   version="1.1"
   width="85"
   height="120"
   id="svg2">
  <metadata
     id="metadata8">
    <rdf:RDF>
      <cc:Work
         rdf:about="">
        <dc:format>image/svg+xml</dc:format>
        <dc:type
           rdf:resource="http://purl.org/dc/dcmitype/StillImage" />
        <dc:title></dc:title>
      </cc:Work>
    </rdf:RDF>
  </metadata>
  <defs
     id="defs6" />
  <rect
     width="85"
     height="34"
     ry="7.8461533"
     x="0"
     y="1"
     id="rect2990"
     style="fill:#ffffff;fill-opacity:1;fill-rule:nonzero;stroke:none" />
  <g
     transform="translate(1.925,39.5)"
     id="g3443">
    <path
       d="m 56.18,11.204 c -2.72,-0.418 -5.508,-0.378 -8.692,0.077 -3.837,0.546 -7.791,1.781 -11.824,3.686 -0.954,-1.014 -2.23,-1.595 -3.638,-1.755 0.523,-1.798 1.206,-3.539 2.138,-5.159 2.138,-0.436 4.351,-0.667 6.616,-0.667"
       id="path3417"
       style="fill:#101010" />
    <path
       d="m 7.749,40.418 c 0,-7.986 2.849,-15.319 7.585,-21.037 1.94,-0.404 4.196,-0.284 6.79,0.361 -0.416,1.099 -0.598,2.222 -0.531,3.287 -4.731,3.262 -8.347,7.097 -10.785,11.458 C 9.335,37.116 8.358,39.644 7.805,42.33 7.769,41.697 7.749,41.061 7.749,40.418 z"
       id="path3419"
       style="fill:#101010" />
    <path
       d="M 77.431,24.93 C 75.416,20.166 72.533,15.89 68.862,12.216 65.186,8.543 60.91,5.659 56.146,3.644 51.213,1.558 45.974,0.501 40.575,0.501 35.175,0.501 29.94,1.558 25.004,3.644 20.242,5.659 15.965,8.542 12.292,12.216 8.62,15.89 5.735,20.166 3.719,24.93 1.633,29.862 0.575,35.1 0.575,40.5 c 0,5.4 1.058,10.638 3.144,15.57 2.016,4.763 4.9,9.042 8.573,12.713 3.674,3.674 7.95,6.557 12.712,8.572 4.936,2.088 10.171,3.145 15.571,3.145 5.399,0 10.639,-1.057 15.571,-3.145 4.764,-2.016 9.04,-4.898 12.716,-8.572 3.671,-3.671 6.555,-7.95 8.569,-12.713 2.086,-4.933 3.144,-10.171 3.144,-15.57 0,-5.399 -1.058,-10.638 -3.144,-15.57 z"
       id="path3421"
       style="fill:#1d1d1b" />
    <path
       d="m 28.528,51.891 c 2.178,8.119 5.896,14.896 11.32,20.46 C 26.355,71.976 14.86,63.468 10.098,51.567 9.438,40.315 13.57,31.566 22.654,25.04 c 0.126,0.173 0.262,0.342 0.41,0.502 0.923,1.006 2.161,1.595 3.531,1.781 -0.631,9.177 0.016,17.413 1.933,24.568 z"
       id="path3423"
       style="fill:none" />
    <path
       d="m 73.812,39.333 c 0,4.198 -0.787,8.211 -2.222,11.91 C 69.758,45.394 66.038,40.274 60.113,35.077 54.286,29.966 46.4,25.212 36.612,20.899 c 0.551,-1.419 0.715,-2.881 0.462,-4.207 9.373,-4.431 18.076,-4.866 26.393,-1.345 6.368,6.026 10.345,14.549 10.345,23.986 z"
       id="path3425"
       style="fill:none" />
    <path
       d="M 44.213,73.271 C 33.169,63.288 28.33,48.141 29.779,28.163 c 1.459,-0.402 2.914,-1.191 4.185,-2.359 0.375,-0.343 0.715,-0.706 1.027,-1.083 9.65,4.221 17.383,8.853 23.041,13.816 6.294,5.518 10.168,11.584 11.54,18.053 -5.137,9.11 -14.468,15.553 -25.359,16.681 z"
       id="path3427"
       style="fill:#ffffff" />
    <path
       d="m 7.749,40.418 c 0,-7.986 2.849,-15.319 7.585,-21.037 1.94,-0.404 4.196,-0.284 6.79,0.361 -0.416,1.099 -0.598,2.222 -0.531,3.287 -4.731,3.262 -8.347,7.097 -10.785,11.458 C 9.335,37.116 8.358,39.644 7.805,42.33 7.769,41.697 7.749,41.061 7.749,40.418 z"
       id="path3429"
       style="fill:#ffffff" />
    <path
       d="m 30.123,8.065 c -0.683,1.457 -1.157,2.916 -1.526,4.441 -1.326,0.428 -2.636,1.178 -3.792,2.241 -0.361,0.331 -0.691,0.681 -0.993,1.042 -2.067,-0.623 -3.774,-0.891 -5.322,-0.812 3.327,-3.045 7.275,-5.422 11.633,-6.912 z"
       id="path3431"
       style="fill:none" />
    <path
       d="m 47.487,11.281 c 3.137,-0.447 5.882,-0.488 8.56,-0.075 -4.529,-2.399 -9.69,-3.759 -15.166,-3.759 -2.229,0 -4.411,0.226 -6.515,0.656 -0.917,1.595 -1.591,3.309 -2.105,5.08 1.387,0.158 2.644,0.729 3.582,1.729 3.973,-1.877 7.867,-3.093 11.644,-3.631 z"
       id="path3433"
       style="fill:#ffffff" />
    <path
       d="m 32.854,19.48 c 0.071,-0.445 0.111,-1.282 -0.432,-1.872 -0.226,-0.248 -0.504,-0.396 -0.783,-0.483 -0.279,-0.089 -0.56,-0.114 -0.794,-0.114 -1.042,0 -2.165,0.484 -3.086,1.33 -0.833,0.766 -1.399,1.754 -1.555,2.712 -0.072,0.446 -0.112,1.282 0.431,1.873 0.453,0.493 1.109,0.597 1.579,0.597 1.04,0 2.165,-0.484 3.083,-1.331 0.834,-0.765 1.402,-1.754 1.557,-2.712 z"
       id="path3435"
       style="fill:#ffffff" />
  </g>
</svg>
