<?xml version="1.0" encoding="UTF-8" standalone="no"?>
<!-- Created with Inkscape (http://www.inkscape.org/) -->

<svg
   xmlns:dc="http://purl.org/dc/elements/1.1/"
   xmlns:cc="http://creativecommons.org/ns#"
   xmlns:rdf="http://www.w3.org/1999/02/22-rdf-syntax-ns#"
   xmlns:svg="http://www.w3.org/2000/svg"
   xmlns="http://www.w3.org/2000/svg"
   version="1.1"
   width="85"
   height="120"
   viewBox="0 0 85 120"
   id="Layer_1"
   xml:space="preserve"><metadata
     id="metadata73"><rdf:RDF><cc:Work
         rdf:about=""><dc:format>image/svg+xml</dc:format><dc:type
           rdf:resource="http://purl.org/dc/dcmitype/StillImage" /><dc:title></dc:title></cc:Work></rdf:RDF></metadata><defs
     id="defs71" /><g
     transform="translate(2,43)"
     id="g3"><path
       d="M 6.044,38.044 C 9.237,29.198 15.854,21.326 24.675,15.878 31.84,11.455 39.808,9.116 47.72,9.116 c 3.659,0 7.202,0.497 10.47,1.421 0.033,0.014 0.067,0.031 0.101,0.046 -2.337,-0.032 -5.695,0.308 -9.954,1.743 -0.207,-0.179 -0.501,-0.245 -0.776,-0.146 -4.761,1.693 -9.713,4.438 -14.72,8.157 -2.109,1.565 -4.13,3.233 -6.005,4.958 -0.215,0.196 -0.294,0.487 -0.234,0.752 C 20.624,31.649 15.83,38.156 12.713,44.903 10.246,50.242 9.253,54.788 9.124,57.497 5.681,55.833 4.409,52.45 4.232,51.935 3.717,47.661 4.314,42.839 6.044,38.044 z"
       id="path5"
       style="fill:#ffffff;stroke:#1d1d1b;stroke-width:7.6406002;stroke-linecap:round;stroke-linejoin:round;stroke-miterlimit:10" /><path
       d="m 6.634,59.402 c -0.845,-1.433 -1.48,-3.039 -1.911,-4.771 0.872,1.3 2.265,2.799 4.389,3.725 0.044,2.529 0.708,4.477 1.427,5.851 -1.545,-1.423 -2.86,-3.03 -3.905,-4.805 z"
       id="path7"
       style="fill:#ffffff;stroke:#1d1d1b;stroke-width:7.6406002;stroke-linecap:round;stroke-linejoin:round;stroke-miterlimit:10" /><path
       d="m 57.246,63.666 c -7.322,5.108 -16.298,7.92 -25.275,7.92 -7.505,0 -14.182,-1.984 -19.148,-5.527 -0.367,-0.36 -2.724,-2.839 -2.917,-7.372 0.007,0.004 0.014,0.007 0.022,0.01 2.48,1.028 7.097,2.943 14.411,3.23 0.615,0.024 1.236,0.036 1.863,0.036 8.479,0 18.073,-2.204 28.551,-6.562 9.739,-4.052 15.198,-9.367 18.062,-13.113 1.175,-1.535 2.019,-2.929 2.617,-4.078 -2.133,9.631 -8.677,18.825 -18.186,25.456 z"
       id="path9"
       style="fill:#ffffff;stroke:#1d1d1b;stroke-width:7.6406002;stroke-linecap:round;stroke-linejoin:round;stroke-miterlimit:10" /><path
       d="m 75.999,34.812 c -0.058,0.217 -0.897,3.208 -3.836,7.038 -2.807,3.656 -8.157,8.851 -17.711,12.824 -26.046,10.835 -39.251,5.357 -44.223,3.296 -0.116,-0.048 -0.227,-0.095 -0.333,-0.138 0.121,-4.579 3.385,-18.233 17.24,-31.209 0.074,0.022 0.151,0.034 0.23,0.034 0.19,0 0.38,-0.069 0.531,-0.208 1.835,-1.686 3.813,-3.318 5.878,-4.854 4.882,-3.625 9.697,-6.295 14.311,-7.936 0.271,-0.097 0.454,-0.327 0.507,-0.59 8.349,-2.81 13.219,-1.266 13.269,-1.249 0.033,0.011 0.065,0.015 0.098,0.018 4.452,1.843 8.176,4.557 10.668,7.923 2.849,3.848 4.024,9.145 3.371,15.051 z"
       id="path11"
       style="fill:#ffffff;stroke:#1d1d1b;stroke-width:7.6406002;stroke-linecap:round;stroke-linejoin:round;stroke-miterlimit:10" /><g
       id="g13"><path
         d="m 47.297,15.417 c -0.253,0 -0.52,-0.091 -0.696,-0.25 -0.144,-0.13 -0.215,-0.292 -0.199,-0.456 0.014,-0.151 0.102,-0.288 0.241,-0.374 0.14,-0.085 0.319,-0.042 0.405,0.097 0.064,0.103 0.055,0.232 -0.011,0.325 0.076,0.046 0.191,0.074 0.284,0.067 -0.036,-0.107 -0.011,-0.231 0.076,-0.312 0.12,-0.111 0.304,-0.108 0.413,0.013 0.133,0.142 0.182,0.318 0.14,0.482 -0.044,0.169 -0.181,0.303 -0.376,0.367 -0.085,0.028 -0.179,0.041 -0.277,0.041 z"
         id="path15"
         style="fill:#ffffff" /><path
         d="m 43.717,13.372 c -0.183,0 -0.365,-0.043 -0.508,-0.129 -0.181,-0.107 -0.285,-0.272 -0.287,-0.451 0,-0.18 0.101,-0.345 0.278,-0.451 0.138,-0.084 0.319,-0.041 0.403,0.098 0.064,0.106 0.055,0.236 -0.016,0.329 0.106,0.026 0.248,0.017 0.329,-0.027 0.002,-0.002 0.005,-0.005 0.008,-0.005 0.04,-0.14 0.179,-0.23 0.326,-0.209 0.161,0.023 0.271,0.173 0.247,0.335 -0.022,0.16 -0.127,0.299 -0.293,0.392 -0.139,0.078 -0.313,0.118 -0.487,0.118 z"
         id="path17"
         style="fill:#ffffff" /><path
         d="m 45.99,12.678 c -1.111,-0.627 -1.842,-0.793 -2.299,-0.526 -0.269,0.157 -0.364,0.428 -0.364,0.611 0,0.28 0.751,0.249 0.781,0.061 0.086,-0.019 0.461,-0.044 1.494,0.539 1.025,0.578 1.182,1.113 1.206,1.287 -0.026,0.12 0.115,0.262 0.324,0.32 0.213,0.061 0.414,0.012 0.448,-0.11 0.004,-0.014 0.005,-0.027 0.004,-0.042 l 0.005,0.001 c 0.019,-0.117 0.133,-1.162 -1.599,-2.141 z"
         id="path19"
         style="fill:#ffffff" /><path
         d="m 45.069,16.479 c -0.253,0 -0.521,-0.091 -0.697,-0.249 -0.145,-0.129 -0.215,-0.292 -0.199,-0.456 0.014,-0.151 0.101,-0.287 0.241,-0.374 0.139,-0.084 0.319,-0.041 0.406,0.096 0.063,0.104 0.055,0.232 -0.013,0.325 0.078,0.047 0.193,0.074 0.286,0.069 -0.036,-0.108 -0.011,-0.232 0.075,-0.313 0.12,-0.111 0.304,-0.108 0.413,0.012 0.133,0.142 0.183,0.318 0.139,0.483 -0.043,0.169 -0.181,0.302 -0.375,0.365 -0.084,0.029 -0.18,0.042 -0.276,0.042 z"
         id="path21"
         style="fill:#ffffff" /><path
         d="m 41.488,14.433 c -0.182,0 -0.364,-0.043 -0.508,-0.127 -0.181,-0.108 -0.286,-0.272 -0.287,-0.452 0,-0.179 0.101,-0.342 0.278,-0.451 0.139,-0.085 0.32,-0.04 0.404,0.1 0.064,0.105 0.055,0.234 -0.015,0.328 0.105,0.027 0.246,0.018 0.327,-0.028 0.004,-0.002 0.007,-0.003 0.009,-0.005 0.04,-0.139 0.18,-0.23 0.326,-0.208 0.161,0.023 0.271,0.173 0.247,0.333 -0.023,0.16 -0.128,0.3 -0.293,0.394 -0.14,0.077 -0.314,0.116 -0.488,0.116 z"
         id="path23"
         style="fill:#ffffff" /><path
         d="m 43.761,13.741 c -1.109,-0.627 -1.84,-0.795 -2.297,-0.526 -0.271,0.157 -0.364,0.427 -0.364,0.611 0,0.28 0.751,0.248 0.78,0.061 0.086,-0.019 0.462,-0.045 1.494,0.538 1.025,0.58 1.183,1.114 1.206,1.288 -0.026,0.121 0.115,0.262 0.325,0.321 0.212,0.061 0.414,0.01 0.448,-0.111 0.003,-0.014 0.004,-0.027 0.003,-0.042 l 0.004,10e-4 c 0.02,-0.117 0.133,-1.163 -1.599,-2.141 z"
         id="path25"
         style="fill:#ffffff" /><path
         d="m 40.789,18.742 c -0.253,0 -0.52,-0.091 -0.697,-0.249 -0.144,-0.13 -0.215,-0.292 -0.2,-0.456 0.014,-0.151 0.102,-0.287 0.242,-0.374 0.138,-0.084 0.32,-0.042 0.405,0.097 0.064,0.104 0.056,0.232 -0.011,0.325 0.078,0.046 0.192,0.074 0.285,0.069 -0.037,-0.108 -0.011,-0.233 0.077,-0.313 0.12,-0.111 0.301,-0.107 0.414,0.011 0.131,0.142 0.182,0.319 0.139,0.483 -0.045,0.169 -0.182,0.302 -0.376,0.366 -0.087,0.028 -0.181,0.041 -0.278,0.041 z"
         id="path27"
         style="fill:#ffffff" /><path
         d="m 37.208,16.696 c -0.181,0 -0.364,-0.042 -0.507,-0.128 -0.181,-0.108 -0.286,-0.273 -0.286,-0.452 -10e-4,-0.179 0.1,-0.343 0.277,-0.451 0.139,-0.084 0.32,-0.04 0.404,0.1 0.064,0.105 0.054,0.234 -0.015,0.327 0.106,0.028 0.247,0.019 0.328,-0.027 0.004,-0.002 0.006,-0.003 0.009,-0.005 0.04,-0.14 0.178,-0.231 0.326,-0.208 0.161,0.024 0.271,0.174 0.248,0.334 -0.023,0.16 -0.128,0.299 -0.294,0.393 -0.142,0.077 -0.316,0.117 -0.49,0.117 z"
         id="path29"
         style="fill:#ffffff" /><path
         d="m 39.48,16.004 c -1.11,-0.627 -1.84,-0.794 -2.297,-0.526 -0.269,0.156 -0.364,0.426 -0.364,0.611 0,0.279 0.751,0.248 0.781,0.06 0.086,-0.019 0.462,-0.045 1.495,0.539 1.025,0.58 1.182,1.113 1.205,1.287 -0.025,0.121 0.116,0.262 0.325,0.322 0.213,0.06 0.415,0.01 0.448,-0.112 0.005,-0.014 0.005,-0.028 0.005,-0.042 l 0.004,0 C 41.1,18.028 41.213,16.981 39.48,16.004 z"
         id="path31"
         style="fill:#ffffff" /><path
         d="m 38.884,20.01 c -0.252,0 -0.52,-0.091 -0.696,-0.25 -0.144,-0.13 -0.215,-0.291 -0.2,-0.455 0.014,-0.151 0.102,-0.288 0.242,-0.374 0.139,-0.086 0.32,-0.042 0.405,0.096 0.064,0.104 0.056,0.232 -0.011,0.325 0.078,0.047 0.192,0.073 0.285,0.068 -0.037,-0.108 -0.011,-0.232 0.077,-0.314 0.12,-0.11 0.303,-0.106 0.413,0.014 0.131,0.141 0.183,0.317 0.139,0.482 -0.043,0.169 -0.181,0.303 -0.375,0.366 -0.087,0.029 -0.181,0.042 -0.279,0.042 z"
         id="path33"
         style="fill:#ffffff" /><path
         d="m 35.303,17.964 c -0.182,0 -0.364,-0.043 -0.508,-0.129 -0.181,-0.106 -0.286,-0.271 -0.286,-0.451 -10e-4,-0.178 0.1,-0.343 0.277,-0.45 0.139,-0.084 0.32,-0.042 0.404,0.098 0.064,0.106 0.055,0.236 -0.015,0.329 0.106,0.027 0.247,0.017 0.327,-0.027 0.003,-0.002 0.006,-0.005 0.009,-0.006 0.04,-0.139 0.178,-0.231 0.326,-0.209 0.161,0.024 0.271,0.174 0.248,0.335 -0.023,0.16 -0.128,0.299 -0.293,0.393 -0.14,0.078 -0.314,0.117 -0.489,0.117 z"
         id="path35"
         style="fill:#ffffff" /><path
         d="m 37.576,17.271 c -1.11,-0.627 -1.84,-0.794 -2.297,-0.527 -0.269,0.158 -0.364,0.429 -0.364,0.612 0,0.279 0.751,0.249 0.781,0.061 0.086,-0.019 0.462,-0.044 1.495,0.539 1.025,0.578 1.182,1.113 1.205,1.288 -0.025,0.12 0.117,0.261 0.325,0.32 0.214,0.061 0.415,0.011 0.449,-0.111 0.003,-0.014 0.004,-0.027 0.004,-0.043 l 0.004,0.001 c 0.017,-0.117 0.131,-1.161 -1.602,-2.14 z"
         id="path37"
         style="fill:#ffffff" /><path
         d="m 36.97,21.394 c -0.253,0 -0.52,-0.091 -0.696,-0.25 -0.145,-0.129 -0.215,-0.291 -0.201,-0.456 0.014,-0.149 0.102,-0.286 0.242,-0.373 0.138,-0.084 0.32,-0.042 0.405,0.097 0.064,0.104 0.056,0.231 -0.011,0.325 0.077,0.047 0.192,0.073 0.285,0.068 -0.037,-0.108 -0.012,-0.232 0.076,-0.313 0.12,-0.11 0.302,-0.107 0.413,0.012 0.131,0.142 0.182,0.318 0.139,0.483 -0.044,0.168 -0.181,0.302 -0.375,0.365 -0.085,0.028 -0.181,0.042 -0.277,0.042 z"
         id="path39"
         style="fill:#ffffff" /><path
         d="m 33.389,19.348 c -0.182,0 -0.364,-0.043 -0.508,-0.127 -0.182,-0.108 -0.286,-0.272 -0.287,-0.453 -10e-4,-0.179 0.101,-0.343 0.277,-0.451 0.139,-0.084 0.32,-0.04 0.404,0.1 0.064,0.105 0.054,0.235 -0.015,0.328 0.106,0.026 0.247,0.018 0.327,-0.028 0.003,-0.002 0.007,-0.003 0.009,-0.005 0.041,-0.139 0.179,-0.23 0.326,-0.208 0.161,0.024 0.272,0.174 0.248,0.334 -0.024,0.16 -0.128,0.3 -0.294,0.394 -0.139,0.077 -0.313,0.116 -0.487,0.116 z"
         id="path41"
         style="fill:#ffffff" /><path
         d="M 35.662,18.656 C 34.551,18.029 33.821,17.862 33.364,18.129 33.095,18.286 33,18.556 33,18.74 c 0,0.28 0.75,0.248 0.78,0.06 0.086,-0.019 0.462,-0.043 1.495,0.54 1.025,0.579 1.182,1.113 1.206,1.286 -0.027,0.12 0.116,0.263 0.324,0.322 0.213,0.06 0.414,0.01 0.448,-0.111 0.004,-0.013 0.005,-0.028 0.004,-0.042 h 0.004 c 0.02,-0.115 0.134,-1.161 -1.599,-2.139 z"
         id="path43"
         style="fill:#ffffff" /><path
         d="m 34.978,22.798 c -0.253,0 -0.52,-0.09 -0.697,-0.25 -0.144,-0.129 -0.215,-0.291 -0.2,-0.455 0.014,-0.151 0.102,-0.288 0.242,-0.374 0.139,-0.085 0.32,-0.042 0.405,0.096 0.064,0.105 0.056,0.232 -0.011,0.327 0.078,0.045 0.193,0.073 0.285,0.067 -0.037,-0.108 -0.011,-0.232 0.078,-0.313 0.119,-0.111 0.302,-0.106 0.413,0.012 0.131,0.143 0.182,0.319 0.139,0.484 -0.044,0.168 -0.181,0.302 -0.375,0.365 -0.088,0.028 -0.183,0.041 -0.279,0.041 z"
         id="path45"
         style="fill:#ffffff" /><path
         d="m 31.396,20.752 c -0.181,0 -0.363,-0.043 -0.507,-0.127 -0.181,-0.106 -0.285,-0.273 -0.286,-0.452 -0.001,-0.179 0.1,-0.343 0.277,-0.45 0.14,-0.085 0.32,-0.041 0.405,0.099 0.064,0.105 0.054,0.235 -0.015,0.329 0.106,0.025 0.246,0.017 0.327,-0.028 0.004,-0.003 0.007,-0.005 0.009,-0.006 0.041,-0.14 0.179,-0.23 0.326,-0.208 0.161,0.024 0.272,0.174 0.248,0.335 -0.023,0.16 -0.127,0.299 -0.293,0.393 -0.143,0.076 -0.316,0.115 -0.491,0.115 z"
         id="path47"
         style="fill:#ffffff" /><path
         d="m 33.669,20.06 c -1.11,-0.626 -1.84,-0.794 -2.297,-0.526 -0.269,0.157 -0.364,0.427 -0.364,0.611 0,0.28 0.751,0.248 0.781,0.06 0.085,-0.019 0.462,-0.043 1.494,0.539 1.025,0.58 1.182,1.115 1.205,1.287 -0.025,0.121 0.117,0.264 0.325,0.322 0.214,0.06 0.415,0.01 0.449,-0.112 0.004,-0.013 0.004,-0.027 0.004,-0.042 h 0.004 c 0.018,-0.115 0.131,-1.16 -1.601,-2.139 z"
         id="path49"
         style="fill:#ffffff" /><path
         d="m 31.089,25.903 c -0.252,0 -0.52,-0.091 -0.696,-0.25 -0.144,-0.129 -0.214,-0.291 -0.2,-0.455 0.014,-0.151 0.102,-0.287 0.242,-0.373 0.139,-0.086 0.32,-0.043 0.405,0.094 0.064,0.105 0.056,0.232 -0.011,0.327 0.078,0.046 0.192,0.072 0.285,0.067 -0.037,-0.106 -0.012,-0.232 0.076,-0.313 0.119,-0.11 0.303,-0.106 0.413,0.012 0.131,0.143 0.182,0.318 0.139,0.483 -0.044,0.169 -0.181,0.302 -0.375,0.365 -0.086,0.03 -0.18,0.043 -0.278,0.043 z"
         id="path51"
         style="fill:#ffffff" /><path
         d="m 27.509,23.856 c -0.182,0 -0.364,-0.042 -0.508,-0.127 -0.181,-0.108 -0.286,-0.272 -0.287,-0.453 -10e-4,-0.179 0.101,-0.342 0.277,-0.45 0.139,-0.084 0.32,-0.04 0.404,0.099 0.063,0.105 0.054,0.235 -0.015,0.329 0.106,0.026 0.247,0.017 0.328,-0.029 0.002,-0.002 0.006,-0.004 0.008,-0.005 0.04,-0.139 0.178,-0.231 0.326,-0.209 0.161,0.024 0.271,0.174 0.248,0.334 -0.024,0.16 -0.129,0.3 -0.295,0.393 -0.138,0.08 -0.312,0.118 -0.486,0.118 z"
         id="path53"
         style="fill:#ffffff" /><path
         d="m 29.781,23.165 c -1.11,-0.626 -1.84,-0.793 -2.297,-0.527 -0.269,0.158 -0.364,0.428 -0.364,0.611 0,0.281 0.751,0.248 0.781,0.062 0.086,-0.02 0.462,-0.044 1.495,0.538 1.025,0.58 1.182,1.115 1.206,1.288 -0.026,0.12 0.116,0.263 0.324,0.321 0.213,0.061 0.414,0.011 0.448,-0.111 0.004,-0.014 0.004,-0.028 0.004,-0.042 h 0.004 c 0.019,-0.117 0.132,-1.162 -1.601,-2.14 z"
         id="path55"
         style="fill:#ffffff" /><path
         d="m 33.043,24.302 c -0.252,0 -0.521,-0.089 -0.697,-0.249 -0.144,-0.13 -0.215,-0.292 -0.2,-0.456 0.014,-0.15 0.102,-0.286 0.242,-0.373 0.139,-0.085 0.32,-0.042 0.405,0.097 0.064,0.103 0.056,0.231 -0.011,0.325 0.077,0.046 0.192,0.073 0.285,0.067 -0.037,-0.107 -0.011,-0.232 0.077,-0.313 0.12,-0.11 0.303,-0.106 0.414,0.013 0.131,0.142 0.182,0.317 0.139,0.483 -0.044,0.169 -0.182,0.303 -0.375,0.365 -0.088,0.029 -0.181,0.041 -0.279,0.041 z"
         id="path57"
         style="fill:#ffffff" /><path
         d="m 29.462,22.257 c -0.182,0 -0.364,-0.042 -0.508,-0.128 -0.181,-0.107 -0.286,-0.272 -0.286,-0.453 -10e-4,-0.178 0.1,-0.342 0.277,-0.45 0.139,-0.084 0.32,-0.041 0.405,0.099 0.063,0.104 0.054,0.235 -0.016,0.329 0.105,0.025 0.247,0.017 0.328,-0.029 0.003,-0.001 0.006,-0.004 0.009,-0.005 0.041,-0.139 0.179,-0.232 0.326,-0.209 0.161,0.024 0.271,0.174 0.247,0.334 -0.023,0.16 -0.128,0.3 -0.293,0.393 -0.14,0.08 -0.314,0.119 -0.489,0.119 z"
         id="path59"
         style="fill:#ffffff" /><path
         d="m 31.735,21.564 c -1.11,-0.626 -1.84,-0.793 -2.297,-0.527 -0.27,0.157 -0.364,0.428 -0.364,0.611 0,0.281 0.751,0.249 0.78,0.061 0.086,-0.019 0.463,-0.044 1.495,0.539 1.025,0.579 1.182,1.114 1.205,1.287 -0.026,0.121 0.116,0.263 0.324,0.321 0.214,0.06 0.414,0.01 0.449,-0.11 0.004,-0.014 0.004,-0.028 0.004,-0.043 l 0.003,0.001 c 0.02,-0.116 0.134,-1.161 -1.599,-2.14 z"
         id="path61"
         style="fill:#ffffff" /><path
         d="m 42.88,17.583 c -0.252,0 -0.521,-0.091 -0.696,-0.25 -0.145,-0.131 -0.216,-0.292 -0.201,-0.457 0.015,-0.151 0.102,-0.287 0.242,-0.373 0.139,-0.086 0.32,-0.042 0.405,0.096 0.064,0.104 0.057,0.232 -0.012,0.325 0.078,0.046 0.193,0.074 0.286,0.069 -0.037,-0.108 -0.013,-0.232 0.076,-0.314 0.12,-0.11 0.303,-0.107 0.413,0.013 0.132,0.141 0.183,0.318 0.139,0.482 -0.044,0.169 -0.181,0.302 -0.375,0.366 -0.086,0.028 -0.18,0.043 -0.277,0.043 z"
         id="path63"
         style="fill:#ffffff" /><path
         d="m 39.299,15.536 c -0.182,0 -0.364,-0.043 -0.508,-0.128 -0.181,-0.107 -0.286,-0.272 -0.287,-0.452 -10e-4,-0.178 0.101,-0.343 0.278,-0.451 0.139,-0.084 0.319,-0.04 0.404,0.099 0.063,0.105 0.054,0.235 -0.016,0.328 0.107,0.028 0.247,0.018 0.328,-0.027 0.003,-0.002 0.006,-0.003 0.008,-0.005 0.04,-0.139 0.178,-0.231 0.326,-0.209 0.161,0.024 0.272,0.175 0.248,0.334 -0.024,0.16 -0.129,0.3 -0.294,0.393 -0.139,0.079 -0.313,0.118 -0.487,0.118 z"
         id="path65"
         style="fill:#ffffff" /><path
         d="m 41.57,14.845 c -1.109,-0.627 -1.839,-0.795 -2.296,-0.528 -0.27,0.158 -0.364,0.428 -0.364,0.611 0,0.28 0.751,0.249 0.78,0.061 0.086,-0.019 0.462,-0.044 1.495,0.539 1.025,0.578 1.182,1.113 1.205,1.287 -0.025,0.121 0.116,0.263 0.324,0.321 0.214,0.061 0.414,0.01 0.449,-0.111 0.003,-0.014 0.004,-0.028 0.003,-0.042 l 0.004,0.001 c 0.019,-0.117 0.134,-1.162 -1.6,-2.139 z"
         id="path67"
         style="fill:#ffffff" /></g></g><rect
     width="85"
     height="34"
     ry="7.8461533"
     x="0"
     y="1"
     id="rect2990"
     style="fill:#ffffff;fill-opacity:1;fill-rule:nonzero;stroke:none" /></svg>