<?xml version="1.0" encoding="UTF-8" standalone="no"?>
<!-- Created with Inkscape (http://www.inkscape.org/) -->

<svg
   xmlns:dc="http://purl.org/dc/elements/1.1/"
   xmlns:cc="http://creativecommons.org/ns#"
   xmlns:rdf="http://www.w3.org/1999/02/22-rdf-syntax-ns#"
   xmlns:svg="http://www.w3.org/2000/svg"
   xmlns="http://www.w3.org/2000/svg"
   version="1.1"
   width="85"
   height="120"
   id="svg2">
  <metadata
     id="metadata8">
    <rdf:RDF>
      <cc:Work
         rdf:about="">
        <dc:format>image/svg+xml</dc:format>
        <dc:type
           rdf:resource="http://purl.org/dc/dcmitype/StillImage" />
        <dc:title></dc:title>
      </cc:Work>
    </rdf:RDF>
  </metadata>
  <defs
     id="defs6" />
  <rect
     width="85"
     height="34"
     ry="7.8461533"
     x="0"
     y="0.50000048"
     id="rect2990"
     style="fill:#ffffff;fill-opacity:1;fill-rule:nonzero;stroke:none" />
  <g
     transform="translate(2.119,39.537)"
     id="g3199">
    <g
       id="g3201">
      <path
         d="M 40.381,80.463 C 62.464,80.463 80.43,62.496 80.43,40.413 80.43,18.33 62.464,0.365 40.381,0.365 18.298,0.365 0.332,18.331 0.332,40.413 c 0,22.083 17.966,40.05 40.049,40.05 z"
         id="path3203"
         style="fill:#1d1d1b" />
    </g>
    <path
       d="m 70.167,47.561 -3.272,2.305 c -0.189,0.133 -0.321,0.332 -0.389,0.555 -1.543,5.051 -5.654,8.982 -6.78,9.986 -0.172,0.154 -0.283,0.371 -0.272,0.6 l 0.147,3.213 c 10e-4,0.012 0.008,0.021 0.011,0.033 -5.258,4.246 -11.945,6.795 -19.23,6.795 -8.596,0 -16.36,-3.545 -21.924,-9.248 0.009,-0.016 0.02,-0.027 0.025,-0.047 0.348,-1.291 1.129,-2.551 1.497,-3.102 0.107,-0.158 0.084,-0.373 -0.062,-0.498 C 16.326,55.13 15.06,48.479 14.795,46.831 14.763,46.63 14.621,46.452 14.419,46.427 12.231,46.146 10.454,44.374 9.942,43.818 9.818,42.701 9.749,41.566 9.749,40.415 c 0,-4.499 0.979,-8.766 2.72,-12.614 0.636,-0.857 1.982,-2.397 4.314,-3.873 0.2,-0.127 0.351,-0.319 0.436,-0.54 0.35,-0.892 1.314,-3.307 2.293,-5.388 3.923,-3.654 8.805,-6.288 14.229,-7.488 0.004,0.004 0.007,0.009 0.012,0.013 1.061,0.679 2.43,1.64 3.348,2.592 0.159,0.165 0.374,0.267 0.603,0.269 1.672,0.017 7.368,0.009 10.514,1.137 0.183,0.065 0.332,-0.047 0.488,-0.162 0.606,-0.447 2.543,-1.938 2.871,-2.363 0.02,-0.025 0.025,-0.054 0.033,-0.082 11.362,4.479 19.406,15.547 19.406,28.5 -0.002,2.459 -0.301,4.85 -0.849,7.145 z"
       id="path3205"
       style="fill:#ffffff" />
    <path
       d="m 56.901,23.922 c -0.783,1.156 -3.743,5.517 -5.312,7.773 -0.116,0.167 -0.109,0.388 -0.005,0.562 0.733,1.232 3.554,6.07 5.206,10.398 0.072,0.189 0.262,0.305 0.463,0.293 1.301,-0.076 5.944,-0.439 8.313,-1.831 0.185,-0.108 0.292,-0.311 0.312,-0.524 0.15,-1.576 0.679,-8.07 -0.508,-11.089 -0.083,-0.211 -0.217,-0.4 -0.38,-0.56 -0.925,-0.908 -4.358,-4.129 -7.585,-5.211 -0.187,-0.064 -0.391,0.024 -0.504,0.189 z"
       id="path3207"
       style="fill:#1d1d1b" />
    <path
       d="m 49.536,54.631 c -0.046,-0.193 -0.22,-0.33 -0.418,-0.334 -1.806,-0.029 -9.639,-0.203 -11.469,-0.244 -0.217,-0.004 -0.436,0.086 -0.543,0.275 -1.888,3.322 -4.229,6.492 -4.916,7.402 -0.118,0.156 -0.095,0.375 0.04,0.518 2.886,3.053 7.856,4.643 9.197,5.029 0.23,0.068 0.473,0.082 0.711,0.051 4.406,-0.607 8.457,-3.762 9.508,-4.637 0.155,-0.129 0.185,-0.352 0.098,-0.533 -0.748,-1.58 -1.898,-6.246 -2.208,-7.527 z"
       id="path3209"
       style="fill:#1d1d1b" />
    <path
       d="m 38.395,31.193 c -0.987,-1.335 -5.026,-6.767 -6.447,-8.256 -0.145,-0.152 -0.362,-0.215 -0.565,-0.163 -1.399,0.359 -7.078,1.941 -10.455,4.717 -0.181,0.147 -0.319,0.343 -0.385,0.566 -0.34,1.152 -1.32,5.248 -0.198,11.167 0.04,0.218 0.164,0.417 0.358,0.522 1.019,0.556 4.697,2.322 10.639,2.586 0.213,0.01 0.422,-0.08 0.54,-0.256 0.917,-1.37 5.051,-7.561 6.562,-10.273 0.107,-0.193 0.082,-0.432 -0.049,-0.61 z"
       id="path3211"
       style="fill:#1d1d1b" />
  </g>
</svg>
