<?xml version="1.0" encoding="UTF-8" standalone="no"?>
<!-- Generator: Adobe Illustrator 13.0.2, SVG Export Plug-In . SVG Version: 6.00 Build 14948)  -->

<svg
   xmlns:dc="http://purl.org/dc/elements/1.1/"
   xmlns:cc="http://creativecommons.org/ns#"
   xmlns:rdf="http://www.w3.org/1999/02/22-rdf-syntax-ns#"
   xmlns:svg="http://www.w3.org/2000/svg"
   xmlns="http://www.w3.org/2000/svg"
   xmlns:sodipodi="http://sodipodi.sourceforge.net/DTD/sodipodi-0.dtd"
   xmlns:inkscape="http://www.inkscape.org/namespaces/inkscape"
   version="1.1"
   id="Layer_1"
   x="0px"
   y="0px"
   width="540px"
   height="180px"
   viewBox="0 0 540 180"
   enable-background="new 0 0 540 180"
   xml:space="preserve"
   inkscape:version="0.91 r13725"
   sodipodi:docname="sugarlabs_logo.svg"><metadata
     id="metadata49"><rdf:RDF><cc:Work
         rdf:about=""><dc:format>image/svg+xml</dc:format><dc:type
           rdf:resource="http://purl.org/dc/dcmitype/StillImage" /></cc:Work></rdf:RDF></metadata><defs
     id="defs47" /><sodipodi:namedview
     pagecolor="#ffffff"
     bordercolor="#666666"
     borderopacity="1"
     objecttolerance="10"
     gridtolerance="10"
     guidetolerance="10"
     inkscape:pageopacity="0"
     inkscape:pageshadow="2"
     inkscape:window-width="1049"
     inkscape:window-height="692"
     id="namedview45"
     showgrid="false"
     inkscape:zoom="4.2216894"
     inkscape:cx="332.49088"
     inkscape:cy="82.859036"
     inkscape:window-x="0"
     inkscape:window-y="0"
     inkscape:window-maximized="0"
     inkscape:current-layer="Layer_1" /><rect
     fill="#FFFFFF"
     width="540"
     height="180"
     id="rect3" /><path
     d="m 63.051,117.519 c -11.052,0 -21.119,-5.5 -21.119,-11.539 0,-3.157 2.303,-5.63 5.244,-5.63 2.022,0 3.719,1.183 5.515,2.435 2.592,1.809 5.529,3.855 10.651,3.855 5.139,0 8.21,-2.647 8.21,-5.209 0,-3.416 -5.271,-5.607 -10.852,-7.927 -7.799,-3.243 -16.639,-6.918 -16.639,-15.886 0,-10.573 9.933,-16.279 19.28,-16.279 7.89,0 18.895,4.132 18.895,10.86 0,2.526 -1.763,5.244 -5.632,5.244 -2.068,0 -3.558,-1.125 -4.997,-2.212 -1.872,-1.414 -3.994,-3.015 -8.266,-3.015 -1.209,0 -7.242,0.227 -7.242,4.726 0,2.729 4.879,4.613 10.044,6.608 7.772,3.001 17.446,6.739 17.446,16.333 0.002,12.117 -10.646,17.636 -20.538,17.636 l 0,0 z"
     id="path9"
     inkscape:connector-curvature="0"
     style="fill:#ffffff" /><path
     d="m 63.343,63.098 c 7.066,0 17.134,3.775 17.134,9.099 0,1.839 -1.259,3.484 -3.873,3.484 -3.677,0 -5.13,-5.227 -13.261,-5.227 -4.84,0 -9.002,2.129 -9.002,6.485 0,9.002 27.491,8.035 27.491,22.941 0,10.746 -9.196,15.877 -18.779,15.877 -10.842,0 -19.359,-5.422 -19.359,-9.779 0,-2.321 1.645,-3.87 3.484,-3.87 3.775,0 6.873,6.291 16.166,6.291 6.195,0 9.97,-3.484 9.97,-6.97 0,-10.066 -27.491,-9.486 -27.491,-23.812 -10e-4,-9.485 8.905,-14.519 17.52,-14.519 m 0,-3.52 c -10.2,0 -21.041,6.323 -21.041,18.04 0,10.142 9.828,14.228 17.724,17.511 4.578,1.903 9.767,4.061 9.767,6.302 0,1.41 -2.297,3.45 -6.45,3.45 -4.569,0 -7.15,-1.801 -9.646,-3.541 -1.939,-1.353 -3.944,-2.75 -6.52,-2.75 -3.928,0 -7.004,3.246 -7.004,7.39 0,7.085 10.691,13.299 22.879,13.299 10.74,0 22.299,-6.069 22.299,-19.396 0,-10.802 -10.733,-14.947 -18.57,-17.974 -3.337,-1.289 -8.921,-3.445 -8.921,-4.968 0,-2.822 4.567,-2.965 5.482,-2.965 3.682,0 5.393,1.292 7.205,2.66 1.593,1.203 3.398,2.566 6.057,2.566 4.284,0 7.393,-2.946 7.393,-7.004 0,-8.126 -12.213,-12.62 -20.654,-12.62 l 0,0 z"
     id="path11"
     inkscape:connector-curvature="0"
     style="fill:#999999" /><path
     d="m 117.647,117.519 c -10.726,0 -22.187,-5.854 -22.187,-22.281 l 0,-27.59 c 0,-3.773 2.418,-6.309 6.02,-6.309 3.602,0 6.021,2.536 6.021,6.309 l 0,27.299 c 0,7.979 3.224,11.693 10.146,11.693 6.922,0 10.146,-3.715 10.146,-11.693 l 0,-27.3 c 0,-3.773 2.418,-6.309 6.02,-6.309 3.6,0 6.018,2.536 6.018,6.309 l 0,27.59 c 0,16.428 -11.46,22.282 -22.184,22.282 l 0,0 z"
     id="path15"
     inkscape:connector-curvature="0"
     style="fill:#ffffff" /><path
     d="m 133.812,63.098 c 2.613,0 4.259,1.743 4.259,4.549 l 0,27.589 c 0,15.101 -10.068,20.522 -20.425,20.522 -10.357,0 -20.425,-5.422 -20.425,-20.522 l 0,-27.589 c 0,-2.807 1.646,-4.549 4.26,-4.549 2.613,0 4.259,1.743 4.259,4.549 l 0,27.299 c 0,8.809 3.872,13.454 11.907,13.454 8.035,0 11.906,-4.646 11.906,-13.454 l 0,-27.299 c 0,-2.806 1.645,-4.549 4.259,-4.549 m 0,-3.52 c -4.581,0 -7.78,3.318 -7.78,8.069 l 0,27.299 c 0,8.754 -4.239,9.935 -8.386,9.935 -4.147,0 -8.387,-1.181 -8.387,-9.935 l 0,-27.299 c 0,-4.751 -3.199,-8.069 -7.779,-8.069 -4.581,0 -7.78,3.318 -7.78,8.069 l 0,27.589 c 0,17.727 12.37,24.042 23.945,24.042 11.575,0 23.945,-6.315 23.945,-24.042 l 0,-27.589 c 0.001,-4.751 -3.197,-8.069 -7.778,-8.069 l 0,0 z"
     id="path17"
     inkscape:connector-curvature="0"
     style="fill:#999999" /><path
     d="m 175.533,137.846 c -8.493,0 -21.509,-4.994 -21.509,-11.149 0,-2.758 1.671,-5.729 5.342,-5.729 2.021,0 3.766,1.074 5.785,2.317 2.804,1.728 5.981,3.683 11.059,3.683 10.827,0 12.215,-9.426 12.273,-13.816 -3.037,2.818 -7.039,4.37 -11.498,4.37 -16.028,0 -24.414,-14.133 -24.414,-28.092 0,-13.959 8.386,-28.09 24.414,-28.09 4.424,0 8.692,1.905 11.688,4.32 0.654,-2.638 2.95,-4.32 6.122,-4.32 2.778,0 5.731,2.077 5.731,5.923 l 0,44.237 c 0,16.003 -9.811,26.346 -24.993,26.346 l 0,0 z m 1.452,-65.63 c -9.132,0 -12.372,9.271 -12.372,17.212 0,7.941 3.24,17.211 12.372,17.211 9.13,0 12.371,-9.271 12.371,-17.211 0,-7.94 -3.241,-17.212 -12.371,-17.212 l 0,0 z"
     id="path21"
     inkscape:connector-curvature="0"
     style="fill:#ffffff" /><path
     d="m 194.795,63.098 c 1.645,0 3.969,1.162 3.969,4.163 l 0,44.237 c 0,15.294 -9.293,24.587 -23.232,24.587 -8.809,0 -19.747,-5.033 -19.747,-9.389 0,-1.742 0.872,-3.969 3.582,-3.969 3.872,0 7.648,6.001 16.843,6.001 10.843,0 14.037,-8.519 14.037,-15.875 l 0,-4.453 -0.194,0 c -2.614,4.453 -7.261,7.358 -13.068,7.358 -14.52,0 -22.651,-12.682 -22.651,-26.331 0,-13.649 8.131,-26.33 22.651,-26.33 5.517,0 10.841,3.388 13.068,6.486 l 0.194,0 0,-2.324 c -0.001,-2.999 2.225,-4.161 4.548,-4.161 M 176.984,108.4 c 10.454,0 14.132,-10.26 14.132,-18.972 0,-8.712 -3.679,-18.973 -14.132,-18.973 -10.455,0 -14.133,10.261 -14.133,18.973 0.001,8.713 3.678,18.972 14.133,18.972 m 17.811,-48.822 c -3.035,0 -5.485,1.289 -6.859,3.399 -3.083,-1.981 -6.961,-3.399 -10.952,-3.399 -17.182,0 -26.171,15.017 -26.171,29.85 0,14.833 8.99,29.85 26.171,29.85 3.423,0 6.604,-0.83 9.352,-2.385 -0.846,4.075 -3.355,8.315 -10.127,8.315 -4.579,0 -7.53,-1.818 -10.134,-3.422 -2.154,-1.326 -4.188,-2.579 -6.708,-2.579 -4.115,0 -7.102,3.149 -7.102,7.488 0,7.488 13.898,12.908 23.267,12.908 7.882,0 14.584,-2.642 19.383,-7.64 4.821,-5.022 7.37,-12.1 7.37,-20.467 l 0,-44.235 c -0.001,-4.99 -3.859,-7.683 -7.49,-7.683 l 0,0 z m -17.811,45.303 c -10.101,0 -10.613,-12.872 -10.613,-15.453 0,-2.581 0.512,-15.453 10.613,-15.453 10.101,0 10.612,12.873 10.612,15.453 0,2.58 -0.511,15.453 -10.612,15.453 l 0,0 z"
     id="path23"
     inkscape:connector-curvature="0"
     style="fill:#999999" /><path
     d="m 256.264,117.519 c -2.625,0 -5.279,-1.729 -5.68,-5.044 -3.492,3.314 -7.752,5.044 -12.52,5.044 -16.026,0 -24.411,-14.131 -24.411,-28.091 0,-13.958 8.385,-28.089 24.411,-28.089 4.755,0 8.745,1.484 12.563,4.743 0.52,-3.119 3.091,-4.743 5.636,-4.743 2.776,0 5.727,2.076 5.727,5.923 l 0,44.334 c 10e-4,3.846 -2.95,5.923 -5.726,5.923 l 0,0 z M 238.065,72.215 c -9.132,0 -12.373,9.273 -12.373,17.212 0,7.94 3.241,17.212 12.373,17.212 9.133,0 12.373,-9.272 12.373,-17.212 0,-7.939 -3.24,-17.212 -12.373,-17.212 l 0,0 z"
     id="path27"
     inkscape:connector-curvature="0"
     style="fill:#ffffff" /><path
     d="m 256.264,63.098 c 1.645,0 3.967,1.162 3.967,4.163 l 0,44.334 c 0,3.002 -2.322,4.164 -3.967,4.164 -1.743,0 -3.97,-1.162 -3.97,-4.164 l 0,-3.581 -0.193,0 c -3.678,5.228 -8.518,7.745 -14.036,7.745 -14.521,0 -22.651,-12.682 -22.651,-26.331 0,-13.649 8.13,-26.33 22.651,-26.33 5.905,0 10.067,2.516 14.036,6.873 l 0.193,0 0,-2.71 c 0,-3.001 2.227,-4.163 3.97,-4.163 M 238.065,108.4 c 10.454,0 14.133,-10.26 14.133,-18.972 0,-8.712 -3.679,-18.973 -14.133,-18.973 -10.455,0 -14.133,10.261 -14.133,18.973 0,8.713 3.678,18.972 14.133,18.972 m 18.199,-48.822 c -2.479,0 -5.063,1.254 -6.454,3.637 -3.564,-2.488 -7.348,-3.637 -11.745,-3.637 -17.181,0 -26.171,15.017 -26.171,29.85 0,14.833 8.99,29.85 26.171,29.85 4.331,0 8.272,-1.291 11.662,-3.784 1.37,2.479 4.009,3.784 6.538,3.784 3.63,0 7.487,-2.692 7.487,-7.684 l 0,-44.333 c -0.001,-4.99 -3.858,-7.683 -7.488,-7.683 l 0,0 z m -18.199,45.303 c -10.102,0 -10.613,-12.872 -10.613,-15.453 0,-2.581 0.512,-15.453 10.613,-15.453 10.101,0 10.613,12.873 10.613,15.453 0,2.58 -0.512,15.453 -10.613,15.453 l 0,0 z"
     id="path29"
     inkscape:connector-curvature="0"
     style="fill:#999999" /><path
     d="m 282.981,117.519 c -3.601,0 -6.02,-2.536 -6.02,-6.311 l 0,-43.561 c 0,-3.774 2.419,-6.309 6.02,-6.309 3.289,0 5.593,2.118 5.965,5.361 2.537,-2.849 6.103,-5.361 10.104,-5.361 3.768,0 6.503,2.572 6.503,6.115 0,2.326 -1.173,5.322 -6.76,6.375 -2.961,0.515 -9.793,2.788 -9.793,12.89 l 0,24.49 c 0,3.774 -2.419,6.311 -6.019,6.311 l 0,0 z"
     id="path33"
     inkscape:connector-curvature="0"
     style="fill:#ffffff" /><path
     d="m 299.049,63.098 c 3,0 4.744,1.936 4.744,4.355 0,2.42 -1.744,3.97 -5.326,4.647 -5.033,0.871 -11.228,4.646 -11.228,14.617 l 0,24.491 c 0,2.808 -1.646,4.551 -4.259,4.551 -2.615,0 -4.26,-1.743 -4.26,-4.551 l 0,-43.561 c 0,-2.807 1.645,-4.549 4.26,-4.549 2.613,0 4.259,1.743 4.259,4.549 l 0,4.356 0.194,0 c 1.936,-3.968 6.679,-8.905 11.616,-8.905 m 0,-3.52 c -3.515,0 -6.709,1.664 -9.283,3.875 -1.286,-2.396 -3.728,-3.875 -6.785,-3.875 -4.581,0 -7.779,3.318 -7.779,8.069 l 0,43.561 c 0,4.752 3.198,8.07 7.779,8.07 4.58,0 7.778,-3.318 7.778,-8.07 l 0,-24.491 c 0,-8.449 5.206,-10.611 8.309,-11.148 0.018,-0.003 0.035,-0.006 0.054,-0.01 7.128,-1.348 8.191,-5.657 8.191,-8.105 0,-4.564 -3.475,-7.876 -8.264,-7.876 l 0,0 z"
     id="path35"
     inkscape:connector-curvature="0"
     style="fill:#999999" /><path
     style="fill:#969696"
     inkscape:connector-curvature="0"
     id="path37"
     d="m 324.99,111.208 c 0,2.808 -1.646,4.551 -4.259,4.551 -2.614,0 -4.26,-1.743 -4.26,-4.551 l 0,-66.211 c 0,-2.808 1.646,-4.55 4.26,-4.55 2.613,0 4.259,1.743 4.259,4.55 l 0,66.211 z" /><path
     style="fill:#969696"
     inkscape:connector-curvature="0"
     id="path39"
     d="m 386.071,111.595 c 0,3.002 -2.324,4.164 -3.969,4.164 -1.742,0 -3.969,-1.162 -3.969,-4.164 l 0,-3.581 -0.193,0 c -3.68,5.228 -8.52,7.745 -14.037,7.745 -14.52,0 -22.65,-12.682 -22.65,-26.331 0,-13.649 8.131,-26.33 22.65,-26.33 5.906,0 10.067,2.516 14.037,6.873 l 0.193,0 0,-2.71 c 0,-3.001 2.227,-4.163 3.969,-4.163 1.645,0 3.969,1.162 3.969,4.163 l 0,44.334 z M 363.903,108.4 c 10.455,0 14.133,-10.26 14.133,-18.972 0,-8.712 -3.678,-18.973 -14.133,-18.973 -10.453,0 -14.132,10.261 -14.132,18.973 0,8.713 3.679,18.972 14.132,18.972 z" /><path
     style="fill:#969696"
     inkscape:connector-curvature="0"
     id="path41"
     d="m 404.946,44.997 c 0,-2.808 1.646,-4.55 4.26,-4.55 2.614,0 4.26,1.743 4.26,4.55 l 0,25.07 0.192,0 c 2.227,-3.194 6.97,-6.969 13.745,-6.969 13.941,0 21.975,12.681 21.975,26.33 0,13.649 -8.033,26.331 -21.975,26.331 -6.775,0 -11.324,-2.421 -13.745,-7.068 l -0.192,0 0,2.518 c 0,2.808 -1.646,4.551 -4.26,4.551 -2.614,0 -4.26,-1.743 -4.26,-4.551 l 0,-66.212 z m 21.781,63.403 c 10.453,0 14.131,-10.26 14.131,-18.972 0,-8.712 -3.678,-18.973 -14.131,-18.973 -10.455,0 -14.135,10.261 -14.135,18.973 0,8.713 3.68,18.972 14.135,18.972 z" /><path
     style="fill:#969696"
     inkscape:connector-curvature="0"
     id="path43"
     d="m 481.999,63.098 c 7.066,0 17.135,3.775 17.135,9.099 0,1.839 -1.26,3.484 -3.873,3.484 -3.678,0 -5.13,-5.227 -13.262,-5.227 -4.84,0 -9.002,2.129 -9.002,6.485 0,9.002 27.491,8.035 27.491,22.941 0,10.746 -9.196,15.877 -18.778,15.877 -10.843,0 -19.361,-5.422 -19.361,-9.779 0,-2.321 1.646,-3.87 3.484,-3.87 3.775,0 6.873,6.291 16.166,6.291 6.195,0 9.971,-3.484 9.971,-6.97 0,-10.066 -27.491,-9.486 -27.491,-23.812 -10e-4,-9.485 8.904,-14.519 17.52,-14.519 z" /></svg>