<?xml version="1.0" encoding="UTF-8" standalone="no"?>
<!-- Created with Inkscape (http://www.inkscape.org/) -->

<svg
   xmlns:dc="http://purl.org/dc/elements/1.1/"
   xmlns:cc="http://creativecommons.org/ns#"
   xmlns:rdf="http://www.w3.org/1999/02/22-rdf-syntax-ns#"
   xmlns:svg="http://www.w3.org/2000/svg"
   xmlns="http://www.w3.org/2000/svg"
   xmlns:sodipodi="http://sodipodi.sourceforge.net/DTD/sodipodi-0.dtd"
   xmlns:inkscape="http://www.inkscape.org/namespaces/inkscape"
   width="892.00458"
   height="245.90163"
   id="svg6314"
   sodipodi:version="0.32"
   inkscape:version="0.91 r13725"
   sodipodi:modified="true"
   version="1.0"
   sodipodi:docname="sugarizer_logo_with_text.svg"
   inkscape:export-filename="/Users/lionel/Desktop/sugarizer_on_android.png"
   inkscape:export-xdpi="80"
   inkscape:export-ydpi="80">
  <defs
     id="defs6316">
    <inkscape:path-effect
       effect="spiro"
       id="path-effect3423"
       is_visible="true" />
    <inkscape:path-effect
       effect="bend_path"
       id="path-effect3417"
       is_visible="true"
       bendpath="m -478.35091,344.349 563.856295,0"
       prop_scale="1"
       scale_y_rel="false"
       vertical="false" />
    <inkscape:path-effect
       effect="bend_path"
       id="path-effect3411"
       is_visible="true"
       bendpath="m -778.15775,26.985074 454.86079,-1.621622"
       prop_scale="1"
       scale_y_rel="false"
       vertical="false"
       bendpath-nodetypes="cc" />
    <inkscape:path-effect
       effect="bend_path"
       id="path-effect3386"
       is_visible="true"
       bendpath="m -111.67125,472.93103 454.86079,0"
       prop_scale="1"
       scale_y_rel="false"
       vertical="false" />
    <inkscape:path-effect
       effect="bend_path"
       id="path-effect3411-8"
       is_visible="true"
       bendpath="m -778.15775,26.985074 454.86079,-1.621622"
       prop_scale="1"
       scale_y_rel="false"
       vertical="false"
       bendpath-nodetypes="cc" />
    <inkscape:path-effect
       effect="bend_path"
       id="path-effect3386-7"
       is_visible="true"
       bendpath="m -111.67125,472.93103 454.86079,0"
       prop_scale="1"
       scale_y_rel="false"
       vertical="false" />
  </defs>
  <sodipodi:namedview
     id="base"
     pagecolor="#ffffff"
     bordercolor="#666666"
     borderopacity="1.0"
     inkscape:pageopacity="1"
     inkscape:pageshadow="2"
     inkscape:zoom="0.70710678"
     inkscape:cx="393.75012"
     inkscape:cy="269.02717"
     inkscape:document-units="px"
     inkscape:current-layer="layer1"
     width="240px"
     height="330px"
     showgrid="true"
     showguides="true"
     inkscape:guide-bbox="true"
     inkscape:window-width="1283"
     inkscape:window-height="705"
     inkscape:window-x="83"
     inkscape:window-y="42"
     inkscape:window-maximized="0"
     fit-margin-left="45"
     fit-margin-right="45"
     fit-margin-top="45"
     fit-margin-bottom="45" />
  <metadata
     id="metadata6319">
    <rdf:RDF>
      <cc:Work
         rdf:about="">
        <dc:format>image/svg+xml</dc:format>
        <dc:type
           rdf:resource="http://purl.org/dc/dcmitype/StillImage" />
        <dc:title></dc:title>
      </cc:Work>
    </rdf:RDF>
  </metadata>
  <g
     inkscape:label="Camada 1"
     inkscape:groupmode="layer"
     id="layer1"
     transform="translate(784.14059,304.45188)">
    <g
       id="g3388"
       transform="matrix(1.764,0,0,1.764,633.15984,-226.14544)">
      <g
         transform="translate(-666.4865,-445.94596)"
         id="g3131">
        <g
           id="g5"
           transform="translate(-138.52525,399.35831)">
          <g
             id="g7">
            <path
               style="fill:#ff2b34"
               d="m 49.982854,94.400047 c -11.054,0.03941 -21.139608,-5.42467 -21.161137,-11.463632 -0.01125,-3.15698 2.282925,-5.639175 5.224925,-5.649663 2.022,-0.0072 3.721214,1.168741 5.520681,2.415334 2.599442,1.797744 5.543746,3.83626 10.665746,3.818 5.073,-0.01809 8.20136,-2.733256 8.192426,-5.23924 -0.01218,-3.416978 -5.290993,-5.589173 -10.879263,-7.889265 -7.812555,-3.213168 -16.664653,-6.855633 -16.696624,-15.823576 -0.0377,-10.573933 9.876957,-16.316316 19.221957,-16.349631 7.889999,-0.02813 18.909727,4.063611 18.933716,10.792568 0.009,2.524984 -1.743308,5.249249 -5.614308,5.263049 -2.068,0.0074 -3.559007,-1.111319 -5.002875,-2.191178 -1.878041,-1.407314 -4.004753,-3.001742 -8.277753,-2.986508 -1.208,0.0043 -7.240187,0.253813 -7.224158,4.749784 0.0097,2.729983 4.896456,4.598573 10.070568,6.57514 7.782699,2.973273 17.468007,6.671768 17.502218,16.267707 0.0432,12.117923 -10.583119,17.675841 -20.476119,17.711111 z"
               id="path9"
               inkscape:connector-curvature="0" />
            <path
               style="fill:#005fe4"
               d="m 50.078839,39.978359 c 7.066,-0.02519 17.147458,3.713892 17.166438,9.037858 0.0066,1.838988 -1.246579,3.488466 -3.860579,3.497785 -3.677,0.01311 -5.148634,-5.208678 -13.279634,-5.17969 -4.84,0.01726 -8.99441,2.16108 -8.978881,6.517052 0.03209,9.001943 27.519645,7.936941 27.57279,22.843846 0.03831,10.745932 -9.139401,15.908684 -18.722401,15.942848 -10.842,0.03865 -19.378326,-5.351949 -19.393862,-9.709921 -0.0083,-2.320985 1.631203,-3.87584 3.470203,-3.882396 3.775,-0.01346 6.895428,6.266457 16.188427,6.233326 6.195,-0.02209 9.957576,-3.520521 9.945152,-7.005499 C 60.150602,68.206632 32.661674,68.885636 32.610601,54.559727 32.575786,45.074791 41.463839,40.009072 50.078839,39.978359 Z m -0.01255,-3.519978 c -10.2,0.03636 -21.018458,6.397973 -20.976686,18.114899 0.03616,10.141935 9.877724,14.192875 17.786424,17.446701 4.585785,1.886663 9.782478,4.02615 9.790471,6.268136 0.005,1.409991 -2.284701,3.458167 -6.437701,3.472973 -4.568999,0.01629 -7.156417,-1.774498 -9.658623,-3.506589 -1.94282,-1.345082 -3.952804,-2.735925 -6.528804,-2.726741 -3.928,0.014 -6.992428,3.270949 -6.977654,7.414923 0.02525,7.083955 10.738412,13.260801 22.926411,13.217349 10.74,-0.03829 22.27736,-6.149459 22.229852,-19.475375 C 72.18147,65.882726 61.433693,61.776017 53.585902,58.776975 50.244306,57.49988 44.65262,55.363802 44.64719,53.840811 c -0.0021,-0.600996 0.125366,-1.300455 1.087116,-1.934888 1.002654,-0.661578 2.60031,-1.044277 4.38531,-1.05064 3.682,-0.01313 5.397606,1.272765 7.214483,2.634296 1.597289,1.197313 3.407148,2.55387 6.066148,2.54439 4.284,-0.01527 7.382497,-2.972338 7.36803,-7.030312 C 70.736311,40.878719 58.50729,36.428288 50.06629,36.458381 Z"
               id="path11"
               inkscape:connector-curvature="0" />
          </g>
          <g
             id="g13">
            <path
               style="fill:#ff2b34"
               d="M 104.57785,94.205411 C 93.851853,94.24365 82.369984,88.430547 82.311413,72.001651 L 82.21306,44.413826 c -0.01345,-3.773976 2.395504,-6.31858 5.998504,-6.331425 3.6,-0.01283 6.028041,2.514526 6.041496,6.288502 l 0.09732,27.297826 c 0.02844,7.977949 3.26669,11.682428 10.18869,11.657751 6.921,-0.02467 10.13275,-3.753148 10.10431,-11.730097 l -0.0973,-27.297827 c -0.0135,-3.773976 2.3955,-6.31858 5.9965,-6.331418 3.601,-0.01284 6.02804,2.514525 6.0415,6.288501 l 0.0984,27.586825 c 0.0566,16.428903 -11.38056,22.324715 -22.10456,22.362947 z"
               id="path15"
               inkscape:connector-curvature="0" />
            <path
               style="fill:#005fe4"
               d="m 120.54784,39.72713 c 2.613,-0.0093 4.26521,1.726805 4.27522,4.533788 l 0.0983,27.587824 c 0.0538,15.100904 -9.99384,20.55776 -20.35084,20.594683 C 94.213572,92.480349 84.125246,87.09528 84.071409,71.994376 l -0.09835,-27.587824 c -0.01001,-2.806982 1.629783,-4.55484 4.243783,-4.564159 2.613,-0.0093 4.26521,1.726806 4.275217,4.533788 l 0.09732,27.297826 c 0.0314,8.808944 3.919968,13.441111 11.954961,13.412465 8.035,-0.02864 11.88944,-4.688416 11.85804,-13.49736 l -0.0973,-27.297827 c -0.01,-2.806982 1.62878,-4.554836 4.24278,-4.564155 z m -0.0125,-3.519977 c -4.58,0.01633 -7.76717,3.345711 -7.75023,8.096681 l 0.0973,27.297827 c 0.0312,8.754944 -4.20359,9.950049 -8.35059,9.964833 -4.147,0.01478 -8.391202,-1.150092 -8.422415,-9.905036 l -0.09732,-27.297826 c -0.01694,-4.75097 -3.227767,-8.057544 -7.807766,-8.041216 -4.581,0.01633 -7.768171,3.345715 -7.751234,8.096685 l 0.09835,27.587825 c 0.0632,17.726887 12.455712,23.997747 24.031715,23.956477 11.576,-0.04127 23.92148,-6.401323 23.85829,-24.12721 l -0.0983,-27.587825 c -0.0169,-4.750969 -3.22777,-8.057544 -7.80777,-8.041215 z"
               id="path17"
               inkscape:connector-curvature="0" />
          </g>
          <g
             id="g19">
            <path
               style="fill:#ff2b34"
               d="m 162.53332,114.32692 c -8.493,0.0303 -21.52481,-4.92029 -21.54675,-11.07425 -0.01,-2.75898 1.65058,-5.734922 5.32058,-5.748006 2.023,-0.0072 3.77283,1.061556 5.79527,2.299354 2.80915,1.714992 5.99212,3.660662 11.07112,3.642552 10.831,-0.0386 12.18239,-9.47249 12.22474,-13.862669 -3.02796,2.827813 -7.02443,4.394071 -11.48443,4.409971 -16.026,0.05713 -24.46138,-14.043883 -24.51114,-28.003794 -0.0498,-13.958911 8.28485,-28.119715 24.31085,-28.176849 4.427,-0.01578 8.7008,1.875993 11.7044,4.2773 0.64459,-2.642314 2.9356,-4.329493 6.1056,-4.340794 2.778,-0.0099 5.7364,2.055562 5.75012,5.902538 l 0.15771,44.237719 c 0.0581,16.005898 -9.71607,26.382808 -24.89807,26.436928 z m 1.21902,-65.63576 c -9.132,0.03256 -12.33994,9.316052 -12.31163,17.256002 0.0283,7.939949 3.30136,17.200339 12.43436,17.167779 9.132,-0.03256 12.33894,-9.316048 12.31064,-17.255998 -0.0283,-7.939949 -3.30137,-17.200339 -12.43337,-17.167783 z"
               id="path21"
               inkscape:connector-curvature="0" />
            <path
               style="fill:#005fe4"
               d="m 181.53184,39.509716 c 1.645,-0.0059 3.97314,1.147843 3.98384,4.148824 l 0.15771,44.237719 c 0.0545,15.292901 -9.20535,24.619971 -23.14434,24.669671 -8.809,0.0314 -19.76495,-4.96457 -19.78048,-9.31854 -0.006,-1.74399 0.85685,-3.972083 3.56685,-3.981745 3.872,-0.0138 7.66939,5.972695 16.86539,5.939915 10.842,-0.0387 14.00664,-8.567992 13.98041,-15.924946 l -0.0159,-4.452971 -0.194,6.91e-4 c -2.59812,4.462291 -7.23477,7.38284 -13.04177,7.403542 -14.52,0.05177 -22.69621,-12.600166 -22.74487,-26.24908 -0.0487,-13.648913 8.03713,-26.35882 22.55713,-26.410585 5.518,-0.01967 10.85308,3.349329 13.09113,6.43937 l 0.194,-6.92e-4 -0.008,-2.323985 c -0.0117,-2.998977 2.20917,-4.168902 4.53317,-4.177188 z M 163.88135,84.87593 c 10.454,-0.03727 14.09642,-10.31032 14.06536,-19.023265 -0.0311,-8.711944 -3.74664,-18.959763 -14.20064,-18.922494 -10.455,0.03727 -14.09542,10.311317 -14.06436,19.023262 0.0311,8.712944 3.74464,18.95977 14.19964,18.922497 z m 17.63794,-48.886191 c -3.035,0.01082 -5.4804,1.309546 -6.84688,3.424431 -3.09107,-1.970992 -6.97312,-3.375162 -10.96412,-3.360933 -17.182,0.06125 -26.11746,15.110206 -26.06458,29.943112 0.0529,14.832906 9.09541,29.817764 26.27741,29.756508 3.424,-0.01221 6.60104,-0.854538 9.3455,-2.418332 -0.83247,4.077993 -3.32436,8.326905 -10.09836,8.351055 -4.58,0.0163 -7.53747,-1.790141 -10.14719,-3.384847 -2.15873,-1.318312 -4.1972,-2.564053 -6.7182,-2.555065 -4.115,0.01467 -7.08977,3.174295 -7.0743,7.514272 0.0267,7.48795 13.94402,12.85937 23.31302,12.82596 7.882,-0.0281 14.57459,-2.69397 19.35576,-7.71005 4.8031,-5.03915 7.32587,-12.125193 7.29604,-20.49214 l -0.15771,-44.237719 c -0.0188,-4.989965 -3.88739,-7.66919 -7.51639,-7.656252 z M 163.8688,81.355952 c -10.101,0.03601 -10.65789,-12.834085 -10.66709,-15.415069 -0.009,-2.580983 0.45691,-15.454727 10.5569,-15.490734 10.102,-0.03602 10.6589,12.835082 10.6681,15.415065 0.009,2.579984 -0.45591,15.454724 -10.55791,15.490738 z"
               id="path23"
               inkscape:connector-curvature="0" />
          </g>
          <g
             id="g25">
            <path
               style="fill:#ff2b34"
               d="m 243.19285,93.710235 c -2.624,0.0094 -5.28316,-1.709176 -5.69399,-5.025733 -3.47918,3.328425 -7.73401,5.073605 -12.50301,5.090607 -16.027,0.05714 -24.46038,-14.042886 -24.51014,-28.002798 -0.0498,-13.957911 8.28286,-28.118707 24.30986,-28.175845 4.755,-0.01695 8.74829,1.453821 12.5809,4.698178 0.50789,-3.12083 3.0731,-4.753986 5.6161,-4.763052 2.776,-0.0099 5.73439,2.054569 5.74811,5.901545 l 0.15805,44.333718 c 0.0137,3.847976 -2.92888,5.93348 -5.70588,5.94338 z M 224.83433,48.470397 c -9.134,0.03256 -12.34294,9.317063 -12.31463,17.258012 0.0283,7.93995 3.30337,17.202333 12.43737,17.169769 9.132,-0.03256 12.34094,-9.317055 12.31263,-17.258005 -0.0283,-7.93995 -3.30337,-17.202333 -12.43537,-17.169776 z"
               id="path27"
               inkscape:connector-curvature="0" />
            <path
               style="fill:#005fe4"
               d="m 242.99984,39.290577 c 1.645,-0.0059 3.97114,1.14785 3.98184,4.148831 l 0.15805,44.333718 c 0.0107,3.001981 -2.30715,4.172252 -3.95215,4.178117 -1.743,0.0062 -3.97514,-1.146836 -3.98585,-4.149817 l -0.0128,-3.581977 -0.193,6.88e-4 c -3.65936,5.241079 -8.49039,7.775318 -14.00739,7.794987 -14.521,0.05177 -22.6952,-12.60017 -22.74386,-26.249084 -0.0487,-13.648913 8.03513,-26.358813 22.55613,-26.410582 5.905,-0.02105 10.07497,2.480098 14.0595,6.822921 l 0.193,-6.88e-4 -0.01,-2.709983 c -0.01,-3.000985 2.21316,-4.170917 3.95616,-4.177131 z M 224.96235,84.65817 c 10.454,-0.03727 14.09642,-10.31032 14.06536,-19.023264 -0.0311,-8.711945 -3.74665,-18.959764 -14.20064,-18.922494 -10.455,0.03727 -14.09642,10.31132 -14.06536,19.023265 0.0311,8.712944 3.74564,18.959767 14.20064,18.922493 z M 242.98729,35.7706 c -2.479,0.0088 -5.05853,1.272042 -6.44104,3.659986 -3.57287,-2.475279 -7.36096,-3.610781 -11.75796,-3.595105 -17.181,0.06125 -26.11647,15.110203 -26.06358,29.943109 0.0529,14.832905 9.09541,29.817763 26.27641,29.756511 4.331,-0.01544 8.2674,-1.320482 11.64751,-3.826548 1.37884,2.4741 4.02249,3.770683 6.55149,3.761667 3.63,-0.01294 7.4764,-2.719671 7.45861,-7.710639 l -0.15805,-44.332719 c -0.0168,-4.989971 -3.88339,-7.669204 -7.51339,-7.656262 z M 224.9498,81.138193 c -10.102,0.03601 -10.65889,-12.834082 -10.66809,-15.415066 -0.009,-2.580983 0.4569,-15.454727 10.5579,-15.490738 10.101,-0.03601 10.6589,12.835082 10.6681,15.415066 0.009,2.579983 -0.45591,15.454723 -10.55791,15.490738 z"
               id="path29"
               inkscape:connector-curvature="0" />
          </g>
          <g
             id="g31">
            <path
               style="fill:#ff2b34"
               d="m 269.91185,93.614979 c -3.602,0.01284 -6.03004,-2.514518 -6.0435,-6.289494 l -0.15529,-43.558723 c -0.0135,-3.774976 2.3965,-6.319584 5.9985,-6.332426 3.289,-0.01172 5.60054,2.095047 5.9841,5.3377 2.52485,-2.858019 6.0829,-5.38072 10.0829,-5.39498 3.769,-0.01344 6.51417,2.549793 6.5268,6.09277 0.008,2.325985 -1.15404,5.323148 -6.73727,6.39906 -2.96017,0.524556 -9.78206,2.822891 -9.74605,12.922827 l 0.0873,24.489844 c 0.0135,3.775976 -2.39649,6.320584 -5.99749,6.333422 z"
               id="path33"
               inkscape:connector-curvature="0" />
            <path
               style="fill:#005fe4"
               d="m 285.78584,39.138041 c 3.001,-0.0107 4.7509,1.919075 4.75952,4.33806 0.009,2.419984 -1.72885,3.975188 -5.30943,4.665958 -5.0289,0.888934 -11.21044,4.685996 -11.17489,14.656932 l 0.0873,24.489845 c 0.01,2.808982 -1.62978,4.556839 -4.24378,4.566158 -2.614,0.0093 -4.26621,-1.726802 -4.27622,-4.535784 l -0.1553,-43.559723 c -0.01,-2.806982 1.62979,-4.554839 4.24379,-4.564158 2.613,-0.0093 4.26621,1.726801 4.27621,4.533783 l 0.0155,4.355973 0.193,-6.88e-4 c 1.92186,-3.974877 6.64726,-8.928755 11.58426,-8.946356 z m -0.0126,-3.519978 c -3.514,0.01253 -6.70207,1.688905 -9.26819,3.908067 -1.29454,-2.3914 -3.74281,-3.861681 -6.79981,-3.850783 -4.58,0.01633 -7.76717,3.345712 -7.75024,8.096682 l 0.1553,43.559723 c 0.0169,4.75197 3.22777,8.059544 7.80777,8.043216 4.581,-0.01633 7.76717,-3.346712 7.75023,-8.098682 L 277.581,62.786442 c -0.0301,-8.448946 5.16717,-10.629489 8.26826,-11.177548 0.018,-0.0031 0.036,-0.0061 0.054,-0.01019 7.12319,-1.373404 8.17083,-5.686166 8.16211,-8.134151 -0.0173,-4.563967 -3.50408,-7.863557 -8.29208,-7.846488 z"
               id="path35"
               inkscape:connector-curvature="0" />
          </g>
          <g
             style="font-style:normal;font-variant:normal;font-weight:normal;font-stretch:normal;font-size:12px;line-height:125%;font-family:'Vladimir Script';-inkscape-font-specification:'Vladimir Script';letter-spacing:0px;word-spacing:0px;fill:#000000;fill-opacity:1;stroke:none"
             id="text3026" />
        </g>
        <g
           style="font-style:normal;font-variant:normal;font-weight:normal;font-stretch:normal;font-size:12px;line-height:125%;font-family:'Vladimir Script';-inkscape-font-specification:'Vladimir Script';letter-spacing:0px;word-spacing:0px;fill:#000000;fill-opacity:1;stroke:none"
           id="text3030">
          <path
             d="m 183.61923,430.42413 c -2e-5,1.81972 -0.47593,3.37343 -1.42773,4.66114 -0.92385,1.28781 -2.2816,1.93169 -4.07324,1.93164 -1.11981,5e-5 -2.36558,-0.16792 -3.73731,-0.50391 -1.34376,-0.33588 -2.01564,-0.88178 -2.01562,-1.63769 -2e-5,-1.37169 0.4269,-2.68045 1.28076,-3.92627 0.85382,-1.24571 1.88263,-2.26052 3.08642,-3.04444 0.95181,-0.55983 1.58169,-0.83978 1.88965,-0.83984 1.59568,6e-5 2.82745,0.21702 3.69531,0.65088 0.86782,0.43398 1.30174,1.33681 1.30176,2.70849 z m 27.50488,34.13965 c 0.028,0.58792 -0.231,1.38577 -0.77685,2.39356 -0.54595,1.00783 -1.28781,2.14862 -2.22559,3.42236 -0.93787,1.27378 -2.02967,2.63853 -3.27539,4.09424 -1.24581,1.45574 -2.55457,2.91147 -3.92627,4.36719 -1.56775,1.67969 -3.22644,3.29639 -4.97607,4.85009 -1.74971,1.55372 -3.61836,3.05844 -5.60596,4.51416 -3.9193,2.91146 -7.41864,4.36719 -10.49804,4.36719 -3.38739,0 -6.0189,-1.13379 -7.89454,-3.40137 -1.87566,-2.29556 -3.14942,-5.06705 -3.82129,-8.31445 -0.67188,-3.21939 -1.00782,-6.53677 -1.00781,-9.95215 -1e-5,-1.42771 0.16796,-3.65329 0.50391,-6.67676 0.16796,-1.51169 0.33593,-2.81344 0.5039,-3.90527 0.16796,-1.09176 0.34993,-1.9736 0.5459,-2.64551 0.39192,-1.31572 1.21777,-2.4635 2.47754,-3.44336 1.28775,-1.03576 2.6315,-1.55367 4.03125,-1.55371 0.75584,4e-5 1.13377,0.71391 1.13379,2.1416 -2e-5,0.95186 -0.091,2.02966 -0.27295,3.2334 -0.18198,1.20381 -0.37095,2.39359 -0.56689,3.56934 -0.36395,2.21162 -0.6299,4.19224 -0.79785,5.94189 -0.16799,1.7497 -0.25197,3.26842 -0.25196,4.55616 -1e-5,2.82749 0.39191,5.68295 1.17578,8.5664 0.78384,2.93946 2.19758,4.40919 4.24122,4.40918 2.07159,10e-6 4.47914,-0.75585 7.22265,-2.26758 1.37172,-0.78384 2.74346,-1.65168 4.11524,-2.60351 1.37171,-0.95181 2.74345,-2.01561 4.11523,-3.19141 1.3997,-1.17576 2.74345,-2.35854 4.03125,-3.54834 1.28772,-1.18976 2.54748,-2.41453 3.7793,-3.67431 1.23172,-1.25975 2.33752,-2.43553 3.31738,-3.52735 0.97977,-1.09177 1.83361,-2.09958 2.56152,-3.02344 0.028,-0.056 0.0769,-0.14694 0.14698,-0.27295 0.0699,-0.12594 0.14692,-0.25192 0.23095,-0.37792 0.0839,-0.12595 0.16792,-0.23093 0.25196,-0.31495 0.0839,-0.084 0.16791,-0.11195 0.25195,-0.084 0.39187,3e-5 0.68582,0.30797 0.88184,0.92383 0.2519,0.58792 0.37787,1.06383 0.37792,1.42773 z"
             style="font-size:86px;font-family:'Segoe Script';-inkscape-font-specification:'Segoe Script';fill:#ff0000"
             id="path3063"
             inkscape:connector-curvature="0" />
          <path
             d="m 248.49716,483.37628 c 0.67183,10e-6 1.09175,0.23097 1.25977,0.69287 0.16791,0.46192 0.27989,0.97283 0.33593,1.53272 0.0839,0.64388 -0.259,1.42774 -1.0288,2.35156 -0.76991,0.92383 -1.77072,1.81966 -3.00245,2.6875 -1.23181,0.86784 -2.60356,1.6097 -4.11523,2.22559 -1.51176,0.61588 -2.96749,0.92382 -4.36719,0.92382 -0.33597,0 -0.93086,-0.077 -1.78466,-0.23095 -0.85388,-0.15398 -1.8407,-0.33594 -2.96045,-0.5459 -1.11983,-0.20996 -2.30961,-0.44792 -3.56934,-0.71387 -1.2598,-0.26595 -2.48457,-0.5039 -3.67432,-0.71387 -1.1898,-0.20996 -2.2746,-0.39192 -3.25439,-0.54589 -0.97984,-0.15397 -1.7357,-0.23096 -2.26758,-0.23096 -1.37176,0 -2.50555,0.13298 -3.40137,0.39892 -0.89585,0.26596 -1.70769,0.60889 -2.43554,1.02881 -0.67189,0.36393 -1.26678,0.74186 -1.78467,1.13379 -0.51792,0.39193 -1.02882,0.74886 -1.53272,1.0708 -0.50391,0.32194 -1.02182,0.58789 -1.55371,0.79785 -0.53191,0.20996 -1.1338,0.31494 -1.80566,0.31495 -0.36394,-10e-6 -0.68588,-0.11199 -0.96582,-0.33594 -0.27996,-0.22396 -0.52491,-0.51091 -0.73486,-0.86084 -0.20997,-0.34994 -0.38494,-0.74186 -0.52491,-1.17578 -0.13998,-0.43392 -0.23796,-0.86084 -0.29394,-1.28076 1.5397,-1.84766 3.09341,-3.54834 4.66113,-5.10205 1.5677,-1.55371 3.1354,-3.08642 4.70313,-4.59815 1.56769,-1.51171 3.12839,-3.05142 4.68212,-4.61914 1.55369,-1.56769 3.1144,-3.27537 4.68213,-5.12305 1.87563,-2.21156 3.54831,-4.29717 5.01807,-6.25683 1.46969,-1.95961 2.72246,-3.86325 3.7583,-5.71094 -0.58792,-0.27992 -1.19681,-0.39889 -1.82666,-0.35693 -0.62991,0.042 -1.39277,0.10501 -2.28857,0.18896 -0.78389,0.084 -1.44176,0.14001 -1.97364,0.16797 -0.53192,0.028 -1.05683,0.056 -1.5747,0.084 -0.51793,0.028 -1.07083,0.07 -1.6587,0.12598 -0.58791,0.056 -1.31577,0.14001 -2.18359,0.25195 -0.97984,0.14001 -1.84068,0.24499 -2.58252,0.31495 -0.74188,0.07 -1.37876,0.10501 -1.91064,0.10498 -6.13087,3e-5 -9.1963,-1.60967 -9.19629,-4.82911 -1e-5,-0.89579 0.32193,-1.63066 0.96582,-2.20459 0.64387,-0.57385 1.41372,-0.8608 2.30957,-0.86084 0.25194,4e-5 0.53889,0.035 0.86084,0.10498 0.32193,0.07 0.65786,0.15401 1.00781,0.25196 0.34992,0.098 0.67886,0.203 0.98682,0.31494 0.30792,0.11202 0.55988,0.196 0.75586,0.25195 1.42771,0.39197 2.93943,0.58793 4.53515,0.58789 1.45571,4e-5 2.99542,-0.0909 4.61914,-0.27295 1.62368,-0.18193 3.27537,-0.37789 4.95508,-0.58789 1.67966,-0.20992 3.37334,-0.40588 5.08106,-0.58789 1.70764,-0.18193 3.35933,-0.27291 4.95507,-0.27295 0.44788,4e-5 0.93079,0.049 1.44874,0.14698 0.51786,0.098 1.00077,0.25899 1.44873,0.48291 0.44787,0.22399 0.8258,0.51794 1.13378,0.88183 0.3079,0.36397 0.46187,0.81189 0.46192,1.34375 l 0,0.16797 c -0.81189,1.53975 -1.59575,2.90449 -2.35156,4.09424 -0.7559,1.18981 -1.54676,2.33759 -2.37256,3.44336 -0.82589,1.10582 -1.70772,2.21861 -2.64551,3.33838 -0.93786,1.11981 -1.98067,2.37958 -3.12842,3.77929 -0.92386,1.14781 -2.00866,2.37958 -3.25439,3.69532 -1.2458,1.31577 -2.47057,2.63152 -3.67432,3.94726 -1.2038,1.31577 -2.2886,2.56854 -3.25439,3.7583 -0.96585,1.18979 -1.63072,2.2186 -1.99463,3.08643 0.028,0.056 0.25193,0.098 0.67187,0.12598 0.4199,0.028 0.88182,0.042 1.38574,0.042 0.50389,0 0.9938,0 1.46973,0 0.47589,0 0.78383,0 0.92383,0 0.83982,0 1.80564,0.07 2.89746,0.20996 1.09177,0.13998 2.29554,0.30095 3.61133,0.48291 1.31572,0.18197 2.73645,0.34294 4.26221,0.48291 1.52567,0.13998 3.14237,0.20996 4.85009,0.20996 0.92379,0 1.81262,-0.18896 2.66651,-0.56689 0.85379,-0.37793 1.63765,-0.79085 2.35156,-1.23877 0.71382,-0.44791 1.3507,-0.86084 1.91064,-1.23877 0.55985,-0.37793 0.99377,-0.56689 1.30176,-0.5669 z"
             style="font-size:86px;font-family:'Segoe Script';-inkscape-font-specification:'Segoe Script';fill:#ff0000"
             id="path3065"
             inkscape:connector-curvature="0" />
          <path
             d="m 309.0499,462.92609 c -6e-5,0.41995 -0.308,1.16181 -0.92383,2.22558 -1.45579,2.09964 -3.08648,4.19924 -4.89209,6.29883 -1.80572,2.09963 -3.72336,4.09426 -5.75293,5.98389 -2.02967,1.88966 -4.14327,3.65333 -6.34082,5.29101 -2.19763,1.63771 -4.41622,3.05144 -6.65576,4.24121 -2.23962,1.18979 -4.4722,2.10661 -6.69776,2.75049 -2.22561,0.64388 -4.37421,0.95183 -6.4458,0.92383 -4.47918,0 -7.95753,-1.30176 -10.43506,-3.90527 -2.47754,-2.60351 -3.71631,-6.53678 -3.71631,-11.79981 0,-4.39516 0.67887,-8.66436 2.03663,-12.80762 1.35773,-4.14319 3.6743,-8.13244 6.9497,-11.96777 0.61587,-0.67183 1.30874,-1.31571 2.07862,-1.93164 0.76983,-0.61584 1.58168,-1.16174 2.43554,-1.63769 0.85382,-0.47587 1.73566,-0.8538 2.64551,-1.13379 0.90981,-0.2799 1.82664,-0.44787 2.75049,-0.50391 0.22393,5e-5 0.53187,0.028 0.92383,0.084 0.3919,0.056 0.81182,0.15402 1.25976,0.29395 0.44789,0.14002 0.88181,0.31499 1.30176,0.5249 0.41989,0.21001 0.75583,0.46896 1.00781,0.77686 0.78383,0.89588 1.40671,1.8197 1.86866,2.77148 0.46188,0.95187 0.72083,2.00167 0.77685,3.14942 0.056,1.28779 -0.091,2.55456 -0.44092,3.80029 -0.34996,1.2458 -0.93785,2.51956 -1.76367,3.82129 -0.82587,1.30179 -1.91067,2.64554 -3.25439,4.03125 -1.34378,1.38577 -2.96748,2.87649 -4.8711,4.47217 -1.20379,1.00783 -2.54054,2.12062 -4.01025,3.33838 -1.46974,1.21779 -3.24041,2.49855 -5.31201,3.84228 -2e-5,2.71551 0.81883,4.78012 2.45654,6.19385 1.63768,1.41374 3.88426,2.12061 6.73975,2.1206 1.59568,10e-6 3.20537,-0.20995 4.8291,-0.62988 1.62367,-0.41991 3.21937,-0.97281 4.78711,-1.65869 1.56767,-0.68586 3.08639,-1.46972 4.55615,-2.35156 1.46969,-0.88183 2.84843,-1.78466 4.13623,-2.7085 2.37951,-1.73566 4.53511,-3.46434 6.4668,-5.18603 1.93159,-1.72166 3.84923,-3.53432 5.75293,-5.43799 l 2.26757,-2.26758 c 1.37169,-1.20375 2.36551,-1.80564 2.98145,-1.80567 0.33588,3e-5 0.50385,0.26598 0.50391,0.79786 z m -32.08204,-8.35645 c -0.028,-0.41988 -0.091,-0.83281 -0.18896,-1.23877 -0.098,-0.40588 -0.24498,-0.76282 -0.44092,-1.0708 -0.19599,-0.3079 -0.41995,-0.55286 -0.67187,-0.73486 -0.25198,-0.18193 -0.54593,-0.27291 -0.88184,-0.27295 -1.48375,0.084 -2.96747,0.98685 -4.45117,2.70849 -1.48374,1.72172 -2.88348,3.99629 -4.19922,6.82373 -0.30796,0.61592 -0.58091,1.30879 -0.81885,2.07862 -0.23797,0.76988 -0.46193,1.55374 -0.67187,2.35156 -0.20998,0.79788 -0.39194,1.58873 -0.5459,2.37256 -0.15399,0.78388 -0.28696,1.48375 -0.39893,2.09961 1.45572,-1.09177 2.79947,-2.09959 4.03125,-3.02344 1.23176,-0.9238 2.37954,-1.87562 3.44336,-2.85547 0.67186,-0.61585 1.35773,-1.28073 2.05762,-1.99463 0.69985,-0.71383 1.33673,-1.46269 1.91064,-2.24658 0.57387,-0.78382 1.02879,-1.59567 1.36475,-2.43555 0.33591,-0.8398 0.48988,-1.69364 0.46191,-2.56152 z"
             style="font-size:86px;font-family:'Segoe Script';-inkscape-font-specification:'Segoe Script';fill:#ff0000"
             id="path3067"
             inkscape:connector-curvature="0" />
          <path
             d="m 343.18954,458.013 c -4e-5,0.168 -0.014,0.41296 -0.042,0.73486 -0.028,0.32198 -0.098,0.64392 -0.20996,0.96582 -0.11202,0.32198 -0.245,0.60892 -0.39892,0.86084 -0.15402,0.25199 -0.35698,0.37796 -0.60889,0.37793 -0.16802,3e-5 -0.44796,-0.007 -0.83984,-0.021 -0.39198,-0.014 -0.8049,-0.035 -1.23877,-0.063 -0.43397,-0.028 -0.84689,-0.049 -1.23877,-0.063 -0.39197,-0.014 -0.67192,-0.021 -0.83985,-0.021 -5.34704,0.33597 -9.79821,2.29561 -13.35351,5.87891 -3.49938,3.49937 -6.52281,8.1745 -9.07032,14.02539 -0.47593,1.20379 -0.94484,2.44955 -1.40673,3.73731 -0.46194,1.28776 -0.90285,2.64551 -1.32276,4.07324 -0.22397,0.78386 -0.38494,1.47673 -0.48291,2.07861 -0.098,0.60189 -0.25897,1.23877 -0.48291,1.91065 -0.056,0.22395 -0.29396,0.44091 -0.71387,0.65088 -0.41993,0.20995 -0.88884,0.39892 -1.40673,0.56689 -0.51792,0.16797 -1.01483,0.30794 -1.49073,0.41992 -0.47592,0.11198 -0.79786,0.16797 -0.96582,0.16797 -1.93165,0.11198 -3.02344,-1.88965 -3.27539,-6.00488 -0.084,-1.11979 -0.11898,-2.1346 -0.10498,-3.04444 0.014,-0.90982 0.049,-1.79165 0.10498,-2.6455 0.056,-0.85383 0.13297,-1.74967 0.23096,-2.6875 0.098,-0.93782 0.20295,-1.99462 0.31494,-3.17041 0.13997,-1.45572 0.30794,-3.1354 0.50391,-5.03907 0.19595,-1.90362 0.41991,-3.82126 0.67187,-5.75293 0.25195,-1.93161 0.5179,-3.77226 0.79785,-5.52197 0.27994,-1.74964 0.57389,-3.19837 0.88184,-4.34619 0.30793,-1.31572 0.73485,-2.29553 1.28076,-2.93945 0.54589,-0.64384 1.35074,-0.99378 2.41455,-1.04981 0.27994,4e-5 0.58088,0.077 0.90283,0.23096 0.32193,0.15401 0.61587,0.35697 0.88184,0.60889 0.26593,0.25199 0.48989,0.51794 0.67188,0.79785 0.18194,0.27998 0.28692,0.53194 0.31494,0.75586 0.028,0.6999 0.014,1.46276 -0.042,2.28857 -0.056,0.82588 -0.15398,1.67972 -0.29394,2.56152 -0.13999,0.88187 -0.30796,1.77071 -0.50391,2.66651 -0.19598,0.89586 -0.39194,1.7497 -0.58789,2.56152 -0.39194,1.59573 -0.69288,2.96048 -0.90283,4.09424 -0.20998,1.13381 -0.38494,2.23261 -0.5249,3.29639 -0.13999,1.06382 -0.27996,2.2046 -0.41992,3.42236 -0.13999,1.21779 -0.32196,2.72251 -0.5459,4.51416 0.47589,-1.06379 0.88882,-1.97362 1.23877,-2.72949 0.34992,-0.75585 0.66486,-1.42072 0.94482,-1.99463 0.27993,-0.57388 0.53888,-1.08478 0.77686,-1.53272 0.23794,-0.44789 0.49689,-0.91681 0.77685,-1.40673 0.27993,-0.48989 0.58787,-1.02879 0.92383,-1.6167 0.33592,-0.58787 0.75584,-1.30174 1.25977,-2.1416 1.95961,-3.24737 4.05922,-5.89988 6.29882,-7.95752 2.23956,-2.05759 4.39516,-3.53431 6.4668,-4.43018 2.35153,-1.11975 4.28317,-1.72164 5.79492,-1.80566 0.72783,-0.028 1.59567,0.014 2.60352,0.12597 1.00777,0.11202 1.97359,0.32198 2.89746,0.62989 0.92378,0.30797 1.71463,0.7069 2.37256,1.19677 0.65783,0.48995 0.98677,1.08484 0.98681,1.78467 z"
             style="font-size:86px;font-family:'Segoe Script';-inkscape-font-specification:'Segoe Script';fill:#ff0000"
             id="path3069"
             inkscape:connector-curvature="0" />
        </g>
      </g>
    </g>
    <text
       sodipodi:linespacing="125%"
       id="text3026-8"
       y="-234.11868"
       x="216.83488"
       style="font-style:normal;font-variant:normal;font-weight:normal;font-stretch:normal;font-size:12px;line-height:125%;font-family:'Vladimir Script';-inkscape-font-specification:'Vladimir Script';letter-spacing:0px;word-spacing:0px;fill:#000000;fill-opacity:1;stroke:none"
       xml:space="preserve"><tspan
         y="-234.11868"
         x="216.83488"
         id="tspan3028-6"
         sodipodi:role="line" /></text>
  </g>
</svg>
