<?xml version="1.0" standalone="no"?>
<!DOCTYPE svg PUBLIC "-//W3C//DTD SVG 20010904//EN"
 "http://www.w3.org/TR/2001/REC-SVG-20010904/DTD/svg10.dtd">
<svg version="1.0" xmlns="http://www.w3.org/2000/svg"
 width="180.000000pt" height="180.000000pt" viewBox="0 0 180.000000 180.000000"
 preserveAspectRatio="xMidYMid meet">
<metadata>
Created by potrace 1.15, written by Peter Selinger 2001-2017
</metadata>
<g transform="translate(0.000000,180.000000) scale(0.100000,-0.100000)"
fill="#000000" stroke="none">
<path d="M725 1533 c-122 -25 -279 -69 -304 -84 -23 -14 -31 -26 -31 -48 0
-59 27 -62 191 -18 252 68 431 51 518 -49 39 -44 51 -90 51 -194 l0 -86 -102
18 c-129 22 -337 23 -433 3 -144 -31 -272 -121 -325 -230 -28 -58 -38 -167
-21 -231 15 -58 67 -131 120 -170 69 -51 154 -74 270 -74 161 0 295 45 429
145 l62 45 0 -75 0 -75 148 0 c162 0 172 3 172 55 0 48 -14 55 -117 55 l-93 0
0 383 c0 355 -2 385 -20 424 -42 93 -150 177 -261 202 -43 10 -214 13 -254 4z
m220 -563 c55 -5 124 -15 153 -22 l53 -11 -3 -116 -3 -115 -68 -57 c-133 -112
-263 -162 -417 -162 -115 0 -182 24 -235 85 -85 100 -61 235 58 315 116 78
255 103 462 83z"/>
</g>
</svg>
