<?xml version="1.0" encoding="iso-8859-1"?>
<!-- Generator: Adobe Illustrator 16.0.0, SVG Export Plug-In . SVG Version: 6.00 Build 0)  -->
<!DOCTYPE svg  PUBLIC '-//W3C//DTD SVG 1.1//EN'  'http://www.w3.org/Graphics/SVG/1.1/DTD/svg11.dtd'>
<svg version="1.1" id="Capa_1" xmlns="http://www.w3.org/2000/svg" xmlns:xlink="http://www.w3.org/1999/xlink" x="0px" y="0px"
	 width="550.801px" height="550.801px" viewBox="0 0 550.801 550.801" style="enable-background:new 0 0 550.801 550.801;"
	 xml:space="preserve" fill="#fff">
<g>
	<path d="M488.426,197.019H475.2v-63.816c0-0.401-0.063-0.799-0.116-1.205c-0.021-2.534-0.827-5.023-2.562-6.992L366.325,3.691
		c-0.032-0.031-0.063-0.042-0.085-0.073c-0.633-0.707-1.371-1.298-2.151-1.804c-0.231-0.158-0.464-0.287-0.706-0.422
		c-0.676-0.366-1.393-0.675-2.131-0.896c-0.2-0.053-0.38-0.135-0.58-0.19C359.87,0.119,359.037,0,358.193,0H97.2
		c-11.918,0-21.6,9.693-21.6,21.601v175.413H62.377c-17.049,0-30.873,13.818-30.873,30.87v160.542
		c0,17.044,13.824,30.876,30.873,30.876h13.224V529.2c0,11.907,9.682,21.601,21.6,21.601h356.4c11.907,0,21.6-9.693,21.6-21.601
		V419.302h13.226c17.044,0,30.871-13.827,30.871-30.87V227.89C519.297,210.838,505.47,197.019,488.426,197.019z M97.2,21.605
		h250.193v110.51c0,5.967,4.841,10.8,10.8,10.8h95.407v54.108H97.2V21.605z M365.945,303.898c0,29.246-10.642,49.438-25.396,61.899
		c-16.095,13.389-40.585,19.743-70.53,19.743c-17.919,0-30.62-1.128-39.237-2.277v-150.13c12.701-2.036,29.247-3.175,46.709-3.175
		c29.033,0,47.859,5.216,62.593,16.329C355.979,258.077,365.945,276.898,365.945,303.898z M61.12,308.654
		c0-45.81,29.257-80.066,74.395-80.066c46.941,0,72.57,35.158,72.57,77.346c0,50.119-30.396,80.504-75.07,80.504
		C87.666,386.438,61.12,352.203,61.12,308.654z M453.601,523.353H97.2V419.302h356.4V523.353z M488.205,260.123h-41.724v123.836
		h-34.699V260.123h-41.054v-29.025h117.471v29.025H488.205z"/>
	<path d="M171.563,307.062c0-27.433-13.154-51.026-36.967-51.026c-23.351,0-36.969,22.233-36.969,51.933
		c0,29.943,14.062,51.026,37.202,51.026C158.195,359.006,171.563,336.772,171.563,307.062z"/>
	<path d="M281.117,256.495c-7.702,0-12.704,0.686-15.642,1.36v100.011c2.943,0.696,7.713,0.696,12.026,0.696
		c31.301,0.222,51.698-17.022,51.698-53.536C329.432,273.278,310.838,256.495,281.117,256.495z"/>
</g>
<g>
</g>
<g>
</g>
<g>
</g>
<g>
</g>
<g>
</g>
<g>
</g>
<g>
</g>
<g>
</g>
<g>
</g>
<g>
</g>
<g>
</g>
<g>
</g>
<g>
</g>
<g>
</g>
<g>
</g>
</svg>
