<?xml version="1.0"?>
<svg xmlns="http://www.w3.org/2000/svg" xmlns:xlink="http://www.w3.org/1999/xlink" version="1.1" id="Capa_1" x="0px" y="0px" viewBox="0 0 512 512" style="enable-background:new 0 0 512 512;" xml:space="preserve" width="512px" height="512px" class=""><g><g>
	<g>
		<path d="M473.655,472c0.489-0.558,0.979-1.119,1.469-1.682c29.271-33.63,35.27-47.636,35.27-58.318c0-27.57-22.43-50-50-50    h-50.711v40h50.711c4.882,0,9.082,3.715,9.868,8.413c-1.443,3.033-7.162,13.087-27.903,36.604    c-13.666,15.493-26.78,28.802-26.911,28.934l-5.766,5.843V512h102v-40H473.655z" data-original="#000000" class="active-path" data-old_color="#000000" fill="#FFFFFF"/>
	</g>
</g><g>
	<g>
		<polygon points="367.047,0 316.176,0 183.683,168.628 51.19,0 0.319,0 158.248,201 0.319,402 51.19,402 183.683,233.372     316.176,402 367.047,402 209.118,201   " data-original="#000000" class="active-path" data-old_color="#000000" fill="#FFFFFF"/>
	</g>
</g></g> </svg>
