<?xml version="1.0" encoding="UTF-8" standalone="no"?>
<!-- Created with Inkscape (http://www.inkscape.org/) -->

<svg
   xmlns:dc="http://purl.org/dc/elements/1.1/"
   xmlns:cc="http://creativecommons.org/ns#"
   xmlns:rdf="http://www.w3.org/1999/02/22-rdf-syntax-ns#"
   xmlns:svg="http://www.w3.org/2000/svg"
   xmlns="http://www.w3.org/2000/svg"
   version="1.0"
   width="55"
   height="55"
   id="svg2">
  <metadata
     id="metadata12">
    <rdf:RDF>
      <cc:Work
         rdf:about="">
        <dc:format>image/svg+xml</dc:format>
        <dc:type
           rdf:resource="http://purl.org/dc/dcmitype/StillImage" />
        <dc:title></dc:title>
      </cc:Work>
    </rdf:RDF>
  </metadata>
  <defs
     id="defs4" />
  <rect
     width="55"
     height="55"
     rx="0"
     x="0"
     y="0"
     id="rect2839"
     style="fill:#ffd200;fill-opacity:1;fill-rule:evenodd;stroke:none" />
  <g
     id="g3788">
    <path
       d="m 15.719636,31.331478 0.114372,5.261133 11.437247,6.290486 L 27.5,29.387146"
       id="path2463"
       style="fill:#ffff00;fill-opacity:1;fill-rule:evenodd;stroke:#804000;stroke-width:1.5;stroke-linecap:butt;stroke-linejoin:round;stroke-miterlimit:4;stroke-opacity:1;stroke-dasharray:none" />
    <path
       d="m 27.728744,29.501519 0.05719,13.381578 11.723178,-7.548583 0,-4.689272 -5.947368,3.545548"
       id="path2465"
       style="fill:#ffff00;fill-opacity:1;fill-rule:evenodd;stroke:#804000;stroke-width:1.5;stroke-linecap:butt;stroke-linejoin:round;stroke-miterlimit:4;stroke-opacity:1;stroke-dasharray:none" />
    <path
       d="m 10.001012,27.328441 5.604251,-5.146761 -5.832996,-2.973684 12.123482,-7.091093 5.718623,3.316801 5.489879,-3.088056 12.123482,7.319838 -5.832996,2.401822 5.489878,5.032388 -11.322874,7.205466 -5.947369,-5.261134 -6.290485,5.261134 -11.322875,-6.976721 z"
       id="path2459"
       style="fill:#ffff00;fill-opacity:1;fill-rule:evenodd;stroke:#804000;stroke-width:1.5;stroke-linecap:butt;stroke-linejoin:miter;stroke-miterlimit:4;stroke-opacity:1;stroke-dasharray:none" />
    <path
       d="M 16.40587,21.952935 27.156883,15.204959 38.937247,22.067308 27.614372,28.815283 16.40587,21.952935 z"
       id="path2461"
       style="fill:#ffff00;fill-opacity:1;fill-rule:evenodd;stroke:#804000;stroke-width:1.5;stroke-linecap:butt;stroke-linejoin:miter;stroke-miterlimit:4;stroke-opacity:1;stroke-dasharray:none" />
  </g>
</svg>
