<?xml version="1.0" encoding="UTF-8" standalone="no"?>
<!-- Created with Inkscape (http://www.inkscape.org/) -->

<svg
   xmlns:dc="http://purl.org/dc/elements/1.1/"
   xmlns:cc="http://creativecommons.org/ns#"
   xmlns:rdf="http://www.w3.org/1999/02/22-rdf-syntax-ns#"
   xmlns:svg="http://www.w3.org/2000/svg"
   xmlns="http://www.w3.org/2000/svg"
   xmlns:sodipodi="http://sodipodi.sourceforge.net/DTD/sodipodi-0.dtd"
   xmlns:inkscape="http://www.inkscape.org/namespaces/inkscape"
   version="1.1"
   width="55"
   height="55"
   viewBox="0 0 55 55"
   id="svg2"
   xml:space="preserve"
   inkscape:version="0.48.1 r9760"
   sodipodi:docname="filesaveoff.svg"><sodipodi:namedview
     pagecolor="#ffffff"
     bordercolor="#666666"
     borderopacity="1"
     objecttolerance="10"
     gridtolerance="10"
     guidetolerance="10"
     inkscape:pageopacity="0"
     inkscape:pageshadow="2"
     inkscape:window-width="1280"
     inkscape:window-height="725"
     id="namedview37"
     showgrid="false"
     inkscape:zoom="4.7090909"
     inkscape:cx="-11.254826"
     inkscape:cy="27.5"
     inkscape:window-x="0"
     inkscape:window-y="25"
     inkscape:window-maximized="1"
     inkscape:current-layer="svg2" /><metadata
     id="metadata25"><rdf:RDF><cc:Work
         rdf:about=""><dc:format>image/svg+xml</dc:format><dc:type
           rdf:resource="http://purl.org/dc/dcmitype/StillImage" /><dc:title></dc:title></cc:Work></rdf:RDF></metadata><defs
     id="defs33">
	
	
	

  
  

  
   
   
   
   

	

		
		
		
		
		
		
		
		
		
	</defs><path
     inkscape:connector-curvature="0"
     style="fill:none;stroke:#ffffff;stroke-width:2.08759975;stroke-miterlimit:4;stroke-opacity:1;stroke-dasharray:none"
     id="path11"
     d="m 15.046106,34.391188 c -0.384814,0 -0.764757,-0.02436 -1.139133,-0.06959 l 0.965862,1.634591 0.951946,-1.60954 c -0.258167,0.02088 -0.515637,0.04454 -0.778675,0.04454 z" /><g
     style="fill:none;stroke:#ffffff;stroke-width:3;stroke-miterlimit:4;stroke-opacity:1;stroke-dasharray:none"
     id="g13"
     transform="matrix(0.69586655,0,0,0.69586655,-4.0881364,0.79544654)">
    <path
   inkscape:connector-curvature="0"
   style="fill:none;stroke:#ffffff;stroke-width:3;stroke-miterlimit:4;stroke-opacity:1;stroke-dasharray:none"
   id="path15"
   d="m 40.16,11.726 c -2.164,0 -3.958,1.555 -4.343,3.607 1.859,1.345 3.457,3.115 4.675,5.208 2.285,-0.172 4.094,-2.061 4.094,-4.39 0,-2.444 -1.982,-4.425 -4.426,-4.425 z" />
    <path
   inkscape:connector-curvature="0"
   style="fill:none;stroke:#ffffff;stroke-width:3;stroke-miterlimit:4;stroke-opacity:1;stroke-dasharray:none"
   id="path17"
   d="m 40.713,39.887 c -1.224,2.232 -2.86,4.131 -4.797,5.556 0.521,1.864 2.213,3.239 4.244,3.239 2.443,0 4.426,-1.98 4.426,-4.424 0,-2.255 -1.693,-4.096 -3.873,-4.371 z" />
    <path
   inkscape:connector-curvature="0"
   style="fill:none;stroke:#ffffff;stroke-width:3;stroke-miterlimit:4;stroke-opacity:1;stroke-dasharray:none"
   id="path19"
   d="m 14.273,39.871 c -2.253,0.206 -4.024,2.079 -4.024,4.387 0,2.443 1.98,4.424 4.424,4.424 2.064,0 3.784,-1.42 4.272,-3.332 -1.883,-1.416 -3.475,-3.289 -4.672,-5.479 z" />
    <path
   inkscape:connector-curvature="0"
   style="fill:none;stroke:#ffffff;stroke-width:3;stroke-miterlimit:4;stroke-opacity:1;stroke-dasharray:none"
   id="path21"
   d="m 19.026,15.437 c -0.343,-2.103 -2.154,-3.711 -4.353,-3.711 -2.444,0 -4.424,1.981 -4.424,4.424 0,2.382 1.886,4.31 4.245,4.406 1.186,-2.043 2.732,-3.784 4.532,-5.119 z" />
   </g><path
     inkscape:connector-curvature="0"
     style="fill:none;stroke:#ffffff;stroke-width:2.08759975;stroke-miterlimit:4;stroke-opacity:1;stroke-dasharray:none"
     id="path23"
     d="m 15.046106,9.537618 c 1.327714,0 2.594191,0.2860012 3.770205,0.784937 0.515637,-0.7487519 0.819731,-1.6540743 0.819731,-2.6324627 0,-2.5656599 -2.079945,-4.6463009 -4.646301,-4.6463009 -2.56566,0 -4.645605,2.080641 -4.645605,4.6463009 0,0.9936975 0.314531,1.9129372 0.846174,2.6679527 1.199674,-0.5212044 2.496073,-0.820427 3.855796,-0.820427 z" /><g
     style="fill:none;stroke:#ffffff;stroke-width:3;stroke-miterlimit:4;stroke-opacity:1;stroke-dasharray:none"
     id="g25"
     transform="matrix(0.69586655,0,0,0.69586655,-4.0881364,0.79544654)">
    <path
   inkscape:connector-curvature="0"
   style="fill:none;stroke:#ffffff;stroke-width:3;stroke-miterlimit:4;stroke-opacity:1;stroke-dasharray:none"
   id="path2988"
   d="m 43.102,30.421 c 0,4.7344 -1.6452,9.2798 -4.5706,12.6275 -2.9254,3.3478 -6.8973,5.2305 -11.0344,5.2305 -4.1371,0 -8.109,-1.8827 -11.0344,-5.2305 -2.9254,-3.3477 -4.5706,-7.8931 -4.5706,-12.6275 0,-9.7966 7.0444,-17.858 15.605,-17.858 8.5606,0 15.605,8.0614 15.605,17.858 z" />
   </g><g
     style="fill:#ffffff;stroke:none;stroke-width:1.50000000000000000;stroke-miterlimit:4;stroke-opacity:1;stroke-dasharray:none;fill-opacity:1"
     id="g28"
     transform="matrix(0.69586655,0,0,0.69586655,-4.0881364,0.79544654)">
    <path
   inkscape:connector-curvature="0"
   style="fill:#ffffff;stroke:none;stroke-width:1.50000000000000000;stroke-miterlimit:4;stroke-opacity:1;stroke-dasharray:none;fill-opacity:1"
   id="path30"
   d="m 25.875,33.75 -1.542,-4.625 3.164,-2.587 3.615,2.626 -1.487,4.669 -3.75,-0.083 z" />
    <path
   inkscape:connector-curvature="0"
   style="fill:#ffffff;stroke:none;stroke-width:1.50000000000000000;stroke-miterlimit:4;stroke-opacity:1;stroke-dasharray:none;fill-opacity:1"
   id="path32"
   d="m 27.501,41.551 c -3.968,-0.16 -5.543,-2.009 -5.543,-2.009 l 3.57,-4.163 4.465,0.168 3.132,4.12 c 0,0 -2.89,1.994 -5.624,1.884 z" />
    <path
   inkscape:connector-curvature="0"
   style="fill:#ffffff;stroke:none;stroke-width:1.50000000000000000;stroke-miterlimit:4;stroke-opacity:1;stroke-dasharray:none;fill-opacity:1"
   id="path34"
   d="m 18.453,33.843 c -0.849,-2.968 0.172,-6.884 0.172,-6.884 l 4,2.167 1.493,4.629 -3.582,4.233 c 0,-10e-4 -1.465,-1.99 -2.083,-4.145 z" />
    <path
   inkscape:connector-curvature="0"
   style="fill:#ffffff;stroke:none;stroke-width:1.50000000000000000;stroke-miterlimit:4;stroke-opacity:1;stroke-dasharray:none;fill-opacity:1"
   id="path2998"
   d="m 19.458,25.125 c 0,0 0.5,-1.958 3.039,-3.822 2.237,-1.643 4.465,-1.72 4.465,-1.72 l -0.037,4.981 -3.521,2.75 -3.946,-2.189 z" />
    <path
   inkscape:connector-curvature="0"
   style="fill:#ffffff;stroke:none;stroke-width:1.50000000000000000;stroke-miterlimit:4;stroke-opacity:1;stroke-dasharray:none;fill-opacity:1"
   id="path37"
   d="M 32.084,27.834 28.625,24.959 29,19.75 c 0,0 1.834,-0.042 3.959,1.667 2.228,1.791 3.362,4.983 3.362,4.983 l -4.237,1.434 z" />
    <path
   inkscape:connector-curvature="0"
   style="fill:#ffffff;stroke:none;stroke-width:1.50000000000000000;stroke-miterlimit:4;stroke-opacity:1;stroke-dasharray:none;fill-opacity:1"
   id="path3002"
   d="m 31.292,34.042 1.313,-4.464 4.187,-1.536 c 0,0 0.677,2.663 -0.042,5.667 -0.54,2.256 -2.084,4.361 -2.084,4.361 l -3.374,-4.028 z" />
   </g><g
     id="g3830"><g
       id="g4382"
       transform="matrix(0.55205508,0,0,0.55205508,75.618464,18.235971)"><g
         style="fill:none;stroke:#ffffff;stroke-opacity:1"
         id="g4308"
         transform="translate(-80.093659,12.220029)">
			<g
   style="fill:none;stroke:#ffffff;stroke-opacity:1"
   id="g4310">
				<path
   inkscape:connector-curvature="0"
   style="fill:none;stroke:#ffffff;stroke-width:3.5;stroke-linecap:round;stroke-linejoin:round;stroke-opacity:1"
   id="path4312"
   d="m 6.736,49.002 h 24.52 c 2.225,0 3.439,-1.447 3.439,-3.441 v -27.28 c 0,-1.73 -1.732,-3.441 -3.439,-3.441 h -4.389" />
			</g>
		</g><g
         style="fill:none;stroke:#ffffff;stroke-opacity:1"
         id="g4314"
         transform="translate(-80.093659,12.220029)">
			<g
   style="fill:none;stroke:#ffffff;stroke-opacity:1"
   id="g4316">
				<path
   inkscape:connector-curvature="0"
   style="fill:none;stroke:#ffffff;stroke-width:3.5;stroke-linecap:round;stroke-linejoin:round;stroke-opacity:1"
   id="path4318"
   d="m 26.867,38.592 c 0,1.836 -1.345,3.201 -3.441,4.047 L 6.736,49.002 V 14.84 l 16.69,-8.599 c 2.228,-0.394 3.441,0.84 3.441,2.834 v 29.517 z" />
			</g>
		</g><path
         inkscape:connector-curvature="0"
         style="fill:none;stroke:#ffffff;stroke-width:2.25;stroke-linecap:round;stroke-linejoin:round;stroke-opacity:1"
         id="path4320"
         d="m -70.669659,54.827029 c 0,0 -1.351,-0.543 -2.702,-0.543 -1.351,0 -2.703,0.543 -2.703,0.543" /><path
         inkscape:connector-curvature="0"
         style="fill:none;stroke:#ffffff;stroke-width:2.25;stroke-linecap:round;stroke-linejoin:round;stroke-opacity:1"
         id="path4322"
         d="m -70.669659,44.226029 c 0,0 -1.239,-0.543 -2.815,-0.543 -1.577,0 -2.59,0.543 -2.59,0.543" /><path
         inkscape:connector-curvature="0"
         style="fill:none;stroke:#ffffff;stroke-width:2.25;stroke-linecap:round;stroke-linejoin:round;stroke-opacity:1"
         id="path4324"
         d="m -70.669659,33.898029 c 0,0 -1.125,-0.544 -2.927,-0.544 -1.802,0 -2.478,0.544 -2.478,0.544" /><line
         id="line4326"
         y2="23.725029"
         y1="58.753029"
         x2="-66.884659"
         x1="-66.884659"
         style="fill:none;stroke:#ffffff;stroke-width:2.25;stroke-linecap:round;stroke-linejoin:round;stroke-opacity:1" /></g><g
       id="g4770"
       transform="matrix(1,0,0,-1,-30.386573,49.171266)"><g
         id="g4772"
         transform="translate(34.0803,-1006.42)"><polyline
           id="polyline4774"
           points="51.562,15.306 41.17,16.188 42.053,5.794"
           style="fill:none;stroke:#ffffff;stroke-width:3.5;stroke-linecap:round;stroke-linejoin:round"
           transform="matrix(-0.469241,0.469241,-0.469241,-0.469241,66.2906,1019.03)" /><path
           inkscape:connector-curvature="0"
           style="fill:none;stroke:#ffffff;stroke-width:2.5;stroke-linecap:round;stroke-linejoin:round;stroke-miterlimit:4;stroke-opacity:1;stroke-dasharray:none"
           id="path4776"
           d="m 39.363241,1033.1291 -0.05636,9.9115 -8.750608,0.067" /></g></g></g></svg>