<?xml version="1.0" encoding="UTF-8" standalone="no"?>
<!-- Created with Inkscape (http://www.inkscape.org/) -->

<svg
   xmlns:dc="http://purl.org/dc/elements/1.1/"
   xmlns:cc="http://creativecommons.org/ns#"
   xmlns:rdf="http://www.w3.org/1999/02/22-rdf-syntax-ns#"
   xmlns:svg="http://www.w3.org/2000/svg"
   xmlns="http://www.w3.org/2000/svg"
   version="1.0"
   width="55"
   height="55"
   viewBox="0 0 55 55"
   id="svg2">
  <metadata
     id="metadata11">
    <rdf:RDF>
      <cc:Work
         rdf:about="">
        <dc:format>image/svg+xml</dc:format>
        <dc:type
           rdf:resource="http://purl.org/dc/dcmitype/StillImage" />
        <dc:title></dc:title>
      </cc:Work>
    </rdf:RDF>
  </metadata>
  <defs
     id="defs9">
	
</defs>
  <path
     d="m 50,27.625 c 0,12.3431 -10.1569,22.5 -22.5,22.5 C 15.1569,50.125 5,39.9681 5,27.625 5,15.2819 15.1569,5.125 27.5,5.125 c 12.3431,0 22.5,10.1569 22.5,22.5 z"
     id="path3"
     style="fill:#ffffff" />
  <path
     d="m 23.956,27.167 c 0,-1.621 1.8,-1.89 3.645,-2.386 1.8,-0.495 3.6,-1.215 3.6,-3.825 0,-1.98 -1.845,-3.42 -3.734,-3.42 -3.78,0 -4.365,4.455 -7.246,4.455 -1.62,0 -2.745,-1.26 -2.745,-3.24 0,-4.726 5.94,-7.425 9.991,-7.425 5.806,0 10.756,3.6 10.756,9.631 0,4.995 -3.15,7.921 -7.785,9.091 l 0,1.619 c 0,1.801 -1.351,3.105 -3.241,3.105 -2.025,0 -3.24,-1.305 -3.24,-3.105 l 0,-4.5 -0.001,0 z m -0.27,13.77 c 0,-1.935 1.575,-3.51 3.51,-3.51 1.936,0 3.51,1.575 3.51,3.51 0,1.936 -1.574,3.512 -3.51,3.512 -1.935,-10e-4 -3.51,-1.577 -3.51,-3.512 z"
     id="path5"
     style="fill:#282828;stroke:#282828;stroke-width:0.25;stroke-miterlimit:4" />
  <g
     transform="matrix(0.90000005,0,0,0.90000005,1.5999984,5.2999976)"
     id="g3850">
    <rect
       width="12"
       height="12"
       x="40"
       y="37"
       id="rect3848"
       style="fill:#ffffff;fill-opacity:1;stroke:none" />
    <path
       d="M 45.999999,33 C 40.475555,33 36,37.478222 36,42.998666 36,48.524 40.475555,53 45.999999,53 c 5.524889,0 10,-4.476 10,-10.001334 0,-5.520444 -4.475555,-9.998666 -10,-9.998666 z m 4.532889,12.515111 c 0.557334,0.558222 0.558667,1.462666 0,2.02 -0.279111,0.279555 -0.644889,0.419111 -1.010666,0.419111 -0.365334,0 -0.730667,-0.139556 -1.008889,-0.417778 l -2.56,-2.560444 -2.56,2.560444 c -0.278667,0.278222 -0.644,0.417778 -1.009334,0.417778 -0.365777,0 -0.732,-0.139556 -1.011111,-0.419111 -0.557333,-0.557334 -0.557333,-1.461778 0.0018,-2.02 L 43.933777,42.956 41.374666,40.396889 c -0.559111,-0.557334 -0.559111,-1.463112 -0.0018,-2.020445 0.557778,-0.557333 1.463111,-0.559555 2.020445,0 l 2.56,2.559556 2.56,-2.559556 c 0.556444,-0.559555 1.461333,-0.557333 2.019555,0 0.558667,0.557333 0.557334,1.463111 0,2.020445 l -2.559111,2.559111 2.559111,2.559111 z"
       id="path3067"
       style="fill:#282828;fill-opacity:1;display:inline" />
  </g>
</svg>
