<?xml version="1.0" encoding="UTF-8" standalone="no"?>
<!-- Created with Inkscape (http://www.inkscape.org/) -->

<svg
   xmlns:svg="http://www.w3.org/2000/svg"
   xmlns="http://www.w3.org/2000/svg"
   xmlns:xlink="http://www.w3.org/1999/xlink"
   version="1.0"
   width="55"
   height="55"
   id="svg2">
  <defs
     id="defs5">
    <linearGradient
       id="linearGradient3689">
      <stop
         id="stop3691"
         style="stop-color:#ffffff;stop-opacity:1"
         offset="0" />
      <stop
         id="stop3693"
         style="stop-color:#ffff00;stop-opacity:1"
         offset="1" />
    </linearGradient>
    <linearGradient
       x1="0"
       y1="19"
       x2="54"
       y2="19"
       id="linearGradient3695"
       xlink:href="#linearGradient3689"
       gradientUnits="userSpaceOnUse"
       gradientTransform="translate(0.5,8.5)" />
  </defs>
  <path
     d="m 1.5,25.5 0,-8 a 8,8 0 0 1 8,-8 l 8,0 0,4 20,0 0,-4 8,0 a 8,8 0 0 1 8,8 l 0,8 0,8 a 8,8 0 0 1 -8,8 l -8,0 -2,0 0,4 -16,0 0,-4 -2,0 -8,0 a 8,8 0 0 1 -8,-8 l 0,-8 z"
     id="path2882"
     style="fill:url(#linearGradient3695);fill-opacity:1;stroke:#a08000;stroke-width:2;stroke-linecap:square;stroke-opacity:1" />
</svg>
