<?xml version="1.0" encoding="UTF-8" standalone="no"?>
<!-- Created with Inkscape (http://www.inkscape.org/) -->

<svg
   xmlns:svg="http://www.w3.org/2000/svg"
   xmlns="http://www.w3.org/2000/svg"
   version="1.0"
   width="55"
   height="55"
   id="svg2">
  <defs
     id="defs5" />
  <rect
     width="55"
     height="55"
     rx="0"
     x="0"
     y="0"
     id="rect2839"
     style="fill:#ffd200;fill-opacity:1;fill-rule:evenodd;stroke:none" />
  <g
     transform="translate(5.2499995,-0.75000033)"
     id="g2824">
    <g
       transform="translate(-31.525379,-20.795051)"
       id="g2431">
      <path
         d="M 37.427664,63.254986 c 1.43401,0.788706 5.23977,1.402428 7.528553,1.290609 1.626167,-0.07945 3.914929,-0.479849 5.234137,-1.43401 2.238123,-1.618798 3.032695,-5.829627 5.090736,-7.671954 1.225701,-1.097229 3.231844,-2.444635 4.875634,-2.509518 2.003851,-0.07909 4.468168,1.514349 6.166244,2.581219 1.290216,0.810619 3.800127,3.369923 3.800127,3.369923"
         id="path2471"
         style="fill:none;stroke:#0080ff;stroke-width:3;stroke-linecap:round;stroke-opacity:1;stroke-dasharray:none" />
      <path
         d="M 39.220176,61.820976 l 1.147208,-4.660533 1.935914,0.358503 1.218909,1.075507 0.286802,2.079315 -4.588833,1.147208 z"
         id="path3245"
         style="fill:#e0e0e0;fill-opacity:1;stroke:#e0e0e0;stroke-width:1px;stroke-opacity:1" />
      <path
         d="M 37.786166,63.039885 c 1.720812,-1.864213 1.864213,-1.720812 1.864213,-1.720812"
         id="path3243"
         style="fill:none;stroke:#0060ff;stroke-width:2;stroke-linecap:round;stroke-opacity:1;stroke-dasharray:none" />
      <path
         d="M 40.869288,56.443439 59.224617,38.374911 60.658628,39.73722 42.6618,57.303845 40.869288,56.443439 z"
         id="path3247"
         style="fill:#a0a0ff;fill-opacity:1;stroke:#a0a0ff;stroke-width:1px;stroke-opacity:1" />
      <path
         d="M 44.095811,58.307652 61.949237,41.09953 63.383248,42.461839 44.454312,60.530368 44.095811,58.307652 z"
         id="path3249"
         style="fill:#8080ff;fill-opacity:1;stroke:#8080ff;stroke-width:1px;stroke-opacity:1" />
      <path
         d="M 42.231598,57.232144 l 1.649111,1.649111 18.28363,-17.781726 -1.505711,-1.792512 -18.42703,17.925127 z"
         id="path3251"
         style="fill:#c4c4ff;fill-opacity:1;stroke:#c4c4ff;stroke-width:1px;stroke-opacity:1" />
      <path
         d="M 61.841686,34.897436 l 2.437818,-2.366117 1.200984,0.84248 1.416085,1.200984 0.985882,1.272684 0.914181,1.487786 -2.366117,2.509519 -0.896257,-1.505711 -2.186866,-2.366117 -1.50571,-1.075508 z"
         id="path3255"
         style="fill:#e0a040;fill-opacity:1;stroke:#e0a040;stroke-width:1px;stroke-opacity:1" />
      <path
         d="M 59.152917,37.657905 l 2.294417,-2.079315 1.200984,0.84248 1.416085,1.200984 0.985882,1.272684 0.914181,1.487786 -2.079315,1.864214 -0.967957,-1.147208 -2.330267,-2.222716 -1.43401,-1.218909 z"
         id="path3253"
         style="fill:#e0e0e0;fill-opacity:1;stroke:#c4c4c4;stroke-width:1px;stroke-opacity:1" />
    </g>
  </g>
</svg>
