<?xml version="1.0" encoding="UTF-8" standalone="no"?>
<!-- Created with Inkscape (http://www.inkscape.org/) -->

<svg
   xmlns:dc="http://purl.org/dc/elements/1.1/"
   xmlns:cc="http://creativecommons.org/ns#"
   xmlns:rdf="http://www.w3.org/1999/02/22-rdf-syntax-ns#"
   xmlns:svg="http://www.w3.org/2000/svg"
   xmlns="http://www.w3.org/2000/svg"
   version="1.0"
   width="45"
   height="45"
   id="svg2"><metadata
   id="metadata11">
  <rdf:RDF>
    <cc:Work
       rdf:about="">
      <dc:format>image/svg+xml</dc:format>
      <dc:type
         rdf:resource="http://purl.org/dc/dcmitype/StillImage" />
      <dc:title></dc:title>
    </cc:Work>
  </rdf:RDF>
</metadata>
<defs
   id="defs5" />

`  <g
   transform="matrix(1.1250001,0,0,1.1250001,-2.8125005,-2.812502)"
   id="g3287">
  <path
     d="m 37.158177,18.217157 c 0,7.129359 -4.73972,12.908847 -10.586461,12.908847 -5.846741,0 -10.586461,-5.779488 -10.586461,-12.908847 0,-7.129359 4.73972,-12.908847 10.586461,-12.908847 5.846741,0 10.586461,5.779488 10.586461,12.908847 l 0,0 z"
     transform="matrix(0.9002849,0,0,0.6378505,-7.1526774,12.961276)"
     id="path3173"
     style="fill:#ffffff;fill-opacity:1;stroke:none" />
  <path
     d="m 37.158177,18.217157 c 0,7.129359 -4.73972,12.908847 -10.586461,12.908847 -5.846741,0 -10.586461,-5.779488 -10.586461,-12.908847 0,-7.129359 4.73972,-12.908847 10.586461,-12.908847 5.846741,0 10.586461,5.779488 10.586461,12.908847 l 0,0 z"
     transform="matrix(0.34904,-0.8298699,0.4328947,0.1820738,8.5363479,48.352162)"
     id="path3177"
     style="fill:#ffffff;fill-opacity:1;stroke:none" />
  <path
     d="m 37.158177,18.217157 c 0,7.129359 -4.73972,12.908847 -10.586461,12.908847 -5.846741,0 -10.586461,-5.779488 -10.586461,-12.908847 0,-7.129359 4.73972,-12.908847 10.586461,-12.908847 5.846741,0 10.586461,5.779488 10.586461,12.908847 l 0,0 z"
     transform="matrix(0.5612942,0.3544048,-0.1085241,0.1718767,9.8942224,-2.0522731)"
     id="path3179"
     style="fill:#ffffff;fill-opacity:1;stroke:none" />
  <path
     d="m 9.2958401,27.300367 c 0,0 0.6438297,-3.994201 1.6400319,-5.238518 0.833257,-1.040794 2.516695,-1.85759 3.762426,-2.031262 0.9968,-0.138967 2.383402,0.2462 3.280063,0.74836 1.042545,0.583861 2.271254,1.791474 2.894173,2.88653 0.98159,1.725581 1.256974,4.552031 1.736504,6.52142 0.380364,1.562127 0.284039,3.94213 1.157669,5.238518 0.721744,1.071004 2.287173,2.00041 3.473008,2.245082 1.78687,0.368683 4.166897,-1.188245 5.981292,-1.069088 0.84132,0.05525 2.27015,0.05272 2.701229,0.85527 0.272959,0.50817 -0.01689,1.497122 -0.38589,1.924349 -1.388344,1.60742 -4.484134,1.551863 -6.463654,1.924357 -1.54502,0.290727 -3.77056,1.115533 -5.209513,0.427635 -2.191386,-1.047611 -3.11186,-5.248556 -5.016567,-6.842148 C 18.494794,34.59652 17.932313,34.319138 17.495998,34.249421 16.284393,34.055824 14.659189,34.94909 13.444155,34.783964 12.553171,34.662876 11.3895,34.166119 10.646456,33.607971 9.4764934,32.729136 8.0161145,31.200596 7.4628632,29.759263 6.9180297,28.339853 7.0795774,26.166629 7.1734442,24.627654 c 0.04976,-0.815832 0.186147,-1.923803 0.4823635,-2.672713 0.4740893,-1.198617 1.3821263,-2.725983 2.3153404,-3.527981 1.3038139,-1.120492 3.4728879,-2.04627 5.1130389,-2.245079 1.631802,-0.197799 3.828032,0.447353 5.402457,0.962176 1.516337,0.49583 3.246091,2.236482 4.823622,2.351988 0.932208,0.06826 2.407938,-0.152939 2.990646,-0.962177 0.30741,-0.426916 0.343158,-1.344606 0.09647,-1.817445 -0.550654,-1.055475 -2.224944,-1.472146 -3.280064,-1.817445 -1.00539,-0.329024 -2.45155,-0.166363 -3.473007,-0.427634 -0.838456,-0.214462 -1.933408,-0.638591 -2.701229,-1.069086 -1.24629,-0.698755 -2.959159,-1.702648 -3.858898,-2.886529 -0.817776,-1.0760346 -2.317397,-3.0254485 -1.736505,-4.2763406 0.06753,-0.1454133 0.336585,-0.081478 0.482363,-0.1069088 0.748264,-0.1305312 2.147702,0.4174844 2.508284,-0.3207253 0.338874,-0.6937639 -1.483172,-1.7166452 -1.061197,-2.351988 0.851763,-1.2824449 3.329342,0.4862662 4.72715,0.8552682 1.121926,0.2961731 2.62592,0.7305046 3.665953,1.2829032 1.693816,0.8996449 3.826771,2.4399257 5.209512,3.8487057 1.197868,1.2204256 1.98772,3.7643616 3.376536,4.7039756 0.62978,0.426082 1.725087,0.235405 2.411811,0.534543 0.411153,0.179097 0.884057,0.587915 1.254142,0.855267 0.854101,0.61701 2.099953,1.314356 2.797701,2.13817 0.577461,0.681796 0,0.106909 1.447086,2.672714 1.447087,2.565804 1.501279,0.32572 1.832977,2.245079 0,0 -0.32328,1.512069 -0.675307,2.031262 -0.41031,0.605152 -1.195498,1.224871 -1.832977,1.496719 -0.271455,0.11576 -0.68249,0.18483 -0.964724,0.106908 -0.405023,-0.111822 -0.753667,-0.738998 -1.157669,-0.855267 -0.70255,-0.202189 -1.686925,0.255337 -2.411811,0.213817 -0.793655,-0.04546 -1.927833,-0.07316 -2.604757,-0.534543 -0.650834,-0.443601 -1.191753,-1.493431 -1.543559,-2.245079 -0.26551,-0.567275 -0.0089,-2.128616 -0.578834,-2.031262 -0.0286,0.0049 0,0.106909 0,0.106909 m 2.604756,4.383249 c 0,0 -0.67407,3.00661 -0.964725,4.294669 -0.259371,1.14942 -0.38119,2.775651 -0.868252,3.830379 -0.654999,1.418394 -3.087119,4.062526 -3.087119,4.062526 m -0.578834,-7.37669 c 0,0 -0.762223,2.02329 -1.254142,2.779621 -0.526506,0.80951 -1.777805,1.430082 -2.122394,2.351988 -0.01108,0.02963 0,0.106908 0,0.106908 m -3.858898,1.710538 c 0,0 -2.498343,0.09087 -3.56948,0.106905 -0.694537,0.01041 -1.848045,-0.569505 -2.31534,0 -0.410734,0.500573 -0.129138,1.670316 0.192948,2.245079 0.377101,0.672936 1.341866,1.159966 2.025922,1.389809 0.803679,0.270031 1.960108,0.174507 2.797698,0.106913 0.968172,-0.07813 3.18359,-0.641452 3.18359,-0.641452 M 7.3663896,23.237843 c 0,0 -2.1337626,-2.804738 -3.2800638,-2.458896 -0.6495254,0.195963 -0.8281117,1.514613 -0.9647234,2.245079 -0.1645596,0.879906 -0.1889559,2.152344 0.096474,2.993439 0.3548095,1.045538 1.2844064,2.265735 2.1223913,2.88653 0.5024007,0.372186 1.3315344,0.544203 1.9294505,0.641451 0.028634,0.0047 0.096471,0 0.096471,0 M 29.651526,14.04371 c 0,0 -3.058348,-4.1388306 -4.72715,-5.4523336 C 23.678488,7.6107444 21.770009,6.6768097 20.293698,6.2393884 19.086245,5.8816272 16.145385,5.8117543 16.145385,5.8117543 M 35.343402,20.030587 c 0.276872,0.284129 1.079502,0.263788 1.254141,-0.106908 0.264175,-0.56075 -0.52371,-1.415829 -0.964724,-1.817446 -0.473808,-0.431478 -1.46214,-1.188454 -1.929449,-0.748359 -0.380706,0.358535 -0.198367,1.697687 0.289416,1.817445 0.344916,0.08468 0.327116,-1.002886 0.675308,-1.069086 0.245381,-0.04665 0.561385,0.289224 0.675308,0.534543 0.172161,0.370733 -0.276058,1.106519 0,1.389811 z m -0.09647,-0.106908 c 0,0 0,0 0,0 z"
     id="path2384"
     style="fill:#ffffff;fill-opacity:1;fill-rule:evenodd;stroke:#000000;stroke-width:1px;stroke-linecap:butt;stroke-linejoin:miter;stroke-opacity:1" />
</g>
</svg>
