<?xml version="1.0" encoding="UTF-8" standalone="no"?>
<!-- Created with Inkscape (http://www.inkscape.org/) -->

<svg
   xmlns:dc="http://purl.org/dc/elements/1.1/"
   xmlns:cc="http://creativecommons.org/ns#"
   xmlns:rdf="http://www.w3.org/1999/02/22-rdf-syntax-ns#"
   xmlns:svg="http://www.w3.org/2000/svg"
   xmlns="http://www.w3.org/2000/svg"
   version="1.1"
   width="55.125"
   height="55"
   viewBox="0 0 55.125 55"
   id="svg4477"
   xml:space="preserve"><metadata
     id="metadata4486"><rdf:RDF><cc:Work
         rdf:about=""><dc:format>image/svg+xml</dc:format><dc:type
           rdf:resource="http://purl.org/dc/dcmitype/StillImage" /><dc:title></dc:title></cc:Work></rdf:RDF></metadata><defs
     id="defs4484">
	

		
		
		
		
		
		
			
		
	
			
				
			
		</defs><g
     transform="matrix(1.08,0,0,1.08,-4.2400002,-0.1600003)"
     id="g3795"><rect
       width="22.558769"
       height="22.827097"
       x="-25.913549"
       y="29.086451"
       transform="matrix(0,-1,1,0,0,0)"
       id="rect4-6"
       style="fill:none;stroke:#ffffff;stroke-width:2.17290282;stroke-linejoin:round;stroke-miterlimit:1.60000002;stroke-opacity:1;stroke-dasharray:none" /><line
       y1="10.795544"
       y2="10.795544"
       x1="51.220909"
       x2="29.109716"
       style="fill:#aaaaaa;stroke:#ffffff;stroke-width:1.5152458;stroke-miterlimit:1.60000002;stroke-opacity:1;stroke-dasharray:none"
       id="line10-4-3" /><line
       y1="25.304594"
       y2="3.6206589"
       x1="40.381969"
       x2="40.381969"
       style="fill:#ffffff;fill-opacity:1;stroke:#ffffff;stroke-width:1.55207336;stroke-miterlimit:1.60000002;stroke-opacity:1;stroke-dasharray:none"
       id="line10-8" /><path
       d="m 43.155894,15.304686 a 2.7739254,1.9070737 0 1 1 -5.54785,0 2.7739254,1.9070737 0 1 1 5.54785,0 z"
       id="path3633-56"
       style="fill:#ffffff;fill-opacity:1;fill-rule:nonzero;stroke:none" /><path
       d="m 43.155894,19.118904 a 2.7739254,1.9070737 0 1 1 -5.54785,0 2.7739254,1.9070737 0 1 1 5.54785,0 z"
       id="path3633-7-1"
       style="fill:#ffffff;fill-opacity:1;fill-rule:nonzero;stroke:none" /><path
       d="m 43.155894,22.93312 a 2.7739254,1.9070737 0 1 1 -5.54785,0 2.7739254,1.9070737 0 1 1 5.54785,0 z"
       id="path3633-5-15"
       style="fill:#ffffff;fill-opacity:1;fill-rule:nonzero;stroke:none" /><path
       d="m 43.155894,6.3639495 a 2.7739254,1.9070737 0 1 1 -5.54785,0 2.7739254,1.9070737 0 1 1 5.54785,0 z"
       id="path3633-4-98"
       style="fill:#ffffff;fill-opacity:1;fill-rule:nonzero;stroke:none" /><line
       y1="25.304594"
       y2="3.6206589"
       x1="46.919453"
       x2="46.919453"
       style="fill:#ffffff;fill-opacity:1;stroke:#ffffff;stroke-width:1.55207336;stroke-miterlimit:1.60000002;stroke-opacity:1;stroke-dasharray:none"
       id="line10-2-4" /><path
       d="m 49.693373,15.304686 a 2.7739254,1.9070737 0 1 1 -5.54785,0 2.7739254,1.9070737 0 1 1 5.54785,0 z"
       id="path3633-47-8"
       style="fill:#ffffff;fill-opacity:1;fill-rule:nonzero;stroke:none" /><path
       d="m 49.693373,19.118904 a 2.7739254,1.9070737 0 1 1 -5.54785,0 2.7739254,1.9070737 0 1 1 5.54785,0 z"
       id="path3633-7-4-1"
       style="fill:#ffffff;fill-opacity:1;fill-rule:nonzero;stroke:none" /><path
       d="m 49.693373,22.93312 a 2.7739254,1.9070737 0 1 1 -5.54785,0 2.7739254,1.9070737 0 1 1 5.54785,0 z"
       id="path3633-5-4-0"
       style="fill:#ffffff;fill-opacity:1;fill-rule:nonzero;stroke:none" /><path
       d="m 49.693373,6.3639495 a 2.7739254,1.9070737 0 1 1 -5.54785,0 2.7739254,1.9070737 0 1 1 5.54785,0 z"
       id="path3633-4-0-3"
       style="fill:#ffffff;fill-opacity:1;fill-rule:nonzero;stroke:none" /><line
       y1="25.304594"
       y2="3.6206589"
       x1="33.844486"
       x2="33.844486"
       style="fill:#ffffff;fill-opacity:1;stroke:#ffffff;stroke-width:1.55207336;stroke-miterlimit:1.60000002;stroke-opacity:1;stroke-dasharray:none"
       id="line10-68-0" /><path
       d="m 36.618415,15.304686 a 2.7739254,1.9070737 0 1 1 -5.547849,0 2.7739254,1.9070737 0 1 1 5.547849,0 z"
       id="path3633-2-4"
       style="fill:#ffffff;fill-opacity:1;fill-rule:nonzero;stroke:none" /><path
       d="m 36.618415,19.118904 a 2.7739254,1.9070737 0 1 1 -5.547849,0 2.7739254,1.9070737 0 1 1 5.547849,0 z"
       id="path3633-7-6-4"
       style="fill:#ffffff;fill-opacity:1;fill-rule:nonzero;stroke:none" /><path
       d="m 36.618415,22.93312 a 2.7739254,1.9070737 0 1 1 -5.547849,0 2.7739254,1.9070737 0 1 1 5.547849,0 z"
       id="path3633-5-6-4"
       style="fill:#ffffff;fill-opacity:1;fill-rule:nonzero;stroke:none" /><path
       d="m 36.618415,6.3639495 a 2.7739254,1.9070737 0 1 1 -5.547849,0 2.7739254,1.9070737 0 1 1 5.547849,0 z"
       id="path3633-4-5-4"
       style="fill:#ffffff;fill-opacity:1;fill-rule:nonzero;stroke:none" /></g><g
     transform="translate(-0.2743801,0.51351)"
     id="g3036"><path
       d="M 9.5689397,38.952218 9.3902171,32.897964 M 25.663656,50.969805 3.6345541,51.23649 3.5243801,39.2454 l 5.851406,-6.358972 21.2578909,0 -0.110174,12.124478 z M 3.6345541,39.378743 l 21.4782339,0.266685 0.33052,10.924347 m -0.306426,-11.052011 5.531132,-6.638311"
       id="path3806"
       style="fill:none;stroke:#ffffff;stroke-width:2.5;stroke-linecap:butt;stroke-linejoin:miter;stroke-miterlimit:4;stroke-opacity:1;stroke-dasharray:none;stroke-dashoffset:0" /><g
       transform="matrix(0,-1,-1,0,47.3087,85.9835)"
       id="g4770"><g
         transform="translate(34.0803,-1006.42)"
         id="g4772"><polyline
           id="polyline4774"
           points="51.562,15.306 41.17,16.188 42.053,5.794"
           style="fill:none;stroke:#ffffff;stroke-width:3.5;stroke-linecap:round;stroke-linejoin:round"
           transform="matrix(-0.469241,0.469241,-0.469241,-0.469241,66.2906,1019.03)" /><path
           d="m 39.363241,1033.1291 -0.05636,9.9115 -8.750608,0.067"
           id="path4776"
           style="fill:none;stroke:#ffffff;stroke-width:2.5;stroke-linecap:round;stroke-linejoin:round;stroke-miterlimit:4;stroke-opacity:1;stroke-dasharray:none" /></g></g></g></svg>