<?xml version="1.0" encoding="UTF-8" standalone="no"?>
<!-- Created with Inkscape (http://www.inkscape.org/) -->

<svg
   xmlns:svg="http://www.w3.org/2000/svg"
   xmlns="http://www.w3.org/2000/svg"
   version="1.1"
   width="45"
   height="45"
   id="svg2">
  <defs
     id="defs41" />
  <rect
     width="10.439099"
     height="43"
     x="-41.738712"
     y="1"
     transform="matrix(0,-1,1,0,0,0)"
     id="rect4"
     style="fill:#ffffff;fill-opacity:1;stroke:#000000;stroke-width:2" />
  <line
     y1="39.500004"
     y2="30.433235"
     x1="22.5"
     x2="22.5"
     style="fill:#aaaaaa;stroke:#000000;stroke-width:2;stroke-miterlimit:0;stroke-dasharray:none"
     id="line10-68" />
  <path
     d="m 26.5,39.195828 a 4,1.8542272 0 1 1 -7.999999,0 4,1.8542272 0 1 1 7.999999,0 z"
     id="path3633-3-49"
     style="fill:#000000;fill-opacity:1;fill-rule:nonzero;stroke:none" />
  <line
     y1="39.500004"
     y2="30.433235"
     x1="9.724575"
     x2="9.724575"
     style="fill:#aaaaaa;stroke:#000000;stroke-width:2;stroke-miterlimit:0;stroke-dasharray:none"
     id="line10-68-3" />
  <path
     d="m 13.724576,39.195828 a 4,1.8542272 0 1 1 -7.9999992,0 4,1.8542272 0 1 1 7.9999992,0 z"
     id="path3633-3-49-7"
     style="fill:#000000;fill-opacity:1;fill-rule:nonzero;stroke:none" />
  <line
     y1="39.500004"
     y2="30.433235"
     x1="35.084743"
     x2="35.084743"
     style="fill:#aaaaaa;stroke:#000000;stroke-width:2;stroke-miterlimit:0;stroke-dasharray:none"
     id="line10-68-3-8" />
  <path
     d="m 39.084746,39.195828 a 4,1.8542272 0 1 1 -7.999999,0 4,1.8542272 0 1 1 7.999999,0 z"
     id="path3633-3-49-7-9"
     style="fill:#000000;fill-opacity:1;fill-rule:nonzero;stroke:none" />
</svg>
