<?xml version="1.0" encoding="UTF-8" standalone="no"?>
<!-- Created with Inkscape (http://www.inkscape.org/) -->

<svg
   xmlns:svg="http://www.w3.org/2000/svg"
   xmlns="http://www.w3.org/2000/svg"
   version="1.1"
   width="45"
   height="45"
   id="svg2">
  <defs
     id="defs41" />
  <rect
     width="37.959229"
     height="43"
     x="-41.479614"
     y="1"
     transform="matrix(0,-1,1,0,0,0)"
     id="rect4"
     style="fill:#ffffff;fill-opacity:1;stroke:#000000;stroke-width:2" />
  <line
     y1="40.67247"
     y2="4.327529"
     x1="6.7392497"
     x2="6.7392497"
     style="fill:#aaaaaa;stroke:#000000;stroke-width:2;stroke-miterlimit:0;stroke-dasharray:none"
     id="line10-68" />
  <line
     y1="40.67247"
     y2="4.327529"
     x1="17.187927"
     x2="17.187927"
     style="fill:#aaaaaa;stroke:#000000;stroke-width:2;stroke-miterlimit:0;stroke-dasharray:none"
     id="line10-68-3" />
  <line
     y1="40.67247"
     y2="4.327529"
     x1="27.636602"
     x2="27.636602"
     style="fill:#aaaaaa;stroke:#000000;stroke-width:2;stroke-miterlimit:0;stroke-dasharray:none"
     id="line10-68-0" />
  <line
     y1="40.67247"
     y2="4.327529"
     x1="38.085278"
     x2="38.085278"
     style="fill:#aaaaaa;stroke:#000000;stroke-width:2;stroke-miterlimit:0;stroke-dasharray:none"
     id="line10-68-6" />
  <path
     d="m 10.73935,29.116803 a 4,1.6488042 0 0 1 -8,0 4,1.6488042 0 1 1 8,0 z"
     id="path3633-2"
     style="fill:#000000;fill-opacity:1;fill-rule:nonzero;stroke:none" />
  <path
     d="m 10.73935,32.414511 a 4,1.6488042 0 0 1 -8,0 4,1.6488042 0 1 1 8,0 z"
     id="path3633-7-6"
     style="fill:#000000;fill-opacity:1;fill-rule:nonzero;stroke:none" />
  <path
     d="m 10.73935,35.71222 a 4,1.6488042 0 0 1 -8,0 4,1.6488042 0 1 1 8,0 z"
     id="path3633-5-6"
     style="fill:#000000;fill-opacity:1;fill-rule:nonzero;stroke:none" />
  <path
     d="m 10.73935,39.009928 a 4,1.6488042 0 0 1 -8,0 4,1.6488042 0 1 1 8,0 z"
     id="path3633-3-49"
     style="fill:#000000;fill-opacity:1;fill-rule:nonzero;stroke:none" />
  <path
     d="m 10.7394,15.925969 a 4,1.6488042 0 0 1 -8,0 4,1.6488042 0 1 1 8,0 z"
     id="path3633-2-7"
     style="fill:#000000;fill-opacity:1;fill-rule:nonzero;stroke:none" />
  <path
     d="m 10.73935,22.521386 a 4,1.6488042 0 0 1 -8,0 4,1.6488042 0 1 1 8,0 z"
     id="path3633-7-6-6"
     style="fill:#000000;fill-opacity:1;fill-rule:nonzero;stroke:none" />
  <path
     d="m 10.73935,25.819095 a 4,1.6488042 0 0 1 -8,0 4,1.6488042 0 1 1 8,0 z"
     id="path3633-3-49-6"
     style="fill:#000000;fill-opacity:1;fill-rule:nonzero;stroke:none" />
  <path
     d="m 21.188027,29.116877 a 4,1.6488042 0 0 1 -8,0 4,1.6488042 0 1 1 8,0 z"
     id="path3633-2-74"
     style="fill:#000000;fill-opacity:1;fill-rule:nonzero;stroke:none" />
  <path
     d="m 21.188027,32.414585 a 4,1.6488042 0 0 1 -8,0 4,1.6488042 0 1 1 8,0 z"
     id="path3633-7-6-5"
     style="fill:#000000;fill-opacity:1;fill-rule:nonzero;stroke:none" />
  <path
     d="m 21.188027,35.712293 a 4,1.6488042 0 0 1 -8,0 4,1.6488042 0 1 1 8,0 z"
     id="path3633-5-6-2"
     style="fill:#000000;fill-opacity:1;fill-rule:nonzero;stroke:none" />
  <path
     d="m 21.188027,39.010002 a 4,1.6488042 0 0 1 -8,0 4,1.6488042 0 1 1 8,0 z"
     id="path3633-3-49-5"
     style="fill:#000000;fill-opacity:1;fill-rule:nonzero;stroke:none" />
  <path
     d="m 21.188077,15.926043 a 4,1.6488042 0 0 1 -8,0 4,1.6488042 0 1 1 8,0 z"
     id="path3633-2-7-4"
     style="fill:#000000;fill-opacity:1;fill-rule:nonzero;stroke:none" />
  <path
     d="m 21.188027,22.52146 a 4,1.6488042 0 0 1 -8,0 4,1.6488042 0 1 1 8,0 z"
     id="path3633-7-6-6-7"
     style="fill:#000000;fill-opacity:1;fill-rule:nonzero;stroke:none" />
  <path
     d="m 21.188027,25.819168 a 4,1.6488042 0 0 1 -8,0 4,1.6488042 0 1 1 8,0 z"
     id="path3633-3-49-6-4"
     style="fill:#000000;fill-opacity:1;fill-rule:nonzero;stroke:none" />
  <path
     d="m 31.636703,29.116877 a 4,1.6488042 0 0 1 -8,0 4,1.6488042 0 1 1 8,0 z"
     id="path3633-2-78"
     style="fill:#000000;fill-opacity:1;fill-rule:nonzero;stroke:none" />
  <path
     d="m 31.636703,32.414585 a 4,1.6488042 0 0 1 -8,0 4,1.6488042 0 1 1 8,0 z"
     id="path3633-7-6-68"
     style="fill:#000000;fill-opacity:1;fill-rule:nonzero;stroke:none" />
  <path
     d="m 31.636703,35.712293 a 4,1.6488042 0 0 1 -8,0 4,1.6488042 0 1 1 8,0 z"
     id="path3633-5-6-8"
     style="fill:#000000;fill-opacity:1;fill-rule:nonzero;stroke:none" />
  <path
     d="m 31.636703,39.010002 a 4,1.6488042 0 0 1 -8,0 4,1.6488042 0 1 1 8,0 z"
     id="path3633-3-49-4"
     style="fill:#000000;fill-opacity:1;fill-rule:nonzero;stroke:none" />
  <path
     d="m 31.636753,15.926043 a 4,1.6488042 0 0 1 -8,0 4,1.6488042 0 1 1 8,0 z"
     id="path3633-2-7-3"
     style="fill:#000000;fill-opacity:1;fill-rule:nonzero;stroke:none" />
  <path
     d="m 31.636703,22.52146 a 4,1.6488042 0 0 1 -8,0 4,1.6488042 0 1 1 8,0 z"
     id="path3633-7-6-6-1"
     style="fill:#000000;fill-opacity:1;fill-rule:nonzero;stroke:none" />
  <path
     d="m 31.636703,25.819168 a 4,1.6488042 0 0 1 -8,0 4,1.6488042 0 1 1 8,0 z"
     id="path3633-3-49-6-49"
     style="fill:#000000;fill-opacity:1;fill-rule:nonzero;stroke:none" />
  <path
     d="m 42.085378,29.116877 a 4,1.6488042 0 0 1 -8,0 4,1.6488042 0 1 1 8,0 z"
     id="path3633-2-8"
     style="fill:#000000;fill-opacity:1;fill-rule:nonzero;stroke:none" />
  <path
     d="m 42.085378,32.414585 a 4,1.6488042 0 0 1 -8,0 4,1.6488042 0 1 1 8,0 z"
     id="path3633-7-6-9"
     style="fill:#000000;fill-opacity:1;fill-rule:nonzero;stroke:none" />
  <path
     d="m 42.085378,35.712293 a 4,1.6488042 0 0 1 -8,0 4,1.6488042 0 1 1 8,0 z"
     id="path3633-5-6-26"
     style="fill:#000000;fill-opacity:1;fill-rule:nonzero;stroke:none" />
  <path
     d="m 42.085378,39.010002 a 4,1.6488042 0 0 1 -8,0 4,1.6488042 0 1 1 8,0 z"
     id="path3633-3-49-64"
     style="fill:#000000;fill-opacity:1;fill-rule:nonzero;stroke:none" />
  <path
     d="m 42.085428,15.926043 a 4,1.6488042 0 0 1 -8,0 4,1.6488042 0 1 1 8,0 z"
     id="path3633-2-7-9"
     style="fill:#000000;fill-opacity:1;fill-rule:nonzero;stroke:none" />
  <path
     d="m 42.085378,22.52146 a 4,1.6488042 0 0 1 -8,0 4,1.6488042 0 1 1 8,0 z"
     id="path3633-7-6-6-5"
     style="fill:#000000;fill-opacity:1;fill-rule:nonzero;stroke:none" />
  <path
     d="m 42.085378,25.819168 a 4,1.6488042 0 0 1 -8,0 4,1.6488042 0 1 1 8,0 z"
     id="path3633-3-49-6-0"
     style="fill:#000000;fill-opacity:1;fill-rule:nonzero;stroke:none" />
  <path
     d="m 10.636408,19.223678 a 4.0000001,1.6488043 0 0 1 -8.0000003,0 4.0000001,1.6488043 0 1 1 8.0000003,0 z"
     id="path3633-7-6-6-2"
     style="fill:#000000;fill-opacity:1;fill-rule:nonzero;stroke:none" />
  <path
     d="m 21.085085,19.223751 a 4,1.6488042 0 0 1 -8,0 4,1.6488042 0 1 1 8,0 z"
     id="path3633-7-6-6-7-5"
     style="fill:#000000;fill-opacity:1;fill-rule:nonzero;stroke:none" />
  <path
     d="m 31.533761,19.223751 a 4,1.6488042 0 0 1 -8,0 4,1.6488042 0 1 1 8,0 z"
     id="path3633-7-6-6-1-4"
     style="fill:#000000;fill-opacity:1;fill-rule:nonzero;stroke:none" />
  <path
     d="m 41.982436,19.223751 a 4,1.6488042 0 0 1 -8,0 4,1.6488042 0 1 1 8,0 z"
     id="path3633-7-6-6-5-7"
     style="fill:#000000;fill-opacity:1;fill-rule:nonzero;stroke:none" />
  <path
     d="m 10.878583,9.3309204 a 4.0000002,1.6488043 0 0 1 -8.0000002,0 4.0000002,1.6488043 0 1 1 8.0000002,0 z"
     id="path3633-2-7-2"
     style="fill:#000000;fill-opacity:1;fill-rule:nonzero;stroke:none" />
  <path
     d="m 21.327259,9.3306262 a 4,1.6488042 0 0 1 -8,0 4,1.6488042 0 1 1 8,0 z"
     id="path3633-2-7-4-5"
     style="fill:#000000;fill-opacity:1;fill-rule:nonzero;stroke:none" />
  <path
     d="m 31.775935,9.3306262 a 4,1.6488042 0 0 1 -8,0 4,1.6488042 0 1 1 8,0 z"
     id="path3633-2-7-3-4"
     style="fill:#000000;fill-opacity:1;fill-rule:nonzero;stroke:none" />
  <path
     d="m 42.22461,9.3306262 a 4,1.6488042 0 0 1 -8,0 4,1.6488042 0 1 1 8,0 z"
     id="path3633-2-7-9-7"
     style="fill:#000000;fill-opacity:1;fill-rule:nonzero;stroke:none" />
  <path
     d="m 10.775691,12.628629 a 4.0000007,1.6488045 0 0 1 -8.0000012,0 4.0000007,1.6488045 0 1 1 8.0000012,0 z"
     id="path3633-7-6-6-2-4"
     style="fill:#000000;fill-opacity:1;fill-rule:nonzero;stroke:none" />
  <path
     d="m 21.224367,12.628335 a 4,1.6488042 0 0 1 -8,0 4,1.6488042 0 1 1 8,0 z"
     id="path3633-7-6-6-7-5-4"
     style="fill:#000000;fill-opacity:1;fill-rule:nonzero;stroke:none" />
  <path
     d="m 31.673043,12.628335 a 4,1.6488042 0 0 1 -8,0 4,1.6488042 0 1 1 8,0 z"
     id="path3633-7-6-6-1-4-3"
     style="fill:#000000;fill-opacity:1;fill-rule:nonzero;stroke:none" />
  <path
     d="m 42.121718,12.628335 a 4,1.6488042 0 0 1 -8,0 4,1.6488042 0 1 1 8,0 z"
     id="path3633-7-6-6-5-7-0"
     style="fill:#000000;fill-opacity:1;fill-rule:nonzero;stroke:none" />
</svg>
