<?xml version="1.0" encoding="UTF-8" standalone="no"?>
<!-- Created with Inkscape (http://www.inkscape.org/) -->

<svg
   xmlns:dc="http://purl.org/dc/elements/1.1/"
   xmlns:cc="http://creativecommons.org/ns#"
   xmlns:rdf="http://www.w3.org/1999/02/22-rdf-syntax-ns#"
   xmlns:svg="http://www.w3.org/2000/svg"
   xmlns="http://www.w3.org/2000/svg"
   xmlns:sodipodi="http://sodipodi.sourceforge.net/DTD/sodipodi-0.dtd"
   xmlns:inkscape="http://www.inkscape.org/namespaces/inkscape"
   version="1.1"
   width="45"
   height="45"
   id="svg2"
   inkscape:version="0.47 r22583"
   sodipodi:docname="nepohualtzintzin-off.svg">
  <metadata
     id="metadata3961">
    <rdf:RDF>
      <cc:Work
         rdf:about="">
        <dc:format>image/svg+xml</dc:format>
        <dc:type
           rdf:resource="http://purl.org/dc/dcmitype/StillImage" />
        <dc:title></dc:title>
      </cc:Work>
    </rdf:RDF>
  </metadata>
  <sodipodi:namedview
     pagecolor="#ffffff"
     bordercolor="#666666"
     borderopacity="1"
     objecttolerance="10"
     gridtolerance="10"
     guidetolerance="10"
     inkscape:pageopacity="0"
     inkscape:pageshadow="2"
     inkscape:window-width="1680"
     inkscape:window-height="979"
     id="namedview3959"
     showgrid="false"
     inkscape:zoom="18.168519"
     inkscape:cx="3.2743295"
     inkscape:cy="22.5"
     inkscape:window-x="0"
     inkscape:window-y="25"
     inkscape:window-maximized="1"
     inkscape:current-layer="svg2" />
  <defs
     id="defs41">
    <inkscape:perspective
       sodipodi:type="inkscape:persp3d"
       inkscape:vp_x="0 : 22.5 : 1"
       inkscape:vp_y="0 : 1000 : 0"
       inkscape:vp_z="45 : 22.5 : 1"
       inkscape:persp3d-origin="22.5 : 15 : 1"
       id="perspective3963" />
    <inkscape:perspective
       id="perspective3973"
       inkscape:persp3d-origin="0.5 : 0.33333333 : 1"
       inkscape:vp_z="1 : 0.5 : 1"
       inkscape:vp_y="0 : 1000 : 0"
       inkscape:vp_x="0 : 0.5 : 1"
       sodipodi:type="inkscape:persp3d" />
  </defs>
  <rect
     width="37.959229"
     height="43"
     x="-41.479614"
     y="1"
     transform="matrix(0,-1,1,0,0,0)"
     id="rect4"
     style="fill:#ffffff;stroke:#000000;stroke-width:2;fill-opacity:1" />
  <line
     y1="18.449986"
     y2="18.449986"
     x1="44.18692"
     x2="1.2540125"
     style="fill:#aaaaaa;stroke:#000000;stroke-width:2"
     id="line10-4" />
  <line
     y1="40.67247"
     y2="4.327529"
     x1="6.7392497"
     x2="6.7392497"
     style="fill:#aaaaaa;stroke:#000000;stroke-width:2;stroke-miterlimit:0;stroke-dasharray:none"
     id="line10-68" />
  <path
     d="m 10.73925,27.632694 a 4,1.8477082 0 0 1 -8,0 4,1.8477082 0 1 1 8,0 z"
     id="path3633-2"
     style="fill:#000000;fill-opacity:1;fill-rule:nonzero;stroke:none" />
  <path
     d="m 10.73925,31.328178 a 4,1.8477082 0 0 1 -8,0 4,1.8477082 0 1 1 8,0 z"
     id="path3633-7-6"
     style="fill:#000000;fill-opacity:1;fill-rule:nonzero;stroke:none" />
  <path
     d="m 10.73925,35.023662 a 4,1.8477082 0 0 1 -8,0 4,1.8477082 0 1 1 8,0 z"
     id="path3633-5-6"
     style="fill:#000000;fill-opacity:1;fill-rule:nonzero;stroke:none" />
  <path
     d="m 10.73925,38.719146 a 4,1.8477082 0 0 1 -8,0 4,1.8477082 0 1 1 8,0 z"
     id="path3633-3-49"
     style="fill:#000000;fill-opacity:1;fill-rule:nonzero;stroke:none" />
  <line
     y1="40.67247"
     y2="4.327529"
     x1="17.187927"
     x2="17.187927"
     style="fill:#aaaaaa;stroke:#000000;stroke-width:2;stroke-miterlimit:0;stroke-dasharray:none"
     id="line10-68-3" />
  <path
     d="m 21.187927,27.632694 a 4,1.8477082 0 0 1 -8,0 4,1.8477082 0 1 1 8,0 z"
     id="path3633-2-74"
     style="fill:#000000;fill-opacity:1;fill-rule:nonzero;stroke:none" />
  <path
     d="m 21.187927,31.328178 a 4,1.8477082 0 0 1 -8,0 4,1.8477082 0 1 1 8,0 z"
     id="path3633-7-6-5"
     style="fill:#000000;fill-opacity:1;fill-rule:nonzero;stroke:none" />
  <path
     d="m 21.187927,35.023662 a 4,1.8477082 0 0 1 -8,0 4,1.8477082 0 1 1 8,0 z"
     id="path3633-5-6-2"
     style="fill:#000000;fill-opacity:1;fill-rule:nonzero;stroke:none" />
  <path
     d="m 21.187927,38.719146 a 4,1.8477082 0 0 1 -8,0 4,1.8477082 0 1 1 8,0 z"
     id="path3633-3-49-5"
     style="fill:#000000;fill-opacity:1;fill-rule:nonzero;stroke:none" />
  <line
     y1="40.67247"
     y2="4.327529"
     x1="27.636602"
     x2="27.636602"
     style="fill:#aaaaaa;stroke:#000000;stroke-width:2;stroke-miterlimit:0;stroke-dasharray:none"
     id="line10-68-0" />
  <path
     d="m 31.636603,27.632694 a 4,1.8477082 0 0 1 -8,0 4,1.8477082 0 1 1 8,0 z"
     id="path3633-2-78"
     style="fill:#000000;fill-opacity:1;fill-rule:nonzero;stroke:none" />
  <path
     d="m 31.636603,31.328178 a 4,1.8477082 0 0 1 -8,0 4,1.8477082 0 1 1 8,0 z"
     id="path3633-7-6-68"
     style="fill:#000000;fill-opacity:1;fill-rule:nonzero;stroke:none" />
  <path
     d="m 31.636603,35.023662 a 4,1.8477082 0 0 1 -8,0 4,1.8477082 0 1 1 8,0 z"
     id="path3633-5-6-8"
     style="fill:#000000;fill-opacity:1;fill-rule:nonzero;stroke:none" />
  <path
     d="m 31.636603,38.719146 a 4,1.8477082 0 0 1 -8,0 4,1.8477082 0 1 1 8,0 z"
     id="path3633-3-49-4"
     style="fill:#000000;fill-opacity:1;fill-rule:nonzero;stroke:none" />
  <line
     y1="40.67247"
     y2="4.327529"
     x1="38.085278"
     x2="38.085278"
     style="fill:#aaaaaa;stroke:#000000;stroke-width:2;stroke-miterlimit:0;stroke-dasharray:none"
     id="line10-68-6" />
  <path
     d="m 42.085328,27.632694 a 4,1.8477082 0 0 1 -8,0 4,1.8477082 0 1 1 8,0 z"
     id="path3633-2-8"
     style="fill:#000000;fill-opacity:1;fill-rule:nonzero;stroke:none" />
  <path
     d="m 42.085278,31.328178 a 4,1.8477082 0 0 1 -8,0 4,1.8477082 0 1 1 8,0 z"
     id="path3633-7-6-9"
     style="fill:#000000;fill-opacity:1;fill-rule:nonzero;stroke:none" />
  <path
     d="m 42.085278,35.023662 a 4,1.8477082 0 0 1 -8,0 4,1.8477082 0 1 1 8,0 z"
     id="path3633-5-6-26"
     style="fill:#000000;fill-opacity:1;fill-rule:nonzero;stroke:none" />
  <path
     d="m 42.085278,38.719146 a 4,1.8477082 0 0 1 -8,0 4,1.8477082 0 1 1 8,0 z"
     id="path3633-3-49-64"
     style="fill:#000000;fill-opacity:1;fill-rule:nonzero;stroke:none" />
  <path
     style="fill:#000000;fill-opacity:1;fill-rule:nonzero;stroke:none"
     id="path3633-2-7"
     d="m 10.7393,5.9654796 a 4,1.7536831 0 0 1 -8,0 4,1.7536831 0 1 1 8,0 z" />
  <path
     style="fill:#000000;fill-opacity:1;fill-rule:nonzero;stroke:none"
     id="path3633-7-6-6"
     d="m 10.7393,9.4729351 a 4,1.7536831 0 0 1 -8,0 4,1.7536831 0 1 1 8,0 z" />
  <path
     style="fill:#000000;fill-opacity:1;fill-rule:nonzero;stroke:none"
     id="path3633-3-49-6"
     d="m 10.7393,12.980391 a 4,1.7536831 0 0 1 -8,0 4,1.7536831 0 1 1 8,0 z" />
  <path
     style="fill:#000000;fill-opacity:1;fill-rule:nonzero;stroke:none"
     id="path3633-2-7-4"
     d="m 21.187977,5.9654796 a 4,1.7536831 0 0 1 -8,0 4,1.7536831 0 1 1 8,0 z" />
  <path
     style="fill:#000000;fill-opacity:1;fill-rule:nonzero;stroke:none"
     id="path3633-7-6-6-7"
     d="m 21.187977,9.4729351 a 4,1.7536831 0 0 1 -8,0 4,1.7536831 0 1 1 8,0 z" />
  <path
     style="fill:#000000;fill-opacity:1;fill-rule:nonzero;stroke:none"
     id="path3633-3-49-6-4"
     d="m 21.187977,12.980391 a 4,1.7536831 0 0 1 -8,0 4,1.7536831 0 1 1 8,0 z" />
  <path
     style="fill:#000000;fill-opacity:1;fill-rule:nonzero;stroke:none"
     id="path3633-2-7-3"
     d="m 31.636653,5.9654796 a 4,1.7536831 0 0 1 -8,0 4,1.7536831 0 1 1 8,0 z" />
  <path
     style="fill:#000000;fill-opacity:1;fill-rule:nonzero;stroke:none"
     id="path3633-7-6-6-1"
     d="m 31.636653,9.4729351 a 4,1.7536831 0 0 1 -8,0 4,1.7536831 0 1 1 8,0 z" />
  <path
     style="fill:#000000;fill-opacity:1;fill-rule:nonzero;stroke:none"
     id="path3633-3-49-6-49"
     d="m 31.636653,12.980391 a 4,1.7536831 0 0 1 -8,0 4,1.7536831 0 1 1 8,0 z" />
  <path
     style="fill:#000000;fill-opacity:1;fill-rule:nonzero;stroke:none"
     id="path3633-2-7-9"
     d="m 42.085328,5.9654796 a 4,1.7536831 0 0 1 -8,0 4,1.7536831 0 1 1 8,0 z" />
  <path
     style="fill:#000000;fill-opacity:1;fill-rule:nonzero;stroke:none"
     id="path3633-7-6-6-5"
     d="m 42.085328,9.4729351 a 4,1.7536831 0 0 1 -8,0 4,1.7536831 0 1 1 8,0 z" />
  <path
     style="fill:#000000;fill-opacity:1;fill-rule:nonzero;stroke:none"
     id="path3633-3-49-6-0"
     d="m 42.085328,12.980391 a 4,1.7536831 0 0 1 -8,0 4,1.7536831 0 1 1 8,0 z" />
  <g
     id="g3996"
     transform="translate(-23.953929,-7.210274)">
    <path
       style="fill:#000000;fill-opacity:1;fill-rule:nonzero;stroke:none"
       id="path3633-2-4"
       d="m 34.780965,31.129855 a 4,1.8477082 0 0 1 -8,0 4,1.8477082 0 1 1 8,0 z" />
    <path
       style="fill:#000000;fill-opacity:1;fill-rule:nonzero;stroke:none"
       id="path3633-2-74-3"
       d="m 45.229642,31.129855 a 4,1.8477082 0 0 1 -8,0 4,1.8477082 0 1 1 8,0 z" />
    <path
       style="fill:#000000;fill-opacity:1;fill-rule:nonzero;stroke:none"
       id="path3633-2-78-0"
       d="m 55.678318,31.129855 a 4,1.8477082 0 0 1 -8,0 4,1.8477082 0 1 1 8,0 z" />
    <path
       style="fill:#000000;fill-opacity:1;fill-rule:nonzero;stroke:none"
       id="path3633-2-8-7"
       d="m 66.126993,31.129855 a 4,1.8477082 0 0 1 -8,0 4,1.8477082 0 1 1 8,0 z" />
  </g>
</svg>
