<?xml version="1.0" encoding="UTF-8" standalone="no"?>
<!-- Created with Inkscape (http://www.inkscape.org/) -->

<svg
   xmlns:dc="http://purl.org/dc/elements/1.1/"
   xmlns:cc="http://creativecommons.org/ns#"
   xmlns:rdf="http://www.w3.org/1999/02/22-rdf-syntax-ns#"
   xmlns:svg="http://www.w3.org/2000/svg"
   xmlns="http://www.w3.org/2000/svg"
   version="1.1"
   width="55"
   height="55"
   id="svg2">
  <metadata
     id="metadata9">
    <rdf:RDF>
      <cc:Work
         rdf:about="">
        <dc:format>image/svg+xml</dc:format>
        <dc:type
           rdf:resource="http://purl.org/dc/dcmitype/StillImage" />
        <dc:title></dc:title>
      </cc:Work>
    </rdf:RDF>
  </metadata>
  <defs
     id="defs7" />
  <g
     transform="translate(0.88146257,0.890625)"
     id="g3954">
    <rect
       width="36.336506"
       height="36.768715"
       x="-40.359375"
       y="4.8685374"
       transform="matrix(0,-1,1,0,0,0)"
       id="rect4-6"
       style="fill:none;stroke:#ffffff;stroke-width:3.5;stroke-linejoin:round;stroke-miterlimit:1.60000002;stroke-opacity:1;stroke-dasharray:none" />
    <line
       y1="16.00807"
       y2="16.00807"
       x1="40.521584"
       x2="4.906013"
       style="fill:#aaaaaa;stroke:#ffffff;stroke-width:2.44068003;stroke-miterlimit:1.60000002;stroke-opacity:1;stroke-dasharray:none"
       id="line10-4-3" />
    <line
       y1="39.378502"
       y2="4.4511342"
       x1="23.062778"
       x2="23.062778"
       style="fill:#ffffff;fill-opacity:1;stroke:#ffffff;stroke-width:2.5;stroke-miterlimit:1.60000002;stroke-opacity:1;stroke-dasharray:none"
       id="line10-8" />
    <path
       d="m 27.530873,23.271165 a 4.4680964,3.0718163 0 1 1 -8.936192,0 4.4680964,3.0718163 0 1 1 8.936192,0 z"
       id="path3633-56"
       style="fill:#ffffff;fill-opacity:1;fill-rule:nonzero;stroke:none" />
    <path
       d="m 27.530873,29.41491 a 4.4680964,3.0718163 0 1 1 -8.936192,0 4.4680964,3.0718163 0 1 1 8.936192,0 z"
       id="path3633-7-1"
       style="fill:#ffffff;fill-opacity:1;fill-rule:nonzero;stroke:none" />
    <path
       d="m 27.530873,35.558654 a 4.4680964,3.0718163 0 1 1 -8.936192,0 4.4680964,3.0718163 0 1 1 8.936192,0 z"
       id="path3633-5-15"
       style="fill:#ffffff;fill-opacity:1;fill-rule:nonzero;stroke:none" />
    <path
       d="m 27.530873,8.8698857 a 4.4680964,3.0718163 0 1 1 -8.936192,0 4.4680964,3.0718163 0 1 1 8.936192,0 z"
       id="path3633-4-98"
       style="fill:#ffffff;fill-opacity:1;fill-rule:nonzero;stroke:none" />
    <line
       y1="39.378502"
       y2="4.4511342"
       x1="33.593018"
       x2="33.593018"
       style="fill:#ffffff;fill-opacity:1;stroke:#ffffff;stroke-width:2.5;stroke-miterlimit:1.60000002;stroke-opacity:1;stroke-dasharray:none"
       id="line10-2-4" />
    <path
       d="m 38.061108,23.271165 a 4.4680964,3.0718163 0 1 1 -8.936191,0 4.4680964,3.0718163 0 1 1 8.936191,0 z"
       id="path3633-47-8"
       style="fill:#ffffff;fill-opacity:1;fill-rule:nonzero;stroke:none" />
    <path
       d="m 38.061108,29.41491 a 4.4680964,3.0718163 0 1 1 -8.936191,0 4.4680964,3.0718163 0 1 1 8.936191,0 z"
       id="path3633-7-4-1"
       style="fill:#ffffff;fill-opacity:1;fill-rule:nonzero;stroke:none" />
    <path
       d="m 38.061108,35.558654 a 4.4680964,3.0718163 0 1 1 -8.936191,0 4.4680964,3.0718163 0 1 1 8.936191,0 z"
       id="path3633-5-4-0"
       style="fill:#ffffff;fill-opacity:1;fill-rule:nonzero;stroke:none" />
    <path
       d="m 38.061108,8.8698857 a 4.4680964,3.0718163 0 1 1 -8.936191,0 4.4680964,3.0718163 0 1 1 8.936191,0 z"
       id="path3633-4-0-3"
       style="fill:#ffffff;fill-opacity:1;fill-rule:nonzero;stroke:none" />
    <line
       y1="39.378502"
       y2="4.4511342"
       x1="12.532538"
       x2="12.532538"
       style="fill:#ffffff;fill-opacity:1;stroke:#ffffff;stroke-width:2.5;stroke-miterlimit:1.60000002;stroke-opacity:1;stroke-dasharray:none"
       id="line10-68-0" />
    <path
       d="m 17.000638,23.271165 a 4.4680964,3.0718163 0 1 1 -8.93619,0 4.4680964,3.0718163 0 1 1 8.93619,0 z"
       id="path3633-2-4"
       style="fill:#ffffff;fill-opacity:1;fill-rule:nonzero;stroke:none" />
    <path
       d="m 17.000638,29.41491 a 4.4680964,3.0718163 0 1 1 -8.93619,0 4.4680964,3.0718163 0 1 1 8.93619,0 z"
       id="path3633-7-6-4"
       style="fill:#ffffff;fill-opacity:1;fill-rule:nonzero;stroke:none" />
    <path
       d="m 17.000638,35.558654 a 4.4680964,3.0718163 0 1 1 -8.93619,0 4.4680964,3.0718163 0 1 1 8.93619,0 z"
       id="path3633-5-6-4"
       style="fill:#ffffff;fill-opacity:1;fill-rule:nonzero;stroke:none" />
    <path
       d="m 17.000638,8.8698857 a 4.4680964,3.0718163 0 1 1 -8.93619,0 4.4680964,3.0718163 0 1 1 8.93619,0 z"
       id="path3633-4-5-4"
       style="fill:#ffffff;fill-opacity:1;fill-rule:nonzero;stroke:none" />
  </g>
  <path
     d="m 42.645186,31.124796 c -1.10877,0 -2.018763,0.909992 -2.018763,2.018761 l 0,4.629689 -3.283849,-3.283849 c -0.784855,-0.783184 -2.043082,-0.78485 -2.826264,0 -0.783183,0.784854 -0.784823,2.069998 0,2.85318 l 3.310766,3.28385 -4.683521,0 c -1.10877,0 -2.018762,0.909991 -2.018762,2.018762 0,1.108769 0.909992,1.991843 2.018762,1.991843 l 4.656605,0 -3.28385,3.283849 c -0.783181,0.784854 -0.784823,2.069999 0,2.85318 0.784855,0.783182 2.07,0.757938 2.85318,-0.02692 l 3.256933,-3.283849 0,4.683524 c 0,1.10877 0.909993,1.991844 2.018763,1.991844 1.108769,0 1.991843,-0.883074 1.991843,-1.991844 l 0,-4.71044 3.337683,3.310765 c 0.784853,0.783182 2.043082,0.784855 2.826262,0 0.783182,-0.784853 0.784858,-2.043082 0,-2.826262 l -3.310765,-3.28385 4.656607,0 c 1.10877,0 1.991844,-0.883074 1.991844,-1.991843 0,-1.108771 -0.883074,-2.018763 -1.991844,-2.018763 l -4.683523,0 3.310765,-3.337683 c 0.783182,-0.784854 0.784857,-2.016165 0,-2.799347 -0.784854,-0.78318 -2.043082,-0.811775 -2.826263,-0.02691 l -3.310766,3.337682 0,-4.656604 c 0,-1.10877 -0.883074,-2.018763 -1.991843,-2.018763 z"
     id="rect3894"
     style="fill:#ffffff;fill-opacity:1;stroke:#282828;stroke-width:1.72267997;stroke-linecap:round;stroke-linejoin:round;stroke-miterlimit:4;stroke-opacity:1;stroke-dasharray:none" />
</svg>
