<?xml version="1.0" encoding="UTF-8" standalone="no"?>
<!-- Created with Inkscape (http://www.inkscape.org/) -->

<svg
   xmlns:dc="http://purl.org/dc/elements/1.1/"
   xmlns:cc="http://creativecommons.org/ns#"
   xmlns:rdf="http://www.w3.org/1999/02/22-rdf-syntax-ns#"
   xmlns:svg="http://www.w3.org/2000/svg"
   xmlns="http://www.w3.org/2000/svg"
   xmlns:sodipodi="http://sodipodi.sourceforge.net/DTD/sodipodi-0.dtd"
   xmlns:inkscape="http://www.inkscape.org/namespaces/inkscape"
   version="1.1"
   width="45"
   height="45"
   id="svg2"
   inkscape:version="0.47 r22583"
   sodipodi:docname="soroban-off.svg">
  <metadata
     id="metadata41">
    <rdf:RDF>
      <cc:Work
         rdf:about="">
        <dc:format>image/svg+xml</dc:format>
        <dc:type
           rdf:resource="http://purl.org/dc/dcmitype/StillImage" />
        <dc:title></dc:title>
      </cc:Work>
    </rdf:RDF>
  </metadata>
  <sodipodi:namedview
     pagecolor="#ffffff"
     bordercolor="#666666"
     borderopacity="1"
     objecttolerance="10"
     gridtolerance="10"
     guidetolerance="10"
     inkscape:pageopacity="0"
     inkscape:pageshadow="2"
     inkscape:window-width="1680"
     inkscape:window-height="979"
     id="namedview39"
     showgrid="false"
     inkscape:zoom="18.168519"
     inkscape:cx="12.840434"
     inkscape:cy="22.500801"
     inkscape:window-x="0"
     inkscape:window-y="25"
     inkscape:window-maximized="1"
     inkscape:current-layer="svg2" />
  <defs
     id="defs41">
    <inkscape:perspective
       sodipodi:type="inkscape:persp3d"
       inkscape:vp_x="0 : 22.5 : 1"
       inkscape:vp_y="0 : 1000 : 0"
       inkscape:vp_z="45 : 22.5 : 1"
       inkscape:persp3d-origin="22.5 : 15 : 1"
       id="perspective43" />
    <inkscape:perspective
       id="perspective2933"
       inkscape:persp3d-origin="0.5 : 0.33333333 : 1"
       inkscape:vp_z="1 : 0.5 : 1"
       inkscape:vp_y="0 : 1000 : 0"
       inkscape:vp_x="0 : 0.5 : 1"
       sodipodi:type="inkscape:persp3d" />
  </defs>
  <rect
     width="37.959229"
     height="43"
     x="-41.478813"
     y="1"
     transform="matrix(0,-1,1,0,0,0)"
     id="rect4"
     style="fill:#ffffff;stroke:#000000;stroke-width:2;fill-opacity:1" />
  <line
     y1="12.576184"
     y2="12.576184"
     x1="43.966454"
     x2="1.0335478"
     style="fill:#aaaaaa;stroke:#000000;stroke-width:2"
     id="line10-4" />
  <line
     y1="39.590115"
     y2="8.6514091"
     x1="17.288134"
     x2="17.288134"
     style="fill:#aaaaaa;stroke:#000000;stroke-width:1.99999988;stroke-miterlimit:0;stroke-dasharray:none"
     id="line10" />
  <path
     d="m 21.288134,6.4963534 a 4,2.5023954 0 1 1 -7.999999,0 4,2.5023954 0 1 1 7.999999,0 z"
     id="path3633-4"
     style="fill:#000000;fill-opacity:1;fill-rule:nonzero;stroke:none" />
  <line
     y1="39.590115"
     y2="8.6514091"
     x1="27.711863"
     x2="27.711863"
     style="fill:#aaaaaa;stroke:#000000;stroke-width:1.99999988;stroke-miterlimit:0;stroke-dasharray:none"
     id="line10-2" />
  <path
     d="m 31.711862,6.4963534 a 4,2.5023954 0 1 1 -7.999999,0 4,2.5023954 0 1 1 7.999999,0 z"
     id="path3633-4-0"
     style="fill:#000000;fill-opacity:1;fill-rule:nonzero;stroke:none" />
  <line
     y1="39.590115"
     y2="8.6514091"
     x1="38.135593"
     x2="38.135593"
     style="fill:#aaaaaa;stroke:#000000;stroke-width:1.99999988;stroke-miterlimit:0;stroke-dasharray:none"
     id="line10-6" />
  <path
     d="m 42.135589,6.4963534 a 4,2.5023954 0 1 1 -7.999999,0 4,2.5023954 0 1 1 7.999999,0 z"
     id="path3633-4-9"
     style="fill:#000000;fill-opacity:1;fill-rule:nonzero;stroke:none" />
  <line
     y1="39.590115"
     y2="8.6514091"
     x1="6.8644056"
     x2="6.8644056"
     style="fill:#aaaaaa;stroke:#000000;stroke-width:1.99999988;stroke-miterlimit:0;stroke-dasharray:none"
     id="line10-68" />
  <g
     id="g2962"
     transform="translate(-0.1651689,0)">
    <path
       d="m 21.453305,23.66244 a 4,2.5023954 0 1 1 -7.999999,0 4,2.5023954 0 1 1 7.999999,0 z"
       id="path3633"
       style="fill:#000000;fill-opacity:1;fill-rule:nonzero;stroke:none" />
    <path
       d="m 31.877033,23.66244 a 4,2.5023954 0 1 1 -7.999999,0 4,2.5023954 0 1 1 7.999999,0 z"
       id="path3633-47"
       style="fill:#000000;fill-opacity:1;fill-rule:nonzero;stroke:none" />
    <path
       d="m 42.30076,23.66244 a 4,2.5023954 0 1 1 -7.999999,0 4,2.5023954 0 1 1 7.999999,0 z"
       id="path3633-8"
       style="fill:#000000;fill-opacity:1;fill-rule:nonzero;stroke:none" />
    <path
       d="m 11.029577,23.664096 a 4,2.5023954 0 1 1 -7.9999994,0 4,2.5023954 0 1 1 7.9999994,0 z"
       id="path3633-2"
       style="fill:#000000;fill-opacity:1;fill-rule:nonzero;stroke:none" />
  </g>
  <g
     id="g2968"
     transform="translate(-0.22020965,0)">
    <path
       d="m 21.508346,28.669833 a 4,2.5023954 0 1 1 -7.999999,0 4,2.5023954 0 1 1 7.999999,0 z"
       id="path3633-7"
       style="fill:#000000;fill-opacity:1;fill-rule:nonzero;stroke:none" />
    <path
       d="m 31.932074,28.669833 a 4,2.5023954 0 1 1 -7.999999,0 4,2.5023954 0 1 1 7.999999,0 z"
       id="path3633-7-4"
       style="fill:#000000;fill-opacity:1;fill-rule:nonzero;stroke:none" />
    <path
       d="m 42.355801,28.669833 a 4,2.5023954 0 1 1 -7.999999,0 4,2.5023954 0 1 1 7.999999,0 z"
       id="path3633-7-43"
       style="fill:#000000;fill-opacity:1;fill-rule:nonzero;stroke:none" />
    <path
       d="m 11.084618,28.669956 a 4.0000001,2.5023955 0 0 1 -8.0000002,0 4.0000001,2.5023955 0 1 1 8.0000002,0 z"
       id="path3633-7-6"
       style="fill:#000000;fill-opacity:1;fill-rule:nonzero;stroke:none" />
  </g>
  <g
     id="g2974"
     transform="translate(-0.11012882,0)">
    <path
       d="m 21.398265,33.677226 a 4,2.5023954 0 1 1 -7.999999,0 4,2.5023954 0 1 1 7.999999,0 z"
       id="path3633-5"
       style="fill:#000000;fill-opacity:1;fill-rule:nonzero;stroke:none" />
    <path
       d="m 31.821993,33.677226 a 4,2.5023954 0 1 1 -7.999999,0 4,2.5023954 0 1 1 7.999999,0 z"
       id="path3633-5-4"
       style="fill:#000000;fill-opacity:1;fill-rule:nonzero;stroke:none" />
    <path
       d="m 42.24572,33.677226 a 4,2.5023954 0 1 1 -7.999999,0 4,2.5023954 0 1 1 7.999999,0 z"
       id="path3633-5-1"
       style="fill:#000000;fill-opacity:1;fill-rule:nonzero;stroke:none" />
    <path
       d="m 10.974537,33.675533 a 4,2.5023954 0 1 1 -7.9999997,0 4,2.5023954 0 1 1 7.9999997,0 z"
       id="path3633-5-6"
       style="fill:#000000;fill-opacity:1;fill-rule:nonzero;stroke:none" />
  </g>
  <g
     id="g2980"
     transform="translate(-4.795e-5,0)">
    <path
       d="m 21.288184,38.684619 a 4,2.5023954 0 1 1 -7.999999,0 4,2.5023954 0 1 1 7.999999,0 z"
       id="path3633-3"
       style="fill:#000000;fill-opacity:1;fill-rule:nonzero;stroke:none" />
    <path
       d="m 31.711912,38.684619 a 4,2.5023954 0 1 1 -7.999999,0 4,2.5023954 0 1 1 7.999999,0 z"
       id="path3633-3-3"
       style="fill:#000000;fill-opacity:1;fill-rule:nonzero;stroke:none" />
    <path
       d="m 42.135639,38.684619 a 4,2.5023954 0 1 1 -7.999999,0 4,2.5023954 0 1 1 7.999999,0 z"
       id="path3633-3-4"
       style="fill:#000000;fill-opacity:1;fill-rule:nonzero;stroke:none" />
    <path
       d="m 10.864456,38.682228 a 4,2.5023954 0 1 1 -7.9999992,0 4,2.5023954 0 1 1 7.9999992,0 z"
       id="path3633-3-49"
       style="fill:#000000;fill-opacity:1;fill-rule:nonzero;stroke:none" />
  </g>
  <path
     d="m 10.864406,6.4963534 a 4,2.5023954 0 1 1 -7.9999992,0 4,2.5023954 0 1 1 7.9999992,0 z"
     id="path3633-4-5"
     style="fill:#000000;fill-opacity:1;fill-rule:nonzero;stroke:none" />
  <g
     id="g2956"
     transform="translate(-0.12159687,0)">
    <path
       d="m 21.409733,18.655047 a 4,2.5023954 0 1 1 -7.999999,0 4,2.5023954 0 1 1 7.999999,0 z"
       id="path3633-25"
       style="fill:#000000;fill-opacity:1;fill-rule:nonzero;stroke:none" />
    <path
       d="m 31.833461,18.655047 a 4,2.5023954 0 1 1 -7.999999,0 4,2.5023954 0 1 1 7.999999,0 z"
       id="path3633-47-4"
       style="fill:#000000;fill-opacity:1;fill-rule:nonzero;stroke:none" />
    <path
       d="m 42.257188,18.655047 a 4,2.5023954 0 1 1 -7.999999,0 4,2.5023954 0 1 1 7.999999,0 z"
       id="path3633-8-7"
       style="fill:#000000;fill-opacity:1;fill-rule:nonzero;stroke:none" />
    <path
       d="m 10.986005,18.657352 a 4,2.5023954 0 1 1 -7.9999995,0 4,2.5023954 0 1 1 7.9999995,0 z"
       id="path3633-2-4"
       style="fill:#000000;fill-opacity:1;fill-rule:nonzero;stroke:none" />
  </g>
</svg>
