<?xml version="1.0" encoding="UTF-8" standalone="no"?>
<!-- Created with Inkscape (http://www.inkscape.org/) -->

<svg
   xmlns:dc="http://purl.org/dc/elements/1.1/"
   xmlns:cc="http://creativecommons.org/ns#"
   xmlns:rdf="http://www.w3.org/1999/02/22-rdf-syntax-ns#"
   xmlns:svg="http://www.w3.org/2000/svg"
   xmlns="http://www.w3.org/2000/svg"
   xmlns:sodipodi="http://sodipodi.sourceforge.net/DTD/sodipodi-0.dtd"
   xmlns:inkscape="http://www.inkscape.org/namespaces/inkscape"
   id="svg2211"
   sodipodi:docname="dog.svg"
   viewBox="0 0 400.56 561.89"
   sodipodi:version="0.32"
   version="1.0"
   width="100"
   height="100"
   inkscape:output_extension="org.inkscape.output.svg.inkscape"
   inkscape:version="0.91 r13725">
  <defs
     id="defs7" />
  <sodipodi:namedview
     id="base"
     bordercolor="#666666"
     inkscape:pageshadow="2"
     guidetolerance="10.0"
     pagecolor="#ffffff"
     gridtolerance="10.0"
     inkscape:zoom="0.63316583"
     objecttolerance="10.0"
     borderopacity="1.0"
     inkscape:current-layer="svg2211"
     inkscape:cx="146.77715"
     inkscape:cy="298.5"
     inkscape:window-y="18"
     inkscape:window-x="469"
     inkscape:window-height="1011"
     inkscape:pageopacity="0.0"
     inkscape:window-width="1207"
     showgrid="false"
     inkscape:window-maximized="0" />
  <rect
     style="fill:#ffffff;fill-opacity:1;stroke:#ffffff;stroke-opacity:1"
     id="rect4135"
     width="405.89682"
     height="566.99207"
     x="0"
     y="1.2154123" />
  <path
     id="path2220"
     style="fill:#000000"
     d="m204.83 561.07c-9.47-1.39-12.07-3.02-18.52-11.58-3.25-4.31-7.58-10.02-9.61-12.67-2.04-2.65-3.7-5.54-3.7-6.41 0-0.88-0.74-3.26-1.64-5.3-1.48-3.37-2.08-3.77-6.35-4.28-2.95-0.35-6.31 0-9.01 0.93-2.37 0.82-4.87 1.27-5.56 1-1.38-0.53-2.41 2.34-2.43 6.82-0.02 4.5-3.68 11.19-6.85 12.5-1.52 0.63-4.54 1.15-6.71 1.17-12.91 0.07-18.21 0.62-21.15 2.19-3.72 1.99-8.51 2.2-11.62 0.53-1.2-0.65-4.892-1.21-8.207-1.25-8.507-0.1-15.12-3.6-18.491-9.79-3.393-6.23-11.678-12.79-16.125-12.77-4.742 0.02-5.657 0.94-5.497 5.49l0.14 4-8.168 0.29c-6.954 0.24-9.479-0.17-17-2.75-5.129-1.76-10.928-3.04-13.832-3.05-2.75-0.01-5.5131-0.35-6.1402-0.76-2.1315-1.37-8.3598-13.06-8.3598-15.68-0.0000013022-5.94 2.4106-8.92 12.607-15.56 6.165-4.02 13.002-9.66 18.143-14.97 4.537-4.68 8.25-8.81 8.25-9.17 0-0.35-1.687-0.26-3.749 0.2-4.265 0.96-6.237-0.16-4.324-2.46 0.683-0.83 1.863-7.26 2.622-14.3 2.091-19.38 3.633-25.05 8.938-32.87 2.818-4.15 3.187-8.52 1.146-13.55-0.752-1.86-1.651-6.24-1.998-9.75l-0.631-6.38 3.748 0.63c2.061 0.34 4.74 0.9 5.952 1.23 2.055 0.56 2.168 0.34 1.667-3.25-0.295-2.12-0.993-5.06-1.55-6.54-1.473-3.91-0.301-5.11 3.214-3.3l2.921 1.52-0.579-2.9c-0.699-3.49 1.153-5.03 3.381-2.8 1.421 1.42 1.782 1.1 3.904-3.49 1.286-2.77 2.338-5.61 2.338-6.31 0-2.22 8.534-21.04 11.578-25.53 1.607-2.38 3.597-4.63 4.422-5 4.635-2.12 5.53-2.96 5.824-5.43 0.214-1.81 0.781-2.56 1.677-2.21 2.051 0.79 3.668-1.84 2.934-4.77-0.993-3.95 1.367-3.27 6.732 1.95 4.813 4.68 6.593 4.6 5.373-0.23-0.47-1.86-0.09-3.08 1.37-4.44 2.24-2.09 4.09-2.44 4.09-0.78 0 0.6 3.26-1.93 7.25-5.62 9.18-8.51 23.34-19.1 31.75-23.75 3.58-1.98 7.97-4.96 9.77-6.62s3.88-3.38 4.63-3.81c0.75-0.44 3.48-4.39 6.07-8.79s5.41-8.79 6.28-9.76c1.26-1.41 1.35-2.24 0.43-4.25-1.23-2.7-3.09-3.19-4.96-1.31-1.59 1.59-2.22 0.77-3.37-4.35-0.97-4.31-0.27-13.83 1.01-13.83 0.37 0 2.42 1.18 4.55 2.63l3.87 2.63-0.58-2.38c-2.95-11.95-0.97-30.78 4.61-43.88 2.85-6.71 3.09-8.01 2.27-12.26-0.67-3.48-1.34-4.69-2.5-4.5-1.22 0.2-1.7-0.93-2.1-4.93-0.53-5.28-1.98-8.5-1.98-4.4 0 4.46-2.4 1.35-4.42-5.71-1.39-4.88-2.5-7.11-3.45-6.94-0.78 0.13-2.56-1.79-3.97-4.26-2.12-3.74-2.54-5.72-2.47-11.72 0.06-4.9-0.27-7.14-1.05-7-0.71 0.14-1.26-1.8-1.45-5.11l-0.3-5.33-4.37 4.69c-2.4 2.57-4.84 4.39-5.42 4.03-1.73-1.07-7.95-12.82-10.15-19.16-5.49-15.859-2.43-42.894 7.33-64.715 3.37-7.543 6.38-9.816 14.68-11.093 2.45-0.377 6.36-1.53 8.7-2.562 3.8-1.682 4.72-2.837 8.88-11.107 7.77-15.468 12.41-21.926 15.78-21.926 1.08-0.0003 4.42 2.1012 7.43 4.6696 5.97 5.1004 8.57 9.9344 10.64 19.812 0.7 3.31 1.78 6.978 2.41 8.151 1.48 2.762 6.94 3.782 12.39 2.315 5.29-1.425 13.08-1.408 15.77 0.033 3.08 1.646 11.96-1.675 13.32-4.981 6.61-16.037 12.63-27.787 15.34-29.919 4.07-3.1987 13.62-2.9128 20 0.5986 7.24 3.9796 8.93 5.4826 15.44 13.737 3.27 4.143 7.25 8.209 8.85 9.036 1.6 0.828 6.73 1.939 11.4 2.469 10.58 1.203 14.23 2.71 18.79 7.765 2.99 3.308 3.72 5.006 4.26 9.903 0.67 6.126-0.53 19.241-2.33 25.509-0.57 1.98-3.37 7.38-6.22 12-7.03 11.398-12.81 22.704-12.81 25.034 0 3.27-5.79 20.03-9.23 26.73-3.68 7.17-10.02 14.9-13.21 16.11-1.59 0.61-2.58 2.58-3.95 7.88-1.01 3.89-2.45 7.88-3.19 8.86-0.75 0.98-1.37 2.75-1.39 3.92-0.02 1.28-0.83 2.34-2.03 2.66-1.4 0.36-2 1.37-2.02 3.36-0.02 4.25-1.42 6.06-3.4 4.41-1.39-1.15-1.58-0.89-1.58 2.11 0 4.91-1.93 6.52-4.31 3.6l-1.85-2.27 0.53 2.5c0.29 1.37 0.84 6.66 1.22 11.75 0.61 8.03 0.49 9.25-0.87 9.25-0.87 0-1.78-0.79-2.03-1.75-0.25-0.97-0.52 0.05-0.59 2.25-0.06 2.2-0.4 5.68-0.74 7.75-0.55 3.31-0.38 3.75 1.43 3.75 1.12 0 2.97 1.23 4.09 2.75 1.99 2.66 2.06 2.67 2.09 0.5 0.05-3.35 2.04-2.8 10.57 2.9l7.71 5.16-0.67 7.34c-0.51 5.68-0.37 7.35 0.63 7.35 6.23 0.03 15.79 6.33 15.79 10.41 0 3.16-2.37 6.04-4.36 5.28-1.35-0.52-1.64 0.07-1.64 3.34 0 3.72 0.18 3.97 2.92 3.97 3.21 0 8.61 3.94 9.58 6.98 0.33 1.06-0.32 3.7-1.47 5.97-1.95 3.82-1.98 4.24-0.47 7.16 1.52 2.95 1.47 3.55-1.09 11.75-1.48 4.75-3.77 10.77-5.1 13.39l-2.4 4.75h2.76c4.26 0.01 8.97 3.37 9.76 6.96 0.75 3.41-0.69 6.04-3.3 6.04-1.15 0-0.86 0.74 1.12 2.8 3.43 3.58 3.38 4.57-0.4 7.26l-3.08 2.2-4.91-2.3c-2.7-1.27-5.18-2.03-5.51-1.7s1.23 5.19 3.47 10.8c4 10.02 4.43 13.27 1.44 10.79-1.32-1.1-1.4-0.64-0.66 3.7 1.14 6.69 1.06 17.83-0.12 18.45-0.53 0.27-1.93-0.94-3.11-2.7l-2.16-3.19-0.62 5.93c-0.34 3.26-0.21 6.95 0.29 8.2 2.08 5.15 10.97 34.91 12.93 43.26 1.16 4.95 2.58 13.24 3.15 18.43 0.83 7.49 1.68 10.57 4.17 15 4.62 8.23 9.48 13.86 13.92 16.12l3.94 2.01 3.65-2.78c2.99-2.28 4.55-2.75 8.72-2.61 2.79 0.09 5.98 0.19 7.08 0.23s4.38-0.19 7.3-0.52c4.6-0.51 5.82-0.24 9.24 2.02 4.63 3.07 8.93 10.87 11.39 20.66 2.37 9.44 0.86 22.63-3.14 27.44-1.54 1.85-3.53 4.4-4.43 5.68l-1.63 2.32-26.12-0.22c-15.62-0.13-26.89-0.63-28.05-1.25-1.06-0.57-6.95-5.04-13.09-9.93s-13.49-10.13-16.32-11.64c-7.28-3.89-8.65-5.32-8.65-8.98 0-8.19-10.7-33-21.13-48.98-2.87-4.4-8.26-10.98-11.98-14.62-5.5-5.38-7.55-6.73-11.01-7.29-3.79-0.6-4.8-0.29-9.39 2.87-2.82 1.94-5.88 3.54-6.79 3.54-1.57 0-7.76 2.58-17.64 7.35-2.44 1.18-4.63 2.75-4.87 3.49-0.33 1.07 0.01 1.12 1.63 0.25 3.35-1.79 7.57-1.26 11.18 1.41 1.86 1.37 4.24 2.5 5.29 2.5 3.25 0 7.65 3.95 10.37 9.31 2.2 4.34 2.59 6.4 2.54 13.36-0.05 5.93-0.62 9.48-2.05 12.71l-1.98 4.48 2.82 0.98c1.55 0.54 4.65 2.65 6.9 4.68 2.48 2.24 4.69 3.47 5.61 3.11 2.26-0.86 6.12 1.25 7.39 4.02 0.68 1.5 1.11 9.39 1.11 20.49v18.05l-3.16 2.96c-1.81 1.68-4.06 2.84-5.25 2.7-1.15-0.14-3.21 0.36-4.59 1.12-1.38 0.75-4.91 1.3-7.86 1.23-3.16-0.09-6.59 0.5-8.38 1.42-3.58 1.85-10.88 1.14-12.88-1.26-1.1-1.33-1.42-1.34-2.33-0.12-2.72 3.69-6.12 4.24-16.72 2.68zm12.93-2.74c1.62-1.05 3.62-17.13 2.95-23.68-0.66-6.35-2.11-9.37-6.01-12.5-3.66-2.94-11.27-3.47-14.39-1-1.05 0.82-0.85 0.48 0.45-0.75 3.72-3.56 11.13-3.17 15.68 0.83 4.53 3.97 5.55 7.9 5.56 21.42l0.01 11 3.5 2.38c2.71 1.85 4.3 2.25 7.12 1.79 7.34-1.19 9.36-5.66 9.35-20.67-0.01-18.72-6.83-32.99-15.78-33-2.76 0-7.85 2.46-10.95 5.29-1.24 1.13-2.25 1.64-2.24 1.13 0-0.51 1.58-1.99 3.5-3.3 3.97-2.71 4.27-3.64 1.64-5.05-5.05-2.7-8.22-49.33-4.61-67.74 0.84-4.31 2.18-13.01 2.97-19.33 1.65-13.24 2.75-17.61 4.35-17.25 2.46 0.54 0.92-1.57-3.41-4.68-4.88-3.5-5.57-6.34-1.69-6.89 5.22-0.75 0.64-4.38-7.69-6.11-2.99-0.62-6.03-1.62-6.75-2.22-2.15-1.79-1.55-6.29 1.17-8.84 1.78-1.68 2.2-2.69 1.46-3.57-0.56-0.68-0.89-1.79-0.74-2.48 0.17-0.73-1.57-1.75-4.21-2.46-11.62-3.14-14.65-6.05-9.25-8.89l2.75-1.44-2.71-0.69c-3.78-0.95-5.22-2.88-3.32-4.46 1.32-1.09 1.26-1.55-0.48-3.77-1.1-1.39-1.99-3.35-1.99-4.35 0-1.01-0.94-2.34-2.1-2.96-1.63-0.87-2-1.82-1.65-4.28 0.24-1.74 0.77-3.92 1.18-4.84 0.58-1.34 0.31-1.57-1.33-1.14-2.44 0.64-3.49-1.52-4.56-9.34-0.52-3.8-1.19-5.28-2.54-5.63-2.35-0.62-3.77-8.73-2.15-12.29 1.06-2.32 0.95-2.43-2.62-2.54-2.05-0.07-4.12-0.05-4.6 0.04-0.82 0.15-0.23-5.03 1.06-9.38 0.56-1.89 0.48-1.9-1.81-0.27-1.31 0.93-6.66 4.14-11.88 7.14-5.22 2.99-10.5 6.38-11.72 7.52-1.21 1.14-3.91 3.23-6 4.64-2.08 1.41-8 6.47-13.17 11.24-5.16 4.78-9.73 8.59-10.15 8.47-0.82-0.23-3.96 5.8-3.96 7.62 0 2.4-3.49 0.88-6.773-2.95-1.906-2.23-3.637-3.88-3.848-3.67-0.21 0.21 0.265 2.54 1.056 5.17l1.438 4.78-2.436-2.29c-1.34-1.26-2.437-1.78-2.437-1.15s-0.639 0.9-1.42 0.6c-0.935-0.36-1.534 0.25-1.75 1.78-0.228 1.61-1.101 2.43-2.83 2.66-1.375 0.19-3.718 1.49-5.206 2.9-3.121 2.95-10.032 18.26-14.787 32.77-1.804 5.5-3.451 10.19-3.66 10.43s-0.913-0.1-1.564-0.75c-2.074-2.07-2.783-1.29-2.788 3.07l-0.005 4.25-2.555-3-2.555-3 0.509 3.5c1.972 13.53 1.972 13.07-0.024 12.32-1.026-0.38-3.215-1.51-4.865-2.51-1.65-0.99-3.402-1.81-3.892-1.81-1.118 0 0.011 11.42 1.381 13.98 1.839 3.43 1.165 9.51-1.489 13.42-1.375 2.03-2.5 3.96-2.5 4.29 0 0.34-1.075 2.91-2.389 5.71-2.849 6.08-3.674 10.61-4.494 24.7l-0.617 10.6 4.25-0.48c4.48-0.51 5.118 0.21 2.893 3.25-2.408 3.29 0.443 12.08 8.937 27.53 2.873 5.22 5.945 11.98 6.827 15.02 1.286 4.43 2.254 5.88 4.873 7.29 3.612 1.94 8.023 5.91 11.475 10.31 1.24 1.58 3.374 4.29 4.743 6.01 3.088 3.89 10.919 7.73 14.13 6.92 3.183-0.8 3.861-3.87 3.867-17.55 0.005-10.37-0.258-12.06-2.65-17.17-3.033-6.47-5.599-8.29-10.399-7.39-2.943 0.55-3.769 1.48-6.895 7.73-4.051 8.09-4.877 7.51-0.99-0.71 2.62-5.54 6.804-9.46 10.093-9.46 1.015-0.01 3.466-1.73 5.446-3.83 4.001-4.25 9.94-6.44 16.4-6.03 2.2 0.14 5.71 0.17 7.79 0.06l3.8-0.2-0.4-6.75c-0.6-10.19 0.17-16.24 1.98-15.55 1.19 0.46 1.36-0.16 0.9-3.32l-0.57-3.88 1.94 3.99c1.29 2.65 2.11 3.49 2.45 2.5 2.07-6.03 2.72-11.14 2.12-16.7-0.37-3.46-0.45-6.29-0.19-6.29 0.27 0 1.42 1.46 2.56 3.25l2.09 3.25-0.06-5.5c-0.02-3.03-1.08-9.55-2.34-14.5s-2.17-9.15-2.02-9.33 1.45 0.44 2.89 1.38c6.88 4.51 2.92-4.11-7.45-16.22-3.84-4.49-6.99-8.38-6.99-8.65s0.9-0.26 2 0.03c2.97 0.77 2.42-0.44-1-2.21-3-1.55-3-1.55-3.03-10.78-0.04-8-0.8-14.25-3.35-27.22-0.32-1.65 0.08-0.98 0.91 1.5 2.3 6.93 4.62 21.75 4.37 27.93-0.21 5.23 0.01 5.79 3.54 9.32 2.07 2.06 3.89 3.75 4.05 3.75 0.15 0 0.6-2.12 0.99-4.71 0.81-5.42 3.88-12.45 6.33-14.52 3.14-2.64 9.92-4.22 12.69-2.95 2.25 1.02 2.51 0.91 2.62-1.09 0.09-1.78 0.27-1.63 0.88 0.77 0.42 1.65 0.79 3.9 0.82 5 0.05 1.87 0 1.86-0.81-0.15-1.08-2.66-7.65-5.11-9.3-3.46-0.61 0.61-2.11 1.11-3.34 1.11-1.32 0-3.07 1.18-4.28 2.87-2.23 3.13-5.09 12.87-5.09 17.34 0 3.27-0.22 3.33-3.79 1.04-1.49-0.95 0.56 1.86 4.56 6.25 7.17 7.89 10.16 13.62 8.87 16.99-0.43 1.11-1.28 1.44-2.64 1.01-2.43-0.78-2.44-1.51 0.09 9.13 2.79 11.77 1.48 24.45-1.77 17.15-0.82-1.84-1.1-1.12-1.61 4.25-0.35 3.56-1.38 8.94-2.3 11.97-1.37 4.5-1.82 5.13-2.47 3.5-0.44-1.1-0.83-1.61-0.87-1.13s-0.75 0.31-1.57-0.37c-1.32-1.1-1.5 0.1-1.5 9.87 0 10.39 0.13 11.13 1.96 11.13 1.08 0 3.67 1.74 5.75 3.87 2.53 2.59 5.05 4.1 7.6 4.56 2.09 0.37 4.64 1.52 5.67 2.55 1.91 1.9 4.5 9.52 5.53 16.27 0.48 3.08 0.99 3.75 2.89 3.75 5.51 0 8.03-1.88 10.44-7.78 1.29-3.15 2.79-7.52 3.34-9.72s2.28-6.58 3.83-9.72c2.69-5.44 2.76-5.95 1.52-10.5-0.71-2.63-1.85-6.13-2.51-7.78-3.17-7.86-8.23-26.83-9.07-34-2.17-18.54-2.91-21.92-5.89-26.71-2.85-4.58-2.92-4.99-1.94-11.03 0.56-3.44 0.78-8.29 0.49-10.76-0.48-3.99-0.42-4.16 0.47-1.5 0.57 1.69 0.74 6.37 0.4 10.75-0.53 6.68-0.35 8.12 1.32 10.5 2.25 3.17 7.2 22.08 7.2 27.47 0 5.49 2.47 16.05 6.5 27.78 6.65 19.32 7.77 25.78 7.15 41-0.43 10.57-0.24 14.04 0.87 16 0.77 1.37 1.43 3.48 1.44 4.69 0.02 1.2 2.19 5.03 4.82 8.5 2.62 3.47 5.5 7.43 6.39 8.81 4.26 6.6 8.38 10.12 13.33 11.39 5.89 1.51 15.47 1.95 17.26 0.79zm-68.6-173.18c0-1.38 0.22-1.94 0.5-1.25 0.28 0.68 0.28 1.81 0 2.5-0.28 0.68-0.5 0.12-0.5-1.25zm-3.38-15.5c-0.34-1.65-0.23-3.14 0.24-3.31 0.46-0.18 0.26-1.98-0.46-4.02-0.72-2.03-1.63-5.65-2.04-8.03-0.67-4.01-0.59-4.25 1.14-3.33 2.53 1.36 5.79 5.07 5.08 5.78-0.32 0.32-1.08-0.36-1.69-1.51-0.62-1.14-1.75-2.08-2.52-2.08-1.16 0-1.07 1.18 0.47 6.75 1.03 3.71 2.2 7.61 2.6 8.66 0.49 1.28 0.38 1.69-0.35 1.24-0.61-0.38-1.27 0.11-1.47 1.08-0.25 1.17-0.59 0.75-1-1.23zm5.09-10c-0.35-0.55-0.21-3.93 0.31-7.5 0.86-5.87 0.62-13.32-0.72-22.28l-0.49-3.22 1.44 3.5c0.85 2.06 1.43 6.78 1.42 11.5-0.03 9.65-1.09 19.37-1.96 18zm100.84 194.69c3.24-2.05 5.3-30.6 2.8-38.9-2-6.66-5.64-10.95-10.54-12.42-3.28-0.98-4.28-0.9-6.46 0.53l-2.58 1.69 1.89 2.7c4.22 6.02 6.45 14.32 6.91 25.71 0.25 6.05-0.02 13.01-0.58 15.47-0.78 3.34-0.74 4.67 0.16 5.24 1.55 0.98 6.85 0.98 8.4-0.02zm10.25-4.13c1.46-2.72 1.36-34.27-0.12-37.52-0.77-1.69-1.96-2.54-3.55-2.54-2.23 0-2.33 0.24-1.59 3.75 0.88 4.1 0.72 27.22-0.23 34-0.56 4.03-0.46 4.25 1.93 4.25 1.48 0 2.96-0.81 3.56-1.94zm-148.28-8.47c2.71-2.33 2.81-2.76 3.16-13.79 0.72-22.77-2.64-36.17-9.58-38.16-2.65-0.76-4.1-0.48-7.998 1.52-2.653 1.36-5.337 3.63-6.061 5.13-1.154 2.38-1.024 3.16 1.165 6.95 5.082 8.79 7.234 24.03 4.784 33.94-0.863 3.5-0.751 3.76 2.22 5.23 4.61 2.27 9.06 1.98 12.31-0.82zm15.72-1.73c3.21-1.46 4.09-7.71 3.34-23.88-0.55-12.05-2.8-19.99-6.58-23.28-1.77-1.55-11.93-4.27-12.77-3.42-0.28 0.27 0.4 2.2 1.51 4.28 3.31 6.17 4.26 13.42 3.92 29.89-0.3 14.64-0.21 15.52 1.68 16.44 2.74 1.33 5.93 1.32 8.9-0.03zm12.58-2.07c3.12-3.35 4.3-9.33 3.76-19-0.62-11.14-3.58-17.82-8.51-19.19-1.79-0.49-3.48-0.68-3.75-0.41-0.27 0.26-0.02 2.92 0.55 5.89 1.22 6.34 1.13 29.36-0.12 32.65-0.79 2.08-0.58 2.27 2.58 2.27 2.25 0 4.14-0.76 5.49-2.21zm246.56-0.45c2.14-0.82 3.73-7.04 3.02-11.79-1.45-9.69-11.56-19.56-20.01-19.54-4.47 0.01-13.13 3.65-15.7 6.59-0.9 1.05-1.86 2.8-2.13 3.9-0.36 1.47-0.52 1.24-0.6-0.85-0.16-3.87 4.17-7.75 11.08-9.93 7.69-2.42 10.69-2.17 16.35 1.37 8.16 5.1 12.45 11.85 12.45 19.58 0 4.43 0.11 4.64 1.66 3.1 2.25-2.26 3.41-11.82 2.39-19.75-1.77-13.76-8.06-24.21-15.19-25.26-3.5-0.51-14.25 2.84-18.2 5.67-6.65 4.77-7.15 4.94-3.71 1.26 1.89-2.03 3.94-3.69 4.56-3.69 0.61 0 1.98-0.66 3.05-1.47 1.8-1.36 1.61-1.47-2.56-1.48-5.45-0.01-10.53 3.18-8 5.02 2.89 2.1-7.34-0.08-11.16-2.37-4.76-2.86-10.85-10.35-14.88-18.28-2.52-4.97-3.4-8.29-4.11-15.62-0.86-8.85-4.52-23.7-12.41-50.3-3.54-11.95-3.55-12.05-2.48-21.94 0.59-5.46 1.26-10.11 1.48-10.34 0.23-0.23 1.37 1.32 2.53 3.43l2.12 3.85-0.44-6.19c-0.54-7.51-1.12-8.67-3.64-7.32-1.04 0.56-3.6 1.02-5.69 1.04-2.26 0.02-4.76 0.82-6.12 1.95-2.19 1.83-2.23 2.07-0.75 4.92 0.85 1.65 1.55 4.84 1.55 7.09 0 4.98-2.7 7.86-10.33 11.03-4.58 1.91-5.43 2.75-7.47 7.39l-2.3 5.25 1.98 5.42c2.95 8.09 4.12 18.06 4.12 35.24 0 11.46 0.39 16.36 1.5 19.02 0.83 1.98 1.5 6.6 1.5 10.31 0 5.49 0.71 8.45 3.89 16.28 2.14 5.26 4.15 11.75 4.46 14.41 0.69 5.9 1.62 7.1 8.05 10.36 6.06 3.07 10.52 6.47 21.09 16.07l8.01 7.27 24.84-0.09c13.66-0.04 25.45-0.32 26.2-0.61zm-337.54-8.98c0-0.89-0.854-3.03-1.899-4.75-1.044-1.71-2.445-5.81-3.114-9.11-1.611-7.96-3.025-10.49-8.594-15.39-4.914-4.32-5.072-5.04-0.593-2.7 5.475 2.86 8.155 6.86 9.761 14.56 1.91 9.16 3.047 11.42 5.266 10.46 0.92-0.39 2.91-0.93 4.423-1.19 1.512-0.26 2.75-0.6 2.75-0.75 0-0.16-0.944-3.37-2.098-7.14-3.359-10.98-7.841-16.65-7.932-10.04-0.03 2.14-0.055 2.14-1.165 0.19-1.511-2.67-2.812-3.44-4.628-2.74-1.032 0.39-1.259 0.18-0.724-0.69 0.431-0.69 1.862-1.06 3.188-0.8 1.324 0.25 2.632 0.09 2.907-0.35 0.275-0.45-1.134-4.32-3.131-8.62-1.997-4.29-3.868-9.49-4.156-11.55-0.288-2.07-0.687-3.75-0.886-3.75s-4.302 3.96-9.118 8.8c-5.775 5.81-11.14 10.11-15.757 12.63-13.557 7.42-15.445 11.75-9.4044 21.57 3.6302 5.9 5.3374 7 10.87 7 2.253 0 6.895 0.95 10.316 2.12 6.013 2.06 13.735 3.47 20.468 3.75 2.393 0.09 3.25-0.3 3.25-1.51zm120.78-23.11c0.18-8.38-0.09-13.25-0.73-13.25-1.29 0-4.05 5.32-4.05 7.82 0 1.06-1.08 4.38-2.41 7.37-3.67 8.3-3.68 10.13-0.09 10.94 7.09 1.58 6.97 1.78 7.28-12.88zm64.93-4.09c9.08-7.77 9.53-27.47 0.83-36.68-3.53-3.75-8.35-4.94-7.03-1.73 1.79 4.37 3.33 11.75 3.98 19.16 0.64 7.17 0.47 8.54-1.45 12.24-1.2 2.29-3.37 5.1-4.84 6.26l-2.66 2.09 3.48 0.62c1.91 0.34 3.7 0.65 3.98 0.7s1.95-1.14 3.71-2.66zm-10.32-1.26c1.47-1.15 3.6-3.92 4.74-6.15 1.75-3.43 1.96-5.09 1.39-10.66-1.55-15.05-5.28-25.74-9.33-26.76-3.85-0.97-9.61 2.44-10.01 5.92-0.25 2.24 0.08 2.75 1.83 2.75 3.02 0 7.6 4.93 8.89 9.58 0.6 2.15 1.09 7.34 1.09 11.53 0.01 6.47-0.36 8.16-2.49 11.29-1.38 2.03-2.5 3.89-2.5 4.14 0 1.25 4.04 0.21 6.39-1.64zm-5.24-3.15c0.69-1.29 1.24-6.34 1.28-11.83 0.05-8.84-0.15-9.91-2.7-13.75-1.52-2.3-3.49-4.17-4.38-4.17-1.75 0-1.76-0.17 0.53 20 1.38 12.18 2.67 14.55 5.27 9.75zm67.68-32.13c-0.92-2.21-1.22-7.65-1.05-18.62 0.19-11.51-0.17-17.44-1.4-23-2.61-11.84-3.31-14.4-4.39-16-0.85-1.28-1.31-1.13-3.05 1l-2.05 2.5 0.51-5.5 0.5-5.5-1.74 7c-1.52 6.13-1.88 6.75-2.88 5-1.26-2.2-1.17-2.34-3.28 5-0.63 2.2-1.65 5.31-2.26 6.91l-1.12 2.92-1.06-3.01-1.06-3.01-3.63 7.35-3.63 7.36 4.93 3.92c6.91 5.51 15.94 16.59 22.09 27.15l5.24 8.99 0.32-3.67c0.17-2.02-0.27-5.08-0.99-6.79zm-65.83-17.4c3.02-1.13 6.85-2.76 8.5-3.63s3.74-1.58 4.64-1.59c0.9 0 3.93-1.58 6.72-3.5 3.35-2.3 6.25-3.5 8.46-3.5 4.36 0 5.73-1.65 9.98-11.91 3.34-8.08 3.5-8.29 4.17-5.24 0.98 4.48 2.1 3.18 4.17-4.86 1.65-6.39 3.36-9.19 3.36-5.49 0 0.82 0.36 1.5 0.8 1.5 0.45 0 1.39-3.43 2.09-7.62 1.42-8.45 3.34-8.96 3.51-0.93 0.06 2.5 0.21 4.55 0.34 4.55s1.58-2.68 3.23-5.95c2.55-5.04 2.91-6.66 2.37-10.61-0.52-3.79-1.21-5.01-3.74-6.55-5.12-3.11-6.6-2.57-6.6 2.42 0 6.49-1.65 8.12-7.34 7.26-2.56-0.38-4.66-1.14-4.66-1.68s-2.12 0.63-4.7 2.61c-3.14 2.39-5.56 3.49-7.25 3.29-2.19-0.25-2.59-0.85-2.87-4.29-0.46-5.82-1.68-6.22-1.68-0.55-0.01 3.35-0.6 5.49-1.91 6.95-2.68 2.96-6.95 2.73-9.05-0.49-1.61-2.45-1.79-2.5-3.58-0.88-1.22 1.11-2.95 1.55-4.92 1.26-2.64-0.39-3.04-0.14-3.04 1.88 0 2.46-1.53 3.18-2.28 1.08-1.04-2.91-2.01 0.96-3.81 15.2-1.05 8.3-2.35 17-2.89 19.32-0.53 2.33-0.98 7.11-1 10.63-0.02 6.02 0.09 6.31 1.73 4.88 0.96-0.84 4.23-2.44 7.25-3.56zm18.6-48.99c1.87-1.24 3.4-4.95 3.4-8.21 0-2.33-1.2-4.39-4.75-8.21l-4.75-5.1 3.5 1.76c6.31 3.16 10 7.46 10 11.66 0 2.06 0.47 4.04 1.04 4.39 2.06 1.28 11.96-6.63 11.96-9.54 0-1.52-2.47-3.99-18-17.98-3.02-2.73-5.16-4.97-4.75-4.98s2.53 1.59 4.71 3.56 4.42 3.3 4.97 2.96c0.56-0.35 1.52-2.32 2.14-4.39 0.99-3.3 0.79-4.74-1.61-11.49-1.51-4.24-3.16-7.98-3.69-8.3-1.15-0.71-6.8 4.63-10.42 9.85-1.46 2.1-2.85 3.62-3.09 3.38-0.25-0.25 0.98-2.54 2.74-5.09 1.76-2.56 3.04-4.75 2.85-4.89-6.69-4.68-16.31-9.57-19.87-10.1-3.83-0.57-4.82-0.35-6.42 1.42-1.66 1.84-1.76 2.66-0.81 6.81 0.59 2.6 0.85 5.09 0.58 5.54-0.28 0.44-2.46-1-4.86-3.2-2.39-2.21-5.54-4.31-7-4.68-2.72-0.68-9.97 0.98-10.91 2.51-0.3 0.47 1.82 1.88 4.7 3.14l5.24 2.29-3.98 0.86c-2.19 0.48-4.41 1.29-4.93 1.81-1.25 1.24 4.11 3.45 13.53 5.56 8.49 1.91 11.8 3.34 7.88 3.41-1.38 0.03-3.18 0.48-4 1.02-1.15 0.74-0.77 0.97 1.6 0.98 4.48 0.02 9.4 1.97 9.4 3.72 0 0.97-0.57 1.29-1.59 0.9-6.71-2.57-12.8-1.42-14.34 2.71-1.31 3.54-0.31 4.41 7.15 6.24 3.88 0.95 7.97 2.64 9.07 3.74 2.53 2.52 4.5 1.5 7.07-3.68l1.87-3.75-2.95-3.68c-3.51-4.38-4.92-6.92-6.81-12.27-1.79-5.06-0.74-4.4 4.05 2.56 2.1 3.04 4.19 5.53 4.65 5.53 1.63 0 1.3-7.11-0.7-14.96-0.76-3-1.21-5.63-1-5.84 0.89-0.9 3.68 6.3 4.23 10.93 0.5 4.24 0.88 4.95 2.43 4.54 1.54-0.4 1.67-0.17 0.81 1.45-1.31 2.44-0.49 3.73 3.43 5.44l3.13 1.36-3.5 0.05c-4.72 0.08-5.69 0.87-6.54 5.37-0.95 5.08-7.1 11.66-10.89 11.66-3.65 0-2.96 1.7 2.34 5.75 2.82 2.16 5.36 3.25 7.56 3.25 3.83 0 4.49-1.12 4.62-7.84l0.09-4.66 1.83 5.83c1.66 5.29 4.35 9.69 5.89 9.65 0.33-0.01 1.1-0.34 1.7-0.75zm51.69-9.35c5.62-2.81 8.71-5.78 8.69-8.31-0.01-1.14-0.94-4.08-2.05-6.54l-2.03-4.47 3.25-2.84c2.42-2.11 3.88-2.68 5.71-2.22 3.27 0.82 7.9-1.21 8.8-3.86 0.89-2.63 0.67-4.59-1.31-11.63l-1.54-5.49-1.66 2.99-1.65 2.99-0.31-3.25c-0.18-1.79-0.74-3.25-1.25-3.25-0.52 0-0.94-0.9-0.94-2s-0.41-2-0.92-2c-1.06 0-1.61 2.41-3.06 13.5-0.58 4.4-1.54 9.51-2.15 11.35-0.98 3.01-1.39 3.29-3.98 2.77-2.42-0.48-2.89-0.25-2.89 1.43 0 2.38-2.86 3.79-3.99 1.96-0.55-0.89-1.32-0.16-2.51 2.35-2.18 4.6-2.92 4.62-2.18 0.08 0.69-4.3-1.88-7.81-6.96-9.49-3.79-1.25-6.09-0.74-9.78 2.16-5.31 4.18-2.14 8.73 9.27 13.33 6.91 2.78 9.15 5.09 9.15 9.44 0 1.64 0.81 3.12 1.71 3.12 0.2 0 2.26-0.95 4.58-2.12zm-20.14-3.38c0.08-2.48 0.19-4.94 0.25-5.47s-2.05-2.33-4.67-3.99c-3.45-2.19-4.94-3.86-5.37-6-0.46-2.29-1.64-3.48-5.08-5.15-3.73-1.8-4.64-1.94-5.37-0.78-2.26 3.56-0.93 6.64 5.68 13.21 5.38 5.37 6.46 6.96 5.89 8.74-0.85 2.68 0.8 3.9 5.27 3.92 3.17 0.02 3.25-0.1 3.4-4.48zm18.48-21.07c0.93-1.41 2.25-4.9 2.94-7.75l1.26-5.18 0.08 7.25c0.07 5.5 0.43 7.25 1.49 7.25 1.75 0 3.31-6.42 4.59-19 0.54-5.23 0.98-10.1 0.99-10.83s-4.53 3.32-10.09 9c-6.75 6.9-8.32 8.22-4.75 3.99 13.22-15.65 13.59-16.79 4.58-14.29-13.18 3.65-17.59 7.76-18.5 17.23-0.42 4.32-0.22 4.79 3.01 7.26 3.77 2.88 6.63 3.33 8.7 1.39 1.09-1.03 1.21-0.72 0.68 1.75-0.64 2.98-0.63 2.99 1.12 0.87 0.98-1.18 2.33-2.98 3.02-4 0.74-1.12 0.64-0.31-0.25 2-2.36 6.1-1.82 7.57 1.13 3.06zm-25.67-0.37c1.67-3.11 1.24-6.89-0.92-8.04-1.08-0.58-3.94-1.32-6.36-1.65-4.15-0.57-4.43-0.46-4.9 2.01-0.62 3.24 0.6 4.84 5.72 7.47 4.99 2.57 5.2 2.58 6.46 0.21zm8.82-3.57c0.16-0.12-0.49-1.57-1.44-3.22-1.52-2.64-1.57-3.66-0.47-8.59 1.49-6.67 4.94-10.15 13.45-13.61 3.12-1.27 5.68-2.73 5.68-3.24 0-0.92-1.98-1.85-11.23-5.25-4.06-1.49-4.9-2.28-5.87-5.51-1.29-4.32-0.16-7.54 3-8.54 1.63-0.52 1.75-1 0.84-3.42-1.49-3.95-0.47-5.75 3.69-6.53 3.29-0.62 3.53-0.9 2.92-3.38-0.36-1.49-1.81-4.87-3.23-7.51-2.56-4.79-3.03-4.99-7.37-3.2-1.4 0.58-1.75 0.2-1.75-1.89 0-1.43-0.45-2.6-1-2.6-1.7 0-1.1-2.38 1.3-5.18 2.04-2.37 2.33-3.85 2.54-13.16 0.24-10.17 0.17-10.52-2.05-11.2-2.46-0.75-5.79-3.33-5.79-4.48 0-0.39 1.35-2.41 3-4.48 4.31-5.43 3.99-7.85-1.28-9.87-2.36-0.9-4.87-1.63-5.58-1.63-2.47 0-0.6-3.45 3.5-6.47l4.14-3.03-0.54-23.04c-0.58-24.66-0.12-30.2 2.57-31.19 0.93-0.35 2.02-1.11 2.42-1.7 0.42-0.61 0.75-0.16 0.75 1.06 0.01 1.26-0.76 2.34-1.88 2.63-1.58 0.41-2.03 1.82-2.64 8.31-0.78 8.38 0.18 36.42 1.41 41.02l0.74 2.79 2.2-2.19c2-2.01 2.19-3.18 2.19-13.85v-11.65l2.05 1.85 2.05 1.86-0.69-9.2c-0.58-7.67-0.46-9.2 0.75-9.2 0.79 0 1.96 0.51 2.59 1.14 0.86 0.87 1.44 0 2.32-3.5 1.29-5.14 1.64-5.43 3.47-2.92 1.07 1.46 1.36 0.7 1.99-5.18 0.66-6.13 0.89-6.69 2.09-5.04 1.27 1.72 1.4 1.63 1.99-1.29 0.34-1.72 1.1-3.04 1.68-2.92 1.51 0.3 3.45-7.18 4.99-19.29l1.35-10.5 1.34 7.25c0.74 3.98 1.71 7.25 2.15 7.25 1.55 0 8.95-12.03 11.85-19.26 1.61-4.02 4.06-11.67 5.44-17 2.84-10.906 4.35-14.218 11.38-24.823 8.15-12.307 9.05-14.678 10.34-27.085 1.45-13.82 0.81-17.828-3.5-22.138-4.05-4.051-8.78-5.517-20.47-6.347-5-0.355-8.89-0.98-8.64-1.388 0.26-0.409-0.64-1.465-1.98-2.347-1.35-0.882-5.17-5.111-8.49-9.396-8.02-10.342-15.04-14.766-23.18-14.612-3.13 0.0597-6.42 0.3913-7.33 0.7373-1.99 0.7638-12.3 22.147-15.92 33.019-3.78 11.332-3.29 24.176 1.05 27.778 2.54 2.107 11.52 1.914 18.55-0.398 4.82-1.585 8.73-2.05 16.82-1.999 11.42 0.071 15.3 0.848 27.32 5.465l7.85 3.018-6.85 3.704c-10.36 5.595-18.77 17.017-22.77 30.922-1.2 4.16-1.25 5.11-0.22 4.26 0.72-0.6 1.56-0.85 1.87-0.54 0.62 0.62-1.97 12.52-2.91 13.38-0.7 0.63 0.34-6.89 1.33-9.62 0.47-1.29 0.04-1.09-1.46 0.67-1.97 2.31-2.13 2.34-2.15 0.5-0.03-3.6 4.57-16.875 7.89-22.752 2.28-4.024 3.41-7.549 3.79-11.75 0.3-3.301 0.24-6.001-0.14-6.001s-1.56 1.912-2.62 4.25c-1.64 3.617-1.94 3.878-2.02 1.75-0.05-1.375-0.45-3.4-0.89-4.5-0.71-1.799-1.03-1.597-3.18 2l-2.38 4-0.75-7.5c-0.41-4.125-0.82-8.084-0.92-8.798-0.11-0.901-1.56-1.207-4.75-1l-4.58 0.298 0.32 10.5c0.27 8.589-0.07 11.774-1.84 17.5-3.04 9.793-6.51 16.463-10.53 20.193l-3.44 3.2-1.14-2.2c-3.97-7.66-14.18-15.693-19.94-15.693h-2.13l1.96 3.323c2.67 4.52 5.03 12.06 5.85 18.68 0.63 5.1 1.1 5.88 6.56 10.85 4.43 4.04 6.85 7.37 9.85 13.57 3.8 7.85 5.16 14.58 2.94 14.58-0.71 0-0.71 0.6 0 1.93 0.57 1.06 0.99 3.2 0.94 4.75l-0.1 2.82-0.78-3c-0.43-1.65-1.5-4.65-2.37-6.65-1.56-3.57-1.55-3.64 0.49-3.11 1.81 0.48 1.99 0.23 1.39-1.85-0.39-1.31-1.94-5.09-3.45-8.39-2.94-6.43-12.35-17.54-13.71-16.19-0.45 0.44-0.7 4.94-0.54 10l0.28 9.19-2.56-3.45c-2.6-3.51-3.53-6.44-1.35-4.25 2.23 2.23 2.51 1.22 2.23-8.05-0.38-12.92-2.61-22.38-7.48-31.74-5.79-11.116-10.04-15.487-17.42-17.901-6.61-2.16-7.53-2.014-7.54 1.197 0 3.528-4.02 9.035-10.98 15.067-7.34 6.357-10.37 7.007-16.93 3.667-4.94-2.524-11.65-10.154-12.45-14.167-0.95-4.717-0.76-10.772 0.41-12.942 0.77-1.456 0.71-1.934-0.28-1.934-3.77 0-11.46 9.76-16.82 21.358-1.57 3.378-2.87 5.595-2.89 4.92-0.09-2.233 4.72-12.046 8.94-18.267 4.68-6.895 9.32-10.34 12.8-9.504 2 0.48 2.61-0.156 4.71-4.908 3.76-8.498 8.49-23.123 11.04-34.099 2.54-10.927 3.32-10.219 0.97 0.876l-1.46 6.876 3.87 4.398c5.14 5.84 7.4 10.697 8.05 17.313 0.51 5.226 0.67 5.492 3.82 6.132 4.34 0.881 6.87 3.301 7.62 7.264 0.52 2.781 1.19 3.387 4.85 4.367 2.33 0.626 4.97 1.421 5.87 1.766 1.31 0.507 1.76-0.297 2.34-4.182 2.32-15.642 8.07-28.953 15.27-35.363 4.54-4.041 4.62-4.201 1.76-3.512-1.65 0.396-3.71 1.36-4.58 2.143-2.06 1.859-2.62 1.802-5.65-0.578-1.5-1.179-4.05-2-6.23-2-4.08 0-12.18 2.47-16.04 4.895-2.33 1.462-2.41 1.453-1.16-0.119 2.09-2.641 0.66-3.52-5.06-3.116-3.86 0.272-4.71 0.122-3.17-0.558l2.1-0.931-2.21-8.836c-3-12.035-4.52-15.225-9.26-19.503-6.29-5.6746-7.61-6.1465-9.95-3.5436-1.09 1.2162-4.83 7.6116-8.3 14.212-7.07 13.422-16.81 29.011-17.63 28.198-0.29-0.293 1.09-3.054 3.06-6.135s3.58-5.796 3.58-6.034c0-0.237-1.91 0.437-4.25 1.498s-5.6 1.94-7.25 1.954c-5.36 0.046-9.37 3.458-12.7 10.801-4.87 10.74-7.83 24.083-8.48 38.218-0.66 14.303 0.65 21.393 5.82 31.503 4.89 9.55 4.91 9.55 10.23 2.57 4.17-5.49 4.65-6.67 4.79-11.83 0.1-3.5 0.32-4.48 0.56-2.51l0.4 3.23 2.41-2.73c3.07-3.49 3.07-2.22-0.01 5.27-1.4 3.4-2.46 7.94-2.45 10.5l0.03 4.5 1.7-3.43c2.06-4.16 4.88-5.61 3.79-1.96-0.39 1.31-1.36 6.44-2.16 11.39-1.34 8.32-1.32 9.28 0.31 12.74 0.97 2.05 2.01 3.74 2.31 3.75 0.3 0 1.14-1.68 1.87-3.74 1.66-4.7 3.42-6.74 7.18-8.29 2.5-1.04 3.23-0.97 4.78 0.43 1.66 1.5 1.95 1.51 3.14 0.09 0.71-0.87 1.9-1.34 2.64-1.06 0.81 0.31 2.07-0.94 3.24-3.21 1.59-3.11 6.86-8.21 8.48-8.21 0.25 0 3.92 2.04 8.15 4.55 4.24 2.5 7.81 4.41 7.94 4.25 0.13-0.17 0.66-1.1 1.18-2.07 0.81-1.52 1.8-0.7 6.9 5.67 4.4 5.51 7.61 8.38 12.33 11.02 3.51 1.97 6.77 3.58 7.25 3.58 0.47 0 1.78-1.92 2.9-4.25 2.57-5.37 4.76-8.29 5.59-7.46 0.36 0.35-0.54 5.27-2 10.92-8.57 33.29-10.99 42.23-13.79 50.79-1.71 5.22-3.94 11.16-4.96 13.19-2.48 4.94-7.88 8.92-12.58 9.28-2.09 0.15-2.89 0.09-1.79-0.14s3.22-0.9 4.7-1.48l2.7-1.06-1.61-4.14c-1.79-4.62-3.12-6.65-4.36-6.65-1.16 0-7.16 12.82-6.5 13.89 0.3 0.48-0.28 1.1-1.29 1.36-2.71 0.71-8.14 11.33-8.14 15.92 0 4.06 0.95 4.79 3.01 2.31 0.89-1.06 1.62-1.21 2.5-0.48 0.68 0.57 1.99 0.74 2.91 0.39 1.05-0.4 2.59 0.21 4.09 1.62l2.41 2.26 1.2-2.64c1.22-2.68 3.26-3.44 4.38-1.63 1.09 1.75 5.38 1.09 6.5-1 0.59-1.1 1.68-2 2.44-2 0.82 0 1.85-2.09 2.59-5.25 1.57-6.67 2.65-8.75 4.57-8.75 1.89 0 1.31 2.17-2.74 10.25-1.59 3.16-3.56 5.75-4.37 5.75-0.82 0-1.49 0.41-1.49 0.92s-1.33 1.59-2.96 2.41c-2.53 1.26-3.12 1.27-4.12 0.07-1.89-2.28-3.71-1.62-4.42 1.6-0.83 3.78-1.61 3.77-3.87-0.06-2.18-3.68-4.2-3.34-3.94 0.65 0.1 1.6 0.23 6.39 0.29 10.66 0.1 6.97 0.3 7.75 2.05 7.75 1.47 0 2.22 1.11 3.1 4.58 0.74 2.94 1.43 4.13 1.93 3.31 1.35-2.18 3.61 0.68 8.28 10.47 6.5 13.65 6.41 13.33 7.59 28.25 0.6 7.64 1.26 15.78 1.46 18.1 0.19 2.31 0.09 4.48-0.24 4.81s-1.84-0.89-3.35-2.71l-2.75-3.31-0.02 3.27c-0.03 2.82 0.62 3.68 4.67 6.25 5.61 3.56 6.01 3.6 9.01 0.78 2.19-2.05 2.44-2.09 4.02-0.51 0.92 0.93 2.41 3.61 3.3 5.95 1.08 2.82 2.1 4.1 3.05 3.79 2.69-0.87 8.44-0.26 12.18 1.3 3.17 1.33 3.74 2.03 3.74 4.63 0 2.85 0.2 3.03 2.75 2.42 1.51-0.37 2.88-0.77 3.03-0.89zm-35.9-239.73c-2.13-3.96-1.66-10.43 0.93-12.99l2.31-2.27 1.94 2.36c2.31 2.8 2.48 6.91 0.49 11.67-1.66 3.98-3.94 4.47-5.67 1.23zm4.14-1.8c0.6-1.12 0.95-3.94 0.79-6.25-0.25-3.44-0.67-4.21-2.31-4.21-1.6 0-2.06 0.77-2.32 3.9-0.6 7.35 1.5 10.94 3.84 6.56zm-72.41-0.55c-1.14-2.96-0.61-10.03 0.89-11.97 1.48-1.92 1.52-1.92 3 0 1.54 1.99 1.94 7.3 0.87 11.31-0.69 2.58-3.86 3.03-4.76 0.66zm3.53-2.66c0.48-4.33-0.08-8.75-1.1-8.75-1.01 0-1.85 6.54-1.25 9.7 0.64 3.34 1.93 2.81 2.35-0.95zm53.23 1.77c-0.78-2.04 0.24-8.53 1.55-9.84 2.06-2.06 4.19 1.37 3.88 6.23-0.25 3.89-0.64 4.64-2.55 4.91-1.38 0.19-2.5-0.31-2.88-1.3zm4.02-2.94c0.71-2.81-0.19-5.82-1.49-5.02-1.17 0.72-1.17 7.44-0.01 7.44 0.49 0 1.17-1.09 1.5-2.42zm-69.31-12.17c0.05-1.16 0.28-1.4 0.6-0.6 0.29 0.72 0.26 1.58-0.08 1.92-0.33 0.33-0.56-0.26-0.52-1.32zm69.59-0.08c-1.12-1.12-0.75-6.858 0.53-8.133 3.2-3.196 6.74 1.209 4.88 6.083-0.97 2.56-3.82 3.64-5.41 2.05zm4.13-4.634c-0.38-3.853-2.52-4.66-3.37-1.273-0.86 3.437 0.09 5.697 2.09 4.927 1.08-0.41 1.49-1.588 1.28-3.654zm-64.1 1.277c-0.88-3.376 1.15-8.976 3.25-8.976 2.6 0 4.35 5.248 2.85 8.538-1.4 3.085-5.33 3.365-6.1 0.438zm4.69-0.558c1.13-2.946 0.66-6.418-0.87-6.418-1.66 0-3.05 4.183-2.16 6.497 0.75 1.956 2.27 1.916 3.03-0.079zm31.61 246.74c0-1.24-3.01-3.67-7-5.65-1.92-0.96-4.4-2.56-5.5-3.56-2.43-2.21-10.5-1.64-10.5 0.74 0 2.25 5.14 6.49 6.93 5.71 4.06-1.75 6.95-1.5 10.69 0.95 4.18 2.73 5.38 3.14 5.38 1.81zm120.52-4.17c1.78-1.97 1.75-2.09-1.08-5.05-2.43-2.53-2.66-3.18-1.42-3.97 0.81-0.51 2.04-0.94 2.73-0.95 2.29-0.03 1.34-4.8-1.38-6.94-2.63-2.07-6.97-2.71-8.87-1.31-2.08 1.53-11.5 12.44-11.5 13.32 0 0.5 1.81 0.92 4.03 0.92 2.66 0 4.23 0.51 4.61 1.5 0.31 0.82 1.31 1.51 2.22 1.53 0.9 0.02 2.76 0.68 4.14 1.47 3.37 1.92 4.37 1.85 6.52-0.52zm-122.91-5.38c-1.58-3.78-0.96-4.39 2.54-2.52 3.11 1.66 3.21 0.56 0.42-4.95-1.41-2.79-2.57-5.65-2.57-6.36 0-0.72-2.14-1.84-4.75-2.5-2.61-0.65-5.76-1.49-7-1.85-2.18-0.64-2.25-0.44-2.25 6.27 0 6.42 0.22 7.15 3.05 9.86 2.68 2.56 10.91 6.73 11.76 5.95 0.17-0.16-0.37-1.91-1.2-3.9zm21.76-5.85c3.24-8.9 3.26-10.14 0.24-11.52-2.2-1-2.52-0.79-3.94 2.59l-1.56 3.68 0.2-5 0.19-5-4.21-0.31c-4.82-0.35-7.62 0.86-9.84 4.24-1.45 2.22-1.34 2.8 1.75 9.18 3.46 7.13 3.71 7.3 13.92 9.27 0.33 0.06 1.8-3.15 3.25-7.13zm5.67-8.25c-1.88-17.92-2.97-22.46-7.72-32.22-2.49-5.11-4.9-9.52-5.35-9.8-0.46-0.29-1.45 0.37-2.21 1.45-1.27 1.81-1.48 1.49-2.61-3.98-1.09-5.28-1.5-5.95-3.63-5.95-2.36 0-2.39-0.12-1.82-6.98 0.45-5.34 0.17-8.07-1.17-11.57l-1.75-4.6-2.2 2.08c-3.09 2.89-3.58 2.63-3.58-1.93 0-4.53-0.13-4.62-3.54-2.39-1.67 1.1-2.46 2.54-2.46 4.5 0 1.59 0.45 2.89 1 2.89s1 0.62 1 1.39c0 1.59 2.12 2.61 5.46 2.61 1.26 0 2.76 0.56 3.34 1.25 1.73 2.09 0.78 7.86-1.62 9.8-1.2 0.97-2.18 2-2.18 2.28s1.35 1.86 3 3.51c3.63 3.63 3.7 5.11 0.6 12.71l-2.4 5.9 4.65 1.19c7 1.81 10.14 3.18 10.72 4.68 0.29 0.75-1.07 3.78-3.02 6.75-4.81 7.29-4.67 7.97 1.48 7.24 3.97-0.47 5.39-0.24 6.75 1.12 0.95 0.94 3.18 2.57 4.97 3.62 3.69 2.18 3.81 2.78 1.8 9.45-1.38 4.59-1.34 4.98 0.75 7.91l2.2 3.09 0.35-2.5c0.2-1.38-0.17-7.45-0.81-13.5zm-42.76 2.21c-0.01-7.79-0.27-9.07-2.3-11.24-2.57-2.73-8.55-4.3-10.18-2.67-1.15 1.14-0.35 8.72 1.18 11.17 0.78 1.26 1.25 1.18 3.22-0.55 5.69-4.99 5.86-4.76 2.16 3.04-4.09 8.6-3.77 9.78 2.53 9.3l3.39-0.26v-8.79zm111.53 5.33c2.78-3.76 2.75-4.21-0.45-7.41-2.6-2.6-2.6-2.63-0.41-2.63 2.05 0 2.18-0.33 1.57-4.25-1.35-8.74-10.55-13.23-20.77-10.15-2.16 0.65-2.32 4.68-0.25 6.4 2.06 1.71 1.88 3-0.42 3-3.59 0-5.08 1.17-5.08 3.99 0 3.97 2.69 6.51 8.99 8.48 3.02 0.95 7.07 2.56 9 3.58 4.71 2.49 5.28 2.42 7.82-1.01zm10.62-3.51c5.01-5.87 10.1-16.13 13.09-26.38 2.19-7.48 1.46-9.49-3.62-9.98-1.87-0.18-4.12-0.98-4.99-1.76-1.42-1.28-1.77-1.02-3.2 2.32-0.88 2.07-2.98 6.99-4.66 10.93-3.03 7.12-4.24 17.48-2.19 18.75 0.47 0.29 2.55-2.72 4.61-6.69 4.01-7.73 6.33-11 4.66-6.57-0.56 1.46-2.6 5.82-4.56 9.7-1.95 3.88-3.28 7.75-2.95 8.6 0.33 0.86-0.13 2.68-1.03 4.05-2.92 4.46 0.05 2.63 4.84-2.97zm-106.66-8.37c0.69-0.44 3.46-4.6 6.14-9.23 3.65-6.3 4.59-8.72 3.73-9.55-1.58-1.55-7.38-3.38-10.71-3.38-3.1 0-4.11 2.08-6.41 13.27-1.13 5.49-1.08 6.17 0.62 7.87 1.97 1.96 4.52 2.36 6.63 1.02zm-14.51-14.07c0.8-11.72 2.42-13.08 1.92-1.61-0.36 8.11-0.19 9.52 1.13 9.52 1.65 0 2.11-1.09 3.19-7.5 0.37-2.2 2.26-7.83 4.2-12.5 1.93-4.68 3.89-9.48 4.35-10.67 0.65-1.69 0.25-2.76-1.77-4.78l-2.61-2.61-2.75 2.64c-1.52 1.45-3.01 3.64-3.32 4.86-0.38 1.55-1.82 2.61-4.69 3.46-3.4 1.02-4.39 1.92-5.64 5.09-1.39 3.53-1.91 3.91-6.22 4.5-3.75 0.52-5.04 1.22-6.38 3.49-1.44 2.44-1.5 3.38-0.42 6.68l1.25 3.84 6.17 0.29c3.86 0.19 6.61 0.84 7.37 1.75 2.62 3.16 3.67 1.56 4.22-6.45zm119.2-10.09c3.46-8.31 4.71-9.69 6.83-7.57 0.86 0.86 2.72 1.57 4.12 1.57 1.96 0 3.01-0.91 4.57-3.96 2.57-5.04 2.54-5.62-0.43-8.59-2.78-2.77-8.03-3.22-12.97-1.12l-2.92 1.25 2.92 2.35c3.07 2.48 3 2.48-3.53 0.46-1.75-0.54-1.9-0.23-1.39 2.89 0.31 1.92 0.08 4.33-0.52 5.35-0.89 1.55-1.09 1.09-1.15-2.63-0.06-4.39-0.1-4.44-1.45-2-1.33 2.38-1.39 2.28-1.22-2.41 0.17-4.62 0.01-4.95-2.7-5.7-1.59-0.43-3.84-1.64-5-2.68-1.85-1.65-2.7-1.75-6.62-0.83l-4.5 1.07 4 0.35c3.8 0.33 7.5 2.49 7.5 4.38 0 0.48-1.33 0.18-2.95-0.66-5.86-3.03-11.87-1.52-17.49 4.39-3.71 3.91-2.72 3.94 2.6 0.09 2.86-2.08 5.25-2.98 7.74-2.94 3.57 0.07 3.56 0.08-1.18 1.36-4.91 1.32-9.72 4.91-9.72 7.25 0 1.66-0.04 1.66 4.6-0.28s12.13-1.46 15.91 1.02c2.12 1.39 2.39 2 1.43 3.15-0.99 1.2-0.56 1.45 2.69 1.54l3.87 0.1-3.75 1c-3.41 0.91-3.75 1.31-3.75 4.43 0 3.92 2.16 5.37 5.19 3.48 1.76-1.1 1.83-1.02 0.8 0.9-1.42 2.66-3.63 3.53-5.34 2.11-0.74-0.61-1.63-0.81-2-0.44s1.03 1.61 3.09 2.76c2.07 1.15 4.2 3.08 4.73 4.28 0.87 1.97 1.18 1.62 3.12-3.52 1.19-3.14 3.38-8.63 4.87-12.2zm-17.66 7.8c1.88-1.88 1.5-8.52-0.55-9.75-1.65-0.99-1.65-1.13-0.03-2.39 2.64-2.06 0.21-3.66-5.54-3.66-5.6 0-5.52-0.71-1.05 10.25 2.76 6.77 4.56 8.16 7.17 5.55zm-111.39-10.11c0.98-0.72 2.88-4.88 4.22-9.25 2.06-6.7 2.36-7.23 1.95-3.37-0.49 4.55-0.48 4.57 2.38 4.15 2-0.3 3.24-1.28 4.04-3.23 0.64-1.54 2.25-3.82 3.58-5.07 1.97-1.85 2.44-3.31 2.51-7.85 0.08-5.18 0.16-5.34 1.03-2.32 1.02 3.52 2.31 4.18 3.27 1.66 1.31-3.4 0.63-6.17-1.64-6.77-1.24-0.33-2.4-0.17-2.57 0.35-0.18 0.52-1.53-0.16-2.99-1.52-1.47-1.36-3.21-2.47-3.88-2.47s-1.67-0.79-2.23-1.75c-0.92-1.58-1.02-1.54-1.05 0.41-0.02 1.2 1.2 3.13 2.72 4.32l2.75 2.15-2.75-0.58c-3.49-0.75-3.55 0.71-0.2 5.1 1.4 1.84 2.09 3.35 1.53 3.35s-2.02-1.35-3.24-3c-2.59-3.51-3.47-3.64-6.84-1-1.38 1.07-3.7 1.96-5.18 1.97-1.68 0.02-3.44 1-4.75 2.66-2.42 3.08-2.72 6.37-0.57 6.37 2.34 0 1.81 1.99-2.5 9.37-2.2 3.77-4 7.02-4 7.24 0 1.05 12.83 0.23 14.41-0.92zm-11.96-7.04c4.11-7.35 4.18-7.65 1.66-7.65-1.14 0-2.48 1.27-3.41 3.25-1.68 3.56-3.26 10.75-2.36 10.75 0.31 0 2.16-2.86 4.11-6.35zm114.99-14.65c2.13 0 1.96-0.94-0.69-3.82l-2.25-2.45 2.39 1.24c2.28 1.19 2.35 1.13 1.7-1.48-0.38-1.5-0.95-4.06-1.28-5.7-0.7-3.48-2.35-4.38-5.23-2.84-1.9 1.02-2.08 2.01-2.08 11.3v10.19l2.94-3.22c1.62-1.77 3.65-3.22 4.5-3.22zm22.19-1.75l-0.54-4.75 1.34 3.5 1.35 3.5 1.03-2.5 1.03-2.5 0.71 3.25c0.38 1.78 1.32 3.25 2.07 3.25 1.06 0 1.38-1.88 1.38-8 0-8.31 1.05-10.16 2.85-5 1.32 3.79 3.15 3.88 3.15 0.15 0-3.28-2.06-5.44-7.25-7.62-5.93-2.47-9.23-2.01-12.17 1.72-2.1 2.66-2.56 2.9-2.57 1.3-0.01-1.46-0.3-1.66-1.14-0.82-0.85 0.85-0.71 2.2 0.54 5.33 2.4 6 1.39 5.84-1.89-0.31-1.55-2.89-5.02-8.53-7.71-12.54-3.2-4.75-4.2-6.85-2.86-6.01 1.13 0.7 2.05 1.62 2.05 2.04 0 0.41 0.46 0.76 1.03 0.76 0.58 0 0.37-1.26-0.5-2.95-2.24-4.32-1.81-4.98 1.02-1.55l2.47 3-1.53-4.5c-0.85-2.48-2.57-6.3-3.83-8.5-1.93-3.37-2.75-3.97-5.22-3.79-5.23 0.39-15.44 5.85-15.44 8.25 0 0.34 2.43 1.45 5.39 2.45 2.97 1.01 6.68 2.86 8.25 4.12l2.86 2.28-2.59-0.49c-2.22-0.42-3.15 0.27-6.38 4.76-3.56 4.96-3.67 5.34-1.96 6.59 2.91 2.13 6.1 1.55 9.9-1.78 1.94-1.7 3.53-2.63 3.53-2.06 0 0.58-0.45 1.33-1 1.67-1.66 1.03-1.15 1.98 2.11 3.9 2.14 1.27 2.73 2.08 1.88 2.6-2.13 1.32 0.62 7.59 3.94 8.97 1.56 0.64 4.1 2.49 5.64 4.1 2.02 2.11 3.75 2.93 6.2 2.93h3.39l-0.53-4.75zm-125.86-4.44c-0.62-1.85-2.46-2.06-3.12-0.36-0.41 1.09 0.03 1.55 1.46 1.55 1.14 0 1.88-0.53 1.66-1.19zm2.98-6.02c-0.48-5.06-0.45-5.14 1.24-3.06 1.88 2.32 4.01 1.38 4.01-1.77 0-2.56 1.18-3.1 2.62-1.2 1.19 1.58 1.32 1.49 1.35-0.92 0.03-2.49-0.29-2.67-5.22-3.03-2.89-0.2-5.4-0.03-5.58 0.38-0.17 0.42-2.77-1.09-5.77-3.36-5.31-4-8.1-4.62-5.29-1.17 1.22 1.51 1.18 1.63-0.36 1.06-1.4-0.53-1.75-0.12-1.74 2.06 0.03 5.58 0.98 7.17 3.92 6.58 2.21-0.44 3.06-0.01 4.53 2.3 1.98 3.12 5.63 7.34 6.34 7.34 0.25 0 0.23-2.34-0.05-5.21zm115.68-11.54l1.49-2.75 0.04 2.75c0.04 3.04 2.99 3.99 3.11 1 0.04-0.97 0.41-4.11 0.82-7 0.66-4.58 0.49-5.48-1.32-7.14-2.6-2.39-11.66-8.11-12.85-8.11-0.95 0-0.27 4.34 1.55 10l1.13 3.5 0.68-3c0.48-2.12 0.72-0.93 0.8 4.05 0.07 3.99 0.64 7.57 1.32 8.25 1.58 1.58 1.51 1.61 3.23-1.55zm-101.6-2.33c5.26-4.14 21.17-33.43 21.17-38.97 0-1.08 0.45-1.95 1-1.95 1.35 0 1.26 1-0.5 6-1.82 5.17-1.82 5-0.1 5 0.77 0 2.21 2.24 3.2 5.01 0.99 2.76 2.28 4.86 2.85 4.68 2.3-0.76 5.72-7.52 9.11-18.01 3.55-11 3.56-11.05 1.66-13.61-3.6-4.86-8.03-7.08-14.12-7.05-7.52 0.03-13.26 2.75-16.67 7.9-1.48 2.24-2.87 4.08-3.08 4.08-0.7 0 3.6-7.85 4.65-8.5 3.17-1.96-3.95-4.88-9.78-4.01-6.64 0.99-11.31 6.13-14.59 16.05-7.26 22-6.53 42 1.68 45.5 3.26 1.39 10.49 0.26 13.52-2.12zm43.6-62.56c1.28-4.88 3.74-14.23 5.47-20.78 3.56-13.47 3.6-16.74 0.1-8.29-1.3 3.14-2.72 5.71-3.15 5.71s-4.38-1.84-8.77-4.08c-5.28-2.7-8.67-3.87-10-3.45-1.11 0.35-4.49 3.37-7.51 6.71-5.66 6.26-8.64 13.01-10.01 22.68-0.89 6.29 0.46 7.49 5.75 5.08 7.86-3.57 17.42-2.05 22.74 3.61 1.26 1.34 2.46 2.27 2.67 2.06 0.22-0.22 1.43-4.38 2.71-9.25zm-51.45-5.93c-1.56-4.59-3.57-11.86-4.48-16.14-2.79-13.08-4.4-17.29-6.63-17.29-2.74 0-6.3 4.15-7.77 9.05-1.05 3.5-1.01 4.3 0.26 5.29 0.82 0.63 2 3.09 2.62 5.46 0.91 3.47 1.47 4.19 2.94 3.72 1.38-0.43 2.11 0.22 3.05 2.7 0.67 1.8 2.04 4.85 3.04 6.78 1 1.92 2.14 5.3 2.54 7.5 1 5.58 1.2 5.74 4.4 3.37l2.85-2.1-2.82-8.34zm16.89 0.82c1.74-9.7 5.3-16.36 11.89-22.23 3.1-2.76 6-5.02 6.44-5.02 1.54 0 0.77-1.68-3.18-6.97-3.58-4.8-4.05-5.13-4.75-3.27-0.73 1.96-1.23 1.79-9.67-3.39l-8.9-5.46-2.73 2.61c-1.5 1.44-3.55 4.5-4.55 6.8-2.32 5.35-2.13 5.16-3.8 3.78-1.16-0.97-1.6-0.67-2.36 1.6-1.21 3.65 0.49 12.49 5.2 27.05l3.64 11.25h5.78 5.77l1.22-6.75zm68.96-66.57c3.2-3.41 8.92-18.385 9.23-24.183 0.43-8.049-0.03-17.897-0.9-19.271-0.64-1.011-1.91-0.923-6.23 0.43-2.99 0.935-5.59 1.821-5.79 1.968-0.21 0.148 1.1 3.78 2.89 8.071 5.63 13.481 5.2 24.555-1.24 31.885-3.42 3.9-1.54 4.91 2.04 1.1zm-1.38-4.69c1.65-2.82 2.04-5.131 1.98-11.993-0.04-4.675-0.67-10.271-1.39-12.435l-1.32-3.934-2.33 4.583c-3.23 6.364-8 9.174-14.49 8.55-5.64-0.542-12.18-4.973-12.72-8.616-0.49-3.302-1.88-2.551-2.63 1.416-0.53 2.822-0.12 4.486 1.93 7.994 2.21 3.768 3.2 4.527 6.62 5.073 4.82 0.772 14.75 6.972 17.24 10.762 2.28 3.48 4.5 3.04 7.11-1.4zm-64.75-5.853c7.18-5.676 9.99-9.474 11.21-15.16 1.54-7.181 1.44-7.785-1.87-11.096l-2.96-2.962-9.29 0.624c-11.32 0.76-18.8 2.699-21.36 5.537-2.76 3.049-2.47 10.294 0.64 15.843 2.98 5.32 11.07 11.077 15.58 11.077 2.17 0 4.71-1.22 8.05-3.863zm1.3-18.788c-3.58-0.93-8.74-1.288-14.79-1.027-15.79 0.68-8.6-3.942 7.83-5.029 6.76-0.447 9.2-0.225 11.69 1.062 1.73 0.895 3.44 2.1 3.79 2.678 0.65 1.054-1.21 4.061-2.39 3.853-0.35-0.061-3.11-0.753-6.13-1.537zm7-1.329c0-0.538-1.14-1.725-2.54-2.639-2.04-1.339-4.15-1.561-10.87-1.141-11.6 0.723-14.7 2.644-4.59 2.845 4.12 0.081 8.85 0.492 10.5 0.912 4.41 1.123 7.5 1.133 7.5 0.023zm25.42-6.856c2.42-4.795 7.94-10.167 10.42-10.167 0.81 0 1.15-3.139 1.12-10.25l-0.05-10.25-3.99 4.5c-6.33 7.137-10.22 17.025-11.87 30.139-0.98 7.813-0.08 12.088 1.1 5.216 0.39-2.28 1.86-6.415 3.27-9.188zm79.57 1.298l3.48-1.76-8.48-3.227c-4.67-1.775-11.27-3.462-14.66-3.75l-6.16-0.524 0.55 5.648c0.31 3.106 0.75 5.866 0.99 6.133 0.23 0.267 1.24-0.594 2.24-1.913l1.8-2.399 1.25 2.323c1.1 2.058 1.35 2.134 2.17 0.664 2.37-4.243 5.79 0.372 4.4 5.936-0.63 2.489-0.46 2.432 4.14-1.388 2.63-2.191 6.36-4.776 8.28-5.743zm-69.04-2.224c2.66-2.152 1.84-5.504-1.23-5.044-2.51 0.377-4.24 2.998-3.41 5.167 0.8 2.095 1.94 2.065 4.64-0.123zm-48.29-3.797c0.33-0.856 0.14-2.994-0.43-4.75l-1.03-3.194-0.1 2.815c-0.05 1.549-0.57 3.687-1.14 4.75-0.81 1.53-0.7 1.935 0.54 1.935 0.86 0 1.83-0.701 2.16-1.556zm5.15-3.303c0.37-4.997-3.09-13.238-7.3-17.391-2.34-2.31-4.48-3.493-4.52-2.5-0.01 0.137-0.67 2.434-1.48 5.104l-1.48 4.854 2.32-0.582c4.1-1.028 8.65 4.906 8.65 11.272 0 5.91 3.37 5.24 3.81-0.757zm-13.01-3.341c1.81-1.807 1.44-3.8-0.69-3.8-1.97 0-3.53 2.506-2.55 4.09 0.76 1.236 1.81 1.143 3.24-0.29z" />
  <metadata
     id="metadata5">
    <rdf:RDF>
      <cc:Work>
        <dc:format>image/svg+xml</dc:format>
        <dc:type
           rdf:resource="http://purl.org/dc/dcmitype/StillImage" />
        <cc:license
           rdf:resource="http://creativecommons.org/licenses/publicdomain/" />
        <dc:publisher>
          <cc:Agent
             rdf:about="http://openclipart.org/">
            <dc:title>Openclipart</dc:title>
          </cc:Agent>
        </dc:publisher>
        <dc:title>Coloring Book Dog - Ilio</dc:title>
        <dc:date>2007-09-16T20:27:21</dc:date>
        <dc:description>Ilio, a cartoon dog in an Army coloring book on what to do if you find unexploded ordinance. https://www.denix.osd.mil/denix/Public/Library/Explosives/UXOSafety/Posters/MMRP-Ilio-cb.pdf</dc:description>
        <dc:source>https://openclipart.org/detail/5520/coloring-book-dog---ilio-by-fundraw_dot_com</dc:source>
        <dc:creator>
          <cc:Agent>
            <dc:title>FunDraw_dot_com</dc:title>
          </cc:Agent>
        </dc:creator>
        <dc:subject>
          <rdf:Bag>
            <rdf:li>animal</rdf:li>
            <rdf:li>cartoon</rdf:li>
            <rdf:li>colouring book</rdf:li>
            <rdf:li>contour</rdf:li>
            <rdf:li>dog</rdf:li>
            <rdf:li>externalsource</rdf:li>
            <rdf:li>line art</rdf:li>
            <rdf:li>pet</rdf:li>
            <rdf:li>puppy</rdf:li>
          </rdf:Bag>
        </dc:subject>
      </cc:Work>
      <cc:License
         rdf:about="http://creativecommons.org/licenses/publicdomain/">
        <cc:permits
           rdf:resource="http://creativecommons.org/ns#Reproduction" />
        <cc:permits
           rdf:resource="http://creativecommons.org/ns#Distribution" />
        <cc:permits
           rdf:resource="http://creativecommons.org/ns#DerivativeWorks" />
      </cc:License>
    </rdf:RDF>
  </metadata>
</svg>
