<?xml version="1.0" encoding="UTF-8" standalone="no"?>
<!-- Created with Inkscape (http://www.inkscape.org/) -->

<svg
   xmlns:dc="http://purl.org/dc/elements/1.1/"
   xmlns:cc="http://creativecommons.org/ns#"
   xmlns:rdf="http://www.w3.org/1999/02/22-rdf-syntax-ns#"
   xmlns:svg="http://www.w3.org/2000/svg"
   xmlns="http://www.w3.org/2000/svg"
   xmlns:sodipodi="http://sodipodi.sourceforge.net/DTD/sodipodi-0.dtd"
   xmlns:inkscape="http://www.inkscape.org/namespaces/inkscape"
   id="svg2"
   xml:space="preserve"
   version="1.0"
   width="100"
   height="100"
   viewBox="0 0 522.605 377.074"
   inkscape:version="0.91 r13725"
   sodipodi:docname="goldfinch.svg"><defs
     id="defs278" /><sodipodi:namedview
     pagecolor="#ffffff"
     bordercolor="#666666"
     borderopacity="1"
     objecttolerance="10"
     gridtolerance="10"
     guidetolerance="10"
     inkscape:pageopacity="0"
     inkscape:pageshadow="2"
     inkscape:window-width="1183"
     inkscape:window-height="1011"
     id="namedview276"
     showgrid="false"
     inkscape:zoom="0.15646796"
     inkscape:cx="-463.65534"
     inkscape:cy="1224.8362"
     inkscape:window-x="493"
     inkscape:window-y="18"
     inkscape:window-maximized="0"
     inkscape:current-layer="svg2" /><rect
     style="fill:#ffffff;fill-opacity:1;stroke:#ffffff;stroke-opacity:1"
     id="rect4406"
     width="536.85114"
     height="409.02942"
     x="6.3910847"
     y="-6.3910842" /><g
     id="Layer_1"><path
       id="path7"
       style="fill-rule:evenodd;fill:#231f20"
       d="m408.3 377.07c-6.97-7.62-5.08-22-4.35-30.86-5.16 1.38-0.07 33.91-8.57 28.25-3.12-7.19-2.76-11.98-1.82-19.1-4.35 0-11.54 11.04-18.95 10.02-4.94-5.95 14.81-15.54 19.17-18.88 0.95-3.92 0.88-7.04 1.46-10.67-2.04 0-26.94 13.65-26.94 5.23 3.26-5.45 14.3-7.63 20.26-9.3 3.92-2.47 6.82-8.13 8.93-12.13-0.8 0-13.95 8.14-14.96 9.23-6.61 3.26-16.27 7.69-22.8 4.06 1.01-6.24 8.13-7.48 13.43-8.86 10.75-4.43 29.56-11.32 32.24-23.38-4.94 0-14.88 14.45-21.78 8.93v-1.81c9.44-9.44 22.29-15.04 29.84-26.8-2.61 0-5.01 2.25-7.04 3.56-5.88 2.47-12.34 4.21-17.57 6.83 0.29 2.03 5.3 10.89-1.31 9.8-2.91-2.33-7.55-8.43-8.93-10.89 0.94-3.2 0.51-3.78-0.22-6.32h-0.65c-1.96 7.12-2.26 17.72-6.54 24.18-8.86 3.56 2.83-32.1 4.58-36.09 0.14-3.34 0.28-6.68 0.5-9.95-0.58 0-0.8 0.22-6.24 1.89-0.07 5.08 1.16 17.14-5.96 9.08-0.43-1.67-0.87-3.34-1.3-4.94h-0.58c-1.38 1.74-8.79 25.63-13.22 19.02 0.22-3.77 1.6-8.2 2.61-11.18-2.18 0-3.34 2.25-4.57 3.63-11.48 6.83-4.36 24.04-3.92 35.66-0.44 0.65-0.88 1.3-1.24 2.03-6.1 0-9.36-13.94-9.58-18.08-2.04 0.22-3.56 7.48-6.25 9.44-10.89-1.82 4.87-21.21 6.47-24.4-0.08-2.83-0.08-5.67-0.08-8.5-0.22-0.07-0.43-0.14-0.58-0.14-9.58 14.38-17.79 31.51-13.87 49.81-0.22 3.42-0.36 5.23-3.99 4.87-11.77-7.05 0.22-42.34 6.32-50.76 0-0.29 0.07-0.58 0.14-0.87-1.23 0.14-2.4 0.29-3.56 0.43-0.14 0.58-0.29 1.24-0.36 1.89-7.41 13.8-4.72 29.63-14.38 42.19-4.79 0-3.56-9.22-3.77-12.2-1.97 0-10.97 31.01-15.25 22.37 0-16.92 15.68-31.52 17.13-47.78-0.21 0-13.5 13.72-16.63 14.96-2.25 12.85-0.36 26.5-1.59 40.08-1.02 2.76-1.75 2.98-4.21 3.2-6.69-7.92-5.16-27.82-4.14-36.02-1.46 0-8.36 4.06-10.17 5.01-0.29 0.65-9.3 21.35-11.98 15.32 0-13.36 8.93-31.44 17.57-41.54-9.37 0-16.27 32.1-23.24 27.45 0-11.98 9.01-23.67 15.11-33.26-0.22-0.07-0.44-0.14-0.58-0.14-16.56 18.08-18.59 33.11-18.23 58.31-1.31 2.98-2.47 3.63-5.52 2.76-13.8-9.88 4.72-50.18 13.36-61.15-9 0-25.85 39.73-29.26 49.46-0.58 4.21-0.51 5.59-4.43 7.55-11.19 0 5.59-31.59 6.68-34.13-2.11 0-19.68 13.36-18.45 2.03 2.62-3.41 7.19-5.3 10.9-8.06 4.93-6.17 11.76-11.47 17.93-16.63-4.57 0-8.57 3.42-12.49 3.42-4.5 3.7-6.97 15.83-13.87 10.31 0-1.89 0-1.89 0.37-3.78-1.89 0.15-3.71 1.82-5.16 2.91 0 2.1-0.66 17.57-4.79 17.57-3.71-2.91-3.27-5.74-3.78-9.44-4.36 0-8.86 11.25-15.18 9.15-2.68-4.07 9.23-14.31 11.11-16.41 6.98-5.67 5.09-10.75 9.95-18.09v-0.65c-1.38-1.01-2.54-3.05-3.34-3.27-9.37 7.99-19.1 5.3-24.25 17.65-3.27 2.69-6.54 14.16-12.56 12.71-3.35-2.25 7.62-19.03 8.93-21.06-1.67-0.07-3.34-0.15-5.01-0.15-7.12 14.31-9.95 29.05-11.33 45.25-0.37 0.58-0.73 1.16-1.09 1.74-9.15 0-1.74-28.83-1.09-32.68-3.2 0-8.35 27.16-11.77 31.15-9.8 0 3.64-30.57 5.45-34.93 0-1.52-0.94-1.52-1.16-1.96-6.32 0-9.73 28.83-18.66 28.83-10.61-5.81 10.45-30.21 14.3-34.78-0.21-0.07-0.43-0.07-0.58-0.07-10.67 9.22-18.44 30.57-31.81 33.4-7.91 13.65-11.904-2.61-7.838-6.68 0.146-0.65 0.363-1.31 0.581-1.89-0.29-0.07-0.581-0.14-0.871-0.14-2.614 3.55-6.245 9.95-9.949 12.27-10.021 0 9.368-21.2 6.028-27.23h-0.654c-10.675 12.2-9.586 29.04-12.999 44-5.01 6.68-5.591-8.06-5.591-8.57 0.436-3.04 1.743-9.87 1.38-12.41-4.285 2.54-2.832 14.01-9.731 16.26-8.787-5.88 9.586-27.01 7.843-36.01-5.665 7.76-10.82 23.3-12.345 33.25-1.598 2.4-0.073 5.89-2.179 8.57-7.48 0-3.05-13.87-3.05-18.15-2.469-1.6-1.815-6.83-1.743-8.72h-0.798c-0.799 1.97-7.843 20.12-13.217 14.75 0.218-5.67 1.598-10.39 4.648-14.96-0.291-0.08-0.581-0.15-0.799-0.15-7.189 6.32-21.931 31.59-29.918 31.59-10.385-5.16 24.472-36.53 31.661-41.61 0.799-1.89 1.234-2.54 1.379-3.34-13.071 3.27-25.198 13.72-35.727 21.71-3.268 3.78-13.435 12.2-11.401 0.94 13.434-16.48 32.097-24.47 52.139-30.28 0-0.14 0.073-0.21 0.145-0.29-5.301-2.61-27.449-8.86-25.488-17.86 4.792-3.85 22.438 9.51 30.063 11.04 0-1.31-0.29-1.6 0.291-2.47 0-1.31-13.289-5.81-13.289-11.91 3.994-3.99 14.814 3.85 19.679 3.85 0.436-0.51 0.654-1.09 0.654-1.74-8.061-4.44-17.138-8.5-23.093-14.46-6.245-14.16 22.875 4.36 23.456 4.36 4.793-6.03 17.283 5.3 21.712 3.85v-2.47c2.905-1.89 12.055 4.79 17.571 3.92-0.65-1.09-41.244-13-27.011-18.01 6.681 0 15.322 6.39 22.439 8.86v-0.58c-4.866-3.63-8.714-9.66 0.802-7.84 8.06 3.34 13.94 7.48 23.31 8.86-0.73-2.11-1.38-3.2-1.38-4.58 4.06-4.06 11.76 2.47 16.34 4.87 0.65 0.65 5.3 0.72 7.04 0.8 0.07-0.15 0.15-0.22 0.22-0.29-0.8-1.24-0.8-1.24-1.24-2.47-6.17-1.82-17.28-3.63-20.77-7.99-11.9 0-24.976-2.98-34.489-8.93-4.72 0-25.633 7.26-27.594 5.3-1.598-14.67 9.803-20.55 10.166-32.39 4.212-20.69 11.619-32.82 31.737-40.66 3.34-0.66 8.78-3.35 12.49-4.8 3.92-0.43 3.92-0.43 14.52-1.01 0.07-0.15 0.15-0.22 0.22-0.29-2.11-1.75-7.77-2.18-9.73-2.62-9.37-8.42 9.66-5.52 13.87-3.41v-0.66c-2.91-2.03-5.96-3.19-5.96-6.02 7.12-4.43 11.55 3.19 18.01 4.21 0.08-0.15 0.15-0.22 0.22-0.29-3.2-2.76-5.23-3.92-7.48-6.97-11.47 0-19.1 3.99-28.46 9.8-12.713 6.03-6.98-6.97-0.73-11.55 3.05-1.52 3.05-1.52 3.85-2.25-0.08-0.14-0.15-0.29-0.22-0.36h-13.51c-2.757 1.82-7.622 5.74-10.309 3.05 0-15.39 22.879-16.34 34.199-16.34 0.15-0.14 0.29-0.22 0.51-0.29-0.07-0.22-0.07-0.43-0.07-0.58-7.04-2.47-32.679 0.94-35.874-3.56 0-9.44 24.474-7.55 30.644-4.06 0.15-0.08 0.29-0.08 0.51-0.08v-0.87c-7.84-5.08-23.021-31.006-14.38-36.453h0.8c7.04 8.061 10.09 19.603 17.43 28.393 0.07-0.07 0.14-0.14 0.29-0.22-0.22-4.21-4.43-32.53 4.94-32.53 3.92 3.268 4.64 19.1 5.3 24.4 0.29 0.22 5.95-20.115 10.6-10.748-0.58 13.868-3.12 27.018-2.62 41.758 6.83-0.8 3.85-34.64 12.28-34.64 2.1 2.54 1.81 5.95 2.03 9.88 10.31-6.18 1.6 11.25-0.29 14.16 0.29 3.63 1.09 2.17 2.25 5.37 1.02 7.04 1.53 13.72 2.91 21.2 1.16 2.76 2.61 4.8 2.9 8.5 7.63 6.97 3.34-13 3.34-13.73 1.6-17.93 4.94-33.33 14.96-48.141 5.16-9.948 15.25-21.131 23.53-28.683 4.21-7.625 18.88-18.373 25.71-24.763 13.72-15.25 33.84-29.991 50.83-41.029 8.2-4.284 28.1-12.054 22.15 6.318-1.68 2.178 1.01 4.139 1.01 7.697-2.76 9.295 7.92 10.312 2.25 22.439 0 1.307-2.68 5.228-3.48 6.463-0.36 9.658-4.43 17.065-10.82 24.545 0 5.809 3.85 6.753-1.24 15.177-5.15 4.284-0.94 27.017-0.5 34.057 29.77-2.54 54.24-29.047 75.23-47.927 8.93-11.256 21.71-20.624 30.13-32.242 6.1-5.81 11.33-12.562 18.67-16.63 3.55 0 10.74 3.413 12.7 7.407 6.1 0.508 13.8-8.133 16.27 4.212 0.94 1.961 3.49 1.235 5.74 3.776 6.24 0 10.89-0.653 12.12 7.625 4.72 3.776 4.94 2.542 5.6 9.586 6.17 5.155 2.32 8.278 2.32 14.087 3.12 2.034 2.4 2.106 4.5 5.084 13.94 3.195-1.74 17.646 4.8 19.243 0 0.872 1.66 3.558 1.66 6.679 6.98 5.23-3.41 17.94-10.02 18.74-6.02 2.47-13.5 3.99-19.46 5.3 0 13.65 8.5 21.93 22.15 24.83 4.5 0 6.03 0 6.25-0.51-4.36-0.94-16.13-4.35-16.13-9.72 3.85-6.47 15.18 5.44 21.57 5.44 0.22-0.29 0.51-0.58 0.8-0.87-4.58-3.78-9.51-2.98-9.51-11.04 5.37-3.99 8.27 6.1 13.21 6.1 4.94-10.45 19.1-25.34 31.45-26.87v1.67c-7.48 0-30.5 19.61-28.91 26.15 3.42-2.47 5.31-7.48 9.23-9.95 5.44-5.3 12.71-11.48 19.46-14.96 0.07 1.31 0.15 2.61 0.22 3.92-2.25 0-9.95 10.53-9.95 14.38-3.05 5.59-4.58 19.17-4.21 26.14 0.72-0.15 1.45-0.22 2.25-0.29 1.81-14.02-1.31-23.24 8.86-32.75 0.72-1.02 1.45-2.03 2.18-3.05 0.29-0.07 0.58-0.07 0.87-0.07-0.07 3.48-0.15 6.97-0.22 10.45-0.29-0.14-0.58-0.29-0.87-0.43 0.14 10.67 1.02 22 1.09 33.04-17.43 1.16-32.97 8.28-43.79 22.22 0 0.15 0.07 0.36 0.14 0.58 14.6-10.46 25.57-16.48 43.43-21.35 0.07 0.65 0.15 1.31 0.22 2.03-2.33 0.51-11.33 2.91-11.69 4.36 3.77-0.58 6.53-0.51 10.82-0.51 0.22-0.36 0.43-0.65 0.65-0.94v36.82c-2.03-2.04-1.89-14.96-1.89-17.43-0.22 0-0.43 0.07-0.65 0.14-1.02 3.2-1.74 7.48-1.38 11.48 2.1 1.01 3.92 10.53 3.92 13.5-1.6-1.96-4.07-8.27-4.36-10.16-0.29 0-0.58 0.07-0.79 0.14-0.44 2.76-0.44 2.76-0.44 5.01 1.6 1.24 3.48 6.47 5.81 7.05-0.07 1.09-0.15 2.17-0.22 3.34-2.76-0.87-4.65-5.09-5.81-6.97-0.22 0-0.44 0.07-0.65 0.14-0.44 1.38-2.33 11.84-5.74 9.3-0.58-6.54 0.22-12.49 0.22-18.45-2.18-3.34-6.25-17.43-3.85-20.99-0.29-0.07-0.58-0.14-0.8-0.14-5.37 8.2-6.75 8.86-4.72 19.24 0.07 7.92-0.36 17.72 2.11 26 0.36 2.25 2.83 10.82-1.75 10.82-5.15-7.62-6.24-13.87-7.48-22.08h-0.65c-0.36 2.76-1.23 17.65-6.24 17.94-6.25-3.12-0.66-26.43 0.51-30.35 0.21-0.22 0.65-1.67 0.65-2.33-0.15-0.07-0.22-0.14-0.29-0.22-1.82 3.06-2.76 5.6-5.67 8.14-7.55 20.84 1.82 26.87 17.07 35.36 1.09 1.24 1.52 1.53 1.52 3.71-5.66 3.34-14.52-2.98-18.37-6.18-5.3 0.95 3.63 15.83 3.63 18.38-8.2 10.89-19.39-20.19-20.4-22.66-0.22-0.07-0.44-0.15-0.66-0.15 4 12.06 10.17 24.98 18.38 35.95 0.5 1.16 1.67 2.69 1.01 4.79-11.69 4.36-20.84-28.68-25.41-29.77-0.58 2.4-0.51 3.78-3.56 3.78 1.3 14.37 19.31 32.24 29.41 42.77 0 8.71-24.26-11.98-24.84-17.43h-1.23c-1.82-2.83-10.75-20.62-11.19-20.77-0.14 6.25-0.14 6.25 0.08 16.85-4.43 4.43-7.92-11.26-8.21-11.47-0.14 0.07-0.29 0.14-0.36 0.21-1.31 13.58 6.82 24.47 16.41 34.06 0.51 0.87 2.4 3.05 1.38 4.87-9.15 1.08-13.29-7.99-18.08-12.13 0 11.83 8.93 19.53 13.43 29.7 0 3.27-0.72 2.98-4.28 2.83-12.56-7.19-16.92-26.07-19.03-38.34-0.14-0.07-0.22-0.15-0.29-0.22-4.35 17.65-1.45 36.82 7.99 52.79 0.58 8.35-6.03 2.04-7.99-0.87-5.59-12.56-8.35-20.26-9.36-32.82-0.22-0.07-0.44-0.15-0.59-0.15-0.65 3.05-1.74 5.52-1.45 9.15 0.07 0 0.15 0.08 0.29 0.15 1.38 12.2 2.98 27.3 9.95 38.49 0.73 3.41 3.56 6.39 4.14 10.96-8.13 8.14-17.36-26.14-18.37-29.04-0.22-0.08-0.44-0.15-0.58-0.22-1.02 9.73-2.62 21.35-1.6 31.8-0.01 2.47 1.23 7.77-2.77 7.77" /><path
       id="path9"
       style="fill-rule:evenodd;fill:#ffffff"
       d="m396.69 373.08c-3.13-4.36-0.8-15.9-0.8-20.62 1.16-1.02 2.03-2.33 3.7-2.69-0.15 2.25-1.38 22.8-2.9 23.31" /><path
       id="path11"
       style="fill-rule:evenodd;fill:#ffffff"
       d="m408.3 372.86c-5.73-6.68-0.72-36.09 0.51-42.41 0.37-5.01 0.37-5.01 0.73-6.68 0.22 0.08 0.44 0.15 0.65 0.22 1.24 3.41 0.15 10.97 0.07 14.52-2.03 10.9-1.45 22.73-1.45 34.28-0.29 0.22-0.29 0.22-0.51 0.07" /><path
       id="path13"
       style="fill-rule:evenodd;fill:#ffffff"
       d="m429.51 366.62c-7.92-2.62-16.34-33.84-14.31-39.94 0.22-3.34 0.22-3.34 0.58-4.36 1.31 1.96 3.64 17.43 4.65 22 1.53 4.22 9.88 18.3 9.66 22.3h-0.58" /><path
       id="path15"
       style="fill-rule:evenodd;fill:#ffffff"
       d="m376.28 363.06c0-3.05 27.01-21.13 27.3-20.77-6.02 6.03-19.09 18.59-27.3 20.77" /><path
       id="path17"
       style="fill-rule:evenodd;fill:#ffffff"
       d="m433.87 343.82c-9.44-7.34-13.58-34.93-12.06-44.37 1.53 1.52 3.05 3.05 4.58 4.57-4.07 7.34 1.3 25.42 4.86 33.48 0.73 1.02 3.56 4.36 3.2 6.32h-0.58" /><path
       id="path19"
       style="fill-rule:evenodd;fill:#ffffff"
       d="m396.83 343.74c0.22-3.92 0.65-12.63 5.45-12.63 2.03 2.03-1.46 11.69-5.45 12.63" /><path
       id="path21"
       style="fill-rule:evenodd;fill:#ffffff"
       d="m404.17 341.71l-0.44-0.44c0.22-0.79 0.15-0.65 1.02-0.87-0.08 0.29-0.15 0.66-0.15 1.02-0.14 0.07-0.29 0.14-0.43 0.29" /><path
       id="path23"
       style="fill-rule:evenodd;fill:#ffffff"
       d="m371.12 341.64c0-2.47 23.53-10.39 25.57-11.55 1.89-1.52 9.15-9.07 10.96-9.66-1.96 9.3-27.88 20.77-36.53 21.21" /><path
       id="path25"
       style="fill-rule:evenodd;fill:#ffffff"
       d="m14.79 341.42c0-5.81 30.427-43.43 34.276-36.96-2.034 2.03-6.1 5.37-8.569 7.33-2.905 3.41-22.657 29.05-25.707 29.63" /><path
       id="path27"
       style="fill-rule:evenodd;fill:#ffffff"
       d="m278.61 341.13c-9.66-15.47-0.44-41.68 4.5-56.21 0-1.16 0-2.25 0.07-3.34 0.88-0.22 1.82-0.36 2.76-0.51 0 1.46-2.61 6.25-3.26 7.99-2.11 8.06-3.92 52.21-4.07 52.07" /><path
       id="path29"
       style="fill-rule:evenodd;fill:#ffffff"
       d="m238.31 340.04c-9.88-3.27 2.18-37.98 4.28-42.05 1.74-6.1 10.75-14.95 10.75-19.75 4.14-2.03 4.65-2.25 9.51-1.38-1.16 0.44-2.25 0.95-3.34 1.45-4.06 3.2-8.86 9.37-11.11 14.09-6.32 9.88-8.13 21.06-9.37 33.26 0 1.02 1.82 14.38-0.72 14.38" /><path
       id="path31"
       style="fill-rule:evenodd;fill:#ffffff"
       d="m77.314 337.72c-3.486-8.5 1.307-27.6 6.463-34.42 0.218 0 0.508 0.07 0.799 0.14-3.849 9.44-5.737 20.7-5.737 31.59-0.218 0.36-0.436 2.25-0.726 2.76-0.291-0.07-0.581-0.07-0.799-0.07" /><path
       id="path33"
       style="fill-rule:evenodd;fill:#ffffff"
       d="m57.562 336.63c0-18.74 8.859-37.77 19.752-52.29 0.218-0.07 0.508-0.07 0.799-0.07-1.453 7.26-9.659 14.89-11.765 23.09-4.647 9.37-5.155 19.39-8.132 29.19-0.218 0.01-0.436 0.01-0.654 0.08" /><path
       id="path35"
       style="fill-rule:evenodd;fill:#ffffff"
       d="m404.31 336.04c0.29-2.46 0.15-5.95 0.44-7.47 0.65-0.29 0.36-0.73 1.67-0.44-0.73 1.53-0.29 7.55-2.11 7.91" /><path
       id="path37"
       style="fill-rule:evenodd;fill:#ffffff"
       d="m215.07 335.18c0-7.41 13.07-43.07 22.22-46.12 0 1.31-2.25 4.43-3.27 5.6-6.24 11.83-14.45 24.9-16.63 38.7-0.43 0.51-0.87 1.09-1.23 1.67-0.36 0-0.73 0.07-1.09 0.15" /><path
       id="path39"
       style="fill-rule:evenodd;fill:#ffffff"
       d="m362.56 332.34c-0.22-0.07-0.44-0.07-0.58-0.07 0.21-2.54 2.9-3.56 4.93-4.65 15.91-4.21 30.29-11.4 42.85-22.29 0.14-0.07 0.36-0.07 0.58-0.07-0.29 6.1-23.38 16.84-30.28 22.36-6.25 2.33-11.26 4.5-17.5 4.72" /><path
       id="path41"
       style="fill-rule:evenodd;fill:#ffffff"
       d="m285.73 331.69c2.39-15.18 11.47-27.52 18.51-40.3 2.4-2.4 6.4-8.57 7.85-11.41 0.36 0 0.8 0.08 1.23 0.15-9.8 15.39-21.28 33.69-27.16 51.34-0.14 0.07-0.29 0.15-0.43 0.22" /><path
       id="path43"
       style="fill-rule:evenodd;fill:#ffffff"
       d="m66.058 331.11c-4.284-8.57 22.076-43.5 27.45-44.52 0 6.68-12.636 15.03-16.339 22.44-3.994 2.69-7.189 16.78-10.457 22.08h-0.654" /><path
       id="path45"
       style="fill-rule:evenodd;fill:#ffffff"
       d="m314.19 328.2c-5.95-15.9 1.53-37.03 9.95-50.47 0.94-0.36 1.82-0.94 3.56-0.51-8.86 11.84-12.86 24.99-12.86 40.31 0.15 3.41 0.95 6.68 0 10.6-0.21 0-0.43 0-0.65 0.07" /><path
       id="path47"
       style="fill-rule:evenodd;fill:#ffffff"
       d="m396.83 326.68c0-4.79 7.63-13 12.49-13.94 0 3.26-9.22 11.9-12.49 13.94" /><path
       id="path49"
       style="fill-rule:evenodd;fill:#ffffff"
       d="m449.41 326.53c-11.84-2.32-21.21-41.39-18.09-50.76 5.81 11.69 5.16 27.31 12.13 40.09 0.51 0.72 6.68 8.06 6.68 10.38-0.51 0.44-0.51 0.44-0.72 0.29" /><path
       id="path51"
       style="fill-rule:evenodd;fill:#ffffff"
       d="m42.82 325.44c0.654-8.06 15.468-34.34 22.439-34.93 0 0.29-21.93 34.79-22.439 34.93" /><path
       id="path53"
       style="fill-rule:evenodd;fill:#ffffff"
       d="m149.42 324.79c-2.03-6.25 1.38-20.91 2.33-27.38 0.65-2.61 8.71-25.05 13.43-23.89-6.54 11.19-10.38 22.3-13.43 35.3-0.15 1.74-1.02 15.03-2.18 16.19-0.07-0.07-0.15-0.15-0.15-0.22" /><path
       id="path55"
       style="fill-rule:evenodd;fill:#ffffff"
       d="m253.92 325.01c0-10.97 11.26-30.43 18.37-38.63 0.22-0.73 0.44-1.38 0.73-2.04 2.47-0.8 2.47-0.8 3.77-0.87 0 0.22-22.22 41.25-22.87 41.54" /><path
       id="path57"
       style="fill-rule:evenodd;fill:#ffffff"
       d="m2.082 324.64c0.508-11.25 40.448-32.31 49.888-31-0.944 0.94-1.815 1.96-2.686 2.98-17.211 0-33.259 18.66-46.33 27.88-0.291 0-0.582 0.07-0.872 0.14" /><path
       id="path59"
       style="fill-rule:evenodd;fill:#ffffff"
       d="m137.15 323.85c-2.47-1.24 9.59-39.8 14.74-38.13-5.81 11.62-9.95 20.12-12.78 33.48-0.22 0.87-1.09 4.07-1.96 4.65" /><path
       id="path61"
       style="fill-rule:evenodd;fill:#ffffff"
       d="m412.44 323.05c-3.7-11.11 2.47-25.71 7.05-35.15 0.22 0 0.43 0.07 0.65 0.15 0.15 2.1 0.29 4.28 0.51 6.46-3.34 3.34-6.97 21.49-7.7 28.47-0.22 0-0.36 0-0.51 0.07" /><path
       id="path63"
       style="fill-rule:evenodd;fill:#ffffff"
       d="m99.099 321.09c0-5.59 3.121-21.86 8.351-22.44-0.73 2.32-6.39 15.54-4.28 17.64 0 2.04-2.11 4.43-4.071 4.8" /><path
       id="path65"
       style="fill-rule:evenodd;fill:#ffffff"
       d="m301.7 318.76c0-4.72-2.76-17.35 2.47-18.66-0.8 5.59-0.58 11.91-1.74 18.3-0.29 0.07-0.51 0.22-0.73 0.36" /><path
       id="path67"
       style="fill-rule:evenodd;fill:#ffffff"
       d="m86.827 318.4c1.307-6.61 17.213-33.7 21.423-32.68-6.39 7.48-6.83 15.4-13.435 22.66-1.162 1.74-6.173 9.44-7.988 10.02" /><path
       id="path69"
       style="fill-rule:evenodd;fill:#ffffff"
       d="m56.908 317.96c-1.161-8.27 7.48-28.61 14.161-29.91-0.436 1.45-10.53 21.42-10.748 21.56 0 0.08-2.541 9.23-3.413 8.35" /><path
       id="path71"
       style="fill-rule:evenodd;fill:#ffffff"
       d="m123.64 316.73c-3.84-5.81 16.71-35.51 20.99-34.49-1.31 1.3-1.38 4.35-2.69 5.66-2.83 0.51-4.06 2.9-5.66 5.3-0.36 0.87-9 23.53-12.64 23.53" /><path
       id="path73"
       style="fill-rule:evenodd;fill:#ffffff"
       d="m339.75 315.71c-3.7-3.7-4.86-17.79-4.72-22.07 1.67-2.04 1.67-2.04 2.62-3.63 0.22-0.08 0.51-0.08 0.8-0.08-0.29 8.57 1.81 16.63 2.17 25.57-0.28 0.07-0.58 0.14-0.87 0.21" /><path
       id="path75"
       style="fill-rule:evenodd;fill:#ffffff"
       d="m105.13 315.13c-0.8-0.36 23.23-31.22 26.5-34.35 4.5-3.48 17.57-11.98 23.82-10.6-1.23 1.24-2.4 2.47-3.56 3.78-17.35 0-31.3 29.48-42.41 39.72-1.81 0.94-2.9 1.45-4.35 1.45" /><path
       id="path77"
       style="fill-rule:evenodd;fill:#ffffff"
       d="m248.91 310.7c0-7.55 6.17-15.9 9.8-21.78 0.51 0 1.31-0.22 2.47 0.36-1.16 1.74-12.05 21.42-12.27 21.42" /><path
       id="path79"
       style="fill-rule:evenodd;fill:#ffffff"
       d="m265.32 309.61c0-4.72 7.12-10.53 11.04-11.83-1.67 6.1-4.14 10.45-11.04 11.83" /><path
       id="path81"
       style="fill-rule:evenodd;fill:#ffffff"
       d="m386.45 308.6c0.36-1.17 1.3-1.67 2.17-2.47 12.5-7.34 22.59-18.3 31.38-29.49 0.21-0.07 0.5-0.14 0.8-0.21-0.88 9.65-3.85 9.73-10.54 16.41-6.75 4.86-15.32 14.96-23.81 15.76" /><path
       id="path83"
       style="fill-rule:evenodd;fill:#ffffff"
       d="m181.16 308.38c1.52-5.3 7.55-8.14 8.35-11.4 2.1 0 30.79-24.55 19.75-10.1-11.26 3.71-18.23 15.62-28.1 21.5" /><path
       id="path85"
       style="fill-rule:evenodd;fill:#ffffff"
       d="m197.21 307.65c-2.47-3.7-0.95-8.57 1.45-11.4 0.22 0 0.51 0 0.8 0.07-1.38 2.11-0.08 8.43-1.67 11.33h-0.58" /><path
       id="path87"
       style="fill-rule:evenodd;fill:#ffffff"
       d="m206.94 307.44c-0.08-0.3-0.15-0.59-0.15-0.88 9.08-7.11 17.57-13.65 25.93-22 4.79-3.12 18.44-13 25.12-11.69-10.75 7.19-21.86 10.09-29.48 21.86-4.72 5.15-14.31 12.71-21.42 12.71" /><path
       id="path89"
       style="fill-rule:evenodd;fill:#ffffff"
       d="m306.06 307.58c0.22-2.69 0.22-12.85 2.9-14.74 0.15 3.63-1.59 10.16-2.39 14.52-0.22 0.08-0.37 0.15-0.51 0.22" /><path
       id="path91"
       style="fill-rule:evenodd;fill:#ffffff"
       d="m453.98 305.98c-19.6-9.37-23.74-33.69-16.7-52.21 0.65-1.23 1.02-2.69 2.4-3.12-0.44 4.21-0.8 7.84-0.8 12.49-6.39 6.39 1.09 23.45 5.88 29.92 0 2.76 10.53 10.09 9.88 12.92h-0.66" /><path
       id="path93"
       style="fill-rule:evenodd;fill:#ffffff"
       d="m369.89 305.69c-2.4-3.63 4.79-24.03 5.95-28.9 0.22 0.07 0.44 0.15 0.66 0.22 0.73 4.86-3.7 26.43-6.46 28.9-0.08-0.07-0.15-0.15-0.15-0.22" /><path
       id="path95"
       style="fill-rule:evenodd;fill:#ffffff"
       d="m107.81 305.69c0-6.17 9.66-18.52 14.89-22 0.07-0.58 0.22-1.16 0.36-1.67 0.51-0.22 4.65-2.98 5.96-2.54-5.23 5.66-15.18 23.67-21.21 26.21" /><path
       id="path97"
       style="fill-rule:evenodd;fill:#ffffff"
       d="m325.16 305.55c-5.3-2.62 18.3-35.15 28.46-36.02-0.5 2.69-8.56 8.42-10.67 10.16-3.63 4.07-10.39 11.41-12.06 16.49-2.1 2.1-3.63 6.53-5.08 9.37h-0.65" /><path
       id="path99"
       style="fill-rule:evenodd;fill:#ffffff"
       d="m406.2 304.68c0.29-3.2 4.21-5.74 4.21-8.94 1.38-1.09 2.83-2.83 4.5-3.34-1.23 3.71-4.21 11.4-8.71 12.28" /><path
       id="path101"
       style="fill-rule:evenodd;fill:#ffffff"
       d="m49.865 303.08c-0.291-0.22-0.581-0.37-0.799-0.51-0.727-5.23 10.239-12.56 14.378-15.54 0-2.18-2.905-0.15-3.341-0.22-0.072-0.65-0.072-1.23-0.072-1.81 2.832 0 6.39 0.5 9.803 0.58-0.435 1.81-6.535 3.19-8.133 3.56-1.235 0.72-11.619 14.16-11.836 13.94" /><path
       id="path103"
       style="fill-rule:evenodd;fill:#ffffff"
       d="m75.862 300.68c1.524-5.16 12.78-21.93 17.863-21.93 0.509 0.58 1.017 0.87 1.307 2.25-5.954 5.74-14.886 12.49-18.59 19.61-0.217 0-0.435 0-0.58 0.07" /><path
       id="path105"
       style="fill-rule:evenodd;fill:#ffffff"
       d="m480.63 300.61c-17.64-8.79-36.38-36.67-30.5-55.99 0.07-0.07 0.22-0.14 0.37-0.22 0.29 0.87 0.29 0.87 0.65 5.81 3.92 20.41 14.67 35 29.92 49.67v0.66c-0.15 0-0.29 0-0.44 0.07" /><path
       id="path107"
       style="fill-rule:evenodd;fill:#ffffff"
       d="m424.94 300.1c-9.01-16.56 4.21-48.22 16.19-60.2 0.22-0.07 0.51-0.07 0.8-0.07-0.29 1.23-0.51 2.47-0.73 3.77-12.27 14.02-14.67 38.42-15.83 56.5-0.29 0.22-0.29 0.22-0.43 0" /><path
       id="path109"
       style="fill-rule:evenodd;fill:#ffffff"
       d="m161.7 299.88c1.59-7.99 19.31-36.89 27.16-38.41-0.51 2.03-11.99 17.06-13.22 18.22-1.53 2.4-11.48 19.61-13.94 20.19" /><path
       id="path111"
       style="fill-rule:evenodd;fill:#ffffff"
       d="m388.12 299.16c-2.54-3.2-6.97-7.12-1.24-7.12 0.22 0.8 2.25 5.52 1.89 7.12h-0.65" /><path
       id="path113"
       style="fill-rule:evenodd;fill:#ffffff"
       d="m283.84 298.43c0.22-2.32 0.14-5.52 1.45-7.26 4.07-2.33 12.78-14.82 16.63-12.27-5.45 4.64-10.75 17.13-18.08 19.53" /><path
       id="path115"
       style="fill-rule:evenodd;fill:#ffffff"
       d="m272 297.41c0-2.03 8.14-14.88 9.95-15.39-1.38 3.85-2.76 7.7-4.07 11.62-2.03 0.65-4.06 2.76-5.88 3.77" /><path
       id="path117"
       style="fill-rule:evenodd;fill:#ffffff"
       d="m104.76 296.76c0.58-4.14 7.12-11.98 12.06-11.04-3.85 4.72-6.76 8.06-12.06 11.04" /><path
       id="path119"
       style="fill-rule:evenodd;fill:#ffffff"
       d="m209.48 294.07c1.01-8.93 14.59-21.49 18.66-30.5h1.24c0.29 4.72-16.13 29.56-19.9 30.5" /><path
       id="path121"
       style="fill-rule:evenodd;fill:#ffffff"
       d="m95.831 293.71c-2.323-1.16 19.249-20.33 24.469-22.08 0 0.66 0 1.38 0.08 2.11-7.05 4.14-18.23 11.47-22.515 18.66-0.654 0.66-1.307 1.31-2.034 1.31" /><path
       id="path123"
       style="fill-rule:evenodd;fill:#ffffff"
       d="m77.895 290.51c0.508-3.41 2.687-8.35 6.899-7.69-1.09 1.3-5.374 6.75-6.899 7.69" /><path
       id="path125"
       style="fill-rule:evenodd;fill:#ffffff"
       d="m381.73 290.15c0.87-3.63 18.73-8.93 22.22-10.38 3.99-2.33 14.59-10.46 18.88-11.48-0.29 1.17-0.51 2.33-0.73 3.56-3.12 0.58-10.67 6.68-14.23 8.57-7.33 5.08-17.87 8.57-26.14 9.73" /><path
       id="path127"
       style="fill-rule:evenodd;fill:#ffffff"
       d="m56.11 289.79c-3.922-5.23-25.126-6.1-27.014-15.69 9.368 0.8 19.897 10.61 30.354 12.93 0 1.01-2.76 2.61-3.34 2.76" /><path
       id="path129"
       style="fill-rule:evenodd;fill:#ffffff"
       d="m301.92 289.72c0.73-3.27 1.23-6.54 2.47-9.3 1.45 0 2.9 0.07 4.36 0.15-1.24 2.17-5.16 8.35-6.83 9.15" /><path
       id="path131"
       style="fill-rule:evenodd;fill:#ffffff"
       d="m144.2 288.7c0-8.35 18.88-20.84 25.12-24.76 8.79-4.29 13.94-8.72 23.53-6.25-2.47 2.47-11.77 2.69-14.6 5.52-4.94 1.45-10.75 5.37-14.74 7.84-3.99 3.42-15.39 16.34-19.31 17.65" /><path
       id="path133"
       style="fill-rule:evenodd;fill:#ffffff"
       d="m196.55 288.7c0.51-2.98 3.13-10.68 5.81-11.18 0.36 0.29 0.73 0.58 1.09 0.94-2.69 4.07-0.87 9.08-6.9 10.24" /><path
       id="path135"
       style="fill-rule:evenodd;fill:#ffffff"
       d="m95.831 288.04c0-8.49 9.439-13.72 16.779-14.95 0 0.21-16.488 14.88-16.779 14.95" /><path
       id="path137"
       style="fill-rule:evenodd;fill:#ffffff"
       d="m286.31 287.39c0.43-2.68 2.18-4.43 2.39-6.61 1.82-0.43 3.2-1.08 5.3-0.87-1.16 1.89-5.8 6.9-7.69 7.48" /><path
       id="path139"
       style="fill-rule:evenodd;fill:#ffffff"
       d="m381.51 286.01c-3.92-1.96-3.78-21.27-2.83-25.41 0.51-0.3 0.51-0.3 2.18-0.58-0.66 8.49-0.95 15.75 2.18 24.47v0.87c-0.95 0.65-0.95 0.65-1.53 0.65" /><path
       id="path141"
       style="fill-rule:evenodd;fill:#ffffff"
       d="m111.37 285.58c0-6.03 19.32-15.54 25.35-15.54 0 5.8-19.32 11.54-24.7 15.39-0.21 0-0.43 0.07-0.65 0.15" /><path
       id="path143"
       style="fill-rule:evenodd;fill:#ffffff"
       d="m263.5 285.58c0-0.37 0.08-0.73 0.15-1.02 7.19-2.4 31.73-15.32 38.05-9-0.07 0.07-0.14 0.14-0.22 0.28-13.65 1.6-25.63 4.65-37.98 9.74" /><path
       id="path145"
       style="fill-rule:evenodd;fill:#ffffff"
       d="m351.81 284.71c0.65-4.65 3.7-17.43 8.28-18.52-0.44 1.96-7.7 18.15-8.28 18.52" /><path
       id="path147"
       style="fill-rule:evenodd;fill:#ffffff"
       d="m204.03 284.12c0.29-1.45 0.29-1.45 1.45-4.35 0.8 0 3.13 0.43 4 1.59-1.02 1.02-4.14 2.47-5.45 2.76" /><path
       id="path149"
       style="fill-rule:evenodd;fill:#ffffff"
       d="m384.99 284.12c-1.16-3.84-2.39-7.33-2.39-10.82 0.8-0.21 6.32-11.9 6.97-13.28 5.67 0 11.4 1.08 17.5 1.08 1.6-0.58 3.49-1.01 5.16-0.94 0.51 1.31 1.59 2.4 2.39 4.21-5.15 2.91-12.05 1.6-17.57 4-4.58 7.26 6.32 5.81 10.6 6.39-2.61 3.7-17.57 8.56-22.66 9.36" /><path
       id="path151"
       style="fill-rule:evenodd;fill:#ffffff"
       d="m66.494 283.32c-2.251-0.21-4.43-0.36-6.608-0.5 0-0.22 0.072-0.44 0.145-0.58 5.809-1.89 30.499-1.24 32.242-7.7 0.509 0 1.235-0.44 2.106 0.43-6.971 6.03-19.098 8.35-27.885 8.35" /><path
       id="path153"
       style="fill-rule:evenodd;fill:#ffffff"
       d="m482.08 283.11c-7.04-1.38-20.04-27.23-21.78-33.12 0-3.55 0.94-6.68 1.16-9.73h0.65c2.33 11.69 11.4 27.89 18.38 38.64 0.58 0.58 2.03 2.25 2.03 4.14-0.29 0.21-0.29 0.21-0.44 0.07" /><path
       id="path155"
       style="fill-rule:evenodd;fill:#ffffff"
       d="m263.29 282.02c0-1.6 1.59-2.98 1.81-4.79 1.74 0.36 3.49 0.79 5.23 1.23-0.94 0.94-5.73 2.98-7.04 3.56" /><path
       id="path157"
       style="fill-rule:evenodd;fill:#ffffff"
       d="m334.74 280.78c0.15-1.96 0.29-3.92 0.44-5.81 0.65-0.21 1.31-0.43 2.03-0.58 0.29 2.04 0.58 5.67-2.47 6.39" /><path
       id="path159"
       style="fill-rule:evenodd;fill:#ffffff"
       d="m213.18 280.42c-6.68-5.01-14.3-3.63-15.54-12.71 4.87 1.16 8.64 9.44 17.43 10.53 0 0.87-1.02 2.18-1.89 2.18" /><path
       id="path161"
       style="fill-rule:evenodd;fill:#ffffff"
       d="m224.22 280.57c0-1.89 2.32-3.35 2.69-4.8 2.54-0.29 19.02-4.43 20.55-2.9-0.08 0.22-11.19 6.1-12.06 6.1-1.6-2.47-9.22 1.01-11.18 1.6" /><path
       id="path163"
       style="fill-rule:evenodd;fill:#ffffff"
       d="m164.74 279.55c0-1.24 0.66-1.74 1.1-2.47 2.9 0 2.9 0 5.59-0.44-0.8 2.84-4.36 2.69-6.69 2.91" /><path
       id="path165"
       style="fill-rule:evenodd;fill:#ffffff"
       d="m60.249 279.19c-4.357-1.53-13.289-4.72-14.088-9.01 8.206 0.66 16.121 5.3 24.472 7.99-3.413 1.02-7.262 1.02-10.384 1.02" /><path
       id="path167"
       style="fill-rule:evenodd;fill:#ffffff"
       d="m96.63 279.19c-0.653-1.02-0.581-1.09-0.581-1.75 2.542-1.88 3.341-4.28 6.831-3.92 0 1.02-5.233 5.45-6.25 5.67" /><path
       id="path169"
       style="fill-rule:evenodd;fill:#ffffff"
       d="m146.08 278.24c0.51-1.09 1.53-1.74 3.12-1.45-0.87 0.87-2.25 1.38-3.12 1.45" /><path
       id="path171"
       style="fill-rule:evenodd;fill:#ffffff"
       d="m180.14 278.24c0-2.98 13-9.22 15.4-9.22 0.14 3.41-13.37 8.71-15.4 9.22" /><path
       id="path173"
       style="fill-rule:evenodd;fill:#ffffff"
       d="m305.48 277.95c-0.22-0.07-0.44-0.07-0.65-0.07-0.15-1.24-0.29-2.4-0.44-3.56 3.77-0.36 19.1-0.22 20.62-4.14 2.76-0.72 5.74-0.94 7.41-3.7 17.57 0 32.75-12.27 49.09-16.78 3.48-2.1 6.46-4.21 10.6-4.86-3.27 10.09-0.87 4.21-11.04 7.33-0.58 0.44-1.09 0.87-1.59 1.38 0.22 2.33 0.65 1.38 1.81 3.34-2.47 3.34-17.43 5.45-21.2 6.47-16.85 7.62-36.53 13.72-54.61 14.59" /><path
       id="path175"
       style="fill-rule:evenodd;fill:#ffffff"
       d="m74.627 277.73c-3.05-2.03-8.06-1.59-8.06-4.64 1.016-0.66 14.087 3.34 13.434 4.21-2.905 0.43-2.905 0.43-5.374 0.43" /><path
       id="path177"
       style="fill-rule:evenodd;fill:#ffffff"
       d="m274.25 276.72c-0.8-0.8-10.31-2.33-11.62-2.62-0.07-0.22-0.14-0.43-0.21-0.58 1.96-0.43 0.8-2.98 1.67-4.5 4.35 0 3.7-0.51 7.91 2.69 3.56 0.29 10.39-0.29 13.94 1.81-0.58 0.8-10.02 3.2-11.69 3.2" /><path
       id="path179"
       style="fill-rule:evenodd;fill:#ffffff"
       d="m216.3 276.5c-1.59-0.51-3.05-0.58-4.28-1.16v-0.58c2.32-1.16 4.72-1.96 7.62-2.54 0 0.87-3.12 4.5-3.34 4.28" /><path
       id="path181"
       style="fill-rule:evenodd;fill:#ffffff"
       d="m444.47 275.84c-6.83-12.99-2.11-30.64 2.54-42.84 2.11-3.78 6.32-11.98 10.75-12.71-0.07 0.29-0.15 0.58-0.15 0.87-11.47 15.54-12.71 35.59-12.71 54.61-0.29 0.22-0.29 0.22-0.43 0.07" /><path
       id="path183"
       style="fill-rule:evenodd;fill:#ffffff"
       d="m84.794 275.41c-14.669-2.54-31.008-11.04-42.119-19.97-0.072-0.36-0.072-0.73-0.072-1.09 2.033 0 3.558 0.36 6.463 1.53 12.345 6.39 25.053 15.17 39.649 17.86 0 1.31-3.341 1.67-3.921 1.67" /><path
       id="path185"
       style="fill-rule:evenodd;fill:#ffffff"
       d="m431.18 275.26c-0.07-0.36-0.15-0.65-0.15-0.94 0.08-0.07 0.15-0.14 0.29-0.22 0 1.24 0 1.24-0.14 1.16" /><path
       id="path187"
       style="fill-rule:evenodd;fill:#ffffff"
       d="m339.9 274.97c-0.07-0.65-0.29-0.87-0.22-1.45 0.94-0.22 2.03-1.02 3.2-0.65-0.88 0.87-2.11 1.89-2.98 2.1" /><path
       id="path189"
       style="fill-rule:evenodd;fill:#ffffff"
       d="m167.72 274.76c0.66-3.27 9.01-10.82 13.07-9.81-4.13 6.03-5.81 8.79-13.07 9.81" /><path
       id="path191"
       style="fill-rule:evenodd;fill:#ffffff"
       d="m138.17 273.38c-4.72-2.33 20.55-8.72 24.76-9.01 0 3.85-14.38 4.79-16.19 5.23-1.09 0.51-7.41 3.78-8.57 3.78" /><path
       id="path193"
       style="fill-rule:evenodd;fill:#ffffff"
       d="m208.17 273.38c-0.36-0.22-0.65-0.37-0.94-0.51 0-0.29 0.07-0.58 0.14-0.8 2.83-1.53 11.4-2.61 11.84-5.23 0.87 0.07 1.74 0.15 2.69 0.22-0.66 1.96-11.99 6.32-13.73 6.32" /><path
       id="path195"
       style="fill-rule:evenodd;fill:#ffffff"
       d="m366.55 273.09c-1.09-2.76-2.03-5.96-2.11-8.35 1.09-0.08 2.18-0.15 3.34-0.15-0.36 2.69-0.36 2.69-0.58 8.28-0.21 0.14-0.36 0.29-0.5 0.43-0.08-0.07-0.15-0.14-0.15-0.21" /><path
       id="path197"
       style="fill-rule:evenodd;fill:#ffffff"
       d="m399.95 272.72c-1.01-0.43-1.01-0.43-1.81-0.5-0.07-0.51-0.15-1.02-0.15-1.46 3.13-3.12 11.62-2.25 16.78-3.85 0.14-0.21 9.29-4.86 10.53-5.23-0.73 8.14-20.26 11.04-25.35 11.04" /><path
       id="path199"
       style="fill-rule:evenodd;fill:#ffffff"
       d="m231.48 272.5c-0.44-0.21-1.02-3.63-1.02-3.77 1.31 0 6.83 0.94 7.85 1.96-0.87 0.87-5.89 1.81-6.83 1.81" /><path
       id="path201"
       style="fill-rule:evenodd;fill:#ffffff"
       d="m94.96 272.29c-5.664-0.87-25.126-4.8-26.796-9.81 5.083 0.29 20.986 4.8 26.36 8.79 2.76 0.65 2.76 0.65 2.905 0.87-0.871 0-1.67 0.08-2.469 0.15" /><path
       id="path203"
       style="fill-rule:evenodd;fill:#ffffff"
       d="m250.8 271.42c-1.24-1.82-18.52-5.01-19.1-5.01 0.07-1.24 0.07-1.24 0.44-2.25 9.07 0.21 16.48-0.95 25.56 2.03 0.21 0.65 0.21 0.65 0.14 3.63-0.72 0.14-6.1 1.74-7.04 1.6" /><path
       id="path205"
       style="fill-rule:evenodd;fill:#ffffff"
       d="m305.48 271.49c-10.82-4.07-14.74-9.01-22.58-15.69 0-1.16 0.21-1.59 1.59-1.45 6.03 12.13 24.84 15.32 37.18 15.83-0.58 0.8-13.94 1.16-16.19 1.31" /><path
       id="path207"
       style="fill-rule:evenodd;fill:#ffffff"
       d="m184.93 271.42c0-2.33 6.61-8.64 8.14-10.32 2.25 0 3.7 1.24 6.61 2.04 0 1.38-1.38 1.6-2.26 1.67-1.3 1.96-10.67 6.24-12.49 6.61" /><path
       id="path209"
       style="fill-rule:evenodd;fill:#ffffff"
       d="m290.88 271.27c-4.64-0.43-9-1.23-13.07-1.96-2.03-4.07-7.19-5.74-6.68-9.66 2.98-0.87 5.74-3.34 8.93-3.34 0.44 0.44 0.88 0.87 1.31 1.38-3.27 2.18-15.18 2.83-3.99 6.75 14.08 0 9.36-1.74 19.53 6.61-0.22 0.22-0.22 0.22-6.03 0.22" /><path
       id="path211"
       style="fill-rule:evenodd;fill:#ffffff"
       d="m124.88 271.2c0-1.74 5.01-5.38 7.26-5.59 0 2.47-5.88 5.01-7.26 5.59" /><path
       id="path213"
       style="fill-rule:evenodd;fill:#ffffff"
       d="m109.12 270.84c-5.23-0.66-17.646-0.59-19.316-5.67 9.295 3.49 14.456 3.99 25.126 4.14-0.07 0.22-0.15 0.44-0.22 0.73-1.89 0.43-1.89 0.43-5.59 0.8" /><path
       id="path215"
       style="fill-rule:evenodd;fill:#ffffff"
       d="m204.25 270.47c-0.36-0.29-0.65-0.51-0.95-0.72 0-5.31 8.72-3.2 11.33-3.05-0.43 0.43-9.15 3.77-10.38 3.77" /><path
       id="path217"
       style="fill-rule:evenodd;fill:#ffffff"
       d="m273.02 269.38c-2.83-0.51-7.84-6.32-7.26-8.13 1.01-0.29 1.23-0.65 3.12-0.44 0.73 2.04 5.66 7.19 5.66 8.14-0.5 0.36-0.5 0.36-1.52 0.43" /><path
       id="path219"
       style="fill-rule:evenodd;fill:#ffffff"
       d="m260.38 269.24c-0.87-0.44-0.65-6.25-0.65-6.76 0.58-0.07 1.23-0.14 1.89-0.14 0.07 2.18 0.14 4.43 0.22 6.68-0.51 0.07-1.02 0.15-1.46 0.22" /><path
       id="path221"
       style="fill-rule:evenodd;fill:#ffffff"
       d="m137.73 268.58c-0.36-0.21-2.69-0.43-3.7-0.29 0-1.3 0.8-1.38 1.01-2.25 2.47 0.08 4.94 0.15 7.48 0.22 0.73 1.23-4.21 2.32-4.79 2.32" /><path
       id="path223"
       style="fill-rule:evenodd;fill:#ffffff"
       d="m382.31 268.51c0-3.49 0.58-6.53 0.87-9.59 1.23 0.15 2.47 0.3 3.7 0.51 0 1.38-3.63 8.79-4.57 9.08" /><path
       id="path225"
       style="fill-rule:evenodd;fill:#ffffff"
       d="m323.34 267.93c-4.57-0.44-9.51-0.44-13.65-0.65v-2.11c-2.18-1.52-5.23-3.05-5.52-4.79 5.08 0.58 23.46 0 26.43 5.01-1.23 1.81-5.66 2.39-7.26 2.54" /><path
       id="path227"
       style="fill-rule:evenodd;fill:#ffffff"
       d="m200.91 267.57c-0.87-0.87-0.73-1.17-0.73-1.75 0.44-0.43 4.14-3.77 4.14-0.43-1.16 0.94-2.25 1.96-3.41 2.18" /><path
       id="path229"
       style="fill-rule:evenodd;fill:#ffffff"
       d="m110.57 267.13c-6.17-4.94-16.627-6.46-23.307-9.15-3.413-1.67-7.771-3.99-10.53-5.66 0-0.29 0.073-0.58 0.145-0.87 2.832-0.51 4.793 0.36 8.351 1.96 7.553 6.46 21.061 7.26 29.701 12.99-0.07 0.08-0.15 0.15-0.22 0.3-1.38 0.14-2.76 0.29-4.14 0.43" /><path
       id="path231"
       style="fill-rule:evenodd;fill:#ffffff"
       d="m305.04 266.26c-3.92-1.31-8.93-3.49-11.25-6.1 3.92 0 9.07 2.4 12.49 5.81-0.08 0.07-0.15 0.15-0.22 0.29h-1.02" /><path
       id="path233"
       style="fill-rule:evenodd;fill:#ffffff"
       d="m482.08 266.26c-2.32-1.02-4.43-2.54-5.01-4.43 1.6 0 3.05-1.45 4.14-1.23 0.73 1.45 2.25 2.97 2.55 5.22-0.44 0.3-0.44 0.3-1.68 0.44" /><path
       id="path235"
       style="fill-rule:evenodd;fill:#ffffff"
       d="m264.74 266.12c-0.36-0.15-0.73-0.3-1.09-0.44-0.07-0.8-0.07-1.6-0.07-2.4 0.22-0.07 0.43-0.07 0.72-0.07 0.3 0.8 0.66 1.31 0.88 2.83-0.15 0-0.3 0-0.44 0.08" /><path
       id="path237"
       style="fill-rule:evenodd;fill:#ffffff"
       d="m223.78 265.68c-5.08-3.34-14.3-0.29-20.11-3.78-3.12-0.22-5.01-1.52-7.05-2.54-0.07-0.22-0.07-0.44-0.07-0.65 5.3 0 11.98 2.1 18.3 2.61 3.63 0.66 7.26 1.31 10.89 1.96v0.66c-0.5 0.43-1.08 0.8-1.3 1.74h-0.66" /><path
       id="path239"
       style="fill-rule:evenodd;fill:#ffffff"
       d="m119.72 265.24c-5.95-1.52-12.63-4.28-17.5-6.82 0.22-0.22 22.15 6.46 22.08 6.6-1.53 0.08-3.05 0.15-4.58 0.22" /><path
       id="path241"
       style="fill-rule:evenodd;fill:#ffffff"
       d="m147.54 264.66c-1.53-1.52-9.59-0.87-11.84-0.87-4.87-0.43-40.232-6.46-39.07-12.56 3.123-1.38 17.21 6.53 21.42 8.2 6.61 1.24 30.72-0.07 33.62 3.85-1.16 1.16-3.26 1.38-4.13 1.38" /><path
       id="path243"
       style="fill-rule:evenodd;fill:#ffffff"
       d="m334.74 264.44c-4.79-0.94-33.69-12.7-33.69-17.86 1.38 0 1.89 1.02 3.56 2.25 8.71 5.23 22.36 13.58 33.26 14.53l0.43 0.43c-0.22 0.22-2.32 0.65-3.56 0.65" /><path
       id="path245"
       style="fill-rule:evenodd;fill:#ffffff"
       d="m256.61 263.57c-0.22-0.07-0.44-0.07-0.58-0.07v-0.58h1.81c-0.07 0.22-0.14 0.44-0.22 0.65h-1.01" /><path
       id="path247"
       style="fill-rule:evenodd;fill:#ffffff"
       d="m416 263.36c-1.52-1.89-1.38-2.33-1.6-4.22 0.51-0.36 0.51-0.36 2.18-0.58 0 1.6 0.37 5.74-0.58 4.8" /><path
       id="path249"
       style="fill-rule:evenodd;fill:#ffffff"
       d="m154.22 262.77c-2.47-1.74-7.12-4.64-7.48-6.53 5.95 0.58 4.57 0.87 9.29 6.1-0.65 0.65-1.45 0.43-1.81 0.43" /><path
       id="path251"
       style="fill-rule:evenodd;fill:#ffffff"
       d="m281.52 262.56c-2.11-0.29-4.14-0.51-6.18-0.73 0.15-0.58 6.61-2.83 8.06-2.83 0.95 0.94 1.89 1.89 2.91 2.83-0.66 0.87-4.21 0.73-4.79 0.73" /><path
       id="path253"
       style="fill-rule:evenodd;fill:#ffffff"
       d="m158.36 262.34c-1.53-2.11-3.71-3.92-4-5.66 5.08 0.5 8.57 1.59 13.14 5.15-0.14 0.15-0.29 0.29-0.43 0.51h-8.71" /><path
       id="path255"
       style="fill-rule:evenodd;fill:#ffffff"
       d="m342.44 262.12c-1.09-0.07-3.7-0.65-3.78-0.87 1.09 0 2.98-0.15 5.02 0.58-0.08 0.07-0.15 0.15-0.22 0.29h-1.02" /><path
       id="path257"
       style="fill-rule:evenodd;fill:#ffffff"
       d="m419.71 262.12c-0.95-0.44-0.44-4.79-0.44-5.23 2.47-1.16 7.7-4.35 10.24-4.57-0.95 3.19-6.97 9.8-9.8 9.8" /><path
       id="path259"
       style="fill-rule:evenodd;fill:#ffffff"
       d="m168.74 261.25c-3.12-8.79-32.97-7.48-40.52-12.49v-0.58c4.72-0.65 45.17 6.46 43.86 11.69-1.02 0.43-2.4 1.23-3.34 1.38" /><path
       id="path261"
       style="fill-rule:evenodd;fill:#ffffff"
       d="m348.47 260.45c-2.61-0.43-22.15-2.25-23.75-3.19 0-2.04 24.98-0.8 26.44 2.1-0.8 0.94-2.04 1.02-2.69 1.09" /><path
       id="path263"
       style="fill-rule:evenodd;fill:#ffffff"
       d="m235.18 260.3c-14.45-1.16-29.19-3.92-42.77-6.24-19.53-5.16-42.12-9.51-61.72-10.38-13.8 1.59-28.25-0.08-39.216-7.56 0-2.83 1.671-4.79-0.871-6.02-1.525 0.72-0.654 3.41-2.251 5.01-5.301 1.3-10.457 3.27-15.831 4.14 0-6.69 26.143-9.08 18.59-16.63-1.743-1.02-6.535-4.65-7.116-2.11 1.307 2.03 5.737 1.31 6.463 5.01-2.687 1.96-6.681 2.98-9.441 4-2.396 1.52-13.724 10.82-15.467 10.52 0-9.07 4.938-14.88 9.949-21.42 7.769-2.83 22.656 5.74 26.431-5.15 0-21.13 19.75-33.55 37.91-40.45 0.14-0.22 0.29-0.36 0.43-0.51-13.94 0-35.43 18.45-39.86 31.15-1.383 11.77-0.512 14.24-13.365 12.78-4.212-0.87-7.698-0.8-11.183-0.5 0-43.5 49.378-52.14 83.078-43.36 0 4.72-7.99 7.48-7.99 11.19 8.06 0 23.24-21.43 31.08-25.71 26.79-20.41 60.34-26.36 94.33-28.9 15.1-2.54 30.21-5.74 44.44-12.28 13-3.55 27.74-5.59 41.39-8.27 0.87-0.08 1.75-0.08 2.69-0.08-0.87 3.49-2.4 6.76-4.72 9.95-0.51 1.75-7.99 24.18-2.98 24.18 2.62-1.74 1.09-6.89 1.09-8.78 24.4-10.46 50.11-17.72 75.6-25.93 4.35-0.94 49.74-14.229 43.49-6.46-0.14 0.44-0.21 0.87-0.29 1.31-16.41 3.85-34.05 9.73-50.32 11.4-17.94 5.01-36.09 9.29-52.72 16.63-1.74 0.65-3.49 1.31-5.23 1.96 6.68 0 16.19-3.99 23.31-5.88 24.84-10.46 54.9-13.73 81.62-20.84 1.75-0.29 4-1.67 6.25-0.29 7.26 16.41-57.88 21.49-60.49 21.71-18.37 3.56-38.93 6.46-55.48 14.74-2.91 2.47-6.25 3.56-9.15 5.01 0.22 9.37-1.67 18.88-13.65 18.88-5.89-3.2-12.57-2.98-17.29 0.44-1.01 0-1.01 0-5.01-1.02-16.7-0.58-37.39 0.44-52.28 7.84v0.58c0.22 0.15 0.51 0.29 0.8 0.44 14.23-3.7 30.13-8.35 45.53-6.46-1.38 1.81-27.67 5.95-33.62 7.91 0 0.22 0.07 0.51 0.14 0.8 3.13 1.53 5.38-0.8 5.88 4.36-1.52 3.19-4.93 6.17-7.98 7.69 0.8 1.17 3.34 2.55 5.23 4.44 2.54 9.22-8.07 13.36-15.18 14.3 0 0.87 1.89 1.89 2.76 3.7-1.6 8.28-12.49 9.23-19.17 8.79-0.08 0.07-0.15 0.22-0.22 0.36 2.76 4.65 17.28-1.09 20.77-5.73 1.23-3.05 0.51-3.49 0.51-5.88 9.51-2.33 18.73-12.06 8.71-19.54v-0.65c5.81-3.41 16.85-12.71 18.08 1.45-1.09 2.83-8.71 7.26-8.71 1.45 0.51-0.51 0.36-0.36 1.38-0.58 0-0.94 3.56-7.7-0.87-6.24-0.37 4.21 0.43 3.55-3.63 6.68v0.8c6.31 7.4 0.29 15.1-8.57 15.68-0.29 0.44-0.58 0.36-0.58 1.38 1.01 0.29 1.45 1.53 1.45 3.12-3.92 11.19-11.98 8.72-20.84 10.61 0.07 0.21 0.14 0.5 0.22 0.79 6.75 2.69 12.34 4.51 20.11 1.75 26.14 0 54.32-1.31 80.03-9.15 21.78-4.87 43.64-10.61 64.84-18.74 6.03-3.34 15.32-4.57 20.77-8.93 3.92-1.67 9.59-5.37 13.87-5.37 5.45 12.56-68.4 33.76-75.16 36.16-18.66 3.41-37.18 9.37-55.48 12.63-11.76 4.14-27.66 3.35-39.06 3.35-14.38-1.31-41.9-2.4-49.46-16.27-2.32-1.52-2.98-0.73-5.23-0.73-5.59-0.51-17.64-9.87-18.3-9.44-0.58 6.68 16.05 12.71 21.43 13.58 14.81 17.14 45.09 16.85 66.88 17.58-0.66 1.96-27.38 12.85-29.7 14.01-12.64 4.72-26.44 6.24-39.08 6.24" /><path
       id="path265"
       style="fill-rule:evenodd;fill:#ffffff"
       d="m310.63 259c-4.86-0.36-9-0.51-12.99-1.89-0.08-0.22-0.08-0.43-0.08-0.65 6.68-0.15 9.52-1.31 15.98 2.03-0.51 0.73-2.62 0.51-2.91 0.51" /><path
       id="path267"
       style="fill-rule:evenodd;fill:#ffffff"
       d="m403.73 258.78c-8.06-0.58-15.4-1.38-22.37-3.34v-0.65c3.13-2.33 19.61-0.87 24.62-0.95 10.1-1.01 16.7-3.99 26-6.32-0.8 4.72-24.04 11.26-28.25 11.26" /><path
       id="path269"
       style="fill-rule:evenodd;fill:#ffffff"
       d="m477.87 258.71c-1.67-6.03-1.96-10.39-1.96-15.98 1.89-15.25-1.01-31.01 6.75-43.79 0.22-0.07 0.44-0.07 0.66-0.07-0.51 5.37-3.12 10.24-4.07 16.05-0.36 4.36 0.73 44.44-1.38 43.79" /><path
       id="path271"
       style="fill-rule:evenodd;fill:#ffffff"
       d="m132.36 258.64c-4.21-0.22-5.16-0.8-7.99-3.2 0-0.44 0-0.8 0.07-1.16 2.91 0 7.99 1.23 10.39 4.14-0.15 0.22-0.15 0.22-2.47 0.22" /><path
       id="path273"
       style="fill-rule:evenodd;fill:#ffffff"
       d="m353.41 258.42c-12.57-13.44-27.96-3.56-40.38-10.46-0.07-0.29-0.07-0.58-0.07-0.87 9.66 0 16.41 3.63 27.59 1.52 5.74 0 12.06 3.42 15.98 8.65-0.44 0.87-2.54 1.16-3.12 1.16" /><path
       id="path275"
       style="fill-rule:evenodd;fill:#ffffff"
       d="m174.77 258.2c-1.31-1.82-0.37-3.27 0.21-4.36 2.18 0 1.31 1.46 1.31 3.85-0.43 0.44-1.38 0.51-1.52 0.51" /><path
       id="path277"
       style="fill-rule:evenodd;fill:#ffffff"
       d="m295.46 257.76c-2.98-0.43-8.86-0.58-8.86-4.43 7.84-4.86 12.34-7.48 19.24 0.29-0.43 0.88-9.15 1.02-9.73 1.02-0.73 1.82 0.58 1.96 0.22 3.12h-0.87" /><path
       id="path279"
       style="fill-rule:evenodd;fill:#ffffff"
       d="m358.42 256.75c-4.14-4.58-9.52-8.64-14.74-10.39-4.07-0.43-4.14-6.53-4-9.22 1.09-0.72 18.37-0.87 19.97 0.73-2.25 2.25-4.86 1.23-5.59 5.15-3.7 0-9.44-4.94-12.78-2.76v1.89c4.58 4 11.18 6.9 17.57 9.01 0.29 0 8.28 1.01 8.72 1.96-1.09 1.3-7.85 3.63-9.15 3.63" /><path
       id="path281"
       style="fill-rule:evenodd;fill:#ffffff"
       d="m178.69 256.68c0.29-1.46 0.29-1.46 0.65-2.04 0.73 0.15 1.45 0.29 2.25 0.44 0 0.22 0 0.43 0.07 0.72-1.96 0.73-1.96 0.73-2.97 0.88" /><path
       id="path283"
       style="fill-rule:evenodd;fill:#ffffff"
       d="m473.95 256.31c-4.21-8.49-12.63-23.82-8.28-32.6 1.89 0 1.38 4.21 1.53 6.17 4.28 10.53 7.04 13.8 7.04 26.36-0.14 0-0.22 0-0.29 0.07" /><path
       id="path285"
       style="fill-rule:evenodd;fill:#ffffff"
       d="m346.58 256.09c-5.01-0.94-24.04-4.5-25.78-1.01-3.85 0-13.22-6.97-16.77-9.01 0.21-1.31 5.08-3.99 6.82-4.28 1.31-2.33 1.09-2.91 4.14-2.91 2.18 2.18 9.81 5.96 13.73 8.06-1.89 1.89-22.01-5.88-17.79 1.82 10.38 7.19 25.19 0.07 36.45 7.12-0.15 0.21-0.15 0.21-0.8 0.21" /><path
       id="path287"
       style="fill-rule:evenodd;fill:#ffffff"
       d="m171.21 255.88c-2.18-1.67-4.65-2.84-6.25-3.13v-0.65c1.09 0.14 6.25 0.44 7.26 1.45 0 0.07-0.79 2.54-1.01 2.33" /><path
       id="path289"
       style="fill-rule:evenodd;fill:#ffffff"
       d="m456.3 254.86c-5.01-2.47 8.36-42.92 8.72-45.39 4.5-3.27 1.74-6.31 6.24-9.07 1.24-0.15 1.31-0.44 1.31-1.53-3.56-2.03-12.41 0-16.27-0.58 0-2.11 15.84-4.07 20.12-4.07 1.89 1.89-2.03 4.87-3.41 6.76-3.78 6.1-6.1 11.25-7.7 18.73-0.36 0.07-0.65 0.22-0.94 0.37-0.8 4.57-7.92 34.92-8.07 34.78" /><path
       id="path291"
       style="fill-rule:evenodd;fill:#ffffff"
       d="m496.17 253.41c-5.23-1.38-15.03-7.41-14.74-12.57 0.22 0 16.77 11.77 16.92 12.49-0.73 0-1.45 0-2.18 0.08" /><path
       id="path293"
       style="fill-rule:evenodd;fill:#ffffff"
       d="m393.13 251.74c-0.51-0.08-1.02-0.08-1.45-0.08 0.5-4.28 10.96-21.42 15.39-19.24 0 0.22 0 0.51 0.07 0.8-3.7 3.34-6.9 7.41-10.02 11.4-0.22 0.58-3.12 7.99-3.99 7.12" /><path
       id="path295"
       style="fill-rule:evenodd;fill:#ffffff"
       d="m396.47 251.66c0.36-2.83 2.25-5.88 3.7-7.91 1.6 0 3.34 0.36 5.23 0.73 0 2.32-0.94 4.64-1.45 7.04-2.54 0-5.01 0.07-7.48 0.14" /><path
       id="path297"
       style="fill-rule:evenodd;fill:#ffffff"
       d="m405.98 251.23c0-2.33 0.87-4.43 1.45-6.39h1.67c-0.14 1.89-0.58 3.92-1.16 6.24-0.65 0-1.3 0.08-1.96 0.15" /><path
       id="path299"
       style="fill-rule:evenodd;fill:#ffffff"
       d="m410.77 251.16c-0.14-0.08 0.07-2.4 0.73-6.32 0.87-0.08 1.74-0.15 2.61-0.22-0.72 2.9 0 6.17-3.34 6.54" /><path
       id="path301"
       style="fill-rule:evenodd;fill:#ffffff"
       d="m368.8 250.72c-7.48-1.67-17.14-3.27-22.66-7.55 0.08-0.15 0.15-0.29 0.22-0.37 3.56 0.58 6.68 2.55 10.82 3.34 3.42 1.46 12.64 1.82 15.4 3.64-0.58 0.72-3.05 0.94-3.78 0.94" /><path
       id="path303"
       style="fill-rule:evenodd;fill:#ffffff"
       d="m415.35 250.21c0.29-2.25 0.94-4.14 1.02-5.81 0.36-0.07 0.72-0.14 1.09-0.22-0.44 1.89-0.8 3.85-1.17 5.81-0.36 0.08-0.65 0.15-0.94 0.22" /><path
       id="path305"
       style="fill-rule:evenodd;fill:#ffffff"
       d="m418.91 249.41c0-2.32 0.72-3.85 0.8-5.66 7.33-0.44 14.45-5.3 21.64-7.05 0 5.23-20.19 11.91-22.44 12.71" /><path
       id="path307"
       style="fill-rule:evenodd;fill:#ffffff"
       d="m453.18 249.2c-0.36-3.35-0.36-3.35-0.43-7.7-0.58-0.37-0.58-0.37-1.46-0.44 0.15-3.34 4.73-15.61 7.27-16.41-1.31 7.84-3.92 15.69-4.87 24.33-0.22 0.07-0.36 0.14-0.51 0.22" /><path
       id="path309"
       style="fill-rule:evenodd;fill:#ffffff"
       d="m376.72 247.82c-4.8-0.44-13.66-1.46-17.87-2.98v-0.66c13.07-2.25 11.69-4.35 25.2 0.66v0.58c-2.54 1.74-4.72 2.4-7.33 2.4" /><path
       id="path311"
       style="fill-rule:evenodd;fill:#ffffff"
       d="m332.86 246.94c-2.18-2.9-10.82-6.6-13.95-8.35v-0.65c1.31-0.58 3.34-0.8 5.01-0.58 1.16 1.74 8.06 5.52 10.82 7.77 0 0.51 0 1.01 0.08 1.6-0.3 0.21-0.3 0.21-1.96 0.21" /><path
       id="path313"
       style="fill-rule:evenodd;fill:#ffffff"
       d="m336.63 246.8c-0.87-0.44 0.29-6.54 0.58-7.55 0.22 0 0.44 0.07 0.73 0.14 0.14 1.02 2.03 5.96 1.81 6.97-1.09 0.15-2.1 0.29-3.12 0.44" /><path
       id="path315"
       style="fill-rule:evenodd;fill:#ffffff"
       d="m386.66 243.46c-0.58-0.44-6.6-2.54-7.69-2.76-0.07-0.29-0.15-0.58-0.15-0.87 0.22 0 13.44 0.14 11.62 2.54-1.45 0.51-2.61 1.09-3.78 1.09" /><path
       id="path317"
       style="fill-rule:evenodd;fill:#ffffff"
       d="m406.42 242.59c-1.46-0.22-2.91-0.44-4.36-0.66 0.07-0.72 24.84-4.64 29.12-5.95 3.63-1.96 11.18-7.63 15.32-8.64-1.89 11.62-31.37 15.25-40.08 15.25" /><path
       id="path319"
       style="fill-rule:evenodd;fill:#ffffff"
       d="m333.94 242.08c-2.25-1.74-4.72-3.85-6.89-4.94-0.08-0.22-0.15-0.44-0.22-0.65 2.97 0 5.95 0 8.93 0.07 0 1.74-0.8 3.56-1.16 5.59-0.22-0.07-0.44-0.07-0.66-0.07" /><path
       id="path321"
       style="fill-rule:evenodd;fill:#ffffff"
       d="m357.62 241.93c0-5.08 33.91-7.04 40.3-5.95 0 0.22 0 0.44 0.07 0.73-2.83 2.47-13.5 0.94-16.92 0.94-8.27 0.8-15.97 3.56-23.45 4.28" /><path
       id="path323"
       style="fill-rule:evenodd;fill:#ffffff"
       d="m392.11 240.7v-0.66c0.36 0.08 0.8 0.15 1.23 0.22-0.21 0.29-0.21 0.29-1.23 0.44" /><path
       id="path325"
       style="fill-rule:evenodd;fill:#ffffff"
       d="m500.96 240.26c-2.03-5.44-9.14-35.94-2.68-38.05 1.45 11.62 0.65 23.17 3.41 35.58-0.07 0.8-0.07 1.67-0.07 2.55-0.22-0.08-0.44-0.08-0.66-0.08" /><path
       id="path327"
       style="fill-rule:evenodd;fill:#ffffff"
       d="m405.18 238.59c0-1.89 2.11-2.61 3.71-2.68 0 1.81-2.33 2.39-3.71 2.68" /><path
       id="path329"
       style="fill-rule:evenodd;fill:#ffffff"
       d="m410.77 237.79c0-3.19 1.67-5.23 4.58-5.66-0.73 1.89-1.6 3.12-2.83 5.45-0.58 0.07-1.16 0.14-1.75 0.21" /><path
       id="path331"
       style="fill-rule:evenodd;fill:#ffffff"
       d="m414.91 237.43c0-2.11 2.25-4.65 3.13-6.24 0.58-0.22 1.23-0.37 1.88-0.51-0.21 1.6-1.74 5.15-2.9 6.68-0.73 0-1.45 0-2.11 0.07" /><path
       id="path333"
       style="fill-rule:evenodd;fill:#ffffff"
       d="m462.55 237.14v-1.23h0.58c-0.07 0.29-0.14 0.65-0.14 1.01-0.15 0.08-0.29 0.15-0.44 0.22" /><path
       id="path335"
       style="fill-rule:evenodd;fill:#ffffff"
       d="m487.68 236.92c-5.6-9.36 6.82-41.39 11.25-48.58 3.99-4.86 2.54-5.3 7.85-5.66 0 0.5-7.7 11.18-8.07 11.69-3.19 7.26-5.59 13.87-7.04 22.22-0.07 0.94-1.52 18.88-3.77 20.55-0.08-0.07-0.15-0.14-0.22-0.22" /><path
       id="path337"
       style="fill-rule:evenodd;fill:#ffffff"
       d="m419.49 236.92c0-2.83 3.05-7.62 5.66-8.28-0.73 2.55-2.61 4.72-2.9 7.92-0.95 0.07-1.89 0.22-2.76 0.36" /><path
       id="path339"
       style="fill-rule:evenodd;fill:#ffffff"
       d="m363.43 236.34c-8.64-1.81-16.56-1.67-24.77-1.89v-0.65c7.48-0.94 25.06-3.85 31.38 1.23-0.37 0.8-5.96 1.24-6.61 1.31" /><path
       id="path341"
       style="fill-rule:evenodd;fill:#ffffff"
       d="m473.52 235.98c-2.33-3.34-6.32-11.55-4.36-13.94h0.65c0.58 2.32 0.51 5.95 4.14 6.97-0.07 2.25-0.14 4.57-0.14 6.9-0.15 0-0.22 0-0.29 0.07" /><path
       id="path343"
       style="fill-rule:evenodd;fill:#ffffff"
       d="m424.28 235.91c0-2.47 2.76-6.1 3.99-7.92 0.73-0.07 1.46-0.15 2.26-0.22-0.66 3.05-3.05 7.7-6.25 8.14" /><path
       id="path345"
       style="fill-rule:evenodd;fill:#ffffff"
       d="m429.07 234.67c0-2.69 2.69-5.01 4.36-6.83 1.67 0 1.67 0 3.34 0.37-3.41 4.28-2.61 4.07-7.7 6.46" /><path
       id="path347"
       style="fill-rule:evenodd;fill:#ffffff"
       d="m374.03 234.31c-2.76-2.4-9.3-4.5-9.8-6.54 2.25-0.36 14.15 4.65 12.92 6.32-1.09 0.07-2.1 0.15-3.12 0.22" /><path
       id="path349"
       style="fill-rule:evenodd;fill:#ffffff"
       d="m409.1 233.87c-0.8-0.36-0.58-1.01-0.58-1.09 0.8 0.08 0.8 0.08 1.31 0.44-0.07 0.22-0.07 0.44-0.07 0.65h-0.66" /><path
       id="path351"
       style="fill-rule:evenodd;fill:#ffffff"
       d="m396.25 233.66c-1.67-0.37-1.67-0.37-4.14-0.44-0.36-2.69-1.81-4.65-2.11-7.12 2.91 0.08 24.99 2.91 25.78-2.03 4.36-0.07 14.02-2.83 18.23-1.45 0.44 5.3-6.68 3.05-11.18 4.43-6.47 4.14-14.45 3.12-20.99 3.12-2.98-0.95-9.51-3.05-10.09-0.07 1.81 1.52 8.06-0.15 9.66 2.25-1.67 1.96-3.34 1.31-5.16 1.31" /><path
       id="path353"
       style="fill-rule:evenodd;fill:#ffffff"
       d="m379.84 233.36c-2.47-2.9-6.61-4.72-9.15-6.6 0.51-0.51 10.75-2.91 11.84-2.69 0.94 2.32 3.26 5.66 2.9 9-0.8 0.22-0.8 0.22-5.59 0.29" /><path
       id="path355"
       style="fill-rule:evenodd;fill:#ffffff"
       d="m388.12 233.07c-0.51-0.21-3.27-8.86-3.27-9.87 0.36 0 0.8 0 1.23 0.07 0.8 2.11 3.92 7.04 3.49 9.8h-1.45" /><path
       id="path357"
       style="fill-rule:evenodd;fill:#ffffff"
       d="m363.86 231.62c-2.54-0.43-5.01-0.87-7.48-1.31v-0.65c4-0.8 4.94-1.45 8.94 1.74-0.22 0.22-0.22 0.22-1.46 0.22" /><path
       id="path359"
       style="fill-rule:evenodd;fill:#ffffff"
       d="m438.8 229.44c0-1.23 0.66-1.3 1.31-2.03 0.58 0 1.16 0.07 1.82 0.15-2.47 1.74-2.47 1.74-3.13 1.88" /><path
       id="path361"
       style="fill-rule:evenodd;fill:#231f20"
       d="m120.74 228.86c-4.5-0.43-13.72-1.81-15.83-5.01 10.6 0 33.55 9.3 33.55-10.38-1.6-5.96-3.78-3.27-6.32-6.25 12.78 0 10.17 13.51 1.67 19.54-4.72 2.03-8.5 2.03-13.07 2.1" /><path
       id="path363"
       style="fill-rule:evenodd;fill:#ffffff"
       d="m473.52 226.83c-3.27-8.5-2.18-8.93 2.1-16.12 0.15-0.07 0.36-0.15 0.58-0.15-0.14 4.94-1.81 10.6-2.18 16.2-0.29 0.21-0.29 0.21-0.5 0.07" /><path
       id="path365"
       style="fill-rule:evenodd;fill:#ffffff"
       d="m397.05 225.38c-3.63-0.44-8.35 0.21-8.86-2.98 1.6-0.8 12.49-5.16 14.31-4.58 0.72 2.4 1.52 4.8 2.32 7.27-0.65 0.65-7.04 0.29-7.77 0.29" /><path
       id="path367"
       style="fill-rule:evenodd;fill:#ffffff"
       d="m436.34 225.52c0.14-1.31 0.29-2.54 0.43-3.77 2.83-0.59 5.67-1.17 8.5-1.67-0.22 1.16-1.16 2.76-1.16 4.57-2.62 0.29-5.23 0.58-7.77 0.87" /><path
       id="path369"
       style="fill-rule:evenodd;fill:#ffffff"
       d="m268.44 224.94c-0.65-0.14-1.3-0.29-1.89-0.44-0.07-0.21-0.14-0.43-0.14-0.65 7.04-1.6 16.77-5.01 15.39-14.38 7.19-2.1 11.55-6.82 10.17-14.52 0.44-0.07 0.95-0.15 1.45-0.15 6.47 9.52 0 13-8.28 16.78v0.65c0.3 0.15 0.58 0.37 0.95 0.58 0 0.29 0 0.66 0.07 1.02 3.63 2.03 10.02 1.23 14.89 2.18 44.15-0.87 92.95-14.67 134.49-31.15 5.44-3.42 11.47-5.38 18.44-4-0.8 2.54-43.28 18.66-46.69 19.97-16.78 3.92-32.97 10.31-49.89 13.07-25.35 6.97-48 8.14-73.78 9.08 0-3.12 4.07-4.79 0.65-8.21-0.29 0-0.58 0.08-0.8 0.15-0.57 8.28-7.84 10.02-15.03 10.02" /><path
       id="path371"
       style="fill-rule:evenodd;fill:#ffffff"
       d="m407.29 224.65c-2.18-2.69-2.76-5.45-3.05-7.7 1.96-0.72 1.96-0.72 2.61-0.72 0.36 1.3 2.69 6.31 2.47 8.27-0.58 0.22-0.58 0.22-2.03 0.15" /><path
       id="path373"
       style="fill-rule:evenodd;fill:#ffffff"
       d="m446.14 224.65c0-3.27 3.19-6.54 6.61-6.83-1.24 2.91-3.63 6.54-6.61 6.83" /><path
       id="path375"
       style="fill-rule:evenodd;fill:#ffffff"
       d="m411.65 223.92c-1.09-1.08-0.73-0.94-0.87-1.52 1.16 0.36 2.32 0.72 3.55 1.09-0.8 0.8-1.96 0.43-2.68 0.43" /><path
       id="path377"
       style="fill-rule:evenodd;fill:#ffffff"
       d="m416 221.82c-0.14-0.22-0.29-0.44-0.43-0.66 1.38-0.5 9.65-0.79 10.38-2.03 11.33-1.67 22.59-5.81 33.69-9.95 1.17-0.72 2.55-1.67 4.36-1.67-12.56 11.19-31.95 14.31-48 14.31" /><path
       id="path379"
       style="fill-rule:evenodd;fill:#ffffff"
       d="m410.77 221.24c-1.52-2.11-1.74-4.07-1.89-5.74 4.94-0.8 8.07-4.28 12.06 2.11-0.51 1.09-7.77 0.94-9.73 3.63h-0.44" /><path
       id="path381"
       style="fill-rule:evenodd;fill:#ffffff"
       d="m512 220.73c0-5.37 1.46-37.11 7.63-37.83-1.38 5.01-6.83 37.83-7.63 37.83" /><path
       id="path383"
       style="fill-rule:evenodd;fill:#ffffff"
       d="m459.65 219.13c-1.46-1.67-2.91-0.51-4.21-0.07 0-2.69 6.02-8.57 8.13-7.92-0.66 1.24-2.62 7.99-3.92 7.99" /><path
       id="path385"
       style="fill-rule:evenodd;fill:#ffffff"
       d="m467.92 219.28c0.73-6.54 9.37-25.42 15.76-27.02-0.22 1.89-7.55 12.13-8.42 13.51-1.45 3.41-5.01 10.75-7.34 13.51" /><path
       id="path387"
       style="fill-rule:evenodd;fill:#ffffff"
       d="m423.48 217.02c-1.38-1.08-4.5-3.48-4.5-4.64 1.67-0.95 4.57 2.98 5.95 4.36-0.07 0.07-0.14 0.14-0.21 0.28h-1.24" /><path
       id="path389"
       style="fill-rule:evenodd;fill:#ffffff"
       d="m427.62 216.44c-1.6-1.59-3.7-3.7-5.16-4.86 0-0.22 0.08-0.44 0.15-0.66 1.82-0.72 3.12-1.74 5.45-1.74 1.23 2.11 3.92 4 6.82 5.59-1.23 1.24-5.66 1.67-7.26 1.67" /><path
       id="path391"
       style="fill-rule:evenodd;fill:#231f20"
       d="m111.37 214.12c-15.611-1.67-1.89-25.27 7.99-12.13 1.82 7.41 0.65 12.13-7.99 12.13" /><path
       id="path393"
       style="fill-rule:evenodd;fill:#ffffff"
       d="m301.48 213.76c-4.14-0.37-8.2-0.66-12.27-0.95v-0.79c2.76-0.73 6.03-2.98 7.92-5.38 29.99 0 61.5-9 90.62-16.99 9.44-1.96 38.71-16.34 48-9.37 0 0.29 0 0.58 0.08 0.94-7.19 6.61-26 7.05-31.3 12.35-33.19 8.93-69.13 20.19-103.05 20.19" /><path
       id="path395"
       style="fill-rule:evenodd;fill:#ffffff"
       d="m436.34 213.1c-2.62-0.94-5.96-2.9-5.96-5.08 0.44-0.44 0.58-0.51 1.6-0.51 1.16 1.31 4.43 3.41 5.59 5.3-0.07 0.08-0.15 0.15-0.22 0.29h-1.01" /><path
       id="path397"
       style="fill-rule:evenodd;fill:#231f20"
       d="m230.61 212.67c-6.25-3.71-5.45-19.32 1.09-19.32 0 3.27-5.88 7.55-2.76 12.2 0.29-0.22 0.29-0.22 0.73-1.45 1.09-5.45 4.64-12.13 9.51-14.52 0.29 0.29 0.36 0.5 0.51 1.23-8.65 7.92-6.1 12.35-7.92 21.57-0.43 0.07-0.8 0.14-1.16 0.29" /><path
       id="path399"
       style="fill-rule:evenodd;fill:#ffffff"
       d="m440.11 212.3c-1.96-1.74-3.92-3.41-5.81-5.08v-0.87c7.12-2.03 18.66-12.13 24.91-12.78 5.52-2.03 7.99-1.45 14.74-1.74-0.07 0.43-0.15 0.87-0.22 1.3-5.23 1.02-19.53 1.17-21.78 5.74 0.65 2.83 10.82 0.58 14.09 1.89-0.15 0.14-0.3 0.29-0.37 0.51-5.66 0-15.68 1.38-18.73 5.95-1.09 0.87-6.1 5.08-6.83 5.08" /><path
       id="path401"
       style="fill-rule:evenodd;fill:#ffffff"
       d="m445.27 211.8c0-4.72 15.97-8.35 19.53-8.5-1.02 2.98-16.05 7.92-19.53 8.5" /><path
       id="path403"
       style="fill-rule:evenodd;fill:#ffffff"
       d="m483.32 209.69c1.81-7.48 6.53-11.76 9.58-18.08 1.02-1.23 1.53-2.18 0.15-2.18-1.67 1.74-5.08 7.12-6.61 7.63-1.38-8.65 6.18-12.64 13.29-14.16-0.29 1.16-1.74 2.61-2.47 3.55-2.69 4.43-9.44 20.99-13.94 23.24" /><path
       id="path405"
       style="fill-rule:evenodd;fill:#ffffff"
       d="m109.48 209.18c-0.29-0.22-0.5-0.36-0.72-0.51 0-2.25 0.14-2.32 1.16-3.7 4.43 0 3.41 4.21-0.44 4.21" /><path
       id="path407"
       style="fill-rule:evenodd;fill:#231f20"
       d="m242.88 206.86c-6.39-4.79 2.98-24.4 9.37-22.3 0 0.3 0 0.66 0.07 1.02-4.57 7.26-1.89 12.56-1.89 19.97-0.79 0.8-5.15-1.31-5.22-1.45 0.21-0.36 0.21-0.36 1.88-1.16 0.08-5.23 0-9.81 1.24-14.45-0.29 0-0.58 0-0.87 0.07-2.11 5.81-4.29 7.84-4.29 14.74 0.87 2.47 0.87 2.47 0.87 3.27-0.29 0.29-0.29 0.29-1.16 0.29" /><path
       id="path409"
       style="fill-rule:evenodd;fill:#ffffff"
       d="m300.47 205.19c-0.8-0.07-1.6-0.07-2.33-0.07v-0.8c0.22-0.08 0.44-0.15 0.66-0.22-0.8-3.12-1.6-6.25-2.33-9.37 10.17-4.43 0.29-12.63 1.09-13.43 16.92-2.18 32.68-9.52 49.24-13.87 5.3-4 16.19-1.45 17.5 5.95-19.97 5.59-41.76 11.11-61.94 13.07 1.52 6.32 56.86-10.74 66.66-11.54 2.61-1.75 22.95-2.69 22.95 3.19-2.55 2.18-21.14 5.52-26.29 6.1-19.61 5.23-38.71 8.28-58.39 10.82-1.74 0-3.55 0.08-4.79 0.36 0 6.9 79.44-12.05 88.3-13.86 3.56-1.31 7.12-3.06 10.9 0.14v0.8c-21.93 7.62-44.52 12.56-66.52 17.79-11.48 1.09-23.31 4.29-34.71 4.94" /><path
       id="path411"
       style="fill-rule:evenodd;fill:#ffffff"
       d="m510.55 203.45c-2.76-7.92-3.34-13.51 0-20.92 2.11 0.15 4.21 0.37 6.39 0.58-2.03 3.49-6.24 20.26-6.39 20.34" /><path
       id="path413"
       style="fill-rule:evenodd;fill:#ffffff"
       d="m476.2 193.13c-0.14-0.36-0.29-0.72-0.36-1.09h1.81c-0.07 1.09-0.87 1.02-1.45 1.09" /><path
       id="path415"
       style="fill-rule:evenodd;fill:#ffffff"
       d="m461.46 189.94c0.94-4.29 10.68-8.64 14.6-9.08-1.16 4.87-10.9 7.99-14.6 9.08" /><path
       id="path417"
       style="fill-rule:evenodd;fill:#ffffff"
       d="m473.52 189.65c-1.02-0.07-1.96-0.07-2.91-0.07 0-4.58 20.26-11.55 21.86-17 2.03-0.29 4.07-0.87 6.61-0.72-5.81 5.08-13.08 7.62-18.45 14.01-3.05 2.69-3.27 3.78-7.11 3.78" /><path
       id="path419"
       style="fill-rule:evenodd;fill:#ffffff"
       d="m508.01 181.3c-0.8-0.22-0.8-0.22-7.92-0.29 0.08-0.29 0.15-0.51 0.22-0.73 6.1-1.38 13.07-2.03 19.97-2.4 0 4-10.46 3.42-12.27 3.42" /><path
       id="path421"
       style="fill-rule:evenodd;fill:#ffffff"
       d="m461.9 180.72v-0.95c8.42-2.9 18.51-6.1 26.21-11.11 0.58-0.65 1.53-1.67 2.69-1.38-4.14 5.3-22.88 13.44-28.9 13.44" /><path
       id="path423"
       style="fill-rule:evenodd;fill:#ffffff"
       d="m287.98 180.64c-0.44-2.54-1.53-3.48-1.89-4.57 12.35-2.54 26.07-6.32 39.29-7.04 3.19-3.71 7.26-2.55 12.27-2.04 0.07 0.07 0.14 0.15 0.22 0.29-5.38 4.22-27.53 8.94-32.83 10.32-5.59 0.94-11.98 2.54-17.06 3.04" /><path
       id="path425"
       style="fill-rule:evenodd;fill:#ffffff"
       d="m479.54 179.19c0.15-0.8 0.29-1.6 0.44-2.32 1.31-0.44 7.62-4.21 8.71-3.13-2.1 2.55-6.39 4.58-9.15 5.45" /><path
       id="path427"
       style="fill-rule:evenodd;fill:#ffffff"
       d="m403.73 177.96c-5.01-2.4-10.17-2.69-12.93-6.83-7.4-2.61-16.19-1.31-23.02-1.23-3.99-4.87-13.58-5.74-9.29-12.13 1.6-9.95 6.46-12.35 16.12-15.76 4.07-0.72 18.23-6.68 22.44-5.66-2.25 4.57-13.22 4.14-13.22 13.29 4.72 3.77 5.81-1.38 10.31-2.47-0.51 5.45-1.74 4.35 2.91 7.26-2.04 1.89-9.3 9.66-3.49 11.11 4.07 2.03 8.57-4.57 12.42-7.04 1.52-1.53 14.31-7.99 16.27-6.03-3.56 1.6-10.82 4.5-13.07 6.75 0 8.86 8.64 2.11 13.43 1.46-0.87 1.96-5.45 15.61 1.67 8.49 7.19-12.56 11.04-14.3 26-16.34 1.01 0 2.25 0.44 7.7 1.45 0.21 0.37 0.21 0.37 0 0.66-7.19 0.65-33.05 4.72-30.07 14.01 6.68 2.69 24.4-8.86 26.51-6.75-1.31 0.73-2.62 1.45-3.85 2.18 0 5.3 7.48 3.85 11.33 4.5-3.56 2.4-5.16 3.78-7.7 7.04-6.1 0-11.48 0.3-16.85 0.59-7.11-7.12-26.58 1.45-33.62 1.45" /><path
       id="path429"
       style="fill-rule:evenodd;fill:#ffffff"
       d="m456.67 177.3c0.43-4.28 14.01-11.32 18.3-10.82-2.18 2.62-14.53 10.02-18.3 10.82" /><path
       id="path431"
       style="fill-rule:evenodd;fill:#ffffff"
       d="m471.26 173.16c1.82-2.46 6.1-5.3 9.01-7.11 0-0.44 0.07-0.87 0.15-1.24 2.54-0.58 11.18-5.01 13.28-4.79-3.26 2.98-17.5 14.74-22.44 13.14" /><path
       id="path433"
       style="fill-rule:evenodd;fill:#ffffff"
       d="m492.47 170.26c0.73-3.85 26.65-9 29.26-5.01-0.43 0.44-24.54 4.57-29.26 5.01" /><path
       id="path435"
       style="fill-rule:evenodd;fill:#ffffff"
       d="m160.61 168.88c-8.28-0.87-20.92-10.24-27.53-14.23-0.07-0.22-0.07-0.44-0.07-0.66 5.37 0 23.75 9.88 29.7 13.44 0 0.21 0 0.43 0.07 0.72-1.01 0.51-1.52 0.73-2.17 0.73" /><path
       id="path437"
       style="fill-rule:evenodd;fill:#ffffff"
       d="m421.59 168.95c0.29-3.48 2.91-9.8 6.25-9.95-0.29 1.38-5.16 9.73-6.25 9.95" /><path
       id="path439"
       style="fill-rule:evenodd;fill:#ffffff"
       d="m429.73 167.79c-1.16-0.36 0.43-2.1 0.43-2.1 10.61-5.67 21.72-8.86 34.06-8.86-0.43 0.36-0.43 0.36-2.1 0.79-11.04 1.46-23.32 10.17-32.39 10.17" /><path
       id="path441"
       style="fill-rule:evenodd;fill:#ffffff"
       d="m146.88 166.77c-6.03-0.58-22.15-3.63-26.07-6.53-0.07-0.22-0.07-0.44-0.07-0.58 8.5 0 19.02 2.76 27.45 6.46v0.65h-1.31" /><path
       id="path443"
       style="fill-rule:evenodd;fill:#ffffff"
       d="m454.85 166.77c-0.8-0.29-1.52-0.5-2.25-0.72v-0.58c9.59-4.8 23.31-4.8 34.2-8.28 1.82-0.8 5.09-3.27 7.34-3.27 6.46 6.46-37.11 12.85-39.29 12.85" /><path
       id="path445"
       style="fill-rule:evenodd;fill:#ffffff"
       d="m164.6 165.54c-12.13-2.4-20.48-14.6-20.99-25.42 1.46 0 10.75 14.82 13.58 17.65 0 1.96 6.54 5.37 8.65 7.48-0.08 0.07-0.15 0.15-0.22 0.29h-1.02" /><path
       id="path447"
       style="fill-rule:evenodd;fill:#ffffff"
       d="m496.82 164.89c-0.94-0.44 3.56-3.85 1.31-6.1-0.07-0.37-0.07-0.73-0.07-1.02 0.29-0.07 0.65-0.15 1.02-0.15 2.47-4.57 4.06-10.31 7.33-14.16 0.15 0-2.97 19.83-9.59 21.43" /><path
       id="path449"
       style="fill-rule:evenodd;fill:#ffffff"
       d="m394.58 164.45c-3.56-4.79 10.31-13.07 14.52-15.1 7.26-2.4 13.44-2.76 21.43-2.91 0 3.56-13.29 4.28-15.4 4.72-7.33 2.4-14.6 7.26-19.31 13.29h-1.24" /><path
       id="path451"
       style="fill-rule:evenodd;fill:#ffffff"
       d="m503.07 162.85c-0.15-0.14-0.29-0.21-0.36-0.29 0-0.65 0-0.65 2.61-7.48h0.8c-0.07 2.33-0.07 4.65-0.07 7.05-0.29 0.29-0.29 0.29-2.98 0.72" /><path
       id="path453"
       style="fill-rule:evenodd;fill:#ffffff"
       d="m520.5 162.2c-5.08-1.74-3.2-25.85-2.91-28.76 0.44-0.36 0.44-0.36 1.46-0.43 0.72 8.71 1.96 19.75 1.96 29.12-0.29 0.21-0.29 0.21-0.51 0.07" /><path
       id="path455"
       style="fill-rule:evenodd;fill:#ffffff"
       d="m411.79 161.54c-0.29-0.07-0.51-0.14-0.73-0.21 0-0.29 0.08-0.58 0.15-0.87 6.68-3.64 14.52-8.21 22.44-8.21 7.26-1.96 5.01-4.94 12.49-1.23-2.91 2.39-14.96 4.64-18.3 5.59-5.74 0.51-10.53 4.93-16.05 4.93" /><path
       id="path457"
       style="fill-rule:evenodd;fill:#ffffff"
       d="m457.1 161.54v-0.65c1.75-0.94 7.48-2.18 10.17-1.89-0.07 0.08-0.15 0.15-0.15 0.29-3.34 0.73-6.68 1.46-10.02 2.25" /><path
       id="path459"
       style="fill-rule:evenodd;fill:#ffffff"
       d="m513.46 161.26c-1.46-1.46 0.65-14.75 1.45-17 0.51 3.85 1.52 13.36 1.01 17.14-0.87-0.07-1.67-0.14-2.46-0.14" /><path
       id="path461"
       style="fill-rule:evenodd;fill:#ffffff"
       d="m172.88 159.29c-2.76-1.38 0.8-29.48 0.87-29.99 9.66-33.619 35.15-57.728 60.42-80.021 0.94-0.581 1.31-1.235 2.39-2.034 5.23-6.608 51.27-46.838 63.25-43.861-7.19 7.843-19.82 12.2-26.57 20.841-22.88 18.3-36.6 43.498-51.49 67.898-2.18 7.407-2.76 3.994-5.66 4.938 0.29 0.291 0.58 0.581 0.94 0.871-6.17 0-8.93 0.799-13.22 4.648-0.43 0.51-6.97 7.55-6.97 9.3 5.09 0.58 9.73-15.836 19.46-10.97h1.02c4.28-2.614 15.18-1.743 16.92 4.5 7.7 5.74 12.56-5.953 17.86 9.15 1.38 1.38 4.36 0.29 7.19 0.87 2.4 1.24 11.11 6.32 10.03 10.82-1.82 0.58-5.38 0.66-6.9 0.66-3.13-5.67-8.14-5.59-13.08-6.25-5.51-7.77-9.73-10.53-19.09-9.37-5.23-5.51-17.87-12.631-23.89-5.08 0.07 0.22 0.21 0.44 0.36 0.73 8.2 1.59 12.49-4.87 20.84 4.57 0.36 1.02 0.36 2.76 2.69 2.91 4.21-2.25 10.67 0.14 14.74 3.34 0.87 1.45 1.81 4.06 3.7 5.59 1.16 0.07 11.69 0.58 10.82 4.14-4.86 0.65-25.49 6.03-27.59 3.34-4.87-2.91-12.13-6.03-17.07-3.85-0.07 0.36-0.14 0.73-0.14 1.09 0.36 0.36 11.98 2.39 15.61 4.36-0.07 0.21-0.07 0.43-0.07 0.65-2.84 0.58-5.89 1.67-8.14 1.67-3.12-2.69-6.24-3.05-9.36-3.34 0-6.68-4.43-12.27-10.75-11.91 2.4 3.34 11.18 4.79 7.91 12.93 0 0.5 0.08 1.09 0.15 1.67 3.7 0 4.07-0.95 9.58 1.08 0.08 0.08 0.15 0.22 0.22 0.37-1.81 1.81-14.09 4.72-16.63 5.66-5.81 3.85-15.97 6.61-20.77 11.4-1.96 0.95-7.48 6.68-9.58 6.68" /><path
       id="path463"
       style="fill-rule:evenodd;fill:#ffffff"
       d="m105.34 158.86c-0.65-0.66-0.36-1.09-0.36-1.31 7.99-10.24 14.09-12.34 26.94-10.53 0.29 0.58-10.89 4-12.2 5.01-5.23 1.75-9.08 6.83-14.38 6.83" /><path
       id="path465"
       style="fill-rule:evenodd;fill:#ffffff"
       d="m161.04 158.28c-2.4-1.67-4.36-4.14-5.52-5.52 0-2.25-1.81-18.66 1.75-19.54 0.94 6.18 0.79 12.71 2.39 19.76 0.51 1.67 1.09 3.34 1.67 5.01-0.14 0.07-0.22 0.14-0.29 0.29" /><path
       id="path467"
       style="fill-rule:evenodd;fill:#ffffff"
       d="m496.82 156.61c-4.13-4.14 18.3-31.81 19.54-32.1 0 1.02-5.01 6.83-5.96 8.93-5.22 6.76-9.51 15.11-12.7 23.1-0.29 0-0.58 0-0.88 0.07" /><path
       id="path469"
       style="fill-rule:evenodd;fill:#ffffff"
       d="m472.06 155.52c-1.09-1.09-17.14-4-17.86-4.14-5.66-0.58-13.8-7.7-16.63-7.7-1.45 2.91-18.66-1.81-21.21-1.88 0.08-0.3 0.15-0.59 0.22-0.8 9.08-2.55 10.46 0.8 18.96 2.68 0.07-0.07 0.14-0.14 0.29-0.22 0-4.79-13-11.98-5.3-13.36 4.35 16.49 36.89 24.48 51.7 23.82 5.88-1.3 9.59-6.9 14.81-10.02 0.29-3.63 8.21-14.3 11.18-13.36-4.57 6.61-9.87 12.92-13.21 20.4-1.89 0.3-10.68 5.67-11.91 4-3.7 0.14-7.41 0.36-11.04 0.58" /><path
       id="path471"
       style="fill-rule:evenodd;fill:#ffffff"
       d="m399.59 151.6c-0.15-0.08-0.15-0.08 0.07-1.96 3.63-6.68 5.3-9.15 13-9.74 0 1.02-11.76 11.7-13.07 11.7" /><path
       id="path473"
       style="fill-rule:evenodd;fill:#ffffff"
       d="m395.6 151.31c0.22-3.34 1.09-7.85 5.01-8.28 0 0.29-4.36 8.28-5.01 8.28" /><path
       id="path475"
       style="fill-rule:evenodd;fill:#ffffff"
       d="m143.4 150.58c-1.96-2.69-3.2-4.07-5.67-5.01-1.89-2.18-15.25-21.06-15.25-22.29 0.36-0.51 0.73-0.95 1.16-1.38h0.8c5.3 5.73 9.73 20.04 17.72 24.03 1.53 3.92 1.53 3.92 1.53 4.58-0.15 0-0.22 0-0.29 0.07" /><path
       id="path477"
       style="fill-rule:evenodd;fill:#ffffff"
       d="m431.98 150.29c0-3.05 4.36-3.7 6.68-3.85 0.14 0.15 0.36 0.36 0.58 0.58-1.74 1.74-5.3 2.76-7.26 3.27" /><path
       id="path479"
       style="fill-rule:evenodd;fill:#ffffff"
       d="m483.9 149.71c-7.77-1.31-11.26-2.76-16.34-7.12-0.07-0.43-0.07-0.87-0.07-1.23 5.88 1.23 11.62 5.59 18.51 7.84-0.14 0.15-0.28 0.29-0.43 0.51h-1.67" /><path
       id="path481"
       style="fill-rule:evenodd;fill:#ffffff"
       d="m385.65 149.13c-4.07-2.03 12.49-10.89 12.63-11.04 3.56-0.36 6.98-1.02 11.04-0.8-1.67 0.8-3.19 0.58-4.36 0.58-4.64 1.75-15.9 11.26-19.31 11.26" /><path
       id="path483"
       style="fill-rule:evenodd;fill:#ffffff"
       d="m152.55 148.4c-3.2-3.85-3.71-6.24-2.33-10.38h0.66c0.87 3.12 2.61 6.53 2.25 10.45-0.22-0.07-0.44-0.07-0.58-0.07" /><path
       id="path485"
       style="fill-rule:evenodd;fill:#ffffff"
       d="m459.79 147.68c-6.75-3.34-14.09-11.48-14.74-18.16 1.38 0 15.47 18.01 15.39 18.16h-0.65" /><path
       id="path487"
       style="fill-rule:evenodd;fill:#ffffff"
       d="m92.709 147.24c-0.218-0.14-0.436-0.22-0.581-0.29 1.525-10.75 32.822-16.41 37.112-10.17-0.08 0.08-0.15 0.15-0.22 0.29-11.69 0-23.89 1.6-32.825 8.72-2.47 1.23-2.47 1.23-3.486 1.45" /><path
       id="path489"
       style="fill-rule:evenodd;fill:#ffffff"
       d="m409.98 146.51c0-4.21 6.82-2.9 9.51-2.03-0.07 0.07-0.15 0.15-0.22 0.29-3.41 0.15-6.68 1.53-9.29 1.74" /><path
       id="path491"
       style="fill-rule:evenodd;fill:#ffffff"
       d="m489.56 146.3c-1.08-4.51-8.35-2.62-9.36-10.17 3.84 1.09 5.8 6.9 12.27 7.55 0 0.07 0.07 0.22 0.14 0.36-0.72 0.8-2.1 2.47-3.05 2.26" /><path
       id="path493"
       style="fill-rule:evenodd;fill:#ffffff"
       d="m452.53 145.79c-1.96-0.37-3.56-1.09-4.79-1.67-0.58-4.8-10.24-11.4-9.3-15.25 1.82-0.37 1.82-0.37 4.58-0.51 0.58 5.3 3.92 12.2 9 15.9 0.8 1.02 0.8 1.02 0.8 1.46-0.15 0-0.22 0-0.29 0.07" /><path
       id="path495"
       style="fill-rule:evenodd;fill:#ffffff"
       d="m132.79 144.77c-8.35-1.45-16.33-1.74-24.11-1.96 0.08-0.22 0.15-0.44 0.22-0.65 8.57-2.11 15.91-2.54 24.4 1.88 0 0.37-0.29 0.95-0.51 0.73" /><path
       id="path497"
       style="fill-rule:evenodd;fill:#ffffff"
       d="m443.02 141.87c-2.62-0.87-11.19-9.95-10.46-12.13 0.73-0.15 0.94-0.36 2.54-0.36 2.83 2.83 5.74 8.13 8.72 12.2-0.22 0.29-0.22 0.29-0.8 0.29" /><path
       id="path499"
       style="fill-rule:evenodd;fill:#ffffff"
       d="m140.27 140.56c-3.92-4.5-13.65-17.57-13.65-21.06 2.25-1.52-6.24-32.895 2.04-35.654 4.64 11.401 2.39 26.794 5.44 38.994 0.15 3.27 0 6.17 1.38 9.8 1.89 0.15-0.87-37.539 7.26-37.539 0.44 0.654 0.44 1.888 0.51 3.05-1.45 14.379-3.49 27.379-2.47 42.339-0.29 0.21-0.29 0.21-0.51 0.07" /><path
       id="path501"
       style="fill-rule:evenodd;fill:#ffffff"
       d="m129.89 140.34c0.07-1.16-0.36-1.02 0.8-1.02 0.14 0.15 0.29 0.37 0.43 0.58-0.21 0.3-0.21 0.3-1.23 0.44" /><path
       id="path503"
       style="fill-rule:evenodd;fill:#ffffff"
       d="m147.32 139.98c-2.91-3.49 0.36-9.08 1.01-12.56h0.87c0.44 3.99 1.46 8.71-1.66 12.7-0.08-0.07-0.15-0.14-0.22-0.14" /><path
       id="path505"
       style="fill-rule:evenodd;fill:#ffffff"
       d="m411.43 137.44v-0.66c9.07-0.29 5.44-0.65 0 0.66" /><path
       id="path507"
       style="fill-rule:evenodd;fill:#ffffff"
       d="m152.55 136.56c-1.02-4.28-3.93-29.91 2.03-31.37 0 8.43 1.31 22.88-1.45 31.23-0.22 0-0.44 0.07-0.58 0.14" /><path
       id="path509"
       style="fill-rule:evenodd;fill:#ffffff"
       d="m420.36 135.62c-5.52-1.02-10.31-0.58-15.18-0.51 0.07-0.21 0.15-0.43 0.22-0.65 4.07-0.58 8.71-1.74 13.29-2.47 0 1.45 1.23 1.96 2.98 3.12-0.08 0.07-0.08 0.15-0.08 0.29-0.43 0.08-0.87 0.15-1.23 0.22" /><path
       id="path511"
       style="fill-rule:evenodd;fill:#ffffff"
       d="m426.97 135.62c-2.03-1.16-4-2.32-5.96-3.41 0-0.22 0.07-0.44 0.15-0.66 1.67-0.29 3.34-0.5 5.01-0.72 0.15 0.22 0.87 3.34 1.53 4.72-0.3 0-0.51 0-0.73 0.07" /><path
       id="path513"
       style="fill-rule:evenodd;fill:#ffffff"
       d="m450.5 131.84c-4.14-3.41-2.69-4.13 0.36-4.64-0.07 1.52-0.07 3.05-0.07 4.57-0.15 0-0.22 0-0.29 0.07" /><path
       id="path515"
       style="fill-rule:evenodd;fill:#ffffff"
       d="m359.65 130.54c5.74-17.36 5.67-24.33 24.98-32.317 4.65-5.519 19.24-9.295 25.93-14.959 14.88-9.295 31.58-21.06 47.78-28.248 6.75-6.754 5.37 1.016 7.55 5.083 1.09 1.016 2.76 1.742 2.76 4.139-2.03 2.033-14.23 6.826-17.57 8.206-10.75 6.172-22.88 10.239-33.84 15.394-2.47 0.872-47.71 22.582-48.44 25.492 21.28-6.68 41.76-21.57 63.4-29.268 10.09-5.446 21.56-9.222 32.02-15.177 0.14-0.217 2.69-1.016 3.48-1.016 0 1.525-1.38 2.396-2.17 3.849-0.51 2.832-45.97 18.662-55.34 24.399-8.28 3.993-16.56 7.983-24.76 12.053-5.88 3.49-14.6 6.1-19.1 10.31 0.07 0.08 0.15 0.15 0.22 0.29 13.07-1.81 29.92-14.95 43.64-19.966 16.19-9.15 35.87-15.54 53.38-22.439 3.7-0.508 3.05-2.614 7.69-0.436 0 1.162 0 2.324 0.08 3.486-0.8 0.799-17.07 6.899-19.83 7.552-5.08 2.542-25.85 9.658-26.36 10.965 9.01 0 20.55-8.06 29.92-9.875 6.32-2.614 14.16-6.317 21.35-7.334 4.65 6.027-4.07 9.658-2.62 15.105-3.12 1.742-11.32 3.195-14.16 3.848-24.61 4.284-48.28 12.924-71.74 20.334-7.55 3.63-20.99 8.93-28.25 10.53" /><path
       id="path517"
       style="fill-rule:evenodd;fill:#ffffff"
       d="m91.256 128.5c-1.307-0.43-0.798-1.67-0.798-1.88 6.971-5.6 24.692-4.36 32.172 1.01-0.07 0.08-0.15 0.15-0.22 0.29-10.6 0-19.32-2.18-29.338 0.58h-1.816" /><path
       id="path519"
       style="fill-rule:evenodd;fill:#ffffff"
       d="m272 125.74c-2.98-7.26 6.54-7.33 12.49-9.22 2.47 0 5.3 4.65 2.69 7.26-4.07 0.58-11.48 2.4-15.18 1.96" /><path
       id="path521"
       style="fill-rule:evenodd;fill:#ffffff"
       d="m156.47 123.13c-2.4-1.16 1.45-8.86 2.25-10.17h1.09c2.32 2.33-2.69 10.82-3.34 10.17" /><path
       id="path523"
       style="fill-rule:evenodd;fill:#ffffff"
       d="m120.74 121.24c-8.28-7.55-14.89-19.1-15.54-29.553 0.29-1.67-0.22-2.614 1.38-2.614 1.23 1.815 17.79 28.977 17.5 30.137-1.67 0.36-1.82 2.03-3.34 2.03" /><path
       id="path525"
       style="fill-rule:evenodd;fill:#ffffff"
       d="m269.32 120.37c0-2.32 14.81-8.35 17.2-8.49-0.28 1.52-14.81 8.13-17.2 8.49" /><path
       id="path527"
       style="fill-rule:evenodd;fill:#ffffff"
       d="m267.43 118.12c-2.62-1.45-4.29-3.7-6.47-4.43 0-1.45 20.12-14.233 23.9-14.233 8.93 11.113-4.51 11.763-12.28 15.763-1.38 0.87-3.7 2.9-5.15 2.9" /><path
       id="path529"
       style="fill-rule:evenodd;fill:#ffffff"
       d="m254.72 112.53c-0.87-0.29-4.29-7.12-4.29-7.12 8.28-11.472 15.91-25.777 27.02-34.491 3.7-4.285 17.64-17.429 23.6-18.881 0 13.652-23.97 31.807-32.61 40.448 0.22 0 0.44 0.073 0.66 0.145 1.81-1.597 18.3-17.573 22.65-16.484 0 10.965-4.57 11.111-14.08 17.646-6.03 4.72-17.07 18.007-22.95 18.737" /><path
       id="path531"
       style="fill-rule:evenodd;fill:#ffffff"
       d="m327.7 112.24c7.33-5.45 14.67-10.9 22-16.341 9.81-9.803 24.76-20.405 32.61-31.879 9.44-7.915 16.92-20.769 27.01-27.522 0.66-2.106 7.34-8.278 10.39-6.754 1.96 1.816 2.54 2.324 5.59 2.978 0.07 1.017 0.14 2.033 0.29 3.05-24.84 20.696-46.11 47.492-73.2 65.568-10.46 8.28-12.13 10.17-24.69 10.9" /><path
       id="path533"
       style="fill-rule:evenodd;fill:#ffffff"
       d="m345.78 109.55c0-1.45 10.75-8.28 12.71-9.51 17.72-13.654 35-29.92 50.32-46.186 3.78-3.631 34.06-33.768 34.06-13.072-10.38 8.787-20.62 17.792-31.37 25.998-10.31 6.753-19.32 15.249-29.41 22.293-11.4 6.245-23.24 19.677-36.31 20.477" /><path
       id="path535"
       style="fill-rule:evenodd;fill:#ffffff"
       d="m361.76 106.21c0-0.94 34.2-23.527 39.65-28.973 15.46-10.53 28.97-24.037 43.86-35.147h1.67c0.51 0.653 0.87 1.016 0.87 2.468-6.1 4.721-16.7 11.765-21.42 17.646 5.52 0 32.89-29.845 32.89-13.071 1.74 2.687-7.04 6.173-8.78 7.335-20.77 10.675-40.09 24.762-60.28 36.163-10.16 2.252-17.57 13.149-28.46 13.579" /><path
       id="path537"
       style="fill-rule:evenodd;fill:#ffffff"
       d="m268.01 105.63c0-1.89 16.27-15.25 18.73-14.814 1.67 5.011-2.47 6.826-6.46 7.77-6.03 3.344-11.18 6.684-12.27 7.044" /><path
       id="path539"
       style="fill-rule:evenodd;fill:#ffffff"
       d="m247.68 104.47c-2.69-0.87-2.69-0.87-5.52-1.38 0-4.94 23.52-34.059 27.44-37.545 2.91-3.631 11.12-11.328 12.13-14.378 4.36-1.453 27.09-33.622 24.84-14.088-7.27 15.322-22.3 23.818-34.5 35.728-4.35 5.01-9.29 9.803-12.49 15.758-0.8 0.871-10.38 15.175-11.03 15.905h-0.87" /><path
       id="path541"
       style="fill-rule:evenodd;fill:#ffffff"
       d="m236.06 103.6c-4.51-5.74-7.85-5.74-14.16-6.902 2.1-10.747 22.36-26.869 28.53-36.381 6.1-5.592 46.26-46.984 51.93-44.152 1.88 5.083-3.64 7.697-7.27 10.094-11.83 10.53-31.01 25.271-38.19 38.85-8.06 7.189-17.21 28.031-20.34 38.411-0.29 0.22-0.29 0.22-0.5 0.08" /><path
       id="path543"
       style="fill-rule:evenodd;fill:#ffffff"
       d="m238.96 103.31c0-9.951 20.7-42.339 27.67-46.696 2.98-4.43 30.13-30.935 34.06-30.935 0.21 0.653 0.51 0.871 1.81 1.597 0 0.291 0 0.582 0.07 0.872-5.88 5.228-15.46 13.579-19.75 19.97-3.7 1.525-5.88 6.027-8.93 8.714-11.4 15.395-25.13 28.829-34.28 46.328-0.21 0-0.43 0.07-0.65 0.15" /><path
       id="path545"
       style="fill-rule:evenodd;fill:#ffffff"
       d="m233.15 76.729c0-9.44 31.37-39.576 36.6-46.766 4.5-4.211 29.19-26.069 33.19-24.109 0 6.391-10.6 14.306-15.4 16.702-15.97 13.289-29.34 28.394-44 43.063-3.56 1.161-6.68 9.875-10.39 11.11" /></g><metadata
     id="metadata274"><rdf:RDF><cc:Work><dc:format>image/svg+xml</dc:format><dc:type
           rdf:resource="http://purl.org/dc/dcmitype/StillImage" /><cc:license
           rdf:resource="http://creativecommons.org/licenses/publicdomain/" /><dc:publisher><cc:Agent
             rdf:about="http://openclipart.org/"><dc:title>Openclipart</dc:title></cc:Agent></dc:publisher><dc:title>Coloring Book Willow Goldfinch</dc:title><dc:date>2007-09-16T20:12:09</dc:date><dc:description>Extracted from &quot;The Washington State Coloring Book&quot;, created by the WA state legislature with taxpayer funds. The coloring book carries no copyright notice, but has the statement &quot;feel free to make copies of this document&quot; on the cover.</dc:description><dc:source>https://openclipart.org/detail/5518/coloring-book-willow-goldfinch-by-fundraw_dot_com</dc:source><dc:creator><cc:Agent><dc:title>FunDraw_dot_com</dc:title></cc:Agent></dc:creator><dc:subject><rdf:Bag><rdf:li>animal</rdf:li><rdf:li>bird</rdf:li><rdf:li>cartoon</rdf:li><rdf:li>colouring book</rdf:li><rdf:li>contour</rdf:li><rdf:li>externalsource</rdf:li><rdf:li>finch</rdf:li><rdf:li>goldfinch</rdf:li><rdf:li>line art</rdf:li></rdf:Bag></dc:subject></cc:Work><cc:License
         rdf:about="http://creativecommons.org/licenses/publicdomain/"><cc:permits
           rdf:resource="http://creativecommons.org/ns#Reproduction" /><cc:permits
           rdf:resource="http://creativecommons.org/ns#Distribution" /><cc:permits
           rdf:resource="http://creativecommons.org/ns#DerivativeWorks" /></cc:License></rdf:RDF></metadata></svg>
