<?xml version="1.0" encoding="UTF-8" standalone="no"?>
<!-- Created with Inkscape (http://www.inkscape.org/) -->

<svg
   xmlns:dc="http://purl.org/dc/elements/1.1/"
   xmlns:cc="http://creativecommons.org/ns#"
   xmlns:rdf="http://www.w3.org/1999/02/22-rdf-syntax-ns#"
   xmlns:svg="http://www.w3.org/2000/svg"
   xmlns="http://www.w3.org/2000/svg"
   xmlns:sodipodi="http://sodipodi.sourceforge.net/DTD/sodipodi-0.dtd"
   xmlns:inkscape="http://www.inkscape.org/namespaces/inkscape"
   id="svg2"
   xml:space="preserve"
   version="1.0"
   width="100"
   height="100"
   viewBox="0 0 533.372 355.375"
   inkscape:version="0.91 r13725"
   sodipodi:docname="mammoth.svg"><defs
     id="defs54" /><sodipodi:namedview
     pagecolor="#ffffff"
     bordercolor="#666666"
     borderopacity="1"
     objecttolerance="10"
     gridtolerance="10"
     guidetolerance="10"
     inkscape:pageopacity="0"
     inkscape:pageshadow="2"
     inkscape:window-width="836"
     inkscape:window-height="1011"
     id="namedview52"
     showgrid="false"
     inkscape:zoom="0.33204362"
     inkscape:cx="226.48"
     inkscape:cy="521.20841"
     inkscape:window-x="840"
     inkscape:window-y="18"
     inkscape:window-maximized="0"
     inkscape:current-layer="svg2" /><rect
     style="fill:#ffffff;fill-opacity:1;stroke:#ffffff;stroke-opacity:1"
     id="rect4182"
     width="539.08582"
     height="373.44492"
     x="3.0116525"
     y="1.8750865e-07" /><g
     id="Layer_1"><path
       id="path7"
       style="fill-rule:evenodd;fill:#231f20"
       d="m422.66 355.38c-0.36-0.36-0.36-0.44-0.36-0.94 3.86-2.6 11-0.44 12.43-7.93 3.78-5.77-8.21-14.99-10.5-18.89 0-14.63 72.76 2.67 83.47 2.1 0.57-0.22 2.64-1.02 3.36-0.29-4 3.24-11.72 1.15-15.86 0.79-5.99-1.73-69.83-13.77-69.18-2.67 3.28 6.63 14.13 9.73 10.35 20.4-2.71 5.48-7.5 7.43-13.71 7.43" /><path
       id="path9"
       style="fill-rule:evenodd;fill:#231f20"
       d="m318.41 349.97c-2.67-0.15-29.91-0.43-25.77-7.42 9.89-4.43 15.43-5.16 24.18-3.9 0 0.29 0.09 0.87 0.09 1.16-0.21 0.07-0.35 0.21-0.49 0.35-5.65-2.81-17.36 1.38-22.43 3.54 4.92 6.92 43.9 3.58 49.7 0.36 0.21 0.29 0.43 0.57 0.71 0.86-2.21 3.32-22.34 4.83-25.99 5.05" /><path
       id="path11"
       style="fill-rule:evenodd;fill:#231f20"
       d="m89.327 341.18c-8.574 0.4-16.487-0.42-24.327-1.91-0.431-0.68-0.431-0.68-0.39-0.97 2.432-0.77 6.793 1.09 10.485 0.7 3.661 1.35 40.675 1.34 28.985-8.37-5.136-4.21-35.139-0.71-38.648 0.73-2.899 1.11-6.351 3.54-8.783 4.3-0.833-7.88 36.984-10.38 42.396-8.61 3.515 0.77 4.725 1.12 7.935 3.02 8.61 9.38-14.04 10.66-17.653 11.11" /><path
       id="path13"
       style="fill-rule:evenodd;fill:#231f20"
       d="m533.37 290.69c-13.02-6.01-44.57-14.52-48.81-15.77-14.9-3.14-29.48-6.83-43.84-8.06-0.07-0.14-0.14-0.29-0.21-0.43 3.45-4.53 42.25 5.76 49.19 8 11.12 3.32 21.93 6.27 32.78 10.45 1.09 0.86 6.25 2.5 10.89 4.36v1.45" /><path
       id="path15"
       style="fill-rule:evenodd;fill:#231f20"
       d="m348.12 265.56c-0.86-0.07-1.72-0.14-2.5-0.21-0.43-0.44-0.22-0.51-0.36-0.94 1.07-1.87 12.64 0.65 15.5-0.79 4.64 0 29.6-3.48 30.03 1.07-0.5 0.36-1.22 0.64-1.64 0.64-3.65-3.67-34.04 0.23-41.03 0.23" /><path
       id="path17"
       style="fill-rule:evenodd;fill:#231f20"
       d="m533.37 250.56c-14.9-4.14-61.04-8.94-70.58-10.66-2.86-0.14-18.64-1-19.92-2.3 3.21-3.25 67.26 7.35 78.97 9.66 3.82 0 7.55 1.19 11.53 2.27v1.03" /><path
       id="path19"
       style="fill-rule:evenodd;fill:#231f20"
       d="m371.68 239.47c-9.07-0.29-18.57-1.01-27.13-1.01-0.43-0.14-0.86-0.28-1.22-0.43 4.71-4.76 26.35 2.59 35.13-1.44 2.57-4.47 0.93-4.54 6.57-5.33 3.72-0.17 15.09-0.97 22.4 0.31 0.41 0.89 1.49 1.31 2.95 2.71-4.93-0.94-26.49-4.18-29.28 0.07-1.64 4.4-5 5.12-9.42 5.12" /><path
       id="path21"
       style="fill-rule:evenodd;fill:#231f20"
       d="m533.37 236.33c-15.01-2.39-30.33-5.54-44.61-6.75-10.92 0-21.29 2.61-31.72 2.9-3.15 0.47-4.04 3.12-5.68 3.24-3-6.05 15.57-5.69 17.71-5.91 7.28-5.11 12.56-8.89 21.27-11.77 2.6-1.63 26.78-7.98 28.07-8.41 16.21-9.08-1.57-13.19-10.21-15.35-5.39-1.99-24.92-1.73-14.42-12.33 1.5-1.15 13.11-8.29 13.18-8.44-1.36-0.14-4.12 0.01-4.47-0.64 0.57-0.87 7.64-1.8 8.35 0.51-3.93 2.66-20.35 8.86-17.99 14.92 4.82 3.34 23.99 3.82 32.91 11.24 7.22 11.53-20.56 14.99-26.99 17.66-4.92 1.58-22.42 7.28-25.13 11.39 6.43 0 12.07-1.08 19.06-0.58 0 0.43 26.6 4.35 40.67 6.41v1.91" /><path
       id="path23"
       style="fill-rule:evenodd;fill:#231f20"
       d="m450.43 174.38c-0.28-0.14-0.57-0.28-0.85-0.43 0.07-0.07 20.85-6.27 24.2-7.49 12.71-2.67 24.78-3.39 38.42-3.03 0 0.07 16.6 3.12 21.17 4.36v1.83c-0.51-0.16-1-0.28-1.47-0.35-17.63-6.49-36.96-4.09-54.12-1.77-8.05 2.35-20.49 6.88-27.35 6.88" /><path
       id="path25"
       style="fill-rule:evenodd;fill:#231f20"
       d="m225.09 107.78c-0.21-0.14-0.43-0.29-0.64-0.43 0.64 0.07 0.64 0.07 1 0.36-0.15 0-0.29 0-0.36 0.07" /><path
       id="path27"
       style="fill-rule:evenodd;fill:#231f20"
       d="m484.49 104.68c-1.78-0.57-13.35-3.82-13.49-4.32 0.36-2.019 0.38-4.974 0.39-6.103 0-2.235 0.64-2.163 2.5-1.082 4.28 3.677 7.9 6.491 11.7 10.645-0.07 1.08-0.24 0.86-1.1 0.86" /><path
       id="path29"
       style="fill-rule:evenodd;fill:#231f20"
       d="m56.44 102.02c-2.863 0-9.468-7.034-9.996-7.427-3.943-4.501 15.969-4.418 18.765-8.666 1.146-2.134 3.012-7.624 3.441-9.57-11.639 0-16.137-9.01-25.205-13.551-2.182-1.585-6.6-4.741-8.568-5.766-2.813-5.457-14.994-5.045-16.779-2.883 0 4.108-1.071 9.154-1.928 13.551-0.143-0.072-0.214-0.144-0.286-0.217-4.355 5.551-4.926 2.739-6.497 10.812-1 1.01-4.856 8.506-5.498 10.092-0.952 0-2.494 1.211-3.889 2.403l-4.885e-15 -2.374c1.858-1.793 4.091-3.549 5.245-5.219 3.214-6.487 2.571-12.758 9.283-16.722 1.57-2.379 1.57-8.218 1.713-9.947-0.143-0.073-0.214-0.145-0.285-0.217-0.215 0.36-0.429 0.721-0.643 1.154h-0.642c-4.139 4.6-9.537 9.965-14.671 14.128v-1.679c5.398-6.267 16.657-17.777 18.812-18.865 1.999 0 6.926 1.082 9.139 0 0.071 0.072 0.214 0.145 0.357 0.217 6.997-0.505 8.354 7.208 14.28 8.649 0 0.505 1.5 0.937 1.571 0.937 0 1.298 15.637 12.037 20.849 13.984 12.496 0 20.279-16.651 33.774-5.911 6.428 3.244 12.498 14.2 19.348 14.2 0.14 0.36 4.1-1.619 9.35 1.946 1.7 1.115 4.01 3.142 5.87 4.881-0.17 1.405-0.57 1.391-1.94 1.176-3.99-3.2-7.54-8.567-12.83-0.019-3.21 3.244-9.74 1.309-13.02 0.017 0-0.577 0.08-1.154 0.15-1.658 2.35-1.658 4.35-3.604 7.07-4.974v-0.504c-6.79-6.055-12.57-12.542-19.568-17.227-5.712 0-7.479 5.367-10.164 8.527-0.699 1.573-6.656 6.717-5.258 11.078 1.927 0 17.064 3.027 11.21 7.208-4.356 2.235-4.856 3.748-7.712 6.055-8.996-1.587-16.851 2.381-24.848 2.381" /><path
       id="path31"
       style="fill-rule:evenodd;fill:#ffffff"
       d="m473 99.422c0-1.226-0.15-3.82 0.31-4.765 1.28 0.864 7.46 5.673 8.81 7.603-1.82-0.22-7.22-2.452-9.12-2.838" /><path
       id="path33"
       style="fill-rule:evenodd;fill:#ffffff"
       d="m56.762 100.31c-3.499-0.575-6.034-5.284-7.89-6.509 0-0.217 0-0.433 0.071-0.577 4.07-0.865 13.852-3.316 17.279-5.766 1.143-2.307 4.998-15.426 8.854-13.479 0.714-1.442 9.211-5.118 11.21-5.478-3.213 4.036-13.852 15.136-9.353 19.677 3.641 0 7.711 0.577 11.281 3.604-1.499 1.514-5.641 4.469-7.497 5.839-7.854-1.587-16.315 2.186-23.955 2.689" /><path
       id="path35"
       style="fill-rule:evenodd;fill:#ffffff"
       d="m114.99 90.844c-2.43-0.288-4.78-0.505-7.14-0.721 3.35-3.027 7.5-6.919 12.85-5.117-1.5 1.803-3.5 5.407-5.71 5.838" /><path
       id="path37"
       style="fill-rule:evenodd;fill:#231f20"
       d="m334.64 344.44c-13.1-1.29-21.78-4.28-30.9-12.92h-0.57c0-1.36-1.14-2.15-1.14-3 4.77-4.79 1.64-13.36 1.64-18.21-2.28-0.65-3.85-1.36-4.91-2.43 0.5-1.36 0.42-3.71 0.35-4.64-10.04 2.5-4.56-2.86-8.05-9h-0.49c-9.33 9.36-8.41 20.49-1.14 31.2 5.55 19.57-26.14 14.93-34.75 11.93-6.48-0.36-15.1-0.86-17.38-7.78-0.14-0.07-0.28-0.15-0.35-0.22 0-2.57-2.43-12.35 0.35-13.71 0.36-1.5 1.64-4.57 1.64-5.5-5.06-7.92 3.99-25.99 9.04-32.41 0-11.21 1.93-17.5 9.62-25.78-0.22-1.29-8.9-10-10.12-10.35-4.91 5.28-11.39 8.64-18.15 9.99-0.07-0.14-0.15-0.28-0.15-0.43-0.21 0-0.35 0.08-0.49 0.15-0.57 1.14-0.07 6.42-0.65 9.07-3.63 7.85-2.63 10.42-2.63 19.77-2.28 9.64-8.83 16.36-10.33 27.14 0.79 9.42 6.56 16.64 4.42 27.06-7.83 9.85-39.38 7.07-49.42 1.07-2.28-7-0.57-18.71 0.22-25.35-1.86-1.85-1.22-7.14-0.22-8.14-1.92-11.85-4.2-33.63 1.85-44.56 0-4.28-9.33 4.65-6.48-2.14 0-2.28-0.28-5.21-1.07-6.57h-0.49c-0.15 1.14-0.79 2.72-1.07 4.22-3.78 3.78-7.84 14.28-8.19 19.63-3.85 10.64-10.9 21.64-19.23 29.99-7.33 8.14-1.99 26.49-17.16 26.06-14.88-1.99-36.173-21.7-35.034-37.34 1.353-6.64 1.709-13.14 5.84-18.56 0.071-0.29 0.142-0.5 0.213-0.72 6.053-6.71 13.531-21.85 14.031-30.42 2.56-13.06-1-25.49-4.275-37.34-1.78-10.57-1.852-21.5-4.7-31.14-0.142-0.07-0.285-0.07-0.427-0.07-2.208 11.78 0.213 28.14-0.356 40.92 0.071 0.5 1.21 3.35 0.712 4.14-2.635 0-5.483-3.64-6.409-4.57-8.26-2.71-12.39-24.06-12.105-31.2 2.065-12.57 13.316-18.14 17.018-29.35 4.558-4.57 4.771-21.64 7.121-27.71 4.131-6.85 8.901-12.06 13.171-17.99 4.06-7.57 7.2-10.854 14.24-16.352 18.52-9.854 36.46-13.853 56.26-19.708 7.12-1.428 14.46-5.213 21.72-6.998 14.1-7.783 26.49-18.494 41.58-24.563 5.42-7.069 16.45-12.21 24.14-16.066 14.25-20.779 49.99-7.284 69.72-1.071 4.41 0 8.83-0.286 13.31-2.5v-0.499c-1.99-0.572-4.13 0.357-5.84 0.499-0.49-0.785-0.49-0.785-0.57-1.356 6.63-8.14 7.77-8.283 19.23-9.497 0.86-0.857-2.21-3.999-2.21-3.999 0-2.999 10.76 0.286 13.32 0.286-0.36-1.285-0.64-2.571-0.93-3.856 3.56 0 7.91 0.785 11.9 1.285 8.4-6.569 18.15-0.714 23.57 7.141 4.84 0.714 9.18 2.499 14.1 5.427 0 0.357 0 0.714 0.07 1.142-1.29 0.786-2.78 1.857-2.78 3.499 10.33 5.141 4.41 19.065 4.41 28.348 0.43 2.07 0.93 4.141 1.43 6.212-0.64 0.643-6.48-1.428-8.26-1.999-1.07 10.71 16.52 19.279 11.11 28.776-0.22 0-0.43 0-0.64 0.071-0.36-0.357-0.72-0.642-1.07-0.928 0 4.641 1.64 10.211-3.28 14.281-1.71 2.713-0.35 4.141-1.28 7.065-0.14 0.07-0.28 0.15-0.43 0.22-0.92-0.36-1.78-0.72-2.63-1-0.21 4.07-0.43 6.64 2.06 10.57 0 3.85-4.98 0.85-6.55 0.85-2.78 8.71-3.06 6 3.14 13.5 0.64 1.93 1.35 3.85 2.06 5.78 1.71 0.86 4.84 4.36 6.48 6.43 0.36 1.43 3.77 12.92-0.5 14 0 0.92 16.02 18.7 18.3 20.56 10.54 12.14 29.34 22.99 20.58 42.84-15.66 9.43-22.86-10.85-36.03-12.99-0.14 0.07-0.21 0.21-0.29 0.35 5.77 12.86 10.19 28.78 10.69 43.56-0.36 2.57-3.64 26.78-6.84 28.35 0 4.85-9.76 11.92-13.67 14.14-5.2 1.43-17.02 0.71-21.29-1.29 0-3.35-7.98-6.35-9.26-6.92-8.12-10.22-5.06-21.5 2.35-31.06 1.85-1.22-0.28-4.58 0.5-6.22 0.28 0 0.64 0 1 0.07 3.63 6.43-0.57 10.43-3.42 16.43-5.06 15.35 1.49 18.56 12.67 25.56 6.13 0.86 20.58 1.86 23.36-5.21 0.07 0 0.14 0.07 0.21 0.14 0.36-0.36 0.71-0.71 1.14-1 19.73-30.56 1.85-68.83-12.1-96.9 0.28-0.28-1.36-2.21-1.43-2.28 0.07-0.22 0.15-0.36 0.29-0.5-0.15-0.07-0.29-0.15-0.43-0.22v-0.85c0.35 0.43 1.85 2.57 2.42 2.28 0-5.07-2.99-9.92-2.63-12.99-0.22-0.07-0.43-0.07-0.65-0.07-0.57-1.15-0.21-1.43-0.35-2-0.22-0.15-0.43-0.22-0.57-0.29 0-0.14 0.07-0.21 0.14-0.29-0.07-0.28-0.14-0.57-0.14-0.78-0.85-0.5-0.64-0.64-1.28-0.79 0.43-0.43 0.5-0.64 0.57-1-0.22-0.07-0.43-0.14-0.57-0.21-0.36-2.43-1.28-4.28-1.64-5.78-3.49-7.07-1.85-43.06 5.41-47.92 1.07 0.22 2.35 1.5 4.42 1.79 0-0.64 0-0.64-0.57-2.36-1.07-1.07-0.79-4.28-1.28-5.35 0.28-6.359-0.43-5.787 4.91-4.573 0-0.143 0.07-0.215 0.14-0.286-5.84-9.354-9.75-15.566-10.04-26.206 0.07-3.142 0.36-6.14-0.07-8.783-0.35 0-0.21-0.714-0.21-0.999 0.64-0.429 0.71-0.786 0.78-1.143 1.21 0 2.35 2.285 4.56 1.571v-0.5c-2.14-4.355-1.92-7.14-2-11.21-0.14-0.072-0.21-0.143-0.28-0.143-3.85 2.285-2.85-5.498-6.41-5.498-2.56 2.071-7.69 6.641-10.68 5.141 0.07-2.499 0.85-8.283-0.21-9.782-2.78 0-4.56 1.785-7.05 1.999-0.86-0.857-1-5.998-1.64-7.498-2.57 0-9.76 6.498-13.96 6.998-0.28-0.357-0.5-0.643-0.71-0.928 0.14-0.214 15.1-8.783 15.38-8.712 0.93 2.357 1.71 4.642 2.14 8.069 6.19 0 10.75-10.639 9.32 6.998 1.93 0 6.34-6.07 7.13-7.926 3.77 0 4.34 6.998 7.05 7.64 0.85-1 2.92-4.498 4.84-3.856 0 2.499-2.57 2.928-2.57 5.427 1.86 1.285 2.57 2.071 5.35 2.428 0-6.07-1.78-9.069 1.06-14.781 0.36-3.427-0.85-17.351-5.69-14.138-2.99-0.643 0.85-5.927 1.35-6.498-0.86-2.642-6.05-1.214-7.26-0.357 0.42 6.641-1.5 9.497 1.63 15.852-0.07 0.214-0.07 0.428-0.07 0.714-3.48 0.428-4.27-9.211-3.7-10.925-2.85-12.492-12.04-23.275-23.93-14.064-0.5 1.143-7.33-2.856-7.97-3.284-0.29 0.142-0.57 0.285-0.86 0.499 0 9.354-4.06 0.643-11.82 1.714v0.571c0.78 0.786 3.56 9.212-1.21 6.355-2.06-0.142-15.09 1.571-14.53 3.999 8.05 0.357 8.91 1.928 6.48 9.354 2.36-0.071 4.14 0.214 7.12 0.357 1.07-1.714 3.14-4.213 3.64-5.712 0.28-0.072 0.64-0.143 0.99-0.215 1.57-1.57 6.77-3.427 8.76-0.785-0.35 0.785-4.91 1.285-5.69 1.571-1.78 1.285-6.06 6.141-5.42 8.926 3.92-3.928 8.34-4.142 13.96-2.928 0 0 0.86 0.571 1.21 0.428 0-0.642 0.07-1.285 0.15-1.928 3.34-1.642 0.49 9.212-3.07 10.997-1.35-1.357 0.93-5.213 1.14-7.069-3.91-4.856-13.17 3.57-15.95 6.355-0.78-0.786-0.5-1.143-0.64-1.714-0.78 0 0.07-5.784 0.07-5.927-3.35-0.428-9.4-0.357-11.04 2.928-0.57 0.357-1.06 0.429-1.42 0.429-1.07-2.214 3.63-6.427 4.34-8.998-3.7 0-9.25 2.428-13.38 2.714-4.7-0.286-17.45-3.142-20.3-5.998-15.66-4.284-33.61-5.498-47.64 2.57v0.5s5.41-1.785 5.41 0.5c-3.63 0.714-6.62 1.785-9.47 3.285 0 0.071-15.73 8.568-17.23 11.639 0 1.356 6.55-2.357 8.83-0.072-1.14 1.143-9.83 2.571-12.82 4.356 0.43 0.428 5.99 0.571 4.28 2.713-10.61-0.999-13.82 0-22.36 5.713-24.29 24.349-64.31 24.992-94.07 38.416-4.2 2.356-21.22 12.57-20.15 17.07 1.28-0.65 1.78-1.5 3.77-1.22v0.5c-1.92 2.07-6.98 4.64-7.48 6.71-2.49 0.57-11.89 11.93-10.53 16.07 0.78-1.21 3.41-2.5 5.05-2.5 0.64 0.64-0.07 1.21-0.43 2.36-11.175 0-14.522 47.12-7.33 54.34 0 5.21-1.78 8.28-0.64 14.06 0 7.29 5.06 16.07 6.55 24.14 0.64 1.93 0.93 5.78 1 8.14 0.14-0.07 0.35-0.15 0.57-0.15 0.42-2.64 0.28-5.21 2.13-6.71 1.07 1.07-3.49 19.35-3.7 22.64 0.07 0 0.14 0.07 0.21 0.14 2-1.35 2.14-5.21 3.78-6.42 0.21 0.06 0.42 0.14 0.64 0.21 0 3-8.33 18.35-10.47 21.21-3.631 9.14-12.033 14.56-13.6 24.92 0.926-0.29 1.14-0.86 1.353-1.57 3.347 0.64-1.353 5.35-2.492 8.21 0 3.71 9.684 24.92 15.169 23.13 1.99 1 7.26 6.14 10.68 8.29 5.91 1.5 11.68 2.99 13.03-5.22 0.43 0 2.21-7.21 2.28-8.06-1.85 0-1.85 2.21-3.28 2.21-0.57-1.15 15.67-19.71 18.95-24.14 6.26-10.85 8.68-18.28 9.11-30.13 0.43-1 0.5-1.43 1.28-1.93 0.57 0.29 0.71 1 1.57 2.29 6.12-11.07 5.2-19.92 8.54-31.06 0.64-0.65 3.49-8.5 3.56-9-1.35 0.21-3.63 0.78-4.55 0.78-1.57-2.14 7.62-15.14 9.54-18.2-0.21-0.08-0.36-0.15-0.5-0.15-1.28 1.29-11.32 7.5-11.96 7.5 0.42-2.21 12.25-10.14 16.02-10.71 0 3.78-9.76 13.92-11.11 19.35 1.78 0 3.99-0.86 6.34-0.64 0.14 0.28-6.48 22.06-6.48 28.06 3.2 3.21 3.49 4.14 4.13 9.64 2.13 2.14 14.53-4.64 16.52-6.64 3.7 1.21 4.06 3.07 3.56 7.64 3.77 0 22.43-14.43 24.49-1.93 0.15 0 0.36 0.07 0.58 0.14 5.69-4.64 10.75-5.35 18.37-5.56 6.76-1.58 9.25-4.5 13.24-9.93-1.14-3.57-8.97-21.14-3.13-21.71 0 8.21 5.7 17.07 10.25 24.21 0.07 0.07 1.85 2.43 2.49 2.14 0.22-3.35 0.15-7.07 1-9.64 0.86 1.29 1.14 6.71 1.5 9.28 1.06 3.72 7.4 19.71 12.81 19.71 0.29-0.64 0.5-2.64 0.5-3.07 0.15-0.14 0.29-0.28 0.43-0.35 0.93 0.64 1.78 4.92 2.28 6.92 4.77 14.35 19.51 19 22.71 35.35 3.07 1.5 4.06-2.79 5.49 2.14 0 4.28-0.79 4.28 4.2 4 1.28 1.28 1.99 12.78 1.85 16.64-0.57 1.99-1.07 3.99-1.57 6.06 5.34 6.65 21.01 13.71 30.48 11.64 0-2.42-3.2-4.07-2.14-6.21 2.14 0 6.2 4.29 11.54 4.07 14.6-5.85 16.31-12.57 9.9-26.13-1.85-5.36-3.56-9.21-5.7-13.36-1.85-2.42-3.13-4.14-3.56-5.99 1.28-1.29 2.06 2 3.2 1.42 0.43-7.99-1.56-15.21-6.05-21.06-0.92-0.86-4.55-4.07-4.2-4.85 0.64-0.08 1.28-0.08 1.99-0.08 2.78-8.49-10.96-20.7-13.6-26.63-1.35-11.5-18.51-25.99-14.02-36.56 0.21-0.07 0.49-0.07 0.78-0.07 0.07 0.07 0.14 0.14 0.21 0.28 0.5 5.86 10.75 26 15.45 27.57 2.5-2.15 5.91-3.86 5.2-7.14-1.06 0-2.49 0.64-3.13 0.64-1.35-1.36-0.14-5.07-0.36-6.64-0.07-0.07-0.14-0.15-0.21-0.15-1.28 0.86-3.06 2.36-4.2 2.65-0.71-0.36-0.57-9-0.64-10-0.86-1.85-1.71-3.71-2.57-5.5 0.15-0.28 0.29-0.57 0.43-0.78h0.71c2.43 4.28 2.85 6.57 3.57 12.35v1.07c1.14-0.85 2.56-2.07 3.2-3 1.49 0.5 1.42 5.43 1.56 7.57 1.22 0 1.29-0.93 2.64-0.71 1.64 2.78 2.28 6.99 3.56 10.92 1.28-0.64 4.42-5.5 3.92-7-21.29-15.99-17.8-45.27-14.17-67.33-6.13-5-3.42-10.28-5.06-11.93 2.99-8.99 13.39-21.63 22.07-24.7 1-0.07 2-0.15 3-0.15 0.07 0.15 0.14 0.29 0.21 0.5 0.36-0.14 0.78-0.21 1.21-0.28v0.57c-2.06 0.57-11.54 5.43-10.11 8.28 7.55 0-5.13 4.65-6.2 5.29-4.13 5.07-6.69 9.35-4.55 16.49 0.07 0.07 0.21 0.15 0.35 0.22 2.64-2.65-0.35-8 6.98-7.07 2.64-5.29 5.98-2.22 9.61-1 7.98-3.43 16.81 1.21 15.6 11.06-1.43 2.72-4.42 4.65-4.42 7.93 1.28-0.28 5.49-2.78 6.84-2.14 0 11.28 15.88 26.28 21.43 37.41-0.92 0.43-1.85 0.86-2.7 1.36-1.99-1.36-7.76-11.64-9.4-14.21-2.56-2.93-4.35-7.21-6.19-8.71-2.86 8.64-6.27 13.71-5.77 23.49-1 6.57-5.91 11.29 5.12 9.71 6.55-1.85 40.81-26.84 42.73-7.35-2.28 8.21-23.5 8.07-30.12 16.64-8.69 4.35-13.25 9.28-23.5 10.21-11.89-1.57-8.05-6.57-16.66 8.57-0.22 0-0.43 0.07-0.57 0.14-2.78-1.64-2.28-5.21-2.92-7.28-1.93 0-3.85 3.21-4.99 4.49 0.86 4 8.83 13.93 11.54 19.43 2.7 7.64 0.5 14.71 6.83 21.06 3.14 8.71 1.5 18.14 6.13 25.85 3.63 13.5 14.52 26.06-1.21 35.49-1.93 3.85-17.09 5-20.73 5.21" /><path
       id="path39"
       style="fill-rule:evenodd;fill:#ffffff"
       d="m266.36 336.94c-3.71-0.21-8.34-0.78-10.83-2.21-1.49-1.5-2.63-2.86-3.91-3.07-0.79 0.43-0.79 1.28-0.08 2.43-2.42 0.57-8.04-3.29-8.33-3.86-3.77-1.85-2.92-11.28-2.49-14.21 0.86-3.21 2.06-5.78 2.64-8.85-0.43-0.72-0.93-0.79-1.22-0.86-1.49-4 2.92-24.06 7.77-25.63 1.28-2.29 4.55-6.22 0.85-6.22 0-7.64 3.28-14.28 8.83-18.92 1.14 0.72 3.21 4.21 4.63 6.07 8.62 5.71 8.62 11.71 16.16 20.49 12.18 11.64 6.84 5.79 1.43 19.86-1.07 4.64-0.29 9.06 0.14 14.2h-0.43c-6.05-6.06 3.85 9.29 4.13 9.86 2.78 11.71-11.53 10.92-19.29 10.92" /><path
       id="path41"
       style="fill-rule:evenodd;fill:#ffffff"
       d="m195.22 336.8c-4.42-0.28-19.44-1.14-21.51-4.21 0-10.71-3.27-19.28 3.49-28.35 0-1-0.07-0.86-0.35-1.43-0.15 0.07-0.22 0.14-0.29 0.21-0.14-0.07-0.21-0.14-0.28-0.21-0.79 0.36-2.78 2.5-2.99 2.57 0-3.64 3.06-8.35 2.35-10.42-0.36-0.08-0.72-0.08-1-0.08-0.71 1.65-1.35 3-1.71 2.65 0-14.78-5.13-39.63 12.39-45.49 0 1.57-2.21 3.14-2.21 4.93 7.48 5 18.94-8.93 25.99-4.5 0.93 1.29 1.86 2.57 2.85 3.93 2 0 7.98-4.07 11.75-4.64 0.71 4.64 1.28 9.35-0.92 14.49h-0.36c-0.14-1-0.5-1.43-0.36-1.93-0.57-0.07-1.06-0.14-1.56-0.21-0.22 0.21-0.43 0.5-0.57 0.79 2.63 4.42 1.49 16.35 0.28 21.56-0.14 0-0.21 0.07-0.28 0.14-1.57-1.57 0.35-4.14-2.07-4.92-0.35 0.35-0.64 0.71-0.92 1.06 2.35 5.86-6.13 19.71-5.77 28.5 0.64 5.21 11.32 20.92 1.92 22.77-2.13 2.15-14.74 2.79-17.87 2.79" /><path
       id="path43"
       style="fill-rule:evenodd;fill:#231f20"
       d="m403.43 266.82c-0.99-0.43-1.99-0.78-2.99-1.14-1.92-1.93-3.13-6.5-0.28-6.5 0.5 0.79 0.21 2.14 0.42 3.93 3.99 2 13.04-1.5 5.99-6.43-4.49-2.07-2.57-3.71-2.99-7.64-2.28-4-5.77-2.64-6.2-4.5 4.42-5.07 10.11 4 10.32 8.72 1.22 1 2.28 1.85 3.78 3.56 2.7 0 0.57-18.63-2.92-20.35-2.21-4.92-7.48-9.85-10.33-13.49-1.49-2.79-2.99-5.5-4.41-8.21 0.57-0.22 0.78-0.79 1.99-0.5 2.99 7.64 13.89 16.06 18.87 25.27 3.64 9.79 3.35 28.21-11.25 27.28" /><path
       id="path45"
       style="fill-rule:evenodd;fill:#ffffff"
       d="m358.5 227.48c-21.29-1.64-28.41-28.42-28.41-45.2 0-1.28 0.07-31.99 7.19-31.99 0.14 0.21 0.35 0.43 0.57 0.71 0.64-0.14 1.28-0.28 1.92-0.35 0.93-1.86-0.07-3.86 4.13-3.86 0.64 1 0 4.29 1.78 4.43 3.77-3.79 12.53-4.36 13.82 2.36 1.7 0-0.57 5.35-0.93 6.42-6.77 13.57-10.4 35.42-2.49 49.56 6.05 7.56 15.45 5 22.36-1.07 7.4-3.72 21.5-12.5 30.12-6.72 0.35 4.5-1.36 6-6.13 6.64 0 0.57-7.26 2.22-8.61 2.36-11.96 5.14-21.51 16.71-35.32 16.71" /><path
       id="path47"
       style="fill-rule:evenodd;fill:#231f20"
       d="m231.04 220.84c-3.28-12.86 2.49-27.78 11.03-37.13v-0.5c-8.75 0-22.29 13.64-28.48 13.64-1.07-1.07 1.99-6.5 2.28-8.07-9.47 2.92-17.66 7.5-25.07 13.42-0.78 1-2.2 2.79-3.42 2.5 0-2.93 0.58-5.5 0.36-7.78-1.14 0.64-4.27 4.78-4.98 4.78-0.72-0.71 5.76-9.14 7.69-8.35 0 2.14-1.14 4.71-1.14 7.71 0.07 0 0.14 0.07 0.21 0.14 3.49-2.28 22.15-15.78 28.27-14.28 0.07 0.22 0.21 0.43 0.36 0.64-0.71 1.86-2.14 4.43-2.14 6.5 4.56-3.28 26.77-15.56 31.47-13.21v0.79c-8.54 6.42-18.44 23.06-15.66 34.2 0.07 0 0.14 0.07 0.21 0.14 2.28-2.57 4.13-5.71 7.48-6.49 0.57 0.57 0.5 4.49-0.36 5.92-1.56 0-1.06-1.93-1.06-2.64-3.57 0.71-4.92 5.57-6.77 8.21-0.14-0.07-0.21-0.14-0.28-0.14" /><path
       id="path49"
       style="fill-rule:evenodd;fill:#ffffff"
       d="m461.11 214.91c-10.47-1.93-17.66-11.28-27.06-14.99-0.07-0.22-0.07-0.36-0.07-0.5 6.48-6.5 11.68-3.29 21.08-0.58 0.36 0.36 3.99 2.43 5.62 2.08 1.36-2.79-19.58-8.64-20.08-8.86-5.48-4.78-11.89-8.92-16.52-13.85-2.2-2.71-8.54-21.99-8.19-23.92 2.21 0 4.35 2.28 7.13 2.28 0.21-0.43-0.08-6.21 0-7.42h0.49c0 3.14 19.59 23.06 25.43 29.35 0.49 0.21 0.85 0.28 1.28 1.42 1.42 0 11.03 11.28 12.6 13.07 4.2 6.14 9.68 19.64-1.71 21.92" /><path
       id="path51"
       style="fill-rule:evenodd;fill:#ffffff"
       d="m89.33 211.34c-1.78-2.78-2.278-3.78-2.706-6.07-0.427 0-0.356-5.42-1.637-5.85-0.143 0.07-0.285 0.14-0.428 0.21-0.427 2.29-0.356 4.57 0.072 7.43h-0.499c-3.347-6.72-2.35-14.07-0.783-20.42 0-0.79 0-0.79-0.214-1.08-0.213-0.07-0.427-0.07-0.641-0.07-1.424 1.29-2.278 4.07-3.133 6-0.213-0.07-0.356-0.07-0.498-0.07-1.424-8.57 2.777-17.99 8.545-23.78 1.566-2.57 3.347-5.85 5.269-7.78 0.143 0.07 0.285 0.14 0.427 0.21 0 6.71-3.845 12.29-3.489 19.93 0.143 1.21 1.638 6.99 0.285 8.35-0.285-0.29-0.57-0.5-0.854-0.71-1.282 0.71 3.275 12.63 1.068 17.85 0.142 0.14 0.142 0.14-0.214 5.57-0.214 0.07-0.427 0.14-0.57 0.28" /><path
       id="path53"
       style="fill-rule:evenodd;fill:#ffffff"
       d="m357.22 207.7c-4.99-7.5-5.77-41.13 4.27-41.13 1.35 2.29 2.49 5.57 4.7 8.07 0 2.36-2.99 13.64-5.27 14.78-1.92-1.5-1.78-3.43-3.35-3.43-1.21 1.64 4.06 11.64 1.93 14.85 0 0.29-1.57 7.57-2.28 6.86" /><path
       id="path55"
       style="fill-rule:evenodd;fill:#ffffff"
       d="m432.61 203.28c-0.5-0.86-1.79-2.23-1.79-2.73 0.14 0 0.22-0.25 0.44-0.25 0.21 0.43 1.87 1.9 1.73 2.47-0.07 0-0.31 0.51-0.38 0.51" /><path
       id="path57"
       style="fill-rule:evenodd;fill:#ffffff"
       d="m431.06 200.92c-3.13-3.93-7.83-13.07-8.54-17.5 0.28-0.07 0.57-0.14 0.85-0.14 0.85 1.43 5.63 4.78 7.83 6.5 9.83 6.42 1.28 2.21 0.07 11.06-0.07 0-0.14 0-0.21 0.08" /><path
       id="path59"
       style="fill-rule:evenodd;fill:#231f20"
       d="m110.84 184.42c-2.57-0.86 1.21-5.78 0.78-6.71-1.78 0.57-2.28 0.71-3.28 2.07-0.35-0.07-0.64-0.14-0.92-0.14-1.43-4.43 3.84-12.14 5.2-16.21-3.78 1.35-2.35 1.71-4.78 3.5-5.19-1.93 5.7-27.71 8.91-30.92 1.13-2.07 4.05-5.93 4.7-7.86-7.48 2.5-10.47 9.5-14.6 15.36h-0.64c-2.85-2.86 14.88-22.14 19.01-18-4.2 8.5-18.16 27.21-16.38 36.42 2.64-1 5.27-1.93 7.98-2.86 2.2 2.22-8.83 12.21-7.27 17.07 1.29 0 3.35-1.64 4.99-0.86 0 0.5-2.92 9.14-3.7 9.14" /><path
       id="path61"
       style="fill-rule:evenodd;fill:#231f20"
       d="m293.42 176.57c-3.21-7.5-0.86-19.85 1.49-27.07-0.07-0.14-0.14-0.28-0.14-0.35-1 1.35-4.42 4.35-5.63 5.49-2.63-1.78 8.83-11.42 8.83-7.99-3.06 5.5-6.19 18.63-3.91 25.49 1.56-1.57 5.69-10.71 8.97-10.71 0.21 0.43-0.29 7.85-0.29 9.07 0.22 0 0.43 0.07 0.64 0.14 1.22-0.93 6.06-5.57 7.84-3.78-0.5 2.78 1.49 5.56 0.85 7.56-0.21 0-0.43 0.08-0.57 0.15-1.71-1.72-2.42-4.36-2.42-5.79-11.75 4.72-5.13 9.57-8.4-3.57-1 1-6.48 11.36-7.26 11.36" /><path
       id="path63"
       style="fill-rule:evenodd;fill:#231f20"
       d="m386.91 172.57c-0.21-0.22-0.35-0.43-0.49-0.65 0.92-3.14 1.63-6.49 1.35-9.21-1.57 0.5-2.99 2.15-5.06 2.79-1.85-1.07 0.21-4.71 0.21-6.14-0.14-0.07-0.21-0.14-0.28-0.22-2.14 1.36-5.62 3.64-8.19 3.64-1.07-1.07 5.48-12.56 4.42-15.92-2.07 2.07-2.64 5-5.84 6.29-0.36-0.5 6.12-11.43 6.12-11.43 4.56 0-1.64 16.07-2.13 18.64 5.26-0.86 6.9-8.36 7.33 0.71-0.21 1.29-0.5 1.79-0.43 2.21 1.5-0.85 3.14-2.92 4.77-2.92 0.79 2.07 1.14 11.49-1.78 12.21" /><path
       id="path65"
       style="fill-rule:evenodd;fill:#ffffff"
       d="m418.74 152.43c-1.71-0.5-2.77-1-3.91-1-3.28-3.28-1.64-23.35 0.49-27.63 0.08 0 0.15 0 0.29 0.07 0 1.86 6.19 9.64 6.91 13.21 1.85 0.93 5.2 3.5 5.62 6.43-6.62 0-8.19 2.71-8.9 8.92h-0.5" /><path
       id="path67"
       style="fill-rule:evenodd;fill:#ffffff"
       d="m428.5 150.86c-1.07-1.43-2.56-2.78-2.35-4.07h1.35c0.78 0.79 1.28 2.14 1.28 4-0.14 0-0.21 0-0.28 0.07" /><path
       id="path69"
       style="fill-rule:evenodd;fill:#231f20"
       d="m320.47 148.86c-2.91-2.07-4.27-4.85-5.05-7.21-0.22-0.07-0.36-0.07-0.5-0.07-1.14 1.28-2.42 2.85-3.49 4.5-2.42 0-2.35-9.43-4.56-10.5 0-1.43-1.78-3.5-1.99-3.86-5.7-7.14-6.77-15.49-7.34-23.56-1.28 0-3.06 1.57-4.34 1.86-1.5-0.86 1.07-5.29 1.21-6.5-0.35-8.355-3.2-17.566-4.27-25.349 0.35-2.857 0.71-8.498 2.14-10.354 3.91-14.353 11.67-22.993 26.91-25.349 1.71 0.072 12.11 3.499 12.18 3.427-0.78-2.499-2.49-3.855-1.35-5.569 6.19 0 13.46 10.568 17.8 8.711 1.07 0 1.07-0.143 1.35 1.214-0.57 0.928-3.77 3.785-4.7 3.57-1.71-3.427-7.83-7.64-10.54-8.64 0 0.643 1.93 5.641 0.36 6.427-15.6-11.496-36.1 3.285-37.74 20.35-5.7 11.425 3.2 21.208 0.43 33.272 0.14 0 0.28 0.07 0.5 0.15 1.06-0.79 1.92-1.86 3.34-2.22 1.64 8.28-1 15 4.99 22.85 2.49 5.64 6.33 7.43 6.33 15.14 0.15 0 0.29 0 0.5 0.07 0.57-0.57 2.56-2.86 3.85-2.86 1.71 3.36 3.49 6.72 5.27 10.07-0.72 0.43-0.93 0.43-1.29 0.43" /><path
       id="path71"
       style="fill-rule:evenodd;fill:#231f20"
       d="m326.17 125.87c-5.84-4.36-9.11-6.57-7.19-14.49 0-1-8.76-6.43-4.34-10.86-0.72-14.28-8.98-20.063 0.06-33.702 4.85-4.855 10.97-9.283 16.03-1.214 0.21 0.786 0.07 2.428 0.57 3.428 2.2-0.143 6.9-2.499 8.83-2.071 0.57 1.785 0.28 3.713 0.35 6.069 7.34 7.355 13.6-4.213 15.45-3.927 2.64 6.712-19.22 14.138-17.16 0.357-3.63 0.714-6.19 1.571-9.61 1.571-0.21-0.214-0.36-0.357-0.5-0.5 1.14-6.569-1.56-7.212-6.76-6.712-12.32 6.712-10.76 17.494-6.13 30.204 0.07 0.072 0.22 0.143 0.36 0.215 0.71 6.852-2.85 11.992 5.2 14.922 0.21 0.29 0.42 0.57 0.71 0.93-4.06 8.14-0.14 9.35 5.48 14.99-0.07 0.15-0.14 0.29-0.21 0.5-0.43 0.08-0.78 0.15-1.14 0.29" /><path
       id="path73"
       style="fill-rule:evenodd;fill:#231f20"
       d="m363.06 103.59c-2.28-1.14-3.78-2.28-4.13-4.141 0.85-0.571 2.42 1.291 3.49 2.211 1.99 0.36 4.27-0.5 6.69-0.5v0.57c-2.28 1.22-3.85 1.57-6.05 1.86" /><path
       id="path75"
       style="fill-rule:evenodd;fill:#231f20"
       d="m350.1 101.52c-0.15-0.07-0.29-0.14-0.36-0.21 0-3.788 6.27-5.858 9.04-7.072v-0.572c-5.34-2.642-6.33 0.143-10.46 0.143-0.15-0.143-0.22-0.214-0.29-0.285 2.92-5.856 8.41-0.714 12.39-1.714 3.21-8.783 13.11-4.784 9.33 3.713 0 1.428 1.07 1.357 1.64 3.142-0.07 0.071-0.14 0.214-0.21 0.357-1.64 0-2.92-1.5-3.49-1.857-7.2-2.356-12.11-0.928-16.88 4.285-0.29 0-0.5 0-0.71 0.07" /><path
       id="path77"
       style="fill-rule:evenodd;fill:#ffffff"
       d="m366.33 92.167c-0.07-0.5-0.14-0.928-0.14-1.357 0.43-0.357 0.85-0.714 1.35-0.999 0.36 0.142 0.86 0.785 0.86 1.928-1 0.356-1.5 0.428-2.07 0.428" /><path
       id="path79"
       style="fill-rule:evenodd;fill:#ffffff"
       d="m424.44 91.31c-6.27-6.284-6.62-18.851-5.91-25.991 4.41-1.428 10.82 7.783 12.03 12.138-1.85 0-8.83-2.427-5.55 2.5 4.2 0.999 3.35 11.353-0.57 11.353" /><path
       id="path81"
       style="fill-rule:evenodd;fill:#231f20"
       d="m382.64 87.596c-0.21-0.286-0.36-0.5-0.5-0.714 2.64-5.284 4.13-4.284 4.56-11.139-3.06 0-4.13 0.428-6.48-0.643-0.07-0.214-0.14-0.428-0.21-0.571 0.64-0.857 4.91-5.855 5.69-5.855 0.14 0.142 0.29 0.285 0.5 0.5-0.71 1.785-2.92 3.57-3.42 5.069 1.85 0.286 3.28-0.428 5.56-0.785 1.06 2.213-1 8.783-2.28 11.353 9.11-2.999 8.83-16.494 16.09-3.998h0.5c1.78-2.714 3.35-4.785 4.41-7.641h0.5c1.28 1.285-3.27 10.64-6.26 10.068-1-2.713-2.28-5.212-4.13-6.141-4.56 3.071-7.62 10.497-14.53 10.497" /><path
       id="path83"
       style="fill-rule:evenodd;fill:#231f20"
       d="m371.1 86.668c-0.35-0.429-0.64-0.857-0.92-1.286-2.49-8.711-8.69 1.643-10.47 1.072-0.21-0.357-0.21-0.357-0.29-1.643 2.78-2.285 5.63-6.64 9.55-6.64 0.99 1.071 5.62 7.354 2.13 8.497" /><path
       id="path85"
       style="fill-rule:evenodd;fill:#231f20"
       d="m269.06 68.317c-0.21-0.143-0.43-0.215-0.57-0.286 0-5.641 0.71-9.14 1.64-14.067-5.41 0.714-10.82 6.855-15.81 8.997-6.62 7.712-5.2 0.357-5.48-4.57-0.14-0.071-0.22-0.142-0.29-0.142-4.7 2.57-9.33 5.212-13.95 7.854 1.21-1 17.16-14.209 17.16-9.854-1.28 2.285-1.57 4.642-1.07 7.855 0.14 0 0.28 0 0.43 0.071 5.27-4.784 14.95-10.996 21.86-13.281 0 0.071-2.85 11.282-2.99 13.71 1.21 0 8.97-13.21 12.17-9.997-0.28 0.714-0.5 1.428-0.35 2.856 1.92 0 5.55-4.927 8.97-4.284 0.14 0.214-9.04 7.354-9.97 7.14-0.64-1.571-0.71-2.356-0.78-3.57-4.42 0.001-8.69 11.568-10.97 11.568" /><path
       id="path87"
       style="fill-rule:evenodd;fill:#231f20"
       d="m404.86 32.471c-0.22-0.142-0.36-0.214-0.5-0.285 3.92-4.427 4.63-5.998 5.62-11.925 0.15-0.143 0.36-0.286 0.86-0.143 0 4.927-0.43 10.497-5.98 12.353" /><path
       id="path89"
       style="fill-rule:evenodd;fill:#231f20"
       d="m84.787 230.9c-4.784-0.58-15.851-0.58-11.139-7.72 11.781-10.59-4.855-5.55-12.138-8.5-10.71 1.01-20.921 3.74-31.203 3.46-8.53 2.08-21.361 2.14-30.273 2.24l-0.034-1.9c3.862-0.1 7.409-0.23 11.709-0.44 0.071 0.15 16.044-0.72 16.956-1.71 5.926 0.22 12.21-0.57 18.493-1.15 0.071-0.14 0.143-0.22 0.214-0.29 1.286 0 3.071-0.5 4.713-1.08v-1.08c-2.856-2.45-1.357-4.33-4.141-5.69-2.714-2.74-8.283 1.8-10.211-3.46-0.642-0.87-8.782-4.9-9.211-4.98-9.639 2.89-13.994-3.75-22.706 1.08-1.642 0.44-3.284 0.87-4.926 1.37v-0.57c8.854-7.72 12.209-3.32 21.349-2.53 4.355-0.72 6.997-3.02 10.21 1.37 4.284 1.52 4.856-0.14 7.283 4.76 3.142 1.58 12.067-1.3 12.067 5.62 0.286 0.87 1.642 2.09 2.428 4.11 5.498-0.43 35.701-2.95 21.635 9.59-7.086 7.15 17.302 5.77 29.618 4.59v1.39c-6.897 0.37-13.795 1.34-20.693 1.52" /><path
       id="path91"
       style="fill-rule:evenodd;fill:#231f20"
       d="m60.582 277.46c-4.57-0.58-13.495-3.97-16.78-3.32-0.571-0.57-31.631 2.16-36.557 2.24-2.64-0.51-5.071-1.08-7.245-1.7l1.1546e-14 -2.16c2.104 0.28 5.001 1.56 7.102 1.91 11.995-0.14 23.848-1.8 35.986-2.38 3.213 0.43 7.498 0.87 11.282 2.24 7.068 4.75 15.565-2.38 22.206-4.04 0 0.07 0 0.14 0.071 0.22 4.356-1.09 1.999-7.43-1.785-7.79-1.071-1.08 0.357-9.94-6.569-6.48-0.5-0.37-0.928-0.65-1.357-0.94 2.214-11.39-10.139-14.85-18.35-7.43-0.428 1.01-0.928 1.81-1.928 2.02-0.143 0.36-0.214 0.72-0.285 1.08v-1.08c-3.142-3.17-8.14 4.04-9.497 2.67-4.212-8.58-3.284-8-11.567-8-3.427-2.88-5.212-2.09-8.782-1.73-3.499-5.34-6.569-1.15-10.353-1.88-0.072-0.14-0.143-0.21-0.143-0.28-2.465 0-4.425 2.76-6.031 3.4l9.77e-15 -2.18c5.542-3.33 11.175-6.32 17.384-0.94 5.426 0 14.351 0.58 18.564 5.34 0.571 1.29 1.143 2.59 1.785 3.96 1.785-1.08 9.282-2.74 9.496-3.53 6.07-6.13 15.352-7.35 20.992 1.23 4.256 0.2 24.76-3.24 37.259-4.74v2.12c-10.335 1.52-25.379 2.66-27.762 2.9-2.927 0.44-5.855 0.94-8.711 1.45 0.072 1.51 0.214 3.1 0.357 4.68 1.214 0.15 3.96-1.65 5.712 1.44 1.071 2.45 1.571 2.02 1.857 5.48 4.998 1.66 5.069 8.29 0 11.24-6.07 1.37-10.282 4.54-16.351 4.98" /><path
       id="path93"
       style="fill-rule:evenodd;fill:#231f20"
       d="m502.92 146.42c-12-1.88-24.78-6.63-35.14-11.68-7.21-1.15-13.27-5.49-22.63-2.31-3.16 1-12.73 3.12-18.07 4.56l-0.97-1.35c7.31-2.47 15.29-2.54 22.61-6.23 1.79-0.22 3.36-1.09 5.64-0.44 1.14 0.65 3.07 1.81 5 1.81 0.28-1.01 15.85-13.99 16.92-14.56 0.64-0.58 1.29-1.16 2-1.66-3.43-1.88-21.42-8.08-24.56-7.5-6.78 4.69-9.57 6.78-17.85 7.57-0.97 0.22-11 6.14-17.81 9.09l-0.39-0.67-0.65-1.1c5.24-1.92 8.46-3.65 15.85-8.4 9.14-3.68 18.34-2.79 24.05-13.46 0.68-1.798 1.23-3.551 1.73-5.353 2.28-3.677 7.29-5.996 8.75-10.639-5.5 0.224-17.19 16.612-25.92 11.988-4.73-1.573-13.15 6.024-19.69 10.184l-0.11-0.4-0.06-1.97c5.56-4.008 14.77-9.174 16.96-10.317 2.43 0 5.5 2.097 7.43 1.442 8.78-2.523 15.71-11.389 24.13-14.993 3.72 1.226 4.64 10.668 8.86 10.668 10.06-3.388 7.85 0.433 16.2 3.82 13.07 7.78 14.87 6.8 27.01 1.179 1.13-0.587 9.75 1.518 11.16 1.654v1.77c-3.93-0.856-7.8-1.576-11.18-1.576-1.99 2.019-10.99 4.613-13.63 4.833-4.5-0.72-14.54-7.393-16.9-7.393 0.56 2.883 0.27 3.145-0.14 3.789-1.57 0.792-11.81-5.625-14.45-6.346-3.14-2.091-5.21-9.803-6.93-9.803-1.64 3.028-5.28 10.235-8.92 11.461-1.58 3.748-3.07 7.572-4.57 11.392 7.85 1.65 15.99 5.19 24.49 7.71 2.14 0 6.78-2.52 9.99-2.96 2.36-0.57 10.07-1.27 13.5 0.22 6.07 0 13.56-3.53 19.71-5.77 3.04 0 6 0.36 9.03 0.85v1.83c-5.84-1.06-8.63-0.76-13.89 1.07-5 1.33-9.57 3.82-14.5 3.82-11.78-1.8-18.77-0.14-28.27 5.41-2.13 1.96-14.9 12.97-14.49 13.79 13.56 3.97 26.55 11.16 40.62 13.17 1.64-0.15 3.29-0.29 5-0.36 0-0.29 20.99-1.45 23.35-1.38 0.73 0.12 1.45 0.24 2.18 0.36v1.81c-10.39-1.41-20.08 1.37-30.45 1.37" /><path
       id="path95"
       style="fill-rule:evenodd;fill:#231f20"
       d="m79.595 176.71c-15.351-2.45-18.799-8.24-31.009-15.66-6.355-2.09-12.495-3.39-17.565-6.56-2.356-2.45-9.71-10.16-12.209-10.96 0-1.22-4.856 0.15-5.07 0.22 0-0.66-8.935-1.4-13.742-1.65l1.7764e-15 -1.7c6.136 0.12 12.9 0.61 19.24 1.04 2.285 1.44 4.57 3.46 7.14 6.06 10.925-2.6 19.993-5.05 28.704-13.84 9.211-6.42 8.497-9.44 20.492-7.21 9.925 3.46 21.777 9.15 21.92 9.15 0.271 0.28 1.055 0.63 1.988 0.98l-0.376 1.58c-5.877-1.77-16.062-7.97-19.605-8.54 0-1.15-10.639-2.66-11.995-2.74-3.428 1.37-15.209 9.88-17.208 12.62-0.143-0.07-0.214-0.15-0.286-0.22-7.925 4.33-9.996 7.71-19.707 9.01-0.642 0.22-1.285 0.43-1.856 0.72v0.58c6.569 4.97 7.997 6.13 17.993 8.58 9.068 4.32 18.564 14.12 29.418 15.64 2.213 1.51 2.019-0.05 5.09 1.25v0.72c-0.5 0.29-0.929 0.57-1.357 0.93" /><path
       id="path97"
       style="fill-rule:evenodd;fill:#ffffff"
       d="m489.49 96.466c-1.14-0.288-8.71-4.18-8.85-4.468 4-1.298 8.28-1.37 9.21 4.468h-0.36" /></g><metadata
     id="metadata50"><rdf:RDF><cc:Work><dc:format>image/svg+xml</dc:format><dc:type
           rdf:resource="http://purl.org/dc/dcmitype/StillImage" /><cc:license
           rdf:resource="http://creativecommons.org/licenses/publicdomain/" /><dc:publisher><cc:Agent
             rdf:about="http://openclipart.org/"><dc:title>Openclipart</dc:title></cc:Agent></dc:publisher><dc:title>Coloring Book Mammoth</dc:title><dc:date>2007-09-16T20:09:32</dc:date><dc:description>Extracted from &quot;The Washington State Coloring Book&quot;, created by the WA state legislature with taxpayer funds. The coloring book carries no copyright notice, but has the statement &quot;feel free to make copies of this document&quot; on the cover.</dc:description><dc:source>https://openclipart.org/detail/5516/coloring-book-mammoth-by-fundraw_dot_com</dc:source><dc:creator><cc:Agent><dc:title>FunDraw_dot_com</dc:title></cc:Agent></dc:creator><dc:subject><rdf:Bag><rdf:li>animal</rdf:li><rdf:li>cartoon</rdf:li><rdf:li>colouring book</rdf:li><rdf:li>contour</rdf:li><rdf:li>externalsource</rdf:li><rdf:li>extinct</rdf:li><rdf:li>line art</rdf:li><rdf:li>mammal</rdf:li><rdf:li>mammoth</rdf:li></rdf:Bag></dc:subject></cc:Work><cc:License
         rdf:about="http://creativecommons.org/licenses/publicdomain/"><cc:permits
           rdf:resource="http://creativecommons.org/ns#Reproduction" /><cc:permits
           rdf:resource="http://creativecommons.org/ns#Distribution" /><cc:permits
           rdf:resource="http://creativecommons.org/ns#DerivativeWorks" /></cc:License></rdf:RDF></metadata></svg>
