<?xml version="1.0" encoding="UTF-8" standalone="no"?>
<!-- Created with Inkscape (http://www.inkscape.org/) -->

<svg
   xmlns:dc="http://purl.org/dc/elements/1.1/"
   xmlns:cc="http://creativecommons.org/ns#"
   xmlns:rdf="http://www.w3.org/1999/02/22-rdf-syntax-ns#"
   xmlns:svg="http://www.w3.org/2000/svg"
   xmlns="http://www.w3.org/2000/svg"
   xmlns:sodipodi="http://sodipodi.sourceforge.net/DTD/sodipodi-0.dtd"
   xmlns:inkscape="http://www.inkscape.org/namespaces/inkscape"
   id="svg2"
   width="100"
   height="100"
   viewBox="0 0 514 474"
   version="1.0"
   inkscape:version="0.91 r13725"
   sodipodi:docname="manatee.svg">
  <defs
     id="defs8" />
  <sodipodi:namedview
     pagecolor="#ffffff"
     bordercolor="#666666"
     borderopacity="1"
     objecttolerance="10"
     gridtolerance="10"
     guidetolerance="10"
     inkscape:pageopacity="0"
     inkscape:pageshadow="2"
     inkscape:window-width="1402"
     inkscape:window-height="1011"
     id="namedview6"
     showgrid="false"
     inkscape:zoom="45.254834"
     inkscape:cx="74.275009"
     inkscape:cy="18.110862"
     inkscape:window-x="274"
     inkscape:window-y="18"
     inkscape:window-maximized="0"
     inkscape:current-layer="svg2" />
  <rect
     style="fill:#ffffff;fill-opacity:1;stroke:#ffffff;stroke-opacity:1"
     id="rect4138"
     width="528.22882"
     height="488.05933"
     x="-2.0084746"
     y="-4.0169492" />
  <path
     id="path2164"
     style="fill:#000000"
     d="m33.639 472.5c-0.316-0.82 0.349-3.06 1.478-4.97 1.446-2.45 1.861-4.35 1.405-6.43-0.356-1.62-0.117-4.72 0.531-6.88l1.179-3.94-1.758-2.68-1.758-2.68-2.363 2.22-2.364 2.22 2.08 2.21 2.08 2.22-1.299 2.08c-1.026 1.64-1.042 2.34-0.075 3.31 1.505 1.5 1.605 3.82 0.166 3.82-0.582 0-0.803-0.41-0.491-0.92 0.313-0.51-0.163-1.65-1.056-2.54l-1.625-1.63 1.624-1.79 1.623-1.8-2.008-1.81c-2.547-2.31-2.549-4.15-0.008-5.74 2.344-1.47 2.665-5.58 0.5-6.41-0.825-0.31-1.5-1.47-1.5-2.56 0-1.15-0.847-2.21-2-2.51-2.789-0.73-2.51-4.1 0.451-5.45 5.204-2.37 3.866-10.52-1.497-9.12-2.137 0.56-2.712-1.56-0.912-3.36 0.724-0.73 0.57-1.44-0.5-2.32-2.527-2.1-1.91-4.23 1.121-3.86 3.404 0.41 4.044-1.47 1.399-4.12-1.134-1.13-2.062-2.74-2.062-3.57 0-0.84-0.5-2.32-1.111-3.3-0.871-1.39-0.672-2.5 0.922-5.12 1.607-2.64 1.798-3.72 0.91-5.15-0.849-1.35-0.805-2.39 0.179-4.23 1.007-1.89 1.041-2.93 0.147-4.6-0.637-1.19-0.916-2.94-0.62-3.88s-0.094-3.8-0.867-6.36c-2.161-7.15-3.037-20.09-1.549-22.87l1.242-2.32-1.638-1.2c-0.901-0.66-1.52-2.22-1.376-3.47 0.513-4.46-1.981-2.96-4.513 2.73-2.684 6.02-2.723 10.21-0.115 12.37 0.764 0.64 1.389 2.65 1.389 4.47 0 1.83 0.399 3.57 0.887 3.87 1.79 1.11 2.225 7.45 0.712 10.38l-1.481 2.86 2.083 2.09c4.566 4.56 3.513 11.65-2.908 19.57-2.635 3.24-2.966 6.87-0.793 8.67 1.709 1.42 2.034 7.55 0.452 8.53-0.636 0.39-0.797 2.32-0.41 4.9 0.351 2.34 0.15 6.02-0.446 8.16l-1.085 3.91 1.981 2.69c1.413 1.92 1.808 3.56 1.376 5.72-0.422 2.11 0.021 4.08 1.463 6.53 1.138 1.93 1.724 3.72 1.302 3.98-1.445 0.89-4.034-5.06-4.44-10.22-0.224-2.83-0.845-5.72-1.381-6.43-1.298-1.69-0.852-17.51 0.596-21.15l1.145-2.89-1.491-2.28c-2.69-4.1-2.589-6.96 0.373-10.58 5.757-7.04 6.781-13.42 2.937-18.31l-2.129-2.7 1.129-2.48c1.551-3.4 1.361-8.49-0.404-10.82-0.807-1.07-1.468-2.72-1.468-3.67s-0.753-3.23-1.674-5.06c-0.92-1.83-2.268-4.52-2.995-5.98-0.758-1.51-1.064-3.94-0.717-5.67 0.398-1.99 0.059-3.81-0.989-5.31-1.8657-2.66-1.2404-12.04 1.022-15.34 1.433-2.09 1.872-7.55 0.603-7.5-2.855 0.12-5.5035 4.89-5.6662 10.21-0.1052 3.43-1.7099 3.77-3.2829 0.68l-1.1991-2.35-0.7134 1.86c-0.46764 1.22-0.1407 2.28 0.9491 3.07 1.0484 0.77 1.6625 2.63 1.6625 5.05 0 2.51 0.7223 4.59 2.1011 6.06l2.101 2.23-0.6883 4.08c-0.4292 2.54-1.5962 4.79-3.101 5.97-3.6077 2.84-3.1995 5.91 0.8372 6.3l3.25 0.31 0.0395 2.9c0.0272 2 0.6838 3.14 2.1105 3.67 3.981 1.47 3.876 4.93-0.15 4.93-3.3041 0-3.5941 0.95-1.2532 4.12 1.6572 2.24 1.8702 3.16 0.9462 4.09-0.6561 0.65-1.193 2.4-1.193 3.88s-0.675 2.96-1.5 3.27c-1.8849 0.72-1.9352 3.49-0.101 5.56 0.7695 0.87 1.557 4.27 1.75 7.56l0.351 5.97-2.75 1.33-2.75 1.33v3.94c0 2.17-0.4 3.95-0.8889 3.95-0.4888 0-0.8263-1.91-0.75-4.24l0.1389-4.23 2.7311-1.31 2.7312-1.31-0.4228-5.56c-0.2348-3.09-1.1157-6.33-1.9811-7.29-1.8525-2.04-1.9983-4.22-0.3905-5.83 0.6423-0.64 1.7503-2.86 2.4623-4.93l1.2944-3.77-1.5849-2.41-1.5848-2.42-1.6091 2.65c-0.885 1.46-1.9548 2.65-2.3774 2.65-1.1142 0-1.0574-0.16 2.2135-6.09 1.64-2.98 2.99-6.84 3-8.6l0.0181-3.18-3.25-0.32-3.25-0.31-0.31561-2.74c-0.2403-2.09 0.25204-3 2.0636-3.83 1.5783-0.72 2.7566-2.49 3.5005-5.26l1.1213-4.17-2.5528-2.68c-2.0023-2.1-2.4635-3.44-2.139-6.22 0.2578-2.21-0.047-3.72-0.8085-4.01-0.80266-0.31-1.1616-2.51-1.0458-6.43 0.09696-3.27 0.50691-5.44 0.911-4.81 0.4477 0.7 0.7407 0.35 0.75-0.9 0.0084-1.13-0.5472-2.65-1.2347-3.37l-1.25-1.33 1.5 0.45c0.825 0.25 1.9716 2.37 2.548 4.72l1.048 4.27 1.34-1.61 1.34-1.62-1.7955-1.98-1.7954-1.99 1.1574-3.86c0.6366-2.12 1.1575-4.82 1.1575-6 0-1.17 0.6369-2.13 1.4205-2.13 1.7991 0 2.9345 5 2.0983 9.25-0.3971 2.02-0.302 2.76 0.2505 1.97 3.2537-4.69 5.6707 4.09 2.7047 9.83l-1.525 2.95h1.68 1.681l-1.655 1.83c-2.072 2.29-2.146 7.54-0.135 9.55 1.091 1.09 1.367 2.73 0.978 5.82l-0.542 4.3 1.191-2.5c0.655-1.38 2.473-4.58 4.041-7.12 1.776-2.87 2.6-5.27 2.186-6.35-0.392-1.02-0.092-2.11 0.73-2.65l1.396-0.92-1.995-1.52-1.995-1.52 1.495-0.94c0.822-0.52 2.057-0.96 2.745-0.96 1.853-0.03 1.515-2.77-0.479-3.89l-1.729-0.97 1.867-2.06c1.455-1.61 1.61-2.37 0.703-3.46-0.909-1.1-0.807-1.54 0.466-2.03 1.1-0.42 1.39-1.19 0.891-2.37-1.436-3.39-2.207-10.32-1.108-9.95 0.58 0.19 1.163 2.04 1.295 4.11 0.133 2.08 0.77 4.41 1.415 5.19 0.9 1.08 0.892 1.75-0.035 2.87-0.664 0.8-0.9 1.95-0.524 2.56s-0.13 2.01-1.124 3.1c-1.197 1.33-1.445 2.24-0.733 2.69 1.998 1.28 2.527 4.91 0.811 5.56-0.876 0.34-1.295 1.1-0.931 1.69 0.363 0.58-0.128 1.94-1.092 3-1.013 1.12-1.265 1.94-0.598 1.94 0.635 0 1.155 1.1 1.155 2.44s0.408 2.69 0.906 3 0.659 1.51 0.357 2.66c-0.314 1.2 0.018 2.46 0.775 2.92l1.326 0.82-1.24 4.14c-0.929 3.1-0.974 5.51-0.182 9.58 0.582 2.99 1.529 7.87 2.105 10.83 1.878 9.67 1.936 22.76 0.115 25.88l-1.617 2.77 1.261 2.02c0.694 1.11 0.973 2.49 0.619 3.06-0.353 0.57 0.251 1.67 1.342 2.43 3.904 2.73 2.854 8.67-1.254 7.09-1.727-0.66-2.073 0.9-0.426 1.91 0.598 0.37 0.865 1.52 0.594 2.56-0.296 1.14 0.024 1.89 0.802 1.89 0.712 0 2.245 0.79 3.405 1.75l2.109 1.75-0.629 3.75c-0.434 2.58-1.149 3.75-2.299 3.75-1.746 0-4.069 1.83-4.069 3.2 0 0.44 0.9 0.8 2 0.8 1.467 0 2 0.67 2 2.5 0 1.38 0.46 2.5 1.021 2.5 0.562 0 1.531 1.12 2.153 2.48l1.131 2.49 1.316-1.74c2.081-2.74 1.733-6.23-0.621-6.23-2.545 0-2.542-1.2 0.008-3.51l2.008-1.81-1.591-1.76-1.591-1.76 2.083-1.12c2.269-1.21 2.846-4.03 0.833-4.06-0.688-0.01-0.167-0.86 1.156-1.87 1.649-1.27 2.193-2.41 1.729-3.62l-0.677-1.76-1.942 1.76c-1.068 0.96-2.633 1.49-3.479 1.16-2.162-0.83-1.912-3.93 0.435-5.4 2.142-1.34 1.745-4.25-0.579-4.25-0.809 0-1.393-1.02-1.393-2.43 0-1.56-0.722-2.66-2-3.07-2.569-0.82-2.759-7-0.3-9.72l1.701-1.88-1.1-2.91-1.099-2.92 2.399-2.58c2.938-3.18 2.991-4.1 0.316-5.53l-2.083-1.12 1.704-1.88c2.209-2.44 1.184-5.19-1.781-4.77l-2.257 0.31-0.072-5c-0.04-2.75-0.395-6.67-0.79-8.72-0.5-2.59-0.25-4.63 0.822-6.7 1.953-3.78 1.97-6.98 0.04-7.72-2.105-0.81-1.868-2.94 0.717-6.44l2.216-3-1.225-1.96c-0.97-1.55-0.963-2.39 0.034-4.03l1.258-2.07-3-2.45-3-2.46 2.33-1.79 2.33-1.79-0.691-3.68-0.692-3.69h1.612c1.052 0 1.611 0.87 1.611 2.5 0 1.48 0.573 2.5 1.406 2.5 0.937 0 1.223-0.7 0.857-2.1-0.318-1.22 0.021-2.46 0.804-2.94l1.353-0.84-1.71-1.89c-2.12-2.34-2.144-3.64-0.127-6.72 0.87-1.32 1.409-3.22 1.196-4.21-0.284-1.32-0.974-0.67-2.603 2.45-2.523 4.84-3.582 5.18-6.232 2-2.191-2.63-2.436-4.86-0.723-6.57 3.198-3.2 0.56-8.52-3.966-8-3.202 0.37-3.271 2.25-0.085 2.29 3.532 0.05 3.236 2.36-0.591 4.62-3.882 2.29-4.412 3.38-2.079 4.27 1.658 0.64 2.09 4.64 0.5 4.64-0.55 0-1-0.74-1-1.64s-0.771-2.2-1.712-2.89l-1.713-1.25 1.335-1.61c0.734-0.89 1.9-1.61 2.59-1.61s1.815-0.68 2.5-1.5l1.245-1.5h-1.923c-4.29 0-4.56-2.3-0.655-5.58l3.722-3.12-0.253-4.89c-0.139-2.68-0.85-5.56-1.581-6.4-0.792-0.9-1.128-2.81-0.833-4.73l0.497-3.22-2.61-1.19c-2.88-1.31-3.143-1.94-1.509-3.57 0.8-0.8 0.5-1.7-1.1-3.3-2.691-2.69-1.38-4.81 1.893-3.06l2.107 1.13 0.072-2.78c0.04-1.54 0.174-4.59 0.298-6.79 0.131-2.33-0.38-4.73-1.227-5.75-1.005-1.21-1.085-1.75-0.26-1.75 0.701 0 1.074-1.12 0.905-2.71-0.346-3.26 2.863-4.49 4.8-1.84 0.78 1.07 1.456 1.29 1.875 0.61 0.36-0.58 1.528-1.06 2.596-1.06 2.355 0 2.628 3.18 0.429 5.01-1.016 0.84-1.194 1.64-0.542 2.43 0.644 0.77 0.468 2.13-0.518 4.04l-1.49 2.87 1.531 3.23c2.124 4.47 1.93 5.93-1.047 7.88-1.786 1.17-2.369 2.2-1.897 3.36 0.715 1.76 2.096 10.11 3.105 18.79 0.351 3.02 0.139 5.95-0.521 7.19-0.613 1.14-0.724 2.32-0.246 2.62 1.167 0.72 0.207 5.7-1.473 7.64l-1.35 1.55 1.537 2.2c2.129 3.04 3.09 2.75 4.571-1.34 1.338-3.7 3.345-4.23 5.157-1.35 0.764 1.21 0.45 2.42-1.257 4.81l-2.276 3.2 2.301 2.45c1.684 1.79 2.003 2.74 1.192 3.56-0.61 0.6-0.878 1.7-0.596 2.44 0.303 0.79-1.357 2.65-4.079 4.57-5.28 3.72-5.304 3.79-2.205 6.04l2.322 1.68 6.146-6.86c3.381-3.78 6.147-7.52 6.147-8.32 0-0.81 0.673-2.75 1.496-4.33l1.496-2.86-1.468-1.09c-1.422-1.06-1.573-2.06-1.676-11.16l-0.048-4.25h-1.9c-2.325 0-2.349-0.38-0.229-3.62l1.671-2.55-1.339-0.83c-1.601-0.99-2.359-10.62-1.061-13.5 0.496-1.1 1.171-3.24 1.499-4.75 0.382-1.76 1.22-2.72 2.328-2.67 1.044 0.05 1.235 0.28 0.481 0.58-0.688 0.28-1.25 1.49-1.25 2.7s-0.688 3.18-1.529 4.38c-1.036 1.48-1.293 3.08-0.797 4.97 0.402 1.53 0.616 3.55 0.475 4.49-0.141 0.93 0.699 2.65 1.867 3.82l2.123 2.12 2.43-1.59c2.944-1.93 2.952-2.03 0.395-4.59-1.121-1.12-1.769-2.47-1.441-3 0.327-0.53-0.121-0.96-0.995-0.96-3.123 0-2.861-3.06 0.563-6.59l3.355-3.47-1.208-1.93-1.209-1.94 1.486 0.57c2.293 0.88 1.759 4.75-1.015 7.36-2.799 2.63-3.273 5-1 5 0.833 0 1.5 0.89 1.5 2s0.667 2 1.5 2c2.266 0 1.846 4.64-0.573 6.34-1.297 0.91-1.672 1.7-1 2.11 0.59 0.37 1.073 2.11 1.073 3.87 0 2.07 0.676 3.62 1.918 4.4 1.287 0.8 1.736 1.89 1.366 3.3-0.303 1.16-0.06 3.09 0.541 4.3 0.6 1.2 1.223 3.28 1.383 4.61l0.292 2.44 2.905-3.82 2.905-3.82-1.11-1.78c-0.853-1.37-0.773-2.06 0.345-2.99 1.888-1.56 1.857-5.42-0.068-8.35-1.937-2.96-1.065-5.25 2.324-6.1 2.973-0.74 6.199 2.17 6.199 5.6v1.89l2.061-2.06c1.134-1.14 2.822-1.92 3.75-1.74 2.401 0.46 2.748 4.67 0.519 6.3-2.247 1.64-2.571 6.5-0.434 6.5 3.493 0 20.127-6.37 23.089-8.85l3.235-2.69 1.45-8.48c1.68-9.83 4.81-17.29 10.35-24.62l3.92-5.2-5.38-3.04c-2.96-1.67-6.44-3.25-7.72-3.52-1.29-0.26-3.59-0.74-5.115-1.06-1.527-0.33-3.644-1.46-4.705-2.52l-1.93-1.93-7.026 2.46c-9.755 3.4-13.451 3.21-20.064-1.05-2.988-1.92-6.699-3.5-8.248-3.5-1.579 0-3.067-0.66-3.39-1.5-0.33-0.86-1.823-1.5-3.501-1.5-10.757 0-25.244-14.64-27.699-28-0.556-3.02-1.495-6.77-2.087-8.32-2.324-6.08-1.502-8.25 6.231-16.44 4.018-4.26 8.328-9.09 9.577-10.74 4.218-5.57 22.982-24.18 25.811-25.61 1.543-0.77 7.531-3.96 13.306-7.08s12.75-6.22 15.5-6.88 6.405-2.04 8.123-3.07c11.927-7.13 54.767-14.99 100.83-18.48l20.95-1.59 12.73 1.61c19.53 2.48 39.57 10.09 56.87 21.6 7.16 4.76 13.57 8.59 27.5 16.39 8.11 4.55 17.36 11.54 24.55 18.57l8.45 8.26 9.37-0.64c11.43-0.78 12.54-1.33 15.24-7.61 2.27-5.29 4.48-7 2.6-2.01-3.87 10.26 7.35-0.12 11.58-10.71 4.97-12.46 3.51-17.8-7.38-26.88-10.85-9.05-10.91-9.12-19.18-21.87-7.34-11.325-15.06-20.5-17.24-20.5-0.69 0-1.78-0.644-2.43-1.432-2.99-3.598-28.27-16.638-40.96-21.123-3.63-1.283-9.75-3.516-13.6-4.963-39.42-14.815-79.98-16.119-127.5-4.101-3.02 0.765-9.78 2.373-15 3.573-38.5 8.842-74.583 36.301-102.8 78.226-2.842 4.23-5.625 7.96-6.184 8.31s-1.016 1.86-1.016 3.37c0 3.33-1.64 5.14-4.666 5.14-2.938 0-8.667 7.72-21.834 29.43-5.5 9.07-10.14 16.09-10.311 15.6-0.44547-1.28 20.188-34.8 25.958-42.17 1.569-2.01 2.853-4.77 2.853-6.13 0-1.37 0.749-3.1 1.664-3.86l1.663-1.37-1.261 2.37-1.261 2.36 1.597 1.6 1.598 1.6 1.73-1.73c1.368-1.37 1.494-2.11 0.602-3.54l-1.128-1.81 1.843-1.15c1.537-0.96 5.546-6.46 10.453-14.36 6.2-9.97 33.431-38.764 43.468-45.964 16.092-11.539 37.462-22.242 51.562-25.821 52.99-13.449 79.56-16.443 103.97-11.713 46.56 9.022 86.44 24.784 106.02 41.905 3.79 3.317 20.48 26.723 20.48 28.723 0 0.84 14.04 12.37 14.44 11.85 0.13-0.18 1.93-2.91 4-6.07 6.98-10.69 17.44-17.726 35.06-23.592 4.95-1.649 11.18-3.934 13.84-5.079 2.65-1.144 7.94-2.37 11.75-2.724 3.8-0.353 6.91-0.748 6.91-0.878 0-1.575-5.9-12.663-7.89-14.809-3.94-4.268-11.5-7.063-26.11-9.652-7.62-1.35-14.24-3.452-18.15-5.762-3.55-2.102-4.55-1.083-3.04 3.107 1.53 4.226-0.01 9.197-3.1 10.005-2.82 0.737-6.51-1.73-7.3-4.879-0.75-2.989-0.57-2.97-4.64-0.491-7.08 4.322-9.53 2.434-7.21-5.562 2.01-6.891 1.2-8.171-4.03-6.442-3 0.988-6.05 0.802-4.45-0.272 1.93-1.292 13.53-3.345 14.06-2.488 0.35 0.569 0.95-0.376 1.33-2.099 0.99-4.506 2.44-3.867 1.81 0.8-0.38 2.877 0.02 4.825 1.49 7.25 1.11 1.825 2.34 4.892 2.74 6.817 0.89 4.311 2.18 6 4.58 6 3.24 0 4.22-3.494 2.9-10.35l-1.18-6.15 2.26-5c2.54-5.643 3.88-4.717 1.48 1.029-0.85 2.043-1.55 4.043-1.55 4.444 0 1.779 13.11 7.157 20.66 8.477 23.98 4.189 27.26 6.056 34.37 19.55l3.95 7.5 5.49 2.861c3.8 1.984 6.34 4.207 8.26 7.249 3.15 4.986 3.79 5.126 11.13 2.44 19.27-7.042 18-20.248-3.98-41.55l-12.38-12-3.93-7.5c-6.62-12.645-16.08-21.241-21.5-19.522-2.41 0.763-4.91-0.338-3.19-1.401 0.59-0.37-2.4-2.4329-6.65-4.5839l-7.73-3.9109-11.5 0.1385c-18.9 0.2277-30.74 2.9958-35.5 8.3003l-2 2.227 7-0.679c3.85-0.373 10.49-0.766 14.77-0.874l7.76-0.195-1.71 1.258c-1.12 0.819-2.96 1.009-5.27 0.545-4.2-0.844-5.91-0.766-12.55 0.571-2.75 0.554-7.07 1.034-9.6 1.066l-4.6 0.06-5.52 5.795c-8.65 9.062-11.85 16.691-6.53 15.524 1.8-0.393 1.95-0.28 0.75 0.564l-1.5 1.056 1.26 2.03c1.77 2.867-0.28 2.603-3.31-0.424-3.77-3.777-1.04-11.138 7.34-19.772 5.19-5.342 5.1-6.346-0.44-4.895-2.12 0.555-9.47 1.046-16.35 1.091s-13.4 0.091-14.5 0.103c-1.1 0.013-9.2-0.223-18-0.522-10.12-0.345-18.87-0.109-23.81 0.642-6.19 0.941-8.68 0.925-12-0.079-3.97-1.201-15.77-3.113-20.27-3.284-1.15-0.043-5.2 0.704-9 1.661-9.33 2.347-16.04 2.602-21.33 0.812-2.93-0.989-6.13-1.284-9.5-0.874-5.55 0.673-10.51 0.704-39.09 0.245-13.95-0.224-20.59 0.076-24.99 1.129-7.29 1.748-17.12 1.13-21.3-1.34l-3.03-1.786-5.28 2.271-5.28 2.271-5.06-0.674c-2.78-0.37-6.72-0.636-8.75-0.589-2.03 0.046-6.03-0.806-8.891-1.894l-5.206-1.978-2.106 1.206c-2.851 1.631-21.335 1.48-25.41-0.207-2.393-0.991-3.889-1.037-6.315-0.191-4.218 1.471-17.487 1.281-21.882-0.312-2.479-0.899-4.519-0.989-6.994-0.31-4.459 1.225-17.932 0.471-20.525-1.148l-1.981-1.236 4 0.794c3.777 0.749 10.283 0.864 20.5 0.364 2.475-0.122 8.189 0.255 12.697 0.836 6.464 0.834 9.153 0.769 12.719-0.304l4.522-1.361 3.781 1.349c4.62 1.648 19.798 1.85 24.184 0.321l3.201-1.116 4.563 1.743c5.683 2.171 14.913 2.519 18.683 0.704 2.26-1.086 3.45-1.127 5.69-0.199l2.83 1.173 3.02-1.786 3.03-1.785 2.59 1.385c1.97 1.057 3.49 1.144 6.39 0.368 2.67-0.712 5.87-0.668 10.71 0.147 4.19 0.708 7.83 0.822 9.29 0.291 1.45-0.529 6.29-0.387 12.27 0.359 7.78 0.971 11.38 0.974 16.98 0.013 5.52-0.947 7.84-0.953 10.41-0.024 2.54 0.918 6.01 0.929 14.99 0.049 7.72-0.757 12.32-0.813 13.53-0.165 1.25 0.673 3.05 0.561 5.72-0.36 2.62-0.904 4.67-1.041 6.29-0.421 1.33 0.506 5.11 0.592 8.41 0.192 10.77-1.306 24.5-0.594 30.36 1.575 2.26 0.837 5.52 1.01 10 0.531 9.06-0.971 32.36-1.028 39.36-0.096 3.37 0.448 8.27 0.313 11.9-0.327 4.37-0.769 7.41-0.779 10.36-0.035 3 0.755 5.71 0.729 9.6-0.094 2.98-0.631 7.24-1.227 9.46-1.326 2.86-0.128 5.23-1.118 8.11-3.4 7.35-5.827 21.85-8.8048 39.34-8.084l10.71 0.441 5.64 3.1844 5.64 3.1843 8.76 0.0123c4.82 0.0067 12.36 0.0536 16.76 0.1041s12.28 0.0801 17.5 0.0658c13.91-0.0381 25.36 0.8181 26.5 1.9821 0.68 0.692-1.73 0.827-7.5 0.419-17.89-1.264-24.73-1.344-31.61-0.368l-7.12 1.009-5.16-1.514c-4.72-1.3826-6.89-1.3968-11.09-0.072-0.91 0.289 0.6 1.597 3.98 3.445 7.56 4.134 8.76 5.468 15 16.6l5.5 9.803 12.23 11.881 12.22 11.88 2.03 5.411c2.29 6.146 2.58 12.146 0.81 17.053l-1.22 3.359-6.92 3.462c-3.8 1.904-8.26 3.462-9.89 3.462h-2.97l0.74 1.75c1.64 3.83 3.39 11.57 2.83 12.48-0.33 0.54 2.07 3.74 5.35 7.12 9.9 10.24 11.32 14.17 6.96 19.24-2.88 3.35-3.79 2.9-10.2-5.09-7.22-8.98-7.79-8.9-18.4 2.68-3.89 4.24-7.67 7.27-10.78 8.61-2.63 1.14-6.81 4.18-9.29 6.76s-7.6 6.77-11.4 9.32c-3.79 2.54-8.07 5.42-9.5 6.37-1.43 0.96-3.6 1.75-4.81 1.75-4.74 0.02-5.28 4.88-2.2 19.96 3.34 16.37-2.64 24.09-24.31 31.38l-1.71 0.58 2.57 5.61c4.42 9.67 1.85 7.07-4.06-4.09-6.83-12.9-10.29-18.03-17.55-26.03-7.55-8.32-12.66-14.54-19.25-23.4-9.4-12.66-19.89-22.41-29.28-27.23-2.2-1.13-5.35-3.08-7-4.33-1.65-1.24-5.7-3.72-9-5.51s-10.91-6.39-16.9-10.22c-27.63-17.68-49.57-23.69-81.54-22.35-40.15 1.69-97.67 11.64-109.11 18.89-1.349 0.85-5.116 2.3-8.375 3.23-3.258 0.92-11.597 4.78-18.53 8.57l-12.605 6.89-10.47 10.88c-28.482 29.6-30.007 31.71-27.681 38.34 0.839 2.39 2.03 6.84 2.646 9.89 1.25 6.2 6.864 15.58 9.11 15.22 0.8-0.13 2.216 1.1 3.147 2.73 5.027 8.8 16.939 10.1 28.808 3.14 2.475-1.45 5.85-3.13 7.5-3.72l3-1.09 0.512-4.41 0.512-4.42 0.778 2.84c1.206 4.39-0.08 6.64-5.008 8.75-2.488 1.06-5.71 2.78-7.159 3.81s-4.564 2.45-6.921 3.16c-4.317 1.29-4.117 2.89 0.365 2.92 1.143 0.01 4.23 1.45 6.861 3.19 8.203 5.43 24.688 2.16 29.86-5.92 0.44-0.69 1.282-1.25 1.872-1.25 0.68 0 0.609 0.56-0.192 1.52-1.736 2.1-1.127 2.37 3.52 1.62l4-0.65 1.6-4.81c0.87-2.64 2.36-5.56 3.3-6.49l1.71-1.69-2.04 4.5c-2.79 6.19-2.64 6.73 2 7.51 5.1 0.86 4.47 1.59-1.75 2.03-15.45 1.08-20.398 5.19-8.4 6.96 1.97 0.29 6.72 2.16 10.55 4.16l6.98 3.62 2.02-2.7c1.12-1.48 3.01-5.48 4.2-8.89 1.2-3.4 2.21-5.19 2.25-3.98 0.13 3.65-3.76 12.79-6.54 15.38-11.26 10.47-15.27 20.83-18.4 47.63-2.38 20.33-3.443 26.32-5.316 30.03-2.513 4.98-5.798 16.52-4.946 17.37 1.833 1.83 12.892 4.88 17.692 4.87 10.37-0.01 18.12-4.3 27.29-15.14l5.2-6.14 6.2-15.45c6.5-16.22 11.7-24.58 18.51-29.78 2-1.52 6.09-5.22 9.09-8.22 2.99-3 5.71-5.19 6.02-4.87 0.32 0.32-2.9 3.9-7.15 7.95l-7.74 7.37 5.79 6.24c11.65 12.59 38.96 32.73 49.88 36.78 7.88 2.93 39 10.11 39.92 9.22 0.57-0.55 0.49-1.84-0.18-3.32-0.61-1.34-0.87-3.35-0.57-4.47l0.53-2.03-3.15 0.09c-4.24 0.12-5.39-1.2-4.07-4.67l1.06-2.78 2.56 0.49c2.87 0.55 4.1-1.2 2.81-4.01-0.44-0.96-0.83-2.27-0.87-2.91s-0.89-2.07-1.9-3.19c-1.99-2.2-1.33-4.63 1.02-3.73 0.84 0.32 2.49-0.6 3.9-2.18l2.44-2.74 1.46 1.89c1.03 1.33 1.18 2.42 0.5 3.68-1.3 2.44-1.21 2.93 0.54 2.93 2.22 0 1.82 3.76-0.54 5.02l-2.03 1.09 0.7 3.69c0.38 2.04 0.7 4.3 0.7 5.02 0 0.76 0.74 1.13 1.73 0.88 0.94-0.25 2.33-0.07 3.08 0.39l1.36 0.85-1.32 2.13-1.33 2.14 1.33-0.79c0.72-0.44 1.91-1.61 2.63-2.61 1.34-1.85 4.19-2.5 4.19-0.94 0 0.47-0.9 2-2 3.4s-2 3.26-2 4.14c0 1.04-0.89 1.59-2.57 1.59-5.46 0-1.99 3.37 9.3 9.04l11.23 5.63 2.02-2.15c2.36-2.51 2.6-6.92 0.63-11.59-1.66-3.94-0.46-8.53 2.47-9.46 2.29-0.72 2.52-3.73 0.42-5.47-1.93-1.6-1.93-4.62 0-5.36 2.08-0.8 1.87-2.88-0.5-4.91-2.51-2.14-2.52-3.86-0.08-6.87l1.93-2.36-1.83-2c-1.04-1.14-1.98-3.94-2.18-6.5l-0.34-4.5 4.09-0.3c5.29-0.39 7.07 1.47 5.55 5.82-0.85 2.45-0.78 3.18 0.35 3.61 2.13 0.82 3.26-0.3 3.26-3.23 0-2.78 1.62-4.36 4.5-4.38 1.97-0.02 1.96 0.03 0.85-5.7-1.18-6.11 0.11-7.45 3.79-3.93 5.77 5.54 4.96 13.57-1.73 17.02l-2.81 1.46 0.57 3.82c1.02 6.72 5.08 10.07 5.08 4.19 0-3.08 1.87-5.88 3.92-5.88 1.02 0 2.08-0.91 2.38-2.02 0.29-1.11 1.87-2.49 3.5-3.06l2.98-1.04 0.68-5.37c0.49-3.97 0.26-6.15-0.9-8.39-0.86-1.66-1.56-4.56-1.56-6.45 0-1.88-0.68-3.99-1.5-4.67-0.92-0.76-1.5-2.95-1.5-5.62v-4.38h2.03c1.12 0 2.3 0.69 2.62 1.53 0.35 0.91 1.29 1.31 2.33 0.98 2.67-0.85 4.56 2.02 3.23 4.93-0.61 1.34-0.76 3.59-0.35 5.14l0.74 2.76 2.17-3.67c2.73-4.63 4.23-4.67 4.23-0.12 0 2.44-0.77 4.31-2.5 6.04-1.76 1.76-2.5 3.6-2.52 6.21 0 2.03-0.4 4.31-0.87 5.05-0.5 0.79-0.4 2.58 0.24 4.26l1.09 2.89-3.22 2.95c-1.77 1.61-3.22 3.36-3.22 3.89 0 0.52-1.12 1.22-2.48 1.57-1.56 0.39-2.73 1.57-3.13 3.18-0.35 1.4-1.71 2.96-3.02 3.46-1.82 0.69-2.37 1.66-2.39 4.18-0.01 4.09-0.82 5.38-4.17 6.65-3.35 1.28-5.32-0.7-4.4-4.39 0.45-1.78 0.19-2.71-0.89-3.12-0.83-0.32-1.52-1.46-1.52-2.54 0-1.1-0.45-1.67-1.05-1.3-0.63 0.39-0.8 2.32-0.41 4.87 0.46 3.09 0.24 4.54-0.84 5.44-1.15 0.95-1.28 2.1-0.57 5.22 1.06 4.72-1.99 18.32-5.31 23.72-3.25 5.28 0.4 8.31 6.25 5.18l1.94-1.04-0.64-4.03-0.65-4.02 2.25-3.05 2.25-3.04-1.11-2.44c-2.3-5.04-0.36-8.13 3.5-5.57 2.63 1.74 2.36 20.23-0.3 20.23-1.06 0-1.3 0.53-0.79 1.75 0.41 0.96 0.95 2.65 1.21 3.75 0.39 1.65 4.36 4.19 11.47 7.32 1.19 0.53 2.1-4.74 1.05-6.08-1.62-2.05-2.49-14.47-1.08-15.35 0.67-0.41 1.39-0.2 1.62 0.47 0.22 0.67 1.53 2.56 2.91 4.19 1.81 2.15 2.34 3.67 1.89 5.43-0.45 1.82-0.1 2.71 1.4 3.52l2.01 1.07v5.41c0 2.97 0.45 5.68 1 6.02s1 2.12 1 3.95v3.34l4.07 0.39c5.62 0.53 5.84-3.69 0.43-8.18l-1.62-1.35 0.65-6.09 0.65-6.09-2.09-1.89c-1.15-1.04-2.1-3.06-2.12-4.48-0.02-1.43-0.67-3.43-1.44-4.45-1.02-1.36-1.14-2.54-0.44-4.39 0.73-1.91 0.59-2.96-0.56-4.23-3.05-3.36-1.51-11.49 2.01-10.61l2.27 0.57 1.07-3.09c1.62-4.63 3.67-3.14 3.38 2.46-0.24 4.49 0.92 6.22 2.1 3.14 0.32-0.82 1.27-1.5 2.11-1.5 2.38 0 1.85 4.35-0.84 6.87l-2.36 2.23 0.11 5.8c0.07 3.18 0.7 6.49 1.4 7.34 0.71 0.85 1.55 3.96 1.87 6.9 0.33 2.95 1.14 5.81 1.81 6.36 2.05 1.69 3.28 4.78 3.99 10.03l0.68 5.04-2.13 2.7-2.12 2.7 6.94 7.27c3.82 3.99 8.11 8.61 9.53 10.26l2.59 3 0.03-1.88 0.03-1.88 3.28 0.53 3.27 0.53-0.39-7.15c-0.21-3.93-0.79-7.91-1.27-8.83-1.07-2.04-1.14-6.93-0.12-8.32 2.29-3.12 8.23-4.51 8.23-1.93 0 1.07 0.59 1.38 1.86 0.97 3.79-1.2 4.37 1.89 1.13 5.98-2.23 2.79-2.83 4.35-2.29 5.89 1.35 3.82 0.35 12.92-1.74 15.8-1.08 1.49-1.96 3.31-1.96 4.05s-0.49 1.83-1.09 2.43c-0.79 0.79-0.76 1.73 0.12 3.37l1.22 2.28-1.77 1.29c-0.97 0.72-2.24 1.46-2.82 1.65-0.71 0.24-0.64 1.37 0.23 3.46 0.71 1.71 1.02 3.98 0.68 5.03-0.33 1.06 0.05 3.2 0.86 4.75 1.48 2.86 0.66 6.48-1.47 6.48-1.37 0-1.13 4.55 0.62 11.5 2.18 8.64 3.57 16.4 3.78 21l0.18 4 2.23 0.32c2.29 0.33 3.41 5.18 1.19 5.18-0.58 0-0.92-0.76-0.75-1.68 0.19-1.09-0.59-1.91-2.21-2.32-1.72-0.44-2.43-1.24-2.26-2.57 0.33-2.69-1.65-14.54-3.87-23.16-2.39-9.25-2.35-11.71 0.2-13.4l2.07-1.37-1.22-3c-0.67-1.65-1.33-4.58-1.46-6.5s-0.56-4.74-0.96-6.25c-0.54-2.01-0.37-2.75 0.63-2.77 2.95-0.03 3.99-1.54 2.95-4.28-0.64-1.67-0.65-2.84-0.04-3.22 0.53-0.33 0.96-1.26 0.96-2.08 0-0.81 0.89-2.7 1.97-4.19 2.06-2.84 3.15-13.22 1.7-16.28-0.49-1.03 0.31-2.89 2.36-5.47 3.42-4.3 2.34-6.09-1.5-2.49-2.39 2.25-4.1 1.55-2.48-1.02 1.51-2.39 1.09-2.83-1.58-1.61-3.22 1.48-4.08 4.79-2.06 7.89 0.97 1.47 1.58 4.53 1.56 7.84-0.02 2.99 0.1 6.33 0.25 7.43l0.28 2-3.25-0.01c-1.95-0.01-3.25 0.49-3.25 1.25 0 0.69 0.45 1.26 1 1.26s1 1.12 1 2.5c0 1.54-0.57 2.5-1.48 2.5h-1.48l1.17 2.57 1.18 2.57-1.45 0.92c-0.79 0.5-3.02 0.93-4.94 0.96l-3.5 0.05 2.58 2.22c1.42 1.21 3.18 3.71 3.91 5.55l1.33 3.34-1.41 0.9c-0.78 0.49-1.97 0.9-2.66 0.9-1.69 0.03-1.59 3.49 0.14 4.93 2.49 2.07 2.53 7.07 0.07 9.93l-2.23 2.59 2.14 1.09c1.57 0.81 2.07 1.9 1.9 4.15-0.16 1.99 0.45 3.67 1.75 4.84 2.54 2.3 2.53 5.13-0.02 6.72-2.8 1.75-2.49 3.89 1 6.96 2.91 2.55 4.72 10.99 2 9.31-0.55-0.34-1-1.91-1-3.49 0-2.05-0.86-3.49-3-5.01-3.53-2.51-4.02-6.39-1-8 2.56-1.37 2.54-3.2-0.08-5.57-1.51-1.37-1.93-2.64-1.53-4.65 0.44-2.18 0.04-3.11-1.88-4.36l-2.44-1.6 2.21-2.99c2.41-3.25 2.47-7.79 0.12-9.13-2.4-1.37-1.71-5.63 1.1-6.7 1.38-0.52 2.5-1.21 2.5-1.52 0-1.37-2.97-6.14-4.9-7.89-3.49-3.16-2.74-4.87 1.8-4.11 4.28 0.73 6.07-0.6 4.07-3.01-0.65-0.79-0.92-2.17-0.58-3.06 0.73-1.88-6.32-11.07-14.88-19.41l-5.66-5.5 0.65 3.56c0.48 2.63 0.24 3.91-0.92 4.88-1.95 1.61-2.04 4.87-0.2 6.98 1.78 2.04 2.75 15.52 1.23 17.15-0.85 0.91-0.46 1.03 1.66 0.53l2.77-0.65 0.62 3.11c0.34 1.71 1.24 3.35 1.98 3.63 3.69 1.42-0.13 8.04-4.9 8.5l-3.24 0.31 0.35 2c0.44 2.5 1.22 14.36 1.39 21.02 0.09 3.81-0.54 6.13-2.62 9.69l-2.74 4.67 1.58 2.42c2.14 3.27-3.5 10.99-6.12 8.37-0.29-0.29 0.87-1.24 2.57-2.12 3.53-1.83 3.64-2.26 1.62-6.16l-1.47-2.83 1.66-2.53c3.89-5.91 4.53-8.13 3.82-13.37-0.38-2.84-0.78-7.86-0.88-11.16-0.11-3.3-0.53-6.52-0.93-7.16-1.25-1.97 0.36-4.34 2.94-4.34 5.17 0 8.83-4.83 4.83-6.36-0.82-0.32-1.51-1.83-1.53-3.36l-0.03-2.78-1.48 1.95-1.48 1.96-1.63-1.63c-1.08-1.08-1.36-2.23-0.82-3.45 1.69-3.84 1.26-14.33-0.69-16.8-2.33-2.96-2.47-7.53-0.23-7.53h1.61l-0.68-3.63-0.68-3.63 3.22-3.32 3.21-3.32-0.59-5.68c-0.43-4.23-1.24-6.38-3.14-8.36-1.95-2.03-2.56-3.71-2.56-7.04 0-2.66-0.65-5.08-1.65-6.19-1.12-1.23-1.73-3.94-1.89-8.26l-0.23-6.44 2.39-2.24c2.5-2.35 3.38-4.96 1.01-3-2.62 2.18-4.9 0.18-4.32-3.79l0.53-3.6-1.07 2.25c-0.67 1.39-1.97 2.25-3.42 2.25h-2.35v3.38c0 1.86 0.62 3.89 1.39 4.53 0.98 0.81 1.17 2.11 0.64 4.45-0.5 2.24-0.31 3.91 0.61 5.17 0.75 1.02 1.36 2.79 1.36 3.94s0.94 2.89 2.09 3.88l2.09 1.79-0.69 5.95-0.69 5.96 2.67 3.49c1.52 2 2.53 4.46 2.35 5.73l-0.32 2.23-4.98 0.18c-5.54 0.21-6.48-0.58-6.5-5.37-0.01-1.76-0.47-3.47-1.02-3.81s-1-3.02-1-5.95c0-3.82-0.43-5.5-1.5-5.91-0.92-0.36-1.5-1.87-1.5-3.95 0-2.04-0.75-4.06-1.88-5.08l-1.89-1.71 0.52 4.8c0.28 2.64 0.91 5.57 1.4 6.52 0.49 0.94 0.59 3.54 0.24 5.77-0.47 2.91-0.23 4.55 0.83 5.79 2.3 2.67 4.78 8.28 4.78 10.82 0 1.26 1.17 3.56 2.6 5.1l2.59 2.8-0.59 4.5c-0.46 3.51-0.15 5.16 1.4 7.5 2.58 3.9 2.81 17.32 0.4 23.1-1.22 2.91-1.43 5.3-0.88 9.87 1.48 12.38 1.44 24.61-0.09 25.2-1.62 0.62-1.95 5.89-0.43 6.83 1.39 0.86 1.25 5.85-0.2 7.3-2.39 2.39-4.5 1.28-6.25-3.3-1.55-4.07-3.55-6.04-3.55-3.5 0 0.55-0.93 1-2.07 1h-2.06l0.65 2.25c0.37 1.24 1.98 3.37 3.58 4.75 2.82 2.41 3.95 6 1.9 6-0.55 0-1-0.63-1-1.4s-1.58-2.98-3.5-4.9c-3.91-3.91-4.84-8.7-1.7-8.7 0.99 0 2.31-0.51 2.93-1.13 1.89-1.89 4.26-0.14 6.42 4.73l2.05 4.63 1.49-1.49 1.49-1.49-1.59-3.08c-2.13-4.11-2-6.76 0.44-9.2l2.03-2.03-1.04-3.86c-0.57-2.13-0.74-4.63-0.38-5.57s0.06-5.51-0.66-10.15l-1.31-8.44 1.66-3.49c2.49-5.21 2.31-19.25-0.31-24.13-1.43-2.68-1.81-4.73-1.38-7.46l0.6-3.76-2.62-3.12c-1.44-1.71-2.62-4.18-2.62-5.48s-0.42-2.62-0.92-2.93c-0.51-0.32-1.21-1.85-1.55-3.41-1.68-7.67-15.63-15.31-20.6-11.28l-2.29 1.85 1.3 3.15 1.3 3.14-1.37 1.66c-0.75 0.91-2.83 2.26-4.61 3l-3.24 1.36-0.63 3.97c-0.95 5.94-3.55 7.06-11.39 4.92l-1.5-0.41 0.28 5c0.2 3.48-0.36 6.4-1.85 9.6l-2.13 4.6 1.17 9.4c1.46 11.71 2.67 19.57 3.58 23.19 0.5 2 0.2 3.33-1.09 4.76l-1.79 1.97 2.4 2.56 2.4 2.55-2.31 1.75-2.32 1.75 1.58 1.31c1.62 1.34 2.17 4.04 0.83 4.08-0.41 0.01-1.86 0.88-3.22 1.93l-2.48 1.9 1.77 1.95 1.77 1.96-2.54 0.64c-3 0.75-3.36 3.73-1.11 9.11 1.14 2.74 0.48 6.39-0.79 4.34-2.62-4.22-3.25-12.11-1.11-13.89 1.07-0.88 1.23-1.59 0.5-2.32-1.64-1.64-1.28-2.33 2.5-4.67l3.55-2.19-1.7-2.58-1.69-2.59 2.19-1.45 2.18-1.45-2.17-2.32-2.18-2.32 1.72-2.61c0.98-1.51 1.42-3.33 1.02-4.29-0.76-1.85-1.97-9.85-3.63-24.01l-1.1-9.34 2.15-3.83 2.16-3.83-0.66-5.56-0.65-5.56 1.59-0.61c0.88-0.34 3.12-0.11 4.99 0.51 4.7 1.55 6.48 0.54 7.41-4.2l0.81-4.08 3.99-2.26c4.05-2.29 4.26-2.83 3.01-7.58-0.72-2.71-0.17-3.53 4.85-7.13l1.87-1.35-1.16-2.16-1.15-2.17-3.72 2.38-3.72 2.38 0.31 3.79c0.5 6.01-0.43 7.86-5.67 11.25-6.99 4.53-9.05 4.04-5.55-1.3 1.06-1.63 1.37-3.42 0.92-5.45l-0.66-3.03 2.73-2.35c1.92-1.65 2.48-2.77 1.86-3.77-1.2-1.93-0.57-6.06 1.24-8.08 0.82-0.92 2.54-5.71 3.82-10.64l2.34-8.96-0.98-4.34-0.97-4.34 1.56-1.14c1.12-0.82 1.49-2.53 1.31-6.02l-0.26-4.89 2.75-0.32c2.17-0.25 2.75 0.1 2.75 1.65 0 1.07 0.7 2.22 1.55 2.55 1.18 0.45 1.39 1.43 0.89 4.11-0.52 2.74-0.33 3.51 0.83 3.51 2.27 0 3.55-2.12 3.91-6.51 0.24-2.97 0.88-4.24 2.52-4.95 1.2-0.53 2.44-1.95 2.74-3.15 0.32-1.28 1.82-2.63 3.61-3.26 2.05-0.71 2.95-1.63 2.75-2.78-0.2-1.13 0.55-1.93 2.2-2.33l2.5-0.62 0.17-5.45c0.09-3 0.19-6.96 0.21-8.8 0.03-2.27 0.86-4.11 2.58-5.7 1.4-1.3 2.54-3.16 2.54-4.15-0.01-1.25-0.62-0.8-1.99 1.45-3.62 5.94-6.45 1.13-4.85-8.25 0.27-1.58-0.14-1.93-1.92-1.69-1.34 0.19-2.5-0.31-2.85-1.25-0.33-0.86-1.01-1.56-1.5-1.56-1.5 0-0.99 3.34 1.11 7.26 1.1 2.05 2 5.11 2 6.79s0.7 4.4 1.56 6.06l1.55 3.01-1.12 3.42c-0.62 1.88-0.84 3.9-0.48 4.48 0.92 1.49-1.37 3.98-3.66 3.98-1.11 0-2.3 1.04-2.85 2.5-0.58 1.52-1.74 2.5-2.96 2.5-1.38 0-2.18 0.86-2.58 2.75-1.96 9.29-9.93 7.72-9.99-1.97l-0.02-4.72 2.85-1.19c5.68-2.35 7.48-11.32 3.02-15.02l-1.53-1.27 0.24 3.96c0.36 5.81 0.17 6.46-1.97 6.46-2.17 0-2.97 0.94-3.61 4.25-0.45 2.39-2.99 4.75-5.11 4.75-2.16 0-3.56-3.71-2.3-6.08 1.65-3.08 0.46-5.11-2.78-4.74l-2.76 0.32 0.34 4c0.18 2.2 1.16 4.9 2.17 6l1.84 2-1.93 2.36c-2.43 2.99-2.42 4.38 0.08 6.64 2.1 1.9 2.73 5.5 0.97 5.5-1.84 0-2.21 2.91-0.57 4.55 2.34 2.33 1.96 4.99-1 6.92l-2.59 1.7 0.63 4.17c0.34 2.29 0.88 6.04 1.19 8.33l0.56 4.18-2.6 2.25c-1.84 1.61-2.59 3.25-2.59 5.67 0 1.89-0.89 4.54-1.99 5.94-1.28 1.63-1.78 3.35-1.41 4.83 0.43 1.71 0 2.6-1.7 3.51-1.25 0.67-3.14 2.02-4.19 3.01l-1.92 1.78 1.86 3.15 1.85 3.15-3.35 2.74-3.36 2.74 0.71 7.56c0.49 5.17 0.36 7.79-0.39 8.25-1.74 1.08-1.36 13.18 0.52 16.82 2.18 4.22 1.31 15.49-1.58 20.39-2.56 4.35-2.58 6.45-0.05 10.59 2.4 3.95 2.54 5.77 0.42 5.77-1.23 0-1.44 0.65-0.92 3 0.48 2.19 0.25 3.16-0.84 3.58-2.09 0.8-2.99 3.6-1.47 4.54 0.94 0.58 0.7 1.36-0.97 3.14-2.81 3-2.83 6.46-0.05 9.43 2.69 2.85 1.03 3.08-1.98 0.27-2.69-2.5-2.87-7.28-0.37-9.78 1.36-1.36 1.56-2.22 0.78-3.45-0.79-1.26-0.49-2.22 1.33-4.16l2.36-2.51-1.36-1.64-1.35-1.64 1.89-1.38 1.9-1.39-1.68-3.54c-2.23-4.67-2.13-7.95 0.33-11.28 2.88-3.89 3.74-14.44 1.6-19.56-1.84-4.39-2.2-16.15-0.53-17.19 0.73-0.44 0.86-2.94 0.41-7.47-0.82-8.14-0.27-10.3 3.02-11.8 2.81-1.28 3.2-3.33 0.98-5.17-2.64-2.19-1.72-4.82 2.53-7.22 3.19-1.81 3.92-2.72 3.51-4.41-0.31-1.27 0.29-3.15 1.47-4.66 4.24-5.39 2.01-8.61-10.24-14.8-9.95-5.04-13.72-5.01-10.55 0.07l1.28 2.07-1.66 2.9c-1.88 3.28-0.88 5.61 2.66 6.23 3.29 0.57 2.72 5.95-0.81 7.64l-2.8 1.34 1.21 1.46c1.8 2.17-0.34 3.8-4.83 3.67l-3.74-0.11 1.84 1.35c1 0.73 1.54 1.8 1.19 2.37s0.95 1.7 2.9 2.52c4.51 1.88 4.06 9.63-0.73 12.72-0.56 0.36-0.05 1.15 1.13 1.79 2.28 1.22 2.81 4 1.1 5.71-0.73 0.73-0.59 1.42 0.44 2.28l1.49 1.24-1.61 3.39-1.62 3.39 1.31 3.98 1.32 3.99-1.61 2.45-1.61 2.46 1.47 1.21c1.86 1.55 1.86 3.39 0 4.94-0.9 0.74-1.43 2.87-1.38 5.51 0.05 2.37-0.2 4.78-0.56 5.35-0.35 0.58 0.13 1.48 1.08 2.01l1.72 0.96-1.17 3.81-1.17 3.8 1.61 1.77 1.6 1.78-1.23 4.41c-0.68 2.43-0.93 5.4-0.55 6.6 0.54 1.7 0.22 2.29-1.48 2.74-1.56 0.41-2.01 1.09-1.59 2.43 0.32 1.02 0.84 2.69 1.16 3.71 0.33 1.07-0.14 2.56-1.11 3.54-0.97 0.97-1.46 2.53-1.16 3.7 0.34 1.28 0.1 1.88-0.64 1.63-1.92-0.64-1.97-3.73-0.09-5.8l1.75-1.94-1.37-2.55c-1.08-2.02-1.11-2.91-0.16-4.25 1.49-2.07 1.64-2.48 3.09-8.56l1.17-4.88-1.6-2.44c-1.24-1.89-1.38-3.1-0.61-5.31 0.74-2.1 0.67-3.14-0.24-3.9-1.74-1.44-0.85-13.05 1.17-15.36l1.56-1.76-1.87-1.36-1.86-1.37 1.8-2.74 1.8-2.75-1.11-2.42c-1.44-3.17-1.4-7.63 0.08-9.11 0.91-0.91 0.87-1.76-0.15-3.67-1.06-1.98-1.08-2.78-0.09-3.97 1.41-1.71 0.63-3.58-1.5-3.58-1.62 0-1.96-2.56-0.47-3.48 1.65-1.02 4.28-7.42 3.69-8.97-0.73-1.89-6.9-3.61-7.84-2.18-1.04 1.56 0.03 2.63 2.62 2.63 3.57 0 4.16 3.82 0.72 4.64-4.04 0.97-4.44 1.43-2.47 2.9l1.81 1.34-1.25 2.05c-1.75 2.86-1.63 8.07 0.19 8.07 2.67 0 2.69 1.97 0.04 4.61l-2.63 2.63 2.27 4.29 2.28 4.29-1.39 1.67c-0.96 1.16-2.27 1.51-4.2 1.12l-2.81-0.56v1.86c0 1.02 1.03 2.54 2.3 3.37l2.29 1.5-0.26 5.86c-0.14 3.22-0.33 6.31-0.41 6.86-0.09 0.55 0.16 1.76 0.54 2.69 0.46 1.1-0.01 2.3-1.37 3.46l-2.07 1.78 2.98 2.72 2.98 2.72-0.64 3.31c-0.78 4.13-1.08 4.48-2.56 3-1.37-1.37-4.78-1.59-4.78-0.3 0 0.48 0.7 1.45 1.54 2.16 1.05 0.86 1.35 2.18 0.94 4.05-0.47 2.15-0.15 3.02 1.46 3.88 2.84 1.52 2.58 3.74-0.8 6.9-2.27 2.12-2.69 3.12-2.03 4.9 1.14 3.09-0.86 2.88-2.28-0.24-1.21-2.67 0.17-5.53 2.69-5.53 2.43 0 2.71-3.4 0.43-5.25-1.57-1.26-2.04-2.49-1.68-4.37 0.34-1.78-0.15-3.26-1.54-4.65l-2.03-2.03 1.9-1.4c1.04-0.76 2.91-1.14 4.15-0.83l2.25 0.57v-2.45c0-1.58-1.06-3.21-3-4.59-3.42-2.43-3.77-3.78-1.25-4.71 2.48-0.91 3.31-2.51 2.08-3.99-0.59-0.71-0.71-2.06-0.28-3.04 0.43-0.97 0.82-3.96 0.86-6.65l0.09-4.88-2.25-1.03c-1.54-0.7-2.25-1.89-2.25-3.78 0-3.03 1.6-4.11 4.14-2.81 1.1 0.56 2.07 0.34 2.91-0.67l1.26-1.52-2.15-2.92c-2.69-3.63-2.73-5.63-0.16-7.23 2.35-1.47 2.65-3.77 0.5-3.77-1.51 0-1.88-1.02-1.55-4.25 0.13-1.25-0.54-1.75-2.35-1.75-2.74 0-5.13-3.17-4.21-5.58 0.87-2.25 3.18-1.65 4.46 1.16 0.65 1.42 1.71 2.4 2.35 2.19 2.05-0.69 1.96-2.5-0.16-3.05-3.05-0.8-2.47-2.55 1.46-4.42 4.21-2.01 4.44-3.06 0.75-3.48-1.9-0.22-2.71-0.86-2.61-2.07 0.08-1.08-0.56-1.75-1.69-1.75-2.43 0-3.27-1.54-2.07-3.78 0.55-1.03 0.61-2.43 0.14-3.19-0.52-0.84-0.24-2.3 0.74-3.78 1.24-1.9 1.31-2.59 0.32-3.2-1.76-1.09-0.93-5.46 1.11-5.85 1.25-0.24 1.87 0.62 2.37 3.25 0.37 1.96 1.11 3.85 1.66 4.19 0.61 0.37 0.74-0.19 0.35-1.43-0.36-1.12-0.23-2.3 0.29-2.62 1.28-0.79 0.63-6.83-1.02-9.51l-1.34-2.17 2.37-1.8 2.37-1.8-1.29-3.56-1.29-3.57-12.59-3.09c-6.93-1.7-12.93-3.09-13.34-3.09-1.4 0-0.72 4.79 0.77 5.36 1.91 0.73 1.95 3.53 0.07 4.25-0.79 0.3-1.45 1.3-1.48 2.22-0.08 3.14-1.83 11.67-3.08 14.97-1.42 3.77-0.21 14.61 2.54 22.7 1.02 3 1.36 6.06 0.95 8.49-0.41 2.44-0.17 4.56 0.66 5.9l1.31 2.09-1.69 3.26c-1.72 3.32-1.84 11.82-0.28 19.82l0.7 3.55-2.8 3.32c-2.94 3.5-8.28 21.97-8.4 29.07-0.06 3.54-2.69 7.39-6.57 9.6-1.06 0.61-2.08 2.18-2.26 3.5s-1.42 3.43-2.75 4.69-2.42 2.95-2.42 3.75-0.48 1.46-1.07 1.46c-1.48 0-0.14-4.02 2.18-6.56 1.04-1.14 1.89-3.04 1.89-4.22 0-1.22 0.97-2.65 2.25-3.31 4.34-2.24 6.75-5.2 6.79-8.33 0.07-6.04 4.8-24.89 6.9-27.5 3.42-4.25 4.35-7.24 3.28-10.58-1.52-4.74-1.32-15.41 0.35-18.64 1.15-2.22 1.24-3.36 0.37-4.97-0.63-1.17-0.84-3.6-0.49-5.48 0.41-2.17-0.06-5.65-1.29-9.65-3.01-9.8-3.62-17.85-1.78-23.47 0.87-2.63 1.59-5.91 1.61-7.29s0.05-3.73 0.06-5.24c0.02-1.71 0.8-3.14 2.09-3.83l2.05-1.1-2.22-2.36c-1.41-1.5-1.98-3-1.56-4.09 0.72-1.88-0.87-3.34-3.68-3.36l-1.78-0.02 1.46 2.25 1.46 2.25-1.43 1.94c-0.79 1.07-1.44 3.33-1.44 5.03s-0.74 4.14-1.65 5.44l-1.64 2.35 1.64 0.92c2.09 1.16 2.08 2.85-0.02 7.26l-1.68 3.52 1.87 2.06 1.87 2.07-1.05 3.93-1.05 3.93 1.75 2.88 1.76 2.89-1.1 4.11-1.1 4.12 2.27 4.04 2.28 4.04-1.02 3.24c-0.55 1.77-1.32 7.18-1.69 12.01l-0.68 8.78-2.06 1.44-2.07 1.45 1.36 2.53 1.35 2.53-2.06 2.24c-1.5 1.64-1.93 3.12-1.56 5.46 0.34 2.22-0.18 4.29-1.69 6.74-1.2 1.94-2.57 6.29-3.05 9.67-0.63 4.46-1.57 6.89-3.42 8.82-1.41 1.47-2.56 3.21-2.56 3.87 0 0.67-1.32 2.59-2.94 4.29l-2.94 3.08 0.94 2.47c1.18 3.11 1.22 6.35 0.07 6.35-0.48 0-1.16-1.8-1.51-4-0.36-2.2-1.1-4-1.65-4-2.06 0-3.32-4.74-2.06-7.77 0.87-2.12 0.9-3.61 0.08-5.76-0.84-2.19-0.79-3.47 0.18-5.29l1.28-2.39-2.33-1.9c-2.42-1.95-2.3-4.89 0.19-4.89 0.76 0 2.19-0.9 3.18-1.99l1.8-1.99-0.58-9.76-0.58-9.75 1.59-1.76c1.27-1.4 1.37-2.25 0.49-4.18-1.22-2.68-0.43-3.8 3.54-5.01 2.84-0.87 2.85-2.3 0.04-5.29l-2.22-2.35 1.27-2.04c0.96-1.54 0.99-2.37 0.13-3.41-0.63-0.76-0.86-1.84-0.52-2.4 0.91-1.47-2.24-7.07-3.98-7.07-1.6 0-1.87-2.39-1.63-14.5 0.08-3.85 0.17-8.68 0.2-10.72 0.04-2.05 0.51-4 1.04-4.33 0.55-0.34 0.7-2.13 0.34-4.03l-0.64-3.42h3.11c3.31 0 4.07-1.56 1.63-3.39-1.64-1.23-1.03-2.55 1.92-4.18 2.55-1.41 2.8-2.53 1.06-4.83l-1.44-1.9-1.45 1.21c-0.81 0.67-2.23 1.07-3.18 0.9-1.18-0.21-2.07 0.73-2.86 3.03-2.03 5.93-8.38 7.11-7.11 1.32 0.43-1.92 0.14-3.24-0.86-4.08-1.11-0.92-1.34-2.47-0.91-6.13l0.58-4.91-1.59-0.61c-1.16-0.44-1.44-1.4-1.01-3.52 0.45-2.24 0.21-2.91-1.01-2.91-1.83 0-3.61 2.9-2.93 4.78 0.25 0.71-0.07 1.93-0.72 2.71-1.35 1.62-0.55 3.51 1.47 3.51 1.8 0 2.42 2 1.43 4.66-0.56 1.53-0.37 2.33 0.65 2.72 0.79 0.31 1.45 1.58 1.45 2.84 0.03 4.47 1.17 6.78 3.36 6.8 2.85 0.02 4.49 1.16 6.1 4.25l1.33 2.57-1.55 2.22c-1.24 1.77-1.32 2.6-0.37 4.12 0.94 1.51 0.87 2.34-0.35 4.08-1.82 2.6-1.97 7.19-0.38 11.74l1.15 3.29-1.78 3.3c-2.04 3.8-1.47 6.41 1.41 6.41 2.52 0 4.07 2.83 4.07 7.42v3.54l-2.25 0.53c-3.94 0.92-10.21-1.93-10.56-4.82-0.17-1.39-1.07-3.12-2-3.85l-1.69-1.32 1.29 1.65c0.78 0.99 1.03 2.7 0.64 4.25-0.47 1.91-0.26 2.6 0.81 2.6 0.8 0 2.26 0.9 3.26 2s2.4 2 3.13 2 2.06 1.12 2.95 2.49l1.63 2.48-1.85 4.51c-2.14 5.2-2.12 5.19-7.53 2.43l-4.09-2.08 0.63 2.52c0.35 1.39 0.19 2.81-0.37 3.15-1.92 1.19-1.07 2.61 0.93 1.54 2.72-1.46 4.07-1.29 4.07 0.5 0 1.08 0.82 1.45 2.75 1.25l2.75-0.29 1.2 8.43c1.36 9.59 1.39 9.46-3.17 11.62-4.57 2.17-5.19 4.28-2.1 7.15l2.51 2.33-1.13 2.49c-0.86 1.88-0.85 3.06 0.02 4.74 0.64 1.23 1.09 4.26 0.99 6.74-0.09 2.48 0.19 6.64 0.64 9.25 0.5 2.94 0.45 4.75-0.15 4.75-1.31 0-3.28-11.74-2.63-15.68 0.34-2.03-0.05-4.01-1.06-5.45l-1.58-2.26 1.67-1.85 1.68-1.85-2.7-2.49c-1.48-1.38-2.69-2.83-2.69-3.24 0-1.75 3.16-5.01 6.03-6.19 2.41-1 3-1.76 2.61-3.39-0.27-1.16-0.8-4.68-1.18-7.84l-0.69-5.74-2.38 0.6c-1.8 0.45-2.39 0.19-2.39-1.06v-1.65l-3.5 0.66c-3.47 0.65-5.16-1.43-2.5-3.07 0.56-0.34 0.73-1.72 0.4-3.06-0.34-1.34-0.33-3.17 0.01-4.07l0.63-1.64 1.73 1.38c0.95 0.77 2.8 1.99 4.11 2.73l2.39 1.34 0.9-1.34c2.28-3.4 2.69-4.67 2.16-6.68-0.32-1.25-1.36-2.16-2.45-2.16-1.03 0-1.88-0.47-1.88-1.03 0-0.57-1.55-1.95-3.45-3.08-2.57-1.51-3.46-2.72-3.47-4.71 0-1.47-0.14-5.16-0.29-8.18l-0.29-5.5 2.37-0.33c3.42-0.49 4.34 0.94 3.02 4.72-0.84 2.41-0.85 3.55-0.01 4.39 0.61 0.61 1.12 2.14 1.12 3.38 0 2.25 7.09 5.58 8.63 4.05 1.72-1.73-0.83-7.89-3.69-8.88-3.27-1.14-3.8-3.54-1.55-7.12l1.39-2.21-1.1-6.36-1.1-6.35 1.73-3.02c1.35-2.34 1.47-3.32 0.56-4.42-0.9-1.09-0.87-1.99 0.14-3.88 1.84-3.42-0.02-7.47-3.43-7.47-2.88 0-5.58-3.34-5.58-6.89 0-1.35-0.71-3.24-1.58-4.2-1.24-1.37-1.34-2.19-0.46-3.83 1.5-2.8 0.43-2.62-3.86 0.67-15.56 11.91-27.38 13.99-32.96 5.78-2.61-3.84-2.61-4.03 0.3-21.22 2.36-14 1.04-15.95-3.3-4.87-6.5 16.61-18.41 29.84-29.34 32.59-3.5 0.88-4.46 1.54-4.13 2.83 0.51 1.95-3.73 9.98-6.67 12.64-2.28 2.06-2.55 4.65-0.78 7.48l1.21 1.94-2.39 3.23c-1.55 2.1-1.97 3.37-1.21 3.63 1.68 0.56 1.44 4.87-0.42 7.71-1.81 2.76-1.17 4.51 1.64 4.51 4.46 0 8.23 9.46 4.45 11.18-1.38 0.63-2.51 1.63-2.51 2.23-0.01 0.6-0.27 2.04-0.59 3.21-0.45 1.67-0.02 2.26 2.02 2.77l2.58 0.65v4.42c0 3.38-0.5 4.78-2.13 5.92-1.32 0.92-1.9 2.1-1.52 3.08l0.6 1.59 2.03-1.27c2.6-1.62 5.57 0.06 5.4 3.05-0.08 1.57 0.42 2.04 2 1.88 1.65-0.16 2.19 0.42 2.45 2.65l0.32 2.86 3.05-0.61c1.68-0.34 3.81-0.61 4.74-0.61 4.14 0 6.17-9.22 2.56-11.59-1.38-0.9-2.5-2.43-2.5-3.4s-1-2.43-2.23-3.24l-2.22-1.48 1.22-2.69 1.22-2.68-1.62-2.49-1.63-2.48 1.63-1.8c1.99-2.21 2.06-4.08 0.25-6.68-1.75-2.5-1.77-7.22-0.06-10.56 0.96-1.87 1.17-5.11 0.77-11.5l-0.56-8.91 2.61-2.42c1.44-1.34 2.62-3.22 2.62-4.2 0-0.97 0.45-2.04 1-2.38s1-2.86 1-5.59v-4.98l3.47-3.46c4.44-4.45 5.96-4.48 5.25-0.12l-0.54 3.34 3.66 0.92c2.66 0.67 3.58 1.39 3.37 2.65-0.18 1.03 0.33 1.74 1.25 1.74 0.87 0 1.54 0.86 1.54 2 0 1.1-0.45 2-1 2s-1 0.88-1 1.96c0 2.19-2.75 4.04-5.98 4.04-1.44 0-2.02 0.54-1.81 1.73 0.2 1.18-0.72 2.06-2.91 2.78-4.11 1.36-4.84 2.14-3.5 3.75 0.69 0.83 0.75 1.84 0.16 2.77-1.79 2.83-1.14 4.45 1 2.5 1.08-0.97 2.64-1.51 3.47-1.2 0.9 0.35 2.32-0.47 3.59-2.08 2.61-3.32 5.32-2.13 5.79 2.53 0.24 2.39-0.22 3.36-2 4.3-1.27 0.67-2.67 1.82-3.11 2.57-0.44 0.74-1.9 1.35-3.25 1.35-2.57 0-3.23 1.82-1.34 3.71 0.81 0.81 0.4 1.56-1.5 2.81-3.02 1.98-3.23 3.14-1.03 5.57 1.22 1.35 1.33 2.2 0.5 3.76-1.41 2.64-1.38 6.15 0.04 6.15 0.72 0 0.91 1.09 0.53 3-0.45 2.27-0.23 3 0.91 3 2.12 0 2.8 2.45 1.4 5.07l-1.19 2.22 1.62 0.91c1.12 0.62 1.43 1.66 1.01 3.34-0.43 1.72-0.14 2.62 0.99 3.06 2.07 0.79 2.1 5.56 0.05 9.52-1.16 2.24-1.28 3.37-0.46 4.36 0.61 0.73 0.84 2.39 0.52 3.68l-0.59 2.35 3.29 1.89c8.06 4.62 9.58 8.27 5.65 13.58l-2.14 2.9 1.21 2.93 1.22 2.93-1.56 3.72c-1.13 2.7-1.27 4.24-0.53 5.63 1.21 2.27-0.26 2.57-2.04 0.42l-1.24-1.5 1.61-3.4c1.86-3.91 2.06-6.22 0.62-7.11-1.61-0.99-1.16-4.03 1-6.77 3.46-4.4-0.76-12.41-6.78-12.86-6.59-0.49-8.22-1.17-8.22-3.43 0-0.79-0.9-1.44-2-1.44-1.47 0-2-0.67-2-2.53 0-3.02-2.05-4.05-4.96-2.49-3.03 1.62-6.21 0.37-5.84-2.31l0.3-2.17-3.31-0.32-3.32-0.32 0.64-2.93c0.41-1.83 0.24-2.93-0.43-2.93-0.59 0-1.08 1.24-1.08 2.76 0 1.68-0.78 3.25-2 4.01-1.1 0.68-2 2.14-2 3.24v1.99h3.5c2.29 0 3.5 0.47 3.5 1.36 0 1.01 1.44 1.31 5.56 1.17l5.56-0.19-0.31 3.08-0.31 3.08 4.36 0.31c3.32 0.24 4.48 0.78 4.87 2.25 0.31 1.22 1.37 1.94 2.82 1.94 2.28 0 9.33 3.87 9.41 5.17 0.02 0.37-1.16 2.11-2.64 3.86l-2.67 3.18 1.17 1.88c1.68 2.68 1.47 4.34-0.82 6.41-2.51 2.27-2.5 3 0.08 5.58 2.93 2.93 1.46 3.77-1.58 0.92-3.07-2.88-3.1-3.73-0.29-6.73l2.22-2.35-1.22-1.95c-1.73-2.78-1.54-3.79 1.39-7.27l2.59-3.08-1.95-0.73c-1.08-0.4-2.24-1.44-2.57-2.31-0.59-1.52-5.66-2.26-6.92-0.99-0.32 0.32-0.11 1.95 0.47 3.62 0.83 2.37 0.69 4.25-0.65 8.48-1.33 4.23-1.45 5.75-0.53 6.86 1.38 1.66 0.44 8.45-1.16 8.45-0.62 0-0.79-1.15-0.42-2.83 0.34-1.55 0.16-4.03-0.4-5.51-0.76-2.01-0.63-3.84 0.5-7.19 1.17-3.43 1.29-5.36 0.51-8.17-0.7-2.53-0.68-4.06 0.05-4.94 1.69-2.04 0.06-3.36-4.18-3.36-3.86 0-4.36-0.49-4.03-4.03 0.11-1.16-1.03-1.58-4.63-1.74-3.08-0.13-5.21-0.79-5.98-1.84-0.72-0.98-1.88-1.38-2.88-1-4.03 1.55-5.87-3.96-2.41-7.19l2.01-1.87-2.01-1.82c-2.57-2.32-2.57-5.14-0.01-6.51 1.49-0.8 2-2.09 2-5.06v-3.99l-2.61-0.99c-2.06-0.79-2.49-1.47-2.02-3.23 0.33-1.23 0.61-3.02 0.62-3.98 0-0.96 0.57-1.76 1.26-1.77 0.69 0 1.88-0.41 2.66-0.9l1.41-0.89-1.7-3.59c-1.04-2.18-2.65-3.82-4.12-4.19-4.19-1.05-4.83-2.8-2.57-7.02l2.03-3.78-1.57-1.73-1.56-1.73 2.3-3.11 2.3-3.12-1.21-1.94c-1.8-2.88-1.49-5.43 0.92-7.58 1.17-1.04 2.76-3.25 3.51-4.9 0.76-1.65 1.93-3.78 2.59-4.72 1.56-2.22 0.33-3.36-4.39-4.07l-3.65-0.55-0.66 3.17c-0.36 1.74-0.64 4.58-0.61 6.31 0.03 1.72-0.62 3.69-1.44 4.37-1.75 1.45-1.94 4.14-0.4 5.68 0.78 0.78 0.63 1.95-0.52 4.18-1.27 2.45-1.36 3.49-0.43 4.98s0.83 2.35-0.49 4.23c-2.068 2.96-2.117 6.75-0.11 8.96l1.54 1.7-1.27 2.77-1.262 2.78 2.222 1.48c2.67 1.77 2.8 3.46 0.54 7.29l-1.69 2.86 1.69 1.87c0.93 1.03 1.69 3.43 1.69 5.34s0.46 3.93 1.02 4.49c0.69 0.69 0.7 3.27 0.05 7.88-0.53 3.77-0.74 7.23-0.46 7.69 1.14 1.83-0.81 4.48-4.19 5.7l-3.566 1.29-1.395-1.84-1.395-1.84-0.032 1.53c-0.043 2.04 3.496 4.97 5.998 4.97 1.18 0 2.49 1.04 3.15 2.5 0.63 1.38 1.75 2.5 2.51 2.5 0.75 0 1.79 1.14 2.32 2.53 0.53 1.38 1.62 2.78 2.43 3.09 4.55 1.74 8.95 15.38 4.96 15.38-0.8 0-1.72 0.68-2.04 1.5-0.84 2.19-2.03 1.86-4.92-1.39-1.75-1.96-3.21-2.72-4.55-2.37-2.51 0.66-2.06 3.61 0.62 4.11 4.29 0.79 6.39 5.15 2.49 5.15-1.11 0-2-0.67-2-1.5 0-0.82-0.69-1.5-1.52-1.5-1.67 0-3.743-4.41-3.25-6.92 0.2-1.03 1.17-1.48 2.79-1.29l2.48 0.28-0.07-6.78c-0.1-8.86-0.18-9.29-1.81-9.29-0.76 0-1.62-0.9-1.91-1.99-0.29-1.1-1.35-2.26-2.365-2.58s-2.633-1-3.595-1.51l-1.75-0.94v2.44c0 2.28 0.573 3.1 4.465 6.37 2.295 1.93 2.005 7.27-0.432 7.91-2.773 0.73-3.575 4.04-1.525 6.31l1.688 1.86-1.169 3.55c-0.643 1.95-0.886 4-0.539 4.56 0.346 0.56 0.095 1.02-0.559 1.02-0.828 0-1.024-1.44-0.645-4.75 0.4-3.5 0.13-5.21-1.029-6.5-1.931-2.16-0.471-6.23 2.581-7.2 2.634-0.83 1.771-4.22-1.975-7.74-1.574-1.49-2.861-3.62-2.861-4.75 0-1.12-0.9-2.61-2-3.29-2.095-1.31-2.717-5.21-1-6.27 0.55-0.34 1-1.72 1-3.06s0.9-3.34 2-4.44c2.411-2.41 2.507-3.78 0.428-6.08l-1.572-1.74 1.021-3.7c0.789-2.86 0.675-4.56-0.507-7.51-0.841-2.1-1.38-4.86-1.199-6.14 0.451-3.17 3.622-3.66 4.208-0.65 2.345 12.07 2.992 14.61 4.215 16.53 0.773 1.22 1.416 3.7 1.426 5.5 0.01 3.17 1.43 6.73 2.29 5.76 1.02-1.16 1.62-11.9 0.69-12.47-0.55-0.34-1-2.24-1-4.23 0-2-0.76-4.45-1.7-5.49l-1.701-1.88 1.861-3.46 1.87-3.46-2.331-2.48-2.329-2.48 1.098-2.41c0.847-1.86 0.777-2.83-0.303-4.26-1.856-2.45-1.827-6.39 0.066-9.09 1.201-1.71 1.282-2.59 0.377-4.04-0.909-1.45-0.791-2.55 0.554-5.15 1.228-2.37 1.408-3.6 0.628-4.38-1.542-1.54-1.35-4.23 0.4-5.68 0.82-0.68 1.48-2.65 1.47-4.37-0.01-1.73 0.1-4.49 0.26-6.14l0.28-3-6-3.01c-7.209-3.63-7.282-4.31-1.85-17.31l1.388-3.33-1.275-2.66c-0.937-1.95-2.278-2.82-5.07-3.27-4.672-0.76-6.615-2.4-4.893-4.12 0.66-0.66 1.2-2.22 1.2-3.46 0-1.25 0.9-2.75 2-3.34 1.17-0.63 2-2.09 2-3.54 0-3.3 2.607-3.21 6.185 0.22 1.537 1.47 3.104 2.36 3.483 1.99 0.672-0.67 2.172-16.67 1.562-16.67-0.16 0-1.297 0.65-2.515 1.44-3.494 2.27-16.633 6.81-23.215 8.02l-6 1.1-1.909 3.88-1.909 3.88 1.245 3.09c2.033 5.05 2.358 6.59 1.391 6.59-1.377 0-3.318-6.13-3.318-10.47v-3.84l3.957-3.65c2.838-2.62 3.809-4.22 3.433-5.66-0.381-1.46 0.172-2.32 2.043-3.17 2.532-1.15 3.408-3.57 1.68-4.64-0.961-0.59-2.921 1.42-4.574 4.71-1.952 3.88-3.372 3.09-3.372-1.86 0-2.58-0.598-5.27-1.334-5.99l-1.333-1.31-1.917 1.42-1.917 1.42 1.914 3.56 1.914 3.55-1.644 2.87c-1.188 2.07-1.342 3.17-0.554 3.96 0.787 0.78 0.481 1.91-1.103 4.05-2.453 3.32-2.793 6.05-0.978 7.86 1.541 1.55 3.03 11.88 2.836 19.69-0.363 14.6-0.284 17.37 0.676 23.5 1.15 7.35 0.727 8.37-4.397 10.51-2.217 0.92-3.33 2.06-3.33 3.41 0 1.44-0.93 2.26-3.25 2.86l-3.25 0.84-0.305 3.59c-0.238 2.81 0.191 3.95 1.956 5.18l2.26 1.59-1.288 3.56-1.288 3.56 1.605 2.45c0.884 1.35 1.977 2.45 2.43 2.45 3.045 0 8.962 16.06 6.63 18-2.128 1.77-1.858 6.37 0.5 8.5 2.799 2.53 2.518 4.05-1.5 8.07-3.971 3.97-4.578 7.78-1.5 9.43 1.1 0.59 2 1.63 2 2.31 0 0.69 0.938 2.05 2.083 3.03 1.373 1.17 1.841 2.36 1.372 3.47-0.392 0.93-0.932 2.7-1.2 3.94l-0.488 2.25h3.069c3.891 0 8.164 1.92 8.164 3.66 0 0.74 0.83 1.34 1.845 1.34s2.652 0.89 3.638 1.98l1.793 1.98-1.237 1.49-1.238 1.49 1.644 1.65c2.152 2.15 1.476 3.89-1.537 3.97-10.689 0.27-16.448 4.46-7.988 5.81 2.181 0.35 4.238 1.08 4.572 1.62 0.641 1.03-4.157 0.39-8.242-1.11-4.596-1.69-2.264-5.88 3.273-5.88 1.297 0 2.664-0.49 3.036-1.1 0.373-0.6 1.975-0.9 3.559-0.67 3.319 0.49 3.51 0.12 1.244-2.38l-1.638-1.81 1.26-1.52c1.683-2.03-0.306-4.52-3.606-4.52-1.464 0-2.378-0.59-2.378-1.52 0-1.94-4.426-3.66-7.46-2.9-3.209 0.8-4.029-1.07-2.499-5.7l1.291-3.92-1.542-1.23c-0.848-0.68-2.012-2.12-2.587-3.22l-1.046-1.98-0.72 2.87c-0.523 2.08-0.305 3.09 0.801 3.71 1.141 0.64 1.394 1.98 1.013 5.36l-0.508 4.5 2.379 1.98c1.308 1.09 3.117 2 4.021 2.02 2.444 0.05 3.154 3.04 1.226 5.17-0.996 1.1-1.209 1.86-0.524 1.86 2.544 0 1.01 3.08-1.815 3.64-3.209 0.65-4.966 3.82-3.129 5.66 1.448 1.45 1.407 3.7-0.068 3.7-0.641 0-0.882-0.28-0.535-0.63s0.159-1.52-0.418-2.59c-1.689-3.16-0.268-6.78 2.658-6.78h2.5l-0.6-2.39c-0.33-1.32-0.114-2.69 0.481-3.06 1.757-1.09 1.313-3.85-0.507-3.15-0.975 0.37-2.292-0.26-3.414-1.65-2.222-2.74-3.399-1.94-2.114 1.44 1.098 2.89 0.303 4.53-2.99 6.18-2.711 1.35-3.714 4.51-1.807 5.68l1.284 0.8-1.308 1.57c-0.719 0.87-2.364 1.58-3.654 1.58-1.675 0-2.181 0.43-1.771 1.5 0.317 0.82 0.13 1.5-0.414 1.5-1.335 0-2.376-4.25-1.304-5.32 0.472-0.47 1.155-0.37 1.526 0.23 0.823 1.33 4.554 1.45 4.554 0.15 0-0.52-0.45-1.22-1-1.56-2.158-1.33-0.922-4.61 2.5-6.63 1.925-1.14 3.5-2.66 3.5-3.39 0-2.66-1.333-4.66-3.723-5.56l-2.45-0.94 0.685-4.05 0.685-4.06-3.501 0.66-3.502 0.66-0.701-2.21c-0.479-1.51-0.037-3.11 1.403-5.05 2.624-3.55 2.643-3.35-0.588-6.35l-2.693-2.49 1.344-2.51 1.344-2.51-2.402-1.97c-2.915-2.38-1.872-3.82 3.091-4.28 2.475-0.23 3.596-0.87 3.849-2.2l0.357-1.89-2.674 0.67-2.673 0.68 0.325-2.29c0.178-1.26-0.491-3.11-1.487-4.1-3.438-3.44-1.153-6.13 3.561-4.19l1.75 0.71v-4.27c0-2.44-0.659-5.01-1.531-5.97-0.842-0.93-1.732-2.74-1.978-4.02-0.246-1.27-1.834-3.58-3.529-5.13-1.876-1.72-2.789-3.29-2.332-4.03 0.413-0.67 0.653-2.66 0.534-4.43-0.235-3.49 1.348-5.25 3.123-3.47 1.791 1.79 2.713 1.29 2.713-1.46 0-3.67 1.573-6.11 4.407-6.82 1.353-0.34 2.758-1.55 3.123-2.7 0.364-1.15 2.164-2.72 3.998-3.49 5.47-2.28 5.87-9.81 0.589-11.08-1.439-0.35-3.87-1.51-5.402-2.58-2.121-1.48-3.11-1.68-4.144-0.82-3.086 2.56-6.556-4.68-4.74-9.89l1.04-2.98-2.686-1.97-2.685-1.96 3.365-6.16c2.525-4.62 3.143-6.65 2.477-8.14l-0.886-1.99-2.652 2.09c-4.296 3.38-13.406 15.36-12.029 15.82 2.02 0.67 1.392 3.89-1.408 7.22l-2.632 3.12 2.132 1.99c2.375 2.21 2.749 4.89 0.937 6.71-1.737 1.73-1.767 20.4-0.031 19.73 0.7-0.26 2.172 0.42 3.273 1.52l2 2-1.116 2.08c-0.806 1.51-0.813 2.39-0.023 3.18 1.8 1.8 1.24 5.47-1.083 7.1l-2.175 1.52 1.157 2.54 1.157 2.54-1.811 2.98c-2.24 3.68-1.737 8.62 0.948 9.33 1.062 0.27 1.9 1.37 1.9 2.48 0 1.09 0.675 2.25 1.5 2.56 2.208 0.85 1.825 4.18-0.671 5.84-1.343 0.89-1.877 1.91-1.4 2.68 0.594 0.97 1.169 0.89 2.526-0.34 0.97-0.88 2.492-1.31 3.4-0.96 1.808 0.7 2.231 3.94 0.641 4.92-0.552 0.34-0.741 1.67-0.42 2.95 0.419 1.67-0.011 2.74-1.518 3.8l-2.102 1.47 1.555 1.29 1.556 1.29-2.086 2.22-2.085 2.22 2.052 0.54c2.411 0.63 2.679 3.51 0.584 6.28-1.917 2.53-1.898 4.38 0.066 6.55l1.598 1.76-1.2 3.64c-0.661 2-0.979 5.07-0.708 6.82 0.328 2.11-0.174 4.27-1.504 6.46-1.098 1.81-1.766 4.17-1.484 5.25 0.597 2.28-0.812 2.68-1.661 0.46zm80.361-6.47l2.5-1.92-2-3.74c-3.35-6.24-5.65-8.74-6.62-7.2-1.44 2.26-0.97 8.51 0.87 11.74 2.05 3.61 2.02 3.61 5.25 1.12zm96-8.65c0-1.23 1.16-3.14 2.57-4.26 2-1.57 2.76-3.36 3.43-8.12 0.47-3.36 1.84-7.75 3.03-9.77 1.58-2.69 2.01-4.61 1.58-7.2l-0.57-3.53 2.23-1.7 2.23-1.69-1.25-1.26c-1.85-1.85-1.52-5.2 0.64-6.55 1.5-0.94 2.03-2.89 2.57-9.49 0.37-4.57 1.13-9.77 1.68-11.54l1.01-3.24-2.26-4.01-2.25-4 0.97-3.76c0.78-3 0.62-4.47-0.8-7.28l-1.77-3.51 1.15-3.72 1.14-3.73-1.67-1.84c-2.07-2.29-2.08-3.47-0.04-7.41l1.61-3.13-1.86-1.36-1.86-1.36 1.74-3.04c0.96-1.67 1.75-4.49 1.75-6.26s0.51-3.73 1.14-4.36c1.82-1.82-1.53-7.89-4.81-8.71-6.81-1.71-35.25-22.7-46.69-34.47-4.33-4.44-8.15-8.07-8.5-8.06-1.16 0.03-6.82 7.44-9.11 11.92l-2.25 4.41 0.62 5.57c0.39 3.48 0.02 8.77-0.98 14.08-0.87 4.68-1.83 10.55-2.11 13.05l-0.53 4.54 2.7 3.21c4.63 5.49 12.86 4.2 25-3.91 7.02-4.7 9.06-6.89 6.4-6.89-0.7 0-0.85-0.84-0.4-2.25 0.39-1.24 0.79-3.15 0.89-4.25 0.37-4.04 2.61-6.64 5.45-6.31l2.68 0.31 0.32 3.5c0.18 1.92 0.74 3.93 1.25 4.45s0.93 3.31 0.93 6.19 0.49 5.55 1.09 5.92c0.61 0.37 0.89 1.75 0.64 3.06-0.76 3.99 1.22 2.66 3.32-2.23l1.98-4.62 2.18 0.57c1.2 0.32 2.82 0.05 3.6-0.6 1.4-1.16 6.19 2.9 6.19 5.24 0 1.11-2.56 3.7-4.23 4.28-0.94 0.33-0.8 0.98 0.53 2.48l1.79 2.02-1.65 1.66c-1.02 1.02-2.41 1.41-3.65 1.01l-1.99-0.63 0.67 3.08c0.37 1.69 0.31 3.64-0.15 4.35-0.45 0.7-0.92 2.62-1.04 4.27-0.11 1.65-0.31 4.12-0.44 5.5-0.12 1.38-0.14 5.96-0.03 10.18l0.19 7.69 1.89 0.6c1.82 0.57 4.44 5.24 4.01 7.12-0.12 0.5 0.11 1.66 0.52 2.58 0.4 0.92 0.2 2.68-0.46 3.91l-1.2 2.23 2.23 1.68c2.84 2.15 2.3 5.1-1.25 6.81-2.89 1.38-3.46 3.08-1.64 4.9 0.8 0.8 0.54 1.66-0.95 3.15l-2.06 2.06 0.6 8.42c0.73 10.44 0.1 13.09-3.67 15.32l-2.97 1.75 1.98 1.84c2.21 2.07 2.4 3.09 1.01 5.69-0.64 1.2-0.58 2.84 0.19 4.88 0.92 2.42 0.88 3.61-0.16 5.57-0.74 1.37-1.06 3.21-0.72 4.09l0.62 1.61 3.01-2.23c1.8-1.32 3.02-3.13 3.02-4.47zm-151.43-10.73c-0.039-2.94-0.664-6.06-1.389-6.93-1.028-1.24-1.063-2.07-0.158-3.76 0.841-1.57 0.86-2.48 0.07-3.27-0.601-0.6-1.093-2.15-1.093-3.45s-0.427-2.09-0.95-1.77c-0.522 0.32-1.482-0.41-2.133-1.62l-1.183-2.22 2.242-1.81c1.675-1.36 2.083-2.45 1.614-4.32-0.704-2.8-2.081-3.27-2.952-1-0.361 0.94-1.89 1.5-4.107 1.5-3.788 0-4.832 1.85-1.531 2.71 2.11 0.55 2.689 2.75 1 3.79-1.644 1.02-1.136 4.07 1 6 2.375 2.15 2.577 4.78 0.5 6.5-0.825 0.68-1.5 2.27-1.5 3.52v2.27l3.25-0.14 3.25-0.15v3.5c0 3.09 0.846 4.33 4.07 5.96 0.038 0.02 0.038-2.37 0-5.31zm35.446-12.66c1.441-0.77 2.1-0.61 2.835 0.71l0.957 1.71 2.592-1.18c3.27-1.49 3.31-3.63 0.1-6.42-1.814-1.57-2.5-3.17-2.5-5.82 0-2.01-0.338-3.99-0.75-4.4-0.412-0.4-1.246-2.16-1.853-3.91l-1.103-3.18-0.741 3.32c-0.544 2.43-0.317 3.78 0.853 5.08 2.165 2.39 2.004 4.81-0.406 6.1-1.174 0.63-2 2.09-2 3.55 0 1.36-0.521 3.31-1.158 4.33-0.702 1.13-0.83 2.6-0.324 3.74l0.834 1.88 0.394-2.25c0.216-1.24 1.238-2.71 2.27-3.26zm47.304 2.91c0.3-1.16 0.09-3.11-0.47-4.34-0.8-1.74-0.58-2.96 0.98-5.53 2.07-3.4 1.93-5.29-0.6-8.24-0.81-0.94-1.21-2.4-0.89-3.24 0.36-0.92-0.21-1.95-1.45-2.61l-2.03-1.08 1.57-2.4c2-3.05 1.97-3.46-0.26-3.46-2.64 0-3.25-0.98-2.03-3.26 0.77-1.45 0.73-2.62-0.16-4.28-0.95-1.77-0.97-3.06-0.07-5.62l1.15-3.32-1.53-1.12c-2.06-1.51-1.94-5.07 0.22-6.28 1.02-0.58 1.75-2.16 1.75-3.8 0-2.16 0.53-2.89 2.25-3.14 1.24-0.18 2.25-0.96 2.25-1.75s0.81-1.43 1.8-1.43c2.46 0 4.2-1.94 4.2-4.7 0-2.97-1.08-2.91-4.03 0.23-1.3 1.39-2.94 2.31-3.64 2.04-0.7-0.26-1.53-0.05-1.86 0.47-0.32 0.53-1.68 0.96-3.01 0.96h-2.42l0.16-4.75c0.18-5.61 0.98-6.91 4.76-7.74 2.14-0.47 2.71-1.07 2.33-2.5l-0.49-1.87 3.35-0.32 3.35-0.32-0.22-2.14c-0.14-1.4 0.46-2.32 1.75-2.66 2.55-0.66 2.53-2.32-0.03-2.99-1.34-0.35-1.8-1.06-1.4-2.12 0.65-1.67-0.12-1.93-4.85-1.62l-2.76 0.18 1.03-2.71c0.57-1.5 0.84-2.91 0.6-3.15s-0.73 0.49-1.1 1.63c-0.36 1.15-1.3 2.08-2.09 2.08-1.05 0-1.43 1.32-1.43 4.94 0 2.72-0.45 5.22-1 5.56s-1 1.41-1 2.38c0 0.98-1.16 2.86-2.57 4.19l-2.58 2.42 0.22 9.5c0.14 5.81-0.3 11.14-1.11 13.7l-1.34 4.19 1.91 3.55 1.91 3.55-1.67 2.84-1.68 2.84 1.63 1.63 1.63 1.64-1.17 2.58c-1.61 3.53-1.5 4.17 0.82 4.78 1.33 0.35 2 1.36 2 3.05 0 1.65 0.7 2.75 2 3.16 2.57 0.81 3.52 4.65 1.91 7.66-0.69 1.29-1.56 3.99-1.94 6.01l-0.67 3.67 1.85 0.49c1.06 0.28 1.85 1.38 1.85 2.58 0 2.82 3.58 2.81 4.32-0.01zm-81.843-13.07c3.58-1.63 4.326-5.35 1.645-8.2-2.47-2.63-2.774-6.84-0.622-8.63 1.574-1.31 1.915-3.76 0.893-6.42-0.84-2.19-2.393-1.98-2.393 0.31 0 1.04-0.596 2.12-1.325 2.4-0.998 0.39-1.236 2.64-0.965 9.13l0.36 8.62-1.535 0.58c-1.949 0.75-2.013 3.38-0.082 3.38 0.799 0 2.61-0.53 4.024-1.17zm-4.477-16.39c0-3.76 0.396-5.44 1.283-5.44 0.82 0 1.351-1.59 1.474-4.41l0.192-4.41-3.524-3.42c-3.661-3.56-4.123-5.17-2.95-10.32l0.697-3.05-3.81-1.17c-4.007-1.23-7.262-0.01-4.511 1.69l1.333 0.82-1.283 2.06-1.283 2.05 3.191 2.98c1.755 1.64 3.191 3.87 3.191 4.96s0.621 2.49 1.379 3.12c1.752 1.45 2.795 6.56 1.994 9.75l-0.616 2.46-2.879-0.64c-3.44-0.75-4.206 1.95-0.803 2.84l2.075 0.54-1.075 2.01c-1.49 2.78-1.406 2.93 1.425 2.38 1.52-0.29 2.5-0.01 2.5 0.7 0 0.65 0.45 0.9 1 0.56s1-3.07 1-6.06zm38.378-4.19c-0.776-3.24-1.158-3.8-1.998-2.96-0.909 0.91 0.486 5.71 1.658 5.71 0.584 0 0.726-1.14 0.34-2.75zm98.622-22.75c0-1.38-0.45-2.5-1-2.5-1.12 0-1.37 3.3-0.33 4.33 1.1 1.11 1.33 0.79 1.33-1.83zm-180.29-11.87c-0.575-1.73-4.1403-1.34-4.4927 0.49-0.241 1.25 0.2781 1.51 2.2781 1.13 1.4246-0.28 2.4216-1.01 2.2146-1.62zm249.79-0.64c0.35-0.55-0.07-1.27-0.92-1.6-1.19-0.45-1.31-1.03-0.51-2.53l1.04-1.93 3.4 0.64 3.39 0.63-0.2-2.78c-0.16-2.22 0.31-2.9 2.3-3.39 1.57-0.38 2.62-1.43 2.82-2.82 0.35-2.39-0.76-2.87-2.53-1.1-1.46 1.46-3.37 0.25-2.63-1.65 0.31-0.82 0.01-2.15-0.67-2.97l-1.23-1.48 1.73-2.63 1.72-2.63-1.26-2.34-1.25-2.34 1.27-1.53c0.7-0.84 1.01-2.52 0.69-3.73-0.74-2.82 0.86-4.75 3.38-4.09 1.08 0.28 1.96 0.01 1.96-0.6 0-0.62-0.87-1.12-1.94-1.12-2.7 0-3.7-2.06-1.71-3.51 2.37-1.74 2.04-2.39-1.1-2.18l-2.75 0.19-0.5-4.5c-0.34-3.1-0.72-3.96-1.22-2.75-0.4 0.99-1.77 1.75-3.13 1.75-1.61 0-2.6 0.7-2.96 2.09l-0.55 2.09 2.32-0.58c3.69-0.93 7.3 9.28 4.69 13.25-0.54 0.82-0.47 2.5 0.18 4.22l1.08 2.86-2.37 2.53-2.37 2.52 1.67 1.84c1.77 1.96 2.01 4.42 1.02 10.43l-0.62 3.75h-2.87c-1.58 0-2.9 0.34-2.93 0.75s-0.19 2.44-0.34 4.5l-0.29 3.75h1.79c0.98 0 2.06-0.45 2.4-1.01zm40.88-3.07l2.65-2.09-0.27-5.41c-0.31-6.37-0.17-6.28-3.54-2.27-1.95 2.32-2.65 4.28-2.68 7.5-0.05 4.97 0.21 5.12 3.84 2.27zm-240.13-22.03c-0.513-1.98-1.652-3.54-2.807-3.86-7.866-2.15-10.078-7.81-6.55-16.76l1.895-4.81-1.895-2.34c-2.431-3-2.387-5.11 0.238-11.21l2.134-4.96-1.682-1.86c-1.174-1.29-1.475-2.68-0.998-4.58l0.685-2.73-3.386 0.6c-1.862 0.33-2.824 0.34-2.136 0.02 0.753-0.34 1.25-2.52 1.25-5.48v-4.91l-2.25 0.42c-1.238 0.23-2.475 0.47-2.75 0.53s0.175 0.65 1 1.32c1.024 0.83 1.568 3.4 1.713 8.08 0.147 4.75 0.677 7.22 1.721 8l1.509 1.14-1.964 4.34-1.964 4.34 1.493 2.13c2.177 3.11 1.842 6.27-1.258 11.83l-2.75 4.94 2.33 1.77 2.33 1.78-0.69 3.68c-0.38 2.02-0.396 4.85-0.037 6.28l0.654 2.6 2.574-0.64c1.707-0.43 3.172-0.11 4.349 0.96 1.625 1.47 7.071 3.53 7.797 2.95 0.169-0.13-0.081-1.74-0.555-3.57zm255.75 0.2c0-0.46-0.28-2.26-0.63-4l-0.63-3.16-1.87 1.69c-1.79 1.62-2.56 6.36-1.24 7.68 0.78 0.77 4.37-1.05 4.37-2.21zm-258.41-5.86c0.6-0.4 1.897-3.74 2.883-7.42l1.792-6.69-1.633-4.08c-0.897-2.24-1.646-5.76-1.664-7.81-0.03-3.58-1.797-7.23-3.5-7.23-3.907 0-5.848 7.82-2.783 11.2l1.686 1.87-1.691 4.71c-3.241 9.05-0.127 18.85 4.91 15.45zm256.5-10.54c-0.79-0.79-1.09-0.53-1.09 0.94 0 2.65 1.4 4.05 1.84 1.85 0.19-0.93-0.14-2.18-0.75-2.79zm-310.41-0.88c-0.3192-0.8-0.5562-0.56-0.6042 0.61-0.0434 1.05 0.193 1.64 0.5253 1.31s0.3678-1.2 0.0789-1.92zm2.2577-14.81l-0.0286-3.5-1.4015 3.93c-0.7708 2.17-1.1448 4.35-0.8311 4.86 0.9556 1.55 2.2915-1.58 2.2612-5.29zm90.798-0.85l1.013-5.35-3.626-3.34-3.626-3.33-0.316 2.43c-0.175 1.34-1.187 2.91-2.25 3.48-1.064 0.56-1.934 1.89-1.934 2.94 0 1.04-0.518 2.22-1.151 2.61-1.592 0.99 1.846 3.41 4.834 3.41 1.265 0 2.855 0.89 3.533 1.98 1.615 2.58 2.298 1.64 3.523-4.83zm168.51-2.54c2.14-1.63 2.28-3.61 0.25-3.61-1.74 0-2.01-3.09-0.41-4.69 0.78-0.78 0.78-1.27 0-1.76-0.62-0.38-1.51 0.43-2.07 1.89-0.53 1.41-1.74 2.56-2.69 2.56h-1.71l1.84 1.35c1.02 0.74 1.53 1.86 1.13 2.5-1.63 2.64 0.9 3.86 3.66 1.76zm-239.22-27.16l1.363-2.55-1.194-4.46c-0.657-2.46-1.195-5.58-1.195-6.94s-0.545-4.51-1.212-7l-1.211-4.53 2.577-2.58 2.577-2.58-2.261-4.65c-1.754-3.62-1.956-4.73-0.903-4.98 0.952-0.22 1.174-1.23 0.743-3.38l-0.613-3.06 2.387-1.8c1.312-0.99 2.058-2.13 1.657-2.53s-1.554 0.02-2.564 0.93c-2.467 2.23-4.177 2.09-4.177-0.34 0-1.1-0.499-2-1.108-2-0.676 0-0.87 0.95-0.497 2.44 0.337 1.34 0.134 2.73-0.451 3.09-0.703 0.44-0.57 1.05 0.392 1.82 1.135 0.9 1.292 2.36 0.711 6.62-0.41 3.01-0.517 6.34-0.238 7.41l0.506 1.93-3.343-0.67-3.343-0.66 2.26 2.4c1.639 1.75 1.928 2.61 1.05 3.16-0.86 0.53-0.544 1.25 1.092 2.48 1.62 1.23 2.293 2.74 2.272 5.11-0.017 1.85 0.303 3.82 0.71 4.37 1.338 1.81 2.182 12.26 1.047 12.96-1.492 0.93-1.32 2.54 0.271 2.54 0.732 0 1.945-1.15 2.695-2.55zm366.27-63.93c18.3-5.55 24.36-13.03 21.25-26.23-0.96-4.07-1.83-10.86-1.94-15.09-0.1-4.24-0.79-8.78-1.52-10.11-1.79-3.24-0.87-9.94 2.48-18.09 1.94-4.74 2.63-8.06 2.52-12.25-0.17-6.81 1.43-7.72 2.16-1.22 0.4 3.55-0.22 6.46-2.87 13.51-6.07 16.13-3.92 22.72 6.07 18.54 5.23-2.18 6.49-5.04 7.55-17.12 0.53-5.95 1.47-11.3 2.1-11.89 0.85-0.8 0.99-0.17 0.56 2.43-1.09 6.55-1.9 20-1.21 20 2.82 0 20.55-16.33 20.55-18.93 0-0.59 0.44-1.07 0.97-1.07s0.71 0.68 0.39 1.5c-1.29 3.36 3.27 1.26 7.84-3.61 5.9-6.29 5.95-6.87 0.43-5.61-5.87 1.34-9.21 0.33-11.76-3.55-1.16-1.78-3.52-3.94-5.24-4.81-3.67-1.86-7.66-7.32-7.55-10.32 0.05-1.39 0.75-0.54 2.07 2.52 2.07 4.79 6.77 8.59 7.6 6.13 0.44-1.32 2.36-1.78 2.09-0.5-1.36 6.44 9.57 11.83 15.76 7.78 1.28-0.84 3.15-1.53 4.14-1.53 3.07 0 6.15-2.89 7.35-6.9l1.15-3.83-1.69-6.73c-0.93-3.7-1.43-7-1.1-7.32 1.29-1.3 2.66 1.76 3 6.69 0.45 6.64 1.55 7.91 1.55 1.8 0-10.885-6.27-21.733-14.9-25.794l-4.6-2.165-7.59 0.519c-5 0.342-9.77 1.431-14 3.2-3.52 1.476-8.87 3.362-11.87 4.193-14.75 4.078-26.16 11.547-32.62 21.347-5.16 7.84-5.2 8.1-1.92 12.4l2.5 3.28-0.02 5.9c-0.03 6.68-2.78 14.36-7.81 21.81l-3.17 4.7v7.1c0 4.71-1.04 11.11-3.09 18.99l-3.09 11.88 1.56 2.22c6.9 9.76 8.71 12.56 9.71 14.96 0.64 1.51 1.21 2.75 1.28 2.74s2.29-0.67 4.93-1.47zm66.7-100.52c0-0.55 0.48-1 1.06-1s0.78 0.45 0.44 1-0.82 1-1.06 1-0.44-0.45-0.44-1zm-18.64-7.5c-0.77-2 0.37-4.79 1.63-4 1.33 0.81 1.31 5.5-0.02 5.5-0.57 0-1.29-0.68-1.61-1.5zm4.64 0.45c0-1.32 2.88-6.95 3.55-6.95 0.28 0-0.2 1.36-1.07 3.03-0.86 1.67-1.29 3.47-0.96 4s0.12 0.97-0.46 0.97-1.06-0.47-1.06-1.05zm-68.65 75.05c4.86-19.16 3.7-25.44-3.78-20.35-2.31 1.56-5.57 2.75-7.98 2.91-5.63 0.36-13.87 1.38-14.25 1.76-0.17 0.18 1.93 3.1 4.67 6.5 2.75 3.41 4.99 6.47 4.99 6.82s1.01 1.61 2.25 2.82c1.24 1.2 3.99 4.33 6.12 6.94 4.66 5.74 4.64 5.76 7.98-7.4zm115.07-49.28c1.33-3.75-1.63-9.71-7.59-15.28l-4.86-4.55-1.36 1.36c-1.72 1.72-3.12 7.75-1.8 7.75 0.53 0 3.53 3.17 6.66 7.05 5.97 7.39 7.43 7.99 8.95 3.67zm-107.55-77.154c1.53-0.789 3.36-2.142 4.08-3.007l1.31-1.573-2.69-4.057c-3.2-4.843-4.86-4.652-5.67 0.652-0.33 2.156-0.94 5.157-1.36 6.669-0.87 3.178 0.14 3.486 4.33 1.316zm-264.87-41.566l1.5-0.969-2.19-0.016c-1.21-0.008-2.47 0.435-2.81 0.985-0.79 1.273 1.53 1.273 3.5 0zm29.88 0.093c2.09-1.318-4.15-2.432-8.13-1.453l-3.25 0.799 4.5 0.63c2.48 0.347 4.72 0.691 5 0.765 0.28 0.075 1.12-0.259 1.88-0.741zm89.21-1.016c-0.77-0.49-2.01-0.66-2.75-0.377-2.11 0.811-1.58 1.301 1.41 1.285 2-0.011 2.37-0.258 1.34-0.908zm-158.42 458.25c-1.715-1.71-0.586-4.33 1.868-4.33h2.535l-1.059-1.98c-0.583-1.09-0.776-3.11-0.43-4.49 0.978-3.89-2.542-12.4-6.328-15.29-3.689-2.81-4.378-6.24-1.253-6.24 1.43 0 2-0.67 2-2.34 0-1.48 0.857-2.73 2.341-3.41l2.34-1.06-0.46-3.14c-0.307-2.09 0.121-3.77 1.284-5.06 2.07-2.28 2.287-7.76 0.672-16.99-0.625-3.58-1.218-9.65-1.317-13.5-0.102-3.97-0.362-5.49-0.601-3.51-0.232 1.92-0.823 3.74-1.313 4.04-0.515 0.32-0.45 2.86 0.156 6.01 0.575 3 1.289 9.02 1.585 13.36l0.538 7.9-1.602-0.61c-1.165-0.45-1.761 0.12-2.182 2.1-2.018 9.45-5.619 13.23-6.929 7.27-0.745-3.4-1.653-3.8-3.512-1.56-1.697 2.04-5 1.92-5-0.19 0-0.92 0.996-2.74 2.214-4.04l2.214-2.35-1.205-1.93c-0.943-1.51-0.937-2.52 0.024-4.63 0.975-2.14 0.973-2.79-0.009-3.11-2.167-0.73-1.337-3.83 1.762-6.59 3.511-3.13 3.833-6.33 1-9.93-2.433-3.1-2.499-4.57-0.34-7.65l1.659-2.37-1.885-1.38-1.884-1.38 1.225-1.96c1.568-2.51 1.559-3.99-0.025-3.98-0.688 0-2.017 1.35-2.953 3-2.63 4.62-5.797 3.51-5.797-2.02 0-1.16-0.843-1.97-2.25-2.17-1.581-0.23-2.179-0.92-2.01-2.32 1.066-8.88 1.942-10.53 6.42-12.09 1.837-0.65 3.228-1.67 3.09-2.29s0.65-2.02 1.75-3.12c2.571-2.57 2.526-5.23-0.182-10.65l-2.181-4.37 2.214-2.99 2.215-3-1.153-2.15c-1.457-2.73-2.226-20.84-0.885-20.84 0.907 0 1.214 2.83 1.518 14 0.187 6.88 1.287 9.26 3.976 8.58 3.001-0.75 5.258 1.78 3.488 3.91l-1.235 1.49 1.362 0.37c6.279 1.73 7.387 2.36 7.674 4.35 0.201 1.41-0.45 2.57-1.857 3.32-1.691 0.91-2.044 1.78-1.608 3.96 0.401 2.01 0.007 3.3-1.393 4.56-1.192 1.08-1.953 3.07-1.953 5.1v3.32l-2.75 0.62c-1.512 0.35-4.1 0.95-5.75 1.35l-3 0.71v2.93 2.93l-2.75-0.19c-2.726-0.18-3.674 1-1.75 2.19 0.55 0.34 1 1.72 1 3.06 0 3.14 1.725 3.14 3.157 0 1.413-3.11 3.79-4.04 5.618-2.21 1.131 1.13 1.18 1.86 0.244 3.62l-1.177 2.19 1.696 1.24 1.697 1.24-1.618 3.13c-2.01 3.89-2.039 5.64-0.117 7.23 2.669 2.22 1.933 9.08-1.25 11.64l-2.75 2.22 1.273 2.09c0.964 1.59 1 2.61 0.148 4.2-0.848 1.58-0.819 2.67 0.115 4.42l1.24 2.31-2.679 3.19c-3.219 3.82-2.594 5.22 0.878 1.95l2.466-2.31 1.53 1.27c0.841 0.69 1.529 2.11 1.529 3.14 0 3.94 1.911 1.64 3.12-3.76 0.879-3.93 1.813-5.79 3.071-6.12 2.263-0.59 2.421-5.75 0.393-12.81-0.779-2.71-1.708-6.78-2.065-9.05l-0.65-4.12 1.693-0.65 1.693-0.65-0.688-7.88c-0.706-8.1 0.08-10.42 2.533-7.46 0.901 1.09 1.382 5.18 1.499 12.74 0.095 6.13 0.723 14.29 1.396 18.14 1.629 9.32 1.384 13.46-0.992 16.69-1.413 1.93-1.803 3.56-1.367 5.74l0.609 3.04-2.35 0.87c-1.538 0.57-2.357 1.68-2.372 3.22-0.016 1.66-0.749 2.52-2.523 2.95l-2.5 0.6 3.67 3.44c4.599 4.32 6.792 9.61 7.325 17.67l0.415 6.28h-1.896c-2.658 0-3.399 1.68-1.285 2.91l1.771 1.03-1.583 0.03c-0.871 0.02-1.884-0.27-2.25-0.64zm1.995-92.58c-0.277-0.69-0.504-0.13-0.504 1.25s0.227 1.94 0.504 1.25c0.278-0.69 0.278-1.81 0-2.5zm-21.246-6.89c1.108 1.8 2.777 1.33 2.174-0.61-0.997-3.2 5.32-7.61 9.388-6.55 2.071 0.55 2.405-0.15 2.074-4.35-0.096-1.23 0.776-2.82 2.022-3.69 1.591-1.11 2.028-2.16 1.592-3.83-0.431-1.65 0.137-3.06 2.02-5.02l2.619-2.74-1.227-1.48c-0.675-0.81-2.656-1.61-4.402-1.78l-3.176-0.31v-3c0-3.28-1.251-3.49-5.25-0.91-2.778 1.8-2.854 4.37-0.254 8.64 2.552 4.18 2.553 8.32 0.004 10.5-1.1 0.94-2 2.46-2 3.38 0 1.1-1.149 1.88-3.403 2.31-3.225 0.6-4.699 2.2-5.16 5.58-0.113 0.82-0.518 2.85-0.9 4.5l-0.695 3 1.936-2.39c1.286-1.58 2.171-2 2.638-1.25zm55.584 98.59c0-0.85 1.14-2.54 2.54-3.75l2.53-2.2-0.64-3.17c-0.41-2.01-2.07-4.32-4.54-6.3-2.14-1.72-3.89-3.89-3.88-4.83 0-0.93-1.36-2.82-3.03-4.2-1.94-1.6-3.12-3.56-3.26-5.43l-0.22-2.93 2.5-0.64c1.51-0.39 2.45-1.3 2.36-2.32-0.15-1.8 1.15-2.28 2.08-0.77 0.99 1.6-0.54 3.96-2.77 4.28-3.58 0.51-3.4 4.49 0.29 6.57 1.7 0.96 3.38 2.86 3.72 4.24s2.35 4.12 4.47 6.1l3.85 3.59v3.92c0 2.83-0.55 4.25-2 5.16-1.1 0.68-2 1.92-2 2.74s-0.45 1.49-1 1.49-1-0.7-1-1.55zm41.1-4.68c0.52-4.42 0.33-7.39-0.67-10.25-0.77-2.21-1.41-5.23-1.42-6.71 0-1.48-0.5-2.99-1.09-3.36-0.6-0.37-0.81-1.76-0.47-3.11 0.34-1.34 0.27-2.97-0.15-3.64-0.42-0.66-0.86-3.61-0.99-6.55l-0.23-5.36 1.96-0.51c2.3-0.6 2.64-2.28 0.46-2.28-0.82 0-1.5-0.62-1.5-1.38s-1-2.04-2.21-2.85c-1.74-1.15-2.16-2.29-1.97-5.22 0.14-2.06-0.15-4.27-0.65-4.9-1.58-2.02-2.32-9.76-1.08-11.26 0.88-1.05 0.85-1.75-0.09-2.89l-1.24-1.5 1.33-1.61 1.33-1.61-1.83-1.34c-2.31-1.69-1.45-4.18 1.6-4.61 1.66-0.24 2.4-1.09 2.62-3.01 0.17-1.47 0.98-3.23 1.8-3.91l1.49-1.24 1.65 1.66 1.66 1.65-1.29 3.56c-0.89 2.46-0.97 3.94-0.25 4.8 0.71 0.86 0.64 1.99-0.24 3.7-0.91 1.79-0.97 2.97-0.19 4.31l1.06 1.84-2.25 1.53c-2.56 1.74-2.98 5.06-0.75 5.92 1.05 0.4 1.5 2.03 1.5 5.4v4.83l2.75 0.31 2.75 0.32-0.15 3.25c-0.08 1.79 0.26 3.25 0.75 3.25 1.6 0 0.95 2.64-1.1 4.5-2.58 2.33-2.52 2.88 0.59 6l2.58 2.58-1.69 2.58c-1.29 1.97-1.44 3.09-0.65 4.71 3.22 6.62 3.83 31.62 0.7 28.49-0.32-0.32-0.13-1.77 0.42-3.23 0.69-1.82 0.66-3.39-0.1-5.06s-0.79-3.3-0.09-5.31c0.74-2.14 0.66-3.53-0.34-5.33-0.74-1.33-1.37-3.87-1.38-5.62-0.02-1.76-0.49-3.47-1.04-3.81-1.53-0.95-1.19-4.49 0.5-5.14 2.15-0.82 1.86-2.12-1.09-4.85-1.91-1.78-2.4-2.96-1.89-4.57 0.5-1.59 0.32-2.05-0.67-1.72-1.6 0.53-2.05 9.61-0.57 11.52 0.52 0.69 0.71 2.2 0.4 3.37-0.3 1.17-0.18 2.86 0.27 3.76 3.68 7.35 4.59 26.13 1.26 26.13-0.46 0-0.51-2.8-0.11-6.23zm2.67-40.58c0.6-1.8-1.47-1.42-2.16 0.39-0.38 0.98-0.15 1.43 0.58 1.19 0.65-0.22 1.36-0.93 1.58-1.58zm-0.94-6.03c0.25-1.77-0.1-2.24-1.5-2.01-3.1 0.51-4.33-1.08-4.33-5.59 0-2.62-0.59-4.81-1.5-5.56-2.1-1.74-1.87-3.98 0.69-6.7 1.56-1.66 1.88-2.63 1.1-3.41-0.77-0.77-0.69-1.82 0.28-3.68 0.99-1.92 1.06-2.95 0.24-3.94-0.81-0.97-0.8-2 0.04-3.85 1.41-3.09 1.46-4.42 0.15-4.42-0.55 0-1 0.91-1 2.01 0 1.17-1.26 2.78-2.97 3.82l-2.96 1.81 1.63 1.63 1.63 1.63-1.29 1.55c-1 1.21-1.02 1.87-0.09 2.99 0.84 1.02 0.89 1.99 0.16 3.36-1.11 2.07-0.39 8.91 1.02 9.78 0.48 0.3 0.87 2.76 0.87 5.48 0 3.77 0.36 4.94 1.53 4.94 0.84 0 1.8 0.7 2.13 1.55 0.87 2.27 3.79 1.3 4.17-1.39zm12.36 51.21c-0.57-1.02-0.51-2.72 0.17-4.52 0.83-2.2 0.78-3.39-0.2-4.97-0.85-1.35-1.07-3.46-0.64-6.01 0.49-2.88 0.21-4.63-1.01-6.5l-1.68-2.56 2.08-2.22c2.63-2.8 2.64-4.23 0.03-5.62-3.05-1.64-2.2-5.38 1.31-5.79 2.66-0.3 3.78-2.81 2.05-4.55-0.39-0.39-0.73-1.93-0.75-3.42-0.04-1.94-0.57-2.71-1.87-2.72-1.01 0-2.3-0.86-2.89-1.89l-1.05-1.89 2.38-1.81 2.38-1.8-1.74-1.75-1.73-1.75 2.11-2.25c2.4-2.56 1.89-5.35-0.99-5.35-1.05 0-2.47-0.68-3.17-1.52l-1.26-1.52 1.85-2.04c1.05-1.15 2.63-1.84 3.64-1.58 2.97 0.78 2.34-4.13-0.71-5.52-1.81-0.83-2.5-1.92-2.5-3.98 0-1.86-0.52-2.84-1.5-2.84-1.82 0-1.96-2.11-0.25-3.92l1.25-1.33-1.25-0.46c-1.68-0.61-1.58-2.77 0.19-4.24 1.04-0.87 1.97-0.9 3.44-0.12 4.01 2.15 3.38-4.27-0.74-7.5-2.34-1.83-0.94-4.97 2.07-4.65 7.19 0.75 3.25-4.79-4.48-6.3l-5.23-1.02v-2.48c0-1.9 0.58-2.55 2.52-2.77 1.71-0.2 3.14-1.47 4.5-3.98 3.56-6.62 9.81-7.57 10.13-1.55 0.08 1.55 0.38 3.72 0.67 4.82s0.56 2.17 0.6 2.37c0.05 0.21 0.7-0.14 1.45-0.76 3.07-2.55 6.9 2.46 5.08 6.64-0.41 0.96-0.66 2.53-0.54 3.49 0.13 1.03-0.84 2.22-2.35 2.91-2.86 1.31-3.09 1.92-1.38 3.63 0.9 0.9 0.78 1.61-0.5 3.03-0.93 1.01-1.68 2.9-1.68 4.19s-0.75 3.18-1.68 4.19c-1.28 1.42-1.4 2.13-0.5 3.03 0.65 0.65 1.18 2.66 1.18 4.48s0.5 3.3 1.11 3.3c0.7 0 0.93 1.23 0.62 3.25-0.32 2.06 0.03 3.86 0.96 4.92l1.47 1.66-1.63 2.48c-1.05 1.6-1.39 3.41-0.96 5.1 0.36 1.44 0.27 3.17-0.21 3.85-1.03 1.48-0.82 6.87 0.62 15.74 0.57 3.58 1.04 7.18 1.04 8-0.05 5.96-0.8 13.8-1.46 15.29-0.53 1.18-0.23 2.42 0.89 3.66l1.69 1.87-1.06 3.84c-0.59 2.11-1.07 5.04-1.07 6.5l-0.01 2.65 2-0.52c1.17-0.31 2-0.03 2 0.66 0 0.7 0.76 0.94 1.86 0.59 1.08-0.34 2.4 0.06 3.14 0.96 1.66 2 0.52 3.17-1.48 1.52l-1.52-1.26-1.58 1.3-1.57 1.31-0.81-1.3-0.8-1.3-0.43 1.29c-2 6.02-3.51-4.29-1.75-11.94l1.01-4.39-1.63-1.79-1.62-1.8 1.27-3.52c0.99-2.74 1.01-4.1 0.1-6.11l-1.18-2.59 1.56-2.39c1.2-1.82 1.32-2.87 0.5-4.4-0.59-1.1-1.07-4.03-1.07-6.51 0-2.47-0.43-4.77-0.95-5.09-1.06-0.65-0.84-9.08 0.27-10.18 0.39-0.39 0.42-2.22 0.07-4.07-0.46-2.45-0.16-3.88 1.11-5.28l1.73-1.91-1.58-1.58c-1.05-1.05-1.39-2.55-1.02-4.43 0.32-1.6 0.09-3.13-0.53-3.52-0.6-0.37-1.1-2.01-1.1-3.63 0-1.63-0.54-3.83-1.21-4.89l-1.2-1.93 1.7-1.88c0.94-1.04 1.71-3.06 1.71-4.5s0.48-2.91 1.06-3.27c0.61-0.37 0.79-1.89 0.42-3.56-0.35-1.59-0.24-2.9 0.25-2.9s1.74-0.63 2.79-1.39l1.9-1.39-1.23-1.5-1.24-1.49 1.52-0.58c1.69-0.65 2.08-4.19 0.57-5.12-0.53-0.33-1.89-0.02-3.03 0.69l-2.07 1.28-0.96-1.5c-0.52-0.82-0.96-2.26-0.96-3.19-0.01-0.93-0.49-1.98-1.06-2.34-0.57-0.35-0.77-1.5-0.43-2.55 0.4-1.27 0.13-1.92-0.81-1.92-1.58 0-4.72 3.11-4.72 4.67 0 1.91-3.66 4.4-5.46 3.71-1.32-0.51-1.66-0.23-1.39 1.17 0.25 1.28 1.8 2.16 5.09 2.9 8.49 1.88 11.96 7.69 5 8.36-3.38 0.33-4.32 1.84-1.74 2.83 0.82 0.31 1.5 1.21 1.5 1.98s0.52 2.24 1.16 3.26c1.88 3.01 0.31 5.46-3.06 4.79-3.45-0.69-4.67 0.19-2.47 1.8l1.59 1.17-1.61 1.61c-2.08 2.07-2.03 2.41 0.43 3.05 1.61 0.42 1.91 1.06 1.41 3.03-0.48 1.92-0.13 2.77 1.52 3.65 4.57 2.45 4.59 8.02 0.03 8.02-1.55 0-3.04 0.66-3.36 1.5-0.41 1.06 0.09 1.5 1.69 1.5 4.65 0 6.55 5.92 2.59 8.04l-2.09 1.12 1.75 1.93 1.75 1.93-2.17 2.31c-2.3 2.45-1.98 3.67 0.94 3.67 1.83 0 3.46 3.28 2.45 4.92-0.32 0.52-0.13 1.22 0.43 1.57 2.93 1.81-0.26 8.39-3.47 7.15-1.01-0.39-1.51 0.03-1.51 1.27 0 1.02 0.9 2.09 2 2.38 2.74 0.72 2.64 5.04-0.15 6.89l-2.15 1.43 1.74 2.66c1.29 1.97 1.57 3.69 1.08 6.6-0.43 2.55-0.21 4.66 0.64 6.01 0.98 1.58 1.03 2.77 0.2 4.97-0.68 1.8-0.74 3.5-0.17 4.52 0.57 1.03 0.54 1.63-0.09 1.63-0.55 0-1.41-0.73-1.91-1.63zm47.81 0.75c0-0.49 1.21-1.68 2.68-2.64l2.68-1.76 1.84 2.28c1.02 1.26 1.58 2.56 1.24 2.89-0.33 0.33-1.18-0.18-1.88-1.14-1.57-2.15-2.56-2.24-2.56-0.25 0 0.83-0.89 1.5-2 1.5-1.1 0-2-0.4-2-0.88zm13.28-1.06c-0.08-1.08-1.1-3.25-2.26-4.82-2.4-3.24-1.82-6.68 1-5.95l1.74 0.46 0.62-4.51c0.34-2.49 0.62-7.01 0.62-10.07 0-4.32 0.48-6.05 2.19-7.87 1.68-1.79 1.91-2.6 1-3.51-1.45-1.45-1.57-5.44-0.19-6.29 1.57-0.97 1.17-4.31-0.64-5.32l-1.64-0.92 1.57-4.61c0.87-2.54 1.22-4.84 0.77-5.11-0.44-0.27-1.11-3.22-1.48-6.56l-0.69-6.07 1.94-3.2 1.94-3.21-0.29-9.88c-0.16-5.44-0.72-10.16-1.25-10.5s-0.96-3.2-0.95-6.35l0.01-5.73 1.85-0.59c2.08-0.65 2.37-2.62 0.82-5.52-1.34-2.5 0.4-5.93 3.01-5.93 1.04 0 2.18-0.9 2.53-2 0.83-2.6 3.13-2.56 4.55 0.09 0.84 1.57 0.81 2.84-0.13 5.09l-1.24 3 1.41 0.89 1.41 0.89-1.83 3.24c-1.17 2.07-1.44 3.38-0.75 3.61 2.33 0.77 1.21 6.12-1.42 6.78-2.51 0.63-3.35 2.77-1.53 3.89 0.54 0.33 0.97 2.27 0.96 4.31 0 2.04 0.28 5.81 0.62 8.37l0.64 4.66-2.73 4.66-2.73 4.65 1.33 2.49c1.02 1.89 1.08 3.18 0.25 5.36l-1.08 2.86 2.64-0.17c3.61-0.23 4.16 3.61 0.99 6.98l-2.31 2.46 1.41 0.87 1.41 0.87-1.38 4.18-1.38 4.17 1.7 0.95c3.22 1.81 1.33 10.85-2.27 10.85-1.69 0-1.98 3.22-0.53 6.01 1.93 3.73 1.88 5.9-0.16 8.16l-1.66 1.83 1.66 1.83c2.2 2.43 2.08 4.08-0.5 6.83l-2.14 2.28 1.36 1.65 1.37 1.64-1.96-0.38c-2.75-0.52-3.08-3.74-0.57-5.5 2.46-1.72 2.67-3.62 0.59-5.35-0.82-0.68-1.5-2.1-1.5-3.15s0.68-2.17 1.5-2.49c1.9-0.73 1.88-4.27-0.03-6.8-2.24-2.96-1.78-5.27 1.53-7.72 3.71-2.74 4.05-6.89 0.75-9.11l-2.25-1.52 2-3.77c1.47-2.79 1.67-3.88 0.75-4.19-1.94-0.65-1.47-4.1 0.75-5.48 1.1-0.69 2-2.04 2-3.01 0-1.89-1.5-2.38-2.47-0.8-0.33 0.52-1.2 0.72-1.93 0.44-0.85-0.33-1.9 0.88-2.87 3.29l-1.52 3.81 1.39 0.8c1.68 0.96 1.81 4.06 0.3 6.89-0.83 1.54-0.78 2.66 0.17 4.44l1.27 2.38-2.17 2.31-2.17 2.31-0.01 6.43c-0.02 10.23-0.92 13.96-3.63 14.99-2.97 1.13-2.94 1.87 0.2 4.85 2.5 2.36 2.92 5.11 0.9 5.78-0.57 0.19-1.1-0.54-1.18-1.62zm9.72-64.19c0-0.96-0.45-2.03-1-2.37-1.76-1.09-1.07-5.01 1.5-8.5 2.84-3.85 3.34-10.31 1.03-13.35-0.98-1.3-1.13-2.56-0.5-4.22 0.55-1.45 0.52-2.59-0.07-2.95-2.08-1.29-1.03-5.43 1.54-6.07 2.84-0.71 3.33-3.48 0.97-5.44l-1.54-1.27 2.29-2.43 2.28-2.43-1.83-1.34-1.83-1.34 1.08-2.01c0.59-1.11 1.04-2.84 1-3.83-0.06-1.41-0.21-1.48-0.64-0.32-0.31 0.82-1.38 2.66-2.37 4.08-1.03 1.47-1.57 3.49-1.27 4.67 0.4 1.5-0.18 2.56-2.06 3.79-1.93 1.27-2.34 2.04-1.57 2.97 0.74 0.89 0.7 2.04-0.13 3.85-0.94 2.06-0.89 2.92 0.21 4.25 0.94 1.13 1.46 4.81 1.59 11.28l0.2 9.61-2.07 4.33-2.06 4.32 1.14 2.5c0.62 1.38 0.86 2.94 0.53 3.47-0.33 0.54-0.3 1.74 0.06 2.68l0.66 1.7 1.43-1.94c0.79-1.07 1.43-2.73 1.43-3.69zm55 64.75c0-0.76-0.68-1.94-1.5-2.62-2.37-1.97-1.8-5.62 1.24-7.83l2.73-1.99-1.85-2.05-1.86-2.05 0.67-4.47 0.67-4.48 4.16-1.38 4.16-1.39 0.13-3.64c0.09-2.49 0.85-4.23 2.43-5.5l2.31-1.87-0.69-3.68c-0.52-2.76-1.18-3.67-2.68-3.67-1.09 0-2.24-0.68-2.56-1.5-0.81-2.13-2.03-1.86-2.67 0.59-0.76 2.9-4.09 2.1-4.54-1.1-0.19-1.37-0.76-3-1.26-3.61-0.51-0.62-0.66-1.82-0.33-2.68 0.37-0.96-0.19-1.97-1.48-2.66-2.61-1.39-2.63-3.69-0.08-7.54 1.09-1.65 1.99-4.19 1.99-5.64 0.01-1.45 0.86-3.69 1.9-4.97l1.88-2.33 1.62 1.34c2.08 1.74 2.03 2.96-0.37 8.24-1.09 2.4-1.99 5.2-2 6.23l-0.02 1.87 1.46-1.2c1.96-1.63 3.54-0.48 3.54 2.58 0 1.37 0.38 2.26 0.85 1.97s2.25 0 3.95 0.64l3.1 1.17 2.13-1.93c1.71-1.54 2.01-2.64 1.52-5.45-0.33-1.94-0.86-5.1-1.18-7.02-0.31-1.92-1.26-4.04-2.1-4.71-1.1-0.86-1.35-2.13-0.89-4.44l0.65-3.23-3.02-3.75c-3.94-4.91-3.37-10.87 1.04-10.87 0.49 0 0.65-1.26 0.34-2.81-0.68-3.41 1.27-5.35 4.52-4.5l2.3 0.6-0.54 3.35c-0.3 1.85-0.12 3.36 0.39 3.36 0.52 0 0.94-1.16 0.94-2.57v-2.57l2.25 0.32c3.16 0.45 3.67 5.9 0.81 8.76-2.28 2.28-2.66 5.06-0.93 6.79 0.85 0.85 0.77 2.11-0.31 4.95-2.53 6.67-0.03 9.92 4.44 5.78 3.09-2.87 3.11-2.91 1.76-5.42-0.72-1.35-0.56-2.18 0.62-3.15l1.59-1.33 1.98 2.45c2.26 2.79 1.95 7.75-0.7 11.35-6.29 8.54-6.57 9.09-5.98 11.78 0.38 1.72 0 3.64-1.02 5.21l-1.63 2.48 3.92-0.53 3.93-0.53 1.16 3.36c0.89 2.52 0.89 4.58 0.04 8.36-1.57 6.91-2.24 7.96-5.28 8.33-2.12 0.25-2.66 0.85-2.68 3-0.02 1.47-0.69 3.55-1.5 4.62-1.91 2.53-1.86 5.04 0.17 8.14l1.65 2.51-1.21 4.04-1.21 4.03 1.94 3.92c1.32 2.68 1.55 3.92 0.73 3.92-0.67 0-1.81-1.24-2.54-2.75l-1.32-2.75-1.03 2.75c-1.48 3.92-2.86 3.4-2.08-0.78l0.66-3.52-2.61-2.43c-3.15-2.91-3.2-3.92-0.62-11.26 2.59-7.36 2.63-7.21-1.75-6.07-2.43 0.63-4.72 2.23-6.51 4.56l-2.76 3.6 2.22 2.37 2.23 2.36-1.22 1.95c-1.8 2.89-1.52 4.14 1.86 8.24 3.91 4.75 2.18 4.92-1.97 0.2-3.23-3.69-3.87-6.3-2-8.17 0.81-0.81 0.5-1.92-1.12-4.11l-2.22-3.01 3.31-4.12c1.82-2.26 4.46-4.37 5.87-4.67 4.44-0.96 5.09-1.3 5.74-3 0.35-0.91 0.11-2.49-0.52-3.51-1.45-2.32-1.48-5.67-0.07-9.71l1.09-3.13-1.84-3.98c-1.83-3.94-4.42-5.68-9.34-6.26-1.58-0.19-2.46-0.9-2.38-1.92 0.08-1.11-0.47-1.47-1.74-1.14-3.04 0.8-3.42-2.57-1.06-9.17 2.46-6.84 2.57-7.57 1.23-7.57-0.53 0-1.27 1.69-1.66 3.75-0.38 2.06-1.61 5.5-2.72 7.65l-2.03 3.89 2.18 1.77c1.2 0.97 2.18 2.25 2.18 2.85s0.47 1.09 1.05 1.09c0.64 0 0.82 1.45 0.48 3.75l-0.56 3.75 1.17-2.25c1.31-2.52 4.36-3.01 5.19-0.83 0.3 0.78 1.59 1.57 2.86 1.75 1.81 0.26 2.5 1.23 3.19 4.53l0.88 4.2-2.7 3.21c-1.77 2.1-2.52 3.93-2.17 5.31 0.73 2.91-0.34 4.21-4.15 5.04-4.21 0.91-8.18 10.54-4.35 10.54 2.32 0 2.11 3.6-0.33 5.7-2.87 2.47-3.31 5.44-1.06 7.3 1.69 1.41 2.02 4 0.5 4-0.55 0-1-0.62-1-1.38zm22.56-11.09c0.44-2.36 0.15-4.11-0.96-5.69-2.09-2.99-2.01-5.69 0.27-9.15l1.86-2.82-1.24-5.93-1.24-5.94h1.31c0.75 0 1.45 1.39 1.63 3.25l0.31 3.25h2.48 2.49l0.87-4c2.32-10.54 0.88-14.66-4.34-12.5-4.5 1.86-6.22-0.07-3.06-3.44 1.55-1.64 2.13-3.18 1.75-4.62-0.73-2.82 0.61-6.18 4.28-10.76 3.48-4.33 4.74-9.19 3.07-11.83l-1.17-1.85 0.61 2.83 0.6 2.83-4.29 3.92c-4.79 4.38-6.79 4.92-6.79 1.85 0-1.13-0.46-2.93-1.03-3.99-0.76-1.41-0.62-2.72 0.53-4.94s1.29-3.53 0.53-4.94c-1.57-2.94-1.24-5.44 0.97-7.33 1.12-0.96 1.99-2.93 1.98-4.47l-0.02-2.76-1.93 4.25c-2.93 6.46-5.83 3.66-4.3-4.13 0.44-2.2 0.24-2.77-0.83-2.4-0.81 0.28-1.29 1.55-1.13 3.01 0.19 1.77-0.48 3.01-2.25 4.17-3.33 2.17-3.18 4.5 0.54 8.67l3.07 3.43-0.63 3.35c-0.42 2.26-0.16 3.89 0.82 5 0.8 0.91 1.73 3.34 2.07 5.4 0.33 2.06 0.89 5.35 1.23 7.31 0.45 2.62 0.19 3.86-0.98 4.75-2.02 1.51-2.46 6.99-0.74 9.07l1.31 1.58-1.22 5.09-1.23 5.1 1.78 3.3 1.78 3.29-2.67 8.38c-3.19 10.07-3.18 9.69-0.5 12.53 2.61 2.79 3.58 2.32 4.41-2.12zm38.44 11.47c0-0.55 0.65-1 1.44-1s1.72 0.45 2.06 1-0.31 1-1.44 1-2.06-0.45-2.06-1zm32.23-10.42c-1.59-8.48-1.89-12.28-1.18-14.74 1.96-6.86 0.21-12.92-8.98-31.08-1.04-2.06-1.52-3.98-1.06-4.26 0.46-0.29 2.03 2.07 3.49 5.24 6.63 14.37 16.87 34.26 17.65 34.26 0.47 0 0.85 0.62 0.85 1.38s0.76 1.99 1.69 2.75l1.68 1.37-0.85-2c-0.47-1.1-0.9-3.35-0.94-5-0.05-1.65-0.65-3.98-1.34-5.18-2.9-5.1-1.03-11.32 3.4-11.32 3.79 0 3.83-0.16 4.68-19.43 0.24-5.46 0.08-11.16-0.35-12.68-0.44-1.54-0.33-4.57 0.25-6.87l1.05-4.11-2.02-2.2c-1.11-1.22-2.34-3.27-2.74-4.56-0.39-1.3-1.83-4-3.19-6-2.93-4.3-2.68-8.43 0.8-13.32 1.23-1.73 2.27-4.65 2.31-6.49 0.12-5.81 4-1.74 5.14 5.39 0.42 2.63 1.31 4.18 2.76 4.82 3.76 1.67 4.36 5.72 1.68 11.44l-2.37 5.04 2.25 3.04c1.69 2.27 2.08 3.78 1.59 6.02-0.4 1.8-0.18 3.57 0.54 4.44 0.76 0.91 0.96 2.77 0.53 5.03-0.41 2.2-0.23 4.13 0.47 4.96 0.86 1.04 0.76 3.06-0.37 8.18-3.22 14.47-4.85 28.03-4.5 37.4l0.35 9.5 4.2 4.92c4.76 5.56 4.86 7.32 0.16 2.91l-3.12-2.93 1.13 2.18c1.35 2.61 1.41 3.32 0.29 3.32-5.59 0-5.55-39.69 0.05-59.18 0.59-2.04 0.7-4.48 0.25-5.5-0.82-1.83-1.4-7.58-1.46-14.63-0.02-2.3-0.9-4.98-2.2-6.74l-2.16-2.92 2.31-4.93c2.68-5.71 2.26-9.23-1.28-10.84-1.77-0.81-2.57-2.21-3.08-5.39l-0.68-4.3-2.57 4.46c-3.79 6.62-4.05 10.73-0.92 14.91 1.42 1.9 2.58 4 2.58 4.68 0 0.67 1.18 2.63 2.62 4.34l2.62 3.11-1.18 4.23c-0.79 2.82-0.87 5.06-0.24 6.72 0.52 1.37 0.76 6.32 0.54 10.99-0.9 18.85-2.16 23.18-6.64 22.71-3.22-0.35-4.18 4.8-1.65 8.9 1.36 2.19 1.79 4.07 1.36 5.82-0.36 1.43-0.15 3.19 0.47 3.93 0.61 0.74 1.72 4.68 2.46 8.74 0.73 4.06 1.68 8.18 2.1 9.14 0.44 1.02 0.33 1.75-0.28 1.75-1.1 0-2.7-4.32-3.7-10.06-0.35-1.95-1.5-4.1-2.57-4.77l-1.94-1.21-0.99 2.59c-1.26 3.31-1.25 7.61 0.03 10.97 0.77 2.03 0.71 2.56-0.25 2.24-2.39-0.78-3.23-9.12-1.39-13.73l1.67-4.17-3.72-6.03-3.72-6.02-1.35 3.84-1.34 3.85 1.6 8.5c0.88 4.68 1.83 9.74 2.12 11.25s0.12 2.75-0.37 2.75c-0.5 0-1.86-5.14-3.03-11.42zm81.06 4.17c-3.24-3.55-5.31-16.66-2.94-18.63 2.42-2.01 3.65-0.44 3.65 4.69l0.01 4.69 3.95 4.5 3.95 4.5 0.03-4.5c0.01-2.48-1.06-7.55-2.37-11.28l-2.39-6.77 0.98-3.58c0.71-2.56 0.65-4.43-0.23-6.53-0.96-2.33-0.95-3.43 0.05-5.3l1.27-2.37-2.1-6.92c-2.18-7.17-2.08-8.78 1.07-16.03 2.53-5.82 1.39-8.1-7.83-15.73l-8.46-6.99-3.44-7c-2.53-5.14-4.49-11.96-7.38-25.65-5.8-27.53-9.66-35.96-30.09-65.73-4.73-6.9-25.28-47.19-24.48-48 0.91-0.9 2.23 1.33 5.97 10.13 4.44 10.43 4.75 10.55 6.48 2.5 1.46-6.84 1.53-9.97 0.48-22.85l-0.7-8.6 1.65-0.63c1.25-0.48 1.46-0.27 0.84 0.83-0.45 0.8-0.42 4.96 0.06 9.23 1.2 10.65 1.14 15-0.28 20.27-2.4 8.96-2.36 11.44 0.25 16.58l2.47 4.87 0.27-9.97c0.35-13.43 0.27-22.09-0.29-33.73-0.37-7.53 0.79-14.65 1.38-8.5 0.36 3.72 0.64 16.71 0.6 27.25-0.03 6.6 0.03 15.6 0.13 20l0.18 8 2.99 6c3.37 6.77 5.7 10.11 6.5 9.31 1.28-1.28 1.66-11.1 0.58-15.04-1.37-5.01-1.66-12.52-0.83-22.27 0.61-7.31-2.03-18.75-4.84-21-0.86-0.68-1.08-2.68-0.71-6.32 0.65-6.36 0.98-6.11 6.77 5.24 3.29 6.45 4.54 10.09 4.61 13.46 0.12 5.76 1.23 10.02 2.19 8.45 0.71-1.15-0.42-11.61-2.48-22.83-0.6-3.3-1.23-9.12-1.39-12.93s-0.56-8.01-0.9-9.34c-0.96-3.81 1.77-2.2 3.12 1.85 0.77 2.29 0.82 3.83 0.15 4.65-1.03 1.27-0.78 5.17 1.07 16.27 2.73 16.39 3.01 20.95 1.5 23.99-1.46 2.92-1.02 10.01 0.62 10.01 0.42 0 1.1-2.36 1.5-5.25 1.47-10.52 0.72-35.76-1.04-35.09-1.14 0.44-2.4-2.53-2.43-5.69-0.01-1.2 4.85-2.85 5.03-1.71 0.64 4.01 0.79 37.7 0.21 43.95-0.95 10.03-0.35 12.48 3.25 13.38 3.41 0.85 3.47 0.71 2.03-4.84-1.86-7.24 2.65-5.74 5.25 1.75l1.04 3-0.55-5.5c-0.64-6.42-0.54-6.23-3.49-6.4l-2.28-0.14 0.28-3.4c0.15-1.93-0.27-3.74-0.97-4.18-0.94-0.58-0.83-0.94 0.43-1.42 1.01-0.39 2.96 0.26 4.83 1.59 2.5 1.78 3.31 1.96 3.96 0.9 0.66-1.07 1.35-1.1 3.45-0.14 3.33 1.52 3.52 1.5 3.52-0.31 0-0.82-0.67-1.5-1.49-1.5-3.44 0-6.95-15.94-4.51-20.5l1.28-2.4-1.27-3.06c-0.78-1.9-1.88-2.97-2.89-2.8-2.73 0.44-2.54-4.62 0.36-9.21l2.6-4.11-0.95-5.21c-1.15-6.27-1.25-6.12 2.84-4.07l3.3 1.64-0.56 8.11c-0.44 6.44-0.25 8.46 0.96 9.8 1.07 1.18 1.66 4.6 1.97 11.4l0.43 9.71 2.5 2.96c1.86 2.22 2.46 4.01 2.35 7.11-0.08 2.27 0.18 6.45 0.59 9.28l0.74 5.14-2.19 1.18c-1.66 0.88-2.53 0.89-3.58 0.01-2.21-1.83-3.58-0.29-2.28 2.56 0.84 1.84 0.82 3.12-0.08 5.1l-1.2 2.64 2.21 2.36c1.22 1.3 3.18 2.36 4.36 2.36 1.19 0 3.07 1.26 4.25 2.86 1.17 1.59 3.46 3.13 5.14 3.47 2.12 0.42 4.18 2.14 6.83 5.7l3.79 5.1 0.34-2.21c0.19-1.22-0.41-4.59-1.32-7.48-1.89-6.03-2.01-8.54-0.97-20.84l0.75-8.89-2.65 0.66-2.65 0.67v-2.52c0-1.66-0.56-2.52-1.62-2.52-1.29 0-1.5-0.65-1-3.12 0.34-1.72 0.62-3.52 0.62-4 0-1.57 2.32-0.93 4.68 1.29 2.8 2.63 4.14 1.73 2.37-1.58l-1.29-2.42 1.37-3.09c0.75-1.71 1.88-2.91 2.49-2.67 3.45 1.32 4.58-11.61 1.38-15.69-1.1-1.4-1.76-3.19-1.46-3.97 0.3-0.79-0.12-1.98-0.94-2.66-2.19-1.83-0.81-4.09 2.51-4.09 2.22 0 2.89 0.46 2.89 2 0 1.1 0.45 2 1 2s1 0.75 1 1.67 0.75 2.5 1.66 3.51c1.28 1.41 1.42 2.34 0.64 4.07-0.57 1.24-0.92 5.29-0.79 9 0.14 3.71-0.16 6.75-0.66 6.75-1.54 0-2.06-2.73-0.93-4.85 0.61-1.13 0.73-2.92 0.29-4.12l-0.78-2.11-1.82 5.04c-1 2.77-2.43 5.04-3.19 5.04-1.82 0-3 4.82-1.55 6.27 3.43 3.43 0.1 6.82-3.83 3.91l-2.78-2.05-1.06 2.34-1.07 2.33 2.07 0.54c1.4 0.37 1.86 1.06 1.44 2.17-0.48 1.23-0.19 1.48 1.23 1.03 3.61-1.14 4.18 1.37 3 13.05l-1.11 10.91 2.12 6.86c2.56 8.28 2.6 9.56 0.41 14.16l-1.71 3.58 1.37 2.19c1.44 2.31 1.54 12.01 0.15 14.49-0.43 0.77-0.34 3.61 0.2 6.33l0.97 4.93-1.48 1.73c-2.64 3.08-2.67 4.89-0.17 10.29 1.61 3.48 2.26 6.23 1.87 7.99-0.35 1.57 0.09 4.09 1.05 6.12l1.65 3.45-1.47 3.5c-0.92 2.21-1.28 5.35-0.98 8.48 0.36 3.78 0.09 5.3-1.13 6.31-0.89 0.73-1.61 2.6-1.61 4.15 0 2.98 1.43 4.67 2.49 2.96 1.43-2.31 2.51-0.73 2.51 3.67 0 3.3-0.59 5.31-2 6.81l-1.99 2.12 5.15 7.93c2.83 4.36 5.91 9.62 6.83 11.68 1.78 3.98 3.01 4 3.01 0.05 0-1.31 0.61-3.59 1.36-5.08 0.75-1.48 1.64-4.5 1.97-6.7 0.34-2.2 1.6-7.12 2.79-10.93l2.18-6.93-1.19-15.07c-2.16-27.22-3.5-33.71-7.65-37.07-0.68-0.55-1.77-2.68-2.42-4.74-0.65-2.05-1.6-3.99-2.11-4.31-0.51-0.31-0.93-1.06-0.93-1.66 0-2.22 3.91 2.52 4.57 5.53 0.38 1.71 1.91 4.7 3.41 6.65 5.66 7.33 9.75 49.86 5.57 57.94-0.76 1.47-1.91 5.57-2.55 9.11-0.64 3.53-1.59 7.21-2.11 8.18-0.51 0.96-1.36 3.98-1.87 6.72l-0.95 4.97 2.87 6.3 2.87 6.31 0.59-3.75c0.33-2.06 0.86-5.44 1.18-7.5 0.75-4.83 5.31-15.69 6.21-14.79 0.25 0.25-0.79 3.51-2.31 7.25l-2.77 6.79-0.1 10.8-0.11 10.81-1.35-3.31c-6.48-15.83-19.22-39.8-21.17-39.8-0.45 0-1.61 2.08-2.58 4.62l-1.76 4.62 1.72 8.28c1.22 5.89 1.55 10.62 1.14 16.41l-0.58 8.13 2.44-0.61c3.55-0.9 4.9 1.95 2.9 6.13-1.22 2.55-1.3 3.86-0.42 6.4l1.12 3.2-1.55 3c-0.86 1.65-1.81 2.75-2.13 2.44-0.31-0.32-0.02-1.23 0.65-2.03 0.81-0.98 0.98-3 0.53-6.04-0.44-2.91-0.24-5.68 0.56-7.6 1.42-3.42 0.74-4.83-1.45-3.01-2.89 2.4-3.57 0.1-3.57-12.06 0-6.61-0.47-12.89-1.04-13.95-1.71-3.2-1.56-11.13 0.27-14.75 0.98-1.93 1.46-4.46 1.15-6.02-0.39-1.98 0.12-3.41 1.96-5.39 2.57-2.77 2.68-7.1 0.16-6.13-0.82 0.31-1.76-0.9-2.55-3.32-0.69-2.1-1.87-4.77-2.63-5.94-1.03-1.58-1.11-2.79-0.35-4.81 1.01-2.64 1.36-10.29 0.37-7.82-0.28 0.69-1.31 1.25-2.28 1.25-2.89 0-3.61 9.38-1.04 13.53 1.08 1.74 2.49 6.61 3.15 10.81l1.18 7.63-2.37 5.07-2.37 5.06 1.69 6.37c1.97 7.38 2.14 10.69 0.61 12.22-0.79 0.79-0.69 1.86 0.36 3.85 1.1 2.11 1.21 3.67 0.46 6.63l-0.98 3.87 2.62 7.94c4.93 14.9 2.62 19.43-5.23 10.27l-4.07-4.75-0.04 2.94c-0.02 1.67 0.9 3.92 2.14 5.24 1.19 1.27 1.95 2.54 1.67 2.81-0.27 0.28-1.42-0.51-2.55-1.74zm-1.32-14l-0.03-4.25-1.06 1.82c-0.97 1.67-0.49 6.68 0.64 6.68 0.26 0 0.47-1.91 0.45-4.25zm4-69.01c-2.2-2.97-2.4-4.25-1.67-10.74 0.56-4.89 1.72-7.21 3.33-6.59 1 0.38 1.37-0.41 1.37-2.94 0-3.65 2.24-4.9 3.39-1.89 0.98 2.55 0.7 9.38-0.55 13.56-1.27 4.24-0.67 5.8 1.52 3.97 3.62-3 3.44-28.04-0.25-36.11-2.59-5.63-2.59-6.52-0.06-10.07l2.05-2.87-1.18-3.94c-0.85-2.84-0.89-4.78-0.12-6.97 0.79-2.27 0.74-3.28-0.19-4.06-1.55-1.28-5.04-9.2-6.55-14.84-0.66-2.47-1.73-4.25-2.56-4.25-0.79 0-1.95-1.77-2.62-4-0.8-2.68-1.77-4-2.94-4h-1.74l1.45 4.75c0.88 2.88 1.22 6.4 0.85 8.95-0.43 2.95-0.15 4.91 0.93 6.55 1.94 2.97 2.13 8.7 0.69 20.75-0.62 5.22-1.24 11.3-1.38 13.5-0.18 2.99-0.78 4.24-2.38 4.94l-2.14 0.94-0.49 5.56c-1.62 18.68 0.11 27.1 6.65 32.24 2.81 2.22 5.34 4.55 5.61 5.18 0.26 0.63 0.64-0.16 0.83-1.76 0.22-1.84-0.46-3.97-1.85-5.86zm-12.79-12.99c-0.72-18.11 0.03-24.75 2.78-24.75h1.75l0.67-8.84c0.37-4.86 1.11-10.37 1.64-12.24 1.64-5.7 1.2-12.37-0.99-15.15l-1.97-2.51 0.59-4.96c0.93-7.88-2.86-18.69-9.34-26.62-1.75-2.15-2.07-3.26-1.32-4.65 0.53-1.01 0.87-3.56 0.74-5.68l-0.23-3.85h4 4l-0.22-2.5c-1.15-13.22-1.68-16.64-2.73-17.5-2.64-2.16-3.55-5.71-3.55-13.82v-8.46l-1.89-2.33-1.89-2.34 0.52-7.63c0.35-5.13 0.15-7.87-0.61-8.34-0.78-0.48-1.14 0.79-1.16 4.11s-0.79 6.05-2.5 8.81c-2.93 4.76-3.12 6.48-0.65 5.84 1.38-0.37 2.2 0.49 3.4 3.54l1.58 4.02-1.45 4.22c-1.02 2.95-1.17 4.98-0.51 6.8 0.51 1.42 1.47 4.54 2.12 6.93s1.44 4.08 1.77 3.76c1.42-1.42 3.27 1.98 3.27 6.01 0 4.66-2.55 6.45-3.18 2.23-0.39-2.63-3.84-4.99-4.53-3.1-0.63 1.72-2.28 1.57-4.47-0.41-2.03-1.84-2.29-1.74-3.19 1.19-0.49 1.59-0.01 2.27 2.22 3.11l2.84 1.07 0.69 6.69c0.94 9.13-1.27 12.34-3.34 4.85-1.48-5.35-3.42-7.84-2.53-3.25 0.84 4.31 0.84 4.77 0.03 8.5l-0.65 3 4.3 2.75c10.17 6.5 11.63 8.97 12.39 20.93l0.5 7.82h-2.53c-3.07 0-6.01-5.69-6.96-13.45-0.33-2.72-1.15-5.28-1.82-5.69-1.82-1.12-2.24-0.13-1.02 2.39 1.87 3.88 2.09 6.59 0.68 8.45-1.91 2.51-1.86 8.3 0.06 8.3 0.82 0 2.06 0.9 2.74 2 0.69 1.1 2.31 2 3.61 2 1.29 0 3.66 0.93 5.26 2.07l2.9 2.07v6.38c0 11.01-3.63 23.02-7.9 26.15-1.2 0.88-1.6 2.88-1.59 8l0.01 6.83 3.69 7.75c4.53 9.51 4.36 9.53 3.97-0.5zm-3.91-27.75c2.56-5.75 3.53-10.08 4.06-18.24l0.51-7.74-2.62-2.07c-1.69-1.32-3.44-1.86-4.89-1.5-1.62 0.41-2.56-0.01-3.35-1.49-0.61-1.13-2.2-2.47-3.54-2.98-2.87-1.09-3.48-6.88-0.94-8.98 1.92-1.59 1.9-4.32-0.04-8.08-1.63-3.14-1.25-4.92 1.03-4.92 2.67 0 4.51 3.08 4.51 7.54 0 6.06 5.72 16.6 6.09 11.21 0.97-14.24-2.95-21.48-13.98-25.85-3.08-1.23-6.18-2.67-6.88-3.21-1.8-1.38-2.55-0.25-1.63 2.48 0.43 1.28 0.85 6.83 0.94 12.33 0.23 13.74 0.62 15.65 5.46 26.5 2.49 5.59 5.3 14.31 6.81 21.19l2.58 11.7 2.16-2.2c1.19-1.2 2.86-3.77 3.72-5.69zm24.76-36.44c-0.77-1.45-1.03-3.74-0.64-5.8l0.63-3.4-3.98-5.56c-3.88-5.42-6.35-7.35-8.07-6.28-0.46 0.28-2.05-1.07-3.52-3-2.43-3.19-5.45-4.71-5.45-2.74 0 1.89 3.55 5.55 6.63 6.84 2.15 0.9 3.37 2.09 3.37 3.31 0 2.95 1.08 5.07 2.57 5.07 1.66 0 3.43 3.1 3.43 6 0 1.17 0.99 4.42 2.19 7.22l2.19 5.09 0.97-2.17c0.68-1.51 0.58-2.9-0.32-4.58zm-47.73-15.81c-0.28-15.22-0.39-15.88-3.6-20.08-3.92-5.14-4.98-4.72-4.18 1.64 0.38 3.01 0.18 7.07-0.44 9.4-0.72 2.65-0.78 4.96-0.17 6.55 0.85 2.24 7.86 13.74 8.37 13.74 0.12 0 0.13-5.07 0.02-11.25zm7.07-16c0.91-3.38 0.86-3.48-2.32-4.58-5.35-1.87-9.46-11.93-11.5-28.17-1.41-11.26-6.56-23.74-8.12-19.69-0.39 1.02-0.04 2.49 0.81 3.48 0.82 0.94 2.34 4.63 3.38 8.21l1.9 6.5-0.75 9c-0.84 10.14-0.41 13.5 1.75 13.5 1.79 0 2.01 1.97 0.23 2.08-0.69 0.04-0.03 0.52 1.45 1.07 1.49 0.54 2.98 1.85 3.31 2.89 1.5 4.71 8.97 9.03 9.86 5.71zm48.77-54.9c-0.63-1-1.14-2.5-1.14-3.34 0-0.83-0.42-1.51-0.93-1.51-0.52 0-1.22-0.9-1.57-2s-1.28-2-2.07-2c-1.64 0-1.91 1.58-0.43 2.5 0.55 0.34 1 1.46 1 2.48s0.65 3.13 1.45 4.69 1.75 3.73 2.12 4.83l0.66 2 1.02-2.91c0.73-2.07 0.69-3.45-0.11-4.74zm-487.41 205.08c0.2971-1.13-0.0457-3.16-0.7618-4.49-1.8088-3.38-0.618-4.08 1.4837-0.88 1.7096 2.61 1.4663 7.44-0.3747 7.44-0.4881 0-0.6443-0.93-0.3472-2.07zm487.9-19.68c-0.68-4.72-0.13-19.84 0.85-23.51 0.52-1.93 0.22-3.54-0.98-5.39-2.33-3.55-1.54-10.62 1.55-13.91l2.29-2.43-1.07-4.69c-1.1-4.79-0.27-9.32 1.71-9.32 1.36 0 1.31 5.31-0.07 6.69-0.79 0.79-0.79 1.66 0 3.14 1.56 2.91 1.4 3.65-1.51 7.1l-2.59 3.09 0.62 5.24c0.34 2.88 0.58 9.52 0.53 14.74s-0.08 12.54-0.08 16.25c0.01 7.55-0.44 8.61-1.25 3zm19.61-46.24c-0.68-1.09-1.24-2.83-1.24-3.87s-0.73-2.5-1.63-3.24l-1.62-1.35 0.65-8.6c0.45-6.03 0.2-10.72-0.84-15.68l-1.49-7.08 1.48-9.19 1.49-9.18-1.45-7.16c-0.8-3.94-1.74-8.11-2.1-9.27l-0.65-2.1 4.28-2.12c5.36-2.65 6.18-2.14 1.35 0.85l-3.63 2.24 0.67 2.12c2.09 6.62 2.55 14.66 1.4 24.64l-1.21 10.51 1.61 6.35 1.61 6.34-1.1 7.74-1.09 7.75 2.06 2.9c1.77 2.5 4 9.39 3.03 9.39-0.19 0-0.9-0.89-1.58-1.99zm-20.59-6.69c-0.37-0.37-0.41-2.09-0.09-3.81 0.42-2.2 0.12-3.53-0.98-4.45-2.21-1.83-1.98-5.78 0.41-7.05l1.98-1.07-0.45-9.97c-0.25-5.48-0.84-10.76-1.31-11.72-0.72-1.47-0.75-7.53-0.09-24.25 0.05-1.38-0.48-5.88-1.19-10-1.77-10.28-1.33-20.56 1.09-25.23 1.06-2.06 1.66-4.45 1.32-5.32-0.38-0.99 0.57-2.79 2.54-4.83l3.15-3.24-0.6-3c-0.42-2.08-0.12-3.39 0.98-4.31 0.88-0.72 1.58-2.72 1.56-4.44l-0.03-3.13-1.47 1.94c-0.81 1.07-1.47 2.67-1.47 3.56s-0.68 2.49-1.52 3.56l-1.51 1.94 0.66-3c0.36-1.65 1.65-5.02 2.87-7.5 1.55-3.16 2.07-5.64 1.74-8.35l-0.48-3.84 1.87 0.37c1.46 0.29 1.81 1.13 1.61 3.85-0.14 1.91-0.36 5.49-0.5 7.97s-0.81 5.48-1.49 6.68c-0.69 1.21-1.25 3.76-1.25 5.68 0 2.54-0.69 4.03-2.5 5.46-1.42 1.12-2.5 3-2.5 4.36 0 1.32-0.94 4.18-2.08 6.36l-2.09 3.96 0.6 11.51c0.33 6.33 1.06 13.19 1.63 15.24 0.71 2.59 0.7 4.94-0.06 7.75-0.73 2.69-0.77 5.19-0.12 7.52 0.53 1.91 0.77 3.48 0.54 3.48s0.48 0.9 1.58 2 2 3.25 2 4.78 0.79 3.48 1.75 4.35c0.96 0.86 2.28 2.42 2.93 3.47l1.17 1.9-0.38-3.5c-1.87-17.12-2.45-25.74-2.23-33l0.26-8.5 3.5-1.12c4.05-1.29 6.3-4.79 5.38-8.38-2.28-8.92-0.87-39.04 1.53-32.74 0.69 1.83 1.52 2.51 2.56 2.11 0.86-0.33 1.53-0.05 1.53 0.64 0 0.76-0.93 1.05-2.45 0.75-2.87-0.54-3.89 1.21-2.64 4.51 0.47 1.24 0.61 4.5 0.31 7.24-0.61 5.49-0.55 8.27 0.32 16.49 0.69 6.48-0.54 8.75-5.64 10.4l-3.4 1.1-0.06 10c-0.04 5.5 0.49 12.7 1.18 16 2.65 12.8 2.05 24.62-0.95 18.84-0.81-1.56-2.41-3.91-3.55-5.22s-2.36-3.89-2.71-5.75c-0.35-1.85-1.03-3.37-1.52-3.37-1.07 0-1.2 6.35-0.16 7.4 0.4 0.4 0.83 5.15 0.95 10.56l0.21 9.83-1.94 1.76c-2.4 2.17-2.46 3.79-0.23 6.03 1.02 1.02 1.74 3.29 1.75 5.57 0.03 3.75-0.43 4.55-1.82 3.17zm9.03-135.51c-0.32-0.8-0.55-0.56-0.6 0.61-0.04 1.05 0.19 1.64 0.52 1.31 0.34-0.33 0.37-1.2 0.08-1.92zm-486.01-3.48c-0.809-0.81-0.899-7.33-0.101-7.33 1.754 0 4.434 2.32 4.434 3.84 0 2.81-2.777 5.05-4.333 3.49zm2.597-1.93c0.802-0.8-0.247-3.4-1.371-3.4-0.491 0-0.893 0.9-0.893 2 0 1.95 1.061 2.61 2.264 1.4zm53.736-15.46c0-0.58 0.45-0.78 1-0.44s1 0.82 1 1.06-0.45 0.44-1 0.44-1-0.48-1-1.06zm-43-7.94c0-0.55 0.45-1 1-1s1 0.45 1 1-0.45 1-1 1-1-0.45-1-1zm50.25-5.57c1.512-0.82 2.75-1.72 2.75-2 0-0.27-0.87-0.03-1.934 0.53-7.065 3.79-13.126-2.99-7.611-8.51 4.537-4.53 12.217-1.58 9.08 3.49-0.359 0.58 0.097 1.06 1.013 1.06 1.108 0 1.463 0.53 1.059 1.58-0.334 0.87-0.607 1.92-0.607 2.34s-1.146 1.28-2.547 1.92c-3.627 1.65-4.474 1.36-1.203-0.41zm0.309-2.9c2.494-1.88 1.545-1.91-2.694-0.07-2.482 1.08-2.825 1.47-1.306 1.5 1.132 0.02 2.932-0.62 4-1.43zm0.161-6.87c-0.563-1.69-2.173-1.78-4.26-0.24l-1.96 1.44 3.282-0.08c1.806-0.05 3.127-0.55 2.938-1.12zm259.3-32.18c0.7-0.84 1.47-1.32 1.72-1.07 0.7 0.69-0.71 2.59-1.92 2.59-0.66 0-0.59-0.57 0.2-1.52zm-20.02-2.98c0-0.82 0.45-1.5 1-1.5s1 0.68 1 1.5-0.45 1.5-1 1.5-1-0.68-1-1.5zm24.5-2.5c0.34-0.55 0.82-1 1.06-1s0.44 0.45 0.44 1-0.48 1-1.06 1-0.78-0.45-0.44-1zm32.5 0.12c0-0.48 0.69-1.44 1.52-2.14l1.53-1.26-0.68 1.75-0.67 1.76 2.15-1.15c1.18-0.63 2.15-1.61 2.15-2.17 0-0.57 0.51-0.71 1.14-0.33 0.75 0.47 0.33 1.33-1.25 2.54-2.51 1.93-5.89 2.5-5.89 1zm9.91-2.73l-1.39-1.68 2.36 0.75c1.63 0.52 2.16 0.41 1.69-0.35-0.38-0.61-0.18-1.11 0.44-1.11 1.42 0 0.89 3.2-0.61 3.7-0.6 0.2-1.73-0.39-2.49-1.31zm-54.22-7.03c-1.08-1.08 0.31-2.36 2.62-2.4l2.19-0.03-2.5-1.47-2.5-1.48 3 0.63 3 0.63-2-1.59c-2.66-2.11-5.25-2.06-5.77 0.1l-0.42 1.75-0.74-1.7c-0.41-0.93-0.24-2.28 0.38-3 0.61-0.71 1.67-2.08 2.33-3.04 1.81-2.58 7.02-3.32 9.06-1.28 1.69 1.69 2.26 6.59 0.92 7.92-0.4 0.41-0.74 1.5-0.75 2.42-0.01 1.34-0.82 1.62-4.01 1.38-2.99-0.22-3.62-0.03-2.5 0.74l1.5 1.03-1.58 0.01c-0.87 0.01-1.87-0.27-2.23-0.62zm8.31-10.36c0-2.14-3.26-2.75-5.86-1.11-1.03 0.65-0.65 1.13 1.5 1.91 4.07 1.48 4.36 1.43 4.36-0.8zm-303.66 2.46c-0.326-0.85-0.311-1.83 0.031-2.17 0.343-0.34 0.624-0.1 0.624 0.54 0 0.65 0.45 1.17 1 1.17s1-0.68 1-1.5 0.45-1.5 1-1.5c1.38 0 1.256 2.34-0.2 3.8-1.621 1.62-2.744 1.51-3.455-0.34zm47.808-3.71c-1.418-1.42-1.506-4.41-0.153-5.25 0.567-0.35 1 0.49 1 1.94 0 1.41 0.42 2.56 0.933 2.56 1.652 0 2.287-4.03 0.9-5.71l-1.333-1.62 1.5 0.49c2.351 0.77 2.507 6.5 0.212 7.73-1.339 0.71-2.249 0.67-3.059-0.14zm-31.688-29.807c-0.806-1.303 0.272-5.943 1.381-5.943 0.444 0 0.593 1.461 0.331 3.247l-0.476 3.246 1.719-1.426c0.945-0.785 1.505-2.246 1.243-3.247-0.511-1.954 0.799-2.499 1.864-0.776 0.861 1.392-2.198 5.956-3.991 5.956-0.78 0-1.712-0.476-2.071-1.057zm313.6-39.354c-1.32-1.598-0.82-2.036 3.43-2.976l3-0.664-2.4 1.892c-1.81 1.43-2.06 2.028-1 2.447 1.07 0.424 1.02 0.573-0.23 0.633-0.89 0.043-2.15-0.556-2.8-1.332zm10.93-2.089c0.68-0.825 1.69-1.5 2.24-1.5 0.56 0 0.45 0.663-0.24 1.5-0.68 0.825-1.69 1.5-2.24 1.5-0.56 0-0.45-0.663 0.24-1.5zm-7.41-9.362c-0.77-1.246 2.27-4.35 3.78-3.849 0.62 0.208 1.13 1.24 1.13 2.294 0 2.063-3.85 3.28-4.91 1.555zm57.41-19.859c-1.38-0.247-2.95-0.908-3.5-1.469-0.68-0.693 0.12-0.746 2.5-0.165 1.92 0.47 5.62 0.81 8.22 0.755 2.59-0.054 4.48 0.283 4.19 0.75-0.54 0.867-6.9 0.939-11.41 0.129z" />
  <metadata
     id="metadata4">
    <rdf:RDF>
      <cc:Work>
        <dc:format>image/svg+xml</dc:format>
        <dc:type
           rdf:resource="http://purl.org/dc/dcmitype/StillImage" />
        <cc:license
           rdf:resource="http://creativecommons.org/licenses/publicdomain/" />
        <dc:publisher>
          <cc:Agent
             rdf:about="http://openclipart.org/">
            <dc:title>Openclipart</dc:title>
          </cc:Agent>
        </dc:publisher>
        <dc:title>Coloring Book Manatee</dc:title>
        <dc:date>2007-09-17T01:46:49</dc:date>
        <dc:description>Converted to vector from 1991 EPA (Environmental Protection Agency) Endangered Species Coloring Book.</dc:description>
        <dc:source>https://openclipart.org/detail/5539/coloring-book-manatee-by-fundraw_dot_com</dc:source>
        <dc:creator>
          <cc:Agent>
            <dc:title>FunDraw_dot_com</dc:title>
          </cc:Agent>
        </dc:creator>
        <dc:subject>
          <rdf:Bag>
            <rdf:li>animal</rdf:li>
            <rdf:li>colouring book</rdf:li>
            <rdf:li>externalsource</rdf:li>
            <rdf:li>line art</rdf:li>
            <rdf:li>mammal</rdf:li>
            <rdf:li>manatee</rdf:li>
            <rdf:li>sea cow</rdf:li>
            <rdf:li>sea creature</rdf:li>
          </rdf:Bag>
        </dc:subject>
      </cc:Work>
      <cc:License
         rdf:about="http://creativecommons.org/licenses/publicdomain/">
        <cc:permits
           rdf:resource="http://creativecommons.org/ns#Reproduction" />
        <cc:permits
           rdf:resource="http://creativecommons.org/ns#Distribution" />
        <cc:permits
           rdf:resource="http://creativecommons.org/ns#DerivativeWorks" />
      </cc:License>
    </rdf:RDF>
  </metadata>
  <path
     style="fill:none;fill-rule:evenodd;stroke:#000000;stroke-width:1px;stroke-linecap:butt;stroke-linejoin:miter;stroke-opacity:1"
     d="m 508.14407,444.375 -21.5911,21.5911 -63.26695,7.53178"
     id="path8069"
     inkscape:connector-curvature="0" />
  <path
     style="fill:none;fill-rule:evenodd;stroke:#000000;stroke-width:1px;stroke-linecap:butt;stroke-linejoin:miter;stroke-opacity:1"
     d="m 392.86448,226.17405 5.85835,10.82907"
     id="path8071"
     inkscape:connector-curvature="0" />
  <path
     style="fill:none;fill-rule:evenodd;stroke:#000000;stroke-width:1px;stroke-linecap:butt;stroke-linejoin:miter;stroke-opacity:1"
     d="m 19.350307,296.8293 3.72804,4.7932"
     id="path8073"
     inkscape:connector-curvature="0" />
  <path
     style="fill:none;fill-rule:evenodd;stroke:#000000;stroke-width:1px;stroke-linecap:butt;stroke-linejoin:miter;stroke-opacity:1"
     d="M 0.50211864,187.29025 0.25105932,313.82415"
     id="path8075"
     inkscape:connector-curvature="0" />
  <path
     style="fill:none;fill-rule:evenodd;stroke:#000000;stroke-width:1px;stroke-linecap:butt;stroke-linejoin:miter;stroke-opacity:1"
     d="m 361.08737,41.7248 6.21341,4.083092 6.74597,0.177526"
     id="path8077"
     inkscape:connector-curvature="0" />
  <path
     style="fill:none;fill-rule:evenodd;stroke:#000000;stroke-width:1.13999987px;stroke-linecap:butt;stroke-linejoin:miter;stroke-opacity:1"
     d="m 193.78844,312.98631 8.55452,-3.19369"
     id="path4147"
     inkscape:connector-curvature="0" />
  <path
     style="fill:none;fill-rule:evenodd;stroke:#000000;stroke-width:1.13999987px;stroke-linecap:butt;stroke-linejoin:miter;stroke-opacity:1"
     d="m 379.92185,410.86015 1.93084,3.74811"
     id="path4149"
     inkscape:connector-curvature="0" />
</svg>
