<?xml version="1.0" encoding="UTF-8" standalone="no"?>
<svg
   xmlns:dc="http://purl.org/dc/elements/1.1/"
   xmlns:cc="http://creativecommons.org/ns#"
   xmlns:rdf="http://www.w3.org/1999/02/22-rdf-syntax-ns#"
   xmlns:svg="http://www.w3.org/2000/svg"
   xmlns="http://www.w3.org/2000/svg"
   xmlns:sodipodi="http://sodipodi.sourceforge.net/DTD/sodipodi-0.dtd"
   xmlns:inkscape="http://www.inkscape.org/namespaces/inkscape"
   version="1.1"
   x="0px"
   y="0px"
   viewBox="0 0 100 125"
   enable-background="new 0 0 100 100"
   xml:space="preserve"
   id="svg2"
   inkscape:version="0.91 r13725"
   sodipodi:docname="sandclock.svg"><metadata
     id="metadata14"><rdf:RDF><cc:Work
         rdf:about=""><dc:format>image/svg+xml</dc:format><dc:type
           rdf:resource="http://purl.org/dc/dcmitype/StillImage" /></cc:Work></rdf:RDF></metadata><defs
     id="defs12" /><sodipodi:namedview
     pagecolor="#ffffff"
     bordercolor="#666666"
     borderopacity="1"
     objecttolerance="10"
     gridtolerance="10"
     guidetolerance="10"
     inkscape:pageopacity="0"
     inkscape:pageshadow="2"
     inkscape:window-width="1676"
     inkscape:window-height="1011"
     id="namedview10"
     showgrid="false"
     inkscape:zoom="1.888"
     inkscape:cx="50"
     inkscape:cy="62.5"
     inkscape:window-x="0"
     inkscape:window-y="18"
     inkscape:window-maximized="0"
     inkscape:current-layer="svg2" /><path
     d="m 83.723427,107.01338 -2.99065,0 c -1.11622,-15.477396 -9.2855,-35.07805 -20.89238,-42.924396 11.6139,-7.848686 19.75744,-27.44466 20.8643,-42.924403 l 3.01873,0 c 1.93994,0 3.51014,-1.572546 3.51014,-3.510146 0,-1.937601 -1.5702,-3.510146 -3.51014,-3.510146 l -68.929904,0 c -1.939941,0 -3.510146,1.572545 -3.510146,3.510146 0,1.9376 1.570205,3.510146 3.510146,3.510146 l 2.981284,0 c 1.111546,15.477403 9.276145,35.075717 20.880687,42.924403 -11.604542,7.841666 -19.771481,27.43998 -20.883027,42.924396 l -2.976604,0 c -1.939941,0 -3.510146,1.57255 -3.510146,3.51015 0,1.9376 1.570205,3.51014 3.510146,3.51014 l 68.927564,0 c 1.93994,0 3.51014,-1.57254 3.51014,-3.51014 0,-1.9376 -1.5702,-3.51015 -3.51014,-3.51015 z m -58.921308,-85.848799 48.896328,0 c -0.40717,4.839321 -1.62168,10.181763 -3.43058,15.332317 l -42.037506,0 C 26.423806,31.346344 25.209296,26.006242 24.802119,21.164581 Z m 6.320602,22.352608 36.252786,0 c -3.41888,7.062414 -7.94697,13.015621 -12.99924,15.676312 -0.005,0.0023 -0.009,0.007 -0.014,0.0094 -0.27145,0.135726 -5.424346,2.564746 -10.214525,0 -0.0047,-0.0023 -0.007,-0.0023 -0.0094,-0.0023 -0.0094,-0.0047 -0.01872,-0.007 -0.02808,-0.0117 -5.04525,-2.66303 -9.573338,-8.613898 -12.98754,-15.671631 z m 7.989092,63.496191 10.191123,-8.031206 10.273031,8.031206 -20.464154,0 z m 31.862764,0 -19.516411,-15.257427 c -1.277693,-0.996881 -3.065527,-0.994541 -4.3362,0.007 l -19.359624,15.250407 -2.962563,0 c 1.186429,-14.122481 9.126379,-32.506284 19.160716,-37.93297 1.006241,1.43682 1.787834,2.990645 1.787834,4.3362 0,1.937601 1.572545,3.510146 3.510146,3.510146 1.93994,0 3.510142,-1.572545 3.510142,-3.510146 0,-1.474261 0.74883,-3.009365 1.69657,-4.378321 10.06944,5.389243 18.04449,23.826869 19.23326,37.977431 l -2.72387,0 z M 49.258475,80.448604 c -1.937601,0 -3.510146,1.572545 -3.510146,3.510145 0,1.937601 1.572545,3.507806 3.510146,3.507806 1.9376,0 3.510142,-1.570205 3.510142,-3.507806 0,-1.9376 -1.572542,-3.510145 -3.510142,-3.510145 z"
     id="path4"
     inkscape:connector-curvature="0"
     style="fill:#ffffff" /></svg>