<?xml version="1.0" ?>

<!-- Uploaded to: SVG Repo, www.svgrepo.com, Generator: SVG Repo Mixer Tools -->
<svg width="30px" height="30px" viewBox="0 0 20 20" version="1.1" xmlns="http://www.w3.org/2000/svg">

<g id="layer1">

<path d="M 10.005859 0.5 A 0.50083746 0.50083746 0 0 0 9.7539062 0.56445312 L 1.7539062 5.0644531 A 0.50083746 0.50083746 0 0 0 1.5 5.5 L 1.5 14.5 A 0.50083746 0.50083746 0 0 0 1.7539062 14.935547 L 9.7539062 19.435547 A 0.50083746 0.50083746 0 0 0 10.246094 19.435547 L 18.246094 14.935547 A 0.50083746 0.50083746 0 0 0 18.5 14.5 L 18.5 5.5 A 0.50083746 0.50083746 0 0 0 18.246094 5.0644531 L 10.246094 0.56445312 A 0.50083746 0.50083746 0 0 0 10.005859 0.5 z M 10 1.5742188 L 16.978516 5.5 L 10 9.4257812 L 3.0214844 5.5 L 10 1.5742188 z M 2.5 6.3554688 L 9.5 10.292969 L 9.5 18.144531 L 2.5 14.207031 L 2.5 6.3554688 z M 17.5 6.3554688 L 17.5 14.207031 L 10.5 18.144531 L 10.5 10.292969 L 17.5 6.3554688 z " style="fill:#ffffff; fill-opacity:1; stroke:none; stroke-width:0px;"/>

</g>

</svg>