<?xml version="1.0" ?><!DOCTYPE svg  PUBLIC '-//W3C//DTD SVG 1.1//EN'  'http://www.w3.org/Graphics/SVG/1.1/DTD/svg11.dtd' [
	<!ENTITY stroke_color "#eee">
	<!ENTITY fill_color "#000">
]><svg height="55px" viewBox="0 0 55 55" width="55px" xmlns="http://www.w3.org/2000/svg" xmlns:xlink="http://www.w3.org/1999/xlink">
 <g>
  <path stroke="&stroke_color;" fill="#282828" stroke-linecap="round" stroke-linejoin="round" stroke-width="3.5" d="M 50 27.625 C 50 39.9681 39.8431 50.125 27.5 50.125 C 15.1569 50.125 5 39.9681 5 27.625 C 5 15.2819 15.1569 5.125 27.5 5.125 C 39.8431 5.125 50 15.2819 50 27.625 Z " />
  <path d="M 23.956 27.167 C 23.956 25.546 25.756 25.277 27.601 24.781 C 29.401 24.286 31.201 23.566 31.201 20.956 C 31.201 18.976 29.356 17.536 27.467 17.536 C 23.687 17.536 23.102 21.991 20.221 21.991 C 18.601 21.991 17.476 20.731 17.476 18.751 C 17.476 14.025 23.416 11.326 27.467 11.326 C 33.273 11.326 38.223 14.926 38.223 20.957 C 38.223 25.952 35.073 28.878 30.438 30.048 L 30.438 31.667 C 30.438 33.468 29.087 34.772 27.197 34.772 C 25.172 34.772 23.957 33.467 23.957 31.667 L 23.957 27.167 Z M 23.686 40.937 C 23.686 39.002 25.261 37.427 27.196 37.427 C 29.132 37.427 30.706 39.002 30.706 40.937 C 30.706 42.873 29.132 44.449 27.196 44.449 C 25.261 44.448 23.686 42.872 23.686 40.937 Z " fill="&stroke_color;" stroke="none" stroke-linecap="round" stroke-linejoin="round" stroke-width="3.5" />
 </g>
</svg>
