<svg class="svg-icon" style="width: 1em; height: 1em;vertical-align: middle;fill: currentColor;overflow: hidden;" viewBox="0 0 1024 1024" version="1.1" xmlns="http://www.w3.org/2000/svg"><path d="M512 99c-213.4 0-387 173.6-387 387s173.6 387 387 387 387-173.6 387-387S725.4 99 512 99z m199.9 422.6H294.4c-14 0-25.5-11.4-25.5-25.5 0-14 11.4-25.5 25.5-25.5h417.5c14 0 25.5 11.4 25.5 25.5s-11.4 25.5-25.5 25.5z" fill="#FFFFFF" /><path d="M512 48.1C270.5 48.1 74.1 244.5 74.1 486S270.5 923.9 512 923.9c241.4 0 437.9-196.4 437.9-437.9S753.4 48.1 512 48.1z m0 824.9c-213.4 0-387-173.6-387-387S298.6 99 512 99s387 173.6 387 387-173.6 387-387 387z" fill="" /><path d="M711.9 470.7H294.4c-14 0-25.5 11.4-25.5 25.5 0 14 11.4 25.5 25.5 25.5h417.5c14 0 25.5-11.4 25.5-25.5s-11.4-25.5-25.5-25.5z" fill="" /></svg>