<?xml version="1.0" encoding="iso-8859-1"?>
<!-- Uploaded to: SVG Repo, www.svgrepo.com, Generator: SVG Repo Mixer Tools -->
<svg height="50px" width="50px" version="1.1" id="Capa_1" xmlns="http://www.w3.org/2000/svg" xmlns:xlink="http://www.w3.org/1999/xlink" 
	 viewBox="0 0 26 26" xml:space="preserve">
<g>
	<g>
		<path style="fill:#ffffff;" d="M21.125,2C22.71,2,24,3.29,24,4.875v16.25C24,22.71,22.71,24,21.125,24H4.875
			C3.29,24,2,22.71,2,21.125V4.875C2,3.29,3.29,2,4.875,2H21.125 M21.125,0H4.875C2.182,0,0,2.182,0,4.875v16.25
			C0,23.818,2.182,26,4.875,26h16.25C23.818,26,26,23.818,26,21.125V4.875C26,2.182,23.818,0,21.125,0L21.125,0z"/>
	</g>
	<path style="fill:#282828;" d="M13.436,10.955c-0.845,0-1.613,0.239-2.232,0.685c0.523-1.371,1.764-2.253,3.507-2.456
		c0.42-0.052,0.764-0.071,1.071-0.052c0.067,0.006,0.135-0.021,0.186-0.068c0.05-0.047,0.078-0.113,0.078-0.182V7.136
		c0-0.132-0.102-0.24-0.232-0.249c-0.314-0.022-0.741-0.009-1.152,0.054c-1.766,0.133-3.218,0.737-4.313,1.796
		c-1.362,1.283-2.112,3.202-2.112,5.403c0,3.226,1.83,5.31,4.661,5.31c2.493,0,4.373-1.903,4.373-4.428
		C17.269,12.627,15.692,10.955,13.436,10.955z M12.896,17.293c-1.404,0-1.936-1.325-1.965-2.56c0-0.24,0.038-0.429,0.119-0.593
		c0.315-0.647,0.976-1.065,1.684-1.065c1.102,0,1.785,0.794,1.785,2.072C14.519,16.431,13.866,17.293,12.896,17.293z"/>
</g>
</svg>