<?xml version="1.0" encoding="iso-8859-1"?>
<!-- Uploaded to: SVG Repo, www.svgrepo.com, Generator: SVG Repo Mixer Tools -->
<svg fill="#ffffff" height="25px" width="25px" version="1.1" id="Layer_1" xmlns="http://www.w3.org/2000/svg" xmlns:xlink="http://www.w3.org/1999/xlink" 
	 viewBox="0 0 511.991 511.991" xml:space="preserve">
<g>
	<g>
		<path d="M425.836,225.058c0.064-0.725-0.043-1.429-0.128-2.155c-0.064-0.683-0.064-1.365-0.277-2.027
			c-0.213-0.725-0.64-1.344-1.003-2.005c-0.277-0.512-0.427-1.109-0.789-1.557L253.015,4.045c-0.107-0.128-0.192-0.256-0.299-0.363
			c0-0.021,0-0.021-0.021-0.021c-3.584-4.181-9.856-4.843-14.315-1.664c-0.384,0.277-0.725,0.576-1.088,0.896
			c-0.917,0.875-1.664,1.856-2.197,2.944l-147.84,277.12c-0.021,0.043,0,0.085-0.043,0.128c-0.747,1.451-1.067,3.051-1.088,4.651
			c-0.021,0.491,0.085,0.939,0.149,1.429c0.128,1.173,0.448,2.283,0.981,3.371c0.149,0.299,0.107,0.64,0.277,0.917
			c0.128,0.213,0.384,0.299,0.512,0.512c0.192,0.277,0.256,0.619,0.491,0.875l179.947,213.333c0.896,1.067,2.027,1.984,3.371,2.667
			c0.043,0.021,0.107,0.021,0.149,0.043c1.451,0.704,3.008,1.109,4.629,1.109c0.875,0,1.771-0.107,2.667-0.341
			c0.512-0.128,0.832-0.576,1.323-0.768c0.917-0.384,1.707-0.832,2.496-1.472c0.811-0.661,1.451-1.344,2.027-2.219
			c0.299-0.427,0.789-0.64,1.024-1.109l138.667-277.333c0.235-0.491,0.235-1.003,0.405-1.493c0.192-0.555,0.533-1.045,0.619-1.643
			C425.9,225.421,425.815,225.25,425.836,225.058z M241.324,39.479l64.043,237.845H114.455L241.324,39.479z M270.53,477.517
			L119.66,298.658h186.645L270.53,477.517z M302.764,425.186l26.155-130.773l58.859-39.253L302.764,425.186z M325.719,270.882
			L268.204,57.207l131.477,164.373L325.719,270.882z"/>
	</g>
</g>
</svg>