<?xml version="1.0" encoding="UTF-8" standalone="no"?>
<svg
   xmlns:dc="http://purl.org/dc/elements/1.1/"
   xmlns:cc="http://creativecommons.org/ns#"
   xmlns:rdf="http://www.w3.org/1999/02/22-rdf-syntax-ns#"
   xmlns:svg="http://www.w3.org/2000/svg"
   xmlns="http://www.w3.org/2000/svg"
   xmlns:sodipodi="http://sodipodi.sourceforge.net/DTD/sodipodi-0.dtd"
   xmlns:inkscape="http://www.inkscape.org/namespaces/inkscape"
   version="1.1"
   x="0px"
   y="0px"
   viewBox="0 0 55 55"
   enable-background="new 0 0 100 100"
   xml:space="preserve"
   id="svg2"
   inkscape:version="0.48.4 r9939"
   width="100%"
   height="100%"
   sodipodi:docname="sensor.svg"><metadata
     id="metadata22"><rdf:RDF><cc:Work
         rdf:about=""><dc:format>image/svg+xml</dc:format><dc:type
           rdf:resource="http://purl.org/dc/dcmitype/StillImage" /></cc:Work></rdf:RDF></metadata><defs
     id="defs20" /><sodipodi:namedview
     pagecolor="#ffffff"
     bordercolor="#666666"
     borderopacity="1"
     objecttolerance="10"
     gridtolerance="10"
     guidetolerance="10"
     inkscape:pageopacity="0"
     inkscape:pageshadow="2"
     inkscape:window-width="1600"
     inkscape:window-height="837"
     id="namedview18"
     showgrid="false"
     inkscape:zoom="3.776"
     inkscape:cx="-42.761866"
     inkscape:cy="27.028841"
     inkscape:window-x="-8"
     inkscape:window-y="-8"
     inkscape:window-maximized="1"
     inkscape:current-layer="svg2" /><path
     style="fill:#ffffff"
     inkscape:connector-curvature="0"
     d="m 30.968889,39.169333 c 0.867111,-0.257778 1.475111,-1.172889 1.811555,-2.536 -1.106222,0.900445 -2.248888,1.679111 -3.4,2.331111 0.559112,0.267111 1.096889,0.351111 1.588445,0.204889 z"
     id="path4" /><path
     style="fill:none"
     inkscape:connector-curvature="0"
     d="m 27.5,9.7222224 c -9.802667,0 -17.7777776,7.9751106 -17.7777776,17.7777776 0,9.802667 7.9751106,17.777778 17.7777776,17.777778 9.802667,0 17.777778,-7.975111 17.777778,-17.777778 0,-9.802667 -7.975111,-17.7777776 -17.777778,-17.7777776 z m 7.305778,25.0835556 c -0.205334,0.205333 -0.412889,0.405777 -0.621778,0.601777 -0.191111,2.977778 -1.106667,5.088445 -2.681333,5.556889 -1.071556,0.318667 -2.304,-0.167111 -3.545334,-1.262222 C 23.164,41.968889 18.418222,41.988444 15.714667,39.284889 11.686222,35.256889 13.696,26.692444 20.194222,20.194222 20.397778,19.990667 20.606667,19.8 20.814222,19.605778 21.003111,16.62 21.920445,14.504445 23.497778,14.036 c 1.625778,-0.483111 3.619111,0.880889 5.454222,3.421333 1.531111,2.12 2.952,5.058667 3.955556,8.435111 0.657333,2.211112 1.061333,4.362223 1.227999,6.317778 -0.298666,0.336889 -0.609777,0.667556 -0.933777,0.991111 -0.03822,0.03822 -0.07867,0.07422 -0.117334,0.112445 C 33.040889,31.228 32.649333,28.761333 31.887111,26.195556 30.893778,22.853333 29.465333,19.995111 27.982667,18.118222 27.644444,17.690222 27.304,17.313778 26.964444,16.993778 25.593333,17.656 24.219556,18.526222 22.905333,19.598222 23.030667,18.584889 23.265778,17.832889 23.56,17.346222 24.243556,16.860889 24.936889,16.428 25.632889,16.036 25.068,15.763111 24.526222,15.683111 24.031111,15.830222 c -0.868,0.257778 -1.476889,1.173334 -1.812889,2.537334 0.0013,-0.0013 0.0031,-0.0027 0.0049,-0.004 -0.150667,0.608 -0.247111,1.304889 -0.287555,2.074222 -8.89e-4,8.89e-4 -0.0018,0.0018 -0.0027,0.0027 -0.02978,0.565777 -0.02933,1.170222 0.0013,1.805777 0.096,1.961334 0.482667,4.218222 1.177778,6.557778 1.074667,3.615556 2.658222,6.667555 4.268889,8.52 C 27.000444,37.500444 26.62,37.664 26.240444,37.806222 24.636,35.669333 23.137333,32.625778 22.091556,29.107111 21.454222,26.962667 21.054667,24.874667 20.879111,22.966667 20.834667,22.482667 20.808,22.013333 20.792,21.555111 15.461333,27.136 13.872889,34.300889 17.284889,37.713778 c 2.140889,2.140889 5.760444,2.310666 9.538222,0.824889 -4.44e-4,-4.45e-4 -0.0013,-0.0013 -0.0018,-0.0018 0.392889,-0.154667 0.787111,-0.324 1.181778,-0.513778 1.734667,-0.834667 3.473333,-2.008889 5.091556,-3.492889 0.247555,-0.226667 0.492888,-0.458222 0.734222,-0.699555 0.129333,-0.129334 0.254222,-0.260445 0.379555,-0.392 5.328,-5.579556 6.914667,-12.741778 3.503556,-16.152445 -1.973333,-1.972889 -5.201778,-2.272 -8.653333,-1.144444 -0.376,-0.462667 -0.753334,-0.875556 -1.130667,-1.236889 4.484444,-1.864889 8.819111,-1.726667 11.355111,0.809778 4.030667,4.028444 2.021333,12.592889 -4.477333,19.091111 z M 30.833333,27.5 c 0,1.841333 -1.492,3.333333 -3.333333,3.333333 -1.840889,0 -3.333333,-1.492 -3.333333,-3.333333 0,-1.840889 1.492444,-3.333333 3.333333,-3.333333 1.841333,0 3.333333,1.492444 3.333333,3.333333 z"
     id="path6" /><path
     style="fill:#ffffff"
     inkscape:connector-curvature="0"
     d="m 44.709333,11.861778 c 0.182667,0.04844 0.370667,0.08267 0.568445,0.08267 1.227555,0 2.222222,-0.994667 2.222222,-2.2222226 0,-1.2275555 -0.994667,-2.2222222 -2.222222,-2.2222222 -1.227556,0 -2.222223,0.9946667 -2.222223,2.2222222 0,0.1977778 0.03422,0.3857776 0.08267,0.5684446 L 40.832444,12.596 C 37.294222,9.4284446 32.622667,7.5000002 27.5,7.5000002 16.454222,7.5000002 7.5000002,16.454222 7.5000002,27.5 c 0,5.122667 1.9284444,9.794222 5.0959998,13.332444 l -2.305333,2.305778 c -0.182667,-0.04844 -0.3706668,-0.08267 -0.5684446,-0.08267 -1.2271111,0 -2.2222222,0.994667 -2.2222222,2.222223 0,1.227555 0.9951111,2.222222 2.2222222,2.222222 1.2271106,0 2.2222226,-0.994667 2.2222226,-2.222222 0,-0.197778 -0.03422,-0.385778 -0.08267,-0.568445 l 2.305333,-2.305778 C 17.705778,45.571555 22.376889,47.5 27.5,47.5 c 11.045778,0 20,-8.954222 20,-20 0,-5.123111 -1.928445,-9.794222 -5.096445,-13.332889 l 2.305778,-2.305333 z M 27.5,45.277778 C 17.697333,45.277778 9.7222224,37.302667 9.7222224,27.5 9.7222224,17.697333 17.697333,9.7222224 27.5,9.7222224 c 9.802667,0 17.777778,7.9751106 17.777778,17.7777776 0,9.802667 -7.975111,17.777778 -17.777778,17.777778 z"
     id="path8" /><path
     style="fill:#ffffff"
     inkscape:connector-curvature="0"
     d="m 27.929778,14.904889 c 0.377333,0.361333 0.755111,0.774222 1.130666,1.236889 3.451556,-1.127556 6.679556,-0.828445 8.653334,1.144444 3.411111,3.410667 1.824444,10.573334 -3.503556,16.152445 -0.125333,0.131555 -0.250222,0.262666 -0.379555,0.392 -0.241334,0.241333 -0.487112,0.472888 -0.734223,0.699555 -1.618222,1.484445 -3.356888,2.658222 -5.091555,3.492889 -0.394667,0.189778 -0.788889,0.359556 -1.181778,0.513778 4.45e-4,4.44e-4 8.89e-4,0.0013 0.0018,0.0018 -3.777778,1.485777 -7.397778,1.316 -9.538222,-0.824889 -3.412,-3.412889 -1.823556,-10.577778 3.507111,-16.158667 0.016,0.458667 0.04267,0.927556 0.08711,1.411556 0.175556,1.908 0.574667,3.996 1.212444,6.140444 1.045778,3.518667 2.544445,6.562667 4.148889,8.699111 C 26.621778,37.664 27.001778,37.500444 27.382667,37.324 25.772,35.471555 24.188444,32.419556 23.113778,28.804 22.418667,26.464444 22.032,24.207556 21.936,22.246222 c -0.03111,-0.636 -0.03111,-1.24 -0.0013,-1.805777 8.89e-4,-8.89e-4 0.0018,-0.0018 0.0027,-0.0027 0.04045,-0.768889 0.136889,-1.465778 0.287556,-2.074222 -0.0013,0.0013 -0.0031,0.0027 -0.0049,0.004 0.336,-1.364 0.944889,-2.279556 1.812889,-2.537334 0.495111,-0.147111 1.036889,-0.06711 1.601778,0.205778 -0.696,0.392 -1.389334,0.824889 -2.072889,1.310222 -0.294222,0.486667 -0.529334,1.238667 -0.654667,2.252 1.314222,-1.072444 2.687556,-1.942666 4.059111,-2.604444 0.339111,0.32 0.68,0.696444 1.018222,1.124444 1.482667,1.876889 2.911112,4.735111 3.904445,8.077334 0.762667,2.565777 1.154222,5.032444 1.197333,7.118222 0.03867,-0.03822 0.07911,-0.07422 0.117333,-0.112445 0.324,-0.324 0.635112,-0.654666 0.933778,-0.991111 -0.166666,-1.955555 -0.570222,-4.106666 -1.228,-6.317778 -1.004,-3.376888 -2.424444,-6.315111 -3.955555,-8.435111 C 27.118667,14.916889 25.125333,13.552889 23.499556,14.036 21.922222,14.504889 21.004889,16.62 20.816,19.605778 20.608445,19.8 20.399556,19.990667 20.196,20.194222 c -6.5,6.498667 -8.509778,15.062667 -4.481333,19.091111 2.703555,2.703556 7.449333,2.684 12.242666,0.417334 1.241334,1.095111 2.473334,1.580888 3.545334,1.262222 1.574666,-0.468445 2.490666,-2.579111 2.681333,-5.556889 0.209333,-0.196 0.416889,-0.396889 0.621778,-0.601778 6.498666,-6.498666 8.508,-15.063111 4.479555,-19.091555 -2.536,-2.536445 -6.870666,-2.674667 -11.355555,-0.809778 z m 3.039111,24.264444 C 30.477778,39.315555 29.94,39.232 29.380444,38.964444 c 1.151556,-0.652 2.293778,-1.430666 3.4,-2.331111 -0.336444,1.363111 -0.944444,2.278222 -1.811555,2.536 z"
     id="path10" /><circle
     style="fill:#ffffff"
     d="m 57.5,50 c 0,4.142136 -3.357864,7.5 -7.5,7.5 -4.142136,0 -7.5,-3.357864 -7.5,-7.5 0,-4.142136 3.357864,-7.5 7.5,-7.5 4.142136,0 7.5,3.357864 7.5,7.5 z"
     sodipodi:ry="7.5"
     sodipodi:rx="7.5"
     sodipodi:cy="50"
     sodipodi:cx="50"
     cx="50"
     cy="50"
     r="7.5"
     id="circle12"
     transform="matrix(0.44444444,0,0,0.44444444,5.277778,5.277778)" /></svg>