<?xml version="1.0" encoding="iso-8859-1"?>
<!-- Uploaded to: SVG Repo, www.svgrepo.com, Generator: SVG Repo Mixer Tools -->
<svg fill="#ffffff" height="25px" width="25px" version="1.1" id="Layer_1" xmlns="http://www.w3.org/2000/svg" xmlns:xlink="http://www.w3.org/1999/xlink" 
	 viewBox="0 0 512 512" xml:space="preserve">
<g>
	<g>
		<path d="M500.248,496.747L265.581,6.08c-0.064-0.128-0.213-0.171-0.299-0.299C263.512,2.389,260.056,0,255.96,0
			c-4.096,0-7.531,2.389-9.323,5.781c-0.064,0.128-0.235,0.171-0.299,0.299L11.672,496.747c-0.107,0.213-0.043,0.448-0.128,0.64
			c-0.491,1.195-0.725,2.453-0.747,3.755c0,0.341-0.128,0.661-0.085,1.024c0.107,1.451,0.491,2.901,1.237,4.267
			c0.064,0.107,0.171,0.128,0.213,0.235c0.064,0.107,0.043,0.256,0.107,0.363c0.683,1.088,1.728,1.792,2.709,2.56
			c0.384,0.299,0.64,0.768,1.067,1.003c1.579,0.896,3.371,1.408,5.248,1.408h469.333c3.669,0,7.083-1.877,9.024-4.971
			S501.848,500.053,500.248,496.747z M245.293,57.664v309.333L45.144,476.181L245.293,57.664z M63.128,490.667l192.725-105.109
			l183.957,105.109H63.128z M266.627,367.147V57.728l203.648,425.771L266.627,367.147z"/>
	</g>
</g>
</svg>