<?xml version="1.0" encoding="UTF-8" standalone="no"?>
<svg
   xmlns:dc="http://purl.org/dc/elements/1.1/"
   xmlns:cc="http://creativecommons.org/ns#"
   xmlns:rdf="http://www.w3.org/1999/02/22-rdf-syntax-ns#"
   xmlns:svg="http://www.w3.org/2000/svg"
   xmlns="http://www.w3.org/2000/svg"
   xmlns:sodipodi="http://sodipodi.sourceforge.net/DTD/sodipodi-0.dtd"
   xmlns:inkscape="http://www.inkscape.org/namespaces/inkscape"
   width="55"
   height="55"
   viewBox="0 0 1.65 1.65"
   fill="none"
   version="1.1"
   id="svg835"
   sodipodi:docname="cube-transparent.svg"
   inkscape:version="1.0beta1 (32d4812, 2019-09-19)">
  <metadata
     id="metadata841">
    <rdf:RDF>
      <cc:Work
         rdf:about="">
        <dc:format>image/svg+xml</dc:format>
        <dc:type
           rdf:resource="http://purl.org/dc/dcmitype/StillImage" />
        <dc:title />
      </cc:Work>
    </rdf:RDF>
  </metadata>
  <defs
     id="defs839" />
  <sodipodi:namedview
     pagecolor="#ffffff"
     bordercolor="#666666"
     inkscape:document-rotation="0"
     borderopacity="1"
     objecttolerance="10"
     gridtolerance="10"
     guidetolerance="10"
     inkscape:pageopacity="0"
     inkscape:pageshadow="2"
     inkscape:window-width="1440"
     inkscape:window-height="771"
     id="namedview837"
     showgrid="false"
     inkscape:zoom="1.7810681"
     inkscape:cx="-2.5178524"
     inkscape:cy="2.0286474"
     inkscape:window-x="0"
     inkscape:window-y="25"
     inkscape:window-maximized="0"
     inkscape:current-layer="svg835" />
  <path
     d="M 1.4739246,1.1570646 H 0.49422863 m 0,0 V 0.17736857 m 0,0.97969603 -0.352691,0.352691 m 0,-0.97969603 H 1.1212336 m 0,0 V 1.5097556 m 0,-0.97969603 0.352691,-0.352691 m 0.03919,0.92775703 V 0.20088157 c 0,-0.02195 0,-0.03292 -0.0043,-0.0413 -0.0038,-0.0074 -0.0097,-0.01337 -0.01713,-0.01713 -0.0084,-0.0043 -0.01936,-0.0043 -0.0413,-0.0043 H 0.54614463 c -0.01917,0 -0.02876,0 -0.03777,0.0022 -0.008,0.0019 -0.01564,0.0051 -0.02266,0.0094 -0.0079,0.0048 -0.01469,0.01163 -0.02824,0.02518 l -0.31842,0.31842 c -0.01356,0.01356 -0.02033,0.02033 -0.02518,0.02824 -0.0043,0.007 -0.0075,0.01466 -0.0094,0.02266 -0.0022,0.009 -0.0022,0.01861 -0.0022,0.03777 V 1.4862616 c 0,0.02195 0,0.03292 0.0043,0.0413 0.0038,0.0074 0.0098,0.01337 0.01713,0.01713 0.0084,0.0043 0.01936,0.0043 0.0413,0.0043 H 1.0692486 c 0.01916,0 0.02875,0 0.03777,-0.0022 0.008,-0.0019 0.01564,-0.0051 0.02266,-0.0094 0.0079,-0.0048 0.01469,-0.01162 0.02824,-0.02517 l 0.318425,-0.318425 c 0.01355,-0.01355 0.02033,-0.02033 0.02517,-0.02824 0.0043,-0.007 0.0075,-0.01466 0.0094,-0.02266 0.0022,-0.009 0.0022,-0.01861 0.0022,-0.03777 z"
     stroke="#000000"
     stroke-width="2"
     stroke-linecap="round"
     stroke-linejoin="round"
     id="path833"
     style="fill:none;stroke:#ffffff;stroke-width:0.0888669;stroke-miterlimit:4;stroke-dasharray:none"
     inkscape:connector-curvature="0" />
</svg>