<?xml version="1.0" ?><!DOCTYPE svg  PUBLIC '-//W3C//DTD SVG 1.1//EN'  'http://www.w3.org/Graphics/SVG/1.1/DTD/svg11.dtd' [
	<!ENTITY stroke_color "#010101">
	<!ENTITY fill_color "#FFFFFF">
]>
<svg
   xmlns:dc="http://purl.org/dc/elements/1.1/"
   xmlns:cc="http://creativecommons.org/ns#"
   xmlns:rdf="http://www.w3.org/1999/02/22-rdf-syntax-ns#"
   xmlns:svg="http://www.w3.org/2000/svg"
   xmlns="http://www.w3.org/2000/svg"
   enable-background="new 0 0 55 55"
   height="55px"
   version="1.1"
   viewBox="0 0 55 55"
   width="55px"
   x="0px"
   xml:space="preserve"
   y="0px"
   id="svg925">
   <g
     aria-label="C"
     style="font-style:normal;font-variant:normal;font-weight:normal;font-stretch:normal;font-size:40px;line-height:1.25;font-family:'Cursive standard';-inkscape-font-specification:'Cursive standard';letter-spacing:0px;word-spacing:0px;fill:&fill_color;;fill-opacity:1;stroke:none"
     id="text935"><path
       d="m 42.198,41.689577 q 0,2.52 -1.008,4.536 -0.952,2.016 -2.52,3.416 -1.512,1.4 -3.528,2.184 -1.96,0.784 -3.976,0.784 -3.36,0 -6.048,-1.68 -2.632,-1.736 -4.48,-4.48 -1.848,-2.744 -2.856,-6.216 -0.952,-3.472 -0.952,-7 0,-2.408 0.168,-4.76 0.168,-2.408 0.616,-4.76 -2.52,-1.68 -3.752,-4.592 -1.232,-2.912 -1.232,-6.104 0,-2.688 1.064,-4.872 1.008,-2.184 2.688,-3.752 1.68,-1.568 3.808,-2.408 2.128,-0.84 4.312,-0.84 0.448,0 0.784,0.392 0.392,0.336 0.392,0.896 0,0.56 -0.392,0.952 -0.336,0.336 -0.784,0.336 -1.736,0 -3.472,0.672 -1.68,0.616 -3.08,1.848 -1.344,1.176 -2.184,2.912 -0.84,1.736 -0.84,3.864 0,2.24 0.784,4.424 0.784,2.128 2.408,3.528 0.784,-3.416 2.24,-6.888 1.456,-3.528 3.528,-6.384 2.128,-2.912 4.872,-4.704 2.8,-1.848 6.272,-1.848 1.232,0 2.184,0.616 1.008,0.56 1.68,1.512 0.728,0.952 1.064,2.24 0.392,1.232 0.392,2.52 0,3.976 -1.624,7.168 -1.568,3.192 -4.144,5.432 -2.52,2.184 -5.712,3.36 -3.136,1.176 -6.328,1.176 -1.568,0 -2.8,-0.448 -0.336,2.128 -0.504,4.312 -0.112,2.128 -0.112,4.2 0,2.968 0.784,5.936 0.84,2.968 2.352,5.376 1.568,2.408 3.808,3.976 2.24,1.512 5.096,1.512 1.568,0 3.08,-0.56 1.568,-0.56 2.8,-1.624 1.288,-1.064 2.072,-2.632 0.784,-1.568 0.784,-3.528 0,-1.4 -0.84,-2.576 -0.784,-1.176 -2.072,-1.176 -1.008,0 -1.4,0.392 -0.336,0.392 -0.504,0.896 -0.168,0.448 -0.392,0.84 -0.168,0.392 -0.784,0.392 -0.448,0 -0.784,-0.392 -0.336,-0.392 -0.336,-1.008 0,-0.896 0.392,-1.568 0.392,-0.728 1.008,-1.176 0.616,-0.504 1.344,-0.728 0.728,-0.224 1.456,-0.224 1.12,0 2.072,0.56 0.952,0.56 1.624,1.4 0.728,0.84 1.12,2.016 0.392,1.176 0.392,2.352 z m -4.144,-33.656 q 0,-0.728 -0.224,-1.456 -0.168,-0.784 -0.56,-1.4 -0.392,-0.672 -0.952,-1.064 -0.56,-0.392 -1.288,-0.392 -3.024,0 -5.488,1.792 -2.464,1.792 -4.312,4.536 -1.848,2.688 -3.08,5.992 -1.232,3.248 -1.904,6.216 1.12,0.336 2.296,0.336 2.688,0 5.432,-0.952 2.8,-1.008 4.984,-2.856 2.24,-1.904 3.64,-4.648 1.456,-2.744 1.456,-6.104 z"
       style="font-size:56px"
       id="path965" /></g><path
     style="font-style:normal;font-variant:normal;font-weight:normal;font-stretch:normal;font-size:40px;line-height:1.25;font-family:'Cursive standard';-inkscape-font-specification:'Cursive standard';letter-spacing:0px;word-spacing:0px;fill:&stroke_color;;fill-opacity:1;stroke:none;"
     d="M 35.029297 1.1464844 C 32.71463 1.1464844 30.624479 1.7621406 28.757812 2.9941406 C 26.928479 4.1888073 25.305385 5.7559323 23.886719 7.6972656 C 22.505385 9.6012656 21.328089 11.730031 20.357422 14.082031 C 19.386755 16.396698 18.639854 18.691417 18.117188 20.96875 C 17.034521 20.035417 16.233604 18.860073 15.710938 17.441406 C 15.37345 16.501262 15.154727 15.553366 15.035156 14.597656 L 13.025391 16.484375 C 13.228033 17.380521 13.497671 18.261541 13.861328 19.121094 C 14.682661 21.062427 15.933281 22.592891 17.613281 23.712891 C 17.314615 25.280891 17.110047 26.867323 16.998047 28.472656 C 16.886047 30.040656 16.830078 31.629042 16.830078 33.234375 C 16.830078 35.586375 17.146583 37.919708 17.78125 40.234375 C 18.45325 42.549042 19.406672 44.619885 20.638672 46.449219 C 21.870672 48.278552 23.362521 49.772354 25.117188 50.929688 C 26.909187 52.049688 28.926016 52.609375 31.166016 52.609375 C 32.510016 52.609375 33.835911 52.348839 35.142578 51.826172 C 36.486578 51.303505 37.661922 50.573958 38.669922 49.640625 C 39.715255 48.707292 40.554786 47.568609 41.189453 46.224609 C 41.861453 44.880609 42.197266 43.369453 42.197266 41.689453 C 42.197266 40.905453 42.067974 40.121891 41.806641 39.337891 C 41.545307 38.553891 41.17088 37.882266 40.685547 37.322266 C 40.237547 36.762266 39.697167 36.295208 39.0625 35.921875 C 38.427833 35.548542 37.736901 35.361328 36.990234 35.361328 C 36.504901 35.361328 36.018536 35.436604 35.533203 35.585938 C 35.04787 35.735271 34.60012 35.978453 34.189453 36.314453 C 33.778786 36.61312 33.442974 37.004901 33.181641 37.490234 C 32.920307 37.938234 32.789062 38.459307 32.789062 39.056641 C 32.789062 39.467307 32.902953 39.805073 33.126953 40.066406 C 33.350953 40.32774 33.61149 40.457031 33.910156 40.457031 C 34.320823 40.457031 34.581359 40.32774 34.693359 40.066406 C 34.842693 39.805073 34.973937 39.523276 35.085938 39.224609 C 35.197938 38.888609 35.365844 38.591411 35.589844 38.330078 C 35.851177 38.068745 36.318234 37.9375 36.990234 37.9375 C 37.848901 37.9375 38.539833 38.329281 39.0625 39.113281 C 39.6225 39.897281 39.902344 40.75612 39.902344 41.689453 C 39.902344 42.99612 39.639854 44.171464 39.117188 45.216797 C 38.594521 46.26213 37.905542 47.140276 37.046875 47.849609 C 36.225542 48.558943 35.291427 49.099323 34.246094 49.472656 C 33.238094 49.84599 32.211349 50.033203 31.166016 50.033203 C 29.262016 50.033203 27.563646 49.529484 26.070312 48.521484 C 24.576979 47.476151 23.307052 46.150255 22.261719 44.544922 C 21.253719 42.939589 20.470156 41.148589 19.910156 39.169922 C 19.38749 37.191255 19.126953 35.213042 19.126953 33.234375 C 19.126953 31.853042 19.163615 30.45187 19.238281 29.033203 C 19.350281 27.577203 19.518187 26.13937 19.742188 24.720703 C 20.563521 25.01937 21.497635 25.169922 22.542969 25.169922 C 24.670969 25.169922 26.778474 24.778141 28.869141 23.994141 C 30.997141 23.210141 32.902031 22.088813 34.582031 20.632812 C 36.299365 19.139479 37.681229 17.329172 38.726562 15.201172 C 39.809229 13.073172 40.349609 10.68387 40.349609 8.0332031 C 40.349609 7.1745365 40.218365 6.3350052 39.957031 5.5136719 C 39.733031 4.6550052 39.379865 3.9081042 38.894531 3.2734375 C 38.446531 2.6387708 37.886844 2.1350521 37.214844 1.7617188 C 36.580177 1.3510521 35.85063 1.1464844 35.029297 1.1464844 z M 35.029297 3.7207031 C 35.51463 3.7207031 35.945026 3.8519479 36.318359 4.1132812 C 36.691693 4.3746146 37.008198 4.7297344 37.269531 5.1777344 C 37.530865 5.588401 37.718078 6.0554583 37.830078 6.578125 C 37.979411 7.0634583 38.054688 7.5478698 38.054688 8.0332031 C 38.054688 10.273203 37.568323 12.307385 36.597656 14.136719 C 35.664323 15.966052 34.450365 17.515823 32.957031 18.785156 C 31.501031 20.017156 29.841276 20.968625 27.974609 21.640625 C 26.145276 22.275292 24.334969 22.59375 22.542969 22.59375 C 21.758969 22.59375 20.99276 22.481813 20.246094 22.257812 C 20.694094 20.279146 21.329057 18.206349 22.150391 16.041016 C 22.971724 13.838349 23.998469 11.840828 25.230469 10.048828 C 26.462469 8.2194948 27.900302 6.7083385 29.542969 5.5136719 C 31.185635 4.3190052 33.013297 3.7207031 35.029297 3.7207031 z "
     id="text939" /></svg>
