<?xml version="1.0" encoding="UTF-8" standalone="no"?><!DOCTYPE svg  PUBLIC '-//W3C//DTD SVG 1.1//EN'  'http://www.w3.org/Graphics/SVG/1.1/DTD/svg11.dtd' [
	<!ENTITY stroke_color "#010101">
	<!ENTITY fill_color "#FFFFFF">
]>
<svg
   xmlns:dc="http://purl.org/dc/elements/1.1/"
   xmlns:cc="http://creativecommons.org/ns#"
   xmlns:rdf="http://www.w3.org/1999/02/22-rdf-syntax-ns#"
   xmlns:svg="http://www.w3.org/2000/svg"
   xmlns="http://www.w3.org/2000/svg"
   xmlns:sodipodi="http://sodipodi.sourceforge.net/DTD/sodipodi-0.dtd"
   xmlns:inkscape="http://www.inkscape.org/namespaces/inkscape"
   enable-background="new 0 0 55 55"
   height="55px"
   version="1.1"
   viewBox="0 0 55 55"
   width="55px"
   x="0px"
   xml:space="preserve"
   y="0px"
   id="svg925"
   sodipodi:docname="activity-icon.svg"
   inkscape:version="0.92.3 (2405546, 2018-03-11)"><metadata
   id="metadata882"><rdf:RDF><cc:Work
       rdf:about=""><dc:format>image/svg+xml</dc:format><dc:type
         rdf:resource="http://purl.org/dc/dcmitype/StillImage" /></cc:Work></rdf:RDF></metadata><defs
   id="defs880" /><sodipodi:namedview
   pagecolor="#ffffff"
   bordercolor="#666666"
   borderopacity="1"
   objecttolerance="10"
   gridtolerance="10"
   guidetolerance="10"
   inkscape:pageopacity="0"
   inkscape:pageshadow="2"
   inkscape:window-width="1533"
   inkscape:window-height="845"
   id="namedview878"
   showgrid="false"
   inkscape:zoom="12.072727"
   inkscape:cx="27.582831"
   inkscape:cy="34.126506"
   inkscape:window-x="67"
   inkscape:window-y="27"
   inkscape:window-maximized="1"
   inkscape:current-layer="svg925" />
   <g
   aria-label="C"
   style="font-style:normal;font-variant:normal;font-weight:normal;font-stretch:normal;font-size:40px;line-height:1.25;font-family:'Cursive standard';-inkscape-font-specification:'Cursive standard';letter-spacing:0px;word-spacing:0px;fill:&stroke_color;;fill-opacity:1;stroke:none"
   id="text935"
   transform="translate(10)"><path
     d="m 42.198,41.689577 q 0,2.52 -1.008,4.536 -0.952,2.016 -2.52,3.416 -1.512,1.4 -3.528,2.184 -1.96,0.784 -3.976,0.784 -3.36,0 -6.048,-1.68 -2.632,-1.736 -4.48,-4.48 -1.848,-2.744 -2.856,-6.216 -0.952,-3.472 -0.952,-7 0,-2.408 0.168,-4.76 0.168,-2.408 0.616,-4.76 -2.52,-1.68 -3.752,-4.592 -1.232,-2.912 -1.232,-6.104 0,-2.688 1.064,-4.872 1.008,-2.184 2.688,-3.752 1.68,-1.568 3.808,-2.408 2.128,-0.84 4.312,-0.84 0.448,0 0.784,0.392 0.392,0.336 0.392,0.896 0,0.56 -0.392,0.952 -0.336,0.336 -0.784,0.336 -1.736,0 -3.472,0.672 -1.68,0.616 -3.08,1.848 -1.344,1.176 -2.184,2.912 -0.84,1.736 -0.84,3.864 0,2.24 0.784,4.424 0.784,2.128 2.408,3.528 0.784,-3.416 2.24,-6.888 1.456,-3.528 3.528,-6.384 2.128,-2.912 4.872,-4.704 2.8,-1.848 6.272,-1.848 1.232,0 2.184,0.616 1.008,0.56 1.68,1.512 0.728,0.952 1.064,2.24 0.392,1.232 0.392,2.52 0,3.976 -1.624,7.168 -1.568,3.192 -4.144,5.432 -2.52,2.184 -5.712,3.36 -3.136,1.176 -6.328,1.176 -1.568,0 -2.8,-0.448 -0.336,2.128 -0.504,4.312 -0.112,2.128 -0.112,4.2 0,2.968 0.784,5.936 0.84,2.968 2.352,5.376 1.568,2.408 3.808,3.976 2.24,1.512 5.096,1.512 1.568,0 3.08,-0.56 1.568,-0.56 2.8,-1.624 1.288,-1.064 2.072,-2.632 0.784,-1.568 0.784,-3.528 0,-1.4 -0.84,-2.576 -0.784,-1.176 -2.072,-1.176 -1.008,0 -1.4,0.392 -0.336,0.392 -0.504,0.896 -0.168,0.448 -0.392,0.84 -0.168,0.392 -0.784,0.392 -0.448,0 -0.784,-0.392 -0.336,-0.392 -0.336,-1.008 0,-0.896 0.392,-1.568 0.392,-0.728 1.008,-1.176 0.616,-0.504 1.344,-0.728 0.728,-0.224 1.456,-0.224 1.12,0 2.072,0.56 0.952,0.56 1.624,1.4 0.728,0.84 1.12,2.016 0.392,1.176 0.392,2.352 z m -4.144,-33.656 q 0,-0.728 -0.224,-1.456 -0.168,-0.784 -0.56,-1.4 -0.392,-0.672 -0.952,-1.064 -0.56,-0.392 -1.288,-0.392 -3.024,0 -5.488,1.792 -2.464,1.792 -4.312,4.536 -1.848,2.688 -3.08,5.992 -1.232,3.248 -1.904,6.216 1.12,0.336 2.296,0.336 2.688,0 5.432,-0.952 2.8,-1.008 4.984,-2.856 2.24,-1.904 3.64,-4.648 1.456,-2.744 1.456,-6.104 z"
     style="font-size:56px"
     id="path965"
     inkscape:connector-curvature="0" /></g><path
   style="font-style:normal;font-variant:normal;font-weight:normal;font-stretch:normal;font-size:40px;line-height:1.25;font-family:'Cursive standard';-inkscape-font-specification:'Cursive standard';letter-spacing:0px;word-spacing:0px;fill:&fill_color;;fill-opacity:1;stroke:none"
   d="m 45.029297,1.1464844 c -2.314667,0 -4.404818,0.6156562 -6.271485,1.8476562 -1.829333,1.1946667 -3.452427,2.7617917 -4.871093,4.703125 -1.381334,1.904 -2.55863,4.0327654 -3.529297,6.3847654 -0.970667,2.314667 -1.717568,4.609386 -2.240234,6.886719 -1.082667,-0.933333 -1.883584,-2.108677 -2.40625,-3.527344 -0.337488,-0.940144 -0.556211,-1.88804 -0.675782,-2.84375 l -2.009765,1.886719 c 0.202642,0.896146 0.47228,1.777166 0.835937,2.636719 0.821333,1.941333 2.071953,3.471797 3.751953,4.591797 -0.298666,1.568 -0.503234,3.154432 -0.615234,4.759765 -0.112,1.568 -0.167969,3.156386 -0.167969,4.761719 0,2.352 0.316505,4.685333 0.951172,7 0.672,2.314667 1.625422,4.38551 2.857422,6.214844 1.232,1.829333 2.723849,3.323135 4.478516,4.480469 1.791999,1.12 3.808828,1.679687 6.048828,1.679687 1.344,0 2.669895,-0.260536 3.976562,-0.783203 1.344,-0.522667 2.519344,-1.252214 3.527344,-2.185547 1.045333,-0.933333 1.884864,-2.072016 2.519531,-3.416016 0.672,-1.344 1.007813,-2.855156 1.007813,-4.535156 0,-0.784 -0.129292,-1.567562 -0.390625,-2.351562 -0.261334,-0.784 -0.635761,-1.455625 -1.121094,-2.015625 -0.448,-0.56 -0.98838,-1.027058 -1.623047,-1.400391 -0.634667,-0.373333 -1.325599,-0.560547 -2.072266,-0.560547 -0.485333,0 -0.971698,0.07528 -1.457031,0.22461 -0.485333,0.149333 -0.933083,0.392515 -1.34375,0.728515 -0.410667,0.298667 -0.746479,0.690448 -1.007812,1.175781 -0.261334,0.448 -0.392579,0.969073 -0.392579,1.566407 0,0.410666 0.113891,0.748432 0.337891,1.009765 0.224,0.261334 0.484537,0.390625 0.783203,0.390625 0.410667,0 0.671203,-0.129291 0.783203,-0.390625 0.149334,-0.261333 0.280578,-0.54313 0.392579,-0.841797 0.112,-0.336 0.279906,-0.633198 0.503906,-0.894531 0.261333,-0.261333 0.72839,-0.392578 1.40039,-0.392578 0.858667,0 1.549599,0.391781 2.072266,1.175781 0.56,0.784 0.839844,1.642839 0.839844,2.576172 0,1.306667 -0.26249,2.482011 -0.785156,3.527344 -0.522667,1.045333 -1.211646,1.923479 -2.070313,2.632812 -0.821333,0.709334 -1.755448,1.249714 -2.800781,1.623047 -1.008,0.373334 -2.034745,0.560547 -3.080078,0.560547 -1.904,0 -3.60237,-0.503719 -5.095704,-1.511719 -1.493333,-1.045333 -2.76326,-2.371229 -3.808593,-3.976562 -1.008,-1.605333 -1.791563,-3.396333 -2.351563,-5.375 -0.522666,-1.978667 -0.783203,-3.95688 -0.783203,-5.935547 0,-1.381333 0.03666,-2.782505 0.111328,-4.201172 0.112,-1.456 0.279906,-2.893833 0.503907,-4.3125 0.821333,0.298667 1.755447,0.449219 2.800781,0.449219 2.128,0 4.235505,-0.391781 6.326172,-1.175781 2.128,-0.784 4.03289,-1.905328 5.71289,-3.361329 1.717334,-1.493333 3.099198,-3.30364 4.144531,-5.43164 1.082667,-2.128 1.623047,-4.517302 1.623047,-7.1679689 0,-0.8586666 -0.131244,-1.6981979 -0.392578,-2.5195312 -0.224,-0.8586667 -0.577166,-1.6055677 -1.0625,-2.2402344 C 48.446531,2.6387708 47.886844,2.1350521 47.214844,1.7617188 46.580177,1.3510521 45.85063,1.1464844 45.029297,1.1464844 Z m 0,2.5742187 c 0.485333,0 0.915729,0.1312448 1.289062,0.3925781 0.373334,0.2613334 0.689839,0.6164532 0.951172,1.0644532 0.261334,0.4106666 0.448547,0.8777239 0.560547,1.4003906 0.149333,0.4853333 0.22461,0.9697448 0.22461,1.4550781 0,2.2399999 -0.486365,4.2741819 -1.457032,6.1035159 -0.933333,1.829333 -2.147291,3.379104 -3.640625,4.648437 -1.456,1.232 -3.115755,2.183469 -4.982422,2.855469 -1.829333,0.634667 -3.63964,0.953125 -5.43164,0.953125 -0.784,0 -1.550209,-0.111937 -2.296875,-0.335938 0.448,-1.978666 1.082963,-4.051463 1.904297,-6.216796 0.821333,-2.202667 1.848078,-4.200188 3.080078,-5.992188 1.232,-1.8293332 2.669833,-3.3404895 4.3125,-4.5351561 1.642666,-1.1946667 3.470328,-1.7929688 5.486328,-1.7929688 z"
   id="text939"
   inkscape:connector-curvature="0" /><g
   style="fill:&stroke_color;"
   id="g973"
   transform="matrix(0.144,0.24941532,-0.24941532,0.144,19.860922,4.3899573)"><g
     id="g961"><path
       id="path959"
       d="m 70.385,95.116 c -1.594,0 -2.887,-1.293 -2.887,-2.887 v -0.854 c 0,-4.75 1.955,-7.268 4.067,-9.283 3.875,-3.893 4.594,-7.355 4.594,-12.752 V 42.575 c 0,-0.877 -1.103,-1.823 -2.885,-1.823 -0.863,0 -2.31,0.237 -2.31,1.823 v 3.735 c 0,1.594 -1.293,2.887 -2.887,2.887 h -0.11 c -1.594,0 -2.887,-1.293 -2.887,-2.887 v -8.563 c 0,-0.842 -1.349,-1.82 -3.088,-1.82 -1.741,0 -3.091,0.978 -3.091,1.82 v 8.563 c 0,1.594 -1.293,2.887 -2.887,2.887 -1.594,0 -2.887,-1.293 -2.887,-2.887 V 32.789 c 0,-0.842 -1.349,-1.82 -3.088,-1.82 -1.741,0 -3.092,0.978 -3.092,1.82 V 46.31 c 0,1.594 -1.293,2.887 -2.887,2.887 -1.594,0 -2.887,-1.293 -2.887,-2.887 V 12.479 c 0,-0.842 -1.35,-1.82 -3.092,-1.82 -1.74,0 -3.089,0.978 -3.089,1.82 V 61.57 c 0,1.594 -1.293,2.887 -2.887,2.887 -1.594,0 -2.887,-1.293 -2.887,-2.887 V 42.722 c 0,-1.073 -1.073,-1.823 -2.608,-1.823 -1.577,0 -2.765,0.784 -2.765,1.823 V 69.34 c 0,5.393 0,8.1 6.803,12.49 0.487,0.325 0.925,0.606 1.348,0.878 2.93,1.882 6.251,4.016 6.251,8.668 v 0.854 c 0,1.594 -1.293,2.887 -2.887,2.887 -1.594,0 -2.887,-1.293 -2.887,-2.887 v -0.854 c 0,-1.351 -0.728,-1.966 -3.598,-3.809 -0.451,-0.29 -0.918,-0.59 -1.396,-0.909 -8.772,-5.661 -9.408,-10.32 -9.408,-17.317 V 42.722 c 0,-4.26 3.751,-7.598 8.54,-7.598 0.919,0 1.794,0.121 2.608,0.346 V 12.479 c 0,-4.188 3.976,-7.595 8.864,-7.595 4.889,0 8.867,3.407 8.867,7.595 v 13.192 c 0.963,-0.308 2.005,-0.477 3.092,-0.477 4.058,0 7.489,2.35 8.535,5.546 1.052,-0.378 2.208,-0.587 3.419,-0.587 3.935,0 7.28,2.209 8.433,5.257 0.875,-0.281 1.831,-0.432 2.849,-0.432 4.856,0 8.66,3.337 8.66,7.598 V 69.34 c 0,6.496 -1.059,11.586 -6.33,16.88 -1.344,1.283 -2.331,2.44 -2.331,5.156 v 0.854 c -0.005,1.593 -1.298,2.886 -2.892,2.886 z"
       inkscape:connector-curvature="0" /></g></g></svg>
