<?xml version="1.0" encoding="UTF-8" standalone="no"?>
<!DOCTYPE svg  PUBLIC '-//W3C//DTD SVG 1.1//EN'  'http://www.w3.org/Graphics/SVG/1.1/DTD/svg11.dtd' [
	<!ENTITY stroke_color "#010101">
	<!ENTITY fill_color "#FFFFFF">
]>
<svg
   xmlns:dc="http://purl.org/dc/elements/1.1/"
   xmlns:cc="http://creativecommons.org/ns#"
   xmlns:rdf="http://www.w3.org/1999/02/22-rdf-syntax-ns#"
   xmlns:svg="http://www.w3.org/2000/svg"
   xmlns="http://www.w3.org/2000/svg"
   xmlns:sodipodi="http://sodipodi.sourceforge.net/DTD/sodipodi-0.dtd"
   xmlns:inkscape="http://www.inkscape.org/namespaces/inkscape"
   inkscape:version="1.0beta1 (32d4812, 2019-09-19)"
   sodipodi:docname="noun_fairy lights_2075573.svg"
   id="svg46"
   version="1.1"
   y="0px"
   x="0px"
   viewBox="0 0 35.2 35.2"
   fill="#000000"
   width="55"
   height="55">
  <metadata
     id="metadata52">
    <rdf:RDF>
      <cc:Work
         rdf:about="">
        <dc:format>image/svg+xml</dc:format>
        <dc:type
           rdf:resource="http://purl.org/dc/dcmitype/StillImage" />
        <dc:title>icn_party_fairyLight</dc:title>
      </cc:Work>
    </rdf:RDF>
  </metadata>
  <defs
     id="defs50" />
  <sodipodi:namedview
     inkscape:current-layer="svg46"
     inkscape:window-maximized="0"
     inkscape:window-y="25"
     inkscape:window-x="0"
     inkscape:cy="61.884946"
     inkscape:cx="-16.532567"
     inkscape:zoom="3.0447807"
     showgrid="false"
     id="namedview48"
     inkscape:window-height="785"
     inkscape:window-width="1440"
     inkscape:pageshadow="2"
     inkscape:pageopacity="0"
     guidetolerance="10"
     gridtolerance="10"
     objecttolerance="10"
     borderopacity="1"
     inkscape:document-rotation="0"
     bordercolor="#666666"
     pagecolor="#ffffff" />
  <title
     id="title10">icn_party_fairyLight</title>
  <g
     transform="matrix(0.57998674,0,0,0.57998674,-1.0166911,-0.48389827)"
     id="g111">
    <ellipse
       ry="2.3860445"
       rx="2.8493967"
       cy="21.860357"
       cx="43.930912"
       id="path54-5"
       style="fill:&fill_color;;stroke:#0000ff;stroke-width:0.64" />
    <ellipse
       ry="2.3860445"
       rx="2.8493967"
       cy="46.453262"
       cx="30.898777"
       id="path54-4"
       style="fill:&fill_color;;stroke:#0000ff;stroke-width:0.64" />
    <ellipse
       ry="2.3860445"
       rx="2.8493967"
       cy="47.294044"
       cx="46.66346"
       id="path54-9"
       style="fill:&stroke_color;;stroke:#ff0000;stroke-width:0.64" />
    <ellipse
       ry="2.3860445"
       rx="2.8493967"
       cy="26.274471"
       cx="28.796822"
       id="path54-7"
       style="fill:&stroke_color;;stroke:#ff0000;stroke-width:0.64" />
    <ellipse
       style="fill:&stroke_color;;stroke:#ff0000;stroke-width:0.64"
       id="path54"
       cx="15.017243"
       cy="42.806046"
       rx="2.8493967"
       ry="2.3860445" />
    <path
       inkscape:connector-curvature="0"
       d="m 30.21,31.77 a 0.76,0.76 0 0 0 -0.52,0.93 l 0.44,1.55 a 0.76,0.76 0 0 0 0.73,0.54 h 0.2 a 0.74,0.74 0 0 0 0.52,-0.92 l -0.44,-1.55 a 0.76,0.76 0 0 0 -0.93,-0.55 z"
       id="path12" />
    <path
       inkscape:connector-curvature="0"
       d="m 33.89,29.35 a 0.75,0.75 0 0 0 -0.73,1.31 l 2.08,1.16 a 0.7,0.7 0 0 0 0.36,0.1 0.75,0.75 0 0 0 0.4,-1.41 z"
       id="path14" />
    <path
       inkscape:connector-curvature="0"
       d="m 25.61,31.71 -0.88,1.59 a 0.76,0.76 0 0 0 0.29,1 0.81,0.81 0 0 0 0.37,0.09 A 0.74,0.74 0 0 0 26,34 l 0.88,-1.59 a 0.74,0.74 0 0 0 -0.29,-1 0.75,0.75 0 0 0 -0.98,0.3 z"
       id="path16" />
    <path
       inkscape:connector-curvature="0"
       d="m 46.48,26.65 a 0.75,0.75 0 0 0 -0.26,1 l 0.83,1.38 a 0.75,0.75 0 0 0 0.65,0.37 0.76,0.76 0 0 0 0.38,-0.11 0.75,0.75 0 0 0 0.26,-1 l -0.83,-1.38 a 0.75,0.75 0 0 0 -1.03,-0.26 z"
       id="path18" />
    <path
       inkscape:connector-curvature="0"
       d="m 48.49,23.9 a 0.75,0.75 0 0 0 0.55,0.91 l 2.31,0.58 h 0.18 a 0.76,0.76 0 0 0 0.73,-0.57 0.75,0.75 0 0 0 -0.55,-0.91 L 49.4,23.34 a 0.75,0.75 0 0 0 -0.91,0.56 z"
       id="path20" />
    <path
       inkscape:connector-curvature="0"
       d="m 42,27.79 -0.44,1.76 a 0.75,0.75 0 0 0 0.54,0.91 h 0.19 a 0.75,0.75 0 0 0 0.72,-0.57 l 0.44,-1.76 A 0.75,0.75 0 1 0 42,27.79 Z"
       id="path22" />
    <path
       inkscape:connector-curvature="0"
       d="m 12.47,20.49 v 0 a 87.86,87.86 0 0 0 13.34,-1.55 1,1 0 0 0 0,0.46 l 0.07,0.12 h -0.12 a 1.23,1.23 0 0 0 -1.05,1.34 l 0.55,3.26 c -0.07,0.11 -0.16,0.21 -0.23,0.33 A 4.34,4.34 0 0 0 28.82,30.89 4.35,4.35 0 0 0 33,25.4 v 0 a 4.32,4.32 0 0 0 -2.24,-2.67 l -1.3,-3.18 A 1.2,1.2 0 0 0 27.87,19 H 27.6 a 0.34,0.34 0 0 0 0,-0.14 1,1 0 0 0 -0.14,-0.27 l 0.3,-0.05 a 69.8,69.8 0 0 0 11.17,-3.3 1,1 0 0 0 0.11,0.57 l 0.1,0.1 L 39,16 a 1.22,1.22 0 0 0 -0.66,1.56 l 1.38,3 a 4.31,4.31 0 0 0 0.35,3.66 4.36,4.36 0 0 0 2.67,2 4.71,4.71 0 0 0 1.05,0.13 4.37,4.37 0 0 0 2.21,-0.63 4.36,4.36 0 0 0 1.49,-5.95 4.37,4.37 0 0 0 -2.86,-2 L 42.57,15 a 1.21,1.21 0 0 0 -1.69,-0.15 l -0.23,0.14 a 0.69,0.69 0 0 0 0,-0.13 0.7,0.7 0 0 0 -0.2,-0.22 A 47.89,47.89 0 0 0 49.28,10 1,1 0 0 0 49.5,8.6 1,1 0 0 0 48.11,8.37 c -0.08,0.06 -7.85,5.57 -20.77,8.24 a 89.9,89.9 0 0 1 -14.89,1.88 1,1 0 0 0 -1,1 1,1 0 0 0 1.02,1 z m 17.17,3.92 a 2.33,2.33 0 1 1 -2.84,1 3,3 0 0 1 0.2,-0.29 z M 27.91,21 28.56,22.6 27.13,23 26.84,21.29 Z M 44,19.7 a 2.32,2.32 0 0 1 1,4.3 2.26,2.26 0 0 1 -1.76,0.26 2.29,2.29 0 0 1 -1.43,-1.06 2.34,2.34 0 0 1 -0.15,-2.1 z m -2.54,-2.82 1,1.38 -1.23,0.74 -0.72,-1.58 z"
       id="path24" />
    <path
       inkscape:connector-curvature="0"
       d="m 12.79,50.08 0.6,-1.5 a 0.74,0.74 0 0 0 -0.42,-1 A 0.74,0.74 0 0 0 12,48 l -0.6,1.49 a 0.76,0.76 0 0 0 0.42,1 0.87,0.87 0 0 0 0.28,0 0.75,0.75 0 0 0 0.69,-0.41 z"
       id="path26" />
    <path
       inkscape:connector-curvature="0"
       d="m 17.61,51.17 a 0.8,0.8 0 0 0 0.3,-0.06 0.74,0.74 0 0 0 0.39,-1 l -0.94,-2.19 a 0.74,0.74 0 0 0 -1,-0.39 0.75,0.75 0 0 0 -0.4,1 l 0.95,2.19 a 0.74,0.74 0 0 0 0.7,0.45 z"
       id="path28" />
    <path
       inkscape:connector-curvature="0"
       d="M 8,46.91 A 0.8,0.8 0 0 0 8.3,46.85 L 10,46.13 A 0.75041655,0.75041655 0 0 0 9.41,44.75 L 7.74,45.47 A 0.75,0.75 0 0 0 8,46.91 Z"
       id="path30" />
    <path
       inkscape:connector-curvature="0"
       d="m 30.51,55.06 a 0.76,0.76 0 0 0 0.75,-0.7 l 0.11,-1.61 a 0.75166482,0.75166482 0 0 0 -1.5,-0.1 l -0.11,1.61 a 0.76,0.76 0 0 0 0.7,0.8 z"
       id="path32" />
    <path
       inkscape:connector-curvature="0"
       d="m 36,54 a 0.75,0.75 0 0 0 0.57,-1.24 L 35,50.92 a 0.75447001,0.75447001 0 0 0 -1.13,1 l 1.57,1.79 A 0.76,0.76 0 0 0 36,54 Z"
       id="path34" />
    <path
       inkscape:connector-curvature="0"
       d="m 26,52.66 1.36,-1.19 a 0.75,0.75 0 0 0 0.08,-1.06 0.76,0.76 0 0 0 -1.06,-0.07 L 25,51.53 a 0.75,0.75 0 0 0 0.5,1.32 0.77,0.77 0 0 0 0.5,-0.19 z"
       id="path36" />
    <path
       inkscape:connector-curvature="0"
       d="m 48.1,55.57 h 0.15 a 0.74,0.74 0 0 0 0.59,-0.88 l -0.31,-1.58 a 0.75,0.75 0 0 0 -1.47,0.29 l 0.31,1.6 a 0.75,0.75 0 0 0 0.73,0.57 z"
       id="path38" />
    <path
       inkscape:connector-curvature="0"
       d="m 53.07,53.09 a 0.77,0.77 0 0 0 0.63,-0.33 0.74,0.74 0 0 0 -0.21,-1 l -2,-1.33 a 0.7502333,0.7502333 0 1 0 -0.83,1.25 l 2,1.32 a 0.71,0.71 0 0 0 0.41,0.09 z"
       id="path40" />
    <path
       inkscape:connector-curvature="0"
       d="m 43.31,54.4 1,-1.5 a 0.74,0.74 0 0 0 -0.21,-1 0.75,0.75 0 0 0 -1,0.2 l -1,1.51 a 0.75,0.75 0 0 0 0.21,1 0.72,0.72 0 0 0 0.42,0.13 0.74,0.74 0 0 0 0.58,-0.34 z"
       id="path42" />
    <path
       inkscape:connector-curvature="0"
       d="m 8.57,31.55 a 66.43,66.43 0 0 0 8.57,3.45 0.5,0.5 0 0 0 -0.08,0.12 c 0,0 0,0.09 0,0.13 h -0.12 a 1.2,1.2 0 0 0 -1.64,0.42 l -1.55,2.91 a 4.32,4.32 0 0 0 -0.28,8.13 4.46,4.46 0 0 0 1.6,0.31 4.27,4.27 0 0 0 1.71,-0.36 A 4.34,4.34 0 0 0 19,41 1.4,1.4 0 0 1 18.91,40.83 L 19.82,37.5 C 20,37 19.8,36.37 18.94,36 l -0.25,-0.1 a 1.25,1.25 0 0 0 0.08,-0.12 1,1 0 0 0 0,-0.25 82.58,82.58 0 0 0 12.1,2.83 0.84,0.84 0 0 0 -0.16,0.44 0.3,0.3 0 0 0 0,0.13 h -0.13 a 1.19,1.19 0 0 0 -1.43,0.9 l -0.59,3.25 a 2.52,2.52 0 0 0 -0.33,0.24 4.26,4.26 0 0 0 -1.47,3 4.31,4.31 0 0 0 4,4.62 h 0.3 a 4.31,4.31 0 0 0 3.12,-7.31 l -0.15,-3.42 c 0,-0.47 -0.36,-1 -1.3,-1.11 h -0.27 a 0.5,0.5 0 0 0 0,-0.13 0.93,0.93 0 0 0 0,-0.33 l 0.6,0.09 a 73,73 0 0 0 9.23,0.59 c 0.7,0 1.37,0 2,0 a 0.89,0.89 0 0 0 -0.08,0.54 1.39,1.39 0 0 0 0.06,0.13 h -0.12 c -0.92,0.18 -1.2,0.79 -1.15,1.25 l 0.27,3.29 a 4.31,4.31 0 0 0 3.34,7 4.78,4.78 0 0 0 0.84,-0.08 4.31,4.31 0 0 0 2.76,-1.84 4.31,4.31 0 0 0 -1.36,-6.1 l -1,-3.29 a 1.2,1.2 0 0 0 -1.53,-0.7 l -0.27,0.05 a 0.66,0.66 0 0 0 0,-0.14 A 0.8,0.8 0 0 0 46,39.2 50.35,50.35 0 0 0 56.28,37.74 1,1 0 0 0 55.74,35.82 c -0.09,0 -9.24,2.57 -22.34,0.91 a 79.27,79.27 0 0 1 -23.9,-7 1.0018483,1.0018483 0 0 0 -0.92,1.78 z m 8.11,5.73 1,0.41 -0.46,1.68 -1.39,-0.56 z m 0.53,6.24 v 0 a 2.33,2.33 0 1 1 -4.33,-1.72 2.3,2.3 0 0 1 1.6,-1.38 l 2.54,1 a 3.07,3.07 0 0 1 0.17,0.31 2.25,2.25 0 0 1 0.02,1.79 z M 31,41 l 1.11,0.07 0.07,1.74 -1.49,-0.1 z m 1.59,3.84 a 2.33,2.33 0 0 1 0.83,1.94 2.33,2.33 0 0 1 -4.08,1.37 2.34,2.34 0 0 1 0.22,-3.29 3.06,3.06 0 0 1 0.29,-0.21 z m 15,0.28 a 2.35,2.35 0 0 1 1.41,1.65 2.31,2.31 0 0 1 -0.35,1.75 2.33,2.33 0 0 1 -4.22,-0.85 2.3,2.3 0 0 1 0.58,-2 z m -1.35,-3.52 0.52,1.66 -1.47,0.29 -0.15,-1.73 z"
       id="path44" />
  </g>
</svg>
