<?xml version="1.0" encoding="UTF-8" standalone="no"?>
<!DOCTYPE svg  PUBLIC '-//W3C//DTD SVG 1.1//EN'  'http://www.w3.org/Graphics/SVG/1.1/DTD/svg11.dtd' [
	<!ENTITY stroke_color "#010101">
	<!ENTITY fill_color "#FFFFFF">
]>
<svg
   xmlns:dc="http://purl.org/dc/elements/1.1/"
   xmlns:cc="http://creativecommons.org/ns#"
   xmlns:rdf="http://www.w3.org/1999/02/22-rdf-syntax-ns#"
   xmlns:svg="http://www.w3.org/2000/svg"
   xmlns="http://www.w3.org/2000/svg"
   xmlns:sodipodi="http://sodipodi.sourceforge.net/DTD/sodipodi-0.dtd"
   xmlns:inkscape="http://www.inkscape.org/namespaces/inkscape"
   inkscape:version="1.0.1 (0767f8302a, 2020-10-17)"
   sodipodi:docname="activity-icon.svg"
   id="svg46"
   version="1.1"
   y="0px"
   x="0px"
   viewBox="0 0 35.2 35.2"
   fill="#000000"
   width="55"
   height="55">
  <style
     id="style853"></style>
  <metadata
     id="metadata52">
    <rdf:RDF>
      <cc:Work
         rdf:about="">
        <dc:format>image/svg+xml</dc:format>
        <dc:type
           rdf:resource="http://purl.org/dc/dcmitype/StillImage" />
        <dc:title>icn_party_fairyLight</dc:title>
      </cc:Work>
    </rdf:RDF>
  </metadata>
  <defs
     id="defs50" />
  <sodipodi:namedview
     inkscape:current-layer="svg46"
     inkscape:window-maximized="1"
     inkscape:window-y="27"
     inkscape:window-x="72"
     inkscape:cy="29.043731"
     inkscape:cx="25.064348"
     inkscape:zoom="11.313708"
     showgrid="false"
     id="namedview48"
     inkscape:window-height="845"
     inkscape:window-width="1528"
     inkscape:pageshadow="2"
     inkscape:pageopacity="0"
     guidetolerance="10"
     gridtolerance="10"
     objecttolerance="10"
     borderopacity="1"
     inkscape:document-rotation="0"
     bordercolor="#666666"
     pagecolor="#ffffff" />
  <title
     id="title10">icn_party_fairyLight</title>
  <ellipse
     ry="1.9643492"
     rx="2.039654"
     cy="21.685619"
     cx="15.1154"
     id="path54-4"
     style="stroke-width:0.767665;fill:&fill_color;"
     transform="rotate(-7.0000002)" />
  <ellipse
     ry="1.7079774"
     rx="2.039654"
     cy="22.031096"
     cx="26.400068"
     id="path54-9"
     style="stroke-width:0.71582;fill:&stroke_color;"
     transform="rotate(-7.0000002)" />
  <ellipse
     id="path54"
     cx="3.7470872"
     cy="18.818499"
     rx="2.039654"
     ry="1.7079774"
     style="stroke-width:0.71582;fill:&stroke_color;"
     transform="rotate(-7.0000002)" />
  <path
     inkscape:connector-curvature="0"
     d="M 5.0646884,23.583898 5.3601241,22.465831 A 0.52970651,0.52970651 0 0 0 4.9744843,21.791986 0.52970651,0.52970651 0 0 0 4.3219542,22.175008 L 4.025646,23.28597 a 0.54402289,0.54402289 0 0 0 0.3856399,0.673845 0.62276305,0.62276305 0 0 0 0.1989355,-0.02443 0.53686469,0.53686469 0 0 0 0.454467,-0.351491 z"
     id="path26"
     style="stroke-width:0.71582" />
  <path
     inkscape:connector-curvature="0"
     d="m 8.5843089,23.937845 a 0.57265568,0.57265568 0 0 0 0.2079109,-0.0688 0.52970651,0.52970651 0 0 0 0.1898522,-0.744506 L 8.1231694,21.650581 A 0.52970651,0.52970651 0 0 0 7.3786632,21.460729 0.53686469,0.53686469 0 0 0 7.1817061,22.206108 l 0.8660076,1.473085 a 0.52970651,0.52970651 0 0 0 0.5365952,0.258652 z"
     id="path28"
     style="stroke-width:0.71582" />
  <path
     inkscape:connector-curvature="0"
     d="m 1.3849305,21.749527 a 0.57265568,0.57265568 0 0 0 0.2079109,-0.0688 L 2.737854,21.020876 A 0.53716317,0.53716317 0 0 0 2.198282,20.091877 l -1.1236978,0.657234 a 0.53686469,0.53686469 0 0 0 0.3103463,1.000416 z"
     id="path30"
     style="stroke-width:0.71582" />
  <path
     inkscape:connector-curvature="0"
     d="m 18.088902,25.576278 a 0.54402289,0.54402289 0 0 0 0.471797,-0.562766 l -0.06229,-1.153476 a 0.5380567,0.5380567 0 0 0 -1.07445,0.05981 l 0.0623,1.153474 a 0.54402289,0.54402289 0 0 0 0.567129,0.507323 z"
     id="path32"
     style="stroke-width:0.71582" />
  <path
     inkscape:connector-curvature="0"
     d="m 21.896989,24.344237 a 0.53686469,0.53686469 0 0 0 0.296802,-0.930725 l -1.275974,-1.170329 a 0.54006442,0.54006442 0 0 0 -0.715611,0.80906 l 1.271613,1.134806 a 0.54402289,0.54402289 0 0 0 0.42317,0.157188 z"
     id="path34"
     style="stroke-width:0.71582" />
  <path
     inkscape:connector-curvature="0"
     d="m 14.675252,24.264552 0.862447,-0.964117 a 0.53686469,0.53686469 0 0 0 -0.03563,-0.760092 0.54402289,0.54402289 0 0 0 -0.75922,0.04274 l -0.876657,0.965862 a 0.53686469,0.53686469 0 0 0 0.470395,0.894222 0.55118109,0.55118109 0 0 0 0.338667,-0.178611 z"
     id="path36"
     style="stroke-width:0.71582" />
  <path
     inkscape:connector-curvature="0"
     d="m 30.630806,24.404135 0.106575,-0.01309 a 0.52970651,0.52970651 0 0 0 0.342417,-0.676695 l -0.358083,-1.095523 a 0.53686469,0.53686469 0 0 0 -1.019113,0.334279 l 0.359829,1.10973 a 0.53686469,0.53686469 0 0 0 0.568378,0.341294 z"
     id="path38"
     style="stroke-width:0.71582" />
  <path
     inkscape:connector-curvature="0"
     d="m 33.945565,22.20857 a 0.55118109,0.55118109 0 0 0 0.418817,-0.289419 0.52970651,0.52970651 0 0 0 -0.236438,-0.692165 l -1.536993,-0.77047 a 0.53703171,0.53703171 45 1 0 -0.480656,0.960511 l 1.536121,0.763366 a 0.50823192,0.50823192 0 0 0 0.299149,0.02818 z"
     id="path40"
     style="stroke-width:0.71582" />
  <path
     inkscape:connector-curvature="0"
     d="m 27.125522,23.990731 0.579628,-1.152962 a 0.52970651,0.52970651 0 0 0 -0.236438,-0.692163 0.53686469,0.53686469 0 0 0 -0.693037,0.229332 l -0.578756,1.160068 a 0.53686469,0.53686469 0 0 0 0.236438,0.692164 0.51539011,0.51539011 0 0 0 0.309744,0.05573 0.52970651,0.52970651 0 0 0 0.382421,-0.292162 z"
     id="path42"
     style="stroke-width:0.71582" />
  <path
     inkscape:connector-curvature="0"
     d="m 0.4499542,10.786767 a 47.551896,47.551896 0 0 0 6.3898136,1.703554 0.3579098,0.3579098 0 0 0 -0.04637,0.09224 c 0,0 0.00785,0.06394 0.011341,0.09236 l -0.085258,0.01047 a 0.85898352,0.85898352 0 0 0 -1.128555,0.441467 l -0.8473921,2.202725 a 3.0923406,3.0923406 0 0 0 0.510297,5.800661 3.1925555,3.1925555 0 0 0 1.1638177,0.08067 A 3.0565497,3.0565497 0 0 0 7.6011709,20.805966 3.1066571,3.1066571 0 0 0 8.684687,16.590962 1.0021474,1.0021474 0 0 1 8.605913,16.478028 L 8.9619556,14.032734 C 9.046225,13.66179 8.8491684,13.231632 8.2058749,13.043776 L 8.01953,12.994535 a 0.89477449,0.89477449 0 0 0 0.04637,-0.09224 0.7158196,0.7158196 0 0 0 -0.021809,-0.17762 59.112383,59.112383 0 0 0 8.843736,0.955108 0.60128846,0.60128846 0 0 0 -0.0753,0.326571 0.21474588,0.21474588 0 0 0 0.01134,0.09237 l -0.09237,0.01134 a 0.85182532,0.85182532 0 0 0 -0.937479,0.764183 l -0.135663,2.360546 a 1.8038654,1.8038654 0 0 0 -0.213522,0.199305 3.0493915,3.0493915 0 0 0 -0.782702,2.25969 3.0851824,3.0851824 0 0 0 3.244968,2.933489 l 0.213145,-0.02617 a 3.0851824,3.0851824 0 0 0 1.579012,-5.465815 l -0.404924,-2.416769 c -0.041,-0.333928 -0.343011,-0.679079 -1.020462,-0.675231 l -0.191831,0.02355 a 0.3579098,0.3579098 0 0 0 -0.01134,-0.09236 0.66571223,0.66571223 0 0 0 -0.02879,-0.23446 l 0.434143,0.0116 a 52.254831,52.254831 0 0 0 6.609236,-0.386007 c 0.497339,-0.06107 0.973363,-0.119514 1.420968,-0.174473 a 0.63707945,0.63707945 0 0 0 -0.0097,0.390641 0.99498925,0.99498925 0 0 0 0.05397,0.08713 l -0.08526,0.01047 c -0.637942,0.208145 -0.783664,0.665967 -0.70801,0.988427 l 0.478838,2.313939 a 3.0851824,3.0851824 0 0 0 2.983672,4.682017 3.4216177,3.4216177 0 0 0 0.589828,-0.130118 3.0851824,3.0851824 0 0 0 1.80042,-1.548064 3.0851824,3.0851824 0 0 0 -1.498401,-4.21531 l -0.997492,-2.250257 a 0.85898352,0.85898352 0 0 0 -1.148105,-0.363866 l -0.187469,0.05908 a 0.47244094,0.47244094 0 0 0 -0.01221,-0.09947 0.57265568,0.57265568 0 0 0 -0.05559,-0.15905 36.041516,36.041516 0 0 0 7.17641,-1.934098 0.7158196,0.7158196 0 0 0 -0.551155,-1.3170207 c -0.06395,0.00785 -6.340675,2.6320087 -15.792828,2.5954037 A 56.74302,56.74302 0 0 1 0.95193399,9.4125572 0.71714265,0.71714265 0 0 0 0.45356957,10.757476 Z m 6.26189,3.363585 0.7462511,0.204063 L 7.27783,15.588157 6.2414047,15.311544 Z m 0.9209122,4.387186 v 0 A 1.6678597,1.6678597 0 1 1 4.4063139,17.693239 1.6463851,1.6463851 0 0 1 5.4227021,16.573193 l 1.8918658,0.488904 a 2.1975662,2.1975662 0 0 1 0.1478258,0.205419 1.6105941,1.6105941 0 0 1 0.1703627,1.270022 z m 9.5777386,-2.993411 0.794743,-0.0471 0.201527,1.230135 -1.067345,0.05893 z m 1.464658,2.589552 a 1.6678597,1.6678597 0 0 1 0.75894,1.305933 1.6678597,1.6678597 0 0 1 -2.779261,1.329288 1.6750179,1.6750179 0 0 1 -0.130701,-2.356684 2.1904079,2.1904079 0 0 1 0.18772,-0.1745 z m 10.681685,-1.109611 a 1.682176,1.682176 0 0 1 1.145723,1.049296 1.6535433,1.6535433 0 0 1 -0.09601,1.273879 1.6678597,1.6678597 0 0 1 -3.072394,-0.235773 1.6463851,1.6463851 0 0 1 0.237608,-1.471566 z m -1.266225,-2.383134 0.514264,1.13404 -1.019114,0.334278 -0.257494,-1.216052 z"
     id="path44"
     style="stroke-width:0.71582" />
</svg>
