<?xml version="1.0" encoding="UTF-8" standalone="no"?>
<!-- Created with Inkscape (http://www.inkscape.org/) -->

<svg
   xmlns:dc="http://purl.org/dc/elements/1.1/"
   xmlns:cc="http://creativecommons.org/ns#"
   xmlns:rdf="http://www.w3.org/1999/02/22-rdf-syntax-ns#"
   xmlns:svg="http://www.w3.org/2000/svg"
   xmlns="http://www.w3.org/2000/svg"
   version="1.1"
   width="55"
   height="55"
   id="svg2">
  <metadata
     id="metadata9">
    <rdf:RDF>
      <cc:Work
         rdf:about="">
        <dc:format>image/svg+xml</dc:format>
        <dc:type
           rdf:resource="http://purl.org/dc/dcmitype/StillImage" />
        <dc:title></dc:title>
      </cc:Work>
    </rdf:RDF>
  </metadata>
  <defs
     id="defs7" />
  <path
     d="m 26.862744,44.411727 a 4.4117648,4.4117648 0 1 1 -1.11e-4,-0.03148"
     id="path6"
     style="fill:#eeeeee;fill-opacity:1;stroke:#eeeeee;stroke-width:0;stroke-linecap:round;stroke-linejoin:miter;stroke-miterlimit:4;stroke-opacity:1;stroke-dasharray:none" />
  <path
     d="m 37.401961,44.411727 a 4.4117648,4.4117648 0 1 1 -1.13e-4,-0.03148"
     id="path8"
     style="fill:#eeeeee;fill-opacity:1;stroke:#eeeeee;stroke-width:0;stroke-linecap:round;stroke-linejoin:miter;stroke-miterlimit:4;stroke-opacity:1;stroke-dasharray:none" />
  <path
     d="m 47.5,44.411727 a 4.4117648,4.4117648 0 1 1 -1.13e-4,-0.03148"
     id="path12"
     style="fill:#eeeeee;fill-opacity:1;stroke:#eeeeee;stroke-width:0;stroke-linecap:round;stroke-linejoin:miter;stroke-miterlimit:4;stroke-opacity:1;stroke-dasharray:none" />
  <path
     d="m 16.323529,44.411727 a 4.4117648,4.4117648 0 1 1 -1.13e-4,-0.03148"
     id="path14"
     style="fill:#eeeeee;fill-opacity:1;stroke:#eeeeee;stroke-width:0;stroke-linecap:round;stroke-linejoin:miter;stroke-miterlimit:4;stroke-opacity:1;stroke-dasharray:none" />
  <path
     d="m 26.862744,10.588196 a 4.4117648,4.4117648 0 1 1 -1.11e-4,-0.03147"
     id="path38"
     style="fill:#a0a0a0;fill-opacity:1;stroke:#eeeeee;stroke-width:0;stroke-linecap:round;stroke-linejoin:miter;stroke-miterlimit:4;stroke-opacity:1;stroke-dasharray:none" />
  <path
     d="m 37.401961,10.588196 a 4.4117648,4.4117648 0 1 1 -1.13e-4,-0.03147"
     id="path40"
     style="fill:#eeeeee;fill-opacity:1;stroke:#eeeeee;stroke-width:0;stroke-linecap:round;stroke-linejoin:miter;stroke-miterlimit:4;stroke-opacity:1;stroke-dasharray:none" />
  <path
     d="m 47.5,10.588196 a 4.4117648,4.4117648 0 1 1 -1.13e-4,-0.03147"
     id="path44"
     style="fill:#eeeeee;fill-opacity:1;stroke:#eeeeee;stroke-width:0;stroke-linecap:round;stroke-linejoin:miter;stroke-miterlimit:4;stroke-opacity:1;stroke-dasharray:none" />
  <path
     d="m 16.323529,10.588196 a 4.4117648,4.4117648 0 1 1 -1.13e-4,-0.03147"
     id="path46"
     style="fill:#eeeeee;fill-opacity:1;stroke:#eeeeee;stroke-width:0;stroke-linecap:round;stroke-linejoin:miter;stroke-miterlimit:4;stroke-opacity:1;stroke-dasharray:none" />
  <path
     d="m 26.862744,21.862706 a 4.4117648,4.4117648 0 1 1 -1.11e-4,-0.03148"
     id="path54"
     style="fill:#a0a0a0;fill-opacity:1;stroke:#eeeeee;stroke-width:0;stroke-linecap:round;stroke-linejoin:miter;stroke-miterlimit:4;stroke-opacity:1;stroke-dasharray:none" />
  <path
     d="m 37.401961,21.862706 a 4.4117648,4.4117648 0 1 1 -1.13e-4,-0.03148"
     id="path56"
     style="fill:#a0a0a0;fill-opacity:1;stroke:#eeeeee;stroke-width:0;stroke-linecap:round;stroke-linejoin:miter;stroke-miterlimit:4;stroke-opacity:1;stroke-dasharray:none" />
  <path
     d="m 47.5,21.862706 a 4.4117648,4.4117648 0 1 1 -1.13e-4,-0.03148"
     id="path60"
     style="fill:#eeeeee;fill-opacity:1;stroke:#eeeeee;stroke-width:0;stroke-linecap:round;stroke-linejoin:miter;stroke-miterlimit:4;stroke-opacity:1;stroke-dasharray:none" />
  <path
     d="m 16.323529,21.862706 a 4.4117648,4.4117648 0 1 1 -1.13e-4,-0.03148"
     id="path62"
     style="fill:#a0a0a0;fill-opacity:1;stroke:#eeeeee;stroke-width:0;stroke-linecap:round;stroke-linejoin:miter;stroke-miterlimit:4;stroke-opacity:1;stroke-dasharray:none" />
  <path
     d="m 26.862744,33.137215 a 4.4117648,4.4117648 0 1 1 -1.11e-4,-0.03148"
     id="path70"
     style="fill:#a0a0a0;fill-opacity:1;stroke:#eeeeee;stroke-width:0;stroke-linecap:round;stroke-linejoin:miter;stroke-miterlimit:4;stroke-opacity:1;stroke-dasharray:none" />
  <path
     d="m 37.401961,33.137215 a 4.4117648,4.4117648 0 1 1 -1.13e-4,-0.03148"
     id="path72"
     style="fill:#eeeeee;fill-opacity:1;stroke:#eeeeee;stroke-width:0;stroke-linecap:round;stroke-linejoin:miter;stroke-miterlimit:4;stroke-opacity:1;stroke-dasharray:none" />
  <path
     d="m 47.5,33.137215 a 4.4117648,4.4117648 0 1 1 -1.13e-4,-0.03148"
     id="path76"
     style="fill:#eeeeee;fill-opacity:1;stroke:#eeeeee;stroke-width:0;stroke-linecap:round;stroke-linejoin:miter;stroke-miterlimit:4;stroke-opacity:1;stroke-dasharray:none" />
  <path
     d="m 16.323529,33.137215 a 4.4117648,4.4117648 0 1 1 -1.13e-4,-0.03148"
     id="path78"
     style="fill:#eeeeee;fill-opacity:1;stroke:#eeeeee;stroke-width:0;stroke-linecap:round;stroke-linejoin:miter;stroke-miterlimit:4;stroke-opacity:1;stroke-dasharray:none" />
  <path
     d="m 40.004296,28.657143 c -1.10877,0 -2.018763,0.909992 -2.018763,2.018761 l 0,4.629689 -3.283849,-3.283849 c -0.784855,-0.783184 -2.043082,-0.78485 -2.826264,0 -0.783183,0.784854 -0.784823,2.069998 0,2.85318 l 3.310766,3.28385 -4.683521,0 c -1.10877,0 -2.018762,0.909991 -2.018762,2.018762 0,1.108769 0.909992,1.991843 2.018762,1.991843 l 4.656605,0 -3.28385,3.283849 c -0.783181,0.784854 -0.784823,2.069999 0,2.85318 0.784855,0.783182 2.07,0.757938 2.85318,-0.02692 l 3.256933,-3.283849 0,4.683524 c 0,1.10877 0.909993,1.991844 2.018763,1.991844 1.108769,0 1.991843,-0.883074 1.991843,-1.991844 l 0,-4.71044 3.337683,3.310765 c 0.784853,0.783182 2.043082,0.784855 2.826262,0 0.783182,-0.784853 0.784858,-2.043082 0,-2.826262 l -3.310765,-3.28385 4.656607,0 c 1.10877,0 1.991844,-0.883074 1.991844,-1.991843 0,-1.108771 -0.883074,-2.018763 -1.991844,-2.018763 l -4.683523,0 3.310765,-3.337683 c 0.783182,-0.784854 0.784857,-2.016165 0,-2.799347 -0.784854,-0.78318 -2.043082,-0.811775 -2.826263,-0.02691 l -3.310766,3.337682 0,-4.656604 c 0,-1.10877 -0.883074,-2.018763 -1.991843,-2.018763 z"
     id="rect3894"
     style="fill:#ffffff;fill-opacity:1;stroke:#282828;stroke-width:1.72267997;stroke-linecap:round;stroke-linejoin:round;stroke-miterlimit:4;stroke-opacity:1;stroke-dasharray:none" />
</svg>
