{
  "accessors": [
    {
      "bufferView": 2,
      "componentType": 5126,
      "count": 13179,
      "max": [
        0.5744349956512451,
        0.391757994890213,
        0.7514849901199341
      ],
      "min": [
        -0.580062985420227,
        -0.39284399151802063,
        -0.7568579912185669
      ],
      "type": "VEC3"
    },
    {
      "bufferView": 2,
      "byteOffset": 158148,
      "componentType": 5126,
      "count": 13179,
      "max": [
        0.9999897480010986,
        0.9999277591705322,
        0.9997665286064148
      ],
      "min": [
        -0.9999219179153442,
        -0.9998525381088257,
        -0.9999852180480957
      ],
      "type": "VEC3"
    },
    {
      "bufferView": 3,
      "componentType": 5126,
      "count": 13179,
      "max": [
        0.9998500347137451,
        0.9999959468841553,
        0.9994452595710754,
        1.0
      ],
      "min": [
        -0.9959234595298767,
        -0.9998700022697449,
        -0.9999058246612549,
        -1.0
      ],
      "type": "VEC4"
    },
    {
      "bufferView": 1,
      "componentType": 5126,
      "count": 13179,
      "max": [
        1.0,
        1.0
      ],
      "min": [
        0.0,
        0.0
      ],
      "type": "VEC2"
    },
    {
      "bufferView": 0,
      "componentType": 5125,
      "count": 61110,
      "type": "SCALAR"
    }
  ],
  "asset": {
    "extras": {
      "author": "Abdur Razzak Sawon (https://sketchfab.com/md.abdur.razzak.sawon)",
      "license": "CC-BY-4.0 (http://creativecommons.org/licenses/by/4.0/)",
      "source": "https://sketchfab.com/3d-models/human-heart-realistic-anatomical-model-adb2c91ec8194b24b7ba431aa573a906",
      "title": "Human heart, realistic anatomical model"
    },
    "generator": "Sketchfab-16.16.0",
    "version": "2.0"
  },
  "bufferViews": [
    {
      "buffer": 0,
      "byteLength": 244440,
      "name": "floatBufferViews",
      "target": 34963
    },
    {
      "buffer": 0,
      "byteLength": 105432,
      "byteOffset": 244440,
      "byteStride": 8,
      "name": "floatBufferViews",
      "target": 34962
    },
    {
      "buffer": 0,
      "byteLength": 316296,
      "byteOffset": 349872,
      "byteStride": 12,
      "name": "floatBufferViews",
      "target": 34962
    },
    {
      "buffer": 0,
      "byteLength": 210864,
      "byteOffset": 666168,
      "byteStride": 16,
      "name": "floatBufferViews",
      "target": 34962
    }
  ],
  "buffers": [
    {
      "byteLength": 877032,
      "uri": "scene.bin"
    }
  ],
  "images": [
    {
      "uri": "textures/place_holder_baseColor.png"
    },
    {
      "uri": "textures/place_holder_metallicRoughness.png"
    },
    {
      "uri": "textures/place_holder_normal.png"
    }
  ],
  "materials": [
    {
      "doubleSided": true,
      "name": "place_holder",
      "normalTexture": {
        "index": 2
      },
      "pbrMetallicRoughness": {
        "baseColorTexture": {
          "index": 0
        },
        "metallicRoughnessTexture": {
          "index": 1
        }
      }
    }
  ],
  "meshes": [
    {
      "name": "Object_0",
      "primitives": [
        {
          "attributes": {
            "NORMAL": 1,
            "POSITION": 0,
            "TANGENT": 2,
            "TEXCOORD_0": 3
          },
          "indices": 4,
          "material": 0,
          "mode": 4
        }
      ]
    }
  ],
  "nodes": [
    {
      "children": [
        1
      ],
      "matrix": [
        1.0,
        0.0,
        0.0,
        0.0,
        0.0,
        2.220446049250313e-16,
        -1.0,
        0.0,
        0.0,
        1.0,
        2.220446049250313e-16,
        0.0,
        0.0,
        0.0,
        0.0,
        1.0
      ],
      "name": "Sketchfab_model"
    },
    {
      "children": [
        2
      ],
      "name": "base.obj.cleaner.materialmerger.gles"
    },
    {
      "mesh": 0,
      "name": "Object_2"
    }
  ],
  "samplers": [
    {
      "magFilter": 9729,
      "minFilter": 9987,
      "wrapS": 10497,
      "wrapT": 10497
    }
  ],
  "scene": 0,
  "scenes": [
    {
      "name": "Sketchfab_Scene",
      "nodes": [
        0
      ]
    }
  ],
  "textures": [
    {
      "sampler": 0,
      "source": 0
    },
    {
      "sampler": 0,
      "source": 1
    },
    {
      "sampler": 0,
      "source": 2
    }
  ]
}
