<?xml version="1.0" encoding="UTF-8" standalone="no"?>
<!-- Created with Inkscape (http://www.inkscape.org/) -->

<svg
   xmlns:dc="http://purl.org/dc/elements/1.1/"
   xmlns:cc="http://creativecommons.org/ns#"
   xmlns:rdf="http://www.w3.org/1999/02/22-rdf-syntax-ns#"
   xmlns:svg="http://www.w3.org/2000/svg"
   xmlns="http://www.w3.org/2000/svg"
   version="1.1"
   width="55"
   height="55"
   viewBox="0 0 55 55"
   id="svg2">
  <metadata
     id="metadata20">
    <rdf:RDF>
      <cc:Work
         rdf:about="">
        <dc:format>image/svg+xml</dc:format>
        <dc:type
           rdf:resource="http://purl.org/dc/dcmitype/StillImage" />
        <dc:title></dc:title>
      </cc:Work>
    </rdf:RDF>
  </metadata>
  <defs
     id="defs18" />
  <g
     transform="matrix(0.9908072,0,0,0.9908072,0.252802,0.252802)"
     id="g3780"
     style="stroke:#000000;stroke-width:3.16690469;stroke-miterlimit:4;stroke-opacity:1;stroke-dasharray:none">
    <path
       d="m 21.162762,48.8995 c -0.553,0 -1.099,-0.035 -1.637,-0.1 l 1.388,2.349 1.368,-2.313 c -0.371,0.03 -0.741,0.064 -1.119,0.064 z"
       id="path6"
       style="fill:#ffffff;fill-opacity:1;stroke:#000000;stroke-width:3.16690469;stroke-miterlimit:4;stroke-opacity:1;stroke-dasharray:none" />
    <path
       d="m 33.825762,12.3465 c -2.164,0 -3.958,1.555 -4.343,3.607 1.859,1.345 3.457,3.115 4.675,5.208 2.285,-0.172 4.094,-2.061 4.094,-4.39 0,-2.444 -1.982,-4.425 -4.426,-4.425 z"
       id="path10"
       style="fill:#ffffff;fill-opacity:1;stroke:#000000;stroke-width:3.16690469;stroke-miterlimit:4;stroke-opacity:1;stroke-dasharray:none" />
    <path
       d="m 34.378762,40.5075 c -1.224,2.232 -2.86,4.131 -4.797,5.556 0.521,1.864 2.213,3.239 4.244,3.239 2.443,0 4.426,-1.98 4.426,-4.424 0,-2.255 -1.693,-4.096 -3.873,-4.371 z"
       id="path12"
       style="fill:#ffffff;fill-opacity:1;stroke:#000000;stroke-width:3.16690469;stroke-miterlimit:4;stroke-opacity:1;stroke-dasharray:none" />
    <path
       d="m 7.9387616,40.4915 c -2.253,0.206 -4.024,2.079 -4.024,4.387 0,2.443 1.98,4.424 4.424,4.424 2.0640004,0 3.7840004,-1.42 4.2720004,-3.332 -1.883,-1.416 -3.4750004,-3.289 -4.6720004,-5.479 z"
       id="path14"
       style="fill:#ffffff;fill-opacity:1;stroke:#000000;stroke-width:3.16690469;stroke-miterlimit:4;stroke-opacity:1;stroke-dasharray:none" />
    <path
       d="m 12.691762,16.0575 c -0.343,-2.103 -2.154,-3.711 -4.3530004,-3.711 -2.444,0 -4.424,1.981 -4.424,4.424 0,2.382 1.886,4.31 4.245,4.406 1.186,-2.043 2.7320004,-3.784 4.5320004,-5.119 z"
       id="path16"
       style="fill:#ffffff;fill-opacity:1;stroke:#000000;stroke-width:3.16690469;stroke-miterlimit:4;stroke-opacity:1;stroke-dasharray:none" />
    <path
       d="m 21.162762,13.1835 c 1.908,0 3.728,0.411 5.418,1.128 0.741,-1.076 1.178,-2.377 1.178,-3.783 0,-3.687 -2.989,-6.677 -6.677,-6.677 -3.687,0 -6.676,2.99 -6.676,6.677 0,1.428 0.452,2.749 1.216,3.834 1.724,-0.749 3.587,-1.179 5.541,-1.179 z"
       id="path18"
       style="fill:#ffffff;fill-opacity:1;stroke:#000000;stroke-width:3.16690469;stroke-miterlimit:4;stroke-opacity:1;stroke-dasharray:none" />
    <path
       d="m 36.767762,31.0415 c 0,4.7344 -1.6452,9.2798 -4.5706,12.6275 -2.9254,3.3478 -6.8973,5.2305 -11.0344,5.2305 -4.1371,0 -8.109,-1.8827 -11.0344,-5.2305 -2.9254004,-3.3477 -4.5706004,-7.8931 -4.5706004,-12.6275 0,-9.7966 7.0444004,-17.858 15.6050004,-17.858 8.5606,0 15.605,8.0614 15.605,17.858 z"
       id="path22"
       style="fill:#ffffff;fill-opacity:1;stroke:#000000;stroke-width:3.16690469;stroke-miterlimit:4;stroke-opacity:1;stroke-dasharray:none" />
    <path
       d="m 22.128574,30.412748 c 0.138115,0.712816 0.975676,0.154582 1.119001,-0.243039 0.388404,-1.077483 -0.654492,-2.022578 -1.578078,-2.126471 -1.652078,-0.185847 -2.887464,1.464762 -2.897932,3.098565 -0.01543,2.397674 2.11869,4.111564 4.275158,4.009919 2.874236,-0.135482 4.886748,-3.023402 4.676866,-5.95411 -0.264124,-3.687991 -3.593276,-6.240077 -6.972245,-5.893366 -4.092384,0.419917 -6.902974,4.585768 -6.455792,8.809654 0.526992,4.977702 5.069542,8.378422 9.669324,7.776813 5.310632,-0.694583 8.924881,-6.149176 8.234723,-11.665194 C 31.415401,21.957866 25.653145,17.7048 19.833194,18.565258 13.304088,19.530561 8.8838287,26.278321 9.819542,33.085997 c 1.038814,7.55781 8.023698,12.664984 15.063488,11.543704"
       id="path3010"
       style="fill:#ffffff;fill-opacity:1;stroke:#000000;stroke-width:3.16690469;stroke-miterlimit:4;stroke-opacity:1;stroke-dasharray:none" />
    <g
       transform="matrix(0.98448199,0.17548566,-0.17548566,0.98448199,1.4386973,-0.7844834)"
       id="g3006"
       style="fill:#ffffff;fill-opacity:1;stroke:#000000;stroke-width:3.16690469;stroke-miterlimit:4;stroke-opacity:1;stroke-dasharray:none">
      <path
         d="m 40.575634,29.752495 c 0,0 6.854,-8.475 8.649,-11.625 2.637,-4.629 3.951,-9.307 1.935,-10.182 -1.482,-0.644 -5.54,2.84 -7.669,6.662 -1.441,2.594 -6.557,13.261 -6.557,13.261 l 3.642,1.884 z"
         id="path3106"
         style="fill:#ffffff;fill-opacity:1;stroke:#000000;stroke-width:3.16690469;stroke-miterlimit:4;stroke-opacity:1;stroke-dasharray:none" />
      <path
         d="m 40.575634,29.752495 -3.676,-1.908 c 0,0 -2.889,1.954 -3.99,3.899 -1.101,1.956 -1.143,5.758 -3.071,7.748 -1.159,1.193 -0.01,0.943 -0.01,0.943 0,0 6.959,-2.412 8.337,-4.542 1.368,-2.11 2.41,-6.14 2.41,-6.14 z"
         id="path3108"
         style="fill:#ffffff;fill-opacity:1;stroke:#000000;stroke-width:3.16690469;stroke-miterlimit:4;stroke-opacity:1;stroke-dasharray:none" />
    </g>
  </g>
</svg>
