<?xml version="1.0" encoding="UTF-8" standalone="no"?>
<!-- Created with Inkscape (http://www.inkscape.org/) -->

<svg
   xmlns:dc="http://purl.org/dc/elements/1.1/"
   xmlns:cc="http://creativecommons.org/ns#"
   xmlns:rdf="http://www.w3.org/1999/02/22-rdf-syntax-ns#"
   xmlns:svg="http://www.w3.org/2000/svg"
   xmlns="http://www.w3.org/2000/svg"
   version="1.1"
   width="142"
   height="151.125"
   id="svg3008">
  <metadata
     id="metadata3037">
    <rdf:RDF>
      <cc:Work
         rdf:about="">
        <dc:format>image/svg+xml</dc:format>
        <dc:type
           rdf:resource="http://purl.org/dc/dcmitype/StillImage" />
        <dc:title></dc:title>
      </cc:Work>
    </rdf:RDF>
  </metadata>
  <defs
     id="defs3035">
    <filter
       height="1.3"
       color-interpolation-filters="sRGB"
       id="dropshadow">
      <feGaussianBlur
         in="SourceAlpha"
         stdDeviation="3"
         id="feGaussianBlur3013" />
      <feOffset
         dx="2"
         dy="2"
         result="offsetblur"
         id="feOffset3015" />
      <feComponentTransfer
         id="feComponentTransfer3017">
        <feFuncA
           type="linear"
           slope="0.2"
           id="feFuncA3019" />
      </feComponentTransfer>
      <feMerge
         id="feMerge3021">
        <feMergeNode
           id="feMergeNode3023" />
        <feMergeNode
           in="SourceGraphic"
           id="feMergeNode3025" />
      </feMerge>
    </filter>
  </defs>
  <path
     d="m 1,29.5625 0,-8 a 8,8 0 0 1 8,-8 l 8,0 10,-12 10,12 18,0 70,0 8,0 a 8,8 0 0 1 8,8 l 0,8 -8,0 0,-6 -8,0 0,20 8,0 0,-6 8,0 0,8 a 8,8 0 0 1 -8,8 l -8,0 -70,0 -2,0 0,4 -16,0 0,-4 -2,0 -8,0 a 10,10 0 0 0 -10,10 l 0,8 0,8 0,8 a 10,10 0 0 0 10,10 l 8,0 0,4 20,0 0,-4 16,0 0,12 0,12 0,8 a 8,8 0 0 1 -8,8 l -8,0 -18,0 -10,12 -10,-12 -8,0 a 8,8 0 0 1 -8,-8 l 0,-8 z"
     id="path3027"
     style="fill:#ffc000;fill-opacity:1;stroke:#c48d00;stroke-width:2;stroke-linecap:round;stroke-opacity:1" />
  <text
     y="0.5625"
     id="text3029"
     style="font-size:20px;text-anchor:start;fill:#000000;font-family:Sans">
    <tspan
       x="8"
       y="43.5625"
       id="tspan3031">action</tspan>
  </text>
</svg>
