<?xml version="1.0" encoding="UTF-8" standalone="no"?>
<!-- Created with Inkscape (http://www.inkscape.org/) -->

<svg
   xmlns:dc="http://purl.org/dc/elements/1.1/"
   xmlns:cc="http://creativecommons.org/ns#"
   xmlns:rdf="http://www.w3.org/1999/02/22-rdf-syntax-ns#"
   xmlns:svg="http://www.w3.org/2000/svg"
   xmlns="http://www.w3.org/2000/svg"
   version="1.1"
   width="102"
   height="132"
   id="svg3144">
  <path
     d="m 1,115 a 14,14 0 0 1 14,-14 l 2,0 0,-84 A 16,16 0 0 1 33,1 l 68,0 0,8 a 16,16 0 0 0 -16,16 16,16 0 0 0 16,16 l 0,50 a 16,16 0 0 0 -16,16 16,16 0 0 0 16,16 l 0,8 -60,0 -24,0 0,-2 -2,0 A 14,14 0 0 1 1,115 z"
     id="path3163"
         style="fill:#d8d100;fill-opacity:1;stroke:#a19a00;stroke-width:1;stroke-linecap:round;stroke-opacity:1" />
  <text
     id="text3165"
     style="font-size:20px;text-anchor:end;fill:#000000;font-family:Sans">
    <tspan
       x="82"
       y="71"
       id="tspan3167">and</tspan>
  </text>
</svg>
