<?xml version="1.0" encoding="UTF-8" standalone="no"?>
<!-- Created with Inkscape (http://www.inkscape.org/) -->

<svg
   xmlns:dc="http://purl.org/dc/elements/1.1/"
   xmlns:cc="http://creativecommons.org/ns#"
   xmlns:rdf="http://www.w3.org/1999/02/22-rdf-syntax-ns#"
   xmlns:svg="http://www.w3.org/2000/svg"
   xmlns="http://www.w3.org/2000/svg"
   version="1.1"
   width="138"
   height="84"
   viewBox="0 0 138 84.000002"
   id="svg2"
   xml:space="preserve"><metadata
     id="metadata29"><rdf:RDF><cc:Work
         rdf:about=""><dc:format>image/svg+xml</dc:format><dc:type
           rdf:resource="http://purl.org/dc/dcmitype/StillImage" /><dc:title></dc:title></cc:Work></rdf:RDF></metadata><defs
     id="defs27"><filter
       height="1.3"
       color-interpolation-filters="sRGB"
       id="dropshadow"><feGaussianBlur
         in="SourceAlpha"
         stdDeviation="3"
         id="feGaussianBlur7" /><feOffset
         dx="2"
         dy="2"
         result="offsetblur"
         id="feOffset9" /><feComponentTransfer
         id="feComponentTransfer11"><feFuncA
           type="linear"
           slope="0.2"
           id="feFuncA13" /></feComponentTransfer><feMerge
         id="feMerge15"><feMergeNode
           id="feMergeNode17" /><feMergeNode
           in="SourceGraphic"
           id="feMergeNode19" /></feMerge></filter></defs><g
     id="g3105"><path
       d="m 17,1 120,0 0,82.000001 -120,0 L 17,25 l 0,-2 -12,0 0,6 -4,0 0,-16 4,0 0,6 12,0 0,-2 z"
       id="path21"
       style="fill:#7bbbb8;fill-opacity:1;stroke:#4c8585;stroke-width:2;stroke-linecap:round;stroke-opacity:1" /></g><g
     transform="matrix(1.3799025,0,0,1.3799025,39.843979,7.8062309)"
     id="camera-external"
     style="display:block"><g
       id="g5"
       style="display:inline"><g
         id="g7"><polygon
           points="6.29,38.973 48.209,38.973 48.209,14.52 38.532,14.52 34.904,9.862 18.783,9.862 15.155,14.52 6.29,14.52 "
           id="polygon9"
           style="fill:#ffffff" /></g><g
         id="g11"><polygon
           points="48.209,38.973 48.209,14.52 38.532,14.52 34.904,9.862 18.783,9.862 15.155,14.52 6.29,14.52 6.29,38.973 "
           id="polygon13"
           style="fill:none;stroke:#010101;stroke-width:2.33333325" /></g></g><path
       d="m 20.601,26.441 c 0,3.67 2.979,6.648 6.65,6.648 3.667,0 6.646,-2.979 6.646,-6.648 0,-3.668 -2.979,-6.652 -6.646,-6.652 -3.67,0 -6.65,2.986 -6.65,6.652 z"
       id="path15"
       style="fill:#ffffff;stroke:#010101;stroke-width:2.33333325;display:inline" /><rect
       width="6.2870002"
       height="4.1929998"
       x="38.098999"
       y="18.417999"
       id="rect17"
       style="fill:#010101;display:inline" /></g></svg>