<?xml version="1.0" encoding="UTF-8" standalone="no"?>
<!-- Created with Inkscape (http://www.inkscape.org/) -->

<svg
   xmlns:dc="http://purl.org/dc/elements/1.1/"
   xmlns:cc="http://creativecommons.org/ns#"
   xmlns:rdf="http://www.w3.org/1999/02/22-rdf-syntax-ns#"
   xmlns:svg="http://www.w3.org/2000/svg"
   xmlns="http://www.w3.org/2000/svg"
   version="1.1"
   width="112"
   height="130"
   id="svg3043">
  <metadata
     id="metadata3072">
    <rdf:RDF>
      <cc:Work
         rdf:about="">
        <dc:format>image/svg+xml</dc:format>
        <dc:type
           rdf:resource="http://purl.org/dc/dcmitype/StillImage" />
        <dc:title></dc:title>
      </cc:Work>
    </rdf:RDF>
  </metadata>
  <defs
     id="defs3070">
    <filter
       height="1.3"
       color-interpolation-filters="sRGB"
       id="dropshadow">
      <feGaussianBlur
         in="SourceAlpha"
         stdDeviation="3"
         id="feGaussianBlur3048" />
      <feOffset
         dx="2"
         dy="2"
         result="offsetblur"
         id="feOffset3050" />
      <feComponentTransfer
         id="feComponentTransfer3052">
        <feFuncA
           type="linear"
           slope="0.2"
           id="feFuncA3054" />
      </feComponentTransfer>
      <feMerge
         id="feMerge3056">
        <feMergeNode
           id="feMergeNode3058" />
        <feMergeNode
           in="SourceGraphic"
           id="feMergeNode3060" />
      </feMerge>
    </filter>
  </defs>
  <path
     d="M 1,17 1,9 A 8,8 0 0 1 9,1 l 8,0 0,4 20,0 0,-4 18,0 40,0 8,0 a 8,8 0 0 1 8,8 l 0,8 -8,0 0,-6 -8,0 0,20 8,0 0,-6 8,0 0,8 a 8,8 0 0 1 -8,8 l -8,0 -40,0 -8,0 A 10,10 0 0 0 37,51 l 0,8 -8,0 0,-6 -8,0 0,20 8,0 0,-6 8,0 0,8 a 10,10 0 0 0 10,10 l 8,0 16,0 0,12 0,12 0,8 a 8,8 0 0 1 -8,8 l -8,0 -18,0 -2,0 0,4 -16,0 0,-4 -2,0 -8,0 a 8,8 0 0 1 -8,-8 l 0,-8 z"
     id="path3062"
     style="fill:#ffc000;fill-opacity:1;stroke:#c48d00;stroke-width:2;stroke-linecap:round;stroke-opacity:1" />
  <text
     id="text3064"
     style="font-size:20px;text-anchor:start;fill:#000000;font-family:sans-serif">
    <tspan
       x="8"
       y="30.5"
       id="tspan3066">do</tspan>
  </text>
</svg>
