<?xml version="1.0" encoding="UTF-8" standalone="no"?>
<!-- Created with Inkscape (http://www.inkscape.org/) -->

<svg
   xmlns:dc="http://purl.org/dc/elements/1.1/"
   xmlns:cc="http://creativecommons.org/ns#"
   xmlns:rdf="http://www.w3.org/1999/02/22-rdf-syntax-ns#"
   xmlns:svg="http://www.w3.org/2000/svg"
   xmlns="http://www.w3.org/2000/svg"
   version="1.1"
   width="154"
   height="46"
   id="svg3056">
  <metadata
     id="metadata3085">
    <rdf:RDF>
      <cc:Work
         rdf:about="">
        <dc:format>image/svg+xml</dc:format>
        <dc:type
           rdf:resource="http://purl.org/dc/dcmitype/StillImage" />
        <dc:title></dc:title>
      </cc:Work>
    </rdf:RDF>
  </metadata>
  <defs
     id="defs3083">
    <filter
       height="1.3"
       color-interpolation-filters="sRGB"
       id="dropshadow">
      <feGaussianBlur
         in="SourceAlpha"
         stdDeviation="3"
         id="feGaussianBlur3061" />
      <feOffset
         dx="2"
         dy="2"
         result="offsetblur"
         id="feOffset3063" />
      <feComponentTransfer
         id="feComponentTransfer3065">
        <feFuncA
           type="linear"
           slope="0.2"
           id="feFuncA3067" />
      </feComponentTransfer>
      <feMerge
         id="feMerge3069">
        <feMergeNode
           id="feMergeNode3071" />
        <feMergeNode
           in="SourceGraphic"
           id="feMergeNode3073" />
      </feMerge>
    </filter>
  </defs>
  <path
     d="M 1,17 1,9 A 8,8 0 0 1 9,1 l 8,0 0,4 20,0 0,-4 100,0 8,0 a 8,8 0 0 1 8,8 l 0,8 0,8 0,8 a 8,8 0 0 1 -8,8 l -8,0 -100,0 -2,0 0,4 -16,0 0,-4 -2,0 -8,0 A 8,8 0 0 1 1,33 l 0,-8 z"
     id="path3075"
     style="fill:#ff0066;fill-opacity:1;stroke:#ef003e;stroke-width:2;stroke-linecap:round;stroke-opacity:1" />
  <text
     id="text3077"
     style="font-size:20px;text-anchor:end;fill:#000000;font-family:Sans">
    <tspan
       x="134"
       y="28"
       id="tspan3079">hide blocks</tspan>
  </text>
</svg>
