<?xml version="1.0" encoding="UTF-8" standalone="no"?>
<!-- Created with Inkscape (http://www.inkscape.org/) -->

<svg
   xmlns:dc="http://purl.org/dc/elements/1.1/"
   xmlns:cc="http://creativecommons.org/ns#"
   xmlns:rdf="http://www.w3.org/1999/02/22-rdf-syntax-ns#"
   xmlns:svg="http://www.w3.org/2000/svg"
   xmlns="http://www.w3.org/2000/svg"
   version="1.1"
   width="154.1097"
   height="42"
   id="svg2">
  <metadata
     id="metadata35">
    <rdf:RDF>
      <cc:Work
         rdf:about="">
        <dc:format>image/svg+xml</dc:format>
        <dc:type
           rdf:resource="http://purl.org/dc/dcmitype/StillImage" />
        <dc:title></dc:title>
      </cc:Work>
    </rdf:RDF>
  </metadata>
  <defs
     id="defs33">
    <filter
       height="1.3"
       color-interpolation-filters="sRGB"
       id="dropshadow">
      <feGaussianBlur
         id="feGaussianBlur7"
         stdDeviation="3"
         in="SourceAlpha" />
      <feOffset
         id="feOffset9"
         result="offsetblur"
         dy="2"
         dx="2" />
      <feComponentTransfer
         id="feComponentTransfer11">
        <feFuncA
           id="feFuncA13"
           slope="0.2"
           type="linear" />
      </feComponentTransfer>
      <feMerge
         id="feMerge15">
        <feMergeNode
           id="feMergeNode17" />
        <feMergeNode
           id="feMergeNode19"
           in="SourceGraphic" />
      </feMerge>
    </filter>
  </defs>
  <path
     d="m 17,17 0,-8 c 0,-4.1887902 3.81121,-8 8,-8 l 8,0 20,0 84,0 8,0 c 4.18879,0 9.01593,3.9362766 8,8 l 0,8 -8,0 0,-6 -8,0 0,20 8,0 0,-6 8,0 0,8 c 0,4.18879 -3.81121,8 -8,8 l -8,0 -84,0 -20,0 -8,0 c -4.18879,0 -8,-3.81121 -8,-8 l 0,-8 0,-2 -12,0 0,6 -4,0 0,-16 4,0 0,6 12,0 z"
     id="path21"
     style="fill:#dd7f00;fill-opacity:1;stroke:#955100;stroke-width:2;stroke-linecap:round;stroke-opacity:1" />
  <text
     x="22"
     y="-5.7763674e-07"
     id="text23"
     style="font-size:20px;text-anchor:end;fill:#000000;font-family:Sans">
    <tspan
       x="132"
       y="26"
       id="tspan25">index heap</tspan>
  </text>
  <text
     x="-5.3369138e-07"
     y="-5.7763674e-07"
     id="text27"
     style="font-size:13.33333302px;text-anchor:end;fill:#000000;font-family:Sans">
    <tspan
       x="110.00001"
       y="22.5"
       id="tspan29" />
  </text>
</svg>
