<?xml version="1.0" encoding="UTF-8" standalone="no"?>
<!-- Created with Inkscape (http://www.inkscape.org/) -->

<svg
   xmlns:dc="http://purl.org/dc/elements/1.1/"
   xmlns:cc="http://creativecommons.org/ns#"
   xmlns:rdf="http://www.w3.org/1999/02/22-rdf-syntax-ns#"
   xmlns:svg="http://www.w3.org/2000/svg"
   xmlns="http://www.w3.org/2000/svg"
   version="1.1"
   width="130"
   height="42"
   id="svg3069">
  <metadata
     id="metadata3102">
    <rdf:RDF>
      <cc:Work
         rdf:about="">
        <dc:format>image/svg+xml</dc:format>
        <dc:type
           rdf:resource="http://purl.org/dc/dcmitype/StillImage" />
        <dc:title></dc:title>
      </cc:Work>
    </rdf:RDF>
  </metadata>
  <defs
     id="defs3100">
    <filter
       height="1.3"
       color-interpolation-filters="sRGB"
       id="dropshadow">
      <feGaussianBlur
         in="SourceAlpha"
         stdDeviation="3"
         id="feGaussianBlur3074" />
      <feOffset
         dx="2"
         dy="2"
         result="offsetblur"
         id="feOffset3076" />
      <feComponentTransfer
         id="feComponentTransfer3078">
        <feFuncA
           type="linear"
           slope="0.2"
           id="feFuncA3080" />
      </feComponentTransfer>
      <feMerge
         id="feMerge3082">
        <feMergeNode
           id="feMergeNode3084" />
        <feMergeNode
           in="SourceGraphic"
           id="feMergeNode3086" />
      </feMerge>
    </filter>
  </defs>
  <path
     d="m 17,17 0,-8 a 8,8 0 0 1 8,-8 l 8,0 20,0 60,0 8,0 a 8,8 0 0 1 8,8 l 0,8 -8,0 0,-6 -8,0 0,20 8,0 0,-6 8,0 0,8 a 8,8 0 0 1 -8,8 l -8,0 -60,0 -20,0 -8,0 a 8,8 0 0 1 -8,-8 l 0,-8 0,-2 -12,0 0,6 -4,0 0,-16 4,0 0,6 12,0 0,-2 z"
     id="path3088"
     style="fill:#ff00ff;fill-opacity:1;stroke:#c700d3;stroke-width:2;stroke-linecap:round;stroke-opacity:1" />
  <text
     id="text3090"
     style="font-size:20px;text-anchor:end;fill:#000000;font-family:Sans">
    <tspan
       x="110"
       y="26"
       id="tspan3092">int</tspan>
  </text>
  <text
     id="text3094"
     style="font-size:13.33333302px;text-anchor:end;fill:#000000;font-family:Sans">
    <tspan
       x="110"
       y="22.5"
       id="tspan3096" />
  </text>
</svg>
