<?xml version="1.0" encoding="UTF-8" standalone="no"?>
<!-- Created with Inkscape (http://www.inkscape.org/) -->

<svg
   xmlns:dc="http://purl.org/dc/elements/1.1/"
   xmlns:cc="http://creativecommons.org/ns#"
   xmlns:rdf="http://www.w3.org/1999/02/22-rdf-syntax-ns#"
   xmlns:svg="http://www.w3.org/2000/svg"
   xmlns="http://www.w3.org/2000/svg"
   version="1.1"
   width="55"
   height="55"
   id="svg3087">
  <defs
     id="defs3089" />
  <metadata
     id="metadata3092">
    <rdf:RDF>
      <cc:Work
         rdf:about="">
        <dc:format>image/svg+xml</dc:format>
        <dc:type
           rdf:resource="http://purl.org/dc/dcmitype/StillImage" />
        <dc:title></dc:title>
      </cc:Work>
    </rdf:RDF>
  </metadata>
  <g
     transform="translate(0,-9)"
     id="layer1">
    <g
       transform="translate(-296.34967,-57.15035)"
       id="scrollunlock">
      <g
         transform="matrix(-1,0,0,1,397.30607,44.1294)"
         id="g97"
         style="fill:none;stroke:#000000;stroke-opacity:1">
        <g
           transform="translate(34.0803,-1006.42)"
           id="g99"
           style="fill:none;stroke:#000000;stroke-opacity:1">
          <polyline
             points="51.562,15.306 41.17,16.188 42.053,5.794"
             style="fill:none;stroke:#000000;stroke-width:3.5;stroke-linecap:round;stroke-linejoin:round;stroke-opacity:1"
             transform="matrix(-0.469241,0.469241,-0.469241,-0.469241,66.2906,1019.03)"
             id="polyline101" />
          <path
             d="m 39.36277,1033.1291 0,8.6738"
             id="path103"
             style="fill:none;stroke:#000000;stroke-width:2.5;stroke-linecap:round;stroke-linejoin:round;stroke-miterlimit:4;stroke-opacity:1;stroke-dasharray:none" />
        </g>
      </g>
      <g
         transform="matrix(1,0,0,-1,284.47356,1149.5913)"
         id="g107"
         style="fill:none;stroke:#000000;stroke-opacity:1">
        <polyline
           id="polyline109"
           transform="matrix(-0.469241,0.469241,-0.469241,-0.469241,66.2906,1019.03)"
           style="fill:none;stroke:#000000;stroke-width:3.5;stroke-linecap:round;stroke-linejoin:round;stroke-opacity:1"
           points="51.562,15.306 41.17,16.188 42.053,5.794" />
        <path
           d="m 39.363241,1033.0937 0.0262,8.0241"
           id="path111"
           style="fill:none;stroke:#000000;stroke-width:2.5;stroke-linecap:round;stroke-linejoin:round;stroke-miterlimit:4;stroke-opacity:1;stroke-dasharray:none" />
      </g>
      <g
         transform="matrix(0,-1,1,0,276.82873,170.04644)"
         id="g113"
         style="fill:none;stroke:#000000;stroke-opacity:1">
        <g
           transform="translate(34.0803,-1006.42)"
           id="g115"
           style="fill:none;stroke:#000000;stroke-opacity:1">
          <polyline
             points="51.562,15.306 41.17,16.188 42.053,5.794"
             style="fill:none;stroke:#000000;stroke-width:3.5;stroke-linecap:round;stroke-linejoin:round;stroke-opacity:1"
             transform="matrix(-0.469241,0.469241,-0.469241,-0.469241,66.2906,1019.03)"
             id="polyline117" />
          <path
             d="m 39.363241,1033.1291 -0.05636,9.4622"
             id="path119"
             style="fill:none;stroke:#000000;stroke-width:2.5;stroke-linecap:round;stroke-linejoin:round;stroke-miterlimit:4;stroke-opacity:1;stroke-dasharray:none" />
        </g>
      </g>
      <g
         transform="matrix(0,-1,-1,0,370.8706,170.04644)"
         id="g121"
         style="fill:none;stroke:#000000;stroke-opacity:1">
        <g
           transform="translate(34.0803,-1006.42)"
           id="g123"
           style="fill:none;stroke:#000000;stroke-opacity:1">
          <polyline
             points="51.562,15.306 41.17,16.188 42.053,5.794"
             style="fill:none;stroke:#000000;stroke-width:3.5;stroke-linecap:round;stroke-linejoin:round;stroke-opacity:1"
             transform="matrix(-0.469241,0.469241,-0.469241,-0.469241,66.2906,1019.03)"
             id="polyline125" />
          <path
             d="m 39.363241,1033.1291 -0.05636,9.4115"
             id="path127"
             style="fill:none;stroke:#000000;stroke-width:2.5;stroke-linecap:round;stroke-linejoin:round;stroke-miterlimit:4;stroke-opacity:1;stroke-dasharray:none" />
        </g>
      </g>
      <path
         d="m 312.59966,100.5625 0,-6.56249 q 0,-1.171875 0.82031,-1.992195 0.82031,-0.82031 1.99219,-0.82031 l 0,-3.75 q 0,-3.51563 2.46094,-5.97656 2.46093,-2.46094 5.97656,-2.46094 3.51562,0 5.97656,2.46094 2.46094,2.46093 2.46094,5.97656 l 0,3.75 q 1.17187,0 1.99219,0.82031 0.82031,0.82032 0.82031,1.992195 l 0,6.56249 q 0,3.51562 -2.46094,5.97656 Q 330.17778,109 326.66216,109 l -5.625,0 q -3.51563,0 -5.97656,-2.46094 -2.46094,-2.46094 -2.46094,-5.97656 z m 1.875,0 q 0,2.69531 1.93359,4.62891 1.9336,1.93359 4.62891,1.93359 l 5.625,0 q 2.69531,0 4.62891,-1.93359 1.93359,-1.9336 1.93359,-4.62891 l 0,-6.56249 q 0,-0.410165 -0.26369,-0.673845 -0.26368,-0.26369 -0.67384,-0.26369 l -16.875,0 q -0.41016,0 -0.67384,0.26369 -0.26369,0.26368 -0.26369,0.673845 l 0,6.56249 z m 2.8125,-9.374995 1.875,0 0,-3.75 q 0,-1.93359 1.37694,-3.31056 1.37694,-1.37697 3.31056,-1.37694 1.93362,3e-5 3.31056,1.37694 1.37694,1.37691 1.37694,3.31056 l 0,3.75 1.875,0 0,-3.75 q 0,-2.69531 -1.93359,-4.62891 -1.9336,-1.93359 -4.62891,-1.93359 -2.69531,0 -4.62891,1.93359 -1.93359,1.9336 -1.93359,4.62891 l 0,3.75 z m 2.8125,0 7.5,0 0,-3.75 q 0,-1.58203 -1.08397,-2.66603 -1.08397,-1.084 -2.66603,-1.08397 -1.58206,3e-5 -2.66603,1.08397 -1.08397,1.08394 -1.08397,2.66603 l 0,3.75 z m 1.875,7.499995 q 0,-0.76172 0.55663,-1.31836 0.55662,-0.55666 1.31837,-0.55663 0.76175,2e-5 1.31837,0.55663 0.55663,0.55658 0.55663,1.31836 0,0.82031 -0.64453,2.51953 -0.41016,1.23047 -1.23047,1.23047 -0.82031,0 -1.23047,-1.23047 -0.64453,-1.69922 -0.64453,-2.51953 z"
         id="path3160" />
    </g>
    <g
       transform="matrix(-1,0,0,1,66.8761,-1019.4409)"
       id="scrolllock"
       style="fill:none;stroke:#000000;stroke-opacity:1">
      <path
         d="m 39.36277,1033.1291 0,8.6738"
         id="path74"
         style="fill:none;stroke:#000000;stroke-width:2.5;stroke-linecap:round;stroke-linejoin:round;stroke-miterlimit:4;stroke-opacity:1;stroke-dasharray:none" />
    </g>
    <path
       d="m 27.48713,59.347284 0.0262,-8.0241"
       id="path76"
       style="fill:none;stroke:#000000;stroke-width:2.5;stroke-linecap:round;stroke-linejoin:round;stroke-miterlimit:4;stroke-opacity:1;stroke-dasharray:none" />
    <g
       transform="matrix(0,-1,1,0,-1025.9409,78.815794)"
       id="g78"
       style="fill:none;stroke:#000000;stroke-opacity:1">
      <path
         d="m 39.363241,1033.1291 -0.05636,9.4622"
         id="path80"
         style="fill:none;stroke:#000000;stroke-width:2.5;stroke-linecap:round;stroke-linejoin:round;stroke-miterlimit:4;stroke-opacity:1;stroke-dasharray:none" />
    </g>
    <g
       transform="matrix(0,-1,-1,0,1080.9409,78.815794)"
       id="g82"
       style="fill:none;stroke:#000000;stroke-opacity:1">
      <path
         d="m 39.363241,1033.1291 -0.05636,9.4115"
         id="path84"
         style="fill:none;stroke:#000000;stroke-width:2.5;stroke-linecap:round;stroke-linejoin:round;stroke-miterlimit:4;stroke-opacity:1;stroke-dasharray:none" />
    </g>
    <path
       d="m 16.24999,43.412154 0,-6.562494 q 0,-1.171875 0.82031,-1.992195 0.82031,-0.82031 1.99219,-0.82031 l 0,-3.75 q 0,-3.51563 2.46094,-5.97656 2.46093,-2.46094 5.97656,-2.46094 3.51562,0 5.97656,2.46094 2.46094,2.46093 2.46094,5.97656 l 0,3.75 q 1.17187,0 1.99219,0.82031 0.82031,0.82032 0.82031,1.992195 l 0,6.562494 q 0,3.51562 -2.46094,5.97656 -2.46094,2.46094 -5.97656,2.46094 l -5.625,0 q -3.51563,0 -5.97656,-2.46094 -2.46094,-2.46094 -2.46094,-5.97656 z m 1.875,0 q 0,2.69531 1.93359,4.62891 1.9336,1.93359 4.62891,1.93359 l 5.625,0 q 2.69531,0 4.62891,-1.93359 1.93359,-1.9336 1.93359,-4.62891 l 0,-6.562494 q 0,-0.410165 -0.26369,-0.673845 -0.26368,-0.26369 -0.67384,-0.26369 l -16.875,0 q -0.41016,0 -0.67384,0.26369 -0.26369,0.26368 -0.26369,0.673845 l 0,6.562494 z m 2.8125,-9.374999 1.875,0 0,-3.75 q 0,-1.93359 1.37694,-3.31056 1.37694,-1.37697 3.31056,-1.37694 1.93362,3e-5 3.31056,1.37694 1.37694,1.37691 1.37694,3.31056 l 0,3.75 1.875,0 0,-3.75 q 0,-2.69531 -1.93359,-4.62891 -1.9336,-1.93359 -4.62891,-1.93359 -2.69531,0 -4.62891,1.93359 -1.93359,1.9336 -1.93359,4.62891 l 0,3.75 z m 2.8125,0 7.5,0 0,-3.75 q 0,-1.58203 -1.08397,-2.66603 -1.08397,-1.084 -2.66603,-1.08397 -1.58206,3e-5 -2.66603,1.08397 -1.08397,1.08394 -1.08397,2.66603 l 0,3.75 z m 1.875,7.499995 q 0,-0.76172 0.55663,-1.31836 0.55662,-0.55666 1.31837,-0.55663 0.76175,2e-5 1.31837,0.55663 0.55663,0.55658 0.55663,1.31836 0,0.82031 -0.64453,2.519534 -0.41016,1.23047 -1.23047,1.23047 -0.82031,0 -1.23047,-1.23047 -0.64453,-1.699224 -0.64453,-2.519534 z"
       id="path86" />
  </g>
</svg>
