<?xml version="1.0" encoding="UTF-8" standalone="no"?>
<!-- Created with Inkscape (http://www.inkscape.org/) -->

<svg
   xmlns:dc="http://purl.org/dc/elements/1.1/"
   xmlns:cc="http://creativecommons.org/ns#"
   xmlns:rdf="http://www.w3.org/1999/02/22-rdf-syntax-ns#"
   xmlns:svg="http://www.w3.org/2000/svg"
   xmlns="http://www.w3.org/2000/svg"
   version="1.1"
   width="130"
   height="84"
   id="svg3779">
  <metadata
     id="metadata3816">
    <rdf:RDF>
      <cc:Work
         rdf:about="">
        <dc:format>image/svg+xml</dc:format>
        <dc:type
           rdf:resource="http://purl.org/dc/dcmitype/StillImage" />
        <dc:title></dc:title>
      </cc:Work>
    </rdf:RDF>
  </metadata>
  <defs
     id="defs3814">
    <filter
       height="1.3"
       color-interpolation-filters="sRGB"
       id="dropshadow">
      <feGaussianBlur
         in="SourceAlpha"
         stdDeviation="3"
         id="feGaussianBlur3784" />
      <feOffset
         dx="2"
         dy="2"
         result="offsetblur"
         id="feOffset3786" />
      <feComponentTransfer
         id="feComponentTransfer3788">
        <feFuncA
           type="linear"
           slope="0.2"
           id="feFuncA3790" />
      </feComponentTransfer>
      <feMerge
         id="feMerge3792">
        <feMergeNode
           id="feMergeNode3794" />
        <feMergeNode
           in="SourceGraphic"
           id="feMergeNode3796" />
      </feMerge>
    </filter>
  </defs>
  <path
     d="m 17,17 0,-8 a 8,8 0 0 1 8,-8 l 8,0 20,0 60,0 8,0 a 8,8 0 0 1 8,8 l 0,8 -8,0 0,-6 -8,0 0,20 8,0 0,-6 8,0 0,34 -8,0 0,-6 -8,0 0,20 8,0 0,-6 8,0 0,8 a 8,8 0 0 1 -8,8 l -8,0 -60,0 -20,0 -8,0 a 8,8 0 0 1 -8,-8 l 0,-8 0,-42 0,-2 -12,0 0,6 -4,0 0,-16 4,0 0,6 12,0 0,-2 z"
     id="path3798"
     style="fill:#ff00ff;fill-opacity:1;stroke:#c700d3;stroke-width:2;stroke-linecap:round;stroke-opacity:1" />
  <text
     id="text3800"
     style="font-size:28px;text-anchor:end;fill:#000000;font-family:sans-serif">
    <tspan
       x="110"
       y="49"
       id="tspan3802">–</tspan>
  </text>
  <text
     id="text3804"
     style="font-size:18.66666603px;text-anchor:end;fill:#000000;font-family:sans-serif">
    <tspan
       x="110"
       y="21.5"
       id="tspan3806" />
  </text>
  <text
     id="text3808"
     style="font-size:18.66666603px;text-anchor:end;fill:#000000;font-family:sans-serif">
    <tspan
       x="110"
       y="63.5"
       id="tspan3810" />
  </text>
</svg>
