<?xml version="1.0" ?><!DOCTYPE svg  PUBLIC '-//W3C//DTD SVG 1.1//EN'  'http://www.w3.org/Graphics/SVG/1.1/DTD/svg11.dtd' [
	<!ENTITY stroke_color "#010101">
	<!ENTITY fill_color "#FFFFFF">
]><svg enable-background="new 0 0 55 55" height="55px" version="1.1" viewBox="0 0 55 55" width="55px" x="0px" xml:space="preserve" xmlns="http://www.w3.org/2000/svg" xmlns:xlink="http://www.w3.org/1999/xlink" y="0px"><g display="block" id="view-expand">
	<path d="M4.875,5v45h45V5H4.875z M23.638,44.051H12.574c-0.071,0-0.141-0.013-0.21-0.021   c-0.042-0.005-0.084-0.004-0.126-0.013c-0.033-0.007-0.064-0.02-0.097-0.028c-0.079-0.021-0.158-0.04-0.234-0.071   c-0.013-0.006-0.025-0.015-0.038-0.021c-0.09-0.04-0.178-0.084-0.262-0.14c-0.096-0.063-0.187-0.137-0.269-0.219   c-0.083-0.083-0.157-0.175-0.222-0.272c-0.03-0.046-0.051-0.096-0.076-0.144c-0.028-0.052-0.06-0.102-0.083-0.157   c-0.032-0.076-0.052-0.156-0.072-0.235c-0.008-0.03-0.021-0.06-0.027-0.091c-0.019-0.098-0.027-0.196-0.029-0.296   c0-0.015-0.004-0.028-0.004-0.043V31.236c0-0.969,0.783-1.751,1.749-1.751c0.968,0,1.751,0.782,1.751,1.751v6.839l8.012-8.015   c0.684-0.682,1.792-0.682,2.476,0c0.682,0.684,0.682,1.792,0,2.477L16.8,40.549h6.838v0.003c0.966,0,1.75,0.782,1.75,1.748   C25.389,43.267,24.604,44.051,23.638,44.051z M42.573,25.114c-0.968,0-1.751-0.783-1.751-1.751v-6.84l-9.013,9.013   c-0.342,0.342-0.79,0.513-1.238,0.513c-0.447,0-0.896-0.171-1.237-0.513c-0.683-0.684-0.683-1.791,0-2.475l9.011-9.012h-6.834   c-0.966,0-1.751-0.785-1.751-1.751c0-0.966,0.785-1.751,1.751-1.751h11.062c0.104,0,0.209,0.012,0.312,0.031   c0.007,0.001,0.015,0.001,0.021,0.002c0.055,0.011,0.106,0.031,0.16,0.047c0.058,0.017,0.116,0.03,0.172,0.053   c0.032,0.013,0.062,0.033,0.093,0.049c0.071,0.034,0.144,0.067,0.21,0.112c0.057,0.037,0.105,0.083,0.156,0.127   c0.037,0.031,0.077,0.057,0.112,0.091c0.047,0.047,0.083,0.101,0.124,0.152c0.03,0.039,0.066,0.074,0.094,0.115   c0.061,0.091,0.11,0.187,0.151,0.285c0.003,0.006,0.007,0.011,0.01,0.017c0.034,0.083,0.057,0.168,0.077,0.255   c0.007,0.025,0.018,0.05,0.022,0.076c0.012,0.061,0.014,0.124,0.019,0.186c0.005,0.051,0.016,0.102,0.016,0.153l0.002,11.065   C44.324,24.332,43.54,25.114,42.573,25.114z" fill="&fill_color;"/>
</g></svg>