<?xml version="1.0" encoding="utf-8"?>
<!-- Generator: Adobe Illustrator 16.0.1, SVG Export Plug-In . SVG Version: 6.00 Build 0)  -->
<!DOCTYPE svg PUBLIC "-//W3C//DTD SVG 1.1//EN" "http://www.w3.org/Graphics/SVG/1.1/DTD/svg11.dtd" [
  <!ENTITY stroke_color "#000000">
	<!ENTITY fill_color "#FFFFFF">
]>
<svg version="1.1" id="Layer_1" xmlns="http://www.w3.org/2000/svg" xmlns:xlink="http://www.w3.org/1999/xlink" x="0px" y="0px"
	 width="81px" height="81px" viewBox="0 0 81 81" enable-background="new 0 0 81 81" xml:space="preserve">
<g>
	<g>
		<path style="fill:&stroke_color;;" d="M40.381,80.463c22.083,0,40.049-17.967,40.049-40.05c0-22.083-17.966-40.048-40.049-40.048
			S0.332,18.331,0.332,40.413C0.332,62.496,18.298,80.463,40.381,80.463z"/>
	</g>
	<path style="fill:&fill_color;;" d="M70.167,47.561l-3.272,2.305c-0.189,0.133-0.321,0.332-0.389,0.555c-1.543,5.051-5.654,8.982-6.78,9.986
		c-0.172,0.154-0.283,0.371-0.272,0.6l0.147,3.213c0.001,0.012,0.008,0.021,0.011,0.033c-5.258,4.246-11.945,6.795-19.23,6.795
		c-8.596,0-16.36-3.545-21.924-9.248c0.009-0.016,0.02-0.027,0.025-0.047c0.348-1.291,1.129-2.551,1.497-3.102
		c0.107-0.158,0.084-0.373-0.062-0.498c-3.592-3.023-4.858-9.674-5.123-11.322c-0.032-0.201-0.174-0.379-0.376-0.404
		c-2.188-0.281-3.965-2.053-4.477-2.609c-0.124-1.117-0.193-2.252-0.193-3.403c0-4.499,0.979-8.766,2.72-12.614
		c0.636-0.857,1.982-2.397,4.314-3.873c0.2-0.127,0.351-0.319,0.436-0.54c0.35-0.892,1.314-3.307,2.293-5.388
		c3.923-3.654,8.805-6.288,14.229-7.488c0.004,0.004,0.007,0.009,0.012,0.013c1.061,0.679,2.43,1.64,3.348,2.592
		c0.159,0.165,0.374,0.267,0.603,0.269c1.672,0.017,7.368,0.009,10.514,1.137c0.183,0.065,0.332-0.047,0.488-0.162
		c0.606-0.447,2.543-1.938,2.871-2.363c0.02-0.025,0.025-0.054,0.033-0.082c11.362,4.479,19.406,15.547,19.406,28.5
		C71.014,42.875,70.715,45.266,70.167,47.561z"/>
	<path style="fill:&stroke_color;;" d="M56.901,23.922c-0.783,1.156-3.743,5.517-5.312,7.773c-0.116,0.167-0.109,0.388-0.005,0.562
		c0.733,1.232,3.554,6.07,5.206,10.398c0.072,0.189,0.262,0.305,0.463,0.293c1.301-0.076,5.944-0.439,8.313-1.831
		c0.185-0.108,0.292-0.311,0.312-0.524c0.15-1.576,0.679-8.07-0.508-11.089c-0.083-0.211-0.217-0.4-0.38-0.56
		c-0.925-0.908-4.358-4.129-7.585-5.211C57.218,23.669,57.014,23.757,56.901,23.922z"/>
	<path style="fill:&stroke_color;;" d="M49.536,54.631c-0.046-0.193-0.22-0.33-0.418-0.334c-1.806-0.029-9.639-0.203-11.469-0.244
		c-0.217-0.004-0.436,0.086-0.543,0.275c-1.888,3.322-4.229,6.492-4.916,7.402c-0.118,0.156-0.095,0.375,0.04,0.518
		c2.886,3.053,7.856,4.643,9.197,5.029c0.23,0.068,0.473,0.082,0.711,0.051c4.406-0.607,8.457-3.762,9.508-4.637
		c0.155-0.129,0.185-0.352,0.098-0.533C50.996,60.578,49.846,55.912,49.536,54.631z"/>
	<path style="fill:&stroke_color;;" d="M38.395,31.193c-0.987-1.335-5.026-6.767-6.447-8.256c-0.145-0.152-0.362-0.215-0.565-0.163
		c-1.399,0.359-7.078,1.941-10.455,4.717c-0.181,0.147-0.319,0.343-0.385,0.566c-0.34,1.152-1.32,5.248-0.198,11.167
		c0.04,0.218,0.164,0.417,0.358,0.522c1.019,0.556,4.697,2.322,10.639,2.586c0.213,0.01,0.422-0.08,0.54-0.256
		c0.917-1.37,5.051-7.561,6.562-10.273C38.551,31.61,38.526,31.371,38.395,31.193z"/>
</g>
</svg>
