<svg height='100px' width='100px'  fill="#C3C3C3" xmlns="http://www.w3.org/2000/svg" data-name="Layer 1" viewBox="0 0 128 128" x="0px" y="0px"><title>miscellaneous 57 solid</title><path d="M29,0H0V29H29ZM21.94141,11.88623l-7.69141,8a1.99942,1.99942,0,0,1-2.88281,0L7.05859,15.40479a1.99982,1.99982,0,1,1,2.88281-2.77246l2.86719,2.98193,6.25-6.50049a1.99982,1.99982,0,1,1,2.88281,2.77246Z"></path><path d="M29,33H0V62H29ZM25,58H4V37H25Z"></path><path d="M11.36719,52.88623a1.99942,1.99942,0,0,0,2.88281,0l7.69141-8a1.99982,1.99982,0,1,0-2.88281-2.77246l-6.25,6.50049L9.94141,45.63232a1.99982,1.99982,0,1,0-2.88281,2.77246Z"></path><path d="M29,66H0V95H29ZM21.94141,77.88623l-7.69141,8a1.99942,1.99942,0,0,1-2.88281,0L7.05859,81.40479a1.99982,1.99982,0,1,1,2.88281-2.77246l2.86719,2.98193,6.25-6.50049a1.99982,1.99982,0,1,1,2.88281,2.77246Z"></path><path d="M29,99H0v29H29Zm-4,25H4V103H25Z"></path><path d="M11.36719,118.88623a1.99942,1.99942,0,0,0,2.88281,0l7.69141-8a1.99982,1.99982,0,1,0-2.88281-2.77246l-6.25,6.50049-2.86719-2.98193a1.99982,1.99982,0,1,0-2.88281,2.77246Z"></path><path d="M62,0H33V29H62ZM58,25H37V4H58Z"></path><path d="M44.36719,19.88623a1.99942,1.99942,0,0,0,2.88281,0l7.69141-8a1.99982,1.99982,0,1,0-2.88281-2.77246l-6.25,6.50049-2.86719-2.98193a1.99982,1.99982,0,1,0-2.88281,2.77246Z"></path><path d="M62,33H33V62H62ZM54.94141,44.88623l-7.69141,8a1.99942,1.99942,0,0,1-2.88281,0l-4.30859-4.48145a1.99982,1.99982,0,1,1,2.88281-2.77246l2.86719,2.98193,6.25-6.50049a1.99982,1.99982,0,1,1,2.88281,2.77246Z"></path><path d="M62,66H33V95H62ZM58,91H37V70H58Z"></path><path d="M44.36719,85.88623a1.99942,1.99942,0,0,0,2.88281,0l7.69141-8a1.99982,1.99982,0,1,0-2.88281-2.77246l-6.25,6.50049-2.86719-2.98193a1.99982,1.99982,0,1,0-2.88281,2.77246Z"></path><path d="M33,128H62V99H33Zm7.11426-16.42334a2.00116,2.00116,0,0,1,2.82715.05566l2.86719,2.98193,6.25-6.50049a1.99982,1.99982,0,1,1,2.88281,2.77246l-7.69141,8a1.99942,1.99942,0,0,1-2.88281,0l-4.30859-4.48145A1.99966,1.99966,0,0,1,40.11426,111.57666Z"></path><path d="M95,0H66V29H95ZM87.94141,11.88623l-7.69141,8a1.99942,1.99942,0,0,1-2.88281,0l-4.30859-4.48145a1.99982,1.99982,0,1,1,2.88281-2.77246l2.86719,2.98193,6.25-6.50049a1.99982,1.99982,0,1,1,2.88281,2.77246Z"></path><path d="M95,33H66V62H95ZM91,58H70V37H91Z"></path><path d="M77.36719,52.88623a1.99942,1.99942,0,0,0,2.88281,0l7.69141-8a1.99982,1.99982,0,1,0-2.88281-2.77246l-6.25,6.50049-2.86719-2.98193a1.99982,1.99982,0,1,0-2.88281,2.77246Z"></path><path d="M95,66H66V95H95ZM87.94141,77.88623l-7.69141,8a1.99942,1.99942,0,0,1-2.88281,0l-4.30859-4.48145a1.99982,1.99982,0,1,1,2.88281-2.77246l2.86719,2.98193,6.25-6.50049a1.99982,1.99982,0,1,1,2.88281,2.77246Z"></path><path d="M66,128H95V99H66Zm4-25H91v21H70Z"></path><path d="M85.05859,108.11377l-6.25,6.50049-2.86719-2.98193a1.99982,1.99982,0,1,0-2.88281,2.77246l4.30859,4.48145a1.99942,1.99942,0,0,0,2.88281,0l7.69141-8a1.99982,1.99982,0,1,0-2.88281-2.77246Z"></path><path d="M99,29h29V0H99Zm4-25h21V25H103Z"></path><path d="M118.05859,9.11377l-6.25,6.50049-2.86719-2.98193a1.99982,1.99982,0,1,0-2.88281,2.77246l4.30859,4.48145a1.99942,1.99942,0,0,0,2.88281,0l7.69141-8a1.99982,1.99982,0,1,0-2.88281-2.77246Z"></path><path d="M99,62h29V33H99Zm7.11426-16.42334a2.0007,2.0007,0,0,1,2.82715.05566l2.86719,2.98193,6.25-6.50049a1.99982,1.99982,0,1,1,2.88281,2.77246l-7.69141,8a1.99942,1.99942,0,0,1-2.88281,0l-4.30859-4.48145A1.99966,1.99966,0,0,1,106.11426,45.57666Z"></path><path d="M99,95h29V66H99Zm4-25h21V91H103Z"></path><path d="M118.05859,75.11377l-6.25,6.50049-2.86719-2.98193a1.99982,1.99982,0,1,0-2.88281,2.77246l4.30859,4.48145a1.99942,1.99942,0,0,0,2.88281,0l7.69141-8a1.99982,1.99982,0,1,0-2.88281-2.77246Z"></path><path d="M99,128h29V99H99Zm7.11426-16.42334a2.00114,2.00114,0,0,1,2.82715.05566l2.86719,2.98193,6.25-6.50049a1.99982,1.99982,0,1,1,2.88281,2.77246l-7.69141,8a1.99942,1.99942,0,0,1-2.88281,0l-4.30859-4.48145A1.99966,1.99966,0,0,1,106.11426,111.57666Z"></path></svg>