<?xml version="1.0" encoding="utf-8"?>
<!-- Generator: Adobe Illustrator 13.0.2, SVG Export Plug-In . SVG Version: 6.00 Build 14948)  -->
<!DOCTYPE svg PUBLIC "-//W3C//DTD SVG 1.1//EN" "http://www.w3.org/Graphics/SVG/1.1/DTD/svg11.dtd">
<svg version="1.1" id="Layer_1" xmlns="http://www.w3.org/2000/svg" xmlns:xlink="http://www.w3.org/1999/xlink" x="0px" y="0px"
	 width="55px" height="54.695px" viewBox="0 0 55 54.695" enable-background="new 0 0 55 54.695" xml:space="preserve">
<g id="format-text-bold">
	<g enable-background="new    ">
		<path fill="#FFFFFF" d="M34.729,25.985c1.615,0.469,2.865,1.335,3.75,2.598c0.886,1.263,1.328,2.812,1.328,4.648
			c0,2.812-0.95,4.909-2.852,6.289c-1.9,1.38-4.791,2.07-8.672,2.07h-12.48V12.43h11.289c4.049,0,6.982,0.612,8.798,1.836
			s2.725,3.184,2.725,5.879c0,1.419-0.332,2.627-0.996,3.623S35.992,25.503,34.729,25.985z M27.483,23.719
			c1.185,0,2.083-0.261,2.695-0.781c0.612-0.521,0.918-1.289,0.918-2.305c0-1.003-0.306-1.768-0.918-2.295
			c-0.611-0.527-1.51-0.791-2.695-0.791h-4.16v6.172H27.483z M27.737,36.473c1.51,0,2.646-0.319,3.408-0.957
			s1.143-1.602,1.143-2.891c0-1.263-0.377-2.21-1.133-2.842c-0.755-0.632-1.895-0.947-3.417-0.947h-4.414v7.637H27.737z"/>
	</g>
</g>
</svg>
