<?xml version="1.0" encoding="UTF-8" standalone="no"?>
<svg
   xmlns:dc="http://purl.org/dc/elements/1.1/"
   xmlns:cc="http://creativecommons.org/ns#"
   xmlns:rdf="http://www.w3.org/1999/02/22-rdf-syntax-ns#"
   xmlns:svg="http://www.w3.org/2000/svg"
   xmlns="http://www.w3.org/2000/svg"
   xmlns:sodipodi="http://sodipodi.sourceforge.net/DTD/sodipodi-0.dtd"
   xmlns:inkscape="http://www.inkscape.org/namespaces/inkscape"
   version="1.1"
   width="55.125"
   height="55"
   viewBox="0 0 55.125 55"
   id="svg4477"
   xml:space="preserve"
   sodipodi:docname="abacus-list.svg"
   inkscape:version="1.0.1 (0767f8302a, 2020-10-17)"><style
     id="style854"></style><sodipodi:namedview
     pagecolor="#ffffff"
     bordercolor="#666666"
     borderopacity="1"
     objecttolerance="10"
     gridtolerance="10"
     guidetolerance="10"
     inkscape:pageopacity="0"
     inkscape:pageshadow="2"
     inkscape:window-width="1523"
     inkscape:window-height="843"
     id="namedview29"
     showgrid="false"
     inkscape:zoom="12.145455"
     inkscape:cx="27.5625"
     inkscape:cy="27.5"
     inkscape:window-x="72"
     inkscape:window-y="27"
     inkscape:window-maximized="0"
     inkscape:current-layer="svg4477" /><metadata
     id="metadata4486"><rdf:RDF><cc:Work
         rdf:about=""><dc:format>image/svg+xml</dc:format><dc:type
           rdf:resource="http://purl.org/dc/dcmitype/StillImage" /><dc:title /></cc:Work></rdf:RDF></metadata><defs
     id="defs4484">
	

		
		
		
		
		
		
			
		
	
			
				
			
		</defs><g
     transform="translate(-0.2743801,0.51351)"
     id="g3036"><path
       d="M 9.5689397,38.952218 9.3902171,32.897964 M 25.663656,50.969805 3.6345541,51.23649 3.5243801,39.2454 9.3757861,32.886428 H 30.633677 L 30.523503,45.010906 Z M 3.6345541,39.378743 l 21.4782339,0.266685 0.33052,10.924347 m -0.306426,-11.052011 5.531132,-6.638311"
       id="path3806"
       style="fill:none;stroke:#ffffff;stroke-width:2.5;stroke-linecap:butt;stroke-linejoin:miter;stroke-miterlimit:4;stroke-dasharray:none;stroke-dashoffset:0;stroke-opacity:1" /><g
       transform="matrix(0,-1,-1,0,47.3087,85.9835)"
       id="g4770"><g
         transform="translate(34.0803,-1006.42)"
         id="g4772"><polyline
           id="polyline4774"
           points="51.562,15.306 41.17,16.188 42.053,5.794"
           style="fill:none;stroke:#ffffff;stroke-width:3.5;stroke-linecap:round;stroke-linejoin:round"
           transform="matrix(-0.469241,0.469241,-0.469241,-0.469241,66.2906,1019.03)" /><path
           d="m 39.363241,1033.1291 -0.05636,9.9115 -8.750608,0.067"
           id="path4776"
           style="fill:none;stroke:#ffffff;stroke-width:2.5;stroke-linecap:round;stroke-linejoin:round;stroke-miterlimit:4;stroke-dasharray:none;stroke-opacity:1" /></g></g></g><style
     id="style853" /><g
     id="g1018"
     transform="matrix(0.45,0,0,0.45,20.991016,9.3075332)"
     style="fill:#ffffff"><path
       inkscape:connector-curvature="0"
       d="m 19.142695,19.352073 0.461618,-1.74698 a 0.82766642,0.82766642 0 0 0 -0.602562,-1.052883 0.82766642,0.82766642 0 0 0 -1.019579,0.598472 l -0.462981,1.735878 a 0.85003577,0.85003577 0 0 0 0.602562,1.052883 0.97306727,0.97306727 0 0 0 0.310837,-0.03817 0.83885108,0.83885108 0 0 0 0.710105,-0.549205 z"
       id="path26"
       style="fill:#ffffff;stroke-width:1.11847" /><path
       inkscape:connector-curvature="0"
       d="m 24.642102,19.905115 a 0.8947745,0.8947745 0 0 0 0.32486,-0.1075 0.82766642,0.82766642 0 0 0 0.296645,-1.163291 l -1.342036,-2.303059 a 0.82766642,0.82766642 0 0 0 -1.163291,-0.296644 0.83885108,0.83885108 0 0 0 -0.307745,1.164655 l 1.353137,2.301695 a 0.82766642,0.82766642 0 0 0 0.83843,0.404144 z"
       id="path28"
       style="fill:#ffffff;stroke-width:1.11847" /><path
       inkscape:connector-curvature="0"
       d="m 13.393073,16.485868 a 0.8947745,0.8947745 0 0 0 0.324861,-0.1075 l 1.789082,-1.031017 A 0.83931745,0.83931745 0 0 0 14.663935,13.89579 l -1.755778,1.026928 a 0.83885108,0.83885108 0 0 0 0.484916,1.56315 z"
       id="path30"
       style="fill:#ffffff;stroke-width:1.11847" /><path
       inkscape:connector-curvature="0"
       d="m 39.493028,22.465166 a 0.85003577,0.85003577 0 0 0 0.737183,-0.879322 l -0.09733,-1.802306 a 0.84071359,0.84071359 0 0 0 -1.678828,0.09345 l 0.09734,1.802303 a 0.85003577,0.85003577 0 0 0 0.886139,0.792693 z"
       id="path32"
       style="fill:#ffffff;stroke-width:1.11847" /><path
       inkscape:connector-curvature="0"
       d="m 45.443164,20.540102 a 0.83885108,0.83885108 0 0 0 0.463753,-1.454258 l -1.993709,-1.828639 a 0.84385066,0.84385066 0 0 0 -1.118142,1.264157 l 1.986895,1.773134 a 0.85003577,0.85003577 0 0 0 0.661203,0.245606 z"
       id="path34"
       style="fill:#ffffff;stroke-width:1.11847" /><path
       inkscape:connector-curvature="0"
       d="m 34.1592,20.415594 1.347574,-1.506432 a 0.83885108,0.83885108 0 0 0 -0.05567,-1.187644 0.85003577,0.85003577 0 0 0 -1.186281,0.06678 l -1.369777,1.50916 a 0.83885108,0.83885108 0 0 0 0.734992,1.397221 0.86122045,0.86122045 0 0 0 0.529167,-0.279079 z"
       id="path36"
       style="fill:#ffffff;stroke-width:1.11847" /><path
       inkscape:connector-curvature="0"
       d="m 59.089753,20.633693 0.166524,-0.02045 a 0.82766642,0.82766642 0 0 0 0.535026,-1.057336 l -0.559504,-1.711755 a 0.83885108,0.83885108 0 0 0 -1.592364,0.522311 l 0.562232,1.733953 a 0.83885108,0.83885108 0 0 0 0.888091,0.533272 z"
       id="path38"
       style="fill:#ffffff;stroke-width:1.11847" /><path
       inkscape:connector-curvature="0"
       d="m 64.269064,17.203123 a 0.86122045,0.86122045 0 0 0 0.654402,-0.452218 0.82766642,0.82766642 0 0 0 -0.369435,-1.081507 l -2.401551,-1.20386 a 0.83911206,0.83911206 0 1 0 -0.751025,1.500799 l 2.400189,1.192759 a 0.79411237,0.79411237 0 0 0 0.46742,0.04403 z"
       id="path40"
       style="fill:#ffffff;stroke-width:1.11847" /><path
       inkscape:connector-curvature="0"
       d="m 53.612747,19.987749 0.905669,-1.801503 a 0.82766642,0.82766642 0 0 0 -0.369434,-1.081505 0.83885108,0.83885108 0 0 0 -1.082871,0.358332 l -0.904306,1.812606 a 0.83885108,0.83885108 0 0 0 0.369434,1.081506 0.80529705,0.80529705 0 0 0 0.483975,0.08708 0.82766642,0.82766642 0 0 0 0.597533,-0.456503 z"
       id="path42"
       style="fill:#ffffff;stroke-width:1.11847" /><path
       inkscape:connector-curvature="0"
       d="m 11.932172,-0.64344456 a 74.299837,74.299837 0 0 0 9.984084,2.66180316 0.55923406,0.55923406 0 0 0 -0.07245,0.144125 c 0,0 0.01227,0.099906 0.01772,0.1443125 l -0.133215,0.016359 a 1.3421617,1.3421617 0 0 0 -1.76337,0.6897925 L 18.64089,6.4547054 a 4.8317822,4.8317822 0 0 0 0.797339,9.0635326 4.988368,4.988368 0 0 0 1.818466,0.126047 4.7758589,4.7758589 0 0 0 1.849254,-0.632731 4.8541517,4.8541517 0 0 0 1.692993,-6.5859439 1.5658553,1.5658553 0 0 1 -0.123084,-0.1764594 L 25.232175,4.4283789 C 25.363846,3.8487789 25.055945,3.176657 24.050799,2.883132 L 23.759635,2.806193 a 1.3980851,1.3980851 0 0 0 0.07245,-0.144125 1.1184681,1.1184681 0 0 0 -0.03408,-0.2775312 92.363098,92.363098 0 0 0 13.818338,1.4923562 0.93951322,0.93951322 0 0 0 -0.117657,0.5102672 0.33554044,0.33554044 0 0 0 0.01772,0.1443281 l -0.144328,0.017719 a 1.3309771,1.3309771 0 0 0 -1.464811,1.1940359 l -0.211973,3.6883532 a 2.8185397,2.8185397 0 0 0 -0.333628,0.311414 4.7646742,4.7646742 0 0 0 -1.222972,3.5307656 4.8205975,4.8205975 0 0 0 5.070262,4.583576 L 39.542,17.816462 A 4.8205975,4.8205975 0 0 0 42.009207,9.2761257 L 41.376513,5.4999242 C 41.31245,4.9781617 40.840558,4.4388632 39.782041,4.4448757 l -0.299736,0.036797 a 0.55923406,0.55923406 0 0 0 -0.01772,-0.1443125 1.0401754,1.0401754 0 0 0 -0.04498,-0.3663437 l 0.678348,0.018125 a 81.648173,81.648173 0 0 0 10.326931,-0.603136 c 0.777093,-0.095422 1.52088,-0.1867406 2.220263,-0.272614 a 0.99543664,0.99543664 0 0 0 -0.01516,0.6103765 1.5546707,1.5546707 0 0 0 0.08433,0.1361407 l -0.133219,0.016359 c -0.996784,0.3252266 -1.224475,1.0405735 -1.106266,1.5444172 l 0.748185,3.6155297 a 4.8205975,4.8205975 0 0 0 4.661987,7.3156514 5.3462777,5.3462777 0 0 0 0.921607,-0.203309 4.8205975,4.8205975 0 0 0 2.813156,-2.41885 4.8205975,4.8205975 0 0 0 -2.341252,-6.5864221 L 56.719933,3.6272586 A 1.3421617,1.3421617 0 0 0 54.926019,3.0587179 l -0.29292,0.092312 A 0.73818897,0.73818897 0 0 0 54.614021,2.9956086 0.8947745,0.8947745 0 0 0 54.527161,2.7470929 56.314869,56.314869 0 0 0 65.740302,-0.27493519 1.1184681,1.1184681 0 0 0 64.879122,-2.33278 C 64.7792,-2.3205144 54.971817,1.7797336 40.202828,1.7225383 A 88.660969,88.660969 0 0 1 12.716516,-2.7906474 1.1205354,1.1205354 0 0 0 11.937821,-0.68921175 Z M 21.716376,4.612157 22.882393,4.9310054 22.600728,6.8587273 20.981314,6.4265195 Z m 1.438925,6.854978 v 0 a 2.6060308,2.6060308 0 1 1 -5.041317,-1.319217 2.5724767,2.5724767 0 0 1 1.588107,-1.7500719 l 2.95604,0.7639125 a 3.4336972,3.4336972 0 0 1 0.230978,0.3209672 2.5165533,2.5165533 0 0 1 0.266192,1.9844092 z m 14.965216,-4.6772046 1.241786,-0.073594 0.314886,1.9220859 -1.667726,0.092078 z m 2.288529,4.0461746 a 2.6060308,2.6060308 0 0 1 1.185843,2.040521 2.6060308,2.6060308 0 0 1 -4.342595,2.077012 2.6172155,2.6172155 0 0 1 -0.20422,-3.682319 3.4225123,3.4225123 0 0 1 0.293312,-0.272656 z M 57.099178,9.1023382 a 2.6284,2.6284 0 0 1 1.790193,1.6395248 2.5836614,2.5836614 0 0 1 -0.150016,1.990436 2.6060308,2.6060308 0 0 1 -4.800616,-0.368395 2.5724767,2.5724767 0 0 1 0.371263,-2.299322 z M 55.120702,5.3786914 55.924239,7.1506289 54.331874,7.6729382 53.929539,5.772857 Z"
       id="path44"
       style="fill:#ffffff;stroke-width:1.11847" /></g></svg>
