<?xml version="1.0" encoding="UTF-8" standalone="no"?>
<svg
   xmlns:dc="http://purl.org/dc/elements/1.1/"
   xmlns:cc="http://creativecommons.org/ns#"
   xmlns:rdf="http://www.w3.org/1999/02/22-rdf-syntax-ns#"
   xmlns:svg="http://www.w3.org/2000/svg"
   xmlns="http://www.w3.org/2000/svg"
   xmlns:sodipodi="http://sodipodi.sourceforge.net/DTD/sodipodi-0.dtd"
   xmlns:inkscape="http://www.inkscape.org/namespaces/inkscape"
   width="120.42333mm"
   height="70.896759mm"
   viewBox="0 0 120.42333 70.896759"
   version="1.1"
   id="svg8"
   inkscape:version="1.0.1 (0767f8302a, 2020-10-17)"
   sodipodi:docname="rainbow.svg">
  <style
     id="style2"></style>
  <defs
     id="defs2">
    <clipPath
       clipPathUnits="userSpaceOnUse"
       id="clipPath911">
      <path
         style="fill:#ffffff;stroke:#ffffff;stroke-width:0.396888;stroke-linecap:round;stroke-linejoin:round"
         d="M 22.036369,110.95818 H 155.40873 v 54.14253 H 22.036369 Z"
         id="path913" />
    </clipPath>
  </defs>
  <sodipodi:namedview
     id="base"
     pagecolor="#ffffff"
     bordercolor="#666666"
     borderopacity="1.0"
     inkscape:pageopacity="0.0"
     inkscape:pageshadow="2"
     inkscape:zoom="1"
     inkscape:cx="288.70526"
     inkscape:cy="175.4837"
     inkscape:document-units="mm"
     inkscape:current-layer="layer1"
     inkscape:document-rotation="0"
     showgrid="false"
     fit-margin-top="10"
     fit-margin-left="10"
     fit-margin-right="10"
     fit-margin-bottom="10"
     inkscape:window-width="1528"
     inkscape:window-height="845"
     inkscape:window-x="72"
     inkscape:window-y="27"
     inkscape:window-maximized="1" />
  <metadata
     id="metadata5">
    <rdf:RDF>
      <cc:Work
         rdf:about="">
        <dc:format>image/svg+xml</dc:format>
        <dc:type
           rdf:resource="http://purl.org/dc/dcmitype/StillImage" />
        <dc:title />
      </cc:Work>
    </rdf:RDF>
  </metadata>
  <g
     inkscape:label="Calque 1"
     inkscape:groupmode="layer"
     id="layer1"
     transform="translate(-29.446734,-18.359536)">
    <g
       id="g902"
       transform="rotate(180,88.54461,95.107236)"
       clip-path="url(#clipPath911)">
      <path
         id="path837"
         style="fill:#808080;stroke:#808080;stroke-width:0.423333;stroke-linecap:round;stroke-linejoin:round"
         d="m 137.43082,111.64327 a 50,50 0 0 1 -49.999996,50 50,50 0 0 1 -50,-50 50,50 0 0 1 50,-49.999998 50,50 0 0 1 49.999996,49.999998 z" />
      <path
         id="path837-3"
         style="fill:#b3b3b3;stroke:#b3b3b3;stroke-width:0.337239;stroke-linecap:round;stroke-linejoin:round"
         d="M 127.49731,111.19645 A 39.831383,39.831379 0 0 1 87.665924,151.02783 39.831383,39.831379 0 0 1 47.834541,111.19645 39.831383,39.831379 0 0 1 87.665924,71.36507 39.831383,39.831379 0 0 1 127.49731,111.19645 Z" />
      <path
         id="path837-3-6"
         style="fill:#cccccc;stroke:#e6e6e6;stroke-width:0.252928;stroke-linecap:round;stroke-linejoin:round"
         d="M 117.52631,110.13961 A 29.873535,29.873535 0 0 1 87.652771,140.01315 29.873535,29.873535 0 0 1 57.779236,110.13961 29.873535,29.873535 0 0 1 87.652771,80.266075 29.873535,29.873535 0 0 1 117.52631,110.13961 Z" />
      <path
         id="path837-3-6-7"
         style="fill:#ffffff;stroke:#ffffff;stroke-width:0.168619;stroke-linecap:round;stroke-linejoin:round"
         d="M 107.5216,110.14927 A 19.915691,19.915691 0 0 1 87.605911,130.06496 19.915691,19.915691 0 0 1 67.69022,110.14927 19.915691,19.915691 0 0 1 87.605911,90.233578 19.915691,19.915691 0 0 1 107.5216,110.14927 Z" />
    </g>
    <rect
       style="fill:#ffffff;stroke:#ffffff;stroke-width:0.423333;stroke-linecap:round;stroke-linejoin:round"
       id="rect839"
       width="40.449951"
       height="0.93235683"
       x="69.567619"
       y="79.132843" />
  </g>
</svg>
