<svg height='100px' width='100px'  fill="#C3C3C3" xmlns:dc="http://purl.org/dc/elements/1.1/" xmlns:cc="http://creativecommons.org/ns#" xmlns:rdf="http://www.w3.org/1999/02/22-rdf-syntax-ns#" xmlns:svg="http://www.w3.org/2000/svg" xmlns="http://www.w3.org/2000/svg" xmlns:sodipodi="http://sodipodi.sourceforge.net/DTD/sodipodi-0.dtd" xmlns:inkscape="http://www.inkscape.org/namespaces/inkscape" viewBox="0 0 100 100" version="1.1" x="0px" y="0px"><g transform="translate(0,-952.36216)"><path d="m 50.002435,957.36458 c -3.49829,0 -6.32881,1.80127 -11.41427,4.73737 l -17.74689,10.24567 c -5.08544,2.9361 -8.06014,4.48618 -9.80928,7.51575 -1.74913,3.02963 -1.60497,6.38097 -1.60497,12.25312 l 0,20.49131 c 0,5.8722 -0.14424,9.2236 1.60497,12.2531 1.74916,3.0297 4.72382,4.5797 9.80928,7.5158 l 17.74689,10.2457 c 5.08546,2.9361 7.91598,4.7374 11.41427,4.7373 3.49829,10e-5 6.32394,-1.8012 11.4094,-4.7373 l 17.75174,-10.2457 c 5.08546,-2.9361 8.05527,-4.4861 9.80443,-7.5158 1.74913,-3.0296 1.60497,-6.3809 1.60497,-12.2531 l 0,-20.49131 c 0,-5.8722 0.14424,-9.22347 -1.60497,-12.25312 -1.74916,-3.02959 -4.71897,-4.57965 -9.80443,-7.51575 l -17.75174,-10.24567 c -5.08546,-2.9361 -7.91111,-4.73734 -11.4094,-4.73737 z m 0,4.96525 c 1.58717,0 3.84131,1.137 8.92677,4.07307 l 17.75174,10.24567 c 3.01336,1.73978 4.89812,2.9075 6.16779,3.8791 l -23.91953,13.81447 c -5.08546,2.93608 -7.3396,4.06821 -8.92677,4.06821 -1.58717,0 -3.84618,-1.13213 -8.93164,-4.06821 l -23.91952,-13.8096 c 1.26946,-0.97239 3.15482,-2.14161 6.17262,-3.88397 l 17.7469,-10.24567 c 5.08546,-2.9361 7.34447,-4.07302 8.93164,-4.07307 z m -20.04526,14.58543 c -3.30554,1.2e-4 -5.98333,1.54878 -5.98353,3.45725 2.3e-4,1.90844 2.67801,3.45716 5.98353,3.45725 3.30554,-9e-5 5.98816,-1.54878 5.98836,-3.45725 10e-4,-0.93421 -0.65335,-1.83138 -1.81348,-2.48262 -1.11798,-0.62622 -2.61723,-0.97525 -4.17488,-0.97463 z m 20.04526,0 c -3.30552,1.2e-4 -5.98814,1.54881 -5.98837,3.45725 2e-4,1.90847 2.68283,3.45231 5.98837,3.45241 3.30551,-10e-5 5.9833,-1.54397 5.9835,-3.45241 -1.8e-4,-0.89901 -0.6073,-1.76502 -1.69226,-2.40988 -1.12696,-0.66996 -2.67361,-1.04722 -4.29124,-1.04737 z m 20.04039,0 c -3.30551,1.2e-4 -5.98816,1.54881 -5.98836,3.45725 2e-4,1.90847 2.68282,3.45231 5.98836,3.45241 3.30552,-10e-5 5.9833,-1.54397 5.98353,-3.45241 -2e-4,-0.93394 -0.65308,-1.83195 -1.81349,-2.48262 -1.11695,-0.6264 -2.61288,-0.97448 -4.17004,-0.97463 z m 15.28853,7.91336 c 0.20655,1.58598 0.27637,3.80314 0.27637,7.28787 l 0,20.49131 c 0,5.8722 -0.14226,8.396 -0.93583,9.7705 -0.79357,1.3746 -2.90549,2.7614 -7.99095,5.6975 l -17.75174,10.2456 c -3.01492,1.7407 -4.9685,2.79 -6.44415,3.4039 l 0,-27.6192 c 0,-5.8721 0.14226,-8.3959 0.93583,-9.7704 0.79357,-1.3745 2.90547,-2.7614 7.99095,-5.69747 l 23.91952,-13.80961 z m -70.65784,0.005 23.91465,13.80474 c 5.08546,2.93614 7.19736,4.32294 7.99095,5.69744 0.7936,1.3745 0.94069,3.8983 0.94069,9.7705 l 0,27.6192 c -1.47703,-0.614 -3.43411,-1.6633 -6.44901,-3.4039 l -17.7469,-10.2457 c -5.08546,-2.9361 -7.19735,-4.3229 -7.99095,-5.6975 -0.79357,-1.3744 -0.94067,-3.8983 -0.94067,-9.7704 l 0,-20.49138 c 0,-3.48108 0.0737,-5.69717 0.28124,-7.283 z m 65.9835,5.72168 c -0.51951,0.0566 -1.0816,0.25658 -1.65345,0.5964 -1.10094,0.6541 -2.15005,1.77421 -2.92873,3.12267 -1.65266,2.86272 -1.65266,5.95523 0,6.90963 1.65289,0.9541 4.33067,-0.5897 5.98353,-3.45237 1.65266,-2.86272 1.65266,-5.96012 0,-6.91451 -0.40445,-0.23337 -0.88183,-0.31845 -1.40135,-0.26182 z m -41.33183,11.5646 c -0.49779,-0.044 -0.9538,0.047 -1.34313,0.2715 -1.65265,0.9544 -1.65265,4.0469 0,6.9096 1.65286,2.8627 4.33067,4.4114 5.98353,3.4573 1.65266,-0.9544 1.65266,-4.0518 0,-6.9145 -0.80889,-1.4008 -1.90626,-2.5495 -3.04996,-3.1906 -0.55047,-0.3085 -1.0926,-0.4889 -1.59044,-0.5333 z m 21.34961,0 c -0.49779,0.044 -1.03511,0.2199 -1.58558,0.5285 -1.1437,0.641 -2.24588,1.7946 -3.0548,3.1954 -1.65266,2.8627 -1.65266,5.9552 0,6.9096 1.65286,0.9541 4.33067,-0.5897 5.98353,-3.4524 1.65266,-2.8627 1.65266,-5.9601 0,-6.9144 -0.38933,-0.2247 -0.84536,-0.3112 -1.34315,-0.2667 z m 20.04042,0 c -0.49779,0.044 -1.03511,0.2199 -1.58558,0.5285 -1.1437,0.641 -2.24588,1.7946 -3.0548,3.1954 -1.65266,2.8627 -1.65266,5.9601 0,6.9145 1.65289,0.954 4.33067,-0.5946 5.98353,-3.4573 1.65266,-2.8627 1.65266,-5.9601 0,-6.9144 -0.38933,-0.2247 -0.84536,-0.3112 -1.34315,-0.2667 z m -61.43043,11.5694 c -0.49781,-0.044 -0.95402,0.046 -1.34315,0.2715 -1.65265,0.9544 -1.65265,4.0518 0,6.9145 1.65289,2.8626 4.33549,4.4064 5.98837,3.4524 1.65266,-0.9544 1.65266,-4.0469 0,-6.9096 -0.80849,-1.4017 -1.91073,-2.5535 -3.0548,-3.1955 -0.55064,-0.3082 -1.09262,-0.4894 -1.59042,-0.5333 z m 41.39001,0 c -0.49779,0.044 -1.03511,0.2249 -1.58558,0.5333 -1.1437,0.6411 -2.24588,1.7898 -3.0548,3.1906 -1.65266,2.8627 -1.65266,5.9601 0,6.9145 1.65289,0.954 4.33064,-0.5946 5.98353,-3.4573 1.65266,-2.8627 1.65266,-5.9552 0,-6.9096 -0.38933,-0.2247 -0.84534,-0.3159 -1.34315,-0.2715 z m 20.04042,0 c -0.49779,0.044 -1.03493,0.2251 -1.58558,0.5333 -1.14407,0.642 -2.24631,1.7938 -3.0548,3.1955 -1.65266,2.8627 -1.65266,5.9552 0,6.9096 1.65289,0.9541 4.33067,-0.5897 5.98353,-3.4524 1.65268,-2.8627 1.65268,-5.9601 0,-6.9145 -0.38913,-0.2254 -0.84536,-0.3155 -1.34315,-0.2715 z m -20.09859,11.5791 c -0.51954,0.056 -1.08143,0.252 -1.65348,0.5916 -1.10129,0.655 -2.15047,1.7782 -2.92873,3.1275 -1.65266,2.8627 -1.65266,5.9552 0,6.9096 1.65286,0.9541 4.33067,-0.5898 5.98353,-3.4524 1.65268,-2.8627 1.65268,-5.9601 0,-6.9145 -0.40422,-0.2341 -0.88181,-0.3179 -1.40132,-0.2618 z" style="color:#000000;font-style:normal;font-variant:normal;font-weight:normal;font-stretch:normal;font-size:medium;line-height:normal;font-family:sans-serif;text-indent:0;text-align:start;text-decoration:none;text-decoration-line:none;text-decoration-style:solid;text-decoration-color:#000000;letter-spacing:normal;word-spacing:normal;text-transform:none;direction:ltr;block-progression:tb;writing-mode:lr-tb;baseline-shift:baseline;text-anchor:start;white-space:normal;clip-rule:nonzero;display:inline;overflow:visible;visibility:visible;opacity:1;isolation:auto;mix-blend-mode:normal;color-interpolation:sRGB;color-interpolation-filters:linearRGB;solid-color:#000000;solid-opacity:1;fill:#C3C3C3;fill-opacity:1;fill-rule:evenodd;stroke:none;stroke-width:2;stroke-linecap:butt;stroke-linejoin:miter;stroke-miterlimit:4;stroke-dasharray:none;stroke-dashoffset:0;stroke-opacity:1;color-rendering:auto;image-rendering:auto;shape-rendering:auto;text-rendering:auto;enable-background:accumulate"></path></g></svg>