<?xml version="1.0" encoding="UTF-8" standalone="no"?>
<!DOCTYPE svg  PUBLIC '-//W3C//DTD SVG 1.1//EN'  'http://www.w3.org/Graphics/SVG/1.1/DTD/svg11.dtd' [
	<!ENTITY stroke_color "#010101">
	<!ENTITY fill_color "#FFFFFF">
]>
<svg
   xmlns:dc="http://purl.org/dc/elements/1.1/"
   xmlns:cc="http://creativecommons.org/ns#"
   xmlns:rdf="http://www.w3.org/1999/02/22-rdf-syntax-ns#"
   xmlns:svg="http://www.w3.org/2000/svg"
   xmlns="http://www.w3.org/2000/svg"
   xmlns:sodipodi="http://sodipodi.sourceforge.net/DTD/sodipodi-0.dtd"
   xmlns:inkscape="http://www.inkscape.org/namespaces/inkscape"
   width="55pt"
   height="55pt"
   version="1.1"
   viewBox="0 0 55 55"
   id="svg2"
   inkscape:version="0.91 r13725"
   sodipodi:docname="pawn-icon.svg">
  <metadata
     id="metadata16">
    <rdf:RDF>
      <cc:Work
         rdf:about="">
        <dc:format>image/svg+xml</dc:format>
        <dc:type
           rdf:resource="http://purl.org/dc/dcmitype/StillImage" />
        <dc:title></dc:title>
      </cc:Work>
    </rdf:RDF>
  </metadata>
  <defs
     id="defs14" />
  <g
     id="g4"
     style="fill:&fill_color;;fill-rule:evenodd"
     transform="matrix(0.39971901,0,0,0.39971901,6.4164118,6.3421946)">
    <path
       style="fill:&fill_color;"
       d="M 69.117,19.117 C 69.419097,8.5405271 59.563829,-0.82065091 49.016209,0.02487387 38.442487,0.26964532 29.602814,10.583179 30.981695,21.071762 31.767586,31.615772 42.507095,39.916726 52.911417,38.013738 62.017401,36.775538 69.289121,28.312864 69.117,19.117 Z m -32.352,0 C 36.487927,11.039319 44.80784,4.2563204 52.665901,6.151898 60.600506,7.5124622 65.573683,16.956696 62.192903,24.268128 59.309957,31.766263 49.109454,34.806773 42.600068,30.090646 38.995267,27.691276 36.726564,23.451719 36.765,19.117 Z"
       id="path6"
       inkscape:connector-curvature="0" />
    <path
       style="fill:&fill_color;"
       d="m 32.34,42.648 c -0.529073,-3.085427 -0.143825,-5.245047 3.238947,-4.406913 10.693925,-0.0024 21.387849,-0.0047 32.081773,-0.0071 0.25876,2.823396 0.440383,5.560832 -3.270217,4.40483 C 53.70701,42.643183 43.02346,42.645477 32.34,42.648 Z m 41.191,-4.4062 c 0.137188,-3.856279 -3.774146,-6.48014 -7.36059,-5.8906 -11.476227,0.02032 -22.954523,-0.04064 -34.429458,0.03049 -3.750585,0.26738 -5.795404,4.169108 -5.272152,7.597847 -0.253899,3.086143 0.249714,6.847474 3.582647,8.089471 3.475031,0.898905 7.158713,0.277408 10.728894,0.461791 9.159244,-0.02033 18.32056,0.04069 27.478507,-0.03054 3.751093,-0.269062 5.794938,-4.172451 5.272152,-7.601703 0,-0.885587 0,-1.771175 0,-2.656762 z"
       id="path8"
       inkscape:connector-curvature="0" />
    <path
       style="fill:&fill_color;"
       d="m 77.938,85.293 c 3.094096,0.01273 3.093944,3.430862 2.9453,5.687731 -0.176361,1.365625 0.7542,3.838172 -1.48949,3.136469 -20.09217,0 -40.18434,0 -60.27651,0 0.196297,-2.497967 -0.469454,-5.176181 0.502416,-7.522066 1.739431,-2.144532 4.767985,-1.019134 7.159601,-1.302134 17.052894,0 34.105789,0 51.158683,0 z M 20.641,79.5235 c -4.945332,0.653808 -8.029075,5.730196 -7.4062,10.464338 0.120325,2.732779 -0.261213,5.530045 0.231078,8.216003 1.354732,2.736579 4.747278,1.527568 7.178791,1.796259 21.256491,-0.0398 42.520983,0.0796 63.772472,-0.05974 3.184982,-0.774562 2.191213,-4.443955 2.348459,-6.853634 0.01365,-4.08107 0.511355,-8.902481 -3.218457,-11.664144 -4.283742,-1.529949 -7.023846,-4.85958 -9.604695,-8.573936 C 68.13915,65.039551 62.59553,56.221538 62.356595,46.186181 c -1.804197,-4.98189 -7.853698,-0.464428 -5.601873,3.54335 1.305784,11.297159 8.005337,20.951012 14.838948,29.679869 -14.396,0 -28.792,0 -43.188,0 C 35.840097,69.906422 43.290818,59.09691 43.395985,46.569749 41.82963,41.448274 35.787606,45.588891 37.30791,49.7574 35.603271,60.821385 28.464051,69.996657 21.57894,78.441355 l -0.4814,0.559328 -0.45761,0.522717 0.0011,1e-4 z"
       id="path10"
       inkscape:connector-curvature="0" />
  </g>
  <g
     id="g4230"
     style="fill:&stroke_color;;stroke:&stroke_color;"
     transform="matrix(0.39971901,0,0,0.39971901,6.9463181,6.2146783)">
    <path
       d="M 61.928896,19.451233 A 13.23274,13.274994 0 0 1 48.853548,32.725288 13.23274,13.274994 0 0 1 35.467159,19.767 13.23274,13.274994 0 0 1 48.224068,6.1846896 13.23274,13.274994 0 0 1 61.913922,18.819877 l -13.217766,0.631356 z"
       sodipodi:end="6.2356076"
       sodipodi:start="0"
       sodipodi:ry="13.274994"
       sodipodi:rx="13.23274"
       sodipodi:cy="19.451233"
       sodipodi:cx="48.696156"
       sodipodi:type="arc"
       id="path4222"
       style="opacity:1;fill:&stroke_color;;fill-opacity:1;stroke:&stroke_color;;stroke-width:0.89917481;stroke-opacity:1" />
    <path
       inkscape:connector-curvature="0"
       id="path4224"
       d="m 34.198642,38.579073 -0.77517,-0.167604 -0.691368,-0.0419 -0.649467,0.104753 -0.607565,0.356159 -0.439962,0.628517 -0.167605,0.858972 -0.06285,1.047528 0.125703,1.194181 0.0838,0.37711 32.012435,0.02095 0.879923,0.251406 0.900873,0 0.649467,-0.104753 0.502813,-0.439961 0.272358,-0.460912 0.230456,-0.712319 -0.0419,-0.796121 0,-1.131329 -0.104753,-1.005627 z"
       style="fill:&stroke_color;;fill-rule:evenodd;stroke:&stroke_color;;stroke-width:0.80000001px;stroke-linecap:butt;stroke-linejoin:miter;stroke-opacity:1" />
    <path
       inkscape:connector-curvature="0"
       id="path4226"
       d="m 41.894649,48.742613 -0.237029,3.25914 -0.770342,3.318398 -0.711085,2.548055 -1.00737,2.429541 -1.066628,2.42954 -1.718456,3.318397 -2.903598,4.859083 -6.51828,8.77005 43.257679,0.05926 -3.436912,-4.562797 -2.073998,-2.962855 -2.370283,-3.792454 -2.311027,-3.970225 -2.192512,-4.859082 -1.2444,-3.614683 -0.829599,-3.555426 -0.355542,-3.496168 z"
       style="fill:&stroke_color;;fill-rule:evenodd;stroke:&stroke_color;;stroke-width:0.80000001px;stroke-linecap:butt;stroke-linejoin:miter;stroke-opacity:1" />
    <path
       inkscape:connector-curvature="0"
       id="path4228"
       d="m 22.843446,85.487348 -1.969351,0.0838 -1.340835,0.335209 -0.963725,0.628516 -0.502814,0.75422 -0.209505,1.089428 -0.167604,1.382736 0.0838,4.692922 61.846014,0.0838 -0.0838,-5.824252 -0.293308,-1.340835 -0.419011,-0.838022 -0.712319,-0.586615 -0.712318,-0.335209 -0.628517,-0.0838 z"
       style="fill:&stroke_color;;fill-rule:evenodd;stroke:&stroke_color;;stroke-width:0.80000001px;stroke-linecap:butt;stroke-linejoin:miter;stroke-opacity:1" />
  </g>
</svg>
