<?xml version="1.0" ?><!DOCTYPE svg  PUBLIC '-//W3C//DTD SVG 1.1//EN'  'http://www.w3.org/Graphics/SVG/1.1/DTD/svg11.dtd' [
	<!ENTITY stroke_color "#000000">
	<!ENTITY fill_color "#ffffff">
]>
<svg xmlns="http://www.w3.org/2000/svg" xmlns:xlink="http://www.w3.org/1999/xlink" width="100" height="100" viewBox="0 0 100 100">
  <defs>
    <clipPath id="clip-path">
      <rect id="Rectangle_1" data-name="Rectangle 1" width="100" height="100" transform="translate(160 299)" fill="none"/>
    </clipPath>
  </defs>
  <g id="Mask_Group_1" data-name="Mask Group 1" transform="translate(-160 -299)" clip-path="url(#clip-path)">
    <g id="hand" transform="translate(177.454 309)">
      <path id="Path_1" data-name="Path 1" d="M70.311,18.233a3.589,3.589,0,0,0-3.61,3.647V43.756a1.721,1.721,0,1,1-3.436,0V7.293a3.445,3.445,0,1,0-6.879,0V42.919a1.721,1.721,0,1,1-3.436,0V3.647a3.445,3.445,0,1,0-6.879,0V42.083a1.721,1.721,0,1,1-3.436,0V7.293a3.448,3.448,0,1,0-6.886,0l.68,36.881a1.852,1.852,0,0,1-1.306,1.786,1.747,1.747,0,0,1-1.959-.984C33.13,44.9,28.184,38.286,22,38.286c-4.816,0-6.259,1.275-6.671,1.823a1.7,1.7,0,0,0-.308.947c5.4,5.908,9.079,13.272,11.209,18.487a52.526,52.526,0,0,0,4.746,8.932l3.473,5.252a9.592,9.592,0,0,1,1.547,5.216v1.348H64.36V79.2a9.307,9.307,0,0,1,2-5.761,33.253,33.253,0,0,0,7.083-19.143l.308-6.965V21.876a3.551,3.551,0,0,0-3.436-3.643Z" transform="translate(-12.498 0)" fill="&fill_color;"/>
      <path id="Path_2" data-name="Path 2" d="M33.765,80.292a2.511,2.511,0,0,1-2.512-2.509V74.875a4.169,4.169,0,0,0-.757-2.4l-3.356-4.807a51.523,51.523,0,0,1-5.007-8.906A51.485,51.485,0,0,0,11.752,43.555a2.528,2.528,0,0,1-.606-.98,5.585,5.585,0,0,1,.837-4.871c1.651-2.285,4.973-3.443,9.883-3.443a13.347,13.347,0,0,1,9.156,4.172V10.866A7.515,7.515,0,0,1,41.843,4.108a7.51,7.51,0,0,1,13.393,0,7.515,7.515,0,0,1,10.821,6.758v6.269a7.651,7.651,0,0,1,10.164,7.1V46.8l-.3,5.714a33.608,33.608,0,0,1-7.853,20,4.016,4.016,0,0,0-.941,2.579v2.69a2.512,2.512,0,0,1-5.023,0v-2.69a9.02,9.02,0,0,1,2.123-5.811A28.619,28.619,0,0,0,70.9,52.26l.3-5.6,0-22.428a2.5,2.5,0,0,0-2.488-2.506,2.541,2.541,0,0,0-2.652,2.506V43.451a2.512,2.512,0,0,1-5.023,0V10.866a2.49,2.49,0,1,0-4.98,0V43.451a2.512,2.512,0,0,1-5.023,0V7.524a2.49,2.49,0,1,0-4.98,0V43.451a2.512,2.512,0,0,1-5.023,0V10.866a2.49,2.49,0,1,0-4.98,0V45.96a2.511,2.511,0,0,1-4.759,1.114c-1.085-2.165-4.9-7.8-9.421-7.8-4.595,0-5.646,1.134-5.807,1.362-.02.027-.037.057-.054.08a56.975,56.975,0,0,1,10.74,16.042A46.283,46.283,0,0,0,31.267,64.8l3.356,4.811a9.152,9.152,0,0,1,1.658,5.266v2.907A2.517,2.517,0,0,1,33.765,80.292Z" transform="translate(-10.912)" fill="&stroke_color;"/>
    </g>
  </g>
</svg>
