<?xml version="1.0" ?><!DOCTYPE svg  PUBLIC '-//W3C//DTD SVG 1.1//EN'  'http://www.w3.org/Graphics/SVG/1.1/DTD/svg11.dtd' [
	<!ENTITY stroke_color "#010101">
	<!ENTITY fill_color "#FFFFFF">
]>
<svg
   xmlns:dc="http://purl.org/dc/elements/1.1/"
   xmlns:cc="http://creativecommons.org/ns#"
   xmlns:rdf="http://www.w3.org/1999/02/22-rdf-syntax-ns#"
   xmlns:svg="http://www.w3.org/2000/svg"
   xmlns="http://www.w3.org/2000/svg"
   enable-background="new 0 0 55 55"
   height="55px"
   version="1.1"
   viewBox="0 0 55 55"
   width="55px"
   x="0px"
   xml:space="preserve"
   y="0px"
   id="svg13">
  <g
   display="block"
   id="activity-helloworld">
    <path
   d="M9.263,48.396c0.682,1.152,6.027,0.059,8.246-1.463   c2.102-1.432,3.207-2.596,4.336-2.596c1.133,0,12.54,0.92,20.935-5.715c7.225-5.707,9.773-13.788,4.52-21.437   c-5.252-7.644-13.832-9.08-20.878-8.56C16.806,9.342,4.224,16.91,4.677,28.313c0.264,6.711,3.357,9.143,4.922,10.703   c1.562,1.566,4.545,1.566,2.992,5.588C11.981,46.183,8.753,47.522,9.263,48.396z"
   display="inline"
fill="&fill_color;" stroke="&stroke_color;" stroke-width="3.5"
   id="path2" />
  </g>


<text
   xml:space="preserve"
   style="font-style:normal;font-variant:normal;font-weight:normal;font-stretch:normal;font-size:21.33333397px;line-height:1.25;font-family:'Cursive standard';-inkscape-font-specification:'Cursive standard';letter-spacing:0px;word-spacing:0px;fill:&fill_color;;fill-opacity:1;stroke:&stroke_color;"
   x="13.51695"
   y="31.228815"
   id="text4535"><tspan
     id="tspan4533"
     x="13.51695"
     y="31.228815"
     style="font-style:normal;font-variant:normal;font-weight:normal;font-stretch:normal;font-size:14.66666698px;font-family:sans-serif;">ES6</tspan></text>
</svg>
