<?xml version="1.0" encoding="UTF-8" standalone="no"?>
<!DOCTYPE svg PUBLIC "-//W3C//DTD SVG 1.1//EN" "http://www.w3.org/Graphics/SVG/1.1/DTD/svg11.dtd" [
	<!ENTITY stroke_color "#000000">
	<!ENTITY fill_color "#999999">
]>
<svg
   fill="#ffffff"
   height="50px"
   width="50px"
   version="1.1"
   id="Layer_1"
   viewBox="0 0 512.017 512.017"
   xml:space="preserve"
   sodipodi:docname="dodeca.svg"
   inkscape:version="1.1.2 (0a00cf5339, 2022-02-04)"
   xmlns:inkscape="http://www.inkscape.org/namespaces/inkscape"
   xmlns:sodipodi="http://sodipodi.sourceforge.net/DTD/sodipodi-0.dtd"
   xmlns="http://www.w3.org/2000/svg"
   xmlns:svg="http://www.w3.org/2000/svg"><defs
   id="defs11" /><sodipodi:namedview
   id="namedview9"
   pagecolor="#ffffff"
   bordercolor="#666666"
   borderopacity="1.0"
   inkscape:pageshadow="2"
   inkscape:pageopacity="0.0"
   inkscape:pagecheckerboard="0"
   showgrid="false"
   inkscape:zoom="5.6568542"
   inkscape:cx="16.351844"
   inkscape:cy="33.941126"
   inkscape:window-width="1530"
   inkscape:window-height="845"
   inkscape:window-x="70"
   inkscape:window-y="27"
   inkscape:window-maximized="1"
   inkscape:current-layer="Layer_1" />
<g
   id="g6"
   style="fill:#000000;stroke-width:1.23457"
   transform="matrix(0.81,0,0,0.81,48.641505,48.641587)">
	<g
   id="g4"
   style="fill:#000000;stroke-width:1.23457">
		<path
   d="m 511.467,220.645 -42.667,-128 c -0.043,-0.149 -0.149,-0.256 -0.213,-0.384 -0.128,-0.341 -0.363,-0.661 -0.533,-0.981 -0.448,-0.853 -0.939,-1.664 -1.579,-2.389 -0.107,-0.128 -0.149,-0.299 -0.277,-0.427 -0.235,-0.235 -0.533,-0.299 -0.768,-0.512 -0.405,-0.341 -0.704,-0.747 -1.152,-1.024 L 325.611,1.594 C 323.712,0.421 321.558,-0.07 319.254,0.037 L 170.517,10.661 c -0.064,0 -0.107,0 -0.171,0.021 l -0.427,0.021 c -0.171,0 -0.299,0.149 -0.469,0.171 -1.067,0.128 -2.112,0.256 -3.136,0.704 -0.491,0.213 -0.832,0.619 -1.28,0.896 -0.192,0.128 -0.448,0.107 -0.619,0.235 L 47.083,98.042 c -1.984,1.429 -3.413,3.499 -4.032,5.867 l -42.667,160 c -0.064,0.235 0.085,0.469 0.021,0.704 C 0.256,265.317 0,265.935 0,266.661 c 0,1.088 0.32,2.069 0.619,3.072 0.043,0.171 -0.043,0.341 0.021,0.512 l 0.192,0.533 c 0,0.021 0,0.043 0.021,0.043 l 53.12,148.757 c 0.811,2.304 2.368,4.224 4.437,5.504 l 138.667,85.333 c 0.213,0.128 0.512,0.085 0.725,0.213 0.384,0.213 0.683,0.533 1.109,0.683 1.237,0.469 2.496,0.683 3.755,0.683 0.469,0 0.939,-0.021 1.429,-0.085 l 160,-21.333 c 1.749,-0.213 3.435,-0.896 4.864,-1.941 l 117.333,-85.333 c 0.661,-0.469 1.067,-1.152 1.6,-1.749 0.235,-0.277 0.576,-0.384 0.789,-0.683 0.085,-0.107 0.085,-0.256 0.171,-0.384 0.405,-0.619 0.64,-1.323 0.917,-2.027 0.235,-0.64 0.533,-1.259 0.661,-1.963 0.021,-0.171 0.149,-0.32 0.171,-0.491 l 21.333,-170.667 c 0.194,-1.579 0.045,-3.179 -0.467,-4.693 z M 317.333,21.562 441.578,97.999 391.317,148.26 220.885,108.153 186.56,30.906 Z M 394.24,334.543 237.952,402.916 130.411,266.042 218.219,129.466 384.47,168.57 Z M 62.677,113.082 166.272,37.733 201.237,116.41 111.509,255.973 H 24.555 Z M 197.227,485.455 72.789,408.89 25.813,277.327 h 86.336 L 222.57,417.871 Z m 161.365,-15.68 -139.691,18.624 24.171,-64.448 160.981,-70.443 57.707,41.216 z M 471.659,375.61 415.68,335.631 405.589,164.154 454.016,115.727 490.475,225.06 Z"
   id="path2"
   style="fill:#000000;stroke-width:1.23457" />
	</g>
</g>
<path
   style="opacity:0.89;fill:&stroke_color;;stroke:&stroke_color;;stroke-width:0;stroke-linecap:round;stroke-linejoin:round"
   d="m 22.273864,43.183731 c 0,-0.272025 1.662622,-4.57529 1.839561,-4.761226 0.257869,-0.27098 12.447741,-5.583695 12.644097,-5.51068 0.08435,0.03137 1.10057,0.731526 2.258268,1.555911 l 2.104905,1.498883 -4.06341,2.964729 c -2.234876,1.630601 -4.156335,2.964729 -4.269909,2.964729 -0.24382,0 -9.318924,1.194096 -10.027376,1.319395 -0.267375,0.04729 -0.486136,0.03301 -0.486136,-0.03174 z"
   id="path2457"
   transform="scale(10.24034)" /><path
   style="opacity:0.89;fill:&stroke_color;;stroke:&stroke_color;;stroke-width:0;stroke-linecap:round;stroke-linejoin:round"
   d="m 39.863145,32.784799 c -1.166726,-0.832585 -2.138002,-1.609072 -2.15839,-1.725528 -0.02039,-0.116456 -0.207131,-3.146851 -0.414984,-6.734211 l -0.377915,-6.522473 1.851221,-1.851221 1.851221,-1.851221 1.42629,4.274893 1.426291,4.274894 -0.698822,5.601402 c -0.384352,3.080772 -0.717895,5.70172 -0.741207,5.824331 -0.02438,0.128243 -0.943368,-0.420023 -2.163705,-1.290866 z"
   id="path2496"
   transform="scale(10.24034)" /><path
   style="opacity:0.89;fill:&fill_color;;stroke:&stroke_color;;stroke-width:0;stroke-linecap:round;stroke-linejoin:round"
   d="M 15.39304,39.985494 10.564032,37.013044 8.7337819,31.897356 C 7.7271444,29.083729 6.9014527,26.761782 6.8989115,26.737475 c -0.00254,-0.02431 1.486933,-0.04337 3.3099425,-0.04237 l 3.314563,0.0018 4.36782,5.563695 4.367821,5.563696 -0.905254,2.433624 c -0.49789,1.338494 -0.956217,2.493559 -1.018505,2.566811 -0.06229,0.07325 -2.286305,-1.204417 -4.942259,-2.839264 z"
   id="path2689"
   transform="scale(10.24034)" /><path
   style="opacity:0.89;fill:&fill_color;;stroke:&stroke_color;;stroke-width:0;stroke-linecap:round;stroke-linejoin:round"
   d="m 19.352881,31.107403 -4.177405,-5.308597 3.401205,-5.298005 c 2.706924,-4.216535 3.47652,-5.296107 3.770165,-5.288708 0.202927,0.0051 3.153192,0.66978 6.556144,1.477038 l 6.187184,1.46774 0.380121,6.433719 c 0.209067,3.538546 0.328391,6.488387 0.265165,6.555203 -0.142155,0.150226 -11.858035,5.270206 -12.059638,5.270206 -0.08004,0 -2.025368,-2.388868 -4.322941,-5.308596 z"
   id="path2728"
   transform="scale(10.24034)" /><path
   style="opacity:0.89;fill:&fill_color;;stroke:&stroke_color;;stroke-width:0;stroke-linecap:round;stroke-linejoin:round"
   d="M 29.168155,14.857065 C 25.619363,14.014138 22.610841,13.287841 22.482552,13.243073 22.297682,13.178563 19.585856,7.421164 19.68603,7.305863 19.70054,7.28916 21.987786,7.1089568 24.768793,6.9054123 L 29.82517,6.5353315 34.578992,9.460371 c 2.614602,1.608772 4.77405,2.983235 4.798772,3.054364 0.02472,0.07113 -0.81055,0.972084 -1.856156,2.002124 l -1.901104,1.8728 z"
   id="path2767"
   transform="scale(10.24034)" /><path
   style="opacity:0.89;fill:#ffffff;stroke:&stroke_color;;stroke-width:0;stroke-linecap:round;stroke-linejoin:round"
   d="m 6.8942911,24.739308 c 0,-0.481281 2.877034,-10.887856 3.0609447,-11.071801 0.2915652,-0.291621 7.5842662,-5.5627124 7.8066272,-5.6425522 0.28669,-0.1029379 2.797484,5.7690492 2.623791,6.1362552 -0.0796,0.168277 -1.656163,2.658519 -3.50348,5.53387 l -3.358757,5.227912 -3.314563,0.0013 c -2.2045571,8.45e-4 -3.3145629,-0.06109 -3.3145629,-0.184939 z"
   id="path2971"
   transform="scale(10.24034)" /></svg>
