<?xml version="1.0" ?><!DOCTYPE svg  PUBLIC '-//W3C//DTD SVG 1.1//EN'  'http://www.w3.org/Graphics/SVG/1.1/DTD/svg11.dtd' [
	<!ENTITY stroke_color "#010101">
	<!ENTITY fill_color "#FFFFFF">
]>
<svg width="1279.9999999999998" height="1279.9999999999998" xmlns="http://www.w3.org/2000/svg" preserveAspectRatio="xMidYMid meet">
 <metadata>Created by potrace 1.16, written by Peter Selinger 2001-2019</metadata>

 <g>
  <title>background</title>
  <rect fill="none" id="canvas_background" height="402" width="582" y="-1" x="-1"/>
 </g>
 <g>
  <title>Layer 1</title>
  <g id="svg_1" fill="#000000" transform="translate(0,1280) scale(0.10000000149011612,-0.10000000149011612) ">
   <path fill="&fill_color;" stroke="&stroke_color;" stroke-width="500" id="svg_2" d="m6041.343978,12529c-120.411623,-16 -261.681953,-51 -382.093576,-96l-122.307869,-45l-106.189778,21c-57.835504,11 -146.010945,26 -195.313341,33c-117.567254,16 -535.689504,16 -658.945497,-1c-532.845135,-70 -966.137354,-231 -1336.853454,-496l-114.722885,-82l-94.812302,-6c-540.43012,-35 -1111.200176,-408 -1461.057569,-955c-48.354274,-76 -58.783627,-86 -119.4635,-119c-293.918135,-156 -572.666302,-422 -760.394659,-727c-118.515377,-191 -217.120171,-441 -260.73383,-661c-14.221845,-71 -21.806829,-153 -25.599321,-280c-5.688738,-191 2.844369,-298 35.080552,-430l18.014337,-76l-23.703075,-102c-30.339937,-126 -41.717413,-376 -22.754952,-509c45.509905,-329 228.497647,-629 502.505199,-823c49.302397,-35 53.094889,-41 81.538579,-123c62.576119,-186 140.322206,-315 269.266937,-452c183.935865,-194 402.952282,-314 697.81854,-380c67.316734,-15 144.114699,-23 271.163183,-27c152.647806,-5 178.247127,-8 182.039619,-22c2.844369,-9 19.910583,-82 38.873044,-163c43.613659,-191 88.175441,-325 156.440298,-473c275.903798,-600 799.267703,-995 1563.454855,-1180c403.900405,-97 759.446536,-113 1124.473898,-49c178.247127,31 409.589143,103 557.496334,173c36.028675,17 66.368611,31 67.316734,31c1.896246,0 5.688738,-69 8.533107,-152c11.377476,-302 83.434825,-532 220.912663,-709c54.043012,-70 116.619131,-125 231.342016,-204c149.803437,-104 326.154318,-324 425.707235,-534c122.307869,-256 206.690818,-584 248.40823,-966c6.636861,-62 13.273722,-376 17.066214,-820c6.636861,-791 2.844369,-745 64.472365,-807c37.924921,-38 89.123564,-58 149.803437,-58c95.760425,0 91.967933,-4 525.260151,480c234.186385,261 265.474445,307 285.385028,419c5.688738,32 9.48123,274 9.48123,593c0,511 0.948123,540 17.066214,533c8.533107,-4 57.835504,-10 109.034147,-13c157.388421,-8 255.993215,27 345.116778,125l49.302397,55l83.434825,-21c187.728357,-46 289.17752,-56 548.015104,-56c249.356353,0 348.90927,10 516.727044,50c713.936632,173 1230.663676,666 1365.297144,1306c27.495567,129 39.821167,306 30.339937,424c-4.740615,55 -7.584984,102 -5.688738,104c0.948123,1 37.924921,9 81.538579,17c478.802123,87 863.740068,483 1017.335997,1045c45.509905,165 61.627996,272 68.264857,439c4.740615,132 7.584984,150 31.28806,200c70.161103,148 131.789099,365 155.492175,549c19.910583,146 19.910583,426 0,572c-36.976798,286 -143.166576,602 -274.955675,819c-17.066214,28 -21.806829,56 -27.495567,140c-15.169968,261 -85.331072,477 -224.705155,691c-115.671008,179 -255.045092,322 -440.877203,452l-116.619131,81l0,41c0,122 -36.028675,327 -86.279195,490c-162.129036,531 -566.029441,1011 -1065.690271,1270c-113.774762,60 -304.347488,134 -383.989822,150c-29.391814,6 -37.924921,16 -73.005472,79c-133.685345,246 -394.419175,512 -654.204882,668c-498.712707,298 -1053.364672,365 -1553.973624,187l-114.722885,-41l-70.161103,54c-240.823246,187 -530.948889,308 -854.258838,358c-134.633468,21 -415.277881,26 -538.533874,9z"/>
  </g>
  <path stroke="&fill_color;" id="svg_3" d="m688.705141,246.606598l76.672326,0l0,-68.739711l78.651252,0l0,68.739711l76.672334,0l0,70.513895l-76.672334,0l0,68.739704l-78.651252,0l0,-68.739704l-76.672326,0l0,-70.513895z" stroke-width="1.5" fill="&stroke_color;"/>
  <path stroke="&fill_color;" id="svg_4" d="m212.904295,230.173631l56.247411,-54.307056l59.750752,57.68907l59.750752,-57.68907l56.247939,54.307056l-59.750767,57.689543l59.750767,57.689543l-56.247939,54.307566l-59.750752,-57.689558l-59.750752,57.689558l-56.247411,-54.307566l59.750262,-57.689543l-59.750262,-57.689543z" fill-opacity="null" stroke-opacity="null" stroke-width="1.5" fill="&stroke_color;"/>
  <path stroke="&fill_color;" id="svg_5" d="m373.484974,568.592707l241.997583,0l0,75.998841l-241.997583,0l0,-75.998841z" fill-opacity="null" stroke-opacity="null" stroke-width="1.5" fill="&stroke_color;"/>
  <path stroke="&fill_color;" id="svg_6" d="m747.486628,766.595951l257.99461,0l0,67.998194l-257.99461,0l0,-67.998194z" fill-opacity="null" stroke-opacity="null" stroke-width="1.5" fill="&stroke_color;"/>
  <path stroke="&fill_color;" id="svg_7" d="m835.484982,636.597565l75.998552,0l0,67.998197l-75.998552,0l0,-67.998197z" fill-opacity="null" stroke-opacity="null" stroke-width="1.5" fill="&stroke_color;"/>
  <path stroke="&fill_color;" id="svg_8" d="m835.484981,892.594335l81.998868,0l0,71.99851l-81.998868,0l0,-71.99851z" fill-opacity="null" stroke-opacity="null" stroke-width="1.5" fill="&stroke_color;"/>
 </g>
</svg>
