<?xml version="1.0" ?><!DOCTYPE svg  PUBLIC '-//W3C//DTD SVG 1.1//EN'  'http://www.w3.org/Graphics/SVG/1.1/DTD/svg11.dtd' [
	<!ENTITY stroke_color "#010101">
	<!ENTITY fill_color "#FFFFFF">
]>
<svg width="1350" height="1350" xmlns="http://www.w3.org/2000/svg" preserveAspectRatio="xMidYMid meet">
 <metadata>Created by potrace 1.16, written by Peter Selinger 2001-2019</metadata>

 <g>
  <title>background</title>
  <rect x="-1" y="-1" width="1352" height="1352" id="canvas_background" fill="none"/>
 </g>
 <g>
  <title>Layer 1</title>
  <g transform="translate(0,1280) scale(0.10000000149011612,-0.10000000149011612) " fill="#000000" id="svg_1">
   <path fill="&fill_color;" stroke="&stroke_color;" stroke-width="700" d="m6244.669442,12325.674538c-120.41163,-16 -261.68196,-51 -382.09358,-96l-122.30787,-45l-106.18978,21c-57.8355,11 -146.01094,26 -195.31334,33c-117.56725,16 -535.6895,16 -658.94549,-1c-532.84514,-70 -966.13736,-231 -1336.85346,-496l-114.72288,-82l-94.8123,-6c-540.43012,-35 -1111.20018,-408 -1461.05757,-955c-48.35428,-76 -58.78363,-86 -119.4635,-119c-293.91814,-156 -572.66631,-422 -760.39466,-727c-118.51538,-191 -217.12017,-441 -260.73383,-661c-14.22185,-71 -21.80683,-153 -25.59932,-280c-5.68874,-191 2.84437,-298 35.08055,-430l18.01434,-76l-23.70308,-102c-30.33994,-126 -41.71741,-376 -22.75495,-509c45.5099,-329 228.49765,-629 502.5052,-823c49.30239,-35 53.09489,-41 81.53858,-123c62.57612,-186 140.3222,-315 269.26693,-452c183.93587,-194 402.95229,-314 697.81854,-380c67.31674,-15 144.1147,-23 271.16319,-27c152.6478,-5 178.24712,-8 182.03962,-22c2.84436,-9 19.91058,-82 38.87304,-163c43.61366,-191 88.17544,-325 156.4403,-473c275.9038,-600 799.2677,-995 1563.45485,-1180c403.90041,-97 759.44654,-113 1124.4739,-49c178.24713,31 409.58914,103 557.49634,173c36.02867,17 66.36861,31 67.31673,31c1.89625,0 5.68874,-69 8.53311,-152c11.37747,-302 83.43482,-532 220.91266,-709c54.04301,-70 116.61913,-125 231.34202,-204c149.80343,-104 326.15431,-324 425.70723,-534c122.30787,-256 206.69082,-584 248.40823,-966c6.63686,-62 13.27372,-376 17.06621,-820c6.63687,-791 2.84437,-745 64.47237,-807c37.92492,-38 89.12356,-58 149.80344,-58c95.76042,0 91.96793,-4 525.26015,480c234.18638,261 265.47444,307 285.38502,419c5.68874,32 9.48124,274 9.48124,593c0,511 0.94812,540 17.06621,533c8.53311,-4 57.8355,-10 109.03415,-13c157.38842,-8 255.99321,27 345.11677,125l49.3024,55l83.43483,-21c187.72835,-46 289.17752,-56 548.0151,-56c249.35635,0 348.90927,10 516.72704,50c713.93664,173 1230.66368,666 1365.29715,1306c27.49556,129 39.82116,306 30.33994,424c-4.74062,55 -7.58499,102 -5.68874,104c0.94812,1 37.92492,9 81.53858,17c478.80212,87 863.74006,483 1017.33599,1045c45.50991,165 61.628,272 68.26486,439c4.74062,132 7.58498,150 31.28806,200c70.1611,148 131.7891,365 155.49218,549c19.91058,146 19.91058,426 0,572c-36.9768,286 -143.16658,602 -274.95568,819c-17.06621,28 -21.80683,56 -27.49557,140c-15.16996,261 -85.33107,477 -224.70515,691c-115.67101,179 -255.04509,322 -440.8772,452l-116.61914,81l0,41c0,122 -36.02867,327 -86.27919,490c-162.12904,531 -566.02944,1011 -1065.69027,1270c-113.77476,60 -304.34749,134 -383.98982,150c-29.39182,6 -37.92492,16 -73.00548,79c-133.68534,246 -394.41917,512 -654.20488,668c-498.7127,298 -1053.36467,365 -1553.97362,187l-114.72289,-41l-70.1611,54c-240.82325,187 -530.94889,308 -854.25884,358c-134.63347,21 -415.27788,26 -538.53387,9z" id="svg_2"/>
  </g>
  <path stroke="&stroke_color;" fill="&stroke_color;" stroke-width="1.5" d="m688.70514,273.485407l94.143561,0l0,-95.61852l96.573416,0l0,95.61852l94.143561,0l0,98.086446l-94.143561,0l0,95.61852l-96.573416,0l0,-95.61852l-94.143561,0l0,-98.086446z" id="svg_3"/>
  <path stroke="&stroke_color;" fill="&stroke_color;" stroke-width="1.5" stroke-opacity="null" fill-opacity="null" d="m245.436363,252.23236l66.106634,-64.166263l70.224038,68.162275l70.224038,-68.162275l66.107245,64.166263l-70.224062,68.16283l70.224062,68.162842l-66.107245,64.166866l-70.224038,-68.162842l-70.224038,68.162842l-66.106634,-64.166866l70.223474,-68.162842l-70.223462,-68.16283l-0.000012,0z" id="svg_4"/>
  <path stroke="&stroke_color;" fill="&stroke_color;" stroke-width="1.5" stroke-opacity="null" fill-opacity="null" d="m373.484974,568.592709l298.928705,0l0,100.397891l-298.928705,0l0,-100.397891z" id="svg_5"/>
  <path stroke="&stroke_color;" fill="&stroke_color;" stroke-width="1.5" stroke-opacity="null" fill-opacity="null" d="m735.287114,746.263408l318.992227,0l0,88.330733l-318.992227,0l0,-88.330733z" id="svg_6"/>
  <path stroke="&stroke_color;" fill="&stroke_color;" stroke-width="1.5" stroke-opacity="null" fill-opacity="null" d="m839.551487,604.065497l104.464123,0l0,92.397241l-104.464123,0l0,-92.397241z" id="svg_7"/>
  <path stroke="&stroke_color;" fill="&stroke_color;" stroke-width="1.5" stroke-opacity="null" fill-opacity="null" d="m835.484978,892.594334l110.464439,0l0,92.331052l-110.464439,0l0,-92.331052z" id="svg_8"/>
 </g>
</svg>
