<?xml version="1.0" standalone="no"?>
<!DOCTYPE svg PUBLIC "-//W3C//DTD SVG 20010904//EN"
 "http://www.w3.org/TR/2001/REC-SVG-20010904/DTD/svg10.dtd">
<svg version="1.0" xmlns="http://www.w3.org/2000/svg"
 width="130.000000pt" height="130.000000pt" viewBox="0 0 130.000000 130.000000"
 preserveAspectRatio="xMidYMid meet">

<g transform="translate(0.000000,130.000000) scale(0.100000,-0.100000)"
fill="#000000" stroke="none">
<path d="M460 1214 c-135 -36 -248 -123 -296 -229 -49 -107 -41 -274 20 -393
13 -26 50 -76 80 -112 31 -36 59 -75 62 -88 12 -43 -3 -116 -40 -210 -20 -51
-34 -97 -31 -102 4 -6 108 -10 276 -10 l269 0 0 69 c0 46 5 72 14 80 9 8 45 9
114 5 85 -6 105 -4 127 10 29 19 32 47 10 90 -20 38 -19 45 10 58 32 14 32 34
0 42 -31 8 -24 26 10 26 32 0 40 16 21 45 -23 35 -20 43 22 62 53 26 52 48 -7
117 -65 77 -77 112 -56 161 62 151 -89 336 -313 384 -73 15 -226 13 -292 -5z
m118 -251 l-3 -118 -104 -3 c-62 -2 -108 1 -116 8 -14 11 -21 182 -9 213 5 15
23 17 120 17 l115 0 -3 -117z m280 6 c2 -82 -1 -109 -12 -118 -9 -8 -48 -11
-117 -9 l-104 3 -3 104 c-1 58 0 111 2 118 4 11 31 13 118 11 l113 -3 3 -106z
m-280 -281 l3 -118 -115 0 c-83 0 -115 3 -119 13 -10 28 -7 200 4 213 9 11 36
14 118 12 l106 -3 3 -117z m276 106 c9 -23 7 -197 -2 -212 -6 -9 -37 -12 -118
-10 l-109 3 -3 104 c-1 58 0 111 2 118 4 10 33 13 115 13 90 0 110 -3 115 -16z"/>
<path d="M380 960 l0 -90 85 0 85 0 0 90 0 90 -85 0 -85 0 0 -90z m100 45 c0
-20 5 -25 25 -25 18 0 25 -5 25 -20 0 -15 -7 -20 -25 -20 -18 0 -25 -5 -25
-20 0 -11 -7 -20 -15 -20 -8 0 -15 9 -15 20 0 15 -7 20 -25 20 -18 0 -25 5
-25 20 0 15 7 20 25 20 20 0 25 5 25 25 0 16 6 25 15 25 9 0 15 -9 15 -25z"/>
<path d="M650 960 l0 -91 88 3 87 3 3 88 3 87 -91 0 -90 0 0 -90z m70 45 c12
-14 15 -14 31 1 15 14 21 15 34 4 14 -12 14 -15 -1 -31 -16 -18 -16 -20 -1
-37 13 -14 14 -21 5 -30 -9 -9 -16 -8 -30 5 -17 15 -19 15 -37 -1 -16 -15 -19
-15 -31 -1 -11 13 -11 19 3 32 15 15 15 18 1 34 -9 10 -13 23 -9 28 9 15 20
14 35 -4z"/>
<path d="M380 690 l0 -90 85 0 85 0 0 90 0 90 -85 0 -85 0 0 -90z m150 0 c0
-18 -7 -20 -65 -20 -58 0 -65 2 -65 20 0 18 7 20 65 20 58 0 65 -2 65 -20z"/>
<path d="M650 690 l0 -90 90 0 90 0 0 90 0 90 -90 0 -90 0 0 -90z m140 25 c0
-12 -13 -15 -55 -15 -42 0 -55 3 -55 15 0 12 13 15 55 15 42 0 55 -3 55 -15z
m0 -50 c0 -12 -13 -15 -55 -15 -42 0 -55 3 -55 15 0 12 13 15 55 15 42 0 55
-3 55 -15z"/>
</g>
</svg>
