<svg width="81.754" height="81.754" xmlns="http://www.w3.org/2000/svg">

  <!-- This work is a derivative( different stroke and fill and height, width) of <a rel="license" href="https://www.svgrepo.com/svg/160901/footprint">svgrepo's footprint</a> licensed under a <a rel="license" href="http://creativecommons.org/licenses/by/4.0/">Creative Commons Attribution 4.0 International License</a>. -->

 <g>
  <title>background</title>
  <rect fill="none" id="canvas_background" height="402" width="582" y="-1" x="-1"/>
 </g>
 <g>
  <title>Layer 1</title>
  <g stroke="null" id="svg_1">
   <path fill="#ffffff" stroke="null" id="svg_2" d="m41.376999,9.000002c-20.08802,0 -36.376998,14.943998 -36.376998,33.376998c0,18.433816 16.288979,33.376998 36.376998,33.376998c20.090689,0 36.376998,-14.943182 36.376998,-33.376998c0,-18.433 -16.286309,-33.376998 -36.376998,-33.376998zm8.663309,21.574979c0.695912,0.398463 0.909492,1.232133 0.479663,1.867387c-0.430718,0.638521 -2.78543,1.554659 -2.78543,1.554659s-0.158405,-2.34587 0.275873,-2.982757c0.427159,-0.633622 1.34199,-0.830404 2.029893,-0.439289zm-4.956819,-2.75903c0.503691,-0.769164 1.595615,-1.01902 2.433914,-0.555235c0.841858,0.460519 1.114172,1.464025 0.611371,2.234823c-0.502801,0.768348 -3.320268,1.910663 -3.320268,1.910663s-0.232267,-2.814554 0.274983,-3.59025zm-4.282264,-2.081316c0.285662,-0.975745 1.382036,-1.553843 2.441923,-1.292555c1.064337,0.257205 1.691726,1.259895 1.407843,2.240538c-0.281213,0.974928 -2.937605,2.999904 -2.937605,2.999904s-1.198714,-2.974592 -0.912161,-3.947887zm-6.497259,-1.406052c0.396901,-1.375841 1.932002,-2.185831 3.427947,-1.81758c1.494165,0.364169 2.382299,1.774304 1.980948,3.146878c-0.397791,1.370125 -4.132759,4.218973 -4.132759,4.218973s-1.680157,-4.178963 -1.276136,-5.548272zm9.350322,28.169216c-2.16605,11.063882 -6.928867,10.578868 -8.835062,9.422672c-1.580487,-0.953699 -3.041725,-4.095678 1.914204,-9.992605c2.205206,-2.616955 -0.884574,-5.769549 -3.843537,-9.252835c-3.072872,-3.615562 -2.352932,-9.044622 2.995449,-11.455813c3.641526,-1.639578 9.438424,1.202738 11.707703,5.847936c2.26928,4.647647 -2.854843,9.914219 -3.938758,15.430646zm7.697753,-16.477428c-0.440507,0.41561 -2.402767,0.747935 -2.402767,0.747935s0.31236,-1.806965 0.757316,-2.227474c0.444067,-0.412344 1.171126,-0.425408 1.630322,-0.017963c0.457416,0.409078 0.461865,1.078626 0.015129,1.497503z"/>
  </g>
  <g id="svg_3"/>
  <g id="svg_4"/>
  <g id="svg_5"/>
  <g id="svg_6"/>
  <g id="svg_7"/>
  <g id="svg_8"/>
  <g id="svg_9"/>
  <g id="svg_10"/>
  <g id="svg_11"/>
  <g id="svg_12"/>
  <g id="svg_13"/>
  <g id="svg_14"/>
  <g id="svg_15"/>
  <g id="svg_16"/>
  <g id="svg_17"/>
 </g>
</svg>
