<?xml version="1.0" encoding="UTF-8" standalone="no"?>
<!-- Created with Inkscape (http://www.inkscape.org/) -->

<svg
   xmlns:dc="http://purl.org/dc/elements/1.1/"
   xmlns:cc="http://creativecommons.org/ns#"
   xmlns:rdf="http://www.w3.org/1999/02/22-rdf-syntax-ns#"
   xmlns:svg="http://www.w3.org/2000/svg"
   xmlns="http://www.w3.org/2000/svg"
   xmlns:sodipodi="http://sodipodi.sourceforge.net/DTD/sodipodi-0.dtd"
   xmlns:inkscape="http://www.inkscape.org/namespaces/inkscape"
   version="1.1"
   width="55"
   height="55"
   viewBox="0 0 55 55"
   id="svg2"
   xml:space="preserve"
   sodipodi:docname="glider.svg"
   inkscape:version="0.92.2 5c3e80d, 2017-08-06"><sodipodi:namedview
     pagecolor="#ffffff"
     bordercolor="#666666"
     borderopacity="1"
     objecttolerance="10"
     gridtolerance="10"
     guidetolerance="10"
     inkscape:pageopacity="0"
     inkscape:pageshadow="2"
     inkscape:window-width="1440"
     inkscape:window-height="779"
     id="namedview8"
     showgrid="false"
     inkscape:pagecheckerboard="true"
     inkscape:zoom="6.9453153"
     inkscape:cx="38.843214"
     inkscape:cy="19.402099"
     inkscape:window-x="0"
     inkscape:window-y="1"
     inkscape:window-maximized="1"
     inkscape:current-layer="svg2" /><metadata
     id="metadata21"><rdf:RDF><cc:Work
         rdf:about=""><dc:format>image/svg+xml</dc:format><dc:type
           rdf:resource="http://purl.org/dc/dcmitype/StillImage" /><dc:title></dc:title></cc:Work></rdf:RDF></metadata><defs
     id="defs19" /><g
     id="g854"
     transform="matrix(1.7058869,0,0,1.7058869,19.682502,-68.111413)"><rect
       y="20.721317"
       x="29.808941"
       height="5"
       width="5"
       id="rect835"
       style="fill:#000000;fill-opacity:1;stroke:none;stroke-opacity:1" /><rect
       style="fill:#000000;fill-opacity:1;stroke:none;stroke-opacity:1"
       id="rect837"
       width="5"
       height="5"
       x="19.808941"
       y="25.721317" /><rect
       y="25.721317"
       x="24.808941"
       height="5"
       width="5"
       id="rect839"
       style="fill:#000000;fill-opacity:1;stroke:none;stroke-opacity:1" /><rect
       style="fill:#000000;fill-opacity:1;stroke:none;stroke-opacity:1"
       id="rect845"
       width="5"
       height="5"
       x="24.808941"
       y="30.721317" /><rect
       y="30.721317"
       x="29.808941"
       height="5"
       width="5"
       id="rect847"
       style="fill:#000000;fill-opacity:1;stroke:none;stroke-opacity:1" /></g><path
     style="fill:#ffffff;fill-opacity:1;stroke:none;stroke-width:1.04244614;stroke-opacity:1"
     d="M 27.585938 5.1855469 A 22.5 22.5 0 0 0 5.0859375 27.685547 A 22.5 22.5 0 0 0 27.585938 50.185547 A 22.5 22.5 0 0 0 50.085938 27.685547 A 22.5 22.5 0 0 0 27.585938 5.1855469 z M 31.289062 14.601562 L 39.818359 14.601562 L 39.818359 23.130859 L 31.289062 23.130859 L 31.289062 31.660156 L 39.818359 31.660156 L 39.818359 40.189453 L 31.289062 40.189453 L 22.759766 40.189453 L 22.759766 31.660156 L 14.230469 31.660156 L 14.230469 23.130859 L 22.759766 23.130859 L 31.289062 23.130859 L 31.289062 14.601562 z "
     id="path867" /></svg>