<?xml version="1.0" encoding="UTF-8" standalone="no"?>
<!-- Created with Inkscape (http://www.inkscape.org/) -->

<svg
   xmlns:dc="http://purl.org/dc/elements/1.1/"
   xmlns:cc="http://creativecommons.org/ns#"
   xmlns:rdf="http://www.w3.org/1999/02/22-rdf-syntax-ns#"
   xmlns:svg="http://www.w3.org/2000/svg"
   xmlns="http://www.w3.org/2000/svg"
   xmlns:sodipodi="http://sodipodi.sourceforge.net/DTD/sodipodi-0.dtd"
   xmlns:inkscape="http://www.inkscape.org/namespaces/inkscape"
   version="1.1"
   width="55"
   height="55"
   viewBox="0 0 55 55"
   id="svg2"
   xml:space="preserve"
   sodipodi:docname="random.svg"
   inkscape:version="0.92.2 5c3e80d, 2017-08-06"><sodipodi:namedview
     pagecolor="#ffffff"
     bordercolor="#666666"
     borderopacity="1"
     objecttolerance="10"
     gridtolerance="10"
     guidetolerance="10"
     inkscape:pageopacity="0"
     inkscape:pageshadow="2"
     inkscape:window-width="1440"
     inkscape:window-height="779"
     id="namedview8"
     showgrid="false"
     inkscape:pagecheckerboard="true"
     inkscape:zoom="6.9453153"
     inkscape:cx="56.850449"
     inkscape:cy="17.438506"
     inkscape:window-x="0"
     inkscape:window-y="1"
     inkscape:window-maximized="1"
     inkscape:current-layer="svg2" /><metadata
     id="metadata21"><rdf:RDF><cc:Work
         rdf:about=""><dc:format>image/svg+xml</dc:format><dc:type
           rdf:resource="http://purl.org/dc/dcmitype/StillImage" /><dc:title></dc:title></cc:Work></rdf:RDF></metadata><defs
     id="defs19" /><g
     id="g854"
     transform="matrix(1.7058869,0,0,1.7058869,19.682502,-68.111413)"><rect
       y="20.721317"
       x="29.808941"
       height="5"
       width="5"
       id="rect835"
       style="fill:#000000;fill-opacity:1;stroke:none;stroke-opacity:1" /><rect
       style="fill:#000000;fill-opacity:1;stroke:none;stroke-opacity:1"
       id="rect837"
       width="5"
       height="5"
       x="19.808941"
       y="25.721317" /><rect
       y="25.721317"
       x="24.808941"
       height="5"
       width="5"
       id="rect839"
       style="fill:#000000;fill-opacity:1;stroke:none;stroke-opacity:1" /><rect
       style="fill:#000000;fill-opacity:1;stroke:none;stroke-opacity:1"
       id="rect845"
       width="5"
       height="5"
       x="24.808941"
       y="30.721317" /><rect
       y="30.721317"
       x="29.808941"
       height="5"
       width="5"
       id="rect847"
       style="fill:#000000;fill-opacity:1;stroke:none;stroke-opacity:1" /></g><path
     style="fill:#ffffff;fill-opacity:1;stroke:none;stroke-width:1.04244614;stroke-opacity:1"
     d="M 27.585938 5.0585938 A 22.5 22.5 0 0 0 5.0859375 27.558594 A 22.5 22.5 0 0 0 27.585938 50.058594 A 22.5 22.5 0 0 0 50.085938 27.558594 A 22.5 22.5 0 0 0 27.585938 5.0585938 z M 15.814453 15.033203 L 24.34375 15.033203 L 24.34375 23.5625 L 32.873047 23.5625 L 32.873047 15.033203 L 41.402344 15.033203 L 41.402344 23.5625 L 32.873047 23.5625 L 32.873047 32.091797 L 41.402344 32.091797 L 41.402344 40.621094 L 32.873047 40.621094 L 32.873047 32.091797 L 24.34375 32.091797 L 15.814453 32.091797 L 15.814453 23.5625 L 15.814453 15.033203 z "
     id="path867" /><rect
     y="43.68523"
     x="68.189552"
     height="8.5294342"
     width="8.5294342"
     id="rect4625"
     style="fill:#000000;fill-opacity:1;stroke:none;stroke-width:1.70588684;stroke-opacity:1" /><g
     transform="translate(-6.3352056,-3.0236215)"
     id="g4671"><rect
       style="fill:#000000;fill-opacity:1;stroke:none;stroke-width:1.70588684;stroke-opacity:1"
       id="rect4661"
       width="8.5294342"
       height="8.5294342"
       x="100.11306"
       y="46.708851" /><rect
       y="55.238285"
       x="83.054192"
       height="8.5294342"
       width="8.5294342"
       id="rect4663"
       style="fill:#000000;fill-opacity:1;stroke:none;stroke-width:1.70588684;stroke-opacity:1" /><rect
       style="fill:#000000;fill-opacity:1;stroke:none;stroke-width:1.70588684;stroke-opacity:1"
       id="rect4665"
       width="8.5294342"
       height="8.5294342"
       x="91.583626"
       y="55.238285" /><rect
       y="63.767719"
       x="91.583626"
       height="8.5294342"
       width="8.5294342"
       id="rect4667"
       style="fill:#000000;fill-opacity:1;stroke:none;stroke-width:1.70588684;stroke-opacity:1" /><rect
       style="fill:#000000;fill-opacity:1;stroke:none;stroke-width:1.70588684;stroke-opacity:1"
       id="rect4669"
       width="8.5294342"
       height="8.5294342"
       x="100.11306"
       y="63.767719" /></g></svg>