<?xml version="1.0" encoding="UTF-8" standalone="no"?>
<svg
   xmlns:dc="http://purl.org/dc/elements/1.1/"
   xmlns:cc="http://creativecommons.org/ns#"
   xmlns:rdf="http://www.w3.org/1999/02/22-rdf-syntax-ns#"
   xmlns:svg="http://www.w3.org/2000/svg"
   xmlns="http://www.w3.org/2000/svg"
   xmlns:sodipodi="http://sodipodi.sourceforge.net/DTD/sodipodi-0.dtd"
   xmlns:inkscape="http://www.inkscape.org/namespaces/inkscape"
   enable-background="new 0 0 55.125 55"
   height="55px"
   version="1.1"
   viewBox="0 0 55.125 55"
   width="55.125px"
   x="0px"
   xml:space="preserve"
   y="0px"
   id="svg2"
   inkscape:version="0.48.4 r9939"
   sodipodi:docname="go-right.svg"><metadata
     id="metadata13"><rdf:RDF><cc:Work
         rdf:about=""><dc:format>image/svg+xml</dc:format><dc:type
           rdf:resource="http://purl.org/dc/dcmitype/StillImage" /><dc:title></dc:title></cc:Work></rdf:RDF></metadata><defs
     id="defs11" /><sodipodi:namedview
     pagecolor="#ffffff"
     bordercolor="#808080"
     borderopacity="1"
     objecttolerance="10"
     gridtolerance="10"
     guidetolerance="10"
     inkscape:pageopacity="0"
     inkscape:pageshadow="2"
     inkscape:window-width="1600"
     inkscape:window-height="837"
     id="namedview9"
     showgrid="false"
     inkscape:zoom="4.2909091"
     inkscape:cx="27.5625"
     inkscape:cy="27.5"
     inkscape:window-x="-8"
     inkscape:window-y="-8"
     inkscape:window-maximized="1"
     inkscape:current-layer="svg2" /><g
     display="block"
     id="go-right"
     style="fill:#ffffff;display:block"
     transform="matrix(-1,0,0,1,55,0)">
	<g
   display="inline"
   id="g5"
   style="fill:#ffffff;display:inline">
		<path
   d="M 50,27.5 C 50,15.073 39.927,5 27.5,5 15.072,5 5,15.073 5,27.5 5,39.927 15.072,50 27.5,50 39.927,50 50,39.927 50,27.5 z M 22.725,37.907 c -0.624,-0.626 -0.939,-1.447 -0.939,-2.271 0,-0.822 0.315,-1.646 0.939,-2.271 l 5.833,-5.84 -5.802,-5.657 c -0.645,-0.63 -0.967,-1.464 -0.967,-2.3 0,-0.808 0.305,-1.62 0.914,-2.246 1.238,-1.266 3.271,-1.295 4.546,-0.056 l 8.126,7.929 c 0,0.002 0,0.002 0,0.003 0.011,0.01 0.021,0.015 0.028,0.022 0.115,0.116 0.208,0.245 0.302,0.371 0.028,0.039 0.064,0.071 0.093,0.111 0.075,0.114 0.133,0.24 0.194,0.36 0.035,0.068 0.078,0.131 0.107,0.2 0.039,0.1 0.064,0.203 0.093,0.306 0.032,0.099 0.068,0.191 0.09,0.292 0.018,0.083 0.018,0.169 0.028,0.251 0.015,0.122 0.033,0.244 0.036,0.366 0,0.071 -0.014,0.147 -0.021,0.219 -0.007,0.133 -0.011,0.266 -0.036,0.395 -0.014,0.075 -0.043,0.146 -0.064,0.223 -0.035,0.123 -0.061,0.251 -0.111,0.373 -0.032,0.082 -0.082,0.161 -0.121,0.244 -0.055,0.105 -0.104,0.215 -0.165,0.315 -0.058,0.085 -0.13,0.159 -0.194,0.239 -0.064,0.086 -0.122,0.176 -0.201,0.254 -0.003,0.006 -0.011,0.01 -0.014,0.013 -0.004,0.007 -0.008,0.011 -0.011,0.015 l -8.13,8.142 c -1.259,1.254 -3.292,1.257 -4.553,-0.002 z"
   id="path7"
   style="fill:#ffffff"
   inkscape:connector-curvature="0" />
	</g>
</g></svg>