<?xml version="1.0" encoding="UTF-8" standalone="no"?>
<!-- Created with Inkscape (http://www.inkscape.org/) -->

<svg
   xmlns:dc="http://purl.org/dc/elements/1.1/"
   xmlns:cc="http://creativecommons.org/ns#"
   xmlns:rdf="http://www.w3.org/1999/02/22-rdf-syntax-ns#"
   xmlns:svg="http://www.w3.org/2000/svg"
   xmlns="http://www.w3.org/2000/svg"
   xmlns:sodipodi="http://sodipodi.sourceforge.net/DTD/sodipodi-0.dtd"
   xmlns:inkscape="http://www.inkscape.org/namespaces/inkscape"
   width="46.578011"
   height="47.156208"
   id="svg2"
   version="1.1"
   inkscape:version="0.48.4 r9939"
   sodipodi:docname="key_4.svg">
  <defs
     id="defs4" />
  <sodipodi:namedview
     id="base"
     pagecolor="#ffffff"
     bordercolor="#666666"
     borderopacity="1.0"
     inkscape:pageopacity="0.0"
     inkscape:pageshadow="2"
     inkscape:zoom="5.6568542"
     inkscape:cx="16.527079"
     inkscape:cy="23.414978"
     inkscape:document-units="px"
     inkscape:current-layer="layer1"
     showgrid="false"
     inkscape:window-width="1600"
     inkscape:window-height="837"
     inkscape:window-x="-8"
     inkscape:window-y="-8"
     inkscape:window-maximized="1"
     fit-margin-top="2"
     fit-margin-left="2"
     fit-margin-right="1"
     fit-margin-bottom="1" />
  <metadata
     id="metadata7">
    <rdf:RDF>
      <cc:Work
         rdf:about="">
        <dc:format>image/svg+xml</dc:format>
        <dc:type
           rdf:resource="http://purl.org/dc/dcmitype/StillImage" />
        <dc:title></dc:title>
      </cc:Work>
    </rdf:RDF>
  </metadata>
  <g
     inkscape:label="Calque 1"
     inkscape:groupmode="layer"
     id="layer1"
     style="display:inline"
     transform="translate(-269.78566,-541.31567)">
    <g
       id="g3825"
       transform="matrix(0.10953359,0,0,0.11016678,247.06948,500.07657)">
      <path
         style="fill:#f3f3f3"
         d="m 253.40894,791.4658 c -10.33288,-3.30595 -19.54124,-11.4968 -23.83333,-21.19979 -4.23351,-9.57055 -4.26327,-11.0474 -3.62445,-179.90383 0.33604,-88.825 0.86122,-163.525 1.16707,-166 1.56362,-12.65325 12.76746,-25.55975 26.0948,-30.06047 5.69582,-1.9235 9.14759,-1.95749 172.79944,-1.70112 L 593,392.86218 l 6,2.41249 c 4.25223,1.70974 7.76204,4.18575 12.04898,8.5 6.53073,6.57232 9.97552,12.80722 11.49095,20.79804 0.58906,3.10612 0.96007,68.73167 0.96007,169.82062 0,162.68471 -0.0255,164.8408 -2.02775,171.32327 -3.94729,12.77983 -14.33951,22.79479 -27.20826,26.22053 -4.41629,1.17565 -31.83518,1.39456 -170.26399,1.3594 -155.69027,-0.0395 -165.31546,-0.14284 -170.59106,-1.83073 z"
         id="path3863"
         inkscape:connector-curvature="0" />
      <path
         style="fill:#e9e9e9"
         d="m 260.41663,792.26178 c -16.07889,-1.72904 -29.69473,-14.91056 -32.90898,-31.85925 -1.45921,-7.69438 -1.37643,-326.67372 0.0868,-334.60669 2.33866,-12.67883 10.90136,-23.73061 22.65288,-29.23777 L 256,393.86218 l 168,0 168,0 6,2.40855 c 8.29051,3.32801 18.26344,13.30094 21.59145,21.59145 l 2.40855,6 0.26923,167.5 c 0.26732,166.30713 0.25466,167.54805 -1.77774,174.24657 -3.53201,11.64105 -13.8885,21.94627 -25.36755,25.24196 -4.39734,1.2625 -28.09629,1.50942 -167.12394,1.74129 -89.1,0.1486 -164.51251,0 -167.58336,-0.33022 z m 309.0443,-366.3794 c 1.55041,-0.80174 5.00596,-4.48371 7.679,-8.18215 6.87867,-9.51738 6.75973,-9.23895 4.84867,-11.35065 -2.3267,-2.57097 -10.38051,-3.40529 -19.49868,-2.01991 -4.11946,0.6259 -10.58761,1.40403 -14.37368,1.72919 l -6.88377,0.5912 3.76331,2.27125 c 5.34327,3.2248 13.07441,11.01101 17.3175,17.44087 3.11507,4.72049 3.67903,5.17954 3.9791,3.23897 0.1924,-1.24433 1.61719,-2.91653 3.16855,-3.71877 z"
         id="path3861"
         inkscape:connector-curvature="0" />
      <path
         style="fill:#e5e5e5"
         d="m 254.78604,790.9203 c -14.30672,-4.50131 -25.54258,-17.91163 -27.15743,-32.41315 -0.34574,-3.10473 -0.40361,-80.11997 -0.12861,-171.14497 0.47929,-158.64612 0.577,-165.66565 2.35942,-169.5 4.82417,-10.37778 12.63841,-17.8589 22.5133,-21.55357 5.42708,-2.03053 6.57679,-2.04452 152.04785,-1.85066 194.79223,0.25958 186.23261,0.13353 193.32609,2.84709 7.56897,2.89545 15.97118,10.62716 20.07065,18.469 l 3.18269,6.08814 0.5,166.5 c 0.275,91.575 0.19594,168.90208 -0.17568,171.83795 -1.48734,11.7502 -10.09376,23.0223 -21.82146,28.58024 L 593,791.86218 426,792.05416 c -136.3208,0.1567 -167.77414,-0.0516 -171.21396,-1.13386 z m 48.41286,-88.46965 c -1.94361,-2.15134 -4.13347,-4.96384 -4.86637,-6.25 -1.08784,-1.90906 -1.36793,-25.56768 -1.52529,-128.83847 -0.10601,-69.575 -0.39177,-129.2 -0.63502,-132.5 -0.50694,-6.87745 0.86118,-9.96531 8.18398,-18.47123 4.17883,-4.85399 4.23991,-5.01635 1.5,-3.9875 -4.19192,1.5741 -12.14008,9.71693 -15.08916,15.45873 -5.42221,10.55696 -5.24239,6.05502 -5.25517,131.5685 -0.0106,104.27263 0.15799,117.14142 1.59844,122 3.05136,10.2921 8.15352,17.76954 15.34407,22.48745 4.77851,3.13531 4.82323,3.04717 0.74452,-1.46748 z M 571.80229,439.87528 c 1.15561,-1.65721 3.74575,-5.0381 5.75588,-7.5131 2.01012,-2.475 5.39255,-7.425 7.51652,-11 2.12396,-3.575 4.88855,-7.77203 6.14353,-9.32672 1.25498,-1.5547 2.28178,-3.46082 2.28178,-4.23582 0,-2.30098 -7.06749,-6.28665 -14.32221,-8.07693 -5.93401,-1.46437 -7.90975,-1.51533 -15.97465,-0.41205 -5.06173,0.69244 -15.39311,1.77481 -22.95863,2.40526 l -13.75549,1.14626 6.25549,1.83335 c 17.262,5.05913 30.86365,19.68672 34.9725,37.6104 0.92232,4.02338 1.37172,4.87016 1.62895,3.06935 0.19538,-1.3678 1.30073,-3.8428 2.45633,-5.5 z"
         id="path3859"
         inkscape:connector-curvature="0" />
      <path
         style="fill:#e1e1e1"
         d="M 255.52424,790.76938 C 244.58989,787.8105 235.64638,780.17335 230.66041,769.53733 L 228,763.86218 l 0,-170.5 0,-170.5 2.66041,-5.67515 c 4.78091,-10.19858 13.2644,-17.83611 23.61174,-21.25719 4.93543,-1.63178 14.57939,-1.72154 151,-1.40538 152.38415,0.35315 161.79495,0.63764 138.57813,4.18933 -5.96765,0.91293 -13.55028,1.70179 -16.85028,1.75303 -3.3,0.0512 -8.475,0.41251 -11.5,0.80284 l -5.5,0.70968 4.5,0.63527 c 2.475,0.3494 8.03453,1.07191 12.35451,1.60559 18.14692,2.24183 31.97225,14.08339 39.27787,33.64198 1.77265,4.74575 1.89304,10.87308 2.36762,120.5 0.275,63.525 0.8728,114.6 1.32844,113.5 0.45564,-1.1 1.46814,-3.19443 2.25,-4.65429 1.20394,-2.24797 1.42156,-19.42524 1.42156,-112.20953 l 0,-109.55524 2.34433,-2.29047 c 1.28938,-1.25976 3.39636,-4.09047 4.68217,-6.29047 1.28581,-2.2 4.90448,-7.6 8.04149,-12 7.20086,-10.10003 8.93201,-13.54901 8.93201,-17.79535 0,-4.38929 -2.0071,-6.08419 -9.75,-8.23339 -3.4375,-0.95414 -6.25,-2.12551 -6.25,-2.60303 0,-1.7572 9.63429,-0.76554 15.33503,1.57843 8.29027,3.40871 13.26412,7.14727 17.64135,13.26001 7.62126,10.64296 7.14868,-2.2007 6.81855,185.3146 L 621,763.90472 l -3.27411,6.65042 c -4.05569,8.23797 -11.9575,15.74713 -19.97923,18.98644 L 592,791.86218 426.5,792.05666 c -143.498,0.16863 -166.22796,-0.003 -170.97576,-1.28728 z M 322,710.4987 c -2.2,-1.00076 -4.55665,-2.49244 -5.237,-3.31484 -0.96968,-1.17215 -1.24847,-33.13503 -1.2901,-147.90848 l -0.0531,-146.4132 6.29011,-2.37 c 3.45955,-1.3035 7.52188,-2.81822 9.02739,-3.36605 7.65356,-2.78502 -4.77481,-3.81109 -14.77719,-1.22 -13.19966,3.41934 -23.89788,14.14337 -29.26691,29.33753 -1.46517,4.14639 -1.6643,16.2211 -1.94789,118.11852 -0.18278,65.67237 0.0746,116.75283 0.61078,121.2193 2.48119,20.66856 18.82269,37.23551 37.14392,37.65638 l 3.5,0.0804 -4,-1.81956 z"
         id="path3857"
         inkscape:connector-curvature="0" />
      <path
         style="fill:#dddddd"
         d="m 258.43161,791.3439 c -9.46559,-1.58292 -19.33219,-8.25578 -24.79526,-16.76924 C 227.15763,764.47845 227.5,774.5373 227.5,594.28857 c 0,-106.51867 0.35438,-165.53394 1.01508,-169.0399 2.30963,-12.25599 11.47419,-23.55289 22.73826,-28.0288 4.92884,-1.95853 7.59673,-2.28767 18.74666,-2.31282 75.71315,-0.17078 259.56494,0.86334 261.5,1.47087 2.07151,0.65037 1.72872,0.80618 -2,0.90903 -2.475,0.0683 -6.3,0.53077 -8.5,1.02779 -10.07132,2.27527 -40.0417,3.12119 -118,3.33057 l -83,0.22292 -6.43502,2.31993 c -3.53926,1.27596 -7.41625,3.09177 -8.61554,4.03513 -4.07016,3.20159 -12.63629,13.61889 -14.9743,18.21029 -5.65352,11.10242 -5.47514,6.81217 -5.47514,131.68645 0,72.80992 0.36864,116.9444 1.00528,120.35566 1.6469,8.82441 6.27838,16.98708 13.43921,23.68569 9.26283,8.66491 16.74488,11.0961 39.30551,12.77174 9.87837,0.7337 11.73907,0.17639 5.24733,-1.57166 -7.61336,-2.05006 -7.03271,11.20179 -6.75063,-154.06534 L 337,410.88909 l 2.7205,-1.30388 c 7.51917,-3.60379 35.17777,-5.02893 112.7795,-5.81109 46.42915,-0.46797 67.82926,-0.33267 73.5,0.46468 17.71739,2.4912 31.44058,13.26959 38.77655,30.45566 l 2.20587,5.16772 0.2858,121.5 0.28581,121.5 6.04071,0 c 4.98425,0 6.24522,-0.34978 7.21009,-2 1.416,-2.4218 1.28501,8.55779 1.50968,-126.5463 L 582.5,442.76959 587.75,434.988 c 2.8875,-4.27987 6.15,-9.22594 7.25,-10.99127 1.1,-1.76533 3.6875,-5.395 5.75,-8.06592 4.13246,-5.35152 4.4925,-7.23212 2.22432,-11.61829 -1.90724,-3.6882 -1.40226,-3.68486 3.9919,0.0264 5.39746,3.71355 9.94359,9.80887 12.25655,16.43321 1.6758,4.79954 1.77723,14.70626 1.77723,173.59003 l 0,168.5 -2.23093,5.5 c -4.93611,12.16921 -16.61234,21.06313 -30.17825,22.98712 -8.46533,1.2006 -322.97825,1.19545 -330.15921,-0.005 z"
         id="path3855"
         inkscape:connector-curvature="0" />
      <path
         style="fill:#d9d9d9"
         d="m 258.62468,791.11699 c -11.37823,-1.63934 -21.94743,-9.93833 -27.45028,-21.5541 L 228,762.86218 l 0,-169.5 0,-169.5 3.1744,-6.70071 c 5.61048,-11.84296 15.84904,-19.75892 27.9637,-21.62018 3.35675,-0.51572 16.54593,-0.56311 30.8619,-0.11089 13.75,0.43435 29.95,0.83537 36,0.89116 13.21658,0.12188 12.17869,1.54305 -1.69914,2.32662 -9.03153,0.50994 -20.66747,3.42781 -23.25086,5.83046 -0.5225,0.48595 -1.76,0.88354 -2.75,0.88354 -2.04581,0 -2.28613,1.23766 -0.73079,3.76357 0.85916,1.39528 0.0655,3.40164 -4.03982,10.2123 -2.80997,4.66173 -6.10362,11.63673 -7.31921,15.5 L 284,441.86218 l 0.13087,117.5 0.13087,117.5 2.17573,6.5 c 3.99716,11.9415 11.27062,20.55739 21.85582,25.88965 8.25253,4.15718 19.27701,5.95233 47.20671,7.6868 8.11599,0.50401 10.24368,0.38115 9.37108,-0.54111 -0.6209,-0.65624 -2.99437,-1.44338 -5.27438,-1.74919 -2.28,-0.30582 -4.37378,-0.92545 -4.65283,-1.37697 -0.81713,-1.32214 -0.50759,-301.25156 0.31168,-302.00402 2.20897,-2.02881 14.10787,-4.07084 28.9871,-4.9746 26.23863,-1.59374 138.54514,-2.39367 145.75735,-1.0382 18.53868,3.48419 33.66249,19.47348 36.51784,38.60764 1.23773,8.29416 0.8115,237.42163 -0.4497,241.75 -0.61057,2.09546 -0.45945,2.75 0.63495,2.75 0.78993,0 2.41441,1.125 3.60996,2.5 1.19555,1.375 2.82618,2.5 3.62363,2.5 0.79745,0 2.11984,0.95646 2.93865,2.12547 1.11491,1.59176 2.11816,1.96749 3.99542,1.49633 1.37867,-0.34603 2.78582,-0.17749 3.12698,0.37453 1.12519,1.82059 3.15896,1.0471 4.59175,-1.74633 1.18437,-2.30909 1.49069,-23.2193 1.91052,-130.41972 l 0.5,-127.66972 2.13303,-2.33028 c 1.17316,-1.28165 2.87222,-3.79278 3.77568,-5.58028 0.90346,-1.7875 2.00958,-3.25 2.45804,-3.25 0.44847,0 2.08933,-2.3625 3.64637,-5.25 1.55704,-2.8875 3.94652,-6.73158 5.30995,-8.5424 l 2.47898,-3.2924 2.84609,2.72673 c 1.56535,1.4997 3.71777,5.05648 4.78314,7.90395 1.88486,5.03774 1.94269,9.73004 2.14643,174.16224 l 0.20939,168.98503 -2.62755,5.73932 c -3.4358,7.50477 -7.63042,12.69739 -13.27983,16.4394 -9.71346,6.43393 2.10097,6.01226 -177.48128,6.33453 -89.98086,0.16148 -165.92905,-0.0417 -168.77376,-0.45159 z M 359.75,396.61322 c 11.9625,-0.15952 31.5375,-0.15952 43.5,0 11.9625,0.15953 2.175,0.29005 -21.75,0.29005 -23.925,0 -33.7125,-0.13052 -21.75,-0.29005 z m 87,10e-5 c 11.4125,-0.16044 30.0875,-0.16044 41.5,0 11.4125,0.16044 2.075,0.29172 -20.75,0.29172 -22.825,0 -32.1625,-0.13128 -20.75,-0.29172 z"
         id="path3853"
         inkscape:connector-curvature="0" />
      <path
         style="fill:#d5d5d5"
         d="m 260.28835,791.24829 c -15.4225,-1.6576 -28.79656,-14.67367 -31.79446,-30.94339 -0.67912,-3.68562 -0.93473,-61.10923 -0.75895,-170.5 L 228,424.86218 l 2.33479,-5.78458 c 3.08279,-7.63782 11.58571,-16.79554 18.93164,-20.38957 4.60887,-2.25491 7.25297,-2.80974 14.67757,-3.07989 11.50361,-0.41856 26.50092,1.04088 22.056,2.14634 -6.90262,1.71671 -7.5,2.27147 -7.5,6.96494 0,4.82151 0.72391,5.37599 9.5,7.27652 5.22023,1.13049 5.56846,3.71988 1.66512,12.38141 -6.36819,14.13102 -6.16785,9.88181 -6.13802,130.18224 0.0149,60.11642 0.4317,113.48479 0.92622,118.59636 0.65964,6.81828 1.67427,10.94686 3.80924,15.5 5.6747,12.10211 17.40498,21.80404 29.73744,24.59538 9.87302,2.23466 32.36772,4.23755 52.5,4.6745 l 20.5,0.44494 -8,-1.98761 c -4.4,-1.09318 -8.58055,-2.33261 -9.2901,-2.75429 -1.03353,-0.61421 -1.26701,-13.19664 -1.17399,-63.26669 0.10865,-58.4829 0.092,-68.43346 -0.1228,-73.5 -0.0466,-1.1 -0.02,-2.9 0.0592,-4 0.0792,-1.1 0.11945,-37.99814 0.0894,-81.99587 l -0.0546,-79.99588 2.35298,-0.62928 c 6.9108,-1.84823 32.65574,-3.94502 59.63985,-4.85735 37.28253,-1.26051 85.29177,-1.30079 93.74164,-0.0786 16.64155,2.40695 31.34444,15.02076 36.38461,31.21485 1.72256,5.53461 1.83013,12.57732 1.90315,124.60417 0.0799,122.6112 0.0957,122.03862 -3.62665,131.64875 -0.62236,1.60679 -0.38863,1.81883 1.4693,1.33297 1.76471,-0.46148 2.7311,0.2106 4.80156,3.33926 1.42569,2.15437 3.19153,3.91703 3.92409,3.91703 0.73256,0 1.86513,1.0125 2.51682,2.25 1.48403,2.81805 2.80852,3.71522 5.51351,3.73469 1.17041,0.008 2.74541,0.88985 3.5,1.95873 1.148,1.62616 2.15459,1.84899 6.16612,1.36497 3.95658,-0.47739 5.04849,-1.0703 6.25,-3.39376 C 598.2973,704.85349 598.5,685.86782 598.5,570.91873 l 0,-133.54276 4.50472,-7.2569 c 2.47759,-3.99129 5.54507,-8.38189 6.81661,-9.75689 1.27154,-1.375 2.62474,-3.33818 3.00711,-4.36262 1.35475,-3.62962 4.75428,1.08424 6.75211,9.36262 0.46456,1.925 0.88663,78.34568 0.93794,169.82372 0.10339,184.37431 0.58902,170.75019 -6.43874,180.63489 -4.37361,6.15157 -12.50811,12.17787 -18.93289,14.02608 -4.43243,1.27507 -27.63398,1.5177 -167.14686,1.74795 -89.1,0.14705 -164.57024,-0.009 -167.71165,-0.34653 z"
         id="path3851"
         inkscape:connector-curvature="0" />
      <path
         style="fill:#d1d1d1"
         d="m 253.5791,789.72512 c -10.06469,-3.537 -19.45113,-12.51508 -23.16932,-22.16131 l -2.19772,-5.70163 0.21038,-168 c 0.11571,-92.4 0.46987,-169.125 0.78703,-170.5 1.04322,-4.52278 5.3483,-12.10736 9.31469,-16.41038 7.37804,-8.00424 19.55928,-12.49682 30.25918,-11.15996 l 5.53516,0.69158 -1.40309,2.68938 c -1.50472,2.88418 -1.85138,8.0525 -0.6501,9.69219 1.58979,2.16999 8.9557,6.40113 12.98469,7.4587 5.19628,1.36397 5.30723,2.37394 1.48723,13.53849 l -2.73723,8 -0.27923,116 c -0.18403,76.4512 0.0741,118.29713 0.75715,122.73766 1.4806,9.62552 4.86334,16.45047 11.86151,23.93154 11.22034,11.99458 19.57428,14.40173 61.66057,17.76726 18.69749,1.49519 44.63673,2.17234 48.5,1.26611 3.26508,-0.76591 2.8811,-0.94245 -5.72076,-2.63017 -11.80759,-2.3167 -13.16428,-3.23596 -11.51345,-7.80124 1.74646,-4.82975 1.7839,-118.91811 0.0399,-121.71064 -0.91106,-1.45883 -0.91986,-2.51462 -0.0371,-4.45208 0.92835,-2.03752 0.8679,-2.82905 -0.30573,-4.00267 -1.68356,-1.68356 -1.81925,-2.92757 -0.58567,-5.36934 1.88057,-3.72242 3.2121,-9.28286 2.49915,-10.43643 -0.41186,-0.66641 -0.77754,-35.11324 -0.81262,-76.5485 L 390,411.27683 l 2.5,-0.5576 c 1.375,-0.30669 4.075,-0.92234 6,-1.36811 10.56209,-2.44588 41.92182,-3.90114 89.5,-4.1533 37.07522,-0.19649 41.50677,-0.0463 46.29397,1.5685 15.76906,5.31933 26.66159,16.72951 30.67312,32.13082 1.33552,5.12742 1.53119,21.02034 1.51953,123.42514 l -0.0134,117.5399 -2.97324,8.5 c -1.63528,4.675 -2.97926,8.6125 -2.98662,8.75 -0.007,0.1375 1.07492,0.25 2.40506,0.25 1.72925,0 3.05759,1.06865 4.66127,3.75 4.47204,7.47724 14.65178,17.07953 21.82393,20.58597 4.14648,2.02721 8.08092,2.11515 12.47578,0.27886 2.97791,-1.24425 3.43444,-1.99132 4.48734,-7.34312 0.86366,-4.38988 1.15636,-42.34893 1.11216,-144.22849 -0.057,-131.3284 0.0299,-138.39708 1.73055,-140.79076 0.98479,-1.38611 2.98073,-4.32908 4.43542,-6.53993 l 2.64489,-4.01972 1.85511,3.40359 C 619.93096,425.73551 620,432.15187 620,594.86218 l 0,169 -2.66041,5.67515 c -3.72467,7.94541 -9.86953,14.22194 -17.69574,18.07492 l -6.60131,3.24993 -167.52127,0.20828 c -149.26542,0.18559 -168.00304,0.039 -171.94217,-1.34534 z"
         id="path3849"
         inkscape:connector-curvature="0" />
      <path
         style="fill:#cbcbcb"
         d="M 254.78604,789.91143 C 240.95993,785.59044 230.4401,773.17354 228.65829,759.07198 228.29623,756.20659 228.225,679.38718 228.5,588.36218 l 0.5,-165.5 2.72143,-5.54129 c 5.45023,-11.09755 15.73567,-18.86818 27.16045,-20.51966 l 4.88188,-0.70569 -0.69584,5.56935 c -0.76563,6.12788 -0.88063,5.93116 6.93208,11.85782 2.2,1.66891 6.8125,4.3123 10.25,5.87421 7.22921,3.28476 7.33025,3.62759 4.5,15.26786 -1.61859,6.65695 -1.74191,15.90784 -1.64232,123.1974 0.11786,126.96097 -0.11998,121.63529 5.96885,133.65102 3.52087,6.94811 11.74515,14.97298 19.20364,18.73801 11.82769,5.9706 49.90945,10.26476 92.88528,10.4739 25.10091,0.12216 30.7977,-0.23312 29.20923,-1.82159 -0.25227,-0.25226 -3.81477,-0.95542 -7.91667,-1.56258 -4.10191,-0.60716 -8.92051,-1.56067 -10.70801,-2.1189 l -3.25,-1.01496 -0.0316,-78.67245 c -0.0811,-201.88109 0.0456,-222.61508 1.36871,-223.93814 3.48813,-3.48813 43.29494,-6.18609 91.73138,-6.21723 28.03776,-0.018 32.1059,0.4909 41.28091,5.16427 8.51114,4.33522 17.05028,14.35129 20.96027,24.58557 l 2.19033,5.73308 0.27392,117.24104 c 0.30115,128.89571 0.51724,123.79624 -5.77393,136.25898 l -3.02878,5.99998 2.43732,0 c 1.88923,0 3.23499,1.29302 5.98454,5.75 8.65653,14.03209 10.63291,16.12136 19.19057,20.2867 13.49402,6.56807 15.89298,7.18727 22.18643,5.72661 4.81172,-1.11676 5.6918,-1.72733 7.58654,-5.26331 l 2.14339,-4 0.22745,-147.5 c 0.12509,-81.125 0.25128,-147.725 0.28041,-148 0.0291,-0.275 0.46291,0.20043 0.96395,1.05651 0.53632,0.91634 0.97813,70.01146 1.07422,167.99999 0.17878,182.31857 0.56374,170.1271 -5.65524,179.10108 -5.26505,7.59747 -13.10373,12.79764 -22.19001,14.72081 -8.31812,1.76058 -331.23756,1.44511 -336.91474,-0.32914 z"
         id="path3847"
         inkscape:connector-curvature="0" />
      <path
         style="fill:#c3c3c3"
         d="m 252.86058,788.84667 c -7.26311,-2.43981 -13.93503,-7.61684 -18.29051,-14.19241 -6.50484,-9.82052 -6.13104,1.88896 -5.83719,-182.85687 L 229,423.86218 l 2.59016,-5.5 c 3.27059,-6.94482 6.71036,-11.01702 12.60297,-14.92013 6.28059,-4.16009 8.34746,-4.10484 7.64816,0.20443 -0.47316,2.91572 -0.0197,3.7574 4.04053,7.5 2.51542,2.31863 5.04807,4.2157 5.6281,4.2157 0.58003,0 4.07758,1.98459 7.77234,4.4102 3.69476,2.42561 8.36149,5.18809 10.37051,6.13885 4.44563,2.10386 5.33945,5.28433 3.5792,12.7358 -1.51646,6.41943 -1.43651,216.06148 0.0888,232.74839 1.21485,13.29087 4.44206,20.89625 12.61105,29.71973 7.85668,8.48616 16.54442,12.74247 30.06822,14.73109 34.42573,5.06214 45.91234,5.85016 86.5,5.93418 37.47596,0.0776 50.33213,-0.55776 48.37064,-2.39041 -0.47885,-0.4474 -4.73158,-1.25044 -9.4505,-1.78453 -4.71893,-0.53409 -9.89393,-1.60088 -11.5,-2.37064 L 437,713.83527 436.74677,563.22385 c -0.20138,-119.77614 0.003,-150.79907 1,-151.52797 4.82071,-3.52563 23.9113,-5.16775 64.25323,-5.52688 30.88871,-0.27498 33.79811,0.20557 44.49615,7.34944 7.77855,5.19432 14.29562,13.81092 16.95302,22.4146 1.91123,6.18783 1.97344,9.94007 2.06675,124.65451 0.10754,132.20988 0.58975,122.97786 -7.0949,135.83474 -2.15656,3.60807 -3.92102,6.87057 -3.92102,7.25 0,0.37944 0.91332,0.68989 2.0296,0.68989 1.46561,0 3.79769,2.7093 8.39246,9.75 7.01284,10.74597 10.1552,13.99652 19.07794,19.73474 3.3,2.12223 7.125,4.6053 8.5,5.51793 6.46807,4.29304 21.90136,6.69597 24.74464,3.85269 1.792,-1.792 2.55497,2.99488 2.07556,13.02204 -0.3334,6.97349 -0.98303,9.93513 -3.15139,14.3671 -4.93761,10.0921 -15.3685,18.16769 -24.92499,19.29692 -2.3341,0.2758 -78.04382,0.61485 -168.24382,0.75343 -163.33556,0.25095 -164.02487,0.24362 -170.13942,-1.81036 z"
         id="path3845"
         inkscape:connector-curvature="0" />
      <path
         style="fill:#bbbbbb"
         d="m 257.10049,789.80549 c -13.50355,-2.79759 -24.55242,-13.90132 -27.48226,-27.61872 -0.55889,-2.61672 -0.66589,-70.67144 -0.27095,-172.32459 l 0.65272,-168 2.15268,-4 c 1.18398,-2.2 3.27556,-5.0478 4.64796,-6.32845 2.78131,-2.59536 1.72046,-2.89868 12.72739,3.63898 2.49042,1.47921 6.92058,4.03947 9.84479,5.68947 2.92422,1.65 7.91176,4.63739 11.08341,6.63863 3.17165,2.00125 6.66071,3.9224 7.75345,4.26923 2.64931,0.84085 4.06506,4.4024 3.21671,8.09214 -1.23711,5.38061 -0.8638,157.53182 0.48949,199.5 1.21855,37.78962 1.45577,40.88978 3.54465,46.32423 4.6803,12.17625 15.69198,23.15717 27.7439,27.66637 6.98607,2.61383 40.03099,7.72137 61.79557,9.55135 45.12011,3.79373 144.84781,-0.80989 163.11133,-7.52952 2.81123,-1.03432 7.26005,-3.24327 9.88626,-4.90877 5.92599,-3.75814 7.04782,-3.28198 12.11218,5.14106 7.63399,12.69684 15.62302,21.23086 26.59179,28.40583 3.68586,2.41102 6.99207,4.85373 7.34714,5.42825 0.35507,0.57451 1.61437,1.46573 2.79844,1.9805 1.18407,0.51476 2.82786,1.35918 3.65286,1.87649 3.36228,2.10829 10.7292,4.97584 14.25,5.54675 4.37517,0.70946 4.51102,1.4022 1.79206,9.13813 -3.55715,10.12073 -13.10931,18.95475 -23.04206,21.30974 -6.30241,1.49427 -329.28565,1.98671 -336.39951,0.5129 z M 472.5,715.31683 c -6.90918,-1.21247 -9.44658,-3.84615 -8.60503,-8.93155 0.32066,-1.9377 0.58797,-69.0757 0.59402,-149.19555 l 0.011,-145.67245 3.25,-1.01888 c 5.67686,-1.77972 24.61261,-3.2348 44.75,-3.43874 18.33415,-0.18567 19.8439,-0.0586 25.25209,2.12515 10.97922,4.43329 20.31764,13.84416 24.98355,25.17737 l 2.26436,5.5 0.27407,117.47559 c 0.18386,78.81232 -0.0696,119.1292 -0.77022,122.5 -1.46373,7.04252 -5.20239,14.67319 -10.48117,21.39223 -5.539,7.05027 -13.65688,11.41612 -24.23805,13.03538 -9.80295,1.50017 -50.47371,2.24668 -57.28463,1.05145 z"
         id="path3843"
         inkscape:connector-curvature="0" />
      <path
         style="fill:#b5b5b5"
         d="M 260.83756,790.27237 C 248.27502,789.07 236.04433,779.6398 231.44366,767.60884 l -2.19754,-5.74666 0.20259,-167.34242 c 0.21412,-176.87606 0.12009,-173.26116 4.63687,-178.25214 0.94842,-1.04799 2.13379,-1.90544 2.63416,-1.90544 0.50037,0 6.16813,3.06644 12.59501,6.81432 6.42689,3.74787 14.70683,8.33184 18.39986,10.18659 3.69304,1.85476 6.99163,4.07581 7.33021,4.93569 1.78952,4.54482 2.48587,33.71689 2.33141,97.66982 -0.0945,39.10853 0.0962,71.53993 0.42365,72.06978 1.09995,1.77976 2.66106,21.63335 3.64525,46.35898 0.77251,19.40763 1.38072,25.8336 2.9103,30.74813 2.4636,7.91558 6.79619,14.65133 13.50564,20.99685 8.62336,8.15562 14.61691,10.56436 36.63893,14.7248 15.93106,3.00973 31.39788,7.18833 31.86701,8.60937 0.2516,0.76212 1.17195,1.93386 2.04522,2.60387 2.27773,1.74755 18.83953,1.63349 23.9366,-0.16486 4.48546,-1.58257 5.02153,-1.60205 39.15117,-1.42306 12.925,0.0678 27.27122,-0.21083 31.88048,-0.61914 5.80518,-0.51427 8.17985,-0.41777 7.72759,0.31399 -0.7426,1.20156 5.77925,0.46553 8.58478,-0.96883 1.03115,-0.52719 2.69573,-0.40856 4.25855,0.30351 2.0199,0.92033 3.10881,0.87833 5.11886,-0.19741 2.01769,-1.07983 2.95684,-1.11432 4.47788,-0.16441 1.14396,0.71441 5.74052,1.20201 11.3313,1.20201 7.43892,0 9.52699,-0.31377 9.98219,-1.5 0.40676,-1.06002 2.06062,-1.5 5.63837,-1.5 3.57775,0 5.23161,0.43998 5.63837,1.5 0.47824,1.24627 3.26399,1.5 16.46862,1.5 9.92867,0 15.89301,-0.37528 15.89301,-1 0,-2.44537 2.83158,-0.39525 10.8717,7.87131 13.29087,13.66519 30.05786,26.9355 40.3783,31.95758 2.6125,1.27128 4.75,2.88733 4.75,3.59123 0,1.86978 -5.17353,8.70474 -9.10115,12.0239 -1.86937,1.57977 -5.42385,3.81363 -7.89885,4.96414 -4.44819,2.06775 -5.54203,2.09472 -95,2.34228 -49.775,0.13774 -123.125,0.36274 -163,0.5 -39.875,0.13726 -75.2731,-0.0159 -78.66244,-0.34025 z m 262.84994,-61.5933 c -0.72188,-0.28887 -1.58438,-0.25335 -1.91667,0.0789 -0.33229,0.33229 0.25834,0.56864 1.3125,0.52522 1.16495,-0.048 1.4019,-0.28494 0.60417,-0.60416 z m -34.44411,-16.40069 c -1.35479,-0.78897 -1.52635,-1.45323 -0.75,-2.90385 0.66247,-1.23784 1.00661,-52.47805 1.00661,-149.87922 0,-140.08924 0.0935,-148.0257 1.75,-148.50999 4.68358,-1.36931 14.77825,-2.70085 24.73126,-3.26218 17.92586,-1.01099 27.49064,2.44078 37.8908,13.67419 7.89947,8.53237 9.81298,14.15274 10.5423,30.96485 0.3221,7.425 0.54613,61.425 0.49783,120 -0.0778,94.38774 -0.2679,107.02856 -1.67133,111.14753 -5.07343,14.89019 -13.67951,23.58737 -27.5962,27.88834 -5.39847,1.66841 -9.23776,1.95955 -25.5,1.93372 -11.17944,-0.0178 -19.87551,-0.45602 -20.90127,-1.05339 z"
         id="path3841"
         inkscape:connector-curvature="0" />
      <path
         style="fill:#b1b1b1"
         d="m 253.17414,788.52902 c -12.28694,-4.1534 -21.9132,-15.78569 -23.50925,-28.40837 -0.36569,-2.89216 -0.43989,-79.50847 -0.16489,-170.25847 0.48007,-158.42312 0.5743,-165.14947 2.36394,-168.75 1.02517,-2.0625 2.08916,-3.75 2.36444,-3.75 1.20658,0 26.10121,14.10961 26.89249,15.24195 0.49808,0.71276 0.66241,36.80037 0.37913,83.25805 -0.27886,45.73346 -0.11262,83.25186 0.37589,84.83051 0.58719,1.89755 0.46649,3.59549 -0.3662,5.15139 -1.96051,3.66324 0.76379,10.91339 4.25685,11.32868 1.99444,0.23712 2.68576,0.94668 2.92288,3 0.21569,1.86776 0.8222,2.60494 1.98517,2.4129 0.92103,-0.15209 1.96009,0.18541 2.30902,0.75 0.34893,0.56459 1.4535,1.02652 2.4546,1.02652 2.25876,0 3.61152,7.69924 5.0953,29 2.20237,31.6164 3.91693,36.96403 15.7969,49.26954 7.98411,8.2701 14.57564,11.67966 29.63235,15.32776 6.02952,1.4609 12.86204,3.4703 15.18338,4.46534 3.74559,1.60555 4.22119,2.18217 4.22573,5.12326 0.0144,9.32894 4.18463,18.8141 8.27178,18.8141 0.97214,0 3.42531,1.125 5.45149,2.5 3.06735,2.08156 4.86328,2.5 10.72996,2.5 5.72683,0 7.45451,-0.38378 9.22798,-2.04986 2.16862,-2.03732 2.7522,-2.04941 95.3352,-1.97593 66.42912,0.0527 93.74777,-0.24424 95.22562,-1.03517 3.36047,-1.79847 5.95646,-0.45951 16.05292,8.27976 15.70309,13.59225 19.20168,16.40328 22.60721,18.16435 3.18567,1.64737 3.21771,1.73215 1.73681,4.5959 -1.82406,3.52733 -6.56799,7.27452 -12.56589,9.92567 -4.35088,1.92315 -7.99835,1.97166 -172.34991,2.29219 -139.42581,0.27191 -168.58613,0.0972 -171.9209,-1.03007 z M 507.25,710.34257 c -1.654,-1.02054 -1.75,-9.24882 -1.75,-149.99154 l 0,-148.91176 4.25,-1.16579 c 2.3375,-0.64118 8.75,-1.22102 14.25,-1.28854 9.28985,-0.11404 10.47585,0.10267 16.70071,3.05164 11.20078,5.30625 19.14462,14.87063 22.24729,26.7857 2.29892,8.82847 2.35156,234.04998 0.0568,242.8603 -3.1684,12.16431 -9.91924,20.78913 -20.25474,25.87728 -6.37495,3.13838 -7.19486,3.28317 -20.19736,3.56683 -8.4772,0.18493 -14.20803,-0.10872 -15.30266,-0.78412 z"
         id="path3839"
         inkscape:connector-curvature="0" />
      <path
         style="fill:#adadad"
         d="m 254.01025,788.61696 c -9.70504,-2.83025 -18.5317,-11.32604 -22.30872,-21.47247 -1.93318,-5.1932 -1.95868,-8.11651 -1.51176,-173.28231 0.4417,-163.23699 0.64259,-173.5 3.39607,-173.5 1.38366,0 10.165,5.01851 13.74973,7.85794 l 3.33556,2.64206 -0.12156,87.46104 c -0.099,71.24486 -0.3684,87.74638 -1.45283,89 -0.75397,0.87161 -1.60694,5.31735 -1.967,10.25217 -0.58701,8.04521 -0.48219,8.79539 1.36725,9.78518 1.26493,0.67697 2.00301,2.09405 2.00301,3.84566 0,3.27509 0.95328,4.53275 7.1683,9.45711 4.22025,3.34384 9.85923,5.17044 8.3317,2.69884 -0.33992,-0.55 -0.16803,-1 0.38197,-1 0.55,0 1.28265,0.45734 1.62811,1.01631 0.34546,0.55897 1.13239,0.70466 1.74871,0.32375 2.23634,-1.38213 7.72915,-0.96163 8.14876,0.62383 1.16677,4.40843 1.61541,7.63864 2.58008,18.57637 1.34326,15.23038 2.55204,20.6199 6.17263,27.52148 6.81463,12.99006 17.22177,21.31226 33.26884,26.60384 15.26877,5.03493 14.73615,4.58907 14.05959,11.7695 -0.97835,10.38338 -0.59924,14.81658 1.45609,17.02696 1.22636,1.31888 1.72069,2.92993 1.40098,4.56589 -0.33924,1.73593 0.15581,3.11601 1.58011,4.40499 1.14077,1.03238 2.07413,2.92374 2.07413,4.20302 0,1.61881 0.72698,2.50842 2.39122,2.92611 1.62669,0.40828 2.57787,1.53341 2.975,3.51906 l 0.58378,2.91889 8.525,0 c 4.68875,0 8.525,-0.34438 8.525,-0.76528 0,-0.42091 2.1979,-1.54591 4.88421,-2.5 4.50856,-1.6013 12.42696,-1.73472 102.95295,-1.73472 72.16876,0 98.73994,-0.30582 100.61022,-1.15798 1.39782,-0.63689 3.42882,-2.66189 4.51333,-4.5 1.08451,-1.83811 2.4541,-3.34202 3.04354,-3.34202 0.58943,0 5.66711,4.08166 11.28372,9.07035 5.61662,4.98869 11.89953,10.02156 13.96203,11.18414 2.0625,1.16259 3.75,2.65357 3.75,3.31329 0,0.65972 -1.73875,2.77035 -3.86388,4.69028 -7.83234,7.07604 4.53897,6.59924 -179.99604,6.93724 -130.53107,0.23908 -167.27953,0.0365 -170.62983,-0.94052 z M 520.75,709.7647 c -0.99182,-0.45163 -1.25,-31.19826 -1.25,-148.86341 0,-131.0395 0.17571,-148.44005 1.51014,-149.54752 2.26381,-1.8788 14.97849,-0.76324 20.57697,1.80539 11.0516,5.07056 19.83858,16.9775 21.91995,29.70302 0.60077,3.67309 0.97687,49.43571 0.96978,118 -0.0124,120.04824 -6.6e-4,119.74589 -5.03097,129.6061 -3.38563,6.63639 -11.66483,14.12459 -18.53563,16.76474 -5.72262,2.19896 -17.61202,3.692 -20.16024,2.53168 z"
         id="path3837"
         inkscape:connector-curvature="0" />
      <path
         style="fill:#a9a9a9"
         d="m 254.78604,788.98479 c -10.31277,-3.40252 -17.97273,-10.28403 -22.48757,-20.20227 l -2.23977,-4.92034 0.2804,-166.5 c 0.25494,-151.38789 0.47244,-171.83277 1.85372,-174.25399 0.23658,-0.4147 1.97748,0.42621 3.86866,1.86868 l 3.43852,2.62269 0,89.41343 c 0,79.31951 -0.17866,89.83314 -1.58259,93.13131 -2.2578,5.30414 -2.21851,34.6752 0.0498,37.18159 0.84306,0.93158 1.53284,2.40903 1.53284,3.28324 0,2.53414 1.11469,4.75305 2.38775,4.75305 0.64558,0 1.6988,1.39095 2.34049,3.09099 1.03232,2.73492 1.5,3.01779 4.0599,2.45554 1.98551,-0.43609 3.2877,-0.16008 4.1507,0.87978 1.61821,1.94982 12.63281,1.27131 15.0629,-0.92788 0.91066,-0.82414 2.21495,-1.49843 2.89843,-1.49843 0.68348,0 1.91769,-0.675 2.74269,-1.5 3.80146,-3.80147 5.51197,-0.69721 7.37917,13.39181 1.4173,10.69432 4.01077,17.5759 9.35881,24.83296 7.80231,10.5874 14.16294,15.31341 29.86916,22.19313 7.38419,3.23446 7.85595,4.16463 5.62383,11.0887 -0.61939,1.92137 -1.2575,5.7434 -1.41802,8.4934 -0.16053,2.75 -0.52438,8.70409 -0.80858,13.23132 -0.29127,4.64004 -0.10889,8.48336 0.41803,8.80901 0.51411,0.31774 0.93474,2.03643 0.93474,3.81932 0,4.15346 2.00385,8.48295 4.26452,9.21385 0.97049,0.31377 1.51657,0.97168 1.21353,1.46202 -0.71545,1.15762 3.092,4.96448 4.96525,4.96448 0.79381,0 2.12159,0.96841 2.95063,2.15202 1.39711,1.99466 2.07767,2.10533 9.3067,1.51345 4.28965,-0.35122 10.65196,-1.54463 14.13846,-2.65203 6.18175,-1.96346 8.87714,-2.01344 108.58596,-2.01344 l 102.24686,0 3.64657,-4.06204 c 2.00561,-2.23412 4.3807,-5.60912 5.27798,-7.5 0.89728,-1.89088 2.37569,-3.43796 3.28535,-3.43796 1.9481,0 9.11819,4.67743 9.11819,5.94827 0,0.4819 2.99551,3.01373 6.6567,5.6263 l 6.6567,4.75012 -3.57244,3.27389 c -7.47087,6.84655 1.00322,6.49892 -154.24096,6.32734 -77,-0.0851 -151.25,0.12465 -165,0.46613 -19.96258,0.49577 -25.8491,0.34073 -29.21396,-0.76944 z M 530.5,705.9212 c 0,-0.79254 0.44217,-1.71426 0.98259,-2.04826 0.63789,-0.39424 0.901,-51.45894 0.75,-145.55903 L 532,413.36215 l 3.16709,2e-5 c 7.35706,3e-5 16.70911,6.23608 22.21156,14.81091 6.41667,9.99951 6.18919,4.7948 5.89141,134.79171 L 563,680.86218 l -2.87417,6.22237 c -3.41167,7.38604 -11.01648,15.0298 -18.04753,18.13997 -5.66544,2.50609 -11.5783,2.86188 -11.5783,0.69668 z"
         id="path3835"
         inkscape:connector-curvature="0" />
      <path
         style="fill:#a4a4a4"
         d="m 255.5,788.8186 c -11.65082,-3.20272 -21.13699,-12.82206 -24.57152,-24.91645 -1.49792,-5.27479 -1.60892,-9.29881 -0.96549,-35 0.87388,-34.90586 1.58689,-44.73067 3.28701,-45.29311 0.71561,-0.23674 1.25,0.42477 1.25,1.54736 0,3.05733 2.72552,4.85829 5.10423,3.37276 1.39382,-0.87045 2.49327,-0.91758 3.89577,-0.16698 1.90225,1.01806 2.45521,0.88627 7.73643,-1.84387 1.23004,-0.63587 3.1119,-1.15613 4.18191,-1.15613 1.07001,0 2.86444,-1.29057 3.98762,-2.86793 1.12318,-1.57737 3.40382,-3.43196 5.06809,-4.12132 1.66427,-0.68937 3.02595,-1.6488 3.02595,-2.13207 0,-0.48327 0.98788,-0.87868 2.19528,-0.87868 1.20741,0 3.40834,-1.16219 4.89097,-2.58263 l 2.69569,-2.58264 2.24529,6.83264 c 4.91445,14.9551 16.23401,28.99047 30.60459,37.94726 7.43519,4.63415 7.54056,4.75793 7.06025,8.29486 -0.26816,1.97478 -0.99585,5.39051 -1.61707,7.59051 -0.62122,2.2 -1.33261,6.99342 -1.58086,10.65205 -0.24824,3.65862 -1.16805,8.76302 -2.04401,11.3431 -0.87596,2.58008 -1.32474,5.38923 -0.99728,6.24257 0.32745,0.85333 -0.13104,2.35419 -1.01887,3.33523 -1.11602,1.23319 -1.37454,2.50029 -0.83759,4.10539 0.42715,1.27691 0.65739,3.35799 0.51163,4.62461 -0.14577,1.26662 0.27055,2.94827 0.92514,3.73701 0.6546,0.78874 0.94138,2.45241 0.63731,3.69705 -0.30414,1.24489 0.0955,3.13629 0.88833,4.20412 3.24065,4.36479 2.08329,5.30376 -7.3088,5.92966 -23.51427,1.56702 -43.73313,1.60218 -49.25,0.0856 z m 326.89641,-3.99122 c 1.70697,-1.94413 3.11781,-4.08163 3.13519,-4.75 0.0174,-0.66836 1.13432,-2.46842 2.48209,-4.00014 2.34179,-2.6614 2.57327,-2.71741 5.2184,-1.26245 1.52235,0.83738 4.31124,2.86585 6.19753,4.50773 3.29407,2.86723 3.3608,3.06127 1.68841,4.90923 -2.19903,2.42991 -8.85404,4.13043 -16.16444,4.13043 l -5.66077,0 3.10359,-3.5348 z m -35.31534,-89.68485 c 0.14473,-1.80419 0.3077,-63.00581 0.36215,-136.00359 0.0545,-72.99778 0.36266,-133.41028 0.68489,-134.25 0.94716,-2.46827 2.6381,-1.73477 6.5473,2.84008 7.78341,9.10877 7.32459,0.80041 7.32459,132.63316 l 0,117.5 -2.17459,5.75078 c -2.46948,6.53065 -5.67648,10.9576 -9.32541,12.87285 -1.375,0.72171 -2.76597,1.45279 -3.09104,1.62463 -0.32507,0.17184 -0.47263,-1.16372 -0.32789,-2.96791 z"
         id="path3833"
         inkscape:connector-curvature="0" />
      <path
         style="fill:#989898"
         d="m 254.5,788.42705 c -8.28211,-2.52843 -16.76025,-9.75427 -20.84948,-17.76983 -3.18292,-6.23903 -4.38905,-15.46319 -3.69641,-28.26916 0.99079,-18.31834 1.41908,-20.8718 3.41336,-20.35029 0.94115,0.24612 2.55072,-0.48021 3.57684,-1.61405 1.02611,-1.13385 2.66936,-2.06154 3.65166,-2.06154 0.9823,0 2.06809,-0.45643 2.41286,-1.01429 0.34478,-0.55786 2.41501,-1.92653 4.60051,-3.04149 2.1855,-1.11496 4.74247,-2.68605 5.68215,-3.49131 0.93968,-0.80526 4.30077,-3.71159 7.4691,-6.45851 3.16832,-2.74692 6.09332,-4.99457 6.5,-4.99478 0.40667,-2.1e-4 3.39968,-2.45685 6.65111,-5.4592 3.49756,-3.22961 6.39442,-5.1692 7.09377,-4.74962 0.65014,0.39006 4.6819,4.5342 8.95946,9.2092 4.27756,4.675 9.97287,10.5935 12.65623,13.15222 4.79458,4.57188 5.92646,7.40016 3.80897,9.51765 -1.43931,1.43931 -7.00827,17.07103 -7.42094,20.83013 -0.18114,1.65 -0.85735,4.8 -1.5027,7 -0.64535,2.2 -1.31088,5.16364 -1.47895,6.58587 -0.16807,1.42222 -0.78156,3.44722 -1.3633,4.5 -0.85178,1.54145 -3.01408,14.20907 -4.42343,25.91413 -0.16994,1.4114 -1.27086,2.20376 -3.74081,2.69237 -4.69302,0.92837 -28.85676,0.8321 -32,-0.1275 z"
         id="path3831"
         inkscape:connector-curvature="0" />
      <path
         style="fill:#898989"
         d="m 252.19799,786.91824 c -12.81357,-4.5705 -22.17186,-19.12055 -20.93939,-32.55606 l 0.4128,-4.5 9.15745,-4.5 c 5.0366,-2.475 9.86496,-5.175 10.72969,-6 0.86473,-0.825 3.11781,-2.35906 5.00685,-3.40902 3.53638,-1.9656 5.11218,-3.20993 9.74485,-7.69508 1.47937,-1.43225 4.16618,-3.45 5.9707,-4.48389 3.44654,-1.97466 10.09409,-10.19212 13.44388,-16.61883 2.18947,-4.2006 4.53323,-4.823 7.17391,-1.90508 2.46716,2.72618 2.31313,5.07036 -0.63879,9.72189 -5.44454,8.57929 -10.84129,21.7329 -14.18603,34.57593 -1.90708,7.32274 -4.16151,15.56408 -5.00984,18.31408 -0.84833,2.75 -1.54729,6.11182 -1.55325,7.47072 -0.006,1.3589 -0.56314,4.8464 -1.23821,7.75 l -1.22738,5.27928 -6.52262,-0.0439 c -3.58743,-0.0241 -8.23352,-0.65416 -10.32462,-1.40005 z"
         id="path3829"
         inkscape:connector-curvature="0" />
      <path
         style="fill:#7c7c7c"
         d="m 245.83572,782.72663 c -2.23554,-1.44955 -5.25954,-4.47838 -6.72,-6.73074 l -2.65537,-4.0952 2.26982,-1.83372 c 1.24841,-1.00854 3.69665,-2.47084 5.44054,-3.24954 1.74388,-0.77871 6.01888,-4.11652 9.5,-7.41737 9.11814,-8.64598 10.54003,-8.05305 6.86306,2.86187 -1.08142,3.21017 -2.45153,8.03347 -3.04468,10.71846 -2.50442,11.33662 -2.95412,12.38179 -5.32747,12.38179 -1.2437,0 -4.09036,-1.186 -6.3259,-2.63555 z"
         id="path3827"
         inkscape:connector-curvature="0" />
    </g>
    <text
       xml:space="preserve"
       style="font-size:12px;font-style:normal;font-variant:normal;font-weight:normal;font-stretch:normal;line-height:125%;letter-spacing:0px;word-spacing:0px;fill:#000000;fill-opacity:1;stroke:none;font-family:Arial;-inkscape-font-specification:Arial"
       x="287.46332"
       y="569.02643"
       id="text3002"
       sodipodi:linespacing="125%"><tspan
         sodipodi:role="line"
         id="tspan3004"
         x="287.46332"
         y="569.02643"
         style="font-size:22px">5</tspan></text>
  </g>
</svg>
