<svg xmlns="http://www.w3.org/2000/svg" xmlns:xlink="http://www.w3.org/1999/xlink" version="1.0" id="Layer_1" x="0px" y="0px" width="50px" height="50px" viewBox="0 0 50 50" enable-background="new 0 0 50 50" xml:space="preserve">
<g>
	<g>
		<g>
			<path fill="#000000" d="M1,10v22h48V10H1z M30,13h5v4h-5V13z M31,19v4h-5v-4H31z M24,13h5v4h-5V13z M25,19v4h-5v-4H25z M17,13h5     v4h-5V13z M18,19v4h-5v-4H18z M11,13h5v4h-5V13z M5,13h5v4H5V13z M5,19h7v4H5V19z M10,29H5v-4h5V29z M38,29h-5.059h-1.6h-4.799     h-1.601h-4.8H11v-4h9.142h4.8h1.601h4.799h1.6H38V29z M45,29h-5v-4h5V29z M45,23h-6v-4h6V23z M45,17h-8v-4h8V17z"/>
		</g>
	</g>
	<polygon fill="#000000" points="19.095,33 25.211,39.592 31.326,33  "/>
</g>
</svg>