<?xml version="1.0" encoding="utf-8"?>
<!-- Generator: Adobe Illustrator 16.0.0, SVG Export Plug-In . SVG Version: 6.00 Build 0)  -->
<!DOCTYPE svg PUBLIC "-//W3C//DTD SVG 1.1//EN" "http://www.w3.org/Graphics/SVG/1.1/DTD/svg11.dtd">
<svg version="1.1" id="Layer_1" xmlns="http://www.w3.org/2000/svg" xmlns:xlink="http://www.w3.org/1999/xlink" x="0px" y="0px"
	 width="170px" height="171px" viewBox="0 0 170 171" enable-background="new 0 0 170 171" xml:space="preserve">
<circle stroke="#000000" stroke-miterlimit="10" cx="85.167" cy="85.218" r="63.782"/>
<polygon stroke="#000000" stroke-width="2" stroke-linecap="round" stroke-linejoin="round" stroke-miterlimit="10" points="
	99.5,25 70.5,25 74.85,1 95.15,1 "/>
<polygon stroke="#000000" stroke-width="2" stroke-linecap="round" stroke-linejoin="round" stroke-miterlimit="10" points="
	51.739,32.232 31.232,52.738 17.338,32.691 31.693,18.337 "/>
<polygon stroke="#000000" stroke-width="2" stroke-linecap="round" stroke-linejoin="round" stroke-miterlimit="10" points="
	25,70.037 25,99.039 1,94.688 1,74.387 "/>
<polygon stroke="#000000" stroke-width="2" stroke-linecap="round" stroke-linejoin="round" stroke-miterlimit="10" points="
	117.338,32.232 137.845,52.738 151.739,32.691 137.384,18.337 "/>
<polygon stroke="#000000" stroke-width="2" stroke-linecap="round" stroke-linejoin="round" stroke-miterlimit="10" points="
	145,70.037 145,99.039 169,94.688 169,74.387 "/>
<polygon stroke="#000000" stroke-width="2" stroke-linecap="round" stroke-linejoin="round" stroke-miterlimit="10" points="
	70.5,146 99.5,146 95.15,170 74.85,170 "/>
<polygon stroke="#000000" stroke-width="2" stroke-linecap="round" stroke-linejoin="round" stroke-miterlimit="10" points="
	122.338,134.843 142.845,114.337 156.739,134.384 142.384,148.738 "/>
<polygon stroke="#000000" stroke-width="2" stroke-linecap="round" stroke-linejoin="round" stroke-miterlimit="10" points="
	51.739,139.843 31.232,119.337 17.338,139.384 31.693,153.738 "/>
</svg>
