<?xml version="1.0" encoding="UTF-8" standalone="no"?>
<!-- Created with Inkscape (http://www.inkscape.org/) -->

<svg
   xmlns:dc="http://purl.org/dc/elements/1.1/"
   xmlns:cc="http://creativecommons.org/ns#"
   xmlns:rdf="http://www.w3.org/1999/02/22-rdf-syntax-ns#"
   xmlns:svg="http://www.w3.org/2000/svg"
   xmlns="http://www.w3.org/2000/svg"
   xmlns:xlink="http://www.w3.org/1999/xlink"
   version="1.1"
   width="55"
   height="55"
   viewBox="0 0 2.75 2.75"
   id="svg9949">
  <metadata
     id="metadata9968">
    <rdf:RDF>
      <cc:Work
         rdf:about="">
        <dc:format>image/svg+xml</dc:format>
        <dc:type
           rdf:resource="http://purl.org/dc/dcmitype/StillImage" />
        <dc:title></dc:title>
      </cc:Work>
    </rdf:RDF>
  </metadata>
  <defs
     id="defs9966">
    <rect
       width="1235"
       height="50"
       x="0"
       y="0"
       id="stripe"
       style="fill:#b22234" />
    <g
       id="u">
      <use
         id="use13038"
         x="0"
         y="-0.21600001"
         width="60"
         height="30"
         xlink:href="#x4" />
      <use
         id="use13040"
         x="0"
         y="0"
         width="60"
         height="30"
         xlink:href="#x4" />
      <use
         id="use13042"
         x="0"
         y="0.21600001"
         width="60"
         height="30"
         xlink:href="#s6" />
    </g>
    <g
       id="x4">
      <use
         id="use13029"
         x="0"
         y="0"
         width="60"
         height="30"
         xlink:href="#s6" />
      <use
         id="use13031"
         x="0"
         y="0.054000001"
         width="60"
         height="30"
         xlink:href="#s5" />
      <use
         id="use13033"
         x="0"
         y="0.108"
         width="60"
         height="30"
         xlink:href="#s6" />
      <use
         id="use13035"
         x="0"
         y="0.162"
         width="60"
         height="30"
         xlink:href="#s5" />
    </g>
    <g
       id="s6">
      <use
         id="use13024"
         x="-0.063000001"
         y="0"
         width="60"
         height="30"
         xlink:href="#s5" />
      <use
         id="use13026"
         x="0.315"
         y="0"
         width="60"
         height="30"
         xlink:href="#star" />
    </g>
    <g
       id="s5">
      <use
         id="use13013"
         x="-0.252"
         y="0"
         width="60"
         height="30"
         xlink:href="#star" />
      <use
         id="use13015"
         x="-0.126"
         y="0"
         width="60"
         height="30"
         xlink:href="#star" />
      <use
         id="use13017"
         x="0"
         y="0"
         width="60"
         height="30"
         xlink:href="#star" />
      <use
         id="use13019"
         x="0.126"
         y="0"
         width="60"
         height="30"
         xlink:href="#star" />
      <use
         id="use13021"
         x="0.252"
         y="0"
         width="60"
         height="30"
         xlink:href="#star" />
    </g>
    <g
       id="star">
      <use
         transform="matrix(-0.80901699,-0.58778525,0.58778525,-0.80901699,0,0)"
         id="use13002"
         x="0"
         y="0"
         width="60"
         height="30"
         xlink:href="#pt" />
      <use
         transform="matrix(0.30901699,-0.95105652,0.95105652,0.30901699,0,0)"
         id="use13004"
         x="0"
         y="0"
         width="60"
         height="30"
         xlink:href="#pt" />
      <use
         id="use13006"
         x="0"
         y="0"
         width="60"
         height="30"
         xlink:href="#pt" />
      <use
         transform="matrix(0.30901699,0.95105652,-0.95105652,0.30901699,0,0)"
         id="use13008"
         x="0"
         y="0"
         width="60"
         height="30"
         xlink:href="#pt" />
      <use
         transform="matrix(-0.80901699,0.58778525,-0.58778525,-0.80901699,0,0)"
         id="use13010"
         x="0"
         y="0"
         width="60"
         height="30"
         xlink:href="#pt" />
    </g>
    <polygon
       points="0.16245985,0 -0.16245985,0 0,-0.5 "
       transform="scale(0.0616,0.0616)"
       id="pt"
       style="fill:#ffffff" />
  </defs>
  <clipPath
     id="t">
    <path
       d="m 30,15 h 30 v 15 z m 0,0 V 30 H 0 z m 0,0 H 0 V 0 z m 0,0 V 0 h 30 z"
       id="path9952" />
  </clipPath>
  <g
     transform="matrix(0.00222669,0,0,0.00222669,0,0.6513)"
     id="g13095">
    <rect
       width="1235"
       height="650"
       x="0"
       y="0"
       id="rect13045"
       style="fill:#ffffff" />
    <use
       id="use13047"
       x="0"
       y="0"
       width="1"
       height="1"
       xlink:href="#stripe" />
    <use
       id="use13049"
       x="0"
       y="100"
       width="1"
       height="1"
       xlink:href="#stripe" />
    <use
       id="use13051"
       x="0"
       y="200"
       width="1"
       height="1"
       xlink:href="#stripe" />
    <use
       id="use13053"
       x="0"
       y="300"
       width="1"
       height="1"
       xlink:href="#stripe" />
    <use
       id="use13055"
       x="0"
       y="400"
       width="1"
       height="1"
       xlink:href="#stripe" />
    <use
       id="use13057"
       x="0"
       y="500"
       width="1"
       height="1"
       xlink:href="#stripe" />
    <use
       id="use13059"
       x="0"
       y="600"
       width="1"
       height="1"
       xlink:href="#stripe" />
    <rect
       width="494"
       height="350"
       x="0"
       y="0"
       id="rect13061"
       style="fill:#3c3b6e" />
    <use
       transform="matrix(650,0,0,650,247,175)"
       id="use13063"
       x="0"
       y="0"
       width="1"
       height="1"
       xlink:href="#u" />
  </g>
</svg>
