<?xml version="1.0" encoding="UTF-8" standalone="no"?>
<!-- Created with Inkscape (http://www.inkscape.org/) -->

<svg
   xmlns:dc="http://purl.org/dc/elements/1.1/"
   xmlns:cc="http://creativecommons.org/ns#"
   xmlns:rdf="http://www.w3.org/1999/02/22-rdf-syntax-ns#"
   xmlns:svg="http://www.w3.org/2000/svg"
   xmlns="http://www.w3.org/2000/svg"
   xmlns:sodipodi="http://sodipodi.sourceforge.net/DTD/sodipodi-0.dtd"
   xmlns:inkscape="http://www.inkscape.org/namespaces/inkscape"
   width="133.68962"
   height="136.12451"
   id="svg2"
   version="1.1"
   inkscape:version="0.48.2 r9819"
   sodipodi:docname="pause1.svg">
  <defs
     id="defs4" />
  <sodipodi:namedview
     id="base"
     pagecolor="#ffffff"
     bordercolor="#666666"
     borderopacity="1.0"
     inkscape:pageopacity="0.0"
     inkscape:pageshadow="2"
     inkscape:zoom="1.9689039"
     inkscape:cx="-8.9885962"
     inkscape:cy="55.694942"
     inkscape:document-units="px"
     inkscape:current-layer="layer1"
     showgrid="false"
     fit-margin-left="10"
     fit-margin-right="10"
     fit-margin-top="10"
     fit-margin-bottom="10"
     inkscape:window-width="1280"
     inkscape:window-height="737"
     inkscape:window-x="-8"
     inkscape:window-y="-8"
     inkscape:window-maximized="1" />
  <metadata
     id="metadata7">
    <rdf:RDF>
      <cc:Work
         rdf:about="">
        <dc:format>image/svg+xml</dc:format>
        <dc:type
           rdf:resource="http://purl.org/dc/dcmitype/StillImage" />
        <dc:title />
      </cc:Work>
    </rdf:RDF>
  </metadata>
  <g
     inkscape:label="Calque 1"
     inkscape:groupmode="layer"
     id="layer1"
     transform="translate(-249.08376,-348.10342)">
    <path
       style="fill:#87da3d"
       d="M 64.40625 12.40625 C 61.523837 12.447667 60.183812 12.573705 58.75 12.84375 C 47.30079 15.00012 38.28071 19.39354 29.9375 26.875 C 21.72099 34.24285 15.36195 45.23086 13.03125 56.03125 C 8.91269 75.11653 14.56712 94.58601 28.21875 108.25 C 32.92195 112.95746 37.79675 116.37882 43.875 119.28125 C 48.80572 121.63573 58.42574 124.61224 62.375 125 C 65.24148 125.28143 70.20471 125.27203 73 125 C 77.25122 124.58628 86.65123 121.77824 91.71875 119.375 C 103.82514 113.63361 112.83765 104.54608 118.71875 92.21875 C 124.76481 79.54564 125.6984 64.29358 121.25 50.75 C 115.28537 32.59013 100.26994 18.59653 81.75 13.90625 C 76.42849 12.55855 75.05214 12.40625 67.875 12.40625 C 66.516648 12.40625 65.367054 12.392444 64.40625 12.40625 z M 67.59375 13.96875 C 70.184525 13.9439 72.750145 14.04035 74.375 14.25 C 89.0328 16.14126 101.89175 23.50311 110.59375 35 C 113.44868 38.77188 116.08394 43.58376 116.75 46.21875 C 117.06302 47.45707 117.05415 47.59244 116.625 47.90625 C 116.22448 48.19911 116.06966 48.17352 115.53125 47.75 C 115.18819 47.48015 114.72325 47.25 114.46875 47.25 C 114.2064 47.25 113.74334 46.84402 113.40625 46.3125 C 113.07923 45.79688 112.04819 44.21181 111.125 42.78125 C 102.76103 29.82069 90.4894 21.62536 75.625 19.09375 C 72.13448 18.49974 63.59391 18.49769 60.125 19.09375 C 48.79668 21.04031 39.62971 25.81229 31.6875 33.90625 C 28.2364 37.4233 26.29371 39.98488 22.4375 46.125 C 22.09166 46.67568 21.49142 47.28152 21.09375 47.46875 C 20.69608 47.65599 20.17626 47.90979 19.9375 48.03125 C 18.4397 48.79318 18.32523 47.19531 19.6875 44.09375 C 21.92295 39.00417 25.36376 34.13624 29.875 29.625 C 38.35313 21.14687 48.71666 16.00007 60.59375 14.375 C 62.364025 14.13278 65.002975 13.9936 67.59375 13.96875 z M 51.46875 49.25 L 58.75 49.25 C 61.092052 49.25 62.96875 50.106713 62.96875 51.1875 L 62.96875 86.90625 C 62.96875 87.987037 61.092052 88.84375 58.75 88.84375 L 51.46875 88.84375 C 49.126698 88.84375 47.25 87.987037 47.25 86.90625 L 47.25 51.1875 C 47.25 50.106713 49.126698 49.25 51.46875 49.25 z M 73.09375 49.25 L 80.375 49.25 C 82.717052 49.25 84.59375 50.106713 84.59375 51.1875 L 84.59375 86.90625 C 84.59375 87.987037 82.717052 88.84375 80.375 88.84375 L 73.09375 88.84375 C 70.751698 88.84375 68.84375 87.987037 68.84375 86.90625 L 68.84375 51.1875 C 68.84375 50.106713 70.751698 49.25 73.09375 49.25 z "
       id="path2993"
       transform="translate(249.08376,348.10342)" />
  </g>
</svg>
