<?xml version="1.0" encoding="UTF-8" standalone="no"?>
<!-- Created with Inkscape (http://www.inkscape.org/) -->

<svg
   xmlns:dc="http://purl.org/dc/elements/1.1/"
   xmlns:cc="http://creativecommons.org/ns#"
   xmlns:rdf="http://www.w3.org/1999/02/22-rdf-syntax-ns#"
   xmlns:svg="http://www.w3.org/2000/svg"
   xmlns="http://www.w3.org/2000/svg"
   xmlns:sodipodi="http://sodipodi.sourceforge.net/DTD/sodipodi-0.dtd"
   xmlns:inkscape="http://www.inkscape.org/namespaces/inkscape"
   width="163"
   height="162"
   id="svg2"
   version="1.1"
   inkscape:version="0.48.2 r9819"
   sodipodi:docname="three.svg">
  <defs
     id="defs4" />
  <sodipodi:namedview
     id="base"
     pagecolor="#ffffff"
     bordercolor="#666666"
     borderopacity="1.0"
     inkscape:pageopacity="0.0"
     inkscape:pageshadow="2"
     inkscape:zoom="1"
     inkscape:cx="-170.23904"
     inkscape:cy="40"
     inkscape:document-units="px"
     inkscape:current-layer="layer1"
     showgrid="false"
     inkscape:window-width="1280"
     inkscape:window-height="737"
     inkscape:window-x="-8"
     inkscape:window-y="-8"
     inkscape:window-maximized="1"
     fit-margin-top="0"
     fit-margin-left="0"
     fit-margin-right="0"
     fit-margin-bottom="0" />
  <metadata
     id="metadata7">
    <rdf:RDF>
      <cc:Work
         rdf:about="">
        <dc:format>image/svg+xml</dc:format>
        <dc:type
           rdf:resource="http://purl.org/dc/dcmitype/StillImage" />
        <dc:title />
      </cc:Work>
    </rdf:RDF>
  </metadata>
  <g
     inkscape:label="Calque 1"
     inkscape:groupmode="layer"
     id="layer1"
     transform="translate(-211,-410.36218)">
    <path
       sodipodi:type="arc"
       style="fill:#ffffff;stroke:#ff00ff;stroke-width:14;stroke-miterlimit:4;stroke-opacity:1;stroke-dasharray:none"
       id="path2985"
       sodipodi:cx="292.5"
       sodipodi:cy="491.36218"
       sodipodi:rx="74.5"
       sodipodi:ry="74"
       d="m 367,491.36218 c 0,40.86907 -33.35479,74 -74.5,74 -41.14521,0 -74.5,-33.13093 -74.5,-74 0,-40.86907 33.35479,-74 74.5,-74 41.14521,0 74.5,33.13093 74.5,74 z" />
    <path
       style="fill:#ff00ff;fill-opacity:1"
       d="m 320.02341,501.50582 c -1.34662,-0.68061 -1.72524,-1.14531 -1.8495,-2.27008 -0.16688,-1.51035 1.36473,-3.92857 3.3403,-5.27396 0.93473,-0.63655 1.01177,-0.97967 0.73079,-3.25469 -0.26427,-2.13971 -0.15082,-2.77882 0.71515,-4.02903 l 1.02922,-1.48592 -1.23805,-0.87523 c -0.68092,-0.48137 -1.90844,-1.63684 -2.72782,-2.56772 -3.06929,-3.48694 -0.89373,-6.38701 4.79138,-6.38701 1.91373,0 2.96293,0.2149 3.97551,0.81426 1.59554,0.94443 3.21696,3.41018 3.23276,4.91614 0.0144,1.37587 1.28391,1.71519 2.56018,0.68433 1.1397,-0.92055 2.05402,-0.71272 1.83496,0.41709 -0.0816,0.42102 0.23392,0.94885 0.70124,1.17295 0.66902,0.32083 1.09965,0.23073 2.02542,-0.42373 1.22367,-0.86506 2.85565,-1.11709 2.85565,-0.44101 0,0.2146 -0.46382,0.86226 -1.03071,1.43926 l -1.03071,1.04907 1.09085,1.57488 c 1.57996,2.28101 1.20623,5.1403 -0.93383,7.14423 -1.2713,1.19044 -1.51452,1.69432 -1.26713,2.62515 0.23421,0.88119 0.12837,1.15192 -0.45031,1.15192 -0.41605,0 -0.88553,-0.25313 -1.04329,-0.56249 -0.15777,-0.30937 -0.85449,-0.56249 -1.54829,-0.56249 -1.10944,0 -1.26145,0.15816 -1.26145,1.31247 0,1.51282 -1.01481,1.76762 -2.15619,0.54139 -0.69141,-0.74282 -0.75885,-0.70712 -1.84042,0.97412 -0.62343,0.9691 -1.81268,2.06182 -2.67423,2.45715 -2.19033,1.00506 -5.68848,0.94205 -7.83148,-0.14105 z m 7.22612,-1.44508 c 1.74072,-0.59684 2.79127,-2.83868 2.79127,-5.95654 0,-2.31658 -0.10823,-2.61736 -0.94183,-2.61736 -0.518,0 -2.28055,0.7416 -3.91675,1.648 -4.65824,2.5805 -6.38792,6.08417 -3.44454,6.97734 1.54139,0.46773 4.06636,0.44417 5.51185,-0.0515 z m 9.4725,-7.64129 c -0.1773,-0.53159 -0.0542,-1.17824 0.28257,-1.48354 0.87186,-0.79052 0.18895,-1.42138 -1.01414,-0.93686 -1.09485,0.44093 -1.31719,2.19881 -0.36842,2.91276 0.96826,0.72862 1.43722,0.51872 1.09999,-0.49236 z m 0.13364,-4.58878 c -0.0103,-0.56718 0.15803,-1.32654 0.37399,-1.68747 0.46307,-0.77394 -0.66149,-0.91822 -1.60762,-0.20624 -0.63955,0.48127 -0.81634,2.26064 -0.26578,2.67494 0.76241,0.57372 1.51679,0.18067 1.49941,-0.78123 z m -6.31654,-4.21108 c 0,-2.87579 -1.07125,-5.43543 -2.5188,-6.01839 -1.63649,-0.65907 -5.35824,-0.43642 -6.45106,0.38593 -1.18222,0.88962 -1.21014,1.13953 -0.30882,2.76283 0.82479,1.48544 3.88011,3.79709 6.28872,4.75801 2.82086,1.1254 2.98996,1.01861 2.98996,-1.88838 z"
       id="path3009"
       inkscape:connector-curvature="0" />
    <path
       style="fill:#ff00ff;stroke:#ff00ff;stroke-width:0.56857431"
       d="m 248.6459,516.38082 c -0.19962,-0.21916 -0.36294,-2.65903 -0.36294,-5.42194 0,-5.11757 0.98651,-8.84308 2.51181,-9.48568 0.54976,-0.23161 0.44109,-0.86677 -0.47481,-2.77509 -1.73495,-3.61486 -1.69406,-11.9271 0.0802,-16.30986 l 1.25969,-3.11163 -1.39628,-1.82179 c -2.18352,-2.84893 -3.19068,-8.82024 -2.1835,-12.94561 l 0.32494,-1.33096 1.36874,1.18202 c 1.49908,1.29458 2.93617,1.49234 4.43688,0.61058 0.77236,-0.45381 1.09462,-0.27742 1.56536,0.85686 1.0255,2.47101 2.1356,2.64482 7.42954,1.1633 2.68607,-0.7517 5.81159,-1.38517 6.94561,-1.40772 2.50402,-0.0498 5.06339,1.30604 5.53321,2.93122 0.52219,1.8063 1.23052,1.48316 3.90342,-1.78071 1.34167,-1.63831 2.72952,-2.97874 3.08411,-2.97874 0.35458,0 0.91706,0.79216 1.24993,1.76036 0.3784,1.10061 1.12575,1.90379 1.99409,2.14305 1.19185,0.32841 1.34468,0.62518 1.07745,2.0921 -0.27984,1.53615 0.16094,2.20958 4.34884,6.64424 5.57185,5.90014 6.83457,8.54003 6.85168,14.32436 0.0169,5.7304 -1.27289,8.35463 -6.93226,14.10386 l -4.65462,4.72854 0.57214,2.04668 c 0.51909,1.85686 0.4786,2.01983 -0.43652,1.7571 -0.6638,-0.19057 -1.59107,0.39489 -2.71205,1.71235 l -1.70338,2.00193 -2.55394,-3.13053 -2.55395,-3.13054 -1.96056,2.09043 c -1.86284,1.98624 -2.15003,2.09044 -5.76126,2.09044 -2.65487,0 -4.88382,-0.43163 -7.39345,-1.43173 l -3.59275,-1.43174 -1.72266,1.65347 c -1.34874,1.29455 -1.98783,1.54479 -2.94421,1.15281 -1.33559,-0.5474 -2.64866,-0.20319 -3.97757,1.04266 -0.4719,0.44241 -1.02133,0.62506 -1.22094,0.40591 z m 34.32219,-8.04139 c 6.51549,-2.43703 11.91729,-7.85223 13.39332,-13.42653 2.39665,-9.05102 -3.95167,-18.52858 -14.89893,-22.24298 -4.59447,-1.5589 -5.03183,-1.49733 -6.45099,0.90811 -1.4914,2.52787 -5.6898,5.26844 -10.6353,6.94233 -2.8867,0.97704 -4.62215,1.19272 -7.79734,0.969 l -4.08423,-0.28776 -1.12943,2.74489 c -1.43801,3.49483 -1.51963,10.5867 -0.16054,13.94839 0.79107,1.95669 1.08114,2.2015 2.11765,1.78724 0.66056,-0.26401 3.15452,-0.47905 5.54213,-0.47787 3.90656,0.002 4.7752,0.22946 8.67741,2.27291 5.36685,2.81042 7.51716,4.57736 8.39183,6.89567 0.76786,2.03521 1.51337,2.03166 7.03442,-0.0334 z m 2.39175,-4.53198 c -0.64857,-0.11445 -1.80846,-0.89893 -2.57754,-1.74328 -3.14893,-3.45711 -0.72928,-9.71318 3.75676,-9.71318 2.60486,0 5.15507,2.64441 5.15507,5.3455 0,1.50898 -1.28134,5.37798 -1.78109,5.37798 -0.0689,0 -0.85626,0.21174 -1.74965,0.47054 -0.89338,0.2588 -2.15498,0.3769 -2.80355,0.26244 z m 3.32047,-1.10095 c 0.48037,-0.20238 1.09628,-0.82514 1.36867,-1.38392 0.39845,-0.81738 0.26292,-1.00746 -0.69338,-0.97247 -0.91161,0.0334 -1.22938,-0.34672 -1.3635,-1.63084 -0.20731,-1.985 0.82524,-3.58593 1.99497,-3.09313 0.62959,0.26524 0.58794,0.0542 -0.17104,-0.86652 -1.37248,-1.66499 -2.38106,-1.52646 -3.06624,0.42118 -0.73255,2.08229 -0.0978,7.89367 0.86219,7.89367 0.1072,0 0.58795,-0.16558 1.06833,-0.36797 z m -5.8915,-14.57145 c -1.96554,-2.56454 -1.89769,-5.46234 0.18135,-7.74485 1.17432,-1.28927 2.10098,-1.74142 3.5689,-1.74142 2.75702,0 5.15507,2.63275 5.15507,5.65961 0,5.13318 -5.94577,7.68811 -8.90532,3.82666 z m 5.8915,0.86924 c 0.48037,-0.20238 1.09628,-0.82515 1.36867,-1.38393 0.39845,-0.81738 0.26292,-1.00746 -0.69338,-0.97247 -0.91161,0.0334 -1.22938,-0.34672 -1.3635,-1.63084 -0.20914,-2.00247 0.82685,-3.58214 2.02539,-3.08829 0.58002,0.23898 0.47743,-0.0721 -0.31307,-0.94929 -0.66817,-0.74148 -1.53372,-1.15393 -2.00496,-0.95541 -1.18234,0.49812 -1.68681,4.27696 -0.93752,7.02266 0.6908,2.5313 0.65156,2.49126 1.91837,1.95757 z m -15.85158,17.04906 c -1.2732,-1.24523 -3.95926,-2.99024 -5.96904,-3.8778 -3.63569,-1.60558 -9.35186,-2.86029 -9.35186,-2.05274 0,0.55735 17.01237,8.87657 17.36447,8.4914 0.14923,-0.16324 -0.77038,-1.31562 -2.04357,-2.56086 z m -5.99347,-27.37172 c 2.18198,-1.00053 4.69981,-2.4917 5.59516,-3.31372 l 1.62792,-1.49456 -2.98452,1.18382 c -1.64148,0.6511 -5.42639,2.26963 -8.41091,3.59675 -5.37005,2.38789 -5.39716,2.41001 -2.61065,2.1299 1.54866,-0.15568 4.60101,-1.10166 6.783,-2.10219 z m -10.536,-10.84208 c -0.82566,-0.90942 -1.7447,-1.32972 -2.61027,-1.19374 -1.20511,0.18931 -1.09681,0.34421 1.1058,1.58179 1.34294,0.75455 2.51757,1.29174 2.61027,1.19374 0.0927,-0.098 -0.40491,-0.8098 -1.1058,-1.58179 z"
       id="path3798"
       inkscape:connector-curvature="0" />
  </g>
</svg>
