<?xml version="1.0" encoding="UTF-8" standalone="no"?>
<!-- Created with Inkscape (http://www.inkscape.org/) -->

<svg
   xmlns:dc="http://purl.org/dc/elements/1.1/"
   xmlns:cc="http://creativecommons.org/ns#"
   xmlns:rdf="http://www.w3.org/1999/02/22-rdf-syntax-ns#"
   xmlns:svg="http://www.w3.org/2000/svg"
   xmlns="http://www.w3.org/2000/svg"
   xmlns:sodipodi="http://sodipodi.sourceforge.net/DTD/sodipodi-0.dtd"
   xmlns:inkscape="http://www.inkscape.org/namespaces/inkscape"
   width="163"
   height="162"
   id="svg2"
   version="1.1"
   inkscape:version="0.48.2 r9819"
   sodipodi:docname="two.svg">
  <defs
     id="defs4" />
  <sodipodi:namedview
     id="base"
     pagecolor="#ffffff"
     bordercolor="#666666"
     borderopacity="1.0"
     inkscape:pageopacity="0.0"
     inkscape:pageshadow="2"
     inkscape:zoom="2"
     inkscape:cx="11.5"
     inkscape:cy="62.513673"
     inkscape:document-units="px"
     inkscape:current-layer="layer1"
     showgrid="false"
     inkscape:window-width="1280"
     inkscape:window-height="737"
     inkscape:window-x="-8"
     inkscape:window-y="-8"
     inkscape:window-maximized="1"
     fit-margin-top="0"
     fit-margin-left="0"
     fit-margin-right="0"
     fit-margin-bottom="0" />
  <metadata
     id="metadata7">
    <rdf:RDF>
      <cc:Work
         rdf:about="">
        <dc:format>image/svg+xml</dc:format>
        <dc:type
           rdf:resource="http://purl.org/dc/dcmitype/StillImage" />
        <dc:title />
      </cc:Work>
    </rdf:RDF>
  </metadata>
  <g
     inkscape:label="Calque 1"
     inkscape:groupmode="layer"
     id="layer1"
     transform="translate(-211,-410.36218)">
    <path
       sodipodi:type="arc"
       style="fill:#ffffff;stroke:#ff0000;stroke-width:14;stroke-miterlimit:4;stroke-opacity:1;stroke-dasharray:none"
       id="path2985"
       sodipodi:cx="292.5"
       sodipodi:cy="491.36218"
       sodipodi:rx="74.5"
       sodipodi:ry="74"
       d="m 367,491.36218 c 0,40.86907 -33.35479,74 -74.5,74 -41.14521,0 -74.5,-33.13093 -74.5,-74 0,-40.86907 33.35479,-74 74.5,-74 41.14521,0 74.5,33.13093 74.5,74 z" />
    <rect
       style="fill:#ff0000;fill-opacity:1;stroke:#ff0000;stroke-width:1.37227559;stroke-miterlimit:4;stroke-opacity:1;stroke-dasharray:none"
       id="rect2987"
       width="28.627724"
       height="27.627724"
       x="279.68613"
       y="474.54834" />
    <rect
       style="fill:#ff0000;fill-opacity:1;stroke:#ff0000;stroke-width:1.37227559;stroke-miterlimit:4;stroke-opacity:1;stroke-dasharray:none"
       id="rect2987-1"
       width="28.627724"
       height="27.627724"
       x="318.18613"
       y="474.54834" />
    <rect
       style="fill:#ff0000;fill-opacity:1;stroke:#ff0000;stroke-width:1.37227559;stroke-miterlimit:4;stroke-opacity:1;stroke-dasharray:none"
       id="rect2987-7"
       width="28.627724"
       height="27.627724"
       x="241.18614"
       y="474.54834" />
    <path
       style="fill:#ff0000;fill-opacity:1;stroke:#ff0000;stroke-width:1;stroke-miterlimit:4;stroke-opacity:1;stroke-dasharray:none;stroke-dashoffset:0"
       d="m 274.5,454.36218 c -4.51639,0 -8.62454,1.58915 -11.78125,4.1875 l -4.09375,-3.0625 -1.75,14.75 13.625,-5.875 -3.46875,-2.59375 c 2.10861,-1.51743 4.68495,-2.40625 7.46875,-2.40625 5.35013,0 9.94293,3.29319 11.9375,8 l 5.53125,0 c -1.90399,-7.45957 -8.9858,-13 -17.46875,-13 z"
       id="path3017"
       inkscape:connector-curvature="0" />
    <path
       style="fill:#ff0000;fill-opacity:1;stroke:#ff0000;stroke-width:1.19693005;stroke-miterlimit:4;stroke-opacity:1;stroke-dasharray:none;stroke-dashoffset:0"
       d="m 334.28125,506.64343 -15.5625,3.4375 3.5,3.8125 c -5.66917,3.92396 -14.73039,6.46875 -24.96875,6.46875 -11.9147,0 -22.27225,-3.44292 -27.5,-8.5 l -7.03125,0 c 2.14595,7.61956 16.40877,13.5 33.71875,13.5 12.48982,0 23.342,-3.08899 29.25,-7.65625 l 3.8125,4.15625 4.78125,-15.21875 z"
       id="path3875"
       inkscape:connector-curvature="0" />
  </g>
</svg>
