<?xml version="1.0" encoding="UTF-8"?>
<!DOCTYPE svg PUBLIC "-//W3C//DTD SVG 1.1//EN" "http://www.w3.org/Graphics/SVG/1.1/DTD/svg11.dtd" [
  <!ENTITY fill_color "#FFFFFF">
  <!ENTITY stroke_color "#010101">
]>
<svg
   xmlns="http://www.w3.org/2000/svg"
   version="1.1"
   width="55"
   height="55"
   viewBox="0 0 55 55"
   id="svg2"
   xml:space="preserve"><rect
     width="43.137856"
     height="25.708422"
     ry="2.1786797"
     x="5.9310713"
     y="24.092134"
     id="rect3050"
     style="fill:&fill_color;;stroke:&stroke_color;;stroke-width:2.1786797" /><path
     d="m 11.37777,44.353856 0,-14.815022 4.357359,0 4.35736,5.446699 4.357359,-5.446699 4.35736,0 0,14.815022 -4.35736,0 0,-8.496851 -4.357359,5.446699 -4.35736,-5.446699 0,8.496851 z"
     id="path3052"
     style="fill:&stroke_color;" /><path
     d="m 38.611266,44.353856 -6.536038,-7.189643 4.357359,0 0,-7.625379 4.357359,0 0,7.625379 4.35736,0 z"
     id="path3054"
     style="fill:&stroke_color;" /><path
     d="m 41.744073,7.7892986 -13.337479,10.3972884 -2.720065,2.084006 -5.49599,7.084947 c -0.07135,0.08855 -0.0751,0.210742 -0.0097,0.302806 0.06733,0.09258 0.182069,0.135749 0.291363,0.09878 l 8.863007,-2.83985 c 0.0127,-0.0049 0.01761,-0.02323 0.03238,-0.03584 0.07547,-0.03051 0.160973,-0.05211 0.231251,-0.105752 0.0034,-0.0012 0.04345,-0.0308 0.04552,-0.03853 l 2.356388,-1.71972 7.108358,-5.398159 10.411374,-7.9036478 c 0.0272,-0.01652 0.196463,-0.1575196 0.196463,-0.1575196 0.134399,-0.1306673 0.23225,-0.2949399 0.286861,-0.4987505 0.01579,-0.05892 0.03054,-0.1139803 0.03396,-0.1731096 0.113443,-0.7595199 -0.255304,-1.8097441 -0.958622,-2.7549847 -0.70313,-0.942084 -1.611255,-1.5943494 -2.367427,-1.7048257 -0.325762,-0.043806 -0.859173,0.158014 -0.859173,0.158014 l -4.108469,3.2048525 z"
     id="path11"
     style="fill:&fill_color;;stroke:&stroke_color;;stroke-width:3.5" /></svg>
