<?xml version="1.0" encoding="utf-8"?>
<!-- Generator: Adobe Illustrator 13.0.0, SVG Export Plug-In . SVG Version: 6.00 Build 14948)  -->
<!DOCTYPE svg PUBLIC "-//W3C//DTD SVG 1.1//EN" "http://www.w3.org/Graphics/SVG/1.1/DTD/svg11.dtd">
<svg version="1.1" xmlns="http://www.w3.org/2000/svg" xmlns:xlink="http://www.w3.org/1999/xlink" x="0px" y="0px" width="55px"
	 height="55px" viewBox="0 0 55 55" enable-background="new 0 0 55 55" xml:space="preserve">

<g id="Bold" >
	<g display="inline">
		<path fill="#FFFFFF" d="M34.854,26.895c1.614,0.469,2.864,1.335,3.75,2.598c0.885,1.264,1.328,2.812,1.328,4.648
			c0,2.812-0.951,4.909-2.852,6.289c-1.901,1.381-4.792,2.07-8.672,2.07h-12.48V13.34h11.289c4.049,0,6.982,0.612,8.799,1.836
			c1.816,1.224,2.725,3.184,2.725,5.879c0,1.419-0.332,2.627-0.996,3.623S36.116,26.413,34.854,26.895z M27.607,24.629
			c1.185,0,2.083-0.26,2.695-0.781c0.611-0.521,0.918-1.289,0.918-2.305c0-1.002-0.307-1.768-0.918-2.295
			c-0.612-0.527-1.511-0.791-2.695-0.791h-4.16v6.172H27.607z M27.861,37.383c1.51,0,2.646-0.318,3.408-0.957
			c0.762-0.638,1.143-1.602,1.143-2.891c0-1.263-0.378-2.21-1.133-2.842c-0.756-0.631-1.895-0.947-3.418-0.947h-4.414v7.637H27.861z
			"/>
	</g>
</g>

</svg>
