<?xml version="1.0" ?><!DOCTYPE svg  PUBLIC '-//W3C//DTD SVG 1.1//EN'  'http://www.w3.org/Graphics/SVG/1.1/DTD/svg11.dtd' [
	<!ENTITY stroke_color "#010101">
	<!ENTITY fill_color "#FFFFFF">
]><svg enable-background="new 0 0 55.125 55" height="55px" version="1.1" viewBox="0 0 55.125 55" width="55.125px" x="0px" xml:space="preserve" xmlns="http://www.w3.org/2000/svg" xmlns:xlink="http://www.w3.org/1999/xlink" y="0px"><g display="block" id="list-add">
	<path d="M43.467,11.644c-8.789-8.79-23.035-8.786-31.818-0.002   c-8.791,8.791-8.792,23.033-0.002,31.823c8.79,8.789,23.031,8.788,31.822-0.003C52.252,34.678,52.257,20.433,43.467,11.644z    M30.768,38.767c-0.002,1.774-1.438,3.216-3.214,3.214c-0.889,0.001-1.693-0.359-2.275-0.941c-0.582-0.581-0.94-1.385-0.94-2.27   l0-8.146h-8.146c-0.886-0.001-1.689-0.359-2.271-0.94c-0.582-0.583-0.942-1.388-0.942-2.276c0-1.773,1.439-3.213,3.217-3.211h8.143   v-8.143c-0.003-1.776,1.438-3.217,3.212-3.217c1.774,0,3.218,1.438,3.215,3.215l0.001,8.145l8.146,0.001   c1.775-0.005,3.212,1.438,3.213,3.213c0.002,1.775-1.441,3.214-3.215,3.215h-8.143V38.767z" display="inline" fill="&fill_color;"/>
</g></svg>