<?xml version="1.0" encoding="UTF-8" standalone="no"?>
<!-- Created with Inkscape (http://www.inkscape.org/) -->

<svg
   xmlns:dc="http://purl.org/dc/elements/1.1/"
   xmlns:cc="http://creativecommons.org/ns#"
   xmlns:rdf="http://www.w3.org/1999/02/22-rdf-syntax-ns#"
   xmlns:svg="http://www.w3.org/2000/svg"
   xmlns="http://www.w3.org/2000/svg"
   xmlns:sodipodi="http://sodipodi.sourceforge.net/DTD/sodipodi-0.dtd"
   xmlns:inkscape="http://www.inkscape.org/namespaces/inkscape"
   version="1.1"
   width="55"
   height="55"
   viewBox="0 0 55 55"
   id="svg2"
   xml:space="preserve"
   inkscape:version="0.92.3 (2405546, 2018-03-11)"
   sodipodi:docname="save-video.svg"><sodipodi:namedview
     pagecolor="#ffffff"
     bordercolor="#666666"
     borderopacity="1"
     objecttolerance="10"
     gridtolerance="10"
     guidetolerance="10"
     inkscape:pageopacity="0"
     inkscape:pageshadow="2"
     inkscape:window-width="1269"
     inkscape:window-height="765"
     id="namedview27"
     showgrid="false"
     inkscape:zoom="7.5081884"
     inkscape:cx="16.976727"
     inkscape:cy="33.05987"
     inkscape:window-x="67"
     inkscape:window-y="27"
     inkscape:window-maximized="0"
     inkscape:current-layer="svg2" /><metadata
     id="metadata25"><rdf:RDF><cc:Work
         rdf:about=""><dc:format>image/svg+xml</dc:format><dc:type
           rdf:resource="http://purl.org/dc/dcmitype/StillImage" /><dc:title /></cc:Work></rdf:RDF></metadata><defs
     id="defs33" /><g
     transform="matrix(0.55205508,0,0,0.55205508,44.618464,18.235971)"
     id="g4382"><g
       transform="translate(-80.093659,12.220029)"
       id="g4308"
       style="fill:none;stroke:#ffffff;stroke-opacity:1"><g
         id="g4310"
         style="fill:none;stroke:#ffffff;stroke-opacity:1"><path
           d="m 6.736,49.002 h 24.52 c 2.225,0 3.439,-1.447 3.439,-3.441 v -27.28 c 0,-1.73 -1.732,-3.441 -3.439,-3.441 h -4.389"
           id="path4312"
           style="fill:none;stroke:#ffffff;stroke-width:3.5;stroke-linecap:round;stroke-linejoin:round;stroke-opacity:1" /></g></g><g
       transform="translate(-80.093659,12.220029)"
       id="g4314"
       style="fill:none;stroke:#ffffff;stroke-opacity:1"><g
         id="g4316"
         style="fill:none;stroke:#ffffff;stroke-opacity:1"><path
           d="m 26.867,38.592 c 0,1.836 -1.345,3.201 -3.441,4.047 L 6.736,49.002 V 14.84 l 16.69,-8.599 c 2.228,-0.394 3.441,0.84 3.441,2.834 v 29.517 z"
           id="path4318"
           style="fill:none;stroke:#ffffff;stroke-width:3.5;stroke-linecap:round;stroke-linejoin:round;stroke-opacity:1" /></g></g><path
       d="m -70.669659,54.827029 c 0,0 -1.351,-0.543 -2.702,-0.543 -1.351,0 -2.703,0.543 -2.703,0.543"
       id="path4320"
       style="fill:none;stroke:#ffffff;stroke-width:2.25;stroke-linecap:round;stroke-linejoin:round;stroke-opacity:1" /><path
       d="m -70.669659,44.226029 c 0,0 -1.239,-0.543 -2.815,-0.543 -1.577,0 -2.59,0.543 -2.59,0.543"
       id="path4322"
       style="fill:none;stroke:#ffffff;stroke-width:2.25;stroke-linecap:round;stroke-linejoin:round;stroke-opacity:1" /><path
       d="m -70.669659,33.898029 c 0,0 -1.125,-0.544 -2.927,-0.544 -1.802,0 -2.478,0.544 -2.478,0.544"
       id="path4324"
       style="fill:none;stroke:#ffffff;stroke-width:2.25;stroke-linecap:round;stroke-linejoin:round;stroke-opacity:1" /><line
       style="fill:none;stroke:#ffffff;stroke-width:2.25;stroke-linecap:round;stroke-linejoin:round;stroke-opacity:1"
       x1="-66.884659"
       x2="-66.884659"
       y1="58.753029"
       y2="23.725029"
       id="line4326" /></g><g
     transform="matrix(1.1623273,0,0,1.1623273,1.5747266,-12.63995)"
     id="g3882"
     style="fill:none;stroke:#ffffff;stroke-width:2.15085721;stroke-miterlimit:4;stroke-opacity:1;stroke-dasharray:none;display:inline"><g
       id="g3884"
       style="fill:none;stroke:#ffffff;stroke-width:2.15085721;stroke-miterlimit:4;stroke-opacity:1;stroke-dasharray:none"><polygon
         points="15.204,35.189 43.041,35.189 43.041,21.577 35.281,13.812 15.204,13.812 "
         id="polygon3886"
         style="fill:none;stroke:#ffffff;stroke-width:2.15085721;stroke-miterlimit:4;stroke-opacity:1;stroke-dasharray:none" /><polyline
         id="polyline3888"
         points="35.281,13.812 35.281,21.577 43.041,21.577    "
         style="fill:none;stroke:#ffffff;stroke-width:2.15085721;stroke-miterlimit:4;stroke-opacity:1;stroke-dasharray:none" /></g></g><g
     transform="matrix(0,1,1,0,5.8287336,-30.080438)"
     id="g4770"><g
       transform="translate(34.0803,-1006.42)"
       id="g4772"><polyline
         transform="matrix(-0.469241,0.469241,-0.469241,-0.469241,66.2906,1019.03)"
         style="fill:none;stroke:#ffffff;stroke-width:3.5;stroke-linecap:round;stroke-linejoin:round"
         points="51.562,15.306 41.17,16.188 42.053,5.794"
         id="polyline4774" /><path
         d="m 39.363241,1033.1291 -0.05636,9.9115 -8.750608,0.067"
         id="path4776"
         style="fill:none;stroke:#ffffff;stroke-width:2.5;stroke-linecap:round;stroke-linejoin:round;stroke-miterlimit:4;stroke-opacity:1;stroke-dasharray:none" /></g></g><g
     id="g917"
     transform="matrix(0.1375,0,0,0.1375,23.577966,8.042373)"><path
       inkscape:connector-curvature="0"
       id="path4156"
       d="M 9.6610169,48.305085 66.101695,48.813559 90.508475,40.677966 90,91.525424 67.118644,83.898305 6.6101695,84.915254 7.6271186,49.830508"
       style="fill:none;fill-rule:evenodd;stroke:#ffffff;stroke-width:1px;stroke-linecap:butt;stroke-linejoin:miter;stroke-opacity:1" /><path
       style="fill:#ffffff;stroke:#ffffff"
       inkscape:connector-curvature="0"
       id="path6"
       d="m 90.5,94 c -0.212,0 -0.42,-0.036 -0.632,-0.1 l -24,-8 C 65.056,85.636 64.5,84.86 64.5,84 V 48 c 0,-0.86 0.556,-1.624 1.368,-1.9 l 24,-8 c 0.612,-0.204 1.276,-0.092 1.8,0.268 0.524,0.38 0.832,0.976 0.832,1.612 v 52 c 0,0.648 -0.308,1.252 -0.832,1.62 C 91.324,93.872 90.916,94 90.5,94 Z m -22,-11.436 20,6.664 V 42.78 l -20,6.668 z" /><path
       style="fill:#ffffff;stroke:#ffffff"
       inkscape:connector-curvature="0"
       id="path8"
       d="m 21.5,48 c -9.92,0 -18,-8.08 -18,-18 0,-9.92 8.08,-18 18,-18 9.92,0 18,8.08 18,18 0,9.92 -8.08,18 -18,18 z m 0,-32 c -7.72,0 -14,6.28 -14,14 0,7.72 6.28,14 14,14 7.72,0 14,-6.28 14,-14 0,-7.72 -6.28,-14 -14,-14 z" /><path
       style="fill:#ffffff;stroke:#ffffff"
       inkscape:connector-curvature="0"
       id="path10"
       d="m 53.5,48 c -9.92,0 -18,-8.08 -18,-18 0,-9.92 8.08,-18 18,-18 9.92,0 18,8.08 18,18 0,9.92 -8.08,18 -18,18 z m 0,-32 c -7.72,0 -14,6.28 -14,14 0,7.72 6.28,14 14,14 7.72,0 14,-6.28 14,-14 0,-7.72 -6.28,-14 -14,-14 z" /><path
       style="fill:#ffffff;stroke:#ffffff"
       inkscape:connector-curvature="0"
       id="path12"
       d="m 8.252,108 c -0.584,0 -1.18,-0.264 -1.58,-0.764 -0.68,-0.88 -0.524,-2.132 0.348,-2.812 l 28.252,-22 c 0.872,-0.68 2.124,-0.524 2.804,0.352 0.68,0.876 0.524,2.124 -0.344,2.804 l -28.252,22 C 9.108,107.864 8.68,108 8.252,108 Z" /><path
       style="fill:#ffffff;stroke:#ffffff"
       inkscape:connector-curvature="0"
       id="path14"
       d="m 68.752,108 c -0.42,0 -0.86,-0.136 -1.232,-0.42 l -28.252,-22 C 38.4,84.9 38.244,83.656 38.924,82.776 c 0.68,-0.876 1.924,-1.032 2.804,-0.352 l 28.252,22 c 0.872,0.68 1.028,1.932 0.348,2.812 -0.4,0.5 -0.984,0.764 -1.576,0.764 z" /><path
       style="fill:#ffffff;stroke:#ffffff"
       inkscape:connector-curvature="0"
       id="path16"
       d="m 38.5,108 c -1.1,0 -2,-0.9 -2,-2 V 86 c 0,-1.1 0.9,-2 2,-2 1.1,0 2,0.9 2,2 v 20 c 0,1.1 -0.9,2 -2,2 z" /><path
       style="fill:#ffffff;stroke:#ffffff"
       inkscape:connector-curvature="0"
       id="path4"
       d="m 66.5,86 h -60 c -1.1,0 -2,-0.9 -2,-2 V 48 c 0,-1.1 0.9,-2 2,-2 h 60 c 1.1,0 2,0.9 2,2 v 36 c 0,1.1 -0.9,2 -2,2 z m -58,-4 h 56 V 50 h -56 z" /><ellipse
       ry="13.79724"
       rx="14.543037"
       cy="29.54752"
       cx="53.752098"
       id="path4158"
       style="fill:none;fill-opacity:1;stroke:#ffffff;stroke-width:1.03713727;stroke-opacity:1" /><ellipse
       ry="13.79724"
       rx="14.543037"
       cy="29.394453"
       cx="21.572748"
       id="path4158-6"
       style="fill:none;fill-opacity:1;stroke:#ffffff;stroke-width:1.03713727;stroke-opacity:1" /></g></svg>