<?xml version="1.0" ?><!DOCTYPE svg  PUBLIC '-//W3C//DTD SVG 1.1//EN'  'http://www.w3.org/Graphics/SVG/1.1/DTD/svg11.dtd' [
<!ENTITY stroke_color "#000000">
<!ENTITY fill_color "#ffffff">
]>
<svg
   xmlns:sketch="http://www.bohemiancoding.com/sketch/ns"
   xmlns:dc="http://purl.org/dc/elements/1.1/"
   xmlns:cc="http://creativecommons.org/ns#"
   xmlns:rdf="http://www.w3.org/1999/02/22-rdf-syntax-ns#"
   xmlns:svg="http://www.w3.org/2000/svg"
   xmlns="http://www.w3.org/2000/svg"
   xmlns:sodipodi="http://sodipodi.sourceforge.net/DTD/sodipodi-0.dtd"
   xmlns:inkscape="http://www.inkscape.org/namespaces/inkscape"
   viewBox="0 0 45 45"
   version="1.1"
   x="0px"
   y="0px"
   id="svg2"
   inkscape:version="0.91 r13725"
   sodipodi:docname="flower.svg"
   width="42"
   height="52.5">
  <metadata
     id="metadata18">
    <rdf:RDF>
      <cc:Work
         rdf:about="">
        <dc:format>image/svg+xml</dc:format>
        <dc:type
           rdf:resource="http://purl.org/dc/dcmitype/StillImage" />
      </cc:Work>
    </rdf:RDF>
  </metadata>
  <defs
     id="defs16" />
  <sodipodi:namedview
     pagecolor="#ffffff"
     bordercolor="#666666"
     borderopacity="1"
     objecttolerance="10"
     gridtolerance="10"
     guidetolerance="10"
     inkscape:pageopacity="0"
     inkscape:pageshadow="2"
     inkscape:window-width="1396"
     inkscape:window-height="1011"
     id="namedview14"
     showgrid="false"
     inkscape:zoom="8.9904762"
     inkscape:cx="15.021351"
     inkscape:cy="23.682556"
     inkscape:window-x="280"
     inkscape:window-y="18"
     inkscape:window-maximized="0"
     inkscape:current-layer="svg2" />
  <g
     sketch:type="MSPage"
     id="g6"
     style="fill:&fill_color;;fill-opacity:1;fill-rule:evenodd;stroke:&stroke_color;;stroke-width:1"
     transform="translate(1.5492585,0.47669491)">
    <rect
       style="fill:#&fill_color;;fill-opacity:1;stroke:#&fill_color;;stroke-width:0.95386684;stroke-opacity:1"
       id="rect4146"
       width="22.84804"
       height="23.515413"
       x="9.6538401"
       y="8.7417631" />
    <path
       d="M 17.907591,13.590863 C 15.784059,8.1158877 13.843212,4.1137767e-6 21,0 28.15679,-4.071713e-6 26.215941,8.1158848 24.092408,13.590863 26.451833,8.2066871 30.841274,0.97394692 35.933667,6.0663333 41.02606,11.15872 33.793315,15.548164 28.409138,17.907591 l 0,0 C 33.884112,15.784058 41.999996,13.843211 42,21 c 4e-6,7.15679 -8.115885,5.215941 -13.590862,3.092408 5.384175,2.359426 12.616915,6.748866 7.524529,11.841259 -5.092387,5.092393 -9.481831,-2.140352 -11.841258,-7.52453 l 0,0 C 26.215941,33.884112 28.156788,41.999996 21,42 c -7.15679,4e-6 -5.215941,-8.115885 -3.092408,-13.590863 -2.359425,5.384176 -6.748867,12.616916 -11.841259,7.52453 -5.09239248,-5.092387 2.1403519,-9.481831 7.524529,-11.841258 l 0,0 C 8.1158876,26.215942 4.2e-6,28.156789 0,21 -4.032e-6,13.84321 8.1158851,15.784059 13.590862,17.907592 8.2066874,15.548166 0.97394724,11.158726 6.066333,6.0663333 11.15872,0.97394044 15.548164,8.2066851 17.907591,13.590863 l 0,0 0,0 0,0 0,0 z m 0.83791,2.027831 c 0.761415,1.740971 1.387127,2.907079 1.387127,2.907079 0,0 -2.878568,-9.5257743 0.867372,-9.525773 3.74594,8e-7 0.867371,9.525773 0.867371,9.525773 0,0 0.625713,-1.166108 1.387127,-2.90708 l 0,0 c -0.66774,1.716516 -1.035389,2.935549 -1.035389,2.935549 0,0 4.700285,-8.7711947 7.349063,-6.122414 2.648779,2.64878 -6.122415,7.349063 -6.122415,7.349063 0,0 1.219034,-0.367649 2.935549,-1.03539 -1.74097,0.761415 -2.907079,1.387127 -2.907079,1.387127 0,0 9.525775,-2.878568 9.525773,0.867372 -10e-7,3.74594 -9.525773,0.867372 -9.525773,0.867372 0,0 1.166109,0.625711 2.907079,1.387126 l 0,0 c -1.716515,-0.66774 -2.935549,-1.035389 -2.935549,-1.035389 0,0 8.771196,4.700285 6.122415,7.349063 -2.64878,2.648779 -7.349063,-6.122414 -7.349063,-6.122414 0,0 0.367649,1.219033 1.03539,2.935548 -0.761415,-1.74097 -1.387128,-2.907079 -1.387128,-2.907079 0,0 2.878569,9.525774 -0.867371,9.525773 -3.74594,-10e-7 -0.867372,-9.525773 -0.867372,-9.525773 0,0 -0.625712,1.166108 -1.387126,2.90708 l 0,0 c 0.66774,-1.716516 1.035389,-2.935549 1.035389,-2.935549 0,0 -4.700285,8.771195 -7.349063,6.122414 -2.6487789,-2.64878 6.122414,-7.349063 6.122414,-7.349063 0,0 -1.219033,0.367649 -2.935548,1.03539 1.740969,-0.761415 2.907079,-1.387127 2.907079,-1.387127 0,0 -9.5257746,2.878568 -9.525773,-0.867372 8e-7,-3.74594 9.525773,-0.867372 9.525773,-0.867372 0,0 -1.166109,-0.625712 -2.907079,-1.387126 1.716515,0.66774 2.935548,1.035389 2.935548,1.035389 0,0 -8.7711946,-4.700284 -6.122414,-7.349063 2.64878,-2.6487792 7.349063,6.122414 7.349063,6.122414 0,0 -0.367649,-1.219033 -1.03539,-2.935548 l 0,0 0,0 0,0 0,0 z M 20.5,22 C 21.328427,22 22,21.328427 22,20.5 22,19.671573 21.328427,19 20.5,19 19.671572,19 19,19.671573 19,20.5 c 0,0.828427 0.671572,1.5 1.5,1.5 0,0 -0.828428,0 0,0 l 0,0 0,0 z"
       sketch:type="MSShapeGroup"
       id="path8"
       inkscape:connector-curvature="0"
       style="fill:#&fill_color;;fill-opacity:1;stroke:&stroke_color;" />
  </g>
</svg>
